<svg version="1.1" xmlns="http://www.w3.org/2000/svg" xmlns:xlink="http://www.w3.org/1999/xlink" width="437" height="90.79587" viewBox="0,0,437,90.79587"><defs><linearGradient x1="240" y1="135.60205" x2="240" y2="224.39794" gradientUnits="userSpaceOnUse" id="color-1"><stop offset="0" stop-color="#ffffff"/><stop offset="1" stop-color="#d8d8d8"/></linearGradient><linearGradient x1="240" y1="135.60206" x2="240" y2="224.39794" gradientUnits="userSpaceOnUse" id="color-2"><stop offset="0" stop-color="#343434"/><stop offset="1" stop-color="#090909"/></linearGradient><radialGradient cx="443.8065" cy="206.54465" r="17.9081" gradientUnits="userSpaceOnUse" id="color-3"><stop offset="0" stop-color="#ffffff"/><stop offset="1" stop-color="#e5e5e5"/></radialGradient></defs><g transform="translate(-21.5,-134.60207)"><g data-paper-data="{&quot;isPaintingLayer&quot;:true}" fill-rule="nonzero" stroke-linejoin="miter" stroke-miterlimit="10" stroke-dasharray="" stroke-dashoffset="0" style="mix-blend-mode: normal"><path d="M22.5,224.39794v-88.79587h435v88.79587z" fill="url(#color-1)" stroke="url(#color-2)" stroke-width="2" stroke-linecap="butt"/><g><path d="M444.3058,202.09867c2.5136,0 4.7909,1.0212 6.4406,2.6702c1.6489,1.6496 2.6702,3.9269 2.6702,6.4405c0,2.5136 -1.0213,4.791 -2.6702,6.4406c-1.6497,1.649 -3.927,2.6702 -6.4406,2.6702c-2.5136,0 -4.7909,-1.0212 -6.4406,-2.6702c-1.6489,-1.6496 -2.6701,-3.927 -2.6701,-6.4406c0,-2.5136 1.0212,-4.7909 2.6701,-6.4405c1.6497,-1.649 3.927,-2.6702 6.4406,-2.6702z" fill="url(#color-3)" stroke="#000000" stroke-width="2.0785" stroke-linecap="butt"/><path d="M441.2734,206.54886l5.6119,0.4503l1.7321,3.187l-3.6374,2.9446l3.3603,-0.5197l0.7967,3.4642l-7.4479,-0.0693l-1.9053,-2.4249l4.6766,-3.3256l-4.5727,-0.3464z" fill="#000000" stroke="none" stroke-width="0.69283" stroke-linecap="round"/></g><text transform="translate(33,155.40422) scale(0.3438,0.3438)" font-size="40" xml:space="preserve" fill="#e89a2a" fill-rule="nonzero" stroke="#000000" stroke-width="10" stroke-linecap="butt" stroke-linejoin="miter" stroke-miterlimit="10" stroke-dasharray="" stroke-dashoffset="0" font-family="Sans Serif" font-weight="normal" text-anchor="start" style="mix-blend-mode: normal"><tspan x="0" dy="0">Kazooie</tspan></text><text transform="translate(33,155.40422) scale(0.3438,0.3438)" font-size="40" xml:space="preserve" fill="#e89a2a" fill-rule="nonzero" stroke="none" stroke-width="1" stroke-linecap="butt" stroke-linejoin="miter" stroke-miterlimit="10" stroke-dasharray="" stroke-dashoffset="0" font-family="Sans Serif" font-weight="normal" text-anchor="start" style="mix-blend-mode: normal"><tspan x="0" dy="0">Kazooie</tspan></text><path d="M36.59136,166.07742l0.05522,0.10253l0.41019,5.9951h0.04733l2.1535,-2.25606c1.26738,1.70913 1.91685,2.56369 1.94841,2.56369c0.54692,-2.67675 0.88875,-4.28333 1.02548,-4.81974c2.32442,0.447 3.48662,0.72047 3.48662,0.82038c-1.39886,4.44373 -2.20083,6.95747 -2.40592,7.5412c-0.49433,0.03155 -1.58818,0.13409 -3.28153,0.30765c-0.75202,-1.79854 -1.12802,-2.72147 -1.12802,-2.7688c-0.0631,0.00509 -0.45752,0.79129 -1.18324,2.3586h-0.04733c-2.25605,-0.1525 -3.38408,-0.28924 -3.38408,-0.41019c-1.26738,-5.59016 -1.90107,-8.4615 -1.90107,-8.61401v-0.10253c0,-0.10517 1.40148,-0.34446 4.20445,-0.71784z" fill="#000000" stroke="none" stroke-width="0.26459" stroke-linecap="butt"/><path d="M50.11978,166.06954c0.03155,0.04732 0.1788,1.48824 0.44174,4.32278c2.02992,-0.62054 3.11061,-0.93082 3.24208,-0.93082l2.01151,1.37257c-0.32605,2.99755 -0.53903,4.74875 -0.63895,5.2536l-2.79245,0.09464c0,-0.03155 -0.01841,-0.04732 -0.05522,-0.04732l0.05522,-0.19721c0,-0.42597 0.06311,-1.71965 0.18932,-3.88104c-0.76779,-0.03155 -1.33838,-0.04732 -1.71176,-0.04732h-0.19721c0.22613,2.4033 0.3392,3.71276 0.3392,3.92838l-2.65046,0.39442c-0.09992,-0.33657 -0.68891,-3.47874 -1.76698,-9.4265c0,-0.16829 0.4102,-0.29976 1.23058,-0.39442c1.03599,-0.2945 1.80379,-0.44175 2.30338,-0.44175z" fill="#000000" stroke="none" stroke-width="0.26459" stroke-linecap="butt"/><path d="M57.75564,168.45179c3.12376,0.43123 4.68564,0.6968 4.68564,0.79672c1.23058,1.05703 1.84586,1.62237 1.84586,1.69599c-0.49959,1.56187 -0.78357,2.5111 -0.85193,2.84767c0.49959,1.10962 0.78357,1.77223 0.85193,1.98784c0,0.06309 -0.81513,0.23138 -2.44537,0.50486c-0.02104,-0.0894 -0.17091,-0.28924 -0.44963,-0.59951c-2.25079,0.43123 -3.46296,0.64684 -3.6365,0.64684l-1.19902,-3.2421l2.64258,-1.39622c0.42597,0.06835 1.09121,0.10253 1.99573,0.10253c0,-0.11569 0.01578,-0.4654 0.04733,-1.04913c-0.15251,0 -1.51455,0.09991 -4.08613,0.29975l-0.04733,-0.10253c0.3576,-1.66181 0.57321,-2.49271 0.64684,-2.49271zM59.39641,173.09011c0,0.05783 0.16828,0.67313 0.50485,1.84587h0.04733c0.66262,-0.43123 0.99392,-0.71521 0.99392,-0.85194l0.10255,-0.84404c-0.12621,0 -0.67576,-0.04996 -1.64865,-0.14989z" fill="#000000" stroke="none" stroke-width="0.26459" stroke-linecap="butt"/><path d="M67.40302,166.06954l3.47085,0.61528l-0.33131,2.63469c0.68891,-0.03681 1.19376,-0.05521 1.51455,-0.05521h0.50485l0.11044,-0.05521l0.05522,0.11042c-0.11043,1.5987 -0.2051,2.49796 -0.28398,2.69779l-0.11044,-0.06309c-0.07889,0 -0.78883,-0.03681 -2.12984,-0.11042c-0.07363,1.23583 -0.12885,2.71357 -0.16565,4.43322l-0.11044,0.05521c-1.69335,-0.11044 -2.70305,-0.2051 -3.0291,-0.28399l0.05522,-0.22087c0,-0.45752 0.07363,-1.87741 0.22087,-4.25967c-1.41989,-0.07887 -2.12984,-0.17353 -2.12984,-0.28398c0.07363,-1.75647 0.16829,-2.6347 0.28398,-2.6347l2.07462,0.39442v-0.67839c0,-0.55218 -0.02103,-1.29894 -0.06311,-2.24027c0.04207,0 0.06311,-0.0184 0.06311,-0.05521z" fill="#000000" stroke="none" stroke-width="0.26459" stroke-linecap="butt"/><path d="M78.77004,168.45179c3.12376,0.43123 4.68565,0.6968 4.68565,0.79672c1.23058,1.05703 1.84585,1.62237 1.84585,1.69599c-0.49959,1.56187 -0.78357,2.5111 -0.85193,2.84767c0.49959,1.10962 0.78357,1.77223 0.85193,1.98784c0,0.06309 -0.81512,0.23138 -2.44536,0.50486c-0.02104,-0.0894 -0.17092,-0.28924 -0.44964,-0.59951c-2.25079,0.43123 -3.46296,0.64684 -3.6365,0.64684l-1.19902,-3.2421l2.64257,-1.39622c0.42597,0.06835 1.09121,0.10253 1.99574,0.10253c0,-0.11569 0.01578,-0.4654 0.04733,-1.04913c-0.15251,0 -1.51456,0.09991 -4.08614,0.29975l-0.04733,-0.10253c0.3576,-1.66181 0.57322,-2.49271 0.64684,-2.49271zM80.4108,173.09011c0,0.05783 0.16828,0.67313 0.50485,1.84587h0.04733c0.66262,-0.43123 0.99393,-0.71521 0.99393,-0.85194l0.10255,-0.84404c-0.12621,0 -0.67576,-0.04996 -1.64865,-0.14989z" fill="#000000" stroke="none" stroke-width="0.26459" stroke-linecap="butt"/><path d="M91.72261,168.45179c1.04125,0.58373 1.68021,0.96237 1.91685,1.13592c-0.85193,1.77224 -1.30946,2.67414 -1.37256,2.70569h-0.05522l-1.12803,-0.98604l-1.33312,1.62499l0.14987,2.95811c-0.06837,0.06309 -0.93871,0.21034 -2.61102,0.44175c-0.0631,-0.45227 -0.4733,-2.66888 -1.23058,-6.64983c0,-0.06309 1.0991,-0.22612 3.2973,-0.48908c0.03681,0.04206 0.13673,0.53376 0.29976,1.47511c1.31472,-1.47774 2.00362,-2.21661 2.06673,-2.21661z" fill="#000000" stroke="none" stroke-width="0.26459" stroke-linecap="butt"/><path d="M98.73529,168.45968c2.38226,1.22531 3.70224,1.94051 3.95992,2.1456c-0.34182,1.5987 -0.54429,2.42171 -0.6074,2.46904h-4.9854v0.08675l1.39622,1.72754l2.19294,-1.12014c0.21561,0.37338 0.52589,1.02549 0.93082,1.95631c-0.18932,0.06309 -1.56977,0.26556 -4.14135,0.6074c-2.12984,-1.40412 -3.20264,-2.1351 -3.21842,-2.19295c0.34182,-2.72935 0.54429,-4.09402 0.6074,-4.09402c2.2245,-0.94659 3.51292,-1.4751 3.86526,-1.58554zM98.22255,170.36865c-0.04207,0.10517 -0.32079,0.52326 -0.83616,1.25424c0,0.22087 0.31028,0.33131 0.93082,0.33131c0,0.03155 0.44963,0.1078 1.3489,0.22876c0.24717,-0.34183 0.37075,-0.54166 0.37075,-0.59951c-0.07889,-0.46804 -0.2498,-0.70205 -0.51274,-0.70205z" fill="#000000" stroke="none" stroke-width="0.26459" stroke-linecap="butt"/><path d="M111.04891,168.46758c0.07363,0.01051 0.11044,0.04732 0.11044,0.11042l-0.82038,4.54366c1.56714,-0.18406 2.35071,-0.33131 2.35071,-0.44175c0.2945,-1.81956 0.49696,-2.83977 0.6074,-3.06065c1.94052,0.39968 3.01596,0.63632 3.22631,0.70994c-1.13066,3.8863 -1.75121,5.91096 -1.86164,6.07399c-1.97733,1.38834 -3.08958,2.15613 -3.33674,2.30338c-0.07363,0 -1.33312,-0.31028 -3.77849,-0.93082v-0.05521c0.64684,-1.42515 1.04914,-2.13773 1.20691,-2.13773l2.40592,1.20691l1.15169,-1.97207c-1.03599,0.25769 -1.63813,0.38653 -1.80641,0.38653l-3.06854,-1.59344c0.37338,-3.42877 0.61002,-5.14316 0.70995,-5.14316z" fill="#000000" stroke="none" stroke-width="0.26459" stroke-linecap="butt"/><path d="M120.47541,168.45968c1.99837,0.5364 3.05803,0.86245 3.17898,0.97814c1.0991,1.55662 1.71702,2.45326 1.85375,2.68991c-0.70995,2.25079 -1.11751,3.37619 -1.22269,3.37619c-2.36648,0.55218 -3.60495,0.82828 -3.71538,0.82828c-1.95629,-1.14117 -2.99755,-1.7775 -3.12376,-1.90897c-0.06837,-2.12458 -0.10255,-3.2973 -0.10255,-3.51817c-0.03155,-0.06309 -0.04733,-0.11042 -0.04733,-0.14199c2.0194,-1.53558 3.06328,-2.30338 3.13165,-2.30338zM120.32554,171.34679c-0.03155,0.21035 -0.07889,0.97553 -0.14199,2.2955l1.75909,0.3944c0.42071,-1.31471 0.63106,-2.01677 0.63106,-2.10617c-1.39886,-0.4207 -2.14824,-0.63106 -2.24816,-0.63106z" fill="#000000" stroke="none" stroke-width="0.26459" stroke-linecap="butt"/><path d="M130.48565,168.45179l0.05522,0.10253l-1.06491,5.64802h0.05522l2.71357,-0.79672v-3.19475c0.01051,-0.07361 0.0447,-0.11042 0.10255,-0.11042c2.04044,0.14199 3.17635,0.21298 3.40774,0.21298c0,0.03681 0.01841,0.05521 0.05522,0.05521c0,0.89927 -0.28398,2.76353 -0.85193,5.59279c0,0.16303 -0.81513,0.28662 -2.44537,0.37076c-0.08414,-0.09993 -0.15513,-0.31291 -0.21298,-0.63896c-2.08777,0.42597 -3.2789,0.63896 -3.57339,0.63896c-1.66706,-1.2411 -2.50059,-1.88005 -2.50059,-1.91686c0.28398,-3.72853 0.46278,-5.66379 0.5364,-5.80578h0.04733c1.33049,-0.03681 2.55581,-0.08939 3.67594,-0.15777z" fill="#000000" stroke="none" stroke-width="0.26459" stroke-linecap="butt"/><path d="M140.61421,166.07742c1.60921,0.03155 2.78983,0.04732 3.54185,0.04732c0.06835,0 0.27608,3.22894 0.62317,9.68682c-0.2682,0.06835 -1.20428,0.2419 -2.80822,0.52063c-0.07887,0 -0.33918,-1.97733 -0.78095,-5.932c-0.03681,-0.09466 -0.22876,-1.53558 -0.57585,-4.32278z" fill="#000000" stroke="none" stroke-width="0.26459" stroke-linecap="butt"/><path d="M148.8417,168.45968c1.99836,0.5364 3.05802,0.86245 3.17898,0.97814c1.0991,1.55662 1.71701,2.45326 1.85374,2.68991c-0.70994,2.25079 -1.1175,3.37619 -1.22268,3.37619c-2.36649,0.55218 -3.60495,0.82828 -3.71538,0.82828c-1.9563,-1.14117 -2.99755,-1.7775 -3.12376,-1.90897c-0.06835,-2.12458 -0.10253,-3.2973 -0.10253,-3.51817c-0.03155,-0.06309 -0.04732,-0.11042 -0.04732,-0.14199c2.0194,-1.53558 3.06329,-2.30338 3.13166,-2.30338zM148.69182,171.34679c-0.03155,0.21035 -0.07887,0.97553 -0.14199,2.2955l1.75909,0.3944c0.42072,-1.31471 0.63107,-2.01677 0.63107,-2.10617c-1.39886,-0.4207 -2.14824,-0.63106 -2.24817,-0.63106z" fill="#000000" stroke="none" stroke-width="0.26459" stroke-linecap="butt"/><path d="M157.77124,168.45968c1.99836,0.5364 3.05802,0.86245 3.17898,0.97814c1.09911,1.55662 1.71703,2.45326 1.85375,2.68991c-0.70995,2.25079 -1.11751,3.37619 -1.2227,3.37619c-2.36648,0.55218 -3.60494,0.82828 -3.71538,0.82828c-1.95629,-1.14117 -2.99754,-1.7775 -3.12376,-1.90897c-0.06835,-2.12458 -0.10253,-3.2973 -0.10253,-3.51817c-0.03155,-0.06309 -0.04732,-0.11042 -0.04732,-0.14199c2.0194,-1.53558 3.06328,-2.30338 3.13164,-2.30338zM157.62136,171.34679c-0.03155,0.21035 -0.07888,0.97553 -0.142,2.2955l1.7591,0.3944c0.4207,-1.31471 0.63106,-2.01677 0.63106,-2.10617c-1.39886,-0.4207 -2.14824,-0.63106 -2.24816,-0.63106z" fill="#000000" stroke="none" stroke-width="0.26459" stroke-linecap="butt"/><path d="M167.00053,166.06954c0.07361,0.21035 0.23927,1.70125 0.49697,4.47267l2.36648,-2.65047h0.05521c0.36812,0.30502 1.04914,0.94923 2.04306,1.93263v0.05521l-2.26394,1.86951c1.70387,1.14117 2.60577,1.78539 2.70568,1.93263c-1.0728,1.19376 -1.71701,1.87479 -1.93262,2.04307l-2.75301,-2.54003c0.11043,1.13591 0.16565,1.98259 0.16565,2.54003c-0.13147,0.07361 -1.10699,0.27608 -2.92655,0.6074c-0.14725,-0.73625 -0.6258,-3.89945 -1.43566,-9.48961c0.33656,-0.11044 1.49614,-0.36813 3.47873,-0.77306z" fill="#000000" stroke="none" stroke-width="0.26459" stroke-linecap="butt"/><path d="M174.17099,165.28858l3.1001,0.48908c-0.38916,1.48826 -0.64421,2.23238 -0.76516,2.23238c-1.63025,-0.11044 -2.44538,-0.21825 -2.44538,-0.32342v-2.2876c0.01577,-0.07361 0.05258,-0.11042 0.11042,-0.11042zM173.30328,169.04342h0.04732c2.39804,0.43649 3.59705,0.69154 3.59705,0.76517c-0.68891,3.90208 -1.10698,6.07661 -1.25423,6.52361h-2.50059c-0.07361,0 -0.11042,-0.03681 -0.11042,-0.11042z" fill="#000000" stroke="none" stroke-width="0.26459" stroke-linecap="butt"/><path d="M184.5362,168.45179l2.6268,1.80642c-0.18406,2.99755 -0.3129,4.74875 -0.38653,5.2536c-0.30502,0.03681 -1.2332,0.09203 -2.78456,0.16566l-0.05521,-0.11042l-0.27609,-4.21234l-0.11042,-0.05521c-1.00444,0.21561 -1.69598,0.37864 -2.07462,0.48907c0.10518,1.79327 0.15777,3.08958 0.15777,3.88893c-1.56714,0.43649 -2.42433,0.65473 -2.57158,0.65473c-1.02022,-4.49107 -1.53033,-6.86282 -1.53033,-7.11524c2.21924,-0.28924 3.42351,-0.43386 3.61283,-0.43386v0.05521c0.03681,0.02629 0.09203,0.57321 0.16566,1.64077c2.03518,-1.35154 3.11061,-2.0273 3.22631,-2.0273z" fill="#000000" stroke="none" stroke-width="0.26459" stroke-linecap="butt"/><path d="M193.8286,168.47547c2.23502,0.05783 3.35252,0.15512 3.35252,0.29186c0.38389,5.82156 0.57584,8.91903 0.57584,9.2924c-1.69335,1.07807 -2.90552,1.80905 -3.6365,2.19295c-2.57684,-0.80987 -3.86526,-1.27264 -3.86526,-1.38834c0.83089,-1.2148 1.31208,-1.83008 1.44355,-1.84585c1.40412,0.69417 2.21136,1.04125 2.4217,1.04125l0.74939,-0.98603c-0.19983,-0.81513 -0.33394,-1.29632 -0.4023,-1.44356c-0.11569,0 -1.54084,0.23139 -4.27545,0.69417c-1.49877,-2.43485 -2.24816,-3.68383 -2.24816,-3.74693c1.29367,-2.06673 2.0825,-3.2789 2.36648,-3.6365h0.05521c0.15251,0 1.28843,0.2498 3.40775,0.74939v-0.17355c0,-0.20509 -0.0184,-0.53376 -0.05521,-0.98603zM191.35168,171.82009c0.07361,0.16302 0.305,1.03073 0.69417,2.60313c0.48908,-0.15776 1.23846,-0.447 2.24817,-0.86771c-0.19458,-0.94659 -0.29188,-1.48562 -0.29188,-1.6171l-0.28398,-0.05521h-0.34708c-0.44174,0 -1.11488,-0.02103 -2.0194,-0.06309z" fill="#000000" stroke="none" stroke-width="0.26459" stroke-linecap="butt"/><path d="M203.81517,168.45179c3.12376,0.43123 4.68565,0.6968 4.68565,0.79672c1.23057,1.05703 1.84585,1.62237 1.84585,1.69599c-0.49959,1.56187 -0.78357,2.5111 -0.85193,2.84767c0.49959,1.10962 0.78357,1.77223 0.85193,1.98784c0,0.06309 -0.81512,0.23138 -2.44536,0.50486c-0.02103,-0.0894 -0.17091,-0.28924 -0.44964,-0.59951c-2.25079,0.43123 -3.46296,0.64684 -3.6365,0.64684l-1.19902,-3.2421l2.64259,-1.39622c0.42596,0.06835 1.09121,0.10253 1.99573,0.10253c0,-0.11569 0.01577,-0.4654 0.04732,-1.04913c-0.1525,0 -1.51455,0.09991 -4.08614,0.29975l-0.04732,-0.10253c0.3576,-1.66181 0.57321,-2.49271 0.64683,-2.49271zM205.45594,173.09011c0,0.05783 0.16828,0.67313 0.50484,1.84587h0.04732c0.66262,-0.43123 0.99393,-0.71521 0.99393,-0.85194l0.10253,-0.84404c-0.12621,0 -0.67576,-0.04996 -1.64865,-0.14989z" fill="#000000" stroke="none" stroke-width="0.26459" stroke-linecap="butt"/><path d="M213.46254,166.06954l3.47085,0.61528l-0.33131,2.63469c0.68891,-0.03681 1.19376,-0.05521 1.51454,-0.05521h0.50486l0.11042,-0.05521l0.05521,0.11042c-0.11043,1.5987 -0.20509,2.49796 -0.28398,2.69779l-0.11042,-0.06309c-0.07887,0 -0.78881,-0.03681 -2.12983,-0.11042c-0.07361,1.23583 -0.12883,2.71357 -0.16566,4.43322l-0.11042,0.05521c-1.69335,-0.11044 -2.70305,-0.2051 -3.0291,-0.28399l0.05521,-0.22087c0,-0.45752 0.07363,-1.87741 0.22088,-4.25967c-1.4199,-0.07887 -2.12984,-0.17353 -2.12984,-0.28398c0.07361,-1.75647 0.16827,-2.6347 0.28398,-2.6347l2.07462,0.39442v-0.67839c0,-0.55218 -0.02103,-1.29894 -0.06309,-2.24027c0.04206,0 0.06309,-0.0184 0.06309,-0.05521z" fill="#000000" stroke="none" stroke-width="0.26459" stroke-linecap="butt"/><path d="M220.71977,174.62833c1.43041,0.16829 2.14824,0.26294 2.1535,0.28398c-0.86772,2.04044 -1.35416,3.11325 -1.45934,3.21842c-0.71521,-0.0894 -1.07281,-0.16302 -1.07281,-0.22087c0.18931,-2.18769 0.30501,-3.28153 0.34708,-3.28153z" fill="#000000" stroke="none" stroke-width="0.26459" stroke-linecap="butt"/><path d="M231.97637,168.45968c0.16302,0.67313 0.27608,1.08858 0.3392,1.24634c2.32441,-0.53114 3.55235,-0.79672 3.68382,-0.79672c1.58292,2.27709 2.37438,3.46559 2.37438,3.56551l-1.81431,3.84948l-3.9047,-0.62317v0.1183c0.30502,2.34019 0.45752,3.58391 0.45752,3.73115c-0.03681,0 -0.05521,0.0184 -0.05521,0.05521c-0.37864,-0.03681 -0.66262,-0.05521 -0.85194,-0.05521h-0.67839c-0.39442,0 -0.99919,-0.0184 -1.81431,-0.05521c-0.07361,-0.22087 -0.63894,-3.57865 -1.69598,-10.07335c0.1788,-0.07361 1.49878,-0.3944 3.95992,-0.96237zM232.26034,171.686c0.10517,1.20953 0.19983,1.81429 0.28398,1.81429c1.07807,0.37338 1.73805,0.56008 1.97995,0.56008l0.62318,-2.71358h-0.05521c-0.61529,0.03681 -1.55925,0.14987 -2.83189,0.33921z" fill="#000000" stroke="none" stroke-width="0.26459" stroke-linecap="butt"/><path d="M240.27483,165.28858l3.1001,0.48908c-0.38915,1.48826 -0.64421,2.23238 -0.76516,2.23238c-1.63025,-0.11044 -2.44536,-0.21825 -2.44536,-0.32342v-2.2876c0.01577,-0.07361 0.05258,-0.11042 0.11042,-0.11042zM239.40711,169.04342h0.04732c2.39804,0.43649 3.59707,0.69154 3.59707,0.76517c-0.68892,3.90208 -1.10699,6.07661 -1.25424,6.52361h-2.50059c-0.07361,0 -0.11042,-0.03681 -0.11042,-0.11042z" fill="#000000" stroke="none" stroke-width="0.26459" stroke-linecap="butt"/><path d="M247.59517,168.45968c0.16302,0.67313 0.27608,1.08858 0.3392,1.24634c2.32442,-0.53114 3.55236,-0.79672 3.68382,-0.79672c1.58292,2.27709 2.37438,3.46559 2.37438,3.56551l-1.81431,3.84948l-3.9047,-0.62317v0.1183c0.30502,2.34019 0.45752,3.58391 0.45752,3.73115c-0.03681,0 -0.05521,0.0184 -0.05521,0.05521c-0.37864,-0.03681 -0.66262,-0.05521 -0.85194,-0.05521h-0.67839c-0.39442,0 -0.99919,-0.0184 -1.81431,-0.05521c-0.07361,-0.22087 -0.63894,-3.57865 -1.69598,-10.07335c0.1788,-0.07361 1.49878,-0.3944 3.95992,-0.96237zM247.87915,171.686c0.10517,1.20953 0.19983,1.81429 0.28398,1.81429c1.07807,0.37338 1.73805,0.56008 1.97997,0.56008l0.62317,-2.71358h-0.05521c-0.61529,0.03681 -1.55925,0.14987 -2.83189,0.33921z" fill="#000000" stroke="none" stroke-width="0.26459" stroke-linecap="butt"/><path d="M259.27772,168.45968c2.38226,1.22531 3.70223,1.94051 3.95991,2.1456c-0.34182,1.5987 -0.54428,2.42171 -0.6074,2.46904h-4.9854v0.08675l1.39623,1.72754l2.19295,-1.12014c0.21561,0.37338 0.52588,1.02549 0.93082,1.95631c-0.18933,0.06309 -1.56978,0.26556 -4.14136,0.6074c-2.12984,-1.40412 -3.20264,-2.1351 -3.21842,-2.19295c0.34183,-2.72935 0.5443,-4.09402 0.6074,-4.09402c2.2245,-0.94659 3.51293,-1.4751 3.86527,-1.58554zM258.76498,170.36865c-0.04206,0.10517 -0.32078,0.52326 -0.83615,1.25424c0,0.22087 0.31027,0.33131 0.93081,0.33131c0,0.03155 0.44963,0.1078 1.3489,0.22876c0.24717,-0.34183 0.37076,-0.54166 0.37076,-0.59951c-0.07887,-0.46804 -0.24978,-0.70205 -0.51274,-0.70205z" fill="#000000" stroke="none" stroke-width="0.26459" stroke-linecap="butt"/><path d="M271.06281,168.45968c2.37174,0.447 3.61284,0.70206 3.72328,0.76516v0.09464c-0.51012,1.44092 -0.76517,2.18769 -0.76517,2.24028h-0.04732c-0.13147,0 -0.7678,-0.20509 -1.90897,-0.61528c-0.63632,1.06754 -0.95448,1.63813 -0.95448,1.71175l1.57766,1.53033c1.22006,-1.14643 1.84059,-1.71965 1.86163,-1.71965c0.95185,1.24635 1.42778,1.94578 1.42778,2.09828c-0.52062,0.29976 -1.42777,0.88875 -2.72145,1.76699c-2.50322,-0.54167 -3.85474,-0.84406 -4.05458,-0.90716l-1.23847,-4.00724z" fill="#000000" stroke="none" stroke-width="0.26459" stroke-linecap="butt"/><path d="M276.76606,166.07742c1.60921,0.03155 2.78983,0.04732 3.54185,0.04732c0.06835,0 0.27608,3.22894 0.62317,9.68682c-0.2682,0.06835 -1.20428,0.2419 -2.80823,0.52063c-0.07887,0 -0.33918,-1.97733 -0.78093,-5.932c-0.03681,-0.09466 -0.22876,-1.53558 -0.57585,-4.32278z" fill="#000000" stroke="none" stroke-width="0.26459" stroke-linecap="butt"/><path d="M286.28722,168.45968c2.38227,1.22531 3.70225,1.94051 3.95992,2.1456c-0.34182,1.5987 -0.54428,2.42171 -0.6074,2.46904h-4.9854v0.08675l1.39623,1.72754l2.19295,-1.12014c0.21561,0.37338 0.52588,1.02549 0.93081,1.95631c-0.18931,0.06309 -1.56977,0.26556 -4.14134,0.6074c-2.12984,-1.40412 -3.20265,-2.1351 -3.21842,-2.19295c0.34183,-2.72935 0.5443,-4.09402 0.6074,-4.09402c2.2245,-0.94659 3.51292,-1.4751 3.86526,-1.58554zM285.77448,170.36865c-0.04206,0.10517 -0.32078,0.52326 -0.83617,1.25424c0,0.22087 0.31028,0.33131 0.93082,0.33131c0,0.03155 0.44963,0.1078 1.3489,0.22876c0.24717,-0.34183 0.37076,-0.54166 0.37076,-0.59951c-0.07887,-0.46804 -0.24978,-0.70205 -0.51274,-0.70205z" fill="#000000" stroke="none" stroke-width="0.26459" stroke-linecap="butt"/><path d="M292.164,168.45179c3.12376,0.43123 4.68564,0.6968 4.68564,0.79672c1.23058,1.05703 1.84587,1.62237 1.84587,1.69599c-0.49959,1.56187 -0.78357,2.5111 -0.85194,2.84767c0.49959,1.10962 0.78357,1.77223 0.85194,1.98784c0,0.06309 -0.81513,0.23138 -2.44538,0.50486c-0.02103,-0.0894 -0.17091,-0.28924 -0.44962,-0.59951c-2.25079,0.43123 -3.46296,0.64684 -3.6365,0.64684l-1.19902,-3.2421l2.64257,-1.39622c0.42597,0.06835 1.09122,0.10253 1.99574,0.10253c0,-0.11569 0.01577,-0.4654 0.04732,-1.04913c-0.15251,0 -1.51456,0.09991 -4.08614,0.29975l-0.04732,-0.10253c0.3576,-1.66181 0.57322,-2.49271 0.64684,-2.49271zM293.80476,173.09011c0,0.05783 0.16829,0.67313 0.50486,1.84587h0.04732c0.66262,-0.43123 0.99393,-0.71521 0.99393,-0.85194l0.10253,-0.84404c-0.12621,0 -0.67576,-0.04996 -1.64866,-0.14989z" fill="#000000" stroke="none" stroke-width="0.26459" stroke-linecap="butt"/><path d="M306.45757,168.45179l2.6268,1.80642c-0.18407,2.99755 -0.31291,4.74875 -0.38653,5.2536c-0.30502,0.03681 -1.23321,0.09203 -2.78457,0.16566l-0.05521,-0.11042l-0.27609,-4.21234l-0.11042,-0.05521c-1.00445,0.21561 -1.69599,0.37864 -2.07462,0.48907c0.10517,1.79327 0.15776,3.08958 0.15776,3.88893c-1.56714,0.43649 -2.42433,0.65473 -2.57158,0.65473c-1.02022,-4.49107 -1.53033,-6.86282 -1.53033,-7.11524c2.21924,-0.28924 3.42352,-0.43386 3.61284,-0.43386v0.05521c0.03681,0.02629 0.09203,0.57321 0.16566,1.64077c2.03518,-1.35154 3.11061,-2.0273 3.22631,-2.0273z" fill="#000000" stroke="none" stroke-width="0.26459" stroke-linecap="butt"/><path d="M314.33797,168.45968c2.38226,1.22531 3.70223,1.94051 3.95991,2.1456c-0.34182,1.5987 -0.54428,2.42171 -0.6074,2.46904h-4.9854v0.08675l1.39623,1.72754l2.19295,-1.12014c0.21561,0.37338 0.52588,1.02549 0.93081,1.95631c-0.18931,0.06309 -1.56977,0.26556 -4.14134,0.6074c-2.12984,-1.40412 -3.20265,-2.1351 -3.21842,-2.19295c0.34183,-2.72935 0.5443,-4.09402 0.6074,-4.09402c2.2245,-0.94659 3.51293,-1.4751 3.86527,-1.58554zM313.82523,170.36865c-0.04206,0.10517 -0.32078,0.52326 -0.83615,1.25424c0,0.22087 0.31027,0.33131 0.93081,0.33131c0,0.03155 0.44963,0.1078 1.3489,0.22876c0.24717,-0.34183 0.37076,-0.54166 0.37076,-0.59951c-0.07887,-0.46804 -0.24978,-0.70205 -0.51274,-0.70205z" fill="#000000" stroke="none" stroke-width="0.26459" stroke-linecap="butt"/><path d="M324.67951,168.45179c1.04125,0.58373 1.68021,0.96237 1.91686,1.13592c-0.85193,1.77224 -1.30946,2.67414 -1.37257,2.70569h-0.05521l-1.12802,-0.98604l-1.33312,1.62499l0.14987,2.95811c-0.06835,0.06309 -0.93869,0.21034 -2.61103,0.44175c-0.06309,-0.45227 -0.47328,-2.66888 -1.23057,-6.64983c0,-0.06309 1.0991,-0.22612 3.2973,-0.48908c0.03681,0.04206 0.13673,0.53376 0.29976,1.47511c1.31471,-1.47774 2.00362,-2.21661 2.06672,-2.21661z" fill="#000000" stroke="none" stroke-width="0.26459" stroke-linecap="butt"/><path d="M333.0332,166.06954c0.13673,0.2419 0.67839,1.35941 1.62499,3.35252c-1.32523,1.06229 -2.02203,1.64865 -2.0904,1.75909v0.10253c0,0.15776 -0.02366,0.88874 -0.07098,2.19294c-0.5995,0.1788 -1.30682,0.33394 -2.12194,0.46541v-0.03155l-0.52852,-2.56371c0.01577,0 0.56796,-0.71783 1.65655,-2.1535l-0.76517,-0.79671c-0.87823,1.26212 -1.35415,1.89319 -1.42778,1.89319c-1.34101,-0.57322 -2.03781,-0.89401 -2.0904,-0.96238c0.73098,-1.64076 1.1622,-2.56106 1.29368,-2.7609c2.38226,-0.28924 3.88892,-0.45488 4.51999,-0.49696zM332.4968,174.03669l0.03943,0.07098c-0.02629,0.76253 -0.03943,1.35942 -0.03943,1.79065v0.07098c0,0.06309 -0.58636,0.18405 -1.75909,0.36287c-0.04732,0 -0.14724,-0.63106 -0.29975,-1.8932c0.20509,-0.06835 0.89137,-0.20246 2.05884,-0.4023z" fill="#000000" stroke="none" stroke-width="0.26459" stroke-linecap="butt"/><path d="M38.08225,186.27144c1.99837,0.50485 3.06066,0.80461 3.18687,0.89927c-0.70995,1.69861 -1.09121,2.56894 -1.1438,2.61101c-0.13147,0 -0.98603,-0.29976 -2.56369,-0.89926c-0.91504,0.85193 -1.37256,1.32786 -1.37256,1.42778c-0.06836,1.57766 -0.10254,2.49533 -0.10254,2.75301c1.09384,0.50485 1.74331,0.78883 1.94841,0.85194c1.02022,-0.44174 1.60658,-0.70995 1.75909,-0.80461l-0.28398,-0.90716c-0.18932,0.10518 -0.75991,0.34446 -1.71176,0.71784l-0.04733,-0.09464v-0.38653c0,-0.33132 -0.01578,-0.83617 -0.04733,-1.51456c0.24717,-0.06309 1.6881,-0.22086 4.32279,-0.4733c0.0631,0.32606 0.17353,1.71703 0.3313,4.1729c-0.08414,0.09466 -1.66706,0.72835 -4.74875,1.90109c-2.62417,-0.95712 -3.95466,-1.49616 -3.99147,-1.61711c-0.82038,-2.85029 -1.23058,-4.3517 -1.23058,-4.5042c1.07807,-1.94053 1.69598,-2.98704 1.85375,-3.13954c0.13147,-0.06309 1.412,-0.3944 3.8416,-0.99393z" fill="#000000" stroke="none" stroke-width="0.26459" stroke-linecap="butt"/><path d="M46.32551,188.65371c1.99837,0.5364 3.05803,0.86245 3.17898,0.97814c1.0991,1.55662 1.71702,2.45326 1.85375,2.68991c-0.70995,2.25079 -1.11751,3.37619 -1.22269,3.37619c-2.36648,0.55218 -3.60495,0.82828 -3.71538,0.82828c-1.95629,-1.14117 -2.99755,-1.7775 -3.12376,-1.90897c-0.06836,-2.12458 -0.10254,-3.2973 -0.10254,-3.51817c-0.03155,-0.06309 -0.04733,-0.11042 -0.04733,-0.14199c2.0194,-1.53558 3.06328,-2.30338 3.13165,-2.30338zM46.17564,191.5408c-0.03155,0.21035 -0.07889,0.97553 -0.14199,2.2955l1.75909,0.3944c0.42071,-1.31471 0.63106,-2.01677 0.63106,-2.10617c-1.39886,-0.4207 -2.14824,-0.63106 -2.24816,-0.63106z" fill="#000000" stroke="none" stroke-width="0.26459" stroke-linecap="butt"/><path d="M62.44917,188.64581c1.51455,0.96763 2.35071,1.52507 2.50848,1.67232c-0.54692,1.2148 -0.85983,1.82219 -0.93871,1.82219l-2.87134,-1.66442h-0.10255c0,0.05258 -0.12358,0.34708 -0.37075,0.88349c2.64521,1.42515 3.96781,2.15613 3.96781,2.19294c-0.7415,1.71439 -1.15958,2.61892 -1.25424,2.71358l-4.48843,0.26032c-1.74594,-1.15695 -2.68465,-1.76698 -2.81612,-1.83009v-0.04732c0,-0.13147 0.26032,-0.7231 0.78094,-1.77487l3.5024,1.82219l0.26032,-1.04125c-2.16665,-0.97289 -3.45507,-1.58029 -3.86526,-1.82219v-0.11042c0,-0.19983 0.41808,-1.08595 1.25424,-2.65835z" fill="#000000" stroke="none" stroke-width="0.26459" stroke-linecap="butt"/><path d="M66.9376,188.64581c3.12376,0.43123 4.68565,0.6968 4.68565,0.79672c1.23058,1.05703 1.84586,1.62236 1.84586,1.69598c-0.49959,1.56188 -0.78357,2.51111 -0.85194,2.84768c0.49959,1.10962 0.78357,1.77223 0.85194,1.98784c0,0.06309 -0.81513,0.23138 -2.44537,0.50486c-0.02103,-0.0894 -0.17091,-0.28924 -0.44963,-0.59951c-2.25079,0.43123 -3.46297,0.64684 -3.63651,0.64684l-1.19902,-3.2421l2.64257,-1.39622c0.42597,0.06835 1.09122,0.10253 1.99574,0.10253c0,-0.11569 0.01578,-0.4654 0.04733,-1.04913c-0.15251,0 -1.51456,0.09991 -4.08614,0.29975l-0.04733,-0.10253c0.3576,-1.6618 0.57322,-2.4927 0.64684,-2.4927zM68.57837,193.28412c0,0.05783 0.16828,0.67313 0.50485,1.84587h0.04733c0.66262,-0.43123 0.99393,-0.71521 0.99393,-0.85194l0.10255,-0.84404c-0.12621,0 -0.67576,-0.04996 -1.64865,-0.14989z" fill="#000000" stroke="none" stroke-width="0.26459" stroke-linecap="butt"/><path d="M77.29493,188.64581c1.28842,2.95548 1.9747,4.48844 2.05884,4.59888c0.63632,-2.41382 1.00707,-3.69961 1.11225,-3.85738c2.00888,0.18407 3.01333,0.34184 3.01333,0.4733v0.05521c-1.40938,3.87053 -2.16666,5.89782 -2.27183,6.08188c-1.55662,0.28398 -2.59787,0.46015 -3.12376,0.52852l-3.85738,-5.71111v-0.11042c0.03681,-0.06835 1.05966,-0.75463 3.06854,-2.05885z" fill="#000000" stroke="none" stroke-width="0.26459" stroke-linecap="butt"/><path d="M88.79605,188.65371c2.38226,1.22531 3.70223,1.94051 3.95992,2.1456c-0.34182,1.5987 -0.54429,2.42171 -0.6074,2.46904h-4.9854v0.08675l1.39623,1.72754l2.19294,-1.12014c0.21561,0.37338 0.52589,1.02548 0.93082,1.95629c-0.18932,0.06309 -1.56977,0.26556 -4.14135,0.60741c-2.12984,-1.40412 -3.20265,-2.1351 -3.21842,-2.19295c0.34182,-2.72935 0.54429,-4.09402 0.6074,-4.09402c2.2245,-0.94659 3.51292,-1.4751 3.86526,-1.58554zM88.28331,190.56266c-0.04207,0.10517 -0.32079,0.52326 -0.83616,1.25424c0,0.22086 0.31027,0.3313 0.93081,0.3313c0,0.03155 0.44963,0.1078 1.3489,0.22877c0.24717,-0.34183 0.37076,-0.54166 0.37076,-0.59951c-0.07889,-0.46804 -0.2498,-0.70205 -0.51274,-0.70205z" fill="#000000" stroke="none" stroke-width="0.26459" stroke-linecap="butt"/><path d="M103.8469,188.64581c1.51455,0.96763 2.35071,1.52507 2.50848,1.67232c-0.54692,1.2148 -0.85983,1.82219 -0.93871,1.82219l-2.87133,-1.66442h-0.10255c0,0.05258 -0.12358,0.34708 -0.37075,0.88349c2.64521,1.42515 3.96781,2.15613 3.96781,2.19294c-0.7415,1.71439 -1.15958,2.61892 -1.25424,2.71358l-4.48843,0.26032c-1.74594,-1.15695 -2.68465,-1.76698 -2.81612,-1.83009v-0.04732c0,-0.13147 0.26032,-0.7231 0.78094,-1.77487l3.5024,1.82219l0.26032,-1.04125c-2.16665,-0.97289 -3.45507,-1.58029 -3.86526,-1.82219v-0.11042c0,-0.19983 0.41808,-1.08595 1.25424,-2.65835z" fill="#000000" stroke="none" stroke-width="0.26459" stroke-linecap="butt"/><path d="M110.3153,188.65371c1.99837,0.5364 3.05803,0.86245 3.17898,0.97814c1.0991,1.55662 1.71702,2.45326 1.85375,2.68991c-0.70995,2.25079 -1.11751,3.37619 -1.22269,3.37619c-2.36648,0.55218 -3.60495,0.82828 -3.71538,0.82828c-1.95629,-1.14117 -2.99755,-1.7775 -3.12376,-1.90897c-0.06837,-2.12458 -0.10255,-3.2973 -0.10255,-3.51817c-0.03155,-0.06309 -0.04733,-0.11042 -0.04733,-0.14199c2.0194,-1.53558 3.06328,-2.30338 3.13165,-2.30338zM110.16542,191.5408c-0.03155,0.21035 -0.07889,0.97553 -0.14199,2.2955l1.75909,0.3944c0.42071,-1.31471 0.63106,-2.01677 0.63106,-2.10617c-1.39886,-0.4207 -2.14824,-0.63106 -2.24816,-0.63106z" fill="#000000" stroke="none" stroke-width="0.26459" stroke-linecap="butt"/><path d="M124.82975,188.64581c1.28316,0.53114 2.39015,1.03074 3.32097,1.49878c-0.24191,3.12902 -0.39704,4.84077 -0.46541,5.13527c-1.5461,0.3839 -2.41118,0.57585 -2.59525,0.57585c0,-0.68366 -0.05259,-2.03256 -0.15777,-4.0467c-0.58373,0.05783 -0.8756,0.1078 -0.8756,0.14989c0,0.19983 0.03418,1.341 0.10254,3.42352c0.03155,0 0.04733,0.0184 0.04733,0.05521c0,0.06309 -0.81249,0.23664 -2.43748,0.52063c-0.06837,-0.08413 -0.2761,-1.36466 -0.62318,-3.8416c-0.65736,0.16829 -0.98603,0.28924 -0.98603,0.36286l0.31553,3.21842c-0.0631,0.06835 -0.92819,0.34444 -2.59525,0.82828c-0.96763,-3.42352 -1.5724,-5.72165 -1.81431,-6.89437c1.82482,-0.45226 2.84504,-0.67839 3.06066,-0.67839c0.24191,0.95711 0.36286,1.50929 0.36286,1.65655h0.05522c0.88875,-0.82039 1.50929,-1.37257 1.86163,-1.65655h0.05522l1.65654,1.19114h0.05522c1.03599,-0.99919 1.58818,-1.49878 1.65655,-1.49878z" fill="#000000" stroke="none" stroke-width="0.26459" stroke-linecap="butt"/><path d="M133.41221,188.65371c2.38226,1.22531 3.70223,1.94051 3.95992,2.1456c-0.34182,1.5987 -0.54429,2.42171 -0.6074,2.46904h-4.9854v0.08675l1.39623,1.72754l2.19294,-1.12014c0.21561,0.37338 0.52589,1.02548 0.93082,1.95629c-0.18932,0.06309 -1.56977,0.26556 -4.14135,0.60741c-2.12984,-1.40412 -3.20264,-2.1351 -3.21842,-2.19295c0.34183,-2.72935 0.54429,-4.09402 0.6074,-4.09402c2.2245,-0.94659 3.51292,-1.4751 3.86526,-1.58554zM132.89947,190.56266c-0.04207,0.10517 -0.32079,0.52326 -0.83616,1.25424c0,0.22086 0.31027,0.3313 0.93081,0.3313c0,0.03155 0.44963,0.1078 1.3489,0.22877c0.24717,-0.34183 0.37075,-0.54166 0.37075,-0.59951c-0.07889,-0.46804 -0.2498,-0.70205 -0.51274,-0.70205z" fill="#000000" stroke="none" stroke-width="0.26459" stroke-linecap="butt"/><path d="M146.05713,188.65371c0.16303,0.67313 0.2761,1.08858 0.3392,1.24634c2.32442,-0.53114 3.55236,-0.79672 3.68383,-0.79672c1.58291,2.27709 2.37437,3.46559 2.37437,3.56551l-1.81431,3.84948l-3.9047,-0.62317v0.1183c0.30502,2.34019 0.45752,3.58391 0.45752,3.73115c-0.03681,0 -0.05521,0.0184 -0.05521,0.05521c-0.37864,-0.03681 -0.66261,-0.05521 -0.85194,-0.05521h-0.67839c-0.39442,0 -0.99919,-0.0184 -1.81431,-0.05521c-0.07361,-0.22087 -0.63894,-3.57865 -1.69598,-10.07335c0.1788,-0.07361 1.49878,-0.3944 3.95992,-0.96237zM146.3411,191.88001c0.10517,1.20954 0.19983,1.81431 0.28398,1.81431c1.07807,0.37338 1.73805,0.56008 1.97997,0.56008l0.62317,-2.71358h-0.05521c-0.61528,0.03681 -1.55925,0.14987 -2.83189,0.3392z" fill="#000000" stroke="none" stroke-width="0.26459" stroke-linecap="butt"/><path d="M158.93081,188.64581c1.04126,0.58373 1.68021,0.96237 1.91686,1.13592c-0.85193,1.77224 -1.30946,2.67414 -1.37257,2.70569h-0.05521l-1.12803,-0.98604l-1.33312,1.62499l0.14987,2.95811c-0.06835,0.06309 -0.93869,0.21034 -2.61103,0.44175c-0.06309,-0.45227 -0.47328,-2.66888 -1.23057,-6.64983c0,-0.06309 1.0991,-0.22612 3.2973,-0.48908c0.03681,0.04206 0.13673,0.53376 0.29976,1.47511c1.31471,-1.47774 2.00362,-2.21661 2.06672,-2.21661z" fill="#000000" stroke="none" stroke-width="0.26459" stroke-linecap="butt"/><path d="M162.55942,185.4826l3.1001,0.48908c-0.38915,1.48826 -0.64421,2.23238 -0.76516,2.23238c-1.63025,-0.11044 -2.44536,-0.21825 -2.44536,-0.32342v-2.2876c0.01577,-0.07361 0.05258,-0.11042 0.11042,-0.11042zM161.69171,189.23743h0.04732c2.39804,0.43649 3.59705,0.69154 3.59705,0.76517c-0.68891,3.90208 -1.10698,6.07661 -1.25423,6.52361h-2.50059c-0.07361,0 -0.11042,-0.03681 -0.11042,-0.11042z" fill="#000000" stroke="none" stroke-width="0.26459" stroke-linecap="butt"/><path d="M172.92463,188.64581l2.6268,1.80642c-0.18406,2.99755 -0.3129,4.74875 -0.38653,5.2536c-0.30501,0.03681 -1.2332,0.09203 -2.78456,0.16566l-0.05521,-0.11042l-0.27609,-4.21234l-0.11042,-0.05521c-1.00444,0.21561 -1.69597,0.37864 -2.07461,0.48907c0.10517,1.79327 0.15776,3.08958 0.15776,3.88893c-1.56714,0.43649 -2.42433,0.65473 -2.57158,0.65473c-1.02022,-4.49107 -1.53033,-6.86282 -1.53033,-7.11524c2.21924,-0.28924 3.42351,-0.43386 3.61284,-0.43386v0.05521c0.03681,0.02629 0.09202,0.57321 0.16565,1.64077c2.03518,-1.35154 3.11061,-2.0273 3.22631,-2.0273z" fill="#000000" stroke="none" stroke-width="0.26459" stroke-linecap="butt"/><path d="M179.43248,188.65371c2.37174,0.447 3.61283,0.70206 3.72327,0.76516v0.09464c-0.5101,1.44092 -0.76516,2.18769 -0.76516,2.24028h-0.04732c-0.13147,0 -0.76779,-0.2051 -1.90896,-0.6153c-0.63633,1.06755 -0.95449,1.63814 -0.95449,1.71177l1.57766,1.53033c1.22006,-1.14643 1.8406,-1.71965 1.86164,-1.71965c0.95185,1.24635 1.42778,1.94578 1.42778,2.09828c-0.52063,0.29976 -1.42778,0.88875 -2.72147,1.76699c-2.50321,-0.54167 -3.85474,-0.84406 -4.05458,-0.90716l-1.23846,-4.00724z" fill="#000000" stroke="none" stroke-width="0.26459" stroke-linecap="butt"/><path d="M189.60837,188.65371c2.38226,1.22531 3.70223,1.94051 3.95992,2.1456c-0.34183,1.5987 -0.5443,2.42171 -0.6074,2.46904h-4.9854v0.08675l1.39623,1.72754l2.19294,-1.12014c0.21561,0.37338 0.52589,1.02548 0.93082,1.95629c-0.18931,0.06309 -1.56977,0.26556 -4.14136,0.60741c-2.12984,-1.40412 -3.20264,-2.1351 -3.21841,-2.19295c0.34182,-2.72935 0.54428,-4.09402 0.6074,-4.09402c2.22449,-0.94659 3.51291,-1.4751 3.86526,-1.58554zM189.09562,190.56266c-0.04206,0.10517 -0.32078,0.52326 -0.83615,1.25424c0,0.22086 0.31028,0.3313 0.93082,0.3313c0,0.03155 0.44963,0.1078 1.3489,0.22877c0.24716,-0.34183 0.37074,-0.54166 0.37074,-0.59951c-0.07887,-0.46804 -0.24978,-0.70205 -0.51273,-0.70205z" fill="#000000" stroke="none" stroke-width="0.26459" stroke-linecap="butt"/><path d="M200.65197,188.64581c1.51455,0.96763 2.35071,1.52507 2.50847,1.67232c-0.54692,1.2148 -0.85982,1.82219 -0.93871,1.82219l-2.87133,-1.66442h-0.10253c0,0.05258 -0.12358,0.34708 -0.37074,0.88349c2.64521,1.42515 3.96781,2.15613 3.96781,2.19294c-0.74151,1.71439 -1.15958,2.61892 -1.25424,2.71358l-4.48844,0.26032c-1.74593,-1.15695 -2.68463,-1.76698 -2.81611,-1.83009v-0.04732c0,-0.13147 0.26031,-0.7231 0.78093,-1.77487l3.5024,1.82219l0.26032,-1.04125c-2.16665,-0.97289 -3.45507,-1.58029 -3.86526,-1.82219v-0.11042c0,-0.19983 0.41808,-1.08595 1.25423,-2.65835z" fill="#000000" stroke="none" stroke-width="0.26459" stroke-linecap="butt"/><path d="M210.30723,188.64581c1.51455,0.96763 2.35072,1.52507 2.50848,1.67232c-0.54693,1.2148 -0.85983,1.82219 -0.93871,1.82219l-2.87134,-1.66442h-0.10253c0,0.05258 -0.12359,0.34708 -0.37076,0.88349c2.64521,1.42515 3.96781,2.15613 3.96781,2.19294c-0.74151,1.71439 -1.15958,2.61892 -1.25424,2.71358l-4.48843,0.26032c-1.74594,-1.15695 -2.68465,-1.76698 -2.81612,-1.83009v-0.04732c0,-0.13147 0.26031,-0.7231 0.78093,-1.77487l3.5024,1.82219l0.26032,-1.04125c-2.16665,-0.97289 -3.45507,-1.58029 -3.86526,-1.82219v-0.11042c0,-0.19983 0.41808,-1.08595 1.25424,-2.65835z" fill="#000000" stroke="none" stroke-width="0.26459" stroke-linecap="butt"/><path d="M218.69248,185.4826l3.1001,0.48908c-0.38915,1.48826 -0.64421,2.23238 -0.76516,2.23238c-1.63025,-0.11044 -2.44536,-0.21825 -2.44536,-0.32342v-2.2876c0.01577,-0.07361 0.05258,-0.11042 0.11042,-0.11042zM217.82477,189.23743h0.04732c2.39804,0.43649 3.59707,0.69154 3.59707,0.76517c-0.68892,3.90208 -1.10699,6.07661 -1.25424,6.52361h-2.50059c-0.07361,0 -0.11042,-0.03681 -0.11042,-0.11042z" fill="#000000" stroke="none" stroke-width="0.26459" stroke-linecap="butt"/><path d="M229.0577,188.64581l2.6268,1.80642c-0.18406,2.99755 -0.3129,4.74875 -0.38653,5.2536c-0.30502,0.03681 -1.2332,0.09203 -2.78456,0.16566l-0.05521,-0.11042l-0.27609,-4.21234l-0.11042,-0.05521c-1.00444,0.21561 -1.69598,0.37864 -2.07462,0.48907c0.10518,1.79327 0.15777,3.08958 0.15777,3.88893c-1.56714,0.43649 -2.42433,0.65473 -2.57158,0.65473c-1.02022,-4.49107 -1.53033,-6.86282 -1.53033,-7.11524c2.21924,-0.28924 3.42351,-0.43386 3.61284,-0.43386v0.05521c0.03681,0.02629 0.09202,0.57321 0.16565,1.64077c2.03518,-1.35154 3.11061,-2.0273 3.22631,-2.0273z" fill="#000000" stroke="none" stroke-width="0.26459" stroke-linecap="butt"/><path d="M238.83129,188.64581c1.51455,0.96763 2.35071,1.52507 2.50847,1.67232c-0.54692,1.2148 -0.85982,1.82219 -0.93871,1.82219l-2.87133,-1.66442h-0.10253c0,0.05258 -0.12358,0.34708 -0.37074,0.88349c2.64521,1.42515 3.96781,2.15613 3.96781,2.19294c-0.74151,1.71439 -1.15958,2.61892 -1.25424,2.71358l-4.48844,0.26032c-1.74594,-1.15695 -2.68465,-1.76698 -2.81611,-1.83009v-0.04732c0,-0.13147 0.26031,-0.7231 0.78093,-1.77487l3.5024,1.82219l0.26032,-1.04125c-2.16665,-0.97289 -3.45507,-1.58029 -3.86526,-1.82219v-0.11042c0,-0.19983 0.41808,-1.08595 1.25423,-2.65835z" fill="#000000" stroke="none" stroke-width="0.26459" stroke-linecap="butt"/><path d="M244.47929,186.26355l3.47085,0.61528l-0.33131,2.63469c0.68891,-0.03681 1.19376,-0.05521 1.51454,-0.05521h0.50486l0.11042,-0.05521l0.05521,0.11042c-0.11043,1.5987 -0.20509,2.49796 -0.28398,2.69779l-0.11042,-0.06309c-0.07887,0 -0.78881,-0.03681 -2.12983,-0.11042c-0.07361,1.23583 -0.12883,2.71357 -0.16566,4.43322l-0.11042,0.05521c-1.69335,-0.11044 -2.70305,-0.2051 -3.0291,-0.28399l0.05521,-0.22087c0,-0.45752 0.07363,-1.87741 0.22088,-4.25967c-1.4199,-0.07887 -2.12984,-0.17353 -2.12984,-0.28398c0.07361,-1.75647 0.16827,-2.6347 0.28398,-2.6347l2.07462,0.39442v-0.67839c0,-0.55218 -0.02103,-1.29894 -0.06309,-2.24027c0.04206,0 0.06309,-0.0184 0.06309,-0.05521z" fill="#000000" stroke="none" stroke-width="0.26459" stroke-linecap="butt"/><path d="M255.1127,188.65371c2.38226,1.22531 3.70223,1.94051 3.95992,2.1456c-0.34183,1.5987 -0.5443,2.42171 -0.6074,2.46904h-4.9854v0.08675l1.39623,1.72754l2.19294,-1.12014c0.21561,0.37338 0.52589,1.02548 0.93082,1.95629c-0.18931,0.06309 -1.56977,0.26556 -4.14136,0.60741c-2.12984,-1.40412 -3.20264,-2.1351 -3.21841,-2.19295c0.34182,-2.72935 0.54428,-4.09402 0.6074,-4.09402c2.22449,-0.94659 3.51291,-1.4751 3.86526,-1.58554zM254.59996,190.56266c-0.04206,0.10517 -0.32078,0.52326 -0.83615,1.25424c0,0.22086 0.31028,0.3313 0.93082,0.3313c0,0.03155 0.44963,0.1078 1.3489,0.22877c0.24716,-0.34183 0.37074,-0.54166 0.37074,-0.59951c-0.07887,-0.46804 -0.24978,-0.70205 -0.51273,-0.70205z" fill="#000000" stroke="none" stroke-width="0.26459" stroke-linecap="butt"/><path d="M260.98947,188.64581c3.12376,0.43123 4.68565,0.6968 4.68565,0.79672c1.23057,1.05703 1.84585,1.62236 1.84585,1.69598c-0.49959,1.56188 -0.78357,2.51111 -0.85193,2.84768c0.49959,1.10962 0.78357,1.77223 0.85193,1.98784c0,0.06309 -0.81512,0.23138 -2.44536,0.50486c-0.02103,-0.0894 -0.17091,-0.28924 -0.44964,-0.59951c-2.25079,0.43123 -3.46296,0.64684 -3.6365,0.64684l-1.19901,-3.2421l2.64257,-1.39622c0.42596,0.06835 1.09121,0.10253 1.99573,0.10253c0,-0.11569 0.01577,-0.4654 0.04732,-1.04913c-0.1525,0 -1.51455,0.09991 -4.08614,0.29975l-0.04732,-0.10253c0.3576,-1.6618 0.57321,-2.4927 0.64683,-2.4927zM262.63025,193.28412c0,0.05783 0.16828,0.67313 0.50484,1.84587h0.04732c0.66262,-0.43123 0.99393,-0.71521 0.99393,-0.85194l0.10253,-0.84404c-0.12621,0 -0.67576,-0.04996 -1.64865,-0.14989z" fill="#000000" stroke="none" stroke-width="0.26459" stroke-linecap="butt"/><path d="M273.05068,186.25567h0.04732c2.377,0.19983 3.56551,0.35497 3.56551,0.46541l1.04915,9.28452c0,0.06835 -1.04914,0.2419 -3.14743,0.52063l-0.04732,-0.10253v-0.84405c-1.80905,0.48908 -3.05014,0.80461 -3.72327,0.94661c-1.5987,-2.26132 -2.43748,-3.46559 -2.51636,-3.61284c1.17798,-2.14036 1.80641,-3.22368 1.8853,-3.24997l3.30519,0.15776c-0.06835,-0.40493 -0.20772,-1.59343 -0.41809,-3.56551zM271.58347,191.91157c0.53114,1.62499 0.86244,2.51637 0.99391,2.67413l1.56978,-1.36468c-0.16303,-0.94133 -0.28398,-1.412 -0.36287,-1.412h-2.09828c-0.06835,0.01051 -0.10253,0.04469 -0.10253,0.10253z" fill="#000000" stroke="none" stroke-width="0.26459" stroke-linecap="butt"/><path d="M285.71926,188.65371c1.99837,0.5364 3.05804,0.86245 3.17899,0.97814c1.0991,1.55662 1.71701,2.45326 1.85374,2.68991c-0.70995,2.25079 -1.11751,3.37619 -1.22268,3.37619c-2.36649,0.55218 -3.60495,0.82828 -3.71538,0.82828c-1.9563,-1.14117 -2.99756,-1.7775 -3.12377,-1.90897c-0.06835,-2.12458 -0.10253,-3.2973 -0.10253,-3.51817c-0.03155,-0.06309 -0.04732,-0.11042 -0.04732,-0.14199c2.0194,-1.53558 3.06329,-2.30338 3.13166,-2.30338zM285.56939,191.5408c-0.03155,0.21035 -0.07887,0.97553 -0.14199,2.2955l1.75909,0.3944c0.42072,-1.31471 0.63107,-2.01677 0.63107,-2.10617c-1.39886,-0.4207 -2.14826,-0.63106 -2.24817,-0.63106z" fill="#000000" stroke="none" stroke-width="0.26459" stroke-linecap="butt"/><path d="M294.75134,186.26355c0.27873,0.03155 1.29369,0.26556 3.04489,0.70205l0.04732,0.09464c-0.25769,1.43567 -0.41282,2.1535 -0.46541,2.1535h-0.04732l-1.27002,-0.65473c0,0.14725 -0.04733,0.8046 -0.14199,1.97207l1.73541,-0.42596c0.05258,0.15777 0.09991,0.85983 0.142,2.10617c-0.16829,0.06309 -0.74676,0.15776 -1.73543,0.28399c0.22087,0.94659 0.45489,2.10354 0.70205,3.47084c-0.80987,0.18406 -1.77749,0.37075 -2.90289,0.56008l-0.04732,-0.09464c-0.14725,-2.43485 -0.27083,-3.65227 -0.37074,-3.65227c-1.02022,0.24716 -1.56714,0.38652 -1.64077,0.41808c-0.06309,-0.30502 -0.17353,-1.13329 -0.3313,-2.48481l0.09464,-0.04732h1.68809c-0.09466,-0.77831 -0.23665,-1.79327 -0.42596,-3.04488z" fill="#000000" stroke="none" stroke-width="0.26459" stroke-linecap="butt"/><path d="M308.94238,188.64581c1.51455,0.96763 2.35072,1.52507 2.50848,1.67232c-0.54693,1.2148 -0.85983,1.82219 -0.93871,1.82219l-2.87134,-1.66442h-0.10253c0,0.05258 -0.12358,0.34708 -0.37074,0.88349c2.64521,1.42515 3.96781,2.15613 3.96781,2.19294c-0.74151,1.71439 -1.15958,2.61892 -1.25424,2.71358l-4.48843,0.26032c-1.74594,-1.15695 -2.68465,-1.76698 -2.81612,-1.83009v-0.04732c0,-0.13147 0.26031,-0.7231 0.78093,-1.77487l3.5024,1.82219l0.26032,-1.04125c-2.16665,-0.97289 -3.45507,-1.58029 -3.86526,-1.82219v-0.11042c0,-0.19983 0.41808,-1.08595 1.25423,-2.65835z" fill="#000000" stroke="none" stroke-width="0.26459" stroke-linecap="butt"/><path d="M314.59039,186.26355l3.47085,0.61528l-0.33131,2.63469c0.68891,-0.03681 1.19376,-0.05521 1.51454,-0.05521h0.50486l0.11042,-0.05521l0.05521,0.11042c-0.11043,1.5987 -0.20509,2.49796 -0.28398,2.69779l-0.11042,-0.06309c-0.07887,0 -0.78881,-0.03681 -2.12984,-0.11042c-0.07361,1.23583 -0.12883,2.71357 -0.16566,4.43322l-0.11042,0.05521c-1.69335,-0.11044 -2.70305,-0.2051 -3.0291,-0.28399l0.05521,-0.22087c0,-0.45752 0.07362,-1.87741 0.22087,-4.25967c-1.4199,-0.07887 -2.12984,-0.17353 -2.12984,-0.28398c0.07361,-1.75647 0.16827,-2.6347 0.28399,-2.6347l2.07461,0.39442v-0.67839c0,-0.55218 -0.02103,-1.29894 -0.06309,-2.24027c0.04206,0 0.06309,-0.0184 0.06309,-0.05521z" fill="#000000" stroke="none" stroke-width="0.26459" stroke-linecap="butt"/><path d="M321.95017,188.64581c3.12376,0.43123 4.68564,0.6968 4.68564,0.79672c1.23058,1.05703 1.84587,1.62236 1.84587,1.69598c-0.49959,1.56188 -0.78357,2.51111 -0.85194,2.84768c0.49959,1.10962 0.78357,1.77223 0.85194,1.98784c0,0.06309 -0.81513,0.23138 -2.44538,0.50486c-0.02103,-0.0894 -0.17091,-0.28924 -0.44962,-0.59951c-2.25079,0.43123 -3.46296,0.64684 -3.6365,0.64684l-1.19902,-3.2421l2.64257,-1.39622c0.42597,0.06835 1.09122,0.10253 1.99574,0.10253c0,-0.11569 0.01577,-0.4654 0.04732,-1.04913c-0.1525,0 -1.51454,0.09991 -4.08612,0.29975l-0.04732,-0.10253c0.3576,-1.6618 0.57322,-2.4927 0.64684,-2.4927zM323.59092,193.28412c0,0.05783 0.16829,0.67313 0.50486,1.84587h0.04732c0.66262,-0.43123 0.99393,-0.71521 0.99393,-0.85194l0.10253,-0.84404c-0.12621,0 -0.67576,-0.04996 -1.64866,-0.14989z" fill="#000000" stroke="none" stroke-width="0.26459" stroke-linecap="butt"/><path d="M334.90274,188.64581c1.04125,0.58373 1.6802,0.96237 1.91685,1.13592c-0.85193,1.77224 -1.30946,2.67414 -1.37256,2.70569h-0.05521l-1.12802,-0.98604l-1.33312,1.62499l0.14987,2.95811c-0.06835,0.06309 -0.93869,0.21034 -2.61103,0.44175c-0.06309,-0.45227 -0.47328,-2.66888 -1.23057,-6.64983c0,-0.06309 1.0991,-0.22612 3.2973,-0.48908c0.03681,0.04206 0.13672,0.53376 0.29975,1.47511c1.31472,-1.47774 2.00363,-2.21661 2.06674,-2.21661z" fill="#000000" stroke="none" stroke-width="0.26459" stroke-linecap="butt"/><path d="M338.53136,185.4826l3.1001,0.48908c-0.38916,1.48826 -0.64421,2.23238 -0.76516,2.23238c-1.63025,-0.11044 -2.44538,-0.21825 -2.44538,-0.32342v-2.2876c0.01577,-0.07361 0.05258,-0.11042 0.11042,-0.11042zM337.66364,189.23743h0.04732c2.39804,0.43649 3.59705,0.69154 3.59705,0.76517c-0.68891,3.90208 -1.10698,6.07661 -1.25423,6.52361h-2.5006c-0.07361,0 -0.11042,-0.03681 -0.11042,-0.11042z" fill="#000000" stroke="none" stroke-width="0.26459" stroke-linecap="butt"/><path d="M348.89655,188.64581l2.6268,1.80642c-0.18406,2.99755 -0.3129,4.74875 -0.38653,5.2536c-0.30502,0.03681 -1.2332,0.09203 -2.78456,0.16566l-0.05521,-0.11042l-0.27609,-4.21234l-0.11042,-0.05521c-1.00444,0.21561 -1.69597,0.37864 -2.07461,0.48907c0.10517,1.79327 0.15776,3.08958 0.15776,3.88893c-1.56714,0.43649 -2.42433,0.65473 -2.57158,0.65473c-1.02022,-4.49107 -1.53033,-6.86282 -1.53033,-7.11524c2.21924,-0.28924 3.42351,-0.43386 3.61284,-0.43386v0.05521c0.03681,0.02629 0.09202,0.57321 0.16565,1.64077c2.03518,-1.35154 3.11061,-2.0273 3.22631,-2.0273z" fill="#000000" stroke="none" stroke-width="0.26459" stroke-linecap="butt"/><path d="M358.18895,188.66947c2.23502,0.05783 3.35252,0.15512 3.35252,0.29186c0.38389,5.82156 0.57584,8.91903 0.57584,9.2924c-1.69335,1.07807 -2.90552,1.80905 -3.6365,2.19295c-2.57684,-0.80987 -3.86526,-1.27264 -3.86526,-1.38834c0.83089,-1.2148 1.31208,-1.83008 1.44355,-1.84585c1.40412,0.69417 2.21136,1.04125 2.4217,1.04125l0.74939,-0.98603c-0.19983,-0.81513 -0.33393,-1.29632 -0.40229,-1.44356c-0.1157,0 -1.54085,0.23139 -4.27546,0.69417c-1.49877,-2.43485 -2.24816,-3.68383 -2.24816,-3.74693c1.29367,-2.06673 2.0825,-3.2789 2.36648,-3.6365h0.05521c0.1525,0 1.28842,0.2498 3.40773,0.74939v-0.17355c0,-0.20509 -0.0184,-0.53376 -0.05521,-0.98603zM355.71203,192.01411c0.07361,0.16303 0.305,1.03074 0.69418,2.60314c0.48906,-0.15776 1.23845,-0.447 2.24816,-0.86771c-0.19457,-0.94659 -0.29186,-1.48562 -0.29186,-1.6171l-0.28399,-0.05521h-0.34708c-0.44174,0 -1.11488,-0.02103 -2.0194,-0.06309z" fill="#000000" stroke="none" stroke-width="0.26459" stroke-linecap="butt"/><path d="M33.58593,208.83983c3.12376,0.43123 4.68564,0.6968 4.68564,0.79672c1.23058,1.05703 1.84586,1.62236 1.84586,1.69598c-0.49959,1.56188 -0.78357,2.51111 -0.85194,2.84768c0.49959,1.10962 0.78357,1.77223 0.85194,1.98784c0,0.06309 -0.81513,0.23138 -2.44537,0.50486c-0.02104,-0.0894 -0.17091,-0.28924 -0.44963,-0.59951c-2.25079,0.43122 -3.46296,0.64683 -3.6365,0.64683l-1.19902,-3.24208l2.64258,-1.39622c0.42597,0.06835 1.09121,0.10253 1.99573,0.10253c0,-0.11569 0.01578,-0.4654 0.04733,-1.04913c-0.15251,0 -1.51455,0.09991 -4.08613,0.29975l-0.04733,-0.10253c0.3576,-1.6618 0.57321,-2.4927 0.64684,-2.4927zM35.22669,213.47813c0,0.05783 0.16828,0.67313 0.50485,1.84587h0.04733c0.66262,-0.43123 0.99392,-0.71521 0.99392,-0.85194l0.10255,-0.84404c-0.12621,0 -0.67576,-0.04996 -1.64865,-0.14989z" fill="#000000" stroke="none" stroke-width="0.26459" stroke-linecap="butt"/><path d="M43.2333,206.45757l3.47085,0.61528l-0.33131,2.63469c0.68891,-0.03681 1.19376,-0.05521 1.51455,-0.05521h0.50485l0.11044,-0.05521l0.05522,0.11042c-0.11043,1.5987 -0.2051,2.49796 -0.28398,2.69779l-0.11044,-0.06309c-0.07889,0 -0.78883,-0.03681 -2.12984,-0.11042c-0.07363,1.23583 -0.12885,2.71357 -0.16565,4.43322l-0.11044,0.05521c-1.69335,-0.11043 -2.70305,-0.20509 -3.0291,-0.28398l0.05522,-0.22087c0,-0.45752 0.07363,-1.87741 0.22087,-4.25967c-1.41989,-0.07887 -2.12984,-0.17353 -2.12984,-0.28399c0.07363,-1.75646 0.16829,-2.63469 0.28398,-2.63469l2.07462,0.39442v-0.67839c0,-0.55218 -0.02103,-1.29894 -0.06311,-2.24027c0.04207,0 0.06311,-0.0184 0.06311,-0.05521z" fill="#000000" stroke="none" stroke-width="0.26459" stroke-linecap="butt"/><path d="M57.66098,208.83983l0.05522,0.10253l-1.06491,5.64802h0.05522l2.71357,-0.79672v-3.19475c0.01051,-0.07361 0.04469,-0.11042 0.10254,-0.11042c2.04044,0.14199 3.17635,0.21298 3.40774,0.21298c0,0.03681 0.01841,0.05521 0.05522,0.05521c0,0.89927 -0.28398,2.76353 -0.85193,5.59279c0,0.16303 -0.81513,0.28661 -2.44537,0.37074c-0.08414,-0.09991 -0.15513,-0.3129 -0.21298,-0.63895c-2.08777,0.42596 -3.2789,0.63895 -3.57339,0.63895c-1.66706,-1.24108 -2.50059,-1.88003 -2.50059,-1.91685c0.28398,-3.72853 0.46278,-5.66379 0.5364,-5.80578h0.04733c1.33049,-0.03681 2.55581,-0.08939 3.67594,-0.15777z" fill="#000000" stroke="none" stroke-width="0.26459" stroke-linecap="butt"/><path d="M70.14814,208.83983c1.51455,0.96763 2.35071,1.52507 2.50848,1.67232c-0.54692,1.2148 -0.85983,1.82219 -0.93871,1.82219l-2.87134,-1.66442h-0.10254c0,0.05258 -0.12358,0.34708 -0.37075,0.88349c2.64521,1.42514 3.96781,2.15612 3.96781,2.19294c-0.7415,1.71439 -1.15958,2.61892 -1.25424,2.71358l-4.48843,0.2603c-1.74594,-1.15694 -2.68465,-1.76697 -2.81612,-1.83008v-0.04732c0,-0.13147 0.26032,-0.7231 0.78094,-1.77487l3.5024,1.82219l0.26032,-1.04125c-2.16665,-0.97289 -3.45507,-1.58029 -3.86526,-1.82219v-0.11042c0,-0.19983 0.41808,-1.08595 1.25424,-2.65835z" fill="#000000" stroke="none" stroke-width="0.26459" stroke-linecap="butt"/><path d="M76.9084,206.74943l0.03156,0.06309c-0.52588,4.64357 -0.82039,7.08369 -0.88349,7.32033c-1.11488,-0.10517 -1.81956,-0.17879 -2.11406,-0.22087v-0.03155l-0.50485,-6.59461c0.12621,-0.04206 1.28316,-0.22086 3.47085,-0.5364zM73.78464,214.29062c0.03681,0.02103 0.85719,0.08414 2.46114,0.18932l0.03155,0.06309c-0.24717,1.45144 -0.40493,2.17716 -0.4733,2.17716h-1.83008c-0.0631,0 -0.14725,-0.72572 -0.25243,-2.17716c-0.02104,0 -0.03156,-0.06311 -0.03156,-0.18932c0.0631,-0.02103 0.09465,-0.04206 0.09465,-0.06309z" fill="#000000" stroke="none" stroke-width="0.26459" stroke-linecap="butt"/></g></g></svg>