<svg version="1.1" xmlns="http://www.w3.org/2000/svg" xmlns:xlink="http://www.w3.org/1999/xlink" width="645.5654" height="259.1838"><defs><linearGradient x1="584.5" y1="191" x2="597.5" y2="191" gradientUnits="userSpaceOnUse" id="color-1"><stop offset="0" stop-color="#cc7700"/><stop offset="1" stop-color="#995900"/></linearGradient><linearGradient x1="462.5" y1="192" x2="475.5" y2="192" gradientUnits="userSpaceOnUse" id="color-2"><stop offset="0" stop-color="#cc7700"/><stop offset="1" stop-color="#995900"/></linearGradient><linearGradient x1="167.5" y1="172.0452" x2="180.5" y2="172.0452" gradientUnits="userSpaceOnUse" id="color-3"><stop offset="0" stop-color="#cc7700"/><stop offset="1" stop-color="#995900"/></linearGradient><linearGradient x1="36.5" y1="127.0274" x2="49.5" y2="127.0274" gradientUnits="userSpaceOnUse" id="color-4"><stop offset="0" stop-color="#cc7700"/><stop offset="1" stop-color="#995900"/></linearGradient><linearGradient x1="-4.1583" y1="113" x2="-4.1583" y2="127" gradientUnits="userSpaceOnUse" id="color-5"><stop offset="0" stop-color="#b2b2b2"/><stop offset="1" stop-color="#666666"/></linearGradient><linearGradient x1="103.4435" y1="112.8614" x2="95.6993" y2="124.5244" gradientUnits="userSpaceOnUse" id="color-6"><stop offset="0" stop-color="#b2b2b2"/><stop offset="1" stop-color="#666666"/></linearGradient><linearGradient x1="184.1881" y1="171" x2="184.1881" y2="185" gradientUnits="userSpaceOnUse" id="color-7"><stop offset="0" stop-color="#b2b2b2"/><stop offset="1" stop-color="#666666"/></linearGradient><linearGradient x1="233.1099" y1="173.6848" x2="240.5693" y2="185.532" gradientUnits="userSpaceOnUse" id="color-8"><stop offset="0" stop-color="#b2b2b2"/><stop offset="1" stop-color="#666666"/></linearGradient><linearGradient x1="443.4071" y1="179" x2="443.4071" y2="193" gradientUnits="userSpaceOnUse" id="color-9"><stop offset="0" stop-color="#b2b2b2"/><stop offset="1" stop-color="#666666"/></linearGradient></defs><g transform="translate(4.1583,-112.8614)"><g data-paper-data="{&quot;isPaintingLayer&quot;:true}" fill="none" fill-rule="nonzero" stroke="none" stroke-width="none" stroke-linecap="butt" stroke-linejoin="miter" stroke-miterlimit="10" stroke-dasharray="" stroke-dashoffset="0" font-family="none" font-weight="none" font-size="none" text-anchor="none" style="mix-blend-mode: normal"><path d="M584.5,191h13v124h-13z" data-paper-data="{&quot;origPos&quot;:null}" id="ID0.512201922480017" fill="url(#color-1)" stroke-width="1"/><path d="M462.5,192h13v168h-13z" data-paper-data="{&quot;origPos&quot;:null}" id="ID0.512201922480017" fill="url(#color-2)" stroke-width="1"/><path d="M167.5,172.0452h13v200h-13z" id="ID0.512201922480017" fill="url(#color-3)" stroke-width="1.34191"/><path d="M36.5,127.0274h13v241h-13z" id="ID0.512201922480017" fill="url(#color-4)" stroke-width="1.54554"/><path d="M-4.1583,113h109.8999v14h-109.8999z" id="ID0.8304188074544072" fill="url(#color-5)" stroke-width="1.16442"/><path d="M103.4435,112.8614l91.5549,60.7924l-7.7443,11.663l-91.5548,-60.7924z" id="ID0.8304188074544072" fill="url(#color-6)" stroke-width="1.16442"/><path d="M184.1881,171h55v14h-55z" id="ID0.8304188074544072" fill="url(#color-7)" stroke-width="0.8452"/><path d="M233.1099,173.6848l46.5428,-29.3048l7.4594,11.8473l-46.5428,29.3047z" id="ID0.8304188074544072" fill="url(#color-8)" stroke-width="0.8452"/><path d="M443.4071,179h198v14h-198z" data-paper-data="{&quot;origPos&quot;:null}" id="ID0.8304188074544072" fill="url(#color-9)" stroke-width="1.81054"/></g></g></svg>