<svg version="1.1" xmlns="http://www.w3.org/2000/svg" xmlns:xlink="http://www.w3.org/1999/xlink" width="296.92192" height="319.08115" viewBox="0,0,296.92192,319.08115"><defs><linearGradient x1="240" y1="180" x2="240" y2="180" gradientUnits="userSpaceOnUse" id="color-1"><stop offset="0" stop-color="#2b5cac"/><stop offset="1" stop-color="#336aca"/></linearGradient><linearGradient x1="240" y1="180" x2="240" y2="180" gradientUnits="userSpaceOnUse" id="color-2"><stop offset="0" stop-color="#3672d9"/><stop offset="1" stop-color="#3d85f3"/></linearGradient><linearGradient x1="240" y1="180" x2="240" y2="180" gradientUnits="userSpaceOnUse" id="color-3"><stop offset="0" stop-color="#2b5cac"/><stop offset="1" stop-color="#336aca"/></linearGradient></defs><g transform="translate(-90.12309,-7.10695)"><g data-paper-data="{&quot;isPaintingLayer&quot;:true}" fill-rule="nonzero" stroke-linejoin="miter" stroke-miterlimit="10" stroke-dasharray="" stroke-dashoffset="0" style="mix-blend-mode: normal"><g><path d="" fill="url(#color-1)" stroke="none" stroke-width="1.00627" stroke-linecap="butt"/><path d="" fill="url(#color-2)" stroke="#000000" stroke-width="0" stroke-linecap="round"/></g><path d="" fill="url(#color-3)" stroke="none" stroke-width="1.00627" stroke-linecap="butt"/><g fill="#2c6eb0" stroke-linecap="butt"><g stroke="#2c6eb0" stroke-width="7.5"><path d=""/><path d=""/><path d=""/><path d=""/><path d=""/><path d=""/><path d=""/><path d=""/><path d=""/><path d=""/></g><g stroke="none"><path d="" stroke-width="0.13229"/><path d="" stroke-width="0.26458"/><path d="" stroke-width="0.26458"/><path d="" stroke-width="0.26458"/><path d="" stroke-width="0.26458"/><path d="" stroke-width="0.26458"/><path d="" stroke-width="0.26458"/><path d="" stroke-width="0.26458"/><path d="" stroke-width="0.26458"/><path d="" stroke-width="0.26458"/></g></g><g fill="#ffffff" stroke-linecap="butt"><g stroke="#224a8c" stroke-width="7.5"><path d=""/><path d=""/><path d=""/><path d=""/><path d=""/><path d=""/><path d=""/><path d=""/><path d=""/><path d=""/></g><g stroke="none" stroke-width="0.26458"><path d=""/><path d=""/><path d=""/><path d=""/><path d=""/><path d=""/><path d=""/><path d=""/><path d=""/><path d=""/></g></g><g fill="#ffffff" stroke="#2c6eb0" stroke-width="7.5" stroke-linecap="butt"><path d="M106.86603,15.91393c6.79535,1.78418 10.26286,2.81591 10.4025,3.09516c0,0.15514 1.64454,3.25806 4.93362,9.30873c-2.90121,9.71209 -4.54575,14.91723 -4.93362,15.61538l-10.54212,2.25736c-5.6628,-3.13395 -8.67263,-4.91813 -9.02948,-5.35252c-0.18618,-2.18755 -0.51199,-8.33907 -0.97741,-18.45454c5.35252,-3.56833 8.73469,-5.72486 10.14649,-6.46954zM108.68124,23.94269l-4.35182,4.51472c0.37234,4.68539 0.55851,7.54782 0.55851,8.58729c0.10858,0 1.04721,0.6516 2.81591,1.95482c2.34269,-0.51199 3.51402,-0.88433 3.51402,-1.11706l2.67625,-9.1458c-0.71365,-2.17202 -1.31872,-3.25805 -1.81521,-3.25805z"/><path d="M137.2357,26.64222c6.85742,-1.56695 10.48006,-2.35045 10.86794,-2.35045c4.66986,6.7178 7.0048,10.22408 7.0048,10.51883l-5.35252,11.35664l-11.51953,-1.83845v0.34911c0.89987,6.90398 1.34974,10.57313 1.34974,11.00753c-0.10858,0 -0.16288,0.05431 -0.16288,0.16288c-1.11706,-0.10858 -1.95481,-0.16288 -2.51338,-0.16288h-2.00138c-1.16358,0 -2.94777,-0.05431 -5.35252,-0.16288c-0.2172,-0.6516 -1.88502,-10.55765 -5.00343,-29.71808c0.52748,-0.2172 4.42163,-1.16358 11.68247,-2.83915c0,0 0.8145,3.21142 1.00067,3.67689zM137.07282,32.48347c0.31028,3.56833 0.58953,5.35252 0.83781,5.35252c3.18046,1.10153 5.12753,1.65229 5.84122,1.65229l1.83845,-8.0055h-0.16289c-1.81521,0.10858 -4.60006,0.44214 -8.35455,1.0007z"/><path d="M174.7033,17.72917l-0.9774,7.77277c2.03241,-0.10858 3.52181,-0.16289 4.4682,-0.16289h1.4894l0.32583,-0.16288l0.16289,0.32583c-0.32583,4.71643 -0.60508,7.36941 -0.83781,7.95894l-0.32583,-0.18617c-0.23269,0 -2.32716,-0.10862 -6.28336,-0.32583c-0.2172,3.64592 -0.38013,8.0055 -0.48871,13.07873l-0.32583,0.16289c-4.99567,-0.32583 -7.97448,-0.60507 -8.93635,-0.83776l0.16289,-0.6516c0,-1.34974 0.2172,-5.53869 0.6516,-12.56677c-4.18895,-0.23269 -6.28337,-0.51199 -6.28337,-0.83781c0.2172,-5.18185 0.4965,-7.77277 0.83781,-7.77277l6.12048,1.16358v-2.00138c0,-1.62901 -0.06206,-3.83209 -0.18618,-6.60918c0.1241,0 0.18618,-0.05431 0.18618,-0.16288z" data-paper-data="{&quot;origPos&quot;:null}"/><path d="M185.8505,13.60997l9.14579,1.44283c-1.14808,4.3906 -1.90052,6.58591 -2.25736,6.58591c-4.80951,-0.32583 -7.21427,-0.64385 -7.21427,-0.95414v-6.74884c0.04653,-0.2172 0.15514,-0.32583 0.32583,-0.32583zM183.29061,24.68742h0.13966c7.07461,1.28768 10.61196,2.04016 10.61196,2.25736c-2.03241,11.51178 -3.2658,17.92705 -3.70019,19.24577h-7.37714c-0.2172,0 -0.32583,-0.10862 -0.32583,-0.32583z"/><path d="M205.14284,22.96525c5.89553,1.58248 9.02169,2.54441 9.37853,2.88571c3.24251,4.5923 5.06547,7.23755 5.46889,7.93571c-2.09447,6.64021 -3.29682,9.96032 -3.60711,9.96032c-6.98152,1.62905 -10.63519,2.44352 -10.96102,2.44352c-5.77143,-3.36667 -8.84331,-5.2439 -9.21564,-5.63178c-0.2017,-6.26787 -0.30254,-9.72763 -0.30254,-10.37922c-0.09309,-0.18618 -0.13964,-0.32583 -0.13964,-0.4189c5.95759,-4.53025 9.03723,-6.79535 9.23889,-6.79535zM204.70065,31.4828c-0.09309,0.62057 -0.23273,2.87797 -0.4189,6.77207l5.18959,1.16358c1.24118,-3.87862 1.86174,-5.9498 1.86174,-6.21357c-4.12689,-1.24118 -6.33768,-1.86174 -6.63247,-1.86174z"/><path d="M242.77333,22.94197l7.74948,5.32924c-0.54302,8.84326 -0.9231,14.00961 -1.14031,15.49901c-0.89986,0.10858 -3.63818,0.27151 -8.21495,0.4887l-0.16289,-0.32583l-0.81453,-12.42714l-0.32581,-0.16288c-2.96326,0.63611 -5.00342,1.11706 -6.12048,1.44283c0.31028,5.29047 0.46542,9.11476 0.46542,11.473c-4.62333,1.28768 -7.1522,1.93154 -7.5866,1.93154c-3.00982,-13.2494 -4.51472,-20.24647 -4.51472,-20.99115c6.54713,-0.8533 10.09997,-1.27995 10.65847,-1.27995v0.16289c0.10857,0.07759 0.27151,1.6911 0.48871,4.84053c6.00411,-3.98723 9.17683,-5.98084 9.51818,-5.98084z"/><path d="M271.60709,22.94197c4.4682,2.85468 6.93501,4.49922 7.40043,4.93362c-1.61351,3.58387 -2.53661,5.3758 -2.76934,5.3758l-8.47092,-4.91034h-0.30253c0,0.15514 -0.36461,1.02397 -1.09378,2.60645c7.80379,4.20444 11.70574,6.36097 11.70574,6.46958c-2.18755,5.05773 -3.42093,7.72624 -3.70024,8.0055l-13.24166,0.76796c-5.15082,-3.41319 -7.92016,-5.21287 -8.30804,-5.39904v-0.13966c0,-0.38787 0.76796,-2.13325 2.30392,-5.23615l10.33267,5.3758l0.76795,-3.07188c-6.392,-2.87018 -10.19305,-4.6621 -11.40319,-5.37579v-0.32583c0,-0.58953 1.23343,-3.20374 3.70024,-7.84262z"/></g><g fill="#ffffff" stroke="#224a8c" stroke-width="7.5" stroke-linecap="butt"><path d="M104.11304,13.16093c6.79535,1.78418 10.26286,2.81591 10.4025,3.09516c0,0.15514 1.64454,3.25806 4.93362,9.30873c-2.90121,9.71209 -4.54575,14.91723 -4.93362,15.61538l-10.54212,2.25736c-5.6628,-3.13395 -8.67263,-4.91813 -9.02948,-5.35252c-0.18618,-2.18755 -0.51199,-8.33907 -0.97741,-18.45454c5.35252,-3.56833 8.73469,-5.72486 10.14649,-6.46954zM105.92825,21.18969l-4.35182,4.51472c0.37234,4.68539 0.55851,7.54782 0.55851,8.58729c0.10858,0 1.04721,0.6516 2.81591,1.95482c2.34269,-0.51199 3.51402,-0.88433 3.51402,-1.11706l2.67625,-9.1458c-0.71365,-2.17202 -1.31872,-3.25805 -1.81521,-3.25805z"/><path d="M134.48271,23.88923c6.85742,-1.56695 10.48006,-2.35045 10.86794,-2.35045c4.66986,6.7178 7.0048,10.22408 7.0048,10.51883l-5.35252,11.35664l-11.51953,-1.83845v0.34911c0.89987,6.90398 1.34974,10.57313 1.34974,11.00753c-0.10858,0 -0.16288,0.05431 -0.16288,0.16288c-1.11706,-0.10858 -1.95481,-0.16288 -2.51338,-0.16288h-2.00138c-1.16358,0 -2.94777,-0.05431 -5.35252,-0.16288c-0.2172,-0.6516 -1.88502,-10.55765 -5.00343,-29.71808c0.52748,-0.2172 4.42163,-1.16358 11.68247,-2.83915c0,0 0.8145,3.21142 1.00067,3.67689zM134.31983,29.73047c0.31028,3.56833 0.58953,5.35252 0.83781,5.35252c3.18046,1.10153 5.12753,1.65229 5.84122,1.65229l1.83845,-8.0055h-0.16289c-1.81521,0.10858 -4.60006,0.44214 -8.35455,1.0007z"/><path d="M171.95032,14.97615l-0.9774,7.77277c2.03241,-0.10858 3.52181,-0.16289 4.4682,-0.16289h1.4894l0.32583,-0.16288l0.16289,0.32583c-0.32583,4.71643 -0.60508,7.36941 -0.83781,7.95894l-0.32583,-0.18617c-0.23269,0 -2.32716,-0.10862 -6.28336,-0.32583c-0.2172,3.64592 -0.38013,8.0055 -0.48871,13.07873l-0.32583,0.16289c-4.99567,-0.32583 -7.97448,-0.60507 -8.93635,-0.83776l0.16289,-0.6516c0,-1.34974 0.2172,-5.53869 0.6516,-12.56677c-4.18895,-0.23269 -6.28337,-0.51199 -6.28337,-0.83781c0.2172,-5.18185 0.4965,-7.77277 0.83781,-7.77277l6.12048,1.16358v-2.00138c0,-1.62901 -0.06206,-3.83209 -0.18618,-6.60918c0.1241,0 0.18618,-0.05431 0.18618,-0.16288z" data-paper-data="{&quot;origPos&quot;:null}"/><path d="M183.09751,10.85702l9.14579,1.44283c-1.14808,4.3906 -1.90052,6.58591 -2.25736,6.58591c-4.80951,-0.32583 -7.21427,-0.64385 -7.21427,-0.95414v-6.74884c0.04653,-0.2172 0.15514,-0.32583 0.32583,-0.32583zM180.53762,21.93443h0.13966c7.07461,1.28768 10.61196,2.04016 10.61196,2.25736c-2.03241,11.51178 -3.2658,17.92705 -3.70019,19.24577h-7.37714c-0.2172,0 -0.32583,-0.10862 -0.32583,-0.32583z"/><path d="M202.38985,20.21229c5.89553,1.58248 9.02169,2.54441 9.37853,2.88571c3.24251,4.5923 5.06547,7.23755 5.46889,7.93571c-2.09447,6.64021 -3.29682,9.96032 -3.60711,9.96032c-6.98152,1.62905 -10.63519,2.44352 -10.96102,2.44352c-5.77143,-3.36667 -8.84331,-5.2439 -9.21564,-5.63178c-0.2017,-6.26787 -0.30254,-9.72763 -0.30254,-10.37922c-0.09309,-0.18618 -0.13964,-0.32583 -0.13964,-0.4189c5.95759,-4.53025 9.03723,-6.79535 9.23889,-6.79535zM201.94766,28.7298c-0.09309,0.62057 -0.23273,2.87797 -0.4189,6.77207l5.18959,1.16358c1.24118,-3.87862 1.86174,-5.9498 1.86174,-6.21357c-4.12689,-1.24118 -6.33768,-1.86174 -6.63247,-1.86174z"/><path d="M240.02035,20.18902l7.74948,5.32924c-0.54302,8.84326 -0.9231,14.00961 -1.14031,15.49901c-0.89986,0.10858 -3.63818,0.27151 -8.21495,0.4887l-0.16289,-0.32583l-0.81453,-12.42714l-0.32581,-0.16288c-2.96326,0.63611 -5.00342,1.11706 -6.12048,1.44283c0.31028,5.29047 0.46542,9.11476 0.46542,11.473c-4.62333,1.28768 -7.1522,1.93154 -7.5866,1.93154c-3.00982,-13.2494 -4.51472,-20.24647 -4.51472,-20.99115c6.54713,-0.8533 10.09997,-1.27995 10.65847,-1.27995v0.16289c0.10857,0.07759 0.27151,1.6911 0.48871,4.84053c6.00411,-3.98723 9.17683,-5.98084 9.51818,-5.98084z"/><path d="M268.85411,20.18902c4.4682,2.85468 6.93501,4.49922 7.40043,4.93362c-1.61351,3.58387 -2.53661,5.3758 -2.76934,5.3758l-8.47092,-4.91034h-0.30253c0,0.15514 -0.36461,1.02397 -1.09378,2.60645c7.80379,4.20444 11.70574,6.36097 11.70574,6.46958c-2.18755,5.05773 -3.42093,7.72624 -3.70024,8.0055l-13.24166,0.76796c-5.15082,-3.41319 -7.92016,-5.21287 -8.30804,-5.39904v-0.13966c0,-0.38787 0.76796,-2.13325 2.30392,-5.23615l10.33267,5.3758l0.76795,-3.07188c-6.392,-2.87018 -10.19305,-4.6621 -11.40319,-5.37579v-0.32583c0,-0.58953 1.23343,-3.20374 3.70024,-7.84262z"/></g><g fill="#ffffff" stroke="none" stroke-width="0.26458" stroke-linecap="butt"><path d="M104.11304,13.16093c6.79535,1.78418 10.26286,2.81591 10.4025,3.09517c0,0.15514 1.64454,3.25805 4.93362,9.30873c-2.90121,9.7121 -4.54575,14.91723 -4.93362,15.61538l-10.54211,2.25736c-5.6628,-3.13395 -8.67263,-4.91813 -9.02948,-5.35252c-0.18617,-2.18755 -0.51199,-8.33907 -0.97741,-18.45453c5.35252,-3.56833 8.73469,-5.72486 10.14649,-6.46954zM105.92825,21.18969l-4.35183,4.51472c0.37234,4.68539 0.55851,7.54782 0.55851,8.58729c0.10858,0 1.04721,0.6516 2.81591,1.95482c2.34269,-0.51199 3.51402,-0.88433 3.51402,-1.11706l2.67626,-9.1458c-0.71365,-2.17202 -1.31872,-3.25805 -1.81522,-3.25805z"/><path d="M133.48202,20.21229c0.48097,1.98585 0.81453,3.21149 1.00069,3.67695c6.85742,-1.56695 10.48006,-2.35045 10.86793,-2.35045c4.66986,6.71781 7.00481,10.22409 7.00481,10.51883l-5.35252,11.35663l-11.51953,-1.83845v0.3491c0.89987,6.90398 1.34974,10.57314 1.34974,11.00753c-0.10858,0 -0.16289,0.05431 -0.16289,0.16289c-1.11706,-0.10858 -1.95482,-0.16289 -2.51338,-0.16289h-2.00138c-1.16358,0 -2.94777,-0.05431 -5.35252,-0.16289c-0.2172,-0.6516 -1.88502,-10.55765 -5.00343,-29.71808c0.52748,-0.2172 4.42163,-1.16358 11.68246,-2.83915zM134.31983,29.73047c0.31028,3.56833 0.58953,5.35252 0.83781,5.35252c3.18045,1.10152 5.12753,1.65228 5.84123,1.65228l1.83845,-8.0055h-0.16289c-1.81522,0.10858 -4.60006,0.44214 -8.35455,1.00069z"/><path d="M161.71075,13.16093l10.23957,1.81522l-0.97741,7.77277c2.03241,-0.10858 3.52181,-0.16289 4.4682,-0.16289h1.4894l0.32583,-0.16289l0.16289,0.32583c-0.32583,4.71643 -0.60507,7.36941 -0.83781,7.95894l-0.32583,-0.18617c-0.23269,0 -2.32716,-0.10862 -6.28337,-0.32583c-0.2172,3.64593 -0.38013,8.0055 -0.4887,13.07872l-0.32583,0.16289c-4.99567,-0.32583 -7.97448,-0.60507 -8.93635,-0.83776l0.16289,-0.6516c0,-1.34974 0.2172,-5.5387 0.6516,-12.56678c-4.18895,-0.23269 -6.28337,-0.51199 -6.28337,-0.83781c0.2172,-5.18184 0.4965,-7.77277 0.83781,-7.77277l6.12048,1.16358v-2.00138c0,-1.62901 -0.06206,-3.83209 -0.18617,-6.60918c0.12411,0 0.18617,-0.05431 0.18617,-0.16289z"/><path d="M183.09751,10.85702l9.1458,1.44284c-1.1481,4.3906 -1.90052,6.58591 -2.25736,6.58591c-4.80951,-0.32583 -7.21427,-0.64384 -7.21427,-0.95413v-6.74884c0.04653,-0.2172 0.15514,-0.32583 0.32583,-0.32583zM180.53762,21.93443h0.13964c7.07461,1.2877 10.61196,2.04016 10.61196,2.25736c-2.03241,11.51177 -3.2658,17.92705 -3.70019,19.24577h-7.37714c-0.2172,0 -0.32583,-0.10862 -0.32583,-0.32583z"/><path d="M202.38985,20.21229c5.89554,1.58248 9.02169,2.5444 9.37853,2.88572c3.24251,4.5923 5.06548,7.23754 5.46889,7.93571c-2.09447,6.64021 -3.29682,9.96033 -3.60711,9.96033c-6.98152,1.62904 -10.63519,2.44352 -10.96102,2.44352c-5.77143,-3.36667 -8.84331,-5.2439 -9.21565,-5.63178c-0.2017,-6.26787 -0.30253,-9.72763 -0.30253,-10.37923c-0.09309,-0.18617 -0.13964,-0.32583 -0.13964,-0.4189c5.95759,-4.53025 9.03722,-6.79535 9.23889,-6.79535zM201.94765,28.7298c-0.09309,0.62057 -0.23274,2.87797 -0.4189,6.77207l5.18959,1.16358c1.24118,-3.87862 1.86174,-5.9498 1.86174,-6.21357c-4.12688,-1.24118 -6.33768,-1.86174 -6.63247,-1.86174z"/><path d="M240.02035,20.18901l7.74948,5.32924c-0.54301,8.84326 -0.9231,14.00961 -1.1403,15.49901c-0.89987,0.10858 -3.63818,0.27151 -8.21495,0.4887l-0.16289,-0.32583l-0.81453,-12.42713l-0.32583,-0.16289c-2.96326,0.63611 -5.00343,1.11706 -6.12048,1.44284c0.31028,5.29046 0.46543,9.11476 0.46543,11.473c-4.62333,1.2877 -7.15221,1.93154 -7.5866,1.93154c-3.00982,-13.2494 -4.51472,-20.24646 -4.51472,-20.99113c6.54714,-0.8533 10.09997,-1.27995 10.65847,-1.27995v0.16289c0.10858,0.0776 0.27151,1.6911 0.4887,4.84053c6.00411,-3.98723 9.17683,-5.98084 9.51819,-5.98084z"/><path d="M268.85411,20.18901c4.4682,2.85468 6.935,4.49923 7.40043,4.93362c-1.61351,3.58387 -2.53661,5.3758 -2.76935,5.3758l-8.47092,-4.91034h-0.30253c0,0.15514 -0.3646,1.02397 -1.09378,2.60645c7.80379,4.20444 11.70574,6.36096 11.70574,6.46957c-2.18755,5.05773 -3.42094,7.72625 -3.70024,8.0055l-13.24166,0.76796c-5.15082,-3.41319 -7.92016,-5.21287 -8.30804,-5.39904v-0.13964c0,-0.38788 0.76796,-2.13324 2.30392,-5.23615l10.33266,5.3758l0.76796,-3.07188c-6.392,-2.87018 -10.19305,-4.66212 -11.4032,-5.3758v-0.32583c0,-0.58953 1.23343,-3.20374 3.70024,-7.84262z"/></g><g data-paper-data="{&quot;origPos&quot;:null}" fill="#ffffff" stroke="#255094" stroke-width="4" stroke-linecap="butt"><path d="M102.58941,199.45664c2.26144,0.15982 3.39217,0.30365 3.39217,0.43152c0.87103,2.34135 1.40242,3.83569 1.59422,4.48296h0.07192c0.20776,-0.44751 1.00287,-1.67811 2.38531,-3.69183h0.07193c2.16556,0.13585 3.24834,0.28367 3.24834,0.44349l1.95381,13.36494c0,0.07991 -1.71007,0.27171 -5.13021,0.57536l-0.07193,-0.14383c-0.19178,-4.05943 -0.28767,-6.54063 -0.28767,-7.44362h-0.07191l-2.96067,2.60108h-0.07192c-0.09589,-0.04794 -0.77113,-1.10676 -2.02572,-3.17641h-0.07193c-1.54225,4.49093 -2.38531,6.87624 -2.52914,7.15593h-0.14384c-2.7569,-1.24659 -4.32313,-1.99375 -4.69871,-2.24148v-0.07193c3.42015,-8.03895 5.20215,-12.13433 5.34598,-12.28615z"/><path d="M122.89453,203.08855l0.0839,0.15582l-1.61817,8.58232h0.0839l4.12336,-1.21063v-4.85451c0.01598,-0.11187 0.06791,-0.16782 0.15582,-0.16782c3.10052,0.21576 4.82657,0.32364 5.17816,0.32364c0,0.05593 0.02797,0.0839 0.08389,0.0839c0,1.36646 -0.43153,4.19928 -1.29455,8.49842c0,0.24773 -1.23861,0.43552 -3.71582,0.56337c-0.12785,-0.15184 -0.23574,-0.47547 -0.32364,-0.9709c-3.17242,0.64727 -4.98239,0.9709 -5.42987,0.9709c-2.53315,-1.88587 -3.79971,-2.85678 -3.79971,-2.91272c0.43152,-5.66561 0.70321,-8.60631 0.81508,-8.82207h0.07193c2.02173,-0.05593 3.88363,-0.13583 5.5857,-0.23972z"/><path d="M141.86915,203.08855c2.30141,1.47035 3.57198,2.3174 3.81171,2.54113c-0.83106,1.84592 -1.30652,2.76889 -1.4264,2.76889l-4.36308,-2.52914h-0.15582c0,0.07991 -0.18778,0.52742 -0.56337,1.3425c4.01946,2.16556 6.02919,3.27631 6.02919,3.33223c-1.12673,2.60506 -1.76201,3.97952 -1.90587,4.12336l-6.82031,0.39555c-2.65301,-1.75802 -4.0794,-2.68497 -4.27918,-2.78086v-0.07193c0,-0.19978 0.39555,-1.09876 1.18667,-2.69696l5.322,2.76889l0.39554,-1.58222c-3.29229,-1.47833 -5.25009,-2.40129 -5.87339,-2.76887v-0.16782c0,-0.30365 0.63529,-1.65013 1.90584,-4.03946z"/><path d="M148.52165,198.28196l4.71069,0.74315c-0.59134,2.26145 -0.97889,3.39217 -1.16269,3.39217c-2.47721,-0.16782 -3.71582,-0.33162 -3.71582,-0.49143v-3.47609c0.02396,-0.11187 0.07991,-0.16782 0.16782,-0.16782zM147.20314,203.98753h0.07193c3.64389,0.66324 5.46586,1.05082 5.46586,1.16269c-1.04683,5.92932 -1.6821,9.2336 -1.90584,9.91282h-3.79972c-0.11187,0 -0.16781,-0.05595 -0.16781,-0.16782z"/><path d="M158.33859,203.10053c3.60395,0.67923 5.48981,1.0668 5.65763,1.16269v0.14383c-0.77511,2.18954 -1.16269,3.32425 -1.16269,3.40416h-0.07192c-0.19978,0 -1.16668,-0.31165 -2.90073,-0.93496c-0.96692,1.62216 -1.45036,2.4892 -1.45036,2.60107l2.3973,2.32537c1.8539,-1.74203 2.79683,-2.61306 2.8288,-2.61306c1.44636,1.89387 2.16955,2.95668 2.16955,3.1884c-0.7911,0.45549 -2.16955,1.35047 -4.13535,2.68497c-3.80373,-0.82306 -5.85738,-1.28256 -6.16106,-1.37845l-1.88188,-6.08913z"/></g><g data-paper-data="{&quot;origPos&quot;:null}" fill="#ffffff" stroke="#255094" stroke-width="4" stroke-linecap="butt"><path d="M163.11687,309.15504c2.23748,0.09589 3.35622,0.19178 3.35622,0.28767v0.04794c0,0.4475 0.20775,5.25806 0.6233,14.43173l-0.09589,0.04795l-4.36307,-0.28767c-0.03197,-0.06392 -0.04794,-0.11186 -0.04794,-0.14383l0.38356,-13.95229c0.02396,-0.28767 0.0719,-0.43152 0.14383,-0.43152z"/><path d="M178.74726,311.99584l3.99149,2.74491c-0.27969,4.55485 -0.47546,7.21587 -0.58733,7.983c-0.46349,0.05593 -1.8739,0.13984 -4.23123,0.25171l-0.08389,-0.16781l-0.41954,-6.40079l-0.16782,-0.0839c-1.52627,0.32763 -2.57709,0.57536 -3.15244,0.74316c0.15982,2.72494 0.23972,4.6947 0.23972,5.90934c-2.38132,0.66325 -3.68386,0.99487 -3.9076,0.99487c-1.55025,-6.8243 -2.32537,-10.42826 -2.32537,-10.81181c3.3722,-0.4395 5.20215,-0.65925 5.48981,-0.65925v0.0839c0.05593,0.03996 0.13984,0.87103 0.25171,2.49319c3.09251,-2.05368 4.72667,-3.08054 4.90249,-3.08054z"/><path d="M188.9118,308.37595c0.42353,0.04795 1.96578,0.40355 4.62679,1.0668l0.07193,0.14383c-0.39156,2.18154 -0.62729,3.27233 -0.7072,3.27233h-0.07193l-1.92982,-0.9949c0,0.22374 -0.07193,1.22262 -0.21577,2.99662l2.63703,-0.64726c0.07991,0.23973 0.15184,1.30652 0.21576,3.20039c-0.25571,0.09589 -1.13471,0.23973 -2.63702,0.43153c0.33561,1.43838 0.69121,3.1964 1.0668,5.27405c-1.2306,0.27969 -2.70096,0.56337 -4.41103,0.85104l-0.07192,-0.14384c-0.22374,-3.69984 -0.41153,-5.54975 -0.56337,-5.54975c-1.55025,0.37558 -2.38132,0.58735 -2.49319,0.6353c-0.09589,-0.46349 -0.26371,-1.72207 -0.50343,-3.77575l0.14383,-0.07193h2.56512c-0.14383,-1.18266 -0.3596,-2.72494 -0.64727,-4.62679z"/><path d="M199.54383,312.00784c3.03659,0.81508 4.64675,1.31054 4.83056,1.48633c1.67013,2.36534 2.60905,3.7278 2.81684,4.0874c-1.07879,3.42014 -1.69808,5.13022 -1.8579,5.13022c-3.59594,0.83907 -5.47782,1.25858 -5.64564,1.25858c-2.97266,-1.73406 -4.55486,-2.70096 -4.74666,-2.90073c-0.10389,-3.22836 -0.15582,-5.01034 -0.15582,-5.34598c-0.04794,-0.09589 -0.07193,-0.16782 -0.07193,-0.21576c3.06855,-2.33337 4.65476,-3.50005 4.75863,-3.50005zM199.31607,316.39493c-0.04795,0.31963 -0.11987,1.48234 -0.21576,3.48806l2.67298,0.59932c0.63928,-1.99774 0.95891,-3.06454 0.95891,-3.20039c-2.12561,-0.63928 -3.26432,-0.95892 -3.41616,-0.95892z"/></g><g data-paper-data="{&quot;origPos&quot;:null}" fill="#ffffff" stroke="#255094" stroke-width="4" stroke-linecap="butt"><path d="M264.85455,307.27486c0.17579,0.19178 1.88989,1.44637 5.14221,3.76376v0.07193c-0.66325,2.73291 -1.09876,4.29516 -1.30652,4.68672l-2.52916,1.46235c2.99662,2.16556 4.50693,3.29229 4.53089,3.38018c-1.06279,0.51144 -2.70095,1.25459 -4.91445,2.22949c-2.56509,-3.50806 -3.84766,-5.30203 -3.84766,-5.38194h-0.14381c-0.05597,2.05368 -0.08397,3.46411 -0.08397,4.23124c-0.03201,0.3596 -0.10793,0.53938 -0.22778,0.53938h-3.60793c-0.16782,0 -0.42354,-2.22948 -0.76713,-6.68845c-0.15984,-0.9749 -0.39158,-3.22836 -0.69523,-6.76038c0.92696,-0.19978 3.74379,-0.71119 8.45048,-1.53427zM261.54628,310.65504v0.07193c0,0.48745 0.028,2.22948 0.08397,5.2261h0.0719c1.94982,-0.45549 2.92472,-0.76315 2.92472,-0.92296l0.68321,-3.06855z"/><path d="M278.78288,310.90675c3.61993,1.86191 5.62564,2.94868 6.0172,3.26033c-0.51941,2.42926 -0.82705,3.67986 -0.92294,3.75176h-7.57546v0.13184l2.1216,2.62503l3.33224,-1.70209c0.32763,0.56736 0.79913,1.55824 1.41442,2.97266c-0.28769,0.09589 -2.38533,0.40356 -6.29293,0.92297c-3.23635,-2.1336 -4.86651,-3.24435 -4.89049,-3.33224c0.51941,-4.14731 0.82707,-6.221 0.92296,-6.221c3.3802,-1.43838 5.338,-2.24147 5.87339,-2.40929zM278.00375,313.80753c-0.06385,0.15981 -0.48738,0.79511 -1.27057,1.90586c0,0.33562 0.47147,0.50343 1.4144,0.50343c0,0.04795 0.68324,0.16382 2.0497,0.3476c0.37558,-0.51941 0.56336,-0.82306 0.56336,-0.91097c-0.11985,-0.71119 -0.37954,-1.0668 -0.77913,-1.0668z"/><path d="M295.56395,310.89475c2.30141,1.47035 3.57197,2.31739 3.8117,2.54113c-0.83107,1.84593 -1.30651,2.76889 -1.42639,2.76889l-4.36308,-2.52914h-0.15587c0,0.07991 -0.18779,0.52742 -0.56337,1.3425c4.01948,2.16556 6.02922,3.27631 6.02922,3.33226c-1.12673,2.60506 -1.76203,3.97952 -1.90587,4.12336l-6.82031,0.39555c-2.65301,-1.75802 -4.07938,-2.68497 -4.27916,-2.78086v-0.07193c0,-0.19978 0.39555,-1.09876 1.18665,-2.69696l5.32202,2.76889l0.39555,-1.58222c-3.29229,-1.47833 -5.25009,-2.40129 -5.8734,-2.76889v-0.16782c0,-0.30365 0.63529,-1.65013 1.90587,-4.03946z"/><path d="M307.35865,310.90675c3.61993,1.86191 5.62567,2.94868 6.01723,3.26033c-0.51941,2.42926 -0.82707,3.67986 -0.92296,3.75176h-7.57547v0.13184l2.12161,2.62503l3.33225,-1.70209c0.32763,0.56736 0.7991,1.55824 1.4144,2.97266c-0.28767,0.09589 -2.38531,0.40356 -6.2929,0.92297c-3.23637,-2.1336 -4.86654,-3.24435 -4.8905,-3.33224c0.51941,-4.14731 0.82708,-6.221 0.92297,-6.221c3.38018,-1.43838 5.33797,-2.24147 5.87337,-2.40929zM306.57955,313.80753c-0.06385,0.15981 -0.48738,0.79511 -1.27057,1.90586c0,0.33562 0.47147,0.50343 1.4144,0.50343c0,0.04795 0.68324,0.16382 2.0497,0.3476c0.37558,-0.51941 0.56336,-0.82306 0.56336,-0.91097c-0.11985,-0.71119 -0.37954,-1.0668 -0.77913,-1.0668z"/><path d="M318.05063,307.27486l5.27408,0.93496l-0.50346,4.00348c1.04683,-0.05593 1.81396,-0.08389 2.30142,-0.08389h0.76713l0.16793,-0.08389l0.08396,0.16781c-0.16782,2.42926 -0.31165,3.79572 -0.4315,4.09937l-0.16793,-0.09589c-0.11985,0 -1.19862,-0.05595 -3.23635,-0.16782c-0.11196,1.87789 -0.19586,4.12336 -0.25171,6.73642l-0.16793,0.08389c-2.5731,-0.16782 -4.10737,-0.31165 -4.60282,-0.43152l0.08397,-0.33561c0,-0.69521 0.11187,-2.85279 0.33561,-6.47271c-2.15756,-0.11985 -3.23634,-0.2637 -3.23634,-0.43152c0.1118,-2.66899 0.25564,-4.00348 0.4315,-4.00348l3.15245,0.59932v-1.03084c0,-0.83907 -0.03194,-1.97378 -0.09579,-3.40416c0.06385,0 0.09579,-0.02797 0.09579,-0.08389z"/></g><g fill="#ffffff" stroke="#255094" stroke-width="4" stroke-linecap="butt"><path d="M198.88952,200.56912c8.12852,0.95967 12.19277,1.49692 12.19277,1.61176l-1.18113,4.31854c-3.8387,-1.0171 -5.90158,-1.58306 -6.18866,-1.69788c0,0.07381 -0.42243,1.00477 -1.26727,2.79289h0.08613c1.7143,-0.10666 3.57623,-0.27481 5.5858,-0.50446l0.08612,0.17238c-0.3363,1.90294 -0.59058,3.19892 -0.76282,3.88791l-4.73685,-0.67669c0.04921,0.93507 0.07382,1.64046 0.07382,2.1162v0.43063l0.08613,0.17238c1.0499,-0.11491 3.17019,-0.28717 6.36091,-0.51675c0.10663,0.50854 0.30349,1.7799 0.59058,3.81408c-0.05741,0 -0.08612,0.02873 -0.08612,0.08619c-7.43952,-0.3937 -11.22081,-0.64797 -11.34385,-0.76281l-1.78401,-5.08166c1.35339,-6.30759 2.11621,-9.69516 2.28846,-10.1627z"/><path d="M217.27096,200.56912c0.43473,0.0492 2.01777,0.41421 4.74916,1.09502l0.07383,0.14761c-0.40192,2.23923 -0.64389,3.35885 -0.72591,3.35885h-0.07383l-1.98086,-1.02118c0,0.22967 -0.07382,1.25498 -0.22147,3.07589l2.70677,-0.66439c0.08203,0.24608 0.15585,1.34108 0.22147,3.28502c-0.26248,0.09841 -1.16473,0.24605 -2.70677,0.44294c0.3445,1.47642 0.7095,3.28093 1.09502,5.41353c-1.26317,0.28709 -2.7724,0.57827 -4.5277,0.87355l-0.07383,-0.14761c-0.22967,-3.79769 -0.42242,-5.69652 -0.57826,-5.69652c-1.59125,0.38551 -2.44431,0.60288 -2.55914,0.6521c-0.09843,-0.47575 -0.27067,-1.76763 -0.51675,-3.87562l0.14764,-0.07381h2.63296c-0.14765,-1.21395 -0.36911,-2.797 -0.66439,-4.74917z"/><path d="M228.34412,200.56912c0.43473,0.0492 2.01777,0.41421 4.74916,1.09502l0.07383,0.14761c-0.40192,2.23923 -0.64389,3.35885 -0.72591,3.35885h-0.07383l-1.98086,-1.02118c0,0.22967 -0.07382,1.25498 -0.22147,3.07589l2.70677,-0.66439c0.08203,0.24608 0.15585,1.34108 0.22147,3.28502c-0.26248,0.09841 -1.16473,0.24605 -2.70677,0.44294c0.3445,1.47642 0.70949,3.28093 1.095,5.41353c-1.26317,0.28709 -2.77238,0.57827 -4.52769,0.87355l-0.07383,-0.14761c-0.22966,-3.79769 -0.42243,-5.69652 -0.57827,-5.69652c-1.59125,0.38551 -2.4443,0.60288 -2.55913,0.6521c-0.09843,-0.47575 -0.27067,-1.76763 -0.51675,-3.87562l0.14764,-0.07381h2.63295c-0.14765,-1.21395 -0.36911,-2.797 -0.66439,-4.74917z"/><path d="M241.27511,204.29709c3.71567,1.91115 5.77445,3.02667 6.17637,3.34657c-0.53315,2.49351 -0.84894,3.77718 -0.94737,3.85098h-7.77582v0.13523l2.17772,2.69447l3.42038,-1.74709c0.3363,0.58236 0.82024,1.59945 1.45181,3.05127c-0.29529,0.09841 -2.4484,0.41419 -6.45935,0.94735c-3.32195,-2.19002 -4.99522,-3.33014 -5.01983,-3.42038c0.53315,-4.25701 0.84894,-6.3855 0.94737,-6.3855c3.46959,-1.47643 5.47916,-2.30078 6.02872,-2.47302zM240.47538,207.27453c-0.06562,0.16404 -0.50033,0.81613 -1.30416,1.95625c0,0.3445 0.48394,0.51675 1.45181,0.51675c0,0.0492 0.70129,0.16814 2.10389,0.3568c0.38551,-0.53314 0.57827,-0.84483 0.57827,-0.93507c-0.12304,-0.73001 -0.38962,-1.09502 -0.79973,-1.09502z"/><path d="M253.40639,204.29709c3.69926,0.69721 5.63501,1.09502 5.80726,1.19344v0.14761c-0.79563,2.24745 -1.19344,3.41217 -1.19344,3.49421h-0.07383c-0.20505,0 -1.19754,-0.31988 -2.97745,-0.95966c-0.99248,1.66506 -1.48873,2.55501 -1.48873,2.66985l2.4607,2.38688c1.90294,-1.7881 2.87082,-2.68216 2.90363,-2.68216c1.48462,1.94394 2.22693,3.03485 2.22693,3.27274c-0.81204,0.46752 -2.22693,1.38619 -4.24471,2.75597c-3.90431,-0.84483 -6.01231,-1.31646 -6.32401,-1.41489l-1.93166,-6.2502z"/><path d="M271.39413,201.5288l-0.51676,4.10936c1.0745,-0.05746 1.86193,-0.08619 2.36228,-0.08619h0.78743l0.17226,-0.08619l0.08612,0.17214c-0.17224,2.49351 -0.3199,3.89611 -0.44293,4.20781l-0.17226,-0.09833c-0.12303,0 -1.23034,-0.05746 -3.32195,-0.17238c-0.11484,1.92756 -0.20096,4.23242 -0.25837,6.91458l-0.17226,0.08619c-2.64115,-0.17224 -4.21601,-0.31988 -4.72455,-0.44292l0.08612,-0.34449c0,-0.71361 0.11483,-2.92825 0.3445,-6.6439c-2.21464,-0.12301 -3.32195,-0.27066 -3.32195,-0.44294c0.11484,-2.73957 0.26248,-4.10936 0.44293,-4.10936l3.23582,0.61517v-1.05811c0,-0.86125 -0.03281,-2.02598 -0.09843,-3.49418c0.06562,0 0.09843,-0.02873 0.09843,-0.08619z"/><path d="M285.51854,204.2848c2.36228,1.50923 3.66644,2.37867 3.91252,2.60833c-0.85305,1.89474 -1.34108,2.84211 -1.46411,2.84211l-4.47848,-2.59604h-0.15995c0,0.08206 -0.19276,0.5414 -0.57827,1.37801c4.12577,2.22284 6.18866,3.36296 6.18866,3.42038c-1.15653,2.67397 -1.80861,4.08477 -1.95625,4.2324l-7.0007,0.40601c-2.72318,-1.80451 -4.18731,-2.75597 -4.39236,-2.85439v-0.07381c0,-0.20505 0.40601,-1.12782 1.21805,-2.7683l5.46276,2.84213l0.40602,-1.62407c-3.37937,-1.51743 -5.38895,-2.4648 -6.02873,-2.84211v-0.17238c0,-0.31169 0.65209,-1.69378 1.95626,-4.14628z"/></g><g data-paper-data="{&quot;origPos&quot;:null}" fill="#ffffff" stroke="#255094" stroke-width="4" stroke-linecap="butt"><path d="M329.03306,200.90043c2.26144,0.15982 3.39217,0.30365 3.39217,0.43152c0.87103,2.34135 1.40241,3.83568 1.59421,4.48295h0.07193c0.20776,-0.44751 1.00287,-1.67811 2.38531,-3.69183h0.07193c2.16556,0.13585 3.24833,0.28368 3.24833,0.44349l1.95381,13.36494c0,0.07991 -1.71008,0.2717 -5.13022,0.57536l-0.07193,-0.14383c-0.19178,-4.05943 -0.28767,-6.54064 -0.28767,-7.44363h-0.07193l-2.96067,2.60108h-0.07193c-0.09589,-0.04794 -0.77113,-1.10676 -2.02572,-3.17643h-0.07192c-1.54226,4.49093 -2.38531,6.87627 -2.52915,7.15593h-0.14383c-2.7569,-1.24659 -4.32313,-1.99375 -4.69871,-2.24148v-0.07192c3.42014,-8.03895 5.20214,-12.13433 5.34598,-12.28615z"/><path d="M347.696,204.54432c3.03659,0.81508 4.64675,1.31054 4.83056,1.48633c1.67013,2.36534 2.60905,3.7278 2.81683,4.0874c-1.07879,3.42014 -1.69808,5.13021 -1.85789,5.13021c-3.59594,0.83904 -5.47782,1.25858 -5.64564,1.25858c-2.97266,-1.73406 -4.55485,-2.70095 -4.74665,-2.90073c-0.10389,-3.22836 -0.15583,-5.01034 -0.15583,-5.34597c-0.04795,-0.09589 -0.07193,-0.16782 -0.07193,-0.21577c3.06855,-2.33337 4.65476,-3.50005 4.75862,-3.50005zM347.46825,208.93139c-0.04795,0.31963 -0.11987,1.48234 -0.21576,3.48806l2.673,0.59932c0.63928,-1.99774 0.95891,-3.06454 0.95891,-3.20039c-2.12561,-0.63929 -3.26432,-0.95892 -3.41616,-0.95892z"/><path d="M363.68599,200.90043h0.07191c3.61192,0.30365 5.41791,0.53938 5.41791,0.7072l1.59421,14.10811c0,0.10389 -1.59421,0.36757 -4.78261,0.7911l-0.07193,-0.15583v-1.28256c-2.7489,0.74316 -4.63476,1.22262 -5.65763,1.43838c-2.42926,-3.43613 -3.70382,-5.26608 -3.82369,-5.48981c1.78998,-3.25233 2.74491,-4.89847 2.86478,-4.93843l5.02233,0.23972c-0.10389,-0.6153 -0.31564,-2.42126 -0.6353,-5.41788zM361.45651,209.49478c0.80708,2.4692 1.31053,3.82369 1.51029,4.06341l2.38531,-2.07366c-0.24773,-1.43039 -0.43153,-2.14559 -0.55138,-2.14559h-3.1884c-0.10389,0.01598 -0.15583,0.06792 -0.15583,0.15583z"/><path d="M378.81296,204.54432c3.61993,1.86191 5.62566,2.94868 6.01722,3.26033c-0.51941,2.42926 -0.82707,3.67987 -0.92296,3.75177h-7.57546v0.13184l2.1216,2.62504l3.33223,-1.7021c0.32763,0.56735 0.7991,1.55823 1.4144,2.97266c-0.28767,0.09589 -2.38531,0.40356 -6.2929,0.92297c-3.23635,-2.1336 -4.86651,-3.24435 -4.89049,-3.33223c0.51941,-4.14731 0.82707,-6.22099 0.92296,-6.22099c3.3802,-1.43839 5.33798,-2.24148 5.8734,-2.4093zM378.03383,207.44508c-0.06392,0.15982 -0.48745,0.79512 -1.27057,1.90587c0,0.33561 0.47147,0.50343 1.4144,0.50343c0,0.04794 0.68324,0.16383 2.0497,0.3476c0.37558,-0.51941 0.56337,-0.82307 0.56337,-0.91098c-0.11985,-0.71119 -0.37957,-1.06679 -0.77913,-1.06679z"/></g><g data-paper-data="{&quot;origPos&quot;:null}" fill="#ffffff" stroke="#000000" stroke-width="0" stroke-linecap="butt"><path d="M102.58941,199.45666c2.26144,0.15982 3.39217,0.30365 3.39217,0.43152c0.87103,2.34135 1.40242,3.83569 1.59422,4.48296h0.07192c0.20776,-0.44751 1.00287,-1.67811 2.38531,-3.69183h0.07193c2.16556,0.13585 3.24834,0.28367 3.24834,0.44349l1.95381,13.36494c0,0.07991 -1.71007,0.27171 -5.13021,0.57536l-0.07193,-0.14383c-0.19178,-4.05943 -0.28767,-6.54063 -0.28767,-7.44362h-0.07191l-2.96067,2.60108h-0.07192c-0.09589,-0.04794 -0.77113,-1.10676 -2.02572,-3.17641h-0.07193c-1.54225,4.49093 -2.38531,6.87624 -2.52914,7.15593h-0.14384c-2.7569,-1.24659 -4.32313,-1.99375 -4.69871,-2.24148v-0.07193c3.42015,-8.03895 5.20215,-12.13433 5.34598,-12.28615z"/><path d="M122.89453,203.08859l0.0839,0.15582l-1.61817,8.58232h0.0839l4.12336,-1.21063v-4.85451c0.01598,-0.11187 0.06791,-0.16782 0.15582,-0.16782c3.10052,0.21576 4.82657,0.32364 5.17816,0.32364c0,0.05593 0.02797,0.0839 0.08389,0.0839c0,1.36646 -0.43153,4.19928 -1.29455,8.49842c0,0.24773 -1.23861,0.43552 -3.71582,0.56337c-0.12785,-0.15184 -0.23574,-0.47547 -0.32364,-0.9709c-3.17242,0.64727 -4.98239,0.9709 -5.42987,0.9709c-2.53315,-1.88587 -3.79971,-2.85678 -3.79971,-2.91272c0.43152,-5.66561 0.70321,-8.60631 0.81508,-8.82207h0.07193c2.02173,-0.05593 3.88363,-0.13583 5.5857,-0.23972z"/><path d="M141.86915,203.08859c2.30141,1.47035 3.57198,2.3174 3.81171,2.54113c-0.83106,1.84592 -1.30652,2.76889 -1.4264,2.76889l-4.36308,-2.52914h-0.15582c0,0.07991 -0.18778,0.52742 -0.56337,1.3425c4.01946,2.16556 6.02919,3.27631 6.02919,3.33223c-1.12673,2.60506 -1.76201,3.97952 -1.90587,4.12336l-6.82031,0.39555c-2.65301,-1.75802 -4.0794,-2.68497 -4.27918,-2.78086v-0.07193c0,-0.19978 0.39555,-1.09876 1.18667,-2.69696l5.322,2.76889l0.39554,-1.58222c-3.29229,-1.47833 -5.25009,-2.40129 -5.87339,-2.76887v-0.16782c0,-0.30365 0.63529,-1.65013 1.90584,-4.03946z"/><path d="M148.52165,198.282l4.71069,0.74315c-0.59134,2.26145 -0.97889,3.39217 -1.16269,3.39217c-2.47721,-0.16782 -3.71582,-0.33162 -3.71582,-0.49143v-3.47609c0.02396,-0.11187 0.07991,-0.16782 0.16782,-0.16782zM147.20314,203.98755h0.07193c3.64389,0.66324 5.46586,1.05082 5.46586,1.16269c-1.04683,5.92932 -1.6821,9.2336 -1.90584,9.91282h-3.79972c-0.11187,0 -0.16781,-0.05595 -0.16781,-0.16782z"/><path d="M158.33859,203.10055c3.60395,0.67923 5.48981,1.0668 5.65763,1.16269v0.14383c-0.77511,2.18954 -1.16269,3.32425 -1.16269,3.40416h-0.07192c-0.19978,0 -1.16668,-0.31165 -2.90073,-0.93496c-0.96692,1.62216 -1.45036,2.4892 -1.45036,2.60107l2.3973,2.32537c1.8539,-1.74203 2.79683,-2.61306 2.8288,-2.61306c1.44636,1.89387 2.16955,2.95668 2.16955,3.1884c-0.7911,0.45549 -2.16955,1.35047 -4.13535,2.68497c-3.80373,-0.82306 -5.85738,-1.28256 -6.16106,-1.37845l-1.88188,-6.08913z"/></g><g data-paper-data="{&quot;origPos&quot;:null}" fill="#ffffff" stroke="#000000" stroke-width="0" stroke-linecap="butt"><path d="M163.11687,309.15504c2.23748,0.09589 3.35622,0.19178 3.35622,0.28767v0.04794c0,0.4475 0.20775,5.25806 0.6233,14.43173l-0.09589,0.04795l-4.36307,-0.28767c-0.03197,-0.06392 -0.04794,-0.11186 -0.04794,-0.14383l0.38356,-13.95229c0.02396,-0.28767 0.0719,-0.43152 0.14383,-0.43152z"/><path d="M178.74726,311.99584l3.99149,2.74491c-0.27969,4.55485 -0.47546,7.21587 -0.58733,7.983c-0.46349,0.05593 -1.8739,0.13984 -4.23123,0.25171l-0.08389,-0.16781l-0.41954,-6.40079l-0.16782,-0.0839c-1.52627,0.32763 -2.57709,0.57536 -3.15244,0.74316c0.15982,2.72494 0.23972,4.6947 0.23972,5.90934c-2.38132,0.66325 -3.68386,0.99487 -3.9076,0.99487c-1.55025,-6.8243 -2.32537,-10.42826 -2.32537,-10.81181c3.3722,-0.4395 5.20215,-0.65925 5.48981,-0.65925v0.0839c0.05593,0.03996 0.13984,0.87103 0.25171,2.49319c3.09251,-2.05368 4.72667,-3.08054 4.90249,-3.08054z"/><path d="M188.9118,308.37595c0.42353,0.04795 1.96578,0.40355 4.62679,1.0668l0.07193,0.14383c-0.39156,2.18154 -0.62729,3.27233 -0.7072,3.27233h-0.07193l-1.92982,-0.9949c0,0.22374 -0.07193,1.22262 -0.21577,2.99662l2.63703,-0.64726c0.07991,0.23973 0.15184,1.30652 0.21576,3.20039c-0.25571,0.09589 -1.13471,0.23973 -2.63702,0.43153c0.33561,1.43838 0.69121,3.1964 1.0668,5.27405c-1.2306,0.27969 -2.70096,0.56337 -4.41103,0.85104l-0.07192,-0.14384c-0.22374,-3.69984 -0.41153,-5.54975 -0.56337,-5.54975c-1.55025,0.37558 -2.38132,0.58735 -2.49319,0.6353c-0.09589,-0.46349 -0.26371,-1.72207 -0.50343,-3.77575l0.14383,-0.07193h2.56512c-0.14383,-1.18266 -0.3596,-2.72494 -0.64727,-4.62679z"/><path d="M199.54383,312.00784c3.03659,0.81508 4.64675,1.31054 4.83056,1.48633c1.67013,2.36534 2.60905,3.7278 2.81684,4.0874c-1.07879,3.42014 -1.69808,5.13022 -1.8579,5.13022c-3.59594,0.83907 -5.47782,1.25858 -5.64564,1.25858c-2.97266,-1.73406 -4.55486,-2.70096 -4.74666,-2.90073c-0.10389,-3.22836 -0.15582,-5.01034 -0.15582,-5.34598c-0.04794,-0.09589 -0.07193,-0.16782 -0.07193,-0.21576c3.06855,-2.33337 4.65476,-3.50005 4.75863,-3.50005zM199.31607,316.39493c-0.04795,0.31963 -0.11987,1.48234 -0.21576,3.48806l2.67298,0.59932c0.63928,-1.99774 0.95891,-3.06454 0.95891,-3.20039c-2.12561,-0.63928 -3.26432,-0.95892 -3.41616,-0.95892z"/></g><g data-paper-data="{&quot;origPos&quot;:null}" fill="#ffffff" stroke="#000000" stroke-width="0" stroke-linecap="butt"><path d="M264.85455,307.27486c0.17579,0.19178 1.88989,1.44637 5.14221,3.76376v0.07193c-0.66325,2.73291 -1.09876,4.29516 -1.30652,4.68672l-2.52916,1.46235c2.99662,2.16556 4.50693,3.29229 4.53089,3.38018c-1.06279,0.51144 -2.70095,1.25459 -4.91445,2.22949c-2.56509,-3.50806 -3.84766,-5.30203 -3.84766,-5.38194h-0.14381c-0.05597,2.05368 -0.08397,3.46411 -0.08397,4.23124c-0.03201,0.3596 -0.10793,0.53938 -0.22778,0.53938h-3.60793c-0.16782,0 -0.42354,-2.22948 -0.76713,-6.68845c-0.15984,-0.9749 -0.39158,-3.22836 -0.69523,-6.76038c0.92696,-0.19978 3.74379,-0.71119 8.45048,-1.53427zM261.54628,310.65504v0.07193c0,0.48745 0.028,2.22948 0.08397,5.2261h0.0719c1.94982,-0.45549 2.92472,-0.76315 2.92472,-0.92296l0.68321,-3.06855z"/><path d="M278.78288,310.90675c3.61993,1.86191 5.62564,2.94868 6.0172,3.26033c-0.51941,2.42926 -0.82705,3.67986 -0.92294,3.75176h-7.57546v0.13184l2.1216,2.62503l3.33224,-1.70209c0.32763,0.56736 0.79913,1.55824 1.41442,2.97266c-0.28769,0.09589 -2.38533,0.40356 -6.29293,0.92297c-3.23635,-2.1336 -4.86651,-3.24435 -4.89049,-3.33224c0.51941,-4.14731 0.82707,-6.221 0.92296,-6.221c3.3802,-1.43838 5.338,-2.24147 5.87339,-2.40929zM278.00375,313.80753c-0.06385,0.15981 -0.48738,0.79511 -1.27057,1.90586c0,0.33562 0.47147,0.50343 1.4144,0.50343c0,0.04795 0.68324,0.16382 2.0497,0.3476c0.37558,-0.51941 0.56336,-0.82306 0.56336,-0.91097c-0.11985,-0.71119 -0.37954,-1.0668 -0.77913,-1.0668z"/><path d="M295.56395,310.89475c2.30141,1.47035 3.57197,2.31739 3.8117,2.54113c-0.83107,1.84593 -1.30651,2.76889 -1.42639,2.76889l-4.36308,-2.52914h-0.15587c0,0.07991 -0.18779,0.52742 -0.56337,1.3425c4.01948,2.16556 6.02922,3.27631 6.02922,3.33226c-1.12673,2.60506 -1.76203,3.97952 -1.90587,4.12336l-6.82031,0.39555c-2.65301,-1.75802 -4.07938,-2.68497 -4.27916,-2.78086v-0.07193c0,-0.19978 0.39555,-1.09876 1.18665,-2.69696l5.32202,2.76889l0.39555,-1.58222c-3.29229,-1.47833 -5.25009,-2.40129 -5.8734,-2.76889v-0.16782c0,-0.30365 0.63529,-1.65013 1.90587,-4.03946z"/><path d="M307.35865,310.90675c3.61993,1.86191 5.62567,2.94868 6.01723,3.26033c-0.51941,2.42926 -0.82707,3.67986 -0.92296,3.75176h-7.57547v0.13184l2.12161,2.62503l3.33225,-1.70209c0.32763,0.56736 0.7991,1.55824 1.4144,2.97266c-0.28767,0.09589 -2.38531,0.40356 -6.2929,0.92297c-3.23637,-2.1336 -4.86654,-3.24435 -4.8905,-3.33224c0.51941,-4.14731 0.82708,-6.221 0.92297,-6.221c3.38018,-1.43838 5.33797,-2.24147 5.87337,-2.40929zM306.57955,313.80753c-0.06385,0.15981 -0.48738,0.79511 -1.27057,1.90586c0,0.33562 0.47147,0.50343 1.4144,0.50343c0,0.04795 0.68324,0.16382 2.0497,0.3476c0.37558,-0.51941 0.56336,-0.82306 0.56336,-0.91097c-0.11985,-0.71119 -0.37954,-1.0668 -0.77913,-1.0668z"/><path d="M318.05063,307.27486l5.27408,0.93496l-0.50346,4.00348c1.04683,-0.05593 1.81396,-0.08389 2.30142,-0.08389h0.76713l0.16793,-0.08389l0.08396,0.16781c-0.16782,2.42926 -0.31165,3.79572 -0.4315,4.09937l-0.16793,-0.09589c-0.11985,0 -1.19862,-0.05595 -3.23635,-0.16782c-0.11196,1.87789 -0.19586,4.12336 -0.25171,6.73642l-0.16793,0.08389c-2.5731,-0.16782 -4.10737,-0.31165 -4.60282,-0.43152l0.08397,-0.33561c0,-0.69521 0.11187,-2.85279 0.33561,-6.47271c-2.15756,-0.11985 -3.23634,-0.2637 -3.23634,-0.43152c0.1118,-2.66899 0.25564,-4.00348 0.4315,-4.00348l3.15245,0.59932v-1.03084c0,-0.83907 -0.03194,-1.97378 -0.09579,-3.40416c0.06385,0 0.09579,-0.02797 0.09579,-0.08389z"/></g><g fill="#ffffff" stroke="none" stroke-width="0.26459" stroke-linecap="butt"><path d="M198.88952,200.56916c8.12852,0.95967 12.19277,1.49692 12.19277,1.61176l-1.18113,4.31854c-3.8387,-1.0171 -5.90158,-1.58306 -6.18866,-1.69788c0,0.07381 -0.42243,1.00477 -1.26727,2.79289h0.08613c1.7143,-0.10666 3.57623,-0.27481 5.5858,-0.50446l0.08612,0.17238c-0.3363,1.90294 -0.59058,3.19892 -0.76282,3.88791l-4.73685,-0.67669c0.04921,0.93507 0.07382,1.64046 0.07382,2.1162v0.43063l0.08613,0.17238c1.0499,-0.11491 3.17019,-0.28717 6.36091,-0.51675c0.10663,0.50854 0.30349,1.7799 0.59058,3.81408c-0.05741,0 -0.08612,0.02873 -0.08612,0.08619c-7.43952,-0.3937 -11.22081,-0.64797 -11.34385,-0.76281l-1.78401,-5.08166c1.35339,-6.30759 2.11621,-9.69516 2.28846,-10.1627z"/><path d="M217.27096,200.56916c0.43473,0.0492 2.01777,0.41421 4.74916,1.09502l0.07383,0.14761c-0.40192,2.23923 -0.64389,3.35885 -0.72591,3.35885h-0.07383l-1.98086,-1.02118c0,0.22967 -0.07382,1.25498 -0.22147,3.07589l2.70677,-0.66439c0.08203,0.24608 0.15585,1.34108 0.22147,3.28502c-0.26248,0.09841 -1.16473,0.24605 -2.70677,0.44294c0.3445,1.47642 0.7095,3.28093 1.09502,5.41353c-1.26317,0.28709 -2.7724,0.57827 -4.5277,0.87355l-0.07383,-0.14761c-0.22967,-3.79769 -0.42242,-5.69652 -0.57826,-5.69652c-1.59125,0.38551 -2.44431,0.60288 -2.55914,0.6521c-0.09843,-0.47575 -0.27067,-1.76763 -0.51675,-3.87562l0.14764,-0.07381h2.63296c-0.14765,-1.21395 -0.36911,-2.797 -0.66439,-4.74917z"/><path d="M228.34412,200.56916c0.43473,0.0492 2.01777,0.41421 4.74916,1.09502l0.07383,0.14761c-0.40192,2.23923 -0.64389,3.35885 -0.72591,3.35885h-0.07383l-1.98086,-1.02118c0,0.22967 -0.07382,1.25498 -0.22147,3.07589l2.70677,-0.66439c0.08203,0.24608 0.15585,1.34108 0.22147,3.28502c-0.26248,0.09841 -1.16473,0.24605 -2.70677,0.44294c0.3445,1.47642 0.70949,3.28093 1.095,5.41353c-1.26317,0.28709 -2.77238,0.57827 -4.52769,0.87355l-0.07383,-0.14761c-0.22966,-3.79769 -0.42243,-5.69652 -0.57827,-5.69652c-1.59125,0.38551 -2.4443,0.60288 -2.55913,0.6521c-0.09843,-0.47575 -0.27067,-1.76763 -0.51675,-3.87562l0.14764,-0.07381h2.63295c-0.14765,-1.21395 -0.36911,-2.797 -0.66439,-4.74917z"/><path d="M241.27511,204.29713c3.71567,1.91115 5.77445,3.02667 6.17637,3.34657c-0.53315,2.49351 -0.84894,3.77718 -0.94737,3.85098h-7.77582v0.13523l2.17772,2.69447l3.42038,-1.74709c0.3363,0.58236 0.82024,1.59945 1.45181,3.05127c-0.29529,0.09841 -2.4484,0.41419 -6.45935,0.94735c-3.32195,-2.19002 -4.99522,-3.33014 -5.01983,-3.42038c0.53315,-4.25701 0.84894,-6.3855 0.94737,-6.3855c3.46959,-1.47643 5.47916,-2.30078 6.02872,-2.47302zM240.47538,207.27457c-0.06562,0.16404 -0.50033,0.81613 -1.30416,1.95625c0,0.3445 0.48394,0.51675 1.45181,0.51675c0,0.0492 0.70129,0.16814 2.10389,0.3568c0.38551,-0.53314 0.57827,-0.84483 0.57827,-0.93507c-0.12304,-0.73001 -0.38962,-1.09502 -0.79973,-1.09502z"/><path d="M253.40639,204.29713c3.69926,0.69721 5.63501,1.09502 5.80726,1.19344v0.14761c-0.79563,2.24745 -1.19344,3.41217 -1.19344,3.49421h-0.07383c-0.20505,0 -1.19754,-0.31988 -2.97745,-0.95966c-0.99248,1.66506 -1.48873,2.55501 -1.48873,2.66985l2.4607,2.38688c1.90294,-1.7881 2.87082,-2.68216 2.90363,-2.68216c1.48462,1.94394 2.22693,3.03485 2.22693,3.27274c-0.81204,0.46752 -2.22693,1.38619 -4.24471,2.75597c-3.90431,-0.84483 -6.01231,-1.31646 -6.32401,-1.41489l-1.93166,-6.2502z"/><path d="M265.98057,200.56916l5.41356,0.95969l-0.51676,4.10936c1.0745,-0.05746 1.86193,-0.08619 2.36228,-0.08619h0.78743l0.17226,-0.08619l0.08612,0.17214c-0.17224,2.49351 -0.3199,3.89611 -0.44293,4.20781l-0.17226,-0.09833c-0.12303,0 -1.23034,-0.05746 -3.32195,-0.17238c-0.11484,1.92756 -0.20096,4.23242 -0.25837,6.91458l-0.17226,0.08619c-2.64115,-0.17224 -4.21601,-0.31988 -4.72455,-0.44292l0.08612,-0.34449c0,-0.71361 0.11483,-2.92825 0.3445,-6.6439c-2.21464,-0.12301 -3.32195,-0.27066 -3.32195,-0.44294c0.11484,-2.73957 0.26248,-4.10936 0.44293,-4.10936l3.23582,0.61517v-1.05811c0,-0.86125 -0.03281,-2.02598 -0.09843,-3.49418c0.06562,0 0.09843,-0.02873 0.09843,-0.08619z"/><path d="M285.51854,204.2848c2.36228,1.50923 3.66644,2.37867 3.91252,2.60833c-0.85305,1.89474 -1.34108,2.84211 -1.46411,2.84211l-4.47848,-2.59604h-0.15995c0,0.08206 -0.19276,0.5414 -0.57827,1.37801c4.12577,2.22284 6.18866,3.36296 6.18866,3.42038c-1.15653,2.67397 -1.80861,4.08477 -1.95625,4.2324l-7.0007,0.40601c-2.72318,-1.80451 -4.18731,-2.75597 -4.39236,-2.85439v-0.07381c0,-0.20505 0.40601,-1.12782 1.21805,-2.7683l5.46276,2.84213l0.40602,-1.62407c-3.37937,-1.51743 -5.38895,-2.4648 -6.02873,-2.84211v-0.17238c0,-0.31169 0.65209,-1.69378 1.95626,-4.14628z"/></g><g data-paper-data="{&quot;origPos&quot;:null}" fill="#ffffff" stroke="#000000" stroke-width="0" stroke-linecap="butt"><path d="M329.03306,200.90047c2.26144,0.15982 3.39217,0.30365 3.39217,0.43152c0.87103,2.34135 1.40241,3.83568 1.59421,4.48295h0.07193c0.20776,-0.44751 1.00287,-1.67811 2.38531,-3.69183h0.07193c2.16556,0.13585 3.24833,0.28368 3.24833,0.44349l1.95381,13.36494c0,0.07991 -1.71008,0.2717 -5.13022,0.57536l-0.07193,-0.14383c-0.19178,-4.05943 -0.28767,-6.54064 -0.28767,-7.44363h-0.07193l-2.96067,2.60108h-0.07193c-0.09589,-0.04794 -0.77113,-1.10676 -2.02572,-3.17643h-0.07192c-1.54226,4.49093 -2.38531,6.87627 -2.52915,7.15593h-0.14383c-2.7569,-1.24659 -4.32313,-1.99375 -4.69871,-2.24148v-0.07192c3.42014,-8.03895 5.20214,-12.13433 5.34598,-12.28615z"/><path d="M347.696,204.54436c3.03659,0.81508 4.64675,1.31054 4.83056,1.48633c1.67013,2.36534 2.60905,3.7278 2.81683,4.0874c-1.07879,3.42014 -1.69808,5.13021 -1.85789,5.13021c-3.59594,0.83904 -5.47782,1.25858 -5.64564,1.25858c-2.97266,-1.73406 -4.55485,-2.70095 -4.74665,-2.90073c-0.10389,-3.22836 -0.15583,-5.01034 -0.15583,-5.34597c-0.04795,-0.09589 -0.07193,-0.16782 -0.07193,-0.21577c3.06855,-2.33337 4.65476,-3.50005 4.75862,-3.50005zM347.46825,208.93141c-0.04795,0.31963 -0.11987,1.48234 -0.21576,3.48806l2.673,0.59932c0.63928,-1.99774 0.95891,-3.06454 0.95891,-3.20039c-2.12561,-0.63929 -3.26432,-0.95892 -3.41616,-0.95892z"/><path d="M363.68599,200.90047h0.07191c3.61192,0.30365 5.41791,0.53938 5.41791,0.7072l1.59421,14.10811c0,0.10389 -1.59421,0.36757 -4.78261,0.7911l-0.07193,-0.15583v-1.28256c-2.7489,0.74316 -4.63476,1.22262 -5.65763,1.43838c-2.42926,-3.43613 -3.70382,-5.26608 -3.82369,-5.48981c1.78998,-3.25233 2.74491,-4.89847 2.86478,-4.93843l5.02233,0.23972c-0.10389,-0.6153 -0.31564,-2.42126 -0.6353,-5.41788zM361.45651,209.49478c0.80708,2.4692 1.31053,3.82369 1.51029,4.06341l2.38531,-2.07366c-0.24773,-1.43039 -0.43153,-2.14559 -0.55138,-2.14559h-3.1884c-0.10389,0.01598 -0.15583,0.06792 -0.15583,0.15583z"/><path d="M378.81296,204.54436c3.61993,1.86191 5.62566,2.94868 6.01722,3.26033c-0.51941,2.42926 -0.82707,3.67987 -0.92296,3.75177h-7.57546v0.13184l2.1216,2.62504l3.33223,-1.7021c0.32763,0.56735 0.7991,1.55823 1.4144,2.97266c-0.28767,0.09589 -2.38531,0.40356 -6.2929,0.92297c-3.23635,-2.1336 -4.86651,-3.24435 -4.89049,-3.33223c0.51941,-4.14731 0.82707,-6.22099 0.92296,-6.22099c3.3802,-1.43839 5.33798,-2.24148 5.8734,-2.4093zM378.03383,207.44508c-0.06392,0.15982 -0.48745,0.79512 -1.27057,1.90587c0,0.33561 0.47147,0.50343 1.4144,0.50343c0,0.04794 0.68324,0.16383 2.0497,0.3476c0.37558,-0.51941 0.56337,-0.82307 0.56337,-0.91098c-0.11985,-0.71119 -0.37957,-1.06679 -0.77913,-1.06679z"/></g></g></g></svg>