<svg version="1.1" xmlns="http://www.w3.org/2000/svg" xmlns:xlink="http://www.w3.org/1999/xlink" width="505.38738" height="374.59628" viewBox="0,0,505.38738,374.59628"><defs><radialGradient cx="480.37237" cy="180.00011" r="180.93093" gradientUnits="userSpaceOnUse" id="color-1"><stop offset="0" stop-color="#ececec"/><stop offset="1" stop-color="#616161"/></radialGradient><linearGradient x1="498.01501" y1="180.00011" x2="462.72972" y2="180.00011" gradientUnits="userSpaceOnUse" id="color-2"><stop offset="0" stop-color="#ececec" stop-opacity="0"/><stop offset="1" stop-color="#ececec"/></linearGradient><linearGradient x1="-4.78664" y1="320.96043" x2="59.77792" y2="320.96043" gradientUnits="userSpaceOnUse" id="color-3"><stop offset="0" stop-color="#000000"/><stop offset="1" stop-color="#000000" stop-opacity="0"/></linearGradient></defs><g transform="translate(7.37237,0.93081)"><g data-paper-data="{&quot;isPaintingLayer&quot;:true}" fill-rule="nonzero" stroke="none" stroke-linecap="butt" stroke-linejoin="miter" stroke-miterlimit="10" stroke-dasharray="" stroke-dashoffset="0" style="mix-blend-mode: normal"><g data-paper-data="{&quot;index&quot;:null}" fill="#ffffff"><path d="M464.6036,189.45345h-216.42943l43.16667,-26h173.26276z" stroke-width="1"/><path d="M291.67417,214.95345h-43l-43,-25.33333h50.09084l7.33333,-5.66667h81.92016z" stroke-width="0.85398"/></g><path d="M472.24967,373.66547h-479.62204v-74h479.62204z" data-paper-data="{&quot;origPos&quot;:null,&quot;index&quot;:null}" fill="#ececec" stroke-width="1"/><path d="M-1.39408,300.46547l0.21649,-32h109.71231l59.94455,32z" data-paper-data="{&quot;index&quot;:null}" fill="#ececec" stroke-width="0"/><path d="M82.32113,310.46547v-42l26.25369,-0.08067l16.5873,8.98067v33.1z" data-paper-data="{&quot;index&quot;:null}" fill="#616161" stroke-width="0"/><path d="M40.51424,360.96547v-50.5h41.60992v50.5z" data-paper-data="{&quot;index&quot;:null}" fill="#616161" stroke-width="0"/><path d="M124.48928,368.46547l0.49243,-59l42.34856,24v35z" data-paper-data="{&quot;index&quot;:null}" fill="#616161" stroke-width="0"/><path d="M-2.25288,310.46547l0.321,-42.08067l42.51999,0.08067v42z" data-paper-data="{&quot;index&quot;:null}" fill="#616161" stroke-width="0"/><g data-paper-data="{&quot;index&quot;:null}" fill="#616161" stroke-width="0"><path d="M378.91794,368.5895v-34.5h42.84098v34.5z" data-paper-data="{&quot;index&quot;:null}"/><path d="M421.31382,334.55046v-34.5h42.84098v34.5z" data-paper-data="{&quot;index&quot;:null}"/></g><g data-paper-data="{&quot;index&quot;:null}" fill="#616161" stroke-width="0"><path d="M294.22082,368.5895v-34.5h42.84098v34.5z" data-paper-data="{&quot;index&quot;:null}"/><path d="M336.6167,334.55046v-34.5h42.84098v34.5z" data-paper-data="{&quot;index&quot;:null}"/></g><g data-paper-data="{&quot;index&quot;:null}" fill="#616161" stroke-width="0"><path d="M209.52371,368.5895v-34.5h42.84098v34.5z" data-paper-data="{&quot;index&quot;:null}"/><path d="M251.91959,334.55046v-34.5h42.84098v34.5z" data-paper-data="{&quot;index&quot;:null}"/></g><path d="M167.22248,334.55046v-34.5h42.84098v34.5z" data-paper-data="{&quot;index&quot;:null}" fill="#616161" stroke-width="0"/><path d="M462.72972,360.93105v-361.86186h35.28529v361.86186z" data-paper-data="{&quot;index&quot;:null}" fill="url(#color-1)" stroke-width="0"/><path d="M462.72972,360.93105v-361.86186h35.28529v361.86186z" data-paper-data="{&quot;index&quot;:null}" fill="url(#color-2)" stroke-width="0"/><path d="M419.81682,189.41081v-26h42.84098v26z" data-paper-data="{&quot;index&quot;:null}" fill="#616161" stroke-width="0"/><path d="M334.6197,189.66081v-26h42.84098v26z" data-paper-data="{&quot;index&quot;:null}" fill="#616161" stroke-width="0"/><path d="M291.78637,214.82747v-25.33333h42.84098z" data-paper-data="{&quot;index&quot;:null}" fill="#616161" stroke-width="0"/><path d="M248.45304,189.49414l42.84098,-26v26z" data-paper-data="{&quot;index&quot;:null}" fill="#616161" stroke-width="0"/><path d="M206.1197,189.66082h42.84098v25.33333z" data-paper-data="{&quot;index&quot;:null}" fill="#616161" stroke-width="0"/><path d="M-4.78664,373.51298v-105.10511h64.56456v105.10511z" fill="url(#color-3)" stroke-width="0"/></g></g></svg>