<svg version="1.1" xmlns="http://www.w3.org/2000/svg" xmlns:xlink="http://www.w3.org/1999/xlink" width="437" height="90.79587" viewBox="0,0,437,90.79587"><defs><linearGradient x1="239.96075" y1="135.56279" x2="239.96075" y2="224.35867" gradientUnits="userSpaceOnUse" id="color-1"><stop offset="0" stop-color="#ffffff"/><stop offset="1" stop-color="#d8d8d8"/></linearGradient><linearGradient x1="239.96075" y1="135.5628" x2="239.96075" y2="224.35867" gradientUnits="userSpaceOnUse" id="color-2"><stop offset="0" stop-color="#343434"/><stop offset="1" stop-color="#090909"/></linearGradient><radialGradient cx="443.76725" cy="206.50539" r="17.9081" gradientUnits="userSpaceOnUse" id="color-3"><stop offset="0" stop-color="#ffffff"/><stop offset="1" stop-color="#e5e5e5"/></radialGradient></defs><g transform="translate(-21.46075,-134.5628)"><g data-paper-data="{&quot;isPaintingLayer&quot;:true}" fill-rule="nonzero" stroke-linejoin="miter" stroke-miterlimit="10" stroke-dasharray="" stroke-dashoffset="0" style="mix-blend-mode: normal"><path d="M22.46075,224.35867v-88.79587h435v88.79587z" data-paper-data="{&quot;origPos&quot;:null}" fill="url(#color-1)" stroke="url(#color-2)" stroke-width="2" stroke-linecap="butt"/><g data-paper-data="{&quot;origPos&quot;:null}"><path d="M444.26655,202.0594c2.5136,0 4.7909,1.0212 6.4406,2.6702c1.6489,1.6496 2.6702,3.9269 2.6702,6.4405c0,2.5136 -1.0213,4.791 -2.6702,6.4406c-1.6497,1.649 -3.927,2.6702 -6.4406,2.6702c-2.5136,0 -4.7909,-1.0212 -6.4406,-2.6702c-1.6489,-1.6496 -2.6701,-3.927 -2.6701,-6.4406c0,-2.5136 1.0212,-4.7909 2.6701,-6.4405c1.6497,-1.649 3.927,-2.6702 6.4406,-2.6702z" fill="url(#color-3)" stroke="#000000" stroke-width="2.0785" stroke-linecap="butt"/><path d="M441.23415,206.50959l5.6119,0.4503l1.7321,3.187l-3.6374,2.9446l3.3603,-0.5197l0.7967,3.4642l-7.4479,-0.0693l-1.9053,-2.4249l4.6766,-3.3256l-4.5727,-0.3464z" fill="#000000" stroke="none" stroke-width="0.69283" stroke-linecap="round"/></g><path d="M36.15223,149.59471c2.45739,0.54879 3.82327,0.86282 4.09766,0.9421v0.06401c-0.08537,2.20127 -0.1494,3.4818 -0.19207,3.84156c0.14024,0 0.77137,0.14634 1.89334,0.43902c1.00613,-3.10373 1.55187,-4.6556 1.63724,-4.6556c1.68297,0.75612 2.75312,1.25917 3.21045,1.50918v0.06401c-1.84761,4.29889 -2.89641,6.6709 -3.14642,7.11604c-0.46343,0.38416 -2.07932,1.85372 -4.84768,4.40866h-0.06403l-5.10379,-2.51532c0.46953,-0.80489 1.03661,-1.7287 1.70126,-2.77141c0.03049,0 0.82929,0.5244 2.39641,1.57321h0.06403c0.5244,-0.42685 1.15247,-1.03662 1.88419,-1.82931c0,-0.03658 -1.19516,-1.2104 -3.58546,-3.52145v-4.5367z" data-paper-data="{&quot;origPos&quot;:null}" fill="#000000" stroke="none" stroke-width="0.26458" stroke-linecap="butt"/><path d="M51.4819,152.36611c2.31713,0.62197 3.54582,1.00003 3.68606,1.13418c1.27442,1.80491 1.99091,2.84458 2.14945,3.11899c-0.8232,2.60983 -1.29577,3.91474 -1.41772,3.91474c-2.74397,0.64026 -4.17999,0.96038 -4.30804,0.96038c-2.26835,-1.3232 -3.47571,-2.06102 -3.62204,-2.21346c-0.07926,-2.46349 -0.1189,-3.82327 -0.1189,-4.07937c-0.03658,-0.07316 -0.05488,-0.12804 -0.05488,-0.16465c2.34152,-1.78053 3.55192,-2.67079 3.6312,-2.67079zM51.30812,155.71376c-0.03658,0.24392 -0.09146,1.13112 -0.16463,2.66165l2.03968,0.45734c0.48782,-1.52443 0.73172,-2.33848 0.73172,-2.44214c-1.62199,-0.48782 -2.49092,-0.73173 -2.60677,-0.73173z" data-paper-data="{&quot;origPos&quot;:null}" fill="#000000" stroke="none" stroke-width="0.26458" stroke-linecap="butt"/><path d="M63.08891,152.35697l0.06403,0.11888l-1.23479,6.54896h0.06403l3.14641,-0.92381v-3.70438c0.0122,-0.08535 0.05183,-0.12803 0.1189,-0.12803c2.36592,0.16463 3.68303,0.24695 3.95133,0.24695c0,0.04267 0.02134,0.06402 0.06403,0.06402c0,1.04271 -0.32928,3.20435 -0.98784,6.48492c0,0.18902 -0.94515,0.33231 -2.83543,0.42988c-0.09757,-0.11586 -0.17989,-0.36282 -0.24695,-0.74087c-2.42079,0.49391 -3.80193,0.74087 -4.1434,0.74087c-1.93297,-1.43906 -2.89946,-2.17993 -2.89946,-2.22261c0.32928,-4.32328 0.5366,-6.56725 0.62197,-6.7319h0.05488c1.54272,-0.04267 2.96349,-0.10364 4.26231,-0.18292z" data-paper-data="{&quot;origPos&quot;:null}" fill="#000000" stroke="none" stroke-width="0.26458" stroke-linecap="butt"/><path d="M78.42772,152.36611c2.75008,0.5183 4.18914,0.81405 4.31718,0.88723v0.10974c-0.59148,1.67078 -0.88721,2.53665 -0.88721,2.59762h-0.05488c-0.15244,0 -0.89026,-0.23781 -2.21346,-0.71343c-0.73783,1.23784 -1.10674,1.89944 -1.10674,1.98481l1.82931,1.77443c1.41466,-1.3293 2.1342,-1.99394 2.1586,-1.99394c1.10368,1.44516 1.65552,2.25615 1.65552,2.43299c-0.60368,0.34758 -1.65552,1.03052 -3.15556,2.04883c-2.90252,-0.62806 -4.46963,-0.97868 -4.70134,-1.05185l-1.436,-4.64646z" data-paper-data="{&quot;origPos&quot;:null}" fill="#000000" stroke="none" stroke-width="0.26458" stroke-linecap="butt"/><path d="M86.43098,152.35697c3.62204,0.50002 5.43308,0.80795 5.43308,0.92381c1.42686,1.22563 2.14029,1.88114 2.14029,1.96651c-0.57928,1.81102 -0.90855,2.91166 -0.98783,3.30191c0.57928,1.28662 0.90855,2.05494 0.98783,2.30494c0,0.07316 -0.94515,0.26828 -2.83544,0.58537c-0.02439,-0.10366 -0.19818,-0.33536 -0.52136,-0.69512c-2.60983,0.5 -4.01534,0.75001 -4.21658,0.75001l-1.39028,-3.75924l3.0641,-1.61895c0.49391,0.07925 1.26528,0.11889 2.31409,0.11889c0,-0.13415 0.01829,-0.53965 0.05488,-1.2165c-0.17683,0 -1.75614,0.11586 -4.73794,0.34758l-0.05488,-0.11888c0.41464,-1.92688 0.66465,-2.89032 0.75002,-2.89032zM88.33347,157.73516c0,0.06707 0.19513,0.7805 0.58537,2.14029h0.05488c0.76832,-0.5 1.15247,-0.82928 1.15247,-0.98782l0.11892,-0.97869c-0.14634,0 -0.78356,-0.05792 -1.91163,-0.17378z" data-paper-data="{&quot;origPos&quot;:null}" fill="#000000" stroke="none" stroke-width="0.26458" stroke-linecap="butt"/><path d="M103.00458,152.35697l3.04581,2.09457c-0.21341,3.47571 -0.36281,5.50625 -0.44818,6.09162c-0.35367,0.04267 -1.42992,0.1067 -3.22874,0.19207l-0.06403,-0.12803l-0.32013,-4.88428l-0.12806,-0.06401c-1.16467,0.25001 -1.96651,0.43904 -2.40555,0.5671c0.12195,2.07932 0.18292,3.5824 0.18292,4.50925c-1.81713,0.50611 -2.81105,0.75917 -2.98178,0.75917c-1.18296,-5.20745 -1.77444,-7.95752 -1.77444,-8.25022c2.57325,-0.33537 3.96962,-0.50306 4.18914,-0.50306v0.06401c0.04269,0.03049 0.10672,0.66464 0.19207,1.90249c2.35981,-1.56712 3.6068,-2.35067 3.74095,-2.35067z" data-paper-data="{&quot;origPos&quot;:null}" fill="#000000" stroke="none" stroke-width="0.26458" stroke-linecap="butt"/><path d="M119.72453,152.35697l3.04581,2.09457c-0.21341,3.47571 -0.36281,5.50625 -0.44818,6.09162c-0.35367,0.04267 -1.42992,0.1067 -3.22874,0.19207l-0.06403,-0.12803l-0.32013,-4.88428l-0.12806,-0.06401c-1.16467,0.25001 -1.96651,0.43904 -2.40555,0.5671c0.12195,2.07932 0.18292,3.5824 0.18292,4.50925c-1.81713,0.50611 -2.81105,0.75917 -2.98178,0.75917c-1.18296,-5.20745 -1.77444,-7.95752 -1.77444,-8.25022c2.57325,-0.33537 3.96962,-0.50306 4.18914,-0.50306v0.06401c0.04269,0.03049 0.10671,0.66464 0.19207,1.90249c2.35981,-1.56712 3.6068,-2.35067 3.74095,-2.35067z" data-paper-data="{&quot;origPos&quot;:null}" fill="#000000" stroke="none" stroke-width="0.26458" stroke-linecap="butt"/><path d="M127.36192,152.36611c2.31713,0.62197 3.54583,1.00003 3.68607,1.13418c1.27442,1.80491 1.9909,2.84458 2.14945,3.11899c-0.8232,2.60983 -1.29576,3.91474 -1.41771,3.91474c-2.74397,0.64026 -4.17999,0.96038 -4.30804,0.96038c-2.26835,-1.3232 -3.4757,-2.06102 -3.62204,-2.21346c-0.07928,-2.46349 -0.11892,-3.82327 -0.11892,-4.07937c-0.0366,-0.07316 -0.05488,-0.12804 -0.05488,-0.16465c2.34153,-1.78053 3.55192,-2.67079 3.6312,-2.67079zM127.18814,155.71376c-0.0366,0.24392 -0.09146,1.13112 -0.16464,2.66165l2.03968,0.45734c0.48782,-1.52443 0.73173,-2.33848 0.73173,-2.44214c-1.62199,-0.48782 -2.49093,-0.73173 -2.60677,-0.73173z" data-paper-data="{&quot;origPos&quot;:null}" fill="#000000" stroke="none" stroke-width="0.26458" stroke-linecap="butt"/><path d="M138.04513,152.35697c0.07928,0.10366 0.49087,1.872 1.23479,5.30502h0.06403c0,-0.07925 0.45122,-0.77745 1.35369,-2.09457c0.37807,0.2561 1.09759,0.81101 2.1586,1.66469h0.12805v-0.06401c0.16464,-2.37812 0.28659,-3.69523 0.36587,-3.95133c2.51227,0.12806 3.76838,0.23172 3.76838,0.31099c-1.15248,4.63427 -1.76834,7.04287 -1.84761,7.2258c-0.38416,0.04267 -1.18905,0.16463 -2.41469,0.36586c-1.00612,-1.5793 -1.58236,-2.42079 -1.72871,-2.52445c-0.65855,1.75615 -1.07015,2.72263 -1.23479,2.89946h-2.46958c-0.15244,-0.04877 -0.87198,-1.63419 -2.1586,-4.75622c-0.8232,-1.74394 -1.23479,-2.68909 -1.23479,-2.83543c0,-0.13415 1.33845,-0.64941 4.01534,-1.54577z" data-paper-data="{&quot;origPos&quot;:null}" fill="#000000" stroke="none" stroke-width="0.26458" stroke-linecap="butt"/><path d="M156.31999,152.35697c1.49394,3.42692 2.28969,5.20441 2.38725,5.33245c0.73782,-2.79884 1.16771,-4.28973 1.28967,-4.47267c2.32933,0.21341 3.494,0.39635 3.494,0.54879v0.06401c-1.63419,4.48793 -2.51227,6.83859 -2.63422,7.05201c-1.80493,0.32929 -3.01227,0.53355 -3.62204,0.61282l-4.47268,-6.62212v-0.12802c0.04269,-0.07925 1.2287,-0.87502 3.55803,-2.38727z" data-paper-data="{&quot;origPos&quot;:null}" fill="#000000" stroke="none" stroke-width="0.26458" stroke-linecap="butt"/><path d="M165.73182,148.68919l3.59461,0.56708c-0.45122,1.72566 -0.74697,2.5885 -0.88721,2.5885c-1.8903,-0.12806 -2.83543,-0.25306 -2.83543,-0.37502v-2.6525c0.01829,-0.08535 0.06098,-0.12803 0.12806,-0.12803zM164.72571,153.04296h0.05488c2.78056,0.50611 4.17084,0.80186 4.17084,0.88722c-0.7988,4.5245 -1.28357,7.04591 -1.45431,7.56422h-2.89946c-0.08537,0 -0.12805,-0.04267 -0.12805,-0.12802z" data-paper-data="{&quot;origPos&quot;:null}" fill="#000000" stroke="none" stroke-width="0.26458" stroke-linecap="butt"/><path d="M177.00956,152.35697c1.75614,1.12198 2.72568,1.76835 2.9086,1.93908c-0.63416,1.40857 -0.99697,2.11286 -1.08844,2.11286l-3.32936,-1.92993h-0.1189c0,0.06096 -0.14329,0.40243 -0.42988,1.02441c3.06716,1.65249 4.60073,2.50007 4.60073,2.54275c-0.85978,1.98786 -1.34455,3.03666 -1.45432,3.14642l-5.2044,0.30184c-2.02445,-1.3415 -3.1129,-2.04883 -3.26534,-2.122v-0.05487c0,-0.15244 0.30184,-0.83844 0.90552,-2.05797l4.06108,2.11286l0.30184,-1.20734c-2.51227,-1.12808 -4.0062,-1.83238 -4.48182,-2.11288v-0.12802c0,-0.23172 0.48477,-1.25919 1.45432,-3.0824z" data-paper-data="{&quot;origPos&quot;:null}" fill="#000000" stroke="none" stroke-width="0.26458" stroke-linecap="butt"/><path d="M182.08591,148.68919l3.59461,0.56708c-0.45122,1.72566 -0.74697,2.5885 -0.88721,2.5885c-1.8903,-0.12806 -2.83543,-0.25306 -2.83543,-0.37502v-2.6525c0.01829,-0.08535 0.06098,-0.12803 0.12806,-0.12803zM181.07978,153.04296h0.05489c2.78056,0.50611 4.17083,0.80186 4.17083,0.88722c-0.7988,4.5245 -1.28356,7.04591 -1.45431,7.56422h-2.89947c-0.08537,0 -0.12805,-0.04267 -0.12805,-0.12802z" data-paper-data="{&quot;origPos&quot;:null}" fill="#000000" stroke="none" stroke-width="0.26458" stroke-linecap="butt"/><path d="M188.71719,149.59471l4.0245,0.71343l-0.38415,3.05496c0.7988,-0.04267 1.38417,-0.06401 1.75614,-0.06401h0.58539l0.12806,-0.06402l0.06403,0.12803c-0.12805,1.8537 -0.23781,2.89643 -0.32927,3.12813l-0.12805,-0.07316c-0.09146,0 -0.91466,-0.04268 -2.46958,-0.12803c-0.08537,1.43297 -0.1494,3.14643 -0.19207,5.14038l-0.12806,0.06401c-1.96346,-0.12804 -3.13422,-0.23781 -3.51229,-0.32927l0.06403,-0.2561c0,-0.53051 0.08537,-2.1769 0.2561,-4.93916c-1.64639,-0.09145 -2.46958,-0.20121 -2.46958,-0.32927c0.08537,-2.03663 0.19512,-3.05496 0.32927,-3.05496l2.40556,0.45733v-0.7866c0,-0.64026 -0.0244,-1.50613 -0.07318,-2.59763c0.04878,0 0.07318,-0.02134 0.07318,-0.06401z" data-paper-data="{&quot;origPos&quot;:null}" fill="#000000" stroke="none" stroke-width="0.26458" stroke-linecap="butt"/><path d="M209.84578,149.5764c0.03658,0.07925 0.05487,0.13719 0.05487,0.1738c-0.03658,1.81712 -0.05487,2.86897 -0.05487,3.15556l-0.11889,0.05487c-2.79884,0.07316 -4.40254,0.10974 -4.81109,0.10974l-0.05487,0.11889c0.03658,0.67685 0.05487,1.23174 0.05487,1.66467v0.28355h0.05487l3.72266,-0.45733l0.06401,0.10974v2.808c0,0.07925 -0.03964,0.11888 -0.11889,0.11888l-3.49398,-0.40245v0.33842c0,0.76831 0.02135,1.91468 0.06402,3.43911c-0.34147,0.07925 -1.37504,0.2134 -3.1007,0.40245c-0.10976,-0.21341 -0.64331,-3.74705 -1.60066,-10.60089h0.05488z" data-paper-data="{&quot;origPos&quot;:null}" fill="#2b70c2" stroke="none" stroke-width="0.26458" stroke-linecap="butt"/><path d="M212.15987,148.68919l3.59461,0.56708c-0.45124,1.72566 -0.74698,2.5885 -0.88723,2.5885c-1.89029,-0.12806 -2.83543,-0.25306 -2.83543,-0.37502v-2.6525c0.01829,-0.08535 0.06096,-0.12803 0.12803,-0.12803zM211.15375,153.04296h0.05487c2.78055,0.50611 4.17083,0.80186 4.17083,0.88722c-0.7988,4.5245 -1.28356,7.04591 -1.45431,7.56422h-2.89946c-0.08535,0 -0.12803,-0.04267 -0.12803,-0.12802z" data-paper-data="{&quot;origPos&quot;:null}" fill="#2b70c2" stroke="none" stroke-width="0.26458" stroke-linecap="butt"/><path d="M222.62356,152.35697c1.20734,0.67685 1.94822,1.11588 2.22261,1.31711c-0.98783,2.05492 -1.51832,3.10068 -1.5915,3.13727h-0.06402l-1.30796,-1.14332l-1.54577,1.8842l0.1738,3.42996c-0.07925,0.07316 -1.08843,0.24389 -3.02752,0.5122c-0.07316,-0.5244 -0.54878,-3.09459 -1.42686,-7.71057c0,-0.07316 1.27443,-0.26219 3.82326,-0.56708c0.04267,0.04877 0.15852,0.61892 0.34757,1.71041c1.52443,-1.71346 2.32324,-2.57019 2.39641,-2.57019z" data-paper-data="{&quot;origPos&quot;:null}" fill="#2b70c2" stroke="none" stroke-width="0.26458" stroke-linecap="butt"/><path d="M230.75488,152.36611c2.76226,1.42077 4.29279,2.25006 4.59157,2.48787c-0.39634,1.8537 -0.63111,2.808 -0.70428,2.86289h-5.78064v0.10059l1.61894,2.00311l2.54276,-1.29882c0.25,0.43293 0.60975,1.18905 1.07928,2.26835c-0.21952,0.07316 -1.82017,0.30791 -4.80194,0.70428c-2.46958,-1.62809 -3.71352,-2.47567 -3.73181,-2.54274c0.39635,-3.16472 0.63111,-4.74707 0.70428,-4.74707c2.57933,-1.09759 4.07327,-1.71042 4.48183,-1.83847zM230.16035,154.57959c-0.04878,0.12195 -0.37195,0.60672 -0.96954,1.4543c0,0.2561 0.35976,0.38416 1.07928,0.38416c0,0.03658 0.52136,0.125 1.56406,0.26526c0.28661,-0.39636 0.4299,-0.62808 0.4299,-0.69514c-0.09145,-0.54271 -0.28963,-0.81405 -0.59453,-0.81405z" data-paper-data="{&quot;origPos&quot;:null}" fill="#2b70c2" stroke="none" stroke-width="0.26458" stroke-linecap="butt"/><path d="M247.05407,149.59471c2.72568,1.06099 4.08852,1.62504 4.08852,1.69211c-0.87196,1.78055 -1.30795,2.70739 -1.30795,2.78057h-0.05487c-0.39025,-0.10976 -1.24697,-0.49087 -2.57019,-1.14333l-2.17688,1.52748c0,1.89029 0.10671,2.83544 0.32012,2.83544c0.14025,0.07316 1.05187,0.43902 2.73483,1.09758c0.64637,-0.64026 1.30187,-1.25917 1.96652,-1.85674c0.12195,0.10976 0.6677,0.98173 1.63724,2.61591v0.16464c-0.06096,0 -1.40856,0.72868 -4.04279,2.18603c-3.36594,-1.12808 -5.09465,-1.7287 -5.18612,-1.80187l-1.63724,-5.40562c1.53663,-2.18298 2.32018,-3.27447 2.35067,-3.27447c0.06707,0 1.35978,-0.47257 3.87816,-1.41772z" data-paper-data="{&quot;origPos&quot;:null}" fill="#2b70c2" stroke="none" stroke-width="0.26458" stroke-linecap="butt"/><path d="M254.14266,152.35697c3.62205,0.50002 5.43307,0.80795 5.43307,0.92381c1.42686,1.22563 2.1403,1.88114 2.1403,1.96651c-0.57928,1.81102 -0.90855,2.91166 -0.98784,3.30191c0.5793,1.28662 0.90857,2.05494 0.98784,2.30494c0,0.07316 -0.94515,0.26828 -2.83543,0.58537c-0.02438,-0.10366 -0.19818,-0.33536 -0.52136,-0.69512c-2.60982,0.5 -4.01534,0.75001 -4.21657,0.75001l-1.39028,-3.75924l3.0641,-1.61895c0.49392,0.07925 1.26528,0.11889 2.31409,0.11889c0,-0.13415 0.01829,-0.53965 0.05487,-1.2165c-0.17684,0 -1.75616,0.11586 -4.73794,0.34758l-0.05487,-0.11888c0.41465,-1.92688 0.66466,-2.89032 0.75003,-2.89032zM256.04514,157.73516c0,0.06707 0.19512,0.7805 0.58539,2.14029h0.05487c0.7683,-0.5 1.15246,-0.82928 1.15246,-0.98782l0.11888,-0.97869c-0.14634,0 -0.78357,-0.05792 -1.91165,-0.17378z" data-paper-data="{&quot;origPos&quot;:null}" fill="#2b70c2" stroke="none" stroke-width="0.26458" stroke-linecap="butt"/><path d="M269.9754,152.35697c1.75615,1.12198 2.72568,1.76835 2.90861,1.93908c-0.63417,1.40857 -0.99698,2.11286 -1.08844,2.11286l-3.32936,-1.92993h-0.11888c0,0.06096 -0.14329,0.40243 -0.42989,1.02441c3.06715,1.65249 4.60073,2.50007 4.60073,2.54275c-0.85978,1.98786 -1.34455,3.03666 -1.4543,3.14642l-5.20441,0.30184c-2.02445,-1.3415 -3.11289,-2.04883 -3.26533,-2.122v-0.05487c0,-0.15244 0.30184,-0.83844 0.90552,-2.05797l4.06108,2.11286l0.30184,-1.20734c-2.51227,-1.12808 -4.00621,-1.83238 -4.48183,-2.11288v-0.12802c0,-0.23172 0.48477,-1.25919 1.45431,-3.0824z" data-paper-data="{&quot;origPos&quot;:null}" fill="#2b70c2" stroke="none" stroke-width="0.26458" stroke-linecap="butt"/><path d="M276.52432,149.59471l4.02449,0.71343l-0.38416,3.05496c0.7988,-0.04267 1.38419,-0.06401 1.75615,-0.06401h0.58537l0.12802,-0.06402l0.06402,0.12803c-0.12806,1.8537 -0.2378,2.89643 -0.32927,3.12813l-0.12803,-0.07316c-0.09145,0 -0.91464,-0.04268 -2.46958,-0.12803c-0.08536,1.43297 -0.14938,3.14643 -0.19208,5.14038l-0.12802,0.06401c-1.96346,-0.12804 -3.13423,-0.23781 -3.51229,-0.32927l0.06402,-0.2561c0,-0.53051 0.08537,-2.1769 0.2561,-4.93916c-1.64639,-0.09145 -2.46956,-0.20121 -2.46956,-0.32927c0.08535,-2.03663 0.19511,-3.05496 0.32928,-3.05496l2.40555,0.45733v-0.7866c0,-0.64026 -0.02438,-1.50613 -0.07316,-2.59763c0.04878,0 0.07316,-0.02134 0.07316,-0.06401z" data-paper-data="{&quot;origPos&quot;:null}" fill="#2b70c2" stroke="none" stroke-width="0.26458" stroke-linecap="butt"/><path d="M283.66781,149.60385c1.86591,0.03658 3.23485,0.05486 4.10682,0.05486c0.07925,0 0.32012,3.744 0.72258,11.23199c-0.31099,0.07925 -1.39638,0.28048 -3.25619,0.60367c-0.09145,0 -0.39328,-2.29274 -0.9055,-6.87822c-0.04267,-0.10976 -0.26525,-1.78053 -0.66771,-5.01232z" data-paper-data="{&quot;origPos&quot;:null}" fill="#2b70c2" stroke="none" stroke-width="0.26458" stroke-linecap="butt"/><path d="M294.70774,152.36611c2.76226,1.42077 4.2928,2.25006 4.59159,2.48787c-0.39636,1.8537 -0.63111,2.808 -0.70429,2.86289h-5.78065v0.10059l1.61894,2.00311l2.54276,-1.29882c0.25001,0.43293 0.60976,1.18905 1.0793,2.26835c-0.21952,0.07316 -1.82018,0.30791 -4.80196,0.70428c-2.46956,-1.62809 -3.7135,-2.47567 -3.7318,-2.54274c0.39636,-3.16472 0.63111,-4.74707 0.70428,-4.74707c2.57934,-1.09759 4.07328,-1.71042 4.48183,-1.83847zM294.11321,154.57959c-0.04877,0.12195 -0.37195,0.60672 -0.96953,1.4543c0,0.2561 0.35976,0.38416 1.0793,0.38416c0,0.03658 0.52136,0.125 1.56406,0.26526c0.28659,-0.39636 0.42988,-0.62808 0.42988,-0.69514c-0.09145,-0.54271 -0.28963,-0.81405 -0.59453,-0.81405z" data-paper-data="{&quot;origPos&quot;:null}" fill="#2b70c2" stroke="none" stroke-width="0.26458" stroke-linecap="butt"/><path d="M311.96735,149.59471c2.19518,1.10978 3.32326,1.66467 3.38423,1.66467c0,0.09754 -0.45734,0.97867 -1.37198,2.64337h-0.06401c-0.07316,0 -1.12501,-0.49696 -3.15556,-1.49089l-1.03357,1.38113c1.75005,0.84149 3.8751,1.91469 6.37517,3.2196c-1.13419,2.01834 -1.93908,3.35984 -2.4147,4.02448l-5.16781,0.45733c-2.35982,-1.5915 -3.6068,-2.41468 -3.74095,-2.46956v-0.06401c0,-0.17075 0.47867,-0.9543 1.436,-2.35067h0.11889c0.37805,0.22561 1.56406,0.87502 3.55801,1.94823l1.20736,-1.372c-3.66472,-1.8659 -5.69527,-2.92081 -6.09162,-3.16472v-0.05487c1.16465,-2.26835 1.79882,-3.41777 1.90248,-3.44826c3.03057,-0.61588 4.71659,-0.92381 5.05806,-0.92381z" data-paper-data="{&quot;origPos&quot;:null}" fill="#2b70c2" stroke="none" stroke-width="0.26458" stroke-linecap="butt"/><path d="M320.66574,152.36611c2.75007,0.5183 4.18912,0.81405 4.31718,0.88723v0.10974c-0.59148,1.67078 -0.88721,2.53665 -0.88721,2.59762h-0.05487c-0.15244,0 -0.89026,-0.23781 -2.21346,-0.71343c-0.73782,1.23784 -1.10675,1.89944 -1.10675,1.98481l1.82933,1.77443c1.41467,-1.3293 2.1342,-1.99394 2.15858,-1.99394c1.1037,1.44516 1.65555,2.25615 1.65555,2.43299c-0.60368,0.34758 -1.65554,1.03052 -3.15558,2.04883c-2.90251,-0.62806 -4.46963,-0.97868 -4.70134,-1.05185l-1.43601,-4.64646z" data-paper-data="{&quot;origPos&quot;:null}" fill="#2b70c2" stroke="none" stroke-width="0.26458" stroke-linecap="butt"/><path d="M333.84594,152.35697c1.20734,0.67685 1.94822,1.11588 2.22261,1.31711c-0.98784,2.05492 -1.51832,3.10068 -1.5915,3.13727h-0.06401l-1.30796,-1.14332l-1.54576,1.8842l0.17378,3.42996c-0.07925,0.07316 -1.08843,0.24389 -3.02752,0.5122c-0.07316,-0.5244 -0.54878,-3.09459 -1.42686,-7.71057c0,-0.07316 1.27443,-0.26219 3.82327,-0.56708c0.04267,0.04877 0.15853,0.61892 0.34756,1.71041c1.52443,-1.71346 2.32323,-2.57019 2.39641,-2.57019z" data-paper-data="{&quot;origPos&quot;:null}" fill="#2b70c2" stroke="none" stroke-width="0.26458" stroke-linecap="butt"/><path d="M338.18142,152.35697c3.62205,0.50002 5.43308,0.80795 5.43308,0.92381c1.42686,1.22563 2.14029,1.88114 2.14029,1.96651c-0.57928,1.81102 -0.90856,2.91166 -0.98782,3.30191c0.57928,1.28662 0.90856,2.05494 0.98782,2.30494c0,0.07316 -0.94515,0.26828 -2.83544,0.58537c-0.02438,-0.10366 -0.19818,-0.33536 -0.52136,-0.69512c-2.60983,0.5 -4.01534,0.75001 -4.21657,0.75001l-1.39027,-3.75924l3.0641,-1.61895c0.49391,0.07925 1.26528,0.11889 2.31409,0.11889c0,-0.13415 0.01828,-0.53965 0.05487,-1.2165c-0.17683,0 -1.75614,0.11586 -4.73792,0.34758l-0.05487,-0.11888c0.41465,-1.92688 0.66466,-2.89032 0.75001,-2.89032zM340.08392,157.73516c0,0.06707 0.19512,0.7805 0.58537,2.14029h0.05487c0.76831,-0.5 1.15248,-0.82928 1.15248,-0.98782l0.11888,-0.97869c-0.14634,0 -0.78355,-0.05792 -1.91163,-0.17378z" data-paper-data="{&quot;origPos&quot;:null}" fill="#2b70c2" stroke="none" stroke-width="0.26458" stroke-linecap="butt"/><path d="M346.63289,149.60385c1.86589,0.03658 3.23483,0.05486 4.10681,0.05486c0.07925,0 0.32011,3.744 0.72258,11.23199c-0.31097,0.07925 -1.39636,0.28048 -3.25617,0.60367c-0.09145,0 -0.39328,-2.29274 -0.90551,-6.87822c-0.04267,-0.10976 -0.26525,-1.78053 -0.6677,-5.01232z" data-paper-data="{&quot;origPos&quot;:null}" fill="#2b70c2" stroke="none" stroke-width="0.26458" stroke-linecap="butt"/><path d="M353.87697,152.35697c3.62205,0.50002 5.43308,0.80795 5.43308,0.92381c1.42686,1.22563 2.14029,1.88114 2.14029,1.96651c-0.57928,1.81102 -0.90855,2.91166 -0.98782,3.30191c0.57928,1.28662 0.90855,2.05494 0.98782,2.30494c0,0.07316 -0.94515,0.26828 -2.83544,0.58537c-0.02438,-0.10366 -0.19817,-0.33536 -0.52135,-0.69512c-2.60983,0.5 -4.01535,0.75001 -4.21658,0.75001l-1.39027,-3.75924l3.0641,-1.61895c0.49391,0.07925 1.26528,0.11889 2.31409,0.11889c0,-0.13415 0.01829,-0.53965 0.05487,-1.2165c-0.17683,0 -1.75613,0.11586 -4.73791,0.34758l-0.05487,-0.11888c0.41465,-1.92688 0.66465,-2.89032 0.75001,-2.89032zM355.77946,157.73516c0,0.06707 0.19513,0.7805 0.58537,2.14029h0.05487c0.76831,-0.5 1.15247,-0.82928 1.15247,-0.98782l0.11888,-0.97869c-0.14634,0 -0.78355,-0.05792 -1.91163,-0.17378z" data-paper-data="{&quot;origPos&quot;:null}" fill="#2b70c2" stroke="none" stroke-width="0.26458" stroke-linecap="butt"/><path d="M368.83162,152.35697h0.03658c1.62809,0.95735 2.50616,1.45737 2.63421,1.50004v0.0823c-0.42073,0.48172 -1.19516,1.31711 -2.32324,2.50616c2.21346,0.8232 3.4574,1.32016 3.73181,1.4909l-2.06713,2.55188c-1.39637,-1.19516 -2.28664,-1.94211 -2.6708,-2.2409c-0.94515,1.84151 -1.53357,2.92384 -1.76529,3.24702h-0.03658c-1.75004,-0.61588 -2.7013,-0.98172 -2.85374,-1.09758v-0.04573l2.4147,-3.15558c-2.24396,-0.92686 -3.4452,-1.46955 -3.60375,-1.6281c0.98784,-1.67687 1.54272,-2.57018 1.66467,-2.67994c0.01829,0.04267 1.10368,0.78964 3.25619,2.24092c0.76223,-1.40857 1.28967,-2.33238 1.58235,-2.77142z" data-paper-data="{&quot;origPos&quot;:null}" fill="#2b70c2" stroke="none" stroke-width="0.26458" stroke-linecap="butt"/><path d="M377.95076,152.37526c0.08535,0.0122 0.12803,0.05487 0.12803,0.12803l-0.95126,5.26842c1.81712,-0.21341 2.72568,-0.38416 2.72568,-0.5122c0.34147,-2.10982 0.57624,-3.29278 0.70429,-3.54888c2.25006,0.46342 3.49705,0.73782 3.74095,0.82319c-1.31101,4.50621 -2.03054,6.85384 -2.15859,7.04287c-2.29275,1.6098 -3.5824,2.50007 -3.86901,2.6708c-0.08535,0 -1.54576,-0.35976 -4.38121,-1.07928v-0.06402c0.75001,-1.65249 1.21649,-2.47872 1.39943,-2.47872l2.78971,1.39943l1.3354,-2.28664c-1.20125,0.29879 -1.89945,0.44817 -2.09457,0.44817l-3.55802,-1.8476c0.43295,-3.97573 0.70734,-5.96358 0.82319,-5.96358z" data-paper-data="{&quot;origPos&quot;:null}" fill="#2b70c2" stroke="none" stroke-width="0.26458" stroke-linecap="butt"/><path d="M389.21935,149.93312l0.03658,0.07316c-0.60977,5.38428 -0.95124,8.21362 -1.02441,8.48803c-1.29271,-0.12196 -2.1098,-0.20734 -2.45128,-0.25611v-0.03658l-0.58539,-7.64654c0.14634,-0.04877 1.48785,-0.2561 4.0245,-0.62197zM385.5973,158.67725c0.04267,0.02438 0.99393,0.09755 2.85374,0.21952l0.03658,0.07316c-0.28659,1.68296 -0.46952,2.52445 -0.54879,2.52445h-2.122c-0.07316,0 -0.17073,-0.84149 -0.29269,-2.52445c-0.02438,0 -0.03658,-0.07317 -0.03658,-0.21952c0.07316,-0.02438 0.10974,-0.04878 0.10974,-0.07316z" data-paper-data="{&quot;origPos&quot;:null}" fill="#000000" stroke="none" stroke-width="0.26458" stroke-linecap="butt"/></g></g></svg>