<svg version="1.1" xmlns="http://www.w3.org/2000/svg" xmlns:xlink="http://www.w3.org/1999/xlink" width="60.1801" height="57.6988" viewBox="0,0,60.1801,57.6988"><defs><radialGradient cx="240.99295" cy="180.2134" r="39.6063" gradientUnits="userSpaceOnUse" id="color-1"><stop offset="0" stop-color="#fff343"/><stop offset="1" stop-color="#fff343" stop-opacity="0"/></radialGradient><linearGradient x1="213.33255" y1="154.124" x2="213.33255" y2="204.8323" gradientUnits="userSpaceOnUse" id="color-2"><stop offset="0" stop-color="#fff01b"/><stop offset="1" stop-color="#ffa30a"/></linearGradient><linearGradient x1="241.91025" y1="173.0916" x2="241.91025" y2="184.0864" gradientUnits="userSpaceOnUse" id="color-3"><stop offset="0" stop-color="#000000"/><stop offset="1" stop-color="#674205"/></linearGradient><linearGradient x1="232.66025" y1="173.0416" x2="232.66025" y2="184.0364" gradientUnits="userSpaceOnUse" id="color-4"><stop offset="0" stop-color="#000000"/><stop offset="1" stop-color="#674205"/></linearGradient></defs><g transform="translate(-209.90995,-151.1506)"><g data-paper-data="{&quot;isPaintingLayer&quot;:true}" fill-rule="nonzero" stroke="none" stroke-linejoin="miter" stroke-miterlimit="10" stroke-dasharray="" stroke-dashoffset="0" style="mix-blend-mode: normal"><path d="M210.97695,174.491l-1.067,-1.3772l0.9248,-2.827l1.6361,-0.7248h16.8589l7.3981,-17.0342l1.6361,-1.3772l1.6361,0.0724l1.9917,1.5222l7.9671,16.5993l17.0724,-0.2899l1.7073,1.0148l1.3515,1.6672l-1.3515,2.9719l-9.7455,11.5253l2.8454,17.4691l0.1422,2.7544l-1.7783,0.9423l-3.13,-0.5798l-16.361,-11.5978l-13.9424,13.0475l-3.1299,0.5799l-2.2764,-1.2323l-0.7824,-3.4068l1.6361,-16.2369z" data-paper-data="{&quot;origPos&quot;:null}" fill="url(#color-1)" stroke-width="1.43627" stroke-linecap="round"/><path d="M214.28805,174.6366l-0.9555,-1.2103l0.8281,-2.4845l1.4652,-0.637h15.0978l6.6252,-14.9704l1.4652,-1.2104l1.4652,0.0637l1.7837,1.3378l7.1348,14.5882l15.289,-0.2548l1.5289,0.8918l1.2103,1.4652l-1.2103,2.6119l-8.7275,10.1289l2.5482,15.3526l0.1274,2.4208l-1.5926,0.8281l-2.803,-0.5096l-14.6519,-10.1926l-12.4859,11.4667l-2.803,0.5096l-2.0385,-1.083l-0.7007,-2.9941l1.4651,-14.2696z" data-paper-data="{&quot;origPos&quot;:null}" fill="url(#color-2)" stroke-width="1.27408" stroke-linecap="round"/><g data-paper-data="{&quot;origPos&quot;:null}" stroke-width="2.7674"><path d="M244.15925,173.0926c0.7022,-0.0271 1.402,0.5542 1.6968,1.2711c0.5348,1.3011 0.5923,2.8523 0.5523,4.3011c-0.0275,1.3373 -0.2399,2.7198 -0.7497,3.9156c-0.2924,0.7018 -0.8196,1.512 -1.4994,1.506c-0.6547,-0.006 -1.212,-0.5121 -1.5718,-1.4217c-0.4598,-1.1506 -0.6772,-2.5301 -0.6772,-4.1505c0,-1.6205 0.1674,-2.9457 0.6772,-4.1505c0.3348,-0.7952 0.9746,-1.2982 1.5718,-1.2711z" fill="url(#color-3)" stroke-linecap="round"/><path d="M244.26845,173.9444c0.3624,0 0.6897,0.1777 0.9271,0.4638c0.2374,0.2862 0.3849,0.6808 0.3849,1.1175c0,0.4367 -0.1475,0.8313 -0.3849,1.1174c-0.2374,0.2862 -0.5647,0.4639 -0.9271,0.4639c-0.3623,0 -0.6897,-0.1777 -0.9271,-0.4639c-0.2374,-0.2861 -0.3848,-0.6807 -0.3848,-1.1174c0,-0.4367 0.1474,-0.8313 0.3848,-1.1175c0.2374,-0.2861 0.5648,-0.4638 0.9271,-0.4638z" fill="#ffffff" stroke-linecap="butt"/></g><g data-paper-data="{&quot;origPos&quot;:null}" stroke-width="2.7674"><path d="M234.90925,173.0426c0.7022,-0.0271 1.402,0.5542 1.6968,1.2711c0.5348,1.3011 0.5923,2.8523 0.5523,4.3011c-0.0275,1.3373 -0.2399,2.7198 -0.7497,3.9156c-0.2924,0.7018 -0.8196,1.512 -1.4994,1.506c-0.6547,-0.006 -1.212,-0.5121 -1.5718,-1.4217c-0.4598,-1.1506 -0.6772,-2.5301 -0.6772,-4.1505c0,-1.6205 0.1674,-2.9457 0.6772,-4.1505c0.3348,-0.7952 0.9746,-1.2982 1.5718,-1.2711z" fill="url(#color-4)" stroke-linecap="round"/><path d="M235.06845,173.8444c0.3624,0 0.6897,0.1777 0.9271,0.4638c0.2374,0.2862 0.3849,0.6808 0.3849,1.1175c0,0.4367 -0.1475,0.8313 -0.3849,1.1174c-0.2374,0.2862 -0.5647,0.4639 -0.9271,0.4639c-0.3623,0 -0.6897,-0.1777 -0.9271,-0.4639c-0.2374,-0.2861 -0.3848,-0.6807 -0.3848,-1.1174c0,-0.4367 0.1474,-0.8313 0.3848,-1.1175c0.2374,-0.2861 0.5648,-0.4638 0.9271,-0.4638z" fill="#ffffff" stroke-linecap="butt"/></g></g></g></svg>