<svg version="1.1" xmlns="http://www.w3.org/2000/svg" xmlns:xlink="http://www.w3.org/1999/xlink" width="437" height="90.79587" viewBox="0,0,437,90.79587"><defs><linearGradient x1="239.96075" y1="135.56279" x2="239.96075" y2="224.35867" gradientUnits="userSpaceOnUse" id="color-1"><stop offset="0" stop-color="#ffffff"/><stop offset="1" stop-color="#d8d8d8"/></linearGradient><linearGradient x1="239.96075" y1="135.5628" x2="239.96075" y2="224.35867" gradientUnits="userSpaceOnUse" id="color-2"><stop offset="0" stop-color="#343434"/><stop offset="1" stop-color="#090909"/></linearGradient><radialGradient cx="443.76725" cy="206.50539" r="17.9081" gradientUnits="userSpaceOnUse" id="color-3"><stop offset="0" stop-color="#ffffff"/><stop offset="1" stop-color="#e5e5e5"/></radialGradient></defs><g transform="translate(-21.46075,-134.5628)"><g data-paper-data="{&quot;isPaintingLayer&quot;:true}" fill-rule="nonzero" stroke-linejoin="miter" stroke-miterlimit="10" stroke-dasharray="" stroke-dashoffset="0" style="mix-blend-mode: normal"><path d="M22.46075,224.35867v-88.79587h435v88.79587z" data-paper-data="{&quot;origPos&quot;:null}" fill="url(#color-1)" stroke="url(#color-2)" stroke-width="2" stroke-linecap="butt"/><g data-paper-data="{&quot;origPos&quot;:null}"><path d="M444.26655,202.0594c2.5136,0 4.7909,1.0212 6.4406,2.6702c1.6489,1.6496 2.6702,3.9269 2.6702,6.4405c0,2.5136 -1.0213,4.791 -2.6702,6.4406c-1.6497,1.649 -3.927,2.6702 -6.4406,2.6702c-2.5136,0 -4.7909,-1.0212 -6.4406,-2.6702c-1.6489,-1.6496 -2.6701,-3.927 -2.6701,-6.4406c0,-2.5136 1.0212,-4.7909 2.6701,-6.4405c1.6497,-1.649 3.927,-2.6702 6.4406,-2.6702z" fill="url(#color-3)" stroke="#000000" stroke-width="2.0785" stroke-linecap="butt"/><path d="M441.23415,206.50959l5.6119,0.4503l1.7321,3.187l-3.6374,2.9446l3.3603,-0.5197l0.7967,3.4642l-7.4479,-0.0693l-1.9053,-2.4249l4.6766,-3.3256l-4.5727,-0.3464z" fill="#000000" stroke="none" stroke-width="0.69283" stroke-linecap="round"/></g><path d="M36.15288,149.58677c2.45803,0.54894 3.82426,0.86304 4.09873,0.94234v0.06404c-0.0854,2.20185 -0.14944,3.48272 -0.19212,3.84257c0.14027,0 0.77157,0.14638 1.89383,0.43914c1.00638,-3.10454 1.55227,-4.65681 1.63767,-4.65681c1.68342,0.75632 2.75384,1.2595 3.21129,1.50957v0.06403c-1.8481,4.30001 -2.89716,6.67264 -3.14724,7.11789c-0.46354,0.38425 -2.07986,1.85419 -4.84895,4.40979h-0.06405l-5.10511,-2.51596c0.46965,-0.8051 1.03688,-1.72915 1.70171,-2.77213c0.0305,0 0.82951,0.52453 2.39703,1.57362h0.06404c0.52454,-0.42696 1.15278,-1.03688 1.88469,-1.8298c0,-0.03659 -1.19547,-1.21071 -3.58639,-3.52235v-4.53789z" data-paper-data="{&quot;origPos&quot;:null}" fill="#000000" stroke="none" stroke-width="0.26458" stroke-linecap="butt"/><path d="M51.48653,152.35889c2.31773,0.62213 3.54676,1.00029 3.68703,1.13447c1.27475,1.80539 1.99142,2.84532 2.15001,3.1198c-0.82342,2.6105 -1.2961,3.91575 -1.41808,3.91575c-2.74469,0.64042 -4.18108,0.96064 -4.30916,0.96064c-2.26894,-1.32354 -3.47662,-2.06156 -3.62298,-2.21404c-0.07929,-2.46413 -0.11893,-3.82429 -0.11893,-4.08045c-0.03659,-0.07318 -0.0549,-0.12807 -0.0549,-0.16468c2.34213,-1.781 3.55285,-2.67149 3.63215,-2.67149zM51.3127,155.70742c-0.03659,0.24398 -0.09149,1.13143 -0.16468,2.66235l2.04022,0.45745c0.48794,-1.52483 0.73191,-2.33908 0.73191,-2.44277c-1.62241,-0.48794 -2.49157,-0.73192 -2.60745,-0.73192z" data-paper-data="{&quot;origPos&quot;:null}" fill="#000000" stroke="none" stroke-width="0.26458" stroke-linecap="butt"/><path d="M63.09656,152.34975l0.06405,0.11892l-1.23511,6.55066h0.06405l3.14723,-0.92403v-3.70534c0.0122,-0.08538 0.05185,-0.12806 0.11893,-0.12806c2.36653,0.16469 3.68399,0.24703 3.95236,0.24703c0,0.04268 0.02135,0.06403 0.06405,0.06403c0,1.04297 -0.32936,3.20519 -0.98809,6.48663c0,0.18906 -0.9454,0.3324 -2.83617,0.42999c-0.09759,-0.11589 -0.17994,-0.36291 -0.24702,-0.74106c-2.42142,0.49404 -3.80291,0.74106 -4.14447,0.74106c-1.93348,-1.43944 -2.90022,-2.18051 -2.90022,-2.22319c0.32936,-4.32441 0.53674,-6.56896 0.62213,-6.73364h0.0549c1.54313,-0.04268 2.96426,-0.10367 4.26342,-0.18297z" data-paper-data="{&quot;origPos&quot;:null}" fill="#000000" stroke="none" stroke-width="0.26458" stroke-linecap="butt"/><path d="M78.43936,152.35889c2.7508,0.51844 4.19023,0.81424 4.31831,0.88744v0.10977c-0.59163,1.67122 -0.88744,2.53731 -0.88744,2.5983h-0.0549c-0.15248,0 -0.89049,-0.23788 -2.21404,-0.71362c-0.73802,1.23816 -1.10703,1.89994 -1.10703,1.98532l1.82979,1.7749c1.41503,-1.32964 2.13475,-1.99447 2.15915,-1.99447c1.10397,1.44553 1.65596,2.25675 1.65596,2.43363c-0.60383,0.34766 -1.65596,1.03077 -3.15638,2.04936c-2.90327,-0.62823 -4.47079,-0.97893 -4.70256,-1.05212l-1.43638,-4.64768z" data-paper-data="{&quot;origPos&quot;:null}" fill="#000000" stroke="none" stroke-width="0.26458" stroke-linecap="butt"/><path d="M86.44471,152.34975c3.62298,0.50015 5.43449,0.80816 5.43449,0.92405c1.42724,1.22595 2.14085,1.88162 2.14085,1.96702c-0.57943,1.81149 -0.90879,2.91242 -0.9881,3.30277c0.57943,1.28696 0.90879,2.05547 0.9881,2.30554c0,0.07318 -0.9454,0.26835 -2.83618,0.58553c-0.0244,-0.10369 -0.19823,-0.33547 -0.5215,-0.69532c-2.6105,0.50015 -4.01638,0.75022 -4.21767,0.75022l-1.39064,-3.76022l3.0649,-1.61937c0.49404,0.07927 1.26561,0.11892 2.31469,0.11892c0,-0.13419 0.01829,-0.53979 0.0549,-1.21682c-0.17688,0 -1.75659,0.11589 -4.73916,0.34767l-0.0549,-0.11892c0.41475,-1.92738 0.66483,-2.89107 0.75022,-2.89107zM88.34769,157.72934c0,0.06709 0.19518,0.7807 0.58553,2.14085h0.0549c0.76852,-0.50013 1.15277,-0.82949 1.15277,-0.98808l0.11894,-0.97895c-0.14639,0 -0.78375,-0.05794 -1.91212,-0.17382z" data-paper-data="{&quot;origPos&quot;:null}" fill="#000000" stroke="none" stroke-width="0.26458" stroke-linecap="butt"/><path d="M103.02262,152.34975l3.0466,2.09512c-0.21347,3.47661 -0.36291,5.50768 -0.44831,6.0932c-0.35376,0.04268 -1.43028,0.10673 -3.22957,0.19213l-0.06404,-0.12807l-0.32022,-4.88555l-0.12809,-0.06403c-1.16497,0.25007 -1.96703,0.43915 -2.40618,0.56724c0.12198,2.07986 0.18297,3.58333 0.18297,4.51042c-1.8176,0.50624 -2.81178,0.75937 -2.98255,0.75937c-1.18327,-5.2088 -1.7749,-7.95959 -1.7749,-8.25236c2.57391,-0.33545 3.97065,-0.50319 4.19023,-0.50319v0.06403c0.04269,0.0305 0.10674,0.66481 0.19212,1.90297c2.36043,-1.56753 3.60774,-2.35128 3.74192,-2.35128z" data-paper-data="{&quot;origPos&quot;:null}" fill="#000000" stroke="none" stroke-width="0.26458" stroke-linecap="butt"/><path d="M119.74691,152.34975l3.0466,2.09512c-0.21347,3.47661 -0.36291,5.50768 -0.44831,6.0932c-0.35376,0.04268 -1.43028,0.10673 -3.22957,0.19213l-0.06404,-0.12807l-0.32022,-4.88555l-0.12809,-0.06403c-1.16497,0.25007 -1.96703,0.43915 -2.40618,0.56724c0.12198,2.07986 0.18298,3.58333 0.18298,4.51042c-1.8176,0.50624 -2.81178,0.75937 -2.98256,0.75937c-1.18327,-5.2088 -1.77491,-7.95959 -1.77491,-8.25236c2.57391,-0.33545 3.97065,-0.50319 4.19023,-0.50319v0.06403c0.04269,0.0305 0.10674,0.66481 0.19212,1.90297c2.36043,-1.56753 3.60774,-2.35128 3.74192,-2.35128z" data-paper-data="{&quot;origPos&quot;:null}" fill="#000000" stroke="none" stroke-width="0.26458" stroke-linecap="butt"/><path d="M127.3863,152.35889c2.31773,0.62213 3.54675,1.00029 3.68703,1.13447c1.27475,1.80539 1.99143,2.84532 2.15001,3.1198c-0.82341,2.6105 -1.2961,3.91575 -1.41809,3.91575c-2.74469,0.64042 -4.18109,0.96064 -4.30916,0.96064c-2.26894,-1.32354 -3.4766,-2.06156 -3.62298,-2.21404c-0.0793,-2.46413 -0.11894,-3.82429 -0.11894,-4.08045c-0.0366,-0.07318 -0.0549,-0.12807 -0.0549,-0.16468c2.34213,-1.781 3.55284,-2.67149 3.63214,-2.67149zM127.21247,155.70742c-0.0366,0.24398 -0.09148,1.13143 -0.16468,2.66235l2.04021,0.45745c0.48794,-1.52483 0.73191,-2.33908 0.73191,-2.44277c-1.62241,-0.48794 -2.49157,-0.73192 -2.60744,-0.73192z" data-paper-data="{&quot;origPos&quot;:null}" fill="#000000" stroke="none" stroke-width="0.26458" stroke-linecap="butt"/><path d="M138.07229,152.34975c0.0793,0.10369 0.491,1.87249 1.23511,5.3064h0.06405c0,-0.07927 0.45134,-0.77765 1.35404,-2.09512c0.37816,0.25616 1.09788,0.81121 2.15916,1.6651h0.12809v-0.06403c0.16468,-2.37874 0.28666,-3.69619 0.36596,-3.95235c2.51292,0.12807 3.76937,0.23176 3.76937,0.31106c-1.15277,4.63547 -1.76879,7.0447 -1.8481,7.22769c-0.38425,0.04268 -1.18936,0.16466 -2.41532,0.36595c-1.00638,-1.57971 -1.58277,-2.42142 -1.72915,-2.52511c-0.65872,1.75661 -1.07043,2.72334 -1.23511,2.90022h-2.47022c-0.15248,-0.04879 -0.8722,-1.63461 -2.15916,-4.75746c-0.82341,-1.74439 -1.23511,-2.68979 -1.23511,-2.83617c0,-0.13419 1.33881,-0.64959 4.01639,-1.54618z" data-paper-data="{&quot;origPos&quot;:null}" fill="#000000" stroke="none" stroke-width="0.26458" stroke-linecap="butt"/><path d="M156.3519,152.34975c1.49434,3.42781 2.29029,5.20577 2.38787,5.33384c0.73802,-2.79958 1.16802,-4.29086 1.29002,-4.47384c2.32994,0.21347 3.4949,0.39646 3.4949,0.54894v0.06403c-1.63461,4.48909 -2.51292,6.84037 -2.6349,7.05384c-1.8054,0.32936 -3.01305,0.53368 -3.62298,0.61298l-4.47384,-6.62385v-0.12806c0.04269,-0.07927 1.22902,-0.87525 3.55895,-2.38789z" data-paper-data="{&quot;origPos&quot;:null}" fill="#000000" stroke="none" stroke-width="0.26458" stroke-linecap="butt"/><path d="M165.76619,148.68102l3.59554,0.56723c-0.45134,1.7261 -0.74717,2.58915 -0.88744,2.58915c-1.89079,-0.12807 -2.83617,-0.25311 -2.83617,-0.3751v-2.65319c0.01829,-0.08538 0.06099,-0.12806 0.1281,-0.12806zM164.7598,153.03591h0.0549c2.78129,0.50624 4.17192,0.80205 4.17192,0.88744c-0.79901,4.52568 -1.2839,7.04775 -1.45469,7.56619h-2.90022c-0.0854,0 -0.12809,-0.04268 -0.12809,-0.12806z" data-paper-data="{&quot;origPos&quot;:null}" fill="#000000" stroke="none" stroke-width="0.26458" stroke-linecap="butt"/><path d="M177.04685,152.34975c1.7566,1.12228 2.72639,1.76881 2.90936,1.93958c-0.63433,1.40894 -0.99724,2.11341 -1.08873,2.11341l-3.33022,-1.93044h-0.11893c0,0.06097 -0.14333,0.40254 -0.42999,1.02469c3.06795,1.65292 4.60192,2.50072 4.60192,2.54341c-0.86,1.98837 -1.3449,3.03746 -1.45469,3.14724l-5.20576,0.30192c-2.02498,-1.34185 -3.1137,-2.04936 -3.26618,-2.12256v-0.05488c0,-0.15248 0.30192,-0.83866 0.90575,-2.05851l4.06213,2.11341l0.30192,-1.20767c-2.51292,-1.12837 -4.00724,-1.83284 -4.48298,-2.11341v-0.12806c0,-0.23178 0.48489,-1.25952 1.45469,-3.08321z" data-paper-data="{&quot;origPos&quot;:null}" fill="#000000" stroke="none" stroke-width="0.26458" stroke-linecap="butt"/><path d="M182.12452,148.68102l3.59554,0.56723c-0.45134,1.7261 -0.74716,2.58915 -0.88744,2.58915c-1.89079,-0.12807 -2.83617,-0.25311 -2.83617,-0.3751v-2.65319c0.01829,-0.08538 0.06099,-0.12806 0.12809,-0.12806zM181.11814,153.03591h0.0549c2.78129,0.50624 4.17192,0.80205 4.17192,0.88744c-0.79901,4.52568 -1.2839,7.04775 -1.45469,7.56619h-2.90022c-0.0854,0 -0.1281,-0.04268 -0.1281,-0.12806z" data-paper-data="{&quot;origPos&quot;:null}" fill="#000000" stroke="none" stroke-width="0.26458" stroke-linecap="butt"/><path d="M188.75753,149.58677l4.02555,0.71362l-0.38426,3.05576c0.79901,-0.04268 1.38454,-0.06404 1.75659,-0.06404h0.58554l0.12809,-0.06403l0.06405,0.12807c-0.12809,1.85419 -0.23788,2.89716 -0.32936,3.12894l-0.12809,-0.07318c-0.09149,0 -0.9149,-0.04269 -2.47022,-0.12807c-0.0854,1.43334 -0.14944,3.14726 -0.19212,5.14172l-0.1281,0.06403c-1.96397,-0.12807 -3.13503,-0.23788 -3.5132,-0.32936l0.06404,-0.25616c0,-0.53065 0.0854,-2.17747 0.25617,-4.94045c-1.64681,-0.09147 -2.47022,-0.20125 -2.47022,-0.32936c0.0854,-2.03716 0.19518,-3.05575 0.32936,-3.05575l2.40617,0.45745v-0.78681c0,-0.64044 -0.0244,-1.50653 -0.07319,-2.59831c0.04879,0 0.07319,-0.02135 0.07319,-0.06403z" data-paper-data="{&quot;origPos&quot;:null}" fill="#000000" stroke="none" stroke-width="0.26458" stroke-linecap="butt"/><path d="M207.00055,149.58677c0.13419,0.14637 1.44248,1.10397 3.9249,2.87276v0.05488c-0.50624,2.08597 -0.83866,3.27838 -0.99724,3.57725l-1.93042,1.11617c2.28724,1.65292 3.44,2.51292 3.4583,2.58001c-0.81121,0.39037 -2.06156,0.9576 -3.75107,1.70171c-1.95788,-2.67758 -2.93682,-4.04689 -2.93682,-4.10789h-0.10976c-0.04268,1.56753 -0.06403,2.64407 -0.06403,3.22959c-0.02439,0.27446 -0.08235,0.4117 -0.17383,0.4117h-2.75383c-0.12809,0 -0.32327,-1.70171 -0.58553,-5.10511c-0.12198,-0.74412 -0.29887,-2.46413 -0.53064,-5.16001c0.70753,-0.15248 2.85753,-0.54284 6.45003,-1.17107zM204.47544,152.16677v0.05488c0,0.37206 0.02135,1.70171 0.06403,3.98895h0.05489c1.48824,-0.34766 2.23235,-0.58247 2.23235,-0.70447l0.52148,-2.34213z" data-paper-data="{&quot;origPos&quot;:null}" fill="#2b70c2" stroke="none" stroke-width="0.26458" stroke-linecap="butt"/><path d="M213.83482,152.34975c3.623,0.50015 5.43448,0.80816 5.43448,0.92405c1.42723,1.22595 2.14085,1.88162 2.14085,1.96702c-0.57943,1.81149 -0.90879,2.91242 -0.98807,3.30277c0.57943,1.28696 0.90879,2.05547 0.98807,2.30554c0,0.07318 -0.94539,0.26835 -2.83617,0.58553c-0.02439,-0.10369 -0.19823,-0.33547 -0.5215,-0.69532c-2.6105,0.50015 -4.01638,0.75022 -4.21767,0.75022l-1.39063,-3.76022l3.0649,-1.61937c0.49404,0.07927 1.26561,0.11892 2.3147,0.11892c0,-0.13419 0.01829,-0.53979 0.05488,-1.21682c-0.17688,0 -1.75659,0.11589 -4.73915,0.34767l-0.05488,-0.11892c0.41476,-1.92738 0.66483,-2.89107 0.75021,-2.89107zM215.73781,157.72934c0,0.06709 0.19518,0.7807 0.58553,2.14085h0.05488c0.76852,-0.50013 1.15277,-0.82949 1.15277,-0.98808l0.11891,-0.97895c-0.14639,0 -0.78376,-0.05794 -1.91213,-0.17382z" data-paper-data="{&quot;origPos&quot;:null}" fill="#2b70c2" stroke="none" stroke-width="0.26458" stroke-linecap="butt"/><path d="M229.11358,152.37719c2.59221,0.06709 3.88831,0.17992 3.88831,0.33853c0.44525,6.75193 0.66788,10.34441 0.66788,10.77747c-1.96399,1.25035 -3.36987,2.09815 -4.21767,2.5434c-2.98866,-0.93929 -4.48299,-1.47602 -4.48299,-1.61021c0.96369,-1.40894 1.52178,-2.12256 1.67426,-2.14087c1.62851,0.80512 2.56475,1.20767 2.80873,1.20767l0.86915,-1.14363c-0.23178,-0.9454 -0.38731,-1.50348 -0.46659,-1.67425c-0.13419,0 -1.78711,0.26837 -4.95875,0.8051c-1.7383,-2.82397 -2.60744,-4.27257 -2.60744,-4.34576c1.50043,-2.39703 2.41532,-3.80291 2.74469,-4.21767h0.06403c0.17688,0 1.49432,0.28971 3.95234,0.86915v-0.20126c0,-0.23787 -0.02135,-0.61909 -0.06403,-1.14363zM226.24081,156.25635c0.08538,0.18908 0.35375,1.19548 0.80512,3.01917c0.56723,-0.18299 1.43638,-0.51844 2.60744,-1.00639c-0.22567,-1.09788 -0.3385,-1.72306 -0.3385,-1.87553l-0.32936,-0.06403h-0.40256c-0.51234,0 -1.29305,-0.02439 -2.34214,-0.07318z" data-paper-data="{&quot;origPos&quot;:null}" fill="#2b70c2" stroke="none" stroke-width="0.26458" stroke-linecap="butt"/><path d="M235.92042,148.68102l3.59554,0.56723c-0.45136,1.7261 -0.74717,2.58915 -0.88746,2.58915c-1.89077,-0.12807 -2.83617,-0.25311 -2.83617,-0.3751v-2.65319c0.01829,-0.08538 0.06098,-0.12806 0.12806,-0.12806zM234.91403,153.03591h0.05489c2.78127,0.50624 4.17192,0.80205 4.17192,0.88744c-0.79901,4.52568 -1.2839,7.04775 -1.45469,7.56619h-2.90022c-0.08538,0 -0.12806,-0.04268 -0.12806,-0.12806z" data-paper-data="{&quot;origPos&quot;:null}" fill="#2b70c2" stroke="none" stroke-width="0.26458" stroke-linecap="butt"/><path d="M247.94214,152.34975l3.0466,2.09512c-0.21347,3.47661 -0.36291,5.50768 -0.4483,6.0932c-0.35376,0.04268 -1.43029,0.10673 -3.22958,0.19213l-0.06403,-0.12807l-0.32021,-4.88555l-0.12807,-0.06403c-1.16496,0.25007 -1.96702,0.43915 -2.40617,0.56724c0.122,2.07986 0.18299,3.58333 0.18299,4.51042c-1.8176,0.50624 -2.81178,0.75937 -2.98256,0.75937c-1.18327,-5.2088 -1.7749,-7.95959 -1.7749,-8.25236c2.5739,-0.33545 3.97063,-0.50319 4.19021,-0.50319v0.06403c0.04268,0.0305 0.10673,0.66481 0.19214,1.90297c2.36043,-1.56753 3.60774,-2.35128 3.74193,-2.35128z" data-paper-data="{&quot;origPos&quot;:null}" fill="#2b70c2" stroke="none" stroke-width="0.26458" stroke-linecap="butt"/><path d="M258.71961,152.37719c2.59221,0.06709 3.88832,0.17992 3.88832,0.33853c0.44525,6.75193 0.66787,10.34441 0.66787,10.77747c-1.96397,1.25035 -3.36986,2.09815 -4.21767,2.5434c-2.98865,-0.93929 -4.48299,-1.47602 -4.48299,-1.61021c0.96369,-1.40894 1.52178,-2.12256 1.67426,-2.14087c1.62851,0.80512 2.56476,1.20767 2.80873,1.20767l0.86915,-1.14363c-0.23176,-0.9454 -0.3873,-1.50348 -0.4666,-1.67425c-0.13419,0 -1.78709,0.26837 -4.95873,0.8051c-1.73831,-2.82397 -2.60746,-4.27257 -2.60746,-4.34576c1.50043,-2.39703 2.41533,-3.80291 2.7447,-4.21767h0.06403c0.17688,0 1.49433,0.28971 3.95235,0.86915v-0.20126c0,-0.23787 -0.02135,-0.61909 -0.06403,-1.14363zM255.84684,156.25635c0.08538,0.18908 0.35375,1.19548 0.8051,3.01917c0.56723,-0.18299 1.4364,-0.51844 2.60746,-1.00639c-0.22568,-1.09788 -0.33852,-1.72306 -0.33852,-1.87553l-0.32936,-0.06403h-0.40255c-0.51235,0 -1.29305,-0.02439 -2.34214,-0.07318z" data-paper-data="{&quot;origPos&quot;:null}" fill="#2b70c2" stroke="none" stroke-width="0.26458" stroke-linecap="butt"/><path d="M278.25264,149.56846c0.03659,0.07927 0.05488,0.13723 0.05488,0.17385c-0.03659,1.81758 -0.05488,2.86971 -0.05488,3.15639l-0.11892,0.05488c-2.79959,0.07318 -4.4037,0.10977 -4.81236,0.10977l-0.05488,0.11891c0.03659,0.67703 0.05488,1.23206 0.05488,1.66511v0.28362h0.05489l3.72361,-0.45745l0.06403,0.10977v2.80873c0,0.07927 -0.03964,0.11892 -0.11891,0.11892l-3.49491,-0.40257v0.33852c0,0.76851 0.02136,1.91518 0.06404,3.44001c-0.34156,0.07927 -1.37541,0.21346 -3.10151,0.40255c-0.10978,-0.21347 -0.64348,-3.74801 -1.60108,-10.60364h0.05489z" data-paper-data="{&quot;origPos&quot;:null}" fill="#2b70c2" stroke="none" stroke-width="0.26458" stroke-linecap="butt"/><path d="M279.30478,149.59592c1.86639,0.03659 3.23568,0.05488 4.10789,0.05488c0.07927,0 0.3202,3.74498 0.72277,11.23493c-0.31107,0.07927 -1.39674,0.28056 -3.25702,0.60384c-0.09147,0 -0.39339,-2.29335 -0.90575,-6.88001c-0.04268,-0.10978 -0.26532,-1.781 -0.66788,-5.01363z" data-paper-data="{&quot;origPos&quot;:null}" fill="#2b70c2" stroke="none" stroke-width="0.26458" stroke-linecap="butt"/><path d="M286.55076,152.34975c3.62299,0.50015 5.43449,0.80816 5.43449,0.92405c1.42723,1.22595 2.14085,1.88162 2.14085,1.96702c-0.57943,1.81149 -0.90879,2.91242 -0.98808,3.30277c0.57943,1.28696 0.90879,2.05547 0.98808,2.30554c0,0.07318 -0.9454,0.26835 -2.83618,0.58553c-0.02439,-0.10369 -0.19823,-0.33547 -0.5215,-0.69532c-2.6105,0.50015 -4.01638,0.75022 -4.21767,0.75022l-1.39065,-3.76022l3.06491,-1.61937c0.49404,0.07927 1.26559,0.11892 2.31467,0.11892c0,-0.13419 0.0183,-0.53979 0.05489,-1.21682c-0.17688,0 -1.75659,0.11589 -4.73916,0.34767l-0.05489,-0.11892c0.41476,-1.92738 0.66483,-2.89107 0.7502,-2.89107zM288.45375,157.72934c0,0.06709 0.19517,0.7807 0.58552,2.14085h0.05489c0.76851,-0.50013 1.15277,-0.82949 1.15277,-0.98808l0.11891,-0.97895c-0.14639,0 -0.78375,-0.05794 -1.91212,-0.17382z" data-paper-data="{&quot;origPos&quot;:null}" fill="#2b70c2" stroke="none" stroke-width="0.26458" stroke-linecap="butt"/><path d="M305.16889,152.34975c1.48824,0.61603 2.77214,1.19547 3.85171,1.7383c-0.28057,3.62909 -0.46049,5.61442 -0.53978,5.95598c-1.7932,0.44525 -2.79655,0.66786 -3.01002,0.66786c0,-0.79291 -0.06099,-2.35738 -0.18297,-4.69342c-0.67703,0.06709 -1.01553,0.12502 -1.01553,0.17383c0,0.23178 0.03965,1.55532 0.11892,3.97065c0.03659,0 0.05489,0.02135 0.05489,0.06403c0,0.07318 -0.94234,0.27446 -2.82703,0.60384c-0.07927,-0.09757 -0.3202,-1.58275 -0.72278,-4.45554c-0.76241,0.19518 -1.14361,0.33545 -1.14361,0.42084l0.36595,3.73278c-0.07318,0.07927 -1.07651,0.39948 -3.01,0.96063c-1.12228,-3.97065 -1.82369,-6.63603 -2.10426,-7.99618c2.11647,-0.52454 3.29973,-0.78681 3.54979,-0.78681c0.28057,1.11007 0.42086,1.7505 0.42086,1.92127h0.06403c1.03078,-0.95149 1.75049,-1.59192 2.15915,-1.92127h0.06403l1.92129,1.38148h0.06403c1.20157,-1.15887 1.84199,-1.7383 1.92127,-1.7383z" data-paper-data="{&quot;origPos&quot;:null}" fill="#2b70c2" stroke="none" stroke-width="0.26458" stroke-linecap="butt"/><path d="M315.12296,152.35889c2.76298,1.42114 4.29392,2.25064 4.59278,2.48851c-0.39646,1.85419 -0.63127,2.80873 -0.70447,2.86363h-5.78214v0.10062l1.61935,2.00363l2.54342,-1.29916c0.25007,0.43305 0.60993,1.18936 1.07958,2.26894c-0.21958,0.07318 -1.82063,0.308 -4.80321,0.70447c-2.47021,-1.62851 -3.71447,-2.47631 -3.73277,-2.54341c0.39645,-3.16553 0.63128,-4.7483 0.70447,-4.7483c2.58,-1.09788 4.07432,-1.71086 4.48298,-1.83895zM314.52827,154.57294c-0.04879,0.122 -0.37205,0.60689 -0.96979,1.45469c0,0.25616 0.35985,0.38426 1.07958,0.38426c0,0.03659 0.5215,0.12502 1.56448,0.26531c0.28666,-0.39644 0.42999,-0.62822 0.42999,-0.69532c-0.09147,-0.54283 -0.2897,-0.81425 -0.59467,-0.81425z" data-paper-data="{&quot;origPos&quot;:null}" fill="#2b70c2" stroke="none" stroke-width="0.26458" stroke-linecap="butt"/><path d="M332.38705,149.58677c2.19575,1.11007 3.32412,1.6651 3.38511,1.6651c0,0.09757 -0.45745,0.97892 -1.37234,2.64406h-0.06403c-0.07318,0 -1.12531,-0.4971 -3.1564,-1.49128l-1.03383,1.38148c1.7505,0.84171 3.87611,1.91519 6.37683,3.22044c-1.13448,2.01887 -1.93958,3.36071 -2.41532,4.02554l-5.16916,0.45745c-2.36045,-1.59193 -3.60774,-2.41533 -3.74192,-2.47023v-0.06403c0,-0.17079 0.4788,-0.95456 1.43638,-2.3513h0.11892c0.37815,0.22568 1.56447,0.87526 3.55893,1.94873l1.20767,-1.37233c-3.6657,-1.86639 -5.69676,-2.92157 -6.09321,-3.16555v-0.05488c1.16496,-2.26894 1.79929,-3.41867 1.90298,-3.44917c3.03135,-0.61602 4.71782,-0.92404 5.05938,-0.92404z" data-paper-data="{&quot;origPos&quot;:null}" fill="#2b70c2" stroke="none" stroke-width="0.26458" stroke-linecap="butt"/><path d="M341.08772,152.35889c2.75079,0.51844 4.19023,0.81424 4.31831,0.88744v0.10977c-0.59163,1.67122 -0.88745,2.53731 -0.88745,2.5983h-0.05489c-0.15248,0 -0.89049,-0.23788 -2.21404,-0.71362c-0.73802,1.23816 -1.10702,1.89994 -1.10702,1.98532l1.82979,1.7749c1.41503,-1.32964 2.13476,-1.99447 2.15916,-1.99447c1.10397,1.44553 1.65596,2.25675 1.65596,2.43363c-0.60384,0.34766 -1.65598,1.03077 -3.1564,2.04936c-2.90326,-0.62823 -4.47078,-0.97893 -4.70256,-1.05212l-1.43638,-4.64768z" data-paper-data="{&quot;origPos&quot;:null}" fill="#2b70c2" stroke="none" stroke-width="0.26458" stroke-linecap="butt"/><path d="M354.27135,152.34975c1.20765,0.67703 1.94873,1.11617 2.22321,1.31746c-0.98809,2.05545 -1.51873,3.10148 -1.59193,3.13809h-0.06403l-1.30829,-1.14363l-1.54618,1.8847l0.17383,3.43084c-0.07927,0.07318 -1.08871,0.24397 -3.02831,0.51235c-0.07318,-0.52454 -0.54893,-3.09539 -1.42724,-7.71258c0,-0.07318 1.27476,-0.26226 3.82427,-0.56723c0.04268,0.04879 0.15857,0.61908 0.34765,1.71086c1.52483,-1.71391 2.32384,-2.57086 2.39703,-2.57086z" data-paper-data="{&quot;origPos&quot;:null}" fill="#2b70c2" stroke="none" stroke-width="0.26458" stroke-linecap="butt"/><path d="M358.60796,152.34975c3.62298,0.50015 5.43448,0.80816 5.43448,0.92405c1.42725,1.22595 2.14087,1.88162 2.14087,1.96702c-0.57943,1.81149 -0.9088,2.91242 -0.9881,3.30277c0.57943,1.28696 0.9088,2.05547 0.9881,2.30554c0,0.07318 -0.9454,0.26835 -2.83619,0.58553c-0.02439,-0.10369 -0.19822,-0.33547 -0.52148,-0.69532c-2.6105,0.50015 -4.01639,0.75022 -4.21767,0.75022l-1.39065,-3.76022l3.0649,-1.61937c0.49406,0.07927 1.2656,0.11892 2.31469,0.11892c0,-0.13419 0.0183,-0.53979 0.05489,-1.21682c-0.17688,0 -1.75659,0.11589 -4.73915,0.34767l-0.05489,-0.11892c0.41476,-1.92738 0.66483,-2.89107 0.75022,-2.89107zM360.51095,157.72934c0,0.06709 0.19518,0.7807 0.58554,2.14085h0.05489c0.76851,-0.50013 1.15277,-0.82949 1.15277,-0.98808l0.11891,-0.97895c-0.14639,0 -0.78377,-0.05794 -1.91214,-0.17382z" data-paper-data="{&quot;origPos&quot;:null}" fill="#2b70c2" stroke="none" stroke-width="0.26458" stroke-linecap="butt"/><path d="M367.06162,149.59592c1.86639,0.03659 3.23568,0.05488 4.10787,0.05488c0.07927,0 0.3202,3.74498 0.72278,11.23493c-0.31106,0.07927 -1.39674,0.28056 -3.25703,0.60384c-0.09147,0 -0.39339,-2.29335 -0.90575,-6.88001c-0.04268,-0.10978 -0.26531,-1.781 -0.66787,-5.01363z" data-paper-data="{&quot;origPos&quot;:null}" fill="#2b70c2" stroke="none" stroke-width="0.26458" stroke-linecap="butt"/><path d="M374.3076,152.34975c3.62298,0.50015 5.43447,0.80816 5.43447,0.92405c1.42725,1.22595 2.14086,1.88162 2.14086,1.96702c-0.57943,1.81149 -0.90879,2.91242 -0.98809,3.30277c0.57943,1.28696 0.90879,2.05547 0.98809,2.30554c0,0.07318 -0.9454,0.26835 -2.83619,0.58553c-0.02439,-0.10369 -0.19822,-0.33547 -0.52148,-0.69532c-2.6105,0.50015 -4.01639,0.75022 -4.21767,0.75022l-1.39065,-3.76022l3.0649,-1.61937c0.49406,0.07927 1.26561,0.11892 2.31469,0.11892c0,-0.13419 0.0183,-0.53979 0.05489,-1.21682c-0.17688,0 -1.7566,0.11589 -4.73915,0.34767l-0.05488,-0.11892c0.41476,-1.92738 0.66483,-2.89107 0.75022,-2.89107zM376.21057,157.72934c0,0.06709 0.19518,0.7807 0.58554,2.14085h0.05488c0.76851,-0.50013 1.15277,-0.82949 1.15277,-0.98808l0.11892,-0.97895c-0.14639,0 -0.78377,-0.05794 -1.91214,-0.17382z" data-paper-data="{&quot;origPos&quot;:null}" fill="#2b70c2" stroke="none" stroke-width="0.26458" stroke-linecap="butt"/><path d="M389.26614,152.34975h0.03659c1.62851,0.95758 2.50682,1.45773 2.63491,1.50043v0.08232c-0.42084,0.48184 -1.19547,1.31746 -2.32384,2.50682c2.21406,0.82341 3.45832,1.3205 3.73278,1.49128l-2.06767,2.55256c-1.39674,-1.19547 -2.28724,-1.94263 -2.67149,-2.2415c-0.9454,1.842 -1.53397,2.92462 -1.76574,3.24788h-0.03659c-1.7505,-0.61603 -2.70198,-0.98199 -2.85447,-1.09788v-0.04573l2.41532,-3.15638c-2.24455,-0.9271 -3.44611,-1.46993 -3.6047,-1.62852c0.98809,-1.67731 1.54312,-2.57086 1.66512,-2.68064c0.0183,0.04268 1.10397,0.78985 3.25702,2.24148c0.76242,-1.40894 1.29001,-2.33299 1.58278,-2.77213z" data-paper-data="{&quot;origPos&quot;:null}" fill="#2b70c2" stroke="none" stroke-width="0.26458" stroke-linecap="butt"/><path d="M398.38764,152.36804c0.08538,0.0122 0.12806,0.05488 0.12806,0.12806l-0.95148,5.2698c1.8176,-0.21347 2.72639,-0.38426 2.72639,-0.51233c0.34156,-2.11037 0.57638,-3.29364 0.70447,-3.54981c2.25065,0.46354 3.49794,0.73802 3.74192,0.82341c-1.31136,4.50738 -2.03108,6.85562 -2.15916,7.0447c-2.29334,1.61022 -3.58334,2.50072 -3.87001,2.6715c-0.08538,0 -1.54616,-0.35986 -4.38235,-1.07958v-0.06403c0.75022,-1.65292 1.21681,-2.47937 1.39979,-2.47937l2.79044,1.39979l1.33575,-2.28724c-1.20157,0.29887 -1.89994,0.44828 -2.09512,0.44828l-3.55894,-1.84808c0.43305,-3.97676 0.70751,-5.96513 0.8234,-5.96513z" data-paper-data="{&quot;origPos&quot;:null}" fill="#2b70c2" stroke="none" stroke-width="0.26458" stroke-linecap="butt"/><path d="M409.65917,149.92527l0.03659,0.07318c-0.60993,5.38568 -0.95148,8.21577 -1.02468,8.49024c-1.29305,-0.122 -2.11035,-0.2074 -2.45191,-0.25619v-0.03659l-0.58554,-7.64853c0.14639,-0.04879 1.48824,-0.25616 4.02555,-0.62213zM406.03617,158.67168c0.04268,0.02439 0.99419,0.09758 2.85449,0.21958l0.03659,0.07318c-0.28666,1.6834 -0.46963,2.5251 -0.54893,2.5251h-2.12256c-0.07318,0 -0.17075,-0.8417 -0.29275,-2.5251c-0.02439,0 -0.03659,-0.0732 -0.03659,-0.21958c0.07318,-0.02439 0.10976,-0.04879 0.10976,-0.07318z" data-paper-data="{&quot;origPos&quot;:null}" fill="#000000" stroke="none" stroke-width="0.26458" stroke-linecap="butt"/></g></g></svg>