<svg version="1.1" xmlns="http://www.w3.org/2000/svg" xmlns:xlink="http://www.w3.org/1999/xlink" width="95.4519" height="160.55975" viewBox="0,0,95.4519,160.55975"><defs><linearGradient x1="237.21054" y1="170.0259" x2="237.21054" y2="225.61704" gradientUnits="userSpaceOnUse" id="color-1"><stop offset="0" stop-color="#2a2a84"/><stop offset="1" stop-color="#262675"/></linearGradient><linearGradient x1="270.52581" y1="112.87397" x2="270.52581" y2="126.19732" gradientUnits="userSpaceOnUse" id="color-2"><stop offset="0" stop-color="#509b07"/><stop offset="1" stop-color="#346a00"/></linearGradient><linearGradient x1="250.79836" y1="105.45104" x2="250.79836" y2="123.46639" gradientUnits="userSpaceOnUse" id="color-3"><stop offset="0" stop-color="#509b07"/><stop offset="1" stop-color="#468904"/></linearGradient></defs><g transform="translate(-188.51588,-78.90842)"><g data-paper-data="{&quot;isPaintingLayer&quot;:true}" fill="none" fill-rule="nonzero" stroke="none" stroke-width="none" stroke-linecap="none" stroke-linejoin="miter" stroke-miterlimit="10" stroke-dasharray="" stroke-dashoffset="0" font-family="none" font-weight="none" font-size="none" text-anchor="none" style="mix-blend-mode: normal"><g data-paper-data="{&quot;origPos&quot;:null,&quot;index&quot;:null,&quot;origRot&quot;:0}" stroke="none" stroke-width="0" stroke-linecap="butt"><path d="M238.49677,174.41413c4.92788,-1.99327 13.03364,4.81755 16.68366,13.84133c3.65001,9.02378 5.772,18.14659 5.772,18.14659l-14.71953,6.15132c0,0 -7.43466,-13.41258 -10.37041,-20.67049c-3.65001,-9.02377 -2.29359,-15.47548 2.63428,-17.46876z" data-paper-data="{&quot;origRot&quot;:0,&quot;origPos&quot;:null}" fill="#64ca00"/><g data-paper-data="{&quot;origPos&quot;:null}" fill="#ffffff"><path d="M254.733,214.42617c8.53331,-3.91574 19.30848,-8.28701 22.90338,0.93371c2.60796,6.68929 -2.22115,19.93958 -11.41209,21.85715c-10.02941,2.0925 -18.6364,5.5639 -21.68066,-5.12506c-2.84252,-9.98065 1.65606,-13.75006 10.18937,-17.6658z" data-paper-data="{&quot;origRot&quot;:0,&quot;origPos&quot;:null}"/><path d="M252.63324,206.78593c6.59218,-3.01451 13.52553,-7.73963 15.43475,-2.49796c2.13584,5.86383 0.26575,6.31051 -10.62857,10.9705c-12.41066,5.30859 -13.34103,8.37938 -15.99472,2.0662c-1.54958,-3.68646 4.59636,-7.52421 11.18855,-10.53874z" data-paper-data="{&quot;origRot&quot;:0,&quot;origPos&quot;:null}"/></g></g><g data-paper-data="{&quot;origPos&quot;:null}"><path d="M261.18833,195.59802c0.33542,23.36797 -11.23027,30.01902 -24.2383,30.01902c-13.00803,0 -23.7244,-11.0783 -23.7244,-22.29354c0,-12.16666 1.12928,-21.85193 8.41177,-29.59575c5.42567,-5.76938 13.24571,-3.072 20.2802,-3.072c13.00803,0 18.94195,2.03645 19.27073,24.94228z" data-paper-data="{&quot;origPos&quot;:null}" fill="url(#color-1)" stroke="none" stroke-width="0" stroke-linecap="butt"/><path d="M261.18833,194.93584c0,0 -14.76896,2.20728 -25.18042,2.64874c-9.54981,0.40491 -19.18508,-3.75238 -19.18508,-3.75238c0,0 -0.84489,-15.22543 5.98217,-21.14578c4.46675,-3.8735 9.49009,-5.14202 15.94364,-5.3416c6.45355,-0.19958 13.47144,2.36082 16.7202,5.75234c7.67393,8.01117 5.7195,21.83867 5.7195,21.83867z" data-paper-data="{&quot;origPos&quot;:null}" fill="#64ca00" stroke="none" stroke-width="0" stroke-linecap="butt"/><path d="M249.29,171.63943c0,0 1.83311,7.54921 2.20291,12.08838c0.47498,5.83023 -0.49673,16.78467 -0.49673,16.78467" data-paper-data="{&quot;origPos&quot;:null,&quot;origRot&quot;:0}" fill="none" stroke="#2a2a84" stroke-width="10" stroke-linecap="round"/><path d="M230.86905,172.20084c0,0 1.06191,7.79088 0.97412,12.35359c-0.11275,5.86046 -2.17318,16.56179 -2.17318,16.56179" data-paper-data="{&quot;origPos&quot;:null}" fill="none" stroke="#2a2a84" stroke-width="10" stroke-linecap="round"/><path d="M226.75796,199.01931c0,-2.49904 1.89876,-4.52493 4.24102,-4.52493c2.34224,0 4.24103,2.02589 4.24103,4.52493c0,2.49904 -1.89877,4.52492 -4.24103,4.52492c-2.34224,0 -4.24102,-2.02587 -4.24102,-4.52492z" data-paper-data="{&quot;origPos&quot;:null}" fill="#ffe84f" stroke="none" stroke-width="0" stroke-linecap="butt"/><path d="M247.12322,199.01931c0,-2.49904 1.83345,-4.52493 4.09513,-4.52493c2.26167,0 4.09513,2.02589 4.09513,4.52493c0,2.49904 -1.83346,4.52492 -4.09513,4.52492c-2.26167,0 -4.09513,-2.02587 -4.09513,-4.52492z" data-paper-data="{&quot;origPos&quot;:null}" fill="#ffe84f" stroke="none" stroke-width="0" stroke-linecap="butt"/></g><g data-paper-data="{&quot;origPos&quot;:null}" stroke="none" stroke-width="0" stroke-linecap="butt"><path d="M227.21445,184.3697c-1.981,7.57441 -7.6347,21.82947 -7.6347,21.82947l-15.3867,-4.21339c0,0 0.93484,-9.31959 3.39782,-18.73685c2.46298,-9.41727 9.62865,-17.21111 14.77141,-15.86607c5.14276,1.34503 7.31515,7.56959 4.85217,16.98686z" data-paper-data="{&quot;origRot&quot;:0,&quot;origPos&quot;:null}" fill="#64ca00"/><g data-paper-data="{&quot;origPos&quot;:null}" fill="#ffffff"><path d="M223.76007,225.35994c-1.64872,10.99105 -10.62974,8.65178 -20.84466,7.86239c-9.36093,-0.72339 -15.84898,-13.2452 -14.12016,-20.21365c2.38306,-9.60552 13.62974,-6.65178 22.59465,-3.86239c8.96491,2.78939 13.90964,5.95094 12.37017,16.21365z" data-paper-data="{&quot;origRot&quot;:0,&quot;origPos&quot;:null}"/><path d="M224.94016,210.31721c-1.8224,6.60132 -3.1388,3.67514 -16.12763,0.00151c-11.40186,-3.22479 -13.31378,-3.42803 -11.94736,-9.5173c1.22144,-5.44319 8.70337,-1.64597 15.62763,0.49849c6.92426,2.14446 13.51152,5.1626 12.44736,9.0173z" data-paper-data="{&quot;origRot&quot;:0,&quot;origPos&quot;:null}"/></g></g><g data-paper-data="{&quot;origPos&quot;:null}"><path d="M283.47934,117.59732c-0.56793,3.79329 -11.88998,8.6 -20.8,8.6c-7.1797,0 -5.4,-6.75492 -5.4,-10.4c0,-3.64508 14.0703,-2.85 21.25,-2.85c7.1797,0 5.31761,2.19464 4.95,4.65z" data-paper-data="{&quot;origPos&quot;:null}" fill="url(#color-2)" stroke="none" stroke-width="0" stroke-linecap="butt"/><path d="M211.82278,161.53148c0,0 -1.43328,1.49318 -3.02061,-0.25186c-1.58733,-1.74503 -2.7373,-5.78038 -0.43955,-7.70754c2.74834,-2.30507 2.0354,-10.05796 3.62273,-8.31293c0,0 6.09713,1.30328 6.56768,4.99451c0,0 2.57164,10.65963 1.51783,12.36463c0,0 -1.50199,1.68613 -5.41789,1.40611c-2.12169,-0.15171 -2.83019,-2.49293 -2.83019,-2.49293z" data-paper-data="{&quot;origRot&quot;:0,&quot;origPos&quot;:null}" fill="#5a2c0a" stroke="none" stroke-width="0" stroke-linecap="butt"/><path d="M215.06267,119.88065c4.31396,1.0071 37.24301,-2.16822 43.0368,-1.8462c8.57182,0.47642 6.20204,8.21361 6.80713,16.77732c0.69572,9.84642 -1.61393,21.24135 -0.86702,28.05771c0.80112,7.31104 0.12903,11.14082 -5.73318,14.65359c-16.06613,0.95791 -13.23592,-2.66034 -20.62068,-5.08559c-6.25465,-2.30353 -10.69018,-4.16425 -17.4076,-9.83899c-5.09917,-4.30767 -3.89678,-7.87748 -7.07201,-12.68447c-0.97333,-1.47352 -2.12747,-2.25956 -2.322,-2.25956c-10.37042,0 -16.07143,-8.56649 -16.07143,-16.66666c0,-8.10018 3.70101,-14.66666 9.5,-14.66666c5.79899,0 9.25,3.20935 10.75,3.55952z" data-paper-data="{&quot;origPos&quot;:null}" fill="#ffdebd" stroke="none" stroke-width="0" stroke-linecap="butt"/><path d="M263.246,125.08706c0.35235,4.88885 -1.81808,9.02906 -4.84779,9.24741c-3.02971,0.21836 -5.7714,-3.56782 -6.12375,-8.45666c-0.35235,-4.88885 1.81808,-9.02905 4.84779,-9.24741c3.02971,-0.21836 5.77141,3.56782 6.12376,8.45666z" data-paper-data="{&quot;origPos&quot;:null,&quot;origRot&quot;:0}" fill="#ffffff" stroke="none" stroke-width="0" stroke-linecap="butt"/><path d="M223.20369,128.08229c0.37817,4.87747 4.5707,8.31474 2.22476,9.45528c-1.19509,0.58103 -5.78023,0.14577 -7.57599,-1.65364c-1.79576,-1.79941 -2.52265,-4.04723 -2.52265,-8.46551c0,-4.41828 -0.01669,-8.69821 2.74286,-8.8c11.61857,-0.42857 4.78949,5.05882 5.13103,9.46387z" data-paper-data="{&quot;origPos&quot;:null}" fill="#5a2c0a" stroke="none" stroke-width="0" stroke-linecap="butt"/><path d="M250.22279,130.09178c0.57094,4.86816 -1.41189,9.10142 -4.42877,9.45524c-3.01689,0.35383 -5.92541,-3.30577 -6.49635,-8.17393c-0.57094,-4.86816 1.41189,-9.10142 4.42877,-9.45524c3.01689,-0.35383 5.92541,3.30577 6.49635,8.17393z" data-paper-data="{&quot;origPos&quot;:null,&quot;origRot&quot;:0}" fill="#ffffff" stroke="none" stroke-width="0" stroke-linecap="butt"/><path d="M247.42981,126.44344c0.952,0 1.814,0.695 2.439,1.817c0.624,1.122 1.011,2.672 1.011,4.383c0,1.711 -0.387,3.261 -1.011,4.383c-0.625,1.122 -1.487,1.817 -2.439,1.817c-0.952,0 -1.814,-0.695 -2.439,-1.817c-0.624,-1.122 -1.011,-2.672 -1.011,-4.383c0,-1.711 0.387,-3.261 1.011,-4.383c0.625,-1.122 1.487,-1.817 2.439,-1.817z" data-paper-data="{&quot;origPos&quot;:null}" id="ID0.2989244391210377" fill="#000000" stroke="none" stroke-width="1" stroke-linecap="butt"/><path d="M260.42981,121.89344c0.952,0 1.814,0.695 2.439,1.817c0.624,1.122 0.775,2.904 1.011,4.383c0.083,0.539 0.233,1.323 -0.15,1.8c-0.483,0.577 -1.281,0.853 -2,1.1c-1.256,0.26 -2.748,1.037 -3.85,0.4c-0.966,-0.58 -0.89,-2.138 -0.9,-3.3c-0.013,-1.501 0.387,-3.261 1.011,-4.383c0.625,-1.122 1.487,-1.817 2.439,-1.817z" data-paper-data="{&quot;origPos&quot;:null}" id="ID0.2989244391210377" fill="#000000" stroke="none" stroke-width="1" stroke-linecap="round"/><path d="M269.3733,90.57197c2.39648,14.94461 -0.49216,15.79448 -8.52168,20.57884c-11.69967,6.97121 -27.00365,5.55994 -39.50062,10.97342c-3.28137,1.42143 -11.64483,-2.03217 -15.22084,-2.03217c-7.31398,0 -11.44089,-5.22725 -11.74313,-11.45342c-0.66666,-13.7335 6.09582,-13.78676 13.4098,-13.78676c0,0 8.04926,1.33414 10.82961,5.60456c0,0 11.19763,-18.21899 23.00151,-20.46979c15.1949,-2.89741 26.02436,-0.14688 27.74535,10.58532z" data-paper-data="{&quot;origPos&quot;:null}" fill="#64ca00" stroke="none" stroke-width="0" stroke-linecap="butt"/><path d="M266.47934,99.09732c0,5.46762 -1.46317,9.58116 -12.2,9.9c-11.33464,0.33659 -12.2,-4.43238 -12.2,-9.9c0,-5.46762 5.46212,-9.9 12.2,-9.9c6.73787,0 12.2,4.43238 12.2,9.9z" data-paper-data="{&quot;origPos&quot;:null}" fill="#ffffff" stroke="none" stroke-width="0" stroke-linecap="butt"/><path d="M283.87934,115.49732c-0.2,0.85848 -39.34284,6.5 -50.3,7.7c-5.32532,0.58322 -16.1,0.15848 -15.9,-0.7c0.73933,-3.1735 2.8049,-8.24498 7.9,-9.9c6.15716,-2 27.29511,-7.38005 43.10212,-7.1384c6.46182,0.09879 15.93721,6.8649 15.19788,10.0384z" data-paper-data="{&quot;origPos&quot;:null}" fill="url(#color-3)" stroke="none" stroke-width="0" stroke-linecap="butt"/><path d="M250.546,105.31954l-2.17216,-12.32222l5.57052,-0.56162l-0.76906,9.48246l7.48212,-1.64078l-1.31649,3.70883z" data-paper-data="{&quot;origPos&quot;:null}" fill="#64ca00" stroke="none" stroke-width="0" stroke-linecap="butt"/><path d="M263.1717,160.9276c-0.3711,2.54836 -2.84488,3.0028 -4.29052,3.39481c-4.4121,1.19644 -8.123,0.45506 -16.03884,-2.49209c-2.56287,-0.95418 -4.78299,-16.3313 1.11608,-13.14669c0,0 11.95871,4.75634 17.93009,4.41624c0,0 9.6388,-4.51103 12.62642,-4.31325c1.48172,0.09809 1.49141,3.20314 1.02397,4.7714c0,0 0.15212,4.55777 -1.92128,5.69644c-2.98176,2.14359 -5.12499,1.21005 -5.23239,1.94755z" data-paper-data="{&quot;origPos&quot;:null}" fill="#38291e" stroke="none" stroke-width="0" stroke-linecap="butt"/><path d="M274.01023,142.73243c-0.5,6.61802 1.12741,11.125 -13.25,10.875c-6.62642,-0.11523 -13,-4.25698 -13,-10.125c0,-5.86802 6.3926,-13.11026 13,-13.625c9.62741,-0.75 14.04992,2.28715 13.25,12.875z" data-paper-data="{&quot;origPos&quot;:null}" fill="#ffdebd" stroke="none" stroke-width="0" stroke-linecap="butt"/><g data-paper-data="{&quot;origPos&quot;:null}" fill="none" stroke="#f6b09a" stroke-width="3.5" stroke-linecap="round"><path d="M201.1867,126.67557c0,0 2.96332,-1.72996 6.75499,1.19948c5.43788,4.2013 2.24501,11.37195 2.24501,11.37195" data-paper-data="{&quot;origPos&quot;:null}"/><path d="M209.90099,133.38986h-6" data-paper-data="{&quot;origPos&quot;:null}"/><path d="M208.04384,139.38986h1.28571" data-paper-data="{&quot;origPos&quot;:null}"/></g><path d="M240.5925,119.44473c-1.37576,0.41027 -1.31062,0.60464 -1.97844,1.87549c-0.68894,1.31106 -2.14657,2.99951 -2.14657,2.99951c0,0 -1.45833,-3.62706 -1.45833,-6.31945c0,-1.8281 0.99336,-5.0144 3.81107,-5.65344c9.53112,-0.32089 6.69401,8.65093 6.69401,8.65093c0,0 -3.4773,-2.0232 -4.92174,-1.55303z" data-paper-data="{&quot;origPos&quot;:null}" fill="#38291e" stroke="none" stroke-width="0" stroke-linecap="butt"/><path d="M257.85329,116.63869c-1.51641,0.08916 -4.01601,3.24146 -4.01601,3.24146c0,0 -5.91454,-7.31854 3.07681,-10.49674c2.85665,-0.43291 4.94393,2.17143 5.61082,3.87354c0.98219,2.50684 0.94752,6.41595 0.94752,6.41595c0,0 -1.97313,-1.04035 -3.09287,-2.00973c-1.0854,-0.93965 -1.09566,-1.14439 -2.52627,-1.02451z" data-paper-data="{&quot;origPos&quot;:null,&quot;index&quot;:null,&quot;origRot&quot;:0}" fill="#38291e" stroke="none" stroke-width="0" stroke-linecap="butt"/></g></g></g></svg>