<svg version="1.1" xmlns="http://www.w3.org/2000/svg" xmlns:xlink="http://www.w3.org/1999/xlink" width="326.75" height="235.015"><g transform="translate(-74.25,-1.61)"><g data-paper-data="{&quot;isPaintingLayer&quot;:true}" fill="none" fill-rule="nonzero" stroke="none" stroke-width="none" stroke-linecap="none" stroke-linejoin="miter" stroke-miterlimit="10" stroke-dasharray="" stroke-dashoffset="0" font-family="none" font-weight="none" font-size="none" text-anchor="none" style="mix-blend-mode: normal"><path d="M187.16799,128.125h107.5v105.75h-107.5z" data-paper-data="{&quot;origPos&quot;:null}" id="ID0.3895764872431755" fill="#99ffff" stroke="none" stroke-width="1" stroke-linecap="butt"/><g data-paper-data="{&quot;origPos&quot;:null}" id="ID0.5081262746825814" fill="#009933" stroke="none" stroke-width="1" stroke-linecap="butt"><path d="M198.70966,170.875c3.069,0 5.851,1.247 7.864,3.261c2.014,2.013 3.261,4.795 3.261,7.864c0,3.069 -1.247,5.851 -3.261,7.864c-2.013,2.014 -4.795,3.261 -7.864,3.261c-3.069,0 -5.851,-1.247 -7.864,-3.261c-2.014,-2.013 -3.261,-4.795 -3.261,-7.864c0,-3.069 1.247,-5.851 3.261,-7.864c2.013,-2.014 4.795,-3.261 7.864,-3.261z" id="ID0.9044661819934845"/><path d="M212.85966,165.025c3.069,0 5.851,1.247 7.864,3.261c2.014,2.013 3.261,4.795 3.261,7.864c0,3.069 -1.247,5.851 -3.261,7.864c-2.013,2.014 -4.795,3.261 -7.864,3.261c-3.069,0 -5.851,-1.247 -7.864,-3.261c-2.014,-2.013 -3.261,-4.795 -3.261,-7.864c0,-3.069 1.247,-5.851 3.261,-7.864c2.013,-2.014 4.795,-3.261 7.864,-3.261z" id="ID0.9044661819934845"/><path d="M221.20966,173.625c3.069,0 5.851,1.247 7.864,3.261c2.014,2.013 3.261,4.795 3.261,7.864c0,3.069 -1.247,5.851 -3.261,7.864c-2.013,2.014 -4.795,3.261 -7.864,3.261c-3.069,0 -5.851,-1.247 -7.864,-3.261c-2.014,-2.013 -3.261,-4.795 -3.261,-7.864c0,-3.069 1.247,-5.851 3.261,-7.864c2.013,-2.014 4.795,-3.261 7.864,-3.261z" id="ID0.9044661819934845"/><path d="M244.35966,167.025c3.069,0 5.851,1.247 7.864,3.261c2.014,2.013 3.261,4.795 3.261,7.864c0,3.069 -1.247,5.851 -3.261,7.864c-2.013,2.014 -4.795,3.261 -7.864,3.261c-3.069,0 -5.851,-1.247 -7.864,-3.261c-2.014,-2.013 -3.261,-4.795 -3.261,-7.864c0,-3.069 1.247,-5.851 3.261,-7.864c2.013,-2.014 4.795,-3.261 7.864,-3.261z" id="ID0.9044661819934845"/><path d="M261.35966,168.075c3.069,0 5.851,1.247 7.864,3.261c2.014,2.013 3.261,4.795 3.261,7.864c0,3.069 -1.247,5.851 -3.261,7.864c-2.013,2.014 -4.795,3.261 -7.864,3.261c-3.069,0 -5.851,-1.247 -7.864,-3.261c-2.014,-2.013 -3.261,-4.795 -3.261,-7.864c0,-3.069 1.247,-5.851 3.261,-7.864c2.013,-2.014 4.795,-3.261 7.864,-3.261z" id="ID0.9044661819934845"/><path d="M272.45966,176.675c3.069,0 5.851,1.247 7.864,3.261c2.014,2.013 3.261,4.795 3.261,7.864c0,3.069 -1.247,5.851 -3.261,7.864c-2.013,2.014 -4.795,3.261 -7.864,3.261c-3.069,0 -5.851,-1.247 -7.864,-3.261c-2.014,-2.013 -3.261,-4.795 -3.261,-7.864c0,-3.069 1.247,-5.851 3.261,-7.864c2.013,-2.014 4.795,-3.261 7.864,-3.261z" id="ID0.9044661819934845"/><path d="M283.95966,171.225c3.069,0 5.851,1.247 7.864,3.261c2.014,2.013 3.261,4.795 3.261,7.864c0,3.069 -1.247,5.851 -3.261,7.864c-2.013,2.014 -4.795,3.261 -7.864,3.261c-3.069,0 -5.851,-1.247 -7.864,-3.261c-2.014,-2.013 -3.261,-4.795 -3.261,-7.864c0,-3.069 1.247,-5.851 3.261,-7.864c2.013,-2.014 4.795,-3.261 7.864,-3.261z" id="ID0.9044661819934845"/><path d="M187.58466,182.625h105v33.75h-105z" id="ID0.24233966739848256"/></g><path d="M190.41799,212.625h101.75v18.5h-101.75z" data-paper-data="{&quot;origPos&quot;:null}" id="ID0.07339279586449265" fill="#29cc00" stroke="none" stroke-width="1" stroke-linecap="butt"/><g data-paper-data="{&quot;origPos&quot;:null}" stroke="#c0a968" stroke-width="2" stroke-linecap="round"><path d="M251.50133,217.53646l33.6875,0.2552" data-paper-data="{&quot;origPos&quot;:null}" fill="none"/><path d="M254.81903,214.98438h28.58334" data-paper-data="{&quot;origPos&quot;:null}" fill="none"/><path d="M257.11591,193.54689l7.91146,-8.42188h8.42187l8.16667,8.16666l-0.25521,18.63021h-23.98958z" data-paper-data="{&quot;origPos&quot;:null}" fill="#995900"/><path d="M262.22007,217.02604v-4.33854" data-paper-data="{&quot;origPos&quot;:null}" fill="none"/><path d="M275.74612,217.02604v-4.08333" data-paper-data="{&quot;origPos&quot;:null}" fill="none"/><path d="M264.77216,185.38021l6.89063,7.91145l-0.25521,17.86459" data-paper-data="{&quot;origPos&quot;:null}" fill="none"/><path d="M257.62633,194.05729h23.47916" data-paper-data="{&quot;origPos&quot;:null}" fill="none"/></g><path d="M189.34437,210.00688c1.88968,-0.37794 2.61405,0.9921 2.8468,1.63986c8.21901,0.17237 16.20071,1.3116 24.47682,1.3116c3.94932,0 12.48108,-1.26408 13.86766,4.0469c0.37313,1.42919 0.93238,3.20083 0.11303,4.42985c-0.22794,0.3419 -0.48693,0.66085 -0.76484,0.96457c0.79591,0.91495 1.78836,1.93968 1.58201,3.07388c-0.93406,5.13382 -3.98985,6.10737 -8.6312,6.15147c-3.33195,0 -5.58145,0.86836 -8.68186,1.46453c-6.81403,1.31026 -14.39798,0.53547 -21.31814,0.53547c-0.64122,0 -3.5318,0.38187 -4,0c-4.90315,-3.99904 -4.6369,-14.69369 -2.29786,-20.15147l0.84641,-0.52491c0,0 -0.49029,-2.45146 1.96116,-2.94174zM225.77693,220.40362c-0.09117,0.32001 -0.20065,0.57782 -0.08963,0.4113c0.07854,-0.11782 0.09484,-0.26052 0.08963,-0.4113z" data-paper-data="{&quot;origPos&quot;:null}" fill="#16abda" stroke="none" stroke-width="0.5" stroke-linecap="butt"/><path d="M187.16799,126.125h106v106h-106z" data-paper-data="{&quot;origPos&quot;:null}" id="ID0.5801267544738948" fill="none" stroke="#995900" stroke-width="9" stroke-linecap="butt"/><text transform="translate(207,25.86)" font-size="22" xml:space="preserve" id="ID0.02884628064930439" fill="#ff0000" fill-rule="nonzero" stroke="none" stroke-width="1" stroke-linecap="butt" stroke-linejoin="miter" stroke-miterlimit="10" stroke-dasharray="" stroke-dashoffset="0" font-family="Sans Serif" font-weight="400" text-anchor="start" style="mix-blend-mode: normal"><tspan x="0" dy="0">WIP</tspan></text><text transform="translate(76,55.01)" font-size="22" xml:space="preserve" data-paper-data="{&quot;origPos&quot;:null}" id="ID0.826193920802325" fill="#ff0000" fill-rule="nonzero" stroke="none" stroke-width="1" stroke-linecap="butt" stroke-linejoin="miter" stroke-miterlimit="10" stroke-dasharray="" stroke-dashoffset="0" font-family="Sans Serif" font-weight="400" text-anchor="start" style="mix-blend-mode: normal"><tspan x="0" dy="0">The level "Dk's Jungle Hideout"</tspan><tspan x="0" dy="24.86px">is unfinished and not meant</tspan><tspan x="0" dy="24.86px">for normal play.</tspan></text></g></g></svg>