<svg version="1.1" xmlns="http://www.w3.org/2000/svg" xmlns:xlink="http://www.w3.org/1999/xlink" width="585.6417" height="504.90619" viewBox="0,0,585.6417,504.90619"><defs><radialGradient cx="-0.24024" cy="180.00006" r="180.93093" gradientUnits="userSpaceOnUse" id="color-1"><stop offset="0" stop-color="#ececec"/><stop offset="1" stop-color="#616161"/></radialGradient><linearGradient x1="-17.88288" y1="180.00006" x2="17.40241" y2="180.00006" gradientUnits="userSpaceOnUse" id="color-2"><stop offset="0" stop-color="#ececec" stop-opacity="0"/><stop offset="1" stop-color="#ececec"/></linearGradient><radialGradient cx="478.73874" cy="180.00006" r="180.93093" gradientUnits="userSpaceOnUse" id="color-3"><stop offset="0" stop-color="#ececec"/><stop offset="1" stop-color="#616161"/></radialGradient><linearGradient x1="496.38138" y1="180.00006" x2="461.09609" y2="180.00006" gradientUnits="userSpaceOnUse" id="color-4"><stop offset="0" stop-color="#ececec" stop-opacity="0"/><stop offset="1" stop-color="#ececec"/></linearGradient><linearGradient x1="239.11201" y1="-60.2163" x2="239.11201" y2="47.89181" gradientUnits="userSpaceOnUse" id="color-5"><stop offset="0" stop-color="#888888"/><stop offset="1" stop-color="#888888" stop-opacity="0"/></linearGradient><linearGradient x1="290.72478" y1="-83.40269" x2="278.58032" y2="24.02114" gradientUnits="userSpaceOnUse" id="color-6"><stop offset="0" stop-color="#888888"/><stop offset="1" stop-color="#888888" stop-opacity="0"/></linearGradient><linearGradient x1="188.49022" y1="-83.40269" x2="200.63468" y2="24.02114" gradientUnits="userSpaceOnUse" id="color-7"><stop offset="0" stop-color="#888888"/><stop offset="1" stop-color="#888888" stop-opacity="0"/></linearGradient></defs><g transform="translate(53.21335,110.72772)"><g data-paper-data="{&quot;isPaintingLayer&quot;:true}" fill-rule="nonzero" stroke-linecap="butt" stroke-linejoin="miter" stroke-miterlimit="10" stroke-dasharray="" stroke-dashoffset="0" style="mix-blend-mode: normal"><path d="M15.93695,330.12302v-36c0,0 156.00298,21 231,21c74.33036,0 217,-21 217,-21v36z" fill="#674521" stroke="#674521" stroke-width="7"/><path d="M-16.006,51.05111v-126.12613h512.01201v126.12613h-106.64926l-85.45593,71.5h-129l-84.54407,-71.5z" fill="#e9e9e9" stroke="none" stroke-width="NaN"/><g><path d="M69.68402,358.21599v-25.91041h130.29661v25.91041z" fill="#674521" stroke="#4b3318" stroke-width="7"/><path d="M108.25181,390.67847v-25.91041h130.29661v25.91042z" fill="#805c39" stroke="#674521" stroke-width="7"/><path d="M-25.66697,358.21599v-25.91041h94.30862v25.91041z" fill="#674521" stroke="#4b3318" stroke-width="7"/><path d="M-35.09918,390.67847v-25.91041h142.30862v25.91042z" fill="#805c39" stroke="#674521" stroke-width="7"/><path d="M201.81615,358.21599v-25.91041h130.29661v25.91041z" fill="#674521" stroke="#4b3318" stroke-width="7"/><path d="M240.38394,390.67847v-25.91041h130.29661v25.91042z" fill="#805c39" stroke="#674521" stroke-width="7"/><path d="M333.94829,358.21599v-25.91041h130.29661v25.91041z" fill="#674521" stroke="#4b3318" stroke-width="7"/><path d="M372.51608,390.67847v-25.91041h130.29661v25.91042z" fill="#805c39" stroke="#674521" stroke-width="7"/><g><path d="M-18.42121,293.5888v-25.91041h142.30862v25.91041z" fill="#674521" stroke="#4b3318" stroke-width="7"/><path d="M32.1586,326.05127v-25.91041h130.29661v25.91041z" fill="#805c39" stroke="#674521" stroke-width="7"/><g stroke="none"><g fill="none" stroke-width="1" font-family="sans-serif" font-weight="normal" font-size="12" text-anchor="start"/><g fill="#cc1919" stroke-width="NaN"><path d="M151.89846,326.43944v-10.28539h11.9965v10.28539z" stroke-width="NaN"/></g><g fill="#cc1919"><path d="M139.56325,315.68003v-10.28539h11.9965v10.28539z" stroke-width="NaN"/><path d="M127.35254,305.39466v-10.28539h11.9965v10.28539z" stroke-width="NaN"/><path d="M115.01733,295.1135v-10.28539h11.9965v10.28539z" stroke-width="NaN"/><path d="M102.80661,284.82806v-10.28539h11.9965v10.28539z" stroke-width="NaN"/></g><g fill="#cc1919" stroke-width="NaN"><path d="M90.47141,274.5469v-10.28539h11.99649v10.28539z" stroke-width="NaN"/></g></g><path d="M164.75194,326.81811l-112.19337,-93.94925h37.54054l112.4231,94.03034z" fill="#cc1919" stroke="none" stroke-width="0"/><path d="M-10.26126,233.0331h99.73574v31h-99.73573z" data-paper-data="{&quot;index&quot;:null}" fill="#cc1919" stroke="none" stroke-width="1"/></g><g data-paper-data="{&quot;index&quot;:null}"><path d="M356.00939,293.5888v-25.91041h142.30862v25.91041z" fill="#674521" stroke="#4b3318" stroke-width="7"/><path d="M317.44159,326.05127v-25.91041h130.29661v25.91041z" fill="#805c39" stroke="#674521" stroke-width="7"/><g stroke="none"><g fill="none" stroke-width="1" font-family="sans-serif" font-weight="normal" font-size="12" text-anchor="start"/><g fill="#cc1919" stroke-width="NaN"><path d="M316.00184,326.43944v-10.28539h11.9965v10.28539z" stroke-width="NaN"/></g><g fill="#cc1919"><path d="M328.33705,315.68003v-10.28539h11.9965v10.28539z" stroke-width="NaN"/><path d="M340.54776,305.39466v-10.28539h11.9965v10.28539z" stroke-width="NaN"/><path d="M352.88297,295.1135v-10.28539h11.9965v10.28539z" stroke-width="NaN"/><path d="M365.09369,284.82806v-10.28539h11.9965v10.28539z" stroke-width="NaN"/></g><g fill="#cc1919" stroke-width="NaN"><path d="M377.4289,274.5469v-10.28539h11.99649v10.28539z" stroke-width="NaN"/></g></g><path d="M277.37459,326.89923l112.4231,-94.03035h37.54054l-112.19337,93.94925z" fill="#cc1919" stroke="none" stroke-width="0"/><path d="M490.15805,264.0331h-99.73573v-31h99.73574z" data-paper-data="{&quot;index&quot;:null}" fill="#cc1919" stroke="none" stroke-width="1"/></g><path d="M164.14414,306.1307h151.21172v31h-151.21171z" data-paper-data="{&quot;index&quot;:null}" fill="#cc1919" stroke="none" stroke-width="1"/></g><path d="M38.04806,175.31182v0h-22.52252v0z" fill="#ececec" stroke="none" stroke-width="0"/><path d="M-6,18.67717h487v31h-487z" data-paper-data="{&quot;origPos&quot;:null,&quot;index&quot;:null}" fill="#ececec" stroke="none" stroke-width="1"/><g data-paper-data="{&quot;index&quot;:null}" stroke="none" stroke-width="0"><path d="M-17.88288,360.931v-361.86186h35.28529v361.86186z" fill="url(#color-1)"/><path d="M-17.88288,360.931v-361.86186h35.28529v361.86186z" fill="url(#color-2)"/></g><g data-paper-data="{&quot;index&quot;:null}" stroke="none" stroke-width="0"><path d="M461.09609,360.931v-361.86186h35.28529v361.86186z" fill="url(#color-3)"/><path d="M461.09609,360.931v-361.86186h35.28529v361.86186z" fill="url(#color-4)"/></g><path d="M-4.13123,47.89181v-108.10811h486.48649v108.10811z" fill="url(#color-5)" stroke="none" stroke-width="0"/><path d="M36.87674,-3.3039l12.14446,-107.42381l483.40715,54.65007l-12.14446,107.42381z" fill="url(#color-6)" stroke="none" stroke-width="0"/><path d="M-41.06889,51.34617l-12.14446,-107.42381l483.40715,-54.65007l12.14446,107.42382z" data-paper-data="{&quot;index&quot;:null}" fill="url(#color-7)" stroke="none" stroke-width="0"/><path d="M305.5,72.17722v50.5h-43.5v-50.5z" data-paper-data="{&quot;index&quot;:null}" fill="#616161" stroke="none" stroke-width="0"/><path d="M131.86014,36.21323v50.5l-43.5,-37.53754v-50.5z" data-paper-data="{&quot;origPos&quot;:null,&quot;index&quot;:null}" fill="#616161" stroke="none" stroke-width="0"/><path d="M391.85715,-1.32429v50.5l-43.5,37.53754v-50.5z" data-paper-data="{&quot;origPos&quot;:null,&quot;index&quot;:null}" fill="#616161" stroke="none" stroke-width="0"/><path d="M174.89918,22.69073v50.5l-43.5,-37.53754v-50.5z" data-paper-data="{&quot;index&quot;:null}" fill="#616161" stroke="none" stroke-width="0"/><path d="M348.85715,-15.32429v50.5l-43.5,37.53754v-50.5z" data-paper-data="{&quot;index&quot;:null}" fill="#616161" stroke="none" stroke-width="0"/><path d="M218,72.17722v50.5h-43.5v-50.5z" data-paper-data="{&quot;index&quot;:null}" fill="#616161" stroke="none" stroke-width="0"/><path d="M262,21.67722v50.5h-43.5v-50.5z" data-paper-data="{&quot;index&quot;:null}" fill="#616161" stroke="none" stroke-width="0"/><path d="M305.5,-27.82279v50.5h-43.5v-50.5z" data-paper-data="{&quot;index&quot;:null}" fill="#616161" stroke="none" stroke-width="0"/><path d="M218,-27.82279v50.5h-43.5v-50.5z" data-paper-data="{&quot;index&quot;:null}" fill="#616161" stroke="none" stroke-width="0"/><path d="M480.16967,-1.80177l-19.51952,52.0015h-26.98348v-52.0015z" data-paper-data="{&quot;index&quot;:null}" fill="#616161" stroke="none" stroke-width="0"/><path d="M46.23574,-1.80178v52.0015h-28.48497l-18.01803,-52.0015z" data-paper-data="{&quot;index&quot;:null}" fill="#616161" stroke="none" stroke-width="0"/></g></g></svg>