<svg xmlns="http://www.w3.org/2000/svg" xmlns:xlink="http://www.w3.org/1999/xlink" version="1.1" width="23.899999618530273" height="25.350000381469727" viewBox="-0.2704000025987625 -0.3927000015974045 23.899999618530273 25.350000381469727">
  <defs>
    <radialGradient id="grad_1" cx="0.35600000000000004" cy="0.1745" r="1.07315">
      <stop offset="0" stop-color="#BDA001" stop-opacity="1"/>
      <stop offset="1" stop-color="#BE7800" stop-opacity="1"/>
    </radialGradient>
    <radialGradient id="grad_2" cx="0.2347" cy="0.1814" r="1.0641800000000001">
      <stop offset="0" stop-color="#FFFF00" stop-opacity="1"/>
      <stop offset="1" stop-color="#FF9400" stop-opacity="1"/>
    </radialGradient>
    <radialGradient id="grad_3" cx="0.2173" cy="0.172" r="1.0764">
      <stop offset="0" stop-color="#BDA501" stop-opacity="1"/>
      <stop offset="1" stop-color="#C07801" stop-opacity="1"/>
    </radialGradient>
  <radialGradient id="grad_1-.3964497148990631,0,0,0.4802761375904083,-83,-75.05" cx="12.0519" cy="4.3289" r="22.1675" gradientUnits="userSpaceOnUse">
      <stop offset="0" stop-color="#BDA001" stop-opacity="1"/>
      <stop offset="1" stop-color="#BE7800" stop-opacity="1"/>
    </radialGradient><radialGradient id="grad_2-.3964497148990631,0,0,0.4802761375904083,-85.80000000000001,-75.2" cx="4.9471" cy="4.5244" r="23.7593" gradientUnits="userSpaceOnUse">
      <stop offset="0" stop-color="#FFFF00" stop-opacity="1"/>
      <stop offset="1" stop-color="#FF9400" stop-opacity="1"/>
    </radialGradient><radialGradient id="grad_3-.6960523724555969,0,0,0.4802761375904083,-157.6,-75.1" cx="8.6865" cy="6.0168" r="17.7348" gradientUnits="userSpaceOnUse">
      <stop offset="0" stop-color="#BDA501" stop-opacity="1"/>
      <stop offset="1" stop-color="#C07801" stop-opacity="1"/>
    </radialGradient></defs>
  <!-- Exported by Scratch - http://scratch.mit.edu/ -->
  <g id="ID0.26823286805301905">
    <path id="ID0.7142658131197095" fill="url(#grad_1-.3964497148990631,0,0,0.4802761375904083,-83,-75.05)" stroke="none" d="M 13.2976 0.4254 C 15.7433 0.7477 18.4194 1.6799 20.184 3.8258 C 21.9918 6.024 23.1296 9.0732 23.1296 12.4323 C 23.1296 15.7913 22.0473 18.9107 20.184 21.0388 C 18.3032 23.1871 15.3762 23.4181 12.8615 24.127 C 11.9723 24.3772 11.0906 24.0819 10.245 23.9349 C 9.2558 23.7447 7.6355 24.845 7.3707 23.1184 C 6.3106 16.2121 5.0586 8.7111 6.776 2.0343 C 7.4353 -0.5289 11.0783 0.1243 13.2976 0.4254 Z " stroke-width="0.4403620923639484"/>
    <path id="ID0.7142658131197095" fill="url(#grad_2-.3964497148990631,0,0,0.4802761375904083,-85.80000000000001,-75.2)" stroke="none" d="M 10.2796 0.1073 C 13.0524 0.1073 15.5647 1.4718 17.384 3.6758 C 19.2033 5.8797 20.3296 8.9232 20.3296 12.2823 C 20.3296 15.6413 19.2033 18.6849 17.384 20.8888 C 15.5647 23.0928 13.0524 24.4573 10.2796 24.4573 C 7.5068 24.4573 4.9945 23.0928 3.1752 20.8888 C 1.3559 18.6849 0.2296 15.6413 0.2296 12.2823 C 0.2296 8.9232 1.3559 5.8797 3.1752 3.6758 C 4.9945 1.4718 7.5068 0.1073 10.2796 0.1073 Z " stroke-width="0.4403620923639484"/>
    <path id="ID0.06001657713204622" fill="url(#grad_3-.6960523724555969,0,0,0.4802761375904083,-157.6,-75.1)" stroke="none" d="M 7.6428 2.8488 L 12.4456 2.8488 L 12.4456 21.2674 L 7.6428 21.2674 L 7.6428 2.8488 Z " stroke-width="0.59797745506826"/>
  </g>
</svg>