<svg version="1.1" xmlns="http://www.w3.org/2000/svg" xmlns:xlink="http://www.w3.org/1999/xlink" width="441.55828" height="69.66968" viewBox="0,0,441.55828,69.66968"><defs><linearGradient x1="24.5327" y1="284.2076" x2="24.5327" y2="341.819" gradientUnits="userSpaceOnUse" id="color-1"><stop offset="0" stop-color="#ffffff"/><stop offset="1" stop-color="#ffffff"/></linearGradient><radialGradient cx="433.55778" cy="324.91029" r="18.72682" gradientUnits="userSpaceOnUse" id="color-2"><stop offset="0" stop-color="#ffff00"/><stop offset="1" stop-color="#ff9400"/></radialGradient><radialGradient cx="437.13623" cy="326.02495" r="12.81669" gradientUnits="userSpaceOnUse" id="color-3"><stop offset="0" stop-color="#bda501"/><stop offset="1" stop-color="#c07801"/></radialGradient></defs><g transform="translate(-18.50356,-278.17846)"><g data-paper-data="{&quot;isPaintingLayer&quot;:true}" fill="none" fill-rule="nonzero" stroke="none" stroke-width="none" stroke-linecap="butt" stroke-linejoin="miter" stroke-miterlimit="10" stroke-dasharray="" stroke-dashoffset="0" font-family="none" font-weight="none" font-size="none" text-anchor="none" style="mix-blend-mode: normal"><path d="M24.5327,284.2076h429.5v57.6114h-429.5z" data-paper-data="{&quot;origPos&quot;:null}" id="ID0.3184669064357877" fill="#ffffff" stroke="url(#color-1)" stroke-width="12.05828"/><text transform="translate(25.78827,322.12447) scale(0.7218,0.72179)" font-size="22" xml:space="preserve" data-paper-data="{&quot;origPos&quot;:null}" id="ID0.08681221166625619" fill="#2492d1" fill-rule="nonzero" stroke="none" stroke-width="1" stroke-linecap="butt" stroke-linejoin="miter" stroke-miterlimit="10" stroke-dasharray="" stroke-dashoffset="0" font-family="Sans Serif" font-weight="400" text-anchor="start" style="mix-blend-mode: normal"><tspan x="0" dy="0">Complete Grand Tree Scralaxy.</tspan></text><g stroke="none"><text transform="translate(283,338.98128) scale(0.60677,0.60677)" font-size="40" xml:space="preserve" data-paper-data="{&quot;origPos&quot;:null}" fill="#2392d1" fill-rule="nonzero" stroke="none" stroke-width="1" stroke-linecap="butt" stroke-linejoin="miter" stroke-miterlimit="10" stroke-dasharray="" stroke-dashoffset="0" font-family="Sans Serif" font-weight="normal" text-anchor="start" style="mix-blend-mode: normal"><tspan x="0" dy="0">Reward: +15</tspan></text><path d="M438.22633,321.71811c2.42757,0 4.62707,0.98611 6.21986,2.5789c1.5928,1.59272 2.57884,3.79221 2.57884,6.21979c0,2.4275 -0.98603,4.62709 -2.57884,6.21981c-1.5928,1.5928 -3.79229,2.5789 -6.21986,2.5789c-2.4275,0 -4.62699,-0.98611 -6.2198,-2.5789c-1.5928,-1.59272 -2.5789,-3.79231 -2.5789,-6.21981c0,-2.42757 0.98611,-4.62706 2.5789,-6.21979c1.5928,-1.5928 3.7923,-2.5789 6.2198,-2.5789z" data-paper-data="{&quot;origPos&quot;:null}" id="ID0.7142658131197095" fill="url(#color-2)" stroke-width="0.48028"/><path d="M436.38196,323.73549h3.47092v13.31086h-3.47092z" data-paper-data="{&quot;origPos&quot;:null}" id="ID0.06001657713204622" fill="url(#color-3)" stroke-width="0.59798"/></g><g data-paper-data="{&quot;origPos&quot;:null}" fill="#2392d1" stroke="none"><path d="M36.98402,285.6301c3.53308,0.4243 5.37307,0.68949 5.51994,0.79556v0.08566l-0.63645,14.7239l-0.17135,0.07342c-0.8486,0 -2.2602,0.08159 -4.23481,0.24478c-0.10608,-0.31821 -0.15912,-1.01178 -0.15912,-2.08069v-1.76245l-0.08568,-0.47734c0,-0.05711 0.02856,-0.08566 0.08568,-0.08566l-0.08568,-0.55077v-1.44424c-1.42792,0 -2.83952,0.05302 -4.2348,0.15908l0.31822,5.44649c-0.41613,0.10606 -1.8563,0.37123 -4.32049,0.79554c-0.1224,0 -0.52222,-3.03942 -1.19946,-9.11829c-0.05712,-0.13871 -0.35086,-2.35403 -0.88123,-6.64595c2.47234,0.05711 4.28784,0.08566 5.44649,0.08566c0.1224,0 0.25295,1.91748 0.39166,5.75248h4.40615v-0.79555c0,-0.19583 -0.02856,-0.43653 -0.08568,-0.72212c0,-0.04895 0.02856,-0.07342 0.08568,-0.07342l-0.08568,-0.4039v-1.83589c0,-0.45695 -0.02448,-1.17906 -0.07344,-2.16636z" data-paper-data="{&quot;origPos&quot;:null}" id="path22" stroke-width="0.26459"/><path d="M48.67257,289.3386c3.10063,0.83227 4.74477,1.33817 4.93244,1.51769c1.70534,2.41523 2.6641,3.80643 2.87624,4.17361c-1.10154,3.49228 -1.73391,5.23843 -1.8971,5.23843c-3.6718,0.85675 -5.59336,1.28512 -5.76471,1.28512c-3.03535,-1.77062 -4.65094,-2.75791 -4.84677,-2.96191c-0.10608,-3.29645 -0.15912,-5.11602 -0.15912,-5.45873c-0.04896,-0.09789 -0.07345,-0.17133 -0.07345,-0.22031c3.13326,-2.38259 4.75293,-3.5739 4.85901,-3.5739zM48.44002,293.8182c-0.04896,0.32639 -0.12239,1.5136 -0.2203,3.56164l2.72936,0.61196c0.65277,-2.03988 0.97915,-3.12918 0.97915,-3.26789c-2.17044,-0.65276 -3.33317,-0.97914 -3.48821,-0.97914z" data-paper-data="{&quot;origPos&quot;:null}" id="path24" stroke-width="0.26459"/><path d="M68.46355,289.32637l4.0757,2.8028c-0.28558,4.65094 -0.4855,7.36807 -0.59973,8.15139c-0.47325,0.05711 -1.91342,0.14279 -4.32049,0.25704l-0.08568,-0.17132l-0.42837,-6.53581l-0.17136,-0.08566c-1.55847,0.33454 -2.63145,0.58747 -3.21894,0.75883c0.1632,2.78241 0.24478,4.79374 0.24478,6.03399c-2.43154,0.67723 -3.76155,1.01585 -3.99002,1.01585c-1.58295,-6.96825 -2.37443,-10.64819 -2.37443,-11.03985c3.44333,-0.44878 5.31187,-0.67318 5.60562,-0.67318v0.08566c0.05712,0.04079 0.14279,0.88938 0.25702,2.54577c3.15774,-2.097 4.82637,-3.1455 5.00588,-3.1455z" data-paper-data="{&quot;origPos&quot;:null}" id="path26" stroke-width="0.26459"/><path d="M80.69063,289.3386c3.69628,1.90118 5.74432,3.01089 6.14413,3.3291c-0.53037,2.48051 -0.84451,3.75748 -0.94242,3.83091h-7.73525v0.13461l2.16637,2.68042l3.40253,-1.73799c0.33455,0.57934 0.81595,1.59112 1.44423,3.03535c-0.29375,0.09789 -2.43563,0.41204 -6.42565,0.94243c-3.30461,-2.17859 -4.96915,-3.31276 -4.99363,-3.40251c0.53037,-4.2348 0.84451,-6.35221 0.94243,-6.35221c3.45149,-1.46871 5.45058,-2.28875 5.99727,-2.46011zM79.89506,292.30054c-0.06528,0.16318 -0.49772,0.81186 -1.29736,1.94604c0,0.34271 0.48141,0.51405 1.44423,0.51405c0,0.04895 0.69764,0.16727 2.09293,0.35496c0.3835,-0.53037 0.57524,-0.84044 0.57524,-0.93019c-0.1224,-0.7262 -0.38758,-1.08931 -0.79555,-1.08931z" data-paper-data="{&quot;origPos&quot;:null}" id="path28" stroke-width="0.26459"/><path d="M93.57863,289.35087c0.11424,0.01632 0.17135,0.07342 0.17135,0.17131l-1.27289,7.04986c2.43154,-0.28559 3.64732,-0.51405 3.64732,-0.68541c0.45693,-2.82319 0.77107,-4.40614 0.94242,-4.74885c3.01087,0.62013 4.6795,0.9873 5.00589,1.10153c-1.7543,6.02992 -2.71713,9.17133 -2.88847,9.42427c-3.06798,2.15412 -4.79373,3.34542 -5.17723,3.57389c-0.11424,0 -2.06847,-0.48142 -5.86264,-1.44424v-0.08566c1.00362,-2.21123 1.62783,-3.31686 1.87262,-3.31686l3.73299,1.87261l1.78694,-3.05982c-1.60743,0.39983 -2.5417,0.59973 -2.8028,0.59973l-4.76109,-2.47235c0.57932,-5.32002 0.9465,-7.98003 1.10153,-7.98003z" data-paper-data="{&quot;origPos&quot;:null}" id="path30" stroke-width="0.26459"/><path d="M108.08222,289.3386c3.67996,0.69356 5.60561,1.0893 5.77696,1.18723v0.14685c-0.79148,2.23571 -1.18721,3.39436 -1.18721,3.47596h-0.07344c-0.20399,0 -1.19129,-0.31822 -2.96191,-0.95466c-0.98731,1.65639 -1.48096,2.5417 -1.48096,2.65594l2.44787,2.37441c1.89301,-1.77877 2.85584,-2.66816 2.88848,-2.66816c1.47688,1.93381 2.21532,3.01903 2.21532,3.25565c-0.80779,0.4651 -2.21532,1.37896 -4.22257,2.7416c-3.88395,-0.84044 -5.98095,-1.3096 -6.29101,-1.40751l-1.92157,-6.21758z" data-paper-data="{&quot;origPos&quot;:null}" id="path32" stroke-width="0.26459"/><path d="M116.93124,285.64234c2.49683,0.04895 4.32864,0.07342 5.49546,0.07342c0.10608,0 0.42837,5.00996 0.9669,15.02989c-0.41613,0.10606 -1.86853,0.37531 -4.35719,0.80778c-0.1224,0 -0.52629,-3.06798 -1.21169,-9.20396c-0.05712,-0.14688 -0.35495,-2.38258 -0.89347,-6.70714z" data-paper-data="{&quot;origPos&quot;:null}" id="path34" stroke-width="0.26459"/><path d="M126.45344,284.4184l4.81005,0.75885c-0.6038,2.30915 -0.99955,3.46373 -1.18722,3.46373c-2.52946,-0.17136 -3.79418,-0.33864 -3.79418,-0.50182v-3.5494c0.02447,-0.11421 0.08159,-0.17132 0.17136,-0.17132zM125.1071,290.24432h0.07345c3.72075,0.67725 5.58113,1.07298 5.58113,1.18721c-1.0689,6.05439 -1.71759,9.42836 -1.94605,10.12192h-3.87987c-0.11424,0 -0.17136,-0.0571 -0.17136,-0.17131z" data-paper-data="{&quot;origPos&quot;:null}" id="path36" stroke-width="0.26459"/><path d="M145.26528,289.32637c1.99093,0.82412 3.7085,1.59928 5.15275,2.32549c-0.37534,4.85492 -0.61605,7.51084 -0.72212,7.96779c-2.39891,0.59564 -3.74115,0.89346 -4.02674,0.89346c0,-1.06074 -0.08159,-3.15366 -0.24478,-6.27877c-0.90571,0.08974 -1.35856,0.16727 -1.35856,0.23257c0,0.31006 0.05303,2.08067 0.1591,5.31185c0.04896,0 0.07344,0.02855 0.07344,0.08566c0,0.09789 -1.26066,0.36716 -3.78195,0.8078c-0.10607,-0.13053 -0.42837,-2.11738 -0.9669,-5.96055c-1.01995,0.26111 -1.52992,0.44877 -1.52992,0.563l0.48958,4.99365c-0.0979,0.10606 -1.44016,0.53443 -4.02674,1.28512c-1.50135,-5.31185 -2.43971,-8.87758 -2.81504,-10.69716c2.83136,-0.70173 4.41431,-1.05258 4.74885,-1.05258c0.37534,1.48503 0.56301,2.34178 0.56301,2.57025h0.08568c1.37896,-1.27288 2.34179,-2.12964 2.88849,-2.57024h0.08568l2.57026,1.84814h0.08568c1.60743,-1.55032 2.46418,-2.32549 2.57026,-2.32549z" data-paper-data="{&quot;origPos&quot;:null}" id="path38" stroke-width="0.26459"/><path d="M157.34112,285.00539l0.08511,0.15806c0,0.46199 0.10535,2.24919 0.3161,5.36158c2.90165,-0.92399 4.52674,-1.41031 4.87527,-1.45893l4.37679,4.70505c-1.83987,4.12553 -2.84087,6.31395 -3.00297,6.56519c-0.51063,-0.05674 -2.37483,-0.13779 -5.59258,-0.24315v0.57141c0,0.10538 -0.05674,0.15806 -0.17022,0.15806h-4.70505c-0.17022,0 -0.49441,-2.43154 -0.97261,-7.29466c-0.10538,-0.41337 -0.40121,-2.84897 -0.88753,-7.30683c2.75576,-0.64842 4.64831,-1.05367 5.67769,-1.21578zM158.15569,293.9292l0.3161,3.00297h2.44372l0.88753,-3.40418c-2.43154,0.21074 -3.64733,0.34447 -3.64733,0.40121z" data-paper-data="{&quot;origPos&quot;:null}" id="path789" stroke-width="0.26458"/></g></g></g></svg>