<svg version="1.1" xmlns="http://www.w3.org/2000/svg" xmlns:xlink="http://www.w3.org/1999/xlink" width="441.55828" height="69.66968" viewBox="0,0,441.55828,69.66968"><defs><linearGradient x1="24.5327" y1="284.2076" x2="24.5327" y2="341.819" gradientUnits="userSpaceOnUse" id="color-1"><stop offset="0" stop-color="#ffffff"/><stop offset="1" stop-color="#ffffff"/></linearGradient><radialGradient cx="433.55778" cy="324.91029" r="18.72682" gradientUnits="userSpaceOnUse" id="color-2"><stop offset="0" stop-color="#ffff00"/><stop offset="1" stop-color="#ff9400"/></radialGradient><radialGradient cx="437.13623" cy="326.02495" r="12.81669" gradientUnits="userSpaceOnUse" id="color-3"><stop offset="0" stop-color="#bda501"/><stop offset="1" stop-color="#c07801"/></radialGradient></defs><g transform="translate(-18.50356,-278.17846)"><g data-paper-data="{&quot;isPaintingLayer&quot;:true}" fill="none" fill-rule="nonzero" stroke="none" stroke-width="none" stroke-linecap="butt" stroke-linejoin="miter" stroke-miterlimit="10" stroke-dasharray="" stroke-dashoffset="0" font-family="none" font-weight="none" font-size="none" text-anchor="none" style="mix-blend-mode: normal"><path d="M24.5327,284.2076h429.5v57.6114h-429.5z" data-paper-data="{&quot;origPos&quot;:null}" id="ID0.3184669064357877" fill="#ffffff" stroke="url(#color-1)" stroke-width="12.05828"/><text transform="translate(25.78827,322.12447) scale(0.7218,0.72179)" font-size="22" xml:space="preserve" data-paper-data="{&quot;origPos&quot;:null}" id="ID0.08681221166625619" fill="#2492d1" fill-rule="nonzero" stroke="none" stroke-width="1" stroke-linecap="butt" stroke-linejoin="miter" stroke-miterlimit="10" stroke-dasharray="" stroke-dashoffset="0" font-family="Sans Serif" font-weight="400" text-anchor="start" style="mix-blend-mode: normal"><tspan x="0" dy="0">Complete Green Grass Scralaxy.</tspan></text><g data-paper-data="{&quot;origPos&quot;:null}" id="text28" fill="#2392d1" stroke="none" stroke-width="0.26458"><path d="M35.52787,286.01755c3.07996,0.7781 4.71721,1.2401 4.91173,1.38598c-1.09421,2.61798 -1.68183,3.95937 -1.76288,4.02423c-0.20262,0 -1.51973,-0.46199 -3.95127,-1.38598c-1.41031,1.31304 -2.11544,2.04655 -2.11544,2.20055c-0.10536,2.43154 -0.15804,3.84592 -0.15804,4.24306c1.68589,0.7781 2.68687,1.21578 3.00297,1.31304c1.57241,-0.68085 2.47612,-1.09421 2.71118,-1.24009l-0.43767,-1.39814c-0.29179,0.1621 -1.1712,0.5309 -2.63823,1.10636l-0.07295,-0.14588v-0.59574c0,-0.51063 -0.02431,-1.28872 -0.07295,-2.33429c0.38094,-0.09727 2.60176,-0.34041 6.66245,-0.72946c0.09727,0.50253 0.26746,2.64634 0.51063,6.43146c-0.12969,0.14588 -2.56935,1.12258 -7.31899,2.93002c-4.04448,-1.47514 -6.09508,-2.30593 -6.15183,-2.49237c-1.2644,-4.39301 -1.89661,-6.70703 -1.89661,-6.94209c1.66156,-2.99081 2.61392,-4.60375 2.85709,-4.8388c0.20262,-0.09727 2.17624,-0.60789 5.92083,-1.53189z" id="path781"/><path d="M48.23273,289.6892c3.07996,0.82673 4.71317,1.32924 4.89958,1.50757c1.69398,2.39914 2.64634,3.78106 2.85706,4.1458c-1.09421,3.46902 -1.72235,5.20353 -1.88445,5.20353c-3.64733,0.85104 -5.55611,1.27656 -5.72631,1.27656c-3.01512,-1.75882 -4.61996,-2.73955 -4.81447,-2.94217c-0.10536,-3.27449 -0.15804,-5.08195 -0.15804,-5.42236c-0.04864,-0.09727 -0.07295,-0.1702 -0.07295,-0.21884c3.11239,-2.36671 4.72126,-3.55006 4.82662,-3.55006zM48.00173,294.13896c-0.04864,0.3242 -0.12157,1.50351 -0.21884,3.53791l2.71118,0.60789c0.64842,-2.02629 0.97262,-3.10833 0.97262,-3.24612c-2.15597,-0.64842 -3.31098,-0.97262 -3.46496,-0.97262z" id="path783"/><path d="M61.99533,289.6892c3.07996,0.82673 4.71317,1.32924 4.89958,1.50757c1.69398,2.39914 2.64634,3.78106 2.85709,4.1458c-1.09421,3.46902 -1.72235,5.20353 -1.88446,5.20353c-3.64733,0.85104 -5.55611,1.27656 -5.7263,1.27656c-3.01512,-1.75882 -4.61996,-2.73955 -4.81447,-2.94217c-0.10536,-3.27449 -0.15804,-5.08195 -0.15804,-5.42236c-0.04864,-0.09727 -0.07295,-0.1702 -0.07295,-0.21884c3.11239,-2.36671 4.72127,-3.55006 4.82663,-3.55006zM61.76432,294.13896c-0.04864,0.3242 -0.12157,1.50351 -0.21884,3.53791l2.71118,0.60789c0.64842,-2.02629 0.97261,-3.10833 0.97261,-3.24612c-2.15597,-0.64842 -3.31097,-0.97262 -3.46495,-0.97262z" id="path785"/><path d="M78.21379,285.99324h0.07295c3.66354,0.308 5.49531,0.54709 5.49531,0.71731l1.617,14.3097c0,0.10538 -1.617,0.37284 -4.85096,0.80242l-0.07295,-0.15806v-1.30089c-2.78819,0.75378 -4.70101,1.2401 -5.73846,1.45893c-2.46397,-3.48523 -3.75674,-5.34131 -3.87832,-5.56826c1.81556,-3.2988 2.78413,-4.96847 2.9057,-5.009l5.09411,0.24315c-0.10538,-0.6241 -0.32016,-2.45588 -0.64435,-5.49532zM75.95244,294.71036c0.81863,2.5045 1.32924,3.87833 1.53189,4.12149l2.41939,-2.10329c-0.25127,-1.45083 -0.43767,-2.17624 -0.55925,-2.17624h-3.23396c-0.10536,0.01621 -0.15804,0.06889 -0.15804,0.15804z" id="path787"/><path d="M92.34112,286.00539l0.08511,0.15806c0,0.46199 0.10535,2.24919 0.3161,5.36158c2.90165,-0.92399 4.52674,-1.41031 4.87527,-1.45893l4.37679,4.70505c-1.83987,4.12553 -2.84087,6.31395 -3.00297,6.56519c-0.51063,-0.05674 -2.37483,-0.13779 -5.59258,-0.24315v0.57141c0,0.10538 -0.05674,0.15806 -0.17022,0.15806h-4.70505c-0.17022,0 -0.49441,-2.43154 -0.97261,-7.29466c-0.10538,-0.41337 -0.40121,-2.84897 -0.88753,-7.30683c2.75576,-0.64842 4.64831,-1.05367 5.67769,-1.21578zM93.15569,294.9292l0.3161,3.00297h2.44372l0.88753,-3.40418c-2.43154,0.21074 -3.64733,0.34447 -3.64733,0.40121z" id="path789"/><path d="M108.83921,289.70136c0.11348,0.01621 0.17021,0.07295 0.17021,0.17022l-1.2644,7.00288c2.41535,-0.28367 3.62302,-0.51063 3.62302,-0.68085c0.45389,-2.80439 0.76593,-4.37679 0.93615,-4.71721c2.99081,0.61599 4.64831,0.98074 4.97253,1.09421c-1.7426,5.98973 -2.69902,9.11021 -2.86924,9.36148c-3.04755,2.13977 -4.76179,3.32313 -5.14275,3.55006c-0.11348,0 -2.05467,-0.4782 -5.82357,-1.43462v-0.0851c0.99695,-2.19651 1.617,-3.29476 1.86014,-3.29476l3.70812,1.86014l1.77503,-3.03944c-1.59672,0.39715 -2.52477,0.59574 -2.78413,0.59574l-4.72938,-2.45588c0.57546,-5.28457 0.94021,-7.92686 1.09421,-7.92686z" id="path791"/><path d="M125.36162,289.6892c3.67164,1.88851 5.70605,2.99082 6.1032,3.30692c-0.52684,2.46397 -0.83888,3.73243 -0.93614,3.80539h-7.68371v0.13373l2.15193,2.66255l3.37985,-1.72641c0.33231,0.57546 0.81052,1.58051 1.43462,3.01513c-0.29179,0.09727 -2.41939,0.4093 -6.38284,0.93614c-3.2826,-2.16408 -4.93607,-3.2907 -4.96038,-3.37987c0.52684,-4.2066 0.83888,-6.30988 0.93615,-6.30988c3.42849,-1.45893 5.41426,-2.27351 5.9573,-2.44372zM124.57137,292.63138c-0.06484,0.1621 -0.49441,0.80645 -1.28874,1.93309c0,0.34041 0.4782,0.51063 1.43462,0.51063c0,0.04864 0.693,0.16616 2.07898,0.35257c0.38094,-0.52684 0.57142,-0.83483 0.57142,-0.92399c-0.12158,-0.72137 -0.38499,-1.08203 -0.79026,-1.08203z" id="path793"/><path d="M134.26111,299.19659c2.20461,0.25936 3.31095,0.40527 3.31907,0.43767c-1.33736,3.14482 -2.08707,4.79827 -2.24919,4.96037c-1.10231,-0.13779 -1.65346,-0.25126 -1.65346,-0.34041c0.29179,-3.37175 0.4701,-5.05764 0.53494,-5.05764z" id="path795"/><path d="M154.28496,286.01755c3.07996,0.7781 4.71721,1.2401 4.91173,1.38598c-1.09421,2.61798 -1.68183,3.95937 -1.76287,4.02423c-0.20262,0 -1.51973,-0.46199 -3.95127,-1.38598c-1.41031,1.31304 -2.11545,2.04655 -2.11545,2.20055c-0.10538,2.43154 -0.15806,3.84592 -0.15806,4.24306c1.68589,0.7781 2.68687,1.21578 3.00297,1.31304c1.57241,-0.68085 2.47612,-1.09421 2.71118,-1.24009l-0.43767,-1.39814c-0.29179,0.1621 -1.1712,0.5309 -2.63823,1.10636l-0.07295,-0.14588v-0.59574c0,-0.51063 -0.02431,-1.28872 -0.07295,-2.33429c0.38094,-0.09727 2.60176,-0.34041 6.66245,-0.72946c0.09727,0.50253 0.26746,2.64634 0.51063,6.43146c-0.12969,0.14588 -2.56933,1.12258 -7.31896,2.93002c-4.04448,-1.47514 -6.09508,-2.30593 -6.15183,-2.49235c-1.2644,-4.39301 -1.89661,-6.70703 -1.89661,-6.94209c1.66156,-2.99081 2.61392,-4.60375 2.85709,-4.8388c0.20262,-0.09727 2.17624,-0.60789 5.92083,-1.53188z" id="path797"/><path d="M170.81952,289.67705c1.60482,0.89968 2.5896,1.48324 2.95433,1.75072c-1.31304,2.73145 -2.01818,4.12149 -2.11544,4.17011h-0.08511l-1.73857,-1.51972l-2.05467,2.5045l0.231,4.55916c-0.10538,0.09727 -1.44678,0.3242 -4.02423,0.68085c-0.09727,-0.69704 -0.72946,-4.11337 -1.89661,-10.249c0,-0.09727 1.69398,-0.34851 5.08195,-0.75378c0.05674,0.06484 0.21074,0.82267 0.46199,2.27351c2.02629,-2.27756 3.08808,-3.41633 3.18534,-3.41633z" id="path799"/><path d="M181.62777,289.6892c3.67164,1.88851 5.70606,2.99082 6.10321,3.30692c-0.52684,2.46397 -0.83888,3.73243 -0.93615,3.80539h-7.68371v0.13373l2.15193,2.66255l3.37987,-1.72641c0.33231,0.57546 0.81052,1.58051 1.43462,3.01513c-0.29179,0.09727 -2.41939,0.4093 -6.38284,0.93614c-3.2826,-2.16408 -4.93606,-3.2907 -4.96037,-3.37987c0.52684,-4.2066 0.83888,-6.30988 0.93615,-6.30988c3.42849,-1.45893 5.41426,-2.27351 5.9573,-2.44372zM180.83753,292.63138c-0.06484,0.1621 -0.49441,0.80645 -1.28871,1.93309c0,0.34041 0.4782,0.51063 1.43462,0.51063c0,0.04864 0.693,0.16616 2.07898,0.35257c0.38094,-0.52684 0.5714,-0.83483 0.5714,-0.92399c-0.12158,-0.72137 -0.38499,-1.08203 -0.79026,-1.08203z" id="path801"/><path d="M195.73079,289.6892c3.67164,1.88851 5.70605,2.99082 6.1032,3.30692c-0.52684,2.46397 -0.83888,3.73243 -0.93614,3.80539h-7.68371v0.13373l2.15193,2.66255l3.37987,-1.72641c0.33231,0.57546 0.81051,1.58051 1.43461,3.01513c-0.29179,0.09727 -2.41939,0.4093 -6.38284,0.93614c-3.2826,-2.16408 -4.93606,-3.2907 -4.96037,-3.37987c0.52684,-4.2066 0.83888,-6.30988 0.93614,-6.30988c3.42849,-1.45893 5.41426,-2.27351 5.9573,-2.44372zM194.94055,292.63138c-0.06484,0.1621 -0.49441,0.80645 -1.28871,1.93309c0,0.34041 0.4782,0.51063 1.43462,0.51063c0,0.04864 0.693,0.16616 2.07897,0.35257c0.38094,-0.52684 0.57142,-0.83483 0.57142,-0.92399c-0.12158,-0.72137 -0.38499,-1.08203 -0.79026,-1.08203z" id="path803"/><path d="M213.73646,289.67705l4.04853,2.78413c-0.28367,4.61996 -0.48225,7.31899 -0.59573,8.09707c-0.4701,0.05674 -1.90067,0.14185 -4.29169,0.2553l-0.08511,-0.17022l-0.42552,-6.49226l-0.17022,-0.08511c-1.5481,0.33231 -2.61391,0.58359 -3.19749,0.75378c0.1621,2.76386 0.24315,4.76179 0.24315,5.99378c-2.41535,0.67273 -3.73649,1.0091 -3.96343,1.0091c-1.57241,-6.92182 -2.35861,-10.57726 -2.35861,-10.96632c3.42039,-0.44579 5.27647,-0.66869 5.56826,-0.66869v0.08511c0.05674,0.04052 0.14185,0.88347 0.2553,2.52881c3.1367,-2.08304 4.79422,-3.12455 4.97253,-3.12455z" id="path805"/><path d="M224.33804,286.45524l0.04862,0.09727c-0.81052,7.15687 -1.2644,10.91767 -1.36167,11.28242c-1.71829,-0.1621 -2.80439,-0.27558 -3.25828,-0.34041v-0.04862l-0.7781,-10.1639c0.19452,-0.06484 1.97768,-0.34041 5.34943,-0.82673zM219.52356,298.07807c0.05672,0.03241 1.32113,0.12967 3.79322,0.29179l0.04862,0.09726c-0.38096,2.23704 -0.6241,3.35554 -0.72946,3.35554h-2.82062c-0.09724,0 -0.22692,-1.11852 -0.38904,-3.35554c-0.03241,0 -0.04862,-0.09727 -0.04862,-0.29179c0.09724,-0.03243 0.14587,-0.06485 0.14587,-0.09726z" id="path807"/></g><g stroke="none"><text transform="translate(283,338.98128) scale(0.60677,0.60677)" font-size="40" xml:space="preserve" data-paper-data="{&quot;origPos&quot;:null}" fill="#2392d1" fill-rule="nonzero" stroke="none" stroke-width="1" stroke-linecap="butt" stroke-linejoin="miter" stroke-miterlimit="10" stroke-dasharray="" stroke-dashoffset="0" font-family="Sans Serif" font-weight="normal" text-anchor="start" style="mix-blend-mode: normal"><tspan x="0" dy="0">Reward:   +5</tspan></text><path d="M438.22633,321.71811c2.42757,0 4.62707,0.98611 6.21986,2.5789c1.5928,1.59272 2.57884,3.79221 2.57884,6.21979c0,2.4275 -0.98603,4.62709 -2.57884,6.21981c-1.5928,1.5928 -3.79229,2.5789 -6.21986,2.5789c-2.4275,0 -4.62699,-0.98611 -6.2198,-2.5789c-1.5928,-1.59272 -2.5789,-3.79231 -2.5789,-6.21981c0,-2.42757 0.98611,-4.62706 2.5789,-6.21979c1.5928,-1.5928 3.7923,-2.5789 6.2198,-2.5789z" data-paper-data="{&quot;origPos&quot;:null}" id="ID0.7142658131197095" fill="url(#color-2)" stroke-width="0.48028"/><path d="M436.38196,323.73549h3.47092v13.31086h-3.47092z" data-paper-data="{&quot;origPos&quot;:null}" id="ID0.06001657713204622" fill="url(#color-3)" stroke-width="0.59798"/></g></g></g></svg>