<svg version="1.1" xmlns="http://www.w3.org/2000/svg" xmlns:xlink="http://www.w3.org/1999/xlink" width="452.12289" height="54.99743" viewBox="0,0,452.12289,54.99743"><defs><linearGradient x1="39.81543" y1="156.51391" x2="39.81543" y2="203.26764" gradientUnits="userSpaceOnUse" id="color-1"><stop offset="0" stop-color="#3c94ed"/><stop offset="1" stop-color="#296ec6"/></linearGradient><linearGradient x1="240.00001" y1="156.69596" x2="240.00001" y2="203.30404" gradientUnits="userSpaceOnUse" id="color-2"><stop offset="0" stop-color="#3c94ed"/><stop offset="1" stop-color="#296ec6"/></linearGradient><linearGradient x1="440.18459" y1="156.73236" x2="440.18459" y2="203.48609" gradientUnits="userSpaceOnUse" id="color-3"><stop offset="0" stop-color="#3c94ed"/><stop offset="1" stop-color="#296ec6"/></linearGradient></defs><g transform="translate(-13.93857,-150.98866)"><g data-paper-data="{&quot;isPaintingLayer&quot;:true}" fill-rule="nonzero" stroke-linecap="butt" stroke-linejoin="miter" stroke-miterlimit="10" stroke-dasharray="" stroke-dashoffset="0" style="mix-blend-mode: normal"><g><path d="M39.81543,156.51391c6.44933,0 12.29431,2.61878 16.52546,6.8514c4.23255,4.23115 6.85141,10.07607 6.85141,16.52546c0,6.4494 -2.61885,12.29431 -6.8514,16.52546c-4.23115,4.23262 -10.07613,6.85141 -16.52546,6.85141c-6.4494,0 -12.29439,-2.61879 -16.52554,-6.8514c-4.23255,-4.23115 -6.85133,-10.07607 -6.85133,-16.52546c0,-6.4494 2.61878,-12.29431 6.85133,-16.52546c4.23115,-4.23262 10.07614,-6.8514 16.52554,-6.8514z" data-paper-data="{&quot;origPos&quot;:null}" id="ID0.4039921844378114" fill="#3c94ed" stroke="#23568d" stroke-width="5"/><path d="M440.18459,156.73236c6.44939,0 12.29431,2.61879 16.52546,6.85141c4.23262,4.23115 6.85141,10.07607 6.85141,16.52546c0,6.4494 -2.61879,12.29438 -6.8514,16.52553c-4.23115,4.23255 -10.07607,6.85133 -16.52546,6.85133c-6.44939,0 -12.29438,-2.61878 -16.52553,-6.85133c-4.23255,-4.23115 -6.85134,-10.07614 -6.85134,-16.52553c0,-6.4494 2.61879,-12.29431 6.85134,-16.52546c4.23115,-4.23262 10.07614,-6.8514 16.52553,-6.8514z" data-paper-data="{&quot;origPos&quot;:null}" id="ID0.4039921844378114" fill="#3c94ed" stroke="#23568d" stroke-width="5"/><path d="M41.46817,156.69596h397.06369v46.60808h-397.06369z" data-paper-data="{&quot;origPos&quot;:null}" id="ID0.9499778808094561" fill="#3c94ed" stroke="#23568d" stroke-width="5"/><path d="M39.81543,156.51391c6.44933,0 12.29431,2.61878 16.52546,6.8514c4.23255,4.23115 6.85141,10.07607 6.85141,16.52546c0,6.4494 -2.61885,12.29431 -6.8514,16.52546c-4.23115,4.23262 -10.07613,6.85141 -16.52546,6.85141c-6.4494,0 -12.29439,-2.61879 -16.52554,-6.8514c-4.23255,-4.23115 -6.85133,-10.07607 -6.85133,-16.52546c0,-6.4494 2.61878,-12.29431 6.85133,-16.52546c4.23115,-4.23262 10.07614,-6.8514 16.52554,-6.8514z" data-paper-data="{&quot;origPos&quot;:null}" id="ID0.4039921844378114" fill="url(#color-1)" stroke="none" stroke-width="2.07893"/><path d="M41.46817,156.69596h397.06369v46.60808h-397.06369z" data-paper-data="{&quot;origPos&quot;:null}" id="ID0.9499778808094561" fill="url(#color-2)" stroke="none" stroke-width="2.54499"/><path d="M440.18459,156.73236c6.44939,0 12.29431,2.61879 16.52546,6.85141c4.23262,4.23115 6.85141,10.07607 6.85141,16.52546c0,6.4494 -2.61879,12.29438 -6.8514,16.52553c-4.23115,4.23255 -10.07607,6.85133 -16.52546,6.85133c-6.44939,0 -12.29438,-2.61878 -16.52553,-6.85133c-4.23255,-4.23115 -6.85134,-10.07614 -6.85134,-16.52553c0,-6.4494 2.61879,-12.29431 6.85134,-16.52546c4.23115,-4.23262 10.07614,-6.8514 16.52553,-6.8514z" data-paper-data="{&quot;origPos&quot;:null}" id="ID0.4039921844378114" fill="url(#color-3)" stroke="none" stroke-width="2.07893"/></g><g data-paper-data="{&quot;origPos&quot;:null}" fill="#ffffff"><g data-paper-data="{&quot;origPos&quot;:null}" id="text139" stroke="#23568d" stroke-width="5"><path d="M34.47451,167.90354c4.832,1.26869 7.29764,2.00232 7.39694,2.20089c0,0.11038 1.16939,2.31674 3.50816,6.61915c-2.06297,6.90601 -3.23235,10.60723 -3.50816,11.10367l-7.49621,1.60515c-4.02667,-2.22846 -6.16687,-3.49711 -6.42058,-3.80603c-0.13238,-1.55548 -0.36406,-5.92966 -0.69501,-13.12252c3.80603,-2.53735 6.211,-4.07076 7.2149,-4.60031zM35.76523,173.61259l-3.09447,3.21029c0.26476,3.33166 0.39714,5.36705 0.39714,6.10619c0.07721,0 0.74465,0.46333 2.00229,1.39002c1.66583,-0.36406 2.49872,-0.62882 2.49872,-0.79431l1.90302,-6.50333c-0.50746,-1.54446 -0.93771,-2.31671 -1.29075,-2.31671z" id="path984"/><path d="M54.77881,167.90354l0.11582,0.21519c0,0.62882 0.14343,3.06136 0.43025,7.29764c3.94943,-1.25764 6.16136,-1.91957 6.63571,-1.98577l5.95725,6.40406c-2.50426,5.61526 -3.86671,8.5939 -4.08735,8.9359c-0.69501,-0.07727 -3.23235,-0.18762 -7.61207,-0.33098v0.77776c0,0.14346 -0.07724,0.21519 -0.23168,0.21519h-6.40406c-0.23168,0 -0.67295,-3.3096 -1.32383,-9.92875c-0.14343,-0.56263 -0.54607,-3.87773 -1.20801,-9.94533c3.75086,-0.88257 6.32682,-1.43415 7.72789,-1.65478zM55.88752,180.04973l0.43025,4.08735h3.32615l1.20801,-4.63342c-3.3096,0.28682 -4.96437,0.46887 -4.96437,0.54607z" id="path986"/><path d="M86.78253,165.98396l6.51989,1.02599c-0.81637,3.13309 -1.3514,4.69961 -1.60515,4.69961c-3.43093,-0.23168 -5.14642,-0.46333 -5.14642,-0.69501v-4.79891c0.02206,-0.15457 0.09926,-0.23184 0.23168,-0.23184zM84.9457,172.96721l7.89338,2.05195c-1.59964,9.26685 -2.47666,14.18709 -2.6311,14.76074c-0.342,0.30892 -3.16066,1.721 -8.45602,4.23628c-4.21422,-1.98576 -6.80671,-3.2434 -7.77752,-3.77292c-1.07008,-4.08184 -1.68238,-6.33236 -1.83683,-6.75156c0.15444,-0.15457 2.32776,-0.76684 6.51988,-1.83683c0,0.07727 0.03862,0.11592 0.11582,0.11592c-0.07721,0.15435 -0.11582,0.27017 -0.11582,0.3475c0,0.5185 -0.15444,2.31121 -0.46333,5.3781c3.69572,-0.46333 5.90762,-0.76671 6.63574,-0.91014v-2.97864c0,-0.17654 -0.03311,-0.33098 -0.0993,-0.46333l0.0993,-0.23184c-0.06619,-0.13235 -0.0993,-0.28128 -0.0993,-0.4468h0.0993l-0.0993,-0.23152v-0.11592c0,-0.07727 0.03311,-0.11592 0.0993,-0.11592l-0.0993,-0.23152v-0.11592c0,-0.07727 0.03311,-0.11592 0.0993,-0.11592l-0.0993,-0.21519v-8.12506c0.02206,-0.15435 0.09376,-0.23152 0.21513,-0.23152z" id="path988"/><path d="M104.48884,172.91755c4.99749,2.57046 7.76651,4.07082 8.30708,4.50104c-0.71708,3.35372 -1.14182,5.08023 -1.2742,5.17953h-10.4583v0.18189l2.92898,3.62399l4.60031,-2.34979c0.45231,0.78326 1.1032,2.15122 1.95265,4.10387c-0.39714,0.13235 -3.29304,0.55709 -8.68766,1.27419c-4.46793,-2.94553 -6.71845,-4.47898 -6.75156,-4.60031c0.71708,-5.72561 1.14182,-8.5884 1.2742,-8.5884c4.66653,-1.98573 7.36934,-3.09447 8.10851,-3.32615zM103.41321,176.92215c-0.08825,0.22066 -0.67295,1.09769 -1.75408,2.63114c0,0.46333 0.65088,0.69501 1.95265,0.69501c0,0.06619 0.94325,0.22614 2.82971,0.47988c0.5185,-0.71708 0.77776,-1.13627 0.77776,-1.25764c-0.16546,-0.98183 -0.52401,-1.47277 -1.07563,-1.47277z" id="path990"/><path d="M120.80512,172.91755c4.97539,0.93771 7.57892,1.47276 7.81061,1.60518v0.19854c-1.07008,3.02274 -1.60515,4.5893 -1.60515,4.69962h-0.09927c-0.27581,0 -1.61066,-0.43025 -4.0046,-1.29075c-1.33488,2.23948 -2.00232,3.43646 -2.00232,3.5909l3.30959,3.21029c2.55944,-2.40497 3.86121,-3.60743 3.90533,-3.60743c1.99678,2.61458 2.99517,4.08181 2.99517,4.40175c-1.09218,0.62882 -2.9952,1.8644 -5.70905,3.70673c-5.25123,-1.13628 -8.08645,-1.7706 -8.50565,-1.90301l-2.59803,-8.40635z" id="path992"/><path d="M137.71712,167.90354l7.28109,1.29075l-0.69501,5.527c1.44519,-0.07727 2.50427,-0.11592 3.17722,-0.11592h1.05907l0.23152,-0.11592l0.11592,0.23184c-0.23168,3.35372 -0.43025,5.24018 -0.59574,5.65938l-0.23152,-0.13225c-0.16546,0 -1.65478,-0.07717 -4.46796,-0.23152c-0.15435,2.59252 -0.27017,5.69249 -0.34751,9.29996l-0.23184,0.11592c-3.55229,-0.23168 -5.67043,-0.43025 -6.35439,-0.59571l0.11592,-0.46336c0,-0.95977 0.15444,-3.93838 0.46336,-8.93587c-2.97864,-0.16546 -4.46796,-0.36403 -4.46796,-0.59574c0.15457,-3.68467 0.35314,-5.527 0.59574,-5.527l4.35211,0.82739v-1.42313c0,-1.15834 -0.04409,-2.7249 -0.13225,-4.69961c0.08816,0 0.13225,-0.03865 0.13225,-0.11592z" id="path994"/><path d="M152.92466,166.26528l6.50336,1.02599c-0.81637,3.12204 -1.35143,4.68306 -1.60514,4.68306c-3.41991,-0.23168 -5.12987,-0.45782 -5.12987,-0.67846v-4.79891c0.03308,-0.15457 0.11025,-0.23184 0.23152,-0.23184zM151.10439,174.14211h0.09927c5.03056,0.91564 7.54584,1.45071 7.54584,1.60515c-1.44519,8.18571 -2.32222,12.74744 -2.6311,13.68515h-5.24569c-0.15457,0 -0.23184,-0.07717 -0.23184,-0.23152z" id="path996"/><path d="M170.73027,182.54846c1.33485,-5.06367 2.1126,-7.76097 2.33323,-8.09192c4.21422,0.38609 6.32132,0.71704 6.32132,0.99285v0.11592c-2.95655,8.11952 -4.54514,12.37233 -4.7658,12.75846c-3.26547,0.59571 -5.44976,0.96527 -6.55296,1.1087l-8.09195,-11.9807v-0.23184c0.07727,-0.14346 2.22298,-1.58311 6.43714,-4.31899c0,0 4.1425,9.41585 4.31903,9.64753z" data-paper-data="{&quot;origPos&quot;:null}" id="path998"/><path d="M190.53816,172.91755c4.99749,2.57046 7.76651,4.07082 8.30708,4.50104c-0.71708,3.35372 -1.14182,5.08023 -1.2742,5.17953h-10.4583v0.18189l2.92897,3.62399l4.60031,-2.34979c0.45231,0.78326 1.10323,2.15122 1.95268,4.10387c-0.39717,0.13235 -3.29307,0.55709 -8.68769,1.27419c-4.46793,-2.94553 -6.71845,-4.47898 -6.75156,-4.60031c0.71708,-5.72561 1.14182,-8.5884 1.2742,-8.5884c4.66653,-1.98573 7.36937,-3.09447 8.1085,-3.32615zM189.46254,176.92215c-0.08816,0.22066 -0.67285,1.09769 -1.75408,2.63114c0,0.46333 0.65089,0.69501 1.95266,0.69501c0,0.06619 0.94324,0.22614 2.8297,0.47988c0.5185,-0.71708 0.77776,-1.13627 0.77776,-1.25764c-0.16546,-0.98183 -0.52398,-1.47277 -1.07563,-1.47277z" id="path1000"/><path d="M213.02676,179.68573c-0.06619,1.47828 -0.09927,2.68628 -0.09927,3.62399v0.52955c0,0.09927 -0.11031,0.20408 -0.33095,0.31446c-1.20247,0 -5.03608,0.14343 -11.50082,0.43025c-0.12127,0 -0.36947,-1.59964 -0.74465,-4.79888c0.06619,0 0.09927,-0.03308 0.09927,-0.09927c3.61848,-0.07727 11.51737,-0.149 12.47714,-0.21519z" data-paper-data="{&quot;origPos&quot;:null}" id="path1002"/><path d="M220.82088,167.96973c6.12274,0.88257 9.4985,1.40107 10.12732,1.55551c0,0.08816 2.10709,6.40396 6.32132,18.94739c-0.44127,0.16546 -2.98412,0.48536 -7.62859,0.95977c-0.31993,-1.08113 -0.67846,-2.75247 -1.07563,-5.01401c-3.97149,0.36406 -5.95725,0.68396 -5.95725,0.95977l-1.07563,3.82259h-0.11592c-4.6886,-0.8605 -7.03288,-1.37901 -7.03288,-1.55551c3.73984,-11.69388 5.88555,-18.25238 6.43717,-19.67551zM224.03117,179.42091h3.59091l-1.32383,-5.24569c-1.02599,0 -1.53899,0.19857 -1.53899,0.59571c-0.16546,0.80533 -0.40816,2.35533 -0.72809,4.64998z" id="path1004"/><path d="M251.23597,169.19429l-0.69501,5.527c1.44519,-0.07727 2.50426,-0.11592 3.17721,-0.11592h1.05908l0.23184,-0.11592l0.11592,0.23184c-0.23168,3.35372 -0.43025,5.24018 -0.59574,5.65938l-0.23152,-0.13225c-0.16546,0 -1.65479,-0.07717 -4.46797,-0.23152c-0.15435,2.59252 -0.27017,5.69249 -0.3475,9.29996l-0.23152,0.11592c-3.55229,-0.23168 -5.67043,-0.43025 -6.35443,-0.59571l0.11592,-0.46336c0,-0.95977 0.15444,-3.93838 0.46336,-8.93587c-2.97861,-0.16546 -4.46793,-0.36403 -4.46793,-0.59574c0.15435,-3.68467 0.35291,-5.527 0.59571,-5.527l4.35211,0.82739v-1.42313c0,-1.15834 -0.04409,-2.7249 -0.13225,-4.69961c0.08816,0 0.13225,-0.03865 0.13225,-0.11592z" data-paper-data="{&quot;origPos&quot;:null}" id="path1006"/><path d="M264.29229,167.90354c0.06619,0.09927 0.37508,3.12204 0.9267,9.06828c4.25835,-1.30177 6.52539,-1.95265 6.8012,-1.95265l4.21973,2.87934c-0.68397,6.28821 -1.13076,9.96186 -1.34038,11.02093l-5.85796,0.19854c0,-0.06619 -0.03865,-0.09927 -0.11592,-0.09927l0.11592,-0.4137c0,-0.89358 0.13238,-3.60746 0.39714,-8.14159c-1.61066,-0.06619 -2.80761,-0.09927 -3.59091,-0.09927h-0.41369c0.47438,5.04161 0.71157,7.78858 0.71157,8.24089l-5.56012,0.82739c-0.20965,-0.70606 -1.44523,-7.29764 -3.70673,-19.77478c0,-0.35304 0.8605,-0.62882 2.58147,-0.82739c2.17332,-0.61781 3.78397,-0.92669 4.83199,-0.92669z" id="path1008"/><path d="M284.46428,172.91755c4.19213,1.12526 6.41508,1.80926 6.66882,2.05195c2.30566,3.26547 3.60192,5.14642 3.88875,5.64286c-1.48932,4.72168 -2.34428,7.08252 -2.56492,7.08252c-4.96438,1.15834 -7.5624,1.73753 -7.79408,1.73753c-4.10391,-2.39395 -6.28824,-3.7288 -6.553,-4.0046c-0.14346,-4.45689 -0.21519,-6.91703 -0.21519,-7.38039c-0.06619,-0.13235 -0.09927,-0.23161 -0.09927,-0.29781c4.23625,-3.22134 6.42609,-4.83203 6.56952,-4.83203zM284.14982,178.9741c-0.06619,0.4413 -0.16546,2.04645 -0.29781,4.81547l3.69021,0.82739c0.88257,-2.75798 1.32383,-4.23074 1.32383,-4.4183c-2.93449,-0.88257 -4.50655,-1.32383 -4.71617,-1.32383z" id="path1010"/><path d="M311.22231,172.90102l5.51048,3.78948c-0.38612,6.28821 -0.65642,9.96186 -0.81087,11.02093c-0.63984,0.07727 -2.58698,0.19313 -5.84143,0.34751l-0.11592,-0.23184l-0.57918,-8.83659l-0.23152,-0.11592c-2.10709,0.45231 -3.55783,0.79428 -4.35214,1.02596c0.22066,3.76191 0.33098,6.4813 0.33098,8.15814c-3.28753,0.91564 -5.08574,1.37347 -5.39462,1.37347c-2.14021,-9.42129 -3.21032,-14.39668 -3.21032,-14.92623c4.65549,-0.60676 7.18181,-0.91014 7.57895,-0.91014v0.11592c0.07727,0.05508 0.19313,1.2024 0.34751,3.44197c4.26936,-2.83522 6.52542,-4.25281 6.76812,-4.25281z" id="path1012"/><path d="M338.44364,167.90354c0.2427,0.26476 2.60907,1.99678 7.09907,5.19605v0.09927c-0.91564,3.77295 -1.51689,5.92968 -1.80372,6.47025l-3.49161,2.01888c4.13698,2.98966 6.22201,4.54517 6.25512,4.6665c-1.46726,0.70606 -3.72883,1.73202 -6.78468,3.07791c-3.54124,-4.84301 -5.31188,-7.31971 -5.31188,-7.43002h-0.19854c-0.07727,2.83522 -0.11592,4.78236 -0.11592,5.84143c-0.04419,0.49644 -0.149,0.74464 -0.31446,0.74464h-4.98093c-0.23168,0 -0.58469,-3.07791 -1.05907,-9.23373c-0.22063,-1.34589 -0.54057,-4.45692 -0.95977,-9.33304c1.2797,-0.27581 5.16845,-0.98183 11.66627,-2.11814zM333.8764,172.57004v0.09927c0,0.67295 0.03865,3.07791 0.11592,7.2149h0.09927c2.69182,-0.62882 4.03771,-1.05353 4.03771,-1.2742l0.94321,-4.23625z" id="path1014"/><path d="M354.95853,172.91755c4.19213,1.12526 6.41507,1.80926 6.66882,2.05195c2.30566,3.26547 3.60193,5.14642 3.88875,5.64286c-1.48932,4.72168 -2.34428,7.08252 -2.56492,7.08252c-4.96438,1.15834 -7.5624,1.73753 -7.79408,1.73753c-4.10391,-2.39395 -6.28823,-3.7288 -6.55299,-4.0046c-0.14346,-4.45689 -0.21519,-6.91703 -0.21519,-7.38039c-0.06619,-0.13235 -0.09927,-0.23161 -0.09927,-0.29781c4.23625,-3.22134 6.42609,-4.83203 6.56952,-4.83203zM354.64407,178.9741c-0.06619,0.4413 -0.16546,2.04645 -0.29781,4.81547l3.69021,0.82739c0.88257,-2.75798 1.32383,-4.23074 1.32383,-4.4183c-2.93449,-0.88257 -4.50655,-1.32383 -4.71617,-1.32383z" id="path1016"/><path d="M376.07379,173.11621l-2.23396,11.84832h0.11592l5.69249,-1.67134v-6.70193c0.022,-0.15457 0.09373,-0.23184 0.21519,-0.23184c4.28041,0.29787 6.66331,0.4468 7.14874,0.4468c0,0.07727 0.03865,0.11592 0.11592,0.11592c0,1.88646 -0.59574,5.7973 -1.78719,11.7325c0,0.342 -1.70996,0.60125 -5.12984,0.77776c-0.17654,-0.20965 -0.32547,-0.65642 -0.4468,-1.34038c-4.37971,0.89358 -6.87844,1.34038 -7.49621,1.34038c-3.49715,-2.60353 -5.24572,-3.94392 -5.24572,-4.02113c0.59574,-7.82165 0.97082,-11.88144 1.12526,-12.17931h0.09927c2.79109,-0.07727 5.36151,-0.18758 7.71134,-0.33095z" data-paper-data="{&quot;origPos&quot;:null}" id="path1018"/><path d="M403.49362,172.90102l5.51048,3.78948c-0.38612,6.28821 -0.65642,9.96186 -0.81087,11.02093c-0.63984,0.07727 -2.58698,0.19313 -5.8414,0.34751l-0.11592,-0.23184l-0.57916,-8.83659l-0.23184,-0.11592c-2.10709,0.45231 -3.55779,0.79428 -4.35211,1.02596c0.22063,3.76191 0.33095,6.4813 0.33095,8.15814c-3.28753,0.91564 -5.08574,1.37347 -5.39462,1.37347c-2.14021,-9.42129 -3.21029,-14.39668 -3.21029,-14.92623c4.65549,-0.60676 7.18179,-0.91014 7.57896,-0.91014v0.11592c0.07727,0.05508 0.19313,1.2024 0.34751,3.44197c4.26936,-2.83522 6.52539,-4.25281 6.76809,-4.25281z" id="path1020"/><path d="M420.75312,167.88698c4.98644,0.4192 7.47965,0.74465 7.47965,0.97633l2.20089,19.47694c0,0.14346 -2.20089,0.50752 -6.60263,1.09215l-0.09927,-0.21519v-1.7706c-3.79499,1.02596 -6.39856,1.68789 -7.81064,1.98573c-3.35372,-4.74374 -5.11331,-7.27004 -5.27877,-7.57896c2.47115,-4.49 3.78948,-6.76258 3.95494,-6.81776l6.93362,0.33098c-0.14346,-0.84946 -0.43582,-3.3427 -0.87706,-7.47968zM417.57594,179.75186c1.11421,3.40886 1.80922,5.2788 2.08503,5.60975l3.29304,-2.86279c-0.34197,-1.97471 -0.59571,-2.96209 -0.7612,-2.96209h-4.40174c-0.14346,0.022 -0.21519,0.09373 -0.21519,0.21519z" id="path1022"/><path d="M452.67409,170.23681c0.04419,8.2519 0.06629,14.56217 0.06629,18.93084v0.13225l-0.06629,0.13225l-5.82487,-0.19854c0,-0.04419 -0.02209,-0.06629 -0.06628,-0.06629c0.26479,-7.38039 0.39717,-11.30775 0.39717,-11.78213l-1.98577,1.91957c-0.11038,-0.06619 -1.65484,-1.69891 -4.63342,-4.89822c2.33877,-1.85335 4.50105,-3.50817 6.48681,-4.96438c0,0 5.62636,0.68432 5.62636,0.79463z" data-paper-data="{&quot;origPos&quot;:null}" id="path1024"/></g><g data-paper-data="{&quot;origPos&quot;:null}" id="text139" stroke="none" stroke-width="0.26458"><path d="M34.47451,167.90354c4.83199,1.26869 7.29764,2.00232 7.39694,2.20089c0,0.11038 1.16939,2.31675 3.50817,6.61915c-2.06297,6.90601 -3.23235,10.60724 -3.50817,11.10367l-7.49621,1.60515c-4.02667,-2.22846 -6.16687,-3.49711 -6.42058,-3.80604c-0.13238,-1.55548 -0.36406,-5.92965 -0.69501,-13.12251c3.80604,-2.53734 6.211,-4.07076 7.2149,-4.60031zM35.76523,173.6126l-3.09447,3.21029c0.26476,3.33166 0.39714,5.36705 0.39714,6.10619c0.07721,0 0.74464,0.46333 2.00228,1.39002c1.66583,-0.36406 2.49873,-0.62882 2.49873,-0.79432l1.90302,-6.50333c-0.50746,-1.54447 -0.93771,-2.31671 -1.29075,-2.31671z" id="path984"/><path d="M54.77882,167.90354l0.11583,0.21519c0,0.62882 0.14343,3.06136 0.43025,7.29764c3.94943,-1.25764 6.16137,-1.91957 6.63571,-1.98577l5.95726,6.40406c-2.50427,5.61525 -3.86672,8.5939 -4.08735,8.9359c-0.69501,-0.07727 -3.23235,-0.18762 -7.61206,-0.33098v0.77776c0,0.14346 -0.07724,0.21519 -0.23168,0.21519h-6.40406c-0.23168,0 -0.67295,-3.30959 -1.32383,-9.92875c-0.14343,-0.56263 -0.54607,-3.87773 -1.20801,-9.94534c3.75086,-0.88257 6.32682,-1.43415 7.72789,-1.65478zM55.88752,180.04974l0.43025,4.08735h3.32615l1.20801,-4.63342c-3.30959,0.28683 -4.96438,0.46887 -4.96438,0.54607z" id="path986"/><path d="M86.78253,165.98397l6.51989,1.02599c-0.81637,3.13309 -1.3514,4.69962 -1.60515,4.69962c-3.43092,-0.23168 -5.14642,-0.46333 -5.14642,-0.69501v-4.79892c0.02207,-0.15457 0.09926,-0.23184 0.23168,-0.23184zM84.94571,172.96722l7.89339,2.05195c-1.59964,9.26685 -2.47666,14.1871 -2.6311,14.76074c-0.34199,0.30892 -3.16066,1.72101 -8.45602,4.23628c-4.21422,-1.98577 -6.8067,-3.24341 -7.77753,-3.77293c-1.07009,-4.08184 -1.68238,-6.33236 -1.83683,-6.75156c0.15444,-0.15457 2.32776,-0.76683 6.51989,-1.83683c0,0.07727 0.03862,0.11592 0.11583,0.11592c-0.07721,0.15435 -0.11583,0.27017 -0.11583,0.34751c0,0.5185 -0.15444,2.31121 -0.46333,5.3781c3.69572,-0.46333 5.90762,-0.76671 6.63575,-0.91014v-2.97864c0,-0.17654 -0.03311,-0.33098 -0.0993,-0.46333l0.0993,-0.23184c-0.06619,-0.13235 -0.0993,-0.28129 -0.0993,-0.44681h0.0993l-0.0993,-0.23152v-0.11592c0,-0.07727 0.03311,-0.11592 0.0993,-0.11592l-0.0993,-0.23152v-0.11592c0,-0.07727 0.03311,-0.11592 0.0993,-0.11592l-0.0993,-0.21519v-8.12506c0.02207,-0.15435 0.09376,-0.23152 0.21512,-0.23152z" id="path988"/><path d="M104.48883,172.91756c4.99749,2.57045 7.76651,4.07082 8.30708,4.50104c-0.71707,3.35372 -1.14181,5.08023 -1.2742,5.17953h-10.4583v0.18189l2.92897,3.62399l4.60031,-2.34979c0.45231,0.78326 1.1032,2.15122 1.95266,4.10387c-0.39714,0.13235 -3.29303,0.55709 -8.68766,1.2742c-4.46793,-2.94553 -6.71845,-4.47898 -6.75156,-4.60031c0.71707,-5.72561 1.14181,-8.58839 1.2742,-8.58839c4.66653,-1.98573 7.36934,-3.09447 8.10851,-3.32615zM103.41321,176.92216c-0.08825,0.22066 -0.67295,1.09769 -1.75408,2.63114c0,0.46333 0.65089,0.69501 1.95266,0.69501c0,0.06619 0.94325,0.22614 2.82971,0.47988c0.5185,-0.71707 0.77776,-1.13627 0.77776,-1.25764c-0.16546,-0.98183 -0.52402,-1.47276 -1.07563,-1.47276z" id="path990"/><path d="M120.80512,172.91756c4.97539,0.93771 7.57892,1.47276 7.8106,1.60518v0.19854c-1.07009,3.02273 -1.60515,4.5893 -1.60515,4.69962h-0.09926c-0.27581,0 -1.61065,-0.43025 -4.0046,-1.29075c-1.33488,2.23947 -2.00232,3.43646 -2.00232,3.5909l3.30959,3.21029c2.55944,-2.40497 3.8612,-3.60743 3.90534,-3.60743c1.99678,2.61459 2.99517,4.08181 2.99517,4.40175c-1.09219,0.62882 -2.99519,1.8644 -5.70905,3.70673c-5.25123,-1.13627 -8.08644,-1.7706 -8.50564,-1.90302l-2.59803,-8.40635z" id="path992"/><path d="M137.71711,167.90354l7.28108,1.29075l-0.69501,5.527c1.44519,-0.07727 2.50427,-0.11592 3.17722,-0.11592h1.05908l0.23152,-0.11592l0.11592,0.23184c-0.23168,3.35372 -0.43025,5.24018 -0.59574,5.65938l-0.23152,-0.13225c-0.16546,0 -1.65478,-0.07718 -4.46797,-0.23152c-0.15435,2.59252 -0.27017,5.6925 -0.34751,9.29996l-0.23184,0.11592c-3.55229,-0.23168 -5.67043,-0.43025 -6.35439,-0.59571l0.11592,-0.46336c0,-0.95977 0.15444,-3.93838 0.46336,-8.93587c-2.97864,-0.16546 -4.46797,-0.36403 -4.46797,-0.59574c0.15457,-3.68467 0.35314,-5.527 0.59574,-5.527l4.35211,0.82739v-1.42313c0,-1.15834 -0.0441,-2.7249 -0.13225,-4.69962c0.08815,0 0.13225,-0.03865 0.13225,-0.11592z" id="path994"/><path d="M152.92466,166.26528l6.50336,1.02599c-0.81637,3.12204 -1.35143,4.68306 -1.60515,4.68306c-3.41991,-0.23168 -5.12986,-0.45782 -5.12986,-0.67846v-4.79892c0.03308,-0.15457 0.11025,-0.23184 0.23152,-0.23184zM151.10439,174.14212h0.09926c5.03057,0.91565 7.54584,1.45071 7.54584,1.60515c-1.44519,8.18572 -2.32222,12.74744 -2.6311,13.68515h-5.24569c-0.15457,0 -0.23184,-0.07718 -0.23184,-0.23152z" id="path996"/><path d="M170.73027,182.54846c1.33485,-5.06368 2.1126,-7.76097 2.33323,-8.09192c4.21422,0.38609 6.32131,0.71704 6.32131,0.99284v0.11592c-2.95655,8.11952 -4.54514,12.37233 -4.7658,12.75845c-3.26547,0.59571 -5.44977,0.96527 -6.55297,1.1087l-8.09195,-11.9807v-0.23184c0.07727,-0.14346 2.22298,-1.58311 6.43714,-4.319c0,0 4.1425,9.41587 4.31904,9.64754z" data-paper-data="{&quot;origPos&quot;:null}" id="path998"/><path d="M190.53816,172.91756c4.99749,2.57045 7.76651,4.07082 8.30708,4.50104c-0.71707,3.35372 -1.14181,5.08023 -1.2742,5.17953h-10.4583v0.18189l2.92897,3.62399l4.60031,-2.34979c0.45231,0.78326 1.10323,2.15122 1.95268,4.10387c-0.39717,0.13235 -3.29307,0.55709 -8.68769,1.2742c-4.46793,-2.94553 -6.71845,-4.47898 -6.75156,-4.60031c0.71707,-5.72561 1.14181,-8.58839 1.2742,-8.58839c4.66653,-1.98573 7.36937,-3.09447 8.10851,-3.32615zM189.46254,176.92216c-0.08815,0.22066 -0.67285,1.09769 -1.75408,2.63114c0,0.46333 0.65089,0.69501 1.95266,0.69501c0,0.06619 0.94325,0.22614 2.82971,0.47988c0.5185,-0.71707 0.77776,-1.13627 0.77776,-1.25764c-0.16546,-0.98183 -0.52398,-1.47276 -1.07563,-1.47276z" id="path1000"/><path d="M212.92749,179.47054l0.09926,0.21519c-0.06619,1.47828 -0.09926,2.68628 -0.09926,3.62399v0.52955c0,0.09926 -0.11032,0.20408 -0.33095,0.31445c-1.20246,0 -5.03607,0.14343 -11.50082,0.43025c-0.12126,0 -0.36947,-1.59964 -0.74464,-4.79888c0.06619,0 0.09926,-0.03308 0.09926,-0.09926c3.61848,-0.07727 6.45924,-0.11592 8.5222,-0.11592h1.82027c0.46333,0 1.17489,-0.03308 2.13467,-0.09926z" id="path1002"/><path d="M220.82088,167.96974c6.12274,0.88257 9.4985,1.40107 10.12732,1.55551c0,0.08815 2.1071,6.40396 6.32131,18.94739c-0.44127,0.16546 -2.98412,0.48536 -7.62859,0.95977c-0.31994,-1.08113 -0.67846,-2.75247 -1.07563,-5.01401c-3.97149,0.36406 -5.95726,0.68396 -5.95726,0.95977l-1.07563,3.82259h-0.11592c-4.6886,-0.8605 -7.03288,-1.379 -7.03288,-1.55551c3.73984,-11.69387 5.88555,-18.25238 6.43717,-19.67551zM224.03117,179.42092h3.5909l-1.32383,-5.24569c-1.02599,0 -1.53899,0.19857 -1.53899,0.59571c-0.16546,0.80533 -0.40816,2.35533 -0.72809,4.64998z" id="path1004"/><path d="M243.95488,167.90354l7.28108,1.29075l-0.69501,5.527c1.44519,-0.07727 2.50427,-0.11592 3.17722,-0.11592h1.05908l0.23184,-0.11592l0.11592,0.23184c-0.23168,3.35372 -0.43025,5.24018 -0.59574,5.65938l-0.23152,-0.13225c-0.16546,0 -1.65478,-0.07718 -4.46797,-0.23152c-0.15435,2.59252 -0.27017,5.6925 -0.34751,9.29996l-0.23152,0.11592c-3.55229,-0.23168 -5.67043,-0.43025 -6.35443,-0.59571l0.11592,-0.46336c0,-0.95977 0.15444,-3.93838 0.46336,-8.93587c-2.97861,-0.16546 -4.46793,-0.36403 -4.46793,-0.59574c0.15435,-3.68467 0.35291,-5.527 0.59571,-5.527l4.35211,0.82739v-1.42313c0,-1.15834 -0.0441,-2.7249 -0.13225,-4.69962c0.08815,0 0.13225,-0.03865 0.13225,-0.11592z" data-paper-data="{&quot;origPos&quot;:null}" id="path1006"/><path d="M264.29229,167.90354c0.06619,0.09926 0.37508,3.12204 0.92669,9.06828c4.25835,-1.30177 6.52539,-1.95266 6.8012,-1.95266l4.21973,2.87935c-0.68396,6.2882 -1.13077,9.96186 -1.34039,11.02093l-5.85796,0.19854c0,-0.06619 -0.03865,-0.09926 -0.11592,-0.09926l0.11592,-0.4137c0,-0.89358 0.13238,-3.60746 0.39714,-8.14159c-1.61065,-0.06619 -2.80761,-0.09926 -3.5909,-0.09926h-0.4137c0.47438,5.04161 0.71157,7.78857 0.71157,8.24088l-5.56012,0.82739c-0.20965,-0.70606 -1.44522,-7.29764 -3.70673,-19.77478c0,-0.35305 0.8605,-0.62882 2.58148,-0.82739c2.17332,-0.61781 3.78397,-0.92669 4.83199,-0.92669z" id="path1008"/><path d="M284.46428,172.91756c4.19213,1.12526 6.41507,1.80926 6.66882,2.05195c2.30566,3.26547 3.60193,5.14642 3.88875,5.64286c-1.48932,4.72167 -2.34429,7.08252 -2.56492,7.08252c-4.96438,1.15834 -7.5624,1.73752 -7.79408,1.73752c-4.10391,-2.39395 -6.28824,-3.72879 -6.553,-4.0046c-0.14346,-4.45689 -0.21519,-6.91702 -0.21519,-7.38039c-0.06619,-0.13235 -0.09926,-0.23162 -0.09926,-0.2978c4.23625,-3.22134 6.4261,-4.83203 6.56952,-4.83203zM284.14982,178.97411c-0.06619,0.4413 -0.16546,2.04645 -0.2978,4.81547l3.69021,0.82739c0.88257,-2.75798 1.32383,-4.23074 1.32383,-4.4183c-2.93449,-0.88257 -4.50655,-1.32383 -4.71617,-1.32383z" id="path1010"/><path d="M311.22231,172.90103l5.51048,3.78948c-0.38612,6.2882 -0.65642,9.96186 -0.81087,11.02093c-0.63984,0.07727 -2.58698,0.19312 -5.84143,0.34751l-0.11592,-0.23184l-0.57918,-8.83659l-0.23152,-0.11592c-2.1071,0.45231 -3.55783,0.79428 -4.35214,1.02596c0.22066,3.76191 0.33098,6.4813 0.33098,8.15815c-3.28753,0.91565 -5.08574,1.37346 -5.39462,1.37346c-2.14021,-9.42129 -3.21033,-14.39668 -3.21033,-14.92623c4.65549,-0.60675 7.18182,-0.91014 7.57895,-0.91014v0.11592c0.07727,0.05508 0.19312,1.20241 0.34751,3.44197c4.26936,-2.83521 6.52543,-4.25281 6.76812,-4.25281z" id="path1012"/><path d="M338.44364,167.90354c0.24269,0.26476 2.60907,1.99678 7.09907,5.19605v0.09926c-0.91565,3.77295 -1.51689,5.92968 -1.80372,6.47025l-3.49161,2.01888c4.13699,2.98966 6.22202,4.54517 6.25513,4.66651c-1.46726,0.70606 -3.72883,1.73202 -6.78468,3.07791c-3.54124,-4.84301 -5.31188,-7.31971 -5.31188,-7.43002h-0.19854c-0.07727,2.83521 -0.11592,4.78236 -0.11592,5.84143c-0.04419,0.49644 -0.149,0.74464 -0.31445,0.74464h-4.98093c-0.23168,0 -0.5847,-3.07791 -1.05908,-9.23374c-0.22063,-1.34589 -0.54057,-4.45692 -0.95977,-9.33304c1.2797,-0.27581 5.16845,-0.98183 11.66627,-2.11814zM333.8764,172.57005v0.09926c0,0.67295 0.03865,3.07791 0.11592,7.2149h0.09926c2.69182,-0.62882 4.03771,-1.05353 4.03771,-1.2742l0.94322,-4.23625z" id="path1014"/><path d="M354.95852,172.91756c4.19213,1.12526 6.41507,1.80926 6.66882,2.05195c2.30566,3.26547 3.60193,5.14642 3.88875,5.64286c-1.48932,4.72167 -2.34429,7.08252 -2.56492,7.08252c-4.96438,1.15834 -7.5624,1.73752 -7.79408,1.73752c-4.10391,-2.39395 -6.28824,-3.72879 -6.553,-4.0046c-0.14346,-4.45689 -0.21519,-6.91702 -0.21519,-7.38039c-0.06619,-0.13235 -0.09926,-0.23162 -0.09926,-0.2978c4.23625,-3.22134 6.4261,-4.83203 6.56952,-4.83203zM354.64407,178.97411c-0.06619,0.4413 -0.16546,2.04645 -0.2978,4.81547l3.69021,0.82739c0.88257,-2.75798 1.32383,-4.23074 1.32383,-4.4183c-2.93449,-0.88257 -4.50655,-1.32383 -4.71617,-1.32383z" id="path1016"/><path d="M375.95787,172.90103l0.11592,0.21519l-2.23397,11.84832h0.11592l5.6925,-1.67134v-6.70193c0.022,-0.15457 0.09373,-0.23184 0.21519,-0.23184c4.28042,0.29787 6.66332,0.44681 7.14874,0.44681c0,0.07727 0.03865,0.11592 0.11592,0.11592c0,1.88646 -0.59574,5.7973 -1.78719,11.7325c0,0.34199 -1.70995,0.60125 -5.12983,0.77776c-0.17654,-0.20965 -0.32548,-0.65642 -0.44681,-1.34039c-4.37971,0.89358 -6.87844,1.34039 -7.49621,1.34039c-3.49714,-2.60353 -5.24572,-3.94392 -5.24572,-4.02113c0.59574,-7.82165 0.97082,-11.88144 1.12526,-12.17931h0.09926c2.79109,-0.07727 5.36151,-0.18758 7.71134,-0.33095z" id="path1018"/><path d="M403.49362,172.90103l5.51048,3.78948c-0.38612,6.2882 -0.65642,9.96186 -0.81087,11.02093c-0.63984,0.07727 -2.58698,0.19312 -5.8414,0.34751l-0.11592,-0.23184l-0.57916,-8.83659l-0.23184,-0.11592c-2.1071,0.45231 -3.55779,0.79428 -4.35211,1.02596c0.22063,3.76191 0.33095,6.4813 0.33095,8.15815c-3.28753,0.91565 -5.08574,1.37346 -5.39462,1.37346c-2.14021,-9.42129 -3.21029,-14.39668 -3.21029,-14.92623c4.65549,-0.60675 7.18178,-0.91014 7.57895,-0.91014v0.11592c0.07727,0.05508 0.19312,1.20241 0.34751,3.44197c4.26936,-2.83521 6.52539,-4.25281 6.76809,-4.25281z" id="path1020"/><path d="M420.65385,167.88699h0.09926c1.44084,0.12113 7.47966,-0.5354 7.47966,0.97633l2.20089,19.47694c0,0.14346 -2.20089,0.50752 -6.60263,1.09215l-0.09926,-0.21519v-1.7706c-3.79498,1.02596 -6.39856,1.6879 -7.81064,1.98573c-3.35372,-4.74374 -5.11331,-7.27004 -5.27877,-7.57895c2.47116,-4.49 3.78948,-6.76258 3.95494,-6.81776l6.93362,0.33098c-0.14346,-0.84946 -0.43582,-3.3427 -0.87705,-7.47969zM417.57594,179.75186c1.11421,3.40886 1.80923,5.2788 2.08503,5.60975l3.29303,-2.86279c-0.34197,-1.97471 -0.59571,-2.96208 -0.7612,-2.96208h-4.40175c-0.14346,0.022 -0.21519,0.09373 -0.21519,0.21519z" id="path1022"/><path d="M447.04782,169.4425c3.75086,0.4192 5.62627,0.684 5.62627,0.79432c0.04419,8.25191 0.06629,14.56218 0.06629,18.93083v0.13225l-0.06629,0.13225l-5.82487,-0.19854c0,-0.04419 -0.0221,-0.06629 -0.06629,-0.06629c0.26479,-7.38039 0.39717,-11.30775 0.39717,-11.78213l-1.98577,1.91957c-0.11038,-0.06619 -1.65484,-1.69891 -4.63342,-4.89821c2.33877,-1.85335 4.50104,-3.50817 6.48681,-4.96438z" data-paper-data="{&quot;origPos&quot;:null}" id="path1024"/></g></g></g></g></svg>