<svg xmlns="http://www.w3.org/2000/svg" xmlns:xlink="http://www.w3.org/1999/xlink" version="1.1" width="39.826948470782895" height="33.389814681720395" viewBox="0.11313601984994615 0.3401060368062755 39.826948470782895 33.389814681720395">
  <defs>
    <radialGradient id="grad_1" cx="0.4299" cy="0.4257" r="0.7465900000000001">
      <stop offset="0" stop-color="#FFFBC6" stop-opacity="1"/>
      <stop offset="1" stop-color="#E6D380" stop-opacity="1"/>
    </radialGradient>
    <radialGradient id="grad_2" cx="0.25379999999999997" cy="0.19690000000000002" r="1.04403">
      <stop offset="0" stop-color="#FFFBC6" stop-opacity="1"/>
      <stop offset="1" stop-color="#E6D380" stop-opacity="1"/>
    </radialGradient>
    <radialGradient id="grad_3" cx="0.4482" cy="0.49" r="0.71734">
      <stop offset="0" stop-color="#4F492C" stop-opacity="1"/>
      <stop offset="1" stop-color="#000000" stop-opacity="1"/>
    </radialGradient>
    <radialGradient id="grad_4" cx="0.4482" cy="0.49" r="0.71734">
      <stop offset="0" stop-color="#4F492C" stop-opacity="1"/>
      <stop offset="1" stop-color="#000000" stop-opacity="1"/>
    </radialGradient>
    <radialGradient id="grad_5" cx="0.4057" cy="0.19579999999999997" r="1.04546">
      <stop offset="0" stop-color="#43F665" stop-opacity="1"/>
      <stop offset="1" stop-color="#36C651" stop-opacity="1"/>
    </radialGradient>
    <radialGradient id="grad_6" cx="0.5215" cy="0.1844" r="1.0602800000000001">
      <stop offset="0" stop-color="#FFFFFF" stop-opacity="1"/>
      <stop offset="1" stop-color="#E5E5E5" stop-opacity="1"/>
    </radialGradient>
  <radialGradient id="grad_1-0.8257243037223816,0,0,1,218.05,-161.6" cx="22.1834" cy="22.9287" r="22.4478" gradientUnits="userSpaceOnUse">
      <stop offset="0" stop-color="#FFFBC6" stop-opacity="1"/>
      <stop offset="1" stop-color="#E6D380" stop-opacity="1"/>
    </radialGradient><radialGradient id="grad_2-1,0,0,1,255.7,-165.25" cx="35.6006" cy="16.4989" r="15.5074" gradientUnits="userSpaceOnUse">
      <stop offset="0" stop-color="#FFFBC6" stop-opacity="1"/>
      <stop offset="1" stop-color="#E6D380" stop-opacity="1"/>
    </radialGradient><radialGradient id="grad_3-1,0,0,1,255.45,-165.4" cx="33.3006" cy="21.75" r="6.2652" gradientUnits="userSpaceOnUse">
      <stop offset="0" stop-color="#4F492C" stop-opacity="1"/>
      <stop offset="1" stop-color="#000000" stop-opacity="1"/>
    </radialGradient><radialGradient id="grad_4-1.348266839981079,0,0,0.9077160358428955,319.8,-146.6" cx="20.2395" cy="23.1794" r="7.3294" gradientUnits="userSpaceOnUse">
      <stop offset="0" stop-color="#4F492C" stop-opacity="1"/>
      <stop offset="1" stop-color="#000000" stop-opacity="1"/>
    </radialGradient><radialGradient id="grad_5-0.8559701442718506,0,0,0.9666550755500793,224.65,-155.2" cx="22.9029" cy="4.9047" r="30.6509" gradientUnits="userSpaceOnUse">
      <stop offset="0" stop-color="#43F665" stop-opacity="1"/>
      <stop offset="1" stop-color="#36C651" stop-opacity="1"/>
    </radialGradient><radialGradient id="grad_6-0.924096405506134,0,0,1,241.95,-160.7" cx="19.195" cy="16.0316" r="31.1575" gradientUnits="userSpaceOnUse">
      <stop offset="0" stop-color="#FFFFFF" stop-opacity="1"/>
      <stop offset="1" stop-color="#E5E5E5" stop-opacity="1"/>
    </radialGradient></defs>
  <!-- Exported by Scratch - http://scratch.mit.edu/ -->
  <g id="ID0.7068605101667345">
    <path id="ID0.15607240749523044" fill="url(#grad_1-0.8257243037223816,0,0,1,218.05,-161.6)" stroke="none" stroke-linecap="round" d="M 25.5737 17.1 C 22.3121 17.495 19.0826 16.699 15.8714 16.7 C 11.4596 17.216 6.7571 16.466 2.7424 18.65 C 1.4501 19.355 2.1759 22.393 2.8662 23.95 C 4.052 26.612 5.7191 29.435 8.027 30.7 C 11.7816 32.659 15.9796 33.217 20.1652 33.15 C 24.383 33.083 29.2192 32.001 32.3355 30.146 C 35.4526 28.29 37.3815 25.728 37.3815 22.9 C 37.3815 20.072 34.7565 16.834 32.3355 15.654 C 30.0425 14.535 27.8452 16.828 25.5737 17.1 Z " stroke-width="0.9170116209072303"/>
    <path id="ID0.7226808085106313" fill="url(#grad_2-1,0,0,1,255.7,-165.25)" stroke="none" d="M 32.4 13.25 C 30.607 13.25 28.982 14.174 27.805 15.668 C 26.628 17.161 25.9 19.224 25.9 21.5 C 25.9 23.776 26.628 25.839 27.805 27.332 C 28.982 28.826 30.607 29.75 32.4 29.75 C 34.193 29.75 35.818 28.826 36.995 27.332 C 38.172 25.839 38.9 23.776 38.9 21.5 C 38.9 19.224 38.172 17.161 36.995 15.668 C 35.818 14.174 34.193 13.25 32.4 13.25 Z " stroke-width="1"/>
    <path id="ID0.21181316301226616" fill="url(#grad_3-1,0,0,1,255.45,-165.4)" stroke="none" d="M 32.925 16.85 C 31.925 16.85 31.019 17.41 30.362 18.315 C 29.706 19.221 29.3 20.471 29.3 21.85 C 29.3 23.229 29.706 24.479 30.362 25.385 C 31.019 26.29 31.925 26.85 32.925 26.85 C 33.925 26.85 34.831 26.29 35.488 25.385 C 36.144 24.479 36.55 23.229 36.55 21.85 C 36.55 20.471 36.144 19.221 35.488 18.315 C 34.831 17.41 33.925 16.85 32.925 16.85 Z " stroke-width="1"/>
    <path id="ID0.21181316301226616" fill="url(#grad_4-1.348266839981079,0,0,0.9077160358428955,319.8,-146.6)" stroke="none" d="M 19.7769 18.8312 C 18.1617 19.0791 16.266 19.3713 15.2939 20.2836 C 14.431 21.0887 14.9151 22.2579 15.0243 23.2791 C 15.1389 24.3266 15.1443 25.2996 16.1029 26.3653 C 16.8647 27.1877 18.3545 27.8703 19.7769 27.9084 C 21.1036 27.9438 22.3467 27.4001 23.2325 26.5786 C 24.117 25.7562 24.6563 24.4854 24.6644 23.3698 C 24.6752 21.9011 24.6361 20.2446 23.3835 19.0582 C 22.6555 18.4055 20.9229 18.6561 19.7769 18.8312 Z " stroke-width="1.1492980191227395"/>
    <path id="ID0.26931737549602985" fill="url(#grad_5-0.8559701442718506,0,0,0.9666550755500793,224.65,-155.2)" stroke="none" stroke-linecap="round" d="M 19.7307 0.9148 C 15.3473 0.908 10.345 1.6698 7.0196 4.9264 C 3.933 8.0303 3.4451 13.46 2.4829 18.0246 C 2.2424 19.1633 3.0642 19.5819 4.0237 19.8129 C 7.8593 20.7361 11.8156 21.751 15.7505 21.0696 C 20.4712 20.2518 24.6209 16.7786 29.1892 15.4146 C 31.6861 14.6906 36.2732 17.0657 36.7646 14.8588 C 37.4348 11.8351 34.8557 7.5257 31.7725 5.0018 C 28.6885 2.4769 23.9464 0.9216 19.7307 0.9148 Z " stroke-width="0.9129914903687499"/>
    <path id="ID0.9385899971239269" fill="none" stroke="#2B9638" stroke-width="1" stroke-linecap="round" d="M 4.65 17.95 L 8.9 15.55 L 9.15 18.8 L 9 15.65 L 14.5 6.95 "/>
    <path id="ID0.9385899971239269" fill="none" stroke="#2B9638" stroke-width="1" stroke-linecap="round" d="M 31 15.6 L 26.75 13.2 L 26.5 16.45 L 26.65 13.3 L 23.55 6.6 "/>
    <path id="ID0.5838042767718434" fill="url(#grad_6-0.924096405506134,0,0,1,241.95,-160.7)" stroke="none" stroke-linecap="round" d="M 38.7874 18.2 C 39.2273 18.155 39.5017 17.442 39.2957 17.1 C 38.658 16.05 37.672 14.966 36.4772 14.65 C 34.2787 14.04 31.8752 13.853 29.5926 14.45 C 25.8325 15.434 22.6592 18.415 18.8731 19.3 C 16.0703 19.948 12.9386 19.33 10.0018 18.95 C 7.4319 18.618 4.7917 16.475 2.2394 17.3 C 0.9318 17.675 0.0188 21.006 1.3153 21.65 C 6.1308 24.05 11.7567 25.096 17.0249 24.45 C 22.7968 23.741 27.8932 19.225 33.6125 17.6 C 35.3156 17.116 37.0621 18.372 38.7874 18.2 Z " stroke-width="0.9627964911312663"/>
    <path id="ID0.8476383532397449" fill="none" stroke="#2B9638" stroke-width="1" stroke-linecap="round" d="M 28.55 3.45 L 23.25 6.65 L 14.75 7.15 L 9.45 3.65 "/>
  </g>
</svg>