<svg version="1.1" xmlns="http://www.w3.org/2000/svg" xmlns:xlink="http://www.w3.org/1999/xlink" width="41.48334" height="41.48334"><defs><linearGradient x1="240" y1="159.25833" x2="240" y2="200.74167" gradientUnits="userSpaceOnUse" id="color-1"><stop offset="0" stop-color="#ad4718"/><stop offset="1" stop-color="#a83e0d"/></linearGradient></defs><g transform="translate(-219.25833,-159.25833)"><g data-paper-data="{&quot;isPaintingLayer&quot;:true}" fill="none" fill-rule="nonzero" stroke="none" stroke-width="none" stroke-linecap="butt" stroke-linejoin="miter" stroke-miterlimit="10" stroke-dasharray="" stroke-dashoffset="0" font-family="none" font-weight="none" font-size="none" text-anchor="none" style="mix-blend-mode: normal"><path d="M219.25833,159.25833h41.48334v41.48334h-41.48334z" data-paper-data="{&quot;origPos&quot;:null}" id="ID0.9625837923958898" fill="url(#color-1)" stroke-width="0.90186"/><path d="M221.45717,197.35029c0.31458,0 0.59968,0.12736 0.8059,0.33454c0.20718,0.20622 0.33454,0.49135 0.33454,0.8059c0,0.31458 -0.12736,0.59968 -0.33454,0.8059c-0.20622,0.20718 -0.49135,0.33454 -0.8059,0.33454c-0.31458,0 -0.59968,-0.12736 -0.8059,-0.33454c-0.20718,-0.20622 -0.33454,-0.49135 -0.33454,-0.8059c0,-0.31458 0.12736,-0.59968 0.33454,-0.8059c0.20622,-0.20718 0.49135,-0.33454 0.8059,-0.33454z" data-paper-data="{&quot;origPos&quot;:null}" id="ID0.22321769315749407" fill="#762b09" stroke-width="1"/><path d="M259.34873,197.68483c0.20718,0.20622 0.33454,0.49134 0.33454,0.8059c0,0.31457 -0.12736,0.59968 -0.33454,0.8059c-0.20622,0.20718 -0.49134,0.33454 -0.8059,0.33454c-0.31457,0 -0.59968,-0.12736 -0.8059,-0.33454c-0.20718,-0.20622 -0.33454,-0.49134 -0.33454,-0.8059c0,-0.31457 0.12736,-0.59968 0.33454,-0.8059c0.20622,-0.20718 0.49134,-0.33454 0.8059,-0.33454c0.31457,0 0.59968,0.12736 0.8059,0.33454z" data-paper-data="{&quot;origPos&quot;:null,&quot;index&quot;:null}" id="ID0.22321769315749407" fill="#762b09" stroke-width="1"/><path d="M220.65127,162.31517c-0.20718,-0.20622 -0.33454,-0.49134 -0.33454,-0.8059c0,-0.31457 0.12736,-0.59968 0.33454,-0.8059c0.20622,-0.20718 0.49134,-0.33454 0.8059,-0.33454c0.31457,0 0.59968,0.12736 0.8059,0.33454c0.20718,0.20622 0.33454,0.49134 0.33454,0.8059c0,0.31457 -0.12736,0.59968 -0.33454,0.8059c-0.20622,0.20718 -0.49134,0.33454 -0.8059,0.33454c-0.31457,0 -0.59968,-0.12736 -0.8059,-0.33454z" data-paper-data="{&quot;origPos&quot;:null,&quot;index&quot;:null}" id="ID0.22321769315749407" fill="#762b09" stroke-width="1"/><path d="M258.54283,162.6497c-0.31458,0 -0.59968,-0.12736 -0.8059,-0.33454c-0.20718,-0.20622 -0.33454,-0.49135 -0.33454,-0.8059c0,-0.31458 0.12736,-0.59968 0.33454,-0.8059c0.20622,-0.20718 0.49135,-0.33454 0.8059,-0.33454c0.31458,0 0.59968,0.12736 0.8059,0.33454c0.20718,0.20622 0.33454,0.49135 0.33454,0.8059c0,0.31458 -0.12736,0.59968 -0.33454,0.8059c-0.20622,0.20718 -0.49135,0.33454 -0.8059,0.33454z" data-paper-data="{&quot;origPos&quot;:null,&quot;index&quot;:null}" id="ID0.22321769315749407" fill="#762b09" stroke-width="1"/></g></g></svg>