<svg version="1.1" xmlns="http://www.w3.org/2000/svg" xmlns:xlink="http://www.w3.org/1999/xlink" width="86.30527" height="107.77295" viewBox="0,0,86.30527,107.77295"><defs><linearGradient x1="240.00001" y1="188.76587" x2="240.00001" y2="229.12858" gradientUnits="userSpaceOnUse" id="color-1"><stop offset="0" stop-color="#777777"/><stop offset="1" stop-color="#6a6a6a"/></linearGradient><linearGradient x1="238.89576" y1="126.11352" x2="238.89576" y2="185.03736" gradientUnits="userSpaceOnUse" id="color-2"><stop offset="0" stop-color="#c7c7c7"/><stop offset="1" stop-color="#777777"/></linearGradient></defs><g transform="translate(-196.84736,-126.11352)"><g data-paper-data="{&quot;isPaintingLayer&quot;:true}" fill-rule="nonzero" stroke="none" stroke-linejoin="miter" stroke-miterlimit="10" stroke-dasharray="" stroke-dashoffset="0" style="mix-blend-mode: normal"><path d="M204.5706,184.00798h70.85881l7.72323,49.8785h-86.30527z" fill="#4f4f4f" stroke-width="1" stroke-linecap="butt"/><path d="M206.42394,229.12858v-40.36271h67.15211v40.36271z" fill="url(#color-1)" stroke-width="0" stroke-linecap="butt"/><text transform="translate(218.10374,210.99015) scale(0.17707,0.17707)" font-size="40" xml:space="preserve" fill="#dbdbdb" fill-rule="nonzero" stroke="none" stroke-width="1" stroke-linecap="butt" stroke-linejoin="miter" stroke-miterlimit="10" stroke-dasharray="" stroke-dashoffset="0" font-family="Sans Serif" font-weight="normal" text-anchor="start" style="mix-blend-mode: normal"><tspan x="0" dy="0">L is real 2401</tspan></text><path d="M208.69358,149.94948l-1.11031,-1.40639l0.96227,-2.88702l1.70258,-0.7402h17.54389l7.69859,-17.39584l1.70258,-1.4065l1.70258,0.07402l2.07269,1.55454l8.29075,16.95172l17.76606,-0.29608l1.7766,1.03629l1.40639,1.70258l-1.40639,3.03506l-10.14149,11.76994l2.96104,17.83997l0.14804,2.813l-1.85062,0.96227l-3.25713,-0.59216l-17.02574,-11.84396l-14.50881,13.32448l-3.25713,0.59216l-2.36877,-1.25846l-0.81422,-3.47919l1.70247,-16.58149z" fill="url(#color-2)" stroke-width="1.27408" stroke-linecap="round"/></g></g></svg>