<svg version="1.1" xmlns="http://www.w3.org/2000/svg" xmlns:xlink="http://www.w3.org/1999/xlink" width="68.24608" height="65.4322"><defs><radialGradient cx="241.12608" cy="180.242" r="44.91475" gradientUnits="userSpaceOnUse" id="color-1"><stop offset="0" stop-color="#fff343"/><stop offset="1" stop-color="#fff343" stop-opacity="0"/></radialGradient><radialGradient cx="239.25001" cy="179.75" r="30.55837" gradientUnits="userSpaceOnUse" id="color-2"><stop offset="0" stop-color="#ffffff" stop-opacity="0"/><stop offset="1" stop-color="#ffffff"/></radialGradient><linearGradient x1="242.16632" y1="172.95949" x2="242.16632" y2="185.42793" gradientUnits="userSpaceOnUse" id="color-3"><stop offset="0" stop-color="#000000"/><stop offset="1" stop-color="#674205"/></linearGradient><linearGradient x1="231.67654" y1="172.90279" x2="231.67654" y2="185.37122" gradientUnits="userSpaceOnUse" id="color-4"><stop offset="0" stop-color="#000000"/><stop offset="1" stop-color="#674205"/></linearGradient><linearGradient x1="242.16632" y1="172.95949" x2="242.16632" y2="185.42793" gradientUnits="userSpaceOnUse" id="color-5"><stop offset="0" stop-color="#000000"/><stop offset="1" stop-color="#674205"/></linearGradient><linearGradient x1="231.67654" y1="172.90279" x2="231.67654" y2="185.37122" gradientUnits="userSpaceOnUse" id="color-6"><stop offset="0" stop-color="#000000"/><stop offset="1" stop-color="#674205"/></linearGradient></defs><g transform="translate(-205.877,-147.28391)"><g data-paper-data="{&quot;isPaintingLayer&quot;:true}" fill="none" fill-rule="nonzero" stroke="none" stroke-width="none" stroke-linecap="none" stroke-linejoin="miter" stroke-miterlimit="10" stroke-dasharray="" stroke-dashoffset="0" font-family="none" font-weight="none" font-size="none" text-anchor="none" style="mix-blend-mode: normal"><path d="M207.08702,173.75263l-1.21001,-1.56178l1.04875,-3.20591l1.85538,-0.82194c0,0 12.14772,2.76736 17.86851,-1.25c5.72079,-4.01736 9.63967,-18.0673 9.63967,-18.0673l1.85539,-1.56179l1.85539,0.08211l2.25865,1.72622c0,0 4.24989,12.56752 10.78494,16.82411c6.53506,4.25659 17.61062,1.67124 17.61062,1.67124l1.93613,1.15081l1.53265,1.89066l-1.53265,3.37023c0,0 -8.07076,7.09711 -9.55169,13.32004c-1.48093,6.22293 1.72677,19.56049 1.72677,19.56049l0.16126,3.12358l-2.01664,1.06859l-3.54951,-0.65751c0,0 -10.06464,-11.80838 -18.55387,-11.40226c-8.48923,0.40612 -15.81111,13.04626 -15.81111,13.04626l-3.5494,0.65763l-2.58151,-1.39747l-0.88727,-3.86341c0,0 2.97741,-11.09613 0.85539,-17.66314c-2.12202,-6.56701 -11.74584,-16.03946 -11.74584,-16.03946z" data-paper-data="{&quot;origPos&quot;:null}" id="ID0.3117544511333108" fill="url(#color-1)" stroke-width="1.43627" stroke-linecap="round"/><path d="M210.84191,174.71156l-1.08357,-1.37251l0.93909,-2.8175l1.66158,-0.72237c0,0 10.37921,1.19034 15.37136,-2.25c4.99215,-3.44034 9.26318,-14.72689 9.26318,-14.72689l1.66158,-1.37263l1.66159,0.07224l2.02277,1.51711c0,0 4.26939,10.23201 9.84108,13.79346c5.5717,3.56145 15.58819,2.46105 15.58819,2.46105l1.73382,1.01133l1.37251,1.66158l-1.37251,2.96197c0,0 -6.51892,7.05268 -7.89725,12.73648c-1.37833,5.6838 0.88973,16.16031 0.88973,16.16031l0.14447,2.74526l-1.80606,0.93909l-3.17869,-0.5779c0,0 -9.25982,-10.16581 -16.8657,-9.80872c-7.60588,0.35709 -13.90939,11.25359 -13.90939,11.25359l-3.17869,0.5779l-2.31172,-1.22816l-0.79461,-3.3954c0,0 1.63702,-10.18236 -0.33853,-16.18216c-1.97555,-5.9998 -9.41423,-13.43713 -9.41423,-13.43713z" data-paper-data="{&quot;origPos&quot;:null}" id="ID0.3117544511333108" fill="url(#color-2)" stroke-width="1.27408" stroke-linecap="round"/><g data-paper-data="{&quot;origPos&quot;:null}" id="ID0.4398073833435774" stroke-width="2.7674"><path d="M244.71676,172.96062c0.79631,-0.03073 1.58992,0.62848 1.92423,1.44146c0.60648,1.47548 0.67168,3.23459 0.62633,4.87758c-0.03118,1.51654 0.06127,1.91767 -0.51686,3.27374c-0.33159,0.79586 -3.90814,0.46044 -4.31617,-0.57107c-0.52142,-1.30481 -0.26797,-1.03588 -0.26797,-2.87346c0,-1.83769 0.18984,-3.34052 0.76797,-4.70679c0.37967,-0.90178 1.10522,-1.47219 1.78247,-1.44146z" data-paper-data="{&quot;origPos&quot;:null}" id="ID0.6670762049034238" fill="url(#color-3)" stroke-linecap="round"/><path d="M244.84059,173.92659c0.41098,0 0.78214,0.20152 1.05136,0.52597c0.26922,0.32456 0.43649,0.77205 0.43649,1.26728c0,0.49523 -0.16727,0.94272 -0.43649,1.26717c-0.26922,0.32456 -0.64038,0.52607 -1.05136,0.52607c-0.41086,0 -0.78214,-0.20152 -1.05136,-0.52607c-0.26922,-0.32444 -0.43637,-0.77194 -0.43637,-1.26717c0,-0.49523 0.16716,-0.94272 0.43637,-1.26728c0.26922,-0.32444 0.64049,-0.52597 1.05136,-0.52597z" id="ID0.2271407265216112" fill="#ffffff" stroke-linecap="butt"/></g><g data-paper-data="{&quot;origPos&quot;:null}" id="ID0.4398073833435774" stroke-width="2.7674"><path d="M234.22698,172.90392c0.79631,-0.03073 1.58991,0.62848 1.92422,1.44146c0.60648,1.47548 0.67168,3.23459 0.62633,4.87758c-0.03118,1.51654 0.06128,1.751 -0.51685,3.10708c-0.33159,0.79586 -3.57481,1.12712 -3.98284,0.0956c-0.52142,-1.30481 -0.6013,-1.53588 -0.6013,-3.37346c0,-1.83769 0.18984,-3.34051 0.76797,-4.70679c0.37967,-0.90178 1.10522,-1.47219 1.78247,-1.44146z" data-paper-data="{&quot;origPos&quot;:null}" id="ID0.6670762049034238" fill="url(#color-4)" stroke-linecap="round"/><path d="M234.40751,173.81319c0.41098,0 0.78214,0.20152 1.05136,0.52596c0.26922,0.32456 0.43649,0.77205 0.43649,1.26728c0,0.49523 -0.16727,0.94272 -0.43649,1.26717c-0.26922,0.32456 -0.64039,0.52608 -1.05136,0.52608c-0.41086,0 -0.78214,-0.20152 -1.05136,-0.52608c-0.26922,-0.32444 -0.43637,-0.77194 -0.43637,-1.26717c0,-0.49523 0.16715,-0.94272 0.43637,-1.26728c0.26922,-0.32444 0.6405,-0.52596 1.05136,-0.52596z" id="ID0.2271407265216112" fill="#ffffff" stroke-linecap="butt"/></g><g data-paper-data="{&quot;origPos&quot;:null}" id="ID0.4398073833435774" stroke-width="2.7674"><path d="M244.71676,172.96062c0.79631,-0.03073 1.58992,0.62848 1.92423,1.44146c0.60648,1.47548 0.67168,3.23459 0.62633,4.87758c-0.03118,1.51654 -0.27206,1.91767 -0.85019,3.27374c-0.33159,0.79586 -3.40815,0.62711 -3.81618,-0.4044c-0.52142,-1.30481 -0.43463,-1.20254 -0.43463,-3.04012c0,-1.83769 0.18984,-3.34052 0.76797,-4.70679c0.37967,-0.90178 1.10522,-1.47219 1.78247,-1.44146z" data-paper-data="{&quot;origPos&quot;:null}" id="ID0.6670762049034238" fill="url(#color-5)" stroke-linecap="round"/><path d="M244.84059,173.92659c0.41098,0 0.78214,0.20152 1.05136,0.52597c0.26922,0.32456 0.43649,0.77205 0.43649,1.26728c0,0.49523 -0.16727,0.94272 -0.43649,1.26717c-0.26922,0.32456 -0.64038,0.52607 -1.05136,0.52607c-0.41086,0 -0.78214,-0.20152 -1.05136,-0.52607c-0.26922,-0.32444 -0.43637,-0.77194 -0.43637,-1.26717c0,-0.49523 0.16716,-0.94272 0.43637,-1.26728c0.26922,-0.32444 0.64049,-0.52597 1.05136,-0.52597z" id="ID0.2271407265216112" fill="#ffffff" stroke-linecap="butt"/></g><g data-paper-data="{&quot;origPos&quot;:null}" id="ID0.4398073833435774" stroke-width="2.7674"><path d="M234.22697,172.90392c0.79631,-0.03073 1.58991,0.62848 1.92422,1.44146c0.60648,1.47548 0.67168,3.23459 0.62633,4.87758c-0.03118,1.51654 0.06128,1.91767 -0.51685,3.27375c-0.33159,0.79586 -3.74147,1.29378 -4.1495,0.26226c-0.52142,-1.30481 -0.43464,-1.86921 -0.43464,-3.70679c0,-1.83769 0.18984,-3.34051 0.76797,-4.70679c0.37967,-0.90178 1.10522,-1.47219 1.78247,-1.44146z" data-paper-data="{&quot;origPos&quot;:null}" id="ID0.6670762049034238" fill="url(#color-6)" stroke-linecap="round"/><path d="M234.4075,173.81319c0.41098,0 0.78214,0.20152 1.05136,0.52596c0.26922,0.32456 0.43649,0.77205 0.43649,1.26728c0,0.49523 -0.16727,0.94272 -0.43649,1.26717c-0.26922,0.32456 -0.64039,0.52608 -1.05136,0.52608c-0.41086,0 -0.78214,-0.20152 -1.05136,-0.52608c-0.26922,-0.32444 -0.43637,-0.77194 -0.43637,-1.26717c0,-0.49523 0.16715,-0.94272 0.43637,-1.26728c0.26922,-0.32444 0.6405,-0.52596 1.05136,-0.52596z" id="ID0.2271407265216112" fill="#ffffff" stroke-linecap="butt"/></g></g></g></svg>