<svg version="1.1" xmlns="http://www.w3.org/2000/svg" xmlns:xlink="http://www.w3.org/1999/xlink" width="441.55828" height="69.66968" viewBox="0,0,441.55828,69.66968"><defs><linearGradient x1="24.5327" y1="284.2076" x2="24.5327" y2="341.819" gradientUnits="userSpaceOnUse" id="color-1"><stop offset="0" stop-color="#ffffff"/><stop offset="1" stop-color="#ffffff"/></linearGradient><radialGradient cx="433.55778" cy="324.91029" r="18.72682" gradientUnits="userSpaceOnUse" id="color-2"><stop offset="0" stop-color="#ffff00"/><stop offset="1" stop-color="#ff9400"/></radialGradient><radialGradient cx="437.13623" cy="326.02495" r="12.81669" gradientUnits="userSpaceOnUse" id="color-3"><stop offset="0" stop-color="#bda501"/><stop offset="1" stop-color="#c07801"/></radialGradient></defs><g transform="translate(-18.50356,-278.17846)"><g data-paper-data="{&quot;isPaintingLayer&quot;:true}" fill="none" fill-rule="nonzero" stroke="none" stroke-width="none" stroke-linecap="butt" stroke-linejoin="miter" stroke-miterlimit="10" stroke-dasharray="" stroke-dashoffset="0" font-family="none" font-weight="none" font-size="none" text-anchor="none" style="mix-blend-mode: normal"><path d="M24.5327,284.2076h429.5v57.6114h-429.5z" data-paper-data="{&quot;origPos&quot;:null}" id="ID0.3184669064357877" fill="#ffffff" stroke="url(#color-1)" stroke-width="12.05828"/><text transform="translate(25.78827,322.12447) scale(0.7218,0.72179)" font-size="22" xml:space="preserve" data-paper-data="{&quot;origPos&quot;:null}" id="ID0.08681221166625619" fill="#2492d1" fill-rule="nonzero" stroke="none" stroke-width="1" stroke-linecap="butt" stroke-linejoin="miter" stroke-miterlimit="10" stroke-dasharray="" stroke-dashoffset="0" font-family="Sans Serif" font-weight="400" text-anchor="start" style="mix-blend-mode: normal"><tspan x="0" dy="0">Get three 1-up mushrooms.</tspan></text><g data-paper-data="{&quot;origPos&quot;:null}" id="text40" fill="#2392d1" stroke="none" stroke-width="0.26458"><path d="M30.70188,285.34043c3.55818,0.58356 5.45479,0.92399 5.68984,1.02126c1.33736,2.59365 2.06682,4.03636 2.1884,4.32815c0,0.05672 -0.64842,0.68895 -1.94525,1.89663c0.08105,0.14588 0.72946,1.11852 1.94525,2.91786v0.04862c-0.04864,0.21074 -0.82673,1.62103 -2.3343,4.23091h-5.83572c-0.154,-0.11346 -1.25631,-1.23196 -3.30691,-3.35554c0.40527,-0.37284 1.52377,-1.29683 3.35554,-2.77198c0.154,0.154 0.83482,1.22388 2.04251,3.20965h0.04862l1.60482,-1.41031c-0.13779,-0.20262 -0.75378,-0.93209 -1.84798,-2.1884l1.70208,-2.33429l-1.21578,-1.79936c-1.48324,2.01008 -2.24514,3.01512 -2.28566,3.01512c-2.1884,-1.41029 -3.4528,-2.25323 -3.79324,-2.52881c2.26945,-2.46397 3.59871,-3.8905 3.98774,-4.27953z" id="path732"/><path d="M46.16657,287.63825l0.08511,0.15802l-1.64131,8.70497h0.08511l4.18227,-1.22792v-4.92391c0.01621,-0.11346 0.0689,-0.17018 0.15806,-0.17018c3.14482,0.21886 4.89552,0.32828 5.25216,0.32828c0,0.05672 0.02837,0.08509 0.08511,0.08509c0,1.38598 -0.43768,4.25928 -1.31305,8.61987c0,0.25125 -1.2563,0.44172 -3.7689,0.57141c-0.12969,-0.154 -0.23911,-0.48226 -0.32826,-0.98477c-3.21775,0.65652 -5.05358,0.98477 -5.50747,0.98477c-2.56933,-1.91282 -3.85401,-2.89761 -3.85401,-2.95433c0.43767,-5.74658 0.71325,-8.7293 0.82673,-8.94814h0.07295c2.05061,-0.05672 3.93911,-0.13777 5.66552,-0.24315z" id="path734"/><path d="M61.70419,287.6504c0.25127,1.03747 0.42552,1.67777 0.52278,1.92094c3.58249,-0.81863 5.47504,-1.22793 5.67769,-1.22793c2.43966,3.50954 3.65948,5.34131 3.65948,5.49531l-2.79629,5.93299l-6.0181,-0.96046v0.18233c0.4701,3.60682 0.70516,5.5237 0.70516,5.75064c-0.05674,0 -0.08511,0.02837 -0.08511,0.08509c-0.58358,-0.05672 -1.02125,-0.08509 -1.31304,-0.08509h-1.04557c-0.60789,0 -1.53999,-0.02837 -2.79629,-0.08509c-0.11348,-0.34041 -0.98479,-5.51558 -2.61391,-15.52548c0.27558,-0.11346 2.30997,-0.60787 6.1032,-1.48324zM62.14188,292.62293c0.1621,1.8642 0.308,2.79629 0.43767,2.79629c1.66156,0.57546 2.67875,0.8632 3.05159,0.8632l0.96046,-4.18227h-0.08511c-0.94831,0.05672 -2.40318,0.23099 -4.36464,0.52278z" id="path736"/></g><g stroke="none"><text transform="translate(283,338.98128) scale(0.60677,0.60677)" font-size="40" xml:space="preserve" data-paper-data="{&quot;origPos&quot;:null}" fill="#2392d1" fill-rule="nonzero" stroke="none" stroke-width="1" stroke-linecap="butt" stroke-linejoin="miter" stroke-miterlimit="10" stroke-dasharray="" stroke-dashoffset="0" font-family="Sans Serif" font-weight="normal" text-anchor="start" style="mix-blend-mode: normal"><tspan x="0" dy="0">Reward:   +5</tspan></text><path d="M438.22633,321.71811c2.42757,0 4.62707,0.98611 6.21986,2.5789c1.5928,1.59272 2.57884,3.79221 2.57884,6.21979c0,2.4275 -0.98603,4.62709 -2.57884,6.21981c-1.5928,1.5928 -3.79229,2.5789 -6.21986,2.5789c-2.4275,0 -4.62699,-0.98611 -6.2198,-2.5789c-1.5928,-1.59272 -2.5789,-3.79231 -2.5789,-6.21981c0,-2.42757 0.98611,-4.62706 2.5789,-6.21979c1.5928,-1.5928 3.7923,-2.5789 6.2198,-2.5789z" data-paper-data="{&quot;origPos&quot;:null}" id="ID0.7142658131197095" fill="url(#color-2)" stroke-width="0.48028"/><path d="M436.38196,323.73549h3.47092v13.31086h-3.47092z" data-paper-data="{&quot;origPos&quot;:null}" id="ID0.06001657713204622" fill="url(#color-3)" stroke-width="0.59798"/></g></g></g></svg>