<svg version="1.1" xmlns="http://www.w3.org/2000/svg" xmlns:xlink="http://www.w3.org/1999/xlink" width="35.30526" height="35.30526" viewBox="0,0,35.30526,35.30526"><defs><linearGradient x1="240.08888" y1="163.06125" x2="240.08888" y2="197.11651" gradientUnits="userSpaceOnUse" id="color-1"><stop offset="0" stop-color="#9d3bed"/><stop offset="1" stop-color="#7c31be"/></linearGradient></defs><g transform="translate(-222.43625,-162.43625)"><g data-paper-data="{&quot;isPaintingLayer&quot;:true}" fill-rule="nonzero" stroke-linejoin="miter" stroke-miterlimit="10" stroke-dasharray="" stroke-dashoffset="0" style="mix-blend-mode: normal"><path d="M240.08888,163.06125c4.69771,0 8.95515,1.90752 12.0371,4.99053c3.08301,3.08195 4.99053,7.33939 4.99053,12.0371c0,4.69771 -1.90752,8.95515 -4.99053,12.0371c-3.08195,3.08301 -7.33939,4.99053 -12.0371,4.99053c-4.69771,0 -8.95515,-1.90752 -12.0371,-4.99053c-3.08301,-3.08195 -4.99053,-7.33939 -4.99053,-12.0371c0,-4.69771 1.90752,-8.95515 4.99053,-12.0371c3.08195,-3.08301 7.33939,-4.99053 12.0371,-4.99053z" data-paper-data="{&quot;origPos&quot;:null}" id="ID0.4039921844378114" fill="url(#color-1)" stroke="#5f238c" stroke-width="1.25" stroke-linecap="butt"/><g stroke="#5f238c" stroke-linecap="round"><g id="ID0.29553776467218995" fill="none" stroke-width="4.5"><g id="ID0.37869906052947044"><path d="M234.92118,185.86533l-6.61562,-0.04926v-12.46621v-0.12466l16.73987,0.12466v2.70368" id="ID0.08591015869751573"/></g></g><path d="M247.80614,178.04413l-11.54196,11.54197" fill="none" stroke-width="4.5"/><path d="M248.38235,175.0706l-0.0216,-3.46717" fill="none" stroke-width="3.5"/><path d="M252.78404,173.4182l-2.71346,2.59013" fill="none" stroke-width="3.5"/><path d="M232.36829,177.09886l0.74004,-1.97342l0.86337,1.97342l2.52845,0.06167l-2.15843,1.35673l0.74004,2.15843l-1.91176,-1.35673l-1.72675,1.4184l0.55503,-1.97343l-2.03509,-1.54174z" fill="#ffffff" stroke-width="2.5"/><path d="M239.5976,177.02556l0.51663,-1.37768l0.60273,1.37768l1.76515,0.04305l-1.50683,0.94716l0.51663,1.50683l-1.33462,-0.94715l-1.20546,0.99021l0.38746,-1.37767l-1.42073,-1.07631z" fill="#ffffff" stroke-width="2.5"/><path d="M236.25619,181.33712l0.61805,-1.64813l0.72106,1.64813l2.11168,0.0515l-1.80265,1.13309l0.61805,1.80265l-1.59664,-1.13309l-1.44212,1.1846l0.46354,-1.64814l-1.69964,-1.2876z" fill="#ffffff" stroke-width="2.5"/><path d="M250.63814,177.73871l3.46681,0.05375" fill="none" stroke-width="3.5"/></g><g stroke-linecap="round"><g id="ID0.29553776467218995" fill="none" stroke="#ffffff" stroke-width="2"><g id="ID0.37869906052947044"><path d="M234.92118,185.86533l-6.61562,-0.04927v-12.46621v-0.12466l16.73987,0.12466v2.70368" id="ID0.08591015869751573"/></g></g><path d="M236.26418,189.58609l11.54197,-11.54197" fill="none" stroke="#ffffff" stroke-width="2"/><path d="M248.38235,175.0706l-0.0216,-3.46717" fill="none" stroke="#ffffff" stroke-width="1"/><path d="M250.07058,176.00832l2.71346,-2.59012" fill="none" stroke="#ffffff" stroke-width="1"/><path d="M232.36829,177.09886l0.74004,-1.97343l0.86337,1.97343l2.52845,0.06167l-2.15844,1.35673l0.74004,2.15844l-1.91176,-1.35673l-1.72675,1.4184l0.55502,-1.97343l-2.03509,-1.54174z" fill="#ffffff" stroke="#7f7f7f" stroke-width="0"/><path d="M239.5976,177.02556l0.51663,-1.37768l0.60273,1.37768l1.76515,0.04305l-1.50683,0.94716l0.51663,1.50683l-1.33462,-0.94715l-1.20546,0.9902l0.38747,-1.37767l-1.42073,-1.07631z" fill="#ffffff" stroke="#7f7f7f" stroke-width="0"/><path d="M236.25618,181.33712l0.61805,-1.64814l0.72106,1.64814l2.11167,0.0515l-1.80265,1.1331l0.61805,1.80265l-1.59663,-1.1331l-1.44212,1.1846l0.46354,-1.64814l-1.69964,-1.28761z" fill="#ffffff" stroke="#7f7f7f" stroke-width="0"/><path d="M250.63814,177.73871l3.46682,0.05375" fill="none" stroke="#ffffff" stroke-width="1"/></g></g></g></svg>