<svg version="1.1" xmlns="http://www.w3.org/2000/svg" xmlns:xlink="http://www.w3.org/1999/xlink" width="145" height="166.91667" viewBox="0,0,145,166.91667"><g transform="translate(-167.5,-59.25)"><g data-paper-data="{&quot;isPaintingLayer&quot;:true}" fill-rule="nonzero" stroke-linejoin="miter" stroke-miterlimit="10" stroke-dasharray="" stroke-dashoffset="0" style="mix-blend-mode: normal"><g fill="none" stroke="#b03405" stroke-width="5.5"><path d="M200.7359,62h79.0282v27.91794h-79.0282z" data-paper-data="{&quot;origPos&quot;:null}" stroke-linecap="butt"/><path d="M284.26225,67.41667l21.75245,23.66667h-21.75245z" data-paper-data="{&quot;origPos&quot;:null}" stroke-linecap="round"/><path d="M196.34804,90.75h-21.75245l21.75245,-23.66667z" data-paper-data="{&quot;index&quot;:null}" stroke-linecap="round"/></g><path d="M170,95h140v128.66667h-140z" fill="#c95206" stroke="#b03405" stroke-width="5" stroke-linecap="butt"/><path d="M201.25,95.75h-31.25l31.25,-34z" data-paper-data="{&quot;index&quot;:null}" fill="#c95206" stroke="none" stroke-width="1" stroke-linecap="round"/><path d="M200.7359,62h79.0282v37.58461h-79.0282z" fill="#c95206" stroke="none" stroke-width="1" stroke-linecap="butt"/><path d="M279,61.75l31.25,34h-31.25z" fill="#c95206" stroke="none" stroke-width="1" stroke-linecap="round"/><path d="M170,95h140v131h-140z" fill="#c95206" stroke="none" stroke-width="1" stroke-linecap="butt"/><g data-paper-data="{&quot;index&quot;:null}" stroke="none" stroke-linecap="butt"><path d="M221.55,166.5c-6.21321,0 -11.25,-5.0368 -11.25,-11.25c0,-6.2132 5.03679,-11.25 11.25,-11.25c6.21321,0 11.25,5.0368 11.25,11.25c0,6.2132 -5.03679,11.25 -11.25,11.25z" data-paper-data="{&quot;origPos&quot;:null}" fill="#ffd400" stroke-width="0"/><path d="M199.09882,72.4c1.207,0 2.301,0.49 3.093,1.282c0.792,0.792 1.282,1.886 1.282,3.093c0,1.207 -0.49,2.301 -1.282,3.093c-0.792,0.792 -1.886,1.282 -3.093,1.282c-1.207,0 -2.301,-0.49 -3.093,-1.282c-0.792,-0.792 -1.282,-1.886 -1.282,-3.093c0,-1.207 0.49,-2.301 1.282,-3.093c0.792,-0.792 1.886,-1.282 3.093,-1.282z" data-paper-data="{&quot;origPos&quot;:null}" fill="#dd7821" stroke-width="1"/><path d="M225.51568,64.07801c1.207,0 2.301,0.49 3.093,1.282c0.792,0.792 1.282,1.886 1.282,3.093c0,1.207 -0.49,2.301 -1.282,3.093c-0.792,0.792 -1.886,1.282 -3.093,1.282c-1.207,0 -2.301,-0.49 -3.093,-1.282c-0.792,-0.792 -1.282,-1.886 -1.282,-3.093c0,-1.207 0.49,-2.301 1.282,-3.093c0.792,-0.792 1.886,-1.282 3.093,-1.282z" data-paper-data="{&quot;origPos&quot;:null}" fill="#dd7821" stroke-width="1"/><path d="M225.74882,95.0718c1.207,0 2.301,0.49 3.093,1.282c0.792,0.792 1.282,1.886 1.282,3.093c0,1.207 -0.49,2.301 -1.282,3.093c-0.792,0.792 -1.886,1.282 -3.093,1.282c-1.207,0 -2.301,-0.49 -3.093,-1.282c-0.792,-0.792 -1.282,-1.886 -1.282,-3.093c0,-1.207 0.49,-2.301 1.282,-3.093c0.792,-0.792 1.886,-1.282 3.093,-1.282z" data-paper-data="{&quot;origPos&quot;:null}" fill="#dd7821" stroke-width="1"/><path d="M225.68196,125.51539c1.207,0 2.301,0.49 3.093,1.282c0.792,0.792 1.282,1.886 1.282,3.093c0,1.207 -0.49,2.301 -1.282,3.093c-0.792,0.792 -1.886,1.282 -3.093,1.282c-1.207,0 -2.301,-0.49 -3.093,-1.282c-0.792,-0.792 -1.282,-1.886 -1.282,-3.093c0,-1.207 0.49,-2.301 1.282,-3.093c0.792,-0.792 1.886,-1.282 3.093,-1.282z" data-paper-data="{&quot;origPos&quot;:null}" fill="#dd7821" stroke-width="1"/><path d="M225.25741,185.1577c1.207,0 2.301,0.49 3.093,1.282c0.792,0.792 1.282,1.886 1.282,3.093c0,1.207 -0.49,2.301 -1.282,3.093c-0.792,0.792 -1.886,1.282 -3.093,1.282c-1.207,0 -2.301,-0.49 -3.093,-1.282c-0.792,-0.792 -1.282,-1.886 -1.282,-3.093c0,-1.207 0.49,-2.301 1.282,-3.093c0.792,-0.792 1.886,-1.282 3.093,-1.282z" data-paper-data="{&quot;origPos&quot;:null}" fill="#dd7821" stroke-width="1"/><path d="M225.17151,212.35798c1.207,0 2.301,0.49 3.093,1.282c0.792,0.792 1.282,1.886 1.282,3.093c0,1.207 -0.49,2.301 -1.282,3.093c-0.792,0.792 -1.886,1.282 -3.093,1.282c-1.207,0 -2.301,-0.49 -3.093,-1.282c-0.792,-0.792 -1.282,-1.886 -1.282,-3.093c0,-1.207 0.49,-2.301 1.282,-3.093c0.792,-0.792 1.886,-1.282 3.093,-1.282z" data-paper-data="{&quot;origPos&quot;:null}" fill="#dd7821" stroke-width="1"/><path d="M180.95231,94.87413c1.207,0 2.301,0.49 3.093,1.282c0.792,0.792 1.282,1.886 1.282,3.093c0,1.207 -0.49,2.301 -1.282,3.093c-0.792,0.792 -1.886,1.282 -3.093,1.282c-1.207,0 -2.301,-0.49 -3.093,-1.282c-0.792,-0.792 -1.282,-1.886 -1.282,-3.093c0,-1.207 0.49,-2.301 1.282,-3.093c0.792,-0.792 1.886,-1.282 3.093,-1.282z" data-paper-data="{&quot;origPos&quot;:null}" fill="#dd7821" stroke-width="1"/><path d="M180.88545,125.31772c1.207,0 2.301,0.49 3.093,1.282c0.792,0.792 1.282,1.886 1.282,3.093c0,1.207 -0.49,2.301 -1.282,3.093c-0.792,0.792 -1.886,1.282 -3.093,1.282c-1.207,0 -2.301,-0.49 -3.093,-1.282c-0.792,-0.792 -1.282,-1.886 -1.282,-3.093c0,-1.207 0.49,-2.301 1.282,-3.093c0.792,-0.792 1.886,-1.282 3.093,-1.282z" data-paper-data="{&quot;origPos&quot;:null}" fill="#dd7821" stroke-width="1"/><path d="M180.43052,155.80233c1.207,0 2.301,0.49 3.093,1.282c0.792,0.792 1.282,1.886 1.282,3.093c0,1.207 -0.49,2.301 -1.282,3.093c-0.792,0.792 -1.886,1.282 -3.093,1.282c-1.207,0 -2.301,-0.49 -3.093,-1.282c-0.792,-0.792 -1.282,-1.886 -1.282,-3.093c0,-1.207 0.49,-2.301 1.282,-3.093c0.792,-0.792 1.886,-1.282 3.093,-1.282z" data-paper-data="{&quot;origPos&quot;:null}" fill="#dd7821" stroke-width="1"/><path d="M180.4609,184.96003c1.207,0 2.301,0.49 3.093,1.282c0.792,0.792 1.282,1.886 1.282,3.093c0,1.207 -0.49,2.301 -1.282,3.093c-0.792,0.792 -1.886,1.282 -3.093,1.282c-1.207,0 -2.301,-0.49 -3.093,-1.282c-0.792,-0.792 -1.282,-1.886 -1.282,-3.093c0,-1.207 0.49,-2.301 1.282,-3.093c0.792,-0.792 1.886,-1.282 3.093,-1.282z" data-paper-data="{&quot;origPos&quot;:null}" fill="#dd7821" stroke-width="1"/><path d="M180.375,212.07432c1.207,0 2.301,0.49 3.093,1.282c0.792,0.792 1.282,1.886 1.282,3.093c0,1.207 -0.49,2.301 -1.282,3.093c-0.792,0.792 -1.886,1.282 -3.093,1.282c-1.207,0 -2.301,-0.49 -3.093,-1.282c-0.792,-0.792 -1.282,-1.886 -1.282,-3.093c0,-1.207 0.49,-2.301 1.282,-3.093c0.792,-0.792 1.886,-1.282 3.093,-1.282z" data-paper-data="{&quot;origPos&quot;:null}" fill="#dd7821" stroke-width="1"/><path d="M203.09882,212.57199c1.207,0 2.301,0.49 3.093,1.282c0.792,0.792 1.282,1.886 1.282,3.093c0,1.207 -0.49,2.301 -1.282,3.093c-0.792,0.792 -1.886,1.282 -3.093,1.282c-1.207,0 -2.301,-0.49 -3.093,-1.282c-0.792,-0.792 -1.282,-1.886 -1.282,-3.093c0,-1.207 0.49,-2.301 1.282,-3.093c0.792,-0.792 1.886,-1.282 3.093,-1.282z" data-paper-data="{&quot;origPos&quot;:null}" fill="#dd7821" stroke-width="1"/></g><path d="M236,62.0684h8.25v164h-8.25z" fill="#b03405" stroke="none" stroke-width="1.14943" stroke-linecap="round"/><g stroke="none" stroke-linecap="butt"><path d="M247.5,155.25c0,-6.2132 5.03679,-11.25 11.25,-11.25c6.21321,0 11.25,5.0368 11.25,11.25c0,6.2132 -5.03679,11.25 -11.25,11.25c-6.21321,0 -11.25,-5.0368 -11.25,-11.25z" data-paper-data="{&quot;origPos&quot;:null}" fill="#ffd400" stroke-width="0"/><path d="M284.29418,73.682c0.792,0.792 1.282,1.886 1.282,3.093c0,1.207 -0.49,2.301 -1.282,3.093c-0.792,0.792 -1.886,1.282 -3.093,1.282c-1.207,0 -2.301,-0.49 -3.093,-1.282c-0.792,-0.792 -1.282,-1.886 -1.282,-3.093c0,-1.207 0.49,-2.301 1.282,-3.093c0.792,-0.792 1.886,-1.282 3.093,-1.282c1.207,0 2.301,0.49 3.093,1.282z" data-paper-data="{&quot;origPos&quot;:null}" fill="#dd7821" stroke-width="1"/><path d="M257.87732,65.36002c0.792,0.792 1.282,1.886 1.282,3.093c0,1.207 -0.49,2.301 -1.282,3.093c-0.792,0.792 -1.886,1.282 -3.093,1.282c-1.207,0 -2.301,-0.49 -3.093,-1.282c-0.792,-0.792 -1.282,-1.886 -1.282,-3.093c0,-1.207 0.49,-2.301 1.282,-3.093c0.792,-0.792 1.886,-1.282 3.093,-1.282c1.207,0 2.301,0.49 3.093,1.282z" data-paper-data="{&quot;origPos&quot;:null}" fill="#dd7821" stroke-width="1"/><path d="M257.64418,96.3538c0.792,0.792 1.282,1.886 1.282,3.093c0,1.207 -0.49,2.301 -1.282,3.093c-0.792,0.792 -1.886,1.282 -3.093,1.282c-1.207,0 -2.301,-0.49 -3.093,-1.282c-0.792,-0.792 -1.282,-1.886 -1.282,-3.093c0,-1.207 0.49,-2.301 1.282,-3.093c0.792,-0.792 1.886,-1.282 3.093,-1.282c1.207,0 2.301,0.49 3.093,1.282z" data-paper-data="{&quot;origPos&quot;:null}" fill="#dd7821" stroke-width="1"/><path d="M257.71104,126.79739c0.792,0.792 1.282,1.886 1.282,3.093c0,1.207 -0.49,2.301 -1.282,3.093c-0.792,0.792 -1.886,1.282 -3.093,1.282c-1.207,0 -2.301,-0.49 -3.093,-1.282c-0.792,-0.792 -1.282,-1.886 -1.282,-3.093c0,-1.207 0.49,-2.301 1.282,-3.093c0.792,-0.792 1.886,-1.282 3.093,-1.282c1.207,0 2.301,0.49 3.093,1.282z" data-paper-data="{&quot;origPos&quot;:null}" fill="#dd7821" stroke-width="1"/><path d="M258.13559,186.4397c0.792,0.792 1.282,1.886 1.282,3.093c0,1.207 -0.49,2.301 -1.282,3.093c-0.792,0.792 -1.886,1.282 -3.093,1.282c-1.207,0 -2.301,-0.49 -3.093,-1.282c-0.792,-0.792 -1.282,-1.886 -1.282,-3.093c0,-1.207 0.49,-2.301 1.282,-3.093c0.792,-0.792 1.886,-1.282 3.093,-1.282c1.207,0 2.301,0.49 3.093,1.282z" data-paper-data="{&quot;origPos&quot;:null}" fill="#dd7821" stroke-width="1"/><path d="M258.22149,213.63997c0.792,0.792 1.282,1.886 1.282,3.093c0,1.207 -0.49,2.301 -1.282,3.093c-0.792,0.792 -1.886,1.282 -3.093,1.282c-1.207,0 -2.301,-0.49 -3.093,-1.282c-0.792,-0.792 -1.282,-1.886 -1.282,-3.093c0,-1.207 0.49,-2.301 1.282,-3.093c0.792,-0.792 1.886,-1.282 3.093,-1.282c1.207,0 2.301,0.49 3.093,1.282z" data-paper-data="{&quot;origPos&quot;:null}" fill="#dd7821" stroke-width="1"/><path d="M302.44069,96.15613c0.792,0.792 1.282,1.886 1.282,3.093c0,1.207 -0.49,2.301 -1.282,3.093c-0.792,0.792 -1.886,1.282 -3.093,1.282c-1.207,0 -2.301,-0.49 -3.093,-1.282c-0.792,-0.792 -1.282,-1.886 -1.282,-3.093c0,-1.207 0.49,-2.301 1.282,-3.093c0.792,-0.792 1.886,-1.282 3.093,-1.282c1.207,0 2.301,0.49 3.093,1.282z" data-paper-data="{&quot;origPos&quot;:null}" fill="#dd7821" stroke-width="1"/><path d="M302.50755,126.59972c0.792,0.792 1.282,1.886 1.282,3.093c0,1.207 -0.49,2.301 -1.282,3.093c-0.792,0.792 -1.886,1.282 -3.093,1.282c-1.207,0 -2.301,-0.49 -3.093,-1.282c-0.792,-0.792 -1.282,-1.886 -1.282,-3.093c0,-1.207 0.49,-2.301 1.282,-3.093c0.792,-0.792 1.886,-1.282 3.093,-1.282c1.207,0 2.301,0.49 3.093,1.282z" data-paper-data="{&quot;origPos&quot;:null}" fill="#dd7821" stroke-width="1"/><path d="M302.96248,157.08433c0.792,0.792 1.282,1.886 1.282,3.093c0,1.207 -0.49,2.301 -1.282,3.093c-0.792,0.792 -1.886,1.282 -3.093,1.282c-1.207,0 -2.301,-0.49 -3.093,-1.282c-0.792,-0.792 -1.282,-1.886 -1.282,-3.093c0,-1.207 0.49,-2.301 1.282,-3.093c0.792,-0.792 1.886,-1.282 3.093,-1.282c1.207,0 2.301,0.49 3.093,1.282z" data-paper-data="{&quot;origPos&quot;:null}" fill="#dd7821" stroke-width="1"/><path d="M302.9321,186.24203c0.792,0.792 1.282,1.886 1.282,3.093c0,1.207 -0.49,2.301 -1.282,3.093c-0.792,0.792 -1.886,1.282 -3.093,1.282c-1.207,0 -2.301,-0.49 -3.093,-1.282c-0.792,-0.792 -1.282,-1.886 -1.282,-3.093c0,-1.207 0.49,-2.301 1.282,-3.093c0.792,-0.792 1.886,-1.282 3.093,-1.282c1.207,0 2.301,0.49 3.093,1.282z" data-paper-data="{&quot;origPos&quot;:null}" fill="#dd7821" stroke-width="1"/><path d="M303.018,213.35631c0.792,0.792 1.282,1.886 1.282,3.093c0,1.207 -0.49,2.301 -1.282,3.093c-0.792,0.792 -1.886,1.282 -3.093,1.282c-1.207,0 -2.301,-0.49 -3.093,-1.282c-0.792,-0.792 -1.282,-1.886 -1.282,-3.093c0,-1.207 0.49,-2.301 1.282,-3.093c0.792,-0.792 1.886,-1.282 3.093,-1.282c1.207,0 2.301,0.49 3.093,1.282z" data-paper-data="{&quot;origPos&quot;:null}" fill="#dd7821" stroke-width="1"/><path d="M280.29418,213.85398c0.792,0.792 1.282,1.886 1.282,3.093c0,1.207 -0.49,2.301 -1.282,3.093c-0.792,0.792 -1.886,1.282 -3.093,1.282c-1.207,0 -2.301,-0.49 -3.093,-1.282c-0.792,-0.792 -1.282,-1.886 -1.282,-3.093c0,-1.207 0.49,-2.301 1.282,-3.093c0.792,-0.792 1.886,-1.282 3.093,-1.282c1.207,0 2.301,0.49 3.093,1.282z" data-paper-data="{&quot;origPos&quot;:null}" fill="#dd7821" stroke-width="1"/></g></g></g></svg>