<svg version="1.1" xmlns="http://www.w3.org/2000/svg" xmlns:xlink="http://www.w3.org/1999/xlink" width="29.3" height="29.3" viewBox="0,0,29.3,29.3"><defs><radialGradient cx="246.3794" cy="118.1172" r="25.8476" gradientUnits="userSpaceOnUse" id="color-1"><stop offset="0" stop-color="#ffffff"/><stop offset="1" stop-color="#e5e5e5"/></radialGradient><linearGradient x1="247.1" y1="111.7" x2="247.1" y2="138" gradientUnits="userSpaceOnUse" id="color-2"><stop offset="0" stop-color="#343434"/><stop offset="1" stop-color="#090909"/></linearGradient><linearGradient x1="247.3" y1="118.1" x2="247.3" y2="131.85" gradientUnits="userSpaceOnUse" id="color-3"><stop offset="0" stop-color="#343434"/><stop offset="1" stop-color="#090909"/></linearGradient></defs><g transform="translate(-232.45,-110.2)"><g data-paper-data="{&quot;isPaintingLayer&quot;:true}" fill-rule="nonzero" stroke-linejoin="miter" stroke-miterlimit="10" stroke-dasharray="" stroke-dashoffset="0" style="mix-blend-mode: normal"><path d="M247.1,111.7c3.628,0 6.915,1.474 9.296,3.854c2.38,2.381 3.854,5.668 3.854,9.296c0,3.628 -1.474,6.915 -3.854,9.296c-2.381,2.38 -5.668,3.854 -9.296,3.854c-3.628,0 -6.915,-1.474 -9.296,-3.854c-2.38,-2.381 -3.854,-5.668 -3.854,-9.296c0,-3.628 1.474,-6.915 3.854,-9.296c2.381,-2.38 5.668,-3.854 9.296,-3.854z" fill="url(#color-1)" stroke="url(#color-2)" stroke-width="3" stroke-linecap="butt"/><path d="M242.7,118.1l8.1,0.65l2.5,4.6l-5.25,4.25l4.85,-0.75l1.15,5l-10.75,-0.1l-2.75,-3.5l6.75,-4.8l-6.6,-0.5z" fill="url(#color-3)" stroke="none" stroke-width="1" stroke-linecap="round"/></g></g></svg>