<svg version="1.1" xmlns="http://www.w3.org/2000/svg" xmlns:xlink="http://www.w3.org/1999/xlink" width="532.77967" height="206.7144" viewBox="0,0,532.77967,206.7144"><defs><linearGradient x1="440.5" y1="223.7016" x2="453.5" y2="223.7016" gradientUnits="userSpaceOnUse" id="color-1"><stop offset="0" stop-color="#cc7700"/><stop offset="1" stop-color="#995900"/></linearGradient><linearGradient x1="268" y1="318.9323" x2="281" y2="318.9323" gradientUnits="userSpaceOnUse" id="color-2"><stop offset="0" stop-color="#cc7700"/><stop offset="1" stop-color="#995900"/></linearGradient><linearGradient x1="360.5" y1="275.8742" x2="373.5" y2="275.8742" gradientUnits="userSpaceOnUse" id="color-3"><stop offset="0" stop-color="#cc7700"/><stop offset="1" stop-color="#995900"/></linearGradient><radialGradient cx="140.9358" cy="331.2832" r="269.8654" gradientUnits="userSpaceOnUse" id="color-4"><stop offset="0" stop-color="#6681bd"/><stop offset="1" stop-color="#45577f"/></radialGradient><radialGradient cx="105.9781" cy="294.1284" r="335.2474" gradientUnits="userSpaceOnUse" id="color-5"><stop offset="0" stop-color="#45577f"/><stop offset="1" stop-color="#1f283a"/></radialGradient><radialGradient cx="105.97811" cy="292.18883" r="329.25269" gradientUnits="userSpaceOnUse" id="color-6"><stop offset="0" stop-color="#45577f"/><stop offset="1" stop-color="#1f283a"/></radialGradient><linearGradient x1="231" y1="310" x2="231" y2="324" gradientUnits="userSpaceOnUse" id="color-7"><stop offset="0" stop-color="#b2b2b2"/><stop offset="1" stop-color="#666666"/></linearGradient><linearGradient x1="483.0557" y1="185.1598" x2="491.236" y2="196.5213" gradientUnits="userSpaceOnUse" id="color-8"><stop offset="0" stop-color="#b2b2b2"/><stop offset="1" stop-color="#666666"/></linearGradient></defs><g transform="translate(41.54367,-185.1598)"><g data-paper-data="{&quot;isPaintingLayer&quot;:true}" fill-rule="nonzero" stroke-linejoin="miter" stroke-miterlimit="10" stroke-dasharray="" stroke-dashoffset="0" style="mix-blend-mode: normal"><path d="M440.5,223.7016h13v140h-13z" fill="url(#color-1)" stroke="none" stroke-width="1.06647" stroke-linecap="butt"/><path d="M268,318.9323h13v41h-13z" fill="url(#color-2)" stroke="none" stroke-width="0.74476" stroke-linecap="butt"/><path d="M360.5,275.8742h13v116h-13z" fill="url(#color-3)" stroke="none" stroke-width="0.96828" stroke-linecap="butt"/><path d="M-29.85,308.4691h259.4741v53.6171h-259.4741z" fill="url(#color-4)" stroke="#496087" stroke-width="1.85033" stroke-linecap="butt"/><path d="M98.4587,290.95l137.8456,4l-9.7302,20l-38.0233,20.501l-47.9275,-20.501l-43.7863,29l-46.4891,-30l-45.2247,21.501l-38.0232,-20.501l-7.568,-26z" fill="url(#color-5)" stroke="url(#color-6)" stroke-width="1.60762" stroke-linecap="round"/><path d="M231,310h84v14h-84z" fill="url(#color-7)" stroke="none" stroke-width="1" stroke-linecap="butt"/><path d="M491.236,196.5213l-175.683,126.4917l-8.1802,-11.3614l175.6829,-126.4918z" fill="url(#color-8)" stroke="none" stroke-width="1.95471" stroke-linecap="butt"/></g></g></svg>