<svg version="1.1" xmlns="http://www.w3.org/2000/svg" xmlns:xlink="http://www.w3.org/1999/xlink" width="484.28274" height="317.43558"><defs><linearGradient x1="9.86066" y1="299.39302" x2="30" y2="299.39302" gradientUnits="userSpaceOnUse" id="color-1"><stop offset="0" stop-color="#a3822e"/><stop offset="1" stop-color="#e4b234"/></linearGradient><linearGradient x1="18.98307" y1="223.86562" x2="18.98307" y2="237.86562" gradientUnits="userSpaceOnUse" id="color-2"><stop offset="0" stop-color="#e4b234"/><stop offset="1" stop-color="#a3822e"/></linearGradient><linearGradient x1="88.55762" y1="274.27386" x2="212.62361" y2="274.27386" gradientUnits="userSpaceOnUse" id="color-3"><stop offset="0" stop-color="#636363"/><stop offset="1" stop-color="#777777"/></linearGradient><linearGradient x1="266.38999" y1="265.55698" x2="390.45598" y2="265.55698" gradientUnits="userSpaceOnUse" id="color-4"><stop offset="0" stop-color="#636363"/><stop offset="1" stop-color="#777777"/></linearGradient><linearGradient x1="450.86066" y1="229.39302" x2="471" y2="229.39302" gradientUnits="userSpaceOnUse" id="color-5"><stop offset="0" stop-color="#a3822e"/><stop offset="1" stop-color="#e4b234"/></linearGradient><linearGradient x1="459.98307" y1="85.86562" x2="459.98307" y2="99.86562" gradientUnits="userSpaceOnUse" id="color-6"><stop offset="0" stop-color="#e4b234"/><stop offset="1" stop-color="#a3822e"/></linearGradient></defs><g transform="translate(2.6583,-85.86562)"><g data-paper-data="{&quot;isPaintingLayer&quot;:true}" fill="none" fill-rule="nonzero" stroke="none" stroke-width="none" stroke-linecap="butt" stroke-linejoin="miter" stroke-miterlimit="10" stroke-dasharray="" stroke-dashoffset="0" font-family="none" font-weight="none" font-size="none" text-anchor="none" style="mix-blend-mode: normal"><path d="M9.86066,236.89302h20.13934v125h-20.13934z" data-paper-data="{&quot;origPos&quot;:null}" id="ID0.512201922480017" fill="url(#color-1)" stroke="none" stroke-width="1.54554"/><path d="M-2.6583,223.86562h43.28274v14h-43.28274z" data-paper-data="{&quot;origPos&quot;:null}" id="ID0.8304188074544072" fill="url(#color-2)" stroke="none" stroke-width="1.16442"/><g data-paper-data="{&quot;origPos&quot;:null}" stroke-width="2.5"><path d="M91.55884,185.33917c0.06158,-1.71183 1.46273,0.56544 1.46273,0.40812c0,-0.15732 0.0345,-0.35098 0.07373,-0.54962c0.03924,-0.19864 1.09205,-0.00052 1.63784,-0.00052c2.85164,0 5.70605,-0.00272 8.55769,-0.00272c10.2659,0 20.54636,-0.00841 30.81226,-0.00841c10.2659,0 10.80209,-2.19935 12.84027,-2.19935c5.13295,0 10.27526,0.00085 15.40821,0.00085c10.12331,0 20.26151,0.00751 30.38482,0.00751c3.70712,0 7.41804,0.00346 11.12517,0.00346c0.23281,0 2.55397,0.11375 3.47609,0.06734c0.92211,-0.0464 0.00755,0.03403 0.01077,0.05061c0.00322,0.01659 0.85652,4.39709 0.85652,4.39709c0,0 1.07146,3.43357 1.2206,4.83003c0.31811,2.97863 0.00181,6.3248 0.00181,9.34377c0,6.77705 0.00421,13.56113 0.00421,20.33817c0,2.95337 -1.3701,29.749 -1.67475,31.25935c-0.42425,2.10329 -1.35688,4.0101 -1.74088,6.12611c-0.14328,0.78957 0.2147,1.63039 0.11,2.4299c-0.52814,4.0328 -2.22628,7.74251 -2.67565,11.86749c-0.67381,6.18541 -0.85688,12.37407 -0.85688,18.69733c0,6.32326 1.86554,11.4146 3.84722,15.94441c0.56332,1.28766 3.61774,12.97429 3.86821,17.42992c0.33455,5.95118 1.68623,11.76642 1.68623,17.75043c0,5.67807 -0.00322,11.36061 -0.00322,17.03868c0,1.28215 0.7023,1.03554 0.62595,1.30377c-0.13851,0.48656 -0.78324,2.83885 -0.85591,3.34843c-0.04178,0.293 0.87471,0.19183 0.65694,0.29413c-0.98641,0.46339 -119.40925,-2.76137 -119.92287,-2.73335c-0.32686,0.01783 -0.10907,-3.00162 -0.33073,-3.31074c-0.2898,-0.40416 -0.00031,-1.09934 -0.00031,-1.64883c0,-9.51756 -0.88231,-18.34713 -1.78088,-27.60031c-0.43321,-4.46098 -0.84169,-37.25788 -0.26005,-41.99005c0.73721,-5.99793 1.00938,-12.52767 2.57266,-18.25702c1.68484,-6.17494 2.45553,-12.17604 3.62402,-18.49351c0.99904,-5.4014 1.86332,-12.2475 0.6098,-17.78959c-0.17967,-0.79438 -1.28358,-4.57036 -1.46043,-5.94103c-0.2584,-2.00266 -1.13298,-4.07595 -1.82606,-5.85664c-0.69308,-1.7807 -4.34451,-8.15917 -4.90542,-13.06105c-0.72997,-6.37931 0.94664,-12.14838 1.52627,-18.25715c0.16918,-1.78304 1.23245,-3.52522 1.29403,-5.23704z" data-paper-data="{&quot;noHover&quot;:false,&quot;origItem&quot;:[&quot;Path&quot;,{&quot;applyMatrix&quot;:true,&quot;segments&quot;:[[[658.74342,271.10651],[1.58114,-4.63584],[-1.4196,4.16222]],[[652.55896,274.23721],[0.79611,0.21108],[-1.35509,10.86501]],[[649,306.69939],[-1.70655,-11.34619],[1.31132,8.71844]],[[660.47214,329.92436],[-3.96961,-7.61428],[1.62031,3.16713]],[[664.74342,340.33764],[-0.60409,-3.56191],[0.41346,2.43789]],[[665,347.74683],[-0.85561,-2.32537],[0.50943,1.38451]],[[668.16025,350.90016],[-0.42005,-1.41288],[2.93051,9.85712]],[[666.74342,382.521],[2.33559,-9.60688],[-2.73171,11.23621]],[[658.27578,415.38827],[3.9389,-10.98271],[-3.65467,10.19019]],[[652.25994,447.83682],[1.72349,-10.66786],[-1.35978,8.4166]],[[648.96942,473.38344],[1.76725,-8.31632],[-0.91908,4.32501]],[[644.74342,486.11692],[0.74637,-4.3358],[-0.70052,4.06944]],[[647,499.23144],[-0.2372,-4.13909],[0,8.03727]],[[652.85071,522.47927],[-1.01277,-7.93426],[2.10075,16.45764]],[[657,571.55312],[0,-16.92786],[0,0.97732]],[[657,574.48508],[-0.6775,-0.71884],[0.51819,0.54981]],[[657.7735,572.37383],[-0.76416,0.03172],[1.20077,-0.04984]],[[660.7735,574.32847],[-1.17329,-0.25456],[0.77435,0.168]],[[663,573.50776],[-0.7879,0.08948],[4.47232,-0.50792]],[[678,573.50776],[-4.47441,-0.49211],[3.13358,0.34464]],[[687.21268,575.60831],[-3.13471,-0.33468],[8.09751,0.86454]],[[712,575.4624],[-8.15351,-0.56631],[8.47246,0.58846]],[[737,577.41704],[-8.52543,0],[7.41279,0]],[[758.78639,581.38326],[-7.34938,-0.80636],[6.30233,0.69148]],[[778,581.32632],[-6.30848,-0.74794],[3.6337,0.43082]],[[788.78639,583.3379],[-3.63068,-0.45444],[11.59366,1.45114]],[[825,583.28097],[-11.68851,0],[8.43452,0]],[[850.17221,585.23715],[-8.44897,-0.3025],[19.54858,0.69989]],[[909,585.23561],[-19.5629,0],[6.33333,0]],[[928,585.23561],[-6.33333,0],[2.37345,0]],[[938,585.23561],[-2.30609,0.82418],[0.50911,-0.18195]],[[936.46447,584.71222],[-0.09767,0.52111],[0.16988,-0.90635]],[[938.46447,582.75758],[-0.3238,0.86538],[0.17851,-0.47708]],[[937,583.28097],[0.26552,0.4367],[-1.19197,-1.96041]],[[937,576.43972],[0,2.28041],[0,-10.09897]],[[937,546.1428],[0,10.09897],[0,-10.64311]],[[933.05025,514.58231],[0.78211,10.58473],[-0.58556,-7.92476]],[[929.14794,489.66081],[3.78956,7.37174],[-1.20676,-2.34749]],[[924,483.59432],[1.31695,2.29022],[-4.63287,-8.05669]],[[915,455.25204],[0.43378,9.2215],[0,-11.24649]],[[917,422.02316],[-1.57526,11.00132],[1.05052,-7.33667]],[[923.25658,400.93148],[-1.23472,7.17271],[0.24478,-1.42199]],[[923,396.61284],[-0.33498,1.40432],[0.89775,-3.76352]],[[927.07152,385.72381],[-0.99182,3.74089],[0.71221,-2.68628]],[[927.89003,375.35225],[-0.44389,2.7147],[1.12963,-6.62408]],[[929,355.5654],[-0.83952,6.57699],[0.39036,-3.05813]],[[931.14929,346.56166],[-0.39217,3.05791],[0.66372,-5.17534]],[[931,330.15507],[0,5.25284],[0,-12.05361]],[[931,293.99423],[0,12.05361],[0,-5.36952]],[[931,277.37979],[0.74367,5.29779],[-0.34865,-2.48374]],[[928.14929,268.79177],[0.63195,2.45268],[0,0]],[[926.14929,260.97321],[0,0],[-0.00755,-0.02951]],[[926.12413,260.8832],[0.0092,0.03048],[-2.15576,0.08254]],[[918,260.76535],[0.54429,0],[-8.66667,0]],[[892,260.76535],[8.66667,0],[-23.66667,0]],[[821,260.76535],[23.66667,0],[-12,0]],[[785,260.76535],[12,0],[-4.76495,0]],[[770,260.76535],[4.6894,-0.77104],[-5.24676,0.86268]],[[755,264.67463],[5.5958,-0.3063],[-24,0]],[[683,264.67463],[24,0],[-6.66667,0]],[[663,264.67463],[6.66667,0],[-1.27597,0]],[[659.1721,264.67463],[1.27597,0],[-0.09172,0.3533]],[[659,265.65195],[0,-0.27981],[0,0]],[655.58114,264.9254]],&quot;closed&quot;:true}],&quot;origPos&quot;:null}" fill="url(#color-3)" stroke="#505050"/><path d="M81.5,189.35944v-13.49381h134.31214v13.49381z" data-paper-data="{&quot;origPos&quot;:null}" fill="#b1b1b1" stroke="#6d6d6d"/></g><g data-paper-data="{&quot;origPos&quot;:null}" stroke-width="2.5"><path d="M269.39121,132.08355c0.06158,-2.56911 1.46274,0.84862 1.46274,0.6125c0,-0.23611 0.0345,-0.52676 0.07373,-0.82488c0.03924,-0.29812 1.09205,-0.00077 1.63784,-0.00077c2.85163,0 5.70605,-0.00409 8.55768,-0.00409c10.2659,0 20.54636,-0.01262 30.81225,-0.01262c10.2659,0 10.80209,-3.3008 12.84027,-3.3008c5.13295,0 10.27526,0.00128 15.40821,0.00128c10.12331,0 20.26151,0.01127 30.38482,0.01127c3.70713,0 7.41804,0.00518 11.12517,0.00518c0.23282,0 2.55397,0.17072 3.47609,0.10107c0.92212,-0.06964 0.00754,0.05106 0.01077,0.07595c0.00322,0.02491 0.85652,6.59916 0.85652,6.59916c0,0 1.07146,5.15311 1.2206,7.24893c0.31811,4.47034 0.00182,9.49228 0.00182,14.02316c0,10.17102 0.00421,20.35258 0.00421,30.52358c0,4.43242 -1.37011,44.64739 -1.67476,46.91413c-0.42424,3.15662 -1.35688,6.01837 -1.74088,9.19409c-0.14328,1.18499 0.21471,2.4469 0.11,3.6468c-0.52814,6.05243 -2.22628,11.61998 -2.67565,17.81076c-0.67381,9.28308 -0.85688,18.57105 -0.85688,28.06101c0,9.48996 1.86553,17.13107 3.84722,23.92941c0.56333,1.93252 3.61775,19.47184 3.86822,26.15887c0.33455,8.93155 1.68622,17.65907 1.68622,26.6399c0,8.52167 -0.00321,17.05004 -0.00321,25.57171c0,1.92426 0.70231,1.55414 0.62595,1.95671c-0.13851,0.73023 -0.78324,4.26055 -0.85591,5.02534c-0.04178,0.43973 0.87471,0.28791 0.65693,0.44144c-0.98642,0.69545 -119.40925,-4.14427 -119.92287,-4.10222c-0.32686,0.02677 -0.10908,-4.50484 -0.33074,-4.96877c-0.2898,-0.60656 -0.00031,-1.6499 -0.00031,-2.47457c0,-14.28398 -0.8823,-27.53542 -1.78088,-41.42262c-0.43321,-6.69504 -0.8417,-55.91672 -0.26006,-63.01878c0.73721,-9.0017 1.00939,-18.80157 2.57266,-27.40019c1.68484,-9.26737 2.45554,-18.27384 3.62402,-27.75512c0.99905,-8.10643 1.86332,-18.38109 0.6098,-26.69868c-0.17967,-1.19221 -1.28358,-6.8592 -1.46044,-8.91632c-0.2584,-3.0056 -1.13298,-6.11719 -1.82607,-8.78966c-0.69308,-2.67248 -4.34451,-12.2453 -4.90542,-19.60205c-0.72996,-9.57409 0.94664,-18.23233 1.52627,-27.40039c0.16918,-2.67599 1.23245,-5.29066 1.29403,-7.85976z" data-paper-data="{&quot;noHover&quot;:false,&quot;origItem&quot;:[&quot;Path&quot;,{&quot;applyMatrix&quot;:true,&quot;segments&quot;:[[[658.74342,271.10651],[1.58114,-4.63584],[-1.4196,4.16222]],[[652.55896,274.23721],[0.79611,0.21108],[-1.35509,10.86501]],[[649,306.69939],[-1.70655,-11.34619],[1.31132,8.71844]],[[660.47214,329.92436],[-3.96961,-7.61428],[1.62031,3.16713]],[[664.74342,340.33764],[-0.60409,-3.56191],[0.41346,2.43789]],[[665,347.74683],[-0.85561,-2.32537],[0.50943,1.38451]],[[668.16025,350.90016],[-0.42005,-1.41288],[2.93051,9.85712]],[[666.74342,382.521],[2.33559,-9.60688],[-2.73171,11.23621]],[[658.27578,415.38827],[3.9389,-10.98271],[-3.65467,10.19019]],[[652.25994,447.83682],[1.72349,-10.66786],[-1.35978,8.4166]],[[648.96942,473.38344],[1.76725,-8.31632],[-0.91908,4.32501]],[[644.74342,486.11692],[0.74637,-4.3358],[-0.70052,4.06944]],[[647,499.23144],[-0.2372,-4.13909],[0,8.03727]],[[652.85071,522.47927],[-1.01277,-7.93426],[2.10075,16.45764]],[[657,571.55312],[0,-16.92786],[0,0.97732]],[[657,574.48508],[-0.6775,-0.71884],[0.51819,0.54981]],[[657.7735,572.37383],[-0.76416,0.03172],[1.20077,-0.04984]],[[660.7735,574.32847],[-1.17329,-0.25456],[0.77435,0.168]],[[663,573.50776],[-0.7879,0.08948],[4.47232,-0.50792]],[[678,573.50776],[-4.47441,-0.49211],[3.13358,0.34464]],[[687.21268,575.60831],[-3.13471,-0.33468],[8.09751,0.86454]],[[712,575.4624],[-8.15351,-0.56631],[8.47246,0.58846]],[[737,577.41704],[-8.52543,0],[7.41279,0]],[[758.78639,581.38326],[-7.34938,-0.80636],[6.30233,0.69148]],[[778,581.32632],[-6.30848,-0.74794],[3.6337,0.43082]],[[788.78639,583.3379],[-3.63068,-0.45444],[11.59366,1.45114]],[[825,583.28097],[-11.68851,0],[8.43452,0]],[[850.17221,585.23715],[-8.44897,-0.3025],[19.54858,0.69989]],[[909,585.23561],[-19.5629,0],[6.33333,0]],[[928,585.23561],[-6.33333,0],[2.37345,0]],[[938,585.23561],[-2.30609,0.82418],[0.50911,-0.18195]],[[936.46447,584.71222],[-0.09767,0.52111],[0.16988,-0.90635]],[[938.46447,582.75758],[-0.3238,0.86538],[0.17851,-0.47708]],[[937,583.28097],[0.26552,0.4367],[-1.19197,-1.96041]],[[937,576.43972],[0,2.28041],[0,-10.09897]],[[937,546.1428],[0,10.09897],[0,-10.64311]],[[933.05025,514.58231],[0.78211,10.58473],[-0.58556,-7.92476]],[[929.14794,489.66081],[3.78956,7.37174],[-1.20676,-2.34749]],[[924,483.59432],[1.31695,2.29022],[-4.63287,-8.05669]],[[915,455.25204],[0.43378,9.2215],[0,-11.24649]],[[917,422.02316],[-1.57526,11.00132],[1.05052,-7.33667]],[[923.25658,400.93148],[-1.23472,7.17271],[0.24478,-1.42199]],[[923,396.61284],[-0.33498,1.40432],[0.89775,-3.76352]],[[927.07152,385.72381],[-0.99182,3.74089],[0.71221,-2.68628]],[[927.89003,375.35225],[-0.44389,2.7147],[1.12963,-6.62408]],[[929,355.5654],[-0.83952,6.57699],[0.39036,-3.05813]],[[931.14929,346.56166],[-0.39217,3.05791],[0.66372,-5.17534]],[[931,330.15507],[0,5.25284],[0,-12.05361]],[[931,293.99423],[0,12.05361],[0,-5.36952]],[[931,277.37979],[0.74367,5.29779],[-0.34865,-2.48374]],[[928.14929,268.79177],[0.63195,2.45268],[0,0]],[[926.14929,260.97321],[0,0],[-0.00755,-0.02951]],[[926.12413,260.8832],[0.0092,0.03048],[-2.15576,0.08254]],[[918,260.76535],[0.54429,0],[-8.66667,0]],[[892,260.76535],[8.66667,0],[-23.66667,0]],[[821,260.76535],[23.66667,0],[-12,0]],[[785,260.76535],[12,0],[-4.76495,0]],[[770,260.76535],[4.6894,-0.77104],[-5.24676,0.86268]],[[755,264.67463],[5.5958,-0.3063],[-24,0]],[[683,264.67463],[24,0],[-6.66667,0]],[[663,264.67463],[6.66667,0],[-1.27597,0]],[[659.1721,264.67463],[1.27597,0],[-0.09172,0.3533]],[[659,265.65195],[0,-0.27981],[0,0]],[655.58114,264.9254]],&quot;closed&quot;:true}],&quot;origPos&quot;:null}" fill="url(#color-4)" stroke="#505050"/><path d="M260.18786,134.35944v-13.49381h134.31214v13.49381z" data-paper-data="{&quot;origPos&quot;:null}" fill="#b1b1b1" stroke="#6d6d6d"/></g><path d="M450.86066,97.89302h20.13934v263h-20.13934z" data-paper-data="{&quot;origPos&quot;:null}" id="ID0.512201922480017" fill="url(#color-5)" stroke="none" stroke-width="1.54554"/><path d="M438.3417,85.86562h43.28274v14h-43.28273z" data-paper-data="{&quot;origPos&quot;:null}" id="ID0.8304188074544072" fill="url(#color-6)" stroke="none" stroke-width="1.16442"/></g></g></svg>