<svg version="1.1" xmlns="http://www.w3.org/2000/svg" xmlns:xlink="http://www.w3.org/1999/xlink" width="419.02853" height="271.82406"><defs><linearGradient x1="320.1863" y1="173.8083" x2="320.1863" y2="211.5783" gradientUnits="userSpaceOnUse" id="color-1"><stop offset="0" stop-color="#00ffff"/><stop offset="1" stop-color="#00ffff" stop-opacity="0"/></linearGradient><linearGradient x1="320.1863" y1="173.8083" x2="320.1863" y2="211.57836" gradientUnits="userSpaceOnUse" id="color-2"><stop offset="0" stop-color="#00ffff"/><stop offset="1" stop-color="#00ffff" stop-opacity="0"/></linearGradient><linearGradient x1="333.3287" y1="166.1545" x2="332.0601" y2="180.0969" gradientUnits="userSpaceOnUse" id="color-3"><stop offset="0" stop-color="#b2b2b2"/><stop offset="1" stop-color="#666666"/></linearGradient><linearGradient x1="165.0863" y1="280.2083" x2="165.0863" y2="317.9783" gradientUnits="userSpaceOnUse" id="color-4"><stop offset="0" stop-color="#00ffff"/><stop offset="1" stop-color="#00ffff" stop-opacity="0"/></linearGradient><linearGradient x1="165.0863" y1="280.2083" x2="165.0863" y2="317.97836" gradientUnits="userSpaceOnUse" id="color-5"><stop offset="0" stop-color="#00ffff"/><stop offset="1" stop-color="#00ffff" stop-opacity="0"/></linearGradient><linearGradient x1="178.2287" y1="272.5545" x2="176.9601" y2="286.4969" gradientUnits="userSpaceOnUse" id="color-6"><stop offset="0" stop-color="#b2b2b2"/><stop offset="1" stop-color="#666666"/></linearGradient><linearGradient x1="-8.0137" y1="58.3083" x2="-8.0137" y2="96.0783" gradientUnits="userSpaceOnUse" id="color-7"><stop offset="0" stop-color="#00ffff"/><stop offset="1" stop-color="#00ffff" stop-opacity="0"/></linearGradient><linearGradient x1="-8.0137" y1="58.3083" x2="-8.0137" y2="96.07836" gradientUnits="userSpaceOnUse" id="color-8"><stop offset="0" stop-color="#00ffff"/><stop offset="1" stop-color="#00ffff" stop-opacity="0"/></linearGradient><linearGradient x1="78.9363" y1="65.6083" x2="78.9363" y2="103.3783" gradientUnits="userSpaceOnUse" id="color-9"><stop offset="0" stop-color="#00ffff"/><stop offset="1" stop-color="#00ffff" stop-opacity="0"/></linearGradient><linearGradient x1="78.9363" y1="65.6083" x2="78.9363" y2="103.37836" gradientUnits="userSpaceOnUse" id="color-10"><stop offset="0" stop-color="#00ffff"/><stop offset="1" stop-color="#00ffff" stop-opacity="0"/></linearGradient><linearGradient x1="-20.9415" y1="46.1543" x2="-22.2102" y2="60.0967" gradientUnits="userSpaceOnUse" id="color-11"><stop offset="0" stop-color="#b2b2b2"/><stop offset="1" stop-color="#666666"/></linearGradient><linearGradient x1="40.5363" y1="176.2083" x2="40.5363" y2="213.9783" gradientUnits="userSpaceOnUse" id="color-12"><stop offset="0" stop-color="#00ffff"/><stop offset="1" stop-color="#00ffff" stop-opacity="0"/></linearGradient><linearGradient x1="40.5363" y1="176.2083" x2="40.5363" y2="213.97836" gradientUnits="userSpaceOnUse" id="color-13"><stop offset="0" stop-color="#00ffff"/><stop offset="1" stop-color="#00ffff" stop-opacity="0"/></linearGradient><linearGradient x1="127.4863" y1="183.5083" x2="127.4863" y2="221.2783" gradientUnits="userSpaceOnUse" id="color-14"><stop offset="0" stop-color="#00ffff"/><stop offset="1" stop-color="#00ffff" stop-opacity="0"/></linearGradient><linearGradient x1="127.4863" y1="183.5083" x2="127.4863" y2="221.27836" gradientUnits="userSpaceOnUse" id="color-15"><stop offset="0" stop-color="#00ffff"/><stop offset="1" stop-color="#00ffff" stop-opacity="0"/></linearGradient><linearGradient x1="27.6085" y1="164.0543" x2="26.3398" y2="177.9967" gradientUnits="userSpaceOnUse" id="color-16"><stop offset="0" stop-color="#b2b2b2"/><stop offset="1" stop-color="#666666"/></linearGradient></defs><g transform="translate(22.2102,-46.1543)"><g data-paper-data="{&quot;isPaintingLayer&quot;:true}" fill="none" fill-rule="nonzero" stroke="none" stroke-width="0" stroke-linecap="none" stroke-linejoin="miter" stroke-miterlimit="10" stroke-dasharray="" stroke-dashoffset="0" font-family="none" font-weight="none" font-size="none" text-anchor="none" style="mix-blend-mode: normal"><g data-paper-data="{&quot;origPos&quot;:null}" id="ID0.5679584057070315"><path d="M372.3838,179.3036c3.7777,1.7913 2.1067,1.9888 11.2432,6.81c5.7833,5.6858 9.2349,11.5918 12.6487,17.4507c0.8538,1.4648 0.5804,2.8498 0,4.2563c-0.1455,0.3516 -1.2543,0.6089 -2.1081,0.8513c-2.9071,0.8253 -4.2528,2.1732 -9.1352,2.3409c-19.5309,0.6708 -39.5642,0.833 -59.027,0c-4.8655,-0.2081 -6.4164,-0.8251 -5.6216,-2.7666c3.179,-7.7657 9.4626,-15.4262 16.1621,-22.9838c2.6928,-3.0379 6.8479,-5.985 11.946,-8.7254c2.1011,-1.1294 5.3967,-3.1234 9.4865,-2.6601c7.0804,0.8302 10.2419,3.4567 14.4054,5.4267z" id="ID0.014508410822600126" fill="url(#color-1)" stroke="url(#color-2)" stroke-linecap="round"/><path d="M333.3287,166.1545l56.8481,5.1728l-1.2687,13.9424l-56.848,-5.1728z" id="ID0.8304188074544072" fill="url(#color-3)" stroke="none" stroke-linecap="butt"/></g><g data-paper-data="{&quot;origPos&quot;:null}" id="ID0.5679584057070315"><path d="M217.2838,285.7036c3.7777,1.7913 2.1067,1.9888 11.2432,6.81c5.7833,5.6858 9.2349,11.5918 12.6487,17.4507c0.8538,1.4648 0.5804,2.8498 0,4.2563c-0.1455,0.3516 -1.2543,0.6089 -2.1081,0.8513c-2.9071,0.8253 -4.2528,2.1732 -9.1352,2.3409c-19.5309,0.6708 -39.5642,0.833 -59.027,0c-4.8655,-0.2081 -6.4164,-0.8251 -5.6216,-2.7666c3.179,-7.7657 9.4626,-15.4262 16.1621,-22.9838c2.6928,-3.0379 6.8479,-5.985 11.946,-8.7254c2.1011,-1.1294 5.3967,-3.1234 9.4865,-2.6601c7.0804,0.8302 10.2419,3.4567 14.4054,5.4267z" id="ID0.014508410822600126" fill="url(#color-4)" stroke="url(#color-5)" stroke-linecap="round"/><path d="M178.2287,272.5545l56.8481,5.1728l-1.2687,13.9424l-56.848,-5.1728z" id="ID0.8304188074544072" fill="url(#color-6)" stroke="none" stroke-linecap="butt"/></g><g data-paper-data="{&quot;origPos&quot;:null}" id="ID0.5880757947452366"><path d="M44.1838,63.8036c3.7777,1.7913 2.1067,1.9888 11.2432,6.81c5.7833,5.6858 9.2349,11.5918 12.6487,17.4507c0.8538,1.4648 0.5804,2.8498 0,4.2563c-0.1455,0.3516 -1.2543,0.6089 -2.1081,0.8513c-2.9071,0.8253 -4.2528,2.1732 -9.1352,2.3409c-19.5309,0.6708 -39.5642,0.833 -59.027,0c-4.8655,-0.2081 -6.4164,-0.8251 -5.6216,-2.7666c3.179,-7.7657 9.4626,-15.4262 16.1621,-22.9838c2.6928,-3.0379 6.8479,-5.985 11.946,-8.7254c2.1011,-1.1294 5.3967,-3.1234 9.4865,-2.6601c7.0804,0.8302 10.2419,3.4567 14.4054,5.4267z" id="ID0.014508410822600126" fill="url(#color-7)" stroke="url(#color-8)" stroke-linecap="round"/><path d="M131.1338,71.1036c3.7777,1.7913 2.1067,1.9888 11.2432,6.81c5.7833,5.6858 9.2349,11.5918 12.6487,17.4507c0.8538,1.4648 0.5804,2.8498 0,4.2563c-0.1455,0.3516 -1.2543,0.6089 -2.1081,0.8513c-2.9071,0.8253 -4.2528,2.1732 -9.1352,2.3409c-19.5309,0.6708 -39.5642,0.833 -59.027,0c-4.8655,-0.2081 -6.4164,-0.8251 -5.6216,-2.7666c3.179,-7.7657 9.4626,-15.4262 16.1621,-22.9838c2.6928,-3.0379 6.8479,-5.985 11.946,-8.7254c2.1011,-1.1294 5.3967,-3.1234 9.4865,-2.6601c7.0804,0.8302 10.2419,3.4567 14.4054,5.4267z" id="ID0.014508410822600126" fill="url(#color-9)" stroke="url(#color-10)" stroke-linecap="round"/><path d="M-20.9415,46.1543l177.1648,16.1209l-1.2687,13.9424l-177.1648,-16.1209z" id="ID0.8304188074544072" fill="url(#color-11)" stroke="none" stroke-linecap="butt"/></g><g data-paper-data="{&quot;origPos&quot;:null}" id="ID0.5880757947452366"><path d="M92.7338,181.7036c3.7777,1.7913 2.1067,1.9888 11.2432,6.81c5.7833,5.6858 9.2349,11.5918 12.6487,17.4507c0.8538,1.4648 0.5804,2.8498 0,4.2563c-0.1455,0.3516 -1.2543,0.6089 -2.1081,0.8513c-2.9071,0.8253 -4.2528,2.1732 -9.1352,2.3409c-19.5309,0.6708 -39.5642,0.833 -59.027,0c-4.8655,-0.2081 -6.4164,-0.8251 -5.6216,-2.7666c3.179,-7.7657 9.4626,-15.4262 16.1621,-22.9838c2.6928,-3.0379 6.8479,-5.985 11.946,-8.7254c2.1011,-1.1294 5.3967,-3.1234 9.4865,-2.6601c7.0804,0.8302 10.2419,3.4567 14.4054,5.4267z" id="ID0.014508410822600126" fill="url(#color-12)" stroke="url(#color-13)" stroke-linecap="round"/><path d="M179.6838,189.0036c3.7777,1.7913 2.1067,1.9888 11.2432,6.81c5.7833,5.6858 9.2349,11.5918 12.6487,17.4507c0.8538,1.4648 0.5804,2.8498 0,4.2563c-0.1455,0.3516 -1.2543,0.6089 -2.1081,0.8513c-2.9071,0.8253 -4.2528,2.1732 -9.1352,2.3409c-19.5309,0.6708 -39.5642,0.833 -59.027,0c-4.8655,-0.2081 -6.4164,-0.8251 -5.6216,-2.7666c3.179,-7.7657 9.4626,-15.4262 16.1621,-22.9838c2.6928,-3.0379 6.8479,-5.985 11.946,-8.7254c2.1011,-1.1294 5.3967,-3.1234 9.4865,-2.6601c7.0804,0.8302 10.2419,3.4567 14.4054,5.4267z" id="ID0.014508410822600126" fill="url(#color-14)" stroke="url(#color-15)" stroke-linecap="round"/><path d="M27.6085,164.0543l177.1648,16.1209l-1.2687,13.9424l-177.1648,-16.1209z" id="ID0.8304188074544072" fill="url(#color-16)" stroke="none" stroke-linecap="butt"/></g></g></g></svg>