<svg version="1.1" xmlns="http://www.w3.org/2000/svg" xmlns:xlink="http://www.w3.org/1999/xlink" width="107.45798" height="41.75966" viewBox="0,0,107.45798,41.75966"><g transform="translate(-186.63302,-159.08408)"><g data-paper-data="{&quot;isPaintingLayer&quot;:true}" fill="#ffffff" fill-rule="nonzero" stroke="none" stroke-width="none" stroke-linecap="butt" stroke-linejoin="miter" stroke-miterlimit="10" stroke-dasharray="" stroke-dashoffset="0" font-family="none" font-weight="none" font-size="none" text-anchor="none" style="mix-blend-mode: normal"><g data-paper-data="{&quot;origPos&quot;:null}"><path d="M195.39629,161.30573c2.62277,0.29313 3.93416,0.47826 3.93416,0.5554c0.03085,5.77012 0.04628,10.18255 0.04628,13.23732v0.09251l-0.04628,0.09264l-4.07302,-0.13882c0,-0.03088 -0.01543,-0.04632 -0.04628,-0.04632c0.18514,-5.16071 0.2777,-7.9069 0.2777,-8.23861l-1.38853,1.34224c-0.07714,-0.04628 -1.15711,-1.18795 -3.2399,-3.42503c1.63538,-1.29597 3.14734,-2.45308 4.53586,-3.47132z" data-paper-data="{&quot;origPos&quot;:null}" id="path3823" stroke-width="0.26459"/><path d="M203.54232,161.39829h0.74054c0,0.09256 1.17254,0.33941 3.51761,0.74056c0.52455,0.06941 0.78683,0.22369 0.78683,0.46284c1.11083,2.11365 1.66624,3.2399 1.66624,3.37875c0,0.53999 0.04629,2.22165 0.13885,5.045c-0.71741,2.25249 -1.1494,3.37875 -1.29596,3.37875c-0.8794,0.58627 -1.3731,0.87941 -1.48109,0.87941h-4.721c-1.23425,-1.5891 -1.85137,-2.53021 -1.85137,-2.82335l-0.50913,-2.77706c0,-0.08481 0.29313,-0.85621 0.8794,-2.31421l-0.04628,-0.0925c0.33942,-0.87169 1.00282,-2.72306 1.99022,-5.55412c0.08486,-0.216 0.14657,-0.32399 0.18514,-0.32399zM205.25484,165.70272c-1.14168,2.39137 -1.72794,3.65647 -1.7588,3.79532c0.11571,0.11571 0.67112,0.88712 1.66624,2.31422c0.97197,-0.46283 1.52738,-0.70968 1.66624,-0.74055c-0.09257,-2.15221 -0.13886,-3.43275 -0.13886,-3.8416c-0.37027,-0.5014 -0.83312,-1.01054 -1.38853,-1.52739z" data-paper-data="{&quot;origPos&quot;:null}" id="path3825" stroke-width="0.26459"/><path d="M214.41913,161.39829h0.74054c0,0.09256 1.17254,0.33941 3.51761,0.74056c0.52455,0.06941 0.78684,0.22369 0.78684,0.46284c1.11083,2.11365 1.66624,3.2399 1.66624,3.37875c0,0.53999 0.04629,2.22165 0.13885,5.045c-0.71741,2.25249 -1.1494,3.37875 -1.29596,3.37875c-0.8794,0.58627 -1.3731,0.87941 -1.4811,0.87941h-4.721c-1.23425,-1.5891 -1.85137,-2.53021 -1.85137,-2.82335l-0.50913,-2.77706c0,-0.08481 0.29313,-0.85621 0.8794,-2.31421l-0.04628,-0.0925c0.33942,-0.87169 1.00282,-2.72306 1.99022,-5.55412c0.08486,-0.216 0.14657,-0.32399 0.18514,-0.32399zM216.13165,165.70272c-1.14168,2.39137 -1.72794,3.65647 -1.7588,3.79532c0.11571,0.11571 0.67112,0.88712 1.66624,2.31422c0.97197,-0.46283 1.52738,-0.70968 1.66624,-0.74055c-0.09257,-2.15221 -0.13886,-3.43275 -0.13886,-3.8416c-0.37027,-0.5014 -0.83312,-1.01054 -1.38853,-1.52739z" data-paper-data="{&quot;origPos&quot;:null}" id="path3827" stroke-width="0.26459"/><path d="M236.04547,160.22961c3.44817,1.34225 5.17227,2.0558 5.17227,2.14065c-1.10311,2.25251 -1.65467,3.42505 -1.65467,3.51761h-0.06942c-0.4937,-0.13886 -1.57752,-0.62098 -3.25147,-1.44638l-2.75392,1.93237c0,2.39135 0.13501,3.58703 0.405,3.58703c0.17742,0.09256 1.33067,0.5554 3.45975,1.38853c0.81769,-0.80998 1.64695,-1.59294 2.48778,-2.34893c0.15428,0.13886 0.84468,1.24196 2.07122,3.30933v0.20828c-0.07714,0 -1.78195,0.92183 -5.11442,2.76549c-4.25816,-1.4271 -6.44509,-2.18693 -6.5608,-2.2795l-2.07122,-6.83852c1.94395,-2.76162 2.9352,-4.14243 2.97377,-4.14243c0.08486,0 1.72023,-0.59785 4.90614,-1.79353z" data-paper-data="{&quot;origPos&quot;:null}" id="path3829" stroke-width="0.26459"/><path d="M247.91739,163.73566c2.93134,0.78682 4.48571,1.26509 4.66314,1.43481c1.61223,2.28336 2.51864,3.5986 2.7192,3.94573c-1.04139,3.30161 -1.63923,4.95241 -1.79351,4.95241c-3.47133,0.80998 -5.28798,1.21497 -5.44997,1.21497c-2.86963,-1.67395 -4.39702,-2.60735 -4.58215,-2.80019c-0.10029,-3.11649 -0.15042,-4.83671 -0.15042,-5.1607c-0.04629,-0.09256 -0.06942,-0.16199 -0.06942,-0.20829c2.9622,-2.25249 4.49343,-3.37875 4.59372,-3.37875zM247.69754,167.97067c-0.04629,0.30856 -0.11571,1.43096 -0.20828,3.36717l2.58035,0.57855c0.61712,-1.92851 0.92568,-2.95833 0.92568,-3.08947c-2.05194,-0.61713 -3.15119,-0.92569 -3.29775,-0.92569z" data-paper-data="{&quot;origPos&quot;:null}" id="path3831" stroke-width="0.26459"/><path d="M257.94952,159.08409l4.54744,0.7174c-0.57084,2.18308 -0.94497,3.27461 -1.1224,3.27461c-2.39135,-0.162 -3.58703,-0.32014 -3.58703,-0.47442v-3.35562c0.02314,-0.10799 0.07715,-0.16198 0.16199,-0.16198zM256.6767,164.59191h0.06943c3.51761,0.64028 5.2764,1.0144 5.2764,1.12239c-1.01054,5.72383 -1.62381,8.91359 -1.8398,9.56928h-3.66802c-0.10799,0 -0.162,-0.05399 -0.162,-0.162z" data-paper-data="{&quot;origPos&quot;:null}" id="path3833" stroke-width="0.26459"/><path d="M273.15389,163.72409l3.85317,2.64977c-0.26999,4.397 -0.45899,6.96579 -0.56698,7.70633c-0.44742,0.05402 -1.80894,0.13501 -4.08459,0.24298l-0.081,-0.16198l-0.40499,-6.17895l-0.16199,-0.08103c-1.47338,0.31628 -2.48779,0.55541 -3.04319,0.71741c0.15428,2.63048 0.23143,4.532 0.23143,5.70453c-2.29879,0.64027 -3.55617,0.96041 -3.77217,0.96041c-1.49652,-6.5878 -2.2448,-10.06684 -2.2448,-10.43711c3.25533,-0.42428 5.02185,-0.63641 5.29955,-0.63641v0.08102c0.054,0.03854 0.135,0.8408 0.243,2.40679c2.98534,-1.98251 4.56286,-2.97376 4.73256,-2.97376z" data-paper-data="{&quot;origPos&quot;:null}" id="path3835" stroke-width="0.26459"/><path d="M287.49046,163.72409c2.22165,1.41938 3.44819,2.23706 3.67961,2.45306c-0.80227,1.78194 -1.26125,2.67291 -1.37696,2.67291l-4.21187,-2.44148h-0.15043c0,0.07716 -0.18127,0.50914 -0.54384,1.29595c3.88017,2.09051 5.82025,3.16277 5.82025,3.21677c-1.08768,2.51478 -1.70095,3.84159 -1.8398,3.98045l-6.58393,0.38184c-2.56107,-1.69709 -3.93802,-2.59193 -4.13088,-2.68449v-0.06942c0,-0.19286 0.38184,-1.06068 1.14554,-2.60348l5.13755,2.67291l0.38184,-1.52739c-3.17819,-1.4271 -5.06813,-2.31807 -5.66983,-2.67291v-0.16199c0,-0.29314 0.61327,-1.59296 1.8398,-3.89947z" data-paper-data="{&quot;origPos&quot;:null}" id="path3837" stroke-width="0.26459"/><text transform="translate(186.99393,196.15211) scale(0.7218,0.72179)" font-size="22" xml:space="preserve" data-paper-data="{&quot;origPos&quot;:null}" id="ID0.08681221166625619" fill="#ffffff" fill-rule="nonzero" stroke="none" stroke-width="1" stroke-linecap="butt" stroke-linejoin="miter" stroke-miterlimit="10" stroke-dasharray="" stroke-dashoffset="0" font-family="Sans Serif" font-weight="400" text-anchor="start" style="mix-blend-mode: normal"><tspan x="0" dy="0">Get 100 coins.</tspan></text></g></g></g></svg>