<svg version="1.1" xmlns="http://www.w3.org/2000/svg" xmlns:xlink="http://www.w3.org/1999/xlink" width="576.92848" height="91.44827" viewBox="0,0,576.92848,91.44827"><defs><linearGradient x1="-52.66968" y1="296.86285" x2="-52.66968" y2="369.254" gradientUnits="userSpaceOnUse" id="color-1"><stop offset="0" stop-color="#867037"/><stop offset="1" stop-color="#ac8f46"/></linearGradient></defs><g transform="translate(48.46423,-282.27587)"><g data-paper-data="{&quot;isPaintingLayer&quot;:true}" fill-rule="nonzero" stroke-linejoin="miter" stroke-miterlimit="10" stroke-dasharray="" stroke-dashoffset="0" style="mix-blend-mode: normal"><path d="M332.21993,352.17302l-7.13856,-10.86466l66.85946,-43.92963l7.13856,10.86466z" fill="#e70000" stroke="#660000" stroke-width="2" stroke-linecap="butt"/><path d="M392.08136,307.24339l7.13857,-10.86466l66.85947,43.92963l-7.13857,10.86466z" data-paper-data="{&quot;index&quot;:null}" fill="#e70000" stroke="#660000" stroke-width="2" stroke-linecap="butt"/><path d="M460.21993,352.17302l-7.13857,-10.86466l66.85947,-43.92963l7.13856,10.86466z" data-paper-data="{&quot;index&quot;:null}" fill="#e70000" stroke="#660000" stroke-width="2" stroke-linecap="butt"/><path d="M187.33032,296.86285v72.39115h-229.47349c-0.43066,-4.57618 -1.66583,-9.25427 -1.77645,-13.75482c-0.20937,-8.51882 0.10384,-17.13334 -0.04302,-25.65347c-0.16605,-9.63371 -0.7513,-19.36779 -0.95698,-29.00074c-0.02945,-1.37937 -0.05322,-2.70419 -0.07473,-3.98212z" data-paper-data="{&quot;origPos&quot;:null}" fill="url(#color-1)" stroke="#8d763a" stroke-width="2" stroke-linecap="butt"/><path d="M188.33032,288.42568c0,5.68441 0,11.36881 0,17.05322c-0.37015,0.14296 -0.7052,0.27258 -1,0.38757c-21.874,8.50183 -45.947,16.38583 -70.339,16.6663c-30.15,0.34225 -58.431,-17.49063 -88.661,-16.6663c-25.60563,1.40742 -47.55874,19.59895 -72.3107,23.02704c-0.18645,-9.3226 -0.74033,-18.73286 -0.93924,-28.04854c-0.11798,-5.52567 -0.14482,-10.17583 -0.29963,-14.4436c77.6614,0.71648 155.96334,-2.74215 233.54957,2.02431z" data-paper-data="{&quot;origPos&quot;:null}" fill="#326501" stroke="#274100" stroke-width="2" stroke-linecap="butt"/><path d="M-43.96423,342.63007c41.7476,1.18746 45.0549,-18.90887 78.90314,-18.1222c34.00867,0.7904 50.15628,19.25146 88.37275,18.66478c28.74259,-0.44123 51.55291,-0.23707 65.01867,-11.18934" data-paper-data="{&quot;origPos&quot;:null,&quot;origRot&quot;:0}" fill="none" stroke="#bba15f" stroke-width="9" stroke-linecap="round"/><path d="M-42.14713,369.21221c40.03438,0.56219 43.73557,-18.93602 77.08604,-18.16092c34.00867,0.7904 50.15628,19.25146 88.37275,18.66478c28.74259,-0.44123 51.55291,-0.23707 65.01867,-11.18934" data-paper-data="{&quot;origPos&quot;:null,&quot;origRot&quot;:0}" fill="none" stroke="#7d6938" stroke-width="9" stroke-linecap="round"/><path d="M320.08038,306.27587v-23h193v23z" fill="#e70000" stroke="#660000" stroke-width="2" stroke-linecap="butt"/><path d="M320.08038,360.27588v-23h193v23z" fill="#e70000" stroke="#660000" stroke-width="2" stroke-linecap="butt"/></g></g></svg>