<svg version="1.1" xmlns="http://www.w3.org/2000/svg" xmlns:xlink="http://www.w3.org/1999/xlink" width="109.94809" height="103.23369" viewBox="0,0,109.94809,103.23369"><defs><radialGradient cx="247.77291" cy="186.17381" r="66.3464" gradientUnits="userSpaceOnUse" id="color-1"><stop offset="0" stop-color="#6fc9ff" stop-opacity="0"/><stop offset="1" stop-color="#6fc9ff"/></radialGradient><linearGradient x1="298.28511" y1="137.91421" x2="298.28511" y2="234.43351" gradientUnits="userSpaceOnUse" id="color-2"><stop offset="0" stop-color="#6fc9ff"/><stop offset="1" stop-color="#4395ff"/></linearGradient></defs><g transform="translate(-191.69422,-134.55702)"><g data-paper-data="{&quot;isPaintingLayer&quot;:true}" fill="none" fill-rule="nonzero" stroke="none" stroke-width="none" stroke-linecap="none" stroke-linejoin="miter" stroke-miterlimit="10" stroke-dasharray="" stroke-dashoffset="0" font-family="none" font-weight="none" font-size="none" text-anchor="none" style="mix-blend-mode: normal"><g><g stroke-width="0"><path d="M222.6362,209.41507l-5.65077,1.07632c0,0 -2.64089,0.22958 -4.30535,0c-1.66446,-0.22958 -2.23199,-0.40604 -3.4981,-1.07632c-1.2661,-0.6703 -0.7811,-0.69589 -1.07635,-1.34544c-0.29525,-0.64953 -0.22325,-0.9729 -0.26909,-1.6145c-0.04584,-0.64161 -0.35537,-1.39117 0,-2.15269c0.35537,-0.76151 2.62387,-1.14331 1.8836,-1.88357c-0.74027,-0.74029 -2.30769,0.38073 -3.76717,0c-1.45948,-0.38074 -1.63948,-0.76706 -2.42176,-1.61451c-0.78228,-0.84746 -0.67329,-1.07989 -0.80725,-1.88358c-0.13396,-0.80369 -0.23827,-1.82809 0,-2.95994c0.23827,-1.13183 0.40683,-1.48318 1.07634,-2.15268c0.66949,-0.66948 1.40417,-0.96381 2.42176,-1.34542c1.01759,-0.3816 1.8836,0.4795 1.8836,-0.26908c0,-0.74858 -1.43564,-0.71859 -1.8836,-1.61451c-0.44796,-0.89591 -0.38067,-1.63075 -0.26909,-2.69083c0.1116,-1.06008 0.24031,-1.59713 0.80725,-2.42175c0.56694,-0.82462 1.16053,-1.3614 2.15267,-1.88358c0.99216,-0.52217 2.95992,-0.80725 2.95992,-0.80725l7.53436,-0.53817z" data-paper-data="{&quot;origPos&quot;:null}" fill="#fff346" stroke="#86a000" stroke-linecap="round"/><path d="M278.8748,150.48563l-3.4981,4.30534l-4.84351,10.76335l-38.74813,1.8836l-1.07634,-4.03626v-1.88359l0.80725,-3.22902l0.80725,-2.15266l2.42176,-4.30536l3.22901,-1.6145l8.87978,-3.76717l7.53437,-0.53818l0.53816,4.03626l4.03627,-4.57444l5.91985,-0.26907l-0.80725,8.07252l5.65077,-7.53435z" data-paper-data="{&quot;origPos&quot;:null}" fill="#fff346" stroke="#86a000" stroke-linecap="round"/><path d="M252.37,160.03812c19.17083,0 34.71187,15.17961 34.71187,33.90461c0,18.725 -15.54104,33.90461 -34.71187,33.90461c-19.17083,0 -34.71186,-15.17961 -34.71186,-33.90461c0,-18.725 15.54103,-33.90461 34.71186,-33.90461z" data-paper-data="{&quot;origPos&quot;:null}" fill="#e12323" stroke="none" stroke-linecap="butt"/><path d="M266.76602,170.12878c5.05279,0 9.14887,6.20436 9.14887,13.85783c0,7.65347 -4.0961,13.85783 -9.14887,13.85783c-5.05279,0 -9.14887,-6.20436 -9.14887,-13.85783c0,-7.65347 4.0961,-13.85783 9.14887,-13.85783z" data-paper-data="{&quot;origPos&quot;:null}" fill="#ffffff" stroke="none" stroke-linecap="butt"/><path d="M228.55608,219.37117c0,0 5.854,-8.07253 25.02483,-8.07253c19.17083,0 23.14124,6.72711 23.14124,6.72711c0,0 -5.31584,9.95613 -24.48667,9.95613c-19.17084,0 -23.67942,-8.61069 -23.67942,-8.61069z" data-paper-data="{&quot;origPos&quot;:null}" fill="#ffffff" stroke="none" stroke-linecap="butt"/><path d="M281.56565,169.59061c5.05279,0 9.14887,6.20437 9.14887,13.85784c0,7.65348 -4.09608,13.85783 -9.14887,13.85783c-5.05279,0 -9.14887,-6.20436 -9.14887,-13.85783c0,-7.65348 4.09608,-13.85784 9.14887,-13.85784z" data-paper-data="{&quot;origPos&quot;:null}" fill="#ffffff" stroke="none" stroke-linecap="butt"/><path d="M279.14388,211.83684c-5.35,0 -9.68703,-4.81892 -9.68703,-10.76337c0,-5.94444 4.33703,-10.76337 9.68703,-10.76337c5.35,0 9.68703,4.81892 9.68703,10.76337c0,5.94444 -4.33703,10.76337 -9.68703,10.76337z" data-paper-data="{&quot;origPos&quot;:null}" fill="#ffb197" stroke="none" stroke-linecap="butt"/><path d="M281.70018,198.65171c1.56042,0 2.82539,1.56615 2.82539,3.4981c0,1.93194 -1.26497,3.49809 -2.82539,3.49809c-1.56042,0 -2.82538,-1.56614 -2.82538,-3.49809c0,-1.93194 1.26496,-3.4981 2.82538,-3.4981z" data-paper-data="{&quot;origPos&quot;:null}" fill="#a27060" stroke="none" stroke-linecap="butt"/><path d="M271.87862,183.31389c1.04029,0 1.88359,1.50591 1.88359,3.36356c0,1.85765 -0.84331,3.36356 -1.88359,3.36356c-1.04028,0 -1.8836,-1.50591 -1.8836,-3.36356c0,-1.85765 0.84332,-3.36356 1.8836,-3.36356z" data-paper-data="{&quot;origPos&quot;:null}" fill="#001966" stroke="none" stroke-linecap="butt"/><path d="M282.37291,183.31389c1.04029,0 1.88359,1.50591 1.88359,3.36356c0,1.85765 -0.84331,3.36356 -1.88359,3.36356c-1.04028,0 -1.8836,-1.50591 -1.8836,-3.36356c0,-1.85765 0.84332,-3.36356 1.8836,-3.36356z" data-paper-data="{&quot;origPos&quot;:null}" fill="#001966" stroke="none" stroke-linecap="butt"/><path d="M215.64001,159.3654l13.99238,7.80344l6.99619,4.57443l3.4981,3.76717l2.69084,3.4981l1.61451,2.95992l1.07634,4.03626l0.26909,4.84351v2.95992l-0.53816,2.42176l-1.34542,2.42176l-2.69085,2.15267l-2.95992,1.34542h-7.53436l-2.42176,-1.07634l-9.14887,-5.11261l-2.95992,-2.69085l-1.8836,-2.15267l-2.15266,-3.22901l-0.53816,-2.42176v-1.61451l1.07634,-1.6145l2.15267,-0.80725l-5.38168,-6.18893l-0.53816,-1.8836v-2.15267l0.53816,-2.15266l1.61451,-0.26909l2.69084,0.53816l-4.30535,-5.65077l-0.26909,-1.8836l0.26909,-2.69085l1.61451,-0.53816z" data-paper-data="{&quot;origPos&quot;:null}" fill="#ffffff" stroke="#34a200" stroke-linecap="round"/></g><path d="M298.28511,234.43351h-103.2337v-96.5193h103.2337z" data-paper-data="{&quot;origPos&quot;:null,&quot;index&quot;:null}" id="ID0.6911031012423337" fill="url(#color-1)" stroke="url(#color-2)" stroke-width="6.71439" stroke-linecap="round"/></g></g></g></svg>