<svg version="1.1" xmlns="http://www.w3.org/2000/svg" xmlns:xlink="http://www.w3.org/1999/xlink" width="772.88799" height="787.3107" viewBox="0,0,772.88799,787.3107"><defs><linearGradient x1="-600.4206" y1="-259.59262" x2="-644.76097" y2="1441.27505" gradientUnits="userSpaceOnUse" id="color-1"><stop offset="0" stop-color="#001966"/><stop offset="1" stop-color="#006666"/></linearGradient><linearGradient x1="231.43426" y1="84.62732" x2="231.43426" y2="669.65374" gradientUnits="userSpaceOnUse" id="color-2"><stop offset="0" stop-color="#edf3f8"/><stop offset="1" stop-color="#cedee9"/></linearGradient><linearGradient x1="226.72132" y1="-60.56782" x2="393.14437" y2="-60.56782" gradientUnits="userSpaceOnUse" id="color-3"><stop offset="0" stop-color="#e2524b"/><stop offset="1" stop-color="#ff6767"/></linearGradient><linearGradient x1="311.27185" y1="320.82473" x2="311.27185" y2="400.79225" gradientUnits="userSpaceOnUse" id="color-4"><stop offset="0" stop-color="#ff4040"/><stop offset="1" stop-color="#c33131"/></linearGradient><linearGradient x1="168.07461" y1="334.09549" x2="168.07461" y2="649.75753" gradientUnits="userSpaceOnUse" id="color-5"><stop offset="0" stop-color="#edf3f8"/><stop offset="1" stop-color="#cedee9"/></linearGradient><linearGradient x1="151.33641" y1="430.89864" x2="151.33641" y2="675.01034" gradientUnits="userSpaceOnUse" id="color-6"><stop offset="0" stop-color="#ff6767"/><stop offset="1" stop-color="#e2524b"/></linearGradient><linearGradient x1="-101.73345" y1="632.92198" x2="-101.73345" y2="746.56024" gradientUnits="userSpaceOnUse" id="color-7"><stop offset="0" stop-color="#ff6767"/><stop offset="1" stop-color="#e2524b"/></linearGradient><linearGradient x1="-181.70097" y1="595.04275" x2="-17.55678" y2="595.04275" gradientUnits="userSpaceOnUse" id="color-8"><stop offset="0" stop-color="#e2524b"/><stop offset="1" stop-color="#ff6767"/></linearGradient><linearGradient x1="185.12721" y1="484.31237" x2="185.12721" y2="806.70802" gradientUnits="userSpaceOnUse" id="color-9"><stop offset="0" stop-color="#cedee9"/><stop offset="1" stop-color="#b0c6d8"/></linearGradient><linearGradient x1="-860.36209" y1="644.80337" x2="-860.36209" y2="758.44172" gradientUnits="userSpaceOnUse" id="color-10"><stop offset="0" stop-color="#ff6767"/><stop offset="1" stop-color="#e2524b"/></linearGradient><linearGradient x1="202.9493" y1="511.04557" x2="202.9493" y2="776.4963" gradientUnits="userSpaceOnUse" id="color-11"><stop offset="0" stop-color="#008be8"/><stop offset="1" stop-color="#7fb1d9"/></linearGradient><linearGradient x1="350.1767" y1="267.9342" x2="350.1767" y2="319.08684" gradientUnits="userSpaceOnUse" id="color-12"><stop offset="0" stop-color="#ffffff"/><stop offset="1" stop-color="#c7c7c7"/></linearGradient><linearGradient x1="323.63172" y1="289.62233" x2="323.63172" y2="322.58157" gradientUnits="userSpaceOnUse" id="color-13"><stop offset="0" stop-color="#18c100"/><stop offset="1" stop-color="#13a700"/></linearGradient><linearGradient x1="312.04463" y1="314.65612" x2="312.04463" y2="322.46693" gradientUnits="userSpaceOnUse" id="color-14"><stop offset="0" stop-color="#ffffff"/><stop offset="1" stop-color="#c2c2c2"/></linearGradient><linearGradient x1="379.64293" y1="285.09126" x2="379.64293" y2="324.34193" gradientUnits="userSpaceOnUse" id="color-15"><stop offset="0" stop-color="#18c100"/><stop offset="1" stop-color="#13a700"/></linearGradient><linearGradient x1="381.5128" y1="317.53011" x2="381.5128" y2="325.43257" gradientUnits="userSpaceOnUse" id="color-16"><stop offset="0" stop-color="#ffffff"/><stop offset="1" stop-color="#c2c2c2"/></linearGradient><linearGradient x1="391.05657" y1="316.01038" x2="391.05657" y2="324.73476" gradientUnits="userSpaceOnUse" id="color-17"><stop offset="0" stop-color="#ffffff"/><stop offset="1" stop-color="#c2c2c2"/></linearGradient><linearGradient x1="400.44377" y1="318.99116" x2="400.44377" y2="325.22963" gradientUnits="userSpaceOnUse" id="color-18"><stop offset="0" stop-color="#ffffff"/><stop offset="1" stop-color="#c2c2c2"/></linearGradient><linearGradient x1="386.83889" y1="256.56906" x2="386.83889" y2="288.49298" gradientUnits="userSpaceOnUse" id="color-19"><stop offset="0" stop-color="#18c100"/><stop offset="1" stop-color="#13a700"/></linearGradient><linearGradient x1="360.38654" y1="271.17994" x2="360.38654" y2="276.52448" gradientUnits="userSpaceOnUse" id="color-20"><stop offset="0" stop-color="#ffffff"/><stop offset="1" stop-color="#c2c2c2"/></linearGradient><linearGradient x1="362.87727" y1="280.39077" x2="362.87727" y2="285.73533" gradientUnits="userSpaceOnUse" id="color-21"><stop offset="0" stop-color="#ffffff"/><stop offset="1" stop-color="#c2c2c2"/></linearGradient><linearGradient x1="367.12816" y1="261.96912" x2="367.12816" y2="267.31368" gradientUnits="userSpaceOnUse" id="color-22"><stop offset="0" stop-color="#ffffff"/><stop offset="1" stop-color="#c2c2c2"/></linearGradient><linearGradient x1="316.72799" y1="265.90412" x2="316.72799" y2="290.81667" gradientUnits="userSpaceOnUse" id="color-23"><stop offset="0" stop-color="#18c100"/><stop offset="1" stop-color="#13a700"/></linearGradient><linearGradient x1="326.59997" y1="275.36668" x2="326.59997" y2="280.71124" gradientUnits="userSpaceOnUse" id="color-24"><stop offset="0" stop-color="#ffffff"/><stop offset="1" stop-color="#c2c2c2"/></linearGradient><linearGradient x1="324.29729" y1="284.57752" x2="324.29729" y2="289.92204" gradientUnits="userSpaceOnUse" id="color-25"><stop offset="0" stop-color="#ffffff"/><stop offset="1" stop-color="#c2c2c2"/></linearGradient><linearGradient x1="320.94786" y1="266.57451" x2="320.94786" y2="271.91909" gradientUnits="userSpaceOnUse" id="color-26"><stop offset="0" stop-color="#ffffff"/><stop offset="1" stop-color="#c2c2c2"/></linearGradient><linearGradient x1="339.43616" y1="204.7536" x2="377.9891" y2="204.7536" gradientUnits="userSpaceOnUse" id="color-27"><stop offset="0" stop-color="#fff700"/><stop offset="1" stop-color="#db9600"/></linearGradient><radialGradient cx="350.62761" cy="203.15751" r="2.98478" gradientUnits="userSpaceOnUse" id="color-28"><stop offset="0" stop-color="#ffffff"/><stop offset="1" stop-color="#5242ad"/></radialGradient><linearGradient x1="343.01153" y1="209.03075" x2="343.01153" y2="269.65069" gradientUnits="userSpaceOnUse" id="color-29"><stop offset="0" stop-color="#18c100"/><stop offset="1" stop-color="#13a700"/></linearGradient><linearGradient x1="-108.92579" y1="33.21558" x2="-108.92579" y2="162.65658" gradientUnits="userSpaceOnUse" id="color-30"><stop offset="0" stop-color="#000000"/><stop offset="1" stop-color="#000000" stop-opacity="0"/></linearGradient></defs><g transform="translate(195.83266,60.56782)"><g data-paper-data="{&quot;isPaintingLayer&quot;:true}" fill-rule="nonzero" stroke-linejoin="miter" stroke-miterlimit="10" stroke-dasharray="" stroke-dashoffset="0" style="mix-blend-mode: normal"><path d="M-10.4062,-28.97878l513.87967,-13.49958l-0.19916,421.92042l-0.78565,0.0954l-525.96351,-0.19887z" fill="url(#color-1)" stroke="#000000" stroke-width="2.39335" stroke-linecap="butt"/><path d="M456.20458,328.79445c28.96122,-20.24459 66.57706,-34.43922 108.60674,-39.61975c-0.06669,30.1413 -0.14001,60.28233 -0.19243,90.42232c-5.57548,0.10933 -152.21375,22.04003 -165.3043,25.96849c7.23098,-29.72378 27.64924,-56.33108 56.88999,-76.77105z" data-paper-data="{&quot;origPos&quot;:null}" fill="#718399" stroke="none" stroke-width="1" stroke-linecap="butt"/><path d="M92.65688,157.50005l-1.18814,-1.18814" data-paper-data="{&quot;origPos&quot;:null}" fill="none" stroke="#cccccc" stroke-width="2" stroke-linecap="round"/><path d="M-35.26641,532.55684l1.18814,1.18814" data-paper-data="{&quot;origPos&quot;:null}" fill="none" stroke="#cccccc" stroke-width="2" stroke-linecap="round"/><path d="M504.54612,450.57507l-1.18814,-1.18813" data-paper-data="{&quot;origPos&quot;:null}" fill="none" stroke="#cccccc" stroke-width="2" stroke-linecap="round"/><path d="M146.91539,552.35921l1.18814,1.18814" data-paper-data="{&quot;origPos&quot;:null}" fill="none" stroke="#cccccc" stroke-width="2" stroke-linecap="round"/><path d="M-144.97152,220.86761l-1.18814,-1.18814" data-paper-data="{&quot;origPos&quot;:null}" fill="none" stroke="#cccccc" stroke-width="2" stroke-linecap="round"/><path d="M30.08139,13.73484c56.2704,0 107.2615,15.97655 144.18499,41.78696c36.92349,25.81041 59.77938,61.45468 59.77938,100.79008c0,39.33541 -22.8559,74.97969 -59.77938,100.79008c-36.92349,25.81041 -87.91459,41.78696 -144.18499,41.78696c-56.2704,0 -107.2615,-15.97655 -144.18499,-41.78696c-36.92349,-25.81041 -59.77938,-61.45468 -59.77938,-100.79008c0,-39.33541 22.8559,-74.97968 59.77938,-100.79008c36.92349,-25.8104 87.91459,-41.78695 144.18499,-41.78695z" data-paper-data="{&quot;origPos&quot;:null}" fill="#718399" stroke="none" stroke-width="1" stroke-linecap="butt"/><path d="M283.55161,-49.63273c56.2704,0 107.2615,15.97655 144.18499,41.78696c36.92349,25.81041 59.77938,61.45467 59.77938,100.79008c0,39.33542 -22.8559,74.97969 -59.77938,100.79008c-36.92349,25.81041 -87.91458,41.78696 -144.18499,41.78696c-56.2704,0 -107.2615,-15.97655 -144.18499,-41.78696c-36.92349,-25.81041 -59.77938,-61.45468 -59.77938,-100.79008c0,-39.33541 22.8559,-74.97968 59.77938,-100.79008c36.92349,-25.81041 87.91459,-41.78696 144.18499,-41.78696z" data-paper-data="{&quot;origPos&quot;:null}" fill="#718399" stroke="none" stroke-width="1" stroke-linecap="butt"/><path d="M75.62685,75.12217c4.91891,0 9.37443,4.3288 12.59826,11.31904c3.2278,6.99023 5.22387,16.64192 5.22387,27.29558c0,10.65367 -1.99609,20.30535 -5.22387,27.29557c-3.22382,6.99023 -7.67936,11.31904 -12.59826,11.31904c-4.91891,0 -9.37443,-4.3288 -12.59826,-11.31903c-3.2278,-6.99023 -5.22387,-16.64191 -5.22387,-27.29557c0,-10.65367 1.99609,-20.30535 5.22387,-27.29557c3.22382,-6.99023 7.67936,-11.31903 12.59826,-11.31903z" data-paper-data="{&quot;origPos&quot;:null}" fill="#000000" stroke="none" stroke-width="1" stroke-linecap="butt"/><path d="M158.79679,73.14192c4.91891,0 9.37444,4.3288 12.59826,11.31904c3.22779,6.99023 5.22387,16.64192 5.22387,27.29558c0,10.65367 -1.99608,20.30535 -5.22387,27.29557c-3.22382,6.99023 -7.67935,11.31904 -12.59826,11.31904c-4.91891,0 -9.37443,-4.3288 -12.59826,-11.31903c-3.22779,-6.99023 -5.22387,-16.64191 -5.22387,-27.29557c0,-10.65367 1.99608,-20.30535 5.22387,-27.29558c3.22382,-6.99023 7.67935,-11.31903 12.59826,-11.31903z" data-paper-data="{&quot;origPos&quot;:null}" fill="#000000" stroke="none" stroke-width="1" stroke-linecap="butt"/><path d="M231.43426,84.62732h155.72661v585.02647h-155.72661z" data-paper-data="{&quot;origPos&quot;:null}" fill="url(#color-2)" stroke="none" stroke-width="1.11058" stroke-linecap="butt"/><path d="M226.72132,93.05308l81.0777,-153.6209l85.34529,153.62091z" data-paper-data="{&quot;origPos&quot;:null}" fill="url(#color-3)" stroke="none" stroke-width="1.06271" stroke-linecap="round"/><path d="M185.00717,320.82473h252.52929v79.96751h-252.52929z" data-paper-data="{&quot;origPos&quot;:null}" fill="url(#color-4)" stroke="none" stroke-width="1.06271" stroke-linecap="butt"/><path d="M184.90977,384.60148l63.13232,-50.50594h130.47344l54.71473,58.92352l4.2088,256.73847h-269.36447z" data-paper-data="{&quot;origPos&quot;:null}" fill="url(#color-5)" stroke="none" stroke-width="1.06271" stroke-linecap="round"/><path d="M227.09556,430.89864h168.35299l54.71473,244.1117h-298.82682z" data-paper-data="{&quot;origPos&quot;:null}" fill="url(#color-6)" stroke="none" stroke-width="1.06271" stroke-linecap="round"/><path d="M-76.48035,696.05423l155.72621,-63.13232h315.66201l101.01188,4.2088l68.62748,24.7822c0,12.32791 0,24.65582 0,36.98374c0,0.26715 0,0.53427 0,0.80142c-6.65142,-1.25679 -16.29315,7.27742 -24.14024,7.99866c-9.08173,0.83474 -18.22678,-0.75187 -27.34592,-0.87914c-37.17964,-0.51891 -69.84127,7.51164 -106.31054,12.55976c-27.38171,3.7902 -56.38502,3.878 -83.89353,5.31712c-52.74568,2.77608 -105.50797,1.92549 -158.31759,1.92549c-69.04821,0 -136.98832,0.10595 -205.7934,-7.33138c-1.54198,-0.16669 -25.38408,-3.13494 -44.11539,-5.45644z" data-paper-data="{&quot;origPos&quot;:null}" fill="url(#color-7)" stroke="none" stroke-width="1.06271" stroke-linecap="butt"/><path d="M-101.73345,595.04275l69.54661,125.18337c-3.02081,-0.29837 -6.0431,-0.61068 -9.0671,-0.93754c-2.52258,-0.27267 -64.72575,-8.04309 -66.60086,-8.2138c-17.81687,-1.62206 -35.7493,-1.77454 -53.60477,-2.86675z" data-paper-data="{&quot;origPos&quot;:null}" fill="url(#color-8)" stroke="none" stroke-width="1.06271" stroke-linecap="round"/><path d="M185.12721,590.41703l115.74286,-106.10465l115.74246,106.10465v127.5178c-3.25998,0.49976 -6.54521,0.98355 -9.86192,1.44265c-27.38171,3.7902 -56.38501,3.87799 -83.89352,5.31711c-45.89064,2.4153 -91.79386,2.08533 -137.72987,1.95876z" data-paper-data="{&quot;origPos&quot;:null}" fill="url(#color-9)" stroke="none" stroke-width="1.26431" stroke-linecap="butt"/><path d="M-111.19146,703.72693l2.23053,7.2491c-22.86355,-2.00428 -45.91078,-1.67184 -68.73511,-4.09002c-6.11144,-0.64748 -12.12919,-1.91638 -18.13662,-3.26088c0.02405,-10.14046 0.06077,-20.28224 0.10538,-30.42508z" data-paper-data="{&quot;origPos&quot;:null}" fill="url(#color-10)" stroke="none" stroke-width="1.06271" stroke-linecap="butt"/><path d="M202.9493,598.40892l96.90344,-87.36333l96.90306,87.36333l0.81741,122.10109c-24.62715,2.69378 -50.26228,2.90522 -74.71618,4.18452c-39.95526,2.10291 -79.92007,2.12477 -119.90774,2.0117z" data-paper-data="{&quot;origPos&quot;:null}" fill="url(#color-11)" stroke="none" stroke-width="1.26431" stroke-linecap="round"/><path d="" data-paper-data="{&quot;origPos&quot;:null}" fill="#000000" stroke="none" stroke-width="1" stroke-linecap="butt"/><path d="" data-paper-data="{&quot;origPos&quot;:null}" fill="#000000" stroke="none" stroke-width="1" stroke-linecap="butt"/><g data-paper-data="{&quot;origPos&quot;:null}"><g data-paper-data="{&quot;origPos&quot;:null}"><path d="M226.35771,305.02849h8.83542v12.92579h-8.83542z" data-paper-data="{&quot;origPos&quot;:null}" fill="#c673f8" stroke="none" stroke-width="0.27541" stroke-linecap="butt"/><path d="M228.13991,315.09405c1.33507,-0.04278 2.62105,-0.24792 3.84482,0.18892c1.16279,0.41704 2.54381,0.98379 3.10897,2.204c0.50616,1.22774 0.54536,3.26065 -0.38178,4.02977c-1.23726,1.02537 -3.0456,0.10457 -4.58148,0.18892c-1.37111,-0.00118 -2.75729,0.18892 -4.14463,0.06298c-1.01229,-0.09188 -2.05865,-0.31328 -2.95411,-0.87012c-0.87131,-0.54259 -2.11807,-1.46576 -2.11807,-2.404c0,-0.93824 0.80913,-1.78816 2.11807,-2.40401c1.30775,-0.61467 3.38898,-0.92557 5.10822,-0.99646z" data-paper-data="{&quot;origPos&quot;:null}" fill="#c673f8" stroke="none" stroke-width="0.29746" stroke-linecap="round"/><path d="M218.84114,319.91159l2.18143,-1.9632l0.65466,1.90896z" data-paper-data="{&quot;origPos&quot;:null}" fill="#ffffff" stroke="none" stroke-width="0.27541" stroke-linecap="round"/><path d="M220.78927,322.60864l0.75249,-2.83688l1.59212,1.24003z" data-paper-data="{&quot;origPos&quot;:null}" fill="#ffffff" stroke="none" stroke-width="0.27541" stroke-linecap="round"/><path d="M222.96673,323.96155l-0.0998,-2.93312l2.14143,0.58813z" data-paper-data="{&quot;origPos&quot;:null}" fill="#ffffff" stroke="none" stroke-width="0.27541" stroke-linecap="round"/><path d="M237.05093,305.62262h8.83541v12.92579h-8.83541z" data-paper-data="{&quot;origPos&quot;:null}" fill="#c673f8" stroke="none" stroke-width="0.27541" stroke-linecap="butt"/><path d="M238.83318,315.68816c1.33507,-0.04278 2.62105,-0.24792 3.84482,0.18892c1.16279,0.41704 2.54382,0.98379 3.10898,2.204c0.50616,1.22774 0.54536,3.26065 -0.38179,4.02977c-1.23726,1.02537 -3.0456,0.10457 -4.58148,0.18892c-1.37111,-0.00118 -2.75729,0.18892 -4.14463,0.06299c-1.01229,-0.09188 -2.05865,-0.31328 -2.95411,-0.87013c-0.87131,-0.54259 -2.11807,-1.46576 -2.11807,-2.404c0,-0.93824 0.80913,-1.78816 2.11807,-2.404c1.30775,-0.61467 3.38898,-0.92557 5.10822,-0.99646z" data-paper-data="{&quot;origPos&quot;:null}" fill="#c673f8" stroke="none" stroke-width="0.29746" stroke-linecap="round"/><path d="M229.73244,320.50561l2.18142,-1.9632l0.65466,1.90895z" data-paper-data="{&quot;origPos&quot;:null}" fill="#ffffff" stroke="none" stroke-width="0.27541" stroke-linecap="round"/><path d="M231.48254,323.00471l0.75249,-2.83689l1.59212,1.24003z" data-paper-data="{&quot;origPos&quot;:null}" fill="#ffffff" stroke="none" stroke-width="0.27541" stroke-linecap="round"/><path d="M233.65999,324.55564l-0.0998,-2.93313l2.14143,0.58814z" data-paper-data="{&quot;origPos&quot;:null}" fill="#ffffff" stroke="none" stroke-width="0.27541" stroke-linecap="round"/><path d="M214.36893,293.13912c1.33627,0.06099 2.64838,1.73627 3.81751,1.25428c2.44797,-1.01428 4.16562,-5.01 6.10863,-5.18109c1.1113,0.08951 0.61506,3.62345 0,5.01753c-1.13229,2.56759 -3.1569,4.88247 -5.19337,6.64172c-1.12003,0.96753 -2.50342,1.70261 -4.10583,1.70261c-1.60201,0 -3.05391,-0.65109 -4.10542,-1.70261c-1.0515,-1.0515 -1.59251,-2.62896 -1.70261,-4.10583c-0.07327,-0.99248 0.50812,-2.02103 1.36319,-2.53589c1.03091,-0.80516 2.45431,-1.15092 3.81788,-1.09072z" data-paper-data="{&quot;origPos&quot;:null}" fill="#c774f9" stroke="none" stroke-width="0.27541" stroke-linecap="butt"/><path d="M211.47821,295.75705l-1.96321,1.03606" data-paper-data="{&quot;origPos&quot;:null}" fill="none" stroke="#794699" stroke-width="0.27541" stroke-linecap="round"/><path d="M210.376,299.81811l2.29033,-1.09072" data-paper-data="{&quot;origPos&quot;:null}" fill="none" stroke="#794699" stroke-width="0.27541" stroke-linecap="round"/><path d="M211.9602,301.40235l2.29033,-1.09072" data-paper-data="{&quot;origPos&quot;:null}" fill="none" stroke="#794699" stroke-width="0.27541" stroke-linecap="round"/><path d="M236.10164,276.04855c3.94977,0 7.52886,1.95567 10.12019,5.11455c2.59173,3.16006 4.19652,7.52292 4.19652,12.33767c0,4.81474 -1.60478,9.17761 -4.19652,12.33767c-2.59133,3.15888 -6.17042,5.11455 -10.12019,5.11455c-3.94938,0 -7.52846,-1.95567 -10.12019,-5.11455c-2.59133,-3.16006 -4.19612,-7.52292 -4.19612,-12.33767c0,-4.81474 1.60478,-9.17761 4.19612,-12.33767c2.59173,-3.15888 6.17082,-5.11455 10.12019,-5.11455z" data-paper-data="{&quot;origPos&quot;:null}" fill="#c774f9" stroke="none" stroke-width="0.27541" stroke-linecap="butt"/><path d="M226.76284,274.15745l-5.73279,-1.33428l-8.0057,-23.86938l14.82565,8.89522z" data-paper-data="{&quot;origPos&quot;:null}" fill="#c774f9" stroke="none" stroke-width="0.24956" stroke-linecap="round"/><path d="M224.14338,269.01795c0,0 -0.95883,-0.86575 -1.33428,-1.38379c-0.50219,-0.6919 -0.86457,-1.47963 -1.28477,-2.22381c-0.36953,-0.65428 -0.79565,-1.28398 -1.08714,-1.97667c-0.36991,-0.87804 -0.65428,-1.7949 -0.88953,-2.71807c-0.22733,-0.8915 -0.49427,-2.71806 -0.49427,-2.71806" data-paper-data="{&quot;origPos&quot;:null}" fill="none" stroke="#7a4799" stroke-width="0.24956" stroke-linecap="round"/><path d="M221.82097,261.20946c0,0 0.43367,0.2919 0.59289,0.49427c0.20952,0.26693 0.43883,0.55567 0.49427,0.88952c0.08079,0.48832 -0.09901,1.48281 -0.09901,1.48281" data-paper-data="{&quot;origPos&quot;:null}" fill="none" stroke="#7a4799" stroke-width="0.24956" stroke-linecap="round"/><path d="M233.04652,262.89187c5.57595,0 10.62911,1.22379 14.28859,3.20126c3.65868,1.97707 5.92369,4.70663 5.92369,7.72054c0,3.01352 -2.26499,5.74309 -5.92369,7.72015c-3.65948,1.97746 -8.71264,3.20125 -14.28859,3.20125c-5.57636,0 -10.62952,-1.22378 -14.28899,-3.20125c-3.65829,-1.97707 -5.92329,-4.70663 -5.92329,-7.72015c0,-3.01391 2.26499,-5.74347 5.92329,-7.72054c3.65948,-1.97746 8.71264,-3.20126 14.289,-3.20126z" data-paper-data="{&quot;origPos&quot;:null}" fill="#c774f9" stroke="none" stroke-width="0.24689" stroke-linecap="butt"/><path d="M237.38365,250.21085c4.55336,0 8.68017,1.84914 11.66875,4.83732c2.98779,2.98857 4.28166,7.56608 4.83732,11.66874c0.44872,3.32085 0.55646,7.41123 -1.97706,9.9293c-3.57987,3.59493 -9.06712,6.20764 -14.529,6.57637c-4.29156,0.28871 -8.67978,-1.84915 -11.66874,-4.83732c-2.98779,-2.98818 -4.83693,-7.11499 -4.83693,-11.66835c0,-4.55375 1.84914,-8.68017 4.83693,-11.66874c2.98897,-2.98818 7.11538,-4.83732 11.66874,-4.83732z" data-paper-data="{&quot;origPos&quot;:null}" fill="#c774f9" stroke="none" stroke-width="0.23388" stroke-linecap="round"/><path d="M246.57827,259.03716l14.82564,-8.89522l-8.0057,23.86938l-5.73279,1.33428z" data-paper-data="{&quot;origPos&quot;:null}" fill="#c774f9" stroke="none" stroke-width="0.24956" stroke-linecap="round"/><path d="M255.37487,259.18568c0,0 -0.26693,1.82657 -0.49427,2.71806c-0.23525,0.92318 -0.5196,1.84004 -0.88952,2.71807c-0.29149,0.69269 -0.71765,1.32241 -1.08715,1.97667c-0.42021,0.74417 -0.78259,1.53192 -1.28477,2.22381c-0.37546,0.51802 -1.33428,1.3838 -1.33428,1.3838" data-paper-data="{&quot;origPos&quot;:null}" fill="none" stroke="#7a4799" stroke-width="0.24956" stroke-linecap="round"/><path d="M251.61915,265.26421c0,0 -0.17981,-0.99448 -0.09901,-1.48281c0.05544,-0.33386 0.28476,-0.62259 0.49427,-0.88952c0.15921,-0.20237 0.59289,-0.49427 0.59289,-0.49427" data-paper-data="{&quot;origPos&quot;:null}" fill="none" stroke="#7a4799" stroke-width="0.24956" stroke-linecap="round"/><path d="M228.00325,253.91588c1.66775,0 3.17867,1.0717 4.27256,2.80164c1.09428,1.73073 1.77112,4.12087 1.77112,6.75816c0,2.63727 -0.67685,5.02742 -1.77112,6.75815c-1.09389,1.72993 -2.60481,2.80165 -4.27256,2.80165c-1.66735,0 -3.17867,-1.07171 -4.27217,-2.80165c-1.09428,-1.73073 -1.77112,-4.12086 -1.77112,-6.75815c0,-2.63727 0.67685,-5.02743 1.77112,-6.75816c1.09348,-1.72993 2.6048,-2.80164 4.27217,-2.80164z" data-paper-data="{&quot;origPos&quot;:null}" fill="#ffffff" stroke="none" stroke-width="0.22196" stroke-linecap="butt"/><path d="M235.11312,275.24652c0,0 -0.7216,0.18496 -1.08755,0.24713c-0.40793,0.06931 -0.821,0.16792 -1.23528,0.14813c-0.67604,-0.03446 -1.51013,0.00713 -2.1743,-0.34575c-0.41625,-0.2412 -0.64555,-0.76002 -0.79091,-1.28478c-0.08673,-0.33625 0.12276,-0.72079 0.34615,-0.98853c0.21625,-0.25981 0.67091,-0.23525 0.88952,-0.49427c0.38616,-0.46258 0.63131,-1.06735 0.88953,-1.63053c0.43288,-0.94101 1.48241,-3.26185 1.48241,-3.26185" data-paper-data="{&quot;origPos&quot;:null}" fill="none" stroke="#784598" stroke-width="0.24956" stroke-linecap="round"/><path d="M238.89455,253.71783c1.66775,0 3.17867,1.07171 4.27256,2.80165c1.09428,1.73073 1.77112,4.12086 1.77112,6.75816c0,2.63727 -0.67685,5.02743 -1.77112,6.75816c-1.09389,1.72993 -2.60481,2.80164 -4.27256,2.80164c-1.66735,0 -3.17868,-1.0717 -4.27217,-2.80164c-1.09428,-1.73073 -1.77112,-4.12087 -1.77112,-6.75816c0,-2.63727 0.67685,-5.02743 1.77112,-6.75816c1.09348,-1.72993 2.60481,-2.80165 4.27217,-2.80165z" data-paper-data="{&quot;origPos&quot;:null}" fill="#ffffff" stroke="none" stroke-width="0.22196" stroke-linecap="butt"/><path d="M236.74361,252.61287l-3.70621,6.12805l-3.55808,-5.73279" data-paper-data="{&quot;origPos&quot;:null}" fill="none" stroke="#794699" stroke-width="0.24956" stroke-linecap="round"/><path d="M225.13032,265.11566c0.27287,0 0.52,0.19365 0.69863,0.50733c0.17901,0.31328 0.28991,0.74497 0.28991,1.22261c0,0.47724 -0.11091,0.90933 -0.28991,1.2226c-0.17863,0.31328 -0.42575,0.50695 -0.69863,0.50695c-0.27287,0 -0.52001,-0.19366 -0.69863,-0.50695c-0.17901,-0.31328 -0.28991,-0.74536 -0.28991,-1.2226c0,-0.47763 0.1109,-0.90933 0.28991,-1.22261c0.17863,-0.31367 0.42575,-0.50733 0.69863,-0.50733z" data-paper-data="{&quot;origPos&quot;:null}" fill="#000000" stroke="none" stroke-width="0.24956" stroke-linecap="butt"/><path d="M235.62559,265.11566c0.27287,0 0.52,0.19365 0.69863,0.50733c0.17901,0.31328 0.28991,0.74497 0.28991,1.22261c0,0.47724 -0.1109,0.90933 -0.28991,1.2226c-0.17863,0.31328 -0.42574,0.50695 -0.69863,0.50695c-0.27287,0 -0.52001,-0.19366 -0.69864,-0.50695c-0.17901,-0.31328 -0.2899,-0.74536 -0.2899,-1.2226c0,-0.47763 0.1109,-0.90933 0.2899,-1.22261c0.17863,-0.31367 0.42575,-0.50733 0.69864,-0.50733z" data-paper-data="{&quot;origPos&quot;:null}" fill="#000000" stroke="none" stroke-width="0.24956" stroke-linecap="butt"/><path d="M247.36879,276.13566c0,0 -2.24558,1.76043 -3.45947,2.47093c-1.84201,0.99051 -3.7379,2.00956 -5.68288,2.61946c-2.64798,0.8321 -5.3807,1.8321 -8.15421,1.72953c-2.28994,-0.08595 -4.35493,-1.25151 -6.42428,-2.07568c-1.60122,-0.74615 -3.13234,-1.68914 -4.54662,-2.61907c-1.07328,-0.70575 -2.96521,-2.47093 -2.96521,-2.47093" data-paper-data="{&quot;origPos&quot;:null}" fill="none" stroke="#794699" stroke-width="0.24956" stroke-linecap="round"/><path d="M244.35447,278.40821l0.84001,-4.94189l2.47093,2.37194z" data-paper-data="{&quot;origPos&quot;:null}" fill="#ffffff" stroke="none" stroke-width="0.24956" stroke-linecap="round"/><path d="M216.06958,275.44217l2.47093,-2.37194l0.84001,4.94188z" data-paper-data="{&quot;origPos&quot;:null}" fill="#ffffff" stroke="none" stroke-width="0.24956" stroke-linecap="round"/><path d="M238.3298,291.15889c1.33627,0.06099 2.64838,1.73627 3.81751,1.25428c2.44797,-1.01428 4.16562,-5.01 6.10863,-5.18109c1.1113,0.08951 0.61506,3.62345 0,5.01753c-1.13229,2.56759 -3.15691,4.88247 -5.19337,6.64172c-1.12003,0.96753 -2.50342,1.70261 -4.10582,1.70261c-1.60201,0 -3.05391,-0.65109 -4.10542,-1.70261c-1.0515,-1.0515 -1.59251,-2.62896 -1.70261,-4.10583c-0.07327,-0.99248 0.50812,-2.02103 1.36319,-2.53589c1.03091,-0.80516 2.45431,-1.15092 3.81788,-1.09072z" data-paper-data="{&quot;origPos&quot;:null}" fill="#c774f9" stroke="#b16ee7" stroke-width="0.27541" stroke-linecap="butt"/><path d="M235.43904,293.77677l-2.29033,1.09072" data-paper-data="{&quot;origPos&quot;:null}" fill="none" stroke="#794699" stroke-width="0.27541" stroke-linecap="round"/><path d="M234.20737,298.00143l2.61787,-1.25428" data-paper-data="{&quot;origPos&quot;:null}" fill="none" stroke="#794699" stroke-width="0.27541" stroke-linecap="round"/><path d="M238.40941,298.33135l-2.45391,1.36319" data-paper-data="{&quot;origPos&quot;:null}" fill="none" stroke="#794699" stroke-width="0.27541" stroke-linecap="round"/></g><g data-paper-data="{&quot;origPos&quot;:null}"><path d="M407.3969,320.96626l-11.51353,1.74447l-68.73234,-1.74447l-7.6757,-0.3489l-3.48895,-16.39807l2.09337,-21.98039l1.39558,-10.81575l63.49892,-0.69779z" data-paper-data="{&quot;origPos&quot;:null}" fill="#9c5a00" stroke="#9c5a00" stroke-width="0" stroke-linecap="round"/><path d="M380.53199,285.72785c1.92953,3.76494 2.31167,7.23025 2.79116,10.46685c0.47949,3.2366 0.38594,5.54333 0,8.37349c-0.38594,2.83015 -0.74475,4.75268 -2.09338,6.9779c-1.34862,2.22522 -2.87138,2.85801 -4.88452,4.53563c-2.01315,1.67762 -2.14815,2.20034 -3.48895,2.44227c-1.60741,0.29003 -12.798,0.88018 -20.23592,0.3489c-7.4379,-0.53128 -14.10742,-1.88882 -18.84034,-3.14006c-4.73292,-1.25123 -8.89465,-2.84764 -11.51353,-4.88454c-2.61888,-2.0369 -4.40765,-5.03477 -4.60541,-6.48945c-0.23822,-1.75224 -1.84444,-3.31287 -0.27912,-10.95531c1.56531,-7.64244 4.69079,-15.38934 6.62901,-18.84034c1.93823,-3.451 7.6757,-6.62901 7.6757,-6.62901l37.33178,0.34889c0,0 9.58401,13.67982 11.51354,17.44476z" data-paper-data="{&quot;origPos&quot;:null}" fill="url(#color-12)" stroke="#ffffff" stroke-width="0" stroke-linecap="round"/><path d="M393.11898,246.62558l7.06513,4.97175l1.8317,29.56886l9.1585,28.78385l-11.77522,0.52334l-23.28875,-50.50257z" data-paper-data="{&quot;origPos&quot;:null}" fill="#5242ad" stroke="#000000" stroke-width="0" stroke-linecap="round"/><g data-paper-data="{&quot;origPos&quot;:null}" stroke="#000000" stroke-width="0"><path d="M367.99854,260.75583h-40.55906l29.56887,-49.71756l36.63398,13.86859z" data-paper-data="{&quot;origPos&quot;:null}" fill="#536265" stroke-linecap="round"/><path d="M360.89321,217.13936l-4.88454,1.74448l-21.2826,49.892l-14.47914,-2.00614c0,0 2.2138,-11.82427 4.63565,-16.04274c7.26554,-12.65543 25.54378,-43.00778 25.54378,-43.00778l9.42017,0.34891l10.46686,0.3489l21.2826,9.07127l8.37349,3.14006l2.09337,4.18673l-0.69779,10.11795l-3.14006,6.28011l-3.48894,6.28011l-7.42636,5.16617c-0.91748,-0.68923 -1.83498,-1.37846 -2.75245,-2.06769c-1.53391,-1.1523 -3.03668,-2.3293 -4.52292,-3.54243c-1.16712,-0.95266 -2.48312,-2.28094 -3.81156,-2.99332l11.88428,-12.61188l1.04669,-2.09338l-2.09337,-2.44227l-18.66589,-9.07127z" data-paper-data="{&quot;origPos&quot;:null}" fill="#f6e000" stroke-linecap="butt"/></g><path d="M401.47921,297.12152l0.84861,0.07604c1.90744,2.72492 3.98593,5.38823 6.21224,7.8619c3.77127,4.28437 9.99212,4.83691 13.27058,9.69713c2.13984,3.17225 -0.25464,6.7083 -3.02292,8.21889c-4.48728,2.44862 -12.83263,0.21544 -16.46637,-2.75761c-4.33494,-4.21972 -6.13303,-11.01015 -6.58051,-16.97365c-0.17718,-2.36134 0.16476,-4.67036 -0.37604,-7.06772c-0.96266,-4.26749 -6.1368,-4.35589 -7.18715,-8.60478c-0.21017,-0.8502 1.83502,-4.05291 1.83688,-4.9287c0.00302,-1.42341 -0.53096,-3.13612 -0.87333,-4.50562c-0.93807,-4.01372 -6.56681,-8.85712 -6.35159,-13.00844c0.28425,-5.48284 8.0512,-10.71874 13.20905,-12.73367c1.8589,-0.72618 4.55964,-0.15296 6.47951,-0.00528c0,0 2.60901,0.20069 2.40831,2.80969c-0.20069,2.60901 -2.80971,2.4083 -2.80971,2.4083c-1.57954,-0.12151 -4.26322,1.16336 -5.81903,1.82643c-1.09017,0.46463 -2.86144,1.35777 -3.71217,2.43264c-0.60525,0.76471 -2.66471,2.66674 -2.85619,3.63525c-0.04374,0.22122 0.58612,-0.16832 0.67538,0.03877c0.46753,1.08469 0.45534,2.34077 0.94786,3.41434c1.16932,2.54885 2.19828,5.2015 2.90573,7.91264c0.38196,1.52785 0.95638,3.32952 0.95838,4.91455c0.00178,1.42048 2.78547,5.73401 3.14522,7.10819c0.0643,0.24565 1.65668,1.59878 2.36387,3.4321c0.57306,1.48561 0.75426,4.79507 0.75426,4.79507l0.04376,-0.03967c0,0 -0.00123,0.01518 -0.00467,0.04316z" data-paper-data="{&quot;origPos&quot;:null}" fill="#f6e000" stroke="none" stroke-width="0.5" stroke-linecap="butt"/><g data-paper-data="{&quot;origPos&quot;:null}" stroke="#000000" stroke-width="0" stroke-linecap="round"><path d="M345.15248,316.48724c0.32599,2.39065 5.43976,3.86826 -5.23343,5.23343c-10.6732,1.36518 -27.56272,0.69779 -27.56272,0.69779l-3.14006,-1.39558c0,0 -1.45871,-2.10287 0,-4.18674c1.45871,-2.08388 4.88453,-2.79116 4.88453,-2.79116c0,0 -8.98734,-4.2373 -10.46685,-5.58232c-1.47951,-1.34502 -1.60055,-2.22171 -1.04669,-4.88454c0.55387,-2.66283 0.45705,-3.16098 3.3145,-6.01844c2.85745,-2.85745 8.54793,-5.84399 8.54793,-5.84399c0,0 4.13027,-2.09337 6.97791,-2.09337c2.84764,0 4.45795,0.93554 6.97791,2.09337c2.51996,1.15782 3.44651,1.35315 5.93121,3.83785c2.48469,2.48469 5.23343,7.3268 5.23343,7.3268c0,0 1.12158,6.68294 1.74448,8.02459c0.62291,1.34164 2.46516,-0.64617 2.79117,1.74448z" data-paper-data="{&quot;origPos&quot;:null}" fill="url(#color-13)"/><path d="M318.9493,322.11807c-0.39823,0.03057 -15.70029,0.3489 -15.70029,0.3489c0,0 2.84028,-3.98126 5.23343,-5.93123c2.39314,-1.94995 4.18674,-1.74448 4.18674,-1.74448c0,0 2.96167,-0.4723 4.53563,0.3489c1.57397,0.82121 2.78335,1.92288 3.48895,3.83785c0.7056,1.91496 -1.34625,3.10948 -1.74447,3.14006z" data-paper-data="{&quot;origPos&quot;:null}" fill="url(#color-14)"/></g><g data-paper-data="{&quot;origPos&quot;:null}" stroke-width="0" stroke-linecap="round"><path d="M386.57719,287.44629c0,0 3.99768,3.67162 6.28011,6.28012c2.28243,2.6085 2.4812,2.23692 2.87839,4.18673c0.39718,1.94982 0.89697,6.16345 0,9.94351c-0.89697,3.78006 -3.6634,5.4951 -3.6634,5.4951l7.3268,5.75678v5.23343h-32.44725l-5.75678,-1.04669l-1.30836,-3.14006l1.8317,-3.14006l3.40172,-2.61671c0,0 -0.8347,-1.63493 -1.4828,-2.35503c-0.6481,-0.72012 -2.51436,-5.71353 -1.91893,-9.1585c0.59543,-3.44497 2.47419,-7.66112 4.71008,-12.29855c2.2359,-4.63744 2.35504,-2.35504 2.35504,-2.35504l10.72853,-3.14006z" data-paper-data="{&quot;origPos&quot;:null}" fill="url(#color-15)" stroke="#18c100"/><path d="M381.75047,317.75687c4.11625,0.52907 8.02459,6.97791 8.02459,6.97791l-2.79116,0.69779l-13.60692,-0.69779c0,0 -0.28461,-1.72391 0,-2.79117c0.2846,-1.06725 0.60348,-1.65016 1.39558,-2.44227c0.7921,-0.7921 0.50707,-0.91177 2.44227,-1.39558c1.9352,-0.48379 0.86535,-0.82064 4.53564,-0.3489z" data-paper-data="{&quot;origPos&quot;:null}" fill="url(#color-16)" stroke="#000000"/><path d="M391.17067,316.71018c1.42567,0.36962 3.14006,2.09337 3.14006,2.09337l4.88452,5.58231l-2.09337,0.3489h-12.56023c0,0 -1.25151,-2.08928 -1.39558,-2.44227c-0.14407,-0.35297 0,-0.23535 0,-0.9769c0,-0.74154 -0.51329,-0.35653 0,-1.81426c0.51329,-1.45772 -0.57395,-2.33364 1.74448,-3.14006c2.31843,-0.80642 4.85444,-0.02072 6.28012,0.34889z" data-paper-data="{&quot;origPos&quot;:null}" fill="url(#color-17)" stroke="#000000"/><path d="M396.40409,319.15245c1.18575,-0.20209 1.69846,-0.22762 3.14006,0c1.4416,0.22762 2.42473,0.10071 3.48895,1.04669c1.06421,0.94597 2.79116,4.53564 2.79116,4.53564c0,0 -5.55973,1.31851 -8.37349,-0.3489c-2.81375,-1.6674 -3.11115,-4.88157 -1.04668,-5.23343z" data-paper-data="{&quot;origPos&quot;:null}" fill="url(#color-18)" stroke="#000000"/></g><g data-paper-data="{&quot;origPos&quot;:null}"><path d="M384.2692,255.51783l-4.18673,8.02459l-9.76906,2.09338l-3.33942,0.54826l-5.38296,3.63847l-6.97791,4.53563l-4.88453,5.93122l-1.04669,2.09338l-2.34258,2.09337c0,0 -0.06514,1.56414 -0.44859,2.79117c-0.38344,1.22701 -0.72802,1.74057 -1.2959,3.09022c-0.42996,1.02188 -1.43327,1.64824 -2.89084,2.4921c-1.45757,0.84385 -4.40358,1.01055 -4.54237,0.98741c-0.41638,-0.0694 -2.51403,-0.25421 -3.83112,-0.63852c-1.3171,-0.38431 -1.72579,0.01869 -3.14006,-1.39558c-1.41426,-1.41427 -2.05511,-2.31641 -2.09338,-3.83784c-0.13693,-5.44471 0,-13.95581 0,-13.95581l-10.11795,-0.34889l-4.53563,-2.44226l3.14006,-3.83785l3.83784,-0.69779l0.43612,-3.40172l13.69413,5.844l0.52334,5.23343l6.97791,1.39558l4.53563,0.34889l4.88454,-5.23343l5.23343,-4.53563l8.02459,-4.18674l0.34889,-4.18674l5.93123,-8.37348l13.21202,-13.76994c1.33886,0.67328 9.3511,10.22267 10.22256,10.87732z" data-paper-data="{&quot;origPos&quot;:null}" fill="#f6e000" stroke="#000000" stroke-width="0" stroke-linecap="butt"/><g data-paper-data="{&quot;origPos&quot;:null}"><path d="M341.43454,285.21347c0,2.89034 -2.67112,5.23342 -5.96611,5.23342c-3.29498,0 -5.96611,-2.34309 -5.96611,-5.23342c0,-2.89033 2.67111,-5.23343 5.96611,-5.23343c3.29498,0 5.96611,2.34309 5.96611,5.23343z" data-paper-data="{&quot;origPos&quot;:null}" fill="#ca576f" stroke="none" stroke-width="0" stroke-linecap="butt"/><path d="M333.27041,286.4695l-5.02409,-2.51205l5.6521,-1.88404l3.14006,-6.48945l0.20933,7.11746l8.37349,3.34939l-7.95481,1.46536l-2.30271,5.86144z" data-paper-data="{&quot;origPos&quot;:null}" fill="#d1290f" stroke="#d1290f" stroke-width="0.5" stroke-linecap="round"/></g></g><g data-paper-data="{&quot;origPos&quot;:null}" stroke-width="0" stroke-linecap="round"><path d="M404.63249,256.56906l4.18674,2.09338l2.35504,2.09338l0.52334,2.87839l0.26167,3.6634l-1.30836,4.18674l-2.87839,4.44842l-4.18673,3.6634l-3.6634,2.09337l-3.92507,0.52334h-6.54179l-1.57002,4.71009l-2.61671,1.30836l-8.89683,0.26168l-9.42017,-0.52334l-2.09338,-1.8317l-1.57002,-2.35504v-1.57003v-1.8317l1.04669,-1.57003l-2.35504,-2.87839l-0.26167,-3.14006l0.78501,-1.8317l2.35503,-3.14006h2.61671v-3.14006l3.40172,-2.87839l2.61671,-1.30836l3.14006,0.52334l3.6634,2.09338l2.61671,4.97175l18.57867,-11.25186z" data-paper-data="{&quot;origPos&quot;:null}" fill="url(#color-19)" stroke="#18c100"/><path d="M362.62375,271.28405c1.28163,0.32316 1.46677,0.6274 1.585,1.46536c0.11822,0.83796 0.13034,2.39155 -0.90572,3.34939c-1.03605,0.95784 -2.71715,0 -2.71715,0l-4.07572,-0.83735l2.71714,-3.76807c0,0 2.11479,-0.53249 3.39642,-0.20933z" data-paper-data="{&quot;origPos&quot;:null,&quot;index&quot;:null}" fill="url(#color-20)" stroke="#000000"/><path d="M365.11448,280.49485c1.28163,0.32316 1.46679,0.62739 1.58501,1.46536c0.11822,0.83796 0.13033,2.39156 -0.90572,3.34939c-1.03605,0.95784 -2.71714,0 -2.71714,0l-4.07572,-0.83735l2.71714,-3.76806c0,0 2.11479,-0.5325 3.39643,-0.20934z" data-paper-data="{&quot;origPos&quot;:null,&quot;index&quot;:null}" fill="url(#color-21)" stroke="#000000"/><path d="M369.36538,262.07322c1.28163,0.32316 1.46677,0.62739 1.585,1.46536c0.11822,0.83796 0.13034,2.39155 -0.90572,3.34939c-1.03605,0.95784 -2.71715,0 -2.71715,0l-4.07572,-0.83735l2.71715,-3.76807c0,0 2.11479,-0.53249 3.39643,-0.20933z" data-paper-data="{&quot;origPos&quot;:null,&quot;index&quot;:null}" fill="url(#color-22)" stroke="#000000"/></g><g data-paper-data="{&quot;origPos&quot;:null}" stroke-width="0" stroke-linecap="round"><path d="M308.0404,271.59662l2.83283,-4.10578l3.4509,-1.45766l2.8234,-0.12904l10.54171,3.52363l-3.70501,3.84893l1.74372,3.01725l0.49817,1.69776l-0.56296,2.74033l-2.38064,2.28815l0.75652,1.49478l-0.35999,2.99869l-1.63323,1.90987l-2.03919,1.39315l-8.35946,-0.53555l-5.36855,-0.80523c0.06342,-1.44853 -0.10399,-2.92767 -0.51183,-4.30947c0.88029,-4.58477 1.29635,-9.24631 1.87566,-13.88116z" data-paper-data="{&quot;origPos&quot;:null,&quot;index&quot;:null,&quot;origRot&quot;:0}" fill="url(#color-23)" stroke="#18c100"/><path d="M327.67175,275.68012l2.51205,3.76806l-3.76806,0.83735c0,0 -1.55421,0.95784 -2.51205,0c-0.95785,-0.95785 -0.94664,-2.51143 -0.83735,-3.34939c0.10931,-0.83795 0.28047,-1.14221 1.46536,-1.46536c1.18489,-0.32316 3.14006,0.20934 3.14006,0.20934z" data-paper-data="{&quot;origPos&quot;:null}" fill="url(#color-24)" stroke="#000000"/><path d="M325.36897,284.89097l2.51205,3.76806l-3.76806,0.83735c0,0 -1.5542,0.95785 -2.51205,0c-0.95785,-0.95785 -0.94664,-2.51143 -0.83735,-3.34939c0.10929,-0.83796 0.28047,-1.1422 1.46536,-1.46536c1.18489,-0.32316 3.14006,0.20934 3.14006,0.20934z" data-paper-data="{&quot;origPos&quot;:null}" fill="url(#color-25)" stroke="#000000"/><path d="M322.01964,266.88795l2.51205,3.76806l-3.76806,0.83735c0,0 -1.5542,0.95784 -2.51205,0c-0.95785,-0.95785 -0.94664,-2.51142 -0.83735,-3.34938c0.10929,-0.83796 0.28047,-1.14221 1.46536,-1.46536c1.18489,-0.32316 3.14006,0.20934 3.14006,0.20934z" data-paper-data="{&quot;origPos&quot;:null}" fill="url(#color-26)" stroke="#000000"/></g><g data-paper-data="{&quot;origPos&quot;:null}"><path d="M342.40176,208.59145v-10.46685l-1.57003,-0.17443l-0.87223,-0.69779l-0.52333,-1.04669v-1.57003l1.04668,-1.22112l1.22114,-0.69779l1.91892,0.34889l1.57003,1.39559v1.74447l-0.87223,1.22113l1.91892,2.26781l-0.17444,-4.71009l-1.39558,-1.39559l-0.52334,-1.91892l0.69779,-1.39559l2.09338,-0.52334h1.39558l0.69779,1.04668l0.69779,2.09338l-1.22114,1.74447l4.71008,5.93122h1.74448l4.88453,-5.58232l-0.69779,-1.22113l0.34889,-2.09338l0.87223,-1.39559l1.91892,-0.3489l1.22113,1.04668l0.87224,1.74449l-0.52334,1.39558l-1.74448,1.22113l-0.17445,5.75678l1.04669,1.57002l1.39558,0.69779l1.39557,-1.39559l3.6634,-4.53563l-0.34889,-1.91893l0.69779,-1.04669l1.39558,-0.69778h1.91892l0.87223,0.87223v1.74448l-0.3489,1.22112l-1.57002,0.52334h-1.04669l-2.09337,6.10567l0.17444,2.44227l1.22114,1.39559h1.22113l1.22114,-0.87224v-1.22112l0.34889,-1.57002l1.22114,-0.52334h1.04669l1.74448,0.3489l0.87223,1.74447l-1.04669,2.09338l-1.57003,0.3489l-7.85014,11.33909l-5.05898,-4.71008l-3.48895,-1.91892h-7.15234l-9.24572,-0.17444z" data-paper-data="{&quot;origPos&quot;:null}" fill="url(#color-27)" stroke="#fff700" stroke-width="0" stroke-linecap="round"/><path d="M342.5762,205.97472l12.03689,-0.17443l3.14006,0.34889l3.14006,1.39559l3.6634,2.61671l5.23343,5.75678" data-paper-data="{&quot;origPos&quot;:null}" fill="none" stroke="#ce8c00" stroke-width="1" stroke-linecap="round"/><path d="M353.87429,206.75579c-1.06038,1.37226 -2.8779,1.74446 -4.05957,0.83137c-1.18166,-0.91311 -1.27997,-2.76575 -0.2196,-4.13799c1.06038,-1.37226 2.8779,-1.74447 4.05957,-0.83137c1.18166,0.91311 1.27998,2.76574 0.21961,4.13799z" data-paper-data="{&quot;origRot&quot;:0,&quot;origPos&quot;:null}" fill="url(#color-28)" stroke="#ce8c00" stroke-width="0" stroke-linecap="butt"/></g><g data-paper-data="{&quot;origPos&quot;:null}"><path d="M317.43706,260.39543l-0.47505,0.28678c-1.80605,-1.35453 -3.69934,-3.59731 -5.72366,-4.55877c-4.20214,-1.99581 -11.70916,0.03186 -11.92617,-6.95607c-0.04075,-1.31235 0.08836,-2.66824 0.53706,-3.90217c0.32592,-0.48216 0.77582,-1.15359 1.25968,-1.78657c-0.27683,-0.31307 -0.51882,-0.66614 -0.71607,-1.10112c-1.5266,-3.36679 -1.08416,-6.8079 1.09408,-9.92794c1.54667,-2.21543 4.57427,-2.56601 7.00844,-2.3473c0.42488,0.03817 1.10451,-0.15012 1.41647,0.04337c0.16195,-0.29258 0.32679,-0.58342 0.50838,-0.86399c0.70324,-1.08655 1.57828,-2.10436 2.35504,-3.14006c5.00087,-6.61995 11.3861,-13.17799 19.63551,-15.64946c2.21112,-0.66244 4.55678,-0.59735 6.80345,-1.04668c8.64979,-1.48388 19.33099,1.12215 26.57174,6.09172c2.06686,1.41857 3.28287,3.6158 5.11792,5.24695c4.43244,3.96072 8.31519,7.66648 11.47596,12.68428c2.02091,3.20823 4.35607,5.23276 4.33805,9.38706c-0.01376,3.1765 -3.38751,5.71596 -5.36174,7.74502c-2.54484,2.61553 -4.94608,5.50333 -7.61148,7.98836c-1.51868,1.41589 -3.4083,1.9387 -5.08033,3.01596c-6.08988,3.9236 -11.70849,6.99889 -19.18524,7.57403c-6.26934,0.42133 -11.92455,1.04546 -18.17506,-0.62564c-3.99786,-1.06886 -7.64174,-3.98229 -11.57289,-5.41181c0,0 -0.37914,-0.13787 -0.78554,-0.4542l-0.01378,0.07382c0,0 -1.57704,-0.78852 -1.49478,-2.36558z" data-paper-data="{&quot;origPos&quot;:null}" fill="url(#color-29)" stroke="#000000" stroke-width="0" stroke-linecap="butt"/><g data-paper-data="{&quot;origPos&quot;:null}"><path d="M356.28505,216.42519c3.28341,6.10616 1.56479,13.13325 -3.83864,15.69545c-5.40343,2.5622 -12.44551,-0.31077 -15.72893,-6.41693c-3.28341,-6.10616 -1.56479,-13.13326 3.83864,-15.69544c5.40343,-2.5622 12.44551,0.31078 15.72892,6.41693z" data-paper-data="{&quot;origRot&quot;:0,&quot;origPos&quot;:null}" fill="#ffffff" stroke="none" stroke-width="NaN" stroke-linecap="butt"/><path d="M340.23588,215.0296c3.28341,6.10616 1.56479,13.13325 -3.83865,15.69545c-5.40343,2.5622 -12.44551,-0.31077 -15.72892,-6.41694c-3.28341,-6.10616 -1.5648,-13.13326 3.83864,-15.69544c5.40343,-2.5622 12.44552,0.31078 15.72893,6.41694z" data-paper-data="{&quot;origRot&quot;:0,&quot;origPos&quot;:null}" fill="#ffffff" stroke="none" stroke-width="NaN" stroke-linecap="butt"/><path d="M341.44229,214.26097c-3.74,1.99897 -6.62901,7.67569 -6.62901,7.67569c0,0 -3.62041,-5.30001 -6.10566,-7.50124c-2.48526,-2.20123 -7.50125,-2.96561 -7.50125,-2.96561c0,0 1.69686,-1.64049 3.14006,-2.44227c1.4432,-0.80178 1.58402,-0.70091 3.14006,-1.04669c1.55603,-0.34579 1.59402,-0.73413 4.01229,0c2.41827,0.73413 5.75677,2.96562 5.75677,2.96562c0,0 2.77102,-2.08833 4.88454,-2.61671c2.11352,-0.52838 3.0555,-0.68914 5.58231,0c2.52682,0.68914 5.93122,3.14006 5.93122,3.14006c0,0 -8.47133,0.7922 -12.21134,2.79117z" data-paper-data="{&quot;origPos&quot;:null}" fill="#a8e61d" stroke="#a8e61d" stroke-width="0.5" stroke-linecap="round"/><path d="M339.56504,220.71819c0.39802,0 0.75842,0.23406 1.01903,0.61268c0.26139,0.37862 0.42297,0.9014 0.42297,1.47844c0,0.57665 -0.16159,1.09943 -0.42297,1.47844c-0.2606,0.37822 -0.621,0.61268 -1.01903,0.61268c-0.39802,0 -0.75883,-0.23447 -1.01943,-0.61268c-0.26139,-0.37901 -0.42298,-0.90179 -0.42298,-1.47844c0,-0.57705 0.1616,-1.09982 0.42298,-1.47844c0.2606,-0.37862 0.6214,-0.61268 1.01943,-0.61268z" data-paper-data="{&quot;origPos&quot;:null}" fill="#000000" stroke="none" stroke-width="0.14566" stroke-linecap="butt"/><path d="M329.66387,220.71819c0.39802,0 0.75842,0.23406 1.01903,0.61268c0.26139,0.37862 0.42298,0.9014 0.42298,1.47844c0,0.57665 -0.1616,1.09943 -0.42298,1.47844c-0.2606,0.37822 -0.621,0.61268 -1.01903,0.61268c-0.39802,0 -0.75883,-0.23447 -1.01943,-0.61268c-0.26139,-0.37901 -0.42298,-0.90179 -0.42298,-1.47844c0,-0.57705 0.1616,-1.09982 0.42298,-1.47844c0.2606,-0.37862 0.6214,-0.61268 1.01943,-0.61268z" data-paper-data="{&quot;origPos&quot;:null}" fill="#000000" stroke="none" stroke-width="0.14566" stroke-linecap="butt"/></g><path d="M302.04666,243.67358l8.11182,-0.52334h7.3268l8.89682,2.87838l8.37349,2.09338l5.75678,-0.26167" data-paper-data="{&quot;origPos&quot;:null}" fill="none" stroke="#005208" stroke-width="2" stroke-linecap="round"/><path d="M343.39077,245.50529l7.06513,-4.71008l6.28011,-2.61671l6.28011,-1.30836h2.87839l2.87838,1.04668l2.09338,2.35504l0.52334,4.71009v2.61671l-2.61671,3.40172l-3.92507,2.61671l-5.23342,0.78501l-12.03689,-3.6634l-8.89682,-2.87839z" data-paper-data="{&quot;origPos&quot;:null}" fill="#801a1a" stroke="#801a1a" stroke-width="0.5" stroke-linecap="round"/><path d="M323.17535,238.00185c-0.60838,-0.85173 0.24334,-1.46009 0.24334,-1.46009l-0.32781,-0.13971c0.89276,-1.78553 2.62505,-2.67196 4.59958,-2.67196c0,0 1.04668,0 1.04668,1.04668c0,1.04668 -1.04668,1.04669 -1.04668,1.04669c-1.39402,0 -2.27127,0.60288 -2.72721,1.51478l-0.32781,0.90697c0,0 -0.85172,0.60838 -1.4601,-0.24335z" data-paper-data="{&quot;origPos&quot;:null}" fill="#000000" stroke="none" stroke-width="0.5" stroke-linecap="butt"/><path d="M316.7003,237.65515c-1.04669,0 -1.04669,-1.04669 -1.04669,-1.04669c0,-0.69779 0,-2.1806 0,-2.87838c0,0 0,-1.04669 1.04669,-1.04669c1.04669,0 1.04669,1.04669 1.04669,1.04669c0,0.69779 0,1.39559 0,2.09337v0.78501c0,0 0,1.04669 -1.04669,1.04669z" data-paper-data="{&quot;origPos&quot;:null}" fill="#000000" stroke="none" stroke-width="0.5" stroke-linecap="butt"/><path d="M342.9983,245.63614c0,0 3.0901,1.35818 7.98098,1.70086c4.89087,0.34268 12.56023,-0.26167 12.56023,-0.26167c0,0 1.04669,1.29305 1.04669,2.87839c0,1.58534 -1.04669,3.92507 -1.04669,3.92507l-3.79424,0.65418l-11.77521,-3.6634l-9.28934,-3.00923z" data-paper-data="{&quot;origPos&quot;:null}" fill="#ffffff" stroke="#ffffff" stroke-width="0.5" stroke-linecap="round"/><path d="M348.36257,242.10356l2.48588,-1.70086c0,0 3.64781,-1.83681 6.06635,-2.51c2.53432,-0.70542 6.62471,-1.02256 6.62471,-1.02256l-0.39251,7.85014c0,0 -8.91653,0.66725 -9.93405,0.59188c-3.05254,-0.2261 -8.38294,-1.11522 -8.38294,-1.11522z" data-paper-data="{&quot;origPos&quot;:null}" fill="#ffffff" stroke="#ffffff" stroke-width="0.5" stroke-linecap="round"/></g></g></g><g data-paper-data="{&quot;origPos&quot;:null}" stroke="none" stroke-linecap="butt"><path d="M-108.92579,33.21558h679.92505v129.441h-679.92504z" fill="url(#color-30)" stroke-width="1.48265"/><path d="M-91.88547,-28.27892h668.9408v66.42382h-668.9408z" fill="#000000" stroke-width="1.45074"/></g><g data-paper-data="{&quot;origPos&quot;:null}" fill="#ffffff" stroke="none" stroke-width="0.21044" stroke-linecap="butt"><path d="M41.72163,8.68046c3.65078,0.95871 5.51421,1.51545 5.58951,1.66378c0,0.08443 0.88341,1.75124 2.64986,5.00273c-1.55767,5.21759 -2.44109,8.01538 -2.64986,8.39036l-5.66518,1.21275c-3.0427,-1.68468 -4.66084,-2.6434 -4.85136,-2.87614c-0.10002,-1.17662 -0.27533,-4.47982 -0.52632,-9.91494c2.87652,-1.9178 4.69431,-3.07617 5.45336,-3.47852zM42.69556,12.99675l-2.33802,2.42588c0.19965,2.51638 0.29967,4.0558 0.29967,4.61255c0.06047,0 0.56245,0.35101 1.51508,1.0496c1.25838,-0.27229 1.88738,-0.47498 1.88738,-0.59895l1.43673,-4.91526c-0.38409,-1.1675 -0.70772,-1.7482 -0.97393,-1.7482z"/><path d="M62.3288,12.45826l4.1619,2.86435c-0.29016,4.75173 -0.4959,7.52557 -0.61113,8.32684c-0.48373,0.0578 -1.9566,0.14527 -4.41593,0.26315l-0.08443,-0.17532l-0.43885,-6.67828l-0.17532,-0.08785c-1.59113,0.34188 -2.68903,0.602 -3.28798,0.77732c0.16657,2.84 0.24833,4.89701 0.24833,6.16413c-2.4833,0.69288 -3.84131,1.03743 -4.07443,1.03743c-1.61813,-7.1198 -2.42588,-10.87974 -2.42588,-11.27865c3.51768,-0.45977 5.42636,-0.68681 5.72604,-0.68681v0.08785c0.05743,0.03917 0.1449,0.90737 0.26278,2.59815c3.22448,-2.14142 4.93047,-3.21231 5.11491,-3.21231z"/><path d="M72.64306,12.47043c3.75955,0.70772 5.7287,1.11311 5.90401,1.21275v0.15136c-0.8104,2.28365 -1.21275,3.46635 -1.21275,3.55115h-0.07568c-0.20878,0 -1.21883,-0.32667 -3.02787,-0.97697c-1.007,1.69381 -1.51203,2.59815 -1.51203,2.713l2.50117,2.42588c1.93263,-1.81475 2.91873,-2.72516 2.9522,-2.72516c1.50633,1.97485 2.26235,3.08492 2.26235,3.32678c-0.8256,0.47498 -2.26235,1.40973 -4.31326,2.80084c-3.96833,-0.8587 -6.11279,-1.33673 -6.42728,-1.4394l-1.96306,-6.35199z"/><path d="M88.77346,12.47043c3.77781,1.94176 5.87093,3.07617 6.27935,3.40284c-0.54153,2.5316 -0.86516,3.83827 -0.9648,3.91395h-7.90054v0.13615l2.21101,2.73733l3.47852,-1.77557c0.3415,0.59288 0.8317,1.62726 1.47287,3.10317c-0.2993,0.10002 -2.48634,0.4206 -6.56343,0.96175c-3.37584,-2.22584 -5.07536,-3.38459 -5.10273,-3.4751c0.54153,-4.32846 0.86516,-6.49118 0.9648,-6.49118c3.52378,-1.50025 5.56859,-2.33802 6.12496,-2.51335zM87.96308,15.4983c-0.06655,0.16619 -0.50845,0.82865 -1.32798,1.98702c0,0.35101 0.49285,0.52328 1.47591,0.52328c0,0.05134 0.71381,0.17227 2.13876,0.3628c0.39284,-0.54115 0.58641,-0.8587 0.58641,-0.94958c-0.12397,-0.74118 -0.39284,-1.11311 -0.8104,-1.11311z"/><path d="M106.28013,8.68046l5.50204,0.97697l-0.52328,4.17711c1.09182,-0.06047 1.89043,-0.08785 2.39849,-0.08785h0.80165l0.17532,-0.08747l0.08785,0.17532c-0.17532,2.53463 -0.32667,3.9592 -0.45065,4.27675l-0.17532,-0.10268c-0.12436,0 -1.24926,-0.05743 -3.37584,-0.17227c-0.1179,1.95697 -0.20536,4.30109 -0.26315,7.02625l-0.17532,0.08747c-2.68295,-0.17532 -4.28588,-0.32667 -4.80003,-0.45065l0.08443,-0.35062c0,-0.72293 0.11827,-2.97654 0.35101,-6.7513c-2.25018,-0.12397 -3.37545,-0.27495 -3.37545,-0.45065c0.1179,-2.78258 0.2662,-4.17711 0.45065,-4.17711l3.28761,0.62634v-1.07698c0,-0.8739 -0.03308,-2.05661 -0.09963,-3.55078c0.06655,0 0.09963,-0.02738 0.09963,-0.08785z"/><path d="M121.6488,8.68046c0.0483,0.07568 0.28408,2.35932 0.6986,6.85398c3.2184,-0.98305 4.93313,-1.47591 5.14191,-1.47591l3.18798,2.1745c-0.5172,4.75173 -0.85603,7.52861 -1.0131,8.32989l-4.4281,0.14831c0,-0.0483 -0.02738,-0.07263 -0.0848,-0.07263l0.0848,-0.3145c0,-0.67463 0.10268,-2.72516 0.30233,-6.15234c-1.21883,-0.0483 -2.12316,-0.07529 -2.713,-0.07529h-0.31488c0.36013,3.8109 0.53849,5.88576 0.53849,6.22763l-4.20107,0.62595c-0.15744,-0.53202 -1.0922,-5.51383 -2.80084,-14.94161c0,-0.26925 0.6503,-0.47498 1.9509,-0.62634c1.6421,-0.46548 2.85826,-0.70163 3.65078,-0.70163z"/><path d="M133.57813,7.44337l4.91487,0.77428c-0.61683,2.35932 -1.02222,3.53898 -1.21275,3.53898c-2.58635,-0.17227 -3.87783,-0.34492 -3.87783,-0.51111v-3.62683c0.02433,-0.1179 0.0848,-0.17532 0.17569,-0.17532zM132.20187,13.39605h0.07568c3.80176,0.69251 5.70131,1.09486 5.70131,1.21275c-1.09182,6.18543 -1.75428,9.63351 -1.98702,10.34124h-3.96566c-0.11485,0 -0.17532,-0.05743 -0.17532,-0.17532z"/><path d="M148.99474,12.45826c2.40153,1.53371 3.72646,2.41675 3.97746,2.64986c-0.86821,1.92655 -1.3641,2.8883 -1.48808,2.8883l-4.55208,-2.63732h-0.16353c0,0.08443 -0.19357,0.55028 -0.58679,1.40023c4.19233,2.2593 6.29153,3.41806 6.29153,3.47548c-1.17662,2.71907 -1.83908,4.15277 -1.99043,4.30109l-7.11409,0.41414c-2.76737,-1.83262 -4.25545,-2.80084 -4.46423,-2.90047v-0.07568c0,-0.20878 0.41148,-1.14619 1.23708,-2.813l5.55338,2.88868l0.41109,-1.6516c-3.43288,-1.54245 -5.47466,-2.50421 -6.12496,-2.8883v-0.17569c0,-0.3145 0.66247,-1.72082 1.9874,-4.21323z"/><path d="M162.28819,7.44337l4.91526,0.77428c-0.61721,2.35932 -1.0226,3.53898 -1.21312,3.53898c-2.58598,-0.17227 -3.87744,-0.34492 -3.87744,-0.51111v-3.62683c0.02396,-0.1179 0.08443,-0.17532 0.17532,-0.17532zM160.91188,13.39605h0.07568c3.80215,0.69251 5.70131,1.09486 5.70131,1.21275c-1.09182,6.18543 -1.75428,9.63351 -1.98702,10.34124h-3.96529c-0.11485,0 -0.17569,-0.05743 -0.17569,-0.17532z"/><path d="M177.70475,12.45826c2.40191,1.53371 3.72646,2.41675 3.97746,2.64986c-0.86782,1.92655 -1.3641,2.8883 -1.48808,2.8883l-4.55208,-2.63732h-0.16315c0,0.08443 -0.19357,0.55028 -0.58679,1.40023c4.19195,2.2593 6.2881,3.41806 6.2881,3.47548c-1.17358,2.71907 -1.83604,4.15277 -1.98702,4.30109l-7.11409,0.41414c-2.76775,-1.83262 -4.25583,-2.80084 -4.46461,-2.90047v-0.07568c0,-0.20878 0.41148,-1.14619 1.23708,-2.813l5.55338,2.88868l0.41148,-1.6516c-3.43326,-1.54245 -5.47771,-2.50421 -6.128,-2.8883v-0.17569c0,-0.3145 0.66551,-1.72082 1.99006,-4.21323z"/><path d="M196.83606,8.66829h0.07568c3.76868,0.31755 5.65302,0.56283 5.65302,0.73814l1.66339,14.718c0,0.10876 -1.66339,0.38409 -4.99055,0.8256l-0.07568,-0.16315v-1.3371c-2.86739,0.77465 -4.83349,1.27359 -5.90097,1.50025c-2.53463,-3.58424 -3.86261,-5.49253 -3.98963,-5.7287c1.86913,-3.39067 2.86435,-5.10845 2.98833,-5.15103l5.23888,0.25137c-0.1061,-0.64155 -0.32667,-2.52588 -0.66247,-5.6534zM194.51018,17.63363c0.84387,2.57685 1.36715,3.98963 1.57555,4.24063l2.48938,-2.16271c-0.25708,-1.49416 -0.45065,-2.23839 -0.57462,-2.23839h-3.32716c-0.10876,0.01521 -0.16315,0.0696 -0.16315,0.16048z"/><path d="M210.56796,12.47043c3.16668,0.84995 4.84566,1.36715 5.03923,1.55158c1.7421,2.46505 2.72212,3.88695 2.93698,4.26191c-1.12528,3.56903 -1.7695,5.35373 -1.93911,5.35373c-3.75043,0.8739 -5.71348,1.31238 -5.8888,1.31238c-3.10051,-1.80866 -4.75173,-2.81871 -4.95138,-3.0275c-0.10915,-3.36633 -0.16353,-5.22671 -0.16353,-5.57468c-0.0483,-0.09963 -0.07263,-0.17532 -0.07263,-0.22665c3.20015,-2.435 4.85479,-3.65078 4.96355,-3.65078zM210.25347,17.04685c-0.0483,0.33276 -0.12397,1.5455 -0.224,3.63862l2.78905,0.62595c0.71685,-2.084 1.07356,-3.1971 1.07356,-3.33895c-2.21709,-0.66551 -3.40588,-1.0013 -3.56295,-1.0013z"/><path d="M230.78801,12.45826l4.1619,2.86435c-0.29055,4.75173 -0.4959,7.52557 -0.61113,8.32684c-0.48373,0.0578 -1.95697,0.14527 -4.41593,0.26315l-0.08785,-0.17532l-0.43543,-6.67828l-0.17532,-0.08785c-1.59418,0.34188 -2.68903,0.602 -3.29103,0.77732c0.16961,2.84 0.25099,4.89701 0.25099,6.16413c-2.48292,0.69288 -3.84131,1.03743 -4.0771,1.03743c-1.6151,-7.1198 -2.42588,-10.87974 -2.42588,-11.27865c3.51768,-0.45977 5.42941,-0.68681 5.7287,-0.68681v0.08785c0.05743,0.03917 0.14527,0.90737 0.26315,2.59815c3.22448,-2.14142 4.93047,-3.21231 5.11186,-3.21231z"/><path d="M243.27675,12.47043c3.77781,1.94176 5.87093,3.07617 6.27935,3.40284c-0.54153,2.5316 -0.86212,3.83827 -0.9648,3.91395h-7.90054v0.13615l2.21101,2.73733l3.47852,-1.77557c0.3415,0.59288 0.8317,1.62726 1.47591,3.10317c-0.30271,0.10002 -2.48938,0.4206 -6.56648,0.96175c-3.37584,-2.22584 -5.07536,-3.38459 -5.10273,-3.4751c0.54458,-4.32846 0.86516,-6.49118 0.9648,-6.49118c3.52681,-1.50025 5.56859,-2.33802 6.12496,-2.51335zM242.46633,15.4983c-0.06655,0.16619 -0.50845,0.82865 -1.32493,1.98702c0,0.35101 0.48982,0.52328 1.47287,0.52328c0,0.05134 0.71381,0.17227 2.13837,0.3628c0.39322,-0.54115 0.58983,-0.8587 0.58983,-0.94958c-0.12702,-0.74118 -0.39588,-1.11311 -0.81344,-1.11311z"/><path d="M252.43264,22.24923c2.26539,0.2662 3.4055,0.41755 3.41159,0.45065c-1.37323,3.23323 -2.14446,4.93313 -2.31369,5.0997c-1.13136,-0.13918 -1.6999,-0.25708 -1.6999,-0.34797c0.2993,-3.46938 0.48373,-5.20238 0.55028,-5.20238z"/><path d="M269.57647,8.66829c2.3559,0.16657 3.53556,0.31755 3.53556,0.45065c0.91042,2.44413 1.46412,4.0018 1.66378,4.67643h0.07568c0.21753,-0.46585 1.04656,-1.74857 2.489,-3.85043h0.07568c2.25969,0.14223 3.38763,0.29625 3.38763,0.46282l2.03873,13.94069c0,0.08443 -1.78471,0.28408 -5.35373,0.60162l-0.07263,-0.15097c-0.20269,-4.23453 -0.30233,-6.82355 -0.30233,-7.76439h-0.07263l-3.09138,2.713h-0.07225c-0.10002,-0.0483 -0.8047,-1.15533 -2.11441,-3.31195h-0.07568c-1.60901,4.68214 -2.48938,7.17152 -2.63732,7.46511h-0.15136c-2.87652,-1.30059 -4.50986,-2.08095 -4.90004,-2.33841v-0.07529c3.56598,-8.38768 5.42636,-12.65834 5.57772,-12.81884z"/><path d="M285.90653,12.45826c4.95138,0.68376 7.42555,1.10398 7.42555,1.26143c1.9509,1.67556 2.92786,2.57381 2.92786,2.68903c-0.79253,2.47721 -1.24317,3.98012 -1.35193,4.51557c0.79253,1.75732 1.24317,2.80997 1.35193,3.15185c0,0.09963 -1.29147,0.36584 -3.87744,0.7986c-0.03347,-0.14223 -0.26925,-0.45673 -0.71114,-0.94997c-3.56903,0.68376 -5.4895,1.02527 -5.76483,1.02527l-1.9026,-5.13886l4.18928,-2.21405c0.67425,0.10915 1.72995,0.16353 3.16363,0.16353c0,-0.18444 0.02433,-0.73814 0.07568,-1.66378c-0.24187,0 -2.40153,0.15744 -6.47863,0.47498l-0.07263,-0.16315c0.56549,-2.63465 0.90737,-3.95046 1.02527,-3.95046zM288.50771,19.81118c0,0.0909 0.2662,1.06786 0.7986,2.92481h0.07568c1.04922,-0.68338 1.57555,-1.13403 1.57555,-1.34889l0.16353,-1.33977c-0.20269,0 -1.07394,-0.07872 -2.61335,-0.23615z"/><path d="M307.55116,12.45826c2.40153,1.53371 3.72646,2.41675 3.97441,2.64986c-0.86516,1.92655 -1.36105,2.8883 -1.48503,2.8883l-4.55246,-2.63732h-0.16315c0,0.08443 -0.19661,0.55028 -0.58679,1.40023c4.19233,2.2593 6.2881,3.41806 6.2881,3.47548c-1.17358,2.71907 -1.83871,4.15277 -1.98702,4.30109l-7.11713,0.41414c-2.76737,-1.83262 -4.25583,-2.80084 -4.46118,-2.90047v-0.07568c0,-0.20878 0.41109,-1.14619 1.23708,-2.813l5.54996,2.88868l0.41452,-1.6516c-3.43592,-1.54245 -5.47771,-2.50421 -6.128,-2.8883v-0.17569c0,-0.3145 0.66247,-1.72082 1.9874,-4.21323z"/><path d="M316.50397,8.68046l5.50204,0.97697l-0.52632,4.17711c1.09182,-0.06047 1.89347,-0.08785 2.40153,-0.08785h0.80165l0.17227,-0.08747l0.08785,0.17532c-0.17532,2.53463 -0.32362,3.9592 -0.4476,4.27675l-0.17569,-0.10268c-0.12702,0 -1.25192,-0.05743 -3.3785,-0.17227c-0.11485,1.95697 -0.20269,4.30109 -0.26012,7.02625l-0.17532,0.08747c-2.686,-0.17532 -4.28588,-0.32667 -4.80308,-0.45065l0.08747,-0.35062c0,-0.72293 0.11827,-2.97654 0.35101,-6.7513c-2.25055,-0.12397 -3.37545,-0.27495 -3.37545,-0.45065c0.11485,-2.78258 0.2662,-4.17711 0.45065,-4.17711l3.28761,0.62634v-1.07698c0,-0.8739 -0.03308,-2.05661 -0.09963,-3.55078c0.06655,0 0.09963,-0.02738 0.09963,-0.08785z"/><path d="M333.36069,12.47043c3.77476,1.94176 5.86788,3.07617 6.27593,3.40284c-0.54115,2.5316 -0.86174,3.83827 -0.96175,3.91395h-7.90358v0.13615l2.21405,2.73733l3.47548,-1.77557c0.34188,0.59288 0.83474,1.62726 1.47591,3.10317c-0.2993,0.10002 -2.489,0.4206 -6.56648,0.96175c-3.37545,-2.22584 -5.07536,-3.38459 -5.0997,-3.4751c0.54153,-4.32846 0.86212,-6.49118 0.96213,-6.49118c3.52681,-1.50025 5.56821,-2.33802 6.128,-2.51335zM332.54693,15.4983c-0.06655,0.16619 -0.50807,0.82865 -1.32455,1.98702c0,0.35101 0.48982,0.52328 1.47591,0.52328c0,0.05134 0.71076,0.17227 2.13533,0.3628c0.39322,-0.54115 0.58983,-0.8587 0.58983,-0.94958c-0.12702,-0.74118 -0.39626,-1.11311 -0.81344,-1.11311z"/><path d="M349.75127,12.45826c1.6516,0.92563 2.6647,1.52458 3.04004,1.79991c-1.34927,2.80958 -2.07525,4.24023 -2.17488,4.28891h-0.08785l-1.78737,-1.56375l-2.11441,2.57685l0.23883,4.68822c-0.10876,0.10002 -1.48808,0.3358 -4.1406,0.70163c-0.09963,-0.71685 -0.75031,-4.23149 -1.9509,-10.54089c0,-0.09963 1.7421,-0.35976 5.22671,-0.77428c0.06047,0.06655 0.21753,0.84387 0.4746,2.33802c2.084,-2.34411 3.17619,-3.51465 3.27886,-3.51465z"/><path d="M365.62194,12.45826c0.10572,0.14223 0.66817,2.55898 1.68773,7.25328h0.08747c0,-0.10876 0.61721,-1.06481 1.85125,-2.86435c0.51415,0.35062 1.50025,1.11007 2.94915,2.27452h0.17532v-0.08785c0.224,-3.24845 0.39322,-5.05102 0.49895,-5.39899c3.43631,0.17227 5.15408,0.3145 5.15408,0.42365c-1.57592,6.3364 -2.41978,9.62744 -2.52551,9.87843c-0.52632,0.05743 -1.62726,0.224 -3.30282,0.49895c-1.37627,-2.15663 -2.16271,-3.30891 -2.36236,-3.45113c-0.90129,2.40153 -1.46412,3.72343 -1.68773,3.96529h-3.37545c-0.20878,-0.06655 -1.19487,-2.23497 -2.9522,-6.50296c-1.12528,-2.38328 -1.68773,-3.67475 -1.68773,-3.8744c0,-0.18444 1.82996,-0.8895 5.48988,-2.11441z"/><path d="M381.11421,7.44337l4.91487,0.77428c-0.61683,2.35932 -1.02222,3.53898 -1.21275,3.53898c-2.58598,-0.17227 -3.87744,-0.34492 -3.87744,-0.51111v-3.62683c0.02396,-0.1179 0.08443,-0.17532 0.17532,-0.17532zM379.73794,13.39605h0.07568c3.80176,0.69251 5.70131,1.09486 5.70131,1.21275c-1.09182,6.18543 -1.75428,9.63351 -1.98702,10.34124h-3.96529c-0.11523,0 -0.17569,-0.05743 -0.17569,-0.17532z"/><path d="M386.44056,8.69567c2.54985,0.0483 4.42203,0.07263 5.61385,0.07263c0.10876,0 0.43848,5.12061 0.98913,15.35613c-0.42669,0.10876 -1.90868,0.38409 -4.45244,0.8256c-0.12397,0 -0.53849,-3.13322 -1.23708,-9.40344c-0.06047,-0.15136 -0.3628,-2.435 -0.91346,-6.85094z"/><path d="M394.44373,8.69567c2.54985,0.0483 4.42203,0.07263 5.61385,0.07263c0.10876,0 0.43848,5.12061 0.98913,15.35613c-0.4263,0.10876 -1.91172,0.38409 -4.45244,0.8256c-0.12397,0 -0.53812,-3.13322 -1.23708,-9.40344c-0.06047,-0.15136 -0.3628,-2.435 -0.91346,-6.85094z"/><path d="M45.24845,44.46845c1.64856,0.92563 2.66165,1.52725 3.03662,1.80257c-1.34889,2.80693 -2.07487,4.23758 -2.1745,4.28891h-0.08785l-1.78737,-1.56375l-2.11441,2.57418l0.23883,4.69126c-0.10876,0.09963 -1.48808,0.33276 -4.1406,0.6986c-0.09963,-0.71685 -0.75031,-4.22845 -1.9509,-10.54089c0,-0.09963 1.7421,-0.35709 5.22671,-0.77428c0.06047,0.06655 0.21753,0.8469 0.4746,2.33802c2.084,-2.34411 3.17619,-3.51465 3.27886,-3.51465z"/><path d="M56.36433,44.48063c3.77476,1.9448 5.86751,3.07617 6.27593,3.40284c-0.54115,2.53463 -0.86212,3.83827 -0.96175,3.91357h-7.90358v0.13615l2.21405,2.74038l3.47548,-1.7752c0.34188,0.58983 0.83474,1.62422 1.47591,3.10013c-0.2993,0.09963 -2.48938,0.4206 -6.56648,0.96175c-3.37545,-2.22623 -5.07536,-3.38459 -5.0997,-3.4751c0.54153,-4.32542 0.86212,-6.49118 0.96213,-6.49118c3.52643,-1.50025 5.56821,-2.33802 6.128,-2.51335zM55.55052,47.50811c-0.06655,0.16657 -0.50807,0.82903 -1.32493,1.9874c0,0.35062 0.4902,0.52632 1.47628,0.52632c0,0.0483 0.71076,0.16922 2.13837,0.3628c0.39018,-0.54153 0.58679,-0.85907 0.58679,-0.94958c-0.12397,-0.74423 -0.39626,-1.11311 -0.81382,-1.11311z"/><path d="M69.2672,44.46845c0.10915,0.14223 0.6716,2.55898 1.68811,7.25328h0.08747c0,-0.10915 0.61721,-1.06177 1.85125,-2.86435c0.5172,0.35062 1.50025,1.11007 2.9522,2.27755h0.17532v-0.08785c0.22361,-3.25148 0.39018,-5.0514 0.49895,-5.40203c3.43326,0.17532 5.15103,0.31755 5.15103,0.42327c-1.57592,6.33678 -2.41675,9.63086 -2.52551,9.87881c-0.52632,0.06047 -1.62422,0.22665 -3.29978,0.50198c-1.37627,-2.15967 -2.16576,-3.30891 -2.36541,-3.45113c-0.89825,2.39849 -1.46108,3.72038 -1.68773,3.96225h-3.37545c-0.20878,-0.06655 -1.19183,-2.2323 -2.9522,-6.49993c-1.12528,-2.38632 -1.68773,-3.67818 -1.68773,-3.87783c0,-0.18444 1.82996,-0.88912 5.4895,-2.11403z"/><path d="M84.93516,44.46845c4.95138,0.68338 7.42859,1.10398 7.42859,1.26447c1.9509,1.67556 2.92481,2.57077 2.92481,2.68865c-0.79253,2.47417 -1.24012,3.9805 -1.34889,4.51291c0.79253,1.76037 1.24012,2.80997 1.34889,3.15185c0,0.09963 -1.29147,0.36584 -3.8744,0.79823c-0.03347,-0.1388 -0.27229,-0.45673 -0.71381,-0.94958c-3.56941,0.68338 -5.48988,1.02527 -5.76521,1.02527l-1.89955,-5.13886l4.18928,-2.21405c0.67463,0.10876 1.72995,0.16353 3.16363,0.16353c0,-0.18483 0.02433,-0.73814 0.07263,-1.66378c-0.23883,0 -2.39849,0.16048 -6.47558,0.47498l-0.07568,-0.16048c0.56853,-2.63428 0.91042,-3.95312 1.02527,-3.95312zM87.53639,51.82137c0,0.0909 0.2662,1.06786 0.80165,2.92786h0.07263c1.05265,-0.68338 1.57592,-1.13403 1.57592,-1.35193l0.16315,-1.3371c-0.19965,0 -1.0709,-0.08138 -2.61335,-0.23883z"/><path d="M105.46668,44.46845c1.6516,0.92563 2.6647,1.52725 3.03966,1.80257c-1.34889,2.80693 -2.07487,4.23758 -2.1745,4.28891h-0.08785l-1.78775,-1.56375l-2.11403,2.57418l0.23578,4.69126c-0.10572,0.09963 -1.48808,0.33276 -4.13756,0.6986c-0.10002,-0.71685 -0.75031,-4.22845 -1.9509,-10.54089c0,-0.09963 1.7421,-0.35709 5.22671,-0.77428c0.05743,0.06655 0.21753,0.8469 0.4746,2.33802c2.084,-2.34411 3.17619,-3.51465 3.27583,-3.51465z"/><path d="M117.06023,40.68152h0.07568c3.76564,0.3145 5.64998,0.56245 5.64998,0.73814l1.66378,14.71496c0,0.10876 -1.66378,0.38409 -4.99094,0.8256l-0.07263,-0.1601v-1.34015c-2.86739,0.77428 -4.83615,1.27663 -5.90401,1.50025c-2.5316,-3.58424 -3.86261,-5.49253 -3.98658,-5.72565c1.86646,-3.39371 2.8613,-5.11148 2.98833,-5.15103l5.23888,0.24795c-0.10876,-0.64117 -0.32971,-2.52551 -0.66247,-5.64998zM114.73438,49.64649c0.84082,2.57418 1.36715,3.98963 1.57592,4.23758l2.48595,-2.16233c-0.25708,-1.49112 -0.4476,-2.23839 -0.57462,-2.23839h-3.32413c-0.10876,0.01825 -0.16315,0.0696 -0.16315,0.16315z"/><path d="M138.85312,44.46845l0.08747,0.16315l-1.68773,8.95318h0.08785l4.30109,-1.26447v-5.06319c0.01825,-0.11485 0.07263,-0.17532 0.16315,-0.17532c3.23361,0.22665 5.03619,0.33884 5.40203,0.33884c0,0.05743 0.03043,0.08747 0.08785,0.08747c0,1.42457 -0.45065,4.37981 -1.34889,8.86534c0,0.25708 -1.29451,0.45368 -3.87783,0.58679c-0.1331,-0.15706 -0.2449,-0.4959 -0.33884,-1.0131c-3.30891,0.6773 -5.19629,1.0131 -5.66215,1.0131c-2.6434,-1.9661 -3.96529,-2.9792 -3.96529,-3.03662c0.45065,-5.9101 0.7351,-8.98018 0.84995,-9.20417h0.07568c2.10833,-0.05743 4.0501,-0.14223 5.82567,-0.25099z"/><path d="M158.64954,44.46845c2.40153,1.53333 3.72646,2.41978 3.97441,2.65253c-0.86516,1.92389 -1.36105,2.88868 -1.48808,2.88868l-4.54941,-2.64074h-0.16315c0,0.0848 -0.19661,0.55066 -0.58679,1.40061c4.19233,2.2593 6.2881,3.41767 6.2881,3.47852c-1.17624,2.71603 -1.83871,4.14973 -1.98702,4.30109l-7.11713,0.41109c-2.76737,-1.833 -4.25545,-2.80084 -4.46118,-2.90047v-0.07568c0,-0.20878 0.41109,-1.14658 1.23708,-2.813l5.55034,2.88868l0.41414,-1.6516c-3.43592,-1.53942 -5.47771,-2.50421 -6.128,-2.88868v-0.17227c0,-0.31755 0.66247,-1.72385 1.9874,-4.21628z"/><path d="M175.81742,40.69369c0.04868,0.07568 0.28446,2.35932 0.69898,6.85094c3.21802,-0.98305 4.93313,-1.47628 5.14191,-1.47628l3.18798,2.17793c-0.5172,4.75173 -0.85603,7.52823 -1.01347,8.32684l-4.4281,0.15136c0,-0.05134 -0.027,-0.07568 -0.08747,-0.07568l0.08747,-0.31145c0,-0.67767 0.10002,-2.72821 0.30271,-6.15234c-1.21921,-0.05134 -2.12355,-0.07568 -2.71338,-0.07568h-0.3145c0.36013,3.80823 0.53849,5.88614 0.53849,6.22802l-4.20145,0.62292c-0.15706,-0.53241 -1.09182,-5.51383 -2.80084,-14.94161c0,-0.2662 0.6503,-0.47498 1.9509,-0.62634c1.64248,-0.46585 2.85865,-0.6986 3.65078,-0.6986z"/><path d="M187.92242,44.46845c4.95138,0.68338 7.42555,1.10398 7.42555,1.26447c1.9509,1.67556 2.92786,2.57077 2.92786,2.68865c-0.79253,2.47417 -1.24317,3.9805 -1.35231,4.51291c0.79253,1.76037 1.24317,2.80997 1.35231,3.15185c0,0.09963 -1.29147,0.36584 -3.87783,0.79823c-0.03308,-0.1388 -0.26925,-0.45673 -0.71076,-0.94958c-3.56903,0.68338 -5.48988,1.02527 -5.76483,1.02527l-1.9026,-5.13886l4.18928,-2.21405c0.6773,0.10876 1.72995,0.16353 3.16363,0.16353c0,-0.18483 0.02433,-0.73814 0.07568,-1.66378c-0.24187,0 -2.40153,0.16048 -6.47596,0.47498l-0.07568,-0.16048c0.56588,-2.63428 0.90737,-3.95312 1.02565,-3.95312zM190.5236,51.82137c0,0.0909 0.2662,1.06786 0.79823,2.92786h0.07568c1.0496,-0.68338 1.57592,-1.13403 1.57592,-1.35193l0.16353,-1.3371c-0.19965,0 -1.0709,-0.08138 -2.61335,-0.23883z"/><path d="M210.58011,44.46845l4.1619,2.86435c-0.29055,4.75173 -0.4959,7.52823 -0.61113,8.32684c-0.48373,0.06047 -1.95393,0.14831 -4.41288,0.26315l-0.08785,-0.17532l-0.43848,-6.67561l-0.17532,-0.08747c-1.59113,0.3415 -2.68903,0.59858 -3.28798,0.77428c0.16657,2.84305 0.24833,4.89701 0.24833,6.16413c-2.4833,0.69288 -3.84169,1.03743 -4.07443,1.03743c-1.61813,-7.11713 -2.42588,-10.87669 -2.42588,-11.27904c3.51768,-0.45673 5.42636,-0.68642 5.72565,-0.68642v0.08785c0.0578,0.04222 0.14527,0.90737 0.26315,2.60118c3.22752,-2.14446 4.93047,-3.21536 5.11491,-3.21536z"/><path d="M223.54688,40.68152h0.07568c3.76564,0.3145 5.64998,0.56245 5.64998,0.73814l1.66378,14.71496c0,0.10876 -1.66378,0.38409 -4.98789,0.8256l-0.07568,-0.1601v-1.34015c-2.86739,0.77428 -4.83654,1.27663 -5.90401,1.50025c-2.5316,-3.58424 -3.86261,-5.49253 -3.98658,-5.72565c1.86608,-3.39371 2.8613,-5.11148 2.98833,-5.15103l5.23888,0.24795c-0.10915,-0.64117 -0.32971,-2.52551 -0.66247,-5.64998zM221.22105,49.64649c0.84082,2.57418 1.36715,3.98963 1.57555,4.23758l2.48634,-2.16233c-0.25708,-1.49112 -0.4476,-2.23839 -0.57462,-2.23839h-3.32413c-0.10876,0.01825 -0.16315,0.0696 -0.16315,0.16315z"/><path d="M242.32718,44.46845c2.40153,1.53333 3.72646,2.41978 3.97746,2.65253c-0.86821,1.92389 -1.3641,2.88868 -1.48808,2.88868l-4.55246,-2.64074h-0.16315c0,0.0848 -0.19357,0.55066 -0.58679,1.40061c4.19233,2.2593 6.29115,3.41767 6.29115,3.47852c-1.17662,2.71603 -1.83871,4.14973 -1.99006,4.30109l-7.11409,0.41109c-2.76737,-1.833 -4.25583,-2.80084 -4.46423,-2.90047v-0.07568c0,-0.20878 0.41109,-1.14658 1.23708,-2.813l5.553,2.88868l0.41148,-1.6516c-3.43288,-1.53942 -5.47466,-2.50421 -6.12496,-2.88868v-0.17227c0,-0.31755 0.66247,-1.72385 1.9874,-4.21628z"/><path d="M252.58056,44.48063c3.1701,0.853 4.84871,1.36715 5.03923,1.55158c1.7421,2.46808 2.72212,3.88961 2.94003,4.26458c-1.12528,3.56636 -1.77253,5.35069 -1.93872,5.35069c-3.75081,0.87733 -5.71386,1.31276 -5.88918,1.31276c-3.10013,-1.80866 -4.75173,-2.81605 -4.95138,-3.02445c-0.10876,-3.36975 -0.16315,-5.22671 -0.16315,-5.57772c-0.05172,-0.09963 -0.07568,-0.17532 -0.07568,-0.22361c3.20319,-2.435 4.85745,-3.65383 4.96355,-3.65383zM252.2691,49.05704c-0.05134,0.33542 -0.12397,1.54855 -0.22665,3.64166l2.78868,0.62292c0.66855,-2.084 1.00093,-3.1971 1.00093,-3.33933c-2.21709,-0.66513 -3.4055,-0.99788 -3.56295,-0.99788z"/><path d="M275.58925,44.46845c2.0357,0.84387 3.78997,1.63335 5.26284,2.3772c-0.38105,4.96051 -0.629,7.67388 -0.73472,8.13974c-2.45325,0.6077 -3.82343,0.91346 -4.11665,0.91346c0,-1.08307 -0.08176,-3.22144 -0.24795,-6.4155c-0.92563,0.0909 -1.38845,0.17227 -1.38845,0.23883c0,0.3145 0.05438,2.12355 0.16353,5.42636c0.0483,0 0.07225,0.02738 0.07225,0.08785c0,0.09963 -1.28538,0.37497 -3.86223,0.8256c-0.10915,-0.13615 -0.43885,-2.16576 -0.98913,-6.0915c-1.04047,0.26583 -1.56071,0.45939 -1.56071,0.57462l0.49895,5.10236c-0.09963,0.10915 -1.46982,0.54762 -4.1136,1.31276c-1.53333,-5.42599 -2.49205,-9.06803 -2.87652,-10.92803c2.89173,-0.71685 4.50986,-1.07698 4.85175,-1.07698c0.38409,1.5185 0.57462,2.39278 0.57462,2.62857h0.08785c1.40935,-1.30059 2.39241,-2.17755 2.9522,-2.62857h0.08747l2.62553,1.89043h0.08785c1.6421,-1.58467 2.51638,-2.3772 2.62514,-2.3772z"/><path d="M289.19417,44.48063c3.77514,1.9448 5.86788,3.07617 6.27631,3.40284c-0.54153,2.53463 -0.86212,3.83827 -0.96175,3.91357h-7.90358v0.13615l2.21405,2.74038l3.47548,-1.7752c0.34188,0.58983 0.83474,1.62422 1.47591,3.10013c-0.2993,0.09963 -2.48938,0.4206 -6.56343,0.96175c-3.3785,-2.22623 -5.0784,-3.38459 -5.10273,-3.4751c0.54153,-4.32542 0.86212,-6.49118 0.96213,-6.49118c3.52643,-1.50025 5.56821,-2.33802 6.12763,-2.51335zM288.38073,47.50811c-0.06655,0.16657 -0.50807,0.82903 -1.32493,1.9874c0,0.35062 0.49323,0.52632 1.47628,0.52632c0,0.0483 0.71076,0.16922 2.13837,0.3628c0.39018,-0.54153 0.58679,-0.85907 0.58679,-0.94958c-0.12397,-0.74423 -0.39626,-1.11311 -0.81382,-1.11311z"/><path d="M296.6079,40.70586c2.55288,0.0483 4.42506,0.07568 5.61689,0.07568c0.10876,0 0.43543,5.11757 0.98572,15.35309c-0.42327,0.10876 -1.9083,0.38409 -4.44902,0.8256c-0.12702,0 -0.53849,-3.1336 -1.24012,-9.40344c-0.05743,-0.14831 -0.36318,-2.43195 -0.91346,-6.85094z"/><path d="M310.3642,44.49584c0.1179,0.01483 0.17532,0.07225 0.17532,0.17227l-1.30059,7.2046c2.4833,-0.2932 3.72646,-0.52632 3.72646,-0.70163c0.46585,-2.88261 0.78644,-4.50074 0.96175,-4.85136c3.07617,0.63508 4.78215,1.01005 5.11453,1.1249c-1.7904,6.16146 -2.7765,9.37036 -2.95182,9.62781c-3.1336,2.20188 -4.89701,3.41767 -5.28718,3.65345c-0.1179,0 -2.11441,-0.49285 -5.99186,-1.47591v-0.08785c1.02527,-2.2593 1.66339,-3.38763 1.91438,-3.38763l3.81431,1.91172l1.82387,-3.12751c-1.63943,0.41148 -2.5951,0.61417 -2.8613,0.61417l-4.86391,-2.52588c0.58983,-5.43511 0.96518,-8.15115 1.12528,-8.15115z"/><path d="M325.7686,41.1565l0.05134,0.09963c-0.83474,7.359 -1.30059,11.22769 -1.40023,11.60266c-1.7695,-0.16619 -2.88565,-0.28142 -3.3515,-0.35062v-0.04868l-0.80128,-10.45304c0.19965,-0.06655 2.03532,-0.35101 5.50166,-0.84995zM320.81719,53.10979c0.05743,0.03347 1.35802,0.1331 3.90178,0.29967l0.04868,0.09963c-0.39018,2.3019 -0.64155,3.45113 -0.75031,3.45113h-2.90047c-0.10002,0 -0.23312,-1.14924 -0.3993,-3.45113c-0.03347,0 -0.05134,-0.09963 -0.05134,-0.2993c0.10268,-0.03347 0.15097,-0.06655 0.15097,-0.10002z"/><path d="M338.13641,40.74198c4.62471,0.66855 7.1776,1.05873 7.65258,1.17662c0,0.06655 1.59113,4.83958 4.77607,14.31566c-0.33276,0.12702 -2.2536,0.36926 -5.76521,0.72598c-0.24187,-0.81648 -0.51111,-2.0779 -0.8104,-3.78693c-3.00353,0.27533 -4.50378,0.51415 -4.50378,0.72293l-0.81078,2.88868h-0.08785c-3.54468,-0.6503 -5.31418,-1.04047 -5.31418,-1.17358c2.82518,-8.83795 4.44635,-13.79237 4.86354,-14.86936zM340.5623,49.39549h2.71338l-1.0013,-3.96225c-0.77428,0 -1.1614,0.14831 -1.1614,0.4476c-0.12702,0.61113 -0.3088,1.78166 -0.55066,3.51465z"/><path d="M362.98119,44.46845l4.16494,2.86435c-0.29016,4.75173 -0.4959,7.52823 -0.61379,8.32684c-0.48107,0.06047 -1.95393,0.14831 -4.41328,0.26315l-0.08747,-0.17532l-0.43581,-6.67561l-0.17532,-0.08747c-1.5938,0.3415 -2.68903,0.59858 -3.29066,0.77428c0.16619,2.84305 0.25099,4.89701 0.25099,6.16413c-2.4833,0.69288 -3.84436,1.03743 -4.07748,1.03743c-1.6151,-7.11713 -2.42549,-10.87669 -2.42549,-11.27904c3.51768,-0.45673 5.42903,-0.68642 5.7287,-0.68642v0.08785c0.05743,0.04222 0.1449,0.90737 0.26315,2.60118c3.2241,-2.14446 4.93008,-3.21536 5.11148,-3.21536z"/><path d="M375.94796,40.68152h0.07568c3.76868,0.3145 5.65302,0.56245 5.65302,0.73814l1.66378,14.71496c0,0.10876 -1.66378,0.38409 -4.99094,0.8256l-0.07568,-0.1601v-1.34015c-2.86739,0.77428 -4.83311,1.27663 -5.90097,1.50025c-2.53463,-3.58424 -3.86261,-5.49253 -3.98963,-5.72565c1.8695,-3.39371 2.86435,-5.11148 2.98833,-5.15103l5.24192,0.24795c-0.10876,-0.64117 -0.32971,-2.52551 -0.66551,-5.64998zM373.6221,49.64649c0.84387,2.57418 1.36715,3.98963 1.57592,4.23758l2.489,-2.16233c-0.25708,-1.49112 -0.45065,-2.23839 -0.57462,-2.23839h-3.32716c-0.10876,0.01825 -0.1601,0.0696 -0.1601,0.16315z"/><path d="M396.74263,44.49584c0.1179,0.01483 0.17532,0.07225 0.17532,0.17227l-1.30059,7.2046c2.48634,-0.2932 3.72646,-0.52632 3.72646,-0.70163c0.4689,-2.88261 0.78948,-4.50074 0.9648,-4.85136c3.07617,0.63508 4.77911,1.01005 5.11491,1.1249c-1.79383,6.16146 -2.77688,9.37036 -2.9522,9.62781c-3.1336,2.20188 -4.89701,3.41767 -5.29023,3.65345c-0.11485,0 -2.111,-0.49285 -5.98881,-1.47591v-0.08785c1.02527,-2.2593 1.66378,-3.38763 1.91172,-3.38763l3.81393,1.91172l1.82692,-3.12751c-1.64248,0.41148 -2.59815,0.61417 -2.86435,0.61417l-4.86354,-2.52588c0.59288,-5.43511 0.96784,-8.15115 1.12528,-8.15115z"/><path d="M411.68766,44.48063c3.16668,0.853 4.84528,1.36715 5.03885,1.55158c1.74249,2.46808 2.7225,3.88961 2.93698,4.26458c-1.1249,3.56636 -1.7695,5.35069 -1.93568,5.35069c-3.75347,0.87733 -5.71653,1.31276 -5.89223,1.31276c-3.10013,-1.80866 -4.75173,-2.81605 -4.95138,-3.02445c-0.10876,-3.36975 -0.1601,-5.22671 -0.1601,-5.57772c-0.05134,-0.09963 -0.07568,-0.17532 -0.07568,-0.22361c3.20015,-2.435 4.85479,-3.65383 4.96355,-3.65383zM411.37312,49.05704c-0.04868,0.33542 -0.12436,1.54855 -0.224,3.64166l2.78868,0.62292c0.66551,-2.084 1.0013,-3.1971 1.0013,-3.33933c-2.21709,-0.66513 -3.40588,-0.99788 -3.56598,-0.99788z"/><path d="M427.55486,44.46845l0.08785,0.16315l-1.68773,8.95318h0.08747l4.30109,-1.26447v-5.06319c0.01521,-0.11485 0.0696,-0.17532 0.16353,-0.17532c3.23323,0.22665 5.03315,0.33884 5.39899,0.33884c0,0.05743 0.03043,0.08747 0.08785,0.08747c0,1.42457 -0.4476,4.37981 -1.34927,8.86534c0,0.25708 -1.29147,0.45368 -3.87744,0.58679c-0.1331,-0.15706 -0.2449,-0.4959 -0.3358,-1.0131c-3.30891,0.6773 -5.19933,1.0131 -5.66518,1.0131c-2.6434,-1.9661 -3.96529,-2.9792 -3.96529,-3.03662c0.45065,-5.9101 0.7351,-8.98018 0.853,-9.20417h0.07263c2.111,-0.05743 4.05276,-0.14223 5.82833,-0.25099z"/><path d="M440.87267,38.60362l0.0483,0.09963l-0.34797,4.6038h-0.05134c-1.63335,-0.07568 -2.44983,-0.17569 -2.44983,-0.29967l-0.70163,-4.05276c0,-0.06655 1.1675,-0.18483 3.50248,-0.35101z"/><path d="M442.10975,40.70586c2.54985,0.0483 4.42203,0.07568 5.61385,0.07568c0.10876,0 0.43848,5.11757 0.98875,15.35309c-0.4263,0.10876 -1.9083,0.38409 -4.45206,0.8256c-0.12397,0 -0.53849,-3.1336 -1.23708,-9.40344c-0.05743,-0.14831 -0.36318,-2.43195 -0.91346,-6.85094z"/><path d="M450.11295,40.70586c2.54985,0.0483 4.42203,0.07568 5.61385,0.07568c0.10876,0 0.43848,5.11757 0.98913,15.35309c-0.42669,0.10876 -1.90868,0.38409 -4.45244,0.8256c-0.12397,0 -0.53849,-3.1336 -1.23708,-9.40344c-0.06047,-0.14831 -0.3628,-2.43195 -0.91346,-6.85094z"/><path d="M42.10877,72.70389l0.08785,0.16315c0,0.47498 0.10876,2.31407 0.32362,5.51421c2.98528,-0.94997 4.6578,-1.45195 5.01489,-1.50025l4.50074,4.8392c-1.89043,4.24366 -2.92177,6.49421 -3.08833,6.7513c-0.52328,-0.05743 -2.4407,-0.14223 -5.74961,-0.24833v0.58679c0,0.10915 -0.06085,0.16353 -0.17569,0.16353h-4.8392c-0.17569,0 -0.50845,-2.50155 -1.0013,-7.50428c-0.10876,-0.42327 -0.41148,-2.9309 -0.91346,-7.51644c2.83393,-0.66513 4.78215,-1.08268 5.84051,-1.24887zM42.94653,81.88372l0.32362,3.08796h2.51372l0.91346,-3.50248c-2.50155,0.2179 -3.75081,0.35405 -3.75081,0.41452z"/><path d="M60.41404,76.49347c3.77781,1.94215 5.86788,3.07617 6.27935,3.3998c-0.54458,2.53463 -0.86516,3.83827 -0.9648,3.91395h-7.90358v0.13918l2.21405,2.73733l3.47548,-1.77557c0.34188,0.59288 0.83474,1.62422 1.47591,3.10051c-0.2993,0.09963 -2.48634,0.42022 -6.56343,0.9648c-3.37545,-2.22623 -5.0784,-3.38459 -5.10273,-3.47852c0.54153,-4.32505 0.86212,-6.48775 0.96175,-6.48775c3.52681,-1.50025 5.57164,-2.33802 6.128,-2.51372zM59.6006,79.51831c-0.06655,0.16657 -0.50807,0.82865 -1.32493,1.99043c0,0.34758 0.49323,0.5229 1.47628,0.5229c0,0.05172 0.71381,0.17265 2.13837,0.36318c0.39322,-0.54153 0.58679,-0.85907 0.58679,-0.94997c-0.12397,-0.74081 -0.39626,-1.11272 -0.81078,-1.11272z"/><path d="M77.92109,72.70389l5.50166,0.97697l-0.52632,4.17407c1.0922,-0.0578 1.89347,-0.08785 2.40153,-0.08785h0.80165l0.17532,-0.08785l0.0848,0.17569c-0.17227,2.53463 -0.32362,3.9592 -0.4476,4.27675l-0.17532,-0.10002c-0.12702,0 -1.2523,-0.05743 -3.37545,-0.17532c-0.11827,1.96002 -0.20573,4.30109 -0.26315,7.02929l-0.17569,0.08785c-2.6856,-0.17532 -4.28588,-0.32667 -4.80308,-0.45065l0.08785,-0.35101c0,-0.72598 0.1179,-2.97615 0.35062,-6.75091c-2.25018,-0.12702 -3.37545,-0.27533 -3.37545,-0.45065c0.11485,-2.78563 0.2662,-4.17711 0.45065,-4.17711l3.28798,0.62595v-1.0766c0,-0.87428 -0.03347,-2.06003 -0.10002,-3.55115c0.06655,0 0.10002,-0.03004 0.10002,-0.08747z"/><path d="M96.66485,76.4817c1.6516,0.92525 2.6647,1.5242 3.03966,1.79953c-1.35193,2.80997 -2.0779,4.23758 -2.17755,4.28891h-0.08785l-1.78737,-1.56375l-2.11441,2.57723l0.23883,4.68822c-0.10876,0.09963 -1.48808,0.33276 -4.13756,0.70163c-0.10002,-0.71685 -0.75031,-4.23149 -1.9509,-10.54089c0,-0.10306 1.7421,-0.36013 5.22671,-0.77732c0.05743,0.06655 0.21448,0.8469 0.4746,2.33802c2.084,-2.34107 3.17619,-3.5116 3.27583,-3.5116z"/><path d="M102.59321,76.4817c4.95138,0.68338 7.42555,1.10398 7.42555,1.26105c1.9509,1.67594 2.92786,2.57115 2.92786,2.68903c-0.79253,2.47721 -1.24317,3.9805 -1.35193,4.51291c0.79253,1.76037 1.24317,2.80997 1.35193,3.15147c0,0.10002 -1.29451,0.36623 -3.87744,0.80165c-0.03347,-0.14223 -0.27229,-0.45977 -0.71381,-0.94958c-3.56636,0.68338 -5.48683,1.02527 -5.76216,1.02527l-1.9026,-5.14191l4.18928,-2.21101c0.67463,0.10876 1.72995,0.1601 3.16363,0.1601c0,-0.1814 0.02433,-0.73472 0.07568,-1.66035c-0.24187,0 -2.40153,0.15706 -6.47863,0.47498l-0.07263,-0.16353c0.56549,-2.63465 0.90737,-3.95008 1.02527,-3.95008zM105.19133,83.83156c0,0.09355 0.26925,1.06747 0.80165,2.92786h0.07568c1.0496,-0.68376 1.57592,-1.1344 1.57592,-1.35193l0.1601,-1.3371c-0.19965,0 -1.07052,-0.07872 -2.61335,-0.23883z"/><path d="M120.4235,76.49347c0.25746,1.06786 0.43885,1.72424 0.53849,1.97523c3.68425,-0.84082 5.62906,-1.26408 5.83783,-1.26408c2.5103,3.61124 3.76564,5.49558 3.76564,5.65302l-2.87652,6.10063l-6.19151,-0.9861v0.18748c0.48411,3.70859 0.72598,5.6804 0.72598,5.91351c-0.05743,0 -0.08785,0.03004 -0.08785,0.08747c-0.59895,-0.05743 -1.0496,-0.08747 -1.34889,-0.08747h-1.07698c-0.62595,0 -1.58163,-0.02738 -2.87614,-0.08785c-0.11523,-0.34797 -1.01347,-5.67128 -2.68903,-15.96726c0.28408,-0.11485 2.3772,-0.62595 6.27898,-1.52458zM120.87453,81.60839c0.16619,1.91476 0.3145,2.87347 0.4476,2.87347c1.70864,0.59288 2.75521,0.88912 3.1393,0.88912l0.98913,-4.30109h-0.08747c-0.97697,0.05743 -2.47113,0.23615 -4.48857,0.53849z"/><path d="M138.13023,76.49347c0.25708,1.06786 0.43543,1.72424 0.53545,1.97523c3.68692,-0.84082 5.63172,-1.26408 5.84051,-1.26408c2.5103,3.61124 3.7626,5.49558 3.7626,5.65302l-2.87347,6.10063l-6.19151,-0.9861v0.18748c0.48411,3.70859 0.72598,5.6804 0.72598,5.91351c-0.05743,0 -0.08785,0.03004 -0.08785,0.08747c-0.59858,-0.05743 -1.04922,-0.08747 -1.34889,-0.08747h-1.0766c-0.62634,0 -1.58505,-0.02738 -2.87652,-0.08785c-0.11485,-0.34797 -1.01347,-5.67128 -2.68903,-15.96726c0.28446,-0.11485 2.37758,-0.62595 6.27935,-1.52458zM138.58088,81.60839c0.16619,1.91476 0.3145,2.87347 0.4476,2.87347c1.70903,0.59288 2.75558,0.88912 3.13968,0.88912l0.98913,-4.30109h-0.08785c-0.97697,0.05743 -2.47113,0.23615 -4.48857,0.53849z"/><path d="M156.64734,76.49347c3.77781,1.94215 5.87055,3.07617 6.27898,3.3998c-0.54115,2.53463 -0.86516,3.83827 -0.9648,3.91395h-7.90054v0.13918l2.21101,2.73733l3.47852,-1.77557c0.34188,0.59288 0.8317,1.62422 1.47287,3.10051c-0.2993,0.09963 -2.48634,0.42022 -6.56343,0.9648c-3.37545,-2.22623 -5.07536,-3.38459 -5.10273,-3.47852c0.54153,-4.32505 0.86516,-6.48775 0.96518,-6.48775c3.52339,-1.50025 5.56821,-2.33802 6.12496,-2.51372zM155.83655,79.51831c-0.06655,0.16657 -0.50807,0.82865 -1.32798,1.99043c0,0.34758 0.49323,0.5229 1.47628,0.5229c0,0.05172 0.71381,0.17265 2.13837,0.36318c0.39322,-0.54153 0.58679,-0.85907 0.58679,-0.94997c-0.12397,-0.74081 -0.39322,-1.11272 -0.81078,-1.11272z"/><path d="M171.62847,72.69171h0.07529c3.76906,0.31755 5.65036,0.56245 5.65036,0.73777l1.66339,14.71839c0,0.10876 -1.66339,0.38409 -4.98751,0.8256l-0.07568,-0.16353v-1.33977c-2.86739,0.77732 -4.83654,1.27626 -5.90097,1.50328c-2.53501,-3.58728 -3.86565,-5.49596 -3.98963,-5.7287c1.86608,-3.39371 2.86435,-5.10883 2.98833,-5.15103l5.2385,0.25099c-0.10876,-0.64421 -0.32933,-2.52855 -0.66209,-5.65302zM169.30224,81.65668c0.84082,2.57723 1.36715,3.98963 1.57592,4.24063l2.48938,-2.16576c-0.26012,-1.49112 -0.45065,-2.23801 -0.57766,-2.23801h-3.32413c-0.10876,0.01787 -0.16353,0.07263 -0.16353,0.16315z"/><path d="M188.39702,71.4668l4.91526,0.77428c-0.61721,2.35932 -1.02222,3.5386 -1.21275,3.5386c-2.58635,-0.17532 -3.87783,-0.34455 -3.87783,-0.51111v-3.62645c0.02433,-0.1179 0.0848,-0.17532 0.17532,-0.17532zM187.02077,77.41911h0.07568c3.80215,0.68985 5.7017,1.09486 5.7017,1.21312c-1.09182,6.18543 -1.75428,9.63048 -1.9874,10.34124h-3.96529c-0.11485,0 -0.17532,-0.06047 -0.17532,-0.17532z"/><path d="M204.8271,76.4817l4.16494,2.8613c-0.2932,4.75173 -0.4959,7.52823 -0.61379,8.32989c-0.48411,0.05743 -1.95393,0.14527 -4.41328,0.26012l-0.08747,-0.17227l-0.43885,-6.67866l-0.17532,-0.08785c-1.59075,0.34188 -2.68903,0.59895 -3.28761,0.77465c0.16619,2.84305 0.25099,4.89966 0.25099,6.16413c-2.48634,0.69251 -3.84436,1.04047 -4.07748,1.04047c-1.61813,-7.12018 -2.42549,-10.87974 -2.42549,-11.27904c3.51768,-0.45977 5.42599,-0.68947 5.72565,-0.68947v0.08747c0.06047,0.0426 0.14793,0.91042 0.26315,2.60118c3.22715,-2.14142 4.93008,-3.21193 5.11453,-3.21193z"/><path d="M220.31935,72.70389l5.50204,0.97697l-0.52328,4.17407c1.09182,-0.0578 1.89043,-0.08785 2.39849,-0.08785h0.80165l0.17532,-0.08785l0.08785,0.17569c-0.17532,2.53463 -0.32667,3.9592 -0.45065,4.27675l-0.17569,-0.10002c-0.12397,0 -1.24887,-0.05743 -3.37545,-0.17532c-0.1179,1.96002 -0.20573,4.30109 -0.26315,7.02929l-0.17532,0.08785c-2.68295,-0.17532 -4.28283,-0.32667 -4.80003,-0.45065l0.08747,-0.35101c0,-0.72598 0.11523,-2.97615 0.34797,-6.75091c-2.25018,-0.12702 -3.37545,-0.27533 -3.37545,-0.45065c0.1179,-2.78563 0.2662,-4.17711 0.45065,-4.17711l3.28761,0.62595v-1.0766c0,-0.87428 -0.03308,-2.06003 -0.09963,-3.55115c0.06655,0 0.09963,-0.03004 0.09963,-0.08747z"/><path d="M235.68805,72.70389c0.05134,0.07529 0.28408,2.35895 0.70163,6.8536c3.21498,-0.98572 4.93008,-1.47591 5.13886,-1.47591l3.18798,2.17488c-0.5172,4.75173 -0.85603,7.52823 -1.0131,8.32684l-4.42544,0.15136c0,-0.05172 -0.03004,-0.07568 -0.08747,-0.07568l0.08747,-0.31145c0,-0.67463 0.10002,-2.72554 0.29967,-6.15234c-1.21883,-0.05134 -2.12355,-0.07568 -2.713,-0.07568h-0.31488c0.36013,3.81128 0.53849,5.88614 0.53849,6.22802l-4.20107,0.62595c-0.15744,-0.53545 -1.0922,-5.51688 -2.80084,-14.94504c0,-0.2662 0.6503,-0.4746 1.9509,-0.62292c1.6421,-0.4689 2.85826,-0.70163 3.65078,-0.70163z"/><path d="M252.9829,76.49347c3.77476,1.94215 5.86788,3.07617 6.27631,3.3998c-0.54153,2.53463 -0.86212,3.83827 -0.96175,3.91395h-7.90358v0.13918l2.21405,2.73733l3.47548,-1.77557c0.3415,0.59288 0.8317,1.62422 1.47591,3.10051c-0.30233,0.09963 -2.48938,0.42022 -6.56648,0.9648c-3.37545,-2.22623 -5.07536,-3.38459 -5.0997,-3.47852c0.54153,-4.32505 0.86212,-6.48775 0.96175,-6.48775c3.52681,-1.50025 5.56859,-2.33802 6.128,-2.51372zM252.16945,79.51831c-0.06655,0.16657 -0.50845,0.82865 -1.32493,1.99043c0,0.34758 0.48982,0.5229 1.47287,0.5229c0,0.05172 0.71381,0.17265 2.13876,0.36318c0.39322,-0.54153 0.58983,-0.85907 0.58983,-0.94997c-0.1274,-0.74081 -0.39626,-1.11272 -0.81382,-1.11272z"/><path d="M276.5784,72.70389c3.0005,1.51812 4.54295,2.27755 4.62471,2.27755c0,0.1331 -0.62292,1.33673 -1.87521,3.61124h-0.08785c-0.09963,0 -1.53638,-0.6773 -4.31326,-2.03836l-1.4124,1.89043c2.39241,1.14924 5.29631,2.61602 8.71398,4.40072c-1.54855,2.75863 -2.64948,4.59163 -3.29978,5.50204l-7.0658,0.62595c-3.22715,-2.17793 -4.93008,-3.30282 -5.11453,-3.3785v-0.08785c0,-0.23274 0.65638,-1.30363 1.96306,-3.21231h0.16315c0.5172,0.3088 2.13837,1.19487 4.86391,2.66508l1.65122,-1.87864c-5.01185,-2.54947 -7.7853,-3.9923 -8.32684,-4.32505v-0.07568c1.59113,-3.10051 2.45895,-4.67301 2.59815,-4.71256c4.14403,-0.84387 6.44858,-1.26408 6.91748,-1.26408z"/><path d="M288.46858,76.49347c3.75955,0.7081 5.7287,1.11311 5.90097,1.21312v0.14831c-0.80774,2.2863 -1.21275,3.46901 -1.21275,3.55078h-0.07263c-0.20878,0 -1.21921,-0.32362 -3.02787,-0.97393c-1.007,1.69078 -1.51242,2.5951 -1.51242,2.713l2.50155,2.42588c1.93263,-1.81778 2.91568,-2.72516 2.94915,-2.72516c1.50938,1.97523 2.26539,3.0853 2.26539,3.32716c-0.8256,0.47498 -2.26539,1.40632 -4.3163,2.80084c-3.96529,-0.85907 -6.10975,-1.33977 -6.42425,-1.43978l-1.9661,-6.35161z"/><path d="M306.48632,76.4817c1.6516,0.92525 2.6647,1.5242 3.03966,1.79953c-1.34889,2.80997 -2.07487,4.23758 -2.1745,4.28891h-0.08785l-1.78737,-1.56375l-2.11441,2.57723l0.23578,4.68822c-0.10572,0.09963 -1.48808,0.33276 -4.13756,0.70163c-0.10002,-0.71685 -0.75031,-4.23149 -1.9509,-10.54089c0,-0.10306 1.7421,-0.36013 5.22671,-0.77732c0.05743,0.06655 0.21753,0.8469 0.4746,2.33802c2.084,-2.34107 3.17619,-3.5116 3.27583,-3.5116z"/><path d="M312.41468,76.4817c4.95138,0.68338 7.42859,1.10398 7.42859,1.26105c1.9509,1.67594 2.92481,2.57115 2.92481,2.68903c-0.79253,2.47721 -1.24317,3.9805 -1.34889,4.51291c0.78948,1.76037 1.24012,2.80997 1.34889,3.15147c0,0.10002 -1.29147,0.36623 -3.87744,0.80165c-0.03347,-0.14223 -0.26925,-0.45977 -0.71076,-0.94958c-3.56941,0.68338 -5.48988,1.02527 -5.76521,1.02527l-1.89955,-5.14191l4.18928,-2.21101c0.67463,0.10876 1.7269,0.1601 3.16059,0.1601c0,-0.1814 0.02738,-0.73472 0.07568,-1.66035c-0.24187,0 -2.39849,0.15706 -6.47558,0.47498l-0.07568,-0.16353c0.56549,-2.63465 0.90737,-3.95008 1.02527,-3.95008zM315.01586,83.83156c0,0.09355 0.2662,1.06747 0.7986,2.92786h0.07568c1.05265,-0.68376 1.57592,-1.1344 1.57592,-1.35193l0.16315,-1.3371c-0.19965,0 -1.07052,-0.07872 -2.61335,-0.23883z"/><path d="M323.96907,72.71567c2.54985,0.05172 4.42203,0.07568 5.61385,0.07568c0.10876,0 0.43848,5.11795 0.98875,15.35652c-0.4263,0.10876 -1.9083,0.38409 -4.45206,0.8256c-0.12397,0 -0.53849,-3.13663 -1.23708,-9.40382c-0.06047,-0.15097 -0.36318,-2.43462 -0.91346,-6.85398z"/><path d="M333.87186,76.4817c4.95138,0.68338 7.42859,1.10398 7.42859,1.26105c1.9509,1.67594 2.92481,2.57115 2.92481,2.68903c-0.79253,2.47721 -1.24012,3.9805 -1.34889,4.51291c0.79253,1.76037 1.24012,2.80997 1.34889,3.15147c0,0.10002 -1.29147,0.36623 -3.87478,0.80165c-0.03308,-0.14223 -0.2719,-0.45977 -0.71381,-0.94958c-3.56903,0.68338 -5.4895,1.02527 -5.76483,1.02527l-1.89955,-5.14191l4.18928,-2.21101c0.67425,0.10876 1.72995,0.1601 3.16363,0.1601c0,-0.1814 0.02433,-0.73472 0.07263,-1.66035c-0.24187,0 -2.39849,0.15706 -6.47596,0.47498l-0.07529,-0.16353c0.56853,-2.63465 0.91042,-3.95008 1.02527,-3.95008zM336.47301,83.83156c0,0.09355 0.2662,1.06747 0.80165,2.92786h0.07263c1.05227,-0.68376 1.57555,-1.1344 1.57555,-1.35193l0.16353,-1.3371c-0.19965,0 -1.0709,-0.07872 -2.61335,-0.23883z"/><path d="M354.31549,76.4817h0.05134c2.22623,1.30668 3.42718,1.99006 3.60249,2.05053v0.1118c-0.57766,0.65942 -1.63639,1.79991 -3.17885,3.42718c3.0275,1.12528 4.72739,1.80257 5.10273,2.0357l-2.82518,3.49031c-1.90868,-1.63335 -3.12751,-2.65557 -3.65078,-3.064c-1.29147,2.51638 -2.09616,3.99876 -2.4137,4.44028h-0.05134c-2.39278,-0.84387 -3.69338,-1.3428 -3.89873,-1.50328v-0.06047l3.29978,-4.31326c-3.06705,-1.26712 -4.70951,-2.01136 -4.92705,-2.22623c1.35193,-2.29277 2.10795,-3.51465 2.27452,-3.66562c0.027,0.06047 1.50899,1.07965 4.45206,3.064c1.04352,-1.92389 1.76341,-3.18836 2.16271,-3.78693z"/><path d="M366.78334,76.50564c0.1179,0.01521 0.17532,0.07568 0.17532,0.17569l-1.30059,7.20156c2.4833,-0.29016 3.72646,-0.52632 3.72646,-0.70163c0.46585,-2.88261 0.78644,-4.50074 0.96175,-4.85175c3.07617,0.63546 4.78215,1.01043 5.11491,1.12833c-1.79078,6.15805 -2.77688,9.36732 -2.94915,9.62744c-3.13663,2.19884 -4.90004,3.41806 -5.29023,3.65078c-0.1179,0 -2.11441,-0.49285 -5.98881,-1.47591v-0.08785c1.02527,-2.2593 1.66035,-3.38763 1.91172,-3.38763l3.81393,1.91172l1.82692,-3.12447c-1.64248,0.40843 -2.59815,0.61074 -2.86435,0.61074l-4.86354,-2.52551c0.58983,-5.43511 0.9648,-8.15153 1.1249,-8.15153z"/><path d="M382.18775,73.1667l0.05172,0.09963c-0.83512,7.36204 -1.30059,11.23074 -1.40061,11.60571c-1.76645,-0.16961 -2.88565,-0.28446 -3.35113,-0.35101v-0.05134l-0.80165,-10.45342c0.19965,-0.06617 2.0357,-0.35062 5.50166,-0.84957zM377.23639,85.11998c0.05743,0.03347 1.3584,0.1331 3.90178,0.2993l0.05172,0.10306c-0.39322,2.29886 -0.64421,3.45113 -0.75031,3.45113h-2.90352c-0.10002,0 -0.23312,-1.15228 -0.3993,-3.45113c-0.03347,0 -0.0483,-0.10306 -0.0483,-0.30233c0.09963,-0.03347 0.14793,-0.06655 0.14793,-0.10002z"/></g><path d="M419.95109,282.00004l1.48794,1.19802" fill="none" stroke="#cccccc" stroke-width="9" stroke-linecap="round"/><path d="M142.20384,321.93415l1.48794,1.19803" fill="none" stroke="#cccccc" stroke-width="9" stroke-linecap="round"/></g></g></svg>