<svg version="1.1" xmlns="http://www.w3.org/2000/svg" xmlns:xlink="http://www.w3.org/1999/xlink" width="143.7336" height="143.73361" viewBox="0,0,143.7336,143.73361"><defs><linearGradient x1="240" y1="110.13321" x2="240" y2="249.86681" gradientUnits="userSpaceOnUse" id="color-1"><stop offset="0" stop-color="#3c94ed"/><stop offset="1" stop-color="#337fcc"/></linearGradient><radialGradient cx="238.35847" cy="178.05481" r="68.22428" gradientUnits="userSpaceOnUse" id="color-2"><stop offset="0" stop-color="#fff343"/><stop offset="1" stop-color="#fff343" stop-opacity="0"/></radialGradient><linearGradient x1="203.15768" y1="123.08894" x2="181.67549" y2="207.75406" gradientUnits="userSpaceOnUse" id="color-3"><stop offset="0" stop-color="#fff01b"/><stop offset="1" stop-color="#ffa30a"/></linearGradient><linearGradient x1="242.83017" y1="166.85681" x2="238.1723" y2="185.21427" gradientUnits="userSpaceOnUse" id="color-4"><stop offset="0" stop-color="#000000"/><stop offset="1" stop-color="#674205"/></linearGradient><linearGradient x1="227.35609" y1="162.93055" x2="222.69823" y2="181.28801" gradientUnits="userSpaceOnUse" id="color-5"><stop offset="0" stop-color="#000000"/><stop offset="1" stop-color="#674205"/></linearGradient></defs><g transform="translate(-168.1332,-108.1332)"><g data-paper-data="{&quot;isPaintingLayer&quot;:true}" fill-rule="nonzero" stroke-linejoin="miter" stroke-miterlimit="10" stroke-dasharray="" stroke-dashoffset="0" style="mix-blend-mode: normal"><path d="M240,110.13321c19.2752,0 36.74421,7.8268 49.3899,20.47689c12.64989,12.64569 20.4769,30.11449 20.4769,49.38991c0,19.27542 -7.82701,36.74421 -20.4769,49.38991c-12.64569,12.65009 -30.1147,20.4769 -49.3899,20.4769c-19.27542,0 -36.74442,-7.8268 -49.39012,-20.4769c-12.64989,-12.64569 -20.47668,-30.11449 -20.47668,-49.38991c0,-19.27542 7.82679,-36.74421 20.47668,-49.38991c12.64569,-12.6501 30.11471,-20.47689 49.39012,-20.47689z" data-paper-data="{&quot;origPos&quot;:null}" id="ID0.4039921844378114" fill="url(#color-1)" stroke="#23568d" stroke-width="4" stroke-linecap="butt"/><g data-paper-data="{&quot;origPos&quot;:null,&quot;origRot&quot;:0}" id="ID0.23895729891955853" stroke="none"><path d="M190.66645,155.78424l-1.19812,-2.75152l2.74173,-4.32821l3.03874,-0.51716l28.14858,7.14218l19.56861,-25.30723l3.3151,-1.60637l2.70121,0.81423l2.68054,3.38535l6.27006,31.09022l28.62775,6.74837l2.42057,2.41775l1.55044,3.3563l-3.51579,4.3895l-21.15393,15.11463l-2.64994,30.37253l-0.92945,4.6592l-3.36833,0.82007l-4.9802,-2.29412l-22.40405,-26.2955l-28.80651,15.87814l-5.47151,-0.35781l-3.27858,-3.0217l0.13687,-6.01963l9.61032,-26.41693z" id="ID0.3117544511333108" fill="url(#color-2)" stroke-width="0.8756" stroke-linecap="round"/><path d="M196.06299,157.74266l-1.08256,-2.42573l2.43532,-3.79729l2.71611,-0.44277l25.20796,6.39605l17.40403,-22.18867l2.95905,-1.40025l2.41952,0.7273l2.41144,2.98912l5.73237,27.37989l25.63529,6.05147l2.17471,2.13673l1.40018,2.95932l-3.12738,3.8479l-18.86274,13.21465l-2.24963,26.71304l-0.81268,4.0956l-3.00994,0.70812l-4.46411,-2.0384l-20.14558,-23.2251l-25.705,13.85552l-4.89565,-0.33646l-2.94497,-2.67178l0.09842,-5.29595l8.49153,-23.20473z" id="ID0.3117544511333108" fill="url(#color-3)" stroke-width="0.77672" stroke-linecap="round"/><g id="ID0.4398073833435774" stroke-width="1.6871"><path d="M246.58488,167.81125c1.18394,0.2523 2.10602,1.51937 2.2945,2.84109c0.34164,2.39894 -0.21941,5.01339 -0.89999,7.41532c-0.61257,2.22125 -1.55264,4.43957 -2.91045,6.22015c-0.78561,1.04774 -2.00914,2.17735 -3.14151,1.87925c-1.09075,-0.28754 -1.80673,-1.36852 -2.02229,-3.03963c-0.28027,-2.11576 -0.05873,-4.51115 0.62777,-7.21678c0.6865,-2.70564 1.52755,-4.84734 2.8889,-6.64306c0.89615,-1.18586 2.17733,-1.75455 3.16306,-1.45634z" id="ID0.6670762049034238" fill="url(#color-4)" stroke-linecap="round"/><path d="M246.39259,169.29405c0.60527,0.15358 1.07633,0.58909 1.35171,1.16736c0.27511,0.5782 0.35413,1.29962 0.16914,2.02868c-0.18506,0.72934 -0.5984,1.32554 -1.11596,1.7029c-0.51777,0.37702 -1.13948,0.53527 -1.74475,0.38169c-0.605,-0.15351 -1.07605,-0.58902 -1.35143,-1.16729c-0.27504,-0.57847 -0.35413,-1.29962 -0.16907,-2.02895c0.18499,-0.72906 0.5984,-1.32554 1.11589,-1.70263c0.51777,-0.37702 1.13948,-0.53527 1.74448,-0.38176z" id="ID0.2271407265216112" fill="#ffffff" stroke-linecap="butt"/></g><g id="ID0.4398073833435774" stroke-width="1.6871"><path d="M231.11081,163.88499c1.18394,0.2523 2.10602,1.51937 2.2945,2.84109c0.34164,2.39894 -0.21941,5.01339 -0.89999,7.41532c-0.61257,2.22125 -1.55264,4.43957 -2.91045,6.22015c-0.78561,1.04774 -2.00914,2.17735 -3.14151,1.87925c-1.09075,-0.28754 -1.80673,-1.36852 -2.02229,-3.03963c-0.28027,-2.11576 -0.05873,-4.51115 0.62777,-7.21678c0.6865,-2.70564 1.52755,-4.84734 2.8889,-6.64306c0.89615,-1.18586 2.17733,-1.75455 3.16306,-1.45634z" id="ID0.6670762049034238" fill="url(#color-5)" stroke-linecap="round"/><path d="M230.95326,165.23084c0.60527,0.15358 1.07633,0.58909 1.35171,1.16736c0.27511,0.5782 0.35413,1.29962 0.16914,2.02868c-0.18506,0.72934 -0.5984,1.32554 -1.11596,1.7029c-0.51777,0.37702 -1.13948,0.53527 -1.74475,0.38169c-0.605,-0.15351 -1.07605,-0.58902 -1.35143,-1.16729c-0.27504,-0.57847 -0.35413,-1.29962 -0.16907,-2.02895c0.18499,-0.72906 0.5984,-1.32554 1.11589,-1.70263c0.51777,-0.37702 1.13948,-0.53527 1.74448,-0.38176z" id="ID0.2271407265216112" fill="#ffffff" stroke-linecap="butt"/></g></g></g></g></svg>