<svg version="1.1" xmlns="http://www.w3.org/2000/svg" xmlns:xlink="http://www.w3.org/1999/xlink" width="565.21781" height="362.44146" viewBox="0,0,565.21781,362.44146"><defs><linearGradient x1="-16.5332" y1="278.125" x2="31.825" y2="278.125" gradientUnits="userSpaceOnUse" id="color-1"><stop offset="0" stop-color="#5ebd47"/><stop offset="1" stop-color="#56ac41"/></linearGradient><linearGradient x1="253.77598" y1="121.42347" x2="254.19789" y2="161.61014" gradientUnits="userSpaceOnUse" id="color-2"><stop offset="0" stop-color="#c3e060"/><stop offset="1" stop-color="#6de01b"/></linearGradient><linearGradient x1="293.3694" y1="299.71115" x2="294.29797" y2="355.70604" gradientUnits="userSpaceOnUse" id="color-3"><stop offset="0" stop-color="#c3e060"/><stop offset="1" stop-color="#6de01b"/></linearGradient><linearGradient x1="627.94103" y1="293.04094" x2="624.88574" y2="348.95801" gradientUnits="userSpaceOnUse" id="color-4"><stop offset="0" stop-color="#c3e060"/><stop offset="1" stop-color="#6de01b"/></linearGradient><linearGradient x1="548.77598" y1="76.99825" x2="549.19789" y2="132.99672" gradientUnits="userSpaceOnUse" id="color-5"><stop offset="0" stop-color="#c3e060"/><stop offset="1" stop-color="#6de01b"/></linearGradient><linearGradient x1="-16.569" y1="238.5979" x2="-16.569" y2="261.5849" gradientUnits="userSpaceOnUse" id="color-6"><stop offset="0" stop-color="#000000"/><stop offset="1" stop-color="#000000" stop-opacity="0"/></linearGradient><linearGradient x1="-20.875" y1="246.375" x2="36.875" y2="246.375" gradientUnits="userSpaceOnUse" id="color-7"><stop offset="0" stop-color="#5ebd47"/><stop offset="1" stop-color="#56ac41"/></linearGradient></defs><g transform="translate(40.85508,-77.5042)"><g data-paper-data="{&quot;isPaintingLayer&quot;:true}" fill-rule="nonzero" stroke-linecap="butt" stroke-linejoin="miter" stroke-miterlimit="10" stroke-dasharray="" stroke-dashoffset="0" style="mix-blend-mode: normal"><path d="M-16.5332,254h48.3582v48.25h-48.3582z" fill="url(#color-1)" stroke="none" stroke-width="1.18415"/><g data-paper-data="{&quot;origPos&quot;:null}"><path d="M-3.1745,131.99771l190.4745,1.421l-0.4678,32.29201l-190.4745,-1.42107z" fill="#c06520" stroke="#763e13" stroke-width="1.5215"/><path d="M155,158.0243c0,-1.9817 2.23858,-3.58819 5,-3.58819c2.76142,0 5,1.60649 5,3.58819c0,1.9817 -2.23858,3.58819 -5,3.58819c-2.76142,0 -5,-1.60649 -5,-3.58819z" fill="#e0bb60" stroke="none" stroke-width="0.5"/><path d="M108,155.15374c0,-1.9817 2.23858,-3.58819 5,-3.58819c2.76142,0 5,1.60649 5,3.58819c0,1.9817 -2.23858,3.58819 -5,3.58819c-2.76142,0 -5,-1.60649 -5,-3.58819z" data-paper-data="{&quot;origPos&quot;:null}" fill="#e0bb60" stroke="none" stroke-width="0.5"/><path d="M54,157.30666c0,-1.9817 2.23858,-3.58819 5,-3.58819c2.76142,0 5,1.60649 5,3.58819c0,1.9817 -2.23858,3.58819 -5,3.58819c-2.76142,0 -5,-1.60649 -5,-3.58819z" data-paper-data="{&quot;origPos&quot;:null}" fill="#e0bb60" stroke="none" stroke-width="0.5"/><path d="M11.79711,122.69443c0,0 150.31125,-0.12224 166.70261,-0.13557c5.46379,-0.00444 10.00028,-0.47439 11.50028,1.42389c2.29136,2.89976 2.5,5.23182 2.5,8.56537c0,6.50659 0,13.01319 0,19.51978l-11.01078,-5.86436l-10.06298,7.9471l-13.26496,-7.10691l-14.12887,7.25079l-6.18547,-9.29706l-14.12133,7.96841l-17.32331,-7.0856l-4.96746,10.07331l-22.40377,-7.77657l-8.03382,7.93644l-9.23675,-9.99871l-14.1138,8.68603l-13.2725,-7.82453l-3.97547,7.91512l-12.25791,-7.82986l-7.01169,8.64873l-8.25341,-5.49026l-10.14779,4.00859l0.96426,-21.68364c0,0 2.49945,-6.49354 6.3394,-8.58278c3.22572,-1.75505 11.76552,-1.26772 11.76552,-1.26772z" data-paper-data="{&quot;origPos&quot;:null,&quot;origRot&quot;:0}" fill="url(#color-2)" stroke="#0f6600" stroke-width="2"/></g><g data-paper-data="{&quot;origPos&quot;:null}"><path d="M-40.05,330.87622h317.27007v45.068h-317.27007z" fill="#c06520" stroke="#763e13" stroke-width="1.61017"/><path d="M124.77618,353.00002c0,-2.76142 2.73215,-5 6.10241,-5c3.37027,0 6.10241,2.23858 6.10241,5c0,2.76142 -2.73215,5 -6.10241,5c-3.37027,0 -6.10241,-2.23858 -6.10241,-5z" data-paper-data="{&quot;origPos&quot;:null}" fill="#e0bb60" stroke="none" stroke-width="0.5"/><path d="M-1.94312,302.94669c0,0 263.09298,-1.55164 278.10038,-1.64c5.00248,-0.02946 9.80698,-0.12852 12.02179,2.26185c2.46061,2.65568 3.70817,6.31739 3.73034,9.31851c0.08322,11.26705 0.08767,11.86763 0.1709,23.13469l-10.87368,13.83466l-7.67068,-13.92466l-13.48763,8.14849l-13.80267,-10.84977l-19.57919,14.21579l-21.26509,-12.7682l-12.19966,11.13467l-16.26252,-9.82272l-17.16909,10.18901l-7.64481,-12.91741l-17.1525,11.18892l-21.21534,-9.76846l-5.95891,14.06655l-27.42295,-10.70053l-9.72327,11.10752l-11.37601,-13.87663l-17.13592,12.18883l-16.2791,-10.82264l-4.77043,11.05327l-15.04089,-10.8362l-8.46847,12.09386z" data-paper-data="{&quot;origPos&quot;:null,&quot;origRot&quot;:0}" fill="url(#color-3)" stroke="#0f6600" stroke-width="2"/></g><g><path d="M362.29266,307.07778l151.21803,9.55021l-7.72114,122.25663l-151.21803,-9.55021z" data-paper-data="{&quot;origPos&quot;:null}" fill="#c06520" stroke="#763e13" stroke-width="2"/><path d="M391.43998,334.21799c0.17405,-2.75593 2.54928,-4.84896 5.30521,-4.67491c2.75593,0.17405 4.84896,2.54928 4.67491,5.30521c-0.17405,2.75593 -2.54928,4.84896 -5.30521,4.67491c-2.75593,-0.17405 -4.84896,-2.54928 -4.67491,-5.30521z" data-paper-data="{&quot;origPos&quot;:null}" fill="#e0bb60" stroke="none" stroke-width="0.5"/><path d="M440.24813,386.3981c0.17405,-2.75593 2.54928,-4.84896 5.30521,-4.67491c2.75593,0.17405 4.84896,2.54928 4.67491,5.30521c-0.17405,2.75593 -2.54928,4.84896 -5.30521,4.67491c-2.75593,-0.17405 -4.84896,-2.54928 -4.67491,-5.30521z" data-paper-data="{&quot;origPos&quot;:null}" fill="#e0bb60" stroke="none" stroke-width="0.5"/><path d="M392.78478,376.3866c0.17405,-2.75593 2.54928,-4.84896 5.30521,-4.67491c2.75593,0.17405 4.84896,2.54928 4.67491,5.30521c-0.17405,2.75593 -2.54928,4.84896 -5.30521,4.67491c-2.75593,-0.17405 -4.84896,-2.54928 -4.67491,-5.30521z" data-paper-data="{&quot;origPos&quot;:null}" fill="#e0bb60" stroke="none" stroke-width="0.5"/><path d="M478.69774,348.7467c0.17405,-2.75593 2.54928,-4.84896 5.30521,-4.67491c2.75593,0.17405 4.84896,2.54928 4.67491,5.30521c-0.17405,2.75593 -2.54928,4.84896 -5.30521,4.67491c-2.75593,-0.17405 -4.84896,-2.54928 -4.67491,-5.30521z" data-paper-data="{&quot;origPos&quot;:null}" fill="#e0bb60" stroke="none" stroke-width="0.5"/><path d="M359.00067,280.83647c1.42976,-1.55554 5.59858,-2.65877 9.63654,-2.40783c56.15712,3.48989 124.97119,7.76386 141.42258,8.78623c5.48379,0.34079 9.5674,2.45459 10.49011,3.65429c1.20485,1.56653 3.08486,4.76489 2.77984,9.59469c-0.52886,8.37397 -0.82628,13.08328 -1.35514,21.45725c-0.05667,0.89728 -1.21419,8.53815 -1.26648,9.43485l-9.95408,-12.95008l-13.56087,12.27335l-11.51977,-13.90882l-13.57761,12.67306l-16.46416,-13.13734l-6.46872,13.65617l-18.73376,-14.37903l-13.24739,12.58247l-9.505,-14.56083l-14.38019,11.21956l-14.23259,-11.82375l-5.16407,10.72524l-13.09161,-11.75913l-8.64157,11.5299c0,0 1.63374,-20.52648 2.67943,-33.66446c0.37904,-4.7623 2.95393,-7.68959 4.1545,-8.99578z" data-paper-data="{&quot;origPos&quot;:null,&quot;origRot&quot;:0}" fill="url(#color-4)" stroke="#0f6600" stroke-width="2"/></g><g data-paper-data="{&quot;origPos&quot;:null}"><path d="M291.8255,91.73301l190.4745,1.9801l-0.4678,44.9976l-190.4745,-1.9802z" fill="#c06520" stroke="#763e13" stroke-width="1.5215"/><path d="M450,128.00001c0,-2.76142 2.23858,-5 5,-5c2.76142,0 5,2.23858 5,5c0,2.76142 -2.23858,5 -5,5c-2.76142,0 -5,-2.23858 -5,-5z" fill="#e0bb60" stroke="none" stroke-width="0.5"/><path d="M403,124.00001c0,-2.76142 2.23858,-5 5,-5c2.76142,0 5,2.23858 5,5c0,2.76142 -2.23858,5 -5,5c-2.76142,0 -5,-2.23858 -5,-5z" data-paper-data="{&quot;origPos&quot;:null}" fill="#e0bb60" stroke="none" stroke-width="0.5"/><path d="M349,127.00001c0,-2.76142 2.23858,-5 5,-5c2.76142,0 5,2.23858 5,5c0,2.76142 -2.23858,5 -5,5c-2.76142,0 -5,-2.23858 -5,-5z" data-paper-data="{&quot;origPos&quot;:null}" fill="#e0bb60" stroke="none" stroke-width="0.5"/><path d="M306.79711,78.76927c0,0 150.31125,-0.17033 166.70261,-0.18891c5.46379,-0.00619 10.00028,-0.66104 11.50028,1.98413c2.29136,4.0407 2.5,7.29033 2.5,11.9355c0,9.06667 0,18.13335 0,27.20002l-11.01078,-8.17174l-10.06298,11.07396l-13.26496,-9.90319l-14.12887,10.10368l-6.18547,-12.95508l-14.12133,11.10365l-17.32331,-9.87349l-4.96746,14.03674l-22.40377,-10.83633l-8.03382,11.0591l-9.23675,-13.93279l-14.1138,12.10363l-13.2725,-10.90317l-3.97547,11.0294l-12.25791,-10.91059l-7.01169,12.05165l-8.25341,-7.65045l-10.14779,5.58581l0.96426,-30.21527c0,0 2.49945,-9.04849 6.3394,-11.95975c3.22572,-2.44559 11.76552,-1.76651 11.76552,-1.76651z" data-paper-data="{&quot;origPos&quot;:null,&quot;origRot&quot;:0}" fill="url(#color-5)" stroke="#0f6600" stroke-width="2"/></g><path d="M-12.5183,255h6.3806v47.25h-6.3806z" fill="#5dd24d" stroke="none" stroke-width="1.18415"/><path d="M-16.569,238.5979h48.3582v22.987h-48.3582z" fill="url(#color-6)" stroke="none" stroke-width="2.30239"/><path d="M-20.875,237.75h57.75v17.25h-57.75z" fill="url(#color-7)" stroke="none" stroke-width="1.07722"/><path d="M-16.7272,237.75h6.0447v17.25h-6.0447z" fill="#5dd24d" stroke="none" stroke-width="1.18415"/></g></g></svg>