<svg xmlns="http://www.w3.org/2000/svg" xmlns:xlink="http://www.w3.org/1999/xlink" version="1.1" width="66.51740178138581" height="63.167399492567455" viewBox="-0.7749989463417104 -0.4340989424316457 66.51740178138581 63.167399492567455">
  <defs>
    <radialGradient id="grad_1" cx="0.5165" cy="0.5036999999999999" r="0.67145">
      <stop offset="0" stop-color="#FFF343" stop-opacity="1"/>
      <stop offset="1" stop-color="#FFF343" stop-opacity="0"/>
    </radialGradient>
    <radialGradient id="grad_2" cx="0.48210000000000003" cy="0.5173" r="0.67327">
      <stop offset="0" stop-color="#FFFFFF" stop-opacity="0"/>
      <stop offset="1" stop-color="#FFFFFF" stop-opacity="1"/>
    </radialGradient>
    <linearGradient id="grad_3" y2="1" x2="0">
      <stop offset="0" stop-color="#000000" stop-opacity="1"/>
      <stop offset="1" stop-color="#674205" stop-opacity="1"/>
    </linearGradient>
    <radialGradient id="grad_4" cx="0.48460000000000003" cy="0.5012" r="0.67002">
      <stop offset="0" stop-color="#FFF6BD" stop-opacity="0"/>
      <stop offset="1" stop-color="#FFF6BD" stop-opacity="1"/>
    </radialGradient>
    <linearGradient id="grad_5" y2="1" x2="0">
      <stop offset="0" stop-color="#000000" stop-opacity="1"/>
      <stop offset="1" stop-color="#674205" stop-opacity="1"/>
    </linearGradient>
    <radialGradient id="grad_6" cx="0.40869999999999995" cy="0.3134" r="0.8925800000000002">
      <stop offset="0" stop-color="#FFF9A0" stop-opacity="1"/>
      <stop offset="1" stop-color="#FFE46F" stop-opacity="1"/>
    </radialGradient>
    <radialGradient id="grad_7" cx="0.22219999999999998" cy="0.2896" r="1.0111400000000001">
      <stop offset="0" stop-color="#FFF9A0" stop-opacity="1"/>
      <stop offset="1" stop-color="#FFE46F" stop-opacity="1"/>
    </radialGradient>
    <radialGradient id="grad_8" cx="0.3293" cy="0.369" r="0.8719100000000001">
      <stop offset="0" stop-color="#FFF9A0" stop-opacity="1"/>
      <stop offset="1" stop-color="#FFE46F" stop-opacity="1"/>
    </radialGradient>
    <radialGradient id="grad_9" cx="0.3531" cy="0.2857" r="0.9285899999999999">
      <stop offset="0" stop-color="#FFF9A0" stop-opacity="1"/>
      <stop offset="1" stop-color="#FFE46F" stop-opacity="1"/>
    </radialGradient>
    <radialGradient id="grad_10" cx="0.35710000000000003" cy="0.3134" r="0.8925800000000002">
      <stop offset="0" stop-color="#FFF9A0" stop-opacity="1"/>
      <stop offset="1" stop-color="#FFE46F" stop-opacity="1"/>
    </radialGradient>
  <radialGradient id="grad_1-.4226971864700317,0,0,1.449718952178955,-309.85,-218.6" cx="33.0882" cy="31.4725" r="39.6063" gradientUnits="userSpaceOnUse">
      <stop offset="0" stop-color="#FFF343" stop-opacity="1"/>
      <stop offset="1" stop-color="#FFF343" stop-opacity="0"/>
    </radialGradient><radialGradient id="grad_2-.080247402191162,0,0,1.080247402191162,-227.3,-154.55" cx="31.8472" cy="31.7918" r="33.6365" gradientUnits="userSpaceOnUse">
      <stop offset="0" stop-color="#FFFFFF" stop-opacity="0"/>
      <stop offset="1" stop-color="#FFFFFF" stop-opacity="1"/>
    </radialGradient><linearGradient id="grad_3-.4989712238311768,0,0,3.0119969844818115,-560,-477.5" y2="36.0455" x2="34.0055" x1="34.0055" y1="25.0507" gradientUnits="userSpaceOnUse">
      <stop offset="0" stop-color="#000000" stop-opacity="1"/>
      <stop offset="1" stop-color="#674205" stop-opacity="1"/>
    </linearGradient><radialGradient id="grad_4-.2740774154663086,0,0,1.2740774154663086,-273.85,-188.15" cx="31.5445" cy="31.4981" r="35.0589" gradientUnits="userSpaceOnUse">
      <stop offset="0" stop-color="#FFF6BD" stop-opacity="0"/>
      <stop offset="1" stop-color="#FFF6BD" stop-opacity="1"/>
    </radialGradient><linearGradient id="grad_5-.4989712238311768,0,0,3.0119969844818115,-569.25,-477.55" y2="35.9955" x2="24.7555" x1="24.7555" y1="25.0007" gradientUnits="userSpaceOnUse">
      <stop offset="0" stop-color="#000000" stop-opacity="1"/>
      <stop offset="1" stop-color="#674205" stop-opacity="1"/>
    </linearGradient><radialGradient id="grad_6-.7420634627342224,0,0,0.7420634627342224,-116.45,-95.3" cx="50.1801" cy="54.9299" r="8.3456" gradientUnits="userSpaceOnUse">
      <stop offset="0" stop-color="#FFF9A0" stop-opacity="1"/>
      <stop offset="1" stop-color="#FFE46F" stop-opacity="1"/>
    </radialGradient><radialGradient id="grad_7-.7420634627342224,0,0,0.7420634627342224,-150.9,-95.8" cx="13.9863" cy="54.2074" r="9.4542" gradientUnits="userSpaceOnUse">
      <stop offset="0" stop-color="#FFF9A0" stop-opacity="1"/>
      <stop offset="1" stop-color="#FFE46F" stop-opacity="1"/>
    </radialGradient><radialGradient id="grad_8-.7420634627342224,0,0,0.7420634627342224,-162.2,-128" cx="3.6877" cy="22.7497" r="8.1524" gradientUnits="userSpaceOnUse">
      <stop offset="0" stop-color="#FFF9A0" stop-opacity="1"/>
      <stop offset="1" stop-color="#FFE46F" stop-opacity="1"/>
    </radialGradient><radialGradient id="grad_9-.7420634627342224,0,0,0.7420634627342224,-136.1,-146.35" cx="30.0102" cy="3.6209" r="8.6823" gradientUnits="userSpaceOnUse">
      <stop offset="0" stop-color="#FFF9A0" stop-opacity="1"/>
      <stop offset="1" stop-color="#FFE46F" stop-opacity="1"/>
    </radialGradient><radialGradient id="grad_10-.7420634627342224,0,0,0.7420634627342224,-107.8,-127.75" cx="58.3476" cy="22.4799" r="8.3456" gradientUnits="userSpaceOnUse">
      <stop offset="0" stop-color="#FFF9A0" stop-opacity="1"/>
      <stop offset="1" stop-color="#FFE46F" stop-opacity="1"/>
    </radialGradient></defs>
  <!-- Exported by Scratch - http://scratch.mit.edu/ -->
  <g id="ID0.6658366383053362">
    <path id="ID0.3117544511333108" fill="url(#grad_1-.4226971864700317,0,0,1.449718952178955,-309.85,-218.6)" stroke="none" stroke-linecap="round" d="M 3.0722 25.7501 L 2.0052 24.3729 L 2.93 21.5459 L 4.5661 20.8211 L 21.425 20.8211 L 28.8231 3.7869 L 30.4592 2.4097 L 32.0953 2.4821 L 34.087 4.0043 L 42.0541 20.6036 L 59.1265 20.3137 L 60.8338 21.3285 L 62.1853 22.9957 L 60.8338 25.9676 L 51.0883 37.4929 L 53.9337 54.962 L 54.0759 57.7164 L 52.2976 58.6587 L 49.1676 58.0789 L 32.8066 46.4811 L 18.8642 59.5286 L 15.7343 60.1085 L 13.4579 58.8762 L 12.6755 55.4694 L 14.3116 39.2325 L 3.0722 25.7501 Z " stroke-width="1.4362716185834405"/>
    <path id="ID0.3117544511333108" fill="url(#grad_2-.080247402191162,0,0,1.080247402191162,-227.3,-154.55)" stroke="none" stroke-linecap="round" d="M 7.0057 24.285 L 24.2356 23.8529 L 31.3652 6.7849 L 39.8992 23.6908 L 58.5335 23.6368 L 46.7588 36.2757 L 50.1615 53.9918 L 32.7696 42.1631 L 16.7819 55.126 L 18.8344 37.572 L 7.0057 24.285 Z " stroke-width="1.080247402191162"/>
    <g id="ID0.4398073833435774">
      <path id="ID0.6670762049034238" fill="url(#grad_3-.4989712238311768,0,0,3.0119969844818115,-560,-477.5)" stroke="none" stroke-linecap="round" d="M 36.2545 25.0517 C 36.9567 25.0246 37.6565 25.6059 37.9513 26.3228 C 38.4861 27.6239 38.5436 29.1751 38.5036 30.6239 C 38.4761 31.9612 38.2637 33.3437 37.7539 34.5395 C 37.4615 35.2413 36.9343 36.0515 36.2545 36.0455 C 35.5998 36.0395 35.0425 35.5334 34.6827 34.6238 C 34.2229 33.4732 34.0055 32.0937 34.0055 30.4733 C 34.0055 28.8528 34.1729 27.5276 34.6827 26.3228 C 35.0175 25.5276 35.6573 25.0246 36.2545 25.0517 Z " stroke-width="2.7673979666885478"/>
      <path id="ID0.2271407265216112" fill="#FFFFFF" stroke="none" d="M 36.3637 25.9035 C 36.7261 25.9035 37.0534 26.0812 37.2908 26.3673 C 37.5282 26.6535 37.6757 27.0481 37.6757 27.4848 C 37.6757 27.9215 37.5282 28.3161 37.2908 28.6022 C 37.0534 28.8884 36.7261 29.0661 36.3637 29.0661 C 36.0014 29.0661 35.674 28.8884 35.4366 28.6022 C 35.1992 28.3161 35.0518 27.9215 35.0518 27.4848 C 35.0518 27.0481 35.1992 26.6535 35.4366 26.3673 C 35.674 26.0812 36.0014 25.9035 36.3637 25.9035 Z " stroke-width="2.7673979666885478"/>
    </g>
    <path id="ID0.3117544511333108" fill="url(#grad_4-.2740774154663086,0,0,1.2740774154663086,-273.85,-188.15)" stroke="none" stroke-linecap="round" d="M 6.3833 26.5957 L 5.4278 25.3854 L 6.2559 22.9009 L 7.7211 22.2639 L 22.8189 22.2639 L 29.4441 7.2935 L 30.9093 6.0831 L 32.3745 6.1468 L 34.1582 7.4846 L 41.293 22.0728 L 56.582 21.818 L 58.1109 22.7098 L 59.3212 24.175 L 58.1109 26.7869 L 49.3834 36.9158 L 51.9316 52.2684 L 52.059 54.6892 L 50.4664 55.5173 L 47.6634 55.0077 L 33.0115 44.8151 L 20.5256 56.2818 L 17.7226 56.7914 L 15.6841 55.7084 L 14.9834 52.7143 L 16.4485 38.4447 L 6.3833 26.5957 Z " stroke-width="1.2740774154663086"/>
    <g id="ID0.4398073833435774">
      <path id="ID0.6670762049034238" fill="url(#grad_5-.4989712238311768,0,0,3.0119969844818115,-569.25,-477.55)" stroke="none" stroke-linecap="round" d="M 27.0045 25.0017 C 27.7067 24.9746 28.4065 25.5559 28.7013 26.2728 C 29.2361 27.5739 29.2936 29.1251 29.2536 30.5739 C 29.2261 31.9112 29.0137 33.2937 28.5039 34.4895 C 28.2115 35.1913 27.6843 36.0015 27.0045 35.9955 C 26.3498 35.9895 25.7925 35.4834 25.4327 34.5738 C 24.9729 33.4232 24.7555 32.0437 24.7555 30.4233 C 24.7555 28.8028 24.9229 27.4776 25.4327 26.2728 C 25.7675 25.4776 26.4073 24.9746 27.0045 25.0017 Z " stroke-width="2.7673979666885478"/>
      <path id="ID0.2271407265216112" fill="#FFFFFF" stroke="none" d="M 27.1637 25.8035 C 27.5261 25.8035 27.8534 25.9812 28.0908 26.2673 C 28.3282 26.5535 28.4757 26.9481 28.4757 27.3848 C 28.4757 27.8215 28.3282 28.2161 28.0908 28.5022 C 27.8534 28.7884 27.5261 28.9661 27.1637 28.9661 C 26.8014 28.9661 26.474 28.7884 26.2366 28.5022 C 25.9992 28.2161 25.8518 27.8215 25.8518 27.3848 C 25.8518 26.9481 25.9992 26.5535 26.2366 26.2673 C 26.474 25.9812 26.8014 25.8035 27.1637 25.8035 Z " stroke-width="2.7673979666885478"/>
    </g>
    <path id="ID0.39403693610802293" fill="url(#grad_6-.7420634627342224,0,0,0.7420634627342224,-116.45,-95.3)" stroke="none" d="M 51.0337 51.9996 C 52.3234 51.9996 53.4922 52.5235 54.3389 53.3694 C 55.1848 54.2161 55.7087 55.3849 55.7087 56.6746 C 55.7087 57.9643 55.1848 59.1331 54.3389 59.9797 C 53.4922 60.8257 52.3234 61.3496 51.0337 61.3496 C 49.744 61.3496 48.5753 60.8257 47.7286 59.9797 C 46.8826 59.1331 46.3587 57.9643 46.3587 56.6746 C 46.3587 55.3849 46.8826 54.2161 47.7286 53.3694 C 48.5753 52.5235 49.744 51.9996 51.0337 51.9996 Z " stroke-width="0.7420634627342224"/>
    <path id="ID0.39403693610802293" fill="url(#grad_7-.7420634627342224,0,0,0.7420634627342224,-150.9,-95.8)" stroke="none" d="M 16.5837 51.4996 C 17.8734 51.4996 19.0422 52.0235 19.8889 52.8694 C 20.7348 53.7161 21.2587 54.8849 21.2587 56.1746 C 21.2587 57.4643 20.7348 58.6331 19.8889 59.4797 C 19.0422 60.3257 17.8734 60.8496 16.5837 60.8496 C 15.294 60.8496 14.1253 60.3257 13.2786 59.4797 C 12.4326 58.6331 11.9087 57.4643 11.9087 56.1746 C 11.9087 54.8849 12.4326 53.7161 13.2786 52.8694 C 14.1253 52.0235 15.294 51.4996 16.5837 51.4996 Z " stroke-width="0.7420634627342224"/>
    <path id="ID0.39403693610802293" fill="url(#grad_8-.7420634627342224,0,0,0.7420634627342224,-162.2,-128)" stroke="none" d="M 5.2837 19.2996 C 6.5734 19.2996 7.7422 19.8235 8.5889 20.6694 C 9.4348 21.5161 9.9587 22.6849 9.9587 23.9746 C 9.9587 25.2643 9.4348 26.4331 8.5889 27.2797 C 7.7422 28.1257 6.5734 28.6496 5.2837 28.6496 C 3.994 28.6496 2.8253 28.1257 1.9786 27.2797 C 1.1326 26.4331 0.6087 25.2643 0.6087 23.9746 C 0.6087 22.6849 1.1326 21.5161 1.9786 20.6694 C 2.8253 19.8235 3.994 19.2996 5.2837 19.2996 Z " stroke-width="0.7420634627342224"/>
    <path id="ID0.39403693610802293" fill="url(#grad_9-.7420634627342224,0,0,0.7420634627342224,-136.1,-146.35)" stroke="none" d="M 31.3837 0.9496 C 32.6734 0.9496 33.8422 1.4735 34.6889 2.3194 C 35.5348 3.1661 36.0587 4.3349 36.0587 5.6246 C 36.0587 6.9143 35.5348 8.0831 34.6889 8.9297 C 33.8422 9.7757 32.6734 10.2996 31.3837 10.2996 C 30.094 10.2996 28.9253 9.7757 28.0786 8.9297 C 27.2326 8.0831 26.7087 6.9143 26.7087 5.6246 C 26.7087 4.3349 27.2326 3.1661 28.0786 2.3194 C 28.9253 1.4735 30.094 0.9496 31.3837 0.9496 Z " stroke-width="0.7420634627342224"/>
    <path id="ID0.39403693610802293" fill="url(#grad_10-.7420634627342224,0,0,0.7420634627342224,-107.8,-127.75)" stroke="none" d="M 59.6837 19.5496 C 60.9734 19.5496 62.1422 20.0735 62.9889 20.9194 C 63.8348 21.7661 64.3587 22.9349 64.3587 24.2246 C 64.3587 25.5143 63.8348 26.6831 62.9889 27.5297 C 62.1422 28.3757 60.9734 28.8996 59.6837 28.8996 C 58.394 28.8996 57.2253 28.3757 56.3786 27.5297 C 55.5326 26.6831 55.0087 25.5143 55.0087 24.2246 C 55.0087 22.9349 55.5326 21.7661 56.3786 20.9194 C 57.2253 20.0735 58.394 19.5496 59.6837 19.5496 Z " stroke-width="0.7420634627342224"/>
  </g>
</svg>