<svg version="1.1" xmlns="http://www.w3.org/2000/svg" xmlns:xlink="http://www.w3.org/1999/xlink" width="64.3297" height="123.36367" viewBox="0,0,64.3297,123.36367"><defs><linearGradient x1="249.41692" y1="162.73929" x2="268.91743" y2="162.73929" gradientUnits="userSpaceOnUse" id="color-1"><stop offset="0" stop-color="#523110"/><stop offset="1" stop-color="#492a0c"/></linearGradient><linearGradient x1="228.52281" y1="162.94407" x2="248.02331" y2="162.94407" gradientUnits="userSpaceOnUse" id="color-2"><stop offset="0" stop-color="#6b4210"/><stop offset="1" stop-color="#603a10"/></linearGradient><linearGradient x1="207.41692" y1="162.73928" x2="226.91742" y2="162.73928" gradientUnits="userSpaceOnUse" id="color-3"><stop offset="0" stop-color="#523110"/><stop offset="1" stop-color="#492a0c"/></linearGradient><linearGradient x1="259.00733" y1="104.3976" x2="259.00733" y2="220.76126" gradientUnits="userSpaceOnUse" id="color-4"><stop offset="0" stop-color="#945a18"/><stop offset="1" stop-color="#744610"/></linearGradient><linearGradient x1="217.00733" y1="104.39759" x2="217.00733" y2="220.76126" gradientUnits="userSpaceOnUse" id="color-5"><stop offset="0" stop-color="#945a18"/><stop offset="1" stop-color="#744610"/></linearGradient><linearGradient x1="237.79354" y1="104.28272" x2="237.79354" y2="220.64638" gradientUnits="userSpaceOnUse" id="color-6"><stop offset="0" stop-color="#efa539"/><stop offset="1" stop-color="#a56318"/></linearGradient><linearGradient x1="239.16718" y1="183.32236" x2="239.16718" y2="207.1562" gradientUnits="userSpaceOnUse" id="color-7"><stop offset="0" stop-color="#523110"/><stop offset="1" stop-color="#492a0c"/></linearGradient><linearGradient x1="239.16718" y1="117.65569" x2="239.16718" y2="141.48953" gradientUnits="userSpaceOnUse" id="color-8"><stop offset="0" stop-color="#523110"/><stop offset="1" stop-color="#492a0c"/></linearGradient><linearGradient x1="210.38399" y1="195.04391" x2="269.12233" y2="195.04391" gradientUnits="userSpaceOnUse" id="color-9"><stop offset="0" stop-color="#945a18"/><stop offset="1" stop-color="#744610"/></linearGradient><linearGradient x1="210.38399" y1="129.37725" x2="269.12233" y2="129.37725" gradientUnits="userSpaceOnUse" id="color-10"><stop offset="0" stop-color="#945a18"/><stop offset="1" stop-color="#744610"/></linearGradient><linearGradient x1="266.29393" y1="186.76667" x2="266.29393" y2="204.43333" gradientUnits="userSpaceOnUse" id="color-11"><stop offset="0" stop-color="#cbcbcb"/><stop offset="1" stop-color="#000000"/></linearGradient><linearGradient x1="239.04393" y1="189.08365" x2="239.04393" y2="201.43333" gradientUnits="userSpaceOnUse" id="color-12"><stop offset="0" stop-color="#cbcbcb"/><stop offset="1" stop-color="#000000"/></linearGradient><linearGradient x1="264.4606" y1="195.60001" x2="268.12727" y2="195.60001" gradientUnits="userSpaceOnUse" id="color-13"><stop offset="0" stop-color="#e8e8e8"/><stop offset="1" stop-color="#313131"/></linearGradient><linearGradient x1="266.29393" y1="186.76667" x2="266.29393" y2="204.43334" gradientUnits="userSpaceOnUse" id="color-14"><stop offset="0" stop-color="#000000" stop-opacity="0"/><stop offset="1" stop-color="#000000"/></linearGradient><linearGradient x1="239.04393" y1="189.08365" x2="239.04393" y2="201.43334" gradientUnits="userSpaceOnUse" id="color-15"><stop offset="0" stop-color="#000000" stop-opacity="0"/><stop offset="1" stop-color="#000000"/></linearGradient><linearGradient x1="219.4606" y1="192.26667" x2="219.4606" y2="197.26667" gradientUnits="userSpaceOnUse" id="color-16"><stop offset="0" stop-color="#ffffff"/><stop offset="1" stop-color="#1a1a1a"/></linearGradient><linearGradient x1="266.29393" y1="121.1" x2="266.29393" y2="138.76666" gradientUnits="userSpaceOnUse" id="color-17"><stop offset="0" stop-color="#cbcbcb"/><stop offset="1" stop-color="#000000"/></linearGradient><linearGradient x1="239.04393" y1="123.41698" x2="239.04393" y2="135.76666" gradientUnits="userSpaceOnUse" id="color-18"><stop offset="0" stop-color="#cbcbcb"/><stop offset="1" stop-color="#000000"/></linearGradient><linearGradient x1="264.4606" y1="129.93334" x2="268.12727" y2="129.93334" gradientUnits="userSpaceOnUse" id="color-19"><stop offset="0" stop-color="#e8e8e8"/><stop offset="1" stop-color="#313131"/></linearGradient><linearGradient x1="266.29393" y1="121.1" x2="266.29393" y2="138.76667" gradientUnits="userSpaceOnUse" id="color-20"><stop offset="0" stop-color="#000000" stop-opacity="0"/><stop offset="1" stop-color="#000000"/></linearGradient><linearGradient x1="239.04393" y1="123.41698" x2="239.04393" y2="135.76667" gradientUnits="userSpaceOnUse" id="color-21"><stop offset="0" stop-color="#000000" stop-opacity="0"/><stop offset="1" stop-color="#000000"/></linearGradient><linearGradient x1="219.4606" y1="126.6" x2="219.4606" y2="131.6" gradientUnits="userSpaceOnUse" id="color-22"><stop offset="0" stop-color="#ffffff"/><stop offset="1" stop-color="#1a1a1a"/></linearGradient></defs><g transform="translate(-206.41692,-101.15984)"><g data-paper-data="{&quot;isPaintingLayer&quot;:true}" fill-rule="nonzero" stroke-linejoin="miter" stroke-miterlimit="10" stroke-dasharray="" stroke-dashoffset="0" style="mix-blend-mode: normal"><path d="M249.41692,223.31873v-121.15888h19.50051v121.15888z" fill="url(#color-1)" stroke="#311800" stroke-width="2" stroke-linecap="butt"/><path d="M228.52281,223.52351v-121.15888h19.5005v121.15888z" fill="url(#color-2)" stroke="#311800" stroke-width="2" stroke-linecap="butt"/><path d="M207.41692,223.31872v-121.15888h19.5005v121.15888z" fill="url(#color-3)" stroke="#311800" stroke-width="2" stroke-linecap="butt"/><path d="M251.335,220.76126v-116.36367h15.34466" fill="none" stroke="url(#color-4)" stroke-width="2" stroke-linecap="round"/><path d="M209.335,220.76126v-116.36367h15.34466" fill="none" stroke="url(#color-5)" stroke-width="2" stroke-linecap="round"/><path d="M230.12121,220.64638v-116.36367h15.34466" fill="none" stroke="url(#color-6)" stroke-width="2" stroke-linecap="round"/><path d="M208.58774,183.32236h61.15888v23.83384h-61.15888z" data-paper-data="{&quot;index&quot;:null}" fill="url(#color-7)" stroke="#311800" stroke-width="2" stroke-linecap="butt"/><path d="M208.58773,117.65569h61.15889v23.83384h-61.15889z" data-paper-data="{&quot;index&quot;:null}" fill="url(#color-8)" stroke="#311800" stroke-width="2" stroke-linecap="butt"/><path d="M210.38398,204.42116v-18.7545h57.73835" data-paper-data="{&quot;index&quot;:null}" fill="none" stroke="url(#color-9)" stroke-width="2" stroke-linecap="round"/><path d="M210.38398,138.75449v-18.75449h57.73835" data-paper-data="{&quot;index&quot;:null}" fill="none" stroke="url(#color-10)" stroke-width="2" stroke-linecap="round"/><g><g stroke-width="2"><path d="M264.4606,204.43333v-17.66667h3.66667v17.66667z" fill="#313131" stroke="url(#color-11)" stroke-linecap="butt"/><path d="M264.12726,201.1l-8,0.33333l-10.66667,-5.66667h-20c0,0 -2.46733,5.63186 -5.5,5.5c-3.03267,-0.13186 -6,-2.57212 -6,-6c0,-3.42788 2.55697,-5.58821 6,-6c3.44303,-0.41179 44.16667,0 44.16667,0z" fill="#313131" stroke="url(#color-12)" stroke-linecap="round"/><path d="M264.4606,204.43334v-17.66666h3.66667v17.66666z" fill="url(#color-13)" stroke="url(#color-14)" stroke-linecap="butt"/><path d="M264.12727,201.1l-8,0.33334l-10.66667,-5.66666h-20c0,0 -2.46733,5.63186 -5.5,5.5c-3.03267,-0.13186 -6,-2.57212 -6,-6c0,-3.42787 2.55697,-5.58821 6,-6c3.44303,-0.41179 44.16667,0 44.16667,0z" fill="#313131" stroke="url(#color-15)" stroke-linecap="round"/></g><path d="M216.9606,194.76667c0,-1.38071 1.11929,-2.5 2.5,-2.5c1.38071,0 2.5,1.11929 2.5,2.5c0,1.38071 -1.11929,2.5 -2.5,2.5c-1.38071,0 -2.5,-1.11929 -2.5,-2.5z" fill="url(#color-16)" stroke="none" stroke-width="0.5" stroke-linecap="butt"/></g><g><g stroke-width="2"><path d="M264.4606,138.76666v-17.66667h3.66667v17.66667z" fill="#313131" stroke="url(#color-17)" stroke-linecap="butt"/><path d="M264.12726,135.43333l-8,0.33333l-10.66667,-5.66667h-20c0,0 -2.46733,5.63186 -5.5,5.5c-3.03267,-0.13186 -6,-2.57212 -6,-6c0,-3.42788 2.55697,-5.58821 6,-6c3.44303,-0.41179 44.16667,0 44.16667,0z" fill="#313131" stroke="url(#color-18)" stroke-linecap="round"/><path d="M264.4606,138.76667v-17.66666h3.66667v17.66666z" fill="url(#color-19)" stroke="url(#color-20)" stroke-linecap="butt"/><path d="M264.12727,135.43333l-8,0.33334l-10.66667,-5.66666h-20c0,0 -2.46733,5.63186 -5.5,5.5c-3.03267,-0.13186 -6,-2.57212 -6,-6c0,-3.42787 2.55697,-5.58821 6,-6c3.44303,-0.41179 44.16667,0 44.16667,0z" fill="#313131" stroke="url(#color-21)" stroke-linecap="round"/></g><path d="M216.9606,129.1c0,-1.38071 1.11929,-2.5 2.5,-2.5c1.38071,0 2.5,1.11929 2.5,2.5c0,1.38071 -1.11929,2.5 -2.5,2.5c-1.38071,0 -2.5,-1.11929 -2.5,-2.5z" fill="url(#color-22)" stroke="none" stroke-width="0.5" stroke-linecap="butt"/></g></g></g></svg>