<svg version="1.1" xmlns="http://www.w3.org/2000/svg" xmlns:xlink="http://www.w3.org/1999/xlink" width="437" height="90.79587" viewBox="0,0,437,90.79587"><defs><linearGradient x1="239.96075" y1="135.56279" x2="239.96075" y2="224.35867" gradientUnits="userSpaceOnUse" id="color-1"><stop offset="0" stop-color="#ffffff"/><stop offset="1" stop-color="#d8d8d8"/></linearGradient><linearGradient x1="239.96075" y1="135.5628" x2="239.96075" y2="224.35867" gradientUnits="userSpaceOnUse" id="color-2"><stop offset="0" stop-color="#343434"/><stop offset="1" stop-color="#090909"/></linearGradient><radialGradient cx="443.76725" cy="206.50539" r="17.9081" gradientUnits="userSpaceOnUse" id="color-3"><stop offset="0" stop-color="#ffffff"/><stop offset="1" stop-color="#e5e5e5"/></radialGradient></defs><g transform="translate(-21.46075,-134.5628)"><g data-paper-data="{&quot;isPaintingLayer&quot;:true}" fill-rule="nonzero" stroke-linejoin="miter" stroke-miterlimit="10" stroke-dasharray="" stroke-dashoffset="0" style="mix-blend-mode: normal"><path d="M22.46075,224.35867v-88.79587h435v88.79587z" data-paper-data="{&quot;origPos&quot;:null}" fill="url(#color-1)" stroke="url(#color-2)" stroke-width="2" stroke-linecap="butt"/><g data-paper-data="{&quot;origPos&quot;:null}"><path d="M444.26655,202.0594c2.5136,0 4.7909,1.0212 6.4406,2.6702c1.6489,1.6496 2.6702,3.9269 2.6702,6.4405c0,2.5136 -1.0213,4.791 -2.6702,6.4406c-1.6497,1.649 -3.927,2.6702 -6.4406,2.6702c-2.5136,0 -4.7909,-1.0212 -6.4406,-2.6702c-1.6489,-1.6496 -2.6701,-3.927 -2.6701,-6.4406c0,-2.5136 1.0212,-4.7909 2.6701,-6.4405c1.6497,-1.649 3.927,-2.6702 6.4406,-2.6702z" fill="url(#color-3)" stroke="#000000" stroke-width="2.0785" stroke-linecap="butt"/><path d="M441.23415,206.50959l5.6119,0.4503l1.7321,3.187l-3.6374,2.9446l3.3603,-0.5197l0.7967,3.4642l-7.4479,-0.0693l-1.9053,-2.4249l4.6766,-3.3256l-4.5727,-0.3464z" fill="#000000" stroke="none" stroke-width="0.69283" stroke-linecap="round"/></g><path d="M36.15223,148.51849c2.45739,0.5488 3.82327,0.86283 4.09766,0.94209v0.06403c-0.08537,2.20129 -0.1494,3.4818 -0.19207,3.84156c0.14024,0 0.77137,0.14634 1.89334,0.43904c1.00613,-3.10374 1.55187,-4.65561 1.63724,-4.65561c1.68297,0.75611 2.75312,1.25918 3.21045,1.50918v0.06403c-1.84761,4.29889 -2.89641,6.6709 -3.14642,7.11604c-0.46343,0.38416 -2.07932,1.85371 -4.84768,4.40865h-0.06403l-5.10379,-2.51531c0.46953,-0.80489 1.03661,-1.7287 1.70126,-2.77142c0.03049,0 0.82929,0.5244 2.39641,1.57321h0.06403c0.5244,-0.42684 1.15247,-1.03662 1.88419,-1.82931c0,-0.0366 -1.19516,-1.2104 -3.58546,-3.52143v-4.5367z" data-paper-data="{&quot;origPos&quot;:null}" fill="#000000" stroke="none" stroke-width="0.26458" stroke-linecap="butt"/><path d="M51.4819,151.28989c2.31713,0.62197 3.54582,1.00003 3.68606,1.13418c1.27442,1.80493 1.99091,2.84458 2.14945,3.11899c-0.8232,2.60983 -1.29577,3.91473 -1.41772,3.91473c-2.74397,0.64026 -4.17999,0.96039 -4.30804,0.96039c-2.26835,-1.3232 -3.47571,-2.06102 -3.62204,-2.21346c-0.07926,-2.46347 -0.1189,-3.82327 -0.1189,-4.07937c-0.03658,-0.07317 -0.05488,-0.12804 -0.05488,-0.16464c2.34152,-1.78053 3.55192,-2.67079 3.6312,-2.67079zM51.30812,154.63754c-0.03658,0.2439 -0.09146,1.13112 -0.16463,2.66165l2.03968,0.45734c0.48782,-1.52443 0.73172,-2.33848 0.73172,-2.44214c-1.62199,-0.48782 -2.49092,-0.73172 -2.60677,-0.73172z" data-paper-data="{&quot;origPos&quot;:null}" fill="#000000" stroke="none" stroke-width="0.26458" stroke-linecap="butt"/><path d="M63.08891,151.28075l0.06403,0.11891l-1.23479,6.54896h0.06403l3.14641,-0.92381v-3.70435c0.0122,-0.08537 0.05183,-0.12806 0.1189,-0.12806c2.36592,0.16464 3.68303,0.24695 3.95133,0.24695c0,0.04269 0.02134,0.06403 0.06403,0.06403c0,1.04271 -0.32928,3.20435 -0.98784,6.48493c0,0.18903 -0.94515,0.33232 -2.83543,0.42988c-0.09757,-0.11586 -0.17989,-0.36282 -0.24695,-0.74088c-2.42079,0.49391 -3.80193,0.74088 -4.1434,0.74088c-1.93297,-1.43906 -2.89946,-2.17994 -2.89946,-2.22262c0.32928,-4.32328 0.5366,-6.56724 0.62197,-6.73188h0.05488c1.54272,-0.04269 2.96349,-0.10366 4.26231,-0.18293z" data-paper-data="{&quot;origPos&quot;:null}" fill="#000000" stroke="none" stroke-width="0.26458" stroke-linecap="butt"/><path d="M78.42772,151.28989c2.75008,0.5183 4.18914,0.81403 4.31718,0.88721v0.10976c-0.59148,1.67078 -0.88721,2.53665 -0.88721,2.59762h-0.05488c-0.15244,0 -0.89026,-0.23781 -2.21346,-0.71343c-0.73783,1.23783 -1.10674,1.89944 -1.10674,1.9848l1.82931,1.77444c1.41466,-1.32931 2.1342,-1.99396 2.1586,-1.99396c1.10368,1.44515 1.65552,2.25615 1.65552,2.43299c-0.60368,0.34757 -1.65552,1.03052 -3.15556,2.04883c-2.90252,-0.62806 -4.46963,-0.97869 -4.70134,-1.05185l-1.436,-4.64646z" data-paper-data="{&quot;origPos&quot;:null}" fill="#000000" stroke="none" stroke-width="0.26458" stroke-linecap="butt"/><path d="M86.43098,151.28075c3.62204,0.50001 5.43308,0.80795 5.43308,0.92381c1.42686,1.22565 2.14029,1.88114 2.14029,1.96651c-0.57928,1.81102 -0.90855,2.91166 -0.98783,3.30191c0.57928,1.28662 0.90855,2.05494 0.98783,2.30495c0,0.07317 -0.94515,0.2683 -2.83544,0.58537c-0.02439,-0.10366 -0.19818,-0.33538 -0.52136,-0.69514c-2.60983,0.50001 -4.01534,0.75002 -4.21658,0.75002l-1.39028,-3.75924l3.0641,-1.61895c0.49391,0.07928 1.26528,0.11891 2.31409,0.11891c0,-0.13415 0.01829,-0.53965 0.05488,-1.2165c-0.17683,0 -1.75614,0.11586 -4.73794,0.34758l-0.05488,-0.1189c0.41464,-1.92688 0.66465,-2.89032 0.75002,-2.89032zM88.33347,156.65894c0,0.06707 0.19513,0.7805 0.58537,2.14029h0.05488c0.76832,-0.50001 1.15247,-0.8293 1.15247,-0.98784l0.11892,-0.97869c-0.14634,0 -0.78356,-0.05792 -1.91163,-0.17378z" data-paper-data="{&quot;origPos&quot;:null}" fill="#000000" stroke="none" stroke-width="0.26458" stroke-linecap="butt"/><path d="M103.00458,151.28075l3.04581,2.09457c-0.21341,3.47569 -0.36281,5.50623 -0.44818,6.09162c-0.35367,0.04269 -1.42992,0.10672 -3.22874,0.19207l-0.06403,-0.12806l-0.32013,-4.88428l-0.12806,-0.06403c-1.16467,0.25001 -1.96651,0.43904 -2.40555,0.56708c0.12195,2.07932 0.18292,3.5824 0.18292,4.50926c-1.81713,0.50611 -2.81105,0.75917 -2.98178,0.75917c-1.18296,-5.20745 -1.77444,-7.95753 -1.77444,-8.25022c2.57325,-0.33538 3.96962,-0.50307 4.18914,-0.50307v0.06403c0.04269,0.03049 0.10672,0.66465 0.19207,1.90248c2.35981,-1.56712 3.6068,-2.35067 3.74095,-2.35067z" data-paper-data="{&quot;origPos&quot;:null}" fill="#000000" stroke="none" stroke-width="0.26458" stroke-linecap="butt"/><path d="M119.72453,151.28075l3.04581,2.09457c-0.21341,3.47569 -0.36281,5.50623 -0.44818,6.09162c-0.35367,0.04269 -1.42992,0.10672 -3.22874,0.19207l-0.06403,-0.12806l-0.32013,-4.88428l-0.12806,-0.06403c-1.16467,0.25001 -1.96651,0.43904 -2.40555,0.56708c0.12195,2.07932 0.18292,3.5824 0.18292,4.50926c-1.81713,0.50611 -2.81105,0.75917 -2.98178,0.75917c-1.18296,-5.20745 -1.77444,-7.95753 -1.77444,-8.25022c2.57325,-0.33538 3.96962,-0.50307 4.18914,-0.50307v0.06403c0.04269,0.03049 0.10671,0.66465 0.19207,1.90248c2.35981,-1.56712 3.6068,-2.35067 3.74095,-2.35067z" data-paper-data="{&quot;origPos&quot;:null}" fill="#000000" stroke="none" stroke-width="0.26458" stroke-linecap="butt"/><path d="M127.36192,151.28989c2.31713,0.62197 3.54583,1.00003 3.68607,1.13418c1.27442,1.80493 1.9909,2.84458 2.14945,3.11899c-0.8232,2.60983 -1.29576,3.91473 -1.41771,3.91473c-2.74397,0.64026 -4.17999,0.96039 -4.30804,0.96039c-2.26835,-1.3232 -3.4757,-2.06102 -3.62204,-2.21346c-0.07928,-2.46347 -0.11892,-3.82327 -0.11892,-4.07937c-0.0366,-0.07317 -0.05488,-0.12804 -0.05488,-0.16464c2.34153,-1.78053 3.55192,-2.67079 3.6312,-2.67079zM127.18814,154.63754c-0.0366,0.2439 -0.09146,1.13112 -0.16464,2.66165l2.03968,0.45734c0.48782,-1.52443 0.73173,-2.33848 0.73173,-2.44214c-1.62199,-0.48782 -2.49093,-0.73172 -2.60677,-0.73172z" data-paper-data="{&quot;origPos&quot;:null}" fill="#000000" stroke="none" stroke-width="0.26458" stroke-linecap="butt"/><path d="M138.04513,151.28075c0.07928,0.10366 0.49087,1.87199 1.23479,5.30501h0.06403c0,-0.07928 0.45122,-0.77746 1.35369,-2.09457c0.37807,0.2561 1.09759,0.81101 2.1586,1.66468h0.12805v-0.06403c0.16464,-2.37811 0.28659,-3.69522 0.36587,-3.95133c2.51227,0.12805 3.76838,0.23172 3.76838,0.31099c-1.15248,4.63427 -1.76834,7.04286 -1.84761,7.2258c-0.38416,0.04269 -1.18905,0.16464 -2.41469,0.36587c-1.00612,-1.57932 -1.58236,-2.42079 -1.72871,-2.52445c-0.65855,1.75615 -1.07015,2.72263 -1.23479,2.89946h-2.46958c-0.15244,-0.04878 -0.87198,-1.63418 -2.1586,-4.75622c-0.8232,-1.74395 -1.23479,-2.68911 -1.23479,-2.83544c0,-0.13415 1.33845,-0.64941 4.01534,-1.54577z" data-paper-data="{&quot;origPos&quot;:null}" fill="#000000" stroke="none" stroke-width="0.26458" stroke-linecap="butt"/><path d="M156.31999,151.28075c1.49394,3.42692 2.28969,5.20441 2.38725,5.33245c0.73782,-2.79886 1.16771,-4.28975 1.28967,-4.47267c2.32933,0.21341 3.494,0.39635 3.494,0.54879v0.06403c-1.63419,4.48792 -2.51227,6.83859 -2.63422,7.05201c-1.80493,0.32927 -3.01227,0.53356 -3.62204,0.61282l-4.47268,-6.62212v-0.12806c0.04269,-0.07928 1.2287,-0.87503 3.55803,-2.38726z" data-paper-data="{&quot;origPos&quot;:null}" fill="#000000" stroke="none" stroke-width="0.26458" stroke-linecap="butt"/><path d="M165.73182,147.61297l3.59461,0.56708c-0.45122,1.72565 -0.74697,2.58848 -0.88721,2.58848c-1.8903,-0.12805 -2.83543,-0.25306 -2.83543,-0.37501v-2.65251c0.01829,-0.08537 0.06098,-0.12806 0.12806,-0.12806zM164.72571,151.96674h0.05488c2.78056,0.50611 4.17084,0.80186 4.17084,0.88722c-0.7988,4.52451 -1.28357,7.04591 -1.45431,7.56422h-2.89946c-0.08537,0 -0.12805,-0.04268 -0.12805,-0.12805z" data-paper-data="{&quot;origPos&quot;:null}" fill="#000000" stroke="none" stroke-width="0.26458" stroke-linecap="butt"/><path d="M177.00956,151.28075c1.75614,1.12198 2.72568,1.76833 2.9086,1.93908c-0.63416,1.40858 -0.99697,2.11286 -1.08844,2.11286l-3.32936,-1.92993h-0.1189c0,0.06098 -0.14329,0.40245 -0.42988,1.02442c3.06716,1.65249 4.60073,2.50007 4.60073,2.54275c-0.85978,1.98785 -1.34455,3.03666 -1.45432,3.14641l-5.2044,0.30184c-2.02445,-1.34151 -3.1129,-2.04883 -3.26534,-2.12201v-0.05488c0,-0.15244 0.30184,-0.83844 0.90552,-2.05797l4.06108,2.11285l0.30184,-1.20735c-2.51227,-1.12807 -4.0062,-1.83237 -4.48182,-2.11286v-0.12805c0,-0.23172 0.48477,-1.25917 1.45432,-3.08239z" data-paper-data="{&quot;origPos&quot;:null}" fill="#000000" stroke="none" stroke-width="0.26458" stroke-linecap="butt"/><path d="M182.08591,147.61297l3.59461,0.56708c-0.45122,1.72565 -0.74697,2.58848 -0.88721,2.58848c-1.8903,-0.12805 -2.83543,-0.25306 -2.83543,-0.37501v-2.65251c0.01829,-0.08537 0.06098,-0.12806 0.12806,-0.12806zM181.07978,151.96674h0.05489c2.78056,0.50611 4.17083,0.80186 4.17083,0.88722c-0.7988,4.52451 -1.28356,7.04591 -1.45431,7.56422h-2.89947c-0.08537,0 -0.12805,-0.04268 -0.12805,-0.12805z" data-paper-data="{&quot;origPos&quot;:null}" fill="#000000" stroke="none" stroke-width="0.26458" stroke-linecap="butt"/><path d="M188.71719,148.51849l4.0245,0.71343l-0.38415,3.05496c0.7988,-0.04269 1.38417,-0.06403 1.75614,-0.06403h0.58539l0.12806,-0.06403l0.06403,0.12806c-0.12805,1.8537 -0.23781,2.89641 -0.32927,3.12813l-0.12805,-0.07317c-0.09146,0 -0.91466,-0.04269 -2.46958,-0.12806c-0.08537,1.43297 -0.1494,3.14642 -0.19207,5.14038l-0.12806,0.06403c-1.96346,-0.12805 -3.13422,-0.23781 -3.51229,-0.32927l0.06403,-0.2561c0,-0.53051 0.08537,-2.17688 0.2561,-4.93914c-1.64639,-0.09146 -2.46958,-0.20123 -2.46958,-0.32927c0.08537,-2.03663 0.19512,-3.05496 0.32927,-3.05496l2.40556,0.45733v-0.78661c0,-0.64026 -0.0244,-1.50615 -0.07318,-2.59762c0.04878,0 0.07318,-0.02134 0.07318,-0.06403z" data-paper-data="{&quot;origPos&quot;:null}" fill="#000000" stroke="none" stroke-width="0.26458" stroke-linecap="butt"/><path d="M207.69633,148.51849c2.19519,1.10978 3.32327,1.66467 3.38424,1.66467c0,0.09757 -0.45734,0.97869 -1.37199,2.64336h-0.06401c-0.07316,0 -1.12501,-0.49696 -3.15556,-1.49089l-1.03356,1.38114c1.75005,0.84149 3.87509,1.91468 6.37516,3.21959c-1.13417,2.01834 -1.93906,3.35985 -2.4147,4.02448l-5.16781,0.45733c-2.35981,-1.5915 -3.6068,-2.41469 -3.74095,-2.46958v-0.06403c0,-0.17075 0.47867,-0.9543 1.43601,-2.35067h0.1189c0.37805,0.22561 1.56406,0.87503 3.55802,1.94823l1.20735,-1.37199c-3.66473,-1.8659 -5.69527,-2.92081 -6.09162,-3.16473v-0.05488c1.16467,-2.26835 1.79884,-3.41777 1.9025,-3.44826c3.03056,-0.61587 4.71658,-0.92381 5.05804,-0.92381z" data-paper-data="{&quot;origPos&quot;:null}" fill="#2b70c2" stroke="none" stroke-width="0.26458" stroke-linecap="butt"/><path d="M216.89779,148.51849c0.03658,0.05489 0.20732,1.72564 0.51221,5.01232c2.35372,-0.71954 3.60681,-1.0793 3.75925,-1.0793l2.33238,1.5915c-0.37806,3.47571 -0.62502,5.50625 -0.74088,6.09162l-3.23789,0.10976c0,-0.0366 -0.02135,-0.05489 -0.06402,-0.05489l0.06402,-0.22867c0,-0.49391 0.07317,-1.99396 0.21952,-4.50012c-0.89028,-0.0366 -1.55188,-0.05489 -1.98481,-0.05489h-0.22867c0.2622,2.78665 0.3933,4.30498 0.3933,4.55499l-3.07324,0.45733c-0.11586,-0.39025 -0.79881,-4.03365 -2.04883,-10.93016c0,-0.19512 0.47562,-0.34756 1.42686,-0.45733c1.20125,-0.34147 2.09151,-0.51221 2.67079,-0.51221z" data-paper-data="{&quot;origPos&quot;:null}" fill="#2b70c2" stroke="none" stroke-width="0.26458" stroke-linecap="butt"/><path d="M225.62364,147.61297l3.59461,0.56708c-0.45124,1.72565 -0.74697,2.58848 -0.88723,2.58848c-1.89029,-0.12805 -2.83543,-0.25306 -2.83543,-0.37501v-2.65251c0.01829,-0.08537 0.06096,-0.12806 0.12803,-0.12806zM224.61752,151.96674h0.05487c2.78056,0.50611 4.17085,0.80186 4.17085,0.88722c-0.7988,4.52451 -1.28358,7.04591 -1.45431,7.56422h-2.89946c-0.08535,0 -0.12803,-0.04268 -0.12803,-0.12805z" data-paper-data="{&quot;origPos&quot;:null}" fill="#2b70c2" stroke="none" stroke-width="0.26458" stroke-linecap="butt"/><path d="M234.11164,151.28989c0.18903,0.78052 0.32013,1.26222 0.3933,1.44516c2.6952,-0.61587 4.11901,-0.9238 4.27146,-0.9238c1.83542,2.64031 2.75312,4.01839 2.75312,4.13425l-2.10371,4.46353l-4.52756,-0.72258v0.1372c0.35367,2.71348 0.53051,4.1556 0.53051,4.32633c-0.04267,0 -0.06402,0.02134 -0.06402,0.06403c-0.43902,-0.04269 -0.7683,-0.06403 -0.98782,-0.06403h-0.7866c-0.45733,0 -1.15856,-0.02134 -2.10371,-0.06403c-0.08535,-0.2561 -0.74086,-4.14951 -1.96652,-11.68019c0.20732,-0.08537 1.73785,-0.45733 4.59157,-1.11587zM234.44093,155.03084c0.12195,1.40248 0.23171,2.10371 0.32927,2.10371c1.25002,0.43293 2.01529,0.6494 2.29578,0.6494l0.72258,-3.14641h-0.06402c-0.71343,0.04269 -1.80798,0.17378 -3.28362,0.3933z" data-paper-data="{&quot;origPos&quot;:null}" fill="#2b70c2" stroke="none" stroke-width="0.26458" stroke-linecap="butt"/><path d="M246.48699,151.28075c0.07925,0.10366 0.49086,1.87199 1.23479,5.30501h0.06402c0,-0.07928 0.45124,-0.77746 1.3537,-2.09457c0.37805,0.2561 1.09759,0.81101 2.15858,1.66468h0.12803v-0.06403c0.16464,-2.37811 0.28659,-3.69522 0.36587,-3.95133c2.51226,0.12805 3.76838,0.23172 3.76838,0.31099c-1.15248,4.63427 -1.76833,7.04286 -1.84761,7.2258c-0.38416,0.04269 -1.18906,0.16464 -2.4147,0.36587c-1.00612,-1.57932 -1.58236,-2.42079 -1.7287,-2.52445c-0.65855,1.75615 -1.07014,2.72263 -1.23477,2.89946h-2.46958c-0.15244,-0.04878 -0.87198,-1.63418 -2.1586,-4.75622c-0.8232,-1.74395 -1.23479,-2.68911 -1.23479,-2.83544c0,-0.13415 1.33845,-0.64941 4.01535,-1.54577z" data-paper-data="{&quot;origPos&quot;:null}" fill="#2b70c2" stroke="none" stroke-width="0.26458" stroke-linecap="butt"/><path d="M263.1246,151.28075c1.20734,0.67685 1.94822,1.11588 2.22262,1.31711c-0.98784,2.05494 -1.51833,3.10069 -1.5915,3.13727h-0.06402l-1.30795,-1.14333l-1.54577,1.8842l0.17378,3.42996c-0.07925,0.07317 -1.08843,0.2439 -3.02752,0.51221c-0.07316,-0.5244 -0.54878,-3.09459 -1.42686,-7.71057c0,-0.07317 1.27443,-0.26219 3.82327,-0.56708c0.04267,0.04878 0.15853,0.61892 0.34757,1.71041c1.52443,-1.71347 2.32323,-2.57019 2.3964,-2.57019z" data-paper-data="{&quot;origPos&quot;:null}" fill="#2b70c2" stroke="none" stroke-width="0.26458" stroke-linecap="butt"/><path d="M271.25592,151.28989c2.76226,1.42077 4.2928,2.25006 4.59159,2.48787c-0.39635,1.8537 -0.63111,2.808 -0.70429,2.86289h-5.78064v0.10061l1.61895,2.00311l2.54274,-1.29882c0.25001,0.43293 0.60977,1.18905 1.0793,2.26835c-0.21952,0.07317 -1.82017,0.30793 -4.80195,0.70428c-2.46958,-1.6281 -3.71352,-2.47567 -3.73181,-2.54275c0.39634,-3.16473 0.63111,-4.74707 0.70429,-4.74707c2.57933,-1.09759 4.07326,-1.71042 4.48182,-1.83847zM270.6614,153.50337c-0.04877,0.12195 -0.37196,0.60672 -0.96955,1.45431c0,0.2561 0.35976,0.38416 1.0793,0.38416c0,0.0366 0.52136,0.12501 1.56406,0.26525c0.28661,-0.39635 0.4299,-0.62806 0.4299,-0.69514c-0.09145,-0.54271 -0.28963,-0.81404 -0.59453,-0.81404z" data-paper-data="{&quot;origPos&quot;:null}" fill="#2b70c2" stroke="none" stroke-width="0.26458" stroke-linecap="butt"/><path d="M280.27446,151.28989c2.75008,0.5183 4.18913,0.81403 4.31718,0.88721v0.10976c-0.59148,1.67078 -0.88722,2.53665 -0.88722,2.59762h-0.05487c-0.15244,0 -0.89026,-0.23781 -2.21347,-0.71343c-0.73782,1.23783 -1.10675,1.89944 -1.10675,1.9848l1.82932,1.77444c1.41467,-1.32931 2.13421,-1.99396 2.1586,-1.99396c1.10368,1.44515 1.65552,2.25615 1.65552,2.43299c-0.60368,0.34757 -1.65554,1.03052 -3.15557,2.04883c-2.9025,-0.62806 -4.46962,-0.97869 -4.70134,-1.05185l-1.43601,-4.64646z" data-paper-data="{&quot;origPos&quot;:null}" fill="#2b70c2" stroke="none" stroke-width="0.26458" stroke-linecap="butt"/><path d="M290.92107,148.51849c0.08535,0.2439 0.27743,1.97262 0.57623,5.1861l2.74397,-3.07325h0.06401c0.42685,0.35367 1.21649,1.10065 2.36896,2.24092v0.06402l-2.62506,2.16774c1.97566,1.3232 3.02142,2.07017 3.13728,2.24092c-1.24394,1.38417 -1.99091,2.17384 -2.24092,2.36896l-3.19216,-2.94521c0.12806,1.31711 0.19209,2.29884 0.19209,2.94521c-0.15244,0.08537 -1.28357,0.32012 -3.39339,0.70428c-0.17073,-0.85369 -0.72562,-4.52147 -1.66467,-11.00334c0.39025,-0.12805 1.73479,-0.42684 4.03364,-0.89637z" data-paper-data="{&quot;origPos&quot;:null}" fill="#2b70c2" stroke="none" stroke-width="0.26458" stroke-linecap="butt"/><path d="M309.80876,148.51849c2.19518,1.10978 3.32325,1.66467 3.38423,1.66467c0,0.09757 -0.45733,0.97869 -1.37199,2.64336h-0.06401c-0.07316,0 -1.12501,-0.49696 -3.15557,-1.49089l-1.03356,1.38114c1.75005,0.84149 3.87509,1.91468 6.37516,3.21959c-1.13417,2.01834 -1.93906,3.35985 -2.41468,4.02448l-5.16783,0.45733c-2.35982,-1.5915 -3.6068,-2.41469 -3.74095,-2.46958v-0.06403c0,-0.17075 0.47867,-0.9543 1.43602,-2.35067h0.11888c0.37806,0.22561 1.56409,0.87503 3.55803,1.94823l1.20734,-1.37199c-3.66472,-1.8659 -5.69526,-2.92081 -6.09162,-3.16473v-0.05488c1.16467,-2.26835 1.79883,-3.41777 1.90249,-3.44826c3.03056,-0.61587 4.71659,-0.92381 5.05806,-0.92381z" data-paper-data="{&quot;origPos&quot;:null}" fill="#2b70c2" stroke="none" stroke-width="0.26458" stroke-linecap="butt"/><path d="M318.50714,151.28989c2.75007,0.5183 4.18912,0.81403 4.31718,0.88721v0.10976c-0.59148,1.67078 -0.88722,2.53665 -0.88722,2.59762h-0.05487c-0.15244,0 -0.89026,-0.23781 -2.21348,-0.71343c-0.73782,1.23783 -1.10673,1.89944 -1.10673,1.9848l1.82932,1.77444c1.41467,-1.32931 2.13421,-1.99396 2.15859,-1.99396c1.1037,1.44515 1.65554,2.25615 1.65554,2.43299c-0.60368,0.34757 -1.65554,1.03052 -3.15557,2.04883c-2.90251,-0.62806 -4.46964,-0.97869 -4.70134,-1.05185l-1.436,-4.64646z" data-paper-data="{&quot;origPos&quot;:null}" fill="#2b70c2" stroke="none" stroke-width="0.26458" stroke-linecap="butt"/><path d="M331.68737,151.28075c1.20734,0.67685 1.94823,1.11588 2.22262,1.31711c-0.98784,2.05494 -1.51833,3.10069 -1.5915,3.13727h-0.06402l-1.30796,-1.14333l-1.54576,1.8842l0.17379,3.42996c-0.07925,0.07317 -1.08843,0.2439 -3.02752,0.51221c-0.07316,-0.5244 -0.54878,-3.09459 -1.42686,-7.71057c0,-0.07317 1.27443,-0.26219 3.82327,-0.56708c0.04267,0.04878 0.15853,0.61892 0.34756,1.71041c1.52443,-1.71347 2.32323,-2.57019 2.39641,-2.57019z" data-paper-data="{&quot;origPos&quot;:null}" fill="#2b70c2" stroke="none" stroke-width="0.26458" stroke-linecap="butt"/><path d="M336.02283,151.28075c3.62205,0.50001 5.43308,0.80795 5.43308,0.92381c1.42686,1.22565 2.14029,1.88114 2.14029,1.96651c-0.57928,1.81102 -0.90855,2.91166 -0.98782,3.30191c0.57928,1.28662 0.90855,2.05494 0.98782,2.30495c0,0.07317 -0.94515,0.2683 -2.83544,0.58537c-0.02438,-0.10366 -0.19818,-0.33538 -0.52136,-0.69514c-2.60983,0.50001 -4.01535,0.75002 -4.21658,0.75002l-1.39026,-3.75924l3.0641,-1.61895c0.49391,0.07928 1.26526,0.11891 2.31408,0.11891c0,-0.13415 0.01829,-0.53965 0.05487,-1.2165c-0.17683,0 -1.75614,0.11586 -4.73793,0.34758l-0.05487,-0.1189c0.41465,-1.92688 0.66466,-2.89032 0.75002,-2.89032zM337.92534,156.65894c0,0.06707 0.19513,0.7805 0.58537,2.14029h0.05487c0.76831,-0.50001 1.15247,-0.8293 1.15247,-0.98784l0.11888,-0.97869c-0.14634,0 -0.78355,-0.05792 -1.91163,-0.17378z" data-paper-data="{&quot;origPos&quot;:null}" fill="#2b70c2" stroke="none" stroke-width="0.26458" stroke-linecap="butt"/><path d="M344.47428,148.52763c1.8659,0.0366 3.23484,0.05489 4.10682,0.05489c0.07925,0 0.32011,3.74401 0.72258,11.232c-0.31099,0.07928 -1.39638,0.2805 -3.25619,0.60368c-0.09145,0 -0.39328,-2.29275 -0.9055,-6.87823c-0.04267,-0.10976 -0.26524,-1.78054 -0.6677,-5.01233z" data-paper-data="{&quot;origPos&quot;:null}" fill="#2b70c2" stroke="none" stroke-width="0.26458" stroke-linecap="butt"/><path d="M351.71837,151.28075c3.62204,0.50001 5.43306,0.80795 5.43306,0.92381c1.42687,1.22565 2.14031,1.88114 2.14031,1.96651c-0.57928,1.81102 -0.90856,2.91166 -0.98784,3.30191c0.57928,1.28662 0.90856,2.05494 0.98784,2.30495c0,0.07317 -0.94515,0.2683 -2.83544,0.58537c-0.02438,-0.10366 -0.19818,-0.33538 -0.52136,-0.69514c-2.60983,0.50001 -4.01534,0.75002 -4.21657,0.75002l-1.39028,-3.75924l3.0641,-1.61895c0.49392,0.07928 1.26528,0.11891 2.31409,0.11891c0,-0.13415 0.01829,-0.53965 0.05487,-1.2165c-0.17683,0 -1.75615,0.11586 -4.73793,0.34758l-0.05487,-0.1189c0.41465,-1.92688 0.66465,-2.89032 0.75002,-2.89032zM353.62085,156.65894c0,0.06707 0.19512,0.7805 0.58539,2.14029h0.05487c0.76831,-0.50001 1.15248,-0.8293 1.15248,-0.98784l0.11888,-0.97869c-0.14634,0 -0.78357,-0.05792 -1.91165,-0.17378z" data-paper-data="{&quot;origPos&quot;:null}" fill="#2b70c2" stroke="none" stroke-width="0.26458" stroke-linecap="butt"/><path d="M366.67303,151.28075h0.03658c1.62809,0.95735 2.50617,1.45735 2.63422,1.50003v0.08232c-0.42073,0.48173 -1.19516,1.31711 -2.32324,2.50616c2.21346,0.8232 3.4574,1.32016 3.73181,1.49089l-2.06714,2.5519c-1.39637,-1.19516 -2.28663,-1.94213 -2.67079,-2.24092c-0.94515,1.84151 -1.53358,2.92386 -1.7653,3.24704h-0.03658c-1.75004,-0.61587 -2.7013,-0.98173 -2.85374,-1.09759v-0.04574l2.41469,-3.15556c-2.24396,-0.92686 -3.4452,-1.46955 -3.60375,-1.6281c0.98784,-1.67687 1.54272,-2.57018 1.66467,-2.67994c0.01829,0.04269 1.10368,0.78966 3.25619,2.24092c0.76223,-1.40858 1.28967,-2.33238 1.58236,-2.77142z" data-paper-data="{&quot;origPos&quot;:null}" fill="#2b70c2" stroke="none" stroke-width="0.26458" stroke-linecap="butt"/><path d="M375.79218,151.29905c0.08535,0.0122 0.12803,0.05488 0.12803,0.12806l-0.95126,5.26844c1.81712,-0.21341 2.72568,-0.38416 2.72568,-0.51221c0.34147,-2.1098 0.57624,-3.29277 0.70429,-3.54887c2.25006,0.46343 3.49705,0.73783 3.74095,0.82319c-1.31101,4.50621 -2.03054,6.85383 -2.15858,7.04286c-2.29275,1.6098 -3.5824,2.50007 -3.86901,2.67079c-0.08535,0 -1.54576,-0.35976 -4.38121,-1.0793v-0.06403c0.75001,-1.65248 1.21649,-2.47873 1.39943,-2.47873l2.78971,1.39943l1.3354,-2.28664c-1.20125,0.29879 -1.89945,0.44819 -2.09457,0.44819l-3.55802,-1.84762c0.43295,-3.97571 0.70734,-5.96356 0.8232,-5.96356z" data-paper-data="{&quot;origPos&quot;:null}" fill="#2b70c2" stroke="none" stroke-width="0.26458" stroke-linecap="butt"/><path d="M387.06077,148.8569l0.03658,0.07317c-0.60977,5.38428 -0.95124,8.21363 -1.02441,8.48803c-1.29271,-0.12195 -2.10981,-0.20732 -2.45128,-0.2561v-0.0366l-0.58539,-7.64654c0.14634,-0.04878 1.48785,-0.2561 4.0245,-0.62197zM383.43872,157.60103c0.04267,0.02439 0.99393,0.09757 2.85374,0.21952l0.03658,0.07317c-0.28659,1.68297 -0.46952,2.52445 -0.5488,2.52445h-2.12201c-0.07316,0 -0.17073,-0.84149 -0.29269,-2.52445c-0.02438,0 -0.03658,-0.07317 -0.03658,-0.21952c0.07316,-0.02438 0.10974,-0.04878 0.10974,-0.07317z" data-paper-data="{&quot;origPos&quot;:null}" fill="#000000" stroke="none" stroke-width="0.26458" stroke-linecap="butt"/></g></g></svg>