<svg version="1.1" xmlns="http://www.w3.org/2000/svg" xmlns:xlink="http://www.w3.org/1999/xlink" width="201" height="99" viewBox="0,0,201,99"><g transform="translate(-146,-110.5)"><g data-paper-data="{&quot;isPaintingLayer&quot;:true}" fill-rule="nonzero" stroke-linejoin="miter" stroke-miterlimit="10" stroke-dasharray="" stroke-dashoffset="0" style="mix-blend-mode: normal"><path d="M246.5,112.5c27.175,0 51.8,5.323 69.632,13.921c17.831,8.599 28.868,20.474 28.868,33.579c0,13.105 -11.037,24.98 -28.868,33.579c-17.832,8.598 -42.457,13.921 -69.632,13.921c-27.175,0 -51.8,-5.323 -69.632,-13.921c-17.831,-8.599 -28.868,-20.474 -28.868,-33.579c0,-13.105 11.037,-24.98 28.868,-33.579c17.832,-8.598 42.457,-13.921 69.632,-13.921z" fill="#ffffff" stroke="#bdeaff" stroke-width="4" stroke-linecap="round"/><path d="M201.5,144c1.793,0 3.418,1.681 4.595,4.396c1.177,2.716 1.905,6.466 1.905,10.604c0,4.138 -0.728,7.888 -1.905,10.604c-1.177,2.715 -2.802,4.396 -4.595,4.396c-1.793,0 -3.418,-1.681 -4.595,-4.396c-1.177,-2.716 -1.905,-6.466 -1.905,-10.604c0,-4.138 0.728,-7.888 1.905,-10.604c1.177,-2.715 2.802,-4.396 4.595,-4.396z" fill="#000000" stroke="none" stroke-width="1" stroke-linecap="butt"/><path d="M228,144c1.793,0 3.418,1.681 4.595,4.396c1.177,2.716 1.905,6.466 1.905,10.604c0,4.138 -0.728,7.888 -1.905,10.604c-1.177,2.715 -2.802,4.396 -4.595,4.396c-1.793,0 -3.418,-1.681 -4.595,-4.396c-1.177,-2.716 -1.905,-6.466 -1.905,-10.604c0,-4.138 0.728,-7.888 1.905,-10.604c1.177,-2.715 2.802,-4.396 4.595,-4.396z" fill="#000000" stroke="none" stroke-width="1" stroke-linecap="butt"/></g></g></svg>