<svg version="1.1" xmlns="http://www.w3.org/2000/svg" xmlns:xlink="http://www.w3.org/1999/xlink" width="652" height="362" viewBox="0,0,652,362"><defs><linearGradient x1="240" y1="-1" x2="240" y2="361.00001" gradientUnits="userSpaceOnUse" id="color-1"><stop offset="0" stop-color="#2b5cac"/><stop offset="1" stop-color="#336aca"/></linearGradient><linearGradient x1="240" y1="-1" x2="240" y2="361.00001" gradientUnits="userSpaceOnUse" id="color-2"><stop offset="0" stop-color="#2b5cac"/><stop offset="1" stop-color="#336aca"/></linearGradient><linearGradient x1="182.09799" y1="-0.64162" x2="182.09799" y2="59.64171" gradientUnits="userSpaceOnUse" id="color-3"><stop offset="0" stop-color="#3672d9"/><stop offset="1" stop-color="#3d85f3"/></linearGradient></defs><g transform="translate(86,1)"><g data-paper-data="{&quot;isPaintingLayer&quot;:true}" fill-rule="nonzero" stroke-linejoin="miter" stroke-miterlimit="10" stroke-dasharray="" stroke-dashoffset="0" style="mix-blend-mode: normal"><path d="M-86,-1h652v66h-652z" fill="url(#color-1)" stroke="none" stroke-width="1.00627" stroke-linecap="butt"/><path d="M-86,275h652v86h-652z" fill="url(#color-2)" stroke="none" stroke-width="1.00627" stroke-linecap="butt"/><path d="M381.19598,-0.64162l-22.35669,60.28323h-444.83927l3,-60.1323z" fill="url(#color-3)" stroke="#000000" stroke-width="0" stroke-linecap="round"/><g fill="#ffffff" stroke="#2c6eb0" stroke-width="7.5" stroke-linecap="butt"><path d="M85.56577,20.21104c0,0.13428 1.42261,2.81843 4.26784,8.05252c-2.50969,8.40149 -3.93231,12.9042 -4.26784,13.50814l-9.11949,1.95273c-4.89864,-2.71103 -7.5023,-4.25441 -7.81095,-4.63022c-0.16104,-1.89231 -0.4429,-7.2137 -0.84551,-15.96417c4.63022,-3.0868 7.55598,-4.95227 8.77726,-5.59649c0,0 8.87789,2.43591 8.99869,2.67748zM78.13726,24.47889l-3.76457,3.90547c0.32209,4.05312 0.48314,6.52927 0.48314,7.42847c0.09393,0 0.9059,0.56366 2.43588,1.69103c2.02657,-0.4429 3.03981,-0.765 3.03981,-0.96632l2.31511,-7.91161c-0.61735,-1.87892 -1.14076,-2.81838 -1.57026,-2.81838z"/><path d="M101.40912,17.79535c0,0.76499 0.17449,3.72429 0.52342,8.87792c4.80467,-1.52998 7.49559,-2.33525 8.07269,-2.41577l7.24729,7.79084c-3.04656,6.83123 -4.70404,10.45489 -4.97246,10.87095c-0.84551,-0.094 -3.93231,-0.22825 -9.26044,-0.40265v0.94618c0,0.17452 -0.09396,0.26179 -0.28185,0.26179h-7.79084c-0.28185,0 -0.81867,-4.02627 -1.6105,-12.07879c-0.17449,-0.68447 -0.66433,-4.71745 -1.4696,-12.09897c4.5631,-1.07368 7.69688,-1.74471 9.40135,-2.01312zM102.61701,32.30997l0.52342,4.97246h4.04642l1.4696,-5.63678c-4.02628,0.34893 -6.03939,0.5704 -6.03939,0.66432z"/><path d="M140.20226,15.19831l7.93175,1.24817c-0.99315,3.81155 -1.64404,5.7173 -1.95273,5.7173c-4.17389,-0.28185 -6.26087,-0.56366 -6.26087,-0.84551v-5.8381c0.02684,-0.18777 0.12077,-0.28166 0.28185,-0.28166zM137.96767,23.69376l9.60267,2.4963c-1.94603,11.27356 -3.01298,17.25928 -3.20087,17.95714c-0.41606,0.37581 -3.84509,2.09368 -10.28714,5.15364c-5.1268,-2.41577 -8.28068,-3.94575 -9.46173,-4.58994c-1.30181,-4.96575 -2.04669,-7.70362 -2.23458,-8.2136c0.18789,-0.18805 2.83183,-0.93289 7.93175,-2.23458c0,0.094 0.04698,0.14103 0.14091,0.14103c-0.09393,0.18777 -0.14091,0.32868 -0.14091,0.42276c0,0.63078 -0.18789,2.81169 -0.56366,6.54271c4.49602,-0.56366 7.1869,-0.93274 8.07269,-1.10723v-3.62366c0,-0.21476 -0.04028,-0.40265 -0.1208,-0.56366l0.1208,-0.28204c-0.08053,-0.16101 -0.1208,-0.3422 -0.1208,-0.54357h0.1208l-0.1208,-0.28165v-0.14103c0,-0.094 0.04028,-0.14102 0.1208,-0.14102l-0.1208,-0.28165v-0.14102c0,-0.094 0.04028,-0.14102 0.1208,-0.14102l-0.1208,-0.26179v-9.88452c0.02684,-0.18777 0.11407,-0.28165 0.26171,-0.28165z"/><path d="M161.74282,23.63334c6.07968,3.12708 9.44833,4.95235 10.10595,5.47573c-0.87235,4.07996 -1.38907,6.18034 -1.55011,6.30114h-12.72302v0.22127l3.56324,4.40876l5.59653,-2.85863c0.55026,0.95288 1.34209,2.61706 2.3755,4.99256c-0.48314,0.16101 -4.00614,0.67772 -10.56895,1.55011c-5.43545,-3.58338 -8.17332,-5.44889 -8.2136,-5.5965c0.87235,-6.96547 1.38907,-10.44818 1.55011,-10.44818c5.67706,-2.41573 8.96515,-3.76457 9.86438,-4.04642zM160.43427,28.50513c-0.10736,0.26845 -0.81867,1.33539 -2.13392,3.20091c0,0.56366 0.79184,0.84551 2.3755,0.84551c0,0.08053 1.1475,0.27512 3.44247,0.58381c0.63078,-0.87235 0.94618,-1.38234 0.94618,-1.52998c-0.20129,-1.19445 -0.63749,-1.79169 -1.30855,-1.79169z"/><path d="M181.59231,23.63334c6.05284,1.14077 9.22016,1.79169 9.50201,1.95277v0.24153c-1.30181,3.6773 -1.95273,5.58311 -1.95273,5.71731h-0.12081c-0.33554,0 -1.95943,-0.52343 -4.87179,-1.57027c-1.62395,2.72443 -2.43588,4.18062 -2.43588,4.36851l4.02627,3.90547c3.11365,-2.92576 4.69731,-4.38861 4.75099,-4.38861c2.42918,3.18076 3.64376,4.96572 3.64376,5.35493c-1.32866,0.76499 -3.64376,2.26813 -6.94533,4.50942c-6.38837,-1.38234 -9.8375,-2.15403 -10.34752,-2.31511l-3.16062,-10.22672z"/><path d="M202.16656,17.53356l8.85778,1.57026l-0.84551,6.72387c1.75815,-0.094 3.04657,-0.14102 3.86523,-0.14102h1.28842l0.28185,-0.14102l0.14091,0.28204c-0.28185,4.07996 -0.52342,6.37493 -0.72475,6.88492l-0.28185,-0.16089c-0.20129,0 -2.01312,-0.09389 -5.43545,-0.28165c-0.18789,3.15392 -0.32884,6.92519 -0.42276,11.31384l-0.28185,0.14102c-4.32153,-0.28185 -6.89835,-0.52342 -7.73042,-0.7247l0.14091,-0.5637c0,-1.16761 0.18789,-4.79123 0.56366,-10.87091c-3.62366,-0.20128 -5.43545,-0.44285 -5.43545,-0.72475c0.18789,-4.48258 0.42949,-6.72387 0.72475,-6.72387l5.29455,1.00656v-1.7313c0,-1.40918 -0.05368,-3.31497 -0.16104,-5.71731c0.10736,0 0.16104,-0.04702 0.16104,-0.14102z"/><path d="M220.6673,15.54053l7.91161,1.24817c-0.99315,3.79811 -1.64404,5.69716 -1.95273,5.69716c-4.16049,-0.28185 -6.24073,-0.55696 -6.24073,-0.82537v-5.83811c0.04024,-0.18777 0.13421,-0.28166 0.28185,-0.28166zM218.45286,25.12307h0.12081c6.11992,1.11393 9.17991,1.76485 9.17991,1.95273c-1.75815,9.95831 -2.82509,15.50786 -3.20091,16.64863h-6.38163c-0.18789,0 -0.28185,-0.09389 -0.28185,-0.28165z"/><path d="M237.07436,23.61324c3.28813,7.54254 5.03954,11.45471 5.25431,11.73656c1.62394,-6.1602 2.57011,-9.44159 2.83853,-9.84421c5.1268,0.4697 7.69018,0.87231 7.69018,1.20785v0.14103c-3.59682,9.87779 -5.52942,15.05152 -5.79783,15.52126c-3.9726,0.72471 -6.62994,1.17431 -7.97203,1.3488l-9.84424,-14.57509v-0.28204c0.09393,-0.17452 2.70428,-1.92594 7.83108,-5.25427z"/><path d="M266.42586,23.63334c6.07968,3.12708 9.44833,4.95235 10.10596,5.47573c-0.87235,4.07996 -1.38908,6.18034 -1.55012,6.30114h-12.72302v0.22127l3.56324,4.40876l5.59653,-2.85863c0.55026,0.95288 1.34209,2.61706 2.3755,4.99256c-0.48314,0.16101 -4.00615,0.67772 -10.56895,1.55011c-5.43545,-3.58338 -8.17332,-5.44889 -8.2136,-5.5965c0.87235,-6.96547 1.38908,-10.44818 1.55012,-10.44818c5.67706,-2.41573 8.96514,-3.76457 9.86434,-4.04642zM265.11731,28.50513c-0.10736,0.26845 -0.81867,1.33539 -2.13392,3.20091c0,0.56366 0.79183,0.84551 2.37549,0.84551c0,0.08053 1.1475,0.27512 3.44247,0.58381c0.63078,-0.87235 0.94618,-1.38234 0.94618,-1.52998c-0.20129,-1.19445 -0.63749,-1.79169 -1.30855,-1.79169z"/><path d="M294.60977,23.61324c3.86523,2.46942 5.99915,3.89203 6.40177,4.26784c-1.39578,3.1002 -2.19431,4.65032 -2.39564,4.65032l-7.3278,-4.2477h-0.26171c0,0.13428 -0.31539,0.88583 -0.94618,2.25472c6.7507,3.63706 10.12606,5.50258 10.12606,5.5965c-1.89235,4.37521 -2.95929,6.68362 -3.20091,6.92519l-11.45475,0.66432c-4.45573,-2.9526 -6.85137,-4.50942 -7.18691,-4.67046v-0.12077c0,-0.33553 0.66433,-1.84537 1.99302,-4.52956l8.9383,4.65037l0.66432,-2.65735c-5.52942,-2.48286 -8.81754,-4.03298 -9.86438,-4.65037v-0.28165c0,-0.50998 1.06698,-2.77141 3.20091,-6.78428z"/></g><g fill="#ffffff" stroke="#224a8c" stroke-width="7.5" stroke-linecap="butt"><path d="M82.56577,17.21104c0,0.13428 1.42261,2.81843 4.26784,8.05252c-2.50969,8.40149 -3.93231,12.9042 -4.26784,13.50814l-9.11949,1.95273c-4.89864,-2.71103 -7.5023,-4.25441 -7.81095,-4.63022c-0.16104,-1.89231 -0.4429,-7.2137 -0.84551,-15.96417c4.63022,-3.0868 7.55598,-4.95227 8.77726,-5.59649c0,0 8.87789,2.43591 8.99869,2.67748zM75.13726,21.47889l-3.76457,3.90547c0.32209,4.05312 0.48314,6.52927 0.48314,7.42847c0.09393,0 0.9059,0.56366 2.43588,1.69103c2.02657,-0.4429 3.03981,-0.765 3.03981,-0.96632l2.31511,-7.91161c-0.61735,-1.87892 -1.14076,-2.81838 -1.57026,-2.81838z"/><path d="M98.40912,14.79535c0,0.76499 0.17449,3.72429 0.52342,8.87792c4.80467,-1.52998 7.49559,-2.33525 8.07269,-2.41577l7.24729,7.79084c-3.04656,6.83123 -4.70404,10.45489 -4.97246,10.87095c-0.84551,-0.094 -3.93231,-0.22825 -9.26044,-0.40265v0.94618c0,0.17452 -0.09396,0.26179 -0.28185,0.26179h-7.79084c-0.28185,0 -0.81867,-4.02627 -1.6105,-12.07879c-0.17449,-0.68447 -0.66433,-4.71745 -1.4696,-12.09897c4.5631,-1.07368 7.69688,-1.74471 9.40135,-2.01312zM99.61701,29.30997l0.52342,4.97246h4.04642l1.4696,-5.63678c-4.02628,0.34893 -6.03939,0.5704 -6.03939,0.66432z"/><path d="M137.20226,12.19831l7.93175,1.24817c-0.99315,3.81155 -1.64404,5.7173 -1.95273,5.7173c-4.17389,-0.28185 -6.26087,-0.56366 -6.26087,-0.84551v-5.8381c0.02684,-0.18777 0.12077,-0.28166 0.28185,-0.28166zM134.96767,20.69376l9.60267,2.4963c-1.94603,11.27356 -3.01298,17.25928 -3.20087,17.95714c-0.41606,0.37581 -3.84509,2.09368 -10.28714,5.15364c-5.1268,-2.41577 -8.28068,-3.94575 -9.46173,-4.58994c-1.30181,-4.96575 -2.04669,-7.70362 -2.23458,-8.2136c0.18789,-0.18805 2.83183,-0.93289 7.93175,-2.23458c0,0.094 0.04698,0.14103 0.14091,0.14103c-0.09393,0.18777 -0.14091,0.32868 -0.14091,0.42276c0,0.63078 -0.18789,2.81169 -0.56366,6.54271c4.49602,-0.56366 7.1869,-0.93274 8.07269,-1.10723v-3.62366c0,-0.21476 -0.04028,-0.40265 -0.1208,-0.56366l0.1208,-0.28204c-0.08053,-0.16101 -0.1208,-0.3422 -0.1208,-0.54357h0.1208l-0.1208,-0.28165v-0.14103c0,-0.094 0.04028,-0.14102 0.1208,-0.14102l-0.1208,-0.28165v-0.14102c0,-0.094 0.04028,-0.14102 0.1208,-0.14102l-0.1208,-0.26179v-9.88452c0.02684,-0.18777 0.11407,-0.28165 0.26171,-0.28165z"/><path d="M158.74282,20.63334c6.07968,3.12708 9.44833,4.95235 10.10595,5.47573c-0.87235,4.07996 -1.38907,6.18034 -1.55011,6.30114h-12.72302v0.22127l3.56324,4.40876l5.59653,-2.85863c0.55026,0.95288 1.34209,2.61706 2.3755,4.99256c-0.48314,0.16101 -4.00614,0.67772 -10.56895,1.55011c-5.43545,-3.58338 -8.17332,-5.44889 -8.2136,-5.5965c0.87235,-6.96547 1.38907,-10.44818 1.55011,-10.44818c5.67706,-2.41573 8.96515,-3.76457 9.86438,-4.04642zM157.43427,25.50513c-0.10736,0.26845 -0.81867,1.33539 -2.13392,3.20091c0,0.56366 0.79184,0.84551 2.3755,0.84551c0,0.08053 1.1475,0.27512 3.44247,0.58381c0.63078,-0.87235 0.94618,-1.38234 0.94618,-1.52998c-0.20129,-1.19445 -0.63749,-1.79169 -1.30855,-1.79169z"/><path d="M178.59231,20.63334c6.05284,1.14077 9.22016,1.79169 9.50201,1.95277v0.24153c-1.30181,3.6773 -1.95273,5.58311 -1.95273,5.71731h-0.12081c-0.33554,0 -1.95943,-0.52343 -4.87179,-1.57027c-1.62395,2.72443 -2.43588,4.18062 -2.43588,4.36851l4.02627,3.90547c3.11365,-2.92576 4.69731,-4.38861 4.75099,-4.38861c2.42918,3.18076 3.64376,4.96572 3.64376,5.35493c-1.32866,0.76499 -3.64376,2.26813 -6.94533,4.50942c-6.38837,-1.38234 -9.8375,-2.15403 -10.34752,-2.31511l-3.16062,-10.22672z"/><path d="M199.16656,14.53356l8.85778,1.57026l-0.84551,6.72387c1.75815,-0.094 3.04657,-0.14102 3.86523,-0.14102h1.28842l0.28185,-0.14102l0.14091,0.28204c-0.28185,4.07996 -0.52342,6.37493 -0.72475,6.88492l-0.28185,-0.16089c-0.20129,0 -2.01312,-0.09389 -5.43545,-0.28165c-0.18789,3.15392 -0.32884,6.92519 -0.42276,11.31384l-0.28185,0.14102c-4.32153,-0.28185 -6.89835,-0.52342 -7.73042,-0.7247l0.14091,-0.5637c0,-1.16761 0.18789,-4.79123 0.56366,-10.87091c-3.62366,-0.20128 -5.43545,-0.44285 -5.43545,-0.72475c0.18789,-4.48258 0.42949,-6.72387 0.72475,-6.72387l5.29455,1.00656v-1.7313c0,-1.40918 -0.05368,-3.31497 -0.16104,-5.71731c0.10736,0 0.16104,-0.04702 0.16104,-0.14102z"/><path d="M217.6673,12.54053l7.91161,1.24817c-0.99315,3.79811 -1.64404,5.69716 -1.95273,5.69716c-4.16049,-0.28185 -6.24073,-0.55696 -6.24073,-0.82537v-5.83811c0.04024,-0.18777 0.13421,-0.28166 0.28185,-0.28166zM215.45286,22.12307h0.12081c6.11992,1.11393 9.17991,1.76485 9.17991,1.95273c-1.75815,9.95831 -2.82509,15.50786 -3.20091,16.64863h-6.38163c-0.18789,0 -0.28185,-0.09389 -0.28185,-0.28165z"/><path d="M234.07436,20.61324c3.28813,7.54254 5.03954,11.45471 5.25431,11.73656c1.62394,-6.1602 2.57011,-9.44159 2.83853,-9.84421c5.1268,0.4697 7.69018,0.87231 7.69018,1.20785v0.14103c-3.59682,9.87779 -5.52942,15.05152 -5.79783,15.52126c-3.9726,0.72471 -6.62994,1.17431 -7.97203,1.3488l-9.84424,-14.57509v-0.28204c0.09393,-0.17452 2.70428,-1.92594 7.83108,-5.25427z"/><path d="M263.42586,20.63334c6.07968,3.12708 9.44833,4.95235 10.10596,5.47573c-0.87235,4.07996 -1.38908,6.18034 -1.55012,6.30114h-12.72302v0.22127l3.56324,4.40876l5.59653,-2.85863c0.55026,0.95288 1.34209,2.61706 2.3755,4.99256c-0.48314,0.16101 -4.00615,0.67772 -10.56895,1.55011c-5.43545,-3.58338 -8.17332,-5.44889 -8.2136,-5.5965c0.87235,-6.96547 1.38908,-10.44818 1.55012,-10.44818c5.67706,-2.41573 8.96514,-3.76457 9.86434,-4.04642zM262.11731,25.50513c-0.10736,0.26845 -0.81867,1.33539 -2.13392,3.20091c0,0.56366 0.79183,0.84551 2.37549,0.84551c0,0.08053 1.1475,0.27512 3.44247,0.58381c0.63078,-0.87235 0.94618,-1.38234 0.94618,-1.52998c-0.20129,-1.19445 -0.63749,-1.79169 -1.30855,-1.79169z"/><path d="M291.60977,20.61324c3.86523,2.46942 5.99915,3.89203 6.40177,4.26784c-1.39578,3.1002 -2.19431,4.65032 -2.39564,4.65032l-7.3278,-4.2477h-0.26171c0,0.13428 -0.31539,0.88583 -0.94618,2.25472c6.7507,3.63706 10.12606,5.50258 10.12606,5.5965c-1.89235,4.37521 -2.95929,6.68362 -3.20091,6.92519l-11.45475,0.66432c-4.45573,-2.9526 -6.85137,-4.50942 -7.18691,-4.67046v-0.12077c0,-0.33553 0.66433,-1.84537 1.99302,-4.52956l8.9383,4.65037l0.66432,-2.65735c-5.52942,-2.48286 -8.81754,-4.03298 -9.86438,-4.65037v-0.28165c0,-0.50998 1.06698,-2.77141 3.20091,-6.78428z"/></g><g fill="#ffffff" stroke="none" stroke-width="0.26458" stroke-linecap="butt"><path d="M73.56703,14.53356c5.87835,1.54342 8.87792,2.43591 8.99873,2.67749c0,0.13429 1.42262,2.81843 4.26785,8.05252c-2.5097,8.40149 -3.93231,12.90421 -4.26785,13.50814l-9.11949,1.95273c-4.89864,-2.71103 -7.50229,-4.25441 -7.81095,-4.63022c-0.16104,-1.89231 -0.44289,-7.2137 -0.84551,-15.96417c4.63022,-3.0868 7.55598,-4.95227 8.77726,-5.5965zM75.13725,21.47889l-3.76457,3.90547c0.32209,4.05312 0.48314,6.52927 0.48314,7.42847c0.09393,0 0.90589,0.56366 2.43588,1.69103c2.02656,-0.44289 3.03982,-0.76499 3.03982,-0.96631l2.31511,-7.91161c-0.61735,-1.87892 -1.14077,-2.81839 -1.57026,-2.81839z"/><path d="M98.26822,14.53356l0.14091,0.26179c0,0.76499 0.17449,3.72429 0.52342,8.87792c4.80467,-1.52998 7.49559,-2.33525 8.07269,-2.41577l7.24729,7.79084c-3.04656,6.83123 -4.70404,10.45489 -4.97245,10.87094c-0.84551,-0.094 -3.93231,-0.22825 -9.26044,-0.40265v0.94618c0,0.17453 -0.09396,0.26179 -0.28185,0.26179h-7.79084c-0.28185,0 -0.81867,-4.02627 -1.6105,-12.07879c-0.17449,-0.68447 -0.66432,-4.71745 -1.4696,-12.09897c4.5631,-1.07368 7.69688,-1.74471 9.40134,-2.01312zM99.61701,29.30997l0.52342,4.97245h4.04642l1.4696,-5.63678c-4.02627,0.34893 -6.03939,0.5704 -6.03939,0.66432z"/><path d="M137.20225,12.19831l7.93175,1.24817c-0.99316,3.81155 -1.64404,5.7173 -1.95273,5.7173c-4.17388,-0.28185 -6.26087,-0.56366 -6.26087,-0.84551v-5.83811c0.02684,-0.18777 0.12077,-0.28165 0.28185,-0.28165zM134.96767,20.69375l9.60267,2.4963c-1.94604,11.27356 -3.01298,17.25928 -3.20087,17.95714c-0.41606,0.37581 -3.84509,2.09368 -10.28714,5.15364c-5.1268,-2.41577 -8.28068,-3.94576 -9.46173,-4.58994c-1.30181,-4.96575 -2.0467,-7.70362 -2.23458,-8.2136c0.18789,-0.18804 2.83183,-0.93289 7.93175,-2.23458c0,0.094 0.04698,0.14102 0.14091,0.14102c-0.09393,0.18777 -0.14091,0.32868 -0.14091,0.42276c0,0.63078 -0.18789,2.81169 -0.56366,6.54272c4.49602,-0.56366 7.1869,-0.93274 8.07269,-1.10722v-3.62366c0,-0.21477 -0.04028,-0.40265 -0.1208,-0.56366l0.1208,-0.28204c-0.08053,-0.16101 -0.1208,-0.3422 -0.1208,-0.54356h0.1208l-0.1208,-0.28165v-0.14102c0,-0.094 0.04028,-0.14102 0.1208,-0.14102l-0.1208,-0.28165v-0.14102c0,-0.094 0.04028,-0.14102 0.1208,-0.14102l-0.1208,-0.26179v-9.88452c0.02684,-0.18777 0.11407,-0.28165 0.26171,-0.28165z"/><path d="M158.74282,20.63333c6.07968,3.12708 9.44833,4.95235 10.10595,5.47573c-0.87235,4.07996 -1.38907,6.18034 -1.55012,6.30114h-12.72302v0.22127l3.56324,4.40876l5.59653,-2.85863c0.55026,0.95288 1.34209,2.61707 2.37549,4.99256c-0.48314,0.16101 -4.00614,0.67773 -10.56895,1.55012c-5.43545,-3.58338 -8.17332,-5.44889 -8.2136,-5.5965c0.87235,-6.96548 1.38907,-10.44818 1.55012,-10.44818c5.67706,-2.41573 8.96515,-3.76457 9.86438,-4.04642zM157.43426,25.50513c-0.10736,0.26845 -0.81867,1.33539 -2.13392,3.20091c0,0.56366 0.79183,0.84551 2.37549,0.84551c0,0.08053 1.1475,0.27511 3.44247,0.5838c0.63078,-0.87235 0.94618,-1.38234 0.94618,-1.52998c-0.20128,-1.19445 -0.63749,-1.79169 -1.30855,-1.79169z"/><path d="M178.59231,20.63333c6.05284,1.14077 9.22016,1.79169 9.50201,1.95277v0.24153c-1.30181,3.6773 -1.95273,5.5831 -1.95273,5.7173h-0.1208c-0.33553,0 -1.95943,-0.52342 -4.87179,-1.57026c-1.62395,2.72443 -2.43588,4.18062 -2.43588,4.36851l4.02627,3.90547c3.11364,-2.92576 4.6973,-4.38861 4.75099,-4.38861c2.42918,3.18076 3.64376,4.96572 3.64376,5.35493c-1.32865,0.76499 -3.64376,2.26812 -6.94533,4.50942c-6.38837,-1.38234 -9.8375,-2.15403 -10.34752,-2.31511l-3.16062,-10.22672z"/><path d="M199.16655,14.53356l8.85779,1.57026l-0.84551,6.72387c1.75815,-0.094 3.04656,-0.14102 3.86523,-0.14102h1.28841l0.28185,-0.14102l0.14091,0.28204c-0.28185,4.07996 -0.52342,6.37493 -0.72475,6.88491l-0.28185,-0.16089c-0.20128,0 -2.01312,-0.09389 -5.43545,-0.28165c-0.18789,3.15392 -0.32883,6.92519 -0.42276,11.31384l-0.28185,0.14102c-4.32153,-0.28185 -6.89835,-0.52342 -7.73042,-0.72471l0.14091,-0.5637c0,-1.16761 0.18789,-4.79123 0.56366,-10.87091c-3.62366,-0.20128 -5.43545,-0.44286 -5.43545,-0.72475c0.18789,-4.48257 0.4295,-6.72387 0.72475,-6.72387l5.29454,1.00656v-1.73131c0,-1.40918 -0.05368,-3.31497 -0.16104,-5.7173c0.10736,0 0.16104,-0.04702 0.16104,-0.14102z"/><path d="M217.6673,12.54053l7.91161,1.24817c-0.99316,3.79811 -1.64404,5.69716 -1.95273,5.69716c-4.16049,-0.28185 -6.24072,-0.55696 -6.24072,-0.82538v-5.83811c0.04024,-0.18777 0.1342,-0.28165 0.28185,-0.28165zM215.45285,22.12307h0.1208c6.11992,1.11392 9.17991,1.76485 9.17991,1.95273c-1.75815,9.95831 -2.82509,15.50786 -3.20091,16.64863h-6.38163c-0.18789,0 -0.28185,-0.09389 -0.28185,-0.28165z"/><path d="M234.07436,20.61324c3.28813,7.54253 5.03954,11.45471 5.2543,11.73656c1.62395,-6.1602 2.57012,-9.44159 2.83853,-9.84421c5.1268,0.4697 7.69018,0.87232 7.69018,1.20785v0.14102c-3.59682,9.87779 -5.52942,15.05153 -5.79783,15.52126c-3.9726,0.72471 -6.62994,1.17431 -7.97203,1.3488l-9.84425,-14.57509v-0.28204c0.09393,-0.17453 2.70428,-1.92594 7.83108,-5.25427z"/><path d="M263.42587,20.63333c6.07968,3.12708 9.44833,4.95235 10.10595,5.47573c-0.87235,4.07996 -1.38907,6.18034 -1.55012,6.30114h-12.72302v0.22127l3.56324,4.40876l5.59653,-2.85863c0.55026,0.95288 1.34209,2.61707 2.37549,4.99256c-0.48314,0.16101 -4.00614,0.67773 -10.56895,1.55012c-5.43545,-3.58338 -8.17332,-5.44889 -8.2136,-5.5965c0.87235,-6.96548 1.38907,-10.44818 1.55012,-10.44818c5.67706,-2.41573 8.96515,-3.76457 9.86434,-4.04642zM262.11731,25.50513c-0.10736,0.26845 -0.81867,1.33539 -2.13392,3.20091c0,0.56366 0.79183,0.84551 2.37549,0.84551c0,0.08053 1.1475,0.27511 3.44247,0.5838c0.63078,-0.87235 0.94618,-1.38234 0.94618,-1.52998c-0.20128,-1.19445 -0.63749,-1.79169 -1.30855,-1.79169z"/><path d="M291.60976,20.61324c3.86523,2.46942 5.99915,3.89203 6.40177,4.26785c-1.39577,3.1002 -2.19431,4.65032 -2.39564,4.65032l-7.3278,-4.2477h-0.26171c0,0.13429 -0.31539,0.88583 -0.94618,2.25473c6.7507,3.63706 10.12606,5.50257 10.12606,5.5965c-1.89235,4.37521 -2.9593,6.68362 -3.20091,6.92519l-11.45475,0.66432c-4.45573,-2.9526 -6.85137,-4.50942 -7.1869,-4.67046v-0.12077c0,-0.33553 0.66432,-1.84537 1.99302,-4.52956l8.93831,4.65036l0.66432,-2.65734c-5.52942,-2.48285 -8.81754,-4.03298 -9.86438,-4.65036v-0.28165c0,-0.50998 1.06698,-2.77141 3.20091,-6.78429z"/></g></g></g></svg>