<svg version="1.1" xmlns="http://www.w3.org/2000/svg" xmlns:xlink="http://www.w3.org/1999/xlink" width="437" height="90.79587" viewBox="0,0,437,90.79587"><defs><linearGradient x1="240" y1="135.60206" x2="240" y2="224.39795" gradientUnits="userSpaceOnUse" id="color-1"><stop offset="0" stop-color="#ffffff"/><stop offset="1" stop-color="#d8d8d8"/></linearGradient><linearGradient x1="240" y1="135.60208" x2="240" y2="224.39795" gradientUnits="userSpaceOnUse" id="color-2"><stop offset="0" stop-color="#343434"/><stop offset="1" stop-color="#090909"/></linearGradient><radialGradient cx="443.8065" cy="206.54466" r="17.9081" gradientUnits="userSpaceOnUse" id="color-3"><stop offset="0" stop-color="#ffffff"/><stop offset="1" stop-color="#e5e5e5"/></radialGradient></defs><g transform="translate(-21.5,-134.60208)"><g data-paper-data="{&quot;isPaintingLayer&quot;:true}" fill-rule="nonzero" stroke-linejoin="miter" stroke-miterlimit="10" stroke-dasharray="" stroke-dashoffset="0" style="mix-blend-mode: normal"><path d="M22.5,224.39795v-88.79587h435v88.79587z" data-paper-data="{&quot;origPos&quot;:null}" fill="url(#color-1)" stroke="url(#color-2)" stroke-width="2" stroke-linecap="butt"/><g data-paper-data="{&quot;origPos&quot;:null}"><path d="M444.3058,202.09868c2.5136,0 4.7909,1.0212 6.4406,2.6702c1.6489,1.6496 2.6702,3.9269 2.6702,6.4405c0,2.5136 -1.0213,4.791 -2.6702,6.4406c-1.6497,1.649 -3.927,2.6702 -6.4406,2.6702c-2.5136,0 -4.7909,-1.0212 -6.4406,-2.6702c-1.6489,-1.6496 -2.6701,-3.927 -2.6701,-6.4406c0,-2.5136 1.0212,-4.7909 2.6701,-6.4405c1.6497,-1.649 3.927,-2.6702 6.4406,-2.6702z" fill="url(#color-3)" stroke="#000000" stroke-width="2.0785" stroke-linecap="butt"/><path d="M441.2734,206.54886l5.6119,0.4503l1.7321,3.187l-3.6374,2.9446l3.3603,-0.5197l0.7967,3.4642l-7.4479,-0.0693l-1.9053,-2.4249l4.6766,-3.3256l-4.5727,-0.3464z" fill="#000000" stroke="none" stroke-width="0.69283" stroke-linecap="round"/></g><g data-paper-data="{&quot;origPos&quot;:null}" stroke="none" stroke-width="1" stroke-linecap="butt"><path d="M33.817,148.43106c2.448,0.547 3.809,0.86 4.083,0.939v0.064c-0.085,2.193 -0.149,3.469 -0.192,3.828c0.14,0 0.769,0.146 1.887,0.437c1.003,-3.093 1.547,-4.639 1.632,-4.639c1.677,0.753 2.743,1.255 3.199,1.504v0.064c-1.841,4.284 -2.886,6.647 -3.135,7.091c-0.462,0.383 -2.073,1.847 -4.831,4.393h-0.064l-5.086,-2.506c0.468,-0.803 1.033,-1.723 1.695,-2.762c0.031,0 0.827,0.522 2.388,1.568h0.064c0.523,-0.426 1.149,-1.033 1.878,-1.823c0,-0.037 -1.191,-1.207 -3.573,-3.509v-4.521z" data-paper-data="{&quot;origPos&quot;:null}" fill="#000000"/><path d="M49.093,151.19306c2.309,0.62 3.533,0.996 3.673,1.13c1.27,1.799 1.984,2.835 2.142,3.108c-0.821,2.601 -1.292,3.901 -1.413,3.901c-2.734,0.638 -4.165,0.957 -4.293,0.957c-2.26,-1.318 -3.464,-2.054 -3.609,-2.206c-0.079,-2.454 -0.119,-3.809 -0.119,-4.065c-0.036,-0.073 -0.055,-0.127 -0.055,-0.164c2.334,-1.774 3.54,-2.661 3.619,-2.661zM48.865,154.52906c-0.037,0.243 -0.091,1.127 -0.164,2.652l2.032,0.456c0.486,-1.519 0.729,-2.33 0.729,-2.434c-1.616,-0.486 -2.482,-0.729 -2.597,-0.729z" data-paper-data="{&quot;origPos&quot;:null}" fill="#000000"/><path d="M60.659,151.18406l0.064,0.118l-1.231,6.526h0.064l3.136,-0.92v-3.692c0.012,-0.085 0.051,-0.127 0.118,-0.127c2.358,0.164 3.67,0.246 3.938,0.246c0,0.042 0.021,0.064 0.063,0.064c0,1.039 -0.328,3.193 -0.984,6.462c0,0.188 -0.942,0.331 -2.826,0.428c-0.097,-0.115 -0.179,-0.361 -0.246,-0.738c-2.412,0.492 -3.788,0.738 -4.129,0.738c-1.926,-1.434 -2.889,-2.172 -2.889,-2.215c0.328,-4.308 0.535,-6.544 0.62,-6.708h0.055c1.537,-0.043 2.953,-0.103 4.247,-0.182z" data-paper-data="{&quot;origPos&quot;:null}" fill="#000000"/><path d="M75.944,151.19306c2.741,0.516 4.175,0.811 4.302,0.884v0.109c-0.589,1.665 -0.884,2.528 -0.884,2.589h-0.055c-0.151,0 -0.887,-0.237 -2.205,-0.711c-0.736,1.233 -1.103,1.893 -1.103,1.978l1.823,1.768c1.409,-1.325 2.127,-1.987 2.151,-1.987c1.1,1.44 1.65,2.248 1.65,2.424c-0.602,0.347 -1.65,1.027 -3.145,2.042c-2.892,-0.626 -4.454,-0.975 -4.685,-1.048l-1.431,-4.63z" data-paper-data="{&quot;origPos&quot;:null}" fill="#000000"/><path d="M83.919,151.18406c3.61,0.498 5.414,0.805 5.414,0.92c1.422,1.222 2.133,1.875 2.133,1.96c-0.577,1.805 -0.905,2.901 -0.984,3.29c0.577,1.282 0.905,2.048 0.984,2.297c0,0.073 -0.942,0.267 -2.825,0.583c-0.025,-0.103 -0.198,-0.334 -0.52,-0.692c-2.6,0.498 -4.001,0.747 -4.202,0.747l-1.385,-3.746l3.053,-1.613c0.493,0.079 1.261,0.118 2.306,0.118c0,-0.133 0.019,-0.537 0.055,-1.212c-0.176,0 -1.75,0.115 -4.721,0.346l-0.055,-0.118c0.413,-1.92 0.662,-2.88 0.747,-2.88zM85.815,156.54306c0,0.067 0.195,0.778 0.584,2.133h0.054c0.766,-0.498 1.149,-0.827 1.149,-0.985l0.118,-0.975c-0.146,0 -0.781,-0.057 -1.905,-0.173z" data-paper-data="{&quot;origPos&quot;:null}" fill="#000000"/><path d="M100.435,151.18406l3.035,2.087c-0.212,3.463 -0.361,5.487 -0.446,6.07c-0.353,0.043 -1.425,0.107 -3.218,0.192l-0.064,-0.128l-0.319,-4.867l-0.127,-0.064c-1.161,0.249 -1.96,0.438 -2.397,0.565c0.121,2.072 0.182,3.57 0.182,4.494c-1.811,0.504 -2.801,0.756 -2.971,0.756c-1.179,-5.189 -1.769,-7.93 -1.769,-8.221c2.565,-0.334 3.956,-0.502 4.175,-0.502v0.064c0.042,0.031 0.106,0.663 0.191,1.896c2.352,-1.562 3.594,-2.342 3.728,-2.342z" data-paper-data="{&quot;origPos&quot;:null}" fill="#000000"/><path d="M117.097,151.18406l3.035,2.087c-0.213,3.463 -0.362,5.487 -0.447,6.07c-0.352,0.043 -1.425,0.107 -3.217,0.192l-0.064,-0.128l-0.319,-4.867l-0.128,-0.064c-1.16,0.249 -1.959,0.438 -2.397,0.565c0.122,2.072 0.182,3.57 0.182,4.494c-1.81,0.504 -2.801,0.756 -2.971,0.756c-1.179,-5.189 -1.768,-7.93 -1.768,-8.221c2.564,-0.334 3.955,-0.502 4.174,-0.502v0.064c0.043,0.031 0.107,0.663 0.192,1.896c2.351,-1.562 3.594,-2.342 3.728,-2.342z" data-paper-data="{&quot;origPos&quot;:null}" fill="#000000"/><path d="M124.707,151.19306c2.309,0.62 3.534,0.996 3.673,1.13c1.27,1.799 1.984,2.835 2.142,3.108c-0.82,2.601 -1.291,3.901 -1.412,3.901c-2.735,0.638 -4.166,0.957 -4.293,0.957c-2.261,-1.318 -3.464,-2.054 -3.61,-2.206c-0.079,-2.454 -0.118,-3.809 -0.118,-4.065c-0.037,-0.073 -0.055,-0.127 -0.055,-0.164c2.333,-1.774 3.54,-2.661 3.619,-2.661zM124.479,154.52906c-0.036,0.243 -0.091,1.127 -0.164,2.652l2.033,0.456c0.486,-1.519 0.729,-2.33 0.729,-2.434c-1.616,-0.486 -2.482,-0.729 -2.598,-0.729z" data-paper-data="{&quot;origPos&quot;:null}" fill="#000000"/><path d="M135.353,151.18406c0.079,0.103 0.489,1.865 1.23,5.286h0.064c0,-0.079 0.45,-0.775 1.349,-2.087c0.377,0.255 1.094,0.808 2.151,1.659h0.128v-0.064c0.164,-2.37 0.285,-3.682 0.364,-3.938c2.504,0.128 3.756,0.231 3.756,0.31c-1.149,4.618 -1.762,7.019 -1.841,7.201c-0.383,0.042 -1.185,0.164 -2.407,0.364c-1.002,-1.573 -1.577,-2.412 -1.722,-2.515c-0.657,1.75 -1.067,2.713 -1.231,2.889h-2.461c-0.152,-0.048 -0.869,-1.628 -2.151,-4.739c-0.82,-1.738 -1.23,-2.68 -1.23,-2.826c0,-0.134 1.333,-0.647 4.001,-1.54z" data-paper-data="{&quot;origPos&quot;:null}" fill="#000000"/><path d="M153.564,151.18406c1.489,3.415 2.282,5.186 2.379,5.313c0.735,-2.789 1.163,-4.274 1.285,-4.457c2.321,0.213 3.482,0.395 3.482,0.547v0.064c-1.629,4.472 -2.504,6.815 -2.625,7.027c-1.799,0.329 -3.002,0.532 -3.61,0.611l-4.457,-6.599v-0.127c0.043,-0.079 1.225,-0.872 3.546,-2.379z" data-paper-data="{&quot;origPos&quot;:null}" fill="#000000"/><path d="M162.943,147.52906l3.582,0.565c-0.45,1.719 -0.744,2.579 -0.884,2.579c-1.884,-0.127 -2.826,-0.252 -2.826,-0.373v-2.644c0.019,-0.085 0.061,-0.127 0.128,-0.127zM161.94,151.86707h0.055c2.771,0.505 4.156,0.799 4.156,0.884c-0.796,4.509 -1.279,7.022 -1.449,7.538h-2.889c-0.085,0 -0.128,-0.042 -0.128,-0.127z" data-paper-data="{&quot;origPos&quot;:null}" fill="#000000"/><path d="M174.181,151.18406c1.75,1.118 2.716,1.762 2.899,1.932c-0.632,1.404 -0.994,2.105 -1.085,2.105l-3.318,-1.923h-0.118c0,0.061 -0.143,0.401 -0.429,1.021c3.057,1.647 4.585,2.491 4.585,2.534c-0.857,1.981 -1.34,3.026 -1.449,3.135l-5.186,0.301c-2.018,-1.337 -3.102,-2.042 -3.254,-2.114v-0.055c0,-0.152 0.3,-0.836 0.902,-2.051l4.047,2.106l0.301,-1.204c-2.504,-1.124 -3.993,-1.826 -4.466,-2.105v-0.128c0,-0.231 0.483,-1.254 1.449,-3.071z" data-paper-data="{&quot;origPos&quot;:null}" fill="#000000"/><path d="M179.24,147.52906l3.582,0.565c-0.45,1.719 -0.745,2.579 -0.884,2.579c-1.884,-0.127 -2.826,-0.252 -2.826,-0.373v-2.644c0.018,-0.085 0.061,-0.127 0.128,-0.127zM178.237,151.86707h0.055c2.771,0.505 4.156,0.799 4.156,0.884c-0.796,4.509 -1.279,7.022 -1.449,7.538h-2.889c-0.086,0 -0.128,-0.042 -0.128,-0.127z" data-paper-data="{&quot;origPos&quot;:null}" fill="#000000"/><path d="M185.848,148.43106l4.01,0.711l-0.383,3.044c0.796,-0.042 1.38,-0.064 1.75,-0.064h0.584l0.127,-0.063l0.064,0.127c-0.127,1.848 -0.237,2.887 -0.328,3.117l-0.128,-0.072c-0.091,0 -0.911,-0.043 -2.461,-0.128c-0.085,1.428 -0.148,3.135 -0.191,5.122l-0.128,0.064c-1.956,-0.127 -3.123,-0.237 -3.5,-0.328l0.064,-0.255c0,-0.529 0.085,-2.169 0.255,-4.922c-1.64,-0.091 -2.46,-0.201 -2.46,-0.328c0.085,-2.03 0.194,-3.044 0.328,-3.044l2.397,0.455v-0.784c0,-0.638 -0.024,-1.5 -0.073,-2.588c0.049,0 0.073,-0.021 0.073,-0.064z" data-paper-data="{&quot;origPos&quot;:null}" fill="#000000"/><path d="M203.412,148.43106c3.445,1.957 5.286,3.011 5.523,3.163c-0.207,3.22 -0.361,4.967 -0.465,5.241c-1.969,1.993 -2.983,2.989 -3.044,2.989l-6.216,0.465c-0.079,-0.267 -0.617,-3.758 -1.613,-10.473c0.583,-0.194 2.521,-0.656 5.815,-1.385zM201.917,151.94006v0.064l0.456,5.405c1.689,-0.401 2.533,-0.65 2.533,-0.747c0,-0.146 0.192,-1.276 0.575,-3.391c-2.303,-0.887 -3.491,-1.331 -3.564,-1.331z" data-paper-data="{&quot;origPos&quot;:null}" fill="#2b70c2"/><path d="M215.087,151.19306c2.753,1.416 4.278,2.242 4.576,2.479c-0.395,1.847 -0.629,2.798 -0.702,2.853h-5.76v0.1l1.613,1.996l2.534,-1.294c0.249,0.431 0.607,1.185 1.075,2.26c-0.218,0.073 -1.813,0.307 -4.785,0.702c-2.461,-1.622 -3.7,-2.467 -3.719,-2.534c0.395,-3.153 0.629,-4.73 0.702,-4.73c2.571,-1.094 4.059,-1.705 4.466,-1.832zM214.495,153.39906c-0.049,0.121 -0.371,0.604 -0.966,1.449c0,0.255 0.358,0.383 1.075,0.383c0,0.036 0.52,0.124 1.559,0.264c0.286,-0.395 0.428,-0.626 0.428,-0.693c-0.091,-0.541 -0.288,-0.811 -0.592,-0.811z" data-paper-data="{&quot;origPos&quot;:null}" fill="#2b70c2"/><path d="M225.66,151.19306c2.753,1.416 4.278,2.242 4.576,2.479c-0.395,1.847 -0.629,2.798 -0.702,2.853h-5.76v0.1l1.613,1.996l2.534,-1.294c0.249,0.431 0.607,1.185 1.075,2.26c-0.219,0.073 -1.814,0.307 -4.785,0.702c-2.461,-1.622 -3.7,-2.467 -3.719,-2.534c0.395,-3.153 0.629,-4.73 0.702,-4.73c2.57,-1.094 4.059,-1.705 4.466,-1.832zM225.068,153.39906c-0.049,0.121 -0.371,0.604 -0.966,1.449c0,0.255 0.358,0.383 1.075,0.383c0,0.036 0.52,0.124 1.559,0.264c0.285,-0.395 0.428,-0.626 0.428,-0.693c-0.091,-0.541 -0.288,-0.811 -0.592,-0.811z" data-paper-data="{&quot;origPos&quot;:null}" fill="#2b70c2"/><path d="M235.641,151.19306c0.188,0.778 0.319,1.258 0.392,1.44c2.685,-0.614 4.104,-0.921 4.256,-0.921c1.829,2.631 2.744,4.005 2.744,4.12l-2.097,4.448l-4.511,-0.72v0.137c0.352,2.704 0.528,4.141 0.528,4.311c-0.042,0 -0.064,0.021 -0.064,0.064c-0.437,-0.043 -0.765,-0.064 -0.984,-0.064h-0.784c-0.455,0 -1.154,-0.021 -2.096,-0.064c-0.085,-0.255 -0.738,-4.135 -1.96,-11.639c0.207,-0.085 1.732,-0.456 4.576,-1.112zM235.969,154.92107c0.121,1.397 0.231,2.096 0.328,2.096c1.246,0.431 2.008,0.647 2.288,0.647l0.72,-3.135h-0.064c-0.711,0.042 -1.802,0.173 -3.272,0.392z" data-paper-data="{&quot;origPos&quot;:null}" fill="#2b70c2"/><path d="M254.417,148.43106c3.445,1.957 5.286,3.011 5.523,3.163c-0.206,3.22 -0.361,4.967 -0.465,5.241c-1.968,1.993 -2.983,2.989 -3.044,2.989l-6.216,0.465c-0.079,-0.267 -0.617,-3.758 -1.613,-10.473c0.583,-0.194 2.521,-0.656 5.815,-1.385zM252.922,151.94006v0.064l0.456,5.405c1.689,-0.401 2.534,-0.65 2.534,-0.747c0,-0.146 0.191,-1.276 0.574,-3.391c-2.303,-0.887 -3.491,-1.331 -3.564,-1.331z" data-paper-data="{&quot;origPos&quot;:null}" fill="#2b70c2"/><path d="M266.093,151.19306c2.752,1.416 4.277,2.242 4.575,2.479c-0.395,1.847 -0.629,2.798 -0.702,2.853h-5.76v0.1l1.613,1.996l2.534,-1.294c0.249,0.431 0.608,1.185 1.076,2.26c-0.219,0.073 -1.814,0.307 -4.786,0.702c-2.461,-1.622 -3.7,-2.467 -3.718,-2.534c0.395,-3.153 0.629,-4.73 0.701,-4.73c2.571,-1.094 4.059,-1.705 4.467,-1.832zM265.5,153.39906c-0.048,0.121 -0.37,0.604 -0.966,1.449c0,0.255 0.359,0.383 1.076,0.383c0,0.036 0.519,0.124 1.558,0.264c0.286,-0.395 0.429,-0.626 0.429,-0.693c-0.092,-0.541 -0.289,-0.811 -0.593,-0.811z" data-paper-data="{&quot;origPos&quot;:null}" fill="#2b70c2"/><path d="M271.498,148.44006c1.859,0.037 3.223,0.055 4.092,0.055c0.079,0 0.319,3.731 0.72,11.193c-0.31,0.079 -1.391,0.279 -3.245,0.601c-0.091,0 -0.392,-2.285 -0.902,-6.854c-0.043,-0.109 -0.264,-1.774 -0.665,-4.995z" data-paper-data="{&quot;origPos&quot;:null}" fill="#2b70c2"/><path d="M280.876,151.18406c1.489,3.415 2.282,5.186 2.379,5.313c0.736,-2.789 1.164,-4.274 1.286,-4.457c2.321,0.213 3.481,0.395 3.481,0.547v0.064c-1.628,4.472 -2.503,6.815 -2.625,7.027c-1.798,0.329 -3.001,0.532 -3.609,0.611l-4.457,-6.599v-0.127c0.042,-0.079 1.224,-0.872 3.545,-2.379z" data-paper-data="{&quot;origPos&quot;:null}" fill="#2b70c2"/><path d="M294.166,151.19306c2.752,1.416 4.277,2.242 4.575,2.479c-0.395,1.847 -0.629,2.798 -0.702,2.853h-5.76v0.1l1.613,1.996l2.534,-1.294c0.249,0.431 0.608,1.185 1.075,2.26c-0.218,0.073 -1.813,0.307 -4.785,0.702c-2.461,-1.622 -3.7,-2.467 -3.718,-2.534c0.395,-3.153 0.628,-4.73 0.701,-4.73c2.571,-1.094 4.059,-1.705 4.467,-1.832zM293.573,153.39906c-0.049,0.121 -0.371,0.604 -0.966,1.449c0,0.255 0.358,0.383 1.075,0.383c0,0.036 0.52,0.124 1.559,0.264c0.286,-0.395 0.428,-0.626 0.428,-0.693c-0.091,-0.541 -0.288,-0.811 -0.592,-0.811z" data-paper-data="{&quot;origPos&quot;:null}" fill="#2b70c2"/><path d="M311.365,148.43106c2.187,1.106 3.311,1.659 3.372,1.659c0,0.097 -0.456,0.975 -1.367,2.634h-0.064c-0.073,0 -1.121,-0.495 -3.144,-1.486l-1.03,1.377c1.744,0.838 3.861,1.908 6.353,3.208c-1.131,2.011 -1.933,3.348 -2.407,4.01l-5.149,0.456c-2.352,-1.586 -3.595,-2.406 -3.728,-2.461v-0.064c0,-0.17 0.477,-0.951 1.431,-2.342h0.118c0.377,0.225 1.559,0.872 3.546,1.941l1.203,-1.367c-3.652,-1.859 -5.675,-2.91 -6.07,-3.153v-0.055c1.16,-2.261 1.792,-3.406 1.895,-3.436c3.02,-0.614 4.7,-0.921 5.041,-0.921z" data-paper-data="{&quot;origPos&quot;:null}" fill="#2b70c2"/><path d="M320.033,151.19306c2.74,0.516 4.174,0.811 4.302,0.884v0.109c-0.59,1.665 -0.884,2.528 -0.884,2.589h-0.055c-0.152,0 -0.887,-0.237 -2.206,-0.711c-0.735,1.233 -1.103,1.893 -1.103,1.978l1.823,1.768c1.41,-1.325 2.127,-1.987 2.151,-1.987c1.1,1.44 1.65,2.248 1.65,2.424c-0.601,0.347 -1.65,1.027 -3.144,2.042c-2.893,-0.626 -4.454,-0.975 -4.685,-1.048l-1.431,-4.63z" data-paper-data="{&quot;origPos&quot;:null}" fill="#2b70c2"/><path d="M333.167,151.18406c1.203,0.674 1.941,1.112 2.215,1.312c-0.985,2.048 -1.513,3.09 -1.586,3.126h-0.064l-1.303,-1.139l-1.541,1.878l0.173,3.418c-0.079,0.073 -1.084,0.243 -3.017,0.51c-0.072,-0.522 -0.546,-3.084 -1.421,-7.683c0,-0.073 1.27,-0.262 3.809,-0.566c0.043,0.049 0.158,0.617 0.347,1.705c1.519,-1.708 2.315,-2.561 2.388,-2.561z" data-paper-data="{&quot;origPos&quot;:null}" fill="#2b70c2"/><path d="M337.487,151.18406c3.61,0.498 5.414,0.805 5.414,0.92c1.422,1.222 2.133,1.875 2.133,1.96c-0.577,1.805 -0.905,2.901 -0.984,3.29c0.577,1.282 0.905,2.048 0.984,2.297c0,0.073 -0.942,0.267 -2.826,0.583c-0.024,-0.103 -0.197,-0.334 -0.519,-0.692c-2.601,0.498 -4.001,0.747 -4.202,0.747l-1.385,-3.746l3.053,-1.613c0.492,0.079 1.261,0.118 2.306,0.118c0,-0.133 0.018,-0.537 0.055,-1.212c-0.176,0 -1.75,0.115 -4.722,0.346l-0.054,-0.118c0.413,-1.92 0.662,-2.88 0.747,-2.88zM339.383,156.54306c0,0.067 0.194,0.778 0.583,2.133h0.055c0.766,-0.498 1.148,-0.827 1.148,-0.985l0.119,-0.975c-0.146,0 -0.781,-0.057 -1.905,-0.173z" data-paper-data="{&quot;origPos&quot;:null}" fill="#2b70c2"/><path d="M345.909,148.44006c1.859,0.037 3.224,0.055 4.092,0.055c0.079,0 0.319,3.731 0.72,11.193c-0.309,0.079 -1.391,0.279 -3.244,0.601c-0.091,0 -0.392,-2.285 -0.903,-6.854c-0.042,-0.109 -0.264,-1.774 -0.665,-4.995z" data-paper-data="{&quot;origPos&quot;:null}" fill="#2b70c2"/><path d="M353.128,151.18406c3.609,0.498 5.414,0.805 5.414,0.92c1.422,1.222 2.133,1.875 2.133,1.96c-0.578,1.805 -0.906,2.901 -0.985,3.29c0.578,1.282 0.906,2.048 0.985,2.297c0,0.073 -0.942,0.267 -2.826,0.583c-0.024,-0.103 -0.197,-0.334 -0.519,-0.692c-2.601,0.498 -4.002,0.747 -4.202,0.747l-1.386,-3.746l3.054,-1.613c0.492,0.079 1.261,0.118 2.306,0.118c0,-0.133 0.018,-0.537 0.054,-1.212c-0.176,0 -1.75,0.115 -4.721,0.346l-0.055,-0.118c0.414,-1.92 0.663,-2.88 0.748,-2.88zM355.024,156.54306c0,0.067 0.194,0.778 0.583,2.133h0.055c0.765,-0.498 1.148,-0.827 1.148,-0.985l0.119,-0.975c-0.146,0 -0.781,-0.057 -1.905,-0.173z" data-paper-data="{&quot;origPos&quot;:null}" fill="#2b70c2"/><path d="M368.03,151.18406h0.037c1.622,0.954 2.497,1.452 2.625,1.494v0.083c-0.42,0.48 -1.191,1.312 -2.316,2.497c2.206,0.82 3.446,1.315 3.719,1.486l-2.06,2.543c-1.391,-1.191 -2.278,-1.936 -2.661,-2.234c-0.942,1.836 -1.528,2.914 -1.759,3.236h-0.037c-1.744,-0.614 -2.692,-0.978 -2.843,-1.094v-0.045l2.406,-3.145c-2.236,-0.923 -3.433,-1.464 -3.591,-1.622c0.984,-1.671 1.537,-2.561 1.658,-2.671c0.019,0.043 1.1,0.787 3.245,2.233c0.76,-1.403 1.285,-2.324 1.577,-2.761z" data-paper-data="{&quot;origPos&quot;:null}" fill="#2b70c2"/><path d="M377.117,151.20206c0.085,0.012 0.128,0.055 0.128,0.128l-0.948,5.25c1.811,-0.213 2.716,-0.383 2.716,-0.511c0.34,-2.102 0.574,-3.281 0.702,-3.536c2.242,0.461 3.485,0.735 3.728,0.82c-1.307,4.49 -2.024,6.83 -2.151,7.018c-2.285,1.604 -3.57,2.492 -3.856,2.662c-0.085,0 -1.54,-0.359 -4.366,-1.076v-0.064c0.748,-1.646 1.213,-2.47 1.395,-2.47l2.78,1.395l1.331,-2.279c-1.197,0.298 -1.893,0.447 -2.088,0.447l-3.545,-1.841c0.431,-3.962 0.705,-5.943 0.82,-5.943z" data-paper-data="{&quot;origPos&quot;:null}" fill="#2b70c2"/><path d="M388.346,148.76806l0.037,0.073c-0.608,5.366 -0.948,8.185 -1.021,8.459c-1.288,-0.122 -2.102,-0.207 -2.443,-0.256v-0.036l-0.583,-7.62c0.146,-0.049 1.483,-0.255 4.011,-0.62zM384.737,157.48206c0.043,0.024 0.991,0.097 2.844,0.219l0.036,0.073c-0.285,1.677 -0.467,2.515 -0.546,2.515h-2.115c-0.073,0 -0.17,-0.838 -0.292,-2.515c-0.024,0 -0.036,-0.073 -0.036,-0.219c0.073,-0.025 0.109,-0.049 0.109,-0.073z" data-paper-data="{&quot;origPos&quot;:null}" fill="#000000"/></g></g></g></svg>