<svg version="1.1" xmlns="http://www.w3.org/2000/svg" xmlns:xlink="http://www.w3.org/1999/xlink" width="614.14637" height="279.51758" viewBox="0,0,614.14637,279.51758"><defs><linearGradient x1="436.89268" y1="250.70175" x2="405.10732" y2="289.29826" gradientUnits="userSpaceOnUse" id="color-1"><stop offset="0" stop-color="#badbee"/><stop offset="1" stop-color="#64b9e0"/></linearGradient><linearGradient x1="289.89268" y1="144.70175" x2="258.10732" y2="183.29826" gradientUnits="userSpaceOnUse" id="color-2"><stop offset="0" stop-color="#badbee"/><stop offset="1" stop-color="#64b9e0"/></linearGradient><linearGradient x1="353.89268" y1="144.70175" x2="322.10732" y2="183.29826" gradientUnits="userSpaceOnUse" id="color-3"><stop offset="0" stop-color="#badbee"/><stop offset="1" stop-color="#64b9e0"/></linearGradient></defs><g transform="translate(6.03947,-117)"><g data-paper-data="{&quot;isPaintingLayer&quot;:true}" fill="none" fill-rule="nonzero" stroke="none" stroke-width="none" stroke-linecap="none" stroke-linejoin="miter" stroke-miterlimit="10" stroke-dasharray="" stroke-dashoffset="0" font-family="none" font-weight="none" font-size="none" text-anchor="none" style="mix-blend-mode: normal"><path d="M189,118h230v96h-230z" id="ID0.6973182107321918" fill="#cc7700" stroke="#663b00" stroke-width="2" stroke-linecap="butt"/><path d="M-5,208l611,4l-107,130l-501,-56z" id="ID0.16507360059767962" fill="#cc7700" stroke="#663b00" stroke-width="2" stroke-linecap="round"/><g id="ID0.6895080511458218"><g id="ID0.11192612908780575" stroke="none"><path d="M63.8221,306.9418c4.0604,4.3246 5.9832,9.892 5.8098,15.3934c-0.1733,5.5014 -2.7589,11.1744 -6.7675,14.9971c-4.5937,4.3815 -11.3636,8.0026 -18.323,8.9732c-5.8216,0.2686 -12.8941,-1.0345 -17.513,-5.5041c-4.0347,-3.7698 -4.2167,-10.4752 -3.0215,-16.3667c1.2394,-6.7328 4.2113,-13.4406 9.4247,-18.4507c3.9485,-3.8005 9.892,-5.9832 15.3934,-5.8098c5.5014,0.1734 10.9367,2.443 14.9971,6.7676z" id="ID0.47388385934755206" fill="#000000" stroke-width="1" stroke-linecap="round"/><path d="M37.5601,330.1903c3.8715,4.1235 6.6446,8.5497 7.9964,12.3708c1.3525,3.8204 1.2844,7.0351 -0.5258,8.7346c-1.8102,1.6996 -5.0227,1.5652 -8.7504,-0.0252c-3.7284,-1.5897 -7.9712,-4.636 -11.8428,-8.7595c-3.8715,-4.1235 -6.6446,-8.5498 -7.9964,-12.3709c-1.3525,-3.8204 -1.2844,-7.035 0.5258,-8.7346c1.8102,-1.6995 5.0227,-1.5651 8.7504,0.0253c3.7284,1.5897 7.9712,4.636 11.8428,8.7595z" id="ID0.504209709353745" fill="#252525" stroke-width="0.95659" stroke-linecap="butt"/></g><path d="M40.05,283.5h17v27h-17z" id="ID0.8161131460219622" fill="#b2b2b2" stroke="#666666" stroke-width="2" stroke-linecap="butt"/></g><g id="ID0.6895080511458218"><g id="ID0.11192612908780575" stroke="none"><path d="M268.8721,331.9418c4.0604,4.3246 5.9832,9.892 5.8098,15.3934c-0.1733,5.5014 -2.7589,11.1744 -6.7675,14.9971c-4.5937,4.3815 -11.3636,8.0026 -18.323,8.9732c-5.8216,0.2686 -12.8941,-1.0345 -17.513,-5.5041c-4.0347,-3.7698 -4.2167,-10.4752 -3.0215,-16.3667c1.2394,-6.7328 4.2113,-13.4406 9.4247,-18.4507c3.9485,-3.8005 9.892,-5.9832 15.3934,-5.8098c5.5014,0.1734 10.9367,2.443 14.9971,6.7676z" id="ID0.47388385934755206" fill="#000000" stroke-width="1" stroke-linecap="round"/><path d="M242.6101,355.1903c3.8715,4.1235 6.6446,8.5497 7.9964,12.3708c1.3525,3.8204 1.2844,7.0351 -0.5258,8.7346c-1.8102,1.6996 -5.0227,1.5652 -8.7504,-0.0252c-3.7284,-1.5897 -7.9712,-4.636 -11.8428,-8.7595c-3.8715,-4.1235 -6.6446,-8.5498 -7.9964,-12.3709c-1.3525,-3.8204 -1.2844,-7.035 0.5258,-8.7346c1.8102,-1.6995 5.0227,-1.5651 8.7504,0.0253c3.7284,1.5897 7.9712,4.636 11.8428,8.7595z" id="ID0.504209709353745" fill="#252525" stroke-width="0.95659" stroke-linecap="butt"/></g><path d="M245.1,308.5h17v27h-17z" id="ID0.8161131460219622" fill="#b2b2b2" stroke="#666666" stroke-width="2" stroke-linecap="butt"/></g><g id="ID0.6895080511458218"><g id="ID0.11192612908780575" stroke="none"><path d="M437.6721,350.9418c4.0604,4.3246 5.9832,9.892 5.8098,15.3934c-0.1733,5.5014 -2.7589,11.1744 -6.7675,14.9971c-4.5937,4.3815 -11.3636,8.0026 -18.323,8.9732c-5.8216,0.2686 -12.8941,-1.0345 -17.513,-5.5041c-4.0347,-3.7698 -4.2167,-10.4752 -3.0215,-16.3667c1.2394,-6.7328 4.2113,-13.4406 9.4247,-18.4507c3.9485,-3.8005 9.892,-5.9832 15.3934,-5.8098c5.5014,0.1734 10.9367,2.443 14.9971,6.7676z" id="ID0.47388385934755206" fill="#000000" stroke-width="1" stroke-linecap="round"/><path d="M411.4101,374.1903c3.8715,4.1235 6.6446,8.5497 7.9964,12.3708c1.3525,3.8204 1.2844,7.0351 -0.5258,8.7346c-1.8102,1.6996 -5.0227,1.5652 -8.7504,-0.0252c-3.7284,-1.5897 -7.9712,-4.636 -11.8428,-8.7595c-3.8715,-4.1235 -6.6446,-8.5498 -7.9964,-12.3709c-1.3525,-3.8204 -1.2844,-7.035 0.5258,-8.7346c1.8102,-1.6995 5.0227,-1.5651 8.7504,0.0253c3.7284,1.5897 7.9712,4.636 11.8428,8.7595z" id="ID0.504209709353745" fill="#252525" stroke-width="0.95659" stroke-linecap="butt"/></g><path d="M413.9,327.5h17v27h-17z" id="ID0.8161131460219622" fill="#b2b2b2" stroke="#666666" stroke-width="2" stroke-linecap="butt"/></g><path d="M401.70174,254.10732c8.77729,-10.65813 24.53281,-12.18286 35.19094,-3.40558c10.65813,8.77728 12.18286,24.53281 3.40557,35.19093c-8.77729,10.65813 -24.53281,12.18286 -35.19094,3.40557c-10.65813,-8.77729 -12.18286,-24.5328 -3.40557,-35.19093z" data-paper-data="{&quot;origPos&quot;:null,&quot;origRot&quot;:0}" fill="url(#color-1)" stroke="#965700" stroke-width="7" stroke-linecap="butt"/><path d="M254.70174,148.10732c8.77729,-10.65813 24.53281,-12.18286 35.19094,-3.40558c10.65813,8.77728 12.18286,24.53281 3.40557,35.19093c-8.77729,10.65813 -24.53281,12.18286 -35.19094,3.40557c-10.65813,-8.77729 -12.18286,-24.5328 -3.40557,-35.19093z" data-paper-data="{&quot;origPos&quot;:null,&quot;origRot&quot;:0}" fill="url(#color-2)" stroke="#965700" stroke-width="7" stroke-linecap="butt"/><path d="M318.70175,148.10732c8.77729,-10.65813 24.5328,-12.18286 35.19094,-3.40558c10.65813,8.77728 12.18286,24.53281 3.40557,35.19093c-8.77729,10.65813 -24.53281,12.18286 -35.19094,3.40557c-10.65813,-8.77729 -12.18286,-24.5328 -3.40557,-35.19093z" data-paper-data="{&quot;origPos&quot;:null,&quot;origRot&quot;:0}" fill="url(#color-3)" stroke="#965700" stroke-width="7" stroke-linecap="butt"/></g></g></svg>