<svg version="1.1" xmlns="http://www.w3.org/2000/svg" xmlns:xlink="http://www.w3.org/1999/xlink" width="441.55828" height="69.66968" viewBox="0,0,441.55828,69.66968"><defs><linearGradient x1="24.5327" y1="284.2076" x2="24.5327" y2="341.819" gradientUnits="userSpaceOnUse" id="color-1"><stop offset="0" stop-color="#ffffff"/><stop offset="1" stop-color="#ffffff"/></linearGradient><radialGradient cx="433.55778" cy="324.91029" r="18.72682" gradientUnits="userSpaceOnUse" id="color-2"><stop offset="0" stop-color="#ffff00"/><stop offset="1" stop-color="#ff9400"/></radialGradient><radialGradient cx="437.13623" cy="326.02495" r="12.81669" gradientUnits="userSpaceOnUse" id="color-3"><stop offset="0" stop-color="#bda501"/><stop offset="1" stop-color="#c07801"/></radialGradient></defs><g transform="translate(-18.50356,-278.17846)"><g data-paper-data="{&quot;isPaintingLayer&quot;:true}" fill="none" fill-rule="nonzero" stroke="none" stroke-width="none" stroke-linecap="butt" stroke-linejoin="miter" stroke-miterlimit="10" stroke-dasharray="" stroke-dashoffset="0" font-family="none" font-weight="none" font-size="none" text-anchor="none" style="mix-blend-mode: normal"><path d="M24.5327,284.2076h429.5v57.6114h-429.5z" data-paper-data="{&quot;origPos&quot;:null}" id="ID0.3184669064357877" fill="#ffffff" stroke="url(#color-1)" stroke-width="12.05828"/><text transform="translate(25.78827,322.12447) scale(0.7218,0.72179)" font-size="22" xml:space="preserve" data-paper-data="{&quot;origPos&quot;:null}" id="ID0.08681221166625619" fill="#2492d1" fill-rule="nonzero" stroke="none" stroke-width="1" stroke-linecap="butt" stroke-linejoin="miter" stroke-miterlimit="10" stroke-dasharray="" stroke-dashoffset="0" font-family="Sans Serif" font-weight="400" text-anchor="start" style="mix-blend-mode: normal"><tspan x="0" dy="0">Get 2 big stars.</tspan></text><g data-paper-data="{&quot;origPos&quot;:null}" id="text52" fill="#2392d1" stroke="none" stroke-width="0.26458"><path d="M34.76308,284.96363c2.90165,2.10735 4.59159,3.40824 5.06979,3.90265c-0.93209,2.75576 -1.39814,4.17823 -1.39814,4.26738c0.22695,0.22694 0.83888,1.0091 1.83583,2.34645v0.14587c-1.50757,2.6585 -2.38698,4.12961 -2.63823,4.41328l-10.07879,0.74162c-0.154,-0.59979 -0.91588,-5.26026 -2.28566,-13.98144zM30.7875,288.72039l0.43767,4.34031c2.13977,-0.51873 3.21776,-0.81456 3.23397,-0.88751c0.09727,-0.24317 0.32016,-1.02938 0.66867,-2.35861zM32.55038,294.60474h-0.80242c-0.10536,0.01621 -0.15804,0.06484 -0.15804,0.14587c-0.04862,1.05367 -0.07295,1.83581 -0.07295,2.34644c-0.04862,0.25936 -0.07295,0.40932 -0.07295,0.44985l3.8297,-0.59574l-0.07295,-0.36474v-0.43767c0,-0.34853 -0.02431,-0.88751 -0.07295,-1.61697c-1.15904,0.04862 -2.01818,0.07294 -2.57745,0.07294z" id="path667"/><path d="M43.18842,283.76002l4.778,0.75378c-0.59977,2.29376 -0.99288,3.44065 -1.17929,3.44065c-2.51262,-0.1702 -3.76891,-0.33635 -3.76891,-0.49847v-3.52576c0.02431,-0.11346 0.08105,-0.17018 0.17022,-0.17018zM41.85108,289.54712h0.07295c3.69597,0.67273 5.54393,1.06582 5.54393,1.1793c-1.06178,6.01404 -1.70614,9.36554 -1.93309,10.05448h-3.85401c-0.11348,0 -0.17021,-0.05672 -0.17021,-0.17018z" id="path669"/><path d="M57.43733,288.67175c3.4447,0.08915 5.16706,0.23909 5.16706,0.44984c0.59168,8.97244 0.88753,13.74639 0.88753,14.32185c-2.60986,1.66158 -4.47811,2.78819 -5.60473,3.37987c-3.97155,-1.24819 -5.9573,-1.96147 -5.9573,-2.13978c1.28062,-1.87229 2.02224,-2.82059 2.22486,-2.84491c2.16408,1.06988 3.40824,1.60482 3.73244,1.60482l1.15498,-1.51971c-0.308,-1.25631 -0.51468,-1.99793 -0.62004,-2.22488c-0.17831,0 -2.37483,0.35663 -6.58952,1.06989c-2.30997,-3.75271 -3.46496,-5.67768 -3.46496,-5.77494c1.99387,-3.18534 3.20966,-5.05358 3.64733,-5.60473h0.08511c0.23505,0 1.98577,0.38499 5.25216,1.15499v-0.26746c0,-0.3161 -0.02836,-0.82269 -0.0851,-1.51973zM53.61979,293.82665c0.11348,0.25125 0.47011,1.5886 1.06988,4.01205c0.75378,-0.24315 1.90876,-0.68892 3.46495,-1.33734c-0.29989,-1.45895 -0.44983,-2.28972 -0.44983,-2.49234l-0.43768,-0.08509h-0.53494c-0.68085,0 -1.71829,-0.03241 -3.11239,-0.09724z" id="path671"/><path d="M79.80762,284.96363l5.30079,3.91481c-0.72946,3.33123 -1.19147,4.99684 -1.38598,4.99684c-0.04052,0 -1.01315,0.81863 -2.91786,2.45587c-1.18335,-0.05672 -2.53693,-0.13373 -4.0607,-0.23099l-0.15806,4.37679c-0.33231,0.09724 -1.76693,0.19856 -4.30386,0.30395c-0.308,0 -0.46199,-0.87131 -0.46199,-2.61391c-0.55925,-7.21363 -0.83888,-11.1041 -0.83888,-11.67147c0.94831,-0.20262 3.8905,-0.71325 8.82654,-1.53188zM76.51288,288.41645v5.06979c1.99387,-0.35664 2.99081,-0.56332 2.99081,-0.62004l0.693,-2.99082c-0.98073,-0.40527 -2.20867,-0.89156 -3.6838,-1.45893z" id="path673"/><path d="M95.22368,288.63529c1.60482,0.89968 2.5896,1.48324 2.95433,1.75072c-1.31304,2.73143 -2.01818,4.12148 -2.11544,4.17012h-0.08511l-1.73857,-1.51973l-2.05466,2.5045l0.23099,4.55917c-0.10538,0.09724 -1.44678,0.3242 -4.02423,0.68084c-0.09727,-0.69704 -0.72946,-4.11337 -1.89661,-10.249c0,-0.09724 1.69398,-0.34851 5.08195,-0.75378c0.05674,0.06484 0.21074,0.82267 0.46199,2.27351c2.02629,-2.27756 3.08808,-3.41634 3.18534,-3.41634z" id="path675"/><path d="M100.81626,283.76002l4.778,0.75378c-0.59977,2.29376 -0.99289,3.44065 -1.1793,3.44065c-2.51262,-0.1702 -3.7689,-0.33635 -3.7689,-0.49847v-3.52576c0.02431,-0.11346 0.08105,-0.17018 0.17022,-0.17018zM99.4789,289.54712h0.07295c3.69597,0.67273 5.54393,1.06582 5.54393,1.1793c-1.06178,6.01404 -1.70614,9.36554 -1.93309,10.05448h-3.85402c-0.11348,0 -0.17021,-0.05672 -0.17021,-0.17018z" id="path677"/><path d="M116.17152,288.62313c1.16714,2.31807 1.75072,3.51764 1.75072,3.59869c-0.09727,0 -1.52376,1.37382 -4.27953,4.12149h0.07295c0.07295,0 1.37383,-0.43362 3.90266,-1.30087c0.10538,0.09724 0.36068,1.55211 0.76593,4.36464c0,0.12965 -3.28665,0.5876 -9.85995,1.37382c-0.10538,-0.27558 -0.36068,-1.26846 -0.76593,-2.97866c0.27558,-0.38094 1.60078,-1.96144 3.97559,-4.74154h-0.08511l-4.51053,1.51972c-0.154,-0.35663 -0.53494,-2.11544 -1.14283,-5.27647c0,-0.29989 1.22388,-0.44983 3.67164,-0.44983z" id="path679"/><path d="M126.50564,288.64745c3.67164,1.88851 5.70605,2.99081 6.1032,3.30691c-0.52684,2.46397 -0.83888,3.73241 -0.93615,3.80537h-7.68371v0.13371l2.15193,2.66254l3.37987,-1.72639c0.33231,0.57546 0.81052,1.5805 1.43462,3.01512c-0.29179,0.09724 -2.41939,0.40929 -6.38284,0.93615c-3.2826,-2.16408 -4.93607,-3.2907 -4.96038,-3.37987c0.52684,-4.2066 0.83888,-6.30989 0.93615,-6.30989c3.42849,-1.45893 5.41426,-2.27351 5.9573,-2.4437zM125.71537,291.58962c-0.06484,0.16212 -0.49441,0.80647 -1.28871,1.93309c0,0.34041 0.4782,0.51063 1.43462,0.51063c0,0.04862 0.693,0.16614 2.07898,0.35257c0.38094,-0.52682 0.5714,-0.83483 0.5714,-0.92399c-0.12158,-0.72135 -0.38499,-1.08203 -0.79026,-1.08203z" id="path681"/></g><g stroke="none"><text transform="translate(283,338.98128) scale(0.60677,0.60677)" font-size="40" xml:space="preserve" data-paper-data="{&quot;origPos&quot;:null}" fill="#2392d1" fill-rule="nonzero" stroke="none" stroke-width="1" stroke-linecap="butt" stroke-linejoin="miter" stroke-miterlimit="10" stroke-dasharray="" stroke-dashoffset="0" font-family="Sans Serif" font-weight="normal" text-anchor="start" style="mix-blend-mode: normal"><tspan x="0" dy="0">Reward: +10</tspan></text><path d="M438.22633,321.71811c2.42757,0 4.62707,0.98611 6.21986,2.5789c1.5928,1.59272 2.57884,3.79221 2.57884,6.21979c0,2.4275 -0.98603,4.62709 -2.57884,6.21981c-1.5928,1.5928 -3.79229,2.5789 -6.21986,2.5789c-2.4275,0 -4.62699,-0.98611 -6.2198,-2.5789c-1.5928,-1.59272 -2.5789,-3.79231 -2.5789,-6.21981c0,-2.42757 0.98611,-4.62706 2.5789,-6.21979c1.5928,-1.5928 3.7923,-2.5789 6.2198,-2.5789z" data-paper-data="{&quot;origPos&quot;:null}" id="ID0.7142658131197095" fill="url(#color-2)" stroke-width="0.48028"/><path d="M436.38196,323.73549h3.47092v13.31086h-3.47092z" data-paper-data="{&quot;origPos&quot;:null}" id="ID0.06001657713204622" fill="url(#color-3)" stroke-width="0.59798"/></g></g></g></svg>