<svg version="1.1" xmlns="http://www.w3.org/2000/svg" xmlns:xlink="http://www.w3.org/1999/xlink" width="647" height="407.00002" viewBox="0,0,647,407.00002"><defs><linearGradient x1="-3.5" y1="377.50002" x2="-3.5" y2="324.50002" gradientUnits="userSpaceOnUse" id="color-1"><stop offset="0" stop-color="#214785"/><stop offset="1" stop-color="#214785" stop-opacity="0"/></linearGradient><linearGradient x1="320.33333" y1="-29.5" x2="320.33333" y2="177.16667" gradientUnits="userSpaceOnUse" id="color-2"><stop offset="0" stop-color="#214784"/><stop offset="1" stop-color="#214784" stop-opacity="0"/></linearGradient></defs><g transform="translate(3.5,29.5)"><g data-paper-data="{&quot;isPaintingLayer&quot;:true}" fill-rule="nonzero" stroke-linejoin="miter" stroke-miterlimit="10" stroke-dasharray="" stroke-dashoffset="0" style="mix-blend-mode: normal"><path d="M-3.5,324.50002h647v53h-647z" data-paper-data="{&quot;origPos&quot;:null,&quot;index&quot;:null}" fill="url(#color-1)" stroke="none" stroke-width="1" stroke-linecap="butt"/><path d="M194.33333,91.47103c0,-51.84921 0,-120.97103 0,-120.97103h251c0,0 0,71.59083 0,120.97103c0,16.46007 -9.70017,22.02897 -20.49798,22.02897c-32.3934,0 -125.82389,0 -210.08907,0c-9.52747,0 -20.41296,-4.7459 -20.41296,-22.02897z" data-paper-data="{&quot;origPos&quot;:null}" fill="url(#color-2)" stroke="none" stroke-width="0" stroke-linecap="butt"/><g stroke-width="3.5"><path d="M433.59251,330.79763c0,-7.59391 6.15609,-13.75 13.75,-13.75c7.59391,0 13.75,6.15609 13.75,13.75c0,7.59391 -6.15609,13.75 -13.75,13.75c-7.59391,0 -13.75,-6.15609 -13.75,-13.75z" data-paper-data="{&quot;origPos&quot;:null}" fill="#ffffff" stroke="#966a24" stroke-linecap="butt"/><path d="M455.59251,331.54763h-8.5v-7.5" data-paper-data="{&quot;origPos&quot;:null}" fill="none" stroke="#000000" stroke-linecap="round"/></g></g></g></svg>