<svg version="1.1" xmlns="http://www.w3.org/2000/svg" xmlns:xlink="http://www.w3.org/1999/xlink" width="144.36134" height="41.01217"><g transform="translate(-168.05913,-159.45783)"><g data-paper-data="{&quot;isPaintingLayer&quot;:true}" fill="#ffffff" fill-rule="nonzero" stroke="none" stroke-width="none" stroke-linecap="butt" stroke-linejoin="miter" stroke-miterlimit="10" stroke-dasharray="" stroke-dashoffset="0" font-family="none" font-weight="none" font-size="none" text-anchor="none" style="mix-blend-mode: normal"><text transform="translate(194.2462,195.77837) scale(0.7218,0.72179)" font-size="22" xml:space="preserve" data-paper-data="{&quot;origPos&quot;:null}" id="ID0.08681221166625619" fill="#ffffff" fill-rule="nonzero" stroke="none" stroke-width="1" stroke-linecap="butt" stroke-linejoin="miter" stroke-miterlimit="10" stroke-dasharray="" stroke-dashoffset="0" font-family="Sans Serif" font-weight="400" text-anchor="start" style="mix-blend-mode: normal"><tspan x="0" dy="0">Get 15 stars.</tspan></text><g data-paper-data="{&quot;origPos&quot;:null}" id="text48" stroke-width="0.26458"><path d="M177.61514,159.45783c2.91787,1.47514 4.41732,2.21271 4.49836,2.21271c0,0.12965 -0.60789,1.30085 -1.82367,3.5136h-0.08511c-0.09727,0 -1.4954,-0.66057 -4.19442,-1.98172l-1.37382,1.83583c2.32619,1.11852 5.15084,2.54502 8.47397,4.27953c-1.50757,2.68281 -2.57745,4.46596 -3.20966,5.34943l-6.86913,0.60789c-3.1367,-2.11547 -4.79422,-3.20965 -4.97253,-3.2826v-0.08509c0,-0.22694 0.63626,-1.26846 1.90876,-3.12454h0.15804c0.50253,0.29989 2.07897,1.16308 4.72938,2.5896l1.60482,-1.82367c-4.87121,-2.48019 -7.57023,-3.88238 -8.09707,-4.20658v-0.07294c1.5481,-3.01512 2.39102,-4.54295 2.52881,-4.58347c4.02827,-0.81863 6.26936,-1.22794 6.72325,-1.22794z" id="path684"/><path d="M188.03434,159.45783l5.34943,0.94831l-0.51063,4.06069c1.06178,-0.05672 1.83987,-0.08509 2.33429,-0.08509h0.7781l0.17022,-0.08509l0.0851,0.17017c-0.17022,2.46397 -0.3161,3.84998 -0.43767,4.15796l-0.17022,-0.09725c-0.12158,0 -1.21578,-0.05672 -3.2826,-0.17018c-0.11348,1.90471 -0.19859,4.18227 -0.2553,6.83267l-0.17021,0.08509c-2.60986,-0.17022 -4.16606,-0.31612 -4.66859,-0.4377l0.08511,-0.34041c0,-0.70516 0.11348,-2.89355 0.34041,-6.56519c-2.1884,-0.12155 -3.28261,-0.26744 -3.28261,-0.43768c0.11348,-2.70714 0.25937,-4.06071 0.43768,-4.06071l3.19749,0.60789v-1.04557c0,-0.85104 -0.03242,-2.00197 -0.09726,-3.4528c0.06484,0 0.09726,-0.02837 0.09726,-0.08509z" id="path686"/><path d="M199.37755,163.12948c4.81447,0.66463 7.22172,1.07394 7.22172,1.22794c1.89661,1.62915 2.84491,2.50046 2.84491,2.61394c-0.76999,2.40723 -1.20766,3.8702 -1.31304,4.38895c0.76999,1.7102 1.20766,2.73145 1.31304,3.06375c0,0.09724 -1.2563,0.3566 -3.7689,0.7781c-0.03241,-0.13779 -0.26342,-0.44579 -0.693,-0.92399c-3.46902,0.66463 -5.33725,0.99694 -5.60473,0.99694l-1.84798,-4.99686l4.07285,-2.15191c0.65652,0.10534 1.68183,0.15802 3.07592,0.15802c0,-0.17831 0.02431,-0.71729 0.07295,-1.61697c-0.23505,0 -2.3343,0.154 -6.29773,0.46199l-0.07295,-0.15802c0.55115,-2.56126 0.88347,-3.84188 0.99695,-3.84188zM201.90636,170.27826c0,0.08915 0.25936,1.03745 0.77809,2.84493h0.07295c1.02125,-0.66463 1.53188,-1.10231 1.53188,-1.31305l0.15806,-1.30087c-0.19452,0 -1.04151,-0.07701 -2.54098,-0.23101z" id="path688"/><path d="M219.34061,163.12948c1.60482,0.89968 2.5896,1.48324 2.95434,1.75072c-1.31304,2.73145 -2.01818,4.12149 -2.11544,4.17013h-0.08511l-1.73857,-1.51972l-2.05466,2.5045l0.23099,4.55916c-0.10538,0.09724 -1.44678,0.3242 -4.02423,0.68085c-0.09727,-0.69706 -0.72946,-4.11339 -1.89661,-10.249c0,-0.09724 1.69398,-0.34851 5.08195,-0.75378c0.05674,0.06484 0.21074,0.82266 0.46199,2.27349c2.02629,-2.27756 3.08808,-3.41634 3.18534,-3.41634z" id="path690"/><path d="M238.98758,159.45783c2.91787,1.47514 4.41732,2.21271 4.49837,2.21271c0,0.12965 -0.60789,1.30085 -1.82368,3.5136h-0.08511c-0.09727,0 -1.49542,-0.66057 -4.19444,-1.98172l-1.37382,1.83583c2.32619,1.11852 5.15084,2.54502 8.47397,4.27953c-1.50757,2.68281 -2.57745,4.46596 -3.20966,5.34943l-6.86913,0.60789c-3.1367,-2.11547 -4.79422,-3.20965 -4.97253,-3.2826v-0.08509c0,-0.22694 0.63626,-1.26846 1.90876,-3.12454h0.15806c0.50253,0.29989 2.07898,1.16308 4.72939,2.5896l1.60483,-1.82367c-4.87121,-2.48019 -7.57023,-3.88238 -8.09707,-4.20658v-0.07294c1.5481,-3.01512 2.39102,-4.54295 2.52881,-4.58347c4.02827,-0.81863 6.26936,-1.22794 6.72325,-1.22794z" id="path692"/><path d="M249.40678,159.45783l5.3494,0.94831l-0.51063,4.06069c1.06178,-0.05672 1.83987,-0.08509 2.33429,-0.08509h0.7781l0.17022,-0.08509l0.0851,0.17017c-0.17022,2.46397 -0.3161,3.84998 -0.43767,4.15796l-0.17022,-0.09725c-0.12158,0 -1.21578,-0.05672 -3.2826,-0.17018c-0.11348,1.90471 -0.19859,4.18227 -0.2553,6.83267l-0.17021,0.08509c-2.60988,-0.17022 -4.16608,-0.31612 -4.66859,-0.4377l0.08511,-0.34041c0,-0.70516 0.11348,-2.89355 0.34041,-6.56519c-2.1884,-0.12155 -3.28261,-0.26744 -3.28261,-0.43768c0.11348,-2.70714 0.25937,-4.06071 0.43768,-4.06071l3.19749,0.60789v-1.04557c0,-0.85104 -0.03242,-2.00197 -0.09726,-3.4528c0.06484,0 0.09726,-0.02837 0.09726,-0.08509z" id="path694"/><path d="M267.63128,163.12948c1.60482,0.89968 2.5896,1.48324 2.95434,1.75072c-1.31304,2.73145 -2.01818,4.12149 -2.11544,4.17013h-0.08511l-1.73857,-1.51972l-2.05466,2.5045l0.23099,4.55916c-0.10538,0.09724 -1.44678,0.3242 -4.02423,0.68085c-0.09727,-0.69706 -0.72946,-4.11339 -1.89661,-10.249c0,-0.09724 1.69398,-0.34851 5.08195,-0.75378c0.05674,0.06484 0.21074,0.82266 0.46199,2.27349c2.02629,-2.27756 3.08808,-3.41634 3.18534,-3.41634z" id="path696"/><path d="M278.43954,163.14165c3.67164,1.88851 5.70605,2.9908 6.1032,3.3069c-0.52684,2.46397 -0.83888,3.73244 -0.93614,3.80539h-7.68371v0.13371l2.15193,2.66256l3.37987,-1.72641c0.33231,0.57549 0.81052,1.58052 1.43462,3.01514c-0.29179,0.09724 -2.41939,0.40929 -6.38282,0.93615c-3.2826,-2.16408 -4.93607,-3.29072 -4.96038,-3.37987c0.52684,-4.2066 0.83888,-6.30989 0.93615,-6.30989c3.42849,-1.45893 5.41426,-2.27351 5.9573,-2.4437zM277.64927,166.08384c-0.06484,0.1621 -0.49441,0.80645 -1.28871,1.93309c0,0.34041 0.4782,0.51063 1.43461,0.51063c0,0.04862 0.693,0.16614 2.07898,0.35257c0.38094,-0.52684 0.57141,-0.83485 0.57141,-0.92399c-0.12158,-0.72135 -0.38499,-1.08203 -0.79026,-1.08203z" id="path698"/><path d="M287.49707,163.12948c4.81447,0.66463 7.22172,1.07394 7.22172,1.22794c1.89661,1.62915 2.84491,2.50046 2.84491,2.61394c-0.76999,2.40723 -1.20767,3.8702 -1.31305,4.38895c0.76999,1.7102 1.20767,2.73145 1.31305,3.06375c0,0.09724 -1.25631,0.3566 -3.76891,0.7781c-0.03243,-0.13779 -0.26342,-0.44579 -0.693,-0.92399c-3.46902,0.66463 -5.33725,0.99694 -5.60473,0.99694l-1.84799,-4.99686l4.07285,-2.15191c0.65652,0.10534 1.68183,0.15802 3.07592,0.15802c0,-0.17831 0.02431,-0.71729 0.07295,-1.61697c-0.23505,0 -2.3343,0.154 -6.29773,0.46199l-0.07295,-0.15802c0.55115,-2.56126 0.88347,-3.84188 0.99695,-3.84188zM290.0259,170.27826c0,0.08915 0.25936,1.03745 0.77809,2.84493h0.07295c1.02125,-0.66463 1.53188,-1.10231 1.53188,-1.31305l0.15806,-1.30087c-0.19452,0 -1.04151,-0.07701 -2.54098,-0.23101z" id="path700"/><path d="M304.09243,159.45783c0.11348,0.32422 0.36878,2.62204 0.76593,6.89347l3.64733,-4.08503h0.0851c0.56737,0.4701 1.617,1.46299 3.14886,2.97866v0.08509l-3.48929,2.88138c2.62608,1.75884 4.01611,2.75172 4.17011,2.97866c-1.65346,1.83989 -2.64634,2.88952 -2.97866,3.14888l-4.24306,-3.91481c0.17022,1.75072 0.2553,3.05565 0.2553,3.91481c-0.20262,0.11346 -1.70614,0.4255 -4.51053,0.93615c-0.22695,-1.13473 -0.96452,-6.01 -2.21271,-14.6258c0.51873,-0.17022 2.30593,-0.56737 5.36158,-1.19147z" id="path702"/></g></g></g></svg>