<svg version="1.1" xmlns="http://www.w3.org/2000/svg" xmlns:xlink="http://www.w3.org/1999/xlink" width="502.12012" height="373.37088" viewBox="0,0,502.12012,373.37088"><defs><radialGradient cx="480.35437" cy="180.06851" r="180.93093" gradientUnits="userSpaceOnUse" id="color-1"><stop offset="0" stop-color="#ececec"/><stop offset="1" stop-color="#616161"/></radialGradient><linearGradient x1="497.99701" y1="180.06851" x2="462.71172" y2="180.06851" gradientUnits="userSpaceOnUse" id="color-2"><stop offset="0" stop-color="#ececec" stop-opacity="0"/><stop offset="1" stop-color="#ececec"/></linearGradient></defs><g transform="translate(4.12311,0.86242)"><g data-paper-data="{&quot;isPaintingLayer&quot;:true}" fill-rule="nonzero" stroke-linecap="butt" stroke-linejoin="miter" stroke-miterlimit="10" stroke-dasharray="" stroke-dashoffset="0" style="mix-blend-mode: normal"><path d="M329.95045,260.55577v-25.91041h142.30862v25.91041z" data-paper-data="{&quot;index&quot;:null}" fill="#674521" stroke="#4b3318" stroke-width="7"/><path d="M291.38266,293.01824v-25.91041h130.29661v25.91041z" data-paper-data="{&quot;index&quot;:null}" fill="#805c39" stroke="#674521" stroke-width="7"/><path d="M422.72164,293.01824v-25.91041h61.30862v25.91041z" data-paper-data="{&quot;index&quot;:null}" fill="#805c39" stroke="#674521" stroke-width="7"/><path d="M253.85723,325.18288v-25.91041h130.29661v25.91041z" data-paper-data="{&quot;index&quot;:null}" fill="#674521" stroke="#4b3318" stroke-width="7"/><path d="M215.28944,357.64536v-25.91041h130.29661v25.91042z" data-paper-data="{&quot;index&quot;:null}" fill="#805c39" stroke="#674521" stroke-width="7"/><path d="M385.19622,325.18288v-25.91041h94.30862v25.91041z" data-paper-data="{&quot;index&quot;:null}" fill="#674521" stroke="#4b3318" stroke-width="7"/><path d="M346.62842,357.64536v-25.91041h142.30862v25.91042z" data-paper-data="{&quot;index&quot;:null}" fill="#805c39" stroke="#674521" stroke-width="7"/><g data-paper-data="{&quot;index&quot;:null}" fill="#cc1919" stroke="none"><g><path d="M204.09443,365.39147v-10.28539h11.9965v10.28539z" stroke-width="NaN"/><path d="M216.30514,355.10608v-10.28539h11.9965v10.28539z" stroke-width="NaN"/><path d="M228.64034,344.82491v-10.28539h11.9965v10.28539z" stroke-width="NaN"/><path d="M240.85106,334.53952v-10.28539h11.9965v10.28539z" stroke-width="NaN"/></g><g><path d="M253.18626,324.25836v-10.28539h11.9965v10.28539z" stroke-width="NaN"/><path d="M265.39698,313.97297v-10.28539h11.9965v10.28539z" stroke-width="NaN"/><path d="M277.73219,303.69181v-10.28539h11.9965v10.28539z" stroke-width="NaN"/><path d="M289.9429,293.40641v-10.28539h11.9965v10.28539z" stroke-width="NaN"/></g><g><path d="M302.27811,282.64696v-10.28539h11.9965v10.28539z" stroke-width="NaN"/><path d="M314.48882,272.36157v-10.28539h11.9965v10.28539z" stroke-width="NaN"/><path d="M326.82403,262.08041v-10.28539h11.9965v10.28539z" stroke-width="NaN"/><path d="M339.03475,251.79502v-10.28539h11.9965v10.28539z" stroke-width="NaN"/></g><g stroke-width="NaN"><path d="M351.36996,241.51386v-10.28539h11.99649v10.28539z" stroke-width="NaN"/></g></g><path d="M206.0871,366h-210.21021v-31h210.21022z" data-paper-data="{&quot;origPos&quot;:null,&quot;index&quot;:null}" fill="#cc1919" stroke="none" stroke-width="1"/><path d="M158.03304,372.50846l205.70571,-172.67268h37.54054l-206.2042,172.67268z" data-paper-data="{&quot;index&quot;:null}" fill="#cc1919" stroke="none" stroke-width="0"/><path d="M464.09911,231h-99.73573v-31h99.73574z" data-paper-data="{&quot;index&quot;:null}" fill="#cc1919" stroke="none" stroke-width="1"/><g data-paper-data="{&quot;index&quot;:null}" stroke="none" stroke-width="0"><path d="M462.71172,360.99944v-361.86186h35.28529v361.86186z" fill="url(#color-1)"/><path d="M462.71172,360.99944v-361.86186h35.28529v361.86186z" fill="url(#color-2)"/></g></g></g></svg>