<svg version="1.1" xmlns="http://www.w3.org/2000/svg" xmlns:xlink="http://www.w3.org/1999/xlink" width="441.55828" height="69.66968" viewBox="0,0,441.55828,69.66968"><defs><linearGradient x1="24.5327" y1="284.20761" x2="24.5327" y2="341.81902" gradientUnits="userSpaceOnUse" id="color-1"><stop offset="0" stop-color="#ffffff"/><stop offset="1" stop-color="#ffffff"/></linearGradient><radialGradient cx="433.55778" cy="324.91031" r="18.72682" gradientUnits="userSpaceOnUse" id="color-2"><stop offset="0" stop-color="#ffff00"/><stop offset="1" stop-color="#ff9400"/></radialGradient><radialGradient cx="437.13623" cy="326.02495" r="12.81669" gradientUnits="userSpaceOnUse" id="color-3"><stop offset="0" stop-color="#bda501"/><stop offset="1" stop-color="#c07801"/></radialGradient></defs><g transform="translate(-18.50356,-278.17847)"><g data-paper-data="{&quot;isPaintingLayer&quot;:true}" fill="none" fill-rule="nonzero" stroke="none" stroke-width="none" stroke-linecap="butt" stroke-linejoin="miter" stroke-miterlimit="10" stroke-dasharray="" stroke-dashoffset="0" font-family="none" font-weight="none" font-size="none" text-anchor="none" style="mix-blend-mode: normal"><path d="M24.5327,284.20761h429.5v57.6114h-429.5z" data-paper-data="{&quot;origPos&quot;:null}" id="ID0.3184669064357877" fill="#ffffff" stroke="url(#color-1)" stroke-width="12.05828"/><text transform="translate(25.78827,322.12449) scale(0.7218,0.72179)" font-size="22" xml:space="preserve" data-paper-data="{&quot;origPos&quot;:null}" id="ID0.08681221166625619" fill="#2492d1" fill-rule="nonzero" stroke="none" stroke-width="1" stroke-linecap="butt" stroke-linejoin="miter" stroke-miterlimit="10" stroke-dasharray="" stroke-dashoffset="0" font-family="Sans Serif" font-weight="400" text-anchor="start" style="mix-blend-mode: normal"><tspan x="0" dy="0">Defeat an enemy using a shell.</tspan></text><g stroke="none"><text transform="translate(283,338.9813) scale(0.60677,0.60677)" font-size="40" xml:space="preserve" data-paper-data="{&quot;origPos&quot;:null}" fill="#2392d1" fill-rule="nonzero" stroke="none" stroke-width="1" stroke-linecap="butt" stroke-linejoin="miter" stroke-miterlimit="10" stroke-dasharray="" stroke-dashoffset="0" font-family="Sans Serif" font-weight="normal" text-anchor="start" style="mix-blend-mode: normal"><tspan x="0" dy="0">Reward: +10</tspan></text><path d="M438.22633,321.71813c2.42757,0 4.62707,0.98611 6.21986,2.5789c1.5928,1.59272 2.57884,3.79221 2.57884,6.21979c0,2.4275 -0.98603,4.62709 -2.57884,6.21981c-1.5928,1.5928 -3.79229,2.5789 -6.21986,2.5789c-2.4275,0 -4.62699,-0.98611 -6.2198,-2.5789c-1.5928,-1.59272 -2.5789,-3.79231 -2.5789,-6.21981c0,-2.42757 0.98611,-4.62706 2.5789,-6.21979c1.5928,-1.5928 3.7923,-2.5789 6.2198,-2.5789z" data-paper-data="{&quot;origPos&quot;:null}" id="ID0.7142658131197095" fill="url(#color-2)" stroke-width="0.48028"/><path d="M436.38196,323.73551h3.47092v13.31086h-3.47092z" data-paper-data="{&quot;origPos&quot;:null}" id="ID0.06001657713204622" fill="url(#color-3)" stroke-width="0.59798"/></g><path d="M35.81237,286.95809c0.16971,0.18514 1.82438,1.39624 4.96399,3.63331v0.06941c-0.64027,2.63821 -1.06069,4.1463 -1.26125,4.52429l-2.4415,1.41168c2.89276,2.09051 4.35073,3.17819 4.37387,3.26304c-1.02596,0.4937 -2.60735,1.2111 -4.74414,2.15222c-2.47621,-3.38648 -3.71431,-5.11828 -3.71431,-5.19542h-0.13885c-0.054,1.98251 -0.081,3.34405 -0.081,4.08459c-0.03085,0.34713 -0.10413,0.5207 -0.21984,0.5207h-3.48289c-0.162,0 -0.40885,-2.15222 -0.74055,-6.45666c-0.15429,-0.94112 -0.37799,-3.11648 -0.67112,-6.52609c0.89483,-0.19284 3.61403,-0.68655 8.15761,-1.4811zM32.61875,290.22112v0.06941c0,0.47055 0.027,2.15222 0.081,5.04499h0.06943c1.88223,-0.43971 2.82335,-0.73669 2.82335,-0.89098l0.65955,-2.96219z" id="path3781" fill="#2392d1" stroke="none" stroke-width="0.26459"/><path d="M47.3603,290.46412c2.93134,0.78683 4.48571,1.26511 4.66314,1.43481c1.61223,2.28337 2.51864,3.59861 2.71921,3.94574c-1.0414,3.30161 -1.63923,4.95242 -1.79352,4.95242c-3.47132,0.80998 -5.28798,1.21497 -5.44997,1.21497c-2.86962,-1.67395 -4.39701,-2.60735 -4.58215,-2.8002c-0.10028,-3.11649 -0.15042,-4.83672 -0.15042,-5.1607c-0.04628,-0.09256 -0.06943,-0.16198 -0.06943,-0.20828c2.9622,-2.25251 4.49343,-3.37876 4.59372,-3.37876zM47.14046,294.69914c-0.04628,0.30856 -0.11572,1.43095 -0.20829,3.36717l2.58035,0.57855c0.61713,-1.92852 0.92569,-2.95835 0.92569,-3.08948c-2.05194,-0.61712 -3.15119,-0.92567 -3.29775,-0.92567z" id="path3783" fill="#2392d1" stroke="none" stroke-width="0.26459"/><path d="M55.79562,286.96966c2.3605,0.04627 4.09231,0.06941 5.19542,0.06941c0.10028,0 0.40499,4.73642 0.91411,14.20927c-0.39341,0.10028 -1.76652,0.35486 -4.1193,0.7637c-0.11571,0 -0.49756,-2.90049 -1.14554,-8.70145c-0.054,-0.13885 -0.33557,-2.25251 -0.84469,-6.34095z" id="path3785" fill="#2392d1" stroke="none" stroke-width="0.26459"/><path d="M63.2011,286.96966c2.3605,0.04627 4.0923,0.06941 5.19541,0.06941c0.10028,0 0.40499,4.73642 0.91412,14.20927c-0.39342,0.10028 -1.76652,0.35486 -4.1193,0.7637c-0.11571,0 -0.49755,-2.90049 -1.14553,-8.70145c-0.054,-0.13885 -0.33557,-2.25251 -0.8447,-6.34095z" id="path3787" fill="#2392d1" stroke="none" stroke-width="0.26459"/><path d="M72.2034,285.81255l4.54743,0.7174c-0.57084,2.18307 -0.94496,3.27462 -1.12239,3.27462c-2.39135,-0.162 -3.58703,-0.32014 -3.58703,-0.47442v-3.35561c0.02314,-0.10799 0.07715,-0.16199 0.162,-0.16199zM70.93058,291.32036h0.06943c3.51761,0.64027 5.2764,1.01441 5.2764,1.1224c-1.01054,5.72383 -1.6238,8.91359 -1.8398,9.56928h-3.66802c-0.108,0 -0.162,-0.054 -0.162,-0.162z" id="path3789" fill="#2392d1" stroke="none" stroke-width="0.26459"/><path d="M87.40779,290.45256l3.85316,2.64977c-0.26999,4.397 -0.45899,6.96579 -0.56699,7.70634c-0.44742,0.05402 -1.80893,0.13502 -4.08458,0.24299l-0.081,-0.16199l-0.40499,-6.17896l-0.162,-0.08103c-1.47338,0.31627 -2.48779,0.55541 -3.04319,0.7174c0.15429,2.63049 0.23142,4.532 0.23142,5.70453c-2.29878,0.64027 -3.55617,0.96041 -3.77217,0.96041c-1.49653,-6.5878 -2.24479,-10.06685 -2.24479,-10.43712c3.25533,-0.42427 5.02186,-0.6364 5.29955,-0.6364v0.08103c0.054,0.03854 0.135,0.84079 0.24299,2.40678c2.98534,-1.98251 4.56286,-2.97376 4.73257,-2.97376z" id="path3791" fill="#2392d1" stroke="none" stroke-width="0.26459"/><path d="M101.03852,290.48726c3.27847,0.08481 4.9177,0.22751 4.9177,0.42813c0.56312,8.53944 0.84468,13.08302 0.84468,13.63072c-2.48392,1.58139 -4.26201,2.65364 -5.33426,3.21677c-3.77989,-1.18797 -5.66983,-1.86681 -5.66983,-2.03652c1.21882,-1.78194 1.92466,-2.68449 2.11752,-2.70763c2.05965,1.01826 3.24375,1.52738 3.55231,1.52738l1.09925,-1.44639c-0.29313,-1.19568 -0.48984,-1.90152 -0.59013,-2.11751c-0.1697,0 -2.26022,0.33942 -6.27152,1.01826c-2.1985,-3.5716 -3.29775,-5.4037 -3.29775,-5.49626c1.89766,-3.03162 3.05477,-4.80971 3.47132,-5.33427h0.081c0.22371,0 1.88994,0.36642 4.99871,1.09925v-0.25456c0,-0.30085 -0.02701,-0.78297 -0.08101,-1.44638zM97.4052,295.3934c0.108,0.23913 0.44742,1.51195 1.01826,3.81846c0.7174,-0.23142 1.81665,-0.6557 3.29775,-1.27283c-0.28542,-1.38853 -0.42813,-2.17922 -0.42813,-2.37207l-0.41656,-0.08103h-0.50913c-0.64798,0 -1.63538,-0.03084 -2.96219,-0.09251z" id="path3793" fill="#2392d1" stroke="none" stroke-width="0.26459"/><path d="M123.02356,286.95809c2.77706,1.40396 4.20416,2.10594 4.2813,2.10594c0,0.12342 -0.57855,1.2381 -1.73566,3.34404h-0.081c-0.09256,0 -1.42325,-0.62869 -3.99202,-1.88608l-1.30753,1.74723c2.21394,1.06453 4.90228,2.42221 8.06503,4.07301c-1.43482,2.55336 -2.45306,4.25045 -3.05476,5.09128l-6.53766,0.57855c-2.98534,-2.01337 -4.56287,-3.05477 -4.73257,-3.1242v-0.08103c0,-0.216 0.60554,-1.20725 1.81665,-2.97377h0.15043c0.47827,0.28542 1.97865,1.10697 4.50114,2.46465l1.52738,-1.73567c-4.63614,-2.3605 -7.20492,-3.69504 -7.70633,-4.0036v-0.06941c1.47338,-2.86962 2.27565,-4.32372 2.40678,-4.36229c3.83388,-0.77911 5.96681,-1.16868 6.3988,-1.16868z" id="path3795" fill="#2392d1" stroke="none" stroke-width="0.26459"/><path d="M134.66406,286.95809c0.04629,0.06941 0.26228,2.18306 0.64798,6.34095c2.97762,-0.91026 4.56285,-1.36538 4.75571,-1.36538l2.95062,2.01336c-0.47827,4.397 -0.79069,6.96579 -0.93725,7.70634l-4.09616,0.13882c0,-0.04627 -0.027,-0.06941 -0.081,-0.06941l0.081,-0.28927c0,-0.62484 0.09257,-2.5225 0.2777,-5.69298c-1.12625,-0.04627 -1.96323,-0.06941 -2.51093,-0.06941h-0.28928c0.3317,3.52532 0.49756,5.44611 0.49756,5.76239l-3.88788,0.57855c-0.14657,-0.4937 -1.01055,-5.10286 -2.59193,-13.82745c0,-0.24685 0.6017,-0.43969 1.80509,-0.57855c1.51967,-0.43198 2.64592,-0.64798 3.37876,-0.64798z" id="path3797" fill="#2392d1" stroke="none" stroke-width="0.26459"/><path d="M150.66685,290.46412c3.49446,1.79738 5.43069,2.84648 5.80869,3.14733c-0.50142,2.34507 -0.79841,3.55231 -0.89098,3.62175h-7.31292v0.12722l2.04809,2.53406l3.21675,-1.6431c0.31628,0.5477 0.77141,1.50424 1.3654,2.86962c-0.27771,0.09256 -2.30265,0.38955 -6.07482,0.89099c-3.12419,-2.05965 -4.69786,-3.13191 -4.721,-3.21677c0.50141,-4.00359 0.7984,-6.00538 0.89096,-6.00538c3.26304,-1.38853 5.15299,-2.16379 5.66983,-2.32579zM149.91474,293.26433c-0.06167,0.15427 -0.47051,0.76754 -1.22653,1.83979c0,0.324 0.45513,0.486 1.36539,0.486c0,0.04627 0.65955,0.15813 1.97866,0.33556c0.36255,-0.50142 0.54383,-0.79455 0.54383,-0.87941c-0.11571,-0.68655 -0.36641,-1.02982 -0.75212,-1.02982z" id="path3799" fill="#2392d1" stroke="none" stroke-width="0.26459"/><path d="M157.5285,286.96966c2.3605,0.04627 4.0923,0.06941 5.1954,0.06941c0.10029,0 0.40499,4.73642 0.91412,14.20927c-0.39342,0.10028 -1.76651,0.35486 -4.1193,0.7637c-0.11571,0 -0.49755,-2.90049 -1.14553,-8.70145c-0.05402,-0.13885 -0.33559,-2.25251 -0.84469,-6.34095z" id="path3801" fill="#2392d1" stroke="none" stroke-width="0.26459"/><path d="M164.93399,286.96966c2.3605,0.04627 4.09231,0.06941 5.19542,0.06941c0.10028,0 0.40498,4.73642 0.91411,14.20927c-0.39342,0.10028 -1.76652,0.35486 -4.1193,0.7637c-0.11571,0 -0.49757,-2.90049 -1.14554,-8.70145c-0.05402,-0.13885 -0.33558,-2.25251 -0.84468,-6.34095z" id="path3803" fill="#2392d1" stroke="none" stroke-width="0.26459"/></g></g></svg>