<svg version="1.1" xmlns="http://www.w3.org/2000/svg" xmlns:xlink="http://www.w3.org/1999/xlink" width="484.08798" height="59.26515"><defs><linearGradient x1="155.80676" y1="301.73597" x2="155.80676" y2="359" gradientUnits="userSpaceOnUse" id="color-1"><stop offset="0" stop-color="#155a8e"/><stop offset="1" stop-color="#00295b"/></linearGradient></defs><g transform="translate(2.5,-301.23597)"><g data-paper-data="{&quot;isPaintingLayer&quot;:true}" fill="none" fill-rule="nonzero" stroke="none" stroke-width="none" stroke-linecap="none" stroke-linejoin="miter" stroke-miterlimit="10" stroke-dasharray="" stroke-dashoffset="0" font-family="none" font-weight="none" font-size="none" text-anchor="none" style="mix-blend-mode: normal"><path d="M-2,359v-57.26403h68.89692l34.77655,50.10603l378.82196,1l0.55239,7.158z" data-paper-data="{&quot;origPos&quot;:null}" fill="url(#color-1)" stroke="#000000" stroke-width="1" stroke-linecap="butt"/><g data-paper-data="{&quot;origPos&quot;:null}" stroke-width="0"><path d="M33.47153,327.10203c1.96654,-6.38336 9.03174,-9.87263 15.78057,-7.7935c6.74883,2.07913 10.62563,8.93935 8.65908,15.3227c-1.96654,6.38336 -9.03174,9.87263 -15.78056,7.7935c-6.74882,-2.07913 -10.62563,-8.93934 -8.65908,-15.3227z" data-paper-data="{&quot;origPos&quot;:null,&quot;origRot&quot;:0}" fill="#308bff" stroke="#000000" stroke-linecap="butt"/><path d="M43.32809,327.04891c-1.27864,2.3167 -3.92854,3.2603 -5.91872,2.10757c-0.89841,-0.52037 -2.46692,-1.00797 -2.83528,-1.97865c-0.61323,-1.61597 0.71174,-2.79008 1.54693,-4.30331c1.27864,-2.31671 3.92854,-3.2603 5.91871,-2.10757c1.99017,1.15272 2.56699,3.96525 1.28835,6.28196z" data-paper-data="{&quot;origPos&quot;:null,&quot;origRot&quot;:0}" fill="#000000" stroke="none" stroke-linecap="butt"/><path d="M49.49628,329.63474c-1.27864,2.3167 -3.92855,3.2603 -5.91872,2.10757c-1.99017,-1.15272 -2.56699,-3.96525 -1.28835,-6.28196c1.27864,-2.31671 3.92854,-3.2603 5.91872,-2.10757c1.99017,1.15272 2.56699,3.96525 1.28835,6.28196z" data-paper-data="{&quot;origPos&quot;:null,&quot;origRot&quot;:0}" fill="#000000" stroke="none" stroke-linecap="butt"/><path d="M45.05085,328.28979c-0.38025,0.63405 -1.11386,0.89294 -1.63859,0.57826c-0.52473,-0.31469 -0.64186,-1.08378 -0.26162,-1.71783c0.38025,-0.63405 1.11387,-0.89295 1.6386,-0.57826c0.52473,0.31468 0.64186,1.08378 0.26162,1.71783z" data-paper-data="{&quot;origRot&quot;:0,&quot;origPos&quot;:null}" fill="#ffffff" stroke="none" stroke-linecap="butt"/><path d="M42.00458,326.85895c-0.38024,0.63405 -1.11386,0.89294 -1.6386,0.57826c-0.52473,-0.31469 -0.64186,-1.08378 -0.26162,-1.71783c0.38024,-0.63405 1.11387,-0.89294 1.6386,-0.57826c0.52473,0.31469 0.64186,1.08378 0.26162,1.71783z" data-paper-data="{&quot;origRot&quot;:0,&quot;origPos&quot;:null}" fill="#ffffff" stroke="none" stroke-linecap="butt"/><path d="M29.55249,334.4924l-9.67547,-10.61244l14.83235,-3.93167l-3.07642,4.65525l10.47884,3.61467l0.06061,1.37112l-0.57749,1.56095l-0.98478,1.62869l-10.59426,-3.55362z" data-paper-data="{&quot;origPos&quot;:null,&quot;origRot&quot;:0}" fill="#2d74f3" stroke="#000000" stroke-linecap="round"/></g></g></g></svg>