<svg version="1.1" xmlns="http://www.w3.org/2000/svg" xmlns:xlink="http://www.w3.org/1999/xlink" width="537.67624" height="133.11368" viewBox="0,0,537.67624,133.11368"><defs><radialGradient cx="170.8183" cy="334.8152" r="269.8654" gradientUnits="userSpaceOnUse" id="color-1"><stop offset="0" stop-color="#6681bd"/><stop offset="1" stop-color="#45577f"/></radialGradient><radialGradient cx="136.3947" cy="297.0732" r="335.2474" gradientUnits="userSpaceOnUse" id="color-2"><stop offset="0" stop-color="#45577f"/><stop offset="1" stop-color="#1f283a"/></radialGradient><radialGradient cx="136.36606" cy="293.78526" r="329.1485" gradientUnits="userSpaceOnUse" id="color-3"><stop offset="0" stop-color="#45577f"/><stop offset="1" stop-color="#1f283a"/></radialGradient><radialGradient cx="429.0921" cy="307.4751" r="496.6236" gradientUnits="userSpaceOnUse" id="color-4"><stop offset="0" stop-color="#6681bd"/><stop offset="1" stop-color="#45577f"/></radialGradient><radialGradient cx="395.0677" cy="246.0438" r="335.2474" gradientUnits="userSpaceOnUse" id="color-5"><stop offset="0" stop-color="#45577f"/><stop offset="1" stop-color="#1f283a"/></radialGradient><radialGradient cx="395.03914" cy="242.75587" r="329.14855" gradientUnits="userSpaceOnUse" id="color-6"><stop offset="0" stop-color="#45577f"/><stop offset="1" stop-color="#1f283a"/></radialGradient></defs><g transform="translate(11.02869,-237.98114)"><g data-paper-data="{&quot;isPaintingLayer&quot;:true}" fill-rule="nonzero" stroke-linejoin="miter" stroke-miterlimit="10" stroke-dasharray="" stroke-dashoffset="0" style="mix-blend-mode: normal"><g><path d="M0.3686,309.6123l259.4487,3.6328l-0.7507,53.6118l-259.4486,-3.6329z" fill="url(#color-1)" stroke="#496087" stroke-width="1.85033" stroke-linecap="butt"/><path d="M128.9205,293.7898l137.7761,5.9296l-10.0093,19.8618l-38.3066,19.9666l-47.6358,-21.17l-44.188,28.3841l-46.0645,-30.6479l-45.5213,20.8657l-37.7325,-21.0314l-7.2032,-26.1034z" fill="url(#color-2)" stroke="url(#color-3)" stroke-width="1.60762" stroke-linecap="round"/></g><path d="M258.9521,260.1625l259.4486,3.6329l-1.4783,105.5732l-259.4486,-3.6329z" fill="url(#color-4)" stroke="#496087" stroke-width="3.4051" stroke-linecap="butt"/><path d="M387.5936,242.7604l137.7761,5.9296l-10.0094,19.8618l-38.3065,19.9666l-47.6358,-21.17l-44.188,28.3841l-46.0645,-30.6479l-45.5214,20.8657l-37.7324,-21.0314l-7.2032,-26.1034z" fill="url(#color-5)" stroke="url(#color-6)" stroke-width="1.60762" stroke-linecap="round"/></g></g></svg>