<svg version="1.1" xmlns="http://www.w3.org/2000/svg" xmlns:xlink="http://www.w3.org/1999/xlink" width="437" height="90.79587" viewBox="0,0,437,90.79587"><defs><linearGradient x1="240" y1="135.60207" x2="240" y2="224.39795" gradientUnits="userSpaceOnUse" id="color-1"><stop offset="0" stop-color="#ffffff"/><stop offset="1" stop-color="#d8d8d8"/></linearGradient><linearGradient x1="240" y1="135.60208" x2="240" y2="224.39795" gradientUnits="userSpaceOnUse" id="color-2"><stop offset="0" stop-color="#343434"/><stop offset="1" stop-color="#090909"/></linearGradient><radialGradient cx="443.8065" cy="206.54467" r="17.9081" gradientUnits="userSpaceOnUse" id="color-3"><stop offset="0" stop-color="#ffffff"/><stop offset="1" stop-color="#e5e5e5"/></radialGradient></defs><g transform="translate(-21.5,-134.60208)"><g data-paper-data="{&quot;isPaintingLayer&quot;:true}" fill-rule="nonzero" stroke-linejoin="miter" stroke-miterlimit="10" stroke-dasharray="" stroke-dashoffset="0" style="mix-blend-mode: normal"><path d="M22.5,224.39795v-88.79587h435v88.79587z" data-paper-data="{&quot;origPos&quot;:null}" fill="url(#color-1)" stroke="url(#color-2)" stroke-width="2" stroke-linecap="butt"/><g data-paper-data="{&quot;origPos&quot;:null}"><path d="M444.3058,202.09868c2.5136,0 4.7909,1.0212 6.4406,2.6702c1.6489,1.6496 2.6702,3.9269 2.6702,6.4405c0,2.5136 -1.0213,4.791 -2.6702,6.4406c-1.6497,1.649 -3.927,2.6702 -6.4406,2.6702c-2.5136,0 -4.7909,-1.0212 -6.4406,-2.6702c-1.6489,-1.6496 -2.6701,-3.927 -2.6701,-6.4406c0,-2.5136 1.0212,-4.7909 2.6701,-6.4405c1.6497,-1.649 3.927,-2.6702 6.4406,-2.6702z" fill="url(#color-3)" stroke="#000000" stroke-width="2.0785" stroke-linecap="butt"/><path d="M441.2734,206.54887l5.6119,0.4503l1.7321,3.187l-3.6374,2.9446l3.3603,-0.5197l0.7967,3.4642l-7.4479,-0.0693l-1.9053,-2.4249l4.6766,-3.3256l-4.5727,-0.3464z" fill="#000000" stroke="none" stroke-width="0.69283" stroke-linecap="round"/></g><g data-paper-data="{&quot;origPos&quot;:null}" fill="#000000" stroke="none" stroke-width="0.26459" stroke-linecap="butt"><path d="M42.90581,165.36026l0.04658,0.10035c-0.13453,1.96572 -0.23545,2.94857 -0.30273,2.94857h-0.04658c-2.13718,-0.16981 -3.32737,-0.27015 -3.57059,-0.30103v6.84656c0,0.1235 -0.48643,0.20584 -1.45928,0.247c0,0.03603 -0.55112,0.10292 -1.65334,0.20068l-0.05433,-0.10034c0.23804,-4.08581 0.3907,-6.49922 0.45797,-7.24023c-0.81761,0.12865 -2.02334,0.29332 -3.61717,0.494c-0.47091,-1.7496 -0.70635,-2.64755 -0.70635,-2.69386c0,-0.0669 3.63527,-0.23413 10.90581,-0.50172z"/><path d="M47.2138,165.36026c0.03105,0.04631 0.17595,1.45628 0.43469,4.2299c1.99747,-0.60721 3.06087,-0.91083 3.19024,-0.91083l1.97935,1.34308c-0.32083,2.93314 -0.53041,4.64671 -0.62874,5.14072l-2.7478,0.09263c0,-0.03087 -0.01811,-0.04632 -0.05434,-0.04632l0.05434,-0.19297c0,-0.41681 0.06209,-1.6827 0.18629,-3.79764c-0.75551,-0.03087 -1.31698,-0.04632 -1.68439,-0.04632h-0.19405c0.22251,2.35166 0.33377,3.63297 0.33377,3.84395l-2.60808,0.38594c-0.09832,-0.32933 -0.67789,-3.40398 -1.73873,-9.22395c0,-0.16466 0.40364,-0.29332 1.21089,-0.38594c1.01942,-0.28818 1.77495,-0.43225 2.26655,-0.43225z"/><path d="M57.94885,167.69906c2.34417,1.19898 3.64304,1.89883 3.8966,2.09951c-0.33635,1.56434 -0.53558,2.36966 -0.59768,2.41598h-4.90567v0.08491l1.3739,1.69041l2.15788,-1.09607c0.21217,0.36535 0.51748,1.00344 0.91593,1.91426c-0.1863,0.06175 -1.54467,0.25986 -4.07512,0.59435c-2.09578,-1.37394 -3.15143,-2.08922 -3.16696,-2.14582c0.33635,-2.6707 0.53558,-4.00605 0.59768,-4.00605c2.18893,-0.92625 3.45674,-1.44342 3.80344,-1.55147zM57.44432,169.56701c-0.0414,0.10292 -0.31567,0.51201 -0.82279,1.22729c0,0.21613 0.30532,0.32418 0.91594,0.32418c0,0.03087 0.44243,0.10549 1.32732,0.22384c0.24322,-0.33448 0.36482,-0.53002 0.36482,-0.58662c-0.07763,-0.45799 -0.2458,-0.68697 -0.50454,-0.68697z"/><path d="M66.1224,167.70678c0.07245,0.01029 0.10867,0.04631 0.10867,0.10806l-0.80726,4.44602c1.54208,-0.1801 2.31312,-0.32418 2.31312,-0.43225c0.28979,-1.78047 0.48901,-2.77876 0.59768,-2.99489c1.90949,0.39109 2.96773,0.62265 3.17471,0.6947c-1.11258,3.80279 -1.7232,5.78395 -1.83186,5.94347c-1.94571,1.35851 -3.04017,2.1098 -3.28338,2.25388c-0.07245,0 -1.3118,-0.3036 -3.71807,-0.91082v-0.05403c0.6365,-1.39452 1.03237,-2.0918 1.18761,-2.0918l2.36745,1.18098l1.13328,-1.9297c-1.01942,0.25215 -1.61194,0.37823 -1.77752,0.37823l-3.01947,-1.5592c0.3674,-3.3551 0.60027,-5.03265 0.6986,-5.03265z"/><path d="M82.47725,167.69134c1.49033,0.94684 2.31312,1.4923 2.46837,1.63638c-0.53817,1.18869 -0.84607,1.78304 -0.92369,1.78304l-2.82543,-1.62867h-0.10092c0,0.05145 -0.1216,0.33963 -0.36482,0.86451c2.60291,1.39452 3.90436,2.1098 3.90436,2.14582c-0.72965,1.67755 -1.14103,2.56263 -1.23419,2.65525l-4.41666,0.25472c-1.71802,-1.13209 -2.64171,-1.72901 -2.77108,-1.79076v-0.04632c0,-0.12865 0.25616,-0.70756 0.76846,-1.73673l3.44639,1.78304l0.25615,-1.01888c-2.132,-0.95198 -3.39982,-1.54633 -3.80345,-1.78304v-0.10806c0,-0.19554 0.4114,-1.06261 1.23419,-2.60123z"/><path d="M86.89391,167.69134c3.07381,0.42197 4.61072,0.68182 4.61072,0.7796c1.21089,1.03432 1.81633,1.58749 1.81633,1.65954c-0.49161,1.52832 -0.77104,2.45714 -0.83832,2.78648c0.49161,1.08578 0.77104,1.73415 0.83832,1.94514c0,0.06175 -0.80209,0.22642 -2.40627,0.494c-0.02071,-0.08748 -0.16818,-0.28302 -0.44243,-0.58662c-2.2148,0.42196 -3.40758,0.63294 -3.57835,0.63294l-1.17985,-3.17241l2.60032,-1.36623c0.41915,0.0669 1.07377,0.10035 1.96383,0.10035c0,-0.1132 0.01553,-0.45541 0.04658,-1.02661c-0.15007,0 -1.49034,0.09777 -4.0208,0.29332l-0.04658,-0.10035c0.35188,-1.62609 0.56405,-2.43913 0.6365,-2.43913zM88.50843,172.23c0,0.05661 0.16559,0.65867 0.49678,1.80619h0.04658c0.65202,-0.42196 0.97803,-0.69984 0.97803,-0.83364l0.10092,-0.82591c-0.12419,0 -0.66495,-0.04888 -1.62229,-0.14666z"/><path d="M95.1373,164.59611l3.05052,0.47857c-0.38293,1.45628 -0.63391,2.18442 -0.75293,2.18442c-1.60418,-0.10806 -2.40627,-0.21355 -2.40627,-0.31647v-2.23845c0.01552,-0.07205 0.05174,-0.10806 0.10867,-0.10806zM94.28347,168.27025h0.04658c2.35969,0.4271 3.53954,0.67668 3.53954,0.74872c-0.67789,3.81823 -1.08928,5.94604 -1.23418,6.38343h-2.46061c-0.07245,0 -0.10867,-0.03603 -0.10867,-0.10806z"/><path d="M103.14008,165.35255h0.04658c2.339,0.19554 3.50848,0.34735 3.50848,0.45541l1.03237,9.08501c0,0.06689 -1.03237,0.2367 -3.0971,0.50944l-0.04658,-0.10034v-0.82591c-1.78012,0.47857 -3.00137,0.78732 -3.66374,0.92625c-1.57313,-2.21272 -2.39851,-3.39112 -2.47613,-3.5352c1.15915,-2.09436 1.77753,-3.15441 1.85516,-3.18015l3.25234,0.15437c-0.06728,-0.39623 -0.20441,-1.5592 -0.4114,-3.48889zM101.69632,170.88692c0.52265,1.59007 0.84866,2.46229 0.97803,2.61666l1.54467,-1.33534c-0.16042,-0.92111 -0.27945,-1.38166 -0.35706,-1.38166h-2.06472c-0.06728,0.01029 -0.10092,0.04374 -0.10092,0.10035z"/><path d="M112.81947,165.86198c1.44893,0.06175 2.1734,0.1235 2.1734,0.18526v0.03088c0,0.28818 0.13454,3.38598 0.40364,9.29342l-0.0621,0.03087l-2.82543,-0.18526c-0.02071,-0.04117 -0.03106,-0.07205 -0.03106,-0.09263l0.24839,-8.98466c0.01552,-0.18526 0.04657,-0.27788 0.09315,-0.27788z"/><path d="M123.04222,167.69906c2.33382,0.43739 3.55506,0.68697 3.66374,0.74872v0.09263c-0.50195,1.40996 -0.75293,2.14067 -0.75293,2.19214h-0.04658c-0.12937,0 -0.75551,-0.20068 -1.87844,-0.60206c-0.62614,1.04461 -0.93921,1.60294 -0.93921,1.67498l1.55243,1.49744c1.20054,-1.1218 1.81116,-1.6827 1.83186,-1.6827c0.93664,1.21957 1.40496,1.90397 1.40496,2.0532c-0.5123,0.29332 -1.40495,0.86965 -2.67794,1.72901c-2.46319,-0.53002 -3.7931,-0.82591 -3.98974,-0.88766l-1.21865,-3.92113z"/><path d="M131.78242,167.69906c1.96641,0.52488 3.00912,0.84392 3.12814,0.95713c1.08152,1.52318 1.68957,2.40054 1.8241,2.63211c-0.6986,2.20243 -1.09964,3.30364 -1.20314,3.30364c-2.32864,0.5403 -3.54731,0.81048 -3.65597,0.81048c-1.92502,-1.11666 -2.94961,-1.7393 -3.07381,-1.86794c-0.06728,-2.07892 -0.10092,-3.22645 -0.10092,-3.44258c-0.03105,-0.06175 -0.04658,-0.10806 -0.04658,-0.13894c1.98711,-1.50259 3.0143,-2.25388 3.08157,-2.25388zM131.63492,170.52413c-0.03105,0.20584 -0.07763,0.95455 -0.13972,2.24617l1.73095,0.38594c0.41398,-1.28647 0.62097,-1.97344 0.62097,-2.06092c-1.37649,-0.41167 -2.1139,-0.61751 -2.21221,-0.61751z"/><path d="M141.63257,167.69134l0.05434,0.10035l-1.0479,5.52666h0.05434l2.67018,-0.7796v-3.12611c0.01035,-0.07205 0.04399,-0.10806 0.10092,-0.10806c2.00782,0.13894 3.12555,0.20841 3.35324,0.20841c0,0.03603 0.01811,0.05403 0.05434,0.05403c0,0.87994 -0.27944,2.70416 -0.83831,5.47263c0,0.15952 -0.80209,0.28045 -2.40627,0.36278c-0.0828,-0.09777 -0.15266,-0.30618 -0.20958,-0.62523c-2.05438,0.41681 -3.22647,0.62523 -3.51625,0.62523c-1.6404,-1.21442 -2.46061,-1.83965 -2.46061,-1.87567c0.27945,-3.64841 0.45538,-5.5421 0.52783,-5.68103h0.04658c1.30921,-0.03603 2.51493,-0.08748 3.61715,-0.15437z"/><path d="M147.656,165.36799c1.58349,0.03087 2.74521,0.04632 3.4852,0.04632c0.06727,0 0.27167,3.15956 0.61322,9.47867c-0.26391,0.06689 -1.18501,0.23671 -2.76332,0.50945c-0.07763,0 -0.33378,-1.93484 -0.76846,-5.80452c-0.03623,-0.09263 -0.2251,-1.50259 -0.56664,-4.22989z"/><path d="M157.31987,165.35255h0.04657c2.339,0.19554 3.50848,0.34735 3.50848,0.45541l1.03236,9.08501c0,0.06689 -1.03237,0.2367 -3.0971,0.50944l-0.04657,-0.10034v-0.82591c-1.78012,0.47857 -3.00137,0.78732 -3.66374,0.92625c-1.57313,-2.21272 -2.39851,-3.39112 -2.47613,-3.5352c1.15915,-2.09436 1.77753,-3.15441 1.85516,-3.18015l3.25234,0.15437c-0.06727,-0.39623 -0.20439,-1.5592 -0.4114,-3.48889zM155.87611,170.88692c0.52265,1.59007 0.84866,2.46229 0.97803,2.61666l1.54467,-1.33534c-0.16042,-0.92111 -0.27943,-1.38166 -0.35705,-1.38166h-2.06473c-0.06728,0.01029 -0.10092,0.04374 -0.10092,0.10035z"/><path d="M169.60735,167.69134l2.58479,1.7676c-0.18112,2.93314 -0.30791,4.64671 -0.38035,5.14072c-0.30014,0.03603 -1.21349,0.09006 -2.74004,0.1621l-0.05433,-0.10806l-0.27169,-4.12183l-0.10865,-0.05403c-0.98838,0.21098 -1.66887,0.37049 -2.04144,0.47857c0.1035,1.75474 0.15523,3.0232 0.15523,3.80536c-1.54208,0.4271 -2.38557,0.64066 -2.53046,0.64066c-1.00391,-4.39457 -1.50586,-6.71534 -1.50586,-6.96234c2.18375,-0.28302 3.36878,-0.42454 3.55506,-0.42454v0.05403c0.03622,0.02574 0.09056,0.5609 0.16302,1.60551c2.00263,-1.32249 3.06087,-1.98373 3.17472,-1.98373z"/><path d="M175.20386,164.07123l0.03105,0.06176l-0.21733,2.84052h-0.03105c-1.01425,-0.04631 -1.52139,-0.10806 -1.52139,-0.18525l-0.43469,-2.50089c0,-0.04117 0.72447,-0.11321 2.17341,-0.21613z"/><path d="M178.29318,165.36026l3.41536,0.60206l-0.32601,2.57808c0.67789,-0.03603 1.17466,-0.05403 1.49033,-0.05403h0.49679l0.10865,-0.05403l0.05433,0.10806c-0.10867,1.56434 -0.20181,2.44428 -0.27944,2.63982l-0.10865,-0.06176c-0.07761,0 -0.7762,-0.03603 -2.09578,-0.10806c-0.07243,1.20927 -0.12677,2.65526 -0.16302,4.33796l-0.10865,0.05403c-1.66628,-0.10806 -2.65983,-0.20069 -2.98067,-0.27788l0.05433,-0.21612c0,-0.4477 0.07245,-1.83707 0.21733,-4.16815c-1.39719,-0.07719 -2.09578,-0.16981 -2.09578,-0.27788c0.07243,-1.71872 0.16558,-2.57808 0.27946,-2.57808l2.04144,0.38594v-0.66382c0,-0.5403 -0.0207,-1.27103 -0.06208,-2.19214c0.04139,0 0.06208,-0.018 0.06208,-0.05403z"/><path d="M194.56265,167.69134c1.49033,0.94684 2.31312,1.4923 2.46837,1.63638c-0.53818,1.18869 -0.84607,1.78304 -0.92369,1.78304l-2.82543,-1.62867h-0.10089c0,0.05145 -0.12161,0.33963 -0.36483,0.86451c2.60291,1.39452 3.90436,2.1098 3.90436,2.14582c-0.72965,1.67755 -1.14103,2.56263 -1.23419,2.65525l-4.41665,0.25472c-1.71802,-1.13209 -2.64171,-1.72901 -2.77108,-1.79076v-0.04632c0,-0.12865 0.25615,-0.70756 0.76845,-1.73673l3.44639,1.78304l0.25615,-1.01888c-2.132,-0.95198 -3.39981,-1.54633 -3.80344,-1.78304v-0.10806c0,-0.19554 0.4114,-1.06261 1.23419,-2.60123z"/><path d="M200.12035,165.36026l3.41536,0.60206l-0.32601,2.57808c0.67789,-0.03603 1.17466,-0.05403 1.49033,-0.05403h0.49679l0.10865,-0.05403l0.05433,0.10806c-0.10867,1.56434 -0.20181,2.44428 -0.27944,2.63982l-0.10865,-0.06176c-0.07761,0 -0.7762,-0.03603 -2.09577,-0.10806c-0.07243,1.20927 -0.12677,2.65526 -0.16302,4.33796l-0.10865,0.05403c-1.66628,-0.10806 -2.65983,-0.20069 -2.98067,-0.27788l0.05433,-0.21612c0,-0.4477 0.07245,-1.83707 0.21735,-4.16815c-1.39719,-0.07719 -2.09578,-0.16981 -2.09578,-0.27788c0.07243,-1.71872 0.16557,-2.57808 0.27944,-2.57808l2.04144,0.38594v-0.66382c0,-0.5403 -0.0207,-1.27103 -0.06208,-2.19214c0.04139,0 0.06208,-0.018 0.06208,-0.05403z"/><path d="M207.36243,167.69134c3.07381,0.42197 4.61071,0.68182 4.61071,0.7796c1.21089,1.03432 1.81634,1.58749 1.81634,1.65954c-0.49162,1.52832 -0.77104,2.45714 -0.83832,2.78648c0.49161,1.08578 0.77104,1.73415 0.83832,1.94514c0,0.06175 -0.80209,0.22642 -2.40628,0.494c-0.0207,-0.08748 -0.16818,-0.28302 -0.44243,-0.58662c-2.21481,0.42196 -3.40759,0.63294 -3.57835,0.63294l-1.17985,-3.17241l2.60032,-1.36623c0.41915,0.0669 1.07376,0.10035 1.96383,0.10035c0,-0.1132 0.01552,-0.45541 0.04657,-1.02661c-0.15006,0 -1.49033,0.09777 -4.02079,0.29332l-0.04657,-0.10035c0.35188,-1.62609 0.56405,-2.43913 0.6365,-2.43913zM208.97697,172.23c0,0.05661 0.16559,0.65867 0.49677,1.80619h0.04657c0.65202,-0.42196 0.97803,-0.69984 0.97803,-0.83364l0.10089,-0.82591c-0.12419,0 -0.66494,-0.04888 -1.62228,-0.14666z"/><path d="M218.10524,167.70678c0.07243,0.01029 0.10865,0.04631 0.10865,0.10806l-0.80726,4.44602c1.54207,-0.1801 2.3131,-0.32418 2.3131,-0.43225c0.28979,-1.78047 0.48901,-2.77876 0.59768,-2.99489c1.90949,0.39109 2.96773,0.62265 3.17472,0.6947c-1.11258,3.80279 -1.72319,5.78395 -1.83186,5.94347c-1.94571,1.35851 -3.04018,2.1098 -3.28339,2.25388c-0.07243,0 -1.31178,-0.3036 -3.71807,-0.91082v-0.05403c0.6365,-1.39452 1.03237,-2.0918 1.18761,-2.0918l2.36745,1.18098l1.13328,-1.9297c-1.01942,0.25215 -1.61194,0.37823 -1.77753,0.37823l-3.01948,-1.5592c0.36741,-3.3551 0.60028,-5.03265 0.6986,-5.03265z"/><path d="M231.82096,165.36026l0.05433,0.10035c0,0.29332 0.06728,1.42798 0.20181,3.40399c1.85257,-0.58662 2.89011,-0.89539 3.11262,-0.92626l2.79437,2.98717c-1.17466,2.61925 -1.81375,4.00863 -1.91725,4.16815c-0.32601,-0.03603 -1.51621,-0.08749 -3.57059,-0.15437v0.36278c0,0.06689 -0.03622,0.10034 -0.10865,0.10034h-3.00396c-0.10867,0 -0.31566,-1.54376 -0.62096,-4.63128c-0.06727,-0.26244 -0.25614,-1.80877 -0.56665,-4.63899c1.75943,-0.41167 2.96773,-0.66897 3.62492,-0.77188zM232.34102,171.02585l0.20181,1.90654h1.5602l0.56663,-2.16127c-1.55243,0.13378 -2.32864,0.2187 -2.32864,0.25472z"/><path d="M243.18474,167.69906c2.34417,1.19898 3.64304,1.89883 3.8966,2.09951c-0.33635,1.56434 -0.53558,2.36966 -0.59768,2.41598h-4.90567v0.08491l1.3739,1.69041l2.15787,-1.09607c0.21217,0.36535 0.51749,1.00344 0.91594,1.91426c-0.18629,0.06175 -1.54467,0.25986 -4.07511,0.59435c-2.09578,-1.37394 -3.15143,-2.08922 -3.16696,-2.14582c0.33635,-2.6707 0.53559,-4.00605 0.59768,-4.00605c2.18892,-0.92625 3.45674,-1.44342 3.80344,-1.55147zM242.68021,169.56701c-0.04139,0.10292 -0.31566,0.51201 -0.8228,1.22729c0,0.21613 0.30532,0.32418 0.91594,0.32418c0,0.03087 0.44243,0.10549 1.32732,0.22384c0.24322,-0.33448 0.36483,-0.53002 0.36483,-0.58662c-0.07761,-0.45799 -0.24579,-0.68697 -0.50455,-0.68697z"/><path d="M250.83823,167.69906c2.33382,0.43739 3.55506,0.68697 3.66374,0.74872v0.09263c-0.50195,1.40996 -0.75293,2.14067 -0.75293,2.19214h-0.04657c-0.12937,0 -0.75551,-0.20068 -1.87844,-0.60206c-0.62614,1.04461 -0.93921,1.60294 -0.93921,1.67498l1.55243,1.49744c1.20054,-1.1218 1.81116,-1.6827 1.83187,-1.6827c0.93664,1.21957 1.40495,1.90397 1.40495,2.0532c-0.51231,0.29332 -1.40496,0.86965 -2.67795,1.72901c-2.46318,-0.53002 -3.79309,-0.82591 -3.98974,-0.88766l-1.21865,-3.92113z"/><path d="M257.63011,167.69134c3.07381,0.42197 4.61071,0.68182 4.61071,0.7796c1.21089,1.03432 1.81634,1.58749 1.81634,1.65954c-0.49161,1.52832 -0.77104,2.45714 -0.83832,2.78648c0.49161,1.08578 0.77104,1.73415 0.83832,1.94514c0,0.06175 -0.80208,0.22642 -2.40626,0.494c-0.0207,-0.08748 -0.16818,-0.28302 -0.44244,-0.58662c-2.2148,0.42196 -3.40758,0.63294 -3.57835,0.63294l-1.17985,-3.17241l2.60032,-1.36623c0.41915,0.0669 1.07377,0.10035 1.96383,0.10035c0,-0.1132 0.01552,-0.45541 0.04657,-1.02661c-0.15008,0 -1.49034,0.09777 -4.0208,0.29332l-0.04657,-0.10035c0.35188,-1.62609 0.56405,-2.43913 0.6365,-2.43913zM259.24462,172.23c0,0.05661 0.16559,0.65867 0.49679,1.80619h0.04657c0.65202,-0.42196 0.97803,-0.69984 0.97803,-0.83364l0.10089,-0.82591c-0.12419,0 -0.66495,-0.04888 -1.6223,-0.14666z"/><path d="M268.99389,167.69134l0.05433,0.10035l-1.0479,5.52666h0.05433l2.67017,-0.7796v-3.12611c0.01035,-0.07205 0.04398,-0.10806 0.10089,-0.10806c2.00782,0.13894 3.12555,0.20841 3.35325,0.20841c0,0.03603 0.01811,0.05403 0.05433,0.05403c0,0.87994 -0.27944,2.70416 -0.8383,5.47263c0,0.15952 -0.80209,0.28045 -2.40628,0.36278c-0.08279,-0.09777 -0.15264,-0.30618 -0.20958,-0.62523c-2.05438,0.41681 -3.22646,0.62523 -3.51625,0.62523c-1.6404,-1.21442 -2.4606,-1.83965 -2.4606,-1.87567c0.27944,-3.64841 0.45537,-5.5421 0.52783,-5.68103h0.04657c1.30921,-0.03603 2.51493,-0.08748 3.61716,-0.15437z"/><path d="M281.28137,167.69134c1.49033,0.94684 2.31312,1.4923 2.46836,1.63638c-0.53817,1.18869 -0.84607,1.78304 -0.92369,1.78304l-2.82542,-1.62867h-0.10089c0,0.05145 -0.1216,0.33963 -0.36482,0.86451c2.60291,1.39452 3.90436,2.1098 3.90436,2.14582c-0.72965,1.67755 -1.14103,2.56263 -1.23419,2.65525l-4.41667,0.25472c-1.71801,-1.13209 -2.6417,-1.72901 -2.77108,-1.79076v-0.04632c0,-0.12865 0.25615,-0.70756 0.76845,-1.73673l3.44639,1.78304l0.25615,-1.01888c-2.132,-0.95198 -3.39981,-1.54633 -3.80344,-1.78304v-0.10806c0,-0.19554 0.4114,-1.06261 1.23417,-2.60123z"/><path d="M288.91932,167.69906c2.34417,1.19898 3.64304,1.89883 3.8966,2.09951c-0.33635,1.56434 -0.53559,2.36966 -0.59768,2.41598h-4.90567v0.08491l1.3739,1.69041l2.15787,-1.09607c0.21217,0.36535 0.51749,1.00344 0.91594,1.91426c-0.18629,0.06175 -1.54467,0.25986 -4.07513,0.59435c-2.09578,-1.37394 -3.15142,-2.08922 -3.16695,-2.14582c0.33635,-2.6707 0.53558,-4.00605 0.59768,-4.00605c2.18892,-0.92625 3.45674,-1.44342 3.80344,-1.55147zM288.41478,169.56701c-0.04139,0.10292 -0.31566,0.51201 -0.82279,1.22729c0,0.21613 0.30532,0.32418 0.91594,0.32418c0,0.03087 0.44243,0.10549 1.32732,0.22384c0.24322,-0.33448 0.36482,-0.53002 0.36482,-0.58662c-0.07761,-0.45799 -0.24578,-0.68697 -0.50453,-0.68697z"/><path d="M300.5936,167.69906c1.96641,0.52488 3.00912,0.84392 3.12814,0.95713c1.08153,1.52318 1.68957,2.40054 1.82411,2.63211c-0.6986,2.20243 -1.09964,3.30364 -1.20314,3.30364c-2.32865,0.5403 -3.54731,0.81048 -3.65598,0.81048c-1.92501,-1.11666 -2.94961,-1.7393 -3.07381,-1.86794c-0.06727,-2.07892 -0.10089,-3.22645 -0.10089,-3.44258c-0.03105,-0.06175 -0.04657,-0.10806 -0.04657,-0.13894c1.98711,-1.50259 3.0143,-2.25388 3.08156,-2.25388zM300.44611,170.52413c-0.03105,0.20584 -0.07762,0.95455 -0.13972,2.24617l1.73095,0.38594c0.41398,-1.28647 0.62096,-1.97344 0.62096,-2.06092c-1.37649,-0.41167 -2.1139,-0.61751 -2.21221,-0.61751z"/><path d="M309.48125,165.36026c0.27426,0.03087 1.27299,0.25987 2.99619,0.68697l0.04657,0.09263c-0.25355,1.40482 -0.40621,2.10723 -0.45795,2.10723h-0.04657l-1.24972,-0.64066c0,0.14408 -0.04657,0.78731 -0.13972,1.92969l1.70767,-0.41681c0.05174,0.15437 0.09831,0.84135 0.13972,2.06092c-0.16559,0.06175 -0.73482,0.15436 -1.70767,0.27788c0.21734,0.92625 0.44761,2.05835 0.69082,3.39628c-0.79691,0.1801 -1.74907,0.36278 -2.85647,0.54803l-0.04657,-0.09263c-0.14489,-2.38253 -0.26651,-3.5738 -0.36483,-3.5738c-1.00391,0.24186 -1.54208,0.37822 -1.61451,0.4091c-0.06208,-0.29847 -0.17075,-1.10892 -0.32601,-2.43142l0.09313,-0.04632h1.66109c-0.09315,-0.76159 -0.23287,-1.75473 -0.41915,-2.97945z"/><path d="M319.378,164.39542l0.03105,0.06176l-0.21733,2.84052h-0.03105c-1.01425,-0.04631 -1.52139,-0.10806 -1.52139,-0.18525l-0.43468,-2.50089c0,-0.04117 0.72447,-0.11321 2.17341,-0.21613zM322.00159,164.35682l0.03105,0.06176l-0.21735,2.84052h-0.03105c-1.01425,-0.04631 -1.52139,-0.10806 -1.52139,-0.18526l-0.43469,-2.50089c0,-0.04117 0.72447,-0.1132 2.17341,-0.21612z"/><path d="M325.82057,167.69906c2.33382,0.43739 3.55506,0.68697 3.66374,0.74872v0.09263c-0.50195,1.40996 -0.75293,2.14067 -0.75293,2.19214h-0.04657c-0.12937,0 -0.75551,-0.20068 -1.87844,-0.60206c-0.62614,1.04461 -0.93921,1.60294 -0.93921,1.67498l1.55243,1.49744c1.20054,-1.1218 1.81116,-1.6827 1.83187,-1.6827c0.93664,1.21957 1.40495,1.90397 1.40495,2.0532c-0.51231,0.29332 -1.40496,0.86965 -2.67795,1.72901c-2.46318,-0.53002 -3.79309,-0.82591 -3.98974,-0.88766l-1.21865,-3.92113z"/><path d="M331.4326,165.36799c1.58349,0.03087 2.74522,0.04632 3.4852,0.04632c0.06727,0 0.27166,3.15956 0.61321,9.47867c-0.26391,0.06689 -1.18502,0.23671 -2.76332,0.50945c-0.07761,0 -0.33375,-1.93484 -0.76845,-5.80452c-0.03622,-0.09263 -0.22509,-1.50259 -0.56665,-4.22989z"/><path d="M337.58022,167.69134c3.07381,0.42197 4.61071,0.68182 4.61071,0.7796c1.21089,1.03432 1.81634,1.58749 1.81634,1.65954c-0.49161,1.52832 -0.77104,2.45714 -0.83832,2.78648c0.49161,1.08578 0.77104,1.73415 0.83832,1.94514c0,0.06175 -0.80208,0.22642 -2.40626,0.494c-0.0207,-0.08748 -0.16818,-0.28302 -0.44244,-0.58662c-2.2148,0.42196 -3.40758,0.63294 -3.57835,0.63294l-1.17985,-3.17241l2.60032,-1.36623c0.41915,0.0669 1.07377,0.10035 1.96383,0.10035c0,-0.1132 0.01552,-0.45541 0.04657,-1.02661c-0.15008,0 -1.49034,0.09777 -4.0208,0.29332l-0.04657,-0.10035c0.35188,-1.62609 0.56405,-2.43913 0.6365,-2.43913zM339.19474,172.23c0,0.05661 0.16559,0.65867 0.49679,1.80619h0.04657c0.65202,-0.42196 0.97803,-0.69984 0.97803,-0.83364l0.10089,-0.82591c-0.12419,0 -0.66495,-0.04888 -1.6223,-0.14666z"/><path d="M351.01651,167.69134c1.49033,0.94684 2.31311,1.4923 2.46836,1.63638c-0.53817,1.18869 -0.84607,1.78304 -0.92369,1.78304l-2.82543,-1.62867h-0.10089c0,0.05145 -0.12161,0.33963 -0.36483,0.86451c2.60291,1.39452 3.90436,2.1098 3.90436,2.14582c-0.72964,1.67755 -1.14102,2.56263 -1.23417,2.65525l-4.41667,0.25472c-1.71802,-1.13209 -2.64171,-1.72901 -2.77108,-1.79076v-0.04632c0,-0.12865 0.25615,-0.70756 0.76846,-1.73673l3.44639,1.78304l0.25615,-1.01888c-2.13201,-0.95198 -3.39983,-1.54633 -3.80346,-1.78304v-0.10806c0,-0.19554 0.4114,-1.06261 1.23419,-2.60123z"/><path d="M357.73075,165.36026c0.03105,0.04631 0.17593,1.45628 0.43469,4.2299c1.99746,-0.60721 3.06087,-0.91083 3.19024,-0.91083l1.97935,1.34308c-0.32084,2.93314 -0.53043,4.64671 -0.62874,5.14072l-2.74779,0.09263c0,-0.03087 -0.01811,-0.04632 -0.05433,-0.04632l0.05433,-0.19297c0,-0.41681 0.06209,-1.6827 0.18628,-3.79764c-0.75551,-0.03087 -1.31697,-0.04632 -1.68438,-0.04632h-0.19405c0.22251,2.35166 0.33377,3.63297 0.33377,3.84395l-2.60808,0.38594c-0.09832,-0.32933 -0.67789,-3.40398 -1.73872,-9.22395c0,-0.16466 0.40363,-0.29332 1.21089,-0.38594c1.01942,-0.28818 1.77495,-0.43225 2.26655,-0.43225z"/><path d="M365.13584,164.59611l3.05054,0.47857c-0.38293,1.45628 -0.63392,2.18442 -0.75294,2.18442c-1.60418,-0.10806 -2.40626,-0.21355 -2.40626,-0.31647v-2.23845c0.01552,-0.07205 0.05174,-0.10806 0.10865,-0.10806zM364.28202,168.27025h0.04657c2.3597,0.4271 3.53954,0.67668 3.53954,0.74872c-0.6779,3.81823 -1.08929,5.94604 -1.23419,6.38343h-2.4606c-0.07243,0 -0.10865,-0.03603 -0.10865,-0.10806z"/><path d="M375.33531,167.69134l2.58479,1.7676c-0.18111,2.93314 -0.3079,4.64671 -0.38035,5.14072c-0.30013,0.03603 -1.21348,0.09006 -2.74004,0.1621l-0.05433,-0.10806l-0.27167,-4.12183l-0.10865,-0.05403c-0.98838,0.21098 -1.66886,0.37049 -2.04144,0.47857c0.1035,1.75474 0.15523,3.0232 0.15523,3.80536c-1.54208,0.4271 -2.38557,0.64066 -2.53046,0.64066c-1.00391,-4.39457 -1.50586,-6.71534 -1.50586,-6.96234c2.18375,-0.28302 3.36877,-0.42454 3.55506,-0.42454v0.05403c0.03622,0.02574 0.09055,0.5609 0.163,1.60551c2.00263,-1.32249 3.06087,-1.98373 3.17472,-1.98373z"/><path d="M384.47913,167.71451c2.19928,0.05661 3.29892,0.1518 3.29892,0.28559c0.37775,5.69647 0.56663,8.72738 0.56663,9.09273c-1.66627,1.0549 -2.85906,1.77018 -3.57835,2.14582c-2.53563,-0.79246 -3.80344,-1.24529 -3.80344,-1.35851c0.81762,-1.18869 1.2911,-1.79076 1.42047,-1.80619c1.38167,0.67926 2.17599,1.01888 2.38297,1.01888l0.73741,-0.96485c-0.19665,-0.7976 -0.32861,-1.26845 -0.39587,-1.41255c-0.11385,0 -1.51621,0.22642 -4.20708,0.67926c-1.47481,-2.38253 -2.21221,-3.60467 -2.21221,-3.66643c1.273,-2.02232 2.0492,-3.20844 2.32864,-3.55836h0.05433c0.15006,0 1.26781,0.24443 3.35323,0.73329v-0.16981c0,-0.20068 -0.01811,-0.52231 -0.05433,-0.96485zM382.04181,170.98726c0.07243,0.15952 0.30013,1.00858 0.68308,2.5472c0.48126,-0.15437 1.21866,-0.43739 2.21221,-0.84906c-0.19146,-0.92625 -0.28719,-1.45371 -0.28719,-1.58236l-0.27946,-0.05403h-0.34153c-0.43468,0 -1.09706,-0.02058 -1.98711,-0.06176z"/><path d="M33.17985,187.45144c3.07381,0.42197 4.61072,0.68183 4.61072,0.7796c1.21089,1.03432 1.81633,1.5875 1.81633,1.65954c-0.49161,1.52832 -0.77104,2.45715 -0.83832,2.78648c0.49161,1.08577 0.77104,1.73415 0.83832,1.94513c0,0.06174 -0.80209,0.22641 -2.40627,0.49401c-0.0207,-0.08748 -0.16818,-0.28302 -0.44243,-0.58662c-2.2148,0.42196 -3.40758,0.63293 -3.57835,0.63293l-1.17985,-3.17241l2.60032,-1.36622c0.41915,0.06689 1.07376,0.10032 1.96382,0.10032c0,-0.1132 0.01552,-0.4554 0.04657,-1.0266c-0.15007,0 -1.49033,0.09777 -4.02079,0.29331l-0.04658,-0.10032c0.35188,-1.62609 0.56405,-2.43913 0.6365,-2.43913zM34.79437,191.99008c0,0.05659 0.16559,0.65866 0.49678,1.8062h0.04658c0.65202,-0.42197 0.97803,-0.69984 0.97803,-0.83364l0.10091,-0.8259c-0.12419,0 -0.66495,-0.04889 -1.62229,-0.14667z"/><path d="M45.92529,187.45144c1.02461,0.57119 1.65334,0.9417 1.8862,1.11151c-0.83831,1.73416 -1.28851,2.61667 -1.35061,2.64754h-0.05434l-1.10999,-0.96484l-1.3118,1.59007l0.14748,2.89455c-0.06728,0.06174 -0.92369,0.20582 -2.56927,0.43225c-0.0621,-0.44255 -0.46572,-2.61152 -1.21089,-6.50693c0,-0.06174 1.08152,-0.22127 3.24458,-0.47858c0.03623,0.04115 0.13453,0.52229 0.29497,1.44342c1.29369,-1.44599 1.97159,-2.16898 2.03368,-2.16898z"/><path d="M50.74559,185.12037l3.41535,0.60206l-0.32601,2.57808c0.67789,-0.03602 1.17467,-0.05402 1.49033,-0.05402h0.49678l0.10867,-0.05402l0.05434,0.10805c-0.10867,1.56435 -0.20181,2.44428 -0.27944,2.63982l-0.10867,-0.06174c-0.07763,0 -0.77622,-0.03602 -2.09578,-0.10805c-0.07245,1.20927 -0.12679,2.65525 -0.16301,4.33796l-0.10867,0.05402c-1.66628,-0.10806 -2.65983,-0.20068 -2.98067,-0.27788l0.05434,-0.21612c0,-0.44769 0.07245,-1.83706 0.21733,-4.16814c-1.39718,-0.07717 -2.09578,-0.1698 -2.09578,-0.27789c0.07245,-1.71872 0.16559,-2.57808 0.27944,-2.57808l2.04144,0.38594v-0.66382c0,-0.5403 -0.0207,-1.27103 -0.0621,-2.19214c0.0414,0 0.0621,-0.018 0.0621,-0.05402z"/><path d="M63.07187,187.45144c1.49033,0.94684 2.31312,1.4923 2.46837,1.63638c-0.53817,1.18869 -0.84607,1.78304 -0.92369,1.78304l-2.82543,-1.62865h-0.10092c0,0.05145 -0.1216,0.33961 -0.36482,0.86451c2.60291,1.39452 3.90436,2.10979 3.90436,2.14582c-0.72965,1.67755 -1.14103,2.56265 -1.23418,2.65527l-4.41666,0.25471c-1.71802,-1.13208 -2.64171,-1.729 -2.77108,-1.79076v-0.04631c0,-0.12865 0.25615,-0.70756 0.76845,-1.73673l3.44639,1.78304l0.25615,-1.01887c-2.132,-0.95198 -3.39982,-1.54634 -3.80345,-1.78304v-0.10805c0,-0.19554 0.4114,-1.06261 1.23418,-2.60123z"/><path d="M68.62958,185.12037l3.41535,0.60206l-0.32601,2.57808c0.67789,-0.03602 1.17467,-0.05402 1.49033,-0.05402h0.49678l0.10867,-0.05402l0.05434,0.10805c-0.10867,1.56435 -0.20181,2.44428 -0.27944,2.63982l-0.10867,-0.06174c-0.07763,0 -0.77622,-0.03602 -2.09578,-0.10805c-0.07245,1.20927 -0.12678,2.65525 -0.163,4.33796l-0.10867,0.05402c-1.66628,-0.10806 -2.65983,-0.20068 -2.98067,-0.27788l0.05434,-0.21612c0,-0.44769 0.07245,-1.83706 0.21733,-4.16814c-1.39718,-0.07717 -2.09578,-0.1698 -2.09578,-0.27789c0.07245,-1.71872 0.16559,-2.57808 0.27944,-2.57808l2.04144,0.38594v-0.66382c0,-0.5403 -0.0207,-1.27103 -0.0621,-2.19214c0.0414,0 0.0621,-0.018 0.0621,-0.05402z"/><path d="M78.2624,187.46687c0.07245,0.01029 0.10867,0.04631 0.10867,0.10805l-0.80726,4.44603c1.54208,-0.1801 2.31312,-0.32418 2.31312,-0.43226c0.28979,-1.78047 0.48901,-2.77875 0.59768,-2.99488c1.90949,0.39109 2.96773,0.62264 3.17472,0.69469c-1.11258,3.8028 -1.7232,5.78395 -1.83186,5.94348c-1.94571,1.3585 -3.04017,2.10979 -3.28338,2.25388c-0.07245,0 -1.31181,-0.30361 -3.71807,-0.91083v-0.05402c0.6365,-1.39452 1.03237,-2.0918 1.18761,-2.0918l2.36745,1.18098l1.13328,-1.92969c-1.01942,0.25216 -1.61194,0.37823 -1.77753,0.37823l-3.01947,-1.55921c0.3674,-3.35509 0.60027,-5.03265 0.6986,-5.03265z"/><path d="M84.41002,185.12808c1.58349,0.03087 2.74522,0.04631 3.4852,0.04631c0.06728,0 0.27167,3.15956 0.61321,9.47867c-0.26391,0.06689 -1.18501,0.23669 -2.76332,0.50943c-0.07763,0 -0.33378,-1.93484 -0.76846,-5.80452c-0.03623,-0.09263 -0.2251,-1.50259 -0.56664,-4.22989z"/><path d="M93.77893,187.45916c2.34417,1.19897 3.64304,1.89882 3.8966,2.0995c-0.33635,1.56435 -0.53558,2.36967 -0.59768,2.41598h-4.90567v0.08489l1.3739,1.69041l2.15787,-1.09607c0.21217,0.36536 0.51749,1.00345 0.91594,1.91426c-0.1863,0.06174 -1.54467,0.25985 -4.07512,0.59435c-2.09578,-1.37394 -3.15143,-2.08921 -3.16696,-2.14582c0.33635,-2.6707 0.53558,-4.00605 0.59768,-4.00605c2.18893,-0.92625 3.45675,-1.44341 3.80345,-1.55146zM93.27439,189.3271c-0.0414,0.10292 -0.31567,0.51201 -0.82279,1.2273c0,0.21612 0.30532,0.32418 0.91594,0.32418c0,0.03087 0.44243,0.10549 1.32732,0.22385c0.24322,-0.33448 0.36482,-0.53002 0.36482,-0.58662c-0.07763,-0.45799 -0.2458,-0.68696 -0.50454,-0.68696z"/><path d="M104.64594,187.45144c1.49033,0.94684 2.31312,1.4923 2.46837,1.63638c-0.53817,1.18869 -0.84607,1.78304 -0.92369,1.78304l-2.82543,-1.62865h-0.10092c0,0.05145 -0.1216,0.33961 -0.36482,0.86451c2.60291,1.39452 3.90436,2.10979 3.90436,2.14582c-0.72965,1.67755 -1.14103,2.56265 -1.23419,2.65527l-4.41666,0.25471c-1.71802,-1.13208 -2.64171,-1.729 -2.77108,-1.79076v-0.04631c0,-0.12865 0.25615,-0.70756 0.76845,-1.73673l3.44639,1.78304l0.25615,-1.01887c-2.132,-0.95198 -3.39982,-1.54634 -3.80345,-1.78304v-0.10805c0,-0.19554 0.4114,-1.06261 1.23419,-2.60123z"/><path d="M110.07944,184.15551l0.03106,0.06174l-0.21734,2.84052h-0.03105c-1.01425,-0.04631 -1.52139,-0.10805 -1.52139,-0.18524l-0.43468,-2.50089c0,-0.04115 0.72447,-0.1132 2.17341,-0.21614zM112.70305,184.11692l0.03105,0.06174l-0.21733,2.84052h-0.03105c-1.01425,-0.04631 -1.52139,-0.10805 -1.52139,-0.18526l-0.43469,-2.50089c0,-0.04115 0.72447,-0.1132 2.17341,-0.21612z"/><path d="M114.55044,193.49524c1.40753,0.16466 2.1139,0.25729 2.11907,0.27788c-0.85384,1.9966 -1.3325,3.04636 -1.43599,3.14926c-0.70377,-0.08748 -1.05565,-0.15952 -1.05565,-0.21612c0.1863,-2.14068 0.30013,-3.21102 0.34153,-3.21102z"/><path d="M125.35535,185.12037l0.05434,0.10032c0,0.29331 0.06728,1.42797 0.20181,3.40397c1.85257,-0.58662 2.89011,-0.89538 3.11262,-0.92625l2.79437,2.98718c-1.17467,2.61924 -1.81375,4.00862 -1.91725,4.16814c-0.32601,-0.03602 -1.5162,-0.08747 -3.57058,-0.15438v0.36279c0,0.06689 -0.03623,0.10032 -0.10867,0.10032h-3.00395c-0.10867,0 -0.31567,-1.54376 -0.62097,-4.63127c-0.06728,-0.26244 -0.25615,-1.80877 -0.56664,-4.63899c1.75943,-0.41168 2.96773,-0.66897 3.62491,-0.77188zM125.87542,190.78596l0.20181,1.90654h1.56019l0.56664,-2.16127c-1.55243,0.13378 -2.32864,0.2187 -2.32864,0.25472z"/><path d="M136.50955,187.45144l0.05434,0.10032l-1.04789,5.52666h0.05434l2.67017,-0.7796v-3.12611c0.01035,-0.07203 0.04398,-0.10805 0.10091,-0.10805c2.00782,0.13894 3.12556,0.20841 3.35325,0.20841c0,0.03602 0.01811,0.05402 0.05434,0.05402c0,0.87994 -0.27945,2.70415 -0.83832,5.47263c0,0.15952 -0.80208,0.28045 -2.40626,0.36278c-0.0828,-0.09777 -0.15266,-0.30617 -0.20958,-0.62522c-2.05438,0.41681 -3.22647,0.62522 -3.51625,0.62522c-1.6404,-1.21441 -2.4606,-1.83964 -2.4606,-1.87567c0.27944,-3.64841 0.45537,-5.54209 0.52783,-5.68102h0.04658c1.30922,-0.03602 2.51493,-0.08747 3.61716,-0.15438z"/><path d="M144.85387,185.12037l3.41535,0.60206l-0.32601,2.57808c0.67789,-0.03602 1.17467,-0.05402 1.49033,-0.05402h0.49678l0.10867,-0.05402l0.05434,0.10805c-0.10867,1.56435 -0.20182,2.44428 -0.27945,2.63982l-0.10867,-0.06174c-0.07763,0 -0.77622,-0.03602 -2.09578,-0.10805c-0.07245,1.20927 -0.12679,2.65525 -0.16301,4.33796l-0.10867,0.05402c-1.66628,-0.10806 -2.65983,-0.20068 -2.98067,-0.27788l0.05434,-0.21612c0,-0.44769 0.07245,-1.83706 0.21734,-4.16814c-1.39718,-0.07717 -2.09578,-0.1698 -2.09578,-0.27789c0.07245,-1.71872 0.16559,-2.57808 0.27944,-2.57808l2.04144,0.38594v-0.66382c0,-0.5403 -0.0207,-1.27103 -0.0621,-2.19214c0.0414,0 0.0621,-0.018 0.0621,-0.05402z"/><path d="M157.18015,185.12037l3.41534,0.60206l-0.32601,2.57808c0.6779,-0.03602 1.17467,-0.05402 1.49034,-0.05402h0.49677l0.10865,-0.05402l0.05433,0.10805c-0.10867,1.56435 -0.20182,2.44428 -0.27946,2.63982l-0.10865,-0.06174c-0.07761,0 -0.7762,-0.03602 -2.09578,-0.10805c-0.07243,1.20927 -0.12677,2.65525 -0.163,4.33796l-0.10865,0.05402c-1.66628,-0.10806 -2.65983,-0.20068 -2.98067,-0.27788l0.05434,-0.21612c0,-0.44769 0.07245,-1.83706 0.21734,-4.16814c-1.39718,-0.07717 -2.09578,-0.1698 -2.09578,-0.27789c0.07245,-1.71872 0.16559,-2.57808 0.27945,-2.57808l2.04144,0.38594v-0.66382c0,-0.5403 -0.0207,-1.27103 -0.0621,-2.19214c0.0414,0 0.0621,-0.018 0.0621,-0.05402z"/><path d="M166.71984,185.12037c0.03105,0.04631 0.17593,1.45627 0.43468,4.22989c1.99746,-0.60721 3.06087,-0.91083 3.19024,-0.91083l1.97935,1.34308c-0.32083,2.93314 -0.53041,4.64671 -0.62873,5.14072l-2.74781,0.09261c0,-0.03087 -0.01811,-0.04631 -0.05433,-0.04631l0.05433,-0.19297c0,-0.41681 0.0621,-1.6827 0.1863,-3.79764c-0.75551,-0.03087 -1.31697,-0.04631 -1.68438,-0.04631h-0.19405c0.22251,2.35167 0.33377,3.63299 0.33377,3.84396l-2.60809,0.38593c-0.09832,-0.32933 -0.67789,-3.40398 -1.73872,-9.22395c0,-0.16466 0.40363,-0.2933 1.21089,-0.38593c1.01942,-0.28818 1.77495,-0.43226 2.26655,-0.43226z"/><path d="M177.45489,187.45916c2.34417,1.19897 3.64304,1.89882 3.89659,2.0995c-0.33635,1.56435 -0.53558,2.36967 -0.59768,2.41598h-4.90567v0.08489l1.3739,1.69041l2.15788,-1.09607c0.21216,0.36536 0.51747,1.00345 0.91592,1.91426c-0.18629,0.06174 -1.54467,0.25985 -4.07511,0.59435c-2.09578,-1.37394 -3.15143,-2.08921 -3.16696,-2.14582c0.33635,-2.6707 0.53559,-4.00605 0.59768,-4.00605c2.18894,-0.92625 3.45675,-1.44341 3.80346,-1.55146zM176.95034,189.3271c-0.04139,0.10292 -0.31566,0.51201 -0.8228,1.2273c0,0.21612 0.30532,0.32418 0.91594,0.32418c0,0.03087 0.44243,0.10549 1.32732,0.22385c0.24322,-0.33448 0.36483,-0.53002 0.36483,-0.58662c-0.07761,-0.45799 -0.24579,-0.68696 -0.50455,-0.68696z"/><path d="M186.34254,185.62209c1.44893,0.06174 2.17341,0.12349 2.17341,0.18524v0.03087c0,0.28817 0.13453,3.38598 0.40363,9.29342l-0.06208,0.03087l-2.82543,-0.18524c-0.0207,-0.04115 -0.03105,-0.07203 -0.03105,-0.09261l0.24839,-8.98466c0.01552,-0.18525 0.04657,-0.27788 0.09313,-0.27788z"/><path d="M196.46439,187.45144l2.58479,1.7676c-0.18111,2.93314 -0.3079,4.64671 -0.38035,5.14072c-0.30014,0.03602 -1.21349,0.09005 -2.74004,0.16211l-0.05433,-0.10805l-0.27167,-4.12183l-0.10865,-0.05402c-0.98838,0.21098 -1.66886,0.37049 -2.04144,0.47857c0.1035,1.75474 0.15523,3.0232 0.15523,3.80536c-1.54208,0.42709 -2.38557,0.64066 -2.53046,0.64066c-1.00391,-4.39457 -1.50586,-6.71533 -1.50586,-6.96233c2.18375,-0.28303 3.36877,-0.42454 3.55506,-0.42454v0.05402c0.03622,0.02573 0.09055,0.56089 0.163,1.60551c2.00263,-1.32249 3.06087,-1.98374 3.17472,-1.98374z"/><path d="M202.13852,185.12037l3.41534,0.60206l-0.32601,2.57808c0.6779,-0.03602 1.17467,-0.05402 1.49034,-0.05402h0.49677l0.10865,-0.05402l0.05433,0.10805c-0.10867,1.56435 -0.20182,2.44428 -0.27944,2.63982l-0.10865,-0.06174c-0.07761,0 -0.7762,-0.03602 -2.09578,-0.10805c-0.07243,1.20927 -0.12677,2.65525 -0.163,4.33796l-0.10865,0.05402c-1.66628,-0.10806 -2.65983,-0.20068 -2.98067,-0.27788l0.05433,-0.21612c0,-0.44769 0.07245,-1.83706 0.21733,-4.16814c-1.39717,-0.07717 -2.09577,-0.1698 -2.09577,-0.27789c0.07243,-1.71872 0.16557,-2.57808 0.27944,-2.57808l2.04144,0.38594v-0.66382c0,-0.5403 -0.0207,-1.27103 -0.06208,-2.19214c0.04139,0 0.06208,-0.018 0.06208,-0.05402z"/><path d="M212.60189,187.45916c2.34417,1.19897 3.64304,1.89882 3.89659,2.0995c-0.33635,1.56435 -0.53558,2.36967 -0.59768,2.41598h-4.90567v0.08489l1.3739,1.69041l2.15788,-1.09607c0.21216,0.36536 0.51747,1.00345 0.91592,1.91426c-0.18629,0.06174 -1.54467,0.25985 -4.07511,0.59435c-2.09578,-1.37394 -3.15143,-2.08921 -3.16696,-2.14582c0.33635,-2.6707 0.53559,-4.00605 0.59768,-4.00605c2.18894,-0.92625 3.45675,-1.44341 3.80346,-1.55146zM212.09734,189.3271c-0.04139,0.10292 -0.31566,0.51201 -0.82279,1.2273c0,0.21612 0.30531,0.32418 0.91592,0.32418c0,0.03087 0.44243,0.10549 1.32732,0.22385c0.24322,-0.33448 0.36483,-0.53002 0.36483,-0.58662c-0.07761,-0.45799 -0.24579,-0.68696 -0.50455,-0.68696z"/><path d="M222.77806,187.45144c1.02461,0.57119 1.65334,0.9417 1.88621,1.11151c-0.83831,1.73416 -1.28852,2.61667 -1.35062,2.64754h-0.05433l-1.10999,-0.96484l-1.3118,1.59007l0.14748,2.89455c-0.06727,0.06174 -0.92368,0.20582 -2.56927,0.43225c-0.06208,-0.44255 -0.46571,-2.61152 -1.21089,-6.50693c0,-0.06174 1.08152,-0.22127 3.24458,-0.47858c0.03622,0.04115 0.13453,0.52229 0.29497,1.44342c1.29368,-1.44599 1.97159,-2.16898 2.03367,-2.16898z"/><path d="M232.17026,187.45144l2.58479,1.7676c-0.18111,2.93314 -0.3079,4.64671 -0.38035,5.14072c-0.30013,0.03602 -1.21348,0.09005 -2.74004,0.16211l-0.05433,-0.10805l-0.27167,-4.12183l-0.10865,-0.05402c-0.98838,0.21098 -1.66886,0.37049 -2.04144,0.47857c0.1035,1.75474 0.15523,3.0232 0.15523,3.80536c-1.54208,0.42709 -2.38557,0.64066 -2.53046,0.64066c-1.00391,-4.39457 -1.50586,-6.71533 -1.50586,-6.96233c2.18375,-0.28303 3.36877,-0.42454 3.55506,-0.42454v0.05402c0.03622,0.02573 0.09055,0.56089 0.163,1.60551c2.00263,-1.32249 3.06087,-1.98374 3.17472,-1.98374z"/><path d="M239.92465,187.45916c2.34417,1.19897 3.64304,1.89882 3.8966,2.0995c-0.33635,1.56435 -0.53559,2.36967 -0.59768,2.41598h-4.90567v0.08489l1.3739,1.69041l2.15787,-1.09607c0.21217,0.36536 0.51749,1.00345 0.91594,1.91426c-0.18629,0.06174 -1.54467,0.25985 -4.07513,0.59435c-2.09578,-1.37394 -3.15142,-2.08921 -3.16695,-2.14582c0.33635,-2.6707 0.53558,-4.00605 0.59768,-4.00605c2.18892,-0.92625 3.45674,-1.44341 3.80344,-1.55146zM239.4201,189.3271c-0.04139,0.10292 -0.31566,0.51201 -0.82279,1.2273c0,0.21612 0.30532,0.32418 0.91594,0.32418c0,0.03087 0.44243,0.10549 1.32732,0.22385c0.24322,-0.33448 0.36482,-0.53002 0.36482,-0.58662c-0.07761,-0.45799 -0.24578,-0.68696 -0.50453,-0.68696z"/><path d="M246.84849,185.12037l3.41534,0.60206l-0.32601,2.57808c0.6779,-0.03602 1.17467,-0.05402 1.49034,-0.05402h0.49677l0.10865,-0.05402l0.05433,0.10805c-0.10867,1.56435 -0.20182,2.44428 -0.27944,2.63982l-0.10865,-0.06174c-0.07761,0 -0.7762,-0.03602 -2.09578,-0.10805c-0.07243,1.20927 -0.12677,2.65525 -0.163,4.33796l-0.10865,0.05402c-1.66628,-0.10806 -2.65983,-0.20068 -2.98067,-0.27788l0.05433,-0.21612c0,-0.44769 0.07245,-1.83706 0.21733,-4.16814c-1.39717,-0.07717 -2.09577,-0.1698 -2.09577,-0.27789c0.07243,-1.71872 0.16557,-2.57808 0.27944,-2.57808l2.04144,0.38594v-0.66382c0,-0.5403 -0.0207,-1.27103 -0.06208,-2.19214c0.04139,0 0.06208,-0.018 0.06208,-0.05402z"/><path d="M257.92506,184.3562l3.05052,0.47858c-0.38293,1.45628 -0.63392,2.18442 -0.75294,2.18442c-1.60418,-0.10806 -2.40626,-0.21355 -2.40626,-0.31647v-2.23845c0.01552,-0.07203 0.05174,-0.10805 0.10865,-0.10805zM257.07122,188.03035h0.04657c2.3597,0.42711 3.53954,0.67668 3.53954,0.74873c-0.6779,3.81823 -1.08929,5.94603 -1.23419,6.38342h-2.4606c-0.07243,0 -0.10865,-0.03602 -0.10865,-0.10805z"/><path d="M267.4958,187.45144c1.49033,0.94684 2.31311,1.4923 2.46836,1.63638c-0.53817,1.18869 -0.84607,1.78304 -0.92369,1.78304l-2.82543,-1.62865h-0.10089c0,0.05145 -0.12161,0.33961 -0.36483,0.86451c2.60291,1.39452 3.90436,2.10979 3.90436,2.14582c-0.72964,1.67755 -1.14102,2.56265 -1.23417,2.65527l-4.41667,0.25471c-1.71802,-1.13208 -2.64171,-1.729 -2.77108,-1.79076v-0.04631c0,-0.12865 0.25615,-0.70756 0.76846,-1.73673l3.44639,1.78304l0.25615,-1.01887c-2.13201,-0.95198 -3.39983,-1.54634 -3.80346,-1.78304v-0.10805c0,-0.19554 0.4114,-1.06261 1.23419,-2.60123z"/><path d="M277.80394,187.45916c1.96641,0.52488 3.00912,0.84391 3.12814,0.95713c1.08152,1.52318 1.68956,2.40054 1.8241,2.63211c-0.69859,2.20243 -1.09963,3.30364 -1.20314,3.30364c-2.32865,0.5403 -3.54731,0.81048 -3.65597,0.81048c-1.92502,-1.11665 -2.94961,-1.7393 -3.07381,-1.86794c-0.06727,-2.07892 -0.10089,-3.22645 -0.10089,-3.44258c-0.03105,-0.06174 -0.04657,-0.10805 -0.04657,-0.13894c1.98711,-1.50259 3.01431,-2.25388 3.08158,-2.25388zM277.65645,190.28423c-0.03105,0.20584 -0.07762,0.95457 -0.13972,2.24618l1.73095,0.38593c0.41399,-1.28646 0.62097,-1.97343 0.62097,-2.06091c-1.37649,-0.41167 -2.1139,-0.6175 -2.21222,-0.6175z"/><path d="M290.35531,187.45144l2.58479,1.7676c-0.18111,2.93314 -0.3079,4.64671 -0.38035,5.14072c-0.30014,0.03602 -1.21349,0.09005 -2.74004,0.16211l-0.05433,-0.10805l-0.27167,-4.12183l-0.10865,-0.05402c-0.98838,0.21098 -1.66886,0.37049 -2.04144,0.47857c0.1035,1.75474 0.15525,3.0232 0.15525,3.80536c-1.54208,0.42709 -2.38557,0.64066 -2.53046,0.64066c-1.00391,-4.39457 -1.50586,-6.71533 -1.50586,-6.96233c2.18375,-0.28303 3.36877,-0.42454 3.55505,-0.42454v0.05402c0.03622,0.02573 0.09056,0.56089 0.16302,1.60551c2.00263,-1.32249 3.06087,-1.98374 3.17472,-1.98374z"/><path d="M298.1097,187.45916c2.34417,1.19897 3.64304,1.89882 3.8966,2.0995c-0.33635,1.56435 -0.53559,2.36967 -0.59768,2.41598h-4.90567v0.08489l1.37389,1.69041l2.15788,-1.09607c0.21217,0.36536 0.51749,1.00345 0.91594,1.91426c-0.18629,0.06174 -1.54467,0.25985 -4.07513,0.59435c-2.09578,-1.37394 -3.15143,-2.08921 -3.16696,-2.14582c0.33635,-2.6707 0.53559,-4.00605 0.5977,-4.00605c2.18892,-0.92625 3.45674,-1.44341 3.80344,-1.55146zM297.60515,189.3271c-0.04139,0.10292 -0.31566,0.51201 -0.82279,1.2273c0,0.21612 0.30532,0.32418 0.91594,0.32418c0,0.03087 0.44243,0.10549 1.32732,0.22385c0.24322,-0.33448 0.36482,-0.53002 0.36482,-0.58662c-0.07761,-0.45799 -0.24578,-0.68696 -0.50453,-0.68696z"/><path d="M310.13326,185.12037c0.03105,0.04631 0.17593,1.45627 0.43469,4.22989c1.99746,-0.60721 3.06087,-0.91083 3.19024,-0.91083l1.97935,1.34308c-0.32084,2.93314 -0.53043,4.64671 -0.62874,5.14072l-2.74779,0.09261c0,-0.03087 -0.01811,-0.04631 -0.05433,-0.04631l0.05433,-0.19297c0,-0.41681 0.0621,-1.6827 0.1863,-3.79764c-0.75552,-0.03087 -1.31698,-0.04631 -1.68439,-0.04631h-0.19405c0.22251,2.35167 0.33377,3.63299 0.33377,3.84396l-2.60808,0.38593c-0.09832,-0.32933 -0.67789,-3.40398 -1.73872,-9.22395c0,-0.16466 0.40363,-0.2933 1.21089,-0.38593c1.01942,-0.28818 1.77495,-0.43226 2.26655,-0.43226z"/><path d="M320.65874,187.45144l0.05433,0.10032l-1.04789,5.52666h0.05433l2.67019,-0.7796v-3.12611c0.01035,-0.07203 0.04398,-0.10805 0.10089,-0.10805c2.00782,0.13894 3.12556,0.20841 3.35325,0.20841c0,0.03602 0.01811,0.05402 0.05433,0.05402c0,0.87994 -0.27945,2.70415 -0.83832,5.47263c0,0.15952 -0.80208,0.28045 -2.40626,0.36278c-0.08279,-0.09777 -0.15264,-0.30617 -0.20958,-0.62522c-2.05438,0.41681 -3.22647,0.62522 -3.51625,0.62522c-1.64041,-1.21441 -2.46061,-1.83964 -2.46061,-1.87567c0.27945,-3.64841 0.45538,-5.54209 0.52783,-5.68102h0.04657c1.30923,-0.03602 2.51494,-0.08747 3.61717,-0.15438z"/><path d="M332.47271,187.47459c2.19928,0.05659 3.29892,0.15179 3.29892,0.28559c0.37776,5.69647 0.56665,8.72738 0.56665,9.09273c-1.66628,1.0549 -2.85906,1.77018 -3.57835,2.14583c-2.53564,-0.79246 -3.80346,-1.24529 -3.80346,-1.35851c0.81762,-1.18869 1.2911,-1.79076 1.42048,-1.80619c1.38166,0.67925 2.17599,1.01887 2.38297,1.01887l0.7374,-0.96485c-0.19665,-0.7976 -0.32861,-1.26845 -0.39587,-1.41254c-0.11385,0 -1.51621,0.22642 -4.20708,0.67925c-1.47481,-2.38253 -2.21221,-3.60466 -2.21221,-3.66641c1.273,-2.02232 2.0492,-3.20844 2.32864,-3.55836h0.05433c0.15006,0 1.26781,0.24442 3.35325,0.73328v-0.16982c0,-0.20068 -0.01811,-0.52229 -0.05433,-0.96484zM330.0354,190.74735c0.07243,0.15952 0.30012,1.00859 0.68307,2.54721c0.48126,-0.15436 1.21866,-0.43739 2.21221,-0.84907c-0.19146,-0.92625 -0.28719,-1.45371 -0.28719,-1.58236l-0.27944,-0.05402h-0.34153c-0.43468,0 -1.09706,-0.02058 -1.98711,-0.06174z"/><path d="M341.57771,187.45916c2.34417,1.19897 3.64304,1.89882 3.8966,2.0995c-0.33635,1.56435 -0.53559,2.36967 -0.59768,2.41598h-4.90567v0.08489l1.3739,1.69041l2.15787,-1.09607c0.21217,0.36536 0.51749,1.00345 0.91594,1.91426c-0.18629,0.06174 -1.54467,0.25985 -4.07511,0.59435c-2.09578,-1.37394 -3.15143,-2.08921 -3.16696,-2.14582c0.33635,-2.6707 0.53558,-4.00605 0.59768,-4.00605c2.18892,-0.92625 3.45674,-1.44341 3.80344,-1.55146zM341.07319,189.3271c-0.04139,0.10292 -0.31566,0.51201 -0.8228,1.2273c0,0.21612 0.30532,0.32418 0.91594,0.32418c0,0.03087 0.44243,0.10549 1.32732,0.22385c0.24322,-0.33448 0.36483,-0.53002 0.36483,-0.58662c-0.07761,-0.45799 -0.24579,-0.68696 -0.50455,-0.68696z"/><path d="M358.74759,187.45144c1.26265,0.51973 2.35193,1.00859 3.26786,1.46658c-0.23803,3.06178 -0.39069,4.73676 -0.45795,5.02493c-1.52139,0.37565 -2.37263,0.56348 -2.55375,0.56348c0,-0.66897 -0.05174,-1.98889 -0.15523,-3.95975c-0.5744,0.05659 -0.8616,0.10549 -0.8616,0.14667c0,0.19554 0.03362,1.31219 0.10089,3.34994c0.03105,0 0.04657,0.018 0.04657,0.05402c0,0.06174 -0.79951,0.23155 -2.3985,0.50945c-0.06727,-0.08233 -0.27167,-1.33533 -0.61323,-3.75905c-0.64684,0.16466 -0.97026,0.28302 -0.97026,0.35506l0.31048,3.14926c-0.06208,0.06689 -0.91333,0.33704 -2.55374,0.81048c-0.95215,-3.34995 -1.54727,-5.59869 -1.7853,-6.74622c1.79565,-0.44255 2.79955,-0.66382 3.0117,-0.66382c0.23805,0.93654 0.35706,1.47686 0.35706,1.62095h0.05433c0.87453,-0.80275 1.48515,-1.34308 1.83186,-1.62095h0.05433l1.63006,1.16554h0.05433c1.01943,-0.97772 1.56279,-1.46658 1.63006,-1.46658z"/><path d="M367.19282,187.45916c2.34417,1.19897 3.64304,1.89882 3.8966,2.0995c-0.33635,1.56435 -0.53559,2.36967 -0.59768,2.41598h-4.90567v0.08489l1.37389,1.69041l2.15788,-1.09607c0.21217,0.36536 0.51749,1.00345 0.91594,1.91426c-0.18629,0.06174 -1.54467,0.25985 -4.07513,0.59435c-2.09578,-1.37394 -3.15143,-2.08921 -3.16696,-2.14582c0.33635,-2.6707 0.53559,-4.00605 0.59768,-4.00605c2.18894,-0.92625 3.45675,-1.44341 3.80346,-1.55146zM366.68827,189.3271c-0.04139,0.10292 -0.31566,0.51201 -0.82279,1.2273c0,0.21612 0.30532,0.32418 0.91594,0.32418c0,0.03087 0.44243,0.10549 1.32732,0.22385c0.24322,-0.33448 0.36482,-0.53002 0.36482,-0.58662c-0.07761,-0.45799 -0.24578,-0.68696 -0.50453,-0.68696z"/><path d="M378.05981,187.45144c1.49033,0.94684 2.31312,1.4923 2.46836,1.63638c-0.53817,1.18869 -0.84607,1.78304 -0.92369,1.78304l-2.82542,-1.62865h-0.10089c0,0.05145 -0.1216,0.33961 -0.36482,0.86451c2.60291,1.39452 3.90436,2.10979 3.90436,2.14582c-0.72965,1.67755 -1.14103,2.56265 -1.23419,2.65527l-4.41667,0.25471c-1.71802,-1.13208 -2.64171,-1.729 -2.77108,-1.79076v-0.04631c0,-0.12865 0.25615,-0.70756 0.76846,-1.73673l3.44639,1.78304l0.25615,-1.01887c-2.132,-0.95198 -3.39982,-1.54634 -3.80346,-1.78304v-0.10805c0,-0.19554 0.4114,-1.06261 1.23419,-2.60123z"/><path d="M387.56069,187.45144c1.49033,0.94684 2.31312,1.4923 2.46836,1.63638c-0.53817,1.18869 -0.84607,1.78304 -0.92369,1.78304l-2.82542,-1.62865h-0.10089c0,0.05145 -0.1216,0.33961 -0.36482,0.86451c2.60291,1.39452 3.90436,2.10979 3.90436,2.14582c-0.72965,1.67755 -1.14103,2.56265 -1.23419,2.65527l-4.41667,0.25471c-1.71802,-1.13208 -2.64171,-1.729 -2.77108,-1.79076v-0.04631c0,-0.12865 0.25615,-0.70756 0.76846,-1.73673l3.44639,1.78304l0.25615,-1.01887c-2.132,-0.95198 -3.39981,-1.54634 -3.80344,-1.78304v-0.10805c0,-0.19554 0.4114,-1.06261 1.23417,-2.60123z"/><path d="M38.26405,207.21153c1.49033,0.94684 2.31312,1.4923 2.46837,1.63638c-0.53817,1.18869 -0.84607,1.78304 -0.92369,1.78304l-2.82543,-1.62865h-0.10091c0,0.05145 -0.1216,0.33961 -0.36482,0.86451c2.60291,1.39452 3.90436,2.10979 3.90436,2.14582c-0.72965,1.67755 -1.14103,2.56264 -1.23418,2.65527l-4.41666,0.25471c-1.71802,-1.13208 -2.64171,-1.729 -2.77108,-1.79076v-0.04631c0,-0.12865 0.25615,-0.70756 0.76845,-1.73673l3.44639,1.78304l0.25615,-1.01887c-2.132,-0.95198 -3.39982,-1.54634 -3.80345,-1.78304v-0.10805c0,-0.19554 0.4114,-1.06261 1.23418,-2.60123z"/><path d="M44.62901,207.21925c1.96641,0.52488 3.00912,0.84391 3.12815,0.95713c1.08152,1.52318 1.68957,2.40054 1.8241,2.63211c-0.6986,2.20243 -1.09964,3.30364 -1.20314,3.30364c-2.32864,0.5403 -3.54731,0.81048 -3.65597,0.81048c-1.92502,-1.11665 -2.94961,-1.7393 -3.07381,-1.86794c-0.06728,-2.07892 -0.10091,-3.22645 -0.10091,-3.44258c-0.03105,-0.06174 -0.04657,-0.10805 -0.04657,-0.13894c1.98711,-1.50259 3.0143,-2.25388 3.08157,-2.25388zM44.48154,210.04433c-0.03105,0.20584 -0.07763,0.95456 -0.13972,2.24617l1.73095,0.38594c0.41398,-1.28646 0.62097,-1.97343 0.62097,-2.06091c-1.37649,-0.41167 -2.1139,-0.6175 -2.21221,-0.6175z"/><path d="M54.57233,205.38218c1.44893,0.06174 2.1734,0.12349 2.1734,0.18524v0.03087c0,0.28817 0.13453,3.38598 0.40363,9.29342l-0.0621,0.03087l-2.82543,-0.18524c-0.0207,-0.04115 -0.03105,-0.07203 -0.03105,-0.09261l0.24839,-8.98466c0.01552,-0.18525 0.04657,-0.27788 0.09315,-0.27788z"/><path d="M64.79507,207.21925c2.33382,0.43739 3.55506,0.68696 3.66374,0.74872v0.09261c-0.50195,1.40996 -0.75293,2.14068 -0.75293,2.19215h-0.04658c-0.12937,0 -0.75551,-0.20069 -1.87844,-0.60208c-0.62615,1.04461 -0.93921,1.60294 -0.93921,1.67498l1.55243,1.49745c1.20054,-1.1218 1.81116,-1.6827 1.83186,-1.6827c0.93664,1.21957 1.40495,1.90397 1.40495,2.05319c-0.5123,0.29332 -1.40495,0.86965 -2.67793,1.72901c-2.46319,-0.53002 -3.7931,-0.82591 -3.98974,-0.88765l-1.21866,-3.92114z"/><path d="M71.58695,207.21153c3.07381,0.42197 4.61072,0.68183 4.61072,0.7796c1.21089,1.03432 1.81633,1.5875 1.81633,1.65954c-0.49161,1.52832 -0.77104,2.45715 -0.83832,2.78648c0.49161,1.08577 0.77104,1.73415 0.83832,1.94513c0,0.06174 -0.80209,0.22641 -2.40627,0.49401c-0.0207,-0.08748 -0.16818,-0.28302 -0.44243,-0.58662c-2.2148,0.42196 -3.40759,0.63293 -3.57836,0.63293l-1.17984,-3.17241l2.60032,-1.36622c0.41915,0.06689 1.07377,0.10032 1.96383,0.10032c0,-0.1132 0.01553,-0.4554 0.04658,-1.02661c-0.15007,0 -1.49034,0.09777 -4.0208,0.29332l-0.04658,-0.10032c0.35188,-1.62609 0.56405,-2.43913 0.6365,-2.43913zM73.20148,211.75017c0,0.05659 0.16559,0.65866 0.49678,1.8062h0.04658c0.65202,-0.42197 0.97803,-0.69984 0.97803,-0.83364l0.10092,-0.8259c-0.12419,0 -0.66495,-0.04889 -1.62229,-0.14667z"/><path d="M85.65196,207.21153l2.58479,1.7676c-0.18111,2.93314 -0.3079,4.64671 -0.38035,5.14072c-0.30014,0.03602 -1.21348,0.09005 -2.74004,0.16211l-0.05434,-0.10805l-0.27168,-4.12183l-0.10867,-0.05402c-0.98838,0.21098 -1.66886,0.37049 -2.04144,0.47857c0.1035,1.75474 0.15523,3.0232 0.15523,3.80536c-1.54208,0.42709 -2.38557,0.64066 -2.53046,0.64066c-1.00391,-4.39457 -1.50585,-6.71533 -1.50585,-6.96233c2.18375,-0.28303 3.36877,-0.42454 3.55506,-0.42454v0.05402c0.03623,0.02573 0.09057,0.56089 0.16301,1.60551c2.00264,-1.32249 3.06088,-1.98374 3.17472,-1.98374z"/><path d="M92.94839,204.88817c1.58349,0.03087 2.74521,0.04631 3.4852,0.04631c0.06728,0 0.27168,3.15956 0.61322,9.47867c-0.26391,0.06689 -1.18502,0.23669 -2.76332,0.50943c-0.07763,0 -0.33377,-1.93484 -0.76845,-5.80452c-0.03623,-0.09263 -0.2251,-1.50259 -0.56664,-4.22989z"/><path d="M101.04431,207.21925c1.96641,0.52488 3.00912,0.84391 3.12814,0.95713c1.08152,1.52318 1.68957,2.40054 1.8241,2.63211c-0.6986,2.20243 -1.09963,3.30364 -1.20314,3.30364c-2.32864,0.5403 -3.54731,0.81048 -3.65597,0.81048c-1.92502,-1.11665 -2.94961,-1.7393 -3.07381,-1.86794c-0.06728,-2.07892 -0.10092,-3.22645 -0.10092,-3.44258c-0.03105,-0.06174 -0.04658,-0.10805 -0.04658,-0.13894c1.98711,-1.50259 3.0143,-2.25388 3.08157,-2.25388zM100.89682,210.04433c-0.03105,0.20584 -0.07763,0.95456 -0.13972,2.24617l1.73095,0.38594c0.41398,-1.28646 0.62097,-1.97343 0.62097,-2.06091c-1.37649,-0.41167 -2.1139,-0.6175 -2.21221,-0.6175z"/><path d="M109.83106,207.21925c1.96641,0.52488 3.00912,0.84391 3.12814,0.95713c1.08152,1.52318 1.68957,2.40054 1.8241,2.63211c-0.6986,2.20243 -1.09964,3.30364 -1.20314,3.30364c-2.32864,0.5403 -3.54731,0.81048 -3.65597,0.81048c-1.92502,-1.11665 -2.94961,-1.7393 -3.07381,-1.86794c-0.06728,-2.07892 -0.10092,-3.22645 -0.10092,-3.44258c-0.03105,-0.06174 -0.04658,-0.10805 -0.04658,-0.13894c1.98711,-1.50259 3.0143,-2.25388 3.08157,-2.25388zM109.68357,210.04433c-0.03105,0.20584 -0.07763,0.95456 -0.13972,2.24617l1.73095,0.38594c0.41398,-1.28646 0.62097,-1.97343 0.62097,-2.06091c-1.37649,-0.41167 -2.1139,-0.6175 -2.21221,-0.6175z"/><path d="M118.91277,204.88046c0.07245,0.20584 0.23545,1.66468 0.489,4.37655l2.32865,-2.59351h0.05434c0.36224,0.29847 1.03237,0.92883 2.01039,1.8911v0.05402l-2.22773,1.82935c1.67663,1.11666 2.56409,1.74702 2.66241,1.8911c-1.05565,1.16811 -1.68956,1.8345 -1.90173,1.99916l-2.70899,-2.48544c0.10867,1.1115 0.16301,1.93998 0.16301,2.48544c-0.12937,0.07203 -1.08928,0.27014 -2.87975,0.59435c-0.14489,-0.72042 -0.6158,-3.81565 -1.41271,-9.2857c0.33118,-0.10806 1.47223,-0.3602 3.42311,-0.75643z"/><path d="M128.84056,204.88817c1.58349,0.03087 2.74522,0.04631 3.4852,0.04631c0.06727,0 0.27167,3.15956 0.61321,9.47867c-0.26391,0.06689 -1.18501,0.23669 -2.76332,0.50943c-0.07763,0 -0.33378,-1.93484 -0.76846,-5.80452c-0.03623,-0.09263 -0.2251,-1.50259 -0.56664,-4.22989z"/><path d="M134.8795,204.11629l3.05052,0.47858c-0.38293,1.45628 -0.63391,2.18442 -0.75293,2.18442c-1.60418,-0.10806 -2.40627,-0.21355 -2.40627,-0.31647v-2.23845c0.01552,-0.07203 0.05174,-0.10805 0.10867,-0.10805zM134.02567,207.79044h0.04658c2.35969,0.42711 3.53954,0.67668 3.53954,0.74873c-0.67789,3.81822 -1.08928,5.94602 -1.23418,6.38342h-2.46061c-0.07245,0 -0.10867,-0.03602 -0.10867,-0.10805z"/><path d="M141.60929,204.88046c0.07245,0.20584 0.23545,1.66468 0.489,4.37655l2.32865,-2.59351h0.05434c0.36224,0.29847 1.03237,0.92883 2.01039,1.8911v0.05402l-2.22773,1.82935c1.67663,1.11666 2.56409,1.74702 2.66241,1.8911c-1.05565,1.16811 -1.68956,1.8345 -1.90173,1.99916l-2.70899,-2.48544c0.10867,1.1115 0.16301,1.93998 0.16301,2.48544c-0.12937,0.07203 -1.08928,0.27014 -2.87975,0.59435c-0.14489,-0.72042 -0.6158,-3.81565 -1.41271,-9.2857c0.33118,-0.10806 1.47223,-0.3602 3.42311,-0.75643z"/><path d="M151.99503,207.21925c2.34417,1.19897 3.64304,1.89882 3.8966,2.0995c-0.33635,1.56435 -0.53558,2.36967 -0.59768,2.41598h-4.90567v0.08489l1.3739,1.69041l2.15787,-1.09607c0.21217,0.36536 0.51749,1.00345 0.91594,1.91426c-0.1863,0.06174 -1.54467,0.25985 -4.07512,0.59435c-2.09578,-1.37394 -3.15143,-2.08921 -3.16696,-2.14582c0.33635,-2.6707 0.53558,-4.00605 0.59768,-4.00605c2.18893,-0.92625 3.45675,-1.44341 3.80345,-1.55146zM151.4905,209.08719c-0.0414,0.10292 -0.31567,0.51201 -0.82279,1.2273c0,0.21612 0.30532,0.32418 0.91594,0.32418c0,0.03087 0.44243,0.10549 1.32732,0.22385c0.24322,-0.33448 0.36482,-0.53002 0.36482,-0.58662c-0.07763,-0.45799 -0.2458,-0.68697 -0.50454,-0.68697z"/><path d="M163.94874,207.21153c0.06727,0.08748 0.41656,1.57978 1.0479,4.47689h0.05433c0,-0.06689 0.38293,-0.65608 1.1488,-1.76759c0.32083,0.21612 0.93146,0.68439 1.83187,1.40481h0.10865v-0.05402c0.13972,-2.00688 0.24323,-3.11839 0.31049,-3.33452c2.132,0.10806 3.198,0.19555 3.198,0.26244c-0.97803,3.91084 -1.50068,5.94347 -1.56794,6.09785c-0.32602,0.03602 -1.00908,0.13893 -2.0492,0.30876c-0.85384,-1.33279 -1.34285,-2.04291 -1.46705,-2.13039c-0.55887,1.482 -0.90818,2.29763 -1.0479,2.44685h-2.09578c-0.12937,-0.04115 -0.74,-1.37908 -1.83187,-4.01375c-0.69859,-1.47172 -1.04789,-2.26933 -1.04789,-2.39284c0,-0.1132 1.13586,-0.54803 3.40758,-1.30447z"/><path d="M175.97231,204.88046c0.03105,0.04631 0.17593,1.45627 0.43468,4.22989c1.99746,-0.60721 3.06087,-0.91083 3.19024,-0.91083l1.97935,1.34308c-0.32083,2.93314 -0.53041,4.64671 -0.62873,5.14072l-2.74781,0.09261c0,-0.03087 -0.01811,-0.04631 -0.05433,-0.04631l0.05433,-0.19297c0,-0.41681 0.0621,-1.6827 0.1863,-3.79764c-0.75551,-0.03087 -1.31697,-0.04631 -1.68438,-0.04631h-0.19405c0.22251,2.35167 0.33377,3.63299 0.33377,3.84396l-2.60809,0.38593c-0.09832,-0.32933 -0.67789,-3.40398 -1.73872,-9.22395c0,-0.16466 0.40363,-0.2933 1.21089,-0.38593c1.01942,-0.28818 1.77495,-0.43226 2.26655,-0.43226z"/><path d="M183.48607,207.21153c3.07381,0.42197 4.61071,0.68183 4.61071,0.7796c1.21089,1.03432 1.81634,1.5875 1.81634,1.65954c-0.49161,1.52832 -0.77104,2.45715 -0.83832,2.78648c0.49161,1.08577 0.77104,1.73415 0.83832,1.94513c0,0.06174 -0.80208,0.22641 -2.40626,0.49401c-0.0207,-0.08748 -0.16818,-0.28302 -0.44244,-0.58662c-2.2148,0.42196 -3.40758,0.63293 -3.57835,0.63293l-1.17985,-3.17241l2.60032,-1.36622c0.41915,0.06689 1.07377,0.10032 1.96383,0.10032c0,-0.1132 0.01552,-0.4554 0.04657,-1.02661c-0.15008,0 -1.49034,0.09777 -4.0208,0.29332l-0.04657,-0.10032c0.35188,-1.62609 0.56405,-2.43913 0.6365,-2.43913zM185.10059,211.75017c0,0.05659 0.16559,0.65866 0.49679,1.8062h0.04657c0.65202,-0.42197 0.97803,-0.69984 0.97803,-0.83364l0.10089,-0.8259c-0.12419,0 -0.66495,-0.04889 -1.6223,-0.14667z"/><path d="M192.97917,204.88046l3.41536,0.60206l-0.32601,2.57808c0.67789,-0.03602 1.17466,-0.05402 1.49033,-0.05402h0.49679l0.10865,-0.05402l0.05433,0.10805c-0.10867,1.56435 -0.20181,2.44428 -0.27944,2.63982l-0.10865,-0.06174c-0.07761,0 -0.7762,-0.03602 -2.09578,-0.10805c-0.07243,1.20927 -0.12677,2.65525 -0.16302,4.33796l-0.10865,0.05402c-1.66628,-0.10806 -2.65983,-0.20068 -2.98067,-0.27788l0.05433,-0.21612c0,-0.44769 0.07245,-1.83706 0.21733,-4.16814c-1.39719,-0.07717 -2.09578,-0.1698 -2.09578,-0.27789c0.07243,-1.71872 0.16558,-2.57808 0.27946,-2.57808l2.04144,0.38594v-0.66382c0,-0.5403 -0.0207,-1.27103 -0.06208,-2.19214c0.04139,0 0.06208,-0.018 0.06208,-0.05402z"/><path d="M203.44254,207.21925c2.34417,1.19897 3.64304,1.89882 3.8966,2.0995c-0.33635,1.56435 -0.53558,2.36967 -0.59768,2.41598h-4.90567v0.08489l1.3739,1.69041l2.15787,-1.09607c0.21217,0.36536 0.51749,1.00345 0.91594,1.91426c-0.18629,0.06174 -1.54467,0.25985 -4.07511,0.59435c-2.09578,-1.37394 -3.15143,-2.08921 -3.16696,-2.14582c0.33635,-2.6707 0.53559,-4.00605 0.59768,-4.00605c2.18892,-0.92625 3.45674,-1.44341 3.80344,-1.55146zM202.93802,209.08719c-0.04139,0.10292 -0.31566,0.51201 -0.8228,1.2273c0,0.21612 0.30532,0.32418 0.91594,0.32418c0,0.03087 0.44243,0.10549 1.32732,0.22385c0.24322,-0.33448 0.36483,-0.53002 0.36483,-0.58662c-0.07761,-0.45799 -0.24579,-0.68697 -0.50455,-0.68697z"/><path d="M211.06498,207.21153c1.26782,2.89197 1.94313,4.392 2.02592,4.50006c0.62614,-2.36195 0.99097,-3.62012 1.09446,-3.7745c1.97675,0.18011 2.96513,0.33449 2.96513,0.46313v0.05402c-1.38683,3.78736 -2.132,5.77108 -2.23549,5.9512c-1.53173,0.27788 -2.55634,0.45025 -3.07382,0.51714l-3.79569,-5.5884v-0.10805c0.03622,-0.06689 1.04271,-0.73842 3.01946,-2.0146z"/><path d="M222.38218,207.21925c2.34417,1.19897 3.64304,1.89882 3.8966,2.0995c-0.33635,1.56435 -0.53559,2.36967 -0.59768,2.41598h-4.90567v0.08489l1.3739,1.69041l2.15787,-1.09607c0.21217,0.36536 0.51749,1.00345 0.91594,1.91426c-0.18629,0.06174 -1.54467,0.25985 -4.07511,0.59435c-2.09578,-1.37394 -3.15143,-2.08921 -3.16696,-2.14582c0.33635,-2.6707 0.53558,-4.00605 0.59768,-4.00605c2.18892,-0.92625 3.45674,-1.44341 3.80344,-1.55146zM221.87766,209.08719c-0.04139,0.10292 -0.31566,0.51201 -0.8228,1.2273c0,0.21612 0.30532,0.32418 0.91594,0.32418c0,0.03087 0.44243,0.10549 1.32732,0.22385c0.24322,-0.33448 0.36483,-0.53002 0.36483,-0.58662c-0.07761,-0.45799 -0.24579,-0.68697 -0.50455,-0.68697z"/><path d="M232.55837,207.21153c1.02461,0.57119 1.65334,0.9417 1.8862,1.11151c-0.83831,1.73416 -1.28852,2.61667 -1.35061,2.64754h-0.05433l-1.10999,-0.96484l-1.31179,1.59007l0.14748,2.89455c-0.06727,0.06174 -0.92368,0.20582 -2.56927,0.43225c-0.06208,-0.44255 -0.46571,-2.61152 -1.21089,-6.50693c0,-0.06174 1.08152,-0.22127 3.24458,-0.47858c0.03622,0.04115 0.13453,0.52229 0.29496,1.44342c1.29368,-1.44599 1.97159,-2.16898 2.03368,-2.16898z"/><path d="M239.34248,205.38218c1.44893,0.06174 2.17341,0.12349 2.17341,0.18524v0.03087c0,0.28817 0.13453,3.38598 0.40363,9.29342l-0.06208,0.03087l-2.82543,-0.18524c-0.0207,-0.04115 -0.03105,-0.07203 -0.03105,-0.09261l0.24839,-8.98466c0.01552,-0.18525 0.04657,-0.27788 0.09313,-0.27788z"/><path d="M249.92227,207.21153c0.06727,0.08748 0.41656,1.57978 1.0479,4.47689h0.05433c0,-0.06689 0.38293,-0.65608 1.1488,-1.76759c0.32084,0.21612 0.93147,0.68439 1.83187,1.40481h0.10865v-0.05402c0.13972,-2.00688 0.24322,-3.11839 0.31048,-3.33452c2.13201,0.10806 3.19801,0.19555 3.19801,0.26244c-0.97803,3.91084 -1.50069,5.94347 -1.56796,6.09785c-0.32601,0.03602 -1.00907,0.13893 -2.0492,0.30876c-0.85383,-1.33279 -1.34284,-2.04291 -1.46705,-2.13039c-0.55887,1.482 -0.90818,2.29763 -1.0479,2.44685h-2.09578c-0.12936,-0.04115 -0.73999,-1.37908 -1.83186,-4.01375c-0.6986,-1.47172 -1.0479,-2.26933 -1.0479,-2.39284c0,-0.1132 1.13586,-0.54803 3.40758,-1.30447z"/><path d="M259.64825,207.21153c3.07381,0.42197 4.61072,0.68183 4.61072,0.7796c1.21089,1.03432 1.81633,1.5875 1.81633,1.65954c-0.49161,1.52832 -0.77103,2.45715 -0.8383,2.78648c0.49161,1.08577 0.77103,1.73415 0.8383,1.94513c0,0.06174 -0.80208,0.22641 -2.40626,0.49401c-0.0207,-0.08748 -0.16818,-0.28302 -0.44244,-0.58662c-2.2148,0.42196 -3.40758,0.63293 -3.57835,0.63293l-1.17985,-3.17241l2.60033,-1.36622c0.41915,0.06689 1.07376,0.10032 1.96381,0.10032c0,-0.1132 0.01552,-0.4554 0.04657,-1.02661c-0.15006,0 -1.49033,0.09777 -4.0208,0.29332l-0.04657,-0.10032c0.35188,-1.62609 0.56404,-2.43913 0.63649,-2.43913zM261.26278,211.75017c0,0.05659 0.16559,0.65866 0.49677,1.8062h0.04657c0.65202,-0.42197 0.97803,-0.69984 0.97803,-0.83364l0.10089,-0.8259c-0.12419,0 -0.66495,-0.04889 -1.62228,-0.14667z"/><path d="M273.71328,207.21153l2.58479,1.7676c-0.18112,2.93314 -0.30791,4.64671 -0.38035,5.14072c-0.30014,0.03602 -1.21349,0.09005 -2.74004,0.16211l-0.05433,-0.10805l-0.27167,-4.12183l-0.10865,-0.05402c-0.98838,0.21098 -1.66887,0.37049 -2.04144,0.47857c0.1035,1.75474 0.15523,3.0232 0.15523,3.80536c-1.54208,0.42709 -2.38557,0.64066 -2.53046,0.64066c-1.00391,-4.39457 -1.50586,-6.71533 -1.50586,-6.96233c2.18375,-0.28303 3.36878,-0.42454 3.55506,-0.42454v0.05402c0.03622,0.02573 0.09056,0.56089 0.16302,1.60551c2.00263,-1.32249 3.06087,-1.98374 3.17472,-1.98374z"/><path d="M279.3874,204.88046l3.41536,0.60206l-0.32601,2.57808c0.67789,-0.03602 1.17466,-0.05402 1.49033,-0.05402h0.49679l0.10865,-0.05402l0.05433,0.10805c-0.10867,1.56435 -0.20181,2.44428 -0.27944,2.63982l-0.10865,-0.06174c-0.07761,0 -0.7762,-0.03602 -2.09577,-0.10805c-0.07243,1.20927 -0.12677,2.65525 -0.16302,4.33796l-0.10865,0.05402c-1.66628,-0.10806 -2.65983,-0.20068 -2.98067,-0.27788l0.05433,-0.21612c0,-0.44769 0.07245,-1.83706 0.21733,-4.16814c-1.39719,-0.07717 -2.09578,-0.1698 -2.09578,-0.27789c0.07243,-1.71872 0.16557,-2.57808 0.27944,-2.57808l2.04144,0.38594v-0.66382c0,-0.5403 -0.0207,-1.27103 -0.06208,-2.19214c0.04139,0 0.06208,-0.018 0.06208,-0.05402z"/><path d="M288.86499,205.16604l0.03105,0.06174c-0.51749,4.54379 -0.80726,6.93147 -0.86936,7.16304c-1.09706,-0.10292 -1.79047,-0.17495 -2.08026,-0.21612v-0.03087l-0.49677,-6.4529c0.12419,-0.04115 1.26265,-0.21612 3.41534,-0.52488zM285.79118,212.54521c0.03622,0.02058 0.84348,0.08234 2.42179,0.18526l0.03105,0.06174c-0.24322,1.42025 -0.39846,2.13038 -0.46573,2.13038h-1.80082c-0.06208,0 -0.14487,-0.71012 -0.24839,-2.13038c-0.0207,0 -0.03105,-0.06176 -0.03105,-0.18526c0.06208,-0.02058 0.09313,-0.04115 0.09313,-0.06174z"/></g><text transform="translate(34,156.40423) scale(0.3438,0.3438)" font-size="40" xml:space="preserve" data-paper-data="{&quot;origPos&quot;:null}" fill="#ff8d00" fill-rule="nonzero" stroke="#000000" stroke-width="10" stroke-linecap="butt" stroke-linejoin="miter" stroke-miterlimit="10" stroke-dasharray="" stroke-dashoffset="0" font-family="Sans Serif" font-weight="normal" text-anchor="start" style="mix-blend-mode: normal"><tspan x="0" dy="0">3DGoomba</tspan></text><text transform="translate(34,156.40423) scale(0.3438,0.3438)" font-size="40" xml:space="preserve" data-paper-data="{&quot;origPos&quot;:null}" fill="#ff8d00" fill-rule="nonzero" stroke="none" stroke-width="1" stroke-linecap="butt" stroke-linejoin="miter" stroke-miterlimit="10" stroke-dasharray="" stroke-dashoffset="0" font-family="Sans Serif" font-weight="normal" text-anchor="start" style="mix-blend-mode: normal"><tspan x="0" dy="0">3DGoomba</tspan></text></g></g></svg>