<svg version="1.1" xmlns="http://www.w3.org/2000/svg" xmlns:xlink="http://www.w3.org/1999/xlink" width="251.75" height="330" viewBox="0,0,251.75,330"><defs><radialGradient cx="254.125" cy="125" r="111.75" gradientUnits="userSpaceOnUse" id="color-1"><stop offset="0" stop-color="#f3c640"/><stop offset="1" stop-color="#ff5138"/></radialGradient><linearGradient x1="133.125" y1="189.5" x2="153.125" y2="189.5" gradientUnits="userSpaceOnUse" id="color-2"><stop offset="0" stop-color="#ebd316"/><stop offset="1" stop-color="#fff13d"/></linearGradient><radialGradient cx="147.125" cy="34" r="23" gradientUnits="userSpaceOnUse" id="color-3"><stop offset="0" stop-color="#fff13d"/><stop offset="1" stop-color="#ebd316"/></radialGradient><linearGradient x1="114.125" y1="331" x2="173.125" y2="331" gradientUnits="userSpaceOnUse" id="color-4"><stop offset="0" stop-color="#aaadb3"/><stop offset="1" stop-color="#d1dcd6"/></linearGradient></defs><g transform="translate(-114.125,-15)"><g data-paper-data="{&quot;isPaintingLayer&quot;:true}" fill-rule="nonzero" stroke-linecap="butt" stroke-linejoin="miter" stroke-miterlimit="10" stroke-dasharray="" stroke-dashoffset="0" style="mix-blend-mode: normal"><path d="M142.375,192.5v-135h223.5l-34.5,33l34.5,34.5l-34.5,33l34.5,34.5z" data-paper-data="{&quot;origPos&quot;:null}" fill="url(#color-1)" stroke="#000000" stroke-width="0"/><path d="M195.625,125c0,-30.09951 24.40049,-54.5 54.5,-54.5c30.09951,0 54.5,24.40049 54.5,54.5c0,30.09951 -24.40049,54.5 -54.5,54.5c-30.09951,0 -54.5,-24.40049 -54.5,-54.5z" data-paper-data="{&quot;origPos&quot;:null}" fill="#fffaca" stroke="none" stroke-width="0"/><g data-paper-data="{&quot;origPos&quot;:null}" stroke="none" stroke-width="0"><g data-paper-data="{&quot;origPos&quot;:null}"><g data-paper-data="{&quot;origPos&quot;:null}"><path d="M289.35901,117.3696c-0.2049,10.88444 -1.76576,15.5268 -12.47718,17.4707c-8.20171,1.48845 -31.98781,1.41102 -40.32221,1.55611c-18.21682,0.31711 -24.57629,-3.06134 -24.8934,-18.70969c-0.12405,-6.12129 1.15387,-12.08809 5.77113,-16.10886c10.81664,-9.41927 20.48294,-10.52867 34.34372,-10.52867c20.75372,0 37.9622,5.90914 37.57793,26.32041z" data-paper-data="{&quot;origPos&quot;:null}" fill="#ffffff"/><path d="M274.13758,114.00679c0,8.65099 -6.53092,15.66399 -14.58722,15.66399c-8.0563,0 -14.58722,-7.01301 -14.58722,-15.66399c0,-8.65098 6.53092,-15.66399 14.58722,-15.66399c8.0563,0 14.58722,7.01301 14.58722,15.66399z" data-paper-data="{&quot;origPos&quot;:null}" fill="#ff5138"/><path d="M210.87554,123.47316c-0.25385,-3.76394 -0.7573,-4.85926 1.03592,-12.00851c0.10797,-2.8586 2.64205,-6.62137 2.64205,-6.62137c0,0 8.10313,0.88845 11.11849,3.45823c3.53829,3.01543 4.03805,7.46684 4.36011,12.10457c0.33867,4.87684 -0.286,8.05001 -3.35933,12.22523c-1.48845,2.02212 -1.98282,2.27528 -1.98282,2.27528c0,0 -5.93058,0.84199 -8.6183,-0.75561c-3.18214,-2.48696 -4.17227,-4.28972 -5.19614,-10.67782z" data-paper-data="{&quot;origPos&quot;:null,&quot;origRot&quot;:0}" fill="#ff5138"/><path d="M286.93831,106.01192c0,0 2.66225,0.94554 2.76591,11.72741c0.09087,9.45114 -3.00882,12.62333 -3.00882,12.62333c0,0 -5.75118,-0.95948 -5.84206,-12.8446c-0.08244,-10.78206 6.08497,-11.50614 6.08497,-11.50614z" data-paper-data="{&quot;origPos&quot;:null}" fill="#ff5138"/></g><g data-paper-data="{&quot;origPos&quot;:null}"><path d="M272.06186,144.84514c-0.39409,10.07421 -7.92861,14.71459 -18.25493,14.71459c-10.32633,0 -20.05754,-3.53465 -20.46764,-13.60823c-0.22127,-5.43521 -0.77444,-10.95296 -0.77444,-10.95296c0,0 14.9006,-2.16512 20.04736,-1.99302c9.96918,0.33335 19.57045,3.06686 19.57045,3.06686c0,0 0.1005,3.11628 -0.12077,8.77276z" data-paper-data="{&quot;origPos&quot;:null}" fill="#ffdfc0"/><path d="M258.11472,151.56454c0,0 -2.71915,2.77798 -6.35439,2.12689c-3.63525,-0.65109 -5.62364,-4.56903 -5.62364,-4.56903c0,0 2.98911,2.61308 5.88117,3.13106c2.89207,0.51798 6.09684,-0.68893 6.09684,-0.68893z" data-paper-data="{&quot;origPos&quot;:null,&quot;origRot&quot;:0}" fill="#000000"/><g data-paper-data="{&quot;origPos&quot;:null}"><path d="M262.66604,141.69115c0,2.81071 -0.68925,5.03829 -2.65527,5.08925c-2.169,0.05623 -2.65526,-2.27854 -2.65526,-5.08925c0,-2.81071 0.58776,-5.08925 2.65526,-5.08925c2.06749,0 2.65527,2.27854 2.65527,5.08925z" data-paper-data="{&quot;origPos&quot;:null}" fill="#000000"/><path d="M261.8043,139.53093c0,0.9373 -0.41477,1.68014 -1.59788,1.69713c-1.30526,0.01875 -1.59787,-0.75983 -1.59787,-1.69713c0,-0.9373 0.3537,-1.69713 1.59787,-1.69713c1.24416,0 1.59788,0.75983 1.59788,1.69713z" data-paper-data="{&quot;origPos&quot;:null}" fill="#aaaaaa"/></g><g data-paper-data="{&quot;origPos&quot;:null}"><path d="M253.6963,141.85797c0,2.81071 -0.68925,5.03829 -2.65527,5.08925c-2.169,0.05623 -2.65526,-2.27854 -2.65526,-5.08925c0,-2.81071 0.58776,-5.08925 2.65526,-5.08925c2.06749,0 2.65527,2.27854 2.65527,5.08925z" data-paper-data="{&quot;origPos&quot;:null}" fill="#000000"/><path d="M252.68682,139.57114c0,0.9373 -0.41477,1.68014 -1.59788,1.69713c-1.30526,0.01875 -1.59788,-0.75983 -1.59788,-1.69713c0,-0.9373 0.3537,-1.69713 1.59788,-1.69713c1.24416,0 1.59788,0.75983 1.59788,1.69713z" data-paper-data="{&quot;origPos&quot;:null}" fill="#aaaaaa"/></g></g></g><g data-paper-data="{&quot;origPos&quot;:null}"><path d="M211.18398,125.45413c0,0 -0.6956,-3.78895 -0.67222,-6.41492c0.01744,-1.9592 0.77682,-5.33399 0.77682,-5.33399c0,0 31.03771,-5.9884 48.93979,-6.54107c12.50696,-0.38611 28.97955,4.13551 28.97955,4.13551c0,0 0.48345,4.06567 0.52511,6.06543c0.05359,2.5718 -0.28107,5.64862 -0.28107,5.64862c0,0 -18.25041,-4.11341 -28.9944,-3.77841c-19.80108,0.61741 -49.27356,6.21883 -49.27356,6.21883z" data-paper-data="{&quot;origPos&quot;:null}" fill="#f3c640"/><g data-paper-data="{&quot;origPos&quot;:null}"><path d="M277.74024,112.65462c-0.30389,10.93986 -7.0568,16.75447 -12.76296,16.75447c-5.53382,0 -14.74334,-10.10419 -14.74334,-10.10419l-0.14677,-11.24955c0,0 9.18396,-12.81224 14.89012,-12.81224c5.70617,0 13.08495,5.81984 12.76296,17.41151z" data-paper-data="{&quot;origPos&quot;:null}" fill="#a7a7a7"/><path d="M275.91696,112.3261c0,7.98318 -4.08156,14.45483 -9.1164,14.45483c-5.03484,0 -9.1164,-6.47165 -9.1164,-14.45483c0,-7.98318 4.08156,-14.45483 9.1164,-14.45483c5.03484,0 9.1164,6.47166 9.1164,14.45483z" data-paper-data="{&quot;origPos&quot;:null}" fill="#f2ecc1"/><path d="M274.71846,112.24268c0,5.45864 -2.73154,9.88372 -6.10106,9.88372c-3.36952,0 -6.10106,-4.42509 -6.10106,-9.88372c0,-5.45863 2.73154,-9.88372 6.10106,-9.88372c3.36952,0 6.10106,4.4251 6.10106,9.88372z" data-paper-data="{&quot;origPos&quot;:null}" fill="#fffaca"/></g></g></g><g data-paper-data="{&quot;origPos&quot;:null}" stroke="none"><path d="M133.125,324v-269h20v269z" data-paper-data="{&quot;origPos&quot;:null}" fill="url(#color-2)" stroke-width="NaN"/><path d="M144.125,61c-12.70255,0 -23,-10.29745 -23,-23c0,-12.70255 10.29745,-23 23,-23c12.70255,0 23,10.29745 23,23c0,12.70255 -10.29745,23 -23,23z" data-paper-data="{&quot;origPos&quot;:null,&quot;index&quot;:null}" fill="url(#color-3)" stroke-width="0"/><path d="M114.125,345v-28h59v28z" data-paper-data="{&quot;origPos&quot;:null}" fill="url(#color-4)" stroke-width="0"/></g></g></g></svg>