<svg version="1.1" xmlns="http://www.w3.org/2000/svg" xmlns:xlink="http://www.w3.org/1999/xlink" width="441.55828" height="91.66968" viewBox="0,0,441.55828,91.66968"><defs><linearGradient x1="25.5327" y1="70.2076" x2="25.5327" y2="149.819" gradientUnits="userSpaceOnUse" id="color-1"><stop offset="0" stop-color="#ffffff"/><stop offset="1" stop-color="#ffffff"/></linearGradient><radialGradient cx="60.4871" cy="80.0289" r="31.197" gradientUnits="userSpaceOnUse" id="color-2"><stop offset="0" stop-color="#2ebdff"/><stop offset="1" stop-color="#18628c"/></radialGradient></defs><g transform="translate(-19.50356,-64.17846)"><g data-paper-data="{&quot;isPaintingLayer&quot;:true}" fill-rule="nonzero" stroke-linecap="butt" stroke-linejoin="miter" stroke-miterlimit="10" stroke-dasharray="" stroke-dashoffset="0" style="mix-blend-mode: normal"><path d="M25.5327,70.2076h429.5v79.6114h-429.5z" fill="#ffffff" stroke="url(#color-1)" stroke-width="12.05828"/><text transform="translate(29.5523,106.11666) scale(0.77615,0.77615)" font-size="22" xml:space="preserve" data-paper-data="{&quot;origPos&quot;:null}" fill="#2392d1" fill-rule="nonzero" stroke="none" stroke-width="1" stroke-linecap="butt" stroke-linejoin="miter" stroke-miterlimit="10" stroke-dasharray="" stroke-dashoffset="0" font-family="Sans Serif" font-weight="400" text-anchor="start" style="mix-blend-mode: normal"><tspan x="0" dy="0">Wario's not the fastest, but he is pretty powerful!</tspan><tspan x="0" dy="24.86px">His weight might even help him get to secret</tspan><tspan x="0" dy="24.86px">areas... and nab that gold!</tspan></text><g><path d="M73.7982,72.2998c-0.484,1.8667 -0.8102,2.7953 -0.9584,2.7953c-2.0448,-0.1381 -3.0618,-0.2767 -3.0618,-0.4051v-2.8646c0.0197,-0.0891 0.0687,-0.1381 0.138,-0.1381zM35.2042,72.8035l0.5139,7.507h0.0591l2.6968,-2.8247c1.5906,2.1434 2.4003,3.2101 2.4397,3.2101c0.6818,-3.3487 1.1163,-5.3636 1.2842,-6.0353c2.9142,0.563 4.3662,0.8988 4.3662,1.0272c-1.7484,5.5614 -2.7559,8.7123 -3.0128,9.4436c-0.6221,0.0394 -1.9856,0.1679 -4.1093,0.3849c-0.9382,-2.2522 -1.4126,-3.4078 -1.4126,-3.467c-0.0789,0.0096 -0.573,0.9877 -1.4819,2.9536h-0.0592c-2.8251,-0.1876 -4.2377,-0.3656 -4.2377,-0.5138c-1.5901,-7.0033 -2.3806,-10.5992 -2.3806,-10.7869v-0.1284c0,-0.1285 1.7585,-0.4345 5.2649,-0.8988zM55.0199,76.6458c1.541,1.324 2.3113,2.0351 2.3113,2.1241c-0.6221,1.9558 -0.9776,3.1413 -1.0666,3.5657c0.6221,1.3928 0.9776,2.2228 1.0666,2.4893c0,0.0789 -1.0176,0.2868 -3.0624,0.6322c-0.0293,-0.1087 -0.2169,-0.3652 -0.5629,-0.7505c-2.815,0.5431 -4.3364,0.8097 -4.5538,0.8097l-1.5011,-4.0598l3.3087,-1.7484c0.5335,0.089 1.3635,0.1285 2.4994,0.1285c0,-0.1482 0.0197,-0.5826 0.0592,-1.314c-0.1876,0 -1.8966,0.1285 -5.1168,0.3753l-0.0592,-0.128c0.4446,-2.0847 0.7208,-3.1215 0.8098,-3.1215c3.912,0.5432 5.8678,0.8689 5.8678,0.9974zM67.7726,77.0706c-1.0671,2.2228 -1.6402,3.3486 -1.7191,3.3881h-0.0687l-1.4126,-1.2346l-1.6695,2.0347l0.1876,3.7047c-0.089,0.0789 -1.1754,0.2665 -3.2697,0.5528c-0.0789,-0.5629 -0.5928,-3.3385 -1.5411,-8.3269c0,-0.0794 1.3732,-0.2867 4.129,-0.6124c0.0496,0.049 0.1679,0.6716 0.3753,1.847c1.6498,-1.847 2.5091,-2.7756 2.5885,-2.7756c1.3038,0.7308 2.104,1.2052 2.4003,1.4222zM78.1048,75.658c2.4995,0.6717 3.8326,1.0768 3.9808,1.225c1.3732,1.9461 2.1536,3.0719 2.3215,3.3683c-0.8892,2.8156 -1.4025,4.2282 -1.531,4.2282c-2.9632,0.6913 -4.5144,1.0368 -4.6525,1.0368c-2.4499,-1.4323 -3.7537,-2.2223 -3.912,-2.3902c-0.0885,-2.6573 -0.1285,-4.1291 -0.1285,-4.4057c-0.0394,-0.0789 -0.0591,-0.1386 -0.0591,-0.178c2.5288,-1.926 3.8326,-2.8844 3.9216,-2.8844zM68.8888,76.3893c3.0027,0.5432 4.5043,0.8689 4.5043,0.9579c-0.8593,4.8897 -1.3827,7.6062 -1.5709,8.1691h-3.1311c-0.089,0 -0.1381,-0.0491 -0.1381,-0.1381l0.2767,-8.9889zM77.9172,79.2737c-0.0395,0.2665 -0.0987,1.2249 -0.1776,2.8742l2.2026,0.4941c0.5235,-1.6497 0.7905,-2.5288 0.7905,-2.6375c-1.7484,-0.5235 -2.6871,-0.7905 -2.8155,-0.7905zM51.8392,83.7679h0.0591c0.83,-0.5432 1.2447,-0.8988 1.2447,-1.0667l0.1285,-1.057c-0.1583,0 -0.8497,-0.0592 -2.0645,-0.1877c0,0.0693 0.2073,0.8396 0.6322,2.3114z" fill="#000000" stroke="#dbf1ff" stroke-width="4.55184"/><path d="M73.7982,72.2998c-0.484,1.8667 -0.8102,2.7953 -0.9584,2.7953c-2.0448,-0.1381 -3.0618,-0.2767 -3.0618,-0.4051v-2.8646c0.0197,-0.0891 0.0687,-0.1381 0.138,-0.1381zM35.2042,72.8035l0.5139,7.507h0.0591l2.6968,-2.8247c1.5906,2.1434 2.4003,3.2101 2.4397,3.2101c0.6818,-3.3487 1.1163,-5.3636 1.2842,-6.0353c2.9142,0.563 4.3662,0.8988 4.3662,1.0272c-1.7484,5.5614 -2.7559,8.7123 -3.0128,9.4436c-0.6221,0.0394 -1.9856,0.1679 -4.1093,0.3849c-0.9382,-2.2522 -1.4126,-3.4078 -1.4126,-3.467c-0.0789,0.0096 -0.573,0.9877 -1.4819,2.9536h-0.0592c-2.8251,-0.1876 -4.2377,-0.3656 -4.2377,-0.5138c-1.5901,-7.0033 -2.3806,-10.5992 -2.3806,-10.7869v-0.1284c0,-0.1285 1.7585,-0.4345 5.2649,-0.8988zM55.0199,76.6458c1.541,1.324 2.3113,2.0351 2.3113,2.1241c-0.6221,1.9558 -0.9776,3.1413 -1.0666,3.5657c0.6221,1.3928 0.9776,2.2228 1.0666,2.4893c0,0.0789 -1.0176,0.2868 -3.0624,0.6322c-0.0293,-0.1087 -0.2169,-0.3652 -0.5629,-0.7505c-2.815,0.5431 -4.3364,0.8097 -4.5538,0.8097l-1.5011,-4.0598l3.3087,-1.7484c0.5335,0.089 1.3635,0.1285 2.4994,0.1285c0,-0.1482 0.0197,-0.5826 0.0592,-1.314c-0.1876,0 -1.8966,0.1285 -5.1168,0.3753l-0.0592,-0.128c0.4446,-2.0847 0.7208,-3.1215 0.8098,-3.1215c3.912,0.5432 5.8678,0.8689 5.8678,0.9974zM67.7726,77.0706c-1.0671,2.2228 -1.6402,3.3486 -1.7191,3.3881h-0.0687l-1.4126,-1.2346l-1.6695,2.0347l0.1876,3.7047c-0.089,0.0789 -1.1754,0.2665 -3.2697,0.5528c-0.0789,-0.5629 -0.5928,-3.3385 -1.5411,-8.3269c0,-0.0794 1.3732,-0.2867 4.129,-0.6124c0.0496,0.049 0.1679,0.6716 0.3753,1.847c1.6498,-1.847 2.5091,-2.7756 2.5885,-2.7756c1.3038,0.7308 2.104,1.2052 2.4003,1.4222zM78.1048,75.658c2.4995,0.6717 3.8326,1.0768 3.9808,1.225c1.3732,1.9461 2.1536,3.0719 2.3215,3.3683c-0.8892,2.8156 -1.4025,4.2282 -1.531,4.2282c-2.9632,0.6913 -4.5144,1.0368 -4.6525,1.0368c-2.4499,-1.4323 -3.7537,-2.2223 -3.912,-2.3902c-0.0885,-2.6573 -0.1285,-4.1291 -0.1285,-4.4057c-0.0394,-0.0789 -0.0591,-0.1386 -0.0591,-0.178c2.5288,-1.926 3.8326,-2.8844 3.9216,-2.8844zM68.8888,76.3893c3.0027,0.5432 4.5043,0.8689 4.5043,0.9579c-0.8593,4.8897 -1.3827,7.6062 -1.5709,8.1691h-3.1311c-0.089,0 -0.1381,-0.0491 -0.1381,-0.1381l0.2767,-8.9889zM77.9172,79.2737c-0.0395,0.2665 -0.0987,1.2249 -0.1776,2.8742l2.2026,0.4941c0.5235,-1.6497 0.7905,-2.5288 0.7905,-2.6375c-1.7484,-0.5235 -2.6871,-0.7905 -2.8155,-0.7905zM51.8392,83.7679h0.0591c0.83,-0.5432 1.2447,-0.8988 1.2447,-1.0667l0.1285,-1.057c-0.1583,0 -0.8497,-0.0592 -2.0645,-0.1877c0,0.0693 0.2073,0.8396 0.6322,2.3114z" fill="url(#color-2)" stroke="none" stroke-width="0.50576"/></g></g></g></svg>