<svg version="1.1" xmlns="http://www.w3.org/2000/svg" xmlns:xlink="http://www.w3.org/1999/xlink" width="610.10762" height="221.64266" viewBox="0,0,610.10762,221.64266"><defs><linearGradient x1="76.4835" y1="215.3966" x2="76.4835" y2="361.4066" gradientUnits="userSpaceOnUse" id="color-1"><stop offset="0" stop-color="#ffffff"/><stop offset="1" stop-color="#e7e7e7"/></linearGradient><linearGradient x1="77.7564" y1="194.98022" x2="77.24362" y2="235.96732" gradientUnits="userSpaceOnUse" id="color-2"><stop offset="0" stop-color="#74f08c"/><stop offset="1" stop-color="#51aa63"/></linearGradient><linearGradient x1="286.4835" y1="269.39661" x2="286.4835" y2="415.4066" gradientUnits="userSpaceOnUse" id="color-3"><stop offset="0" stop-color="#ffffff"/><stop offset="1" stop-color="#e7e7e7"/></linearGradient><linearGradient x1="287.7564" y1="248.98022" x2="287.24361" y2="289.96732" gradientUnits="userSpaceOnUse" id="color-4"><stop offset="0" stop-color="#74f08c"/><stop offset="1" stop-color="#51aa63"/></linearGradient><linearGradient x1="497.48351" y1="216.39661" x2="497.48351" y2="362.4066" gradientUnits="userSpaceOnUse" id="color-5"><stop offset="0" stop-color="#ffffff"/><stop offset="1" stop-color="#e7e7e7"/></linearGradient><linearGradient x1="498.7564" y1="195.98022" x2="498.24362" y2="236.96732" gradientUnits="userSpaceOnUse" id="color-6"><stop offset="0" stop-color="#74f08c"/><stop offset="1" stop-color="#51aa63"/></linearGradient></defs><g transform="translate(17.07352,-194.86631)"><g data-paper-data="{&quot;isPaintingLayer&quot;:true}" fill="none" fill-rule="nonzero" stroke="none" stroke-width="none" stroke-linecap="none" stroke-linejoin="miter" stroke-miterlimit="10" stroke-dasharray="" stroke-dashoffset="0" font-family="none" font-weight="none" font-size="none" text-anchor="none" style="mix-blend-mode: normal"><g data-paper-data="{&quot;origPos&quot;:null}"><path d="M-4.29179,215.3966h161.5506v146.01h-161.5506z" data-paper-data="{&quot;origPos&quot;:null}" id="ID0.7496546297334135" fill="url(#color-1)" stroke="#cccccc" stroke-width="2" stroke-linecap="butt"/><path d="M122.00001,360.98994l6,-18.44571l-2,-11.27238l-5,-7.17333l-1,-9.22286l9,-27.66857l1,-12.29714l-2,-10.24762l-4,-6.14857l-2,-10.24762l9,-31.76761" data-paper-data="{&quot;origPos&quot;:null}" fill="none" stroke="#cccccc" stroke-width="3.0381" stroke-linecap="round"/><path d="M86.00001,360.98994l6,-18.44571l-2,-11.27238l-5,-7.17333l-1,-9.22286l9,-27.66857l1,-12.29714l-2,-10.24762l-4,-6.14857l-2,-10.24762l9,-31.76761" data-paper-data="{&quot;origPos&quot;:null}" fill="none" stroke="#cccccc" stroke-width="3.0381" stroke-linecap="round"/><path d="M50.00001,359.96518l6,-18.44571l-2,-11.27238l-5,-7.17333l-1,-9.22286l9,-27.66857l1,-12.29714l-2,-10.24762l-4,-6.14857l-2,-10.24762l9,-31.76761" data-paper-data="{&quot;origPos&quot;:null}" fill="none" stroke="#cccccc" stroke-width="3.0381" stroke-linecap="round"/><path d="M16.00001,360.98994l6,-18.44571l-2,-11.27238l-5,-7.17333l-1,-9.22286l9,-27.66857l1,-12.29714l-2,-10.24762l-4,-6.14857l-2,-10.24762l9,-31.76761" data-paper-data="{&quot;origPos&quot;:null}" fill="none" stroke="#cccccc" stroke-width="3.0381" stroke-linecap="round"/><path d="M-10.76196,195.86696l167.01191,0.14451l5.97386,2.12818l8.80697,15.48839l-0.07692,6.14807l-4.07659,6.09551l-6.03797,2.99521l-7.99935,-0.10509l-5.96104,-3.15285l-11.12729,10.10227l-7.01224,0.93272l-7.99935,-0.10509l-4.93549,-5.18908l-11.05038,3.95421l-7.9737,-2.15445l-6.90968,-7.2647l-10.05046,3.96734l-8.01216,0.91958l-9.99918,-0.13137l-4.89703,-8.2631l-4.11505,9.16955l-9.05053,3.98048l-6.99943,-0.09196l-7.90961,-7.27784l-5.05086,4.03302l-9.99918,-0.13137l-6.93532,-5.21535l-5.0765,6.08238l-8.98644,-1.14291l-8.85825,-11.38968l0.08974,-7.17274z" data-paper-data="{&quot;origPos&quot;:null,&quot;origRot&quot;:0}" fill="url(#color-2)" stroke="#006622" stroke-width="2" stroke-linecap="round"/></g><g data-paper-data="{&quot;origPos&quot;:null}"><path d="M205.70821,269.39661h161.5506v146.01h-161.5506z" data-paper-data="{&quot;origPos&quot;:null}" id="ID0.7496546297334135" fill="url(#color-3)" stroke="#cccccc" stroke-width="2" stroke-linecap="butt"/><path d="M332.00001,414.98993l6,-18.44571l-2,-11.27238l-5,-7.17333l-1,-9.22285l9,-27.66857l1,-12.29715l-2,-10.24761l-4,-6.14857l-2,-10.24762l9,-31.76761" data-paper-data="{&quot;origPos&quot;:null}" fill="none" stroke="#cccccc" stroke-width="3.0381" stroke-linecap="round"/><path d="M296.00001,414.98993l6,-18.44571l-2,-11.27238l-5,-7.17333l-1,-9.22285l9,-27.66857l1,-12.29715l-2,-10.24761l-4,-6.14857l-2,-10.24762l9,-31.76761" data-paper-data="{&quot;origPos&quot;:null}" fill="none" stroke="#cccccc" stroke-width="3.0381" stroke-linecap="round"/><path d="M260.00001,413.96518l6,-18.44571l-2,-11.27238l-5,-7.17333l-1,-9.22286l9,-27.66857l1,-12.29714l-2,-10.24761l-4,-6.14857l-2,-10.24762l9,-31.76762" data-paper-data="{&quot;origPos&quot;:null}" fill="none" stroke="#cccccc" stroke-width="3.0381" stroke-linecap="round"/><path d="M226.00001,414.98993l6,-18.44571l-2,-11.27238l-5,-7.17333l-1,-9.22285l9,-27.66857l1,-12.29715l-2,-10.24761l-4,-6.14857l-2,-10.24762l9,-31.76761" data-paper-data="{&quot;origPos&quot;:null}" fill="none" stroke="#cccccc" stroke-width="3.0381" stroke-linecap="round"/><path d="M199.23804,249.86696l167.01192,0.14451l5.97386,2.12818l8.80697,15.48839l-0.07692,6.14807l-4.07659,6.09551l-6.03797,2.99522l-7.99934,-0.1051l-5.96105,-3.15285l-11.12729,10.10226l-7.01225,0.93273l-7.99934,-0.1051l-4.93549,-5.18907l-11.05038,3.9542l-7.9737,-2.15445l-6.90969,-7.2647l-10.05046,3.96734l-8.01216,0.91958l-9.99918,-0.13137l-4.89703,-8.2631l-4.11505,9.16955l-9.05054,3.98048l-6.99942,-0.09196l-7.90961,-7.27783l-5.05087,4.03302l-9.99918,-0.13137l-6.93533,-5.21534l-5.0765,6.08238l-8.98644,-1.14291l-8.85825,-11.38968l0.08974,-7.17274z" data-paper-data="{&quot;origPos&quot;:null,&quot;origRot&quot;:0}" fill="url(#color-4)" stroke="#006622" stroke-width="2" stroke-linecap="round"/></g><g data-paper-data="{&quot;origPos&quot;:null}"><path d="M416.70821,216.39661h161.5506v146.01h-161.5506z" data-paper-data="{&quot;origPos&quot;:null}" id="ID0.7496546297334135" fill="url(#color-5)" stroke="#cccccc" stroke-width="2" stroke-linecap="butt"/><path d="M543.00001,361.98993l6,-18.44571l-2,-11.27238l-5,-7.17333l-1,-9.22285l9,-27.66857l1,-12.29715l-2,-10.24761l-4,-6.14857l-2,-10.24762l9,-31.76761" data-paper-data="{&quot;origPos&quot;:null}" fill="none" stroke="#cccccc" stroke-width="3.0381" stroke-linecap="round"/><path d="M507.00001,361.98993l6,-18.44571l-2,-11.27238l-5,-7.17333l-1,-9.22285l9,-27.66857l1,-12.29715l-2,-10.24761l-4,-6.14857l-2,-10.24762l9,-31.76761" data-paper-data="{&quot;origPos&quot;:null}" fill="none" stroke="#cccccc" stroke-width="3.0381" stroke-linecap="round"/><path d="M471.00001,360.96518l6,-18.44571l-2,-11.27238l-5,-7.17333l-1,-9.22286l9,-27.66857l1,-12.29714l-2,-10.24761l-4,-6.14857l-2,-10.24762l9,-31.76762" data-paper-data="{&quot;origPos&quot;:null}" fill="none" stroke="#cccccc" stroke-width="3.0381" stroke-linecap="round"/><path d="M437.00001,361.98993l6,-18.44571l-2,-11.27238l-5,-7.17333l-1,-9.22285l9,-27.66857l1,-12.29715l-2,-10.24761l-4,-6.14857l-2,-10.24762l9,-31.76761" data-paper-data="{&quot;origPos&quot;:null}" fill="none" stroke="#cccccc" stroke-width="3.0381" stroke-linecap="round"/><path d="M410.23804,196.86696l167.01192,0.14451l5.97386,2.12818l8.80697,15.48839l-0.07691,6.14807l-4.07659,6.09551l-6.03796,2.99522l-7.99934,-0.1051l-5.96105,-3.15285l-11.12729,10.10226l-7.01225,0.93273l-7.99934,-0.1051l-4.93549,-5.18907l-11.05038,3.9542l-7.9737,-2.15445l-6.90969,-7.2647l-10.05046,3.96734l-8.01216,0.91958l-9.99918,-0.13137l-4.89703,-8.2631l-4.11505,9.16955l-9.05054,3.98048l-6.99942,-0.09196l-7.90961,-7.27783l-5.05086,4.03302l-9.99918,-0.13137l-6.93533,-5.21534l-5.0765,6.08238l-8.98644,-1.14291l-8.85825,-11.38968l0.08974,-7.17274z" data-paper-data="{&quot;origPos&quot;:null,&quot;origRot&quot;:0}" fill="url(#color-6)" stroke="#006622" stroke-width="2" stroke-linecap="round"/></g></g></g></svg>