<svg version="1.1" xmlns="http://www.w3.org/2000/svg" xmlns:xlink="http://www.w3.org/1999/xlink" width="21.78078" height="59.54166" viewBox="0,0,21.78078,59.54166"><g transform="translate(-229.10906,-149.86322)"><g data-paper-data="{&quot;isPaintingLayer&quot;:true}" fill="none" fill-rule="nonzero" stroke="#665415" stroke-width="0.5" stroke-linecap="round" stroke-linejoin="miter" stroke-miterlimit="10" stroke-dasharray="" stroke-dashoffset="0" font-family="none" font-weight="none" font-size="none" text-anchor="none" style="mix-blend-mode: normal"><path d="M234.89086,192.3644l-3.92729,-4.78552l-1.4635,-6.3992l-0.13896,-4.32365l3.16664,-5.83472l2.71486,-6.84683l4.60328,-13.31593l1.02715,5.8675l4.12802,11.03076l3.58356,7.13621l1.93075,7.89174l0.12353,3.84323l-1.10836,4.6501l-2.83838,3.0036l-4.17835,0.44762l0.46323,14.41215l-6.71933,-0.34068l2.04688,-14.58463z" data-paper-data="{&quot;origPos&quot;:null,&quot;origRot&quot;:0,&quot;index&quot;:null}" fill="#ded633"/><path d="M238.28215,196.12749l1.86947,-35.75694l2.47106,35.13768" data-paper-data="{&quot;origPos&quot;:null,&quot;origRot&quot;:0,&quot;index&quot;:null}" fill="none"/><path d="M242.77415,189.78443l4.24173,-3.69385" data-paper-data="{&quot;origPos&quot;:null,&quot;origRot&quot;:0,&quot;index&quot;:null}" fill="none"/><path d="M245.84508,180.9712l-3.24386,3.43269" data-paper-data="{&quot;origPos&quot;:null,&quot;origRot&quot;:0,&quot;index&quot;:null}" fill="none"/><path d="M244.71134,177.0048l-2.91948,3.08943" data-paper-data="{&quot;origPos&quot;:null,&quot;origRot&quot;:0,&quot;index&quot;:null}" fill="none"/><path d="M243.21614,172.22873l-1.60958,2.10066" data-paper-data="{&quot;origPos&quot;:null,&quot;origRot&quot;:0,&quot;index&quot;:null}" fill="none"/><path d="M242.36972,166.76608l-1.62193,1.71635l-3.46622,-3.48514" data-paper-data="{&quot;origPos&quot;:null,&quot;origRot&quot;:0,&quot;index&quot;:null}" fill="none"/><path d="M238.07216,189.594l-3.87706,-5.83213" data-paper-data="{&quot;origPos&quot;:null,&quot;origRot&quot;:0,&quot;index&quot;:null}" fill="none"/><path d="M235.40617,179.69852l2.82979,4.556" data-paper-data="{&quot;origPos&quot;:null,&quot;origRot&quot;:0,&quot;index&quot;:null}" fill="none"/><path d="M238.74885,179.34041l-3.12947,-3.44409" data-paper-data="{&quot;origPos&quot;:null,&quot;origRot&quot;:0,&quot;index&quot;:null}" fill="none"/><path d="M236.4443,170.25465l2.44364,2.97764" data-paper-data="{&quot;origPos&quot;:null,&quot;origRot&quot;:0,&quot;index&quot;:null}" fill="none"/></g></g></svg>