<svg version="1.1" xmlns="http://www.w3.org/2000/svg" xmlns:xlink="http://www.w3.org/1999/xlink" width="505.38738" height="374.59628" viewBox="0,0,505.38738,374.59628"><defs><radialGradient cx="-0.24024" cy="180.0001" r="180.93093" gradientUnits="userSpaceOnUse" id="color-1"><stop offset="0" stop-color="#ececec"/><stop offset="1" stop-color="#616161"/></radialGradient><linearGradient x1="-17.88288" y1="180.0001" x2="17.40241" y2="180.0001" gradientUnits="userSpaceOnUse" id="color-2"><stop offset="0" stop-color="#ececec" stop-opacity="0"/><stop offset="1" stop-color="#ececec"/></linearGradient></defs><g transform="translate(17.88288,0.93083)"><g data-paper-data="{&quot;isPaintingLayer&quot;:true}" fill-rule="nonzero" stroke="none" stroke-linecap="butt" stroke-linejoin="miter" stroke-miterlimit="10" stroke-dasharray="" stroke-dashoffset="0" style="mix-blend-mode: normal"><g data-paper-data="{&quot;index&quot;:null}" fill="#ffffff"><path d="M15.52853,163.45344h173.26276l43.16667,26h-216.42943z" stroke-width="1"/><path d="M135.11363,183.95344h81.92016l7.33333,5.66667l50.09084,0l-43,25.33333h-43z" stroke-width="0.85398"/></g><path d="M7.88246,299.66546h479.62204v74h-479.62204z" data-paper-data="{&quot;origPos&quot;:null,&quot;index&quot;:null}" fill="#ececec" stroke-width="1"/><path d="M311.65286,300.46546l59.94455,-32h109.71231l0.21649,32z" data-paper-data="{&quot;index&quot;:null}" fill="#ececec" stroke-width="0"/><path d="M354.97001,310.46546v-33.1l16.5873,-8.98067l26.25369,0.08067v42z" data-paper-data="{&quot;index&quot;:null}" fill="#616161" stroke-width="0"/><path d="M398.00797,360.96546v-50.5h41.60992v50.5z" data-paper-data="{&quot;index&quot;:null}" fill="#616161" stroke-width="0"/><path d="M312.80186,368.46546v-35l42.34856,-24l0.49243,59z" data-paper-data="{&quot;index&quot;:null}" fill="#616161" stroke-width="0"/><path d="M439.54402,310.46546v-42l42.51999,-0.08067l0.321,42.08067z" data-paper-data="{&quot;index&quot;:null}" fill="#616161" stroke-width="0"/><g fill="#616161" stroke-width="0"><path d="M58.37321,368.58949v-34.5h42.84098v34.5z" data-paper-data="{&quot;index&quot;:null}"/><path d="M15.97733,334.55045v-34.5h42.84098v34.5z" data-paper-data="{&quot;index&quot;:null}"/></g><g fill="#616161" stroke-width="0"><path d="M143.07033,368.58949v-34.5h42.84098v34.5z" data-paper-data="{&quot;index&quot;:null}"/><path d="M100.67445,334.55045v-34.5h42.84098v34.5z" data-paper-data="{&quot;index&quot;:null}"/></g><g fill="#616161" stroke-width="0"><path d="M227.76744,368.58949v-34.5h42.84098v34.5z" data-paper-data="{&quot;index&quot;:null}"/><path d="M185.37156,334.55045v-34.5h42.84098v34.5z" data-paper-data="{&quot;index&quot;:null}"/></g><path d="M270.06867,334.55045v-34.5h42.84098v34.5z" data-paper-data="{&quot;index&quot;:null}" fill="#616161" stroke-width="0"/><path d="M-17.88288,360.93104v-361.86186h35.28529v361.86186z" fill="url(#color-1)" stroke-width="0"/><path d="M-17.88288,360.93104v-361.86186h35.28529v361.86186z" fill="url(#color-2)" stroke-width="0"/><path d="M17.47433,189.4108v-26h42.84098v26z" data-paper-data="{&quot;index&quot;:null}" fill="#616161" stroke-width="0"/><path d="M102.67145,189.6608v-26h42.84098v26z" data-paper-data="{&quot;index&quot;:null}" fill="#616161" stroke-width="0"/><path d="M145.50478,189.49414h42.84098v25.33333z" data-paper-data="{&quot;index&quot;:null}" fill="#616161" stroke-width="0"/><path d="M188.83811,189.49414v-26l42.84098,26z" data-paper-data="{&quot;index&quot;:null}" fill="#616161" stroke-width="0"/><path d="M231.17145,214.99414v-25.33333h42.84098z" data-paper-data="{&quot;index&quot;:null}" fill="#616161" stroke-width="0"/></g></g></svg>