<svg version="1.1" xmlns="http://www.w3.org/2000/svg" xmlns:xlink="http://www.w3.org/1999/xlink" width="534.35509" height="153.49226" viewBox="0,0,534.35509,153.49226"><defs><linearGradient x1="233.13652" y1="299.71115" x2="233.89734" y2="355.70605" gradientUnits="userSpaceOnUse" id="color-1"><stop offset="0" stop-color="#c3e060"/><stop offset="1" stop-color="#6de01b"/></linearGradient><linearGradient x1="609.93586" y1="230.99828" x2="610.4728" y2="286.99672" gradientUnits="userSpaceOnUse" id="color-2"><stop offset="0" stop-color="#c3e060"/><stop offset="1" stop-color="#6de01b"/></linearGradient></defs><g transform="translate(40.85508,-231.75885)"><g data-paper-data="{&quot;isPaintingLayer&quot;:true}" fill-rule="nonzero" stroke-linecap="butt" stroke-linejoin="miter" stroke-miterlimit="10" stroke-dasharray="" stroke-dashoffset="0" style="mix-blend-mode: normal"><g data-paper-data="{&quot;origPos&quot;:null}"><path d="M-40.05,330.87622h259.9546v45.068h-259.9546z" fill="#c06520" stroke="#763e13" stroke-width="1.61017"/><path d="M95,353.00001c0,-2.76142 2.23858,-5 5,-5c2.76142,0 5,2.23858 5,5c0,2.76142 -2.23858,5 -5,5c-2.76142,0 -5,-2.23858 -5,-5z" data-paper-data="{&quot;origPos&quot;:null}" fill="#e0bb60" stroke="none" stroke-width="0.5"/><path d="M-8.8272,302.94669c0,0 215.56471,-1.55164 227.86099,-1.64c4.09877,-0.02946 8.03533,-0.12852 9.85003,2.26185c2.0161,2.65568 3.03828,6.31739 3.05645,9.31851c0.06819,11.26705 0.07183,11.86763 0.14003,23.13469l-8.90933,13.83466l-6.28496,-13.92466l-11.05106,8.14849l-11.30919,-10.84977l-16.04217,14.21579l-17.42351,-12.7682l-9.99577,11.13467l-13.32466,-9.82272l-14.06746,10.18901l-6.26376,-12.91741l-14.05387,11.18892l-17.38275,-9.76846l-4.88242,14.06655l-22.46894,-10.70053l-7.96674,11.10752l-9.32091,-13.87663l-14.04028,12.18883l-13.33825,-10.82264l-3.90864,11.05327l-12.32372,-10.8362l-6.93862,12.09386z" data-paper-data="{&quot;origPos&quot;:null,&quot;origRot&quot;:0}" fill="url(#color-1)" stroke="#0f6600" stroke-width="2"/></g><g><path d="M311.37824,261.75091h171.20051v122.5002h-171.20051z" data-paper-data="{&quot;origPos&quot;:null}" fill="#c06520" stroke="#763e13" stroke-width="2"/><path d="M361.99742,301.00001c0,-2.76142 2.52935,-5 5.64946,-5c3.12011,0 5.64946,2.23858 5.64946,5c0,2.76142 -2.52935,5 -5.64946,5c-3.12011,0 -5.64946,-2.23858 -5.64946,-5z" data-paper-data="{&quot;origPos&quot;:null}" fill="#e0bb60" stroke="none" stroke-width="0.5"/><path d="M412.84258,336.00001c0,-2.76142 2.52935,-5 5.64946,-5c3.12011,0 5.64946,2.23858 5.64946,5c0,2.76142 -2.52935,5 -5.64946,5c-3.12011,0 -5.64946,-2.23858 -5.64946,-5z" data-paper-data="{&quot;origPos&quot;:null}" fill="#e0bb60" stroke="none" stroke-width="0.5"/><path d="M341.65936,339.00001c0,-2.76142 2.52935,-5 5.64946,-5c3.12011,0 5.64946,2.23858 5.64946,5c0,2.76142 -2.52935,5 -5.64946,5c-3.12011,0 -5.64946,-2.23858 -5.64946,-5z" fill="#e0bb60" stroke="none" stroke-width="0.5"/><path d="M448.99914,298.00001c0,-2.76142 2.52935,-5 5.64946,-5c3.12011,0 5.64946,2.23858 5.64946,5c0,2.76142 -2.52935,5 -5.64946,5c-3.12011,0 -5.64946,-2.23858 -5.64946,-5z" data-paper-data="{&quot;origPos&quot;:null}" fill="#e0bb60" stroke="none" stroke-width="0.5"/><path d="M305.79722,235.76929c1.50148,-1.64256 6.12387,-3.00636 10.69512,-3.01043c63.57388,-0.05661 141.47616,-0.12847 160.10031,-0.14505c6.20805,-0.00553 10.96345,1.84668 12.08937,2.98584c1.4702,1.48747 3.81797,4.56098 3.81797,9.4004c0,8.39065 0,13.10935 0,21.5c0,0.89907 -0.76112,8.5977 -0.75623,9.49592l-12.14694,-12.29693l-14.41779,13.10368l-13.98076,-13.15508l-14.4082,13.50365l-19.50134,-12.07349l-6.32187,14.03674l-22.14908,-13.16966l-14.04228,13.39243l-11.75524,-13.93278l-15.41674,12.10363l-16.89137,-10.90317l-5.05942,11.0294l-15.60014,-10.91059l-8.92351,12.05165c0,0 0.38046,-20.58864 0.62397,-33.76641c0.08827,-4.77672 2.78335,-7.86049 4.04416,-9.23975z" data-paper-data="{&quot;origPos&quot;:null,&quot;origRot&quot;:0}" fill="url(#color-2)" stroke="#0f6600" stroke-width="2"/></g></g></g></svg>