<svg version="1.1" xmlns="http://www.w3.org/2000/svg" xmlns:xlink="http://www.w3.org/1999/xlink" width="437" height="90.79587" viewBox="0,0,437,90.79587"><defs><linearGradient x1="240" y1="135.60206" x2="240" y2="224.39795" gradientUnits="userSpaceOnUse" id="color-1"><stop offset="0" stop-color="#ffffff"/><stop offset="1" stop-color="#d8d8d8"/></linearGradient><linearGradient x1="240" y1="135.60208" x2="240" y2="224.39795" gradientUnits="userSpaceOnUse" id="color-2"><stop offset="0" stop-color="#343434"/><stop offset="1" stop-color="#090909"/></linearGradient><radialGradient cx="443.8065" cy="206.54466" r="17.9081" gradientUnits="userSpaceOnUse" id="color-3"><stop offset="0" stop-color="#ffffff"/><stop offset="1" stop-color="#e5e5e5"/></radialGradient></defs><g transform="translate(-21.5,-134.60208)"><g data-paper-data="{&quot;isPaintingLayer&quot;:true}" fill-rule="nonzero" stroke-linejoin="miter" stroke-miterlimit="10" stroke-dasharray="" stroke-dashoffset="0" style="mix-blend-mode: normal"><path d="M22.5,224.39795v-88.79587h435v88.79587z" data-paper-data="{&quot;origPos&quot;:null}" fill="url(#color-1)" stroke="url(#color-2)" stroke-width="2" stroke-linecap="butt"/><g data-paper-data="{&quot;origPos&quot;:null}"><path d="M444.3058,202.09868c2.5136,0 4.7909,1.0212 6.4406,2.6702c1.6489,1.6496 2.6702,3.9269 2.6702,6.4405c0,2.5136 -1.0213,4.791 -2.6702,6.4406c-1.6497,1.649 -3.927,2.6702 -6.4406,2.6702c-2.5136,0 -4.7909,-1.0212 -6.4406,-2.6702c-1.6489,-1.6496 -2.6701,-3.927 -2.6701,-6.4406c0,-2.5136 1.0212,-4.7909 2.6701,-6.4405c1.6497,-1.649 3.927,-2.6702 6.4406,-2.6702z" fill="url(#color-3)" stroke="#000000" stroke-width="2.0785" stroke-linecap="butt"/><path d="M441.2734,206.54886l5.6119,0.4503l1.7321,3.187l-3.6374,2.9446l3.3603,-0.5197l0.7967,3.4642l-7.4479,-0.0693l-1.9053,-2.4249l4.6766,-3.3256l-4.5727,-0.3464z" fill="#000000" stroke="none" stroke-width="0.69283" stroke-linecap="round"/></g><g data-paper-data="{&quot;origPos&quot;:null}" stroke="none" stroke-width="1" stroke-linecap="butt"><path d="M34.043,147.89806c2.449,0.547 3.81,0.86 4.083,0.939v0.064c-0.085,2.193 -0.149,3.469 -0.191,3.828c0.14,0 0.768,0.146 1.886,0.437c1.003,-3.092 1.547,-4.639 1.632,-4.639c1.677,0.754 2.743,1.255 3.199,1.504v0.064c-1.841,4.284 -2.886,6.647 -3.135,7.091c-0.462,0.383 -2.072,1.847 -4.831,4.393h-0.064l-5.086,-2.506c0.468,-0.802 1.033,-1.723 1.696,-2.762c0.03,0 0.826,0.523 2.388,1.568h0.063c0.523,-0.426 1.149,-1.033 1.878,-1.823c0,-0.037 -1.191,-1.206 -3.573,-3.509v-4.521z" data-paper-data="{&quot;origPos&quot;:null}" fill="#000000"/><path d="M49.319,150.66006c2.309,0.62 3.533,0.997 3.673,1.13c1.27,1.799 1.984,2.835 2.142,3.108c-0.82,2.601 -1.291,3.901 -1.413,3.901c-2.734,0.638 -4.165,0.957 -4.293,0.957c-2.26,-1.318 -3.463,-2.053 -3.609,-2.205c-0.079,-2.455 -0.119,-3.81 -0.119,-4.066c-0.036,-0.072 -0.054,-0.127 -0.054,-0.164c2.333,-1.774 3.539,-2.661 3.618,-2.661zM49.091,153.99606c-0.036,0.243 -0.091,1.127 -0.164,2.652l2.032,0.456c0.487,-1.519 0.73,-2.33 0.73,-2.434c-1.617,-0.486 -2.483,-0.729 -2.598,-0.729z" data-paper-data="{&quot;origPos&quot;:null}" fill="#000000"/><path d="M60.885,150.65106l0.064,0.118l-1.23,6.526h0.063l3.136,-0.92v-3.692c0.012,-0.085 0.051,-0.127 0.118,-0.127c2.358,0.164 3.67,0.246 3.938,0.246c0,0.042 0.021,0.064 0.064,0.064c0,1.039 -0.329,3.193 -0.985,6.462c0,0.188 -0.942,0.331 -2.825,0.428c-0.098,-0.115 -0.18,-0.361 -0.246,-0.738c-2.413,0.492 -3.789,0.738 -4.129,0.738c-1.927,-1.434 -2.89,-2.172 -2.89,-2.215c0.329,-4.308 0.535,-6.544 0.62,-6.708h0.055c1.537,-0.042 2.953,-0.103 4.247,-0.182z" data-paper-data="{&quot;origPos&quot;:null}" fill="#000000"/><path d="M76.17,150.66006c2.741,0.516 4.175,0.811 4.303,0.884v0.109c-0.59,1.665 -0.885,2.528 -0.885,2.589h-0.054c-0.152,0 -0.887,-0.237 -2.206,-0.711c-0.735,1.234 -1.103,1.893 -1.103,1.978l1.823,1.768c1.41,-1.324 2.127,-1.987 2.151,-1.987c1.1,1.44 1.65,2.248 1.65,2.425c-0.602,0.346 -1.65,1.027 -3.145,2.041c-2.892,-0.626 -4.454,-0.975 -4.685,-1.048l-1.431,-4.63z" data-paper-data="{&quot;origPos&quot;:null}" fill="#000000"/><path d="M84.146,150.65106c3.609,0.498 5.414,0.805 5.414,0.92c1.422,1.222 2.133,1.875 2.133,1.96c-0.578,1.805 -0.906,2.902 -0.985,3.29c0.577,1.283 0.906,2.048 0.985,2.297c0,0.073 -0.942,0.268 -2.826,0.584c-0.024,-0.104 -0.197,-0.335 -0.519,-0.693c-2.601,0.498 -4.002,0.747 -4.202,0.747l-1.386,-3.746l3.054,-1.613c0.492,0.079 1.261,0.118 2.306,0.118c0,-0.133 0.018,-0.537 0.054,-1.212c-0.176,0 -1.75,0.116 -4.721,0.347l-0.055,-0.119c0.413,-1.92 0.663,-2.88 0.748,-2.88zM86.042,156.01007c0,0.067 0.194,0.778 0.583,2.133h0.055c0.765,-0.498 1.148,-0.826 1.148,-0.984l0.118,-0.976c-0.145,0 -0.78,-0.057 -1.904,-0.173z" data-paper-data="{&quot;origPos&quot;:null}" fill="#000000"/><path d="M100.661,150.65106l3.035,2.087c-0.212,3.464 -0.361,5.487 -0.446,6.07c-0.353,0.043 -1.425,0.107 -3.218,0.192l-0.063,-0.128l-0.319,-4.867l-0.128,-0.064c-1.161,0.249 -1.96,0.438 -2.397,0.565c0.121,2.072 0.182,3.57 0.182,4.494c-1.811,0.504 -2.801,0.756 -2.971,0.756c-1.179,-5.189 -1.768,-7.929 -1.768,-8.221c2.564,-0.334 3.955,-0.501 4.174,-0.501v0.063c0.043,0.031 0.106,0.663 0.191,1.896c2.352,-1.561 3.595,-2.342 3.728,-2.342z" data-paper-data="{&quot;origPos&quot;:null}" fill="#000000"/><path d="M117.323,150.65106l3.035,2.087c-0.213,3.464 -0.362,5.487 -0.447,6.07c-0.352,0.043 -1.425,0.107 -3.217,0.192l-0.064,-0.128l-0.319,-4.867l-0.128,-0.064c-1.16,0.249 -1.959,0.438 -2.397,0.565c0.122,2.072 0.183,3.57 0.183,4.494c-1.811,0.504 -2.802,0.756 -2.972,0.756c-1.179,-5.189 -1.768,-7.929 -1.768,-8.221c2.564,-0.334 3.956,-0.501 4.174,-0.501v0.063c0.043,0.031 0.107,0.663 0.192,1.896c2.351,-1.561 3.594,-2.342 3.728,-2.342z" data-paper-data="{&quot;origPos&quot;:null}" fill="#000000"/><path d="M124.933,150.66006c2.309,0.62 3.534,0.997 3.674,1.13c1.27,1.799 1.984,2.835 2.142,3.108c-0.821,2.601 -1.292,3.901 -1.413,3.901c-2.735,0.638 -4.166,0.957 -4.293,0.957c-2.261,-1.318 -3.464,-2.053 -3.61,-2.205c-0.079,-2.455 -0.118,-3.81 -0.118,-4.066c-0.037,-0.072 -0.055,-0.127 -0.055,-0.164c2.334,-1.774 3.54,-2.661 3.619,-2.661zM124.706,153.99606c-0.037,0.243 -0.092,1.127 -0.164,2.652l2.032,0.456c0.486,-1.519 0.729,-2.33 0.729,-2.434c-1.616,-0.486 -2.482,-0.729 -2.597,-0.729z" data-paper-data="{&quot;origPos&quot;:null}" fill="#000000"/><path d="M135.579,150.65106c0.079,0.103 0.489,1.865 1.231,5.286h0.064c0,-0.079 0.449,-0.774 1.349,-2.087c0.376,0.255 1.093,0.808 2.151,1.659h0.127v-0.064c0.164,-2.37 0.286,-3.682 0.365,-3.937c2.503,0.127 3.755,0.231 3.755,0.31c-1.148,4.618 -1.762,7.018 -1.841,7.2c-0.383,0.043 -1.185,0.164 -2.406,0.365c-1.003,-1.574 -1.577,-2.413 -1.723,-2.516c-0.656,1.75 -1.067,2.713 -1.231,2.889h-2.461c-0.151,-0.048 -0.868,-1.628 -2.151,-4.739c-0.82,-1.738 -1.23,-2.68 -1.23,-2.826c0,-0.133 1.334,-0.647 4.001,-1.54z" data-paper-data="{&quot;origPos&quot;:null}" fill="#000000"/><path d="M153.79,150.65106c1.489,3.415 2.282,5.186 2.379,5.314c0.735,-2.789 1.164,-4.275 1.285,-4.457c2.321,0.212 3.482,0.395 3.482,0.547v0.063c-1.628,4.473 -2.503,6.815 -2.625,7.028c-1.799,0.328 -3.002,0.531 -3.609,0.61l-4.457,-6.599v-0.127c0.042,-0.079 1.224,-0.872 3.545,-2.379z" data-paper-data="{&quot;origPos&quot;:null}" fill="#000000"/><path d="M163.169,146.99606l3.582,0.565c-0.449,1.72 -0.744,2.579 -0.884,2.579c-1.884,-0.127 -2.825,-0.252 -2.825,-0.373v-2.643c0.018,-0.086 0.06,-0.128 0.127,-0.128zM162.167,151.33406h0.054c2.771,0.505 4.156,0.799 4.156,0.885c-0.796,4.508 -1.279,7.021 -1.449,7.537h-2.889c-0.085,0 -0.128,-0.042 -0.128,-0.127z" data-paper-data="{&quot;origPos&quot;:null}" fill="#000000"/><path d="M174.407,150.65106c1.75,1.118 2.717,1.762 2.899,1.932c-0.632,1.404 -0.994,2.106 -1.085,2.106l-3.318,-1.924h-0.118c0,0.061 -0.143,0.401 -0.428,1.021c3.056,1.647 4.584,2.492 4.584,2.534c-0.857,1.981 -1.34,3.026 -1.449,3.136l-5.186,0.3c-2.018,-1.336 -3.102,-2.041 -3.254,-2.114v-0.055c0,-0.152 0.301,-0.835 0.902,-2.051l4.047,2.106l0.301,-1.203c-2.504,-1.125 -3.992,-1.826 -4.466,-2.106v-0.127c0,-0.231 0.483,-1.255 1.449,-3.072z" data-paper-data="{&quot;origPos&quot;:null}" fill="#000000"/><path d="M179.466,146.99606l3.582,0.565c-0.45,1.72 -0.744,2.579 -0.884,2.579c-1.884,-0.127 -2.826,-0.252 -2.826,-0.373v-2.643c0.019,-0.086 0.061,-0.128 0.128,-0.128zM178.463,151.33406h0.055c2.771,0.505 4.156,0.799 4.156,0.885c-0.796,4.508 -1.279,7.021 -1.449,7.537h-2.889c-0.085,0 -0.128,-0.042 -0.128,-0.127z" data-paper-data="{&quot;origPos&quot;:null}" fill="#000000"/><path d="M186.074,147.89806l4.01,0.711l-0.382,3.044c0.796,-0.042 1.379,-0.063 1.75,-0.063h0.583l0.128,-0.064l0.063,0.127c-0.127,1.848 -0.237,2.887 -0.328,3.118l-0.127,-0.073c-0.091,0 -0.912,-0.043 -2.461,-0.128c-0.085,1.428 -0.149,3.136 -0.192,5.123l-0.127,0.063c-1.957,-0.127 -3.124,-0.237 -3.5,-0.328l0.064,-0.255c0,-0.529 0.085,-2.169 0.255,-4.922c-1.641,-0.091 -2.461,-0.2 -2.461,-0.328c0.085,-2.03 0.194,-3.044 0.328,-3.044l2.397,0.455v-0.783c0,-0.638 -0.024,-1.501 -0.073,-2.589c0.049,0 0.073,-0.021 0.073,-0.064z" data-paper-data="{&quot;origPos&quot;:null}" fill="#000000"/><path d="M207.129,147.88006c0.036,0.079 0.054,0.137 0.054,0.173c-0.036,1.811 -0.054,2.859 -0.054,3.145l-0.119,0.054c-2.789,0.073 -4.387,0.11 -4.794,0.11l-0.055,0.118c0.037,0.675 0.055,1.228 0.055,1.659v0.283h0.055l3.709,-0.456l0.064,0.109v2.799c0,0.079 -0.039,0.118 -0.118,0.118l-3.482,-0.401v0.337c0,0.766 0.021,1.908 0.064,3.427c-0.341,0.079 -1.371,0.213 -3.09,0.401c-0.11,-0.212 -0.641,-3.734 -1.595,-10.563h0.054z" data-paper-data="{&quot;origPos&quot;:null}" fill="#2b70c2"/><path d="M209.562,150.65106c3.61,0.498 5.414,0.805 5.414,0.92c1.422,1.222 2.133,1.875 2.133,1.96c-0.577,1.805 -0.905,2.902 -0.984,3.29c0.577,1.283 0.905,2.048 0.984,2.297c0,0.073 -0.942,0.268 -2.825,0.584c-0.025,-0.104 -0.198,-0.335 -0.52,-0.693c-2.601,0.498 -4.001,0.747 -4.202,0.747l-1.385,-3.746l3.053,-1.613c0.493,0.079 1.261,0.118 2.306,0.118c0,-0.133 0.019,-0.537 0.055,-1.212c-0.176,0 -1.75,0.116 -4.721,0.347l-0.055,-0.119c0.413,-1.92 0.662,-2.88 0.747,-2.88zM211.458,156.01007c0,0.067 0.195,0.778 0.584,2.133h0.054c0.766,-0.498 1.149,-0.826 1.149,-0.984l0.118,-0.976c-0.146,0 -0.781,-0.057 -1.905,-0.173z" data-paper-data="{&quot;origPos&quot;:null}" fill="#2b70c2"/><path d="M226.078,150.65106l3.035,2.087c-0.213,3.464 -0.361,5.487 -0.446,6.07c-0.353,0.043 -1.425,0.107 -3.218,0.192l-0.064,-0.128l-0.319,-4.867l-0.127,-0.064c-1.161,0.249 -1.96,0.438 -2.397,0.565c0.121,2.072 0.182,3.57 0.182,4.494c-1.811,0.504 -2.801,0.756 -2.972,0.756c-1.178,-5.189 -1.768,-7.929 -1.768,-8.221c2.564,-0.334 3.956,-0.501 4.175,-0.501v0.063c0.042,0.031 0.106,0.663 0.191,1.896c2.352,-1.561 3.594,-2.342 3.728,-2.342z" data-paper-data="{&quot;origPos&quot;:null}" fill="#2b70c2"/><path d="M232.741,147.89806l4.01,0.711l-0.383,3.044c0.796,-0.042 1.38,-0.063 1.75,-0.063h0.584l0.127,-0.064l0.064,0.127c-0.128,1.848 -0.237,2.887 -0.328,3.118l-0.128,-0.073c-0.091,0 -0.911,-0.043 -2.461,-0.128c-0.085,1.428 -0.148,3.136 -0.191,5.123l-0.128,0.063c-1.956,-0.127 -3.123,-0.237 -3.5,-0.328l0.064,-0.255c0,-0.529 0.085,-2.169 0.255,-4.922c-1.64,-0.091 -2.461,-0.2 -2.461,-0.328c0.086,-2.03 0.195,-3.044 0.329,-3.044l2.397,0.455v-0.783c0,-0.638 -0.025,-1.501 -0.073,-2.589c0.048,0 0.073,-0.021 0.073,-0.064z" data-paper-data="{&quot;origPos&quot;:null}" fill="#2b70c2"/><path d="M241.245,150.65106c3.609,0.498 5.414,0.805 5.414,0.92c1.422,1.222 2.133,1.875 2.133,1.96c-0.578,1.805 -0.906,2.902 -0.985,3.29c0.577,1.283 0.906,2.048 0.985,2.297c0,0.073 -0.942,0.268 -2.826,0.584c-0.024,-0.104 -0.198,-0.335 -0.52,-0.693c-2.6,0.498 -4.001,0.747 -4.201,0.747l-1.386,-3.746l3.054,-1.613c0.492,0.079 1.26,0.118 2.306,0.118c0,-0.133 0.018,-0.537 0.054,-1.212c-0.176,0 -1.75,0.116 -4.721,0.347l-0.055,-0.119c0.413,-1.92 0.663,-2.88 0.748,-2.88zM243.14,156.01007c0,0.067 0.195,0.778 0.584,2.133h0.054c0.766,-0.498 1.149,-0.826 1.149,-0.984l0.118,-0.976c-0.145,0 -0.78,-0.057 -1.905,-0.173z" data-paper-data="{&quot;origPos&quot;:null}" fill="#2b70c2"/><path d="M257.022,150.65106c1.75,1.118 2.716,1.762 2.898,1.932c-0.632,1.404 -0.993,2.106 -1.084,2.106l-3.318,-1.924h-0.118c0,0.061 -0.143,0.401 -0.429,1.021c3.057,1.647 4.585,2.492 4.585,2.534c-0.857,1.981 -1.34,3.026 -1.449,3.136l-5.187,0.3c-2.017,-1.336 -3.102,-2.041 -3.253,-2.114v-0.055c0,-0.152 0.3,-0.835 0.902,-2.051l4.047,2.106l0.301,-1.203c-2.504,-1.125 -3.993,-1.826 -4.467,-2.106v-0.127c0,-0.231 0.483,-1.255 1.45,-3.072z" data-paper-data="{&quot;origPos&quot;:null}" fill="#2b70c2"/><path d="M263.548,147.89806l4.01,0.711l-0.382,3.044c0.796,-0.042 1.379,-0.063 1.75,-0.063h0.583l0.128,-0.064l0.063,0.127c-0.127,1.848 -0.237,2.887 -0.328,3.118l-0.127,-0.073c-0.092,0 -0.912,-0.043 -2.461,-0.128c-0.085,1.428 -0.149,3.136 -0.192,5.123l-0.127,0.063c-1.957,-0.127 -3.124,-0.237 -3.5,-0.328l0.063,-0.255c0,-0.529 0.086,-2.169 0.256,-4.922c-1.641,-0.091 -2.461,-0.2 -2.461,-0.328c0.085,-2.03 0.194,-3.044 0.328,-3.044l2.397,0.455v-0.783c0,-0.638 -0.024,-1.501 -0.073,-2.589c0.049,0 0.073,-0.021 0.073,-0.064z" data-paper-data="{&quot;origPos&quot;:null}" fill="#2b70c2"/><path d="M271.924,146.99606l3.582,0.565c-0.449,1.72 -0.744,2.579 -0.884,2.579c-1.883,-0.127 -2.825,-0.252 -2.825,-0.373v-2.643c0.018,-0.086 0.061,-0.128 0.127,-0.128zM270.922,151.33406h0.054c2.771,0.505 4.157,0.799 4.157,0.885c-0.796,4.508 -1.279,7.021 -1.45,7.537h-2.889c-0.085,0 -0.127,-0.042 -0.127,-0.127z" data-paper-data="{&quot;origPos&quot;:null}" fill="#2b70c2"/><path d="M279.389,150.66006c2.741,0.516 4.175,0.811 4.302,0.884v0.109c-0.589,1.665 -0.884,2.528 -0.884,2.589h-0.055c-0.151,0 -0.887,-0.237 -2.205,-0.711c-0.736,1.234 -1.103,1.893 -1.103,1.978l1.823,1.768c1.409,-1.324 2.127,-1.987 2.151,-1.987c1.1,1.44 1.65,2.248 1.65,2.425c-0.602,0.346 -1.65,1.027 -3.145,2.041c-2.892,-0.626 -4.454,-0.975 -4.685,-1.048l-1.431,-4.63z" data-paper-data="{&quot;origPos&quot;:null}" fill="#2b70c2"/><path d="M299.915,147.88006c0.037,0.079 0.055,0.137 0.055,0.173c-0.037,1.811 -0.055,2.859 -0.055,3.145l-0.118,0.054c-2.789,0.073 -4.387,0.11 -4.795,0.11l-0.054,0.118c0.036,0.675 0.054,1.228 0.054,1.659v0.283h0.055l3.71,-0.456l0.064,0.109v2.799c0,0.079 -0.04,0.118 -0.119,0.118l-3.482,-0.401v0.337c0,0.766 0.022,1.908 0.064,3.427c-0.34,0.079 -1.37,0.213 -3.09,0.401c-0.109,-0.212 -0.641,-3.734 -1.595,-10.563h0.055z" data-paper-data="{&quot;origPos&quot;:null}" fill="#2b70c2"/><path d="M302.349,150.65106c3.609,0.498 5.414,0.805 5.414,0.92c1.422,1.222 2.133,1.875 2.133,1.96c-0.578,1.805 -0.906,2.902 -0.985,3.29c0.578,1.283 0.906,2.048 0.985,2.297c0,0.073 -0.942,0.268 -2.826,0.584c-0.024,-0.104 -0.197,-0.335 -0.519,-0.693c-2.601,0.498 -4.002,0.747 -4.202,0.747l-1.386,-3.746l3.054,-1.613c0.492,0.079 1.261,0.118 2.306,0.118c0,-0.133 0.018,-0.537 0.054,-1.212c-0.176,0 -1.75,0.116 -4.721,0.347l-0.055,-0.119c0.414,-1.92 0.663,-2.88 0.748,-2.88zM304.245,156.01007c0,0.067 0.194,0.778 0.583,2.133h0.055c0.765,-0.498 1.148,-0.826 1.148,-0.984l0.119,-0.976c-0.146,0 -0.781,-0.057 -1.905,-0.173z" data-paper-data="{&quot;origPos&quot;:null}" fill="#2b70c2"/><path d="M310.771,147.90706c1.859,0.037 3.223,0.055 4.092,0.055c0.079,0 0.319,3.731 0.72,11.193c-0.31,0.079 -1.391,0.279 -3.245,0.601c-0.091,0 -0.392,-2.284 -0.902,-6.854c-0.042,-0.109 -0.264,-1.774 -0.665,-4.995z" data-paper-data="{&quot;origPos&quot;:null}" fill="#2b70c2"/><path d="M316.604,147.90706c1.859,0.037 3.224,0.055 4.092,0.055c0.079,0 0.319,3.731 0.72,11.193c-0.309,0.079 -1.391,0.279 -3.244,0.601c-0.091,0 -0.392,-2.284 -0.903,-6.854c-0.042,-0.109 -0.264,-1.774 -0.665,-4.995z" data-paper-data="{&quot;origPos&quot;:null}" fill="#2b70c2"/><path d="M329.793,150.65106c1.75,1.118 2.716,1.762 2.898,1.932c-0.632,1.404 -0.993,2.106 -1.084,2.106l-3.318,-1.924h-0.119c0,0.061 -0.142,0.401 -0.428,1.021c3.056,1.647 4.585,2.492 4.585,2.534c-0.857,1.981 -1.34,3.026 -1.45,3.136l-5.186,0.3c-2.017,-1.336 -3.102,-2.041 -3.254,-2.114v-0.055c0,-0.152 0.301,-0.835 0.903,-2.051l4.047,2.106l0.3,-1.203c-2.503,-1.125 -3.992,-1.826 -4.466,-2.106v-0.127c0,-0.231 0.483,-1.255 1.449,-3.072z" data-paper-data="{&quot;origPos&quot;:null}" fill="#2b70c2"/><path d="M345.388,147.89806c2.187,1.106 3.312,1.659 3.372,1.659c0,0.097 -0.455,0.975 -1.367,2.634h-0.064c-0.073,0 -1.121,-0.495 -3.144,-1.485l-1.03,1.376c1.744,0.838 3.861,1.908 6.353,3.208c-1.131,2.011 -1.933,3.348 -2.407,4.011l-5.149,0.455c-2.352,-1.586 -3.595,-2.406 -3.728,-2.461v-0.063c0,-0.171 0.477,-0.951 1.431,-2.343h0.118c0.377,0.225 1.559,0.872 3.546,1.942l1.203,-1.368c-3.652,-1.859 -5.675,-2.91 -6.07,-3.153v-0.055c1.16,-2.26 1.792,-3.406 1.896,-3.436c3.019,-0.614 4.7,-0.921 5.04,-0.921z" data-paper-data="{&quot;origPos&quot;:null}" fill="#2b70c2"/><path d="M354.056,150.66006c2.74,0.516 4.174,0.811 4.302,0.884v0.109c-0.589,1.665 -0.884,2.528 -0.884,2.589h-0.055c-0.152,0 -0.887,-0.237 -2.206,-0.711c-0.735,1.234 -1.102,1.893 -1.102,1.978l1.822,1.768c1.41,-1.324 2.127,-1.987 2.151,-1.987c1.1,1.44 1.65,2.248 1.65,2.425c-0.601,0.346 -1.65,1.027 -3.144,2.041c-2.893,-0.626 -4.454,-0.975 -4.685,-1.048l-1.431,-4.63z" data-paper-data="{&quot;origPos&quot;:null}" fill="#2b70c2"/><path d="M367.19,150.65106c1.203,0.674 1.941,1.112 2.215,1.312c-0.985,2.048 -1.513,3.09 -1.586,3.127h-0.064l-1.303,-1.14l-1.541,1.878l0.173,3.418c-0.079,0.073 -1.084,0.243 -3.016,0.51c-0.073,-0.522 -0.547,-3.083 -1.422,-7.683c0,-0.073 1.27,-0.262 3.81,-0.565c0.042,0.048 0.158,0.616 0.346,1.704c1.519,-1.707 2.315,-2.561 2.388,-2.561z" data-paper-data="{&quot;origPos&quot;:null}" fill="#2b70c2"/><path d="M371.51,150.65106c3.61,0.498 5.414,0.805 5.414,0.92c1.422,1.222 2.133,1.875 2.133,1.96c-0.577,1.805 -0.905,2.902 -0.984,3.29c0.577,1.283 0.905,2.048 0.984,2.297c0,0.073 -0.942,0.268 -2.825,0.584c-0.025,-0.104 -0.198,-0.335 -0.52,-0.693c-2.601,0.498 -4.001,0.747 -4.202,0.747l-1.385,-3.746l3.053,-1.613c0.492,0.079 1.261,0.118 2.306,0.118c0,-0.133 0.018,-0.537 0.055,-1.212c-0.176,0 -1.75,0.116 -4.721,0.347l-0.055,-0.119c0.413,-1.92 0.662,-2.88 0.747,-2.88zM373.406,156.01007c0,0.067 0.195,0.778 0.583,2.133h0.055c0.766,-0.498 1.149,-0.826 1.149,-0.984l0.118,-0.976c-0.146,0 -0.781,-0.057 -1.905,-0.173z" data-paper-data="{&quot;origPos&quot;:null}" fill="#2b70c2"/><path d="M379.932,147.90706c1.86,0.037 3.224,0.055 4.093,0.055c0.079,0 0.319,3.731 0.72,11.193c-0.31,0.079 -1.392,0.279 -3.245,0.601c-0.091,0 -0.392,-2.284 -0.903,-6.854c-0.042,-0.109 -0.264,-1.774 -0.665,-4.995z" data-paper-data="{&quot;origPos&quot;:null}" fill="#2b70c2"/><path d="M387.151,150.65106c3.609,0.498 5.414,0.805 5.414,0.92c1.422,1.222 2.133,1.875 2.133,1.96c-0.577,1.805 -0.906,2.902 -0.985,3.29c0.578,1.283 0.906,2.048 0.985,2.297c0,0.073 -0.942,0.268 -2.826,0.584c-0.024,-0.104 -0.197,-0.335 -0.519,-0.693c-2.601,0.498 -4.002,0.747 -4.202,0.747l-1.386,-3.746l3.054,-1.613c0.492,0.079 1.261,0.118 2.306,0.118c0,-0.133 0.018,-0.537 0.055,-1.212c-0.177,0 -1.75,0.116 -4.722,0.347l-0.055,-0.119c0.414,-1.92 0.663,-2.88 0.748,-2.88zM389.047,156.01007c0,0.067 0.194,0.778 0.583,2.133h0.055c0.765,-0.498 1.148,-0.826 1.148,-0.984l0.119,-0.976c-0.146,0 -0.781,-0.057 -1.905,-0.173z" data-paper-data="{&quot;origPos&quot;:null}" fill="#2b70c2"/><path d="M402.053,150.65106h0.037c1.622,0.954 2.497,1.452 2.625,1.495v0.082c-0.42,0.48 -1.191,1.312 -2.315,2.497c2.205,0.82 3.445,1.316 3.718,1.486l-2.06,2.543c-1.391,-1.191 -2.278,-1.936 -2.661,-2.233c-0.942,1.835 -1.528,2.913 -1.759,3.235h-0.037c-1.744,-0.613 -2.691,-0.978 -2.843,-1.093v-0.046l2.406,-3.145c-2.236,-0.923 -3.433,-1.464 -3.591,-1.622c0.984,-1.671 1.537,-2.561 1.659,-2.67c0.018,0.042 1.099,0.786 3.244,2.233c0.76,-1.404 1.286,-2.325 1.577,-2.762z" data-paper-data="{&quot;origPos&quot;:null}" fill="#2b70c2"/><path d="M411.14,150.66906c0.086,0.012 0.128,0.055 0.128,0.128l-0.948,5.25c1.811,-0.213 2.716,-0.383 2.716,-0.511c0.341,-2.102 0.575,-3.281 0.702,-3.536c2.242,0.462 3.485,0.735 3.728,0.82c-1.306,4.491 -2.023,6.83 -2.151,7.018c-2.285,1.605 -3.57,2.492 -3.856,2.662c-0.085,0 -1.54,-0.359 -4.365,-1.076v-0.064c0.747,-1.646 1.212,-2.47 1.394,-2.47l2.78,1.395l1.331,-2.279c-1.197,0.298 -1.893,0.447 -2.087,0.447l-3.546,-1.841c0.431,-3.962 0.705,-5.943 0.82,-5.943z" data-paper-data="{&quot;origPos&quot;:null}" fill="#2b70c2"/><path d="M422.37,148.23508l0.036,0.073c-0.607,5.366 -0.948,8.185 -1.021,8.459c-1.288,-0.122 -2.102,-0.207 -2.442,-0.255v-0.037l-0.584,-7.62c0.146,-0.048 1.483,-0.255 4.011,-0.62zM418.76,156.94906c0.043,0.024 0.991,0.097 2.844,0.219l0.037,0.073c-0.286,1.677 -0.468,2.515 -0.547,2.515h-2.115c-0.073,0 -0.17,-0.838 -0.292,-2.515c-0.024,0 -0.036,-0.073 -0.036,-0.219c0.073,-0.024 0.109,-0.049 0.109,-0.073z" data-paper-data="{&quot;origPos&quot;:null}" fill="#000000"/></g></g></g></svg>