<svg version="1.1" xmlns="http://www.w3.org/2000/svg" xmlns:xlink="http://www.w3.org/1999/xlink" width="413.48718" height="49.61307" viewBox="0,0,413.48718,49.61307"><defs><linearGradient x1="251.27364" y1="90.9934" x2="251.27364" y2="450.9934" gradientUnits="userSpaceOnUse" id="color-1"><stop offset="0" stop-color="#05234d"/><stop offset="1" stop-color="#357abe"/></linearGradient><radialGradient cx="442.29154" cy="163.65951" r="388.16668" gradientUnits="userSpaceOnUse" id="color-2"><stop offset="0" stop-color="#1f5899"/><stop offset="1" stop-color="#1f5899" stop-opacity="0"/></radialGradient><linearGradient x1="-134.72637" y1="261.0291" x2="-134.72637" y2="455.0291" gradientUnits="userSpaceOnUse" id="color-3"><stop offset="0" stop-color="#69bdff" stop-opacity="0"/><stop offset="1" stop-color="#69bdff"/></linearGradient><linearGradient x1="-139.29787" y1="308.0403" x2="-139.29787" y2="545.3278" gradientUnits="userSpaceOnUse" id="color-4"><stop offset="0" stop-color="#1bd2f2"/><stop offset="1" stop-color="#1d557f"/></linearGradient><radialGradient cx="258.2604" cy="308.65725" r="1004.64232" gradientUnits="userSpaceOnUse" id="color-5"><stop offset="0" stop-color="#bce7f7"/><stop offset="1" stop-color="#1bafe5"/></radialGradient><linearGradient x1="-139.29787" y1="308.0403" x2="-139.29787" y2="545.3278" gradientUnits="userSpaceOnUse" id="color-6"><stop offset="0" stop-color="#1bd2f2"/><stop offset="1" stop-color="#1d557f"/></linearGradient><radialGradient cx="258.2604" cy="308.65725" r="1004.64232" gradientUnits="userSpaceOnUse" id="color-7"><stop offset="0" stop-color="#bce7f7"/><stop offset="1" stop-color="#1bafe5"/></radialGradient><linearGradient x1="372.76657" y1="34.54272" x2="372.76657" y2="52.3669" gradientUnits="userSpaceOnUse" id="color-8"><stop offset="0" stop-color="#000000"/><stop offset="1" stop-color="#000000"/></linearGradient><linearGradient x1="400.32223" y1="10.05837" x2="400.32223" y2="18.56117" gradientUnits="userSpaceOnUse" id="color-9"><stop offset="0" stop-color="#000000"/><stop offset="1" stop-color="#000000"/></linearGradient><linearGradient x1="436.52171" y1="21.58758" x2="436.52171" y2="32.52496" gradientUnits="userSpaceOnUse" id="color-10"><stop offset="0" stop-color="#000000"/><stop offset="1" stop-color="#000000"/></linearGradient><linearGradient x1="431.17598" y1="21.76825" x2="431.17598" y2="32.61083" gradientUnits="userSpaceOnUse" id="color-11"><stop offset="0" stop-color="#000000"/><stop offset="1" stop-color="#000000"/></linearGradient><linearGradient x1="420.03865" y1="21.4758" x2="420.03865" y2="32.67118" gradientUnits="userSpaceOnUse" id="color-12"><stop offset="0" stop-color="#000000"/><stop offset="1" stop-color="#000000"/></linearGradient><linearGradient x1="407.34407" y1="21.51019" x2="407.34407" y2="32.67118" gradientUnits="userSpaceOnUse" id="color-13"><stop offset="0" stop-color="#000000"/><stop offset="1" stop-color="#000000"/></linearGradient><linearGradient x1="393.66996" y1="21.46687" x2="393.66996" y2="32.67118" gradientUnits="userSpaceOnUse" id="color-14"><stop offset="0" stop-color="#000000"/><stop offset="1" stop-color="#000000"/></linearGradient><linearGradient x1="400.33637" y1="9.95937" x2="400.33637" y2="18.46216" gradientUnits="userSpaceOnUse" id="color-15"><stop offset="0" stop-color="#ffffff"/><stop offset="1" stop-color="#dae0e7"/></linearGradient><linearGradient x1="393.69824" y1="21.35372" x2="393.69824" y2="32.55805" gradientUnits="userSpaceOnUse" id="color-16"><stop offset="0" stop-color="#ff1818"/><stop offset="1" stop-color="#e11515"/></linearGradient><linearGradient x1="407.37235" y1="21.39708" x2="407.37235" y2="32.55805" gradientUnits="userSpaceOnUse" id="color-17"><stop offset="0" stop-color="#1ce11c"/><stop offset="1" stop-color="#1acf1a"/></linearGradient><linearGradient x1="420.06696" y1="21.36264" x2="420.06696" y2="32.55805" gradientUnits="userSpaceOnUse" id="color-18"><stop offset="0" stop-color="#239eff"/><stop offset="1" stop-color="#1e8be1"/></linearGradient><linearGradient x1="431.20426" y1="21.65514" x2="431.20426" y2="32.49768" gradientUnits="userSpaceOnUse" id="color-19"><stop offset="0" stop-color="#ffe530"/><stop offset="1" stop-color="#ffd628"/></linearGradient><linearGradient x1="436.55" y1="21.47447" x2="436.55" y2="32.41181" gradientUnits="userSpaceOnUse" id="color-20"><stop offset="0" stop-color="#a818ff"/><stop offset="1" stop-color="#9404e4"/></linearGradient><linearGradient x1="372.78071" y1="34.51442" x2="372.78071" y2="52.33863" gradientUnits="userSpaceOnUse" id="color-21"><stop offset="0" stop-color="#0160c0"/><stop offset="1" stop-color="#23f4f4"/></linearGradient><radialGradient cx="395.35911" cy="22.58458" r="4.11202" gradientUnits="userSpaceOnUse" id="color-22"><stop offset="0" stop-color="#ff7c7c"/><stop offset="1" stop-color="#ff7c7c" stop-opacity="0"/></radialGradient><radialGradient cx="446.20776" cy="30.45019" r="4.941" gradientUnits="userSpaceOnUse" id="color-23"><stop offset="0" stop-color="#da9dff"/><stop offset="1" stop-color="#da9dff" stop-opacity="0"/></radialGradient><linearGradient x1="420.08222" y1="35.14726" x2="420.08222" y2="40.26659" gradientUnits="userSpaceOnUse" id="color-24"><stop offset="0" stop-color="#54a7dc"/><stop offset="1" stop-color="#4fa3da"/></linearGradient><linearGradient x1="385.64055" y1="42.59489" x2="386.40495" y2="47.65684" gradientUnits="userSpaceOnUse" id="color-25"><stop offset="0" stop-color="#6dbee4"/><stop offset="1" stop-color="#9ae6f6"/></linearGradient><linearGradient x1="459.75254" y1="45.89549" x2="458.73333" y2="50.31908" gradientUnits="userSpaceOnUse" id="color-26"><stop offset="0" stop-color="#94e1f4"/><stop offset="1" stop-color="#adf7fd"/></linearGradient><linearGradient x1="438.69425" y1="42.58026" x2="438.9793" y2="47.1108" gradientUnits="userSpaceOnUse" id="color-27"><stop offset="0" stop-color="#2fcce7"/><stop offset="1" stop-color="#9be6f6"/></linearGradient><radialGradient cx="432.90383" cy="9.5954" r="2.87421" gradientUnits="userSpaceOnUse" id="color-28"><stop offset="0" stop-color="#ffffff"/><stop offset="1" stop-color="#ffffff" stop-opacity="0"/></radialGradient></defs><g transform="translate(-60.9703,-7.26903)"><g data-paper-data="{&quot;isPaintingLayer&quot;:true}" fill-rule="nonzero" stroke-linejoin="miter" stroke-miterlimit="10" stroke-dasharray="" stroke-dashoffset="0" style="mix-blend-mode: normal"><path d="" data-paper-data="{&quot;origPos&quot;:null}" fill="url(#color-1)" stroke="none" stroke-width="1" stroke-linecap="butt"/><path d="" data-paper-data="{&quot;origPos&quot;:null}" fill="url(#color-2)" stroke="none" stroke-width="1" stroke-linecap="butt"/><path d="" fill="#8ecad1" stroke="none" stroke-width="0.5" stroke-linecap="butt"/><path d="" fill="#8ecad1" stroke="none" stroke-width="0.5" stroke-linecap="butt"/><path d="" fill="#8ecad1" stroke="none" stroke-width="0.5" stroke-linecap="butt"/><path d="" fill="#8ecad1" stroke="none" stroke-width="0.5" stroke-linecap="butt"/><path d="" fill="#8ecad1" stroke="none" stroke-width="0.5" stroke-linecap="butt"/><path d="" data-paper-data="{&quot;origPos&quot;:null}" fill="url(#color-3)" stroke="none" stroke-width="1.28528" stroke-linecap="butt"/><path d="" data-paper-data="{&quot;origPos&quot;:null}" fill="url(#color-4)" stroke="url(#color-5)" stroke-width="2.70748" stroke-linecap="butt"/><path d="" data-paper-data="{&quot;origPos&quot;:null}" fill="url(#color-6)" stroke="url(#color-7)" stroke-width="2.70748" stroke-linecap="butt"/><path d="" fill="#8ecad1" stroke="none" stroke-width="0.5" stroke-linecap="butt"/><path d="" fill="#8ecad1" stroke="none" stroke-width="0.5" stroke-linecap="butt"/><path d="" fill="#8ecad1" stroke="none" stroke-width="0.5" stroke-linecap="butt"/><path d="" fill="#8ecad1" stroke="none" stroke-width="0.5" stroke-linecap="butt"/><path d="" fill="#8ecad1" stroke="none" stroke-width="0.5" stroke-linecap="butt"/><path d="" fill="#8ecad1" stroke="none" stroke-width="0.5" stroke-linecap="butt"/><path d="" fill="#8ecad1" stroke="none" stroke-width="0.5" stroke-linecap="butt"/><path d="" fill="#8ecad1" stroke="none" stroke-width="0.5" stroke-linecap="butt"/><path d="" fill="#8ecad1" stroke="none" stroke-width="0.5" stroke-linecap="butt"/><path d="" fill="#8ecad1" stroke="none" stroke-width="0.5" stroke-linecap="butt"/><path d="" fill="#8ecad1" stroke="none" stroke-width="0.5" stroke-linecap="butt"/><path d="" fill="#8ecad1" stroke="none" stroke-width="0.5" stroke-linecap="butt"/><path d="" fill="#8ecad1" stroke="none" stroke-width="0.5" stroke-linecap="butt"/><path d="" fill="#8ecad1" stroke="none" stroke-width="0.5" stroke-linecap="butt"/><path d="" fill="#8ecad1" stroke="none" stroke-width="0.5" stroke-linecap="butt"/><path d="M417.8569,37.97527l3.84017,10.93631l-4.29756,0.66381l-0.67854,-2.90252l-3.35268,0.63994l-0.55387,2.23893l-0.06533,0.00164l-3.99635,-0.80859l3.35949,-11.5354zM425.78033,37.37762l0.20101,8.23273h0.05747l5.71832,-1.90369l0.067,0.06307l-0.19168,4.55209l-8.89818,0.79762l-1.88709,-11.31553l4.87547,-0.48956zM442.30426,39.00831l2.59344,11.30162l-4.36041,0.17216l-0.3487,-2.96058l-3.41594,0.25619l-0.80548,2.16194l-0.06513,-0.0054l-3.8941,-1.25606l4.65373,-11.08089v-0.0004zM407.73005,40.93981l0.00455,0.0558l-0.67998,3.70488l-1.78295,1.28033l3.56197,2.35074l-3.50162,2.01445l-3.17944,-3.94077l-0.10643,0.00851l0.1977,3.28027l-0.13567,0.43107l-2.67122,0.21158l-0.97849,-5.13271l-0.92955,-5.19248l6.16287,-1.68379zM451.52441,43.10487l2.57516,-3.42279l0.06369,0.01018l3.11369,2.57558l-0.01661,0.1143l-3.49578,2.91434l4.53944,2.79546l-3.15913,3.02742l-3.0245,-3.59373l-2.89525,4.04346l-0.06347,-0.01018l-3.47237,-2.07834l0.00934,-0.06661l3.73085,-3.78247l-4.34093,-2.94878l2.67682,-3.2898zM396.36826,40.72862l-0.99031,3.06992l-0.05623,0.00684l-2.78758,-0.87271l-2.0431,1.86947l0.69037,2.92325l2.95105,0.80427l1.78482,-2.18707l2.01635,2.52893l0.02115,0.17218l-3.87727,2.79111l-5.56047,-1.23281l-2.37189,-5.4445l1.9987,-3.71694l3.80614,-1.96778zM465.02115,45.59292l3.99075,-2.47331l2.78138,3.64267l-6.46344,3.29684l-1.03762,4.48676l-5.08667,-1.86136l2.32022,-4.56704l-2.30198,-6.70843l5.12878,-0.7447zM414.43371,41.1124l-0.34559,2.7154l2.02918,-0.04958l-0.82208,-3.03381zM401.45412,41.19371l0.38254,4.04118l0.05351,-0.00415l2.10883,-0.88598l0.31759,-2.41568l-2.86683,-0.79035zM438.5363,41.73783l-0.65199,2.65877l2.02919,0.18067l-0.47688,-3.10726l-0.20435,-0.01245l-0.15703,-0.00039zM384.13879,42.58709l-0.57814,3.09108l-0.06514,0.02014l-3.6796,-0.50721l-0.62523,1.71471l7.49901,1.23366l-1.21251,4.80848l-5.12606,2.08564l-4.58071,-1.3075l-0.01991,-0.06432l0.73454,-2.81662l0.12114,-0.03737l4.23181,0.84036l0.80508,-1.75993l-7.19284,-1.26788l-0.017,-0.05498l0.86917,-4.06789l4.86948,-2.52041z" fill="#265299" stroke="#265299" stroke-width="3.5" stroke-linecap="butt"/><path d="M409.7138,13.91472l-1.00236,1.88834h-0.04667l-2.30529,-1.06521l-0.7553,0.987l4.65767,2.30054l-1.76406,2.87573l-3.77565,0.32672l-2.73324,-1.76448v-0.04585l1.04945,-1.67986h0.08671l2.59943,1.39213l0.88205,-0.97996l-4.45024,-2.26173v-0.0392l1.38964,-2.46378l3.69558,-0.66008zM427.0789,14.82954l-0.76173,2.68615l-1.60372,1.31996l-2.23206,-0.12385l-0.08671,2.35261l-2.36565,0.16344l-0.25393,-1.40519l-0.46113,-6.27429l4.85143,-0.82333zM435.18676,13.58115l-0.64164,2.29409l-3.36116,-0.90196l-0.68851,1.48383h0.0471l3.03384,-0.26821l0.04647,0.0915l-0.41407,2.06508l-2.57267,-0.35931l0.04001,1.12435v0.22839l0.0467,0.0915l3.45472,-0.27426l0.3209,2.02587l-0.04667,0.04584l-6.1612,-0.40533l-0.96919,-2.69901l1.2432,-5.39846zM442.82701,14.77726v0.03923l-0.72852,2.55545l-1.40997,0.7972l2.52578,1.84314l-2.73967,1.21558l-2.14495,-2.93467h-0.08027l-0.0469,2.30738l-0.12694,0.29415h-2.01117l-0.42793,-3.64721l-0.38771,-3.68602l4.71118,-0.83643zM414.36007,12.96007l-0.41404,4.86928l1.86404,0.2483l0.54828,-4.3069l2.7932,0.60781l-0.60136,4.45708l-2.06508,2.37271l-4.08267,-0.70593l-1.5973,-1.7255l0.29415,-5.91497zM438.11581,14.60715l0.04647,2.84983h0.04025l1.6307,-0.50324l0.38086,-1.67321l-2.09828,-0.71237zM422.35465,17.30657l1.64374,-0.33338l0.38087,-1.60765l-2.02461,-0.78435z" fill="#265299" stroke="#265299" stroke-width="3.5" stroke-linecap="butt"/><g fill="#265299" stroke="#265299" stroke-width="3.5" stroke-linecap="butt"><path d="M442.29136,24.25425l4.103,1.35977l2.38847,3.73436l-1.5749,4.69853l-4.79416,1.14468l-4.03308,-2.65068l-0.13129,-4.88776l-0.06101,-0.19766l4.04179,-3.20124zM442.03765,28.27302l-0.18398,2.91726l2.24867,0.49911l0.80466,-2.67662l-2.86935,-0.8001z"/><path d="M437.23416,25.19231l-1.56597,10.08518l-2.82556,-0.24915l0.62956,-10.59339z"/><path d="M431.62598,26.84435v0.05145l-0.9538,3.36492l-1.84582,1.04985l3.30683,2.42685l-3.58686,1.60041l-2.80814,-3.86358h-0.10496l-0.0612,3.03734l-0.16616,0.38731h-2.63346l-0.55989,-4.80185l-0.50718,-4.8533l6.16763,-1.1013zM425.45812,26.62074l0.06121,3.75178h0.05269l2.13477,-0.66276l0.49849,-2.20282l-2.74716,-0.93807z"/><path d="M417.76787,24.98548l3.34168,9.85303l-4.03286,0.49931l-0.56838,-2.60732l-3.14938,0.49889l-0.5688,1.98812h-0.0612l-3.71818,-0.80921l3.4035,-10.23143zM414.49631,27.71355l-0.38499,2.41791h1.89828l-0.6997,-2.72783z"/><path d="M401.71421,24.44344l1.16332,3.21867h0.05269l1.74086,-2.65068h0.05227l2.37104,0.31862l1.42615,9.59479l-3.74451,0.41299l-0.05269,-0.10329l-0.20972,-5.34371h-0.05227l-2.16113,1.86698h-0.05229l-1.47843,-2.2802h-0.05269l-1.84602,5.13729h-0.10473l-3.42944,-1.60912v-0.05165l3.90177,-8.82062z"/></g><g fill="#ffffff" stroke="#2c6eb0" stroke-width="7.5" stroke-linecap="butt"><path d="M77.7505,18.66684c4.2435,0.2994 6.3653,0.57 6.3653,0.8104c1.6352,4.3932 2.6314,7.1973 2.9912,8.4108h0.1353c0.3901,-0.8392 1.8814,-3.1481 4.4753,-6.9267h0.1354c4.0636,0.2547 6.0961,0.5326 6.0961,0.832l3.6649,25.0784c0,0.1497 -3.2086,0.5096 -9.6257,1.0796l-0.1353,-0.2706c-0.3599,-7.6162 -0.5398,-12.2729 -0.5398,-13.9672h-0.1354l-5.5549,4.8813h-0.1353c-0.1799,-0.0907 -1.4466,-2.0772 -3.8002,-5.9609h-0.1353c-2.8948,8.4267 -4.4753,12.9034 -4.7459,13.4274h-0.2692c-5.1734,-2.3392 -8.1128,-3.7412 -8.8167,-4.2047v-0.1353c6.4171,-15.0842 9.761,-22.7695 10.0302,-23.0545z"/><path d="M107.1257,25.48265c8.906,1.2293 13.3597,1.9865 13.3597,2.2715c3.508,3.0128 5.2627,4.625 5.2627,4.8352c-1.425,4.4537 -2.234,7.1599 -2.4284,8.12c1.4237,3.164 2.2341,5.0526 2.4284,5.6672c0,0.18 -2.3247,0.6593 -6.9728,1.4395c-0.059,-0.2548 -0.4865,-0.8248 -1.2811,-1.7087c-6.4186,1.2294 -9.8747,1.844 -10.3685,1.844l-3.4187,-9.2443l7.5342,-3.9815c1.2149,0.1957 3.1106,0.2936 5.6902,0.2936c0,-0.3311 0.0446,-1.3272 0.1353,-2.9926c-0.4347,0 -4.3184,0.285 -11.6511,0.855l-0.1353,-0.2922c1.0206,-4.7387 1.6353,-7.1067 1.8454,-7.1067zM111.80399,38.70705c0,0.1656 0.4793,1.9188 1.4395,5.2627h0.1338c1.8901,-1.2293 2.8343,-2.0383 2.8343,-2.4283l0.2923,-2.4068c-0.3599,0 -1.9261,-0.1425 -4.6999,-0.4276z"/><path d="M131.01079,16.46292l8.8398,1.3949c-1.1098,4.2435 -1.8368,6.3653 -2.1822,6.3653c-4.6481,-0.3152 -6.9714,-0.6233 -6.9714,-0.9227v-6.5222c0.0446,-0.2102 0.1497,-0.3153 0.3138,-0.3153zM128.5378,27.16835h0.1339c6.8375,1.2451 10.2562,1.972 10.2562,2.1822c-1.9634,11.1256 -3.1553,17.3254 -3.5756,18.6008h-7.1297c-0.2102,0 -0.3153,-0.1051 -0.3153,-0.3152z"/><path d="M160.56598,25.48265l7.4896,5.1505c-0.5255,8.5461 -0.8925,13.5396 -1.1027,14.9791c-0.8694,0.105 -3.5166,0.262 -7.9401,0.4721l-0.1569,-0.3152l-0.7874,-12.0095l-0.3152,-0.1584c-2.8631,0.6147 -4.8352,1.0796 -5.9148,1.3949c0.2994,5.113 0.4506,8.8095 0.4506,11.0882c-4.4696,1.2452 -6.9138,1.867 -7.3327,1.867c-2.9092,-12.8055 -4.363,-19.5681 -4.363,-20.2879c6.3264,-0.8248 9.761,-1.2365 10.3008,-1.2365v0.1569c0.1051,0.0749 0.262,1.6353 0.4722,4.6783c5.8025,-3.8535 8.8685,-5.7795 9.1996,-5.7795z"/><path d="M191.7391,18.66684c4.2436,0.2994 6.3654,0.57 6.3654,0.8104c1.6338,4.3932 2.6313,7.1973 2.9912,8.4108h0.1353c0.3886,-0.8392 1.8814,-3.1481 4.4753,-6.9267h0.1353c4.0636,0.2547 6.0947,0.5326 6.0947,0.832l3.6663,25.0784c0,0.1497 -3.2085,0.5096 -9.6257,1.0796l-0.1353,-0.2706c-0.3599,-7.6162 -0.5398,-12.2729 -0.5398,-13.9672h-0.1353l-5.5549,4.8813h-0.1353c-0.18,-0.0907 -1.4467,-2.0772 -3.8017,-5.9609h-0.1353c-2.8933,8.4267 -4.4753,12.9034 -4.7459,13.4274h-0.2692c-5.1734,-2.3392 -8.1114,-3.7412 -8.8167,-4.2047v-0.1353c6.4171,-15.0842 9.761,-22.7695 10.0316,-23.0545z"/><path d="M230.44649,25.50425c6.7928,3.4936 10.557,5.5333 11.2911,6.1178c-0.9745,4.5588 -1.5517,6.9051 -1.7316,7.0404h-14.2148v0.2476l3.9816,4.9259l6.2516,-3.1942c0.6146,1.0637 1.4999,2.9235 2.6544,5.5779c-0.5398,0.18 -4.4753,0.7572 -11.808,1.7317c-6.0731,-4.0032 -9.132,-6.0875 -9.1766,-6.253c0.9745,-7.7818 1.5517,-11.6727 1.7317,-11.6727c6.3423,-2.699 10.0158,-4.2061 11.0206,-4.5214zM228.9854,30.94691c-0.1209,0.3008 -0.9155,1.4927 -2.3838,3.577c0,0.6291 0.8839,0.9443 2.653,0.9443c0,0.0907 1.2825,0.3081 3.8462,0.6521c0.7054,-0.9745 1.058,-1.5445 1.058,-1.7086c-0.226,-1.3344 -0.7125,-2.0023 -1.4625,-2.0023z"/><path d="M263.7572,25.48265l7.4896,5.1505c-0.524,8.5461 -0.8925,13.5396 -1.1012,14.9791c-0.8709,0.105 -3.5167,0.262 -7.9401,0.4721l-0.1569,-0.3152l-0.7874,-12.0095l-0.3153,-0.1584c-2.8645,0.6147 -4.8352,1.0796 -5.9148,1.3949c0.2995,5.113 0.4492,8.8095 0.4492,11.0882c-4.4682,1.2452 -6.9124,1.867 -7.3327,1.867c-2.9092,-12.8055 -4.363,-19.5681 -4.363,-20.2879c6.3279,-0.8248 9.761,-1.2365 10.3008,-1.2365v0.1569c0.1051,0.0749 0.2634,1.6353 0.4722,4.6783c5.8039,-3.8535 8.87,-5.7795 9.1996,-5.7795z"/><path d="M285.77681,25.77485l-3.0359,16.1034h0.1569l7.7372,-2.2715v-9.109c0.0302,-0.2101 0.1266,-0.3152 0.2922,-0.3152c5.8183,0.4045 9.0571,0.6075 9.7164,0.6075c0,0.105 0.0518,0.1569 0.1569,0.1569c0,2.5651 -0.809,7.8796 -2.4284,15.9478c0,0.4635 -2.3247,0.8162 -6.9728,1.0566c-0.2404,-0.285 -0.4419,-0.8925 -0.6074,-1.8224c-5.9522,1.2149 -9.3494,1.8224 -10.1886,1.8224c-4.7531,-3.5382 -7.1297,-5.3606 -7.1297,-5.4657c0.8104,-10.6304 1.32,-16.1494 1.5302,-16.5539h0.1338c3.7945,-0.105 10.6392,-0.1569 10.6392,-0.1569z"/></g><g fill="#ffffff" stroke="#224a8c" stroke-width="7.5" stroke-linecap="butt"><path d="M74.7505,15.66685c4.2435,0.2994 6.3653,0.57 6.3653,0.8104c1.6352,4.3932 2.6314,7.1973 2.9912,8.4108h0.1353c0.3901,-0.8392 1.8814,-3.1481 4.4753,-6.9267h0.1354c4.0636,0.2547 6.0961,0.5326 6.0961,0.832l3.6649,25.0784c0,0.1497 -3.2086,0.5096 -9.6257,1.0796l-0.1353,-0.2706c-0.3599,-7.6162 -0.5398,-12.2729 -0.5398,-13.9672h-0.1354l-5.5549,4.8813h-0.1353c-0.1799,-0.0907 -1.4466,-2.0772 -3.8002,-5.9609h-0.1353c-2.8948,8.4267 -4.4753,12.9034 -4.7459,13.4274h-0.2692c-5.1734,-2.3392 -8.1128,-3.7412 -8.8167,-4.2047v-0.1353c6.4171,-15.0842 9.761,-22.7695 10.0302,-23.0545z"/><path d="M104.1257,22.48265c8.906,1.2293 13.3597,1.9865 13.3597,2.2715c3.508,3.0128 5.2627,4.625 5.2627,4.8352c-1.425,4.4537 -2.234,7.1599 -2.4284,8.12c1.4237,3.164 2.2341,5.0526 2.4284,5.6672c0,0.18 -2.3247,0.6593 -6.9728,1.4395c-0.059,-0.2548 -0.4865,-0.8248 -1.2811,-1.7087c-6.4186,1.2294 -9.8747,1.844 -10.3685,1.844l-3.4187,-9.2443l7.5342,-3.9815c1.2149,0.1957 3.1106,0.2936 5.6902,0.2936c0,-0.3311 0.0446,-1.3272 0.1353,-2.9926c-0.4347,0 -4.3184,0.285 -11.6511,0.855l-0.1353,-0.2922c1.0206,-4.7387 1.6353,-7.1067 1.8454,-7.1067zM108.80399,35.70705c0,0.1656 0.4793,1.9188 1.4395,5.2627h0.1338c1.8901,-1.2293 2.8343,-2.0383 2.8343,-2.4283l0.2923,-2.4068c-0.3599,0 -1.9261,-0.1425 -4.6999,-0.4276z"/><path d="M128.01079,13.46293l8.8398,1.3949c-1.1098,4.2435 -1.8368,6.3653 -2.1822,6.3653c-4.6481,-0.3152 -6.9714,-0.6233 -6.9714,-0.9227v-6.5222c0.0446,-0.2102 0.1497,-0.3153 0.3138,-0.3153zM125.5378,24.16835h0.1339c6.8375,1.2451 10.2562,1.972 10.2562,2.1822c-1.9634,11.1256 -3.1553,17.3254 -3.5756,18.6008h-7.1297c-0.2102,0 -0.3153,-0.1051 -0.3153,-0.3152z"/><path d="M157.56598,22.48265l7.4896,5.1505c-0.5255,8.5461 -0.8925,13.5396 -1.1027,14.9791c-0.8694,0.105 -3.5166,0.262 -7.9401,0.4721l-0.1569,-0.3152l-0.7874,-12.0095l-0.3152,-0.1584c-2.8631,0.6147 -4.8352,1.0796 -5.9148,1.3949c0.2994,5.113 0.4506,8.8095 0.4506,11.0882c-4.4696,1.2452 -6.9138,1.867 -7.3327,1.867c-2.9092,-12.8055 -4.363,-19.5681 -4.363,-20.2879c6.3264,-0.8248 9.761,-1.2365 10.3008,-1.2365v0.1569c0.1051,0.0749 0.262,1.6353 0.4722,4.6783c5.8025,-3.8535 8.8685,-5.7795 9.1996,-5.7795z"/><path d="M188.7391,15.66685c4.2436,0.2994 6.3654,0.57 6.3654,0.8104c1.6338,4.3932 2.6313,7.1973 2.9912,8.4108h0.1353c0.3886,-0.8392 1.8814,-3.1481 4.4753,-6.9267h0.1353c4.0636,0.2547 6.0947,0.5326 6.0947,0.832l3.6663,25.0784c0,0.1497 -3.2085,0.5096 -9.6257,1.0796l-0.1353,-0.2706c-0.3599,-7.6162 -0.5398,-12.2729 -0.5398,-13.9672h-0.1353l-5.5549,4.8813h-0.1353c-0.18,-0.0907 -1.4467,-2.0772 -3.8017,-5.9609h-0.1353c-2.8933,8.4267 -4.4753,12.9034 -4.7459,13.4274h-0.2692c-5.1734,-2.3392 -8.1114,-3.7412 -8.8167,-4.2047v-0.1353c6.4171,-15.0842 9.761,-22.7695 10.0316,-23.0545z"/><path d="M227.44649,22.50425c6.7928,3.4936 10.557,5.5333 11.2911,6.1178c-0.9745,4.5588 -1.5517,6.9051 -1.7316,7.0404h-14.2148v0.2476l3.9816,4.9259l6.2516,-3.1942c0.6146,1.0637 1.4999,2.9235 2.6544,5.5779c-0.5398,0.18 -4.4753,0.7572 -11.808,1.7317c-6.0731,-4.0032 -9.132,-6.0875 -9.1766,-6.253c0.9745,-7.7818 1.5517,-11.6727 1.7317,-11.6727c6.3423,-2.699 10.0158,-4.2061 11.0206,-4.5214zM225.9854,27.94692c-0.1209,0.3008 -0.9155,1.4927 -2.3838,3.577c0,0.6291 0.8839,0.9443 2.653,0.9443c0,0.0907 1.2825,0.3081 3.8462,0.6521c0.7054,-0.9745 1.058,-1.5445 1.058,-1.7086c-0.226,-1.3344 -0.7125,-2.0023 -1.4625,-2.0023z"/><path d="M260.7572,22.48265l7.4896,5.1505c-0.524,8.5461 -0.8925,13.5396 -1.1012,14.9791c-0.8709,0.105 -3.5167,0.262 -7.9401,0.4721l-0.1569,-0.3152l-0.7874,-12.0095l-0.3153,-0.1584c-2.8645,0.6147 -4.8352,1.0796 -5.9148,1.3949c0.2995,5.113 0.4492,8.8095 0.4492,11.0882c-4.4682,1.2452 -6.9124,1.867 -7.3327,1.867c-2.9092,-12.8055 -4.363,-19.5681 -4.363,-20.2879c6.3279,-0.8248 9.761,-1.2365 10.3008,-1.2365v0.1569c0.1051,0.0749 0.2634,1.6353 0.4722,4.6783c5.8039,-3.8535 8.87,-5.7795 9.1996,-5.7795z"/><path d="M282.77681,22.77485l-3.0359,16.1034h0.1569l7.7372,-2.2715v-9.109c0.0302,-0.2101 0.1266,-0.3152 0.2922,-0.3152c5.8183,0.4045 9.0571,0.6075 9.7164,0.6075c0,0.105 0.0518,0.1569 0.1569,0.1569c0,2.5651 -0.809,7.8796 -2.4284,15.9478c0,0.4635 -2.3247,0.8162 -6.9728,1.0566c-0.2404,-0.285 -0.4419,-0.8925 -0.6074,-1.8224c-5.9522,1.2149 -9.3494,1.8224 -10.1886,1.8224c-4.7531,-3.5382 -7.1297,-5.3606 -7.1297,-5.4657c0.8104,-10.6304 1.664,-16.5539 1.664,-16.5539c3.7945,-0.105 10.6392,-0.1569 10.6392,-0.1569z"/></g><g fill="#ffffff" stroke="none" stroke-width="1.43947" stroke-linecap="butt"><path d="M74.7505,15.66685c4.2435,0.2994 6.3653,0.57 6.3653,0.8104c1.6352,4.3932 2.6314,7.1973 2.9912,8.4108h0.1353c0.3901,-0.8392 1.8814,-3.1481 4.4753,-6.9267h0.1354c4.0636,0.2547 6.0961,0.5326 6.0961,0.832l3.6649,25.0784c0,0.1497 -3.2086,0.5096 -9.6257,1.0796l-0.1353,-0.2706c-0.3599,-7.6162 -0.5398,-12.2729 -0.5398,-13.9672h-0.1354l-5.5549,4.8813h-0.1353c-0.1799,-0.0907 -1.4466,-2.0772 -3.8002,-5.9609h-0.1353c-2.8948,8.4267 -4.4753,12.9034 -4.7459,13.4274h-0.2692c-5.1734,-2.3392 -8.1128,-3.7412 -8.8167,-4.2047v-0.1353c6.4171,-15.0842 9.761,-22.7695 10.0302,-23.0545z"/><path d="M104.1257,22.48265c8.906,1.2293 13.3597,1.9865 13.3597,2.2715c3.508,3.0128 5.2627,4.625 5.2627,4.8352c-1.425,4.4537 -2.234,7.1599 -2.4284,8.12c1.4237,3.164 2.2341,5.0526 2.4284,5.6672c0,0.18 -2.3247,0.6593 -6.9728,1.4395c-0.059,-0.2548 -0.4865,-0.8248 -1.2811,-1.7087c-6.4186,1.2294 -9.8747,1.844 -10.3685,1.844l-3.4187,-9.2443l7.5342,-3.9815c1.2149,0.1957 3.1106,0.2936 5.6902,0.2936c0,-0.3311 0.0446,-1.3272 0.1353,-2.9926c-0.4347,0 -4.3184,0.285 -11.6511,0.855l-0.1353,-0.2922c1.0206,-4.7387 1.6353,-7.1067 1.8454,-7.1067zM108.80399,35.70705c0,0.1656 0.4793,1.9188 1.4395,5.2627h0.1338c1.8901,-1.2293 2.8343,-2.0383 2.8343,-2.4283l0.2923,-2.4068c-0.3599,0 -1.9261,-0.1425 -4.6999,-0.4276z"/><path d="M128.01079,13.46293l8.8398,1.3949c-1.1098,4.2435 -1.8368,6.3653 -2.1822,6.3653c-4.6481,-0.3152 -6.9714,-0.6233 -6.9714,-0.9227v-6.5222c0.0446,-0.2102 0.1497,-0.3153 0.3138,-0.3153zM125.5378,24.16835h0.1339c6.8375,1.2451 10.2562,1.972 10.2562,2.1822c-1.9634,11.1256 -3.1553,17.3254 -3.5756,18.6008h-7.1297c-0.2102,0 -0.3153,-0.1051 -0.3153,-0.3152z"/><path d="M157.56598,22.48265l7.4896,5.1505c-0.5255,8.5461 -0.8925,13.5396 -1.1027,14.9791c-0.8694,0.105 -3.5166,0.262 -7.9401,0.4721l-0.1569,-0.3152l-0.7874,-12.0095l-0.3152,-0.1584c-2.8631,0.6147 -4.8352,1.0796 -5.9148,1.3949c0.2994,5.113 0.4506,8.8095 0.4506,11.0882c-4.4696,1.2452 -6.9138,1.867 -7.3327,1.867c-2.9092,-12.8055 -4.363,-19.5681 -4.363,-20.2879c6.3264,-0.8248 9.761,-1.2365 10.3008,-1.2365v0.1569c0.1051,0.0749 0.262,1.6353 0.4722,4.6783c5.8025,-3.8535 8.8685,-5.7795 9.1996,-5.7795z"/><path d="M188.7391,15.66685c4.2436,0.2994 6.3654,0.57 6.3654,0.8104c1.6338,4.3932 2.6313,7.1973 2.9912,8.4108h0.1353c0.3886,-0.8392 1.8814,-3.1481 4.4753,-6.9267h0.1353c4.0636,0.2547 6.0947,0.5326 6.0947,0.832l3.6663,25.0784c0,0.1497 -3.2085,0.5096 -9.6257,1.0796l-0.1353,-0.2706c-0.3599,-7.6162 -0.5398,-12.2729 -0.5398,-13.9672h-0.1353l-5.5549,4.8813h-0.1353c-0.18,-0.0907 -1.4467,-2.0772 -3.8017,-5.9609h-0.1353c-2.8933,8.4267 -4.4753,12.9034 -4.7459,13.4274h-0.2692c-5.1734,-2.3392 -8.1114,-3.7412 -8.8167,-4.2047v-0.1353c6.4171,-15.0842 9.761,-22.7695 10.0316,-23.0545z"/><path d="M227.44649,22.50425c6.7928,3.4936 10.557,5.5333 11.2911,6.1178c-0.9745,4.5588 -1.5517,6.9051 -1.7316,7.0404h-14.2148v0.2476l3.9816,4.9259l6.2516,-3.1942c0.6146,1.0637 1.4999,2.9235 2.6544,5.5779c-0.5398,0.18 -4.4753,0.7572 -11.808,1.7317c-6.0731,-4.0032 -9.132,-6.0875 -9.1766,-6.253c0.9745,-7.7818 1.5517,-11.6727 1.7317,-11.6727c6.3423,-2.699 10.0158,-4.2061 11.0206,-4.5214zM225.9854,27.94692c-0.1209,0.3008 -0.9155,1.4927 -2.3838,3.577c0,0.6291 0.8839,0.9443 2.653,0.9443c0,0.0907 1.2825,0.3081 3.8462,0.6521c0.7054,-0.9745 1.058,-1.5445 1.058,-1.7086c-0.226,-1.3344 -0.7125,-2.0023 -1.4625,-2.0023z"/><path d="M260.7572,22.48265l7.4896,5.1505c-0.524,8.5461 -0.8925,13.5396 -1.1012,14.9791c-0.8709,0.105 -3.5167,0.262 -7.9401,0.4721l-0.1569,-0.3152l-0.7874,-12.0095l-0.3153,-0.1584c-2.8645,0.6147 -4.8352,1.0796 -5.9148,1.3949c0.2995,5.113 0.4492,8.8095 0.4492,11.0882c-4.4682,1.2452 -6.9124,1.867 -7.3327,1.867c-2.9092,-12.8055 -4.363,-19.5681 -4.363,-20.2879c6.3279,-0.8248 9.761,-1.2365 10.3008,-1.2365v0.1569c0.1051,0.0749 0.2634,1.6353 0.4722,4.6783c5.8039,-3.8535 8.87,-5.7795 9.1996,-5.7795z"/><path d="M282.61991,22.48265l0.1569,0.2922l-3.0359,16.1034h0.1569l7.7372,-2.2715v-9.109c0.0302,-0.2101 0.1266,-0.3152 0.2922,-0.3152c5.8183,0.4045 9.0571,0.6075 9.7164,0.6075c0,0.105 0.0518,0.1569 0.1569,0.1569c0,2.5651 -0.809,7.8796 -2.4284,15.9478c0,0.4635 -2.3247,0.8162 -6.9728,1.0566c-0.2404,-0.285 -0.4419,-0.8925 -0.6074,-1.8224c-5.9522,1.2149 -9.3494,1.8224 -10.1886,1.8224c-4.7531,-3.5382 -7.1297,-5.3606 -7.1297,-5.4657c0.8104,-10.6304 1.32,-16.1494 1.5302,-16.5539h0.1338c3.7945,-0.105 7.2881,-0.2547 10.4823,-0.4491z"/></g><g><path d="M416.19025,35.30859l3.84017,10.93631l-4.29757,0.66381l-0.67855,-2.90252l-3.35268,0.63994l-0.55387,2.23894l-0.06534,0.00164l-3.99634,-0.80859l3.35949,-11.5354zM424.11366,34.71094l0.20101,8.23273h0.05747l5.71832,-1.90369l0.067,0.06307l-0.19168,4.55208l-8.89818,0.79762l-1.88709,-11.31553l4.87548,-0.48956zM440.63758,36.34163l2.59344,11.30162l-4.36041,0.17216l-0.34871,-2.96058l-3.41594,0.25619l-0.80548,2.16195l-0.06514,-0.0054l-3.8941,-1.25606l4.65373,-11.08089v-0.00039zM406.06336,38.27314l0.00455,0.0558l-0.67998,3.70489l-1.78295,1.28033l3.56197,2.35074l-3.50162,2.01445l-3.17944,-3.94077l-0.10643,0.00851l0.1977,3.28027l-0.13568,0.43107l-2.67121,0.21158l-0.97849,-5.13271l-0.92955,-5.19247l6.16287,-1.68379zM449.85776,40.4382l2.57516,-3.42279l0.0637,0.01018l3.11368,2.57559l-0.01661,0.1143l-3.49578,2.91434l4.53944,2.79546l-3.15913,3.02742l-3.0245,-3.59373l-2.89525,4.04346l-0.06347,-0.01018l-3.47237,-2.07834l0.00934,-0.06661l3.73085,-3.78247l-4.34092,-2.94879l2.67682,-3.2898zM394.7016,38.06195l-0.99031,3.06993l-0.05623,0.00684l-2.78757,-0.87271l-2.0431,1.86947l0.69037,2.92325l2.95105,0.80426l1.78482,-2.18707l2.01635,2.52893l0.02115,0.17219l-3.87727,2.79111l-5.56047,-1.23281l-2.3719,-5.44451l1.9987,-3.71694l3.80614,-1.96778zM463.35448,42.92625l3.99075,-2.47332l2.78138,3.64267l-6.46344,3.29684l-1.03763,4.48675l-5.08667,-1.86135l2.32022,-4.56704l-2.30198,-6.70843l5.12878,-0.7447zM412.76704,38.44572l-0.34559,2.7154l2.02919,-0.04958l-0.82208,-3.03381zM399.78744,38.52704l0.38254,4.04117l0.05351,-0.00416l2.10883,-0.88597l0.3176,-2.41568l-2.86682,-0.79035zM436.86962,39.07115l-0.65199,2.65877l2.02919,0.18067l-0.47689,-3.10726l-0.20435,-0.01244l-0.15703,-0.00039zM382.47213,39.92042l-0.57814,3.09108l-0.06514,0.02014l-3.6796,-0.50721l-0.62523,1.7147l7.49901,1.23366l-1.21251,4.80847l-5.12606,2.08564l-4.58071,-1.30751l-0.01991,-0.06432l0.73454,-2.81662l0.12114,-0.03736l4.23181,0.84036l0.80508,-1.75993l-7.19284,-1.26789l-0.017,-0.05498l0.86918,-4.0679l4.86948,-2.52041z" fill="#3bb2ff" stroke="url(#color-8)" stroke-width="3.5" stroke-linecap="butt"/><path d="M408.04715,11.24805l-1.00236,1.88833h-0.04667l-2.30529,-1.0652l-0.75531,0.987l4.65767,2.30054l-1.76406,2.87573l-3.77565,0.32673l-2.73324,-1.76448v-0.04585l1.04945,-1.67986h0.08672l2.59943,1.39213l0.88205,-0.97996l-4.45024,-2.26173v-0.0392l1.38965,-2.46378l3.69558,-0.66008zM425.41224,12.16287l-0.76173,2.68615l-1.60372,1.31995l-2.23206,-0.12385l-0.08672,2.35261l-2.36564,0.16345l-0.25393,-1.4052l-0.46113,-6.27429l4.85143,-0.82333zM433.52009,10.91447l-0.64163,2.29409l-3.36116,-0.90195l-0.6885,1.48383h0.0471l3.03384,-0.26821l0.04647,0.0915l-0.41407,2.06508l-2.57268,-0.35931l0.04002,1.12434v0.22839l0.0467,0.0915l3.45472,-0.27426l0.3209,2.02587l-0.04667,0.04585l-6.16121,-0.40533l-0.96919,-2.69901l1.2432,-5.39846zM441.16035,12.11058v0.03923l-0.72852,2.55545l-1.40998,0.79719l2.52578,1.84314l-2.73966,1.21559l-2.14495,-2.93467h-0.08027l-0.04689,2.30738l-0.12694,0.29415h-2.01117l-0.42793,-3.64722l-0.38771,-3.68602l4.71118,-0.83642zM412.6934,10.2934l-0.41404,4.86928l1.86404,0.2483l0.54827,-4.3069l2.7932,0.60781l-0.60136,4.45708l-2.06508,2.37272l-4.08267,-0.70592l-1.5973,-1.72551l0.29415,-5.91497zM436.44913,11.94048l0.04647,2.84983h0.04025l1.6307,-0.50325l0.38086,-1.67321l-2.09828,-0.71238zM420.688,14.63992l1.64374,-0.33338l0.38086,-1.60765l-2.0246,-0.78435z" fill="#ececec" stroke="url(#color-9)" stroke-width="3.5" stroke-linecap="butt"/><g stroke-width="3.5" stroke-linecap="butt"><path d="M440.62469,21.58758l4.103,1.35977l2.38847,3.73436l-1.5749,4.69853l-4.79416,1.14469l-4.03309,-2.65069l-0.13129,-4.88775l-0.06101,-0.19767l4.0418,-3.20125zM440.371,25.60635l-0.18398,2.91725l2.24866,0.49911l0.80466,-2.67662l-2.86934,-0.8001z" fill="#9404e4" stroke="url(#color-10)"/><path d="M435.5675,22.52564l-1.56596,10.08518l-2.82556,-0.24915l0.62956,-10.5934z" fill="#fbc211" stroke="url(#color-11)"/><path d="M429.95931,24.17768v0.05145l-0.9538,3.36492l-1.84582,1.04985l3.30682,2.42685l-3.58686,1.60041l-2.80814,-3.86358h-0.10496l-0.0612,3.03734l-0.16617,0.38731h-2.63346l-0.5599,-4.80185l-0.50718,-4.8533l6.16763,-1.1013zM423.79145,23.95406l0.06121,3.75178h0.05269l2.13477,-0.66276l0.49849,-2.20282l-2.74716,-0.93807z" fill="#0492d0" stroke="url(#color-12)"/><path d="M416.10119,22.31881l3.34168,9.85303l-4.03286,0.49931l-0.56838,-2.60733l-3.14938,0.49889l-0.56881,1.98812h-0.0612l-3.71818,-0.80921l3.4035,-10.23142zM412.82966,25.04687l-0.38499,2.41791h1.89829l-0.6997,-2.72784z" fill="#10d004" stroke="url(#color-13)"/><path d="M400.04754,21.77677l1.16332,3.21867h0.05269l1.74086,-2.65068h0.05227l2.37105,0.31861l1.42615,9.5948l-3.74451,0.41299l-0.05269,-0.10329l-0.20972,-5.34371h-0.05227l-2.16113,1.86698h-0.05229l-1.47843,-2.2802h-0.05269l-1.84602,5.1373h-0.10473l-3.42944,-1.60912v-0.05165l3.90176,-8.82063z" fill="#e10404" stroke="url(#color-14)"/></g><path d="M408.06129,11.14905l-1.00236,1.88833h-0.04667l-2.30529,-1.0652l-0.75531,0.987l4.65767,2.30054l-1.76406,2.87573l-3.77565,0.32673l-2.73324,-1.76448v-0.04585l1.04945,-1.67986h0.08672l2.59943,1.39213l0.88204,-0.97996l-4.45023,-2.26173v-0.0392l1.38964,-2.46378l3.69558,-0.66008zM425.42638,12.06388l-0.76173,2.68615l-1.60372,1.31995l-2.23206,-0.12385l-0.08672,2.35261l-2.36564,0.16345l-0.25393,-1.4052l-0.46113,-6.27429l4.85143,-0.82333zM433.53423,10.81548l-0.64164,2.29409l-3.36116,-0.90195l-0.6885,1.48383h0.04709l3.03384,-0.26821l0.04647,0.09149l-0.41407,2.06508l-2.57268,-0.35931l0.04002,1.12434v0.22839l0.04669,0.0915l3.45472,-0.27426l0.3209,2.02587l-0.04667,0.04585l-6.16121,-0.40532l-0.96918,-2.69902l1.24319,-5.39846zM441.17449,12.01158v0.03923l-0.72852,2.55545l-1.40998,0.79719l2.52578,1.84314l-2.73966,1.21559l-2.14495,-2.93467h-0.08027l-0.04689,2.30738l-0.12694,0.29415h-2.01117l-0.42793,-3.64721l-0.38771,-3.68602l4.71118,-0.83642zM412.70754,10.19441l-0.41404,4.86928l1.86404,0.2483l0.54827,-4.3069l2.7932,0.60781l-0.60136,4.45708l-2.06508,2.37272l-4.08267,-0.70592l-1.5973,-1.72551l0.29415,-5.91497zM436.46328,11.84149l0.04647,2.84983h0.04025l1.6307,-0.50325l0.38086,-1.67321l-2.09828,-0.71237zM420.70214,14.54093l1.64374,-0.33338l0.38086,-1.60766l-2.0246,-0.78435z" fill="url(#color-15)" stroke="none" stroke-width="1.19633" stroke-linecap="butt"/><path d="M400.07583,21.66366l1.16332,3.21867h0.05269l1.74086,-2.65068h0.05227l2.37105,0.31861l1.42615,9.5948l-3.74451,0.41299l-0.05269,-0.10329l-0.20972,-5.34371h-0.05227l-2.16113,1.86698h-0.05229l-1.47843,-2.2802h-0.05269l-1.84602,5.13729h-0.10473l-3.42944,-1.60912v-0.05164l3.90176,-8.82063z" fill="url(#color-16)" stroke="none" stroke-width="1.57068" stroke-linecap="butt"/><path d="M416.12948,22.20571l3.34167,9.85303l-4.03286,0.49931l-0.56838,-2.60732l-3.14938,0.49889l-0.56881,1.98812h-0.0612l-3.71818,-0.80921l3.4035,-10.23143zM412.85794,24.93377l-0.38499,2.41791h1.89829l-0.6997,-2.72784z" fill="url(#color-17)" stroke="none" stroke-width="1.57068" stroke-linecap="butt"/><path d="M429.98758,24.06457v0.05145l-0.95379,3.36492l-1.84583,1.04985l3.30683,2.42685l-3.58686,1.60041l-2.80813,-3.86358h-0.10496l-0.06121,3.03734l-0.16616,0.38732h-2.63346l-0.55989,-4.80186l-0.50718,-4.8533l6.16763,-1.1013zM423.81975,23.84096l0.06121,3.75178h0.05269l2.13477,-0.66276l0.49849,-2.20282l-2.74716,-0.93807z" fill="url(#color-18)" stroke="none" stroke-width="1.57068" stroke-linecap="butt"/><path d="M435.59578,22.41249l-1.56596,10.08517l-2.82556,-0.24915l0.62956,-10.5934z" fill="url(#color-19)" stroke="none" stroke-width="1.57068" stroke-linecap="butt"/><path d="M440.65297,21.47447l4.103,1.35977l2.38847,3.73436l-1.5749,4.69853l-4.79416,1.14469l-4.03309,-2.65069l-0.13129,-4.88775l-0.06101,-0.19767l4.0418,-3.20125zM440.39928,25.49319l-0.18398,2.91725l2.24866,0.49912l0.80466,-2.67662l-2.86934,-0.80011z" fill="url(#color-20)" stroke="none" stroke-width="1.57068" stroke-linecap="butt"/><path d="M416.20439,35.28031l3.84016,10.9363l-4.29756,0.66381l-0.67855,-2.90252l-3.35268,0.63994l-0.55387,2.23894l-0.06533,0.00164l-3.99635,-0.80859l3.35949,-11.5354zM424.1278,34.68265l0.20101,8.23273h0.05747l5.71831,-1.9037l0.067,0.06307l-0.19168,4.55208l-8.89818,0.79762l-1.88709,-11.31553l4.87548,-0.48956zM440.65172,36.31336l2.59344,11.30162l-4.36041,0.17216l-0.34871,-2.96058l-3.41594,0.25619l-0.80548,2.16195l-0.06514,-0.0054l-3.8941,-1.25606l4.65373,-11.08089v-0.0004zM406.07751,38.24486l0.00455,0.0558l-0.67999,3.70489l-1.78295,1.28033l3.56197,2.35074l-3.50161,2.01445l-3.17944,-3.94077l-0.10643,0.00851l0.1977,3.28027l-0.13568,0.43107l-2.67122,0.21158l-0.97849,-5.13271l-0.92956,-5.19247l6.16287,-1.68379zM449.8719,40.40992l2.57516,-3.42279l0.0637,0.01018l3.11368,2.57559l-0.0166,0.1143l-3.49579,2.91434l4.53944,2.79547l-3.15913,3.02742l-3.0245,-3.59373l-2.89525,4.04346l-0.06347,-0.01018l-3.47237,-2.07834l0.00933,-0.06661l3.73085,-3.78247l-4.34092,-2.94879l2.67681,-3.2898zM394.71574,38.03367l-0.99031,3.06993l-0.05623,0.00684l-2.78757,-0.87271l-2.0431,1.86947l0.69037,2.92325l2.95105,0.80426l1.78482,-2.18707l2.01635,2.52893l0.02115,0.17219l-3.87727,2.79111l-5.56047,-1.23281l-2.3719,-5.44451l1.9987,-3.71694l3.80614,-1.96778zM463.36862,42.89797l3.99075,-2.47332l2.78138,3.64267l-6.46344,3.29684l-1.03763,4.48675l-5.08666,-1.86135l2.32022,-4.56704l-2.30198,-6.70843l5.12878,-0.7447zM412.78121,38.41743l-0.34559,2.7154l2.02918,-0.04958l-0.82208,-3.0338zM399.80158,38.49875l0.38253,4.04117l0.05351,-0.00416l2.10883,-0.88597l0.31759,-2.41568l-2.86682,-0.79035zM436.88378,39.04287l-0.65198,2.65877l2.02918,0.18067l-0.47689,-3.10726l-0.20434,-0.01244l-0.15703,-0.00039zM382.48627,39.89213l-0.57814,3.09108l-0.06514,0.02014l-3.6796,-0.50721l-0.62523,1.7147l7.49901,1.23366l-1.21251,4.80847l-5.12607,2.08564l-4.58071,-1.30751l-0.01991,-0.06432l0.73454,-2.81662l0.12114,-0.03736l4.23181,0.84035l0.80508,-1.75993l-7.19284,-1.26789l-0.017,-0.05498l0.86917,-4.0679l4.86948,-2.52041z" fill="url(#color-21)" stroke="none" stroke-width="1.73862" stroke-linecap="butt"/><path d="M395.10879,20.41407l0.21309,-1.47571l0.28829,1.56084l0.43867,0.87975l0.40109,0.56759l1.40384,0.25542l-1.34117,0.525l-0.58909,0.85138l-0.22562,0.89395l-0.27576,1.02162l-0.27573,-0.99326l-0.41365,-0.99328l-0.56403,-0.73785l-1.12808,-0.39729l1.15314,-0.39733l0.6267,-0.66689z" fill="url(#color-22)" stroke="none" stroke-width="0.94667" stroke-linecap="round"/><path d="M445.61883,27.9806l0.27073,-1.87504l0.3663,1.9832l0.55738,1.11781l0.50964,0.72117l1.78369,0.32453l-1.70407,0.66706l-0.74849,1.08175l-0.28668,1.13583l-0.35035,1.29809l-0.35037,-1.26203l-0.52556,-1.26203l-0.71664,-0.93751l-1.43332,-0.50483l1.46516,-0.5048l0.79629,-0.84737z" fill="url(#color-23)" stroke="none" stroke-width="1.20282" stroke-linecap="round"/><path d="M421.69728,36.2997l0.16639,-1.1524l0.22514,1.21889l0.34257,0.687l0.31324,0.44323l1.09623,0.19946l-1.0473,0.40997l-0.46003,0.66486l-0.1762,0.69809l-0.21532,0.79779l-0.21535,-0.77564l-0.323,-0.77564l-0.44045,-0.57619l-0.88091,-0.31027l0.90048,-0.31026l0.48942,-0.52078z" fill="url(#color-24)" stroke="none" stroke-width="0.73926" stroke-linecap="round"/><path d="M387.15744,43.53132l-0.03351,-1.16038l0.36943,1.1769l0.38782,0.63623l0.32698,0.39888l0.9426,0.05937l-0.81083,0.53707l-0.28379,0.71522l-0.04248,0.71243l-0.06016,0.81595l-0.29514,-0.73989l-0.38477,-0.72634l-0.45279,-0.51436l-0.77982,-0.19601l0.70349,-0.42001l0.32973,-0.5765z" fill="url(#color-25)" stroke="none" stroke-width="0.69053" stroke-linecap="round"/><path d="M461.09695,47.25391l0.39158,-0.95841l-0.02328,1.10376l0.19705,0.67057l0.21696,0.45333l1.02855,0.41845l-1.1022,0.11913l-0.58063,0.47123l-0.31066,0.56366l-0.3687,0.64104l-0.05541,-0.7186l-0.16031,-0.74278l-0.31451,-0.59678l-0.79666,-0.46588l0.93926,-0.0659l0.5806,-0.34014z" fill="url(#color-26)" stroke="none" stroke-width="0.69347" stroke-linecap="round"/><path d="M440.23798,43.50705l0.08771,-1.0294l0.27457,1.06569l0.35227,0.58821l0.31171,0.37421l1.01514,0.11333l-0.93612,0.42317l-0.384,0.61485l-0.12216,0.62795l-0.15245,0.71842l-0.24072,-0.67399l-0.33934,-0.66783l-0.43568,-0.48452l-0.82415,-0.2238l0.80723,-0.32645l0.41899,-0.4891z" fill="url(#color-27)" stroke="none" stroke-width="0.66563" stroke-linecap="round"/><path d="M432.75658,8.35418l0.15669,-1.08515l0.21199,1.14773l0.3226,0.64692l0.29494,0.41735l1.03225,0.18783l-0.98618,0.38607l-0.43318,0.62602l-0.16591,0.65736l-0.20276,0.75123l-0.20277,-0.73036l-0.30416,-0.73038l-0.41475,-0.54259l-0.82952,-0.29214l0.84796,-0.29217l0.46082,-0.49041z" fill="url(#color-28)" stroke="none" stroke-width="0.69612" stroke-linecap="round"/><path d="M411.30089,35.87135l-0.08485,-0.08485" fill="none" stroke="#4fa3da" stroke-width="0.75" stroke-linecap="round"/><path d="M415.38783,37.41279l0.08485,0.08485" fill="none" stroke="#4fa3da" stroke-width="0.75" stroke-linecap="round"/><path d="M410.93323,38.40271l0.08485,0.08485" fill="none" stroke="#4fa3da" stroke-width="0.75" stroke-linecap="round"/><path d="M411.65444,40.82093l-0.08485,-0.08485" fill="none" stroke="#54a7dc" stroke-width="0.75" stroke-linecap="round"/><path d="M409.44836,41.93812l0.08485,0.08485" fill="none" stroke="#72c2e7" stroke-width="0.75" stroke-linecap="round"/><path d="M410.15543,44.48362l0.08485,0.08485" fill="none" stroke="#88d6f0" stroke-width="0.75" stroke-linecap="round"/><path d="M408.17559,45.40283l0.08485,0.08485" fill="none" stroke="#94e1f4" stroke-width="0.75" stroke-linecap="round"/><path d="M413.28073,42.51793l-0.08485,-0.08485" fill="none" stroke="#72c2e7" stroke-width="0.75" stroke-linecap="round"/><path d="M415.52926,39.60474l0.08485,0.08485" fill="none" stroke="#54a7dc" stroke-width="0.75" stroke-linecap="round"/><path d="M417.22626,41.7967l0.08485,0.08485" fill="none" stroke="#72c2e7" stroke-width="0.75" stroke-linecap="round"/><path d="M415.68481,43.50784l-0.08485,-0.08485" fill="none" stroke="#88d6f0" stroke-width="0.75" stroke-linecap="round"/><path d="M416.87271,45.68566l0.08485,0.08485" fill="none" stroke="#94e1f4" stroke-width="0.75" stroke-linecap="round"/><path d="M418.14545,44.48362l0.08485,0.08485" fill="none" stroke="#94e1f4" stroke-width="0.75" stroke-linecap="round"/><path d="M416.88685,44.49776l-0.08485,-0.08485" fill="none" stroke="#88d6f0" stroke-width="0.75" stroke-linecap="round"/><path d="M410.8625,45.47354l0.08485,0.08485" fill="none" stroke="#94e1f4" stroke-width="0.75" stroke-linecap="round"/><path d="M403.87654,46.19476l-0.08485,-0.08485" fill="none" stroke="#94e1f4" stroke-width="0.75" stroke-linecap="round"/><path d="M405.43212,45.62909l-0.08485,-0.08485" fill="none" stroke="#94e1f4" stroke-width="0.75" stroke-linecap="round"/><path d="M403.0139,44.76645l0.08485,0.08485" fill="none" stroke="#88d6f0" stroke-width="0.75" stroke-linecap="round"/><path d="M401.68459,44.07351l-0.08485,-0.08485" fill="none" stroke="#88d6f0" stroke-width="0.75" stroke-linecap="round"/><path d="M403.38158,42.58864l-0.08485,-0.08485" fill="none" stroke="#72c2e7" stroke-width="0.75" stroke-linecap="round"/><path d="M398.99766,43.64926l-0.08485,-0.08485" fill="none" stroke="#88d6f0" stroke-width="0.75" stroke-linecap="round"/><path d="M398.00775,45.06343l-0.08485,-0.08485" fill="none" stroke="#88d6f0" stroke-width="0.75" stroke-linecap="round"/><path d="M399.63404,46.05334l-0.08485,-0.08485" fill="none" stroke="#94e1f4" stroke-width="0.75" stroke-linecap="round"/><path d="M398.36128,46.68971l-0.08485,-0.08485" fill="none" stroke="#94e1f4" stroke-width="0.75" stroke-linecap="round"/><path d="M390.78136,46.18062l0.08485,0.08485" fill="none" stroke="#8ad8f0" stroke-width="0.75" stroke-linecap="round"/><path d="M390.15912,47.3968l-0.08485,-0.08485" fill="none" stroke="#9ae6f6" stroke-width="0.75" stroke-linecap="round"/><path d="M393.05818,46.26547l-0.08485,-0.08485" fill="none" stroke="#8ad8f0" stroke-width="0.75" stroke-linecap="round"/><path d="M395.30669,45.75636l0.08485,0.08485" fill="none" stroke="#8ad8f0" stroke-width="0.75" stroke-linecap="round"/><path d="M394.03395,46.67558l0.08485,0.08485" fill="none" stroke="#9ae6f6" stroke-width="0.75" stroke-linecap="round"/><path d="M392.98746,47.67963l-0.08485,-0.08485" fill="none" stroke="#9ae6f6" stroke-width="0.75" stroke-linecap="round"/><path d="M378.49227,46.33617l-0.08485,-0.08485" fill="none" stroke="#7ccbeb" stroke-width="0.75" stroke-linecap="round"/><path d="M381.44787,45.68566l0.08485,0.08485" fill="none" stroke="#8ad8f0" stroke-width="0.75" stroke-linecap="round"/><path d="M380.25997,46.68971l-0.08485,-0.08485" fill="none" stroke="#8ad8f0" stroke-width="0.75" stroke-linecap="round"/><path d="M381.51858,47.38266l0.08485,0.08485" fill="none" stroke="#93e0f4" stroke-width="0.75" stroke-linecap="round"/><path d="M380.45796,48.51399l0.08485,0.08485" fill="none" stroke="#9ae6f6" stroke-width="0.75" stroke-linecap="round"/><path d="M381.7307,49.57461l0.08485,0.08485" fill="none" stroke="#b0faff" stroke-width="0.75" stroke-linecap="round"/><path d="M379.963,50.21098l0.08485,0.08485" fill="none" stroke="#b0faff" stroke-width="0.75" stroke-linecap="round"/><path d="M378.35084,50.08371l-0.08485,-0.08485" fill="none" stroke="#b0faff" stroke-width="0.75" stroke-linecap="round"/><path d="M378.28014,51.35646l-0.08485,-0.08485" fill="none" stroke="#b0faff" stroke-width="0.75" stroke-linecap="round"/><path d="M376.49829,50.77665l0.08485,0.08485" fill="none" stroke="#b0faff" stroke-width="0.75" stroke-linecap="round"/><path d="M375.36697,49.36249l0.08485,0.08485" fill="none" stroke="#b0faff" stroke-width="0.75" stroke-linecap="round"/><path d="M376.93669,49.1645l-0.08485,-0.08485" fill="none" stroke="#b0faff" stroke-width="0.75" stroke-linecap="round"/><path d="M382.79133,48.93824l0.08485,0.08485" fill="none" stroke="#b0faff" stroke-width="0.75" stroke-linecap="round"/><path d="M383.49841,46.32203l0.08485,0.08485" fill="none" stroke="#8ad8f0" stroke-width="0.75" stroke-linecap="round"/><path d="M382.87618,47.60892l-0.08485,-0.08485" fill="none" stroke="#93e0f4" stroke-width="0.75" stroke-linecap="round"/><path d="M421.11522,42.85733l0.08485,0.08485" fill="none" stroke="#72c2e7" stroke-width="0.75" stroke-linecap="round"/><path d="M423.44857,42.71591l0.08485,0.08485" fill="none" stroke="#72c2e7" stroke-width="0.75" stroke-linecap="round"/><path d="M422.11926,45.48767l-0.08485,-0.08485" fill="none" stroke="#94e1f4" stroke-width="0.75" stroke-linecap="round"/><path d="M423.46272,44.49776l-0.08485,-0.08485" fill="none" stroke="#88d6f0" stroke-width="0.75" stroke-linecap="round"/><path d="M425.14558,44.97858l0.08485,0.08485" fill="none" stroke="#94e1f4" stroke-width="0.75" stroke-linecap="round"/><path d="M426.20621,43.06945l0.08485,0.08485" fill="none" stroke="#72c2e7" stroke-width="0.75" stroke-linecap="round"/><path d="M428.83655,42.37651l-0.08485,-0.08485" fill="none" stroke="#72c2e7" stroke-width="0.75" stroke-linecap="round"/><path d="M428.90726,44.21493l-0.08485,-0.08485" fill="none" stroke="#88d6f0" stroke-width="0.75" stroke-linecap="round"/><path d="M427.77593,45.20484l-0.08485,-0.08485" fill="none" stroke="#94e1f4" stroke-width="0.75" stroke-linecap="round"/><path d="M432.15984,45.55839l-0.08485,-0.08485" fill="none" stroke="#94e1f4" stroke-width="0.75" stroke-linecap="round"/><path d="M432.08912,43.64926l-0.08485,-0.08485" fill="none" stroke="#88d6f0" stroke-width="0.75" stroke-linecap="round"/><path d="M433.41845,41.7967l0.08485,0.08485" fill="none" stroke="#72c2e7" stroke-width="0.75" stroke-linecap="round"/><path d="M433.5033,46.12405l-0.08485,-0.08485" fill="none" stroke="#94e1f4" stroke-width="0.75" stroke-linecap="round"/><path d="M436.3882,43.21087l0.08485,0.08485" fill="none" stroke="#88d6f0" stroke-width="0.75" stroke-linecap="round"/><path d="M435.20029,43.79068l-0.08485,-0.08485" fill="none" stroke="#88d6f0" stroke-width="0.75" stroke-linecap="round"/><path d="M445.87723,46.90184l-0.08485,-0.08485" fill="none" stroke="#9be7f7" stroke-width="0.75" stroke-linecap="round"/><path d="M447.22069,45.55839l-0.08485,-0.08485" fill="none" stroke="#94e1f4" stroke-width="0.75" stroke-linecap="round"/><path d="M447.29141,47.11396l-0.08485,-0.08485" fill="none" stroke="#9be7f7" stroke-width="0.75" stroke-linecap="round"/><path d="M448.12577,44.27149l0.08485,0.08485" fill="none" stroke="#88d6f0" stroke-width="0.75" stroke-linecap="round"/><path d="M449.75206,44.27149l0.08485,0.08485" fill="none" stroke="#88d6f0" stroke-width="0.75" stroke-linecap="round"/><path d="M451.94401,44.62503l0.08485,0.08485" fill="none" stroke="#94e1f4" stroke-width="0.75" stroke-linecap="round"/><path d="M450.67125,43.4937l0.08485,0.08485" fill="none" stroke="#88d6f0" stroke-width="0.75" stroke-linecap="round"/><path d="M452.80665,46.5483l-0.08485,-0.08485" fill="none" stroke="#9be7f7" stroke-width="0.75" stroke-linecap="round"/><path d="M454.13596,46.10991l0.08485,0.08485" fill="none" stroke="#9be7f7" stroke-width="0.75" stroke-linecap="round"/><path d="M453.86727,44.92201l-0.08485,-0.08485" fill="none" stroke="#94e1f4" stroke-width="0.75" stroke-linecap="round"/><path d="M462.40882,46.18062l0.08485,0.08485" fill="none" stroke="#94e1f4" stroke-width="0.75" stroke-linecap="round"/><path d="M460.4997,45.40283l0.08485,0.08485" fill="none" stroke="#94e1f4" stroke-width="0.75" stroke-linecap="round"/><path d="M460.51384,43.43713l-0.08485,-0.08485" fill="none" stroke="#72c2e7" stroke-width="0.75" stroke-linecap="round"/><path d="M462.19672,42.6452l0.08485,0.08485" fill="none" stroke="#72c2e7" stroke-width="0.75" stroke-linecap="round"/><path d="M463.46945,44.83716l0.08485,0.08485" fill="none" stroke="#94e1f4" stroke-width="0.75" stroke-linecap="round"/><path d="M466.17052,43.0836l-0.08485,-0.08485" fill="none" stroke="#72c2e7" stroke-width="0.75" stroke-linecap="round"/><path d="M467.64124,41.72599l0.08485,0.08485" fill="none" stroke="#72c2e7" stroke-width="0.75" stroke-linecap="round"/><path d="M468.0655,43.42299l0.08485,0.08485" fill="none" stroke="#72c2e7" stroke-width="0.75" stroke-linecap="round"/><path d="M465.95839,44.70988l-0.08485,-0.08485" fill="none" stroke="#94e1f4" stroke-width="0.75" stroke-linecap="round"/><path d="M461.1361,40.02899l0.08485,0.08485" fill="none" stroke="#54a7dc" stroke-width="0.75" stroke-linecap="round"/><path d="M458.60473,39.33606l-0.08485,-0.08485" fill="none" stroke="#54a7dc" stroke-width="0.75" stroke-linecap="round"/><path d="M445.45298,39.97243l-0.08485,-0.08485" fill="none" stroke="#54a7dc" stroke-width="0.75" stroke-linecap="round"/><path d="M446.28734,38.19059l0.08485,0.08485" fill="none" stroke="#4fa3da" stroke-width="0.75" stroke-linecap="round"/><path d="M448.05506,40.87747l0.08485,0.08485" fill="none" stroke="#72c2e7" stroke-width="0.75" stroke-linecap="round"/><path d="M449.46922,42.36237l0.08485,0.08485" fill="none" stroke="#72c2e7" stroke-width="0.75" stroke-linecap="round"/><path d="M451.39249,40.5381l-0.08485,-0.08485" fill="none" stroke="#54a7dc" stroke-width="0.75" stroke-linecap="round"/><path d="M453.01878,38.69968l-0.08485,-0.08485" fill="none" stroke="#54a7dc" stroke-width="0.75" stroke-linecap="round"/><path d="M453.42889,40.24112l0.08485,0.08485" fill="none" stroke="#54a7dc" stroke-width="0.75" stroke-linecap="round"/><path d="M438.87713,40.89164l-0.08485,-0.08485" fill="none" stroke="#72c2e7" stroke-width="0.75" stroke-linecap="round"/><path d="M440.00845,37.9926l-0.08485,-0.08485" fill="none" stroke="#4fa3da" stroke-width="0.75" stroke-linecap="round"/><path d="M438.24074,36.86125l-0.08485,-0.08485" fill="none" stroke="#4fa3da" stroke-width="0.75" stroke-linecap="round"/><path d="M440.22057,39.97242l-0.08485,-0.08485" fill="none" stroke="#54a7dc" stroke-width="0.75" stroke-linecap="round"/><path d="M435.62454,40.75021l-0.08485,-0.08485" fill="none" stroke="#72c2e7" stroke-width="0.75" stroke-linecap="round"/><path d="M434.21038,39.40676l-0.08485,-0.08485" fill="none" stroke="#54a7dc" stroke-width="0.75" stroke-linecap="round"/><path d="M435.46898,38.54412l0.08485,0.08485" fill="none" stroke="#4fa3da" stroke-width="0.75" stroke-linecap="round"/><path d="M435.27099,36.08347l-0.08485,-0.08485" fill="none" stroke="#4fa3da" stroke-width="0.75" stroke-linecap="round"/><path d="M420.98794,40.6088l-0.08485,-0.08485" fill="none" stroke="#54a7dc" stroke-width="0.75" stroke-linecap="round"/><path d="M423.59,40.38253l0.08485,0.08485" fill="none" stroke="#54a7dc" stroke-width="0.75" stroke-linecap="round"/><path d="M403.38158,37.78046l-0.08485,-0.08485" fill="none" stroke="#4fa3da" stroke-width="0.75" stroke-linecap="round"/><path d="M404.86645,39.7603l-0.08485,-0.08485" fill="none" stroke="#54a7dc" stroke-width="0.75" stroke-linecap="round"/><path d="M399.84616,37.07338l-0.08485,-0.08485" fill="none" stroke="#4fa3da" stroke-width="0.75" stroke-linecap="round"/><path d="M396.87641,37.9926l-0.08485,-0.08485" fill="none" stroke="#4fa3da" stroke-width="0.75" stroke-linecap="round"/><path d="M398.85624,39.47747l-0.08485,-0.08485" fill="none" stroke="#54a7dc" stroke-width="0.75" stroke-linecap="round"/><path d="M397.58349,42.16439l-0.08485,-0.08485" fill="none" stroke="#72c2e7" stroke-width="0.75" stroke-linecap="round"/><path d="M388.10859,41.4573l-0.08485,-0.08485" fill="none" stroke="#6dbee5" stroke-width="0.75" stroke-linecap="round"/><path d="M388.53284,38.98252l-0.08485,-0.08485" fill="none" stroke="#4fa3da" stroke-width="0.75" stroke-linecap="round"/><path d="M391.41773,38.40271l0.08485,0.08485" fill="none" stroke="#4fa3da" stroke-width="0.75" stroke-linecap="round"/><path d="M386.27018,41.4573l-0.08485,-0.08485" fill="none" stroke="#6dbee5" stroke-width="0.75" stroke-linecap="round"/><path d="M375.3104,45.20484l-0.08485,-0.08485" fill="none" stroke="#7ccbeb" stroke-width="0.75" stroke-linecap="round"/><path d="M377.21952,45.13413l-0.08485,-0.08485" fill="none" stroke="#7ccbeb" stroke-width="0.75" stroke-linecap="round"/><path d="M374.17907,43.50784l-0.08485,-0.08485" fill="none" stroke="#6dbee5" stroke-width="0.75" stroke-linecap="round"/><path d="M376.35688,41.58457l0.08485,0.08485" fill="none" stroke="#6dbee5" stroke-width="0.75" stroke-linecap="round"/><path d="M376.78113,43.14016l0.08485,0.08485" fill="none" stroke="#6dbee5" stroke-width="0.75" stroke-linecap="round"/><path d="M379.0438,40.59465l0.08485,0.08485" fill="none" stroke="#6dbee5" stroke-width="0.75" stroke-linecap="round"/><path d="M381.30646,41.65529l0.08485,0.08485" fill="none" stroke="#6dbee5" stroke-width="0.75" stroke-linecap="round"/></g></g></g></svg>