<svg version="1.1" xmlns="http://www.w3.org/2000/svg" xmlns:xlink="http://www.w3.org/1999/xlink" width="143.7336" height="143.73361" viewBox="0,0,143.7336,143.73361"><defs><linearGradient x1="240" y1="110.13321" x2="240" y2="249.86681" gradientUnits="userSpaceOnUse" id="color-1"><stop offset="0" stop-color="#3c94ed"/><stop offset="1" stop-color="#337fcc"/></linearGradient><radialGradient cx="240.89329" cy="180.19203" r="35.62979" gradientUnits="userSpaceOnUse" id="color-2"><stop offset="0" stop-color="#fff343"/><stop offset="1" stop-color="#fff343" stop-opacity="0"/></radialGradient><linearGradient x1="216.01002" y1="157.35172" x2="216.01002" y2="202.96888" gradientUnits="userSpaceOnUse" id="color-3"><stop offset="0" stop-color="#fff01b"/><stop offset="1" stop-color="#ffa30a"/></linearGradient><linearGradient x1="241.71847" y1="174.41498" x2="241.71847" y2="184.30589" gradientUnits="userSpaceOnUse" id="color-4"><stop offset="0" stop-color="#000000"/><stop offset="1" stop-color="#674205"/></linearGradient><linearGradient x1="233.39717" y1="174.36999" x2="233.39717" y2="184.2609" gradientUnits="userSpaceOnUse" id="color-5"><stop offset="0" stop-color="#000000"/><stop offset="1" stop-color="#674205"/></linearGradient><radialGradient cx="284.30855" cy="198.93949" r="20.99885" gradientUnits="userSpaceOnUse" id="color-6"><stop offset="0" stop-color="#fff343"/><stop offset="1" stop-color="#fff343" stop-opacity="0"/></radialGradient><linearGradient x1="269.6433" y1="185.47828" x2="269.6433" y2="212.3633" gradientUnits="userSpaceOnUse" id="color-7"><stop offset="0" stop-color="#fff01b"/><stop offset="1" stop-color="#ffa30a"/></linearGradient><linearGradient x1="284.79489" y1="195.5347" x2="284.79489" y2="201.36404" gradientUnits="userSpaceOnUse" id="color-8"><stop offset="0" stop-color="#000000"/><stop offset="1" stop-color="#674205"/></linearGradient><linearGradient x1="279.89063" y1="195.5082" x2="279.89063" y2="201.33754" gradientUnits="userSpaceOnUse" id="color-9"><stop offset="0" stop-color="#000000"/><stop offset="1" stop-color="#674205"/></linearGradient><radialGradient cx="225.59687" cy="223.04486" r="20.99885" gradientUnits="userSpaceOnUse" id="color-10"><stop offset="0" stop-color="#fff343"/><stop offset="1" stop-color="#fff343" stop-opacity="0"/></radialGradient><linearGradient x1="210.93161" y1="209.58367" x2="210.93161" y2="236.46867" gradientUnits="userSpaceOnUse" id="color-11"><stop offset="0" stop-color="#fff01b"/><stop offset="1" stop-color="#ffa30a"/></linearGradient><linearGradient x1="226.0832" y1="219.64009" x2="226.0832" y2="225.46942" gradientUnits="userSpaceOnUse" id="color-12"><stop offset="0" stop-color="#000000"/><stop offset="1" stop-color="#674205"/></linearGradient><linearGradient x1="221.17895" y1="219.61358" x2="221.17895" y2="225.44292" gradientUnits="userSpaceOnUse" id="color-13"><stop offset="0" stop-color="#000000"/><stop offset="1" stop-color="#674205"/></linearGradient><radialGradient cx="209.62729" cy="142.79294" r="20.99885" gradientUnits="userSpaceOnUse" id="color-14"><stop offset="0" stop-color="#fff343"/><stop offset="1" stop-color="#fff343" stop-opacity="0"/></radialGradient><linearGradient x1="194.96203" y1="129.33171" x2="194.96203" y2="156.21675" gradientUnits="userSpaceOnUse" id="color-15"><stop offset="0" stop-color="#fff01b"/><stop offset="1" stop-color="#ffa30a"/></linearGradient><linearGradient x1="210.11362" y1="139.38815" x2="210.11362" y2="145.21747" gradientUnits="userSpaceOnUse" id="color-16"><stop offset="0" stop-color="#000000"/><stop offset="1" stop-color="#674205"/></linearGradient><linearGradient x1="205.20937" y1="139.36163" x2="205.20937" y2="145.19097" gradientUnits="userSpaceOnUse" id="color-17"><stop offset="0" stop-color="#000000"/><stop offset="1" stop-color="#674205"/></linearGradient><radialGradient cx="259.4924" cy="222.22308" r="21.27874" gradientUnits="userSpaceOnUse" id="color-18"><stop offset="0" stop-color="#fff343"/><stop offset="1" stop-color="#fff343" stop-opacity="0"/></radialGradient><linearGradient x1="244.63168" y1="208.58246" x2="244.63168" y2="235.82581" gradientUnits="userSpaceOnUse" id="color-19"><stop offset="0" stop-color="#fff01b"/><stop offset="1" stop-color="#ffa30a"/></linearGradient><linearGradient x1="259.98522" y1="218.77293" x2="259.98522" y2="224.67994" gradientUnits="userSpaceOnUse" id="color-20"><stop offset="0" stop-color="#000000"/><stop offset="1" stop-color="#674205"/></linearGradient><linearGradient x1="255.01559" y1="218.74604" x2="255.01559" y2="224.65308" gradientUnits="userSpaceOnUse" id="color-21"><stop offset="0" stop-color="#000000"/><stop offset="1" stop-color="#674205"/></linearGradient><radialGradient cx="194.2108" cy="170.64797" r="21.27874" gradientUnits="userSpaceOnUse" id="color-22"><stop offset="0" stop-color="#fff343"/><stop offset="1" stop-color="#fff343" stop-opacity="0"/></radialGradient><linearGradient x1="179.35007" y1="157.00734" x2="179.35007" y2="184.25071" gradientUnits="userSpaceOnUse" id="color-23"><stop offset="0" stop-color="#fff01b"/><stop offset="1" stop-color="#ffa30a"/></linearGradient><linearGradient x1="194.70362" y1="167.19782" x2="194.70362" y2="173.10486" gradientUnits="userSpaceOnUse" id="color-24"><stop offset="0" stop-color="#000000"/><stop offset="1" stop-color="#674205"/></linearGradient><linearGradient x1="189.73399" y1="167.17093" x2="189.73399" y2="173.078" gradientUnits="userSpaceOnUse" id="color-25"><stop offset="0" stop-color="#000000"/><stop offset="1" stop-color="#674205"/></linearGradient><radialGradient cx="287.29872" cy="169.76142" r="21.27874" gradientUnits="userSpaceOnUse" id="color-26"><stop offset="0" stop-color="#fff343"/><stop offset="1" stop-color="#fff343" stop-opacity="0"/></radialGradient><linearGradient x1="272.438" y1="156.12079" x2="272.438" y2="183.36416" gradientUnits="userSpaceOnUse" id="color-27"><stop offset="0" stop-color="#fff01b"/><stop offset="1" stop-color="#ffa30a"/></linearGradient><linearGradient x1="287.79154" y1="166.31127" x2="287.79154" y2="172.21831" gradientUnits="userSpaceOnUse" id="color-28"><stop offset="0" stop-color="#000000"/><stop offset="1" stop-color="#674205"/></linearGradient><linearGradient x1="282.82192" y1="166.28438" x2="282.82192" y2="172.19145" gradientUnits="userSpaceOnUse" id="color-29"><stop offset="0" stop-color="#000000"/><stop offset="1" stop-color="#674205"/></linearGradient><radialGradient cx="197.59694" cy="201.14351" r="21.27874" gradientUnits="userSpaceOnUse" id="color-30"><stop offset="0" stop-color="#fff343"/><stop offset="1" stop-color="#fff343" stop-opacity="0"/></radialGradient><linearGradient x1="182.73622" y1="187.50291" x2="182.73622" y2="214.74625" gradientUnits="userSpaceOnUse" id="color-31"><stop offset="0" stop-color="#fff01b"/><stop offset="1" stop-color="#ffa30a"/></linearGradient><linearGradient x1="198.08976" y1="197.69338" x2="198.08976" y2="203.6004" gradientUnits="userSpaceOnUse" id="color-32"><stop offset="0" stop-color="#000000"/><stop offset="1" stop-color="#674205"/></linearGradient><linearGradient x1="193.12014" y1="197.66651" x2="193.12014" y2="203.57354" gradientUnits="userSpaceOnUse" id="color-33"><stop offset="0" stop-color="#000000"/><stop offset="1" stop-color="#674205"/></linearGradient><radialGradient cx="270.4924" cy="142.22332" r="21.27874" gradientUnits="userSpaceOnUse" id="color-34"><stop offset="0" stop-color="#fff343"/><stop offset="1" stop-color="#fff343" stop-opacity="0"/></radialGradient><linearGradient x1="255.63167" y1="128.58272" x2="255.63167" y2="155.82608" gradientUnits="userSpaceOnUse" id="color-35"><stop offset="0" stop-color="#fff01b"/><stop offset="1" stop-color="#ffa30a"/></linearGradient><linearGradient x1="270.98522" y1="138.77319" x2="270.98522" y2="144.68021" gradientUnits="userSpaceOnUse" id="color-36"><stop offset="0" stop-color="#000000"/><stop offset="1" stop-color="#674205"/></linearGradient><linearGradient x1="266.01559" y1="138.74633" x2="266.01559" y2="144.65335" gradientUnits="userSpaceOnUse" id="color-37"><stop offset="0" stop-color="#000000"/><stop offset="1" stop-color="#674205"/></linearGradient><radialGradient cx="239.7108" cy="132.64797" r="21.27873" gradientUnits="userSpaceOnUse" id="color-38"><stop offset="0" stop-color="#fff343"/><stop offset="1" stop-color="#fff343" stop-opacity="0"/></radialGradient><linearGradient x1="224.85007" y1="119.00736" x2="224.85007" y2="146.2507" gradientUnits="userSpaceOnUse" id="color-39"><stop offset="0" stop-color="#fff01b"/><stop offset="1" stop-color="#ffa30a"/></linearGradient><linearGradient x1="240.20362" y1="129.19782" x2="240.20362" y2="135.10485" gradientUnits="userSpaceOnUse" id="color-40"><stop offset="0" stop-color="#000000"/><stop offset="1" stop-color="#674205"/></linearGradient><linearGradient x1="235.23399" y1="129.17093" x2="235.23399" y2="135.07799" gradientUnits="userSpaceOnUse" id="color-41"><stop offset="0" stop-color="#000000"/><stop offset="1" stop-color="#674205"/></linearGradient></defs><g transform="translate(-168.1332,-108.1332)"><g data-paper-data="{&quot;isPaintingLayer&quot;:true}" fill-rule="nonzero" stroke-linejoin="miter" stroke-miterlimit="10" stroke-dasharray="" stroke-dashoffset="0" style="mix-blend-mode: normal"><path d="M240,110.13321c19.2752,0 36.74421,7.8268 49.3899,20.47689c12.64989,12.64569 20.4769,30.11449 20.4769,49.38991c0,19.27542 -7.82701,36.74421 -20.4769,49.38991c-12.64569,12.65009 -30.1147,20.4769 -49.3899,20.4769c-19.27542,0 -36.74442,-7.8268 -49.39012,-20.4769c-12.64989,-12.64569 -20.47668,-30.11449 -20.47668,-49.38991c0,-19.27542 7.82679,-36.74421 20.47668,-49.38991c12.64569,-12.6501 30.11471,-20.47689 49.39012,-20.47689z" data-paper-data="{&quot;origPos&quot;:null}" id="ID0.4039921844378114" fill="url(#color-1)" stroke="#23568d" stroke-width="4" stroke-linecap="butt"/><g data-paper-data="{&quot;origPos&quot;:null}" stroke="none"><path d="M213.89091,175.04416l-0.95987,-1.23893l0.83195,-2.54316l1.47183,-0.65203h15.16624l6.65531,-15.32396l1.47183,-1.23893l1.47183,0.06514l1.79173,1.36936l7.16719,14.93272l15.35831,-0.26081l1.53588,0.91292l1.21581,1.49981l-1.21581,2.67352l-8.76704,10.36814l2.55972,15.71518l0.12792,2.47785l-1.59976,0.84768l-2.81574,-0.5216l-14.71833,-10.43336l-12.54258,11.73752l-2.81565,0.52168l-2.04784,-1.10857l-0.70385,-3.06475l1.47183,-14.60669z" data-paper-data="{&quot;origPos&quot;:null}" id="ID0.3117544511333108" fill="url(#color-2)" stroke-width="1.43627" stroke-linecap="round"/><path d="M216.86959,175.80485l-0.85957,-1.08879l0.74496,-2.23504l1.31809,-0.57304h13.58197l5.96004,-13.46737l1.31809,-1.08887l1.31809,0.0573l1.6046,1.20349l6.41846,13.12354l13.75397,-0.22921l1.3754,0.80227l1.08879,1.31809l-1.08879,2.34966l-7.85125,9.11194l2.29236,13.81118l0.1146,2.17774l-1.4327,0.74496l-2.52157,-0.45843l-13.18083,-9.16925l-11.23231,10.31542l-2.52157,0.45843l-1.83383,-0.97426l-0.63034,-2.69349l1.318,-12.83693z" data-paper-data="{&quot;origPos&quot;:null}" id="ID0.3117544511333108" fill="url(#color-3)" stroke-width="1.27408" stroke-linecap="round"/><g data-paper-data="{&quot;origPos&quot;:null}" id="ID0.4398073833435774" stroke-width="2.7674"><path d="M243.74167,174.41589c0.6317,-0.02438 1.26124,0.49856 1.52645,1.14347c0.4811,1.17047 0.53283,2.56593 0.49684,3.86925c-0.02474,1.20303 -0.21581,2.44673 -0.67442,3.52249c-0.26305,0.63134 -0.73731,1.36018 -1.34886,1.35479c-0.58896,-0.0054 -1.09031,-0.46068 -1.41399,-1.27896c-0.41363,-1.03509 -0.60922,-2.27607 -0.60922,-3.7338c0,-1.45781 0.15059,-2.64995 0.60922,-3.73378c0.30117,-0.71537 0.87674,-1.16786 1.41399,-1.14347z" id="ID0.6670762049034238" fill="url(#color-4)" stroke-linecap="round"/><path d="M243.83991,175.18216c0.32601,0 0.62045,0.15987 0.834,0.41723c0.21357,0.25746 0.34626,0.61244 0.34626,1.00531c0,0.39285 -0.13269,0.74784 -0.34626,1.00521c-0.21357,0.25746 -0.50801,0.41733 -0.834,0.41733c-0.32593,0 -0.62045,-0.15987 -0.83402,-0.41733c-0.21357,-0.25736 -0.34615,-0.61236 -0.34615,-1.00521c0,-0.39285 0.1326,-0.74784 0.34615,-1.00531c0.21357,-0.25736 0.50809,-0.41723 0.83402,-0.41723z" id="ID0.2271407265216112" fill="#ffffff" stroke-linecap="butt"/></g><g data-paper-data="{&quot;origPos&quot;:null}" id="ID0.4398073833435774" stroke-width="2.7674"><path d="M235.42037,174.37091c0.6317,-0.02438 1.26124,0.49856 1.52645,1.14347c0.4811,1.17047 0.53283,2.56593 0.49684,3.86925c-0.02474,1.20303 -0.21581,2.44671 -0.67442,3.52247c-0.26305,0.63134 -0.73731,1.3602 -1.34886,1.3548c-0.58896,-0.0054 -1.09031,-0.46068 -1.41399,-1.27896c-0.41363,-1.03509 -0.60922,-2.27607 -0.60922,-3.7338c0,-1.45781 0.1506,-2.64995 0.60922,-3.73378c0.30117,-0.71537 0.87674,-1.16786 1.41399,-1.14347z" id="ID0.6670762049034238" fill="url(#color-5)" stroke-linecap="round"/><path d="M235.56361,175.0922c0.32601,0 0.62045,0.15987 0.834,0.41723c0.21357,0.25746 0.34626,0.61244 0.34626,1.00531c0,0.39285 -0.1327,0.74784 -0.34626,1.00521c-0.21357,0.25746 -0.50801,0.41733 -0.834,0.41733c-0.32593,0 -0.62045,-0.15987 -0.83402,-0.41733c-0.21357,-0.25736 -0.34615,-0.61236 -0.34615,-1.00521c0,-0.39285 0.1326,-0.74784 0.34615,-1.00531c0.21357,-0.25736 0.50809,-0.41723 0.83402,-0.41723z" id="ID0.2271407265216112" fill="#ffffff" stroke-linecap="butt"/></g></g><g data-paper-data="{&quot;origPos&quot;:null}" stroke="none"><path d="M268.39437,195.90551l-0.56571,-0.73018l0.49032,-1.49884l0.86744,-0.38428h8.93841l3.92239,-9.03136l0.86744,-0.73018l0.86744,0.03839l1.05598,0.80705l4.22407,8.80078l9.05161,-0.15371l0.90519,0.53804l0.71655,0.88393l-0.71655,1.57567l-5.16696,6.11059l1.5086,9.26193l0.07539,1.46035l-0.94284,0.49959l-1.65949,-0.30741l-8.67443,-6.14903l-7.39212,6.91765l-1.65944,0.30746l-1.20692,-0.65335l-0.41482,-1.80625l0.86744,-8.60863z" data-paper-data="{&quot;origPos&quot;:null}" id="ID0.3117544511333108" fill="url(#color-6)" stroke-width="1.43627" stroke-linecap="round"/><path d="M270.14989,196.35384l-0.5066,-0.64169l0.43905,-1.31725l0.77683,-0.33773h8.0047l3.51262,-7.93716l0.77683,-0.64174l0.77683,0.03377l0.94569,0.70929l3.7828,7.73452l8.10607,-0.13509l0.81061,0.47283l0.64169,0.77683l-0.64169,1.3848l-4.62723,5.37023l1.35103,8.13979l0.06754,1.28348l-0.84438,0.43905l-1.48612,-0.27018l-7.76828,-5.40401l-6.6199,6.07952l-1.48612,0.27018l-1.08079,-0.57419l-0.3715,-1.58744l0.77678,-7.5656z" data-paper-data="{&quot;origPos&quot;:null}" id="ID0.3117544511333108" fill="url(#color-7)" stroke-width="1.27408" stroke-linecap="round"/><g data-paper-data="{&quot;origPos&quot;:null}" id="ID0.4398073833435774" stroke-width="2.7674"><path d="M285.98728,195.53524c0.3723,-0.01437 0.74333,0.29383 0.89963,0.67392c0.28354,0.68983 0.31403,1.51226 0.29282,2.28039c-0.01458,0.70902 -0.12719,1.44201 -0.39748,2.07602c-0.15503,0.37209 -0.43454,0.80164 -0.79497,0.79846c-0.34711,-0.00318 -0.64259,-0.27151 -0.83335,-0.75377c-0.24378,-0.61004 -0.35905,-1.34143 -0.35905,-2.20056c0,-0.85918 0.08875,-1.56178 0.35905,-2.20055c0.1775,-0.42161 0.51672,-0.68829 0.83335,-0.67392z" id="ID0.6670762049034238" fill="url(#color-8)" stroke-linecap="round"/><path d="M286.04519,195.98686c0.19214,0 0.36567,0.09422 0.49153,0.2459c0.12587,0.15174 0.20407,0.36095 0.20407,0.59249c0,0.23153 -0.0782,0.44075 -0.20407,0.59243c-0.12587,0.15174 -0.2994,0.24596 -0.49153,0.24596c-0.19209,0 -0.36567,-0.09422 -0.49154,-0.24596c-0.12587,-0.15168 -0.20401,-0.3609 -0.20401,-0.59243c0,-0.23153 0.07815,-0.44075 0.20401,-0.59249c0.12587,-0.15168 0.29945,-0.2459 0.49154,-0.2459z" id="ID0.2271407265216112" fill="#ffffff" stroke-linecap="butt"/></g><g data-paper-data="{&quot;origPos&quot;:null}" id="ID0.4398073833435774" stroke-width="2.7674"><path d="M281.08302,195.50873c0.3723,-0.01437 0.74333,0.29383 0.89963,0.67392c0.28354,0.68983 0.31403,1.51226 0.29282,2.28039c-0.01458,0.70902 -0.12719,1.442 -0.39748,2.07601c-0.15503,0.37209 -0.43454,0.80165 -0.79497,0.79847c-0.34711,-0.00318 -0.64259,-0.27151 -0.83335,-0.75377c-0.24378,-0.61004 -0.35905,-1.34143 -0.35905,-2.20056c0,-0.85918 0.08876,-1.56178 0.35905,-2.20055c0.1775,-0.42161 0.51672,-0.68829 0.83335,-0.67392z" id="ID0.6670762049034238" fill="url(#color-9)" stroke-linecap="round"/><path d="M281.16744,195.93384c0.19214,0 0.36567,0.09422 0.49153,0.2459c0.12587,0.15174 0.20407,0.36095 0.20407,0.59249c0,0.23153 -0.07821,0.44075 -0.20407,0.59243c-0.12587,0.15174 -0.2994,0.24596 -0.49153,0.24596c-0.19209,0 -0.36567,-0.09422 -0.49154,-0.24596c-0.12587,-0.15168 -0.20401,-0.3609 -0.20401,-0.59243c0,-0.23153 0.07815,-0.44075 0.20401,-0.59249c0.12587,-0.15168 0.29945,-0.2459 0.49154,-0.2459z" id="ID0.2271407265216112" fill="#ffffff" stroke-linecap="butt"/></g></g><g data-paper-data="{&quot;origPos&quot;:null}" stroke="none"><path d="M209.68269,220.0109l-0.56571,-0.73018l0.49032,-1.49884l0.86744,-0.38428h8.93841l3.92239,-9.03136l0.86744,-0.73018l0.86744,0.03839l1.05598,0.80705l4.22407,8.80078l9.05161,-0.15371l0.90519,0.53804l0.71655,0.88393l-0.71655,1.57567l-5.16696,6.11059l1.5086,9.26193l0.07539,1.46035l-0.94284,0.49959l-1.65949,-0.30741l-8.67443,-6.14903l-7.39212,6.91765l-1.65944,0.30746l-1.20692,-0.65335l-0.41482,-1.80625l0.86744,-8.60863z" data-paper-data="{&quot;origPos&quot;:null}" id="ID0.3117544511333108" fill="url(#color-10)" stroke-width="1.43627" stroke-linecap="round"/><path d="M211.43821,220.45923l-0.5066,-0.64169l0.43905,-1.31725l0.77683,-0.33773h8.0047l3.51261,-7.93716l0.77683,-0.64174l0.77683,0.03377l0.9457,0.70929l3.7828,7.73452l8.10607,-0.13509l0.8106,0.47283l0.64169,0.77683l-0.64169,1.3848l-4.62723,5.37023l1.35103,8.13979l0.06755,1.28348l-0.84438,0.43905l-1.48612,-0.27018l-7.76829,-5.40401l-6.6199,6.07952l-1.48612,0.27018l-1.08079,-0.57419l-0.3715,-1.58744l0.77678,-7.5656z" data-paper-data="{&quot;origPos&quot;:null}" id="ID0.3117544511333108" fill="url(#color-11)" stroke-width="1.27408" stroke-linecap="round"/><g data-paper-data="{&quot;origPos&quot;:null}" id="ID0.4398073833435774" stroke-width="2.7674"><path d="M227.2756,219.64062c0.3723,-0.01437 0.74333,0.29383 0.89963,0.67392c0.28355,0.68983 0.31403,1.51226 0.29282,2.28039c-0.01458,0.70902 -0.12719,1.44201 -0.39748,2.07602c-0.15503,0.37209 -0.43454,0.80164 -0.79497,0.79846c-0.34711,-0.00318 -0.64259,-0.27151 -0.83335,-0.75377c-0.24378,-0.61004 -0.35905,-1.34143 -0.35905,-2.20056c0,-0.85918 0.08875,-1.56178 0.35905,-2.20055c0.17751,-0.42161 0.51672,-0.68829 0.83335,-0.67392z" id="ID0.6670762049034238" fill="url(#color-12)" stroke-linecap="round"/><path d="M227.3335,220.09223c0.19214,0 0.36567,0.09422 0.49154,0.2459c0.12587,0.15174 0.20407,0.36095 0.20407,0.59249c0,0.23153 -0.0782,0.44075 -0.20407,0.59243c-0.12587,0.15174 -0.2994,0.24596 -0.49154,0.24596c-0.19209,0 -0.36567,-0.09422 -0.49154,-0.24596c-0.12587,-0.15168 -0.20401,-0.3609 -0.20401,-0.59243c0,-0.23153 0.07815,-0.44075 0.20401,-0.59249c0.12587,-0.15168 0.29945,-0.2459 0.49154,-0.2459z" id="ID0.2271407265216112" fill="#ffffff" stroke-linecap="butt"/></g><g data-paper-data="{&quot;origPos&quot;:null}" id="ID0.4398073833435774" stroke-width="2.7674"><path d="M222.37134,219.61412c0.3723,-0.01437 0.74333,0.29383 0.89962,0.67392c0.28355,0.68983 0.31404,1.51226 0.29283,2.28039c-0.01458,0.70902 -0.1272,1.442 -0.39748,2.07601c-0.15503,0.37209 -0.43454,0.80165 -0.79497,0.79847c-0.34711,-0.00318 -0.6426,-0.27151 -0.83335,-0.75377c-0.24378,-0.61004 -0.35905,-1.34143 -0.35905,-2.20056c0,-0.85918 0.08875,-1.56178 0.35905,-2.20055c0.17751,-0.42161 0.51672,-0.68829 0.83335,-0.67392z" id="ID0.6670762049034238" fill="url(#color-13)" stroke-linecap="round"/><path d="M222.45576,220.0392c0.19214,0 0.36567,0.09422 0.49153,0.2459c0.12587,0.15174 0.20407,0.36095 0.20407,0.59249c0,0.23153 -0.07821,0.44075 -0.20407,0.59243c-0.12587,0.15174 -0.2994,0.24596 -0.49153,0.24596c-0.19209,0 -0.36567,-0.09422 -0.49154,-0.24596c-0.12587,-0.15168 -0.20402,-0.3609 -0.20402,-0.59243c0,-0.23153 0.07815,-0.44075 0.20402,-0.59249c0.12587,-0.15168 0.29945,-0.2459 0.49154,-0.2459z" id="ID0.2271407265216112" fill="#ffffff" stroke-linecap="butt"/></g></g><g data-paper-data="{&quot;origPos&quot;:null}" stroke="none"><path d="M193.71311,139.75896l-0.56571,-0.73018l0.49032,-1.49884l0.86744,-0.38428h8.93841l3.92239,-9.03136l0.86744,-0.73018l0.86744,0.03839l1.05598,0.80705l4.22407,8.80078l9.05161,-0.15371l0.90519,0.53804l0.71655,0.88393l-0.71655,1.57567l-5.16696,6.11059l1.5086,9.26193l0.07539,1.46035l-0.94284,0.49959l-1.65949,-0.30741l-8.67443,-6.14903l-7.39212,6.91765l-1.65944,0.30746l-1.20692,-0.65335l-0.41482,-1.80625l0.86744,-8.60863z" data-paper-data="{&quot;origPos&quot;:null}" id="ID0.3117544511333108" fill="url(#color-14)" stroke-width="1.43627" stroke-linecap="round"/><path d="M195.46863,140.20729l-0.5066,-0.64169l0.43905,-1.31725l0.77683,-0.33773h8.0047l3.51261,-7.93716l0.77683,-0.64174l0.77683,0.03377l0.9457,0.70929l3.7828,7.73452l8.10607,-0.13509l0.8106,0.47283l0.64169,0.77683l-0.64169,1.3848l-4.62723,5.37023l1.35103,8.13979l0.06755,1.28348l-0.84438,0.43905l-1.48612,-0.27018l-7.76829,-5.40401l-6.6199,6.07952l-1.48612,0.27018l-1.08079,-0.57419l-0.3715,-1.58744l0.77678,-7.5656z" data-paper-data="{&quot;origPos&quot;:null}" id="ID0.3117544511333108" fill="url(#color-15)" stroke-width="1.27408" stroke-linecap="round"/><g data-paper-data="{&quot;origPos&quot;:null}" id="ID0.4398073833435774" stroke-width="2.7674"><path d="M211.30602,139.38867c0.3723,-0.01437 0.74333,0.29383 0.89963,0.67392c0.28355,0.68983 0.31403,1.51226 0.29282,2.28039c-0.01458,0.70902 -0.12719,1.44201 -0.39748,2.07602c-0.15503,0.37209 -0.43454,0.80164 -0.79497,0.79846c-0.34711,-0.00318 -0.64259,-0.27151 -0.83335,-0.75377c-0.24378,-0.61004 -0.35905,-1.34143 -0.35905,-2.20056c0,-0.85918 0.08875,-1.56178 0.35905,-2.20055c0.17751,-0.42161 0.51672,-0.68829 0.83335,-0.67392z" id="ID0.6670762049034238" fill="url(#color-16)" stroke-linecap="round"/><path d="M211.36392,139.84031c0.19214,0 0.36567,0.09422 0.49154,0.2459c0.12587,0.15174 0.20407,0.36095 0.20407,0.59249c0,0.23153 -0.0782,0.44075 -0.20407,0.59243c-0.12587,0.15174 -0.2994,0.24596 -0.49154,0.24596c-0.19209,0 -0.36567,-0.09422 -0.49154,-0.24596c-0.12587,-0.15168 -0.20401,-0.3609 -0.20401,-0.59243c0,-0.23153 0.07815,-0.44075 0.20401,-0.59249c0.12587,-0.15168 0.29945,-0.2459 0.49154,-0.2459z" id="ID0.2271407265216112" fill="#ffffff" stroke-linecap="butt"/></g><g data-paper-data="{&quot;origPos&quot;:null}" id="ID0.4398073833435774" stroke-width="2.7674"><path d="M206.40176,139.36217c0.3723,-0.01437 0.74333,0.29383 0.89962,0.67392c0.28355,0.68983 0.31404,1.51226 0.29283,2.28039c-0.01458,0.70902 -0.1272,1.442 -0.39748,2.07601c-0.15503,0.37209 -0.43454,0.80165 -0.79497,0.79847c-0.34711,-0.00318 -0.6426,-0.27151 -0.83335,-0.75377c-0.24378,-0.61004 -0.35905,-1.34143 -0.35905,-2.20056c0,-0.85918 0.08875,-1.56178 0.35905,-2.20055c0.17751,-0.42161 0.51672,-0.68829 0.83335,-0.67392z" id="ID0.6670762049034238" fill="url(#color-17)" stroke-linecap="round"/><path d="M206.48618,139.78729c0.19214,0 0.36567,0.09422 0.49153,0.2459c0.12587,0.15174 0.20407,0.36095 0.20407,0.59249c0,0.23153 -0.07821,0.44075 -0.20407,0.59243c-0.12587,0.15174 -0.2994,0.24596 -0.49153,0.24596c-0.19209,0 -0.36567,-0.09422 -0.49154,-0.24596c-0.12587,-0.15168 -0.20402,-0.3609 -0.20402,-0.59243c0,-0.23153 0.07815,-0.44075 0.20402,-0.59249c0.12587,-0.15168 0.29945,-0.2459 0.49154,-0.2459z" id="ID0.2271407265216112" fill="#ffffff" stroke-linecap="butt"/></g></g><g data-paper-data="{&quot;origPos&quot;:null}" stroke="none"><path d="M243.3661,219.14869l-0.57325,-0.73991l0.49686,-1.51882l0.879,-0.3894h9.05755l3.97468,-9.15173l0.879,-0.73992l0.879,0.0389l1.07006,0.81781l4.28037,8.91808l9.17225,-0.15575l0.91726,0.54521l0.7261,0.89571l-0.7261,1.59668l-5.23583,6.19204l1.52871,9.38538l0.0764,1.47982l-0.9554,0.50625l-1.68161,-0.3115l-8.79005,-6.23099l-7.49064,7.00985l-1.68156,0.31156l-1.22301,-0.66206l-0.42035,-1.83033l0.879,-8.72337z" data-paper-data="{&quot;origPos&quot;:null}" id="ID0.3117544511333108" fill="url(#color-18)" stroke-width="1.43627" stroke-linecap="round"/><path d="M245.14502,219.60298l-0.51335,-0.65024l0.44491,-1.33481l0.78719,-0.34223h8.11139l3.55943,-8.04295l0.78719,-0.6503l0.78719,0.03423l0.9583,0.71874l3.83321,7.83761l8.21411,-0.13689l0.82141,0.47913l0.65024,0.78719l-0.65024,1.40326l-4.6889,5.44181l1.36903,8.24828l0.06845,1.30059l-0.85564,0.44491l-1.50592,-0.27379l-7.87183,-5.47604l-6.70813,6.16056l-1.50593,0.27378l-1.0952,-0.58185l-0.37645,-1.60859l0.78713,-7.66643z" data-paper-data="{&quot;origPos&quot;:null}" id="ID0.3117544511333108" fill="url(#color-19)" stroke-width="1.27408" stroke-linecap="round"/><g data-paper-data="{&quot;origPos&quot;:null}" id="ID0.4398073833435774" stroke-width="2.7674"><path d="M261.1935,218.77344c0.37726,-0.01456 0.75324,0.29775 0.91162,0.68291c0.28732,0.69902 0.31822,1.53242 0.29673,2.31079c-0.01477,0.71848 -0.12889,1.46123 -0.40278,2.10369c-0.15709,0.37704 -0.44033,0.81233 -0.80556,0.80911c-0.35174,-0.00323 -0.65115,-0.27513 -0.84446,-0.76382c-0.24703,-0.61817 -0.36383,-1.35931 -0.36383,-2.22989c0,-0.87063 0.08993,-1.5826 0.36383,-2.22988c0.17987,-0.42723 0.52361,-0.69746 0.84446,-0.68291z" id="ID0.6670762049034238" fill="url(#color-20)" stroke-linecap="round"/><path d="M261.25218,219.2311c0.19471,0 0.37054,0.09547 0.49809,0.24918c0.12755,0.15376 0.20679,0.36577 0.20679,0.60039c0,0.23462 -0.07925,0.44662 -0.20679,0.60033c-0.12755,0.15376 -0.30339,0.24923 -0.49809,0.24923c-0.19465,0 -0.37054,-0.09547 -0.49809,-0.24923c-0.12755,-0.15371 -0.20673,-0.36571 -0.20673,-0.60033c0,-0.23462 0.0792,-0.44662 0.20673,-0.60039c0.12755,-0.15371 0.30344,-0.24918 0.49809,-0.24918z" id="ID0.2271407265216112" fill="#ffffff" stroke-linecap="butt"/></g><g data-paper-data="{&quot;origPos&quot;:null}" id="ID0.4398073833435774" stroke-width="2.7674"><path d="M256.22388,218.7466c0.37726,-0.01456 0.75324,0.29775 0.91162,0.68291c0.28732,0.69902 0.31821,1.53242 0.29672,2.31079c-0.01477,0.71848 -0.12889,1.46122 -0.40278,2.10368c-0.15709,0.37704 -0.44033,0.81233 -0.80556,0.80911c-0.35174,-0.00323 -0.65116,-0.27513 -0.84446,-0.76382c-0.24703,-0.61817 -0.36383,-1.35931 -0.36383,-2.22989c0,-0.87063 0.08994,-1.5826 0.36383,-2.22988c0.17987,-0.42723 0.52361,-0.69746 0.84446,-0.68291z" id="ID0.6670762049034238" fill="url(#color-21)" stroke-linecap="round"/><path d="M256.30943,219.17735c0.19471,0 0.37054,0.09547 0.49809,0.24918c0.12755,0.15376 0.20678,0.36577 0.20678,0.60039c0,0.23462 -0.07925,0.44662 -0.20678,0.60033c-0.12755,0.15376 -0.30339,0.24923 -0.49809,0.24923c-0.19465,0 -0.37054,-0.09547 -0.49809,-0.24923c-0.12755,-0.15371 -0.20673,-0.36571 -0.20673,-0.60033c0,-0.23462 0.0792,-0.44662 0.20673,-0.60039c0.12755,-0.15371 0.30344,-0.24918 0.49809,-0.24918z" id="ID0.2271407265216112" fill="#ffffff" stroke-linecap="butt"/></g></g><g data-paper-data="{&quot;origPos&quot;:null}" stroke="none"><path d="M178.0845,167.57358l-0.57326,-0.73991l0.49686,-1.51882l0.879,-0.3894h9.05755l3.97468,-9.15173l0.879,-0.73992l0.87901,0.0389l1.07005,0.81781l4.28037,8.91808l9.17225,-0.15575l0.91725,0.54521l0.7261,0.89571l-0.7261,1.59668l-5.23583,6.19204l1.52871,9.38537l0.0764,1.47982l-0.9554,0.50625l-1.68161,-0.3115l-8.79005,-6.23099l-7.49064,7.00986l-1.68156,0.31155l-1.22301,-0.66206l-0.42035,-1.83032l0.879,-8.72338z" data-paper-data="{&quot;origPos&quot;:null}" id="ID0.3117544511333108" fill="url(#color-22)" stroke-width="1.43627" stroke-linecap="round"/><path d="M179.86342,168.02786l-0.51335,-0.65024l0.44491,-1.33481l0.78719,-0.34223h8.11139l3.55943,-8.04295l0.78718,-0.6503l0.78719,0.03423l0.9583,0.71874l3.83321,7.83761l8.21411,-0.13689l0.82141,0.47913l0.65024,0.78718l-0.65024,1.40326l-4.6889,5.44181l1.36904,8.24828l0.06844,1.30059l-0.85563,0.44491l-1.50593,-0.27378l-7.87183,-5.47604l-6.70813,6.16056l-1.50593,0.27378l-1.0952,-0.58185l-0.37645,-1.60859l0.78713,-7.66643z" data-paper-data="{&quot;origPos&quot;:null}" id="ID0.3117544511333108" fill="url(#color-23)" stroke-width="1.27408" stroke-linecap="round"/><g data-paper-data="{&quot;origPos&quot;:null}" id="ID0.4398073833435774" stroke-width="2.7674"><path d="M195.9119,167.19833c0.37726,-0.01456 0.75324,0.29775 0.91162,0.68291c0.28732,0.69902 0.31822,1.53242 0.29673,2.31079c-0.01477,0.71848 -0.12889,1.46123 -0.40278,2.10369c-0.15709,0.37704 -0.44033,0.81233 -0.80556,0.80911c-0.35174,-0.00323 -0.65116,-0.27513 -0.84446,-0.76382c-0.24703,-0.61817 -0.36383,-1.35931 -0.36383,-2.22989c0,-0.87063 0.08993,-1.5826 0.36383,-2.22988c0.17987,-0.42723 0.52361,-0.69746 0.84446,-0.68291z" id="ID0.6670762049034238" fill="url(#color-24)" stroke-linecap="round"/><path d="M195.97058,167.65598c0.19471,0 0.37054,0.09548 0.49809,0.24918c0.12755,0.15376 0.20679,0.36576 0.20679,0.60038c0,0.23462 -0.07925,0.44662 -0.20679,0.60033c-0.12755,0.15376 -0.30339,0.24923 -0.49809,0.24923c-0.19465,0 -0.37054,-0.09547 -0.49809,-0.24923c-0.12755,-0.15371 -0.20673,-0.36571 -0.20673,-0.60033c0,-0.23462 0.0792,-0.44662 0.20673,-0.60038c0.12755,-0.15371 0.30344,-0.24918 0.49809,-0.24918z" id="ID0.2271407265216112" fill="#ffffff" stroke-linecap="butt"/></g><g data-paper-data="{&quot;origPos&quot;:null}" id="ID0.4398073833435774" stroke-width="2.7674"><path d="M190.94228,167.17147c0.37726,-0.01456 0.75324,0.29775 0.91162,0.68291c0.28732,0.69902 0.31822,1.53242 0.29673,2.31079c-0.01477,0.71848 -0.12889,1.46122 -0.40278,2.10368c-0.15709,0.37704 -0.44033,0.81233 -0.80556,0.80911c-0.35174,-0.00323 -0.65115,-0.27513 -0.84446,-0.76382c-0.24703,-0.61817 -0.36384,-1.35931 -0.36384,-2.22989c0,-0.87063 0.08994,-1.5826 0.36384,-2.22988c0.17987,-0.42723 0.52361,-0.69746 0.84446,-0.68291z" id="ID0.6670762049034238" fill="url(#color-25)" stroke-linecap="round"/><path d="M191.02782,167.60226c0.19471,0 0.37054,0.09547 0.49809,0.24918c0.12755,0.15376 0.20679,0.36576 0.20679,0.60038c0,0.23462 -0.07925,0.44662 -0.20679,0.60033c-0.12755,0.15376 -0.30339,0.24923 -0.49809,0.24923c-0.19465,0 -0.37054,-0.09547 -0.49809,-0.24923c-0.12755,-0.15371 -0.20673,-0.36571 -0.20673,-0.60033c0,-0.23462 0.0792,-0.44662 0.20673,-0.60038c0.12755,-0.15371 0.30344,-0.24918 0.49809,-0.24918z" id="ID0.2271407265216112" fill="#ffffff" stroke-linecap="butt"/></g></g><g data-paper-data="{&quot;origPos&quot;:null}" stroke="none"><path d="M271.17243,166.68703l-0.57325,-0.73991l0.49686,-1.51882l0.879,-0.3894h9.05755l3.97468,-9.15173l0.879,-0.73992l0.879,0.0389l1.07006,0.81781l4.28037,8.91808l9.17225,-0.15576l0.91726,0.54522l0.7261,0.89571l-0.7261,1.59668l-5.23583,6.19204l1.52871,9.38538l0.0764,1.47982l-0.95541,0.50625l-1.68161,-0.3115l-8.79005,-6.23099l-7.49065,7.00985l-1.68156,0.31155l-1.22301,-0.66206l-0.42035,-1.83033l0.879,-8.72338z" data-paper-data="{&quot;origPos&quot;:null}" id="ID0.3117544511333108" fill="url(#color-26)" stroke-width="1.43627" stroke-linecap="round"/><path d="M272.95135,167.1413l-0.51335,-0.65024l0.44491,-1.33481l0.78719,-0.34224h8.11139l3.55943,-8.04295l0.78719,-0.65029l0.78719,0.03423l0.9583,0.71874l3.83322,7.83761l8.21411,-0.13689l0.8214,0.47913l0.65024,0.78719l-0.65024,1.40326l-4.6889,5.44181l1.36903,8.24828l0.06845,1.30059l-0.85564,0.44491l-1.50593,-0.27379l-7.87183,-5.47604l-6.70813,6.16056l-1.50592,0.27379l-1.0952,-0.58185l-0.37645,-1.60859l0.78713,-7.66643z" data-paper-data="{&quot;origPos&quot;:null}" id="ID0.3117544511333108" fill="url(#color-27)" stroke-width="1.27408" stroke-linecap="round"/><g data-paper-data="{&quot;origPos&quot;:null}" id="ID0.4398073833435774" stroke-width="2.7674"><path d="M288.99983,166.31178c0.37726,-0.01456 0.75324,0.29775 0.91162,0.68291c0.28733,0.69902 0.31822,1.53242 0.29673,2.31079c-0.01477,0.71848 -0.12889,1.46123 -0.40278,2.10369c-0.15709,0.37704 -0.44034,0.81233 -0.80556,0.80911c-0.35174,-0.00323 -0.65115,-0.27513 -0.84445,-0.76382c-0.24703,-0.61817 -0.36383,-1.35931 -0.36383,-2.22989c0,-0.87063 0.08993,-1.5826 0.36383,-2.22988c0.17988,-0.42723 0.5236,-0.69746 0.84445,-0.68291z" id="ID0.6670762049034238" fill="url(#color-28)" stroke-linecap="round"/><path d="M289.0585,166.76943c0.19471,0 0.37054,0.09547 0.49809,0.24918c0.12755,0.15376 0.20679,0.36577 0.20679,0.60039c0,0.23462 -0.07925,0.44662 -0.20679,0.60033c-0.12755,0.15376 -0.30339,0.24923 -0.49809,0.24923c-0.19465,0 -0.37054,-0.09547 -0.49809,-0.24923c-0.12755,-0.15371 -0.20673,-0.36571 -0.20673,-0.60033c0,-0.23462 0.07919,-0.44662 0.20673,-0.60039c0.12755,-0.15371 0.30344,-0.24918 0.49809,-0.24918z" id="ID0.2271407265216112" fill="#ffffff" stroke-linecap="butt"/></g><g data-paper-data="{&quot;origPos&quot;:null}" id="ID0.4398073833435774" stroke-width="2.7674"><path d="M284.03021,166.28492c0.37726,-0.01456 0.75323,0.29775 0.91161,0.68291c0.28733,0.69902 0.31822,1.53242 0.29673,2.31079c-0.01477,0.71848 -0.12889,1.46122 -0.40278,2.10368c-0.15709,0.37704 -0.44033,0.81233 -0.80556,0.80911c-0.35174,-0.00323 -0.65116,-0.27513 -0.84446,-0.76382c-0.24703,-0.61817 -0.36383,-1.35931 -0.36383,-2.22989c0,-0.87063 0.08993,-1.5826 0.36383,-2.22988c0.17988,-0.42723 0.52361,-0.69746 0.84446,-0.68291z" id="ID0.6670762049034238" fill="url(#color-29)" stroke-linecap="round"/><path d="M284.11575,166.71571c0.19471,0 0.37054,0.09547 0.49809,0.24918c0.12755,0.15376 0.20678,0.36577 0.20678,0.60039c0,0.23462 -0.07925,0.44662 -0.20678,0.60033c-0.12755,0.15376 -0.30339,0.24923 -0.49809,0.24923c-0.19465,0 -0.37055,-0.09547 -0.4981,-0.24923c-0.12755,-0.15371 -0.20674,-0.36571 -0.20674,-0.60033c0,-0.23462 0.0792,-0.44662 0.20674,-0.60039c0.12755,-0.15371 0.30345,-0.24918 0.4981,-0.24918z" id="ID0.2271407265216112" fill="#ffffff" stroke-linecap="butt"/></g></g><g data-paper-data="{&quot;origPos&quot;:null}" stroke="none"><path d="M181.47065,198.06913l-0.57325,-0.73991l0.49686,-1.51882l0.879,-0.3894h9.05755l3.97468,-9.15173l0.879,-0.73992l0.87901,0.0389l1.07005,0.81781l4.28038,8.91808l9.17225,-0.15575l0.91725,0.54521l0.7261,0.89571l-0.7261,1.59668l-5.23583,6.19204l1.5287,9.38538l0.0764,1.47982l-0.9554,0.50625l-1.68161,-0.3115l-8.79005,-6.23099l-7.49064,7.00985l-1.68156,0.31156l-1.22301,-0.66206l-0.42035,-1.83033l0.879,-8.72337z" data-paper-data="{&quot;origPos&quot;:null}" id="ID0.3117544511333108" fill="url(#color-30)" stroke-width="1.43627" stroke-linecap="round"/><path d="M183.24957,198.52342l-0.51335,-0.65024l0.44491,-1.33481l0.78719,-0.34223h8.11139l3.55943,-8.04295l0.78719,-0.65029l0.78719,0.03423l0.9583,0.71874l3.83321,7.83761l8.21411,-0.13689l0.82141,0.47913l0.65024,0.78719l-0.65024,1.40326l-4.6889,5.44181l1.36903,8.24828l0.06845,1.30059l-0.85563,0.44491l-1.50593,-0.27379l-7.87183,-5.47604l-6.70813,6.16055l-1.50593,0.27379l-1.0952,-0.58185l-0.37645,-1.60859l0.78713,-7.66643z" data-paper-data="{&quot;origPos&quot;:null}" id="ID0.3117544511333108" fill="url(#color-31)" stroke-width="1.27408" stroke-linecap="round"/><g data-paper-data="{&quot;origPos&quot;:null}" id="ID0.4398073833435774" stroke-width="2.7674"><path d="M199.29804,197.69391c0.37726,-0.01456 0.75324,0.29775 0.91162,0.68291c0.28733,0.69902 0.31822,1.53242 0.29673,2.31079c-0.01477,0.71848 -0.12889,1.46123 -0.40278,2.10369c-0.15709,0.37704 -0.44034,0.81233 -0.80556,0.80911c-0.35174,-0.00323 -0.65116,-0.27513 -0.84446,-0.76382c-0.24703,-0.61817 -0.36383,-1.35931 -0.36383,-2.22989c0,-0.87063 0.08993,-1.5826 0.36383,-2.22988c0.17988,-0.42723 0.52361,-0.69746 0.84446,-0.68291z" id="ID0.6670762049034238" fill="url(#color-32)" stroke-linecap="round"/><path d="M199.35672,198.15155c0.19471,0 0.37054,0.09547 0.49809,0.24918c0.12755,0.15376 0.20679,0.36577 0.20679,0.60039c0,0.23462 -0.07925,0.44662 -0.20679,0.60033c-0.12755,0.15376 -0.30339,0.24923 -0.49809,0.24923c-0.19465,0 -0.37054,-0.09547 -0.49809,-0.24923c-0.12755,-0.15371 -0.20673,-0.36571 -0.20673,-0.60033c0,-0.23462 0.07919,-0.44662 0.20673,-0.60039c0.12755,-0.15371 0.30344,-0.24918 0.49809,-0.24918z" id="ID0.2271407265216112" fill="#ffffff" stroke-linecap="butt"/></g><g data-paper-data="{&quot;origPos&quot;:null}" id="ID0.4398073833435774" stroke-width="2.7674"><path d="M194.32843,197.66704c0.37726,-0.01456 0.75323,0.29775 0.91162,0.68291c0.28733,0.69902 0.31822,1.53242 0.29673,2.31079c-0.01477,0.71848 -0.1289,1.46122 -0.40278,2.10368c-0.15709,0.37704 -0.44033,0.81233 -0.80556,0.80911c-0.35174,-0.00323 -0.65116,-0.27513 -0.84446,-0.76382c-0.24703,-0.61817 -0.36384,-1.35931 -0.36384,-2.22989c0,-0.87063 0.08993,-1.5826 0.36384,-2.22988c0.17988,-0.42723 0.52361,-0.69746 0.84446,-0.68291z" id="ID0.6670762049034238" fill="url(#color-33)" stroke-linecap="round"/><path d="M194.41397,198.09782c0.19471,0 0.37054,0.09547 0.49809,0.24918c0.12755,0.15376 0.20679,0.36577 0.20679,0.60039c0,0.23462 -0.07925,0.44662 -0.20679,0.60033c-0.12755,0.15376 -0.30339,0.24923 -0.49809,0.24923c-0.19465,0 -0.37054,-0.09547 -0.49809,-0.24923c-0.12755,-0.15371 -0.20674,-0.36571 -0.20674,-0.60033c0,-0.23462 0.0792,-0.44662 0.20674,-0.60039c0.12755,-0.15371 0.30344,-0.24918 0.49809,-0.24918z" id="ID0.2271407265216112" fill="#ffffff" stroke-linecap="butt"/></g></g><g data-paper-data="{&quot;origPos&quot;:null}" stroke="none"><path d="M254.36611,139.14896l-0.57325,-0.73991l0.49686,-1.51882l0.879,-0.3894h9.05755l3.97467,-9.15173l0.879,-0.73992l0.879,0.0389l1.07006,0.81781l4.28037,8.91807l9.17225,-0.15575l0.91726,0.54521l0.7261,0.89571l-0.7261,1.59668l-5.23583,6.19204l1.52871,9.38537l0.0764,1.47982l-0.9554,0.50625l-1.68162,-0.3115l-8.79005,-6.231l-7.49064,7.00985l-1.68156,0.31156l-1.22301,-0.66206l-0.42034,-1.83033l0.879,-8.72337z" data-paper-data="{&quot;origPos&quot;:null}" id="ID0.3117544511333108" fill="url(#color-34)" stroke-width="1.43627" stroke-linecap="round"/><path d="M256.14503,139.60323l-0.51335,-0.65023l0.44491,-1.33482l0.78718,-0.34223h8.11139l3.55943,-8.04294l0.78719,-0.6503l0.78719,0.03422l0.9583,0.71874l3.83321,7.83761l8.21411,-0.13689l0.82142,0.47913l0.65024,0.78719l-0.65024,1.40326l-4.6889,5.44181l1.36903,8.24828l0.06844,1.30059l-0.85564,0.44491l-1.50592,-0.27379l-7.87183,-5.47604l-6.70812,6.16056l-1.50593,0.27378l-1.0952,-0.58185l-0.37645,-1.60859l0.78713,-7.66644z" data-paper-data="{&quot;origPos&quot;:null}" id="ID0.3117544511333108" fill="url(#color-35)" stroke-width="1.27408" stroke-linecap="round"/><g data-paper-data="{&quot;origPos&quot;:null}" id="ID0.4398073833435774" stroke-width="2.7674"><path d="M272.1935,138.77373c0.37726,-0.01456 0.75324,0.29775 0.91162,0.68291c0.28733,0.69903 0.31822,1.53241 0.29672,2.31079c-0.01477,0.71848 -0.12888,1.46123 -0.40278,2.10368c-0.15709,0.37705 -0.44033,0.81233 -0.80556,0.80911c-0.35174,-0.00322 -0.65115,-0.27513 -0.84446,-0.76381c-0.24703,-0.61817 -0.36383,-1.35931 -0.36383,-2.22988c0,-0.87063 0.08992,-1.5826 0.36383,-2.22988c0.17987,-0.42723 0.52361,-0.69746 0.84446,-0.68291z" id="ID0.6670762049034238" fill="url(#color-36)" stroke-linecap="round"/><path d="M272.25218,139.23136c0.1947,0 0.37054,0.09547 0.49809,0.24917c0.12755,0.15376 0.20679,0.36577 0.20679,0.60039c0,0.23461 -0.07924,0.44663 -0.20679,0.60033c-0.12755,0.15376 -0.30339,0.24923 -0.49809,0.24923c-0.19465,0 -0.37054,-0.09547 -0.49809,-0.24923c-0.12755,-0.15371 -0.20673,-0.36571 -0.20673,-0.60033c0,-0.23461 0.07919,-0.44663 0.20673,-0.60039c0.12755,-0.15371 0.30344,-0.24917 0.49809,-0.24917z" id="ID0.2271407265216112" fill="#ffffff" stroke-linecap="butt"/></g><g data-paper-data="{&quot;origPos&quot;:null}" id="ID0.4398073833435774" stroke-width="2.7674"><path d="M267.22388,138.74685c0.37726,-0.01456 0.75324,0.29775 0.91162,0.68291c0.28733,0.69903 0.31821,1.53241 0.29672,2.31079c-0.01477,0.71848 -0.12888,1.46122 -0.40278,2.10368c-0.15709,0.37705 -0.44034,0.81233 -0.80557,0.80911c-0.35174,-0.00322 -0.65116,-0.27513 -0.84446,-0.76381c-0.24703,-0.61817 -0.36383,-1.35931 -0.36383,-2.22989c0,-0.87063 0.08994,-1.58259 0.36383,-2.22988c0.17987,-0.42723 0.52361,-0.69747 0.84446,-0.68291z" id="ID0.6670762049034238" fill="url(#color-37)" stroke-linecap="round"/><path d="M267.30943,139.17764c0.1947,0 0.37054,0.09547 0.49809,0.24918c0.12755,0.15376 0.20679,0.36576 0.20679,0.60038c0,0.23461 -0.07924,0.44663 -0.20679,0.60034c-0.12755,0.15376 -0.30339,0.24923 -0.49809,0.24923c-0.19465,0 -0.37054,-0.09547 -0.49809,-0.24923c-0.12755,-0.15371 -0.20673,-0.36571 -0.20673,-0.60034c0,-0.23461 0.0792,-0.44662 0.20673,-0.60038c0.12755,-0.15371 0.30344,-0.24918 0.49809,-0.24918z" id="ID0.2271407265216112" fill="#ffffff" stroke-linecap="butt"/></g></g><g data-paper-data="{&quot;origPos&quot;:null}" stroke="none"><path d="M223.58451,129.57358l-0.57326,-0.73991l0.49686,-1.51882l0.879,-0.38941h9.05755l3.97467,-9.15173l0.879,-0.73991l0.879,0.0389l1.07006,0.81781l4.28037,8.91808l9.17226,-0.15575l0.91725,0.54521l0.72611,0.89571l-0.72611,1.59668l-5.23583,6.19204l1.52871,9.38537l0.0764,1.47982l-0.9554,0.50625l-1.68161,-0.31151l-8.79005,-6.23099l-7.49065,7.00986l-1.68156,0.31155l-1.22302,-0.66207l-0.42034,-1.83032l0.879,-8.72338z" data-paper-data="{&quot;origPos&quot;:null}" id="ID0.3117544511333108" fill="url(#color-38)" stroke-width="1.43627" stroke-linecap="round"/><path d="M225.36343,130.02785l-0.51336,-0.65024l0.44491,-1.33481l0.78718,-0.34224h8.11139l3.55943,-8.04295l0.78718,-0.6503l0.78719,0.03422l0.9583,0.71874l3.83321,7.8376l8.21411,-0.13689l0.82142,0.47914l0.65024,0.78718l-0.65024,1.40327l-4.68891,5.44181l1.36904,8.24828l0.06844,1.30059l-0.85564,0.44491l-1.50593,-0.27379l-7.87183,-5.47604l-6.70813,6.16055l-1.50592,0.27378l-1.09519,-0.58185l-0.37646,-1.6086l0.78714,-7.66643z" data-paper-data="{&quot;origPos&quot;:null}" id="ID0.3117544511333108" fill="url(#color-39)" stroke-width="1.27408" stroke-linecap="round"/><g data-paper-data="{&quot;origPos&quot;:null}" id="ID0.4398073833435774" stroke-width="2.7674"><path d="M241.4119,129.19833c0.37726,-0.01456 0.75323,0.29775 0.91162,0.68291c0.28733,0.69903 0.31822,1.53241 0.29673,2.31079c-0.01477,0.71848 -0.12888,1.46123 -0.40278,2.10369c-0.15709,0.37705 -0.44033,0.81232 -0.80556,0.8091c-0.35174,-0.00322 -0.65116,-0.27513 -0.84447,-0.76381c-0.24703,-0.61817 -0.36383,-1.35931 -0.36383,-2.22988c0,-0.87063 0.08992,-1.58259 0.36383,-2.22988c0.17987,-0.42723 0.52362,-0.69746 0.84447,-0.68291z" id="ID0.6670762049034238" fill="url(#color-40)" stroke-linecap="round"/><path d="M241.47058,129.65598c0.1947,0 0.37054,0.09548 0.49809,0.24919c0.12755,0.15376 0.20679,0.36576 0.20679,0.60038c0,0.23461 -0.07925,0.44663 -0.20679,0.60034c-0.12755,0.15376 -0.30339,0.24923 -0.49809,0.24923c-0.19465,0 -0.37054,-0.09547 -0.49809,-0.24923c-0.12755,-0.15371 -0.20674,-0.36571 -0.20674,-0.60034c0,-0.23461 0.07919,-0.44662 0.20674,-0.60038c0.12755,-0.15371 0.30344,-0.24919 0.49809,-0.24919z" id="ID0.2271407265216112" fill="#ffffff" stroke-linecap="butt"/></g><g data-paper-data="{&quot;origPos&quot;:null}" id="ID0.4398073833435774" stroke-width="2.7674"><path d="M236.44228,129.17147c0.37726,-0.01456 0.75323,0.29774 0.91162,0.6829c0.28733,0.69903 0.31822,1.53241 0.29673,2.31079c-0.01477,0.71848 -0.12889,1.46123 -0.40278,2.10368c-0.15709,0.37705 -0.44033,0.81233 -0.80556,0.80911c-0.35174,-0.00322 -0.65115,-0.27513 -0.84446,-0.76382c-0.24703,-0.61817 -0.36383,-1.35931 -0.36383,-2.22988c0,-0.87063 0.08994,-1.58259 0.36383,-2.22988c0.17987,-0.42723 0.52361,-0.69746 0.84446,-0.6829z" id="ID0.6670762049034238" fill="url(#color-41)" stroke-linecap="round"/><path d="M236.52782,129.60226c0.1947,0 0.37055,0.09547 0.49809,0.24918c0.12755,0.15376 0.20679,0.36576 0.20679,0.60038c0,0.23461 -0.07925,0.44663 -0.20679,0.60033c-0.12755,0.15376 -0.3034,0.24923 -0.49809,0.24923c-0.19465,0 -0.37054,-0.09547 -0.49809,-0.24923c-0.12755,-0.15371 -0.20674,-0.36571 -0.20674,-0.60033c0,-0.23461 0.07919,-0.44662 0.20674,-0.60038c0.12755,-0.15371 0.30344,-0.24918 0.49809,-0.24918z" id="ID0.2271407265216112" fill="#ffffff" stroke-linecap="butt"/></g></g></g></g></svg>