<svg version="1.1" xmlns="http://www.w3.org/2000/svg" xmlns:xlink="http://www.w3.org/1999/xlink" width="103.74817" height="97.41237" viewBox="0,0,103.74817,97.41237"><defs><radialGradient cx="238.9577" cy="180" r="62.6052" gradientUnits="userSpaceOnUse" id="color-1"><stop offset="0" stop-color="#6fc9ff" stop-opacity="0"/><stop offset="1" stop-color="#6fc9ff"/></radialGradient><linearGradient x1="191.2938" y1="134.4617" x2="191.2938" y2="225.5383" gradientUnits="userSpaceOnUse" id="color-2"><stop offset="0" stop-color="#6fc9ff"/><stop offset="1" stop-color="#4395ff"/></linearGradient></defs><g transform="translate(-188.12591,-131.29381)"><g data-paper-data="{&quot;isPaintingLayer&quot;:true}" fill="none" fill-rule="nonzero" stroke="none" stroke-width="none" stroke-linecap="none" stroke-linejoin="miter" stroke-miterlimit="10" stroke-dasharray="" stroke-dashoffset="0" font-family="none" font-weight="none" font-size="none" text-anchor="none" style="mix-blend-mode: normal"><path d="M195.44724,180c0,-24.60581 19.94695,-44.55276 44.55276,-44.55276c24.60581,0 44.55276,19.94695 44.55276,44.55276c0,24.60581 -19.94695,44.55276 -44.55276,44.55276c-24.60581,0 -44.55276,-19.94695 -44.55276,-44.55276z" data-paper-data="{&quot;origPos&quot;:null}" fill="#69c850" stroke="#12a500" stroke-width="2" stroke-linecap="butt"/><path d="M226.69216,169.26978c5.98653,0 11.27881,2.97248 14.48141,7.52203c-0.47195,-0.19912 -0.99064,-0.3092 -1.53505,-0.3092c-2.18258,0 -3.95192,1.76934 -3.95192,3.95192c0,2.18258 1.76934,3.95192 3.95192,3.95192c1.8647,0 3.42776,-1.29147 3.84351,-3.02875c0.58862,1.76266 0.90745,3.64879 0.90745,5.6094c0,9.77396 -7.92336,17.69731 -17.69731,17.69731c-2.15919,0 -4.22805,-0.38667 -6.14114,-1.09456c6.98322,-0.32826 12.5441,-6.09388 12.5441,-13.15831c0,-7.27529 -5.89778,-13.17307 -13.17307,-13.17307c-4.14931,0 -7.85055,1.9184 -10.26514,4.91664c2.09612,-7.43551 8.92925,-12.88534 17.03526,-12.88534z" data-paper-data="{&quot;origPos&quot;:null}" fill="#e0e0e0" stroke="#12a500" stroke-width="0" stroke-linecap="butt"/><path d="M234.19651,186.75114c0,-2.69978 0.60454,-5.25837 1.68564,-7.54777c-0.12691,0.38745 -0.19554,0.8013 -0.19554,1.23117c0,2.18258 1.76934,3.95192 3.95192,3.95192c2.18258,0 3.95192,-1.76934 3.95192,-3.95192c0,-2.18258 -1.76934,-3.95192 -3.95192,-3.95192c-1.30416,0 -2.46078,0.63173 -3.18054,1.60588c3.0326,-5.39216 8.80884,-9.03468 15.43584,-9.03468c7.66084,0 14.18477,4.86767 16.64763,11.67883c-2.37304,-2.30936 -5.61364,-3.73172 -9.18646,-3.73172c-7.27529,0 -13.17307,5.89778 -13.17307,13.17307c0,6.8823 5.27784,12.5319 12.00689,13.12216c-1.95584,0.74457 -4.0778,1.1523 -6.29499,1.1523c-9.77396,0 -17.69731,-7.92335 -17.69731,-17.69731z" data-paper-data="{&quot;origPos&quot;:null}" fill="#e0e0e0" stroke="#12a500" stroke-width="0" stroke-linecap="butt"/><path d="M221.86561,166.10606c0,-6.30274 3.29478,-11.83594 8.25595,-14.9712c-2.26476,2.36577 -3.6561,5.57445 -3.6561,9.1081c0,7.27529 5.89778,13.17307 13.17307,13.17307c7.27529,0 13.17307,-5.89778 13.17307,-13.17307c0,-3.41075 -1.29624,-6.51873 -3.42298,-8.85821c4.74627,3.17419 7.87163,8.58276 7.87163,14.7213c0,8.96645 -6.66822,16.37546 -15.31612,17.53849c0.99707,-0.71741 1.64632,-1.88789 1.64632,-3.21002c0,-2.18258 -1.76934,-3.95192 -3.95192,-3.95192c-2.18258,0 -3.95192,1.76934 -3.95192,3.95192c0,1.33688 0.66383,2.51872 1.67983,3.23387c-8.73748,-1.08164 -15.50083,-8.53215 -15.50083,-17.56234z" data-paper-data="{&quot;origPos&quot;:null}" fill="#e0e0e0" stroke="#12a500" stroke-width="0" stroke-linecap="butt"/><path d="M225.62835,180c0,-7.93724 6.43441,-14.37165 14.37165,-14.37165c7.93724,0 14.37165,6.43441 14.37165,14.37165c0,7.93724 -6.4344,14.37165 -14.37165,14.37165c-7.93724,0 -14.37165,-6.43441 -14.37165,-14.37165z" data-paper-data="{&quot;origPos&quot;:null}" fill="none" stroke="#e0e0e0" stroke-width="7.5" stroke-linecap="butt"/><path d="M191.2938,134.4617h97.4124v91.0766h-97.4124z" data-paper-data="{&quot;origPos&quot;:null}" id="ID0.6911031012423337" fill="url(#color-1)" stroke="url(#color-2)" stroke-width="6.33577" stroke-linecap="round"/></g></g></svg>