<svg version="1.1" xmlns="http://www.w3.org/2000/svg" xmlns:xlink="http://www.w3.org/1999/xlink" width="109.94809" height="103.23369" viewBox="0,0,109.94809,103.23369"><defs><radialGradient cx="247.77291" cy="186.17381" r="66.3464" gradientUnits="userSpaceOnUse" id="color-1"><stop offset="0" stop-color="#6fc9ff" stop-opacity="0"/><stop offset="1" stop-color="#6fc9ff"/></radialGradient><linearGradient x1="298.28511" y1="137.91421" x2="298.28511" y2="234.43351" gradientUnits="userSpaceOnUse" id="color-2"><stop offset="0" stop-color="#6fc9ff"/><stop offset="1" stop-color="#4395ff"/></linearGradient></defs><g transform="translate(-191.69421,-134.55702)"><g data-paper-data="{&quot;isPaintingLayer&quot;:true}" fill="none" fill-rule="nonzero" stroke="none" stroke-width="none" stroke-linecap="none" stroke-linejoin="miter" stroke-miterlimit="10" stroke-dasharray="" stroke-dashoffset="0" font-family="none" font-weight="none" font-size="none" text-anchor="none" style="mix-blend-mode: normal"><g><g stroke="none"><path d="M272.66667,177.33334c0,4.23418 3.5071,7.66666 7.83333,7.66666c4.32623,0 7.83333,-3.43248 7.83333,-7.66666c0,-4.23418 -3.5071,-7.66667 -7.83333,-7.66667c-4.32623,0 -7.83333,3.43249 -7.83333,7.66667z" data-paper-data="{&quot;origPos&quot;:null}" fill="#1dc90b" stroke-width="0" stroke-linecap="butt"/><g id="ID0.20286902273073792" fill="#fff346" stroke-width="0.88955" stroke-linecap="round"><path d="M269.27135,165.96051l-34.21156,1.72485l14.08712,-21.34625l4.95916,0.21556l0.79068,4.8155l3.73735,-5.74983l6.10922,-0.21557l-0.93433,7.04357l5.46236,-6.46861l8.91223,2.51554z" id="ID0.07827324094250798"/><path d="M250.94367,146.78821c3.41836,1.87579 5.78733,6.07174 6.25304,9.91848c0.33918,2.79736 -1.59138,5.48111 -4.16008,7.36691c-2.57015,1.88742 -6.59514,2.44378 -10.03499,3.05461c-2.73401,0.48155 -5.42924,0.54781 -8.08568,0.4313c-1.63291,-0.12508 -4.36417,0.42257 -4.67168,-1.1499c-0.79779,-4.08251 -0.07773,-8.74272 2.15615,-12.21845c2.00813,-3.12507 6.10195,-4.39003 9.5591,-5.74984c2.82903,-1.11257 6.30184,-3.08629 8.98414,-1.65311z" id="ID0.3567104428075254"/></g><path d="M224.03568,188.09357c1.51397,1.54807 2.22725,3.29523 1.78028,4.87546c-0.44697,1.58023 -1.96983,2.69474 -4.07039,3.22024c-2.10073,0.52567 -4.77865,0.46119 -7.53238,-0.31769c-2.75388,-0.77904 -5.06872,-2.12706 -6.58254,-3.6753c-1.51397,-1.54807 -2.22725,-3.29522 -1.78028,-4.87545c0.44697,-1.58023 1.96983,-2.69474 4.07039,-3.22025c2.10056,-0.52567 4.77866,-0.46119 7.53239,0.31786c2.75373,0.77904 5.06871,2.12706 6.58253,3.67513z" id="ID0.16623971331864595" fill="#fff346" stroke-width="0.83998" stroke-linecap="butt"/><path d="M219.69946,193.47045c1.86205,1.1053 3.00177,2.60925 2.97737,4.25137c-0.02424,1.64195 -1.20824,3.1115 -3.10212,4.16105c-1.89405,1.04971 -4.49797,1.67815 -7.35948,1.63565c-2.8615,-0.04234 -5.44572,-0.74786 -7.30777,-1.85316c-1.86205,-1.1053 -3.00177,-2.60926 -2.97737,-4.25122c0.02424,-1.64212 1.20808,-3.11165 3.10213,-4.1612c1.89388,-1.04971 4.49797,-1.67816 7.35948,-1.63566c2.8615,0.0425 5.44571,0.74786 7.30776,1.85316z" id="ID0.16623971331864595" fill="#fff346" stroke-width="0.83998" stroke-linecap="butt"/><path d="M218.50351,210.41536c-2.75373,0.77904 -5.43182,0.84353 -7.53238,0.31786c-2.10056,-0.52567 -3.62342,-1.64019 -4.07039,-3.22025c-0.44697,-1.58023 0.2663,-3.32738 1.78028,-4.87545c1.51381,-1.54824 3.82865,-2.89625 6.58254,-3.67529c2.75373,-0.77904 5.43166,-0.84337 7.53238,-0.31786c2.10056,0.52567 3.62342,1.64018 4.07039,3.22041c0.44697,1.58023 -0.26631,3.32722 -1.78028,4.87545c-1.51381,1.54807 -3.82881,2.89608 -6.58254,3.67513z" id="ID0.16623971331864595" fill="#fff346" stroke-width="0.83998" stroke-linecap="butt"/><path d="M276.11615,169.99602c6.1939,6.1939 10.02853,14.74869 10.02853,24.18902c0,9.44033 -3.83463,17.99511 -10.02853,24.18901c-6.1939,6.1939 -14.74869,10.02853 -24.18902,10.02853c-9.44033,0 -17.99511,-3.83462 -24.18901,-10.02853c-6.1939,-6.1939 -10.02853,-14.74868 -10.02853,-24.18901c0,-9.44033 3.83462,-17.99511 10.02853,-24.18902c6.1939,-6.1939 14.74868,-10.02853 24.18901,-10.02853c9.44033,0 17.99512,3.83462 24.18902,10.02853z" id="ID0.1863371403887868" fill="#1dc90b" stroke-width="1" stroke-linecap="butt"/><path d="M287.66333,173.9082c1.68914,2.47078 2.73514,5.88526 2.73514,9.65201c0,3.76675 -1.046,7.18123 -2.73514,9.65201c-1.6893,2.47239 -4.02288,4.00269 -6.59691,4.00269c-2.57403,0 -4.90777,-1.5303 -6.59692,-4.00269c-1.68914,-2.47078 -2.73514,-5.88526 -2.73514,-9.65201c0,-3.76675 14.23967,-12.1244 15.92897,-9.65201z" data-paper-data="{&quot;origPos&quot;:null}" id="ID0.39472739631310105" fill="#ffffff" stroke-width="0.91936" stroke-linecap="butt"/><path d="M276.75299,184.28739c0,3.76675 -1.0641,7.18124 -2.78249,9.65201c-1.71839,2.47239 -4.09253,4.00268 -6.71116,4.00268c-2.61863,0 -4.99261,-1.53029 -6.711,-4.00268c-1.71855,-2.47078 -2.78265,-5.88526 -2.78265,-9.65201c0,-3.76675 1.0641,-7.18124 2.78265,-9.65202c1.71839,-2.47239 16.20465,5.88526 16.20465,9.65202z" data-paper-data="{&quot;origPos&quot;:null}" id="ID0.39472739631310105" fill="#ffffff" stroke-width="0.9259" stroke-linecap="butt"/><path d="M285.81647,194.27067c1.67492,1.97468 2.71107,4.70238 2.71107,7.71126c0,3.00888 -1.03615,5.73659 -2.71107,7.71127c-1.67492,1.97468 -3.98846,3.19633 -6.54019,3.19633c-2.55173,0 -4.86543,-1.22165 -6.54035,-3.19633c-1.67476,-1.97468 -2.7109,-4.70239 -2.7109,-7.71127c0,-3.00888 1.03614,-5.73658 2.7109,-7.71126c1.67492,-1.97468 3.98862,-3.19633 6.54035,-3.19633c2.55173,0 4.86527,1.22165 6.54019,3.19633z" id="ID0.2919205715879798" fill="#ffb197" stroke-width="0.99783" stroke-linecap="round"/><path d="M283.96621,201.09203c0.1868,0.83011 0.08242,1.80096 -0.35906,2.71365c-0.44148,0.91252 -1.13779,1.59704 -1.90439,1.96596c-0.76741,0.36714 -1.6056,0.41982 -2.33309,0.06787c-0.72766,-0.35179 -1.20663,-1.0418 -1.39505,-1.87126c-0.1868,-0.83011 -0.08241,-1.80097 0.35907,-2.71349c0.44148,-0.91269 1.13778,-1.59719 1.90454,-1.96595c0.76725,-0.3673 1.60544,-0.41998 2.3331,-0.06803c0.72749,0.35195 1.20646,1.04179 1.39488,1.87125z" id="ID0.41036201547831297" fill="#a27060" stroke-width="0.73984" stroke-linecap="butt"/><path d="M273.32865,184.16457c0.37975,0.67223 0.61568,1.6014 0.61568,2.62752c0,1.02612 -0.23593,1.95529 -0.61568,2.62752c-0.37975,0.67223 -0.90492,1.08915 -1.48505,1.08915c-0.58013,0 -1.1053,-0.41691 -1.48505,-1.08915c-0.37975,-0.67223 -0.61567,-1.6014 -0.61567,-2.62752c0,-1.02612 0.23593,-1.95529 0.61567,-2.62752c0.37975,-0.67223 0.90492,-1.08914 1.48505,-1.08914c0.58013,0 1.1053,0.41691 1.48505,1.08914z" id="ID0.26917251013219357" fill="#001966" stroke-width="1" stroke-linecap="butt"/><path d="M283.91306,184.16457c0.37975,0.67223 0.61568,1.6014 0.61568,2.62752c0,1.02612 -0.23593,1.95529 -0.61568,2.62752c-0.37975,0.67223 -0.90492,1.08915 -1.48505,1.08915c-0.58013,0 -1.1053,-0.41691 -1.48505,-1.08915c-0.37975,-0.67223 -0.61567,-1.6014 -0.61567,-2.62752c0,-1.02612 0.23592,-1.95529 0.61567,-2.62752c0.37975,-0.67223 0.90492,-1.08914 1.48505,-1.08914c0.58013,0 1.1053,0.41691 1.48505,1.08914z" id="ID0.26917251013219357" fill="#001966" stroke-width="1" stroke-linecap="butt"/><g id="ID0.5137764848768711" fill="#ffffff"><path d="M232.11716,170.26507c3.84674,1.23409 7.62934,4.00802 10.43316,8.02492c2.80398,4.01691 4.10368,8.52392 3.93578,12.56022c-0.1658,4.03662 -1.79919,7.60235 -4.85735,9.73701c-3.05817,2.13466 -6.96842,2.43846 -10.81468,1.20243c-3.84659,-1.23409 -7.62933,-4.00818 -10.43315,-8.02508c-2.80382,-4.01674 -4.10352,-8.52393 -3.93563,-12.56022c0.1658,-4.03662 1.79903,-7.60235 4.85736,-9.73701c3.05817,-2.13466 6.96826,-2.43846 10.81452,-1.20226z" id="ID0.9694409435614944" stroke-width="0.90437" stroke-linecap="butt"/><path d="M217.50583,160.63888c4.38243,1.7562 10.58021,5.40887 15.65232,8.91773c3.20603,2.22079 6.67286,5.00699 8.08326,7.26478c3.05606,5.04916 4.32135,9.59691 4.44723,13.23488c0.03215,0.9101 -2.61119,-0.90525 -3.9416,-1.63113c-5.20704,-2.84405 -9.94837,-4.86899 -15.65216,-8.91773c-5.70395,-4.0489 -10.47857,-8.27652 -13.5823,-11.83401c-3.10374,-3.55766 -4.53659,-6.44518 -3.56217,-7.81792c0.97457,-1.37291 4.17316,-0.97296 8.55543,0.78341z" id="ID0.4074811181053519" stroke-width="1.53181" stroke-linecap="round"/><path d="M216.10028,170.38061c3.24982,0.95244 7.25121,2.95443 11.22917,5.77812c3.97796,2.82369 7.18819,5.94068 9.15931,8.6944c1.97097,2.75356 2.70314,5.1437 1.72857,6.5166c-0.97441,1.37274 -3.47234,1.47018 -6.72199,0.51791c-3.24982,-0.95227 -7.2512,-2.95442 -11.22916,-5.77812c-3.97796,-2.82369 -7.18819,-5.94069 -9.15915,-8.69424c-1.97113,-2.75373 -2.7033,-5.14387 -1.72873,-6.5166c0.97441,-1.37291 3.47234,-1.47034 6.72199,-0.51807z" id="ID0.4074811181053519" stroke-width="1.13742" stroke-linecap="butt"/><path d="M218.02309,181.86494c3.06124,0.81864 6.80263,2.63609 10.49344,5.25601c3.69097,2.61992 6.64086,5.55221 8.42357,8.17197c1.7827,2.61992 2.39822,4.92749 1.42381,6.30023c-0.97457,1.37274 -3.35582,1.55292 -6.41722,0.73444c-3.0614,-0.81864 -6.80263,-2.63608 -10.49344,-5.25601c-3.69097,-2.61992 -6.64086,-5.55221 -8.42357,-8.17213c-1.7827,-2.61977 -2.39822,-4.92733 -1.42381,-6.30007c0.97441,-1.37274 3.35582,-1.55308 6.41722,-0.73444z" id="ID0.4074811181053519" stroke-width="1.07474" stroke-linecap="butt"/></g><path d="M228.55608,219.70452c0,0 5.854,-8.07253 25.02483,-8.07253c19.17083,0 23.14124,6.72711 23.14124,6.72711c0,0 -5.31584,9.95613 -24.48667,9.95613c-19.17084,0 -23.67942,-8.61069 -23.67942,-8.61069z" data-paper-data="{&quot;origPos&quot;:null}" fill="#ffffff" stroke-width="0" stroke-linecap="butt"/></g><path d="M298.28511,234.43351h-103.2337v-96.5193h103.2337z" data-paper-data="{&quot;origPos&quot;:null,&quot;index&quot;:null}" id="ID0.6911031012423337" fill="url(#color-1)" stroke="url(#color-2)" stroke-width="6.71439" stroke-linecap="round"/></g></g></g></svg>