<svg version="1.1" xmlns="http://www.w3.org/2000/svg" xmlns:xlink="http://www.w3.org/1999/xlink" width="174.50937" height="186.16959" viewBox="0,0,174.50937,186.16959"><defs><radialGradient cx="309.85157" cy="164.9988" r="39.85431" gradientUnits="userSpaceOnUse" id="color-1"><stop offset="0" stop-color="#fffbc6"/><stop offset="1" stop-color="#e6d380"/></radialGradient><radialGradient cx="333.67276" cy="153.58318" r="27.53218" gradientUnits="userSpaceOnUse" id="color-2"><stop offset="0" stop-color="#fffbc6"/><stop offset="1" stop-color="#e6d380"/></radialGradient><radialGradient cx="329.58929" cy="162.90611" r="11.12337" gradientUnits="userSpaceOnUse" id="color-3"><stop offset="0" stop-color="#4f492c"/><stop offset="1" stop-color="#000000"/></radialGradient><radialGradient cx="306.40033" cy="165.4439" r="13.01278" gradientUnits="userSpaceOnUse" id="color-4"><stop offset="0" stop-color="#4f492c"/><stop offset="1" stop-color="#000000"/></radialGradient><radialGradient cx="304.5459" cy="152.75354" r="55.3177" gradientUnits="userSpaceOnUse" id="color-5"><stop offset="0" stop-color="#ffffff"/><stop offset="1" stop-color="#e5e5e5"/></radialGradient></defs><g transform="translate(-165.84757,-103.68722)"><g data-paper-data="{&quot;isPaintingLayer&quot;:true}" fill="none" fill-rule="nonzero" stroke="none" stroke-width="none" stroke-linecap="none" stroke-linejoin="miter" stroke-miterlimit="10" stroke-dasharray="" stroke-dashoffset="0" font-family="none" font-weight="none" font-size="none" text-anchor="none" style="mix-blend-mode: normal"><g data-paper-data="{&quot;origPos&quot;:null,&quot;origRot&quot;:0}" stroke="none" stroke-linecap="butt"><g data-paper-data="{&quot;origPos&quot;:null,&quot;index&quot;:null,&quot;origRot&quot;:0}" stroke-width="0"><path d="M249.95554,214.84966c-3.95447,-3.55235 -1.39407,-13.82538 5.11089,-21.0667c6.50497,-7.24131 13.7698,-13.15323 13.7698,-13.15323l11.98937,10.52417c0,0 -8.78646,12.56858 -14.01846,18.39284c-6.50497,7.24131 -12.89711,8.85526 -16.8516,5.30292z" data-paper-data="{&quot;origRot&quot;:0,&quot;origPos&quot;:null}" fill="#41c3ff"/><g data-paper-data="{&quot;origPos&quot;:null}" fill="#ffffff"><path d="M278.77624,182.69464c-7.26472,-5.94764 -15.923,-13.70948 -9.21688,-20.98774c4.86503,-5.2801 18.89013,-6.75891 24.64831,0.65687c6.28348,8.09232 13.18132,14.30123 4.91428,21.7294c-7.71921,6.93592 -13.08098,4.54909 -20.34571,-1.39853z" data-paper-data="{&quot;origRot&quot;:0,&quot;origPos&quot;:null}"/><path d="M272.83369,187.93566c-5.60274,-4.5993 -12.89219,-8.75405 -9.021,-12.77079c4.33068,-4.49349 5.55307,-3.00942 14.52308,4.73273c10.2185,8.81975 13.38596,8.30741 8.87893,13.46347c-2.6318,3.01079 -8.77826,-0.82613 -14.381,-5.42541z" data-paper-data="{&quot;origRot&quot;:0,&quot;origPos&quot;:null}"/></g></g><path d="M295.39552,168.78993l-5.86584,6.3675l1.36667,7.73693l-6.35946,-5.00564l-7.02107,4.03376l1.93786,-7.91936l-7.3398,-5.77609l9.16918,0.08801l4.15177,-7.30979l1.97556,8.12358z" data-paper-data="{&quot;origPos&quot;:null,&quot;origRot&quot;:0}" fill="#ffe008" stroke-width="NaN"/></g><g data-paper-data="{&quot;origPos&quot;:null,&quot;origRot&quot;:0}" stroke="none" stroke-width="0" stroke-linecap="butt"><path d="M269.92995,253.82256c-0.57511,4.53295 4.17953,7.21998 3.83714,8.19936c-1.38529,3.96259 -3.84902,6.48262 -10.96242,7.1655c-8.81153,0.84591 -15.29016,-0.91486 -21.99269,-6.69714c-4.56501,-3.93823 0.40595,-5.71006 3.37515,-10.95724c1.06544,-1.88283 2.06325,-4.41782 3.52924,-9.65285c1.83287,-6.54516 9.94289,-23.69388 9.94289,-23.69388c0,0 15.13799,2.25553 19.16842,10.272c3.52346,7.00812 -5.56831,14.88579 -6.89774,25.36424z" data-paper-data="{&quot;origPos&quot;:null}" fill="#5063f7"/><path d="M272.98407,276.94676c-0.70155,3.83486 -4.93437,4.92779 -8.81792,5.26873c-2.54507,0.22343 -14.2342,-2.27041 -19.44104,-6.75295c-1.61649,-1.39164 -2.64643,-4.06793 -2.64643,-4.06793c0,0 -5.0912,-0.15926 -4.81483,-1.58961c0.21938,-1.13544 0.54512,-3.07768 1.75533,-3.46638c5.20936,-1.67315 16.44644,0.38883 21.82857,1.37344c7.38846,1.35164 12.82207,5.48616 12.13631,9.23472z" data-paper-data="{&quot;origPos&quot;:null}" fill="#f8dca0"/><path d="M275.71903,272.46871c-2.16538,4.24282 -7.24489,6.62949 -15.59765,5.10144c-8.35276,-1.52805 -16.40182,-8.00727 -16.40182,-8.00727c0,0 -6.10531,-0.78789 -5.94382,-2.36175c0.33423,-3.25745 1.23491,-8.50748 2.48165,-8.45645c4.60259,0.1884 3.64423,0.64089 9.74097,0.45978c3.94734,-0.11726 10.95611,-2.57626 14.84073,-1.86561c8.35276,1.52805 14.44529,8.14397 10.87995,15.12987z" data-paper-data="{&quot;origPos&quot;:null}" fill="#8d6431"/></g><g data-paper-data="{&quot;origPos&quot;:null,&quot;origRot&quot;:0}" stroke="none" stroke-width="0" stroke-linecap="butt"><path d="M223.59661,261.95189c-0.8998,4.47981 3.64915,7.502 3.23718,8.45422c-1.66684,3.85263 -4.30552,6.18885 -11.44962,6.35809c-8.84956,0.20965 -15.18469,-2.01275 -21.45376,-8.26234c-4.26978,-4.25652 0.81579,-5.66605 4.15487,-10.68597c1.19816,-1.80128 2.3758,-4.25789 4.2147,-9.37386c2.2991,-6.3963 11.6221,-22.91699 11.6221,-22.91699c0,0 7.11446,1.77563 11.73765,3.92175c3.64856,1.69368 9.20739,6.88544 9.20739,6.88544c0,0 -9.19051,15.26402 -11.27051,25.61965z" data-paper-data="{&quot;origPos&quot;:null}" fill="#5063f7"/><path d="M224.97881,285.23591c-0.97568,3.77443 -5.27617,4.55995 -9.17419,4.62055c-2.55455,0.03971 -14.03392,-3.2888 -18.9047,-8.1344c-1.51216,-1.50435 -2.34686,-4.24781 -2.34686,-4.24781c0,0 -5.06654,-0.5252 -4.68796,-1.93196c0.30052,-1.1167 0.76517,-3.03048 2.00021,-3.33108c5.31625,-1.29395 16.37583,1.57129 21.67316,2.94063c7.27204,1.8798 12.39405,6.39459 11.44033,10.08409z" data-paper-data="{&quot;origPos&quot;:null}" fill="#f8dca0"/><path d="M228.02892,280.96628c-2.46508,4.07601 -7.70315,6.09097 -15.9243,3.96583c-8.22115,-2.12514 -15.78312,-9.16677 -15.78312,-9.16677c0,0 -6.03278,-1.22519 -5.75846,-2.78334c0.56776,-3.22496 1.8439,-8.39656 3.08373,-8.25595c4.5771,0.51911 3.58867,0.90147 9.68263,1.15954c3.94555,0.16709 11.11309,-1.78119 14.93651,-0.79286c8.22115,2.12514 13.8218,9.16232 9.76301,15.87356z" data-paper-data="{&quot;origPos&quot;:null}" fill="#8d6431"/></g><g data-paper-data="{&quot;origPos&quot;:null,&quot;origRot&quot;:0}"><path d="M262.9756,218.7484c-2.64074,21.01186 -11.6359,29.04737 -32.32841,25.84189c-21.67906,-3.3583 -21.13248,-15.97467 -19.67905,-26.03223c1.57673,-10.91078 1.94574,-19.97696 11.36471,-25.70532c7.01742,-4.2678 13.47759,-0.86478 21.60644,0.30993c15.03168,2.17225 21.62483,4.98941 19.03631,25.58572z" data-paper-data="{&quot;origPos&quot;:null}" fill="#5063f7" stroke="none" stroke-width="0" stroke-linecap="butt"/><path d="M263.30885,218.19032c0,0 -17.35262,-0.48687 -29.441,-1.82962c-11.08795,-1.23163 -21.68342,-6.56881 -21.68342,-6.56881c0,0 0.99679,-13.7949 9.65318,-17.96406c5.66362,-2.72775 11.63284,-3.02647 19.11623,-2.12775c7.4834,0.89872 15.26124,4.36676 18.57589,7.95071c7.82957,8.46572 3.77912,20.53952 3.77912,20.53952z" data-paper-data="{&quot;origPos&quot;:null}" fill="#41c3ff" stroke="none" stroke-width="0" stroke-linecap="butt"/><path d="M252.57857,195.31172c0,0 1.13995,7.07607 0.97903,11.20845c-0.2067,5.30773 -2.7492,14.96916 -2.7492,14.96916" data-paper-data="{&quot;origPos&quot;:null,&quot;origRot&quot;:0}" fill="none" stroke="#5063f7" stroke-width="10" stroke-linecap="round"/><path d="M231.21912,192.73902c0,0 0.21745,7.16401 -0.47529,11.24108c-0.88977,5.23669 -4.65758,14.48933 -4.65758,14.48933" data-paper-data="{&quot;origPos&quot;:null}" fill="none" stroke="#5063f7" stroke-width="10" stroke-linecap="round"/><path d="M223.37561,221.72925l1.06939,-4.05406l-2.33689,-3.00271l3.85586,0.70296l2.09235,-3.31655l0.96354,3.829l4.44998,0.81083l-3.94522,2.03844l-0.12225,4.06936l-2.6851,-3.03036z" data-paper-data="{&quot;origPos&quot;:null,&quot;origRot&quot;:0}" fill="#ffe008" stroke="none" stroke-width="NaN" stroke-linecap="butt"/><path d="M248.54209,225.12167l0.50168,-4.16261l-2.72764,-2.65278l3.91589,0.16599l1.61635,-3.57282l1.48099,3.66012l4.5192,0.19111l-3.62737,2.56165l0.43858,4.04749l-3.07635,-2.63228z" data-paper-data="{&quot;origPos&quot;:null,&quot;origRot&quot;:0}" fill="#ffe008" stroke="none" stroke-width="NaN" stroke-linecap="butt"/></g><g data-paper-data="{&quot;origPos&quot;:null,&quot;origRot&quot;:0}" stroke="none" stroke-linecap="butt"><g data-paper-data="{&quot;origPos&quot;:null}" stroke-width="0"><path d="M199.65595,224.38189l-7.51622,-14.07159c0,0 7.41144,-5.72707 15.94422,-10.41138c8.53278,-4.68432 19.11897,-10.83715 13.17707,1.3226c2.5581,4.65974 4.53042,8.01615 -4.00236,12.70047z" data-paper-data="{&quot;origRot&quot;:0,&quot;origPos&quot;:null}" fill="#41c3ff"/><g data-paper-data="{&quot;origPos&quot;:null}" fill="#ffffff"><path d="M188.61287,240.58869c-9.11613,6.3575 -13.59043,-1.7734 -20.03857,-9.73514c-5.90906,-7.29612 -1.27414,-20.61558 4.97541,-24.14987c8.61458,-4.87176 14.19994,5.32707 18.33624,13.75566c4.1363,8.4286 5.23895,14.19314 -3.27309,20.12935z" data-paper-data="{&quot;origRot&quot;:0,&quot;origPos&quot;:null}"/><path d="M200.34962,231.1058c-6.04723,3.21396 -4.8268,0.24648 -11.08682,-11.71251c-5.49517,-10.49785 -6.66176,-12.02618 -1.29986,-15.21936c4.79299,-2.85438 7.17794,5.18989 10.37998,11.69305c3.20203,6.50316 5.53786,13.3621 2.0067,15.23882z" data-paper-data="{&quot;origRot&quot;:0,&quot;origPos&quot;:null}"/></g></g><path d="M169.39802,221.36596l8.22687,-2.6966l2.58159,-7.42047l3.10923,7.47208l8.09674,-0.09582l-5.55515,5.96755l3.5891,8.62289l-7.96102,-4.55014l-7.19033,4.35537l2.2387,-8.05504z" data-paper-data="{&quot;origPos&quot;:null,&quot;origRot&quot;:0}" fill="#ffe008" stroke-width="NaN"/></g><g data-paper-data="{&quot;origPos&quot;:null}"><path d="M284.04073,142.37613c-0.56793,3.79329 -11.88998,8.6 -20.8,8.6c-7.1797,0 -5.4,-6.75492 -5.4,-10.4c0,-3.64508 14.0703,-2.85 21.25,-2.85c7.1797,0 5.31761,2.19464 4.95,4.65z" data-paper-data="{&quot;origPos&quot;:null}" fill="#297299" stroke="none" stroke-width="0" stroke-linecap="butt"/><path d="M208.88382,183.75775c-1.88302,-1.368 -2.34219,-3.637 -0.85476,-6.37559c1.72578,-3.17745 1.08123,-8.21818 2.96425,-6.85018c0,0 7.23293,1.02169 7.79114,3.9154c0,0 3.0507,8.35652 1.80057,9.69315c0,0 -1.78179,1.32182 -6.42716,1.10231c-2.51693,-0.11893 -3.39102,-0.11707 -5.27403,-1.48508z" data-paper-data="{&quot;origRot&quot;:0,&quot;origPos&quot;:null}" fill="#e7be7a" stroke="none" stroke-width="0" stroke-linecap="butt"/><path d="M215.62406,144.65946c4.31396,1.0071 37.24301,-2.16822 43.0368,-1.8462c8.57182,0.47642 6.20204,8.21361 6.80713,16.77732c0.69572,9.84642 7.56286,14.33038 4.11388,23.57918c-1.32977,3.56593 -5.57109,6.18206 -8.56062,8.53723c-1.69594,1.33607 -4.01231,5.30061 -14.80054,5.5225c-18.91647,-3.76969 -24.18277,-8.72429 -27.36091,-12.69741c-3.28722,-3.79189 -1.91707,-5.03225 -5.0923,-9.83925c-0.97333,-1.47352 -2.12747,-2.25956 -2.322,-2.25956c-10.37042,0 -16.07143,-8.56649 -16.07143,-16.66666c0,-8.10018 3.70101,-14.66666 9.5,-14.66666c5.79899,0 9.25,3.20935 10.75,3.55952z" data-paper-data="{&quot;origPos&quot;:null}" fill="#ffdebd" stroke="none" stroke-width="0" stroke-linecap="butt"/><path d="M263.80739,149.86587c0.35235,4.88885 -1.81808,9.02906 -4.84779,9.24741c-3.02971,0.21836 -5.7714,-3.56782 -6.12375,-8.45666c-0.35235,-4.88885 1.81808,-9.02905 4.84779,-9.24741c3.02971,-0.21836 5.77141,3.56782 6.12376,8.45666z" data-paper-data="{&quot;origPos&quot;:null,&quot;origRot&quot;:0}" fill="#ffffff" stroke="none" stroke-width="0" stroke-linecap="butt"/><path d="M226.03406,152.48292c0,2.60849 3.85805,10.02393 1.51211,11.16446c-2.72909,1.32681 -3.54387,-2.9338 -7.19783,-2.25017c-2.71433,0.50783 -4.45714,-4.78172 -4.45714,-9.2c0,-4.41828 -0.01669,-8.69821 2.74286,-8.8c11.61857,-0.42857 7.4,4.66744 7.4,9.08571z" data-paper-data="{&quot;origPos&quot;:null}" fill="#e7be7a" stroke="none" stroke-width="0" stroke-linecap="butt"/><path d="M250.78418,154.87059c0.57094,4.86816 -1.41189,9.10142 -4.42877,9.45524c-3.01689,0.35383 -5.92541,-3.30577 -6.49635,-8.17393c-0.57094,-4.86816 1.41189,-9.10142 4.42877,-9.45524c3.01689,-0.35383 5.92541,3.30577 6.49635,8.17393z" data-paper-data="{&quot;origPos&quot;:null,&quot;origRot&quot;:0}" fill="#ffffff" stroke="none" stroke-width="0" stroke-linecap="butt"/><path d="M247.4912,148.72225c0.952,0 1.814,0.695 2.439,1.817c0.624,1.122 1.011,2.672 1.011,4.383c0,1.711 -0.387,3.261 -1.011,4.383c-0.625,1.122 -1.487,1.817 -2.439,1.817c-0.952,0 -1.814,-0.695 -2.439,-1.817c-0.624,-1.122 -1.011,-2.672 -1.011,-4.383c0,-1.711 0.387,-3.261 1.011,-4.383c0.625,-1.122 1.487,-1.817 2.439,-1.817z" data-paper-data="{&quot;origPos&quot;:null}" id="ID0.2989244391210377" fill="#000000" stroke="#ffe008" stroke-width="2" stroke-linecap="butt"/><path d="M260.49119,144.67225c0.952,0 1.814,0.695 2.439,1.817c0.624,1.122 0.87951,2.6256 1.011,4.383c0.21744,2.90618 -2.09767,6.48633 -2.81667,6.73333c-1.256,0.26 -2.17928,-1.27767 -3.18333,-2.93333c-1.00405,-1.65566 -0.89093,-2.7456 -0.9,-3.8c-0.013,-1.501 0.387,-3.261 1.011,-4.383c0.625,-1.122 1.487,-1.817 2.439,-1.817z" data-paper-data="{&quot;origPos&quot;:null}" id="ID0.2989244391210377" fill="#000000" stroke="#ffe008" stroke-width="2" stroke-linecap="round"/><path d="M269.93468,115.35078c2.39648,14.94461 -0.49216,15.79448 -8.52168,20.57884c-11.69967,6.97121 -27.00365,5.55994 -39.50062,10.97342c-3.28137,1.42143 -11.64483,-2.03217 -15.22084,-2.03217c-7.31398,0 -11.44089,-5.22725 -11.74313,-11.45342c-0.66666,-13.7335 6.09582,-13.78676 13.4098,-13.78676c0,0 8.04926,1.33414 10.82961,5.60456c0,0 11.19763,-18.21899 23.00151,-20.46979c15.1949,-2.89741 26.02436,-0.14688 27.74535,10.58532z" data-paper-data="{&quot;origPos&quot;:null}" fill="#41c3ff" stroke="none" stroke-width="0" stroke-linecap="butt"/><path d="M267.04073,123.87613c0,5.46762 -1.46317,9.58116 -12.2,9.9c-11.33464,0.33659 -12.2,-4.43238 -12.2,-9.9c0,-5.46762 5.46212,-9.9 12.2,-9.9c6.73787,0 12.2,4.43238 12.2,9.9z" data-paper-data="{&quot;origPos&quot;:null}" fill="#ffffff" stroke="none" stroke-width="0" stroke-linecap="butt"/><path d="M284.44073,140.27613c-0.2,0.85848 -39.34284,6.5 -50.3,7.7c-5.32532,0.58322 -16.1,0.15848 -15.9,-0.7c0.73933,-3.1735 2.8049,-8.24498 7.9,-9.9c6.15716,-2 27.29511,-7.38005 43.10212,-7.1384c6.46182,0.09879 15.93721,6.8649 15.19788,10.0384z" data-paper-data="{&quot;origPos&quot;:null}" fill="#349fc7" stroke="none" stroke-width="0" stroke-linecap="butt"/><path d="M250.3446,130.11641l0.18849,-3.45889l5.09724,-0.74498l-1.45114,-1.76959l-3.62565,-0.45434l-1.99342,-3.01392l1.9556,-2.81852l7.89963,-1.24007l1.73259,3.27111l-7.32518,0.57178l4.13196,1.53006l3.06427,2.53879l0.28922,2.58669l-2.24917,1.64784z" data-paper-data="{&quot;origPos&quot;:null,&quot;origRot&quot;:0}" fill="#ffe008" stroke="none" stroke-width="0" stroke-linecap="butt"/><path d="M264.37157,188.06257c-3.21733,0.20214 -7.84599,-0.72468 -15.34899,-1.96359c-9.7284,-1.60637 -11.10928,-8.44609 -11.10928,-8.44609c0,0 -3.6461,-1.33232 -5.675,-2.475c-1.58811,-0.89443 0.32605,-6.49937 1.18005,-6.66272c4.97377,-0.95139 6.45569,3.43243 10.27828,5.49605c0,0 12.7819,4.20754 18.75328,3.86744c0,0 9.6388,-4.51103 12.62642,-4.31325c1.48172,0.09809 1.49141,3.20314 1.02397,4.7714c0,0 -1.29607,4.20023 -3.42128,5.67204c-2.1252,1.47181 -5.09013,3.85158 -8.30745,4.05371z" data-paper-data="{&quot;origPos&quot;:null}" fill="#e7be7a" stroke="none" stroke-width="0" stroke-linecap="butt"/><path d="M274.57162,167.51121c-0.5,6.61802 1.12741,11.125 -13.25,10.875c-6.62642,-0.11523 -13,-4.25698 -13,-10.125c0,-5.86802 6.3926,-13.11026 13,-13.625c9.62741,-0.75 14.04992,2.28715 13.25,12.875z" data-paper-data="{&quot;origPos&quot;:null}" fill="#ffdebd" stroke="none" stroke-width="0" stroke-linecap="butt"/><g data-paper-data="{&quot;origPos&quot;:null}" fill="none" stroke="#f6b09a" stroke-width="3.5" stroke-linecap="round"><path d="M201.74809,151.45435c0,0 2.96332,-1.72996 6.75499,1.19948c5.43788,4.2013 2.24501,11.37195 2.24501,11.37195" data-paper-data="{&quot;origPos&quot;:null}"/><path d="M210.46238,158.16868h-6" data-paper-data="{&quot;origPos&quot;:null}"/><path d="M208.60523,164.16868h1.28571" data-paper-data="{&quot;origPos&quot;:null}"/></g><path d="M241.15389,144.22354c-1.37576,0.41027 -1.31062,0.60464 -1.97844,1.87549c-0.68894,1.31106 -2.14657,2.99951 -2.14657,2.99951c0,0 -1.45833,-3.62706 -1.45833,-6.31945c0,-1.8281 0.99336,-5.0144 3.81107,-5.65344c9.53112,-0.32089 6.69401,8.65093 6.69401,8.65093c0,0 -3.4773,-2.0232 -4.92174,-1.55303z" data-paper-data="{&quot;origPos&quot;:null}" fill="#38291e" stroke="none" stroke-width="0" stroke-linecap="butt"/><path d="M258.41468,141.4175c-1.51641,0.08916 -4.01601,3.24146 -4.01601,3.24146c0,0 -5.91454,-7.31854 3.07681,-10.49674c2.85665,-0.43291 4.94393,2.17143 5.61082,3.87354c0.98219,2.50684 0.94752,6.41595 0.94752,6.41595c0,0 -1.97313,-1.04035 -3.09287,-2.00973c-1.0854,-0.93965 -1.09566,-1.14439 -2.52627,-1.02451z" data-paper-data="{&quot;origPos&quot;:null,&quot;index&quot;:null,&quot;origRot&quot;:0}" fill="#38291e" stroke="none" stroke-width="0" stroke-linecap="butt"/></g><g data-paper-data="{&quot;origPos&quot;:null}"><path d="M327.87583,152.08314c4.2983,2.095 8.95878,7.84381 8.95878,12.86471c0,5.02089 -3.42461,9.56952 -8.95878,12.86471c-5.53275,3.29341 -14.11904,5.21441 -21.60742,5.33337c-7.43121,0.11895 -14.88443,-0.87173 -21.55042,-4.34978c-4.0975,-2.24591 -7.0573,-7.25792 -9.1626,-11.9841c-1.22557,-2.76433 -2.51417,-8.15806 -0.2198,-9.40974c7.12779,-3.87752 15.47671,-2.54595 23.30951,-3.46207c5.70123,-0.00178 11.43496,1.41146 17.22567,0.71017c4.03287,-0.48291 7.934,-4.55396 12.00505,-2.56726z" id="ID0.15607240749523044" fill="url(#color-1)" stroke="none" stroke-width="0.91701" stroke-linecap="round"/><path d="M336.14841,152.10799c2.08967,2.6507 3.38218,6.3134 3.38218,10.35426c0,4.04086 -1.29251,7.70356 -3.38218,10.35426c-2.08967,2.65248 -4.97473,4.29297 -8.15806,4.29297c-3.18333,0 -6.06839,-1.64049 -8.15806,-4.29297c-2.08967,-2.6507 -3.38218,-6.3134 -3.38218,-10.35426c0,-4.04086 1.29251,-7.70356 3.38218,-10.35426c2.08967,-2.65248 4.97473,-4.29297 8.15806,-4.29297c3.18333,0 6.06839,1.64049 8.15806,4.29297z" id="ID0.7226808085106313" fill="url(#color-2)" stroke="none" stroke-width="1" stroke-linecap="butt"/><path d="M333.47285,156.80753c1.16468,1.60853 1.8855,3.82781 1.8855,6.27612c0,2.44831 -0.72082,4.66758 -1.8855,6.27612c-1.16645,1.60676 -2.77498,2.60099 -4.55041,2.60099c-1.77542,0 -3.38395,-0.99424 -4.55041,-2.60099c-1.16468,-1.60853 -1.8855,-3.82781 -1.8855,-6.27612c0,-2.44831 0.72082,-4.66758 1.8855,-6.27612c1.16645,-1.60676 2.77498,-2.60099 4.55041,-2.60099c1.77542,0 3.38395,0.99424 4.55041,2.60099z" id="ID0.21181316301226616" fill="url(#color-3)" stroke="none" stroke-width="1" stroke-linecap="butt"/><path d="M311.98226,158.12703c2.22389,2.10636 2.29331,5.04735 2.27414,7.65491c-0.01438,1.98066 -0.97187,4.23687 -2.54223,5.69697c-1.57267,1.45851 -3.7797,2.42381 -6.13515,2.36096c-2.52536,-0.06764 -5.17038,-1.27955 -6.5229,-2.73965c-1.70192,-1.89207 -1.71151,-3.61955 -1.91497,-5.47931c-0.19388,-1.81306 -1.05336,-3.88888 0.47865,-5.31828c1.72589,-1.61972 5.09155,-2.1385 7.95922,-2.57862c2.03463,-0.31088 5.11073,-0.7558 6.40324,0.40302z" id="ID0.21181316301226616" fill="url(#color-4)" stroke="none" stroke-width="1.1493" stroke-linecap="butt"/><path d="M326.87627,133.17099c5.47398,4.48099 10.05297,12.13199 8.86308,17.50033c-0.87244,3.91818 -9.01648,-0.29863 -13.44953,0.98678c-8.11066,2.42168 -15.47813,8.58807 -23.85936,10.04001c-6.98611,1.20977 -14.01021,-0.5921 -20.82002,-2.23117c-1.70352,-0.41012 -3.16256,-1.15331 -2.73557,-3.17499c1.70831,-8.10409 2.57454,-17.7441 8.05456,-23.25483c5.90399,-5.78184 14.78518,-7.13435 22.56756,-7.12228c7.48465,0.01207 15.90387,2.77339 21.37927,7.25615z" id="ID0.26931737549602985" fill="#f34135" stroke="none" stroke-width="0.91299" stroke-linecap="round"/><path d="M296.2103,136.62987l-9.76482,15.44617l0.26631,5.59258l-0.44386,-5.77012l-7.54554,4.26101" data-paper-data="{&quot;origPos&quot;:null}" id="ID0.9385899971239269" fill="none" stroke="#bb3228" stroke-width="1" stroke-linecap="round"/><path d="M325.50476,151.98726l-7.54554,-4.26101l-0.44386,5.77012l0.26631,-5.59258l-5.50381,-11.89533" data-paper-data="{&quot;origPos&quot;:null}" id="ID0.9385899971239269" fill="none" stroke="#bb3228" stroke-width="1" stroke-linecap="round"/><path d="M330.14305,155.53811c-10.15417,2.88506 -19.20243,10.90287 -29.44999,12.16164c-9.35328,1.14692 -19.34162,-0.71017 -27.89117,-4.97118c-2.30183,-1.14337 -0.68087,-7.0573 1.64067,-7.72308c4.53141,-1.46472 9.21888,2.34001 13.78153,2.92945c5.21406,0.67466 10.77415,1.77187 15.7503,0.6214c6.72192,-1.57125 12.35587,-6.86378 19.03163,-8.6108c4.05258,-1.05993 8.3198,-0.72792 12.22307,0.35508c2.12127,0.56103 3.87184,2.48559 5.00403,4.34978c0.36574,0.60719 -0.12144,1.87307 -0.90245,1.95296c-3.06314,0.30537 -6.16391,-1.92456 -9.18763,-1.06525z" id="ID0.5838042767718434" fill="url(#color-5)" stroke="none" stroke-width="0.9628" stroke-linecap="round"/><path d="M321.15497,130.41589l-9.40974,5.68135l-15.09109,0.88771l-9.40974,-6.21398" data-paper-data="{&quot;origPos&quot;:null}" id="ID0.8476383532397449" fill="none" stroke="#bb3228" stroke-width="1" stroke-linecap="round"/></g></g></g></svg>