<svg version="1.1" xmlns="http://www.w3.org/2000/svg" xmlns:xlink="http://www.w3.org/1999/xlink" width="437" height="90.79587" viewBox="0,0,437,90.79587"><defs><linearGradient x1="240" y1="135.60206" x2="240" y2="224.39795" gradientUnits="userSpaceOnUse" id="color-1"><stop offset="0" stop-color="#ffffff"/><stop offset="1" stop-color="#d8d8d8"/></linearGradient><linearGradient x1="240" y1="135.60208" x2="240" y2="224.39795" gradientUnits="userSpaceOnUse" id="color-2"><stop offset="0" stop-color="#343434"/><stop offset="1" stop-color="#090909"/></linearGradient><radialGradient cx="443.8065" cy="206.54466" r="17.9081" gradientUnits="userSpaceOnUse" id="color-3"><stop offset="0" stop-color="#ffffff"/><stop offset="1" stop-color="#e5e5e5"/></radialGradient></defs><g transform="translate(-21.5,-134.60208)"><g data-paper-data="{&quot;isPaintingLayer&quot;:true}" fill-rule="nonzero" stroke-linejoin="miter" stroke-miterlimit="10" stroke-dasharray="" stroke-dashoffset="0" style="mix-blend-mode: normal"><path d="M22.5,224.39795v-88.79587h435v88.79587z" data-paper-data="{&quot;origPos&quot;:null}" fill="url(#color-1)" stroke="url(#color-2)" stroke-width="2" stroke-linecap="butt"/><g data-paper-data="{&quot;origPos&quot;:null}"><path d="M444.3058,202.09868c2.5136,0 4.7909,1.0212 6.4406,2.6702c1.6489,1.6496 2.6702,3.9269 2.6702,6.4405c0,2.5136 -1.0213,4.791 -2.6702,6.4406c-1.6497,1.649 -3.927,2.6702 -6.4406,2.6702c-2.5136,0 -4.7909,-1.0212 -6.4406,-2.6702c-1.6489,-1.6496 -2.6701,-3.927 -2.6701,-6.4406c0,-2.5136 1.0212,-4.7909 2.6701,-6.4405c1.6497,-1.649 3.927,-2.6702 6.4406,-2.6702z" fill="url(#color-3)" stroke="#000000" stroke-width="2.0785" stroke-linecap="butt"/><path d="M441.2734,206.54886l5.6119,0.4503l1.7321,3.187l-3.6374,2.9446l3.3603,-0.5197l0.7967,3.4642l-7.4479,-0.0693l-1.9053,-2.4249l4.6766,-3.3256l-4.5727,-0.3464z" fill="#000000" stroke="none" stroke-width="0.69283" stroke-linecap="round"/></g><g stroke="none" stroke-width="0.26458" stroke-linecap="butt"><path d="M33.818,147.32306c2.962,0.662 4.608,1.04 4.939,1.136c0,0.025 0,0.051 0,0.077c-0.103,2.653 -0.18,4.196 -0.232,4.63c0.169,0 0.93,0.176 2.282,0.529c1.213,-3.741 1.871,-5.611 1.974,-5.611c2.028,0.911 3.318,1.518 3.869,1.819c0,0.026 0,0.051 0,0.077c-2.227,5.181 -3.491,8.04 -3.792,8.577c-0.559,0.463 -2.506,2.234 -5.843,5.314c-0.026,0 -0.051,0 -0.077,0c-2.051,-1.011 -4.101,-2.021 -6.152,-3.032c0.566,-0.97 1.25,-2.084 2.051,-3.34c0.037,0 0.999,0.632 2.888,1.896c0.026,0 0.052,0 0.077,0c0.632,-0.515 1.389,-1.25 2.271,-2.205c0,-0.044 -1.44,-1.459 -4.321,-4.244c0,-1.823 0,-3.646 0,-5.468z" fill="#000000"/><path d="M52.295,150.66306c2.793,0.75 4.274,1.206 4.443,1.368c1.536,2.175 2.399,3.428 2.59,3.759c-0.992,3.145 -1.561,4.718 -1.708,4.718c-3.308,0.772 -5.039,1.158 -5.193,1.158c-2.734,-1.595 -4.189,-2.484 -4.366,-2.668c-0.095,-2.969 -0.143,-4.608 -0.143,-4.917c-0.044,-0.088 -0.066,-0.154 -0.066,-0.198c2.822,-2.146 4.281,-3.22 4.377,-3.22zM52.085,154.69806c-0.044,0.294 -0.11,1.364 -0.198,3.208l2.458,0.552c0.588,-1.838 0.882,-2.819 0.882,-2.944c-1.955,-0.588 -3.002,-0.882 -3.142,-0.882z" fill="#000000"/><path d="M66.285,150.65208l0.077,0.144l-1.488,7.893c0.025,0 0.051,0 0.077,0l3.792,-1.113c0,-1.489 0,-2.977 0,-4.465c0.015,-0.103 0.063,-0.154 0.143,-0.154c2.852,0.198 4.439,0.297 4.763,0.297c0,0.052 0.026,0.077 0.077,0.077c0,1.257 -0.397,3.863 -1.191,7.817c0,0.227 -1.139,0.4 -3.417,0.518c-0.118,-0.14 -0.217,-0.438 -0.298,-0.893c-2.918,0.595 -4.582,0.893 -4.994,0.893c-2.33,-1.735 -3.494,-2.628 -3.494,-2.679c0.396,-5.211 0.646,-7.916 0.749,-8.114c0.022,0 0.044,0 0.066,0c1.86,-0.052 3.572,-0.125 5.138,-0.221z" fill="#000000"/><path d="M92.688,150.65208c1.793,0.743 3.34,1.441 4.641,2.095c-0.338,4.373 -0.555,6.765 -0.65,7.177c-2.161,0.536 -3.37,0.805 -3.627,0.805c0,-0.956 -0.074,-2.841 -0.221,-5.656c-0.816,0.081 -1.224,0.151 -1.224,0.21c0,0.279 0.048,1.874 0.144,4.784c0.044,0 0.066,0.026 0.066,0.077c0,0.089 -1.136,0.331 -3.407,0.728c-0.095,-0.118 -0.385,-1.907 -0.87,-5.369c-0.919,0.235 -1.379,0.404 -1.379,0.507c0.147,1.5 0.294,2.999 0.441,4.498c-0.088,0.096 -1.297,0.482 -3.627,1.158c-1.352,-4.785 -2.197,-7.997 -2.535,-9.635c2.55,-0.633 3.976,-0.949 4.277,-0.949c0.338,1.338 0.507,2.11 0.507,2.316c0.026,0 0.052,0 0.078,0c1.242,-1.147 2.109,-1.919 2.601,-2.316c0.026,0 0.052,0 0.077,0c0.772,0.555 1.544,1.11 2.316,1.665c0.025,0 0.051,0 0.077,0c1.448,-1.396 2.219,-2.094 2.315,-2.094z" fill="#000000"/><path d="M100.063,150.65208c4.366,0.603 6.549,0.974 6.549,1.114c1.719,1.477 2.579,2.267 2.579,2.37c-0.698,2.183 -1.095,3.51 -1.19,3.98c0.698,1.551 1.095,2.477 1.19,2.778c0,0.088 -1.139,0.323 -3.417,0.706c-0.03,-0.125 -0.239,-0.405 -0.629,-0.838c-3.145,0.602 -4.839,0.904 -5.082,0.904l-1.676,-4.531l3.694,-1.952c0.595,0.096 1.525,0.144 2.789,0.144c0,-0.162 0.022,-0.651 0.066,-1.466c-0.213,0 -2.117,0.139 -5.711,0.418l-0.066,-0.143c0.5,-2.322 0.801,-3.484 0.904,-3.484zM102.356,157.13507c0,0.081 0.235,0.941 0.706,2.579c0.022,0 0.044,0 0.066,0c0.926,-0.602 1.389,-0.999 1.389,-1.19l0.143,-1.18c-0.176,0 -0.944,-0.07 -2.304,-0.209z" fill="#000000"/><path d="M115.321,150.67506c0.103,0.014 0.154,0.066 0.154,0.154c-0.382,2.117 -0.764,4.233 -1.146,6.35c2.19,-0.257 3.285,-0.463 3.285,-0.618c0.411,-2.542 0.694,-3.968 0.849,-4.277c2.712,0.559 4.215,0.889 4.509,0.992c-1.581,5.432 -2.448,8.261 -2.602,8.489c-2.764,1.94 -4.318,3.013 -4.663,3.219c-0.103,0 -1.864,-0.434 -5.281,-1.301c0,-0.026 0,-0.051 0,-0.077c0.904,-1.992 1.466,-2.988 1.687,-2.988l3.362,1.687c0.537,-0.919 1.073,-1.837 1.61,-2.756c-1.448,0.36 -2.29,0.54 -2.525,0.54c-1.429,-0.742 -2.859,-1.484 -4.288,-2.227c0.521,-4.792 0.852,-7.188 0.992,-7.188c1.352,0 2.704,0.001 4.057,0.001z" fill="#000000"/><path d="M139.442,150.65208l3.671,2.525c-0.257,4.189 -0.437,6.637 -0.54,7.342c-0.426,0.052 -1.724,0.129 -3.892,0.232l-0.077,-0.155c-0.129,-1.962 -0.257,-3.924 -0.386,-5.887c-0.051,-0.025 -0.103,-0.051 -0.154,-0.077c-1.404,0.302 -2.37,0.529 -2.9,0.684c0.147,2.506 0.221,4.318 0.221,5.435c-2.19,0.61 -3.388,0.915 -3.594,0.915c-1.426,-6.277 -2.139,-9.591 -2.139,-9.944c3.102,-0.404 4.785,-0.607 5.049,-0.607c0,0.026 0,0.052 0,0.078c0.052,0.036 0.129,0.801 0.232,2.293c2.844,-1.889 4.347,-2.834 4.509,-2.834z" fill="#000000"/><path d="M150.499,150.66306c3.33,1.713 5.174,2.712 5.535,2.999c-0.478,2.234 -0.761,3.385 -0.849,3.451c-2.323,0 -4.645,0 -6.968,0c0,0.04 0,0.081 0,0.121l1.952,2.414c1.021,-0.522 2.043,-1.043 3.064,-1.565c0.302,0.522 0.735,1.433 1.301,2.734c-0.264,0.088 -2.194,0.371 -5.788,0.849c-2.976,-1.963 -4.475,-2.984 -4.497,-3.065c0.477,-3.814 0.76,-5.722 0.848,-5.722c3.109,-1.323 4.91,-2.061 5.402,-2.216zM149.783,153.33108c-0.059,0.147 -0.449,0.732 -1.169,1.753c0,0.309 0.434,0.463 1.301,0.463c0,0.044 0.628,0.151 1.885,0.32c0.346,-0.478 0.518,-0.757 0.518,-0.838c-0.11,-0.654 -0.349,-0.981 -0.716,-0.981z" fill="#000000"/><path d="M163.287,150.66306c3.33,1.713 5.175,2.712 5.535,2.999c-0.478,2.234 -0.761,3.385 -0.849,3.451c-2.323,0 -4.645,0 -6.968,0c0,0.04 0,0.081 0,0.121l1.952,2.414c1.021,-0.522 2.043,-1.043 3.065,-1.565c0.301,0.522 0.734,1.433 1.3,2.734c-0.264,0.088 -2.193,0.371 -5.787,0.849c-2.977,-1.963 -4.476,-2.984 -4.498,-3.065c0.477,-3.814 0.76,-5.722 0.849,-5.722c3.108,-1.323 4.909,-2.061 5.401,-2.216zM162.571,153.33108c-0.059,0.147 -0.448,0.732 -1.169,1.753c0,0.309 0.434,0.463 1.301,0.463c0,0.044 0.629,0.151 1.885,0.32c0.346,-0.478 0.519,-0.757 0.519,-0.838c-0.111,-0.654 -0.35,-0.981 -0.717,-0.981c-0.606,-0.239 -1.213,-0.478 -1.819,-0.717z" fill="#000000"/><path d="M176.495,147.31206c0.022,0 0.044,0 0.066,0c3.322,0.279 4.983,0.496 4.983,0.651c0.488,4.325 0.977,8.65 1.466,12.975c0,0.096 -1.466,0.338 -4.399,0.728c-0.022,-0.048 -0.044,-0.096 -0.066,-0.144c0,-0.393 0,-0.786 0,-1.179c-2.528,0.683 -4.263,1.124 -5.203,1.323c-2.235,-3.161 -3.407,-4.844 -3.517,-5.049c1.646,-2.992 2.524,-4.506 2.635,-4.542c1.539,0.073 3.079,0.147 4.619,0.22c-0.096,-0.566 -0.29,-2.227 -0.584,-4.983zM174.444,155.21708c0.742,2.271 1.205,3.516 1.389,3.737c0.731,-0.636 1.463,-1.272 2.194,-1.907c-0.228,-1.316 -0.397,-1.974 -0.507,-1.974c-0.978,0 -1.955,0 -2.933,0c-0.095,0.015 -0.143,0.063 -0.143,0.144z" fill="#000000"/><path d="M193.053,147.32306c1.617,0.287 3.234,0.573 4.851,0.86c-0.155,1.227 -0.309,2.455 -0.463,3.682c0.963,-0.051 1.668,-0.077 2.116,-0.077c0.236,0 0.471,0 0.706,0c0.052,-0.026 0.103,-0.052 0.154,-0.077c0.026,0.051 0.052,0.103 0.078,0.154c-0.155,2.234 -0.287,3.491 -0.397,3.77c-0.052,-0.029 -0.103,-0.058 -0.155,-0.088c-0.11,0 -1.102,-0.051 -2.976,-0.154c-0.103,1.727 -0.18,3.792 -0.232,6.196c-0.051,0.025 -0.103,0.051 -0.154,0.077c-2.367,-0.155 -3.778,-0.287 -4.233,-0.397c0.025,-0.103 0.051,-0.206 0.077,-0.309c0,-0.639 0.103,-2.624 0.308,-5.953c-1.984,-0.11 -2.976,-0.242 -2.976,-0.397c0.103,-2.455 0.235,-3.682 0.397,-3.682c0.966,0.184 1.933,0.368 2.899,0.551c0,-0.316 0,-0.632 0,-0.948c0,-0.772 -0.029,-1.815 -0.088,-3.131c0.059,0 0.088,-0.025 0.088,-0.077z" fill="#000000"/><path d="M206.106,150.66306c2.793,0.75 4.274,1.206 4.443,1.368c1.536,2.175 2.399,3.428 2.59,3.759c-0.992,3.145 -1.561,4.718 -1.708,4.718c-3.308,0.772 -5.038,1.158 -5.193,1.158c-2.734,-1.595 -4.189,-2.484 -4.365,-2.668c-0.096,-2.969 -0.144,-4.608 -0.144,-4.917c-0.044,-0.088 -0.066,-0.154 -0.066,-0.198c2.822,-2.146 4.281,-3.22 4.377,-3.22c0.022,0 0.044,0 0.066,0zM205.896,154.69806c-0.044,0.294 -0.11,1.364 -0.198,3.208c0.819,0.184 1.639,0.368 2.458,0.552c0.588,-1.838 0.882,-2.819 0.882,-2.944c-1.955,-0.588 -3.002,-0.882 -3.142,-0.882c0,0.022 0,0.044 0,0.066z" fill="#000000"/><path d="M225.277,150.66306c0.228,0.941 0.386,1.522 0.474,1.742c3.249,-0.742 4.965,-1.113 5.149,-1.113c2.212,3.182 3.318,4.843 3.318,4.983c-0.845,1.793 -1.691,3.586 -2.536,5.38c-1.819,-0.291 -3.638,-0.581 -5.457,-0.871c0,0.055 0,0.11 0,0.165c0.427,3.271 0.64,5.009 0.64,5.215c-0.052,0 -0.078,0.025 -0.078,0.077c-0.529,-0.052 -0.926,-0.077 -1.19,-0.077c-0.316,0 -0.632,0 -0.948,0c-0.551,0 -1.397,-0.026 -2.536,-0.078c-0.103,-0.308 -0.893,-5.001 -2.37,-14.078c0.25,-0.102 2.095,-0.551 5.534,-1.345zM225.674,155.17206c0.147,1.691 0.279,2.536 0.397,2.536c1.507,0.522 2.429,0.783 2.767,0.783c0.29,-1.264 0.581,-2.528 0.871,-3.793c-0.026,0 -0.052,0 -0.077,0c-0.86,0.052 -2.179,0.21 -3.958,0.474z" fill="#000000"/><path d="M243.269,150.65208c1.455,0.816 2.348,1.345 2.679,1.588c-1.191,2.477 -1.83,3.737 -1.918,3.781c-0.026,0 -0.052,0 -0.078,0c-0.525,-0.459 -1.051,-0.918 -1.576,-1.378c-0.621,0.757 -1.242,1.514 -1.863,2.271c0.006,0.128 0.203,4.007 0.209,4.134c-0.095,0.089 -1.312,0.294 -3.649,0.618c-0.088,-0.632 -0.661,-3.73 -1.72,-9.294c0,-0.088 1.536,-0.316 4.609,-0.683c0.051,0.059 0.191,0.746 0.418,2.061c1.838,-2.065 2.801,-3.098 2.889,-3.098z" fill="#000000"/><path d="M253.069,150.66306c3.33,1.713 5.175,2.712 5.535,2.999c-0.478,2.234 -0.761,3.385 -0.849,3.451c-2.323,0 -4.645,0 -6.968,0c0,0.04 0,0.081 0,0.121l1.952,2.414c1.021,-0.522 2.043,-1.043 3.064,-1.565c0.302,0.522 0.735,1.433 1.301,2.734c-0.264,0.088 -2.193,0.371 -5.787,0.849c-2.977,-1.963 -4.476,-2.984 -4.498,-3.065c0.477,-3.814 0.76,-5.722 0.849,-5.722c3.108,-1.323 4.909,-2.061 5.401,-2.216zM252.353,153.33108c-0.059,0.147 -0.448,0.732 -1.169,1.753c0,0.309 0.434,0.463 1.301,0.463c0,0.044 0.629,0.151 1.885,0.32c0.346,-0.478 0.518,-0.757 0.518,-0.838c-0.11,-0.654 -0.349,-0.981 -0.716,-0.981c-0.606,-0.239 -1.213,-0.478 -1.819,-0.717z" fill="#000000"/><path d="M268.503,150.65208c2.117,1.353 3.286,2.132 3.506,2.338c-0.764,1.697 -1.201,2.546 -1.312,2.546c-1.337,-0.775 -2.675,-1.551 -4.013,-2.326c-0.047,0 -0.095,0 -0.143,0c0,0.074 -0.173,0.485 -0.518,1.235c3.697,1.992 5.545,3.013 5.545,3.065c-1.036,2.396 -1.62,3.66 -1.753,3.792c-2.091,0.121 -4.182,0.242 -6.272,0.364c-2.441,-1.617 -3.752,-2.47 -3.936,-2.558c0,-0.022 0,-0.044 0,-0.066c0,-0.184 0.364,-1.011 1.091,-2.48l4.895,2.546c0.121,-0.485 0.243,-0.97 0.364,-1.455c-3.028,-1.36 -4.829,-2.209 -5.402,-2.547c0,-0.051 0,-0.103 0,-0.154c0,-0.279 0.584,-1.518 1.753,-3.715z" fill="#000000"/><path d="M281.997,150.65208c2.117,1.353 3.285,2.132 3.506,2.338c-0.764,1.697 -1.202,2.546 -1.312,2.546c-1.338,-0.775 -2.675,-1.551 -4.013,-2.326c-0.048,0 -0.095,0 -0.143,0c0,0.074 -0.173,0.485 -0.518,1.235c3.697,1.992 5.545,3.013 5.545,3.065c-1.036,2.396 -1.621,3.66 -1.753,3.792c-2.091,0.121 -4.182,0.242 -6.273,0.364c-2.44,-1.617 -3.752,-2.47 -3.935,-2.558c0,-0.022 0,-0.044 0,-0.066c0,-0.184 0.363,-1.011 1.091,-2.48l4.895,2.546c0.121,-0.485 0.242,-0.97 0.364,-1.455c-3.028,-1.36 -4.829,-2.209 -5.402,-2.547c0,-0.051 0,-0.103 0,-0.154c0,-0.279 0.584,-1.518 1.753,-3.715z" fill="#000000"/><path d="M295.491,147.32306c1.617,0.287 3.234,0.573 4.851,0.86c-0.155,1.227 -0.309,2.455 -0.463,3.682c0.962,-0.051 1.668,-0.077 2.116,-0.077c0.235,0 0.471,0 0.706,0c0.051,-0.026 0.103,-0.052 0.154,-0.077c0.026,0.051 0.052,0.103 0.077,0.154c-0.154,2.234 -0.286,3.491 -0.396,3.77c-0.052,-0.029 -0.103,-0.058 -0.155,-0.088c-0.11,0 -1.102,-0.051 -2.976,-0.154c-0.103,1.727 -0.18,3.792 -0.232,6.196c-0.051,0.025 -0.103,0.051 -0.154,0.077c-2.367,-0.155 -3.778,-0.287 -4.234,-0.397c0.026,-0.103 0.052,-0.206 0.078,-0.309c0,-0.639 0.103,-2.624 0.308,-5.953c-1.984,-0.11 -2.976,-0.242 -2.976,-0.397c0.103,-2.455 0.235,-3.682 0.397,-3.682c0.966,0.184 1.933,0.368 2.899,0.551c0,-0.316 0,-0.632 0,-0.948c0,-0.772 -0.029,-1.815 -0.088,-3.131c0.059,0 0.088,-0.025 0.088,-0.077z" fill="#2b70c2"/><path d="M309.04,147.32306c0.044,0.066 0.25,2.08 0.617,6.041c2.837,-0.867 4.347,-1.3 4.531,-1.3c0.937,0.639 1.874,1.278 2.811,1.918c-0.455,4.189 -0.753,6.636 -0.893,7.342l-3.902,0.132c0,-0.044 -0.026,-0.066 -0.077,-0.066c0.025,-0.092 0.051,-0.184 0.077,-0.275c0,-0.596 0.088,-2.404 0.264,-5.424c-1.073,-0.044 -1.87,-0.067 -2.392,-0.067c-0.092,0 -0.184,0 -0.275,0c0.316,3.359 0.474,5.189 0.474,5.491l-3.705,0.551c-0.139,-0.471 -0.962,-4.862 -2.469,-13.174c0,-0.235 0.573,-0.419 1.72,-0.552c1.448,-0.411 2.521,-0.617 3.219,-0.617z" fill="#2b70c2"/><path d="M324.286,150.66306c3.33,1.713 5.175,2.712 5.535,2.999c-0.478,2.234 -0.761,3.385 -0.849,3.451c-2.323,0 -4.645,0 -6.968,0c0,0.04 0,0.081 0,0.121c0.651,0.805 1.301,1.61 1.952,2.414c1.021,-0.522 2.043,-1.043 3.064,-1.565c0.302,0.522 0.735,1.433 1.301,2.734c-0.264,0.088 -2.193,0.371 -5.787,0.849c-2.977,-1.963 -4.476,-2.984 -4.498,-3.065c0.477,-3.814 0.76,-5.722 0.849,-5.722c3.108,-1.323 4.909,-2.061 5.401,-2.216zM323.57,153.33108c-0.059,0.147 -0.448,0.732 -1.169,1.753c0,0.309 0.434,0.463 1.301,0.463c0,0.044 0.629,0.151 1.885,0.32c0.346,-0.478 0.518,-0.757 0.518,-0.838c-0.11,-0.654 -0.349,-0.981 -0.716,-0.981c-0.606,-0.239 -1.213,-0.478 -1.819,-0.717z" fill="#2b70c2"/><path d="M343.094,147.31206c0.022,0 0.044,0 0.066,0c3.322,0.279 4.983,0.496 4.983,0.651c0.489,4.325 0.977,8.65 1.466,12.975c0,0.096 -1.466,0.338 -4.398,0.728c-0.022,-0.048 -0.045,-0.096 -0.067,-0.144c0,-0.393 0,-0.786 0,-1.179c-2.528,0.683 -4.262,1.124 -5.203,1.323c-2.234,-3.161 -3.407,-4.844 -3.517,-5.049c1.647,-2.992 2.525,-4.506 2.635,-4.542c1.54,0.073 3.079,0.147 4.619,0.22c-0.095,-0.566 -0.29,-2.227 -0.584,-4.983zM341.043,155.21708c0.743,2.271 1.206,3.516 1.389,3.737c0.732,-0.636 1.463,-1.272 2.194,-1.907c-0.228,-1.316 -0.397,-1.974 -0.507,-1.974c-0.977,0 -1.955,0 -2.932,0c-0.096,0.015 -0.144,0.063 -0.144,0.144z" fill="#2b70c2"/><path d="M355.199,150.66306c2.792,0.75 4.273,1.206 4.442,1.368c1.536,2.175 2.4,3.428 2.591,3.759c-0.992,3.145 -1.562,4.718 -1.709,4.718c-3.307,0.772 -5.038,1.158 -5.192,1.158c-2.734,-1.595 -4.189,-2.484 -4.366,-2.668c-0.095,-2.969 -0.143,-4.608 -0.143,-4.917c-0.044,-0.088 -0.066,-0.154 -0.066,-0.198c2.822,-2.146 4.281,-3.22 4.377,-3.22c0.022,0 0.044,0 0.066,0zM354.989,154.69806c-0.044,0.294 -0.11,1.364 -0.198,3.208c0.819,0.184 1.639,0.368 2.458,0.552c0.588,-1.838 0.882,-2.819 0.882,-2.944c-1.955,-0.588 -3.002,-0.882 -3.142,-0.882c0,0.022 0,0.044 0,0.066z" fill="#2b70c2"/><path d="M368.075,150.65208c0.096,0.125 0.592,2.257 1.488,6.395c0.026,0 0.052,0 0.077,0c0,-0.096 0.544,-0.938 1.632,-2.525c0.456,0.309 1.323,0.977 2.602,2.006c0.051,0 0.103,0 0.154,0c0,-0.025 0,-0.051 0,-0.077c0.199,-2.866 0.346,-4.454 0.441,-4.762c3.028,0.154 4.542,0.279 4.542,0.375c-1.389,5.585 -2.131,8.488 -2.227,8.709c-0.463,0.051 -1.433,0.198 -2.91,0.441c-1.213,-1.904 -1.907,-2.918 -2.084,-3.043c-0.794,2.117 -1.29,3.282 -1.488,3.495c-0.992,0 -1.984,0 -2.977,0c-0.183,-0.059 -1.051,-1.97 -2.601,-5.733c-0.993,-2.102 -1.489,-3.241 -1.489,-3.417c0,-0.162 1.614,-0.783 4.84,-1.864z" fill="#2b70c2"/><path d="M390.002,150.65208c1.224,0.842 2.448,1.684 3.671,2.525c-0.257,4.189 -0.437,6.637 -0.54,7.342c-0.426,0.052 -1.723,0.129 -3.891,0.232l-0.078,-0.155c-0.128,-1.962 -0.257,-3.924 -0.385,-5.887c-0.052,-0.025 -0.103,-0.051 -0.155,-0.077c-1.403,0.302 -2.37,0.529 -2.899,0.684c0.147,2.506 0.22,4.318 0.22,5.435c-2.19,0.61 -3.388,0.915 -3.594,0.915c-1.425,-6.277 -2.138,-9.591 -2.138,-9.944c3.101,-0.404 4.784,-0.607 5.049,-0.607c0,0.026 0,0.052 0,0.078c0.051,0.036 0.129,0.801 0.231,2.293c2.845,-1.889 4.348,-2.834 4.509,-2.834z" fill="#2b70c2"/><path d="M32.462,174.65208c4.366,0.603 6.549,0.974 6.549,1.114c1.719,1.477 2.579,2.267 2.579,2.37c-0.698,2.183 -1.095,3.51 -1.19,3.98c0.698,1.551 1.095,2.477 1.19,2.778c0,0.088 -1.139,0.323 -3.417,0.706c-0.03,-0.125 -0.239,-0.405 -0.629,-0.838c-3.145,0.602 -4.839,0.904 -5.082,0.904c-0.558,-1.511 -1.117,-3.021 -1.676,-4.531l3.694,-1.952c0.595,0.096 1.525,0.144 2.789,0.144c0,-0.162 0.022,-0.651 0.066,-1.466c-0.213,0 -2.117,0.139 -5.711,0.418c-0.022,-0.047 -0.044,-0.095 -0.066,-0.143c0.5,-2.322 0.801,-3.484 0.904,-3.484zM34.755,181.13507c0,0.081 0.235,0.941 0.706,2.579c0.022,0 0.044,0 0.066,0c0.926,-0.602 1.389,-0.999 1.389,-1.19l0.143,-1.18c-0.176,0 -0.944,-0.07 -2.304,-0.209z" fill="#2b70c2"/><path d="M50.564,174.65208c1.455,0.816 2.348,1.345 2.679,1.588c-1.191,2.477 -1.83,3.737 -1.918,3.781c-0.026,0 -0.052,0 -0.078,0l-1.576,-1.378c-0.621,0.757 -1.242,1.514 -1.863,2.271c0.07,1.378 0.14,2.756 0.209,4.134c-0.095,0.089 -1.312,0.294 -3.649,0.618c-0.088,-0.632 -0.661,-3.73 -1.719,-9.294c0,-0.088 1.536,-0.316 4.608,-0.683c0.051,0.059 0.191,0.746 0.419,2.061c1.837,-2.065 2.8,-3.098 2.888,-3.098z" fill="#2b70c2"/><path d="M62.029,174.65208c1.455,0.816 2.348,1.345 2.679,1.588c-1.19,2.477 -1.83,3.737 -1.918,3.781c-0.026,0 -0.052,0 -0.077,0c-0.526,-0.459 -1.051,-0.918 -1.577,-1.378c-0.621,0.757 -1.242,1.514 -1.863,2.271c0.07,1.378 0.14,2.756 0.21,4.134c-0.096,0.089 -1.312,0.294 -3.649,0.618c-0.089,-0.632 -0.662,-3.73 -1.72,-9.294c0,-0.088 1.536,-0.316 4.608,-0.683c0.051,0.059 0.191,0.746 0.419,2.061c1.837,-2.065 2.8,-3.098 2.888,-3.098z" fill="#2b70c2"/><path d="M70.022,174.66308c2.793,0.75 4.274,1.206 4.443,1.368c1.536,2.175 2.399,3.428 2.59,3.759c-0.992,3.145 -1.561,4.718 -1.708,4.718c-3.308,0.772 -5.038,1.158 -5.193,1.158c-2.734,-1.595 -4.189,-2.484 -4.365,-2.668c-0.096,-2.969 -0.144,-4.608 -0.144,-4.917c-0.044,-0.088 -0.066,-0.154 -0.066,-0.198c2.822,-2.146 4.281,-3.22 4.377,-3.22zM69.812,178.69808c-0.044,0.294 -0.11,1.364 -0.198,3.208l2.458,0.552c0.588,-1.838 0.882,-2.819 0.882,-2.944c-1.955,-0.588 -3.002,-0.882 -3.142,-0.882c0,0.022 0,0.044 0,0.066z" fill="#2b70c2"/><path d="M82.898,174.65208c0.096,0.125 0.592,2.257 1.489,6.395c0.025,0 0.051,0 0.077,0c0,-0.096 0.544,-0.938 1.631,-2.525c0.456,0.309 1.323,0.977 2.602,2.006c0.052,0 0.103,0 0.154,0c0,-0.025 0,-0.051 0,-0.077c0.199,-2.866 0.346,-4.454 0.441,-4.762c3.028,0.154 4.542,0.279 4.542,0.375c-1.389,5.585 -2.131,8.488 -2.227,8.709c-0.463,0.051 -1.433,0.198 -2.91,0.441c-1.213,-1.904 -1.907,-2.918 -2.084,-3.043c-0.793,2.117 -1.289,3.282 -1.488,3.495c-0.992,0 -1.984,0 -2.976,0c-0.184,-0.059 -1.051,-1.97 -2.602,-5.733c-0.992,-2.102 -1.488,-3.241 -1.488,-3.417c0,-0.162 1.613,-0.783 4.839,-1.864z" fill="#2b70c2"/><path d="M105.498,171.32306c0.103,0.294 0.334,2.378 0.695,6.251l3.307,-3.704c0.026,0 0.051,0 0.077,0c0.515,0.426 1.466,1.326 2.855,2.701c0,0.025 0,0.051 0,0.077l-3.164,2.613c2.382,1.595 3.642,2.495 3.782,2.701c-1.5,1.668 -2.4,2.62 -2.701,2.855l-3.848,-3.55c0.155,1.588 0.232,2.771 0.232,3.55c-0.184,0.103 -1.547,0.386 -4.09,0.849c-0.206,-1.029 -0.875,-5.45 -2.007,-13.262c0.471,-0.155 2.091,-0.515 4.862,-1.081z" fill="#2b70c2"/><path d="M120.249,174.66308c3.329,1.713 5.174,2.712 5.534,2.999c-0.478,2.234 -0.761,3.385 -0.849,3.451c-2.323,0 -4.645,0 -6.967,0c0,0.04 0,0.081 0,0.121l1.951,2.414c1.021,-0.522 2.043,-1.043 3.065,-1.565c0.301,0.522 0.735,1.433 1.301,2.734c-0.265,0.088 -2.194,0.371 -5.788,0.849c-2.977,-1.963 -4.476,-2.984 -4.498,-3.065c0.478,-3.814 0.761,-5.722 0.849,-5.722c3.109,-1.323 4.909,-2.061 5.402,-2.215zM119.532,177.33108c-0.059,0.147 -0.448,0.732 -1.169,1.753c0,0.309 0.434,0.463 1.301,0.463c0,0.044 0.629,0.151 1.885,0.32c0.346,-0.478 0.519,-0.757 0.519,-0.838c-0.111,-0.654 -0.349,-0.981 -0.717,-0.981c-0.606,-0.239 -1.213,-0.478 -1.819,-0.717z" fill="#2b70c2"/><path d="M131.857,174.67508c0.103,0.014 0.155,0.066 0.155,0.154c-0.23,1.27 -0.918,5.08 -1.147,6.35c2.19,-0.257 3.285,-0.463 3.285,-0.618c0.412,-2.542 0.695,-3.968 0.849,-4.277c2.712,0.559 4.215,0.889 4.509,0.992c-1.58,5.432 -2.447,8.261 -2.602,8.489c-2.763,1.94 -4.318,3.013 -4.663,3.219c-0.103,0 -1.863,-0.434 -5.281,-1.301c0,-0.026 0,-0.051 0,-0.077c0.904,-1.992 1.467,-2.988 1.687,-2.988l3.363,1.687c0.536,-0.919 1.073,-1.837 1.609,-2.756c-1.448,0.36 -2.289,0.54 -2.524,0.54c-1.43,-0.742 -2.859,-1.484 -4.289,-2.227c0.522,-4.792 0.853,-7.188 0.992,-7.188c0.024,0 4.033,0.001 4.057,0.001z" fill="#2b70c2"/><path d="M150.632,174.66308c2.792,0.75 4.273,1.206 4.442,1.368c1.536,2.175 2.4,3.428 2.591,3.759c-0.992,3.145 -1.562,4.718 -1.709,4.718c-3.307,0.772 -5.038,1.158 -5.192,1.158c-2.734,-1.595 -4.189,-2.484 -4.366,-2.668c-0.095,-2.969 -0.143,-4.608 -0.143,-4.917c-0.044,-0.088 -0.066,-0.154 -0.066,-0.198c2.822,-2.146 4.281,-3.22 4.377,-3.22c0.022,0 0.044,0 0.066,0zM150.422,178.69808c-0.044,0.294 -0.11,1.364 -0.198,3.208l2.458,0.552c0.588,-1.838 0.882,-2.819 0.882,-2.944c-1.955,-0.588 -3.002,-0.882 -3.142,-0.882c0,0.022 0,0.044 0,0.066z" fill="#000000"/><path d="M166.584,174.65208c1.455,0.816 2.348,1.345 2.679,1.588c-1.191,2.477 -1.83,3.737 -1.919,3.781c-0.025,0 -0.051,0 -0.077,0c-0.525,-0.459 -1.051,-0.918 -1.576,-1.378c-0.621,0.757 -1.242,1.514 -1.863,2.271c0.069,1.378 0.139,2.756 0.209,4.134c-0.095,0.089 -1.312,0.294 -3.649,0.618c-0.088,-0.632 -0.661,-3.73 -1.72,-9.294c0,-0.088 1.536,-0.316 4.608,-0.683c0.052,0.059 0.192,0.746 0.419,2.061c1.838,-2.065 2.801,-3.098 2.889,-3.098z" fill="#000000"/><path d="M184.399,171.32306c2.646,1.338 4.006,2.007 4.079,2.007c0,0.117 -0.551,1.179 -1.654,3.186c-0.025,0 -0.051,0 -0.077,0c-0.088,0 -1.356,-0.599 -3.803,-1.797c-0.415,0.555 -0.831,1.109 -1.246,1.664c2.109,1.015 4.671,2.308 7.684,3.881c-1.367,2.433 -2.337,4.049 -2.91,4.851c-2.077,0.183 -4.153,0.367 -6.229,0.551c-2.844,-1.918 -4.347,-2.911 -4.509,-2.977c0,-0.026 0,-0.051 0,-0.077c0,-0.206 0.577,-1.15 1.731,-2.833c0.048,0 0.095,0 0.143,0c0.456,0.272 1.885,1.054 4.288,2.348c0.486,-0.551 0.971,-1.103 1.456,-1.654c-4.417,-2.249 -6.865,-3.52 -7.342,-3.814c0,-0.022 0,-0.044 0,-0.066c1.403,-2.734 2.168,-4.12 2.293,-4.156c3.652,-0.743 5.684,-1.114 6.096,-1.114z" fill="#2b70c2"/><path d="M199.447,171.32306c1.617,0.287 3.234,0.573 4.851,0.86c-0.154,1.227 -0.309,2.455 -0.463,3.682c0.963,-0.051 1.668,-0.077 2.117,-0.077c0.235,0 0.47,0 0.705,0c0.052,-0.026 0.103,-0.052 0.154,-0.077c0.026,0.051 0.052,0.103 0.078,0.154c-0.155,2.234 -0.287,3.491 -0.397,3.77c-0.052,-0.029 -0.103,-0.058 -0.155,-0.088c-0.11,0 -1.102,-0.051 -2.976,-0.154c-0.103,1.727 -0.18,3.792 -0.232,6.196c-0.051,0.025 -0.103,0.051 -0.154,0.077c-2.367,-0.155 -3.778,-0.287 -4.233,-0.397c0.025,-0.103 0.051,-0.206 0.077,-0.309c0,-0.639 0.103,-2.624 0.309,-5.953c-1.985,-0.11 -2.977,-0.242 -2.977,-0.397c0.103,-2.455 0.235,-3.682 0.397,-3.682c0.966,0.184 1.933,0.368 2.899,0.551c0,-0.316 0,-0.632 0,-0.948c0,-0.772 -0.029,-1.815 -0.088,-3.131c0.059,0 0.088,-0.025 0.088,-0.077z" fill="#000000"/><path d="M212.5,174.66308c2.793,0.75 4.274,1.206 4.443,1.368c1.536,2.175 2.399,3.428 2.591,3.759c-0.993,3.145 -1.562,4.718 -1.709,4.718c-3.308,0.772 -5.038,1.158 -5.193,1.158c-2.734,-1.595 -4.189,-2.484 -4.365,-2.668c-0.096,-2.969 -0.144,-4.608 -0.144,-4.917c-0.044,-0.088 -0.066,-0.154 -0.066,-0.198c2.822,-2.146 4.281,-3.22 4.377,-3.22c0.022,0 0.044,0 0.066,0zM212.291,178.69808c-0.045,0.294 -0.111,1.364 -0.199,3.208c0.82,0.184 1.639,0.368 2.459,0.552c0.587,-1.838 0.881,-2.819 0.881,-2.944c-1.955,-0.588 -3.002,-0.882 -3.141,-0.882c0,0.022 0,0.044 0,0.066z" fill="#000000"/><path d="M232.807,171.31206c0.022,0 0.044,0 0.066,0c3.322,0.279 4.983,0.496 4.983,0.651c0.489,4.325 0.977,8.65 1.466,12.975c0,0.096 -1.466,0.338 -4.399,0.728c-0.022,-0.048 -0.044,-0.096 -0.066,-0.144c0,-0.393 0,-0.786 0,-1.179c-2.528,0.683 -4.262,1.124 -5.203,1.323c-2.234,-3.161 -3.407,-4.844 -3.517,-5.049c1.646,-2.992 2.525,-4.506 2.635,-4.542c1.54,0.073 3.079,0.147 4.619,0.22c-0.095,-0.566 -0.29,-2.227 -0.584,-4.983zM230.756,179.21708c0.743,2.271 1.206,3.516 1.389,3.737c0.732,-0.636 1.463,-1.272 2.194,-1.907c-0.228,-1.316 -0.397,-1.974 -0.507,-1.974c-0.977,0 -1.955,0 -2.932,0c-0.096,0.015 -0.144,0.063 -0.144,0.144z" fill="#000000"/><path d="M244.911,174.66308c2.793,0.75 4.274,1.206 4.443,1.368c1.536,2.175 2.4,3.428 2.591,3.759c-0.992,3.145 -1.562,4.718 -1.709,4.718c-3.307,0.772 -5.038,1.158 -5.192,1.158c-2.734,-1.595 -4.189,-2.484 -4.366,-2.668c-0.095,-2.969 -0.143,-4.608 -0.143,-4.917c-0.044,-0.088 -0.066,-0.154 -0.066,-0.198c2.822,-2.146 4.281,-3.22 4.376,-3.22c0.022,0 0.044,0 0.066,0zM244.702,178.69808c-0.044,0.294 -0.11,1.364 -0.198,3.208c0.819,0.184 1.639,0.368 2.458,0.552c0.588,-1.838 0.882,-2.819 0.882,-2.944c-1.955,-0.588 -3.002,-0.882 -3.142,-0.882c0,0.022 0,0.044 0,0.066z" fill="#000000"/><path d="M260.224,174.65208c4.366,0.603 6.549,0.974 6.549,1.114c1.719,1.477 2.579,2.267 2.579,2.37c-0.698,2.183 -1.095,3.51 -1.19,3.98c0.698,1.551 1.095,2.477 1.19,2.778c0,0.088 -1.139,0.323 -3.417,0.706c-0.03,-0.125 -0.239,-0.405 -0.629,-0.838c-3.145,0.602 -4.839,0.904 -5.082,0.904c-0.558,-1.511 -1.117,-3.021 -1.675,-4.531c1.231,-0.651 2.462,-1.301 3.693,-1.952c0.595,0.096 1.525,0.144 2.789,0.144c0,-0.162 0.022,-0.651 0.066,-1.466c-0.213,0 -2.117,0.139 -5.711,0.418c-0.022,-0.047 -0.044,-0.095 -0.066,-0.143c0.5,-2.322 0.801,-3.484 0.904,-3.484zM262.517,181.13507c0,0.081 0.235,0.941 0.706,2.579c0.022,0 0.044,0 0.066,0c0.926,-0.602 1.389,-0.999 1.389,-1.19c0.048,-0.393 0.095,-0.787 0.143,-1.18c-0.176,0 -0.944,-0.07 -2.304,-0.209z" fill="#000000"/><path d="M280.873,171.32306c0.103,0.294 0.334,2.378 0.694,6.251c1.103,-1.235 2.205,-2.47 3.308,-3.704h0.077c0.514,0.426 1.466,1.326 2.855,2.701c0,0.025 0,0.051 0,0.077c-1.055,0.871 -2.109,1.742 -3.164,2.613c2.381,1.595 3.642,2.495 3.781,2.701c-1.499,1.668 -2.399,2.62 -2.701,2.855c-1.282,-1.183 -2.565,-2.367 -3.847,-3.55c0.154,1.588 0.232,2.771 0.232,3.55c-0.184,0.103 -1.548,0.386 -4.091,0.849c-0.205,-1.029 -0.874,-5.45 -2.006,-13.262c0.47,-0.155 2.091,-0.515 4.862,-1.081z" fill="#2b70c2"/><path d="M290.894,170.23206c1.444,0.228 2.888,0.455 4.332,0.683c-0.543,2.08 -0.9,3.12 -1.069,3.12c-2.278,-0.154 -3.417,-0.305 -3.417,-0.452c0,-1.066 0,-2.131 0,-3.197c0.022,-0.103 0.073,-0.154 0.154,-0.154zM289.681,175.47908c0.022,0 0.044,0 0.066,0c3.352,0.61 5.027,0.967 5.027,1.07c-0.962,5.453 -1.547,8.492 -1.752,9.117c-1.165,0 -2.33,0 -3.495,0c-0.103,0 -0.155,-0.052 -0.155,-0.155c0.103,-3.344 0.206,-6.688 0.309,-10.032z" fill="#2b70c2"/><path d="M299.879,174.66308c3.314,0.625 5.049,0.982 5.203,1.07c0,0.044 0,0.088 0,0.132c-0.713,2.014 -1.069,3.058 -1.069,3.131c-0.022,0 -0.044,0 -0.066,0c-0.184,0 -1.073,-0.287 -2.668,-0.86c-0.89,1.492 -1.334,2.29 -1.334,2.392c0.735,0.713 1.47,1.426 2.205,2.139c1.705,-1.602 2.572,-2.403 2.601,-2.403c1.331,1.742 1.996,2.719 1.996,2.932c-0.728,0.419 -1.996,1.242 -3.804,2.47c-3.498,-0.757 -5.387,-1.18 -5.666,-1.268c-0.577,-1.867 -1.154,-3.734 -1.731,-5.6c1.444,-1.378 2.888,-2.756 4.333,-4.135z" fill="#2b70c2"/><path d="M312.711,171.32306c0.103,0.294 0.334,2.378 0.694,6.251c1.103,-1.235 2.205,-2.47 3.308,-3.704c0.025,0 0.051,0 0.077,0c0.514,0.426 1.466,1.326 2.855,2.701c0,0.025 0,0.051 0,0.077c-1.054,0.871 -2.109,1.742 -3.164,2.613c2.382,1.595 3.642,2.495 3.782,2.701c-1.5,1.668 -2.4,2.62 -2.701,2.855c-1.283,-1.183 -2.565,-2.367 -3.848,-3.55c0.155,1.588 0.232,2.771 0.232,3.55c-0.184,0.103 -1.547,0.386 -4.09,0.849c-0.206,-1.029 -0.875,-5.45 -2.007,-13.262c0.471,-0.155 2.091,-0.515 4.862,-1.081z" fill="#2b70c2"/><path d="M330.107,171.32306c1.617,0.287 3.234,0.573 4.851,0.86c-0.154,1.227 -0.309,2.455 -0.463,3.682c0.963,-0.051 1.668,-0.077 2.117,-0.077c0.235,0 0.47,0 0.705,0c0.052,-0.026 0.103,-0.052 0.155,-0.077c0.025,0.051 0.051,0.103 0.077,0.154c-0.155,2.234 -0.287,3.491 -0.397,3.77c-0.052,-0.029 -0.103,-0.058 -0.154,-0.088c-0.111,0 -1.103,-0.051 -2.977,-0.154c-0.103,1.727 -0.18,3.792 -0.232,6.196c-0.051,0.025 -0.102,0.051 -0.154,0.077c-2.366,-0.155 -3.778,-0.287 -4.233,-0.397c0.025,-0.103 0.051,-0.206 0.077,-0.309c0,-0.639 0.103,-2.624 0.309,-5.953c-1.985,-0.11 -2.977,-0.242 -2.977,-0.397c0.103,-2.455 0.235,-3.682 0.397,-3.682c0.966,0.184 1.933,0.368 2.899,0.551c0,-0.316 0,-0.632 0,-0.948c0,-0.772 -0.029,-1.815 -0.088,-3.131c0.059,0 0.088,-0.025 0.088,-0.077z" fill="#000000"/><path d="M343.16,174.66308c2.793,0.75 4.274,1.206 4.443,1.368c1.536,2.175 2.399,3.428 2.591,3.759c-0.993,3.145 -1.562,4.718 -1.709,4.718c-3.307,0.772 -5.038,1.158 -5.193,1.158c-2.734,-1.595 -4.189,-2.484 -4.365,-2.668c-0.096,-2.969 -0.144,-4.608 -0.144,-4.917c-0.044,-0.088 -0.066,-0.154 -0.066,-0.198c2.823,-2.146 4.281,-3.22 4.377,-3.22c0.022,0 0.044,0 0.066,0zM342.951,178.69808c-0.044,0.294 -0.111,1.364 -0.199,3.208c0.82,0.184 1.639,0.368 2.459,0.552c0.588,-1.838 0.882,-2.819 0.882,-2.944c-1.955,-0.588 -3.003,-0.882 -3.142,-0.882c0,0.022 0,0.044 0,0.066z" fill="#000000"/><path d="M39.011,198.68608c3.123,0.08 4.685,0.216 4.685,0.407c0.536,8.136 0.805,12.465 0.805,12.987c-2.367,1.507 -4.061,2.528 -5.083,3.065c-3.601,-1.132 -5.402,-1.779 -5.402,-1.94c1.162,-1.698 1.834,-2.558 2.018,-2.58c1.962,0.97 3.09,1.455 3.384,1.455l1.048,-1.378c-0.28,-1.139 -0.467,-1.812 -0.563,-2.017c-0.161,0 -2.153,0.323 -5.975,0.97c-2.094,-3.403 -3.142,-5.149 -3.142,-5.237c1.808,-2.888 2.911,-4.582 3.308,-5.082c0.025,0 0.051,0 0.077,0c0.213,0 1.8,0.349 4.762,1.047c0,-0.081 0,-0.161 0,-0.242c0,-0.287 -0.025,-0.746 -0.077,-1.378c0.052,-0.026 0.103,-0.052 0.155,-0.077zM35.549,203.36008c0.103,0.228 0.426,1.44 0.97,3.638c0.684,-0.221 1.731,-0.625 3.142,-1.213c-0.272,-1.323 -0.408,-2.076 -0.408,-2.26l-0.397,-0.077c-0.162,0 -0.323,0 -0.485,0c-0.617,0 -1.558,-0.029 -2.822,-0.088z" fill="#000000"/><path d="M51.942,198.66308c3.329,1.713 5.174,2.712 5.534,2.999c-0.478,2.234 -0.76,3.385 -0.849,3.451c-2.322,0 -4.645,0 -6.967,0c0,0.04 0,0.081 0,0.121c0.65,0.805 1.301,1.61 1.951,2.414l3.065,-1.565c0.301,0.522 0.735,1.433 1.301,2.734c-0.265,0.088 -2.194,0.371 -5.788,0.849c-2.976,-1.963 -4.476,-2.984 -4.498,-3.065c0.478,-3.814 0.761,-5.722 0.849,-5.722c3.109,-1.323 4.91,-2.061 5.402,-2.215zM51.225,201.33108c-0.058,0.147 -0.448,0.732 -1.168,1.753c0,0.309 0.433,0.463 1.301,0.463c0,0.044 0.628,0.151 1.885,0.32c0.345,-0.478 0.518,-0.757 0.518,-0.838c-0.11,-0.654 -0.349,-0.981 -0.717,-0.981c-0.606,-0.239 -1.212,-0.478 -1.819,-0.717z" fill="#000000"/><path d="M61.776,195.32308c1.617,0.287 3.233,0.573 4.85,0.86l-0.463,3.682c0.963,-0.051 1.669,-0.077 2.117,-0.077c0.235,0 0.47,0 0.706,0c0.051,-0.026 0.102,-0.052 0.154,-0.077l0.077,0.154c-0.154,2.234 -0.287,3.491 -0.397,3.77l-0.154,-0.088c-0.11,0 -1.103,-0.051 -2.977,-0.154c-0.103,1.727 -0.18,3.792 -0.231,6.196l-0.155,0.077c-2.366,-0.155 -3.777,-0.287 -4.233,-0.397c0.026,-0.103 0.052,-0.206 0.077,-0.309c0,-0.639 0.103,-2.624 0.309,-5.953c-1.984,-0.11 -2.977,-0.242 -2.977,-0.397c0.103,-2.455 0.236,-3.682 0.397,-3.682l2.9,0.551c0,-0.316 0,-0.632 0,-0.948c0,-0.772 -0.03,-1.815 -0.088,-3.131c0.058,0 0.088,-0.025 0.088,-0.077z" fill="#000000"/><path d="M79.282,195.32308l4.851,0.86l-0.463,3.682c0.963,-0.051 1.668,-0.077 2.117,-0.077c0.235,0 0.47,0 0.705,0c0.052,-0.026 0.103,-0.052 0.155,-0.077c0.025,0.051 0.051,0.103 0.077,0.154c-0.155,2.234 -0.287,3.491 -0.397,3.77l-0.155,-0.088c-0.11,0 -1.102,-0.051 -2.976,-0.154c-0.103,1.727 -0.18,3.792 -0.232,6.196l-0.154,0.077c-2.366,-0.155 -3.778,-0.287 -4.233,-0.397c0.025,-0.103 0.051,-0.206 0.077,-0.309c0,-0.639 0.103,-2.624 0.309,-5.953c-1.985,-0.11 -2.977,-0.242 -2.977,-0.397c0.103,-2.455 0.235,-3.682 0.397,-3.682l2.899,0.551c0,-0.316 0,-0.632 0,-0.948c0,-0.772 -0.029,-1.815 -0.088,-3.131c0.059,0 0.088,-0.025 0.088,-0.077z" fill="#000000"/><path d="M92.335,198.66308c2.793,0.75 4.274,1.206 4.443,1.368c1.536,2.175 2.399,3.428 2.591,3.759c-0.993,3.145 -1.562,4.718 -1.709,4.718c-3.307,0.772 -5.038,1.158 -5.193,1.158c-2.734,-1.595 -4.189,-2.484 -4.365,-2.668c-0.096,-2.969 -0.144,-4.608 -0.144,-4.917c-0.044,-0.088 -0.066,-0.154 -0.066,-0.198c2.822,-2.146 4.281,-3.22 4.377,-3.22c0.022,0 0.044,0 0.066,0zM92.126,202.69808c-0.044,0.294 -0.111,1.364 -0.199,3.208l2.459,0.552c0.588,-1.838 0.882,-2.819 0.882,-2.944c-1.955,-0.588 -3.003,-0.882 -3.142,-0.882z" fill="#000000"/><path d="M109.268,195.32308c1.617,0.287 3.234,0.573 4.851,0.86l-0.463,3.682c0.963,-0.051 1.668,-0.077 2.117,-0.077c0.235,0 0.47,0 0.705,0l0.155,-0.077l0.077,0.154c-0.155,2.234 -0.287,3.491 -0.397,3.77l-0.154,-0.088c-0.111,0 -1.103,-0.051 -2.977,-0.154c-0.103,1.727 -0.18,3.792 -0.231,6.196l-0.155,0.077c-2.366,-0.155 -3.777,-0.287 -4.233,-0.397c0.026,-0.103 0.051,-0.206 0.077,-0.309c0,-0.639 0.103,-2.624 0.309,-5.953c-1.985,-0.11 -2.977,-0.242 -2.977,-0.397c0.103,-2.455 0.235,-3.682 0.397,-3.682l2.899,0.551c0,-0.316 0,-0.632 0,-0.948c0,-0.772 -0.029,-1.815 -0.088,-3.131c0.059,0 0.088,-0.025 0.088,-0.077z" fill="#000000"/><path d="M122.817,195.32308c0.044,0.066 0.25,2.08 0.618,6.041c2.837,-0.867 4.347,-1.3 4.531,-1.3c0.937,0.639 1.874,1.278 2.811,1.918c-0.456,4.189 -0.754,6.636 -0.893,7.342l-3.903,0.132c0,-0.044 -0.025,-0.066 -0.077,-0.066c0.026,-0.092 0.052,-0.184 0.077,-0.275c0,-0.596 0.088,-2.404 0.265,-5.424c-1.073,-0.044 -1.871,-0.066 -2.392,-0.066c-0.092,0 -0.184,0 -0.276,0c0.316,3.358 0.474,5.188 0.474,5.49l-3.704,0.551c-0.14,-0.471 -0.963,-4.862 -2.47,-13.174c0,-0.235 0.574,-0.419 1.72,-0.551c1.448,-0.412 2.521,-0.618 3.219,-0.618z" fill="#000000"/><path d="M133.489,198.65208c4.365,0.603 6.548,0.974 6.548,1.114c1.72,1.477 2.58,2.267 2.58,2.37c-0.698,2.183 -1.095,3.51 -1.191,3.98c0.699,1.551 1.095,2.477 1.191,2.778c0,0.088 -1.139,0.323 -3.418,0.706c-0.029,-0.125 -0.238,-0.405 -0.628,-0.838c-3.146,0.602 -4.84,0.904 -5.082,0.904l-1.676,-4.531c1.231,-0.651 2.462,-1.301 3.693,-1.952c0.596,0.096 1.525,0.144 2.789,0.144c0,-0.162 0.022,-0.651 0.066,-1.466c-0.213,0 -2.116,0.139 -5.71,0.418c-0.022,-0.047 -0.044,-0.095 -0.066,-0.143c0.5,-2.322 0.801,-3.484 0.904,-3.484zM135.782,205.13507c0,0.081 0.235,0.941 0.705,2.579c0.022,0 0.045,0 0.067,0c0.926,-0.602 1.389,-0.999 1.389,-1.19l0.143,-1.18c-0.176,0 -0.945,-0.07 -2.304,-0.209z" fill="#000000"/><path d="M146.972,195.32308l4.85,0.86c-0.154,1.227 -0.308,2.455 -0.463,3.682c0.963,-0.051 1.669,-0.077 2.117,-0.077c0.235,0 0.47,0 0.705,0c0.052,-0.026 0.103,-0.052 0.155,-0.077c0.025,0.051 0.051,0.103 0.077,0.154c-0.154,2.234 -0.287,3.491 -0.397,3.77c-0.051,-0.029 -0.103,-0.058 -0.154,-0.088c-0.11,0 -1.103,-0.051 -2.977,-0.154c-0.103,1.727 -0.18,3.792 -0.231,6.196l-0.155,0.077c-2.366,-0.155 -3.777,-0.287 -4.233,-0.397c0.026,-0.103 0.051,-0.206 0.077,-0.309c0,-0.639 0.103,-2.624 0.309,-5.953c-1.984,-0.11 -2.977,-0.242 -2.977,-0.397c0.103,-2.455 0.236,-3.682 0.397,-3.682l2.9,0.551c0,-0.316 0,-0.632 0,-0.948c0,-0.772 -0.03,-1.815 -0.089,-3.131c0.059,0 0.089,-0.025 0.089,-0.077z" fill="#000000"/><path d="M161.182,195.33406c2.249,0.044 3.899,0.066 4.95,0.066c0.095,0 0.386,4.513 0.871,13.538c-0.375,0.096 -1.683,0.338 -3.925,0.728c-0.11,0 -0.474,-2.764 -1.091,-8.291c-0.052,-0.132 -0.32,-2.146 -0.805,-6.041z" fill="#2b70c2"/><path d="M172.68,198.66308c2.793,0.75 4.274,1.206 4.443,1.368c1.536,2.175 2.4,3.428 2.591,3.759c-0.992,3.145 -1.562,4.718 -1.709,4.718c-3.307,0.772 -5.038,1.158 -5.193,1.158c-2.734,-1.595 -4.189,-2.484 -4.365,-2.668c-0.096,-2.969 -0.143,-4.608 -0.143,-4.917c-0.045,-0.088 -0.067,-0.154 -0.067,-0.198c2.823,-2.146 4.282,-3.22 4.377,-3.22c0.022,0 0.044,0 0.066,0zM172.471,202.69808c-0.044,0.294 -0.11,1.364 -0.199,3.208c0.82,0.184 1.639,0.368 2.459,0.552c0.588,-1.838 0.882,-2.819 0.882,-2.944c-1.955,-0.588 -3.003,-0.882 -3.142,-0.882c0,0.022 0,0.044 0,0.066z" fill="#2b70c2"/><path d="M185.557,198.65208c0.095,0.125 0.591,2.257 1.488,6.395c0.026,0 0.051,0 0.077,0c0,-0.096 0.544,-0.938 1.632,-2.525c0.455,0.309 1.323,0.977 2.601,2.006c0.052,0 0.103,0 0.155,0c0,-0.025 0,-0.051 0,-0.077c0.198,-2.866 0.345,-4.454 0.441,-4.762c3.028,0.154 4.542,0.279 4.542,0.375c-1.389,5.585 -2.132,8.488 -2.227,8.709c-0.463,0.051 -1.433,0.198 -2.911,0.441c-1.212,-1.904 -1.907,-2.918 -2.083,-3.043c-0.794,2.117 -1.29,3.282 -1.488,3.495c-0.993,0 -1.985,0 -2.977,0c-0.184,-0.059 -1.051,-1.97 -2.602,-5.733c-0.992,-2.102 -1.488,-3.241 -1.488,-3.417c0,-0.162 1.613,-0.783 4.84,-1.864z" fill="#2b70c2"/><path d="M203.945,198.66308c3.329,1.713 5.174,2.712 5.534,2.999c-0.477,2.234 -0.76,3.385 -0.849,3.451c-2.322,0 -4.644,0 -6.967,0c0,0.04 0,0.081 0,0.121c0.651,0.805 1.301,1.61 1.951,2.414c1.022,-0.522 2.044,-1.043 3.065,-1.565c0.302,0.522 0.735,1.433 1.301,2.734c-0.265,0.088 -2.194,0.371 -5.788,0.849c-2.976,-1.963 -4.476,-2.984 -4.498,-3.065c0.478,-3.814 0.761,-5.722 0.849,-5.722c3.109,-1.323 4.91,-2.061 5.402,-2.215zM203.229,201.33108c-0.059,0.147 -0.449,0.732 -1.169,1.753c0,0.309 0.434,0.463 1.301,0.463c0,0.044 0.628,0.151 1.885,0.32c0.345,-0.478 0.518,-0.757 0.518,-0.838c-0.11,-0.654 -0.349,-0.981 -0.716,-0.981c-0.607,-0.239 -1.213,-0.478 -1.819,-0.717z" fill="#2b70c2"/><path d="M218.398,198.65208c1.455,0.816 2.348,1.345 2.679,1.588c-1.191,2.477 -1.83,3.737 -1.918,3.781c-0.026,0 -0.052,0 -0.078,0c-0.525,-0.459 -1.051,-0.918 -1.576,-1.378c-0.621,0.757 -1.242,1.514 -1.863,2.271c0.07,1.378 0.14,2.756 0.209,4.134c-0.095,0.089 -1.312,0.294 -3.649,0.618c-0.088,-0.632 -0.661,-3.73 -1.719,-9.294c0,-0.088 1.536,-0.316 4.608,-0.683c0.051,0.059 0.191,0.746 0.419,2.061c1.837,-2.065 2.8,-3.098 2.888,-3.098z" fill="#2b70c2"/><path d="M233.082,198.66308c0.228,0.941 0.386,1.522 0.474,1.742c3.249,-0.742 4.965,-1.113 5.149,-1.113c2.212,3.182 3.318,4.843 3.318,4.983c-0.845,1.793 -1.69,3.586 -2.535,5.38c-1.82,-0.291 -3.639,-0.581 -5.458,-0.871c0,0.055 0,0.11 0,0.165c0.427,3.271 0.64,5.009 0.64,5.215c-0.052,0 -0.077,0.025 -0.077,0.077c-0.529,-0.052 -0.926,-0.077 -1.191,-0.077c-0.316,0 -0.632,0 -0.948,0c-0.551,0 -1.396,-0.026 -2.536,-0.078c-0.103,-0.308 -0.893,-5.001 -2.37,-14.078c0.25,-0.102 2.095,-0.551 5.534,-1.345zM233.479,203.17206c0.147,1.691 0.28,2.536 0.397,2.536c1.507,0.522 2.429,0.783 2.767,0.783c0.291,-1.264 0.581,-2.528 0.871,-3.793c-0.026,0 -0.051,0 -0.077,0c-0.86,0.052 -2.179,0.21 -3.958,0.474z" fill="#2b70c2"/><path d="M243.159,195.33406c2.249,0.044 3.899,0.066 4.95,0.066c0.095,0 0.385,4.513 0.87,13.538c-0.374,0.096 -1.683,0.338 -3.924,0.728c-0.11,0 -0.474,-2.764 -1.092,-8.291c-0.051,-0.132 -0.319,-2.146 -0.804,-6.041z" fill="#2b70c2"/><path d="M251.89,198.65208c4.365,0.603 6.548,0.974 6.548,1.114c1.72,1.477 2.58,2.267 2.58,2.37c-0.698,2.183 -1.095,3.51 -1.191,3.98c0.699,1.551 1.095,2.477 1.191,2.778c0,0.088 -1.139,0.323 -3.418,0.706c-0.029,-0.125 -0.238,-0.405 -0.628,-0.838c-3.146,0.602 -4.84,0.904 -5.082,0.904c-0.559,-1.511 -1.117,-3.021 -1.676,-4.531c1.231,-0.651 2.462,-1.301 3.693,-1.952c0.596,0.096 1.525,0.144 2.789,0.144c0,-0.162 0.022,-0.651 0.067,-1.466c-0.214,0 -2.117,0.139 -5.711,0.418c-0.022,-0.047 -0.044,-0.095 -0.066,-0.143c0.5,-2.322 0.801,-3.484 0.904,-3.484zM254.183,205.13507c0,0.081 0.235,0.941 0.705,2.579c0.022,0 0.045,0 0.067,0c0.926,-0.602 1.389,-0.999 1.389,-1.19c0.047,-0.393 0.095,-0.787 0.143,-1.18c-0.176,0 -0.944,-0.07 -2.304,-0.209z" fill="#2b70c2"/><path d="M265.373,195.32308c1.616,0.287 3.233,0.573 4.85,0.86c-0.154,1.227 -0.308,2.455 -0.463,3.682c0.963,-0.051 1.669,-0.077 2.117,-0.077c0.235,0 0.47,0 0.705,0c0.052,-0.026 0.103,-0.052 0.155,-0.077c0.026,0.051 0.051,0.103 0.077,0.154c-0.154,2.234 -0.287,3.491 -0.397,3.77c-0.051,-0.029 -0.103,-0.058 -0.154,-0.088c-0.11,0 -1.103,-0.051 -2.977,-0.154c-0.103,1.727 -0.18,3.792 -0.231,6.196c-0.052,0.025 -0.103,0.051 -0.155,0.077c-2.366,-0.155 -3.777,-0.287 -4.233,-0.397c0.026,-0.103 0.052,-0.206 0.077,-0.309c0,-0.639 0.103,-2.624 0.309,-5.953c-1.984,-0.11 -2.977,-0.242 -2.977,-0.397c0.103,-2.455 0.236,-3.682 0.397,-3.682c0.967,0.184 1.933,0.368 2.9,0.551c0,-0.316 0,-0.632 0,-0.948c0,-0.772 -0.03,-1.815 -0.089,-3.131c0.059,0 0.089,-0.025 0.089,-0.077z" fill="#2b70c2"/><path d="M278.569,195.32308c0.389,0.044 1.808,0.371 4.255,0.981c0.022,0.044 0.044,0.088 0.066,0.133c-0.36,2.006 -0.577,3.009 -0.65,3.009c-0.022,0 -0.044,0 -0.066,0l-1.775,-0.915c0,0.206 -0.066,1.125 -0.199,2.756l2.426,-0.595c0.073,0.22 0.139,1.202 0.198,2.943c-0.235,0.089 -1.044,0.221 -2.425,0.397c0.308,1.323 0.635,2.94 0.981,4.851c-1.132,0.257 -2.484,0.518 -4.057,0.783c-0.022,-0.044 -0.044,-0.088 -0.066,-0.133c-0.206,-3.402 -0.379,-5.104 -0.518,-5.104c-1.426,0.346 -2.191,0.54 -2.293,0.584c-0.089,-0.426 -0.243,-1.583 -0.463,-3.472c0.044,-0.022 0.088,-0.044 0.132,-0.066c0.786,0 1.573,0 2.359,0c-0.132,-1.088 -0.331,-2.507 -0.595,-4.256c0.896,-0.632 1.793,-1.264 2.69,-1.896z" fill="#2b70c2"/><path d="M288.347,198.66308c2.793,0.75 4.274,1.206 4.443,1.368c1.536,2.175 2.4,3.428 2.591,3.759c-0.992,3.145 -1.562,4.718 -1.709,4.718c-3.307,0.772 -5.038,1.158 -5.192,1.158c-2.735,-1.595 -4.19,-2.484 -4.366,-2.668c-0.096,-2.969 -0.143,-4.608 -0.143,-4.917c-0.045,-0.088 -0.067,-0.154 -0.067,-0.198c2.823,-2.146 4.282,-3.22 4.377,-3.22c0.022,0 0.044,0 0.066,0zM288.138,202.69808c-0.044,0.294 -0.11,1.364 -0.199,3.208c0.82,0.184 1.639,0.368 2.459,0.552c0.588,-1.838 0.882,-2.819 0.882,-2.944c-1.955,-0.588 -3.003,-0.882 -3.142,-0.882c0,0.022 0,0.044 0,0.066z" fill="#2b70c2"/><path d="M304.299,198.65208c1.456,0.816 2.349,1.345 2.679,1.588c-1.19,2.477 -1.83,3.737 -1.918,3.781c-0.026,0 -0.051,0 -0.077,0c-0.526,-0.459 -1.051,-0.918 -1.577,-1.378c-0.621,0.757 -1.242,1.514 -1.863,2.271c0.07,1.378 0.14,2.756 0.21,4.134c-0.096,0.089 -1.312,0.294 -3.649,0.618c-0.088,-0.632 -0.662,-3.73 -1.72,-9.294c0,-0.088 1.536,-0.316 4.608,-0.683c0.052,0.059 0.191,0.746 0.419,2.061c1.837,-2.065 2.8,-3.098 2.888,-3.098z" fill="#2b70c2"/><path d="M320.097,198.65208c1.794,0.743 3.341,1.441 4.641,2.095c-0.338,4.373 -0.554,6.765 -0.65,7.177c-2.161,0.536 -3.37,0.805 -3.627,0.805c0,-0.956 -0.073,-2.841 -0.22,-5.656c-0.816,0.081 -1.224,0.151 -1.224,0.21c0,0.279 0.048,1.874 0.143,4.784c0.044,0 0.066,0.026 0.066,0.077c0,0.089 -1.135,0.331 -3.406,0.728c-0.096,-0.118 -0.386,-1.907 -0.871,-5.369c-0.919,0.235 -1.378,0.404 -1.378,0.507c0.147,1.5 0.294,2.999 0.441,4.498c-0.088,0.096 -1.297,0.482 -3.627,1.158c-1.353,-4.785 -2.198,-7.997 -2.536,-9.635c2.55,-0.633 3.976,-0.949 4.278,-0.949c0.338,1.338 0.507,2.11 0.507,2.316c0.025,0 0.051,0 0.077,0c1.242,-1.147 2.109,-1.919 2.602,-2.316c0.025,0 0.051,0 0.077,0c0.772,0.555 1.543,1.11 2.315,1.665c0.026,0 0.051,0 0.077,0c1.448,-1.396 2.22,-2.095 2.315,-2.095z" fill="#2b70c2"/><path d="M325.929,206.27008c0.052,0.03 1.198,0.118 3.44,0.265c0.014,0.029 0.029,0.059 0.044,0.088c-0.346,2.029 -0.566,3.043 -0.662,3.043c-0.852,0 -1.705,0 -2.557,0c-0.089,0 -0.206,-1.014 -0.353,-3.043c-0.03,0 -0.044,-0.088 -0.044,-0.265c0.088,-0.029 0.132,-0.058 0.132,-0.088z" fill="#000000"/></g></g></g></svg>