<svg version="1.1" xmlns="http://www.w3.org/2000/svg" xmlns:xlink="http://www.w3.org/1999/xlink" width="727.778" height="392.14516" viewBox="0,0,727.778,392.14516"><defs><linearGradient x1="21.89172" y1="273.70004" x2="47.43046" y2="341.43667" gradientUnits="userSpaceOnUse" id="color-1"><stop offset="0" stop-color="#867037"/><stop offset="1" stop-color="#ac8f46"/></linearGradient><radialGradient cx="14.62767" cy="260.45277" r="371.79036" gradientUnits="userSpaceOnUse" id="color-2"><stop offset="0" stop-color="#b1eb5b"/><stop offset="1" stop-color="#94d955"/></radialGradient><linearGradient x1="283.33343" y1="216.13532" x2="283.33343" y2="256.53035" gradientUnits="userSpaceOnUse" id="color-3"><stop offset="0" stop-color="#cfa63e"/><stop offset="1" stop-color="#daac3a"/></linearGradient><radialGradient cx="303.93594" cy="240.58884" r="435.74146" gradientUnits="userSpaceOnUse" id="color-4"><stop offset="0" stop-color="#b1eb5b"/><stop offset="1" stop-color="#94d955"/></radialGradient><linearGradient x1="250.36333" y1="52.97947" x2="274.58504" y2="72.98253" gradientUnits="userSpaceOnUse" id="color-5"><stop offset="0" stop-color="#7dad57"/><stop offset="1" stop-color="#68913c"/></linearGradient><linearGradient x1="187.98702" y1="76.40608" x2="192.91147" y2="112.48835" gradientUnits="userSpaceOnUse" id="color-6"><stop offset="0" stop-color="#7dad57"/><stop offset="1" stop-color="#68913c"/></linearGradient><linearGradient x1="287.144" y1="76.40608" x2="282.21955" y2="112.48835" gradientUnits="userSpaceOnUse" id="color-7"><stop offset="0" stop-color="#7dad57"/><stop offset="1" stop-color="#68913c"/></linearGradient><linearGradient x1="225.98799" y1="169.2114" x2="247.98817" y2="169.2114" gradientUnits="userSpaceOnUse" id="color-8"><stop offset="0" stop-color="#916f3b"/><stop offset="1" stop-color="#ad8a56"/></linearGradient><linearGradient x1="224.69576" y1="103.78839" x2="251.15222" y2="99.52608" gradientUnits="userSpaceOnUse" id="color-9"><stop offset="0" stop-color="#93713d"/><stop offset="1" stop-color="#ac8a56"/></linearGradient><linearGradient x1="237.30548" y1="131.37343" x2="244.02972" y2="131.37343" gradientUnits="userSpaceOnUse" id="color-10"><stop offset="0" stop-color="#9c7a46"/><stop offset="1" stop-color="#a17f4b"/></linearGradient><linearGradient x1="467.95178" y1="185.13814" x2="518.87133" y2="282.90194" gradientUnits="userSpaceOnUse" id="color-11"><stop offset="0" stop-color="#cfb841"/><stop offset="1" stop-color="#a28e42"/></linearGradient><linearGradient x1="381.65353" y1="241.92571" x2="410.7978" y2="296.59159" gradientUnits="userSpaceOnUse" id="color-12"><stop offset="0" stop-color="#c3e060"/><stop offset="1" stop-color="#6de01b"/></linearGradient></defs><g transform="translate(202.30417,-37.45443)"><g data-paper-data="{&quot;isPaintingLayer&quot;:true}" fill="none" fill-rule="nonzero" stroke="none" stroke-width="none" stroke-linecap="none" stroke-linejoin="miter" stroke-miterlimit="10" stroke-dasharray="" stroke-dashoffset="0" font-family="none" font-weight="none" font-size="none" text-anchor="none" style="mix-blend-mode: normal"><path d="M60.16276,272.29782l31.7575,88.83319l-243.29564,67.26143l-25.53874,-67.73663z" data-paper-data="{&quot;origPos&quot;:null,&quot;index&quot;:null,&quot;origRot&quot;:0}" id="ID0.29126935824751854" fill="url(#color-1)" stroke="#8d763a" stroke-width="2" stroke-linecap="butt"/><path d="M6.87095,270.51568c13.59018,-5.25239 26.99731,-11.03065 40.49239,-16.59225c0.21095,0.05816 7.62285,-0.62253 8.54979,-0.73948c1.62835,-0.20545 8.14768,4.81961 8.14768,4.81961l6.51202,14.20737c0,0 -27.31345,30.27332 -45.87161,37.62927c-24.76061,9.81073 -53.73415,-3.2585 -79.32468,4.71222c-26.79151,9.22023 -45.29242,35.25389 -71.84372,44.89877c-21.48185,7.79956 -45.36648,8.37903 -67.54135,7.65359c-0.29899,-0.01016 -0.63844,-0.02071 -1.01336,-0.03213c-2.00539,-5.31892 -4.01078,-10.63783 -6.01617,-15.95675c67.6006,-30.67876 138.86647,-53.61008 207.90902,-80.60022z" data-paper-data="{&quot;origPos&quot;:null,&quot;index&quot;:null,&quot;origRot&quot;:0}" id="ID0.22012263583019376" fill="url(#color-2)" stroke="#3d6600" stroke-width="2" stroke-linecap="butt"/><path d="M67.0226,294.31313c-14.67362,11.4023 -29.70525,25.95835 -53.08334,35.79675c-34.07386,14.33959 -43.82809,-3.66809 -71.33174,7.54632c-27.50365,11.21441 -34.18217,33.46203 -65.60909,44.68393c-23.63617,8.44 -42.19844,15.65672 -57.06277,9.55616" data-paper-data="{&quot;origPos&quot;:null,&quot;origRot&quot;:0,&quot;index&quot;:null}" fill="none" stroke="#bba15f" stroke-width="9" stroke-linecap="round"/><path d="M76.22014,319.27953c-14.62089,11.38281 -29.62709,25.86597 -52.91668,35.66712c-34.07386,14.33959 -43.82809,-3.66809 -71.33174,7.54632c-27.50365,11.21441 -34.18217,33.46203 -65.60909,44.68393c-23.63617,8.44 -42.19844,15.65672 -57.06277,9.55616" data-paper-data="{&quot;origPos&quot;:null,&quot;origRot&quot;:0,&quot;index&quot;:null}" fill="none" stroke="#7d6938" stroke-width="9" stroke-linecap="round"/><g data-paper-data="{&quot;origPos&quot;:null}"><path d="M329.67792,244.12756c17.41976,1.5196 20.00046,7.59393 20.00046,10.02325c-0.04178,0.03433 -0.0835,0.06868 -0.12509,0.10306c-10.95845,2.21305 -152.45906,0.66284 -174.39505,0.66284c-5.80659,0 -45.16232,-1.21567 -50.9689,-1.21567c-0.3226,0 2.90329,-2.43136 2.90329,-2.58331c0,-1.82352 19.274,-4.82674 22.58117,-5.77447c12.25835,-3.51284 176.19777,-1.54772 180.00412,-1.21567z" data-paper-data="{&quot;origPos&quot;:null,&quot;index&quot;:null}" id="ID0.29126935824751854" fill="url(#color-3)" stroke="#aa8730" stroke-width="2" stroke-linecap="butt"/><path d="M329.29083,245.96014c-22.52718,3.9061 -14.70264,2.87134 -38.79875,3.06439c-31.21024,0.24814 -95.00058,-1.03442 -126.36014,-1.91039c-32.07962,-0.44456 18.67895,-9.9595 42.92772,-11.18618c8.08292,-0.40889 72.00957,0.04188 80.13836,-0.00498c8.12879,-0.04686 64.62001,6.13105 42.09283,10.03715z" data-paper-data="{&quot;origPos&quot;:null,&quot;index&quot;:null}" id="ID0.22012263583019376" fill="url(#color-4)" stroke="#3d6600" stroke-width="2" stroke-linecap="round"/><path d="M237.20551,95.13705l-0.7798,-12.64935l1.5988,-13.68638l4.65556,-9.16112l9.45634,-8.19782l6.50124,-5.636l13.68061,-5.70973l11.34558,-1.63538l9.58703,0.91415l12.65831,6.45184l-10.14901,1.6231l-13.69513,4.69729l-10.68194,6.18523l-7.09226,6.14836l-8.86531,7.68547l-11.17132,13.78468z" data-paper-data="{&quot;origPos&quot;:null,&quot;origRot&quot;:0,&quot;index&quot;:null}" fill="url(#color-5)" stroke="#335e2d" stroke-width="2" stroke-linecap="round"/><path d="M211.05699,98.11404c2.52118,-4.48701 7.94073,-5.92218 12.10492,-3.20555c4.16418,2.71663 5.49611,8.55634 2.97493,13.04335c-2.52118,4.48701 -7.94073,5.92218 -12.10492,3.20555c-4.16418,-2.71663 -5.4961,-8.55633 -2.97492,-13.04335z" data-paper-data="{&quot;origPos&quot;:null,&quot;origRot&quot;:0}" fill="#795d34" stroke="#573b00" stroke-width="2" stroke-linecap="butt"/><path d="M219.51359,119.90047c0,-5.24531 3.94624,-9.49748 8.81418,-9.49748c4.86794,0 8.81418,4.25217 8.81418,9.49748c0,5.24531 -3.94624,9.49749 -8.81418,9.49749c-4.86794,0 -8.81418,-4.25218 -8.81418,-9.49749z" data-paper-data="{&quot;origPos&quot;:null}" fill="#795d34" stroke="#573b00" stroke-width="2" stroke-linecap="butt"/><path d="M223.12299,95.7207l-19.74705,-0.55715l-12.55735,1.98983l-10.04588,1.59187l-12.18801,4.696l-12.53272,8.43688l-7.50979,7.64096l1.25574,-15.86558l4.75209,-9.0471l8.22383,-8.67566l13.493,-7.66748l9.20873,-1.45921l13.39451,-2.12249l11.49859,2.78576l14.03469,8.83485l11.64633,10.13487z" data-paper-data="{&quot;origPos&quot;:null,&quot;origRot&quot;:0}" fill="url(#color-6)" stroke="#335e2d" stroke-width="2" stroke-linecap="round"/><path d="M247.01381,103.94469c0,-5.24532 3.94624,-9.49748 8.81418,-9.49748c4.86794,0 8.81418,4.25217 8.81418,9.49748c0,5.24531 -3.94624,9.49749 -8.81418,9.49749c-4.86794,0 -8.81418,-4.25218 -8.81418,-9.49749z" data-paper-data="{&quot;origPos&quot;:null}" fill="#795d34" stroke="#573b00" stroke-width="2" stroke-linecap="butt"/><path d="M242.783,83.88601c0,-5.24532 3.94624,-9.49748 8.81418,-9.49748c4.86794,0 8.81418,4.25217 8.81418,9.49748c0,5.24532 -3.94624,9.49749 -8.81418,9.49749c-4.86794,0 -8.81418,-4.25218 -8.81418,-9.49749z" data-paper-data="{&quot;origPos&quot;:null}" fill="#795d34" stroke="#573b00" stroke-width="2" stroke-linecap="butt"/><path d="M239.08136,96.43704l11.64633,-10.13487l14.03469,-8.83485l11.49859,-2.78576l13.39451,2.12249l9.20872,1.45921l13.493,7.66748l8.22383,8.67566l4.75209,9.0471l1.25574,15.86558l-7.50979,-7.64096l-12.53272,-8.43688l-12.18802,-4.696l-10.04588,-1.59187l-12.55735,-1.98983l-19.74704,0.55715z" data-paper-data="{&quot;origPos&quot;:null,&quot;origRot&quot;:0,&quot;index&quot;:null}" fill="url(#color-7)" stroke="#335e2d" stroke-width="2" stroke-linecap="round"/><g data-paper-data="{&quot;origPos&quot;:null}" stroke="#5c482a"><path d="M234.4496,172.85844c2.42888,-27.66735 3.38464,-71.11716 3.38464,-71.11716c0,0 7.22548,25.23063 9.30777,44.67617c2.08229,19.44554 0.99307,34.47503 0.84616,50.14672c-0.14691,15.67169 -1.69232,40.11737 -1.69232,40.11737h-20.30785c0,0 6.03273,-36.15575 8.46161,-63.82309z" data-paper-data="{&quot;origPos&quot;:null}" fill="url(#color-8)" stroke-width="2" stroke-linecap="round"/><path d="M251.15222,99.52608c1.57611,11.35867 -8.83568,21.59495 -6.93559,30.20005c0.56285,2.54903 -6.86921,2.56377 -7.52189,0.03974c-3.07495,-11.89154 -10.49704,-15.15332 -11.99898,-25.97748c-1.50194,-10.82417 3.20296,-20.55303 10.50871,-21.73003c7.30575,-1.177 14.4458,6.64356 15.94774,17.46772z" data-paper-data="{&quot;origPos&quot;:null,&quot;origRot&quot;:0}" fill="url(#color-9)" stroke-width="2" stroke-linecap="butt"/><path d="M238.17002,134.99619l-0.86455,-6.31395l5.85969,-0.93157l0.86455,6.31395z" data-paper-data="{&quot;origPos&quot;:null,&quot;origRot&quot;:0}" fill="url(#color-10)" stroke-width="0" stroke-linecap="butt"/></g><path d="M241.51376,116.70931c0,-5.24531 3.94624,-9.49748 8.81418,-9.49748c4.86794,0 8.81418,4.25217 8.81418,9.49748c0,5.24531 -3.94624,9.49749 -8.81418,9.49749c-4.86794,0 -8.81418,-4.25218 -8.81418,-9.49749z" data-paper-data="{&quot;origPos&quot;:null}" fill="#795d34" stroke="#573b00" stroke-width="2" stroke-linecap="butt"/><path d="M224.30849,110.63092c0,-5.24532 3.94624,-9.49748 8.81417,-9.49748c4.86794,0 8.81418,4.25217 8.81418,9.49748c0,5.24531 -3.94624,9.49749 -8.81418,9.49749c-4.86794,0 -8.81417,-4.25218 -8.81417,-9.49749z" data-paper-data="{&quot;origPos&quot;:null}" fill="#795d34" stroke="#573b00" stroke-width="2" stroke-linecap="butt"/><path d="M234.8855,98.47414c0,-5.24532 3.94624,-9.49748 8.81417,-9.49748c4.86794,0 8.81418,4.25217 8.81418,9.49748c0,5.24532 -3.94624,9.49749 -8.81418,9.49749c-4.86794,0 -8.81417,-4.25218 -8.81417,-9.49749z" data-paper-data="{&quot;origPos&quot;:null}" fill="#795d34" stroke="#573b00" stroke-width="2" stroke-linecap="butt"/><path d="M232.62908,125.8269c0,-5.24531 3.94624,-9.49748 8.81418,-9.49748c4.86794,0 8.81418,4.25217 8.81418,9.49748c0,5.24531 -3.94624,9.49749 -8.81418,9.49749c-4.86794,0 -8.81418,-4.25218 -8.81418,-9.49749z" data-paper-data="{&quot;origPos&quot;:null}" fill="#795d34" stroke="#573b00" stroke-width="2" stroke-linecap="butt"/></g><g data-paper-data="{&quot;origPos&quot;:null,&quot;origRot&quot;:0}" stroke-width="2" stroke-linecap="butt"><path d="M422.44229,219.48149l96.11394,-65.42322l-0.37465,207.31189l-94.11394,0.26122z" data-paper-data="{&quot;origPos&quot;:null}" id="ID0.29126935824751854" fill="url(#color-11)" stroke="#82721f"/><path d="M515.98593,221.99825l-14.53198,-7.28168l-4.28786,16.37228l-13.49111,-5.32934l-5.32873,14.41993c0,0 -10.53801,-10.9434 -10.70219,-11.83415c-0.81978,-4.44771 -12.48706,5.19718 -12.48706,5.19718c0,0 -4.13442,-16.39891 -5.13328,-16.63244c-3.49213,-0.81647 -11.07977,1.76979 -11.07977,1.76979c0,0 -7.07494,-6.01581 -5.9322,-6.7859c0.84432,-0.56899 1.31936,-0.88851 2.16389,-1.45708c2.53357,-1.70568 66.94061,-45.05635 66.94061,-45.05635l14.57895,11.53381l-5.99988,8.43941l13.03354,16.16477l-12.35408,3.2829z" data-paper-data="{&quot;origPos&quot;:null,&quot;origRot&quot;:0}" fill="url(#color-12)" stroke="#0f6600"/></g></g></g></svg>