<svg version="1.1" xmlns="http://www.w3.org/2000/svg" xmlns:xlink="http://www.w3.org/1999/xlink" width="631.23698" height="146.98215" viewBox="0,0,631.23698,146.98215"><defs><linearGradient x1="428.22516" y1="21.84166" x2="428.22516" y2="165.92029" gradientUnits="userSpaceOnUse" id="color-1"><stop offset="0" stop-color="#fff538"/><stop offset="1" stop-color="#ffb73b"/></linearGradient><linearGradient x1="465.27116" y1="77.42653" x2="465.27116" y2="147.57891" gradientUnits="userSpaceOnUse" id="color-2"><stop offset="0" stop-color="#51d3ff"/><stop offset="1" stop-color="#99ffff"/></linearGradient><linearGradient x1="508.9893" y1="115.04451" x2="520.17302" y2="115.04451" gradientUnits="userSpaceOnUse" id="color-3"><stop offset="0" stop-color="#afafaf"/><stop offset="1" stop-color="#e5e5e5"/></linearGradient><linearGradient x1="507.80316" y1="124.78789" x2="514.07281" y2="124.78789" gradientUnits="userSpaceOnUse" id="color-4"><stop offset="0" stop-color="#afafaf"/><stop offset="1" stop-color="#e5e5e5"/></linearGradient><linearGradient x1="515.25896" y1="124.61847" x2="522.03696" y2="124.61847" gradientUnits="userSpaceOnUse" id="color-5"><stop offset="0" stop-color="#afafaf"/><stop offset="1" stop-color="#e5e5e5"/></linearGradient><linearGradient x1="298.39926" y1="87.96366" x2="303.45867" y2="120.12178" gradientUnits="userSpaceOnUse" id="color-6"><stop offset="0" stop-color="#41a0ff"/><stop offset="1" stop-color="#3be6ff"/></linearGradient><linearGradient x1="391.42815" y1="99.52462" x2="385.82799" y2="128.15053" gradientUnits="userSpaceOnUse" id="color-7"><stop offset="0" stop-color="#b2b2b2"/><stop offset="1" stop-color="#7f7f7f"/></linearGradient><linearGradient x1="649.95531" y1="82.66172" x2="659.15723" y2="148.51738" gradientUnits="userSpaceOnUse" id="color-8"><stop offset="0" stop-color="#74c2ff"/><stop offset="1" stop-color="#99ffff"/></linearGradient><linearGradient x1="658.35526" y1="99.48549" x2="661.33118" y2="120.78332" gradientUnits="userSpaceOnUse" id="color-9"><stop offset="0" stop-color="#b44b44"/><stop offset="1" stop-color="#b44b44"/></linearGradient><linearGradient x1="569.80061" y1="73.27483" x2="557.24231" y2="135.73318" gradientUnits="userSpaceOnUse" id="color-10"><stop offset="0" stop-color="#6494ff"/><stop offset="1" stop-color="#51d3ff"/></linearGradient></defs><g transform="translate(-240.88953,-21.92927)"><g data-paper-data="{&quot;isPaintingLayer&quot;:true}" fill-rule="nonzero" stroke-linejoin="miter" stroke-miterlimit="10" stroke-dasharray="" stroke-dashoffset="0" style="mix-blend-mode: normal"><path d="M297.64215,23.92927h572.48371l-0.0456,141.67505l-626.29786,1.30109z" fill="url(#color-1)" stroke="#4f391c" stroke-width="4" stroke-linecap="round"/><g><path d="M465.27116,77.42653h69.98291v70.15236h-69.98291z" fill="url(#color-2)" stroke="none" stroke-width="1" stroke-linecap="butt"/><path d="M471.87972,127.92273c1.96359,0 3.74282,0.79777 5.03131,2.08559c1.28782,1.2885 2.08559,3.06773 2.08559,5.03131c0,1.96359 -0.79777,3.74282 -2.08559,5.03131c-1.2885,1.28782 -3.06773,2.08559 -5.03131,2.08559c-1.96359,0 -3.74282,-0.79777 -5.03132,-2.08559c-1.28782,-1.2885 -2.08559,-3.06773 -2.08559,-5.03131c0,-1.96359 0.79777,-3.74282 2.08559,-5.03131c1.2885,-1.28782 3.06773,-2.08559 5.03132,-2.08559z" fill="#ffffff" stroke="none" stroke-width="1" stroke-linecap="butt"/><path d="M480.86058,123.00868c1.96359,0 3.74282,0.79777 5.03131,2.08559c1.28782,1.2885 2.08559,3.06773 2.08559,5.03131c0,1.96359 -0.79777,3.74282 -2.08559,5.03131c-1.2885,1.28782 -3.06773,2.08559 -5.03131,2.08559c-1.96359,0 -3.74282,-0.79777 -5.03131,-2.08559c-1.28782,-1.2885 -2.08559,-3.06773 -2.08559,-5.03131c0,-1.96359 0.79777,-3.74282 2.08559,-5.03131c1.2885,-1.28782 3.06773,-2.08559 5.03131,-2.08559z" fill="#ffffff" stroke="none" stroke-width="1" stroke-linecap="butt"/><path d="M491.87484,124.36426c1.96359,0 3.74282,0.79777 5.03131,2.08559c1.28782,1.2885 2.08559,3.06773 2.08559,5.03131c0,1.96359 -0.79777,3.74282 -2.08559,5.03132c-1.2885,1.28782 -3.06773,2.08559 -5.03131,2.08559c-1.96359,0 -3.74282,-0.79777 -5.03131,-2.08559c-1.28782,-1.2885 -2.08559,-3.06773 -2.08559,-5.03132c0,-1.96359 0.79777,-3.74282 2.08559,-5.03131c1.2885,-1.28782 3.06773,-2.08559 5.03131,-2.08559z" fill="#ffffff" stroke="none" stroke-width="1" stroke-linecap="butt"/><path d="M503.73635,118.43355c1.96359,0 3.74282,0.79777 5.03131,2.08559c1.28782,1.2885 2.08559,3.06773 2.08559,5.03131c0,1.96359 -0.79777,3.74282 -2.08559,5.03131c-1.2885,1.28782 -3.06773,2.08559 -5.03131,2.08559c-1.96359,0 -3.74282,-0.79777 -5.03131,-2.08559c-1.28782,-1.2885 -2.08559,-3.06773 -2.08559,-5.03131c0,-1.96359 0.79777,-3.74282 2.08559,-5.03131c1.2885,-1.28782 3.06773,-2.08559 5.03131,-2.08559z" fill="#ffffff" stroke="none" stroke-width="1" stroke-linecap="butt"/><path d="M513.56446,125.2115c1.96359,0 3.74282,0.79777 5.03131,2.08559c1.28782,1.2885 2.08559,3.06773 2.08559,5.03131c0,1.96359 -0.79777,3.74282 -2.08559,5.03131c-1.2885,1.28782 -3.06773,2.08559 -5.03131,2.08559c-1.96359,0 -3.74282,-0.79777 -5.03131,-2.08559c-1.28782,-1.2885 -2.08559,-3.06773 -2.08559,-5.03131c0,-1.96359 0.79777,-3.74282 2.08559,-5.03131c1.2885,-1.28782 3.06773,-2.08559 5.03131,-2.08559z" fill="#ffffff" stroke="none" stroke-width="1" stroke-linecap="butt"/><path d="M523.90092,128.76997c1.96359,0 3.74282,0.79778 5.03131,2.0856c1.28782,1.2885 2.08559,3.06773 2.08559,5.03131c0,1.96359 -0.79777,3.74282 -2.08559,5.03131c-1.2885,1.28782 -3.06773,2.08559 -5.03131,2.08559c-1.96359,0 -3.74282,-0.79777 -5.03131,-2.08559c-1.28782,-1.2885 -2.08559,-3.06773 -2.08559,-5.03131c0,-1.96359 0.79777,-3.74282 2.08559,-5.03131c1.2885,-1.28782 3.06773,-2.0856 5.03131,-2.0856z" fill="#ffffff" stroke="none" stroke-width="1" stroke-linecap="butt"/><path d="M529.15387,121.99196c1.96359,0 3.74282,0.79777 5.03131,2.08559c1.28782,1.2885 2.08559,3.06773 2.08559,5.03131c0,1.96359 -0.79777,3.74282 -2.08559,5.03131c-1.2885,1.28782 -3.06773,2.0856 -5.03131,2.0856c-1.96359,0 -3.74282,-0.79778 -5.03131,-2.0856c-1.28782,-1.2885 -2.08559,-3.06773 -2.08559,-5.03131c0,-1.96359 0.79777,-3.74282 2.08559,-5.03131c1.2885,-1.28782 3.06773,-2.08559 5.03131,-2.08559z" fill="#ffffff" stroke="none" stroke-width="1" stroke-linecap="butt"/><path d="M468.15182,130.46447h67.61061v19.48677h-67.61061z" fill="#ffffff" stroke="none" stroke-width="1" stroke-linecap="butt"/><path d="M463.57667,134.36185h9.65866v15.25051h-9.65866z" fill="#ffffff" stroke="none" stroke-width="1" stroke-linecap="butt"/><path d="M464.93226,131.31171h16.78858v16.94502h-16.78858z" fill="#eeeeee" stroke="none" stroke-width="1" stroke-linecap="butt"/><path d="M464.08502,128.09221h18.63951v5.25295h-18.63951z" fill="#4acf5b" stroke="none" stroke-width="1" stroke-linecap="butt"/><path d="M497.1278,135.20909l2.54175,-5.0835l28.97597,-0.3389l-5.7613,12.70876h-13.04766z" fill="#b86b00" stroke="none" stroke-width="1" stroke-linecap="round"/><path d="M513.39501,114.7056h2.7112v15.41996h-2.7112z" fill="#666666" stroke="none" stroke-width="1" stroke-linecap="butt"/><path d="M508.9893,111.31662h11.18371v7.45581h-11.18371z" fill="url(#color-3)" stroke="none" stroke-width="1" stroke-linecap="butt"/><path d="M507.80316,122.66978h6.26965v4.23625h-6.26965z" fill="url(#color-4)" stroke="none" stroke-width="1" stroke-linecap="butt"/><path d="M515.25896,122.66978h6.778v3.89735h-6.778z" fill="url(#color-5)" stroke="none" stroke-width="1" stroke-linecap="butt"/><path d="M463.91557,76.40987h71.84687v71.84687h-71.84687z" fill="none" stroke="#995900" stroke-width="6.8087" stroke-linecap="butt"/></g><g fill="#ffffff" stroke="#4f391c" stroke-width="6" stroke-linecap="butt"><path d="M337.93069,38.07587c0,0.12089 1.28076,2.5374 3.84229,7.24959c-2.25945,7.56378 -3.54021,11.61752 -3.84229,12.16124l-8.21017,1.75803c-4.41018,-2.44071 -6.75424,-3.83021 -7.03212,-4.16855c-0.14498,-1.70363 -0.39875,-6.49442 -0.76121,-14.37235c4.16854,-2.77901 6.80256,-4.45848 7.90208,-5.03848c0,0 7.99266,2.19304 8.10142,2.41052zM331.24288,41.91816l-3.3892,3.51605c0.28998,3.64898 0.43497,5.87824 0.43497,6.68778c0.08455,0 0.81557,0.50746 2.193,1.52241c1.82449,-0.39875 2.73672,-0.68871 2.73672,-0.86997l2.08426,-7.12274c-0.55579,-1.69156 -1.02701,-2.53737 -1.41369,-2.53737z"/><path d="M352.19429,35.90104c0,0.6887 0.15708,3.35292 0.47122,7.99269c4.3256,-1.37742 6.7482,-2.10239 7.26776,-2.17489l6.52465,7.01401c-2.74278,6.15007 -4.235,9.41242 -4.47666,9.78699c-0.76121,-0.08463 -3.54021,-0.20549 -8.33707,-0.3625v0.85183c0,0.15712 -0.0846,0.23569 -0.25375,0.23569h-7.01401c-0.25375,0 -0.73704,-3.62482 -1.44992,-10.87441c-0.15708,-0.61623 -0.59809,-4.24706 -1.32307,-10.89257c4.10811,-0.96663 6.92941,-1.57075 8.46394,-1.81239zM353.28174,48.9684l0.47122,4.47665h3.64295l1.32306,-5.07473c-3.62482,0.31413 -5.43719,0.51352 -5.43719,0.59808z"/><path d="M387.11933,33.56295l7.14087,1.12372c-0.89412,3.43149 -1.48011,5.14722 -1.75802,5.14722c-3.7577,-0.25375 -5.63658,-0.50746 -5.63658,-0.76121v-5.25599c0.02417,-0.16905 0.10873,-0.25357 0.25375,-0.25357zM393.75275,43.4587c-1.75199,10.14946 -2.71255,15.53834 -2.8817,16.16662c-0.37457,0.33834 -3.46169,1.88491 -9.2614,4.63977c-4.61559,-2.1749 -7.45501,-3.55232 -8.51829,-4.13227c-1.172,-4.47061 -1.84262,-6.93548 -2.01177,-7.39462c0.16915,-0.1693 2.54947,-0.83988 7.14087,-2.01177c0,0.08463 0.0423,0.12697 0.12685,0.12697c-0.08455,0.16905 -0.12685,0.29591 -0.12685,0.3806c0,0.56789 -0.16915,2.53134 -0.50746,5.89033c4.04771,-0.50746 6.47029,-0.83973 7.26775,-0.99681v-3.26236c0,-0.19335 -0.03626,-0.3625 -0.10876,-0.50746l0.10876,-0.25392c-0.0725,-0.14495 -0.10876,-0.30807 -0.10876,-0.48936h0.10876l-0.10876,-0.25358v-0.12697c0,-0.08463 0.03626,-0.12695 0.10876,-0.12695l-0.10876,-0.25358v-0.12695c0,-0.08463 0.03626,-0.12695 0.10876,-0.12695l-0.10876,-0.23569c0,0 0.10269,-9.1525 0.23561,-9.1525z"/><path d="M415.61034,46.08665c-0.78537,3.67314 -1.25056,5.56409 -1.39555,5.67285h-11.4544v0.19921l3.20794,3.96916l5.03851,-2.57359c0.4954,0.85787 1.20827,2.35611 2.13863,4.49475c-0.43497,0.14495 -3.60669,0.61015 -9.51511,1.39555c-4.89348,-3.22608 -7.35835,-4.90558 -7.39461,-5.03847c0.78537,-6.27094 1.25056,-9.40639 1.39555,-9.40639c5.11099,-2.17487 8.07122,-3.38921 8.88079,-3.64295c0,0 8.50618,4.45869 9.09824,4.92988zM405.33397,45.54294c-0.09665,0.24168 -0.73704,1.20224 -1.92114,2.88174c0,0.50746 0.71288,0.76121 2.13863,0.76121c0,0.0725 1.03308,0.24769 3.09922,0.5256c0.56789,-0.78537 0.85183,-1.2445 0.85183,-1.37742c-0.18122,-1.07535 -0.57393,-1.61304 -1.17807,-1.61304z"/><path d="M424.38233,41.15691c5.44929,1.02702 8.3008,1.61305 8.55456,1.75807v0.21745c-1.172,3.31064 -1.75803,5.02641 -1.75803,5.14723h-0.10875c-0.30207,0 -1.76405,-0.47123 -4.38602,-1.4137c-1.46202,2.45277 -2.193,3.76377 -2.193,3.93292l3.62482,3.51606c2.80317,-2.63402 4.22893,-3.95102 4.27726,-3.95102c2.18696,2.86361 3.28044,4.47058 3.28044,4.82099c-1.19617,0.6887 -3.28044,2.04198 -6.2528,4.05978c-5.75137,-1.2445 -8.8566,-1.93926 -9.31576,-2.08427l-2.84548,-9.207z"/><path d="M442.90512,35.66535l7.97456,1.41369l-0.76121,6.05342c1.58285,-0.08463 2.74278,-0.12695 3.47983,-0.12695h1.15995l0.25375,-0.12695l0.12685,0.25392c-0.25375,3.67314 -0.47123,5.73929 -0.65248,6.19841l-0.25375,-0.14485c-0.18122,0 -1.81238,-0.08453 -4.89348,-0.25358c-0.16915,2.83944 -0.29604,6.23467 -0.3806,10.18572l-0.25375,0.12697c-3.89062,-0.25375 -6.21051,-0.47123 -6.95961,-0.65245l0.12685,-0.50749c0,-1.05119 0.16915,-4.31349 0.50746,-9.78696c-3.26235,-0.18122 -4.89348,-0.3987 -4.89348,-0.65248c0.16915,-4.03561 0.38668,-6.05342 0.65248,-6.05342l4.76662,0.90619v-1.55867c0,-1.26867 -0.04834,-2.98443 -0.14499,-5.14723c0.09665,0 0.14499,-0.04234 0.14499,-0.12697z"/><path d="M459.56113,33.87106l7.12274,1.12371c-0.89412,3.4194 -1.48011,5.12909 -1.75803,5.12909c-3.74564,-0.25375 -5.61846,-0.50142 -5.61846,-0.74308v-5.256c0.03623,-0.16905 0.12082,-0.25357 0.25375,-0.25357zM457.5675,42.49811h0.10876c5.5097,1.00285 8.26459,1.58888 8.26459,1.75803c-1.58285,8.96536 -2.5434,13.96157 -2.88174,14.98858h-5.74532c-0.16915,0 -0.25375,-0.08453 -0.25375,-0.25358z"/><path d="M479.06264,51.70508c1.46202,-5.54596 2.31385,-8.50016 2.5555,-8.86263c4.61559,0.42287 6.92339,0.78533 6.92339,1.08741v0.12697c-3.23818,8.89286 -4.97807,13.55072 -5.21972,13.97363c-3.57649,0.65245 -5.96886,1.05721 -7.17714,1.2143l-8.86266,-13.12179v-0.25392c0.08455,-0.15712 2.43464,-1.73389 7.05024,-4.73035c0,0 4.53704,10.31263 4.7304,10.56639z" data-paper-data="{&quot;origPos&quot;:null}"/><path d="M509.85536,46.08665c-0.78537,3.67314 -1.25057,5.56409 -1.39556,5.67285h-11.4544v0.19921l3.20795,3.96916l5.03851,-2.57359c0.4954,0.85787 1.20827,2.35611 2.13863,4.49475c-0.43497,0.14495 -3.60669,0.61015 -9.51512,1.39555c-4.89348,-3.22608 -7.35836,-4.90558 -7.39462,-5.03847c0.78537,-6.27094 1.25057,-9.40639 1.39556,-9.40639c5.11099,-2.17487 8.07123,-3.38921 8.88076,-3.64295c0,0 8.50623,4.45869 9.09829,4.92988zM499.579,45.54294c-0.09665,0.24168 -0.73704,1.20224 -1.92114,2.88174c0,0.50746 0.71288,0.76121 2.13863,0.76121c0,0.0725 1.03308,0.24769 3.09922,0.5256c0.56789,-0.78537 0.85183,-1.2445 0.85183,-1.37742c-0.18122,-1.07535 -0.57393,-1.61304 -1.17807,-1.61304z"/><path d="M526.13073,41.13883c3.47984,2.22319 5.40098,3.50395 5.76344,3.84229c-1.25661,2.79107 -1.97552,4.18663 -2.15677,4.18663l-6.59714,-3.82418h-0.23562c0,0.12089 -0.28394,0.79751 -0.85184,2.02991c6.07759,3.27441 9.11639,4.9539 9.11639,5.03847c-1.70366,3.93895 -2.66422,6.01719 -2.88174,6.23467l-10.31258,0.59809c-4.01146,-2.65819 -6.16821,-4.05978 -6.4703,-4.20477v-0.10871c0,-0.30207 0.59809,-1.66138 1.7943,-4.07791l8.04706,4.18667l0.59809,-2.39239c-4.97808,-2.23529 -7.93835,-3.63085 -8.88079,-4.18667v-0.25358c0,-0.45913 0.9606,-2.49506 2.88174,-6.10782z"/></g><g fill="#ffffff" stroke="none" stroke-width="0.26458" stroke-linecap="butt"><path d="M329.82923,35.66535c5.29222,1.38952 7.99269,2.19303 8.10146,2.41052c0,0.1209 1.28076,2.53741 3.84229,7.2496c-2.25945,7.56377 -3.54021,11.61751 -3.84229,12.16124l-8.21018,1.75802c-4.41018,-2.44071 -6.75423,-3.83019 -7.03212,-4.16854c-0.14498,-1.70362 -0.39874,-6.49442 -0.76121,-14.37236c4.16854,-2.77901 6.80257,-4.45847 7.90208,-5.03847zM331.24288,41.91816l-3.3892,3.51605c0.28998,3.64898 0.43497,5.87824 0.43497,6.68779c0.08457,0 0.81556,0.50746 2.193,1.52241c1.82448,-0.39874 2.73672,-0.68871 2.73672,-0.86997l2.08427,-7.12274c-0.5558,-1.69156 -1.02702,-2.53737 -1.41369,-2.53737z"/><path d="M352.06744,35.66535l0.12685,0.23569c0,0.6887 0.15708,3.35292 0.47122,7.99269c4.32559,-1.37742 6.74819,-2.10239 7.26776,-2.17489l6.52465,7.01401c-2.74278,6.15007 -4.23499,9.41242 -4.47665,9.78699c-0.76121,-0.08463 -3.54022,-0.20549 -8.33708,-0.3625v0.85183c0,0.15712 -0.08459,0.23569 -0.25375,0.23569h-7.01402c-0.25375,0 -0.73704,-3.62482 -1.44991,-10.87441c-0.15708,-0.61623 -0.59809,-4.24706 -1.32306,-10.89257c4.10811,-0.96663 6.92941,-1.57074 8.46393,-1.81239zM353.28174,48.9684l0.47123,4.47664h3.64295l1.32306,-5.07474c-3.62482,0.31413 -5.43719,0.51353 -5.43719,0.59808z"/><path d="M387.11933,33.56295l7.14087,1.12372c-0.89413,3.43149 -1.48011,5.14722 -1.75802,5.14722c-3.75769,-0.25375 -5.63659,-0.50746 -5.63659,-0.76121v-5.256c0.02417,-0.16905 0.10873,-0.25357 0.25375,-0.25357zM385.10756,41.21131l8.64518,2.24738c-1.752,10.14947 -2.71255,15.53834 -2.8817,16.16662c-0.37457,0.33834 -3.46169,1.88491 -9.2614,4.63977c-4.61559,-2.1749 -7.455,-3.55232 -8.51829,-4.13226c-1.172,-4.47061 -1.84263,-6.93549 -2.01177,-7.39462c0.16915,-0.16929 2.54947,-0.83988 7.14087,-2.01177c0,0.08463 0.0423,0.12695 0.12685,0.12695c-0.08455,0.16905 -0.12685,0.29591 -0.12685,0.3806c0,0.56789 -0.16915,2.53134 -0.50746,5.89033c4.04771,-0.50746 6.47029,-0.83974 7.26775,-0.99682v-3.26235c0,-0.19335 -0.03626,-0.36251 -0.10875,-0.50746l0.10875,-0.25392c-0.0725,-0.14495 -0.10875,-0.30807 -0.10875,-0.48935h0.10875l-0.10875,-0.25357v-0.12695c0,-0.08463 0.03626,-0.12697 0.10875,-0.12697l-0.10875,-0.25357v-0.12695c0,-0.08463 0.03626,-0.12695 0.10875,-0.12695l-0.10875,-0.23569v-8.89893c0.02417,-0.16905 0.10269,-0.25357 0.23562,-0.25357z"/><path d="M406.51206,41.15691c5.47347,2.81528 8.50622,4.45854 9.09828,4.92974c-0.78537,3.67314 -1.25057,5.5641 -1.39556,5.67284h-11.4544v0.19922l3.20795,3.96915l5.03851,-2.57359c0.49539,0.85787 1.20827,2.35611 2.13862,4.49474c-0.43497,0.14495 -3.60668,0.61016 -9.51511,1.39556c-4.89347,-3.22608 -7.35835,-4.90559 -7.39462,-5.03848c0.78537,-6.27094 1.25056,-9.40638 1.39556,-9.40638c5.11099,-2.17486 8.07122,-3.38921 8.88079,-3.64295zM405.33397,45.54294c-0.09665,0.24168 -0.73704,1.20224 -1.92114,2.88174c0,0.50746 0.71288,0.76121 2.13863,0.76121c0,0.0725 1.03308,0.24768 3.09922,0.52559c0.56789,-0.78537 0.85184,-1.2445 0.85184,-1.37742c-0.18122,-1.07535 -0.57393,-1.61304 -1.17808,-1.61304z"/><path d="M424.38233,41.15691c5.4493,1.02702 8.30081,1.61304 8.55456,1.75806v0.21744c-1.172,3.31063 -1.75802,5.0264 -1.75802,5.14722h-0.10875c-0.30207,0 -1.76405,-0.47122 -4.38602,-1.41368c-1.46202,2.45278 -2.19299,3.76377 -2.19299,3.93293l3.62481,3.51605c2.80317,-2.63402 4.22893,-3.95102 4.27727,-3.95102c2.18696,2.8636 3.28044,4.47058 3.28044,4.82099c-1.19617,0.6887 -3.28044,2.04197 -6.2528,4.05978c-5.75137,-1.2445 -8.85659,-1.93925 -9.31576,-2.08427l-2.84548,-9.207z"/><path d="M442.90512,35.66535l7.97457,1.41369l-0.76121,6.05343c1.58285,-0.08463 2.74278,-0.12695 3.47983,-0.12695h1.15995l0.25375,-0.12697l0.12685,0.25392c-0.25375,3.67314 -0.47123,5.73929 -0.65248,6.19841l-0.25375,-0.14485c-0.18122,0 -1.81239,-0.08453 -4.89348,-0.25358c-0.16915,2.83944 -0.29604,6.23467 -0.3806,10.18573l-0.25375,0.12695c-3.89062,-0.25375 -6.21051,-0.47122 -6.95961,-0.65245l0.12685,-0.50749c0,-1.05119 0.16915,-4.31349 0.50746,-9.78696c-3.26235,-0.18122 -4.89348,-0.39871 -4.89348,-0.65248c0.16915,-4.0356 0.38668,-6.05342 0.65248,-6.05342l4.76661,0.90619v-1.55868c0,-1.26867 -0.04833,-2.98444 -0.14498,-5.14723c0.09665,0 0.14498,-0.04234 0.14498,-0.12695z"/><path d="M459.56113,33.87106l7.12274,1.12371c-0.89413,3.4194 -1.48011,5.12909 -1.75803,5.12909c-3.74565,-0.25375 -5.61846,-0.50142 -5.61846,-0.74308v-5.256c0.03623,-0.16905 0.12081,-0.25357 0.25375,-0.25357zM457.56748,42.49811h0.10875c5.5097,1.00285 8.26458,1.58887 8.26458,1.75802c-1.58285,8.96537 -2.54341,13.96156 -2.88175,14.98858h-5.74531c-0.16915,0 -0.25375,-0.08453 -0.25375,-0.25357z"/><path d="M474.33224,41.13883c2.96026,6.79046 4.53704,10.31255 4.7304,10.56631c1.46202,-5.54596 2.31386,-8.50015 2.5555,-8.86263c4.61559,0.42287 6.92338,0.78534 6.92338,1.08741v0.12697c-3.23817,8.89286 -4.97808,13.55072 -5.21972,13.97363c-3.57649,0.65245 -5.96886,1.05722 -7.17713,1.2143l-8.86266,-13.12179v-0.25392c0.08455,-0.15713 2.43463,-1.73389 7.05023,-4.73035z"/><path d="M500.75707,41.15691c5.47347,2.81528 8.50622,4.45854 9.09828,4.92974c-0.78537,3.67314 -1.25057,5.5641 -1.39556,5.67284h-11.4544v0.19922l3.20795,3.96915l5.0385,-2.57359c0.49539,0.85787 1.20827,2.35611 2.13863,4.49474c-0.43497,0.14495 -3.60669,0.61016 -9.51512,1.39556c-4.89348,-3.22608 -7.35835,-4.90559 -7.39462,-5.03848c0.78537,-6.27094 1.25056,-9.40638 1.39556,-9.40638c5.11099,-2.17486 8.07123,-3.38921 8.88076,-3.64295zM499.579,45.54294c-0.09665,0.24168 -0.73704,1.20224 -1.92114,2.88174c0,0.50746 0.71288,0.76121 2.13863,0.76121c0,0.0725 1.03308,0.24768 3.09922,0.52559c0.56789,-0.78537 0.85183,-1.2445 0.85183,-1.37742c-0.18122,-1.07535 -0.57393,-1.61304 -1.17808,-1.61304z"/><path d="M526.13073,41.13883c3.47984,2.22319 5.40098,3.50395 5.76345,3.8423c-1.2566,2.79107 -1.97552,4.18663 -2.15677,4.18663l-6.59714,-3.82417h-0.23562c0,0.1209 -0.28394,0.79751 -0.85184,2.02991c6.07759,3.2744 9.11639,4.9539 9.11639,5.03847c-1.70366,3.93895 -2.66423,6.0172 -2.88175,6.23467l-10.31258,0.59808c-4.01146,-2.65819 -6.16821,-4.05978 -6.4703,-4.20476v-0.10872c0,-0.30207 0.59809,-1.66137 1.79429,-4.07791l8.04707,4.18667l0.59809,-2.39238c-4.97808,-2.23528 -7.93835,-3.63085 -8.88079,-4.18667v-0.25357c0,-0.45913 0.9606,-2.49506 2.88174,-6.10782z"/></g><g data-paper-data="{&quot;origRot&quot;:0}"><path d="M298.39926,87.96366l55.63867,-8.75357l5.0594,32.15813l-55.63867,8.75357z" fill="url(#color-6)" stroke="none" stroke-width="0.81672" stroke-linecap="butt"/><path d="M304.31231,113.911l52.44838,-8.25164l4.47717,28.4574l-52.44838,8.25164z" fill="#724200" stroke="none" stroke-width="1.47328" stroke-linecap="butt"/><path d="M303.56521,110.82467l52.83121,-8.31187l0.783,4.97685l-52.83121,8.31187z" fill="#93e925" stroke="#7bb531" stroke-width="1" stroke-linecap="butt"/><path d="M306.78164,123.78798l51.17226,-8.05087l1.22469,7.78431l-51.17226,8.05087z" fill="#647fbb" stroke="none" stroke-width="1" stroke-linecap="butt"/><path d="M306.97251,130.81956l52.7036,-8.2918l1.76678,11.22982l-52.70361,8.29179z" fill="#33415f" stroke="none" stroke-width="1" stroke-linecap="butt"/><path d="M305.45381,120.33532l53.08644,-8.35202l0.64247,4.08357l-53.08644,8.35202z" fill="#33415f" stroke="none" stroke-width="1" stroke-linecap="butt"/><g stroke="none" stroke-width="1" stroke-linecap="butt"><path d="M336.66637,88.48601c1.72531,-0.27144 3.35463,-0.09572 4.59402,0.40761c1.23895,0.50392 2.0878,1.33441 2.25123,2.37317c0.16343,1.03876 -0.38941,2.08977 -1.41378,2.94977c-1.02496,0.85957 -2.52161,1.5271 -4.24692,1.79854c-1.72531,0.27144 -3.35463,0.09571 -4.59401,-0.40761c-1.23895,-0.50392 -2.0878,-1.3344 -2.25123,-2.37316c-0.16343,-1.03876 0.38941,-2.08978 1.41378,-2.94977c1.02496,-0.85957 2.5216,-1.5271 4.24692,-1.79854z" fill="#ffffff"/><path d="M344.45867,91.05239c1.35524,-0.21322 2.6356,-0.07779 3.6084,0.31369c0.9728,0.39148 1.63905,1.03885 1.76642,1.84842c0.12737,0.80957 -0.30792,1.63024 -1.11352,2.30151c-0.8056,0.67127 -1.98252,1.1933 -3.33776,1.40652c-1.35524,0.21322 -2.6356,0.07779 -3.60839,-0.31369c-0.9728,-0.39148 -1.63905,-1.03885 -1.76642,-1.84842c-0.12737,-0.80957 0.30792,-1.63024 1.11352,-2.30151c0.8056,-0.67127 1.98252,-1.19331 3.33776,-1.40652z" fill="#ffffff"/><path d="M336.58112,90.85325c0.15824,-0.02489 0.3258,0.10253 0.46756,0.32869c0.14236,0.22659 0.25935,0.55133 0.31749,0.92089c0.05814,0.36956 0.04651,0.71454 -0.01939,0.97389c-0.06548,0.25876 -0.18581,0.43148 -0.34405,0.45637c-0.15824,0.02489 -0.32579,-0.10253 -0.46756,-0.32869c-0.14236,-0.22659 -0.25936,-0.55133 -0.3175,-0.92089c-0.05814,-0.36956 -0.04651,-0.71453 0.01939,-0.97389c0.06548,-0.25876 0.18581,-0.43148 0.34405,-0.45638z" fill="#000000"/><path d="M338.25354,90.51166c0.15824,-0.02489 0.32579,0.10253 0.46756,0.32869c0.14236,0.22659 0.25936,0.55133 0.3175,0.92089c0.05814,0.36956 0.04651,0.71454 -0.01939,0.97389c-0.06548,0.25876 -0.18581,0.43148 -0.34405,0.45637c-0.15824,0.02489 -0.3258,-0.10253 -0.46756,-0.32869c-0.14236,-0.22659 -0.25936,-0.55133 -0.3175,-0.92089c-0.05814,-0.36956 -0.04651,-0.71453 0.0194,-0.97389c0.06548,-0.25876 0.18581,-0.43148 0.34405,-0.45638z" fill="#000000"/></g><path d="M299.58144,88.82817l54.10733,-8.51264l8.51264,54.10733l-54.10733,8.51264z" fill="none" stroke="#995900" stroke-width="5.44304" stroke-linecap="butt"/><g><path d="M318.8241,108.62939l0.46613,-0.46561l1.68766,-0.8049l2.15596,-0.63341l2.6721,-0.46943l0.77313,-0.0726l0.98445,0.33547l0.62422,0.53924l0.1452,1.54627l-0.41828,0.45809l-0.98764,0.89091l-0.85378,0.18336l-4.34687,0.73292l-0.8511,-0.11127l-0.98444,-0.33547l-0.45809,-0.41828l-0.40003,-0.67259z" data-paper-data="{&quot;origPos&quot;:null,&quot;index&quot;:null}" fill="#5a2c0a" stroke="#000000" stroke-width="0" stroke-linecap="round"/><path d="M323.82588,104.18939c0.45216,2.87395 -1.48432,5.56609 -4.32524,6.01304c-2.84092,0.44696 -5.51048,-1.52051 -5.96264,-4.39446c-0.45216,-2.87395 1.48432,-5.56609 4.32524,-6.01304c2.84092,-0.44696 5.51048,1.52051 5.96264,4.39446z" data-paper-data="{&quot;origPos&quot;:null}" fill="#fcdda0" stroke="none" stroke-width="0" stroke-linecap="butt"/><path d="M320.1005,109.26218l-0.17418,0.76293l-0.30752,0.53874l-0.83388,0.62154l-0.77581,0.36723l-4.36193,0.63723l-0.86884,0.08765l-1.21349,-0.54461l-0.53873,-0.30752l-0.33661,-1.51617l0.42849,-0.70487l0.83388,-0.62154l0.75808,-0.1683l2.68716,-0.37373l2.2463,-0.0592l1.85328,0.24781l0.58658,0.29999z" data-paper-data="{&quot;origPos&quot;:null}" fill="#5a2c0a" stroke="#000000" stroke-width="0" stroke-linecap="round"/><g><path d="M318.34237,90.61946c0.56699,0.02666 0.7916,0.11811 1.04493,0.2524c0.25333,0.1343 0.43678,0.24262 0.68283,0.44422c0.24605,0.2016 1.05926,0.82835 1.63919,1.45833c0.57993,0.62998 0.63604,1.03529 1.1701,1.59343c0.53406,0.55814 1.11791,0.94683 1.83746,1.54973c0.71954,0.60291 0.71349,0.4647 1.05717,0.87567c0.34368,0.41097 0.37448,0.59637 0.52827,1.02017c0.15379,0.4238 0.19381,0.64195 0.2292,1.06723c0.03539,0.42528 0.12155,0.88061 -0.02281,1.41335c-0.14436,0.53274 -0.29853,0.68775 -0.63642,1.01954c-0.33789,0.33179 -0.48342,0.3491 -0.85015,0.44022c-0.36673,0.09112 -1.52,0.36571 -2.51215,0.39523c-0.99216,0.02952 -0.79971,-0.18686 -1.33136,-0.28089c-0.53164,-0.09403 -0.41817,-0.10745 -0.68618,-0.07592c-0.26801,0.03153 -2.42708,0.27445 -3.94767,0.62108c-1.52059,0.34663 -0.74598,0.3177 -1.25943,0.56591c-0.51346,0.24821 -0.34985,0.28326 -0.6203,0.34277c-0.27045,0.05951 -1.99011,0.50403 -3.28972,0.51757c-1.29961,0.01354 -0.9597,-0.11427 -1.46981,-0.38169c-0.51011,-0.26743 -0.60464,-0.41639 -0.86833,-0.84408c-0.26369,-0.42769 -0.29228,-0.99539 -0.44293,-1.64654c-0.15065,-0.65115 -0.1708,-0.50822 -0.13174,-0.83739c0.03906,-0.32917 0.16196,-0.73231 0.36893,-1.16133c0.20697,-0.42902 0.51437,-0.88265 0.87902,-1.42546c0.36465,-0.54282 2.16565,-3.13814 3.54096,-5.15412c0.19035,-0.27902 0.57303,-0.46159 0.66422,-0.60849c0.09119,-0.1469 0.29546,-0.35303 0.69936,-0.46415c0.40905,-0.11254 0.81792,-0.41953 1.86697,-0.60019c1.04905,-0.18066 1.29341,-0.12322 1.8604,-0.09656z" data-paper-data="{&quot;origPos&quot;:null}" fill="#8e4108" stroke="#000000" stroke-width="0" stroke-linecap="butt"/><path d="M316.16958,98.91719c-0.64482,0.10145 -1.39374,0.49175 -1.9379,0.14936c-0.54416,-0.3424 -0.665,-1.16953 -0.78427,-1.92765c-0.20789,-1.32136 0.41351,-2.51681 1.38793,-2.67011c0.97442,-0.15331 1.93286,0.79359 2.14075,2.11495c0.20789,1.32136 0.16792,2.18016 -0.8065,2.33347z" data-paper-data="{&quot;origPos&quot;:null}" fill="#ffffff" stroke="#ffffff" stroke-width="0" stroke-linecap="butt"/><path d="M321.46208,95.87797c0.20789,1.32136 0.18236,2.17788 -0.70968,2.31823c-0.59031,0.09287 -1.27238,0.47266 -1.77609,0.1239c-0.50371,-0.34876 -0.62532,-1.17578 -0.74459,-1.9339c-0.20789,-1.32136 0.34672,-2.5063 1.23877,-2.64664c0.89204,-0.14035 1.78371,0.81706 1.99159,2.13841c0.20789,1.32136 -0.20789,-1.32136 0,0z" data-paper-data="{&quot;origPos&quot;:null}" fill="#ffffff" stroke="#ffffff" stroke-width="0" stroke-linecap="butt"/><path d="M321.23772,95.6612c0.1915,0.23074 0.34078,0.56716 0.4018,0.95499c0.06102,0.38783 0.02252,0.75405 -0.08915,1.03224c-0.11167,0.27819 -0.29597,0.46875 -0.5271,0.50512c-0.23112,0.03636 -0.46523,-0.08813 -0.65673,-0.31887c-0.1915,-0.23074 -0.34078,-0.56716 -0.4018,-0.95499c-0.06102,-0.38783 -0.02252,-0.75405 0.08915,-1.03224c0.11167,-0.27819 0.29597,-0.46876 0.5271,-0.50512c0.23112,-0.03636 0.46523,0.08813 0.65673,0.31887z" data-paper-data="{&quot;origPos&quot;:null}" fill="#000000" stroke="none" stroke-width="1" stroke-linecap="butt"/><path d="M316.64716,96.48149c0.1915,0.23074 0.34078,0.56717 0.4018,0.955c0.06102,0.38783 0.02253,0.75405 -0.08914,1.03224c-0.11167,0.27819 -0.29597,0.46875 -0.5271,0.50512c-0.23112,0.03636 -0.46523,-0.08813 -0.65673,-0.31887c-0.1915,-0.23074 -0.34078,-0.56716 -0.4018,-0.955c-0.06102,-0.38783 -0.02252,-0.75405 0.08915,-1.03224c0.11167,-0.27819 0.29597,-0.46875 0.52709,-0.50511c0.23112,-0.03636 0.46523,0.08812 0.65673,0.31886z" data-paper-data="{&quot;origPos&quot;:null}" fill="#000000" stroke="none" stroke-width="1" stroke-linecap="butt"/><path d="M316.15816,95.67041c-0.3584,-0.20458 -0.47592,-0.78936 -0.96578,-1.07392c-0.48986,-0.28457 -0.7152,-0.15376 -1.19291,-0.18009c-0.47771,-0.02632 -0.85715,-0.00417 -1.40393,0.037c-0.54679,0.04117 -0.51684,0.04794 -0.83738,0.13174c-0.32054,0.0838 -0.59583,0.13699 -0.92878,0.33001c-0.33296,0.19303 -0.47761,0.92332 -0.81251,0.67948c-0.3349,-0.24384 0.00584,-0.6911 0.18949,-1.1331c0.18366,-0.442 0.35628,-0.58138 0.65524,-0.89991c0.29895,-0.31854 0.40959,-0.46342 0.7621,-0.61025c0.35251,-0.14683 0.82241,-0.24178 1.36629,-0.27625c0.54388,-0.03447 0.7793,-0.04129 1.24331,0.11086c0.46401,0.15215 0.89566,0.58055 1.53568,0.80039c0.64002,0.21983 1.06777,0.39537 1.76887,0.33464c0.70111,-0.06072 0.5476,-0.25754 0.83133,-0.55985c0.28373,-0.30232 0.58166,-0.93824 1.05846,-1.45369c0.4768,-0.51545 0.53638,-0.46887 0.93213,-0.69829c0.39575,-0.22943 0.47745,-0.2384 0.80915,-0.31118c0.3317,-0.07278 1.30327,-0.37394 2.15328,-0.33877c0.85001,0.03517 0.81682,0.15912 1.23997,0.47915c0.42315,0.32003 1.00163,0.67682 0.63848,0.94154c-0.36315,0.26472 -1.71127,0.309 -2.78299,0.62173c-1.07172,0.31273 -0.81918,0.31233 -1.31924,0.57532c-0.50006,0.26299 -0.85956,0.44249 -1.34142,0.82398c-0.48186,0.38148 -0.45914,0.53965 -0.78427,0.85891c-0.32513,0.31927 -0.3802,0.438 -0.70229,0.60085c-0.32209,0.16284 -0.63086,0.24662 -1.05782,0.28901c-0.42696,0.0424 -0.69607,0.12531 -1.05447,-0.07928z" data-paper-data="{&quot;origPos&quot;:null}" fill="#000000" stroke="#000000" stroke-width="0" stroke-linecap="round"/><g data-paper-data="{&quot;origPos&quot;:null}" stroke="none" stroke-linecap="butt"><path d="M317.12158,95.31457c-0.34784,-0.37353 -0.62626,-1.21925 -0.30113,-1.91402c0.32513,-0.69477 0.90188,-0.62216 1.29196,-0.20326c0.39008,0.41889 0.6272,1.21726 0.30113,1.91402c-0.32607,0.69676 -0.94413,0.57679 -1.29197,0.20326z" data-paper-data="{&quot;origPos&quot;:null}" fill="#8e4108" stroke-width="0"/><path d="M318.94604,93.213c0.00232,0.04122 0.00094,0.07913 -0.00354,0.11398c-0.00448,0.03486 -0.01788,-0.26565 0.02101,-0.01842c0.0389,0.24723 0.07779,0.49446 0.11668,0.74168c0.0389,0.24723 -0.66225,2.33532 -2.0043,1.90898c-0.87734,-0.27871 -0.92286,-1.8141 -1.03611,-2.53392c-0.11324,-0.71981 -0.07528,-0.47851 0.40322,-0.55379c0.47851,-0.07528 0.48361,-0.04285 0.55379,0.40322c0.07018,0.44607 0.05369,1.07176 0.23337,1.48337c0.17968,0.41161 0.22559,0.28132 0.35585,0.38449c0.13026,0.10317 -0.01339,-0.03155 -0.00853,-0.04686c0.00486,-0.0153 0.41215,-0.08065 0.56085,-0.21466c0.14871,-0.13401 0.02788,-0.47922 -0.01516,-0.68027c-0.04304,-0.20105 -0.07779,-0.49446 -0.11669,-0.74168c-0.0389,-0.24723 0.11028,-0.61906 0.42862,-0.70246c0.31834,-0.08339 0.48362,-0.0273 0.51092,0.45633c0.02729,0.48363 -0.00233,-0.04123 0,0z" data-paper-data="{&quot;origPos&quot;:null}" fill="#5a2c0a" stroke-width="0.5"/></g><path d="M312.99763,101.52068l-1.05009,-1.79618c0,0 0.38635,-0.03156 0.63845,-0.02113c0.25039,0.01036 0.64911,0.07439 0.64911,0.07439c0,0 0.45414,0.07786 0.75926,0.21957c0.13112,0.06089 0.35855,0.29958 0.35855,0.29958l0.39699,0.43642z" data-paper-data="{&quot;origPos&quot;:null}" fill="#ffffff" stroke="#ffffff" stroke-width="0" stroke-linecap="round"/><path d="M321.93439,98.67263c0,0 0.13636,-0.24547 0.22846,-0.37196c0.10418,-0.14309 0.27448,-0.31879 0.27448,-0.31879c0,0 0.21002,-0.13824 0.37988,-0.20091c0.11213,-0.04137 0.3427,-0.06568 0.3427,-0.06568l0.43848,2.30104l-1.97078,-0.37801c0,0 0.07595,-0.23908 0.14555,-0.45817c0.05013,-0.15778 0.16123,-0.50752 0.16123,-0.50752z" data-paper-data="{&quot;origPos&quot;:null}" fill="#ffffff" stroke="#ffffff" stroke-width="0" stroke-linecap="round"/><path d="M312.04749,102.26792c-0.08039,-0.47767 0.21215,-0.50253 0.33761,-0.5426c0.12546,-0.04006 0.71722,-0.53308 1.11391,-0.73849c0.39669,-0.20541 2.04977,-1.03465 2.48691,-1.21967c0.43714,-0.18503 1.77186,-0.30463 2.04994,-0.41767c0.27809,-0.11304 3.43273,0.01827 3.98106,0.02835c0.54833,0.01007 0.78837,0.14056 1.82115,0.46866c1.03278,0.32809 0.46165,0.14666 0.315,0.60832c-0.14666,0.46165 0.22974,0.58123 -0.60832,0.315c-0.83806,-0.26624 -1.55346,-0.52099 -2.44355,-0.63701c-0.8901,-0.11602 -3.1616,-0.28398 -4.57065,0.49019c-1.40905,0.77417 -2.0222,0.80008 -2.37526,1.05197c-0.35305,0.25189 -0.85876,0.79585 -1.54973,0.99022c-0.69097,0.19437 -0.47768,0.0804 -0.55807,-0.39728z" data-paper-data="{&quot;origPos&quot;:null}" fill="#5a2c0a" stroke="none" stroke-width="0.5" stroke-linecap="butt"/></g></g></g><g data-paper-data="{&quot;origRot&quot;:0}"><path d="M387.32341,80.39161l61.35162,12.00239l-12.26716,62.70496l-61.35162,-12.00239z" data-paper-data="{&quot;origPos&quot;:null,&quot;origRot&quot;:0}" fill="#647fbb" stroke="none" stroke-width="1" stroke-linecap="butt"/><path d="M386.41789,79.43387l62.85533,12.29658l-2.05924,10.52601l-62.85532,-12.29658z" data-paper-data="{&quot;origPos&quot;:null,&quot;origRot&quot;:0}" fill="#33415f" stroke="none" stroke-width="1" stroke-linecap="butt"/><path d="M375.78827,131.37421l49.02115,9.59015l-2.47109,12.63121l-49.02115,-9.59016z" data-paper-data="{&quot;origPos&quot;:null,&quot;origRot&quot;:0}" fill="#33415f" stroke="none" stroke-width="1" stroke-linecap="butt"/><path d="M424.88743,140.58704l15.48827,3.03001l-0.29418,1.50373l-15.48829,-3.03002z" data-paper-data="{&quot;origPos&quot;:null,&quot;origRot&quot;:0}" fill="#b2b2b2" stroke="none" stroke-width="1" stroke-linecap="butt"/><path d="M430.09489,142.69868l3.1578,0.61778l-2.29458,11.72898l-3.1578,-0.61778z" data-paper-data="{&quot;origPos&quot;:null,&quot;origRot&quot;:0}" fill="#995900" stroke="none" stroke-width="1" stroke-linecap="butt"/><path d="M423.11007,146.95722l15.93938,3.11826l-0.82369,4.2104l-15.93939,-3.11827z" data-paper-data="{&quot;origPos&quot;:null,&quot;origRot&quot;:0}" fill="#ff0000" stroke="none" stroke-width="1" stroke-linecap="butt"/><g data-paper-data="{&quot;origPos&quot;:null,&quot;origRot&quot;:0}"><path d="M391.42815,99.52462l46.43699,9.0846l-7.30313,24.35953l-4.52939,3.04716l-34.09452,-6.67001l-3.07175,-4.56592z" data-paper-data="{&quot;origPos&quot;:null}" fill="url(#color-7)" stroke="#969696" stroke-width="1.5" stroke-linecap="round"/><path d="M419.59655,132.40206c0.80288,0.15708 1.4669,0.6254 1.89022,1.25563c0.42425,0.62959 0.60782,1.42112 0.45075,2.224c-0.15708,0.80288 -0.6254,1.4669 -1.25562,1.89022c-0.62959,0.42425 -1.42118,0.60781 -2.22406,0.45075c-0.80288,-0.15708 -1.46686,-0.62538 -1.89017,-1.25561c-0.42425,-0.62959 -0.60781,-1.42118 -0.45075,-2.22406c0.15708,-0.80288 0.62538,-1.46686 1.25561,-1.89017c0.62959,-0.42425 1.42112,-0.60782 2.224,-0.45075z" data-paper-data="{&quot;origPos&quot;:null}" fill="#969696" stroke="#000000" stroke-width="4" stroke-linecap="butt"/><path d="M399.067,128.28064c0.80288,0.15708 1.46691,0.6254 1.89023,1.25563c0.42425,0.62959 0.60782,1.42112 0.45075,2.224c-0.15708,0.80288 -0.6254,1.46691 -1.25562,1.89023c-0.62959,0.42425 -1.42118,0.60781 -2.22405,0.45075c-0.80288,-0.15708 -1.46686,-0.62538 -1.89018,-1.25561c-0.42425,-0.62959 -0.60781,-1.42118 -0.45075,-2.22406c0.15708,-0.80288 0.62539,-1.46686 1.25562,-1.89017c0.62959,-0.42425 1.42112,-0.60782 2.22401,-0.45075z" data-paper-data="{&quot;origPos&quot;:null}" fill="#969696" stroke="#000000" stroke-width="4" stroke-linecap="butt"/></g><path d="M386.41789,79.43387l63.75756,12.47308l-12.47308,63.75756l-63.75756,-12.47308z" data-paper-data="{&quot;origPos&quot;:null,&quot;origRot&quot;:0}" fill="none" stroke="#995900" stroke-width="6.8087" stroke-linecap="butt"/></g><g><path d="M649.95531,82.66172l66.10209,-9.83361l9.20191,65.85562l-66.10209,9.83361z" data-paper-data="{&quot;origPos&quot;:null}" fill="url(#color-8)" stroke="none" stroke-width="1" stroke-linecap="butt"/><path d="M662.821,129.13648c1.8547,-0.27591 3.63991,0.22299 5.02588,1.25088c1.38542,1.02862 2.37233,2.58678 2.6299,4.4301c0.25756,1.84332 -0.26259,3.62567 -1.30998,5.01621c-1.04812,1.39 -2.62404,2.38891 -4.47874,2.66483c-1.8547,0.27591 -3.63991,-0.22299 -5.02588,-1.25088c-1.38542,-1.02862 -2.37233,-2.58678 -2.6299,-4.4301c-0.25756,-1.84332 0.26259,-3.62567 1.30998,-5.01621c1.04812,-1.39 2.62404,-2.38891 4.47874,-2.66483z" data-paper-data="{&quot;origPos&quot;:null}" fill="#ffffff" stroke="none" stroke-width="1" stroke-linecap="butt"/><path d="M670.65926,123.26147c1.8547,-0.27591 3.63991,0.22299 5.02588,1.25088c1.38542,1.02862 2.37233,2.58678 2.6299,4.4301c0.25756,1.84332 -0.26259,3.62567 -1.30998,5.01621c-1.04812,1.39 -2.62404,2.38891 -4.47874,2.66483c-1.8547,0.27591 -3.63991,-0.22299 -5.02588,-1.25088c-1.38542,-1.02862 -2.37233,-2.58678 -2.6299,-4.4301c-0.25756,-1.84332 0.26259,-3.62567 1.30998,-5.01621c1.04812,-1.39 2.62404,-2.38891 4.47874,-2.66483z" data-paper-data="{&quot;origPos&quot;:null}" fill="#ffffff" stroke="none" stroke-width="1" stroke-linecap="butt"/><path d="M681.24055,122.98637c1.8547,-0.27591 3.63991,0.22299 5.02588,1.25088c1.38542,1.02862 2.37233,2.58678 2.6299,4.4301c0.25756,1.84332 -0.26259,3.62567 -1.30998,5.01621c-1.04812,1.39 -2.62404,2.38891 -4.47874,2.66483c-1.8547,0.27591 -3.63991,-0.22299 -5.02588,-1.25088c-1.38542,-1.02862 -2.37233,-2.58678 -2.6299,-4.4301c-0.25756,-1.84332 0.26259,-3.62567 1.30998,-5.01621c1.04812,-1.39 2.62404,-2.38891 4.47874,-2.66483z" data-paper-data="{&quot;origPos&quot;:null}" fill="#ffffff" stroke="none" stroke-width="1" stroke-linecap="butt"/><path d="M691.66635,115.75216c1.8547,-0.27591 3.63991,0.22299 5.02588,1.25088c1.38542,1.02862 2.37233,2.58678 2.6299,4.4301c0.25756,1.84332 -0.26259,3.62567 -1.30998,5.01621c-1.04812,1.39 -2.62404,2.38891 -4.47874,2.66483c-1.8547,0.27591 -3.63991,-0.22299 -5.02588,-1.25088c-1.38542,-1.02862 -2.37233,-2.58678 -2.6299,-4.4301c-0.25756,-1.84332 0.26259,-3.62567 1.30998,-5.01621c1.04812,-1.39 2.62404,-2.38891 4.47874,-2.66483z" data-paper-data="{&quot;origPos&quot;:null}" fill="#ffffff" stroke="none" stroke-width="1" stroke-linecap="butt"/><path d="M701.83853,120.73399c1.8547,-0.27591 3.63991,0.22299 5.02588,1.25088c1.38542,1.02862 2.37233,2.58678 2.6299,4.4301c0.25756,1.84332 -0.26259,3.62567 -1.30998,5.01621c-1.04812,1.39 -2.62404,2.38891 -4.47874,2.66483c-1.8547,0.27591 -3.63991,-0.22299 -5.02588,-1.25088c-1.38542,-1.02862 -2.37233,-2.58678 -2.6299,-4.4301c-0.25756,-1.84332 0.26259,-3.62567 1.30998,-5.01621c1.04812,-1.39 2.62404,-2.38891 4.47874,-2.66483z" data-paper-data="{&quot;origPos&quot;:null}" fill="#ffffff" stroke="none" stroke-width="1" stroke-linecap="butt"/><path d="M712.06856,122.62207c1.8547,-0.27591 3.63991,0.22299 5.02588,1.25088c1.38542,1.02862 2.37233,2.58678 2.6299,4.4301c0.25756,1.84332 -0.26259,3.62567 -1.30998,5.01621c-1.04812,1.39 -2.62404,2.38891 -4.47874,2.66483c-1.8547,0.27591 -3.63991,-0.22299 -5.02588,-1.25088c-1.38542,-1.02862 -2.37233,-2.58678 -2.6299,-4.4301c-0.25756,-1.84332 0.26259,-3.62567 1.30998,-5.01621c1.04812,-1.39 2.62404,-2.38891 4.47874,-2.66483z" data-paper-data="{&quot;origPos&quot;:null}" fill="#ffffff" stroke="none" stroke-width="1" stroke-linecap="butt"/><path d="M716.14114,115.52114c1.8547,-0.27591 3.63991,0.22299 5.02588,1.25088c1.38542,1.02862 2.37233,2.58678 2.6299,4.4301c0.25756,1.84332 -0.26259,3.62567 -1.30998,5.01621c-1.04812,1.39 -2.62404,2.38891 -4.47874,2.66483c-1.8547,0.27591 -3.63991,-0.22299 -5.02588,-1.25088c-1.38542,-1.02862 -2.37233,-2.58678 -2.6299,-4.4301c-0.25756,-1.84332 0.26259,-3.62567 1.30998,-5.01621c1.04812,-1.39 2.62404,-2.38891 4.47874,-2.66483z" data-paper-data="{&quot;origPos&quot;:null}" fill="#ffffff" stroke="none" stroke-width="1" stroke-linecap="butt"/><path d="M659.63323,132.04639l63.86134,-9.50027l2.55609,18.29323l-63.86134,9.50027z" data-paper-data="{&quot;origPos&quot;:null}" fill="#ffffff" stroke="none" stroke-width="1" stroke-linecap="butt"/><path d="M655.823,136.34787l9.12305,-1.35718l2.00042,14.31644l-9.12305,1.35718z" data-paper-data="{&quot;origPos&quot;:null}" fill="#ffffff" stroke="none" stroke-width="1" stroke-linecap="butt"/><path d="M656.70334,133.29414l16.48551,-2.45245l2.22268,15.90715l-16.48551,2.45245z" data-paper-data="{&quot;origPos&quot;:null}" fill="#e5e5e5" stroke="none" stroke-width="1" stroke-linecap="butt"/><path d="M655.48077,130.39078l17.60588,-2.61912l0.68903,4.93122l-17.60588,2.61912z" data-paper-data="{&quot;origPos&quot;:null}" fill="#58db60" stroke="none" stroke-width="1" stroke-linecap="butt"/><path d="M678.55952,130.69224l8.16273,-1.21432" data-paper-data="{&quot;origPos&quot;:null}" fill="none" stroke="#457ddb" stroke-width="2" stroke-linecap="round"/><path d="M712.38877,116.72887l-8.16273,1.21432" data-paper-data="{&quot;origPos&quot;:null}" fill="none" stroke="#457ddb" stroke-width="2" stroke-linecap="round"/><path d="M708.96512,133.15124l6.56219,-0.97622" data-paper-data="{&quot;origPos&quot;:null}" fill="none" stroke="#457ddb" stroke-width="2" stroke-linecap="round"/><path d="M700.13112,130.73069l-7.36246,1.09527" data-paper-data="{&quot;origPos&quot;:null}" fill="none" stroke="#ff0000" stroke-width="2" stroke-linecap="round"/><path d="M685.42417,122.52634l9.2831,-1.38099" data-paper-data="{&quot;origPos&quot;:null}" fill="none" stroke="#ff0000" stroke-width="2" stroke-linecap="round"/><path d="M660.48237,99.16905l54.87238,4.00038l-0.81616,9.69854l-54.87238,-4.00038z" data-paper-data="{&quot;origPos&quot;:null}" fill="#ff6b61" stroke="url(#color-9)" stroke-width="3.43519" stroke-linecap="butt"/><path d="M648.54153,81.89778l67.86268,-10.09553l9.42418,67.44633l-67.86268,10.09553z" data-paper-data="{&quot;origPos&quot;:null}" fill="none" stroke="#995900" stroke-width="9" stroke-linecap="butt"/></g><path d="M569.80061,73.27483l62.1559,12.49749l-12.5583,62.45836l-62.1559,-12.49749z" fill="url(#color-10)" stroke="none" stroke-width="0.84395" stroke-linecap="butt"/><path d="M564.17609,99.68313l19.35755,3.89216l-7.48025,37.2028l-19.35755,-3.89216z" fill="#b8723c" stroke="none" stroke-width="1" stroke-linecap="butt"/><path d="M599.55041,120.17005l24.80187,4.98683l-5.01724,24.9531l-24.80187,-4.98683z" fill="#b8723c" stroke="none" stroke-width="1" stroke-linecap="butt"/><path d="M580.79778,116.39953l19.05509,3.83135l-5.10846,25.40679l-19.05509,-3.83135z" fill="#00cccc" stroke="none" stroke-width="1" stroke-linecap="butt"/><path d="M583.21424,120.03229l-0.7906,3.932" fill="none" stroke="#00ffff" stroke-width="2" stroke-linecap="round"/><path d="M584.38642,127.50582l-1.06426,5.29308" fill="none" stroke="#00ffff" stroke-width="2" stroke-linecap="round"/><path d="M580.17027,138.30161l0.36489,-1.81477z" fill="none" stroke="#00ffff" stroke-width="2" stroke-linecap="round"/><path d="M587.8607,132.13803l-1.42915,7.10785" fill="none" stroke="#00ffff" stroke-width="2" stroke-linecap="round"/><path d="M592.85213,132.35487l-0.85141,4.23446" fill="none" stroke="#00ffff" stroke-width="2" stroke-linecap="round"/><path d="M591.01018,128.995l1.48997,-7.41031" fill="none" stroke="#00ffff" stroke-width="2" stroke-linecap="round"/><path d="M598.25176,118.02078l26.46541,5.32131l-0.69937,3.47831l-26.46541,-5.32131z" fill="#48da88" stroke="none" stroke-width="1" stroke-linecap="butt"/><path d="M564.93467,97.47548l20.71863,4.16583l-0.7906,3.932l-20.71863,-4.16583z" fill="#48da88" stroke="none" stroke-width="1" stroke-linecap="butt"/><path d="M557.00153,133.80052l63.6682,12.80156l-0.76019,3.78077l-63.6682,-12.80156z" fill="#48da88" stroke="none" stroke-width="1" stroke-linecap="butt"/><path d="M609.52035,133.18882c0.24702,-0.7465 2.10067,-2.89445 3.51194,-2.59811c1.60581,0.34616 2.75964,2.10755 3.0518,3.60317c0.17102,1.49706 -0.91701,3.07077 -1.86888,4.02044c-0.67071,0.65942 -1.7849,0.94834 -2.7041,0.72449c-1.00026,-0.24643 -2.59188,-1.32675 -2.38767,-2.21087c0.23497,-0.91822 2.53873,0.04786 3.29829,-0.75293c0.57667,-0.64875 0.65249,-2.0087 0.06323,-2.66215c-0.73037,-0.7498 -3.13939,0.38522 -2.96461,-0.12405z" fill="#8d8d8d" stroke="#767676" stroke-width="2" stroke-linecap="round"/><path d="M570.094,115.7715c-0.66498,0.57617 -0.75671,1.93512 -0.26404,2.64978c0.65545,0.88799 3.0604,0.21204 3.18089,1.1522c0.09408,0.9025 -1.61814,1.77923 -2.64107,1.90102c-0.93973,0.10925 -2.00999,-0.31427 -2.5947,-1.05102c-0.82805,-1.05939 -1.71464,-2.75478 -1.3611,-4.2195c0.47356,-1.4484 1.8349,-3.05482 3.47108,-3.20121c1.43694,-0.12087 3.01289,2.23846 3.16636,3.0096c0.11095,0.52688 -2.14051,-0.89531 -2.95742,-0.24087z" fill="#8d8d8d" stroke="#767676" stroke-width="2" stroke-linecap="round"/><path d="M568.89248,73.09609l64.1219,12.89278l-12.89278,64.1219l-64.1219,-12.89278z" fill="none" stroke="#995900" stroke-width="9" stroke-linecap="butt"/></g></g></svg>