<svg version="1.1" xmlns="http://www.w3.org/2000/svg" xmlns:xlink="http://www.w3.org/1999/xlink" width="522.20416" height="242.80246" viewBox="0,0,522.20416,242.80246"><defs><linearGradient x1="-16.8245" y1="112.15662" x2="-19.47589" y2="149.8705" gradientUnits="userSpaceOnUse" id="color-1"><stop offset="0" stop-color="#00ffff"/><stop offset="1" stop-color="#00ffff" stop-opacity="0"/></linearGradient><linearGradient x1="0.60711" y1="104.9224" x2="-19.79431" y2="148.22187" gradientUnits="userSpaceOnUse" id="color-2"><stop offset="0" stop-color="#00ffff"/><stop offset="1" stop-color="#00ffff" stop-opacity="0"/></linearGradient><linearGradient x1="0.6151" y1="105.23048" x2="-1.99531" y2="119.08304" gradientUnits="userSpaceOnUse" id="color-3"><stop offset="0" stop-color="#b2b2b2"/><stop offset="1" stop-color="#666666"/></linearGradient><linearGradient x1="55.10771" y1="120.12231" x2="52.45633" y2="157.83619" gradientUnits="userSpaceOnUse" id="color-4"><stop offset="0" stop-color="#00ffff"/><stop offset="1" stop-color="#00ffff" stop-opacity="0"/></linearGradient><linearGradient x1="72.53933" y1="112.88809" x2="52.13791" y2="156.18757" gradientUnits="userSpaceOnUse" id="color-5"><stop offset="0" stop-color="#00ffff"/><stop offset="1" stop-color="#00ffff" stop-opacity="0"/></linearGradient><linearGradient x1="72.54731" y1="113.19617" x2="69.93691" y2="127.04874" gradientUnits="userSpaceOnUse" id="color-6"><stop offset="0" stop-color="#b2b2b2"/><stop offset="1" stop-color="#666666"/></linearGradient><linearGradient x1="127.39046" y1="128.51907" x2="124.73907" y2="166.23295" gradientUnits="userSpaceOnUse" id="color-7"><stop offset="0" stop-color="#00ffff"/><stop offset="1" stop-color="#00ffff" stop-opacity="0"/></linearGradient><linearGradient x1="144.82208" y1="121.28485" x2="124.42066" y2="164.58433" gradientUnits="userSpaceOnUse" id="color-8"><stop offset="0" stop-color="#00ffff"/><stop offset="1" stop-color="#00ffff" stop-opacity="0"/></linearGradient><linearGradient x1="144.83005" y1="121.59293" x2="142.21964" y2="135.4455" gradientUnits="userSpaceOnUse" id="color-9"><stop offset="0" stop-color="#b2b2b2"/><stop offset="1" stop-color="#666666"/></linearGradient><linearGradient x1="273.209" y1="291.8475" x2="284.2324" y2="327.9731" gradientUnits="userSpaceOnUse" id="color-10"><stop offset="0" stop-color="#00ffff"/><stop offset="1" stop-color="#00ffff" stop-opacity="0"/></linearGradient><linearGradient x1="283.43384" y1="280.404" x2="283.43384" y2="326.50975" gradientUnits="userSpaceOnUse" id="color-11"><stop offset="0" stop-color="#00ffff"/><stop offset="1" stop-color="#00ffff" stop-opacity="0"/></linearGradient><linearGradient x1="283.5455" y1="280.6912" x2="286.4012" y2="294.3969" gradientUnits="userSpaceOnUse" id="color-12"><stop offset="0" stop-color="#b2b2b2"/><stop offset="1" stop-color="#666666"/></linearGradient><linearGradient x1="466.35393" y1="293.70929" x2="503.95252" y2="286.47176" gradientUnits="userSpaceOnUse" id="color-13"><stop offset="0" stop-color="#00ffff"/><stop offset="1" stop-color="#00ffff" stop-opacity="0"/></linearGradient><linearGradient x1="450.21233" y1="192.31464" x2="490.65246" y2="303.35603" gradientUnits="userSpaceOnUse" id="color-14"><stop offset="0" stop-color="#00ffff"/><stop offset="1" stop-color="#00ffff" stop-opacity="0"/></linearGradient><linearGradient x1="457.48416" y1="268.83283" x2="471.48401" y2="268.70416" gradientUnits="userSpaceOnUse" id="color-15"><stop offset="0" stop-color="#b2b2b2"/><stop offset="1" stop-color="#666666"/></linearGradient><linearGradient x1="315.48411" y1="146.24505" x2="346.93756" y2="173.83783" gradientUnits="userSpaceOnUse" id="color-16"><stop offset="0" stop-color="#00ffff"/><stop offset="1" stop-color="#00ffff" stop-opacity="0"/></linearGradient><linearGradient x1="392.83989" y1="93.18313" x2="323.35719" y2="169.72668" gradientUnits="userSpaceOnUse" id="color-17"><stop offset="0" stop-color="#00ffff"/><stop offset="1" stop-color="#00ffff" stop-opacity="0"/></linearGradient><linearGradient x1="331.17736" y1="129.25093" x2="340.65786" y2="140.53726" gradientUnits="userSpaceOnUse" id="color-18"><stop offset="0" stop-color="#b2b2b2"/><stop offset="1" stop-color="#666666"/></linearGradient></defs><g transform="translate(19.30437,-83.70729)"><g data-paper-data="{&quot;isPaintingLayer&quot;:true}" fill-rule="nonzero" stroke-width="0" stroke-linejoin="miter" stroke-miterlimit="10" stroke-dasharray="" stroke-dashoffset="0" style="mix-blend-mode: normal"><g data-paper-data="{&quot;origPos&quot;:null,&quot;origRot&quot;:0}" id="ID0.5679584057070315"><path d="M49.91994,120.48862c4.73267,1.99446 2.56978,2.1006 13.9817,7.41266c7.03847,5.99254 11.06304,12.07781 15.04209,18.11417c0.99519,1.50911 0.54646,2.87718 -0.29878,4.24988c-0.21177,0.3432 -1.65591,0.53966 -2.77099,0.73513c-3.79661,0.66563 -5.6219,1.93822 -11.91287,1.83961c-25.1654,-0.39467 -50.94123,-1.32465 -75.91346,-3.21706c-6.24277,-0.47305 -8.19403,-1.17355 -7.03561,-3.06892c4.63359,-7.58099 13.25256,-14.88754 22.39922,-22.06882c3.67635,-2.88659 9.22703,-5.60276 15.97591,-8.06125c2.78149,-1.01326 7.15995,-2.82473 12.38717,-2.13924c9.04776,1.21489 12.92929,4.00983 18.1456,6.20384z" id="ID0.014508410822600126" fill="url(#color-1)" stroke="url(#color-2)" stroke-linecap="round"/><path d="M0.6151,105.23048l72.74797,8.26347l-2.61037,13.85247l-72.74802,-8.26338z" id="ID0.8304188074544072" fill="url(#color-3)" stroke="none" stroke-linecap="butt"/></g><g data-paper-data="{&quot;origPos&quot;:null,&quot;origRot&quot;:0}" id="ID0.5679584057070315"><path d="M121.85216,128.45432c4.73267,1.99446 2.56978,2.1006 13.9817,7.41266c7.03847,5.99254 11.06304,12.07781 15.04209,18.11417c0.99519,1.50911 0.54646,2.87718 -0.29878,4.24988c-0.21177,0.3432 -1.65591,0.53966 -2.77099,0.73513c-3.79661,0.66563 -5.6219,1.93822 -11.91287,1.83961c-25.1654,-0.39467 -50.94123,-1.32465 -75.91346,-3.21706c-6.24277,-0.47305 -8.19403,-1.17355 -7.03561,-3.06892c4.63359,-7.58099 13.25256,-14.88754 22.39922,-22.06882c3.67635,-2.88659 9.22703,-5.60276 15.97591,-8.06125c2.78149,-1.01326 7.15995,-2.82473 12.38717,-2.13924c9.04776,1.21489 12.92929,4.00983 18.1456,6.20384z" id="ID0.014508410822600126" fill="url(#color-4)" stroke="url(#color-5)" stroke-linecap="round"/><path d="M72.54731,113.19617l72.74797,8.26347l-2.61037,13.85247l-72.74802,-8.26338z" id="ID0.8304188074544072" fill="url(#color-6)" stroke="none" stroke-linecap="butt"/></g><g data-paper-data="{&quot;origPos&quot;:null,&quot;origRot&quot;:0}" id="ID0.5679584057070315"><path d="M194.13489,136.85108c4.73267,1.99446 2.56978,2.1006 13.9817,7.41266c7.03847,5.99254 11.06304,12.07781 15.04209,18.11417c0.99519,1.50911 0.54646,2.87718 -0.29878,4.24988c-0.21177,0.3432 -1.65591,0.53966 -2.77099,0.73513c-3.79661,0.66563 -5.6219,1.93822 -11.91287,1.83961c-25.1654,-0.39467 -50.94123,-1.32465 -75.91346,-3.21706c-6.24277,-0.47305 -8.19403,-1.17355 -7.03561,-3.06892c4.63359,-7.58099 13.25256,-14.88754 22.39922,-22.06882c3.67635,-2.88659 9.22703,-5.60276 15.97591,-8.06125c2.78149,-1.01326 7.15995,-2.82473 12.38717,-2.13924c9.04776,1.21489 12.92929,4.00983 18.1456,6.20384z" id="ID0.014508410822600126" fill="url(#color-7)" stroke="url(#color-8)" stroke-linecap="round"/><path d="M144.83005,121.59293l72.74797,8.26347l-2.61037,13.85247l-72.74802,-8.26338z" id="ID0.8304188074544072" fill="url(#color-9)" stroke="none" stroke-linecap="butt"/></g><g id="ID0.5679584057070315"><path d="M324.7378,281.8694c4.136,0.6107 2.5954,1.2873 12.7413,3.2321c7.1908,3.7504 12.2159,8.3918 17.191,12.9994c1.2441,1.1518 1.3869,2.5563 1.2422,4.0709c-0.0365,0.3788 -1.022,0.9485 -1.7679,1.4295c-2.5396,1.6378 -3.4333,3.3198 -8.0542,4.9052c-18.4848,6.3418 -37.5986,12.3437 -56.4571,17.2274c-4.7144,1.2209 -6.3778,1.0835 -6.1843,-1.0055c0.7741,-8.3555 4.5484,-17.5163 8.7505,-26.7002c1.6889,-3.6915 4.803,-7.7229 8.8793,-11.8319c1.68,-1.6935 4.2502,-4.5626 8.2971,-5.3131c7.0145,-1.2724 10.8049,0.3171 15.3621,0.9862z" id="ID0.014508410822600126" fill="url(#color-10)" stroke="url(#color-11)" stroke-linecap="round"/><path d="M283.5455,280.6912l55.8827,-11.6438l2.8557,13.7056l-55.8827,11.6439z" id="ID0.8304188074544072" fill="url(#color-12)" stroke="none" stroke-linecap="butt"/></g><g data-paper-data="{&quot;origRot&quot;:0,&quot;origPos&quot;:null}" id="ID0.5679584057070315"><path d="M466.85688,188.02999c1.42362,-7.91554 1.77926,-4.60385 5.70916,-23.8414c5.10958,-12.68155 10.66035,-20.73201 16.16785,-28.69733c1.3768,-1.99204 2.7815,-1.70957 4.2369,-0.81558c0.36376,0.22419 0.72547,2.39755 1.04797,4.06249c1.09823,5.66873 2.56815,8.1079 3.19968,17.86213c2.52642,39.02001 4.59434,79.1445 5.61738,118.31591c0.25581,9.7924 -0.21074,13.01922 -2.21901,11.79823c-8.03309,-4.88398 -16.25679,-16.01106 -24.41763,-27.9918c-3.28046,-4.81533 -6.60949,-12.57926 -9.82262,-22.27295c-1.32421,-3.99493 -3.62287,-10.21879 -3.55083,-18.50522c0.15255,-14.35133 2.46627,-21.19161 4.03113,-29.91448z" id="ID0.014508410822600126" fill="url(#color-13)" stroke="url(#color-14)" stroke-linecap="round"/><path d="M457.48416,268.83283l-0.26063,-114.93941l13.99986,-0.12867l0.26063,114.93941z" id="ID0.8304188074544072" fill="url(#color-15)" stroke="none" stroke-linecap="butt"/></g><g data-paper-data="{&quot;origRot&quot;:0}" id="ID0.5679584057070315"><path d="M407.70364,104.97199c7.83485,-1.96907 5.19349,-0.37493 24.54947,-4.77987c14.44529,-0.86393 25.15931,0.45596 35.77037,1.77436c2.65333,0.32927 3.34776,1.57819 3.54442,3.10937c0.04851,0.383 -1.59908,1.53309 -2.83084,2.45091c-4.19375,3.12512 -5.33084,5.27748 -13.38903,9.636c-32.23533,17.43554 -65.73776,34.93542 -99.11076,51.21323c-8.34282,4.06932 -11.46059,4.96418 -11.74293,2.85632c-1.12932,-8.43145 3.04187,-19.47956 7.99734,-30.81345c1.99142,-4.5557 6.51401,-10.31367 12.79198,-16.73889c2.58725,-2.64797 6.46034,-6.96413 13.71318,-10.17399c12.57986,-5.53668 20.07548,-6.36087 28.70678,-8.53398z" id="ID0.014508410822600126" fill="url(#color-16)" stroke="url(#color-17)" stroke-linecap="round"/><path d="M331.17736,129.25093l99.75977,-45.54364l9.48049,11.28633l-99.75977,45.54364z" id="ID0.8304188074544072" fill="url(#color-18)" stroke="none" stroke-linecap="butt"/></g></g></g></svg>