<svg version="1.1" xmlns="http://www.w3.org/2000/svg" xmlns:xlink="http://www.w3.org/1999/xlink" width="672.7995" height="290.4338" viewBox="0,0,672.7995,290.4338"><defs><linearGradient x1="209.89063" y1="47.90004" x2="209.89063" y2="195.61636" gradientUnits="userSpaceOnUse" id="color-1"><stop offset="0" stop-color="#edf3f8"/><stop offset="1" stop-color="#cedee9"/></linearGradient><linearGradient x1="229.48879" y1="108.82475" x2="229.48879" y2="129.07976" gradientUnits="userSpaceOnUse" id="color-2"><stop offset="0" stop-color="#ff4040"/><stop offset="1" stop-color="#c33131"/></linearGradient><linearGradient x1="263.40797" y1="148.95868" x2="231.43354" y2="152.30655" gradientUnits="userSpaceOnUse" id="color-3"><stop offset="0" stop-color="#ffffff"/><stop offset="1" stop-color="#ffffff" stop-opacity="0"/></linearGradient><linearGradient x1="196.35616" y1="148.77979" x2="228.37341" y2="151.61154" gradientUnits="userSpaceOnUse" id="color-4"><stop offset="0" stop-color="#979797"/><stop offset="1" stop-color="#979797" stop-opacity="0"/></linearGradient><linearGradient x1="227.97591" y1="187.65585" x2="227.97591" y2="214.01429" gradientUnits="userSpaceOnUse" id="color-5"><stop offset="0" stop-color="#ff4040"/><stop offset="1" stop-color="#c33131"/></linearGradient><linearGradient x1="101.66775" y1="196.44198" x2="146.44975" y2="196.44198" gradientUnits="userSpaceOnUse" id="color-6"><stop offset="0" stop-color="#c33131"/><stop offset="1" stop-color="#ff4040"/></linearGradient><linearGradient x1="309.12283" y1="196.44198" x2="353.90484" y2="196.44198" gradientUnits="userSpaceOnUse" id="color-7"><stop offset="0" stop-color="#c33131"/><stop offset="1" stop-color="#ff4040"/></linearGradient><radialGradient cx="229.43233" cy="190.50172" r="27.99828" gradientUnits="userSpaceOnUse" id="color-8"><stop offset="0" stop-color="#65ceff"/><stop offset="1" stop-color="#3f99ff"/></radialGradient><linearGradient x1="110.98743" y1="264.1434" x2="143.12457" y2="264.1434" gradientUnits="userSpaceOnUse" id="color-9"><stop offset="0" stop-color="#d6dde2"/><stop offset="1" stop-color="#d6dde2" stop-opacity="0"/></linearGradient><linearGradient x1="313.5489" y1="264.64439" x2="345.68606" y2="264.64439" gradientUnits="userSpaceOnUse" id="color-10"><stop offset="0" stop-color="#d6dde2"/><stop offset="1" stop-color="#d6dde2" stop-opacity="0"/></linearGradient><linearGradient x1="198.63421" y1="277.16848" x2="230.77137" y2="277.16848" gradientUnits="userSpaceOnUse" id="color-11"><stop offset="0" stop-color="#d6dde2"/><stop offset="1" stop-color="#d6dde2" stop-opacity="0"/></linearGradient><linearGradient x1="260.47389" y1="277.66947" x2="228.33675" y2="277.66947" gradientUnits="userSpaceOnUse" id="color-12"><stop offset="0" stop-color="#ffffff"/><stop offset="1" stop-color="#ffffff" stop-opacity="0"/></linearGradient><linearGradient x1="21.97592" y1="188.59595" x2="21.97592" y2="214.2158" gradientUnits="userSpaceOnUse" id="color-13"><stop offset="0" stop-color="#ff4040"/><stop offset="1" stop-color="#c33131"/></linearGradient><linearGradient x1="-104.33226" y1="197.13588" x2="-59.55025" y2="197.13588" gradientUnits="userSpaceOnUse" id="color-14"><stop offset="0" stop-color="#c33131"/><stop offset="1" stop-color="#ff4040"/></linearGradient><linearGradient x1="-95.01258" y1="262.94023" x2="-62.87543" y2="262.94023" gradientUnits="userSpaceOnUse" id="color-15"><stop offset="0" stop-color="#d6dde2"/><stop offset="1" stop-color="#d6dde2" stop-opacity="0"/></linearGradient><linearGradient x1="229.27659" y1="11.34409" x2="229.27659" y2="50.93482" gradientUnits="userSpaceOnUse" id="color-16"><stop offset="0" stop-color="#ff4040"/><stop offset="1" stop-color="#c33131"/></linearGradient><linearGradient x1="442.15906" y1="189.59595" x2="442.15906" y2="215.2158" gradientUnits="userSpaceOnUse" id="color-17"><stop offset="0" stop-color="#ff4040"/><stop offset="1" stop-color="#c33131"/></linearGradient><linearGradient x1="568.46723" y1="198.13588" x2="523.68522" y2="198.13588" gradientUnits="userSpaceOnUse" id="color-18"><stop offset="0" stop-color="#c33131"/><stop offset="1" stop-color="#ff4040"/></linearGradient><linearGradient x1="559.14756" y1="263.94023" x2="527.0104" y2="263.94023" gradientUnits="userSpaceOnUse" id="color-19"><stop offset="0" stop-color="#d6dde2"/><stop offset="1" stop-color="#d6dde2" stop-opacity="0"/></linearGradient></defs><g transform="translate(104.33226,-11.34409)"><g data-paper-data="{&quot;isPaintingLayer&quot;:true}" fill-rule="nonzero" stroke-linejoin="miter" stroke-miterlimit="10" stroke-dasharray="" stroke-dashoffset="0" style="mix-blend-mode: normal"><path d="M209.89063,47.90004h39.3202v147.7163h-39.3202z" data-paper-data="{&quot;origPos&quot;:null}" fill="url(#color-1)" stroke="none" stroke-width="1.11058" stroke-linecap="butt"/><path d="M197.50716,108.82475h63.96327v20.25501h-63.96327z" data-paper-data="{&quot;origPos&quot;:null}" fill="url(#color-2)" stroke="none" stroke-width="1.06271" stroke-linecap="butt"/><path d="M267.86591,213.47494c0.39684,0.8842 0.64226,2.10505 0.64226,3.45264c0,1.3476 -0.24541,2.56845 -0.64226,3.45265c-0.39636,0.8842 -0.94415,1.43176 -1.54891,1.43176c-0.60476,0 -1.15255,-0.54756 -1.54891,-1.43176c-0.39684,-0.8842 -0.64226,-2.10505 -0.64226,-3.45265c0,-1.3476 0.24541,-2.56844 0.64226,-3.45264c0.39636,-0.8842 0.94415,-1.43176 1.54891,-1.43176c0.60476,0 1.15255,0.54756 1.54891,1.43176z" data-paper-data="{&quot;origPos&quot;:null}" fill="#000000" stroke="none" stroke-width="1" stroke-linecap="butt"/><g data-paper-data="{&quot;origPos&quot;:null,&quot;origRot&quot;:0}" stroke="none"><path d="M266.78677,186.50238l-73.48271,-0.9159l5.04266,-57.81203l14.56495,-13.94596l35.0489,0.00773l13.38972,13.49474z" data-paper-data="{&quot;origPos&quot;:null}" fill="#ebf2f7" stroke-width="2.16315" stroke-linecap="round"/><path d="M236.37865,202.64367l-8.73637,-88.9292l20.25189,0.21066l13.68367,13.819l6.77523,71.55165z" data-paper-data="{&quot;origPos&quot;:null,&quot;index&quot;:null,&quot;origRot&quot;:0}" fill="url(#color-3)" stroke-width="0" stroke-linecap="butt"/><path d="M192.10936,199.19104l6.00223,-71.24906l14.74242,-14.12383l18.74036,-0.22778l-7.46774,88.43247z" data-paper-data="{&quot;origPos&quot;:null,&quot;origRot&quot;:0}" fill="url(#color-4)" stroke-width="0" stroke-linecap="butt"/></g><path d="M130.37416,202.29939l42.48547,-14.64354h28.70641h57.41284l27.55814,0.97623l41.33724,12.69108l4.59298,12.69112h-208.98266z" data-paper-data="{&quot;origPos&quot;:null}" fill="url(#color-5)" stroke="none" stroke-width="2.16315" stroke-linecap="round"/><path d="M102.22707,214.01429h251.46817v79.43368h-251.46817z" data-paper-data="{&quot;origPos&quot;:null}" fill="#ebf2f7" stroke="none" stroke-width="9.46438" stroke-linecap="butt"/><path d="M101.66775,214.01429l21.81685,-35.14459l22.96516,35.14459z" data-paper-data="{&quot;origPos&quot;:null}" fill="url(#color-6)" stroke="none" stroke-width="2.16315" stroke-linecap="round"/><path d="M309.12283,214.01429l21.81684,-35.14459l22.96517,35.14459z" data-paper-data="{&quot;origPos&quot;:null}" fill="url(#color-7)" stroke="none" stroke-width="2.16315" stroke-linecap="round"/><path d="M209.20637,139.79447h45.93023l14.92732,56.62183h-81.52617z" data-paper-data="{&quot;origPos&quot;:null}" fill="#ff4040" stroke="none" stroke-width="2.16315" stroke-linecap="round"/><path d="M197.89905,176.66177l31.57709,-24.61106l31.57705,24.61106v50.16871h-63.15413z" data-paper-data="{&quot;origPos&quot;:null}" fill="#d6dde2" stroke="none" stroke-width="2.65368" stroke-linecap="round"/><path d="M203.99041,180.48242l25.80711,-18.78616l25.07672,18.78616v38.82472h-50.88383z" data-paper-data="{&quot;origPos&quot;:null}" fill="url(#color-8)" stroke="none" stroke-width="1" stroke-linecap="round"/><path d="M110.98743,288.74082v-75.19476h32.13715v75.19476z" data-paper-data="{&quot;origPos&quot;:null}" fill="url(#color-9)" stroke="none" stroke-width="0" stroke-linecap="butt"/><path d="M313.5489,289.24179v-75.19476h32.13715v75.19476z" data-paper-data="{&quot;origPos&quot;:null}" fill="url(#color-10)" stroke="none" stroke-width="0" stroke-linecap="butt"/><path d="M198.63421,294.76588v-68.19476h32.13716v68.19476z" data-paper-data="{&quot;origPos&quot;:null}" fill="url(#color-11)" stroke="none" stroke-width="0" stroke-linecap="butt"/><path d="M228.33675,295.26687v-68.19476h32.13715v68.19476z" data-paper-data="{&quot;origPos&quot;:null,&quot;index&quot;:null}" fill="url(#color-12)" stroke="none" stroke-width="0" stroke-linecap="butt"/><g data-paper-data="{&quot;origPos&quot;:null}" fill="#99ffff" stroke="#84c3c3" stroke-width="0.5" stroke-linecap="butt"><path d="M114.88284,241.85053h7.79082v8.01542h-7.79082z"/><path d="M125.35176,241.85053h7.79082v8.01542h-7.79082z"/><path d="M125.1083,252.87174h7.79082v8.01543h-7.79082z"/><path d="M114.88284,252.87174h7.79082v8.01543h-7.79082z"/></g><g data-paper-data="{&quot;origPos&quot;:null}" stroke="none" stroke-linecap="butt"><path d="M309.16656,230.28049h13.63394v69.18319h-13.63394z" data-paper-data="{&quot;origPos&quot;:null}" fill="#aa5e35" stroke-width="2.07153"/><path d="M315.98353,212.79464c5.37372,0 10.24299,2.24533 13.76882,5.87281c3.52583,3.62748 5.70824,8.63712 5.70824,14.16576c0,5.52864 -2.18241,10.53829 -5.70824,14.16576c-3.52583,3.62748 -8.39511,5.8728 -13.76882,5.8728c-5.37372,0 -10.24299,-2.24532 -13.76882,-5.8728c-3.52583,-3.62748 -5.70824,-8.63712 -5.70824,-14.16576c0,-5.52864 2.18241,-10.53829 5.70824,-14.16576c3.52583,-3.62748 8.3951,-5.8728 13.76882,-5.8728z" data-paper-data="{&quot;origPos&quot;:null}" fill="#3abc3a" stroke-width="1"/><path d="M315.98353,193.75799c4.43298,0 8.45013,1.85256 11.35903,4.84533c2.9089,2.99276 4.70955,7.12572 4.70955,11.6865c0,4.56078 -1.80065,8.69373 -4.70955,11.68649c-2.9089,2.99276 -6.92605,4.84533 -11.35903,4.84533c-4.43298,0 -8.45012,-1.85257 -11.35902,-4.84533c-2.9089,-2.99276 -4.70956,-7.12571 -4.70956,-11.68649c0,-4.56078 1.80066,-8.69374 4.70956,-11.6865c2.9089,-2.99276 6.92604,-4.84533 11.35902,-4.84533z" data-paper-data="{&quot;origPos&quot;:null}" fill="#3ec73d" stroke-width="1"/><path d="M316.227,180.73294c2.61966,0 4.99344,1.09461 6.71229,2.86301c1.71885,1.76841 2.78278,4.2106 2.78278,6.90579c0,2.69519 -1.06394,5.13739 -2.78278,6.9058c-1.71885,1.76841 -4.09262,2.863 -6.71229,2.863c-2.61966,0 -4.99344,-1.0946 -6.71229,-2.863c-1.71885,-1.76841 -2.78278,-4.21061 -2.78278,-6.9058c0,-2.69519 1.06394,-5.13738 2.78278,-6.90579c1.71885,-1.76841 4.09262,-2.86301 6.71229,-2.86301z" data-paper-data="{&quot;origPos&quot;:null}" fill="#42d642" stroke-width="1"/></g><g data-paper-data="{&quot;origPos&quot;:null}" stroke="none" stroke-linecap="butt"><path d="M133.38605,230.59083h13.63395v71.18706h-13.63395z" data-paper-data="{&quot;origPos&quot;:null}" fill="#aa5e35" stroke-width="2.1101"/><path d="M140.20301,213.54607c5.37372,0 10.24299,2.24532 13.76883,5.8728c3.52584,3.62748 5.70824,8.63712 5.70824,14.16576c0,5.52864 -2.1824,10.53829 -5.70824,14.16576c-3.52584,3.62748 -8.39511,5.87281 -13.76883,5.87281c-5.37372,0 -10.24299,-2.24533 -13.76882,-5.8728c-3.52584,-3.62748 -5.70824,-8.63712 -5.70824,-14.16576c0,-5.52864 2.1824,-10.53829 5.70824,-14.16576c3.52584,-3.62748 8.39511,-5.8728 13.76882,-5.8728z" data-paper-data="{&quot;origPos&quot;:null}" fill="#3abc3a" stroke-width="1"/><path d="M140.20301,194.50945c4.43298,0 8.45013,1.85256 11.35903,4.84532c2.9089,2.99276 4.70955,7.12571 4.70955,11.68649c0,4.56078 -1.80065,8.69373 -4.70955,11.68649c-2.9089,2.99276 -6.92605,4.84533 -11.35903,4.84533c-4.43298,0 -8.45012,-1.85256 -11.35902,-4.84533c-2.9089,-2.99276 -4.70956,-7.12571 -4.70956,-11.68649c0,-4.56078 1.80066,-8.69373 4.70956,-11.68649c2.9089,-2.99276 6.92604,-4.84532 11.35902,-4.84532z" data-paper-data="{&quot;origPos&quot;:null}" fill="#3ec73d" stroke-width="1"/><path d="M140.44647,181.48438c2.61966,0 4.99344,1.09461 6.71229,2.86301c1.71885,1.76841 2.78279,4.2106 2.78279,6.90579c0,2.69519 -1.06394,5.13739 -2.78279,6.90579c-1.71885,1.76841 -4.09262,2.86301 -6.71229,2.86301c-2.61966,0 -4.99343,-1.09461 -6.71228,-2.86301c-1.71885,-1.76841 -2.78278,-4.21061 -2.78278,-6.90579c0,-2.69519 1.06393,-5.13738 2.78278,-6.90579c1.71885,-1.76841 4.09261,-2.86301 6.71228,-2.86301z" data-paper-data="{&quot;origPos&quot;:null}" fill="#42d642" stroke-width="1"/></g><g data-paper-data="{&quot;origPos&quot;:null}" fill="#99ffff" stroke="#84c3c3" stroke-width="0.5" stroke-linecap="butt"><path d="M163.57549,254.37466h7.79082v8.01542h-7.79082z"/><path d="M174.04441,254.37466h7.79083v8.01542h-7.79083z"/><path d="M173.80095,265.39583h7.79082v8.01542h-7.79082z"/><path d="M163.57549,265.39583h7.79082v8.01542h-7.79082z"/></g><g data-paper-data="{&quot;origPos&quot;:null}" fill="#99ffff" stroke="#84c3c3" stroke-width="0.5" stroke-linecap="butt"><path d="M265.58663,255.62703h7.79082v8.01542h-7.79082z"/><path d="M276.05555,255.62703h7.79082v8.01542h-7.79082z"/><path d="M275.81208,266.64824h7.79083v8.01542h-7.79083z"/><path d="M265.58663,266.64824h7.79082v8.01542h-7.79082z"/></g><g data-paper-data="{&quot;origPos&quot;:null}" fill="#99ffff" stroke="#84c3c3" stroke-width="0.5" stroke-linecap="butt"><path d="M163.57549,224.81775h7.79082v8.01542h-7.79082z"/><path d="M174.04441,224.81775h7.79083v8.01542h-7.79083z"/><path d="M173.80095,235.83896h7.79082v8.01542h-7.79082z"/><path d="M163.57549,235.83896h7.79082v8.01542h-7.79082z"/></g><g data-paper-data="{&quot;origPos&quot;:null}" fill="#99ffff" stroke="#84c3c3" stroke-width="0.5" stroke-linecap="butt"><path d="M265.58663,226.07016h7.79082v8.01543h-7.79082z"/><path d="M276.05555,226.07016h7.79082v8.01543h-7.79082z"/><path d="M275.81208,237.09138h7.79083v8.01542h-7.79083z"/><path d="M265.58663,237.09138h7.79082v8.01542h-7.79082z"/></g><path d="M-75.62585,202.82912l42.48547,-14.2332h28.70641h57.41284l27.55814,0.94888l41.33724,12.33545l4.59298,12.3355h-208.98266z" data-paper-data="{&quot;origPos&quot;:null}" fill="url(#color-13)" stroke="none" stroke-width="2.16315" stroke-linecap="round"/><path d="M-103.77293,214.2158h214.46817v76.47931h-214.46817z" data-paper-data="{&quot;origPos&quot;:null}" fill="#ebf2f7" stroke="none" stroke-width="9.46438" stroke-linecap="butt"/><path d="M-104.33226,214.2158l21.81685,-34.1598l22.96516,34.1598z" data-paper-data="{&quot;origPos&quot;:null}" fill="url(#color-14)" stroke="none" stroke-width="2.16315" stroke-linecap="round"/><path d="M-95.01258,286.11985v-72.35917h32.13715v72.35917z" data-paper-data="{&quot;origPos&quot;:null}" fill="url(#color-15)" stroke="none" stroke-width="0" stroke-linecap="butt"/><g data-paper-data="{&quot;origPos&quot;:null}" fill="#99ffff" stroke="#84c3c3" stroke-width="0.5" stroke-linecap="butt"><path d="M-91.11718,241.27204h7.79083v7.79083h-7.79083z"/><path d="M-80.64826,241.27204h7.79082v7.79083h-7.79082z"/><path d="M-80.89172,251.9844h7.79083v7.79083h-7.79083z"/><path d="M-91.11718,251.9844h7.79083v7.79083h-7.79083z"/></g><g data-paper-data="{&quot;origPos&quot;:null}" stroke="none" stroke-linecap="butt"><path d="M10.16655,231.02618h13.63394v66.51605h-13.63394z" data-paper-data="{&quot;origPos&quot;:null}" fill="#aa5e35" stroke-width="2.07153"/><path d="M16.98353,214.03031c5.37372,0 10.24299,2.1824 13.76882,5.70824c3.52583,3.52584 5.70824,8.39511 5.70824,13.76882c0,5.37372 -2.18241,10.24299 -5.70824,13.76883c-3.52583,3.52584 -8.39511,5.70824 -13.76882,5.70824c-5.37372,0 -10.24299,-2.1824 -13.76882,-5.70824c-3.52583,-3.52584 -5.70824,-8.39511 -5.70824,-13.76883c0,-5.37372 2.18241,-10.24299 5.70824,-13.76882c3.52583,-3.52584 8.3951,-5.70824 13.76882,-5.70824z" data-paper-data="{&quot;origPos&quot;:null}" fill="#3abc3a" stroke-width="1"/><path d="M16.98353,195.52709c4.43298,0 8.45013,1.80066 11.35903,4.70955c2.9089,2.9089 4.70955,6.92605 4.70955,11.35903c0,4.43298 -1.80065,8.45012 -4.70955,11.35902c-2.9089,2.9089 -6.92605,4.70955 -11.35903,4.70955c-4.43298,0 -8.45012,-1.80066 -11.35902,-4.70955c-2.9089,-2.9089 -4.70956,-6.92604 -4.70956,-11.35902c0,-4.43298 1.80066,-8.45013 4.70956,-11.35903c2.9089,-2.9089 6.92604,-4.70955 11.35902,-4.70955z" data-paper-data="{&quot;origPos&quot;:null}" fill="#3ec73d" stroke-width="1"/><path d="M17.22699,182.86699c2.61966,0 4.99344,1.06394 6.71229,2.78279c1.71885,1.71885 2.78278,4.09261 2.78278,6.71228c0,2.61966 -1.06394,4.99344 -2.78278,6.71229c-1.71885,1.71885 -4.09262,2.78278 -6.71229,2.78278c-2.61966,0 -4.99344,-1.06393 -6.71229,-2.78278c-1.71885,-1.71885 -2.78278,-4.09262 -2.78278,-6.71229c0,-2.61966 1.06394,-4.99343 2.78278,-6.71228c1.71885,-1.71885 4.09262,-2.78279 6.71229,-2.78279z" data-paper-data="{&quot;origPos&quot;:null}" fill="#42d642" stroke-width="1"/></g><g data-paper-data="{&quot;origPos&quot;:null}" fill="#99ffff" stroke="#84c3c3" stroke-width="0.5" stroke-linecap="butt"><path d="M-42.42451,253.44518h7.79082v7.79083h-7.79082z"/><path d="M-31.95559,253.44518h7.79083v7.79083h-7.79083z"/><path d="M-32.19905,264.15756h7.79082v7.79082h-7.79082z"/><path d="M-42.42451,264.15756h7.79082v7.79082h-7.79082z"/></g><g data-paper-data="{&quot;origPos&quot;:null}" fill="#99ffff" stroke="#84c3c3" stroke-width="0.5" stroke-linecap="butt"><path d="M59.58661,254.66249h7.79082v7.79082h-7.79082z"/><path d="M70.05554,254.66249h7.79082v7.79082h-7.79082z"/><path d="M69.81207,265.37487h7.79083v7.79083h-7.79083z"/><path d="M59.58661,265.37487h7.79082v7.79083h-7.79082z"/></g><g data-paper-data="{&quot;origPos&quot;:null}" fill="#99ffff" stroke="#84c3c3" stroke-width="0.5" stroke-linecap="butt"><path d="M-42.42451,224.71652h7.79082v7.79082h-7.79082z"/><path d="M-31.95559,224.71652h7.79083v7.79082h-7.79083z"/><path d="M-32.19905,235.42892h7.79082v7.79083h-7.79082z"/><path d="M-42.42451,235.42892h7.79082v7.79083h-7.79082z"/></g><g data-paper-data="{&quot;origPos&quot;:null}" fill="#99ffff" stroke="#84c3c3" stroke-width="0.5" stroke-linecap="butt"><path d="M59.58661,225.93383h7.79082v7.79083h-7.79082z"/><path d="M70.05554,225.93383h7.79082v7.79083h-7.79082z"/><path d="M69.81207,236.64623h7.79083v7.79082h-7.79083z"/><path d="M59.58661,236.64623h7.79082v7.79082h-7.79082z"/></g><g data-paper-data="{&quot;origPos&quot;:null}" stroke="none" stroke-linecap="butt"><path d="M73.16655,232.02618h13.63394v66.51605h-13.63394z" data-paper-data="{&quot;origPos&quot;:null}" fill="#aa5e35" stroke-width="2.07153"/><path d="M79.98351,215.03031c5.37372,0 10.24299,2.1824 13.76882,5.70824c3.52583,3.52584 5.70824,8.39511 5.70824,13.76882c0,5.37372 -2.18241,10.24299 -5.70824,13.76883c-3.52583,3.52584 -8.39511,5.70824 -13.76882,5.70824c-5.37372,0 -10.24299,-2.1824 -13.76882,-5.70824c-3.52583,-3.52584 -5.70824,-8.39511 -5.70824,-13.76883c0,-5.37372 2.18241,-10.24299 5.70824,-13.76882c3.52583,-3.52584 8.3951,-5.70824 13.76882,-5.70824z" data-paper-data="{&quot;origPos&quot;:null}" fill="#3abc3a" stroke-width="1"/><path d="M79.98351,196.52709c4.43298,0 8.45013,1.80066 11.35903,4.70955c2.9089,2.9089 4.70955,6.92605 4.70955,11.35903c0,4.43298 -1.80065,8.45012 -4.70955,11.35902c-2.9089,2.9089 -6.92605,4.70955 -11.35903,4.70955c-4.43298,0 -8.45012,-1.80066 -11.35902,-4.70955c-2.9089,-2.9089 -4.70956,-6.92604 -4.70956,-11.35902c0,-4.43298 1.80066,-8.45013 4.70956,-11.35903c2.9089,-2.9089 6.92604,-4.70955 11.35902,-4.70955z" data-paper-data="{&quot;origPos&quot;:null}" fill="#3ec73d" stroke-width="1"/><path d="M80.22699,183.86699c2.61966,0 4.99344,1.06394 6.71229,2.78279c1.71885,1.71885 2.78278,4.09261 2.78278,6.71228c0,2.61966 -1.06394,4.99344 -2.78278,6.71229c-1.71885,1.71885 -4.09262,2.78278 -6.71229,2.78278c-2.61966,0 -4.99344,-1.06393 -6.71229,-2.78278c-1.71885,-1.71885 -2.78278,-4.09262 -2.78278,-6.71229c0,-2.61966 1.06394,-4.99343 2.78278,-6.71228c1.71885,-1.71885 4.09262,-2.78279 6.71229,-2.78279z" data-paper-data="{&quot;origPos&quot;:null}" fill="#42d642" stroke-width="1"/></g><path d="M207.83157,50.93482l20.8951,-39.59073l21.99494,39.59073z" data-paper-data="{&quot;origPos&quot;:null}" fill="url(#color-16)" stroke="none" stroke-width="1.06271" stroke-linecap="round"/><path d="M546.65041,215.2158h-208.98266l4.59298,-12.3355l41.33724,-12.33545l27.55814,-0.94888h57.41284h28.70641l42.48547,14.2332z" data-paper-data="{&quot;origPos&quot;:null}" fill="url(#color-17)" stroke="none" stroke-width="2.16315" stroke-linecap="round"/><path d="M567.90791,291.69507h-214.46817v-76.47931h214.46817z" data-paper-data="{&quot;origPos&quot;:null}" fill="#ebf2f7" stroke="none" stroke-width="9.46438" stroke-linecap="butt"/><path d="M523.68522,215.2158l22.96516,-34.1598l21.81685,34.1598z" data-paper-data="{&quot;origPos&quot;:null}" fill="url(#color-18)" stroke="none" stroke-width="2.16315" stroke-linecap="round"/><path d="M527.0104,287.11985v-72.35917h32.13715v72.35917z" data-paper-data="{&quot;origPos&quot;:null}" fill="url(#color-19)" stroke="none" stroke-width="0" stroke-linecap="butt"/><g data-paper-data="{&quot;origPos&quot;:null}" fill="#99ffff" stroke="#84c3c3" stroke-width="0.5" stroke-linecap="butt"><path d="M555.25213,250.06287h-7.79083v-7.79083h7.79083z"/><path d="M544.7832,250.06287h-7.79082v-7.79083h7.79082z"/><path d="M545.0267,260.77522h-7.79083v-7.79083h7.79083z"/><path d="M555.25213,260.77522h-7.79083v-7.79083h7.79083z"/></g><g data-paper-data="{&quot;origPos&quot;:null}" stroke="none" stroke-linecap="butt"><path d="M453.96843,298.54222h-13.63394v-66.51605h13.63394z" data-paper-data="{&quot;origPos&quot;:null}" fill="#aa5e35" stroke-width="2.07153"/><path d="M460.92028,220.73854c3.52583,3.52583 5.70824,8.3951 5.70824,13.76882c0,5.37372 -2.18241,10.24299 -5.70824,13.76883c-3.52583,3.52584 -8.3951,5.70824 -13.76882,5.70824c-5.37371,0 -10.24299,-2.1824 -13.76882,-5.70824c-3.52583,-3.52584 -5.70824,-8.39511 -5.70824,-13.76883c0,-5.37371 2.18241,-10.24298 5.70824,-13.76882c3.52583,-3.52584 8.3951,-5.70824 13.76882,-5.70824c5.37372,0 10.24299,2.1824 13.76882,5.70824z" data-paper-data="{&quot;origPos&quot;:null}" fill="#3abc3a" stroke-width="1"/><path d="M458.51048,201.23666c2.9089,2.9089 4.70956,6.92605 4.70956,11.35903c0,4.43298 -1.80066,8.45012 -4.70956,11.35902c-2.9089,2.90889 -6.92604,4.70955 -11.35902,4.70955c-4.43298,0 -8.45013,-1.80065 -11.35903,-4.70955c-2.9089,-2.9089 -4.70955,-6.92604 -4.70955,-11.35902c0,-4.43298 1.80065,-8.45013 4.70955,-11.35903c2.9089,-2.90889 6.92605,-4.70955 11.35903,-4.70955c4.43298,0 8.45012,1.80065 11.35902,4.70955z" data-paper-data="{&quot;origPos&quot;:null}" fill="#3ec73d" stroke-width="1"/><path d="M453.62027,186.64977c1.71884,1.71885 2.78278,4.09262 2.78278,6.71228c0,2.61967 -1.06393,4.99344 -2.78278,6.71229c-1.71885,1.71885 -4.09263,2.78278 -6.71229,2.78278c-2.61967,0 -4.99344,-1.06393 -6.71229,-2.78278c-1.71884,-1.71885 -2.78278,-4.09263 -2.78278,-6.71229c0,-2.61967 1.06393,-4.99343 2.78278,-6.71228c1.71885,-1.71885 4.09263,-2.78279 6.71229,-2.78279c2.61967,0 4.99344,1.06394 6.71229,2.78279z" data-paper-data="{&quot;origPos&quot;:null}" fill="#42d642" stroke-width="1"/></g><g data-paper-data="{&quot;origPos&quot;:null}" fill="#99ffff" stroke="#84c3c3" stroke-width="0.5" stroke-linecap="butt"><path d="M506.55948,262.236h-7.79082v-7.79083h7.79082z"/><path d="M496.09057,262.236h-7.79083v-7.79083h7.79083z"/><path d="M496.33401,272.94838h-7.79082v-7.79082h7.79082z"/><path d="M506.55948,272.94838h-7.79082v-7.79082h7.79082z"/></g><g data-paper-data="{&quot;origPos&quot;:null}" fill="#99ffff" stroke="#84c3c3" stroke-width="0.5" stroke-linecap="butt"><path d="M404.54836,263.45331h-7.79082v-7.79082h7.79082z"/><path d="M394.07944,263.45331h-7.79082v-7.79082h7.79082z"/><path d="M394.32291,274.16571h-7.79083v-7.79083h7.79083z"/><path d="M404.54836,274.16571h-7.79082v-7.79083h7.79082z"/></g><g data-paper-data="{&quot;origPos&quot;:null}" fill="#99ffff" stroke="#84c3c3" stroke-width="0.5" stroke-linecap="butt"><path d="M506.55948,233.50736h-7.79082v-7.79082h7.79082z"/><path d="M496.09057,233.50736h-7.79083v-7.79082h7.79083z"/><path d="M496.33401,244.21975h-7.79082v-7.79083h7.79082z"/><path d="M506.55948,244.21975h-7.79082v-7.79083h7.79082z"/></g><g data-paper-data="{&quot;origPos&quot;:null}" fill="#99ffff" stroke="#84c3c3" stroke-width="0.5" stroke-linecap="butt"><path d="M404.54836,234.72467h-7.79082v-7.79083h7.79082z"/><path d="M394.07944,234.72467h-7.79082v-7.79083h7.79082z"/><path d="M394.32291,245.43706h-7.79083v-7.79082h7.79083z"/><path d="M404.54836,245.43706h-7.79082v-7.79082h7.79082z"/></g><g data-paper-data="{&quot;origPos&quot;:null}" stroke="none" stroke-linecap="butt"><path d="M390.96842,299.54222h-13.63394v-66.51605h13.63394z" data-paper-data="{&quot;origPos&quot;:null}" fill="#aa5e35" stroke-width="2.07153"/><path d="M397.92028,221.73854c3.52583,3.52583 5.70824,8.3951 5.70824,13.76882c0,5.37372 -2.18241,10.24299 -5.70824,13.76883c-3.52583,3.52584 -8.3951,5.70824 -13.76882,5.70824c-5.37371,0 -10.24299,-2.1824 -13.76882,-5.70824c-3.52583,-3.52584 -5.70824,-8.39511 -5.70824,-13.76883c0,-5.37371 2.18241,-10.24298 5.70824,-13.76882c3.52583,-3.52584 8.3951,-5.70824 13.76882,-5.70824c5.37372,0 10.24299,2.1824 13.76882,5.70824z" data-paper-data="{&quot;origPos&quot;:null}" fill="#3abc3a" stroke-width="1"/><path d="M395.51048,202.23666c2.9089,2.9089 4.70956,6.92605 4.70956,11.35903c0,4.43298 -1.80066,8.45012 -4.70956,11.35902c-2.9089,2.90889 -6.92604,4.70955 -11.35902,4.70955c-4.43298,0 -8.45013,-1.80065 -11.35903,-4.70955c-2.9089,-2.9089 -4.70955,-6.92604 -4.70955,-11.35902c0,-4.43298 1.80065,-8.45013 4.70955,-11.35903c2.9089,-2.90889 6.92605,-4.70955 11.35903,-4.70955c4.43298,0 8.45012,1.80065 11.35902,4.70955z" data-paper-data="{&quot;origPos&quot;:null}" fill="#3ec73d" stroke-width="1"/><path d="M390.62028,187.64977c1.71884,1.71885 2.78278,4.09262 2.78278,6.71228c0,2.61967 -1.06393,4.99344 -2.78278,6.71229c-1.71885,1.71885 -4.09263,2.78278 -6.71229,2.78278c-2.61967,0 -4.99344,-1.06393 -6.71229,-2.78278c-1.71884,-1.71885 -2.78278,-4.09263 -2.78278,-6.71229c0,-2.61967 1.06393,-4.99343 2.78278,-6.71228c1.71885,-1.71885 4.09263,-2.78279 6.71229,-2.78279c2.61967,0 4.99344,1.06394 6.71229,2.78279z" data-paper-data="{&quot;origPos&quot;:null}" fill="#42d642" stroke-width="1"/></g><path d="M213.76687,232.84429h31.10982v14.54485h-31.10982z" data-paper-data="{&quot;origPos&quot;:null}" fill="#c95206" stroke="none" stroke-width="1" stroke-linecap="butt"/><path d="M203.50003,245.66091h52.77438v49.38174h-52.77438z" data-paper-data="{&quot;origPos&quot;:null}" fill="#c95206" stroke="none" stroke-width="1" stroke-linecap="butt"/><path d="M203.50003,245.75515l10.55488,-13.00511v13.00511z" data-paper-data="{&quot;origPos&quot;:null}" fill="#c95206" stroke="none" stroke-width="1" stroke-linecap="round"/><path d="M244.58864,232.93853l11.77999,12.81663h-11.77999z" data-paper-data="{&quot;origPos&quot;:null}" fill="#c95206" stroke="none" stroke-width="1" stroke-linecap="round"/><g data-paper-data="{&quot;origPos&quot;:null}" fill="#dd7821" stroke="none" stroke-width="1" stroke-linecap="butt"><path d="M214.15855,237.51857c0.45499,0 0.86739,0.18472 1.16594,0.48327c0.29855,0.29855 0.48326,0.71094 0.48326,1.16593c0,0.45499 -0.18471,0.86739 -0.48326,1.16594c-0.29855,0.29855 -0.71095,0.48326 -1.16594,0.48326c-0.45499,0 -0.86738,-0.18471 -1.16593,-0.48326c-0.29855,-0.29855 -0.48326,-0.71095 -0.48326,-1.16594c0,-0.45499 0.18471,-0.86739 0.48326,-1.16593c0.29855,-0.29855 0.71094,-0.48327 1.16593,-0.48327z" data-paper-data="{&quot;origPos&quot;:null}"/><path d="M224.11665,234.06941c0.45499,0 0.86738,0.18471 1.16593,0.48326c0.29855,0.29855 0.48327,0.71095 0.48327,1.16594c0,0.45499 -0.18472,0.86739 -0.48327,1.16593c-0.29855,0.29855 -0.71094,0.48326 -1.16593,0.48326c-0.45499,0 -0.86738,-0.18471 -1.16593,-0.48326c-0.29855,-0.29855 -0.48327,-0.71094 -0.48327,-1.16593c0,-0.45499 0.18472,-0.86739 0.48327,-1.16594c0.29855,-0.29855 0.71094,-0.48326 1.16593,-0.48326z" data-paper-data="{&quot;origPos&quot;:null}"/><g data-paper-data="{&quot;origPos&quot;:null}"><path d="M224.20455,246.06495c0.45499,0 0.86738,0.18471 1.16593,0.48326c0.29855,0.29855 0.48327,0.71094 0.48327,1.16593c0,0.45499 -0.18472,0.86739 -0.48327,1.16594c-0.29855,0.29855 -0.71094,0.48326 -1.16593,0.48326c-0.45499,0 -0.86738,-0.18471 -1.16593,-0.48326c-0.29855,-0.29855 -0.48327,-0.71095 -0.48327,-1.16594c0,-0.45499 0.18472,-0.86739 0.48327,-1.16593c0.29855,-0.29855 0.71094,-0.48326 1.16593,-0.48326z" data-paper-data="{&quot;origPos&quot;:null}"/><path d="M224.17933,257.54096c0.45499,0 0.86739,0.18472 1.16594,0.48327c0.29855,0.29855 0.48326,0.71094 0.48326,1.16593c0,0.45499 -0.18471,0.86739 -0.48326,1.16594c-0.29855,0.29855 -0.71095,0.48326 -1.16594,0.48326c-0.45499,0 -0.86738,-0.18471 -1.16593,-0.48326c-0.29855,-0.29855 -0.48327,-0.71095 -0.48327,-1.16594c0,-0.45499 0.18472,-0.86739 0.48327,-1.16593c0.29855,-0.29855 0.71094,-0.48327 1.16593,-0.48327z" data-paper-data="{&quot;origPos&quot;:null}"/><path d="M224.00784,269.03238c0.45499,0 0.86739,0.18472 1.16594,0.48327c0.29855,0.29855 0.48326,0.71094 0.48326,1.16593c0,0.45499 -0.18471,0.86739 -0.48326,1.16593c-0.29855,0.29855 -0.71095,0.48327 -1.16594,0.48327c-0.45499,0 -0.86739,-0.18472 -1.16594,-0.48327c-0.29855,-0.29855 -0.48326,-0.71094 -0.48326,-1.16593c0,-0.45499 0.18471,-0.86739 0.48326,-1.16593c0.29855,-0.29855 0.71095,-0.48327 1.16594,-0.48327z" data-paper-data="{&quot;origPos&quot;:null}"/><path d="M224.0193,280.02369c0.45499,0 0.86739,0.18471 1.16594,0.48326c0.29855,0.29855 0.48326,0.71095 0.48326,1.16594c0,0.45499 -0.18471,0.86739 -0.48326,1.16593c-0.29855,0.29855 -0.71095,0.48327 -1.16594,0.48327c-0.45499,0 -0.86738,-0.18472 -1.16593,-0.48327c-0.29855,-0.29855 -0.48326,-0.71094 -0.48326,-1.16593c0,-0.45499 0.18471,-0.86739 0.48326,-1.16594c0.29855,-0.29855 0.71094,-0.48326 1.16593,-0.48326z" data-paper-data="{&quot;origPos&quot;:null}"/><path d="M223.98692,290.55681c0.45499,0 0.86739,0.18471 1.16594,0.48326c0.29855,0.29855 0.48326,0.71095 0.48326,1.16594c0,0.45499 -0.18471,0.86739 -0.48326,1.16594c-0.29855,0.29855 -0.71095,0.48326 -1.16594,0.48326c-0.45499,0 -0.86738,-0.18471 -1.16593,-0.48326c-0.29855,-0.29855 -0.48326,-0.71095 -0.48326,-1.16594c0,-0.45499 0.18471,-0.86739 0.48326,-1.16594c0.29855,-0.29855 0.71094,-0.48326 1.16593,-0.48326z" data-paper-data="{&quot;origPos&quot;:null}"/></g><g data-paper-data="{&quot;origPos&quot;:null}"><path d="M207.31807,245.99043c0.45499,0 0.86738,0.18471 1.16593,0.48326c0.29855,0.29855 0.48326,0.71095 0.48326,1.16594c0,0.45499 -0.18471,0.86739 -0.48326,1.16593c-0.29855,0.29855 -0.71094,0.48326 -1.16593,0.48326c-0.45499,0 -0.86739,-0.18471 -1.16594,-0.48326c-0.29855,-0.29855 -0.48326,-0.71094 -0.48326,-1.16593c0,-0.45499 0.18471,-0.86739 0.48326,-1.16594c0.29855,-0.29855 0.71095,-0.48326 1.16594,-0.48326z" data-paper-data="{&quot;origPos&quot;:null}"/><path d="M207.29285,257.46646c0.45499,0 0.86738,0.18471 1.16593,0.48326c0.29855,0.29855 0.48326,0.71095 0.48326,1.16594c0,0.45499 -0.18471,0.86739 -0.48326,1.16594c-0.29855,0.29855 -0.71094,0.48326 -1.16593,0.48326c-0.45499,0 -0.86739,-0.18471 -1.16594,-0.48326c-0.29855,-0.29855 -0.48326,-0.71095 -0.48326,-1.16594c0,-0.45499 0.18471,-0.86739 0.48326,-1.16594c0.29855,-0.29855 0.71095,-0.48326 1.16594,-0.48326z" data-paper-data="{&quot;origPos&quot;:null}"/><path d="M207.12136,268.95788c0.45499,0 0.86738,0.18471 1.16593,0.48326c0.29855,0.29855 0.48327,0.71095 0.48327,1.16594c0,0.45499 -0.18472,0.86739 -0.48327,1.16594c-0.29855,0.29855 -0.71094,0.48326 -1.16593,0.48326c-0.45499,0 -0.86738,-0.18471 -1.16593,-0.48326c-0.29855,-0.29855 -0.48327,-0.71095 -0.48327,-1.16594c0,-0.45499 0.18472,-0.86739 0.48327,-1.16594c0.29855,-0.29855 0.71094,-0.48326 1.16593,-0.48326z" data-paper-data="{&quot;origPos&quot;:null}"/><path d="M207.13282,279.94917c0.45499,0 0.86739,0.18472 1.16594,0.48327c0.29855,0.29855 0.48326,0.71094 0.48326,1.16593c0,0.45499 -0.18471,0.86739 -0.48326,1.16593c-0.29855,0.29855 -0.71095,0.48327 -1.16594,0.48327c-0.45499,0 -0.86738,-0.18472 -1.16593,-0.48327c-0.29855,-0.29855 -0.48326,-0.71094 -0.48326,-1.16593c0,-0.45499 0.18471,-0.86739 0.48326,-1.16593c0.29855,-0.29855 0.71094,-0.48327 1.16593,-0.48327z" data-paper-data="{&quot;origPos&quot;:null}"/><path d="M207.10044,290.48231c0.45499,0 0.86739,0.18472 1.16594,0.48327c0.29855,0.29855 0.48326,0.71094 0.48326,1.16593c0,0.45499 -0.18471,0.86739 -0.48326,1.16593c-0.29855,0.29855 -0.71095,0.48327 -1.16594,0.48327c-0.45499,0 -0.86739,-0.18472 -1.16594,-0.48327c-0.29855,-0.29855 -0.48326,-0.71094 -0.48326,-1.16593c0,-0.45499 0.18471,-0.86739 0.48326,-1.16593c0.29855,-0.29855 0.71095,-0.48327 1.16594,-0.48327z" data-paper-data="{&quot;origPos&quot;:null}"/></g><path d="M215.85488,290.48143c0.45499,0 0.86738,0.18472 1.16593,0.48327c0.29855,0.29855 0.48327,0.71094 0.48327,1.16593c0,0.45499 -0.18472,0.86739 -0.48327,1.16594c-0.29855,0.29855 -0.71094,0.48326 -1.16593,0.48326c-0.45499,0 -0.86739,-0.18471 -1.16594,-0.48326c-0.29855,-0.29855 -0.48326,-0.71095 -0.48326,-1.16594c0,-0.45499 0.18471,-0.86739 0.48326,-1.16593c0.29855,-0.29855 0.71095,-0.48327 1.16594,-0.48327z" data-paper-data="{&quot;origPos&quot;:null}"/></g><g data-paper-data="{&quot;index&quot;:null,&quot;origPos&quot;:null}" fill="#dd7821" stroke="none" stroke-width="1" stroke-linecap="butt"><path d="M246.58434,238.00184c0.29855,0.29855 0.48326,0.71094 0.48326,1.16593c0,0.45499 -0.18471,0.86739 -0.48326,1.16594c-0.29855,0.29855 -0.71094,0.48326 -1.16593,0.48326c-0.45499,0 -0.86739,-0.18471 -1.16594,-0.48326c-0.29855,-0.29855 -0.48326,-0.71095 -0.48326,-1.16594c0,-0.45499 0.18471,-0.86739 0.48326,-1.16593c0.29855,-0.29855 0.71095,-0.48327 1.16594,-0.48327c0.45499,0 0.86738,0.18472 1.16593,0.48327z" data-paper-data="{&quot;origPos&quot;:null}"/><path d="M236.62624,234.55266c0.29855,0.29855 0.48327,0.71095 0.48327,1.16594c0,0.45499 -0.18472,0.86739 -0.48327,1.16593c-0.29855,0.29855 -0.71094,0.48326 -1.16593,0.48326c-0.45499,0 -0.86738,-0.18471 -1.16593,-0.48326c-0.29855,-0.29855 -0.48327,-0.71094 -0.48327,-1.16593c0,-0.45499 0.18472,-0.86739 0.48327,-1.16594c0.29855,-0.29855 0.71094,-0.48326 1.16593,-0.48326c0.45499,0 0.86738,0.18471 1.16593,0.48326z" data-paper-data="{&quot;origPos&quot;:null}"/><g data-paper-data="{&quot;origPos&quot;:null}"><path d="M236.53837,246.54822c0.29855,0.29855 0.48327,0.71094 0.48327,1.16593c0,0.45499 -0.18472,0.86739 -0.48327,1.16594c-0.29855,0.29855 -0.71094,0.48326 -1.16593,0.48326c-0.45499,0 -0.86738,-0.18471 -1.16593,-0.48326c-0.29855,-0.29855 -0.48327,-0.71095 -0.48327,-1.16594c0,-0.45499 0.18472,-0.86739 0.48327,-1.16593c0.29855,-0.29855 0.71094,-0.48326 1.16593,-0.48326c0.45499,0 0.86738,0.18471 1.16593,0.48326z" data-paper-data="{&quot;origPos&quot;:null}"/><path d="M236.56356,258.02421c0.29855,0.29855 0.48327,0.71094 0.48327,1.16593c0,0.45499 -0.18472,0.86739 -0.48327,1.16594c-0.29855,0.29855 -0.71094,0.48326 -1.16593,0.48326c-0.45499,0 -0.86739,-0.18471 -1.16594,-0.48326c-0.29855,-0.29855 -0.48326,-0.71095 -0.48326,-1.16594c0,-0.45499 0.18471,-0.86739 0.48326,-1.16593c0.29855,-0.29855 0.71095,-0.48327 1.16594,-0.48327c0.45499,0 0.86738,0.18472 1.16593,0.48327z" data-paper-data="{&quot;origPos&quot;:null}"/><path d="M236.73506,269.51565c0.29855,0.29855 0.48327,0.71094 0.48327,1.16593c0,0.45499 -0.18472,0.86739 -0.48327,1.16593c-0.29855,0.29855 -0.71094,0.48327 -1.16593,0.48327c-0.45499,0 -0.86738,-0.18472 -1.16593,-0.48327c-0.29855,-0.29855 -0.48327,-0.71094 -0.48327,-1.16593c0,-0.45499 0.18472,-0.86739 0.48327,-1.16593c0.29855,-0.29855 0.71094,-0.48327 1.16593,-0.48327c0.45499,0 0.86738,0.18472 1.16593,0.48327z" data-paper-data="{&quot;origPos&quot;:null}"/><path d="M236.72361,280.50694c0.29855,0.29855 0.48326,0.71095 0.48326,1.16594c0,0.45499 -0.18471,0.86739 -0.48326,1.16593c-0.29855,0.29855 -0.71095,0.48326 -1.16594,0.48326c-0.45499,0 -0.86738,-0.18471 -1.16593,-0.48326c-0.29855,-0.29855 -0.48326,-0.71094 -0.48326,-1.16593c0,-0.45499 0.18471,-0.86739 0.48326,-1.16594c0.29855,-0.29855 0.71094,-0.48326 1.16593,-0.48326c0.45499,0 0.86739,0.18471 1.16594,0.48326z" data-paper-data="{&quot;origPos&quot;:null}"/><path d="M236.75597,291.04008c0.29855,0.29855 0.48327,0.71095 0.48327,1.16594c0,0.45499 -0.18472,0.86739 -0.48327,1.16594c-0.29855,0.29855 -0.71094,0.48326 -1.16593,0.48326c-0.45499,0 -0.86739,-0.18471 -1.16594,-0.48326c-0.29855,-0.29855 -0.48326,-0.71095 -0.48326,-1.16594c0,-0.45499 0.18471,-0.86739 0.48326,-1.16594c0.29855,-0.29855 0.71095,-0.48326 1.16594,-0.48326c0.45499,0 0.86738,0.18471 1.16593,0.48326z" data-paper-data="{&quot;origPos&quot;:null}"/></g><g data-paper-data="{&quot;origPos&quot;:null}"><path d="M253.42485,246.47372c0.29855,0.29855 0.48326,0.71094 0.48326,1.16593c0,0.45499 -0.18471,0.86739 -0.48326,1.16594c-0.29855,0.29855 -0.71095,0.48326 -1.16594,0.48326c-0.45499,0 -0.86738,-0.18471 -1.16593,-0.48326c-0.29855,-0.29855 -0.48326,-0.71095 -0.48326,-1.16594c0,-0.45499 0.18471,-0.86739 0.48326,-1.16593c0.29855,-0.29855 0.71094,-0.48327 1.16593,-0.48327c0.45499,0 0.86739,0.18472 1.16594,0.48327z" data-paper-data="{&quot;origPos&quot;:null}"/><path d="M253.45006,257.94971c0.29855,0.29855 0.48326,0.71095 0.48326,1.16594c0,0.45499 -0.18471,0.86739 -0.48326,1.16594c-0.29855,0.29855 -0.71095,0.48326 -1.16594,0.48326c-0.45499,0 -0.86738,-0.18471 -1.16593,-0.48326c-0.29855,-0.29855 -0.48326,-0.71095 -0.48326,-1.16594c0,-0.45499 0.18471,-0.86739 0.48326,-1.16594c0.29855,-0.29855 0.71094,-0.48326 1.16593,-0.48326c0.45499,0 0.86739,0.18471 1.16594,0.48326z" data-paper-data="{&quot;origPos&quot;:null}"/><path d="M253.62154,269.44113c0.29855,0.29855 0.48327,0.71095 0.48327,1.16594c0,0.45499 -0.18472,0.86739 -0.48327,1.16594c-0.29855,0.29855 -0.71094,0.48326 -1.16593,0.48326c-0.45499,0 -0.86738,-0.18471 -1.16593,-0.48326c-0.29855,-0.29855 -0.48327,-0.71095 -0.48327,-1.16594c0,-0.45499 0.18472,-0.86739 0.48327,-1.16594c0.29855,-0.29855 0.71094,-0.48326 1.16593,-0.48326c0.45499,0 0.86738,0.18471 1.16593,0.48326z" data-paper-data="{&quot;origPos&quot;:null}"/><path d="M253.6101,280.43244c0.29855,0.29855 0.48327,0.71095 0.48327,1.16594c0,0.45499 -0.18472,0.86739 -0.48327,1.16593c-0.29855,0.29855 -0.71094,0.48326 -1.16593,0.48326c-0.45499,0 -0.86739,-0.18471 -1.16594,-0.48326c-0.29855,-0.29855 -0.48326,-0.71094 -0.48326,-1.16593c0,-0.45499 0.18471,-0.86739 0.48326,-1.16594c0.29855,-0.29855 0.71095,-0.48326 1.16594,-0.48326c0.45499,0 0.86738,0.18471 1.16593,0.48326z" data-paper-data="{&quot;origPos&quot;:null}"/><path d="M253.64248,290.96558c0.29855,0.29855 0.48326,0.71094 0.48326,1.16593c0,0.45499 -0.18471,0.86739 -0.48326,1.16593c-0.29855,0.29855 -0.71095,0.48327 -1.16594,0.48327c-0.45499,0 -0.86739,-0.18472 -1.16594,-0.48327c-0.29855,-0.29855 -0.48326,-0.71094 -0.48326,-1.16593c0,-0.45499 0.18471,-0.86739 0.48326,-1.16593c0.29855,-0.29855 0.71095,-0.48327 1.16594,-0.48327c0.45499,0 0.86739,0.18472 1.16594,0.48327z" data-paper-data="{&quot;origPos&quot;:null}"/></g><path d="M244.88802,290.96468c0.29855,0.29855 0.48326,0.71094 0.48326,1.16593c0,0.45499 -0.18471,0.86739 -0.48326,1.16594c-0.29855,0.29855 -0.71095,0.48326 -1.16594,0.48326c-0.45499,0 -0.86738,-0.18471 -1.16593,-0.48326c-0.29855,-0.29855 -0.48327,-0.71095 -0.48327,-1.16594c0,-0.45499 0.18472,-0.86739 0.48327,-1.16593c0.29855,-0.29855 0.71094,-0.48327 1.16593,-0.48327c0.45499,0 0.86739,0.18472 1.16594,0.48327z" data-paper-data="{&quot;origPos&quot;:null}"/></g><path d="M228.37937,232.87005h3.10992v62.19838h-3.10992z" data-paper-data="{&quot;origPos&quot;:null}" fill="#b03405" stroke="none" stroke-width="1.14943" stroke-linecap="round"/><path d="M218.76691,268.74969c0,-2.34213 1.89867,-4.24079 4.24079,-4.24079c2.34213,0 4.2408,1.89867 4.2408,4.24079c0,2.34213 -1.89867,4.2408 -4.2408,4.2408c-2.34213,0 -4.24079,-1.89867 -4.24079,-4.2408z" data-paper-data="{&quot;origPos&quot;:null}" fill="#ffd400" stroke="none" stroke-width="0" stroke-linecap="butt"/><path d="M232.71441,268.74969c0,-2.34213 1.89866,-4.24079 4.24079,-4.24079c2.34213,0 4.2408,1.89867 4.2408,4.24079c0,2.34213 -1.89867,4.2408 -4.2408,4.2408c-2.34213,0 -4.24079,-1.89867 -4.24079,-4.2408z" data-paper-data="{&quot;origPos&quot;:null}" fill="#ffd400" stroke="none" stroke-width="0" stroke-linecap="butt"/><g data-paper-data="{&quot;origPos&quot;:null}"><g data-paper-data="{&quot;origPos&quot;:null,&quot;index&quot;:null,&quot;origRot&quot;:0}" stroke="none" stroke-width="0" stroke-linecap="butt"><path d="M233.10371,274.76874c1.02175,0.01412 1.95037,1.82513 1.92452,3.69613c-0.02586,1.87101 -0.32985,3.64567 -0.32985,3.64567l-3.06669,-0.00719c0,0 -0.31763,-2.93076 -0.29683,-4.43563c0.02586,-1.87101 0.7471,-2.91309 1.76885,-2.89898z" data-paper-data="{&quot;origRot&quot;:0,&quot;origPos&quot;:null}" fill="#ff0021"/><g data-paper-data="{&quot;origPos&quot;:null}" fill="#ffffff"><path d="M232.99825,283.06874c1.80391,-0.05779 4.03901,-0.02919 3.9887,1.87261c-0.03649,1.37968 -1.87982,3.36758 -3.65131,3.02229c-1.9331,-0.37679 -3.71695,-0.40323 -3.45964,-2.52414c0.24026,-1.98037 1.31833,-2.31297 3.12224,-2.37075z" data-paper-data="{&quot;origRot&quot;:0,&quot;origPos&quot;:null}"/><path d="M233.19568,281.55845c1.39278,-0.04278 2.97351,-0.36325 2.92111,0.70785c-0.05862,1.19823 -0.42328,1.13798 -2.70101,1.15166c-2.59476,0.01558 -2.98851,0.49036 -2.98815,-0.82609c0.00021,-0.76871 1.37528,-0.99063 2.76805,-1.03342z" data-paper-data="{&quot;origRot&quot;:0,&quot;origPos&quot;:null}"/></g></g><g data-paper-data="{&quot;origPos&quot;:null}" stroke="none" stroke-width="0" stroke-linecap="butt"><path d="M233.4643,287.60796c0.04806,0.87704 1.04008,1.22067 1.00922,1.41771c-0.12487,0.79722 -0.50357,1.35897 -1.82505,1.73417c-1.63694,0.46477 -2.92291,0.35593 -4.39034,-0.5056c-0.99945,-0.58678 -0.12076,-1.09378 0.25918,-2.1887c0.13633,-0.39289 0.23732,-0.90675 0.33344,-1.94737c0.12017,-1.30105 0.82021,-3.67092 0.82021,-3.67092c0,0 1.02506,-0.15598 2.03681,-0.17121c1.00082,-0.00449 1.99682,0.40599 1.99682,0.40599c0,0 -0.35138,2.89854 -0.24029,4.92593z" data-paper-data="{&quot;origPos&quot;:null}" fill="#0052ef"/><path d="M234.84173,291.87496c0,0.74941 -0.76259,1.10251 -1.48515,1.30132c-0.47353,0.13029 -2.77013,0.06308 -3.90977,-0.60442c-0.35381,-0.20723 -0.64114,-0.67767 -0.64114,-0.67767c0,0 -0.96822,0.146 -0.96544,-0.13403c0.00221,-0.22229 -0.00339,-0.60083 0.21201,-0.71619c0.92718,-0.49659 3.12336,-0.4954 4.17515,-0.4954c1.44387,0 2.61435,0.59385 2.61435,1.3264z" data-paper-data="{&quot;origPos&quot;:null}" fill="#f9c869"/><path d="M235.204,290.93359c-0.26269,0.8772 -1.14063,1.50421 -2.77294,1.50421c-1.63231,0 -3.37847,-0.94674 -3.37847,-0.94674c0,0 -1.18173,0.06221 -1.20564,-0.24098c-0.04948,-0.62752 -0.06078,-1.65143 0.17673,-1.6849c0.87684,-0.12359 0.71127,-0.00487 1.85786,-0.25002c0.74236,-0.15872 1.98261,-0.86615 2.74175,-0.86615c1.63231,0 3.01323,1.04027 2.58071,2.48459z" data-paper-data="{&quot;origPos&quot;:null}" fill="#8e4108"/></g><g data-paper-data="{&quot;origPos&quot;:null}" stroke="none" stroke-width="0" stroke-linecap="butt"><path d="M229.1391,287.65603c0.04806,0.87704 1.04008,1.22067 1.00922,1.41771c-0.12487,0.79722 -0.50357,1.35897 -1.82505,1.73417c-1.63694,0.46477 -2.92291,0.35593 -4.39034,-0.5056c-0.99945,-0.58678 -0.12076,-1.09378 0.25918,-2.1887c0.13633,-0.39289 0.23732,-0.90675 0.33344,-1.94737c0.12017,-1.30105 0.96438,-3.71898 0.96438,-3.71898c0,0 1.45758,-0.0118 2.42127,0.1652c0.76053,0.13969 1.99682,0.64628 1.99682,0.64628c0,0 -0.88002,2.3699 -0.76893,4.39729z" data-paper-data="{&quot;origPos&quot;:null}" fill="#0052ef"/><path d="M230.51653,291.92303c0,0.74941 -0.76259,1.10251 -1.48515,1.30132c-0.47353,0.13029 -2.77013,0.06308 -3.90977,-0.60442c-0.35381,-0.20723 -0.64114,-0.67767 -0.64114,-0.67767c0,0 -0.96822,0.146 -0.96544,-0.13403c0.00221,-0.22229 -0.00339,-0.60083 0.21201,-0.71619c0.92718,-0.49659 3.12336,-0.4954 4.17515,-0.4954c1.44387,0 2.61435,0.59385 2.61435,1.3264z" data-paper-data="{&quot;origPos&quot;:null}" fill="#f9c869"/><path d="M230.87879,290.98161c-0.26269,0.8772 -1.14063,1.50421 -2.77294,1.50421c-1.63231,0 -3.37847,-0.94674 -3.37847,-0.94674c0,0 -1.18173,0.06221 -1.20564,-0.24098c-0.04948,-0.62752 -0.06078,-1.65143 0.17673,-1.6849c0.87684,-0.12359 0.71127,-0.00487 1.85786,-0.25002c0.74236,-0.15872 1.98261,-0.86615 2.74175,-0.86615c1.63231,0 3.01323,1.04027 2.58071,2.48459z" data-paper-data="{&quot;origPos&quot;:null}" fill="#8e4108"/></g><g data-paper-data="{&quot;origPos&quot;:null}" stroke-width="2"><path d="M234.6565,279.63991c0.07528,4.07022 -2.52057,5.2287 -5.44015,5.2287c-2.91958,0 -5.32481,-1.92961 -5.32481,-3.88308c0,-2.11918 0.25346,-3.80616 1.88797,-5.15497c1.21776,-1.00491 2.97293,-0.53508 4.55178,-0.53508c2.91958,0 4.25141,0.35471 4.32521,4.34443z" data-paper-data="{&quot;origPos&quot;:null}" fill="#0052ef" stroke="none" stroke-linecap="butt"/><path d="M234.6565,279.52457c0,0 -3.31481,0.38446 -5.6516,0.46136c-2.1434,0.07053 -4.30598,-0.65359 -4.30598,-0.65359c0,0 -0.18963,-2.65196 1.34266,-3.68316c1.00254,-0.67468 2.13,-0.89563 3.57846,-0.9304c1.44846,-0.03476 3.02359,0.41121 3.75275,1.00194c1.72237,1.39538 1.28371,3.80385 1.28371,3.80385z" data-paper-data="{&quot;origPos&quot;:null}" fill="#ff0021" stroke="none" stroke-linecap="butt"/><path d="M231.98598,275.46682c0,0 0.41143,1.31492 0.49443,2.10555c0.10661,1.0155 -0.11149,2.92354 -0.11149,2.92354" data-paper-data="{&quot;origPos&quot;:null,&quot;origRot&quot;:0}" fill="none" stroke="#0052ef" stroke-linecap="round"/><path d="M227.8515,275.5646c0,0 0.23834,1.35701 0.21863,2.15174c-0.02531,1.02077 -0.48776,2.88472 -0.48776,2.88472" data-paper-data="{&quot;origPos&quot;:null}" fill="none" stroke="#0052ef" stroke-linecap="round"/><path d="M226.92879,280.23582c0,-0.43528 0.35287,-0.78815 0.78815,-0.78815c0.43528,0 0.78815,0.35287 0.78815,0.78815c0,0.43528 -0.35287,0.78815 -0.78815,0.78815c-0.43528,0 -0.78815,-0.35287 -0.78815,-0.78815z" data-paper-data="{&quot;origPos&quot;:null}" fill="#ffe84f" stroke="none" stroke-linecap="butt"/><path d="M231.69613,280.23582c0,-0.43528 0.35287,-0.78815 0.78815,-0.78815c0.43528,0 0.78815,0.35287 0.78815,0.78815c0,0.43528 -0.35287,0.78815 -0.78815,0.78815c-0.43528,0 -0.78815,-0.35287 -0.78815,-0.78815z" data-paper-data="{&quot;origPos&quot;:null}" fill="#ffe84f" stroke="none" stroke-linecap="butt"/></g><g data-paper-data="{&quot;origPos&quot;:null}" stroke="none" stroke-width="0" stroke-linecap="butt"><path d="M227.20499,278.20975c-0.38081,1.45604 -1.46763,4.19631 -1.46763,4.19631l-2.95781,-0.80995c0,0 0.17971,-1.79152 0.65317,-3.60181c0.47346,-1.8103 1.85093,-3.30852 2.83953,-3.04996c0.9886,0.25856 1.4062,1.45511 0.93274,3.26541z" data-paper-data="{&quot;origRot&quot;:0,&quot;origPos&quot;:null}" fill="#ff0021"/><g data-paper-data="{&quot;origPos&quot;:null}" fill="#ffffff"><path d="M226.54095,286.08941c-0.31694,2.11283 -2.04337,1.66314 -4.007,1.5114c-1.79947,-0.13906 -3.04667,-2.54614 -2.71434,-3.8857c0.4581,-1.84648 2.62006,-1.27868 4.3434,-0.74247c1.72334,0.53621 2.67387,1.14396 2.37794,3.11677z" data-paper-data="{&quot;origRot&quot;:0,&quot;origPos&quot;:null}"/><path d="M226.76779,283.19768c-0.35032,1.26898 -0.60338,0.70648 -3.10024,0.00029c-2.1918,-0.61991 -2.55933,-0.65898 -2.29666,-1.82952c0.2348,-1.04635 1.67306,-0.31641 3.00412,0.09583c1.33106,0.41223 2.59734,0.99241 2.39277,1.73341z" data-paper-data="{&quot;origRot&quot;:0,&quot;origPos&quot;:null}"/></g></g><g data-paper-data="{&quot;origPos&quot;:null}"><path d="M236.18525,270.68397c-0.09612,1.27219 0.21672,2.13857 -2.54707,2.09052c-1.27381,-0.02215 -2.49901,-0.81833 -2.49901,-1.94634c0,-1.12802 1.22886,-2.5202 2.49901,-2.61915c1.85069,-0.14417 2.70084,0.43966 2.54707,2.47498z" data-paper-data="{&quot;origPos&quot;:null}" fill="#ffdebd" stroke="none" stroke-width="0" stroke-linecap="butt"/><path d="M238.00552,265.85222c-0.10917,0.72919 -2.28563,1.65319 -3.99841,1.65319c-1.38016,0 -1.03805,-1.29851 -1.03805,-1.99921c0,-0.7007 2.70475,-0.54786 4.08492,-0.54786c1.38016,0 1.02221,0.42188 0.95155,0.89388z" data-paper-data="{&quot;origPos&quot;:null}" fill="#880010" stroke="none" stroke-width="0" stroke-linecap="butt"/><path d="M223.92645,273.71684c0,0 -0.32685,0.22502 -0.68882,-0.03795c-0.36198,-0.26297 -0.62422,-0.87109 -0.10024,-1.16151c0.62673,-0.34737 0.46415,-1.51572 0.82613,-1.25274c0,0 1.3904,0.1964 1.4977,0.75266c0,0 0.58644,1.60639 0.34613,1.86333c0,0 -0.34252,0.2541 -1.2355,0.2119c-0.48383,-0.02286 -0.6454,-0.37568 -0.6454,-0.37568z" data-paper-data="{&quot;origRot&quot;:0,&quot;origPos&quot;:null}" fill="#5a2c0a" stroke="none" stroke-width="0" stroke-linecap="butt"/><path d="M224.85368,266.29114c0.82928,0.1936 7.15928,-0.4168 8.27303,-0.3549c1.64777,0.09158 1.19223,1.57891 1.30854,3.22513c0.13374,1.89279 1.45382,2.75475 0.79082,4.53266c-0.25562,0.68548 -0.83065,1.04421 -1.40533,1.49695c-0.32601,0.25683 -1.23585,0.50633 -3.30969,0.54898c-2.93149,0.06029 -3.76268,-0.41436 -4.97128,-1.33551c-0.76743,-0.58491 -0.4326,-1.4159 -1.04298,-2.33995c-0.1871,-0.28326 -0.40897,-0.43436 -0.44636,-0.43436c-1.99352,0 -3.08943,-1.64675 -3.08943,-3.20386c0,-1.55711 0.71145,-2.81939 1.8262,-2.81939c1.11475,0 1.77814,0.61694 2.06649,0.68425z" data-paper-data="{&quot;origPos&quot;:null}" fill="#ffdebd" stroke="none" stroke-width="0" stroke-linecap="butt"/><path d="M234.11604,267.29197c0.06773,0.93979 -0.34949,1.73567 -0.9319,1.77764c-0.58241,0.04198 -1.10944,-0.68585 -1.17718,-1.62564c-0.06773,-0.93979 0.34949,-1.73567 0.9319,-1.77764c0.58241,-0.04198 1.10945,0.68585 1.17718,1.62564z" data-paper-data="{&quot;origPos&quot;:null,&quot;origRot&quot;:0}" fill="#ffffff" stroke="none" stroke-width="0" stroke-linecap="butt"/><path d="M226.85481,267.79508c0,0.50143 0.58785,1.23488 0.13689,1.45413c-0.52462,0.25505 -0.79317,-0.09795 -0.79317,-0.09795c0,0 0.11193,0.3029 -0.59048,0.43432c-0.52178,0.09762 -0.70302,-0.99609 -0.70302,-1.84542c0,-0.84933 -0.00321,-1.67207 0.52726,-1.69164c2.23345,-0.08238 1.42251,0.89723 1.42251,1.74656z" data-paper-data="{&quot;origPos&quot;:null}" fill="#5a2c0a" stroke="none" stroke-width="0" stroke-linecap="butt"/><path d="M231.61258,268.25406c0.10975,0.93581 -0.27141,1.74958 -0.85135,1.81759c-0.57994,0.06802 -1.13905,-0.63547 -1.2488,-1.57129c-0.10975,-0.93581 0.27141,-1.74958 0.85135,-1.81759c0.57994,-0.06802 1.13905,0.63547 1.2488,1.57129z" data-paper-data="{&quot;origPos&quot;:null,&quot;origRot&quot;:0}" fill="#ffffff" stroke="none" stroke-width="0" stroke-linecap="butt"/><path d="M231.07568,267.55271c0.183,0 0.34871,0.1336 0.46885,0.34928c0.11995,0.21568 0.19435,0.51364 0.19435,0.84255c0,0.32891 -0.07439,0.62687 -0.19435,0.84255c-0.12014,0.21568 -0.28585,0.34928 -0.46885,0.34928c-0.183,0 -0.34871,-0.1336 -0.46885,-0.34928c-0.11995,-0.21568 -0.19435,-0.51364 -0.19435,-0.84255c0,-0.32891 0.07439,-0.62687 0.19435,-0.84255c0.12014,-0.21568 0.28585,-0.34928 0.46885,-0.34928z" data-paper-data="{&quot;origPos&quot;:null}" fill="#000000" stroke="none" stroke-width="1" stroke-linecap="butt"/><path d="M233.57469,266.67805c0.183,0 0.34871,0.1336 0.46885,0.34928c0.11995,0.21568 0.14898,0.55824 0.19435,0.84255c0.01596,0.10361 0.04479,0.25432 -0.02883,0.34602c-0.09285,0.11092 -0.24625,0.16397 -0.38446,0.21145c-0.24144,0.04998 -0.52825,0.19934 -0.74009,0.07689c-0.1857,-0.11149 -0.17109,-0.41099 -0.17301,-0.63436c-0.0025,-0.28854 0.07439,-0.62687 0.19435,-0.84255c0.12014,-0.21568 0.28585,-0.34928 0.46885,-0.34928z" data-paper-data="{&quot;origPos&quot;:null}" fill="#000000" stroke="none" stroke-width="1" stroke-linecap="round"/><path d="M235.29391,260.65711c0.46068,2.87282 -0.09461,3.0362 -1.63813,3.9559c-2.24904,1.34009 -5.19095,1.0688 -7.59326,2.10944c-0.63078,0.27324 -2.2385,-0.39065 -2.92592,-0.39065c-1.40598,0 -2.1993,-1.00484 -2.2574,-2.20171c-0.12815,-2.64001 1.17181,-2.65025 2.57779,-2.65025c0,0 1.54732,0.25646 2.08179,1.07737c0,0 2.15254,-3.50226 4.42161,-3.93494c2.92094,-0.55697 5.0027,-0.02823 5.33353,2.03483z" data-paper-data="{&quot;origPos&quot;:null}" fill="#ff0021" stroke="none" stroke-width="0" stroke-linecap="butt"/><path d="M234.7376,262.29591c0,1.05105 -0.28127,1.8418 -2.34522,1.90309c-2.17887,0.0647 -2.34522,-0.85204 -2.34522,-1.90309c0,-1.05105 1.04999,-1.90309 2.34522,-1.90309c1.29523,0 2.34522,0.85204 2.34522,1.90309z" data-paper-data="{&quot;origPos&quot;:null}" fill="#ffffff" stroke="none" stroke-width="0" stroke-linecap="butt"/><path d="M230.77763,263.39592l0.92806,-2.46483l0.84656,1.14154l0.52355,-1.02066l1.02513,1.9381l-0.70332,0.42481l-0.29178,-1.4688l-0.52186,0.89746l-0.68663,-0.90168l-0.29408,1.45406z" data-paper-data="{&quot;origPos&quot;:null}" fill="#ff0021" stroke="none" stroke-width="0" stroke-linecap="butt"/><path d="M238.08241,265.44854c-0.03845,0.16503 -7.56293,1.2495 -9.66924,1.48018c-1.02369,0.11211 -3.09493,0.03046 -3.05648,-0.13456c0.14212,-0.61005 0.53919,-1.58494 1.51863,-1.90309c1.1836,-0.38446 5.24698,-1.41868 8.28558,-1.37223c1.24217,0.01899 3.06363,1.31965 2.92151,1.9297z" data-paper-data="{&quot;origPos&quot;:null}" fill="#bc041a" stroke="none" stroke-width="0" stroke-linecap="butt"/><path d="M235.10395,273.75971c-0.07134,0.48987 -0.44138,0.73548 -0.71928,0.81083c-0.84814,0.22999 -2.08353,0.19649 -2.92493,-0.05708c-0.48357,-0.14573 -0.49216,-0.45857 -0.53885,-0.5023c-0.04933,-0.0462 -0.57088,0.30121 -1.19943,0.30121c-1.00858,0 -1.70605,-0.71074 -1.70605,-1.70605c0,-1.09143 0.09472,-1.69792 0.25888,-1.72932c0.95612,-0.18289 1.24099,0.65982 1.97581,1.05651c0,0 2.45708,0.80882 3.60497,0.74344c0,0 1.85288,-0.86716 2.4272,-0.82914c0.28483,0.01886 0.2867,0.61574 0.19684,0.91721c0,0 0.02924,0.8234 -0.36933,1.04229c-0.94242,0.51756 -0.98518,-0.18937 -1.00583,-0.0476z" data-paper-data="{&quot;origPos&quot;:null}" fill="#38291e" stroke="none" stroke-width="0" stroke-linecap="butt"/><g data-paper-data="{&quot;origPos&quot;:null}" fill="none" stroke="#f6b09a" stroke-width="0.75" stroke-linecap="round"><path d="M222.18629,267.59736c0,0 0.56964,-0.33255 1.29852,0.23058c1.04533,0.80762 0.43156,2.18605 0.43156,2.18605" data-paper-data="{&quot;origPos&quot;:null}"/><path d="M223.86145,268.88804h-1.15339" data-paper-data="{&quot;origPos&quot;:null}"/><path d="M223.7516,270.04141h-0.24715" data-paper-data="{&quot;origPos&quot;:null}"/></g><path d="M229.76133,266.20734c-0.26446,0.07887 -0.25194,0.11623 -0.38032,0.36053c-0.13244,0.25203 -0.41264,0.5766 -0.41264,0.5766c0,0 -0.28034,-0.69724 -0.28034,-1.2148c0,-0.35142 0.19096,-0.96393 0.73261,-1.08677c1.83218,-0.06169 1.2868,1.66298 1.2868,1.66298c0,0 -0.66845,-0.38892 -0.94611,-0.29854z" data-paper-data="{&quot;origPos&quot;:null}" fill="#38291e" stroke="none" stroke-width="0" stroke-linecap="butt"/><path d="M233.07939,265.66794c-0.2915,0.01714 -0.772,0.62311 -0.772,0.62311c0,0 -1.13696,-1.40685 0.59146,-2.0178c0.54914,-0.08322 0.95038,0.41742 1.07858,0.74462c0.18881,0.48189 0.18214,1.23335 0.18214,1.23335c0,0 -0.3793,-0.19999 -0.59455,-0.38633c-0.20865,-0.18063 -0.21062,-0.21999 -0.48563,-0.19694z" data-paper-data="{&quot;origPos&quot;:null,&quot;index&quot;:null,&quot;origRot&quot;:0}" fill="#38291e" stroke="none" stroke-width="0" stroke-linecap="butt"/></g></g></g></g></svg>