<svg version="1.1" xmlns="http://www.w3.org/2000/svg" xmlns:xlink="http://www.w3.org/1999/xlink" width="505.31268" height="204" viewBox="0,0,505.31268,204"><g transform="translate(12.65633,-156)"><g data-paper-data="{&quot;isPaintingLayer&quot;:true}" fill-rule="nonzero" stroke-width="2" stroke-linecap="butt" stroke-linejoin="miter" stroke-miterlimit="10" stroke-dasharray="" stroke-dashoffset="0" style="mix-blend-mode: normal"><path d="M102.5168,165.10288l7.13857,10.86466l-66.85947,43.92963l-7.13857,-10.86466z" data-paper-data="{&quot;index&quot;:null}" fill="#e70000" stroke="#660000"/><path d="M42.65537,210.03249l-7.13857,10.86466l-41.63162,-27.35382c-0.84829,-5.74306 -1.69906,-11.48579 -2.54751,-17.22884z" data-paper-data="{&quot;index&quot;:null}" fill="#e70000" stroke="#660000"/><path d="M114.65635,211.00002v23h-114.72945c-0.85252,-7.52293 -2.23857,-14.48822 -2.78673,-18.26434c-0.22917,-1.57864 -0.45898,-3.15719 -0.68936,-4.73566z" data-paper-data="{&quot;index&quot;:null}" fill="#e70000" stroke="#660000"/><path d="M114.65635,157v23h-122.77393c-1.13356,-7.66582 -2.26484,-15.33196 -3.38244,-23z" data-paper-data="{&quot;index&quot;:null}" fill="#e70000" stroke="#660000"/><path d="M407.7959,345.89714l-7.13857,-10.86466l66.85947,-43.92963l7.13857,10.86466z" data-paper-data="{&quot;index&quot;:null}" fill="#001ee8" stroke="#001f66"/><path d="M329.65732,305.96751l7.13856,-10.86466l66.85947,43.92963l-7.13856,10.86466z" data-paper-data="{&quot;index&quot;:null}" fill="#001ee8" stroke="#001f66"/><path d="M269.7959,348.89714l-7.13856,-10.86466l66.85947,-43.92963l7.13856,10.86466z" data-paper-data="{&quot;index&quot;:null}" fill="#001ee8" stroke="#001f66"/><path d="M201.65733,305.96751l7.13856,-10.86466l66.85947,43.92963l-7.13856,10.86466z" data-paper-data="{&quot;index&quot;:null}" fill="#001ee8" stroke="#001f66"/><path d="M12.79589,350.89714l-7.13857,-10.86466l66.85947,-43.92963l7.13857,10.86466z" fill="#001ee8" stroke="#001f66"/><path d="M72.65733,305.96751l7.13857,-10.86466l66.85947,43.92963l-7.13857,10.86466z" data-paper-data="{&quot;index&quot;:null}" fill="#001ee8" stroke="#001f66"/><path d="M140.7959,350.89714l-7.13857,-10.86466l66.85947,-43.92963l7.13856,10.86466z" data-paper-data="{&quot;index&quot;:null}" fill="#001ee8" stroke="#001f66"/><path d="M0.65635,305v-23h490v23z" fill="#001ee8" stroke="#001f66"/><path d="M0.65635,359v-23h491v23z" fill="#001ee8" stroke="#001f66"/></g></g></svg>