<svg version="1.1" xmlns="http://www.w3.org/2000/svg" xmlns:xlink="http://www.w3.org/1999/xlink" width="437" height="90.79587" viewBox="0,0,437,90.79587"><defs><linearGradient x1="240" y1="135.60206" x2="240" y2="224.39795" gradientUnits="userSpaceOnUse" id="color-1"><stop offset="0" stop-color="#ffffff"/><stop offset="1" stop-color="#d8d8d8"/></linearGradient><linearGradient x1="240" y1="135.60208" x2="240" y2="224.39795" gradientUnits="userSpaceOnUse" id="color-2"><stop offset="0" stop-color="#343434"/><stop offset="1" stop-color="#090909"/></linearGradient><radialGradient cx="443.8065" cy="206.54466" r="17.9081" gradientUnits="userSpaceOnUse" id="color-3"><stop offset="0" stop-color="#ffffff"/><stop offset="1" stop-color="#e5e5e5"/></radialGradient></defs><g transform="translate(-21.5,-134.60208)"><g data-paper-data="{&quot;isPaintingLayer&quot;:true}" fill-rule="nonzero" stroke-linejoin="miter" stroke-miterlimit="10" stroke-dasharray="" stroke-dashoffset="0" style="mix-blend-mode: normal"><path d="M22.5,224.39795v-88.79587h435v88.79587z" data-paper-data="{&quot;origPos&quot;:null}" fill="url(#color-1)" stroke="url(#color-2)" stroke-width="2" stroke-linecap="butt"/><g data-paper-data="{&quot;origPos&quot;:null}"><path d="M444.3058,202.09868c2.5136,0 4.7909,1.0212 6.4406,2.6702c1.6489,1.6496 2.6702,3.9269 2.6702,6.4405c0,2.5136 -1.0213,4.791 -2.6702,6.4406c-1.6497,1.649 -3.927,2.6702 -6.4406,2.6702c-2.5136,0 -4.7909,-1.0212 -6.4406,-2.6702c-1.6489,-1.6496 -2.6701,-3.927 -2.6701,-6.4406c0,-2.5136 1.0212,-4.7909 2.6701,-6.4405c1.6497,-1.649 3.927,-2.6702 6.4406,-2.6702z" fill="url(#color-3)" stroke="#000000" stroke-width="2.0785" stroke-linecap="butt"/><path d="M441.2734,206.54886l5.6119,0.4503l1.7321,3.187l-3.6374,2.9446l3.3603,-0.5197l0.7967,3.4642l-7.4479,-0.0693l-1.9053,-2.4249l4.6766,-3.3256l-4.5727,-0.3464z" fill="#000000" stroke="none" stroke-width="0.69283" stroke-linecap="round"/></g><g data-paper-data="{&quot;origPos&quot;:null}" stroke="none" stroke-width="1" stroke-linecap="butt"><path d="M39.452,170.45608c2.631,0.316 4.001,0.513 4.11,0.592v0.064l-0.474,10.965l-0.127,0.054c-0.632,0 -1.683,0.061 -3.154,0.183c-0.079,-0.237 -0.118,-0.754 -0.118,-1.55v-1.312l-0.064,-0.356c0,-0.042 0.021,-0.064 0.064,-0.064l-0.064,-0.41v-1.075c-1.063,0 -2.115,0.039 -3.154,0.118l0.237,4.056c-0.31,0.079 -1.382,0.277 -3.217,0.593c-0.091,0 -0.389,-2.264 -0.893,-6.791c-0.043,-0.103 -0.262,-1.753 -0.657,-4.949c1.842,0.043 3.194,0.064 4.056,0.064c0.091,0 0.189,1.428 0.292,4.284h3.281v-0.593c0,-0.146 -0.021,-0.325 -0.064,-0.538c0,-0.036 0.022,-0.054 0.064,-0.054l-0.064,-0.301v-1.367c0,-0.34 -0.018,-0.878 -0.054,-1.613z" data-paper-data="{&quot;origPos&quot;:null}" fill="#000000"/><path d="M49.651,173.21708c2.753,1.416 4.278,2.242 4.576,2.479c-0.395,1.848 -0.629,2.799 -0.702,2.853h-5.761v0.101l1.614,1.996l2.533,-1.295c0.25,0.432 0.608,1.185 1.076,2.261c-0.219,0.073 -1.814,0.307 -4.785,0.702c-2.461,-1.623 -3.701,-2.467 -3.719,-2.534c0.395,-3.154 0.629,-4.731 0.702,-4.731c2.57,-1.093 4.059,-1.704 4.466,-1.832zM49.059,175.42306c-0.049,0.122 -0.371,0.605 -0.967,1.449c0,0.255 0.359,0.383 1.076,0.383c0,0.036 0.519,0.125 1.559,0.264c0.285,-0.395 0.428,-0.626 0.428,-0.692c-0.091,-0.541 -0.289,-0.812 -0.593,-0.812z" data-paper-data="{&quot;origPos&quot;:null}" fill="#000000"/><path d="M59.249,173.22606c0.085,0.013 0.127,0.055 0.127,0.128l-0.948,5.25c1.811,-0.213 2.716,-0.383 2.716,-0.51c0.341,-2.103 0.575,-3.282 0.702,-3.537c2.242,0.462 3.485,0.735 3.728,0.82c-1.306,4.491 -2.023,6.83 -2.151,7.019c-2.285,1.604 -3.57,2.491 -3.855,2.661c-0.085,0 -1.541,-0.358 -4.366,-1.075v-0.064c0.747,-1.647 1.212,-2.47 1.394,-2.47l2.78,1.394l1.331,-2.278c-1.197,0.297 -1.893,0.446 -2.087,0.446l-3.546,-1.841c0.432,-3.962 0.705,-5.943 0.82,-5.943z" data-paper-data="{&quot;origPos&quot;:null}" fill="#000000"/><path d="M73.823,170.45608l4.01,0.71l-0.383,3.045c0.796,-0.043 1.38,-0.064 1.75,-0.064h0.584l0.127,-0.064l0.064,0.128c-0.127,1.847 -0.237,2.886 -0.328,3.117l-0.128,-0.073c-0.091,0 -0.911,-0.043 -2.46,-0.128c-0.086,1.428 -0.149,3.136 -0.192,5.123l-0.127,0.064c-1.957,-0.128 -3.124,-0.237 -3.5,-0.329l0.063,-0.255c0,-0.528 0.085,-2.169 0.256,-4.922c-1.641,-0.091 -2.461,-0.2 -2.461,-0.328c0.085,-2.029 0.194,-3.044 0.328,-3.044l2.397,0.456v-0.784c0,-0.638 -0.024,-1.501 -0.073,-2.589c0.049,0 0.073,-0.021 0.073,-0.063z" data-paper-data="{&quot;origPos&quot;:null}" fill="#000000"/><path d="M85.025,170.45608c0.036,0.054 0.206,1.719 0.51,4.994c2.346,-0.717 3.594,-1.075 3.746,-1.075l2.324,1.586c-0.376,3.463 -0.622,5.487 -0.738,6.07l-3.226,0.109c0,-0.036 -0.022,-0.054 -0.064,-0.054l0.064,-0.228c0,-0.492 0.072,-1.987 0.218,-4.484c-0.887,-0.037 -1.546,-0.055 -1.978,-0.055h-0.227c0.261,2.777 0.392,4.29 0.392,4.539l-3.063,0.456c-0.115,-0.389 -0.796,-4.02 -2.042,-10.892c0,-0.195 0.474,-0.347 1.422,-0.456c1.197,-0.34 2.084,-0.51 2.662,-0.51z" data-paper-data="{&quot;origPos&quot;:null}" fill="#000000"/><path d="M97.63,173.21708c2.753,1.416 4.278,2.242 4.576,2.479c-0.395,1.848 -0.629,2.799 -0.702,2.853h-5.761v0.101l1.614,1.996l2.534,-1.295c0.249,0.432 0.607,1.185 1.075,2.261c-0.219,0.073 -1.814,0.307 -4.785,0.702c-2.461,-1.623 -3.701,-2.467 -3.719,-2.534c0.395,-3.154 0.629,-4.731 0.702,-4.731c2.57,-1.093 4.059,-1.704 4.466,-1.832zM97.038,175.42306c-0.049,0.122 -0.371,0.605 -0.966,1.449c0,0.255 0.358,0.383 1.075,0.383c0,0.036 0.52,0.125 1.559,0.264c0.285,-0.395 0.428,-0.626 0.428,-0.692c-0.091,-0.541 -0.289,-0.812 -0.592,-0.812z" data-paper-data="{&quot;origPos&quot;:null}" fill="#000000"/><path d="M109.579,173.20806c1.204,0.675 1.942,1.112 2.215,1.313c-0.984,2.047 -1.513,3.089 -1.586,3.126h-0.064l-1.303,-1.139l-1.54,1.877l0.173,3.418c-0.079,0.073 -1.085,0.243 -3.017,0.511c-0.073,-0.523 -0.547,-3.084 -1.422,-7.684c0,-0.073 1.27,-0.261 3.81,-0.565c0.043,0.049 0.158,0.617 0.346,1.704c1.519,-1.707 2.315,-2.561 2.388,-2.561z" data-paper-data="{&quot;origPos&quot;:null}" fill="#000000"/><path d="M117.682,173.21708c2.753,1.416 4.278,2.242 4.576,2.479c-0.395,1.848 -0.629,2.799 -0.702,2.853h-5.76v0.101l1.613,1.996l2.534,-1.295c0.249,0.432 0.607,1.185 1.075,2.261c-0.219,0.073 -1.814,0.307 -4.785,0.702c-2.461,-1.623 -3.7,-2.467 -3.719,-2.534c0.395,-3.154 0.629,-4.731 0.702,-4.731c2.57,-1.093 4.059,-1.704 4.466,-1.832zM117.09,175.42306c-0.049,0.122 -0.371,0.605 -0.966,1.449c0,0.255 0.358,0.383 1.075,0.383c0,0.036 0.52,0.125 1.559,0.264c0.285,-0.395 0.428,-0.626 0.428,-0.692c-0.091,-0.541 -0.288,-0.812 -0.592,-0.812z" data-paper-data="{&quot;origPos&quot;:null}" fill="#000000"/><path d="M124.354,180.34506c1.653,0.194 2.482,0.304 2.488,0.328c-1.002,2.358 -1.564,3.597 -1.686,3.719c-0.826,-0.104 -1.239,-0.189 -1.239,-0.255c0.218,-2.528 0.352,-3.792 0.401,-3.792z" data-paper-data="{&quot;origPos&quot;:null}" fill="#000000"/><path d="M137.042,170.45608l0.063,0.118c0,0.346 0.079,1.686 0.237,4.02c2.176,-0.693 3.394,-1.058 3.655,-1.094l3.282,3.527c-1.38,3.093 -2.13,4.734 -2.252,4.922c-0.383,-0.043 -1.78,-0.103 -4.192,-0.182v0.428c0,0.079 -0.043,0.119 -0.128,0.119h-3.527c-0.128,0 -0.371,-1.823 -0.73,-5.469c-0.079,-0.31 -0.3,-2.136 -0.665,-5.478c2.066,-0.486 3.485,-0.79 4.257,-0.911zM137.652,177.14608l0.237,2.251h1.832l0.666,-2.552c-1.823,0.158 -2.735,0.258 -2.735,0.301z" data-paper-data="{&quot;origPos&quot;:null}" fill="#000000"/><path d="M151.762,173.20806c1.203,0.675 1.941,1.112 2.215,1.313c-0.985,2.047 -1.514,3.089 -1.586,3.126h-0.064l-1.304,-1.139l-1.54,1.877l0.173,3.418c-0.079,0.073 -1.084,0.243 -3.017,0.511c-0.073,-0.523 -0.547,-3.084 -1.422,-7.684c0,-0.073 1.27,-0.261 3.81,-0.565c0.043,0.049 0.158,0.617 0.347,1.704c1.519,-1.707 2.315,-2.561 2.388,-2.561z" data-paper-data="{&quot;origPos&quot;:null}" fill="#000000"/><path d="M158.37,173.21708c2.309,0.62 3.533,0.997 3.673,1.13c1.27,1.799 1.984,2.835 2.142,3.109c-0.82,2.6 -1.291,3.901 -1.413,3.901c-2.734,0.638 -4.165,0.957 -4.293,0.957c-2.26,-1.319 -3.463,-2.054 -3.609,-2.206c-0.079,-2.455 -0.119,-3.81 -0.119,-4.065c-0.036,-0.073 -0.054,-0.128 -0.054,-0.164c2.333,-1.775 3.539,-2.662 3.618,-2.662zM158.142,176.55306c-0.037,0.243 -0.091,1.127 -0.164,2.653l2.032,0.455c0.486,-1.519 0.73,-2.33 0.73,-2.433c-1.617,-0.486 -2.483,-0.729 -2.598,-0.729z" data-paper-data="{&quot;origPos&quot;:null}" fill="#000000"/><path d="M169.025,170.79308l0.036,0.073c-0.607,5.365 -0.948,8.185 -1.021,8.458c-1.288,-0.121 -2.102,-0.207 -2.442,-0.255v-0.037l-0.584,-7.619c0.146,-0.049 1.483,-0.256 4.011,-0.62zM165.415,179.50606c0.043,0.025 0.991,0.098 2.844,0.219l0.037,0.073c-0.286,1.677 -0.468,2.516 -0.547,2.516h-2.115c-0.073,0 -0.17,-0.839 -0.292,-2.516c-0.024,0 -0.036,-0.073 -0.036,-0.219c0.073,-0.024 0.109,-0.048 0.109,-0.073z" data-paper-data="{&quot;origPos&quot;:null}" fill="#000000"/><path d="M182.004,170.45608c2.631,0.316 4.001,0.513 4.111,0.592v0.064l-0.474,10.965l-0.128,0.054c-0.632,0 -1.683,0.061 -3.154,0.183c-0.079,-0.237 -0.118,-0.754 -0.118,-1.55v-1.312l-0.064,-0.356c0,-0.042 0.021,-0.064 0.064,-0.064l-0.064,-0.41v-1.075c-1.063,0 -2.115,0.039 -3.154,0.118l0.237,4.056c-0.31,0.079 -1.382,0.277 -3.217,0.593c-0.091,0 -0.389,-2.264 -0.893,-6.791c-0.043,-0.103 -0.262,-1.753 -0.657,-4.949c1.842,0.043 3.194,0.064 4.056,0.064c0.092,0 0.189,1.428 0.292,4.284h3.281v-0.593c0,-0.146 -0.021,-0.325 -0.063,-0.538c0,-0.036 0.021,-0.054 0.063,-0.054l-0.063,-0.301v-1.367c0,-0.34 -0.019,-0.878 -0.055,-1.613z" data-paper-data="{&quot;origPos&quot;:null}" fill="#000000"/><path d="M188.421,173.20806c3.609,0.498 5.414,0.805 5.414,0.921c1.421,1.221 2.132,1.874 2.132,1.959c-0.577,1.805 -0.905,2.902 -0.984,3.291c0.577,1.282 0.905,2.047 0.984,2.297c0,0.073 -0.941,0.267 -2.825,0.583c-0.024,-0.103 -0.198,-0.334 -0.52,-0.693c-2.6,0.498 -4.001,0.748 -4.201,0.748l-1.386,-3.746l3.054,-1.614c0.492,0.079 1.26,0.119 2.305,0.119c0,-0.134 0.019,-0.538 0.055,-1.213c-0.176,0 -1.75,0.116 -4.721,0.347l-0.055,-0.119c0.413,-1.92 0.662,-2.88 0.748,-2.88zM190.316,178.56808c0,0.066 0.195,0.777 0.584,2.132h0.054c0.766,-0.498 1.149,-0.826 1.149,-0.984l0.118,-0.975c-0.146,0 -0.78,-0.058 -1.905,-0.173z" data-paper-data="{&quot;origPos&quot;:null}" fill="#000000"/><path d="M201.418,173.21708c0.188,0.778 0.319,1.258 0.392,1.44c2.686,-0.613 4.104,-0.92 4.256,-0.92c1.829,2.631 2.744,4.004 2.744,4.12l-2.097,4.448l-4.511,-0.721v0.137c0.352,2.704 0.528,4.141 0.528,4.311c-0.042,0 -0.063,0.022 -0.063,0.064c-0.438,-0.042 -0.766,-0.064 -0.985,-0.064h-0.784c-0.455,0 -1.154,-0.021 -2.096,-0.063c-0.085,-0.256 -0.738,-4.135 -1.96,-11.64c0.207,-0.085 1.732,-0.455 4.576,-1.112zM201.746,176.94507c0.122,1.398 0.231,2.096 0.328,2.096c1.246,0.432 2.008,0.648 2.288,0.648l0.72,-3.136h-0.064c-0.711,0.043 -1.801,0.173 -3.272,0.392z" data-paper-data="{&quot;origPos&quot;:null}" fill="#000000"/><path d="M214.324,173.21708c0.189,0.778 0.319,1.258 0.392,1.44c2.686,-0.613 4.105,-0.92 4.257,-0.92c1.829,2.631 2.743,4.004 2.743,4.12l-2.096,4.448l-4.512,-0.721v0.137c0.352,2.704 0.529,4.141 0.529,4.311c-0.043,0 -0.064,0.022 -0.064,0.064c-0.438,-0.042 -0.766,-0.064 -0.985,-0.064h-0.783c-0.456,0 -1.155,-0.021 -2.097,-0.063c-0.085,-0.256 -0.738,-4.135 -1.959,-11.64c0.206,-0.085 1.731,-0.455 4.575,-1.112zM214.652,176.94507c0.122,1.398 0.231,2.096 0.328,2.096c1.246,0.432 2.009,0.648 2.288,0.648l0.72,-3.136h-0.064c-0.711,0.043 -1.801,0.173 -3.272,0.392z" data-paper-data="{&quot;origPos&quot;:null}" fill="#000000"/><path d="M226.848,173.22606c0.085,0.013 0.127,0.055 0.127,0.128l-0.948,5.25c1.811,-0.213 2.716,-0.383 2.716,-0.51c0.341,-2.103 0.575,-3.282 0.702,-3.537c2.242,0.462 3.485,0.735 3.728,0.82c-1.306,4.491 -2.023,6.83 -2.151,7.019c-2.285,1.604 -3.57,2.491 -3.855,2.661c-0.085,0 -1.541,-0.358 -4.366,-1.075v-0.064c0.747,-1.647 1.212,-2.47 1.394,-2.47l2.78,1.394l1.331,-2.278c-1.197,0.297 -1.893,0.446 -2.087,0.446l-3.546,-1.841c0.432,-3.962 0.705,-5.943 0.82,-5.943z" data-paper-data="{&quot;origPos&quot;:null}" fill="#000000"/><path d="M242.762,170.44606c1.719,0.122 2.579,0.231 2.579,0.329c0.662,1.78 1.066,2.916 1.212,3.408h0.055c0.158,-0.34 0.763,-1.276 1.814,-2.807h0.055c1.646,0.103 2.47,0.216 2.47,0.337l1.485,10.163c0,0.061 -1.3,0.207 -3.901,0.438l-0.054,-0.11c-0.146,-3.087 -0.219,-4.973 -0.219,-5.66h-0.055l-2.251,1.978h-0.055c-0.073,-0.037 -0.586,-0.842 -1.54,-2.415h-0.055c-1.173,3.415 -1.814,5.228 -1.923,5.441h-0.11c-2.096,-0.948 -3.287,-1.516 -3.572,-1.704v-0.055c2.6,-6.113 3.955,-9.227 4.065,-9.343z" data-paper-data="{&quot;origPos&quot;:null}" fill="#2b70c2"/><path d="M258.202,173.20806l0.064,0.119l-1.231,6.526h0.064l3.135,-0.921v-3.691c0.012,-0.085 0.052,-0.128 0.119,-0.128c2.357,0.164 3.67,0.246 3.937,0.246c0,0.043 0.022,0.064 0.064,0.064c0,1.039 -0.328,3.193 -0.984,6.462c0,0.189 -0.942,0.331 -2.826,0.429c-0.097,-0.116 -0.179,-0.362 -0.246,-0.739c-2.412,0.493 -3.789,0.739 -4.129,0.739c-1.926,-1.434 -2.889,-2.173 -2.889,-2.215c0.328,-4.308 0.535,-6.544 0.62,-6.709h0.054c1.538,-0.042 2.954,-0.103 4.248,-0.182z" data-paper-data="{&quot;origPos&quot;:null}" fill="#2b70c2"/><path d="M272.63,173.20806c1.75,1.118 2.716,1.762 2.899,1.932c-0.632,1.404 -0.994,2.106 -1.085,2.106l-3.318,-1.923h-0.118c0,0.06 -0.143,0.401 -0.429,1.021c3.057,1.646 4.585,2.491 4.585,2.533c-0.857,1.981 -1.34,3.026 -1.449,3.136l-5.186,0.301c-2.018,-1.337 -3.102,-2.042 -3.254,-2.115v-0.055c0,-0.152 0.3,-0.835 0.902,-2.05l4.047,2.105l0.301,-1.203c-2.504,-1.124 -3.993,-1.826 -4.466,-2.106v-0.127c0,-0.231 0.483,-1.255 1.449,-3.072z" data-paper-data="{&quot;origPos&quot;:null}" fill="#2b70c2"/><path d="M280.514,170.45608c0.037,0.054 0.207,1.719 0.511,4.994c2.345,-0.717 3.594,-1.075 3.746,-1.075l2.324,1.586c-0.377,3.463 -0.623,5.487 -0.738,6.07l-3.227,0.109c0,-0.036 -0.021,-0.054 -0.064,-0.054l0.064,-0.228c0,-0.492 0.073,-1.987 0.219,-4.484c-0.887,-0.037 -1.547,-0.055 -1.978,-0.055h-0.228c0.261,2.777 0.392,4.29 0.392,4.539l-3.062,0.456c-0.116,-0.389 -0.796,-4.02 -2.042,-10.892c0,-0.195 0.474,-0.347 1.422,-0.456c1.197,-0.34 2.084,-0.51 2.661,-0.51z" data-paper-data="{&quot;origPos&quot;:null}" fill="#2b70c2"/><path d="M294.496,173.20806c1.203,0.675 1.941,1.112 2.215,1.313c-0.984,2.047 -1.513,3.089 -1.586,3.126h-0.064l-1.303,-1.139l-1.541,1.877l0.174,3.418c-0.079,0.073 -1.085,0.243 -3.017,0.511c-0.073,-0.523 -0.547,-3.084 -1.422,-7.684c0,-0.073 1.27,-0.261 3.81,-0.565c0.042,0.049 0.158,0.617 0.346,1.704c1.519,-1.707 2.315,-2.561 2.388,-2.561z" data-paper-data="{&quot;origPos&quot;:null}" fill="#2b70c2"/><path d="M301.104,173.21708c2.309,0.62 3.534,0.997 3.673,1.13c1.27,1.799 1.984,2.835 2.142,3.109c-0.82,2.6 -1.291,3.901 -1.413,3.901c-2.734,0.638 -4.165,0.957 -4.293,0.957c-2.26,-1.319 -3.463,-2.054 -3.609,-2.206c-0.079,-2.455 -0.118,-3.81 -0.118,-4.065c-0.037,-0.073 -0.055,-0.128 -0.055,-0.164c2.333,-1.775 3.539,-2.662 3.618,-2.662zM300.876,176.55306c-0.036,0.243 -0.091,1.127 -0.164,2.653l2.033,0.455c0.486,-1.519 0.729,-2.33 0.729,-2.433c-1.616,-0.486 -2.482,-0.729 -2.598,-0.729z" data-paper-data="{&quot;origPos&quot;:null}" fill="#2b70c2"/><path d="M311.422,173.21708c2.309,0.62 3.533,0.997 3.673,1.13c1.27,1.799 1.984,2.835 2.142,3.109c-0.82,2.6 -1.291,3.901 -1.413,3.901c-2.734,0.638 -4.165,0.957 -4.293,0.957c-2.26,-1.319 -3.463,-2.054 -3.609,-2.206c-0.079,-2.455 -0.119,-3.81 -0.119,-4.065c-0.036,-0.073 -0.054,-0.128 -0.054,-0.164c2.333,-1.775 3.539,-2.662 3.618,-2.662zM311.194,176.55306c-0.037,0.243 -0.091,1.127 -0.164,2.653l2.032,0.455c0.487,-1.519 0.73,-2.33 0.73,-2.433c-1.617,-0.486 -2.483,-0.729 -2.598,-0.729z" data-paper-data="{&quot;origPos&quot;:null}" fill="#2b70c2"/><path d="M328.193,173.20806c1.482,0.614 2.761,1.191 3.837,1.732c-0.28,3.615 -0.459,5.593 -0.538,5.934c-1.786,0.443 -2.786,0.665 -2.999,0.665c0,-0.79 -0.06,-2.349 -0.182,-4.676c-0.674,0.067 -1.012,0.125 -1.012,0.173c0,0.231 0.04,1.55 0.119,3.956c0.036,0 0.055,0.021 0.055,0.064c0,0.073 -0.939,0.273 -2.817,0.601c-0.079,-0.097 -0.319,-1.576 -0.72,-4.438c-0.759,0.194 -1.139,0.334 -1.139,0.419l0.364,3.719c-0.072,0.079 -1.072,0.398 -2.998,0.957c-1.118,-3.956 -1.817,-6.611 -2.097,-7.967c2.109,-0.522 3.288,-0.783 3.537,-0.783c0.279,1.106 0.419,1.744 0.419,1.914h0.064c1.027,-0.948 1.744,-1.586 2.151,-1.914h0.064l1.914,1.376h0.064c1.197,-1.155 1.835,-1.732 1.914,-1.732z" data-paper-data="{&quot;origPos&quot;:null}" fill="#2b70c2"/><path d="M346.878,170.43708c0.036,0.079 0.054,0.137 0.054,0.173c-0.036,1.811 -0.054,2.859 -0.054,3.145l-0.119,0.055c-2.789,0.073 -4.387,0.109 -4.794,0.109l-0.055,0.119c0.037,0.674 0.055,1.227 0.055,1.658v0.283h0.054l3.71,-0.456l0.064,0.11v2.798c0,0.079 -0.04,0.118 -0.119,0.118l-3.481,-0.401v0.337c0,0.766 0.021,1.908 0.063,3.428c-0.34,0.079 -1.37,0.212 -3.089,0.401c-0.11,-0.213 -0.641,-3.734 -1.595,-10.564h0.054z" data-paper-data="{&quot;origPos&quot;:null}" fill="#2b70c2"/><path d="M353.094,173.21708c2.752,1.416 4.277,2.242 4.575,2.479c-0.395,1.848 -0.629,2.799 -0.702,2.853h-5.76v0.101l1.613,1.996l2.534,-1.295c0.249,0.432 0.608,1.185 1.076,2.261c-0.219,0.073 -1.814,0.307 -4.786,0.702c-2.46,-1.623 -3.7,-2.467 -3.718,-2.534c0.395,-3.154 0.629,-4.731 0.702,-4.731c2.57,-1.093 4.059,-1.704 4.466,-1.832zM352.501,175.42306c-0.048,0.122 -0.37,0.605 -0.966,1.449c0,0.255 0.359,0.383 1.076,0.383c0,0.036 0.519,0.125 1.558,0.264c0.286,-0.395 0.429,-0.626 0.429,-0.692c-0.092,-0.541 -0.289,-0.812 -0.593,-0.812z" data-paper-data="{&quot;origPos&quot;:null}" fill="#2b70c2"/><path d="M365.854,173.20806c1.75,1.118 2.716,1.762 2.899,1.932c-0.632,1.404 -0.994,2.106 -1.085,2.106l-3.318,-1.923h-0.118c0,0.06 -0.143,0.401 -0.429,1.021c3.057,1.646 4.585,2.491 4.585,2.533c-0.857,1.981 -1.34,3.026 -1.449,3.136l-5.186,0.301c-2.018,-1.337 -3.102,-2.042 -3.254,-2.115v-0.055c0,-0.152 0.3,-0.835 0.902,-2.05l4.047,2.105l0.301,-1.203c-2.504,-1.124 -3.993,-1.826 -4.466,-2.106v-0.127c0,-0.231 0.483,-1.255 1.449,-3.072z" data-paper-data="{&quot;origPos&quot;:null}" fill="#2b70c2"/><path d="M372.38,170.45608l4.011,0.71l-0.383,3.045c0.796,-0.043 1.379,-0.064 1.75,-0.064h0.583l0.128,-0.064l0.063,0.128c-0.127,1.847 -0.236,2.886 -0.328,3.117l-0.127,-0.073c-0.091,0 -0.912,-0.043 -2.461,-0.128c-0.085,1.428 -0.149,3.136 -0.192,5.123l-0.127,0.064c-1.957,-0.128 -3.123,-0.237 -3.5,-0.329l0.064,-0.255c0,-0.528 0.085,-2.169 0.255,-4.922c-1.641,-0.091 -2.461,-0.2 -2.461,-0.328c0.085,-2.029 0.194,-3.044 0.328,-3.044l2.397,0.456v-0.784c0,-0.638 -0.024,-1.501 -0.073,-2.589c0.049,0 0.073,-0.021 0.073,-0.063z" data-paper-data="{&quot;origPos&quot;:null}" fill="#2b70c2"/><path d="M380.756,169.55306l3.582,0.565c-0.449,1.72 -0.744,2.58 -0.884,2.58c-1.883,-0.128 -2.825,-0.252 -2.825,-0.374v-2.643c0.018,-0.085 0.061,-0.128 0.127,-0.128zM379.754,173.89206h0.055c2.77,0.504 4.156,0.799 4.156,0.884c-0.796,4.509 -1.279,7.021 -1.449,7.538h-2.89c-0.085,0 -0.127,-0.043 -0.127,-0.128z" data-paper-data="{&quot;origPos&quot;:null}" fill="#2b70c2"/><path d="M388.185,173.20806c1.489,3.415 2.282,5.186 2.379,5.314c0.735,-2.789 1.163,-4.275 1.285,-4.457c2.321,0.213 3.482,0.395 3.482,0.547v0.064c-1.629,4.472 -2.504,6.814 -2.625,7.027c-1.799,0.328 -3.002,0.532 -3.61,0.611l-4.457,-6.599v-0.128c0.043,-0.079 1.225,-0.872 3.546,-2.379z" data-paper-data="{&quot;origPos&quot;:null}" fill="#2b70c2"/><path d="M397.691,173.20806c3.61,0.498 5.414,0.805 5.414,0.921c1.422,1.221 2.133,1.874 2.133,1.959c-0.577,1.805 -0.905,2.902 -0.984,3.291c0.577,1.282 0.905,2.047 0.984,2.297c0,0.073 -0.942,0.267 -2.825,0.583c-0.025,-0.103 -0.198,-0.334 -0.52,-0.693c-2.601,0.498 -4.001,0.748 -4.202,0.748l-1.385,-3.746l3.053,-1.614c0.492,0.079 1.261,0.119 2.306,0.119c0,-0.134 0.019,-0.538 0.055,-1.213c-0.176,0 -1.75,0.116 -4.721,0.347l-0.055,-0.119c0.413,-1.92 0.662,-2.88 0.747,-2.88zM399.587,178.56808c0,0.066 0.195,0.777 0.584,2.132h0.054c0.766,-0.498 1.149,-0.826 1.149,-0.984l0.118,-0.975c-0.146,0 -0.781,-0.058 -1.905,-0.173z" data-paper-data="{&quot;origPos&quot;:null}" fill="#2b70c2"/><path d="M406.113,170.46508c1.86,0.036 3.224,0.054 4.093,0.054c0.079,0 0.319,3.731 0.72,11.193c-0.31,0.079 -1.392,0.28 -3.245,0.602c-0.091,0 -0.392,-2.285 -0.902,-6.855c-0.043,-0.109 -0.265,-1.774 -0.666,-4.994z" data-paper-data="{&quot;origPos&quot;:null}" fill="#2b70c2"/><path d="M415.957,170.79308l0.036,0.073c-0.607,5.365 -0.947,8.185 -1.02,8.458c-1.289,-0.121 -2.103,-0.207 -2.443,-0.255v-0.037l-0.583,-7.619c0.145,-0.049 1.482,-0.256 4.01,-0.62zM412.348,179.50606c0.042,0.025 0.99,0.098 2.843,0.219l0.037,0.073c-0.286,1.677 -0.468,2.516 -0.547,2.516h-2.115c-0.072,0 -0.17,-0.839 -0.291,-2.516c-0.025,0 -0.037,-0.073 -0.037,-0.219c0.073,-0.024 0.11,-0.048 0.11,-0.073z" data-paper-data="{&quot;origPos&quot;:null}" fill="#000000"/></g><text transform="translate(34,157.40423) scale(0.3438,0.3438)" font-size="40" xml:space="preserve" data-paper-data="{&quot;origPos&quot;:null}" fill="#3d83b0" fill-rule="nonzero" stroke="#000000" stroke-width="10" stroke-linecap="butt" stroke-linejoin="miter" stroke-miterlimit="10" stroke-dasharray="" stroke-dashoffset="0" font-family="Sans Serif" font-weight="normal" text-anchor="start" style="mix-blend-mode: normal"><tspan x="0" dy="0">Luigi, Stefano</tspan></text><text transform="translate(34,157.40423) scale(0.3438,0.3438)" font-size="40" xml:space="preserve" data-paper-data="{&quot;origPos&quot;:null}" fill="#3d83b0" fill-rule="nonzero" stroke="none" stroke-width="1" stroke-linecap="butt" stroke-linejoin="miter" stroke-miterlimit="10" stroke-dasharray="" stroke-dashoffset="0" font-family="Sans Serif" font-weight="normal" text-anchor="start" style="mix-blend-mode: normal"><tspan x="0" dy="0">Luigi, Stefano</tspan></text></g></g></svg>