<svg version="1.1" xmlns="http://www.w3.org/2000/svg" xmlns:xlink="http://www.w3.org/1999/xlink" width="661.47358" height="343.21993" viewBox="0,0,661.47358,343.21993"><defs><linearGradient x1="679.7308" y1="308.00443" x2="679.7308" y2="406.00443" gradientUnits="userSpaceOnUse" id="color-1"><stop offset="0" stop-color="#000000" stop-opacity="0"/><stop offset="1" stop-color="#000000"/></linearGradient><linearGradient x1="265.52372" y1="117.65601" x2="262.48076" y2="116.78355" gradientUnits="userSpaceOnUse" id="color-2"><stop offset="0" stop-color="#8aa742"/><stop offset="0.1" stop-color="#8aa742"/><stop offset="0.25" stop-color="#b7ca33"/><stop offset="0.4045" stop-color="#b7ca33"/><stop offset="1" stop-color="#8aa742"/></linearGradient><linearGradient x1="281.88032" y1="59.87052" x2="278.95535" y2="59.66604" gradientUnits="userSpaceOnUse" id="color-3"><stop offset="0" stop-color="#83b641"/><stop offset="0.2" stop-color="#b7ca33"/><stop offset="0.525" stop-color="#b7ca33"/><stop offset="1" stop-color="#8aa742"/></linearGradient><linearGradient x1="410.27905" y1="66.88241" x2="411.58672" y2="69.0587" gradientUnits="userSpaceOnUse" id="color-4"><stop offset="0" stop-color="#83b641"/><stop offset="1" stop-color="#595e48"/></linearGradient><linearGradient x1="413.64792" y1="68.56583" x2="412.82325" y2="69.54868" gradientUnits="userSpaceOnUse" id="color-5"><stop offset="0" stop-color="#8aa742"/><stop offset="1" stop-color="#595e48"/></linearGradient><linearGradient x1="414.87796" y1="69.36809" x2="414.87796" y2="71.45076" gradientUnits="userSpaceOnUse" id="color-6"><stop offset="0" stop-color="#8aa742"/><stop offset="1" stop-color="#767e47"/></linearGradient><linearGradient x1="379.02049" y1="182.94399" x2="376.16838" y2="182.74452" gradientUnits="userSpaceOnUse" id="color-7"><stop offset="0" stop-color="#767e47"/><stop offset="1" stop-color="#8aa742"/></linearGradient><linearGradient x1="380.3602" y1="183.19893" x2="378.5179" y2="185.24501" gradientUnits="userSpaceOnUse" id="color-8"><stop offset="0" stop-color="#767e47"/><stop offset="1" stop-color="#595e48"/></linearGradient><linearGradient x1="247.585" y1="186.79125" x2="377.66307" y2="186.79125" gradientUnits="userSpaceOnUse" id="color-9"><stop offset="0" stop-color="#8aa742"/><stop offset="0.4" stop-color="#b7ca33"/><stop offset="1" stop-color="#8aa742"/></linearGradient><linearGradient x1="246.7926" y1="176.83245" x2="244.73289" y2="174.54467" gradientUnits="userSpaceOnUse" id="color-10"><stop offset="0" stop-color="#767e47"/><stop offset="0.1" stop-color="#767e47"/><stop offset="0.65" stop-color="#83b641"/><stop offset="1" stop-color="#8aa742"/></linearGradient><linearGradient x1="246.72444" y1="173.13053" x2="248.22375" y2="175.83511" gradientUnits="userSpaceOnUse" id="color-11"><stop offset="0" stop-color="#8aa742"/><stop offset="0.4045" stop-color="#83b641"/><stop offset="0.8" stop-color="#8aa742"/><stop offset="1" stop-color="#8aa742"/></linearGradient><linearGradient x1="395.74406" y1="125.46397" x2="392.71239" y2="124.59472" gradientUnits="userSpaceOnUse" id="color-12"><stop offset="0" stop-color="#595e48"/><stop offset="1" stop-color="#83b641"/></linearGradient><linearGradient x1="388.22536" y1="142.27905" x2="268.01849" y2="107.81035" gradientUnits="userSpaceOnUse" id="color-13"><stop offset="0" stop-color="#6fbc48"/><stop offset="0.3333" stop-color="#98c74f"/><stop offset="0.6666" stop-color="#80c046"/><stop offset="1" stop-color="#607d3a"/></linearGradient><linearGradient x1="65.13084" y1="286.64915" x2="192.51561" y2="286.64915" gradientUnits="userSpaceOnUse" id="color-14"><stop offset="0" stop-color="#76a5d8"/><stop offset="0.45" stop-color="#dae3ec"/><stop offset="1" stop-color="#3f87c7"/></linearGradient><clipPath id="clip-1"><path d="M192.49735,297.33986c-28.99679,-19.52139 -60.43374,-35.33803 -127.35445,-7.67462l32.46485,-113.46809c66.93082,-27.67956 99.3612,-12.94949 128.3337,6.68315z" fill="none"/></clipPath><linearGradient x1="206.7137" y1="249.75258" x2="86.3662" y2="215.24337" gradientUnits="userSpaceOnUse" id="color-15"><stop offset="0" stop-color="#2e499e"/><stop offset="0.4" stop-color="#4496d1"/><stop offset="0.725" stop-color="#a5cded"/><stop offset="1" stop-color="#007fc4"/></linearGradient><linearGradient x1="97.62515" y1="175.40679" x2="97.62515" y2="176.23264" gradientUnits="userSpaceOnUse" id="color-16"><stop offset="0" stop-color="#76a5d8"/><stop offset="1" stop-color="#2e499e"/></linearGradient><clipPath id="clip-2"><path d="M136.44417,40.99204l-0.3683,-0.10522c0.14165,-0.48159 0.47344,-0.65356 0.60295,-0.70817l0.05461,-0.01614c0.00204,0.00204 -0.12144,0.25494 -0.28933,0.82961z" fill="none" fill-rule="nonzero"/></clipPath><clipPath id="clip-3"><path d="M136.44417,40.99204l-0.3683,-0.10522c0.14165,-0.48159 0.47344,-0.65356 0.60295,-0.70817l0.05461,-0.01614c0.00204,0.00204 -0.12144,0.25494 -0.28933,0.82961z" fill="none" fill-rule="nonzero"/></clipPath><clipPath id="clip-4"><path d="M136.44417,40.99204l-0.3683,-0.10522c0.14165,-0.48159 0.47344,-0.65356 0.60295,-0.70817l0.05461,-0.01614c0.00204,0.00204 -0.12144,0.25494 -0.28933,0.82961z" fill="none" fill-rule="nonzero"/></clipPath><clipPath id="clip-5"><path d="M136.44417,40.99204l-0.3683,-0.10522c0.14165,-0.48159 0.47344,-0.65356 0.60295,-0.70817l0.05461,-0.01614c0.00204,0.00204 -0.12144,0.25494 -0.28933,0.82961z" fill="none" fill-rule="nonzero"/></clipPath><clipPath id="clip-6"><path d="M136.44417,40.99204l-0.3683,-0.10522c0.14165,-0.48159 0.47344,-0.65356 0.60295,-0.70817l0.05461,-0.01614c0.00204,0.00204 -0.12144,0.25494 -0.28933,0.82961z" fill="none" fill-rule="nonzero"/></clipPath><clipPath id="clip-7"><path d="M136.44417,40.99204l-0.3683,-0.10522c0.14165,-0.48159 0.47344,-0.65356 0.60295,-0.70817l0.05461,-0.01614c0.00204,0.00204 -0.12144,0.25494 -0.28933,0.82961z" fill="none" fill-rule="nonzero"/></clipPath><clipPath id="clip-8"><path d="M136.44417,40.99204l-0.3683,-0.10522c0.14165,-0.48159 0.47344,-0.65356 0.60295,-0.70817l0.05461,-0.01614c0.00204,0.00204 -0.12144,0.25494 -0.28933,0.82961z" fill="none" fill-rule="nonzero"/></clipPath><clipPath id="clip-9"><path d="M136.44417,40.99204l-0.3683,-0.10522c0.14165,-0.48159 0.47344,-0.65356 0.60295,-0.70817l0.05461,-0.01614c0.00204,0.00204 -0.12144,0.25494 -0.28933,0.82961z" fill="none" fill-rule="nonzero"/></clipPath><clipPath id="clip-10"><path d="M136.44417,40.99204l-0.3683,-0.10522c0.14165,-0.48159 0.47344,-0.65356 0.60295,-0.70817l0.05461,-0.01614c0.00204,0.00204 -0.12144,0.25494 -0.28933,0.82961z" fill="none" fill-rule="nonzero"/></clipPath><clipPath id="clip-11"><path d="M136.44417,40.99204l-0.3683,-0.10522c0.14165,-0.48159 0.47344,-0.65356 0.60295,-0.70817l0.05461,-0.01614c0.00204,0.00204 -0.12144,0.25494 -0.28933,0.82961z" fill="none" fill-rule="nonzero"/></clipPath><clipPath id="clip-12"><path d="M136.44417,40.99204l-0.3683,-0.10522c0.14165,-0.48159 0.47344,-0.65356 0.60295,-0.70817l0.05461,-0.01614c0.00204,0.00204 -0.12144,0.25494 -0.28933,0.82961z" fill="none" fill-rule="nonzero"/></clipPath><clipPath id="clip-13"><path d="M136.44417,40.99204l-0.3683,-0.10522c0.14165,-0.48159 0.47344,-0.65356 0.60295,-0.70817l0.05461,-0.01614c0.00204,0.00204 -0.12144,0.25494 -0.28933,0.82961z" fill="none" fill-rule="nonzero"/></clipPath><clipPath id="clip-14"><path d="M136.44417,40.99204l-0.3683,-0.10522c0.14165,-0.48159 0.47344,-0.65356 0.60295,-0.70817l0.05461,-0.01614c0.00204,0.00204 -0.12144,0.25494 -0.28933,0.82961z" fill="none" fill-rule="nonzero"/></clipPath><clipPath id="clip-15"><path d="M136.44417,40.99204l-0.3683,-0.10522c0.14165,-0.48159 0.47344,-0.65356 0.60295,-0.70817l0.05461,-0.01614c0.00204,0.00204 -0.12144,0.25494 -0.28933,0.82961z" fill="none" fill-rule="nonzero"/></clipPath><clipPath id="clip-16"><path d="M136.44417,40.99204l-0.3683,-0.10522c0.14165,-0.48159 0.47344,-0.65356 0.60295,-0.70817l0.05461,-0.01614c0.00204,0.00204 -0.12144,0.25494 -0.28933,0.82961z" fill="none" fill-rule="nonzero"/></clipPath><clipPath id="clip-17"><path d="M136.44417,40.99204l-0.3683,-0.10522c0.14165,-0.48159 0.47344,-0.65356 0.60295,-0.70817l0.05461,-0.01614c0.00204,0.00204 -0.12144,0.25494 -0.28933,0.82961z" fill="none" fill-rule="nonzero"/></clipPath><linearGradient x1="103.42048" y1="151.41192" x2="231.45152" y2="151.41192" gradientUnits="userSpaceOnUse" id="color-17"><stop offset="0" stop-color="#faab4f"/><stop offset="0.25" stop-color="#faab4f"/><stop offset="0.475" stop-color="#fcc193"/><stop offset="0.525" stop-color="#fcc193"/><stop offset="0.75" stop-color="#f89c3e"/><stop offset="1" stop-color="#f89c3e"/></linearGradient><linearGradient x1="245.20892" y1="115.34613" x2="124.75315" y2="80.80598" gradientUnits="userSpaceOnUse" id="color-18"><stop offset="0" stop-color="#cd2b2b"/><stop offset="0.4" stop-color="#f2692a"/><stop offset="0.725" stop-color="#fcb544"/><stop offset="1" stop-color="#f37237"/></linearGradient><linearGradient x1="343.32622" y1="317.58054" x2="342.64437" y2="320.12569" gradientUnits="userSpaceOnUse" id="color-19"><stop offset="0" stop-color="#d4a52e"/><stop offset="1" stop-color="#a87c3c"/></linearGradient><linearGradient x1="375.39769" y1="206.06632" x2="375.39769" y2="208.16097" gradientUnits="userSpaceOnUse" id="color-20"><stop offset="0.0056" stop-color="#c19236"/><stop offset="1" stop-color="#d4a52e"/></linearGradient><linearGradient x1="370.74535" y1="203.59058" x2="372.06321" y2="205.78396" gradientUnits="userSpaceOnUse" id="color-21"><stop offset="0.0056" stop-color="#ffcd02"/><stop offset="1" stop-color="#a87c3c"/></linearGradient><linearGradient x1="374.17863" y1="205.2722" x2="373.3719" y2="206.23351" gradientUnits="userSpaceOnUse" id="color-22"><stop offset="0.0056" stop-color="#ffcd02"/><stop offset="1" stop-color="#a87c3c"/></linearGradient><linearGradient x1="340.67154" y1="316.41671" x2="337.81332" y2="316.21701" gradientUnits="userSpaceOnUse" id="color-23"><stop offset="0" stop-color="#c19236"/><stop offset="1" stop-color="#ffcd02"/></linearGradient><linearGradient x1="226.96817" y1="251.12583" x2="223.97661" y2="250.26794" gradientUnits="userSpaceOnUse" id="color-24"><stop offset="0" stop-color="#d4a52e"/><stop offset="0.1" stop-color="#d4a52e"/><stop offset="0.2" stop-color="#ffc222"/><stop offset="0.35" stop-color="#ffc222"/><stop offset="1" stop-color="#d4a52e"/></linearGradient><linearGradient x1="356.72103" y1="260.51928" x2="353.8871" y2="259.70675" gradientUnits="userSpaceOnUse" id="color-25"><stop offset="0" stop-color="#a87c3c"/><stop offset="1" stop-color="#ffd200"/></linearGradient><linearGradient x1="341.86115" y1="316.10247" x2="340.43729" y2="319.30039" gradientUnits="userSpaceOnUse" id="color-26"><stop offset="0" stop-color="#c19236"/><stop offset="1" stop-color="#d4a52e"/></linearGradient><linearGradient x1="209.29528" y1="319.90029" x2="339.31004" y2="319.90029" gradientUnits="userSpaceOnUse" id="color-27"><stop offset="0" stop-color="#d4a52e"/><stop offset="0.4" stop-color="#ffd200"/><stop offset="1" stop-color="#d4a52e"/></linearGradient><linearGradient x1="208.39532" y1="310.26561" x2="206.30089" y2="307.9396" gradientUnits="userSpaceOnUse" id="color-28"><stop offset="0" stop-color="#d4a52e"/><stop offset="0.1" stop-color="#d4a52e"/><stop offset="0.7" stop-color="#ffd200"/><stop offset="1" stop-color="#d4a52e"/></linearGradient><linearGradient x1="208.45658" y1="306.36116" x2="209.9385" y2="309.03464" gradientUnits="userSpaceOnUse" id="color-29"><stop offset="0" stop-color="#d4a52e"/><stop offset="0.4" stop-color="#ffc222"/><stop offset="0.8" stop-color="#ffcd02"/><stop offset="1" stop-color="#d4a52e"/></linearGradient><clipPath id="clip-18"><path d="M243.07329,194.56724c28.96036,19.49107 60.34067,32.99901 126.98615,10.05406l-31.77282,110.43101c-58.63695,25.78163 -98.21593,10.29889 -127.87851,-7.62808z" fill="none"/></clipPath><linearGradient x1="349.97724" y1="275.38629" x2="229.50063" y2="240.84026" gradientUnits="userSpaceOnUse" id="color-30"><stop offset="0" stop-color="#ffc907"/><stop offset="0.1667" stop-color="#ffd200"/><stop offset="0.3333" stop-color="#ffd952"/><stop offset="0.625" stop-color="#ffcd02"/><stop offset="1" stop-color="#b77a36"/></linearGradient><clipPath id="clip-19"><path d="M243.07329,194.56724c28.96036,19.49107 60.34067,32.99901 126.98615,10.05406l-31.77282,110.43101c-58.63695,25.78163 -98.21593,10.29889 -127.87851,-7.62808z"/></clipPath><linearGradient x1="243.18861" y1="193.93225" x2="240.21225" y2="193.72408" gradientUnits="userSpaceOnUse" id="color-31"><stop offset="0" stop-color="#ffc222"/><stop offset="0.2" stop-color="#ffc222"/><stop offset="0.525" stop-color="#ffd200"/><stop offset="1" stop-color="#d4a52e"/></linearGradient></defs><g transform="translate(91.50745,-25.24696)"><g data-paper-data="{&quot;isPaintingLayer&quot;:true}" stroke="none" stroke-linecap="butt" stroke-linejoin="miter" stroke-miterlimit="10" stroke-dasharray="" stroke-dashoffset="0" style="mix-blend-mode: normal"><path d="M569.96614,366.97l-661.47358,1.49689c0,-20.15415 0,-40.3083 0,-60.46246h657.9447c0.2595,6.68646 3.52887,58.96557 3.52887,58.96557z" data-paper-data="{&quot;origPos&quot;:null,&quot;index&quot;:null}" fill="url(#color-1)" fill-rule="nonzero" stroke-width="1.22826"/><g stroke-width="1"><g fill="none" fill-rule="nonzero"><path d="M145.02728,294.54157"/></g><g><g><path d="M409.54737,67.9534c-66.76284,27.60677 -98.87561,12.13814 -127.80361,-7.33264c0.06683,-0.25494 0.18615,-0.74867 -0.00807,-1.22212c28.928,19.47485 61.68414,35.14781 128.44299,7.54511c-0.44312,0.40669 -0.44312,0.60898 -0.63131,1.00964z" fill="#83b641" fill-rule="nonzero"/><path d="M279.02845,60.29077l-32.6065,113.26573l-2.51303,1.98897l0.00204,-0.26105l32.73397,-113.29001z" fill="#8aa742" fill-rule="evenodd"/><path d="M248.87833,174.82116c-1.01576,-0.56856 -1.74821,-1.71382 -2.6506,-1.35969l32.68743,-113.12008c0.50181,-0.22462 1.76639,-0.65764 2.96015,0.2833z" fill="url(#color-2)" fill-rule="nonzero"/><path d="M279.33596,59.55643l-0.33587,0.80931l-2.38352,1.72189c0.20229,-0.77296 2.01929,-2.06175 2.57978,-2.45231c0.10522,-0.07286 0.13961,-0.07889 0.13961,-0.07889z" fill="#8aa742" fill-rule="evenodd"/><path d="M281.76194,60.54383c-1.2363,-0.76278 -2.35116,-0.39251 -2.85696,-0.17401c0.07889,-0.24076 0.29341,-0.73449 0.29341,-0.73449c1.07444,-0.67981 1.54177,-0.71224 2.54538,-0.23269c0.12951,0.37434 0.18411,0.73449 0.01818,1.14119z" fill="url(#color-3)" fill-rule="nonzero"/><path d="M412.02397,68.79507c0,0 -0.74664,-1.02994 -2.53332,-0.70002c0.15787,-0.42291 0.15787,-0.81942 0.68796,-1.15325c1.07444,-0.16186 1.59646,0.12144 1.82507,0.34198c0.12747,0.12543 0.16594,0.22861 0.16594,0.22861c0.14361,0.63131 -0.14565,1.28276 -0.14565,1.28276z" fill="url(#color-4)" fill-rule="evenodd"/><path d="M412.00579,67.28354l2.64049,2.11848c0.15787,0.70817 -0.18208,1.42645 -0.18208,1.42645l-2.64856,-2.12654c0,0 0.3318,-0.7891 0.19022,-1.41838z" fill="url(#color-5)" fill-rule="evenodd"/><path d="M414.56536,70.69496l-33.19527,113.81611l-2.50496,-2.21155l33.00505,-113.74732z" fill="#595e48" fill-rule="evenodd"/><path d="M382.01754,185.33464c0.07082,-0.64949 -0.62121,-1.18569 -0.62121,-1.18569l33.13455,-113.5571c0,0 0.52609,0.47344 0.66766,0.81542z" fill="#767e47" fill-rule="evenodd"/><path d="M415.19056,71.44974c0,0 -0.1194,-0.32576 -0.68388,-0.80124c0.25697,-1.06833 0.08696,-1.28276 0.08696,-1.28276l0.05053,0.03439c0,0.00204 0.82961,0.75682 0.54631,2.04969z" fill="url(#color-6)" fill-rule="evenodd"/><path d="M380.91074,186.39489c-17.84197,8.10152 -34.72897,12.28175 -50.41008,13.64959c-27.07864,3.07547 -48.97548,-2.8145 -66.86602,-11.60194c-6.95634,-3.19283 -13.25504,-6.80662 -18.8274,-10.55994l0.30148,-0.26105c5.64922,3.8019 11.80635,7.51683 18.52389,10.82091c18.17783,8.34635 40.86174,13.85596 66.86602,11.60194c14.81099,-1.67535 31.17191,-6.0458 49.279,-14.07658c0.50995,0.41077 1.13304,0.42699 1.13304,0.42699z" fill="#595e48" fill-rule="evenodd"/><path d="M377.30714,184.28245c0,0 -1.2768,-1.14526 -1.04404,-2.82257c1.71578,-0.43913 2.8145,0.64753 2.8145,0.64753c0,0 -0.31566,1.54381 -1.77038,2.17504z" fill="url(#color-7)" fill-rule="nonzero"/><path d="M379.0776,182.10929l2.39974,2.09419c0,0 -0.3683,1.31316 -1.82507,1.95254l-2.43813,-2.08808c1.46092,-0.63938 1.86354,-1.95857 1.86354,-1.95857z" fill="url(#color-8)" fill-rule="evenodd"/><path d="M376.65969,181.42549c-0.23269,1.67942 1.00353,2.90554 1.00353,2.90554c-66.77499,27.60873 -101.17616,11.351 -130.07783,-8.22703c0.50784,-0.3723 0.58673,-0.36823 0.91657,-1.54584c28.89768,19.58211 72.57799,33.30253 128.15765,6.86734z" fill="url(#color-9)" fill-rule="nonzero"/><path d="M245.12297,177.73884l2.48263,-1.65913c28.91382,18.61493 63.06617,34.71479 129.77033,7.9113l2.41384,2.09623c-64.04549,28.25422 -105.01856,12.51851 -134.66687,-8.34839z" fill="#767e47" fill-rule="evenodd"/><path d="M382.01754,185.33464c-0.3318,0.60898 -0.91257,0.95707 -1.10679,1.05822c-0.0405,0.02429 -0.06683,0.02429 -0.06683,0.02429c0,0 -0.45527,0.06276 -1.06229,-0.3318c1.30509,-0.71224 1.68342,-2.13469 1.68342,-2.13469c0,0 0.7587,0.63335 0.55242,1.38398z" fill="#767e47" fill-rule="evenodd"/><path d="M245.21401,177.70656l-0.2974,0.24483c0,0 -1.62678,-0.87818 -1.00353,-2.66682c0.14565,1.75832 1.30101,2.42199 1.30101,2.42199z" fill="#767e47" fill-rule="evenodd"/><path d="M243.91096,175.28457l2.39566,-1.89386c-0.13961,1.82507 1.43859,2.58385 1.43859,2.58385l-2.43617,1.87364c0,0 -1.53574,-0.73449 -1.39816,-2.56364z" fill="url(#color-10)" fill-rule="nonzero"/><path d="M246.25405,173.39071c0.81942,-0.24891 1.56003,0.60099 2.56364,1.37991c-0.32576,1.18161 -0.61306,0.97932 -1.1209,1.3557c-0.59488,-0.35608 -1.59442,-1.23426 -1.44266,-2.73561z" fill="url(#color-11)" fill-rule="nonzero"/><path d="M376.34403,181.68246l33.04555,-113.69068c1.7866,-0.32984 2.64049,0.68185 2.64049,0.68185l-32.95044,113.43574c-0.00204,0 -1.32123,-1.01168 -2.73561,-0.42699z" fill="url(#color-12)" fill-rule="nonzero"/><g fill="none" fill-rule="nonzero" font-family="sans-serif" font-weight="normal" font-size="12" text-anchor="start"/></g><path d="M376.66776,181.78564c-64.05356,28.6751 -98.94839,12.57516 -127.8521,-7.00687l32.93626,-114.24301c28.93207,19.47078 61.0327,34.98798 127.79554,7.38528z" fill="url(#color-13)" fill-rule="nonzero"/></g><g><g><path d="M67.50417,293.03208c0.21851,0.03236 0.62121,-0.15787 0.62121,-0.15787c0.46334,0.31566 0.83156,0.53824 0.83156,0.53824c0,0 -0.72439,0.17197 -1.45277,-0.38045z" fill="#313c7e" fill-rule="evenodd"/><path d="M191.35413,298.87959c0,0 0.44305,0.41069 0.953,0.26904l-2.00111,1.18569c-0.63938,0.28526 -1.29702,-0.16594 -1.29702,-0.16594z" fill="#313c7e" fill-rule="nonzero"/><path d="M68.1517,292.88847c0,0 -0.39048,0.19822 -0.61102,0.16586l-2.19533,-1.67535l-0.05053,-0.04654c0.31769,0.11125 0.68388,0.05461 0.83156,0.02429z" fill="#313c7e" fill-rule="nonzero"/><path d="M192.47714,297.24474c0.22869,0.16594 0.46945,0.34801 0.69603,0.80524c-0.12747,0.60099 -0.6292,0.9085 -0.9125,1.13108c-0.40873,0.09511 -0.98136,-0.29341 -0.98136,-0.29341c0.31973,-0.26912 0.86604,-0.65552 1.19783,-1.64292z" fill="#2e499e" fill-rule="nonzero"/><g fill="#2e499e" fill-rule="evenodd"><g><path d="M97.29617,176.23342v-0.03643h0.6556v0.03643z"/></g></g><path d="M65.17126,289.902l-0.3723,-0.09511l32.50128,-113.69671l0.36619,0.10318z" fill="#2e499e" fill-rule="evenodd"/><path d="M65.34527,291.37898c-0.42087,-0.36423 -0.71224,-0.98739 -0.54834,-1.57217l0.39048,-0.14972c-0.1639,0.84582 0.45731,1.45481 0.91054,1.71578c0.00407,-0.00204 -0.3278,0.1639 -0.75275,0.00611z" fill="#2e499e" fill-rule="evenodd"/><path d="M191.33391,298.95848c-28.99883,-19.51536 -59.0518,-34.42139 -125.19351,-7.54715c-0.45527,-0.26912 -1.1473,-0.91657 -0.98536,-1.77046c67.15943,-28.58806 98.36166,-11.8872 127.36048,7.63419c-0.29536,1.03597 -0.86196,1.42237 -1.18161,1.68342z" fill="url(#color-14)" fill-rule="nonzero"/><path d="M68.02016,292.80143c63.66308,-24.88934 92.19849,-11.33486 121.18322,7.3266c-17.36045,-11.17504 -35.2267,-20.1223 -59.87936,-20.27406c-16.49849,-0.09511 -35.99763,4.09326 -60.39935,13.55448c0,0.00204 -0.50384,-0.18819 -0.9045,-0.60702z" fill="#313c7e" fill-rule="evenodd"/><path d="M191.36831,298.95041l-2.34505,1.22408c-28.98464,-18.66146 -58.31942,-31.56035 -120.8696,-7.28814l-2.06786,-1.50941c66.14164,-26.87839 96.28572,-11.94792 125.28251,7.57347z" fill="#2e499e" fill-rule="evenodd"/><path d="M192.45685,297.30742l33.4401,-114.45549c0.35812,0.24891 0.54834,0.44312 0.73442,0.6556l-33.47042,114.59714c-0.18819,-0.48159 -0.7041,-0.79717 -0.7041,-0.79717z" fill="#313c7e" fill-rule="evenodd"/><path d="M225.88277,182.90662c-28.97046,-19.63468 -61.64575,-33.8468 -128.28716,-6.64672c0.16594,-0.56856 0.30148,-0.83768 0.30148,-0.83768c66.93481,-27.67556 99.25801,-12.98185 128.22652,6.65486z" fill="#3f87c7" fill-rule="evenodd"/><g fill-rule="nonzero"><g clip-path="url(#clip-1)"><g><path d="M192.50949,297.58461c-28.99679,-19.51536 -60.51867,-35.56665 -127.43938,-7.89516l32.76829,-114.45549c66.93481,-27.67556 99.09012,-12.01475 128.05862,7.62001z" fill="url(#color-15)"/><path d="M192.50949,297.58461c-28.99679,-19.51536 -60.51867,-35.56665 -127.43938,-7.89516l32.76829,-114.45549c66.93481,-27.67556 99.09012,-12.01475 128.05862,7.62001z" fill="none"/></g></g></g><path d="M226.1135,182.06894l0.05461,0.03236c0.4128,0.29341 0.5807,0.86196 0.46334,1.40623l-0.02429,0.07082c-0.18411,-0.21044 -0.37637,-0.41077 -0.73246,-0.65959z" fill="#313c7e" fill-rule="evenodd"/></g><path d="M97.66244,176.23342l-0.36619,-0.10718c0.13961,-0.48159 0.46937,-0.64745 0.60091,-0.7041l0.05461,-0.01622c0.00204,0 -0.12144,0.2529 -0.28933,0.82757z" fill="url(#color-16)" fill-rule="evenodd"/></g><g><path d="M228.06603,164.75088c-27.1859,-17.90676 -59.51513,-31.61503 -121.48469,-6.28868l-2.31881,-1.63688c56.71278,-28.1834 94.90174,-14.60463 126.05743,7.01706z" fill="#d75329" fill-rule="evenodd"/><path d="M231.41266,162.16499l32.92012,-113.66028c0.35608,0.24279 0.53009,0.47752 0.71828,0.68796l-32.93422,113.75743c-0.18819,-0.47752 -0.7041,-0.78503 -0.7041,-0.78503z" fill="#ab4533" fill-rule="evenodd"/><path d="M106.60156,158.42593c10.54576,-4.32595 20.31261,-7.53704 29.3752,-9.74052c2.19737,-0.53213 4.14991,-1.01372 6.46871,-1.46084c2.13469,-0.42487 4.24298,-0.83971 6.30481,-1.14322c3.2313,-0.49374 6.36545,-0.90043 9.41672,-1.13515c2.61017,-0.20636 5.14945,-0.35812 7.63615,-0.38037c2.40373,-0.02836 4.75286,0.00407 7.04738,0.13554c2.04365,0.11736 4.04265,0.26504 6.01141,0.49773c1.66321,0.19422 3.28998,0.39862 4.89858,0.67581c3.39724,0.58274 6.67907,1.29898 9.85177,2.19941c12.81192,3.62382 24.19128,9.80116 34.65407,16.77771c-0.06879,0.03236 -0.31965,-0.07286 -0.42894,-0.13154c-0.10114,-0.04857 -0.14768,-0.05257 -0.23676,-0.11329c-14.14529,-8.96756 -29.34276,-16.76557 -48.09527,-19.06612c-19.19359,-2.35923 -41.5598,0.94493 -71.69378,12.90499c0,0 -0.70214,0.2974 -0.96922,0.34598c-0.24076,0.03847 -0.19634,-0.14565 -0.24076,-0.36619z" fill="#ab4533" fill-rule="evenodd"/><path d="M230.26748,163.82224c0,0 0.44712,0.31362 0.953,0.19829l-2.07797,0.91657c-0.56049,0.1639 -1.22611,-0.18208 -1.22611,-0.18208z" fill="#ab4533" fill-rule="nonzero"/><path d="M106.62992,158.44614c0,0 0.12747,0.2124 0.21247,0.35005c-0.20433,0.02836 -0.22861,0.08093 -0.73246,-0.14361c-0.06683,-0.02632 -0.1679,-0.10921 -0.25094,-0.14565l-2.15083,-1.69157l-0.19422,-0.15983c0.29341,-0.02021 0.51795,0.12144 0.66571,0.09308z" fill="#ab4533" fill-rule="nonzero"/><path d="M231.43491,162.16914c0.23065,0.15379 0.50588,0.24483 0.69806,0.72227c-0.12747,0.60499 -0.64142,0.9085 -0.92871,1.13108c-0.50995,0.14361 -1.01372,-0.24891 -1.01372,-0.24891c0.32169,-0.25697 0.91257,-0.62121 1.24437,-1.60453z" fill="#d75329" fill-rule="nonzero"/><path d="M264.55333,47.7663l0.04043,0.02429c0.40669,0.29137 0.5767,0.86196 0.45934,1.40216l-0.02021,0.07286c-0.19022,-0.21247 -0.31158,-0.42291 -0.68388,-0.7041z" fill="#d75329" fill-rule="evenodd"/><path d="M103.55844,156.71618c-0.31158,-0.24483 -0.6252,-1.20191 -0.46334,-1.78464l0.43701,-0.15176c-0.16186,0.84379 0.36016,1.80486 0.81339,2.06583c0.00204,0 -0.31769,0.18012 -0.78714,-0.12951z" fill="#d75329" fill-rule="evenodd"/><g><g clip-path="url(#clip-2)"><path d="M136.07085,40.21069v-0.04857h0.65764v0.04857z" fill="#faaa4f" fill-rule="evenodd"/></g><g clip-path="url(#clip-3)"><path d="M136.07085,40.2653v-0.05461h0.65764v0.05461z" fill="#f6a34c" fill-rule="evenodd"/></g><g clip-path="url(#clip-4)"><path d="M136.07085,40.31387v-0.04857h0.65764v0.04857z" fill="#f39d48" fill-rule="evenodd"/></g><g clip-path="url(#clip-5)"><path d="M136.07085,40.37052v-0.05461h0.65764v0.05461z" fill="#f09745" fill-rule="evenodd"/></g><g clip-path="url(#clip-6)"><path d="M136.07085,40.42105v-0.05053h0.65764v0.05053z" fill="#ed9142" fill-rule="evenodd"/></g><g clip-path="url(#clip-7)"><path d="M136.07085,40.46963v-0.04857h0.65764v0.04857z" fill="#eb8c3f" fill-rule="evenodd"/></g><g clip-path="url(#clip-8)"><path d="M136.07085,40.52227v-0.05061h0.65764v0.05061z" fill="#e8863c" fill-rule="evenodd"/></g><g clip-path="url(#clip-9)"><path d="M136.07085,40.57085v-0.04857h0.65764v0.04857z" fill="#e68139" fill-rule="evenodd"/></g><g clip-path="url(#clip-10)"><path d="M136.07085,40.62342v-0.05053h0.65764v0.05053z" fill="#e57b37" fill-rule="evenodd"/></g><g clip-path="url(#clip-11)"><path d="M136.07085,40.67403v-0.05061h0.65764v0.05061z" fill="#e27634" fill-rule="evenodd"/></g><g clip-path="url(#clip-12)"><path d="M136.07085,40.7266v-0.05265h0.65764v0.05265z" fill="#e07132" fill-rule="evenodd"/></g><g clip-path="url(#clip-13)"><path d="M136.07085,40.77925v-0.05061h0.65764v0.05061z" fill="#df6b30" fill-rule="evenodd"/></g><g clip-path="url(#clip-14)"><path d="M136.07085,40.82767v-0.04857h0.65764v0.04857z" fill="#dc662e" fill-rule="evenodd"/></g><g clip-path="url(#clip-15)"><path d="M136.07085,40.88447v-0.05461h0.65764v0.05461z" fill="#db602c" fill-rule="evenodd"/></g><g clip-path="url(#clip-16)"><path d="M136.07085,40.93289v-0.04857h0.65764v0.04857z" fill="#d95a2a" fill-rule="evenodd"/></g><g clip-path="url(#clip-17)"><path d="M136.07085,40.98757v-0.05461h0.65764v0.05461z" fill="#d75329" fill-rule="evenodd"/></g></g><path d="M230.25933,163.83031c-17.8339,-11.65859 -34.52864,-21.31011 -60.96391,-22.07085c-19.33124,0.38241 -34.15031,2.84482 -64.97624,15.08818c-0.45527,-0.25901 -1.03189,-0.90443 -0.87207,-1.75221c26.6902,-11.36526 47.8788,-16.26784 65.46387,-16.09587c26.62745,0.26504 45.08655,11.40569 62.54007,23.14724c-0.29536,1.0279 -0.87003,1.42245 -1.19172,1.68342z" fill="url(#color-17)" fill-rule="nonzero"/><path d="M136.08597,40.8666l0.30555,0.09707l-32.86951,114.0933c-0.0749,-0.03236 -0.42487,-0.12543 -0.42487,-0.12543z" fill="#d75329" fill-rule="evenodd"/><path d="M264.33881,48.63633c-28.95025,-19.6165 -61.3847,-34.76337 -127.97965,-7.58358c0.17001,-0.57059 0.31965,-0.87411 0.31965,-0.87411c66.89031,-27.65331 98.95654,-12.01271 127.9129,7.61194z" fill="#f89c3e" fill-rule="evenodd"/><path d="M231.46124,162.18943c-17.4576,-11.75574 -36.23235,-22.7284 -62.89623,-22.93077c-17.59314,-0.13554 -38.53494,4.86215 -65.11985,15.85503l32.94644,-114.16208c66.89031,-27.65731 99.01922,-12.00456 127.96751,7.61593z" fill="url(#color-18)" fill-rule="nonzero"/></g><g><path d="M343.96215,318.99586c-0.32373,0.60099 -0.9085,0.95707 -1.10272,1.05822c-0.04246,0.02429 -0.07082,0.02429 -0.07082,0.02429c0,0 -0.55641,0.07082 -1.06221,-0.3318c1.30509,-0.71224 1.69157,-2.14268 1.69157,-2.14268c0,0 0.75275,0.64142 0.54427,1.39205z" fill="url(#color-19)" fill-rule="evenodd"/><path d="M343.96215,318.99586c0.07889,-0.64745 -0.61713,-1.19376 -0.61713,-1.19376l31.702,-110.50184c0,0 0.53017,0.46538 0.67581,0.81339z" fill="#d4a52e" fill-rule="evenodd"/><path d="M375.70261,208.16019c0,0 -0.10326,-0.31566 -0.67174,-0.79114c0.26105,-1.07444 0.07897,-1.30509 0.07897,-1.30509l0.05053,0.03236c0.00204,0.00204 0.83564,0.76889 0.54223,2.06379z" fill="url(#color-20)" fill-rule="evenodd"/><path d="M372.54206,205.49737c0,0 -0.87818,-1.06629 -2.66274,-0.73442c0.09511,-0.40262 0.24483,-0.89228 0.81339,-1.12293c1.07843,-0.16594 1.59646,0.1194 1.82507,0.33994c0.12951,0.13358 0.16594,0.22869 0.16594,0.22869c0.14165,0.63327 -0.14165,1.28887 -0.14165,1.28887z" fill="url(#color-21)" fill-rule="evenodd"/><path d="M372.51785,203.97988l2.64449,2.11848c0.15379,0.71828 -0.12951,1.43052 -0.12951,1.43052l-2.63243,-2.11033c-0.00204,0 0.25901,-0.80736 0.11736,-1.43859z" fill="url(#color-22)" fill-rule="evenodd"/><path d="M372.38834,205.25261l2.69111,2.1488l-31.66361,110.46345l-0.12543,0.30148l-2.77807,-2.39566z" fill="#a87c3c" fill-rule="evenodd"/><path d="M338.95028,317.75353c0,0 -1.27273,-1.13915 -1.04404,-2.82257c1.71578,-0.43506 2.82257,0.64745 2.82257,0.64745c0,0 -0.31566,1.53574 -1.77853,2.17512z" fill="url(#color-23)" fill-rule="nonzero"/><path d="M369.98861,204.87217c-67.12707,22.86598 -98.01364,9.20025 -126.974,-10.29082c0.06879,-0.26105 0.24687,-0.68796 0.05061,-1.16947c28.96036,19.49107 60.99015,32.80072 127.62553,10.22807c-0.50384,0.34801 -0.56864,0.82146 -0.70214,1.23223z" fill="#ffcd02" fill-rule="nonzero"/><path d="M240.33572,194.26577l-32.41628,112.75585l-2.51702,1.99093l0.00603,-0.26904l32.54578,-112.74574z" fill="#d4a52e" fill-rule="evenodd"/><path d="M210.67722,307.55782c-0.94493,-0.56049 -2.04569,-0.98739 -2.94808,-0.6252l32.50128,-112.62023c0.50588,-0.21247 1.70771,-0.54631 2.93993,0.31566z" fill="url(#color-24)" fill-rule="nonzero"/><path d="M337.98709,315.16161l31.88415,-110.43908c0.05868,-0.01622 0.13758,-0.09511 0.19015,-0.10326c1.69556,-0.17401 2.48271,0.72635 2.48271,0.72635l-31.79719,110.26508c-0.00204,0.00204 -1.34551,-1.042 -2.75989,-0.44916z" fill="url(#color-25)" fill-rule="nonzero"/><path d="M342.85943,320.05408c-65.54879,28.0195 -107.59426,10.78856 -136.55462,-8.71058l0.30351,-0.2529c28.96036,19.49107 73.52692,35.72444 135.11603,8.53658c0.50995,0.40262 1.13515,0.42691 1.13515,0.42691z" fill="#a87c3c" fill-rule="evenodd"/><path d="M340.72474,315.59659l2.6991,2.26819c0,0 -0.36415,1.31112 -1.82507,1.95254l-2.74164,-2.27626c1.46092,-0.63938 1.86753,-1.94447 1.86753,-1.94447z" fill="url(#color-26)" fill-rule="evenodd"/><path d="M338.30283,314.90056c-0.22869,1.68342 1.00761,2.90154 1.00761,2.90154c-66.84581,27.6472 -101.08105,11.07381 -130.01516,-8.53658c0.50995,-0.3723 0.7587,-0.69603 1.08454,-1.8655c0.04246,0.02429 0.44712,-0.04043 0.48763,-0.01614c29.86682,18.39235 68.09425,32.92819 127.43538,7.51683z" fill="url(#color-27)" fill-rule="nonzero"/><path d="M206.62039,311.20185l2.67489,-1.93632c26.54041,16.55106 63.7379,34.68243 129.72583,8.20478l2.72746,2.27626c-61.33417,27.16561 -106.16782,10.95449 -135.12817,-8.54465z" fill="#c19236" fill-rule="evenodd"/><path d="M206.84704,311.28889l-0.30351,0.21247c0,0 -1.76036,-0.97118 -1.13515,-2.75778c0.14361,1.76239 1.43859,2.54538 1.43859,2.54538z" fill="#d4a52e" fill-rule="evenodd"/><path d="M205.40846,308.74351l2.51303,-2.05572c-0.13765,1.84129 1.64503,2.5211 1.64503,2.5211l-2.75982,2.11041c0.00204,0.00204 -1.53777,-0.74053 -1.39816,-2.5757z" fill="url(#color-28)" fill-rule="nonzero"/><path d="M207.73525,306.76057c0.90043,-0.36423 1.74414,0.06276 2.69314,0.61713c-0.32984,1.17762 -0.52805,1.58831 -1.03801,1.96069c-0.59488,-0.35608 -1.80682,-1.08454 -1.65514,-2.57774z" fill="url(#color-29)" fill-rule="nonzero"/><g fill-rule="nonzero"><g clip-path="url(#clip-18)"><path d="M243.26547,193.86307c28.96036,19.49914 61.12977,35.03045 127.96343,7.4055l-32.94237,113.78171c-66.84581,27.6472 -98.94847,11.99046 -127.87851,-7.62808z" fill="url(#color-30)"/></g><g clip-path="url(#clip-19)" fill="none"><path d="M243.26547,193.86307c28.96036,19.49914 61.12977,35.03045 127.96343,7.4055l-32.94237,113.78171c-66.84581,27.6472 -98.94847,11.99046 -127.87851,-7.62808z"/></g></g><path d="M240.64926,193.55556l-0.34394,0.80524l-2.38352,1.72392c0.15379,-0.71828 1.99093,-2.04765 2.55753,-2.4422c0.0749,-0.05664 0.16993,-0.08696 0.16993,-0.08696z" fill="#ffcd02" fill-rule="evenodd"/><path d="M243.07736,194.57531c-1.32937,-0.775 -2.41392,-0.30759 -2.91972,-0.08704c0.07889,-0.24483 0.35209,-0.86196 0.35209,-0.86196c1.07647,-0.68796 1.56606,-0.68796 2.57171,-0.20636c0.19422,0.47548 0.06683,0.85389 -0.00407,1.15537z" fill="url(#color-31)" fill-rule="nonzero"/></g></g></g></g></svg>