<svg version="1.1" xmlns="http://www.w3.org/2000/svg" xmlns:xlink="http://www.w3.org/1999/xlink" width="38.33125" height="33.14617" viewBox="0,0,38.33125,33.14617"><g transform="translate(-5.95344,-7.24576)"><g data-paper-data="{&quot;isPaintingLayer&quot;:true}" fill-rule="nonzero" stroke="none" stroke-width="0" stroke-linecap="butt" stroke-linejoin="miter" stroke-miterlimit="10" stroke-dasharray="" stroke-dashoffset="0" style="mix-blend-mode: normal"><g><g data-paper-data="{&quot;origPos&quot;:null}"><path d="M44.10091,19.97988c-0.09913,5.26602 -0.85429,7.51205 -6.03659,8.45253c-3.96808,0.72012 -15.47607,0.68267 -19.50835,0.75286c-8.8135,0.15342 -11.89029,-1.48111 -12.04371,-9.05196c-0.06001,-2.96155 0.55825,-5.84837 2.79214,-7.79365c5.23322,-4.55715 9.90988,-5.09389 16.61588,-5.09389c10.04088,0 18.36656,2.8589 18.18063,12.73412z" data-paper-data="{&quot;origPos&quot;:null}" fill="#ffffff"/><path d="M36.73662,18.35291c0,4.18544 -3.15973,7.57842 -7.05746,7.57842c-3.89773,0 -7.05746,-3.39297 -7.05746,-7.57841c0,-4.18544 3.15974,-7.57842 7.05747,-7.57842c3.89773,0 7.05746,3.39298 7.05746,7.57842z" data-paper-data="{&quot;origPos&quot;:null}" fill="#ff5138"/><path d="M6.12972,22.93283c-0.12281,-1.82103 -0.36639,-2.35096 0.50119,-5.80985c0.05224,-1.38302 1.27825,-3.20349 1.27825,-3.20349c0,0 3.92038,0.42983 5.37925,1.67313c1.71187,1.4589 1.95366,3.61254 2.10947,5.85634c0.16386,2.35947 -0.13837,3.89469 -1.62528,5.91471c-0.72012,0.97833 -0.95932,1.1008 -0.95932,1.1008c0,0 -2.86928,0.40736 -4.16963,-0.36557c-1.53956,-1.20322 -2.0186,-2.07542 -2.51396,-5.16605z" data-paper-data="{&quot;origPos&quot;:null,&quot;origRot&quot;:0}" fill="#ff5138"/><path d="M42.92976,14.4849c0,0 1.28802,0.45746 1.33817,5.67386c0.04396,4.57257 -1.45571,6.10731 -1.45571,6.10731c0,0 -2.78249,-0.4642 -2.82645,-6.21436c-0.03988,-5.21648 2.94398,-5.5668 2.94398,-5.5668z" data-paper-data="{&quot;origPos&quot;:null}" fill="#ff5138"/></g><g data-paper-data="{&quot;origPos&quot;:null}"><path d="M35.73236,33.27286c-0.19066,4.87402 -3.83595,7.11908 -8.83195,7.11908c-4.996,0 -9.70407,-1.71009 -9.90248,-6.58381c-0.10705,-2.62961 -0.37468,-5.29917 -0.37468,-5.29917c0,0 7.20907,-1.04752 9.69914,-0.96425c4.82321,0.16127 9.46841,1.48378 9.46841,1.48378c0,0 0.04862,1.50769 -0.05842,4.24436z" data-paper-data="{&quot;origPos&quot;:null}" fill="#ffdfc0"/><path d="M28.98457,36.52378c0,0 -1.31555,1.34402 -3.07432,1.02902c-1.75877,-0.315 -2.72078,-2.21055 -2.72078,-2.21055c0,0 1.44617,1.26424 2.84539,1.51485c1.39921,0.25061 2.94972,-0.3333 2.94972,-0.3333z" data-paper-data="{&quot;origPos&quot;:null,&quot;origRot&quot;:0}" fill="#000000"/><g data-paper-data="{&quot;origPos&quot;:null}"><path d="M31.18655,31.74692c0,1.35985 -0.33346,2.43758 -1.28465,2.46223c-1.04939,0.02721 -1.28465,-1.10238 -1.28465,-2.46223c0,-1.35985 0.28437,-2.46223 1.28465,-2.46223c1.00028,0 1.28465,1.10237 1.28465,2.46223z" data-paper-data="{&quot;origPos&quot;:null}" fill="#000000"/><path d="M30.76963,30.70179c0,0.45349 -0.20066,0.81287 -0.77307,0.82109c-0.6315,0.00907 -0.77307,-0.36761 -0.77307,-0.82109c0,-0.45349 0.17112,-0.82109 0.77307,-0.82109c0.60195,0 0.77307,0.36761 0.77307,0.82109z" data-paper-data="{&quot;origPos&quot;:null}" fill="#aaaaaa"/></g><g data-paper-data="{&quot;origPos&quot;:null}"><path d="M26.84689,31.82762c0,1.35985 -0.33347,2.43758 -1.28465,2.46224c-1.04939,0.02721 -1.28465,-1.10238 -1.28465,-2.46224c0,-1.35985 0.28437,-2.46224 1.28465,-2.46224c1.00028,0 1.28465,1.10238 1.28465,2.46224z" data-paper-data="{&quot;origPos&quot;:null}" fill="#000000"/><path d="M26.35849,30.72124c0,0.45349 -0.20067,0.81288 -0.77307,0.8211c-0.6315,0.00907 -0.77307,-0.36761 -0.77307,-0.8211c0,-0.45349 0.17112,-0.82109 0.77307,-0.82109c0.60195,0 0.77307,0.36761 0.77307,0.82109z" data-paper-data="{&quot;origPos&quot;:null}" fill="#aaaaaa"/></g></g></g><g><path d="M6.27895,23.89126c0,0 -0.33655,-1.83315 -0.32523,-3.10362c0.00844,-0.94789 0.37583,-2.58064 0.37583,-2.58064c0,0 15.0164,-2.89725 23.67763,-3.16464c6.051,-0.1868 14.02064,2.00081 14.02064,2.00081c0,0 0.2339,1.96702 0.25406,2.93453c0.02593,1.24427 -0.13599,2.73287 -0.13599,2.73287c0,0 -8.82975,-1.99011 -14.02782,-1.82804c-9.57999,0.29871 -23.83911,3.00874 -23.83911,3.00874z" data-paper-data="{&quot;origPos&quot;:null}" fill="#f3c640"/><g data-paper-data="{&quot;origPos&quot;:null}"><path d="M38.47963,17.69872c-0.14702,5.29283 -3.41416,8.106 -6.17486,8.106c-2.67733,0 -7.13301,-4.88852 -7.13301,-4.88852l-0.07101,-5.44265c0,0 4.4433,-6.19871 7.20401,-6.19871c2.76071,0 6.33065,2.81571 6.17486,8.42388z" data-paper-data="{&quot;origPos&quot;:null}" fill="#a7a7a7"/><path d="M37.5975,17.53977c0,3.86236 -1.97471,6.99341 -4.41062,6.99341c-2.43592,0 -4.41062,-3.13106 -4.41062,-6.99341c0,-3.86236 1.97471,-6.99342 4.41062,-6.99342c2.43592,0 4.41062,3.13106 4.41062,6.99342z" data-paper-data="{&quot;origPos&quot;:null}" fill="#f2ecc1"/><path d="M37.01765,17.49942c0,2.64094 -1.32156,4.78186 -2.95177,4.78186c-1.63021,0 -2.95177,-2.14092 -2.95177,-4.78186c0,-2.64095 1.32155,-4.78186 2.95177,-4.78186c1.63021,0 2.95177,2.14091 2.95177,4.78186z" data-paper-data="{&quot;origPos&quot;:null}" fill="#fffaca"/></g></g></g></g></svg>