<svg version="1.1" xmlns="http://www.w3.org/2000/svg" xmlns:xlink="http://www.w3.org/1999/xlink" width="93.25" height="92.33312"><defs><radialGradient cx="219.99022" cy="138.17606" r="10.33334" gradientUnits="userSpaceOnUse" id="color-1"><stop offset="0" stop-color="#fde401"/><stop offset="1" stop-color="#fd7e0b"/></radialGradient><radialGradient cx="268.68298" cy="155.64046" r="10.33334" gradientUnits="userSpaceOnUse" id="color-2"><stop offset="0" stop-color="#fde401"/><stop offset="1" stop-color="#fd7e0b"/></radialGradient><radialGradient cx="222.27656" cy="212.21496" r="10.33333" gradientUnits="userSpaceOnUse" id="color-3"><stop offset="0" stop-color="#fde401"/><stop offset="1" stop-color="#fd7e0b"/></radialGradient><radialGradient cx="240.54167" cy="182.76025" r="46.625" gradientUnits="userSpaceOnUse" id="color-4"><stop offset="0" stop-color="#fe6f06"/><stop offset="1" stop-color="#ffbb00"/></radialGradient><radialGradient cx="243.64774" cy="180.59784" r="46.625" gradientUnits="userSpaceOnUse" id="color-5"><stop offset="0" stop-color="#fe6f06"/><stop offset="1" stop-color="#ffbb00"/></radialGradient><radialGradient cx="239.1041" cy="180.94573" r="46.625" gradientUnits="userSpaceOnUse" id="color-6"><stop offset="0" stop-color="#fe6f06"/><stop offset="1" stop-color="#ffbb00"/></radialGradient><radialGradient cx="242.75506" cy="181.94283" r="46.625" gradientUnits="userSpaceOnUse" id="color-7"><stop offset="0" stop-color="#fe6f06"/><stop offset="1" stop-color="#ffbb00"/></radialGradient><radialGradient cx="240.875" cy="178.76025" r="29.5" gradientUnits="userSpaceOnUse" id="color-8"><stop offset="0" stop-color="#d17aee"/><stop offset="1" stop-color="#9457aa"/></radialGradient><radialGradient cx="277.31596" cy="199.76263" r="10.33333" gradientUnits="userSpaceOnUse" id="color-9"><stop offset="0" stop-color="#fde401"/><stop offset="1" stop-color="#fd7e0b"/></radialGradient><radialGradient cx="205.87499" cy="194.09358" r="10.33333" gradientUnits="userSpaceOnUse" id="color-10"><stop offset="0" stop-color="#fde401"/><stop offset="1" stop-color="#fd7e0b"/></radialGradient><radialGradient cx="208.31475" cy="161.30384" r="10.33334" gradientUnits="userSpaceOnUse" id="color-11"><stop offset="0" stop-color="#fde401"/><stop offset="1" stop-color="#fd7e0b"/></radialGradient><radialGradient cx="251.73775" cy="216.53546" r="10.33333" gradientUnits="userSpaceOnUse" id="color-12"><stop offset="0" stop-color="#fde401"/><stop offset="1" stop-color="#fd7e0b"/></radialGradient><radialGradient cx="263.9711" cy="141.69161" r="10.33334" gradientUnits="userSpaceOnUse" id="color-13"><stop offset="0" stop-color="#fde401"/><stop offset="1" stop-color="#fd7e0b"/></radialGradient><radialGradient cx="236.4778" cy="141.43585" r="10.33333" gradientUnits="userSpaceOnUse" id="color-14"><stop offset="0" stop-color="#fde401"/><stop offset="1" stop-color="#fd7e0b"/></radialGradient></defs><g transform="translate(-193.375,-133.83344)"><g data-paper-data="{&quot;isPaintingLayer&quot;:true}" fill="none" fill-rule="nonzero" stroke="none" stroke-width="none" stroke-linecap="none" stroke-linejoin="miter" stroke-miterlimit="10" stroke-dasharray="" stroke-dashoffset="0" font-family="none" font-weight="none" font-size="none" text-anchor="none" style="mix-blend-mode: normal"><path d="M232.86649,150.79357l-3.57073,2.45514l-3.12443,1.33922l-3.65666,0.42937l-4.18985,-19.89697l15.62308,12.72038z" data-paper-data="{&quot;origPos&quot;:null,&quot;index&quot;:null,&quot;origRot&quot;:0}" fill="url(#color-1)" stroke="#000000" stroke-width="0" stroke-linecap="round"/><path d="M256.31717,168.75864l-2.52382,-3.52252l-1.39946,-3.09791l-0.50009,-3.64766l19.81211,-4.57434l-12.41548,15.86646z" data-paper-data="{&quot;origPos&quot;:null,&quot;index&quot;:null,&quot;origRot&quot;:0}" fill="url(#color-2)" stroke="#000000" stroke-width="0" stroke-linecap="round"/><path d="M228.70853,195.37364l3.67596,2.29458l2.47465,2.33059l1.85272,3.18166l-16.57277,11.78081l5.43032,-19.40104z" data-paper-data="{&quot;origPos&quot;:null,&quot;index&quot;:null,&quot;origRot&quot;:0}" fill="url(#color-3)" stroke="#000000" stroke-width="0" stroke-linecap="round"/><path d="M270.125,176.26025l16.5,8l-22.5,6l-50.25,-2.25l-20.5,-5.75l19,-8.25z" data-paper-data="{&quot;origPos&quot;:null,&quot;index&quot;:null}" fill="url(#color-4)" stroke="#000000" stroke-width="0" stroke-linecap="round"/><path d="M246.54382,210.74808l-9.92575,15.41848l-3.25133,-23.05816l8.27517,-49.61498l8.17298,-19.65998l5.90581,19.85406z" data-paper-data="{&quot;origPos&quot;:null,&quot;origRot&quot;:0,&quot;index&quot;:null}" fill="url(#color-5)" stroke="#000000" stroke-width="0" stroke-linecap="round"/><path d="M263.06031,199.48012l4.44028,17.7914l-19.03085,-13.41929l-30.49251,-40.00414l-8.73162,-19.41833l18.51336,9.29076z" data-paper-data="{&quot;origPos&quot;:null,&quot;origRot&quot;:0,&quot;index&quot;:null}" fill="url(#color-6)" stroke="#000000" stroke-width="0" stroke-linecap="round"/><path d="M221.47489,203.49692l-18.19619,2.26903l15.60999,-17.27941l43.38004,-25.46168l20.32726,-6.33364l-11.4492,17.26204z" data-paper-data="{&quot;origPos&quot;:null,&quot;origRot&quot;:0,&quot;index&quot;:null}" fill="url(#color-7)" stroke="#000000" stroke-width="0" stroke-linecap="round"/><path d="M270.375,178.76025c0,16.2924 -13.2076,29.5 -29.5,29.5c-16.2924,0 -29.5,-13.2076 -29.5,-29.5c0,-16.2924 13.2076,-29.5 29.5,-29.5c16.2924,0 29.5,13.2076 29.5,29.5z" data-paper-data="{&quot;origPos&quot;:null,&quot;index&quot;:null}" fill="url(#color-8)" stroke="none" stroke-width="0" stroke-linecap="butt"/><path d="M266.90004,186.35626l13.55844,14.9016l-20.09689,-3.09183l0.22808,-3.67471l1.16577,-3.1932l2.25552,-3.70006z" data-paper-data="{&quot;origPos&quot;:null,&quot;origRot&quot;:0,&quot;index&quot;:null}" fill="url(#color-9)" stroke="#000000" stroke-width="0" stroke-linecap="round"/><path d="M220.87499,184.09358l1.66667,4l0.66666,3.33334l-0.33333,3.66666h-20.33333l15.66666,-12.66666z" data-paper-data="{&quot;origPos&quot;:null,&quot;index&quot;:null}" fill="url(#color-10)" stroke="#000000" stroke-width="0" stroke-linecap="round"/><path d="M217.10232,175.82972l-11.73503,-16.37614l19.60148,5.40613l-0.65354,3.62332l-1.52892,3.03611l-2.67019,3.4129z" data-paper-data="{&quot;origPos&quot;:null,&quot;index&quot;:null,&quot;origRot&quot;:0}" fill="url(#color-11)" stroke="#000000" stroke-width="0" stroke-linecap="round"/><path d="M244.14595,200.18418l4.20762,-1.03622l3.39605,-0.14976l3.57274,0.88942l-3.10542,20.09479l-10.12537,-17.4174z" data-paper-data="{&quot;origPos&quot;:null,&quot;index&quot;:null,&quot;origRot&quot;:0}" fill="url(#color-12)" stroke="#000000" stroke-width="0" stroke-linecap="round"/><path d="M259.6379,159.19086l-3.92803,-1.82985l-2.74005,-2.01189l-2.22639,-2.93236l15.01478,-13.71133l-3.02728,19.91794z" data-paper-data="{&quot;origPos&quot;:null,&quot;index&quot;:null,&quot;origRot&quot;:0}" fill="url(#color-13)" stroke="#000000" stroke-width="0" stroke-linecap="round"/><path d="M242.00954,158.59393l-4.30286,0.51301l-3.38881,-0.26736l-3.43689,-1.32035l5.54347,-19.56308l7.91564,18.52651z" data-paper-data="{&quot;origPos&quot;:null,&quot;index&quot;:null,&quot;origRot&quot;:0}" fill="url(#color-14)" stroke="#000000" stroke-width="0" stroke-linecap="round"/><path d="M244.24193,181.71894c0,-5.94268 3.53689,-10.76017 7.89986,-10.76017c4.36298,0 7.89987,4.81749 7.89987,10.76016c0,5.94268 -3.53689,10.76017 -7.89987,10.76017c-4.36298,0 -7.89986,-4.81749 -7.89986,-10.76017z" data-paper-data="{&quot;origPos&quot;:null,&quot;index&quot;:null}" fill="#ffffff" stroke="none" stroke-width="0" stroke-linecap="butt"/><path d="M252.98955,181.048c0,-1.50547 0.77812,-2.72591 1.73797,-2.72591c0.95986,0 1.73797,1.22043 1.73797,2.72591c0,1.50547 -0.77811,2.72592 -1.73797,2.72592c-0.95986,0 -1.73797,-1.22043 -1.73797,-2.72592z" data-paper-data="{&quot;origPos&quot;:null,&quot;index&quot;:null}" fill="#000000" stroke="#854200" stroke-width="1.5" stroke-linecap="butt"/><path d="M237.56654,192.80192c-4.36298,0 -7.89987,-4.8175 -7.89987,-10.76017c0,-5.94268 3.53688,-10.76017 7.89987,-10.76017c4.36298,0 7.89988,4.81749 7.89988,10.76016c0,5.94268 -3.53689,10.76017 -7.89988,10.76017z" data-paper-data="{&quot;origPos&quot;:null,&quot;index&quot;:null}" fill="#ffffff" stroke="none" stroke-width="0" stroke-linecap="butt"/><path d="M241.64749,183.76338c-0.95986,0 -1.73797,-1.22044 -1.73797,-2.72591c0,-1.50547 0.77811,-2.72591 1.73797,-2.72591c0.95986,0 1.73798,1.22044 1.73798,2.72591c0,1.50547 -0.77812,2.72591 -1.73798,2.72591z" data-paper-data="{&quot;origPos&quot;:null,&quot;index&quot;:null}" fill="#000000" stroke="#854200" stroke-width="1.5" stroke-linecap="butt"/><path d="M244.72083,172.58957c-1.46,0 -2.78382,-0.69899 -3.74215,-1.82883c-0.95824,-1.12984 -1.55107,-2.69053 -1.55107,-4.4121c0,-1.72157 0.59284,-3.28227 1.55107,-4.41211c0.95833,-1.12984 2.28214,-1.82882 3.74215,-1.82882c1.46,0 2.78373,0.69898 3.74206,1.82882c0.95833,1.12984 1.55118,2.69054 1.55118,4.41211c0,1.72157 -0.59285,3.28226 -1.55118,4.4121c-0.95833,1.12984 -2.28206,1.82883 -3.74206,1.82883z" data-paper-data="{&quot;origPos&quot;:null,&quot;index&quot;:null}" id="ID0.2919205715879798" fill="#ffb197" stroke="none" stroke-width="0.99783" stroke-linecap="round"/><path d="M246.60615,167.92846c-0.41634,0.20138 -0.89593,0.17123 -1.33491,-0.03892c-0.43871,-0.21099 -0.83711,-0.60263 -1.08971,-1.12484c-0.2526,-0.52211 -0.31232,-1.07761 -0.20544,-1.55257c0.10781,-0.47458 0.38186,-0.86938 0.79819,-1.07066c0.41625,-0.20138 0.89583,-0.17123 1.33491,0.03884c0.43862,0.21108 0.83702,0.60274 1.08962,1.12485c0.2526,0.52221 0.31232,1.07769 0.20544,1.55265c-0.10781,0.47458 -0.38186,0.86928 -0.7981,1.07066z" data-paper-data="{&quot;origPos&quot;:null,&quot;index&quot;:null}" id="ID0.41036201547831297" fill="#a27060" stroke="none" stroke-width="0.73984" stroke-linecap="butt"/></g></g></svg>