<svg version="1.1" xmlns="http://www.w3.org/2000/svg" xmlns:xlink="http://www.w3.org/1999/xlink" width="143.7336" height="143.73361" viewBox="0,0,143.7336,143.73361"><defs><linearGradient x1="320" y1="113.32987" x2="320" y2="246.67017" gradientUnits="userSpaceOnUse" id="color-1"><stop offset="0" stop-color="#5ca5ed"/><stop offset="1" stop-color="#b8dfed"/></linearGradient><radialGradient cx="319.99999" cy="180" r="67.17002" gradientUnits="userSpaceOnUse" id="color-2"><stop offset="0" stop-color="#3c94ed" stop-opacity="0"/><stop offset="1" stop-color="#3c94ed"/></radialGradient><linearGradient x1="327.43425" y1="161.84112" x2="326.54794" y2="161.587" gradientUnits="userSpaceOnUse" id="color-3"><stop offset="0" stop-color="#8aa742"/><stop offset="0.1" stop-color="#8aa742"/><stop offset="0.25" stop-color="#b7ca33"/><stop offset="0.4045" stop-color="#b7ca33"/><stop offset="1" stop-color="#8aa742"/></linearGradient><linearGradient x1="332.19844" y1="145.01003" x2="331.34649" y2="144.95045" gradientUnits="userSpaceOnUse" id="color-4"><stop offset="0" stop-color="#83b641"/><stop offset="0.2" stop-color="#b7ca33"/><stop offset="0.525" stop-color="#b7ca33"/><stop offset="1" stop-color="#8aa742"/></linearGradient><linearGradient x1="369.597" y1="147.05234" x2="369.97789" y2="147.68624" gradientUnits="userSpaceOnUse" id="color-5"><stop offset="0" stop-color="#83b641"/><stop offset="1" stop-color="#595e48"/></linearGradient><linearGradient x1="370.57825" y1="147.54267" x2="370.33804" y2="147.82898" gradientUnits="userSpaceOnUse" id="color-6"><stop offset="0" stop-color="#8aa742"/><stop offset="1" stop-color="#595e48"/></linearGradient><linearGradient x1="370.93651" y1="147.77635" x2="370.93651" y2="148.38296" gradientUnits="userSpaceOnUse" id="color-7"><stop offset="0" stop-color="#8aa742"/><stop offset="1" stop-color="#767e47"/></linearGradient><linearGradient x1="360.49236" y1="180.8575" x2="359.66163" y2="180.79939" gradientUnits="userSpaceOnUse" id="color-8"><stop offset="0" stop-color="#767e47"/><stop offset="1" stop-color="#8aa742"/></linearGradient><linearGradient x1="360.88256" y1="180.93175" x2="360.34597" y2="181.5277" gradientUnits="userSpaceOnUse" id="color-9"><stop offset="0" stop-color="#767e47"/><stop offset="1" stop-color="#595e48"/></linearGradient><linearGradient x1="322.20926" y1="181.97807" x2="360.09697" y2="181.97807" gradientUnits="userSpaceOnUse" id="color-10"><stop offset="0" stop-color="#8aa742"/><stop offset="0.4" stop-color="#b7ca33"/><stop offset="1" stop-color="#8aa742"/></linearGradient><linearGradient x1="321.97847" y1="179.07739" x2="321.37853" y2="178.41102" gradientUnits="userSpaceOnUse" id="color-11"><stop offset="0" stop-color="#767e47"/><stop offset="0.1" stop-color="#767e47"/><stop offset="0.65" stop-color="#83b641"/><stop offset="1" stop-color="#8aa742"/></linearGradient><linearGradient x1="321.95862" y1="177.99913" x2="322.39532" y2="178.7869" gradientUnits="userSpaceOnUse" id="color-12"><stop offset="0" stop-color="#8aa742"/><stop offset="0.4045" stop-color="#83b641"/><stop offset="0.8" stop-color="#8aa742"/><stop offset="1" stop-color="#8aa742"/></linearGradient><linearGradient x1="365.3634" y1="164.11534" x2="364.48038" y2="163.86215" gradientUnits="userSpaceOnUse" id="color-13"><stop offset="0" stop-color="#595e48"/><stop offset="1" stop-color="#83b641"/></linearGradient><linearGradient x1="363.17345" y1="169.01307" x2="328.16091" y2="158.97338" gradientUnits="userSpaceOnUse" id="color-14"><stop offset="0" stop-color="#6fbc48"/><stop offset="0.3333" stop-color="#98c74f"/><stop offset="0.6666" stop-color="#80c046"/><stop offset="1" stop-color="#607d3a"/></linearGradient><linearGradient x1="269.06601" y1="211.0636" x2="306.16925" y2="211.0636" gradientUnits="userSpaceOnUse" id="color-15"><stop offset="0" stop-color="#76a5d8"/><stop offset="0.45" stop-color="#dae3ec"/><stop offset="1" stop-color="#3f87c7"/></linearGradient><clipPath id="clip-1"><path d="M306.16394,214.17745c-8.44587,-5.68598 -17.60248,-10.29286 -37.0944,-2.23537l9.456,-33.04974c19.49486,-8.06221 28.94084,-3.77179 37.37964,1.9466z" fill="none"/></clipPath><linearGradient x1="310.30472" y1="200.31676" x2="275.25122" y2="190.26529" gradientUnits="userSpaceOnUse" id="color-16"><stop offset="0" stop-color="#2e499e"/><stop offset="0.4" stop-color="#4496d1"/><stop offset="0.725" stop-color="#a5cded"/><stop offset="1" stop-color="#007fc4"/></linearGradient><linearGradient x1="278.53061" y1="178.66214" x2="278.53061" y2="178.9027" gradientUnits="userSpaceOnUse" id="color-17"><stop offset="0" stop-color="#76a5d8"/><stop offset="1" stop-color="#2e499e"/></linearGradient><clipPath id="clip-2"><path d="M289.83739,139.51129l-0.10726,-0.03065c0.04125,-0.14026 0.13791,-0.19036 0.17562,-0.20627l0.01591,-0.00471c0.00059,0.00059 -0.03536,0.07426 -0.08428,0.24163z" fill="none" fill-rule="nonzero"/></clipPath><clipPath id="clip-3"><path d="M289.83739,139.51129l-0.10726,-0.03065c0.04125,-0.14026 0.13791,-0.19036 0.17562,-0.20627l0.01591,-0.00471c0.00059,0.00059 -0.03536,0.07426 -0.08428,0.24163z" fill="none" fill-rule="nonzero"/></clipPath><clipPath id="clip-4"><path d="M289.83739,139.51129l-0.10726,-0.03065c0.04125,-0.14026 0.13791,-0.19036 0.17562,-0.20627l0.01591,-0.00471c0.00059,0.00059 -0.03536,0.07426 -0.08428,0.24163z" fill="none" fill-rule="nonzero"/></clipPath><clipPath id="clip-5"><path d="M289.83739,139.51129l-0.10726,-0.03065c0.04125,-0.14026 0.13791,-0.19036 0.17562,-0.20627l0.01591,-0.00471c0.00059,0.00059 -0.03536,0.07426 -0.08428,0.24163z" fill="none" fill-rule="nonzero"/></clipPath><clipPath id="clip-6"><path d="M289.83739,139.51129l-0.10726,-0.03065c0.04125,-0.14026 0.13791,-0.19036 0.17562,-0.20627l0.01591,-0.00471c0.00059,0.00059 -0.03536,0.07426 -0.08428,0.24163z" fill="none" fill-rule="nonzero"/></clipPath><clipPath id="clip-7"><path d="M289.83739,139.51129l-0.10726,-0.03065c0.04125,-0.14026 0.13791,-0.19036 0.17562,-0.20627l0.01591,-0.00471c0.00059,0.00059 -0.03536,0.07426 -0.08428,0.24163z" fill="none" fill-rule="nonzero"/></clipPath><clipPath id="clip-8"><path d="M289.83739,139.51129l-0.10726,-0.03065c0.04125,-0.14026 0.13791,-0.19036 0.17562,-0.20627l0.01591,-0.00471c0.00059,0.00059 -0.03536,0.07426 -0.08428,0.24163z" fill="none" fill-rule="nonzero"/></clipPath><clipPath id="clip-9"><path d="M289.83739,139.51129l-0.10726,-0.03065c0.04125,-0.14026 0.13791,-0.19036 0.17562,-0.20627l0.01591,-0.00471c0.00059,0.00059 -0.03536,0.07426 -0.08428,0.24163z" fill="none" fill-rule="nonzero"/></clipPath><clipPath id="clip-10"><path d="M289.83739,139.51129l-0.10726,-0.03065c0.04125,-0.14026 0.13791,-0.19036 0.17562,-0.20627l0.01591,-0.00471c0.00059,0.00059 -0.03536,0.07426 -0.08428,0.24163z" fill="none" fill-rule="nonzero"/></clipPath><clipPath id="clip-11"><path d="M289.83739,139.51129l-0.10726,-0.03065c0.04125,-0.14026 0.13791,-0.19036 0.17562,-0.20627l0.01591,-0.00471c0.00059,0.00059 -0.03536,0.07426 -0.08428,0.24163z" fill="none" fill-rule="nonzero"/></clipPath><clipPath id="clip-12"><path d="M289.83739,139.51129l-0.10726,-0.03065c0.04125,-0.14026 0.13791,-0.19036 0.17562,-0.20627l0.01591,-0.00471c0.00059,0.00059 -0.03536,0.07426 -0.08428,0.24163z" fill="none" fill-rule="nonzero"/></clipPath><clipPath id="clip-13"><path d="M289.83739,139.51129l-0.10726,-0.03065c0.04125,-0.14026 0.13791,-0.19036 0.17562,-0.20627l0.01591,-0.00471c0.00059,0.00059 -0.03536,0.07426 -0.08428,0.24163z" fill="none" fill-rule="nonzero"/></clipPath><clipPath id="clip-14"><path d="M289.83739,139.51129l-0.10726,-0.03065c0.04125,-0.14026 0.13791,-0.19036 0.17562,-0.20627l0.01591,-0.00471c0.00059,0.00059 -0.03536,0.07426 -0.08428,0.24163z" fill="none" fill-rule="nonzero"/></clipPath><clipPath id="clip-15"><path d="M289.83739,139.51129l-0.10726,-0.03065c0.04125,-0.14026 0.13791,-0.19036 0.17562,-0.20627l0.01591,-0.00471c0.00059,0.00059 -0.03536,0.07426 -0.08428,0.24163z" fill="none" fill-rule="nonzero"/></clipPath><clipPath id="clip-16"><path d="M289.83739,139.51129l-0.10726,-0.03065c0.04125,-0.14026 0.13791,-0.19036 0.17562,-0.20627l0.01591,-0.00471c0.00059,0.00059 -0.03536,0.07426 -0.08428,0.24163z" fill="none" fill-rule="nonzero"/></clipPath><clipPath id="clip-17"><path d="M289.83739,139.51129l-0.10726,-0.03065c0.04125,-0.14026 0.13791,-0.19036 0.17562,-0.20627l0.01591,-0.00471c0.00059,0.00059 -0.03536,0.07426 -0.08428,0.24163z" fill="none" fill-rule="nonzero"/></clipPath><linearGradient x1="280.21861" y1="171.67318" x2="317.51008" y2="171.67318" gradientUnits="userSpaceOnUse" id="color-18"><stop offset="0" stop-color="#faab4f"/><stop offset="0.25" stop-color="#faab4f"/><stop offset="0.475" stop-color="#fcc193"/><stop offset="0.525" stop-color="#fcc193"/><stop offset="0.75" stop-color="#f89c3e"/><stop offset="1" stop-color="#f89c3e"/></linearGradient><linearGradient x1="321.5172" y1="161.16833" x2="286.43216" y2="151.10784" gradientUnits="userSpaceOnUse" id="color-19"><stop offset="0" stop-color="#cd2b2b"/><stop offset="0.4" stop-color="#f2692a"/><stop offset="0.725" stop-color="#fcb544"/><stop offset="1" stop-color="#f37237"/></linearGradient><linearGradient x1="350.09571" y1="220.07294" x2="349.89711" y2="220.81427" gradientUnits="userSpaceOnUse" id="color-20"><stop offset="0" stop-color="#d4a52e"/><stop offset="1" stop-color="#a87c3c"/></linearGradient><linearGradient x1="359.43714" y1="187.59232" x2="359.43714" y2="188.20241" gradientUnits="userSpaceOnUse" id="color-21"><stop offset="0.0056" stop-color="#c19236"/><stop offset="1" stop-color="#d4a52e"/></linearGradient><linearGradient x1="358.08207" y1="186.87121" x2="358.46591" y2="187.51005" gradientUnits="userSpaceOnUse" id="color-22"><stop offset="0.0056" stop-color="#ffcd02"/><stop offset="1" stop-color="#a87c3c"/></linearGradient><linearGradient x1="359.08206" y1="187.36101" x2="358.8471" y2="187.641" gradientUnits="userSpaceOnUse" id="color-23"><stop offset="0.0056" stop-color="#ffcd02"/><stop offset="1" stop-color="#a87c3c"/></linearGradient><linearGradient x1="349.32249" y1="219.73395" x2="348.48999" y2="219.67578" gradientUnits="userSpaceOnUse" id="color-24"><stop offset="0" stop-color="#c19236"/><stop offset="1" stop-color="#ffcd02"/></linearGradient><linearGradient x1="316.20422" y1="200.71675" x2="315.33287" y2="200.46687" gradientUnits="userSpaceOnUse" id="color-25"><stop offset="0" stop-color="#d4a52e"/><stop offset="0.1" stop-color="#d4a52e"/><stop offset="0.2" stop-color="#ffc222"/><stop offset="0.35" stop-color="#ffc222"/><stop offset="1" stop-color="#d4a52e"/></linearGradient><linearGradient x1="353.99722" y1="203.45277" x2="353.17178" y2="203.21609" gradientUnits="userSpaceOnUse" id="color-26"><stop offset="0" stop-color="#a87c3c"/><stop offset="1" stop-color="#ffd200"/></linearGradient><linearGradient x1="349.66898" y1="219.64242" x2="349.25425" y2="220.57388" gradientUnits="userSpaceOnUse" id="color-27"><stop offset="0" stop-color="#c19236"/><stop offset="1" stop-color="#d4a52e"/></linearGradient><linearGradient x1="311.05666" y1="220.74862" x2="348.92593" y2="220.74862" gradientUnits="userSpaceOnUse" id="color-28"><stop offset="0" stop-color="#d4a52e"/><stop offset="0.4" stop-color="#ffd200"/><stop offset="1" stop-color="#d4a52e"/></linearGradient><linearGradient x1="310.79453" y1="217.94234" x2="310.18449" y2="217.26484" gradientUnits="userSpaceOnUse" id="color-29"><stop offset="0" stop-color="#d4a52e"/><stop offset="0.1" stop-color="#d4a52e"/><stop offset="0.7" stop-color="#ffd200"/><stop offset="1" stop-color="#d4a52e"/></linearGradient><linearGradient x1="310.81238" y1="216.80509" x2="311.24401" y2="217.58379" gradientUnits="userSpaceOnUse" id="color-30"><stop offset="0" stop-color="#d4a52e"/><stop offset="0.4" stop-color="#ffc222"/><stop offset="0.8" stop-color="#ffcd02"/><stop offset="1" stop-color="#d4a52e"/></linearGradient><clipPath id="clip-18"><path d="M320.89515,184.24297c8.43526,5.67714 17.57537,9.61159 36.98713,2.92844l-9.25444,32.16514c-17.07914,7.5094 -28.60727,2.99975 -37.24704,-2.22182z" fill="none"/></clipPath><linearGradient x1="352.03294" y1="207.78308" x2="316.94184" y2="197.72088" gradientUnits="userSpaceOnUse" id="color-31"><stop offset="0" stop-color="#ffc907"/><stop offset="0.1667" stop-color="#ffd200"/><stop offset="0.3333" stop-color="#ffd952"/><stop offset="0.625" stop-color="#ffcd02"/><stop offset="1" stop-color="#b77a36"/></linearGradient><clipPath id="clip-19"><path d="M320.89515,184.24297c8.43526,5.67714 17.57537,9.61159 36.98713,2.92844l-9.25444,32.16514c-17.07914,7.5094 -28.60727,2.99975 -37.24704,-2.22182z"/></clipPath><linearGradient x1="320.92874" y1="184.05804" x2="320.06182" y2="183.99739" gradientUnits="userSpaceOnUse" id="color-32"><stop offset="0" stop-color="#ffc222"/><stop offset="0.2" stop-color="#ffc222"/><stop offset="0.525" stop-color="#ffd200"/><stop offset="1" stop-color="#d4a52e"/></linearGradient></defs><g transform="translate(-248.1332,-108.13322)"><g data-paper-data="{&quot;isPaintingLayer&quot;:true}" stroke-linecap="butt" stroke-linejoin="miter" stroke-miterlimit="10" stroke-dasharray="" stroke-dashoffset="0" style="mix-blend-mode: normal"><path d="M320,110.13323c19.2752,0 36.74421,7.8268 49.3899,20.47689c12.64989,12.64569 20.4769,30.11449 20.4769,49.38991c0,19.27542 -7.82701,36.74421 -20.4769,49.38991c-12.64569,12.65009 -30.1147,20.4769 -49.3899,20.4769c-19.27542,0 -36.74442,-7.8268 -49.39012,-20.4769c-12.64989,-12.64569 -20.47668,-30.11449 -20.47668,-49.38991c0,-19.27542 7.82679,-36.74421 20.47668,-49.38991c12.64569,-12.6501 30.11471,-20.47689 49.39012,-20.47689z" data-paper-data="{&quot;origPos&quot;:null}" fill="#3c94ed" fill-rule="nonzero" stroke="#23568d" stroke-width="4"/><path d="M319.99995,113.32987c18.3943,0 35.0619,7.4711 47.1305,19.5397c12.0686,12.0686 19.5397,28.7362 19.5397,47.1305c0,18.3943 -7.4711,35.0618 -19.5397,47.1305c-12.0686,12.0686 -28.7362,19.5396 -47.1305,19.5396c-18.3943,0 -35.0618,-7.471 -47.1305,-19.5396c-12.0686,-12.0687 -19.5396,-28.7362 -19.5396,-47.1305c0,-18.3943 7.471,-35.0619 19.5396,-47.1305c12.0687,-12.0686 28.7362,-19.5397 47.1305,-19.5397z" data-paper-data="{&quot;origPos&quot;:null}" fill="url(#color-1)" fill-rule="nonzero" stroke="none" stroke-width="1.3334"/><path d="M303.49904,114.88833c17.96432,-4.5526 36.09141,-1.38139 50.86489,7.41812c14.77348,8.79951 26.19518,23.22838 30.74778,41.19271c4.55261,17.96432 1.38136,36.0913 -7.41811,50.86488c-8.79951,14.77348 -23.22841,26.19508 -41.19273,30.74768c-17.96432,4.55261 -36.09128,1.38146 -50.86485,-7.41801c-14.7735,-8.7996 -26.19508,-23.22841 -30.74768,-41.19272c-4.5526,-17.96432 -1.38149,-36.09137 7.41801,-50.86486c8.7996,-14.7735 23.22838,-26.19517 41.1927,-30.74778zM330.45435,221.25236c23.24803,-5.89163 37.31819,-29.51398 31.42655,-52.76202c-5.89162,-23.24803 -29.51398,-37.31818 -52.76201,-31.42655c-23.24803,5.89163 -37.31818,29.51398 -31.42655,52.76201c5.89163,23.24803 29.51398,37.31819 52.76201,31.42655z" data-paper-data="{&quot;origPos&quot;:null,&quot;origRot&quot;:0}" fill="url(#color-2)" fill-rule="nonzero" stroke="none" stroke-width="1.3334"/><g stroke="none" stroke-width="1"><g fill="none" fill-rule="nonzero"><path d="M292.33738,213.36239"/></g><g><g><path d="M369.38389,147.36428c-19.44594,8.04099 -28.7994,3.53547 -37.22523,-2.13578c0.01945,-0.07426 0.05422,-0.21806 -0.00236,-0.35596c8.42583,5.67242 17.96669,10.23747 37.41146,2.19766c-0.12907,0.11846 -0.12907,0.17739 -0.18387,0.29408z" fill="#83b641" fill-rule="nonzero"/><path d="M331.36776,145.13244l-9.49725,32.9908l-0.73196,0.57932l0.00059,-0.07603l9.53438,-32.99788z" fill="#8aa742" fill-rule="evenodd"/><path d="M322.58597,178.49158c-0.29585,-0.16561 -0.50919,-0.49917 -0.77204,-0.39604l9.52083,-32.94837c0.14616,-0.06542 0.5145,-0.19154 0.86221,0.08251z" fill="url(#color-3)" fill-rule="nonzero"/><path d="M331.45734,144.91851l-0.09783,0.23574l-0.69425,0.50153c0.05893,-0.22513 0.58816,-0.60054 0.75141,-0.71428c0.03065,-0.02122 0.04066,-0.02299 0.04066,-0.02299z" fill="#8aa742" fill-rule="evenodd"/><path d="M332.16396,145.20611c-0.36009,-0.22218 -0.68482,-0.11433 -0.83215,-0.05068c0.02298,-0.07013 0.08546,-0.21393 0.08546,-0.21393c0.31294,-0.19802 0.44908,-0.20745 0.74139,-0.06778c0.03772,0.10903 0.05363,0.21393 0.0053,0.33239z" fill="url(#color-4)" fill-rule="nonzero"/><path d="M370.10524,147.60944c0,0 -0.21747,-0.29998 -0.73786,-0.20391c0.04597,-0.12317 0.04597,-0.23868 0.20038,-0.33592c0.31294,-0.04715 0.46499,0.03536 0.53159,0.0996c0.03713,0.03654 0.04833,0.0666 0.04833,0.0666c0.04184,0.18387 -0.04243,0.37364 -0.04243,0.37364z" fill="url(#color-5)" fill-rule="evenodd"/><path d="M370.09994,147.16921l0.76909,0.61704c0.04597,0.20627 -0.05304,0.41549 -0.05304,0.41549l-0.77145,-0.6194c0,0 0.09665,-0.22984 0.0554,-0.41313z" fill="url(#color-6)" fill-rule="evenodd"/><path d="M370.84546,148.16284l-9.66875,33.1511l-0.72961,-0.64415l9.61336,-33.13107z" fill="#595e48" fill-rule="evenodd"/><path d="M361.3653,181.55381c0.02063,-0.18918 -0.18093,-0.34535 -0.18093,-0.34535l9.65107,-33.07567c0,0 0.15323,0.13791 0.19448,0.23751z" fill="#767e47" fill-rule="evenodd"/><path d="M371.02757,148.38266c0,0 -0.03477,-0.09488 -0.1992,-0.23338c0.07485,-0.31117 0.02534,-0.37364 0.02534,-0.37364l0.01473,0.01002c0,0.00059 0.24163,0.22042 0.15912,0.597z" fill="url(#color-7)" fill-rule="evenodd"/><path d="M361.04293,181.86262c-5.19682,2.35973 -10.11548,3.57731 -14.68288,3.9757c-7.88717,0.8958 -14.26504,-0.81978 -19.476,-3.37929c-2.02616,-0.92998 -3.86078,-1.98255 -5.48383,-3.07578l0.08781,-0.07603c1.64544,1.10737 3.43881,2.18941 5.39543,3.1518c5.29465,2.43104 11.90177,4.03582 19.476,3.37929c4.31399,-0.48798 9.07941,-1.76096 14.35344,-4.10006c0.14852,0.11964 0.33003,0.12435 0.33003,0.12435z" fill="#595e48" fill-rule="evenodd"/><path d="M359.99331,181.24735c0,0 -0.37188,-0.33357 -0.3041,-0.82213c0.49976,-0.12789 0.81978,0.18859 0.81978,0.18859c0,0 -0.09194,0.44967 -0.51567,0.63354z" fill="url(#color-8)" fill-rule="nonzero"/><path d="M360.50898,180.61439l0.69896,0.60997c0,0 -0.10726,0.38248 -0.53159,0.56872l-0.71016,-0.6082c0.42551,-0.18623 0.54279,-0.57048 0.54279,-0.57048z" fill="url(#color-9)" fill-rule="evenodd"/><path d="M359.80472,180.4152c-0.06778,0.48915 0.29231,0.8463 0.29231,0.8463c-19.44948,8.04158 -29.46948,3.30621 -37.88765,-2.39627c0.14792,-0.10844 0.17091,-0.10726 0.26697,-0.45026c8.41699,5.70366 21.13971,9.69999 37.32836,2.00023z" fill="url(#color-10)" fill-rule="nonzero"/><path d="M321.49215,179.34141l0.72312,-0.48326c8.4217,5.42195 18.36922,10.11135 37.79807,2.30433l0.70309,0.61056c-18.65446,8.22958 -30.58865,3.64626 -39.22428,-2.43163z" fill="#767e47" fill-rule="evenodd"/><path d="M361.3653,181.55381c-0.09665,0.17739 -0.26579,0.27876 -0.32237,0.30822c-0.01179,0.00707 -0.01945,0.00707 -0.01945,0.00707c0,0 -0.1326,0.01827 -0.30941,-0.09665c0.38013,-0.20745 0.49033,-0.62176 0.49033,-0.62176c0,0 0.221,0.18447 0.16089,0.40311z" fill="#767e47" fill-rule="evenodd"/><path d="M321.51867,179.33198l-0.08663,0.07131c0,0 -0.47383,-0.25578 -0.29231,-0.77675c0.04243,0.51214 0.37895,0.70544 0.37895,0.70544z" fill="#767e47" fill-rule="evenodd"/><path d="M321.13913,178.62654l0.69778,-0.55162c-0.04066,0.53159 0.41902,0.75259 0.41902,0.75259l-0.70957,0.54573c0,0 -0.44731,-0.21393 -0.40723,-0.7467z" fill="url(#color-11)" fill-rule="nonzero"/><path d="M321.82159,178.07492c0.23868,-0.07249 0.45438,0.17504 0.7467,0.40193c-0.09488,0.34418 -0.17857,0.28524 -0.32649,0.39486c-0.17327,-0.10372 -0.4644,-0.3595 -0.4202,-0.79679z" fill="url(#color-12)" fill-rule="nonzero"/><path d="M359.71278,180.49004l9.62514,-33.11457c0.52039,-0.09606 0.76909,0.19861 0.76909,0.19861l-9.59744,33.04031c-0.00059,0 -0.38484,-0.29467 -0.79679,-0.12435z" fill="url(#color-13)" fill-rule="nonzero"/><g fill="none" fill-rule="nonzero" font-family="sans-serif" font-weight="normal" font-size="12" text-anchor="start"/></g><path d="M359.80707,180.5201c-18.65682,8.35216 -28.82062,3.66276 -37.23937,-2.04089l9.59332,-33.27545c8.42701,5.67124 17.77693,10.19091 37.22287,2.1511z" fill="url(#color-14)" fill-rule="nonzero"/></g><g><g><path d="M269.75731,212.92274c0.06365,0.00943 0.18093,-0.04597 0.18093,-0.04597c0.13496,0.09194 0.24222,0.15677 0.24222,0.15677c0,0 -0.21098,0.05009 -0.42315,-0.1108z" fill="#313c7e" fill-rule="evenodd"/><path d="M305.83096,214.62594c0,0 0.12906,0.11963 0.27758,0.07838l-0.58286,0.34535c-0.18623,0.0831 -0.37777,-0.04833 -0.37777,-0.04833z" fill="#313c7e" fill-rule="nonzero"/><path d="M269.9459,212.8809c0,0 -0.11374,0.05775 -0.17798,0.04832l-0.63944,-0.48797l-0.01473,-0.01356c0.09253,0.03241 0.1992,0.01591 0.24222,0.00707z" fill="#313c7e" fill-rule="nonzero"/><path d="M306.15805,214.14975c0.0666,0.04833 0.13673,0.10137 0.20273,0.23456c-0.03713,0.17504 -0.18328,0.26461 -0.26579,0.32944c-0.11905,0.0277 -0.28583,-0.08545 -0.28583,-0.08545c0.09312,-0.07838 0.25224,-0.19095 0.34889,-0.47855z" fill="#2e499e" fill-rule="nonzero"/><g fill="#2e499e" fill-rule="evenodd"><g><path d="M278.43479,178.90294v-0.01061h0.19095v0.01061z"/></g></g><path d="M269.07779,212.01103l-0.10844,-0.0277l9.46661,-33.11633l0.10667,0.03006z" fill="#2e499e" fill-rule="evenodd"/><path d="M269.12848,212.44125c-0.12258,-0.10608 -0.20745,-0.2876 -0.15971,-0.45792l0.11374,-0.04361c-0.04774,0.24635 0.13319,0.42374 0.2652,0.49976c0.00118,-0.00059 -0.09548,0.04774 -0.21924,0.00177z" fill="#2e499e" fill-rule="evenodd"/><path d="M305.82507,214.64892c-8.44646,-5.68421 -17.19996,-10.02589 -36.46498,-2.19825c-0.1326,-0.07838 -0.33416,-0.26697 -0.28701,-0.51568c19.56146,-8.32682 28.64971,-3.46239 37.09617,2.22359c-0.08604,0.30174 -0.25106,0.41431 -0.34418,0.49033z" fill="url(#color-15)" fill-rule="nonzero"/><path d="M269.90759,212.85555c18.54307,-7.2495 26.85457,-3.3015 35.2969,2.13401c-5.05656,-3.25494 -10.26045,-5.86101 -17.441,-5.90521c-4.8055,-0.0277 -10.48499,1.19224 -17.59246,3.94801c0,0.00059 -0.14675,-0.05481 -0.26344,-0.1768z" fill="#313c7e" fill-rule="evenodd"/><path d="M305.83509,214.64657l-0.68305,0.35655c-8.44233,-5.43551 -16.98662,-9.19256 -35.20555,-2.12281l-0.60231,-0.43965c19.26502,-7.82883 28.04504,-3.48007 36.49091,2.20591z" fill="#2e499e" fill-rule="evenodd"/><path d="M306.15215,214.16802l9.74006,-33.33734c0.10431,0.07249 0.15971,0.12906 0.21393,0.19095l-9.7489,33.37859c-0.05481,-0.14026 -0.20509,-0.2322 -0.20509,-0.2322z" fill="#313c7e" fill-rule="evenodd"/><path d="M315.88809,180.84659c-8.43821,-5.71898 -17.9555,-9.85852 -37.36608,-1.93599c0.04833,-0.16561 0.08781,-0.24399 0.08781,-0.24399c19.49604,-8.06103 28.91078,-3.78122 37.3484,1.93835z" fill="#3f87c7" fill-rule="evenodd"/><g fill-rule="nonzero"><g clip-path="url(#clip-1)"><g><path d="M306.16748,214.24876c-8.44587,-5.68421 -17.62723,-10.35946 -37.11915,-2.29962l9.5444,-33.33734c19.49604,-8.06103 28.86187,-3.49952 37.29949,2.21946z" fill="url(#color-16)"/><path d="M306.16748,214.24876c-8.44587,-5.68421 -17.62723,-10.35946 -37.11915,-2.29962l9.5444,-33.33734c19.49604,-8.06103 28.86187,-3.49952 37.29949,2.21946z" fill="none"/></g></g></g><path d="M315.95528,180.60261l0.01591,0.00943c0.12023,0.08545 0.16914,0.25106 0.13496,0.40959l-0.00707,0.02063c-0.05363,-0.06129 -0.10962,-0.11964 -0.21334,-0.19213z" fill="#313c7e" fill-rule="evenodd"/></g><path d="M278.54146,178.90294l-0.10667,-0.03123c0.04066,-0.14026 0.13673,-0.18859 0.17504,-0.20509l0.01591,-0.00471c0.00059,0 -0.03536,0.07367 -0.08428,0.24104z" fill="url(#color-17)" fill-rule="evenodd"/></g><g><path d="M316.52399,175.55842c-7.91841,-5.21568 -17.33492,-9.20848 -35.38472,-1.83168l-0.67539,-0.47678c16.51868,-8.20895 27.64193,-4.25387 36.71663,2.04384z" fill="#d75329" fill-rule="evenodd"/><path d="M317.49876,174.80524l9.5886,-33.10572c0.10372,0.07072 0.15441,0.13909 0.20922,0.20038l-9.59273,33.13401c-0.05481,-0.13909 -0.20509,-0.22866 -0.20509,-0.22866z" fill="#ab4533" fill-rule="evenodd"/><path d="M281.14517,173.71614c3.07165,-1.26001 5.91641,-2.1953 8.55608,-2.8371c0.64003,-0.155 1.20874,-0.29526 1.88413,-0.4255c0.62176,-0.12376 1.23585,-0.24458 1.83639,-0.33298c0.94118,-0.1438 1.85407,-0.26226 2.7428,-0.33062c0.76025,-0.06011 1.49988,-0.10431 2.22418,-0.1108c0.70014,-0.00825 1.38437,0.00118 2.05268,0.03949c0.59524,0.03418 1.1775,0.0772 1.75093,0.14498c0.48444,0.05658 0.95827,0.1161 1.4268,0.19684c0.98951,0.16973 1.94542,0.37836 2.86951,0.64061c3.73172,1.05551 7.04618,2.85478 10.09367,4.88683c-0.02004,0.00943 -0.09311,-0.02122 -0.12494,-0.03831c-0.02947,-0.01414 -0.04302,-0.01532 -0.06896,-0.033c-4.12009,-2.61197 -8.54665,-4.88329 -14.00867,-5.55337c-5.5905,-0.68717 -12.10509,0.27522 -20.88217,3.75883c0,0 -0.2045,0.08663 -0.2823,0.10078c-0.07013,0.0112 -0.05717,-0.04243 -0.07013,-0.10667z" fill="#ab4533" fill-rule="evenodd"/><path d="M317.1652,175.28791c0,0 0.13024,0.09135 0.27758,0.05776l-0.60525,0.26697c-0.16325,0.04774 -0.35714,-0.05304 -0.35714,-0.05304z" fill="#ab4533" fill-rule="nonzero"/><path d="M281.15342,173.72203c0,0 0.03713,0.06188 0.06188,0.10196c-0.05952,0.00825 -0.0666,0.02357 -0.21334,-0.04184c-0.01945,-0.00766 -0.04891,-0.03183 -0.07308,-0.04243l-0.62647,-0.49269l-0.05658,-0.04656c0.08545,-0.00589 0.15087,0.03536 0.19389,0.02711z" fill="#ab4533" fill-rule="nonzero"/><path d="M317.50525,174.80642c0.06718,0.04479 0.14734,0.07131 0.20332,0.21039c-0.03713,0.17621 -0.18682,0.26461 -0.27051,0.32944c-0.14852,0.04184 -0.29526,-0.07249 -0.29526,-0.07249c0.0937,-0.07485 0.26579,-0.18093 0.36244,-0.46735z" fill="#d75329" fill-rule="nonzero"/><path d="M327.15161,141.48441l0.01178,0.00707c0.11846,0.08487 0.16796,0.25106 0.13378,0.40841l-0.00589,0.02122c-0.0554,-0.06188 -0.09076,-0.12317 -0.1992,-0.20509z" fill="#d75329" fill-rule="evenodd"/><path d="M280.2588,173.21814c-0.09076,-0.07131 -0.1821,-0.35007 -0.13496,-0.5198l0.1273,-0.0442c-0.04715,0.24576 0.1049,0.52569 0.23691,0.60172c0.00059,0 -0.09253,0.05245 -0.22926,-0.03772z" fill="#d75329" fill-rule="evenodd"/><g><g clip-path="url(#clip-2)"><rect x="491.61547" y="236.31443" transform="scale(0.58934,0.58934)" width="0.325" height="0.024" fill="#faaa4f" fill-rule="evenodd"/></g><g clip-path="url(#clip-3)"><rect x="491.61547" y="236.33843" transform="scale(0.58934,0.58934)" width="0.325" height="0.027" fill="#f6a34c" fill-rule="evenodd"/></g><g clip-path="url(#clip-4)"><rect x="491.61547" y="236.36543" transform="scale(0.58934,0.58934)" width="0.325" height="0.024" fill="#f39d48" fill-rule="evenodd"/></g><g clip-path="url(#clip-5)"><rect x="491.61547" y="236.39043" transform="scale(0.58934,0.58934)" width="0.325" height="0.027" fill="#f09745" fill-rule="evenodd"/></g><g clip-path="url(#clip-6)"><rect x="491.61547" y="236.41743" transform="scale(0.58934,0.58934)" width="0.325" height="0.025" fill="#ed9142" fill-rule="evenodd"/></g><g clip-path="url(#clip-7)"><rect x="491.61547" y="236.44243" transform="scale(0.58934,0.58934)" width="0.325" height="0.024" fill="#eb8c3f" fill-rule="evenodd"/></g><g clip-path="url(#clip-8)"><rect x="491.61547" y="236.46743" transform="scale(0.58934,0.58934)" width="0.325" height="0.025" fill="#e8863c" fill-rule="evenodd"/></g><g clip-path="url(#clip-9)"><rect x="491.61547" y="236.49243" transform="scale(0.58934,0.58934)" width="0.325" height="0.024" fill="#e68139" fill-rule="evenodd"/></g><g clip-path="url(#clip-10)"><rect x="491.61547" y="236.51743" transform="scale(0.58934,0.58934)" width="0.325" height="0.025" fill="#e57b37" fill-rule="evenodd"/></g><g clip-path="url(#clip-11)"><rect x="491.61547" y="236.54243" transform="scale(0.58934,0.58934)" width="0.325" height="0.025" fill="#e27634" fill-rule="evenodd"/></g><g clip-path="url(#clip-12)"><rect x="491.61547" y="236.56742" transform="scale(0.58934,0.58934)" width="0.325" height="0.026" fill="#e07132" fill-rule="evenodd"/></g><g clip-path="url(#clip-13)"><rect x="491.61547" y="236.59443" transform="scale(0.58934,0.58934)" width="0.325" height="0.025" fill="#df6b30" fill-rule="evenodd"/></g><g clip-path="url(#clip-14)"><rect x="491.61547" y="236.61943" transform="scale(0.58934,0.58934)" width="0.325" height="0.024" fill="#dc662e" fill-rule="evenodd"/></g><g clip-path="url(#clip-15)"><rect x="491.61547" y="236.64443" transform="scale(0.58934,0.58934)" width="0.325" height="0.027" fill="#db602c" fill-rule="evenodd"/></g><g clip-path="url(#clip-16)"><rect x="491.61547" y="236.67143" transform="scale(0.58934,0.58934)" width="0.325" height="0.024" fill="#d95a2a" fill-rule="evenodd"/></g><g clip-path="url(#clip-17)"><rect x="491.61547" y="236.69543" transform="scale(0.58934,0.58934)" width="0.325" height="0.027" fill="#d75329" fill-rule="evenodd"/></g></g><path d="M317.16284,175.29027c-5.19446,-3.39579 -10.05713,-6.20695 -17.75689,-6.42855c-5.63058,0.11139 -9.94692,0.82861 -18.92556,4.39473c-0.1326,-0.07544 -0.30057,-0.26344 -0.25401,-0.51037c7.77402,-3.31034 13.94561,-4.73832 19.06759,-4.68822c7.75575,0.0772 13.13232,3.32213 18.21599,6.74208c-0.08604,0.29939 -0.25342,0.41431 -0.34712,0.49033z" fill="url(#color-18)" fill-rule="nonzero"/><path d="M289.73307,139.47475l0.08899,0.02829l-9.57387,33.23184c-0.02181,-0.00943 -0.12376,-0.03654 -0.12376,-0.03654z" fill="#d75329" fill-rule="evenodd"/><path d="M327.08914,141.73783c-8.43231,-5.71368 -17.87947,-10.12549 -37.2765,-2.20886c0.04951,-0.16619 0.09312,-0.2546 0.09312,-0.2546c19.48307,-8.05454 28.82297,-3.49893 37.25705,2.21711z" fill="#f89c3e" fill-rule="evenodd"/><path d="M317.51291,174.81232c-5.08485,-3.42408 -10.55336,-6.62008 -18.31971,-6.67902c-5.12433,-0.03949 -11.22403,1.41619 -18.9674,4.61809l9.59627,-33.25188c19.48307,-8.05572 28.84124,-3.49657 37.27297,2.21829z" fill="url(#color-19)" fill-rule="nonzero"/></g><g><path d="M350.28094,220.48518c-0.0943,0.17504 -0.26461,0.27876 -0.32119,0.30822c-0.01238,0.00707 -0.02063,0.00707 -0.02063,0.00707c0,0 -0.16207,0.02063 -0.3094,-0.09665c0.38013,-0.20745 0.49269,-0.62411 0.49269,-0.62411c0,0 0.21924,0.18682 0.15853,0.40547z" fill="url(#color-20)" fill-rule="evenodd"/><path d="M350.28094,220.48518c0.02298,-0.18859 -0.17975,-0.34771 -0.17975,-0.34771l9.23382,-32.18576c0,0 0.15441,0.13555 0.19684,0.23692z" fill="#d4a52e" fill-rule="evenodd"/><path d="M359.52596,188.20218c0,0 -0.03006,-0.09194 -0.19566,-0.23043c0.07603,-0.31294 0.02299,-0.38013 0.02299,-0.38013l0.01473,0.00943c0.00059,0.00059 0.2434,0.22395 0.15794,0.60113z" fill="url(#color-21)" fill-rule="evenodd"/><path d="M358.6054,187.4266c0,0 -0.25578,-0.31058 -0.77557,-0.21393c0.0277,-0.11728 0.07131,-0.2599 0.23692,-0.32708c0.31412,-0.04833 0.46499,0.03477 0.53159,0.09901c0.03772,0.0389 0.04833,0.0666 0.04833,0.0666c0.04125,0.18446 -0.04126,0.37541 -0.04126,0.37541z" fill="url(#color-22)" fill-rule="evenodd"/><path d="M358.59833,186.9846l0.77027,0.61704c0.04479,0.20922 -0.03772,0.41666 -0.03772,0.41666l-0.76674,-0.61468c-0.00059,0 0.07544,-0.23515 0.03418,-0.41902z" fill="url(#color-23)" fill-rule="evenodd"/><path d="M358.56061,187.35529l0.78383,0.62588l-9.22262,32.17457l-0.03654,0.08781l-0.80917,-0.69778z" fill="#a87c3c" fill-rule="evenodd"/><path d="M348.82114,220.12332c0,0 -0.3707,-0.3318 -0.3041,-0.82213c0.49976,-0.12671 0.82213,0.18859 0.82213,0.18859c0,0 -0.09194,0.44731 -0.51803,0.63354z" fill="url(#color-24)" fill-rule="nonzero"/><path d="M357.86165,187.2445c-19.55203,6.66016 -28.54834,2.67974 -36.9836,-2.9974c0.02004,-0.07603 0.0719,-0.20038 0.01474,-0.34064c8.43526,5.67714 17.76455,9.55383 37.17337,2.97913c-0.14675,0.10137 -0.16561,0.23927 -0.2045,0.35891z" fill="#ffcd02" fill-rule="nonzero"/><path d="M320.09777,184.15516l-9.44186,32.84229l-0.73314,0.57991l0.00177,-0.07838l9.47958,-32.83934z" fill="#d4a52e" fill-rule="evenodd"/><path d="M311.45918,217.15363c-0.27522,-0.16325 -0.59583,-0.2876 -0.85867,-0.18211l9.46661,-32.8028c0.14734,-0.06188 0.4974,-0.15912 0.85631,0.09194z" fill="url(#color-25)" fill-rule="nonzero"/><path d="M348.54061,219.36838l9.28686,-32.16749c0.01709,-0.00471 0.04008,-0.0277 0.0554,-0.03006c0.49387,-0.05068 0.72312,0.21157 0.72312,0.21157l-9.26152,32.11681c-0.00059,0.00059 -0.39191,-0.30351 -0.80386,-0.13083z" fill="url(#color-26)" fill-rule="nonzero"/><path d="M349.95975,220.79341c-19.09234,8.16122 -31.33888,3.14237 -39.77414,-2.53712l0.0884,-0.07367c8.43526,5.67714 21.41612,10.40543 39.35511,2.48644c0.14852,0.11728 0.33062,0.12435 0.33062,0.12435z" fill="#a87c3c" fill-rule="evenodd"/><path d="M349.33799,219.49508l0.78618,0.66066c0,0 -0.10608,0.38189 -0.53159,0.56871l-0.79856,-0.66301c0.42551,-0.18623 0.54396,-0.56636 0.54396,-0.56636z" fill="url(#color-27)" fill-rule="evenodd"/><path d="M348.63255,219.29235c-0.0666,0.49033 0.29349,0.84512 0.29349,0.84512c-19.47011,8.05278 -29.44178,3.22547 -37.86938,-2.48644c0.14852,-0.10844 0.221,-0.20273 0.31589,-0.54337c0.01238,0.00707 0.13024,-0.01179 0.14203,-0.00471c8.69928,5.35712 19.83373,9.59096 37.11797,2.18941z" fill="url(#color-28)" fill-rule="nonzero"/><path d="M310.27755,218.21503l0.77911,-0.564c7.73041,4.82082 18.56488,10.10192 37.78511,2.38979l0.79443,0.66301c-17.86474,7.91251 -30.92339,3.1907 -39.35865,-2.48879z" fill="#c19236" fill-rule="evenodd"/><path d="M310.34356,218.24037l-0.0884,0.06188c0,0 -0.51273,-0.28288 -0.33062,-0.80327c0.04184,0.51332 0.41902,0.74139 0.41902,0.74139z" fill="#d4a52e" fill-rule="evenodd"/><path d="M309.92454,217.49898l0.73196,-0.59877c-0.04008,0.5363 0.47914,0.73432 0.47914,0.73432l-0.80386,0.61469c0.00059,0.00059 -0.4479,-0.2157 -0.40724,-0.75023z" fill="url(#color-29)" fill-rule="nonzero"/><path d="M310.60228,216.92143c0.26226,-0.10608 0.50801,0.01827 0.78442,0.17975c-0.09606,0.343 -0.15382,0.46263 -0.30233,0.57107c-0.17327,-0.10372 -0.52628,-0.31589 -0.48208,-0.75082z" fill="url(#color-30)" fill-rule="nonzero"/><g fill-rule="nonzero"><g clip-path="url(#clip-18)"><path d="M320.95113,184.03788c8.43526,5.67949 17.80521,10.20329 37.27179,2.15699l-9.59509,33.14109c-19.47011,8.05278 -28.82062,3.49244 -37.24704,-2.22182z" fill="url(#color-31)"/></g><g clip-path="url(#clip-19)" fill="none"><path d="M320.95113,184.03788c8.43526,5.67949 17.80521,10.20329 37.27179,2.15699l-9.59509,33.14109c-19.47011,8.05278 -28.82062,3.49244 -37.24704,-2.22182z"/></g></g><path d="M320.18911,183.9483l-0.10019,0.23456l-0.69425,0.50212c0.04479,-0.20922 0.57991,-0.59641 0.74493,-0.71134c0.02181,-0.0165 0.0495,-0.02534 0.0495,-0.02534z" fill="#ffcd02" fill-rule="evenodd"/><path d="M320.89632,184.24533c-0.3872,-0.22572 -0.70309,-0.08958 -0.85042,-0.02534c0.02298,-0.07131 0.10255,-0.25106 0.10255,-0.25106c0.31353,-0.20038 0.45615,-0.20037 0.74905,-0.06011c0.05658,0.1385 0.01945,0.2487 -0.00118,0.33651z" fill="url(#color-32)" fill-rule="nonzero"/></g></g></g></g></svg>