<svg version="1.1" xmlns="http://www.w3.org/2000/svg" xmlns:xlink="http://www.w3.org/1999/xlink" width="506.79595" height="274.07939" viewBox="0,0,506.79595,274.07939"><defs><linearGradient x1="221.66055" y1="235.39489" x2="221.90665" y2="277.64581" gradientUnits="userSpaceOnUse" id="color-1"><stop offset="0" stop-color="#c3e060"/><stop offset="1" stop-color="#6de01b"/></linearGradient><linearGradient x1="215.50005" y1="98.00001" x2="215.50005" y2="319.50001" gradientUnits="userSpaceOnUse" id="color-2"><stop offset="0" stop-color="#e49152"/><stop offset="1" stop-color="#9f6539"/></linearGradient><linearGradient x1="262.50005" y1="195.00003" x2="262.50005" y2="318.50001" gradientUnits="userSpaceOnUse" id="color-3"><stop offset="0" stop-color="#e49152"/><stop offset="1" stop-color="#9f6539"/></linearGradient><linearGradient x1="231.03683" y1="292.99825" x2="231.44379" y2="348.99676" gradientUnits="userSpaceOnUse" id="color-4"><stop offset="0" stop-color="#c3e060"/><stop offset="1" stop-color="#6de01b"/></linearGradient><linearGradient x1="239.42203" y1="292.99825" x2="239.86708" y2="348.99676" gradientUnits="userSpaceOnUse" id="color-5"><stop offset="0" stop-color="#c3e060"/><stop offset="1" stop-color="#6de01b"/></linearGradient></defs><g transform="translate(5.99997,-90.92065)"><g data-paper-data="{&quot;isPaintingLayer&quot;:true}" fill-rule="nonzero" stroke-linejoin="miter" stroke-miterlimit="10" stroke-dasharray="" stroke-dashoffset="0" style="mix-blend-mode: normal"><path d="M85.30337,249.69696h76.40987v51.30308h-76.40987z" data-paper-data="{&quot;origPos&quot;:null}" fill="#c06520" stroke="#663b00" stroke-width="2" stroke-linecap="butt"/><path d="M82.26862,238.99463c0.68815,-1.23931 2.80667,-2.2683 4.90176,-2.27138c29.137,-0.04271 64.84094,-0.09693 73.37671,-0.10944c2.84526,-0.00417 5.02473,1.39332 5.54076,2.25282c0.67382,1.1223 1.74984,3.44127 1.74984,7.09262c0,6.33076 0,9.89102 0,16.22178c0,0.67835 -0.34883,6.48697 -0.34659,7.16468l-5.56716,-9.27805l-6.60792,9.88675l-6.40762,-9.92553l-6.60352,10.18853l-8.9378,-9.10947l-2.89742,10.59074l-10.1513,-9.93652l-6.43582,10.10461l-5.38763,-10.51231l-7.06575,9.13221l-7.7416,-8.22646l-2.31882,8.32169l-7.14981,-8.23205l-4.08979,9.09298c0,0 0.17437,-15.53416 0.28597,-25.4768c0.04045,-3.60404 1.27566,-5.93075 1.8535,-6.9714z" data-paper-data="{&quot;origPos&quot;:null,&quot;origRot&quot;:0}" fill="url(#color-1)" stroke="#0f6600" stroke-width="2" stroke-linecap="butt"/><path d="M-4.99997,314.00003l315.47382,0.05631c-0.03973,16.64908 -0.03651,33.2984 0.099,49.94369h-315.57282z" data-paper-data="{&quot;origPos&quot;:null}" fill="#c06520" stroke="#763e13" stroke-width="2" stroke-linecap="butt"/><g data-paper-data="{&quot;origPos&quot;:null}" stroke="#7c4f2c"><g data-paper-data="{&quot;origPos&quot;:null}"><path d="M215.50005,98.00001h41v221.5h-41z" fill="url(#color-2)" stroke-width="2" stroke-linecap="butt"/><path d="M222.76635,91.90001h28.2695l4.7914,5.2l-0.0479,0.5l-39.0501,0.25l-0.1438,-0.5z" fill="#e49152" stroke-width="1.95873" stroke-linecap="round"/></g><g><path d="M262.50005,195.00003h41v123.5h-41z" data-paper-data="{&quot;origPos&quot;:null}" fill="url(#color-3)" stroke-width="2" stroke-linecap="butt"/><path d="M269.36636,189.30001h28.2695l4.7914,5.2l-0.0479,0.5l-39.0501,0.25l-0.1438,-0.5z" data-paper-data="{&quot;origPos&quot;:null}" fill="#e49152" stroke-width="1.95873" stroke-linecap="round"/></g></g><path d="M-2.36732,294.7693c0,0 292.08307,-0.34316 308.34859,-0.36226c5.42184,-0.00637 13.86666,7.06402 13.85225,11.59581c-0.04032,12.67995 -0.05911,19.81091 -0.04048,32.49092l-2.74789,2.85336l-13.80261,-11.89565l-13.64273,8.10373l-8.88037,-9.93289l-11.62733,14.08866l-12.78758,-8.88837l-7.74192,12.04423l-13.78076,-10.88089l-13.65003,9.09634l-5.98083,-13.96245l-10.70684,8.08146l-10.8449,-10.91802l-15.5564,14.11843l-16.73125,-12.87341l-9.70639,11.07396l-12.7949,-9.90319l-13.6282,10.10368l-5.96628,-12.95508l-13.62092,11.10365l-16.70944,-9.87349l-4.79143,14.03674l-21.60987,-10.83633l-7.74914,11.0591l-8.90943,-13.93279l-13.61367,12.10363l-12.80218,-10.90317l-3.8346,11.0294l-11.82354,-10.91059l-6.76323,12.05165z" data-paper-data="{&quot;origPos&quot;:null,&quot;origRot&quot;:0}" fill="url(#color-4)" stroke="#0f6600" stroke-width="2" stroke-linecap="butt"/><path d="M499.79599,314.08167v49.91836h-91.79595c0,-16.64456 0,-33.28911 0,-49.93366z" data-paper-data="{&quot;origPos&quot;:null}" fill="#c06520" stroke="#763e13" stroke-width="2" stroke-linecap="butt"/><path d="M424.00006,349.00005c0,-2.76142 2.23858,-5 5,-5c2.76142,0 5,2.23858 5,5c0,2.76142 -2.23858,5 -5,5c-2.76142,0 -5,-2.23858 -5,-5z" data-paper-data="{&quot;origPos&quot;:null}" fill="#e0bb60" stroke="none" stroke-width="0.5" stroke-linecap="butt"/><path d="M25.00003,354.00005c0,-2.76142 2.23858,-5 5,-5c2.76142,0 5,2.23858 5,5c0,2.76142 -2.23858,5 -5,5c-2.76142,0 -5,-2.23858 -5,-5z" data-paper-data="{&quot;origPos&quot;:null}" fill="#e0bb60" stroke="none" stroke-width="0.5" stroke-linecap="butt"/><path d="M107.00005,347.00005c0,-2.76142 2.23858,-5 5,-5c2.76142,0 5,2.23858 5,5c0,2.76142 -2.23858,5 -5,5c-2.76142,0 -5,-2.23858 -5,-5z" data-paper-data="{&quot;origPos&quot;:null}" fill="#e0bb60" stroke="none" stroke-width="0.5" stroke-linecap="butt"/><path d="M289.00005,346.00005c0,-2.76142 2.23858,-5 5,-5c2.76142,0 5,2.23858 5,5c0,2.76142 -2.23858,5 -5,5c-2.76142,0 -5,-2.23858 -5,-5z" data-paper-data="{&quot;origPos&quot;:null}" fill="#e0bb60" stroke="none" stroke-width="0.5" stroke-linecap="butt"/><path d="M182.00005,352.00005c0,-2.76142 2.23858,-5 5,-5c2.76142,0 5,2.23858 5,5c0,2.76142 -2.23858,5 -5,5c-2.76142,0 -5,-2.23858 -5,-5z" data-paper-data="{&quot;origPos&quot;:null}" fill="#e0bb60" stroke="none" stroke-width="0.5" stroke-linecap="butt"/><path d="" data-paper-data="{&quot;origPos&quot;:null}" fill="#e0bb60" stroke="none" stroke-width="0.5" stroke-linecap="butt"/><path d="M464.00006,355.00005c0,-2.76142 2.23858,-5 5,-5c2.76142,0 5,2.23858 5,5c0,2.76142 -2.23858,5 -5,5c-2.76142,0 -5,-2.23858 -5,-5z" data-paper-data="{&quot;origPos&quot;:null}" fill="#e0bb60" stroke="none" stroke-width="0.5" stroke-linecap="butt"/><path d="M495.8065,294.21966l0.30201,41.99896l-9.69598,-7.93295l-10.59935,13.0739l-11.87625,-12.91796l-9.54498,11.06653l-9.36307,-10.93534l-13.4534,13.0937l-15.41996,-10.89329l-4.52655,12.03179l-11.62896,-7.63963c0,-10.99189 0,-17.17347 0,-28.16536c0,-4.94753 8.53652,-12.6866 14.00033,-12.69247c16.39143,-0.01761 81.80614,-0.08788 81.80614,-0.08788z" data-paper-data="{&quot;origPos&quot;:null,&quot;origRot&quot;:0}" fill="url(#color-5)" stroke="#0f6600" stroke-width="2" stroke-linecap="butt"/></g></g></svg>