<svg version="1.1" xmlns="http://www.w3.org/2000/svg" xmlns:xlink="http://www.w3.org/1999/xlink" width="55.84677" height="53.54414"><defs><radialGradient cx="240.92145" cy="180.19803" r="36.75441" gradientUnits="userSpaceOnUse" id="color-1"><stop offset="0" stop-color="#fff343"/><stop offset="1" stop-color="#fff343" stop-opacity="0"/></radialGradient><radialGradient cx="239.36892" cy="182.58873" r="34.81323" gradientUnits="userSpaceOnUse" id="color-2"><stop offset="0" stop-color="#ffffff" stop-opacity="0"/><stop offset="1" stop-color="#ffffff"/></radialGradient><linearGradient x1="241.7727" y1="174.23864" x2="241.7727" y2="184.44175" gradientUnits="userSpaceOnUse" id="color-3"><stop offset="0" stop-color="#000000"/><stop offset="1" stop-color="#674205"/></linearGradient><linearGradient x1="233.18876" y1="174.19224" x2="233.18876" y2="184.39535" gradientUnits="userSpaceOnUse" id="color-4"><stop offset="0" stop-color="#000000"/><stop offset="1" stop-color="#674205"/></linearGradient></defs><g transform="translate(-212.07662,-153.22793)"><g data-paper-data="{&quot;isPaintingLayer&quot;:true}" fill="none" fill-rule="nonzero" stroke="none" stroke-width="none" stroke-linecap="none" stroke-linejoin="miter" stroke-miterlimit="10" stroke-dasharray="" stroke-dashoffset="0" font-family="none" font-weight="none" font-size="none" text-anchor="none" style="mix-blend-mode: normal"><path d="M213.06679,174.88768l-0.99017,-1.27803l0.85821,-2.62344l1.51829,-0.67261h15.64496l6.86539,-15.80763l1.51829,-1.27803l1.51829,0.06719l1.84829,1.41259l7.39342,15.40405l15.84308,-0.26903l1.58436,0.94173l1.25418,1.54715l-1.25418,2.75791l-9.04376,10.69541l2.64051,16.21122l0.13196,2.55607l-1.65025,0.87445l-2.90462,-0.53805l-15.18291,-10.76269l-12.93846,12.108l-2.90453,0.53814l-2.11249,-1.14357l-0.72606,-3.16149l1.51829,-15.06774z" data-paper-data="{&quot;origPos&quot;:null}" id="ID0.3117544511333108" fill="url(#color-1)" stroke-width="1.43627" stroke-linecap="round"/><path d="M216.13947,175.67239l-0.8867,-1.12315l0.76847,-2.3056l1.3597,-0.59113h14.01067l6.14815,-13.89244l1.3597,-1.12324l1.3597,0.05911l1.65526,1.24147l6.62105,13.53776l14.1881,-0.23645l1.41881,0.82758l1.12315,1.3597l-1.12315,2.42383l-8.09907,9.39956l2.36471,14.24712l0.11823,2.24649l-1.47792,0.76847l-2.60117,-0.47291l-13.59687,-9.45867l-11.58684,10.64103l-2.60117,0.47291l-1.89172,-1.00502l-0.65025,-2.77851l1.3596,-13.2421z" data-paper-data="{&quot;origPos&quot;:null}" id="ID0.3117544511333108" fill="url(#color-2)" stroke-width="1.27408" stroke-linecap="round"/><g data-paper-data="{&quot;origPos&quot;:null}" id="ID0.4398073833435774" stroke-width="2.7674"><path d="M243.85976,174.23957c0.65164,-0.02515 1.30105,0.51429 1.57462,1.17957c0.49629,1.20741 0.54965,2.64692 0.51253,3.99139c-0.02552,1.24101 -0.22263,2.52396 -0.69572,3.63365c-0.27135,0.65127 -0.76058,1.40313 -1.39143,1.39756c-0.60756,-0.00557 -1.12473,-0.47523 -1.45862,-1.31933c-0.42669,-1.06775 -0.62844,-2.34792 -0.62844,-3.85164c0,-1.50381 0.15535,-2.73359 0.62844,-3.85164c0.31069,-0.73794 0.90442,-1.20472 1.45862,-1.17957z" id="ID0.6670762049034238" fill="url(#color-3)" stroke-linecap="round"/><path d="M243.9611,175.03004c0.3363,0 0.64004,0.1649 0.86034,0.4304c0.22031,0.26559 0.35718,0.63178 0.35718,1.03703c0,0.40525 -0.13688,0.77144 -0.35718,1.03694c-0.22031,0.26559 -0.52404,0.4305 -0.86034,0.4305c-0.33621,0 -0.64004,-0.1649 -0.86034,-0.4305c-0.22031,-0.2655 -0.35709,-0.63169 -0.35709,-1.03694c0,-0.40525 0.13679,-0.77144 0.35709,-1.03703c0.22031,-0.2655 0.52413,-0.4304 0.86034,-0.4304z" id="ID0.2271407265216112" fill="#ffffff" stroke-linecap="butt"/></g><g data-paper-data="{&quot;origPos&quot;:null}" id="ID0.4398073833435774" stroke-width="2.7674"><path d="M235.27581,174.19317c0.65164,-0.02515 1.30105,0.51429 1.57462,1.17957c0.49629,1.20741 0.54965,2.64692 0.51253,3.99139c-0.02552,1.24101 -0.22263,2.52396 -0.69572,3.63365c-0.27135,0.65127 -0.76058,1.40313 -1.39143,1.39756c-0.60756,-0.00557 -1.12473,-0.47523 -1.45862,-1.31933c-0.42669,-1.06775 -0.62844,-2.34792 -0.62844,-3.85164c0,-1.50381 0.15535,-2.73359 0.62844,-3.85164c0.31069,-0.73794 0.90442,-1.20472 1.45862,-1.17957z" id="ID0.6670762049034238" fill="url(#color-4)" stroke-linecap="round"/><path d="M235.42355,174.93724c0.3363,0 0.64004,0.1649 0.86034,0.4304c0.22031,0.26559 0.35718,0.63178 0.35718,1.03703c0,0.40525 -0.13688,0.77144 -0.35718,1.03694c-0.22031,0.26559 -0.52404,0.4305 -0.86034,0.4305c-0.33621,0 -0.64004,-0.1649 -0.86034,-0.4305c-0.22031,-0.2655 -0.35709,-0.63169 -0.35709,-1.03694c0,-0.40525 0.13679,-0.77144 0.35709,-1.03703c0.22031,-0.2655 0.52413,-0.4304 0.86034,-0.4304z" id="ID0.2271407265216112" fill="#ffffff" stroke-linecap="butt"/></g></g></g></svg>