<svg version="1.1" xmlns="http://www.w3.org/2000/svg" xmlns:xlink="http://www.w3.org/1999/xlink" width="441.55828" height="69.66968" viewBox="0,0,441.55828,69.66968"><defs><linearGradient x1="24.5327" y1="284.2076" x2="24.5327" y2="341.819" gradientUnits="userSpaceOnUse" id="color-1"><stop offset="0" stop-color="#ffffff"/><stop offset="1" stop-color="#ffffff"/></linearGradient><radialGradient cx="433.55778" cy="324.91029" r="18.72682" gradientUnits="userSpaceOnUse" id="color-2"><stop offset="0" stop-color="#ffff00"/><stop offset="1" stop-color="#ff9400"/></radialGradient><radialGradient cx="437.13623" cy="326.02495" r="12.81669" gradientUnits="userSpaceOnUse" id="color-3"><stop offset="0" stop-color="#bda501"/><stop offset="1" stop-color="#c07801"/></radialGradient></defs><g transform="translate(-18.50356,-278.17846)"><g data-paper-data="{&quot;isPaintingLayer&quot;:true}" fill="none" fill-rule="nonzero" stroke="none" stroke-width="none" stroke-linecap="butt" stroke-linejoin="miter" stroke-miterlimit="10" stroke-dasharray="" stroke-dashoffset="0" font-family="none" font-weight="none" font-size="none" text-anchor="none" style="mix-blend-mode: normal"><path d="M24.5327,284.2076h429.5v57.6114h-429.5z" data-paper-data="{&quot;origPos&quot;:null}" id="ID0.3184669064357877" fill="#ffffff" stroke="url(#color-1)" stroke-width="12.05828"/><text transform="translate(25.78827,322.12447) scale(0.7218,0.72179)" font-size="22" xml:space="preserve" data-paper-data="{&quot;origPos&quot;:null}" id="ID0.08681221166625619" fill="#2492d1" fill-rule="nonzero" stroke="none" stroke-width="1" stroke-linecap="butt" stroke-linejoin="miter" stroke-miterlimit="10" stroke-dasharray="" stroke-dashoffset="0" font-family="Sans Serif" font-weight="400" text-anchor="start" style="mix-blend-mode: normal"><tspan x="0" dy="0">Defeat Spearhead.</tspan></text><g data-paper-data="{&quot;origPos&quot;:null}" id="text24" fill="#2392d1" stroke="none" stroke-width="0.26458"><path d="M35.82388,285.36359c2.91787,1.47514 4.41732,2.21271 4.49836,2.21271c0,0.12969 -0.60789,1.30089 -1.82367,3.5136h-0.08511c-0.09727,0 -1.4954,-0.66057 -4.19442,-1.98172l-1.37382,1.83583c2.32619,1.11852 5.15084,2.54502 8.47397,4.27953c-1.50757,2.68281 -2.57745,4.46596 -3.20966,5.34943l-6.86913,0.60789c-3.1367,-2.11544 -4.79422,-3.20965 -4.97253,-3.2826v-0.08511c0,-0.22694 0.63626,-1.26846 1.90876,-3.12455h0.15806c0.50253,0.29989 2.07898,1.1631 4.72939,2.58961l1.60482,-1.82365c-4.87121,-2.48019 -7.57023,-3.88238 -8.09707,-4.2066v-0.07295c1.5481,-3.01512 2.39101,-4.54295 2.5288,-4.58348c4.02827,-0.81863 6.26937,-1.22793 6.72326,-1.22793z" id="path810"/><path d="M48.71111,289.04738c0.25127,1.03747 0.42552,1.67778 0.52278,1.92094c3.58249,-0.81863 5.47504,-1.22794 5.67768,-1.22794c2.43966,3.50954 3.65948,5.34131 3.65948,5.49531l-2.79629,5.93299l-6.01809,-0.96046v0.18237c0.4701,3.6068 0.70515,5.52368 0.70515,5.75062c-0.05674,0 -0.0851,0.02837 -0.0851,0.08511c-0.58358,-0.05674 -1.02126,-0.08511 -1.31305,-0.08511h-1.04557c-0.60789,0 -1.53998,-0.02836 -2.79629,-0.0851c-0.11348,-0.34041 -0.98479,-5.51558 -2.61392,-15.52548c0.27558,-0.11348 2.30997,-0.60789 6.10321,-1.48324zM49.14879,294.01991c0.1621,1.8642 0.308,2.79629 0.43767,2.79629c1.66156,0.57546 2.67875,0.86319 3.05159,0.86319l0.96046,-4.18227h-0.08511c-0.94831,0.05674 -2.40318,0.231 -4.36464,0.52279z" id="path812"/><path d="M66.71678,289.04738c3.67164,1.88851 5.70606,2.99081 6.10321,3.30691c-0.52684,2.46397 -0.83888,3.73244 -0.93615,3.80539h-7.68371v0.13373l2.15193,2.66256l3.37987,-1.72641c0.33231,0.57546 0.81052,1.5805 1.43462,3.01512c-0.29179,0.09727 -2.41939,0.40931 -6.38284,0.93615c-3.2826,-2.16408 -4.93607,-3.2907 -4.96038,-3.37987c0.52684,-4.2066 0.83888,-6.30989 0.93615,-6.30989c3.42849,-1.45893 5.41426,-2.2735 5.95732,-2.44372zM65.92652,291.98957c-0.06484,0.1621 -0.49441,0.80645 -1.28871,1.93309c0,0.34041 0.4782,0.51063 1.43462,0.51063c0,0.04864 0.693,0.16616 2.07897,0.35257c0.38094,-0.52684 0.57141,-0.83483 0.57141,-0.92399c-0.12158,-0.72137 -0.38499,-1.08203 -0.79026,-1.08203z" id="path814"/><path d="M75.77431,289.03522c4.81447,0.66463 7.22172,1.07394 7.22172,1.22794c1.89661,1.62915 2.84491,2.50044 2.84491,2.61392c-0.76999,2.40723 -1.20766,3.87022 -1.31304,4.38895c0.76999,1.7102 1.20766,2.73145 1.31304,3.06375c0,0.09727 -1.2563,0.35663 -3.7689,0.7781c-0.03243,-0.13779 -0.26342,-0.44579 -0.693,-0.92399c-3.46902,0.66463 -5.33725,0.99695 -5.60473,0.99695l-1.84798,-4.99684l4.07285,-2.15193c0.65652,0.10538 1.68183,0.15806 3.07592,0.15806c0,-0.17831 0.02431,-0.71731 0.07295,-1.61699c-0.23505,0 -2.3343,0.154 -6.29773,0.46199l-0.07295,-0.15806c0.55115,-2.56124 0.88347,-3.84185 0.99695,-3.84185zM78.30312,296.184c0,0.08915 0.25936,1.03747 0.77809,2.84493h0.07295c1.02125,-0.66463 1.53188,-1.10231 1.53188,-1.31305l0.15806,-1.30087c-0.19452,0 -1.04151,-0.07699 -2.54097,-0.23099z" id="path816"/><path d="M95.73737,289.03522c1.60482,0.89968 2.5896,1.48324 2.95434,1.75072c-1.31304,2.73145 -2.01818,4.12149 -2.11544,4.17011h-0.08511l-1.73857,-1.51973l-2.05466,2.5045l0.23099,4.55917c-0.10538,0.09727 -1.44678,0.3242 -4.02423,0.68085c-0.09727,-0.69704 -0.72946,-4.11338 -1.89661,-10.24901c0,-0.09727 1.69398,-0.34851 5.08195,-0.75378c0.05674,0.06484 0.21074,0.82267 0.46199,2.27351c2.02629,-2.27756 3.08808,-3.41634 3.18534,-3.41634z" id="path818"/><path d="M109.34191,283.33323l0.04862,0.09726l-0.34041,4.47406h-0.04864c-1.58862,-0.07295 -2.38292,-0.17021 -2.38292,-0.29179l-0.68083,-3.93912c0,-0.06484 1.13473,-0.17831 3.40418,-0.34041z" id="path820"/><path d="M117.43899,289.04738c3.67164,1.88851 5.70605,2.99081 6.1032,3.30691c-0.52684,2.46397 -0.83888,3.73244 -0.93615,3.80539h-7.68371v0.13373l2.15193,2.66256l3.37987,-1.72641c0.33231,0.57546 0.81052,1.5805 1.43462,3.01512c-0.29179,0.09727 -2.41939,0.40931 -6.38284,0.93615c-3.2826,-2.16408 -4.93607,-3.2907 -4.96038,-3.37987c0.52684,-4.2066 0.83888,-6.30989 0.93615,-6.30989c3.42849,-1.45893 5.41426,-2.2735 5.9573,-2.44372zM116.64873,291.98957c-0.06484,0.1621 -0.49441,0.80645 -1.28871,1.93309c0,0.34041 0.4782,0.51063 1.43462,0.51063c0,0.04864 0.693,0.16616 2.07898,0.35257c0.38094,-0.52684 0.5714,-0.83483 0.5714,-0.92399c-0.12158,-0.72137 -0.38499,-1.08203 -0.79026,-1.08203z" id="path822"/><path d="M138.15583,289.03522c1.97765,0.81863 3.68379,1.58862 5.11841,2.30997c-0.37284,4.82259 -0.61195,7.46081 -0.71731,7.91471c-2.38293,0.59168 -3.71622,0.88753 -3.99992,0.88753c0,-1.05367 -0.08105,-3.13265 -0.24315,-6.23694c-0.89968,0.08915 -1.34951,0.16616 -1.34951,0.23099c0,0.308 0.05267,2.06682 0.15806,5.27647c0.04864,0 0.07295,0.02837 0.07295,0.08511c0,0.09727 -1.25225,0.36472 -3.75674,0.80242c-0.10538,-0.12969 -0.42552,-2.10329 -0.96046,-5.92083c-1.01314,0.25936 -1.51973,0.44579 -1.51973,0.55925l0.48632,4.96038c-0.09727,0.10538 -1.43056,0.5309 -3.99992,1.27656c-1.49136,-5.27647 -2.42345,-8.81844 -2.79629,-10.62588c2.8125,-0.69704 4.38491,-1.04557 4.71721,-1.04557c0.37284,1.47514 0.55925,2.32619 0.55925,2.55314h0.0851c1.36978,-1.2644 2.32619,-2.11544 2.86924,-2.55314h0.08511l2.55314,1.83583h0.08511c1.59672,-1.53998 2.44776,-2.30997 2.55314,-2.30997z" id="path824"/></g><g stroke="none"><text transform="translate(283,338.98128) scale(0.60677,0.60677)" font-size="40" xml:space="preserve" data-paper-data="{&quot;origPos&quot;:null}" fill="#2392d1" fill-rule="nonzero" stroke="none" stroke-width="1" stroke-linecap="butt" stroke-linejoin="miter" stroke-miterlimit="10" stroke-dasharray="" stroke-dashoffset="0" font-family="Sans Serif" font-weight="normal" text-anchor="start" style="mix-blend-mode: normal"><tspan x="0" dy="0">Reward:   +5</tspan></text><path d="M438.22633,321.71811c2.42757,0 4.62707,0.98611 6.21986,2.5789c1.5928,1.59272 2.57884,3.79221 2.57884,6.21979c0,2.4275 -0.98603,4.62709 -2.57884,6.21981c-1.5928,1.5928 -3.79229,2.5789 -6.21986,2.5789c-2.4275,0 -4.62699,-0.98611 -6.2198,-2.5789c-1.5928,-1.59272 -2.5789,-3.79231 -2.5789,-6.21981c0,-2.42757 0.98611,-4.62706 2.5789,-6.21979c1.5928,-1.5928 3.7923,-2.5789 6.2198,-2.5789z" data-paper-data="{&quot;origPos&quot;:null}" id="ID0.7142658131197095" fill="url(#color-2)" stroke-width="0.48028"/><path d="M436.38196,323.73549h3.47092v13.31086h-3.47092z" data-paper-data="{&quot;origPos&quot;:null}" id="ID0.06001657713204622" fill="url(#color-3)" stroke-width="0.59798"/></g></g></g></svg>