<svg version="1.1" xmlns="http://www.w3.org/2000/svg" xmlns:xlink="http://www.w3.org/1999/xlink" width="37.3383" height="37.3383"><g transform="translate(-221.33085,-161.33085)"><g data-paper-data="{&quot;isPaintingLayer&quot;:true}" fill="none" fill-rule="nonzero" stroke="none" stroke-width="none" stroke-linecap="none" stroke-linejoin="miter" stroke-miterlimit="10" stroke-dasharray="" stroke-dashoffset="0" font-family="none" font-weight="none" font-size="none" text-anchor="none" style="mix-blend-mode: normal"><path d="M240.00005,161.33085c5.1503,0 9.8172,2.0925 13.1969,5.4722c3.3797,3.3797 5.4722,8.0466 5.4722,13.1969c0,5.1504 -2.0925,9.8173 -5.4722,13.197c-3.3797,3.3797 -8.0466,5.4722 -13.1969,5.4722c-5.1504,0 -9.8173,-2.0925 -13.197,-5.4722c-3.3797,-3.3797 -5.4722,-8.0466 -5.4722,-13.197c0,-5.1503 2.0925,-9.8172 5.4722,-13.1969c3.3797,-3.3797 8.0466,-5.4722 13.197,-5.4722z" data-paper-data="{&quot;origPos&quot;:null}" id="ID0.451763151679188" fill="#a1f3f9" stroke="none" stroke-width="1.53972" stroke-linecap="butt"/><path d="M237.31885,164.94695c4.1426,-0.6697 8.1684,0.4066 11.3263,2.6855c3.1578,2.279 5.4477,5.7607 6.1174,9.9033c0.6696,4.1426 -0.4066,8.1685 -2.6856,11.3263c-2.279,3.1578 -5.7606,5.4477 -9.9033,6.1174c-4.1426,0.6697 -8.1684,-0.4066 -11.3263,-2.6856c-3.1578,-2.2789 -5.4477,-5.7606 -6.1174,-9.9032c-0.6696,-4.1426 0.4066,-8.1685 2.6856,-11.3263c2.279,-3.1579 5.7606,-5.4477 9.9033,-6.1174z" data-paper-data="{&quot;origPos&quot;:null}" id="ID0.451763151679188" fill="#a1f3f9" stroke="none" stroke-width="1.25453" stroke-linecap="butt"/><path d="M232.53175,166.86115l6.8288,9.443l-9.1318,0.554z" data-paper-data="{&quot;origPos&quot;:null}" id="ID0.3377200220711529" fill="#296cdb" stroke="none" stroke-width="1.1379" stroke-linecap="round"/><path d="M233.00179,172.96037c1.10085,-1.07326 2.46939,-1.90453 4.0435,-2.37821c5.22248,-1.57154 10.73013,1.38814 12.30167,6.61062c1.57154,5.22248 -1.38814,10.73013 -6.61062,12.30167c-3.9711,1.19497 -8.10709,-0.22994 -10.55209,-3.27745" data-paper-data="{&quot;origPos&quot;:null,&quot;origRot&quot;:0}" fill="none" stroke="#296cdb" stroke-width="3.5" stroke-linecap="butt"/></g></g></svg>