<svg xmlns="http://www.w3.org/2000/svg" xmlns:xlink="http://www.w3.org/1999/xlink" version="1.1" width="508.04470346225037" height="53.14235971225038" viewBox="-0.04657809859879436 -0.19569670087464275 508.04470346225037 53.14235971225038">
  <defs>
    <linearGradient id="grad_1" y2="1" x2="0">
      <stop offset="0" stop-color="#7E7E7E" stop-opacity="1"/>
      <stop offset="1" stop-color="#6B6B6B" stop-opacity="1"/>
    </linearGradient>
  <linearGradient id="grad_1-,0,0,1.2147800922393799,9.5,-391.8" y2="45.5208" x2="9.5" x1="9.5" y1="0.574" gradientUnits="userSpaceOnUse">
      <stop offset="0" stop-color="#7E7E7E" stop-opacity="1"/>
      <stop offset="1" stop-color="#6B6B6B" stop-opacity="1"/>
    </linearGradient></defs>
  <!-- Exported by Scratch - http://scratch.mit.edu/ -->
  <path id="ID0.0465476862154901" fill="url(#grad_1-,0,0,1.2147800922393799,9.5,-391.8)" stroke="none" d="M 9.5 0.574 L 489.5 0.574 L 489.5 45.5208 L 9.5 45.5208 L 9.5 0.574 Z " stroke-width="1.112584979338908"/>
  <path id="ID0.2121359179727733" fill="#B2B2B2" stroke="none" d="M 33.5714 4.4581 C 37.6076 4.8085 41.1553 5.8596 43.6266 7.275 C 46.0977 8.6918 47.4909 10.4715 47.2201 12.2779 C 46.9494 14.0843 45.0654 15.5795 42.2385 16.5363 C 39.4118 17.4919 35.6443 17.9079 31.608 17.5575 C 27.5717 17.2071 24.024 16.156 21.5527 14.7406 C 19.0816 13.3238 17.6884 11.5441 17.9592 9.7377 C 18.2299 7.9313 20.114 6.4361 22.9408 5.4793 C 25.7675 4.5237 29.5351 4.1077 33.5714 4.4581 Z " stroke-width="1.538293998435069"/>
  <path id="ID0.9847204415127635" fill="#B2B2B2" stroke="none" d="M 41.0725 25.1234 C 44.1586 25.3914 46.8127 26.5878 48.6075 28.3055 C 50.4023 30.0232 51.3363 32.2606 50.9843 34.6093 C 50.6322 36.9581 49.0601 38.9779 46.8031 40.3439 C 44.5462 41.7098 41.6062 42.4206 38.5201 42.1527 C 35.4339 41.8848 32.7798 40.6884 30.985 38.9707 C 29.1902 37.253 28.2562 35.0156 28.6082 32.6668 C 28.9603 30.3181 30.5324 28.2982 32.7894 26.9323 C 35.0464 25.5664 37.9863 24.8555 41.0725 25.1234 Z " stroke-width="1.538293998435069"/>
  <path id="ID0.823922164272517" fill="#B2B2B2" stroke="none" d="M 77.8013 4.1507 C 80.2936 4.367 82.4106 5.5169 83.8147 7.2006 C 85.2205 8.8845 85.9136 11.1011 85.5615 13.4498 C 85.2095 15.7985 83.8784 17.8393 82.0104 19.239 C 80.1441 20.6389 77.7412 21.3963 75.2489 21.18 C 72.7565 20.9636 70.6395 19.8138 69.2354 18.13 C 67.8296 16.4461 67.1366 14.2296 67.4886 11.8808 C 67.8406 9.5321 69.1718 7.4913 71.0397 6.0916 C 72.906 4.6918 75.3089 3.9343 77.8013 4.1507 Z " stroke-width="1.538293998435069"/>
  <path id="ID0.2855191840790212" fill="#B2B2B2" stroke="none" d="M 91.9056 30.3519 C 95.8232 30.692 99.1927 32.2106 101.4691 34.3907 C 103.7475 36.5697 104.9329 39.4102 104.486 42.3916 C 104.0392 45.3731 102.0437 47.9374 99.179 49.6699 C 96.3159 51.4039 92.5836 52.306 88.6661 51.9659 C 84.7485 51.6259 81.379 50.1072 79.1026 47.9271 C 76.8242 45.7481 75.6388 42.9076 76.0857 39.9262 C 76.5325 36.9447 78.528 34.3804 81.3927 32.6479 C 84.2558 30.9139 87.9881 30.0118 91.9056 30.3519 Z " stroke-width="1.538293998435069"/>
  <path id="ID0.5948176933452487" fill="#B2B2B2" stroke="none" d="M 102.5062 15.7676 C 105.9487 16.0665 108.9483 17.1443 111.011 18.645 C 113.0755 20.1459 114.2031 22.0684 113.9053 24.0556 C 113.6074 26.0428 111.9398 27.7227 109.4843 28.8312 C 107.0305 29.9398 103.789 30.4759 100.3465 30.177 C 96.904 29.8782 93.9044 28.8003 91.8417 27.2996 C 89.7772 25.7987 88.6496 23.8762 88.9474 21.889 C 89.2453 19.9018 90.9129 18.222 93.3684 17.1135 C 95.8222 16.0048 99.0637 15.4688 102.5062 15.7676 Z " stroke-width="1.538293998435069"/>
  <path id="ID0.6115419995039701" fill="#B2B2B2" stroke="none" d="M 56.7696 20.0299 C 58.4323 20.1743 59.8889 20.6351 60.8985 21.2628 C 61.9097 21.892 62.4741 22.6868 62.3521 23.5003 C 62.2302 24.3138 61.4452 24.9914 60.2738 25.4311 C 59.1043 25.8697 57.5488 26.069 55.8861 25.9247 C 54.2234 25.7803 52.7668 25.3195 51.7571 24.6917 C 50.746 24.0626 50.1816 23.2678 50.3035 22.4543 C 50.4254 21.6408 51.2105 20.9632 52.3819 20.5235 C 53.5513 20.0849 55.1069 19.8856 56.7696 20.0299 Z " stroke-width="1.538293998435069"/>
  <path id="ID0.8126871199347079" fill="#B2B2B2" stroke="none" d="M 64.4641 35.5356 C 65.4142 35.6181 66.1869 36.2797 66.6678 37.2822 C 67.1488 38.2847 67.338 39.6281 67.1212 41.0743 C 66.9045 42.5204 66.3226 43.7969 65.5573 44.6912 C 64.7921 45.5855 63.8435 46.0977 62.8934 46.0152 C 61.9433 45.9327 61.1706 45.2711 60.6897 44.2687 C 60.2088 43.2662 60.0195 41.9228 60.2363 40.4766 C 60.4531 39.0304 61.0349 37.7539 61.8002 36.8596 C 62.5654 35.9653 63.514 35.4532 64.4641 35.5356 Z " stroke-width="1.538293998435069"/>
  <path id="ID0.4613746702671051" fill="#B2B2B2" stroke="none" d="M 174.4437 34.7741 C 172.0547 34.7809 169.8829 33.495 168.3031 31.4111 C 166.725 29.3272 165.7407 26.4452 165.725 23.2625 C 165.7094 20.0798 166.6654 17.1923 168.2229 15.0995 C 169.7822 13.0066 171.9413 11.7084 174.3302 11.7016 C 176.7192 11.6948 178.891 12.9807 180.4708 15.0646 C 182.0489 17.1486 183.0332 20.0305 183.0489 23.2132 C 183.0645 26.3959 182.1085 29.2834 180.551 31.3762 C 178.9917 33.4691 176.8326 34.7673 174.4437 34.7741 Z " stroke-width="1.5393934036566341"/>
  <path id="ID0.9847204415127635" fill="#B2B2B2" stroke="none" d="M 204.4758 33.3965 C 201.3696 33.4054 198.5498 32.4536 196.5031 30.9076 C 194.4565 29.3616 193.1848 27.2227 193.1732 24.8588 C 193.1615 22.4948 194.4122 20.3488 196.4436 18.7912 C 198.475 17.2336 201.2854 16.2658 204.3915 16.2569 C 207.4977 16.2481 210.3175 17.1999 212.3642 18.7459 C 214.4108 20.2919 215.6825 22.4307 215.6941 24.7947 C 215.7057 27.1586 214.4551 29.3046 212.4237 30.8622 C 210.3923 32.4198 207.5819 33.3877 204.4758 33.3965 Z " stroke-width="1.5393934036566341"/>
  <path id="ID0.2855191840790212" fill="#B2B2B2" stroke="none" d="M 132.9176 31.9435 C 128.9747 31.9547 125.3948 30.7467 122.7986 28.7843 C 120.2008 26.8233 118.5867 24.1079 118.5719 21.1072 C 118.5572 18.1064 120.1445 15.3819 122.7231 13.4062 C 125.2998 11.4291 128.8677 10.2007 132.8106 10.1894 C 136.7535 10.1782 140.3334 11.3863 142.9296 13.3486 C 145.5274 15.3097 147.1415 18.025 147.1563 21.0258 C 147.171 24.0265 145.5836 26.751 143.0051 28.7268 C 140.4284 30.7039 136.8605 31.9323 132.9176 31.9435 Z " stroke-width="1.5393934036566341"/>
  <path id="ID0.5948176933452487" fill="#B2B2B2" stroke="none" d="M 134.505 51.3423 C 131.0403 51.3522 127.8955 50.549 125.6161 49.2423 C 123.3351 47.9356 121.9195 46.1268 121.9096 44.1267 C 121.8998 42.1267 123.2976 40.3098 125.5657 38.9902 C 127.8322 37.6706 130.969 36.8495 134.4338 36.8396 C 137.8985 36.8297 141.0433 37.6329 143.3227 38.9396 C 145.6037 40.2463 147.0193 42.0551 147.0292 44.0552 C 147.039 46.0553 145.6412 47.8721 143.3731 49.1917 C 141.1066 50.5114 137.9698 51.3325 134.505 51.3423 Z " stroke-width="1.5393934036566341"/>
  <path id="ID0.6115419995039701" fill="#B2B2B2" stroke="none" d="M 188.418 10.9716 C 186.7445 10.9764 185.2271 10.6485 184.1278 10.115 C 183.0269 9.5802 182.3441 8.8412 182.3401 8.0224 C 182.3361 7.2037 183.0115 6.4608 184.1072 5.9197 C 185.2012 5.38 186.7154 5.0435 188.3889 5.0387 C 190.0623 5.0339 191.5798 5.3619 192.679 5.8953 C 193.78 6.4301 194.4628 7.1692 194.4668 7.9879 C 194.4708 8.8066 193.7953 9.5495 192.6997 10.0906 C 191.6057 10.6303 190.0915 10.9669 188.418 10.9716 Z " stroke-width="1.5393934036566341"/>
  <path id="ID0.8126871199347079" fill="#B2B2B2" stroke="none" d="M 154.7147 21.6197 C 153.7585 21.6224 152.8894 21.0342 152.2575 20.0815 C 151.6257 19.1287 151.2312 17.8114 151.224 16.3559 C 151.2169 14.9003 151.5985 13.5808 152.2209 12.6244 C 152.8433 11.6681 153.7066 11.075 154.6629 11.0723 C 155.6192 11.0695 156.4883 11.6577 157.1201 12.6105 C 157.7519 13.5633 158.1464 14.8806 158.1536 16.3361 C 158.1607 17.7917 157.7792 19.1112 157.1567 20.0675 C 156.5343 21.0239 155.671 21.617 154.7147 21.6197 Z " stroke-width="1.5393934036566341"/>
  <path id="ID0.2121359179727733" fill="#B2B2B2" stroke="none" d="M 272.9808 5.1122 C 269.6382 5.4023 266.7003 6.2728 264.6537 7.445 C 262.6074 8.6182 261.4536 10.092 261.6779 11.588 C 261.9021 13.0839 263.4623 14.3221 265.8033 15.1145 C 268.1441 15.9058 271.2641 16.2503 274.6067 15.9602 C 277.9492 15.67 280.8871 14.7995 282.9337 13.6274 C 284.9801 12.4541 286.1338 10.9803 285.9096 9.4844 C 285.6854 7.9884 284.1251 6.7502 281.7842 5.9578 C 279.4433 5.1665 276.3233 4.822 272.9808 5.1122 Z " stroke-width="1.273899754486307"/>
  <path id="ID0.9847204415127635" fill="#B2B2B2" stroke="none" d="M 260.8322 23.3397 C 258.2764 23.5616 256.0785 24.5524 254.5922 25.9749 C 253.1059 27.3973 252.3324 29.2502 252.624 31.1952 C 252.9155 33.1403 254.2174 34.813 256.0865 35.9442 C 257.9555 37.0753 260.3902 37.664 262.9459 37.4421 C 265.5016 37.2202 267.6995 36.2294 269.1858 34.807 C 270.6722 33.3845 271.4456 31.5317 271.1541 29.5866 C 270.8626 27.6416 269.5607 25.9689 267.6916 24.8377 C 265.8226 23.7065 263.3879 23.1179 260.8322 23.3397 Z " stroke-width="1.273899754486307"/>
  <path id="ID0.823922164272517" fill="#B2B2B2" stroke="none" d="M 244.7044 5.9998 C 242.6405 6.179 240.8873 7.1312 239.7245 8.5255 C 238.5603 9.92 237.9864 11.7556 238.2779 13.7006 C 238.5695 15.6457 239.6718 17.3357 241.2187 18.4948 C 242.7642 19.6541 244.7542 20.2813 246.8181 20.1022 C 248.8821 19.923 250.6353 18.9708 251.798 17.5764 C 252.9622 16.1819 253.5361 14.3464 253.2446 12.4013 C 252.9531 10.4563 251.8507 8.7663 250.3038 7.6071 C 248.7583 6.4479 246.7684 5.8206 244.7044 5.9998 Z " stroke-width="1.273899754486307"/>
  <path id="ID0.2855191840790212" fill="#B2B2B2" stroke="none" d="M 228.4695 27.7391 C 225.2253 28.0207 222.435 29.2783 220.5498 31.0838 C 218.663 32.8882 217.6814 35.2405 218.0514 37.7095 C 218.4215 40.1785 220.074 42.3021 222.4463 43.7368 C 224.8173 45.1728 227.9081 45.9199 231.1523 45.6382 C 234.3965 45.3566 237.1869 44.099 239.0721 42.2935 C 240.9589 40.489 241.9405 38.1368 241.5705 35.6678 C 241.2004 33.1988 239.5479 31.0752 237.1756 29.6404 C 234.8046 28.2045 231.7137 27.4574 228.4695 27.7391 Z " stroke-width="1.273899754486307"/>
  <path id="ID0.6115419995039701" fill="#B2B2B2" stroke="none" d="M 230.4541 19.5553 C 229.0772 19.6748 227.8709 20.0564 227.0348 20.5763 C 226.1974 21.0973 225.7301 21.7555 225.831 22.4292 C 225.932 23.1028 226.5821 23.664 227.5522 24.0281 C 228.5206 24.3913 229.8088 24.5564 231.1858 24.4369 C 232.5627 24.3173 233.7689 23.9357 234.605 23.4158 C 235.4424 22.8948 235.9098 22.2366 235.8088 21.563 C 235.7078 20.8893 235.0577 20.3282 234.0877 19.964 C 233.1192 19.6008 231.831 19.4357 230.4541 19.5553 Z " stroke-width="1.273899754486307"/>
  <path id="ID0.8126871199347079" fill="#B2B2B2" stroke="none" d="M 246.6813 36.0483 C 245.8945 36.1166 245.2546 36.6644 244.8563 37.4946 C 244.4581 38.3248 244.3014 39.4373 244.4809 40.635 C 244.6604 41.8326 245.1422 42.8896 245.776 43.6302 C 246.4097 44.3708 247.1952 44.795 247.982 44.7267 C 248.7688 44.6584 249.4087 44.1105 249.807 43.2803 C 250.2052 42.4501 250.3619 41.3376 250.1824 40.14 C 250.0029 38.9424 249.5211 37.8853 248.8873 37.1447 C 248.2536 36.4041 247.4681 35.98 246.6813 36.0483 Z " stroke-width="1.273899754486307"/>
  <path id="ID0.2121359179727733" fill="#B2B2B2" stroke="none" d="M 295.0847 18.9175 C 299.1386 18.7172 302.875 19.2726 305.6371 20.3319 C 308.3993 21.3925 310.1853 22.9558 310.34 24.7701 C 310.4947 26.5844 308.9892 28.3103 306.4303 29.6337 C 303.8713 30.9557 300.2605 31.874 296.2065 32.0742 C 292.1526 32.2744 288.4162 31.719 285.6541 30.6598 C 282.8919 29.5992 281.1059 28.0358 280.9512 26.2215 C 280.7964 24.4072 282.302 22.6814 284.8609 21.358 C 287.4199 20.0359 291.0307 19.1177 295.0847 18.9175 Z " stroke-width="1.5390335314919952"/>
  <path id="ID0.9847204415127635" fill="#B2B2B2" stroke="none" d="M 324.1012 28.4366 C 327.2009 28.2835 330.0918 29.1025 332.2586 30.5506 C 334.4254 31.9987 335.8662 34.0745 336.0673 36.4335 C 336.2685 38.7925 335.1923 40.9926 333.2896 42.6416 C 331.3869 44.2907 328.6593 45.3872 325.5596 45.5403 C 322.46 45.6934 319.5691 44.8743 317.4023 43.4263 C 315.2355 41.9782 313.7946 39.9024 313.5935 37.5434 C 313.3923 35.1844 314.4686 32.9843 316.3713 31.3352 C 318.274 29.6862 321.0015 28.5897 324.1012 28.4366 Z " stroke-width="1.5390335314919952"/>
  <path id="ID0.823922164272517" fill="#B2B2B2" stroke="none" d="M 341.147 7.2579 C 343.6502 7.1343 346.0018 7.98 347.7761 9.4474 C 349.5522 10.9148 350.751 13.0026 350.9522 15.3616 C 351.1533 17.7206 350.3191 19.9087 348.8071 21.5385 C 347.2969 23.1681 345.1087 24.238 342.6054 24.3617 C 340.1022 24.4853 337.7507 23.6396 335.9763 22.1722 C 334.2002 20.7048 333.0014 18.617 332.8002 16.258 C 332.5991 13.899 333.4333 11.7109 334.9453 10.0811 C 336.4556 8.4515 338.6438 7.3816 341.147 7.2579 Z " stroke-width="1.5390335314919952"/>
  <path id="ID0.2855191840790212" fill="#B2B2B2" stroke="none" d="M 366.5607 30.4452 C 370.4953 30.2509 374.1654 31.2905 376.9141 33.1286 C 379.6643 34.9653 381.4931 37.6007 381.7485 40.5951 C 382.0038 43.5896 380.6379 46.3827 378.2226 48.4746 C 375.8092 50.5677 372.3464 51.9595 368.4118 52.1538 C 364.4771 52.3481 360.807 51.3086 358.0584 49.4705 C 355.3081 47.6337 353.4793 44.9984 353.224 42.0039 C 352.9686 39.0094 354.3346 36.2163 356.7498 34.1245 C 359.1633 32.0314 362.626 30.6396 366.5607 30.4452 Z " stroke-width="1.5390335314919952"/>
  <path id="ID0.5948176933452487" fill="#B2B2B2" stroke="none" d="M 365.0462 12.6837 C 368.5037 12.5129 371.707 13.1686 374.0869 14.367 C 376.4685 15.5653 378.0265 17.305 378.1967 19.3009 C 378.3669 21.2967 377.1174 23.1751 374.9593 24.5976 C 372.8029 26.0201 369.7377 26.9853 366.2802 27.1561 C 362.8227 27.3268 359.6194 26.6712 357.2395 25.4728 C 354.8579 24.2745 353.2999 22.5347 353.1297 20.5389 C 352.9595 18.543 354.209 16.6646 356.3671 15.2421 C 358.5235 13.8197 361.5886 12.8544 365.0462 12.6837 Z " stroke-width="1.5390335314919952"/>
  <path id="ID0.6115419995039701" fill="#B2B2B2" stroke="none" d="M 350.1209 25.9723 C 351.7909 25.8898 353.3318 26.1467 354.4718 26.6281 C 355.6136 27.1108 356.3543 27.8167 356.424 28.6337 C 356.4937 29.4508 355.879 30.2237 354.8288 30.8146 C 353.7801 31.4041 352.2957 31.8104 350.6258 31.8928 C 348.9558 31.9753 347.4149 31.7185 346.2749 31.237 C 345.1331 30.7544 344.3924 30.0484 344.3227 29.2314 C 344.253 28.4144 344.8676 27.6415 345.9179 27.0506 C 346.9666 26.461 348.4509 26.0548 350.1209 25.9723 Z " stroke-width="1.5390335314919952"/>
  <path id="ID0.8126871199347079" fill="#B2B2B2" stroke="none" d="M 319.7575 6.7395 C 320.7117 6.6924 321.6264 7.2391 322.3334 8.1607 C 323.0404 9.0824 323.5399 10.3789 323.6637 11.8314 C 323.7876 13.2839 323.5125 14.6187 322.9679 15.6022 C 322.4233 16.5856 321.6092 17.2177 320.6549 17.2649 C 319.7007 17.312 318.786 16.7653 318.079 15.8436 C 317.372 14.922 316.8725 13.6254 316.7487 12.1729 C 316.6248 10.7204 316.8999 9.3856 317.4445 8.4022 C 317.9891 7.4187 318.8032 6.7866 319.7575 6.7395 Z " stroke-width="1.5390335314919952"/>
  <path id="ID0.2121359179727733" fill="#B2B2B2" stroke="none" d="M 460.8355 47.1698 C 456.7731 47.1813 453.0881 46.4535 450.4161 45.2679 C 447.7441 44.081 446.0868 42.4377 446.0779 40.6195 C 446.0689 38.8014 447.71 37.1487 450.3703 35.9466 C 453.0306 34.7458 456.7083 33.997 460.7707 33.9855 C 464.8331 33.9739 468.5181 34.7018 471.1901 35.8873 C 473.8621 37.0743 475.5194 38.7176 475.5284 40.5357 C 475.5373 42.3538 473.8962 44.0066 471.2359 45.2086 C 468.5756 46.4094 464.8979 47.1582 460.8355 47.1698 Z " stroke-width="1.5393934036566341"/>
  <path id="ID0.4613746702671051" fill="#B2B2B2" stroke="none" d="M 447.0937 29.7741 C 444.7047 29.7809 442.5329 28.495 440.9531 26.4111 C 439.375 24.3272 438.3907 21.4452 438.375 18.2625 C 438.3594 15.0798 439.3154 12.1923 440.8729 10.0995 C 442.4322 8.0066 444.5913 6.7084 446.9802 6.7016 C 449.3692 6.6948 451.541 7.9807 453.1208 10.0646 C 454.6989 12.1486 455.6832 15.0305 455.6989 18.2132 C 455.7145 21.3959 454.7585 24.2834 453.201 26.3762 C 451.6417 28.4691 449.4826 29.7673 447.0937 29.7741 Z " stroke-width="1.5393934036566341"/>
  <path id="ID0.9847204415127635" fill="#B2B2B2" stroke="none" d="M 471.2258 22.3465 C 468.1196 22.3554 465.2998 21.4036 463.2531 19.8576 C 461.2065 18.3116 459.9348 16.1727 459.9232 13.8088 C 459.9115 11.4448 461.1622 9.2988 463.1936 7.7412 C 465.225 6.1836 468.0354 5.2158 471.1415 5.2069 C 474.2477 5.1981 477.0675 6.1499 479.1142 7.6959 C 481.1608 9.2419 482.4325 11.3807 482.4441 13.7447 C 482.4557 16.1086 481.2051 18.2546 479.1737 19.8122 C 477.1423 21.3698 474.3319 22.3377 471.2258 22.3465 Z " stroke-width="1.5393934036566341"/>
  <path id="ID0.2855191840790212" fill="#B2B2B2" stroke="none" d="M 407.1176 30.4435 C 403.1747 30.4547 399.5948 29.2467 396.9986 27.2843 C 394.4008 25.3233 392.7867 22.6079 392.7719 19.6072 C 392.7572 16.6064 394.3445 13.8819 396.9231 11.9062 C 399.4998 9.9291 403.0677 8.7007 407.0106 8.6894 C 410.9535 8.6782 414.5334 9.8863 417.1296 11.8486 C 419.7274 13.8097 421.3415 16.525 421.3563 19.5258 C 421.371 22.5265 419.7836 25.251 417.2051 27.2268 C 414.6284 29.2039 411.0605 30.4323 407.1176 30.4435 Z " stroke-width="1.5393934036566341"/>
  <path id="ID0.5948176933452487" fill="#B2B2B2" stroke="none" d="M 407.205 48.2423 C 403.7403 48.2522 400.5955 47.449 398.3161 46.1423 C 396.0351 44.8356 394.6195 43.0268 394.6096 41.0267 C 394.5998 39.0267 395.9976 37.2098 398.2657 35.8902 C 400.5322 34.5706 403.669 33.7495 407.1338 33.7396 C 410.5985 33.7297 413.7433 34.5329 416.0227 35.8396 C 418.3037 37.1463 419.7193 38.9551 419.7292 40.9552 C 419.739 42.9553 418.3412 44.7721 416.0731 46.0917 C 413.8066 47.4114 410.6698 48.2325 407.205 48.2423 Z " stroke-width="1.5393934036566341"/>
  <path id="ID0.6115419995039701" fill="#B2B2B2" stroke="none" d="M 423.168 35.6716 C 421.4945 35.6764 419.9771 35.3485 418.8778 34.815 C 417.7769 34.2802 417.0941 33.5412 417.0901 32.7224 C 417.0861 31.9037 417.7615 31.1608 418.8572 30.6197 C 419.9512 30.08 421.4654 29.7435 423.1389 29.7387 C 424.8123 29.7339 426.3298 30.0619 427.429 30.5953 C 428.53 31.1301 429.2128 31.8692 429.2168 32.6879 C 429.2208 33.5066 428.5453 34.2495 427.4497 34.7906 C 426.3557 35.3303 424.8415 35.6669 423.168 35.6716 Z " stroke-width="1.5393934036566341"/>
  <path id="ID0.8126871199347079" fill="#B2B2B2" stroke="none" d="M 427.4147 18.5197 C 426.4585 18.5224 425.5894 17.9342 424.9575 16.9815 C 424.3257 16.0287 423.9312 14.7114 423.924 13.2559 C 423.9169 11.8003 424.2985 10.4808 424.9209 9.5244 C 425.5433 8.5681 426.4066 7.975 427.3629 7.9723 C 428.3192 7.9695 429.1883 8.5577 429.8201 9.5105 C 430.4519 10.4633 430.8464 11.7806 430.8536 13.2361 C 430.8607 14.6917 430.4792 16.0112 429.8567 16.9675 C 429.2343 17.9239 428.371 18.517 427.4147 18.5197 Z " stroke-width="1.5393934036566341"/>
  <path id="ID0.4986496604979038" fill="#B1B1B1" stroke="none" d="M 113.75 2.6714 C 115.888 2.6714 117.826 3.0938 119.229 3.7765 C 120.632 4.4598 121.5 5.4028 121.5 6.4431 C 121.5 7.4835 120.632 8.4265 119.229 9.1098 C 117.826 9.7925 115.888 10.2149 113.75 10.2149 C 111.612 10.2149 109.674 9.7925 108.271 9.1098 C 106.868 8.4265 106 7.4835 106 6.4431 C 106 5.4028 106.868 4.4598 108.271 3.7765 C 109.674 3.0938 111.612 2.6714 113.75 2.6714 Z " stroke-width="0.835216291582585"/>
  <path id="ID0.7529608877375722" fill="#B1B1B1" stroke="none" d="M 219.5 5.6099 C 221.293 5.6099 222.918 6.1853 224.095 7.1153 C 225.272 8.0453 226 9.3299 226 10.747 C 226 12.1641 225.272 13.4487 224.095 14.3788 C 222.918 15.3088 221.293 15.8841 219.5 15.8841 C 217.707 15.8841 216.082 15.3088 214.905 14.3788 C 213.728 13.4487 213 12.1641 213 10.747 C 213 9.3299 213.728 8.0453 214.905 7.1153 C 216.082 6.1853 217.707 5.6099 219.5 5.6099 Z " stroke-width="0.8885936765230417"/>
  <path id="ID0.29071686742827296" fill="#B1B1B1" stroke="none" d="M 299.25 7.5457 C 300.974 7.5457 302.537 7.9719 303.668 8.6606 C 304.8 9.3502 305.5 10.3015 305.5 11.351 C 305.5 12.4004 304.8 13.3518 303.668 14.0413 C 302.537 14.73 300.974 15.1562 299.25 15.1562 C 297.526 15.1562 295.963 14.73 294.832 14.0413 C 293.7 13.3518 293 12.4004 293 11.351 C 293 10.3015 293.7 9.3502 294.832 8.6606 C 295.963 7.9719 297.526 7.5457 299.25 7.5457 Z " stroke-width="0.8885936765230417"/>
  <path id="ID0.15091485995799303" fill="#B1B1B1" stroke="none" d="M 382.75 4.5015 C 384.198 4.5015 385.511 4.9916 386.461 5.7839 C 387.412 6.5761 388 7.6705 388 8.8775 C 388 10.0846 387.412 11.179 386.461 11.9712 C 385.511 12.7635 384.198 13.2536 382.75 13.2536 C 381.302 13.2536 379.989 12.7635 379.039 11.9712 C 378.088 11.179 377.5 10.0846 377.5 8.8775 C 377.5 7.6705 378.088 6.5761 379.039 5.7839 C 379.989 4.9916 381.302 4.5015 382.75 4.5015 Z " stroke-width="0.8885936765230417"/>
  <path id="ID0.9847204415127635" fill="#B2B2B2" stroke="none" d="M 12.0258 40.7965 C 8.9196 40.8054 6.0998 39.8536 4.0531 38.3076 C 2.0065 36.7616 0.7348 34.6227 0.7232 32.2588 C 0.7115 29.8948 1.9622 27.7488 3.9936 26.1912 C 6.025 24.6336 8.8354 23.6658 11.9415 23.6569 C 15.0477 23.6481 17.8675 24.5999 19.9142 26.1459 C 21.9608 27.6919 23.2325 29.8307 23.2441 32.1947 C 23.2557 34.5586 22.0051 36.7046 19.9737 38.2622 C 17.9423 39.8198 15.1319 40.7877 12.0258 40.7965 Z " stroke-width="1.5393934036566341"/>
  <path id="ID0.2121359179727733" fill="#B2B2B2" stroke="none" d="M 492.5355 37.8698 C 488.4731 37.8813 484.7881 37.1535 482.1161 35.9679 C 479.4441 34.781 477.7868 33.1377 477.7779 31.3195 C 477.7689 29.5014 479.41 27.8487 482.0703 26.6466 C 484.7306 25.4458 488.4083 24.697 492.4707 24.6855 C 496.5331 24.6739 500.2181 25.4018 502.8901 26.5873 C 505.5621 27.7743 507.2194 29.4176 507.2284 31.2357 C 507.2373 33.0538 505.5962 34.7066 502.9359 35.9086 C 500.2756 37.1094 496.5979 37.8582 492.5355 37.8698 Z " stroke-width="1.5393934036566341"/>
</svg>