<svg version="1.1" xmlns="http://www.w3.org/2000/svg" xmlns:xlink="http://www.w3.org/1999/xlink" width="413.31751" height="49.61307" viewBox="0,0,413.31751,49.61307"><defs><linearGradient x1="251.53005" y1="90.9934" x2="251.53005" y2="450.9934" gradientUnits="userSpaceOnUse" id="color-1"><stop offset="0" stop-color="#05234d"/><stop offset="1" stop-color="#357abe"/></linearGradient><radialGradient cx="442.54795" cy="163.65951" r="388.16668" gradientUnits="userSpaceOnUse" id="color-2"><stop offset="0" stop-color="#1f5899"/><stop offset="1" stop-color="#1f5899" stop-opacity="0"/></radialGradient><linearGradient x1="-134.46996" y1="261.0291" x2="-134.46996" y2="455.0291" gradientUnits="userSpaceOnUse" id="color-3"><stop offset="0" stop-color="#69bdff" stop-opacity="0"/><stop offset="1" stop-color="#69bdff"/></linearGradient><linearGradient x1="-139.04146" y1="308.0403" x2="-139.04146" y2="545.3278" gradientUnits="userSpaceOnUse" id="color-4"><stop offset="0" stop-color="#1bd2f2"/><stop offset="1" stop-color="#1d557f"/></linearGradient><radialGradient cx="258.51681" cy="308.65725" r="1004.64232" gradientUnits="userSpaceOnUse" id="color-5"><stop offset="0" stop-color="#bce7f7"/><stop offset="1" stop-color="#1bafe5"/></radialGradient><linearGradient x1="-139.04146" y1="308.0403" x2="-139.04146" y2="545.3278" gradientUnits="userSpaceOnUse" id="color-6"><stop offset="0" stop-color="#1bd2f2"/><stop offset="1" stop-color="#1d557f"/></linearGradient><radialGradient cx="258.51681" cy="308.65725" r="1004.64232" gradientUnits="userSpaceOnUse" id="color-7"><stop offset="0" stop-color="#bce7f7"/><stop offset="1" stop-color="#1bafe5"/></radialGradient><linearGradient x1="373.02298" y1="34.54272" x2="373.02298" y2="52.3669" gradientUnits="userSpaceOnUse" id="color-8"><stop offset="0" stop-color="#000000"/><stop offset="1" stop-color="#000000"/></linearGradient><linearGradient x1="400.57864" y1="10.05837" x2="400.57864" y2="18.56117" gradientUnits="userSpaceOnUse" id="color-9"><stop offset="0" stop-color="#000000"/><stop offset="1" stop-color="#000000"/></linearGradient><linearGradient x1="436.77812" y1="21.58758" x2="436.77812" y2="32.52496" gradientUnits="userSpaceOnUse" id="color-10"><stop offset="0" stop-color="#000000"/><stop offset="1" stop-color="#000000"/></linearGradient><linearGradient x1="431.43239" y1="21.76825" x2="431.43239" y2="32.61083" gradientUnits="userSpaceOnUse" id="color-11"><stop offset="0" stop-color="#000000"/><stop offset="1" stop-color="#000000"/></linearGradient><linearGradient x1="420.29506" y1="21.4758" x2="420.29506" y2="32.67118" gradientUnits="userSpaceOnUse" id="color-12"><stop offset="0" stop-color="#000000"/><stop offset="1" stop-color="#000000"/></linearGradient><linearGradient x1="407.60048" y1="21.51019" x2="407.60048" y2="32.67118" gradientUnits="userSpaceOnUse" id="color-13"><stop offset="0" stop-color="#000000"/><stop offset="1" stop-color="#000000"/></linearGradient><linearGradient x1="393.92637" y1="21.46687" x2="393.92637" y2="32.67118" gradientUnits="userSpaceOnUse" id="color-14"><stop offset="0" stop-color="#000000"/><stop offset="1" stop-color="#000000"/></linearGradient><linearGradient x1="400.59278" y1="9.95937" x2="400.59278" y2="18.46216" gradientUnits="userSpaceOnUse" id="color-15"><stop offset="0" stop-color="#ffffff"/><stop offset="1" stop-color="#dae0e7"/></linearGradient><linearGradient x1="393.95465" y1="21.35372" x2="393.95465" y2="32.55805" gradientUnits="userSpaceOnUse" id="color-16"><stop offset="0" stop-color="#ff1818"/><stop offset="1" stop-color="#e11515"/></linearGradient><linearGradient x1="407.62876" y1="21.39708" x2="407.62876" y2="32.55805" gradientUnits="userSpaceOnUse" id="color-17"><stop offset="0" stop-color="#1ce11c"/><stop offset="1" stop-color="#1acf1a"/></linearGradient><linearGradient x1="420.32337" y1="21.36264" x2="420.32337" y2="32.55805" gradientUnits="userSpaceOnUse" id="color-18"><stop offset="0" stop-color="#239eff"/><stop offset="1" stop-color="#1e8be1"/></linearGradient><linearGradient x1="431.46067" y1="21.65514" x2="431.46067" y2="32.49768" gradientUnits="userSpaceOnUse" id="color-19"><stop offset="0" stop-color="#ffe530"/><stop offset="1" stop-color="#ffd628"/></linearGradient><linearGradient x1="436.80641" y1="21.47447" x2="436.80641" y2="32.41181" gradientUnits="userSpaceOnUse" id="color-20"><stop offset="0" stop-color="#a818ff"/><stop offset="1" stop-color="#9404e4"/></linearGradient><linearGradient x1="373.03712" y1="34.51442" x2="373.03712" y2="52.33863" gradientUnits="userSpaceOnUse" id="color-21"><stop offset="0" stop-color="#0160c0"/><stop offset="1" stop-color="#23f4f4"/></linearGradient><radialGradient cx="395.61552" cy="22.58458" r="4.11202" gradientUnits="userSpaceOnUse" id="color-22"><stop offset="0" stop-color="#ff7c7c"/><stop offset="1" stop-color="#ff7c7c" stop-opacity="0"/></radialGradient><radialGradient cx="446.46417" cy="30.45019" r="4.941" gradientUnits="userSpaceOnUse" id="color-23"><stop offset="0" stop-color="#da9dff"/><stop offset="1" stop-color="#da9dff" stop-opacity="0"/></radialGradient><linearGradient x1="420.33863" y1="35.14726" x2="420.33863" y2="40.26659" gradientUnits="userSpaceOnUse" id="color-24"><stop offset="0" stop-color="#54a7dc"/><stop offset="1" stop-color="#4fa3da"/></linearGradient><linearGradient x1="385.89696" y1="42.59489" x2="386.66136" y2="47.65684" gradientUnits="userSpaceOnUse" id="color-25"><stop offset="0" stop-color="#6dbee4"/><stop offset="1" stop-color="#9ae6f6"/></linearGradient><linearGradient x1="460.00895" y1="45.89549" x2="458.98974" y2="50.31908" gradientUnits="userSpaceOnUse" id="color-26"><stop offset="0" stop-color="#94e1f4"/><stop offset="1" stop-color="#adf7fd"/></linearGradient><linearGradient x1="438.95066" y1="42.58026" x2="439.23571" y2="47.1108" gradientUnits="userSpaceOnUse" id="color-27"><stop offset="0" stop-color="#2fcce7"/><stop offset="1" stop-color="#9be6f6"/></linearGradient><radialGradient cx="433.16024" cy="9.5954" r="2.87421" gradientUnits="userSpaceOnUse" id="color-28"><stop offset="0" stop-color="#ffffff"/><stop offset="1" stop-color="#ffffff" stop-opacity="0"/></radialGradient></defs><g transform="translate(-61.39638,-7.26903)"><g data-paper-data="{&quot;isPaintingLayer&quot;:true}" fill-rule="nonzero" stroke-linejoin="miter" stroke-miterlimit="10" stroke-dasharray="" stroke-dashoffset="0" style="mix-blend-mode: normal"><path d="" data-paper-data="{&quot;origPos&quot;:null}" fill="url(#color-1)" stroke="none" stroke-width="1" stroke-linecap="butt"/><path d="" data-paper-data="{&quot;origPos&quot;:null}" fill="url(#color-2)" stroke="none" stroke-width="1" stroke-linecap="butt"/><path d="" fill="#8ecad1" stroke="none" stroke-width="0.5" stroke-linecap="butt"/><path d="" fill="#8ecad1" stroke="none" stroke-width="0.5" stroke-linecap="butt"/><path d="" fill="#8ecad1" stroke="none" stroke-width="0.5" stroke-linecap="butt"/><path d="" fill="#8ecad1" stroke="none" stroke-width="0.5" stroke-linecap="butt"/><path d="" fill="#8ecad1" stroke="none" stroke-width="0.5" stroke-linecap="butt"/><path d="" data-paper-data="{&quot;origPos&quot;:null}" fill="url(#color-3)" stroke="none" stroke-width="1.28528" stroke-linecap="butt"/><path d="" data-paper-data="{&quot;origPos&quot;:null}" fill="url(#color-4)" stroke="url(#color-5)" stroke-width="2.70748" stroke-linecap="butt"/><path d="" data-paper-data="{&quot;origPos&quot;:null}" fill="url(#color-6)" stroke="url(#color-7)" stroke-width="2.70748" stroke-linecap="butt"/><path d="" fill="#8ecad1" stroke="none" stroke-width="0.5" stroke-linecap="butt"/><path d="" fill="#8ecad1" stroke="none" stroke-width="0.5" stroke-linecap="butt"/><path d="" fill="#8ecad1" stroke="none" stroke-width="0.5" stroke-linecap="butt"/><path d="" fill="#8ecad1" stroke="none" stroke-width="0.5" stroke-linecap="butt"/><path d="" fill="#8ecad1" stroke="none" stroke-width="0.5" stroke-linecap="butt"/><path d="" fill="#8ecad1" stroke="none" stroke-width="0.5" stroke-linecap="butt"/><path d="" fill="#8ecad1" stroke="none" stroke-width="0.5" stroke-linecap="butt"/><path d="" fill="#8ecad1" stroke="none" stroke-width="0.5" stroke-linecap="butt"/><path d="" fill="#8ecad1" stroke="none" stroke-width="0.5" stroke-linecap="butt"/><path d="" fill="#8ecad1" stroke="none" stroke-width="0.5" stroke-linecap="butt"/><path d="" fill="#8ecad1" stroke="none" stroke-width="0.5" stroke-linecap="butt"/><path d="" fill="#8ecad1" stroke="none" stroke-width="0.5" stroke-linecap="butt"/><path d="" fill="#8ecad1" stroke="none" stroke-width="0.5" stroke-linecap="butt"/><path d="" fill="#8ecad1" stroke="none" stroke-width="0.5" stroke-linecap="butt"/><path d="" fill="#8ecad1" stroke="none" stroke-width="0.5" stroke-linecap="butt"/><g fill="#ffffff" stroke="#2c6eb0" stroke-width="7.5" stroke-linecap="butt"><path d="M78.00691,16.66684c4.2435,0.2994 6.3653,0.57 6.3653,0.8104c1.6352,4.3932 2.6314,7.1973 2.9912,8.4108h0.1353c0.3901,-0.8392 1.8814,-3.1481 4.4753,-6.9267h0.1354c4.0636,0.2547 6.0961,0.5326 6.0961,0.832l3.6649,25.0784c0,0.1497 -3.2086,0.5096 -9.6257,1.0796l-0.1353,-0.2706c-0.3599,-7.6162 -0.5398,-12.2729 -0.5398,-13.9672h-0.1354l-5.5549,4.8813h-0.1353c-0.1799,-0.0907 -1.4466,-2.0772 -3.8002,-5.9609h-0.1353c-2.8948,8.4267 -4.4753,12.9034 -4.7459,13.4274h-0.2692c-5.1734,-2.3392 -8.1128,-3.7412 -8.8167,-4.2047v-0.1353c6.4171,-15.0842 9.761,-22.7695 10.0302,-23.0545z"/><path d="M107.38211,23.48265c8.906,1.2293 13.3597,1.9865 13.3597,2.2715c3.508,3.0128 5.2627,4.625 5.2627,4.8352c-1.425,4.4537 -2.234,7.1599 -2.4284,8.12c1.4237,3.164 2.2341,5.0526 2.4284,5.6672c0,0.18 -2.3247,0.6593 -6.9728,1.4395c-0.059,-0.2548 -0.4865,-0.8248 -1.2811,-1.7087c-6.4186,1.2294 -9.8747,1.844 -10.3685,1.844l-3.4187,-9.2443l7.5342,-3.9815c1.2149,0.1957 3.1106,0.2936 5.6902,0.2936c0,-0.3311 0.0446,-1.3272 0.1353,-2.9926c-0.4347,0 -4.3184,0.285 -11.6511,0.855l-0.1353,-0.2922c1.0206,-4.7387 1.6353,-7.1067 1.8454,-7.1067zM112.0604,36.70705c0,0.1656 0.4793,1.9188 1.4395,5.2627h0.1338c1.8901,-1.2293 2.8343,-2.0383 2.8343,-2.4283l0.2923,-2.4068c-0.3599,0 -1.9261,-0.1425 -4.6999,-0.4276z"/><path d="M131.2672,14.46292l8.8398,1.3949c-1.1098,4.2435 -1.8368,6.3653 -2.1822,6.3653c-4.6481,-0.3152 -6.9714,-0.6233 -6.9714,-0.9227v-6.5222c0.0446,-0.2102 0.1497,-0.3153 0.3138,-0.3153zM128.79421,25.16835h0.1339c6.8375,1.2451 10.2562,1.972 10.2562,2.1822c-1.9634,11.1256 -3.1553,17.3254 -3.5756,18.6008h-7.1297c-0.2102,0 -0.3153,-0.1051 -0.3153,-0.3152z"/><path d="M160.82239,23.48265l7.4896,5.1505c-0.5255,8.5461 -0.8925,13.5396 -1.1027,14.9791c-0.8694,0.105 -3.5166,0.262 -7.9401,0.4721l-0.1569,-0.3152l-0.7874,-12.0095l-0.3152,-0.1584c-2.8631,0.6147 -4.8352,1.0796 -5.9148,1.3949c0.2994,5.113 0.4506,8.8095 0.4506,11.0882c-4.4696,1.2452 -6.9138,1.867 -7.3327,1.867c-2.9092,-12.8055 -4.363,-19.5681 -4.363,-20.2879c6.3264,-0.8248 9.761,-1.2365 10.3008,-1.2365v0.1569c0.1051,0.0749 0.262,1.6353 0.4722,4.6783c5.8025,-3.8535 8.8685,-5.7795 9.1996,-5.7795z"/><path d="M191.99551,16.66684c4.2436,0.2994 6.3654,0.57 6.3654,0.8104c1.6338,4.3932 2.6313,7.1973 2.9912,8.4108h0.1353c0.3886,-0.8392 1.8814,-3.1481 4.4753,-6.9267h0.1353c4.0636,0.2547 6.0947,0.5326 6.0947,0.832l3.6663,25.0784c0,0.1497 -3.2085,0.5096 -9.6257,1.0796l-0.1353,-0.2706c-0.3599,-7.6162 -0.5398,-12.2729 -0.5398,-13.9672h-0.1353l-5.5549,4.8813h-0.1353c-0.18,-0.0907 -1.4467,-2.0772 -3.8017,-5.9609h-0.1353c-2.8933,8.4267 -4.4753,12.9034 -4.7459,13.4274h-0.2692c-5.1734,-2.3392 -8.1114,-3.7412 -8.8167,-4.2047v-0.1353c6.4171,-15.0842 9.761,-22.7695 10.0316,-23.0545z"/><path d="M230.7029,23.50425c6.7928,3.4936 10.557,5.5333 11.2911,6.1178c-0.9745,4.5588 -1.5517,6.9051 -1.7316,7.0404h-14.2148v0.2476l3.9816,4.9259l6.2516,-3.1942c0.6146,1.0637 1.4999,2.9235 2.6544,5.5779c-0.5398,0.18 -4.4753,0.7572 -11.808,1.7317c-6.0731,-4.0032 -9.132,-6.0875 -9.1766,-6.253c0.9745,-7.7818 1.5517,-11.6727 1.7317,-11.6727c6.3423,-2.699 10.0158,-4.2061 11.0206,-4.5214zM229.24181,28.94691c-0.1209,0.3008 -0.9155,1.4927 -2.3838,3.577c0,0.6291 0.8839,0.9443 2.653,0.9443c0,0.0907 1.2825,0.3081 3.8462,0.6521c0.7054,-0.9745 1.058,-1.5445 1.058,-1.7086c-0.226,-1.3344 -0.7125,-2.0023 -1.4625,-2.0023z"/><path d="M264.01361,23.48265l7.4896,5.1505c-0.524,8.5461 -0.8925,13.5396 -1.1012,14.9791c-0.8709,0.105 -3.5167,0.262 -7.9401,0.4721l-0.1569,-0.3152l-0.7874,-12.0095l-0.3153,-0.1584c-2.8645,0.6147 -4.8352,1.0796 -5.9148,1.3949c0.2995,5.113 0.4492,8.8095 0.4492,11.0882c-4.4682,1.2452 -6.9124,1.867 -7.3327,1.867c-2.9092,-12.8055 -4.363,-19.5681 -4.363,-20.2879c6.3279,-0.8248 9.761,-1.2365 10.3008,-1.2365v0.1569c0.1051,0.0749 0.2634,1.6353 0.4722,4.6783c5.8039,-3.8535 8.87,-5.7795 9.1996,-5.7795z"/><path d="M286.03322,23.77485l-3.0359,16.1034h0.1569l7.7372,-2.2715v-9.109c0.0302,-0.2101 0.1266,-0.3152 0.2922,-0.3152c5.8183,0.4045 9.0571,0.6075 9.7164,0.6075c0,0.105 0.0518,0.1569 0.1569,0.1569c0,2.5651 -0.809,7.8796 -2.4284,15.9478c0,0.4635 -2.3247,0.8162 -6.9728,1.0566c-0.2404,-0.285 -0.4419,-0.8925 -0.6074,-1.8224c-5.9522,1.2149 -9.3494,1.8224 -10.1886,1.8224c-4.7531,-3.5382 -7.1297,-5.3606 -7.1297,-5.4657c0.8104,-10.6304 1.32,-16.1494 1.5302,-16.5539h0.1338c3.7945,-0.105 10.6392,-0.1569 10.6392,-0.1569z"/></g><g fill="#ffffff" stroke="#224a8c" stroke-width="7.5" stroke-linecap="butt"><path d="M84.36341,22.88805h0.1353c0.13354,-0.28727 3.83036,-6.22363 4.41044,-6.79758c0.37653,-0.37256 6.05379,0.27043 6.25175,0.80749c0.29769,0.80762 3.62813,24.10493 3.62406,25.04964c-0.00321,0.74429 -9.41772,1.12137 -9.5622,1.0176c-0.33521,-0.24075 -0.52411,-13.98301 -0.5843,-14.07173c-0.38595,-0.56889 -5.69384,4.60989 -5.88005,4.67152c-0.37266,0.12335 -3.68924,-5.57437 -4.01028,-5.77814c-0.76716,-0.48695 -4.43038,12.97178 -4.84947,13.10244c-0.80224,0.2501 -8.70601,-3.72957 -8.75228,-4.18715c-0.08923,-0.88246 9.19084,-22.32019 9.78644,-22.85907c0.54444,-0.49259 6.31182,0.43511 6.60419,0.67173c0.49366,0.39952 2.60721,7.63398 2.8264,8.37324z"/><path d="M104.38211,20.48265c8.906,1.2293 13.3597,1.9865 13.3597,2.2715c3.508,3.0128 5.2627,4.625 5.2627,4.8352c-1.425,4.4537 -2.234,7.1599 -2.4284,8.12c1.4237,3.164 2.2341,5.0526 2.4284,5.6672c0,0.18 -2.3247,0.6593 -6.9728,1.4395c-0.059,-0.2548 -0.4865,-0.8248 -1.2811,-1.7087c-6.4186,1.2294 -9.8747,1.844 -10.3685,1.844l-3.4187,-9.2443l7.5342,-3.9815c1.2149,0.1957 3.1106,0.2936 5.6902,0.2936c0,-0.3311 0.0446,-1.3272 0.1353,-2.9926c-0.4347,0 -4.3184,0.285 -11.6511,0.855l-0.1353,-0.2922c1.0206,-4.7387 1.6353,-7.1067 1.8454,-7.1067zM109.0604,33.70705c0,0.1656 0.4793,1.9188 1.4395,5.2627h0.1338c1.8901,-1.2293 2.8343,-2.0383 2.8343,-2.4283l0.2923,-2.4068c-0.3599,0 -1.9261,-0.1425 -4.6999,-0.4276z"/><path d="M128.2672,11.46293l8.8398,1.3949c-1.1098,4.2435 -1.8368,6.3653 -2.1822,6.3653c-4.6481,-0.3152 -6.9714,-0.6233 -6.9714,-0.9227v-6.5222c0.0446,-0.2102 0.1497,-0.3153 0.3138,-0.3153zM125.79421,22.16835h0.1339c6.8375,1.2451 10.2562,1.972 10.2562,2.1822c-1.9634,11.1256 -3.1553,17.3254 -3.5756,18.6008h-7.1297c-0.2102,0 -0.3153,-0.1051 -0.3153,-0.3152z"/><path d="M157.82239,20.48265l7.4896,5.1505c-0.5255,8.5461 -0.8925,13.5396 -1.1027,14.9791c-0.8694,0.105 -3.5166,0.262 -7.9401,0.4721l-0.1569,-0.3152l-0.7874,-12.0095l-0.3152,-0.1584c-2.8631,0.6147 -4.8352,1.0796 -5.9148,1.3949c0.2994,5.113 0.4506,8.8095 0.4506,11.0882c-4.4696,1.2452 -6.9138,1.867 -7.3327,1.867c-2.9092,-12.8055 -4.363,-19.5681 -4.363,-20.2879c6.3264,-0.8248 9.761,-1.2365 10.3008,-1.2365v0.1569c0.1051,0.0749 0.262,1.6353 0.4722,4.6783c5.8025,-3.8535 8.8685,-5.7795 9.1996,-5.7795z"/><path d="M188.99551,13.66685c4.2436,0.2994 6.3654,0.57 6.3654,0.8104c1.6338,4.3932 2.6313,7.1973 2.9912,8.4108h0.1353c0.3886,-0.8392 1.8814,-3.1481 4.4753,-6.9267h0.1353c4.0636,0.2547 6.0947,0.5326 6.0947,0.832l3.6663,25.0784c0,0.1497 -3.2085,0.5096 -9.6257,1.0796l-0.1353,-0.2706c-0.3599,-7.6162 -0.5398,-12.2729 -0.5398,-13.9672h-0.1353l-5.5549,4.8813h-0.1353c-0.18,-0.0907 -1.4467,-2.0772 -3.8017,-5.9609h-0.1353c-2.8933,8.4267 -4.4753,12.9034 -4.7459,13.4274h-0.2692c-5.1734,-2.3392 -8.1114,-3.7412 -8.8167,-4.2047v-0.1353c6.4171,-15.0842 9.761,-22.7695 10.0316,-23.0545z"/><path d="M227.7029,20.50425c6.7928,3.4936 10.557,5.5333 11.2911,6.1178c-0.9745,4.5588 -1.5517,6.9051 -1.7316,7.0404h-14.2148v0.2476l3.9816,4.9259l6.2516,-3.1942c0.6146,1.0637 1.4999,2.9235 2.6544,5.5779c-0.5398,0.18 -4.4753,0.7572 -11.808,1.7317c-6.0731,-4.0032 -9.132,-6.0875 -9.1766,-6.253c0.9745,-7.7818 1.5517,-11.6727 1.7317,-11.6727c6.3423,-2.699 10.0158,-4.2061 11.0206,-4.5214zM226.24181,25.94692c-0.1209,0.3008 -0.9155,1.4927 -2.3838,3.577c0,0.6291 0.8839,0.9443 2.653,0.9443c0,0.0907 1.2825,0.3081 3.8462,0.6521c0.7054,-0.9745 1.058,-1.5445 1.058,-1.7086c-0.226,-1.3344 -0.7125,-2.0023 -1.4625,-2.0023z"/><path d="M261.01361,20.48265l7.4896,5.1505c-0.524,8.5461 -0.8925,13.5396 -1.1012,14.9791c-0.8709,0.105 -3.5167,0.262 -7.9401,0.4721l-0.1569,-0.3152l-0.7874,-12.0095l-0.3153,-0.1584c-2.8645,0.6147 -4.8352,1.0796 -5.9148,1.3949c0.2995,5.113 0.4492,8.8095 0.4492,11.0882c-4.4682,1.2452 -6.9124,1.867 -7.3327,1.867c-2.9092,-12.8055 -4.363,-19.5681 -4.363,-20.2879c6.3279,-0.8248 9.761,-1.2365 10.3008,-1.2365v0.1569c0.1051,0.0749 0.2634,1.6353 0.4722,4.6783c5.8039,-3.8535 8.87,-5.7795 9.1996,-5.7795z"/><path d="M283.03322,20.77485l-3.0359,16.1034h0.1569l7.7372,-2.2715v-9.109c0.0302,-0.2101 0.1266,-0.3152 0.2922,-0.3152c5.8183,0.4045 9.0571,0.6075 9.7164,0.6075c0,0.105 0.0518,0.1569 0.1569,0.1569c0,2.5651 -0.809,7.8796 -2.4284,15.9478c0,0.4635 -2.3247,0.8162 -6.9728,1.0566c-0.2404,-0.285 -0.4419,-0.8925 -0.6074,-1.8224c-5.9522,1.2149 -9.3494,1.8224 -10.1886,1.8224c-4.7531,-3.5382 -7.1297,-5.3606 -7.1297,-5.4657c0.8104,-10.6304 1.664,-16.5539 1.664,-16.5539c3.7945,-0.105 10.6392,-0.1569 10.6392,-0.1569z"/></g><g fill="#ffffff" stroke="none" stroke-width="1.43947" stroke-linecap="butt"><path d="M75.00691,13.66685c4.2435,0.2994 6.3653,0.57 6.3653,0.8104c1.6352,4.3932 2.6314,7.1973 2.9912,8.4108h0.1353c0.3901,-0.8392 1.8814,-3.1481 4.4753,-6.9267h0.1354c4.0636,0.2547 6.0961,0.5326 6.0961,0.832l3.6649,25.0784c0,0.1497 -3.2086,0.5096 -9.6257,1.0796l-0.1353,-0.2706c-0.3599,-7.6162 -0.5398,-12.2729 -0.5398,-13.9672h-0.1354l-5.5549,4.8813h-0.1353c-0.1799,-0.0907 -1.4466,-2.0772 -3.8002,-5.9609h-0.1353c-2.8948,8.4267 -4.4753,12.9034 -4.7459,13.4274h-0.2692c-5.1734,-2.3392 -8.1128,-3.7412 -8.8167,-4.2047v-0.1353c6.4171,-15.0842 9.761,-22.7695 10.0302,-23.0545z"/><path d="M104.38211,20.48265c8.906,1.2293 13.3597,1.9865 13.3597,2.2715c3.508,3.0128 5.2627,4.625 5.2627,4.8352c-1.425,4.4537 -2.234,7.1599 -2.4284,8.12c1.4237,3.164 2.2341,5.0526 2.4284,5.6672c0,0.18 -2.3247,0.6593 -6.9728,1.4395c-0.059,-0.2548 -0.4865,-0.8248 -1.2811,-1.7087c-6.4186,1.2294 -9.8747,1.844 -10.3685,1.844l-3.4187,-9.2443l7.5342,-3.9815c1.2149,0.1957 3.1106,0.2936 5.6902,0.2936c0,-0.3311 0.0446,-1.3272 0.1353,-2.9926c-0.4347,0 -4.3184,0.285 -11.6511,0.855l-0.1353,-0.2922c1.0206,-4.7387 1.6353,-7.1067 1.8454,-7.1067zM109.0604,33.70705c0,0.1656 0.4793,1.9188 1.4395,5.2627h0.1338c1.8901,-1.2293 2.8343,-2.0383 2.8343,-2.4283l0.2923,-2.4068c-0.3599,0 -1.9261,-0.1425 -4.6999,-0.4276z"/><path d="M128.2672,11.46293l8.8398,1.3949c-1.1098,4.2435 -1.8368,6.3653 -2.1822,6.3653c-4.6481,-0.3152 -6.9714,-0.6233 -6.9714,-0.9227v-6.5222c0.0446,-0.2102 0.1497,-0.3153 0.3138,-0.3153zM125.79421,22.16835h0.1339c6.8375,1.2451 10.2562,1.972 10.2562,2.1822c-1.9634,11.1256 -3.1553,17.3254 -3.5756,18.6008h-7.1297c-0.2102,0 -0.3153,-0.1051 -0.3153,-0.3152z"/><path d="M157.82239,20.48265l7.4896,5.1505c-0.5255,8.5461 -0.8925,13.5396 -1.1027,14.9791c-0.8694,0.105 -3.5166,0.262 -7.9401,0.4721l-0.1569,-0.3152l-0.7874,-12.0095l-0.3152,-0.1584c-2.8631,0.6147 -4.8352,1.0796 -5.9148,1.3949c0.2994,5.113 0.4506,8.8095 0.4506,11.0882c-4.4696,1.2452 -6.9138,1.867 -7.3327,1.867c-2.9092,-12.8055 -4.363,-19.5681 -4.363,-20.2879c6.3264,-0.8248 9.761,-1.2365 10.3008,-1.2365v0.1569c0.1051,0.0749 0.262,1.6353 0.4722,4.6783c5.8025,-3.8535 8.8685,-5.7795 9.1996,-5.7795z"/><path d="M188.99551,13.66685c4.2436,0.2994 6.3654,0.57 6.3654,0.8104c1.6338,4.3932 2.6313,7.1973 2.9912,8.4108h0.1353c0.3886,-0.8392 1.8814,-3.1481 4.4753,-6.9267h0.1353c4.0636,0.2547 6.0947,0.5326 6.0947,0.832l3.6663,25.0784c0,0.1497 -3.2085,0.5096 -9.6257,1.0796l-0.1353,-0.2706c-0.3599,-7.6162 -0.5398,-12.2729 -0.5398,-13.9672h-0.1353l-5.5549,4.8813h-0.1353c-0.18,-0.0907 -1.4467,-2.0772 -3.8017,-5.9609h-0.1353c-2.8933,8.4267 -4.4753,12.9034 -4.7459,13.4274h-0.2692c-5.1734,-2.3392 -8.1114,-3.7412 -8.8167,-4.2047v-0.1353c6.4171,-15.0842 9.761,-22.7695 10.0316,-23.0545z"/><path d="M227.7029,20.50425c6.7928,3.4936 10.557,5.5333 11.2911,6.1178c-0.9745,4.5588 -1.5517,6.9051 -1.7316,7.0404h-14.2148v0.2476l3.9816,4.9259l6.2516,-3.1942c0.6146,1.0637 1.4999,2.9235 2.6544,5.5779c-0.5398,0.18 -4.4753,0.7572 -11.808,1.7317c-6.0731,-4.0032 -9.132,-6.0875 -9.1766,-6.253c0.9745,-7.7818 1.5517,-11.6727 1.7317,-11.6727c6.3423,-2.699 10.0158,-4.2061 11.0206,-4.5214zM226.24181,25.94692c-0.1209,0.3008 -0.9155,1.4927 -2.3838,3.577c0,0.6291 0.8839,0.9443 2.653,0.9443c0,0.0907 1.2825,0.3081 3.8462,0.6521c0.7054,-0.9745 1.058,-1.5445 1.058,-1.7086c-0.226,-1.3344 -0.7125,-2.0023 -1.4625,-2.0023z"/><path d="M261.01361,20.48265l7.4896,5.1505c-0.524,8.5461 -0.8925,13.5396 -1.1012,14.9791c-0.8709,0.105 -3.5167,0.262 -7.9401,0.4721l-0.1569,-0.3152l-0.7874,-12.0095l-0.3153,-0.1584c-2.8645,0.6147 -4.8352,1.0796 -5.9148,1.3949c0.2995,5.113 0.4492,8.8095 0.4492,11.0882c-4.4682,1.2452 -6.9124,1.867 -7.3327,1.867c-2.9092,-12.8055 -4.363,-19.5681 -4.363,-20.2879c6.3279,-0.8248 9.761,-1.2365 10.3008,-1.2365v0.1569c0.1051,0.0749 0.2634,1.6353 0.4722,4.6783c5.8039,-3.8535 8.87,-5.7795 9.1996,-5.7795z"/><path d="M282.87632,20.48265l0.1569,0.2922l-3.0359,16.1034h0.1569l7.7372,-2.2715v-9.109c0.0302,-0.2101 0.1266,-0.3152 0.2922,-0.3152c5.8183,0.4045 9.0571,0.6075 9.7164,0.6075c0,0.105 0.0518,0.1569 0.1569,0.1569c0,2.5651 -0.809,7.8796 -2.4284,15.9478c0,0.4635 -2.3247,0.8162 -6.9728,1.0566c-0.2404,-0.285 -0.4419,-0.8925 -0.6074,-1.8224c-5.9522,1.2149 -9.3494,1.8224 -10.1886,1.8224c-4.7531,-3.5382 -7.1297,-5.3606 -7.1297,-5.4657c0.8104,-10.6304 1.32,-16.1494 1.5302,-16.5539h0.1338c3.7945,-0.105 7.2881,-0.2547 10.4823,-0.4491z"/></g><path d="M418.11331,37.97527l3.84017,10.93631l-4.29756,0.66381l-0.67854,-2.90252l-3.35268,0.63994l-0.55387,2.23893l-0.06533,0.00164l-3.99635,-0.80859l3.35949,-11.5354zM426.03674,37.37762l0.20101,8.23273h0.05747l5.71832,-1.90369l0.067,0.06307l-0.19168,4.55209l-8.89818,0.79762l-1.88709,-11.31553l4.87547,-0.48956zM442.56067,39.00831l2.59344,11.30162l-4.36041,0.17216l-0.3487,-2.96058l-3.41594,0.25619l-0.80548,2.16194l-0.06513,-0.0054l-3.8941,-1.25606l4.65373,-11.08089v-0.0004zM407.98646,40.93981l0.00455,0.0558l-0.67998,3.70488l-1.78295,1.28033l3.56197,2.35074l-3.50162,2.01445l-3.17944,-3.94077l-0.10643,0.00851l0.1977,3.28027l-0.13567,0.43107l-2.67122,0.21158l-0.97849,-5.13271l-0.92955,-5.19248l6.16287,-1.68379zM451.78082,43.10487l2.57516,-3.42279l0.06369,0.01018l3.11369,2.57558l-0.01661,0.1143l-3.49578,2.91434l4.53944,2.79546l-3.15913,3.02742l-3.0245,-3.59373l-2.89525,4.04346l-0.06347,-0.01018l-3.47237,-2.07834l0.00934,-0.06661l3.73085,-3.78247l-4.34093,-2.94878l2.67682,-3.2898zM396.62467,40.72862l-0.99031,3.06992l-0.05623,0.00684l-2.78758,-0.87271l-2.0431,1.86947l0.69037,2.92325l2.95105,0.80427l1.78482,-2.18707l2.01635,2.52893l0.02115,0.17218l-3.87727,2.79111l-5.56047,-1.23281l-2.37189,-5.4445l1.9987,-3.71694l3.80614,-1.96778zM465.27756,45.59292l3.99075,-2.47331l2.78138,3.64267l-6.46344,3.29684l-1.03762,4.48676l-5.08667,-1.86136l2.32022,-4.56704l-2.30198,-6.70843l5.12878,-0.7447zM414.69012,41.1124l-0.34559,2.7154l2.02918,-0.04958l-0.82208,-3.03381zM401.71053,41.19371l0.38254,4.04118l0.05351,-0.00415l2.10883,-0.88598l0.31759,-2.41568l-2.86683,-0.79035zM438.79271,41.73783l-0.65199,2.65877l2.02919,0.18067l-0.47688,-3.10726l-0.20435,-0.01245l-0.15703,-0.00039zM384.3952,42.58709l-0.57814,3.09108l-0.06514,0.02014l-3.6796,-0.50721l-0.62523,1.71471l7.49901,1.23366l-1.21251,4.80848l-5.12606,2.08564l-4.58071,-1.3075l-0.01991,-0.06432l0.73454,-2.81662l0.12114,-0.03737l4.23181,0.84036l0.80508,-1.75993l-7.19284,-1.26788l-0.017,-0.05498l0.86917,-4.06789l4.86948,-2.52041z" fill="#265299" stroke="#265299" stroke-width="3.5" stroke-linecap="butt"/><path d="M409.97021,13.91472l-1.00236,1.88834h-0.04667l-2.30529,-1.06521l-0.7553,0.987l4.65767,2.30054l-1.76406,2.87573l-3.77565,0.32672l-2.73324,-1.76448v-0.04585l1.04945,-1.67986h0.08671l2.59943,1.39213l0.88205,-0.97996l-4.45024,-2.26173v-0.0392l1.38964,-2.46378l3.69558,-0.66008zM427.33531,14.82954l-0.76173,2.68615l-1.60372,1.31996l-2.23206,-0.12385l-0.08671,2.35261l-2.36565,0.16344l-0.25393,-1.40519l-0.46113,-6.27429l4.85143,-0.82333zM435.44317,13.58115l-0.64164,2.29409l-3.36116,-0.90196l-0.68851,1.48383h0.0471l3.03384,-0.26821l0.04647,0.0915l-0.41407,2.06508l-2.57267,-0.35931l0.04001,1.12435v0.22839l0.0467,0.0915l3.45472,-0.27426l0.3209,2.02587l-0.04667,0.04584l-6.1612,-0.40533l-0.96919,-2.69901l1.2432,-5.39846zM443.08342,14.77726v0.03923l-0.72852,2.55545l-1.40997,0.7972l2.52578,1.84314l-2.73967,1.21558l-2.14495,-2.93467h-0.08027l-0.0469,2.30738l-0.12694,0.29415h-2.01117l-0.42793,-3.64721l-0.38771,-3.68602l4.71118,-0.83643zM414.61648,12.96007l-0.41404,4.86928l1.86404,0.2483l0.54828,-4.3069l2.7932,0.60781l-0.60136,4.45708l-2.06508,2.37271l-4.08267,-0.70593l-1.5973,-1.7255l0.29415,-5.91497zM438.37222,14.60715l0.04647,2.84983h0.04025l1.6307,-0.50324l0.38086,-1.67321l-2.09828,-0.71237zM422.61106,17.30657l1.64374,-0.33338l0.38087,-1.60765l-2.02461,-0.78435z" fill="#265299" stroke="#265299" stroke-width="3.5" stroke-linecap="butt"/><g fill="#265299" stroke="#265299" stroke-width="3.5" stroke-linecap="butt"><path d="M442.54777,24.25425l4.103,1.35977l2.38847,3.73436l-1.5749,4.69853l-4.79416,1.14468l-4.03308,-2.65068l-0.13129,-4.88776l-0.06101,-0.19766l4.04179,-3.20124zM442.29406,28.27302l-0.18398,2.91726l2.24867,0.49911l0.80466,-2.67662l-2.86935,-0.8001z"/><path d="M437.49057,25.19231l-1.56597,10.08518l-2.82556,-0.24915l0.62956,-10.59339z"/><path d="M431.88239,26.84435v0.05145l-0.9538,3.36492l-1.84582,1.04985l3.30683,2.42685l-3.58686,1.60041l-2.80814,-3.86358h-0.10496l-0.0612,3.03734l-0.16616,0.38731h-2.63346l-0.55989,-4.80185l-0.50718,-4.8533l6.16763,-1.1013zM425.71453,26.62074l0.06121,3.75178h0.05269l2.13477,-0.66276l0.49849,-2.20282l-2.74716,-0.93807z"/><path d="M418.02428,24.98548l3.34168,9.85303l-4.03286,0.49931l-0.56838,-2.60732l-3.14938,0.49889l-0.5688,1.98812h-0.0612l-3.71818,-0.80921l3.4035,-10.23143zM414.75272,27.71355l-0.38499,2.41791h1.89828l-0.6997,-2.72783z"/><path d="M401.97062,24.44344l1.16332,3.21867h0.05269l1.74086,-2.65068h0.05227l2.37104,0.31862l1.42615,9.59479l-3.74451,0.41299l-0.05269,-0.10329l-0.20972,-5.34371h-0.05227l-2.16113,1.86698h-0.05229l-1.47843,-2.2802h-0.05269l-1.84602,5.13729h-0.10473l-3.42944,-1.60912v-0.05165l3.90177,-8.82062z"/></g><g><path d="M416.44666,35.30859l3.84017,10.93631l-4.29757,0.66381l-0.67855,-2.90252l-3.35268,0.63994l-0.55387,2.23894l-0.06534,0.00164l-3.99634,-0.80859l3.35949,-11.5354zM424.37007,34.71094l0.20101,8.23273h0.05747l5.71832,-1.90369l0.067,0.06307l-0.19168,4.55208l-8.89818,0.79762l-1.88709,-11.31553l4.87548,-0.48956zM440.89399,36.34163l2.59344,11.30162l-4.36041,0.17216l-0.34871,-2.96058l-3.41594,0.25619l-0.80548,2.16195l-0.06514,-0.0054l-3.8941,-1.25606l4.65373,-11.08089v-0.00039zM406.31977,38.27314l0.00455,0.0558l-0.67998,3.70489l-1.78295,1.28033l3.56197,2.35074l-3.50162,2.01445l-3.17944,-3.94077l-0.10643,0.00851l0.1977,3.28027l-0.13568,0.43107l-2.67121,0.21158l-0.97849,-5.13271l-0.92955,-5.19247l6.16287,-1.68379zM450.11417,40.4382l2.57516,-3.42279l0.0637,0.01018l3.11368,2.57559l-0.01661,0.1143l-3.49578,2.91434l4.53944,2.79546l-3.15913,3.02742l-3.0245,-3.59373l-2.89525,4.04346l-0.06347,-0.01018l-3.47237,-2.07834l0.00934,-0.06661l3.73085,-3.78247l-4.34092,-2.94879l2.67682,-3.2898zM394.95801,38.06195l-0.99031,3.06993l-0.05623,0.00684l-2.78757,-0.87271l-2.0431,1.86947l0.69037,2.92325l2.95105,0.80426l1.78482,-2.18707l2.01635,2.52893l0.02115,0.17219l-3.87727,2.79111l-5.56047,-1.23281l-2.3719,-5.44451l1.9987,-3.71694l3.80614,-1.96778zM463.61089,42.92625l3.99075,-2.47332l2.78138,3.64267l-6.46344,3.29684l-1.03763,4.48675l-5.08667,-1.86135l2.32022,-4.56704l-2.30198,-6.70843l5.12878,-0.7447zM413.02345,38.44572l-0.34559,2.7154l2.02919,-0.04958l-0.82208,-3.03381zM400.04385,38.52704l0.38254,4.04117l0.05351,-0.00416l2.10883,-0.88597l0.3176,-2.41568l-2.86682,-0.79035zM437.12603,39.07115l-0.65199,2.65877l2.02919,0.18067l-0.47689,-3.10726l-0.20435,-0.01244l-0.15703,-0.00039zM382.72854,39.92042l-0.57814,3.09108l-0.06514,0.02014l-3.6796,-0.50721l-0.62523,1.7147l7.49901,1.23366l-1.21251,4.80847l-5.12606,2.08564l-4.58071,-1.30751l-0.01991,-0.06432l0.73454,-2.81662l0.12114,-0.03736l4.23181,0.84036l0.80508,-1.75993l-7.19284,-1.26789l-0.017,-0.05498l0.86918,-4.0679l4.86948,-2.52041z" fill="#3bb2ff" stroke="url(#color-8)" stroke-width="3.5" stroke-linecap="butt"/><path d="M408.30356,11.24805l-1.00236,1.88833h-0.04667l-2.30529,-1.0652l-0.75531,0.987l4.65767,2.30054l-1.76406,2.87573l-3.77565,0.32673l-2.73324,-1.76448v-0.04585l1.04945,-1.67986h0.08672l2.59943,1.39213l0.88205,-0.97996l-4.45024,-2.26173v-0.0392l1.38965,-2.46378l3.69558,-0.66008zM425.66865,12.16287l-0.76173,2.68615l-1.60372,1.31995l-2.23206,-0.12385l-0.08672,2.35261l-2.36564,0.16345l-0.25393,-1.4052l-0.46113,-6.27429l4.85143,-0.82333zM433.7765,10.91447l-0.64163,2.29409l-3.36116,-0.90195l-0.6885,1.48383h0.0471l3.03384,-0.26821l0.04647,0.0915l-0.41407,2.06508l-2.57268,-0.35931l0.04002,1.12434v0.22839l0.0467,0.0915l3.45472,-0.27426l0.3209,2.02587l-0.04667,0.04585l-6.16121,-0.40533l-0.96919,-2.69901l1.2432,-5.39846zM441.41676,12.11058v0.03923l-0.72852,2.55545l-1.40998,0.79719l2.52578,1.84314l-2.73966,1.21559l-2.14495,-2.93467h-0.08027l-0.04689,2.30738l-0.12694,0.29415h-2.01117l-0.42793,-3.64722l-0.38771,-3.68602l4.71118,-0.83642zM412.94981,10.2934l-0.41404,4.86928l1.86404,0.2483l0.54827,-4.3069l2.7932,0.60781l-0.60136,4.45708l-2.06508,2.37272l-4.08267,-0.70592l-1.5973,-1.72551l0.29415,-5.91497zM436.70554,11.94048l0.04647,2.84983h0.04025l1.6307,-0.50325l0.38086,-1.67321l-2.09828,-0.71238zM420.94441,14.63992l1.64374,-0.33338l0.38086,-1.60765l-2.0246,-0.78435z" fill="#ececec" stroke="url(#color-9)" stroke-width="3.5" stroke-linecap="butt"/><g stroke-width="3.5" stroke-linecap="butt"><path d="M440.8811,21.58758l4.103,1.35977l2.38847,3.73436l-1.5749,4.69853l-4.79416,1.14469l-4.03309,-2.65069l-0.13129,-4.88775l-0.06101,-0.19767l4.0418,-3.20125zM440.62741,25.60635l-0.18398,2.91725l2.24866,0.49911l0.80466,-2.67662l-2.86934,-0.8001z" fill="#9404e4" stroke="url(#color-10)"/><path d="M435.82391,22.52564l-1.56596,10.08518l-2.82556,-0.24915l0.62956,-10.5934z" fill="#fbc211" stroke="url(#color-11)"/><path d="M430.21572,24.17768v0.05145l-0.9538,3.36492l-1.84582,1.04985l3.30682,2.42685l-3.58686,1.60041l-2.80814,-3.86358h-0.10496l-0.0612,3.03734l-0.16617,0.38731h-2.63346l-0.5599,-4.80185l-0.50718,-4.8533l6.16763,-1.1013zM424.04786,23.95406l0.06121,3.75178h0.05269l2.13477,-0.66276l0.49849,-2.20282l-2.74716,-0.93807z" fill="#0492d0" stroke="url(#color-12)"/><path d="M416.3576,22.31881l3.34168,9.85303l-4.03286,0.49931l-0.56838,-2.60733l-3.14938,0.49889l-0.56881,1.98812h-0.0612l-3.71818,-0.80921l3.4035,-10.23142zM413.08607,25.04687l-0.38499,2.41791h1.89829l-0.6997,-2.72784z" fill="#10d004" stroke="url(#color-13)"/><path d="M400.30395,21.77677l1.16332,3.21867h0.05269l1.74086,-2.65068h0.05227l2.37105,0.31861l1.42615,9.5948l-3.74451,0.41299l-0.05269,-0.10329l-0.20972,-5.34371h-0.05227l-2.16113,1.86698h-0.05229l-1.47843,-2.2802h-0.05269l-1.84602,5.1373h-0.10473l-3.42944,-1.60912v-0.05165l3.90176,-8.82063z" fill="#e10404" stroke="url(#color-14)"/></g><path d="M408.3177,11.14905l-1.00236,1.88833h-0.04667l-2.30529,-1.0652l-0.75531,0.987l4.65767,2.30054l-1.76406,2.87573l-3.77565,0.32673l-2.73324,-1.76448v-0.04585l1.04945,-1.67986h0.08672l2.59943,1.39213l0.88204,-0.97996l-4.45023,-2.26173v-0.0392l1.38964,-2.46378l3.69558,-0.66008zM425.68279,12.06388l-0.76173,2.68615l-1.60372,1.31995l-2.23206,-0.12385l-0.08672,2.35261l-2.36564,0.16345l-0.25393,-1.4052l-0.46113,-6.27429l4.85143,-0.82333zM433.79064,10.81548l-0.64164,2.29409l-3.36116,-0.90195l-0.6885,1.48383h0.04709l3.03384,-0.26821l0.04647,0.09149l-0.41407,2.06508l-2.57268,-0.35931l0.04002,1.12434v0.22839l0.04669,0.0915l3.45472,-0.27426l0.3209,2.02587l-0.04667,0.04585l-6.16121,-0.40532l-0.96918,-2.69902l1.24319,-5.39846zM441.4309,12.01158v0.03923l-0.72852,2.55545l-1.40998,0.79719l2.52578,1.84314l-2.73966,1.21559l-2.14495,-2.93467h-0.08027l-0.04689,2.30738l-0.12694,0.29415h-2.01117l-0.42793,-3.64721l-0.38771,-3.68602l4.71118,-0.83642zM412.96395,10.19441l-0.41404,4.86928l1.86404,0.2483l0.54827,-4.3069l2.7932,0.60781l-0.60136,4.45708l-2.06508,2.37272l-4.08267,-0.70592l-1.5973,-1.72551l0.29415,-5.91497zM436.71969,11.84149l0.04647,2.84983h0.04025l1.6307,-0.50325l0.38086,-1.67321l-2.09828,-0.71237zM420.95855,14.54093l1.64374,-0.33338l0.38086,-1.60766l-2.0246,-0.78435z" fill="url(#color-15)" stroke="none" stroke-width="1.19633" stroke-linecap="butt"/><path d="M400.33224,21.66366l1.16332,3.21867h0.05269l1.74086,-2.65068h0.05227l2.37105,0.31861l1.42615,9.5948l-3.74451,0.41299l-0.05269,-0.10329l-0.20972,-5.34371h-0.05227l-2.16113,1.86698h-0.05229l-1.47843,-2.2802h-0.05269l-1.84602,5.13729h-0.10473l-3.42944,-1.60912v-0.05164l3.90176,-8.82063z" fill="url(#color-16)" stroke="none" stroke-width="1.57068" stroke-linecap="butt"/><path d="M416.38589,22.20571l3.34167,9.85303l-4.03286,0.49931l-0.56838,-2.60732l-3.14938,0.49889l-0.56881,1.98812h-0.0612l-3.71818,-0.80921l3.4035,-10.23143zM413.11435,24.93377l-0.38499,2.41791h1.89829l-0.6997,-2.72784z" fill="url(#color-17)" stroke="none" stroke-width="1.57068" stroke-linecap="butt"/><path d="M430.24399,24.06457v0.05145l-0.95379,3.36492l-1.84583,1.04985l3.30683,2.42685l-3.58686,1.60041l-2.80813,-3.86358h-0.10496l-0.06121,3.03734l-0.16616,0.38732h-2.63346l-0.55989,-4.80186l-0.50718,-4.8533l6.16763,-1.1013zM424.07616,23.84096l0.06121,3.75178h0.05269l2.13477,-0.66276l0.49849,-2.20282l-2.74716,-0.93807z" fill="url(#color-18)" stroke="none" stroke-width="1.57068" stroke-linecap="butt"/><path d="M435.85219,22.41249l-1.56596,10.08517l-2.82556,-0.24915l0.62956,-10.5934z" fill="url(#color-19)" stroke="none" stroke-width="1.57068" stroke-linecap="butt"/><path d="M440.90938,21.47447l4.103,1.35977l2.38847,3.73436l-1.5749,4.69853l-4.79416,1.14469l-4.03309,-2.65069l-0.13129,-4.88775l-0.06101,-0.19767l4.0418,-3.20125zM440.65569,25.49319l-0.18398,2.91725l2.24866,0.49912l0.80466,-2.67662l-2.86934,-0.80011z" fill="url(#color-20)" stroke="none" stroke-width="1.57068" stroke-linecap="butt"/><path d="M416.4608,35.28031l3.84016,10.9363l-4.29756,0.66381l-0.67855,-2.90252l-3.35268,0.63994l-0.55387,2.23894l-0.06533,0.00164l-3.99635,-0.80859l3.35949,-11.5354zM424.38421,34.68265l0.20101,8.23273h0.05747l5.71831,-1.9037l0.067,0.06307l-0.19168,4.55208l-8.89818,0.79762l-1.88709,-11.31553l4.87548,-0.48956zM440.90813,36.31336l2.59344,11.30162l-4.36041,0.17216l-0.34871,-2.96058l-3.41594,0.25619l-0.80548,2.16195l-0.06514,-0.0054l-3.8941,-1.25606l4.65373,-11.08089v-0.0004zM406.33392,38.24486l0.00455,0.0558l-0.67999,3.70489l-1.78295,1.28033l3.56197,2.35074l-3.50161,2.01445l-3.17944,-3.94077l-0.10643,0.00851l0.1977,3.28027l-0.13568,0.43107l-2.67122,0.21158l-0.97849,-5.13271l-0.92956,-5.19247l6.16287,-1.68379zM450.12831,40.40992l2.57516,-3.42279l0.0637,0.01018l3.11368,2.57559l-0.0166,0.1143l-3.49579,2.91434l4.53944,2.79547l-3.15913,3.02742l-3.0245,-3.59373l-2.89525,4.04346l-0.06347,-0.01018l-3.47237,-2.07834l0.00933,-0.06661l3.73085,-3.78247l-4.34092,-2.94879l2.67681,-3.2898zM394.97215,38.03367l-0.99031,3.06993l-0.05623,0.00684l-2.78757,-0.87271l-2.0431,1.86947l0.69037,2.92325l2.95105,0.80426l1.78482,-2.18707l2.01635,2.52893l0.02115,0.17219l-3.87727,2.79111l-5.56047,-1.23281l-2.3719,-5.44451l1.9987,-3.71694l3.80614,-1.96778zM463.62503,42.89797l3.99075,-2.47332l2.78138,3.64267l-6.46344,3.29684l-1.03763,4.48675l-5.08666,-1.86135l2.32022,-4.56704l-2.30198,-6.70843l5.12878,-0.7447zM413.03762,38.41743l-0.34559,2.7154l2.02918,-0.04958l-0.82208,-3.0338zM400.05799,38.49875l0.38253,4.04117l0.05351,-0.00416l2.10883,-0.88597l0.31759,-2.41568l-2.86682,-0.79035zM437.14019,39.04287l-0.65198,2.65877l2.02918,0.18067l-0.47689,-3.10726l-0.20434,-0.01244l-0.15703,-0.00039zM382.74268,39.89213l-0.57814,3.09108l-0.06514,0.02014l-3.6796,-0.50721l-0.62523,1.7147l7.49901,1.23366l-1.21251,4.80847l-5.12607,2.08564l-4.58071,-1.30751l-0.01991,-0.06432l0.73454,-2.81662l0.12114,-0.03736l4.23181,0.84035l0.80508,-1.75993l-7.19284,-1.26789l-0.017,-0.05498l0.86917,-4.0679l4.86948,-2.52041z" fill="url(#color-21)" stroke="none" stroke-width="1.73862" stroke-linecap="butt"/><path d="M395.3652,20.41407l0.21309,-1.47571l0.28829,1.56084l0.43867,0.87975l0.40109,0.56759l1.40384,0.25542l-1.34117,0.525l-0.58909,0.85138l-0.22562,0.89395l-0.27576,1.02162l-0.27573,-0.99326l-0.41365,-0.99328l-0.56403,-0.73785l-1.12808,-0.39729l1.15314,-0.39733l0.6267,-0.66689z" fill="url(#color-22)" stroke="none" stroke-width="0.94667" stroke-linecap="round"/><path d="M445.87524,27.9806l0.27073,-1.87504l0.3663,1.9832l0.55738,1.11781l0.50964,0.72117l1.78369,0.32453l-1.70407,0.66706l-0.74849,1.08175l-0.28668,1.13583l-0.35035,1.29809l-0.35037,-1.26203l-0.52556,-1.26203l-0.71664,-0.93751l-1.43332,-0.50483l1.46516,-0.5048l0.79629,-0.84737z" fill="url(#color-23)" stroke="none" stroke-width="1.20282" stroke-linecap="round"/><path d="M421.95369,36.2997l0.16639,-1.1524l0.22514,1.21889l0.34257,0.687l0.31324,0.44323l1.09623,0.19946l-1.0473,0.40997l-0.46003,0.66486l-0.1762,0.69809l-0.21532,0.79779l-0.21535,-0.77564l-0.323,-0.77564l-0.44045,-0.57619l-0.88091,-0.31027l0.90048,-0.31026l0.48942,-0.52078z" fill="url(#color-24)" stroke="none" stroke-width="0.73926" stroke-linecap="round"/><path d="M387.41385,43.53132l-0.03351,-1.16038l0.36943,1.1769l0.38782,0.63623l0.32698,0.39888l0.9426,0.05937l-0.81083,0.53707l-0.28379,0.71522l-0.04248,0.71243l-0.06016,0.81595l-0.29514,-0.73989l-0.38477,-0.72634l-0.45279,-0.51436l-0.77982,-0.19601l0.70349,-0.42001l0.32973,-0.5765z" fill="url(#color-25)" stroke="none" stroke-width="0.69053" stroke-linecap="round"/><path d="M461.35336,47.25391l0.39158,-0.95841l-0.02328,1.10376l0.19705,0.67057l0.21696,0.45333l1.02855,0.41845l-1.1022,0.11913l-0.58063,0.47123l-0.31066,0.56366l-0.3687,0.64104l-0.05541,-0.7186l-0.16031,-0.74278l-0.31451,-0.59678l-0.79666,-0.46588l0.93926,-0.0659l0.5806,-0.34014z" fill="url(#color-26)" stroke="none" stroke-width="0.69347" stroke-linecap="round"/><path d="M440.49439,43.50705l0.08771,-1.0294l0.27457,1.06569l0.35227,0.58821l0.31171,0.37421l1.01514,0.11333l-0.93612,0.42317l-0.384,0.61485l-0.12216,0.62795l-0.15245,0.71842l-0.24072,-0.67399l-0.33934,-0.66783l-0.43568,-0.48452l-0.82415,-0.2238l0.80723,-0.32645l0.41899,-0.4891z" fill="url(#color-27)" stroke="none" stroke-width="0.66563" stroke-linecap="round"/><path d="M433.01299,8.35418l0.15669,-1.08515l0.21199,1.14773l0.3226,0.64692l0.29494,0.41735l1.03225,0.18783l-0.98618,0.38607l-0.43318,0.62602l-0.16591,0.65736l-0.20276,0.75123l-0.20277,-0.73036l-0.30416,-0.73038l-0.41475,-0.54259l-0.82952,-0.29214l0.84796,-0.29217l0.46082,-0.49041z" fill="url(#color-28)" stroke="none" stroke-width="0.69612" stroke-linecap="round"/><path d="M411.5573,35.87135l-0.08485,-0.08485" fill="none" stroke="#4fa3da" stroke-width="0.75" stroke-linecap="round"/><path d="M415.64424,37.41279l0.08485,0.08485" fill="none" stroke="#4fa3da" stroke-width="0.75" stroke-linecap="round"/><path d="M411.18964,38.40271l0.08485,0.08485" fill="none" stroke="#4fa3da" stroke-width="0.75" stroke-linecap="round"/><path d="M411.91085,40.82093l-0.08485,-0.08485" fill="none" stroke="#54a7dc" stroke-width="0.75" stroke-linecap="round"/><path d="M409.70477,41.93812l0.08485,0.08485" fill="none" stroke="#72c2e7" stroke-width="0.75" stroke-linecap="round"/><path d="M410.49669,44.56847l-0.08485,-0.08485" fill="none" stroke="#88d6f0" stroke-width="0.75" stroke-linecap="round"/><path d="M408.51685,45.48768l-0.08485,-0.08485" fill="none" stroke="#94e1f4" stroke-width="0.75" stroke-linecap="round"/><path d="M413.53714,42.51793l-0.08485,-0.08485" fill="none" stroke="#72c2e7" stroke-width="0.75" stroke-linecap="round"/><path d="M415.78567,39.60474l0.08485,0.08485" fill="none" stroke="#54a7dc" stroke-width="0.75" stroke-linecap="round"/><path d="M417.48267,41.7967l0.08485,0.08485" fill="none" stroke="#72c2e7" stroke-width="0.75" stroke-linecap="round"/><path d="M415.94122,43.50784l-0.08485,-0.08485" fill="none" stroke="#88d6f0" stroke-width="0.75" stroke-linecap="round"/><path d="M417.21397,45.77051l-0.08485,-0.08485" fill="none" stroke="#94e1f4" stroke-width="0.75" stroke-linecap="round"/><path d="M418.48671,44.56847l-0.08485,-0.08485" fill="none" stroke="#94e1f4" stroke-width="0.75" stroke-linecap="round"/><path d="M417.05841,44.41291l0.08485,0.08485" fill="none" stroke="#88d6f0" stroke-width="0.75" stroke-linecap="round"/><path d="M411.11891,45.47354l0.08485,0.08485" fill="none" stroke="#94e1f4" stroke-width="0.75" stroke-linecap="round"/><path d="M404.0481,46.10991l0.08485,0.08485" fill="none" stroke="#94e1f4" stroke-width="0.75" stroke-linecap="round"/><path d="M405.60368,45.54424l0.08485,0.08485" fill="none" stroke="#94e1f4" stroke-width="0.75" stroke-linecap="round"/><path d="M403.27031,44.76645l0.08485,0.08485" fill="none" stroke="#88d6f0" stroke-width="0.75" stroke-linecap="round"/><path d="M401.85615,43.98866l0.08485,0.08485" fill="none" stroke="#88d6f0" stroke-width="0.75" stroke-linecap="round"/><path d="M403.55314,42.50379l0.08485,0.08485" fill="none" stroke="#72c2e7" stroke-width="0.75" stroke-linecap="round"/><path d="M399.25407,43.64926l-0.08485,-0.08485" fill="none" stroke="#88d6f0" stroke-width="0.75" stroke-linecap="round"/><path d="M398.26416,45.06343l-0.08485,-0.08485" fill="none" stroke="#88d6f0" stroke-width="0.75" stroke-linecap="round"/><path d="M399.89045,46.05334l-0.08485,-0.08485" fill="none" stroke="#94e1f4" stroke-width="0.75" stroke-linecap="round"/><path d="M398.53284,46.60486l0.08485,0.08485" fill="none" stroke="#94e1f4" stroke-width="0.75" stroke-linecap="round"/><path d="M391.03777,46.18062l0.08485,0.08485" fill="none" stroke="#8ad8f0" stroke-width="0.75" stroke-linecap="round"/><path d="M390.41553,47.3968l-0.08485,-0.08485" fill="none" stroke="#9ae6f6" stroke-width="0.75" stroke-linecap="round"/><path d="M393.31459,46.26547l-0.08485,-0.08485" fill="none" stroke="#8ad8f0" stroke-width="0.75" stroke-linecap="round"/><path d="M395.5631,45.75636l0.08485,0.08485" fill="none" stroke="#8ad8f0" stroke-width="0.75" stroke-linecap="round"/><path d="M394.29036,46.67558l0.08485,0.08485" fill="none" stroke="#9ae6f6" stroke-width="0.75" stroke-linecap="round"/><path d="M393.24387,47.67963l-0.08485,-0.08485" fill="none" stroke="#9ae6f6" stroke-width="0.75" stroke-linecap="round"/><path d="M378.66383,46.25132l0.08485,0.08485" fill="none" stroke="#7ccbeb" stroke-width="0.75" stroke-linecap="round"/><path d="M381.78913,45.77051l-0.08485,-0.08485" fill="none" stroke="#8ad8f0" stroke-width="0.75" stroke-linecap="round"/><path d="M380.51638,46.68971l-0.08485,-0.08485" fill="none" stroke="#8ad8f0" stroke-width="0.75" stroke-linecap="round"/><path d="M381.85984,47.46751l-0.08485,-0.08485" fill="none" stroke="#93e0f4" stroke-width="0.75" stroke-linecap="round"/><path d="M380.79922,48.59884l-0.08485,-0.08485" fill="none" stroke="#9ae6f6" stroke-width="0.75" stroke-linecap="round"/><path d="M381.98711,49.57461l0.08485,0.08485" fill="none" stroke="#b0faff" stroke-width="0.75" stroke-linecap="round"/><path d="M380.21941,50.21098l0.08485,0.08485" fill="none" stroke="#b0faff" stroke-width="0.75" stroke-linecap="round"/><path d="M378.60725,50.08371l-0.08485,-0.08485" fill="none" stroke="#b0faff" stroke-width="0.75" stroke-linecap="round"/><path d="M378.4517,51.27161l0.08485,0.08485" fill="none" stroke="#b0faff" stroke-width="0.75" stroke-linecap="round"/><path d="M376.83955,50.8615l-0.08485,-0.08485" fill="none" stroke="#b0faff" stroke-width="0.75" stroke-linecap="round"/><path d="M375.62338,49.36249l0.08485,0.08485" fill="none" stroke="#b0faff" stroke-width="0.75" stroke-linecap="round"/><path d="M377.1931,49.1645l-0.08485,-0.08485" fill="none" stroke="#b0faff" stroke-width="0.75" stroke-linecap="round"/><path d="M383.13259,49.02309l-0.08485,-0.08485" fill="none" stroke="#b0faff" stroke-width="0.75" stroke-linecap="round"/><path d="M383.83967,46.40688l-0.08485,-0.08485" fill="none" stroke="#8ad8f0" stroke-width="0.75" stroke-linecap="round"/><path d="M383.13259,47.60892l-0.08485,-0.08485" fill="none" stroke="#93e0f4" stroke-width="0.75" stroke-linecap="round"/><path d="M421.45648,42.94218l-0.08485,-0.08485" fill="none" stroke="#72c2e7" stroke-width="0.75" stroke-linecap="round"/><path d="M423.70498,42.71591l0.08485,0.08485" fill="none" stroke="#72c2e7" stroke-width="0.75" stroke-linecap="round"/><path d="M422.37567,45.48767l-0.08485,-0.08485" fill="none" stroke="#94e1f4" stroke-width="0.75" stroke-linecap="round"/><path d="M423.71913,44.49776l-0.08485,-0.08485" fill="none" stroke="#88d6f0" stroke-width="0.75" stroke-linecap="round"/><path d="M425.40199,44.97858l0.08485,0.08485" fill="none" stroke="#94e1f4" stroke-width="0.75" stroke-linecap="round"/><path d="M426.46262,43.06945l0.08485,0.08485" fill="none" stroke="#72c2e7" stroke-width="0.75" stroke-linecap="round"/><path d="M429.00811,42.29166l0.08485,0.08485" fill="none" stroke="#72c2e7" stroke-width="0.75" stroke-linecap="round"/><path d="M429.07882,44.13008l0.08485,0.08485" fill="none" stroke="#88d6f0" stroke-width="0.75" stroke-linecap="round"/><path d="M427.94749,45.11999l0.08485,0.08485" fill="none" stroke="#94e1f4" stroke-width="0.75" stroke-linecap="round"/><path d="M432.41625,45.55839l-0.08485,-0.08485" fill="none" stroke="#94e1f4" stroke-width="0.75" stroke-linecap="round"/><path d="M432.34553,43.64926l-0.08485,-0.08485" fill="none" stroke="#88d6f0" stroke-width="0.75" stroke-linecap="round"/><path d="M433.75971,41.88155l-0.08485,-0.08485" fill="none" stroke="#72c2e7" stroke-width="0.75" stroke-linecap="round"/><path d="M433.75971,46.12405l-0.08485,-0.08485" fill="none" stroke="#94e1f4" stroke-width="0.75" stroke-linecap="round"/><path d="M436.64461,43.21087l0.08485,0.08485" fill="none" stroke="#88d6f0" stroke-width="0.75" stroke-linecap="round"/><path d="M435.4567,43.79068l-0.08485,-0.08485" fill="none" stroke="#88d6f0" stroke-width="0.75" stroke-linecap="round"/><path d="M446.04879,46.81699l0.08485,0.08485" fill="none" stroke="#9be7f7" stroke-width="0.75" stroke-linecap="round"/><path d="M447.39225,45.47354l0.08485,0.08485" fill="none" stroke="#94e1f4" stroke-width="0.75" stroke-linecap="round"/><path d="M447.46297,47.02911l0.08485,0.08485" fill="none" stroke="#9be7f7" stroke-width="0.75" stroke-linecap="round"/><path d="M448.38218,44.27149l0.08485,0.08485" fill="none" stroke="#88d6f0" stroke-width="0.75" stroke-linecap="round"/><path d="M450.09332,44.35634l-0.08485,-0.08485" fill="none" stroke="#88d6f0" stroke-width="0.75" stroke-linecap="round"/><path d="M452.20042,44.62503l0.08485,0.08485" fill="none" stroke="#94e1f4" stroke-width="0.75" stroke-linecap="round"/><path d="M450.92766,43.4937l0.08485,0.08485" fill="none" stroke="#88d6f0" stroke-width="0.75" stroke-linecap="round"/><path d="M453.06306,46.5483l-0.08485,-0.08485" fill="none" stroke="#9be7f7" stroke-width="0.75" stroke-linecap="round"/><path d="M454.39237,46.10991l0.08485,0.08485" fill="none" stroke="#9be7f7" stroke-width="0.75" stroke-linecap="round"/><path d="M454.12368,44.92201l-0.08485,-0.08485" fill="none" stroke="#94e1f4" stroke-width="0.75" stroke-linecap="round"/><path d="M462.75008,46.26547l-0.08485,-0.08485" fill="none" stroke="#94e1f4" stroke-width="0.75" stroke-linecap="round"/><path d="M460.75611,45.40283l0.08485,0.08485" fill="none" stroke="#94e1f4" stroke-width="0.75" stroke-linecap="round"/><path d="M460.77025,43.43713l-0.08485,-0.08485" fill="none" stroke="#72c2e7" stroke-width="0.75" stroke-linecap="round"/><path d="M462.45313,42.6452l0.08485,0.08485" fill="none" stroke="#72c2e7" stroke-width="0.75" stroke-linecap="round"/><path d="M463.81071,44.92201l-0.08485,-0.08485" fill="none" stroke="#94e1f4" stroke-width="0.75" stroke-linecap="round"/><path d="M466.42693,43.0836l-0.08485,-0.08485" fill="none" stroke="#72c2e7" stroke-width="0.75" stroke-linecap="round"/><path d="M467.89765,41.72599l0.08485,0.08485" fill="none" stroke="#72c2e7" stroke-width="0.75" stroke-linecap="round"/><path d="M468.32191,43.42299l0.08485,0.08485" fill="none" stroke="#72c2e7" stroke-width="0.75" stroke-linecap="round"/><path d="M466.2148,44.70988l-0.08485,-0.08485" fill="none" stroke="#94e1f4" stroke-width="0.75" stroke-linecap="round"/><path d="M461.47736,40.11384l-0.08485,-0.08485" fill="none" stroke="#54a7dc" stroke-width="0.75" stroke-linecap="round"/><path d="M458.86114,39.33606l-0.08485,-0.08485" fill="none" stroke="#54a7dc" stroke-width="0.75" stroke-linecap="round"/><path d="M445.70939,39.97243l-0.08485,-0.08485" fill="none" stroke="#54a7dc" stroke-width="0.75" stroke-linecap="round"/><path d="M446.54375,38.19059l0.08485,0.08485" fill="none" stroke="#4fa3da" stroke-width="0.75" stroke-linecap="round"/><path d="M448.39632,40.96232l-0.08485,-0.08485" fill="none" stroke="#72c2e7" stroke-width="0.75" stroke-linecap="round"/><path d="M449.81048,42.44722l-0.08485,-0.08485" fill="none" stroke="#72c2e7" stroke-width="0.75" stroke-linecap="round"/><path d="M451.6489,40.5381l-0.08485,-0.08485" fill="none" stroke="#54a7dc" stroke-width="0.75" stroke-linecap="round"/><path d="M453.19034,38.61483l0.08485,0.08485" fill="none" stroke="#54a7dc" stroke-width="0.75" stroke-linecap="round"/><path d="M453.6853,40.24112l0.08485,0.08485" fill="none" stroke="#54a7dc" stroke-width="0.75" stroke-linecap="round"/><path d="M439.04869,40.80679l0.08485,0.08485" fill="none" stroke="#72c2e7" stroke-width="0.75" stroke-linecap="round"/><path d="M440.26486,37.9926l-0.08485,-0.08485" fill="none" stroke="#4fa3da" stroke-width="0.75" stroke-linecap="round"/><path d="M438.4123,36.7764l0.08485,0.08485" fill="none" stroke="#4fa3da" stroke-width="0.75" stroke-linecap="round"/><path d="M440.39213,39.88757l0.08485,0.08485" fill="none" stroke="#54a7dc" stroke-width="0.75" stroke-linecap="round"/><path d="M435.88095,40.75021l-0.08485,-0.08485" fill="none" stroke="#72c2e7" stroke-width="0.75" stroke-linecap="round"/><path d="M434.46679,39.40676l-0.08485,-0.08485" fill="none" stroke="#54a7dc" stroke-width="0.75" stroke-linecap="round"/><path d="M435.72539,38.54412l0.08485,0.08485" fill="none" stroke="#4fa3da" stroke-width="0.75" stroke-linecap="round"/><path d="M435.44255,35.99862l0.08485,0.08485" fill="none" stroke="#4fa3da" stroke-width="0.75" stroke-linecap="round"/><path d="M421.24435,40.6088l-0.08485,-0.08485" fill="none" stroke="#54a7dc" stroke-width="0.75" stroke-linecap="round"/><path d="M423.84641,40.38253l0.08485,0.08485" fill="none" stroke="#54a7dc" stroke-width="0.75" stroke-linecap="round"/><path d="M403.63799,37.78046l-0.08485,-0.08485" fill="none" stroke="#4fa3da" stroke-width="0.75" stroke-linecap="round"/><path d="M405.12286,39.7603l-0.08485,-0.08485" fill="none" stroke="#54a7dc" stroke-width="0.75" stroke-linecap="round"/><path d="M400.01772,36.98853l0.08485,0.08485" fill="none" stroke="#4fa3da" stroke-width="0.75" stroke-linecap="round"/><path d="M397.04797,37.90775l0.08485,0.08485" fill="none" stroke="#4fa3da" stroke-width="0.75" stroke-linecap="round"/><path d="M399.11265,39.47747l-0.08485,-0.08485" fill="none" stroke="#54a7dc" stroke-width="0.75" stroke-linecap="round"/><path d="M397.8399,42.16439l-0.08485,-0.08485" fill="none" stroke="#72c2e7" stroke-width="0.75" stroke-linecap="round"/><path d="M388.28015,41.37245l0.08485,0.08485" fill="none" stroke="#6dbee5" stroke-width="0.75" stroke-linecap="round"/><path d="M388.78925,38.98252l-0.08485,-0.08485" fill="none" stroke="#4fa3da" stroke-width="0.75" stroke-linecap="round"/><path d="M391.67414,38.40271l0.08485,0.08485" fill="none" stroke="#4fa3da" stroke-width="0.75" stroke-linecap="round"/><path d="M386.44174,41.37245l0.08485,0.08485" fill="none" stroke="#6dbee5" stroke-width="0.75" stroke-linecap="round"/><path d="M375.56681,45.20484l-0.08485,-0.08485" fill="none" stroke="#7ccbeb" stroke-width="0.75" stroke-linecap="round"/><path d="M377.47593,45.13413l-0.08485,-0.08485" fill="none" stroke="#7ccbeb" stroke-width="0.75" stroke-linecap="round"/><path d="M374.43548,43.50784l-0.08485,-0.08485" fill="none" stroke="#6dbee5" stroke-width="0.75" stroke-linecap="round"/><path d="M376.61329,41.58457l0.08485,0.08485" fill="none" stroke="#6dbee5" stroke-width="0.75" stroke-linecap="round"/><path d="M377.03754,43.14016l0.08485,0.08485" fill="none" stroke="#6dbee5" stroke-width="0.75" stroke-linecap="round"/><path d="M379.30021,40.59465l0.08485,0.08485" fill="none" stroke="#6dbee5" stroke-width="0.75" stroke-linecap="round"/><path d="M381.56287,41.65529l0.08485,0.08485" fill="none" stroke="#6dbee5" stroke-width="0.75" stroke-linecap="round"/></g></g></g></svg>