<svg version="1.1" xmlns="http://www.w3.org/2000/svg" xmlns:xlink="http://www.w3.org/1999/xlink" width="651.5014" height="477.83978" viewBox="0,0,651.5014,477.83978"><defs><radialGradient cx="22597.46763" cy="-7108.54221" r="52489.66435" gradientUnits="userSpaceOnUse" id="color-1"><stop offset="0" stop-color="#000000" stop-opacity="0"/><stop offset="1" stop-color="#000000"/></radialGradient><radialGradient cx="238.47801" cy="43.58412" r="324.5007" gradientUnits="userSpaceOnUse" id="color-2"><stop offset="0" stop-color="#3672d9"/><stop offset="1" stop-color="#2958a5"/></radialGradient><linearGradient x1="256.5331" y1="33.24691" x2="256.5331" y2="93.82078" gradientUnits="userSpaceOnUse" id="color-3"><stop offset="0" stop-color="#2958a5"/><stop offset="1" stop-color="#2958a5" stop-opacity="0"/></linearGradient><linearGradient x1="-0.02274" y1="274.93701" x2="66.97866" y2="274.93701" gradientUnits="userSpaceOnUse" id="color-4"><stop offset="0" stop-color="#2958a5"/><stop offset="1" stop-color="#2958a5" stop-opacity="0"/></linearGradient><linearGradient x1="481.39308" y1="274.93701" x2="414.3917" y2="274.93701" gradientUnits="userSpaceOnUse" id="color-5"><stop offset="0" stop-color="#2958a5"/><stop offset="1" stop-color="#2958a5" stop-opacity="0"/></linearGradient></defs><g transform="translate(87.27277,7.6794)"><g data-paper-data="{&quot;isPaintingLayer&quot;:true}" fill-rule="nonzero" stroke-linecap="butt" stroke-linejoin="miter" stroke-miterlimit="10" stroke-dasharray="" stroke-dashoffset="0" style="mix-blend-mode: normal"><path d="M514.3233,-7.6794c0,0 0,304.73048 0,457.09571c-182.88217,0 -365.76434,0 -548.64651,0v-456.83683z" fill="url(#color-1)" stroke="none" stroke-width="1.24396"/><path d="M479.47796,467.16038v-407h84v407z" fill="#2958a5" stroke="none" stroke-width="0"/><path d="M-81.52205,470.16039v-407h82v407z" fill="#2958a5" stroke="none" stroke-width="0"/><g data-paper-data="{&quot;index&quot;:null}"><path d="M-86.02277,-0.50279h649.0014v93.1738h-649.0014z" data-paper-data="{&quot;origPos&quot;:null}" fill="url(#color-2)" stroke="#034e9d" stroke-width="2.5"/><path d="M-83.73163,33.24691h644.54796v60.5737h-644.54796z" data-paper-data="{&quot;origPos&quot;:null}" fill="url(#color-3)" stroke="#09438d" stroke-width="0"/></g><path d="M278.86787,216.02388c4.2793,0.3559 6.4258,0.6398 6.4258,0.8392l1.891,16.7325c0,0.1282 -1.891,0.4411 -5.6724,0.9383l-0.0851,-0.1849v-1.5213c-3.2558,0.8815 -5.5021,1.4507 -6.7104,1.7062c-2.886,-4.0798 -4.3927,-6.2409 -4.5354,-6.5109c2.1181,-3.8527 3.2558,-5.8143 3.3978,-5.8573l5.9569,0.2846c-0.1281,-0.7249 -0.3697,-2.8722 -0.7533,-6.4264zM200.6629,220.61604c-0.8523,3.8956 -1.3931,5.8427 -1.6202,5.8427c-0.043,0 -1.1799,0.9528 -3.4124,2.8722c-1.3786,-0.0713 -2.9712,-0.1565 -4.7479,-0.2701l-0.1849,5.1178c-0.3836,0.1135 -2.0614,0.2271 -5.0326,0.3552c-0.3552,0 -0.5401,-1.0234 -0.5401,-3.0564c-0.6543,-8.4303 -0.9811,-12.9796 -0.9811,-13.6478c1.1092,-0.2416 4.5492,-0.8385 10.3213,-1.7913zM190.61227,226.00373c2.3314,-0.4119 3.4975,-0.6536 3.4975,-0.7249l0.8101,-3.4968c-1.1515,-0.4695 -2.5876,-1.0379 -4.3076,-1.7061zM212.88908,221.76753c2.2179,1.9048 3.3272,2.929 3.3272,3.0563c-0.896,2.8155 -1.4077,4.5209 -1.5358,5.1323c0.896,2.0046 1.4077,3.1991 1.5358,3.5827c0,0.1135 -1.4645,0.4119 -4.4073,0.9098c-0.043,-0.1565 -0.313,-0.5262 -0.8102,-1.0802c-4.0521,0.7818 -6.2415,1.1654 -6.5538,1.1654l-2.1611,-5.8427l4.7625,-2.5163c0.768,0.1281 1.9617,0.1849 3.5965,0.1849c0,-0.2133 0.0284,-0.8393 0.0859,-1.8911c-0.2701,0 -2.7296,0.1849 -7.3647,0.5401l-0.0852,-0.1849c0.6398,-2.9996 1.038,-4.4924 1.1661,-4.4924c5.6294,0.7824 8.4441,1.2512 8.4441,1.4361zM225.35698,220.51627l-1.9187,10.1795h0.099l4.8907,-1.4361v-5.7576c0.0145,-0.1281 0.0851,-0.1994 0.1848,-0.1994c3.6824,0.2562 5.7292,0.3843 6.1412,0.3843c0,0.0706 0.0284,0.0997 0.0997,0.0997c0,1.6203 -0.5117,4.9751 -1.5351,10.079c0,0.2984 -1.4645,0.5117 -4.4073,0.6682c-0.1565,-0.1849 -0.2846,-0.5685 -0.3836,-1.1515c-3.7675,0.7679 -5.9141,1.1515 -6.4403,1.1515c-2.9996,-2.2317 -4.5063,-3.3832 -4.5063,-3.4545c0.5117,-6.7242 0.8385,-10.2071 0.9666,-10.4633h0.0852c2.4027,-0.0714 4.606,-0.1565 6.6251,-0.2846zM252.28279,223.34552c-0.9804,2.1895 -1.5489,3.2842 -1.6916,3.2842l-5.1745,-2.9996h-0.1849c0,0.099 -0.2278,0.6253 -0.6682,1.5919c4.7626,2.5731 7.1507,3.8811 7.1507,3.9524c-1.3364,3.0848 -2.0897,4.7196 -2.26,4.8906l-8.0897,0.4688c-3.1415,-2.0898 -4.8331,-3.1845 -5.0748,-3.298v-0.0852c0,-0.2417 0.4688,-1.308 1.407,-3.199l6.3122,3.2842l0.4695,-1.8765c-3.9095,-1.7491 -6.2271,-2.8431 -6.9666,-3.2842v-0.1987c0,-0.356 0.7541,-1.9624 2.2608,-4.791l7.99,-0.754c2.7295,1.7491 4.2362,2.7441 4.5201,3.0141zM268.888,224.21245c-0.6115,2.8861 -0.9812,4.3651 -1.0948,4.4503h-8.9849v0.1565l2.5163,3.1131l3.9523,-2.0184c0.3836,0.6675 0.9528,1.8481 1.6778,3.5251c-0.3414,0.1143 -2.8293,0.4834 -7.4637,1.0948c-3.8388,-2.5301 -5.7721,-3.8527 -5.8005,-3.9524c0.6115,-4.9183 0.9812,-7.3778 1.0948,-7.3778c4.0091,-1.7062 6.326,-2.659 6.9658,-2.8577c4.2938,2.2033 6.6674,3.4975 7.1369,3.8665zM259.31996,226.04672c0,0.3981 0.5546,0.5968 1.6777,0.5968c0,0.0568 0.8102,0.1995 2.4312,0.4128c0.4403,-0.6115 0.6682,-0.9812 0.6682,-1.0809c-0.142,-0.8386 -0.455,-1.2651 -0.9245,-1.2651l-2.3452,-0.9237c-0.0713,0.1842 -0.583,0.9383 -1.5074,2.2601zM276.13836,226.21704c0.9521,2.929 1.5497,4.5354 1.7913,4.8193l2.8293,-2.4588c-0.2992,-1.6923 -0.5124,-2.5454 -0.6544,-2.5454h-3.7813c-0.1281,0.0146 -0.1849,0.0859 -0.1849,0.1849zM208.31147,232.01753h0.0852c1.1944,-0.7817 1.7913,-1.2934 1.7913,-1.5351l0.1849,-1.5213c-0.2271,0 -1.2222,-0.0851 -2.9713,-0.27c0,0.0997 0.2985,1.2083 0.9099,3.3264z" fill="#ffffff" stroke="#5575ab" stroke-width="3.5"/><path d="M279.97216,241.78426c-0.3787,1.4611 -0.634,2.1877 -0.7499,2.1877c-1.6,-0.1085 -2.3958,-0.2165 -2.3958,-0.317v-2.2415c0.0154,-0.0696 0.0538,-0.108 0.108,-0.108zM193.99897,243.47723c0,0.0851 -0.3866,0.8271 -1.1595,2.2336h-0.0542c-0.0618,0 -0.9506,-0.4172 -2.6665,-1.2597l-0.8734,1.1671c1.4761,0.7111 3.2771,1.6154 5.3872,2.7207c-0.9585,1.708 -1.6384,2.8367 -2.0405,3.401l-4.367,0.3862c-1.9941,-1.3447 -3.0452,-2.0404 -3.1612,-2.0867v-0.0542c0,-0.1469 0.4017,-0.8038 1.2134,-1.9863h0.1005c0.317,0.1932 1.3218,0.7421 3.0069,1.6463l1.0202,-1.1595c-3.0995,-1.5766 -4.8154,-2.4655 -5.1478,-2.6744v-0.0463c0.9814,-1.917 1.5228,-2.8909 1.6075,-2.9139c2.5584,-0.518 3.9883,-0.7808 4.2744,-0.7808c1.8552,0.9352 2.8058,1.4069 2.86,1.4069zM241.94388,242.67342l-0.3246,2.5815c0.6724,-0.0388 1.1671,-0.0543 1.4841,-0.0543h0.4946l0.1081,-0.0538l0.0542,0.1081c-0.1084,1.5691 -0.201,2.45 -0.2782,2.6435l-0.1084,-0.0621c-0.0772,0 -0.7729,-0.0384 -2.0868,-0.1081c-0.0696,1.2134 -0.1238,2.659 -0.1622,4.3441l-0.1085,0.0538c-1.6617,-0.108 -2.651,-0.201 -2.968,-0.2782l0.0542,-0.2165c0,-0.4483 0.0696,-1.8394 0.2165,-4.1738c-1.3915,-0.0772 -2.0872,-0.1698 -2.0872,-0.2782c0.0697,-1.7235 0.1627,-2.5815 0.2786,-2.5815l2.0325,0.3863v-0.6645c0,-0.541 -0.0229,-1.2754 -0.0617,-2.1951c0.0388,0 0.0617,-0.0155 0.0617,-0.0543zM285.9392,242.67342l-0.3245,2.5815c0.6724,-0.0388 1.167,-0.0543 1.484,-0.0543h0.4947l0.108,-0.0538l0.0543,0.1081c-0.1085,1.5691 -0.2011,2.45 -0.2782,2.6435l-0.1085,-0.0621c-0.0771,0 -0.7729,-0.0384 -2.0867,-0.1081c-0.0697,1.2134 -0.1239,2.659 -0.1623,4.3441l-0.1084,0.0538c-1.6617,-0.108 -2.6511,-0.201 -2.9681,-0.2782l0.0542,-0.2165c0,-0.4483 0.0697,-1.8394 0.2165,-4.1738c-1.3914,-0.0772 -2.0871,-0.1698 -2.0871,-0.2782c0.0696,-1.7235 0.1622,-2.5815 0.2782,-2.5815l2.0329,0.3863v-0.6645c0,-0.541 -0.0229,-1.2754 -0.0617,-2.1951c0.0388,0 0.0617,-0.0155 0.0617,-0.0543zM212.16268,245.18523c1.2059,1.0357 1.8086,1.5925 1.8086,1.6617c-0.4868,1.5308 -0.765,2.458 -0.8346,2.7904c0.4871,1.0899 0.7653,1.7393 0.8346,1.9478c0,0.0618 -0.7959,0.2244 -2.3958,0.4947c-0.0234,-0.0851 -0.1702,-0.2861 -0.4409,-0.5873c-2.2027,0.4251 -3.3931,0.6336 -3.5629,0.6336l-1.1749,-3.1766l2.5893,-1.3681c0.4171,0.0697 1.0665,0.1005 1.9554,0.1005c0,-0.1159 0.0154,-0.4562 0.0463,-1.0281c-0.1468,0 -1.4841,0.1005 -4.0037,0.2937l-0.0463,-0.1006c0.3478,-1.6308 0.5643,-2.4421 0.6339,-2.4421c3.0607,0.425 4.591,0.6799 4.591,0.7804zM271.74827,244.40488c1.3756,0.8113 2.1176,1.2288 2.2261,1.2676v0.0692c-0.3558,0.41 -1.0127,1.1132 -1.9633,2.118c1.8703,0.6957 2.9214,1.1133 3.1533,1.2601l-1.7468,2.1564c-1.1825,-1.0127 -1.9324,-1.6388 -2.257,-1.8937c-0.7962,1.5533 -1.2984,2.4734 -1.4915,2.7437h-0.0309c-1.4765,-0.5176 -2.2802,-0.8271 -2.4116,-0.9272v-0.0388l2.0404,-2.6665c-1.8936,-0.7808 -2.9138,-1.2446 -3.0452,-1.376c0.8346,-1.4144 1.3059,-2.1718 1.4065,-2.2648c0.0154,0.0388 0.9355,0.6648 2.7519,1.894c0.6415,-1.1904 1.0895,-1.9712 1.3369,-2.342zM199.66437,245.63366c2.2803,-0.518 3.4782,-0.7808 3.6096,-0.7808c1.5537,2.234 2.3265,3.3935 2.3265,3.494l-1.7776,3.7718l-3.826,-0.6106v0.1159c0.3015,2.2957 0.4483,3.5091 0.4483,3.6559c-0.0388,0 -0.0542,0.0154 -0.0542,0.0542c-0.3708,-0.0388 -0.6494,-0.0542 -0.8346,-0.0542h-0.6649c-0.3866,0 -0.9814,-0.0154 -1.7776,-0.0542c-0.0697,-0.2165 -0.6261,-3.5091 -1.6617,-9.8702c0.1776,-0.0697 1.4686,-0.3867 3.8798,-0.9431c0.1623,0.657 0.2707,1.0666 0.3324,1.2213zM221.3993,245.16233v0.0926c-0.5026,1.4143 -0.7499,2.1409 -0.7499,2.1951h-0.0463c-0.1314,0 -0.7495,-0.201 -1.8703,-0.6031c-0.626,1.0436 -0.9355,1.6079 -0.9355,1.6776l1.5462,1.4994c1.1979,-1.1207 1.8006,-1.685 1.8239,-1.685c0.9352,1.2212 1.399,1.909 1.399,2.0559c-0.5101,0.2936 -1.399,0.8734 -2.6665,1.7313c-2.4501,-0.533 -3.7798,-0.8271 -3.9729,-0.8888l-1.2137,-3.9266l3.0377,-2.8984c2.3266,0.4405 3.5403,0.6878 3.6483,0.75zM231.60187,246.51493c-0.3324,1.5687 -0.533,2.3729 -0.5952,2.4192h-4.8846v0.0851l1.3681,1.6925l2.1485,-1.0973c0.2089,0.3632 0.518,1.0047 0.9122,1.9165c-0.1856,0.0622 -1.5383,0.2628 -4.058,0.5952c-2.0867,-1.3756 -3.1382,-2.0946 -3.1536,-2.1485c0.3324,-2.6744 0.5334,-4.0116 0.5952,-4.0116c2.1797,-0.9276 3.4397,-1.4452 3.7876,-1.5537c2.3341,1.1979 3.625,1.9016 3.8798,2.1026zM247.69438,244.41233c1.9557,0.5256 2.9989,0.8426 3.1148,0.9585c1.0745,1.5228 1.6851,2.4037 1.8165,2.6357c-0.6957,2.203 -1.0974,3.3084 -1.1979,3.3084c-2.3187,0.5409 -3.5324,0.8112 -3.6404,0.8112c-1.917,-1.1207 -2.9372,-1.7389 -3.0611,-1.8703c-0.0692,-2.0792 -0.1005,-3.2308 -0.1005,-3.4473c-0.0309,-0.0617 -0.0463,-0.1084 -0.0463,-0.1393c1.9787,-1.5069 2.9989,-2.2569 3.0686,-2.2569zM265.51818,246.51493c-0.3321,1.5687 -0.5331,2.3729 -0.5952,2.4192h-4.8847v0.0851l1.3681,1.6925l2.1485,-1.0973c0.2089,0.3632 0.518,1.0047 0.9122,1.9165c-0.1856,0.0622 -1.5383,0.2628 -4.058,0.5952c-2.0867,-1.3756 -3.1378,-2.0946 -3.1536,-2.1485c0.3324,-2.6744 0.5334,-4.0116 0.5952,-4.0116c2.1797,-0.9276 3.4398,-1.4452 3.7876,-1.5537c2.3341,1.1979 3.625,1.9016 3.8799,2.1026zM276.13075,244.98422c2.3495,0.4254 3.5244,0.6803 3.5244,0.7499c-0.6723,3.826 -1.0819,5.9516 -1.2287,6.392h-2.4505c-0.0696,0 -0.108,-0.0384 -0.108,-0.108l0.2165,-7.0339zM226.40029,247.51188c0,0.2164 0.3012,0.3245 0.9118,0.3245c0,0.0312 0.4409,0.1084 1.3218,0.2244c0.2398,-0.3325 0.3633,-0.5335 0.3633,-0.5877c-0.0772,-0.4559 -0.2474,-0.6878 -0.5022,-0.6878l-1.2755,-0.5022c-0.0388,0.1005 -0.317,0.5101 -0.8192,1.2288zM260.31645,247.51188c0,0.2164 0.3016,0.3245 0.9122,0.3245c0,0.0312 0.4405,0.1084 1.3214,0.2244c0.2398,-0.3325 0.3633,-0.5335 0.3633,-0.5877c-0.0772,-0.4559 -0.2473,-0.6878 -0.5022,-0.6878l-1.2755,-0.5022c-0.0388,0.1005 -0.317,0.5101 -0.8192,1.2288zM247.54749,247.24155c-0.0308,0.2085 -0.0771,0.9581 -0.1389,2.249l1.7235,0.3866c0.4096,-1.2909 0.6185,-1.9787 0.6185,-2.0638c-1.368,-0.4096 -2.1025,-0.6185 -2.2031,-0.6185zM199.61017,247.57357c0.1005,1.1829 0.1935,1.7781 0.2786,1.7781c1.0586,0.3633 1.7001,0.5485 1.9399,0.5485l0.6107,-2.6586h-0.0542c-0.6028,0.0384 -1.5304,0.1468 -2.775,0.332zM209.67387,250.75805h0.0463c0.6494,-0.425 0.9739,-0.7032 0.9739,-0.8346l0.1006,-0.8271c-0.1235,0 -0.6649,-0.0463 -1.6155,-0.1468c0,0.0542 0.1623,0.6569 0.4947,1.8085z" fill="#cbdeff" stroke="#5575ab" stroke-width="3.5"/><path d="M278.86787,216.02388c4.2793,0.3559 6.4258,0.6398 6.4258,0.8392l1.891,16.7325c0,0.1282 -1.891,0.4411 -5.6724,0.9383l-0.0851,-0.1849v-1.5213c-3.2558,0.8815 -5.5021,1.4507 -6.7104,1.7062c-2.886,-4.0798 -4.3927,-6.2409 -4.5354,-6.5109c2.1181,-3.8527 3.2558,-5.8143 3.3978,-5.8573l5.9569,0.2846c-0.1281,-0.7249 -0.3697,-2.8722 -0.7533,-6.4264zM200.6629,220.61604c-0.8523,3.8956 -1.3931,5.8427 -1.6202,5.8427c-0.043,0 -1.1799,0.9528 -3.4124,2.8722c-1.3786,-0.0713 -2.9712,-0.1565 -4.7479,-0.2701l-0.1849,5.1178c-0.3836,0.1135 -2.0614,0.2271 -5.0326,0.3552c-0.3552,0 -0.5401,-1.0234 -0.5401,-3.0564c-0.6543,-8.4303 -0.9811,-12.9796 -0.9811,-13.6478c1.1092,-0.2416 4.5492,-0.8385 10.3213,-1.7913zM190.61227,226.00373c2.3314,-0.4119 3.4975,-0.6536 3.4975,-0.7249l0.8101,-3.4968c-1.1515,-0.4695 -2.5876,-1.0379 -4.3076,-1.7061zM212.88908,221.76753c2.2179,1.9048 3.3272,2.929 3.3272,3.0563c-0.896,2.8155 -1.4077,4.5209 -1.5358,5.1323c0.896,2.0046 1.4077,3.1991 1.5358,3.5827c0,0.1135 -1.4645,0.4119 -4.4073,0.9098c-0.043,-0.1565 -0.313,-0.5262 -0.8102,-1.0802c-4.0521,0.7818 -6.2415,1.1654 -6.5538,1.1654l-2.1611,-5.8427l4.7625,-2.5163c0.768,0.1281 1.9617,0.1849 3.5965,0.1849c0,-0.2133 0.0284,-0.8393 0.0859,-1.8911c-0.2701,0 -2.7296,0.1849 -7.3647,0.5401l-0.0852,-0.1849c0.6398,-2.9996 1.038,-4.4924 1.1661,-4.4924c5.6294,0.7824 8.4441,1.2512 8.4441,1.4361zM225.35698,220.51627l-1.9187,10.1795h0.099l4.8907,-1.4361v-5.7576c0.0145,-0.1281 0.0851,-0.1994 0.1848,-0.1994c3.6824,0.2562 5.7292,0.3843 6.1412,0.3843c0,0.0706 0.0284,0.0997 0.0997,0.0997c0,1.6203 -0.5117,4.9751 -1.5351,10.079c0,0.2984 -1.4645,0.5117 -4.4073,0.6682c-0.1565,-0.1849 -0.2846,-0.5685 -0.3836,-1.1515c-3.7675,0.7679 -5.9141,1.1515 -6.4403,1.1515c-2.9996,-2.2317 -4.5063,-3.3832 -4.5063,-3.4545c0.5117,-6.7242 0.8385,-10.2071 0.9666,-10.4633h0.0852c2.4027,-0.0714 4.606,-0.1565 6.6251,-0.2846zM252.28279,223.34552c-0.9804,2.1895 -1.5489,3.2842 -1.6916,3.2842l-5.1745,-2.9996h-0.1849c0,0.099 -0.2278,0.6253 -0.6682,1.5919c4.7626,2.5731 7.1507,3.8811 7.1507,3.9524c-1.3364,3.0848 -2.0897,4.7196 -2.26,4.8906l-8.0897,0.4688c-3.1415,-2.0898 -4.8331,-3.1845 -5.0748,-3.298v-0.0852c0,-0.2417 0.4688,-1.308 1.407,-3.199l6.3122,3.2842l0.4695,-1.8765c-3.9095,-1.7491 -6.2271,-2.8431 -6.9666,-3.2842v-0.1987c0,-0.356 0.7541,-1.9624 2.2608,-4.791l7.99,-0.754c2.7295,1.7491 4.2362,2.7441 4.5201,3.0141zM268.888,224.21245c-0.6115,2.8861 -0.9812,4.3651 -1.0948,4.4503h-8.9849v0.1565l2.5163,3.1131l3.9523,-2.0184c0.3836,0.6675 0.9528,1.8481 1.6778,3.5251c-0.3414,0.1143 -2.8293,0.4834 -7.4637,1.0948c-3.8388,-2.5301 -5.7721,-3.8527 -5.8005,-3.9524c0.6115,-4.9183 0.9812,-7.3778 1.0948,-7.3778c4.0091,-1.7062 6.326,-2.659 6.9658,-2.8577c4.2938,2.2033 6.6674,3.4975 7.1369,3.8665zM259.31996,226.04672c0,0.3981 0.5546,0.5968 1.6777,0.5968c0,0.0568 0.8102,0.1995 2.4312,0.4128c0.4403,-0.6115 0.6682,-0.9812 0.6682,-1.0809c-0.142,-0.8386 -0.455,-1.2651 -0.9245,-1.2651l-2.3452,-0.9237c-0.0713,0.1842 -0.583,0.9383 -1.5074,2.2601zM276.13836,226.21704c0.9521,2.929 1.5497,4.5354 1.7913,4.8193l2.8293,-2.4588c-0.2992,-1.6923 -0.5124,-2.5454 -0.6544,-2.5454h-3.7813c-0.1281,0.0146 -0.1849,0.0859 -0.1849,0.1849zM208.31147,232.01753h0.0852c1.1944,-0.7817 1.7913,-1.2934 1.7913,-1.5351l0.1849,-1.5213c-0.2271,0 -1.2222,-0.0851 -2.9713,-0.27c0,0.0997 0.2985,1.2083 0.9099,3.3264z" fill="#ffffff" stroke="none" stroke-width="0.72788"/><path d="M279.97216,241.78426c-0.3787,1.4611 -0.634,2.1877 -0.7499,2.1877c-1.6,-0.1085 -2.3958,-0.2165 -2.3958,-0.317v-2.2415c0.0154,-0.0696 0.0538,-0.108 0.108,-0.108zM193.99897,243.47723c0,0.0851 -0.3866,0.8271 -1.1595,2.2336h-0.0542c-0.0618,0 -0.9506,-0.4172 -2.6665,-1.2597l-0.8734,1.1671c1.4761,0.7111 3.2771,1.6154 5.3872,2.7207c-0.9585,1.708 -1.6384,2.8367 -2.0405,3.401l-4.367,0.3862c-1.9941,-1.3447 -3.0452,-2.0404 -3.1612,-2.0867v-0.0542c0,-0.1469 0.4017,-0.8038 1.2134,-1.9863h0.1005c0.317,0.1932 1.3218,0.7421 3.0069,1.6463l1.0202,-1.1595c-3.0995,-1.5766 -4.8154,-2.4655 -5.1478,-2.6744v-0.0463c0.9814,-1.917 1.5228,-2.8909 1.6075,-2.9139c2.5584,-0.518 3.9883,-0.7808 4.2744,-0.7808c1.8552,0.9352 2.8058,1.4069 2.86,1.4069zM241.94388,242.67342l-0.3246,2.5815c0.6724,-0.0388 1.1671,-0.0543 1.4841,-0.0543h0.4946l0.1081,-0.0538l0.0542,0.1081c-0.1084,1.5691 -0.201,2.45 -0.2782,2.6435l-0.1084,-0.0621c-0.0772,0 -0.7729,-0.0384 -2.0868,-0.1081c-0.0696,1.2134 -0.1238,2.659 -0.1622,4.3441l-0.1085,0.0538c-1.6617,-0.108 -2.651,-0.201 -2.968,-0.2782l0.0542,-0.2165c0,-0.4483 0.0696,-1.8394 0.2165,-4.1738c-1.3915,-0.0772 -2.0872,-0.1698 -2.0872,-0.2782c0.0697,-1.7235 0.1627,-2.5815 0.2786,-2.5815l2.0325,0.3863v-0.6645c0,-0.541 -0.0229,-1.2754 -0.0617,-2.1951c0.0388,0 0.0617,-0.0155 0.0617,-0.0543zM285.9392,242.67342l-0.3245,2.5815c0.6724,-0.0388 1.167,-0.0543 1.484,-0.0543h0.4947l0.108,-0.0538l0.0543,0.1081c-0.1085,1.5691 -0.2011,2.45 -0.2782,2.6435l-0.1085,-0.0621c-0.0771,0 -0.7729,-0.0384 -2.0867,-0.1081c-0.0697,1.2134 -0.1239,2.659 -0.1623,4.3441l-0.1084,0.0538c-1.6617,-0.108 -2.6511,-0.201 -2.9681,-0.2782l0.0542,-0.2165c0,-0.4483 0.0697,-1.8394 0.2165,-4.1738c-1.3914,-0.0772 -2.0871,-0.1698 -2.0871,-0.2782c0.0696,-1.7235 0.1622,-2.5815 0.2782,-2.5815l2.0329,0.3863v-0.6645c0,-0.541 -0.0229,-1.2754 -0.0617,-2.1951c0.0388,0 0.0617,-0.0155 0.0617,-0.0543zM212.16268,245.18523c1.2059,1.0357 1.8086,1.5925 1.8086,1.6617c-0.4868,1.5308 -0.765,2.458 -0.8346,2.7904c0.4871,1.0899 0.7653,1.7393 0.8346,1.9478c0,0.0618 -0.7959,0.2244 -2.3958,0.4947c-0.0234,-0.0851 -0.1702,-0.2861 -0.4409,-0.5873c-2.2027,0.4251 -3.3931,0.6336 -3.5629,0.6336l-1.1749,-3.1766l2.5893,-1.3681c0.4171,0.0697 1.0665,0.1005 1.9554,0.1005c0,-0.1159 0.0154,-0.4562 0.0463,-1.0281c-0.1468,0 -1.4841,0.1005 -4.0037,0.2937l-0.0463,-0.1006c0.3478,-1.6308 0.5643,-2.4421 0.6339,-2.4421c3.0607,0.425 4.591,0.6799 4.591,0.7804zM271.74827,244.40488c1.3756,0.8113 2.1176,1.2288 2.2261,1.2676v0.0692c-0.3558,0.41 -1.0127,1.1132 -1.9633,2.118c1.8703,0.6957 2.9214,1.1133 3.1533,1.2601l-1.7468,2.1564c-1.1825,-1.0127 -1.9324,-1.6388 -2.257,-1.8937c-0.7962,1.5533 -1.2984,2.4734 -1.4915,2.7437h-0.0309c-1.4765,-0.5176 -2.2802,-0.8271 -2.4116,-0.9272v-0.0388l2.0404,-2.6665c-1.8936,-0.7808 -2.9138,-1.2446 -3.0452,-1.376c0.8346,-1.4144 1.3059,-2.1718 1.4065,-2.2648c0.0154,0.0388 0.9355,0.6648 2.7519,1.894c0.6415,-1.1904 1.0895,-1.9712 1.3369,-2.342zM199.66437,245.63366c2.2803,-0.518 3.4782,-0.7808 3.6096,-0.7808c1.5537,2.234 2.3265,3.3935 2.3265,3.494l-1.7776,3.7718l-3.826,-0.6106v0.1159c0.3015,2.2957 0.4483,3.5091 0.4483,3.6559c-0.0388,0 -0.0542,0.0154 -0.0542,0.0542c-0.3708,-0.0388 -0.6494,-0.0542 -0.8346,-0.0542h-0.6649c-0.3866,0 -0.9814,-0.0154 -1.7776,-0.0542c-0.0697,-0.2165 -0.6261,-3.5091 -1.6617,-9.8702c0.1776,-0.0697 1.4686,-0.3867 3.8798,-0.9431c0.1623,0.657 0.2707,1.0666 0.3324,1.2213zM221.3993,245.16233v0.0926c-0.5026,1.4143 -0.7499,2.1409 -0.7499,2.1951h-0.0463c-0.1314,0 -0.7495,-0.201 -1.8703,-0.6031c-0.626,1.0436 -0.9355,1.6079 -0.9355,1.6776l1.5462,1.4994c1.1979,-1.1207 1.8006,-1.685 1.8239,-1.685c0.9352,1.2212 1.399,1.909 1.399,2.0559c-0.5101,0.2936 -1.399,0.8734 -2.6665,1.7313c-2.4501,-0.533 -3.7798,-0.8271 -3.9729,-0.8888l-1.2137,-3.9266l3.0377,-2.8984c2.3266,0.4405 3.5403,0.6878 3.6483,0.75zM231.60187,246.51493c-0.3324,1.5687 -0.533,2.3729 -0.5952,2.4192h-4.8846v0.0851l1.3681,1.6925l2.1485,-1.0973c0.2089,0.3632 0.518,1.0047 0.9122,1.9165c-0.1856,0.0622 -1.5383,0.2628 -4.058,0.5952c-2.0867,-1.3756 -3.1382,-2.0946 -3.1536,-2.1485c0.3324,-2.6744 0.5334,-4.0116 0.5952,-4.0116c2.1797,-0.9276 3.4397,-1.4452 3.7876,-1.5537c2.3341,1.1979 3.625,1.9016 3.8798,2.1026zM247.69438,244.41233c1.9557,0.5256 2.9989,0.8426 3.1148,0.9585c1.0745,1.5228 1.6851,2.4037 1.8165,2.6357c-0.6957,2.203 -1.0974,3.3084 -1.1979,3.3084c-2.3187,0.5409 -3.5324,0.8112 -3.6404,0.8112c-1.917,-1.1207 -2.9372,-1.7389 -3.0611,-1.8703c-0.0692,-2.0792 -0.1005,-3.2308 -0.1005,-3.4473c-0.0309,-0.0617 -0.0463,-0.1084 -0.0463,-0.1393c1.9787,-1.5069 2.9989,-2.2569 3.0686,-2.2569zM265.51818,246.51493c-0.3321,1.5687 -0.5331,2.3729 -0.5952,2.4192h-4.8847v0.0851l1.3681,1.6925l2.1485,-1.0973c0.2089,0.3632 0.518,1.0047 0.9122,1.9165c-0.1856,0.0622 -1.5383,0.2628 -4.058,0.5952c-2.0867,-1.3756 -3.1378,-2.0946 -3.1536,-2.1485c0.3324,-2.6744 0.5334,-4.0116 0.5952,-4.0116c2.1797,-0.9276 3.4398,-1.4452 3.7876,-1.5537c2.3341,1.1979 3.625,1.9016 3.8799,2.1026zM276.13075,244.98422c2.3495,0.4254 3.5244,0.6803 3.5244,0.7499c-0.6723,3.826 -1.0819,5.9516 -1.2287,6.392h-2.4505c-0.0696,0 -0.108,-0.0384 -0.108,-0.108l0.2165,-7.0339zM226.40029,247.51188c0,0.2164 0.3012,0.3245 0.9118,0.3245c0,0.0312 0.4409,0.1084 1.3218,0.2244c0.2398,-0.3325 0.3633,-0.5335 0.3633,-0.5877c-0.0772,-0.4559 -0.2474,-0.6878 -0.5022,-0.6878l-1.2755,-0.5022c-0.0388,0.1005 -0.317,0.5101 -0.8192,1.2288zM260.31645,247.51188c0,0.2164 0.3016,0.3245 0.9122,0.3245c0,0.0312 0.4405,0.1084 1.3214,0.2244c0.2398,-0.3325 0.3633,-0.5335 0.3633,-0.5877c-0.0772,-0.4559 -0.2473,-0.6878 -0.5022,-0.6878l-1.2755,-0.5022c-0.0388,0.1005 -0.317,0.5101 -0.8192,1.2288zM247.54749,247.24155c-0.0308,0.2085 -0.0771,0.9581 -0.1389,2.249l1.7235,0.3866c0.4096,-1.2909 0.6185,-1.9787 0.6185,-2.0638c-1.368,-0.4096 -2.1025,-0.6185 -2.2031,-0.6185zM199.61017,247.57357c0.1005,1.1829 0.1935,1.7781 0.2786,1.7781c1.0586,0.3633 1.7001,0.5485 1.9399,0.5485l0.6107,-2.6586h-0.0542c-0.6028,0.0384 -1.5304,0.1468 -2.775,0.332zM209.67387,250.75805h0.0463c0.6494,-0.425 0.9739,-0.7032 0.9739,-0.8346l0.1006,-0.8271c-0.1235,0 -0.6649,-0.0463 -1.6155,-0.1468c0,0.0542 0.1623,0.6569 0.4947,1.8085z" fill="#cbdeff" stroke="none" stroke-width="0.39574"/><path d="M-0.02274,93.4171h67.0014v363.0401h-67.0014z" fill="url(#color-4)" stroke="#034e9d" stroke-width="0"/><path d="M481.39308,456.45721h-67.0014v-363.0401h67.0014z" data-paper-data="{&quot;index&quot;:null}" fill="url(#color-5)" stroke="#034e9d" stroke-width="0"/><text transform="translate(13.62148,22.86644) scale(0.72123,0.72279)" font-size="22" xml:space="preserve" data-paper-data="{&quot;index&quot;:null}" fill="#ffffff" fill-rule="nonzero" stroke="none" stroke-width="1" stroke-linecap="butt" stroke-linejoin="miter" stroke-miterlimit="10" stroke-dasharray="" stroke-dashoffset="0" font-family="Sans Serif" font-weight="400" text-anchor="start" style="mix-blend-mode: normal"><tspan x="0" dy="0">Characters</tspan></text><text transform="translate(378.36189,22.65376) scale(0.72123,0.72279)" font-size="22" xml:space="preserve" data-paper-data="{&quot;index&quot;:null}" fill="#ffffff" fill-rule="nonzero" stroke="none" stroke-width="1" stroke-linecap="butt" stroke-linejoin="miter" stroke-miterlimit="10" stroke-dasharray="" stroke-dashoffset="0" font-family="Sans Serif" font-weight="400" text-anchor="start" style="mix-blend-mode: normal"><tspan x="0" dy="0">Exit to Menu</tspan></text><text transform="translate(115.0991,22.61121) scale(0.72123,0.72279)" font-size="22" xml:space="preserve" data-paper-data="{&quot;index&quot;:null}" fill="#ffffff" fill-rule="nonzero" stroke="none" stroke-width="1" stroke-linecap="butt" stroke-linejoin="miter" stroke-miterlimit="10" stroke-dasharray="" stroke-dashoffset="0" font-family="Sans Serif" font-weight="400" text-anchor="start" style="mix-blend-mode: normal"><tspan x="0" dy="0">Restart</tspan></text><text transform="translate(188.14223,22.61121) scale(0.72123,0.72279)" font-size="22" xml:space="preserve" data-paper-data="{&quot;index&quot;:null}" fill="#ffffff" fill-rule="nonzero" stroke="none" stroke-width="1" stroke-linecap="butt" stroke-linejoin="miter" stroke-miterlimit="10" stroke-dasharray="" stroke-dashoffset="0" font-family="Sans Serif" font-weight="400" text-anchor="start" style="mix-blend-mode: normal"><tspan x="0" dy="0">Stars</tspan></text><text transform="translate(306.72382,22.99408) scale(0.72123,0.72279)" font-size="22" xml:space="preserve" data-paper-data="{&quot;index&quot;:null}" fill="#ffffff" fill-rule="nonzero" stroke="none" stroke-width="1" stroke-linecap="butt" stroke-linejoin="miter" stroke-miterlimit="10" stroke-dasharray="" stroke-dashoffset="0" font-family="Sans Serif" font-weight="400" text-anchor="start" style="mix-blend-mode: normal"><tspan x="0" dy="0">Options</tspan></text><text transform="translate(251.72381,22.99408) scale(0.72123,0.72279)" font-size="22" xml:space="preserve" data-paper-data="{&quot;index&quot;:null}" fill="#ffffff" fill-rule="nonzero" stroke="none" stroke-width="1" stroke-linecap="butt" stroke-linejoin="miter" stroke-miterlimit="10" stroke-dasharray="" stroke-dashoffset="0" font-family="Sans Serif" font-weight="400" text-anchor="start" style="mix-blend-mode: normal"><tspan x="0" dy="0">Save</tspan></text></g></g></svg>