<svg version="1.1" xmlns="http://www.w3.org/2000/svg" xmlns:xlink="http://www.w3.org/1999/xlink" width="533.1583" height="398.9015"><defs><linearGradient x1="453.86066" y1="95.39302" x2="474" y2="95.39302" gradientUnits="userSpaceOnUse" id="color-1"><stop offset="0" stop-color="#a3822e"/><stop offset="1" stop-color="#e4b234"/></linearGradient><linearGradient x1="25.86066" y1="226.39302" x2="46" y2="226.39302" gradientUnits="userSpaceOnUse" id="color-2"><stop offset="0" stop-color="#a3822e"/><stop offset="1" stop-color="#e4b234"/></linearGradient><linearGradient x1="152.98307" y1="75.86562" x2="152.98307" y2="89.86562" gradientUnits="userSpaceOnUse" id="color-3"><stop offset="0" stop-color="#e4b234"/><stop offset="1" stop-color="#a3822e"/></linearGradient><linearGradient x1="331.98307" y1="190.86562" x2="331.98307" y2="204.86562" gradientUnits="userSpaceOnUse" id="color-4"><stop offset="0" stop-color="#e4b234"/><stop offset="1" stop-color="#a3822e"/></linearGradient><linearGradient x1="260.14091" y1="312.39303" x2="260.14091" y2="384.78418" gradientUnits="userSpaceOnUse" id="color-5"><stop offset="0" stop-color="#867037"/><stop offset="1" stop-color="#ac8f46"/></linearGradient><radialGradient cx="262.57318" cy="297.43485" r="425.84807" gradientUnits="userSpaceOnUse" id="color-6"><stop offset="0" stop-color="#b1eb5b"/><stop offset="1" stop-color="#94d955"/></radialGradient></defs><g transform="translate(6.6583,10.10698)"><g data-paper-data="{&quot;isPaintingLayer&quot;:true}" fill="none" fill-rule="nonzero" stroke="none" stroke-width="none" stroke-linecap="none" stroke-linejoin="miter" stroke-miterlimit="10" stroke-dasharray="" stroke-dashoffset="0" font-family="none" font-weight="none" font-size="none" text-anchor="none" style="mix-blend-mode: normal"><path d="M453.86066,-10.10698h20.13934v211h-20.13934z" data-paper-data="{&quot;origPos&quot;:null}" id="ID0.512201922480017" fill="url(#color-1)" stroke="none" stroke-width="1.54554" stroke-linecap="butt"/><path d="M25.86066,88.89302h20.13934v275h-20.13934z" data-paper-data="{&quot;origPos&quot;:null}" id="ID0.512201922480017" fill="url(#color-2)" stroke="none" stroke-width="1.54554" stroke-linecap="butt"/><path d="M-6.6583,75.86562h319.28274v14h-319.28274z" data-paper-data="{&quot;origPos&quot;:null}" id="ID0.8304188074544072" fill="url(#color-3)" stroke="none" stroke-width="1.16442" stroke-linecap="butt"/><path d="M172.3417,190.86562h319.28274v14h-319.28274z" data-paper-data="{&quot;origPos&quot;:null}" id="ID0.8304188074544072" fill="url(#color-4)" stroke="none" stroke-width="1.16442" stroke-linecap="butt"/><path d="M503.5,312.39303v72.39115l-289.17907,3l-0.61273,-74.43008z" data-paper-data="{&quot;origPos&quot;:null}" id="ID0.29126935824751854" fill="url(#color-5)" stroke="#8d763a" stroke-width="2" stroke-linecap="butt"/><path d="M270.10372,292.88583c84.90281,0.89736 170.54837,-2.78749 255.39628,2.07003c0,5.68441 0,11.36881 0,17.05322c-0.39721,0.14296 -0.75675,0.27258 -1.07309,0.38757c-23.47285,8.50183 -49.30543,16.38583 -75.48033,16.6663c-32.35377,0.34225 -62.70193,-17.49063 -95.14155,-16.6663c-30.64755,1.56981 -56.41897,24.02025 -86.92058,23.57557c-22.86217,-0.33589 -64.36838,-19.02687 -64.36838,-19.02687l1.23832,-15.59125c0,0 4.95657,-7.00191 6.78478,-7.38413c1.04072,-0.21758 9.25949,-2.19549 9.46208,-2.32433c16.71074,0.44311 33.41477,1.11997 50.10248,1.24019z" data-paper-data="{&quot;origPos&quot;:null}" id="ID0.22012263583019376" fill="url(#color-6)" stroke="#3d6600" stroke-width="2" stroke-linecap="butt"/><path d="M519.50001,340.51349c-13.46576,10.95227 -36.27608,10.74811 -65.01867,11.18934c-38.21647,0.58668 -54.36408,-17.87438 -88.37275,-18.66478c-34.00867,-0.7904 -37.1862,19.50063 -79.49934,18.10388c-29.03107,-0.95831 -51.02312,-9.27547 -71.35709,-14.76796" data-paper-data="{&quot;origPos&quot;:null,&quot;origRot&quot;:0}" fill="none" stroke="#bba15f" stroke-width="9" stroke-linecap="round"/><path d="M519.50001,367.05691c-13.46576,10.95227 -36.27608,10.74811 -65.01867,11.18934c-38.21647,0.58668 -54.36408,-17.87438 -88.37275,-18.66478c-34.00867,-0.7904 -37.1862,19.50063 -79.49934,18.10388c-28.92116,-0.95468 -50.8565,-9.2126 -71.12608,-14.70546" data-paper-data="{&quot;origPos&quot;:null,&quot;origRot&quot;:0}" fill="none" stroke="#7d6938" stroke-width="9" stroke-linecap="round"/></g></g></svg>