<svg version="1.1" xmlns="http://www.w3.org/2000/svg" xmlns:xlink="http://www.w3.org/1999/xlink" width="437" height="90.79587" viewBox="0,0,437,90.79587"><defs><linearGradient x1="240" y1="135.60207" x2="240" y2="224.39795" gradientUnits="userSpaceOnUse" id="color-1"><stop offset="0" stop-color="#ffffff"/><stop offset="1" stop-color="#d8d8d8"/></linearGradient><linearGradient x1="240" y1="135.60208" x2="240" y2="224.39795" gradientUnits="userSpaceOnUse" id="color-2"><stop offset="0" stop-color="#343434"/><stop offset="1" stop-color="#090909"/></linearGradient><radialGradient cx="443.8065" cy="206.54467" r="17.9081" gradientUnits="userSpaceOnUse" id="color-3"><stop offset="0" stop-color="#ffffff"/><stop offset="1" stop-color="#e5e5e5"/></radialGradient></defs><g transform="translate(-21.5,-134.60208)"><g data-paper-data="{&quot;isPaintingLayer&quot;:true}" fill-rule="nonzero" stroke-linejoin="miter" stroke-miterlimit="10" stroke-dasharray="" stroke-dashoffset="0" style="mix-blend-mode: normal"><path d="M22.5,224.39795v-88.79587h435v88.79587z" data-paper-data="{&quot;origPos&quot;:null}" fill="url(#color-1)" stroke="url(#color-2)" stroke-width="2" stroke-linecap="butt"/><g data-paper-data="{&quot;origPos&quot;:null}"><path d="M444.3058,202.09868c2.5136,0 4.7909,1.0212 6.4406,2.6702c1.6489,1.6496 2.6702,3.9269 2.6702,6.4405c0,2.5136 -1.0213,4.791 -2.6702,6.4406c-1.6497,1.649 -3.927,2.6702 -6.4406,2.6702c-2.5136,0 -4.7909,-1.0212 -6.4406,-2.6702c-1.6489,-1.6496 -2.6701,-3.927 -2.6701,-6.4406c0,-2.5136 1.0212,-4.7909 2.6701,-6.4405c1.6497,-1.649 3.927,-2.6702 6.4406,-2.6702z" fill="url(#color-3)" stroke="#000000" stroke-width="2.0785" stroke-linecap="butt"/><path d="M441.2734,206.54887l5.6119,0.4503l1.7321,3.187l-3.6374,2.9446l3.3603,-0.5197l0.7967,3.4642l-7.4479,-0.0693l-1.9053,-2.4249l4.6766,-3.3256l-4.5727,-0.3464z" fill="#000000" stroke="none" stroke-width="0.69283" stroke-linecap="round"/></g><path d="M38.335,149.65706c2.449,0.547 3.81,0.86 4.083,0.939v0.064c-0.085,2.194 -0.149,3.47 -0.191,3.828c0.139,0 0.768,0.146 1.886,0.438c1.003,-3.093 1.547,-4.64 1.632,-4.64c1.677,0.754 2.743,1.255 3.199,1.504v0.064c-1.841,4.284 -2.886,6.648 -3.135,7.091c-0.462,0.383 -2.072,1.847 -4.831,4.393h-0.064l-5.086,-2.506c0.468,-0.802 1.033,-1.723 1.696,-2.762c0.03,0 0.826,0.523 2.388,1.568h0.063c0.523,-0.426 1.149,-1.033 1.878,-1.823c0,-0.037 -1.191,-1.206 -3.573,-3.509v-4.521z" data-paper-data="{&quot;origPos&quot;:null}" fill="#000000" stroke="none" stroke-width="1" stroke-linecap="butt"/><path d="M53.611,152.41905c2.309,0.62 3.533,0.997 3.673,1.13c1.27,1.799 1.984,2.835 2.142,3.108c-0.82,2.601 -1.291,3.901 -1.413,3.901c-2.734,0.638 -4.165,0.957 -4.293,0.957c-2.26,-1.318 -3.463,-2.053 -3.609,-2.205c-0.079,-2.455 -0.119,-3.81 -0.119,-4.065c-0.036,-0.073 -0.054,-0.128 -0.054,-0.164c2.333,-1.775 3.539,-2.662 3.618,-2.662zM53.383,155.75507c-0.037,0.243 -0.091,1.127 -0.164,2.652l2.032,0.456c0.486,-1.519 0.73,-2.33 0.73,-2.434c-1.617,-0.486 -2.483,-0.729 -2.598,-0.729z" data-paper-data="{&quot;origPos&quot;:null}" fill="#000000" stroke="none" stroke-width="1" stroke-linecap="butt"/><path d="M65.177,152.41007l0.064,0.118l-1.231,6.526h0.064l3.136,-0.92v-3.692c0.012,-0.085 0.051,-0.127 0.118,-0.127c2.358,0.164 3.67,0.246 3.938,0.246c0,0.043 0.021,0.064 0.064,0.064c0,1.039 -0.329,3.193 -0.985,6.462c0,0.188 -0.942,0.331 -2.825,0.428c-0.098,-0.115 -0.18,-0.361 -0.246,-0.738c-2.413,0.492 -3.789,0.738 -4.129,0.738c-1.927,-1.434 -2.89,-2.172 -2.89,-2.214c0.328,-4.309 0.535,-6.545 0.62,-6.709h0.055c1.537,-0.042 2.953,-0.103 4.247,-0.182z" data-paper-data="{&quot;origPos&quot;:null}" fill="#000000" stroke="none" stroke-width="1" stroke-linecap="butt"/><path d="M80.462,152.41905c2.741,0.517 4.175,0.811 4.302,0.884v0.11c-0.589,1.664 -0.884,2.527 -0.884,2.588h-0.054c-0.152,0 -0.888,-0.237 -2.206,-0.711c-0.735,1.234 -1.103,1.893 -1.103,1.978l1.823,1.768c1.41,-1.324 2.127,-1.987 2.151,-1.987c1.1,1.44 1.65,2.249 1.65,2.425c-0.602,0.346 -1.65,1.027 -3.145,2.041c-2.892,-0.625 -4.454,-0.975 -4.685,-1.048l-1.431,-4.63z" data-paper-data="{&quot;origPos&quot;:null}" fill="#000000" stroke="none" stroke-width="1" stroke-linecap="butt"/><path d="M88.438,152.41007c3.609,0.498 5.414,0.805 5.414,0.921c1.422,1.221 2.132,1.874 2.132,1.959c-0.577,1.805 -0.905,2.902 -0.984,3.291c0.577,1.282 0.905,2.047 0.984,2.296c0,0.073 -0.941,0.268 -2.825,0.584c-0.024,-0.104 -0.198,-0.334 -0.52,-0.693c-2.6,0.498 -4.001,0.747 -4.201,0.747l-1.386,-3.746l3.054,-1.613c0.492,0.079 1.26,0.119 2.306,0.119c0,-0.134 0.018,-0.538 0.054,-1.213c-0.176,0 -1.75,0.116 -4.721,0.347l-0.055,-0.119c0.413,-1.92 0.663,-2.88 0.748,-2.88zM90.333,157.76907c0,0.067 0.195,0.778 0.584,2.133h0.054c0.766,-0.498 1.149,-0.826 1.149,-0.984l0.118,-0.976c-0.145,0 -0.78,-0.057 -1.905,-0.173z" data-paper-data="{&quot;origPos&quot;:null}" fill="#000000" stroke="none" stroke-width="1" stroke-linecap="butt"/><path d="M104.953,152.41007l3.035,2.087c-0.212,3.464 -0.361,5.487 -0.446,6.07c-0.353,0.043 -1.425,0.107 -3.218,0.192l-0.063,-0.128l-0.32,-4.867l-0.127,-0.064c-1.161,0.249 -1.96,0.438 -2.397,0.565c0.121,2.072 0.182,3.57 0.182,4.494c-1.811,0.504 -2.801,0.756 -2.971,0.756c-1.179,-5.189 -1.769,-7.929 -1.769,-8.221c2.565,-0.334 3.956,-0.501 4.175,-0.501v0.064c0.042,0.03 0.106,0.662 0.191,1.895c2.352,-1.561 3.595,-2.342 3.728,-2.342z" data-paper-data="{&quot;origPos&quot;:null}" fill="#000000" stroke="none" stroke-width="1" stroke-linecap="butt"/><path d="M121.615,152.41007l3.035,2.087c-0.213,3.464 -0.362,5.487 -0.447,6.07c-0.352,0.043 -1.425,0.107 -3.217,0.192l-0.064,-0.128l-0.319,-4.867l-0.128,-0.064c-1.16,0.249 -1.959,0.438 -2.397,0.565c0.122,2.072 0.182,3.57 0.182,4.494c-1.81,0.504 -2.801,0.756 -2.971,0.756c-1.179,-5.189 -1.768,-7.929 -1.768,-8.221c2.564,-0.334 3.956,-0.501 4.174,-0.501v0.064c0.043,0.03 0.107,0.662 0.192,1.895c2.351,-1.561 3.594,-2.342 3.728,-2.342z" data-paper-data="{&quot;origPos&quot;:null}" fill="#000000" stroke="none" stroke-width="1" stroke-linecap="butt"/><path d="M129.225,152.41905c2.309,0.62 3.534,0.997 3.674,1.13c1.269,1.799 1.983,2.835 2.141,3.108c-0.82,2.601 -1.291,3.901 -1.412,3.901c-2.735,0.638 -4.166,0.957 -4.293,0.957c-2.261,-1.318 -3.464,-2.053 -3.61,-2.205c-0.079,-2.455 -0.118,-3.81 -0.118,-4.065c-0.037,-0.073 -0.055,-0.128 -0.055,-0.164c2.333,-1.775 3.54,-2.662 3.619,-2.662zM128.997,155.75507c-0.036,0.243 -0.091,1.127 -0.164,2.652l2.033,0.456c0.486,-1.519 0.729,-2.33 0.729,-2.434c-1.616,-0.486 -2.482,-0.729 -2.598,-0.729z" data-paper-data="{&quot;origPos&quot;:null}" fill="#000000" stroke="none" stroke-width="1" stroke-linecap="butt"/><path d="M139.871,152.41007c0.079,0.103 0.489,1.865 1.231,5.286h0.063c0,-0.079 0.45,-0.774 1.349,-2.087c0.377,0.255 1.094,0.808 2.151,1.659h0.128v-0.064c0.164,-2.37 0.286,-3.682 0.365,-3.937c2.503,0.127 3.755,0.231 3.755,0.31c-1.149,4.618 -1.762,7.018 -1.841,7.2c-0.383,0.043 -1.185,0.164 -2.407,0.365c-1.002,-1.574 -1.576,-2.413 -1.722,-2.516c-0.656,1.75 -1.067,2.713 -1.231,2.889h-2.461c-0.152,-0.048 -0.869,-1.628 -2.151,-4.739c-0.82,-1.738 -1.23,-2.68 -1.23,-2.826c0,-0.133 1.334,-0.647 4.001,-1.54z" data-paper-data="{&quot;origPos&quot;:null}" fill="#000000" stroke="none" stroke-width="1" stroke-linecap="butt"/><path d="M159.112,152.41905c0.188,0.778 0.319,1.258 0.392,1.44c2.686,-0.614 4.105,-0.92 4.257,-0.92c1.828,2.631 2.743,4.004 2.743,4.119l-2.096,4.448l-4.512,-0.72v0.137c0.352,2.704 0.529,4.141 0.529,4.311c-0.043,0 -0.064,0.021 -0.064,0.064c-0.438,-0.043 -0.766,-0.064 -0.985,-0.064h-0.783c-0.456,0 -1.155,-0.021 -2.097,-0.064c-0.085,-0.255 -0.738,-4.135 -1.959,-11.639c0.206,-0.085 1.731,-0.456 4.575,-1.112zM159.44,156.14707c0.122,1.397 0.231,2.096 0.328,2.096c1.246,0.432 2.009,0.647 2.288,0.647l0.72,-3.135h-0.064c-0.711,0.043 -1.801,0.173 -3.272,0.392z" data-paper-data="{&quot;origPos&quot;:null}" fill="#000000" stroke="none" stroke-width="1" stroke-linecap="butt"/><path d="M167.443,149.66607c1.859,0.037 3.223,0.055 4.092,0.055c0.079,0 0.319,3.731 0.72,11.193c-0.31,0.079 -1.391,0.279 -3.244,0.601c-0.092,0 -0.392,-2.284 -0.903,-6.854c-0.042,-0.109 -0.264,-1.774 -0.665,-4.995z" data-paper-data="{&quot;origPos&quot;:null}" fill="#000000" stroke="none" stroke-width="1" stroke-linecap="butt"/><path d="M174.662,152.41007c3.609,0.498 5.414,0.805 5.414,0.921c1.421,1.221 2.132,1.874 2.132,1.959c-0.577,1.805 -0.905,2.902 -0.984,3.291c0.577,1.282 0.905,2.047 0.984,2.296c0,0.073 -0.941,0.268 -2.825,0.584c-0.024,-0.104 -0.198,-0.334 -0.52,-0.693c-2.6,0.498 -4.001,0.747 -4.201,0.747l-1.386,-3.746l3.053,-1.613c0.493,0.079 1.261,0.119 2.306,0.119c0,-0.134 0.019,-0.538 0.055,-1.213c-0.176,0 -1.75,0.116 -4.721,0.347l-0.055,-0.119c0.413,-1.92 0.662,-2.88 0.748,-2.88zM176.557,157.76907c0,0.067 0.195,0.778 0.584,2.133h0.054c0.766,-0.498 1.149,-0.826 1.149,-0.984l0.118,-0.976c-0.146,0 -0.78,-0.057 -1.905,-0.173z" data-paper-data="{&quot;origPos&quot;:null}" fill="#000000" stroke="none" stroke-width="1" stroke-linecap="butt"/><path d="M187.276,152.42807c0.085,0.012 0.128,0.055 0.128,0.128l-0.948,5.25c1.811,-0.213 2.716,-0.383 2.716,-0.511c0.34,-2.102 0.574,-3.281 0.702,-3.536c2.242,0.462 3.485,0.735 3.728,0.82c-1.307,4.491 -2.024,6.83 -2.151,7.018c-2.285,1.605 -3.57,2.492 -3.856,2.662c-0.085,0 -1.54,-0.359 -4.366,-1.076v-0.063c0.748,-1.647 1.212,-2.47 1.395,-2.47l2.78,1.394l1.33,-2.279c-1.197,0.298 -1.892,0.447 -2.087,0.447l-3.545,-1.841c0.431,-3.962 0.705,-5.943 0.82,-5.943z" data-paper-data="{&quot;origPos&quot;:null}" fill="#000000" stroke="none" stroke-width="1" stroke-linecap="butt"/><path d="M200.511,152.41007c3.609,0.498 5.414,0.805 5.414,0.921c1.421,1.221 2.132,1.874 2.132,1.959c-0.577,1.805 -0.905,2.902 -0.984,3.291c0.577,1.282 0.905,2.047 0.984,2.296c0,0.073 -0.941,0.268 -2.825,0.584c-0.024,-0.104 -0.198,-0.334 -0.52,-0.693c-2.6,0.498 -4.001,0.747 -4.201,0.747l-1.386,-3.746l3.053,-1.613c0.493,0.079 1.261,0.119 2.306,0.119c0,-0.134 0.019,-0.538 0.055,-1.213c-0.176,0 -1.75,0.116 -4.721,0.347l-0.055,-0.119c0.413,-1.92 0.662,-2.88 0.747,-2.88zM202.406,157.76907c0,0.067 0.195,0.778 0.584,2.133h0.054c0.766,-0.498 1.149,-0.826 1.149,-0.984l0.118,-0.976c-0.146,0 -0.781,-0.057 -1.905,-0.173z" data-paper-data="{&quot;origPos&quot;:null}" fill="#000000" stroke="none" stroke-width="1" stroke-linecap="butt"/><path d="M216.288,152.41007c1.75,1.118 2.716,1.762 2.898,1.932c-0.632,1.404 -0.993,2.106 -1.084,2.106l-3.318,-1.923h-0.119c0,0.06 -0.142,0.401 -0.428,1.02c3.056,1.647 4.585,2.492 4.585,2.534c-0.857,1.981 -1.34,3.026 -1.45,3.136l-5.186,0.3c-2.017,-1.336 -3.102,-2.041 -3.254,-2.114v-0.055c0,-0.152 0.301,-0.835 0.903,-2.051l4.047,2.106l0.3,-1.203c-2.503,-1.124 -3.992,-1.826 -4.466,-2.106v-0.127c0,-0.231 0.483,-1.255 1.449,-3.072z" data-paper-data="{&quot;origPos&quot;:null}" fill="#000000" stroke="none" stroke-width="1" stroke-linecap="butt"/><path d="M292.42167,149.99507l0.037,0.072c-0.608,5.366 -0.948,8.185 -1.021,8.459c-1.288,-0.122 -2.102,-0.207 -2.443,-0.255v-0.037l-0.583,-7.62c0.146,-0.048 1.483,-0.255 4.01,-0.619zM288.81267,158.70807c0.042,0.024 0.99,0.097 2.844,0.219l0.036,0.073c-0.285,1.677 -0.468,2.515 -0.547,2.515h-2.114c-0.073,0 -0.17,-0.838 -0.292,-2.515c-0.024,0 -0.036,-0.073 -0.036,-0.219c0.072,-0.024 0.109,-0.049 0.109,-0.073z" data-paper-data="{&quot;origPos&quot;:null}" fill="#000000" stroke="none" stroke-width="1" stroke-linecap="butt"/><path d="M281.45201,150.14316c2.66592,0.22179 4.00329,0.39864 4.00329,0.52283l1.17813,10.42455c0,0.0798 -1.17813,0.27435 -3.53392,0.58448l-0.05311,-0.11521v-0.94771c-2.02833,0.54916 -3.42779,0.90332 -4.18058,1.06292c-1.79801,-2.54173 -2.73674,-3.88808 -2.82516,-4.0563c1.31966,-2.40028 2.02797,-3.62279 2.11685,-3.64912l3.71077,0.17685c-0.0798,-0.45166 -0.23032,-1.78893 -0.46936,-4.00328zM233.27927,151.79065c-0.84159,1.72728 -1.26655,2.62152 -1.26655,2.6927h-0.05302c-0.38093,-0.10658 -1.2049,-0.47835 -2.48916,-1.1074l-2.10777,1.47926c0,1.83342 0.10613,2.74581 0.31021,2.74581c0.13245,0.07072 1.01852,0.42488 2.64785,1.06246c0.62896,-0.61989 1.25792,-1.22207 1.90459,-1.79756c0.11476,0.10613 0.64622,0.94735 1.58539,2.53265v0.1596c-0.06219,0 -1.36406,0.70885 -3.91486,2.11685c-3.25966,-1.08925 -4.93338,-1.67373 -5.02181,-1.74499l-1.58539,-5.23442c1.48789,-2.11685 2.2493,-3.17069 2.27599,-3.17069c0.06219,0 1.31966,-0.46028 3.75526,-1.37268c2.63968,1.02715 3.95925,1.57632 3.95925,1.63841zM255.58983,150.26745c-0.15053,2.25829 -0.26573,3.3833 -0.34553,3.3833h-0.05311c-2.4356,-0.19492 -3.79964,-0.31012 -4.074,-0.34553v7.85604c0,0.1419 -0.55824,0.23941 -1.6651,0.28343c0,0.0444 -0.62905,0.11512 -1.88653,0.23032l-0.0621,-0.11521c0.27436,-4.68526 0.44304,-7.45741 0.52238,-8.30761c-0.92964,0.15052 -2.31131,0.33645 -4.12702,0.56687c-0.54054,-2.01072 -0.80627,-3.03787 -0.80627,-3.09134c0,-0.07943 4.14518,-0.26582 12.44425,-0.57549zM273.11753,153.72157c1.38175,1.18675 2.07291,1.82433 2.07291,1.90413c-0.55824,1.75352 -0.87708,2.81654 -0.95688,3.19747c0.55824,1.24884 0.87699,1.99257 0.95688,2.23197c0,0.07072 -0.9124,0.25665 -2.74581,0.56687c-0.02678,-0.09751 -0.19501,-0.32792 -0.50477,-0.67345c-2.52447,0.48752 -3.88853,0.72647 -4.08309,0.72647l-1.34635,-3.64005l2.96705,-1.56768c0.47844,0.07943 1.22215,0.11521 2.24068,0.11521c0,-0.13282 0.0177,-0.52283 0.05347,-1.17812c-0.16823,0 -1.7005,0.1152 -4.58821,0.33645l-0.05311,-0.11512c0.39864,-1.86882 0.64666,-2.79892 0.72646,-2.79892c3.50723,0.48707 5.26076,0.77958 5.26076,0.89478zM260.05385,152.83586c2.24059,0.60227 3.43642,0.96551 3.56932,1.09833c1.23115,1.74454 1.93092,2.75444 2.08144,3.02016c-0.79719,2.52402 -1.25793,3.79057 -1.37313,3.79057c-2.65693,0.61998 -4.04731,0.9301 -4.1715,0.9301c-2.19665,-1.28426 -3.3657,-1.99302 -3.50723,-2.14354c-0.0798,-2.38213 -0.11511,-3.70224 -0.11511,-3.95027c-0.03541,-0.07072 -0.05311,-0.12374 -0.05311,-0.15914c2.26737,-1.72728 3.43642,-2.58621 3.51631,-2.58621zM259.88563,156.07736c-0.0354,0.2394 -0.08888,1.09832 -0.1596,2.57749l1.97531,0.44267c0.46936,-1.4788 0.70831,-2.26746 0.70831,-2.36442c-1.56769,-0.46982 -2.40882,-0.70885 -2.52402,-0.70885zM279.75142,156.49361c0.59364,1.82479 0.96551,2.82561 1.11603,3.00246l1.76269,-1.53227c-0.18593,-1.05384 -0.31884,-1.58539 -0.40771,-1.58539h-2.3558c-0.0798,0.00908 -0.11521,0.05311 -0.11521,0.11521zM270.26569,160.10733h0.05302c0.74417,-0.48698 1.11603,-0.80581 1.11603,-0.95633l0.11521,-0.9478c-0.14153,0 -0.76142,-0.05302 -1.85112,-0.16823c0,0.06173 0.18594,0.75279 0.56687,2.07236zM237.70752,159.15962l0.03577,0.07073c-0.27481,1.62978 -0.45212,2.44467 -0.53146,2.44467h-2.05512c-0.07072,0 -0.16823,-0.81489 -0.28343,-2.44467c-0.02633,0 -0.0354,-0.07072 -0.0354,-0.21226c0.07118,-0.02669 0.10658,-0.0444 0.10658,-0.07118c0.04403,0.02678 0.96542,0.0975 2.76306,0.21271z" data-paper-data="{&quot;origPos&quot;:null}" fill="#2b70c2" stroke="none" stroke-width="0.4995" stroke-linecap="butt"/></g></g></svg>