<svg version="1.1" xmlns="http://www.w3.org/2000/svg" xmlns:xlink="http://www.w3.org/1999/xlink" width="175.76783" height="109.19762" viewBox="0,0,175.76783,109.19762"><defs><radialGradient cx="233.53838" cy="109.91308" r="57.80431" gradientUnits="userSpaceOnUse" id="color-1"><stop offset="0" stop-color="#5781c6"/><stop offset="1" stop-color="#4a6da8"/></radialGradient><linearGradient x1="286.6422" y1="163.85811" x2="286.6422" y2="174.57679" gradientUnits="userSpaceOnUse" id="color-2"><stop offset="0" stop-color="#000000"/><stop offset="1" stop-color="#3f380a"/></linearGradient><linearGradient x1="276.40745" y1="163.85811" x2="276.40745" y2="174.57679" gradientUnits="userSpaceOnUse" id="color-3"><stop offset="0" stop-color="#000000"/><stop offset="1" stop-color="#3f380a"/></linearGradient></defs><g transform="translate(-137.80356,-102.7886)"><g data-paper-data="{&quot;isPaintingLayer&quot;:true}" fill="none" fill-rule="nonzero" stroke="none" stroke-width="none" stroke-linecap="none" stroke-linejoin="miter" stroke-miterlimit="10" stroke-dasharray="" stroke-dashoffset="0" font-family="none" font-weight="none" font-size="none" text-anchor="none" style="mix-blend-mode: normal"><path d="M210.45181,117.2962c7.11604,0 13.56418,2.89115 18.23383,7.5608c4.66965,4.66964 7.5608,11.11779 7.5608,18.23383c0,7.11617 -2.89115,13.56432 -7.5608,18.23396c-4.66965,4.66965 -11.11779,7.5608 -18.23383,7.5608c-7.11617,0 -13.56431,-2.89115 -18.23396,-7.5608c-4.66965,-4.66965 -7.5608,-11.11779 -7.5608,-18.23396c0,-7.11604 2.89115,-13.56418 7.5608,-18.23383c4.66965,-4.66965 11.11778,-7.5608 18.23396,-7.5608z" data-paper-data="{&quot;origPos&quot;:null,&quot;index&quot;:null}" id="ID0.451763151679188" fill="#a1f3f9" stroke="none" stroke-width="1.53972" stroke-linecap="butt"/><path d="M206.74726,122.29247c5.72373,-0.9253 11.28607,0.56179 15.64926,3.71049c4.36305,3.14884 7.52695,7.95942 8.45226,13.68315c0.92517,5.72373 -0.56178,11.28621 -3.71062,15.64926c-3.14884,4.36305 -7.95928,7.52695 -13.68314,8.45226c-5.72373,0.92531 -11.28608,-0.56178 -15.64927,-3.71062c-4.36305,-3.1487 -7.52695,-7.95928 -8.45225,-13.68301c-0.92517,-5.72373 0.56178,-11.28622 3.71062,-15.64927c3.14884,-4.36319 7.95928,-7.52695 13.68314,-8.45225z" data-paper-data="{&quot;origPos&quot;:null,&quot;index&quot;:null}" id="ID0.451763151679188" fill="#a1f3f9" stroke="none" stroke-width="1.25453" stroke-linecap="butt"/><path d="M200.13305,124.93727l9.43518,13.04715l-12.61718,0.76545z" data-paper-data="{&quot;origPos&quot;:null,&quot;index&quot;:null}" id="ID0.3377200220711529" fill="#296cdb" stroke="none" stroke-width="1.1379" stroke-linecap="round"/><path d="M200.78249,133.36441c1.52102,-1.4829 3.41189,-2.63144 5.5868,-3.28591c7.21577,-2.17136 14.82555,1.91796 16.99691,9.13373c2.17136,7.21577 -1.91796,14.82555 -9.13373,16.99691c-5.48677,1.65106 -11.20136,-0.3177 -14.57955,-4.52837" data-paper-data="{&quot;origPos&quot;:null,&quot;origRot&quot;:0,&quot;index&quot;:null}" fill="none" stroke="#296cdb" stroke-width="3.5" stroke-linecap="butt"/><path d="M247.42117,102.78861c7.11604,0 13.56418,2.89116 18.23383,7.56081c4.66965,4.66965 7.5608,11.11778 7.5608,18.23382c0,7.11617 -2.89116,13.56432 -7.5608,18.23397c-4.66965,4.66965 -11.11779,7.5608 -18.23383,7.5608c-7.11617,0 -13.56431,-2.89115 -18.23396,-7.5608c-4.66965,-4.66965 -7.56081,-11.11779 -7.56081,-18.23397c0,-7.11604 2.89116,-13.56418 7.56081,-18.23382c4.66965,-4.66965 11.11778,-7.56081 18.23396,-7.56081z" data-paper-data="{&quot;origPos&quot;:null,&quot;index&quot;:null}" id="ID0.451763151679188" fill="url(#color-1)" stroke="none" stroke-width="1.53972" stroke-linecap="butt"/><g data-paper-data="{&quot;origPos&quot;:null,&quot;index&quot;:null}"><path d="M244.31234,135.02657c1.54333,0 2.94296,0.62727 3.95573,1.64004c1.01277,1.01277 1.64005,2.41241 1.64005,3.95574c0,1.54333 -0.62728,2.94296 -1.64005,3.95573c-1.01277,1.01277 -2.4124,1.64005 -3.95573,1.64005c-1.54333,0 -2.94297,-0.62728 -3.95574,-1.64005c-1.01277,-1.01277 -1.64005,-2.4124 -1.64005,-3.95573c0,-1.54333 0.62728,-2.94297 1.64005,-3.95574c1.01277,-1.01277 2.41241,-1.64004 3.95574,-1.64004z" data-paper-data="{&quot;origPos&quot;:null}" id="ID0.9558458868414164" fill="#19456c" stroke="none" stroke-width="1" stroke-linecap="butt"/><path d="M248.11194,142.07311l2.07251,-23.8339l4.6977,7.94463" data-paper-data="{&quot;origPos&quot;:null}" id="ID0.17868627235293388" fill="none" stroke="#19456c" stroke-width="2" stroke-linecap="round"/></g><g data-paper-data="{&quot;origPos&quot;:null,&quot;index&quot;:null}" id="ID0.11683987826108932"><path d="M243.79421,134.38955c1.54333,0 2.94297,0.62728 3.95574,1.64005c1.01277,1.01277 1.64005,2.41241 1.64005,3.95574c0,1.54333 -0.62728,2.94296 -1.64005,3.95573c-1.01277,1.01277 -2.41241,1.64005 -3.95574,1.64005c-1.54333,0 -2.94297,-0.62728 -3.95574,-1.64005c-1.01277,-1.01277 -1.64004,-2.4124 -1.64004,-3.95573c0,-1.54333 0.62727,-2.94297 1.64004,-3.95574c1.01277,-1.01277 2.41241,-1.64005 3.95574,-1.64005z" id="ID0.9558458868414164" fill="#ffffff" stroke="none" stroke-width="1" stroke-linecap="butt"/><path d="M247.59381,141.43609l2.07251,-23.83389l4.6977,7.94463" id="ID0.17868627235293388" fill="none" stroke="#ffffff" stroke-width="2" stroke-linecap="round"/></g><g data-paper-data="{&quot;origPos&quot;:null}" stroke-linecap="butt" font-family="Sans Serif" font-weight="400" font-size="22" text-anchor="start"><text transform="translate(184.65,200.02036) scale(1.40775,1.40775)" font-size="22" xml:space="preserve" data-paper-data="{&quot;origPos&quot;:null}" id="ID0.40125236939638853" fill-opacity="0" fill="#000000" fill-rule="nonzero" stroke="#ffffff" stroke-width="5" stroke-linecap="butt" stroke-linejoin="miter" stroke-miterlimit="10" stroke-dasharray="" stroke-dashoffset="0" font-family="Sans Serif" font-weight="400" text-anchor="start" style="mix-blend-mode: normal"><tspan x="0" dy="0">Buttons</tspan></text><text transform="translate(184.65,200.02036) scale(1.40775,1.40775)" font-size="22" xml:space="preserve" data-paper-data="{&quot;origPos&quot;:null}" id="ID0.40125236939638853" fill="#000000" fill-rule="nonzero" stroke="none" stroke-width="1" stroke-linecap="butt" stroke-linejoin="miter" stroke-miterlimit="10" stroke-dasharray="" stroke-dashoffset="0" font-family="Sans Serif" font-weight="400" text-anchor="start" style="mix-blend-mode: normal"><tspan x="0" dy="0">Buttons</tspan></text></g><text transform="translate(148.66261,181.47076) rotate(-11.4566) scale(1.40775,1.40775)" font-size="22" xml:space="preserve" data-paper-data="{&quot;origPos&quot;:null,&quot;origRot&quot;:-2.5797}" id="ID0.40125236939638853" fill-opacity="0" fill="#000000" fill-rule="nonzero" stroke="#ffffff" stroke-width="5" stroke-linecap="butt" stroke-linejoin="miter" stroke-miterlimit="10" stroke-dasharray="" stroke-dashoffset="0" font-family="Sans Serif" font-weight="400" text-anchor="start" style="mix-blend-mode: normal"><tspan x="0" dy="0">Pause</tspan></text><text transform="translate(148.66261,181.47076) rotate(-11.4566) scale(1.40775,1.40775)" font-size="22" xml:space="preserve" data-paper-data="{&quot;origPos&quot;:null,&quot;origRot&quot;:-2.5797}" id="ID0.40125236939638853" fill="#000000" fill-rule="nonzero" stroke="none" stroke-width="1" stroke-linecap="butt" stroke-linejoin="miter" stroke-miterlimit="10" stroke-dasharray="" stroke-dashoffset="0" font-family="Sans Serif" font-weight="400" text-anchor="start" style="mix-blend-mode: normal"><tspan x="0" dy="0">Pause</tspan></text><path d="M281.8669,123.55287c8.6465,0 16.85073,2.9151 22.15473,7.83051c6.44583,5.97452 8.90733,15.18422 9.36525,23.43719c0.22476,4.04655 -3.3449,8.62942 -7.6321,10.24689c-7.09605,2.67681 -15.41084,1.40227 -23.1367,1.56848c-8.32801,0.17877 -16.86996,1.82767 -24.63908,-0.47052c-4.36653,-1.29344 -8.91455,-5.56675 -8.71383,-9.7242c0.44591,-8.81547 3.55765,-18.37333 10.44697,-25.05782c5.1742,-5.01998 13.50822,-7.83052 22.15473,-7.83052z" data-paper-data="{&quot;origPos&quot;:null,&quot;index&quot;:null}" id="ID0.664129285607487" fill="#ff0000" stroke="none" stroke-width="0.93172" stroke-linecap="round"/><path d="M297.26762,162.64649c2.25059,1.04972 3.85456,3.80944 3.85981,6.25633c-0.00524,2.84473 -1.3342,6.27418 -3.85981,7.62096c-4.66915,2.49099 -9.53566,2.87624 -15.63872,2.87624c-6.10307,0 -10.88768,-0.54691 -15.63871,-2.87624c-2.51617,-1.23236 -4.30805,-4.2608 -4.22722,-6.99112c-0.08081,-2.71037 1.74779,-5.69474 4.22722,-6.88616c4.76782,-2.29365 9.53565,-2.87623 15.63871,-2.87623c6.10307,0 10.84255,0.63824 15.63872,2.87623z" data-paper-data="{&quot;origPos&quot;:null,&quot;index&quot;:null}" id="ID0.7818866483867168" fill="#ffdea8" stroke="none" stroke-width="1" stroke-linecap="butt"/><g data-paper-data="{&quot;origPos&quot;:null,&quot;index&quot;:null}" stroke="none" stroke-width="2.7956"><path d="M288.56146,165.09757c0.59866,1.17381 0.79526,2.46505 0.79526,4.04384c0,1.57879 -0.25527,2.92286 -0.79526,4.04384c-0.42262,0.88626 -1.10054,1.45847 -1.84584,1.38509c-0.80996,0.07338 -1.55538,-0.48706 -1.99258,-1.38509c-0.55173,-1.11512 -0.79537,-2.46506 -0.79537,-4.04384c0,-1.57879 0.2113,-2.86416 0.79537,-4.04384c0.3756,-0.7601 1.16792,-1.2648 1.99258,-1.23845c0.70133,-0.02635 1.45261,0.46366 1.84584,1.23845z" data-paper-data="{&quot;origPos&quot;:null}" id="ID0.6670762049034238" fill="url(#color-2)" stroke-linecap="round"/><path d="M278.32671,165.09757c0.59866,1.17381 0.79526,2.46505 0.79526,4.04384c0,1.57879 -0.25527,2.92286 -0.79526,4.04384c-0.42262,0.88626 -1.10054,1.45847 -1.84584,1.38509c-0.80996,0.07338 -1.55538,-0.48706 -1.99258,-1.38509c-0.55173,-1.11512 -0.79537,-2.46506 -0.79537,-4.04384c0,-1.57879 0.2113,-2.86416 0.79537,-4.04384c0.3756,-0.7601 1.16791,-1.2648 1.99258,-1.23845c0.70133,-0.02635 1.45261,0.46366 1.84584,1.23845z" data-paper-data="{&quot;origPos&quot;:null}" id="ID0.6670762049034238" fill="url(#color-3)" stroke-linecap="round"/><path d="M277.44799,165.1187c0.27882,0.27881 0.45202,0.66321 0.45202,1.08867c0,0.42557 -0.17322,0.80998 -0.45202,1.08877c-0.27871,0.27882 -0.66321,0.45191 -1.08866,0.45191c-0.42557,0 -0.80998,-0.17311 -1.08877,-0.45191c-0.27882,-0.27882 -0.45191,-0.66321 -0.45191,-1.08877c0,-0.42545 0.17311,-0.80987 0.45191,-1.08867c0.27882,-0.27882 0.66321,-0.45191 1.08877,-0.45191c0.42545,0 0.80998,0.17311 1.08866,0.45191z" data-paper-data="{&quot;origPos&quot;:null}" id="ID0.2271407265216112" fill="#ffffff" stroke-linecap="butt"/><path d="M287.78771,165.43359c0.27882,0.2788 0.45202,0.66321 0.45202,1.08866c0,0.42557 -0.17322,0.80998 -0.45202,1.08877c-0.27871,0.27882 -0.66321,0.45191 -1.08866,0.45191c-0.42557,0 -0.80998,-0.17311 -1.08877,-0.45191c-0.27882,-0.27882 -0.45191,-0.66321 -0.45191,-1.08877c0,-0.42545 0.17311,-0.80986 0.45191,-1.08866c0.27882,-0.27882 0.66321,-0.45191 1.08877,-0.45191c0.42545,0 0.80997,0.17311 1.08866,0.45191z" data-paper-data="{&quot;origPos&quot;:null}" id="ID0.2271407265216112" fill="#ffffff" stroke-linecap="butt"/></g><path d="M291.87273,156.58457l-10.57677,-7.63211l-10.2162,7.6321l3.00477,-10.63688l-7.45181,-7.51192l9.43496,0.12019l5.70906,-10.3364l4.92782,9.73543l9.97582,0.48077l-7.572,7.51192z" data-paper-data="{&quot;origPos&quot;:null,&quot;index&quot;:null}" id="ID0.7469178936444223" fill="#ffe428" stroke="none" stroke-width="1" stroke-linecap="round"/><path d="M260.49834,157.92936l-7.34028,-6.8433l-3.3782,3.55632l-0.45877,-3.77183l1.20947,-6.89713l2.0853,-3.77194l2.71089,-3.93348l1.83507,5.28057l6.67298,0.10781l-5.25497,6.73548z" data-paper-data="{&quot;origPos&quot;:null,&quot;index&quot;:null}" id="ID0.7469178936444223" fill="#ffe428" stroke="none" stroke-width="0.80175" stroke-linecap="round"/><path d="M304.31264,147.18997l-5.25497,-6.73549l6.67298,-0.10781l1.83507,-5.28058l2.71089,3.93348l2.0853,3.77194l1.20948,6.89713l-0.45877,3.77183l-3.3782,-3.55631l-7.34028,6.84329z" data-paper-data="{&quot;origPos&quot;:null,&quot;index&quot;:null}" id="ID0.7469178936444223" fill="#ffe428" stroke="none" stroke-width="0.80175" stroke-linecap="round"/></g></g></svg>