<svg version="1.1" xmlns="http://www.w3.org/2000/svg" xmlns:xlink="http://www.w3.org/1999/xlink" width="110.58711" height="41.21821"><g transform="translate(-184.70646,-159.3548)"><g data-paper-data="{&quot;isPaintingLayer&quot;:true}" fill="#ffffff" fill-rule="nonzero" stroke="none" stroke-width="none" stroke-linecap="butt" stroke-linejoin="miter" stroke-miterlimit="10" stroke-dasharray="" stroke-dashoffset="0" font-family="none" font-weight="none" font-size="none" text-anchor="none" style="mix-blend-mode: normal"><text transform="translate(201.59602,195.88138) scale(0.7218,0.72179)" font-size="22" xml:space="preserve" data-paper-data="{&quot;origPos&quot;:null}" id="ID0.08681221166625619" fill="#ffffff" fill-rule="nonzero" stroke="none" stroke-width="1" stroke-linecap="butt" stroke-linejoin="miter" stroke-miterlimit="10" stroke-dasharray="" stroke-dashoffset="0" font-family="Sans Serif" font-weight="400" text-anchor="start" style="mix-blend-mode: normal"><tspan x="0" dy="0">Get a star.</tspan></text><g data-paper-data="{&quot;origPos&quot;:null}" id="text16" stroke-width="0.26458"><path d="M194.26247,159.3548c2.91787,1.47514 4.41732,2.21271 4.49837,2.21271c0,0.12969 -0.60789,1.30089 -1.82368,3.5136h-0.08511c-0.09727,0 -1.4954,-0.66057 -4.19442,-1.98172l-1.37382,1.83583c2.32619,1.11852 5.15084,2.54502 8.47397,4.27953c-1.50757,2.68281 -2.57745,4.46596 -3.20965,5.34943l-6.86914,0.60789c-3.1367,-2.11544 -4.79422,-3.20965 -4.97253,-3.2826v-0.08511c0,-0.22695 0.63626,-1.26846 1.90876,-3.12455h0.15804c0.50253,0.29989 2.07897,1.16309 4.72938,2.58961l1.60484,-1.82365c-4.87121,-2.48019 -7.57023,-3.88238 -8.09707,-4.2066v-0.07295c1.5481,-3.01512 2.39102,-4.54295 2.52881,-4.58348c4.02827,-0.81863 6.26936,-1.22793 6.72325,-1.22793z" id="path856"/><path d="M204.68169,159.3548l5.34943,0.9483l-0.51063,4.0607c1.06178,-0.05674 1.83987,-0.08511 2.3343,-0.08511h0.77809l0.17021,-0.08511l0.08511,0.17022c-0.17022,2.46397 -0.3161,3.84995 -0.43768,4.15796l-0.17021,-0.09727c-0.12158,0 -1.21578,-0.05674 -3.2826,-0.17021c-0.11348,1.90472 -0.19859,4.18226 -0.2553,6.83267l-0.17022,0.08511c-2.60986,-0.17022 -4.16605,-0.3161 -4.66858,-0.43767l0.0851,-0.34041c0,-0.70516 0.11348,-2.89355 0.34041,-6.56519c-2.1884,-0.12158 -3.2826,-0.26748 -3.2826,-0.43767c0.11348,-2.70712 0.25936,-4.06069 0.43767,-4.06069l3.1975,0.60789v-1.04557c0,-0.85104 -0.03243,-2.00198 -0.09727,-3.4528c0.06484,0 0.09727,-0.02837 0.09727,-0.08511z" id="path858"/><path d="M216.02488,163.02645c4.81447,0.66463 7.22173,1.07393 7.22173,1.22793c1.89661,1.62915 2.84493,2.50044 2.84493,2.61392c-0.76999,2.40723 -1.20767,3.87022 -1.31305,4.38895c0.76999,1.7102 1.20767,2.73145 1.31305,3.06377c0,0.09727 -1.25631,0.35663 -3.76891,0.77811c-0.03241,-0.13779 -0.26342,-0.44579 -0.693,-0.92399c-3.46902,0.66463 -5.33727,0.99695 -5.60473,0.99695l-1.84799,-4.99684l4.07285,-2.15193c0.65652,0.10538 1.68183,0.15806 3.07593,0.15806c0,-0.17831 0.02431,-0.71731 0.07295,-1.617c-0.23505,0 -2.3343,0.15401 -6.29773,0.46199l-0.07295,-0.15806c0.55115,-2.56124 0.88347,-3.84185 0.99695,-3.84185zM218.55368,170.17522c0,0.08915 0.25936,1.03745 0.77809,2.84491h0.07295c1.02125,-0.66463 1.53189,-1.1023 1.53189,-1.31304l0.15806,-1.30089c-0.19452,0 -1.04151,-0.07699 -2.54097,-0.23099z" id="path860"/><path d="M235.98795,163.02645c1.60482,0.89968 2.58961,1.48324 2.95435,1.75072c-1.31304,2.73145 -2.01818,4.12149 -2.11544,4.17011h-0.08511l-1.73857,-1.51973l-2.05467,2.5045l0.23099,4.55917c-0.10538,0.09727 -1.44677,0.3242 -4.02422,0.68084c-0.09727,-0.69704 -0.72947,-4.11337 -1.89661,-10.249c0,-0.09727 1.69398,-0.34851 5.08195,-0.75378c0.05674,0.06484 0.21074,0.82267 0.46199,2.27351c2.02629,-2.27756 3.08807,-3.41634 3.18534,-3.41634z" id="path862"/><path d="M254.8568,159.36695c3.07996,0.7781 4.71721,1.24009 4.91173,1.38597c-1.09421,2.61798 -1.68183,3.95937 -1.76288,4.02423c-0.20262,0 -1.51973,-0.46199 -3.95127,-1.38598c-1.41031,1.31304 -2.11544,2.04655 -2.11544,2.20055c-0.10538,2.43154 -0.15806,3.84592 -0.15806,4.24306c1.68589,0.7781 2.68687,1.21578 3.00297,1.31305c1.57241,-0.68085 2.47612,-1.09421 2.71118,-1.2401l-0.43767,-1.39815c-0.29179,0.1621 -1.1712,0.5309 -2.63823,1.10636l-0.07295,-0.14588v-0.59574c0,-0.51063 -0.02431,-1.28871 -0.07295,-2.3343c0.38094,-0.09727 2.60176,-0.34041 6.66245,-0.72946c0.09727,0.50253 0.26746,2.64634 0.51063,6.43146c-0.12969,0.14588 -2.56935,1.12257 -7.31899,2.93002c-4.04448,-1.47514 -6.09508,-2.30593 -6.15183,-2.49234c-1.2644,-4.39301 -1.89661,-6.70703 -1.89661,-6.94209c1.66156,-2.99081 2.61392,-4.60375 2.85709,-4.8388c0.20262,-0.09727 2.17624,-0.60789 5.92083,-1.53189z" id="path864"/><path d="M269.55553,163.03861c3.67164,1.88851 5.70606,2.99081 6.10321,3.30691c-0.52684,2.46397 -0.83888,3.73243 -0.93615,3.80539h-7.68371v0.13373l2.15193,2.66255l3.37987,-1.72641c0.33231,0.57546 0.81052,1.58051 1.43462,3.01513c-0.29179,0.09727 -2.41939,0.4093 -6.38284,0.93614c-3.2826,-2.16408 -4.93606,-3.2907 -4.96037,-3.37987c0.52684,-4.2066 0.83888,-6.30988 0.93615,-6.30988c3.42849,-1.45893 5.41426,-2.27351 5.9573,-2.44372zM268.76527,165.98078c-0.06484,0.1621 -0.49441,0.80645 -1.28871,1.93309c0,0.34041 0.4782,0.51063 1.43462,0.51063c0,0.04864 0.693,0.16616 2.07897,0.35257c0.38094,-0.52684 0.57142,-0.83483 0.57142,-0.92399c-0.12158,-0.72137 -0.38499,-1.08203 -0.79026,-1.08203z" id="path866"/><path d="M280.40027,159.3548l5.34943,0.9483l-0.51063,4.0607c1.06178,-0.05674 1.83986,-0.08511 2.33428,-0.08511h0.77809l0.17022,-0.08511l0.08511,0.17022c-0.17022,2.46397 -0.3161,3.84995 -0.43768,4.15796l-0.17021,-0.09727c-0.12158,0 -1.21578,-0.05674 -3.28261,-0.17021c-0.11348,1.90472 -0.19859,4.18226 -0.2553,6.83267l-0.17021,0.08511c-2.60986,-0.17022 -4.16606,-0.3161 -4.66859,-0.43767l0.08511,-0.34041c0,-0.70516 0.11348,-2.89355 0.34041,-6.56519c-2.1884,-0.12158 -3.2826,-0.26748 -3.2826,-0.43767c0.11348,-2.70712 0.25936,-4.06069 0.43767,-4.06069l3.1975,0.60789v-1.04557c0,-0.85104 -0.03243,-2.00198 -0.09727,-3.4528c0.06484,0 0.09727,-0.02837 0.09727,-0.08511z" id="path868"/><path d="M295.24492,159.80464l0.04864,0.09727c-0.81052,7.15687 -1.26443,10.91767 -1.36169,11.28242c-1.71829,-0.1621 -2.80438,-0.27558 -3.25827,-0.34041v-0.04862l-0.77809,-10.16389c0.19452,-0.06484 1.97765,-0.34041 5.34943,-0.82673zM290.43043,171.42747c0.05674,0.03241 1.32114,0.12967 3.79323,0.29179l0.04862,0.09726c-0.38094,2.23704 -0.6241,3.35554 -0.72946,3.35554h-2.8206c-0.09727,0 -0.22694,-1.11852 -0.38906,-3.35554c-0.03243,0 -0.04864,-0.09727 -0.04864,-0.29179c0.09727,-0.03243 0.14589,-0.06485 0.14589,-0.09726z" id="path870"/></g></g></g></svg>