<svg version="1.1" xmlns="http://www.w3.org/2000/svg" xmlns:xlink="http://www.w3.org/1999/xlink" width="437" height="90.79587" viewBox="0,0,437,90.79587"><defs><linearGradient x1="239.96075" y1="135.56279" x2="239.96075" y2="224.35867" gradientUnits="userSpaceOnUse" id="color-1"><stop offset="0" stop-color="#ffffff"/><stop offset="1" stop-color="#d8d8d8"/></linearGradient><linearGradient x1="239.96075" y1="135.5628" x2="239.96075" y2="224.35867" gradientUnits="userSpaceOnUse" id="color-2"><stop offset="0" stop-color="#343434"/><stop offset="1" stop-color="#090909"/></linearGradient><radialGradient cx="443.76725" cy="206.50539" r="17.9081" gradientUnits="userSpaceOnUse" id="color-3"><stop offset="0" stop-color="#ffffff"/><stop offset="1" stop-color="#e5e5e5"/></radialGradient></defs><g transform="translate(-21.46075,-134.5628)"><g data-paper-data="{&quot;isPaintingLayer&quot;:true}" fill-rule="nonzero" stroke-linejoin="miter" stroke-miterlimit="10" stroke-dasharray="" stroke-dashoffset="0" style="mix-blend-mode: normal"><path d="M22.46075,224.35867v-88.79587h435v88.79587z" data-paper-data="{&quot;origPos&quot;:null}" fill="url(#color-1)" stroke="url(#color-2)" stroke-width="2" stroke-linecap="butt"/><g data-paper-data="{&quot;origPos&quot;:null}"><path d="M444.26655,202.0594c2.5136,0 4.7909,1.0212 6.4406,2.6702c1.6489,1.6496 2.6702,3.9269 2.6702,6.4405c0,2.5136 -1.0213,4.791 -2.6702,6.4406c-1.6497,1.649 -3.927,2.6702 -6.4406,2.6702c-2.5136,0 -4.7909,-1.0212 -6.4406,-2.6702c-1.6489,-1.6496 -2.6701,-3.927 -2.6701,-6.4406c0,-2.5136 1.0212,-4.7909 2.6701,-6.4405c1.6497,-1.649 3.927,-2.6702 6.4406,-2.6702z" fill="url(#color-3)" stroke="#000000" stroke-width="2.0785" stroke-linecap="butt"/><path d="M441.23415,206.50959l5.6119,0.4503l1.7321,3.187l-3.6374,2.9446l3.3603,-0.5197l0.7967,3.4642l-7.4479,-0.0693l-1.9053,-2.4249l4.6766,-3.3256l-4.5727,-0.3464z" fill="#000000" stroke="none" stroke-width="0.69283" stroke-linecap="round"/></g><path d="M36.15223,149.17946c2.45739,0.54879 3.82327,0.86282 4.09766,0.94209v0.06401c-0.08537,2.20127 -0.1494,3.4818 -0.19207,3.84156c0.14024,0 0.77137,0.14634 1.89334,0.43903c1.00613,-3.10373 1.55187,-4.6556 1.63724,-4.6556c1.68297,0.75612 2.75312,1.25918 3.21045,1.50919v0.06401c-1.84761,4.29889 -2.89641,6.67091 -3.14642,7.11604c-0.46343,0.38416 -2.07932,1.85371 -4.84768,4.40865h-0.06403l-5.10379,-2.51532c0.46953,-0.80489 1.03661,-1.7287 1.70126,-2.77141c0.03049,0 0.82929,0.5244 2.39641,1.57321h0.06403c0.5244,-0.42685 1.15247,-1.03662 1.88419,-1.82931c0,-0.03658 -1.19516,-1.21039 -3.58546,-3.52143v-4.53672z" data-paper-data="{&quot;origPos&quot;:null}" fill="#000000" stroke="none" stroke-width="0.26458" stroke-linecap="butt"/><path d="M51.4819,151.95087c2.31713,0.62197 3.54582,1.00004 3.68606,1.13419c1.27442,1.80491 1.99091,2.84457 2.14945,3.11898c-0.8232,2.60983 -1.29577,3.91474 -1.41772,3.91474c-2.74397,0.64026 -4.17999,0.96039 -4.30804,0.96039c-2.26835,-1.3232 -3.47571,-2.06103 -3.62204,-2.21347c-0.07926,-2.46349 -0.1189,-3.82327 -0.1189,-4.07937c-0.03658,-0.07316 -0.05488,-0.12804 -0.05488,-0.16465c2.34152,-1.78053 3.55192,-2.6708 3.6312,-2.6708zM51.30812,155.29852c-0.03658,0.24392 -0.09146,1.13113 -0.16463,2.66165l2.03968,0.45733c0.48782,-1.52443 0.73172,-2.33848 0.73172,-2.44214c-1.62199,-0.48782 -2.49092,-0.73174 -2.60677,-0.73174z" data-paper-data="{&quot;origPos&quot;:null}" fill="#000000" stroke="none" stroke-width="0.26458" stroke-linecap="butt"/><path d="M63.08891,151.94172l0.06403,0.11889l-1.23479,6.54895h0.06403l3.14641,-0.92381v-3.70437c0.0122,-0.08535 0.05183,-0.12803 0.1189,-0.12803c2.36592,0.16463 3.68303,0.24696 3.95133,0.24696c0,0.04267 0.02134,0.06401 0.06403,0.06401c0,1.04271 -0.32928,3.20436 -0.98784,6.48493c0,0.18902 -0.94515,0.33231 -2.83543,0.42988c-0.09757,-0.11586 -0.17989,-0.36282 -0.24695,-0.74087c-2.42079,0.49391 -3.80193,0.74087 -4.1434,0.74087c-1.93297,-1.43906 -2.89946,-2.17993 -2.89946,-2.22261c0.32928,-4.32328 0.5366,-6.56725 0.62197,-6.7319h0.05488c1.54272,-0.04267 2.96349,-0.10365 4.26231,-0.18293z" data-paper-data="{&quot;origPos&quot;:null}" fill="#000000" stroke="none" stroke-width="0.26458" stroke-linecap="butt"/><path d="M78.42772,151.95087c2.75008,0.5183 4.18914,0.81405 4.31718,0.88723v0.10974c-0.59148,1.67078 -0.88721,2.53665 -0.88721,2.59762h-0.05488c-0.15244,0 -0.89026,-0.23781 -2.21346,-0.71343c-0.73783,1.23784 -1.10674,1.89945 -1.10674,1.98482l1.82931,1.77443c1.41466,-1.3293 2.1342,-1.99394 2.1586,-1.99394c1.10368,1.44516 1.65552,2.25615 1.65552,2.43298c-0.60368,0.34758 -1.65552,1.03053 -3.15556,2.04883c-2.90252,-0.62806 -4.46963,-0.97868 -4.70134,-1.05185l-1.436,-4.64647z" data-paper-data="{&quot;origPos&quot;:null}" fill="#000000" stroke="none" stroke-width="0.26458" stroke-linecap="butt"/><path d="M86.43098,151.94172c3.62204,0.50002 5.43308,0.80795 5.43308,0.92381c1.42686,1.22564 2.14029,1.88116 2.14029,1.96652c-0.57928,1.81102 -0.90855,2.91166 -0.98783,3.30191c0.57928,1.28662 0.90855,2.05494 0.98783,2.30494c0,0.07316 -0.94515,0.26828 -2.83544,0.58537c-0.02439,-0.10366 -0.19818,-0.33537 -0.52136,-0.69513c-2.60983,0.5 -4.01534,0.75001 -4.21658,0.75001l-1.39028,-3.75924l3.0641,-1.61895c0.49391,0.07925 1.26528,0.11888 2.31409,0.11888c0,-0.13415 0.01829,-0.53965 0.05488,-1.2165c-0.17683,0 -1.75614,0.11586 -4.73794,0.34758l-0.05488,-0.11888c0.41464,-1.92688 0.66465,-2.89032 0.75002,-2.89032zM88.33347,157.31991c0,0.06707 0.19513,0.7805 0.58537,2.14029h0.05488c0.76832,-0.5 1.15247,-0.82927 1.15247,-0.98782l0.11892,-0.97869c-0.14634,0 -0.78356,-0.05792 -1.91163,-0.17378z" data-paper-data="{&quot;origPos&quot;:null}" fill="#000000" stroke="none" stroke-width="0.26458" stroke-linecap="butt"/><path d="M103.00458,151.94172l3.04581,2.09457c-0.21341,3.47571 -0.36281,5.50624 -0.44818,6.09162c-0.35367,0.04267 -1.42992,0.1067 -3.22874,0.19207l-0.06403,-0.12802l-0.32013,-4.88428l-0.12806,-0.06402c-1.16467,0.25001 -1.96651,0.43905 -2.40555,0.5671c0.12195,2.07932 0.18292,3.5824 0.18292,4.50925c-1.81713,0.50611 -2.81105,0.75917 -2.98178,0.75917c-1.18296,-5.20745 -1.77444,-7.95753 -1.77444,-8.25022c2.57325,-0.33537 3.96962,-0.50306 4.18914,-0.50306v0.06402c0.04269,0.03049 0.10672,0.66464 0.19207,1.90248c2.35981,-1.56712 3.6068,-2.35067 3.74095,-2.35067z" data-paper-data="{&quot;origPos&quot;:null}" fill="#000000" stroke="none" stroke-width="0.26458" stroke-linecap="butt"/><path d="M119.72453,151.94172l3.04581,2.09457c-0.21341,3.47571 -0.36281,5.50624 -0.44818,6.09162c-0.35367,0.04267 -1.42992,0.1067 -3.22874,0.19207l-0.06403,-0.12802l-0.32013,-4.88428l-0.12806,-0.06402c-1.16467,0.25001 -1.96651,0.43905 -2.40555,0.5671c0.12195,2.07932 0.18292,3.5824 0.18292,4.50925c-1.81713,0.50611 -2.81105,0.75917 -2.98178,0.75917c-1.18296,-5.20745 -1.77444,-7.95753 -1.77444,-8.25022c2.57325,-0.33537 3.96962,-0.50306 4.18914,-0.50306v0.06402c0.04269,0.03049 0.10671,0.66464 0.19207,1.90248c2.35981,-1.56712 3.6068,-2.35067 3.74095,-2.35067z" data-paper-data="{&quot;origPos&quot;:null}" fill="#000000" stroke="none" stroke-width="0.26458" stroke-linecap="butt"/><path d="M127.36192,151.95087c2.31713,0.62197 3.54583,1.00004 3.68607,1.13419c1.27442,1.80491 1.9909,2.84457 2.14945,3.11898c-0.8232,2.60983 -1.29576,3.91474 -1.41771,3.91474c-2.74397,0.64026 -4.17999,0.96039 -4.30804,0.96039c-2.26835,-1.3232 -3.4757,-2.06103 -3.62204,-2.21347c-0.07928,-2.46349 -0.11892,-3.82327 -0.11892,-4.07937c-0.0366,-0.07316 -0.05488,-0.12804 -0.05488,-0.16465c2.34153,-1.78053 3.55192,-2.6708 3.6312,-2.6708zM127.18814,155.29852c-0.0366,0.24392 -0.09146,1.13113 -0.16464,2.66165l2.03968,0.45733c0.48782,-1.52443 0.73173,-2.33848 0.73173,-2.44214c-1.62199,-0.48782 -2.49093,-0.73174 -2.60677,-0.73174z" data-paper-data="{&quot;origPos&quot;:null}" fill="#000000" stroke="none" stroke-width="0.26458" stroke-linecap="butt"/><path d="M138.04513,151.94172c0.07928,0.10366 0.49087,1.872 1.23479,5.30502h0.06403c0,-0.07925 0.45122,-0.77744 1.35369,-2.09456c0.37807,0.2561 1.09759,0.811 2.1586,1.66468h0.12805v-0.06401c0.16464,-2.37812 0.28659,-3.69522 0.36587,-3.95132c2.51227,0.12806 3.76838,0.23172 3.76838,0.31098c-1.15248,4.63427 -1.76834,7.04287 -1.84761,7.2258c-0.38416,0.04267 -1.18905,0.16463 -2.41469,0.36586c-1.00612,-1.5793 -1.58236,-2.42079 -1.72871,-2.52445c-0.65855,1.75615 -1.07015,2.72262 -1.23479,2.89946h-2.46958c-0.15244,-0.04877 -0.87198,-1.63419 -2.1586,-4.75622c-0.8232,-1.74394 -1.23479,-2.68909 -1.23479,-2.83544c0,-0.13415 1.33845,-0.64941 4.01534,-1.54577z" data-paper-data="{&quot;origPos&quot;:null}" fill="#000000" stroke="none" stroke-width="0.26458" stroke-linecap="butt"/><path d="M156.31999,151.94172c1.49394,3.42692 2.28969,5.20441 2.38725,5.33245c0.73782,-2.79884 1.16771,-4.28973 1.28967,-4.47267c2.32933,0.21341 3.494,0.39636 3.494,0.5488v0.06401c-1.63419,4.48793 -2.51227,6.83859 -2.63422,7.05201c-1.80493,0.32929 -3.01227,0.53356 -3.62204,0.61282l-4.47268,-6.62213v-0.12803c0.04269,-0.07925 1.2287,-0.87502 3.55803,-2.38727z" data-paper-data="{&quot;origPos&quot;:null}" fill="#000000" stroke="none" stroke-width="0.26458" stroke-linecap="butt"/><path d="M165.73182,148.27394l3.59461,0.56709c-0.45122,1.72566 -0.74697,2.5885 -0.88721,2.5885c-1.8903,-0.12806 -2.83543,-0.25306 -2.83543,-0.37502v-2.65251c0.01829,-0.08535 0.06098,-0.12803 0.12806,-0.12803zM164.72571,152.62772h0.05488c2.78056,0.50611 4.17084,0.80186 4.17084,0.88721c-0.7988,4.5245 -1.28357,7.04592 -1.45431,7.56422h-2.89946c-0.08537,0 -0.12805,-0.04267 -0.12805,-0.12803z" data-paper-data="{&quot;origPos&quot;:null}" fill="#000000" stroke="none" stroke-width="0.26458" stroke-linecap="butt"/><path d="M177.00956,151.94172c1.75614,1.12198 2.72568,1.76835 2.9086,1.93908c-0.63416,1.40857 -0.99697,2.11286 -1.08844,2.11286l-3.32936,-1.92993h-0.1189c0,0.06096 -0.14329,0.40243 -0.42988,1.02442c3.06716,1.65249 4.60073,2.50007 4.60073,2.54275c-0.85978,1.98786 -1.34455,3.03666 -1.45432,3.14642l-5.2044,0.30184c-2.02445,-1.3415 -3.1129,-2.04883 -3.26534,-2.122v-0.05487c0,-0.15244 0.30184,-0.83844 0.90552,-2.05797l4.06108,2.11286l0.30184,-1.20734c-2.51227,-1.12808 -4.0062,-1.83238 -4.48182,-2.11287v-0.12803c0,-0.23172 0.48477,-1.25919 1.45432,-3.0824z" data-paper-data="{&quot;origPos&quot;:null}" fill="#000000" stroke="none" stroke-width="0.26458" stroke-linecap="butt"/><path d="M182.08591,148.27394l3.59461,0.56709c-0.45122,1.72566 -0.74697,2.5885 -0.88721,2.5885c-1.8903,-0.12806 -2.83543,-0.25306 -2.83543,-0.37502v-2.65251c0.01829,-0.08535 0.06098,-0.12803 0.12806,-0.12803zM181.07978,152.62772h0.05489c2.78056,0.50611 4.17083,0.80186 4.17083,0.88721c-0.7988,4.5245 -1.28356,7.04592 -1.45431,7.56422h-2.89947c-0.08537,0 -0.12805,-0.04267 -0.12805,-0.12803z" data-paper-data="{&quot;origPos&quot;:null}" fill="#000000" stroke="none" stroke-width="0.26458" stroke-linecap="butt"/><path d="M188.71719,149.17946l4.0245,0.71343l-0.38415,3.05495c0.7988,-0.04267 1.38417,-0.06401 1.75614,-0.06401h0.58539l0.12806,-0.06401l0.06403,0.12802c-0.12805,1.8537 -0.23781,2.89643 -0.32927,3.12813l-0.12805,-0.07316c-0.09146,0 -0.91466,-0.04267 -2.46958,-0.12802c-0.08537,1.43295 -0.1494,3.14642 -0.19207,5.14036l-0.12806,0.06401c-1.96346,-0.12804 -3.13422,-0.2378 -3.51229,-0.32927l0.06403,-0.2561c0,-0.53051 0.08537,-2.1769 0.2561,-4.93917c-1.64639,-0.09145 -2.46958,-0.20121 -2.46958,-0.32927c0.08537,-2.03663 0.19512,-3.05496 0.32927,-3.05496l2.40556,0.45733v-0.78661c0,-0.64026 -0.0244,-1.50613 -0.07318,-2.59762c0.04878,0 0.07318,-0.02134 0.07318,-0.06401z" data-paper-data="{&quot;origPos&quot;:null}" fill="#000000" stroke="none" stroke-width="0.26458" stroke-linecap="butt"/><path d="M204.5865,149.17032c1.72565,0.12195 2.58848,0.2317 2.58848,0.32927c0.66464,1.78663 1.07014,2.9269 1.21649,3.42082h0.05487c0.15855,-0.34147 0.76526,-1.28053 1.82017,-2.81714h0.05487c1.65249,0.10366 2.47872,0.21647 2.47872,0.33842l1.49089,10.19844c0,0.06096 -1.30491,0.20731 -3.91473,0.43903l-0.05487,-0.10974c-0.14634,-3.09764 -0.21952,-4.991 -0.21952,-5.68003h-0.05487l-2.25921,1.9848h-0.05487c-0.07316,-0.03658 -0.58841,-0.84452 -1.54577,-2.42384h-0.05487c-1.17685,3.42692 -1.82016,5.24709 -1.92991,5.46051h-0.10974c-2.10371,-0.95124 -3.29886,-1.52138 -3.58546,-1.71041v-0.05487c2.60983,-6.1343 3.96962,-9.25938 4.07939,-9.37524z" data-paper-data="{&quot;origPos&quot;:null}" fill="#2b70c2" stroke="none" stroke-width="0.26458" stroke-linecap="butt"/><path d="M220.32776,151.95087c2.76226,1.42077 4.2928,2.25006 4.59159,2.48787c-0.39635,1.8537 -0.63111,2.808 -0.70428,2.86289h-5.78064v0.10059l1.61895,2.00311l2.54274,-1.29882c0.25001,0.43293 0.60977,1.18905 1.0793,2.26835c-0.21952,0.07316 -1.82017,0.30792 -4.80195,0.70429c-2.46958,-1.62809 -3.71352,-2.47568 -3.73181,-2.54274c0.39634,-3.16472 0.63111,-4.74708 0.70428,-4.74708c2.57933,-1.09759 4.07326,-1.71041 4.48182,-1.83847zM219.73324,154.16435c-0.04878,0.12195 -0.37196,0.60672 -0.96955,1.4543c0,0.2561 0.35976,0.38415 1.0793,0.38415c0,0.03658 0.52136,0.125 1.56406,0.26526c0.28661,-0.39636 0.42989,-0.62807 0.42989,-0.69514c-0.09145,-0.54271 -0.28963,-0.81405 -0.59454,-0.81405z" data-paper-data="{&quot;origPos&quot;:null}" fill="#2b70c2" stroke="none" stroke-width="0.26458" stroke-linecap="butt"/><path d="M233.13298,151.94172c1.75615,1.12198 2.72568,1.76835 2.90861,1.93908c-0.63416,1.40857 -0.99698,2.11286 -1.08845,2.11286l-3.32934,-1.92993h-0.11889c0,0.06096 -0.14329,0.40243 -0.42988,1.02442c3.06716,1.65249 4.60073,2.50007 4.60073,2.54275c-0.85978,1.98786 -1.34455,3.03666 -1.45431,3.14642l-5.20441,0.30184c-2.02445,-1.3415 -3.11289,-2.04883 -3.26533,-2.122v-0.05487c0,-0.15244 0.30183,-0.83844 0.90551,-2.05797l4.06108,2.11286l0.30184,-1.20734c-2.51226,-1.12808 -4.00619,-1.83238 -4.48181,-2.11287v-0.12803c0,-0.23172 0.48477,-1.25919 1.4543,-3.0824z" data-paper-data="{&quot;origPos&quot;:null}" fill="#2b70c2" stroke="none" stroke-width="0.26458" stroke-linecap="butt"/><path d="M238.33738,151.94172c3.62204,0.50002 5.43306,0.80795 5.43306,0.92381c1.42687,1.22564 2.1403,1.88116 2.1403,1.96652c-0.57928,1.81102 -0.90855,2.91166 -0.98783,3.30191c0.57928,1.28662 0.90855,2.05494 0.98783,2.30494c0,0.07316 -0.94515,0.26828 -2.83543,0.58537c-0.02438,-0.10366 -0.19818,-0.33537 -0.52136,-0.69513c-2.60983,0.5 -4.01534,0.75001 -4.21657,0.75001l-1.39029,-3.75924l3.0641,-1.61895c0.49392,0.07925 1.26528,0.11888 2.31409,0.11888c0,-0.13415 0.01829,-0.53965 0.05487,-1.2165c-0.17684,0 -1.75615,0.11586 -4.73793,0.34758l-0.05487,-0.11888c0.41465,-1.92688 0.66465,-2.89032 0.75002,-2.89032zM240.23986,157.31991c0,0.06707 0.19512,0.7805 0.58539,2.14029h0.05487c0.76832,-0.5 1.15247,-0.82927 1.15247,-0.98782l0.11889,-0.97869c-0.14634,0 -0.78357,-0.05792 -1.91164,-0.17378z" data-paper-data="{&quot;origPos&quot;:null}" fill="#2b70c2" stroke="none" stroke-width="0.26458" stroke-linecap="butt"/><path d="M255.51467,149.17032c1.72565,0.12195 2.58848,0.2317 2.58848,0.32927c0.66464,1.78663 1.07014,2.9269 1.21649,3.42082h0.05487c0.15855,-0.34147 0.76526,-1.28053 1.82017,-2.81714h0.05487c1.65249,0.10366 2.47873,0.21647 2.47873,0.33842l1.49089,10.19844c0,0.06096 -1.30491,0.20731 -3.91474,0.43903l-0.05487,-0.10974c-0.14634,-3.09764 -0.21952,-4.991 -0.21952,-5.68003h-0.05487l-2.25919,1.9848h-0.05487c-0.07316,-0.03658 -0.58841,-0.84452 -1.54577,-2.42384h-0.05487c-1.17685,3.42692 -1.82016,5.24709 -1.92992,5.46051h-0.10974c-2.10371,-0.95124 -3.29886,-1.52138 -3.58546,-1.71041v-0.05487c2.60983,-6.1343 3.96962,-9.25938 4.07939,-9.37524z" data-paper-data="{&quot;origPos&quot;:null}" fill="#2b70c2" stroke="none" stroke-width="0.26458" stroke-linecap="butt"/><path d="M267.33204,148.27394l3.59461,0.56709c-0.45124,1.72566 -0.74697,2.5885 -0.88721,2.5885c-1.8903,-0.12806 -2.83545,-0.25306 -2.83545,-0.37502v-2.65251c0.01829,-0.08535 0.06097,-0.12803 0.12803,-0.12803zM266.3259,152.62772h0.05487c2.78055,0.50611 4.17083,0.80186 4.17083,0.88721c-0.7988,4.5245 -1.28357,7.04592 -1.4543,7.56422h-2.89948c-0.08535,0 -0.12802,-0.04267 -0.12802,-0.12803z" data-paper-data="{&quot;origPos&quot;:null}" fill="#2b70c2" stroke="none" stroke-width="0.26458" stroke-linecap="butt"/><path d="M279.35062,151.94172l3.04581,2.09457c-0.21342,3.47571 -0.36282,5.50624 -0.44819,6.09162c-0.35367,0.04267 -1.42991,0.1067 -3.22873,0.19207l-0.06402,-0.12802l-0.32013,-4.88428l-0.12803,-0.06402c-1.16466,0.25001 -1.96651,0.43905 -2.40553,0.5671c0.12195,2.07932 0.18292,3.5824 0.18292,4.50925c-1.81712,0.50611 -2.81105,0.75917 -2.98178,0.75917c-1.18296,-5.20745 -1.77444,-7.95753 -1.77444,-8.25022c2.57323,-0.33537 3.96962,-0.50306 4.18914,-0.50306v0.06402c0.04267,0.03049 0.1067,0.66464 0.19207,1.90248c2.35982,-1.56712 3.6068,-2.35067 3.74095,-2.35067z" data-paper-data="{&quot;origPos&quot;:null}" fill="#2b70c2" stroke="none" stroke-width="0.26458" stroke-linecap="butt"/><path d="M288.48805,151.95087c2.76226,1.42077 4.2928,2.25006 4.59159,2.48787c-0.39636,1.8537 -0.63112,2.808 -0.70429,2.86289h-5.78064v0.10059l1.61895,2.00311l2.54274,-1.29882c0.25001,0.43293 0.60977,1.18905 1.0793,2.26835c-0.21952,0.07316 -1.82017,0.30792 -4.80196,0.70429c-2.46956,-1.62809 -3.7135,-2.47568 -3.73179,-2.54274c0.39634,-3.16472 0.63111,-4.74708 0.70428,-4.74708c2.57934,-1.09759 4.07327,-1.71041 4.48182,-1.83847zM287.89351,154.16435c-0.04877,0.12195 -0.37195,0.60672 -0.96953,1.4543c0,0.2561 0.35976,0.38415 1.0793,0.38415c0,0.03658 0.52136,0.125 1.56407,0.26526c0.28659,-0.39636 0.42989,-0.62807 0.42989,-0.69514c-0.09145,-0.54271 -0.28963,-0.81405 -0.59452,-0.81405z" data-paper-data="{&quot;origPos&quot;:null}" fill="#2b70c2" stroke="none" stroke-width="0.26458" stroke-linecap="butt"/><path d="M305.74767,149.17946c2.19519,1.10978 3.32327,1.66467 3.38424,1.66467c0,0.09754 -0.45733,0.97867 -1.37199,2.64337h-0.06401c-0.07316,0 -1.12501,-0.49697 -3.15557,-1.49089l-1.03356,1.38114c1.75005,0.84149 3.87509,1.91468 6.37516,3.21959c-1.13417,2.01834 -1.93906,3.35985 -2.41469,4.02449l-5.16781,0.45733c-2.35982,-1.5915 -3.60681,-2.41468 -3.74096,-2.46957v-0.06401c0,-0.17075 0.47868,-0.9543 1.43603,-2.35067h0.11888c0.37805,0.22561 1.56406,0.87502 3.55802,1.94822l1.20735,-1.37199c-3.66472,-1.8659 -5.69527,-2.92081 -6.09163,-3.16472v-0.05487c1.16467,-2.26835 1.79884,-3.41777 1.9025,-3.44826c3.03056,-0.61588 4.71658,-0.9238 5.05805,-0.9238z" data-paper-data="{&quot;origPos&quot;:null}" fill="#2b70c2" stroke="none" stroke-width="0.26458" stroke-linecap="butt"/><path d="M314.44606,151.95087c2.75008,0.5183 4.18914,0.81405 4.31718,0.88723v0.10974c-0.59148,1.67078 -0.88721,2.53665 -0.88721,2.59762h-0.05487c-0.15244,0 -0.89027,-0.23781 -2.21347,-0.71343c-0.73782,1.23784 -1.10673,1.89945 -1.10673,1.98482l1.82931,1.77443c1.41467,-1.3293 2.13421,-1.99394 2.1586,-1.99394c1.10368,1.44516 1.65553,2.25615 1.65553,2.43298c-0.60368,0.34758 -1.65553,1.03053 -3.15556,2.04883c-2.90251,-0.62806 -4.46963,-0.97868 -4.70135,-1.05185l-1.43601,-4.64647z" data-paper-data="{&quot;origPos&quot;:null}" fill="#2b70c2" stroke="none" stroke-width="0.26458" stroke-linecap="butt"/><path d="M327.6263,151.94172c1.20734,0.67685 1.94822,1.11588 2.22261,1.31711c-0.98784,2.05492 -1.51832,3.10068 -1.5915,3.13727h-0.06401l-1.30796,-1.14331l-1.54578,1.88419l0.1738,3.42997c-0.07925,0.07316 -1.08843,0.24389 -3.02752,0.5122c-0.07316,-0.5244 -0.54877,-3.09459 -1.42686,-7.71057c0,-0.07316 1.27443,-0.26219 3.82327,-0.56708c0.04267,0.04877 0.15853,0.61892 0.34756,1.71041c1.52443,-1.71346 2.32324,-2.57019 2.39641,-2.57019z" data-paper-data="{&quot;origPos&quot;:null}" fill="#2b70c2" stroke="none" stroke-width="0.26458" stroke-linecap="butt"/><path d="M331.96177,151.94172c3.62205,0.50002 5.43308,0.80795 5.43308,0.92381c1.42686,1.22564 2.14029,1.88116 2.14029,1.96652c-0.57928,1.81102 -0.90855,2.91166 -0.98782,3.30191c0.57928,1.28662 0.90855,2.05494 0.98782,2.30494c0,0.07316 -0.94515,0.26828 -2.83544,0.58537c-0.02438,-0.10366 -0.19818,-0.33537 -0.52136,-0.69513c-2.60983,0.5 -4.01534,0.75001 -4.21657,0.75001l-1.39028,-3.75924l3.06412,-1.61895c0.49391,0.07925 1.26526,0.11888 2.31408,0.11888c0,-0.13415 0.01829,-0.53965 0.05487,-1.2165c-0.17683,0 -1.75614,0.11586 -4.73793,0.34758l-0.05487,-0.11888c0.41465,-1.92688 0.66465,-2.89032 0.75001,-2.89032zM333.86427,157.31991c0,0.06707 0.19513,0.7805 0.58537,2.14029h0.05486c0.76831,-0.5 1.15248,-0.82927 1.15248,-0.98782l0.11888,-0.97869c-0.14634,0 -0.78355,-0.05792 -1.91163,-0.17378z" data-paper-data="{&quot;origPos&quot;:null}" fill="#2b70c2" stroke="none" stroke-width="0.26458" stroke-linecap="butt"/><path d="M340.41321,149.18861c1.8659,0.03658 3.23485,0.05487 4.10682,0.05487c0.07925,0 0.32012,3.74399 0.72258,11.23199c-0.31099,0.07925 -1.39638,0.28048 -3.25619,0.60368c-0.09145,0 -0.39329,-2.29275 -0.90552,-6.87823c-0.04267,-0.10976 -0.26525,-1.78053 -0.66769,-5.01232z" data-paper-data="{&quot;origPos&quot;:null}" fill="#2b70c2" stroke="none" stroke-width="0.26458" stroke-linecap="butt"/><path d="M347.6573,151.94172c3.62204,0.50002 5.43306,0.80795 5.43306,0.92381c1.42687,1.22564 2.14031,1.88116 2.14031,1.96652c-0.57928,1.81102 -0.90856,2.91166 -0.98784,3.30191c0.57928,1.28662 0.90856,2.05494 0.98784,2.30494c0,0.07316 -0.94515,0.26828 -2.83545,0.58537c-0.02438,-0.10366 -0.19817,-0.33537 -0.52134,-0.69513c-2.60983,0.5 -4.01534,0.75001 -4.21657,0.75001l-1.39028,-3.75924l3.0641,-1.61895c0.49392,0.07925 1.26528,0.11888 2.31409,0.11888c0,-0.13415 0.01828,-0.53965 0.05487,-1.2165c-0.17683,0 -1.75615,0.11586 -4.73793,0.34758l-0.05487,-0.11888c0.41465,-1.92688 0.66465,-2.89032 0.75002,-2.89032zM349.55979,157.31991c0,0.06707 0.19512,0.7805 0.58538,2.14029h0.05487c0.76831,-0.5 1.15247,-0.82927 1.15247,-0.98782l0.11888,-0.97869c-0.14634,0 -0.78357,-0.05792 -1.91164,-0.17378z" data-paper-data="{&quot;origPos&quot;:null}" fill="#2b70c2" stroke="none" stroke-width="0.26458" stroke-linecap="butt"/><path d="M362.61195,151.94172h0.03658c1.62809,0.95735 2.50617,1.45737 2.63422,1.50004v0.08231c-0.42073,0.48172 -1.19516,1.31712 -2.32324,2.50617c2.21348,0.82319 3.45742,1.32014 3.73181,1.49089l-2.06712,2.55189c-1.39637,-1.19516 -2.28665,-1.94212 -2.67081,-2.2409c-0.94515,1.84151 -1.53358,2.92385 -1.76529,3.24703h-0.03658c-1.75004,-0.61588 -2.70128,-0.98173 -2.85372,-1.09759v-0.04573l2.4147,-3.15558c-2.24397,-0.92686 -3.44522,-1.46954 -3.60377,-1.62809c0.98784,-1.67687 1.54273,-2.57019 1.66469,-2.67994c0.01829,0.04267 1.10368,0.78964 3.25617,2.24091c0.76223,-1.40857 1.28967,-2.33238 1.58237,-2.77142z" data-paper-data="{&quot;origPos&quot;:null}" fill="#2b70c2" stroke="none" stroke-width="0.26458" stroke-linecap="butt"/><path d="M371.73111,151.96001c0.08535,0.0122 0.12803,0.05487 0.12803,0.12803l-0.95124,5.26842c1.81712,-0.21341 2.72568,-0.38416 2.72568,-0.5122c0.34147,-2.10982 0.57624,-3.29278 0.70429,-3.54888c2.25006,0.46342 3.49704,0.73783 3.74095,0.8232c-1.31101,4.50621 -2.03055,6.85384 -2.1586,7.04286c-2.29275,1.6098 -3.5824,2.50007 -3.86899,2.6708c-0.08535,0 -1.54576,-0.35976 -4.38121,-1.07929v-0.06401c0.75001,-1.65249 1.21649,-2.47872 1.39943,-2.47872l2.78969,1.39943l1.33542,-2.28664c-1.20126,0.29879 -1.89944,0.44818 -2.09457,0.44818l-3.55802,-1.8476c0.43293,-3.97573 0.70734,-5.96358 0.82319,-5.96358z" data-paper-data="{&quot;origPos&quot;:null}" fill="#2b70c2" stroke="none" stroke-width="0.26458" stroke-linecap="butt"/><path d="M382.99968,149.51788l0.03657,0.07316c-0.60977,5.38428 -0.95124,8.21363 -1.02441,8.48803c-1.29271,-0.12196 -2.1098,-0.20734 -2.45128,-0.25612v-0.03658l-0.58539,-7.64654c0.14634,-0.04877 1.48786,-0.2561 4.02451,-0.62197zM379.37764,158.26201c0.04267,0.02438 0.99392,0.09756 2.85372,0.21953l0.03658,0.07315c-0.28661,1.68296 -0.46952,2.52445 -0.54879,2.52445h-2.12202c-0.07316,0 -0.17072,-0.8415 -0.29268,-2.52445c-0.02438,0 -0.03658,-0.07317 -0.03658,-0.21952c0.07316,-0.02438 0.10974,-0.04878 0.10974,-0.07316z" data-paper-data="{&quot;origPos&quot;:null}" fill="#000000" stroke="none" stroke-width="0.26458" stroke-linecap="butt"/></g></g></svg>