<svg version="1.1" xmlns="http://www.w3.org/2000/svg" xmlns:xlink="http://www.w3.org/1999/xlink" width="441.55828" height="69.66968" viewBox="0,0,441.55828,69.66968"><defs><linearGradient x1="24.5327" y1="284.2076" x2="24.5327" y2="341.819" gradientUnits="userSpaceOnUse" id="color-1"><stop offset="0" stop-color="#ffffff"/><stop offset="1" stop-color="#ffffff"/></linearGradient><radialGradient cx="433.55778" cy="324.91029" r="18.72682" gradientUnits="userSpaceOnUse" id="color-2"><stop offset="0" stop-color="#ffff00"/><stop offset="1" stop-color="#ff9400"/></radialGradient><radialGradient cx="437.13623" cy="326.02495" r="12.81669" gradientUnits="userSpaceOnUse" id="color-3"><stop offset="0" stop-color="#bda501"/><stop offset="1" stop-color="#c07801"/></radialGradient></defs><g transform="translate(-18.50356,-278.17846)"><g data-paper-data="{&quot;isPaintingLayer&quot;:true}" fill="none" fill-rule="nonzero" stroke="none" stroke-width="none" stroke-linecap="butt" stroke-linejoin="miter" stroke-miterlimit="10" stroke-dasharray="" stroke-dashoffset="0" font-family="none" font-weight="none" font-size="none" text-anchor="none" style="mix-blend-mode: normal"><path d="M24.5327,284.2076h429.5v57.6114h-429.5z" data-paper-data="{&quot;origPos&quot;:null}" id="ID0.3184669064357877" fill="#ffffff" stroke="url(#color-1)" stroke-width="12.05828"/><text transform="translate(25.78827,322.12447) scale(0.7218,0.72179)" font-size="22" xml:space="preserve" data-paper-data="{&quot;origPos&quot;:null}" id="ID0.08681221166625619" fill="#2492d1" fill-rule="nonzero" stroke="none" stroke-width="1" stroke-linecap="butt" stroke-linejoin="miter" stroke-miterlimit="10" stroke-dasharray="" stroke-dashoffset="0" font-family="Sans Serif" font-weight="400" text-anchor="start" style="mix-blend-mode: normal"><tspan x="0" dy="0">Defeat 10 goombas.</tspan></text><g stroke="none"><text transform="translate(283,338.98128) scale(0.60677,0.60677)" font-size="40" xml:space="preserve" data-paper-data="{&quot;origPos&quot;:null}" fill="#2392d1" fill-rule="nonzero" stroke="none" stroke-width="1" stroke-linecap="butt" stroke-linejoin="miter" stroke-miterlimit="10" stroke-dasharray="" stroke-dashoffset="0" font-family="Sans Serif" font-weight="normal" text-anchor="start" style="mix-blend-mode: normal"><tspan x="0" dy="0">Reward: +10</tspan></text><path d="M438.22633,321.71811c2.42757,0 4.62707,0.98611 6.21986,2.5789c1.5928,1.59272 2.57884,3.79221 2.57884,6.21979c0,2.4275 -0.98603,4.62709 -2.57884,6.21981c-1.5928,1.5928 -3.79229,2.5789 -6.21986,2.5789c-2.4275,0 -4.62699,-0.98611 -6.2198,-2.5789c-1.5928,-1.59272 -2.5789,-3.79231 -2.5789,-6.21981c0,-2.42757 0.98611,-4.62706 2.5789,-6.21979c1.5928,-1.5928 3.7923,-2.5789 6.2198,-2.5789z" data-paper-data="{&quot;origPos&quot;:null}" id="ID0.7142658131197095" fill="url(#color-2)" stroke-width="0.48028"/><path d="M436.38196,323.73549h3.47092v13.31086h-3.47092z" data-paper-data="{&quot;origPos&quot;:null}" id="ID0.06001657713204622" fill="url(#color-3)" stroke-width="0.59798"/></g><g fill="#2392d1" stroke="none" stroke-width="0.26459"><path d="M34.00908,286.3477c2.93134,0.74054 4.48958,1.18024 4.67472,1.3191c-1.0414,2.49164 -1.60067,3.76832 -1.67781,3.83004c-0.19286,0 -1.44639,-0.4397 -3.7606,-1.31911c-1.34224,1.24968 -2.01336,1.94779 -2.01336,2.09437c-0.10028,2.31421 -0.15043,3.66032 -0.15043,4.03831c1.60452,0.74054 2.55721,1.15711 2.85806,1.24967c1.49652,-0.64798 2.35664,-1.0414 2.58035,-1.18025l-0.41656,-1.33067c-0.2777,0.15429 -1.11469,0.50527 -2.51093,1.05296l-0.06942,-0.13882v-0.56698c0,-0.48599 -0.02315,-1.22653 -0.06943,-2.22164c0.36256,-0.09256 2.47621,-0.32397 6.34095,-0.69427c0.09257,0.47827 0.25456,2.51864 0.48598,6.12111c-0.12342,0.13885 -2.44535,1.0684 -6.96578,2.78863c-3.84931,-1.40396 -5.80097,-2.19465 -5.85497,-2.37208c-1.20339,-4.18101 -1.80509,-6.38337 -1.80509,-6.60707c1.58138,-2.84648 2.48778,-4.38159 2.7192,-4.6053c0.19286,-0.09256 2.07122,-0.57855 5.63511,-1.45795z" data-paper-data="{&quot;origPos&quot;:null}" id="path3755"/><path d="M46.10086,289.84217c2.93134,0.78683 4.48571,1.26509 4.66314,1.43481c1.61223,2.28335 2.51864,3.5986 2.7192,3.94574c-1.0414,3.30161 -1.63924,4.95242 -1.79352,4.95242c-3.47132,0.80998 -5.28798,1.21495 -5.44998,1.21495c-2.86962,-1.67395 -4.397,-2.60734 -4.58214,-2.80019c-0.10028,-3.11647 -0.15042,-4.8367 -0.15042,-5.1607c-0.04628,-0.09256 -0.06943,-0.16198 -0.06943,-0.20828c2.9622,-2.2525 4.49343,-3.37875 4.59372,-3.37875zM45.881,294.07718c-0.04628,0.30856 -0.11571,1.43095 -0.20828,3.36717l2.58035,0.57857c0.61713,-1.92852 0.92568,-2.95835 0.92568,-3.08948c-2.05194,-0.61713 -3.15119,-0.92569 -3.29776,-0.92569z" data-paper-data="{&quot;origPos&quot;:null}" id="path3757"/><path d="M59.19931,289.84217c2.93134,0.78683 4.48571,1.26509 4.66314,1.43481c1.61223,2.28335 2.51864,3.5986 2.71921,3.94574c-1.04139,3.30161 -1.63923,4.95242 -1.79351,4.95242c-3.47133,0.80998 -5.28798,1.21495 -5.44998,1.21495c-2.86962,-1.67395 -4.39701,-2.60734 -4.58214,-2.80019c-0.10028,-3.11647 -0.15043,-4.8367 -0.15043,-5.1607c-0.04628,-0.09256 -0.06943,-0.16198 -0.06943,-0.20828c2.9622,-2.2525 4.49344,-3.37875 4.59372,-3.37875zM58.97946,294.07718c-0.04628,0.30856 -0.11572,1.43095 -0.20828,3.36717l2.58035,0.57857c0.61712,-1.92852 0.92569,-2.95835 0.92569,-3.08948c-2.05194,-0.61713 -3.15119,-0.92569 -3.29776,-0.92569z" data-paper-data="{&quot;origPos&quot;:null}" id="path3759"/><path d="M80.49008,289.83059c1.88223,0.77913 3.50604,1.51195 4.87143,2.1985c-0.35485,4.58986 -0.58241,7.10079 -0.68269,7.53278c-2.26793,0.56313 -3.53689,0.84468 -3.80688,0.84468c0,-1.00282 -0.07714,-2.98148 -0.23143,-5.93596c-0.85626,0.0849 -1.28439,0.15819 -1.28439,0.21985c0,0.29313 0.05014,1.96708 0.15042,5.02184c0.04628,0 0.06942,0.02701 0.06942,0.08103c0,0.09256 -1.19182,0.34712 -3.57546,0.76369c-0.10028,-0.12342 -0.40499,-2.00179 -0.91411,-5.63511c-0.96425,0.24685 -1.44639,0.42426 -1.44639,0.53227l0.46285,4.721c-0.09256,0.10028 -1.36154,0.50526 -3.80689,1.21496c-1.41939,-5.02185 -2.30649,-8.39289 -2.66134,-10.11312c2.67677,-0.66341 4.17329,-0.99511 4.48958,-0.99511c0.35485,1.40396 0.53227,2.21393 0.53227,2.42993h0.081c1.30367,-1.20339 2.21393,-2.01337 2.73077,-2.42993h0.081l2.42993,1.74723h0.081c1.51967,-1.46567 2.32964,-2.19849 2.42993,-2.19849z" data-paper-data="{&quot;origPos&quot;:null}" id="path3761"/><path d="M91.92231,286.33612l0.08101,0.15042c0,0.43971 0.10028,2.14065 0.30084,5.10285c2.76163,-0.8794 4.30829,-1.34224 4.64,-1.38852l4.16559,4.47801c-1.75109,3.92645 -2.70377,6.00924 -2.85806,6.24838c-0.48598,-0.05402 -2.26022,-0.13116 -5.32269,-0.23142v0.54383c0,0.10028 -0.054,0.15042 -0.162,0.15042h-4.478c-0.162,0 -0.47056,-2.31421 -0.92569,-6.94264c-0.10028,-0.39342 -0.38185,-2.71149 -0.8447,-6.95421c2.62278,-0.61712 4.42401,-1.00283 5.40369,-1.15711zM92.69757,294.8293l0.30085,2.85806h2.32578l0.8447,-3.23991c-2.31422,0.20057 -3.47133,0.32785 -3.47133,0.38185z" data-paper-data="{&quot;origPos&quot;:null}" id="path3763"/><path d="M104.06036,289.83059c4.58214,0.63255 6.87322,1.02211 6.87322,1.16868c1.80509,1.55052 2.70763,2.3798 2.70763,2.48779c-0.73283,2.29107 -1.14939,3.68345 -1.24968,4.17715c0.73283,1.62766 1.14939,2.59964 1.24968,2.91591c0,0.09256 -1.19568,0.33941 -3.58703,0.74056c-0.03085,-0.13113 -0.2507,-0.42427 -0.65955,-0.8794c-3.30161,0.63255 -5.07971,0.94882 -5.33427,0.94882l-1.7588,-4.7557l3.87632,-2.04809c0.62484,0.10028 1.60066,0.15042 2.92748,0.15042c0,-0.16971 0.02314,-0.68269 0.06943,-1.53896c-0.2237,0 -2.22164,0.14657 -5.99381,0.43971l-0.06942,-0.15042c0.52456,-2.43764 0.84082,-3.65646 0.94882,-3.65646zM106.46715,296.63439c0,0.0849 0.24685,0.98743 0.74054,2.70762h0.06943c0.97197,-0.63255 1.45795,-1.04909 1.45795,-1.24966l0.15043,-1.23811c-0.18514,0 -0.99125,-0.07328 -2.41835,-0.21985z" data-paper-data="{&quot;origPos&quot;:null}" id="path3765"/><path d="M128.51005,286.33612c3.44817,1.34224 5.17227,2.0558 5.17227,2.14066c-1.10311,2.2525 -1.65466,3.42504 -1.65466,3.51761h-0.06943c-0.4937,-0.13885 -1.57752,-0.62099 -3.25147,-1.44639l-2.75392,1.93237c0,2.39137 0.135,3.58704 0.40499,3.58704c0.17742,0.09256 1.33067,0.55539 3.45975,1.38852c0.81769,-0.80998 1.64695,-1.59294 2.48779,-2.34893c0.15428,0.13885 0.84468,1.24197 2.07121,3.30934v0.20826c-0.07714,0 -1.78194,0.92183 -5.11441,2.76549c-4.25816,-1.4271 -6.44509,-2.18694 -6.5608,-2.2795l-2.07122,-6.8385c1.94393,-2.76164 2.93519,-4.14245 2.97377,-4.14245c0.08486,0 1.72024,-0.59784 4.90614,-1.79352z" data-paper-data="{&quot;origPos&quot;:null}" id="path3767"/><path d="M140.38197,289.84217c2.93134,0.78683 4.48572,1.26509 4.66314,1.43481c1.61223,2.28335 2.51863,3.5986 2.7192,3.94574c-1.04139,3.30161 -1.63923,4.95242 -1.79351,4.95242c-3.47133,0.80998 -5.28799,1.21495 -5.44998,1.21495c-2.86963,-1.67395 -4.39701,-2.60734 -4.58214,-2.80019c-0.10029,-3.11647 -0.15042,-4.8367 -0.15042,-5.1607c-0.04629,-0.09256 -0.06943,-0.16198 -0.06943,-0.20828c2.9622,-2.2525 4.49343,-3.37875 4.59372,-3.37875zM140.16211,294.07718c-0.04628,0.30856 -0.1157,1.43095 -0.20826,3.36717l2.58034,0.57857c0.61713,-1.92852 0.92569,-2.95835 0.92569,-3.08948c-2.05194,-0.61713 -3.15119,-0.92569 -3.29776,-0.92569z" data-paper-data="{&quot;origPos&quot;:null}" id="path3769"/><path d="M159.0924,289.83059l3.85317,2.64977c-0.26999,4.39702 -0.45899,6.9658 -0.56699,7.70635c-0.44741,0.05402 -1.80893,0.13501 -4.08458,0.24298l-0.08103,-0.162l-0.40499,-6.17894l-0.16199,-0.08103c-1.47338,0.31628 -2.48778,0.55541 -3.0432,0.7174c0.15428,2.63049 0.23143,4.53202 0.23143,5.70454c-2.29879,0.64026 -3.55617,0.9604 -3.77217,0.9604c-1.49653,-6.5878 -2.2448,-10.06683 -2.2448,-10.4371c3.25532,-0.42428 5.02184,-0.63641 5.29955,-0.63641v0.081c0.05402,0.03857 0.13501,0.84084 0.24299,2.40679c2.98534,-1.98251 4.56287,-2.97377 4.73257,-2.97377z" data-paper-data="{&quot;origPos&quot;:null}" id="path3771"/><path d="M167.55085,286.33612l5.09127,0.90254l-0.48598,3.86474c1.01053,-0.054 1.75109,-0.08101 2.22165,-0.08101h0.74054l0.162,-0.081l0.08103,0.162c-0.162,2.34507 -0.30085,3.66418 -0.41656,3.95731l-0.162,-0.09264c-0.11571,0 -1.15711,-0.054 -3.12419,-0.16199c-0.10799,1.8128 -0.18899,3.98044 -0.24299,6.50294l-0.16198,0.08103c-2.48392,-0.16199 -3.96502,-0.30085 -4.4433,-0.41656l0.08103,-0.32399c0,-0.67112 0.108,-2.75391 0.32399,-6.24838c-2.08279,-0.11571 -3.12419,-0.25457 -3.12419,-0.41656c0.108,-2.57648 0.24686,-3.86473 0.41656,-3.86473l3.04319,0.57856v-0.99507c0,-0.80998 -0.03084,-1.90537 -0.09251,-3.28618c0.06167,0 0.09251,-0.027 0.09251,-0.081z" data-paper-data="{&quot;origPos&quot;:null}" id="path3773"/><path d="M184.89589,289.83059c1.52738,0.85626 2.46464,1.41167 2.81177,1.66624c-1.24968,2.59963 -1.92081,3.92259 -2.01337,3.96888h-0.08103l-1.65467,-1.44639l-1.95551,2.38364l0.21985,4.33916c-0.10029,0.09256 -1.37696,0.30854 -3.83003,0.64797c-0.09256,-0.66341 -0.69424,-3.91488 -1.80508,-9.75442c0,-0.09256 1.61223,-0.33168 4.83671,-0.7174c0.05402,0.06171 0.20058,0.78298 0.4397,2.16379c1.92852,-2.16765 2.93906,-3.25147 3.03163,-3.25147z" data-paper-data="{&quot;origPos&quot;:null}" id="path3775"/><path d="M193.28493,289.84217c2.93133,0.78683 4.48571,1.26509 4.66314,1.43481c1.61223,2.28335 2.51864,3.5986 2.71921,3.94574c-1.04139,3.30161 -1.63924,4.95242 -1.79352,4.95242c-3.47132,0.80998 -5.28798,1.21495 -5.44998,1.21495c-2.86963,-1.67395 -4.39701,-2.60734 -4.58213,-2.80019c-0.10029,-3.11647 -0.15043,-4.8367 -0.15043,-5.1607c-0.04628,-0.09256 -0.06941,-0.16198 -0.06941,-0.20828c2.9622,-2.2525 4.49343,-3.37875 4.59372,-3.37875zM193.06507,294.07718c-0.04628,0.30856 -0.1157,1.43095 -0.20828,3.36717l2.58036,0.57857c0.61712,-1.92852 0.92568,-2.95835 0.92568,-3.08948c-2.05193,-0.61713 -3.15117,-0.92569 -3.29775,-0.92569z" data-paper-data="{&quot;origPos&quot;:null}" id="path3777"/><path d="M201.72023,286.3477c2.3605,0.04629 4.09231,0.06943 5.19542,0.06943c0.10029,0 0.40499,4.73642 0.91411,14.20928c-0.39342,0.10028 -1.76652,0.35484 -4.1193,0.76369c-0.11571,0 -0.49755,-2.90048 -1.14554,-8.70145c-0.05402,-0.13885 -0.33559,-2.2525 -0.84469,-6.34094z" data-paper-data="{&quot;origPos&quot;:null}" id="path3779"/></g></g></g></svg>