<svg version="1.1" xmlns="http://www.w3.org/2000/svg" xmlns:xlink="http://www.w3.org/1999/xlink" width="105.2336" height="105.23361" viewBox="0,0,105.2336,105.23361"><defs><linearGradient x1="240" y1="129.3832" x2="240" y2="230.61681" gradientUnits="userSpaceOnUse" id="color-1"><stop offset="0" stop-color="#3c94ed"/><stop offset="1" stop-color="#337fcc"/></linearGradient><radialGradient cx="246.6696" cy="137.10668" r="37.24226" gradientUnits="userSpaceOnUse" id="color-2"><stop offset="0" stop-color="#ffe954"/><stop offset="1" stop-color="#ff9441"/></radialGradient><radialGradient cx="245.69456" cy="141.39913" r="31.6309" gradientUnits="userSpaceOnUse" id="color-3"><stop offset="0" stop-color="#ff9441" stop-opacity="0"/><stop offset="1" stop-color="#ff9441"/></radialGradient><radialGradient cx="245.63197" cy="141.31335" r="31.63091" gradientUnits="userSpaceOnUse" id="color-4"><stop offset="0" stop-color="#ff9441" stop-opacity="0"/><stop offset="1" stop-color="#ff9441"/></radialGradient><radialGradient cx="261.10551" cy="149.05316" r="11.9801" gradientUnits="userSpaceOnUse" id="color-5"><stop offset="0" stop-color="#ffff41"/><stop offset="1" stop-color="#ffd833"/></radialGradient><radialGradient cx="241.62224" cy="145.81806" r="11.9801" gradientUnits="userSpaceOnUse" id="color-6"><stop offset="0" stop-color="#ffff41"/><stop offset="1" stop-color="#ffd833"/></radialGradient></defs><g transform="translate(-187.3832,-127.38319)"><g data-paper-data="{&quot;isPaintingLayer&quot;:true}" fill-rule="nonzero" stroke-linecap="butt" stroke-linejoin="miter" stroke-miterlimit="10" stroke-dasharray="" stroke-dashoffset="0" style="mix-blend-mode: normal"><path d="M240,129.3832c13.96441,0 26.62029,5.67033 35.78178,14.83501c9.16454,9.16149 14.83502,21.81722 14.83502,35.78179c0,13.96457 -5.67048,26.62029 -14.83502,35.78179c-9.16149,9.16468 -21.81737,14.83502 -35.78178,14.83502c-13.96457,0 -26.62044,-5.67033 -35.78195,-14.83502c-9.16454,-9.16149 -14.83486,-21.81722 -14.83486,-35.78179c0,-13.96457 5.67032,-26.62029 14.83486,-35.78179c9.16149,-9.16469 21.81738,-14.83501 35.78195,-14.83501z" fill="url(#color-1)" stroke="#23568d" stroke-width="4"/><path d="M225.11739,175.44696l-4.50671,-9.71011l9.36342,2.86033l1.97924,-6.18785l5.87619,5.90363l5.76103,-4.98737l1.86561,8.303l7.88921,-1.70361l-0.61403,6.10949l6.44138,2.45118l-9.01797,4.59628z" data-paper-data="{&quot;origRot&quot;:0}" fill="#80bfff" stroke="none" stroke-width="0"/><g data-paper-data="{&quot;origRot&quot;:0}"><g data-paper-data="{&quot;origPos&quot;:null}" stroke="none" stroke-width="0"><path d="M239.3851,222.28495c-0.47524,1.85545 -0.55744,2.70967 -5.58358,1.36712c-4.33234,-1.15723 -4.72333,-1.57869 -4.32563,-3.54422c0.25859,-1.27802 2.83921,-1.7091 5.49683,-1.0284c2.6576,0.68069 4.73581,1.94282 4.41239,3.20551z" data-paper-data="{&quot;origPos&quot;:null}" fill="#f3c08d"/><path d="M240.31407,221.12426c-0.4971,1.94081 -0.88301,3.33806 -6.3608,1.93503c-5.73182,-1.4681 -5.03812,-2.87673 -4.54102,-4.81754c0.4971,-1.94081 3.48841,-2.94143 6.34119,-2.21076c2.85276,0.73067 5.05774,3.15246 4.56064,5.09328z" data-paper-data="{&quot;origPos&quot;:null}" fill="#94612e"/></g><path d="M237.57767,206.68243c0.55764,-0.93896 3.98509,-1.97896 5.73327,-3.09841c1.74817,-1.11945 3.09197,-3.81621 4.42776,-1.31446c0.57983,1.08595 0.8291,3.90158 -0.91908,5.02103c-1.74817,1.11945 -10.77366,1.97099 -9.24194,-0.60816z" data-paper-data="{&quot;origRot&quot;:0,&quot;origPos&quot;:null,&quot;index&quot;:null}" fill="#ffdfc0" stroke="none" stroke-width="0"/><g data-paper-data="{&quot;origPos&quot;:null}" stroke="none" stroke-width="0"><path d="M238.70577,212.76783c-1.05409,4.11546 -5.87038,6.43696 -10.75749,5.18523c-4.8871,-1.25173 -7.99438,-5.6027 -6.94029,-9.71817c0.70258,-2.74308 2.03679,-4.59629 4.32246,-6.26775c2.36816,-1.73179 4.09388,-1.95342 6.93595,-1.22548c0,0 4.16897,0.84476 5.44172,3.65442c1.1238,2.48084 2.05173,4.25628 0.99764,8.37175z" data-paper-data="{&quot;origPos&quot;:null}" fill="#ffdfc0"/><path d="M238.65534,212.80398c-1.40364,4.00972 -5.87038,6.43696 -10.7575,5.18523c-4.8871,-1.25173 -8.16854,-5.39677 -6.94029,-9.71816c0.14076,-0.90184 1.09524,-1.77058 1.09524,-1.77058c0,0 5.47342,1.46786 8.31549,2.19581l8.71534,2.14682c0,0 -0.09199,1.00021 -0.42828,1.96088z" data-paper-data="{&quot;origPos&quot;:null}" fill="#ffffff"/></g><g data-paper-data="{&quot;origPos&quot;:null}" stroke="none" stroke-width="0"><path d="M225.80231,218.75692c-0.47524,1.85545 -0.55744,2.70966 -5.58357,1.36711c-4.33234,-1.15723 -4.72333,-1.57869 -4.32563,-3.54422c0.25859,-1.27802 2.83921,-1.7091 5.49683,-1.0284c2.6576,0.68069 4.73581,1.94282 4.41239,3.20552z" data-paper-data="{&quot;origPos&quot;:null}" fill="#f3c08d"/><path d="M226.73127,217.59625c-0.4971,1.94081 -0.883,3.33806 -6.36079,1.93503c-5.73182,-1.4681 -5.03813,-2.87673 -4.54103,-4.81754c0.4971,-1.94081 3.48842,-2.94143 6.34119,-2.21076c2.85276,0.73067 5.05773,3.15246 4.56063,5.09328z" data-paper-data="{&quot;origPos&quot;:null}" fill="#94612e"/></g><g data-paper-data="{&quot;origPos&quot;:null}" stroke="none" stroke-width="0"><path d="M236.66328,203.07723c1.83862,0.47092 3.81849,4.02416 3.07584,6.92369c-0.74266,2.89953 -0.98908,5.16069 -0.98908,5.16069c0,0 -4.21743,-0.28028 -5.02492,-0.9699c-1.58924,-1.35725 -0.31192,-3.15079 0.24075,-5.30855c0.74266,-2.89953 0.85878,-6.27684 2.69741,-5.80592z" data-paper-data="{&quot;index&quot;:null,&quot;origPos&quot;:null}" fill="#f0cf46"/><path d="M231.6875,214.62863l3.23369,-12.97747l2.20165,0.56391l-2.99631,11.09116l4.9041,1.20319l-0.50587,1.96069z" data-paper-data="{&quot;index&quot;:null,&quot;origPos&quot;:null}" fill="#ffef45"/></g><g data-paper-data="{&quot;origPos&quot;:null}" stroke="none" stroke-width="0"><path d="M226.82501,207.36605c-0.55267,2.15777 -0.42159,4.04134 -2.61487,4.42976c-1.11442,0.19735 -5.03214,-1.87672 -5.03214,-1.87672c0,0 0.34282,-1.51459 1.08547,-4.41412c0.74266,-2.89953 4.90771,-5.05934 6.89529,-4.55026c1.98758,0.50908 0.4089,3.51181 -0.33375,6.41132z" data-paper-data="{&quot;origPos&quot;:null}" fill="#f0cf46"/><path d="M218.84858,211.38139l0.22325,-1.94284l5.40843,1.34793l2.7044,-11.16592l2.20165,0.5639l-3.40305,12.9341z" data-paper-data="{&quot;origPos&quot;:null}" fill="#ffef45"/></g><path d="M214.82701,199.51914c-0.92004,-1.86085 0.7461,-4.14427 1.80306,-4.7754c2.43497,-1.45398 2.19485,1.54948 3.11488,3.41033c0.92004,1.86085 3.31959,4.52003 3.31287,5.61207c-0.01846,2.99963 -7.31078,-2.38615 -8.23081,-4.24701z" data-paper-data="{&quot;origRot&quot;:0,&quot;origPos&quot;:null}" fill="#ffdfc0" stroke="none" stroke-width="0"/><g data-paper-data="{&quot;origPos&quot;:null}"><g data-paper-data="{&quot;origPos&quot;:null}" stroke="none" stroke-width="0"><path d="M254.0183,190.37423c-1.22419,4.35473 -2.48063,6.024 -8.01906,5.43917c-4.24077,-0.4478 -16.08658,-3.51508 -20.25498,-4.5205c-9.11104,-2.1976 -11.932,-4.36914 -10.47684,-10.70792c0.56922,-2.47959 1.82119,-4.71805 4.5367,-5.74701c6.36151,-2.41051 11.29307,-1.6232 18.20058,0.14603c10.34261,2.64905 18.30928,7.22396 16.0136,15.39024z" data-paper-data="{&quot;origPos&quot;:null}" fill="#ffffff"/><path d="M246.77937,187.07782c-0.89183,3.48194 -4.86948,5.47097 -8.88433,4.44266c-4.01486,-1.02833 -6.54656,-4.68462 -5.65474,-8.16655c0.89183,-3.48193 4.86948,-5.47097 8.88433,-4.44266c4.01486,1.02833 6.54656,4.68462 5.65474,8.16655z" data-paper-data="{&quot;origPos&quot;:null}" fill="#ffef45"/><path d="M214.27687,182.81302c0.26152,-1.54735 0.12354,-2.05247 1.75421,-4.70108c0.3485,-1.13677 1.99927,-2.3278 1.99927,-2.3278c0,0 3.9466,1.3919 5.18439,2.81109c1.45245,1.66532 1.2426,3.52076 0.925,5.42851c-0.33398,2.0061 -0.97241,3.20354 -2.93442,4.49174c-0.95023,0.6239 -1.2227,0.66268 -1.2227,0.66268c0,0 -3.0423,-0.41809 -4.21704,-1.40419c-1.32943,-1.40716 -1.63703,-2.25913 -1.48873,-4.96096z" data-paper-data="{&quot;origPos&quot;:null,&quot;origRot&quot;:0}" fill="#ffef45"/><path d="M253.98281,185.49388c0,0 1.22925,0.72038 0.16941,5.07322c-0.92903,3.81558 -2.80078,4.69671 -2.80078,4.69671c0,0 -2.76719,-1.12028 -1.58724,-5.91553c1.07044,-4.35019 4.21861,-3.85441 4.21861,-3.85441z" data-paper-data="{&quot;origPos&quot;:null}" fill="#ffef45"/></g><g data-paper-data="{&quot;origPos&quot;:null}"><path d="M242.56582,199.22501c-1.23494,4.00447 -5.46814,4.91046 -10.61427,3.59238c-5.14613,-1.31808 -9.63128,-3.98286 -8.79718,-8.08972c0.45005,-2.21586 0.7432,-4.5073 0.7432,-4.5073c0,0 7.64891,1.03051 10.19605,1.75672c4.93377,1.40665 9.43676,3.73239 9.43676,3.73239c0,0 -0.27117,1.2671 -0.96456,3.51553z" data-paper-data="{&quot;origPos&quot;:null}" fill="#ffdfc0" stroke="none" stroke-width="0"/><path d="M234.92257,200.14924c0,0 -1.64147,0.77102 -3.38598,0.04496c-1.74451,-0.72607 -2.33152,-2.5568 -2.33152,-2.5568c0,0 1.22024,1.43328 2.6081,2.01091c1.38787,0.57763 3.10938,0.50092 3.10938,0.50092z" data-paper-data="{&quot;origPos&quot;:null,&quot;origRot&quot;:0}" fill="#000000" stroke="#000000" stroke-width="0.5"/><g data-paper-data="{&quot;origPos&quot;:null}" fill="none" stroke="none" stroke-width="1" font-family="sans-serif" font-weight="normal" font-size="12" text-anchor="start"/><g data-paper-data="{&quot;origPos&quot;:null}" fill="none" stroke="none" stroke-width="1" font-family="sans-serif" font-weight="normal" font-size="12" text-anchor="start"/></g></g><path d="M228.44194,194.87571c0,0 1.11777,-1.10971 2.34477,-0.81118c1.227,0.29854 1.67996,1.91606 1.67996,1.91606c0,0 -0.88164,-1.09377 -1.85779,-1.33128c-0.97615,-0.23751 -2.16694,0.2264 -2.16694,0.2264z" data-paper-data="{&quot;origRot&quot;:0}" fill="#000000" stroke="#000000" stroke-width="0.5"/><path d="M238.90483,197.57252c0,0 -0.82116,-0.97923 -1.7913,-1.24023c-0.97013,-0.261 -2.26903,0.27427 -2.26903,0.27427c0,0 1.17476,-1.2006 2.39421,-0.87252c1.21944,0.32807 1.66612,1.83849 1.66612,1.83849z" data-paper-data="{&quot;origPos&quot;:null,&quot;origRot&quot;:0,&quot;index&quot;:null}" fill="#000000" stroke="#000000" stroke-width="0.5"/></g><g stroke="none" stroke-width="1.3017"><g><path d="M252.67612,135.87973c4.19623,0.65585 7.73219,2.95435 10.05508,6.13787c2.32295,3.18354 3.43286,7.25217 2.77702,11.44839c-0.65585,4.19629 -2.95428,7.73224 -6.13781,10.05514c-3.18359,2.3229 -7.25223,3.4328 -11.44846,2.77695c-4.19624,-0.65585 -7.73218,-2.95428 -10.05514,-6.13781c-2.3229,-3.18354 -3.43281,-7.25217 -2.77696,-11.44846c0.65585,-4.19624 2.95428,-7.73218 6.13782,-10.05507c3.18354,-2.32296 7.25222,-3.43287 11.44845,-2.77702z" fill="url(#color-2)"/><path d="M252.73871,135.96557c4.19624,0.65585 7.73218,2.95428 10.05514,6.13782c2.3229,3.18354 3.4328,7.25217 2.77695,11.44839c-0.65585,4.19629 -2.95428,7.73224 -6.13782,10.05514c-3.18359,2.32296 -7.25222,3.4328 -11.44846,2.77695c-4.19624,-0.65585 -7.73218,-2.95428 -10.05514,-6.13781c-2.3229,-3.18354 -3.4328,-7.25217 -2.77695,-11.4484c0.65585,-4.19629 2.95428,-7.73224 6.13781,-10.05514c3.18354,-2.32296 7.25223,-3.4328 11.44846,-2.77695z" fill="url(#color-3)"/><path d="M252.67612,135.87973c4.19623,0.65585 7.73219,2.95435 10.05508,6.13787c2.32295,3.18354 3.43286,7.25217 2.77702,11.44839c-0.65585,4.19629 -2.95428,7.73224 -6.13781,10.05514c-3.18359,2.3229 -7.25223,3.4328 -11.44846,2.77695c-4.19624,-0.65585 -7.73218,-2.95428 -10.05514,-6.13781c-2.3229,-3.18354 -3.43281,-7.25217 -2.77696,-11.44846c0.65585,-4.19624 2.95428,-7.73218 6.13782,-10.05507c3.18354,-2.32296 7.25222,-3.43287 11.44845,-2.77702z" fill="url(#color-4)"/></g><path d="M261.14277,146.62747c1.28944,0.20156 2.34615,1.09935 3.01227,2.38607c0.66525,1.28734 0.93973,2.96432 0.66456,4.72489c-0.27517,1.76057 -1.04824,3.27382 -2.07455,4.29679c-1.02696,1.02211 -2.30727,1.55468 -3.59669,1.35317c-1.28948,-0.20156 -2.34621,-1.09939 -3.01226,-2.38611c-0.66525,-1.28734 -0.93973,-2.96432 -0.66456,-4.72489c0.27517,-1.76057 1.04824,-3.27376 2.07455,-4.29673c1.02696,-1.02211 2.30726,-1.55468 3.59668,-1.35317z" fill="url(#color-5)"/><path d="M241.65951,143.39236c1.28943,0.2015 2.34614,1.09935 3.01226,2.38607c0.66524,1.28734 0.93973,2.96432 0.66456,4.72489c-0.27517,1.76057 -1.04829,3.27382 -2.07461,4.29679c-1.02696,1.02211 -2.30721,1.55467 -3.59663,1.35311c-1.28948,-0.2015 -2.3462,-1.09935 -3.01232,-2.38607c-0.6652,-1.28734 -0.93967,-2.96432 -0.66456,-4.72489c0.27517,-1.76057 1.04829,-3.27375 2.07461,-4.29672c1.02696,-1.02211 2.30727,-1.55473 3.59669,-1.35317z" fill="url(#color-6)"/></g></g></g></svg>