<svg version="1.1" xmlns="http://www.w3.org/2000/svg" xmlns:xlink="http://www.w3.org/1999/xlink" width="284.92188" height="236.265"><defs><linearGradient x1="239.62485" y1="126.875" x2="239.62485" y2="231.92942" gradientUnits="userSpaceOnUse" id="color-1"><stop offset="0" stop-color="#99aeff"/><stop offset="1" stop-color="#99fff6"/></linearGradient><linearGradient x1="185.87485" y1="186.39332" x2="185.87485" y2="232.375" gradientUnits="userSpaceOnUse" id="color-2"><stop offset="0" stop-color="#001966" stop-opacity="0"/><stop offset="1" stop-color="#001966"/></linearGradient></defs><g transform="translate(-85.5,-1.36)"><g data-paper-data="{&quot;isPaintingLayer&quot;:true}" fill="none" fill-rule="nonzero" stroke="none" stroke-width="none" stroke-linecap="none" stroke-linejoin="miter" stroke-miterlimit="10" stroke-dasharray="" stroke-dashoffset="0" font-family="none" font-weight="none" font-size="none" text-anchor="none" style="mix-blend-mode: normal"><path d="M186.87485,126.875h105.5v105.05442h-105.5z" data-paper-data="{&quot;origPos&quot;:null}" id="ID0.8402707348577678" fill="url(#color-1)" stroke="none" stroke-width="1" stroke-linecap="butt"/><text transform="translate(207,25.86)" font-size="22" xml:space="preserve" id="ID0.02884628064930439" fill="#ff0000" fill-rule="nonzero" stroke="none" stroke-width="1" stroke-linecap="butt" stroke-linejoin="miter" stroke-miterlimit="10" stroke-dasharray="" stroke-dashoffset="0" font-family="Sans Serif" font-weight="400" text-anchor="start" style="mix-blend-mode: normal"><tspan x="0" dy="0">WIP</tspan></text><text transform="translate(86,55.01)" font-size="22" xml:space="preserve" id="ID0.826193920802325" fill="#ff0000" fill-rule="nonzero" stroke="none" stroke-width="1" stroke-linecap="butt" stroke-linejoin="miter" stroke-miterlimit="10" stroke-dasharray="" stroke-dashoffset="0" font-family="Sans Serif" font-weight="400" text-anchor="start" style="mix-blend-mode: normal"><tspan x="0" dy="0">This level is unfinished and</tspan><tspan x="0" dy="24.86px">selecting a star here may</tspan><tspan x="0" dy="24.86px">cause errors.</tspan></text><path d="M185.17485,175.41523c0.431,-1.31 0.64,-2.127 1.5,-2c3.44,0.51 6.465,3.397 10,3.75c2.915,0.253 5.82,-1.012 8.75,-1.25c3.242,-0.274 6.689,-0.334 10,0.5c3.77,0.599 7.076,2.739 11,3.75c4.309,1.101 8.804,1.941 13.25,1.75c2.628,-0.115 5.254,-2.125 8,-2.75c4.985,-1.129 9.586,-2.743 14.5,-2.75c5.158,-0.007 10.249,1.991 15.5,2.75c5.497,0.658 12.785,-2.59 16.75,1.5c3.483,3.595 0.128,10.123 -1,15c-0.497,2.168 -1.534,4.37 -3.75,4.75c-8.864,1.534 -17.844,0.144 -26.75,0c-9.736,-0.156 -19.503,-0.728 -29.25,-0.5c-13.572,0.021 -27.159,1.279 -40.75,1.25c-3.398,-0.007 -2.892,-1.044 -4.25,-1.75c-0.739,-0.384 -1.675,-0.49 -2,-1.5c-1.299,-4.041 -1.873,-8.302 -2.5,-12.5c-0.209,-1.4 -0.163,-2.844 0,-4.25c0.255,-2.189 0.573,-4.402 1.25,-6.5z" data-paper-data="{&quot;origPos&quot;:null}" id="ID0.5924747753888369" fill="#00cccc" stroke="#00cccc" stroke-width="2" stroke-linecap="round"/><path d="M185.87485,186.39331h106.25v45.98169h-106.25z" data-paper-data="{&quot;origPos&quot;:null}" id="ID0.5623176000081003" fill="#00cccc" stroke="none" stroke-width="1" stroke-linecap="butt"/><g data-paper-data="{&quot;origPos&quot;:null}" id="ID0.12423867313191295"><g id="ID0.4868969386443496"><path d="M227.46165,176.143l14.6653,-22.0722" id="ID0.28362002689391375" fill="none" stroke="#7f7f7f" stroke-width="2" stroke-linecap="round"/><g id="ID0.7012822986580431" fill="#ffffff" stroke="none" stroke-width="1" stroke-linecap="butt"><path d="M234.03405,166.7029l6.2468,4.1505l-1.6602,2.4987l-6.2468,-4.1505z" id="ID0.2252124254591763"/><path d="M237.50685,170.511l1.8741,1.2452l-2.6287,3.9563l-1.8741,-1.2451z" id="ID0.8340362305752933"/></g><g id="ID0.41070480458438396" fill="#ffffff" stroke="none" stroke-width="1" stroke-linecap="butt"><path d="M227.02275,161.4441l6.2469,4.1505l-1.5219,2.2906l-6.2468,-4.1506z" id="ID0.32188658928498626"/><path d="M225.15855,166.5087l5.4139,3.5971l-1.1068,1.6658l-5.4139,-3.5971z" id="ID0.4940462182275951"/><path d="M227.78865,163.4537l2.9152,1.9369l-2.9054,4.3728l-2.9152,-1.9369z" id="ID0.8666010331362486"/></g><g id="ID0.24596018251031637" fill="#ffffff" stroke="none" stroke-width="1" stroke-linecap="butt"><path d="M237.54165,148.3229l5.6222,3.7355l-2.0753,3.1234l-5.6221,-3.7354z" id="ID0.7671594880521297"/><path d="M241.98715,153.3777l6.2468,4.1505l-2.2136,3.3317l-6.2468,-4.1506z" id="ID0.4224324310198426"/><path d="M232.83635,154.5013l5.8304,3.8738l-1.9369,2.9152l-5.8304,-3.8738z" id="ID0.9008113713935018"/></g></g><g id="ID0.3842937722802162"><path d="M253.49155,194.3383l14.8036,-22.2804" id="ID0.34477629931643605" fill="none" stroke="#7f7f7f" stroke-width="2" stroke-linecap="round"/><g id="ID0.7151992535218596" fill="#ffffff" stroke="none" stroke-width="1" stroke-linecap="butt"><path d="M260.68725,184.4118l6.2468,4.1506l-1.6602,2.4987l-6.2468,-4.1505z" id="ID0.2252124254591763"/><path d="M263.28805,189.2614l1.874,1.2452l-2.6287,3.9563l-1.874,-1.2451z" id="ID0.8340362305752933"/></g><g id="ID0.24521640501916409" fill="#ffffff" stroke="none" stroke-width="1" stroke-linecap="butt"><path d="M253.60885,180.6093l2.9152,1.9369l-2.9054,4.3728l-2.9151,-1.9369z" id="ID0.8666010331362486"/><path d="M253.48225,179.4446l6.2469,4.1505l-1.5219,2.2906l-6.2468,-4.1506z" id="ID0.32188658928498626"/><path d="M251.11855,184.3574l5.4139,3.5971l-1.1068,1.6658l-5.4139,-3.5971z" id="ID0.4940462182275951"/></g><g id="ID0.10930580040439963" fill="#ffffff" stroke="none" stroke-width="1" stroke-linecap="butt"><path d="M263.87625,166.2404l5.6221,3.7355l-2.0752,3.1234l-5.6222,-3.7355z" id="ID0.7671594880521297"/><path d="M267.87875,171.7812l6.2468,4.1506l-2.2136,3.3316l-6.2469,-4.1505z" id="ID0.4224324310198426"/><path d="M259.49095,173.1117l5.8304,3.8738l-1.937,2.9152l-5.8303,-3.8738z" id="ID0.9008113713935018"/></g></g><path d="M205.87445,161.1996l60.3861,40.122l-15.5849,10.3555l-40.188,-26.7018z" id="ID0.051237229723483324" fill="#cc7700" stroke="none" stroke-width="1" stroke-linecap="round"/></g><path d="M185.87485,186.39332h106.25v45.98169h-106.25z" data-paper-data="{&quot;origPos&quot;:null}" id="ID0.5623176000081003" fill="url(#color-2)" stroke="none" stroke-width="1" stroke-linecap="butt"/><path d="M186.87485,127.125h106v106h-106z" data-paper-data="{&quot;origPos&quot;:null}" id="ID0.5801267544738948" fill="none" stroke="#995900" stroke-width="9" stroke-linecap="butt"/></g></g></svg>