<svg version="1.1" xmlns="http://www.w3.org/2000/svg" xmlns:xlink="http://www.w3.org/1999/xlink" width="499.50744" height="374.46689" viewBox="0,0,499.50744,374.46689"><defs><radialGradient cx="79.00002" cy="87" r="247.5" gradientUnits="userSpaceOnUse" id="color-1"><stop offset="0" stop-color="#0d66ff"/><stop offset="1" stop-color="#001333"/></radialGradient><linearGradient x1="567.89951" y1="308.00443" x2="567.89951" y2="406.00443" gradientUnits="userSpaceOnUse" id="color-2"><stop offset="0" stop-color="#000000" stop-opacity="0"/><stop offset="1" stop-color="#000000"/></linearGradient><linearGradient x1="397.73926" y1="221.1032" x2="397.19018" y2="220.94578" gradientUnits="userSpaceOnUse" id="color-3"><stop offset="0" stop-color="#8aa742"/><stop offset="0.1" stop-color="#8aa742"/><stop offset="0.25" stop-color="#b7ca33"/><stop offset="0.4045" stop-color="#b7ca33"/><stop offset="1" stop-color="#8aa742"/></linearGradient><linearGradient x1="400.69068" y1="210.67627" x2="400.16289" y2="210.63938" gradientUnits="userSpaceOnUse" id="color-4"><stop offset="0" stop-color="#83b641"/><stop offset="0.2" stop-color="#b7ca33"/><stop offset="0.525" stop-color="#b7ca33"/><stop offset="1" stop-color="#8aa742"/></linearGradient><linearGradient x1="423.85921" y1="211.94151" x2="424.09516" y2="212.33421" gradientUnits="userSpaceOnUse" id="color-5"><stop offset="0" stop-color="#83b641"/><stop offset="1" stop-color="#595e48"/></linearGradient><linearGradient x1="424.4671" y1="212.24527" x2="424.31828" y2="212.42262" gradientUnits="userSpaceOnUse" id="color-6"><stop offset="0" stop-color="#8aa742"/><stop offset="1" stop-color="#595e48"/></linearGradient><linearGradient x1="424.68905" y1="212.39003" x2="424.68905" y2="212.76584" gradientUnits="userSpaceOnUse" id="color-7"><stop offset="0" stop-color="#8aa742"/><stop offset="1" stop-color="#767e47"/></linearGradient><linearGradient x1="418.21885" y1="232.8839" x2="417.70421" y2="232.8479" gradientUnits="userSpaceOnUse" id="color-8"><stop offset="0" stop-color="#767e47"/><stop offset="1" stop-color="#8aa742"/></linearGradient><linearGradient x1="418.46058" y1="232.9299" x2="418.12816" y2="233.2991" gradientUnits="userSpaceOnUse" id="color-9"><stop offset="0" stop-color="#767e47"/><stop offset="1" stop-color="#595e48"/></linearGradient><linearGradient x1="394.50236" y1="233.5781" x2="417.97391" y2="233.5781" gradientUnits="userSpaceOnUse" id="color-10"><stop offset="0" stop-color="#8aa742"/><stop offset="0.4" stop-color="#b7ca33"/><stop offset="1" stop-color="#8aa742"/></linearGradient><linearGradient x1="394.35939" y1="231.78112" x2="393.98772" y2="231.36831" gradientUnits="userSpaceOnUse" id="color-11"><stop offset="0" stop-color="#767e47"/><stop offset="0.1" stop-color="#767e47"/><stop offset="0.65" stop-color="#83b641"/><stop offset="1" stop-color="#8aa742"/></linearGradient><linearGradient x1="394.34709" y1="231.11314" x2="394.61763" y2="231.60116" gradientUnits="userSpaceOnUse" id="color-12"><stop offset="0" stop-color="#8aa742"/><stop offset="0.4045" stop-color="#83b641"/><stop offset="0.8" stop-color="#8aa742"/><stop offset="1" stop-color="#8aa742"/></linearGradient><linearGradient x1="421.23648" y1="222.51209" x2="420.68945" y2="222.35524" gradientUnits="userSpaceOnUse" id="color-13"><stop offset="0" stop-color="#595e48"/><stop offset="1" stop-color="#83b641"/></linearGradient><linearGradient x1="419.87979" y1="225.54624" x2="398.18942" y2="219.32663" gradientUnits="userSpaceOnUse" id="color-14"><stop offset="0" stop-color="#6fbc48"/><stop offset="0.3333" stop-color="#98c74f"/><stop offset="0.6666" stop-color="#80c046"/><stop offset="1" stop-color="#607d3a"/></linearGradient><linearGradient x1="361.57997" y1="251.59667" x2="384.56553" y2="251.59667" gradientUnits="userSpaceOnUse" id="color-15"><stop offset="0" stop-color="#76a5d8"/><stop offset="0.45" stop-color="#dae3ec"/><stop offset="1" stop-color="#3f87c7"/></linearGradient><clipPath id="clip-1"><path d="M384.56224,253.52572c-5.23224,-3.52248 -10.90479,-6.37647 -22.98009,-1.38482l5.85802,-20.47441c12.07713,-4.99455 17.92893,-2.33663 23.15679,1.20592z" fill="none"/></clipPath><linearGradient x1="387.12746" y1="244.93897" x2="365.41172" y2="238.71206" gradientUnits="userSpaceOnUse" id="color-16"><stop offset="0" stop-color="#2e499e"/><stop offset="0.4" stop-color="#4496d1"/><stop offset="0.725" stop-color="#a5cded"/><stop offset="1" stop-color="#007fc4"/></linearGradient><linearGradient x1="367.44331" y1="231.52387" x2="367.44331" y2="231.67289" gradientUnits="userSpaceOnUse" id="color-17"><stop offset="0" stop-color="#76a5d8"/><stop offset="1" stop-color="#2e499e"/></linearGradient><clipPath id="clip-2"><path d="M374.44789,207.2698l-0.06646,-0.01899c0.02556,-0.0869 0.08543,-0.11793 0.1088,-0.12778l0.00985,-0.00291c0.00037,0.00037 -0.02191,0.046 -0.05221,0.1497z" fill="none" fill-rule="nonzero"/></clipPath><clipPath id="clip-3"><path d="M374.44789,207.2698l-0.06646,-0.01899c0.02556,-0.0869 0.08543,-0.11793 0.1088,-0.12778l0.00985,-0.00291c0.00037,0.00037 -0.02191,0.046 -0.05221,0.1497z" fill="none" fill-rule="nonzero"/></clipPath><clipPath id="clip-4"><path d="M374.44789,207.2698l-0.06646,-0.01899c0.02556,-0.0869 0.08543,-0.11793 0.1088,-0.12778l0.00985,-0.00291c0.00037,0.00037 -0.02191,0.046 -0.05221,0.1497z" fill="none" fill-rule="nonzero"/></clipPath><clipPath id="clip-5"><path d="M374.44789,207.2698l-0.06646,-0.01899c0.02556,-0.0869 0.08543,-0.11793 0.1088,-0.12778l0.00985,-0.00291c0.00037,0.00037 -0.02191,0.046 -0.05221,0.1497z" fill="none" fill-rule="nonzero"/></clipPath><clipPath id="clip-6"><path d="M374.44789,207.2698l-0.06646,-0.01899c0.02556,-0.0869 0.08543,-0.11793 0.1088,-0.12778l0.00985,-0.00291c0.00037,0.00037 -0.02191,0.046 -0.05221,0.1497z" fill="none" fill-rule="nonzero"/></clipPath><clipPath id="clip-7"><path d="M374.44789,207.2698l-0.06646,-0.01899c0.02556,-0.0869 0.08543,-0.11793 0.1088,-0.12778l0.00985,-0.00291c0.00037,0.00037 -0.02191,0.046 -0.05221,0.1497z" fill="none" fill-rule="nonzero"/></clipPath><clipPath id="clip-8"><path d="M374.44789,207.2698l-0.06646,-0.01899c0.02556,-0.0869 0.08543,-0.11793 0.1088,-0.12778l0.00985,-0.00291c0.00037,0.00037 -0.02191,0.046 -0.05221,0.1497z" fill="none" fill-rule="nonzero"/></clipPath><clipPath id="clip-9"><path d="M374.44789,207.2698l-0.06646,-0.01899c0.02556,-0.0869 0.08543,-0.11793 0.1088,-0.12778l0.00985,-0.00291c0.00037,0.00037 -0.02191,0.046 -0.05221,0.1497z" fill="none" fill-rule="nonzero"/></clipPath><clipPath id="clip-10"><path d="M374.44789,207.2698l-0.06646,-0.01899c0.02556,-0.0869 0.08543,-0.11793 0.1088,-0.12778l0.00985,-0.00291c0.00037,0.00037 -0.02191,0.046 -0.05221,0.1497z" fill="none" fill-rule="nonzero"/></clipPath><clipPath id="clip-11"><path d="M374.44789,207.2698l-0.06646,-0.01899c0.02556,-0.0869 0.08543,-0.11793 0.1088,-0.12778l0.00985,-0.00291c0.00037,0.00037 -0.02191,0.046 -0.05221,0.1497z" fill="none" fill-rule="nonzero"/></clipPath><clipPath id="clip-12"><path d="M374.44789,207.2698l-0.06646,-0.01899c0.02556,-0.0869 0.08543,-0.11793 0.1088,-0.12778l0.00985,-0.00291c0.00037,0.00037 -0.02191,0.046 -0.05221,0.1497z" fill="none" fill-rule="nonzero"/></clipPath><clipPath id="clip-13"><path d="M374.44789,207.2698l-0.06646,-0.01899c0.02556,-0.0869 0.08543,-0.11793 0.1088,-0.12778l0.00985,-0.00291c0.00037,0.00037 -0.02191,0.046 -0.05221,0.1497z" fill="none" fill-rule="nonzero"/></clipPath><clipPath id="clip-14"><path d="M374.44789,207.2698l-0.06646,-0.01899c0.02556,-0.0869 0.08543,-0.11793 0.1088,-0.12778l0.00985,-0.00291c0.00037,0.00037 -0.02191,0.046 -0.05221,0.1497z" fill="none" fill-rule="nonzero"/></clipPath><clipPath id="clip-15"><path d="M374.44789,207.2698l-0.06646,-0.01899c0.02556,-0.0869 0.08543,-0.11793 0.1088,-0.12778l0.00985,-0.00291c0.00037,0.00037 -0.02191,0.046 -0.05221,0.1497z" fill="none" fill-rule="nonzero"/></clipPath><clipPath id="clip-16"><path d="M374.44789,207.2698l-0.06646,-0.01899c0.02556,-0.0869 0.08543,-0.11793 0.1088,-0.12778l0.00985,-0.00291c0.00037,0.00037 -0.02191,0.046 -0.05221,0.1497z" fill="none" fill-rule="nonzero"/></clipPath><clipPath id="clip-17"><path d="M374.44789,207.2698l-0.06646,-0.01899c0.02556,-0.0869 0.08543,-0.11793 0.1088,-0.12778l0.00985,-0.00291c0.00037,0.00037 -0.02191,0.046 -0.05221,0.1497z" fill="none" fill-rule="nonzero"/></clipPath><linearGradient x1="368.48903" y1="227.19419" x2="391.5912" y2="227.19419" gradientUnits="userSpaceOnUse" id="color-18"><stop offset="0" stop-color="#faab4f"/><stop offset="0.25" stop-color="#faab4f"/><stop offset="0.475" stop-color="#fcc193"/><stop offset="0.525" stop-color="#fcc193"/><stop offset="0.75" stop-color="#f89c3e"/><stop offset="1" stop-color="#f89c3e"/></linearGradient><linearGradient x1="394.07363" y1="220.68641" x2="372.33833" y2="214.45391" gradientUnits="userSpaceOnUse" id="color-19"><stop offset="0" stop-color="#cd2b2b"/><stop offset="0.4" stop-color="#f2692a"/><stop offset="0.725" stop-color="#fcb544"/><stop offset="1" stop-color="#f37237"/></linearGradient><linearGradient x1="411.77811" y1="257.17799" x2="411.65506" y2="257.63724" gradientUnits="userSpaceOnUse" id="color-20"><stop offset="0" stop-color="#d4a52e"/><stop offset="1" stop-color="#a87c3c"/></linearGradient><linearGradient x1="417.56514" y1="237.05614" x2="417.56514" y2="237.4341" gradientUnits="userSpaceOnUse" id="color-21"><stop offset="0.0056" stop-color="#c19236"/><stop offset="1" stop-color="#d4a52e"/></linearGradient><linearGradient x1="416.72566" y1="236.60941" x2="416.96346" y2="237.00519" gradientUnits="userSpaceOnUse" id="color-22"><stop offset="0.0056" stop-color="#ffcd02"/><stop offset="1" stop-color="#a87c3c"/></linearGradient><linearGradient x1="417.34517" y1="236.91284" x2="417.1996" y2="237.0863" gradientUnits="userSpaceOnUse" id="color-23"><stop offset="0.0056" stop-color="#ffcd02"/><stop offset="1" stop-color="#a87c3c"/></linearGradient><linearGradient x1="411.29909" y1="256.96798" x2="410.78334" y2="256.93195" gradientUnits="userSpaceOnUse" id="color-24"><stop offset="0" stop-color="#c19236"/><stop offset="1" stop-color="#ffcd02"/></linearGradient><linearGradient x1="390.78222" y1="245.18677" x2="390.24241" y2="245.03197" gradientUnits="userSpaceOnUse" id="color-25"><stop offset="0" stop-color="#d4a52e"/><stop offset="0.1" stop-color="#d4a52e"/><stop offset="0.2" stop-color="#ffc222"/><stop offset="0.35" stop-color="#ffc222"/><stop offset="1" stop-color="#d4a52e"/></linearGradient><linearGradient x1="414.19508" y1="246.88174" x2="413.68373" y2="246.73512" gradientUnits="userSpaceOnUse" id="color-26"><stop offset="0" stop-color="#a87c3c"/><stop offset="1" stop-color="#ffd200"/></linearGradient><linearGradient x1="411.51375" y1="256.91128" x2="411.25681" y2="257.48832" gradientUnits="userSpaceOnUse" id="color-27"><stop offset="0" stop-color="#c19236"/><stop offset="1" stop-color="#d4a52e"/></linearGradient><linearGradient x1="387.5933" y1="257.59657" x2="411.05342" y2="257.59657" gradientUnits="userSpaceOnUse" id="color-28"><stop offset="0" stop-color="#d4a52e"/><stop offset="0.4" stop-color="#ffd200"/><stop offset="1" stop-color="#d4a52e"/></linearGradient><linearGradient x1="387.4309" y1="255.85807" x2="387.05297" y2="255.43836" gradientUnits="userSpaceOnUse" id="color-29"><stop offset="0" stop-color="#d4a52e"/><stop offset="0.1" stop-color="#d4a52e"/><stop offset="0.7" stop-color="#ffd200"/><stop offset="1" stop-color="#d4a52e"/></linearGradient><linearGradient x1="387.44196" y1="255.15354" x2="387.70935" y2="255.63595" gradientUnits="userSpaceOnUse" id="color-30"><stop offset="0" stop-color="#d4a52e"/><stop offset="0.4" stop-color="#ffc222"/><stop offset="0.8" stop-color="#ffcd02"/><stop offset="1" stop-color="#d4a52e"/></linearGradient><clipPath id="clip-18"><path d="M393.68827,234.98122c5.22566,3.51701 10.88799,5.95441 22.91363,1.81418l-5.73315,19.92639c-10.58057,4.65209 -17.72228,1.85835 -23.07465,-1.37643z" fill="none"/></clipPath><linearGradient x1="412.97822" y1="249.56437" x2="391.23918" y2="243.33082" gradientUnits="userSpaceOnUse" id="color-31"><stop offset="0" stop-color="#ffc907"/><stop offset="0.1667" stop-color="#ffd200"/><stop offset="0.3333" stop-color="#ffd952"/><stop offset="0.625" stop-color="#ffcd02"/><stop offset="1" stop-color="#b77a36"/></linearGradient><clipPath id="clip-19"><path d="M393.68827,234.98122c5.22566,3.51701 10.88799,5.95441 22.91363,1.81418l-5.73315,19.92639c-10.58057,4.65209 -17.72228,1.85835 -23.07465,-1.37643z"/></clipPath><linearGradient x1="393.70908" y1="234.86664" x2="393.17202" y2="234.82908" gradientUnits="userSpaceOnUse" id="color-32"><stop offset="0" stop-color="#ffc222"/><stop offset="0.2" stop-color="#ffc222"/><stop offset="0.525" stop-color="#ffd200"/><stop offset="1" stop-color="#d4a52e"/></linearGradient></defs><g transform="translate(7.50743,6)"><g data-paper-data="{&quot;isPaintingLayer&quot;:true}" stroke="none" stroke-linecap="butt" stroke-linejoin="miter" stroke-miterlimit="10" stroke-dasharray="" stroke-dashoffset="0" style="mix-blend-mode: normal"><path d="M-2.99998,364v-370h495v370z" data-paper-data="{&quot;origPos&quot;:null}" fill="url(#color-1)" fill-rule="nonzero" stroke-width="0"/><path d="M486.00609,366.97l-493.51352,1.49689c0,-20.15415 0,-40.3083 0,-60.46246h490.88069c0.19361,6.68646 2.63283,58.96557 2.63283,58.96557z" data-paper-data="{&quot;origPos&quot;:null,&quot;index&quot;:null}" fill="url(#color-2)" fill-rule="nonzero" stroke-width="1.22826"/><g stroke-width="1"><g fill="none" fill-rule="nonzero"><path d="M375.99664,253.02079"/></g><g><g><path d="M423.72719,212.13476c-12.04682,4.98142 -17.84131,2.19023 -23.06114,-1.32312c0.01206,-0.046 0.03359,-0.13509 -0.00146,-0.22052c5.21983,3.51408 11.13041,6.34214 23.17651,1.36145c-0.07996,0.07338 -0.07996,0.10989 -0.11391,0.18218z" fill="#83b641" fill-rule="nonzero"/><path d="M400.17608,210.7521l-5.88358,20.43789l-0.45346,0.35889l0.00037,-0.0471l5.90658,-20.44228z" fill="#8aa742" fill-rule="evenodd"/><path d="M394.73574,231.4182c-0.18328,-0.10259 -0.31545,-0.30925 -0.47828,-0.24535l5.89819,-20.41161c0.09055,-0.04053 0.31873,-0.11866 0.53413,0.05112z" fill="url(#color-3)" fill-rule="nonzero"/><path d="M400.23157,210.6196l-0.06061,0.14603l-0.43009,0.3107c0.0365,-0.13947 0.36436,-0.37203 0.4655,-0.4425c0.01899,-0.01315 0.02519,-0.01424 0.02519,-0.01424z" fill="#8aa742" fill-rule="evenodd"/><path d="M400.66932,210.79777c-0.22308,-0.13764 -0.42425,-0.07083 -0.51552,-0.0314c0.01424,-0.04344 0.05294,-0.13253 0.05294,-0.13253c0.19387,-0.12267 0.2782,-0.12852 0.45929,-0.04199c0.02337,0.06755 0.03322,0.13253 0.00328,0.20592z" fill="url(#color-4)" fill-rule="nonzero"/><path d="M424.17406,212.28664c0,0 -0.13473,-0.18584 -0.45712,-0.12631c0.02849,-0.07631 0.02849,-0.14786 0.12414,-0.20809c0.19387,-0.02921 0.28807,0.02191 0.32932,0.06171c0.023,0.02263 0.02994,0.04125 0.02994,0.04125c0.02591,0.11391 -0.02628,0.23146 -0.02628,0.23146z" fill="url(#color-5)" fill-rule="evenodd"/><path d="M424.17078,212.01389l0.47646,0.38226c0.02849,0.12778 -0.03285,0.25739 -0.03285,0.25739l-0.47791,-0.38372c0,0 0.05987,-0.14239 0.03432,-0.25593z" fill="url(#color-6)" fill-rule="evenodd"/><path d="M424.63263,212.62946l-5.98982,20.53721l-0.452,-0.39906l5.9555,-20.52479z" fill="#595e48" fill-rule="evenodd"/><path d="M418.75965,233.31527c0.01278,-0.1172 -0.11209,-0.21395 -0.11209,-0.21395l5.97887,-20.49047c0,0 0.09493,0.08543 0.12047,0.14714z" fill="#767e47" fill-rule="evenodd"/><path d="M424.74544,212.76565c0,0 -0.02154,-0.05878 -0.1234,-0.14458c0.04637,-0.19277 0.01569,-0.23146 0.01569,-0.23146l0.00912,0.00621c0,0.00037 0.1497,0.13656 0.09858,0.36985z" fill="url(#color-7)" fill-rule="evenodd"/><path d="M418.55992,233.50659c-3.21944,1.46186 -6.26657,2.21614 -9.0961,2.46296c-4.88613,0.55494 -8.83723,-0.50785 -12.06544,-2.09348c-1.25522,-0.57612 -2.39177,-1.2282 -3.39725,-1.90546l0.0544,-0.0471c1.01936,0.68602 2.13036,1.35635 3.34249,1.95255c3.28005,1.50603 7.37317,2.5002 12.06544,2.09348c2.67253,-0.3023 5.62472,-1.09092 8.892,-2.54001c0.09202,0.07412 0.20445,0.07705 0.20445,0.07705z" fill="#595e48" fill-rule="evenodd"/><path d="M417.90969,233.12541c0,0 -0.23039,-0.20665 -0.18839,-0.50931c0.3096,-0.07924 0.50785,0.11684 0.50785,0.11684c0,0 -0.05696,0.27857 -0.31945,0.39247z" fill="url(#color-8)" fill-rule="nonzero"/><path d="M418.22916,232.73328l0.43301,0.37788c0,0 -0.06646,0.23695 -0.32932,0.35232l-0.43994,-0.37678c0.26361,-0.11537 0.33626,-0.35341 0.33626,-0.35341z" fill="url(#color-9)" fill-rule="evenodd"/><path d="M417.79287,232.6099c-0.04199,0.30304 0.18108,0.52428 0.18108,0.52428c-12.04901,4.98177 -18.25643,2.0482 -23.4715,-1.4845c0.09164,-0.06718 0.10587,-0.06644 0.16539,-0.27893c5.21436,3.53344 13.09612,6.00917 23.12502,1.23916z" fill="url(#color-10)" fill-rule="nonzero"/><path d="M394.05811,231.94467l0.44797,-0.29938c5.21727,3.35891 11.37979,6.26401 23.41602,1.42753l0.43556,0.37825c-11.5565,5.09825 -18.94976,2.25887 -24.29956,-1.5064z" fill="#767e47" fill-rule="evenodd"/><path d="M418.75965,233.31527c-0.05987,0.10989 -0.16467,0.1727 -0.19971,0.19095c-0.00731,0.00438 -0.01206,0.00438 -0.01206,0.00438c0,0 -0.08215,0.01132 -0.19168,-0.05987c0.23549,-0.12852 0.30376,-0.38519 0.30376,-0.38519c0,0 0.1369,0.11428 0.09968,0.24973z" fill="#767e47" fill-rule="evenodd"/><path d="M394.07454,231.93885l-0.05366,0.04418c0,0 -0.29354,-0.15846 -0.18108,-0.48121c0.02628,0.31727 0.23476,0.43703 0.23476,0.43703z" fill="#767e47" fill-rule="evenodd"/><path d="M393.83941,231.50182l0.43228,-0.34173c-0.02519,0.32932 0.25958,0.46624 0.25958,0.46624l-0.43959,0.33808c0,0 -0.27711,-0.13253 -0.25229,-0.46259z" fill="url(#color-11)" fill-rule="nonzero"/><path d="M394.26221,231.16009c0.14786,-0.04491 0.28149,0.10844 0.46259,0.24899c-0.05878,0.21321 -0.11062,0.17671 -0.20226,0.24463c-0.10734,-0.06425 -0.2877,-0.22271 -0.26032,-0.49362z" fill="url(#color-12)" fill-rule="nonzero"/><path d="M417.73591,232.65626l5.96281,-20.51457c0.32238,-0.05952 0.47646,0.12303 0.47646,0.12303l-5.94564,20.46857c-0.00037,0 -0.2384,-0.18255 -0.49362,-0.07705z" fill="url(#color-13)" fill-rule="nonzero"/><g fill="none" fill-rule="nonzero" font-family="sans-serif" font-weight="normal" font-size="12" text-anchor="start"/></g><path d="M417.79432,232.67488c-11.55795,5.17419 -17.85445,2.26909 -23.06989,-1.26433l5.94308,-20.61424c5.22056,3.51335 11.01286,6.3133 23.05968,1.33262z" fill="url(#color-14)" fill-rule="nonzero"/></g><g><g><path d="M362.00821,252.74841c0.03943,0.00584 0.11209,-0.02849 0.11209,-0.02849c0.08361,0.05696 0.15005,0.09712 0.15005,0.09712c0,0 -0.13071,0.03103 -0.26214,-0.06865z" fill="#313c7e" fill-rule="evenodd"/><path d="M384.35596,253.80355c0,0 0.07994,0.07411 0.17196,0.04855l-0.36108,0.21395c-0.11537,0.05147 -0.23404,-0.02994 -0.23404,-0.02994z" fill="#313c7e" fill-rule="nonzero"/><path d="M362.12506,252.7225c0,0 -0.07046,0.03577 -0.11025,0.02993l-0.39613,-0.3023l-0.00912,-0.0084c0.05733,0.02007 0.1234,0.00985 0.15005,0.00438z" fill="#313c7e" fill-rule="nonzero"/><path d="M384.5586,253.50856c0.04127,0.02994 0.08471,0.0628 0.12559,0.1453c-0.023,0.10844 -0.11353,0.16393 -0.16465,0.20409c-0.07375,0.01716 -0.17708,-0.05294 -0.17708,-0.05294c0.05769,-0.04856 0.15627,-0.11828 0.21614,-0.29645z" fill="#2e499e" fill-rule="nonzero"/><g fill="#2e499e" fill-rule="evenodd"><g><path d="M367.38394,231.67303v-0.00657h0.1183v0.00657z"/></g></g><path d="M361.58727,252.18362l-0.06718,-0.01716l5.8646,-20.51566l0.06608,0.01862z" fill="#2e499e" fill-rule="evenodd"/><path d="M361.61867,252.45012c-0.07594,-0.06572 -0.12852,-0.17817 -0.09894,-0.28369l0.07046,-0.02702c-0.02957,0.15262 0.08252,0.26251 0.1643,0.3096c0.00074,-0.00037 -0.05915,0.02957 -0.13583,0.0011z" fill="#2e499e" fill-rule="evenodd"/><path d="M384.35231,253.81779c-5.23261,-3.52139 -10.65543,-6.21106 -22.59017,-1.36182c-0.08215,-0.04856 -0.20702,-0.16539 -0.1778,-0.31947c12.11838,-5.15849 17.74857,-2.14495 22.98118,1.37753c-0.0533,0.18693 -0.15553,0.25666 -0.21321,0.30376z" fill="url(#color-15)" fill-rule="nonzero"/><path d="M362.10133,252.70679c11.48749,-4.49108 16.63648,-2.04528 21.86654,1.32203c-3.13255,-2.01645 -6.35638,-3.63091 -10.80475,-3.65829c-2.97702,-0.01716 -6.49548,0.7386 -10.89858,2.4458c0,0.00037 -0.09091,-0.03396 -0.16321,-0.10953z" fill="#313c7e" fill-rule="evenodd"/><path d="M384.35852,253.81633l-0.42315,0.22087c-5.23005,-3.36731 -10.52327,-5.69481 -21.80995,-1.31509l-0.37313,-0.27236c11.93473,-4.84999 17.37399,-2.15591 22.60623,1.36657z" fill="#2e499e" fill-rule="evenodd"/><path d="M384.55492,253.51986l6.034,-20.65258c0.06462,0.04491 0.09894,0.07996 0.13252,0.1183l-6.03947,20.67814c-0.03396,-0.0869 -0.12705,-0.14384 -0.12705,-0.14384z" fill="#313c7e" fill-rule="evenodd"/><path d="M390.58637,232.87715c-5.22749,-3.54292 -11.12348,-6.10738 -23.14839,-1.19935c0.02994,-0.10259 0.0544,-0.15115 0.0544,-0.15115c12.07785,-4.99383 17.91032,-2.34247 23.13745,1.20082z" fill="#3f87c7" fill-rule="evenodd"/><g fill-rule="nonzero"><g clip-path="url(#clip-1)"><g><path d="M384.56444,253.56988c-5.23224,-3.52139 -10.92011,-6.41772 -22.99542,-1.42462l5.91278,-20.65258c12.07785,-4.99383 17.88002,-2.16796 23.10715,1.37497z" fill="url(#color-16)"/><path d="M384.56444,253.56988c-5.23224,-3.52139 -10.92011,-6.41772 -22.99542,-1.42462l5.91278,-20.65258c12.07785,-4.99383 17.88002,-2.16796 23.10715,1.37497z" fill="none"/></g></g></g><path d="M390.628,232.726l0.00985,0.00584c0.07449,0.05294 0.10478,0.15553 0.08361,0.25374l-0.00438,0.01278c-0.03322,-0.03797 -0.06791,-0.07412 -0.13217,-0.11902z" fill="#313c7e" fill-rule="evenodd"/></g><path d="M367.45003,231.67303l-0.06608,-0.01934c0.02519,-0.0869 0.08469,-0.11683 0.10843,-0.12705l0.00985,-0.00293c0.00037,0 -0.02191,0.04563 -0.05221,0.14933z" fill="url(#color-17)" fill-rule="evenodd"/></g><g><path d="M390.98033,229.6011c-4.90548,-3.23113 -10.73903,-5.70468 -21.92094,-1.13474l-0.41841,-0.29536c10.23337,-5.08547 17.12426,-2.63529 22.74606,1.26617z" fill="#d75329" fill-rule="evenodd"/><path d="M391.58419,229.13449l5.94017,-20.50909c0.06425,0.04381 0.09565,0.08616 0.12961,0.12414l-5.94272,20.52662c-0.03396,-0.08616 -0.12705,-0.14165 -0.12705,-0.14165z" fill="#ab4533" fill-rule="evenodd"/><path d="M369.06304,228.45981c1.9029,-0.78058 3.66525,-1.36 5.30052,-1.7576c0.3965,-0.09602 0.74882,-0.18292 1.16723,-0.2636c0.38519,-0.07666 0.76561,-0.15152 1.13765,-0.20629c0.58306,-0.08909 1.1486,-0.16248 1.69917,-0.20483c0.47099,-0.03724 0.92918,-0.06462 1.37788,-0.06863c0.43373,-0.00512 0.85762,0.00074 1.27164,0.02446c0.36876,0.02118 0.72946,0.04783 1.08471,0.08981c0.30011,0.03505 0.59365,0.07193 0.88391,0.12194c0.613,0.10515 1.20518,0.23439 1.77767,0.39687c2.31181,0.65389 4.36512,1.76854 6.25305,3.0274c-0.01241,0.00584 -0.05768,-0.01315 -0.0774,-0.02374c-0.01825,-0.00876 -0.02665,-0.00949 -0.04272,-0.02044c-2.5524,-1.61812 -5.29467,-3.02521 -8.67841,-3.44033c-3.46333,-0.42571 -7.49913,0.1705 -12.93657,2.3286c0,0 -0.12669,0.05366 -0.17489,0.06243c-0.04344,0.00694 -0.03543,-0.02628 -0.04344,-0.06608z" fill="#ab4533" fill-rule="evenodd"/><path d="M391.37755,229.43353c0,0 0.08068,0.05659 0.17196,0.03578l-0.37495,0.16539c-0.10114,0.02957 -0.22124,-0.03285 -0.22124,-0.03285z" fill="#ab4533" fill-rule="nonzero"/><path d="M369.06814,228.46346c0,0 0.023,0.03832 0.03834,0.06316c-0.03687,0.00512 -0.04125,0.0146 -0.13217,-0.02591c-0.01206,-0.00475 -0.0303,-0.01971 -0.04528,-0.02628l-0.3881,-0.30523l-0.03504,-0.02884c0.05294,-0.00365 0.09346,0.02191 0.12012,0.01679z" fill="#ab4533" fill-rule="nonzero"/><path d="M391.58822,229.13524c0.04162,0.02775 0.09128,0.04418 0.12596,0.13033c-0.023,0.10917 -0.11574,0.16393 -0.16758,0.2041c-0.09202,0.02591 -0.18292,-0.04491 -0.18292,-0.04491c0.05805,-0.04637 0.16467,-0.11209 0.22454,-0.28952z" fill="#d75329" fill-rule="nonzero"/><path d="M397.56417,208.49216l0.00729,0.00438c0.07338,0.05258 0.10406,0.15553 0.08289,0.25301l-0.00365,0.01315c-0.03432,-0.03834 -0.05622,-0.07631 -0.1234,-0.12705z" fill="#d75329" fill-rule="evenodd"/><path d="M368.51393,228.1513c-0.05622,-0.04418 -0.11281,-0.21687 -0.08361,-0.32202l0.07886,-0.02738c-0.02921,0.15225 0.06499,0.32567 0.14677,0.37276c0.00037,0 -0.05732,0.0325 -0.14203,-0.02337z" fill="#d75329" fill-rule="evenodd"/><g><g clip-path="url(#clip-2)"><path d="M374.38052,207.12881v-0.00876h0.11866v0.00876z" fill="#faaa4f" fill-rule="evenodd"/></g><g clip-path="url(#clip-3)"><path d="M374.38052,207.13867v-0.00985h0.11866v0.00985z" fill="#f6a34c" fill-rule="evenodd"/></g><g clip-path="url(#clip-4)"><path d="M374.38052,207.14743v-0.00876h0.11866v0.00876z" fill="#f39d48" fill-rule="evenodd"/></g><g clip-path="url(#clip-5)"><path d="M374.38052,207.15765v-0.00985h0.11866v0.00985z" fill="#f09745" fill-rule="evenodd"/></g><g clip-path="url(#clip-6)"><path d="M374.38052,207.16677v-0.00912h0.11866v0.00912z" fill="#ed9142" fill-rule="evenodd"/></g><g clip-path="url(#clip-7)"><path d="M374.38052,207.17554v-0.00876h0.11866v0.00876z" fill="#eb8c3f" fill-rule="evenodd"/></g><g clip-path="url(#clip-8)"><path d="M374.38052,207.18504v-0.00913h0.11866v0.00913z" fill="#e8863c" fill-rule="evenodd"/></g><g clip-path="url(#clip-9)"><path d="M374.38052,207.1938v-0.00876h0.11866v0.00876z" fill="#e68139" fill-rule="evenodd"/></g><g clip-path="url(#clip-10)"><path d="M374.38052,207.20329v-0.00912h0.11866v0.00912z" fill="#e57b37" fill-rule="evenodd"/></g><g clip-path="url(#clip-11)"><path d="M374.38052,207.21242v-0.00913h0.11866v0.00913z" fill="#e27634" fill-rule="evenodd"/></g><g clip-path="url(#clip-12)"><path d="M374.38052,207.22191v-0.0095h0.11866v0.0095z" fill="#e07132" fill-rule="evenodd"/></g><g clip-path="url(#clip-13)"><path d="M374.38052,207.23141v-0.00913h0.11866v0.00913z" fill="#df6b30" fill-rule="evenodd"/></g><g clip-path="url(#clip-14)"><path d="M374.38052,207.24014v-0.00876h0.11866v0.00876z" fill="#dc662e" fill-rule="evenodd"/></g><g clip-path="url(#clip-15)"><path d="M374.38052,207.25039v-0.00985h0.11866v0.00985z" fill="#db602c" fill-rule="evenodd"/></g><g clip-path="url(#clip-16)"><path d="M374.38052,207.25913v-0.00876h0.11866v0.00876z" fill="#d95a2a" fill-rule="evenodd"/></g><g clip-path="url(#clip-17)"><path d="M374.38052,207.269v-0.00985h0.11866v0.00985z" fill="#d75329" fill-rule="evenodd"/></g></g><path d="M391.37609,229.43499c-3.21798,-2.1037 -6.23042,-3.84524 -11.00045,-3.98251c-3.48817,0.069 -6.16215,0.51333 -11.72444,2.72254c-0.08215,-0.04674 -0.1862,-0.1632 -0.15736,-0.31617c4.81603,-2.05077 8.63935,-2.9354 11.81243,-2.90437c4.80471,0.04783 8.13551,2.05806 11.28486,4.17673c-0.0533,0.18548 -0.15699,0.25667 -0.21504,0.30376z" fill="url(#color-18)" fill-rule="nonzero"/><path d="M374.38326,207.24717l0.05513,0.01752l-5.93104,20.58722c-0.01352,-0.00584 -0.07666,-0.02263 -0.07666,-0.02263z" fill="#d75329" fill-rule="evenodd"/><path d="M397.52546,208.64915c-5.22384,-3.53964 -11.07638,-6.27277 -23.0929,-1.3684c0.03068,-0.10296 0.05768,-0.15773 0.05768,-0.15773c12.06982,-4.98982 17.85592,-2.1676 23.08086,1.37351z" fill="#f89c3e" fill-rule="evenodd"/><path d="M391.59296,229.1389c-3.15008,-2.12123 -6.53784,-4.10116 -11.34912,-4.13767c-3.17454,-0.02446 -6.95332,0.87734 -11.75036,2.86091l5.94492,-20.59964c12.06982,-4.99054 17.86723,-2.16613 23.09071,1.37423z" fill="url(#color-19)" fill-rule="nonzero"/></g><g><path d="M411.89285,257.43337c-0.05841,0.10844 -0.16393,0.1727 -0.19898,0.19095c-0.00766,0.00438 -0.01278,0.00438 -0.01278,0.00438c0,0 -0.1004,0.01278 -0.19167,-0.05987c0.23549,-0.12852 0.30523,-0.38663 0.30523,-0.38663c0,0 0.13583,0.11574 0.09821,0.25119z" fill="url(#color-20)" fill-rule="evenodd"/><path d="M411.89285,257.43337c0.01424,-0.11683 -0.11136,-0.2154 -0.11136,-0.2154l5.72037,-19.93917c0,0 0.09566,0.08397 0.12194,0.14677z" fill="#d4a52e" fill-rule="evenodd"/><path d="M417.62016,237.43396c0,0 -0.01863,-0.05696 -0.12121,-0.14275c0.0471,-0.19387 0.01425,-0.23549 0.01425,-0.23549l0.00912,0.00584c0.00037,0.00037 0.15078,0.13874 0.09784,0.37239z" fill="url(#color-21)" fill-rule="evenodd"/><path d="M417.04986,236.95347c0,0 -0.15846,-0.1924 -0.48047,-0.13252c0.01716,-0.07265 0.04418,-0.16101 0.14677,-0.20262c0.19459,-0.02994 0.28807,0.02154 0.32932,0.06134c0.02337,0.0241 0.02994,0.04127 0.02994,0.04127c0.02556,0.11427 -0.02556,0.23257 -0.02556,0.23257z" fill="url(#color-22)" fill-rule="evenodd"/><path d="M417.04549,236.67966l0.47718,0.38226c0.02775,0.12961 -0.02337,0.25813 -0.02337,0.25813l-0.475,-0.38079c-0.00037,0 0.04674,-0.14568 0.02118,-0.25958z" fill="url(#color-23)" fill-rule="evenodd"/><path d="M417.02213,236.90931l0.48559,0.38773l-5.71344,19.93225l-0.02263,0.0544l-0.50128,-0.43228z" fill="#a87c3c" fill-rule="evenodd"/><path d="M410.98849,257.2092c0,0 -0.22965,-0.20555 -0.18839,-0.50931c0.3096,-0.0785 0.50931,0.11683 0.50931,0.11683c0,0 -0.05696,0.27711 -0.32092,0.39248z" fill="url(#color-24)" fill-rule="nonzero"/><path d="M416.58912,236.84066c-12.11254,4.12598 -17.68578,1.66011 -22.91144,-1.8569c0.01241,-0.0471 0.04454,-0.12414 0.00913,-0.21102c5.22566,3.51701 11.00519,5.91863 23.02901,1.84557c-0.09091,0.0628 -0.10261,0.14822 -0.1267,0.22235z" fill="#ffcd02" fill-rule="nonzero"/><path d="M393.1943,234.92682l-5.84926,20.34589l-0.45418,0.35925l0.00109,-0.04855l5.87263,-20.34407z" fill="#d4a52e" fill-rule="evenodd"/><path d="M387.84265,255.36947c-0.17051,-0.10114 -0.36913,-0.17817 -0.53196,-0.11281l5.8646,-20.32142c0.09128,-0.03834 0.30814,-0.09858 0.53049,0.05696z" fill="url(#color-25)" fill-rule="nonzero"/><path d="M410.81471,256.74151l5.75324,-19.92785c0.01059,-0.00293 0.02482,-0.01716 0.03431,-0.01863c0.30595,-0.0314 0.44798,0.13106 0.44798,0.13106l-5.73755,19.89645c-0.00037,0.00037 -0.24279,-0.18802 -0.498,-0.08105z" fill="url(#color-26)" fill-rule="nonzero"/><path d="M411.69387,257.62432c-11.82776,5.05589 -19.41453,1.94671 -24.64019,-1.57176l0.05477,-0.04563c5.22566,3.51701 13.26734,6.44619 24.38061,1.54036c0.09202,0.07265 0.20483,0.07703 0.20483,0.07703z" fill="#a87c3c" fill-rule="evenodd"/><path d="M411.30869,256.82l0.48703,0.40928c0,0 -0.06571,0.23658 -0.32932,0.35232l-0.49471,-0.41073c0.26361,-0.11537 0.33698,-0.35086 0.33698,-0.35086z" fill="url(#color-27)" fill-rule="evenodd"/><path d="M410.87168,256.69441c-0.04127,0.30376 0.18181,0.52356 0.18181,0.52356c-12.06179,4.98872 -18.23927,1.99818 -23.4602,-1.54036c0.09202,-0.06718 0.1369,-0.12559 0.1957,-0.33661c0.00766,0.00438 0.08068,-0.00729 0.08799,-0.00291c5.38923,3.31875 12.28706,5.94163 22.9947,1.35635z" fill="url(#color-28)" fill-rule="nonzero"/><path d="M387.11062,256.027l0.48266,-0.34939c4.789,2.98651 11.501,6.25817 23.40799,1.48049l0.49215,0.41073c-11.06726,4.90182 -19.15713,1.97665 -24.3828,-1.54181z" fill="#c19236" fill-rule="evenodd"/><path d="M387.15153,256.04271l-0.05477,0.03834c0,0 -0.31764,-0.17524 -0.20483,-0.49762c0.02591,0.31801 0.25958,0.45929 0.25958,0.45929z" fill="#d4a52e" fill-rule="evenodd"/><path d="M386.89195,255.58341l0.45346,-0.37094c-0.02484,0.33225 0.29683,0.45491 0.29683,0.45491l-0.49799,0.38081c0.00037,0.00037 -0.27748,-0.13362 -0.25229,-0.46476z" fill="url(#color-29)" fill-rule="nonzero"/><path d="M387.31179,255.22561c0.16248,-0.06572 0.31472,0.01132 0.48596,0.11136c-0.05952,0.21249 -0.09528,0.2866 -0.1873,0.35379c-0.10734,-0.06425 -0.32603,-0.1957 -0.29866,-0.46513z" fill="url(#color-30)" fill-rule="nonzero"/><g fill-rule="nonzero"><g clip-path="url(#clip-18)"><path d="M393.72295,234.85416c5.22566,3.51846 11.03038,6.32096 23.08998,1.33626l-5.94419,20.531c-12.06179,4.98872 -17.85446,2.16358 -23.07465,-1.37643z" fill="url(#color-31)"/></g><g clip-path="url(#clip-19)" fill="none"><path d="M393.72295,234.85416c5.22566,3.51846 11.03038,6.32096 23.08998,1.33626l-5.94419,20.531c-12.06179,4.98872 -17.85446,2.16358 -23.07465,-1.37643z"/></g></g><path d="M393.25087,234.79867l-0.06206,0.1453l-0.43009,0.31107c0.02775,-0.12961 0.35925,-0.36948 0.46148,-0.44068c0.01352,-0.01022 0.03066,-0.01569 0.03066,-0.01569z" fill="#ffcd02" fill-rule="evenodd"/><path d="M393.689,234.98268c-0.23988,-0.13984 -0.43557,-0.0555 -0.52684,-0.01571c0.01424,-0.04418 0.06353,-0.15553 0.06353,-0.15553c0.19424,-0.12414 0.28258,-0.12414 0.46404,-0.03724c0.03505,0.0858 0.01206,0.15408 -0.00074,0.20848z" fill="url(#color-32)" fill-rule="nonzero"/></g></g><text transform="translate(413.78987,257.48643) scale(0.15544,0.15544)" font-size="40" xml:space="preserve" fill="#ffffff" fill-rule="nonzero" stroke="none" stroke-width="1" stroke-linecap="butt" stroke-linejoin="miter" stroke-miterlimit="10" stroke-dasharray="" stroke-dashoffset="0" font-family="&quot;ヒラギノ角ゴ Pro W3&quot;, &quot;Hiragino Kaku Gothic Pro&quot;, Osaka, &quot;メイリオ&quot;, Meiryo, &quot;ＭＳ Ｐゴシック&quot;, &quot;MS PGothic&quot;" font-weight="normal" text-anchor="start" style="mix-blend-mode: normal"><tspan x="0" dy="0">TM</tspan></text><text transform="translate(312.2792,259.2236) scale(0.2432,0.2432)" font-size="40" xml:space="preserve" fill="#ffffff" fill-rule="nonzero" stroke="none" stroke-width="1" stroke-linecap="butt" stroke-linejoin="miter" stroke-miterlimit="10" stroke-dasharray="" stroke-dashoffset="0" font-family="&quot;ヒラギノ角ゴ Pro W3&quot;, &quot;Hiragino Kaku Gothic Pro&quot;, Osaka, &quot;メイリオ&quot;, Meiryo, &quot;ＭＳ Ｐゴシック&quot;, &quot;MS PGothic&quot;" font-weight="normal" text-anchor="start" style="mix-blend-mode: normal"><tspan x="0" dy="0">Microsoft</tspan></text><text transform="translate(310.67855,280.46273) scale(0.65603,0.65603)" font-size="40" xml:space="preserve" fill="#ffffff" fill-rule="nonzero" stroke="none" stroke-width="1" stroke-linecap="butt" stroke-linejoin="miter" stroke-miterlimit="10" stroke-dasharray="" stroke-dashoffset="0" font-family="&quot;ヒラギノ角ゴ Pro W3&quot;, &quot;Hiragino Kaku Gothic Pro&quot;, Osaka, &quot;メイリオ&quot;, Meiryo, &quot;ＭＳ Ｐゴシック&quot;, &quot;MS PGothic&quot;" font-weight="normal" text-anchor="start" style="mix-blend-mode: normal"><tspan x="0" dy="0">Windows</tspan></text><text transform="translate(317.42922,296.1393) scale(0.37647,0.37647)" font-size="40" xml:space="preserve" fill="#ffffff" fill-rule="nonzero" stroke="none" stroke-width="1" stroke-linecap="butt" stroke-linejoin="miter" stroke-miterlimit="10" stroke-dasharray="" stroke-dashoffset="0" font-family="&quot;ヒラギノ角ゴ Pro W3&quot;, &quot;Hiragino Kaku Gothic Pro&quot;, Osaka, &quot;メイリオ&quot;, Meiryo, &quot;ＭＳ Ｐゴシック&quot;, &quot;MS PGothic&quot;" font-weight="normal" text-anchor="start" style="mix-blend-mode: normal"><tspan x="0" dy="0">Professional</tspan></text><text transform="translate(427.06595,270.65295) scale(0.43329,0.43329)" font-size="40" xml:space="preserve" fill="#c95b52" fill-rule="nonzero" stroke="none" stroke-width="1" stroke-linecap="butt" stroke-linejoin="miter" stroke-miterlimit="10" stroke-dasharray="" stroke-dashoffset="0" font-family="&quot;ヒラギノ角ゴ Pro W3&quot;, &quot;Hiragino Kaku Gothic Pro&quot;, Osaka, &quot;メイリオ&quot;, Meiryo, &quot;ＭＳ Ｐゴシック&quot;, &quot;MS PGothic&quot;" font-weight="normal" text-anchor="start" style="mix-blend-mode: normal"><tspan x="0" dy="0">xp</tspan></text></g></g></svg>