<svg version="1.1" xmlns="http://www.w3.org/2000/svg" xmlns:xlink="http://www.w3.org/1999/xlink" width="189.34005" height="142.76025" viewBox="0,0,189.34005,142.76025"><g transform="translate(-146.25107,-122.5)"><g data-paper-data="{&quot;isPaintingLayer&quot;:true}" fill="none" fill-rule="nonzero" stroke="none" stroke-width="none" stroke-linecap="none" stroke-linejoin="miter" stroke-miterlimit="10" stroke-dasharray="" stroke-dashoffset="0" font-family="none" font-weight="none" font-size="none" text-anchor="none" style="mix-blend-mode: normal"><g data-paper-data="{&quot;origPos&quot;:null,&quot;index&quot;:null,&quot;origRot&quot;:0}" stroke="none" stroke-width="0" stroke-linecap="butt"><path d="M245.8626,168.59694c4.48364,2.85553 3.64316,13.40939 -1.58579,21.61971c-5.22896,8.21031 -11.42556,15.23389 -11.42556,15.23389l-13.55337,-8.41482c0,0 6.60564,-13.83969 10.81133,-20.44333c5.22895,-8.2103 11.26975,-10.85099 15.7534,-7.99547z" data-paper-data="{&quot;origRot&quot;:0,&quot;origPos&quot;:null}" fill="#64ca00"/><g data-paper-data="{&quot;origPos&quot;:null}" fill="#ffffff"><path d="M222.70715,205.04421c8.14198,4.67532 17.95625,10.9117 12.53494,19.19146c-3.93296,6.00665 -17.52549,9.76615 -24.42216,3.39541c-7.52584,-6.95192 -15.34878,-11.94518 -8.41228,-20.62887c6.47684,-8.10825 12.15753,-6.63333 20.2995,-1.958z" data-paper-data="{&quot;origRot&quot;:0,&quot;origPos&quot;:null}"/><path d="M227.70944,198.89935c6.28132,3.61789 14.15358,6.52058 10.99375,11.11794c-3.53489,5.14305 -4.98417,3.87959 -15.10271,-2.28619c-11.52689,-7.02399 -14.56741,-5.99898 -10.96724,-11.82454c2.10224,-3.40174 8.79487,-0.62508 15.07621,2.99281z" data-paper-data="{&quot;origRot&quot;:0,&quot;origPos&quot;:null}"/></g></g><g data-paper-data="{&quot;origPos&quot;:null,&quot;origRot&quot;:0}" stroke="none" stroke-width="0" stroke-linecap="butt"><path d="M306.52904,166.85928c4.56914,-0.03718 6.59516,-5.10886 7.61157,-4.90073c4.11243,0.84209 6.93973,2.9461 8.56919,9.90396c2.01844,8.61885 1.14123,15.27494 -3.69127,22.69151c-3.29135,5.05133 -5.71298,0.36247 -11.31057,-1.87721c-2.00857,-0.80367 -4.65435,-1.45298 -10.03856,-2.20462c-6.73167,-0.93975 -18.87683,-5.15177 -18.87683,-5.15177c0,0 -0.56211,-5.36445 -0.39606,-10.6256c0.21922,-5.20177 2.5936,-10.27793 2.5936,-10.27793c0,0 14.97684,2.52835 25.53893,2.44239z" data-paper-data="{&quot;origPos&quot;:null}" fill="#2a2a84"/><path d="M329.03587,160.7356c3.89427,0.18161 5.54427,4.22991 6.40227,8.03282c0.56227,2.49221 -0.34353,14.41004 -4.08833,20.17032c-1.1626,1.78831 -3.67683,3.16743 -3.67683,3.16743c0,0 0.52407,5.06665 -0.93042,4.98434c-1.1546,-0.06533 -3.12297,-0.128 -3.67025,-1.27525c-2.35577,-4.93834 -1.8174,-16.35035 -1.5625,-21.81586c0.34991,-7.50292 3.71943,-13.44132 7.52608,-13.2638z" data-paper-data="{&quot;origPos&quot;:null}" fill="#f9c869"/><path d="M324.23186,158.62503c4.49463,1.57762 7.54008,6.2917 7.14451,14.77387c-0.39557,8.48217 -5.7384,17.32649 -5.7384,17.32649c0,0 0.03691,6.15582 -1.5444,6.20659c-3.27288,0.10506 -8.59623,-0.08434 -8.71264,-1.32669c-0.42974,-4.58635 0.14703,-3.69724 -0.849,-9.71479c-0.64488,-3.89607 -4.02043,-10.51235 -3.83646,-14.45715c0.39557,-8.48217 6.13591,-15.40588 13.53637,-12.8083z" data-paper-data="{&quot;origPos&quot;:null}" fill="#8e4108"/></g><g data-paper-data="{&quot;origPos&quot;:null,&quot;origRot&quot;:0}" stroke="none" stroke-width="0" stroke-linecap="butt"><path d="M306.49485,194.3771c4.48637,0.8665 7.4747,-3.70476 8.42994,-3.29987c3.8649,1.63819 6.22065,4.25944 6.44293,11.4021c0.27536,8.84776 -1.89995,15.19922 -8.10281,21.51452c-4.2247,4.30127 -5.67195,-0.7737 -10.71653,-4.07541c-1.81013,-1.18474 -4.27541,-2.34412 -9.40489,-4.14497c-6.41319,-2.25154 -17.54664,-9.56893 -17.54664,-9.56893c0,0 1.78353,-7.36996 3.89526,-12.00895c1.66654,-3.66103 5.78612,-9.25884 5.78612,-9.25884c0,0 10.84584,7.43731 21.21663,9.44036z" data-paper-data="{&quot;origPos&quot;:null}" fill="#2a2a84"/><path d="M329.768,192.82204c3.78157,0.94763 4.59898,5.24217 4.68853,9.13963c0.05867,2.55418 -3.1845,14.05797 -7.9938,18.96459c-1.49308,1.52328 -4.23028,2.37833 -4.23028,2.37833c0,0 -0.48757,5.0703 -1.89711,4.70217c-1.1189,-0.29222 -3.03607,-0.74265 -3.34584,-1.97543c-1.33339,-5.3065 1.44966,-16.38703 2.77963,-21.69438c1.82575,-7.2858 6.30239,-12.44119 9.99887,-11.51489z" data-paper-data="{&quot;origPos&quot;:null}" fill="#f9c869"/><path d="M325.4758,189.80372c4.0942,2.43473 6.148,7.65771 4.08396,15.89441c-2.06404,8.23671 -9.04933,15.85075 -9.04933,15.85075c0,0 -1.18035,6.0417 -2.7405,5.77897c-3.22909,-0.5438 -8.41003,-1.78149 -8.27862,-3.02233c0.48511,-4.58083 0.87479,-3.59527 1.08761,-9.69098c0.13779,-3.94667 -1.86367,-11.09956 -0.90375,-14.9302c2.06404,-8.23671 9.05945,-13.88946 15.80063,-9.88061z" data-paper-data="{&quot;origPos&quot;:null}" fill="#8e4108"/></g><g data-paper-data="{&quot;origPos&quot;:null,&quot;origRot&quot;:0}"><path d="M257.01984,163.77671c22.42406,-6.58299 31.93026,2.77831 35.41487,15.31092c3.48461,12.53261 -4.3181,25.82498 -15.12345,28.82933c-11.722,3.25922 -21.3558,4.76572 -30.76744,-0.1762c-7.01195,-3.68187 -6.508,-11.93867 -8.3924,-18.71607c-3.48461,-12.53261 -3.11216,-18.79519 18.86844,-25.24798z" data-paper-data="{&quot;origPos&quot;:null}" fill="#2a2a84" stroke="none" stroke-width="0" stroke-linecap="butt"/><path d="M256.38187,163.9541c0,0 6.08293,13.63788 9.29728,23.55057c2.94832,9.09232 1.52408,19.4891 1.52408,19.4891c0,0 -14.44264,4.89262 -21.97546,-0.09898c-4.92849,-3.26586 -7.49631,-7.76581 -9.41737,-13.93003c-1.92106,-6.16422 -1.3342,-13.6115 1.06309,-17.65005c5.66269,-9.53951 19.50837,-11.36062 19.50837,-11.36062z" data-paper-data="{&quot;origPos&quot;:null}" fill="#64ca00" stroke="none" stroke-width="0" stroke-linecap="butt"/><path d="M237.12425,181.65823c0,0 6.78225,-3.78841 11.05646,-5.36065c5.4899,-2.01943 16.30428,-4.01772 16.30428,-4.01772" data-paper-data="{&quot;origPos&quot;:null,&quot;origRot&quot;:0}" fill="none" stroke="#2a2a84" stroke-width="10" stroke-linecap="round"/><path d="M242.59976,199.25554c0,0 7.22167,-3.11013 11.64114,-4.2478c5.67647,-1.46128 16.53864,-2.34284 16.53864,-2.34284" data-paper-data="{&quot;origPos&quot;:null}" fill="none" stroke="#2a2a84" stroke-width="10" stroke-linecap="round"/><path d="M269.53935,196.03222c-2.40771,0.66944 -4.8682,-0.61721 -5.49564,-2.87387c-0.62743,-2.25664 0.81576,-4.62873 3.22347,-5.29816c2.40771,-0.66944 4.86818,0.61723 5.49563,2.87389c0.62743,2.25664 -0.81574,4.6287 -3.22346,5.29815z" data-paper-data="{&quot;origPos&quot;:null}" fill="#ffe84f" stroke="none" stroke-width="0" stroke-linecap="butt"/><path d="M264.08387,176.41127c-2.40771,0.66944 -4.85069,-0.5543 -5.45655,-2.73332c-0.60586,-2.17901 0.85484,-4.48816 3.26254,-5.15759c2.40771,-0.66943 4.85069,0.55432 5.45655,2.73332c0.60586,2.17901 -0.85483,4.48815 -3.26254,5.1576z" data-paper-data="{&quot;origPos&quot;:null}" fill="#ffe84f" stroke="none" stroke-width="0" stroke-linecap="butt"/></g><g data-paper-data="{&quot;origPos&quot;:null,&quot;origRot&quot;:0}" stroke="none" stroke-width="0" stroke-linecap="butt"><path d="M258.76846,215.4166c-1.85586,7.60603 -7.27375,21.95239 -7.27375,21.95239l-15.45408,-3.95914c0,0 0.78106,-9.33373 3.08845,-18.79032c2.30738,-9.45659 9.34359,-17.36752 14.50781,-16.10746c5.16424,1.26006 7.43895,7.44797 5.13157,16.90455z" data-paper-data="{&quot;origRot&quot;:0,&quot;origPos&quot;:null}" fill="#64ca00"/><g data-paper-data="{&quot;origPos&quot;:null}" fill="#ffffff"><path d="M255.99036,256.45823c-1.46729,11.01674 -10.48565,8.82585 -20.7122,8.20498c-9.37159,-0.56895 -16.06521,-12.98209 -14.45151,-19.9781c2.22437,-9.6435 13.51822,-6.87559 22.5279,-4.23438c9.00968,2.64121 14.00587,5.7208 12.63581,16.00749z" data-paper-data="{&quot;origRot&quot;:0,&quot;origPos&quot;:null}"/><path d="M256.92228,241.39808c-1.71331,6.63047 -3.07778,3.72639 -16.1254,0.26741c-11.45347,-3.03637 -13.3685,-3.20806 -12.10265,-9.31902c1.13154,-5.46259 8.67505,-1.78925 15.63372,0.24076c6.95868,2.03001 13.5948,4.93913 12.59433,8.81085z" data-paper-data="{&quot;origRot&quot;:0,&quot;origPos&quot;:null}"/></g></g><path d="M183.89179,144.66854c3.81005,0.44171 8.98993,11.59797 9.28566,20.50308c0.23831,7.17574 -6.57195,5.62124 -10.21504,5.74222c-3.64308,0.12099 -3.31545,-13.96795 -3.55376,-21.14369c-0.23831,-7.17574 2.01693,-5.38752 4.48314,-5.10162z" data-paper-data="{&quot;origPos&quot;:null,&quot;origRot&quot;:0}" fill="#346a00" stroke="none" stroke-width="0" stroke-linecap="butt"/><path d="M230.18018,214.82734c0,0 1.53992,1.38293 -0.15146,3.02729c-1.69138,1.64437 -5.68633,2.92767 -7.68869,0.69515c-2.39502,-2.67032 -10.11998,-1.70044 -8.4286,-3.34482c0,0 1.10018,-6.13702 4.77376,-6.72983c0,0 10.5684,-2.92405 12.30743,-1.9274c0,0 1.73506,1.4452 1.58517,5.36823c-0.08121,2.12556 -2.39762,2.91138 -2.39762,2.91138z" data-paper-data="{&quot;origRot&quot;:0,&quot;origPos&quot;:null}" fill="#5a2c0a" stroke="none" stroke-width="0" stroke-linecap="butt"/><path d="M188.44476,212.97172c0.86336,-4.34501 -3.4032,-37.15052 -3.27368,-42.9518c0.19164,-8.58291 8.00323,-6.47126 16.54214,-7.36026c9.8179,-1.02215 21.28321,0.908 28.07102,-0.06475c7.28042,-1.04335 11.1304,-0.49876 14.83582,5.24363c1.49066,16.02549 -2.21955,13.31693 -4.39834,20.77812c-2.09465,6.32766 -3.80712,10.82251 -9.25577,17.72458c-4.13604,5.23934 -7.74379,4.15611 -12.44274,7.48915c-1.4404,1.0217 -2.1877,2.20129 -2.18124,2.39572c0.34421,10.36471 -8.02832,16.34691 -16.12403,16.61578c-8.09572,0.26887 -14.78142,-3.21214 -14.9739,-9.00795c-0.19249,-5.79579 2.90055,-9.35142 3.20074,-10.86222z" data-paper-data="{&quot;origPos&quot;:null,&quot;origRot&quot;:0}" fill="#ffdebd" stroke="none" stroke-width="0" stroke-linecap="butt"/><path d="M192.04899,164.64211c4.87446,-0.51442 9.08443,1.5174 9.40322,4.53818c0.31881,3.02079 -3.37428,5.88665 -8.24874,6.40107c-4.87446,0.51442 -9.08442,-1.51739 -9.40322,-4.53818c-0.31881,-3.02079 3.37429,-5.88665 8.24874,-6.40108z" data-paper-data="{&quot;origPos&quot;:null,&quot;origRot&quot;:0}" fill="#ffffff" stroke="none" stroke-width="0" stroke-linecap="butt"/><path d="M196.37167,204.56295c4.86223,-0.53985 8.15845,-4.84417 9.37623,-2.53738c0.62038,1.17514 0.33755,5.77222 -1.40126,7.62671c-1.73881,1.8545 -3.96126,2.6556 -8.37712,2.80224c-4.41584,0.14666 -8.69287,0.30541 -8.8862,-2.44925c-0.81399,-11.59795 4.89706,-4.95477 9.28834,-5.44233z" data-paper-data="{&quot;origPos&quot;:null,&quot;origRot&quot;:0}" fill="#5a2c0a" stroke="none" stroke-width="0" stroke-linecap="butt"/><path d="M197.48322,177.49203c4.84653,-0.73221 9.14327,1.10901 9.59704,4.11249c0.45378,3.00349 -3.10726,6.03188 -7.9538,6.76408c-4.84653,0.73221 -9.14327,-1.10902 -9.59703,-4.11249c-0.45378,-3.00349 3.10726,-6.03187 7.95379,-6.76408z" data-paper-data="{&quot;origPos&quot;:null,&quot;origRot&quot;:0}" fill="#ffffff" stroke="none" stroke-width="0" stroke-linecap="butt"/><path d="M193.9296,180.40457c-0.03161,-0.95147 0.6344,-1.83606 1.73504,-2.49796c1.10068,-0.6609 2.63697,-1.09914 4.34703,-1.15592c1.71006,-0.05679 3.27204,0.27854 4.41414,0.86497c1.14213,0.58742 1.86535,1.42587 1.89695,2.37734c0.03161,0.95147 -0.6344,1.83606 -1.73504,2.49797c-1.10068,0.6609 -2.63697,1.09913 -4.34703,1.15591c-1.71006,0.05679 -3.27204,-0.27854 -4.41414,-0.86496c-1.14213,-0.58742 -1.86535,-1.42587 -1.89695,-2.37735z" data-paper-data="{&quot;origPos&quot;:null,&quot;origRot&quot;:0}" id="ID0.2989244391210377" fill="#000000" stroke="none" stroke-width="1" stroke-linecap="butt"/><path d="M188.95061,167.56276c-0.03161,-0.95147 0.6344,-1.83606 1.73504,-2.49797c1.10068,-0.6609 2.87668,-0.87097 4.34703,-1.15593c0.53596,-0.10084 1.31454,-0.27677 1.80399,0.09018c0.59271,0.46358 0.89505,1.25198 1.16577,1.96239c0.30155,1.24667 1.12764,2.71207 0.52757,3.83461c-0.54763,0.98472 -2.10727,0.96046 -3.26831,1.00903c-1.49974,0.0628 -3.27205,-0.27855 -4.41415,-0.86496c-1.14213,-0.58742 -1.86535,-1.42587 -1.89695,-2.37734z" data-paper-data="{&quot;origPos&quot;:null,&quot;origRot&quot;:0}" id="ID0.2989244391210377" fill="#000000" stroke="none" stroke-width="1" stroke-linecap="round"/><path d="M157.34954,159.66383c14.85683,-2.89121 15.80211,-0.03236 20.85035,7.83393c7.35571,11.46184 6.45318,26.80422 12.27849,39.11461c1.52956,3.23238 -1.64453,11.70586 -1.52584,15.27991c0.24276,7.30995 -4.84463,11.60809 -11.05733,12.11683c-13.7038,1.12213 -13.9815,-5.63484 -14.22427,-12.94479c0,0 1.06624,-8.08911 5.24202,-11.00967c0,0 -18.58062,-10.58673 -21.22199,-22.30939c-3.40016,-15.09036 -1.0106,-26.00514 9.65856,-28.08142z" data-paper-data="{&quot;origPos&quot;:null,&quot;origRot&quot;:0}" fill="#64ca00" stroke="none" stroke-width="0" stroke-linecap="butt"/><path d="M165.96624,162.27322c5.46461,-0.18149 9.62445,1.14435 10.29949,11.86468c0.71263,11.31723 -4.02499,12.3404 -9.4896,12.52188c-5.46461,0.18149 -10.07584,-5.1305 -10.29949,-11.86468c-0.22365,-6.73416 4.02499,-12.34039 9.4896,-12.52188z" data-paper-data="{&quot;origPos&quot;:null,&quot;origRot&quot;:0}" fill="#ffffff" stroke="none" stroke-width="0" stroke-linecap="butt"/><path d="M181.77967,144.33846c0.86464,0.17139 7.80229,39.10541 9.36533,50.01671c0.75967,5.30302 0.69279,16.08586 -0.17185,15.91447c-3.19629,-0.63358 -8.33354,-2.52968 -10.15677,-7.56704c-2.20327,-6.08738 -8.28196,-27.03511 -8.56512,-42.84143c-0.11575,-6.46154 6.33213,-16.15628 9.52842,-15.52271z" data-paper-data="{&quot;origPos&quot;:null,&quot;origRot&quot;:0}" fill="#509b07" stroke="none" stroke-width="0" stroke-linecap="butt"/><path d="M172.7139,177.99125l-12.24334,2.57996l-0.7462,-5.5488l9.50276,0.45389l-1.88823,-7.42354l3.75049,1.19266z" data-paper-data="{&quot;origPos&quot;:null,&quot;origRot&quot;:0}" fill="#64ca00" stroke="none" stroke-width="0" stroke-linecap="butt"/><path d="M227.87224,163.52675c2.55928,0.2863 3.09557,2.74364 3.53535,4.17547c1.34223,4.36996 0.72443,8.10341 -1.95834,16.11271c-0.86858,2.59313 -16.16355,5.32243 -13.1765,-0.67909c0,0 4.35678,-12.11 3.81867,-18.0668c0,0 -4.82848,-9.48375 -4.72997,-12.4763c0.04886,-1.48415 3.15188,-1.59691 4.73479,-1.18178c0,0 4.55021,-0.30332 5.75707,1.73114c2.24138,2.90896 1.37949,5.08201 2.12015,5.16487z" data-paper-data="{&quot;origPos&quot;:null,&quot;origRot&quot;:0}" fill="#38291e" stroke="none" stroke-width="0" stroke-linecap="butt"/><path d="M209.32734,153.29813c6.63097,0.28006 11.08145,-1.49605 11.30881,12.88174c0.10478,6.6266 -3.82314,13.13413 -9.68792,13.3289c-5.86479,0.19477 -13.31523,-5.95391 -14.049,-12.54058c-1.06915,-9.59722 1.81954,-14.1181 12.42811,-13.67005z" data-paper-data="{&quot;origPos&quot;:null,&quot;origRot&quot;:0}" fill="#ffdebd" stroke="none" stroke-width="0" stroke-linecap="butt"/><g data-paper-data="{&quot;origPos&quot;:null,&quot;origRot&quot;:0}" fill="none" stroke="#f6b09a" stroke-width="3.5" stroke-linecap="round"><path d="M195.69652,226.6145c0,0 -1.82737,-2.90426 0.9746,-6.79108c4.0185,-5.57434 11.29117,-2.62124 11.29117,-2.62124" data-paper-data="{&quot;origPos&quot;:null}"/><path d="M202.11787,217.68215l0.19915,5.99669" data-paper-data="{&quot;origPos&quot;:null}"/><path d="M208.13352,218.05412l0.04268,1.285" data-paper-data="{&quot;origPos&quot;:null}"/></g><path d="M187.91535,185.35759c-0.54705,2.04936 -0.34589,2.09019 0.26711,3.77605c0.6324,1.73918 1.08059,4.71895 1.08059,4.71895c0,0 -3.90976,-0.44691 -6.11691,-2.18305c-1.49863,-1.17881 -3.47282,-4.52214 -2.18742,-8.58969c5.85693,-12.57184 11.39005,-3.10592 11.39005,-3.10592c0,0 -3.89135,3.20656 -4.43341,5.38365z" data-paper-data="{&quot;origPos&quot;:null,&quot;origRot&quot;:0}" fill="#38291e" stroke="none" stroke-width="0" stroke-linecap="butt"/><path d="M184.91535,163.55052c0.54206,2.17709 4.43341,5.38365 4.43341,5.38365c0,0 -5.53312,9.46592 -11.39005,-3.10592c-1.28539,-4.06754 0.6888,-7.41087 2.18742,-8.58969c2.20716,-1.73613 6.11691,-2.18305 6.11691,-2.18305c0,0 -0.44819,2.97977 -1.08059,4.71895c-0.613,1.68586 -0.81416,1.72669 -0.26711,3.77605z" data-paper-data="{&quot;origPos&quot;:null,&quot;origRot&quot;:0,&quot;index&quot;:null}" fill="#38291e" stroke="none" stroke-width="0" stroke-linecap="butt"/><path d="M255.50001,123c0,-0.27614 0.22386,-0.5 0.5,-0.5c0.27614,0 0.5,0.22386 0.5,0.5c0,0.27614 -0.22386,0.5 -0.5,0.5c-0.27614,0 -0.5,-0.22386 -0.5,-0.5z" fill="#38291e" stroke="none" stroke-width="0.5" stroke-linecap="butt"/></g></g></svg>