<svg version="1.1" xmlns="http://www.w3.org/2000/svg" xmlns:xlink="http://www.w3.org/1999/xlink" width="134.2" height="489.43308"><defs><linearGradient x1="227.60239" y1="-5867.76888" x2="227.60239" y2="15203.01628" gradientUnits="userSpaceOnUse" id="color-1"><stop offset="0" stop-color="#519dff"/><stop offset="1" stop-color="#519dff" stop-opacity="0"/></linearGradient></defs><g transform="translate(-172.9,162.93307)"><g data-paper-data="{&quot;isPaintingLayer&quot;:true}" fill="none" fill-rule="nonzero" stroke="none" stroke-width="none" stroke-linecap="none" stroke-linejoin="miter" stroke-miterlimit="10" stroke-dasharray="" stroke-dashoffset="0" font-family="none" font-weight="none" font-size="none" text-anchor="none" style="mix-blend-mode: normal"><path d="M185.12013,-94.37271l110.23071,-0.21437l-0.02906,395.78406c0,0 -109.19116,-0.31568 -110.06518,1.1702z" data-paper-data="{&quot;origPos&quot;:null}" id="ID0.18147781118750572" fill="url(#color-1)" stroke="#55b2f0" stroke-width="3" stroke-linecap="butt"/><path d="M281.8514,-27.62564v42.36335" data-paper-data="{&quot;origPos&quot;:null}" fill="none" stroke="#8bdfff" stroke-width="3" stroke-linecap="round"/><path d="M284.64026,104.16091l-0.9151,-64.5212" data-paper-data="{&quot;origPos&quot;:null}" fill="none" stroke="#8bdfff" stroke-width="3" stroke-linecap="round"/><path d="M264.05065,51.5086v-46.29757" data-paper-data="{&quot;origPos&quot;:null}" fill="none" stroke="#8bdfff" stroke-width="3" stroke-linecap="round"/><path d="M245.24767,136.00468l-2.81066,-105.36522" data-paper-data="{&quot;origPos&quot;:null}" fill="none" stroke="#8bdfff" stroke-width="3" stroke-linecap="round"/><path d="M268.73505,256.79419l-0.93688,-38.01838" data-paper-data="{&quot;origPos&quot;:null}" fill="none" stroke="#8bdfff" stroke-width="3" stroke-linecap="round"/><path d="M261.43604,143.5201v42.36333" data-paper-data="{&quot;origPos&quot;:null}" fill="none" stroke="#8bdfff" stroke-width="3" stroke-linecap="round"/><path d="M226.51003,219.47054l0.9369,-94.50281" data-paper-data="{&quot;origPos&quot;:null}" fill="none" stroke="#8bdfff" stroke-width="3" stroke-linecap="round"/><path d="M205.0271,301.27627l-0.93686,-121.65882" data-paper-data="{&quot;origPos&quot;:null}" fill="none" stroke="#8bdfff" stroke-width="3" stroke-linecap="round"/><path d="M227.53406,301.81692l-0.9151,-44.38169" data-paper-data="{&quot;origPos&quot;:null}" fill="none" stroke="#8bdfff" stroke-width="3" stroke-linecap="round"/><path d="M244.37613,280.81624v-87.98539" data-paper-data="{&quot;origPos&quot;:null}" fill="none" stroke="#8bdfff" stroke-width="3" stroke-linecap="round"/><path d="M283.72516,125.30551v145.55606" data-paper-data="{&quot;origPos&quot;:null}" fill="none" stroke="#8bdfff" stroke-width="3" stroke-linecap="round"/><path d="M264.57369,304.04069l-0.9151,-24.38169" data-paper-data="{&quot;origPos&quot;:null}" fill="none" stroke="#8bdfff" stroke-width="3" stroke-linecap="round"/><path d="M204.11202,72.80733l-0.9369,-106.45144" data-paper-data="{&quot;origPos&quot;:null}" fill="none" stroke="#8bdfff" stroke-width="3" stroke-linecap="round"/><path d="M221.8692,105.0664l-0.9151,-94.50281" data-paper-data="{&quot;origPos&quot;:null}" fill="none" stroke="#8bdfff" stroke-width="3" stroke-linecap="round"/><path d="M194.76472,154.39974v-42.36333" data-paper-data="{&quot;origPos&quot;:null}" fill="none" stroke="#8bdfff" stroke-width="3" stroke-linecap="round"/><path d="M240.62861,-105.31862l2.81064,105.36522" data-paper-data="{&quot;origPos&quot;:null}" fill="none" stroke="#8bdfff" stroke-width="3" stroke-linecap="round"/><path d="M266.92663,-38.4343l-0.93688,-38.01836" data-paper-data="{&quot;origPos&quot;:null}" fill="none" stroke="#8bdfff" stroke-width="3" stroke-linecap="round"/><path d="M222.84964,-24.11744l-0.95866,-61.91564" data-paper-data="{&quot;origPos&quot;:null}" fill="none" stroke="#8bdfff" stroke-width="3" stroke-linecap="round"/><path d="M288.2353,-161.43307l-0.93688,97.76154" data-paper-data="{&quot;origPos&quot;:null}" fill="none" stroke="#8bdfff" stroke-width="3" stroke-linecap="round"/><g data-paper-data="{&quot;origPos&quot;:null,&quot;index&quot;:null}" fill="#8bdfff" stroke="none" stroke-linecap="butt"><path d="M287.3,285.19103c10.93524,0 19.8,9.24733 19.8,20.65449c0,11.40717 -8.86476,20.65449 -19.8,20.65449c-10.93524,0 -19.8,-9.24733 -19.8,-20.65449c0,-11.40717 8.86476,-20.65449 19.8,-20.65449z" data-paper-data="{&quot;origPos&quot;:null}" stroke-width="3"/><path d="M207,303.05437c0,9.24905 -7.63355,16.74688 -17.05,16.74688c-9.41645,0 -17.05,-7.49783 -17.05,-16.74688c0,-9.24905 7.63355,-16.74688 17.05,-16.74688c9.41645,0 17.05,7.49783 17.05,16.74688z" data-paper-data="{&quot;origPos&quot;:null}" stroke-width="0"/><path d="M259.8,288.54042c7.89767,0 14.3,5.74835 14.3,12.83928c0,7.09094 -6.40233,12.83928 -14.3,12.83928c-7.89767,0 -14.3,-5.74835 -14.3,-12.83928c0,-7.09094 6.40233,-12.83928 14.3,-12.83928z" data-paper-data="{&quot;origPos&quot;:null}" stroke-width="0"/><path d="M226.8,312.5443c0,6.47434 -5.17111,11.72282 -11.55,11.72282c-6.37889,0 -11.55,-5.24849 -11.55,-11.72282c0,-6.47434 5.17111,-11.72282 11.55,-11.72282c6.37889,0 11.55,5.24849 11.55,11.72282z" data-paper-data="{&quot;origPos&quot;:null}" stroke-width="0"/><path d="M236.7,282.95812c9.1127,0 16.5,7.49783 16.5,16.74688c0,9.24905 -7.3873,16.74688 -16.5,16.74688c-9.1127,0 -16.5,-7.49783 -16.5,-16.74688c0,-9.24905 7.3873,-16.74688 16.5,-16.74688z" data-paper-data="{&quot;origPos&quot;:null}" stroke-width="0"/><path d="M225.7,295.79739c0,7.70755 -6.40233,13.95574 -14.3,13.95574c-7.89767,0 -14.3,-6.2482 -14.3,-13.95574c0,-7.70755 6.40233,-13.95574 14.3,-13.95574c7.89767,0 14.3,6.2482 14.3,13.95574z" data-paper-data="{&quot;origPos&quot;:null}" stroke-width="0"/><path d="M246.05,296.35562c6.9864,0 12.65,5.74835 12.65,12.83928c0,7.09094 -5.6636,12.83928 -12.65,12.83928c-6.9864,0 -12.65,-5.74835 -12.65,-12.83928c0,-7.09094 5.6636,-12.83928 12.65,-12.83928z" data-paper-data="{&quot;origPos&quot;:null}" stroke-width="0"/></g></g></g></svg>