<svg version="1.1" xmlns="http://www.w3.org/2000/svg" xmlns:xlink="http://www.w3.org/1999/xlink" width="437" height="90.79587" viewBox="0,0,437,90.79587"><defs><linearGradient x1="240" y1="135.60207" x2="240" y2="224.39795" gradientUnits="userSpaceOnUse" id="color-1"><stop offset="0" stop-color="#ffffff"/><stop offset="1" stop-color="#d8d8d8"/></linearGradient><linearGradient x1="240" y1="135.60208" x2="240" y2="224.39795" gradientUnits="userSpaceOnUse" id="color-2"><stop offset="0" stop-color="#343434"/><stop offset="1" stop-color="#090909"/></linearGradient><radialGradient cx="443.8065" cy="206.54467" r="17.9081" gradientUnits="userSpaceOnUse" id="color-3"><stop offset="0" stop-color="#ffffff"/><stop offset="1" stop-color="#e5e5e5"/></radialGradient></defs><g transform="translate(-21.5,-134.60208)"><g data-paper-data="{&quot;isPaintingLayer&quot;:true}" fill-rule="nonzero" stroke-linejoin="miter" stroke-miterlimit="10" stroke-dasharray="" stroke-dashoffset="0" style="mix-blend-mode: normal"><path d="M22.5,224.39795v-88.79587h435v88.79587z" data-paper-data="{&quot;origPos&quot;:null}" fill="url(#color-1)" stroke="url(#color-2)" stroke-width="2" stroke-linecap="butt"/><g data-paper-data="{&quot;origPos&quot;:null}" stroke="none" stroke-width="0.35826" stroke-linecap="butt"><path d="M36.8773,152.92567l-3.5772,-5.0045l4.0221,-1.931l1.7885,3.938l2.6532,-3.0817l3.1993,2.3258l-4.4754,4.4001l0.2769,4.005l-4.6433,-0.2519z" fill="#000000"/><path d="M48.5988,149.19767c2.1245,0.5707 3.258,0.915 3.3841,1.0411c1.1668,1.6541 1.8303,2.6113 1.9729,2.8632c-0.7555,2.3932 -1.1923,3.5937 -1.3012,3.5937c-2.5192,0.5879 -3.8373,0.8817 -3.9548,0.8817c-2.0825,-1.2174 -3.191,-1.8891 -3.3253,-2.0321c-0.0756,-2.2584 -0.109,-3.5095 -0.109,-3.7448c-0.0336,-0.067 -0.0505,-0.1176 -0.0505,-0.1512c2.1496,-1.6373 3.258,-2.4516 3.3336,-2.4516zM48.4394,152.27077c-0.0337,0.2268 -0.0839,1.0411 -0.1512,2.4434l1.8726,0.4198c0.4449,-1.4022 0.6717,-2.1495 0.6717,-2.2419c-1.4864,-0.445 -2.2839,-0.6718 -2.3931,-0.6718z" fill="#000000"/><path d="M59.2545,149.18907l0.0587,0.1093l-1.1335,6.0119h0.0587l2.8883,-0.848v-3.4006c0.0083,-0.0756 0.0505,-0.1175 0.1093,-0.1175c2.1746,0.1512 3.3837,0.2268 3.6274,0.2268c0,0.0419 0.0168,0.0587 0.0587,0.0587c0,0.957 -0.3024,2.9388 -0.9067,5.9532c0,0.1763 -0.8649,0.3024 -2.6032,0.3945c-0.0924,-0.1089 -0.168,-0.3357 -0.2267,-0.68c-2.2252,0.4535 -3.493,0.68 -3.8037,0.68c-1.7715,-1.3181 -2.6618,-1.9984 -2.6618,-2.0403c0.3024,-3.9717 0.4955,-6.0288 0.571,-6.18h0.0506c1.419,-0.0419 2.7202,-0.0924 3.9129,-0.168z" fill="#000000"/><path d="M74.2508,149.19767c0.1763,0.7137 0.2938,1.1586 0.3611,1.3266c2.477,-0.5624 3.7786,-0.848 3.9212,-0.848c1.6877,2.4265 2.5275,3.6862 2.5275,3.7951l-1.9314,4.0977l-4.1562,-0.6635v0.1261c0.3275,2.4939 0.4869,3.8123 0.4869,3.9717c-0.0419,0 -0.0587,0.0168 -0.0587,0.0587c-0.4031,-0.0419 -0.7054,-0.0587 -0.9068,-0.0587h-0.7222c-0.4199,0 -1.0666,-0.0168 -1.9314,-0.0588c-0.0756,-0.235 -0.68,-3.8122 -1.8053,-10.7226c0.1931,-0.0756 1.5954,-0.4199 4.2153,-1.0243zM74.5532,152.63197c0.1089,1.2847 0.2099,1.931 0.302,1.931c1.1503,0.3948 1.8475,0.5961 2.1076,0.5961l0.6635,-2.8883h-0.0587c-0.6549,0.042 -1.6627,0.1595 -3.0144,0.3612z" fill="#000000"/><path d="M83.084,145.82217l3.2999,0.5205c-0.4112,1.5871 -0.6885,2.3764 -0.8143,2.3764c-1.7383,-0.1175 -2.6031,-0.235 -2.6031,-0.3443v-2.4351c0.0168,-0.0756 0.0588,-0.1175 0.1175,-0.1175zM82.1604,149.81886h0.0505c2.5526,0.4618 3.8287,0.7391 3.8287,0.8147c-0.7304,4.1562 -1.1754,6.4651 -1.3348,6.9438h-2.6619c-0.0756,0 -0.1175,-0.0419 -0.1175,-0.1175z" fill="#000000"/><path d="M89.9608,149.19767c2.5275,0.4786 3.8459,0.7473 3.9634,0.8143v0.1007c-0.5456,1.5366 -0.8143,2.3262 -0.8143,2.3849h-0.0505c-0.143,0 -0.8147,-0.2185 -2.0321,-0.6549c-0.68,1.1336 -1.016,1.7465 -1.016,1.8218l1.6795,1.629c1.3012,-1.2174 1.9565,-1.8304 1.9815,-1.8304c1.0161,1.3267 1.5198,2.074 1.5198,2.2334c-0.5543,0.3192 -1.5198,0.949 -2.8969,1.8809c-2.6619,-0.5793 -4.106,-0.8982 -4.3159,-0.9655l-1.3181,-4.2655z" fill="#000000"/><path d="M99.7348,146.65337c0.0756,0.2267 0.2518,1.8138 0.5288,4.7609l2.5193,-2.8213h0.0587c0.3944,0.3274 1.1167,1.0077 2.1746,2.0571v0.0587l-2.41,1.9902c1.8139,1.2177 2.7712,1.8977 2.8801,2.0571c-1.1418,1.2679 -1.8304,1.9983 -2.0572,2.175l-2.9301,-2.7038c0.1175,1.2091 0.1762,2.1076 0.1762,2.7038c-0.1429,0.0756 -1.1758,0.2937 -3.1154,0.6463c-0.1594,-0.7807 -0.6631,-4.1479 -1.528,-10.1011c0.3612,-0.1175 1.5954,-0.3948 3.703,-0.8229z" fill="#000000"/><path d="M110.9694,149.19767c2.5358,1.3016 3.938,2.0654 4.2153,2.2839c-0.3611,1.7046 -0.5793,2.5777 -0.6467,2.6282h-5.3065v0.0921l1.4861,1.8389l2.3344,-1.1923c0.2264,0.3948 0.5624,1.0916 0.9906,2.0826c-0.2014,0.067 -1.671,0.2855 -4.4081,0.6463c-2.2674,-1.4947 -3.4091,-2.2753 -3.426,-2.3341c0.3611,-2.9055 0.5793,-4.3578 0.6467,-4.3578c2.3677,-1.0078 3.7362,-1.5703 4.1142,-1.6878zM110.4238,151.22967c-0.0423,0.109 -0.3443,0.5539 -0.8903,1.3349c0,0.235 0.3275,0.3529 0.991,0.3529c0,0.0333 0.4786,0.1175 1.4359,0.2433c0.2601,-0.3612 0.3944,-0.5793 0.3944,-0.6381c-0.0838,-0.4955 -0.2687,-0.7473 -0.5456,-0.7473z" fill="#000000"/><path d="M121.0286,146.64506h0.0505c2.5275,0.21 3.7954,0.3776 3.7954,0.4955l1.1167,9.8825c0,0.0756 -1.1167,0.2605 -3.3504,0.5543l-0.0502,-0.1089v-0.8986c-1.9231,0.5206 -3.2498,0.8563 -3.9634,1.0075c-1.7046,-2.4097 -2.5945,-3.6862 -2.6784,-3.8456c1.2511,-2.2756 1.9228,-3.4342 2.0067,-3.4593l3.518,0.1676c-0.0755,-0.4281 -0.2181,-1.6959 -0.4449,-3.795zM119.4669,152.66527c0.5625,1.73 0.9154,2.6787 1.058,2.8467l1.6709,-1.4527c-0.1763,-0.9992 -0.3024,-1.5029 -0.3862,-1.5029h-2.2334c-0.0756,0.0082 -0.1093,0.0501 -0.1093,0.1089z" fill="#000000"/><path d="M135.6642,149.18907l0.0587,0.1093l-1.1335,6.0119h0.0587l2.8883,-0.848v-3.4006c0.0086,-0.0756 0.0505,-0.1175 0.1093,-0.1175c2.1746,0.1512 3.3837,0.2268 3.6274,0.2268c0,0.0419 0.0168,0.0587 0.0587,0.0587c0,0.957 -0.3024,2.9388 -0.9067,5.9532c0,0.1763 -0.8649,0.3024 -2.6031,0.3945c-0.0925,-0.1089 -0.1681,-0.3357 -0.2268,-0.68c-2.2252,0.4535 -3.493,0.68 -3.8037,0.68c-1.7715,-1.3181 -2.6615,-1.9984 -2.6615,-2.0403c0.3021,-3.9717 0.4952,-6.0288 0.5707,-6.18h0.0506c1.419,-0.0419 2.7206,-0.0924 3.9129,-0.168z" fill="#000000"/><path d="M146.3951,149.19767c0.1762,0.7137 0.2937,1.1586 0.3611,1.3266c2.477,-0.5624 3.7785,-0.848 3.9211,-0.848c1.6878,2.4265 2.5275,3.6862 2.5275,3.7951l-1.9313,4.0977l-4.1562,-0.6635v0.1261c0.3275,2.4939 0.4869,3.8123 0.4869,3.9717c-0.0419,0 -0.0588,0.0168 -0.0588,0.0587c-0.403,-0.0419 -0.7054,-0.0587 -0.9067,-0.0587h-0.7223c-0.4198,0 -1.0665,-0.0168 -1.9313,-0.0588c-0.0756,-0.235 -0.68,-3.8122 -1.8053,-10.7226c0.1931,-0.0756 1.5953,-0.4199 4.2153,-1.0243zM146.6974,152.63197c0.109,1.2847 0.21,1.931 0.3021,1.931c1.1503,0.3948 1.8475,0.5961 2.1076,0.5961l0.6635,-2.8883h-0.0588c-0.6549,0.042 -1.6626,0.1595 -3.0144,0.3612z" fill="#000000"/><path d="M159.6116,149.18907c3.325,0.4618 4.9873,0.7391 4.9873,0.848c1.3101,1.1253 1.965,1.73 1.965,1.8056c-0.5291,1.6623 -0.8315,2.6701 -0.9067,3.0309c0.5288,1.184 0.8312,1.8894 0.9067,2.1162c0,0.067 -0.8648,0.2433 -2.6031,0.5374c-0.025,-0.0924 -0.1845,-0.3106 -0.4786,-0.6384c-2.3928,0.4621 -3.6861,0.6886 -3.8706,0.6886l-1.2765,-3.4508l2.8131,-1.4864c0.4531,0.0756 1.1586,0.1093 2.1241,0.1093c0,-0.1261 0.0168,-0.4955 0.0505,-1.1167c-0.1594,0 -1.6122,0.1089 -4.3496,0.3188l-0.0502,-0.1089c0.3776,-1.7719 0.613,-2.6536 0.6886,-2.6536zM161.3581,154.12657c0,0.0588 0.1763,0.7137 0.5374,1.9647h0.0501c0.7054,-0.4618 1.058,-0.7642 1.058,-0.9067l0.1092,-0.8986c-0.1343,0 -0.7222,-0.0505 -1.7547,-0.1594z" fill="#000000"/><path d="M180.2086,146.63646c0.0333,0.0756 0.0501,0.1261 0.0501,0.1598c-0.0333,1.6709 -0.0501,2.6364 -0.0501,2.8969l-0.1093,0.0501c-2.5694,0.0674 -4.0386,0.1007 -4.4166,0.1007l-0.0505,0.1093c0.0337,0.6212 0.0505,1.1335 0.0505,1.5283v0.2601h0.0505l3.4174,-0.4199l0.0588,0.101v2.5777c0,0.0756 -0.0337,0.1093 -0.1093,0.1093l-3.2075,-0.3697v0.3109c0,0.7051 0.0169,1.7548 0.0588,3.157c-0.3106,0.0756 -1.2596,0.1931 -2.8464,0.3694c-0.101,-0.1931 -0.5879,-3.4425 -1.4696,-9.7318h0.0506z" fill="#2b70c2"/><path d="M182.3327,145.82217l3.2999,0.5205c-0.4113,1.5871 -0.6886,2.3764 -0.8143,2.3764c-1.7383,-0.1175 -2.6031,-0.235 -2.6031,-0.3443v-2.4351c0.0168,-0.0756 0.0587,-0.1175 0.1175,-0.1175zM181.4091,149.81886h0.0505c2.5526,0.4618 3.8287,0.7391 3.8287,0.8147c-0.7305,4.1562 -1.1754,6.4651 -1.3349,6.9438h-2.6618c-0.0756,0 -0.1175,-0.0419 -0.1175,-0.1175z" fill="#2b70c2"/><path d="M191.9387,149.18907c1.1084,0.6216 1.7884,1.0246 2.0402,1.2091c-0.9067,1.8895 -1.3936,2.8468 -1.4609,2.8801h-0.0588l-1.2009,-1.0494l-1.4187,1.7297l0.1595,3.1487c-0.0756,0.067 -0.9992,0.2268 -2.7794,0.4701c-0.067,-0.4787 -0.5037,-2.8382 -1.3098,-7.0781c0,-0.0674 1.1672,-0.2437 3.5099,-0.5209c0.0419,0.0422 0.1425,0.571 0.3188,1.5702c1.4022,-1.5702 2.1327,-2.3595 2.2001,-2.3595z" fill="#2b70c2"/><path d="M199.4033,149.19767c2.5358,1.3016 3.938,2.0654 4.2149,2.2839c-0.3607,1.7046 -0.5793,2.5777 -0.6462,2.6282h-5.3069v0.0921l1.4864,1.8389l2.334,-1.1923c0.2268,0.3948 0.5629,1.0916 0.991,2.0826c-0.2017,0.067 -1.6709,0.2855 -4.4084,0.6463c-2.267,-1.4947 -3.4088,-2.2753 -3.4257,-2.3341c0.3612,-2.9055 0.5793,-4.3578 0.6463,-4.3578c2.3681,-1.0078 3.7367,-1.5703 4.1146,-1.6878zM198.8574,151.22967c-0.042,0.109 -0.3443,0.5539 -0.89,1.3349c0,0.235 0.3275,0.3529 0.991,0.3529c0,0.0333 0.4786,0.1175 1.4355,0.2433c0.2605,-0.3612 0.3948,-0.5793 0.3948,-0.6381c-0.0838,-0.4955 -0.2687,-0.7473 -0.5456,-0.7473z" fill="#2b70c2"/><path d="M217.221,146.63646c0.0336,0.0756 0.0505,0.1261 0.0505,0.1598c-0.0337,1.6709 -0.0505,2.6364 -0.0505,2.8969l-0.109,0.0501c-2.5694,0.0674 -4.039,0.1007 -4.4169,0.1007l-0.0502,0.1093c0.0333,0.6212 0.0502,1.1335 0.0502,1.5283v0.2601h0.0505l3.4174,-0.4199l0.0588,0.101v2.5777c0,0.0756 -0.0337,0.1093 -0.1093,0.1093l-3.2075,-0.3697v0.3109c0,0.7051 0.0169,1.7548 0.0588,3.157c-0.3106,0.0756 -1.2593,0.1931 -2.8464,0.3694c-0.1007,-0.1931 -0.5879,-3.4425 -1.4692,-9.7318h0.0502z" fill="#2b70c2"/><path d="M218.1868,146.66197c1.7129,0.0333 2.9721,0.0501 3.77,0.0501c0.0756,0 0.2937,3.4343 0.6635,10.311c-0.2856,0.0756 -1.2847,0.2605 -2.9893,0.5543c-0.0842,0 -0.3612,-2.1073 -0.8316,-6.3143c-0.0419,-0.1007 -0.2432,-1.6373 -0.6126,-4.6011z" fill="#2b70c2"/><path d="M226.9445,149.19767c2.1244,0.5707 3.258,0.915 3.3837,1.0411c1.1672,1.6541 1.8307,2.6113 1.9733,2.8632c-0.7556,2.3932 -1.1923,3.5937 -1.3016,3.5937c-2.5189,0.5879 -3.8373,0.8817 -3.9548,0.8817c-2.0822,-1.2174 -3.1906,-1.8891 -3.325,-2.0321c-0.0756,-2.2584 -0.1092,-3.5095 -0.1092,-3.7448c-0.0337,-0.067 -0.0502,-0.1176 -0.0502,-0.1512c2.1496,-1.6373 3.2576,-2.4516 3.3332,-2.4516zM226.785,152.27077c-0.0337,0.2268 -0.0842,1.0411 -0.1512,2.4434l1.8723,0.4198c0.445,-1.4022 0.6717,-2.1495 0.6717,-2.2419c-1.486,-0.445 -2.2839,-0.6718 -2.3928,-0.6718z" fill="#2b70c2"/><path d="M236.7518,149.18907c0.0756,0.0924 0.4532,1.7214 1.1335,4.8702h0.0588c0,-0.0756 0.4112,-0.7137 1.2428,-1.9228c0.3442,0.235 1.0074,0.7473 1.9815,1.528h0.1175v-0.0588c0.1512,-2.1829 0.2604,-3.392 0.336,-3.6273c2.309,0.1178 3.4594,0.2099 3.4594,0.2855c-1.058,4.2572 -1.6208,6.4655 -1.6964,6.6335c-0.3525,0.0419 -1.0912,0.1512 -2.2165,0.3357c-0.9236,-1.4524 -1.4528,-2.2252 -1.5871,-2.3172c-0.6044,1.6121 -0.9823,2.502 -1.1335,2.6615h-2.2671c-0.1426,-0.0419 -0.7975,-1.5029 -1.9815,-4.3661c-0.7559,-1.6039 -1.1335,-2.4688 -1.1335,-2.6031c0,-0.1258 1.2259,-0.5962 3.6861,-1.4191z" fill="#2b70c2"/><path d="M250.7575,149.19767c2.5358,1.3016 3.938,2.0654 4.2149,2.2839c-0.3611,1.7046 -0.5793,2.5777 -0.6463,2.6282h-5.3068v0.0921l1.486,1.8389l2.3344,-1.1923c0.2268,0.3948 0.5625,1.0916 0.991,2.0826c-0.2017,0.067 -1.671,0.2855 -4.4084,0.6463c-2.2671,-1.4947 -3.4092,-2.2753 -3.4257,-2.3341c0.3608,-2.9055 0.5793,-4.3578 0.6463,-4.3578c2.3681,-1.0078 3.7367,-1.5703 4.1146,-1.6878zM250.2115,151.22967c-0.0419,0.109 -0.3442,0.5539 -0.8899,1.3349c0,0.235 0.3275,0.3529 0.9906,0.3529c0,0.0333 0.4786,0.1175 1.4359,0.2433c0.2605,-0.3612 0.3948,-0.5793 0.3948,-0.6381c-0.0842,-0.4955 -0.2687,-0.7473 -0.546,-0.7473z" fill="#2b70c2"/><path d="M261.7654,149.18907c1.1084,0.6216 1.7884,1.0246 2.0403,1.2091c-0.9068,1.8895 -1.3937,2.8468 -1.461,2.8801h-0.0588l-1.2005,-1.0494l-1.4191,1.7297l0.1595,3.1487c-0.0756,0.067 -0.9992,0.2268 -2.7794,0.4701c-0.067,-0.4787 -0.5037,-2.8382 -1.3098,-7.0781c0,-0.0674 1.1672,-0.2437 3.5099,-0.5209c0.0419,0.0422 0.1425,0.571 0.3192,1.5702c1.4022,-1.5702 2.1327,-2.3595 2.1997,-2.3595z" fill="#2b70c2"/><path d="M265.3003,147.02266l3.9717,0.3361l-0.8817,6.6249l-3.09,-0.2268zM265.1914,154.54607l2.8632,0.2268v2.8045l-3.4174,-0.445z" fill="#000000"/><path d="M277.4757,146.68696c3.1068,0.445 4.8197,0.7137 5.1385,0.7893c0,0.0419 1.0666,3.2494 3.2079,9.6142c-0.2268,0.0838 -1.5115,0.2436 -3.871,0.4869c-0.1594,-0.5457 -0.3443,-1.3937 -0.546,-2.544c-2.0152,0.1845 -3.0226,0.3443 -3.0226,0.4868l-0.5457,1.9397h-0.0591c-2.3759,-0.4368 -3.5682,-0.6969 -3.5682,-0.7893c1.8973,-5.9363 2.9889,-9.2613 3.2662,-9.9836zM279.1047,152.49757h1.8221l-0.6717,-2.6618c-0.5209,0 -0.781,0.1006 -0.781,0.3023c-0.0842,0.4113 -0.21,1.1923 -0.3694,2.3595z" fill="#000000"/><path d="M286.7037,146.66197c1.7129,0.0333 2.9721,0.0501 3.77,0.0501c0.0756,0 0.2938,3.4343 0.6635,10.311c-0.2855,0.0756 -1.2847,0.2605 -2.9893,0.5543c-0.0842,0 -0.3611,-2.1073 -0.8315,-6.3143c-0.042,-0.1007 -0.2433,-1.6373 -0.6127,-4.6011z" fill="#000000"/><path d="M292.0776,146.66197c1.7128,0.0333 2.9721,0.0501 3.77,0.0501c0.0756,0 0.2937,3.4343 0.6635,10.311c-0.2856,0.0756 -1.2848,0.2605 -2.9893,0.5543c-0.0842,0 -0.3612,-2.1073 -0.8316,-6.3143c-0.0419,-0.1007 -0.2432,-1.6373 -0.6126,-4.6011z" fill="#000000"/><path d="M305.2099,146.65337c0.2938,0.0336 1.3772,0.2855 3.2412,0.7473l0.0501,0.1007c-0.2769,1.5283 -0.4363,2.2924 -0.4954,2.2924h-0.0502l-1.352,-0.6971c0,0.1598 -0.0502,0.8566 -0.1509,2.0994l1.8472,-0.4536c0.0588,0.168 0.1089,0.9154 0.1512,2.242c-0.1766,0.0673 -0.7978,0.168 -1.8475,0.3024c0.2353,1.0074 0.4872,2.2419 0.7473,3.6943c-0.8649,0.1931 -1.8891,0.3948 -3.09,0.5962l-0.0502,-0.1007c-0.1597,-2.5945 -0.2855,-3.8875 -0.3948,-3.8875c-1.083,0.2601 -1.6709,0.4113 -1.7465,0.445c-0.067,-0.3275 -0.1845,-1.2091 -0.3525,-2.645l0.1007,-0.0505h1.797c-0.101,-0.8312 -0.2519,-1.906 -0.4535,-3.2412z" fill="#000000"/><path d="M309.274,146.66197c1.7128,0.0333 2.9721,0.0501 3.77,0.0501c0.0756,0 0.2937,3.4343 0.6635,10.311c-0.2856,0.0756 -1.2848,0.2605 -2.9893,0.5543c-0.0842,0 -0.3612,-2.1073 -0.8316,-6.3143c-0.0419,-0.1007 -0.2432,-1.6373 -0.6126,-4.6011z" fill="#000000"/><path d="M318.0316,149.19767c2.1245,0.5707 3.258,0.915 3.3838,1.0411c1.1672,1.6541 1.8307,2.6113 1.9733,2.8632c-0.7556,2.3932 -1.1923,3.5937 -1.3016,3.5937c-2.5189,0.5879 -3.8373,0.8817 -3.9548,0.8817c-2.0822,-1.2174 -3.1906,-1.8891 -3.325,-2.0321c-0.0756,-2.2584 -0.1093,-3.5095 -0.1093,-3.7448c-0.0336,-0.067 -0.0501,-0.1176 -0.0501,-0.1512c2.1495,-1.6373 3.2576,-2.4516 3.3332,-2.4516zM317.8722,152.27077c-0.0337,0.2268 -0.0842,1.0411 -0.1512,2.4434l1.8723,0.4198c0.4449,-1.4022 0.6717,-2.1495 0.6717,-2.2419c-1.486,-0.445 -2.2839,-0.6718 -2.3928,-0.6718z" fill="#000000"/><path d="M327.839,149.18907c0.0756,0.0924 0.4532,1.7214 1.1335,4.8702h0.0587c0,-0.0756 0.4113,-0.7137 1.2428,-1.9228c0.3443,0.235 1.0075,0.7473 1.9816,1.528h0.1175v-0.0588c0.1512,-2.1829 0.2604,-3.392 0.336,-3.6273c2.309,0.1178 3.4594,0.2099 3.4594,0.2855c-1.058,4.2572 -1.6208,6.4655 -1.6964,6.6335c-0.3525,0.0419 -1.0912,0.1512 -2.2165,0.3357c-0.9236,-1.4524 -1.4528,-2.2252 -1.5871,-2.3172c-0.6044,1.6121 -0.9824,2.502 -1.1335,2.6615h-2.2671c-0.1426,-0.0419 -0.7975,-1.5029 -1.9815,-4.3661c-0.756,-1.6039 -1.1336,-2.4688 -1.1336,-2.6031c0,-0.1258 1.226,-0.5962 3.6862,-1.4191z" fill="#000000"/><path d="M341.8447,149.19767c2.5358,1.3016 3.938,2.0654 4.2149,2.2839c-0.3611,1.7046 -0.5793,2.5777 -0.6463,2.6282h-5.3069v0.0921l1.4861,1.8389l2.3344,-1.1923c0.2268,0.3948 0.5625,1.0916 0.991,2.0826c-0.2017,0.067 -1.671,0.2855 -4.4084,0.6463c-2.2671,-1.4947 -3.4092,-2.2753 -3.4257,-2.3341c0.3608,-2.9055 0.5793,-4.3578 0.6463,-4.3578c2.3681,-1.0078 3.7367,-1.5703 4.1146,-1.6878zM341.2987,151.22967c-0.0419,0.109 -0.3443,0.5539 -0.8899,1.3349c0,0.235 0.3275,0.3529 0.9906,0.3529c0,0.0333 0.4786,0.1175 1.4359,0.2433c0.2605,-0.3612 0.3948,-0.5793 0.3948,-0.6381c-0.0842,-0.4955 -0.2687,-0.7473 -0.546,-0.7473z" fill="#000000"/><path d="M352.8526,149.18907c1.1084,0.6216 1.7884,1.0246 2.0402,1.2091c-0.9067,1.8895 -1.3936,2.8468 -1.4609,2.8801h-0.0588l-1.2005,-1.0494l-1.4191,1.7297l0.1594,3.1487c-0.0755,0.067 -0.9991,0.2268 -2.7793,0.4701c-0.067,-0.4787 -0.5037,-2.8382 -1.3098,-7.0781c0,-0.0674 1.1672,-0.2437 3.5098,-0.5209c0.042,0.0422 0.1426,0.571 0.3193,1.5702c1.4022,-1.5702 2.1327,-2.3595 2.1997,-2.3595z" fill="#000000"/><path d="M362.3324,149.18907c1.6122,1.0329 2.5021,1.6208 2.6701,1.7802c-0.5793,1.2929 -0.915,1.9396 -0.9991,1.9396l-3.0564,-1.7716h-0.1092c0,0.0588 -0.1344,0.3694 -0.3945,0.9404c2.8127,1.5198 4.2235,2.2922 4.2235,2.3341c-0.7892,1.8221 -1.2345,2.788 -1.3352,2.8886l-4.7777,0.277c-1.8554,-1.2342 -2.855,-1.8809 -2.9976,-1.9479v-0.0505c0,-0.1426 0.277,-0.7724 0.8312,-1.8891l3.7284,1.9396l0.2769,-1.1084c-2.309,-1.0329 -3.6779,-1.6792 -4.1142,-1.9396v-0.1176c0,-0.2099 0.4449,-1.1586 1.3349,-2.8298z" fill="#000000"/><path d="M371.3756,149.18907c3.325,0.4618 4.9877,0.7391 4.9877,0.848c1.3098,1.1253 1.965,1.73 1.965,1.8056c-0.5291,1.6623 -0.8315,2.6701 -0.9071,3.0309c0.5291,1.184 0.8315,1.8894 0.9071,2.1162c0,0.067 -0.8648,0.2433 -2.6031,0.5374c-0.0251,-0.0924 -0.1849,-0.3106 -0.4786,-0.6384c-2.3932,0.4621 -3.6861,0.6886 -3.871,0.6886l-1.2761,-3.4508l2.8127,-1.4864c0.4535,0.0756 1.1589,0.1093 2.1244,0.1093c0,-0.1261 0.0169,-0.4955 0.0505,-1.1167c-0.1597,0 -1.6121,0.1089 -4.3496,0.3188l-0.0505,-0.1089c0.378,-1.7719 0.613,-2.6536 0.6886,-2.6536zM373.1221,154.12657c0,0.0588 0.1766,0.7137 0.5374,1.9647h0.0505c0.7054,-0.4618 1.0579,-0.7642 1.0579,-0.9067l0.1093,-0.8986c-0.1343,0 -0.7222,-0.0505 -1.7551,-0.1594z" fill="#000000"/><path d="M379.1344,146.66197c1.7128,0.0333 2.9721,0.0501 3.7699,0.0501c0.0756,0 0.2938,3.4343 0.6635,10.311c-0.2855,0.0756 -1.2847,0.2605 -2.9893,0.5543c-0.0842,0 -0.3611,-2.1073 -0.8311,-6.3143c-0.0423,-0.1007 -0.2436,-1.6373 -0.613,-4.6011z" fill="#000000"/><path d="M384.5083,146.66197c1.7128,0.0333 2.9721,0.0501 3.7699,0.0501c0.0756,0 0.2938,3.4343 0.6635,10.311c-0.2855,0.0756 -1.2847,0.2605 -2.9893,0.5543c-0.0842,0 -0.3611,-2.1073 -0.8312,-6.3143c-0.0422,-0.1007 -0.2436,-1.6373 -0.6129,-4.6011z" fill="#000000"/><path d="M393.2659,149.19767c2.1241,0.5707 3.258,0.915 3.3837,1.0411c1.1672,1.6541 1.8307,2.6113 1.9733,2.8632c-0.7555,2.3932 -1.1923,3.5937 -1.3015,3.5937c-2.5189,0.5879 -3.8373,0.8817 -3.9548,0.8817c-2.0822,-1.2174 -3.1907,-1.8891 -3.325,-2.0321c-0.0756,-2.2584 -0.1093,-3.5095 -0.1093,-3.7448c-0.0337,-0.067 -0.0502,-0.1176 -0.0502,-0.1512c2.1496,-1.6373 3.2577,-2.4516 3.3333,-2.4516zM393.1061,152.27077c-0.0337,0.2268 -0.0838,1.0411 -0.1508,2.4434l1.8722,0.4198c0.445,-1.4022 0.6718,-2.1495 0.6718,-2.2419c-1.4861,-0.445 -2.2839,-0.6718 -2.3932,-0.6718z" fill="#000000"/><path d="M403.0732,149.18907c0.0756,0.0924 0.4532,1.7214 1.1335,4.8702h0.0588c0,-0.0756 0.4113,-0.7137 1.2428,-1.9228c0.3443,0.235 1.0074,0.7473 1.9815,1.528h0.1175v-0.0588c0.1512,-2.1829 0.2605,-3.392 0.3361,-3.6273c2.309,0.1178 3.4593,0.2099 3.4593,0.2855c-1.0579,4.2572 -1.6207,6.4655 -1.6963,6.6335c-0.3526,0.0419 -1.0913,0.1512 -2.2166,0.3357c-0.9236,-1.4524 -1.4527,-2.2252 -1.5871,-2.3172c-0.6043,1.6121 -0.9823,2.502 -1.1335,2.6615h-2.267c-0.1426,-0.0419 -0.7979,-1.5029 -1.9816,-4.3661c-0.7559,-1.6039 -1.1335,-2.4688 -1.1335,-2.6031c0,-0.1258 1.226,-0.5962 3.6861,-1.4191z" fill="#000000"/><path d="M420.4459,149.20586c0.0756,0.0086 0.1175,0.0506 0.1175,0.1176l-0.8731,4.8364c1.6709,-0.1931 2.5021,-0.3525 2.5021,-0.47c0.3106,-1.9396 0.5291,-3.023 0.6466,-3.258c2.0654,0.4281 3.2075,0.68 3.4343,0.7556c-1.2009,4.1396 -1.864,6.2892 -1.9819,6.4655c-2.1072,1.4778 -3.2913,2.2925 -3.5517,2.4519c-0.0756,0 -1.4191,-0.3275 -4.0219,-0.991v-0.0587c0.6886,-1.5197 1.1167,-2.2753 1.2848,-2.2753l2.5608,1.2847l1.2259,-2.0994c-1.0998,0.2773 -1.7465,0.4116 -1.9227,0.4116l-3.2663,-1.6963c0.3945,-3.6525 0.6463,-5.4746 0.7556,-5.4746z" fill="#000000"/><path d="M430.48,149.19767c2.1241,0.5707 3.258,0.915 3.3837,1.0411c1.1672,1.6541 1.8307,2.6113 1.9733,2.8632c-0.7555,2.3932 -1.1923,3.5937 -1.3015,3.5937c-2.5189,0.5879 -3.8373,0.8817 -3.9548,0.8817c-2.0822,-1.2174 -3.1907,-1.8891 -3.325,-2.0321c-0.0756,-2.2584 -0.1093,-3.5095 -0.1093,-3.7448c-0.0337,-0.067 -0.0502,-0.1176 -0.0502,-0.1512c2.1496,-1.6373 3.2577,-2.4516 3.3333,-2.4516zM430.3202,152.27077c-0.0337,0.2268 -0.0838,1.0411 -0.1508,2.4434l1.8722,0.4198c0.445,-1.4022 0.6718,-2.1495 0.6718,-2.2419c-1.4861,-0.445 -2.2839,-0.6718 -2.3932,-0.6718z" fill="#000000"/><path d="M441.1353,149.18907l0.0588,0.1093l-1.1336,6.0119h0.0588l2.8886,-0.848v-3.4006c0.0083,-0.0756 0.0502,-0.1175 0.1089,-0.1175c2.175,0.1512 3.3841,0.2268 3.6274,0.2268c0,0.0419 0.0168,0.0587 0.0587,0.0587c0,0.957 -0.302,2.9388 -0.9067,5.9532c0,0.1763 -0.8648,0.3024 -2.6028,0.3945c-0.0924,-0.1089 -0.168,-0.3357 -0.2267,-0.68c-2.2252,0.4535 -3.493,0.68 -3.8037,0.68c-1.7719,-1.3181 -2.6618,-1.9984 -2.6618,-2.0403c0.3024,-3.9717 0.4955,-6.0288 0.571,-6.18h0.0502c1.4191,-0.0419 2.7206,-0.0924 3.9129,-0.168z" fill="#000000"/><path d="M35.2651,164.56626l3.6944,0.6549l-0.3525,2.8044c0.7304,-0.0419 1.2678,-0.0587 1.6121,-0.0587h0.5374l0.1175,-0.0588l0.0588,0.1175c-0.1175,1.7046 -0.2182,2.6619 -0.3024,2.8718l-0.1175,-0.067c-0.0838,0 -0.8398,-0.0423 -2.2671,-0.1178c-0.0756,1.3183 -0.1343,2.8886 -0.1762,4.7189l-0.1175,0.0588c-1.8053,-0.1175 -2.8801,-0.2182 -3.2244,-0.302l0.0588,-0.2354c0,-0.4869 0.0756,-1.9984 0.235,-4.5341c-1.5115,-0.0839 -2.2671,-0.1849 -2.2671,-0.3024c0.0756,-1.8722 0.1763,-2.8044 0.3024,-2.8044l2.2083,0.4198v-0.7222c0,-0.5875 -0.0254,-1.3854 -0.0673,-2.3846c0.0419,0 0.0673,-0.0168 0.0673,-0.0587z" fill="#000000"/><path d="M45.2068,167.11057c2.1241,0.5707 3.2576,0.915 3.3837,1.0411c1.1672,1.6541 1.8304,2.6114 1.9733,2.8632c-0.7559,2.3932 -1.1923,3.5937 -1.3015,3.5937c-2.5189,0.5879 -3.8373,0.8817 -3.9548,0.8817c-2.0826,-1.2174 -3.1907,-1.8891 -3.325,-2.0321c-0.0756,-2.2584 -0.1093,-3.5095 -0.1093,-3.7448c-0.0337,-0.067 -0.0505,-0.1175 -0.0505,-0.1512c2.1495,-1.6373 3.258,-2.4516 3.3336,-2.4516zM45.047,170.18378c-0.0333,0.2267 -0.0838,1.0411 -0.1512,2.4433l1.8726,0.4199c0.445,-1.4023 0.6718,-2.1496 0.6718,-2.242c-1.4861,-0.445 -2.2839,-0.6718 -2.3932,-0.6718z" fill="#000000"/><path d="M58.1041,164.56626l3.6944,0.6549l-0.3526,2.8044c0.7305,-0.0419 1.2679,-0.0587 1.6122,-0.0587h0.5374l0.1175,-0.0588l0.0587,0.1175c-0.1175,1.7046 -0.2181,2.6619 -0.3023,2.8718l-0.1175,-0.067c-0.0839,0 -0.8398,-0.0423 -2.2671,-0.1178c-0.0756,1.3183 -0.1343,2.8886 -0.1763,4.7189l-0.1175,0.0588c-1.8052,-0.1175 -2.88,-0.2182 -3.2243,-0.302l0.0588,-0.2354c0,-0.4869 0.0756,-1.9984 0.235,-4.5341c-1.5115,-0.0839 -2.2671,-0.1849 -2.2671,-0.3024c0.0756,-1.8722 0.1763,-2.8044 0.3024,-2.8044l2.2083,0.4198v-0.7222c0,-0.5875 -0.0254,-1.3854 -0.0674,-2.3846c0.042,0 0.0674,-0.0168 0.0674,-0.0587z" fill="#2b70c2"/><path d="M68.4234,164.56626c0.0336,0.0505 0.1931,1.5871 0.4704,4.6014c2.1577,-0.6635 3.3081,-0.9909 3.4511,-0.9909l2.1409,1.461c-0.3443,3.191 -0.5711,5.055 -0.68,5.5924l-2.9724,0.1007c0,-0.0337 -0.0169,-0.0506 -0.0588,-0.0506l0.0588,-0.2099c0,-0.4532 0.067,-1.8303 0.2013,-4.1311c-0.8143,-0.0333 -1.4273,-0.0501 -1.8221,-0.0501h-0.2099c0.2436,2.5608 0.3611,3.9548 0.3611,4.1812l-2.8213,0.4199c-0.1089,-0.3608 -0.7305,-3.703 -1.8808,-10.0338c0,-0.1766 0.4367,-0.3192 1.3101,-0.4198c1.0999,-0.311 1.9228,-0.4704 2.4516,-0.4704z" fill="#2b70c2"/><path d="M81.3038,167.10197c1.1085,0.6216 1.7888,1.0246 2.0407,1.2091c-0.9071,1.8895 -1.394,2.8468 -1.461,2.8801h-0.0588l-1.2008,-1.0494l-1.4191,1.7297l0.1594,3.1488c-0.0756,0.0669 -0.9992,0.2267 -2.779,0.47c-0.0673,-0.4786 -0.5041,-2.8381 -1.3101,-7.0781c0,-0.0674 1.1672,-0.2436 3.5098,-0.5209c0.0419,0.0422 0.143,0.571 0.3192,1.5702c1.4022,-1.5702 2.1327,-2.3595 2.1997,-2.3595z" fill="#2b70c2"/><path d="M87.3917,167.11057c2.1241,0.5707 3.2577,0.915 3.3838,1.0411c1.1672,1.6541 1.8303,2.6114 1.9733,2.8632c-0.756,2.3932 -1.1923,3.5937 -1.3016,3.5937c-2.5189,0.5879 -3.8373,0.8817 -3.9548,0.8817c-2.0826,-1.2174 -3.1907,-1.8891 -3.325,-2.0321c-0.0756,-2.2584 -0.1093,-3.5095 -0.1093,-3.7448c-0.0337,-0.067 -0.0505,-0.1175 -0.0505,-0.1512c2.1496,-1.6373 3.258,-2.4516 3.3336,-2.4516zM87.2319,170.18378c-0.0333,0.2267 -0.0838,1.0411 -0.1512,2.4433l1.8727,0.4199c0.4449,-1.4023 0.6717,-2.1496 0.6717,-2.242c-1.4861,-0.445 -2.2839,-0.6718 -2.3932,-0.6718z" fill="#2b70c2"/><path d="M97.199,167.10197c0.0756,0.0925 0.4532,1.7215 1.1336,4.8702h0.0587c0,-0.0756 0.4113,-0.7137 1.2425,-1.9228c0.3442,0.235 1.0077,0.7473 1.9818,1.528h0.1176v-0.0588c0.1511,-2.1828 0.26,-3.392 0.3356,-3.6273c2.3094,0.1178 3.4597,0.2099 3.4597,0.2855c-1.0583,4.2572 -1.6207,6.4655 -1.6963,6.6335c-0.3525,0.0419 -1.0916,0.1512 -2.2166,0.3357c-0.9235,-1.4524 -1.4527,-2.2251 -1.587,-2.3172c-0.6044,1.6121 -0.9824,2.5021 -1.1336,2.6615h-2.267c-0.143,-0.0419 -0.7979,-1.5029 -1.9816,-4.3661c-0.7559,-1.6039 -1.1335,-2.4688 -1.1335,-2.6031c0,-0.1258 1.2256,-0.5962 3.6861,-1.4191z" fill="#2b70c2"/><path d="M113.9756,167.10197c1.3685,3.1488 2.099,4.7778 2.1914,4.8953c0.68,-2.5695 1.0748,-3.938 1.1841,-4.106c2.1409,0.1931 3.2075,0.3611 3.2075,0.504v0.0588c-1.5033,4.1228 -2.3094,6.2806 -2.4183,6.4737c-1.6541,0.3024 -2.7625,0.4869 -3.3253,0.5625l-4.1057,-6.0789v-0.1179c0.0419,-0.0752 1.1249,-0.8061 3.2663,-2.1915z" fill="#2b70c2"/><path d="M122.7332,167.10197c3.325,0.4618 4.9877,0.7391 4.9877,0.848c1.3097,1.1253 1.9646,1.7301 1.9646,1.8056c-0.5287,1.6624 -0.8311,2.6701 -0.9067,3.0309c0.5291,1.1841 0.8312,1.8895 0.9067,2.1162c0,0.067 -0.8648,0.2433 -2.6027,0.5374c-0.0254,-0.0924 -0.1849,-0.3106 -0.4786,-0.6384c-2.3932,0.4622 -3.6862,0.6886 -3.871,0.6886l-1.2761,-3.4508l2.8127,-1.4864c0.4535,0.0756 1.1586,0.1093 2.1244,0.1093c0,-0.1261 0.0169,-0.4955 0.0502,-1.1167c-0.1594,0 -1.6122,0.1089 -4.3493,0.3189l-0.0505,-0.109c0.378,-1.7719 0.613,-2.6536 0.6886,-2.6536zM124.4797,172.03947c0,0.0588 0.1763,0.7137 0.5374,1.9647h0.0505c0.705,-0.4618 1.0579,-0.7641 1.0579,-0.9067l0.1089,-0.8985c-0.1343,0 -0.7218,-0.0505 -1.7547,-0.1595z" fill="#2b70c2"/><path d="M136.5204,167.10197c1.1084,0.6216 1.7888,1.0246 2.0406,1.2091c-0.9071,1.8895 -1.3939,2.8468 -1.4609,2.8801h-0.0588l-1.2009,-1.0494l-1.419,1.7297l0.1594,3.1488c-0.0756,0.0669 -0.9992,0.2267 -2.779,0.47c-0.0674,-0.4786 -0.5041,-2.8381 -1.3102,-7.0781c0,-0.0674 1.1672,-0.2436 3.5099,-0.5209c0.0419,0.0422 0.1429,0.571 0.3192,1.5702c1.4022,-1.5702 2.1327,-2.3595 2.1997,-2.3595z" fill="#2b70c2"/><path d="M140.3831,163.73508l3.3,0.5206c-0.4117,1.587 -0.6886,2.3763 -0.8147,2.3763c-1.7379,-0.1175 -2.6028,-0.235 -2.6028,-0.3443v-2.4351c0.0165,-0.0756 0.0588,-0.1175 0.1175,-0.1175zM139.4595,167.73178h0.0502c2.5526,0.4618 3.8291,0.7391 3.8291,0.8147c-0.7305,4.1562 -1.1758,6.4652 -1.3353,6.9438h-2.6618c-0.0756,0 -0.1175,-0.0419 -0.1175,-0.1175z" fill="#2b70c2"/><path d="M147.3437,167.11057c2.1245,0.5707 3.258,0.915 3.3842,1.0411c1.1668,1.6541 1.8303,2.6114 1.9729,2.8632c-0.7556,2.3932 -1.1923,3.5937 -1.3012,3.5937c-2.5193,0.5879 -3.8373,0.8817 -3.9548,0.8817c-2.0826,-1.2174 -3.191,-1.8891 -3.3254,-2.0321c-0.0756,-2.2584 -0.1089,-3.5095 -0.1089,-3.7448c-0.0337,-0.067 -0.0505,-0.1175 -0.0505,-0.1512c2.1495,-1.6373 3.258,-2.4516 3.3336,-2.4516zM147.1843,170.18378c-0.0337,0.2267 -0.0838,1.0411 -0.1512,2.4433l1.8726,0.4199c0.445,-1.4023 0.6718,-2.1496 0.6718,-2.242c-1.4864,-0.445 -2.2839,-0.6718 -2.3932,-0.6718z" fill="#2b70c2"/><path d="M157.9994,167.10197l0.0588,0.1093l-1.1336,6.0119h0.0588l2.8883,-0.848v-3.4006c0.0082,-0.0756 0.0505,-0.1175 0.1092,-0.1175c2.1747,0.1512 3.3838,0.2268 3.6274,0.2268c0,0.0419 0.0169,0.0588 0.0588,0.0588c0,0.9569 -0.3024,2.9388 -0.9068,5.9531c0,0.1763 -0.8648,0.3024 -2.6031,0.3945c-0.0924,-0.1089 -0.168,-0.3357 -0.2268,-0.68c-2.2251,0.4536 -3.493,0.68 -3.8036,0.68c-1.7716,-1.318 -2.6619,-1.9984 -2.6619,-2.0403c0.3024,-3.9716 0.4955,-6.0288 0.5711,-6.18h0.0505c1.4191,-0.0419 2.7203,-0.0924 3.9129,-0.168z" fill="#2b70c2"/><path d="M171.2912,167.10197c1.6121,1.0329 2.502,1.6208 2.6701,1.7802c-0.5793,1.293 -0.915,1.9396 -0.9992,1.9396l-3.0563,-1.7716h-0.1093c0,0.0588 -0.1343,0.3694 -0.3944,0.9405c2.8127,1.5197 4.2235,2.2921 4.2235,2.334c-0.7893,1.8221 -1.2346,2.788 -1.3353,2.8887l-4.7777,0.2769c-1.8554,-1.2342 -2.8549,-1.8809 -2.9975,-1.9479v-0.0505c0,-0.1426 0.2769,-0.7724 0.8311,-1.8891l3.7284,1.9396l0.277,-1.1084c-2.309,-1.0329 -3.6779,-1.6792 -4.1143,-1.9396v-0.1175c0,-0.21 0.445,-1.1586 1.3349,-2.8299z" fill="#2b70c2"/><path d="M183.2731,167.11057c0.1766,0.7137 0.2941,1.1586 0.3611,1.3267c2.477,-0.5625 3.7786,-0.848 3.9215,-0.848c1.6874,2.4264 2.5272,3.6861 2.5272,3.795l-1.931,4.0977l-4.1565,-0.6634v0.1261c0.3274,2.4938 0.4868,3.8122 0.4868,3.9716c-0.0419,0 -0.0587,0.0168 -0.0587,0.0588c-0.4031,-0.042 -0.7051,-0.0588 -0.9068,-0.0588h-0.7222c-0.4195,0 -1.0662,-0.0168 -1.931,-0.0587c-0.0756,-0.2351 -0.6804,-3.8123 -1.8053,-10.7227c0.1931,-0.0756 1.5953,-0.4199 4.2149,-1.0243zM183.5755,170.54488c0.1093,1.2847 0.2099,1.931 0.3024,1.931c1.1503,0.3948 1.8471,0.5961 2.1076,0.5961l0.6631,-2.8882h-0.0587c-0.6549,0.0419 -1.6623,0.1594 -3.0144,0.3611z" fill="#2b70c2"/><path d="M196.9765,167.10197c1.1084,0.6216 1.7888,1.0246 2.0406,1.2091c-0.9071,1.8895 -1.3939,2.8468 -1.4609,2.8801h-0.0588l-1.2009,-1.0494l-1.419,1.7297l0.1594,3.1488c-0.0756,0.0669 -0.9992,0.2267 -2.779,0.47c-0.0674,-0.4786 -0.5041,-2.8381 -1.3102,-7.0781c0,-0.0674 1.1672,-0.2436 3.5099,-0.5209c0.0419,0.0422 0.1429,0.571 0.3192,1.5702c1.4022,-1.5702 2.1327,-2.3595 2.1997,-2.3595z" fill="#2b70c2"/><path d="M203.0644,167.11057c2.1241,0.5707 3.2576,0.915 3.3837,1.0411c1.1672,1.6541 1.8304,2.6114 1.9733,2.8632c-0.7559,2.3932 -1.1923,3.5937 -1.3015,3.5937c-2.5189,0.5879 -3.8373,0.8817 -3.9548,0.8817c-2.0826,-1.2174 -3.1907,-1.8891 -3.325,-2.0321c-0.0756,-2.2584 -0.1093,-3.5095 -0.1093,-3.7448c-0.0337,-0.067 -0.0505,-0.1175 -0.0505,-0.1512c2.1495,-1.6373 3.258,-2.4516 3.3336,-2.4516zM202.9046,170.18378c-0.0333,0.2267 -0.0838,1.0411 -0.1512,2.4433l1.8726,0.4199c0.445,-1.4023 0.6718,-2.1496 0.6718,-2.242c-1.4861,-0.445 -2.2839,-0.6718 -2.3932,-0.6718z" fill="#2b70c2"/><path d="M217.8927,163.59218l3.3085,0.5209c-0.4116,1.5867 -0.6886,2.3845 -0.8147,2.3845c-1.7379,-0.1175 -2.6113,-0.235 -2.6113,-0.3528v-2.4348c0.0082,-0.0756 0.0505,-0.1178 0.1175,-0.1178zM216.9609,167.13566l4.0049,1.0411c-0.8143,4.7021 -1.2592,7.196 -1.3348,7.4901c-0.1763,0.1594 -1.604,0.8731 -4.2909,2.1496c-2.1409,-1.0078 -3.4511,-1.6459 -3.9462,-1.9146c-0.546,-2.0739 -0.8566,-3.2161 -0.9322,-3.426c0.0756,-0.0756 1.184,-0.3862 3.3082,-0.9318c0,0.0419 0.0168,0.0587 0.0587,0.0587c-0.0419,0.0756 -0.0587,0.1344 -0.0587,0.1763c0,0.2604 -0.0756,1.1754 -0.2351,2.7288c1.8727,-0.235 2.9976,-0.3862 3.3673,-0.4618v-1.5114c0,-0.0921 -0.0168,-0.1677 -0.0505,-0.2351l0.0505,-0.1175c-0.0337,-0.0673 -0.0505,-0.1426 -0.0505,-0.2267h0.0505l-0.0505,-0.1176v-0.0587c0,-0.0419 0.0168,-0.0588 0.0505,-0.0588l-0.0505,-0.1175v-0.0587c0,-0.0419 0.0168,-0.0588 0.0505,-0.0588l-0.0505,-0.1093v-4.1228c0.0082,-0.0756 0.0505,-0.1175 0.1093,-0.1175z" fill="#2b70c2"/><path d="M226.8771,167.11057c2.5358,1.3016 3.9383,2.0654 4.2153,2.2839c-0.3612,1.7046 -0.5793,2.5777 -0.6467,2.6282h-5.3065v0.0921l1.486,1.8389l2.3345,-1.1923c0.2267,0.3948 0.5624,1.0916 0.9905,2.0826c-0.2013,0.067 -1.6709,0.2855 -4.408,0.6463c-2.267,-1.4947 -3.4092,-2.2753 -3.426,-2.3341c0.3611,-2.9054 0.5793,-4.3578 0.6467,-4.3578c2.3677,-1.0078 3.7366,-1.5703 4.1142,-1.6878zM226.3315,169.14268c-0.0419,0.1089 -0.3443,0.5538 -0.8899,1.3348c0,0.2351 0.3274,0.3529 0.9905,0.3529c0,0.0333 0.4787,0.1175 1.4359,0.2433c0.2605,-0.3611 0.3948,-0.5793 0.3948,-0.6381c-0.0841,-0.4955 -0.2687,-0.7473 -0.5459,-0.7473z" fill="#2b70c2"/><path d="M235.1564,167.11057c2.5272,0.4787 3.8456,0.7474 3.9631,0.8143v0.1007c-0.5456,1.5366 -0.8143,2.3262 -0.8143,2.3849h-0.0505c-0.1426,0 -0.8144,-0.2185 -2.0321,-0.6549c-0.6799,1.1336 -1.016,1.7466 -1.016,1.8218l1.6795,1.629c1.3016,-1.2174 1.9565,-1.8304 1.9815,-1.8304c1.0161,1.3267 1.5198,2.074 1.5198,2.2334c-0.5542,0.3192 -1.5198,0.9491 -2.8969,1.8809c-2.6615,-0.5793 -4.106,-0.8982 -4.3159,-0.9655l-1.3181,-4.2654z" fill="#2b70c2"/><path d="M243.7378,164.56626l3.6944,0.6549l-0.3526,2.8044c0.7305,-0.0419 1.2679,-0.0587 1.6122,-0.0587h0.5374l0.1175,-0.0588l0.0588,0.1175c-0.1176,1.7046 -0.2182,2.6619 -0.3024,2.8718l-0.1175,-0.067c-0.0839,0 -0.8394,-0.0423 -2.2671,-0.1178c-0.0756,1.3183 -0.1343,2.8886 -0.1762,4.7189l-0.1176,0.0588c-1.8052,-0.1175 -2.88,-0.2182 -3.2243,-0.302l0.0588,-0.2354c0,-0.4869 0.0756,-1.9984 0.235,-4.5341c-1.5115,-0.0839 -2.2671,-0.1849 -2.2671,-0.3024c0.0756,-1.8722 0.1763,-2.8044 0.3024,-2.8044l2.2083,0.4198v-0.7222c0,-0.5875 -0.0251,-1.3854 -0.0673,-2.3846c0.0422,0 0.0673,-0.0168 0.0673,-0.0587z" fill="#2b70c2"/><path d="M251.4543,163.73508l3.3,0.5206c-0.4117,1.587 -0.6886,2.3763 -0.8147,2.3763c-1.7379,-0.1175 -2.6028,-0.235 -2.6028,-0.3443v-2.4351c0.0169,-0.0756 0.0588,-0.1175 0.1175,-0.1175zM250.5307,167.73178h0.0502c2.5526,0.4618 3.8291,0.7391 3.8291,0.8147c-0.7305,4.1562 -1.1755,6.4652 -1.3353,6.9438h-2.6615c-0.0756,0 -0.1175,-0.0419 -0.1175,-0.1175z" fill="#2b70c2"/><path d="M255.0312,164.57486c1.7132,0.0333 2.9725,0.0501 3.7703,0.0501c0.0756,0 0.2938,3.4343 0.6631,10.3111c-0.2855,0.0756 -1.2847,0.2604 -2.9889,0.5542c-0.0842,0 -0.3611,-2.1073 -0.8315,-6.3143c-0.0419,-0.1007 -0.2433,-1.6373 -0.613,-4.6011z" fill="#2b70c2"/><path d="M265.166,167.11057c2.5357,1.3016 3.9383,2.0654 4.2152,2.2839c-0.3611,1.7046 -0.5793,2.5777 -0.6466,2.6282h-5.3066v0.0921l1.4861,1.8389l2.3344,-1.1923c0.2268,0.3948 0.5625,1.0916 0.9906,2.0826c-0.2013,0.067 -1.6709,0.2855 -4.408,0.6463c-2.2671,-1.4947 -3.4092,-2.2753 -3.426,-2.3341c0.3611,-2.9054 0.5793,-4.3578 0.6466,-4.3578c2.3678,-1.0078 3.7367,-1.5703 4.1143,-1.6878zM264.6203,169.14268c-0.0419,0.1089 -0.3443,0.5538 -0.8899,1.3348c0,0.2351 0.3275,0.3529 0.9906,0.3529c0,0.0333 0.4786,0.1175 1.4359,0.2433c0.2605,-0.3611 0.3948,-0.5793 0.3948,-0.6381c-0.0842,-0.4955 -0.2687,-0.7473 -0.546,-0.7473z" fill="#2b70c2"/><path d="M276.9215,167.10197c1.6122,1.0329 2.5021,1.6208 2.6701,1.7802c-0.5793,1.293 -0.9154,1.9396 -0.9992,1.9396l-3.0563,-1.7716h-0.1093c0,0.0588 -0.1343,0.3694 -0.3948,0.9405c2.8131,1.5197 4.2235,2.2921 4.2235,2.334c-0.7892,1.8221 -1.2342,2.788 -1.3348,2.8887l-4.7778,0.2769c-1.8557,-1.2342 -2.8549,-1.8809 -2.9975,-1.9479v-0.0505c0,-0.1426 0.2769,-0.7724 0.8312,-1.8891l3.728,1.9396l0.2773,-1.1084c-2.3094,-1.0329 -3.6779,-1.6792 -4.1146,-1.9396v-0.1175c0,-0.21 0.4453,-1.1586 1.3352,-2.8299z" fill="#2b70c2"/><path d="M281.59,173.67678c1.5197,0.1762 2.2839,0.2769 2.2925,0.3024c-0.924,2.1746 -1.4445,3.3164 -1.5535,3.4256c-0.7641,-0.0924 -1.1421,-0.1762 -1.1421,-0.235c0.2017,-2.3258 0.3275,-3.493 0.3694,-3.493z" fill="#000000"/><path d="M290.5156,163.73508l3.2999,0.5206c-0.4113,1.587 -0.6885,2.3763 -0.8143,2.3763c-1.7383,-0.1175 -2.6031,-0.235 -2.6031,-0.3443v-2.4351c0.0168,-0.0756 0.0588,-0.1175 0.1175,-0.1175zM289.592,167.73178h0.0505c2.5526,0.4618 3.8287,0.7391 3.8287,0.8147c-0.7305,4.1562 -1.1754,6.4652 -1.3348,6.9438h-2.6619c-0.0756,0 -0.1175,-0.0419 -0.1175,-0.1175z" fill="#000000"/><path d="M301.5489,167.10197l2.7962,1.9228c-0.1931,3.191 -0.3361,5.055 -0.4116,5.5924c-0.3275,0.0419 -1.3098,0.1007 -2.9639,0.1763l-0.0588,-0.1175l-0.2941,-4.484l-0.1175,-0.0588c-1.0662,0.2268 -1.8053,0.4031 -2.2083,0.5206c0.1093,1.9063 0.168,3.2917 0.168,4.1397c-1.6709,0.4618 -2.5777,0.6968 -2.7374,0.6968c-1.0831,-4.7777 -1.6287,-7.3049 -1.6287,-7.5736c2.3591,-0.3106 3.6439,-0.4618 3.8456,-0.4618v0.0588c0.0419,0.025 0.1006,0.6129 0.1762,1.7465c2.1664,-1.4359 3.3082,-2.1582 3.4343,-2.1582z" fill="#000000"/><path d="M311.9524,164.56626l3.6947,0.6549l-0.3529,2.8044c0.7305,-0.0419 1.2679,-0.0587 1.6121,-0.0587h0.5374l0.1175,-0.0588l0.0588,0.1175c-0.1175,1.7046 -0.2182,2.6619 -0.302,2.8718l-0.1175,-0.067c-0.0842,0 -0.8398,-0.0423 -2.2674,-0.1178c-0.0756,1.3183 -0.1344,2.8886 -0.1763,4.7189l-0.1175,0.0588c-1.8053,-0.1175 -2.88,-0.2182 -3.2243,-0.302l0.0587,-0.2354c0,-0.4869 0.0756,-1.9984 0.235,-4.5341c-1.5111,-0.0839 -2.267,-0.1849 -2.267,-0.3024c0.0756,-1.8722 0.1762,-2.8044 0.3023,-2.8044l2.2084,0.4198v-0.7222c0,-0.5875 -0.0251,-1.3854 -0.067,-2.3846c0.0419,0 0.067,-0.0168 0.067,-0.0587z" fill="#000000"/><path d="M322.272,164.56626c0.0333,0.0505 0.1931,1.5871 0.47,4.6014c2.1582,-0.6635 3.3085,-0.9909 3.4511,-0.9909l2.1413,1.461c-0.3443,3.191 -0.571,5.055 -0.6803,5.5924l-2.9725,0.1007c0,-0.0337 -0.0168,-0.0506 -0.0587,-0.0506l0.0587,-0.2099c0,-0.4532 0.0674,-1.8303 0.2017,-4.1311c-0.8147,-0.0333 -1.4276,-0.0501 -1.8221,-0.0501h-0.2099c0.2436,2.5608 0.3611,3.9548 0.3611,4.1812l-2.8213,0.4199c-0.1092,-0.3608 -0.7305,-3.703 -1.8808,-10.0338c0,-0.1766 0.4367,-0.3192 1.3098,-0.4198c1.0998,-0.311 1.9227,-0.4704 2.4519,-0.4704z" fill="#000000"/><path d="M330.2823,163.73508l3.2999,0.5206c-0.4113,1.587 -0.6886,2.3763 -0.8143,2.3763c-1.7383,-0.1175 -2.6031,-0.235 -2.6031,-0.3443v-2.4351c0.0168,-0.0756 0.0587,-0.1175 0.1175,-0.1175zM329.3587,167.73178h0.0505c2.5526,0.4618 3.8287,0.7391 3.8287,0.8147c-0.7305,4.1562 -1.1754,6.4652 -1.3349,6.9438h-2.6618c-0.0756,0 -0.1175,-0.0419 -0.1175,-0.1175z" fill="#000000"/><path d="M340.6356,167.10197c1.6122,1.0329 2.5021,1.6208 2.6701,1.7802c-0.5793,1.293 -0.9154,1.9396 -0.9992,1.9396l-3.0567,-1.7716h-0.1089c0,0.0588 -0.1343,0.3694 -0.3948,0.9405c2.8131,1.5197 4.2235,2.2921 4.2235,2.334c-0.7892,1.8221 -1.2342,2.788 -1.3348,2.8887l-4.7778,0.2769c-1.8557,-1.2342 -2.8549,-1.8809 -2.9975,-1.9479v-0.0505c0,-0.1426 0.2769,-0.7724 0.8312,-1.8891l3.728,1.9396l0.2773,-1.1084c-2.3094,-1.0329 -3.6779,-1.6792 -4.1146,-1.9396v-0.1175c0,-0.21 0.4449,-1.1586 1.3352,-2.8299z" fill="#000000"/><path d="M351.7022,167.11057c2.5275,0.4787 3.8459,0.7474 3.9634,0.8143v0.1007c-0.546,1.5366 -0.8147,2.3262 -0.8147,2.3849h-0.0501c-0.143,0 -0.8147,-0.2185 -2.0321,-0.6549c-0.6803,1.1336 -1.016,1.7466 -1.016,1.8218l1.6792,1.629c1.3015,-1.2174 1.9564,-1.8304 1.9818,-1.8304c1.0161,1.3267 1.5198,2.074 1.5198,2.2334c-0.5542,0.3192 -1.5198,0.9491 -2.8969,1.8809c-2.6619,-0.5793 -4.106,-0.8982 -4.3159,-0.9655l-1.3184,-4.2654z" fill="#000000"/><path d="M359.0494,167.10197c3.325,0.4618 4.9876,0.7391 4.9876,0.848c1.3098,1.1253 1.9647,1.7301 1.9647,1.8056c-0.5288,1.6624 -0.8311,2.6701 -0.9067,3.0309c0.5291,1.1841 0.8311,1.8895 0.9067,2.1162c0,0.067 -0.8648,0.2433 -2.6027,0.5374c-0.0255,-0.0924 -0.1849,-0.3106 -0.4787,-0.6384c-2.3931,0.4622 -3.6861,0.6886 -3.8709,0.6886l-1.2762,-3.4508l2.8127,-1.4864c0.4536,0.0756 1.1586,0.1093 2.1245,0.1093c0,-0.1261 0.0168,-0.4955 0.0502,-1.1167c-0.1595,0 -1.6122,0.1089 -4.3493,0.3189l-0.0505,-0.109c0.3779,-1.7719 0.613,-2.6536 0.6886,-2.6536zM360.7959,172.03947c0,0.0588 0.1762,0.7137 0.5374,1.9647h0.0505c0.705,-0.4618 1.0579,-0.7641 1.0579,-0.9067l0.1089,-0.8985c-0.1343,0 -0.7219,-0.0505 -1.7547,-0.1595z" fill="#000000"/><path d="M373.5839,167.10197c1.6122,1.0329 2.5024,1.6208 2.6701,1.7802c-0.5793,1.293 -0.915,1.9396 -0.9992,1.9396l-3.0563,-1.7716h-0.1093c0,0.0588 -0.1343,0.3694 -0.3944,0.9405c2.8127,1.5197 4.2235,2.2921 4.2235,2.334c-0.7892,1.8221 -1.2342,2.788 -1.3352,2.8887l-4.7778,0.2769c-1.8554,-1.2342 -2.8546,-1.8809 -2.9975,-1.9479v-0.0505c0,-0.1426 0.2773,-0.7724 0.8315,-1.8891l3.7281,1.9396l0.2769,-1.1084c-2.309,-1.0329 -3.6775,-1.6792 -4.1143,-1.9396v-0.1175c0,-0.21 0.445,-1.1586 1.3349,-2.8299z" fill="#000000"/><path d="M381.8464,167.11057c2.5358,1.3016 3.938,2.0654 4.2149,2.2839c-0.3607,1.7046 -0.5793,2.5777 -0.6463,2.6282h-5.3069v0.0921l1.4865,1.8389l2.334,-1.1923c0.2268,0.3948 0.5628,1.0916 0.9909,2.0826c-0.2017,0.067 -1.6709,0.2855 -4.4083,0.6463c-2.2671,-1.4947 -3.4088,-2.2753 -3.4257,-2.3341c0.3611,-2.9054 0.5793,-4.3578 0.6463,-4.3578c2.3681,-1.0078 3.7366,-1.5703 4.1146,-1.6878zM381.3004,169.14268c-0.0419,0.1089 -0.3443,0.5538 -0.8899,1.3348c0,0.2351 0.3275,0.3529 0.991,0.3529c0,0.0333 0.4786,0.1175 1.4355,0.2433c0.2604,-0.3611 0.3948,-0.5793 0.3948,-0.6381c-0.0838,-0.4955 -0.2687,-0.7473 -0.5456,-0.7473z" fill="#000000"/><path d="M387.9927,173.67678c1.5197,0.1762 2.2839,0.2769 2.2925,0.3024c-0.924,2.1746 -1.4445,3.3164 -1.5534,3.4256c-0.7642,-0.0924 -1.1422,-0.1762 -1.1422,-0.235c0.2017,-2.3258 0.3275,-3.493 0.3694,-3.493z" fill="#000000"/><path d="M399.2527,164.56626c0.2938,0.0336 1.3768,0.2855 3.2412,0.7473l0.0502,0.1007c-0.277,1.5283 -0.4367,2.2925 -0.4955,2.2925h-0.0502l-1.352,-0.6972c0,0.1598 -0.0502,0.8566 -0.1512,2.0994l1.8475,-0.4536c0.0588,0.1681 0.1089,0.9154 0.1512,2.242c-0.1763,0.0674 -0.7978,0.168 -1.8475,0.3024c0.2354,1.0074 0.4872,2.242 0.7473,3.6943c-0.8648,0.1931 -1.8891,0.3948 -3.09,0.5962l-0.0501,-0.1007c-0.1598,-2.5945 -0.2856,-3.8874 -0.3948,-3.8874c-1.083,0.2601 -1.671,0.4112 -1.7465,0.4449c-0.067,-0.3274 -0.1845,-1.2091 -0.3526,-2.645l0.1007,-0.0505h1.797c-0.101,-0.8312 -0.2522,-1.906 -0.4535,-3.2412z" fill="#2b70c2"/><path d="M404.4754,163.73508l3.3,0.5206c-0.4117,1.587 -0.6886,2.3763 -0.8147,2.3763c-1.7379,-0.1175 -2.6028,-0.235 -2.6028,-0.3443v-2.4351c0.0169,-0.0756 0.0588,-0.1175 0.1175,-0.1175zM403.5518,167.73178h0.0502c2.5526,0.4618 3.8291,0.7391 3.8291,0.8147c-0.7305,4.1562 -1.1755,6.4652 -1.3353,6.9438h-2.6615c-0.0756,0 -0.1175,-0.0419 -0.1175,-0.1175z" fill="#2b70c2"/><path d="M414.0811,167.10197c1.1084,0.6216 1.7887,1.0246 2.0406,1.2091c-0.9067,1.8895 -1.394,2.8468 -1.461,2.8801h-0.0587l-1.2009,-1.0494l-1.4191,1.7297l0.1595,3.1488c-0.0756,0.0669 -0.9992,0.2267 -2.7791,0.47c-0.0673,-0.4786 -0.504,-2.8381 -1.3101,-7.0781c0,-0.0674 1.1672,-0.2436 3.5098,-0.5209c0.042,0.0422 0.143,0.571 0.3193,1.5702c1.4022,-1.5702 2.1327,-2.3595 2.1997,-2.3595z" fill="#2b70c2"/><path d="M421.5457,167.11057c2.5358,1.3016 3.938,2.0654 4.2153,2.2839c-0.3611,1.7046 -0.5793,2.5777 -0.6467,2.6282h-5.3065v0.0921l1.4861,1.8389l2.3344,-1.1923c0.2268,0.3948 0.5625,1.0916 0.9906,2.0826c-0.2014,0.067 -1.6709,0.2855 -4.408,0.6463c-2.2671,-1.4947 -3.4092,-2.2753 -3.4261,-2.3341c0.3612,-2.9054 0.5793,-4.3578 0.6467,-4.3578c2.3677,-1.0078 3.7366,-1.5703 4.1142,-1.6878zM421.0001,169.14268c-0.0419,0.1089 -0.3443,0.5538 -0.8903,1.3348c0,0.2351 0.3278,0.3529 0.991,0.3529c0,0.0333 0.4786,0.1175 1.4359,0.2433c0.2601,-0.3611 0.3944,-0.5793 0.3944,-0.6381c-0.0838,-0.4955 -0.2687,-0.7473 -0.5456,-0.7473z" fill="#2b70c2"/><path d="M426.6258,172.90438c0.042,0.0251 0.9154,0.0921 2.62,0.2013l0.0337,0.0674c-0.2605,1.5448 -0.4285,2.3172 -0.5041,2.3172h-1.9479c-0.0673,0 -0.1597,-0.7724 -0.2687,-2.3172c-0.025,0 -0.0336,-0.0674 -0.0336,-0.2017c0.067,-0.0251 0.1006,-0.0419 0.1006,-0.067z" fill="#000000"/><path d="M38.8502,182.47918l3.6611,2.7038c-0.5038,2.3007 -0.823,3.4511 -0.9573,3.4511c-0.0251,0 -0.6968,0.5624 -2.0152,1.696c-0.8143,-0.042 -1.7548,-0.0925 -2.8045,-0.1595l-0.1092,3.0227c-0.2264,0.0673 -1.2174,0.1343 -2.9721,0.2099c-0.21,0 -0.3192,-0.6044 -0.3192,-1.8053c-0.3863,-4.979 -0.5794,-7.666 -0.5794,-8.0608c0.6549,-0.1426 2.687,-0.4954 6.0958,-1.0579zM36.5749,184.86377v3.5016c1.3772,-0.2436 2.0654,-0.3862 2.0654,-0.4281l0.4786,-2.0658c-0.68,-0.2773 -1.528,-0.6129 -2.544,-1.0077z" fill="#000000"/><path d="M49.4973,185.01488c1.1084,0.6216 1.7884,1.0247 2.0403,1.2092c-0.9068,1.8894 -1.3937,2.8467 -1.461,2.88h-0.0588l-1.2005,-1.0493l-1.419,1.7296l0.1594,3.1488c-0.0756,0.067 -0.9992,0.2267 -2.7794,0.47c-0.067,-0.4786 -0.5037,-2.8381 -1.3098,-7.0781c0,-0.0674 1.1672,-0.2436 3.5099,-0.5209c0.0419,0.0423 0.1426,0.5711 0.3192,1.5702c1.4022,-1.5702 2.1327,-2.3595 2.1997,-2.3595z" fill="#000000"/><path d="M56.962,185.02348c2.5357,1.3016 3.9379,2.0654 4.2152,2.2839c-0.3611,1.7046 -0.5793,2.5777 -0.6466,2.6282h-5.3065v0.0921l1.486,1.8389l2.3344,-1.1922c0.2264,0.3948 0.5625,1.0916 0.9906,2.0825c-0.2013,0.067 -1.6709,0.2855 -4.408,0.6463c-2.2674,-1.4946 -3.4092,-2.2753 -3.426,-2.334c0.3611,-2.9055 0.5793,-4.3579 0.6466,-4.3579c2.3678,-1.0078 3.7363,-1.5702 4.1143,-1.6878zM56.4163,187.05557c-0.0422,0.1089 -0.3442,0.5539 -0.8902,1.3349c0,0.235 0.3274,0.3528 0.9909,0.3528c0,0.0334 0.4786,0.1175 1.4359,0.2433c0.2601,-0.3611 0.3944,-0.5793 0.3944,-0.6381c-0.0838,-0.4954 -0.2686,-0.7473 -0.5456,-0.7473z" fill="#000000"/><path d="M68.7175,185.01488c1.6122,1.0329 2.5021,1.6208 2.6701,1.7802c-0.5793,1.293 -0.9154,1.9396 -0.9992,1.9396l-3.0566,-1.7715h-0.109c0,0.0587 -0.1343,0.3693 -0.3948,0.9404c2.8131,1.5197 4.2235,2.2921 4.2235,2.334c-0.7892,1.8221 -1.2342,2.788 -1.3348,2.8887l-4.7778,0.2769c-1.8557,-1.2342 -2.8549,-1.8809 -2.9975,-1.9478v-0.0506c0,-0.1425 0.2769,-0.7724 0.8312,-1.8891l3.728,1.9397l0.2773,-1.1085c-2.3093,-1.0329 -3.6779,-1.6792 -4.1146,-1.9396v-0.1175c0,-0.21 0.4449,-1.1586 1.3352,-2.8299z" fill="#000000"/><path d="M78.9949,185.01488c1.6121,1.0329 2.502,1.6208 2.6701,1.7802c-0.5794,1.293 -0.915,1.9396 -0.9992,1.9396l-3.0563,-1.7715h-0.1093c0,0.0587 -0.1343,0.3693 -0.3944,0.9404c2.8126,1.5197 4.2235,2.2921 4.2235,2.334c-0.7893,1.8221 -1.2346,2.788 -1.3353,2.8887l-4.7777,0.2769c-1.8554,-1.2342 -2.855,-1.8809 -2.9975,-1.9478v-0.0506c0,-0.1425 0.2769,-0.7724 0.8311,-1.8891l3.7284,1.9397l0.2769,-1.1085c-2.3089,-1.0329 -3.6778,-1.6792 -4.1142,-1.9396v-0.1175c0,-0.21 0.445,-1.1586 1.3349,-2.8299z" fill="#000000"/><path d="M94.5286,182.47918h0.0591c1.9478,1.1421 2.9975,1.7383 3.1487,1.7884v0.101c-0.504,0.5793 -1.4359,1.5785 -2.7879,2.9976c2.6536,0.9823 4.1396,1.5785 4.4671,1.7802l-2.4688,3.0477c-1.6709,-1.4191 -2.7371,-2.3172 -3.1989,-2.6784c-1.1253,2.1997 -1.8221,3.4931 -2.0994,3.8875h-0.0587c-2.0908,-0.7305 -3.2243,-1.1668 -3.4088,-1.3098v-0.0587l2.8882,-3.7786c-2.6783,-1.0998 -4.1142,-1.7465 -4.3073,-1.9396c1.1837,-2.0066 1.8472,-3.0731 1.9984,-3.2075c0.0168,0.0588 1.3098,0.9487 3.8792,2.6787c0.9153,-1.6795 1.5451,-2.7794 1.8891,-3.3085z" fill="#2b70c2"/><path d="M107.0397,182.47918l3.6947,0.6549l-0.3529,2.8044c0.7309,-0.0419 1.2682,-0.0587 1.6122,-0.0587h0.5374l0.1178,-0.0588l0.0588,0.1175c-0.1175,1.7046 -0.2186,2.6619 -0.3024,2.8718l-0.1175,-0.067c-0.0842,0 -0.8398,-0.0422 -2.2671,-0.1178c-0.0755,1.3184 -0.1343,2.8886 -0.1766,4.719l-0.1175,0.0587c-1.8053,-0.1175 -2.88,-0.2182 -3.2243,-0.302l0.0587,-0.2354c0,-0.4869 0.0756,-1.9983 0.2354,-4.5341c-1.5115,-0.0838 -2.267,-0.1849 -2.267,-0.3024c0.0752,-1.8722 0.1762,-2.8044 0.302,-2.8044l2.2083,0.4199v-0.7223c0,-0.5875 -0.0251,-1.3854 -0.067,-2.3846c0.0419,0 0.067,-0.0168 0.067,-0.0587z" fill="#000000"/><path d="M116.9813,185.02348c2.1245,0.5707 3.258,0.915 3.3842,1.0411c1.1668,1.6541 1.8303,2.6114 1.9729,2.8632c-0.7556,2.3932 -1.1923,3.5937 -1.3012,3.5937c-2.5193,0.5879 -3.8373,0.8817 -3.9548,0.8817c-2.0826,-1.2174 -3.191,-1.8891 -3.3254,-2.032c-0.0756,-2.2585 -0.1089,-3.5095 -0.1089,-3.7449c-0.0337,-0.067 -0.0505,-0.1175 -0.0505,-0.1512c2.1495,-1.6372 3.258,-2.4516 3.3336,-2.4516zM116.8219,188.09667c-0.0337,0.2268 -0.0838,1.0411 -0.1512,2.4433l1.8727,0.4199c0.4449,-1.4022 0.6717,-2.1496 0.6717,-2.242c-1.4864,-0.445 -2.2839,-0.6717 -2.3932,-0.6717z" fill="#000000"/><path d="M132.4481,182.47097h0.0505c2.5275,0.2099 3.7954,0.3776 3.7954,0.4954l1.1167,9.8826c0,0.0756 -1.1167,0.2604 -3.3505,0.5542l-0.0501,-0.1089v-0.8985c-1.9231,0.5205 -3.2498,0.8562 -3.9634,1.0074c-1.7046,-2.4096 -2.5945,-3.6861 -2.6784,-3.8455c1.2511,-2.2757 1.9228,-3.4343 2.0066,-3.4594l3.5181,0.1677c-0.0756,-0.4281 -0.2181,-1.696 -0.4449,-3.795zM130.8864,188.49108c0.5625,1.7301 0.9154,2.6787 1.058,2.8467l1.6709,-1.4527c-0.1763,-0.9992 -0.3024,-1.5029 -0.3862,-1.5029h-2.2334c-0.0756,0.0083 -0.1093,0.0502 -0.1093,0.1089z" fill="#000000"/><path d="M141.6679,185.02348c2.1241,0.5707 3.2576,0.915 3.3837,1.0411c1.1672,1.6541 1.8303,2.6114 1.9733,2.8632c-0.7559,2.3932 -1.1923,3.5937 -1.3016,3.5937c-2.5189,0.5879 -3.8373,0.8817 -3.9548,0.8817c-2.0825,-1.2174 -3.1906,-1.8891 -3.325,-2.032c-0.0756,-2.2585 -0.1092,-3.5095 -0.1092,-3.7449c-0.0337,-0.067 -0.0506,-0.1175 -0.0506,-0.1512c2.1496,-1.6372 3.258,-2.4516 3.3336,-2.4516zM141.5081,188.09667c-0.0333,0.2268 -0.0839,1.0411 -0.1512,2.4433l1.8726,0.4199c0.445,-1.4022 0.6717,-2.1496 0.6717,-2.242c-1.486,-0.445 -2.2839,-0.6717 -2.3931,-0.6717z" fill="#000000"/><path d="M158.8306,185.01488c1.6121,1.0329 2.5021,1.6208 2.6701,1.7802c-0.5793,1.293 -0.9154,1.9396 -0.9992,1.9396l-3.0563,-1.7715h-0.1093c0,0.0587 -0.1343,0.3693 -0.3948,0.9404c2.8131,1.5197 4.2235,2.2921 4.2235,2.334c-0.7892,1.8221 -1.2342,2.788 -1.3348,2.8887l-4.7778,0.2769c-1.8557,-1.2342 -2.8549,-1.8809 -2.9975,-1.9478v-0.0506c0,-0.1425 0.2769,-0.7724 0.8311,-1.8891l3.7281,1.9397l0.2773,-1.1085c-2.3094,-1.0329 -3.6779,-1.6792 -4.1146,-1.9396v-0.1175c0,-0.21 0.4453,-1.1586 1.3352,-2.8299z" fill="#000000"/><path d="M165.7159,185.02348c2.1242,0.5707 3.2577,0.915 3.3838,1.0411c1.1672,1.6541 1.8303,2.6114 1.9733,2.8632c-0.7559,2.3932 -1.1923,3.5937 -1.3016,3.5937c-2.5189,0.5879 -3.8373,0.8817 -3.9548,0.8817c-2.0825,-1.2174 -3.1906,-1.8891 -3.325,-2.032c-0.0756,-2.2585 -0.1092,-3.5095 -0.1092,-3.7449c-0.0337,-0.067 -0.0506,-0.1175 -0.0506,-0.1512c2.1496,-1.6372 3.258,-2.4516 3.3336,-2.4516zM165.5562,188.09667c-0.0334,0.2268 -0.0839,1.0411 -0.1512,2.4433l1.8726,0.4199c0.445,-1.4022 0.6717,-2.1496 0.6717,-2.242c-1.486,-0.445 -2.2839,-0.6717 -2.3931,-0.6717z" fill="#000000"/><path d="M172.6683,182.84857l3.9717,0.336l-0.8817,6.6249l-3.09,-0.2268zM172.559,190.37198l2.8632,0.2268v2.8044l-3.4174,-0.445z" fill="#000000"/></g><g data-paper-data="{&quot;origPos&quot;:null}"><path d="M444.3058,202.09868c2.5136,0 4.7909,1.0212 6.4406,2.6702c1.6489,1.6496 2.6702,3.9269 2.6702,6.4405c0,2.5136 -1.0213,4.791 -2.6702,6.4406c-1.6497,1.649 -3.927,2.6702 -6.4406,2.6702c-2.5136,0 -4.7909,-1.0212 -6.4406,-2.6702c-1.6489,-1.6496 -2.6701,-3.927 -2.6701,-6.4406c0,-2.5136 1.0212,-4.7909 2.6701,-6.4405c1.6497,-1.649 3.927,-2.6702 6.4406,-2.6702z" fill="url(#color-3)" stroke="#000000" stroke-width="2.0785" stroke-linecap="butt"/><path d="M441.2734,206.54887l5.6119,0.4503l1.7321,3.187l-3.6374,2.9446l3.3603,-0.5197l0.7967,3.4642l-7.4479,-0.0693l-1.9053,-2.4249l4.6766,-3.3256l-4.5727,-0.3464z" fill="#000000" stroke="none" stroke-width="0.69283" stroke-linecap="round"/></g></g></g></svg>