<svg version="1.1" xmlns="http://www.w3.org/2000/svg" xmlns:xlink="http://www.w3.org/1999/xlink" width="640.01623" height="367.4866"><defs><linearGradient x1="363.38271" y1="141.53252" x2="363.38271" y2="361.13725" gradientUnits="userSpaceOnUse" id="color-1"><stop offset="0" stop-color="#935f0a"/><stop offset="1" stop-color="#de7b19"/></linearGradient><linearGradient x1="362.10728" y1="231.81459" x2="361.5407" y2="360.18809" gradientUnits="userSpaceOnUse" id="color-2"><stop offset="0" stop-color="#935f0a"/><stop offset="1" stop-color="#de7b19"/></linearGradient><linearGradient x1="-27.90371" y1="158.9248" x2="165.29265" y2="257.66259" gradientUnits="userSpaceOnUse" id="color-3"><stop offset="0" stop-color="#ea742e"/><stop offset="1" stop-color="#c37f10"/></linearGradient><linearGradient x1="119.36437" y1="327.76735" x2="147.487" y2="360.24719" gradientUnits="userSpaceOnUse" id="color-4"><stop offset="0" stop-color="#ffc96b"/><stop offset="1" stop-color="#ffc96b" stop-opacity="0"/></linearGradient><linearGradient x1="450.43396" y1="185.76735" x2="422.31133" y2="218.24719" gradientUnits="userSpaceOnUse" id="color-5"><stop offset="0" stop-color="#ffc96b"/><stop offset="1" stop-color="#ffc96b" stop-opacity="0"/></linearGradient><linearGradient x1="282.36437" y1="183.76735" x2="310.48699" y2="216.24719" gradientUnits="userSpaceOnUse" id="color-6"><stop offset="0" stop-color="#ffc96b"/><stop offset="1" stop-color="#ffc96b" stop-opacity="0"/></linearGradient></defs><g transform="translate(29.73939,0)"><g data-paper-data="{&quot;isPaintingLayer&quot;:true}" fill="none" fill-rule="nonzero" stroke="none" stroke-width="none" stroke-linecap="none" stroke-linejoin="miter" stroke-miterlimit="10" stroke-dasharray="" stroke-dashoffset="0" font-family="none" font-weight="none" font-size="none" text-anchor="none" style="mix-blend-mode: normal"><path d="M610.27684,357.729l-493.78827,3.40825l246.56604,-219.60473z" data-paper-data="{&quot;origPos&quot;:null,&quot;origRot&quot;:0}" id="ID0.17253359453752637" fill="url(#color-1)" stroke="none" stroke-width="5.23738" stroke-linecap="butt"/><path d="M590.59375,336.65441c-0.01057,0.01391 -0.02107,0.02787 -0.0315,0.04186c-0.08366,-0.06772 -0.15541,-0.14281 -0.20301,-0.23171c-0.06026,-0.11256 0.0698,0.02863 0.23451,0.18985z" data-paper-data="{&quot;origPos&quot;:null,&quot;index&quot;:null}" id="ID0.29126935824751854" fill="url(#color-2)" stroke="#372403" stroke-width="0" stroke-linecap="butt"/><path d="M-27.90371,158.9248l25.62104,-49.96201l293.81675,157.65369l-63.62104,25.96201z" data-paper-data="{&quot;origPos&quot;:null,&quot;index&quot;:null,&quot;origRot&quot;:0}" id="ID0.17253359453752637" fill="url(#color-3)" stroke="#964f17" stroke-width="2.73437" stroke-linecap="butt"/><g data-paper-data="{&quot;origPos&quot;:null}" stroke-linecap="round"><g data-paper-data="{&quot;origPos&quot;:null}" stroke-width="0.5"><g data-paper-data="{&quot;origPos&quot;:null,&quot;origRot&quot;:0}" stroke="#665415"><path d="M318.09357,227.35027l-5.80093,0.79895l-5.00332,-2.40767l-2.76269,-2.40658l-1.2899,-6.32554l-2.24142,-6.50415l-4.85103,-12.02857l4.35876,2.49645l9.79148,2.67725l6.99819,0.89423l6.2618,2.8537l2.45571,2.13919l2.05692,3.74249l-0.21432,4.36498l-2.76188,4.0965l9.20898,8.02194l-5.09436,5.96612l-7.49045,-10.42636z" data-paper-data="{&quot;origPos&quot;:null}" fill="#9fa827"/><path d="M322.87547,226.44395l-20.65325,-22.67277l23.42737,18.32686" data-paper-data="{&quot;origPos&quot;:null}" fill="none"/><path d="M323.04562,212.54706l-0.80955,6.05727" data-paper-data="{&quot;origPos&quot;:null}" fill="none"/><path d="M318.79806,215.60947l0.24494,-4.98855" data-paper-data="{&quot;origPos&quot;:null}" fill="none"/><path d="M315.77707,209.33653l-0.22044,4.4897" data-paper-data="{&quot;origPos&quot;:null}" fill="none"/><path d="M311.74994,207.90926l0.1231,2.70818" data-paper-data="{&quot;origPos&quot;:null}" fill="none"/><path d="M307.77178,205.48426l-0.12247,2.49426l-4.66523,1.13801" data-paper-data="{&quot;origPos&quot;:null}" fill="none"/><path d="M312.292,222.94675l6.40874,-0.13943" data-paper-data="{&quot;origPos&quot;:null}" fill="none"/><path d="M310.67096,219.45392l4.86183,0.07362" data-paper-data="{&quot;origPos&quot;:null}" fill="none"/><path d="M308.4853,217.02979l4.39517,-0.85306" data-paper-data="{&quot;origPos&quot;:null}" fill="none"/><path d="M305.6119,212.96621l3.60948,-0.49712" data-paper-data="{&quot;origPos&quot;:null}" fill="none"/></g><g data-paper-data="{&quot;origPos&quot;:null,&quot;origRot&quot;:0}" stroke="#665415"><path d="M341.48728,163.06314l-2.88903,5.3595l-5.36682,3.73815l-3.96347,1.75648l-6.68005,-0.66555l-7.44142,0.1251l-14.20371,0.85574l5.04583,-3.14265l8.614,-7.89665l5.21032,-5.93501l6.56859,-4.72397l3.52309,-1.56132l4.76198,-0.75063l3.91836,1.43621l2.07458,3.61304l13.21151,-5.85494l2.3505,6.21023l-14.36819,3.64808z" data-paper-data="{&quot;origPos&quot;:null}" fill="#9fa827"/><path d="M343.63879,158.57436l-33.97638,11.79396l31.6779,-15.48906" data-paper-data="{&quot;origPos&quot;:null}" fill="none"/><path d="M335.96017,156.90096l-5.11696,-2.44604" data-paper-data="{&quot;origPos&quot;:null}" fill="none"/><path d="M331.02788,159.08681l-4.47814,-1.64137" data-paper-data="{&quot;origPos&quot;:null}" fill="none"/><path d="M323.31322,159.96756l4.03031,1.47724" data-paper-data="{&quot;origPos&quot;:null}" fill="none"/><path d="M319.46756,163.12221l2.59136,0.66456" data-paper-data="{&quot;origPos&quot;:null}" fill="none"/><path d="M314.72625,165.94859l2.23907,0.82069l-1.8634,4.45174" data-paper-data="{&quot;origPos&quot;:null}" fill="none"/><path d="M337.64956,161.2286l-3.88172,5.70881" data-paper-data="{&quot;origPos&quot;:null}" fill="none"/><path d="M329.51041,167.37378l3.11133,-4.2796" data-paper-data="{&quot;origPos&quot;:null}" fill="none"/><path d="M325.89185,168.61483l1.95891,-4.13148" data-paper-data="{&quot;origPos&quot;:null}" fill="none"/><path d="M322.11834,166.66118l-1.79761,3.33482" data-paper-data="{&quot;origPos&quot;:null}" fill="none"/></g><g data-paper-data="{&quot;origPos&quot;:null,&quot;origRot&quot;:0}" stroke="#674116"><path d="M372.27268,179.32176l-5.51329,2.76l-5.91454,-0.29746l-3.66909,-1.09572l-3.66049,-5.00998l-4.68078,-4.82506l-9.36367,-8.67156l5.30195,0.60412l10.81311,-1.1773l7.34679,-1.72286l7.34248,0.23428l3.26141,0.97397l3.46204,2.50268l1.41935,3.85111l-1.23378,4.52761l12.2303,3.65237l-2.87092,6.97634l-11.4085,-6.34459z" fill="#a87927"/><path d="M376.72475,176.83236l-29.18194,-12.23982l30.33461,7.49215" fill="none"/><path d="M371.69276,164.75417l1.45646,5.52685" fill="none"/><path d="M368.58324,168.91746l-1.62211,-4.40125" fill="none"/><path d="M364.66783,168.53158l-1.4599,-3.96114" fill="none"/><path d="M358.63851,164.77259l1.1372,2.29802" fill="none"/><path d="M353.74467,164.09449l0.81107,2.20063l-4.24843,2.64812" fill="none"/><path d="M371.18033,175.17663l-6.36922,2.40646" fill="none"/><path d="M361.8793,175.14083l4.899,-1.67048" fill="none"/><path d="M358.78181,173.82414l4.0845,-2.30541" fill="none"/><path d="M354.38148,171.33499l3.4305,-1.71733" fill="none"/></g><g data-paper-data="{&quot;origPos&quot;:null,&quot;origRot&quot;:0}" stroke="#661515"><path d="M339.93917,209.97473l-5.61084,2.46492l-5.81987,-0.64491l-3.55466,-1.3199l-3.30675,-5.27083l-4.32516,-5.14357l-8.71229,-9.29947l5.19645,0.9188l10.74532,-0.55838l7.35715,-1.3111l7.23321,0.66434l3.1597,1.17324l3.26421,2.72817l1.16547,3.97033l-1.49471,4.49867l11.84883,4.39969l-3.26049,6.87524l-10.87297,-7.06955z" data-paper-data="{&quot;origPos&quot;:null}" fill="#a85a27"/><path d="M344.48591,207.72115l-28.05608,-14.0564l29.4842,9.33085" data-paper-data="{&quot;origPos&quot;:null}" fill="none"/><path d="M341.35728,200.89928l-1.09963,-5.66414" data-paper-data="{&quot;origPos&quot;:null}" fill="none"/><path d="M336.93372,199.25673l-1.33195,-4.53753" data-paper-data="{&quot;origPos&quot;:null}" fill="none"/><path d="M333.09254,198.63903l-1.19879,-4.08379" data-paper-data="{&quot;origPos&quot;:null}" fill="none"/><path d="M327.37104,194.49306l0.98194,2.38609" data-paper-data="{&quot;origPos&quot;:null}" fill="none"/><path d="M322.58196,193.52338l0.666,2.26877l-4.35547,2.42569" data-paper-data="{&quot;origPos&quot;:null}" fill="none"/><path d="M332.68039,207.7848l6.43404,-2.05817" data-paper-data="{&quot;origPos&quot;:null}" fill="none"/><path d="M334.87365,203.74766l-4.93782,1.40085" data-paper-data="{&quot;origPos&quot;:null}" fill="none"/><path d="M326.95894,203.63882l4.17269,-2.08927" data-paper-data="{&quot;origPos&quot;:null}" fill="none"/><path d="M326.2589,199.33593l-3.49117,1.53374" data-paper-data="{&quot;origPos&quot;:null}" fill="none"/></g><g data-paper-data="{&quot;origPos&quot;:null,&quot;origRot&quot;:0}" stroke="#665415"><path d="M380.84994,155.78371l-5.78342,0.55363l-4.84743,-2.64213l-2.62767,-2.54399l-0.99041,-6.42808l-1.92496,-6.64922l-4.25927,-12.32744l4.20485,2.70362l9.57892,3.12106l6.8926,1.20389l6.07397,3.14594l2.33569,2.26134l1.86773,3.85919l-0.41075,4.38791l-2.92245,4.00711l8.75889,8.47996l-5.31826,5.78954l-6.947,-10.82771z" data-paper-data="{&quot;origPos&quot;:null}" fill="#9fa827"/><path d="M385.62866,155.07778l-19.43101,-23.73453l22.37694,19.47669" data-paper-data="{&quot;origPos&quot;:null}" fill="none"/><path d="M385.35155,147.15259l1.07737,-6.06691" data-paper-data="{&quot;origPos&quot;:null}" fill="none"/><path d="M382.55097,138.972l-0.46941,5.01475" data-paper-data="{&quot;origPos&quot;:null}" fill="none"/><path d="M379.37372,137.53671l-0.42247,4.51328" data-paper-data="{&quot;origPos&quot;:null}" fill="none"/><path d="M375.4477,138.65798l0.00115,-2.73352" data-paper-data="{&quot;origPos&quot;:null}" fill="none"/><path d="M371.61783,133.3093l-0.23471,2.50737l-4.67367,0.94436" data-paper-data="{&quot;origPos&quot;:null}" fill="none"/><path d="M375.30235,151.09644l6.35562,0.13708" data-paper-data="{&quot;origPos&quot;:null}" fill="none"/><path d="M378.66849,147.79233l-4.81336,-0.28472" data-paper-data="{&quot;origPos&quot;:null}" fill="none"/><path d="M371.79994,144.97093l4.39315,-0.66901" data-paper-data="{&quot;origPos&quot;:null}" fill="none"/><path d="M369.1379,140.75293l3.59857,-0.34448" data-paper-data="{&quot;origPos&quot;:null}" fill="none"/></g><g data-paper-data="{&quot;origPos&quot;:null,&quot;origRot&quot;:0}" stroke="#674116"><path d="M374.94596,195.62335l-2.22536,5.55072l-4.95821,4.29483l-3.79478,2.20014l-6.87637,0.19964l-7.54527,1.06085l-14.32016,2.62181l4.71094,-3.67807l7.70671,-8.72868l4.50795,-6.40071l6.04875,-5.40049l3.37313,-1.95566l4.73957,-1.32772l4.17215,0.89482l2.58706,3.23399l12.64926,-7.33374l3.2117,5.71215l-14.11716,5.34449z" fill="#a87927"/><path d="M376.5373,191.00831l-32.96299,15.70277l30.13749,-18.98788" fill="none"/><path d="M362.9886,188.63831l5.52399,1.72056" fill="none"/><path d="M359.02206,192.07414l4.76817,1.02265" fill="none"/><path d="M356.06743,194.92332l4.29134,0.92038" fill="none"/><path d="M355.29908,198.77718l-2.7214,-0.31574" fill="none"/><path d="M348.1343,201.79502l2.38408,0.51132l-1.30347,4.54285" fill="none"/><path d="M367.61512,200.34701l3.18784,-6.01408" fill="none"/><path d="M363.34665,201.30692l2.5944,-4.53388" fill="none"/><path d="M359.83401,202.96475l1.44297,-4.245" fill="none"/><path d="M355.74047,201.55098l-1.38468,3.45377" fill="none"/></g><g data-paper-data="{&quot;origPos&quot;:null,&quot;origRot&quot;:0}" stroke="#674116"><path d="M372.50871,147.08766l5.39559,1.07066l3.60268,4.0443l1.62373,3.31866l-1.00735,6.79186l-0.22743,7.27955l0.20291,13.69079l-3.00317,-3.92532l-7.74098,-5.8643l-5.87857,-3.16413l-4.56302,-4.90074l-1.44332,-2.94993l-0.54687,-4.43674l1.67076,-4.32963l3.83012,-3.23525l-5.41246,-11.06221l6.52509,-4.36519l3.07831,12.9296z" fill="#dea433"/><path d="M367.97685,146.45475l10.54975,29.52767l-14.47532,-26.04501" fill="none"/><path d="M365.88097,154.56212l-2.77093,5.84261" fill="none"/><path d="M367.90162,158.69201l-1.90942,4.94814" fill="none"/><path d="M368.44135,165.99061l1.71848,-4.45333" fill="none"/><path d="M371.51444,168.73123l0.81038,-2.76906" fill="none"/><path d="M374.20563,172.46147l0.95472,-2.47407l4.50741,0.36172" fill="none"/><path d="M376.13918,153.40145l-5.70868,-1.93184" fill="none"/><path d="M376.38573,157.44565l-4.26986,-1.64633" fill="none"/><path d="M373.32164,160.03388l4.17214,0.56153" fill="none"/><path d="M378.65295,165.61976l-3.35726,-0.66619" fill="none"/></g><g data-paper-data="{&quot;origPos&quot;:null,&quot;origRot&quot;:0}" stroke="#665415"><path d="M359.69422,185.24964l3.542,-5.06155l5.70526,-3.08114l4.07214,-1.25455l6.35321,1.57183l7.19923,0.87005l13.82819,1.03351l-5.31169,2.51875l-9.42397,6.87369l-5.8632,5.33552l-7.00375,3.92232l-3.61969,1.11517l-4.70132,0.12497l-3.57955,-1.98521l-1.49397,-3.95119l-13.5738,4.18188l-1.39494,-6.62858l14.37969,-1.78326z" data-paper-data="{&quot;origPos&quot;:null}" fill="#ded633"/><path d="M356.98645,189.52479l34.44912,-7.43696l-32.7506,11.50158" data-paper-data="{&quot;origPos&quot;:null}" fill="none"/><path d="M364.16162,192.25508l4.59425,3.17249" data-paper-data="{&quot;origPos&quot;:null}" fill="none"/><path d="M369.22917,190.69383l4.09092,2.26883" data-paper-data="{&quot;origPos&quot;:null}" fill="none"/><path d="M376.79839,190.8323l-3.68183,-2.04193" data-paper-data="{&quot;origPos&quot;:null}" fill="none"/><path d="M378.54608,187.11762l2.40742,1.02289" data-paper-data="{&quot;origPos&quot;:null}" fill="none"/><path d="M385.92682,185.90249l-2.04546,-1.13441l2.42451,-4.27612" data-paper-data="{&quot;origPos&quot;:null}" fill="none"/><path d="M363.13992,187.62902l4.54919,-5.28362" data-paper-data="{&quot;origPos&quot;:null}" fill="none"/><path d="M368.25457,186.40619l3.60467,-3.93387" data-paper-data="{&quot;origPos&quot;:null}" fill="none"/><path d="M375.52605,181.69554l-2.47164,3.93772" data-paper-data="{&quot;origPos&quot;:null}" fill="none"/><path d="M378.89301,184.1874l2.20391,-3.1494" data-paper-data="{&quot;origPos&quot;:null}" fill="none"/></g><g data-paper-data="{&quot;origPos&quot;:null,&quot;origRot&quot;:0}" stroke="#661515"><path d="M353.56339,168.20463l2.88308,4.30495l-0.238,5.87551l-1.07912,3.99649l-5.08067,5.49851l-4.88023,6.4209l-8.76006,12.46629l0.55833,-5.3972l-1.32434,-10.07764l-1.8433,-6.49095l0.15745,-7.24195l0.95922,-3.55244l2.51975,-4.33772l3.921,-2.86846l4.64223,-0.54538l3.59706,-13.32161l7.16379,0.10431l-6.35842,13.56003z" data-paper-data="{&quot;origPos&quot;:null}" fill="#de7633"/><path d="M350.96882,164.82891l-12.18638,33.14608l7.32009,-32.4368" data-paper-data="{&quot;origPos&quot;:null}" fill="none"/><path d="M344.3115,170.83942l-5.63366,3.55124" data-paper-data="{&quot;origPos&quot;:null}" fill="none"/><path d="M342.96859,175.81283l-4.48115,3.27823" data-paper-data="{&quot;origPos&quot;:null}" fill="none"/><path d="M342.61787,179.77533l-4.03305,2.95041" data-paper-data="{&quot;origPos&quot;:null}" fill="none"/><path d="M341.17904,185.10399l-2.3365,1.99436" data-paper-data="{&quot;origPos&quot;:null}" fill="none"/><path d="M338.20403,192.12659l2.24058,-1.63913l2.75457,3.11613" data-paper-data="{&quot;origPos&quot;:null}" fill="none"/><path d="M349.33814,170.86804l2.53123,5.275" data-paper-data="{&quot;origPos&quot;:null}" fill="none"/><path d="M349.40546,179.94106l-1.76241,-4.12703" data-paper-data="{&quot;origPos&quot;:null}" fill="none"/><path d="M345.69166,180.37737l2.40238,3.08871" data-paper-data="{&quot;origPos&quot;:null}" fill="none"/><path d="M343.80475,186.03382l1.79391,2.67863" data-paper-data="{&quot;origPos&quot;:null}" fill="none"/></g><g data-paper-data="{&quot;origPos&quot;:null,&quot;origRot&quot;:0}" stroke="#674116"><path d="M331.98339,147.66362l2.9284,-5.34489l5.38918,-3.70183l3.97177,-1.72819l6.66438,0.71856l7.43106,-0.06734l14.18899,-0.74636l-5.06381,3.10796l-8.66537,7.84115l-5.25086,5.90314l-6.59718,4.67975l-3.53044,1.53616l-4.76083,0.71466l-3.90064,-1.46884l-2.04188,-3.63449l-13.23918,5.76062l-2.29613,-6.23763l14.37604,-3.54152z" fill="#dea433"/><path d="M329.79847,152.14222l34.02087,-11.54664l-31.75608,15.26507" fill="none"/><path d="M342.5408,156.36737l-5.08913,-2.48949" fill="none"/><path d="M346.85214,153.40589l-4.45786,-1.67866" fill="none"/><path d="M350.10436,150.90529l-4.01206,-1.51081" fill="none"/><path d="M351.38796,147.09023l2.58198,0.68571" fill="none"/><path d="M358.72708,144.98235l-2.22893,-0.83934l1.89694,-4.44377" fill="none"/><path d="M335.80026,149.53072l3.92246,-5.68695" fill="none"/><path d="M340.83561,147.70159l3.14154,-4.26166" fill="none"/><path d="M345.61067,146.34752l1.98966,-4.12228" fill="none"/><path d="M353.17424,140.88544l-1.82212,3.3257" fill="none"/></g><g data-paper-data="{&quot;origPos&quot;:null,&quot;origRot&quot;:0}" stroke="#674116"><path d="M284.69217,209.23142l5.80349,-1.26948l5.27797,1.94087l3.00913,2.12762l1.86263,6.09287l2.84182,6.1882l5.97025,11.38513l-4.63314,-2.08192l-10.15002,-1.80373l-7.16475,-0.28999l-6.5915,-2.2726l-2.67478,-1.89121l-2.41203,-3.49638l-0.16703,-4.29702l2.43619,-4.24736l-10.03043,-7.09205l4.63342,-6.27569l8.50187,9.5932z" fill="#a87927"/><path d="M279.92996,210.52077l22.90744,20.49509l-25.33407,-16.00219" fill="none"/><path d="M280.98032,224.15833l0.2868,-6.00586" fill="none"/><path d="M285.0118,220.80015l0.1909,4.91086" fill="none"/><path d="M288.45083,222.27655l0.17179,4.41979" fill="none"/><path d="M292.82593,227.75793l-0.36292,-2.64455" fill="none"/><path d="M297.0674,229.8017l-0.09544,-2.45543l4.62371,-1.50668" fill="none"/><path d="M284.47707,213.73583l6.47698,-0.67391" fill="none"/><path d="M292.90273,216.35011l-4.92936,0.33538" fill="none"/><path d="M290.95381,219.74801l4.37532,-1.20471" fill="none"/><path d="M294.98507,223.07591l3.61108,-0.78991" fill="none"/></g><g data-paper-data="{&quot;origPos&quot;:null,&quot;origRot&quot;:0}" stroke="#665415"><path d="M278.30133,227.05322l5.40663,1.04183l3.62803,4.0217l1.64323,3.307l-0.97168,6.79021l-0.18837,7.27342l0.27699,13.67604l-3.0273,-3.90594l-7.78018,-5.81862l-5.90139,-3.13073l-4.59394,-4.87234l-1.46064,-2.93955l-0.57134,-4.42948l1.64903,-4.33389l3.81638,-3.25171l-5.47745,-11.02328l6.50791,-4.39437l3.15109,12.90082z" data-paper-data="{&quot;origPos&quot;:null}" fill="#9fa827"/><path d="M273.76165,226.44425l10.7194,29.4438l-14.63,-25.94447" data-paper-data="{&quot;origPos&quot;:null}" fill="none"/><path d="M268.96539,240.40526l2.74209,-5.851" data-paper-data="{&quot;origPos&quot;:null}" fill="none"/><path d="M273.75241,238.66962l-1.88459,4.953" data-paper-data="{&quot;origPos&quot;:null}" fill="none"/><path d="M274.33203,245.95813l1.69614,-4.45771" data-paper-data="{&quot;origPos&quot;:null}" fill="none"/><path d="M277.42291,248.68021l0.79624,-2.77046" data-paper-data="{&quot;origPos&quot;:null}" fill="none"/><path d="M280.13687,252.39287l0.94231,-2.47651l4.51377,0.33817" data-paper-data="{&quot;origPos&quot;:null}" fill="none"/><path d="M276.24476,231.44147l5.72469,1.90054" data-paper-data="{&quot;origPos&quot;:null}" fill="none"/><path d="M277.95514,235.75818l4.28291,1.62273" data-paper-data="{&quot;origPos&quot;:null}" fill="none"/><path d="M283.36419,240.52179l-4.17925,-0.53952" data-paper-data="{&quot;origPos&quot;:null}" fill="none"/><path d="M281.18746,244.8869l3.36413,0.64825" data-paper-data="{&quot;origPos&quot;:null}" fill="none"/></g><g data-paper-data="{&quot;origPos&quot;:null,&quot;origRot&quot;:0}" stroke="#674116"><path d="M297.67623,184.75665l3.63318,-5.00958l5.74651,-2.97908l4.08191,-1.17831l6.29497,1.70358l7.15221,1.01603l13.75115,1.31159l-5.34284,2.42247l-9.52926,6.71158l-5.95075,5.2385l-7.05728,3.79757l-3.62836,1.04738l-4.68505,0.03214l-3.52384,-2.0634l-1.40569,-3.99513l-13.60639,3.92769l-1.2513,-6.68022l14.35907,-1.50443z" fill="#a87927"/><path d="M294.89033,188.99353l34.46565,-6.78042l-32.85858,10.89345" fill="none"/><path d="M301.97983,191.87605l4.50974,3.27512" fill="none"/><path d="M311.08678,192.7679l-4.02724,-2.35819" fill="none"/><path d="M314.59549,190.69883l-3.62452,-2.12236" fill="none"/><path d="M318.78997,188.07974l-2.37646,-1.07434" fill="none"/><path d="M323.7899,185.9323l-2.01363,-1.1791l2.50382,-4.24349" fill="none"/><path d="M301.05856,187.21298l4.64093,-5.21246" fill="none"/><path d="M306.17815,186.08721l3.67208,-3.87658" fill="none"/><path d="M313.51851,181.5038l-2.54368,3.90291" fill="none"/><path d="M316.82008,184.07145l2.26063,-3.11706" fill="none"/></g><g data-paper-data="{&quot;origPos&quot;:null,&quot;origRot&quot;:0}" stroke="#665415"><path d="M310.16957,196.13246l-3.45146,5.11041l-5.66269,3.17976l-4.06103,1.32865l-6.40772,-1.4424l-7.24246,-0.72694l-13.89822,-0.76113l5.27922,-2.61193l9.31736,-7.02958l5.77531,-5.42837l6.94867,-4.04285l3.60978,-1.18103l4.71543,-0.2157l3.63266,1.90798l1.57972,3.90669l13.5367,-4.42885l1.53489,6.57551l-14.3943,2.0553z" data-paper-data="{&quot;origPos&quot;:null}" fill="#ded633"/><path d="M312.79987,191.82153l-34.41966,8.07626l32.63234,-12.09198" data-paper-data="{&quot;origPos&quot;:null}" fill="none"/><path d="M305.54369,189.2412l-4.67514,-3.0709" data-paper-data="{&quot;origPos&quot;:null}" fill="none"/><path d="M300.48998,190.89464l-4.15161,-2.18054" data-paper-data="{&quot;origPos&quot;:null}" fill="none"/><path d="M296.62761,192.86607l-3.73647,-1.96248" data-paper-data="{&quot;origPos&quot;:null}" fill="none"/><path d="M291.21291,194.63763l-2.43679,-0.97217" data-paper-data="{&quot;origPos&quot;:null}" fill="none"/><path d="M283.8308,195.99121l2.07582,1.09027l-2.346,4.30638" data-paper-data="{&quot;origPos&quot;:null}" fill="none"/><path d="M306.66323,193.82927l-4.45769,5.35117" data-paper-data="{&quot;origPos&quot;:null}" fill="none"/><path d="M298.01803,199.13494l3.53731,-3.98837" data-paper-data="{&quot;origPos&quot;:null}" fill="none"/><path d="M296.75424,196.00959l-2.40018,3.97024" data-paper-data="{&quot;origPos&quot;:null}" fill="none"/><path d="M288.77684,200.74289l2.14758,-3.17982" data-paper-data="{&quot;origPos&quot;:null}" fill="none"/></g><g data-paper-data="{&quot;origPos&quot;:null,&quot;origRot&quot;:0}" stroke="#661515"><path d="M310.31319,224.6888l-4.40653,-2.81915l-1.81537,-5.2381l-0.31189,-3.86855l3.1892,-6.52075l2.66492,-7.26382l4.45459,-13.86458l1.32576,4.92487l4.85701,8.40705l4.12484,5.08493l2.37428,6.41103l0.27723,3.43871l-1.01835,4.6482l-2.94215,3.8251l-4.48031,2.02571l1.03961,12.89518l-7.24471,2.29549l1.65551,-14.02465z" data-paper-data="{&quot;origPos&quot;:null}" fill="#de7633"/><path d="M314.10445,226.78817l0.66981,-33.16349l3.97862,30.9192" data-paper-data="{&quot;origPos&quot;:null}" fill="none"/><path d="M318.70099,219.29255l4.42664,-4.99526" data-paper-data="{&quot;origPos&quot;:null}" fill="none"/><path d="M321.67535,210.1068l-3.36246,4.37152" data-paper-data="{&quot;origPos&quot;:null}" fill="none"/><path d="M320.3062,206.94791l-3.02621,3.93439" data-paper-data="{&quot;origPos&quot;:null}" fill="none"/><path d="M316.86416,205.72422l1.65352,-2.52964" data-paper-data="{&quot;origPos&quot;:null}" fill="none"/><path d="M317.40162,198.56692l-1.68124,2.18578l-3.86146,-1.81815" data-paper-data="{&quot;origPos&quot;:null}" fill="none"/><path d="M313.63317,220.94235l-4.39178,-3.78811" data-paper-data="{&quot;origPos&quot;:null}" fill="none"/><path d="M313.60899,216.03487l-3.21668,-3.03633" data-paper-data="{&quot;origPos&quot;:null}" fill="none"/><path d="M310.47908,209.46653l3.49749,1.91143" data-paper-data="{&quot;origPos&quot;:null}" fill="none"/><path d="M311.15513,204.02862l2.74184,1.75412" data-paper-data="{&quot;origPos&quot;:null}" fill="none"/></g><g data-paper-data="{&quot;origPos&quot;:null,&quot;origRot&quot;:0}" stroke="#674116"><path d="M347.92443,219.07977l-5.28384,3.27888l-6.03558,0.34553l-3.84689,-0.67266l-4.2793,-4.48411l-5.29383,-4.19453l-10.47956,-7.43622l5.44851,0.01878l10.84044,-2.3072l7.26134,-2.46608l7.47754,-0.56036l3.41946,0.59793l3.79534,2.06456l1.87439,3.59662l-0.74178,4.54006l12.82295,2.24225l-2.12717,7.09967l-12.29241,-4.95132z" fill="#dea433"/><path d="M352.16181,216.17834l-30.99328,-8.78179l31.62793,4.0362" fill="none"/><path d="M347.79502,210.1846l-2.10091,-5.22393" fill="none"/><path d="M343.00777,209.3475l-2.14215,-4.11041" fill="none"/><path d="M337.06301,205.6929l1.92793,3.69937" fill="none"/><path d="M332.44872,206.38037l1.41301,2.11499" fill="none"/><path d="M327.40605,206.24576l1.07108,2.05519l-4.01286,3.0341" fill="none"/><path d="M346.34875,215.16184l-6.19227,3.02661" fill="none"/><path d="M341.68924,213.97349l-4.78322,2.15225" fill="none"/><path d="M337.49941,212.49369l-3.88512,2.68286" fill="none"/><path d="M328.8683,213.22591l3.28773,-2.04017" fill="none"/></g><g data-paper-data="{&quot;origPos&quot;:null,&quot;origRot&quot;:0}" stroke="#674116"><path d="M322.69151,245.27819l-4.21095,4.60607l-5.96492,2.25856l-4.10516,0.6509l-5.83558,-2.57554l-6.75961,-1.99142l-13.0866,-3.17625l5.49705,-1.74678l10.14059,-5.54623l6.47981,-4.5282l7.34506,-2.915l3.64902,-0.57858l4.526,0.59519l3.1106,2.56999l0.79468,4.25l13.68381,-2.16962l0.26802,6.95909l-14.06938,-0.39482z" fill="#dea433"/><path d="M325.9761,241.34413l-34.21609,2.27442l33.24365,-6.67127" fill="none"/><path d="M319.53954,237.46357l-3.89164,-3.93399" fill="none"/><path d="M310.87598,235.33643l3.55496,2.93714" fill="none"/><path d="M310.39821,239.61313l-3.19946,-2.64342" fill="none"/><path d="M304.92469,240.48099l-2.14239,-1.41071" fill="none"/><path d="M297.65488,240.58341l1.77747,1.46858l-3.01327,3.97856" fill="none"/><path d="M314.56069,247.00498l5.21208,-4.67728" fill="none"/><path d="M310.58441,246.23512l4.08914,-3.449" fill="none"/><path d="M309.94865,242.83513l-3.00385,3.62697" fill="none"/><path d="M301.49947,246.27526l2.62014,-2.86598" fill="none"/></g><g data-paper-data="{&quot;origPos&quot;:null,&quot;origRot&quot;:0}" stroke="#665415"><path d="M252.96167,242.34029l-2.66672,5.43488l-5.23652,3.93588l-3.91289,1.91183l-6.75959,-0.37009l-7.49067,0.44623l-14.26962,1.46293l4.94021,-3.33201l8.31864,-8.19641l4.97899,-6.10557l6.40236,-4.96461l3.47811,-1.69939l4.763,-0.94991l4.01256,1.25319l2.25413,3.48966l13.04288,-6.37276l2.65013,6.0508l-14.3084,4.23646z" data-paper-data="{&quot;origPos&quot;:null}" fill="#9fa827"/><path d="M254.92503,237.79999l-33.69108,13.15594l31.20766,-16.71721" data-paper-data="{&quot;origPos&quot;:null}" fill="none"/><path d="M247.11366,236.47467l-5.26589,-2.20174" data-paper-data="{&quot;origPos&quot;:null}" fill="none"/><path d="M242.24435,238.85384l-4.58577,-1.4322" data-paper-data="{&quot;origPos&quot;:null}" fill="none"/><path d="M238.63998,241.3495l-4.12722,-1.28898" data-paper-data="{&quot;origPos&quot;:null}" fill="none"/><path d="M233.42282,243.8986l-2.64069,-0.54618" data-paper-data="{&quot;origPos&quot;:null}" fill="none"/><path d="M226.13432,246.35793l2.29289,0.71609l-1.67479,4.49114" data-paper-data="{&quot;origPos&quot;:null}" fill="none"/><path d="M245.36136,246.51291l3.65088,-5.82393" data-paper-data="{&quot;origPos&quot;:null}" fill="none"/><path d="M244.03213,242.75498l-2.93976,4.37462" data-paper-data="{&quot;origPos&quot;:null}" fill="none"/><path d="M237.5035,248.51586l1.78557,-4.17798" data-paper-data="{&quot;origPos&quot;:null}" fill="none"/><path d="M231.95404,250.12549l1.65929,-3.38171" data-paper-data="{&quot;origPos&quot;:null}" fill="none"/></g><g data-paper-data="{&quot;origPos&quot;:null,&quot;origRot&quot;:0}" stroke="#661515"><path d="M268.28871,258.27786l-5.63,-0.3342l-4.2129,-3.44085l-2.10261,-2.99653l0.09834,-6.69479l-0.76083,-7.06489l-2.07191,-13.20519l3.58735,3.40372l8.66709,4.6625l6.40616,2.29474l5.3057,4.1439l1.86899,2.66357l1.16044,4.21689l-1.10816,4.40132l-3.45207,3.62402l7.00871,9.98839l-6.03728,5.06595l-4.89075,-12.0962z" data-paper-data="{&quot;origPos&quot;:null}" fill="#a85a27"/><path d="M272.98113,258.30115l-14.74659,-27.16741l18.26196,23.2919" data-paper-data="{&quot;origPos&quot;:null}" fill="none"/><path d="M274.00658,250.19362l2.0202,-6.00639" data-paper-data="{&quot;origPos&quot;:null}" fill="none"/><path d="M271.38998,246.46462l1.26648,-5.03008" data-paper-data="{&quot;origPos&quot;:null}" fill="none"/><path d="M268.70702,244.008l1.13979,-4.52706" data-paper-data="{&quot;origPos&quot;:null}" fill="none"/><path d="M265.90353,240.01263l0.44634,-2.78138" data-paper-data="{&quot;origPos&quot;:null}" fill="none"/><path d="M263.10619,233.97554l-0.63322,2.51504l-4.63065,0.23564" data-paper-data="{&quot;origPos&quot;:null}" fill="none"/><path d="M263.73826,252.64723l6.06558,1.12584" data-paper-data="{&quot;origPos&quot;:null}" fill="none"/><path d="M262.93656,248.77071l4.56423,1.03671" data-paper-data="{&quot;origPos&quot;:null}" fill="none"/><path d="M265.69821,245.87149l-4.31709,-0.00101" data-paper-data="{&quot;origPos&quot;:null}" fill="none"/><path d="M259.51826,241.16518l3.50311,0.20795" data-paper-data="{&quot;origPos&quot;:null}" fill="none"/></g><g data-paper-data="{&quot;origPos&quot;:null,&quot;origRot&quot;:0}" stroke="#661515"><path d="M251.73339,293.98958l-5.5402,2.68504l-5.89214,-0.38689l-3.64088,-1.15372l-3.57074,-5.07871l-4.59088,-4.90853l-9.19927,-8.83585l5.27657,0.68523l10.79925,-1.01857l7.35186,-1.61755l7.31681,0.34492l3.23635,1.02552l3.41229,2.56149l1.35453,3.88302l-1.30127,4.52166l12.13625,3.8457l-2.97204,6.95263l-11.27456,-6.53305z" data-paper-data="{&quot;origPos&quot;:null}" fill="#a85a27"/><path d="M256.21128,291.55999l-28.90206,-12.71091l30.12592,7.96737" data-paper-data="{&quot;origPos&quot;:null}" fill="none"/><path d="M251.38428,279.37299l1.3652,5.56395" data-paper-data="{&quot;origPos&quot;:null}" fill="none"/><path d="M248.2186,283.5012l-1.54803,-4.43773" data-paper-data="{&quot;origPos&quot;:null}" fill="none"/><path d="M244.32097,283.05558l-1.39325,-3.99396" data-paper-data="{&quot;origPos&quot;:null}" fill="none"/><path d="M238.36883,279.19587l1.09767,2.32142" data-paper-data="{&quot;origPos&quot;:null}" fill="none"/><path d="M233.5003,278.44259l0.77402,2.21887l-4.27735,2.5918" data-paper-data="{&quot;origPos&quot;:null}" fill="none"/><path d="M244.32153,292.13431l6.38797,-2.3177" data-paper-data="{&quot;origPos&quot;:null}" fill="none"/><path d="M246.34745,288.03967l-4.91059,1.6017" data-paper-data="{&quot;origPos&quot;:null}" fill="none"/><path d="M238.36938,288.27462l4.10852,-2.25059" data-paper-data="{&quot;origPos&quot;:null}" fill="none"/><path d="M237.46859,284.04197l-3.44723,1.67069" data-paper-data="{&quot;origPos&quot;:null}" fill="none"/></g><g data-paper-data="{&quot;origPos&quot;:null,&quot;origRot&quot;:0}" stroke="#674116"><path d="M288.14727,273.14934l-1.98947,5.59557l-4.79959,4.4697l-3.72278,2.34406l-6.91803,0.49557l-7.55273,1.37779l-14.30667,3.21765l4.57852,-3.84796l7.36683,-8.98141l4.25028,-6.53655l5.84792,-5.61231l3.30913,-2.08359l4.71419,-1.52066l4.24361,0.70583l2.75315,3.09194l12.40927,-7.81349l3.49505,5.52005l-13.97842,5.90626z" fill="#a87927"/><path d="M289.5406,268.50819l-32.49251,16.98459l29.49685,-20.11684" fill="none"/><path d="M281.42714,268.21232l-5.64297,-1.46537" fill="none"/><path d="M276.79438,271.12935l-4.84984,-0.80666" fill="none"/><path d="M273.46245,273.99935l-4.36485,-0.726" fill="none"/><path d="M265.74292,276.92978l2.75584,0.19497" fill="none"/><path d="M261.41828,280.42487l2.42492,0.40332l-1.10661,4.55713" fill="none"/><path d="M283.91505,272.05032l-2.93801,6.09632" fill="none"/><path d="M279.1282,274.67831l-2.40747,4.60416" fill="none"/><path d="M274.51817,276.80896l-1.26067,4.26809" fill="none"/><path d="M267.8316,283.33536l1.2379,-3.4817" fill="none"/></g><g data-paper-data="{&quot;origPos&quot;:null,&quot;origRot&quot;:0}" stroke="#674116"><path d="M290.05975,211.50275l5.48408,0.82704l3.81309,3.85073l1.78657,3.21755l-0.70607,6.77245l0.10178,7.22183l0.8267,13.55496l-3.20375,-3.75886l-8.06467,-5.47462l-6.06577,-2.88019l-4.81946,-4.65763l-1.58805,-2.86005l-0.75258,-4.37187l1.48629,-4.36182l3.71132,-3.37109l-5.95523,-10.72515l6.37483,-4.60726l3.68873,12.67631z" fill="#dea433"/><path d="M285.46569,211.07197l11.96976,28.79676l-15.76601,-25.17641" fill="none"/><path d="M283.72287,219.19487l-2.5258,5.90838" fill="none"/><path d="M285.94615,223.19891l-1.69861,4.98492" fill="none"/><path d="M286.82159,230.40642l1.52875,-4.48642" fill="none"/><path d="M290.73242,230.21006l-0.69052,2.77846" fill="none"/><path d="M292.92254,236.56759l0.84931,-2.49246l4.55712,0.16314" fill="none"/><path d="M288.16538,215.93404l5.83864,1.66669" fill="none"/><path d="M294.4362,221.59671l-4.3762,-1.44613" fill="none"/><path d="M291.46714,224.29361l4.22846,0.37564" fill="none"/><path d="M293.67937,229.08216l3.41231,0.51461" fill="none"/></g><g data-paper-data="{&quot;origPos&quot;:null,&quot;origRot&quot;:0}" stroke="#665415"><path d="M272.31144,263.5324l3.33808,-5.16798l5.6073,-3.29962l4.04518,-1.41926l6.47156,1.2821l7.29192,0.5502l13.97722,0.42504l-5.23642,2.72541l-9.18108,7.21802l-5.66395,5.53993l-6.87714,4.18923l-3.5957,1.26157l-4.73033,0.3274l-3.69621,-1.81178l-1.68458,-3.84982l-13.4839,4.7309l-1.70653,-6.50664l14.40475,-2.38946z" data-paper-data="{&quot;origPos&quot;:null}" fill="#ded633"/><path d="M269.77802,267.88515l34.36531,-8.85986l-32.46951,12.8132" data-paper-data="{&quot;origPos&quot;:null}" fill="none"/><path d="M277.13024,270.27936l4.77236,2.94409" data-paper-data="{&quot;origPos&quot;:null}" fill="none"/><path d="M282.16422,268.51316l4.22424,2.0706" data-paper-data="{&quot;origPos&quot;:null}" fill="none"/><path d="M289.79561,268.32253l-3.80183,-1.86354" data-paper-data="{&quot;origPos&quot;:null}" fill="none"/><path d="M291.38733,264.56662l2.47168,0.90915" data-paper-data="{&quot;origPos&quot;:null}" fill="none"/><path d="M298.76731,263.04312l-2.11212,-1.03529l2.24803,-4.34144" data-paper-data="{&quot;origPos&quot;:null}" fill="none"/><path d="M275.89071,265.74048l4.3426,-5.43159" data-paper-data="{&quot;origPos&quot;:null}" fill="none"/><path d="M280.98755,264.30749l3.45245,-4.05347" data-paper-data="{&quot;origPos&quot;:null}" fill="none"/><path d="M288.09857,259.32566l-2.3109,4.00822" data-paper-data="{&quot;origPos&quot;:null}" fill="none"/><path d="M291.60366,261.64857l2.07702,-3.21562" data-paper-data="{&quot;origPos&quot;:null}" fill="none"/></g><g data-paper-data="{&quot;origPos&quot;:null,&quot;origRot&quot;:0}" stroke="#661515"><path d="M263.41265,242.09824l5.38643,1.09426l3.58184,4.06271l1.60771,3.32816l-1.03657,6.79305l-0.25943,7.28442l0.14219,13.70263l-2.98335,-3.94113l-7.7087,-5.9016l-5.85974,-3.19145l-4.53761,-4.92388l-1.42909,-2.95837l-0.52679,-4.4426l1.68853,-4.32606l3.84129,-3.22172l-5.3591,-11.09387l6.53905,-4.34121l3.0186,12.95296z" data-paper-data="{&quot;origPos&quot;:null}" fill="#de7633"/><path d="M258.88733,241.44573l10.41051,29.59579l-14.34828,-26.12687" data-paper-data="{&quot;origPos&quot;:null}" fill="none"/><path d="M253.96282,255.38637l2.7945,-5.83561" data-paper-data="{&quot;origPos&quot;:null}" fill="none"/><path d="M256.8283,258.63654l1.92975,-4.94405" data-paper-data="{&quot;origPos&quot;:null}" fill="none"/><path d="M259.26505,260.99922l1.73677,-4.44967" data-paper-data="{&quot;origPos&quot;:null}" fill="none"/><path d="M262.32349,263.75497l0.82197,-2.76786" data-paper-data="{&quot;origPos&quot;:null}" fill="none"/><path d="M264.99599,267.49956l0.96488,-2.47203l4.5021,0.381" data-paper-data="{&quot;origPos&quot;:null}" fill="none"/><path d="M261.3168,246.47495l5.69545,1.95745" data-paper-data="{&quot;origPos&quot;:null}" fill="none"/><path d="M262.98163,250.81525l4.25907,1.66564" data-paper-data="{&quot;origPos&quot;:null}" fill="none"/><path d="M268.33393,255.63783l-4.16624,-0.57958" data-paper-data="{&quot;origPos&quot;:null}" fill="none"/><path d="M269.46992,260.67109l-3.35156,-0.68086" data-paper-data="{&quot;origPos&quot;:null}" fill="none"/></g><g data-paper-data="{&quot;origPos&quot;:null,&quot;origRot&quot;:0}" stroke="#665415"><path d="M231.3365,271.143l5.71078,-0.03483l4.48997,3.11824l2.32774,2.81689l0.35516,6.60366l1.24831,6.91278l2.98978,12.87889l-3.85545,-3.12211l-9.07307,-4.03398l-6.62811,-1.84695l-5.64178,-3.74035l-2.06911,-2.50389l-1.45871,-4.08042l0.82079,-4.4089l3.24166,-3.79453l-7.75915,-9.38958l5.75567,-5.3827l5.76242,11.6037z" data-paper-data="{&quot;origPos&quot;:null}" fill="#ded633"/><path d="M226.59405,271.42358l16.74316,25.81792l-20.03172,-21.77145" data-paper-data="{&quot;origPos&quot;:null}" fill="none"/><path d="M224.47517,285.52895l1.63327,-6.04958" data-paper-data="{&quot;origPos&quot;:null}" fill="none"/><path d="M229.00518,282.98482l-0.93804,5.03873" data-paper-data="{&quot;origPos&quot;:null}" fill="none"/><path d="M231.88264,285.23211l-0.84424,4.53487" data-paper-data="{&quot;origPos&quot;:null}" fill="none"/><path d="M234.72419,291.75771l0.26211,-2.76975" data-paper-data="{&quot;origPos&quot;:null}" fill="none"/><path d="M238.22236,294.75618l0.46903,-2.51936l4.66243,-0.53173" data-paper-data="{&quot;origPos&quot;:null}" fill="none"/><path d="M230.11153,275.6802l6.20462,0.7171" data-paper-data="{&quot;origPos&quot;:null}" fill="none"/><path d="M237.38932,280.16552l-4.68174,-0.72639" data-paper-data="{&quot;origPos&quot;:null}" fill="none"/><path d="M234.79599,283.20113l4.36172,-0.27824" data-paper-data="{&quot;origPos&quot;:null}" fill="none"/><path d="M237.80582,287.46085l3.55339,-0.02168" data-paper-data="{&quot;origPos&quot;:null}" fill="none"/></g><g data-paper-data="{&quot;origPos&quot;:null,&quot;origRot&quot;:0}" stroke="#674116"><path d="M242.68767,227.49528l2.70707,-5.4221l5.26071,-3.90087l3.9225,-1.88416l6.74623,0.42329l7.48286,-0.38852l14.25979,-1.35394l-4.95993,3.29843l-8.37292,8.14365l-5.0213,6.07574l-6.43315,4.92203l-3.48668,1.67481l-4.76349,0.9142l-3.99619,-1.28627l-2.22214,-3.51233l-13.07505,6.28053l-2.59661,-6.08032l14.32116,-4.13126z" fill="#dea433"/><path d="M240.69021,232.02693l33.74711,-12.91284l-31.29658,16.49868" fill="none"/><path d="M253.71863,235.66103l-5.23985,-2.24598" fill="none"/><path d="M253.36011,231.07031l4.56706,1.47002" fill="none"/><path d="M261.08973,229.92208l-4.11035,-1.32302" fill="none"/><path d="M264.84158,226.65439l-2.6322,-0.56752" fill="none"/><path d="M269.50685,223.68069l-2.28352,-0.73502l1.70896,-4.48468" fill="none"/><path d="M250.31047,223.37571l-3.69291,5.80405" fill="none"/><path d="M251.60696,227.14952l2.97101,-4.35816" fill="none"/><path d="M256.35571,225.60124l1.81698,-4.17019" fill="none"/><path d="M263.72681,219.8623l-1.6844,3.37373" fill="none"/></g><g data-paper-data="{&quot;origPos&quot;:null,&quot;origRot&quot;:0}" stroke="#674116"><path d="M246.70045,271.90336l-5.40487,3.02754l-5.98469,0.02863l-3.76476,-0.88249l-3.98011,-4.75029l-4.99895,-4.51194l-9.94407,-8.05695l5.38415,0.30777l10.84286,-1.75281l7.31417,-2.10281l7.42183,-0.16891l3.34646,0.78445l3.63636,2.28387l1.65251,3.72752l-0.98574,4.54056l12.5492,2.94165l-2.49746,7.0492l-11.87409,-5.64637z" fill="#dea433"/><path d="M251.05001,269.20108l-30.14458,-10.50171l31.03588,5.74814" fill="none"/><path d="M245.28157,257.54215l1.78585,5.38114" fill="none"/><path d="M240.49381,257.56508l1.88858,4.26001" fill="none"/><path d="M236.71001,257.82331l1.69971,3.834" fill="none"/><path d="M233.39004,260.48067l-1.27894,-2.20844" fill="none"/><path d="M227.1345,257.86912l0.9443,2.13001l-4.13505,2.84803" fill="none"/><path d="M245.36105,267.86753l-6.28871,2.72493" fill="none"/><path d="M240.82181,266.42177l-4.84739,1.91758" fill="none"/><path d="M232.77374,267.20734l3.98925,-2.50046" fill="none"/><path d="M228.19142,264.98802l3.36302,-1.8838" fill="none"/></g></g><g data-paper-data="{&quot;origPos&quot;:null,&quot;origRot&quot;:0}"><g stroke-width="0.5"><g data-paper-data="{&quot;origPos&quot;:null,&quot;origRot&quot;:0}" stroke="#665415"><path d="M140.23673,361.00943l-2.24142,-6.50416l-4.85103,-12.02857l4.35876,2.49645l9.79148,2.67725l6.99819,0.89423l6.2618,2.8537l2.45571,2.13919l2.05692,3.74249l-0.21432,4.36497l-2.76188,4.09649l1.5887,1.38392c-2.09464,-0.28677 -4.00856,-0.53372 -5.60371,-0.78269c-1.35823,-0.212 -2.73531,-0.33432 -4.10997,-0.34015c-4.23632,-0.01799 -8.47279,-0.00914 -12.70929,0.00849z" data-paper-data="{&quot;origPos&quot;:null}" fill="#9fa827"/><path d="M155.90506,366.08531l-16.68284,-18.31413l23.42737,18.32686" data-paper-data="{&quot;origPos&quot;:null}" fill="none"/><path d="M160.04563,356.54706l-0.80955,6.05726" data-paper-data="{&quot;origPos&quot;:null}" fill="none"/><path d="M156.04299,354.62092l-0.24494,4.98854" data-paper-data="{&quot;origPos&quot;:null}" fill="none"/><path d="M152.77707,353.33653l-0.22044,4.4897" data-paper-data="{&quot;origPos&quot;:null}" fill="none"/><path d="M148.74994,351.90925l0.1231,2.70818" data-paper-data="{&quot;origPos&quot;:null}" fill="none"/><path d="M144.77178,349.48426l-0.12248,2.49426l-4.66523,1.13801" data-paper-data="{&quot;origPos&quot;:null}" fill="none"/><path d="M147.67096,363.45392l4.86183,0.07362" data-paper-data="{&quot;origPos&quot;:null}" fill="none"/><path d="M145.4853,361.02979l4.39517,-0.85306" data-paper-data="{&quot;origPos&quot;:null}" fill="none"/><path d="M142.6119,356.9662l3.60948,-0.49712" data-paper-data="{&quot;origPos&quot;:null}" fill="none"/></g><g data-paper-data="{&quot;origPos&quot;:null,&quot;origRot&quot;:0}" stroke="#665415"><path d="M178.48727,307.06314l-2.88903,5.35951l-5.36682,3.73815l-3.96347,1.75647l-6.68004,-0.66555l-7.44142,0.12511l-14.20371,0.85574l5.04583,-3.14266l8.614,-7.89664l5.21031,-5.93501l6.5686,-4.72397l3.52308,-1.56132l4.76198,-0.75063l3.91836,1.4362l2.07459,3.61304l13.21151,-5.85494l2.3505,6.21022l-14.36819,3.64808z" data-paper-data="{&quot;origPos&quot;:null}" fill="#9fa827"/><path d="M180.63879,302.57436l-33.97638,11.79395l31.6779,-15.48905" data-paper-data="{&quot;origPos&quot;:null}" fill="none"/><path d="M172.96017,300.90096l-5.11696,-2.44605" data-paper-data="{&quot;origPos&quot;:null}" fill="none"/><path d="M163.54975,301.44545l4.47813,1.64136" data-paper-data="{&quot;origPos&quot;:null}" fill="none"/><path d="M160.31322,303.96756l4.03031,1.47724" data-paper-data="{&quot;origPos&quot;:null}" fill="none"/><path d="M156.46756,307.12221l2.59136,0.66456" data-paper-data="{&quot;origPos&quot;:null}" fill="none"/><path d="M151.72625,309.94859l2.23907,0.82068l-1.86339,4.45175" data-paper-data="{&quot;origPos&quot;:null}" fill="none"/><path d="M174.64956,305.2286l-3.88171,5.70881" data-paper-data="{&quot;origPos&quot;:null}" fill="none"/><path d="M166.51041,311.37378l3.11132,-4.27961" data-paper-data="{&quot;origPos&quot;:null}" fill="none"/><path d="M162.89184,312.61482l1.95891,-4.13148" data-paper-data="{&quot;origPos&quot;:null}" fill="none"/><path d="M159.11835,310.66118l-1.79762,3.33481" data-paper-data="{&quot;origPos&quot;:null}" fill="none"/></g><g data-paper-data="{&quot;origPos&quot;:null,&quot;origRot&quot;:0}" stroke="#674116"><path d="M209.27268,323.32175l-5.51329,2.76l-5.91454,-0.29746l-3.66909,-1.09571l-3.66049,-5.00998l-4.68077,-4.82506l-9.36367,-8.67156l5.30195,0.60412l10.81311,-1.1773l7.34679,-1.72286l7.34248,0.23428l3.26141,0.97397l3.46204,2.50268l1.41935,3.85111l-1.23378,4.52761l12.23031,3.65237l-2.87092,6.97634l-11.4085,-6.34459z" fill="#a87927"/><path d="M213.72475,320.83236l-29.18195,-12.23983l30.33461,7.49216" fill="none"/><path d="M208.69276,308.75417l1.45646,5.52684" fill="none"/><path d="M203.96113,308.51621l1.62211,4.40125" fill="none"/><path d="M201.66783,312.53157l-1.4599,-3.96114" fill="none"/><path d="M195.63851,308.77259l1.1372,2.29802" fill="none"/><path d="M190.74467,308.09449l0.81106,2.20063l-4.24844,2.64812" fill="none"/><path d="M201.81111,321.58309l6.36922,-2.40647" fill="none"/><path d="M198.87929,319.14083l4.899,-1.67048" fill="none"/><path d="M195.7818,317.82413l4.08451,-2.30541" fill="none"/><path d="M191.38148,315.33498l3.4305,-1.71733" fill="none"/></g><g data-paper-data="{&quot;origPos&quot;:null,&quot;origRot&quot;:0}" stroke="#661515"><path d="M176.93917,353.97473l-5.61084,2.46491l-5.81987,-0.6449l-3.55465,-1.3199l-3.30675,-5.27083l-4.32516,-5.14358l-8.71229,-9.29946l5.19645,0.9188l10.74532,-0.55839l7.35715,-1.31109l7.23322,0.66434l3.1597,1.17324l3.26421,2.72817l1.16548,3.97033l-1.49472,4.49867l11.84883,4.39968l-3.26048,6.87524l-10.87297,-7.06955z" data-paper-data="{&quot;origPos&quot;:null}" fill="#a85a27"/><path d="M181.48591,351.72114l-28.05609,-14.0564l29.48421,9.33085" data-paper-data="{&quot;origPos&quot;:null}" fill="none"/><path d="M178.35728,344.89928l-1.09962,-5.66414" data-paper-data="{&quot;origPos&quot;:null}" fill="none"/><path d="M173.93372,343.25673l-1.33195,-4.53753" data-paper-data="{&quot;origPos&quot;:null}" fill="none"/><path d="M170.09253,342.63903l-1.19879,-4.08378" data-paper-data="{&quot;origPos&quot;:null}" fill="none"/><path d="M164.37104,338.49306l0.98194,2.38609" data-paper-data="{&quot;origPos&quot;:null}" fill="none"/><path d="M159.58196,337.52338l0.666,2.26876l-4.35547,2.4257" data-paper-data="{&quot;origPos&quot;:null}" fill="none"/><path d="M176.11443,349.72663l-6.43404,2.05817" data-paper-data="{&quot;origPos&quot;:null}" fill="none"/><path d="M171.87365,347.74766l-4.93782,1.40085" data-paper-data="{&quot;origPos&quot;:null}" fill="none"/><path d="M163.95894,347.63882l4.17269,-2.08927" data-paper-data="{&quot;origPos&quot;:null}" fill="none"/><path d="M159.76773,344.86967l3.49117,-1.53374" data-paper-data="{&quot;origPos&quot;:null}" fill="none"/></g><g data-paper-data="{&quot;origPos&quot;:null,&quot;origRot&quot;:0}" stroke="#665415"><path d="M217.84994,299.78371l-5.78342,0.55362l-4.84743,-2.64213l-2.62766,-2.54399l-0.99041,-6.42809l-1.92496,-6.64923l-4.25927,-12.32743l4.20484,2.70362l9.57892,3.12106l6.8926,1.20389l6.07397,3.14594l2.33569,2.26133l1.86773,3.85919l-0.41074,4.38791l-2.92246,4.00712l8.75889,8.47995l-5.31826,5.78953l-6.947,-10.8277z" data-paper-data="{&quot;origPos&quot;:null}" fill="#9fa827"/><path d="M222.62866,299.07777l-19.43101,-23.73453l22.37694,19.47669" data-paper-data="{&quot;origPos&quot;:null}" fill="none"/><path d="M222.35155,291.15259l1.07738,-6.06691" data-paper-data="{&quot;origPos&quot;:null}" fill="none"/><path d="M219.55097,282.972l-0.46941,5.01475" data-paper-data="{&quot;origPos&quot;:null}" fill="none"/><path d="M216.37372,281.53672l-0.42247,4.51327" data-paper-data="{&quot;origPos&quot;:null}" fill="none"/><path d="M212.4477,282.65798l0.00115,-2.73351" data-paper-data="{&quot;origPos&quot;:null}" fill="none"/><path d="M208.61783,277.30929l-0.2347,2.50738l-4.67366,0.94437" data-paper-data="{&quot;origPos&quot;:null}" fill="none"/><path d="M212.30235,295.09644l6.35562,0.13708" data-paper-data="{&quot;origPos&quot;:null}" fill="none"/><path d="M215.66849,291.79233l-4.81337,-0.28472" data-paper-data="{&quot;origPos&quot;:null}" fill="none"/><path d="M208.79993,288.97093l4.39316,-0.66901" data-paper-data="{&quot;origPos&quot;:null}" fill="none"/><path d="M206.1379,284.75293l3.59857,-0.34448" data-paper-data="{&quot;origPos&quot;:null}" fill="none"/></g><g data-paper-data="{&quot;origPos&quot;:null,&quot;origRot&quot;:0}" stroke="#674116"><path d="M211.94596,339.62335l-2.22537,5.55071l-4.95821,4.29483l-3.79479,2.20014l-6.87637,0.19964l-7.54527,1.06084l-14.32016,2.62182l4.71094,-3.67807l7.70671,-8.72868l4.50794,-6.40071l6.04875,-5.40049l3.37313,-1.95567l4.73956,-1.32772l4.17215,0.89481l2.58706,3.23399l12.64926,-7.33374l3.2117,5.71215l-14.11716,5.34448z" fill="#a87927"/><path d="M213.5373,335.0083l-32.96298,15.70277l30.13749,-18.98788" fill="none"/><path d="M199.9886,332.63831l5.52399,1.72057" fill="none"/><path d="M196.02206,336.07414l4.76817,1.02265" fill="none"/><path d="M193.06743,338.92332l4.29134,0.92038" fill="none"/><path d="M192.29908,342.77718l-2.7214,-0.31574" fill="none"/><path d="M185.1343,345.79502l2.38408,0.51132l-1.30348,4.54285" fill="none"/><path d="M204.61512,344.34701l3.18785,-6.01408" fill="none"/><path d="M200.34665,345.30692l2.5944,-4.53388" fill="none"/><path d="M196.83401,346.96474l1.44297,-4.245" fill="none"/><path d="M192.74047,345.55098l-1.38468,3.45377" fill="none"/></g><g data-paper-data="{&quot;origPos&quot;:null,&quot;origRot&quot;:0}" stroke="#674116"><path d="M209.5087,291.08767l5.39559,1.07065l3.60268,4.0443l1.62373,3.31866l-1.00735,6.79185l-0.22742,7.27956l0.2029,13.69079l-3.00317,-3.92532l-7.74097,-5.8643l-5.87857,-3.16413l-4.56302,-4.90073l-1.44332,-2.94993l-0.54687,-4.43674l1.67076,-4.32963l3.83012,-3.23525l-5.41246,-11.06221l6.52509,-4.36518l3.07831,12.9296z" fill="#dea433"/><path d="M204.97685,290.45475l10.54974,29.52767l-14.47532,-26.04501" fill="none"/><path d="M200.11004,304.40473l2.77093,-5.84261" fill="none"/><path d="M204.90162,302.69201l-1.90942,4.94814" fill="none"/><path d="M205.44135,309.99061l1.71848,-4.45333" fill="none"/><path d="M208.51444,312.73123l0.81038,-2.76907" fill="none"/><path d="M211.20563,316.46147l0.95472,-2.47407l4.50742,0.36172" fill="none"/><path d="M213.13918,297.40145l-5.70867,-1.93184" fill="none"/><path d="M213.38573,301.44565l-4.26986,-1.64633" fill="none"/><path d="M210.32164,304.03387l4.17214,0.56154" fill="none"/><path d="M215.65295,309.61976l-3.35726,-0.66619" fill="none"/></g><g data-paper-data="{&quot;origPos&quot;:null,&quot;origRot&quot;:0}" stroke="#665415"><path d="M196.69422,329.24963l3.54199,-5.06154l5.70526,-3.08114l4.07214,-1.25455l6.35321,1.57184l7.19924,0.87005l13.82819,1.0335l-5.31169,2.51875l-9.42397,6.87368l-5.8632,5.33553l-7.00375,3.92232l-3.61969,1.11517l-4.70132,0.12496l-3.57955,-1.98521l-1.49397,-3.95119l-13.5738,4.18187l-1.39494,-6.62858l14.37969,-1.78326z" data-paper-data="{&quot;origPos&quot;:null}" fill="#ded633"/><path d="M193.98645,333.52479l34.44912,-7.43696l-32.7506,11.50158" data-paper-data="{&quot;origPos&quot;:null}" fill="none"/><path d="M201.16162,336.25508l4.59426,3.1725" data-paper-data="{&quot;origPos&quot;:null}" fill="none"/><path d="M206.22917,334.69383l4.09092,2.26882" data-paper-data="{&quot;origPos&quot;:null}" fill="none"/><path d="M213.79839,334.8323l-3.68184,-2.04193" data-paper-data="{&quot;origPos&quot;:null}" fill="none"/><path d="M215.54608,331.11762l2.40741,1.0229" data-paper-data="{&quot;origPos&quot;:null}" fill="none"/><path d="M222.92682,329.90248l-2.04545,-1.13441l2.42451,-4.27612" data-paper-data="{&quot;origPos&quot;:null}" fill="none"/><path d="M200.13991,331.62901l4.54919,-5.28362" data-paper-data="{&quot;origPos&quot;:null}" fill="none"/><path d="M205.25457,330.40619l3.60467,-3.93387" data-paper-data="{&quot;origPos&quot;:null}" fill="none"/><path d="M212.52605,325.69554l-2.47164,3.93772" data-paper-data="{&quot;origPos&quot;:null}" fill="none"/><path d="M215.89301,328.1874l2.20391,-3.14941" data-paper-data="{&quot;origPos&quot;:null}" fill="none"/></g><g data-paper-data="{&quot;origPos&quot;:null,&quot;origRot&quot;:0}" stroke="#661515"><path d="M190.56338,312.20463l2.88307,4.30494l-0.238,5.87552l-1.07911,3.99649l-5.08067,5.49851l-4.88023,6.4209l-8.76006,12.46628l0.55833,-5.3972l-1.32433,-10.07763l-1.84331,-6.49095l0.15746,-7.24195l0.95922,-3.55244l2.51975,-4.33771l3.921,-2.86846l4.64224,-0.54537l3.59705,-13.32162l7.1638,0.10432l-6.35842,13.56003z" data-paper-data="{&quot;origPos&quot;:null}" fill="#de7633"/><path d="M187.96881,308.82891l-12.18637,33.14608l7.32008,-32.4368" data-paper-data="{&quot;origPos&quot;:null}" fill="none"/><path d="M181.3115,314.83941l-5.63366,3.55124" data-paper-data="{&quot;origPos&quot;:null}" fill="none"/><path d="M179.96859,319.81283l-4.48114,3.27822" data-paper-data="{&quot;origPos&quot;:null}" fill="none"/><path d="M179.61787,323.77533l-4.03305,2.95042" data-paper-data="{&quot;origPos&quot;:null}" fill="none"/><path d="M178.17904,329.10399l-2.33649,1.99436" data-paper-data="{&quot;origPos&quot;:null}" fill="none"/><path d="M175.20403,336.12659l2.24058,-1.63912l2.75458,3.11613" data-paper-data="{&quot;origPos&quot;:null}" fill="none"/><path d="M186.33814,314.86804l2.53123,5.27499" data-paper-data="{&quot;origPos&quot;:null}" fill="none"/><path d="M186.40546,323.94105l-1.76241,-4.12702" data-paper-data="{&quot;origPos&quot;:null}" fill="none"/><path d="M182.69166,324.37736l2.40238,3.08871" data-paper-data="{&quot;origPos&quot;:null}" fill="none"/><path d="M182.59865,332.71245l-1.7939,-2.67863" data-paper-data="{&quot;origPos&quot;:null}" fill="none"/></g><g data-paper-data="{&quot;origPos&quot;:null,&quot;origRot&quot;:0}" stroke="#674116"><path d="M168.9834,291.66361l2.9284,-5.34489l5.38918,-3.70184l3.97177,-1.72819l6.66439,0.71856l7.43105,-0.06734l14.18899,-0.74636l-5.06381,3.10796l-8.66537,7.84114l-5.25086,5.90314l-6.59718,4.67974l-3.53044,1.53617l-4.76083,0.71465l-3.90063,-1.46884l-2.04188,-3.6345l-13.23918,5.76063l-2.29613,-6.23762l14.37604,-3.54153z" fill="#dea433"/><path d="M166.79847,296.14222l34.02087,-11.54665l-31.75608,15.26508" fill="none"/><path d="M179.5408,300.36737l-5.08913,-2.48949" fill="none"/><path d="M183.85214,297.4059l-4.45786,-1.67866" fill="none"/><path d="M187.10436,294.90528l-4.01206,-1.5108" fill="none"/><path d="M188.38796,291.09023l2.58198,0.6857" fill="none"/><path d="M195.72708,288.98234l-2.22893,-0.83933l1.89694,-4.44377" fill="none"/><path d="M176.72271,287.84377l-3.92246,5.68695" fill="none"/><path d="M177.83561,291.70159l3.14154,-4.26166" fill="none"/><path d="M182.61067,290.34752l1.98967,-4.12227" fill="none"/><path d="M190.17424,284.88544l-1.82212,3.32569" fill="none"/></g><g data-paper-data="{&quot;origPos&quot;:null,&quot;origRot&quot;:0}" stroke="#674116"><path d="M121.69217,353.23142l5.80349,-1.26947l5.27797,1.94087l3.00914,2.12761l1.86263,6.09287l1.78909,3.89582c-8.89135,0.04153 -17.78277,0.11039 -26.67326,0.03981l-0.09699,-2.49515l2.43618,-4.24737l-10.03043,-7.09204l4.63343,-6.27569l8.50187,9.59319z" fill="#a87927"/><path d="M116.92996,354.52076l12.90503,11.54604" fill="none"/><path d="M114.50332,359.01366l11.19072,7.06859" fill="none"/><path d="M118.07929,366.08584l0.18783,-3.93337" fill="none"/><path d="M122.0118,364.80015l0.0501,1.28882" fill="none"/><path d="M121.47707,357.73583l6.47698,-0.67391" fill="none"/><path d="M129.90273,360.35011l-4.92935,0.33539" fill="none"/><path d="M127.95381,363.74801l4.37532,-1.20471" fill="none"/></g><g data-paper-data="{&quot;origPos&quot;:null,&quot;origRot&quot;:0}" fill="#9fa827" stroke="#665415"><path d="M101.74932,363.45788l6.50791,-4.39438l1.70206,6.96838c-0.7529,-0.00862 -1.5058,-0.01836 -2.25869,-0.02933c-1.57385,-0.02292 -3.16916,-0.09072 -4.78169,-0.19089z" data-paper-data="{&quot;origPos&quot;:null}"/></g><g data-paper-data="{&quot;origPos&quot;:null,&quot;origRot&quot;:0}" stroke="#674116"><path d="M134.67622,328.75665l3.63318,-5.00957l5.74651,-2.97908l4.08191,-1.17831l6.29497,1.70358l7.15221,1.01603l13.75116,1.3116l-5.34284,2.42247l-9.52926,6.71158l-5.95075,5.2385l-7.05728,3.79757l-3.62837,1.04738l-4.68505,0.03215l-3.52384,-2.0634l-1.40569,-3.99513l-13.60638,3.92768l-1.2513,-6.68022l14.35907,-1.50444z" fill="#a87927"/><path d="M131.89032,332.99353l34.46566,-6.78042l-32.85858,10.89345" fill="none"/><path d="M138.97984,335.87605l4.50974,3.27512" fill="none"/><path d="M148.08677,336.76789l-4.02724,-2.35819" fill="none"/><path d="M151.59549,334.69883l-3.62452,-2.12237" fill="none"/><path d="M153.4135,331.0054l2.37646,1.07435" fill="none"/><path d="M160.7899,329.93229l-2.01363,-1.1791l2.50382,-4.24349" fill="none"/><path d="M138.05856,331.21298l4.64092,-5.21246" fill="none"/><path d="M143.17815,330.08721l3.67208,-3.87658" fill="none"/><path d="M150.51851,325.5038l-2.54368,3.9029" fill="none"/><path d="M153.82008,328.07145l2.26063,-3.11706" fill="none"/></g><g data-paper-data="{&quot;origPos&quot;:null,&quot;origRot&quot;:0}" stroke="#665415"><path d="M147.16957,340.13246l-3.45145,5.11041l-5.6627,3.17975l-4.06102,1.32866l-6.40772,-1.4424l-7.24246,-0.72694l-13.89822,-0.76112l5.27922,-2.61194l9.31736,-7.02957l5.77531,-5.42837l6.94867,-4.04284l3.60979,-1.18102l4.71542,-0.2157l3.63267,1.90798l1.57972,3.9067l13.5367,-4.42885l1.53489,6.57551l-14.3943,2.0553z" data-paper-data="{&quot;origPos&quot;:null}" fill="#ded633"/><path d="M149.79987,335.82152l-34.41966,8.07627l32.63235,-12.09198" data-paper-data="{&quot;origPos&quot;:null}" fill="none"/><path d="M142.54369,333.24119l-4.67515,-3.0709" data-paper-data="{&quot;origPos&quot;:null}" fill="none"/><path d="M137.48997,334.89463l-4.1516,-2.18054" data-paper-data="{&quot;origPos&quot;:null}" fill="none"/><path d="M133.6276,336.86607l-3.73646,-1.96248" data-paper-data="{&quot;origPos&quot;:null}" fill="none"/><path d="M125.77612,337.66546l2.43679,0.97217" data-paper-data="{&quot;origPos&quot;:null}" fill="none"/><path d="M120.8308,339.99121l2.07582,1.09028l-2.34601,4.30638" data-paper-data="{&quot;origPos&quot;:null}" fill="none"/><path d="M143.66323,337.82927l-4.45769,5.35116" data-paper-data="{&quot;origPos&quot;:null}" fill="none"/><path d="M135.01803,343.13494l3.53731,-3.98837" data-paper-data="{&quot;origPos&quot;:null}" fill="none"/><path d="M133.75424,340.00959l-2.40018,3.97024" data-paper-data="{&quot;origPos&quot;:null}" fill="none"/><path d="M125.77685,344.74289l2.14758,-3.17982" data-paper-data="{&quot;origPos&quot;:null}" fill="none"/></g><g data-paper-data="{&quot;origPos&quot;:null,&quot;origRot&quot;:0}" stroke="#661515"><path d="M142.90666,365.86965l-1.81536,-5.23811l-0.31188,-3.86855l3.18919,-6.52074l2.66493,-7.26382l4.45459,-13.86458l1.32576,4.92487l4.85701,8.40706l4.12483,5.08493l2.37428,6.41103l0.27723,3.43871l-1.01836,4.64821l-2.94215,3.82509l-1.31512,0.59462c-0.23801,-0.03526 -0.47004,-0.07044 -0.69569,-0.10566c-1.35823,-0.212 -2.73531,-0.33432 -4.10997,-0.34015c-3.61639,-0.01536 -7.23288,-0.01116 -10.84941,0.00137z" data-paper-data="{&quot;origPos&quot;:null}" fill="#de7633"/><path d="M151.20128,365.99443l0.57298,-28.36975l3.65794,28.42706" data-paper-data="{&quot;origPos&quot;:null}" fill="none"/><path d="M155.70099,363.29255l4.42664,-4.99527" data-paper-data="{&quot;origPos&quot;:null}" fill="none"/><path d="M158.67535,354.10679l-3.36246,4.37153" data-paper-data="{&quot;origPos&quot;:null}" fill="none"/><path d="M154.27998,354.8823l3.02622,-3.93439" data-paper-data="{&quot;origPos&quot;:null}" fill="none"/><path d="M153.86416,349.72421l1.65352,-2.52964" data-paper-data="{&quot;origPos&quot;:null}" fill="none"/><path d="M154.40162,342.56692l-1.68123,2.18578l-3.86146,-1.81815" data-paper-data="{&quot;origPos&quot;:null}" fill="none"/><path d="M150.63317,364.94235l-4.39178,-3.7881" data-paper-data="{&quot;origPos&quot;:null}" fill="none"/><path d="M150.60899,360.03486l-3.21669,-3.03632" data-paper-data="{&quot;origPos&quot;:null}" fill="none"/><path d="M147.47908,353.46652l3.4975,1.91143" data-paper-data="{&quot;origPos&quot;:null}" fill="none"/><path d="M148.15513,348.02862l2.74184,1.75412" data-paper-data="{&quot;origPos&quot;:null}" fill="none"/></g><g data-paper-data="{&quot;origPos&quot;:null,&quot;origRot&quot;:0}" stroke="#674116"><path d="M184.92443,363.07977l-5.28385,3.27887l-6.03558,0.34553l-3.84689,-0.67266l-4.2793,-4.48411l-5.29383,-4.19452l-10.47956,-7.43622l5.4485,0.01878l10.84045,-2.30721l7.26134,-2.46608l7.47754,-0.56037l3.41945,0.59794l3.79535,2.06457l1.87438,3.59662l-0.74177,4.54006l12.82294,2.24225l-2.12717,7.09967l-12.29241,-4.95133z" fill="#dea433"/><path d="M189.16181,360.17834l-30.99327,-8.78179l31.62793,4.0362" fill="none"/><path d="M184.79502,354.18459l-2.10091,-5.22393" fill="none"/><path d="M180.00777,353.3475l-2.14215,-4.11041" fill="none"/><path d="M174.06301,349.6929l1.92793,3.69936" fill="none"/><path d="M169.44872,350.38036l1.41301,2.115" fill="none"/><path d="M164.40605,350.24576l1.07108,2.05519l-4.01286,3.03411" fill="none"/><path d="M183.34875,359.16184l-6.19227,3.02661" fill="none"/><path d="M173.90601,360.12573l4.78323,-2.15224" fill="none"/><path d="M174.49941,356.49369l-3.88511,2.68286" fill="none"/><path d="M165.86829,357.22591l3.28773,-2.04017" fill="none"/></g><g data-paper-data="{&quot;origPos&quot;:null,&quot;origRot&quot;:0}" fill="#dea433" stroke="#674116"><path d=""/></g><g data-paper-data="{&quot;origPos&quot;:null,&quot;origRot&quot;:0}" fill="#9fa827" stroke="#665415"><path d="" data-paper-data="{&quot;origPos&quot;:null}"/></g><g data-paper-data="{&quot;origPos&quot;:null,&quot;origRot&quot;:0}" fill="#a85a27" stroke="#661515"><path d="" data-paper-data="{&quot;origPos&quot;:null}"/></g><g data-paper-data="{&quot;origPos&quot;:null,&quot;origRot&quot;:0}" fill="#a85a27" stroke="#661515"><path d="" data-paper-data="{&quot;origPos&quot;:null}"/></g><g data-paper-data="{&quot;origPos&quot;:null,&quot;origRot&quot;:0}" fill="#a87927" stroke="#674116"><path d=""/></g><g data-paper-data="{&quot;origPos&quot;:null,&quot;origRot&quot;:0}" stroke="#674116"><path d="M127.05975,355.50275l5.48408,0.82704l3.8131,3.85073l1.78656,3.21754l-0.27405,2.62861c-7.90009,0.03924 -15.80021,0.09233 -23.69962,0.04229l1.1881,-3.4867l3.71132,-3.3711l-5.95522,-10.72515l6.37483,-4.60726l3.68873,12.67631z" fill="#dea433"/><path d="M122.46568,355.07197l4.5748,11.00601" fill="none"/><path d="M118.66944,358.69232l4.63107,7.39525" fill="none"/><path d="M120.72287,363.19487l-1.23697,2.89353" fill="none"/><path d="M125.16538,359.93404l5.83863,1.66669" fill="none"/><path d="M131.43621,365.59671l-4.3762,-1.44612" fill="none"/></g><g data-paper-data="{&quot;origPos&quot;:null,&quot;origRot&quot;:0}" fill="#ded633" stroke="#665415"><path d="" data-paper-data="{&quot;origPos&quot;:null}"/></g><g data-paper-data="{&quot;origPos&quot;:null,&quot;origRot&quot;:0}" fill="#de7633" stroke="#661515"><path d="" data-paper-data="{&quot;origPos&quot;:null}"/></g><g data-paper-data="{&quot;origPos&quot;:null,&quot;origRot&quot;:0}" fill="#ded633" stroke="#665415"><path d="" data-paper-data="{&quot;origPos&quot;:null}"/></g><g data-paper-data="{&quot;origPos&quot;:null,&quot;origRot&quot;:0}" stroke="#674116"><path d="M87.65544,362.1723l3.9225,-1.88416l6.74623,0.42329l7.48286,-0.38853l14.25979,-1.35393l-4.95993,3.29843l-3.88425,3.77788c-1.17403,-0.01152 -2.34804,-0.02564 -3.52204,-0.04274c-7.21603,-0.10512 -14.88328,-1.15342 -22.59311,-1.94092z" fill="#dea433"/><path d="M104.1976,365.88426l7.23972,-2.77017l-5.40286,2.84824" fill="none"/><path d="M105.93229,362.461l-1.31242,3.44408" fill="none"/><path d="M100.72681,363.8623l-0.8616,1.72573" fill="none"/></g><g data-paper-data="{&quot;origPos&quot;:null,&quot;origRot&quot;:0}" fill="#dea433" stroke="#674116"><path d=""/></g></g><path d="M202.89152,255.08613l25.90173,31.76348l-89.33369,79.16938c-10.58677,0.04938 -21.17367,0.13776 -31.75895,-0.01644c-9.00068,-0.13112 -18.70338,-1.72964 -28.31507,-2.45913z" data-paper-data="{&quot;origPos&quot;:null}" fill="url(#color-4)" stroke="#000000" stroke-width="0"/></g><g data-paper-data="{&quot;origPos&quot;:null,&quot;origRot&quot;:0,&quot;index&quot;:null}"><g stroke-width="0.5"><g data-paper-data="{&quot;origPos&quot;:null,&quot;origRot&quot;:0}" stroke="#665415"><path d="M411.08322,227.30318l-7.49044,10.42636l-5.09436,-5.96612l9.20898,-8.02195l-2.76188,-4.09649l-0.21432,-4.36498l2.05692,-3.74249l2.45571,-2.13919l6.2618,-2.85369l6.99818,-0.89423l9.79148,-2.67725l4.35875,-2.49645l-4.85103,12.02857l-2.24142,6.50415l-1.2899,6.32554l-2.7627,2.40658l-5.00331,2.40767l-5.80094,-0.79895z" data-paper-data="{&quot;origPos&quot;:null}" fill="#9fa827"/><path d="M407.14874,224.09804l23.42738,-18.32686l-20.65325,22.67277" data-paper-data="{&quot;origPos&quot;:null}" fill="none"/><path d="M409.7527,214.54706l0.80955,6.05726" data-paper-data="{&quot;origPos&quot;:null}" fill="none"/><path d="M413.75533,212.62092l0.24494,4.98854" data-paper-data="{&quot;origPos&quot;:null}" fill="none"/><path d="M417.02126,211.33653l0.22044,4.4897" data-paper-data="{&quot;origPos&quot;:null}" fill="none"/><path d="M421.04839,209.90925l-0.1231,2.70818" data-paper-data="{&quot;origPos&quot;:null}" fill="none"/><path d="M429.81425,211.11653l-4.66523,-1.13801l-0.12248,-2.49426" data-paper-data="{&quot;origPos&quot;:null}" fill="none"/><path d="M414.09759,224.80731l6.40874,0.13943" data-paper-data="{&quot;origPos&quot;:null}" fill="none"/><path d="M422.12737,221.45392l-4.86183,0.07362" data-paper-data="{&quot;origPos&quot;:null}" fill="none"/><path d="M424.31303,219.02979l-4.39517,-0.85306" data-paper-data="{&quot;origPos&quot;:null}" fill="none"/><path d="M427.18643,214.9662l-3.60948,-0.49711" data-paper-data="{&quot;origPos&quot;:null}" fill="none"/></g><g data-paper-data="{&quot;origPos&quot;:null,&quot;origRot&quot;:0}" stroke="#665415"><path d="M390.94496,161.27495l-14.36819,-3.64809l2.3505,-6.21022l13.21151,5.85494l2.07459,-3.61304l3.91836,-1.43621l4.76198,0.75063l3.52308,1.56132l6.5686,4.72397l5.21031,5.93501l8.61401,7.89664l5.04583,3.14266l-14.20371,-0.85574l-7.44141,-0.1251l-6.68004,0.66555l-3.96347,-1.75647l-5.36682,-3.73815l-2.88903,-5.3595z" data-paper-data="{&quot;origPos&quot;:null}" fill="#9fa827"/><path d="M391.45803,156.87926l31.67789,15.48905l-33.97638,-11.79396" data-paper-data="{&quot;origPos&quot;:null}" fill="none"/><path d="M396.83816,158.90096l5.11696,-2.44605" data-paper-data="{&quot;origPos&quot;:null}" fill="none"/><path d="M401.77045,161.08681l4.47814,-1.64136" data-paper-data="{&quot;origPos&quot;:null}" fill="none"/><path d="M409.48511,161.96756l-4.03031,1.47724" data-paper-data="{&quot;origPos&quot;:null}" fill="none"/><path d="M413.33077,165.12221l-2.59136,0.66456" data-paper-data="{&quot;origPos&quot;:null}" fill="none"/><path d="M417.6964,173.22102l-1.86339,-4.45175l2.23907,-0.82068" data-paper-data="{&quot;origPos&quot;:null}" fill="none"/><path d="M395.14877,163.2286l3.88171,5.70881" data-paper-data="{&quot;origPos&quot;:null}" fill="none"/><path d="M403.28792,169.37379l-3.11133,-4.27961" data-paper-data="{&quot;origPos&quot;:null}" fill="none"/><path d="M406.90648,170.61482l-1.95891,-4.13147" data-paper-data="{&quot;origPos&quot;:null}" fill="none"/><path d="M410.67998,168.66118l1.79762,3.33481" data-paper-data="{&quot;origPos&quot;:null}" fill="none"/></g><g data-paper-data="{&quot;origPos&quot;:null,&quot;origRot&quot;:0}" stroke="#674116"><path d="M357.66329,178.25969l-11.4085,6.34459l-2.87092,-6.97633l12.2303,-3.65237l-1.23378,-4.52761l1.41935,-3.85111l3.46204,-2.50268l3.26141,-0.97397l7.34248,-0.23428l7.34679,1.72286l10.81311,1.1773l5.30195,-0.60412l-9.36367,8.67157l-4.68077,4.82506l-3.6605,5.00998l-3.66909,1.09572l-5.91454,0.29746l-5.5133,-2.76z" fill="#a87927"/><path d="M354.92092,174.08469l30.33461,-7.49216l-29.18194,12.23983" fill="none"/><path d="M361.10557,166.75417l-1.45646,5.52684" fill="none"/><path d="M365.8372,166.51621l-1.62211,4.40125" fill="none"/><path d="M368.1305,170.53158l1.4599,-3.96114" fill="none"/><path d="M374.15982,166.77259l-1.1372,2.29802" fill="none"/><path d="M382.49103,170.94324l-4.24843,-2.64812l0.81106,-2.20063" fill="none"/><path d="M367.98722,179.58309l-6.36922,-2.40647" fill="none"/><path d="M370.91904,177.14083l-4.899,-1.67048" fill="none"/><path d="M369.93202,173.51873l4.08451,2.30541" fill="none"/><path d="M374.98634,171.61765l3.43051,1.71733" fill="none"/></g><g data-paper-data="{&quot;origPos&quot;:null,&quot;origRot&quot;:0}" stroke="#661515"><path d="M389.84655,209.0504l-10.87297,7.06956l-3.26049,-6.87524l11.84882,-4.39969l-1.49471,-4.49867l1.16548,-3.97033l3.26421,-2.72817l3.1597,-1.17324l7.23322,-0.66434l7.35715,1.31109l10.74532,0.55839l5.19645,-0.9188l-8.71228,9.29946l-4.32517,5.14358l-3.30675,5.27083l-3.55465,1.3199l-5.81988,0.64491l-5.61084,-2.46492z" data-paper-data="{&quot;origPos&quot;:null}" fill="#a85a27"/><path d="M386.88431,204.9956l29.48421,-9.33085l-28.05609,14.05639" data-paper-data="{&quot;origPos&quot;:null}" fill="none"/><path d="M392.54067,197.23514l-1.09962,5.66414" data-paper-data="{&quot;origPos&quot;:null}" fill="none"/><path d="M397.19656,196.7192l-1.33194,4.53752" data-paper-data="{&quot;origPos&quot;:null}" fill="none"/><path d="M399.7058,200.63903l1.19878,-4.08379" data-paper-data="{&quot;origPos&quot;:null}" fill="none"/><path d="M405.42729,196.49306l-0.98194,2.38609" data-paper-data="{&quot;origPos&quot;:null}" fill="none"/><path d="M413.90584,200.21783l-4.35547,-2.42569l0.666,-2.26876" data-paper-data="{&quot;origPos&quot;:null}" fill="none"/><path d="M400.11795,209.7848l-6.43405,-2.05817" data-paper-data="{&quot;origPos&quot;:null}" fill="none"/><path d="M397.92468,205.74766l4.93782,1.40085" data-paper-data="{&quot;origPos&quot;:null}" fill="none"/><path d="M401.6667,203.54955l4.17269,2.08927" data-paper-data="{&quot;origPos&quot;:null}" fill="none"/><path d="M410.0306,202.86967l-3.49117,-1.53374" data-paper-data="{&quot;origPos&quot;:null}" fill="none"/></g><g data-paper-data="{&quot;origPos&quot;:null,&quot;origRot&quot;:0}" stroke="#665415"><path d="M348.26738,155.87831l-6.947,10.8277l-5.31826,-5.78953l8.75889,-8.47996l-2.92246,-4.00712l-0.41074,-4.38791l1.86772,-3.85918l2.33569,-2.26134l6.07397,-3.14594l6.8926,-1.20389l9.57892,-3.12106l4.20484,-2.70362l-4.25927,12.32744l-1.92496,6.64923l-0.99041,6.42808l-2.62766,2.54399l-4.84743,2.64212l-5.78342,-0.55362z" data-paper-data="{&quot;origPos&quot;:null}" fill="#9fa827"/><path d="M344.22374,152.81993l22.37694,-19.47669l-19.43101,23.73453" data-paper-data="{&quot;origPos&quot;:null}" fill="none"/><path d="M347.44678,149.15258l-1.07738,-6.06691" data-paper-data="{&quot;origPos&quot;:null}" fill="none"/><path d="M350.24736,140.972l0.46941,5.01476" data-paper-data="{&quot;origPos&quot;:null}" fill="none"/><path d="M353.42461,139.53671l0.42247,4.51328" data-paper-data="{&quot;origPos&quot;:null}" fill="none"/><path d="M357.35063,140.65798l-0.00114,-2.73351" data-paper-data="{&quot;origPos&quot;:null}" fill="none"/><path d="M366.08887,138.76103l-4.67366,-0.94437l-0.23471,-2.50737" data-paper-data="{&quot;origPos&quot;:null}" fill="none"/><path d="M357.49598,153.09644l-6.35561,0.13708" data-paper-data="{&quot;origPos&quot;:null}" fill="none"/><path d="M354.12984,149.79233l4.81336,-0.28472" data-paper-data="{&quot;origPos&quot;:null}" fill="none"/><path d="M356.60524,146.30192l4.39315,0.66901" data-paper-data="{&quot;origPos&quot;:null}" fill="none"/><path d="M363.66043,142.75293l-3.59857,-0.34448" data-paper-data="{&quot;origPos&quot;:null}" fill="none"/></g><g data-paper-data="{&quot;origPos&quot;:null,&quot;origRot&quot;:0}" stroke="#674116"><path d="M357.9825,193.9117l-14.11716,-5.34448l3.2117,-5.71215l12.64926,7.33374l2.58706,-3.23399l4.17215,-0.89481l4.73956,1.32772l3.37313,1.95567l6.04875,5.40049l4.50795,6.40071l7.70671,8.72868l4.71094,3.67807l-14.32016,-2.62182l-7.54527,-1.06085l-6.87637,-0.19964l-3.79478,-2.20014l-4.95821,-4.29483l-2.22537,-5.55072z" fill="#a87927"/><path d="M359.08652,189.7232l30.13749,18.98788l-32.96298,-15.70278" fill="none"/><path d="M369.80973,190.63831l-5.52399,1.72056" fill="none"/><path d="M373.77627,194.07414l-4.76817,1.02265" fill="none"/><path d="M372.43956,197.8437l4.29134,-0.92038" fill="none"/><path d="M377.49925,200.77718l2.7214,-0.31574" fill="none"/><path d="M383.58343,208.84919l-1.30348,-4.54285l2.38408,-0.51132" fill="none"/><path d="M365.18321,202.34701l-3.18784,-6.01408" fill="none"/><path d="M369.45168,203.30692l-2.5944,-4.53388" fill="none"/><path d="M372.96432,204.96474l-1.44297,-4.245" fill="none"/><path d="M378.44254,207.00475l-1.38468,-3.45377" fill="none"/></g><g data-paper-data="{&quot;origPos&quot;:null,&quot;origRot&quot;:0}" stroke="#674116"><path d="M364.18361,149.97965l3.07831,-12.9296l6.52509,4.36518l-5.41246,11.06221l3.83012,3.23525l1.67076,4.32963l-0.54687,4.43674l-1.44332,2.94993l-4.56302,4.90074l-5.87857,3.16413l-7.74097,5.8643l-3.00317,3.92532l0.2029,-13.69079l-0.22742,-7.27956l-1.00736,-6.79185l1.62373,-3.31866l3.60268,-4.0443l5.39559,-1.07066z" fill="#dea433"/><path d="M368.74705,151.93741l-14.47532,26.04501l10.54975,-29.52767" fill="none"/><path d="M366.91736,156.56212l2.77093,5.84261" fill="none"/><path d="M364.89671,160.69201l1.90942,4.94814" fill="none"/><path d="M362.6385,163.53728l1.71849,4.45333" fill="none"/><path d="M361.28389,170.73123l-0.81037,-2.76906" fill="none"/><path d="M353.13056,172.34912l4.50741,-0.36172l0.95472,2.47407" fill="none"/><path d="M356.65915,155.40145l5.70867,-1.93184" fill="none"/><path d="M356.4126,159.44565l4.26986,-1.64633" fill="none"/><path d="M359.47669,162.03387l-4.17214,0.56153" fill="none"/><path d="M354.14538,167.61976l3.35726,-0.66619" fill="none"/></g><g data-paper-data="{&quot;origPos&quot;:null,&quot;origRot&quot;:0}" stroke="#665415"><path d="M373.99027,191.05183l14.37969,1.78327l-1.39494,6.62857l-13.5738,-4.18187l-1.49397,3.95119l-3.57955,1.98522l-4.70132,-0.12497l-3.61969,-1.11517l-7.00375,-3.92231l-5.8632,-5.33552l-9.42397,-6.87369l-5.3117,-2.51875l13.8282,-1.03351l7.19923,-0.87005l6.35321,-1.57184l4.07214,1.25455l5.70526,3.08114l3.54199,5.06154z" data-paper-data="{&quot;origPos&quot;:null}" fill="#ded633"/><path d="M374.11336,195.58941l-32.75059,-11.50158l34.44911,7.43696" data-paper-data="{&quot;origPos&quot;:null}" fill="none"/><path d="M368.63671,194.25508l-4.59426,3.17249" data-paper-data="{&quot;origPos&quot;:null}" fill="none"/><path d="M363.56916,192.69383l-4.09092,2.26882" data-paper-data="{&quot;origPos&quot;:null}" fill="none"/><path d="M359.68178,190.79037l-3.68184,2.04193" data-paper-data="{&quot;origPos&quot;:null}" fill="none"/><path d="M354.25225,189.11762l-2.40742,1.0229" data-paper-data="{&quot;origPos&quot;:null}" fill="none"/><path d="M346.49245,182.49196l2.42451,4.27612l-2.04545,1.13441" data-paper-data="{&quot;origPos&quot;:null}" fill="none"/><path d="M369.65842,189.62902l-4.54919,-5.28362" data-paper-data="{&quot;origPos&quot;:null}" fill="none"/><path d="M364.54376,188.40619l-3.60466,-3.93387" data-paper-data="{&quot;origPos&quot;:null}" fill="none"/><path d="M357.27228,183.69554l2.47163,3.93772" data-paper-data="{&quot;origPos&quot;:null}" fill="none"/><path d="M353.90532,186.1874l-2.20391,-3.14941" data-paper-data="{&quot;origPos&quot;:null}" fill="none"/></g><g data-paper-data="{&quot;origPos&quot;:null,&quot;origRot&quot;:0}" stroke="#661515"><path d="M382.39717,168.59829l-6.35842,-13.56003l7.16379,-0.10432l3.59706,13.32162l4.64224,0.54538l3.921,2.86846l2.51975,4.33771l0.95921,3.55244l0.15746,7.24195l-1.84331,6.49095l-1.32433,10.07764l0.55833,5.3972l-8.76006,-12.46628l-4.88023,-6.4209l-5.08067,-5.49851l-1.07911,-3.99649l-0.238,-5.87552l2.88307,-4.30495z" data-paper-data="{&quot;origPos&quot;:null}" fill="#de7633"/><path d="M386.69581,167.53819l7.32008,32.4368l-12.18637,-33.14608" data-paper-data="{&quot;origPos&quot;:null}" fill="none"/><path d="M388.48683,172.83942l5.63365,3.55123" data-paper-data="{&quot;origPos&quot;:null}" fill="none"/><path d="M389.82974,177.81283l4.48114,3.27823" data-paper-data="{&quot;origPos&quot;:null}" fill="none"/><path d="M390.18046,181.77533l4.03305,2.95041" data-paper-data="{&quot;origPos&quot;:null}" fill="none"/><path d="M393.95578,189.09835l-2.3365,-1.99436" data-paper-data="{&quot;origPos&quot;:null}" fill="none"/><path d="M389.59915,195.60359l2.75457,-3.11613l2.24058,1.63912" data-paper-data="{&quot;origPos&quot;:null}" fill="none"/><path d="M383.46019,172.86804l-2.53123,5.27499" data-paper-data="{&quot;origPos&quot;:null}" fill="none"/><path d="M385.15528,177.81403l-1.76241,4.12702" data-paper-data="{&quot;origPos&quot;:null}" fill="none"/><path d="M387.10667,182.37736l-2.40238,3.08871" data-paper-data="{&quot;origPos&quot;:null}" fill="none"/><path d="M388.99358,188.03382l-1.7939,2.67863" data-paper-data="{&quot;origPos&quot;:null}" fill="none"/></g><g data-paper-data="{&quot;origPos&quot;:null,&quot;origRot&quot;:0}" stroke="#674116"><path d="M401.21145,153.45451l14.37604,3.54152l-2.29614,6.23763l-13.23918,-5.76063l-2.04188,3.6345l-3.90064,1.46884l-4.76083,-0.71466l-3.53044,-1.53616l-6.59718,-4.67974l-5.25086,-5.90314l-8.66537,-7.84115l-5.06381,-3.10796l14.18899,0.74636l7.43106,0.06734l6.66438,-0.71856l3.97177,1.72818l5.38918,3.70184l2.9284,5.34489z" fill="#dea433"/><path d="M400.73507,157.86065l-31.75609,-15.26508l34.02088,11.54665" fill="none"/><path d="M390.25753,158.36737l5.08913,-2.48949" fill="none"/><path d="M385.94619,155.40589l4.45786,-1.67866" fill="none"/><path d="M386.70603,151.39448l-4.01206,1.5108" fill="none"/><path d="M381.41037,149.09023l-2.58198,0.68571" fill="none"/><path d="M374.40323,141.69924l1.89695,4.44377l-2.22893,0.83933" fill="none"/><path d="M396.99808,151.53072l-3.92246,-5.68696" fill="none"/><path d="M391.96272,149.70159l-3.14154,-4.26165" fill="none"/><path d="M387.18766,148.34752l-1.98967,-4.12227" fill="none"/><path d="M381.44621,146.21114l-1.82213,-3.3257" fill="none"/></g><g data-paper-data="{&quot;origPos&quot;:null,&quot;origRot&quot;:0}" stroke="#674116"><path d="M451.59305,213.54188l8.50187,-9.5932l4.63342,6.27569l-10.03043,7.09204l2.43618,4.24737l-0.16703,4.29702l-2.41202,3.49638l-2.67478,1.89122l-6.5915,2.2726l-7.16475,0.28999l-10.15001,1.80373l-4.63315,2.08192l5.97025,-11.38513l2.84183,-6.1882l1.86263,-6.09287l3.00914,-2.12762l5.27797,-1.94087l5.80349,1.26947z" fill="#a87927"/><path d="M455.29501,217.01366l-25.33407,16.0022l22.90744,-20.4951" fill="none"/><path d="M451.81801,226.15832l-0.2868,-6.00586" fill="none"/><path d="M447.78653,222.80015l-0.19089,4.91086" fill="none"/><path d="M444.3475,224.27655l-0.17179,4.41978" fill="none"/><path d="M439.9724,229.75793l0.36293,-2.64455" fill="none"/><path d="M431.20266,227.8396l4.62371,1.50668l-0.09544,2.45542" fill="none"/><path d="M448.32126,215.73583l-6.47698,-0.67391" fill="none"/><path d="M439.8956,218.35011l4.92935,0.33538" fill="none"/><path d="M441.84452,221.74801l-4.37532,-1.20471" fill="none"/><path d="M437.81326,225.07591l-3.61108,-0.78991" fill="none"/></g><g data-paper-data="{&quot;origPos&quot;:null,&quot;origRot&quot;:0}" stroke="#665415"><path d="M458.39001,229.96432l3.15109,-12.90082l6.50792,4.39438l-5.47745,11.02328l3.81638,3.25171l1.64903,4.33389l-0.57135,4.42948l-1.46064,2.93954l-4.59394,4.87234l-5.90139,3.13074l-7.78018,5.81861l-3.02729,3.90594l0.27699,-13.67604l-0.18836,-7.27342l-0.97168,-6.79021l1.64322,-3.307l3.62803,-4.0217l5.40663,-1.04183z" data-paper-data="{&quot;origPos&quot;:null}" fill="#9fa827"/><path d="M462.94729,231.94359l-14.63001,25.94447l10.7194,-29.4438" data-paper-data="{&quot;origPos&quot;:null}" fill="none"/><path d="M463.83294,242.40526l-2.74209,-5.851" data-paper-data="{&quot;origPos&quot;:null}" fill="none"/><path d="M459.04592,240.66962l1.88459,4.953" data-paper-data="{&quot;origPos&quot;:null}" fill="none"/><path d="M456.77016,243.50042l1.69614,4.45771" data-paper-data="{&quot;origPos&quot;:null}" fill="none"/><path d="M455.37543,250.6802l-0.79624,-2.77046" data-paper-data="{&quot;origPos&quot;:null}" fill="none"/><path d="M447.20538,252.25453l4.51378,-0.33817l0.9423,2.47651" data-paper-data="{&quot;origPos&quot;:null}" fill="none"/><path d="M456.55357,233.44147l-5.72468,1.90054" data-paper-data="{&quot;origPos&quot;:null}" fill="none"/><path d="M450.56028,239.3809l4.28291,-1.62272" data-paper-data="{&quot;origPos&quot;:null}" fill="none"/><path d="M449.43414,242.52179l4.17925,-0.53952" data-paper-data="{&quot;origPos&quot;:null}" fill="none"/><path d="M451.61088,246.8869l-3.36414,0.64825" data-paper-data="{&quot;origPos&quot;:null}" fill="none"/></g><g data-paper-data="{&quot;origPos&quot;:null,&quot;origRot&quot;:0}" stroke="#674116"><path d="M436.08385,190.55502l14.35907,1.50444l-1.2513,6.68022l-13.60638,-3.92768l-1.40569,3.99513l-3.52384,2.0634l-4.68505,-0.03215l-3.62837,-1.04738l-7.05728,-3.79756l-5.95075,-5.2385l-9.52926,-6.71158l-5.34284,-2.42247l13.75116,-1.3116l7.1522,-1.01602l6.29498,-1.70359l4.08191,1.17831l5.74651,2.97908l3.63317,5.00958z" fill="#a87927"/><path d="M436.30093,195.10656l-32.85858,-10.89344l34.46566,6.78042" fill="none"/><path d="M426.30875,197.15117l4.50974,-3.27512" fill="none"/><path d="M421.71155,194.76789l4.02724,-2.35818" fill="none"/><path d="M418.20284,192.69883l3.62452,-2.12236" fill="none"/><path d="M416.38482,189.0054l-2.37646,1.07435" fill="none"/><path d="M408.51825,182.50971l2.50382,4.24348l-2.01363,1.17909" fill="none"/><path d="M431.73977,189.21298l-4.64093,-5.21246" fill="none"/><path d="M422.9481,184.21063l3.67208,3.87658" fill="none"/><path d="M421.8235,187.4067l-2.54369,-3.90291" fill="none"/><path d="M415.97825,186.07145l-2.26063,-3.11706" fill="none"/></g><g data-paper-data="{&quot;origPos&quot;:null,&quot;origRot&quot;:0}" stroke="#665415"><path d="M421.81689,194.328l-14.3943,-2.05531l1.53488,-6.57551l13.5367,4.42885l1.57972,-3.9067l3.63267,-1.90798l4.71542,0.2157l3.60979,1.18103l6.94867,4.04285l5.77531,5.42837l9.31736,7.02957l5.27921,2.61193l-13.89822,0.76112l-7.24246,0.72694l-6.40773,1.4424l-4.06102,-1.32866l-5.6627,-3.17975l-3.45146,-5.11041z" data-paper-data="{&quot;origPos&quot;:null}" fill="#ded633"/><path d="M421.78578,189.80581l32.63234,12.09198l-34.41967,-8.07627" data-paper-data="{&quot;origPos&quot;:null}" fill="none"/><path d="M427.25464,191.24119l4.67514,-3.07089" data-paper-data="{&quot;origPos&quot;:null}" fill="none"/><path d="M432.30835,192.89463l4.1516,-2.18054" data-paper-data="{&quot;origPos&quot;:null}" fill="none"/><path d="M436.17072,194.86607l3.73647,-1.96248" data-paper-data="{&quot;origPos&quot;:null}" fill="none"/><path d="M444.02221,195.66546l-2.43679,0.97217" data-paper-data="{&quot;origPos&quot;:null}" fill="none"/><path d="M449.23772,203.38786l-2.346,-4.30638l2.07582,-1.09027" data-paper-data="{&quot;origPos&quot;:null}" fill="none"/><path d="M430.59279,201.18043l-4.45769,-5.35117" data-paper-data="{&quot;origPos&quot;:null}" fill="none"/><path d="M434.7803,201.13494l-3.53731,-3.98837" data-paper-data="{&quot;origPos&quot;:null}" fill="none"/><path d="M438.44427,201.97982l-2.40018,-3.97024" data-paper-data="{&quot;origPos&quot;:null}" fill="none"/><path d="M444.02148,202.74289l-2.14758,-3.17982" data-paper-data="{&quot;origPos&quot;:null}" fill="none"/></g><g data-paper-data="{&quot;origPos&quot;:null,&quot;origRot&quot;:0}" stroke="#661515"><path d="M418.74148,227.04547l1.65551,14.02465l-7.24471,-2.29549l1.03961,-12.89518l-4.4803,-2.02571l-2.94216,-3.8251l-1.01835,-4.6482l0.27724,-3.43871l2.37428,-6.41103l4.12483,-5.08493l4.85701,-8.40705l1.32576,-4.92487l4.45459,13.86458l2.66492,7.26382l3.18919,6.52074l-0.31189,3.86856l-1.81536,5.2381l-4.40653,2.81915z" data-paper-data="{&quot;origPos&quot;:null}" fill="#de7633"/><path d="M414.04544,226.54388l3.97863,-30.9192l0.6698,33.16349" data-paper-data="{&quot;origPos&quot;:null}" fill="none"/><path d="M414.09734,221.29255l-4.42664,-4.99526" data-paper-data="{&quot;origPos&quot;:null}" fill="none"/><path d="M411.12298,212.10679l3.36246,4.37153" data-paper-data="{&quot;origPos&quot;:null}" fill="none"/><path d="M415.51835,212.8823l-3.02622,-3.93439" data-paper-data="{&quot;origPos&quot;:null}" fill="none"/><path d="M415.93417,207.72421l-1.65352,-2.52964" data-paper-data="{&quot;origPos&quot;:null}" fill="none"/><path d="M420.93941,200.93454l-3.86146,1.81815l-1.68124,-2.18577" data-paper-data="{&quot;origPos&quot;:null}" fill="none"/><path d="M423.55694,219.15425l-4.39178,3.7881" data-paper-data="{&quot;origPos&quot;:null}" fill="none"/><path d="M419.18934,218.03487l3.21668,-3.03633" data-paper-data="{&quot;origPos&quot;:null}" fill="none"/><path d="M422.31925,211.46652l-3.4975,1.91143" data-paper-data="{&quot;origPos&quot;:null}" fill="none"/><path d="M418.90136,207.78274l2.74184,-1.75412" data-paper-data="{&quot;origPos&quot;:null}" fill="none"/></g><g data-paper-data="{&quot;origPos&quot;:null,&quot;origRot&quot;:0}" stroke="#674116"><path d="M382.31429,217.79156l-12.29241,4.95133l-2.12718,-7.09967l12.82295,-2.24225l-0.74178,-4.54006l1.87439,-3.59662l3.79535,-2.06456l3.41946,-0.59794l7.47755,0.56036l7.26134,2.46608l10.84045,2.30721l5.4485,-0.01878l-10.47955,7.43622l-5.29383,4.19452l-4.27931,4.48412l-3.84689,0.67266l-6.03559,-0.34553l-5.28384,-3.27887z" fill="#dea433"/><path d="M380.00187,213.43275l31.62793,-4.0362l-30.99327,8.78179" fill="none"/><path d="M385.00331,212.18459l2.10091,-5.22392" fill="none"/><path d="M389.79056,211.3475l2.14215,-4.11041" fill="none"/><path d="M395.73532,207.6929l-1.92793,3.69936" fill="none"/><path d="M400.34961,208.38036l-1.41301,2.115" fill="none"/><path d="M408.33406,213.33505l-4.01286,-3.0341l1.07109,-2.05519" fill="none"/><path d="M392.64184,220.18845l-6.19226,-3.02661" fill="none"/><path d="M391.10909,215.97349l4.78323,2.15224" fill="none"/><path d="M395.29892,214.49369l3.88511,2.68286" fill="none"/><path d="M403.93004,215.22591l-3.28773,-2.04017" fill="none"/></g><g data-paper-data="{&quot;origPos&quot;:null,&quot;origRot&quot;:0}" stroke="#674116"><path d="M408.64438,243.54555l-14.06939,0.39482l0.26803,-6.95909l13.68381,2.16962l0.79467,-4.25l3.1106,-2.57l4.526,-0.59518l3.64902,0.57858l7.34506,2.915l6.47981,4.5282l10.14059,5.54623l5.49705,1.74677l-13.0866,3.17626l-6.75961,1.99142l-5.83558,2.57554l-4.10515,-0.6509l-5.96492,-2.25856l-4.21095,-4.60607z" fill="#dea433"/><path d="M407.79468,238.94728l33.24365,6.67127l-34.21609,-2.27442" fill="none"/><path d="M417.15043,235.52957l-3.89164,3.934" fill="none"/><path d="M421.92235,237.33643l-3.55496,2.93714" fill="none"/><path d="M422.40012,241.61313l3.19946,-2.64342" fill="none"/><path d="M427.87364,242.48098l2.14239,-1.4107" fill="none"/><path d="M436.37925,248.03055l-3.01327,-3.97857l1.77748,-1.46857" fill="none"/><path d="M413.02556,244.3277l5.21209,4.67727" fill="none"/><path d="M422.21392,248.23512l-4.08914,-3.449" fill="none"/><path d="M425.85353,248.4621l-3.00385,-3.62698" fill="none"/><path d="M431.29885,248.27526l-2.62014,-2.86598" fill="none"/></g><g data-paper-data="{&quot;origPos&quot;:null,&quot;origRot&quot;:0}" stroke="#665415"><path d="M479.64005,240.57141l-14.3084,-4.23647l2.65013,-6.0508l13.04287,6.37276l1.77189,-2.7431c0.67725,5.8441 1.34565,11.6889 1.94059,17.5403l-2.23376,-1.67894l-2.66672,-5.43488z" data-paper-data="{&quot;origPos&quot;:null}" fill="#9fa827"/><path d="M480.35672,236.23872l2.88642,1.54619" data-paper-data="{&quot;origPos&quot;:null}" fill="none"/><path d="M483.73133,242.08747l-5.85802,-2.28749" data-paper-data="{&quot;origPos&quot;:null}" fill="none"/><path d="M483.80128,242.71321l-0.01518,-0.02423" data-paper-data="{&quot;origPos&quot;:null}" fill="none"/></g><g data-paper-data="{&quot;origPos&quot;:null,&quot;origRot&quot;:0}" stroke="#661515"><path d="M460.67333,258.91019l-4.89075,12.0962l-6.03728,-5.06594l7.00871,-9.98839l-3.45207,-3.62402l-1.10816,-4.40131l1.16045,-4.2169l1.86899,-2.66357l5.3057,-4.1439l6.40616,-2.29474l8.66709,-4.6625l3.58735,-3.40373l-2.0719,13.20519l-0.76083,7.06489l0.09834,6.69479l-2.10261,2.99652l-4.2129,3.44085l-5.63,0.3342z" data-paper-data="{&quot;origPos&quot;:null}" fill="#a85a27"/><path d="M456.30183,256.42563l18.26196,-23.2919l-14.74658,27.16741" data-paper-data="{&quot;origPos&quot;:null}" fill="none"/><path d="M456.77155,246.18723l2.0202,6.00639" data-paper-data="{&quot;origPos&quot;:null}" fill="none"/><path d="M461.40835,248.46461l-1.26648,-5.03007" data-paper-data="{&quot;origPos&quot;:null}" fill="none"/><path d="M462.95151,241.48094l1.1398,4.52706" data-paper-data="{&quot;origPos&quot;:null}" fill="none"/><path d="M466.44846,239.23125l0.44634,2.78138" data-paper-data="{&quot;origPos&quot;:null}" fill="none"/><path d="M474.95602,238.72622l-4.63065,-0.23564l-0.63322,-2.51504" data-paper-data="{&quot;origPos&quot;:null}" fill="none"/><path d="M462.99449,255.77307l6.06558,-1.12584" data-paper-data="{&quot;origPos&quot;:null}" fill="none"/><path d="M469.86177,250.77071l-4.56423,1.03672" data-paper-data="{&quot;origPos&quot;:null}" fill="none"/><path d="M471.41721,247.87047l-4.31709,0.00101" data-paper-data="{&quot;origPos&quot;:null}" fill="none"/><path d="M473.28007,243.16518l-3.50311,0.20796" data-paper-data="{&quot;origPos&quot;:null}" fill="none"/></g><g data-paper-data="{&quot;origPos&quot;:null,&quot;origRot&quot;:0}" stroke="#661515"><path d="M478.16302,292.96191l-11.27456,6.53306l-2.97205,-6.95263l12.13625,-3.8457l-1.30127,-4.52166l1.35453,-3.88301l3.41229,-2.5615l3.23635,-1.02552l3.80545,-0.17939c0.23888,7.37068 0.24709,14.75303 0.34702,22.12923l-0.30191,0.01982l-5.5402,-2.68504z" data-paper-data="{&quot;origPos&quot;:null}" fill="#a85a27"/><path d="M475.36319,288.81645l11.39942,-3.01479" data-paper-data="{&quot;origPos&quot;:null}" fill="none"/><path d="M486.80261,289.06726l-10.21557,4.49273" data-paper-data="{&quot;origPos&quot;:null}" fill="none"/><path d="M480.04885,286.93694l1.36519,-5.56395" data-paper-data="{&quot;origPos&quot;:null}" fill="none"/><path d="M484.57973,285.5012l1.54804,-4.43773" data-paper-data="{&quot;origPos&quot;:null}" fill="none"/><path d="M486.84852,293.54354l-4.75969,-1.72692" data-paper-data="{&quot;origPos&quot;:null}" fill="none"/><path d="M486.45088,290.03967l0.3634,0.11853" data-paper-data="{&quot;origPos&quot;:null}" fill="none"/></g><g data-paper-data="{&quot;origPos&quot;:null,&quot;origRot&quot;:0}" stroke="#674116"><path d="M444.9508,271.47777l-13.97842,-5.90626l3.49505,-5.52004l12.40927,7.81349l2.75315,-3.09194l4.24362,-0.70582l4.71418,1.52066l3.30914,2.0836l5.84792,5.61231l4.25027,6.53654l7.36683,8.98142l4.57852,3.84796l-14.30667,-3.21765l-7.55274,-1.37779l-6.91803,-0.49557l-3.72277,-2.34406l-4.79959,-4.4697l-1.98948,-5.59558z" fill="#a87927"/><path d="M446.25339,267.37594l29.49685,20.11684l-32.49252,-16.98459" fill="none"/><path d="M451.37119,270.21231l5.64297,-1.46537" fill="none"/><path d="M456.00395,273.12935l4.84984,-0.80666" fill="none"/><path d="M459.33587,275.99935l4.36485,-0.726" fill="none"/><path d="M464.29957,279.12475l2.75583,-0.19497" fill="none"/><path d="M470.06174,287.38533l-1.10661,-4.55714l2.42493,-0.40332" fill="none"/><path d="M451.8213,280.14664l-2.93802,-6.09632" fill="none"/><path d="M453.67013,276.67831l2.40747,4.60416" fill="none"/><path d="M458.28016,278.80896l1.26067,4.26809" fill="none"/><path d="M464.96673,285.33536l-1.2379,-3.48169" fill="none"/></g><g data-paper-data="{&quot;origPos&quot;:null,&quot;origRot&quot;:0}" stroke="#674116"><path d="M446.62076,214.55507l3.68873,-12.67631l6.37483,4.60725l-5.95523,10.72516l3.71132,3.3711l1.4863,4.36182l-0.75258,4.37187l-1.58806,2.86004l-4.81946,4.65763l-6.06577,2.88019l-8.06467,5.47462l-3.20375,3.75885l0.8267,-13.55495l0.10178,-7.22184l-0.70607,-6.77244l1.78656,-3.21755l3.8131,-3.85073l5.48408,-0.82704z" fill="#dea433"/><path d="M451.12889,216.69232l-15.76601,25.17641l11.96977,-28.79676" fill="none"/><path d="M451.60127,227.10324l-2.5258,-5.90838" fill="none"/><path d="M448.55079,230.18384l-1.69861,-4.98493" fill="none"/><path d="M445.97674,232.40642l-1.52875,-4.48642" fill="none"/><path d="M442.0659,232.21006l0.69052,2.77845" fill="none"/><path d="M434.46938,236.23827l4.55711,-0.16314l0.84931,2.49246" fill="none"/><path d="M438.79432,219.60073l5.83864,-1.66669" fill="none"/><path d="M438.36212,223.59671l4.3762,-1.44612" fill="none"/><path d="M441.33119,226.29361l-4.22846,0.37564" fill="none"/><path d="M439.11896,231.08216l-3.41232,0.51461" fill="none"/></g><g data-paper-data="{&quot;origPos&quot;:null,&quot;origRot&quot;:0}" stroke="#665415"><path d="M461.20673,269.33767l14.40476,2.38946l-1.70654,6.50664l-13.48389,-4.73091l-1.68459,3.84982l-3.6962,1.81178l-4.73034,-0.3274l-3.5957,-1.26157l-6.87715,-4.18923l-5.66395,-5.53993l-9.18108,-7.21802l-5.23642,-2.72542l13.97723,-0.42504l7.29191,-0.55021l6.47156,-1.2821l4.04518,1.41926l5.6073,3.29962l3.33808,5.16798z" data-paper-data="{&quot;origPos&quot;:null}" fill="#ded633"/><path d="M461.12452,273.83848l-32.46951,-12.8132l34.36531,8.85986" data-paper-data="{&quot;origPos&quot;:null}" fill="none"/><path d="M455.66809,272.27935l-4.77236,2.94409" data-paper-data="{&quot;origPos&quot;:null}" fill="none"/><path d="M446.40987,272.58376l4.22424,-2.0706" data-paper-data="{&quot;origPos&quot;:null}" fill="none"/><path d="M446.80454,268.45899l-3.80182,1.86354" data-paper-data="{&quot;origPos&quot;:null}" fill="none"/><path d="M438.93932,267.47577l2.47168,-0.90915" data-paper-data="{&quot;origPos&quot;:null}" fill="none"/><path d="M433.89511,259.66639l2.24803,4.34144l-2.11212,1.03529" data-paper-data="{&quot;origPos&quot;:null}" fill="none"/><path d="M456.90762,267.74048l-4.3426,-5.43159" data-paper-data="{&quot;origPos&quot;:null}" fill="none"/><path d="M451.81078,266.30748l-3.45246,-4.05347" data-paper-data="{&quot;origPos&quot;:null}" fill="none"/><path d="M444.69976,261.32566l2.3109,4.00822" data-paper-data="{&quot;origPos&quot;:null}" fill="none"/><path d="M441.19467,263.64857l-2.07701,-3.21562" data-paper-data="{&quot;origPos&quot;:null}" fill="none"/></g><g data-paper-data="{&quot;origPos&quot;:null,&quot;origRot&quot;:0}" stroke="#661515"><path d="M473.28042,244.97455l3.0186,-12.95296l6.53906,4.3412l-5.35911,11.09388l3.84129,3.22172l1.68853,4.32605l-0.52679,4.4426l-1.42909,2.95836l-4.53761,4.92389l-5.85974,3.19145l-7.7087,5.9016l-2.98335,3.94112l0.14218,-13.70263l-0.25943,-7.28442l-1.03657,-6.79305l1.60771,-3.32817l3.58185,-4.0627l5.38642,-1.09426z" data-paper-data="{&quot;origPos&quot;:null}" fill="#de7633"/><path d="M477.84877,246.91464l-14.34828,26.12687l10.41051,-29.59579" data-paper-data="{&quot;origPos&quot;:null}" fill="none"/><path d="M478.83551,257.38637l-2.79451,-5.83561" data-paper-data="{&quot;origPos&quot;:null}" fill="none"/><path d="M474.04028,255.69249l1.92976,4.94406" data-paper-data="{&quot;origPos&quot;:null}" fill="none"/><path d="M471.79651,258.54955l1.73677,4.44966" data-paper-data="{&quot;origPos&quot;:null}" fill="none"/><path d="M470.47484,265.75497l-0.82197,-2.76786" data-paper-data="{&quot;origPos&quot;:null}" fill="none"/><path d="M462.33536,267.40853l4.50211,-0.381l0.96488,2.47203" data-paper-data="{&quot;origPos&quot;:null}" fill="none"/><path d="M465.78607,250.43239l5.69546,-1.95744" data-paper-data="{&quot;origPos&quot;:null}" fill="none"/><path d="M469.8167,252.81525l-4.25907,1.66564" data-paper-data="{&quot;origPos&quot;:null}" fill="none"/><path d="M464.4644,257.63783l4.16623,-0.57957" data-paper-data="{&quot;origPos&quot;:null}" fill="none"/><path d="M463.32841,262.67108l3.35156,-0.68086" data-paper-data="{&quot;origPos&quot;:null}" fill="none"/></g><g data-paper-data="{&quot;origPos&quot;:null,&quot;origRot&quot;:0}" fill="#ded633" stroke="#665415"><path d="M484.34008,305.43863l2.51916,-10.85162c0.02699,2.58209 0.05795,5.16381 0.10671,7.74443c0.00606,0.32042 0.01404,0.64102 0.02349,0.96177z" data-paper-data="{&quot;origPos&quot;:null}"/></g><g data-paper-data="{&quot;origPos&quot;:null,&quot;origRot&quot;:0}" stroke="#674116"><path d="M482.76898,241.99783l-4.76349,-0.9142l-3.48668,-1.67481l-6.43314,-4.92203l-5.0213,-6.07574l-8.37292,-8.14364l-4.95993,-3.29843l14.25979,1.35393l7.48285,0.38853l6.74624,-0.42329l2.94655,1.41537c0.81442,7.33541 1.69733,14.66433 2.52114,21.99849z" fill="#dea433"/><path d="M482.80667,234.00115l-24.44566,-12.88707l24.01662,9.18961" fill="none"/><path d="M479.0797,237.66103l3.95421,-1.69491" fill="none"/><path d="M479.43822,233.07031l-4.56707,1.47002" fill="none"/><path d="M471.7086,231.92208l4.11036,-1.32302" fill="none"/><path d="M467.95675,228.65439l2.6322,-0.56752" fill="none"/><path d="M463.86604,220.461l1.70896,4.48468l-2.28352,0.73502" fill="none"/><path d="M481.19137,229.14952l-2.971,-4.35816" fill="none"/><path d="M476.44262,227.60124l-1.81698,-4.17019" fill="none"/><path d="M469.07152,221.8623l1.6844,3.37373" fill="none"/></g><g data-paper-data="{&quot;origPos&quot;:null,&quot;origRot&quot;:0}" stroke="#674116"><path d="M483.38507,270.72197l-11.87408,5.64637l-2.49746,-7.04919l12.54919,-2.94165l-0.98574,-4.54056l1.65251,-3.72752l2.97641,-1.86938c0.29419,3.13148 0.56234,6.26533 0.79455,9.40244c0.20882,2.82103 0.36033,5.64507 0.47274,8.47111l-0.37529,-0.21022z" fill="#dea433"/><path d="M480.85702,266.4475l5.13263,-0.95061" fill="none"/><path d="M486.25922,269.62958l-4.5109,1.5715" fill="none"/><path d="M485.90623,264.39503l-0.17532,0.52826" fill="none"/></g></g><path d="M341.00508,144.84962l25.90173,-31.76349l113.51493,99.6836c1.82183,17.62882 4.27048,35.19901 5.57871,52.87275c0.19995,2.70124 0.34736,5.40524 0.4582,8.11112z" data-paper-data="{&quot;origPos&quot;:null}" fill="url(#color-5)" stroke="#000000" stroke-width="0"/></g><path d="M200.40408,256.4096l165.48745,-145.32347l25.90173,31.76349l-164.83342,146.07881z" data-paper-data="{&quot;origPos&quot;:null}" fill="url(#color-6)" stroke="#000000" stroke-width="0"/></g></g></g></svg>