<svg version="1.1" xmlns="http://www.w3.org/2000/svg" xmlns:xlink="http://www.w3.org/1999/xlink" width="111.36401" height="172.76011" viewBox="0,0,111.36401,172.76011"><defs><linearGradient x1="323.93624" y1="151.58184" x2="320.83411" y2="220.70858" gradientUnits="userSpaceOnUse" id="color-1"><stop offset="0" stop-color="#6f18b4"/><stop offset="1" stop-color="#6a17af"/></linearGradient><linearGradient x1="336.54095" y1="154.03229" x2="335.02042" y2="187.91507" gradientUnits="userSpaceOnUse" id="color-2"><stop offset="0" stop-color="#8328ce"/><stop offset="1" stop-color="#6a17af"/></linearGradient><linearGradient x1="314.85837" y1="153.74076" x2="313.33562" y2="187.6732" gradientUnits="userSpaceOnUse" id="color-3"><stop offset="0" stop-color="#8328ce"/><stop offset="1" stop-color="#6a17af"/></linearGradient><linearGradient x1="301.76346" y1="100.04866" x2="368.00699" y2="100.04866" gradientUnits="userSpaceOnUse" id="color-4"><stop offset="0" stop-color="#de5112"/><stop offset="1" stop-color="#b7430f"/></linearGradient></defs><g transform="translate(-266.47204,-64.49835)"><g data-paper-data="{&quot;isPaintingLayer&quot;:true}" fill-rule="nonzero" stroke-linejoin="miter" stroke-miterlimit="10" stroke-dasharray="" stroke-dashoffset="0" style="mix-blend-mode: normal"><g><g stroke="none" stroke-linecap="butt"><g data-paper-data="{&quot;origPos&quot;:null,&quot;index&quot;:null,&quot;origRot&quot;:0}" stroke-width="0"><path d="M338.30646,158.38743c3.10818,-0.9187 5.75278,-1.22475 10.22961,5.66112c2.86561,4.40763 6.46825,22.08714 6.46825,22.08714l6.78784,15.6202l-15.24596,4.69722l-4.3614,-16.15401c0,0 -5.04929,-11.46301 -5.96388,-14.55726c-2.75914,-9.33479 -3.01218,-15.84763 2.08553,-17.35441z" data-paper-data="{&quot;origRot&quot;:0,&quot;origPos&quot;:null}" fill="#ff5e15"/><g data-paper-data="{&quot;origPos&quot;:null}" fill="#ffffff"><path d="M354.82504,209.14011c8.87236,-3.07111 19.40747,-5.35502 22.70536,3.14692c0.22962,0.59196 1.10706,7.3957 -1.77463,11.65521c-3.81365,5.63706 -9.91793,10.55372 -9.91793,10.55372c0,0 -9.72418,-0.14409 -15.60438,-2.11359c-4.28904,-1.43655 -7.14114,-6.33351 -7.26038,-6.64603c-3.08114,-8.07508 2.97961,-13.5251 11.85196,-16.59623z" data-paper-data="{&quot;origRot&quot;:0,&quot;origPos&quot;:null}"/><path d="M353.4749,201.33247c6.85309,-2.36207 14.21136,-6.39368 15.6041,-0.99178c1.55804,6.04308 -0.3465,6.30659 -11.64084,9.88986c-12.86635,4.082 -14.08967,7.04828 -16.11963,0.50782c-1.18536,-3.81918 5.30329,-7.04382 12.15637,-9.4059z" data-paper-data="{&quot;origRot&quot;:0,&quot;origPos&quot;:null}"/></g></g><path d="M364.4632,229.0458l-5.6907,-5.05333l-8.57698,-0.45447l6.12989,-5.72037l0.51578,-8.13667l5.4959,5.94656l7.7642,-0.07787l-5.01499,5.97566z" data-paper-data="{&quot;origRot&quot;:0,&quot;index&quot;:null}" fill="#6f18b4" stroke-width="NaN"/></g><g><path d="M346.84064,182.65534c-0.86189,27.43869 2.13927,39.56027 -28.3996,37.94354c-6.93918,-0.4019 -10.91855,0.28505 -14.02267,-2.84191c-3.77153,-3.79928 -3.11524,-9.65626 -3.80013,-16.02059c-0.42809,-3.97798 -2.83687,-8.45915 -2.68607,-11.81945c0.64073,-14.27769 0.28832,-26.0057 8.70153,-34.74179c6.26809,-6.50864 12.60399,-3.05894 20.33679,-2.71954c14.2993,0.6276 20.71501,3.30369 19.87016,30.19973z" fill="url(#color-1)" stroke="none" stroke-width="0" stroke-linecap="butt"/><path d="M347.11089,181.88859c0,0 -16.35128,1.87769 -27.8195,1.89342c-10.51913,0.01442 -20.89192,-5.32907 -20.89192,-5.32907c0,0 -0.12697,-17.90793 7.68959,-24.52612c5.11414,-4.33008 10.70294,-5.57633 17.80763,-5.49918c7.10469,0.07716 14.68437,3.4204 18.07703,7.55713c8.01381,9.77143 5.13718,25.90382 5.13718,25.90382z" fill="#ff5e15" stroke="none" stroke-width="0" stroke-linecap="butt"/><path d="M331.61019,154.60708c0,0 3.49831,8.47758 4.61254,14.02061c1.11423,5.54303 0.9076,21.35798 0.9076,21.35798" data-paper-data="{&quot;origRot&quot;:0}" fill="none" stroke="url(#color-2)" stroke-width="10" stroke-linecap="round"/><path d="M312.06303,155.99165c0,0 2.02505,7.71931 2.91726,12.67565c0.89221,4.95634 0.69982,20.69119 0.69982,20.69119" fill="none" stroke="url(#color-3)" stroke-width="10" stroke-linecap="round"/><path d="M338.03463,193.00552l-2.03458,-3.5681l-4.30592,-1.71664l4.12357,-1.86344l1.6718,-4.07022l1.78041,3.99101l3.98256,1.30385l-3.59781,2.18689z" data-paper-data="{&quot;origRot&quot;:0,&quot;index&quot;:null}" fill="#ffe84f" stroke="none" stroke-width="NaN" stroke-linecap="butt"/><path d="M314.76422,193.23174l-1.61203,-3.77785l-4.08069,-2.19904l4.31005,-1.37833l2.12746,-3.8517l1.31105,4.16884l3.80679,1.75191l-3.82483,1.75993z" data-paper-data="{&quot;origRot&quot;:0,&quot;index&quot;:null}" fill="#ffe84f" stroke="none" stroke-width="NaN" stroke-linecap="butt"/></g><g stroke="none" stroke-linecap="butt"><g data-paper-data="{&quot;origPos&quot;:null}" stroke-width="0"><path d="M297.34084,207.83049l-17.96231,-4.39501l7.80508,-16.12915c0,0 2.2522,-9.22379 2.79808,-11.61646c2.16515,-9.49017 10.41845,-19.73359 15.60102,-18.55119c5.18257,1.18239 5.76773,5.99878 3.60258,15.48895l-7.75154,18.47739z" data-paper-data="{&quot;origRot&quot;:0,&quot;origPos&quot;:null}" fill="#ff5e15"/><g data-paper-data="{&quot;origPos&quot;:null}" fill="#ffffff"><path d="M302.12257,226.85009c-1.30173,11.03752 -23.87054,10.40158 -23.87054,10.40158c0,0 -5.17912,-3.95182 -8.42154,-8.40338c-3.321,-4.55946 -3.80769,-9.69034 -3.04442,-13.24208c2.07934,-9.67581 13.41348,-7.07776 22.46179,-4.57211c9.04832,2.50565 14.09017,5.50989 12.8747,15.81599z" data-paper-data="{&quot;origRot&quot;:0,&quot;origPos&quot;:null}"/><path d="M302.82829,211.77766c-1.61358,6.65544 -3.02149,3.77218 -16.11958,0.50946c-11.49777,-2.86408 -13.41515,-3.007 -12.24119,-9.13628c1.0494,-5.47896 8.64721,-1.91927 15.63558,0.00603c6.98836,1.92531 13.66742,4.73448 12.72519,8.62079z" data-paper-data="{&quot;origRot&quot;:0,&quot;origPos&quot;:null}"/></g></g><path d="M279.49152,223.83401l-5.20071,-5.81474l7.7628,-0.16671l5.30588,-6.11671l0.77179,8.11639l6.30702,5.52446l-8.55841,0.72439l-5.52872,5.23005z" data-paper-data="{&quot;origRot&quot;:0}" fill="#6f18b4" stroke-width="NaN"/></g><path d="M353.46016,76.16191c2.39648,14.94461 -0.49216,15.79448 -8.52168,20.57884c-11.69967,6.97121 -27.00365,6.10539 -39.50062,11.51887c-3.28137,1.42143 -11.64483,-2.57762 -15.22084,-2.57762c-7.31398,0 -11.44089,-5.22725 -11.74313,-11.45342c-0.66666,-13.7335 6.09582,-13.78676 13.4098,-13.78676c0,0 8.04926,1.33414 10.82961,5.60456c0,0 11.19763,-18.21899 23.00151,-20.46979c15.1949,-2.89741 26.02437,-0.14688 27.74535,10.58532z" fill="#ff5e15" stroke="none" stroke-width="0" stroke-linecap="butt"/><path d="M311.10186,153.05522c-1.67042,0.95629 -3.5316,1.48998 -5.49366,1.48998c-7.22573,0 -13.08333,-7.23806 -13.08333,-16.16667c0,-2.83492 0.59052,-5.49942 1.62786,-7.81591c2.22976,-4.97932 21.43042,19.92712 16.94913,22.4926z" fill="#e7be7a" stroke="none" stroke-width="0" stroke-linecap="butt"/><path d="M367.5662,103.18727c-0.56793,3.79329 -11.88999,8.6 -20.8,8.6c-7.1797,0 -5.39999,-6.75492 -5.39999,-10.4c0,-3.64508 14.0703,-2.85 21.25,-2.85c7.1797,0 5.31761,2.19464 4.95,4.65z" fill="#b7430f" stroke="none" stroke-width="0" stroke-linecap="butt"/><g data-paper-data="{&quot;index&quot;:null}"><path d="M348.32527,132.59357l-0.16667,11.66667c0,0 -11.55678,1.66666 -16.5,1.66666c-5.05432,0 -15.33334,-0.83333 -15.33334,-0.83333v-11.16667z" fill="#ffffff" stroke="none" stroke-width="0" stroke-linecap="butt"/><path d="M341.49192,135.09359v9.33333" fill="none" stroke="#a5b5ff" stroke-width="2" stroke-linecap="round"/><path d="M333.82526,144.92691v-9.83333" fill="none" stroke="#a5b5ff" stroke-width="2" stroke-linecap="round"/><path d="M325.6586,135.42693v9.5" fill="none" stroke="#a5b5ff" stroke-width="2" stroke-linecap="round"/></g><g><path d="M316.99193,154.92693v-11.16667c0,0 10.27902,-0.83333 15.33333,-0.83333c4.94322,0 14.66666,0.83333 14.66666,0.83333l-0.16667,8.66667z" fill="#ffffff" stroke="none" stroke-width="0" stroke-linecap="butt"/><path d="M342.1586,153.76026v-9.33333" fill="none" stroke="#a5b5ff" stroke-width="2" stroke-linecap="round"/><path d="M334.49193,153.76026v-9.83333" fill="none" stroke="#a5b5ff" stroke-width="2" stroke-linecap="round"/><path d="M326.32527,153.42693v-9.5" fill="none" stroke="#a5b5ff" stroke-width="2" stroke-linecap="round"/></g><path d="M294.50001,104.46004c5.58919,1.38715 7,3.8 7,3.8l24,-5l21.6,-0.2c0,0 0.106,10.59409 0.39999,16.3c0.06657,1.29206 0.81399,0.91075 1.70767,2.14466c0.8937,1.23391 1.65037,2.7708 2.00281,2.87831c4.96717,1.51529 5.86057,3.64265 5.8895,5.27703c0.11336,6.40216 -6.2,8.6 -6.2,8.6l-29.6,1.4l-3.4,3.4l-0.4,11.2c0,0 3.34533,-1.68801 6.02422,-1.91864c5.36655,-0.46202 24.17578,-0.68136 24.17578,-0.68136c0,0 0.08012,4.86496 -4,5.8c-4.93431,1.13079 -28.20667,1.41553 -33.8,-1.6c-2.9973,-1.61594 -4.46924,-2.4986 -6.19375,-5.90182c-1.1358,-2.24142 -0.09879,-3.01586 -0.89737,-5.46851c-0.6598,-2.02643 -2.766,-4.09575 -3.63374,-6.08819c-1.28142,-2.94229 -1.27893,-5.68075 -1.47514,-5.74148c-0.99168,-0.30692 -3.85974,-0.50017 -4.74021,-0.92387c-4.25236,-2.04631 -8.31456,-7.45172 -10.82724,-11.93544c-2.76256,-4.92962 -3.77735,-9.10004 -4.03255,-14.74069c-0.03149,-0.69599 10.51135,-1.34829 16.4,-0.6z" fill="#ffdebd" stroke="#000000" stroke-width="0" stroke-linecap="round"/><path d="M334.52714,117.24931c-0.30002,5.45731 -1.82192,6.13636 -7.59091,6.04546c-4.04122,-0.06368 -6.8134,-2.66439 -7.04546,-6.04546c-0.36363,-5.29811 3.27646,-6.13636 7.31818,-6.13636c4.04172,0 7.62102,0.62793 7.31819,6.13636z" fill="#ffffff" stroke="none" stroke-width="0" stroke-linecap="butt"/><path d="M346.79985,112.5994c-0.02215,2.45779 0.16567,6.00599 -3.40909,5.87712c-3.99061,-0.14386 -4.54067,-0.39875 -6.22728,-4.21116c-2.90909,-6.04179 3.1019,-5.79781 4.59091,-5.96967c3.69968,-0.427 5.0676,1.84592 5.04546,4.30371z" data-paper-data="{&quot;index&quot;:null}" fill="#ffffff" stroke="none" stroke-width="0" stroke-linecap="butt"/><path d="M323.53897,122.41952c0,0 -4.58156,0.16782 -4.00535,-7.04256c0.37347,-4.67343 6.356,-4.04835 6.356,-4.04835" fill="none" stroke="#18c6ff" stroke-width="2" stroke-linecap="round"/><path d="M340.80683,108.5459c0,0 4.14623,-0.71276 5.42823,1.539c2.39935,4.21426 -0.10862,7.37765 -0.10862,7.37765" fill="none" stroke="#18c6ff" stroke-width="2" stroke-linecap="round"/><path d="M332.30169,115.53276c0.63366,0 1.20715,0.25671 1.62286,0.67204c0.41579,0.4144 0.67288,0.98742 0.67288,1.62c0,0.63259 -0.25711,1.20562 -0.67288,1.62001c-0.4157,0.41532 -0.9892,0.67204 -1.62286,0.67204c-0.63358,0 -1.20709,-0.25671 -1.62286,-0.67204c-0.4157,-0.4144 -0.67281,-0.98743 -0.67281,-1.62001c0,-0.63259 0.25711,-1.20561 0.67281,-1.62c0.41579,-0.41532 0.98928,-0.67204 1.62286,-0.67204z" data-paper-data="{&quot;index&quot;:null}" fill="#000000" stroke="none" stroke-width="1.05702" stroke-linecap="butt"/><path d="M344.22604,113.41881c0.54842,0 1.04476,0.22217 1.40456,0.58165c0.35986,0.35865 0.58237,0.8546 0.58237,1.40209c0,0.54751 -0.22251,1.04343 -0.58237,1.40208c-0.35978,0.35947 -0.85613,0.58166 -1.40456,0.58166c-0.54837,0 -1.04473,-0.22218 -1.40458,-0.58166c-0.35977,-0.35865 -0.58232,-0.85459 -0.58232,-1.40208c0,-0.54751 0.22251,-1.04344 0.58232,-1.40209c0.35986,-0.35947 0.8562,-0.58165 1.40458,-0.58165z" data-paper-data="{&quot;index&quot;:null}" fill="#000000" stroke="none" stroke-width="1.05702" stroke-linecap="butt"/><path d="M309.3582,120.37853c-0.64374,0.86538 -2.0893,-0.29799 -3.47379,-2.54087c-0.40721,-0.65969 -0.99152,-1.86997 -1.61462,-3.25262c-0.69344,-0.28197 -1.86875,-0.98405 -2.42213,-2.49166c-0.78363,-2.13487 -0.45914,-4.12394 -0.45914,-4.12394l6.80302,-2.75757c0,0 0.46053,3.93362 0.88758,7.80899c0.37228,3.37832 0.75911,6.71238 0.27909,7.35767z" fill="#e7be7a" stroke="#000000" stroke-width="0" stroke-linecap="round"/><path d="M312.02486,142.04521c-0.61285,-0.41328 3.5,-3.33333 3.5,-3.33333c0,0 4.69323,-0.58958 7.18802,-1.61469c3.05813,-1.25658 4.98736,-2.83337 8.81198,-2.88531c3.2991,-0.04481 4.58439,1.57132 7.23147,2.46754c2.92512,0.99035 7.14463,1.28588 9.38221,1.58955c2.42896,0.32964 5.88632,-1.89043 5.88632,-1.89043c0,0 0.91607,4.51818 -1.83333,4.83333c-3.03617,0.34802 -6.49762,0.55102 -10.34276,0.38428c-3.45928,-0.15 -7.29264,-0.82948 -10.31765,-0.71661c-5.67436,0.21171 -9.19948,1.18213 -12.65789,1.49728c-3.12588,0.28485 -6.44134,-0.05713 -6.84835,-0.33162z" fill="#e7be7a" stroke="#000000" stroke-width="0" stroke-linecap="round"/><path d="M283.99192,110.5936c14.81513,-0.88784 18.2554,19.68672 7.16667,14.66667" fill="none" stroke="#f6b09a" stroke-width="3.5" stroke-linecap="round"/><path d="M296.15859,120.42693c-2.25365,0.81103 -7.66666,-0.5 -7.66666,-0.5" fill="none" stroke="#f6b09a" stroke-width="3" stroke-linecap="round"/><path d="M350.5662,84.68727c0,5.46762 -1.46317,9.58116 -12.2,9.9c-11.33464,0.33659 -12.2,-4.43238 -12.2,-9.9c0,-5.46762 5.46212,-9.9 12.2,-9.9c6.73787,0 12.2,4.43238 12.2,9.9z" fill="#ffffff" stroke="none" stroke-width="0" stroke-linecap="butt"/><path d="M367.9662,101.08727c-0.10146,0.43553 -10.22592,0.3521 -21.60818,2.04523c-5.57466,0.82924 -10.95104,0.85997 -14.59937,3.5017c-4.19793,3.0397 -30.53694,2.13845 -30.35609,1.36215c0.73933,-3.1735 3.16854,-8.15407 8.26364,-9.80909c6.15716,-2 27.29511,-7.38005 43.10212,-7.1384c6.46182,0.09879 15.93722,6.8649 15.19789,10.0384z" fill="url(#color-4)" stroke="none" stroke-width="0" stroke-linecap="butt"/><path d="M343.56842,79.77899c0.6657,1.62584 -3.86912,5.71927 -4.8184,6.84002c-0.16406,0.1937 -0.67201,0.28073 -0.56926,0.51069c0.2127,0.47603 9.77976,-1.41007 5.63926,2.60271c-1.30541,1.26515 -8.46884,0.94671 -9.18272,-1.4299c-0.97165,-3.23481 5.4425,-5.57134 5.12489,-7.52626c-0.06628,-0.40801 -2.92366,0.7255 -4.50708,1.33739c-0.26353,0.22259 -0.60807,0.35741 -0.9851,0.35741c-0.82843,0 -1.5,-0.65086 -1.5,-1.45373c0,-0.18693 0.03641,-0.36561 0.10271,-0.52976c1.03092,-2.81351 9.45143,-3.74746 10.69569,-0.70856z" fill="#6f18b4" stroke="none" stroke-width="0.5" stroke-linecap="butt"/><path d="M347.25415,104.3522c0,0 -3.16125,0.27525 -4.87852,1.07664c-2.3604,1.10152 -7.97862,4.92336 -7.97862,4.92336c0,0 -4.02862,-1.28998 -6.48613,-1.91743c-1.83281,-0.46795 -6.94244,-1.51114 -6.94244,-1.51114" fill="none" stroke="#000000" stroke-width="3" stroke-linecap="round"/><g stroke="none" stroke-width="0" stroke-linecap="butt"><path d="M357.24887,129.36238c-0.49003,4.03597 1.10495,8.94318 -12.98598,8.69816c-5.45105,-0.0948 -16.57196,-0.9685 -16.46865,-5.46171c0.07504,-3.26312 3.72767,-2.96341 3.72767,-4.46155c0,-5.7511 3.325,-9.17375 9.80075,-9.67824c3.31011,-0.73506 16.71019,4.93678 15.92621,10.90333z" data-paper-data="{&quot;origPos&quot;:null}" fill="#f991fd"/><path d="M354.09088,128.39841c-0.55534,1.94368 -3.49341,2.80852 -6.56237,1.93167c-3.06896,-0.87685 -5.10666,-3.16333 -4.55132,-5.10701c0.55534,-1.94367 3.49341,-2.80851 6.56238,-1.93167c3.06896,0.87685 5.10666,3.16333 4.55132,5.10701z" data-paper-data="{&quot;origRot&quot;:0,&quot;origPos&quot;:null}" fill="#faaefc"/></g></g></g></g></svg>