<svg version="1.1" xmlns="http://www.w3.org/2000/svg" xmlns:xlink="http://www.w3.org/1999/xlink" width="437" height="90.79587" viewBox="0,0,437,90.79587"><defs><linearGradient x1="240" y1="135.60206" x2="240" y2="224.39795" gradientUnits="userSpaceOnUse" id="color-1"><stop offset="0" stop-color="#ffffff"/><stop offset="1" stop-color="#d8d8d8"/></linearGradient><linearGradient x1="240" y1="135.60208" x2="240" y2="224.39795" gradientUnits="userSpaceOnUse" id="color-2"><stop offset="0" stop-color="#343434"/><stop offset="1" stop-color="#090909"/></linearGradient><radialGradient cx="443.8065" cy="206.54466" r="17.9081" gradientUnits="userSpaceOnUse" id="color-3"><stop offset="0" stop-color="#ffffff"/><stop offset="1" stop-color="#e5e5e5"/></radialGradient></defs><g transform="translate(-21.5,-134.60208)"><g data-paper-data="{&quot;isPaintingLayer&quot;:true}" fill-rule="nonzero" stroke-linejoin="miter" stroke-miterlimit="10" stroke-dasharray="" stroke-dashoffset="0" style="mix-blend-mode: normal"><path d="M22.5,224.39795v-88.79587h435v88.79587z" data-paper-data="{&quot;origPos&quot;:null}" fill="url(#color-1)" stroke="url(#color-2)" stroke-width="2" stroke-linecap="butt"/><g data-paper-data="{&quot;origPos&quot;:null}" stroke="none" stroke-width="0.43207" stroke-linecap="butt"><path d="M46.2009,147.33746l0.061,0.1318c-0.172,2.582 -0.3038,3.8683 -0.395,3.8683h-0.0609c-2.7847,-0.2229 -4.3441,-0.3543 -4.6582,-0.3949v8.9824c0,0.162 -0.6377,0.2735 -1.9037,0.3241c0,0.0505 -0.719,0.1317 -2.1569,0.2631l-0.0709,-0.1314c0.3137,-5.3572 0.5064,-8.5269 0.5972,-9.4991c-1.063,0.1724 -2.643,0.385 -4.7187,0.6481c-0.6179,-2.2986 -0.9216,-3.4734 -0.9216,-3.5339c0,-0.0912 4.7394,-0.3042 14.2277,-0.6585z" fill="#000000"/><path d="M51.8214,147.33746c0.0406,0.0609 0.2328,1.9141 0.5673,5.5495c2.6024,-0.8002 3.9898,-1.1951 4.1621,-1.1951l2.5821,1.762c-0.4152,3.8485 -0.6887,6.0966 -0.8201,6.7447l-3.5849,0.1214c0,-0.0406 -0.0203,-0.0609 -0.0708,-0.0609l0.0708,-0.2532c0,-0.5466 0.0808,-2.2075 0.2429,-4.9822c-0.9822,-0.0402 -1.7214,-0.0605 -2.1976,-0.0605h-0.2532c0.2938,3.0884 0.4356,4.7696 0.4356,5.0427l-3.4026,0.5064c-0.1314,-0.4351 -0.881,-4.4659 -2.2684,-12.1011c0,-0.213 0.5267,-0.385 1.5801,-0.5064c1.3264,-0.375 2.3189,-0.5673 2.9567,-0.5673z" fill="#000000"/><path d="M61.6243,150.39566c4.0101,0.5569 6.0153,0.8914 6.0153,1.0227c1.5797,1.3572 2.3695,2.0865 2.3695,2.1777c-0.6382,2.0048 -1.0024,3.2202 -1.0936,3.6553c0.6378,1.428 1.0024,2.2788 1.0936,2.5523c0,0.0808 -1.043,0.2934 -3.1394,0.6481c-0.0303,-0.1115 -0.2226,-0.3746 -0.5773,-0.7699c-2.8858,0.5573 -4.4456,0.8304 -4.6681,0.8304l-1.5395,-4.1617l3.3926,-1.7927c0.5466,0.0911 1.3974,0.1318 2.5622,0.1318c0,-0.1521 0.0199,-0.5976 0.0605,-1.3468c-0.1922,0 -1.9443,0.1313 -5.2454,0.3845l-0.0609,-0.1313c0.4559,-2.1371 0.7393,-3.2004 0.8305,-3.2004zM63.7306,156.35056c0,0.0708 0.2126,0.8606 0.6481,2.3695h0.0605c0.8508,-0.557 1.2764,-0.9217 1.2764,-1.0936l0.1313,-1.0837c-0.162,0 -0.8706,-0.0609 -2.1163,-0.1922z" fill="#000000"/><path d="M74.0093,147.33746l4.4555,0.7898l-0.4252,3.3823c0.881,-0.0506 1.5292,-0.0709 1.9444,-0.0709h0.6481l0.1417,-0.0708l0.0709,0.1417c-0.1417,2.0558 -0.2632,3.2103 -0.3647,3.4635l-0.1417,-0.0808c-0.1011,0 -1.0124,-0.051 -2.7342,-0.1421c-0.0912,1.59 -0.162,3.4838 -0.2126,5.6912l-0.1417,0.0709c-2.1772,-0.1417 -3.4734,-0.2631 -3.8887,-0.3642l0.0709,-0.2839c0,-0.5872 0.0912,-2.4101 0.2834,-5.4683c-1.8229,-0.1012 -2.7341,-0.223 -2.7341,-0.3647c0.0911,-2.258 0.2126,-3.3823 0.3646,-3.3823l2.6634,0.5064v-0.8711c0,-0.7086 -0.0303,-1.6708 -0.0813,-2.8759c0.051,0 0.0813,-0.0203 0.0813,-0.0708z" fill="#000000"/><path d="M91.1436,150.40606c2.5622,0.6883 3.9293,1.1035 4.0809,1.2556c1.4077,1.9949 2.2079,3.1494 2.3799,3.4531c-0.9112,2.8863 -1.4379,4.3342 -1.5697,4.3342c-3.0379,0.709 -4.628,1.0633 -4.7697,1.0633c-2.5112,-1.4682 -3.848,-2.2783 -4.0101,-2.4507c-0.0911,-2.7238 -0.1318,-4.2326 -0.1318,-4.5165c-0.0401,-0.0808 -0.0604,-0.1417 -0.0604,-0.1823c2.5924,-1.9746 3.9292,-2.9567 4.02,-2.9567zM90.9513,154.11236c-0.0406,0.2735 -0.1015,1.2556 -0.1823,2.9468l2.258,0.5063c0.5371,-1.6911 0.8102,-2.5924 0.8102,-2.7039c-1.7923,-0.5366 -2.7545,-0.8101 -2.8859,-0.8101z" fill="#000000"/><path d="M105.797,150.39566c1.3368,0.7497 2.1569,1.2357 2.4606,1.4583c-1.0935,2.2787 -1.6807,3.4332 -1.762,3.4734h-0.0708l-1.4479,-1.2655l-1.7114,2.086l0.1922,3.7975c-0.0911,0.0808 -1.205,0.2735 -3.352,0.5669c-0.0808,-0.5773 -0.6075,-3.4229 -1.5797,-8.5365c0,-0.0812 1.4077,-0.2938 4.2331,-0.6282c0.0505,0.0509 0.1719,0.6887 0.3849,1.8937c1.6912,-1.8937 2.5722,-2.8456 2.653,-2.8456z" fill="#000000"/><path d="M110.5973,150.39566c4.0101,0.5569 6.0149,0.8914 6.0149,1.0227c1.5801,1.3572 2.37,2.0865 2.37,2.1777c-0.6382,2.0048 -1.0029,3.2202 -1.0936,3.6553c0.6377,1.428 1.0024,2.2788 1.0936,2.5523c0,0.0808 -1.0431,0.2934 -3.1395,0.6481c-0.0302,-0.1115 -0.2225,-0.3746 -0.5772,-0.7699c-2.8859,0.5573 -4.4457,0.8304 -4.6682,0.8304l-1.5395,-4.1617l3.3927,-1.7927c0.5466,0.0911 1.3973,0.1318 2.5618,0.1318c0,-0.1521 0.0203,-0.5976 0.0609,-1.3468c-0.1923,0 -1.9444,0.1313 -5.2458,0.3845l-0.0605,-0.1313c0.4554,-2.1371 0.7393,-3.2004 0.8304,-3.2004zM112.7037,156.35056c0,0.0708 0.2126,0.8606 0.6481,2.3695h0.0605c0.8507,-0.557 1.2759,-0.9217 1.2759,-1.0936l0.1318,-1.0837c-0.162,0 -0.8711,-0.0609 -2.1163,-0.1922z" fill="#000000"/><path d="M128.9467,150.39566l3.3723,2.3189c-0.2329,3.8485 -0.4053,6.0966 -0.496,6.7447c-0.3954,0.0506 -1.5801,0.1214 -3.575,0.2126l-0.0709,-0.1417l-0.3543,-5.4079l-0.1417,-0.0708c-1.2863,0.2735 -2.1772,0.4861 -2.6633,0.6278c0.1314,2.2991 0.2022,3.9699 0.2022,4.9926c-2.0152,0.557 -3.1088,0.8404 -3.301,0.8404c-1.3066,-5.7621 -1.9647,-8.81 -1.9647,-9.1341c2.8457,-0.3746 4.3951,-0.5569 4.6379,-0.5569v0.0709c0.0506,0.0302 0.1214,0.7392 0.2126,2.1063c2.6128,-1.7317 3.9902,-2.6028 4.1419,-2.6028z" fill="#000000"/><path d="M140.8762,150.42636c2.8656,0.0708 4.3039,0.2022 4.3039,0.3746c0.4961,7.4736 0.7393,11.4534 0.7393,11.9291c-2.1776,1.3874 -3.7266,2.319 -4.6685,2.8154c-3.3115,-1.043 -4.9624,-1.6306 -4.9624,-1.7823c1.0633,-1.5598 1.6812,-2.3496 1.8536,-2.3699c1.8022,0.8914 2.8353,1.3368 3.1088,1.3368l0.9618,-1.2659c-0.2532,-1.0431 -0.4252,-1.6605 -0.5164,-1.8532c-0.1516,0 -1.9746,0.2938 -5.4886,0.8914c-1.924,-3.1291 -2.8863,-4.7291 -2.8863,-4.8103c1.6609,-2.6534 2.6737,-4.2128 3.0384,-4.6686h0.0708c0.1923,0 1.6506,0.3241 4.3748,0.9622v-0.2229c0,-0.2631 -0.0203,-0.6883 -0.0709,-1.2656zM137.6962,154.71987c0.0911,0.2126 0.3949,1.3265 0.8913,3.3417c0.6279,-0.2022 1.5896,-0.5768 2.8859,-1.1139c-0.2528,-1.215 -0.3746,-1.9037 -0.3746,-2.0757l-0.3643,-0.0709h-0.4459c-0.5669,0 -1.4276,-0.0306 -2.5924,-0.0812z" fill="#000000"/><path d="M152.7548,150.40606c3.0583,1.5697 4.7494,2.4909 5.0834,2.7544c-0.4351,2.0559 -0.6987,3.1088 -0.7795,3.1697h-6.4003v0.1111l1.7927,2.2178l2.815,-1.4379c0.2735,0.4761 0.6787,1.3165 1.1951,2.5116c-0.2433,0.0808 -2.0152,0.3444 -5.3167,0.7795c-2.7342,-1.8026 -4.1112,-2.7441 -4.1315,-2.815c0.4355,-3.5041 0.6987,-5.2557 0.7795,-5.2557c2.856,-1.2154 4.5065,-1.8938 4.9623,-2.0355zM152.0964,152.85678c-0.0506,0.1314 -0.4153,0.668 -1.0733,1.6099c0,0.2835 0.3949,0.4256 1.1951,0.4256c0,0.0402 0.5773,0.1417 1.7313,0.2934c0.3141,-0.4355 0.4762,-0.6987 0.4762,-0.7695c-0.1011,-0.5976 -0.3241,-0.9013 -0.6581,-0.9013z" fill="#000000"/><path d="M167.9855,150.40606c2.5622,0.6883 3.9293,1.1035 4.0809,1.2556c1.4077,1.9949 2.2079,3.1494 2.3799,3.4531c-0.9113,2.8863 -1.438,4.3342 -1.5698,4.3342c-3.0379,0.709 -4.6279,1.0633 -4.7696,1.0633c-2.5112,-1.4682 -3.8481,-2.2783 -4.0101,-2.4507c-0.0912,-2.7238 -0.1318,-4.2326 -0.1318,-4.5165c-0.0406,-0.0808 -0.0605,-0.1417 -0.0605,-0.1823c2.5925,-1.9746 3.9289,-2.9567 4.02,-2.9567zM167.7932,154.11236c-0.0406,0.2735 -0.1015,1.2556 -0.1823,2.9468l2.258,0.5063c0.5366,-1.6911 0.8101,-2.5924 0.8101,-2.7039c-1.7922,-0.5366 -2.7545,-0.8101 -2.8858,-0.8101z" fill="#000000"/><path d="M180.0969,147.33746l0.0709,0.1318c0,0.3845 0.0912,1.8734 0.2636,4.4659c2.42,-0.7695 3.7668,-1.1748 4.0606,-1.2154l3.6454,3.9193c-1.5291,3.4328 -2.3695,5.2558 -2.5013,5.4683c-0.4251,-0.0505 -1.9745,-0.1114 -4.6582,-0.2026v0.4761c0,0.0912 -0.0505,0.1314 -0.1417,0.1314h-3.9189c-0.1417,0 -0.4152,-2.0251 -0.8101,-6.0758c-0.0912,-0.3444 -0.3345,-2.37 -0.7393,-6.0862c2.2986,-0.5367 3.8684,-0.881 4.729,-1.0128zM180.7753,154.77047l0.2636,2.5012h2.0355l0.7393,-2.8352c-2.0256,0.1719 -3.0384,0.2834 -3.0384,0.334z" fill="#000000"/><path d="M199.682,146.16266l3.9902,0.6282c-0.4964,1.9137 -0.8304,2.8759 -0.9825,2.8759c-2.096,-0.1417 -3.1494,-0.2834 -3.1494,-0.4256v-2.9364c0.0099,-0.0911 0.0609,-0.1421 0.1417,-0.1421zM198.5582,150.43628l4.8302,1.2556c-0.9821,5.671 -1.5188,8.6787 -1.61,9.0334c-0.2125,0.1923 -1.9343,1.053 -5.1749,2.5925c-2.5821,-1.2155 -4.1622,-1.985 -4.7593,-2.309c-0.6585,-2.5013 -1.0331,-3.8788 -1.1243,-4.132c0.0912,-0.0911 1.428,-0.4658 3.9898,-1.1238c0,0.0505 0.0203,0.0709 0.0709,0.0709c-0.0506,0.0911 -0.0709,0.162 -0.0709,0.2125c0,0.3142 -0.0912,1.4177 -0.2834,3.2911c2.2584,-0.2834 3.6151,-0.4657 4.061,-0.5569v-1.8229c0,-0.1111 -0.0203,-0.2022 -0.0609,-0.2835l0.0609,-0.1417c-0.0406,-0.0812 -0.0609,-0.1719 -0.0609,-0.2735h0.0609l-0.0609,-0.1417v-0.0709c0,-0.0505 0.0203,-0.0708 0.0609,-0.0708l-0.0609,-0.1417v-0.0709c0,-0.0506 0.0203,-0.0709 0.0609,-0.0709l-0.0609,-0.1317v-4.9724c0.01,-0.0911 0.0609,-0.1417 0.1318,-0.1417z" fill="#000000"/><path d="M210.5176,150.40606c3.0582,1.5697 4.7498,2.4909 5.0838,2.7544c-0.4356,2.0559 -0.6987,3.1088 -0.7799,3.1697h-6.3999v0.1111l1.7922,2.2178l2.8154,-1.4379c0.2735,0.4761 0.6784,1.3165 1.1947,2.5116c-0.2428,0.0808 -2.0152,0.3444 -5.3162,0.7795c-2.7342,-1.8026 -4.1116,-2.7441 -4.132,-2.815c0.4356,-3.5041 0.6987,-5.2557 0.7799,-5.2557c2.8556,-1.2154 4.5066,-1.8938 4.962,-2.0355zM209.8595,152.85678c-0.0505,0.1314 -0.4152,0.668 -1.0732,1.6099c0,0.2835 0.3949,0.4256 1.1947,0.4256c0,0.0402 0.5772,0.1417 1.7317,0.2934c0.3141,-0.4355 0.4762,-0.6987 0.4762,-0.7695c-0.1016,-0.5976 -0.3241,-0.9013 -0.6585,-0.9013z" fill="#000000"/><path d="M220.5028,150.40606c3.0479,0.5772 4.6379,0.9013 4.7796,0.9821v0.1214c-0.658,1.8532 -0.9821,2.8055 -0.9821,2.8763h-0.0609c-0.172,0 -0.9821,-0.2636 -2.4507,-0.7898c-0.8201,1.3671 -1.2254,2.1063 -1.2254,2.1971l2.0256,1.9646c1.5697,-1.4682 2.3595,-2.2074 2.3898,-2.2074c1.2254,1.5999 1.8329,2.5012 1.8329,2.6935c-0.6685,0.385 -1.8329,1.1446 -3.4938,2.2684c-3.2099,-0.6987 -4.952,-1.0832 -5.2052,-1.1644l-1.5896,-5.1443z" fill="#000000"/><path d="M230.8523,147.33746l4.4556,0.7898l-0.4252,3.3823c0.881,-0.0506 1.5291,-0.0709 1.9443,-0.0709h0.6482l0.1417,-0.0708l0.0708,0.1417c-0.1417,2.0558 -0.2631,3.2103 -0.3646,3.4635l-0.1418,-0.0808c-0.1011,0 -1.0123,-0.051 -2.7341,-0.1421c-0.0912,1.59 -0.1621,3.4838 -0.2126,5.6912l-0.1417,0.0709c-2.1773,-0.1417 -3.4735,-0.2631 -3.8887,-0.3642l0.0709,-0.2839c0,-0.5872 0.0911,-2.4101 0.2834,-5.4683c-1.8229,-0.1012 -2.7342,-0.223 -2.7342,-0.3647c0.0912,-2.258 0.2126,-3.3823 0.3647,-3.3823l2.6633,0.5064v-0.8711c0,-0.7086 -0.0302,-1.6708 -0.0812,-2.8759c0.051,0 0.0812,-0.0203 0.0812,-0.0708z" fill="#000000"/><path d="M245.303,146.33506l3.9799,0.6278c-0.496,1.9141 -0.8305,2.8659 -0.9821,2.8659c-2.0964,-0.1417 -3.1395,-0.2834 -3.1395,-0.4152v-2.9368c0.0203,-0.0912 0.0709,-0.1417 0.1417,-0.1417zM244.1892,151.15526h0.0609c3.0785,0.5569 4.6176,0.8914 4.6176,0.9825c-0.881,5.0125 -1.4177,7.7972 -1.6099,8.3745h-3.2104c-0.0911,0 -0.1417,-0.0506 -0.1417,-0.1417z" fill="#000000"/><path d="M257.7896,150.39566c1.9443,1.2457 3.0176,1.9547 3.2202,2.147c-0.6986,1.5593 -1.1039,2.3392 -1.205,2.3392l-3.6865,-2.1366h-0.1313c0,0.0709 -0.1621,0.4455 -0.4762,1.1342c3.3927,1.8329 5.0937,2.7644 5.0937,2.815c-0.9518,2.1975 -1.4885,3.3624 -1.6099,3.4838l-5.7621,0.334c-2.2382,-1.4885 -3.4432,-2.2684 -3.6152,-2.3492v-0.0609c0,-0.172 0.334,-0.9316 1.0024,-2.2783l4.4962,2.3392l0.3344,-1.3368c-2.7851,-1.2457 -4.4357,-2.0252 -4.9624,-2.3393v-0.1417c0,-0.2532 0.5367,-1.3973 1.6104,-3.413z" fill="#000000"/><path d="M268.696,150.39566c4.0101,0.5569 6.0153,0.8914 6.0153,1.0227c1.5797,1.3572 2.3695,2.0865 2.3695,2.1777c-0.6381,2.0048 -1.0024,3.2202 -1.0935,3.6553c0.6377,1.428 1.0024,2.2788 1.0935,2.5523c0,0.0808 -1.043,0.2934 -3.1394,0.6481c-0.0303,-0.1115 -0.2225,-0.3746 -0.5773,-0.7699c-2.8858,0.5573 -4.4456,0.8304 -4.6681,0.8304l-1.5395,-4.1617l3.3927,-1.7927c0.5465,0.0911 1.3973,0.1318 2.5622,0.1318c0,-0.1521 0.0198,-0.5976 0.0605,-1.3468c-0.1923,0 -1.9444,0.1313 -5.2454,0.3845l-0.061,-0.1313c0.4559,-2.1371 0.7393,-3.2004 0.8305,-3.2004zM270.8024,156.35056c0,0.0708 0.2125,0.8606 0.6481,2.3695h0.0605c0.8507,-0.557 1.2763,-0.9217 1.2763,-1.0936l0.1314,-1.0837c-0.1621,0 -0.8707,-0.0609 -2.1163,-0.1922z" fill="#000000"/><path d="M286.2253,147.33746l4.4559,0.7898l-0.4256,3.3823c0.881,-0.0506 1.5292,-0.0709 1.9444,-0.0709h0.6481l0.1417,-0.0708l0.0709,0.1417c-0.1417,2.0558 -0.2632,3.2103 -0.3643,3.4635l-0.1417,-0.0808c-0.1015,0 -1.0128,-0.051 -2.7346,-0.1421c-0.0911,1.59 -0.162,3.4838 -0.2126,5.6912l-0.1417,0.0709c-2.1772,-0.1417 -3.4734,-0.2631 -3.8887,-0.3642l0.0709,-0.2839c0,-0.5872 0.0912,-2.4101 0.2834,-5.4683c-1.8224,-0.1012 -2.7341,-0.223 -2.7341,-0.3647c0.0911,-2.258 0.2126,-3.3823 0.3647,-3.3823l2.6633,0.5064v-0.8711c0,-0.7086 -0.0303,-1.6708 -0.0808,-2.8759c0.0505,0 0.0808,-0.0203 0.0808,-0.0708z" fill="#2b70c2"/><path d="M301.4053,150.39566c1.3369,0.7497 2.1569,1.2357 2.4607,1.4583c-1.0936,2.2787 -1.6808,3.4332 -1.762,3.4734h-0.0709l-1.4483,-1.2655l-1.711,2.086l0.1923,3.7975c-0.0912,0.0808 -1.2051,0.2735 -3.3521,0.5669c-0.0808,-0.5773 -0.6074,-3.4229 -1.5796,-8.5365c0,-0.0812 1.4077,-0.2938 4.233,-0.6282c0.0506,0.0509 0.172,0.6887 0.3846,1.8937c1.6911,-1.8937 2.5721,-2.8456 2.6533,-2.8456z" fill="#2b70c2"/><path d="M306.2052,150.39566c4.0106,0.5569 6.0154,0.8914 6.0154,1.0227c1.5797,1.3572 2.3699,2.0865 2.3699,2.1777c-0.6382,2.0048 -1.0028,3.2202 -1.094,3.6553c0.6382,1.428 1.0029,2.2788 1.094,2.5523c0,0.0808 -1.0434,0.2934 -3.1394,0.6481c-0.0303,-0.1115 -0.223,-0.3746 -0.5773,-0.7699c-2.8862,0.5573 -4.4456,0.8304 -4.6686,0.8304l-1.539,-4.1617l3.3922,-1.7927c0.547,0.0911 1.3978,0.1318 2.5622,0.1318c0,-0.1521 0.0203,-0.5976 0.0609,-1.3468c-0.1927,0 -1.9443,0.1313 -5.2458,0.3845l-0.0609,-0.1313c0.4558,-2.1371 0.7393,-3.2004 0.8304,-3.2004zM308.3116,156.35056c0,0.0708 0.2126,0.8606 0.6481,2.3695h0.0609c0.8508,-0.557 1.276,-0.9217 1.276,-1.0936l0.1317,-1.0837c-0.162,0 -0.871,-0.0609 -2.1167,-0.1922z" fill="#2b70c2"/><path d="M326.8135,150.39566c1.6505,0.6788 3.0681,1.3269 4.2633,1.924c-0.3142,4.0205 -0.5064,6.218 -0.5976,6.5926c-1.985,0.4965 -3.0988,0.7393 -3.3317,0.7393c0,-0.881 -0.0709,-2.6127 -0.2027,-5.1948c-0.7492,0.0708 -1.1238,0.1417 -1.1238,0.1922c0,0.2532 0.0402,1.7214 0.1314,4.3951c0.0406,0 0.0609,0.0203 0.0609,0.0709c0,0.0808 -1.0431,0.3037 -3.1291,0.6684c-0.0912,-0.1115 -0.3543,-1.7521 -0.8002,-4.9317c-0.8404,0.2126 -1.2656,0.3746 -1.2656,0.4658l0.4049,4.1315c-0.0808,0.0911 -1.1951,0.4459 -3.3317,1.0633c-1.2457,-4.3951 -2.0152,-7.3418 -2.3289,-8.8506c2.3392,-0.5773 3.6553,-0.8711 3.9288,-0.8711c0.3142,1.2254 0.4658,1.9344 0.4658,2.1267h0.0709c1.1445,-1.053 1.9344,-1.762 2.3902,-2.1267h0.0709l2.1266,1.5291h0.0709c1.3265,-1.2858 2.0355,-1.924 2.1267,-1.924z" fill="#2b70c2"/><path d="M337.1729,150.40606c0.2126,0.8607 0.3543,1.3973 0.4355,1.5999c2.9874,-0.6783 4.5571,-1.0227 4.7291,-1.0227c2.0355,2.9265 3.0483,4.4456 3.0483,4.577l-2.3293,4.9421l-5.0125,-0.8002v0.152c0.3949,3.0077 0.5871,4.5978 0.5871,4.79c-0.0505,0 -0.0708,0.0203 -0.0708,0.0709c-0.4861,-0.0506 -0.8508,-0.0709 -1.0936,-0.0709h-0.8711c-0.5063,0 -1.2858,-0.0203 -2.3288,-0.0708c-0.0912,-0.2835 -0.8205,-4.5977 -2.1773,-12.932c0.2329,-0.0912 1.9241,-0.5064 5.0834,-1.2353zM337.5376,154.54786c0.1318,1.5495 0.2532,2.3289 0.3646,2.3289c1.3874,0.4762 2.2278,0.719 2.5415,0.719l0.8002,-3.4834h-0.0709c-0.7898,0.0506 -2.0052,0.1923 -3.6354,0.4355z" fill="#2b70c2"/><path d="M350.5097,150.40606c2.5622,0.6883 3.9293,1.1035 4.0814,1.2556c1.4073,1.9949 2.2075,3.1494 2.3795,3.4531c-0.9113,2.8863 -1.438,4.3342 -1.5693,4.3342c-3.0384,0.709 -4.628,1.0633 -4.7697,1.0633c-2.5117,-1.4682 -3.8485,-2.2783 -4.0105,-2.4507c-0.0912,-2.7238 -0.1314,-4.2326 -0.1314,-4.5165c-0.0406,-0.0808 -0.0609,-0.1417 -0.0609,-0.1823c2.5924,-1.9746 3.9293,-2.9567 4.0205,-2.9567zM350.3175,154.11236c-0.0406,0.2735 -0.1011,1.2556 -0.1824,2.9468l2.2585,0.5063c0.5366,-1.6911 0.8101,-2.5924 0.8101,-2.7039c-1.7927,-0.5366 -2.7544,-0.8101 -2.8862,-0.8101z" fill="#2b70c2"/><path d="M357.8922,147.34786c2.0661,0.0401 3.5849,0.0604 4.5471,0.0604c0.0912,0 0.3543,4.1419 0.7998,12.4356c-0.3444,0.0911 -1.5494,0.3141 -3.6048,0.6684c-0.1015,0 -0.4355,-2.5415 -1.0029,-7.6153c-0.0505,-0.1214 -0.2933,-1.9746 -0.7392,-5.5491z" fill="#2b70c2"/><path d="M365.771,146.33506l3.9799,0.6278c-0.4965,1.9141 -0.8305,2.8659 -0.9826,2.8659c-2.0959,-0.1417 -3.139,-0.2834 -3.139,-0.4152v-2.9368c0.0199,-0.0912 0.0709,-0.1417 0.1417,-0.1417zM364.6572,151.15526h0.0604c3.0786,0.5569 4.6181,0.8914 4.6181,0.9825c-0.881,5.0125 -1.4181,7.7972 -1.6104,8.3745h-3.2103c-0.0912,0 -0.1417,-0.0506 -0.1417,-0.1417z" fill="#2b70c2"/><path d="M379.0776,150.39566l3.372,2.3189c-0.2329,3.8485 -0.4049,6.0966 -0.4961,6.7447c-0.3949,0.0506 -1.5796,0.1214 -3.575,0.2126l-0.0708,-0.1417l-0.3543,-5.4079l-0.1417,-0.0708c-1.2863,0.2735 -2.1773,0.4861 -2.6633,0.6278c0.1313,2.2991 0.2026,3.9699 0.2026,4.9926c-2.0156,0.557 -3.1092,0.8404 -3.3015,0.8404c-1.3066,-5.7621 -1.9646,-8.81 -1.9646,-9.1341c2.8456,-0.3746 4.395,-0.5569 4.6379,-0.5569v0.0709c0.051,0.0302 0.1218,0.7392 0.213,2.1063c2.6123,-1.7317 3.9898,-2.6028 4.1418,-2.6028z" fill="#2b70c2"/><path d="M389.1942,150.40606c3.0583,1.5697 4.7494,2.4909 5.0834,2.7544c-0.4355,2.0559 -0.6987,3.1088 -0.7795,3.1697h-6.4003v0.1111l1.7923,2.2178l2.8154,-1.4379c0.2735,0.4761 0.6783,1.3165 1.1951,2.5116c-0.2433,0.0808 -2.0152,0.3444 -5.3167,0.7795c-2.7342,-1.8026 -4.1116,-2.7441 -4.1315,-2.815c0.4351,-3.5041 0.6987,-5.2557 0.7795,-5.2557c2.856,-1.2154 4.5065,-1.8938 4.9623,-2.0355zM388.5358,152.85678c-0.0506,0.1314 -0.4153,0.668 -1.0733,1.6099c0,0.2835 0.3949,0.4256 1.1947,0.4256c0,0.0402 0.5772,0.1417 1.7317,0.2934c0.3141,-0.4355 0.4762,-0.6987 0.4762,-0.7695c-0.1016,-0.5976 -0.3241,-0.9013 -0.6585,-0.9013z" fill="#2b70c2"/><path d="M395.3206,157.39358c0.0506,0.0302 1.104,0.111 3.1598,0.2428l0.0402,0.0812c-0.3137,1.8631 -0.5164,2.7947 -0.6075,2.7947h-2.3492c-0.0812,0 -0.1927,-0.9316 -0.3241,-2.7947c-0.0307,0 -0.0406,-0.0812 -0.0406,-0.2432c0.0812,-0.0303 0.1214,-0.0506 0.1214,-0.0808z" fill="#000000"/><path d="M38.7174,168.95158l5.4381,0.2022l0.4761,9.9852l-4.8102,3.9898c-3.7168,-0.7898 -5.6205,-1.2457 -5.7116,-1.377c-1.104,-2.0355 -1.8126,-3.413 -2.1366,-4.1319c0.9013,-0.4455 2.2074,-1.1342 3.9189,-2.0658c0.0911,0 0.2834,1.2859 0.5569,3.8584h0.0709c2.6231,-1.0127 4.0001,-1.5191 4.1215,-1.5191l-2.0657,-8.871z" fill="#000000"/><path d="M51.1331,171.99938l0.0708,0.1318l-1.3671,7.2507h0.0709l3.4834,-1.0228v-4.1012c0.0099,-0.0912 0.0609,-0.1417 0.1318,-0.1417c2.6227,0.1823 4.0809,0.2735 4.3747,0.2735c0,0.0505 0.0203,0.0708 0.0709,0.0708c0,1.1541 -0.3647,3.5443 -1.0936,7.1798c0,0.2126 -1.043,0.3647 -3.1394,0.4757c-0.1115,-0.1313 -0.2027,-0.4048 -0.2736,-0.8201c-2.6836,0.5471 -4.2127,0.8201 -4.5873,0.8201c-2.1366,-1.5896 -3.2103,-2.4101 -3.2103,-2.4606c0.3647,-4.79 0.5976,-7.271 0.6887,-7.4533h0.0609c1.7115,-0.0506 3.2808,-0.1115 4.7192,-0.2027z" fill="#000000"/><path d="M70.242,171.99938c1.6505,0.6788 3.0686,1.3269 4.2633,1.9241c-0.3137,4.0204 -0.5064,6.2179 -0.5976,6.5926c-1.9845,0.4964 -3.0984,0.7392 -3.3313,0.7392c0,-0.881 -0.0713,-2.6127 -0.2026,-5.1948c-0.7497,0.0709 -1.1243,0.1417 -1.1243,0.1923c0,0.2532 0.0406,1.7214 0.1318,4.395c0.0406,0 0.0609,0.0203 0.0609,0.0709c0,0.0808 -1.0434,0.3037 -3.1295,0.6684c-0.0912,-0.1115 -0.3543,-1.752 -0.7998,-4.9317c-0.8408,0.2126 -1.2659,0.3746 -1.2659,0.4658l0.4052,4.1315c-0.0812,0.0912 -1.1951,0.4459 -3.3317,1.0633c-1.2457,-4.395 -2.0152,-7.3418 -2.3293,-8.8506c2.3393,-0.5772 3.6558,-0.8711 3.9293,-0.8711c0.3137,1.2254 0.4658,1.9344 0.4658,2.1267h0.0708c1.1442,-1.0529 1.9344,-1.762 2.3898,-2.1267h0.0709l2.1267,1.5292h0.0708c1.3269,-1.2859 2.0355,-1.9241 2.1267,-1.9241z" fill="#000000"/><path d="M80.6018,172.00978c0.2126,0.8607 0.3543,1.3973 0.4351,1.6c2.9878,-0.6784 4.5571,-1.0227 4.7295,-1.0227c2.0355,2.9264 3.0479,4.4456 3.0479,4.5769l-2.3289,4.9421l-5.0129,-0.8002v0.1521c0.3949,3.0076 0.5876,4.5977 0.5876,4.79c-0.051,0 -0.0709,0.0203 -0.0709,0.0708c-0.486,-0.0505 -0.8507,-0.0708 -1.094,-0.0708h-0.8706c-0.5064,0 -1.2863,-0.0204 -2.3293,-0.0709c-0.0912,-0.2834 -0.8201,-4.5977 -2.1772,-12.932c0.2328,-0.0912 1.924,-0.5064 5.0837,-1.2353zM80.9661,176.15166c0.1318,1.5494 0.2532,2.3288 0.3647,2.3288c1.3873,0.4762 2.2277,0.719 2.5418,0.719l0.8003,-3.4834h-0.0713c-0.7899,0.0506 -2.0049,0.1923 -3.6355,0.4356z" fill="#000000"/><path d="M99.083,172.00978c2.5622,0.6883 3.9293,1.1035 4.0809,1.2556c1.4077,1.9949 2.2079,3.1494 2.3799,3.4531c-0.9113,2.8863 -1.438,4.3342 -1.5697,4.3342c-3.038,0.709 -4.628,1.0633 -4.7697,1.0633c-2.5112,-1.4682 -3.8481,-2.2783 -4.0101,-2.4507c-0.0912,-2.7238 -0.1318,-4.2326 -0.1318,-4.5165c-0.0402,-0.0808 -0.0605,-0.1417 -0.0605,-0.1823c2.5925,-1.9746 3.9293,-2.9567 4.02,-2.9567zM98.8907,175.71608c-0.0406,0.2735 -0.1015,1.2556 -0.1823,2.9468l2.258,0.5064c0.5371,-1.6912 0.8101,-2.5925 0.8101,-2.7039c-1.7922,-0.5367 -2.7545,-0.8102 -2.8858,-0.8102z" fill="#000000"/><path d="M115.4582,171.99938l3.3719,2.319c-0.2329,3.8485 -0.4049,6.0965 -0.496,6.7447c-0.395,0.0505 -1.5797,0.1214 -3.575,0.2125l-0.0709,-0.1417l-0.3543,-5.4078l-0.1417,-0.0709c-1.2863,0.2735 -2.1772,0.4861 -2.6633,0.6278c0.1313,2.2991 0.2026,3.9699 0.2026,4.9926c-2.0156,0.557 -3.1092,0.8404 -3.3015,0.8404c-1.3066,-5.7621 -1.9646,-8.81 -1.9646,-9.134c2.8456,-0.3746 4.3951,-0.557 4.6379,-0.557v0.0709c0.051,0.0302 0.1218,0.7393 0.213,2.1063c2.6123,-1.7317 3.9898,-2.6028 4.1419,-2.6028z" fill="#000000"/><path d="M126.3745,167.93878l3.9799,0.6278c-0.4961,1.9141 -0.8305,2.8659 -0.9821,2.8659c-2.0965,-0.1417 -3.1395,-0.2834 -3.1395,-0.4152v-2.9368c0.0203,-0.0912 0.0709,-0.1417 0.1417,-0.1417zM125.2606,172.75898h0.061c3.0785,0.557 4.6175,0.8914 4.6175,0.9826c-0.881,5.0125 -1.4176,7.7972 -1.6099,8.3744h-3.2103c-0.0911,0 -0.1417,-0.0505 -0.1417,-0.1417z" fill="#000000"/><path d="M133.7163,168.94118l4.456,0.7898l-0.4256,3.3823c0.8815,-0.0505 1.5296,-0.0708 1.9444,-0.0708h0.6481l0.1421,-0.0709l0.0709,0.1417c-0.1417,2.0558 -0.2636,3.2103 -0.3647,3.4635l-0.1417,-0.0808c-0.1015,0 -1.0128,-0.051 -2.7342,-0.1421c-0.0911,1.59 -0.162,3.4838 -0.213,5.6913l-0.1417,0.0708c-2.1772,-0.1417 -3.4735,-0.2631 -3.8887,-0.3642l0.0709,-0.2839c0,-0.5872 0.0912,-2.4101 0.2839,-5.4683c-1.823,-0.1011 -2.7342,-0.223 -2.7342,-0.3647c0.0907,-2.258 0.2126,-3.3823 0.3642,-3.3823l2.6633,0.5064v-0.871c0,-0.7086 -0.0302,-1.6709 -0.0808,-2.8759c0.0506,0 0.0808,-0.0203 0.0808,-0.0709z" fill="#000000"/><path d="M149.7977,168.94118l4.456,0.7898l-0.4256,3.3823c0.881,-0.0505 1.5291,-0.0708 1.9443,-0.0708h0.6482l0.1417,-0.0709l0.0708,0.1417c-0.1417,2.0558 -0.2631,3.2103 -0.3642,3.4635l-0.1417,-0.0808c-0.1016,0 -1.0128,-0.051 -2.7346,-0.1421c-0.0912,1.59 -0.162,3.4838 -0.2126,5.6913l-0.1417,0.0708c-2.1772,-0.1417 -3.4735,-0.2631 -3.8887,-0.3642l0.0709,-0.2839c0,-0.5872 0.0911,-2.4101 0.2834,-5.4683c-1.8225,-0.1011 -2.7342,-0.223 -2.7342,-0.3647c0.0912,-2.258 0.2126,-3.3823 0.3647,-3.3823l2.6633,0.5064v-0.871c0,-0.7086 -0.0302,-1.6709 -0.0808,-2.8759c0.0506,0 0.0808,-0.0203 0.0808,-0.0709z" fill="#000000"/><path d="M161.7878,172.00978c2.5622,0.6883 3.9293,1.1035 4.0809,1.2556c1.4077,1.9949 2.2079,3.1494 2.3799,3.4531c-0.9112,2.8863 -1.4379,4.3342 -1.5697,4.3342c-3.0379,0.709 -4.628,1.0633 -4.7697,1.0633c-2.5112,-1.4682 -3.8481,-2.2783 -4.0101,-2.4507c-0.0911,-2.7238 -0.1318,-4.2326 -0.1318,-4.5165c-0.0401,-0.0808 -0.0605,-0.1417 -0.0605,-0.1823c2.5925,-1.9746 3.9293,-2.9567 4.0201,-2.9567zM161.5955,175.71608c-0.0406,0.2735 -0.1015,1.2556 -0.1823,2.9468l2.258,0.5064c0.5371,-1.6912 0.8101,-2.5925 0.8101,-2.7039c-1.7922,-0.5367 -2.7544,-0.8102 -2.8858,-0.8102z" fill="#000000"/><path d="M179.044,168.94118l0.0708,0.1318c0,0.3845 0.0912,1.8735 0.2632,4.4659c2.4205,-0.7695 3.7672,-1.1748 4.0606,-1.2154l3.6459,3.9193c-1.5292,3.4329 -2.3695,5.2558 -2.5013,5.4684c-0.4252,-0.0506 -1.9746,-0.1115 -4.6582,-0.2027v0.4762c0,0.0911 -0.051,0.1313 -0.1417,0.1313h-3.9194c-0.1417,0 -0.4152,-2.0251 -0.8101,-6.0758c-0.0912,-0.3444 -0.334,-2.3699 -0.7393,-6.0862c2.2991,-0.5366 3.8684,-0.881 4.7295,-1.0128zM179.7223,176.37416l0.2632,2.5013h2.0355l0.7393,-2.8353c-2.0252,0.172 -3.038,0.2834 -3.038,0.334z" fill="#2b70c2"/><path d="M192.2084,172.00978c2.5622,0.6883 3.9293,1.1035 4.0814,1.2556c1.4073,1.9949 2.2075,3.1494 2.3794,3.4531c-0.9112,2.8863 -1.4379,4.3342 -1.5693,4.3342c-3.0383,0.709 -4.6279,1.0633 -4.7696,1.0633c-2.5117,-1.4682 -3.8485,-2.2783 -4.0105,-2.4507c-0.0912,-2.7238 -0.1314,-4.2326 -0.1314,-4.5165c-0.0406,-0.0808 -0.0609,-0.1417 -0.0609,-0.1823c2.5924,-1.9746 3.9293,-2.9567 4.0204,-2.9567zM192.0162,175.71608c-0.0407,0.2735 -0.1011,1.2556 -0.1824,2.9468l2.2585,0.5064c0.5366,-1.6912 0.8101,-2.5925 0.8101,-2.7039c-1.7927,-0.5367 -2.7545,-0.8102 -2.8862,-0.8102z" fill="#2b70c2"/><path d="M205.0596,171.99938l0.0709,0.1318l-1.3671,7.2507h0.0709l3.4833,-1.0228v-4.1012c0.01,-0.0912 0.061,-0.1417 0.1318,-0.1417c2.6227,0.1823 4.081,0.2735 4.3748,0.2735c0,0.0505 0.0203,0.0708 0.0708,0.0708c0,1.1541 -0.3646,3.5443 -1.0935,7.1798c0,0.2126 -1.0431,0.3647 -3.1395,0.4757c-0.1115,-0.1313 -0.2026,-0.4048 -0.2735,-0.8201c-2.6836,0.5471 -4.2127,0.8201 -4.5873,0.8201c-2.1366,-1.5896 -3.2103,-2.4101 -3.2103,-2.4606c0.3646,-4.79 0.5975,-7.271 0.6887,-7.4533h0.0609c1.7115,-0.0506 3.2807,-0.1115 4.7191,-0.2027z" fill="#2b70c2"/><path d="M221.9105,171.99938l3.3719,2.319c-0.2328,3.8485 -0.4048,6.0965 -0.496,6.7447c-0.3949,0.0505 -1.5796,0.1214 -3.575,0.2125l-0.0708,-0.1417l-0.3543,-5.4078l-0.1417,-0.0709c-1.2863,0.2735 -2.1773,0.4861 -2.6634,0.6278c0.1314,2.2991 0.2027,3.9699 0.2027,4.9926c-2.0156,0.557 -3.1092,0.8404 -3.3015,0.8404c-1.3066,-5.7621 -1.9646,-8.81 -1.9646,-9.134c2.8456,-0.3746 4.395,-0.557 4.6379,-0.557v0.0709c0.0509,0.0302 0.1218,0.7393 0.213,2.1063c2.6123,-1.7317 3.9897,-2.6028 4.1418,-2.6028z" fill="#2b70c2"/><path d="M230.2647,172.00978c3.0483,0.5773 4.6383,0.9013 4.78,0.9821v0.1214c-0.658,1.8532 -0.9821,2.8055 -0.9821,2.8763h-0.0609c-0.1724,0 -0.9825,-0.2635 -2.4507,-0.7898c-0.8201,1.3671 -1.2254,2.1064 -1.2254,2.1971l2.0256,1.9646c1.5693,-1.4681 2.3595,-2.2074 2.3898,-2.2074c1.2253,1.6 1.8328,2.5013 1.8328,2.6935c-0.6684,0.385 -1.8328,1.1446 -3.4937,2.2684c-3.2103,-0.6986 -4.952,-1.0832 -5.2052,-1.1644l-1.5896,-5.1443z" fill="#2b70c2"/><path d="M243.3285,172.00978c3.0582,1.5697 4.7493,2.4909 5.0833,2.7545c-0.4351,2.0558 -0.6986,3.1088 -0.7794,3.1697h-6.4004v0.111l1.7927,2.2179l2.815,-1.438c0.2735,0.4762 0.6788,1.3165 1.1951,2.5117c-0.2433,0.0808 -2.0152,0.3443 -5.3167,0.7794c-2.7341,-1.8026 -4.1112,-2.7441 -4.1315,-2.8149c0.4356,-3.5042 0.6987,-5.2558 0.7795,-5.2558c2.856,-1.2154 4.5065,-1.8938 4.9624,-2.0355zM242.67,174.46047c-0.0506,0.1314 -0.4152,0.668 -1.0733,1.6099c0,0.2835 0.3949,0.4256 1.1951,0.4256c0,0.0402 0.5773,0.1418 1.7314,0.2934c0.3141,-0.4355 0.4761,-0.6987 0.4761,-0.7695c-0.1011,-0.5976 -0.3241,-0.9013 -0.6581,-0.9013z" fill="#2b70c2"/><path d="M250.3363,169.38668l4.79,0.4053l-1.0634,7.9899l-3.7266,-0.2735zM250.2045,178.46018l3.4531,0.2735v3.3823l-4.1215,-0.5366z" fill="#000000"/><path d="M268.9894,168.94118c2.4205,1.7521 3.8282,2.8357 4.2231,3.2509c-0.7799,2.2987 -1.1645,3.4834 -1.1645,3.5543c0.1923,0.1923 0.6987,0.8404 1.5291,1.9547v0.1214c-1.256,2.2178 -1.9849,3.4432 -2.1975,3.6761l-8.3952,0.6174c-0.1318,-0.496 -0.7596,-4.3847 -1.9037,-11.6457zM265.678,172.07026l0.3646,3.6156c1.7823,-0.4355 2.6836,-0.6788 2.694,-0.7393c0.0808,-0.2026 0.2631,-0.8611 0.557,-1.9646zM267.1466,176.97167h-0.6684c-0.0912,0.0104 -0.1318,0.0506 -0.1318,0.1215c-0.0402,0.881 -0.0605,1.5291 -0.0605,1.9547c-0.0406,0.2125 -0.0609,0.3443 -0.0609,0.3746l3.19,-0.496l-0.061,-0.3042v-0.3643c0,-0.2938 -0.0203,-0.7392 -0.0604,-1.3472c-0.9623,0.0406 -1.6812,0.0609 -2.147,0.0609z" fill="#000000"/><path d="M278.6912,172.00978c2.5617,0.6883 3.9288,1.1035 4.0809,1.2556c1.4077,1.9949 2.2075,3.1494 2.3799,3.4531c-0.9117,2.8863 -1.438,4.3342 -1.5697,4.3342c-3.038,0.709 -4.628,1.0633 -4.7697,1.0633c-2.5117,-1.4682 -3.8481,-2.2783 -4.0101,-2.4507c-0.0912,-2.7238 -0.1318,-4.2326 -0.1318,-4.5165c-0.0406,-0.0808 -0.0609,-0.1417 -0.0609,-0.1823c2.5924,-1.9746 3.9293,-2.9567 4.0205,-2.9567zM278.4985,175.71608c-0.0402,0.2735 -0.1011,1.2556 -0.1824,2.9468l2.2585,0.5064c0.5366,-1.6912 0.8101,-2.5925 0.8101,-2.7039c-1.7922,-0.5367 -2.7544,-0.8102 -2.8862,-0.8102z" fill="#000000"/><path d="M287.4709,167.93878l3.9799,0.6278c-0.4965,1.9141 -0.8305,2.8659 -0.9826,2.8659c-2.096,-0.1417 -3.139,-0.2834 -3.139,-0.4152v-2.9368c0.0203,-0.0912 0.0709,-0.1417 0.1417,-0.1417zM286.357,172.75898h0.0605c3.0786,0.557 4.618,0.8914 4.618,0.9826c-0.881,5.0125 -1.4176,7.7972 -1.6103,8.3744h-3.2099c-0.0911,0 -0.1417,-0.0505 -0.1417,-0.1417z" fill="#000000"/><path d="M300.7775,171.99938l3.3719,2.319c-0.2328,3.8485 -0.4048,6.0965 -0.496,6.7447c-0.3949,0.0505 -1.5796,0.1214 -3.5745,0.2125l-0.0709,-0.1417l-0.3547,-5.4078l-0.1417,-0.0709c-1.2859,0.2735 -2.1773,0.4861 -2.6634,0.6278c0.1318,2.2991 0.2027,3.9699 0.2027,4.9926c-2.0152,0.557 -3.1092,0.8404 -3.3015,0.8404c-1.3062,-5.7621 -1.9646,-8.81 -1.9646,-9.134c2.8456,-0.3746 4.395,-0.557 4.6383,-0.557v0.0709c0.0505,0.0302 0.1214,0.7393 0.2126,2.1063c2.6127,-1.7317 3.9897,-2.6028 4.1418,-2.6028z" fill="#000000"/><path d="M312.7067,172.03006c2.8659,0.0709 4.3039,0.2022 4.3039,0.3746c0.4964,7.4736 0.7392,11.4534 0.7392,11.9292c-2.1772,1.3874 -3.7266,2.3189 -4.6685,2.8154c-3.3114,-1.0431 -4.962,-1.6307 -4.962,-1.7823c1.0634,-1.5598 1.6812,-2.3497 1.8532,-2.37c1.8026,0.8914 2.8357,1.3369 3.1088,1.3369l0.9622,-1.266c-0.2532,-1.043 -0.4251,-1.6605 -0.5163,-1.8532c-0.1521,0 -1.975,0.2938 -5.4891,0.8914c-1.924,-3.1291 -2.8858,-4.7291 -2.8858,-4.8103c1.6609,-2.6534 2.6732,-4.2127 3.0379,-4.6686h0.0709c0.1922,0 1.6505,0.3241 4.3747,0.9623v-0.223c0,-0.2631 -0.0203,-0.6883 -0.0708,-1.2655zM309.527,176.32356c0.0912,0.2126 0.395,1.3265 0.891,3.3417c0.6278,-0.2022 1.59,-0.5768 2.8862,-1.1139c-0.2532,-1.215 -0.3746,-1.9037 -0.3746,-2.0757l-0.3646,-0.0708h-0.4455c-0.5673,0 -1.428,-0.0307 -2.5925,-0.0813z" fill="#000000"/><path d="M319.8463,169.38668l4.79,0.4053l-1.0634,7.9899l-3.7266,-0.2735zM319.7145,178.46018l3.4531,0.2735v3.3823l-4.1215,-0.5366z" fill="#000000"/></g><g data-paper-data="{&quot;origPos&quot;:null}"><path d="M444.3058,202.09868c2.5136,0 4.7909,1.0212 6.4406,2.6702c1.6489,1.6496 2.6702,3.9269 2.6702,6.4405c0,2.5136 -1.0213,4.791 -2.6702,6.4406c-1.6497,1.649 -3.927,2.6702 -6.4406,2.6702c-2.5136,0 -4.7909,-1.0212 -6.4406,-2.6702c-1.6489,-1.6496 -2.6701,-3.927 -2.6701,-6.4406c0,-2.5136 1.0212,-4.7909 2.6701,-6.4405c1.6497,-1.649 3.927,-2.6702 6.4406,-2.6702z" fill="url(#color-3)" stroke="#000000" stroke-width="2.0785" stroke-linecap="butt"/><path d="M441.2734,206.54886l5.6119,0.4503l1.7321,3.187l-3.6374,2.9446l3.3603,-0.5197l0.7967,3.4642l-7.4479,-0.0693l-1.9053,-2.4249l4.6766,-3.3256l-4.5727,-0.3464z" fill="#000000" stroke="none" stroke-width="0.69283" stroke-linecap="round"/></g></g></g></svg>