<svg xmlns="http://www.w3.org/2000/svg" xmlns:xlink="http://www.w3.org/1999/xlink" version="1.1" width="38.29285431390397" height="33.236690526062176" viewBox="-0.042814734008869815 0.41475504395667584 38.29285431390397 33.236690526062176">
  <defs>
    <radialGradient id="grad_1" cx="0.4299" cy="0.4257" r="0.7465900000000001">
      <stop offset="0" stop-color="#FFFBC6" stop-opacity="1"/>
      <stop offset="1" stop-color="#E6D380" stop-opacity="1"/>
    </radialGradient>
    <radialGradient id="grad_2" cx="0.4482" cy="0.49" r="0.71734">
      <stop offset="0" stop-color="#4F492C" stop-opacity="1"/>
      <stop offset="1" stop-color="#000000" stop-opacity="1"/>
    </radialGradient>
    <radialGradient id="grad_3" cx="0.4057" cy="0.19579999999999997" r="1.04546">
      <stop offset="0" stop-color="#43F665" stop-opacity="1"/>
      <stop offset="1" stop-color="#36C651" stop-opacity="1"/>
    </radialGradient>
    <radialGradient id="grad_4" cx="0.25379999999999997" cy="0.19690000000000002" r="1.04403">
      <stop offset="0" stop-color="#FFFBC6" stop-opacity="1"/>
      <stop offset="1" stop-color="#E6D380" stop-opacity="1"/>
    </radialGradient>
    <radialGradient id="grad_5" cx="0.4482" cy="0.49" r="0.71734">
      <stop offset="0" stop-color="#4F492C" stop-opacity="1"/>
      <stop offset="1" stop-color="#000000" stop-opacity="1"/>
    </radialGradient>
    <radialGradient id="grad_6" cx="0.4482" cy="0.49" r="0.71734">
      <stop offset="0" stop-color="#4F492C" stop-opacity="1"/>
      <stop offset="1" stop-color="#000000" stop-opacity="1"/>
    </radialGradient>
    <radialGradient id="grad_7" cx="0.5215" cy="0.1844" r="1.0602800000000001">
      <stop offset="0" stop-color="#FFFFFF" stop-opacity="1"/>
      <stop offset="1" stop-color="#E5E5E5" stop-opacity="1"/>
    </radialGradient>
  <radialGradient id="grad_1-0.8257243037223816,0,0,1,218.05,-161.6" cx="21.7394" cy="23.6123" r="21.6005" gradientUnits="userSpaceOnUse">
      <stop offset="0" stop-color="#FFFBC6" stop-opacity="1"/>
      <stop offset="1" stop-color="#E6D380" stop-opacity="1"/>
    </radialGradient><radialGradient id="grad_2-0.6378265023231506,0.12613733112812042,0.17610043287277222,0.8904701471328735,115.2,-171.95" cx="6.4243" cy="22.6291" r="5.035" gradientUnits="userSpaceOnUse">
      <stop offset="0" stop-color="#4F492C" stop-opacity="1"/>
      <stop offset="1" stop-color="#000000" stop-opacity="1"/>
    </radialGradient><radialGradient id="grad_3-0.8559701442718506,0,0,0.9666550755500793,224.65,-155.2" cx="23.1026" cy="4.6155" r="30.4258" gradientUnits="userSpaceOnUse">
      <stop offset="0" stop-color="#43F665" stop-opacity="1"/>
      <stop offset="1" stop-color="#36C651" stop-opacity="1"/>
    </radialGradient><radialGradient id="grad_4-1,0,0,1,243.5,-165.25" cx="23.4007" cy="17.7367" r="14.6307" gradientUnits="userSpaceOnUse">
      <stop offset="0" stop-color="#FFFBC6" stop-opacity="1"/>
      <stop offset="1" stop-color="#E6D380" stop-opacity="1"/>
    </radialGradient><radialGradient id="grad_5-1,0,0,1,242.5,-165.3" cx="20.3506" cy="21.85" r="6.2652" gradientUnits="userSpaceOnUse">
      <stop offset="0" stop-color="#4F492C" stop-opacity="1"/>
      <stop offset="1" stop-color="#000000" stop-opacity="1"/>
    </radialGradient><radialGradient id="grad_6-.6378265619277954,0.12613733112812042,-0.17610043287277222,0.8904701471328735,-75.5,-171.75" cx="33.2757" cy="22.8291" r="5.035" gradientUnits="userSpaceOnUse">
      <stop offset="0" stop-color="#4F492C" stop-opacity="1"/>
      <stop offset="1" stop-color="#000000" stop-opacity="1"/>
    </radialGradient><radialGradient id="grad_7-0.7163537740707397,0,0,1,187.45,-160.6" cx="18.3018" cy="15.7809" r="34.437" gradientUnits="userSpaceOnUse">
      <stop offset="0" stop-color="#FFFFFF" stop-opacity="1"/>
      <stop offset="1" stop-color="#E5E5E5" stop-opacity="1"/>
    </radialGradient></defs>
  <!-- Exported by Scratch - http://scratch.mit.edu/ -->
  <path id="ID0.15607240749523044" fill="url(#grad_1-0.8257243037223816,0,0,1,218.05,-161.6)" stroke="none" stroke-linecap="round" d="M 25.5737 17.1 C 22.3418 17.013 19.0826 16.699 15.8714 16.7 C 11.4596 17.216 6.7901 16.55 2.7424 18.65 C 1.5707 19.259 2.7383 21.819 3.4855 23 C 4.7406 25.31 6.4243 27.45 8.4812 28.65 C 12.1466 30.813 16.0737 33.085 20.1652 33.15 C 24.3309 33.215 28.5256 31.077 32.2207 28.65 C 33.9696 27.512 35.1529 25.018 35.8539 22.65 C 36.3494 21.025 36.9843 18.132 35.6062 17.35 C 32.5791 15.639 28.8146 17.189 25.5737 17.1 Z " stroke-width="0.9170116209072303"/>
  <path id="ID0.21181316301226616" fill="url(#grad_2-0.6378265023231506,0.12613733112812042,0.17610043287277222,0.8904701471328735,115.2,-171.95)" stroke="none" d="M 5.362 18.4069 C 4.6459 18.8011 3.8058 19.2652 3.5229 20.2511 C 3.2709 21.1216 3.7267 22.2233 3.9765 23.2148 C 4.234 24.2317 4.4253 25.1858 5.0855 26.1415 C 5.6054 26.877 6.4427 27.4073 7.123 27.3116 C 7.7575 27.2222 8.24 26.5725 8.4997 25.6838 C 8.7586 24.7943 8.7672 23.4971 8.5546 22.402 C 8.2748 20.9602 7.9349 19.3388 7.1122 18.2921 C 6.6411 17.72 5.8701 18.1278 5.362 18.4069 Z " stroke-width="0.7895193850573677"/>
  <path id="ID0.26931737549602985" fill="url(#grad_3-0.8559701442718506,0,0,0.9666550755500793,224.65,-155.2)" stroke="none" stroke-linecap="round" d="M 19.7307 0.9148 C 15.3473 0.908 10.345 1.6698 7.0196 4.9264 C 3.933 8.0303 3.4451 13.46 2.4829 18.0246 C 2.2424 19.1633 3.0393 19.7926 4.0237 19.8129 C 7.9603 19.8941 11.819 18.1599 15.7505 17.7346 C 20.4078 17.4659 25.0823 17.693 29.7456 17.7346 C 32.2039 17.7452 36.7123 20.679 37.1069 18.4596 C 37.7832 14.6133 34.9662 8.1589 31.7725 5.0018 C 28.6226 1.8921 23.9464 0.9216 19.7307 0.9148 Z " stroke-width="0.9129914903687499"/>
  <path id="ID0.7226808085106313" fill="url(#grad_4-1,0,0,1,243.5,-165.25)" stroke="none" d="M 20.55 14.9 C 18.883 14.818 16.791 14.475 15.605 15.668 C 14.165 17.114 13.7 19.224 13.7 21.5 C 13.7 23.776 14.428 25.839 15.605 27.332 C 16.782 28.826 18.407 29.75 20.2 29.75 C 21.993 29.75 23.618 28.826 24.795 27.332 C 25.972 25.839 26.689 23.641 26.7 21.5 C 26.71 19.463 26.165 17.531 24.9 16.25 C 23.861 15.046 22.03 14.923 20.55 14.9 Z " stroke-width="1"/>
  <path id="ID0.9385899971239269" fill="none" stroke="#2B9638" stroke-width="1.0000000011730803" stroke-linecap="round" d="M 31.2311 18.349 L 26.8648 13.5848 L 25.8265 16.6746 L 26.7433 13.6572 L 24.9385 7.735 "/>
  <path id="ID0.21181316301226616" fill="url(#grad_5-1,0,0,1,242.5,-165.3)" stroke="none" d="M 19.975 16.95 C 18.975 16.95 18.069 17.51 17.412 18.415 C 16.756 19.321 16.35 20.571 16.35 21.95 C 16.35 23.329 16.756 24.579 17.412 25.485 C 18.069 26.39 18.975 26.95 19.975 26.95 C 20.975 26.95 21.881 26.39 22.538 25.485 C 23.194 24.579 23.6 23.329 23.6 21.95 C 23.6 20.571 23.194 19.321 22.538 18.415 C 21.881 17.51 20.975 16.95 19.975 16.95 Z " stroke-width="1"/>
  <path id="ID0.21181316301226616" fill="url(#grad_6-.6378265619277954,0.12613733112812042,-0.17610043287277222,0.8904701471328735,-75.5,-171.75)" stroke="none" d="M 34.3381 18.6069 C 35.0541 19.0011 35.8942 19.4652 36.1771 20.4511 C 36.4291 21.3216 35.9733 22.4233 35.7235 23.4148 C 35.4661 24.4317 35.2747 25.3858 34.6145 26.3415 C 34.0946 27.077 33.2574 27.6073 32.577 27.5116 C 31.9426 27.4222 31.46 26.7725 31.2003 25.8838 C 30.9414 24.9943 30.9328 23.6971 31.1454 22.602 C 31.4253 21.1602 31.7651 19.5388 32.5878 18.4921 C 33.0589 17.92 33.8299 18.3278 34.3381 18.6069 Z " stroke-width="0.7895194091336755"/>
  <path id="ID0.9385899971239269" fill="none" stroke="#2B9638" stroke-width="1.0000000048219388" stroke-linecap="round" d="M 8.0189 18.849 L 12.3853 14.0848 L 13.4235 17.1746 L 12.5067 14.1572 L 14.3115 8.235 "/>
  <path id="ID0.5838042767718434" fill="url(#grad_7-0.7163537740707397,0,0,1,187.45,-160.6)" stroke="none" stroke-linecap="round" d="M 31.1058 22.35 C 33.0356 22.677 35.1761 22.633 36.9799 21.5 C 37.659 20.972 38.1053 18.571 37.3739 18.15 C 34.9111 16.733 32.0428 17.771 29.494 17.15 C 26.4932 16.435 23.6607 14.07 20.7545 14.15 C 17.4163 14.245 14.4971 16.327 11.0121 17.5 C 9.8817 17.919 8.9748 19.119 7.6452 19.05 C 5.6065 18.96 3.6064 16.575 1.6278 17.4 C 0.6142 17.775 -0.0212 21.036 0.9115 21.75 C 3.3406 23.591 6.2576 23.051 9.0063 22.35 C 12.583 21.9 15.947 18.388 19.6083 18.35 C 23.5769 18.311 27.2067 21.652 31.1058 22.35 Z " stroke-width="0.869816857052504"/>
  <path id="ID0.8476383532397449" fill="none" stroke="#2B9638" stroke-width="1" stroke-linecap="round" d="M 29.6 3.75 L 24.75 7.35 L 13.95 7.5 L 8.25 4.65 "/>
</svg>