<svg version="1.1" xmlns="http://www.w3.org/2000/svg" xmlns:xlink="http://www.w3.org/1999/xlink" width="564.23147" height="305.00468" viewBox="0,0,564.23147,305.00468"><defs><linearGradient x1="459.53992" y1="107.07809" x2="459.53992" y2="406.07509" gradientUnits="userSpaceOnUse" id="color-1"><stop offset="0" stop-color="#613187"/><stop offset="1" stop-color="#3a1c4f"/></linearGradient><linearGradient x1="458.28992" y1="107.07809" x2="458.28992" y2="406.07509" gradientUnits="userSpaceOnUse" id="color-2"><stop offset="0" stop-color="#be5eff"/><stop offset="1" stop-color="#613187"/></linearGradient><linearGradient x1="367.83065" y1="295.99569" x2="402.99629" y2="295.99569" gradientUnits="userSpaceOnUse" id="color-3"><stop offset="0" stop-color="#8e4108"/><stop offset="1" stop-color="#be6d2f"/></linearGradient><linearGradient x1="331.57331" y1="289.32296" x2="365.10724" y2="289.32296" gradientUnits="userSpaceOnUse" id="color-4"><stop offset="0" stop-color="#8e4108"/><stop offset="1" stop-color="#be6d2f"/></linearGradient><linearGradient x1="384.16373" y1="219.04511" x2="384.16373" y2="271.28356" gradientUnits="userSpaceOnUse" id="color-5"><stop offset="0" stop-color="#0052ef"/><stop offset="1" stop-color="#004bd6"/></linearGradient><linearGradient x1="416.07151" y1="162.77662" x2="416.07151" y2="180.13187" gradientUnits="userSpaceOnUse" id="color-6"><stop offset="0" stop-color="#bc041a"/><stop offset="1" stop-color="#880010"/></linearGradient><linearGradient x1="397.80699" y1="158.20785" x2="397.80699" y2="187.28085" gradientUnits="userSpaceOnUse" id="color-7"><stop offset="0" stop-color="#bc041a"/><stop offset="1" stop-color="#a90216"/></linearGradient><radialGradient cx="476.50703" cy="181.40628" r="56.81912" gradientUnits="userSpaceOnUse" id="color-8"><stop offset="0" stop-color="#fff343"/><stop offset="1" stop-color="#fff343" stop-opacity="0"/></radialGradient><linearGradient x1="443.12874" y1="139.13107" x2="431.55004" y2="210.94973" gradientUnits="userSpaceOnUse" id="color-9"><stop offset="0" stop-color="#fff01b"/><stop offset="1" stop-color="#ffa30a"/></linearGradient><linearGradient x1="479.27255" y1="172.52047" x2="476.76201" y2="188.09251" gradientUnits="userSpaceOnUse" id="color-10"><stop offset="0" stop-color="#000000"/><stop offset="1" stop-color="#674205"/></linearGradient><linearGradient x1="466.1831" y1="170.33751" x2="463.67256" y2="185.90957" gradientUnits="userSpaceOnUse" id="color-11"><stop offset="0" stop-color="#000000"/><stop offset="1" stop-color="#674205"/></linearGradient></defs><g transform="translate(-176.79453,-104.07809)"><g data-paper-data="{&quot;isPaintingLayer&quot;:true}" fill-rule="nonzero" stroke-linejoin="miter" stroke-miterlimit="10" stroke-dasharray="" stroke-dashoffset="0" style="mix-blend-mode: normal"><path d="M181.10962,406.07509l110.8863,-298.997h440.4743l5.5,298.00694z" data-paper-data="{&quot;index&quot;:null}" fill="none" stroke="url(#color-1)" stroke-width="6" stroke-linecap="round"/><path d="M181.10962,406.07509l110.8863,-298.997h439.4743l4,298.00694z" data-paper-data="{&quot;index&quot;:null}" fill="url(#color-2)" stroke="#000000" stroke-width="0" stroke-linecap="round"/><text transform="translate(254.06756,373.6198) scale(3.18197,3.18197)" font-size="16.9333" xml:space="preserve" fill="#ffffff" fill-rule="nonzero" stroke="#3a1c4f" stroke-width="3" stroke-linecap="butt" stroke-linejoin="miter" stroke-miterlimit="10" stroke-dasharray="" stroke-dashoffset="0" font-family="&quot;New Super Mario Font U&quot;" font-weight="400" text-anchor="start" style="mix-blend-mode: normal"><tspan x="0" dy="0">Load Game</tspan></text><text transform="translate(254.06756,373.6198) scale(3.18197,3.18197)" font-size="16.9333" xml:space="preserve" fill="#ffffff" fill-rule="nonzero" stroke="none" stroke-width="1" stroke-linecap="butt" stroke-linejoin="miter" stroke-miterlimit="10" stroke-dasharray="" stroke-dashoffset="0" font-family="&quot;New Super Mario Font U&quot;" font-weight="400" text-anchor="start" style="mix-blend-mode: normal"><tspan x="0" dy="0">Load Game</tspan></text><g><g data-paper-data="{&quot;origRot&quot;:0}"><g data-paper-data="{&quot;origPos&quot;:null,&quot;index&quot;:null,&quot;origRot&quot;:0}" stroke="none" stroke-width="0" stroke-linecap="butt"><path d="M401.88559,236.65708c-2.63071,-4.5582 2.93481,-13.44064 11.28166,-18.25793c8.34685,-4.81728 17.00052,-8.14993 17.00052,-8.14993l8.05151,13.58823c0,0 -12.13063,9.13046 -18.84408,13.00505c-8.34685,4.81728 -14.85889,4.37277 -17.48962,-0.18544z" data-paper-data="{&quot;origRot&quot;:0,&quot;origPos&quot;:null}" fill="#ff0021"/><g data-paper-data="{&quot;origPos&quot;:null}" fill="#ffffff"><path d="M438.889,215.2461c-5.01051,-7.82947 -10.77537,-17.79457 -2.22783,-22.58486c6.2009,-3.47518 19.85555,-0.55875 22.99712,8.18978c3.42818,9.54663 8.01313,17.50933 -2.04957,21.96121c-9.39588,4.15687 -13.70918,0.26334 -18.71971,-7.56612z" data-paper-data="{&quot;origRot&quot;:0,&quot;origPos&quot;:null}"/><path d="M431.68591,218.35348c-3.86046,-6.0499 -9.44499,-12.19953 -4.56758,-14.79091c5.45635,-2.89896 6.15096,-1.12664 12.21525,8.91564c6.90834,11.44005 10.04693,11.93083 4.22108,15.39922c-3.4019,2.02531 -8.0083,-3.47408 -11.86876,-9.52397z" data-paper-data="{&quot;origRot&quot;:0,&quot;origPos&quot;:null}"/></g></g><g data-paper-data="{&quot;origPos&quot;:null,&quot;origRot&quot;:0}" stroke="none" stroke-width="0" stroke-linecap="butt"><path d="M402.34801,289.69375c-2.46198,3.79524 0.62286,8.23597 -0.10359,8.96218c-2.93928,2.93822 -6.22002,4.12625 -12.85746,1.6766c-8.22195,-3.03443 -13.24253,-7.39041 -16.73362,-15.4291c-2.37774,-5.47505 16.75477,-12.4393 16.75477,-12.4393c0,0 -19.40505,-8.19362 -19.71041,-8.78625c-2.48979,-4.83239 5.6393,-9.73892 12.97738,-12.19869c7.33808,-2.45977 31.2203,0.79703 32.71969,11.74503c1.84798,13.49329 -7.35559,17.69637 -13.04676,26.46952z" data-paper-data="{&quot;origPos&quot;:null}" fill="#004bd6"/><path d="M395.12864,311.62936c-2.27458,3.11831 -6.51938,2.27296 -10.12937,0.90712c-2.36579,-0.89508 -11.71795,-8.14525 -14.43405,-14.38171c-0.84322,-1.93614 -0.61097,-4.76573 -0.61097,-4.76573c0,0 -4.4719,-2.33117 -3.61041,-3.48792c0.68387,-0.91827 1.8095,-2.51033 3.05591,-2.33658c5.36518,0.74782 14.49991,7.41847 18.87639,10.61078c6.00791,4.38234 9.07589,10.4059 6.85249,13.45403z" data-paper-data="{&quot;origPos&quot;:null}" fill="#f9c869"/><path d="M399.49323,308.81177c-3.75547,2.85272 -9.31164,2.79706 -16.10368,-2.15723c-6.79203,-4.95429 -11.18432,-14.1935 -11.18432,-14.1935c0,0 -5.10599,-3.32785 -4.28525,-4.66198c1.69872,-2.76132 4.7594,-7.05607 5.84931,-6.47447c4.02363,2.14706 2.97439,2.13852 8.4894,4.5985c3.57071,1.59273 10.87852,2.41342 14.0373,4.71751c6.79203,4.95429 9.38066,13.47412 3.19723,18.17118z" data-paper-data="{&quot;origPos&quot;:null}" fill="url(#color-3)"/></g><g data-paper-data="{&quot;origPos&quot;:null,&quot;origRot&quot;:0}" stroke="none" stroke-width="0" stroke-linecap="butt"><path d="M365.72669,285.04128c-2.85585,3.50845 -0.26646,8.25519 -1.06682,8.89906c-3.23821,2.60509 -6.6277,3.4334 -12.96319,0.28414c-7.84793,-3.90105 -12.37093,-8.77169 -14.97727,-17.13919c-1.77514,-5.699 3.32981,-4.58624 8.57147,-7.44187c1.88085,-1.02468 4.04622,-2.63281 8.01824,-6.26501c4.96605,-4.5412 16.56108,-10.82937 16.56108,-10.82937c0,0 5.59497,5.00559 8.65375,9.01924c2.41396,3.16752 5.36944,9.38165 5.36944,9.38165c0,0 -11.56503,5.98113 -18.16668,14.09135z" data-paper-data="{&quot;origPos&quot;:null}" fill="#004bd6"/><path d="M356.19015,306.07332c-2.59673,2.85562 -6.72602,1.55866 -10.16818,-0.18748c-2.25581,-1.14432 -10.77403,-9.35821 -12.80368,-15.85058c-0.63011,-2.0156 -0.09491,-4.8038 -0.09491,-4.8038c0,0 -4.19526,-2.79856 -3.21437,-3.85597c0.77866,-0.83939 2.06898,-2.30117 3.28947,-1.99439c5.25364,1.32048 13.61801,8.93482 17.62577,12.57929c5.50178,5.00303 7.90416,11.3216 5.36586,14.11295z" data-paper-data="{&quot;origPos&quot;:null}" fill="#f9c869"/><path d="M360.83243,303.74148c-4.04046,2.43229 -9.55844,1.77943 -15.77828,-3.87656c-6.21984,-5.65598 -9.59303,-15.31398 -9.59303,-15.31398c0,0 -4.71849,-3.85767 -3.75902,-5.09579c1.98583,-2.56262 5.49061,-6.5033 6.51166,-5.80787c3.76939,2.56732 2.72716,2.44599 7.94563,5.48481c3.3787,1.96749 10.55589,3.56934 13.44855,6.19977c6.21984,5.65598 7.8772,14.4048 1.2245,18.40964z" data-paper-data="{&quot;origPos&quot;:null}" fill="url(#color-4)"/></g><g data-paper-data="{&quot;origPos&quot;:null}"><path d="M411.26032,250.80078c-4.91929,20.38131 -19.36231,22.77778 -33.91164,18.98004c-14.54932,-3.79774 -24.02548,-16.54238 -21.48445,-26.27718c2.75659,-10.56065 6.21407,-18.63776 16.11396,-23.23325c7.37571,-3.42377 15.5112,1.20063 23.37919,3.25436c14.54932,3.79774 20.72495,7.29779 15.90294,27.27603z" data-paper-data="{&quot;origPos&quot;:null}" fill="url(#color-5)" stroke="none" stroke-width="0" stroke-linecap="butt"/><path d="M411.41033,250.22601c0,0 -17.01901,-2.39593 -28.76412,-5.05241c-10.77309,-2.43663 -20.60811,-8.8582 -20.60811,-8.8582c0,0 2.5046,-13.46234 11.48196,-16.60802c5.87363,-2.05812 11.77958,-1.6926 19.04301,0.01829c7.26345,1.7109 14.53274,5.98223 17.39804,9.87453c6.76811,9.19413 1.44922,20.62577 1.44922,20.62577z" data-paper-data="{&quot;origPos&quot;:null}" fill="#ff0021" stroke="none" stroke-width="0" stroke-linecap="butt"/><path d="M403.38043,226.53101c0,0 0.33989,7.08789 -0.27493,11.13585c-0.7897,5.1993 -4.35848,14.42406 -4.35848,14.42406" data-paper-data="{&quot;origPos&quot;:null,&quot;origRot&quot;:0}" fill="none" stroke="#0052ef" stroke-width="10" stroke-linecap="round"/><path d="M382.64962,221.64025c0,0 -0.57745,7.07251 -1.7094,11.00731c-1.45391,5.05395 -6.18307,13.74116 -6.18307,13.74116" data-paper-data="{&quot;origPos&quot;:null}" fill="none" stroke="#0052ef" stroke-width="10" stroke-linecap="round"/><path d="M371.97517,243.71841c0.5662,-2.16916 2.78367,-3.46863 4.95285,-2.90242c2.16916,0.5662 3.46863,2.78367 2.90242,4.95285c-0.5662,2.16916 -2.78367,3.46863 -4.95285,2.90242c-2.16916,-0.5662 -3.46863,-2.78367 -2.90242,-4.95285z" data-paper-data="{&quot;origPos&quot;:null}" fill="#ffe84f" stroke="none" stroke-width="0" stroke-linecap="butt"/><path d="M395.73258,249.91968c0.5662,-2.16916 2.78367,-3.46863 4.95285,-2.90242c2.16916,0.5662 3.46863,2.78367 2.90242,4.95285c-0.5662,2.16916 -2.78367,3.46863 -4.95285,2.90242c-2.16916,-0.5662 -3.46863,-2.78367 -2.90242,-4.95285z" data-paper-data="{&quot;origPos&quot;:null}" fill="#ffe84f" stroke="none" stroke-width="0" stroke-linecap="butt"/></g><g data-paper-data="{&quot;origPos&quot;:null,&quot;origRot&quot;:0}" stroke="none" stroke-width="0" stroke-linecap="butt"><path d="M358.62744,251.58856l-14.97527,5.02079c0,0 -2.74396,-6.07314 -5.91208,-15.17475c-3.16813,-9.10162 5.46489,-22.4694 10.43527,-24.19949c4.97037,-1.7301 21.21985,-5.09155 24.38799,4.01005c0,0 -3.70426,11.82045 -6.79305,13.18649c-2.95988,1.30901 -9.04331,1.53295 -9.04331,1.53295z" data-paper-data="{&quot;origRot&quot;:0,&quot;origPos&quot;:null}" fill="#ff0021"/><g data-paper-data="{&quot;origPos&quot;:null}" fill="#ffffff"><path d="M372.63123,265.03819c4.70554,9.94661 -3.96915,12.97588 -12.80369,17.95999c-8.09595,4.56744 -20.33611,-2.15068 -22.75745,-8.83389c-3.33766,-9.21232 7.53881,-12.98579 16.44848,-15.63606c8.90966,-2.65027 14.71896,-2.77753 19.11267,6.50995z" data-paper-data="{&quot;origRot&quot;:0,&quot;origPos&quot;:null}"/><path d="M365.30601,252.01852c2.14194,6.43294 -0.55415,4.75283 -13.26012,8.8951c-11.15355,3.63616 -12.83771,4.52341 -15.0722,-1.23704c-1.9974,-5.14924 6.24865,-6.15301 13.12472,-8.20824c6.87608,-2.05521 13.95685,-3.20621 15.20758,0.55016z" data-paper-data="{&quot;origRot&quot;:0,&quot;origPos&quot;:null}"/></g></g><g data-paper-data="{&quot;origPos&quot;:null}"><path d="M428.88665,166.61983c0.36266,3.78007 -9.36319,11.1086 -17.92275,13.24197c-6.8973,1.71906 -6.80496,-5.19629 -7.67771,-8.698c-0.87275,-3.50171 12.83451,-6.10682 19.7318,-7.82587c6.8973,-1.71906 5.63393,0.8351 5.86868,3.2819z" data-paper-data="{&quot;origPos&quot;:null}" fill="url(#color-6)" stroke="none" stroke-width="0" stroke-linecap="butt"/><path d="M368.32291,223.45932c0,0 -1.35313,1.53164 -3.48963,0.66829c-2.13651,-0.86334 -4.20448,-3.57575 -1.94764,-5.67976c2.6994,-2.51659 0.43169,-8.15285 2.56819,-7.28953c0,0 7.19308,-0.7503 8.42217,1.89593c0,0 4.93154,7.2974 4.05062,8.88079c0,0 -1.39521,1.69645 -5.91044,2.59784c-2.44641,0.48839 -3.69328,-1.07356 -3.69328,-1.07356z" data-paper-data="{&quot;origRot&quot;:0,&quot;origPos&quot;:null}" fill="#5a2c0a" stroke="none" stroke-width="0" stroke-linecap="butt"/><path d="M363.7077,185.19466c4.3854,-0.06542 35.25901,-11.00018 40.90203,-12.07806c8.34875,-1.5947 7.92472,6.40556 10.55646,14.48756c3.02592,9.29256 10.69659,11.95593 9.59773,21.66676c-0.42366,3.74407 -2.8505,6.25302 -5.15856,9.23135c-1.30934,1.68959 -5.54545,4.06966 -15.85624,6.86588c-14.57491,3.95263 -19.31992,2.61587 -26.50718,-0.48217c-4.56372,-1.96716 -3.92546,-6.53706 -8.12676,-10.39473c-1.28786,-1.18251 -2.58481,-1.66129 -2.77169,-1.61471c-9.96253,2.48304 -17.49042,-4.3815 -19.42986,-12.16308c-1.93946,-7.78158 0.04375,-14.97595 5.61465,-16.36441c5.57091,-1.38847 9.6546,0.86836 11.17945,0.8456z" data-paper-data="{&quot;origPos&quot;:null}" fill="#ffdebd" stroke="none" stroke-width="0" stroke-linecap="butt"/><path d="M411.24247,178.65952c1.50904,4.61219 0.41529,9.10924 -2.44297,10.04441c-2.85826,0.93519 -6.39865,-2.04563 -7.9077,-6.65781c-1.50904,-4.61219 -0.41529,-9.10923 2.44297,-10.04441c2.85826,-0.93519 6.39865,2.04562 7.90771,6.6578z" data-paper-data="{&quot;origPos&quot;:null,&quot;origRot&quot;:0}" fill="#ffffff" stroke="none" stroke-width="0" stroke-linecap="butt"/><path d="M375.58146,190.21792c0.62456,2.50589 4.47588,5.43906 2.4953,7.09644c-2.30406,1.92806 -4.08583,0.49845 -4.08583,0.49845c0,0 0.93663,1.37434 -2.40993,2.90595c-2.48597,1.13776 -4.75398,-4.10227 -5.81186,-8.34677c-1.05789,-4.2445 -2.09867,-8.35209 0.52796,-9.11061c11.05897,-3.19359 8.22649,2.71205 9.28438,6.95653z" data-paper-data="{&quot;origPos&quot;:null}" fill="#5a2c0a" stroke="none" stroke-width="0" stroke-linecap="butt"/><path d="M399.92977,186.58564c1.71408,4.53997 0.82283,9.0815 -1.99068,10.14374c-2.81351,1.06225 -6.48387,-1.75701 -8.19794,-6.29699c-1.71408,-4.53997 -0.82283,-9.0815 1.99068,-10.14374c2.81351,-1.06225 6.48387,1.75701 8.19794,6.29699z" data-paper-data="{&quot;origPos&quot;:null,&quot;origRot&quot;:0}" fill="#ffffff" stroke="none" stroke-width="0" stroke-linecap="butt"/><path d="M393.7642,184.52388c0.91455,-0.22795 1.90907,0.23333 2.77813,1.16155c0.86809,0.92846 1.61101,2.32484 2.02069,3.96854c0.40967,1.64371 0.40902,3.22541 0.0782,4.45267c-0.33177,1.22751 -0.99346,2.10157 -1.90802,2.32951c-0.91455,0.22795 -1.90907,-0.23333 -2.77813,-1.16155c-0.86809,-0.92846 -1.61101,-2.32484 -2.02069,-3.96854c-0.40967,-1.64371 -0.40902,-3.22541 -0.0782,-4.45267c0.33177,-1.22751 0.99346,-2.10157 1.90802,-2.32951z" data-paper-data="{&quot;origPos&quot;:null}" fill="#000000" stroke="none" stroke-width="1" stroke-linecap="butt"/><path d="M405.49915,177.60848c0.91455,-0.22795 1.90907,0.23333 2.77813,1.16155c0.86809,0.92846 1.43984,2.60421 2.02069,3.96854c0.20878,0.49793 0.54061,1.21518 0.28689,1.76512c-0.32586,0.66995 -1.02639,1.12617 -1.65796,1.5356c-1.14435,0.5505 -2.39163,1.65418 -3.6028,1.30608c-1.06687,-0.3259 -1.36691,-1.84081 -1.65472,-2.95471c-0.37188,-1.43885 -0.40902,-3.22541 -0.0782,-4.45267c0.33177,-1.22751 0.99346,-2.10157 1.90802,-2.32951z" data-paper-data="{&quot;origPos&quot;:null}" fill="#000000" stroke="none" stroke-width="1" stroke-linecap="round"/><path d="M408.86467,144.03493c5.88047,13.78301 3.30894,15.29109 -3.25923,21.80981c-9.57035,9.49832 -24.6103,11.80684 -35.31956,19.9996c-2.81197,2.15119 -11.67339,0.83592 -15.10875,1.69214c-7.0263,1.75122 -12.24248,-2.28231 -14.02358,-8.19123c-3.9287,-13.0337 2.55504,-14.70405 9.58134,-16.45526c0,0 8.0521,-0.6456 11.74558,2.79114c0,0 6.39495,-20.18349 17.19564,-25.17201c13.90352,-6.42163 24.9656,-6.37222 29.18855,3.5258z" data-paper-data="{&quot;origPos&quot;:null}" fill="#ff0021" stroke="none" stroke-width="0" stroke-linecap="butt"/><path d="M408.12579,152.9179c1.30913,5.25257 0.88844,9.55464 -9.34975,12.4317c-10.80823,3.03726 -12.78141,-1.33695 -14.09055,-6.58951c-1.30913,-5.25257 2.87689,-10.81843 9.34975,-12.4317c6.47285,-1.61328 12.78141,1.33695 14.09055,6.58951z" data-paper-data="{&quot;origPos&quot;:null}" fill="#ffffff" stroke="none" stroke-width="0" stroke-linecap="butt"/><path d="M428.76811,164.50665c0.01342,0.8726 -36.23907,15.66435 -46.47795,19.44067c-4.97623,1.83535 -15.42881,4.00713 -15.44221,3.13454c-0.0496,-3.2257 0.72045,-8.59228 5.21888,-11.40214c5.43612,-3.39558 24.4545,-13.62515 39.69765,-17.17774c6.23132,-1.45227 16.95406,2.77899 17.00365,6.00467z" data-paper-data="{&quot;origPos&quot;:null}" fill="url(#color-7)" stroke="none" stroke-width="0" stroke-linecap="butt"/><path d="M389.70615,163.34735l1.56787,-13.47383l5.65249,4.65039l1.34513,-5.75283l7.53705,8.40875l-2.9857,2.99898l-3.28764,-6.97682l-1.49015,5.13503l-4.5545,-3.65086l0.34144,7.63289z" data-paper-data="{&quot;origPos&quot;:null}" fill="#ff0021" stroke="none" stroke-width="0" stroke-linecap="butt"/><path d="M424.23542,209.75108c0.25366,2.53698 -1.28972,4.22527 -2.58461,4.94799c-3.95209,2.20579 -10.16761,3.57707 -14.68829,3.35789c-2.59813,-0.12595 -3.0307,-1.67865 -3.31852,-1.83905c-0.30409,-0.16946 -2.47776,2.21631 -5.61892,2.99922c-5.04033,1.25624 -9.4112,-1.42694 -10.6509,-6.40095c-1.35942,-5.45436 -1.6415,-8.60327 -0.8602,-8.96467c4.55035,-2.10485 7.02362,1.75171 11.18996,2.81891c0,0 13.28659,0.98162 18.94167,-0.77485c0,0 8.17959,-6.64145 11.09706,-7.1668c1.44693,-0.26053 2.19969,2.72005 2.12614,4.33856c0,0 1.17172,4.07848 -0.54748,5.6688c-4.06506,3.76032 -5.15928,0.28072 -5.08588,1.01494z" data-paper-data="{&quot;origPos&quot;:null}" fill="#38291e" stroke="none" stroke-width="0" stroke-linecap="butt"/><path d="M425.80823,193.03359c1.10425,6.47742 3.74677,10.4175 -10.12501,13.61976c-6.39338,1.47589 -13.50795,-0.97691 -14.91295,-6.61412c-1.40501,-5.63723 3.00212,-14.12521 9.2264,-16.20174c9.06916,-3.02563 14.04492,-1.16683 15.81157,9.19609z" data-paper-data="{&quot;origPos&quot;:null}" fill="#ffdebd" stroke="none" stroke-width="0" stroke-linecap="butt"/><g data-paper-data="{&quot;origPos&quot;:null}" fill="none" stroke="#f6b09a" stroke-width="3.5" stroke-linecap="round"><path d="M352.00444,195.04471c0,0 2.43256,-2.37144 6.77651,-0.46508c6.22994,2.73404 4.87954,10.38715 4.87954,10.38715" data-paper-data="{&quot;origPos&quot;:null}"/><path d="M356.21958,200.84501l5.764,-1.43661" data-paper-data="{&quot;origPos&quot;:null}"/><path d="M361.63614,205.61709l1.23513,-0.30785" data-paper-data="{&quot;origPos&quot;:null}"/></g><path d="M388.12901,178.66318c-1.22341,0.72353 -1.1143,0.89467 -1.45156,2.27543c-0.34793,1.42445 -1.34396,3.3955 -1.34396,3.3955c0,0 -2.26942,-3.13523 -2.91407,-5.72172c-0.43771,-1.7562 -0.24633,-5.05501 2.30754,-6.34359c9.0794,-2.59034 8.50205,6.7079 8.50205,6.7079c0,0 -3.82495,-1.11104 -5.10001,-0.3135z" data-paper-data="{&quot;origPos&quot;:null}" fill="#38291e" stroke="none" stroke-width="0" stroke-linecap="butt"/><path d="M404.03901,171.83464c-1.43542,0.44874 -3.08194,4.07555 -3.08194,4.07555c0,0 -7.43421,-5.61456 0.44252,-10.82058c2.64064,-1.09985 5.26939,0.90228 6.31759,2.37776c1.54378,2.17307 2.44644,5.93672 2.44644,5.93672c0,0 -2.14461,-0.527 -3.45242,-1.19016c-1.26769,-0.64281 -1.32657,-0.83704 -2.67221,-0.37934z" data-paper-data="{&quot;origPos&quot;:null,&quot;index&quot;:null,&quot;origRot&quot;:0}" fill="#38291e" stroke="none" stroke-width="0" stroke-linecap="butt"/></g></g><g stroke="none"><path d="M435.30172,166.44776l-1.19674,-2.19419l1.95532,-3.79274l2.48272,-0.65296l23.87742,3.84955l14.36757,-22.43642l2.63169,-1.57696l2.30069,0.47612l2.47328,2.6107l7.4936,25.32895l24.246,3.4877l2.18635,1.82712l1.53345,2.66986l-2.59274,3.90054l-16.43433,14.09811l0.04108,25.39136l-0.42754,3.93355l-2.73378,0.92853l-4.30066,-1.53588l-20.52401,-20.16194l-22.72601,15.29571l-4.56532,0.10663l-2.9427,-2.26511l-0.33022,-5.00373l6.02474,-22.6229z" data-paper-data="{&quot;origPos&quot;:null}" fill="url(#color-8)" stroke-width="1.43627" stroke-linecap="round"/><path d="M439.79819,168.40144l-1.07693,-1.93234l1.74015,-3.32973l2.22063,-0.56763l21.38316,3.44742l12.80167,-19.68993l2.35156,-1.37974l2.06063,0.42478l2.2208,2.30202l6.77403,22.29057l21.71214,3.1302l1.96176,1.61217l1.3796,2.35153l-2.31056,3.42289l-14.67366,12.35283l0.10343,22.32589l-0.37232,3.45769l-2.4447,0.80919l-3.85355,-1.36179l-18.42426,-17.78148l-20.30219,13.38937l-4.08627,0.08172l-2.63985,-1.99933l-0.30874,-4.40056l5.33334,-19.87562z" data-paper-data="{&quot;origPos&quot;:null}" fill="url(#color-9)" stroke-width="1.27408" stroke-linecap="round"/><g data-paper-data="{&quot;origPos&quot;:null}" stroke-width="2.7674"><path d="M482.4576,173.03543c1.00072,0.12196 1.85913,1.10505 2.11296,2.18772c0.46035,1.96487 0.18759,4.17498 -0.19988,6.2178c-0.3443,1.88776 -0.96082,3.7973 -1.95589,5.37452c-0.57437,0.9272 -1.50605,1.95431 -2.46749,1.7906c-0.92588,-0.158 -1.59964,-1.00204 -1.90152,-2.37246c-0.3885,-1.7346 -0.38141,-3.73804 -0.01141,-6.03303c0.37002,-2.29513 0.90971,-4.1338 1.90685,-5.72377c0.65575,-1.04981 1.67676,-1.61611 2.51639,-1.44137z" fill="url(#color-10)" stroke-linecap="round"/><path d="M482.41777,174.26677c0.51327,0.08275 0.93625,0.40917 1.20716,0.86858c0.27089,0.45955 0.38968,1.05212 0.28996,1.67061c-0.09971,0.6185 -0.39873,1.1437 -0.80028,1.4947c-0.40159,0.35114 -0.90572,0.52808 -1.41899,0.44533c-0.51313,-0.08273 -0.93625,-0.40917 -1.20713,-0.86872c-0.27091,-0.45942 -0.38956,-1.05194 -0.28985,-1.67045c0.09971,-0.6185 0.39859,-1.14372 0.80016,-1.49486c0.40157,-0.351 0.90583,-0.52792 1.41896,-0.4452z" fill="#ffffff" stroke-linecap="butt"/></g><g data-paper-data="{&quot;origPos&quot;:null}" stroke-width="2.7674"><path d="M469.36815,170.85246c1.00072,0.12196 1.85913,1.10505 2.11296,2.18772c0.46035,1.96487 0.18759,4.17498 -0.19988,6.2178c-0.3443,1.88776 -0.96082,3.7973 -1.95589,5.37452c-0.57437,0.9272 -1.50605,1.95431 -2.46749,1.7906c-0.92588,-0.158 -1.59964,-1.00204 -1.90152,-2.37246c-0.3885,-1.7346 -0.38141,-3.73804 -0.01141,-6.03303c0.37002,-2.29513 0.90971,-4.1338 1.90685,-5.72377c0.65575,-1.04981 1.67676,-1.61611 2.51639,-1.44137z" fill="url(#color-11)" stroke-linecap="round"/><path d="M469.41056,172.02442c0.51327,0.08275 0.93625,0.40917 1.20716,0.86858c0.27089,0.45955 0.38968,1.05212 0.28996,1.67061c-0.09971,0.6185 -0.39873,1.1437 -0.80028,1.4947c-0.40159,0.35114 -0.90572,0.52808 -1.41899,0.44533c-0.51313,-0.08273 -0.93625,-0.40917 -1.20713,-0.86872c-0.27091,-0.45942 -0.38956,-1.05194 -0.28985,-1.67045c0.09971,-0.6185 0.39859,-1.14372 0.80016,-1.49486c0.40157,-0.351 0.90583,-0.52792 1.41896,-0.4452z" fill="#ffffff" stroke-linecap="butt"/></g></g></g></g></g></svg>