<svg version="1.1" xmlns="http://www.w3.org/2000/svg" xmlns:xlink="http://www.w3.org/1999/xlink" width="437" height="90.79587" viewBox="0,0,437,90.79587"><defs><linearGradient x1="239.96077" y1="135.56279" x2="239.96077" y2="224.35867" gradientUnits="userSpaceOnUse" id="color-1"><stop offset="0" stop-color="#ffffff"/><stop offset="1" stop-color="#d8d8d8"/></linearGradient><linearGradient x1="239.96077" y1="135.5628" x2="239.96077" y2="224.35867" gradientUnits="userSpaceOnUse" id="color-2"><stop offset="0" stop-color="#343434"/><stop offset="1" stop-color="#090909"/></linearGradient><radialGradient cx="443.76727" cy="206.50539" r="17.9081" gradientUnits="userSpaceOnUse" id="color-3"><stop offset="0" stop-color="#ffffff"/><stop offset="1" stop-color="#e5e5e5"/></radialGradient></defs><g transform="translate(-21.46077,-134.5628)"><g data-paper-data="{&quot;isPaintingLayer&quot;:true}" fill-rule="nonzero" stroke-linejoin="miter" stroke-miterlimit="10" stroke-dasharray="" stroke-dashoffset="0" style="mix-blend-mode: normal"><path d="M22.46077,224.35867v-88.79587h435v88.79587z" data-paper-data="{&quot;origPos&quot;:null}" fill="url(#color-1)" stroke="url(#color-2)" stroke-width="2" stroke-linecap="butt"/><g data-paper-data="{&quot;origPos&quot;:null}"><path d="M444.26657,202.0594c2.5136,0 4.7909,1.0212 6.4406,2.6702c1.6489,1.6496 2.6702,3.9269 2.6702,6.4405c0,2.5136 -1.0213,4.791 -2.6702,6.4406c-1.6497,1.649 -3.927,2.6702 -6.4406,2.6702c-2.5136,0 -4.7909,-1.0212 -6.4406,-2.6702c-1.6489,-1.6496 -2.6701,-3.927 -2.6701,-6.4406c0,-2.5136 1.0212,-4.7909 2.6701,-6.4405c1.6497,-1.649 3.927,-2.6702 6.4406,-2.6702z" fill="url(#color-3)" stroke="#000000" stroke-width="2.0785" stroke-linecap="butt"/><path d="M441.23416,206.50959l5.6119,0.4503l1.7321,3.187l-3.6374,2.9446l3.3603,-0.5197l0.7967,3.4642l-7.4479,-0.0693l-1.9053,-2.4249l4.6766,-3.3256l-4.5727,-0.3464z" fill="#000000" stroke="none" stroke-width="0.69283" stroke-linecap="round"/></g><path d="M36.15289,149.48008c2.45803,0.54894 3.82426,0.86304 4.09873,0.94234v0.06403c-0.0854,2.20184 -0.14944,3.4827 -0.19212,3.84256c0.14027,0 0.77157,0.14639 1.89383,0.43914c1.00638,-3.10454 1.55227,-4.65681 1.63767,-4.65681c1.68342,0.75632 2.75384,1.2595 3.21129,1.50958v0.06403c-1.8481,4.30001 -2.89716,6.67264 -3.14724,7.11789c-0.46354,0.38425 -2.07986,1.85418 -4.84895,4.4098h-0.06405l-5.10511,-2.51597c0.46965,-0.8051 1.03688,-1.72916 1.70171,-2.77213c0.0305,0 0.82951,0.52454 2.39703,1.57362h0.06404c0.52454,-0.42695 1.15278,-1.03688 1.88469,-1.82978c0,-0.03659 -1.19547,-1.21071 -3.58639,-3.52237v-4.53788z" data-paper-data="{&quot;origPos&quot;:null}" fill="#000000" stroke="none" stroke-width="0.26458" stroke-linecap="butt"/><path d="M51.48654,152.25221c2.31773,0.62213 3.54676,1.00029 3.68703,1.13448c1.27475,1.80538 1.99142,2.84532 2.15001,3.1198c-0.82342,2.6105 -1.2961,3.91575 -1.41808,3.91575c-2.74469,0.64043 -4.18108,0.96064 -4.30916,0.96064c-2.26894,-1.32355 -3.47662,-2.06156 -3.62298,-2.21404c-0.07929,-2.46413 -0.11893,-3.82427 -0.11893,-4.08043c-0.03659,-0.07318 -0.0549,-0.12808 -0.0549,-0.1647c2.34213,-1.781 3.55285,-2.67149 3.63215,-2.67149zM51.31271,155.60073c-0.03659,0.24398 -0.09149,1.13143 -0.16468,2.66235l2.04022,0.45745c0.48794,-1.52483 0.73191,-2.33908 0.73191,-2.44277c-1.62241,-0.48794 -2.49157,-0.73192 -2.60745,-0.73192z" data-paper-data="{&quot;origPos&quot;:null}" fill="#000000" stroke="none" stroke-width="0.26458" stroke-linecap="butt"/><path d="M63.09657,152.24306l0.06405,0.11891l-1.23511,6.55066h0.06405l3.14723,-0.92405v-3.70533c0.0122,-0.08538 0.05185,-0.12806 0.11893,-0.12806c2.36653,0.16468 3.68399,0.24702 3.95236,0.24702c0,0.04268 0.02135,0.06403 0.06405,0.06403c0,1.04298 -0.32936,3.20519 -0.98809,6.48661c0,0.18907 -0.9454,0.3324 -2.83617,0.42999c-0.09759,-0.11589 -0.17994,-0.36291 -0.24702,-0.74106c-2.42142,0.49404 -3.80291,0.74106 -4.14447,0.74106c-1.93348,-1.43943 -2.90022,-2.18051 -2.90022,-2.22319c0.32936,-4.32441 0.53674,-6.56895 0.62213,-6.73364h0.0549c1.54313,-0.04268 2.96426,-0.10367 4.26342,-0.18297z" data-paper-data="{&quot;origPos&quot;:null}" fill="#000000" stroke="none" stroke-width="0.26458" stroke-linecap="butt"/><path d="M78.43936,152.25221c2.7508,0.51844 4.19023,0.81426 4.31831,0.88746v0.10977c-0.59163,1.67122 -0.88744,2.53731 -0.88744,2.5983h-0.0549c-0.15248,0 -0.89049,-0.23787 -2.21404,-0.71362c-0.73802,1.23817 -1.10703,1.89993 -1.10703,1.98533l1.82979,1.77489c1.41503,-1.32964 2.13475,-1.99446 2.15915,-1.99446c1.10397,1.44553 1.65596,2.25674 1.65596,2.43362c-0.60383,0.34767 -1.65596,1.03079 -3.15638,2.04937c-2.90327,-0.62823 -4.47079,-0.97893 -4.70256,-1.05213l-1.43638,-4.64768z" data-paper-data="{&quot;origPos&quot;:null}" fill="#000000" stroke="none" stroke-width="0.26458" stroke-linecap="butt"/><path d="M86.44472,152.24306c3.62298,0.50014 5.43449,0.80815 5.43449,0.92404c1.42724,1.22595 2.14085,1.88163 2.14085,1.96702c-0.57943,1.81149 -0.90879,2.91242 -0.9881,3.30277c0.57943,1.28696 0.90879,2.05547 0.9881,2.30555c0,0.07318 -0.9454,0.26835 -2.83618,0.58552c-0.0244,-0.10369 -0.19823,-0.33546 -0.5215,-0.69531c-2.6105,0.50013 -4.01638,0.75021 -4.21767,0.75021l-1.39064,-3.76022l3.0649,-1.61937c0.49404,0.07927 1.26561,0.11891 2.31469,0.11891c0,-0.13419 0.01829,-0.53979 0.0549,-1.21682c-0.17688,0 -1.75659,0.11589 -4.73916,0.34767l-0.0549,-0.11892c0.41475,-1.92738 0.66483,-2.89107 0.75022,-2.89107zM88.3477,157.62265c0,0.06709 0.19518,0.7807 0.58553,2.14085h0.0549c0.76852,-0.50013 1.15277,-0.82949 1.15277,-0.98808l0.11894,-0.97895c-0.14639,0 -0.78375,-0.05793 -1.91212,-0.17382z" data-paper-data="{&quot;origPos&quot;:null}" fill="#000000" stroke="none" stroke-width="0.26458" stroke-linecap="butt"/><path d="M103.02263,152.24306l3.0466,2.09511c-0.21347,3.47661 -0.36291,5.50768 -0.44831,6.09321c-0.35376,0.04268 -1.43028,0.10673 -3.22957,0.19212l-0.06404,-0.12806l-0.32022,-4.88555l-0.12809,-0.06403c-1.16497,0.25008 -1.96703,0.43915 -2.40618,0.56724c0.12198,2.07986 0.18297,3.58334 0.18297,4.51042c-1.8176,0.50624 -2.81178,0.75937 -2.98255,0.75937c-1.18327,-5.2088 -1.7749,-7.9596 -1.7749,-8.25237c2.57391,-0.33545 3.97065,-0.50319 4.19023,-0.50319v0.06403c0.04269,0.03049 0.10674,0.66481 0.19212,1.90298c2.36043,-1.56752 3.60774,-2.35128 3.74192,-2.35128z" data-paper-data="{&quot;origPos&quot;:null}" fill="#000000" stroke="none" stroke-width="0.26458" stroke-linecap="butt"/><path d="M119.74692,152.24306l3.0466,2.09511c-0.21347,3.47661 -0.36291,5.50768 -0.44831,6.09321c-0.35376,0.04268 -1.43028,0.10673 -3.22957,0.19212l-0.06404,-0.12806l-0.32022,-4.88555l-0.12809,-0.06403c-1.16497,0.25008 -1.96703,0.43915 -2.40618,0.56724c0.12198,2.07986 0.18298,3.58334 0.18298,4.51042c-1.8176,0.50624 -2.81178,0.75937 -2.98256,0.75937c-1.18327,-5.2088 -1.77491,-7.9596 -1.77491,-8.25237c2.57391,-0.33545 3.97065,-0.50319 4.19023,-0.50319v0.06403c0.04269,0.03049 0.10674,0.66481 0.19212,1.90298c2.36043,-1.56752 3.60774,-2.35128 3.74192,-2.35128z" data-paper-data="{&quot;origPos&quot;:null}" fill="#000000" stroke="none" stroke-width="0.26458" stroke-linecap="butt"/><path d="M127.38631,152.25221c2.31773,0.62213 3.54675,1.00029 3.68703,1.13448c1.27475,1.80538 1.99143,2.84532 2.15001,3.1198c-0.82341,2.6105 -1.2961,3.91575 -1.41809,3.91575c-2.74469,0.64043 -4.18109,0.96064 -4.30916,0.96064c-2.26894,-1.32355 -3.4766,-2.06156 -3.62298,-2.21404c-0.0793,-2.46413 -0.11894,-3.82427 -0.11894,-4.08043c-0.0366,-0.07318 -0.0549,-0.12808 -0.0549,-0.1647c2.34213,-1.781 3.55284,-2.67149 3.63214,-2.67149zM127.21248,155.60073c-0.0366,0.24398 -0.09148,1.13143 -0.16468,2.66235l2.04021,0.45745c0.48794,-1.52483 0.73191,-2.33908 0.73191,-2.44277c-1.62241,-0.48794 -2.49157,-0.73192 -2.60744,-0.73192z" data-paper-data="{&quot;origPos&quot;:null}" fill="#000000" stroke="none" stroke-width="0.26458" stroke-linecap="butt"/><path d="M138.0723,152.24306c0.0793,0.10369 0.491,1.87248 1.23511,5.3064h0.06405c0,-0.07927 0.45134,-0.77765 1.35404,-2.09511c0.37816,0.25616 1.09788,0.81121 2.15916,1.66512h0.12809v-0.06403c0.16468,-2.37874 0.28666,-3.69619 0.36596,-3.95235c2.51292,0.12809 3.76937,0.23178 3.76937,0.31106c-1.15277,4.63547 -1.76879,7.04469 -1.8481,7.22768c-0.38425,0.04268 -1.18936,0.16467 -2.41532,0.36595c-1.00638,-1.57971 -1.58277,-2.42142 -1.72915,-2.52511c-0.65872,1.75661 -1.07043,2.72334 -1.23511,2.90022h-2.47022c-0.15248,-0.04879 -0.8722,-1.63461 -2.15916,-4.75746c-0.82341,-1.74439 -1.23511,-2.68979 -1.23511,-2.83618c0,-0.13419 1.33881,-0.64958 4.01639,-1.54617z" data-paper-data="{&quot;origPos&quot;:null}" fill="#000000" stroke="none" stroke-width="0.26458" stroke-linecap="butt"/><path d="M156.35191,152.24306c1.49434,3.4278 2.29029,5.20576 2.38787,5.33384c0.73802,-2.79957 1.16802,-4.29085 1.29002,-4.47384c2.32994,0.21347 3.4949,0.39645 3.4949,0.54894v0.06404c-1.63461,4.48909 -2.51292,6.84037 -2.6349,7.05384c-1.8054,0.32937 -3.01305,0.5337 -3.62298,0.61299l-4.47384,-6.62385v-0.12806c0.04269,-0.07927 1.22902,-0.87524 3.55895,-2.38788z" data-paper-data="{&quot;origPos&quot;:null}" fill="#000000" stroke="none" stroke-width="0.26458" stroke-linecap="butt"/><path d="M165.7662,148.57432l3.59554,0.56723c-0.45134,1.72611 -0.74717,2.58917 -0.88744,2.58917c-1.89079,-0.12809 -2.83617,-0.25313 -2.83617,-0.37511v-2.6532c0.01829,-0.08538 0.06099,-0.12806 0.1281,-0.12806zM164.75981,152.92924h0.0549c2.78129,0.50624 4.17192,0.80206 4.17192,0.88744c-0.79901,4.52568 -1.2839,7.04775 -1.45469,7.5662h-2.90022c-0.0854,0 -0.12809,-0.04269 -0.12809,-0.12807z" data-paper-data="{&quot;origPos&quot;:null}" fill="#000000" stroke="none" stroke-width="0.26458" stroke-linecap="butt"/><path d="M177.04686,152.24306c1.7566,1.12228 2.72639,1.7688 2.90936,1.93958c-0.63433,1.40894 -0.99724,2.11341 -1.08873,2.11341l-3.33022,-1.93043h-0.11893c0,0.06098 -0.14333,0.40254 -0.42999,1.02468c3.06795,1.65292 4.60192,2.50072 4.60192,2.54342c-0.86,1.98837 -1.3449,3.03745 -1.45469,3.14724l-5.20576,0.30192c-2.02498,-1.34185 -3.1137,-2.04936 -3.26618,-2.12256v-0.05488c0,-0.15248 0.30192,-0.83865 0.90575,-2.05851l4.06213,2.11341l0.30192,-1.20767c-2.51292,-1.12837 -4.00724,-1.83284 -4.48298,-2.11341v-0.12806c0,-0.23178 0.48489,-1.25952 1.45469,-3.08321z" data-paper-data="{&quot;origPos&quot;:null}" fill="#000000" stroke="none" stroke-width="0.26458" stroke-linecap="butt"/><path d="M182.12453,148.57432l3.59554,0.56723c-0.45134,1.72611 -0.74716,2.58917 -0.88744,2.58917c-1.89079,-0.12809 -2.83617,-0.25313 -2.83617,-0.37511v-2.6532c0.01829,-0.08538 0.06099,-0.12806 0.12809,-0.12806zM181.11815,152.92924h0.0549c2.78129,0.50624 4.17192,0.80206 4.17192,0.88744c-0.79901,4.52568 -1.2839,7.04775 -1.45469,7.5662h-2.90022c-0.0854,0 -0.1281,-0.04269 -0.1281,-0.12807z" data-paper-data="{&quot;origPos&quot;:null}" fill="#000000" stroke="none" stroke-width="0.26458" stroke-linecap="butt"/><path d="M188.75754,149.48008l4.02555,0.71361l-0.38426,3.05575c0.79901,-0.04268 1.38454,-0.06403 1.75659,-0.06403h0.58554l0.12809,-0.06403l0.06405,0.12806c-0.12809,1.85419 -0.23788,2.89718 -0.32936,3.12895l-0.12809,-0.07318c-0.09149,0 -0.9149,-0.04268 -2.47022,-0.12806c-0.0854,1.43334 -0.14944,3.14725 -0.19212,5.14172l-0.1281,0.06403c-1.96397,-0.12807 -3.13503,-0.23787 -3.5132,-0.32936l0.06404,-0.25617c0,-0.53064 0.0854,-2.17747 0.25617,-4.94045c-1.64681,-0.09147 -2.47022,-0.20125 -2.47022,-0.32935c0.0854,-2.03716 0.19518,-3.05575 0.32936,-3.05575l2.40617,0.45745v-0.78681c0,-0.64044 -0.0244,-1.50653 -0.07319,-2.5983c0.04879,0 0.07319,-0.02135 0.07319,-0.06404z" data-paper-data="{&quot;origPos&quot;:null}" fill="#000000" stroke="none" stroke-width="0.26458" stroke-linecap="butt"/><path d="M207.74162,149.48008c2.19576,1.11007 3.32414,1.6651 3.38513,1.6651c0,0.09756 -0.45745,0.97892 -1.37235,2.64405h-0.06403c-0.07318,0 -1.1253,-0.4971 -3.15638,-1.49128l-1.03383,1.38149c1.7505,0.84171 3.87609,1.9152 6.37681,3.22045c-1.13447,2.01887 -1.93956,3.36073 -2.41532,4.02553l-5.16916,0.45745c-2.36043,-1.59191 -3.60774,-2.41531 -3.74192,-2.47021v-0.06403c0,-0.17079 0.4788,-0.95455 1.43638,-2.35129h0.11893c0.37815,0.22567 1.56447,0.87525 3.55895,1.94873l1.20766,-1.37235c-3.66568,-1.86639 -5.69675,-2.92156 -6.09321,-3.16554v-0.05489c1.16497,-2.26894 1.79931,-3.41866 1.903,-3.44916c3.03135,-0.61604 4.7178,-0.92404 5.05936,-0.92404z" data-paper-data="{&quot;origPos&quot;:null}" fill="#2b70c2" stroke="none" stroke-width="0.26458" stroke-linecap="butt"/><path d="M216.94547,149.48008c0.03659,0.05488 0.20738,1.7261 0.51235,5.01362c2.35433,-0.71973 3.60774,-1.07958 3.76022,-1.07958l2.33299,1.59192c-0.37816,3.47661 -0.62518,5.50768 -0.74107,6.09322l-3.23872,0.10977c0,-0.03659 -0.02135,-0.05488 -0.06403,-0.05488l0.06403,-0.22873c0,-0.49404 0.07319,-1.99446 0.21957,-4.50128c-0.89051,-0.03659 -1.55228,-0.05489 -1.98533,-0.05489h-0.22872c0.26227,2.78739 0.39341,4.30611 0.39341,4.55618l-3.07405,0.45745c-0.11589,-0.39035 -0.79901,-4.03469 -2.04936,-10.93301c0,-0.19517 0.47574,-0.34767 1.42723,-0.45745c1.20156,-0.34156 2.09206,-0.51233 2.67149,-0.51233z" data-paper-data="{&quot;origPos&quot;:null}" fill="#2b70c2" stroke="none" stroke-width="0.26458" stroke-linecap="butt"/><path d="M225.6736,148.57432l3.59554,0.56723c-0.45136,1.72611 -0.74717,2.58917 -0.88746,2.58917c-1.89077,-0.12809 -2.83618,-0.25313 -2.83618,-0.37511v-2.6532c0.01829,-0.08538 0.06098,-0.12806 0.12807,-0.12806zM224.66721,152.92924h0.05488c2.78129,0.50624 4.17194,0.80206 4.17194,0.88744c-0.79901,4.52568 -1.28392,7.04775 -1.45469,7.5662h-2.90022c-0.08538,0 -0.12806,-0.04269 -0.12806,-0.12807z" data-paper-data="{&quot;origPos&quot;:null}" fill="#2b70c2" stroke="none" stroke-width="0.26458" stroke-linecap="butt"/><path d="M233.12998,152.24306c1.49434,3.4278 2.29029,5.20576 2.38789,5.33384c0.73802,-2.79957 1.16801,-4.29085 1.29,-4.47384c2.32994,0.21347 3.4949,0.39645 3.4949,0.54894v0.06404c-1.63461,4.48909 -2.5129,6.84037 -2.63491,7.05384c-1.80539,0.32937 -3.01305,0.5337 -3.62298,0.61299l-4.47384,-6.62385v-0.12806c0.04268,-0.07927 1.229,-0.87524 3.55894,-2.38788z" data-paper-data="{&quot;origPos&quot;:null}" fill="#2b70c2" stroke="none" stroke-width="0.26458" stroke-linecap="butt"/><path d="M246.46917,152.25221c2.76298,1.42114 4.29391,2.25065 4.59278,2.48852c-0.39646,1.85419 -0.63128,2.80873 -0.70447,2.86363h-5.78214v0.10062l1.61936,2.00362l2.54341,-1.29915c0.25008,0.43305 0.60993,1.18936 1.07958,2.26894c-0.21958,0.07318 -1.82064,0.30799 -4.80321,0.70447c-2.47021,-1.62852 -3.71447,-2.47632 -3.73277,-2.5434c0.39644,-3.16554 0.63127,-4.74831 0.70447,-4.74831c2.58001,-1.09787 4.07433,-1.71086 4.48299,-1.83895zM245.87448,154.46627c-0.04879,0.12199 -0.37204,0.60688 -0.96978,1.45468c0,0.25616 0.35985,0.38425 1.07958,0.38425c0,0.03659 0.5215,0.12504 1.56447,0.26533c0.28666,-0.39646 0.42999,-0.62824 0.42999,-0.69533c-0.09147,-0.54284 -0.2897,-0.81427 -0.59467,-0.81427z" data-paper-data="{&quot;origPos&quot;:null}" fill="#2b70c2" stroke="none" stroke-width="0.26458" stroke-linecap="butt"/><path d="M258.46346,152.24306c1.20765,0.67703 1.94873,1.11616 2.22319,1.31745c-0.98809,2.05546 -1.51871,3.10149 -1.59191,3.13809h-0.06404l-1.3083,-1.14363l-1.54618,1.8847l0.17384,3.43086c-0.07927,0.07318 -1.08871,0.24395 -3.02831,0.51233c-0.07318,-0.52453 -0.54892,-3.09539 -1.42725,-7.71258c0,-0.07318 1.27475,-0.26226 3.82426,-0.56723c0.04268,0.04879 0.15857,0.61908 0.34767,1.71086c1.52483,-1.71391 2.32384,-2.57085 2.39703,-2.57085z" data-paper-data="{&quot;origPos&quot;:null}" fill="#2b70c2" stroke="none" stroke-width="0.26458" stroke-linecap="butt"/><path d="M272.28752,149.48008c2.72639,1.06127 4.0896,1.62546 4.0896,1.69254c-0.87221,1.78101 -1.3083,2.7081 -1.3083,2.78129h-0.05489c-0.39035,-0.10978 -1.2473,-0.491 -2.57086,-1.14363l-2.17745,1.52788c0,1.89077 0.10674,2.83617 0.32023,2.83617c0.14028,0.07318 1.05212,0.43914 2.73553,1.09788c0.64651,-0.64043 1.3022,-1.2595 1.96703,-1.85723c0.12198,0.10978 0.66787,0.98198 1.63766,2.6166v0.16468c-0.06098,0 -1.40893,0.72887 -4.04385,2.1866c-3.36682,-1.12837 -5.09597,-1.72915 -5.18745,-1.80234l-1.63766,-5.40703c1.53701,-2.18354 2.32079,-3.27533 2.35128,-3.27533c0.06708,0 1.36013,-0.47269 3.87915,-1.41808z" data-paper-data="{&quot;origPos&quot;:null}" fill="#2b70c2" stroke="none" stroke-width="0.26458" stroke-linecap="butt"/><path d="M277.98733,149.48923c1.86639,0.03659 3.23568,0.05488 4.10789,0.05488c0.07927,0 0.3202,3.74497 0.72277,11.23491c-0.31107,0.07927 -1.39674,0.28055 -3.25704,0.60384c-0.09147,0 -0.39339,-2.29335 -0.90574,-6.88002c-0.04268,-0.10978 -0.26531,-1.78099 -0.66788,-5.01362z" data-paper-data="{&quot;origPos&quot;:null}" fill="#2b70c2" stroke="none" stroke-width="0.26458" stroke-linecap="butt"/><path d="M285.10522,148.57432l3.59554,0.56723c-0.45134,1.72611 -0.74715,2.58917 -0.88744,2.58917c-1.89077,-0.12809 -2.83617,-0.25313 -2.83617,-0.37511v-2.6532c0.01829,-0.08538 0.06098,-0.12806 0.12806,-0.12806zM284.09884,152.92924h0.05488c2.78127,0.50624 4.17192,0.80206 4.17192,0.88744c-0.79901,4.52568 -1.2839,7.04775 -1.45467,7.5662h-2.90022c-0.08538,0 -0.12806,-0.04269 -0.12806,-0.12807z" data-paper-data="{&quot;origPos&quot;:null}" fill="#2b70c2" stroke="none" stroke-width="0.26458" stroke-linecap="butt"/><path d="M292.80866,149.48008c0.32326,0.03659 1.50043,0.30801 3.5315,0.81425l0.05489,0.10976c-0.29886,1.66511 -0.47878,2.49767 -0.53979,2.49767h-0.05489l-1.47298,-0.75936c0,0.17077 -0.0549,0.93319 -0.16468,2.28723l2.01278,-0.49404c0.06097,0.18298 0.11587,0.99722 0.16467,2.44277c-0.19518,0.07318 -0.86611,0.18296 -2.01277,0.32936c0.25617,1.09788 0.52759,2.43972 0.81425,4.02554c-0.93929,0.21347 -2.06157,0.43 -3.36682,0.64958l-0.05489,-0.10977c-0.17079,-2.82398 -0.31412,-4.23598 -0.43001,-4.23598c-1.18327,0.28668 -1.81759,0.44831 -1.90297,0.48491c-0.07318,-0.35376 -0.20127,-1.3144 -0.38426,-2.88193l0.10977,-0.05489h1.95788c-0.10978,-0.9027 -0.27446,-2.07986 -0.49404,-3.53149z" data-paper-data="{&quot;origPos&quot;:null}" fill="#2b70c2" stroke="none" stroke-width="0.26458" stroke-linecap="butt"/><path d="M301.04272,149.48008c0.32326,0.03659 1.50043,0.30801 3.5315,0.81425l0.05489,0.10976c-0.29886,1.66511 -0.4788,2.49767 -0.53979,2.49767h-0.05489l-1.47298,-0.75936c0,0.17077 -0.0549,0.93319 -0.16468,2.28723l2.01278,-0.49404c0.06097,0.18298 0.11587,0.99722 0.16468,2.44277c-0.19518,0.07318 -0.86611,0.18296 -2.01277,0.32936c0.25617,1.09788 0.52759,2.43972 0.81426,4.02554c-0.93929,0.21347 -2.06156,0.43 -3.36681,0.64958l-0.05489,-0.10977c-0.17077,-2.82398 -0.31412,-4.23598 -0.43,-4.23598c-1.18325,0.28668 -1.81759,0.44831 -1.90298,0.48491c-0.07318,-0.35376 -0.20126,-1.3144 -0.38425,-2.88193l0.10976,-0.05489h1.95788c-0.10978,-0.9027 -0.27447,-2.07986 -0.49406,-3.53149z" data-paper-data="{&quot;origPos&quot;:null}" fill="#2b70c2" stroke="none" stroke-width="0.26458" stroke-linecap="butt"/><path d="M317.30956,149.48008c2.19575,1.11007 3.32412,1.6651 3.38511,1.6651c0,0.09756 -0.45745,0.97892 -1.37233,2.64405h-0.06403c-0.07318,0 -1.1253,-0.4971 -3.15638,-1.49128l-1.03384,1.38149c1.7505,0.84171 3.87611,1.9152 6.37683,3.22045c-1.13448,2.01887 -1.93958,3.36073 -2.41532,4.02553l-5.16916,0.45745c-2.36045,-1.59191 -3.60774,-2.41531 -3.74192,-2.47021v-0.06403c0,-0.17079 0.4788,-0.95455 1.43638,-2.35129h0.11892c0.37815,0.22567 1.56447,0.87525 3.55894,1.94873l1.20767,-1.37235c-3.6657,-1.86639 -5.69676,-2.92156 -6.09321,-3.16554v-0.05489c1.16496,-2.26894 1.79928,-3.41866 1.90297,-3.44916c3.03135,-0.61604 4.71782,-0.92404 5.05938,-0.92404z" data-paper-data="{&quot;origPos&quot;:null}" fill="#2b70c2" stroke="none" stroke-width="0.26458" stroke-linecap="butt"/><path d="M326.01023,152.25221c2.75078,0.51844 4.19022,0.81426 4.31831,0.88746v0.10977c-0.59163,1.67122 -0.88746,2.53731 -0.88746,2.5983h-0.05489c-0.15248,0 -0.89049,-0.23787 -2.21405,-0.71362c-0.73802,1.23817 -1.10702,1.89993 -1.10702,1.98533l1.8298,1.77489c1.41503,-1.32964 2.13475,-1.99446 2.15914,-1.99446c1.10398,1.44553 1.65597,2.25674 1.65597,2.43362c-0.60384,0.34767 -1.65598,1.03079 -3.1564,2.04937c-2.90327,-0.62823 -4.4708,-0.97893 -4.70256,-1.05213l-1.43639,-4.64768z" data-paper-data="{&quot;origPos&quot;:null}" fill="#2b70c2" stroke="none" stroke-width="0.26458" stroke-linecap="butt"/><path d="M339.19388,152.24306c1.20765,0.67703 1.94873,1.11616 2.22321,1.31745c-0.98809,2.05546 -1.51873,3.10149 -1.59193,3.13809h-0.06403l-1.30831,-1.14363l-1.54618,1.8847l0.17383,3.43086c-0.07927,0.07318 -1.08872,0.24395 -3.02831,0.51233c-0.07318,-0.52453 -0.54892,-3.09539 -1.42723,-7.71258c0,-0.07318 1.27476,-0.26226 3.82427,-0.56723c0.04268,0.04879 0.15857,0.61908 0.34767,1.71086c1.52483,-1.71391 2.32382,-2.57085 2.39702,-2.57085z" data-paper-data="{&quot;origPos&quot;:null}" fill="#2b70c2" stroke="none" stroke-width="0.26458" stroke-linecap="butt"/><path d="M343.53049,152.24306c3.62298,0.50014 5.43447,0.80815 5.43447,0.92404c1.42725,1.22595 2.14087,1.88163 2.14087,1.96702c-0.57943,1.81149 -0.90879,2.91242 -0.98809,3.30277c0.57943,1.28696 0.90879,2.05547 0.98809,2.30555c0,0.07318 -0.9454,0.26835 -2.83617,0.58552c-0.02439,-0.10369 -0.19823,-0.33546 -0.5215,-0.69531c-2.6105,0.50013 -4.01639,0.75021 -4.21767,0.75021l-1.39065,-3.76022l3.0649,-1.61937c0.49406,0.07927 1.2656,0.11891 2.31469,0.11891c0,-0.13419 0.0183,-0.53979 0.05489,-1.21682c-0.17688,0 -1.75661,0.11589 -4.73917,0.34767l-0.05489,-0.11892c0.41476,-1.92738 0.66483,-2.89107 0.75022,-2.89107zM345.43347,157.62265c0,0.06709 0.19518,0.7807 0.58554,2.14085h0.05489c0.76851,-0.50013 1.15277,-0.82949 1.15277,-0.98808l0.11892,-0.97895c-0.14639,0 -0.78377,-0.05793 -1.91214,-0.17382z" data-paper-data="{&quot;origPos&quot;:null}" fill="#2b70c2" stroke="none" stroke-width="0.26458" stroke-linecap="butt"/><path d="M351.98412,149.48923c1.86638,0.03659 3.23567,0.05488 4.10788,0.05488c0.07927,0 0.3202,3.74497 0.72276,11.23491c-0.31106,0.07927 -1.39674,0.28055 -3.25702,0.60384c-0.09147,0 -0.39339,-2.29335 -0.90575,-6.88002c-0.04268,-0.10978 -0.26531,-1.78099 -0.66787,-5.01362z" data-paper-data="{&quot;origPos&quot;:null}" fill="#2b70c2" stroke="none" stroke-width="0.26458" stroke-linecap="butt"/><path d="M359.23009,152.24306c3.623,0.50014 5.43449,0.80815 5.43449,0.92404c1.42723,1.22595 2.14085,1.88163 2.14085,1.96702c-0.57943,1.81149 -0.90879,2.91242 -0.98808,3.30277c0.57943,1.28696 0.90879,2.05547 0.98808,2.30555c0,0.07318 -0.9454,0.26835 -2.83618,0.58552c-0.02439,-0.10369 -0.19823,-0.33546 -0.5215,-0.69531c-2.6105,0.50013 -4.01639,0.75021 -4.21767,0.75021l-1.39063,-3.76022l3.0649,-1.61937c0.49404,0.07927 1.26559,0.11891 2.31467,0.11891c0,-0.13419 0.0183,-0.53979 0.05489,-1.21682c-0.17688,0 -1.75659,0.11589 -4.73917,0.34767l-0.05489,-0.11892c0.41476,-1.92738 0.66483,-2.89107 0.75021,-2.89107zM361.13309,157.62265c0,0.06709 0.19517,0.7807 0.58552,2.14085h0.05489c0.76851,-0.50013 1.15277,-0.82949 1.15277,-0.98808l0.11891,-0.97895c-0.14639,0 -0.78375,-0.05793 -1.91213,-0.17382z" data-paper-data="{&quot;origPos&quot;:null}" fill="#2b70c2" stroke="none" stroke-width="0.26458" stroke-linecap="butt"/><path d="M374.18866,152.24306h0.03659c1.62851,0.95758 2.50683,1.45773 2.63491,1.50043v0.08232c-0.42084,0.48185 -1.19547,1.31746 -2.32384,2.50682c2.21406,0.82342 3.45832,1.3205 3.73278,1.49129l-2.06766,2.55255c-1.39674,-1.19547 -2.28725,-1.94262 -2.67151,-2.24149c-0.9454,1.84198 -1.53397,2.92461 -1.76574,3.24788h-0.03659c-1.7505,-0.61604 -2.70199,-0.98198 -2.85447,-1.09788v-0.04573l2.41533,-3.15638c-2.24454,-0.9271 -3.4461,-1.46993 -3.60469,-1.62852c0.98809,-1.67731 1.54312,-2.57086 1.6651,-2.68064c0.0183,0.04268 1.10397,0.78985 3.25704,2.2415c0.76241,-1.40894 1.28999,-2.33299 1.58276,-2.77214z" data-paper-data="{&quot;origPos&quot;:null}" fill="#2b70c2" stroke="none" stroke-width="0.26458" stroke-linecap="butt"/><path d="M383.31016,152.26135c0.08538,0.0122 0.12806,0.05488 0.12806,0.12806l-0.95149,5.26979c1.8176,-0.21347 2.72639,-0.38425 2.72639,-0.51233c0.34156,-2.11037 0.57638,-3.29364 0.70447,-3.5498c2.25065,0.46354 3.49795,0.73802 3.74193,0.82341c-1.31135,4.50738 -2.03107,6.85563 -2.15916,7.0447c-2.29334,1.61022 -3.58334,2.50072 -3.87002,2.67149c-0.08538,0 -1.54616,-0.35985 -4.38235,-1.07956v-0.06403c0.75022,-1.65292 1.21681,-2.47937 1.39979,-2.47937l2.79044,1.39979l1.33575,-2.28723c-1.20157,0.29886 -1.89994,0.44829 -2.09511,0.44829l-3.55894,-1.84808c0.43305,-3.97676 0.70751,-5.96513 0.8234,-5.96513z" data-paper-data="{&quot;origPos&quot;:null}" fill="#2b70c2" stroke="none" stroke-width="0.26458" stroke-linecap="butt"/><path d="M394.58169,149.81859l0.03659,0.07317c-0.60993,5.38568 -0.9515,8.21577 -1.0247,8.49024c-1.29305,-0.122 -2.11035,-0.20739 -2.45191,-0.25618v-0.03659l-0.58554,-7.64853c0.14639,-0.04879 1.48824,-0.25616 4.02555,-0.62213zM390.95871,158.56499c0.04268,0.02439 0.99418,0.09758 2.85447,0.21958l0.03659,0.07317c-0.28668,1.6834 -0.46965,2.52511 -0.54894,2.52511h-2.12257c-0.07318,0 -0.17075,-0.84171 -0.29275,-2.52511c-0.02439,0 -0.03659,-0.07319 -0.03659,-0.21958c0.07318,-0.02439 0.10976,-0.04879 0.10976,-0.07318z" data-paper-data="{&quot;origPos&quot;:null}" fill="#000000" stroke="none" stroke-width="0.26458" stroke-linecap="butt"/></g></g></svg>