<svg version="1.1" xmlns="http://www.w3.org/2000/svg" xmlns:xlink="http://www.w3.org/1999/xlink" width="286.91779" height="156.95847" viewBox="0,0,286.91779,156.95847"><defs><linearGradient x1="112.61768" y1="104.56197" x2="112.61768" y2="255.47917" gradientUnits="userSpaceOnUse" id="color-1"><stop offset="0" stop-color="#42abfe"/><stop offset="1" stop-color="#3c95ed"/></linearGradient><linearGradient x1="353.95879" y1="104.64304" x2="353.95879" y2="131.48311" gradientUnits="userSpaceOnUse" id="color-2"><stop offset="0" stop-color="#42abfe"/><stop offset="1" stop-color="#41a9fc"/></linearGradient><linearGradient x1="354.04606" y1="228.62608" x2="354.04606" y2="255.46615" gradientUnits="userSpaceOnUse" id="color-3"><stop offset="0" stop-color="#3c96ee"/><stop offset="1" stop-color="#3d96ef"/></linearGradient><linearGradient x1="99.672" y1="104.52077" x2="99.672" y2="131.36084" gradientUnits="userSpaceOnUse" id="color-4"><stop offset="0" stop-color="#42abfe"/><stop offset="1" stop-color="#41a9fc"/></linearGradient><linearGradient x1="99.5411" y1="228.62608" x2="99.5411" y2="255.46615" gradientUnits="userSpaceOnUse" id="color-5"><stop offset="0" stop-color="#3c96ee"/><stop offset="1" stop-color="#3d96ef"/></linearGradient><linearGradient x1="99.64634" y1="116.71103" x2="99.64634" y2="243.13204" gradientUnits="userSpaceOnUse" id="color-6"><stop offset="0" stop-color="#41a9fc"/><stop offset="1" stop-color="#3c96ee"/></linearGradient><linearGradient x1="112.61768" y1="104.56197" x2="112.61768" y2="255.47917" gradientUnits="userSpaceOnUse" id="color-7"><stop offset="0" stop-color="#42abfe"/><stop offset="1" stop-color="#3c95ed"/></linearGradient><linearGradient x1="353.95879" y1="104.64304" x2="353.95879" y2="131.48311" gradientUnits="userSpaceOnUse" id="color-8"><stop offset="0" stop-color="#42abfe"/><stop offset="1" stop-color="#41a9fc"/></linearGradient><linearGradient x1="354.04606" y1="228.62608" x2="354.04606" y2="255.46615" gradientUnits="userSpaceOnUse" id="color-9"><stop offset="0" stop-color="#3c96ee"/><stop offset="1" stop-color="#3d96ef"/></linearGradient><linearGradient x1="99.672" y1="104.52077" x2="99.672" y2="131.36084" gradientUnits="userSpaceOnUse" id="color-10"><stop offset="0" stop-color="#42abfe"/><stop offset="1" stop-color="#41a9fc"/></linearGradient><linearGradient x1="99.5411" y1="228.62608" x2="99.5411" y2="255.46615" gradientUnits="userSpaceOnUse" id="color-11"><stop offset="0" stop-color="#3c96ee"/><stop offset="1" stop-color="#3d96ef"/></linearGradient><linearGradient x1="99.64634" y1="116.71103" x2="99.64634" y2="243.13204" gradientUnits="userSpaceOnUse" id="color-12"><stop offset="0" stop-color="#41a9fc"/><stop offset="1" stop-color="#3c96ee"/></linearGradient></defs><g transform="translate(-96.54111,-101.52077)"><g data-paper-data="{&quot;isPaintingLayer&quot;:true}" fill-rule="nonzero" stroke-linecap="butt" stroke-linejoin="miter" stroke-miterlimit="10" stroke-dasharray="" stroke-dashoffset="0" style="mix-blend-mode: normal"><g data-paper-data="{&quot;origPos&quot;:null}" stroke="#244555" stroke-width="6"><path d="M112.61768,104.56204h255.39209v150.9172h-255.39208z" fill="url(#color-1)"/><path d="M367.09881,104.64304c3.6252,0 6.91069,1.50339 9.28897,3.93322c2.37908,2.42898 3.85112,5.7844 3.85112,9.48678c0,3.70243 -1.47205,7.05787 -3.85112,9.48685c-2.37829,2.42984 -5.66377,3.93323 -9.28897,3.93323c-3.62511,0 -6.9106,-1.50339 -9.28889,-3.93323c-2.37916,-2.42898 -3.85112,-5.78441 -3.85112,-9.48685c0,-3.70238 1.47196,-7.0578 3.85112,-9.48678c2.37829,-2.42983 5.66378,-3.93322 9.28889,-3.93322z" fill="url(#color-2)"/><path d="M367.18608,228.62608c3.6252,0 6.91069,1.50339 9.28897,3.93322c2.37908,2.42898 3.85112,5.78441 3.85112,9.48678c0,3.70244 -1.47205,7.05786 -3.85112,9.48684c-2.37829,2.42983 -5.66377,3.93322 -9.28897,3.93322c-3.62511,0 -6.9106,-1.50339 -9.28889,-3.93322c-2.37916,-2.42898 -3.85112,-5.7844 -3.85112,-9.48684c0,-3.70237 1.47196,-7.0578 3.85112,-9.48678c2.37829,-2.42983 5.66378,-3.93322 9.28889,-3.93322z" fill="url(#color-3)"/><path d="M112.81201,104.52077c3.6252,0 6.91068,1.50339 9.28897,3.93322c2.37908,2.42898 3.85112,5.7844 3.85112,9.48678c0,3.70243 -1.47205,7.05787 -3.85112,9.48685c-2.37829,2.42983 -5.66377,3.93322 -9.28897,3.93322c-3.62511,0 -6.9106,-1.50339 -9.28889,-3.93322c-2.37916,-2.42898 -3.85113,-5.78441 -3.85113,-9.48685c0,-3.70238 1.47197,-7.0578 3.85113,-9.48678c2.37829,-2.42983 5.66378,-3.93322 9.28889,-3.93322z" fill="url(#color-4)"/><path d="M112.68112,228.62608c3.6252,0 6.91069,1.50339 9.28897,3.93322c2.37908,2.42898 3.85112,5.78441 3.85112,9.48678c0,3.70244 -1.47205,7.05786 -3.85112,9.48684c-2.37829,2.42983 -5.66377,3.93322 -9.28897,3.93322c-3.62511,0 -6.9106,-1.50339 -9.28889,-3.93322c-2.37916,-2.42898 -3.85112,-5.7844 -3.85112,-9.48684c0,-3.70237 1.47196,-7.0578 3.85112,-9.48678c2.37829,-2.42983 5.66378,-3.93322 9.28889,-3.93322z" fill="url(#color-5)"/><path d="M99.64634,116.71103h280.81256v126.42101h-280.81256z" fill="url(#color-6)"/></g><g data-paper-data="{&quot;origPos&quot;:null}" stroke="none"><path d="M112.61768,104.56204h255.39209v150.9172h-255.39208z" fill="url(#color-7)" stroke-width="6.59245"/><path d="M367.09881,104.64304c3.6252,0 6.91069,1.50339 9.28897,3.93322c2.37908,2.42898 3.85112,5.7844 3.85112,9.48678c0,3.70243 -1.47205,7.05787 -3.85112,9.48685c-2.37829,2.42984 -5.66377,3.93323 -9.28897,3.93323c-3.62511,0 -6.9106,-1.50339 -9.28889,-3.93323c-2.37916,-2.42898 -3.85112,-5.78441 -3.85112,-9.48685c0,-3.70238 1.47196,-7.0578 3.85112,-9.48678c2.37829,-2.42983 5.66378,-3.93322 9.28889,-3.93322z" fill="url(#color-8)" stroke-width="1.17276"/><path d="M367.18608,228.62608c3.6252,0 6.91069,1.50339 9.28897,3.93322c2.37908,2.42898 3.85112,5.78441 3.85112,9.48678c0,3.70244 -1.47205,7.05786 -3.85112,9.48684c-2.37829,2.42983 -5.66377,3.93322 -9.28897,3.93322c-3.62511,0 -6.9106,-1.50339 -9.28889,-3.93322c-2.37916,-2.42898 -3.85112,-5.7844 -3.85112,-9.48684c0,-3.70237 1.47196,-7.0578 3.85112,-9.48678c2.37829,-2.42983 5.66378,-3.93322 9.28889,-3.93322z" fill="url(#color-9)" stroke-width="1.17276"/><path d="M112.81201,104.52077c3.6252,0 6.91068,1.50339 9.28897,3.93322c2.37908,2.42898 3.85112,5.7844 3.85112,9.48678c0,3.70243 -1.47205,7.05787 -3.85112,9.48685c-2.37829,2.42983 -5.66377,3.93322 -9.28897,3.93322c-3.62511,0 -6.9106,-1.50339 -9.28889,-3.93322c-2.37916,-2.42898 -3.85113,-5.78441 -3.85113,-9.48685c0,-3.70238 1.47197,-7.0578 3.85113,-9.48678c2.37829,-2.42983 5.66378,-3.93322 9.28889,-3.93322z" fill="url(#color-10)" stroke-width="1.17276"/><path d="M112.68112,228.62608c3.6252,0 6.91069,1.50339 9.28897,3.93322c2.37908,2.42898 3.85112,5.78441 3.85112,9.48678c0,3.70244 -1.47205,7.05786 -3.85112,9.48684c-2.37829,2.42983 -5.66377,3.93322 -9.28897,3.93322c-3.62511,0 -6.9106,-1.50339 -9.28889,-3.93322c-2.37916,-2.42898 -3.85112,-5.7844 -3.85112,-9.48684c0,-3.70237 1.47196,-7.0578 3.85112,-9.48678c2.37829,-2.42983 5.66378,-3.93322 9.28889,-3.93322z" fill="url(#color-11)" stroke-width="1.17276"/><path d="M99.64634,116.71103h280.81256v126.42101h-280.81256z" fill="url(#color-12)" stroke-width="1.74925"/></g><text transform="translate(114.00978,131.78641) scale(0.81887,0.81887)" font-size="22" xml:space="preserve" data-paper-data="{&quot;origPos&quot;:null}" fill="#244555" fill-rule="nonzero" stroke="none" stroke-width="1" stroke-linecap="butt" stroke-linejoin="miter" stroke-miterlimit="10" stroke-dasharray="" stroke-dashoffset="0" font-family="Malgun Gothic" font-weight="400" text-anchor="start" style="mix-blend-mode: normal"><tspan x="0" dy="0">             WARNING</tspan><tspan x="0" dy="26.4px">A total reset erases all of the</tspan><tspan x="0" dy="26.4px">save data. Are you sure to </tspan><tspan x="0" dy="26.4px">continue?</tspan></text></g></g></svg>