<svg version="1.1" xmlns="http://www.w3.org/2000/svg" xmlns:xlink="http://www.w3.org/1999/xlink" width="437" height="230" viewBox="0,0,437,230"><defs><linearGradient x1="239.5" y1="135" x2="239.5" y2="223.79587" gradientUnits="userSpaceOnUse" id="color-1"><stop offset="0" stop-color="#ffffff"/><stop offset="1" stop-color="#d8d8d8"/></linearGradient><linearGradient x1="239.5" y1="135" x2="239.5" y2="223.79587" gradientUnits="userSpaceOnUse" id="color-2"><stop offset="0" stop-color="#343434"/><stop offset="1" stop-color="#090909"/></linearGradient><radialGradient cx="443.3065" cy="205.9426" r="17.9081" gradientUnits="userSpaceOnUse" id="color-3"><stop offset="0" stop-color="#ffffff"/><stop offset="1" stop-color="#e5e5e5"/></radialGradient><radialGradient cx="208.2488" cy="153.4428" r="12.1149" gradientUnits="userSpaceOnUse" id="color-4"><stop offset="0" stop-color="#fff343"/><stop offset="1" stop-color="#fff343" stop-opacity="0"/></radialGradient><linearGradient x1="199.7761" y1="145.6625" x2="199.7761" y2="161.1732" gradientUnits="userSpaceOnUse" id="color-5"><stop offset="0" stop-color="#ffec6c"/><stop offset="1" stop-color="#fdc363"/></linearGradient><linearGradient x1="200.27" y1="145.8995" x2="200.27" y2="160.6862" gradientUnits="userSpaceOnUse" id="color-6"><stop offset="0" stop-color="#fff01b"/><stop offset="1" stop-color="#ffa30a"/></linearGradient><linearGradient x1="208.5458" y1="151.4714" x2="208.5458" y2="154.8345" gradientUnits="userSpaceOnUse" id="color-7"><stop offset="0" stop-color="#000000"/><stop offset="1" stop-color="#674205"/></linearGradient><linearGradient x1="205.6958" y1="151.4714" x2="205.6958" y2="154.8345" gradientUnits="userSpaceOnUse" id="color-8"><stop offset="0" stop-color="#000000"/><stop offset="1" stop-color="#674205"/></linearGradient></defs><g transform="translate(-21,-134)"><g data-paper-data="{&quot;isPaintingLayer&quot;:true}" fill-rule="nonzero" stroke-linejoin="miter" stroke-miterlimit="10" stroke-dasharray="" stroke-dashoffset="0" style="mix-blend-mode: normal"><path d="M22,223.79587v-88.79587h435v88.79587z" data-paper-data="{&quot;origPos&quot;:null}" fill="url(#color-1)" stroke="url(#color-2)" stroke-width="2" stroke-linecap="butt"/><path d="M295,298.5c0,33.41323 -44.32381,60.5 -99,60.5c-54.67619,0 -99,-27.08677 -99,-60.5c0,-33.41323 44.32381,-60.5 99,-60.5c54.67619,0 99,27.08677 99,60.5z" data-paper-data="{&quot;origPos&quot;:null}" fill="none" stroke="#57b7ff" stroke-width="10" stroke-linecap="butt"/><g data-paper-data="{&quot;origPos&quot;:null}"><path d="M443.8058,201.4966c2.5136,0 4.7909,1.0212 6.4406,2.6702c1.6489,1.6496 2.6702,3.9269 2.6702,6.4405c0,2.5136 -1.0213,4.791 -2.6702,6.4406c-1.6497,1.649 -3.927,2.6702 -6.4406,2.6702c-2.5136,0 -4.7909,-1.0212 -6.4406,-2.6702c-1.6489,-1.6496 -2.6701,-3.927 -2.6701,-6.4406c0,-2.5136 1.0212,-4.7909 2.6701,-6.4405c1.6497,-1.649 3.927,-2.6702 6.4406,-2.6702z" fill="url(#color-3)" stroke="#000000" stroke-width="2.0785" stroke-linecap="butt"/><path d="M440.7734,205.9468l5.6119,0.4503l1.7321,3.187l-3.6374,2.9446l3.3603,-0.5197l0.7967,3.4642l-7.4479,-0.0693l-1.9053,-2.4249l4.6766,-3.3256l-4.5727,-0.3464z" fill="#000000" stroke="none" stroke-width="0.69283" stroke-linecap="round"/></g><g stroke="none"><path d="M46.796,146.995c0.022,0.047 0.044,0.095 0.066,0.143c-0.191,2.808 -0.334,4.211 -0.429,4.211c-0.023,0 -0.045,0 -0.067,0c-3.035,-0.242 -4.725,-0.386 -5.071,-0.43v9.779c0,0.176 -0.691,0.294 -2.072,0.353c0,0.051 -0.783,0.147 -2.349,0.286l-0.077,-0.143c0.338,-5.836 0.555,-9.282 0.651,-10.341c-1.162,0.184 -2.874,0.419 -5.138,0.706c-0.668,-2.499 -1.003,-3.782 -1.003,-3.848c0,-0.095 5.163,-0.334 15.489,-0.716z" data-paper-data="{&quot;origPos&quot;:null}" fill="#000000" stroke-width="0.26458" stroke-linecap="butt"/><path d="M52.463,150.335c2.793,0.75 4.274,1.205 4.443,1.367c1.536,2.176 2.399,3.429 2.59,3.759c-0.992,3.146 -1.561,4.719 -1.708,4.719c-3.308,0.771 -5.039,1.157 -5.193,1.157c-2.734,-1.595 -4.189,-2.484 -4.366,-2.668c-0.095,-2.969 -0.143,-4.608 -0.143,-4.916c-0.044,-0.089 -0.066,-0.155 -0.066,-0.199c2.822,-2.146 4.281,-3.219 4.377,-3.219c0.022,0 0.044,0 0.066,0zM52.253,154.37c-0.044,0.294 -0.11,1.363 -0.198,3.208c0.819,0.184 1.639,0.368 2.458,0.551c0.588,-1.837 0.882,-2.818 0.882,-2.943c-1.955,-0.588 -3.002,-0.882 -3.142,-0.882c0,0.022 0,0.044 0,0.066z" data-paper-data="{&quot;origPos&quot;:null}" fill="#000000" stroke-width="0.26458" stroke-linecap="butt"/><path d="M67.776,150.324c4.365,0.603 6.548,0.974 6.548,1.114c1.72,1.477 2.58,2.267 2.58,2.37c-0.699,2.183 -1.095,3.509 -1.191,3.98c0.698,1.55 1.095,2.476 1.191,2.778c0,0.088 -1.139,0.323 -3.418,0.705c-0.029,-0.125 -0.239,-0.404 -0.628,-0.838c-3.146,0.603 -4.84,0.904 -5.082,0.904l-1.676,-4.531l3.693,-1.951c0.595,0.096 1.525,0.143 2.789,0.143c0,-0.161 0.022,-0.65 0.066,-1.466c-0.213,0 -2.116,0.14 -5.71,0.419c-0.022,-0.048 -0.044,-0.095 -0.066,-0.143c0.499,-2.323 0.801,-3.484 0.904,-3.484zM70.069,156.806c0,0.081 0.235,0.941 0.705,2.58c0.022,0 0.044,0 0.066,0c0.926,-0.603 1.389,-1 1.389,-1.191c0.048,-0.393 0.096,-0.786 0.144,-1.179c-0.177,0 -0.945,-0.07 -2.304,-0.21z" data-paper-data="{&quot;origPos&quot;:null}" fill="#000000" stroke-width="0.26458" stroke-linecap="butt"/><path d="M82.295,150.335c3.314,0.625 5.049,0.981 5.203,1.069c0,0.045 0,0.089 0,0.133c-0.713,2.013 -1.069,3.057 -1.069,3.131c-0.022,0 -0.044,0 -0.066,0c-0.184,0 -1.073,-0.287 -2.668,-0.86c-0.89,1.492 -1.334,2.289 -1.334,2.392c0.735,0.713 1.47,1.426 2.205,2.139c1.705,-1.602 2.572,-2.404 2.601,-2.404c1.331,1.742 1.996,2.72 1.996,2.933c-0.728,0.419 -1.996,1.242 -3.804,2.469c-3.498,-0.757 -5.387,-1.179 -5.666,-1.267c-0.577,-1.867 -1.154,-3.734 -1.731,-5.601z" data-paper-data="{&quot;origPos&quot;:null}" fill="#000000" stroke-width="0.26458" stroke-linecap="butt"/><path d="M94.598,150.335c3.314,0.625 5.049,0.981 5.203,1.069c0,0.045 0,0.089 0,0.133c-0.713,2.013 -1.069,3.057 -1.069,3.131c-0.022,0 -0.044,0 -0.066,0c-0.184,0 -1.073,-0.287 -2.668,-0.86c-0.89,1.492 -1.334,2.289 -1.334,2.392l2.205,2.139c1.705,-1.602 2.572,-2.404 2.601,-2.404c1.331,1.742 1.996,2.72 1.996,2.933c-0.728,0.419 -1.996,1.242 -3.804,2.469c-3.498,-0.757 -5.387,-1.179 -5.666,-1.267c-0.577,-1.867 -1.154,-3.734 -1.731,-5.601z" data-paper-data="{&quot;origPos&quot;:null}" fill="#000000" stroke-width="0.26458" stroke-linecap="butt"/><path d="M108.819,150.335c3.329,1.713 5.174,2.712 5.534,2.999c-0.477,2.234 -0.76,3.384 -0.849,3.45c-2.322,0 -4.645,0 -6.967,0c0,0.041 0,0.081 0,0.122l1.951,2.414l3.065,-1.566c0.301,0.522 0.735,1.434 1.301,2.734c-0.265,0.089 -2.194,0.372 -5.788,0.849c-2.976,-1.962 -4.476,-2.984 -4.498,-3.064c0.478,-3.815 0.761,-5.722 0.849,-5.722c3.109,-1.323 4.91,-2.062 5.402,-2.216zM108.102,153.003c-0.058,0.147 -0.448,0.731 -1.168,1.753c0,0.308 0.434,0.463 1.301,0.463c0,0.044 0.628,0.151 1.885,0.32c0.345,-0.478 0.518,-0.757 0.518,-0.838c-0.11,-0.654 -0.349,-0.981 -0.717,-0.981z" data-paper-data="{&quot;origPos&quot;:null}" fill="#000000" stroke-width="0.26458" stroke-linecap="butt"/><path d="M124.253,150.324c2.117,1.352 3.285,2.131 3.506,2.337c-0.765,1.698 -1.202,2.547 -1.312,2.547c-1.338,-0.776 -2.675,-1.551 -4.013,-2.326c-0.048,0 -0.095,0 -0.143,0c0,0.073 -0.173,0.485 -0.518,1.234c3.696,1.992 5.545,3.014 5.545,3.065c-1.036,2.396 -1.621,3.66 -1.753,3.793c-2.091,0.121 -4.182,0.242 -6.273,0.363c-2.44,-1.617 -3.752,-2.469 -3.936,-2.557c0,-0.022 0,-0.044 0,-0.066c0,-0.184 0.364,-1.011 1.092,-2.481c1.631,0.849 3.263,1.698 4.895,2.547l0.363,-1.456c-3.028,-1.359 -4.828,-2.208 -5.401,-2.546c0,-0.052 0,-0.103 0,-0.154c0,-0.28 0.584,-1.518 1.752,-3.716z" data-paper-data="{&quot;origPos&quot;:null}" fill="#000000" stroke-width="0.26458" stroke-linecap="butt"/><path d="M137.747,150.324c2.116,1.352 3.285,2.131 3.506,2.337c-0.765,1.698 -1.202,2.547 -1.312,2.547c-1.338,-0.776 -2.676,-1.551 -4.013,-2.326c-0.048,0 -0.096,0 -0.144,0c0,0.073 -0.172,0.485 -0.518,1.234c3.697,1.992 5.546,3.014 5.546,3.065c-1.037,2.396 -1.621,3.66 -1.753,3.793l-6.273,0.363c-2.44,-1.617 -3.752,-2.469 -3.936,-2.557c0,-0.022 0,-0.044 0,-0.066c0,-0.184 0.364,-1.011 1.092,-2.481c1.631,0.849 3.263,1.698 4.894,2.547c0.122,-0.485 0.243,-0.97 0.364,-1.456c-3.028,-1.359 -4.828,-2.208 -5.402,-2.546c0,-0.052 0,-0.103 0,-0.154c0,-0.28 0.585,-1.518 1.753,-3.716c2.065,-0.194 4.131,-0.389 6.196,-0.584z" data-paper-data="{&quot;origPos&quot;:null}" fill="#000000" stroke-width="0.26458" stroke-linecap="butt"/><path d="M151.241,146.995c1.616,0.286 3.233,0.573 4.85,0.86c-0.012,0.094 -0.451,3.587 -0.463,3.682c0.963,-0.052 1.669,-0.077 2.117,-0.077c0.235,0 0.47,0 0.705,0l0.155,-0.078c0.026,0.052 0.051,0.103 0.077,0.155c-0.154,2.234 -0.287,3.491 -0.397,3.77l-0.154,-0.088c-0.11,0 -1.103,-0.052 -2.977,-0.154c-0.103,1.727 -0.18,3.792 -0.231,6.195l-0.155,0.077c-2.366,-0.154 -3.777,-0.286 -4.233,-0.397c0.026,-0.102 0.052,-0.205 0.077,-0.308c0,-0.64 0.103,-2.624 0.309,-5.953c-1.984,-0.111 -2.977,-0.243 -2.977,-0.397c0.103,-2.455 0.236,-3.682 0.397,-3.682l2.9,0.551c0,-0.316 0,-0.632 0,-0.948c0,-0.772 -0.03,-1.816 -0.089,-3.131c0.059,0 0.089,-0.026 0.089,-0.077z" data-paper-data="{&quot;origPos&quot;:null}" fill="#000000" stroke-width="0.26458" stroke-linecap="butt"/><path d="M164.789,146.995c0.045,0.066 0.25,2.08 0.618,6.041c2.837,-0.867 4.347,-1.301 4.531,-1.301c0.937,0.64 1.874,1.279 2.811,1.918c-0.456,4.19 -0.753,6.637 -0.893,7.343l-3.903,0.132c0,-0.044 -0.025,-0.066 -0.077,-0.066c0.026,-0.092 0.052,-0.184 0.077,-0.276c0,-0.595 0.089,-2.403 0.265,-5.424c-1.073,-0.044 -1.87,-0.066 -2.392,-0.066c-0.092,0 -0.184,0 -0.276,0c0.316,3.359 0.474,5.189 0.474,5.49c-1.235,0.184 -2.469,0.368 -3.704,0.551c-0.14,-0.47 -0.963,-4.861 -2.469,-13.174c0,-0.235 0.573,-0.419 1.719,-0.551c1.448,-0.412 2.521,-0.617 3.219,-0.617z" data-paper-data="{&quot;origPos&quot;:null}" fill="#000000" stroke-width="0.26458" stroke-linecap="butt"/><path d="M175.307,145.903c1.444,0.228 2.888,0.456 4.332,0.684c-0.544,2.08 -0.9,3.12 -1.069,3.12c-2.279,-0.155 -3.418,-0.305 -3.418,-0.452c0,-1.066 0,-2.132 0,-3.197c0.022,-0.103 0.074,-0.155 0.155,-0.155zM174.094,151.151c0.022,0 0.044,0 0.066,0c3.351,0.61 5.027,0.966 5.027,1.069c-0.963,5.454 -1.547,8.493 -1.753,9.117c-1.165,0 -2.33,0 -3.494,0c-0.103,0 -0.155,-0.051 -0.155,-0.154c-0.026,0.869 0.336,-10.901 0.309,-10.032z" data-paper-data="{&quot;origPos&quot;:null}" fill="#000000" stroke-width="0.26458" stroke-linecap="butt"/><path d="M188.856,150.324c2.116,1.352 3.285,2.131 3.505,2.337c-0.764,1.698 -1.201,2.547 -1.312,2.547c-1.337,-0.776 -2.675,-1.551 -4.013,-2.326c-0.047,0 -0.095,0 -0.143,0c0,0.073 -0.173,0.485 -0.518,1.234c3.697,1.992 5.545,3.014 5.545,3.065c-1.036,2.396 -1.62,3.66 -1.753,3.793l-6.272,0.363c-2.44,-1.617 -3.752,-2.469 -3.936,-2.557c0,-0.022 0,-0.044 0,-0.066c0,-0.184 0.364,-1.011 1.091,-2.481l4.895,2.547c0.121,-0.485 0.243,-0.97 0.364,-1.456c-3.028,-1.359 -4.829,-2.208 -5.402,-2.546c0,-0.052 0,-0.103 0,-0.154c0,-0.28 0.584,-1.518 1.753,-3.716z" data-paper-data="{&quot;origPos&quot;:null}" fill="#000000" stroke-width="0.26458" stroke-linecap="butt"/><path d="M268.611,149.824c2.117,1.352 3.286,2.131 3.506,2.337c-0.764,1.698 -1.202,2.547 -1.312,2.547c-1.337,-0.776 -2.675,-1.551 -4.013,-2.326c-0.047,0 -0.095,0 -0.143,0c0,0.073 -0.173,0.485 -0.518,1.234c3.697,1.992 5.545,3.014 5.545,3.065c-1.036,2.396 -1.62,3.66 -1.753,3.793c-2.091,0.121 -4.182,0.242 -6.273,0.363c-2.44,-1.617 -3.751,-2.469 -3.935,-2.557c0,-0.022 0,-0.044 0,-0.066c0,-0.184 0.364,-1.011 1.091,-2.481l4.895,2.547c0.121,-0.485 0.243,-0.97 0.364,-1.456c-3.028,-1.359 -4.829,-2.208 -5.402,-2.546c0,-0.052 0,-0.103 0,-0.154c0,-0.28 0.584,-1.518 1.753,-3.716z" data-paper-data="{&quot;origPos&quot;:null}" fill="#2b70c2" stroke-width="0.26458" stroke-linecap="butt"/><path d="M276.505,146.495c1.617,0.286 3.234,0.573 4.851,0.86c0.231,-1.841 -0.695,5.523 -0.463,3.682c0.962,-0.052 1.668,-0.077 2.116,-0.077c0.235,0 0.471,0 0.706,0l0.154,-0.078c0.026,0.052 0.052,0.103 0.077,0.155c-0.154,2.234 -0.286,3.491 -0.397,3.77c-0.051,-0.029 -0.103,-0.059 -0.154,-0.088c-0.11,0 -1.102,-0.052 -2.977,-0.154c-0.102,1.727 -0.18,3.792 -0.231,6.195c-0.051,0.026 -0.103,0.052 -0.154,0.077c-2.367,-0.154 -3.778,-0.286 -4.234,-0.397c0.026,-0.102 0.052,-0.205 0.078,-0.308c0,-0.64 0.102,-2.624 0.308,-5.953c-1.984,-0.111 -2.976,-0.243 -2.976,-0.397c0.103,-2.455 0.235,-3.682 0.396,-3.682c0.967,0.183 1.933,0.367 2.9,0.551c0,-0.316 0,-0.632 0,-0.948c0,-0.772 -0.03,-1.816 -0.088,-3.131c0.058,0 0.088,-0.026 0.088,-0.077z" data-paper-data="{&quot;origPos&quot;:null}" fill="#2b70c2" stroke-width="0.26458" stroke-linecap="butt"/><path d="M286.791,149.824c4.365,0.603 6.548,0.974 6.548,1.114c1.72,1.477 2.58,2.267 2.58,2.37c-0.699,2.183 -1.095,3.509 -1.191,3.98c0.698,1.55 1.095,2.476 1.191,2.778c0,0.088 -1.14,0.323 -3.418,0.705c-0.029,-0.125 -0.239,-0.404 -0.628,-0.838c-3.146,0.603 -4.84,0.904 -5.082,0.904c1.675,4.531 -3.352,-9.062 -1.676,-4.531c1.231,-0.65 2.462,-1.301 3.693,-1.951c0.595,0.096 1.525,0.143 2.789,0.143c0,-0.161 0.022,-0.65 0.066,-1.466c-0.213,0 -2.116,0.14 -5.71,0.419c-0.022,-0.048 -0.044,-0.095 -0.066,-0.143c0.499,-2.323 0.801,-3.484 0.904,-3.484zM289.084,156.306c0,0.081 0.235,0.941 0.705,2.58c0.022,0 0.044,0 0.066,0c0.926,-0.603 1.389,-1 1.389,-1.191c-0.003,0.024 0.146,-1.202 0.144,-1.179c-0.177,0 -0.945,-0.07 -2.305,-0.21z" data-paper-data="{&quot;origPos&quot;:null}" fill="#2b70c2" stroke-width="0.26458" stroke-linecap="butt"/><path d="M304.892,149.824c1.456,0.816 2.349,1.345 2.679,1.588c-1.19,2.476 -1.83,3.737 -1.918,3.781c-0.026,0 -0.051,0 -0.077,0l-1.577,-1.378l-1.863,2.271c0.006,0.117 0.204,4.017 0.21,4.134c-0.096,0.088 -1.312,0.294 -3.649,0.617c-0.088,-0.632 -0.662,-3.73 -1.72,-9.293c0,-0.088 1.536,-0.316 4.608,-0.684c0.052,0.059 0.191,0.746 0.419,2.062c1.837,-2.065 2.8,-3.098 2.888,-3.098z" data-paper-data="{&quot;origPos&quot;:null}" fill="#2b70c2" stroke-width="0.26458" stroke-linecap="butt"/><path d="M309.975,158.456c1.999,0.235 3.002,0.368 3.009,0.397c-1.212,2.852 -1.892,4.351 -2.039,4.498c-1,-0.125 -1.5,-0.228 -1.5,-0.309c0.265,-3.057 0.427,-4.586 0.486,-4.586z" data-paper-data="{&quot;origPos&quot;:null}" fill="#000000" stroke-width="0.26458" stroke-linecap="butt"/><path d="M325.243,149.846c0.103,0.015 0.155,0.066 0.155,0.154c0.382,-2.116 -1.529,8.467 -1.147,6.35c2.19,-0.257 3.285,-0.463 3.285,-0.617c0.412,-2.543 0.695,-3.969 0.849,-4.277c2.712,0.558 4.215,0.889 4.509,0.992c-1.58,5.431 -2.447,8.261 -2.602,8.489c-2.763,1.94 -4.317,3.013 -4.663,3.219c-0.103,0 -1.863,-0.434 -5.281,-1.301c0,-0.026 0,-0.052 0,-0.077c0.904,-1.992 1.467,-2.988 1.687,-2.988l3.363,1.687c0.536,-0.919 1.073,-1.838 1.609,-2.756c-1.448,0.36 -2.289,0.54 -2.524,0.54l-4.289,-2.227c0.522,-4.792 0.853,-7.188 0.992,-7.188z" data-paper-data="{&quot;origPos&quot;:null}" fill="#000000" stroke-width="0.26458" stroke-linecap="butt"/><path d="M338.417,149.835c2.793,0.75 4.274,1.205 4.443,1.367c1.536,2.176 2.4,3.429 2.591,3.759c-0.992,3.146 -1.562,4.719 -1.709,4.719c-3.307,0.771 -5.038,1.157 -5.192,1.157c-2.734,-1.595 -4.19,-2.484 -4.366,-2.668c-0.096,-2.969 -0.143,-4.608 -0.143,-4.916c-0.044,-0.089 -0.066,-0.155 -0.066,-0.199c2.822,-2.146 4.281,-3.219 4.376,-3.219c0.022,0 0.044,0 0.066,0zM338.208,153.87c-0.044,0.294 -0.11,1.363 -0.199,3.208l2.459,0.551c0.588,-1.837 0.882,-2.818 0.882,-2.943c-1.955,-0.588 -3.003,-0.882 -3.142,-0.882c0,0.022 0,0.044 0,0.066z" data-paper-data="{&quot;origPos&quot;:null}" fill="#000000" stroke-width="0.26458" stroke-linecap="butt"/><path d="M352.407,149.824c0.026,0.048 0.052,0.096 0.077,0.143c-0.069,0.367 -1.419,7.527 -1.488,7.894c0.026,0 0.052,0 0.077,0c1.264,-0.371 2.529,-0.743 3.793,-1.114c0,0.263 0,-4.727 0,-4.465c0.014,-0.102 0.062,-0.154 0.143,-0.154c2.852,0.199 4.439,0.298 4.762,0.298c0,0.051 0.026,0.077 0.078,0.077c0,1.257 -0.397,3.862 -1.191,7.816c0,0.228 -1.139,0.401 -3.418,0.518c-0.117,-0.139 -0.216,-0.437 -0.297,-0.893c-2.918,0.596 -4.583,0.893 -4.994,0.893c-2.33,-1.734 -3.495,-2.627 -3.495,-2.679c0.397,-5.21 0.647,-7.915 0.75,-8.113c0.022,0 0.044,0 0.066,0c1.859,-0.052 3.572,-0.125 5.137,-0.221z" data-paper-data="{&quot;origPos&quot;:null}" fill="#000000" stroke-width="0.26458" stroke-linecap="butt"/><path d="M41.097,174.324c1.223,0.842 2.447,1.683 3.671,2.525c-0.257,4.189 -0.437,6.636 -0.54,7.342c-0.427,0.051 -1.724,0.128 -3.892,0.231l-0.077,-0.154c-0.129,-1.962 -0.257,-3.925 -0.386,-5.887c-0.051,-0.026 -0.103,-0.051 -0.154,-0.077c-1.404,0.301 -2.371,0.529 -2.9,0.683c0.147,2.507 0.221,4.318 0.221,5.435c-2.19,0.61 -3.388,0.915 -3.594,0.915c-1.426,-6.276 -2.139,-9.591 -2.139,-9.944c3.102,-0.404 4.785,-0.606 5.049,-0.606c0,0.026 0,0.052 0,0.077c0.052,0.037 0.129,0.801 0.232,2.293c2.844,-1.889 4.347,-2.833 4.509,-2.833z" data-paper-data="{&quot;origPos&quot;:null}" fill="#000000" stroke-width="0.26458" stroke-linecap="butt"/><path d="M52.154,174.335c3.329,1.713 5.174,2.712 5.534,2.999c-0.477,2.234 -0.76,3.384 -0.849,3.45c-2.322,0 -4.644,0 -6.967,0c0,0.041 0,0.081 0,0.122c0.651,0.804 1.301,1.609 1.951,2.414c1.022,-0.522 2.044,-1.044 3.065,-1.566c0.301,0.522 0.735,1.434 1.301,2.734c-0.265,0.089 -2.194,0.372 -5.788,0.849c-2.976,-1.962 -4.476,-2.984 -4.498,-3.064c0.478,-3.815 0.761,-5.722 0.849,-5.722c3.109,-1.323 4.91,-2.062 5.402,-2.216zM51.438,177.003c-0.059,0.147 -0.449,0.731 -1.169,1.753c0,0.308 0.434,0.463 1.301,0.463c0,0.044 0.628,0.151 1.885,0.32c0.345,-0.478 0.518,-0.757 0.518,-0.838c-0.11,-0.654 -0.349,-0.981 -0.716,-0.981z" data-paper-data="{&quot;origPos&quot;:null}" fill="#000000" stroke-width="0.26458" stroke-linecap="butt"/><path d="M64.942,174.335c3.33,1.713 5.174,2.712 5.535,2.999c-0.478,2.234 -0.761,3.384 -0.849,3.45c-2.323,0 -4.645,0 -6.968,0c0,0.041 0,0.081 0,0.122l1.952,2.414c1.021,-0.522 2.043,-1.044 3.064,-1.566c0.302,0.522 0.735,1.434 1.301,2.734c-0.264,0.089 -2.194,0.372 -5.788,0.849c-2.976,-1.962 -4.475,-2.984 -4.497,-3.064c0.477,-3.815 0.76,-5.722 0.848,-5.722c3.109,-1.323 4.91,-2.062 5.402,-2.216zM64.226,177.003c-0.059,0.147 -0.449,0.731 -1.169,1.753c0,0.308 0.434,0.463 1.301,0.463c0,0.044 0.628,0.151 1.885,0.32c0.346,-0.478 0.518,-0.757 0.518,-0.838c-0.11,-0.654 -0.349,-0.981 -0.716,-0.981c-0.607,-0.239 -1.213,-0.478 -1.819,-0.717z" data-paper-data="{&quot;origPos&quot;:null}" fill="#000000" stroke-width="0.26458" stroke-linecap="butt"/><path d="M78.149,170.984c0.022,0 0.045,0 0.067,0c3.322,0.279 4.983,0.496 4.983,0.65c0.244,2.163 1.221,10.813 1.466,12.976c0,0.095 -1.466,0.338 -4.399,0.727c-0.022,-0.047 -0.044,-0.095 -0.066,-0.143c0,-0.393 0,-0.786 0,-1.18c-2.528,0.684 -4.263,1.125 -5.204,1.323c-2.234,-3.16 -3.406,-4.843 -3.516,-5.049c1.646,-2.991 2.524,-4.505 2.635,-4.542l4.619,0.221c-0.096,-0.566 -0.291,-2.227 -0.585,-4.983zM76.099,178.888c0.742,2.271 1.205,3.517 1.389,3.737c0.731,-0.635 1.463,-1.271 2.194,-1.907c-0.228,-1.315 -0.397,-1.973 -0.507,-1.973c-0.978,0 -1.955,0 -2.933,0c-0.095,0.014 -0.143,0.062 -0.143,0.143z" data-paper-data="{&quot;origPos&quot;:null}" fill="#000000" stroke-width="0.26458" stroke-linecap="butt"/><path d="M94.708,170.995c1.617,0.286 3.234,0.573 4.851,0.86c-0.155,1.227 -0.309,2.454 -0.463,3.682c0.962,-0.052 1.668,-0.077 2.116,-0.077c0.235,0 0.471,0 0.706,0c0.051,-0.026 0.103,-0.052 0.154,-0.078l0.077,0.155c-0.154,2.234 -0.286,3.491 -0.397,3.77c-0.051,-0.029 -0.102,-0.059 -0.154,-0.088c-0.11,0 -1.102,-0.052 -2.976,-0.154c-0.103,1.727 -0.18,3.792 -0.232,6.195c-0.051,0.026 -0.103,0.052 -0.154,0.077c-2.367,-0.154 -3.778,-0.286 -4.234,-0.397c0.026,-0.102 0.052,-0.205 0.078,-0.308c0,-0.64 0.102,-2.624 0.308,-5.953c-1.984,-0.111 -2.976,-0.243 -2.976,-0.397c0.103,-2.455 0.235,-3.682 0.397,-3.682c0.966,0.183 1.932,0.367 2.899,0.551c0,-0.316 0,-0.632 0,-0.948c0,-0.772 -0.029,-1.816 -0.088,-3.131c0.059,0 0.088,-0.026 0.088,-0.077z" data-paper-data="{&quot;origPos&quot;:null}" fill="#000000" stroke-width="0.26458" stroke-linecap="butt"/><path d="M107.761,174.335c2.793,0.75 4.273,1.205 4.443,1.367c1.536,2.176 2.399,3.429 2.59,3.759c-0.992,3.146 -1.562,4.719 -1.709,4.719c-3.307,0.771 -5.038,1.157 -5.192,1.157c-2.734,-1.595 -4.189,-2.484 -4.366,-2.668c-0.095,-2.969 -0.143,-4.608 -0.143,-4.916c-0.044,-0.089 -0.066,-0.155 -0.066,-0.199c2.822,-2.146 4.281,-3.219 4.377,-3.219c0.022,0 0.044,0 0.066,0zM107.551,178.37c-0.044,0.294 -0.11,1.363 -0.198,3.208c0.819,0.184 1.639,0.368 2.458,0.551c0.588,-1.837 0.882,-2.818 0.882,-2.943c-1.955,-0.588 -3.002,-0.882 -3.142,-0.882z" data-paper-data="{&quot;origPos&quot;:null}" fill="#000000" stroke-width="0.26458" stroke-linecap="butt"/><path d="M125.73,174.335c3.315,0.625 5.049,0.981 5.204,1.069c0,0.045 0,0.089 0,0.133c-0.713,2.013 -1.07,3.057 -1.07,3.131c-0.022,0 -0.044,0 -0.066,0c-0.183,0 -1.073,-0.287 -2.668,-0.86c-0.889,1.492 -1.334,2.289 -1.334,2.392c0.735,0.713 1.47,1.426 2.205,2.139c1.705,-1.602 2.573,-2.404 2.602,-2.404c1.33,1.742 1.995,2.72 1.995,2.933c-0.727,0.419 -1.995,1.242 -3.803,2.469c-3.498,-0.757 -5.387,-1.179 -5.666,-1.267c-0.577,-1.867 -1.154,-3.734 -1.731,-5.601c1.444,-1.378 2.888,-2.756 4.332,-4.134z" data-paper-data="{&quot;origPos&quot;:null}" fill="#2b70c2" stroke-width="0.26458" stroke-linecap="butt"/><path d="M138.144,174.335c2.793,0.75 4.273,1.205 4.443,1.367c1.536,2.176 2.399,3.429 2.59,3.759c-0.992,3.146 -1.562,4.719 -1.709,4.719c-3.307,0.771 -5.038,1.157 -5.192,1.157c-2.734,-1.595 -4.189,-2.484 -4.366,-2.668c-0.095,-2.969 -0.143,-4.608 -0.143,-4.916c-0.044,-0.089 -0.066,-0.155 -0.066,-0.199c2.822,-2.146 4.281,-3.219 4.377,-3.219zM137.934,178.37c-0.044,0.294 -0.11,1.363 -0.198,3.208c0.819,0.184 1.639,0.368 2.458,0.551c0.588,-1.837 0.882,-2.818 0.882,-2.943c-1.955,-0.588 -3.002,-0.882 -3.142,-0.882c0,0.022 0,0.044 0,0.066z" data-paper-data="{&quot;origPos&quot;:null}" fill="#2b70c2" stroke-width="0.26458" stroke-linecap="butt"/><path d="M146.18,171.006c2.249,0.044 3.899,0.066 4.95,0.066c0.096,0 0.386,4.512 0.871,13.538c-0.375,0.095 -1.683,0.338 -3.924,0.727c-0.111,0 -0.474,-2.763 -1.092,-8.29c-0.051,-0.132 -0.32,-2.146 -0.805,-6.041z" data-paper-data="{&quot;origPos&quot;:null}" fill="#2b70c2" stroke-width="0.26458" stroke-linecap="butt"/><path d="M153.236,171.006c2.249,0.044 3.899,0.066 4.95,0.066c0.095,0 0.386,4.512 0.871,13.538c-0.375,0.095 -1.683,0.338 -3.925,0.727c-0.11,0 -0.474,-2.763 -1.091,-8.29c-0.052,-0.132 -0.32,-2.146 -0.805,-6.041z" data-paper-data="{&quot;origPos&quot;:null}" fill="#2b70c2" stroke-width="0.26458" stroke-linecap="butt"/><path d="M166.542,174.335c3.33,1.713 5.174,2.712 5.535,2.999c-0.478,2.234 -0.761,3.384 -0.849,3.45c-2.323,0 -4.645,0 -6.968,0c0,0.041 0,0.081 0,0.122c0.651,0.804 1.301,1.609 1.952,2.414c1.021,-0.522 2.043,-1.044 3.064,-1.566c0.302,0.522 0.735,1.434 1.301,2.734c-0.264,0.089 -2.194,0.372 -5.788,0.849c-2.976,-1.962 -4.475,-2.984 -4.497,-3.064c0.477,-3.815 0.76,-5.722 0.848,-5.722c3.109,-1.323 4.91,-2.062 5.402,-2.216zM165.826,177.003c-0.059,0.147 -0.449,0.731 -1.169,1.753c0,0.308 0.434,0.463 1.301,0.463c0,0.044 0.628,0.151 1.885,0.32c0.346,-0.478 0.518,-0.757 0.518,-0.838c-0.11,-0.654 -0.349,-0.981 -0.716,-0.981c-0.607,-0.239 -1.213,-0.478 -1.819,-0.717z" data-paper-data="{&quot;origPos&quot;:null}" fill="#2b70c2" stroke-width="0.26458" stroke-linecap="butt"/><path d="M177.412,174.335c3.315,0.625 5.049,0.981 5.204,1.069c0,0.045 0,0.089 0,0.133c-0.713,2.013 -1.07,3.057 -1.07,3.131c-0.022,0 -0.044,0 -0.066,0c-0.183,0 -1.073,-0.287 -2.668,-0.86c-0.889,1.492 -1.334,2.289 -1.334,2.392c0.735,0.713 1.47,1.426 2.205,2.139c1.705,-1.602 2.573,-2.404 2.602,-2.404c1.33,1.742 1.995,2.72 1.995,2.933c-0.727,0.419 -1.995,1.242 -3.803,2.469c-3.498,-0.757 -5.387,-1.179 -5.666,-1.267c-0.577,-1.867 -1.154,-3.734 -1.731,-5.601c1.444,-1.378 2.888,-2.756 4.332,-4.134z" data-paper-data="{&quot;origPos&quot;:null}" fill="#2b70c2" stroke-width="0.26458" stroke-linecap="butt"/><path d="M188.679,170.995c1.617,0.286 3.234,0.573 4.851,0.86c-0.033,0.263 -0.43,3.419 -0.463,3.682c0.963,-0.052 1.668,-0.077 2.116,-0.077c0.236,0 0.471,0 0.706,0c0.052,-0.026 0.103,-0.052 0.154,-0.078c0.026,0.052 0.052,0.103 0.078,0.155c-0.155,2.234 -0.287,3.491 -0.397,3.77c-0.052,-0.029 -0.103,-0.059 -0.155,-0.088c-0.11,0 -1.102,-0.052 -2.976,-0.154c-0.103,1.727 -0.18,3.792 -0.232,6.195c-0.051,0.026 -0.103,0.052 -0.154,0.077c-2.367,-0.154 -3.778,-0.286 -4.233,-0.397c0.025,-0.102 0.051,-0.205 0.077,-0.308c0,-0.64 0.103,-2.624 0.308,-5.953c-1.984,-0.111 -2.976,-0.243 -2.976,-0.397c0.103,-2.455 0.235,-3.682 0.397,-3.682c0.966,0.183 1.933,0.367 2.899,0.551c0,-0.316 0,-0.632 0,-0.948c0,-0.772 -0.029,-1.816 -0.088,-3.131c0.059,0 0.088,-0.026 0.088,-0.077z" data-paper-data="{&quot;origPos&quot;:null}" fill="#2b70c2" stroke-width="0.26458" stroke-linecap="butt"/><path d="M206.186,170.995c1.617,0.286 3.234,0.573 4.85,0.86c-0.154,1.227 -0.308,2.454 -0.463,3.682c0.963,-0.052 1.669,-0.077 2.117,-0.077c0.235,0 0.47,0 0.706,0c0.051,-0.026 0.103,-0.052 0.154,-0.078c0.026,0.052 0.051,0.103 0.077,0.155c-0.154,2.234 -0.286,3.491 -0.397,3.77c-0.051,-0.029 -0.103,-0.059 -0.154,-0.088c-0.11,0 -1.102,-0.052 -2.977,-0.154c-0.103,1.727 -0.18,3.792 -0.231,6.195c-0.052,0.026 -0.103,0.052 -0.154,0.077c-2.367,-0.154 -3.778,-0.286 -4.234,-0.397c0.026,-0.102 0.052,-0.205 0.077,-0.308c0,-0.64 0.103,-2.624 0.309,-5.953c-1.984,-0.111 -2.976,-0.243 -2.976,-0.397c0.102,-2.455 0.235,-3.682 0.396,-3.682c0.967,0.183 1.933,0.367 2.9,0.551c0,-0.316 0,-0.632 0,-0.948c0,-0.772 -0.03,-1.816 -0.088,-3.131c0.058,0 0.088,-0.026 0.088,-0.077z" data-paper-data="{&quot;origPos&quot;:null}" fill="#000000" stroke-width="0.26458" stroke-linecap="butt"/><path d="M219.735,170.995c0.044,0.066 0.249,2.08 0.617,6.041c2.837,-0.867 4.347,-1.301 4.531,-1.301c0.937,0.64 1.874,1.279 2.811,1.918c-0.456,4.19 -0.753,6.637 -0.893,7.343l-3.902,0.132c0,-0.044 -0.026,-0.066 -0.078,-0.066c0.026,-0.092 0.052,-0.184 0.078,-0.276c0,-0.595 0.088,-2.403 0.264,-5.424c-1.073,-0.044 -1.87,-0.066 -2.392,-0.066c-0.092,0 -0.184,0 -0.276,0c0.316,3.359 0.474,5.189 0.474,5.49c-1.234,0.184 -2.469,0.368 -3.704,0.551c-0.14,-0.47 -0.963,-4.861 -2.469,-13.174c0,-0.235 0.573,-0.419 1.719,-0.551c1.448,-0.412 2.521,-0.617 3.22,-0.617z" data-paper-data="{&quot;origPos&quot;:null}" fill="#000000" stroke-width="0.26458" stroke-linecap="butt"/><path d="M234.981,174.335c3.33,1.713 5.174,2.712 5.534,2.999c-0.477,2.234 -0.76,3.384 -0.848,3.45c-2.323,0 -4.645,0 -6.968,0c0,0.041 0,0.081 0,0.122c0.651,0.804 1.301,1.609 1.951,2.414c1.022,-0.522 2.044,-1.044 3.065,-1.566c0.302,0.522 0.735,1.434 1.301,2.734c-0.264,0.089 -2.194,0.372 -5.788,0.849c-2.976,-1.962 -4.476,-2.984 -4.498,-3.064c0.478,-3.815 0.761,-5.722 0.849,-5.722c3.109,-1.323 4.91,-2.062 5.402,-2.216zM234.265,177.003c-0.059,0.147 -0.449,0.731 -1.169,1.753c0,0.308 0.434,0.463 1.301,0.463c0,0.044 0.628,0.151 1.885,0.32c0.346,-0.478 0.518,-0.757 0.518,-0.838c-0.11,-0.654 -0.349,-0.981 -0.716,-0.981c-0.607,-0.239 -1.213,-0.478 -1.819,-0.717z" data-paper-data="{&quot;origPos&quot;:null}" fill="#000000" stroke-width="0.26458" stroke-linecap="butt"/><path d="M251.562,174.335c2.793,0.75 4.274,1.205 4.443,1.367c1.536,2.176 2.399,3.429 2.59,3.759c-0.992,3.146 -1.561,4.719 -1.708,4.719c-3.308,0.771 -5.039,1.157 -5.193,1.157c-2.734,-1.595 -4.189,-2.484 -4.366,-2.668c-0.095,-2.969 -0.143,-4.608 -0.143,-4.916c-0.044,-0.089 -0.066,-0.155 -0.066,-0.199c2.822,-2.146 4.281,-3.219 4.377,-3.219c0.022,0 0.044,0 0.066,0zM251.352,178.37c-0.044,0.294 -0.11,1.363 -0.198,3.208c0.819,0.184 1.639,0.368 2.458,0.551c0.588,-1.837 0.882,-2.818 0.882,-2.943c-1.955,-0.588 -3.002,-0.882 -3.142,-0.882c0,0.022 0,0.044 0,0.066z" data-paper-data="{&quot;origPos&quot;:null}" fill="#000000" stroke-width="0.26458" stroke-linecap="butt"/><path d="M262.895,170.995c1.617,0.286 3.234,0.573 4.85,0.86c-0.154,1.227 -0.308,2.454 -0.463,3.682c0.963,-0.052 1.669,-0.077 2.117,-0.077c0.235,0 0.47,0 0.706,0c0.051,-0.026 0.103,-0.052 0.154,-0.078c0.026,0.052 0.051,0.103 0.077,0.155c-0.154,2.234 -0.286,3.491 -0.397,3.77c-0.051,-0.029 -0.103,-0.059 -0.154,-0.088c-0.11,0 -1.102,-0.052 -2.977,-0.154c-0.102,1.727 -0.18,3.792 -0.231,6.195c-0.052,0.026 -0.103,0.052 -0.154,0.077c-2.367,-0.154 -3.778,-0.286 -4.234,-0.397c0.026,-0.102 0.052,-0.205 0.077,-0.308c0,-0.64 0.103,-2.624 0.309,-5.953c-1.984,-0.111 -2.976,-0.243 -2.976,-0.397c0.102,-2.455 0.235,-3.682 0.396,-3.682c0.967,0.183 1.933,0.367 2.9,0.551c0,-0.316 0,-0.632 0,-0.948c0,-0.772 -0.03,-1.816 -0.088,-3.131c0.058,0 0.088,-0.026 0.088,-0.077z" data-paper-data="{&quot;origPos&quot;:null}" fill="#000000" stroke-width="0.26458" stroke-linecap="butt"/><path d="M276.444,170.995c0.044,0.066 0.249,2.08 0.617,6.041c2.837,-0.867 4.347,-1.301 4.531,-1.301c0.937,0.64 1.874,1.279 2.811,1.918c-0.456,4.19 -0.753,6.637 -0.893,7.343c-1.301,0.044 -2.602,0.088 -3.902,0.132c0,-0.044 -0.026,-0.066 -0.078,-0.066c0.026,-0.092 0.052,-0.184 0.078,-0.276c0,-0.595 0.088,-2.403 0.264,-5.424c-1.073,-0.044 -1.87,-0.066 -2.392,-0.066c-0.092,0 -0.184,0 -0.276,0c0.316,3.359 0.474,5.189 0.474,5.49c-1.234,0.184 -2.469,0.368 -3.704,0.551c-0.139,-0.47 -0.963,-4.861 -2.469,-13.174c0,-0.235 0.573,-0.419 1.72,-0.551c1.447,-0.412 2.52,-0.617 3.219,-0.617z" data-paper-data="{&quot;origPos&quot;:null}" fill="#000000" stroke-width="0.26458" stroke-linecap="butt"/><path d="M291.69,174.335c3.33,1.713 5.174,2.712 5.534,2.999c-0.477,2.234 -0.76,3.384 -0.848,3.45c-2.323,0 -4.645,0 -6.968,0c0,0.041 0,0.081 0,0.122c0.651,0.804 1.301,1.609 1.952,2.414c1.021,-0.522 2.043,-1.044 3.064,-1.566c0.302,0.522 0.735,1.434 1.301,2.734c-0.264,0.089 -2.194,0.372 -5.788,0.849c-2.976,-1.962 -4.475,-2.984 -4.498,-3.064c0.478,-3.815 0.761,-5.722 0.849,-5.722c3.109,-1.323 4.91,-2.062 5.402,-2.216zM290.974,177.003c-0.059,0.147 -0.449,0.731 -1.169,1.753c0,0.308 0.434,0.463 1.301,0.463c0,0.044 0.628,0.151 1.885,0.32c0.346,-0.478 0.518,-0.757 0.518,-0.838c-0.11,-0.654 -0.349,-0.981 -0.716,-0.981c-0.607,-0.239 -1.213,-0.478 -1.819,-0.717z" data-paper-data="{&quot;origPos&quot;:null}" fill="#000000" stroke-width="0.26458" stroke-linecap="butt"/><path d="M306.143,174.324c1.455,0.816 2.348,1.345 2.679,1.588c-1.191,2.476 -1.83,3.737 -1.918,3.781c-0.026,0 -0.052,0 -0.077,0c-0.526,-0.459 -1.051,-0.919 -1.577,-1.378c-0.621,0.757 -1.242,1.514 -1.863,2.271c0.07,1.378 0.14,2.756 0.209,4.134c-0.095,0.088 -1.311,0.294 -3.649,0.617c-0.088,-0.632 -0.661,-3.73 -1.719,-9.293c0,-0.088 1.536,-0.316 4.608,-0.684c0.051,0.059 0.191,0.746 0.419,2.062c1.837,-2.065 2.8,-3.098 2.888,-3.098z" data-paper-data="{&quot;origPos&quot;:null}" fill="#000000" stroke-width="0.26458" stroke-linecap="butt"/><path d="M36.841,198.335c0.228,0.941 0.386,1.521 0.474,1.742c3.249,-0.742 4.965,-1.114 5.149,-1.114c2.212,3.183 3.318,4.844 3.318,4.983l-2.536,5.38l-5.457,-0.871c0,0.056 0,0.111 0,0.166c0.427,3.27 0.64,5.008 0.64,5.214c-0.052,0 -0.077,0.026 -0.077,0.077c-0.529,-0.051 -0.926,-0.077 -1.191,-0.077h-0.948c-0.551,0 -1.396,-0.025 -2.536,-0.077c-0.103,-0.309 -0.893,-5.001 -2.37,-14.078c0.25,-0.103 2.095,-0.551 5.534,-1.345zM37.238,202.844c0.147,1.69 0.28,2.536 0.397,2.536c1.507,0.521 2.429,0.782 2.767,0.782l0.871,-3.792c-0.026,0 -0.051,0 -0.077,0c-0.86,0.051 -2.179,0.209 -3.958,0.474z" data-paper-data="{&quot;origPos&quot;:null}" fill="#2b70c2" stroke-width="0.26458" stroke-linecap="butt"/><path d="M51.36,198.335c2.793,0.75 4.274,1.205 4.443,1.367c1.536,2.176 2.4,3.429 2.591,3.759c-0.992,3.146 -1.562,4.719 -1.709,4.719c-3.307,0.771 -5.038,1.157 -5.192,1.157c-2.734,-1.595 -4.19,-2.484 -4.366,-2.668c-0.096,-2.969 -0.143,-4.608 -0.143,-4.916c-0.044,-0.089 -0.066,-0.155 -0.066,-0.199c2.822,-2.146 4.281,-3.219 4.376,-3.219zM51.151,202.37c-0.044,0.294 -0.11,1.363 -0.199,3.208l2.459,0.551c0.588,-1.837 0.882,-2.818 0.882,-2.943c-1.955,-0.588 -3.002,-0.882 -3.142,-0.882z" data-paper-data="{&quot;origPos&quot;:null}" fill="#2b70c2" stroke-width="0.26458" stroke-linecap="butt"/><path d="M64.237,198.324c0.095,0.125 0.591,2.256 1.488,6.394c0.026,0 0.051,0 0.077,0c0,-0.095 0.544,-0.937 1.632,-2.524c0.455,0.308 1.323,0.977 2.602,2.006c0.051,0 0.102,0 0.154,0c0,-0.026 0,-0.051 0,-0.077c0.198,-2.866 0.345,-4.454 0.441,-4.763c3.028,0.155 4.542,0.28 4.542,0.375c-1.389,5.586 -2.131,8.489 -2.227,8.709c-0.463,0.052 -1.433,0.199 -2.91,0.441c-1.213,-1.903 -1.908,-2.917 -2.084,-3.042c-0.794,2.116 -1.29,3.281 -1.488,3.494c-0.993,0 -1.985,0 -2.977,0c-0.184,-0.058 -1.051,-1.969 -2.602,-5.732c-0.992,-2.102 -1.488,-3.241 -1.488,-3.418c0,-0.162 1.613,-0.783 4.84,-1.863z" data-paper-data="{&quot;origPos&quot;:null}" fill="#2b70c2" stroke-width="0.26458" stroke-linecap="butt"/><path d="M82.625,198.335c3.33,1.713 5.174,2.712 5.535,2.999c-0.478,2.234 -0.761,3.384 -0.849,3.45c-2.323,0 -4.645,0 -6.968,0c0,0.041 0,0.081 0,0.122c0.651,0.804 1.301,1.609 1.952,2.414l3.064,-1.566c0.302,0.522 0.735,1.434 1.301,2.734c-0.264,0.089 -2.194,0.372 -5.788,0.849c-2.976,-1.962 -4.475,-2.984 -4.497,-3.064c0.477,-3.815 0.76,-5.722 0.848,-5.722c3.109,-1.323 4.91,-2.062 5.402,-2.216zM81.909,201.003c-0.059,0.147 -0.449,0.731 -1.169,1.753c0,0.308 0.434,0.463 1.301,0.463c0,0.044 0.628,0.151 1.885,0.32c0.346,-0.478 0.518,-0.757 0.518,-0.838c-0.11,-0.654 -0.349,-0.981 -0.716,-0.981z" data-paper-data="{&quot;origPos&quot;:null}" fill="#2b70c2" stroke-width="0.26458" stroke-linecap="butt"/><path d="M97.078,198.324c1.455,0.816 2.348,1.345 2.679,1.588c-1.191,2.476 -1.83,3.737 -1.918,3.781c-0.026,0 -0.052,0 -0.077,0l-1.577,-1.378c-0.621,0.757 -1.242,1.514 -1.863,2.271c0.07,1.378 0.14,2.756 0.21,4.134c-0.096,0.088 -1.312,0.294 -3.649,0.617c-0.089,-0.632 -0.662,-3.73 -1.72,-9.293c0,-0.088 1.536,-0.316 4.608,-0.684c0.051,0.059 0.191,0.746 0.419,2.062c1.837,-2.065 2.8,-3.098 2.888,-3.098z" data-paper-data="{&quot;origPos&quot;:null}" fill="#2b70c2" stroke-width="0.26458" stroke-linecap="butt"/><path d="M115.125,198.324c2.117,1.352 3.285,2.131 3.506,2.337c-0.765,1.698 -1.202,2.547 -1.312,2.547l-4.013,-2.326c-0.048,0 -0.096,0 -0.143,0c0,0.073 -0.173,0.485 -0.519,1.234c3.697,1.992 5.546,3.014 5.546,3.065c-1.037,2.396 -1.621,3.66 -1.753,3.793c-2.091,0.121 -4.182,0.242 -6.273,0.363c-2.44,-1.617 -3.752,-2.469 -3.936,-2.557c0,-0.022 0,-0.044 0,-0.066c0,-0.184 0.364,-1.011 1.092,-2.481c1.631,0.849 3.263,1.698 4.895,2.547c0.121,-0.485 0.242,-0.97 0.363,-1.456c-3.028,-1.359 -4.828,-2.208 -5.402,-2.546c0,-0.052 0,-0.103 0,-0.154c0,-0.28 0.585,-1.518 1.753,-3.716z" data-paper-data="{&quot;origPos&quot;:null}" fill="#2b70c2" stroke-width="0.26458" stroke-linecap="butt"/><path d="M123.018,194.995l4.851,0.86c-0.154,1.227 -0.309,2.454 -0.463,3.682c0.963,-0.052 1.668,-0.077 2.117,-0.077c0.235,0 0.47,0 0.705,0c0.052,-0.026 0.103,-0.052 0.155,-0.078c0.025,0.052 0.051,0.103 0.077,0.155c-0.155,2.234 -0.287,3.491 -0.397,3.77l-0.154,-0.088c-0.111,0 -1.103,-0.052 -2.977,-0.154c-0.103,1.727 -0.18,3.792 -0.231,6.195l-0.155,0.077c-2.366,-0.154 -3.777,-0.286 -4.233,-0.397c0.026,-0.102 0.051,-0.205 0.077,-0.308c0,-0.64 0.103,-2.624 0.309,-5.953c-1.985,-0.111 -2.977,-0.243 -2.977,-0.397c0.103,-2.455 0.235,-3.682 0.397,-3.682c0.966,0.183 1.933,0.367 2.899,0.551c0,-0.316 0,-0.632 0,-0.948c0,-0.772 -0.029,-1.816 -0.088,-3.131c0.059,0 0.088,-0.026 0.088,-0.077z" data-paper-data="{&quot;origPos&quot;:null}" fill="#2b70c2" stroke-width="0.26458" stroke-linecap="butt"/><path d="M133.304,198.324c4.366,0.603 6.548,0.974 6.548,1.114c1.72,1.477 2.58,2.267 2.58,2.37c-0.698,2.183 -1.095,3.509 -1.19,3.98c0.698,1.55 1.095,2.476 1.19,2.778c0,0.088 -1.139,0.323 -3.417,0.705c-0.03,-0.125 -0.239,-0.404 -0.629,-0.838c-3.145,0.603 -4.839,0.904 -5.082,0.904l-1.676,-4.531l3.693,-1.951c0.596,0.096 1.526,0.143 2.79,0.143c0,-0.161 0.022,-0.65 0.066,-1.466c-0.213,0 -2.117,0.14 -5.711,0.419l-0.066,-0.143c0.5,-2.323 0.801,-3.484 0.904,-3.484zM135.597,204.806c0,0.081 0.235,0.941 0.706,2.58c0.022,0 0.044,0 0.066,0c0.926,-0.603 1.389,-1 1.389,-1.191l0.143,-1.179c-0.176,0 -0.944,-0.07 -2.304,-0.21z" data-paper-data="{&quot;origPos&quot;:null}" fill="#2b70c2" stroke-width="0.26458" stroke-linecap="butt"/><path d="M151.406,198.324c1.455,0.816 2.348,1.345 2.679,1.588c-1.191,2.476 -1.83,3.737 -1.918,3.781c-0.026,0 -0.052,0 -0.078,0c-0.525,-0.459 -1.051,-0.919 -1.576,-1.378c-0.621,0.757 -1.242,1.514 -1.863,2.271l0.209,4.134c-0.095,0.088 -1.312,0.294 -3.649,0.617c-0.088,-0.632 -0.661,-3.73 -1.72,-9.293c0,-0.088 1.537,-0.316 4.609,-0.684c0.051,0.059 0.191,0.746 0.419,2.062c1.837,-2.065 2.8,-3.098 2.888,-3.098z" data-paper-data="{&quot;origPos&quot;:null}" fill="#2b70c2" stroke-width="0.26458" stroke-linecap="butt"/><path d="M163.852,198.324c2.117,1.352 3.286,2.131 3.506,2.337c-0.764,1.698 -1.202,2.547 -1.312,2.547c-1.337,-0.776 -2.675,-1.551 -4.013,-2.326c-0.047,0 -0.095,0 -0.143,0c0,0.073 -0.173,0.485 -0.518,1.234c3.697,1.992 5.545,3.014 5.545,3.065c-1.036,2.396 -1.62,3.66 -1.753,3.793c-2.091,0.121 -4.182,0.242 -6.273,0.363c-2.44,-1.617 -3.751,-2.469 -3.935,-2.557c0,-0.022 0,-0.044 0,-0.066c0,-0.184 0.364,-1.011 1.091,-2.481l4.895,2.547l0.364,-1.456c-3.028,-1.359 -4.829,-2.208 -5.402,-2.546c0,-0.052 0,-0.103 0,-0.154c0,-0.28 0.584,-1.518 1.753,-3.716c2.065,-0.194 4.13,-0.389 6.195,-0.584z" data-paper-data="{&quot;origPos&quot;:null}" fill="#2b70c2" stroke-width="0.26458" stroke-linecap="butt"/><path d="M168.582,205.942c0.051,0.029 1.198,0.117 3.439,0.264c0.015,0.03 0.03,0.059 0.044,0.089c-0.345,2.028 -0.565,3.042 -0.661,3.042c-0.853,0 -1.705,0 -2.558,0c-0.088,0 -0.205,-1.014 -0.352,-3.042c-0.03,0 -0.044,-0.089 -0.044,-0.265c0.088,-0.029 0.132,-0.059 0.132,-0.088z" data-paper-data="{&quot;origPos&quot;:null}" fill="#000000" stroke-width="0.26458" stroke-linecap="butt"/><path d="M199.0674,151.6924l-0.3264,-0.4213l0.2829,-0.8647l0.5004,-0.2217h5.1569l2.2629,-5.2105l0.5005,-0.4213l0.5004,0.0222l0.6093,0.4656l2.437,5.0775l5.2221,-0.0887l0.5222,0.3104l0.4134,0.5099l-0.4134,0.9091l-2.981,3.5254l0.8704,5.3435l0.0435,0.8425l-0.544,0.2883l-0.9573,-0.1774l-5.0046,-3.5476l-4.2647,3.991l-0.9574,0.1774l-0.6963,-0.3769l-0.2394,-1.0421l0.5005,-4.9666z" data-paper-data="{&quot;origPos&quot;:null}" fill="url(#color-4)" stroke-width="0.43933" stroke-linecap="round"/><path d="M200.0684,151.9369l-0.2923,-0.3702l0.2534,-0.7599l0.4481,-0.1949h4.6182l2.0265,-4.5792l0.4482,-0.3702l0.4482,0.0195l0.5456,0.4092l2.1824,4.4622l4.6766,-0.0779l0.4677,0.2728l0.3702,0.4482l-0.3702,0.7989l-2.6696,3.0982l0.7794,4.6961l0.039,0.7405l-0.4871,0.2533l-0.8574,-0.1559l-4.4818,-3.1177l-3.8192,3.5075l-0.8574,0.1558l-0.6235,-0.3312l-0.2144,-0.9159l0.4482,-4.3648z" data-paper-data="{&quot;origPos&quot;:null}" fill="url(#color-5)" stroke-width="0.38972" stroke-linecap="round"/><path d="M200.27,151.2525l5.2703,-0.1322l2.1808,-5.2208l2.6104,5.1712l5.6999,-0.0165l-3.6017,3.866l1.0409,5.419l-5.3199,-3.6181l-4.8904,3.9651l0.6279,-5.3695z" data-paper-data="{&quot;origPos&quot;:null}" fill="url(#color-6)" stroke-width="0.33043" stroke-linecap="round"/><g data-paper-data="{&quot;origPos&quot;:null}" stroke-width="0.8465"><path d="M209.2337,151.4717c0.2148,-0.0083 0.4289,0.1695 0.5191,0.3888c0.1635,0.398 0.1811,0.8725 0.1689,1.3156c-0.0084,0.4091 -0.0734,0.832 -0.2293,1.1977c-0.0895,0.2147 -0.2507,0.4625 -0.4587,0.4607c-0.2002,-0.0018 -0.3707,-0.1566 -0.4808,-0.4349c-0.1406,-0.3519 -0.2071,-0.7739 -0.2071,-1.2695c0,-0.4957 0.0512,-0.9011 0.2071,-1.2696c0.1025,-0.2432 0.2981,-0.3971 0.4808,-0.3888z" fill="url(#color-7)" stroke-linecap="round"/><path d="M209.2489,151.7099c0.1108,0 0.211,0.0543 0.2836,0.1419c0.0726,0.0875 0.1177,0.2082 0.1177,0.3418c0,0.1336 -0.0451,0.2543 -0.1177,0.3418c-0.0726,0.0875 -0.1728,0.1419 -0.2836,0.1419c-0.1108,0 -0.211,-0.0544 -0.2836,-0.1419c-0.0726,-0.0875 -0.1177,-0.2082 -0.1177,-0.3418c0,-0.1336 0.0451,-0.2543 0.1177,-0.3418c0.0726,-0.0876 0.1728,-0.1419 0.2836,-0.1419z" fill="#ffffff" stroke-linecap="butt"/></g><g data-paper-data="{&quot;origPos&quot;:null}" stroke-width="0.8465"><path d="M206.3837,151.4717c0.2148,-0.0083 0.4289,0.1695 0.5191,0.3888c0.1635,0.398 0.1811,0.8725 0.1689,1.3156c-0.0084,0.4091 -0.0734,0.832 -0.2293,1.1977c-0.0895,0.2147 -0.2507,0.4625 -0.4587,0.4607c-0.2002,-0.0018 -0.3707,-0.1566 -0.4808,-0.4349c-0.1406,-0.3519 -0.2071,-0.7739 -0.2071,-1.2695c0,-0.4957 0.0512,-0.9011 0.2071,-1.2696c0.1025,-0.2432 0.2981,-0.3971 0.4808,-0.3888z" fill="url(#color-8)" stroke-linecap="round"/><path d="M206.4989,151.7099c0.1108,0 0.211,0.0543 0.2836,0.1419c0.0726,0.0875 0.1177,0.2082 0.1177,0.3418c0,0.1336 -0.0451,0.2543 -0.1177,0.3418c-0.0726,0.0875 -0.1728,0.1419 -0.2836,0.1419c-0.1108,0 -0.211,-0.0544 -0.2836,-0.1419c-0.0726,-0.0875 -0.1177,-0.2082 -0.1177,-0.3418c0,-0.1336 0.0451,-0.2543 0.1177,-0.3418c0.0726,-0.0876 0.1728,-0.1419 0.2836,-0.1419z" fill="#ffffff" stroke-linecap="butt"/></g><g data-paper-data="{&quot;origPos&quot;:null}" fill="#2b70c2" stroke-width="0.23046" stroke-linecap="butt"><path d="M235.6339,146.6298c1.2586,0.1986 2.5164,0.3972 3.7742,0.5949c-0.4739,1.8118 -0.7839,2.7177 -0.9311,2.7177c-1.9852,-0.1342 -2.9773,-0.2657 -2.9773,-0.3937c0,-0.9277 0,-1.8562 0,-2.7848c0.0192,-0.0897 0.0645,-0.1341 0.1342,-0.1341zM234.5781,151.2002c0.0192,0 0.0384,0 0.0575,0c2.9189,0.5322 4.3788,0.8423 4.3788,0.932c-0.8388,4.7498 -1.3475,7.3969 -1.527,7.9413c-1.0147,0 -2.0295,0 -3.0443,0c-0.0897,0 -0.1341,-0.0444 -0.1341,-0.1341z"/><path d="M246.9719,150.5094c2.7203,0.0706 4.0809,0.189 4.0809,0.3554c0.4677,7.0868 0.7011,10.8567 0.7011,11.3114c-2.0617,1.3127 -3.5373,2.2029 -4.4266,2.6698c-3.1367,-0.986 -4.7054,-1.5496 -4.7054,-1.6898c1.0113,-1.4791 1.5975,-2.2282 1.7569,-2.2473c1.7099,0.8449 2.6924,1.2673 2.9485,1.2673c0.304,-0.3998 0.608,-0.7996 0.912,-1.2003c-0.243,-0.9921 -0.4068,-1.5774 -0.4896,-1.7569c-0.1411,0 -1.8762,0.2814 -5.2045,0.8449c-1.8248,-2.9641 -2.7368,-4.4841 -2.7368,-4.5616c1.5749,-2.5156 2.5348,-3.9912 2.8806,-4.4267c0.0226,0 0.0453,0 0.067,0c0.1856,0 1.5688,0.304 4.1488,0.912c0,-0.0697 0,-0.1402 0,-0.2108c0,-0.25 -0.0226,-0.6498 -0.067,-1.2003zM243.9563,154.5807c0.0898,0.1986 0.372,1.2552 0.845,3.1689c0.5957,-0.1917 1.5077,-0.5444 2.7368,-1.0566c-0.2369,-1.1524 -0.3554,-1.8083 -0.3554,-1.9686l-0.3449,-0.0671c-0.1412,0 -0.2823,0 -0.4225,0c-0.5383,0 -1.358,-0.0252 -2.459,-0.0766z"/><path d="M225.7302,147.4078c0.0226,0.0418 0.0453,0.0836 0.0671,0.1246c0,0.3649 0.0836,1.7769 0.2499,4.235c2.2918,-0.73 3.5757,-1.1141 3.8509,-1.1524l3.4564,3.7167c-1.4529,3.2578 -2.2439,4.9868 -2.3719,5.1854c-0.4033,-0.0453 -1.8754,-0.1089 -4.4171,-0.1925c0,0.1507 0,0.3014 0,0.4512c0,0.0836 -0.0444,0.1254 -0.1341,0.1254c-1.2386,0 -2.4773,0 -3.7159,0c-0.135,0 -0.3911,-1.9206 -0.7683,-5.762c-0.0836,-0.3266 -0.317,-2.2499 -0.7012,-5.7715c2.1768,-0.5122 3.6715,-0.8319 4.4842,-0.9599zM226.3739,154.4563c0.0827,0.79 0.1664,1.5809 0.2491,2.3719c0.6437,0 1.2874,0 1.9302,0c0.2344,-0.8963 0.4678,-1.7927 0.7012,-2.689c-1.9206,0.1664 -2.8805,0.2718 -2.8805,0.3171z"/></g></g></g></g></svg>