<svg version="1.1" xmlns="http://www.w3.org/2000/svg" xmlns:xlink="http://www.w3.org/1999/xlink" width="571.08501" height="241.83437" viewBox="0,0,571.08501,241.83437"><defs><linearGradient x1="172.7" y1="257.13291" x2="172.7" y2="122.03291" gradientUnits="userSpaceOnUse" id="color-1"><stop offset="0" stop-color="#ea742e"/><stop offset="1" stop-color="#c37f10"/></linearGradient><linearGradient x1="305.34348" y1="229.26668" x2="91.68531" y2="322.1606" gradientUnits="userSpaceOnUse" id="color-2"><stop offset="0" stop-color="#ea742e"/><stop offset="1" stop-color="#c37f10"/></linearGradient><linearGradient x1="96.89509" y1="232.81451" x2="97.28302" y2="361.18801" gradientUnits="userSpaceOnUse" id="color-3"><stop offset="0" stop-color="#935f0a"/><stop offset="1" stop-color="#de7b19"/></linearGradient><linearGradient x1="178.71642" y1="231.81451" x2="179.28301" y2="360.18801" gradientUnits="userSpaceOnUse" id="color-4"><stop offset="0" stop-color="#935f0a"/><stop offset="1" stop-color="#de7b19"/></linearGradient><linearGradient x1="9.00002" y1="228.00001" x2="9.00002" y2="271.00001" gradientUnits="userSpaceOnUse" id="color-5"><stop offset="0" stop-color="#ffc96b"/><stop offset="1" stop-color="#ffc96b" stop-opacity="0"/></linearGradient><linearGradient x1="270.7" y1="157.03291" x2="270.7" y2="361.13291" gradientUnits="userSpaceOnUse" id="color-6"><stop offset="0" stop-color="#ea742e"/><stop offset="1" stop-color="#c37f10"/></linearGradient></defs><g transform="translate(86.01783,-120.66572)"><g data-paper-data="{&quot;isPaintingLayer&quot;:true}" fill="none" fill-rule="nonzero" stroke="none" stroke-width="none" stroke-linecap="none" stroke-linejoin="miter" stroke-miterlimit="10" stroke-dasharray="" stroke-dashoffset="0" font-family="none" font-weight="none" font-size="none" text-anchor="none" style="mix-blend-mode: normal"><path d="M172.7,122.03291h50v135.1h-50z" data-paper-data="{&quot;origPos&quot;:null,&quot;index&quot;:null}" id="ID0.17253359453752637" fill="url(#color-1)" stroke="#964f17" stroke-width="2.73437" stroke-linecap="butt"/><path d="M91.68531,322.1606l-35.02882,-71.75127l213.65818,-92.89393l35.02882,71.75127z" data-paper-data="{&quot;origPos&quot;:null,&quot;origRot&quot;:0,&quot;index&quot;:null}" id="ID0.17253359453752637" fill="url(#color-2)" stroke="#964f17" stroke-width="2.10912" stroke-linecap="butt"/><path d="M97.28302,361.18801l-177.6502,1.1452l-0.388,-128.3735l177.65027,-1.1452z" data-paper-data="{&quot;origPos&quot;:null}" id="ID0.29126935824751854" fill="url(#color-3)" stroke="#372403" stroke-width="0" stroke-linecap="butt"/><path d="M-49.53553,336.46448c-0.0476,0.0889 -0.11935,0.16399 -0.20301,0.23171c-0.01043,-0.01399 -0.02093,-0.02795 -0.0315,-0.04186c0.16471,-0.16122 0.29477,-0.30241 0.23451,-0.18985z" data-paper-data="{&quot;origPos&quot;:null}" id="ID0.29126935824751854" fill="url(#color-4)" stroke="#372403" stroke-width="0" stroke-linecap="butt"/><g data-paper-data="{&quot;origPos&quot;:null}" stroke-linecap="round"><g stroke-width="0.5"><g data-paper-data="{&quot;origPos&quot;:null,&quot;origRot&quot;:0}" stroke="#665415"><path d="M7.74614,284.38076l-4.05633,-3.20797l-1.82342,-5.10504l-0.42418,-3.63215l2.61587,-5.62348l2.11803,-6.38349l3.47606,-12.26914l1.37271,4.7486l4.66902,8.4544l3.88841,5.27296l2.36839,6.26863l0.37704,3.22857l-0.7394,4.17711l-2.49509,3.15492l-3.94145,1.27846l1.41393,12.10715l-6.41003,1.15767l0.96037,-12.7935z" data-paper-data="{&quot;origPos&quot;:null}" fill="#9fa827"/><path d="M11.22392,286.83814l-0.63854,-30.68793l4.72256,29.2292" data-paper-data="{&quot;origPos&quot;:null}" fill="none"/><path d="M18.84761,276.45725l-3.78239,4.04159" data-paper-data="{&quot;origPos&quot;:null}" fill="none"/><path d="M14.53734,275.97884l2.85153,-3.60562" data-paper-data="{&quot;origPos&quot;:null}" fill="none"/><path d="M13.47689,272.50282l2.56638,-3.24506" data-paper-data="{&quot;origPos&quot;:null}" fill="none"/><path d="M12.91132,267.65995l1.38806,-2.12565" data-paper-data="{&quot;origPos&quot;:null}" fill="none"/><path d="M13.1258,261.0897l-1.42576,1.8028l-3.53021,-2.20581" data-paper-data="{&quot;origPos&quot;:null}" fill="none"/><path d="M6.50364,277.24431l4.0793,4.10525" data-paper-data="{&quot;origPos&quot;:null}" fill="none"/><path d="M10.37792,276.79186l-2.99761,-3.2498" data-paper-data="{&quot;origPos&quot;:null}" fill="none"/><path d="M7.32613,270.27579l3.20735,2.24352" data-paper-data="{&quot;origPos&quot;:null}" fill="none"/><path d="M10.25306,267.31588l-2.52394,-1.99607" data-paper-data="{&quot;origPos&quot;:null}" fill="none"/></g><g data-paper-data="{&quot;origPos&quot;:null,&quot;origRot&quot;:0}" stroke="#665415"><path d="M57.13693,251.21111l-4.7041,2.14855l-5.37505,-0.70354l-3.42634,-1.27778l-3.81334,-4.89128l-4.71672,-4.79453l-9.3367,-8.68568l4.85238,0.94227l9.65323,-0.30289l6.46564,-1.058l6.65914,0.74877l3.04563,1.1358l3.38111,2.56185l1.6711,3.65874l-0.65834,4.09098l11.42109,4.25922l-1.89088,6.23323l-10.94995,-6.68542z" data-paper-data="{&quot;origPos&quot;:null}" fill="#9fa827"/><path d="M60.90925,249.23544l-27.60665,-13.4175l28.16949,9.11746" data-paper-data="{&quot;origPos&quot;:null}" fill="none"/><path d="M57.01723,242.92714l-1.87366,-5.20868" data-paper-data="{&quot;origPos&quot;:null}" fill="none"/><path d="M50.84352,237.15563l1.90984,4.18141" data-paper-data="{&quot;origPos&quot;:null}" fill="none"/><path d="M49.17602,240.69679l-1.71885,-3.76327" data-paper-data="{&quot;origPos&quot;:null}" fill="none"/><path d="M44.60758,238.9931l-1.25947,-2.20428" data-paper-data="{&quot;origPos&quot;:null}" fill="none"/><path d="M38.85707,235.80783l0.95492,2.09071l-3.57229,2.13699" data-paper-data="{&quot;origPos&quot;:null}" fill="none"/><path d="M50.21845,249.06468l5.51324,-1.76009" data-paper-data="{&quot;origPos&quot;:null}" fill="none"/><path d="M47.32257,246.59705l4.25882,-1.18713" data-paper-data="{&quot;origPos&quot;:null}" fill="none"/><path d="M47.84924,243.32427l-3.45871,1.83243" data-paper-data="{&quot;origPos&quot;:null}" fill="none"/><path d="M40.16282,242.53933l2.927,-1.33689" data-paper-data="{&quot;origPos&quot;:null}" fill="none"/></g><g data-paper-data="{&quot;origPos&quot;:null,&quot;origRot&quot;:0}" stroke="#674116"><path d="M67.57523,283.7129l-4.93744,-1.53832l-3.53421,-4.11043l-1.69956,-3.23789l0.4232,-6.18766l-0.31425,-6.71836l-1.15917,-12.69927l2.98561,3.9395l7.39236,6.21527l5.52188,3.52599l4.4605,5.00088l1.51072,2.87812l0.80912,4.16417l-1.19648,3.84024l-3.21998,2.60793l5.6652,10.79295l-5.5674,3.38121l-3.69544,-12.28576z" fill="#a87927"/><path d="M71.70328,284.75831l-11.61046,-28.41399l14.89879,25.58661" fill="none"/><path d="M73.01335,277.46268l2.07977,-5.12986" fill="none"/><path d="M72.26574,269.04447l-1.3674,4.38884" fill="none"/><path d="M68.66093,270.56953l1.23066,-3.94996" fill="none"/><path d="M66.92747,263.77011l-0.53262,2.48223" fill="none"/><path d="M64.23686,260.04289l-0.6837,2.19442l-4.0867,-0.79178" fill="none"/><path d="M69.13505,279.8655l-5.28094,-2.36758" fill="none"/><path d="M63.34357,273.72772l3.96429,1.95735" fill="none"/><path d="M62.12066,270.69852l3.79889,0.94284" fill="none"/><path d="M63.79022,266.8853l-3.07219,-0.95718" fill="none"/></g><g data-paper-data="{&quot;origPos&quot;:null,&quot;origRot&quot;:0}" stroke="#661515"><path d="M30.79336,285.61404l-4.83875,-1.8252l-3.28712,-4.31057l-1.50679,-3.33197l0.7853,-6.1522l0.08022,-6.72522l-0.41256,-12.74539l2.74948,4.10778l7.01522,6.63804l5.30562,3.8437l4.1596,5.25381l1.33937,2.96175l0.56354,4.20445l-1.41958,3.76346l-3.36734,2.41465l5.02261,11.10657l-5.75609,3.04893l-2.9687,-12.48129z" data-paper-data="{&quot;origPos&quot;:null}" fill="#a85a27"/><path d="M34.85301,286.8997l-9.92442,-29.04588l13.37288,26.41618" data-paper-data="{&quot;origPos&quot;:null}" fill="none"/><path d="M36.58861,279.69344l2.37698,-4.99909" data-paper-data="{&quot;origPos&quot;:null}" fill="none"/><path d="M36.33588,271.24589l-1.62239,4.30109" data-paper-data="{&quot;origPos&quot;:null}" fill="none"/><path d="M34.10799,268.68593l-1.46014,3.87101" data-paper-data="{&quot;origPos&quot;:null}" fill="none"/><path d="M30.63881,268.11431l0.67726,-2.44673" data-paper-data="{&quot;origPos&quot;:null}" fill="none"/><path d="M28.84861,261.789l-0.81119,2.15056l-4.03324,-1.03004" data-paper-data="{&quot;origPos&quot;:null}" fill="none"/><path d="M32.57608,281.86472l-5.13303,-2.67315" data-paper-data="{&quot;origPos&quot;:null}" fill="none"/><path d="M27.15445,275.3979l3.84269,2.18644" data-paper-data="{&quot;origPos&quot;:null}" fill="none"/><path d="M26.11128,272.30222l3.73707,1.16397" data-paper-data="{&quot;origPos&quot;:null}" fill="none"/><path d="M28.00154,268.59344l-3.01078,-1.13566" data-paper-data="{&quot;origPos&quot;:null}" fill="none"/></g><g data-paper-data="{&quot;origPos&quot;:null,&quot;origRot&quot;:0}" stroke="#665415"><path d="M85.66657,271.57601l-3.91268,-3.38169l-1.59921,-5.17965l-0.26549,-3.64718l2.85845,-5.50414l2.39421,-6.28512l4.00743,-12.10601l1.16448,4.80391l4.29615,8.64984l3.65493,5.4374l2.09296,6.36588l0.23598,3.24193l-0.92073,4.14092l-2.63021,3.04318l-3.99343,1.10548l0.88498,12.15726l-6.45439,0.87723l1.51699,-12.73949z" data-paper-data="{&quot;origPos&quot;:null}" fill="#9fa827"/><path d="M89.03396,274.18261l0.69941,-30.6866l3.4443,29.40723" data-paper-data="{&quot;origPos&quot;:null}" fill="none"/><path d="M93.14789,268.01674l3.95493,-3.87292" data-paper-data="{&quot;origPos&quot;:null}" fill="none"/><path d="M92.81748,263.47803l3.00595,-3.47793" data-paper-data="{&quot;origPos&quot;:null}" fill="none"/><path d="M94.61485,256.82897l-2.70535,3.13013" data-paper-data="{&quot;origPos&quot;:null}" fill="none"/><path d="M91.55551,255.09618l1.47938,-2.06315" data-paper-data="{&quot;origPos&quot;:null}" fill="none"/><path d="M92.05612,248.54151l-1.50297,1.73896l-3.43072,-2.35755" data-paper-data="{&quot;origPos&quot;:null}" fill="none"/><path d="M88.63278,268.67132l-3.89653,-4.27912" data-paper-data="{&quot;origPos&quot;:null}" fill="none"/><path d="M85.77342,260.73167l2.85314,3.37734" data-paper-data="{&quot;origPos&quot;:null}" fill="none"/><path d="M85.86164,257.46612l3.10653,2.38116" data-paper-data="{&quot;origPos&quot;:null}" fill="none"/><path d="M86.48022,252.53243l2.43456,2.10416" data-paper-data="{&quot;origPos&quot;:null}" fill="none"/></g><g data-paper-data="{&quot;origPos&quot;:null,&quot;origRot&quot;:0}" stroke="#674116"><path d="M60.42717,297.77757l-4.39291,2.72895l-5.4209,-0.01477l-3.56094,-0.83197l-4.40402,-4.36702l-5.28778,-4.15624l-10.3648,-7.42873l4.93279,0.31799l9.53647,-1.5272l6.27876,-1.87108l6.70031,-0.10357l3.16527,0.73954l3.67927,2.1114l2.12252,3.4167l-0.13312,4.14148l11.86977,2.77327l-1.08342,6.42297l-11.71077,-5.23965z" fill="#a87927"/><path d="M63.91782,295.33853l-29.08796,-9.80039l29.09978,5.46367" fill="none"/><path d="M59.25568,289.57598l-2.5204,-4.92834" fill="none"/><path d="M54.82432,288.54064l-2.42573,-3.90481" fill="none"/><path d="M51.19461,288.36019l-2.18315,-3.51432" fill="none"/><path d="M44.91731,285.22454l1.5294,2.02635" fill="none"/><path d="M40.33802,284.82223l1.21287,1.9524l-3.27176,2.57364" fill="none"/><path d="M53.29199,296.52777l5.24487,-2.44645" fill="none"/><path d="M54.17944,292.72943l-4.07342,1.71874" fill="none"/><path d="M50.21249,291.13498l-3.19779,2.25711" fill="none"/><path d="M42.48865,291.33321l2.73336,-1.698" fill="none"/></g><g data-paper-data="{&quot;origPos&quot;:null,&quot;origRot&quot;:0}" stroke="#674116"><path d="M85.15941,259.53l2.79174,4.35327l0.06306,5.42055l-0.78077,3.5725l-4.30334,4.46628l-4.07989,5.34692l-7.27914,10.47038l0.24713,-4.93684l-1.66396,-9.51357l-1.96104,-6.25124l-0.19975,-6.69813l0.69402,-3.17557l2.05835,-3.7092l3.38589,-2.17136l4.14295,0.07364l2.60256,-11.90836l6.43787,0.99108l-5.07097,11.78479z" fill="#dea433"/><path d="M82.6705,256.07471l-9.38174,29.22567l5.04531,-29.17522" fill="none"/><path d="M72.08382,263.41001l4.89165,-2.5909" fill="none"/><path d="M72.13429,267.74644l3.86957,-2.48155" fill="none"/><path d="M75.87556,268.8968l-3.48262,2.23339" fill="none"/><path d="M74.83454,273.66015l-2.00419,1.55833" fill="none"/><path d="M72.49384,279.80307l1.93479,-1.24077l2.62035,3.23447" fill="none"/><path d="M84.01218,266.68237l-2.5215,-5.2092" fill="none"/><path d="M81.97852,269.89788l-1.77703,-4.04833" fill="none"/><path d="M78.66415,269.83898l2.3028,3.16506" fill="none"/><path d="M78.97328,277.55919l-1.73709,-2.70871" fill="none"/></g><g data-paper-data="{&quot;origPos&quot;:null,&quot;origRot&quot;:0}" stroke="#665415"><path d="M56.51017,279.92465l4.95087,-1.49457l5.23109,1.42196l3.22272,1.72815l3.11891,5.36084l4.02709,5.3868l8.08013,9.86542l-4.68099,-1.58802l-9.6059,-1.00163l-6.54925,0.17642l-6.49735,-1.63994l-2.86464,-1.53613l-3.00476,-2.9944l-1.16245,-3.85067l1.204,-3.96483l-10.7424,-5.76047l2.71418,-5.9213l9.94838,8.10098z" data-paper-data="{&quot;origPos&quot;:null}" fill="#ded633"/><path d="M52.50589,281.37358l25.54511,17.01777l-26.68268,-12.83291" data-paper-data="{&quot;origPos&quot;:null}" fill="none"/><path d="M56.6658,293.56288l-1.15414,-5.41377" data-paper-data="{&quot;origPos&quot;:null}" fill="none"/><path d="M59.52216,290.29967l1.32852,4.40077" data-paper-data="{&quot;origPos&quot;:null}" fill="none"/><path d="M62.98048,291.41649l1.19567,3.96069" data-paper-data="{&quot;origPos&quot;:null}" fill="none"/><path d="M68.22817,296.07467l-0.95072,-2.35399" data-paper-data="{&quot;origPos&quot;:null}" fill="none"/><path d="M72.54589,297.65233l-0.66425,-2.20038l3.82784,-1.63574" data-paper-data="{&quot;origPos&quot;:null}" fill="none"/><path d="M57.37577,283.985l5.70024,-1.00053" data-paper-data="{&quot;origPos&quot;:null}" fill="none"/><path d="M61.23263,286.42204l4.38001,-0.60197" data-paper-data="{&quot;origPos&quot;:null}" fill="none"/><path d="M68.32369,287.64266l-3.67423,1.34927" data-paper-data="{&quot;origPos&quot;:null}" fill="none"/><path d="M69.07927,291.73618l3.08054,-0.92995" data-paper-data="{&quot;origPos&quot;:null}" fill="none"/></g><g data-paper-data="{&quot;origPos&quot;:null,&quot;origRot&quot;:0}" stroke="#661515"><path d="M61.90026,263.02709l-0.52751,5.14457l-3.327,4.27987l-2.83604,2.30853l-6.14852,0.8136l-6.52226,1.64173l-12.21638,3.65719l3.26839,-3.70827l4.62402,-8.47909l2.35961,-6.11196l4.01584,-5.3645l2.52093,-2.05203l3.92066,-1.61967l4.00133,0.41029l3.19526,2.63816l9.45348,-7.69508l4.41916,4.78535l-11.3076,6.06089z" data-paper-data="{&quot;origPos&quot;:null}" fill="#de7633"/><path d="M62.10536,258.77368l-25.54353,17.02014l22.11963,-19.68174" data-paper-data="{&quot;origPos&quot;:null}" fill="none"/><path d="M49.25423,257.91803l5.44064,1.01997" data-paper-data="{&quot;origPos&quot;:null}" fill="none"/><path d="M51.16557,261.81084l-4.57294,-0.46892" data-paper-data="{&quot;origPos&quot;:null}" fill="none"/><path d="M48.80296,264.57225l-4.11566,-0.42202" data-paper-data="{&quot;origPos&quot;:null}" fill="none"/><path d="M45.02156,267.65028l-2.53857,-0.02925" data-paper-data="{&quot;origPos&quot;:null}" fill="none"/><path d="M39.36411,270.99804l2.28647,0.23445l0.03528,4.16253" data-paper-data="{&quot;origPos&quot;:null}" fill="none"/><path d="M57.81978,262.26211l-1.27207,5.64584" data-paper-data="{&quot;origPos&quot;:null}" fill="none"/><path d="M54.08529,264.88284l-1.1314,4.27396" data-paper-data="{&quot;origPos&quot;:null}" fill="none"/><path d="M50.39768,267.04629l-0.16992,3.91045" data-paper-data="{&quot;origPos&quot;:null}" fill="none"/><path d="M46.15899,270.07741l-0.32822,3.20106" data-paper-data="{&quot;origPos&quot;:null}" fill="none"/></g><g data-paper-data="{&quot;origPos&quot;:null,&quot;origRot&quot;:0}" stroke="#674116"><path d="M59.52959,233.33986l4.72079,-2.11164l5.36938,0.74565l3.41622,1.30459l3.77489,4.92102l4.679,4.83134l9.26834,8.75859l-4.84485,-0.98028l-9.6553,0.22724l-6.47373,1.00729l-6.65307,-0.80094l-3.03663,-1.15963l-3.36093,-2.58826l-1.64238,-3.67173l0.69038,-4.08569l-11.38736,-4.34861l1.93967,-6.2182l10.89721,6.77102z" fill="#dea433"/><path d="M55.7419,235.28589l27.50066,13.63345l-28.09718,-9.33794" fill="none"/><path d="M59.58436,241.62451l1.83278,5.2232" fill="none"/><path d="M63.83564,243.24798l1.877,4.19625" fill="none"/><path d="M69.09713,247.69287l-1.68929,-3.77663" fill="none"/><path d="M71.96279,245.65568l1.24217,2.21409" fill="none"/><path d="M77.68817,248.88592l-0.9385,-2.09813l3.58893,-2.10893" fill="none"/><path d="M60.90418,237.25726l5.52687,-1.71682" fill="none"/><path d="M65.03949,239.18441l4.26799,-1.15373" fill="none"/><path d="M72.22815,239.49397l-3.47296,1.80527" fill="none"/><path d="M73.49781,243.4583l2.93738,-1.3139" fill="none"/></g><g data-paper-data="{&quot;origPos&quot;:null,&quot;origRot&quot;:0}" stroke="#674116"><path d="M-3.32024,248.75571l4.31246,2.85437l2.24753,4.93304l0.72905,3.58342l-2.1322,5.82409l-1.57202,6.5394l-2.42876,12.51864l-1.76837,-4.61589l-5.36553,-8.03042l-4.31933,-4.92617l-2.88871,-6.0465l-0.64804,-3.18526l0.38441,-4.22459l2.22008,-3.35415l3.81958,-1.60636l-2.43015,-11.94473l6.28952,-1.69424l0.12221,12.82893z" fill="#a87927"/><path d="M-6.99291,246.60045l3.22484,30.5247l-7.17127,-28.72667" fill="none"/><path d="M-13.71379,257.58741l3.428,-4.34623" fill="none"/><path d="M-11.91576,261.53384l2.53722,-3.8333" fill="none"/><path d="M-8.02864,261.07471l-2.28351,3.44997" fill="none"/><path d="M-8.2604,268.08779l1.20381,-2.23518" fill="none"/><path d="M-6.71608,272.41755l1.26861,-1.91665l3.7037,1.90017" fill="none"/><path d="M-1.48018,255.76192l-4.41105,-3.74653" fill="none"/><path d="M-5.3025,256.53956l3.26105,2.98535" fill="none"/><path d="M-1.71193,262.77499l-3.38517,-1.96497" fill="none"/><path d="M-4.37877,265.97123l2.68332,1.77606" fill="none"/></g><g data-paper-data="{&quot;origPos&quot;:null,&quot;origRot&quot;:0}" stroke="#665415"><path d="M-16.95346,258.01309l2.81423,4.33877l0.09112,5.42014l-0.76228,3.5765l-4.28017,4.48848l-4.05217,5.36795l-7.22487,10.50791l0.22158,-4.93806l-1.71316,-9.50483l-1.99336,-6.24102l-0.23442,-6.69701l0.67758,-3.1791l2.03913,-3.7198l3.37461,-2.18884l4.14328,0.05219l2.54089,-11.92167l6.44293,0.95776l-5.00993,11.81086z" data-paper-data="{&quot;origPos&quot;:null}" fill="#9fa827"/><path d="M-19.46022,254.57074l-9.23039,29.27381l4.89429,-29.20093" data-paper-data="{&quot;origPos&quot;:null}" fill="none"/><path d="M-30.00878,261.9607l4.87817,-2.61618" data-paper-data="{&quot;origPos&quot;:null}" fill="none"/><path d="M-29.93587,266.29681l3.85668,-2.50153" data-paper-data="{&quot;origPos&quot;:null}" fill="none"/><path d="M-26.1887,267.4278l-3.47102,2.25138" data-paper-data="{&quot;origPos&quot;:null}" fill="none"/><path d="M-27.20506,272.19649l-1.9961,1.56867" data-paper-data="{&quot;origPos&quot;:null}" fill="none"/><path d="M-29.51395,278.35143l1.92835,-1.25077l2.63705,3.22086" data-paper-data="{&quot;origPos&quot;:null}" fill="none"/><path d="M-20.61209,259.97522l2.54843,5.19608" data-paper-data="{&quot;origPos&quot;:null}" fill="none"/><path d="M-21.8786,264.35821l1.79796,4.03908" data-paper-data="{&quot;origPos&quot;:null}" fill="none"/><path d="M-21.07613,271.50865l-2.31914,-3.15311" data-paper-data="{&quot;origPos&quot;:null}" fill="none"/><path d="M-24.79731,273.37437l1.75109,2.69968" data-paper-data="{&quot;origPos&quot;:null}" fill="none"/></g><g data-paper-data="{&quot;origPos&quot;:null,&quot;origRot&quot;:0}" stroke="#674116"><path d="M18.03098,238.80682l4.97972,-1.39544l5.20166,1.52612l3.18758,1.79213l3.01126,5.42205l3.91875,5.46612l7.88157,10.02477l-4.64836,-1.68117l-9.58399,-1.1932l-6.55146,0.04564l-6.46331,-1.76931l-2.8334,-1.59301l-2.94438,-3.05379l-1.08535,-3.87311l1.28292,-3.94l-10.62526,-5.9738l2.83185,-5.86592l9.78467,8.29796z" fill="#a87927"/><path d="M13.99857,240.17549l25.20029,17.52436l-26.42118,-13.36302" fill="none"/><path d="M16.8685,247.00969l1.04583,5.43573" fill="none"/><path d="M22.07564,253.6663l-1.24039,-4.42641" fill="none"/><path d="M24.27059,250.42552l1.11635,3.98377" fill="none"/><path d="M29.42423,255.18754l-0.90354,-2.3725" fill="none"/><path d="M33.70961,256.85107l-0.6202,-2.21321l3.85974,-1.55899" fill="none"/><path d="M24.53444,241.99708l-5.71907,0.88653" fill="none"/><path d="M22.62283,245.39717l4.39114,-0.51442" fill="none"/><path d="M29.68808,246.75911l-3.70042,1.27565" fill="none"/><path d="M30.3618,250.86691l3.09848,-0.86827" fill="none"/></g><g data-paper-data="{&quot;origPos&quot;:null,&quot;origRot&quot;:0}" stroke="#665415"><path d="M19.68258,255.60408l-4.92074,1.59096l-5.25784,-1.31954l-3.25586,-1.6649l-3.22299,-5.29892l-4.13151,-5.30714l-8.27121,-9.70577l4.7111,1.49632l9.62363,0.81388l6.54456,-0.30427l6.52814,1.51275l2.89408,1.4799l3.06265,2.93516l1.23741,3.82724l-1.12635,3.98759l10.85284,5.54962l-2.59803,5.97317l-10.10466,-7.90517z" data-paper-data="{&quot;origPos&quot;:null}" fill="#ded633"/><path d="M23.65784,254.07725l-25.87253,-16.51572l26.92816,12.30944" data-paper-data="{&quot;origPos&quot;:null}" fill="none"/><path d="M20.52033,247.36171l-1.25964,-5.3902" data-paper-data="{&quot;origPos&quot;:null}" fill="none"/><path d="M15.05441,240.91587l1.41418,4.37398" data-paper-data="{&quot;origPos&quot;:null}" fill="none"/><path d="M12.98912,244.24079l-1.27278,-3.93659" data-paper-data="{&quot;origPos&quot;:null}" fill="none"/><path d="M8.64799,242.02095l-0.9965,-2.33499" data-paper-data="{&quot;origPos&quot;:null}" fill="none"/><path d="M3.30379,238.19292l0.7071,2.187l-3.79517,1.71017" data-paper-data="{&quot;origPos&quot;:null}" fill="none"/><path d="M13.05826,252.67307l5.67962,-1.11165" data-paper-data="{&quot;origPos&quot;:null}" fill="none"/><path d="M14.83414,249.20016l-4.36741,0.68738" data-paper-data="{&quot;origPos&quot;:null}" fill="none"/><path d="M11.36781,246.69747l-3.64718,1.42077" data-paper-data="{&quot;origPos&quot;:null}" fill="none"/><path d="M6.88527,244.04023l-3.0618,0.98994" data-paper-data="{&quot;origPos&quot;:null}" fill="none"/></g><g data-paper-data="{&quot;origPos&quot;:null,&quot;origRot&quot;:0}" stroke="#661515"><path d="M4.32503,277.25955l-1.228,-5.02364l1.69935,-5.14766l1.89781,-3.12581l5.51979,-2.82811l5.59421,-3.73362l10.28293,-7.54164l-1.83579,4.58949l-1.51329,9.53869l-0.17365,6.54932l-1.98465,6.40047l-1.68694,2.7785l-3.15062,2.84052l-3.90727,0.9551l-3.89487,-1.41405l-6.32604,10.41938l-5.76787,-3.02658l8.62079,-9.50148z" data-paper-data="{&quot;origPos&quot;:null}" fill="#de7633"/><path d="M5.55799,281.33551l18.35794,-24.59964l-14.2398,25.95912" data-paper-data="{&quot;origPos&quot;:null}" fill="none"/><path d="M12.48439,278.69594l5.46769,-0.86332" data-paper-data="{&quot;origPos&quot;:null}" fill="none"/><path d="M14.84612,274.80602l4.46544,-1.09154" data-paper-data="{&quot;origPos&quot;:null}" fill="none"/><path d="M20.16496,270.42989l-4.01891,0.9824" data-paper-data="{&quot;origPos&quot;:null}" fill="none"/><path d="M21.0779,266.42091l-2.40142,0.82362" data-paper-data="{&quot;origPos&quot;:null}" fill="none"/><path d="M22.88392,262.19362l-2.23273,0.54578l-1.42894,-3.90974" data-paper-data="{&quot;origPos&quot;:null}" fill="none"/><path d="M8.4258,276.61206l-0.69463,-5.74554" data-paper-data="{&quot;origPos&quot;:null}" fill="none"/><path d="M11.06537,272.89085l-0.36716,-4.4059" data-paper-data="{&quot;origPos&quot;:null}" fill="none"/><path d="M12.66301,265.87514l1.15109,3.74105" data-paper-data="{&quot;origPos&quot;:null}" fill="none"/><path d="M16.02697,262.21348l0.76409,3.12581" data-paper-data="{&quot;origPos&quot;:null}" fill="none"/></g><g data-paper-data="{&quot;origPos&quot;:null,&quot;origRot&quot;:0}" stroke="#674116"><path d="M30.85687,297.735l-5.07476,-0.99579l-3.95766,-3.70448l-2.03948,-3.03528l-0.24786,-6.19717l-1.03834,-6.64506l-2.52458,-12.49966l3.3938,3.59383l8.02065,5.38011l5.87054,2.90869l4.97474,4.48963l1.81286,2.69804l1.25434,4.05236l-0.77454,3.94705l-2.91933,2.94057l6.79823,10.11763l-5.16945,3.96297l-5.00134,-11.81452z" fill="#dea433"/><path d="M35.07368,298.32824l-14.61269,-26.99308l17.57627,23.82694" fill="none"/><path d="M35.58778,290.93378l1.51328,-5.32456" fill="none"/><path d="M33.93495,282.64564l-0.88517,4.5109" fill="none"/><path d="M31.31268,280.49147l-0.79665,4.05981" fill="none"/><path d="M27.79673,280.50422l0.2613,-2.52524" fill="none"/><path d="M24.9804,274.56431l-0.44258,2.25545l-4.14832,-0.34557" fill="none"/><path d="M26.48599,291.9585l5.50585,1.78309" fill="none"/><path d="M25.57106,288.26552l4.15257,1.51754" fill="none"/><path d="M27.90651,285.91305l-3.87851,-0.52685" fill="none"/><path d="M22.11811,280.79528l3.15762,0.61962" fill="none"/></g><g data-paper-data="{&quot;origPos&quot;:null,&quot;origRot&quot;:0}" stroke="#674116"><path d="M0.92077,300.93785l-5.12241,0.71118l-4.94834,-2.21364l-2.9168,-2.20562l-2.25258,-5.77859l-3.14584,-5.94464l-6.45771,-10.99605l4.3792,2.29266l9.33554,2.47472l6.49777,0.83826l6.16568,2.62475l2.5927,1.96055l2.50567,3.42295l0.55314,3.9841l-1.80252,3.73101l9.72262,7.35207l-3.59701,5.43047l-8.5763,-9.54165z" fill="#dea433"/><path d="M5.10091,300.12545l-22.6069,-20.7626l24.3778,16.80392" fill="none"/><path d="M3.17881,292.96666l-0.30325,-5.52711" fill="none"/><path d="M-1.08311,285.66866l0.63215,4.55325" fill="none"/><path d="M-3.69504,288.58385l-0.56893,-4.09792" fill="none"/><path d="M-8.15944,283.17034l0.57535,2.47268" fill="none"/><path d="M-12.18132,280.94412l0.31607,2.27662l-4.03471,1.02426" fill="none"/><path d="M-5.09307,296.89971l5.78639,-0.1072" fill="none"/><path d="M-2.7404,293.78846l-4.42041,-0.08243" fill="none"/><path d="M-9.55746,291.48621l3.83864,-0.76499" fill="none"/><path d="M-12.85834,287.76757l3.18726,-0.4425" fill="none"/></g><g data-paper-data="{&quot;origPos&quot;:null,&quot;origRot&quot;:0}" stroke="#665415"><path d="M-41.05388,252.90733l-4.60599,2.35151l-5.40061,-0.46864l-3.47877,-1.12725l-4.02287,-4.72046l-4.92119,-4.58442l-9.70633,-8.27054l4.88883,0.72992l9.63086,-0.72328l6.41339,-1.33875l6.68545,0.45786l3.09223,1.002l3.48954,2.41206l1.82896,3.58244l-0.47943,4.11579l11.59585,3.75745l-1.61745,6.30971l-11.23088,-6.20189z" data-paper-data="{&quot;origPos&quot;:null}" fill="#9fa827"/><path d="M-37.37123,250.76914l-28.16515,-12.2017l28.54007,7.88121" data-paper-data="{&quot;origPos&quot;:null}" fill="none"/><path d="M-41.53447,244.63644l-2.09887,-5.12208" data-paper-data="{&quot;origPos&quot;:null}" fill="none"/><path d="M-47.95381,239.13946l2.09024,4.09421" data-paper-data="{&quot;origPos&quot;:null}" fill="none"/><path d="M-51.34664,239.06513l1.88122,3.6848" data-paper-data="{&quot;origPos&quot;:null}" fill="none"/><path d="M-55.45809,239.09963l1.35433,2.14731" data-paper-data="{&quot;origPos&quot;:null}" fill="none"/><path d="M-59.98762,238.3153l1.04512,2.0471l-3.47577,2.29064" data-paper-data="{&quot;origPos&quot;:null}" fill="none"/><path d="M-42.62802,249.06576l-5.4313,1.99867" data-paper-data="{&quot;origPos&quot;:null}" fill="none"/><path d="M-51.05998,248.72534l4.20304,-1.37159" data-paper-data="{&quot;origPos&quot;:null}" fill="none"/><path d="M-50.67644,245.43272l-3.37557,1.98142" data-paper-data="{&quot;origPos&quot;:null}" fill="none"/><path d="M-58.38975,244.98349l2.86595,-1.46317" data-paper-data="{&quot;origPos&quot;:null}" fill="none"/></g><g data-paper-data="{&quot;origPos&quot;:null,&quot;origRot&quot;:0}" stroke="#661515"><path d="M-40.09956,275.01061l-3.33657,-3.95123l-0.77072,-5.36583l0.30733,-3.6439l3.68293,-4.99022l3.34635,-5.83412l5.8488,-11.33166l0.39999,4.92682l2.89265,9.21462l2.76094,5.94145l1.07315,6.61463l-0.27318,3.23901l-1.5561,3.94633l-3.07317,2.5951l-4.11707,0.46828l-1.02442,12.14632l-6.51218,-0.14149l3.48782,-12.3463z" data-paper-data="{&quot;origPos&quot;:null}" fill="#a85a27"/><path d="M-37.18054,278.11109l5.483,-30.20089l-1.19033,29.58432" data-paper-data="{&quot;origPos&quot;:null}" fill="none"/><path d="M-27.64299,269.45554l-4.51122,3.20779" data-paper-data="{&quot;origPos&quot;:null}" fill="none"/><path d="M-31.77175,268.12869l3.5122,-2.96583" data-paper-data="{&quot;origPos&quot;:null}" fill="none"/><path d="M-32.11906,264.51115l3.16097,-2.66926" data-paper-data="{&quot;origPos&quot;:null}" fill="none"/><path d="M-29.92587,257.84581l-1.78341,1.80681" data-paper-data="{&quot;origPos&quot;:null}" fill="none"/><path d="M-30.19122,253.25654l-1.7561,1.48292l-3.02047,-2.8644" data-paper-data="{&quot;origPos&quot;:null}" fill="none"/><path d="M-36.71614,272.60477l-3.18047,-4.83512" data-paper-data="{&quot;origPos&quot;:null}" fill="none"/><path d="M-38.30051,264.31601l2.29071,3.78145" data-paper-data="{&quot;origPos&quot;:null}" fill="none"/><path d="M-37.70343,261.10429l2.69657,2.83708" data-paper-data="{&quot;origPos&quot;:null}" fill="none"/><path d="M-36.32197,256.32774l2.07608,2.45854" data-paper-data="{&quot;origPos&quot;:null}" fill="none"/></g><g data-paper-data="{&quot;origPos&quot;:null,&quot;origRot&quot;:0}" stroke="#661515"><path d="M-69.76043,291.09754l-4.9137,-1.61259l-3.47185,-4.16323l-1.65056,-3.26315l0.51645,-6.18058l-0.21294,-6.72233l-0.96759,-12.7153l2.92588,3.98406l7.29783,6.32602l5.46809,3.60883l4.3846,5.06755l1.46717,2.90057l0.74622,4.1759l-1.25423,3.82175l-3.25892,2.5591l5.50185,10.87713l-5.61775,3.29688l-3.50981,-12.34006z" data-paper-data="{&quot;origPos&quot;:null}" fill="#a85a27"/><path d="M-65.64862,292.20506l-11.18077,-28.58579l14.51136,25.80831" data-paper-data="{&quot;origPos&quot;:null}" fill="none"/><path d="M-64.22871,284.93001l2.15686,-5.09793" data-paper-data="{&quot;origPos&quot;:null}" fill="none"/><path d="M-64.84931,276.50149l-1.43341,4.36771" data-paper-data="{&quot;origPos&quot;:null}" fill="none"/><path d="M-68.47671,277.97202l1.29006,-3.93096" data-paper-data="{&quot;origPos&quot;:null}" fill="none"/><path d="M-70.67745,273.62117l0.56999,-2.47392" data-paper-data="{&quot;origPos&quot;:null}" fill="none"/><path d="M-72.74161,267.37988l-0.7167,2.18387l-4.07429,-0.8533" data-paper-data="{&quot;origPos&quot;:null}" fill="none"/><path d="M-73.38742,284.82716l5.24464,2.44693" data-paper-data="{&quot;origPos&quot;:null}" fill="none"/><path d="M-73.84109,281.04967l3.93432,2.0169" data-paper-data="{&quot;origPos&quot;:null}" fill="none"/><path d="M-75.01818,278.00239l3.78424,1.00001" data-paper-data="{&quot;origPos&quot;:null}" fill="none"/><path d="M-73.29135,274.21477l-3.05741,-1.00338" data-paper-data="{&quot;origPos&quot;:null}" fill="none"/></g><g data-paper-data="{&quot;origPos&quot;:null,&quot;origRot&quot;:0}" stroke="#674116"><path d="M-35.73745,299.28617l-4.26981,2.9178l-5.41639,0.22148l-3.59381,-0.676l-4.59014,-4.17095l-5.46389,-3.92185l-10.67868,-6.96999l4.94196,0.10272l9.46086,-1.94133l6.19125,-2.14293l6.68943,-0.39545l3.19449,0.6009l3.76778,1.94905l2.2694,3.32096l0.04749,4.14335l11.97935,2.25337l-0.80248,6.46408l-11.92798,-4.72433z" fill="#a87927"/><path d="M-32.35639,296.69732l-29.48742,-8.52347l29.31024,4.19036" fill="none"/><path d="M-37.26524,291.14342l-2.73277,-4.81382" fill="none"/><path d="M-44.33111,286.50678l2.5936,3.79539" fill="none"/><path d="M-47.70585,286.86422l2.33422,3.41585" fill="none"/><path d="M-50.16337,289.37874l-1.61625,-1.95778" fill="none"/><path d="M-56.37208,287.2186l1.2968,1.89769l-3.15649,2.71377" fill="none"/><path d="M-37.78704,295.67581l-5.13327,2.67269" fill="none"/><path d="M-42.19923,294.51509l-3.99465,1.89462" fill="none"/><path d="M-49.32829,295.48936l3.09639,-2.39432" fill="none"/><path d="M-51.28299,291.81415l-2.65677,1.81551" fill="none"/></g><g data-paper-data="{&quot;origPos&quot;:null,&quot;origRot&quot;:0}" stroke="#674116"><path d="M-1.19548,253.99713l2.9788,4.22747l0.29922,5.41264l-0.62434,3.60314l-4.10461,4.64957l-3.843,5.51963l-6.81595,10.77765l0.03176,-4.94293l-2.07698,-9.43201l-2.23159,-6.15985l-0.49146,-6.68306l0.55497,-3.20279l1.89475,-3.79537l3.28805,-2.31685l4.14222,-0.10698l2.08113,-12.01047l6.47495,0.70959l-4.55259,11.99458z" fill="#dea433"/><path d="M-3.83261,250.65359l-8.0992,29.60675l3.76909,-29.36737" fill="none"/><path d="M-9.31545,255.64166l-4.77408,2.8016" fill="none"/><path d="M-13.85016,262.77338l3.75776,-2.64783" fill="none"/><path d="M-10.06231,263.75962l-3.38198,2.38304" fill="none"/><path d="M-12.82915,270.20799l1.93438,-1.64418" fill="none"/><path d="M-12.96554,274.80289l1.87888,-1.32391l2.75882,3.11719" fill="none"/><path d="M-4.77606,256.09833l2.74612,5.09438" fill="none"/><path d="M-3.92151,264.49378l-1.95177,-3.96704" fill="none"/><path d="M-4.79676,267.64108l-2.43854,-3.06171" fill="none"/><path d="M-8.44354,269.64833l1.85348,2.63043" fill="none"/></g><g data-paper-data="{&quot;origPos&quot;:null,&quot;origRot&quot;:0}" stroke="#665415"><path d="M-40.42874,281.62092l4.88104,-1.70891l5.28808,1.19265l3.29497,1.58607l3.34957,5.21983l4.25801,5.20619l8.50238,9.50392l-4.74575,-1.38252l-9.64042,-0.58207l-6.53534,0.46166l-6.56263,-1.35523l-2.92886,-1.40983l-3.1324,-2.86061l-1.32915,-3.79636l1.03008,-4.01353l-10.98323,-5.28687l2.45355,-6.03395l10.29196,7.65975z" data-paper-data="{&quot;origPos&quot;:null}" fill="#ded633"/><path d="M-44.36607,283.24296l26.26246,15.88837l-27.21657,-11.65792" data-paper-data="{&quot;origPos&quot;:null}" fill="none"/><path d="M-39.67892,295.23939l-1.38897,-5.35833" data-paper-data="{&quot;origPos&quot;:null}" fill="none"/><path d="M-35.44846,296.19351l-1.51903,-4.33869" data-paper-data="{&quot;origPos&quot;:null}" fill="none"/><path d="M-33.46377,292.81986l1.36713,3.90483" data-paper-data="{&quot;origPos&quot;:null}" fill="none"/><path d="M-29.07047,294.9346l1.05239,2.31033" data-paper-data="{&quot;origPos&quot;:null}" fill="none"/><path d="M-23.6357,298.63292l-0.75952,-2.16934l3.75292,-1.801" data-paper-data="{&quot;origPos&quot;:null}" fill="none"/><path d="M-33.7358,284.39169l-5.65122,1.24798" data-paper-data="{&quot;origPos&quot;:null}" fill="none"/><path d="M-31.07797,287.11404l-4.34962,0.79227" data-paper-data="{&quot;origPos&quot;:null}" fill="none"/><path d="M-31.90204,290.32487l3.61194,-1.50811" data-paper-data="{&quot;origPos&quot;:null}" fill="none"/><path d="M-27.35683,292.87348l3.03708,-1.06332" data-paper-data="{&quot;origPos&quot;:null}" fill="none"/></g><g data-paper-data="{&quot;origPos&quot;:null,&quot;origRot&quot;:0}" stroke="#661515"><path d="M-34.39366,259.59084l2.77325,4.36507l0.04008,5.42076l-0.79591,3.56916l-4.32224,4.44799l-4.10252,5.32957l-7.32348,10.43943l0.26806,-4.93575l-1.62361,-9.52053l-1.93451,-6.2595l-0.17135,-6.69892l0.70747,-3.17259l2.07407,-3.70043l3.39505,-2.15698l4.14261,0.09119l2.65302,-11.89722l6.43362,1.01837l-5.1209,11.76319z" data-paper-data="{&quot;origPos&quot;:null}" fill="#de7633"/><path d="M-36.86789,256.12504l-9.50558,29.18562l5.16897,-29.15356" data-paper-data="{&quot;origPos&quot;:null}" fill="none"/><path d="M-47.48556,263.41537l4.90259,-2.57013" data-paper-data="{&quot;origPos&quot;:null}" fill="none"/><path d="M-43.57343,265.28686l-3.88006,2.46511" data-paper-data="{&quot;origPos&quot;:null}" fill="none"/><path d="M-47.20919,271.13682l3.49206,-2.21861" data-paper-data="{&quot;origPos&quot;:null}" fill="none"/><path d="M-46.78912,275.22691l2.01078,-1.54981" data-paper-data="{&quot;origPos&quot;:null}" fill="none"/><path d="M-47.14508,279.81004l1.94003,-1.23256l2.60661,3.24554" data-paper-data="{&quot;origPos&quot;:null}" fill="none"/><path d="M-35.57121,266.73829l-2.49939,-5.21984" data-paper-data="{&quot;origPos&quot;:null}" fill="none"/><path d="M-39.37831,265.88933l1.75985,4.05582" data-paper-data="{&quot;origPos&quot;:null}" fill="none"/><path d="M-38.6432,273.04699l-2.28935,-3.1748" data-paper-data="{&quot;origPos&quot;:null}" fill="none"/><path d="M-40.65617,277.59364l-1.72559,-2.71604" data-paper-data="{&quot;origPos&quot;:null}" fill="none"/></g><g data-paper-data="{&quot;origPos&quot;:null,&quot;origRot&quot;:0}" stroke="#665415"><path d="M-70.14479,260.44678l3.58667,3.72567l1.11834,5.30429l-0.06951,3.65618l-3.35031,5.21936l-2.95952,6.03956l-5.09884,11.68832l-0.71982,-4.89033l-3.48627,-9.0068l-3.14183,-5.74916l-1.50141,-6.53075l0.06178,-3.24993l1.29594,-4.03924l2.89774,-2.78963l4.07786,-0.73526l0.23165,-12.18724l6.50759,-0.28268l-2.67683,12.54713z" data-paper-data="{&quot;origPos&quot;:null}" fill="#ded633"/><path d="M-73.25942,257.54287l-3.50564,30.49372l-0.7378,-29.59906" data-paper-data="{&quot;origPos&quot;:null}" fill="none"/><path d="M-77.92052,263.30626l-4.29286,3.49461" data-paper-data="{&quot;origPos&quot;:null}" fill="none"/><path d="M-81.3187,271.04429l3.3117,-3.18815" data-paper-data="{&quot;origPos&quot;:null}" fill="none"/><path d="M-80.40551,274.31276l2.98054,-2.86933" data-paper-data="{&quot;origPos&quot;:null}" fill="none"/><path d="M-79.17966,278.23739l1.66202,-1.91906" data-paper-data="{&quot;origPos&quot;:null}" fill="none"/><path d="M-78.61617,282.79964l1.65585,-1.59407l3.2005,2.66172" data-paper-data="{&quot;origPos&quot;:null}" fill="none"/><path d="M-73.36446,263.06775l3.48844,4.61786" data-paper-data="{&quot;origPos&quot;:null}" fill="none"/><path d="M-73.77592,267.61148l2.53199,3.62434" data-paper-data="{&quot;origPos&quot;:null}" fill="none"/><path d="M-74.50621,271.82401l2.87551,2.65555" data-paper-data="{&quot;origPos&quot;:null}" fill="none"/><path d="M-72.69834,279.33592l-2.23172,-2.3182" data-paper-data="{&quot;origPos&quot;:null}" fill="none"/></g><g data-paper-data="{&quot;origPos&quot;:null,&quot;origRot&quot;:0}" stroke="#674116"><path d="M-39.44229,234.94879l4.62428,-2.31536l5.39678,0.51096l3.46982,1.15446l3.98575,4.75185l4.8851,4.62286l9.64123,8.34637l-4.88298,-0.76822l-9.63623,0.64778l-6.42368,1.28844l-6.68165,-0.51024l-3.08428,-1.02619l-3.47053,-2.43934l-1.80083,-3.59667l0.51168,-4.11189l-11.56605,-3.84823l1.66685,-6.29683l11.18194,6.2897z" fill="#dea433"/><path d="M-43.14157,237.05803l28.06866,12.42206l-28.47742,-8.10463" fill="none"/><path d="M-36.96787,248.36155l-2.05866,-5.13837" fill="none"/><path d="M-34.70855,244.65983l2.05809,4.11047" fill="none"/><path d="M-29.25833,248.87121l-1.85227,-3.69942" fill="none"/><path d="M-25.14672,248.86894l-1.33747,-2.15785" fill="none"/><path d="M-20.62349,249.68875l-1.02904,-2.05523l3.49362,-2.26333" fill="none"/><path d="M-32.45149,236.84652l-5.4468,1.95604" fill="none"/><path d="M-33.68292,240.54767l4.21365,-1.33863" fill="none"/><path d="M-29.8786,242.49857l3.39099,-1.9549" fill="none"/><path d="M-25.04637,244.4489l2.87732,-1.44065" fill="none"/></g><g data-paper-data="{&quot;origPos&quot;:null,&quot;origRot&quot;:0}" stroke="#674116"><path d="M-60.95745,271.11497l-5.01442,-1.26508l-3.75444,-3.9103l-1.87467,-3.13975l0.08305,-6.20157l-0.68241,-6.69098l-1.85425,-12.61653l3.19728,3.76975l7.72226,5.80029l5.70704,3.21769l4.72818,4.74859l1.66636,2.79089l1.0364,4.1135l-0.98397,3.90012l-3.07202,2.78067l6.24888,10.46585l-5.37349,3.68159l-4.36401,-12.06447z" fill="#dea433"/><path d="M-56.77828,271.9323l-13.15208,-27.73409l16.28032,24.73054" fill="none"/><path d="M-55.87049,264.57578l1.79515,-5.23627" fill="none"/><path d="M-58.20342,260.66854l1.12452,-4.45727" fill="none"/><path d="M-59.58252,253.9203l-1.01207,4.01153" fill="none"/><path d="M-62.69852,251.23778l-0.39562,2.50772" fill="none"/><path d="M-65.58962,247.66381l-0.56226,2.22863l-4.124,-0.56634" fill="none"/><path d="M-59.61111,267.18778l-5.40292,-2.07424" fill="none"/><path d="M-61.66493,263.1139l-4.06571,-1.73687" fill="none"/><path d="M-67.11792,258.41949l3.84488,0.73298" fill="none"/><path d="M-65.66013,254.52041l-3.12008,-0.78716" fill="none"/></g></g><path d="M-81.49999,229.00001l182,-1l-1,41l-182,2z" data-paper-data="{&quot;origPos&quot;:null}" fill="url(#color-5)" stroke="#000000" stroke-width="0"/></g><path d="M270.7,157.03291h213v204.1h-213z" data-paper-data="{&quot;origPos&quot;:null}" id="ID0.17253359453752637" fill="url(#color-6)" stroke="#964f17" stroke-width="2.73437" stroke-linecap="butt"/></g></g></svg>