<svg version="1.1" xmlns="http://www.w3.org/2000/svg" xmlns:xlink="http://www.w3.org/1999/xlink" width="441.55828" height="69.66968" viewBox="0,0,441.55828,69.66968"><defs><linearGradient x1="24.5327" y1="284.2076" x2="24.5327" y2="341.819" gradientUnits="userSpaceOnUse" id="color-1"><stop offset="0" stop-color="#ffffff"/><stop offset="1" stop-color="#ffffff"/></linearGradient><radialGradient cx="433.55778" cy="324.91029" r="18.72682" gradientUnits="userSpaceOnUse" id="color-2"><stop offset="0" stop-color="#ffff00"/><stop offset="1" stop-color="#ff9400"/></radialGradient><radialGradient cx="437.13623" cy="326.02495" r="12.81669" gradientUnits="userSpaceOnUse" id="color-3"><stop offset="0" stop-color="#bda501"/><stop offset="1" stop-color="#c07801"/></radialGradient></defs><g transform="translate(-18.50356,-278.17846)"><g data-paper-data="{&quot;isPaintingLayer&quot;:true}" fill="none" fill-rule="nonzero" stroke="none" stroke-width="none" stroke-linecap="butt" stroke-linejoin="miter" stroke-miterlimit="10" stroke-dasharray="" stroke-dashoffset="0" font-family="none" font-weight="none" font-size="none" text-anchor="none" style="mix-blend-mode: normal"><path d="M24.5327,284.2076h429.5v57.6114h-429.5z" data-paper-data="{&quot;origPos&quot;:null}" id="ID0.3184669064357877" fill="#ffffff" stroke="url(#color-1)" stroke-width="12.05828"/><text transform="translate(25.78827,322.12447) scale(0.7218,0.72179)" font-size="22" xml:space="preserve" data-paper-data="{&quot;origPos&quot;:null}" id="ID0.08681221166625619" fill="#2492d1" fill-rule="nonzero" stroke="none" stroke-width="1" stroke-linecap="butt" stroke-linejoin="miter" stroke-miterlimit="10" stroke-dasharray="" stroke-dashoffset="0" font-family="Sans Serif" font-weight="400" text-anchor="start" style="mix-blend-mode: normal"><tspan x="0" dy="0">Get 2 life mushrooms.</tspan></text><g data-paper-data="{&quot;origPos&quot;:null}" id="text96" fill="#2392d1" stroke="none" stroke-width="0.26458"><path d="M36.49615,285.81754c2.91788,1.47514 4.41734,2.21271 4.49839,2.21271c0,0.12969 -0.60789,1.30089 -1.82368,3.5136h-0.08509c-0.09724,0 -1.49538,-0.66057 -4.19442,-1.98172l-1.37382,1.83583c2.32619,1.11852 5.15082,2.54502 8.47396,4.27953c-1.50755,2.68281 -2.57743,4.46596 -3.20966,5.34943l-6.86913,0.60789c-3.1367,-2.11544 -4.79422,-3.20965 -4.97253,-3.2826v-0.08511c0,-0.22695 0.63627,-1.26846 1.90879,-3.12455h0.15802c0.50253,0.29989 2.079,1.1631 4.72938,2.58961l1.60482,-1.82368c-4.87121,-2.48019 -7.57023,-3.88238 -8.09707,-4.20657v-0.07295c1.5481,-3.01512 2.39104,-4.54295 2.52883,-4.58348c4.02827,-0.81863 6.26934,-1.22794 6.72323,-1.22794z" id="path441"/><path d="M46.91537,285.81754l5.34941,0.94831l-0.51063,4.0607c1.06178,-0.05674 1.83989,-0.08511 2.3343,-0.08511h0.77809l0.17018,-0.08511l0.08509,0.17022c-0.17022,2.46397 -0.3161,3.84995 -0.43768,4.15796l-0.17018,-0.09727c-0.12155,0 -1.21576,-0.05674 -3.2826,-0.17022c-0.11346,1.90472 -0.19855,4.18227 -0.2553,6.83267l-0.17018,0.08511c-2.60986,-0.17022 -4.16605,-0.3161 -4.66858,-0.43767l0.08509,-0.34041c0,-0.70516 0.11348,-2.89355 0.34041,-6.56519c-2.1884,-0.12158 -3.28259,-0.26748 -3.28259,-0.43767c0.11346,-2.70712 0.25934,-4.06069 0.43767,-4.06069l3.1975,0.60789v-1.04557c0,-0.85104 -0.03241,-2.00198 -0.09724,-3.4528c0.06484,0 0.09724,-0.02837 0.09724,-0.08511z" id="path443"/><path d="M58.25856,289.48921c4.81449,0.66463 7.22173,1.07393 7.22173,1.22793c1.89661,1.62915 2.84491,2.50044 2.84491,2.61392c-0.76999,2.40723 -1.20767,3.87022 -1.31303,4.38895c0.76999,1.7102 1.20767,2.73145 1.31303,3.06375c0,0.09727 -1.2563,0.35663 -3.7689,0.7781c-0.03241,-0.13779 -0.26342,-0.44579 -0.693,-0.92399c-3.46902,0.66463 -5.33725,0.99694 -5.60473,0.99694l-1.84798,-4.99684l4.07287,-2.15193c0.65652,0.10538 1.6818,0.15806 3.0759,0.15806c0,-0.17831 0.02431,-0.71731 0.07294,-1.61699c-0.23505,0 -2.33429,0.154 -6.29773,0.46199l-0.07293,-0.15804c0.55115,-2.56124 0.88346,-3.84185 0.99692,-3.84185zM60.78739,296.63797c0,0.08915 0.25937,1.03745 0.77809,2.84491h0.07293c1.02124,-0.66463 1.53186,-1.10231 1.53186,-1.31305l0.15802,-1.30087c-0.19452,0 -1.0415,-0.07699 -2.54096,-0.23099z" id="path445"/><path d="M75.08492,289.51351c0.11346,0.01621 0.17018,0.07295 0.17018,0.17022l-1.2644,7.00287c2.41535,-0.28367 3.62302,-0.51063 3.62302,-0.68085c0.45389,-2.80439 0.76593,-4.37679 0.93614,-4.71722c2.99081,0.61599 4.64831,0.98073 4.97253,1.09421c-1.7426,5.98973 -2.69902,9.11023 -2.86924,9.36148c-3.04755,2.13977 -4.76179,3.32313 -5.14275,3.55006c-0.11346,0 -2.05465,-0.4782 -5.82357,-1.43462v-0.08511c0.99695,-2.1965 1.61699,-3.29476 1.86014,-3.29476l3.70813,1.86014l1.77503,-3.03944c-1.59672,0.39715 -2.52477,0.59574 -2.78413,0.59574l-4.72936,-2.45587c0.57546,-5.28457 0.94019,-7.92686 1.09419,-7.92686z" id="path447"/><path d="M100.90801,285.81754c3.50954,0.42146 5.33728,0.68488 5.48316,0.79027v0.08511l-0.6322,14.62579l-0.17018,0.07295c-0.84294,0 -2.24514,0.08105 -4.20658,0.24315c-0.10534,-0.3161 -0.15802,-1.00504 -0.15802,-2.06682v-1.75072l-0.08509,-0.47416c0,-0.05674 0.02837,-0.0851 0.08509,-0.0851l-0.08509,-0.54709v-1.43462c-1.41841,0 -2.82062,0.05267 -4.2066,0.15806l0.3161,5.41021c-0.41337,0.10536 -1.84393,0.36878 -4.29169,0.79026c-0.12155,0 -0.5187,-3.01918 -1.19147,-9.05753c-0.05672,-0.13779 -0.34851,-2.33834 -0.87535,-6.60168c2.45586,0.05674 4.25926,0.08511 5.41021,0.08511c0.12155,0 0.25125,1.90472 0.38906,5.71415h4.37679v-0.79026c0,-0.19452 -0.02837,-0.43364 -0.08509,-0.71731c0,-0.04864 0.02837,-0.07295 0.08509,-0.07295l-0.08509,-0.40121v-1.82367c0,-0.45389 -0.02431,-1.1712 -0.07294,-2.15193z" id="path449"/><path d="M114.51258,289.50136c3.67164,1.88851 5.70605,2.99081 6.1032,3.30691c-0.52684,2.46397 -0.83888,3.73243 -0.93615,3.80539h-7.68371v0.13373l2.15193,2.66255l3.37985,-1.72641c0.33231,0.57546 0.81052,1.58051 1.43462,3.01513c-0.29179,0.09727 -2.41939,0.4093 -6.38282,0.93614c-3.2826,-2.16408 -4.93607,-3.2907 -4.96038,-3.37987c0.52682,-4.2066 0.83888,-6.30988 0.93615,-6.30988c3.42849,-1.45893 5.41425,-2.27351 5.9573,-2.4437zM113.72233,292.44353c-0.06484,0.1621 -0.49441,0.80647 -1.28874,1.93309c0,0.34041 0.4782,0.51063 1.43462,0.51063c0,0.04864 0.693,0.16616 2.07898,0.35257c0.38096,-0.52684 0.57142,-0.83483 0.57142,-0.92399c-0.12155,-0.72137 -0.38498,-1.08203 -0.79027,-1.08203z" id="path451"/><path d="M123.57011,289.48921c4.81447,0.66463 7.2217,1.07393 7.2217,1.22793c1.89662,1.62915 2.84493,2.50044 2.84493,2.61392c-0.77001,2.40723 -1.20769,3.87022 -1.31305,4.38895c0.76999,1.7102 1.20767,2.73145 1.31305,3.06375c0,0.09727 -1.25631,0.35663 -3.76892,0.7781c-0.03241,-0.13779 -0.2634,-0.44579 -0.69298,-0.92399c-3.46903,0.66463 -5.33727,0.99694 -5.60473,0.99694l-1.84799,-4.99684l4.07285,-2.15193c0.65652,0.10538 1.68183,0.15806 3.07593,0.15806c0,-0.17831 0.02431,-0.71731 0.07293,-1.61699c-0.23505,0 -2.33428,0.154 -6.29771,0.46199l-0.07294,-0.15804c0.55115,-2.56124 0.88347,-3.84185 0.99695,-3.84185zM126.09895,296.63797c0,0.08915 0.25936,1.03745 0.77809,2.84491h0.07294c1.02125,-0.66463 1.53189,-1.10231 1.53189,-1.31305l0.15802,-1.30087c-0.19451,0 -1.04151,-0.07699 -2.54097,-0.23099z" id="path453"/><path d="M134.80388,285.8297c2.48019,0.04864 4.29981,0.07295 5.45885,0.07295c0.10534,0 0.42551,4.97659 0.96046,14.92975c-0.41337,0.10538 -1.85608,0.37284 -4.32817,0.80242c-0.12155,0 -0.52276,-3.04755 -1.20363,-9.14264c-0.05672,-0.14588 -0.35257,-2.36671 -0.88751,-6.66245z" id="path455"/><path d="M146.22005,285.81754l5.34943,0.94831l-0.51063,4.0607c1.06178,-0.05674 1.83986,-0.08511 2.33428,-0.08511h0.7781l0.17018,-0.08511l0.08509,0.17022c-0.1702,2.46397 -0.3161,3.84995 -0.43768,4.15796l-0.17017,-0.09727c-0.12155,0 -1.21575,-0.05674 -3.28259,-0.17022c-0.11346,1.90472 -0.19856,4.18227 -0.25532,6.83267l-0.17018,0.08511c-2.60986,-0.17022 -4.16605,-0.3161 -4.66858,-0.43767l0.08509,-0.34041c0,-0.70516 0.11348,-2.89355 0.34043,-6.56519c-2.1884,-0.12158 -3.2826,-0.26748 -3.2826,-0.43767c0.11346,-2.70712 0.25934,-4.06069 0.43767,-4.06069l3.1975,0.60789v-1.04557c0,-0.85104 -0.03241,-2.00198 -0.09724,-3.4528c0.06484,0 0.09724,-0.02837 0.09724,-0.08511z" id="path457"/><path d="M161.16193,285.81754c0.04862,0.07295 0.27556,2.29376 0.68083,6.66246c3.1286,-0.95642 4.79422,-1.43462 4.99684,-1.43462l3.10023,2.11544c-0.50251,4.61996 -0.83077,7.31899 -0.98477,8.09707l-4.30386,0.14588c0,-0.04864 -0.02837,-0.07295 -0.08509,-0.07295l0.08509,-0.30395c0,-0.65652 0.09727,-2.6504 0.29179,-5.98163c-1.18335,-0.04864 -2.06277,-0.07295 -2.63823,-0.07295h-0.30395c0.34853,3.70406 0.52279,5.72225 0.52279,6.05456l-4.08503,0.60789c-0.154,-0.51873 -1.06178,-5.36158 -2.72333,-14.52853c0,-0.25936 0.6322,-0.46199 1.89661,-0.60789c1.59672,-0.45389 2.78007,-0.68082 3.55008,-0.68082z" id="path459"/><path d="M176.67526,289.51351c0.11346,0.01621 0.17018,0.07295 0.17018,0.17022l-1.2644,7.00287c2.41535,-0.28367 3.62302,-0.51063 3.62302,-0.68085c0.45389,-2.80439 0.76595,-4.37679 0.93614,-4.71722c2.99081,0.61599 4.64831,0.98073 4.97253,1.09421c-1.7426,5.98973 -2.69902,9.11023 -2.86924,9.36148c-3.04755,2.13977 -4.76179,3.32313 -5.14273,3.55006c-0.11346,0 -2.05465,-0.4782 -5.82357,-1.43462v-0.08511c0.99692,-2.1965 1.61698,-3.29476 1.86014,-3.29476l3.7081,1.86014l1.77505,-3.03944c-1.59674,0.39715 -2.52477,0.59574 -2.78413,0.59574l-4.72938,-2.45587c0.57546,-5.28457 0.94021,-7.92686 1.09421,-7.92686z" id="path461"/></g><g stroke="none"><text transform="translate(283,338.98128) scale(0.60677,0.60677)" font-size="40" xml:space="preserve" data-paper-data="{&quot;origPos&quot;:null}" fill="#2392d1" fill-rule="nonzero" stroke="none" stroke-width="1" stroke-linecap="butt" stroke-linejoin="miter" stroke-miterlimit="10" stroke-dasharray="" stroke-dashoffset="0" font-family="Sans Serif" font-weight="normal" text-anchor="start" style="mix-blend-mode: normal"><tspan x="0" dy="0">Reward: +15</tspan></text><path d="M438.22633,321.71811c2.42757,0 4.62707,0.98611 6.21986,2.5789c1.5928,1.59272 2.57884,3.79221 2.57884,6.21979c0,2.4275 -0.98603,4.62709 -2.57884,6.21981c-1.5928,1.5928 -3.79229,2.5789 -6.21986,2.5789c-2.4275,0 -4.62699,-0.98611 -6.2198,-2.5789c-1.5928,-1.59272 -2.5789,-3.79231 -2.5789,-6.21981c0,-2.42757 0.98611,-4.62706 2.5789,-6.21979c1.5928,-1.5928 3.7923,-2.5789 6.2198,-2.5789z" data-paper-data="{&quot;origPos&quot;:null}" id="ID0.7142658131197095" fill="url(#color-2)" stroke-width="0.48028"/><path d="M436.38196,323.73549h3.47092v13.31086h-3.47092z" data-paper-data="{&quot;origPos&quot;:null}" id="ID0.06001657713204622" fill="url(#color-3)" stroke-width="0.59798"/></g></g></g></svg>