<svg version="1.1" xmlns="http://www.w3.org/2000/svg" xmlns:xlink="http://www.w3.org/1999/xlink" width="108.03317" height="146.11733" viewBox="0,0,108.03317,146.11733"><g transform="translate(-185.10493,-106.9343)"><g data-paper-data="{&quot;isPaintingLayer&quot;:true}" fill="none" fill-rule="nonzero" stroke="none" stroke-width="0" stroke-linecap="butt" stroke-linejoin="miter" stroke-miterlimit="10" stroke-dasharray="" stroke-dashoffset="0" font-family="none" font-weight="none" font-size="none" text-anchor="none" style="mix-blend-mode: normal"><g data-paper-data="{&quot;origPos&quot;:null,&quot;origRot&quot;:0}"><path d="M263.81785,248.46716c-2.02608,4.66438 -2.60077,6.86924 -15.21272,1.23614c-10.87099,-4.85551 -11.71884,-6.12484 -9.8497,-11.11044c1.21533,-3.24171 8.16194,-3.28667 14.84286,-0.38466c6.68091,2.90201 11.5984,7.08467 10.21957,10.25895z" data-paper-data="{&quot;origPos&quot;:null}" fill="#f3c08d"/><path d="M266.74128,245.81496c-2.1193,4.87898 -3.71852,8.37972 -17.48909,2.39815c-14.40917,-6.25896 -11.99825,-9.66015 -9.87894,-14.53914c2.1193,-4.87899 10.38209,-6.24436 17.55362,-3.12925c7.17152,3.11512 11.93372,10.39124 9.81441,15.27023z" data-paper-data="{&quot;origPos&quot;:null}" fill="#94612e"/></g><path d="M259.24218,202.62592c2.78869,-0.79409 11.29795,3.45227 16.71258,4.48191c5.41463,1.02964 12.92672,-1.7213 10.93966,5.54179c-0.86252,3.15269 -5.51819,9.03916 -10.93282,8.00952c-5.41463,-1.02964 -24.37941,-15.85199 -16.71942,-18.03322z" data-paper-data="{&quot;origRot&quot;:0,&quot;origPos&quot;:null,&quot;index&quot;:null}" fill="#ffdfc0"/><g><path d="M268.03155,221.65535c0,11.27968 -10.85849,20.42368 -24.25311,20.42368c-13.39462,0 -24.25311,-9.14399 -24.25311,-20.42368c0,-7.51824 2.21082,-13.16381 6.98859,-18.9687c4.95021,-6.01439 9.24286,-7.72132 17.03243,-7.72132c0,0 11.27942,-0.57367 16.404,5.81451c4.52483,5.64056 8.0812,9.59583 8.0812,20.87552z" data-paper-data="{&quot;origPos&quot;:null}" fill="#ffdfc0"/><path d="M267.92563,221.78153c-0.9687,11.238 -10.85848,20.42368 -24.25311,20.42368c-13.39462,0 -24.56541,-8.49958 -24.25311,-20.42368c-0.23209,-2.41232 1.65058,-5.27556 1.65058,-5.27556c0,0 15.04505,0.16964 22.83462,0.16964l23.83079,-0.21975c0,0 0.42231,2.63322 0.19023,5.32567z" data-paper-data="{&quot;origPos&quot;:null}" fill="#ffffff"/></g><g data-paper-data="{&quot;origPos&quot;:null}"><path d="M256.39407,198.07594c5.03929,0 12.47253,7.83488 12.47253,15.78193c0,7.94705 0.85579,13.92523 0.85579,13.92523c0,0 -11.03217,2.05747 -13.56341,0.81569c-4.98176,-2.44397 -2.87796,-7.89857 -2.87796,-13.81258c0,-7.94705 -1.92624,-16.71027 3.11305,-16.71027z" data-paper-data="{&quot;index&quot;:null,&quot;origPos&quot;:null}" fill="#f0cf46"/><path d="M251.20591,231.06502l-0.23209,-35.50934h6.03427l-0.40003,30.50119l13.40635,-0.13606l-0.00945,5.37629z" data-paper-data="{&quot;index&quot;:null,&quot;origPos&quot;:null}" fill="#ffef45"/></g><g data-paper-data="{&quot;origPos&quot;:null,&quot;origRot&quot;:0}"><path d="M247.62591,234.80641c2.62302,4.35675 4.0852,6.10423 -7.82102,13.10674c-10.26268,6.03588 -11.78843,5.9898 -14.76413,1.57448c-1.93485,-2.8709 2.05956,-8.5544 8.29985,-12.31142c6.24028,-3.75702 12.50024,-5.33474 14.2853,-2.36981z" data-paper-data="{&quot;origPos&quot;:null}" fill="#f3c08d"/><path d="M247.16236,230.8865c2.7437,4.55719 4.66674,7.89105 -8.19559,15.63494c-13.45882,8.10301 -14.82976,4.16586 -17.57347,-0.39134c-2.74371,-4.5572 0.9391,-12.07882 7.63763,-16.11174c6.69853,-4.03292 15.38772,-3.68907 18.13143,0.86814z" data-paper-data="{&quot;origPos&quot;:null}" fill="#94612e"/></g><g data-paper-data="{&quot;origPos&quot;:null}"><path d="M233.91473,215.5884c0,5.91401 1.57799,10.67234 -3.8074,13.11631c-2.73632,1.24178 -14.17936,-1.51195 -14.17936,-1.51195c0,0 -0.11605,-4.12148 -0.11605,-12.06853c0,-7.94705 9.28996,-16.2461 14.73754,-16.2461c5.44758,0 3.36526,8.76323 3.36526,16.71027z" data-paper-data="{&quot;origPos&quot;:null}" fill="#f0cf46"/><path d="M216.04402,231.17093l-0.70571,-5.1442l14.79888,-0.09603l-0.40002,-30.50119h6.03427l-0.23209,35.50934z" data-paper-data="{&quot;origPos&quot;:null}" fill="#ffef45"/></g><path d="M214.13212,225.34898c-5.04023,2.23035 -10.90917,-2.4474 -12.46396,-5.32248c-3.58188,-6.6235 4.35825,-5.64721 9.39849,-7.87756c5.04023,-2.23035 12.36527,-8.29524 15.26138,-8.15403c7.95504,0.38788 -7.15567,19.1237 -12.19591,21.35405z" data-paper-data="{&quot;origRot&quot;:0,&quot;origPos&quot;:null}" fill="#ffdfc0"/><g data-paper-data="{&quot;origPos&quot;:null}"><g data-paper-data="{&quot;origPos&quot;:null}"><path d="M292.66391,142.88488c-0.27988,14.86686 -2.41182,21.20777 -17.04234,23.86291c-11.20256,2.03304 -43.69155,1.92729 -55.07536,2.12545c-24.88201,0.43314 -33.5683,-4.18143 -34.00144,-25.55522c-0.16943,-8.36096 1.57605,-16.5109 7.88268,-22.00279c14.77425,-12.86561 27.97727,-14.38092 46.90945,-14.38092c28.34713,0 51.85187,8.07117 51.32701,35.95057z" data-paper-data="{&quot;origPos&quot;:null}" fill="#ffffff"/><path d="M271.87324,138.29167c0,11.81622 -8.92046,21.39515 -19.92441,21.39515c-11.00395,0 -19.92441,-9.57894 -19.92441,-21.39515c0,-11.81621 8.92046,-21.39515 19.92441,-21.39515c11.00395,0 19.92441,9.57894 19.92441,21.39515z" data-paper-data="{&quot;origPos&quot;:null}" fill="#ffef45"/><path d="M185.46481,151.2216c-0.34672,-5.14109 -1.03439,-6.63717 1.41495,-16.4022c0.14748,-3.90451 3.60873,-9.04402 3.60873,-9.04402c0,0 11.06791,1.21351 15.18655,4.72352c4.83289,4.11872 5.5155,10.19882 5.9554,16.53342c0.46258,6.66118 -0.39065,10.99536 -4.58844,16.69822c-2.03304,2.76197 -2.7083,3.10776 -2.7083,3.10776c0,0 -8.10047,1.15006 -11.77158,-1.03207c-4.34643,-3.39689 -5.69883,-5.85925 -7.09731,-14.58464z" data-paper-data="{&quot;origPos&quot;:null,&quot;origRot&quot;:0}" fill="#ffef45"/><path d="M289.35753,127.37163c0,0 3.63631,1.29149 3.7779,16.01825c0.12411,12.90913 -4.1097,17.24197 -4.1097,17.24197c0,0 -7.85544,-1.31053 -7.97955,-17.5442c-0.1126,-14.72701 8.31135,-15.71602 8.31135,-15.71602z" data-paper-data="{&quot;origPos&quot;:null}" fill="#ffef45"/></g><g data-paper-data="{&quot;origPos&quot;:null}"><path d="M269.03806,180.4132c-0.53827,13.76018 -10.82953,20.09838 -24.93407,20.09838c-14.10454,0 -27.39622,-4.82791 -27.95638,-18.58722c-0.30223,-7.42385 -1.05781,-14.96044 -1.05781,-14.96044c0,0 20.35245,-2.95729 27.38231,-2.72223c13.61672,0.45531 26.73091,4.18896 26.73091,4.18896c0,0 0.13727,4.25647 -0.16496,11.98255z" data-paper-data="{&quot;origPos&quot;:null}" fill="#ffdfc0"/><path d="M249.98792,189.59111c0,0 -3.71403,3.79439 -8.67935,2.90508c-4.96532,-0.88931 -7.68122,-6.24075 -7.68122,-6.24075c0,0 4.08277,3.56916 8.03299,4.27666c3.95022,0.7075 8.32757,-0.94099 8.32757,-0.94099z" data-paper-data="{&quot;origPos&quot;:null,&quot;origRot&quot;:0}" fill="#000000"/><g data-paper-data="{&quot;origPos&quot;:null}"><path d="M256.20448,176.10523c0,3.8391 -0.94143,6.8817 -3.62678,6.95131c-2.9626,0.0768 -3.62677,-3.11221 -3.62677,-6.95131c0,-3.8391 0.80282,-6.95131 3.62677,-6.95131c2.82395,0 3.62678,3.11221 3.62678,6.95131z" data-paper-data="{&quot;origPos&quot;:null}" fill="#000000"/><path d="M255.02745,173.15462c0,1.28025 -0.56653,2.29487 -2.18251,2.31808c-1.78283,0.02561 -2.1825,-1.03784 -2.1825,-2.31808c0,-1.28025 0.48311,-2.31808 2.1825,-2.31808c1.69939,0 2.18251,1.03784 2.18251,2.31808z" data-paper-data="{&quot;origPos&quot;:null}" fill="#aaaaaa"/></g><g data-paper-data="{&quot;origPos&quot;:null}"><path d="M243.95288,176.33308c0,3.8391 -0.94143,6.8817 -3.62678,6.95131c-2.9626,0.0768 -3.62677,-3.11221 -3.62677,-6.95131c0,-3.8391 0.80282,-6.95131 3.62677,-6.95131c2.82395,0 3.62678,3.11221 3.62678,6.95131z" data-paper-data="{&quot;origPos&quot;:null}" fill="#000000"/><path d="M242.57404,173.20954c0,1.28025 -0.56653,2.29487 -2.18251,2.31808c-1.78283,0.02561 -2.18251,-1.03784 -2.18251,-2.31808c0,-1.28025 0.48312,-2.31808 2.18251,-2.31808c1.69939,0 2.18251,1.03784 2.18251,2.31808z" data-paper-data="{&quot;origPos&quot;:null}" fill="#aaaaaa"/></g></g></g></g></g></svg>