<svg version="1.1" xmlns="http://www.w3.org/2000/svg" xmlns:xlink="http://www.w3.org/1999/xlink" width="437" height="90.79587" viewBox="0,0,437,90.79587"><defs><linearGradient x1="240" y1="135.60207" x2="240" y2="224.39795" gradientUnits="userSpaceOnUse" id="color-1"><stop offset="0" stop-color="#ffffff"/><stop offset="1" stop-color="#d8d8d8"/></linearGradient><linearGradient x1="240" y1="135.60208" x2="240" y2="224.39795" gradientUnits="userSpaceOnUse" id="color-2"><stop offset="0" stop-color="#343434"/><stop offset="1" stop-color="#090909"/></linearGradient><radialGradient cx="443.8065" cy="206.54467" r="17.9081" gradientUnits="userSpaceOnUse" id="color-3"><stop offset="0" stop-color="#ffffff"/><stop offset="1" stop-color="#e5e5e5"/></radialGradient></defs><g transform="translate(-21.5,-134.60208)"><g data-paper-data="{&quot;isPaintingLayer&quot;:true}" fill-rule="nonzero" stroke-linejoin="miter" stroke-miterlimit="10" stroke-dasharray="" stroke-dashoffset="0" style="mix-blend-mode: normal"><path d="M22.5,224.39795v-88.79587h435v88.79587z" data-paper-data="{&quot;origPos&quot;:null}" fill="url(#color-1)" stroke="url(#color-2)" stroke-width="2" stroke-linecap="butt"/><g data-paper-data="{&quot;origPos&quot;:null}"><path d="M444.3058,202.09868c2.5136,0 4.7909,1.0212 6.4406,2.6702c1.6489,1.6496 2.6702,3.9269 2.6702,6.4405c0,2.5136 -1.0213,4.791 -2.6702,6.4406c-1.6497,1.649 -3.927,2.6702 -6.4406,2.6702c-2.5136,0 -4.7909,-1.0212 -6.4406,-2.6702c-1.6489,-1.6496 -2.6701,-3.927 -2.6701,-6.4406c0,-2.5136 1.0212,-4.7909 2.6701,-6.4405c1.6497,-1.649 3.927,-2.6702 6.4406,-2.6702z" fill="url(#color-3)" stroke="#000000" stroke-width="2.0785" stroke-linecap="butt"/><path d="M441.2734,206.54887l5.6119,0.4503l1.7321,3.187l-3.6374,2.9446l3.3603,-0.5197l0.7967,3.4642l-7.4479,-0.0693l-1.9053,-2.4249l4.6766,-3.3256l-4.5727,-0.3464z" fill="#000000" stroke="none" stroke-width="0.69283" stroke-linecap="round"/></g><g data-paper-data="{&quot;origPos&quot;:null}" stroke="none" stroke-width="1" stroke-linecap="butt"><path d="M34.963,149.65706c2.448,0.547 3.809,0.86 4.083,0.939v0.064c-0.085,2.194 -0.149,3.47 -0.192,3.828c0.14,0 0.769,0.146 1.887,0.438c1.003,-3.093 1.547,-4.64 1.632,-4.64c1.677,0.754 2.743,1.255 3.199,1.504v0.064c-1.841,4.284 -2.886,6.648 -3.136,7.091c-0.461,0.383 -2.072,1.847 -4.83,4.393h-0.064l-5.086,-2.506c0.468,-0.802 1.033,-1.723 1.695,-2.762c0.031,0 0.827,0.523 2.388,1.568h0.064c0.523,-0.426 1.149,-1.033 1.878,-1.823c0,-0.037 -1.191,-1.206 -3.573,-3.509v-4.521z" data-paper-data="{&quot;origPos&quot;:null}" fill="#000000"/><path d="M50.239,152.41906c2.309,0.62 3.533,0.997 3.673,1.13c1.27,1.799 1.984,2.835 2.142,3.108c-0.821,2.601 -1.292,3.901 -1.413,3.901c-2.734,0.638 -4.165,0.957 -4.293,0.957c-2.26,-1.318 -3.464,-2.053 -3.609,-2.205c-0.079,-2.455 -0.119,-3.81 -0.119,-4.065c-0.036,-0.073 -0.055,-0.128 -0.055,-0.164c2.334,-1.775 3.54,-2.662 3.619,-2.662zM50.011,155.75507c-0.037,0.243 -0.091,1.127 -0.164,2.652l2.032,0.456c0.486,-1.519 0.729,-2.33 0.729,-2.434c-1.616,-0.486 -2.482,-0.729 -2.597,-0.729z" data-paper-data="{&quot;origPos&quot;:null}" fill="#000000"/><path d="M61.805,152.41007l0.064,0.118l-1.231,6.526h0.064l3.136,-0.92v-3.692c0.012,-0.085 0.051,-0.127 0.118,-0.127c2.358,0.164 3.67,0.246 3.938,0.246c0,0.043 0.021,0.064 0.063,0.064c0,1.039 -0.328,3.193 -0.984,6.462c0,0.188 -0.942,0.331 -2.826,0.428c-0.097,-0.115 -0.179,-0.361 -0.246,-0.738c-2.412,0.492 -3.788,0.738 -4.129,0.738c-1.926,-1.434 -2.889,-2.172 -2.889,-2.214c0.328,-4.309 0.535,-6.545 0.62,-6.709h0.055c1.537,-0.042 2.953,-0.103 4.247,-0.182z" data-paper-data="{&quot;origPos&quot;:null}" fill="#000000"/><path d="M80.308,152.43706c2.582,0.067 3.873,0.18 3.873,0.338c0.444,6.726 0.666,10.305 0.666,10.737c-1.957,1.245 -3.358,2.09 -4.202,2.533c-2.978,-0.935 -4.466,-1.47 -4.466,-1.604c0.96,-1.403 1.516,-2.114 1.668,-2.133c1.622,0.802 2.555,1.204 2.798,1.204l0.866,-1.14c-0.231,-0.942 -0.386,-1.498 -0.465,-1.668c-0.134,0 -1.781,0.268 -4.94,0.802c-1.732,-2.813 -2.598,-4.256 -2.598,-4.329c1.495,-2.388 2.406,-3.789 2.734,-4.202h0.064c0.176,0 1.489,0.289 3.938,0.866v-0.201c0,-0.237 -0.022,-0.616 -0.064,-1.139zM77.318,156.36608c0.085,0.188 0.352,1.191 0.802,3.007c0.565,-0.182 1.431,-0.516 2.598,-1.002c-0.225,-1.094 -0.338,-1.717 -0.338,-1.869l-0.328,-0.063h-0.401c-0.51,0 -1.288,-0.025 -2.333,-0.073z" data-paper-data="{&quot;origPos&quot;:null}" fill="#000000"/><path d="M89.504,152.41906c2.309,0.62 3.534,0.997 3.673,1.13c1.27,1.799 1.984,2.835 2.142,3.108c-0.82,2.601 -1.291,3.901 -1.412,3.901c-2.735,0.638 -4.166,0.957 -4.293,0.957c-2.261,-1.318 -3.464,-2.053 -3.61,-2.205c-0.079,-2.455 -0.118,-3.81 -0.118,-4.065c-0.037,-0.073 -0.055,-0.128 -0.055,-0.164c2.333,-1.775 3.539,-2.662 3.618,-2.662zM89.276,155.75507c-0.036,0.243 -0.091,1.127 -0.164,2.652l2.033,0.456c0.486,-1.519 0.729,-2.33 0.729,-2.434c-1.616,-0.486 -2.482,-0.729 -2.598,-0.729z" data-paper-data="{&quot;origPos&quot;:null}" fill="#000000"/><path d="M98.874,149.65706l4.01,0.711l-0.382,3.045c0.796,-0.043 1.379,-0.064 1.75,-0.064h0.583l0.128,-0.064l0.063,0.128c-0.127,1.847 -0.237,2.886 -0.328,3.117l-0.127,-0.073c-0.092,0 -0.912,-0.043 -2.461,-0.128c-0.085,1.428 -0.149,3.136 -0.192,5.123l-0.127,0.063c-1.957,-0.127 -3.124,-0.237 -3.5,-0.328l0.063,-0.255c0,-0.529 0.086,-2.169 0.256,-4.922c-1.641,-0.091 -2.461,-0.2 -2.461,-0.328c0.085,-2.029 0.194,-3.044 0.328,-3.044l2.397,0.456v-0.784c0,-0.638 -0.024,-1.501 -0.073,-2.589c0.049,0 0.073,-0.021 0.073,-0.064z" data-paper-data="{&quot;origPos&quot;:null}" fill="#000000"/><path d="M112.008,152.41007c3.609,0.498 5.414,0.805 5.414,0.921c1.422,1.221 2.133,1.874 2.133,1.959c-0.577,1.805 -0.905,2.902 -0.984,3.291c0.577,1.282 0.905,2.047 0.984,2.296c0,0.073 -0.942,0.268 -2.826,0.584c-0.024,-0.104 -0.197,-0.334 -0.519,-0.693c-2.601,0.498 -4.001,0.747 -4.202,0.747l-1.385,-3.746l3.053,-1.613c0.492,0.079 1.261,0.119 2.306,0.119c0,-0.134 0.018,-0.538 0.055,-1.213c-0.176,0 -1.75,0.116 -4.722,0.347l-0.054,-0.119c0.413,-1.92 0.662,-2.88 0.747,-2.88zM113.904,157.76907c0,0.067 0.194,0.778 0.583,2.133h0.055c0.766,-0.498 1.148,-0.826 1.148,-0.984l0.119,-0.976c-0.146,0 -0.781,-0.057 -1.905,-0.173z" data-paper-data="{&quot;origPos&quot;:null}" fill="#000000"/><path d="M129.636,152.41906c0.188,0.778 0.319,1.258 0.392,1.44c2.685,-0.614 4.104,-0.92 4.256,-0.92c1.829,2.631 2.744,4.004 2.744,4.119l-2.097,4.448l-4.511,-0.72v0.137c0.352,2.704 0.528,4.141 0.528,4.311c-0.042,0 -0.064,0.021 -0.064,0.064c-0.437,-0.043 -0.765,-0.064 -0.984,-0.064h-0.784c-0.456,0 -1.154,-0.021 -2.096,-0.064c-0.085,-0.255 -0.738,-4.135 -1.96,-11.639c0.207,-0.085 1.732,-0.456 4.576,-1.112zM129.964,156.14707c0.121,1.397 0.231,2.096 0.328,2.096c1.246,0.432 2.008,0.647 2.288,0.647l0.72,-3.135h-0.064c-0.711,0.043 -1.802,0.173 -3.272,0.392z" data-paper-data="{&quot;origPos&quot;:null}" fill="#2b70c2"/><path d="M141.64,152.41906c2.309,0.62 3.533,0.997 3.673,1.13c1.27,1.799 1.984,2.835 2.142,3.108c-0.821,2.601 -1.292,3.901 -1.413,3.901c-2.734,0.638 -4.165,0.957 -4.293,0.957c-2.26,-1.318 -3.464,-2.053 -3.609,-2.205c-0.079,-2.455 -0.119,-3.81 -0.119,-4.065c-0.036,-0.073 -0.055,-0.128 -0.055,-0.164c2.334,-1.775 3.54,-2.662 3.619,-2.662zM141.412,155.75507c-0.037,0.243 -0.091,1.127 -0.164,2.652l2.032,0.456c0.486,-1.519 0.729,-2.33 0.729,-2.434c-1.616,-0.486 -2.482,-0.729 -2.597,-0.729z" data-paper-data="{&quot;origPos&quot;:null}" fill="#2b70c2"/><path d="M152.285,152.41007c0.079,0.103 0.49,1.865 1.231,5.286h0.064c0,-0.079 0.449,-0.774 1.349,-2.087c0.376,0.255 1.093,0.808 2.151,1.659h0.127v-0.064c0.164,-2.37 0.286,-3.682 0.365,-3.937c2.503,0.127 3.755,0.231 3.755,0.31c-1.148,4.618 -1.762,7.018 -1.841,7.2c-0.383,0.043 -1.185,0.164 -2.406,0.365c-1.003,-1.574 -1.577,-2.413 -1.723,-2.516c-0.656,1.75 -1.066,2.713 -1.23,2.889h-2.461c-0.152,-0.048 -0.869,-1.628 -2.151,-4.739c-0.821,-1.738 -1.231,-2.68 -1.231,-2.826c0,-0.133 1.334,-0.647 4.001,-1.54z" data-paper-data="{&quot;origPos&quot;:null}" fill="#2b70c2"/><path d="M167.489,152.41906c2.752,1.416 4.277,2.242 4.575,2.479c-0.395,1.847 -0.629,2.798 -0.702,2.853h-5.76v0.1l1.613,1.996l2.534,-1.294c0.249,0.432 0.608,1.185 1.075,2.261c-0.218,0.073 -1.813,0.306 -4.785,0.701c-2.461,-1.622 -3.7,-2.467 -3.718,-2.533c0.395,-3.154 0.628,-4.731 0.701,-4.731c2.571,-1.094 4.059,-1.704 4.467,-1.832zM166.896,154.62507c-0.048,0.121 -0.371,0.604 -0.966,1.449c0,0.255 0.358,0.383 1.075,0.383c0,0.036 0.52,0.124 1.559,0.264c0.286,-0.395 0.428,-0.626 0.428,-0.693c-0.091,-0.54 -0.288,-0.811 -0.592,-0.811z" data-paper-data="{&quot;origPos&quot;:null}" fill="#2b70c2"/><path d="M179.438,152.41007c1.203,0.674 1.941,1.112 2.215,1.312c-0.985,2.048 -1.513,3.09 -1.586,3.127h-0.064l-1.303,-1.14l-1.541,1.878l0.173,3.418c-0.079,0.073 -1.084,0.243 -3.017,0.51c-0.073,-0.522 -0.546,-3.083 -1.421,-7.683c0,-0.073 1.269,-0.261 3.809,-0.565c0.043,0.048 0.158,0.616 0.347,1.704c1.519,-1.707 2.315,-2.561 2.388,-2.561z" data-paper-data="{&quot;origPos&quot;:null}" fill="#2b70c2"/><path d="M194.358,152.41007c1.75,1.118 2.716,1.762 2.899,1.932c-0.632,1.404 -0.994,2.106 -1.085,2.106l-3.318,-1.923h-0.118c0,0.06 -0.143,0.401 -0.428,1.02c3.056,1.647 4.584,2.492 4.584,2.534c-0.857,1.981 -1.34,3.026 -1.449,3.136l-5.186,0.3c-2.018,-1.336 -3.102,-2.041 -3.254,-2.114v-0.055c0,-0.152 0.301,-0.835 0.902,-2.051l4.047,2.106l0.301,-1.203c-2.504,-1.124 -3.992,-1.826 -4.466,-2.106v-0.127c0,-0.231 0.483,-1.255 1.449,-3.072z" data-paper-data="{&quot;origPos&quot;:null}" fill="#2b70c2"/><path d="M200.884,149.65706l4.011,0.711l-0.383,3.045c0.796,-0.043 1.379,-0.064 1.75,-0.064h0.583l0.128,-0.064l0.064,0.128c-0.128,1.847 -0.237,2.886 -0.328,3.117l-0.128,-0.073c-0.091,0 -0.911,-0.043 -2.461,-0.128c-0.085,1.428 -0.149,3.136 -0.191,5.123l-0.128,0.063c-1.957,-0.127 -3.123,-0.237 -3.5,-0.328l0.064,-0.255c0,-0.529 0.085,-2.169 0.255,-4.922c-1.641,-0.091 -2.461,-0.2 -2.461,-0.328c0.085,-2.029 0.195,-3.044 0.328,-3.044l2.397,0.456v-0.784c0,-0.638 -0.024,-1.501 -0.073,-2.589c0.049,0 0.073,-0.021 0.073,-0.064z" data-paper-data="{&quot;origPos&quot;:null}" fill="#2b70c2"/><path d="M209.388,152.41007c3.61,0.498 5.414,0.805 5.414,0.921c1.422,1.221 2.133,1.874 2.133,1.959c-0.577,1.805 -0.905,2.902 -0.984,3.291c0.577,1.282 0.905,2.047 0.984,2.296c0,0.073 -0.942,0.268 -2.825,0.584c-0.025,-0.104 -0.198,-0.334 -0.52,-0.693c-2.601,0.498 -4.001,0.747 -4.202,0.747l-1.385,-3.746l3.053,-1.613c0.492,0.079 1.261,0.119 2.306,0.119c0,-0.134 0.018,-0.538 0.055,-1.213c-0.176,0 -1.75,0.116 -4.721,0.347l-0.055,-0.119c0.413,-1.92 0.662,-2.88 0.747,-2.88zM211.284,157.76907c0,0.067 0.195,0.778 0.583,2.133h0.055c0.766,-0.498 1.149,-0.826 1.149,-0.984l0.118,-0.976c-0.146,0 -0.781,-0.057 -1.905,-0.173z" data-paper-data="{&quot;origPos&quot;:null}" fill="#2b70c2"/><path d="M224.354,152.41007c1.204,0.674 1.942,1.112 2.215,1.312c-0.984,2.048 -1.513,3.09 -1.586,3.127h-0.063l-1.304,-1.14l-1.54,1.878l0.173,3.418c-0.079,0.073 -1.085,0.243 -3.017,0.51c-0.073,-0.522 -0.547,-3.083 -1.422,-7.683c0,-0.073 1.27,-0.261 3.81,-0.565c0.043,0.048 0.158,0.616 0.346,1.704c1.52,-1.707 2.316,-2.561 2.388,-2.561z" data-paper-data="{&quot;origPos&quot;:null}" fill="#2b70c2"/><path d="M231.3,149.99507l0.036,0.072c-0.607,5.366 -0.948,8.185 -1.021,8.459c-1.288,-0.122 -2.102,-0.207 -2.442,-0.255v-0.037l-0.584,-7.62c0.146,-0.048 1.483,-0.255 4.011,-0.619zM227.69,158.70807c0.043,0.024 0.991,0.097 2.844,0.219l0.037,0.073c-0.286,1.677 -0.468,2.515 -0.547,2.515h-2.115c-0.073,0 -0.17,-0.838 -0.291,-2.515c-0.025,0 -0.037,-0.073 -0.037,-0.219c0.073,-0.024 0.109,-0.049 0.109,-0.073z" data-paper-data="{&quot;origPos&quot;:null}" fill="#000000"/></g></g></g></svg>