<svg version="1.1" xmlns="http://www.w3.org/2000/svg" xmlns:xlink="http://www.w3.org/1999/xlink" width="62.92138" height="94.89022" viewBox="0,0,62.92138,94.89022"><defs><radialGradient cx="239.37166" cy="179.99994" r="51.53287" gradientUnits="userSpaceOnUse" id="color-1"><stop offset="0" stop-color="#6fc9ff" stop-opacity="0"/><stop offset="1" stop-color="#6fc9ff"/></radialGradient><linearGradient x1="210.6363" y1="134.65188" x2="210.6363" y2="225.34812" gradientUnits="userSpaceOnUse" id="color-2"><stop offset="0" stop-color="#6fc9ff"/><stop offset="1" stop-color="#4395ff"/></linearGradient></defs><g transform="translate(-208.53931,-132.55489)"><g data-paper-data="{&quot;isPaintingLayer&quot;:true}" fill="none" fill-rule="nonzero" stroke="none" stroke-width="none" stroke-linecap="none" stroke-linejoin="miter" stroke-miterlimit="10" stroke-dasharray="" stroke-dashoffset="0" font-family="none" font-weight="none" font-size="none" text-anchor="none" style="mix-blend-mode: normal"><g><g data-paper-data="{&quot;origPos&quot;:null}"><g data-paper-data="{&quot;origPos&quot;:null}" stroke-width="0"><path d="M240.34028,215.82103v-16.39869h6.52839v16.39869z" data-paper-data="{&quot;origPos&quot;:null}" fill="#fff12e" stroke="none" stroke-linecap="butt"/><path d="M248.22985,211.84307c0.40962,0.1487 0.71301,0.61215 0.37305,1.2435c-0.33996,0.63135 -1.02705,0.55536 -1.15024,1.21242c-0.12321,0.65705 0.01424,0.52655 0.43523,0.65284c0.42099,0.12629 0.49228,-0.61663 0.87045,-0.9948c0.37817,-0.37817 0.32023,-0.3987 1.08806,-0.59066c0.76784,-0.19196 1.63039,-0.10222 2.51809,0.06218c0.8877,0.16439 1.30411,0.79696 1.67873,1.02589c0.37462,0.22893 0.42437,0.4721 0.62175,0.93263c0.19738,0.46053 0.24701,0.70069 0.31088,1.2435c0.06387,0.54281 0.06206,0.84041 0,1.39894c-0.06206,0.55853 -0.0511,0.84692 -0.31088,1.39894c-0.25978,0.55202 -0.15519,0.46608 -0.93263,1.2435c-0.77744,0.77743 -0.31287,0.50841 -3.69942,0.77719c-3.38656,0.26878 -5.30651,0.05784 -6.09316,0c-0.78665,-0.05784 -2.44488,-0.54784 -2.95332,-1.08806c-0.50844,-0.54023 -1.2937,-1.4195 -1.39894,-2.33157c-0.10524,-0.91207 0.10499,-3.25213 0.31088,-4.04138c0.20589,-0.78925 -0.81005,-0.9588 -0.43523,-1.43003c0.37484,-0.47123 1.85695,-1.10258 2.61136,-1.30568c0.75441,-0.2031 1.50846,-0.25335 3.17093,-0.06218c1.66248,0.19118 2.57478,0.50414 2.98441,0.65284z" data-paper-data="{&quot;origPos&quot;:null}" fill="#f34135" stroke="#000000" stroke-linecap="round"/><path d="M242.905,222.11627v-0.87045h9.94802v0.87045z" data-paper-data="{&quot;origPos&quot;:null}" fill="#ede3a3" stroke="none" stroke-linecap="butt"/></g><g data-paper-data="{&quot;origPos&quot;:null}" stroke-width="0"><path d="M230.62541,215.89875v-16.39869h6.52839v16.39869z" data-paper-data="{&quot;origPos&quot;:null}" fill="#fff12e" stroke="none" stroke-linecap="butt"/><path d="M238.84141,211.84307c0.40962,0.1487 0.71301,0.61215 0.37305,1.2435c-0.33996,0.63135 -1.02705,0.55536 -1.15024,1.21242c-0.12319,0.65705 0.01424,0.52655 0.43523,0.65284c0.42099,0.12629 0.49228,-0.61663 0.87045,-0.9948c0.37817,-0.37817 0.32023,-0.3987 1.08806,-0.59066c0.76784,-0.19196 1.63039,-0.10222 2.51809,0.06218c0.8877,0.16439 1.30412,0.79696 1.67873,1.02589c0.37461,0.22893 0.42437,0.4721 0.62175,0.93263c0.19738,0.46053 0.24701,0.70069 0.31088,1.2435c0.06387,0.54281 0.06205,0.84041 0,1.39894c-0.06205,0.55853 -0.05111,0.84692 -0.31088,1.39894c-0.25977,0.55202 -0.1552,0.46608 -0.93263,1.2435c-0.77743,0.77743 -0.31287,0.50841 -3.69942,0.77719c-3.38656,0.26878 -5.30651,0.05784 -6.09316,0c-0.78665,-0.05784 -2.44488,-0.54784 -2.95332,-1.08806c-0.50844,-0.54023 -1.2937,-1.4195 -1.39894,-2.33157c-0.10524,-0.91207 0.10499,-3.25213 0.31088,-4.04138c0.20589,-0.78925 -0.81005,-0.9588 -0.43523,-1.43003c0.37484,-0.47123 1.85695,-1.10258 2.61136,-1.30568c0.75441,-0.2031 1.50846,-0.25335 3.17093,-0.06218c1.66248,0.19118 2.57478,0.50414 2.98441,0.65284z" data-paper-data="{&quot;origPos&quot;:null}" fill="#f34135" stroke="#000000" stroke-linecap="round"/><path d="M233.51655,222.11627v-0.87045h9.94802v0.87045z" data-paper-data="{&quot;origPos&quot;:null}" fill="#ede3a3" stroke="none" stroke-linecap="butt"/></g><g data-paper-data="{&quot;origPos&quot;:null}"><path d="M246.91669,182.615l1.44221,0.77614l1.15986,1.56507l2.41931,4.83576l1.23384,-0.17842l1.31755,0.62152l1.4092,1.87431l1.05903,2.76896l-0.33124,0.98143l-1.19594,0.35199l-0.87086,1.00833l-1.87122,0.59032l-1.0823,0.87264l-1.48315,-0.1308l-1.21976,-1.00652l-0.85245,-3.90501l0.34225,-1.3475l-2.19687,-5.06615l-0.55729,-2.9694l0.22551,-1.04928z" data-paper-data="{&quot;origPos&quot;:null}" fill="#fff12e" stroke="#000000" stroke-width="0" stroke-linecap="round"/><path d="M252.80663,197.62451c-0.42712,0.36399 -0.7994,-0.03609 -0.7994,-0.03609l-0.01237,-0.11423c-0.46884,-0.28418 -0.72244,-0.563 -1.01587,-1.00045c0,0 -0.30254,-0.45104 0.1765,-0.74953c0.47906,-0.29849 0.7816,0.15257 0.7816,0.15257c0.24267,0.36177 0.33557,0.47213 0.6796,0.68066l0.24477,0.30299c0,0 0.37228,0.40007 -0.05484,0.76406z" data-paper-data="{&quot;origPos&quot;:null}" fill="#98901b" stroke="none" stroke-width="0.5" stroke-linecap="butt"/><path d="M255.11544,196.12359c-0.42927,0.35415 -0.79774,-0.02841 -0.79774,-0.02841l-0.01144,-0.10999c-0.46577,-0.27013 -0.71673,-0.5368 -1.00617,-0.956c0,0 -0.29844,-0.43225 0.18216,-0.72368c0.48059,-0.29143 0.77903,0.14083 0.77903,0.14083c0.23936,0.3467 0.33124,0.45229 0.67302,0.65051l0.24195,0.29005c0,0 0.36846,0.38258 -0.06081,0.7367z" data-paper-data="{&quot;origPos&quot;:null}" fill="#98901b" stroke="none" stroke-width="0.5" stroke-linecap="butt"/></g><g data-paper-data="{&quot;origPos&quot;:null}"><path d="M247.26635,177.59746c0,2.40369 -3.34041,4.35226 -7.46102,4.35226c-4.12061,0 -7.46102,-1.94857 -7.46102,-4.35226c0,-2.40369 3.34041,-4.35226 7.46102,-4.35226c4.12061,0 7.46102,1.94857 7.46102,4.35226z" data-paper-data="{&quot;origPos&quot;:null}" fill="#ede3a3" stroke="none" stroke-width="0" stroke-linecap="butt"/><path d="M225.77152,192.78597c0,-8.43743 5.60712,-15.27731 12.52384,-15.27731c6.91674,0 12.52385,6.83989 12.52385,15.27731c0,8.43743 -5.60712,15.27733 -12.52385,15.27733c-6.91674,0 -12.52384,-6.83989 -12.52384,-15.27733z" data-paper-data="{&quot;origPos&quot;:null}" fill="#ede3a3" stroke="#00beff" stroke-width="0" stroke-linecap="butt"/><path d="M231.63375,186.0278l16.69846,0.363" data-paper-data="{&quot;origPos&quot;:null}" fill="none" stroke="#e1c69b" stroke-width="1" stroke-linecap="round"/><path d="M232.87726,193.48882l16.69846,0.363" data-paper-data="{&quot;origPos&quot;:null}" fill="none" stroke="#e1c69b" stroke-width="1" stroke-linecap="round"/><path d="M246.97028,202.02341l-16.69846,-0.363" data-paper-data="{&quot;origPos&quot;:null}" fill="none" stroke="#e1c69b" stroke-width="1" stroke-linecap="round"/><path d="M240.38315,189.99643c-3.43087,-0.35977 -4.01623,-5.61271 -1.38062,-7.38356c4.41918,-2.30411 7.28116,4.87347 2.77878,6.91911c0,0 -0.29713,0.13501 -0.61972,0.06951l0.10897,0.28895c0,0 -0.44534,0.29922 -0.88741,0.10598zM240.61607,188.15491c0.166,-0.21768 0.39369,-0.32112 0.39369,-0.32112c1.71196,-0.77781 1.81854,-2.83629 0.10954,-4.02145c-0.30996,-0.21495 -1.12465,-0.02534 -1.07651,0.34878c-1.93353,1.29912 -0.20406,3.91902 0.56939,3.98347z" data-paper-data="{&quot;origPos&quot;:null,&quot;origRot&quot;:0}" fill="#bdaa82" stroke="none" stroke-width="0.5" stroke-linecap="butt"/></g><g data-paper-data="{&quot;origPos&quot;:null}"><path d="M240.81769,183.43445l1.2435,1.06587l0.79939,1.77643l1.33233,5.24048l1.2435,0.08882l1.15468,0.88821l0.97704,2.13172l0.44412,2.93112l-0.53293,0.88821l-1.2435,0.08882l-1.06587,0.7994l-1.95408,0.17765l-1.2435,0.62175l-1.42114,-0.4441l-0.97704,-1.2435v-3.99697l0.62175,-1.2435l-1.06587,-5.41813l0.08882,-3.01993l0.4441,-0.97704z" data-paper-data="{&quot;origPos&quot;:null}" fill="#fff12e" stroke="#000000" stroke-width="0" stroke-linecap="round"/><path d="M243.37102,199.35479c-0.49493,0.26452 -0.77331,-0.20574 -0.77331,-0.20574l0.01227,-0.11424c-0.39744,-0.37763 -0.58575,-0.70412 -0.77913,-1.19409c0,0 -0.19938,-0.5052 0.3323,-0.69465c0.5317,-0.18945 0.73108,0.31575 0.73108,0.31575c0.15993,0.40521 0.22716,0.53284 0.5188,0.80994l0.17451,0.34823c0,0 0.2784,0.47026 -0.21653,0.73477z" data-paper-data="{&quot;origPos&quot;:null}" fill="#98901b" stroke="none" stroke-width="0.5" stroke-linecap="butt"/><path d="M245.94683,198.38082c-0.49493,0.25445 -0.77332,-0.1979 -0.77332,-0.1979l0.01227,-0.10989c-0.39744,-0.36325 -0.58575,-0.6773 -0.77913,-1.1486c0,0 -0.19938,-0.48596 0.33231,-0.66818c0.53168,-0.18224 0.73107,0.30373 0.73107,0.30373c0.15991,0.38978 0.22716,0.51253 0.5188,0.77909l0.17451,0.33497c0,0 0.2784,0.45235 -0.21653,0.70678z" data-paper-data="{&quot;origPos&quot;:null}" fill="#98901b" stroke="none" stroke-width="0.5" stroke-linecap="butt"/></g><g data-paper-data="{&quot;origPos&quot;:null}"><path d="M239.74612,174.31106c3.43385,0 6.21751,0.8351 6.21751,1.86525c0,1.03015 -2.78367,1.86525 -6.21751,1.86525c-3.43385,0 -6.21751,-0.8351 -6.21751,-1.86525c0,-1.03015 2.78367,-1.86525 6.21751,-1.86525z" data-paper-data="{&quot;origPos&quot;:null}" fill="#fff12e" stroke="none" stroke-width="0" stroke-linecap="butt"/><path d="M235.60111,174.93282v-6.01027h7.87553v6.01027z" data-paper-data="{&quot;origPos&quot;:null}" fill="#fff12e" stroke="none" stroke-width="0" stroke-linecap="butt"/><path d="M238.29537,174.72557c-6.29537,0 -11.39877,-5.28899 -11.39877,-11.81328c0,-6.52429 5.1034,-11.81328 11.39877,-11.81328c6.29537,0 11.39878,5.28899 11.39878,11.81328c0,6.52429 -5.10341,11.81328 -11.39878,11.81328z" data-paper-data="{&quot;origPos&quot;:null}" fill="#fff12e" stroke="none" stroke-width="0" stroke-linecap="butt"/><path d="M244.30564,152.13527c7.55444,0 12.22777,6.23245 12.22777,12.64228c0,6.40983 1.75144,9.94802 -5.803,9.94802c-3.02033,0 -4.73756,-2.57646 -7.69239,-3.20207c-2.28331,-0.48342 -6.15504,-0.13818 -6.54344,-2.43955c-0.0511,-0.30274 0.25662,-16.94868 7.81106,-16.94868z" data-paper-data="{&quot;origPos&quot;:null}" fill="#fff12e" stroke="#9966ff" stroke-width="0" stroke-linecap="butt"/><path d="M236.63737,170.16606l7.925,1.03626l2.64167,1.2435l2.07559,1.86525" data-paper-data="{&quot;origPos&quot;:null}" fill="none" stroke="#98901b" stroke-width="1.5" stroke-linecap="round"/><path d="M249.46792,158.40027c-0.88414,-0.05108 -1.05918,-0.70329 -1.05918,-0.70329l-0.15621,-0.22757c-0.10698,-0.51789 -0.21398,-1.03581 -0.32096,-1.55371c0,0 -0.1341,-0.64917 0.75717,-0.56808c0.89127,0.08109 1.02537,0.73026 1.02537,0.73026c0.10698,0.51789 0.21398,1.03581 0.32096,1.55371l0.14193,0.16755c0,0 0.17505,0.65222 -0.70908,0.60113z" data-paper-data="{&quot;origPos&quot;:null,&quot;origRot&quot;:0}" fill="#98901b" stroke="#98901b" stroke-width="0" stroke-linecap="butt"/><path d="M244.90842,158.9332c-0.88414,-0.05108 -1.05918,-0.70329 -1.05918,-0.70329l-0.15621,-0.22757c-0.10698,-0.51789 -0.21398,-1.03581 -0.32096,-1.55372c0,0 -0.1341,-0.64917 0.75717,-0.56807c0.89127,0.08109 1.02536,0.73026 1.02536,0.73026c0.10698,0.51789 0.21398,1.03581 0.32096,1.55372l0.14195,0.16754c0,0 0.17505,0.65222 -0.70908,0.60113z" data-paper-data="{&quot;origPos&quot;:null,&quot;origRot&quot;:0}" fill="#98901b" stroke="#98901b" stroke-width="0" stroke-linecap="butt"/><path d="M232.02264,163.87275l1.2435,0.9948l1.4922,1.7409l0.82899,2.0725l0.3316,1.8238l-0.1658,1.2435l-0.41451,0.66321" data-paper-data="{&quot;origPos&quot;:null}" fill="none" stroke="#eade2c" stroke-width="1" stroke-linecap="round"/><g data-paper-data="{&quot;origPos&quot;:null}" stroke="none" stroke-width="0" stroke-linecap="butt"><path d="M246.55686,147.16126c0,3.89169 0.3174,7.04652 -2.53866,7.04652c-1.14426,0 -5.56938,0.75253 -6.47819,-0.0137c-1.91491,-1.61448 -1.32585,-4.37567 -1.32585,-7.03282c0,-3.89169 2.31529,-7.04651 5.17135,-7.04651c2.85606,0 5.17135,3.15483 5.17135,7.04651z" data-paper-data="{&quot;origPos&quot;:null}" fill="#fff12e"/><path d="M247.41439,147.78301c0,3.31938 -2.31973,6.01027 -5.18127,6.01027c-2.86154,0 -5.18127,-2.69089 -5.18127,-6.01027c0,-3.31938 2.31973,-6.01026 5.18127,-6.01026c2.86154,0 5.18127,2.69088 5.18127,6.01026z" data-paper-data="{&quot;origPos&quot;:null}" fill="#ffffff"/><path d="M246.99989,148.81927c0,1.25907 -0.69591,2.27976 -1.55438,2.27976c-0.85846,0 -1.55438,-1.02069 -1.55438,-2.27976c0,-1.25907 0.69591,-2.27976 1.55438,-2.27976c0.85846,0 1.55438,1.02069 1.55438,2.27976z" data-paper-data="{&quot;origPos&quot;:null}" fill="#000000"/><path d="M239.51034,147.36851c0,3.89169 0.31739,7.04652 -2.53867,7.04652c-1.14426,0 -5.56938,0.75253 -6.47819,-0.0137c-1.91491,-1.61448 -1.32585,-4.37567 -1.32585,-7.03282c0,-3.89169 2.31529,-7.04651 5.17134,-7.04651c2.85606,0 5.17137,3.15483 5.17137,7.04651z" data-paper-data="{&quot;origPos&quot;:null}" fill="#fff12e"/><path d="M240.36788,147.99026c0,3.31938 -2.31974,6.01027 -5.18127,6.01027c-2.86154,0 -5.18125,-2.69089 -5.18125,-6.01027c0,-3.31938 2.31973,-6.01026 5.18125,-6.01026c2.86154,0 5.18127,2.69088 5.18127,6.01026z" data-paper-data="{&quot;origPos&quot;:null}" fill="#ffffff"/><path d="M239.95337,149.02651c0,1.25907 -0.69591,2.27976 -1.55438,2.27976c-0.85846,0 -1.55438,-1.02069 -1.55438,-2.27976c0,-1.25907 0.69591,-2.27976 1.55438,-2.27976c0.85846,0 1.55438,1.02069 1.55438,2.27976z" data-paper-data="{&quot;origPos&quot;:null}" fill="#000000"/></g></g><g data-paper-data="{&quot;origPos&quot;:null}"><path d="M239.3472,193.55025c0,8.77536 -0.43259,15.19836 -6.07935,15.19836c-5.64676,0 -10.22435,-7.11384 -10.22435,-15.8892c0,-8.77536 4.57759,-15.8892 10.22435,-15.8892c5.64676,0 6.07935,7.80467 6.07935,16.58003z" data-paper-data="{&quot;origPos&quot;:null}" fill="#f34135" stroke="#000000" stroke-width="0" stroke-linecap="butt"/><g data-paper-data="{&quot;origPos&quot;:null}" fill="none" stroke="#bb3228" stroke-width="0.75" stroke-linecap="round"><path d="M225.01185,184.15489l3.52129,2.90151l0.27086,10.91518l-4.06303,2.76335" data-paper-data="{&quot;origPos&quot;:null}"/><path d="M233.13787,200.45859l-4.33388,-2.48701l-0.13544,-11.05336l4.87562,-3.03967" data-paper-data="{&quot;origPos&quot;:null}"/></g><path d="M239.3472,193.64636c0,9.11874 -0.43259,15.79309 -6.07935,15.79309c-5.64676,0 -0.55266,-6.67435 -0.55266,-15.79309c0,-5.37728 -1.56184,-8.38273 -2.06481,-13.73643c-0.19368,-2.06157 0.54682,-3.49239 2.61747,-3.49239c5.64676,0 6.07935,8.11007 6.07935,17.22883z" data-paper-data="{&quot;origPos&quot;:null}" fill="#ffffff" stroke="none" stroke-width="0" stroke-linecap="butt"/></g></g><path d="M210.6363,134.65188h58.7274v90.69624h-58.7274z" data-paper-data="{&quot;origPos&quot;:null}" id="ID0.6911031012423337" fill="url(#color-1)" stroke="url(#color-2)" stroke-width="4.19398" stroke-linecap="round"/></g></g></g></svg>