<svg version="1.1" xmlns="http://www.w3.org/2000/svg" xmlns:xlink="http://www.w3.org/1999/xlink" width="437" height="90.79587" viewBox="0,0,437,90.79587"><defs><linearGradient x1="240" y1="135.60206" x2="240" y2="224.39795" gradientUnits="userSpaceOnUse" id="color-1"><stop offset="0" stop-color="#ffffff"/><stop offset="1" stop-color="#d8d8d8"/></linearGradient><linearGradient x1="240" y1="135.60208" x2="240" y2="224.39795" gradientUnits="userSpaceOnUse" id="color-2"><stop offset="0" stop-color="#343434"/><stop offset="1" stop-color="#090909"/></linearGradient><radialGradient cx="443.8065" cy="206.54466" r="17.9081" gradientUnits="userSpaceOnUse" id="color-3"><stop offset="0" stop-color="#ffffff"/><stop offset="1" stop-color="#e5e5e5"/></radialGradient></defs><g transform="translate(-21.5,-134.60208)"><g data-paper-data="{&quot;isPaintingLayer&quot;:true}" fill-rule="nonzero" stroke-linejoin="miter" stroke-miterlimit="10" stroke-dasharray="" stroke-dashoffset="0" style="mix-blend-mode: normal"><path d="M22.5,224.39795v-88.79587h435v88.79587z" data-paper-data="{&quot;origPos&quot;:null}" fill="url(#color-1)" stroke="url(#color-2)" stroke-width="2" stroke-linecap="butt"/><g data-paper-data="{&quot;origPos&quot;:null}"><path d="M444.3058,202.09868c2.5136,0 4.7909,1.0212 6.4406,2.6702c1.6489,1.6496 2.6702,3.9269 2.6702,6.4405c0,2.5136 -1.0213,4.791 -2.6702,6.4406c-1.6497,1.649 -3.927,2.6702 -6.4406,2.6702c-2.5136,0 -4.7909,-1.0212 -6.4406,-2.6702c-1.6489,-1.6496 -2.6701,-3.927 -2.6701,-6.4406c0,-2.5136 1.0212,-4.7909 2.6701,-6.4405c1.6497,-1.649 3.927,-2.6702 6.4406,-2.6702z" fill="url(#color-3)" stroke="#000000" stroke-width="2.0785" stroke-linecap="butt"/><path d="M441.2734,206.54886l5.6119,0.4503l1.7321,3.187l-3.6374,2.9446l3.3603,-0.5197l0.7967,3.4642l-7.4479,-0.0693l-1.9053,-2.4249l4.6766,-3.3256l-4.5727,-0.3464z" fill="#000000" stroke="none" stroke-width="0.69283" stroke-linecap="round"/></g><text transform="translate(34,157.40423) scale(0.3438,0.3438)" font-size="40" xml:space="preserve" data-paper-data="{&quot;origPos&quot;:null}" fill="#d1d1d1" fill-rule="nonzero" stroke="#000000" stroke-width="10" stroke-linecap="butt" stroke-linejoin="miter" stroke-miterlimit="10" stroke-dasharray="" stroke-dashoffset="0" font-family="Sans Serif" font-weight="normal" text-anchor="start" style="mix-blend-mode: normal"><tspan x="0" dy="0">Toad</tspan></text><g data-paper-data="{&quot;origPos&quot;:null}" stroke="none" stroke-width="1" stroke-linecap="butt"><path d="M35.724,168.49508l0.064,0.119l0.474,6.927h0.055l2.488,-2.607c1.464,1.975 2.215,2.962 2.251,2.962c0.632,-3.093 1.027,-4.949 1.185,-5.569c2.686,0.517 4.029,0.833 4.029,0.948c-1.616,5.135 -2.543,8.039 -2.78,8.714c-0.571,0.036 -1.835,0.155 -3.792,0.355c-0.869,-2.078 -1.303,-3.144 -1.303,-3.199c-0.073,0.006 -0.529,0.914 -1.367,2.725h-0.055c-2.607,-0.176 -3.91,-0.334 -3.91,-0.474c-1.465,-6.459 -2.197,-9.777 -2.197,-9.953v-0.118c0,-0.122 1.62,-0.398 4.858,-0.83z" data-paper-data="{&quot;origPos&quot;:null}" fill="#000000"/><path d="M52.44,171.24807c2.753,1.416 4.278,2.242 4.576,2.479c-0.395,1.847 -0.629,2.798 -0.702,2.853h-5.76v0.1l1.613,1.996l2.534,-1.294c0.249,0.431 0.607,1.185 1.075,2.26c-0.218,0.073 -1.813,0.307 -4.785,0.702c-2.461,-1.622 -3.7,-2.467 -3.719,-2.534c0.395,-3.153 0.629,-4.73 0.702,-4.73c2.571,-1.094 4.059,-1.705 4.466,-1.832zM51.848,173.45306c-0.049,0.122 -0.371,0.605 -0.966,1.45c0,0.255 0.358,0.382 1.075,0.382c0,0.037 0.52,0.125 1.559,0.265c0.286,-0.395 0.428,-0.626 0.428,-0.693c-0.091,-0.541 -0.288,-0.811 -0.592,-0.811z" data-paper-data="{&quot;origPos&quot;:null}" fill="#000000"/><path d="M57.845,168.49508c1.86,0.037 3.224,0.055 4.093,0.055c0.079,0 0.319,3.731 0.72,11.193c-0.31,0.079 -1.392,0.279 -3.245,0.601c-0.091,0 -0.392,-2.285 -0.902,-6.854c-0.043,-0.109 -0.265,-1.774 -0.666,-4.995z" data-paper-data="{&quot;origPos&quot;:null}" fill="#000000"/><path d="M67.261,171.24807c2.74,0.516 4.174,0.811 4.302,0.884v0.109c-0.59,1.665 -0.884,2.528 -0.884,2.589h-0.055c-0.152,0 -0.887,-0.237 -2.206,-0.711c-0.735,1.233 -1.103,1.893 -1.103,1.978l1.823,1.768c1.41,-1.325 2.127,-1.987 2.151,-1.987c1.1,1.44 1.65,2.248 1.65,2.424c-0.601,0.347 -1.65,1.027 -3.144,2.042c-2.893,-0.626 -4.454,-0.975 -4.685,-1.048l-1.431,-4.63z" data-paper-data="{&quot;origPos&quot;:null}" fill="#000000"/><path d="M77.524,171.24807c2.309,0.62 3.533,0.996 3.673,1.13c1.27,1.799 1.984,2.835 2.142,3.108c-0.82,2.601 -1.291,3.901 -1.413,3.901c-2.734,0.638 -4.165,0.957 -4.293,0.957c-2.26,-1.318 -3.463,-2.054 -3.609,-2.206c-0.079,-2.455 -0.119,-3.81 -0.119,-4.065c-0.036,-0.073 -0.054,-0.127 -0.054,-0.164c2.333,-1.774 3.539,-2.661 3.618,-2.661zM77.296,174.58406c-0.037,0.243 -0.091,1.127 -0.164,2.652l2.032,0.456c0.486,-1.519 0.73,-2.331 0.73,-2.434c-1.617,-0.486 -2.483,-0.729 -2.598,-0.729z" data-paper-data="{&quot;origPos&quot;:null}" fill="#000000"/><path d="M94.295,171.23908c1.482,0.613 2.761,1.191 3.837,1.731c-0.28,3.616 -0.459,5.594 -0.538,5.934c-1.786,0.444 -2.786,0.665 -2.999,0.665c0,-0.79 -0.06,-2.348 -0.182,-4.675c-0.674,0.066 -1.012,0.124 -1.012,0.173c0,0.231 0.04,1.549 0.119,3.955c0.036,0 0.055,0.022 0.055,0.064c0,0.073 -0.939,0.274 -2.817,0.602c-0.079,-0.097 -0.319,-1.577 -0.72,-4.439c-0.759,0.194 -1.139,0.334 -1.139,0.419l0.364,3.719c-0.073,0.079 -1.072,0.398 -2.998,0.957c-1.118,-3.956 -1.817,-6.611 -2.097,-7.966c2.109,-0.523 3.288,-0.784 3.537,-0.784c0.279,1.106 0.419,1.744 0.419,1.914h0.064c1.027,-0.948 1.744,-1.586 2.151,-1.914h0.064l1.914,1.376h0.064c1.197,-1.154 1.835,-1.731 1.914,-1.731z" data-paper-data="{&quot;origPos&quot;:null}" fill="#000000"/><path d="M104.211,171.24807c2.753,1.416 4.278,2.242 4.576,2.479c-0.395,1.847 -0.629,2.798 -0.702,2.853h-5.76v0.1l1.613,1.996l2.534,-1.294c0.249,0.431 0.607,1.185 1.075,2.26c-0.219,0.073 -1.814,0.307 -4.785,0.702c-2.461,-1.622 -3.7,-2.467 -3.719,-2.534c0.395,-3.153 0.629,-4.73 0.702,-4.73c2.57,-1.094 4.059,-1.705 4.466,-1.832zM103.619,173.45306c-0.049,0.122 -0.371,0.605 -0.966,1.45c0,0.255 0.358,0.382 1.075,0.382c0,0.037 0.52,0.125 1.559,0.265c0.285,-0.395 0.428,-0.626 0.428,-0.693c-0.091,-0.541 -0.288,-0.811 -0.592,-0.811z" data-paper-data="{&quot;origPos&quot;:null}" fill="#000000"/><path d="M116.972,168.48607l4.01,0.711l-0.383,3.044c0.796,-0.042 1.38,-0.064 1.75,-0.064h0.584l0.127,-0.063l0.064,0.127c-0.128,1.847 -0.237,2.887 -0.328,3.117l-0.128,-0.073c-0.091,0 -0.911,-0.042 -2.461,-0.127c-0.085,1.428 -0.149,3.135 -0.191,5.122l-0.128,0.064c-1.956,-0.128 -3.123,-0.237 -3.5,-0.328l0.064,-0.255c0,-0.529 0.085,-2.17 0.255,-4.922c-1.64,-0.091 -2.461,-0.201 -2.461,-0.328c0.085,-2.03 0.195,-3.045 0.329,-3.045l2.397,0.456v-0.784c0,-0.638 -0.025,-1.501 -0.073,-2.588c0.048,0 0.073,-0.021 0.073,-0.064z" data-paper-data="{&quot;origPos&quot;:null}" fill="#000000"/><path d="M127.763,171.24807c2.309,0.62 3.534,0.996 3.673,1.13c1.27,1.799 1.984,2.835 2.142,3.108c-0.82,2.601 -1.291,3.901 -1.412,3.901c-2.735,0.638 -4.166,0.957 -4.293,0.957c-2.261,-1.318 -3.464,-2.054 -3.61,-2.206c-0.079,-2.455 -0.118,-3.81 -0.118,-4.065c-0.037,-0.073 -0.055,-0.127 -0.055,-0.164c2.333,-1.774 3.54,-2.661 3.619,-2.661zM127.535,174.58406c-0.036,0.243 -0.091,1.127 -0.164,2.652l2.033,0.456c0.486,-1.519 0.729,-2.331 0.729,-2.434c-1.616,-0.486 -2.482,-0.729 -2.598,-0.729z" data-paper-data="{&quot;origPos&quot;:null}" fill="#000000"/><path d="M141.763,168.48607l4.011,0.711l-0.383,3.044c0.796,-0.042 1.379,-0.064 1.75,-0.064h0.583l0.128,-0.063l0.064,0.127c-0.128,1.847 -0.237,2.887 -0.328,3.117l-0.128,-0.073c-0.091,0 -0.912,-0.042 -2.461,-0.127c-0.085,1.428 -0.149,3.135 -0.191,5.122l-0.128,0.064c-1.957,-0.128 -3.123,-0.237 -3.5,-0.328l0.064,-0.255c0,-0.529 0.085,-2.17 0.255,-4.922c-1.641,-0.091 -2.461,-0.201 -2.461,-0.328c0.085,-2.03 0.195,-3.045 0.328,-3.045l2.397,0.456v-0.784c0,-0.638 -0.024,-1.501 -0.073,-2.588c0.049,0 0.073,-0.021 0.073,-0.064z" data-paper-data="{&quot;origPos&quot;:null}" fill="#000000"/><path d="M152.965,168.48607c0.037,0.055 0.207,1.72 0.511,4.995c2.345,-0.717 3.594,-1.076 3.746,-1.076l2.324,1.586c-0.377,3.464 -0.623,5.487 -0.738,6.071l-3.227,0.109c0,-0.037 -0.021,-0.055 -0.064,-0.055l0.064,-0.228c0,-0.492 0.073,-1.987 0.219,-4.484c-0.887,-0.036 -1.547,-0.055 -1.978,-0.055h-0.228c0.261,2.777 0.392,4.29 0.392,4.539l-3.063,0.456c-0.115,-0.389 -0.796,-4.019 -2.041,-10.892c0,-0.194 0.474,-0.346 1.422,-0.456c1.197,-0.34 2.084,-0.51 2.661,-0.51z" data-paper-data="{&quot;origPos&quot;:null}" fill="#000000"/><path d="M165.571,171.24807c2.752,1.416 4.277,2.242 4.575,2.479c-0.395,1.847 -0.629,2.798 -0.702,2.853h-5.76v0.1l1.613,1.996l2.534,-1.294c0.249,0.431 0.608,1.185 1.076,2.26c-0.219,0.073 -1.814,0.307 -4.786,0.702c-2.461,-1.622 -3.7,-2.467 -3.718,-2.534c0.395,-3.153 0.629,-4.73 0.701,-4.73c2.571,-1.094 4.06,-1.705 4.467,-1.832zM164.978,173.45306c-0.048,0.122 -0.37,0.605 -0.966,1.45c0,0.255 0.359,0.382 1.076,0.382c0,0.037 0.519,0.125 1.558,0.265c0.286,-0.395 0.429,-0.626 0.429,-0.693c-0.092,-0.541 -0.289,-0.811 -0.593,-0.811z" data-paper-data="{&quot;origPos&quot;:null}" fill="#000000"/><path d="M179.671,168.47708c1.72,0.121 2.579,0.231 2.579,0.328c0.663,1.78 1.067,2.917 1.213,3.409h0.054c0.158,-0.34 0.763,-1.276 1.814,-2.807h0.055c1.646,0.103 2.47,0.215 2.47,0.337l1.485,10.163c0,0.06 -1.3,0.206 -3.901,0.437l-0.054,-0.109c-0.146,-3.087 -0.219,-4.974 -0.219,-5.66h-0.055l-2.251,1.977h-0.055c-0.073,-0.036 -0.586,-0.841 -1.54,-2.415h-0.055c-1.173,3.415 -1.814,5.229 -1.923,5.441h-0.109c-2.097,-0.947 -3.288,-1.516 -3.573,-1.704v-0.055c2.6,-6.113 3.955,-9.227 4.065,-9.342z" data-paper-data="{&quot;origPos&quot;:null}" fill="#2b70c2"/><path d="M195.111,171.23908l0.064,0.118l-1.231,6.526h0.064l3.136,-0.92v-3.692c0.012,-0.085 0.051,-0.127 0.118,-0.127c2.358,0.164 3.67,0.246 3.938,0.246c0,0.042 0.021,0.063 0.063,0.063c0,1.04 -0.328,3.194 -0.984,6.463c0,0.188 -0.942,0.331 -2.826,0.428c-0.097,-0.115 -0.179,-0.361 -0.246,-0.738c-2.412,0.492 -3.788,0.738 -4.129,0.738c-1.926,-1.434 -2.889,-2.172 -2.889,-2.215c0.328,-4.308 0.535,-6.544 0.62,-6.708h0.055c1.537,-0.043 2.953,-0.103 4.247,-0.182z" data-paper-data="{&quot;origPos&quot;:null}" fill="#2b70c2"/><path d="M209.539,171.23908c1.75,1.118 2.717,1.762 2.899,1.932c-0.632,1.404 -0.994,2.105 -1.085,2.105l-3.318,-1.923h-0.118c0,0.061 -0.143,0.401 -0.428,1.021c3.056,1.647 4.584,2.491 4.584,2.534c-0.857,1.981 -1.34,3.026 -1.449,3.135l-5.186,0.301c-2.018,-1.337 -3.102,-2.042 -3.254,-2.115v-0.054c0,-0.152 0.301,-0.836 0.902,-2.051l4.047,2.105l0.301,-1.203c-2.504,-1.124 -3.992,-1.826 -4.466,-2.105v-0.128c0,-0.231 0.483,-1.254 1.449,-3.071z" data-paper-data="{&quot;origPos&quot;:null}" fill="#2b70c2"/><path d="M217.423,168.48607c0.037,0.055 0.207,1.72 0.511,4.995c2.345,-0.717 3.594,-1.076 3.746,-1.076l2.324,1.586c-0.377,3.464 -0.623,5.487 -0.738,6.071l-3.227,0.109c0,-0.037 -0.021,-0.055 -0.063,-0.055l0.063,-0.228c0,-0.492 0.073,-1.987 0.219,-4.484c-0.887,-0.036 -1.546,-0.055 -1.978,-0.055h-0.228c0.262,2.777 0.392,4.29 0.392,4.539l-3.062,0.456c-0.116,-0.389 -0.796,-4.019 -2.042,-10.892c0,-0.194 0.474,-0.346 1.422,-0.456c1.197,-0.34 2.084,-0.51 2.661,-0.51z" data-paper-data="{&quot;origPos&quot;:null}" fill="#2b70c2"/><path d="M231.405,171.23908c1.203,0.674 1.942,1.112 2.215,1.312c-0.984,2.048 -1.513,3.09 -1.586,3.126h-0.064l-1.303,-1.139l-1.54,1.878l0.173,3.418c-0.079,0.073 -1.085,0.243 -3.017,0.51c-0.073,-0.522 -0.547,-3.084 -1.422,-7.684c0,-0.072 1.27,-0.261 3.81,-0.565c0.042,0.049 0.158,0.617 0.346,1.705c1.519,-1.708 2.315,-2.561 2.388,-2.561z" data-paper-data="{&quot;origPos&quot;:null}" fill="#2b70c2"/><path d="M238.013,171.24807c2.309,0.62 3.534,0.996 3.673,1.13c1.27,1.799 1.984,2.835 2.142,3.108c-0.82,2.601 -1.291,3.901 -1.412,3.901c-2.735,0.638 -4.166,0.957 -4.293,0.957c-2.261,-1.318 -3.464,-2.054 -3.61,-2.206c-0.079,-2.455 -0.118,-3.81 -0.118,-4.065c-0.037,-0.073 -0.055,-0.127 -0.055,-0.164c2.333,-1.774 3.54,-2.661 3.619,-2.661zM237.785,174.58406c-0.036,0.243 -0.091,1.127 -0.164,2.652l2.033,0.456c0.486,-1.519 0.729,-2.331 0.729,-2.434c-1.616,-0.486 -2.482,-0.729 -2.598,-0.729z" data-paper-data="{&quot;origPos&quot;:null}" fill="#2b70c2"/><path d="M248.331,171.24807c2.309,0.62 3.533,0.996 3.673,1.13c1.27,1.799 1.984,2.835 2.142,3.108c-0.82,2.601 -1.291,3.901 -1.413,3.901c-2.734,0.638 -4.165,0.957 -4.293,0.957c-2.26,-1.318 -3.463,-2.054 -3.609,-2.206c-0.079,-2.455 -0.118,-3.81 -0.118,-4.065c-0.037,-0.073 -0.055,-0.127 -0.055,-0.164c2.333,-1.774 3.539,-2.661 3.618,-2.661zM248.103,174.58406c-0.036,0.243 -0.091,1.127 -0.164,2.652l2.033,0.456c0.486,-1.519 0.729,-2.331 0.729,-2.434c-1.617,-0.486 -2.482,-0.729 -2.598,-0.729z" data-paper-data="{&quot;origPos&quot;:null}" fill="#2b70c2"/><path d="M265.102,171.23908c1.483,0.613 2.762,1.191 3.837,1.731c-0.279,3.616 -0.459,5.594 -0.538,5.934c-1.786,0.444 -2.786,0.665 -2.998,0.665c0,-0.79 -0.061,-2.348 -0.183,-4.675c-0.674,0.066 -1.011,0.124 -1.011,0.173c0,0.231 0.039,1.549 0.118,3.955c0.037,0 0.055,0.022 0.055,0.064c0,0.073 -0.939,0.274 -2.817,0.602c-0.079,-0.097 -0.319,-1.577 -0.72,-4.439c-0.759,0.194 -1.139,0.334 -1.139,0.419l0.365,3.719c-0.073,0.079 -1.073,0.398 -2.999,0.957c-1.118,-3.956 -1.817,-6.611 -2.096,-7.966c2.108,-0.523 3.287,-0.784 3.536,-0.784c0.28,1.106 0.419,1.744 0.419,1.914h0.064c1.027,-0.948 1.744,-1.586 2.151,-1.914h0.064l1.914,1.376h0.064c1.197,-1.154 1.835,-1.731 1.914,-1.731z" data-paper-data="{&quot;origPos&quot;:null}" fill="#2b70c2"/><path d="M281.189,168.48607c1.866,1.574 2.807,2.385 2.826,2.434c-0.383,0.534 -1.583,2.105 -3.601,4.712c2.145,1.197 3.309,1.826 3.491,1.887c0,0.158 -0.61,1.081 -1.832,2.77h-0.054c-0.505,-0.553 -1.541,-1.589 -3.109,-3.108v0.064c0.152,1.349 0.228,2.124 0.228,2.324c-0.595,0.183 -1.649,0.441 -3.162,0.775c-0.073,-0.188 -0.572,-3.734 -1.495,-10.637c0.121,-0.073 1.285,-0.389 3.491,-0.948c0.073,0.231 0.258,2.079 0.556,5.542h0.054c1.635,-3.798 2.504,-5.736 2.607,-5.815z" data-paper-data="{&quot;origPos&quot;:null}" fill="#2b70c2"/><path d="M286.093,167.58406l3.582,0.565c-0.45,1.719 -0.745,2.579 -0.884,2.579c-1.884,-0.127 -2.826,-0.252 -2.826,-0.374v-2.643c0.018,-0.085 0.061,-0.127 0.128,-0.127zM285.09,171.92206h0.055c2.771,0.505 4.156,0.799 4.156,0.884c-0.796,4.509 -1.279,7.022 -1.449,7.538h-2.889c-0.086,0 -0.128,-0.042 -0.128,-0.128z" data-paper-data="{&quot;origPos&quot;:null}" fill="#2b70c2"/><path d="M298.069,171.23908l3.035,2.087c-0.212,3.463 -0.361,5.487 -0.446,6.07c-0.353,0.043 -1.425,0.106 -3.218,0.192l-0.063,-0.128l-0.319,-4.867l-0.128,-0.064c-1.161,0.249 -1.96,0.437 -2.397,0.565c0.121,2.072 0.182,3.57 0.182,4.494c-1.811,0.504 -2.801,0.756 -2.971,0.756c-1.179,-5.189 -1.768,-7.93 -1.768,-8.221c2.564,-0.334 3.955,-0.502 4.174,-0.502v0.064c0.043,0.031 0.106,0.663 0.191,1.896c2.352,-1.562 3.595,-2.342 3.728,-2.342z" data-paper-data="{&quot;origPos&quot;:null}" fill="#2b70c2"/><path d="M308.806,171.26607c2.583,0.067 3.874,0.179 3.874,0.337c0.444,6.727 0.665,10.306 0.665,10.737c-1.956,1.246 -3.357,2.09 -4.201,2.534c-2.978,-0.936 -4.467,-1.47 -4.467,-1.604c0.96,-1.404 1.516,-2.115 1.668,-2.133c1.623,0.802 2.555,1.203 2.799,1.203l0.865,-1.139c-0.23,-0.942 -0.385,-1.498 -0.464,-1.668c-0.134,0 -1.781,0.267 -4.941,0.802c-1.731,-2.813 -2.597,-4.257 -2.597,-4.329c1.495,-2.388 2.406,-3.789 2.734,-4.202h0.064c0.176,0 1.489,0.288 3.938,0.866v-0.201c0,-0.237 -0.022,-0.617 -0.064,-1.139zM305.817,175.19408c0.085,0.189 0.352,1.191 0.802,3.008c0.565,-0.182 1.431,-0.516 2.597,-1.002c-0.224,-1.094 -0.337,-1.717 -0.337,-1.869l-0.328,-0.064h-0.401c-0.51,0 -1.288,-0.024 -2.333,-0.073z" data-paper-data="{&quot;origPos&quot;:null}" fill="#2b70c2"/><path d="M319.844,168.47708h0.055c2.746,0.231 4.12,0.41 4.12,0.538l1.212,10.728c0,0.079 -1.212,0.279 -3.637,0.601l-0.055,-0.118v-0.976c-2.09,0.565 -3.524,0.93 -4.302,1.094c-1.847,-2.613 -2.816,-4.004 -2.907,-4.174c1.361,-2.473 2.087,-3.725 2.178,-3.756l3.819,0.183c-0.079,-0.468 -0.24,-1.841 -0.483,-4.12zM318.149,175.01206c0.613,1.878 0.996,2.908 1.148,3.09l1.814,-1.577c-0.188,-1.088 -0.328,-1.631 -0.419,-1.631h-2.425c-0.079,0.012 -0.118,0.051 -0.118,0.118z" data-paper-data="{&quot;origPos&quot;:null}" fill="#2b70c2"/><path d="M329.852,171.24807c2.309,0.62 3.533,0.996 3.673,1.13c1.27,1.799 1.984,2.835 2.142,3.108c-0.82,2.601 -1.291,3.901 -1.413,3.901c-2.734,0.638 -4.165,0.957 -4.293,0.957c-2.26,-1.318 -3.463,-2.054 -3.609,-2.206c-0.079,-2.455 -0.119,-3.81 -0.119,-4.065c-0.036,-0.073 -0.054,-0.127 -0.054,-0.164c2.333,-1.774 3.539,-2.661 3.618,-2.661zM329.624,174.58406c-0.036,0.243 -0.091,1.127 -0.164,2.652l2.032,0.456c0.487,-1.519 0.73,-2.331 0.73,-2.434c-1.617,-0.486 -2.483,-0.729 -2.598,-0.729z" data-paper-data="{&quot;origPos&quot;:null}" fill="#2b70c2"/><path d="M346.623,171.23908c1.482,0.613 2.761,1.191 3.837,1.731c-0.28,3.616 -0.459,5.594 -0.538,5.934c-1.786,0.444 -2.786,0.665 -2.999,0.665c0,-0.79 -0.06,-2.348 -0.182,-4.675c-0.674,0.066 -1.012,0.124 -1.012,0.173c0,0.231 0.04,1.549 0.119,3.955c0.036,0 0.055,0.022 0.055,0.064c0,0.073 -0.939,0.274 -2.817,0.602c-0.079,-0.097 -0.319,-1.577 -0.72,-4.439c-0.759,0.194 -1.139,0.334 -1.139,0.419l0.364,3.719c-0.072,0.079 -1.072,0.398 -2.998,0.957c-1.118,-3.956 -1.817,-6.611 -2.097,-7.966c2.109,-0.523 3.288,-0.784 3.537,-0.784c0.279,1.106 0.419,1.744 0.419,1.914h0.064c1.027,-0.948 1.744,-1.586 2.151,-1.914h0.064l1.914,1.376h0.064c1.197,-1.154 1.835,-1.731 1.914,-1.731z" data-paper-data="{&quot;origPos&quot;:null}" fill="#2b70c2"/><path d="M355.382,168.82308l0.036,0.073c-0.607,5.366 -0.948,8.185 -1.021,8.458c-1.288,-0.121 -2.102,-0.206 -2.442,-0.255v-0.036l-0.584,-7.62c0.146,-0.049 1.483,-0.255 4.011,-0.62zM351.772,177.53708c0.043,0.024 0.991,0.097 2.844,0.219l0.037,0.072c-0.286,1.678 -0.468,2.516 -0.547,2.516h-2.115c-0.073,0 -0.17,-0.838 -0.291,-2.516c-0.025,0 -0.037,-0.072 -0.037,-0.218c0.073,-0.025 0.109,-0.049 0.109,-0.073z" data-paper-data="{&quot;origPos&quot;:null}" fill="#000000"/></g><text transform="translate(34,157.40423) scale(0.3438,0.3438)" font-size="40" xml:space="preserve" data-paper-data="{&quot;origPos&quot;:null}" fill="#d1d1d1" fill-rule="nonzero" stroke="none" stroke-width="1" stroke-linecap="butt" stroke-linejoin="miter" stroke-miterlimit="10" stroke-dasharray="" stroke-dashoffset="0" font-family="Sans Serif" font-weight="normal" text-anchor="start" style="mix-blend-mode: normal"><tspan x="0" dy="0">Toad</tspan></text></g></g></svg>