<svg version="1.1" xmlns="http://www.w3.org/2000/svg" xmlns:xlink="http://www.w3.org/1999/xlink" width="437" height="90.79587" viewBox="0,0,437,90.79587"><defs><linearGradient x1="239.96075" y1="135.56279" x2="239.96075" y2="224.35867" gradientUnits="userSpaceOnUse" id="color-1"><stop offset="0" stop-color="#ffffff"/><stop offset="1" stop-color="#d8d8d8"/></linearGradient><linearGradient x1="239.96075" y1="135.5628" x2="239.96075" y2="224.35867" gradientUnits="userSpaceOnUse" id="color-2"><stop offset="0" stop-color="#343434"/><stop offset="1" stop-color="#090909"/></linearGradient><radialGradient cx="443.76725" cy="206.50539" r="17.9081" gradientUnits="userSpaceOnUse" id="color-3"><stop offset="0" stop-color="#ffffff"/><stop offset="1" stop-color="#e5e5e5"/></radialGradient></defs><g transform="translate(-21.46075,-134.5628)"><g data-paper-data="{&quot;isPaintingLayer&quot;:true}" fill-rule="nonzero" stroke-linejoin="miter" stroke-miterlimit="10" stroke-dasharray="" stroke-dashoffset="0" style="mix-blend-mode: normal"><path d="M22.46075,224.35867v-88.79587h435v88.79587z" data-paper-data="{&quot;origPos&quot;:null}" fill="url(#color-1)" stroke="url(#color-2)" stroke-width="2" stroke-linecap="butt"/><g data-paper-data="{&quot;origPos&quot;:null}"><path d="M444.26655,202.0594c2.5136,0 4.7909,1.0212 6.4406,2.6702c1.6489,1.6496 2.6702,3.9269 2.6702,6.4405c0,2.5136 -1.0213,4.791 -2.6702,6.4406c-1.6497,1.649 -3.927,2.6702 -6.4406,2.6702c-2.5136,0 -4.7909,-1.0212 -6.4406,-2.6702c-1.6489,-1.6496 -2.6701,-3.927 -2.6701,-6.4406c0,-2.5136 1.0212,-4.7909 2.6701,-6.4405c1.6497,-1.649 3.927,-2.6702 6.4406,-2.6702z" fill="url(#color-3)" stroke="#000000" stroke-width="2.0785" stroke-linecap="butt"/><path d="M441.23415,206.50959l5.6119,0.4503l1.7321,3.187l-3.6374,2.9446l3.3603,-0.5197l0.7967,3.4642l-7.4479,-0.0693l-1.9053,-2.4249l4.6766,-3.3256l-4.5727,-0.3464z" fill="#000000" stroke="none" stroke-width="0.69283" stroke-linecap="round"/></g><path d="M36.15288,149.32276c2.45803,0.54894 3.82426,0.86304 4.09873,0.94234v0.06403c-0.0854,2.20184 -0.14944,3.4827 -0.19212,3.84256c0.14027,0 0.77157,0.14639 1.89383,0.43914c1.00638,-3.10454 1.55227,-4.65681 1.63767,-4.65681c1.68342,0.75632 2.75384,1.2595 3.21129,1.50958v0.06403c-1.8481,4.30001 -2.89716,6.67264 -3.14724,7.11789c-0.46354,0.38426 -2.07986,1.85419 -4.84895,4.4098h-0.06405l-5.10511,-2.51597c0.46965,-0.8051 1.03688,-1.72915 1.70171,-2.77213c0.0305,0 0.82951,0.52454 2.39703,1.57362h0.06404c0.52454,-0.42695 1.15278,-1.03688 1.88469,-1.82979c0,-0.03659 -1.19547,-1.21071 -3.58639,-3.52237v-4.53788z" data-paper-data="{&quot;origPos&quot;:null}" fill="#000000" stroke="none" stroke-width="0.26458" stroke-linecap="butt"/><path d="M51.48653,152.09488c2.31773,0.62213 3.54676,1.0003 3.68703,1.13448c1.27475,1.80538 1.99142,2.84532 2.15001,3.1198c-0.82342,2.6105 -1.2961,3.91575 -1.41808,3.91575c-2.74469,0.64043 -4.18108,0.96064 -4.30916,0.96064c-2.26894,-1.32355 -3.47662,-2.06157 -3.62298,-2.21404c-0.07929,-2.46413 -0.11893,-3.82428 -0.11893,-4.08045c-0.03659,-0.07318 -0.0549,-0.12807 -0.0549,-0.16468c2.34213,-1.781 3.55285,-2.67149 3.63215,-2.67149zM51.3127,155.4434c-0.03659,0.24398 -0.09149,1.13143 -0.16468,2.66235l2.04022,0.45745c0.48794,-1.52483 0.73191,-2.33907 0.73191,-2.44276c-1.62241,-0.48795 -2.49157,-0.73193 -2.60745,-0.73193z" data-paper-data="{&quot;origPos&quot;:null}" fill="#000000" stroke="none" stroke-width="0.26458" stroke-linecap="butt"/><path d="M63.09656,152.08574l0.06405,0.11891l-1.23511,6.55064h0.06405l3.14723,-0.92403v-3.70534c0.0122,-0.08538 0.05185,-0.12806 0.11893,-0.12806c2.36653,0.16468 3.68399,0.24702 3.95236,0.24702c0,0.04268 0.02135,0.06403 0.06405,0.06403c0,1.04297 -0.32936,3.20519 -0.98809,6.48661c0,0.18906 -0.9454,0.3324 -2.83617,0.42999c-0.09759,-0.11589 -0.17994,-0.36291 -0.24702,-0.74106c-2.42142,0.49404 -3.80291,0.74106 -4.14447,0.74106c-1.93348,-1.43944 -2.90022,-2.18051 -2.90022,-2.22319c0.32936,-4.32441 0.53674,-6.56895 0.62213,-6.73365h0.0549c1.54313,-0.04268 2.96426,-0.10367 4.26342,-0.18297z" data-paper-data="{&quot;origPos&quot;:null}" fill="#000000" stroke="none" stroke-width="0.26458" stroke-linecap="butt"/><path d="M78.43936,152.09488c2.7508,0.51844 4.19023,0.81427 4.31831,0.88746v0.10976c-0.59163,1.67121 -0.88744,2.53731 -0.88744,2.5983h-0.0549c-0.15248,0 -0.89049,-0.23787 -2.21404,-0.71362c-0.73802,1.23817 -1.10703,1.89993 -1.10703,1.98532l1.82979,1.77491c1.41503,-1.32964 2.13475,-1.99447 2.15915,-1.99447c1.10397,1.44553 1.65596,2.25674 1.65596,2.43362c-0.60383,0.34767 -1.65596,1.03079 -3.15638,2.04937c-2.90327,-0.62823 -4.47079,-0.97893 -4.70256,-1.05213l-1.43638,-4.64768z" data-paper-data="{&quot;origPos&quot;:null}" fill="#000000" stroke="none" stroke-width="0.26458" stroke-linecap="butt"/><path d="M86.44471,152.08574c3.62298,0.50014 5.43449,0.80815 5.43449,0.92404c1.42724,1.22595 2.14085,1.88163 2.14085,1.96703c-0.57943,1.81149 -0.90879,2.91242 -0.9881,3.30277c0.57943,1.28695 0.90879,2.05547 0.9881,2.30555c0,0.07318 -0.9454,0.26835 -2.83618,0.58552c-0.0244,-0.10369 -0.19823,-0.33546 -0.5215,-0.69532c-2.6105,0.50015 -4.01638,0.75022 -4.21767,0.75022l-1.39064,-3.76022l3.0649,-1.61937c0.49404,0.07927 1.26561,0.11891 2.31469,0.11891c0,-0.13419 0.01829,-0.53978 0.0549,-1.21681c-0.17688,0 -1.75659,0.11589 -4.73916,0.34767l-0.0549,-0.11891c0.41475,-1.92738 0.66483,-2.89107 0.75022,-2.89107zM88.34769,157.46532c0,0.06708 0.19518,0.7807 0.58553,2.14085h0.0549c0.76852,-0.50013 1.15277,-0.82949 1.15277,-0.98808l0.11894,-0.97895c-0.14639,0 -0.78375,-0.05794 -1.91212,-0.17383z" data-paper-data="{&quot;origPos&quot;:null}" fill="#000000" stroke="none" stroke-width="0.26458" stroke-linecap="butt"/><path d="M103.02262,152.08574l3.0466,2.09511c-0.21347,3.47661 -0.36291,5.50769 -0.44831,6.09321c-0.35376,0.04268 -1.43028,0.10672 -3.22957,0.19212l-0.06404,-0.12806l-0.32022,-4.88555l-0.12809,-0.06403c-1.16497,0.25008 -1.96703,0.43915 -2.40618,0.56724c0.12198,2.07986 0.18297,3.58334 0.18297,4.51042c-1.8176,0.50624 -2.81178,0.75937 -2.98255,0.75937c-1.18327,-5.2088 -1.7749,-7.9596 -1.7749,-8.25237c2.57391,-0.33545 3.97065,-0.50319 4.19023,-0.50319v0.06403c0.04269,0.03049 0.10674,0.66481 0.19212,1.90298c2.36043,-1.56752 3.60774,-2.35128 3.74192,-2.35128z" data-paper-data="{&quot;origPos&quot;:null}" fill="#000000" stroke="none" stroke-width="0.26458" stroke-linecap="butt"/><path d="M119.74691,152.08574l3.0466,2.09511c-0.21347,3.47661 -0.36291,5.50769 -0.44831,6.09321c-0.35376,0.04268 -1.43028,0.10672 -3.22957,0.19212l-0.06404,-0.12806l-0.32022,-4.88555l-0.12809,-0.06403c-1.16497,0.25008 -1.96703,0.43915 -2.40618,0.56724c0.12198,2.07986 0.18298,3.58334 0.18298,4.51042c-1.8176,0.50624 -2.81178,0.75937 -2.98256,0.75937c-1.18327,-5.2088 -1.77491,-7.9596 -1.77491,-8.25237c2.57391,-0.33545 3.97065,-0.50319 4.19023,-0.50319v0.06403c0.04269,0.03049 0.10674,0.66481 0.19212,1.90298c2.36043,-1.56752 3.60774,-2.35128 3.74192,-2.35128z" data-paper-data="{&quot;origPos&quot;:null}" fill="#000000" stroke="none" stroke-width="0.26458" stroke-linecap="butt"/><path d="M127.3863,152.09488c2.31773,0.62213 3.54675,1.0003 3.68703,1.13448c1.27475,1.80538 1.99143,2.84532 2.15001,3.1198c-0.82341,2.6105 -1.2961,3.91575 -1.41809,3.91575c-2.74469,0.64043 -4.18109,0.96064 -4.30916,0.96064c-2.26894,-1.32355 -3.4766,-2.06157 -3.62298,-2.21404c-0.0793,-2.46413 -0.11894,-3.82428 -0.11894,-4.08045c-0.0366,-0.07318 -0.0549,-0.12807 -0.0549,-0.16468c2.34213,-1.781 3.55284,-2.67149 3.63214,-2.67149zM127.21247,155.4434c-0.0366,0.24398 -0.09148,1.13143 -0.16468,2.66235l2.04021,0.45745c0.48794,-1.52483 0.73191,-2.33907 0.73191,-2.44276c-1.62241,-0.48795 -2.49157,-0.73193 -2.60744,-0.73193z" data-paper-data="{&quot;origPos&quot;:null}" fill="#000000" stroke="none" stroke-width="0.26458" stroke-linecap="butt"/><path d="M138.07229,152.08574c0.0793,0.10369 0.491,1.87248 1.23511,5.30639h0.06405c0,-0.07927 0.45134,-0.77765 1.35404,-2.09511c0.37816,0.25617 1.09788,0.81121 2.15916,1.66511h0.12809v-0.06403c0.16468,-2.37873 0.28666,-3.69619 0.36596,-3.95236c2.51292,0.12809 3.76937,0.23178 3.76937,0.31106c-1.15277,4.63547 -1.76879,7.0447 -1.8481,7.22769c-0.38425,0.04268 -1.18936,0.16466 -2.41532,0.36595c-1.00638,-1.57971 -1.58277,-2.42142 -1.72915,-2.52511c-0.65872,1.75661 -1.07043,2.72334 -1.23511,2.90022h-2.47022c-0.15248,-0.04879 -0.8722,-1.63461 -2.15916,-4.75746c-0.82341,-1.74439 -1.23511,-2.68979 -1.23511,-2.83617c0,-0.13418 1.33881,-0.64959 4.01639,-1.54618z" data-paper-data="{&quot;origPos&quot;:null}" fill="#000000" stroke="none" stroke-width="0.26458" stroke-linecap="butt"/><path d="M156.3519,152.08574c1.49434,3.42781 2.29029,5.20576 2.38787,5.33383c0.73802,-2.79957 1.16802,-4.29084 1.29002,-4.47383c2.32994,0.21347 3.4949,0.39645 3.4949,0.54894v0.06404c-1.63461,4.48909 -2.51292,6.84037 -2.6349,7.05384c-1.8054,0.32937 -3.01305,0.5337 -3.62298,0.61299l-4.47384,-6.62385v-0.12806c0.04269,-0.07927 1.22902,-0.87524 3.55895,-2.38789z" data-paper-data="{&quot;origPos&quot;:null}" fill="#000000" stroke="none" stroke-width="0.26458" stroke-linecap="butt"/><path d="M165.76619,148.41699l3.59554,0.56723c-0.45134,1.7261 -0.74717,2.58915 -0.88744,2.58915c-1.89079,-0.12807 -2.83617,-0.25311 -2.83617,-0.37509v-2.6532c0.01829,-0.08538 0.06099,-0.12806 0.1281,-0.12806zM164.7598,152.77191h0.0549c2.78129,0.50624 4.17192,0.80206 4.17192,0.88744c-0.79901,4.52568 -1.2839,7.04776 -1.45469,7.5662h-2.90022c-0.0854,0 -0.12809,-0.04268 -0.12809,-0.12806z" data-paper-data="{&quot;origPos&quot;:null}" fill="#000000" stroke="none" stroke-width="0.26458" stroke-linecap="butt"/><path d="M177.04685,152.08574c1.7566,1.12227 2.72639,1.76881 2.90936,1.93958c-0.63433,1.40894 -0.99724,2.11341 -1.08873,2.11341l-3.33022,-1.93043h-0.11893c0,0.06097 -0.14333,0.40253 -0.42999,1.02468c3.06795,1.65292 4.60192,2.50073 4.60192,2.54342c-0.86,1.98837 -1.3449,3.03745 -1.45469,3.14723l-5.20576,0.30192c-2.02498,-1.34186 -3.1137,-2.04937 -3.26618,-2.12256v-0.05488c0,-0.15248 0.30192,-0.83866 0.90575,-2.05851l4.06213,2.11341l0.30192,-1.20767c-2.51292,-1.12837 -4.00724,-1.83284 -4.48298,-2.11341v-0.12806c0,-0.23178 0.48489,-1.25952 1.45469,-3.0832z" data-paper-data="{&quot;origPos&quot;:null}" fill="#000000" stroke="none" stroke-width="0.26458" stroke-linecap="butt"/><path d="M182.12452,148.41699l3.59554,0.56723c-0.45134,1.7261 -0.74716,2.58915 -0.88744,2.58915c-1.89079,-0.12807 -2.83617,-0.25311 -2.83617,-0.37509v-2.6532c0.01829,-0.08538 0.06099,-0.12806 0.12809,-0.12806zM181.11814,152.77191h0.0549c2.78129,0.50624 4.17192,0.80206 4.17192,0.88744c-0.79901,4.52568 -1.2839,7.04776 -1.45469,7.5662h-2.90022c-0.0854,0 -0.1281,-0.04268 -0.1281,-0.12806z" data-paper-data="{&quot;origPos&quot;:null}" fill="#000000" stroke="none" stroke-width="0.26458" stroke-linecap="butt"/><path d="M188.75753,149.32276l4.02555,0.71361l-0.38426,3.05575c0.79901,-0.04268 1.38454,-0.06403 1.75659,-0.06403h0.58554l0.12809,-0.06403l0.06405,0.12806c-0.12809,1.85419 -0.23788,2.89718 -0.32936,3.12894l-0.12809,-0.07318c-0.09149,0 -0.9149,-0.04268 -2.47022,-0.12806c-0.0854,1.43334 -0.14944,3.14725 -0.19212,5.14171l-0.1281,0.06404c-1.96397,-0.12808 -3.13503,-0.23788 -3.5132,-0.32936l0.06404,-0.25617c0,-0.53064 0.0854,-2.17746 0.25617,-4.94044c-1.64681,-0.09147 -2.47022,-0.20126 -2.47022,-0.32936c0.0854,-2.03716 0.19518,-3.05575 0.32936,-3.05575l2.40617,0.45745v-0.78681c0,-0.64044 -0.0244,-1.50653 -0.07319,-2.59831c0.04879,0 0.07319,-0.02135 0.07319,-0.06404z" data-paper-data="{&quot;origPos&quot;:null}" fill="#000000" stroke="none" stroke-width="0.26458" stroke-linecap="butt"/><path d="M207.74161,149.32276c2.19576,1.11007 3.32414,1.66511 3.38513,1.66511c0,0.09756 -0.45745,0.97892 -1.37235,2.64405h-0.06403c-0.07318,0 -1.1253,-0.4971 -3.15638,-1.49128l-1.03383,1.38149c1.7505,0.84171 3.87609,1.9152 6.37681,3.22045c-1.13447,2.01887 -1.93956,3.36071 -2.41532,4.02553l-5.16916,0.45745c-2.36043,-1.59192 -3.60774,-2.41532 -3.74192,-2.47022v-0.06403c0,-0.17079 0.4788,-0.95454 1.43638,-2.35128h0.11893c0.37815,0.22567 1.56447,0.87524 3.55895,1.94872l1.20766,-1.37233c-3.66568,-1.86639 -5.69675,-2.92157 -6.09321,-3.16555v-0.05489c1.16497,-2.26894 1.79931,-3.41868 1.903,-3.44917c3.03135,-0.61602 4.7178,-0.92403 5.05936,-0.92403z" data-paper-data="{&quot;origPos&quot;:null}" fill="#2b70c2" stroke="none" stroke-width="0.26458" stroke-linecap="butt"/><path d="M216.88142,149.32276c0.08538,0.24396 0.2775,1.97312 0.57639,5.18745l2.74469,-3.07405h0.06403c0.42695,0.35376 1.2168,1.10093 2.36957,2.24148v0.06403l-2.62575,2.16831c1.97617,1.32355 3.02221,2.07071 3.1381,2.2415c-1.24426,1.38453 -1.99142,2.1744 -2.2415,2.36958l-3.19298,-2.94597c0.12807,1.31745 0.19212,2.29946 0.19212,2.94597c-0.15248,0.08538 -1.28389,0.3202 -3.39426,0.70447c-0.17077,-0.8539 -0.72581,-4.52263 -1.6651,-11.0062c0.39035,-0.12807 1.73525,-0.42694 4.03468,-0.89659z" data-paper-data="{&quot;origPos&quot;:null}" fill="#2b70c2" stroke="none" stroke-width="0.26458" stroke-linecap="butt"/><path d="M228.1438,152.10403c0.08538,0.0122 0.12806,0.05488 0.12806,0.12806l-0.9515,5.26979c1.8176,-0.21347 2.72639,-0.38425 2.72639,-0.51233c0.34156,-2.11037 0.5764,-3.29364 0.70447,-3.5498c2.25064,0.46354 3.49796,0.73802 3.74193,0.82342c-1.31134,4.50738 -2.03107,6.85563 -2.15915,7.04469c-2.29334,1.61022 -3.58335,2.50071 -3.87001,2.67149c-0.08538,0 -1.54616,-0.35986 -4.38235,-1.07957v-0.06403c0.7502,-1.65292 1.2168,-2.47937 1.39979,-2.47937l2.79044,1.39979l1.33575,-2.28724c-1.20156,0.29886 -1.89994,0.44829 -2.09511,0.44829l-3.55895,-1.84808c0.43306,-3.97676 0.70752,-5.96513 0.82341,-5.96513z" data-paper-data="{&quot;origPos&quot;:null}" fill="#2b70c2" stroke="none" stroke-width="0.26458" stroke-linecap="butt"/><path d="M249.37854,149.30444c0.03659,0.07927 0.05488,0.13722 0.05488,0.17384c-0.03659,1.8176 -0.05488,2.86972 -0.05488,3.15639l-0.11891,0.05488c-2.79957,0.07318 -4.40369,0.10976 -4.81235,0.10976l-0.05488,0.11892c0.03659,0.67703 0.05488,1.23205 0.05488,1.6651v0.28363h0.05489l3.72363,-0.45745l0.06403,0.10976v2.80873c0,0.07927 -0.03964,0.11891 -0.11891,0.11891l-3.49489,-0.40255v0.3385c0,0.76852 0.02135,1.91518 0.06403,3.44001c-0.34156,0.07927 -1.37539,0.21346 -3.10148,0.40255c-0.10978,-0.21347 -0.64348,-3.74802 -1.60108,-10.60365h0.05488z" data-paper-data="{&quot;origPos&quot;:null}" fill="#2b70c2" stroke="none" stroke-width="0.26458" stroke-linecap="butt"/><path d="M256.99961,152.08574c1.20765,0.67703 1.94873,1.11617 2.22319,1.31745c-0.98809,2.05545 -1.51872,3.10149 -1.59192,3.13809h-0.06403l-1.3083,-1.14363l-1.54616,1.8847l0.17382,3.43086c-0.07927,0.07318 -1.08872,0.24395 -3.02831,0.51234c-0.07318,-0.52454 -0.54892,-3.09539 -1.42723,-7.71258c0,-0.07318 1.27475,-0.26226 3.82426,-0.56723c0.04268,0.04879 0.15858,0.61907 0.34766,1.71085c1.52483,-1.71391 2.32384,-2.57085 2.39704,-2.57085z" data-paper-data="{&quot;origPos&quot;:null}" fill="#2b70c2" stroke="none" stroke-width="0.26458" stroke-linecap="butt"/><path d="M263.63261,152.09488c2.31773,0.62213 3.54673,1.0003 3.68702,1.13448c1.27475,1.80538 1.99143,2.84532 2.15002,3.1198c-0.82342,2.6105 -1.2961,3.91575 -1.4181,3.91575c-2.74469,0.64043 -4.18107,0.96064 -4.30916,0.96064c-2.26894,-1.32355 -3.4766,-2.06157 -3.62298,-2.21404c-0.07927,-2.46413 -0.11891,-3.82428 -0.11891,-4.08045c-0.03659,-0.07318 -0.05489,-0.12807 -0.05489,-0.16468c2.34214,-1.781 3.55284,-2.67149 3.63213,-2.67149zM263.45878,155.4434c-0.03659,0.24398 -0.09149,1.13143 -0.16469,2.66235l2.04023,0.45745c0.48794,-1.52483 0.73191,-2.33907 0.73191,-2.44276c-1.62241,-0.48795 -2.49156,-0.73193 -2.60745,-0.73193z" data-paper-data="{&quot;origPos&quot;:null}" fill="#2b70c2" stroke="none" stroke-width="0.26458" stroke-linecap="butt"/><path d="M277.68541,152.08574c1.75661,1.12227 2.72639,1.76881 2.90937,1.93958c-0.63433,1.40894 -0.99724,2.11341 -1.08873,2.11341l-3.33021,-1.93043h-0.11892c0,0.06097 -0.14333,0.40253 -0.42999,1.02468c3.06795,1.65292 4.60193,2.50073 4.60193,2.54342c-0.86,1.98837 -1.34491,3.03745 -1.45469,3.14723l-5.20577,0.30192c-2.02496,-1.34186 -3.11369,-2.04937 -3.26617,-2.12256v-0.05488c0,-0.15248 0.30192,-0.83866 0.90574,-2.05851l4.06213,2.11341l0.30192,-1.20767c-2.5129,-1.12837 -4.00724,-1.83284 -4.48299,-2.11341v-0.12806c0,-0.23178 0.48489,-1.25952 1.45468,-3.0832z" data-paper-data="{&quot;origPos&quot;:null}" fill="#2b70c2" stroke="none" stroke-width="0.26458" stroke-linecap="butt"/><path d="M284.23608,149.32276l4.02554,0.71361l-0.38426,3.05575c0.79901,-0.04268 1.38456,-0.06403 1.75661,-0.06403h0.58553l0.12806,-0.06403l0.06403,0.12806c-0.12809,1.85419 -0.23788,2.89718 -0.32936,3.12894l-0.12806,-0.07318c-0.09147,0 -0.91489,-0.04268 -2.47022,-0.12806c-0.08538,1.43334 -0.14941,3.14725 -0.19212,5.14171l-0.12806,0.06404c-1.96399,-0.12808 -3.13505,-0.23788 -3.5132,-0.32936l0.06403,-0.25617c0,-0.53064 0.08539,-2.17746 0.25617,-4.94044c-1.64681,-0.09147 -2.47021,-0.20126 -2.47021,-0.32936c0.08538,-2.03716 0.19516,-3.05575 0.32936,-3.05575l2.40618,0.45745v-0.78681c0,-0.64044 -0.02439,-1.50653 -0.07318,-2.59831c0.04879,0 0.07318,-0.02135 0.07318,-0.06404z" data-paper-data="{&quot;origPos&quot;:null}" fill="#2b70c2" stroke="none" stroke-width="0.26458" stroke-linecap="butt"/><path d="M303.22017,149.32276c2.19575,1.11007 3.32412,1.66511 3.38511,1.66511c0,0.09756 -0.45745,0.97892 -1.37235,2.64405h-0.06403c-0.07318,0 -1.12529,-0.4971 -3.15638,-1.49128l-1.03383,1.38149c1.7505,0.84171 3.8761,1.9152 6.37682,3.22045c-1.13446,2.01887 -1.93957,3.36071 -2.41532,4.02553l-5.16917,0.45745c-2.36043,-1.59192 -3.60774,-2.41532 -3.74193,-2.47022v-0.06403c0,-0.17079 0.4788,-0.95454 1.4364,-2.35128h0.11891c0.37817,0.22567 1.56449,0.87524 3.55896,1.94872l1.20765,-1.37233c-3.66568,-1.86639 -5.69675,-2.92157 -6.09321,-3.16555v-0.05489c1.16498,-2.26894 1.7993,-3.41868 1.90299,-3.44917c3.03135,-0.61602 4.71782,-0.92403 5.05938,-0.92403z" data-paper-data="{&quot;origPos&quot;:null}" fill="#2b70c2" stroke="none" stroke-width="0.26458" stroke-linecap="butt"/><path d="M311.92081,152.09488c2.75079,0.51844 4.19022,0.81427 4.3183,0.88746v0.10976c-0.59163,1.67121 -0.88744,2.53731 -0.88744,2.5983h-0.05489c-0.15248,0 -0.8905,-0.23787 -2.21404,-0.71362c-0.73802,1.23817 -1.10702,1.89993 -1.10702,1.98532l1.82978,1.77491c1.41503,-1.32964 2.13476,-1.99447 2.15916,-1.99447c1.10397,1.44553 1.65596,2.25674 1.65596,2.43362c-0.60384,0.34767 -1.65596,1.03079 -3.15638,2.04937c-2.90327,-0.62823 -4.4708,-0.97893 -4.70258,-1.05213l-1.43638,-4.64768z" data-paper-data="{&quot;origPos&quot;:null}" fill="#2b70c2" stroke="none" stroke-width="0.26458" stroke-linecap="butt"/><path d="M325.10447,152.08574c1.20765,0.67703 1.94873,1.11617 2.22319,1.31745c-0.98809,2.05545 -1.51872,3.10149 -1.59191,3.13809h-0.06403l-1.3083,-1.14363l-1.54617,1.8847l0.17383,3.43086c-0.07927,0.07318 -1.08871,0.24395 -3.0283,0.51234c-0.07318,-0.52454 -0.54892,-3.09539 -1.42723,-7.71258c0,-0.07318 1.27475,-0.26226 3.82426,-0.56723c0.04268,0.04879 0.15858,0.61907 0.34766,1.71085c1.52483,-1.71391 2.32383,-2.57085 2.39703,-2.57085z" data-paper-data="{&quot;origPos&quot;:null}" fill="#2b70c2" stroke="none" stroke-width="0.26458" stroke-linecap="butt"/><path d="M329.44108,152.08574c3.623,0.50014 5.43449,0.80815 5.43449,0.92404c1.42723,1.22595 2.14085,1.88163 2.14085,1.96703c-0.57943,1.81149 -0.90879,2.91242 -0.98808,3.30277c0.57943,1.28695 0.90879,2.05547 0.98808,2.30555c0,0.07318 -0.9454,0.26835 -2.83617,0.58552c-0.02439,-0.10369 -0.19823,-0.33546 -0.5215,-0.69532c-2.6105,0.50015 -4.01639,0.75022 -4.21767,0.75022l-1.39063,-3.76022l3.0649,-1.61937c0.49404,0.07927 1.26559,0.11891 2.31468,0.11891c0,-0.13419 0.0183,-0.53978 0.05489,-1.21681c-0.17688,0 -1.75659,0.11589 -4.73917,0.34767l-0.05489,-0.11891c0.41476,-1.92738 0.66483,-2.89107 0.7502,-2.89107zM331.34407,157.46532c0,0.06708 0.19518,0.7807 0.58553,2.14085h0.05488c0.76851,-0.50013 1.15278,-0.82949 1.15278,-0.98808l0.11892,-0.97895c-0.14639,0 -0.78375,-0.05794 -1.91213,-0.17383z" data-paper-data="{&quot;origPos&quot;:null}" fill="#2b70c2" stroke="none" stroke-width="0.26458" stroke-linecap="butt"/><path d="M337.89471,149.3319c1.86639,0.03659 3.23568,0.05488 4.10789,0.05488c0.07927,0 0.3202,3.74498 0.72277,11.23492c-0.31106,0.07927 -1.39674,0.28056 -3.25704,0.60384c-0.09147,0 -0.39339,-2.29335 -0.90574,-6.88002c-0.04268,-0.10978 -0.26532,-1.78099 -0.66788,-5.01362z" data-paper-data="{&quot;origPos&quot;:null}" fill="#2b70c2" stroke="none" stroke-width="0.26458" stroke-linecap="butt"/><path d="M345.14069,152.08574c3.62298,0.50014 5.43447,0.80815 5.43447,0.92404c1.42725,1.22595 2.14087,1.88163 2.14087,1.96703c-0.57943,1.81149 -0.90879,2.91242 -0.98809,3.30277c0.57943,1.28695 0.90879,2.05547 0.98809,2.30555c0,0.07318 -0.94539,0.26835 -2.83617,0.58552c-0.02439,-0.10369 -0.19823,-0.33546 -0.5215,-0.69532c-2.6105,0.50015 -4.01639,0.75022 -4.21767,0.75022l-1.39065,-3.76022l3.06489,-1.61937c0.49406,0.07927 1.26561,0.11891 2.3147,0.11891c0,-0.13419 0.01829,-0.53978 0.05488,-1.21681c-0.17688,0 -1.7566,0.11589 -4.73916,0.34767l-0.05488,-0.11891c0.41476,-1.92738 0.66483,-2.89107 0.75022,-2.89107zM347.04366,157.46532c0,0.06708 0.19518,0.7807 0.58555,2.14085h0.05488c0.76851,-0.50013 1.15277,-0.82949 1.15277,-0.98808l0.11892,-0.97895c-0.14639,0 -0.78377,-0.05794 -1.91214,-0.17383z" data-paper-data="{&quot;origPos&quot;:null}" fill="#2b70c2" stroke="none" stroke-width="0.26458" stroke-linecap="butt"/><path d="M360.09925,152.08574h0.03659c1.62851,0.95758 2.50681,1.45773 2.6349,1.50043v0.08233c-0.42084,0.48186 -1.19546,1.31745 -2.32383,2.50681c2.21404,0.82341 3.4583,1.3205 3.73277,1.49129l-2.06767,2.55255c-1.39674,-1.19547 -2.28724,-1.94264 -2.67149,-2.2415c-0.9454,1.842 -1.53397,2.92463 -1.76576,3.24789h-0.03659c-1.7505,-0.61603 -2.702,-0.98199 -2.85448,-1.09788v-0.04574l2.41532,-3.15638c-2.24454,-0.9271 -3.4461,-1.46993 -3.60468,-1.62852c0.98809,-1.67731 1.54312,-2.57086 1.6651,-2.68064c0.0183,0.04268 1.10397,0.78985 3.25703,2.2415c0.76242,-1.40895 1.29001,-2.333 1.58276,-2.77214z" data-paper-data="{&quot;origPos&quot;:null}" fill="#2b70c2" stroke="none" stroke-width="0.26458" stroke-linecap="butt"/><path d="M369.22076,152.10403c0.08538,0.0122 0.12806,0.05488 0.12806,0.12806l-0.9515,5.26979c1.8176,-0.21347 2.7264,-0.38425 2.7264,-0.51233c0.34156,-2.11037 0.57639,-3.29364 0.70447,-3.5498c2.25065,0.46354 3.49796,0.73802 3.74193,0.82342c-1.31135,4.50738 -2.03107,6.85563 -2.15915,7.04469c-2.29334,1.61022 -3.58335,2.50071 -3.87002,2.67149c-0.08538,0 -1.54615,-0.35986 -4.38234,-1.07957v-0.06403c0.7502,-1.65292 1.2168,-2.47937 1.39979,-2.47937l2.79044,1.39979l1.33575,-2.28724c-1.20157,0.29886 -1.89994,0.44829 -2.09512,0.44829l-3.55895,-1.84808c0.43306,-3.97676 0.70752,-5.96513 0.82341,-5.96513z" data-paper-data="{&quot;origPos&quot;:null}" fill="#2b70c2" stroke="none" stroke-width="0.26458" stroke-linecap="butt"/><path d="M380.49229,149.66126l0.03659,0.07318c-0.60993,5.38569 -0.95149,8.21576 -1.02468,8.49024c-1.29305,-0.122 -2.11035,-0.20739 -2.45191,-0.25618v-0.03659l-0.58554,-7.64853c0.14639,-0.04879 1.48824,-0.25616 4.02555,-0.62213zM376.86929,158.40767c0.04268,0.02439 0.99419,0.09758 2.85449,0.21958l0.03659,0.07317c-0.28666,1.6834 -0.46963,2.52511 -0.54893,2.52511h-2.12256c-0.07318,0 -0.17077,-0.84171 -0.29277,-2.52511c-0.02439,0 -0.03659,-0.07319 -0.03659,-0.21957c0.07318,-0.02439 0.10977,-0.04879 0.10977,-0.07318z" data-paper-data="{&quot;origPos&quot;:null}" fill="#000000" stroke="none" stroke-width="0.26458" stroke-linecap="butt"/></g></g></svg>