<svg version="1.1" xmlns="http://www.w3.org/2000/svg" xmlns:xlink="http://www.w3.org/1999/xlink" width="655.50294" height="362" viewBox="0,0,655.50294,362"><defs><linearGradient x1="241.25158" y1="-1" x2="241.25158" y2="361.00001" gradientUnits="userSpaceOnUse" id="color-1"><stop offset="0" stop-color="#2b5cac"/><stop offset="1" stop-color="#336aca"/></linearGradient><linearGradient x1="205.8721" y1="-0.64162" x2="205.8721" y2="59.64171" gradientUnits="userSpaceOnUse" id="color-2"><stop offset="0" stop-color="#3672d9"/><stop offset="1" stop-color="#3d85f3"/></linearGradient><linearGradient x1="240.25158" y1="72.3" x2="240.25158" y2="285.3" gradientUnits="userSpaceOnUse" id="color-3"><stop offset="0" stop-color="#3672d9"/><stop offset="1" stop-color="#3d85f3"/></linearGradient><radialGradient cx="183.41839" cy="152.7002" r="23.01589" gradientUnits="userSpaceOnUse" id="color-4"><stop offset="0" stop-color="#fff343"/><stop offset="1" stop-color="#fff343" stop-opacity="0"/></radialGradient><linearGradient x1="167.34742" y1="137.64723" x2="167.34742" y2="167.11461" gradientUnits="userSpaceOnUse" id="color-5"><stop offset="0" stop-color="#fff01b"/><stop offset="1" stop-color="#ffa30a"/></linearGradient><linearGradient x1="183.95153" y1="148.66751" x2="183.95153" y2="155.05675" gradientUnits="userSpaceOnUse" id="color-6"><stop offset="0" stop-color="#000000"/><stop offset="1" stop-color="#674205"/></linearGradient><linearGradient x1="178.56583" y1="148.66751" x2="178.56583" y2="155.05675" gradientUnits="userSpaceOnUse" id="color-7"><stop offset="0" stop-color="#000000"/><stop offset="1" stop-color="#674205"/></linearGradient><radialGradient cx="183.73931" cy="190.8942" r="21.35494" gradientUnits="userSpaceOnUse" id="color-8"><stop offset="0" stop-color="#fff343"/><stop offset="1" stop-color="#fff343" stop-opacity="0"/></radialGradient><linearGradient x1="168.82536" y1="177.20475" x2="168.82536" y2="204.54565" gradientUnits="userSpaceOnUse" id="color-9"><stop offset="0" stop-color="#ffec6c"/><stop offset="1" stop-color="#fdc363"/></linearGradient><linearGradient x1="169.67617" y1="177.58319" x2="169.67617" y2="203.6477" gradientUnits="userSpaceOnUse" id="color-10"><stop offset="0" stop-color="#fff01b"/><stop offset="1" stop-color="#ffa30a"/></linearGradient><linearGradient x1="184.23392" y1="187.43169" x2="184.23392" y2="193.35988" gradientUnits="userSpaceOnUse" id="color-11"><stop offset="0" stop-color="#000000"/><stop offset="1" stop-color="#674205"/></linearGradient><linearGradient x1="179.24653" y1="187.40474" x2="179.24653" y2="193.33292" gradientUnits="userSpaceOnUse" id="color-12"><stop offset="0" stop-color="#000000"/><stop offset="1" stop-color="#674205"/></linearGradient><radialGradient cx="192.69479" cy="203.28236" r="4.83731" gradientUnits="userSpaceOnUse" id="color-13"><stop offset="0" stop-color="#ffec1a"/><stop offset="1" stop-color="#ffa50a"/></radialGradient><radialGradient cx="174.12004" cy="203.01277" r="4.83731" gradientUnits="userSpaceOnUse" id="color-14"><stop offset="0" stop-color="#ffec1a"/><stop offset="1" stop-color="#ffa50a"/></radialGradient><radialGradient cx="168.02729" cy="185.65116" r="4.83731" gradientUnits="userSpaceOnUse" id="color-15"><stop offset="0" stop-color="#ffec1a"/><stop offset="1" stop-color="#ffa50a"/></radialGradient><radialGradient cx="182.0999" cy="175.7572" r="4.83731" gradientUnits="userSpaceOnUse" id="color-16"><stop offset="0" stop-color="#ffec1a"/><stop offset="1" stop-color="#ffa50a"/></radialGradient><radialGradient cx="197.35868" cy="185.78596" r="4.83731" gradientUnits="userSpaceOnUse" id="color-17"><stop offset="0" stop-color="#ffec1a"/><stop offset="1" stop-color="#ffa50a"/></radialGradient><linearGradient x1="182.01896" y1="102.85963" x2="182.01896" y2="127.9032" gradientUnits="userSpaceOnUse" id="color-18"><stop offset="0" stop-color="#fcfcfc"/><stop offset="1" stop-color="#d4d4d4"/></linearGradient><linearGradient x1="182.01896" y1="102.85963" x2="182.01896" y2="127.90317" gradientUnits="userSpaceOnUse" id="color-19"><stop offset="0" stop-color="#343434"/><stop offset="1" stop-color="#090909"/></linearGradient></defs><g transform="translate(87.75139,1)"><g data-paper-data="{&quot;isPaintingLayer&quot;:true}" fill-rule="nonzero" stroke-linejoin="miter" stroke-miterlimit="10" stroke-dasharray="" stroke-dashoffset="0" style="mix-blend-mode: normal"><path d="M-84.74844,-1h652v362h-652z" fill="url(#color-1)" stroke="none" stroke-width="1.00627" stroke-linecap="butt"/><path d="M404.97011,-0.64162l-22.35669,60.28323h-470.3648l1.4985,-60.1323z" fill="url(#color-2)" stroke="#000000" stroke-width="0" stroke-linecap="round"/><g fill="#2c6eb0" stroke="#2c6eb0" stroke-width="7.5" stroke-linecap="butt"><path d="M80.63644,15.75299c5.37289,2.71658 8.13395,4.07487 8.28297,4.07487c0,0.23778 -1.11906,2.39421 -3.35707,6.46908h-0.15765c-0.17906,0 -2.75379,-1.21643 -7.72272,-3.64941l-2.53035,3.38149c4.28408,2.05884 9.48518,4.68668 15.60466,7.88037c-2.77676,4.94025 -4.74696,8.2228 -5.91027,9.85046l-12.64884,1.11895c-5.77694,-3.8957 -8.82889,-5.91027 -9.15698,-6.04497v-0.15609c0,-0.4184 1.17206,-2.33549 3.51472,-5.75419h0.29078c0.92566,0.55309 3.82846,2.14209 8.70855,4.76837l2.95593,-3.35707c-8.97075,-4.56768 -13.93969,-7.14956 -14.90971,-7.74703v-0.13334c2.84981,-5.55204 4.40295,-8.36612 4.65653,-8.44052c7.41759,-1.50732 11.54414,-2.26098 12.37947,-2.26098z"/><path d="M99.82297,15.75299l9.85046,1.74655l-0.93989,7.47632c1.9544,-0.10454 3.38721,-0.1562 4.29842,-0.1562h1.4328l0.31228,-0.15609l0.15765,0.31228c-0.31375,4.53764 -0.58312,7.08952 -0.80666,7.65695l-0.31375,-0.17917c-0.22354,0 -2.23812,-0.10454 -6.04363,-0.31375c-0.20909,3.50744 -0.36529,7.70132 -0.46995,12.58285l-0.31375,0.15609c-4.80557,-0.31375 -7.67117,-0.58166 -8.59684,-0.80666l0.1562,-0.62604c0,-1.29812 0.2092,-5.32862 0.6276,-12.09004c-4.0305,-0.22343 -6.04497,-0.49146 -6.04497,-0.8052c0.2092,-4.98474 0.47711,-7.47777 0.8052,-7.47777l5.88877,1.11906v-1.92427c0,-1.56749 -0.06017,-3.68661 -0.17906,-6.3587c0.11888,0 0.17906,-0.05165 0.17906,-0.1562z"/><path d="M126.32982,22.5358c5.67093,1.52311 8.67841,2.44866 9.0223,2.77676c3.11918,4.4173 4.87291,6.962 5.26116,7.63397c-2.01592,6.38739 -3.17219,9.5811 -3.47024,9.5811c-6.71693,1.56749 -10.23156,2.35118 -10.5453,2.35118c-5.55216,-3.23807 -8.50652,-5.04479 -8.86474,-5.41736c-0.19486,-6.03062 -0.29089,-9.359 -0.29089,-9.98515c-0.0902,-0.17906 -0.13469,-0.31375 -0.13469,-0.4026c5.73122,-4.35859 8.6942,-6.53788 8.88772,-6.53788zM125.76958,30.73004c-0.08886,0.59746 -0.22354,2.76813 -0.4026,6.51491l4.99179,1.11895c1.19504,-3.73097 1.79103,-5.72393 1.79103,-5.97762c-3.96887,-1.19346 -6.09651,-1.79093 -6.38023,-1.79093z"/><path d="M158.72386,22.5143c2.95593,1.65634 4.76837,2.73093 5.44033,3.22384c-2.41706,5.02911 -3.71665,7.58803 -3.8957,7.67835h-0.1562l-3.20087,-2.79827l-3.7841,4.61216l0.42557,8.39481c-0.19486,0.17906 -2.66493,0.59746 -7.41042,1.25363c-0.17906,-1.28378 -1.34395,-7.57368 -3.4931,-18.87276c0,-0.17906 3.12064,-0.64194 9.359,-1.38844c0.10454,0.12045 0.38826,1.51596 0.84969,4.18669c3.73233,-4.19377 5.68674,-6.29002 5.8658,-6.29002z"/><path d="M176.23131,22.55879c0.2092,0.03003 0.31375,0.13469 0.31375,0.31375l-2.32832,12.89513c4.44744,-0.52294 6.67112,-0.94135 6.67112,-1.25363c0.83535,-5.16524 1.40995,-8.05954 1.72369,-8.68703c5.50768,1.13475 8.55952,1.80673 9.15698,2.01447c-3.2095,11.0297 -4.97039,16.77661 -5.28414,17.23938c-5.61088,3.94019 -8.76872,6.11814 -9.46938,6.53643c-0.2092,0 -3.78398,-0.87972 -10.72447,-2.64207v-0.15609c1.83686,-4.04484 2.97878,-6.06648 3.42587,-6.06648l6.82865,3.4243l3.26821,-5.59642c-2.94012,0.73069 -4.64947,1.09744 -5.12659,1.09744l-8.70855,-4.5233c1.05888,-9.73012 1.73086,-14.59586 2.01457,-14.59586z"/><path d="M215.31939,15.73002c4.2239,0.29951 6.33585,0.56743 6.33585,0.80666c1.62767,4.37294 2.61909,7.16402 2.97732,8.37183h0.13469c0.38826,-0.83535 1.87272,-3.13353 4.45462,-6.89455h0.13469c4.04472,0.25358 6.06782,0.53012 6.06782,0.82807l3.64796,24.9622c0,0.14902 -3.19369,0.50725 -9.5811,1.07457l-0.13469,-0.26926c-0.35823,-7.58097 -0.5374,-12.21611 -0.5374,-13.90248h-0.13469l-5.52908,4.85857h-0.13469c-0.17917,-0.0902 -1.43998,-2.06747 -3.78264,-5.93314h-0.13469c-2.88131,8.38897 -4.45595,12.84359 -4.72388,13.36508h-0.26937c-5.1481,-2.32832 -8.07388,-3.72236 -8.77589,-4.18513v-0.13469c6.38885,-15.01437 9.71723,-22.66402 9.98515,-22.94774z"/><path d="M250.17645,22.5358c5.67251,1.52311 8.67997,2.44866 9.02239,2.77676c3.11918,4.4173 4.87291,6.962 5.26116,7.63397c-2.01447,6.38739 -3.17072,9.5811 -3.47024,9.5811c-6.71548,1.56749 -10.23009,2.35118 -10.54395,2.35118c-5.55204,-3.23807 -8.50786,-5.04479 -8.8661,-5.41736c-0.1934,-6.03062 -0.29089,-9.359 -0.29089,-9.98515c-0.08886,-0.17906 -0.13469,-0.31375 -0.13469,-0.4026c5.73122,-4.35859 8.6942,-6.53788 8.88906,-6.53788zM249.61777,30.73004c-0.09031,0.59746 -0.22501,2.76813 -0.40406,6.51491l4.99325,1.11895c1.19358,-3.73097 1.79103,-5.72393 1.79103,-5.97762c-3.97032,-1.19346 -6.09663,-1.79093 -6.38023,-1.79093z"/><path d="M280.17636,15.73002c6.74562,0.56743 10.11849,1.00723 10.11849,1.3211l2.97878,26.35053c0,0.1934 -2.97878,0.68633 -8.93354,1.47719l-0.13469,-0.29078v-2.39567c-5.13376,1.38844 -8.65555,2.28384 -10.56692,2.68644c-4.53618,-6.41742 -6.91751,-9.83612 -7.14106,-10.25307c3.34273,-6.075 5.12659,-9.14981 5.35013,-9.22433l9.38052,0.44843c-0.1934,-1.14909 -0.58894,-4.5233 -1.1864,-10.11984zM275.87791,31.78166c1.50732,4.61216 2.44721,7.14252 2.82123,7.5896l4.45451,-3.87295c-0.46276,-2.67064 -0.80666,-4.00753 -1.03009,-4.00753h-5.95476c-0.1934,0.03014 -0.29089,0.12752 -0.29089,0.29089z"/><path d="M319.53382,28.6253c-0.96992,4.53764 -1.54598,6.87302 -1.72504,7.00772h-14.14888v0.24651l3.96316,4.90305l6.22403,-3.17946c0.61181,1.05888 1.49298,2.9101 2.64207,5.55216c-0.53728,0.17906 -4.45595,0.75366 -11.75467,1.72358c-6.04351,-3.98455 -9.08818,-6.0592 -9.134,-6.22403c0.97138,-7.74569 1.54598,-11.61852 1.72504,-11.61852c6.31289,-2.68656 9.96934,-4.18669 10.96954,-4.50044c0,0 10.5066,5.50767 11.23875,6.08943zM306.83925,27.95319c-0.11888,0.29951 -0.90974,1.4858 -2.3727,3.56056c0,0.62614 0.88117,0.93989 2.64207,0.93989c0,0.09031 1.27526,0.30669 3.82846,0.64912c0.70066,-0.97003 1.0516,-1.53747 1.0516,-1.70072c-0.22343,-1.32826 -0.70917,-1.99307 -1.45566,-1.99307z"/></g><g fill="#ffffff" stroke="#184980" stroke-width="7.5" stroke-linecap="butt"><path d="M77.63644,12.75299c5.37289,2.71658 8.13395,4.07487 8.28297,4.07487c0,0.23778 -1.11906,2.39421 -3.35707,6.46908h-0.15765c-0.17906,0 -2.75379,-1.21643 -7.72272,-3.64941l-2.53035,3.38149c4.28408,2.05884 9.48518,4.68668 15.60466,7.88037c-2.77676,4.94025 -4.74696,8.2228 -5.91027,9.85046l-12.64884,1.11895c-5.77694,-3.8957 -8.82889,-5.91027 -9.15698,-6.04497v-0.15609c0,-0.4184 1.17206,-2.33549 3.51472,-5.75419h0.29078c0.92566,0.55309 3.82846,2.14209 8.70855,4.76837l2.95593,-3.35707c-8.97075,-4.56768 -13.93969,-7.14956 -14.90971,-7.74703v-0.13334c2.84981,-5.55204 4.40295,-8.36612 4.65653,-8.44052c7.41759,-1.50732 11.54414,-2.26098 12.37947,-2.26098z"/><path d="M96.82297,12.75299l9.85046,1.74655l-0.93989,7.47632c1.9544,-0.10454 3.38721,-0.1562 4.29842,-0.1562h1.4328l0.31228,-0.15609l0.15765,0.31228c-0.31375,4.53764 -0.58312,7.08952 -0.80666,7.65695l-0.31375,-0.17917c-0.22354,0 -2.23812,-0.10454 -6.04363,-0.31375c-0.20909,3.50744 -0.36529,7.70132 -0.46995,12.58285l-0.31375,0.15609c-4.80557,-0.31375 -7.67117,-0.58166 -8.59684,-0.80666l0.1562,-0.62604c0,-1.29812 0.2092,-5.32862 0.6276,-12.09004c-4.0305,-0.22343 -6.04497,-0.49146 -6.04497,-0.8052c0.2092,-4.98474 0.47711,-7.47777 0.8052,-7.47777l5.88877,1.11906v-1.92427c0,-1.56749 -0.06017,-3.68661 -0.17906,-6.3587c0.11888,0 0.17906,-0.05165 0.17906,-0.1562z"/><path d="M123.32982,19.5358c5.67093,1.52311 8.67841,2.44866 9.0223,2.77676c3.11918,4.4173 4.87291,6.962 5.26116,7.63397c-2.01592,6.38739 -3.17219,9.5811 -3.47024,9.5811c-6.71693,1.56749 -10.23156,2.35118 -10.5453,2.35118c-5.55216,-3.23807 -8.50652,-5.04479 -8.86474,-5.41736c-0.19486,-6.03062 -0.29089,-9.359 -0.29089,-9.98515c-0.0902,-0.17906 -0.13469,-0.31375 -0.13469,-0.4026c5.73122,-4.35859 8.6942,-6.53788 8.88772,-6.53788zM122.76958,27.73004c-0.08886,0.59746 -0.22354,2.76813 -0.4026,6.51491l4.99179,1.11895c1.19504,-3.73097 1.79103,-5.72393 1.79103,-5.97762c-3.96887,-1.19346 -6.09651,-1.79093 -6.38023,-1.79093z"/><path d="M155.72386,19.5143c2.95593,1.65634 4.76837,2.73093 5.44033,3.22384c-2.41706,5.02911 -3.71665,7.58803 -3.8957,7.67835h-0.1562l-3.20087,-2.79827l-3.7841,4.61216l0.42557,8.39481c-0.19486,0.17906 -2.66493,0.59746 -7.41042,1.25363c-0.17906,-1.28378 -1.34395,-7.57368 -3.4931,-18.87276c0,-0.17906 3.12064,-0.64194 9.359,-1.38844c0.10454,0.12045 0.38826,1.51596 0.84969,4.18669c3.73233,-4.19377 5.68674,-6.29002 5.8658,-6.29002z"/><path d="M173.23131,19.55879c0.2092,0.03003 0.31375,0.13469 0.31375,0.31375l-2.32832,12.89513c4.44744,-0.52294 6.67112,-0.94135 6.67112,-1.25363c0.83535,-5.16524 1.40995,-8.05954 1.72369,-8.68703c5.50768,1.13475 8.55952,1.80673 9.15698,2.01447c-3.2095,11.0297 -4.97039,16.77661 -5.28414,17.23938c-5.61088,3.94019 -8.76872,6.11814 -9.46938,6.53643c-0.2092,0 -3.78398,-0.87972 -10.72447,-2.64207v-0.15609c1.83686,-4.04484 2.97878,-6.06648 3.42587,-6.06648l6.82865,3.4243l3.26821,-5.59642c-2.94012,0.73069 -4.64947,1.09744 -5.12659,1.09744l-8.70855,-4.5233c1.05888,-9.73012 1.73086,-14.59586 2.01457,-14.59586z"/><path d="M212.31939,12.73002c4.2239,0.29951 6.33585,0.56743 6.33585,0.80666c1.62767,4.37294 2.61909,7.16402 2.97732,8.37183h0.13469c0.38826,-0.83535 1.87272,-3.13353 4.45462,-6.89455h0.13469c4.04472,0.25358 6.06782,0.53012 6.06782,0.82807l3.64796,24.9622c0,0.14902 -3.19369,0.50725 -9.5811,1.07457l-0.13469,-0.26926c-0.35823,-7.58097 -0.5374,-12.21611 -0.5374,-13.90248h-0.13469l-5.52908,4.85857h-0.13469c-0.17917,-0.0902 -1.43998,-2.06747 -3.78264,-5.93314h-0.13469c-2.88131,8.38897 -4.45595,12.84359 -4.72388,13.36508h-0.26937c-5.1481,-2.32832 -8.07388,-3.72236 -8.77589,-4.18513v-0.13469c6.38885,-15.01437 9.71723,-22.66402 9.98515,-22.94774z"/><path d="M247.17645,19.5358c5.67251,1.52311 8.67997,2.44866 9.02239,2.77676c3.11918,4.4173 4.87291,6.962 5.26116,7.63397c-2.01447,6.38739 -3.17072,9.5811 -3.47024,9.5811c-6.71548,1.56749 -10.23009,2.35118 -10.54395,2.35118c-5.55204,-3.23807 -8.50786,-5.04479 -8.8661,-5.41736c-0.1934,-6.03062 -0.29089,-9.359 -0.29089,-9.98515c-0.08886,-0.17906 -0.13469,-0.31375 -0.13469,-0.4026c5.73122,-4.35859 8.6942,-6.53788 8.88906,-6.53788zM246.61777,27.73004c-0.09031,0.59746 -0.22501,2.76813 -0.40406,6.51491l4.99325,1.11895c1.19358,-3.73097 1.79103,-5.72393 1.79103,-5.97762c-3.97032,-1.19346 -6.09663,-1.79093 -6.38023,-1.79093z"/><path d="M277.17636,12.73002c6.74562,0.56743 10.11849,1.00723 10.11849,1.3211l2.97878,26.35053c0,0.1934 -2.97878,0.68633 -8.93354,1.47719l-0.13469,-0.29078v-2.39567c-5.13376,1.38844 -8.65555,2.28384 -10.56692,2.68644c-4.53618,-6.41742 -6.91751,-9.83612 -7.14106,-10.25307c3.34273,-6.075 5.12659,-9.14981 5.35013,-9.22433l9.38052,0.44843c-0.1934,-1.14909 -0.58894,-4.5233 -1.1864,-10.11984zM272.87791,28.78164c1.50732,4.61216 2.44721,7.14252 2.82123,7.5896l4.45451,-3.87295c-0.46276,-2.67064 -0.80666,-4.00753 -1.03009,-4.00753h-5.95476c-0.1934,0.03014 -0.29089,0.12752 -0.29089,0.29089z"/><path d="M316.53382,25.6253c-0.96992,4.53764 -1.54598,6.87302 -1.72504,7.00772h-14.14888v0.24651l3.96316,4.90305l6.22403,-3.17946c0.61181,1.05888 1.49298,2.9101 2.64207,5.55216c-0.53728,0.17906 -4.45595,0.75366 -11.75467,1.72358c-6.04351,-3.98455 -9.08818,-6.0592 -9.134,-6.22403c0.97138,-7.74569 1.54598,-11.61852 1.72504,-11.61852c6.31289,-2.68656 9.96934,-4.18669 10.96954,-4.50044c0,0 10.5066,5.50767 11.23875,6.08943zM303.83925,24.95319c-0.11888,0.29951 -0.90974,1.4858 -2.3727,3.56056c0,0.62614 0.88117,0.93989 2.64207,0.93989c0,0.09031 1.27526,0.30669 3.82846,0.64912c0.70066,-0.97003 1.0516,-1.53747 1.0516,-1.70072c-0.22343,-1.32826 -0.70917,-1.99307 -1.45566,-1.99307z"/></g><g fill="#ffffff" stroke="none" stroke-width="1.27869" stroke-linecap="butt"><path d="M77.63644,12.75299c5.37289,2.71658 8.13395,4.07487 8.28297,4.07487c0,0.23778 -1.11906,2.39421 -3.35707,6.46908h-0.15765c-0.17906,0 -2.75379,-1.21643 -7.72272,-3.64941l-2.53035,3.38149c4.28408,2.05884 9.48518,4.68668 15.60466,7.88037c-2.77676,4.94025 -4.74696,8.2228 -5.91027,9.85046l-12.64884,1.11895c-5.77694,-3.8957 -8.82889,-5.91027 -9.15698,-6.04497v-0.15609c0,-0.4184 1.17206,-2.33549 3.51472,-5.75419h0.29078c0.92566,0.55309 3.82846,2.14209 8.70855,4.76837l2.95593,-3.35707c-8.97075,-4.56768 -13.93969,-7.14956 -14.90971,-7.74703v-0.13334c2.84981,-5.55204 4.40295,-8.36612 4.65653,-8.44052c7.41759,-1.50732 11.54414,-2.26098 12.37947,-2.26098z"/><path d="M96.82297,12.75299l9.85046,1.74655l-0.93989,7.47632c1.9544,-0.10454 3.38721,-0.1562 4.29842,-0.1562h1.4328l0.31228,-0.15609l0.15765,0.31228c-0.31375,4.53764 -0.58312,7.08952 -0.80666,7.65695l-0.31375,-0.17917c-0.22354,0 -2.23812,-0.10454 -6.04363,-0.31375c-0.20909,3.50744 -0.36529,7.70132 -0.46995,12.58285l-0.31375,0.15609c-4.80557,-0.31375 -7.67117,-0.58166 -8.59684,-0.80666l0.1562,-0.62604c0,-1.29812 0.2092,-5.32862 0.6276,-12.09004c-4.0305,-0.22343 -6.04497,-0.49146 -6.04497,-0.8052c0.2092,-4.98474 0.47711,-7.47777 0.8052,-7.47777l5.88877,1.11906v-1.92427c0,-1.56749 -0.06017,-3.68661 -0.17906,-6.3587c0.11888,0 0.17906,-0.05165 0.17906,-0.1562z"/><path d="M123.32982,19.5358c5.67093,1.52311 8.67841,2.44866 9.0223,2.77676c3.11918,4.4173 4.87291,6.962 5.26116,7.63397c-2.01592,6.38739 -3.17219,9.5811 -3.47024,9.5811c-6.71693,1.56749 -10.23156,2.35118 -10.5453,2.35118c-5.55216,-3.23807 -8.50652,-5.04479 -8.86474,-5.41736c-0.19486,-6.03062 -0.29089,-9.359 -0.29089,-9.98515c-0.0902,-0.17906 -0.13469,-0.31375 -0.13469,-0.4026c5.73122,-4.35859 8.6942,-6.53788 8.88772,-6.53788zM122.76958,27.73004c-0.08886,0.59746 -0.22354,2.76813 -0.4026,6.51491l4.99179,1.11895c1.19504,-3.73097 1.79103,-5.72393 1.79103,-5.97762c-3.96887,-1.19346 -6.09651,-1.79093 -6.38023,-1.79093z"/><path d="M155.72386,19.5143c2.95593,1.65634 4.76837,2.73093 5.44033,3.22384c-2.41706,5.02911 -3.71665,7.58803 -3.8957,7.67835h-0.1562l-3.20087,-2.79827l-3.7841,4.61216l0.42557,8.39481c-0.19486,0.17906 -2.66493,0.59746 -7.41042,1.25363c-0.17906,-1.28378 -1.34395,-7.57368 -3.4931,-18.87276c0,-0.17906 3.12064,-0.64194 9.359,-1.38844c0.10454,0.12045 0.38826,1.51596 0.84969,4.18669c3.73233,-4.19377 5.68674,-6.29002 5.8658,-6.29002z"/><path d="M173.23131,19.55879c0.2092,0.03003 0.31375,0.13469 0.31375,0.31375l-2.32832,12.89513c4.44744,-0.52294 6.67112,-0.94135 6.67112,-1.25363c0.83535,-5.16524 1.40995,-8.05954 1.72369,-8.68703c5.50768,1.13475 8.55952,1.80673 9.15698,2.01447c-3.2095,11.0297 -4.97039,16.77661 -5.28414,17.23938c-5.61088,3.94019 -8.76872,6.11814 -9.46938,6.53643c-0.2092,0 -3.78398,-0.87972 -10.72447,-2.64207v-0.15609c1.83686,-4.04484 2.97878,-6.06648 3.42587,-6.06648l6.82865,3.4243l3.26821,-5.59642c-2.94012,0.73069 -4.64947,1.09744 -5.12659,1.09744l-8.70855,-4.5233c1.05888,-9.73012 1.73086,-14.59586 2.01457,-14.59586z"/><path d="M212.31939,12.73002c4.2239,0.29951 6.33585,0.56743 6.33585,0.80666c1.62767,4.37294 2.61909,7.16402 2.97732,8.37183h0.13469c0.38826,-0.83535 1.87272,-3.13353 4.45462,-6.89455h0.13469c4.04472,0.25358 6.06782,0.53012 6.06782,0.82807l3.64796,24.9622c0,0.14902 -3.19369,0.50725 -9.5811,1.07457l-0.13469,-0.26926c-0.35823,-7.58097 -0.5374,-12.21611 -0.5374,-13.90248h-0.13469l-5.52908,4.85857h-0.13469c-0.17917,-0.0902 -1.43998,-2.06747 -3.78264,-5.93314h-0.13469c-2.88131,8.38897 -4.45595,12.84359 -4.72388,13.36508h-0.26937c-5.1481,-2.32832 -8.07388,-3.72236 -8.77589,-4.18513v-0.13469c6.38885,-15.01437 9.71723,-22.66402 9.98515,-22.94774z"/><path d="M247.17645,19.5358c5.67251,1.52311 8.67997,2.44866 9.02239,2.77676c3.11918,4.4173 4.87291,6.962 5.26116,7.63397c-2.01447,6.38739 -3.17072,9.5811 -3.47024,9.5811c-6.71548,1.56749 -10.23009,2.35118 -10.54395,2.35118c-5.55204,-3.23807 -8.50786,-5.04479 -8.8661,-5.41736c-0.1934,-6.03062 -0.29089,-9.359 -0.29089,-9.98515c-0.08886,-0.17906 -0.13469,-0.31375 -0.13469,-0.4026c5.73122,-4.35859 8.6942,-6.53788 8.88906,-6.53788zM246.61777,27.73004c-0.09031,0.59746 -0.22501,2.76813 -0.40406,6.51491l4.99325,1.11895c1.19358,-3.73097 1.79103,-5.72393 1.79103,-5.97762c-3.97032,-1.19346 -6.09663,-1.79093 -6.38023,-1.79093z"/><path d="M277.04168,12.73002h0.13469c6.74562,0.56743 10.11849,1.00723 10.11849,1.3211l2.97878,26.35053c0,0.1934 -2.97878,0.68633 -8.93354,1.47719l-0.13469,-0.29078v-2.39567c-5.13376,1.38844 -8.65555,2.28384 -10.56692,2.68644c-4.53618,-6.41742 -6.91751,-9.83612 -7.14106,-10.25307c3.34273,-6.075 5.12659,-9.14981 5.35013,-9.22433l9.38052,0.44843c-0.1934,-1.14909 -0.58894,-4.5233 -1.1864,-10.11984zM272.87791,28.78164c1.50732,4.61216 2.44721,7.14252 2.82123,7.5896l4.45451,-3.87295c-0.46276,-2.67064 -0.80666,-4.00753 -1.03009,-4.00753h-5.95476c-0.1934,0.03014 -0.29089,0.12752 -0.29089,0.29089z"/><path d="M305.29508,19.5358c6.76131,3.47741 10.50664,5.50768 11.23879,6.08944c-0.96992,4.53764 -1.54598,6.87302 -1.72504,7.00772h-14.14888v0.24651l3.96316,4.90305l6.22403,-3.17946c0.61181,1.05888 1.49298,2.9101 2.64207,5.55216c-0.53728,0.17906 -4.45595,0.75366 -11.75467,1.72358c-6.04351,-3.98455 -9.08818,-6.0592 -9.134,-6.22403c0.97138,-7.74569 1.54598,-11.61852 1.72504,-11.61852c6.31289,-2.68656 9.96934,-4.18669 10.96954,-4.50044zM303.83925,24.95319c-0.11888,0.29951 -0.90974,1.4858 -2.3727,3.56056c0,0.62614 0.88117,0.93989 2.64207,0.93989c0,0.09031 1.27526,0.30669 3.82846,0.64912c0.70066,-0.97003 1.0516,-1.53747 1.0516,-1.70072c-0.22343,-1.32826 -0.70917,-1.99307 -1.45566,-1.99307z"/></g><path d="M-87.24844,285.3v-213h655v213z" fill="url(#color-3)" stroke="none" stroke-width="0" stroke-linecap="butt"/><g stroke="none"><path d="M165.97557,149.3748l-0.62007,-0.80032l0.53742,-1.64278l0.95075,-0.42123h9.79701l4.29912,-9.89891l0.95075,-0.80032l0.95083,0.04213l1.1574,0.88459l4.6298,9.64611l9.92103,-0.16853l0.99211,0.58976l0.78546,0.96886l-0.78546,1.72704l-5.66318,6.69751l1.65346,10.15151l0.08265,1.60065l-1.03339,0.54763l-1.81884,-0.33697l-9.50771,-6.73965l-8.10218,7.58211l-1.81884,0.33697l-1.32278,-0.71606l-0.45469,-1.97974l0.95075,-9.43555z" fill="url(#color-4)" stroke-width="0.8756" stroke-linecap="round"/><path d="M167.90272,149.56744l-0.55525,-0.70338l0.48128,-1.44375l0.85142,-0.37013h8.77353l3.85006,-8.69957l0.85142,-0.70338l0.85151,0.03708l1.03653,0.77735l4.14613,8.47746l8.88469,-0.14813l0.8884,0.51827l0.70338,0.85151l-0.70338,1.51772l-5.07161,5.88614l1.48073,8.92167l0.07406,1.40667l-0.92548,0.48128l-1.62887,-0.29617l-8.51445,-5.92302l-7.25582,6.66339l-1.62877,0.29617l-1.18466,-0.62931l-0.40721,-1.73991l0.85142,-8.29235z" fill="url(#color-5)" stroke-width="0.77672" stroke-linecap="round"/><g stroke-width="1.6871"><path d="M185.25851,148.66808c0.40807,-0.01573 0.81472,0.3221 0.98601,0.73865c0.31075,0.7561 0.34421,1.65756 0.32095,2.49944c-0.01601,0.77716 -0.13936,1.58054 -0.43562,2.27543c-0.16996,0.40779 -0.47632,0.87868 -0.87134,0.87515c-0.38053,-0.00352 -0.70433,-0.29759 -0.91347,-0.82616c-0.26719,-0.66859 -0.39349,-1.47024 -0.39349,-2.41193c0,-0.94169 0.09732,-1.71179 0.39349,-2.41193c0.19465,-0.46212 0.5664,-0.75438 0.91347,-0.73865z" fill="url(#color-6)" stroke-linecap="round"/><path d="M185.31864,149.1689c0.21066,0 0.40083,0.10333 0.53886,0.26957c0.13793,0.16624 0.22363,0.39558 0.22363,0.64934c0,0.25384 -0.08569,0.48309 -0.22363,0.64943c-0.13803,0.16624 -0.3282,0.26957 -0.53886,0.26957c-0.21056,0 -0.40074,-0.10333 -0.53876,-0.26957c-0.13793,-0.16633 -0.22363,-0.39558 -0.22363,-0.64943c0,-0.25374 0.08569,-0.48309 0.22363,-0.64934c0.13803,-0.16624 0.3282,-0.26957 0.53876,-0.26957z" fill="#ffffff" stroke-linecap="butt"/></g><g stroke-width="1.6871"><path d="M179.87279,148.66808c0.40807,-0.01573 0.81472,0.3221 0.98601,0.73865c0.31075,0.7561 0.34421,1.65756 0.32095,2.49944c-0.01601,0.77716 -0.13936,1.58054 -0.43562,2.27543c-0.16996,0.40779 -0.47632,0.87868 -0.87134,0.87515c-0.38053,-0.00352 -0.70433,-0.29759 -0.91347,-0.82616c-0.26719,-0.66859 -0.39349,-1.47024 -0.39349,-2.41193c0,-0.94169 0.09732,-1.71179 0.39349,-2.41193c0.19465,-0.46212 0.5664,-0.75438 0.91347,-0.73865z" fill="url(#color-7)" stroke-linecap="round"/><path d="M179.93295,149.12124c0.21066,0 0.40083,0.10333 0.53886,0.26957c0.13793,0.16624 0.22363,0.39558 0.22363,0.64934c0,0.25384 -0.08569,0.48309 -0.22363,0.64943c-0.13803,0.16624 -0.3282,0.26957 -0.53886,0.26957c-0.21056,0 -0.40074,-0.10333 -0.53876,-0.26957c-0.13793,-0.16633 -0.22363,-0.39558 -0.22363,-0.64943c0,-0.25374 0.08569,-0.48309 0.22363,-0.64934c0.13803,-0.16624 0.3282,-0.26957 0.53876,-0.26957z" fill="#ffffff" stroke-linecap="butt"/></g></g><g stroke="none"><path d="M167.55525,187.80879l-0.57531,-0.74256l0.49863,-1.52427l0.88215,-0.3908h9.08999l3.98892,-9.18451l0.88215,-0.74256l0.88215,0.03903l1.07389,0.82074l4.2957,8.95002l9.2051,-0.15631l0.92054,0.54716l0.7287,0.89892l-0.7287,1.60239l-5.25458,6.21422l1.53418,9.41899l0.07667,1.48512l-0.95883,0.50806l-1.68764,-0.31262l-8.82153,-6.25331l-7.51747,7.03496l-1.68758,0.31268l-1.22739,-0.66443l-0.42186,-1.83687l0.88215,-8.75461z" data-paper-data="{&quot;origPos&quot;:null}" fill="url(#color-8)" stroke-width="1.43627" stroke-linecap="round"/><path d="M169.34058,188.26473l-0.51519,-0.65257l0.4465,-1.33959l0.79001,-0.34345h8.14044l3.57218,-8.07175l0.79001,-0.65262l0.79001,0.03434l0.96174,0.72131l3.84694,7.86567l8.24353,-0.13739l0.82435,0.48084l0.65257,0.79001l-0.65257,1.40829l-4.7057,5.46131l1.37394,8.27782l0.06869,1.30525l-0.8587,0.4465l-1.51132,-0.27476l-7.90002,-5.49565l-6.73215,6.18262l-1.51132,0.27476l-1.09912,-0.58393l-0.3778,-1.61435l0.78995,-7.69389z" data-paper-data="{&quot;origPos&quot;:null}" fill="url(#color-9)" stroke-width="1.27408" stroke-linecap="round"/><path d="M169.67617,187.01884l9.29002,-0.23298l3.84414,-9.20272l4.60137,9.11532l10.04725,-0.02911l-6.34869,6.81465l1.83467,9.55217l-9.37738,-6.3778l-8.62025,6.98933l1.10667,-9.46478z" data-paper-data="{&quot;origPos&quot;:null}" fill="url(#color-10)" stroke-width="1.08024" stroke-linecap="round"/><g data-paper-data="{&quot;origPos&quot;:null}" stroke-width="2.7674"><path d="M185.44655,187.43224c0.37861,-0.01461 0.75593,0.29882 0.91488,0.68535c0.28835,0.70153 0.31936,1.53791 0.29779,2.31907c-0.01483,0.72104 -0.12935,1.46646 -0.40423,2.11121c-0.15765,0.3784 -0.44191,0.81524 -0.80844,0.812c-0.353,-0.00323 -0.65349,-0.27611 -0.84748,-0.76655c-0.24791,-0.62039 -0.36513,-1.36418 -0.36513,-2.23787c0,-0.87374 0.09026,-1.58826 0.36513,-2.23787c0.18052,-0.42876 0.52548,-0.69996 0.84748,-0.68535z" fill="url(#color-11)" stroke-linecap="round"/><path d="M185.50542,187.89151c0.1954,0 0.37187,0.09581 0.49988,0.25007c0.128,0.15431 0.20754,0.36707 0.20754,0.60253c0,0.23546 -0.07953,0.44822 -0.20754,0.60248c-0.128,0.15431 -0.30448,0.25012 -0.49988,0.25012c-0.19535,0 -0.37187,-0.09581 -0.49988,-0.25012c-0.128,-0.15426 -0.20748,-0.36702 -0.20748,-0.60248c0,-0.23546 0.07948,-0.44822 0.20748,-0.60253c0.128,-0.15426 0.30453,-0.25007 0.49988,-0.25007z" fill="#ffffff" stroke-linecap="butt"/></g><g data-paper-data="{&quot;origPos&quot;:null}" stroke-width="2.7674"><path d="M180.45913,187.40528c0.37861,-0.01461 0.75593,0.29882 0.91488,0.68535c0.28835,0.70153 0.31936,1.53791 0.29779,2.31907c-0.01483,0.72104 -0.12935,1.46646 -0.40423,2.11121c-0.15765,0.3784 -0.44191,0.81524 -0.80844,0.812c-0.353,-0.00323 -0.65349,-0.27611 -0.84748,-0.76655c-0.24791,-0.62039 -0.36513,-1.36418 -0.36513,-2.23787c0,-0.87374 0.09026,-1.58826 0.36513,-2.23787c0.18052,-0.42876 0.52548,-0.69996 0.84748,-0.68535z" fill="url(#color-12)" stroke-linecap="round"/><path d="M180.54494,187.8376c0.1954,0 0.37187,0.09581 0.49988,0.25007c0.128,0.15431 0.20754,0.36707 0.20754,0.60253c0,0.23546 -0.07953,0.44822 -0.20754,0.60248c-0.128,0.15431 -0.30448,0.25012 -0.49988,0.25012c-0.19535,0 -0.37187,-0.09581 -0.49988,-0.25012c-0.128,-0.15426 -0.20748,-0.36702 -0.20748,-0.60248c0,-0.23546 0.07948,-0.44822 0.20748,-0.60253c0.128,-0.15426 0.30453,-0.25007 0.49988,-0.25007z" fill="#ffffff" stroke-linecap="butt"/></g><path d="M193.41521,201.96202c0.69538,0 1.32558,0.28248 1.7821,0.73857c0.4561,0.45652 0.73857,1.08672 0.73857,1.7821c0,0.69538 -0.28248,1.32558 -0.73857,1.78205c-0.45652,0.45614 -1.08672,0.73863 -1.7821,0.73863c-0.69538,0 -1.32552,-0.28248 -1.78205,-0.73863c-0.45614,-0.45647 -0.73863,-1.08666 -0.73863,-1.78205c0,-0.69538 0.28248,-1.32558 0.73863,-1.7821c0.45652,-0.4561 1.08666,-0.73857 1.78205,-0.73857z" data-paper-data="{&quot;origPos&quot;:null}" fill="url(#color-13)" stroke-width="0.74207" stroke-linecap="butt"/><path d="M174.84046,201.69242c0.69538,0 1.32558,0.28248 1.7821,0.73857c0.4561,0.45652 0.73857,1.08672 0.73857,1.7821c0,0.69538 -0.28248,1.32558 -0.73857,1.78205c-0.45652,0.45614 -1.08672,0.73863 -1.7821,0.73863c-0.69538,0 -1.32552,-0.28248 -1.78205,-0.73863c-0.45614,-0.45647 -0.73863,-1.08666 -0.73863,-1.78205c0,-0.69538 0.28248,-1.32558 0.73863,-1.7821c0.45652,-0.4561 1.08666,-0.73857 1.78205,-0.73857z" data-paper-data="{&quot;origPos&quot;:null}" fill="url(#color-14)" stroke-width="0.74207" stroke-linecap="butt"/><path d="M168.7477,184.33082c0.69538,0 1.32558,0.28248 1.7821,0.73857c0.4561,0.45652 0.73857,1.08672 0.73857,1.7821c0,0.69538 -0.28248,1.32558 -0.73857,1.78205c-0.45652,0.45614 -1.08672,0.73863 -1.7821,0.73863c-0.69538,0 -1.32552,-0.28248 -1.78205,-0.73863c-0.45614,-0.45647 -0.73863,-1.08666 -0.73863,-1.78205c0,-0.69538 0.28248,-1.32558 0.73863,-1.7821c0.45652,-0.4561 1.08666,-0.73857 1.78205,-0.73857z" data-paper-data="{&quot;origPos&quot;:null}" fill="url(#color-15)" stroke-width="0.74207" stroke-linecap="butt"/><path d="M182.82027,174.43686c0.69538,0 1.32558,0.28248 1.7821,0.73857c0.4561,0.45652 0.73857,1.08672 0.73857,1.7821c0,0.69538 -0.28248,1.32558 -0.73857,1.78205c-0.45652,0.45614 -1.08672,0.73863 -1.7821,0.73863c-0.69538,0 -1.32552,-0.28248 -1.78205,-0.73863c-0.45614,-0.45647 -0.73863,-1.08666 -0.73863,-1.78205c0,-0.69538 0.28248,-1.32558 0.73863,-1.7821c0.45652,-0.4561 1.08666,-0.73857 1.78205,-0.73857z" data-paper-data="{&quot;origPos&quot;:null}" fill="url(#color-16)" stroke-width="0.74207" stroke-linecap="butt"/><path d="M198.07909,184.46562c0.69538,0 1.32558,0.28248 1.7821,0.73857c0.4561,0.45652 0.73857,1.08672 0.73857,1.7821c0,0.69538 -0.28248,1.32558 -0.73857,1.78205c-0.45652,0.45614 -1.08672,0.73863 -1.7821,0.73863c-0.69538,0 -1.32552,-0.28248 -1.78205,-0.73863c-0.45614,-0.45647 -0.73863,-1.08666 -0.73863,-1.78205c0,-0.69538 0.28248,-1.32558 0.73863,-1.7821c0.45652,-0.4561 1.08666,-0.73857 1.78205,-0.73857z" data-paper-data="{&quot;origPos&quot;:null}" fill="url(#color-17)" stroke-width="0.74207" stroke-linecap="butt"/></g><path d="M185.31984,102.85963h0.13548c4.46538,2.61829 6.87184,3.9851 7.21847,4.09996v0.23155c-1.15543,1.32806 -3.29183,3.61876 -6.39134,6.87207c6.08344,2.25194 9.49014,3.61876 10.24094,4.08115l-5.65978,6.98693c-3.83058,-3.25333 -6.27486,-5.31225 -7.33356,-6.1403c-2.57979,5.04287 -4.17721,8.00802 -4.81292,8.91219h-0.13457c-4.79321,-1.6747 -7.39179,-2.67492 -7.81476,-3.00274v-0.13457l6.62127,-8.66254c-6.14007,-2.52132 -9.43191,-4.00389 -9.8746,-4.44658c2.71367,-4.60018 4.23476,-7.04516 4.58138,-7.35327c0.03852,0.1348 3.00274,2.17492 8.89317,6.14098c2.09835,-3.8503 3.54219,-6.37184 4.3308,-7.58482z" fill="url(#color-18)" stroke="url(#color-19)" stroke-width="1" stroke-linecap="butt"/></g></g></svg>