<svg version="1.1" xmlns="http://www.w3.org/2000/svg" xmlns:xlink="http://www.w3.org/1999/xlink" width="143.7336" height="143.73361" viewBox="0,0,143.7336,143.73361"><defs><linearGradient x1="240" y1="110.13321" x2="240" y2="249.86681" gradientUnits="userSpaceOnUse" id="color-1"><stop offset="0" stop-color="#3c94ed"/><stop offset="1" stop-color="#337fcc"/></linearGradient><radialGradient cx="249.97448" cy="198.44196" r="51.09263" gradientUnits="userSpaceOnUse" id="color-2"><stop offset="0" stop-color="#fff343"/><stop offset="1" stop-color="#fff343" stop-opacity="0"/></radialGradient><linearGradient x1="214.2922" y1="165.6893" x2="214.2922" y2="231.10368" gradientUnits="userSpaceOnUse" id="color-3"><stop offset="0" stop-color="#fff01b"/><stop offset="1" stop-color="#ffa30a"/></linearGradient><linearGradient x1="251.1578" y1="190.15777" x2="251.1578" y2="204.3412" gradientUnits="userSpaceOnUse" id="color-4"><stop offset="0" stop-color="#000000"/><stop offset="1" stop-color="#674205"/></linearGradient><linearGradient x1="239.22519" y1="190.09326" x2="239.22519" y2="204.27669" gradientUnits="userSpaceOnUse" id="color-5"><stop offset="0" stop-color="#000000"/><stop offset="1" stop-color="#674205"/></linearGradient><radialGradient cx="226.80781" cy="153.10863" r="51.09264" gradientUnits="userSpaceOnUse" id="color-6"><stop offset="0" stop-color="#fff343"/><stop offset="1" stop-color="#fff343" stop-opacity="0"/></radialGradient><linearGradient x1="191.12553" y1="120.35598" x2="191.12553" y2="185.77034" gradientUnits="userSpaceOnUse" id="color-7"><stop offset="0" stop-color="#fff01b"/><stop offset="1" stop-color="#ffa30a"/></linearGradient><linearGradient x1="227.99113" y1="144.82443" x2="227.99113" y2="159.00786" gradientUnits="userSpaceOnUse" id="color-8"><stop offset="0" stop-color="#000000"/><stop offset="1" stop-color="#674205"/></linearGradient><linearGradient x1="216.05852" y1="144.75993" x2="216.05852" y2="158.94336" gradientUnits="userSpaceOnUse" id="color-9"><stop offset="0" stop-color="#000000"/><stop offset="1" stop-color="#674205"/></linearGradient></defs><g transform="translate(-168.1332,-108.1332)"><g data-paper-data="{&quot;isPaintingLayer&quot;:true}" fill-rule="nonzero" stroke-linejoin="miter" stroke-miterlimit="10" stroke-dasharray="" stroke-dashoffset="0" style="mix-blend-mode: normal"><path d="M240,110.13321c19.2752,0 36.74421,7.8268 49.3899,20.47689c12.64989,12.64569 20.4769,30.11449 20.4769,49.38991c0,19.27542 -7.82701,36.74421 -20.4769,49.38991c-12.64569,12.65009 -30.1147,20.4769 -49.3899,20.4769c-19.27542,0 -36.74442,-7.8268 -49.39012,-20.4769c-12.64989,-12.64569 -20.47668,-30.11449 -20.47668,-49.38991c0,-19.27542 7.82679,-36.74421 20.47668,-49.38991c12.64569,-12.6501 30.11471,-20.47689 49.39012,-20.47689z" data-paper-data="{&quot;origPos&quot;:null}" id="ID0.4039921844378114" fill="url(#color-1)" stroke="#23568d" stroke-width="4" stroke-linecap="butt"/><g data-paper-data="{&quot;origPos&quot;:null}" stroke="none"><path d="M211.25344,191.06l-1.37645,-1.77659l1.193,-3.64687l2.11058,-0.935c0,0 13.81861,3.14799 20.32627,-1.42193c6.50766,-4.56993 10.96558,-20.5524 10.96558,-20.5524l2.1106,-1.77661l2.11059,0.09341l2.56932,1.96365c0,0 4.83445,14.29616 12.26837,19.13822c7.43393,4.84206 20.03291,1.90112 20.03291,1.90112l2.20244,1.3091l1.74346,2.15071l-1.74346,3.8338c0,0 -9.18087,8.07329 -10.8655,15.15217c-1.68462,7.07888 1.96428,22.25098 1.96428,22.25098l0.18344,3.55322l-2.29402,1.21557l-4.03773,-0.74794c0,0 -11.44902,-13.43259 -21.1059,-12.97061c-9.65688,0.46198 -17.98588,14.84074 -17.98588,14.84074l-4.03761,0.74808l-2.93659,-1.58969l-1.00932,-4.39481c0,0 3.38694,-12.62237 0.97305,-20.09265c-2.41389,-7.47028 -13.36144,-18.24564 -13.36144,-18.24564z" data-paper-data="{&quot;origPos&quot;:null}" id="ID0.3117544511333108" fill="url(#color-2)" stroke-width="1.43627" stroke-linecap="round"/><path d="M215.52482,192.15083l-1.23261,-1.5613l1.06826,-3.20504l1.89013,-0.82173c0,0 11.80684,1.35407 17.48565,-2.55948c5.67881,-3.91355 10.5373,-16.75253 10.5373,-16.75253l1.89013,-1.56143l1.89014,0.08218l2.301,1.72578c0,0 4.85662,11.63938 11.19469,15.69071c6.33807,4.05133 17.7323,2.79956 17.7323,2.79956l1.9723,1.15043l1.5613,1.89013l-1.5613,3.36938c0,0 -7.41558,8.02275 -8.98349,14.48834c-1.56791,6.46559 1.01211,18.38311 1.01211,18.38311l0.16435,3.12286l-2.05448,1.06825l-3.61591,-0.65738c0,0 -10.53348,-11.56409 -19.18553,-11.15788c-8.65204,0.4062 -15.82258,12.80148 -15.82258,12.80148l-3.61591,0.65739l-2.62969,-1.39709l-0.90391,-3.86243c0,0 1.86219,-11.58291 -0.3851,-18.40797c-2.24729,-6.82505 -10.70912,-15.28537 -10.70912,-15.28537z" data-paper-data="{&quot;origPos&quot;:null}" id="ID0.3117544511333108" fill="url(#color-3)" stroke-width="1.27408" stroke-linecap="round"/><g data-paper-data="{&quot;origPos&quot;:null}" id="ID0.4398073833435774" stroke-width="2.7674"><path d="M254.05904,190.15905c0.90584,-0.03495 1.80861,0.71492 2.1889,1.63972c0.6899,1.67843 0.76407,3.6795 0.71248,5.54848c-0.03547,1.72513 0.0697,2.18143 -0.58795,3.72403c-0.3772,0.90533 -4.44569,0.52377 -4.90985,-0.64962c-0.59314,-1.48428 -0.30483,-1.17836 -0.30483,-3.26869c0,-2.09046 0.21595,-3.8 0.8736,-5.3542c0.43189,-1.02581 1.25724,-1.67468 2.02765,-1.63972z" data-paper-data="{&quot;origPos&quot;:null}" id="ID0.6670762049034238" fill="url(#color-4)" stroke-linecap="round"/><path d="M254.19991,191.25789c0.46751,0 0.88972,0.22924 1.19597,0.59832c0.30625,0.3692 0.49652,0.87824 0.49652,1.44159c0,0.56334 -0.19027,1.07239 -0.49652,1.44146c-0.30625,0.3692 -0.72846,0.59843 -1.19597,0.59843c-0.46737,0 -0.88972,-0.22924 -1.19597,-0.59843c-0.30625,-0.36907 -0.49639,-0.87812 -0.49639,-1.44146c0,-0.56334 0.19015,-1.07239 0.49639,-1.44159c0.30625,-0.36907 0.72859,-0.59832 1.19597,-0.59832z" id="ID0.2271407265216112" fill="#ffffff" stroke-linecap="butt"/></g><g data-paper-data="{&quot;origPos&quot;:null}" id="ID0.4398073833435774" stroke-width="2.7674"><path d="M242.12642,190.09455c0.90584,-0.03495 1.8086,0.71492 2.1889,1.63973c0.6899,1.67843 0.76406,3.6795 0.71247,5.54848c-0.03547,1.72513 0.06971,1.99184 -0.58794,3.53445c-0.3772,0.90533 -4.06651,1.28215 -4.53066,0.10875c-0.59314,-1.48428 -0.68401,-1.74713 -0.68401,-3.83747c0,-2.09046 0.21596,-3.79998 0.8736,-5.3542c0.43189,-1.02581 1.25724,-1.67468 2.02764,-1.63973z" data-paper-data="{&quot;origPos&quot;:null}" id="ID0.6670762049034238" fill="url(#color-5)" stroke-linecap="round"/><path d="M242.33179,191.12889c0.46751,0 0.88972,0.22924 1.19597,0.59831c0.30625,0.3692 0.49653,0.87824 0.49653,1.44159c0,0.56334 -0.19028,1.07239 -0.49653,1.44146c-0.30625,0.3692 -0.72847,0.59844 -1.19597,0.59844c-0.46738,0 -0.88972,-0.22924 -1.19597,-0.59844c-0.30625,-0.36907 -0.4964,-0.87812 -0.4964,-1.44146c0,-0.56334 0.19015,-1.07239 0.4964,-1.44159c0.30625,-0.36907 0.7286,-0.59831 1.19597,-0.59831z" id="ID0.2271407265216112" fill="#ffffff" stroke-linecap="butt"/></g></g><g data-paper-data="{&quot;origPos&quot;:null}" stroke="none"><path d="M188.08677,145.72667l-1.37644,-1.7766l1.193,-3.64687l2.11058,-0.935c0,0 13.81861,3.14799 20.32627,-1.42193c6.50766,-4.56992 10.96558,-20.5524 10.96558,-20.5524l2.11059,-1.77661l2.11059,0.0934l2.56932,1.96366c0,0 4.83445,14.29616 12.26838,19.13822c7.43393,4.84206 20.03291,1.90111 20.03291,1.90111l2.20244,1.3091l1.74346,2.15071l-1.74346,3.83379c0,0 -9.18087,8.0733 -10.8655,15.15217c-1.68463,7.07888 1.96428,22.25098 1.96428,22.25098l0.18344,3.55322l-2.29402,1.21557l-4.03773,-0.74795c0,0 -11.44901,-13.43259 -21.1059,-12.97061c-9.65689,0.46198 -17.98588,14.84073 -17.98588,14.84073l-4.03761,0.74809l-2.93659,-1.58969l-1.00931,-4.39481c0,0 3.38694,-12.62237 0.97305,-20.09265c-2.4139,-7.47028 -13.36144,-18.24564 -13.36144,-18.24564z" data-paper-data="{&quot;origPos&quot;:null}" id="ID0.3117544511333108" fill="url(#color-6)" stroke-width="1.43627" stroke-linecap="round"/><path d="M192.35815,146.81748l-1.23261,-1.56129l1.06826,-3.20504l1.89013,-0.82173c0,0 11.80684,1.35407 17.48564,-2.55948c5.67881,-3.91355 10.5373,-16.75253 10.5373,-16.75253l1.89013,-1.56143l1.89014,0.08218l2.301,1.72578c0,0 4.85662,11.63938 11.19469,15.69071c6.33807,4.05133 17.7323,2.79956 17.7323,2.79956l1.9723,1.15044l1.56129,1.89013l-1.56129,3.36938c0,0 -7.41558,8.02275 -8.98349,14.48834c-1.56792,6.46559 1.01211,18.38311 1.01211,18.38311l0.16434,3.12286l-2.05448,1.06826l-3.61591,-0.65739c0,0 -10.53348,-11.56409 -19.18553,-11.15788c-8.65205,0.40621 -15.82258,12.80149 -15.82258,12.80149l-3.61591,0.65739l-2.62969,-1.39709l-0.90391,-3.86243c0,0 1.8622,-11.58291 -0.38509,-18.40797c-2.24729,-6.82505 -10.70913,-15.28537 -10.70913,-15.28537z" data-paper-data="{&quot;origPos&quot;:null}" id="ID0.3117544511333108" fill="url(#color-7)" stroke-width="1.27408" stroke-linecap="round"/><g data-paper-data="{&quot;origPos&quot;:null}" id="ID0.4398073833435774" stroke-width="2.7674"><path d="M230.89237,144.82572c0.90584,-0.03496 1.80861,0.71493 2.1889,1.63973c0.6899,1.67843 0.76407,3.6795 0.71248,5.54848c-0.03547,1.72514 0.0697,2.18144 -0.58795,3.72403c-0.3772,0.90533 -4.44569,0.52377 -4.90985,-0.64962c-0.59314,-1.48428 -0.30483,-1.17836 -0.30483,-3.2687c0,-2.09046 0.21595,-3.8 0.8736,-5.35419c0.43189,-1.02582 1.25724,-1.67469 2.02764,-1.63973z" data-paper-data="{&quot;origPos&quot;:null}" id="ID0.6670762049034238" fill="url(#color-8)" stroke-linecap="round"/><path d="M231.03324,145.92455c0.46751,0 0.88972,0.22924 1.19597,0.59832c0.30625,0.3692 0.49653,0.87824 0.49653,1.44159c0,0.56335 -0.19028,1.07239 -0.49653,1.44147c-0.30625,0.3692 -0.72846,0.59843 -1.19597,0.59843c-0.46737,0 -0.88972,-0.22924 -1.19597,-0.59843c-0.30625,-0.36907 -0.49639,-0.87812 -0.49639,-1.44147c0,-0.56335 0.19015,-1.07239 0.49639,-1.44159c0.30625,-0.36907 0.72859,-0.59832 1.19597,-0.59832z" id="ID0.2271407265216112" fill="#ffffff" stroke-linecap="butt"/></g><g data-paper-data="{&quot;origPos&quot;:null}" id="ID0.4398073833435774" stroke-width="2.7674"><path d="M218.95975,144.76122c0.90584,-0.03496 1.8086,0.71493 2.18889,1.63973c0.6899,1.67843 0.76407,3.6795 0.71248,5.54848c-0.03547,1.72514 0.06971,1.99184 -0.58794,3.53445c-0.3772,0.90533 -4.06651,1.28215 -4.53067,0.10875c-0.59314,-1.48428 -0.68401,-1.74714 -0.68401,-3.83747c0,-2.09046 0.21595,-3.79999 0.8736,-5.35419c0.43189,-1.02582 1.25724,-1.67469 2.02764,-1.63973z" data-paper-data="{&quot;origPos&quot;:null}" id="ID0.6670762049034238" fill="url(#color-9)" stroke-linecap="round"/><path d="M219.16512,145.79555c0.46751,0 0.88972,0.22924 1.19597,0.5983c0.30625,0.3692 0.49653,0.87824 0.49653,1.44159c0,0.56335 -0.19028,1.07239 -0.49653,1.44147c-0.30625,0.3692 -0.72847,0.59844 -1.19597,0.59844c-0.46737,0 -0.88972,-0.22924 -1.19597,-0.59844c-0.30625,-0.36907 -0.49639,-0.87812 -0.49639,-1.44147c0,-0.56335 0.19014,-1.07239 0.49639,-1.44159c0.30625,-0.36907 0.7286,-0.5983 1.19597,-0.5983z" id="ID0.2271407265216112" fill="#ffffff" stroke-linecap="butt"/></g></g></g></g></svg>