<svg version="1.1" xmlns="http://www.w3.org/2000/svg" xmlns:xlink="http://www.w3.org/1999/xlink" width="44" height="44"><g transform="translate(-217,-158)"><g data-paper-data="{&quot;isPaintingLayer&quot;:true}" fill="none" fill-rule="nonzero" stroke="none" stroke-width="none" stroke-linecap="butt" stroke-linejoin="miter" stroke-miterlimit="10" stroke-dasharray="" stroke-dashoffset="0" font-family="none" font-weight="none" font-size="none" text-anchor="none" style="mix-blend-mode: normal"><path d="M239,158c6.07,0 11.57,2.465 15.552,6.448c3.983,3.982 6.448,9.482 6.448,15.552c0,6.07 -2.465,11.57 -6.448,15.552c-3.982,3.983 -9.482,6.448 -15.552,6.448c-6.07,0 -11.57,-2.465 -15.552,-6.448c-3.983,-3.982 -6.448,-9.482 -6.448,-15.552c0,-6.07 2.465,-11.57 6.448,-15.552c3.982,-3.983 9.482,-6.448 15.552,-6.448z" id="ID0.5273695052601397" fill="#ffffff" stroke="none" stroke-width="1"/><path d="M225.06667,179.81667c0,-7.79642 6.32025,-14.11667 14.11667,-14.11667c7.79642,0 14.11667,6.32025 14.11667,14.11667c0,7.79642 -6.32025,14.11667 -14.11667,14.11667c-7.79642,0 -14.11667,-6.32025 -14.11667,-14.11667z" data-paper-data="{&quot;origPos&quot;:null}" fill="none" stroke="#d6e1e9" stroke-width="2"/></g></g></svg>