<svg version="1.1" xmlns="http://www.w3.org/2000/svg" xmlns:xlink="http://www.w3.org/1999/xlink" width="437" height="90.79587" viewBox="0,0,437,90.79587"><defs><linearGradient x1="240" y1="135.60206" x2="240" y2="224.39795" gradientUnits="userSpaceOnUse" id="color-1"><stop offset="0" stop-color="#ffffff"/><stop offset="1" stop-color="#d8d8d8"/></linearGradient><linearGradient x1="240" y1="135.60208" x2="240" y2="224.39795" gradientUnits="userSpaceOnUse" id="color-2"><stop offset="0" stop-color="#343434"/><stop offset="1" stop-color="#090909"/></linearGradient><radialGradient cx="443.8065" cy="206.54466" r="17.9081" gradientUnits="userSpaceOnUse" id="color-3"><stop offset="0" stop-color="#ffffff"/><stop offset="1" stop-color="#e5e5e5"/></radialGradient></defs><g transform="translate(-21.5,-134.60208)"><g data-paper-data="{&quot;isPaintingLayer&quot;:true}" fill-rule="nonzero" stroke-linejoin="miter" stroke-miterlimit="10" stroke-dasharray="" stroke-dashoffset="0" style="mix-blend-mode: normal"><path d="M22.5,224.39795v-88.79587h435v88.79587z" data-paper-data="{&quot;origPos&quot;:null}" fill="url(#color-1)" stroke="url(#color-2)" stroke-width="2" stroke-linecap="butt"/><g data-paper-data="{&quot;origPos&quot;:null}"><path d="M444.3058,202.09868c2.5136,0 4.7909,1.0212 6.4406,2.6702c1.6489,1.6496 2.6702,3.9269 2.6702,6.4405c0,2.5136 -1.0213,4.791 -2.6702,6.4406c-1.6497,1.649 -3.927,2.6702 -6.4406,2.6702c-2.5136,0 -4.7909,-1.0212 -6.4406,-2.6702c-1.6489,-1.6496 -2.6701,-3.927 -2.6701,-6.4406c0,-2.5136 1.0212,-4.7909 2.6701,-6.4405c1.6497,-1.649 3.927,-2.6702 6.4406,-2.6702z" fill="url(#color-3)" stroke="#000000" stroke-width="2.0785" stroke-linecap="butt"/><path d="M441.2734,206.54886l5.6119,0.4503l1.7321,3.187l-3.6374,2.9446l3.3603,-0.5197l0.7967,3.4642l-7.4479,-0.0693l-1.9053,-2.4249l4.6766,-3.3256l-4.5727,-0.3464z" fill="#000000" stroke="none" stroke-width="0.69283" stroke-linecap="round"/></g><g data-paper-data="{&quot;origPos&quot;:null}" stroke="none" stroke-width="1" stroke-linecap="butt"><path d="M39.241,169.89306c2.631,0.316 4.001,0.513 4.111,0.592v0.064l-0.474,10.965l-0.128,0.054c-0.632,0 -1.683,0.061 -3.153,0.183c-0.079,-0.237 -0.119,-0.754 -0.119,-1.55v-1.312l-0.064,-0.356c0,-0.042 0.021,-0.063 0.064,-0.063l-0.064,-0.411v-1.075c-1.063,0 -2.114,0.039 -3.153,0.118l0.237,4.056c-0.31,0.079 -1.383,0.277 -3.218,0.593c-0.091,0 -0.389,-2.264 -0.893,-6.791c-0.043,-0.103 -0.261,-1.753 -0.656,-4.949c1.841,0.043 3.193,0.064 4.056,0.064c0.091,0 0.188,1.428 0.291,4.284h3.282v-0.593c0,-0.145 -0.022,-0.325 -0.064,-0.537c0,-0.037 0.021,-0.055 0.064,-0.055l-0.064,-0.301v-1.367c0,-0.34 -0.018,-0.878 -0.055,-1.613z" data-paper-data="{&quot;origPos&quot;:null}" fill="#000000"/><path d="M45.658,172.64508c3.609,0.499 5.414,0.805 5.414,0.921c1.422,1.221 2.133,1.874 2.133,1.96c-0.578,1.804 -0.906,2.901 -0.985,3.29c0.577,1.282 0.906,2.048 0.985,2.297c0,0.073 -0.942,0.267 -2.826,0.583c-0.024,-0.103 -0.197,-0.334 -0.519,-0.693c-2.601,0.499 -4.002,0.748 -4.202,0.748l-1.386,-3.746l3.054,-1.614c0.492,0.079 1.261,0.119 2.306,0.119c0,-0.134 0.018,-0.538 0.054,-1.212c-0.176,0 -1.75,0.115 -4.721,0.346l-0.055,-0.118c0.414,-1.921 0.663,-2.881 0.748,-2.881zM47.554,178.00506c0,0.067 0.194,0.777 0.583,2.132h0.055c0.765,-0.498 1.148,-0.826 1.148,-0.984l0.118,-0.975c-0.145,0 -0.78,-0.058 -1.904,-0.173z" data-paper-data="{&quot;origPos&quot;:null}" fill="#000000"/><path d="M58.655,172.65406c0.188,0.778 0.319,1.258 0.392,1.441c2.686,-0.614 4.105,-0.921 4.257,-0.921c1.829,2.631 2.743,4.004 2.743,4.12l-2.096,4.448l-4.512,-0.72v0.136c0.352,2.704 0.529,4.141 0.529,4.312c-0.043,0 -0.064,0.021 -0.064,0.063c-0.438,-0.042 -0.766,-0.063 -0.985,-0.063h-0.783c-0.456,0 -1.155,-0.022 -2.097,-0.064c-0.085,-0.255 -0.738,-4.135 -1.959,-11.64c0.206,-0.085 1.731,-0.455 4.575,-1.112zM58.983,176.38208c0.122,1.398 0.231,2.097 0.328,2.097c1.246,0.431 2.009,0.647 2.288,0.647l0.72,-3.136h-0.064c-0.711,0.043 -1.801,0.174 -3.272,0.392z" data-paper-data="{&quot;origPos&quot;:null}" fill="#000000"/><path d="M71.561,172.65406c0.189,0.778 0.319,1.258 0.392,1.441c2.686,-0.614 4.105,-0.921 4.257,-0.921c1.829,2.631 2.743,4.004 2.743,4.12l-2.096,4.448l-4.512,-0.72v0.136c0.353,2.704 0.529,4.141 0.529,4.312c-0.043,0 -0.064,0.021 -0.064,0.063c-0.437,-0.042 -0.766,-0.063 -0.984,-0.063h-0.784c-0.456,0 -1.155,-0.022 -2.097,-0.064c-0.085,-0.255 -0.738,-4.135 -1.959,-11.64c0.206,-0.085 1.732,-0.455 4.575,-1.112zM71.889,176.38208c0.122,1.398 0.231,2.097 0.329,2.097c1.245,0.431 2.008,0.647 2.287,0.647l0.72,-3.136h-0.063c-0.711,0.043 -1.802,0.174 -3.273,0.392z" data-paper-data="{&quot;origPos&quot;:null}" fill="#000000"/><path d="M84.085,172.66408c0.085,0.012 0.127,0.054 0.127,0.127l-0.948,5.25c1.811,-0.213 2.717,-0.383 2.717,-0.51c0.34,-2.103 0.574,-3.282 0.701,-3.537c2.243,0.462 3.485,0.735 3.728,0.821c-1.306,4.49 -2.023,6.829 -2.151,7.018c-2.284,1.604 -3.57,2.491 -3.855,2.661c-0.085,0 -1.541,-0.358 -4.366,-1.075v-0.064c0.747,-1.647 1.212,-2.47 1.394,-2.47l2.78,1.394l1.331,-2.278c-1.197,0.298 -1.893,0.446 -2.087,0.446l-3.546,-1.841c0.432,-3.962 0.705,-5.942 0.821,-5.942z" data-paper-data="{&quot;origPos&quot;:null}" fill="#000000"/><path d="M99.999,169.88408c1.719,0.121 2.579,0.23 2.579,0.328c0.663,1.78 1.067,2.916 1.213,3.409h0.054c0.158,-0.341 0.763,-1.276 1.814,-2.808h0.055c1.646,0.104 2.47,0.216 2.47,0.338l1.485,10.162c0,0.061 -1.3,0.207 -3.901,0.438l-0.054,-0.11c-0.146,-3.086 -0.219,-4.973 -0.219,-5.66h-0.055l-2.251,1.978h-0.055c-0.073,-0.036 -0.586,-0.841 -1.54,-2.415h-0.055c-1.173,3.415 -1.814,5.228 -1.923,5.441h-0.109c-2.097,-0.948 -3.288,-1.516 -3.573,-1.704v-0.055c2.6,-6.113 3.955,-9.227 4.065,-9.342z" data-paper-data="{&quot;origPos&quot;:null}" fill="#2b70c2"/><path d="M115.439,172.64508l0.064,0.119l-1.231,6.526h0.064l3.136,-0.921v-3.691c0.012,-0.085 0.051,-0.128 0.118,-0.128c2.358,0.164 3.67,0.246 3.938,0.246c0,0.043 0.021,0.064 0.063,0.064c0,1.039 -0.328,3.193 -0.984,6.462c0,0.189 -0.942,0.332 -2.826,0.429c-0.097,-0.116 -0.179,-0.362 -0.246,-0.739c-2.412,0.493 -3.788,0.739 -4.129,0.739c-1.926,-1.434 -2.889,-2.173 -2.889,-2.215c0.328,-4.308 0.535,-6.544 0.62,-6.708h0.055c1.537,-0.043 2.953,-0.104 4.247,-0.183z" data-paper-data="{&quot;origPos&quot;:null}" fill="#2b70c2"/><path d="M129.867,172.64508c1.75,1.118 2.716,1.762 2.899,1.933c-0.632,1.403 -0.994,2.105 -1.085,2.105l-3.318,-1.923h-0.118c0,0.061 -0.143,0.401 -0.428,1.021c3.056,1.646 4.584,2.491 4.584,2.534c-0.857,1.98 -1.34,3.026 -1.449,3.135l-5.186,0.301c-2.018,-1.337 -3.102,-2.042 -3.254,-2.115v-0.055c0,-0.151 0.301,-0.835 0.902,-2.05l4.047,2.105l0.301,-1.203c-2.504,-1.124 -3.992,-1.826 -4.466,-2.105v-0.128c0,-0.231 0.483,-1.255 1.449,-3.072z" data-paper-data="{&quot;origPos&quot;:null}" fill="#2b70c2"/><path d="M137.751,169.89306c0.037,0.054 0.207,1.719 0.511,4.994c2.345,-0.717 3.594,-1.075 3.746,-1.075l2.324,1.586c-0.377,3.463 -0.623,5.487 -0.738,6.07l-3.227,0.11c0,-0.037 -0.021,-0.055 -0.063,-0.055l0.063,-0.228c0,-0.492 0.073,-1.987 0.219,-4.484c-0.887,-0.037 -1.546,-0.055 -1.978,-0.055h-0.228c0.262,2.777 0.392,4.29 0.392,4.539l-3.062,0.456c-0.116,-0.389 -0.796,-4.02 -2.042,-10.892c0,-0.195 0.474,-0.347 1.422,-0.456c1.197,-0.34 2.084,-0.51 2.661,-0.51z" data-paper-data="{&quot;origPos&quot;:null}" fill="#2b70c2"/><path d="M151.733,172.64508c1.203,0.675 1.942,1.112 2.215,1.313c-0.984,2.048 -1.513,3.09 -1.586,3.126h-0.064l-1.303,-1.139l-1.54,1.877l0.173,3.418c-0.079,0.073 -1.085,0.243 -3.017,0.511c-0.073,-0.523 -0.547,-3.084 -1.422,-7.684c0,-0.073 1.27,-0.261 3.81,-0.565c0.042,0.049 0.158,0.617 0.346,1.704c1.519,-1.707 2.315,-2.561 2.388,-2.561z" data-paper-data="{&quot;origPos&quot;:null}" fill="#2b70c2"/><path d="M158.341,172.65406c2.309,0.62 3.534,0.997 3.673,1.131c1.27,1.798 1.984,2.834 2.142,3.108c-0.82,2.6 -1.291,3.901 -1.412,3.901c-2.735,0.638 -4.166,0.957 -4.293,0.957c-2.261,-1.319 -3.464,-2.054 -3.61,-2.206c-0.079,-2.455 -0.118,-3.81 -0.118,-4.065c-0.037,-0.073 -0.055,-0.128 -0.055,-0.164c2.333,-1.774 3.54,-2.662 3.619,-2.662zM158.113,175.99008c-0.036,0.243 -0.091,1.128 -0.164,2.653l2.033,0.455c0.486,-1.519 0.729,-2.33 0.729,-2.433c-1.616,-0.486 -2.482,-0.729 -2.598,-0.729z" data-paper-data="{&quot;origPos&quot;:null}" fill="#2b70c2"/><path d="M168.659,172.65406c2.309,0.62 3.533,0.997 3.673,1.131c1.27,1.798 1.984,2.834 2.142,3.108c-0.82,2.6 -1.291,3.901 -1.413,3.901c-2.734,0.638 -4.165,0.957 -4.293,0.957c-2.26,-1.319 -3.463,-2.054 -3.609,-2.206c-0.079,-2.455 -0.118,-3.81 -0.118,-4.065c-0.037,-0.073 -0.055,-0.128 -0.055,-0.164c2.333,-1.774 3.539,-2.662 3.618,-2.662zM168.431,175.99008c-0.036,0.243 -0.091,1.128 -0.164,2.653l2.033,0.455c0.486,-1.519 0.729,-2.33 0.729,-2.433c-1.617,-0.486 -2.482,-0.729 -2.598,-0.729z" data-paper-data="{&quot;origPos&quot;:null}" fill="#2b70c2"/><path d="M185.43,172.64508c1.482,0.614 2.762,1.191 3.837,1.732c-0.279,3.616 -0.459,5.593 -0.538,5.934c-1.786,0.443 -2.786,0.665 -2.998,0.665c0,-0.79 -0.061,-2.348 -0.183,-4.676c-0.674,0.067 -1.011,0.125 -1.011,0.173c0,0.231 0.039,1.55 0.118,3.956c0.037,0 0.055,0.021 0.055,0.064c0,0.073 -0.939,0.273 -2.817,0.602c-0.079,-0.098 -0.319,-1.577 -0.72,-4.439c-0.759,0.194 -1.139,0.334 -1.139,0.419l0.365,3.719c-0.073,0.079 -1.073,0.398 -2.999,0.957c-1.118,-3.956 -1.817,-6.611 -2.096,-7.966c2.108,-0.523 3.287,-0.784 3.536,-0.784c0.28,1.106 0.419,1.744 0.419,1.914h0.064c1.027,-0.948 1.744,-1.586 2.151,-1.914h0.064l1.914,1.376h0.064c1.197,-1.154 1.835,-1.732 1.914,-1.732z" data-paper-data="{&quot;origPos&quot;:null}" fill="#2b70c2"/><path d="M204.115,169.87406c0.036,0.079 0.054,0.137 0.054,0.174c-0.036,1.81 -0.054,2.859 -0.054,3.144l-0.119,0.055c-2.789,0.073 -4.387,0.109 -4.794,0.109l-0.055,0.119c0.037,0.674 0.055,1.227 0.055,1.659v0.282h0.055l3.709,-0.456l0.064,0.11v2.798c0,0.079 -0.039,0.118 -0.118,0.118l-3.482,-0.401v0.338c0,0.765 0.021,1.908 0.064,3.427c-0.341,0.079 -1.371,0.212 -3.09,0.401c-0.11,-0.213 -0.641,-3.734 -1.595,-10.564h0.054z" data-paper-data="{&quot;origPos&quot;:null}" fill="#2b70c2"/><path d="M210.331,172.65406c2.752,1.416 4.278,2.243 4.575,2.48c-0.395,1.847 -0.628,2.798 -0.701,2.852h-5.761v0.101l1.613,1.996l2.534,-1.294c0.249,0.431 0.608,1.184 1.076,2.26c-0.219,0.073 -1.814,0.307 -4.785,0.702c-2.461,-1.623 -3.701,-2.467 -3.719,-2.534c0.395,-3.154 0.629,-4.731 0.702,-4.731c2.57,-1.093 4.059,-1.704 4.466,-1.832zM209.738,174.86008c-0.048,0.122 -0.37,0.605 -0.966,1.449c0,0.256 0.359,0.383 1.076,0.383c0,0.037 0.519,0.125 1.558,0.264c0.286,-0.394 0.429,-0.625 0.429,-0.692c-0.091,-0.541 -0.289,-0.811 -0.593,-0.811z" data-paper-data="{&quot;origPos&quot;:null}" fill="#2b70c2"/><path d="M223.091,172.64508c1.75,1.118 2.716,1.762 2.899,1.933c-0.632,1.403 -0.994,2.105 -1.085,2.105l-3.318,-1.923h-0.118c0,0.061 -0.143,0.401 -0.428,1.021c3.056,1.646 4.584,2.491 4.584,2.534c-0.857,1.98 -1.34,3.026 -1.449,3.135l-5.186,0.301c-2.018,-1.337 -3.102,-2.042 -3.254,-2.115v-0.055c0,-0.151 0.301,-0.835 0.902,-2.05l4.047,2.105l0.301,-1.203c-2.504,-1.124 -3.992,-1.826 -4.466,-2.105v-0.128c0,-0.231 0.483,-1.255 1.449,-3.072z" data-paper-data="{&quot;origPos&quot;:null}" fill="#2b70c2"/><path d="M229.617,169.89306l4.011,0.711l-0.383,3.044c0.796,-0.043 1.379,-0.064 1.75,-0.064h0.583l0.128,-0.064l0.064,0.128c-0.128,1.847 -0.237,2.886 -0.328,3.117l-0.128,-0.073c-0.091,0 -0.912,-0.042 -2.461,-0.127c-0.085,1.428 -0.149,3.135 -0.191,5.122l-0.128,0.064c-1.957,-0.128 -3.123,-0.237 -3.5,-0.328l0.064,-0.256c0,-0.528 0.085,-2.169 0.255,-4.921c-1.641,-0.092 -2.461,-0.201 -2.461,-0.329c0.085,-2.029 0.195,-3.044 0.328,-3.044l2.397,0.456v-0.784c0,-0.638 -0.024,-1.501 -0.073,-2.589c0.049,0 0.073,-0.021 0.073,-0.063z" data-paper-data="{&quot;origPos&quot;:null}" fill="#2b70c2"/><path d="M237.994,168.99008l3.582,0.565c-0.45,1.72 -0.745,2.58 -0.884,2.58c-1.884,-0.128 -2.826,-0.252 -2.826,-0.374v-2.643c0.018,-0.085 0.061,-0.128 0.128,-0.128zM236.991,173.32908h0.055c2.771,0.504 4.156,0.799 4.156,0.884c-0.796,4.509 -1.279,7.021 -1.449,7.538h-2.89c-0.085,0 -0.127,-0.043 -0.127,-0.128z" data-paper-data="{&quot;origPos&quot;:null}" fill="#2b70c2"/><path d="M245.422,172.64508c1.489,3.415 2.282,5.186 2.379,5.314c0.735,-2.789 1.164,-4.275 1.285,-4.457c2.321,0.213 3.482,0.395 3.482,0.547v0.064c-1.629,4.472 -2.504,6.814 -2.625,7.027c-1.799,0.328 -3.002,0.532 -3.61,0.611l-4.457,-6.599v-0.128c0.043,-0.079 1.225,-0.872 3.546,-2.379z" data-paper-data="{&quot;origPos&quot;:null}" fill="#2b70c2"/><path d="M254.929,172.64508c3.609,0.499 5.414,0.805 5.414,0.921c1.421,1.221 2.132,1.874 2.132,1.96c-0.577,1.804 -0.905,2.901 -0.984,3.29c0.577,1.282 0.905,2.048 0.984,2.297c0,0.073 -0.941,0.267 -2.825,0.583c-0.024,-0.103 -0.198,-0.334 -0.52,-0.693c-2.6,0.499 -4.001,0.748 -4.201,0.748l-1.386,-3.746l3.054,-1.614c0.492,0.079 1.26,0.119 2.306,0.119c0,-0.134 0.018,-0.538 0.054,-1.212c-0.176,0 -1.75,0.115 -4.721,0.346l-0.055,-0.118c0.413,-1.921 0.662,-2.881 0.748,-2.881zM256.824,178.00506c0,0.067 0.195,0.777 0.584,2.132h0.054c0.766,-0.498 1.149,-0.826 1.149,-0.984l0.118,-0.975c-0.145,0 -0.78,-0.058 -1.905,-0.173z" data-paper-data="{&quot;origPos&quot;:null}" fill="#2b70c2"/><path d="M263.35,169.90208c1.86,0.036 3.224,0.054 4.093,0.054c0.079,0 0.319,3.731 0.72,11.193c-0.31,0.079 -1.392,0.28 -3.245,0.602c-0.091,0 -0.392,-2.285 -0.902,-6.854c-0.043,-0.11 -0.265,-1.775 -0.666,-4.995z" data-paper-data="{&quot;origPos&quot;:null}" fill="#2b70c2"/><path d="M273.194,170.23007l0.037,0.073c-0.608,5.365 -0.948,8.185 -1.021,8.458c-1.288,-0.121 -2.103,-0.206 -2.443,-0.255v-0.036l-0.583,-7.62c0.146,-0.049 1.482,-0.255 4.01,-0.62zM269.585,178.94308c0.042,0.025 0.99,0.098 2.844,0.219l0.036,0.073c-0.286,1.677 -0.468,2.516 -0.547,2.516h-2.114c-0.073,0 -0.171,-0.839 -0.292,-2.516c-0.024,0 -0.037,-0.073 -0.037,-0.219c0.073,-0.024 0.11,-0.048 0.11,-0.073z" data-paper-data="{&quot;origPos&quot;:null}" fill="#000000"/><path d="M279.064,170.48508c1.701,0.073 2.552,0.146 2.552,0.219v0.036c0,0.341 0.158,3.999 0.474,10.974l-0.073,0.037l-3.318,-0.219c-0.024,-0.049 -0.036,-0.085 -0.036,-0.109l0.292,-10.61c0.018,-0.218 0.054,-0.328 0.109,-0.328z" data-paper-data="{&quot;origPos&quot;:null}" fill="#000000"/><path d="M291.487,172.64508c0.079,0.104 0.489,1.866 1.231,5.287h0.063c0,-0.079 0.45,-0.775 1.349,-2.087c0.377,0.255 1.094,0.808 2.151,1.658h0.128v-0.063c0.164,-2.37 0.286,-3.683 0.365,-3.938c2.503,0.128 3.755,0.231 3.755,0.31c-1.149,4.618 -1.762,7.018 -1.841,7.2c-0.383,0.043 -1.185,0.165 -2.407,0.365c-1.002,-1.574 -1.576,-2.412 -1.722,-2.516c-0.656,1.75 -1.067,2.714 -1.231,2.89h-2.461c-0.152,-0.049 -0.869,-1.629 -2.151,-4.74c-0.82,-1.738 -1.23,-2.68 -1.23,-2.825c0,-0.134 1.334,-0.647 4.001,-1.541z" data-paper-data="{&quot;origPos&quot;:null}" fill="#000000"/><path d="M302.908,172.64508c3.609,0.499 5.414,0.805 5.414,0.921c1.422,1.221 2.133,1.874 2.133,1.96c-0.578,1.804 -0.906,2.901 -0.985,3.29c0.577,1.282 0.906,2.048 0.985,2.297c0,0.073 -0.942,0.267 -2.826,0.583c-0.024,-0.103 -0.197,-0.334 -0.519,-0.693c-2.601,0.499 -4.002,0.748 -4.202,0.748l-1.386,-3.746l3.054,-1.614c0.492,0.079 1.261,0.119 2.306,0.119c0,-0.134 0.018,-0.538 0.054,-1.212c-0.176,0 -1.75,0.115 -4.721,0.346l-0.055,-0.118c0.414,-1.921 0.663,-2.881 0.748,-2.881zM304.804,178.00506c0,0.067 0.194,0.777 0.583,2.132h0.055c0.765,-0.498 1.148,-0.826 1.148,-0.984l0.118,-0.975c-0.145,0 -0.78,-0.058 -1.904,-0.173z" data-paper-data="{&quot;origPos&quot;:null}" fill="#000000"/><path d="M319.423,172.64508l3.035,2.088c-0.212,3.463 -0.361,5.487 -0.446,6.07c-0.353,0.042 -1.425,0.106 -3.218,0.191l-0.063,-0.127l-0.319,-4.868l-0.128,-0.063c-1.161,0.249 -1.96,0.437 -2.397,0.565c0.121,2.072 0.182,3.57 0.182,4.493c-1.811,0.505 -2.801,0.757 -2.971,0.757c-1.179,-5.189 -1.768,-7.93 -1.768,-8.222c2.564,-0.334 3.955,-0.501 4.174,-0.501v0.064c0.043,0.03 0.106,0.662 0.191,1.896c2.352,-1.562 3.595,-2.343 3.728,-2.343z" data-paper-data="{&quot;origPos&quot;:null}" fill="#000000"/><path d="M326.086,169.89306l4.01,0.711l-0.382,3.044c0.796,-0.043 1.379,-0.064 1.75,-0.064h0.583l0.128,-0.064l0.063,0.128c-0.127,1.847 -0.237,2.886 -0.328,3.117l-0.127,-0.073c-0.091,0 -0.912,-0.042 -2.461,-0.127c-0.085,1.428 -0.149,3.135 -0.192,5.122l-0.127,0.064c-1.957,-0.128 -3.124,-0.237 -3.5,-0.328l0.064,-0.256c0,-0.528 0.085,-2.169 0.255,-4.921c-1.641,-0.092 -2.461,-0.201 -2.461,-0.329c0.085,-2.029 0.194,-3.044 0.328,-3.044l2.397,0.456v-0.784c0,-0.638 -0.024,-1.501 -0.073,-2.589c0.049,0 0.073,-0.021 0.073,-0.063z" data-paper-data="{&quot;origPos&quot;:null}" fill="#000000"/><path d="M340.56,169.89306l4.01,0.711l-0.382,3.044c0.796,-0.043 1.379,-0.064 1.75,-0.064h0.583l0.128,-0.064l0.063,0.128c-0.127,1.847 -0.237,2.886 -0.328,3.117l-0.127,-0.073c-0.091,0 -0.912,-0.042 -2.461,-0.127c-0.085,1.428 -0.149,3.135 -0.192,5.122l-0.127,0.064c-1.957,-0.128 -3.124,-0.237 -3.5,-0.328l0.064,-0.256c0,-0.528 0.085,-2.169 0.255,-4.921c-1.641,-0.092 -2.461,-0.201 -2.461,-0.329c0.085,-2.029 0.194,-3.044 0.328,-3.044l2.397,0.456v-0.784c0,-0.638 -0.024,-1.501 -0.073,-2.589c0.049,0 0.073,-0.021 0.073,-0.063z" data-paper-data="{&quot;origPos&quot;:null}" fill="#000000"/><path d="M351.352,172.65406c2.309,0.62 3.533,0.997 3.673,1.131c1.27,1.798 1.984,2.834 2.142,3.108c-0.82,2.6 -1.291,3.901 -1.413,3.901c-2.734,0.638 -4.165,0.957 -4.293,0.957c-2.26,-1.319 -3.463,-2.054 -3.609,-2.206c-0.079,-2.455 -0.119,-3.81 -0.119,-4.065c-0.036,-0.073 -0.054,-0.128 -0.054,-0.164c2.333,-1.774 3.539,-2.662 3.618,-2.662zM351.124,175.99008c-0.037,0.243 -0.091,1.128 -0.164,2.653l2.032,0.455c0.486,-1.519 0.729,-2.33 0.729,-2.433c-1.616,-0.486 -2.482,-0.729 -2.597,-0.729z" data-paper-data="{&quot;origPos&quot;:null}" fill="#000000"/><path d="M369.426,172.67306c2.582,0.066 3.874,0.179 3.874,0.337c0.443,6.726 0.665,10.305 0.665,10.737c-1.957,1.246 -3.357,2.09 -4.202,2.534c-2.977,-0.936 -4.466,-1.471 -4.466,-1.604c0.96,-1.404 1.516,-2.115 1.668,-2.133c1.622,0.802 2.555,1.203 2.798,1.203l0.866,-1.139c-0.231,-0.942 -0.386,-1.498 -0.465,-1.668c-0.133,0 -1.78,0.267 -4.94,0.802c-1.732,-2.814 -2.598,-4.257 -2.598,-4.33c1.495,-2.388 2.407,-3.788 2.735,-4.202h0.064c0.176,0 1.488,0.289 3.937,0.866v-0.2c0,-0.237 -0.021,-0.617 -0.064,-1.14zM366.436,176.60106c0.085,0.188 0.353,1.191 0.802,3.008c0.566,-0.182 1.431,-0.517 2.598,-1.003c-0.225,-1.094 -0.337,-1.716 -0.337,-1.868l-0.328,-0.064h-0.401c-0.511,0 -1.289,-0.024 -2.334,-0.073z" data-paper-data="{&quot;origPos&quot;:null}" fill="#000000"/><path d="M378.623,172.65406c2.309,0.62 3.533,0.997 3.673,1.131c1.27,1.798 1.984,2.834 2.142,3.108c-0.821,2.6 -1.292,3.901 -1.413,3.901c-2.734,0.638 -4.165,0.957 -4.293,0.957c-2.26,-1.319 -3.464,-2.054 -3.609,-2.206c-0.079,-2.455 -0.119,-3.81 -0.119,-4.065c-0.036,-0.073 -0.055,-0.128 -0.055,-0.164c2.334,-1.774 3.54,-2.662 3.619,-2.662zM378.395,175.99008c-0.037,0.243 -0.091,1.128 -0.164,2.653l2.032,0.455c0.486,-1.519 0.729,-2.33 0.729,-2.433c-1.616,-0.486 -2.482,-0.729 -2.597,-0.729z" data-paper-data="{&quot;origPos&quot;:null}" fill="#000000"/><path d="M393.57,172.65406c2.309,0.62 3.534,0.997 3.674,1.131c1.27,1.798 1.984,2.834 2.142,3.108c-0.821,2.6 -1.292,3.901 -1.413,3.901c-2.735,0.638 -4.166,0.957 -4.293,0.957c-2.261,-1.319 -3.464,-2.054 -3.61,-2.206c-0.079,-2.455 -0.118,-3.81 -0.118,-4.065c-0.036,-0.073 -0.055,-0.128 -0.055,-0.164c2.334,-1.774 3.54,-2.662 3.619,-2.662zM393.343,175.99008c-0.037,0.243 -0.092,1.128 -0.164,2.653l2.032,0.455c0.486,-1.519 0.729,-2.33 0.729,-2.433c-1.616,-0.486 -2.482,-0.729 -2.597,-0.729z" data-paper-data="{&quot;origPos&quot;:null}" fill="#000000"/><path d="M408.309,172.64508l3.035,2.088c-0.213,3.463 -0.362,5.487 -0.447,6.07c-0.352,0.042 -1.425,0.106 -3.217,0.191l-0.064,-0.127l-0.319,-4.868l-0.128,-0.063c-1.16,0.249 -1.959,0.437 -2.397,0.565c0.122,2.072 0.183,3.57 0.183,4.493c-1.811,0.505 -2.802,0.757 -2.972,0.757c-1.179,-5.189 -1.768,-7.93 -1.768,-8.222c2.564,-0.334 3.956,-0.501 4.174,-0.501v0.064c0.043,0.03 0.107,0.662 0.192,1.896c2.351,-1.562 3.594,-2.343 3.728,-2.343z" data-paper-data="{&quot;origPos&quot;:null}" fill="#000000"/><path d="M418.262,172.64508c3.609,0.499 5.414,0.805 5.414,0.921c1.422,1.221 2.133,1.874 2.133,1.96c-0.578,1.804 -0.906,2.901 -0.985,3.29c0.578,1.282 0.906,2.048 0.985,2.297c0,0.073 -0.942,0.267 -2.826,0.583c-0.024,-0.103 -0.197,-0.334 -0.519,-0.693c-2.601,0.499 -4.002,0.748 -4.202,0.748l-1.386,-3.746l3.054,-1.614c0.492,0.079 1.261,0.119 2.306,0.119c0,-0.134 0.018,-0.538 0.055,-1.212c-0.177,0 -1.75,0.115 -4.722,0.346l-0.055,-0.118c0.414,-1.921 0.663,-2.881 0.748,-2.881zM420.158,178.00506c0,0.067 0.194,0.777 0.583,2.132h0.055c0.765,-0.498 1.148,-0.826 1.148,-0.984l0.119,-0.975c-0.146,0 -0.781,-0.058 -1.905,-0.173z" data-paper-data="{&quot;origPos&quot;:null}" fill="#000000"/><path d="M434.778,172.64508l3.035,2.088c-0.213,3.463 -0.362,5.487 -0.447,6.07c-0.352,0.042 -1.425,0.106 -3.217,0.191l-0.064,-0.127l-0.319,-4.868l-0.128,-0.063c-1.16,0.249 -1.959,0.437 -2.397,0.565c0.122,2.072 0.182,3.57 0.182,4.493c-1.81,0.505 -2.801,0.757 -2.971,0.757c-1.179,-5.189 -1.768,-7.93 -1.768,-8.222c2.564,-0.334 3.955,-0.501 4.174,-0.501v0.064c0.043,0.03 0.107,0.662 0.192,1.896c2.351,-1.562 3.594,-2.343 3.728,-2.343z" data-paper-data="{&quot;origPos&quot;:null}" fill="#000000"/><path d="M33.116,195.97908c3.609,0.498 5.414,0.805 5.414,0.92c1.422,1.222 2.133,1.875 2.133,1.96c-0.577,1.805 -0.905,2.901 -0.984,3.29c0.577,1.282 0.905,2.048 0.984,2.297c0,0.073 -0.942,0.267 -2.826,0.583c-0.024,-0.103 -0.197,-0.334 -0.519,-0.692c-2.601,0.498 -4.001,0.747 -4.202,0.747l-1.385,-3.746l3.053,-1.613c0.492,0.079 1.261,0.118 2.306,0.118c0,-0.133 0.018,-0.538 0.055,-1.212c-0.177,0 -1.75,0.115 -4.722,0.346l-0.054,-0.118c0.413,-1.92 0.662,-2.88 0.747,-2.88zM35.012,201.33807c0,0.067 0.194,0.778 0.583,2.133h0.055c0.766,-0.498 1.148,-0.827 1.148,-0.985l0.119,-0.975c-0.146,0 -0.781,-0.058 -1.905,-0.173z" data-paper-data="{&quot;origPos&quot;:null}" fill="#2b70c2"/><path d="M47.052,193.21708h0.055c2.746,0.231 4.12,0.41 4.12,0.538l1.212,10.728c0,0.079 -1.212,0.279 -3.637,0.601l-0.054,-0.118v-0.976c-2.091,0.565 -3.525,0.93 -4.303,1.094c-1.847,-2.613 -2.816,-4.004 -2.907,-4.174c1.361,-2.473 2.087,-3.725 2.178,-3.756l3.819,0.183c-0.079,-0.468 -0.24,-1.841 -0.483,-4.12zM45.357,199.75208c0.614,1.878 0.996,2.908 1.148,3.09l1.814,-1.577c-0.188,-1.088 -0.328,-1.631 -0.419,-1.631h-2.425c-0.079,0.012 -0.118,0.051 -0.118,0.118z" data-paper-data="{&quot;origPos&quot;:null}" fill="#2b70c2"/><path d="M56.932,195.97908c1.489,3.415 2.282,5.186 2.379,5.313c0.736,-2.789 1.164,-4.274 1.286,-4.457c2.321,0.213 3.481,0.395 3.481,0.547v0.064c-1.628,4.472 -2.503,6.815 -2.625,7.027c-1.798,0.329 -3.001,0.532 -3.609,0.611l-4.457,-6.599v-0.127c0.042,-0.079 1.224,-0.872 3.545,-2.379z" data-paper-data="{&quot;origPos&quot;:null}" fill="#2b70c2"/><path d="M70.222,195.98806c2.752,1.416 4.277,2.242 4.575,2.479c-0.395,1.847 -0.629,2.798 -0.702,2.853h-5.76v0.1l1.613,1.996l2.534,-1.294c0.249,0.431 0.608,1.185 1.075,2.26c-0.218,0.073 -1.813,0.307 -4.785,0.702c-2.461,-1.622 -3.7,-2.467 -3.718,-2.534c0.395,-3.153 0.628,-4.73 0.701,-4.73c2.571,-1.094 4.059,-1.705 4.467,-1.832zM69.629,198.19308c-0.049,0.122 -0.371,0.605 -0.966,1.45c0,0.255 0.358,0.383 1.075,0.383c0,0.036 0.52,0.124 1.559,0.264c0.286,-0.395 0.428,-0.626 0.428,-0.693c-0.091,-0.541 -0.288,-0.811 -0.592,-0.811z" data-paper-data="{&quot;origPos&quot;:null}" fill="#2b70c2"/><path d="M83.72,195.97908l3.035,2.087c-0.212,3.463 -0.361,5.487 -0.446,6.07c-0.353,0.043 -1.425,0.107 -3.218,0.192l-0.063,-0.128l-0.32,-4.867l-0.127,-0.064c-1.161,0.249 -1.96,0.437 -2.397,0.565c0.121,2.072 0.182,3.57 0.182,4.494c-1.811,0.504 -2.801,0.756 -2.971,0.756c-1.179,-5.189 -1.769,-7.93 -1.769,-8.221c2.565,-0.334 3.956,-0.502 4.175,-0.502v0.064c0.042,0.031 0.106,0.663 0.191,1.896c2.352,-1.562 3.595,-2.342 3.728,-2.342z" data-paper-data="{&quot;origPos&quot;:null}" fill="#2b70c2"/><path d="M90.383,193.22606l4.01,0.711l-0.382,3.044c0.796,-0.042 1.379,-0.064 1.75,-0.064h0.583l0.128,-0.063l0.063,0.127c-0.127,1.847 -0.237,2.887 -0.328,3.117l-0.127,-0.072c-0.092,0 -0.912,-0.043 -2.461,-0.128c-0.085,1.428 -0.149,3.135 -0.192,5.122l-0.127,0.064c-1.957,-0.128 -3.124,-0.237 -3.5,-0.328l0.063,-0.255c0,-0.529 0.086,-2.17 0.256,-4.922c-1.641,-0.091 -2.461,-0.201 -2.461,-0.328c0.085,-2.03 0.194,-3.045 0.328,-3.045l2.397,0.456v-0.784c0,-0.638 -0.024,-1.501 -0.073,-2.588c0.049,0 0.073,-0.021 0.073,-0.064z" data-paper-data="{&quot;origPos&quot;:null}" fill="#2b70c2"/><path d="M102.423,195.97908l0.064,0.118l-1.23,6.526h0.063l3.136,-0.92v-3.692c0.012,-0.085 0.052,-0.127 0.118,-0.127c2.358,0.164 3.671,0.246 3.938,0.246c0,0.042 0.021,0.063 0.064,0.063c0,1.04 -0.328,3.194 -0.985,6.463c0,0.188 -0.942,0.331 -2.825,0.428c-0.097,-0.115 -0.179,-0.361 -0.246,-0.738c-2.413,0.492 -3.789,0.738 -4.129,0.738c-1.926,-1.434 -2.89,-2.172 -2.89,-2.215c0.329,-4.308 0.535,-6.544 0.62,-6.708h0.055c1.537,-0.043 2.953,-0.103 4.247,-0.182z" data-paper-data="{&quot;origPos&quot;:null}" fill="#2b70c2"/><path d="M116.041,195.97908c1.203,0.674 1.941,1.112 2.214,1.312c-0.984,2.048 -1.513,3.09 -1.586,3.126h-0.063l-1.304,-1.139l-1.54,1.878l0.173,3.418c-0.079,0.073 -1.085,0.243 -3.017,0.51c-0.073,-0.522 -0.547,-3.084 -1.422,-7.683c0,-0.073 1.27,-0.262 3.81,-0.566c0.043,0.049 0.158,0.617 0.347,1.705c1.519,-1.708 2.315,-2.561 2.388,-2.561z" data-paper-data="{&quot;origPos&quot;:null}" fill="#2b70c2"/><path d="M124.143,195.98806c2.753,1.416 4.278,2.242 4.576,2.479c-0.395,1.847 -0.629,2.798 -0.702,2.853h-5.76v0.1l1.613,1.996l2.534,-1.294c0.249,0.431 0.607,1.185 1.075,2.26c-0.218,0.073 -1.813,0.307 -4.785,0.702c-2.461,-1.622 -3.7,-2.467 -3.719,-2.534c0.395,-3.153 0.629,-4.73 0.702,-4.73c2.571,-1.094 4.059,-1.705 4.466,-1.832zM123.551,198.19308c-0.049,0.122 -0.371,0.605 -0.966,1.45c0,0.255 0.358,0.383 1.075,0.383c0,0.036 0.52,0.124 1.559,0.264c0.286,-0.395 0.428,-0.626 0.428,-0.693c-0.091,-0.541 -0.288,-0.811 -0.592,-0.811z" data-paper-data="{&quot;origPos&quot;:null}" fill="#2b70c2"/><path d="M141.534,195.97908c1.75,1.118 2.716,1.762 2.898,1.932c-0.631,1.404 -0.993,2.105 -1.084,2.105l-3.318,-1.923h-0.118c0,0.061 -0.143,0.401 -0.429,1.021c3.057,1.647 4.585,2.491 4.585,2.534c-0.857,1.981 -1.34,3.026 -1.449,3.135l-5.187,0.301c-2.017,-1.337 -3.102,-2.042 -3.253,-2.114v-0.055c0,-0.152 0.3,-0.836 0.902,-2.051l4.047,2.106l0.301,-1.204c-2.504,-1.124 -3.993,-1.826 -4.467,-2.105v-0.128c0,-0.231 0.483,-1.254 1.45,-3.071z" data-paper-data="{&quot;origPos&quot;:null}" fill="#000000"/><path d="M149.008,195.98806c2.309,0.62 3.533,0.996 3.673,1.13c1.27,1.799 1.984,2.835 2.142,3.108c-0.82,2.601 -1.291,3.901 -1.413,3.901c-2.734,0.638 -4.165,0.957 -4.293,0.957c-2.26,-1.318 -3.463,-2.054 -3.609,-2.206c-0.079,-2.454 -0.119,-3.81 -0.119,-4.065c-0.036,-0.073 -0.054,-0.127 -0.054,-0.164c2.333,-1.774 3.539,-2.661 3.618,-2.661zM148.78,199.32408c-0.036,0.243 -0.091,1.127 -0.164,2.652l2.033,0.456c0.486,-1.519 0.729,-2.331 0.729,-2.434c-1.617,-0.486 -2.482,-0.729 -2.598,-0.729z" data-paper-data="{&quot;origPos&quot;:null}" fill="#000000"/><path d="M159.326,195.98806c2.309,0.62 3.533,0.996 3.673,1.13c1.27,1.799 1.984,2.835 2.142,3.108c-0.821,2.601 -1.291,3.901 -1.413,3.901c-2.734,0.638 -4.165,0.957 -4.293,0.957c-2.26,-1.318 -3.463,-2.054 -3.609,-2.206c-0.079,-2.454 -0.119,-3.81 -0.119,-4.065c-0.036,-0.073 -0.055,-0.127 -0.055,-0.164c2.334,-1.774 3.54,-2.661 3.619,-2.661zM159.098,199.32408c-0.037,0.243 -0.091,1.127 -0.164,2.652l2.032,0.456c0.486,-1.519 0.729,-2.331 0.729,-2.434c-1.616,-0.486 -2.482,-0.729 -2.597,-0.729z" data-paper-data="{&quot;origPos&quot;:null}" fill="#000000"/><path d="M174.064,195.97908l3.035,2.087c-0.213,3.463 -0.361,5.487 -0.446,6.07c-0.353,0.043 -1.425,0.107 -3.218,0.192l-0.064,-0.128l-0.319,-4.867l-0.127,-0.064c-1.161,0.249 -1.96,0.437 -2.397,0.565c0.121,2.072 0.182,3.57 0.182,4.494c-1.811,0.504 -2.801,0.756 -2.972,0.756c-1.178,-5.189 -1.768,-7.93 -1.768,-8.221c2.564,-0.334 3.956,-0.502 4.175,-0.502v0.064c0.042,0.031 0.106,0.663 0.191,1.896c2.352,-1.562 3.594,-2.342 3.728,-2.342z" data-paper-data="{&quot;origPos&quot;:null}" fill="#000000"/><path d="M182.012,193.56308l0.036,0.073c-0.607,5.366 -0.948,8.185 -1.02,8.459c-1.289,-0.122 -2.103,-0.207 -2.443,-0.256v-0.036l-0.584,-7.62c0.146,-0.049 1.483,-0.255 4.011,-0.62zM178.403,202.27708c0.042,0.024 0.99,0.097 2.843,0.219l0.037,0.072c-0.286,1.678 -0.468,2.516 -0.547,2.516h-2.115c-0.073,0 -0.17,-0.838 -0.291,-2.516c-0.025,0 -0.037,-0.072 -0.037,-0.218c0.073,-0.025 0.11,-0.049 0.11,-0.073z" data-paper-data="{&quot;origPos&quot;:null}" fill="#000000"/></g><text transform="translate(34,157.40423) scale(0.3438,0.3438)" font-size="40" xml:space="preserve" data-paper-data="{&quot;origPos&quot;:null}" fill="#ffc066" fill-rule="nonzero" stroke="#000000" stroke-width="10" stroke-linecap="butt" stroke-linejoin="miter" stroke-miterlimit="10" stroke-dasharray="" stroke-dashoffset="0" font-family="Sans Serif" font-weight="normal" text-anchor="start" style="mix-blend-mode: normal"><tspan x="0" dy="0">Captain Toad</tspan></text><text transform="translate(34,157.40423) scale(0.3438,0.3438)" font-size="40" xml:space="preserve" data-paper-data="{&quot;origPos&quot;:null}" fill="#ffc066" fill-rule="nonzero" stroke="none" stroke-width="1" stroke-linecap="butt" stroke-linejoin="miter" stroke-miterlimit="10" stroke-dasharray="" stroke-dashoffset="0" font-family="Sans Serif" font-weight="normal" text-anchor="start" style="mix-blend-mode: normal"><tspan x="0" dy="0">Captain Toad</tspan></text></g></g></svg>