<svg version="1.1" xmlns="http://www.w3.org/2000/svg" xmlns:xlink="http://www.w3.org/1999/xlink" width="437" height="90.79587" viewBox="0,0,437,90.79587"><defs><linearGradient x1="240" y1="135.60206" x2="240" y2="224.39795" gradientUnits="userSpaceOnUse" id="color-1"><stop offset="0" stop-color="#ffffff"/><stop offset="1" stop-color="#d8d8d8"/></linearGradient><linearGradient x1="240" y1="135.60208" x2="240" y2="224.39795" gradientUnits="userSpaceOnUse" id="color-2"><stop offset="0" stop-color="#343434"/><stop offset="1" stop-color="#090909"/></linearGradient><radialGradient cx="443.8065" cy="206.54466" r="17.9081" gradientUnits="userSpaceOnUse" id="color-3"><stop offset="0" stop-color="#ffffff"/><stop offset="1" stop-color="#e5e5e5"/></radialGradient></defs><g transform="translate(-21.5,-134.60208)"><g data-paper-data="{&quot;isPaintingLayer&quot;:true}" fill-rule="nonzero" stroke-linejoin="miter" stroke-miterlimit="10" stroke-dasharray="" stroke-dashoffset="0" style="mix-blend-mode: normal"><path d="M22.5,224.39795v-88.79587h435v88.79587z" data-paper-data="{&quot;origPos&quot;:null}" fill="url(#color-1)" stroke="url(#color-2)" stroke-width="2" stroke-linecap="butt"/><g data-paper-data="{&quot;origPos&quot;:null}"><path d="M444.3058,202.09868c2.5136,0 4.7909,1.0212 6.4406,2.6702c1.6489,1.6496 2.6702,3.9269 2.6702,6.4405c0,2.5136 -1.0213,4.791 -2.6702,6.4406c-1.6497,1.649 -3.927,2.6702 -6.4406,2.6702c-2.5136,0 -4.7909,-1.0212 -6.4406,-2.6702c-1.6489,-1.6496 -2.6701,-3.927 -2.6701,-6.4406c0,-2.5136 1.0212,-4.7909 2.6701,-6.4405c1.6497,-1.649 3.927,-2.6702 6.4406,-2.6702z" fill="url(#color-3)" stroke="#000000" stroke-width="2.0785" stroke-linecap="butt"/><path d="M441.2734,206.54886l5.6119,0.4503l1.7321,3.187l-3.6374,2.9446l3.3603,-0.5197l0.7967,3.4642l-7.4479,-0.0693l-1.9053,-2.4249l4.6766,-3.3256l-4.5727,-0.3464z" fill="#000000" stroke="none" stroke-width="0.69283" stroke-linecap="round"/></g><g data-paper-data="{&quot;origPos&quot;:null}" stroke="none" stroke-width="1" stroke-linecap="butt"><path d="M34.656,148.43106c2.449,0.547 3.81,0.86 4.083,0.939v0.064c-0.085,2.193 -0.149,3.469 -0.191,3.828c0.14,0 0.769,0.146 1.887,0.437c1.002,-3.093 1.546,-4.639 1.631,-4.639c1.677,0.753 2.744,1.255 3.199,1.504v0.064c-1.841,4.284 -2.886,6.647 -3.135,7.091c-0.462,0.383 -2.072,1.847 -4.831,4.393h-0.064l-5.086,-2.506c0.468,-0.803 1.033,-1.723 1.696,-2.762c0.03,0 0.826,0.522 2.388,1.568h0.064c0.522,-0.426 1.148,-1.033 1.877,-1.823c0,-0.037 -1.191,-1.207 -3.573,-3.509v-4.521z" data-paper-data="{&quot;origPos&quot;:null}" fill="#000000"/><path d="M49.932,151.19306c2.309,0.62 3.533,0.996 3.673,1.13c1.27,1.799 1.984,2.835 2.142,3.108c-0.82,2.601 -1.291,3.901 -1.413,3.901c-2.734,0.638 -4.165,0.957 -4.293,0.957c-2.26,-1.318 -3.463,-2.054 -3.609,-2.206c-0.079,-2.454 -0.118,-3.809 -0.118,-4.065c-0.037,-0.073 -0.055,-0.127 -0.055,-0.164c2.333,-1.774 3.539,-2.661 3.618,-2.661zM49.704,154.52906c-0.036,0.243 -0.091,1.127 -0.164,2.652l2.033,0.456c0.486,-1.519 0.729,-2.33 0.729,-2.434c-1.617,-0.486 -2.482,-0.729 -2.598,-0.729z" data-paper-data="{&quot;origPos&quot;:null}" fill="#000000"/><path d="M61.498,151.18406l0.064,0.118l-1.23,6.526h0.064l3.135,-0.92v-3.692c0.012,-0.085 0.052,-0.127 0.118,-0.127c2.358,0.164 3.671,0.246 3.938,0.246c0,0.042 0.021,0.064 0.064,0.064c0,1.039 -0.328,3.193 -0.985,6.462c0,0.188 -0.941,0.331 -2.825,0.428c-0.097,-0.115 -0.179,-0.361 -0.246,-0.738c-2.413,0.492 -3.789,0.738 -4.129,0.738c-1.926,-1.434 -2.889,-2.172 -2.889,-2.215c0.328,-4.308 0.534,-6.544 0.619,-6.708h0.055c1.537,-0.043 2.953,-0.103 4.247,-0.182z" data-paper-data="{&quot;origPos&quot;:null}" fill="#000000"/><path d="M76.784,151.19306c2.74,0.516 4.174,0.811 4.302,0.884v0.109c-0.59,1.665 -0.884,2.528 -0.884,2.589h-0.055c-0.152,0 -0.887,-0.237 -2.206,-0.711c-0.735,1.233 -1.103,1.893 -1.103,1.978l1.823,1.768c1.41,-1.325 2.127,-1.987 2.151,-1.987c1.1,1.44 1.65,2.248 1.65,2.424c-0.602,0.347 -1.65,1.027 -3.145,2.042c-2.892,-0.626 -4.454,-0.975 -4.684,-1.048l-1.431,-4.63z" data-paper-data="{&quot;origPos&quot;:null}" fill="#000000"/><path d="M84.759,151.18406c3.609,0.498 5.414,0.805 5.414,0.92c1.422,1.222 2.133,1.875 2.133,1.96c-0.578,1.805 -0.906,2.901 -0.985,3.29c0.578,1.282 0.906,2.048 0.985,2.297c0,0.073 -0.942,0.267 -2.826,0.583c-0.024,-0.103 -0.197,-0.334 -0.519,-0.692c-2.601,0.498 -4.002,0.747 -4.202,0.747l-1.386,-3.746l3.054,-1.613c0.492,0.079 1.261,0.118 2.306,0.118c0,-0.133 0.018,-0.537 0.054,-1.212c-0.176,0 -1.75,0.115 -4.721,0.346l-0.055,-0.118c0.414,-1.92 0.663,-2.88 0.748,-2.88zM86.655,156.54306c0,0.067 0.194,0.778 0.583,2.133h0.055c0.765,-0.498 1.148,-0.827 1.148,-0.985l0.119,-0.975c-0.146,0 -0.781,-0.057 -1.905,-0.173z" data-paper-data="{&quot;origPos&quot;:null}" fill="#000000"/><path d="M101.274,151.18406l3.036,2.087c-0.213,3.463 -0.362,5.487 -0.447,6.07c-0.352,0.043 -1.425,0.107 -3.217,0.192l-0.064,-0.128l-0.319,-4.867l-0.128,-0.064c-1.16,0.249 -1.96,0.438 -2.397,0.565c0.122,2.072 0.182,3.57 0.182,4.494c-1.81,0.504 -2.801,0.756 -2.971,0.756c-1.179,-5.189 -1.768,-7.93 -1.768,-8.221c2.564,-0.334 3.955,-0.502 4.174,-0.502v0.064c0.043,0.031 0.107,0.663 0.192,1.896c2.351,-1.562 3.594,-2.342 3.727,-2.342z" data-paper-data="{&quot;origPos&quot;:null}" fill="#000000"/><path d="M119.294,147.37406l3.591,0.565c-0.45,1.726 -0.744,2.588 -0.884,2.588c-1.89,-0.127 -2.835,-0.255 -2.835,-0.382v-2.644c0.013,-0.085 0.055,-0.127 0.128,-0.127zM118.282,151.22006l4.348,1.13c-0.881,5.105 -1.364,7.815 -1.449,8.131c-0.189,0.17 -1.741,0.947 -4.658,2.333c-2.321,-1.094 -3.749,-1.787 -4.284,-2.078c-0.589,-2.248 -0.926,-3.488 -1.011,-3.719c0.085,-0.085 1.282,-0.422 3.591,-1.012c0,0.043 0.021,0.064 0.064,0.064c-0.043,0.085 -0.064,0.149 -0.064,0.192c0,0.285 -0.085,1.273 -0.256,2.962c2.036,-0.255 3.254,-0.423 3.655,-0.502v-1.64c0,-0.097 -0.018,-0.182 -0.054,-0.255l0.054,-0.128c-0.036,-0.073 -0.054,-0.155 -0.054,-0.246h0.054l-0.054,-0.128v-0.063c0,-0.043 0.018,-0.064 0.054,-0.064l-0.054,-0.128v-0.064c0,-0.042 0.018,-0.063 0.054,-0.063l-0.054,-0.119v-4.475c0.012,-0.085 0.051,-0.128 0.118,-0.128z" data-paper-data="{&quot;origPos&quot;:null}" fill="#2a70c3"/><path d="M128.8,151.18406l0.064,0.118l-1.23,6.526h0.064l3.135,-0.92v-3.692c0.012,-0.085 0.052,-0.127 0.119,-0.127c2.357,0.164 3.67,0.246 3.937,0.246c0,0.042 0.021,0.064 0.064,0.064c0,1.039 -0.328,3.193 -0.985,6.462c0,0.188 -0.941,0.331 -2.825,0.428c-0.097,-0.115 -0.179,-0.361 -0.246,-0.738c-2.413,0.492 -3.789,0.738 -4.129,0.738c-1.926,-1.434 -2.889,-2.172 -2.889,-2.215c0.328,-4.308 0.534,-6.544 0.619,-6.708h0.055c1.537,-0.043 2.953,-0.103 4.247,-0.182z" data-paper-data="{&quot;origPos&quot;:null}" fill="#2a70c3"/><path d="M146,151.18406c1.482,0.613 2.761,1.191 3.837,1.731c-0.28,3.616 -0.459,5.594 -0.538,5.934c-1.786,0.444 -2.786,0.665 -2.999,0.665c0,-0.79 -0.06,-2.348 -0.182,-4.675c-0.674,0.066 -1.012,0.124 -1.012,0.173c0,0.231 0.04,1.549 0.119,3.956c0.036,0 0.055,0.021 0.055,0.063c0,0.073 -0.939,0.274 -2.817,0.602c-0.079,-0.097 -0.319,-1.577 -0.72,-4.439c-0.759,0.195 -1.139,0.334 -1.139,0.419l0.364,3.719c-0.072,0.079 -1.072,0.398 -2.998,0.957c-1.118,-3.956 -1.817,-6.611 -2.097,-7.966c2.109,-0.523 3.288,-0.784 3.537,-0.784c0.279,1.106 0.419,1.744 0.419,1.914h0.064c1.027,-0.948 1.744,-1.586 2.151,-1.914h0.064l1.914,1.376h0.064c1.197,-1.154 1.835,-1.731 1.914,-1.731z" data-paper-data="{&quot;origPos&quot;:null}" fill="#2a70c3"/><path d="M155.324,151.19306c0.188,0.778 0.319,1.258 0.392,1.44c2.686,-0.614 4.104,-0.921 4.256,-0.921c1.829,2.631 2.744,4.005 2.744,4.12l-2.097,4.448l-4.511,-0.72v0.137c0.352,2.704 0.528,4.141 0.528,4.311c-0.042,0 -0.063,0.021 -0.063,0.064c-0.438,-0.043 -0.766,-0.064 -0.985,-0.064h-0.784c-0.455,0 -1.154,-0.021 -2.096,-0.064c-0.085,-0.255 -0.738,-4.135 -1.96,-11.639c0.207,-0.085 1.732,-0.456 4.576,-1.112zM155.652,154.92107c0.122,1.397 0.231,2.096 0.328,2.096c1.246,0.431 2.008,0.647 2.288,0.647l0.72,-3.135h-0.064c-0.711,0.042 -1.801,0.173 -3.272,0.392z" data-paper-data="{&quot;origPos&quot;:null}" fill="#2a70c3"/><path d="M172.368,148.43106c0.037,0.055 0.207,1.72 0.511,4.995c2.345,-0.717 3.594,-1.076 3.746,-1.076l2.324,1.586c-0.377,3.464 -0.623,5.487 -0.738,6.071l-3.227,0.109c0,-0.036 -0.021,-0.055 -0.064,-0.055l0.064,-0.228c0,-0.492 0.073,-1.987 0.219,-4.484c-0.887,-0.036 -1.547,-0.055 -1.978,-0.055h-0.228c0.261,2.777 0.392,4.29 0.392,4.539l-3.062,0.456c-0.116,-0.389 -0.796,-4.019 -2.042,-10.892c0,-0.194 0.474,-0.346 1.422,-0.456c1.197,-0.34 2.084,-0.51 2.661,-0.51z" data-paper-data="{&quot;origPos&quot;:null}" fill="#2a70c3"/><path d="M181.064,147.52906l3.582,0.565c-0.45,1.719 -0.745,2.579 -0.885,2.579c-1.883,-0.127 -2.825,-0.252 -2.825,-0.373v-2.644c0.018,-0.085 0.061,-0.127 0.128,-0.127zM180.061,151.86707h0.055c2.77,0.505 4.156,0.799 4.156,0.884c-0.796,4.509 -1.279,7.022 -1.449,7.538h-2.89c-0.085,0 -0.127,-0.042 -0.127,-0.127z" data-paper-data="{&quot;origPos&quot;:null}" fill="#2a70c3"/><path d="M191.746,151.21108c2.582,0.067 3.873,0.179 3.873,0.337c0.444,6.727 0.666,10.306 0.666,10.737c-1.957,1.246 -3.357,2.091 -4.202,2.534c-2.977,-0.936 -4.466,-1.47 -4.466,-1.604c0.96,-1.404 1.516,-2.115 1.668,-2.133c1.622,0.802 2.555,1.203 2.798,1.203l0.866,-1.139c-0.231,-0.942 -0.386,-1.498 -0.465,-1.668c-0.134,0 -1.78,0.267 -4.94,0.802c-1.732,-2.813 -2.598,-4.256 -2.598,-4.329c1.495,-2.388 2.407,-3.789 2.735,-4.202h0.063c0.177,0 1.489,0.288 3.938,0.866v-0.201c0,-0.237 -0.021,-0.617 -0.064,-1.139zM188.756,155.13906c0.085,0.189 0.353,1.191 0.802,3.008c0.565,-0.182 1.431,-0.516 2.598,-1.002c-0.225,-1.094 -0.337,-1.717 -0.337,-1.869l-0.328,-0.064h-0.401c-0.511,0 -1.289,-0.024 -2.334,-0.073z" data-paper-data="{&quot;origPos&quot;:null}" fill="#2a70c3"/><path d="M201.353,148.43106c0.036,0.055 0.206,1.72 0.51,4.995c2.345,-0.717 3.594,-1.076 3.746,-1.076l2.324,1.586c-0.376,3.464 -0.623,5.487 -0.738,6.071l-3.227,0.109c0,-0.036 -0.021,-0.055 -0.063,-0.055l0.063,-0.228c0,-0.492 0.073,-1.987 0.219,-4.484c-0.887,-0.036 -1.546,-0.055 -1.978,-0.055h-0.228c0.262,2.777 0.392,4.29 0.392,4.539l-3.062,0.456c-0.116,-0.389 -0.796,-4.019 -2.042,-10.892c0,-0.194 0.474,-0.346 1.422,-0.456c1.197,-0.34 2.084,-0.51 2.662,-0.51z" data-paper-data="{&quot;origPos&quot;:null}" fill="#2a70c3"/><path d="M213.958,151.19306c2.753,1.416 4.278,2.242 4.576,2.479c-0.395,1.847 -0.629,2.798 -0.702,2.853h-5.761v0.1l1.614,1.996l2.533,-1.294c0.25,0.431 0.608,1.185 1.076,2.26c-0.219,0.073 -1.814,0.307 -4.785,0.702c-2.461,-1.622 -3.701,-2.467 -3.719,-2.534c0.395,-3.153 0.629,-4.73 0.702,-4.73c2.57,-1.094 4.059,-1.705 4.466,-1.832zM213.366,153.39906c-0.049,0.121 -0.371,0.604 -0.967,1.449c0,0.255 0.359,0.383 1.076,0.383c0,0.036 0.519,0.124 1.559,0.264c0.285,-0.395 0.428,-0.626 0.428,-0.693c-0.091,-0.541 -0.289,-0.811 -0.593,-0.811z" data-paper-data="{&quot;origPos&quot;:null}" fill="#2a70c3"/><path d="M225.907,151.18406c1.203,0.674 1.942,1.112 2.215,1.312c-0.984,2.048 -1.513,3.09 -1.586,3.126h-0.064l-1.303,-1.139l-1.54,1.878l0.173,3.418c-0.079,0.073 -1.085,0.243 -3.017,0.51c-0.073,-0.522 -0.547,-3.084 -1.422,-7.683c0,-0.073 1.27,-0.262 3.81,-0.566c0.042,0.049 0.158,0.617 0.346,1.705c1.519,-1.708 2.315,-2.561 2.388,-2.561z" data-paper-data="{&quot;origPos&quot;:null}" fill="#2a70c3"/><path d="M236.198,148.43106l4.01,0.711l-0.383,3.044c0.796,-0.042 1.38,-0.064 1.75,-0.064h0.584l0.127,-0.063l0.064,0.127c-0.128,1.848 -0.237,2.887 -0.328,3.117l-0.128,-0.072c-0.091,0 -0.911,-0.043 -2.461,-0.128c-0.085,1.428 -0.149,3.135 -0.191,5.122l-0.128,0.064c-1.956,-0.127 -3.123,-0.237 -3.5,-0.328l0.064,-0.255c0,-0.529 0.085,-2.169 0.255,-4.922c-1.64,-0.091 -2.461,-0.201 -2.461,-0.328c0.085,-2.03 0.195,-3.044 0.328,-3.044l2.398,0.455v-0.784c0,-0.638 -0.025,-1.5 -0.073,-2.588c0.048,0 0.073,-0.021 0.073,-0.064z" data-paper-data="{&quot;origPos&quot;:null}" fill="#000000"/><path d="M247.399,148.43106c0.037,0.055 0.207,1.72 0.511,4.995c2.345,-0.717 3.594,-1.076 3.746,-1.076l2.324,1.586c-0.377,3.464 -0.623,5.487 -0.738,6.071l-3.227,0.109c0,-0.036 -0.021,-0.055 -0.063,-0.055l0.063,-0.228c0,-0.492 0.073,-1.987 0.219,-4.484c-0.887,-0.036 -1.546,-0.055 -1.978,-0.055h-0.228c0.262,2.777 0.392,4.29 0.392,4.539l-3.062,0.456c-0.116,-0.389 -0.796,-4.019 -2.042,-10.892c0,-0.194 0.474,-0.346 1.422,-0.456c1.197,-0.34 2.084,-0.51 2.661,-0.51z" data-paper-data="{&quot;origPos&quot;:null}" fill="#000000"/><path d="M256.222,151.18406c3.61,0.498 5.414,0.805 5.414,0.92c1.422,1.222 2.133,1.875 2.133,1.96c-0.577,1.805 -0.905,2.901 -0.984,3.29c0.577,1.282 0.905,2.048 0.984,2.297c0,0.073 -0.942,0.267 -2.825,0.583c-0.025,-0.103 -0.198,-0.334 -0.52,-0.692c-2.601,0.498 -4.001,0.747 -4.202,0.747l-1.385,-3.746l3.053,-1.613c0.492,0.079 1.261,0.118 2.306,0.118c0,-0.133 0.019,-0.537 0.055,-1.212c-0.176,0 -1.75,0.115 -4.721,0.346l-0.055,-0.118c0.413,-1.92 0.662,-2.88 0.747,-2.88zM258.118,156.54306c0,0.067 0.195,0.778 0.583,2.133h0.055c0.766,-0.498 1.149,-0.827 1.149,-0.985l0.118,-0.975c-0.146,0 -0.781,-0.057 -1.905,-0.173z" data-paper-data="{&quot;origPos&quot;:null}" fill="#000000"/><path d="M272.738,151.18406l3.035,2.087c-0.213,3.463 -0.361,5.487 -0.446,6.07c-0.353,0.043 -1.425,0.107 -3.218,0.192l-0.064,-0.128l-0.319,-4.867l-0.127,-0.064c-1.161,0.249 -1.96,0.438 -2.397,0.565c0.121,2.072 0.182,3.57 0.182,4.494c-1.811,0.504 -2.801,0.756 -2.972,0.756c-1.178,-5.189 -1.768,-7.93 -1.768,-8.221c2.564,-0.334 3.956,-0.502 4.175,-0.502v0.064c0.042,0.031 0.106,0.663 0.191,1.896c2.352,-1.562 3.594,-2.342 3.728,-2.342z" data-paper-data="{&quot;origPos&quot;:null}" fill="#000000"/><path d="M285.498,151.20206c0.085,0.012 0.128,0.055 0.128,0.128l-0.948,5.25c1.811,-0.213 2.716,-0.383 2.716,-0.511c0.34,-2.102 0.574,-3.281 0.702,-3.536c2.242,0.461 3.485,0.735 3.728,0.82c-1.307,4.49 -2.024,6.83 -2.151,7.018c-2.285,1.604 -3.57,2.492 -3.856,2.662c-0.085,0 -1.54,-0.359 -4.365,-1.076v-0.064c0.747,-1.646 1.212,-2.47 1.394,-2.47l2.78,1.395l1.331,-2.279c-1.197,0.298 -1.893,0.447 -2.088,0.447l-3.545,-1.841c0.431,-3.962 0.705,-5.943 0.82,-5.943z" data-paper-data="{&quot;origPos&quot;:null}" fill="#000000"/><path d="M296.39,151.19306c2.309,0.62 3.534,0.996 3.673,1.13c1.27,1.799 1.984,2.835 2.142,3.108c-0.82,2.601 -1.291,3.901 -1.412,3.901c-2.735,0.638 -4.166,0.957 -4.293,0.957c-2.261,-1.318 -3.464,-2.054 -3.61,-2.206c-0.079,-2.454 -0.118,-3.809 -0.118,-4.065c-0.037,-0.073 -0.055,-0.127 -0.055,-0.164c2.333,-1.774 3.54,-2.661 3.619,-2.661zM296.162,154.52906c-0.036,0.243 -0.091,1.127 -0.164,2.652l2.033,0.456c0.486,-1.519 0.729,-2.33 0.729,-2.434c-1.616,-0.486 -2.482,-0.729 -2.598,-0.729z" data-paper-data="{&quot;origPos&quot;:null}" fill="#000000"/><path d="M307.957,151.18406l0.064,0.118l-1.231,6.526h0.064l3.135,-0.92v-3.692c0.012,-0.085 0.052,-0.127 0.119,-0.127c2.357,0.164 3.67,0.246 3.937,0.246c0,0.042 0.022,0.064 0.064,0.064c0,1.039 -0.328,3.193 -0.984,6.462c0,0.188 -0.942,0.331 -2.826,0.428c-0.097,-0.115 -0.179,-0.361 -0.246,-0.738c-2.412,0.492 -3.789,0.738 -4.129,0.738c-1.926,-1.434 -2.889,-2.172 -2.889,-2.215c0.328,-4.308 0.535,-6.544 0.62,-6.708h0.054c1.538,-0.043 2.953,-0.103 4.248,-0.182z" data-paper-data="{&quot;origPos&quot;:null}" fill="#000000"/><path d="M322.385,148.43106l4.011,0.711l-0.383,3.044c0.796,-0.042 1.379,-0.064 1.75,-0.064h0.583l0.128,-0.063l0.063,0.127c-0.127,1.848 -0.237,2.887 -0.328,3.117l-0.127,-0.072c-0.091,0 -0.912,-0.043 -2.461,-0.128c-0.085,1.428 -0.149,3.135 -0.192,5.122l-0.127,0.064c-1.957,-0.127 -3.123,-0.237 -3.5,-0.328l0.064,-0.255c0,-0.529 0.085,-2.169 0.255,-4.922c-1.641,-0.091 -2.461,-0.201 -2.461,-0.328c0.085,-2.03 0.194,-3.044 0.328,-3.044l2.397,0.455v-0.784c0,-0.638 -0.024,-1.5 -0.073,-2.588c0.049,0 0.073,-0.021 0.073,-0.064z" data-paper-data="{&quot;origPos&quot;:null}" fill="#000000"/><path d="M333.587,148.43106c0.036,0.055 0.207,1.72 0.51,4.995c2.346,-0.717 3.595,-1.076 3.746,-1.076l2.325,1.586c-0.377,3.464 -0.623,5.487 -0.739,6.071l-3.226,0.109c0,-0.036 -0.021,-0.055 -0.064,-0.055l0.064,-0.228c0,-0.492 0.073,-1.987 0.219,-4.484c-0.888,-0.036 -1.547,-0.055 -1.978,-0.055h-0.228c0.261,2.777 0.392,4.29 0.392,4.539l-3.063,0.456c-0.115,-0.389 -0.796,-4.019 -2.041,-10.892c0,-0.194 0.474,-0.346 1.421,-0.456c1.198,-0.34 2.085,-0.51 2.662,-0.51z" data-paper-data="{&quot;origPos&quot;:null}" fill="#000000"/><path d="M342.282,147.52906l3.582,0.565c-0.449,1.719 -0.744,2.579 -0.884,2.579c-1.884,-0.127 -2.825,-0.252 -2.825,-0.373v-2.644c0.018,-0.085 0.06,-0.127 0.127,-0.127zM341.28,151.86707h0.054c2.771,0.505 4.157,0.799 4.157,0.884c-0.796,4.509 -1.279,7.022 -1.45,7.538h-2.889c-0.085,0 -0.128,-0.042 -0.128,-0.127z" data-paper-data="{&quot;origPos&quot;:null}" fill="#000000"/><path d="M354.259,151.18406l3.035,2.087c-0.213,3.463 -0.362,5.487 -0.447,6.07c-0.352,0.043 -1.425,0.107 -3.217,0.192l-0.064,-0.128l-0.319,-4.867l-0.128,-0.064c-1.16,0.249 -1.959,0.438 -2.397,0.565c0.122,2.072 0.183,3.57 0.183,4.494c-1.811,0.504 -2.802,0.756 -2.972,0.756c-1.179,-5.189 -1.768,-7.93 -1.768,-8.221c2.564,-0.334 3.956,-0.502 4.175,-0.502v0.064c0.042,0.031 0.106,0.663 0.191,1.896c2.352,-1.562 3.594,-2.342 3.728,-2.342z" data-paper-data="{&quot;origPos&quot;:null}" fill="#000000"/><path d="M362.216,148.43106c0.085,0.243 0.276,1.966 0.574,5.168l2.734,-3.062h0.064c0.426,0.352 1.212,1.096 2.361,2.233v0.063l-2.616,2.161c1.969,1.318 3.011,2.063 3.126,2.233c-1.239,1.379 -1.984,2.166 -2.233,2.36l-3.181,-2.935c0.128,1.313 0.192,2.291 0.192,2.935c-0.152,0.085 -1.279,0.319 -3.382,0.702c-0.17,-0.851 -0.723,-4.505 -1.659,-10.965c0.389,-0.127 1.729,-0.425 4.02,-0.893z" data-paper-data="{&quot;origPos&quot;:null}" fill="#000000"/><path d="M373.254,148.76806l0.036,0.073c-0.608,5.366 -0.948,8.185 -1.021,8.459c-1.288,-0.122 -2.102,-0.207 -2.442,-0.256v-0.036l-0.584,-7.62c0.146,-0.049 1.483,-0.255 4.011,-0.62zM369.644,157.48206c0.043,0.024 0.991,0.097 2.844,0.219l0.037,0.073c-0.286,1.677 -0.468,2.515 -0.547,2.515h-2.115c-0.073,0 -0.17,-0.838 -0.292,-2.515c-0.024,0 -0.036,-0.073 -0.036,-0.219c0.073,-0.025 0.109,-0.049 0.109,-0.073z" data-paper-data="{&quot;origPos&quot;:null}" fill="#000000"/><path d="M391.528,148.43106l0.055,0.119c-0.158,2.321 -0.276,3.481 -0.355,3.481h-0.055c-2.51,-0.2 -3.907,-0.319 -4.193,-0.355v8.085c0,0.145 -0.571,0.243 -1.713,0.291c0,0.043 -0.648,0.122 -1.942,0.237l-0.064,-0.118c0.28,-4.825 0.459,-7.675 0.538,-8.55c-0.96,0.152 -2.376,0.347 -4.247,0.584c-0.553,-2.066 -0.83,-3.127 -0.83,-3.181c0,-0.079 4.269,-0.277 12.806,-0.593z" data-paper-data="{&quot;origPos&quot;:null}" fill="#000000"/><path d="M399.048,151.18406c1.203,0.674 1.941,1.112 2.215,1.312c-0.985,2.048 -1.513,3.09 -1.586,3.126h-0.064l-1.303,-1.139l-1.541,1.878l0.173,3.418c-0.079,0.073 -1.084,0.243 -3.017,0.51c-0.072,-0.522 -0.546,-3.084 -1.421,-7.683c0,-0.073 1.27,-0.262 3.809,-0.566c0.043,0.049 0.158,0.617 0.347,1.705c1.519,-1.708 2.315,-2.561 2.388,-2.561z" data-paper-data="{&quot;origPos&quot;:null}" fill="#000000"/><path d="M406.175,151.20206c0.086,0.012 0.128,0.055 0.128,0.128l-0.948,5.25c1.811,-0.213 2.716,-0.383 2.716,-0.511c0.341,-2.102 0.575,-3.281 0.702,-3.536c2.242,0.461 3.485,0.735 3.728,0.82c-1.306,4.49 -2.023,6.83 -2.151,7.018c-2.285,1.604 -3.57,2.492 -3.856,2.662c-0.085,0 -1.54,-0.359 -4.365,-1.076v-0.064c0.747,-1.646 1.212,-2.47 1.394,-2.47l2.78,1.395l1.331,-2.279c-1.197,0.298 -1.893,0.447 -2.087,0.447l-3.546,-1.841c0.431,-3.962 0.705,-5.943 0.82,-5.943z" data-paper-data="{&quot;origPos&quot;:null}" fill="#000000"/><path d="M36.233,171.76408c0.036,0.055 0.206,1.72 0.51,4.995c2.346,-0.717 3.594,-1.075 3.746,-1.075l2.325,1.586c-0.377,3.463 -0.623,5.487 -0.739,6.07l-3.226,0.109c0,-0.036 -0.022,-0.054 -0.064,-0.054l0.064,-0.228c0,-0.492 0.073,-1.987 0.218,-4.485c-0.887,-0.036 -1.546,-0.054 -1.977,-0.054h-0.228c0.261,2.777 0.392,4.29 0.392,4.539l-3.063,0.455c-0.115,-0.388 -0.796,-4.019 -2.042,-10.891c0,-0.195 0.474,-0.347 1.422,-0.456c1.197,-0.34 2.085,-0.511 2.662,-0.511z" data-paper-data="{&quot;origPos&quot;:null}" fill="#2a70c3"/><path d="M47.343,174.52608c2.309,0.62 3.534,0.997 3.674,1.13c1.27,1.799 1.984,2.835 2.142,3.108c-0.821,2.601 -1.292,3.901 -1.413,3.901c-2.735,0.638 -4.166,0.957 -4.293,0.957c-2.261,-1.318 -3.464,-2.053 -3.61,-2.205c-0.079,-2.455 -0.118,-3.81 -0.118,-4.065c-0.036,-0.073 -0.055,-0.128 -0.055,-0.164c2.334,-1.775 3.54,-2.662 3.619,-2.662zM47.116,177.86207c-0.037,0.243 -0.092,1.127 -0.164,2.652l2.032,0.456c0.523,-1.519 0.784,-2.33 0.784,-2.433c-1.616,-0.487 -2.482,-0.73 -2.598,-0.73z" data-paper-data="{&quot;origPos&quot;:null}" fill="#2a70c3"/><path d="M53.988,171.77406c1.859,0.036 3.224,0.054 4.092,0.054c0.079,0 0.319,3.731 0.72,11.193c-0.309,0.079 -1.391,0.279 -3.244,0.601c-0.091,0 -0.392,-2.284 -0.903,-6.854c-0.042,-0.109 -0.264,-1.774 -0.665,-4.994z" data-paper-data="{&quot;origPos&quot;:null}" fill="#2a70c3"/><path d="M65.336,171.75506h0.054c2.747,0.231 4.12,0.41 4.12,0.538l1.212,10.728c0,0.079 -1.212,0.279 -3.636,0.601l-0.055,-0.118v-0.975c-2.09,0.565 -3.524,0.929 -4.302,1.093c-1.847,-2.612 -2.817,-4.004 -2.908,-4.174c1.361,-2.473 2.088,-3.725 2.179,-3.755l3.819,0.182c-0.079,-0.468 -0.24,-1.841 -0.483,-4.12zM63.64,178.29007c0.614,1.878 0.997,2.908 1.149,3.09l1.814,-1.577c-0.189,-1.087 -0.329,-1.631 -0.42,-1.631h-2.424c-0.079,0.012 -0.119,0.052 -0.119,0.118z" data-paper-data="{&quot;origPos&quot;:null}" fill="#2a70c3"/><path d="M72.928,170.86207l3.582,0.565c-0.45,1.72 -0.744,2.58 -0.884,2.58c-1.884,-0.128 -2.826,-0.253 -2.826,-0.374v-2.643c0.019,-0.085 0.061,-0.128 0.128,-0.128zM71.925,175.20107h0.055c2.771,0.504 4.156,0.799 4.156,0.884c-0.796,4.508 -1.279,7.021 -1.449,7.537h-2.889c-0.085,0 -0.128,-0.042 -0.128,-0.127z" data-paper-data="{&quot;origPos&quot;:null}" fill="#2a70c3"/><path d="M84.905,174.51706l3.035,2.087c-0.213,3.464 -0.362,5.487 -0.447,6.071c-0.352,0.042 -1.425,0.106 -3.217,0.191l-0.064,-0.128l-0.319,-4.867l-0.128,-0.064c-1.16,0.25 -1.959,0.438 -2.397,0.565c0.122,2.073 0.182,3.57 0.182,4.494c-1.81,0.504 -2.801,0.756 -2.971,0.756c-1.179,-5.189 -1.768,-7.929 -1.768,-8.221c2.564,-0.334 3.956,-0.501 4.174,-0.501v0.064c0.043,0.03 0.107,0.662 0.192,1.895c2.351,-1.561 3.594,-2.342 3.728,-2.342z" data-paper-data="{&quot;origPos&quot;:null}" fill="#2a70c3"/><path d="M95.642,174.54408c2.582,0.067 3.873,0.18 3.873,0.338c0.444,6.726 0.666,10.305 0.666,10.737c-1.957,1.245 -3.358,2.09 -4.202,2.533c-2.978,-0.935 -4.466,-1.47 -4.466,-1.604c0.96,-1.403 1.516,-2.114 1.668,-2.133c1.622,0.803 2.555,1.204 2.798,1.204l0.866,-1.14c-0.231,-0.942 -0.386,-1.498 -0.465,-1.668c-0.134,0 -1.78,0.268 -4.94,0.802c-1.732,-2.813 -2.598,-4.256 -2.598,-4.329c1.495,-2.388 2.406,-3.789 2.735,-4.202h0.063c0.177,0 1.489,0.289 3.938,0.866v-0.201c0,-0.236 -0.021,-0.616 -0.064,-1.139zM92.652,178.47308c0.085,0.188 0.352,1.191 0.802,3.008c0.565,-0.183 1.431,-0.517 2.598,-1.003c-0.225,-1.094 -0.337,-1.717 -0.337,-1.869l-0.329,-0.063h-0.401c-0.51,0 -1.288,-0.025 -2.333,-0.073z" data-paper-data="{&quot;origPos&quot;:null}" fill="#2a70c3"/><path d="M110.717,174.51706l0.064,0.119l-1.231,6.526h0.064l3.136,-0.921v-3.691c0.012,-0.086 0.051,-0.128 0.118,-0.128c2.358,0.164 3.67,0.246 3.938,0.246c0,0.043 0.021,0.064 0.063,0.064c0,1.039 -0.328,3.193 -0.984,6.462c0,0.188 -0.942,0.331 -2.825,0.428c-0.098,-0.115 -0.18,-0.361 -0.247,-0.738c-2.412,0.492 -3.788,0.738 -4.128,0.738c-1.927,-1.434 -2.89,-2.172 -2.89,-2.214c0.328,-4.309 0.535,-6.545 0.62,-6.709h0.055c1.537,-0.042 2.953,-0.103 4.247,-0.182z" data-paper-data="{&quot;origPos&quot;:null}" fill="#2a70c3"/><path d="M122.366,174.52608c0.188,0.778 0.319,1.258 0.392,1.44c2.685,-0.613 4.104,-0.92 4.256,-0.92c1.829,2.631 2.744,4.004 2.744,4.119l-2.097,4.448l-4.512,-0.72v0.137c0.353,2.704 0.529,4.141 0.529,4.311c-0.042,0 -0.064,0.021 -0.064,0.064c-0.437,-0.043 -0.765,-0.064 -0.984,-0.064h-0.784c-0.456,0 -1.154,-0.021 -2.096,-0.064c-0.085,-0.255 -0.739,-4.135 -1.96,-11.639c0.207,-0.085 1.732,-0.456 4.576,-1.112zM122.694,178.25407c0.121,1.398 0.231,2.096 0.328,2.096c1.246,0.432 2.008,0.647 2.288,0.647l0.72,-3.135h-0.064c-0.711,0.043 -1.802,0.173 -3.272,0.392z" data-paper-data="{&quot;origPos&quot;:null}" fill="#2a70c3"/><path d="M136.712,174.51706c3.609,0.498 5.414,0.805 5.414,0.921c1.422,1.221 2.133,1.874 2.133,1.959c-0.577,1.805 -0.906,2.902 -0.985,3.291c0.578,1.282 0.906,2.047 0.985,2.296c0,0.073 -0.942,0.268 -2.826,0.584c-0.024,-0.104 -0.197,-0.334 -0.519,-0.693c-2.601,0.498 -4.002,0.747 -4.202,0.747l-1.385,-3.746l3.053,-1.613c0.492,0.079 1.261,0.119 2.306,0.119c0,-0.134 0.018,-0.538 0.055,-1.213c-0.177,0 -1.75,0.116 -4.722,0.347l-0.054,-0.119c0.413,-1.92 0.662,-2.88 0.747,-2.88zM138.608,179.87608c0,0.067 0.194,0.778 0.583,2.133h0.055c0.765,-0.498 1.148,-0.826 1.148,-0.984l0.119,-0.975c-0.146,0 -0.781,-0.058 -1.905,-0.174z" data-paper-data="{&quot;origPos&quot;:null}" fill="#2a70c3"/><path d="M151.678,174.51706c1.203,0.674 1.941,1.112 2.215,1.313c-0.984,2.047 -1.513,3.089 -1.586,3.126h-0.064l-1.303,-1.14l-1.541,1.878l0.174,3.418c-0.079,0.073 -1.085,0.243 -3.017,0.51c-0.073,-0.522 -0.547,-3.083 -1.422,-7.683c0,-0.073 1.27,-0.261 3.81,-0.565c0.042,0.048 0.158,0.617 0.346,1.704c1.519,-1.707 2.315,-2.561 2.388,-2.561z" data-paper-data="{&quot;origPos&quot;:null}" fill="#2a70c3"/><path d="M161.157,174.51706c1.203,0.674 1.942,1.112 2.215,1.313c-0.984,2.047 -1.513,3.089 -1.586,3.126h-0.064l-1.303,-1.14l-1.54,1.878l0.173,3.418c-0.079,0.073 -1.085,0.243 -3.017,0.51c-0.073,-0.522 -0.547,-3.083 -1.422,-7.683c0,-0.073 1.27,-0.261 3.81,-0.565c0.042,0.048 0.158,0.617 0.346,1.704c1.519,-1.707 2.315,-2.561 2.388,-2.561z" data-paper-data="{&quot;origPos&quot;:null}" fill="#2a70c3"/><path d="M167.765,174.52608c2.309,0.62 3.534,0.997 3.674,1.13c1.269,1.799 1.983,2.835 2.141,3.108c-0.82,2.601 -1.291,3.901 -1.412,3.901c-2.735,0.638 -4.166,0.957 -4.293,0.957c-2.261,-1.318 -3.464,-2.053 -3.61,-2.205c-0.079,-2.455 -0.118,-3.81 -0.118,-4.065c-0.037,-0.073 -0.055,-0.128 -0.055,-0.164c2.333,-1.775 3.54,-2.662 3.619,-2.662zM167.537,177.86207c-0.036,0.243 -0.091,1.127 -0.164,2.652l2.033,0.456c0.486,-1.519 0.729,-2.33 0.729,-2.433c-1.616,-0.487 -2.482,-0.73 -2.598,-0.73z" data-paper-data="{&quot;origPos&quot;:null}" fill="#2a70c3"/><path d="M178.411,174.51706c0.079,0.103 0.489,1.865 1.231,5.286h0.063c0,-0.079 0.45,-0.774 1.349,-2.087c0.377,0.255 1.094,0.808 2.151,1.659h0.128v-0.064c0.164,-2.37 0.286,-3.682 0.365,-3.937c2.503,0.127 3.755,0.231 3.755,0.31c-1.149,4.618 -1.762,7.018 -1.841,7.2c-0.383,0.043 -1.185,0.164 -2.407,0.365c-1.002,-1.574 -1.576,-2.413 -1.722,-2.516c-0.656,1.75 -1.067,2.713 -1.231,2.889h-2.461c-0.152,-0.048 -0.869,-1.628 -2.151,-4.739c-0.82,-1.738 -1.23,-2.68 -1.23,-2.826c0,-0.133 1.334,-0.647 4.001,-1.54z" data-paper-data="{&quot;origPos&quot;:null}" fill="#2a70c3"/><path d="M196.75,174.52608c2.309,0.62 3.533,0.997 3.673,1.13c1.27,1.799 1.984,2.835 2.142,3.108c-0.821,2.601 -1.291,3.901 -1.413,3.901c-2.734,0.638 -4.165,0.957 -4.293,0.957c-2.26,-1.318 -3.463,-2.053 -3.609,-2.205c-0.079,-2.455 -0.119,-3.81 -0.119,-4.065c-0.036,-0.073 -0.054,-0.128 -0.054,-0.164c2.333,-1.775 3.539,-2.662 3.618,-2.662zM196.522,177.86207c-0.037,0.243 -0.091,1.127 -0.164,2.652l2.032,0.456c0.486,-1.519 0.729,-2.33 0.729,-2.433c-1.616,-0.487 -2.482,-0.73 -2.597,-0.73z" data-paper-data="{&quot;origPos&quot;:null}" fill="#2a70c3"/><path d="M209.938,174.51706c1.204,0.674 1.942,1.112 2.215,1.313c-0.984,2.047 -1.513,3.089 -1.586,3.126h-0.063l-1.304,-1.14l-1.54,1.878l0.173,3.418c-0.079,0.073 -1.085,0.243 -3.017,0.51c-0.073,-0.522 -0.547,-3.083 -1.422,-7.683c0,-0.073 1.27,-0.261 3.81,-0.565c0.043,0.048 0.158,0.617 0.346,1.704c1.52,-1.707 2.316,-2.561 2.388,-2.561z" data-paper-data="{&quot;origPos&quot;:null}" fill="#2a70c3"/><path d="M222.362,171.77406l0.063,0.118l0.474,6.927h0.055l2.488,-2.607c1.465,1.975 2.215,2.963 2.252,2.963c0.632,-3.093 1.027,-4.95 1.185,-5.569c2.685,0.516 4.028,0.832 4.028,0.947c-1.616,5.135 -2.543,8.04 -2.78,8.714c-0.571,0.036 -1.835,0.155 -3.791,0.355c-0.869,-2.078 -1.304,-3.144 -1.304,-3.199c-0.073,0.006 -0.528,0.915 -1.367,2.726h-0.055c-2.606,-0.177 -3.91,-0.335 -3.91,-0.474c-1.464,-6.46 -2.196,-9.777 -2.196,-9.954v-0.118c0,-0.122 1.619,-0.398 4.858,-0.829z" data-paper-data="{&quot;origPos&quot;:null}" fill="#2a70c3"/><path d="M235.177,181.65406c1.653,0.194 2.482,0.304 2.488,0.328c-1.003,2.357 -1.565,3.597 -1.686,3.719c-0.827,-0.104 -1.24,-0.189 -1.24,-0.256c0.219,-2.527 0.353,-3.791 0.401,-3.791z" data-paper-data="{&quot;origPos&quot;:null}" fill="#000000"/><path d="M246.333,171.76408l4.01,0.711l-0.382,3.045c0.796,-0.043 1.379,-0.064 1.75,-0.064h0.583l0.128,-0.064l0.063,0.128c-0.127,1.847 -0.237,2.886 -0.328,3.117l-0.127,-0.073c-0.092,0 -0.912,-0.043 -2.461,-0.128c-0.085,1.428 -0.149,3.136 -0.192,5.123l-0.127,0.063c-1.957,-0.127 -3.124,-0.236 -3.5,-0.328l0.063,-0.255c0,-0.528 0.086,-2.169 0.256,-4.922c-1.641,-0.091 -2.461,-0.2 -2.461,-0.328c0.085,-2.029 0.194,-3.044 0.328,-3.044l2.397,0.456v-0.784c0,-0.638 -0.024,-1.501 -0.073,-2.589c0.049,0 0.073,-0.021 0.073,-0.064z" data-paper-data="{&quot;origPos&quot;:null}" fill="#000000"/><path d="M257.535,171.76408c0.036,0.055 0.206,1.72 0.51,4.995c2.346,-0.717 3.594,-1.075 3.746,-1.075l2.325,1.586c-0.377,3.463 -0.623,5.487 -0.739,6.07l-3.226,0.109c0,-0.036 -0.022,-0.054 -0.064,-0.054l0.064,-0.228c0,-0.492 0.073,-1.987 0.218,-4.485c-0.887,-0.036 -1.546,-0.054 -1.977,-0.054h-0.228c0.261,2.777 0.392,4.29 0.392,4.539l-3.063,0.455c-0.115,-0.388 -0.796,-4.019 -2.041,-10.891c0,-0.195 0.473,-0.347 1.421,-0.456c1.197,-0.34 2.085,-0.511 2.662,-0.511z" data-paper-data="{&quot;origPos&quot;:null}" fill="#000000"/><path d="M270.14,174.52608c2.753,1.416 4.278,2.242 4.576,2.479c-0.395,1.848 -0.629,2.798 -0.702,2.853h-5.76v0.1l1.613,1.997l2.534,-1.295c0.249,0.432 0.607,1.185 1.075,2.261c-0.218,0.073 -1.814,0.307 -4.785,0.701c-2.461,-1.622 -3.7,-2.467 -3.719,-2.533c0.395,-3.154 0.629,-4.731 0.702,-4.731c2.57,-1.094 4.059,-1.704 4.466,-1.832zM269.548,176.73206c-0.049,0.121 -0.371,0.604 -0.966,1.449c0,0.255 0.358,0.383 1.075,0.383c0,0.036 0.52,0.124 1.559,0.264c0.285,-0.395 0.428,-0.626 0.428,-0.692c-0.091,-0.541 -0.288,-0.812 -0.592,-0.812z" data-paper-data="{&quot;origPos&quot;:null}" fill="#000000"/><path d="M283.639,174.51706l3.035,2.087c-0.213,3.464 -0.361,5.487 -0.446,6.071c-0.353,0.042 -1.425,0.106 -3.218,0.191l-0.064,-0.128l-0.319,-4.867l-0.127,-0.064c-1.161,0.25 -1.96,0.438 -2.397,0.565c0.121,2.073 0.182,3.57 0.182,4.494c-1.811,0.504 -2.801,0.756 -2.971,0.756c-1.179,-5.189 -1.769,-7.929 -1.769,-8.221c2.565,-0.334 3.956,-0.501 4.175,-0.501v0.064c0.042,0.03 0.106,0.662 0.191,1.895c2.352,-1.561 3.594,-2.342 3.728,-2.342z" data-paper-data="{&quot;origPos&quot;:null}" fill="#000000"/><path d="M297.721,171.75506h0.055c2.746,0.231 4.12,0.41 4.12,0.538l1.212,10.728c0,0.079 -1.212,0.279 -3.637,0.601l-0.055,-0.118v-0.975c-2.09,0.565 -3.524,0.929 -4.302,1.093c-1.847,-2.612 -2.816,-4.004 -2.907,-4.174c1.361,-2.473 2.087,-3.725 2.178,-3.755l3.819,0.182c-0.079,-0.468 -0.24,-1.841 -0.483,-4.12zM296.026,178.29007c0.613,1.878 0.996,2.908 1.148,3.09l1.814,-1.577c-0.188,-1.087 -0.328,-1.631 -0.419,-1.631h-2.425c-0.079,0.012 -0.118,0.052 -0.118,0.118z" data-paper-data="{&quot;origPos&quot;:null}" fill="#2a70c3"/><path d="M305.313,170.86207l3.583,0.565c-0.45,1.72 -0.745,2.58 -0.885,2.58c-1.883,-0.128 -2.825,-0.253 -2.825,-0.374v-2.643c0.018,-0.085 0.061,-0.128 0.127,-0.128zM304.311,175.20107h0.055c2.77,0.504 4.156,0.799 4.156,0.884c-0.796,4.508 -1.279,7.021 -1.449,7.537h-2.89c-0.085,0 -0.127,-0.042 -0.127,-0.127z" data-paper-data="{&quot;origPos&quot;:null}" fill="#2a70c3"/><path d="M312.742,174.51706c1.489,3.415 2.282,5.186 2.379,5.314c0.735,-2.789 1.163,-4.275 1.285,-4.457c2.321,0.212 3.482,0.395 3.482,0.547v0.063c-1.629,4.473 -2.504,6.815 -2.625,7.028c-1.799,0.328 -3.002,0.531 -3.61,0.61l-4.457,-6.598v-0.128c0.043,-0.079 1.225,-0.872 3.546,-2.379z" data-paper-data="{&quot;origPos&quot;:null}" fill="#2a70c3"/><path d="M322.121,170.86207l3.582,0.565c-0.45,1.72 -0.745,2.58 -0.884,2.58c-1.884,-0.128 -2.826,-0.253 -2.826,-0.374v-2.643c0.018,-0.085 0.061,-0.128 0.128,-0.128zM321.118,175.20107h0.055c2.771,0.504 4.156,0.799 4.156,0.884c-0.796,4.508 -1.279,7.021 -1.449,7.537h-2.889c-0.085,0 -0.128,-0.042 -0.128,-0.127z" data-paper-data="{&quot;origPos&quot;:null}" fill="#2a70c3"/><path d="M334.097,174.51706l3.035,2.087c-0.212,3.464 -0.361,5.487 -0.446,6.071c-0.353,0.042 -1.425,0.106 -3.218,0.191l-0.063,-0.128l-0.319,-4.867l-0.128,-0.064c-1.161,0.25 -1.96,0.438 -2.397,0.565c0.121,2.073 0.182,3.57 0.182,4.494c-1.811,0.504 -2.801,0.756 -2.971,0.756c-1.179,-5.189 -1.768,-7.929 -1.768,-8.221c2.564,-0.334 3.955,-0.501 4.174,-0.501v0.064c0.043,0.03 0.106,0.662 0.191,1.895c2.352,-1.561 3.595,-2.342 3.728,-2.342z" data-paper-data="{&quot;origPos&quot;:null}" fill="#2a70c3"/><path d="M344.834,174.54408c2.583,0.067 3.874,0.18 3.874,0.338c0.444,6.726 0.665,10.305 0.665,10.737c-1.956,1.245 -3.357,2.09 -4.201,2.533c-2.978,-0.935 -4.467,-1.47 -4.467,-1.604c0.96,-1.403 1.516,-2.114 1.668,-2.133c1.623,0.803 2.556,1.204 2.799,1.204l0.865,-1.14c-0.23,-0.942 -0.385,-1.498 -0.464,-1.668c-0.134,0 -1.781,0.268 -4.94,0.802c-1.732,-2.813 -2.598,-4.256 -2.598,-4.329c1.495,-2.388 2.406,-3.789 2.734,-4.202h0.064c0.176,0 1.489,0.289 3.938,0.866v-0.201c0,-0.236 -0.022,-0.616 -0.064,-1.139zM341.845,178.47308c0.085,0.188 0.352,1.191 0.802,3.008c0.565,-0.183 1.431,-0.517 2.597,-1.003c-0.224,-1.094 -0.337,-1.717 -0.337,-1.869l-0.328,-0.063h-0.401c-0.51,0 -1.288,-0.025 -2.333,-0.073z" data-paper-data="{&quot;origPos&quot;:null}" fill="#2a70c3"/><path d="M358.661,174.52608c2.309,0.62 3.534,0.997 3.673,1.13c1.27,1.799 1.984,2.835 2.142,3.108c-0.82,2.601 -1.291,3.901 -1.413,3.901c-2.734,0.638 -4.165,0.957 -4.292,0.957c-2.261,-1.318 -3.464,-2.053 -3.61,-2.205c-0.079,-2.455 -0.118,-3.81 -0.118,-4.065c-0.037,-0.073 -0.055,-0.128 -0.055,-0.164c2.333,-1.775 3.539,-2.662 3.618,-2.662zM358.433,177.86207c-0.036,0.243 -0.091,1.127 -0.164,2.652l2.033,0.456c0.486,-1.519 0.729,-2.33 0.729,-2.433c-1.616,-0.487 -2.482,-0.73 -2.598,-0.73z" data-paper-data="{&quot;origPos&quot;:null}" fill="#000000"/><path d="M373.399,174.51706l3.036,2.087c-0.213,3.464 -0.362,5.487 -0.447,6.071c-0.352,0.042 -1.425,0.106 -3.217,0.191l-0.064,-0.128l-0.319,-4.867l-0.128,-0.064c-1.16,0.25 -1.96,0.438 -2.397,0.565c0.122,2.073 0.182,3.57 0.182,4.494c-1.81,0.504 -2.801,0.756 -2.971,0.756c-1.179,-5.189 -1.768,-7.929 -1.768,-8.221c2.564,-0.334 3.955,-0.501 4.174,-0.501v0.064c0.043,0.03 0.107,0.662 0.192,1.895c2.351,-1.561 3.594,-2.342 3.727,-2.342z" data-paper-data="{&quot;origPos&quot;:null}" fill="#000000"/><path d="M380.062,171.76408l4.011,0.711l-0.383,3.045c0.796,-0.043 1.379,-0.064 1.75,-0.064h0.583l0.128,-0.064l0.064,0.128c-0.128,1.847 -0.237,2.886 -0.329,3.117l-0.127,-0.073c-0.091,0 -0.912,-0.043 -2.461,-0.128c-0.085,1.428 -0.149,3.136 -0.192,5.123l-0.127,0.063c-1.957,-0.127 -3.123,-0.236 -3.5,-0.328l0.064,-0.255c0,-0.528 0.085,-2.169 0.255,-4.922c-1.641,-0.091 -2.461,-0.2 -2.461,-0.328c0.085,-2.029 0.194,-3.044 0.328,-3.044l2.397,0.456v-0.784c0,-0.638 -0.024,-1.501 -0.073,-2.589c0.049,0 0.073,-0.021 0.073,-0.064z" data-paper-data="{&quot;origPos&quot;:null}" fill="#000000"/><path d="M390.854,174.52608c2.309,0.62 3.533,0.997 3.673,1.13c1.27,1.799 1.984,2.835 2.142,3.108c-0.82,2.601 -1.291,3.901 -1.413,3.901c-2.734,0.638 -4.165,0.957 -4.293,0.957c-2.26,-1.318 -3.463,-2.053 -3.609,-2.205c-0.079,-2.455 -0.119,-3.81 -0.119,-4.065c-0.036,-0.073 -0.054,-0.128 -0.054,-0.164c2.333,-1.775 3.539,-2.662 3.618,-2.662zM390.626,177.86207c-0.036,0.243 -0.091,1.127 -0.164,2.652l2.032,0.456c0.487,-1.519 0.73,-2.33 0.73,-2.433c-1.617,-0.487 -2.483,-0.73 -2.598,-0.73z" data-paper-data="{&quot;origPos&quot;:null}" fill="#000000"/><path d="M404.854,171.76408l4.01,0.711l-0.383,3.045c0.796,-0.043 1.38,-0.064 1.75,-0.064h0.584l0.127,-0.064l0.064,0.128c-0.127,1.847 -0.237,2.886 -0.328,3.117l-0.128,-0.073c-0.091,0 -0.911,-0.043 -2.46,-0.128c-0.086,1.428 -0.149,3.136 -0.192,5.123l-0.127,0.063c-1.957,-0.127 -3.124,-0.236 -3.5,-0.328l0.063,-0.255c0,-0.528 0.085,-2.169 0.256,-4.922c-1.641,-0.091 -2.461,-0.2 -2.461,-0.328c0.085,-2.029 0.194,-3.044 0.328,-3.044l2.397,0.456v-0.784c0,-0.638 -0.024,-1.501 -0.073,-2.589c0.049,0 0.073,-0.021 0.073,-0.064z" data-paper-data="{&quot;origPos&quot;:null}" fill="#000000"/><path d="M416.056,171.76408c0.036,0.055 0.206,1.72 0.51,4.995c2.346,-0.717 3.594,-1.075 3.746,-1.075l2.324,1.586c-0.376,3.463 -0.622,5.487 -0.738,6.07l-3.226,0.109c0,-0.036 -0.022,-0.054 -0.064,-0.054l0.064,-0.228c0,-0.492 0.072,-1.987 0.218,-4.485c-0.887,-0.036 -1.546,-0.054 -1.978,-0.054h-0.227c0.261,2.777 0.392,4.29 0.392,4.539l-3.063,0.455c-0.115,-0.388 -0.796,-4.019 -2.042,-10.891c0,-0.195 0.474,-0.347 1.422,-0.456c1.197,-0.34 2.084,-0.511 2.662,-0.511z" data-paper-data="{&quot;origPos&quot;:null}" fill="#000000"/><path d="M428.661,174.52608c2.753,1.416 4.278,2.242 4.576,2.479c-0.395,1.848 -0.629,2.798 -0.702,2.853h-5.761v0.1l1.614,1.997l2.534,-1.295c0.249,0.432 0.607,1.185 1.075,2.261c-0.219,0.073 -1.814,0.307 -4.785,0.701c-2.461,-1.622 -3.701,-2.467 -3.719,-2.533c0.395,-3.154 0.629,-4.731 0.702,-4.731c2.57,-1.094 4.059,-1.704 4.466,-1.832zM428.069,176.73206c-0.049,0.121 -0.371,0.604 -0.966,1.449c0,0.255 0.358,0.383 1.075,0.383c0,0.036 0.52,0.124 1.559,0.264c0.285,-0.395 0.428,-0.626 0.428,-0.692c-0.091,-0.541 -0.289,-0.812 -0.592,-0.812z" data-paper-data="{&quot;origPos&quot;:null}" fill="#000000"/><path d="M36.725,197.85908c0.188,0.778 0.319,1.258 0.392,1.441c2.686,-0.614 4.104,-0.921 4.256,-0.921c1.829,2.631 2.744,4.004 2.744,4.12l-2.096,4.448l-4.512,-0.72v0.136c0.352,2.704 0.528,4.141 0.528,4.312c-0.042,0 -0.063,0.021 -0.063,0.063c-0.438,-0.042 -0.766,-0.063 -0.985,-0.063h-0.784c-0.455,0 -1.154,-0.022 -2.096,-0.064c-0.085,-0.255 -0.738,-4.135 -1.96,-11.64c0.207,-0.085 1.732,-0.455 4.576,-1.112zM37.053,201.58708c0.122,1.398 0.231,2.097 0.328,2.097c1.246,0.431 2.008,0.647 2.288,0.647l0.72,-3.136h-0.064c-0.711,0.043 -1.801,0.174 -3.272,0.392z" data-paper-data="{&quot;origPos&quot;:null}" fill="#000000"/><path d="M45.056,195.10706c1.859,0.036 3.223,0.055 4.092,0.055c0.079,0 0.319,3.73 0.72,11.192c-0.31,0.079 -1.391,0.28 -3.245,0.602c-0.091,0 -0.392,-2.285 -0.902,-6.854c-0.042,-0.11 -0.264,-1.775 -0.665,-4.995z" data-paper-data="{&quot;origPos&quot;:null}" fill="#000000"/><path d="M52.274,197.85007c3.61,0.499 5.415,0.805 5.415,0.921c1.421,1.221 2.132,1.874 2.132,1.96c-0.577,1.804 -0.905,2.901 -0.984,3.29c0.577,1.282 0.905,2.048 0.984,2.297c0,0.073 -0.942,0.267 -2.825,0.583c-0.025,-0.103 -0.198,-0.334 -0.52,-0.693c-2.6,0.499 -4.001,0.748 -4.202,0.748l-1.385,-3.746l3.053,-1.614c0.493,0.079 1.261,0.119 2.306,0.119c0,-0.134 0.019,-0.538 0.055,-1.212c-0.176,0 -1.75,0.115 -4.721,0.346l-0.055,-0.118c0.413,-1.921 0.662,-2.881 0.747,-2.881zM54.17,203.21008c0,0.067 0.195,0.778 0.584,2.133h0.054c0.766,-0.499 1.149,-0.827 1.149,-0.985l0.118,-0.975c-0.146,0 -0.781,-0.058 -1.905,-0.173z" data-paper-data="{&quot;origPos&quot;:null}" fill="#000000"/><path d="M63.422,195.09808l4.01,0.711l-0.383,3.044c0.796,-0.043 1.38,-0.064 1.75,-0.064h0.584l0.127,-0.064l0.064,0.128c-0.128,1.847 -0.237,2.886 -0.328,3.117l-0.128,-0.073c-0.091,0 -0.911,-0.042 -2.461,-0.127c-0.085,1.428 -0.149,3.135 -0.191,5.122l-0.128,0.064c-1.956,-0.128 -3.123,-0.237 -3.5,-0.328l0.064,-0.256c0,-0.528 0.085,-2.169 0.255,-4.921c-1.64,-0.092 -2.461,-0.201 -2.461,-0.329c0.085,-2.029 0.195,-3.044 0.328,-3.044l2.398,0.456v-0.784c0,-0.638 -0.025,-1.501 -0.073,-2.588c0.048,0 0.073,-0.022 0.073,-0.064z" data-paper-data="{&quot;origPos&quot;:null}" fill="#000000"/><path d="M74.332,195.09808c0.322,0.036 1.495,0.307 3.518,0.811l0.055,0.109c-0.298,1.659 -0.477,2.489 -0.538,2.489h-0.055l-1.467,-0.757c0,0.17 -0.055,0.93 -0.164,2.279l2.005,-0.492c0.061,0.182 0.115,0.993 0.164,2.433c-0.194,0.073 -0.863,0.182 -2.005,0.328c0.255,1.094 0.525,2.431 0.811,4.011c-0.936,0.212 -2.054,0.428 -3.354,0.647l-0.055,-0.11c-0.17,-2.813 -0.313,-4.22 -0.428,-4.22c-1.179,0.286 -1.811,0.447 -1.896,0.483c-0.073,-0.352 -0.201,-1.309 -0.383,-2.871l0.109,-0.054h1.951c-0.109,-0.9 -0.273,-2.072 -0.492,-3.519z" data-paper-data="{&quot;origPos&quot;:null}" fill="#000000"/><path d="M82.416,197.85908c2.309,0.62 3.534,0.997 3.674,1.131c1.27,1.798 1.983,2.834 2.141,3.108c-0.82,2.6 -1.291,3.901 -1.412,3.901c-2.735,0.638 -4.166,0.957 -4.293,0.957c-2.261,-1.319 -3.464,-2.054 -3.61,-2.206c-0.079,-2.455 -0.118,-3.81 -0.118,-4.065c-0.037,-0.073 -0.055,-0.128 -0.055,-0.164c2.334,-1.774 3.54,-2.662 3.619,-2.662zM82.243,201.19507c-0.036,0.243 -0.091,1.128 -0.164,2.653l2.033,0.455c0.486,-1.519 0.729,-2.33 0.729,-2.433c-1.616,-0.486 -2.482,-0.729 -2.598,-0.729z" data-paper-data="{&quot;origPos&quot;:null}" fill="#000000"/><path d="M95.605,197.85007c1.203,0.675 1.942,1.112 2.215,1.313c-0.984,2.048 -1.513,3.09 -1.586,3.126h-0.064l-1.303,-1.139l-1.54,1.877l0.173,3.418c-0.079,0.073 -1.085,0.243 -3.017,0.511c-0.073,-0.523 -0.547,-3.084 -1.422,-7.684c0,-0.073 1.27,-0.261 3.81,-0.565c0.042,0.049 0.158,0.617 0.346,1.705c1.519,-1.708 2.315,-2.562 2.388,-2.562z" data-paper-data="{&quot;origPos&quot;:null}" fill="#000000"/><path d="M108.666,197.85007c1.483,0.614 2.762,1.191 3.838,1.732c-0.28,3.616 -0.459,5.593 -0.538,5.934c-1.787,0.443 -2.786,0.665 -2.999,0.665c0,-0.79 -0.061,-2.348 -0.182,-4.676c-0.675,0.067 -1.012,0.125 -1.012,0.173c0,0.231 0.04,1.55 0.119,3.956c0.036,0 0.054,0.021 0.054,0.064c0,0.073 -0.938,0.273 -2.816,0.602c-0.079,-0.098 -0.319,-1.577 -0.72,-4.439c-0.76,0.194 -1.139,0.334 -1.139,0.419l0.364,3.719c-0.073,0.079 -1.072,0.398 -2.999,0.957c-1.118,-3.956 -1.816,-6.611 -2.096,-7.966c2.109,-0.523 3.287,-0.784 3.537,-0.784c0.279,1.106 0.419,1.744 0.419,1.914h0.064c1.027,-0.948 1.744,-1.586 2.151,-1.914h0.063l1.915,1.376h0.063c1.197,-1.154 1.835,-1.732 1.914,-1.732z" data-paper-data="{&quot;origPos&quot;:null}" fill="#000000"/><path d="M113.524,204.14906c0.043,0.024 0.991,0.097 2.844,0.218l0.037,0.073c-0.286,1.677 -0.468,2.516 -0.547,2.516h-2.115c-0.073,0 -0.17,-0.839 -0.291,-2.516c-0.025,0 -0.037,-0.073 -0.037,-0.219c0.073,-0.024 0.109,-0.048 0.109,-0.072z" data-paper-data="{&quot;origPos&quot;:null}" fill="#000000"/></g></g></g></svg>