<svg version="1.1" xmlns="http://www.w3.org/2000/svg" xmlns:xlink="http://www.w3.org/1999/xlink" width="170.49142" height="41.99673" viewBox="0,0,170.49142,41.99673"><g transform="translate(-155.11997,-158.96554)"><g data-paper-data="{&quot;isPaintingLayer&quot;:true}" fill="#ffffff" fill-rule="nonzero" stroke="none" stroke-width="none" stroke-linecap="butt" stroke-linejoin="miter" stroke-miterlimit="10" stroke-dasharray="" stroke-dashoffset="0" font-family="none" font-weight="none" font-size="none" text-anchor="none" style="mix-blend-mode: normal"><text transform="translate(155.48087,196.27064) scale(0.7218,0.72179)" font-size="22" xml:space="preserve" data-paper-data="{&quot;origPos&quot;:null}" id="ID0.08681221166625619" fill="#ffffff" fill-rule="nonzero" stroke="none" stroke-width="1" stroke-linecap="butt" stroke-linejoin="miter" stroke-miterlimit="10" stroke-dasharray="" stroke-dashoffset="0" font-family="Sans Serif" font-weight="400" text-anchor="start" style="mix-blend-mode: normal"><tspan x="0" dy="0">Complete 6 scralaxies.</tspan></text><g data-paper-data="{&quot;origPos&quot;:null}" id="text132" stroke-width="0.26458"><path d="M184.43978,160.16917c2.91787,1.47514 4.41732,2.21271 4.49836,2.21271c0,0.12965 -0.60789,1.30085 -1.82365,3.5136h-0.08509c-0.09724,0 -1.4954,-0.66057 -4.19445,-1.98172l-1.37382,1.83583c2.32619,1.11852 5.15084,2.54503 8.47397,4.27953c-1.50757,2.68281 -2.57745,4.46596 -3.20965,5.34941l-6.86914,0.60789c-3.13672,-2.11544 -4.79422,-3.20963 -4.97253,-3.28259v-0.08509c0,-0.22695 0.63626,-1.26846 1.90876,-3.12455h0.15802c0.50251,0.29989 2.07898,1.16309 4.72936,2.58961l1.60483,-1.82367c-4.87123,-2.48019 -7.57025,-3.88238 -8.09707,-4.2066v-0.07293c1.54808,-3.01512 2.39102,-4.54295 2.52881,-4.58348c4.02827,-0.81863 6.26936,-1.22793 6.72325,-1.22793z" id="path259"/><path d="M192.90157,158.96554l4.778,0.75378c-0.59977,2.29378 -0.99286,3.44067 -1.17929,3.44067c-2.5126,-0.17022 -3.76891,-0.33638 -3.76891,-0.49848v-3.52575c0.02431,-0.11346 0.08103,-0.17018 0.17018,-0.17018zM191.56424,164.75265h0.07294c3.69597,0.67273 5.54395,1.06584 5.54395,1.1793c-1.06178,6.01404 -1.70615,9.36554 -1.93309,10.05448h-3.85401c-0.11346,0 -0.17018,-0.05672 -0.17018,-0.17018z" id="path261"/><path d="M206.72495,163.84081h0.04862c2.16408,1.27252 3.33122,1.93715 3.50144,1.99387v0.1094c-0.55925,0.64032 -1.58862,1.75072 -3.08808,3.33123c2.94219,1.09421 4.59565,1.75478 4.96038,1.98173l-2.74767,3.39201c-1.85608,-1.58862 -3.03944,-2.58149 -3.55006,-2.97864c-1.25631,2.44776 -2.03845,3.88642 -2.34644,4.31599h-0.04862c-2.32619,-0.81863 -3.59059,-1.30493 -3.79321,-1.45893v-0.06078l3.20963,-4.19444c-2.9827,-1.232 -4.57942,-1.95335 -4.79016,-2.16409c1.31304,-2.22892 2.05061,-3.41634 2.21273,-3.56222c0.02431,0.05672 1.46703,1.04961 4.32816,2.97866c1.01316,-1.87229 1.71425,-3.10023 2.10331,-3.68381z" id="path263"/><path d="M225.90991,160.18132l0.08509,0.15802l0.6322,9.2399h0.07293l3.31908,-3.47711c1.95335,2.63419 2.95433,3.95127 3.00297,3.95127c0.84294,-4.12555 1.36976,-6.60168 1.5805,-7.42841c3.58249,0.68894 5.37374,1.11042 5.37374,1.26443c-2.15597,6.84888 -3.39202,10.72314 -3.70813,11.62283c-0.76189,0.04862 -2.44776,0.20666 -5.05761,0.47414c-1.15904,-2.77198 -1.73857,-4.19442 -1.73857,-4.26737c-0.09724,0.00784 -0.70514,1.21957 -1.82368,3.63517h-0.07293c-3.47713,-0.23505 -5.2157,-0.44577 -5.2157,-0.6322c-1.95335,-8.61582 -2.93002,-13.04123 -2.93002,-13.27629v-0.15802c0,-0.16212 2.16003,-0.5309 6.48011,-1.10636z" id="path265"/><path d="M246.2134,163.85297c3.07998,0.82673 4.71317,1.32926 4.89958,1.50757c1.69398,2.39912 2.64634,3.78106 2.85709,4.1458c-1.09421,3.46902 -1.72235,5.20352 -1.88446,5.20352c-3.64733,0.85104 -5.55611,1.27656 -5.7263,1.27656c-3.01512,-1.75882 -4.61996,-2.73955 -4.81449,-2.94218c-0.10534,-3.27451 -0.15802,-5.08194 -0.15802,-5.42236c-0.04862,-0.09724 -0.07294,-0.1702 -0.07294,-0.21886c3.11239,-2.36671 4.72126,-3.55006 4.82664,-3.55006zM245.98241,168.30271c-0.04862,0.32422 -0.12157,1.50352 -0.21884,3.53791l2.71118,0.60789c0.64842,-2.02629 0.97262,-3.10833 0.97262,-3.24612c-2.15597,-0.64842 -3.31096,-0.97264 -3.46496,-0.97264z" id="path267"/><path d="M263.80571,163.84081c1.60482,0.89968 2.5896,1.48324 2.95433,1.75072c-1.31304,2.73143 -2.01818,4.12147 -2.11544,4.17011h-0.08509l-1.73857,-1.51971l-2.05466,2.5045l0.23101,4.55916c-0.10534,0.09724 -1.44676,0.32418 -4.02423,0.68083c-0.09724,-0.69704 -0.72945,-4.11338 -1.89661,-10.24901c0,-0.09724 1.69398,-0.34851 5.08195,-0.75378c0.05672,0.06484 0.21072,0.82267 0.46199,2.27351c2.02629,-2.27756 3.08808,-3.41634 3.18534,-3.41634z" id="path269"/><path d="M267.72048,160.18132c2.48019,0.04862 4.29981,0.07294 5.45885,0.07294c0.10534,0 0.42551,4.97657 0.96046,14.92972c-0.41337,0.10534 -1.85609,0.37282 -4.32816,0.80242c-0.12155,0 -0.52276,-3.04755 -1.20363,-9.14264c-0.05672,-0.14588 -0.35257,-2.36671 -0.88753,-6.66245z" id="path271"/><path d="M282.85691,160.15701h0.07294c3.66354,0.30798 5.49531,0.54709 5.49531,0.71731l1.617,14.30968c0,0.10534 -1.617,0.37282 -4.85096,0.80242l-0.07294,-0.15802v-1.30089c-2.78817,0.75378 -4.70099,1.2401 -5.73846,1.45893c-2.46397,-3.48523 -3.75676,-5.34131 -3.87834,-5.56825c1.81558,-3.29882 2.78413,-4.96849 2.9057,-5.00901l5.09412,0.24317c-0.10534,-0.6241 -0.32014,-2.45587 -0.64438,-5.49531zM280.59557,168.87413c0.81861,2.5045 1.32924,3.87832 1.53186,4.12147l2.41941,-2.10329c-0.25127,-1.45083 -0.4377,-2.17624 -0.55927,-2.17624h-3.23396c-0.10534,0.01621 -0.15802,0.06887 -0.15802,0.15802z" id="path273"/><path d="M301.11787,163.84081c2.3343,1.49136 3.62302,2.35051 3.86619,2.57745c-0.84294,1.87229 -1.3252,2.80844 -1.44678,2.80844l-4.42543,-2.5653h-0.15802c0,0.08103 -0.19047,0.53492 -0.57141,1.36167c4.07691,2.19651 6.11536,3.32313 6.11536,3.37987c-1.14283,2.64229 -1.78721,4.03638 -1.93309,4.18227l-6.91776,0.40121c-2.69093,-1.78315 -4.13771,-2.72333 -4.34033,-2.8206v-0.07294c0,-0.20262 0.40121,-1.11446 1.20361,-2.73549l5.39805,2.80844l0.40121,-1.60482c-3.33933,-1.49946 -5.3251,-2.43562 -5.9573,-2.80846v-0.17018c0,-0.308 0.64436,-1.67373 1.93307,-4.09718z" id="path275"/></g></g></g></svg>