<svg version="1.1" xmlns="http://www.w3.org/2000/svg" xmlns:xlink="http://www.w3.org/1999/xlink" width="31" height="103.44528"><defs><linearGradient x1="12.12602" y1="55.88656" x2="34.9485" y2="55.88656" gradientUnits="userSpaceOnUse" id="color-1"><stop offset="0" stop-color="#d59c00"/><stop offset="1" stop-color="#ffde00"/></linearGradient></defs><g transform="translate(-7.34268,-9.13811)"><g data-paper-data="{&quot;isPaintingLayer&quot;:true}" fill="none" fill-rule="nonzero" stroke="none" stroke-width="none" stroke-linecap="none" stroke-linejoin="miter" stroke-miterlimit="10" stroke-dasharray="" stroke-dashoffset="0" font-family="none" font-weight="none" font-size="none" text-anchor="none" style="mix-blend-mode: normal"><g data-paper-data="{&quot;origPos&quot;:null}" stroke-width="3"><g data-paper-data="{&quot;origPos&quot;:null}"><g data-paper-data="{&quot;origPos&quot;:null}" fill="none" stroke-linecap="round"><path d="M18.69744,26.06673l-6.28571,-10.85714h21.71429l-6,10.85715" data-paper-data="{&quot;origPos&quot;:null}" stroke="#ffffff"/><path d="M18.69745,23.78099l-6.28572,-10.85715h21.71429l-6,10.85715" data-paper-data="{&quot;origPos&quot;:null}" stroke="#ff0000"/><path d="M18.41173,21.49526l-6.28572,-10.85715h21.71429l-6,10.85715" data-paper-data="{&quot;origPos&quot;:null}" stroke="#ffffff"/></g><path d="M13.29268,30.48337c0,-5.66092 4.58908,-10.25 10.25,-10.25c5.66092,0 10.25,4.58908 10.25,10.25c0,5.66092 -4.58908,10.25 -10.25,10.25c-5.66092,0 -10.25,-4.58908 -10.25,-10.25z" data-paper-data="{&quot;origPos&quot;:null}" fill="#ffde00" stroke="#d59c00" stroke-linecap="butt"/></g><g data-paper-data="{&quot;origPos&quot;:null}" stroke="#d59c00"><path d="M34.04254,74.28933h-21.60785" data-paper-data="{&quot;origPos&quot;:null}" fill="none" stroke-linecap="round"/><path d="M23.5473,62.55929v10.49525" data-paper-data="{&quot;origPos&quot;:null}" fill="none" stroke-linecap="round"/><path d="M12.12602,52.3828c0,-6.30226 5.10898,-3.9893 11.41124,-3.9893c6.30226,0 11.41124,-2.31296 11.41124,3.9893c0,6.30226 -5.10898,11.41124 -11.41124,11.41124c-6.30226,0 -11.41124,-5.10898 -11.41124,-11.41124z" data-paper-data="{&quot;origPos&quot;:null}" fill="url(#color-1)" stroke-linecap="butt"/></g></g><g data-paper-data="{&quot;origPos&quot;:null}" stroke-width="3.5"><path d="M9.09268,97.0834c0,-7.59391 6.15609,-13.75 13.75,-13.75c7.59391,0 13.75,6.15609 13.75,13.75c0,7.59391 -6.15609,13.75 -13.75,13.75c-7.59391,0 -13.75,-6.15609 -13.75,-13.75z" data-paper-data="{&quot;origPos&quot;:null}" fill="#ffffff" stroke="#966a24" stroke-linecap="butt"/><path d="M31.09268,97.8334h-8.5v-7.5" data-paper-data="{&quot;origPos&quot;:null}" fill="none" stroke="#000000" stroke-linecap="round"/></g></g></g></svg>