<svg version="1.1" xmlns="http://www.w3.org/2000/svg" xmlns:xlink="http://www.w3.org/1999/xlink" width="100.24022" height="31.36718" viewBox="0,0,100.24022,31.36718"><defs><linearGradient x1="215.7962" y1="164.70151" x2="215.7962" y2="194.53277" gradientUnits="userSpaceOnUse" id="color-1"><stop offset="0" stop-color="#ffffff"/><stop offset="1" stop-color="#bbbbbb"/></linearGradient><linearGradient x1="241.05095" y1="165.00794" x2="241.05095" y2="194.22225" gradientUnits="userSpaceOnUse" id="color-2"><stop offset="0" stop-color="#ffffff"/><stop offset="1" stop-color="#bbbbbb"/></linearGradient><linearGradient x1="197.62817" y1="180.68041" x2="197.62817" y2="187.09694" gradientUnits="userSpaceOnUse" id="color-3"><stop offset="0" stop-color="#ffffff"/><stop offset="1" stop-color="#b9b9b9"/></linearGradient><radialGradient cx="266.06876" cy="170.0913" r="33.09686" gradientUnits="userSpaceOnUse" id="color-4"><stop offset="0" stop-color="#ffff00"/><stop offset="1" stop-color="#ff9400"/></radialGradient><radialGradient cx="272.39314" cy="172.06132" r="22.65159" gradientUnits="userSpaceOnUse" id="color-5"><stop offset="0" stop-color="#bda501"/><stop offset="1" stop-color="#c07801"/></radialGradient></defs><g transform="translate(-189.62989,-164.18322)"><g data-paper-data="{&quot;isPaintingLayer&quot;:true}" fill="none" fill-rule="nonzero" stroke="none" stroke-width="none" stroke-linecap="butt" stroke-linejoin="miter" stroke-miterlimit="10" stroke-dasharray="" stroke-dashoffset="0" font-family="none" font-weight="none" font-size="none" text-anchor="none" style="mix-blend-mode: normal"><path d="M216.38845,164.70151c5.60628,0.61695 8.39667,1.01269 8.39667,1.18594c0.07459,12.32247 0.09866,21.73055 0.09866,28.24958v0.19843l-0.09866,0.19731l-8.69248,-0.29581c0,-0.07459 -0.02407,-0.09993 -0.09866,-0.09993c0.39445,-11.01382 0.59305,-16.86538 0.59305,-17.58226l-2.96364,2.86514c-0.17324,-0.09866 -2.4694,-2.544 -6.91477,-7.30924c3.48193,-2.76648 6.71747,-5.23573 9.67982,-7.40917z" data-paper-data="{&quot;origPos&quot;:null}" id="path4538" fill="url(#color-1)" stroke="#000000" stroke-width="1"/><path d="M238.48249,165.00794c6.69212,1.72974 10.09962,2.71708 10.22346,2.98898c0,0.1479 1.6298,3.16094 4.86533,8.98828c-2.05072,6.66822 -3.13688,10.14903 -3.33419,10.44612c0,0 -3.72849,5.53169 -4.02573,5.16113l-7.87693,1.6298c-5.55687,-3.03695 -8.49516,-4.74134 -8.84037,-5.16114c-0.19843,-2.12403 -0.51958,-8.05018 -0.96344,-17.80475c5.23444,-3.43268 8.56863,-5.53154 9.95188,-6.24842zM240.21079,173.13271l-4.29635,4.34688c0.37055,4.51884 0.54251,7.28404 0.54251,8.27267c0.09866,0 1.03804,0.64229 2.76633,1.9017c2.29615,-0.49439 3.45674,-0.8396 3.45674,-1.06209l2.64265,-8.84037c-0.71576,-2.07495 -1.30865,-3.1117 -1.80305,-3.1117z" data-paper-data="{&quot;origPos&quot;:null}" id="path4556" fill="url(#color-2)" stroke="#000000" stroke-width="1"/><path d="M190.12989,180.68041h14.99658v6.41653h-14.99658z" data-paper-data="{&quot;origPos&quot;:null}" id="ID0.9085060213692486" fill="url(#color-3)" stroke="#000000" stroke-width="1"/><path d="" data-paper-data="{&quot;origPos&quot;:null}" fill="#ffffff" stroke="#000000" stroke-width="1"/><g data-paper-data="{&quot;origPos&quot;:null}" stroke="none"><path d="M274.31973,164.44961c4.29037,0 8.17765,1.7428 10.99268,4.55783c2.81504,2.81491 4.5577,6.70218 4.5577,10.99256c0,4.29025 -1.74266,8.17766 -4.5577,10.99257c-2.81503,2.81504 -6.70231,4.55783 -10.99268,4.55783c-4.29024,0 -8.17753,-1.74279 -10.99257,-4.55783c-2.81503,-2.81491 -4.55783,-6.70232 -4.55783,-10.99257c0,-4.29037 1.7428,-8.17765 4.55783,-10.99256c2.81504,-2.81504 6.70233,-4.55783 10.99257,-4.55783z" data-paper-data="{&quot;origPos&quot;:null}" id="ID0.7142658131197095" fill="url(#color-4)" stroke-width="0.48028"/><path d="M271.06008,168.01502h6.13433v23.52496h-6.13433z" data-paper-data="{&quot;origPos&quot;:null}" id="ID0.06001657713204622" fill="url(#color-5)" stroke-width="0.59798"/></g></g></g></svg>