<svg version="1.1" xmlns="http://www.w3.org/2000/svg" xmlns:xlink="http://www.w3.org/1999/xlink" width="27.71194" height="51.42872" viewBox="0,0,27.71194,51.42872"><g transform="translate(-226.14361,-154.07408)"><g data-paper-data="{&quot;isPaintingLayer&quot;:true}" fill="none" fill-rule="nonzero" stroke="#674116" stroke-width="0.5" stroke-linecap="round" stroke-linejoin="miter" stroke-miterlimit="10" stroke-dasharray="" stroke-dashoffset="0" font-family="none" font-weight="none" font-size="none" text-anchor="none" style="mix-blend-mode: normal"><path d="M233.16449,191.39144l-4.95259,-3.30775l-1.73804,-5.19143l-0.07847,-3.67997l4.21923,-5.64638l3.66021,-6.42278l6.24602,-12.35397l1.18775,4.82391l5.06592,8.62326l4.45459,5.39353l2.30577,6.37673l0.06974,3.27108l-1.53752,4.21293l-3.72997,3.15171l-5.39826,1.23134l0.26154,12.26658l-8.65639,1.07061l2.97916,-12.9236z" data-paper-data="{&quot;origPos&quot;:null}" fill="#dea433"/><path d="M237.44976,193.93104l3.24369,-31.04596l2.3677,29.63451" data-paper-data="{&quot;origPos&quot;:null}" fill="none"/><path d="M243.38979,187.57988l5.5556,-4.02831" data-paper-data="{&quot;origPos&quot;:null}" fill="none"/><path d="M243.29214,183.00037l4.26282,-3.60196" data-paper-data="{&quot;origPos&quot;:null}" fill="none"/><path d="M242.34891,179.46834l3.83653,-3.24175" data-paper-data="{&quot;origPos&quot;:null}" fill="none"/><path d="M242.24431,174.56172l2.12445,-2.12807" data-paper-data="{&quot;origPos&quot;:null}" fill="none"/><path d="M243.4046,167.9203l-2.1314,1.80097l-4.38834,-2.28599" data-paper-data="{&quot;origPos&quot;:null}" fill="none"/><path d="M232.46774,184.15463l4.86347,4.21557" data-paper-data="{&quot;origPos&quot;:null}" fill="none"/><path d="M234.12404,180.4241l3.54277,3.33349" data-paper-data="{&quot;origPos&quot;:null}" fill="none"/><path d="M234.48757,177.11992l3.9551,2.3191" data-paper-data="{&quot;origPos&quot;:null}" fill="none"/><path d="M238.76433,174.17219l-3.08161,-2.05815" data-paper-data="{&quot;origPos&quot;:null}" fill="none"/></g></g></svg>