<svg version="1.1" xmlns="http://www.w3.org/2000/svg" xmlns:xlink="http://www.w3.org/1999/xlink" width="511.37237" height="377.98799" viewBox="0,0,511.37237,377.98799"><g transform="translate(16.45495,3.5)"><g data-paper-data="{&quot;isPaintingLayer&quot;:true}" fill-rule="nonzero" stroke-linecap="butt" stroke-linejoin="miter" stroke-miterlimit="10" stroke-dasharray="" stroke-dashoffset="0" style="mix-blend-mode: normal"><g fill="#8e6f54" stroke="#726252" stroke-width="7"><g><path d="M0,0h110v50h-110z"/><path d="M116,0h110v50h-110z"/><path d="M232,0h110v50h-110z"/><path d="M348,0h110v50h-110z"/><path d="M464,0h27.41742v50h-27.41742z"/></g><g><path d="M-10.95495,56h64.95495v50h-64.95495z"/><path d="M60,56h110v50h-110z"/><path d="M176,56h110v50h-110z"/><path d="M292,56h110v50h-110z"/><path d="M408,56h82.97297v50h-82.97297z"/></g></g><g fill="#8e6f54" stroke="#726252" stroke-width="7"><g><path d="M-1,111h110v50h-110z"/><path d="M115,111h110v50h-110z"/><path d="M231,111h110v50h-110z"/><path d="M347,111h110v50h-110z"/><path d="M463,111h27.41742v50h-27.41742z"/></g><g><path d="M-11.95495,167h64.95495v50h-64.95495z"/><path d="M59,167h110v50h-110z"/><path d="M175,167h110v50h-110z"/><path d="M291,167h110v50h-110z"/><path d="M407,167h82.97297v50h-82.97297z"/></g></g><g fill="#8e6f54" stroke="#726252" stroke-width="7"><g><path d="M-2,222h110v50h-110z"/><path d="M114,222h110v50h-110z"/><path d="M230,222h110v50h-110z"/><path d="M346,222h110v50h-110z"/><path d="M462,222h27.41742v50h-27.41742z"/></g><g><path d="M-12.95495,278h64.95495v50h-64.95495z"/><path d="M58,278h110v50h-110z"/><path d="M174,278h110v50h-110z"/><path d="M290,278h110v50h-110z"/><path d="M406,278h82.97297v50h-82.97297z"/></g></g><g><g fill="#8e6f54" stroke="#726252" stroke-width="7"><path d="M-2,333h110v37.98799h-110z"/><path d="M114,333h110v37.98799h-110z"/><path d="M230,333h110v37.98799h-110z"/><path d="M346,333h110v37.98799h-110z"/><path d="M462,333h27.41742v37.98799h-27.41742z"/></g><g fill="none" stroke="none" stroke-width="1" font-family="sans-serif" font-weight="normal" font-size="12" text-anchor="start"/></g></g></g></svg>