<svg version="1.1" xmlns="http://www.w3.org/2000/svg" xmlns:xlink="http://www.w3.org/1999/xlink" width="437" height="90.79587" viewBox="0,0,437,90.79587"><defs><linearGradient x1="240" y1="135.60205" x2="240" y2="224.39794" gradientUnits="userSpaceOnUse" id="color-1"><stop offset="0" stop-color="#ffffff"/><stop offset="1" stop-color="#d8d8d8"/></linearGradient><linearGradient x1="240" y1="135.60207" x2="240" y2="224.39794" gradientUnits="userSpaceOnUse" id="color-2"><stop offset="0" stop-color="#343434"/><stop offset="1" stop-color="#090909"/></linearGradient><radialGradient cx="443.8065" cy="206.54466" r="17.9081" gradientUnits="userSpaceOnUse" id="color-3"><stop offset="0" stop-color="#ffffff"/><stop offset="1" stop-color="#e5e5e5"/></radialGradient></defs><g transform="translate(-21.5,-134.60207)"><g data-paper-data="{&quot;isPaintingLayer&quot;:true}" fill-rule="nonzero" stroke-linejoin="miter" stroke-miterlimit="10" stroke-dasharray="" stroke-dashoffset="0" style="mix-blend-mode: normal"><path d="M22.5,224.39794v-88.79587h435v88.79587z" data-paper-data="{&quot;origPos&quot;:null}" fill="url(#color-1)" stroke="url(#color-2)" stroke-width="2" stroke-linecap="butt"/><g data-paper-data="{&quot;origPos&quot;:null}"><path d="M444.3058,202.09868c2.5136,0 4.7909,1.0212 6.4406,2.6702c1.6489,1.6496 2.6702,3.9269 2.6702,6.4405c0,2.5136 -1.0213,4.791 -2.6702,6.4406c-1.6497,1.649 -3.927,2.6702 -6.4406,2.6702c-2.5136,0 -4.7909,-1.0212 -6.4406,-2.6702c-1.6489,-1.6496 -2.6701,-3.927 -2.6701,-6.4406c0,-2.5136 1.0212,-4.7909 2.6701,-6.4405c1.6497,-1.649 3.927,-2.6702 6.4406,-2.6702z" fill="url(#color-3)" stroke="#000000" stroke-width="2.0785" stroke-linecap="butt"/><path d="M441.2734,206.54886l5.6119,0.4503l1.7321,3.187l-3.6374,2.9446l3.3603,-0.5197l0.7967,3.4642l-7.4479,-0.0693l-1.9053,-2.4249l4.6766,-3.3256l-4.5727,-0.3464z" fill="#000000" stroke="none" stroke-width="0.69283" stroke-linecap="round"/></g><g stroke="none" stroke-width="1" stroke-linecap="butt"><path d="M40.233,147.51106c2.188,1.106 3.312,1.659 3.373,1.659c0,0.097 -0.456,0.975 -1.368,2.634h-0.063c-0.073,0 -1.121,-0.495 -3.145,-1.485l-1.03,1.376c1.744,0.839 3.862,1.908 6.353,3.208c-1.13,2.012 -1.932,3.348 -2.406,4.011l-5.15,0.455c-2.352,-1.585 -3.594,-2.406 -3.728,-2.46v-0.064c0,-0.17 0.477,-0.951 1.431,-2.343h0.119c0.376,0.225 1.558,0.872 3.545,1.942l1.203,-1.368c-3.652,-1.859 -5.675,-2.91 -6.07,-3.153v-0.055c1.161,-2.26 1.793,-3.406 1.896,-3.436c3.02,-0.614 4.7,-0.921 5.04,-0.921z" data-paper-data="{&quot;origPos&quot;:null}" fill="#2b70c2"/><path d="M48.044,147.51106l4.011,0.711l-0.383,3.045c0.796,-0.043 1.379,-0.064 1.75,-0.064h0.583l0.128,-0.064l0.064,0.128c-0.128,1.847 -0.237,2.886 -0.328,3.117l-0.128,-0.073c-0.091,0 -0.911,-0.043 -2.461,-0.128c-0.085,1.428 -0.149,3.136 -0.191,5.123l-0.128,0.063c-1.957,-0.127 -3.123,-0.237 -3.5,-0.328l0.064,-0.255c0,-0.529 0.085,-2.169 0.255,-4.922c-1.641,-0.091 -2.461,-0.2 -2.461,-0.328c0.085,-2.029 0.195,-3.044 0.328,-3.044l2.397,0.456v-0.784c0,-0.638 -0.024,-1.501 -0.073,-2.589c0.049,0 0.073,-0.021 0.073,-0.064z" data-paper-data="{&quot;origPos&quot;:null}" fill="#2b70c2"/><path d="M60.085,150.26406l0.064,0.118l-1.231,6.527h0.064l3.135,-0.921v-3.691c0.012,-0.086 0.052,-0.128 0.119,-0.128c2.357,0.164 3.67,0.246 3.937,0.246c0,0.043 0.022,0.064 0.064,0.064c0,1.039 -0.328,3.193 -0.984,6.462c0,0.188 -0.942,0.331 -2.826,0.428c-0.097,-0.115 -0.179,-0.361 -0.246,-0.738c-2.412,0.492 -3.789,0.738 -4.129,0.738c-1.926,-1.434 -2.889,-2.172 -2.889,-2.214c0.328,-4.309 0.535,-6.545 0.62,-6.709h0.054c1.538,-0.042 2.953,-0.103 4.248,-0.182z" data-paper-data="{&quot;origPos&quot;:null}" fill="#2b70c2"/><path d="M70.74,150.27306c2.74,0.517 4.174,0.811 4.302,0.884v0.11c-0.59,1.665 -0.884,2.527 -0.884,2.588h-0.055c-0.152,0 -0.887,-0.237 -2.206,-0.711c-0.735,1.234 -1.103,1.893 -1.103,1.978l1.823,1.768c1.41,-1.324 2.127,-1.987 2.151,-1.987c1.1,1.44 1.65,2.249 1.65,2.425c-0.601,0.346 -1.65,1.027 -3.144,2.041c-2.893,-0.625 -4.454,-0.975 -4.685,-1.048l-1.431,-4.63z" data-paper-data="{&quot;origPos&quot;:null}" fill="#2b70c2"/><path d="M81.349,147.51106c0.085,0.243 0.277,1.966 0.574,5.168l2.735,-3.062h0.063c0.426,0.352 1.213,1.097 2.361,2.233v0.064l-2.616,2.16c1.969,1.318 3.011,2.063 3.127,2.233c-1.24,1.379 -1.984,2.166 -2.234,2.361l-3.18,-2.935c0.127,1.312 0.191,2.291 0.191,2.935c-0.152,0.085 -1.279,0.319 -3.382,0.701c-0.17,-0.85 -0.723,-4.505 -1.658,-10.964c0.388,-0.128 1.728,-0.426 4.019,-0.894z" data-paper-data="{&quot;origPos&quot;:null}" fill="#2b70c2"/><path d="M95.094,147.51106c0.158,0.28 0.784,1.571 1.877,3.874c-1.531,1.228 -2.336,1.905 -2.415,2.033v0.118c0,0.182 -0.027,1.027 -0.082,2.534c-0.693,0.207 -1.51,0.386 -2.452,0.538v-0.037l-0.61,-2.962c0.018,0 0.656,-0.829 1.914,-2.488l-0.884,-0.921c-1.015,1.459 -1.565,2.188 -1.65,2.188c-1.55,-0.663 -2.355,-1.033 -2.416,-1.112c0.845,-1.896 1.343,-2.959 1.495,-3.19c2.753,-0.335 4.494,-0.526 5.223,-0.575zM94.474,156.71708l0.046,0.082c-0.031,0.881 -0.046,1.571 -0.046,2.069v0.082c0,0.073 -0.677,0.213 -2.032,0.419c-0.055,0 -0.171,-0.729 -0.347,-2.187c0.237,-0.079 1.03,-0.234 2.379,-0.465z" data-paper-data="{&quot;origPos&quot;:null}" fill="#000000"/><path d="M115.365,147.51106l0.054,0.119c-0.158,2.321 -0.276,3.482 -0.355,3.482h-0.055c-2.509,-0.201 -3.907,-0.319 -4.192,-0.356v8.085c0,0.146 -0.572,0.243 -1.714,0.291c0,0.043 -0.647,0.122 -1.941,0.237l-0.064,-0.118c0.279,-4.825 0.459,-7.675 0.538,-8.55c-0.961,0.152 -2.376,0.347 -4.248,0.584c-0.553,-2.066 -0.829,-3.126 -0.829,-3.181c0,-0.079 4.268,-0.277 12.806,-0.593z" data-paper-data="{&quot;origPos&quot;:null}" fill="#000000"/><path d="M122.884,150.26406c1.203,0.674 1.942,1.112 2.215,1.312c-0.984,2.048 -1.513,3.09 -1.586,3.127h-0.064l-1.303,-1.14l-1.54,1.878l0.173,3.418c-0.079,0.073 -1.085,0.243 -3.017,0.51c-0.073,-0.522 -0.547,-3.083 -1.422,-7.683c0,-0.073 1.27,-0.261 3.81,-0.565c0.042,0.048 0.158,0.617 0.346,1.704c1.519,-1.707 2.315,-2.561 2.388,-2.561z" data-paper-data="{&quot;origPos&quot;:null}" fill="#000000"/><path d="M130.012,150.28206c0.085,0.012 0.127,0.055 0.127,0.128l-0.947,5.25c1.81,-0.213 2.716,-0.383 2.716,-0.511c0.34,-2.102 0.574,-3.281 0.702,-3.536c2.242,0.462 3.484,0.735 3.727,0.82c-1.306,4.491 -2.023,6.83 -2.151,7.018c-2.284,1.605 -3.57,2.492 -3.855,2.662c-0.085,0 -1.541,-0.359 -4.366,-1.076v-0.063c0.747,-1.647 1.212,-2.47 1.395,-2.47l2.779,1.394l1.331,-2.279c-1.197,0.298 -1.893,0.447 -2.087,0.447l-3.546,-1.841c0.432,-3.962 0.705,-5.943 0.821,-5.943z" data-paper-data="{&quot;origPos&quot;:null}" fill="#000000"/><path d="M141.861,147.52006c1.859,0.037 3.223,0.055 4.092,0.055c0.079,0 0.319,3.731 0.72,11.193c-0.31,0.079 -1.391,0.279 -3.244,0.601c-0.092,0 -0.392,-2.284 -0.903,-6.854c-0.042,-0.109 -0.264,-1.774 -0.665,-4.994z" data-paper-data="{&quot;origPos&quot;:null}" fill="#2b70c2"/><path d="M149.08,150.26406c3.609,0.498 5.414,0.805 5.414,0.921c1.421,1.221 2.132,1.874 2.132,1.959c-0.577,1.805 -0.905,2.902 -0.984,3.291c0.577,1.282 0.905,2.047 0.984,2.296c0,0.073 -0.941,0.268 -2.825,0.584c-0.024,-0.104 -0.198,-0.334 -0.52,-0.693c-2.6,0.498 -4.001,0.747 -4.201,0.747l-1.386,-3.746l3.054,-1.613c0.492,0.079 1.26,0.119 2.306,0.119c0,-0.134 0.018,-0.538 0.054,-1.213c-0.176,0 -1.75,0.116 -4.721,0.347l-0.055,-0.119c0.413,-1.92 0.662,-2.88 0.748,-2.88zM150.975,155.62307c0,0.067 0.195,0.778 0.584,2.133h0.054c0.766,-0.498 1.149,-0.826 1.149,-0.984l0.118,-0.975c-0.146,0 -0.78,-0.058 -1.905,-0.174z" data-paper-data="{&quot;origPos&quot;:null}" fill="#2b70c2"/><path d="M162.423,150.26406l0.064,0.118l-1.23,6.527h0.063l3.136,-0.921v-3.691c0.012,-0.086 0.051,-0.128 0.118,-0.128c2.358,0.164 3.67,0.246 3.938,0.246c0,0.043 0.021,0.064 0.064,0.064c0,1.039 -0.328,3.193 -0.985,6.462c0,0.188 -0.942,0.331 -2.825,0.428c-0.097,-0.115 -0.18,-0.361 -0.246,-0.738c-2.413,0.492 -3.789,0.738 -4.129,0.738c-1.926,-1.434 -2.89,-2.172 -2.89,-2.214c0.329,-4.309 0.535,-6.545 0.62,-6.709h0.055c1.537,-0.042 2.953,-0.103 4.247,-0.182z" data-paper-data="{&quot;origPos&quot;:null}" fill="#2b70c2"/><path d="M177.59,150.26406l3.035,2.087c-0.213,3.464 -0.361,5.487 -0.447,6.071c-0.352,0.042 -1.424,0.106 -3.217,0.191l-0.064,-0.128l-0.319,-4.867l-0.127,-0.064c-1.161,0.249 -1.96,0.438 -2.397,0.565c0.121,2.073 0.182,3.57 0.182,4.494c-1.811,0.504 -2.801,0.756 -2.972,0.756c-1.178,-5.189 -1.768,-7.929 -1.768,-8.221c2.564,-0.334 3.956,-0.501 4.175,-0.501v0.064c0.042,0.03 0.106,0.662 0.191,1.895c2.352,-1.561 3.594,-2.342 3.728,-2.342z" data-paper-data="{&quot;origPos&quot;:null}" fill="#2b70c2"/><path d="M185.109,150.27306c2.741,0.517 4.175,0.811 4.303,0.884v0.11c-0.59,1.665 -0.885,2.527 -0.885,2.588h-0.054c-0.152,0 -0.887,-0.237 -2.206,-0.711c-0.735,1.234 -1.103,1.893 -1.103,1.978l1.823,1.768c1.41,-1.324 2.127,-1.987 2.151,-1.987c1.1,1.44 1.65,2.249 1.65,2.425c-0.602,0.346 -1.65,1.027 -3.145,2.041c-2.892,-0.625 -4.454,-0.975 -4.685,-1.048l-1.431,-4.63z" data-paper-data="{&quot;origPos&quot;:null}" fill="#2b70c2"/><path d="M195.783,147.51106c0.036,0.055 0.206,1.72 0.51,4.995c2.346,-0.717 3.594,-1.075 3.746,-1.075l2.324,1.586c-0.376,3.463 -0.622,5.487 -0.738,6.07l-3.226,0.109c0,-0.036 -0.022,-0.054 -0.064,-0.054l0.064,-0.228c0,-0.492 0.072,-1.987 0.218,-4.485c-0.887,-0.036 -1.546,-0.054 -1.978,-0.054h-0.227c0.261,2.777 0.392,4.29 0.392,4.539l-3.063,0.455c-0.115,-0.388 -0.796,-4.019 -2.042,-10.891c0,-0.195 0.474,-0.347 1.422,-0.456c1.197,-0.34 2.084,-0.511 2.662,-0.511z" data-paper-data="{&quot;origPos&quot;:null}" fill="#2b70c2"/><path d="M204.478,146.60906l3.582,0.565c-0.45,1.72 -0.744,2.58 -0.884,2.58c-1.884,-0.128 -2.826,-0.253 -2.826,-0.374v-2.643c0.019,-0.085 0.061,-0.128 0.128,-0.128zM203.475,150.94806h0.055c2.771,0.504 4.156,0.799 4.156,0.884c-0.796,4.508 -1.279,7.021 -1.449,7.537h-2.889c-0.085,0 -0.128,-0.042 -0.128,-0.127z" data-paper-data="{&quot;origPos&quot;:null}" fill="#2b70c2"/><path d="M216.455,150.26406l3.035,2.087c-0.213,3.464 -0.362,5.487 -0.447,6.071c-0.352,0.042 -1.425,0.106 -3.217,0.191l-0.064,-0.128l-0.319,-4.867l-0.128,-0.064c-1.16,0.249 -1.959,0.438 -2.397,0.565c0.122,2.073 0.182,3.57 0.182,4.494c-1.81,0.504 -2.801,0.756 -2.971,0.756c-1.179,-5.189 -1.768,-7.929 -1.768,-8.221c2.564,-0.334 3.956,-0.501 4.174,-0.501v0.064c0.043,0.03 0.107,0.662 0.192,1.895c2.351,-1.561 3.594,-2.342 3.728,-2.342z" data-paper-data="{&quot;origPos&quot;:null}" fill="#2b70c2"/><path d="M227.192,150.29106c2.582,0.067 3.873,0.18 3.873,0.338c0.444,6.726 0.666,10.305 0.666,10.737c-1.957,1.245 -3.358,2.09 -4.202,2.533c-2.978,-0.935 -4.466,-1.47 -4.466,-1.604c0.96,-1.403 1.516,-2.114 1.668,-2.133c1.622,0.803 2.555,1.204 2.798,1.204l0.866,-1.14c-0.231,-0.942 -0.386,-1.498 -0.465,-1.668c-0.134,0 -1.781,0.268 -4.94,0.802c-1.732,-2.813 -2.598,-4.256 -2.598,-4.329c1.495,-2.388 2.406,-3.789 2.734,-4.202h0.064c0.176,0 1.489,0.289 3.938,0.866v-0.201c0,-0.237 -0.022,-0.616 -0.064,-1.139zM224.202,154.22006c0.085,0.188 0.352,1.191 0.802,3.008c0.565,-0.183 1.431,-0.517 2.598,-1.003c-0.225,-1.094 -0.338,-1.717 -0.338,-1.869l-0.328,-0.063h-0.401c-0.51,0 -1.288,-0.025 -2.333,-0.073z" data-paper-data="{&quot;origPos&quot;:null}" fill="#2b70c2"/><path d="M241.018,150.27306c2.309,0.62 3.534,0.997 3.674,1.13c1.269,1.799 1.983,2.835 2.141,3.108c-0.82,2.601 -1.291,3.901 -1.412,3.901c-2.735,0.638 -4.166,0.957 -4.293,0.957c-2.261,-1.318 -3.464,-2.053 -3.61,-2.205c-0.079,-2.455 -0.118,-3.81 -0.118,-4.065c-0.037,-0.073 -0.055,-0.128 -0.055,-0.164c2.333,-1.775 3.54,-2.662 3.619,-2.662zM240.79,153.60906c-0.036,0.243 -0.091,1.127 -0.164,2.652l2.033,0.456c0.486,-1.519 0.729,-2.33 0.729,-2.433c-1.616,-0.487 -2.482,-0.73 -2.598,-0.73z" data-paper-data="{&quot;origPos&quot;:null}" fill="#2b70c2"/><path d="M252.585,150.26406l0.064,0.118l-1.231,6.527h0.064l3.135,-0.921v-3.691c0.012,-0.086 0.052,-0.128 0.119,-0.128c2.357,0.164 3.67,0.246 3.937,0.246c0,0.043 0.022,0.064 0.064,0.064c0,1.039 -0.328,3.193 -0.984,6.462c0,0.188 -0.942,0.331 -2.826,0.428c-0.097,-0.115 -0.179,-0.361 -0.246,-0.738c-2.412,0.492 -3.789,0.738 -4.129,0.738c-1.926,-1.434 -2.889,-2.172 -2.889,-2.214c0.328,-4.309 0.535,-6.545 0.62,-6.709h0.054c1.538,-0.042 2.954,-0.103 4.248,-0.182z" data-paper-data="{&quot;origPos&quot;:null}" fill="#2b70c2"/><path d="M262.383,147.51106l4.01,0.711l-0.382,3.045c0.796,-0.043 1.379,-0.064 1.75,-0.064h0.583l0.127,-0.064l0.064,0.128c-0.127,1.847 -0.237,2.886 -0.328,3.117l-0.127,-0.073c-0.092,0 -0.912,-0.043 -2.461,-0.128c-0.085,1.428 -0.149,3.136 -0.192,5.123l-0.127,0.063c-1.957,-0.127 -3.124,-0.237 -3.5,-0.328l0.063,-0.255c0,-0.529 0.085,-2.169 0.256,-4.922c-1.641,-0.091 -2.461,-0.2 -2.461,-0.328c0.085,-2.029 0.194,-3.044 0.328,-3.044l2.397,0.456v-0.784c0,-0.638 -0.024,-1.501 -0.073,-2.589c0.049,0 0.073,-0.021 0.073,-0.064z" data-paper-data="{&quot;origPos&quot;:null}" fill="#2b70c2"/><path d="M277.805,150.27306c2.309,0.62 3.533,0.997 3.673,1.13c1.27,1.799 1.984,2.835 2.142,3.108c-0.82,2.601 -1.291,3.901 -1.413,3.901c-2.734,0.638 -4.165,0.957 -4.293,0.957c-2.26,-1.318 -3.463,-2.053 -3.609,-2.205c-0.079,-2.455 -0.119,-3.81 -0.119,-4.065c-0.036,-0.073 -0.054,-0.128 -0.054,-0.164c2.333,-1.775 3.539,-2.662 3.618,-2.662zM277.577,153.60906c-0.037,0.243 -0.091,1.127 -0.164,2.652l2.032,0.456c0.487,-1.519 0.73,-2.33 0.73,-2.433c-1.617,-0.487 -2.483,-0.73 -2.598,-0.73z" data-paper-data="{&quot;origPos&quot;:null}" fill="#000000"/><path d="M288.241,147.51106c0.322,0.037 1.495,0.307 3.518,0.812l0.055,0.109c-0.298,1.659 -0.477,2.488 -0.538,2.488h-0.055l-1.467,-0.756c0,0.17 -0.055,0.929 -0.164,2.278l2.005,-0.492c0.061,0.182 0.116,0.994 0.164,2.434c-0.194,0.073 -0.863,0.182 -2.005,0.328c0.255,1.094 0.526,2.43 0.811,4.01c-0.936,0.213 -2.054,0.429 -3.354,0.647l-0.055,-0.109c-0.17,-2.813 -0.313,-4.22 -0.428,-4.22c-1.179,0.286 -1.811,0.447 -1.896,0.483c-0.073,-0.352 -0.2,-1.309 -0.383,-2.871l0.11,-0.055h1.95c-0.109,-0.899 -0.273,-2.072 -0.492,-3.518z" data-paper-data="{&quot;origPos&quot;:null}" fill="#000000"/><path d="M300.008,147.51106l4.01,0.711l-0.382,3.045c0.796,-0.043 1.379,-0.064 1.75,-0.064h0.583l0.127,-0.064l0.064,0.128c-0.127,1.847 -0.237,2.886 -0.328,3.117l-0.127,-0.073c-0.092,0 -0.912,-0.043 -2.461,-0.128c-0.085,1.428 -0.149,3.136 -0.192,5.123l-0.127,0.063c-1.957,-0.127 -3.124,-0.237 -3.5,-0.328l0.063,-0.255c0,-0.529 0.085,-2.169 0.256,-4.922c-1.641,-0.091 -2.461,-0.2 -2.461,-0.328c0.085,-2.029 0.194,-3.044 0.328,-3.044l2.397,0.456v-0.784c0,-0.638 -0.024,-1.501 -0.073,-2.589c0.049,0 0.073,-0.021 0.073,-0.064z" data-paper-data="{&quot;origPos&quot;:null}" fill="#000000"/><path d="M311.21,147.51106c0.036,0.055 0.206,1.72 0.51,4.995c2.346,-0.717 3.594,-1.075 3.746,-1.075l2.324,1.586c-0.376,3.463 -0.622,5.487 -0.738,6.07l-3.226,0.109c0,-0.036 -0.022,-0.054 -0.064,-0.054l0.064,-0.228c0,-0.492 0.073,-1.987 0.218,-4.485c-0.887,-0.036 -1.546,-0.054 -1.977,-0.054h-0.228c0.261,2.777 0.392,4.29 0.392,4.539l-3.063,0.455c-0.115,-0.388 -0.796,-4.019 -2.042,-10.891c0,-0.195 0.474,-0.347 1.422,-0.456c1.197,-0.34 2.084,-0.511 2.662,-0.511z" data-paper-data="{&quot;origPos&quot;:null}" fill="#000000"/><path d="M323.815,150.27306c2.753,1.416 4.278,2.242 4.576,2.479c-0.395,1.847 -0.629,2.798 -0.702,2.853h-5.76v0.1l1.613,1.996l2.534,-1.294c0.249,0.432 0.607,1.185 1.075,2.261c-0.219,0.073 -1.814,0.306 -4.785,0.701c-2.461,-1.622 -3.701,-2.467 -3.719,-2.533c0.395,-3.154 0.629,-4.731 0.702,-4.731c2.57,-1.094 4.059,-1.704 4.466,-1.832zM323.223,152.47908c-0.049,0.121 -0.371,0.604 -0.966,1.449c0,0.255 0.358,0.383 1.075,0.383c0,0.036 0.52,0.124 1.559,0.264c0.285,-0.395 0.428,-0.626 0.428,-0.693c-0.091,-0.54 -0.288,-0.811 -0.592,-0.811z" data-paper-data="{&quot;origPos&quot;:null}" fill="#000000"/><path d="M337.852,150.26406c0.079,0.103 0.489,1.865 1.23,5.286h0.064c0,-0.079 0.45,-0.774 1.349,-2.087c0.377,0.255 1.094,0.808 2.151,1.659h0.128v-0.064c0.164,-2.37 0.285,-3.682 0.364,-3.937c2.504,0.127 3.755,0.231 3.755,0.31c-1.148,4.618 -1.762,7.018 -1.841,7.2c-0.383,0.043 -1.185,0.164 -2.406,0.365c-1.003,-1.574 -1.577,-2.413 -1.723,-2.516c-0.656,1.75 -1.066,2.713 -1.23,2.889h-2.461c-0.152,-0.048 -0.869,-1.628 -2.151,-4.739c-0.82,-1.738 -1.231,-2.68 -1.231,-2.826c0,-0.133 1.334,-0.647 4.002,-1.54z" data-paper-data="{&quot;origPos&quot;:null}" fill="#000000"/><path d="M349.272,150.26406c3.61,0.498 5.414,0.805 5.414,0.921c1.422,1.221 2.133,1.874 2.133,1.959c-0.577,1.805 -0.905,2.902 -0.984,3.291c0.577,1.282 0.905,2.047 0.984,2.296c0,0.073 -0.942,0.268 -2.825,0.584c-0.025,-0.104 -0.198,-0.334 -0.52,-0.693c-2.601,0.498 -4.001,0.747 -4.202,0.747l-1.385,-3.746l3.053,-1.613c0.492,0.079 1.261,0.119 2.306,0.119c0,-0.134 0.018,-0.538 0.055,-1.213c-0.176,0 -1.75,0.116 -4.721,0.347l-0.055,-0.119c0.413,-1.92 0.662,-2.88 0.747,-2.88zM351.168,155.62307c0,0.067 0.195,0.778 0.583,2.133h0.055c0.766,-0.498 1.149,-0.826 1.149,-0.984l0.118,-0.975c-0.146,0 -0.781,-0.058 -1.905,-0.174z" data-paper-data="{&quot;origPos&quot;:null}" fill="#000000"/><path d="M360.419,147.51106l4.011,0.711l-0.383,3.045c0.796,-0.043 1.379,-0.064 1.75,-0.064h0.583l0.128,-0.064l0.064,0.128c-0.128,1.847 -0.237,2.886 -0.328,3.117l-0.128,-0.073c-0.091,0 -0.911,-0.043 -2.461,-0.128c-0.085,1.428 -0.149,3.136 -0.191,5.123l-0.128,0.063c-1.957,-0.127 -3.123,-0.237 -3.5,-0.328l0.064,-0.255c0,-0.529 0.085,-2.169 0.255,-4.922c-1.641,-0.091 -2.461,-0.2 -2.461,-0.328c0.085,-2.029 0.195,-3.044 0.328,-3.044l2.397,0.456v-0.784c0,-0.638 -0.024,-1.501 -0.073,-2.589c0.049,0 0.073,-0.021 0.073,-0.064z" data-paper-data="{&quot;origPos&quot;:null}" fill="#000000"/><path d="M372.706,150.27306c2.752,1.416 4.278,2.242 4.575,2.479c-0.395,1.847 -0.629,2.798 -0.701,2.853h-5.761v0.1l1.613,1.996l2.534,-1.294c0.249,0.432 0.608,1.185 1.076,2.261c-0.219,0.073 -1.814,0.306 -4.785,0.701c-2.461,-1.622 -3.701,-2.467 -3.719,-2.533c0.395,-3.154 0.629,-4.731 0.702,-4.731c2.57,-1.094 4.059,-1.704 4.466,-1.832zM372.113,152.47908c-0.048,0.121 -0.37,0.604 -0.966,1.449c0,0.255 0.359,0.383 1.076,0.383c0,0.036 0.519,0.124 1.558,0.264c0.286,-0.395 0.429,-0.626 0.429,-0.693c-0.091,-0.54 -0.289,-0.811 -0.593,-0.811z" data-paper-data="{&quot;origPos&quot;:null}" fill="#000000"/><path d="M384.655,150.26406c1.203,0.674 1.941,1.112 2.215,1.312c-0.984,2.048 -1.513,3.09 -1.586,3.127h-0.064l-1.303,-1.14l-1.541,1.878l0.174,3.418c-0.079,0.073 -1.085,0.243 -3.017,0.51c-0.073,-0.522 -0.547,-3.083 -1.422,-7.683c0,-0.073 1.27,-0.261 3.81,-0.565c0.042,0.048 0.158,0.617 0.346,1.704c1.519,-1.707 2.315,-2.561 2.388,-2.561z" data-paper-data="{&quot;origPos&quot;:null}" fill="#000000"/><path d="M395.893,150.27306c2.309,0.62 3.534,0.997 3.674,1.13c1.269,1.799 1.983,2.835 2.141,3.108c-0.82,2.601 -1.291,3.901 -1.412,3.901c-2.735,0.638 -4.166,0.957 -4.293,0.957c-2.261,-1.318 -3.464,-2.053 -3.61,-2.205c-0.079,-2.455 -0.118,-3.81 -0.118,-4.065c-0.037,-0.073 -0.055,-0.128 -0.055,-0.164c2.333,-1.775 3.54,-2.662 3.619,-2.662zM395.665,153.60906c-0.036,0.243 -0.091,1.127 -0.164,2.652l2.033,0.456c0.486,-1.519 0.729,-2.33 0.729,-2.433c-1.616,-0.487 -2.482,-0.73 -2.598,-0.73z" data-paper-data="{&quot;origPos&quot;:null}" fill="#000000"/><path d="M409.082,150.26406c1.203,0.674 1.942,1.112 2.215,1.312c-0.984,2.048 -1.513,3.09 -1.586,3.127h-0.064l-1.303,-1.14l-1.54,1.878l0.173,3.418c-0.079,0.073 -1.085,0.243 -3.017,0.51c-0.073,-0.522 -0.547,-3.083 -1.422,-7.683c0,-0.073 1.27,-0.261 3.81,-0.565c0.042,0.048 0.158,0.617 0.346,1.704c1.519,-1.707 2.315,-2.561 2.388,-2.561z" data-paper-data="{&quot;origPos&quot;:null}" fill="#000000"/><path d="M37.991,173.59708l0.064,0.119l-1.231,6.526h0.064l3.136,-0.921v-3.691c0.012,-0.085 0.051,-0.128 0.118,-0.128c2.358,0.164 3.67,0.246 3.938,0.246c0,0.043 0.021,0.064 0.063,0.064c0,1.039 -0.328,3.193 -0.984,6.462c0,0.189 -0.942,0.332 -2.826,0.429c-0.097,-0.116 -0.179,-0.362 -0.246,-0.738c-2.412,0.492 -3.788,0.738 -4.129,0.738c-1.926,-1.434 -2.889,-2.173 -2.889,-2.215c0.328,-4.308 0.535,-6.544 0.62,-6.708h0.055c1.537,-0.043 2.953,-0.104 4.247,-0.183z" data-paper-data="{&quot;origPos&quot;:null}" fill="#000000"/><path d="M52.419,173.59708c1.75,1.118 2.717,1.762 2.899,1.933c-0.632,1.403 -0.994,2.105 -1.085,2.105l-3.318,-1.923h-0.118c0,0.061 -0.143,0.401 -0.428,1.021c3.056,1.646 4.584,2.491 4.584,2.534c-0.857,1.98 -1.34,3.026 -1.449,3.135l-5.186,0.301c-2.018,-1.337 -3.102,-2.042 -3.254,-2.115v-0.054c0,-0.152 0.301,-0.836 0.902,-2.051l4.047,2.105l0.301,-1.203c-2.504,-1.124 -3.992,-1.826 -4.466,-2.105v-0.128c0,-0.231 0.483,-1.255 1.449,-3.072z" data-paper-data="{&quot;origPos&quot;:null}" fill="#000000"/><path d="M57.478,169.94208l3.582,0.565c-0.45,1.72 -0.744,2.58 -0.884,2.58c-1.884,-0.128 -2.826,-0.252 -2.826,-0.374v-2.643c0.019,-0.085 0.061,-0.128 0.128,-0.128zM56.475,174.28108h0.055c2.771,0.504 4.156,0.799 4.156,0.884c-0.796,4.509 -1.279,7.021 -1.449,7.538h-2.889c-0.085,0 -0.128,-0.043 -0.128,-0.128z" data-paper-data="{&quot;origPos&quot;:null}" fill="#000000"/><path d="M69.455,173.59708l3.035,2.088c-0.213,3.463 -0.362,5.487 -0.447,6.07c-0.352,0.042 -1.425,0.106 -3.217,0.191l-0.064,-0.127l-0.319,-4.868l-0.128,-0.063c-1.16,0.249 -1.959,0.437 -2.397,0.565c0.122,2.072 0.182,3.57 0.182,4.493c-1.81,0.505 -2.801,0.757 -2.971,0.757c-1.179,-5.189 -1.768,-7.93 -1.768,-8.222c2.564,-0.334 3.956,-0.501 4.174,-0.501v0.064c0.043,0.03 0.107,0.662 0.192,1.896c2.351,-1.562 3.594,-2.343 3.728,-2.343z" data-paper-data="{&quot;origPos&quot;:null}" fill="#000000"/><path d="M80.192,173.62506c2.582,0.067 3.873,0.179 3.873,0.337c0.444,6.726 0.666,10.305 0.666,10.737c-1.957,1.246 -3.358,2.09 -4.202,2.534c-2.978,-0.936 -4.466,-1.471 -4.466,-1.604c0.96,-1.404 1.516,-2.115 1.668,-2.133c1.622,0.802 2.555,1.203 2.798,1.203l0.866,-1.139c-0.231,-0.942 -0.386,-1.498 -0.465,-1.668c-0.134,0 -1.781,0.267 -4.94,0.802c-1.732,-2.814 -2.598,-4.257 -2.598,-4.33c1.495,-2.388 2.406,-3.788 2.734,-4.202h0.064c0.176,0 1.489,0.289 3.938,0.866v-0.2c0,-0.237 -0.022,-0.617 -0.064,-1.14zM77.202,177.55306c0.085,0.188 0.352,1.191 0.802,3.008c0.565,-0.182 1.431,-0.517 2.598,-1.003c-0.225,-1.093 -0.338,-1.716 -0.338,-1.868l-0.328,-0.064h-0.401c-0.51,0 -1.288,-0.024 -2.333,-0.073z" data-paper-data="{&quot;origPos&quot;:null}" fill="#000000"/><path d="M93.07,170.84506l4.011,0.711l-0.383,3.044c0.796,-0.043 1.379,-0.064 1.75,-0.064h0.583l0.128,-0.064l0.064,0.128c-0.128,1.847 -0.237,2.886 -0.328,3.117l-0.128,-0.073c-0.091,0 -0.911,-0.042 -2.461,-0.127c-0.085,1.428 -0.149,3.135 -0.191,5.122l-0.128,0.064c-1.956,-0.128 -3.123,-0.237 -3.5,-0.328l0.064,-0.256c0,-0.528 0.085,-2.169 0.255,-4.921c-1.641,-0.092 -2.461,-0.201 -2.461,-0.329c0.085,-2.029 0.195,-3.044 0.328,-3.044l2.397,0.456v-0.784c0,-0.638 -0.024,-1.501 -0.072,-2.588c0.048,0 0.072,-0.022 0.072,-0.064z" data-paper-data="{&quot;origPos&quot;:null}" fill="#000000"/><path d="M104.272,170.84506c0.037,0.054 0.207,1.719 0.511,4.995c2.345,-0.718 3.594,-1.076 3.746,-1.076l2.324,1.586c-0.377,3.463 -0.623,5.487 -0.738,6.07l-3.227,0.11c0,-0.037 -0.021,-0.055 -0.064,-0.055l0.064,-0.228c0,-0.492 0.073,-1.987 0.219,-4.484c-0.887,-0.037 -1.547,-0.055 -1.978,-0.055h-0.228c0.261,2.777 0.392,4.29 0.392,4.539l-3.062,0.456c-0.116,-0.389 -0.796,-4.02 -2.042,-10.892c0,-0.195 0.474,-0.346 1.422,-0.456c1.197,-0.34 2.084,-0.51 2.661,-0.51z" data-paper-data="{&quot;origPos&quot;:null}" fill="#000000"/><path d="M116.878,173.60607c2.752,1.416 4.278,2.243 4.575,2.48c-0.395,1.847 -0.629,2.798 -0.702,2.852h-5.76v0.101l1.613,1.996l2.534,-1.294c0.249,0.431 0.608,1.184 1.076,2.26c-0.219,0.073 -1.814,0.307 -4.785,0.702c-2.461,-1.623 -3.701,-2.467 -3.719,-2.534c0.395,-3.154 0.629,-4.731 0.702,-4.731c2.57,-1.093 4.059,-1.704 4.466,-1.832zM116.285,175.81208c-0.048,0.122 -0.37,0.605 -0.966,1.449c0,0.256 0.359,0.383 1.076,0.383c0,0.037 0.519,0.125 1.558,0.265c0.286,-0.395 0.429,-0.626 0.429,-0.693c-0.092,-0.541 -0.289,-0.811 -0.593,-0.811z" data-paper-data="{&quot;origPos&quot;:null}" fill="#000000"/><path d="M131.488,173.60607c0.189,0.778 0.319,1.258 0.392,1.441c2.686,-0.614 4.105,-0.921 4.257,-0.921c1.829,2.631 2.743,4.004 2.743,4.12l-2.096,4.448l-4.512,-0.72v0.136c0.353,2.704 0.529,4.141 0.529,4.312c-0.043,0 -0.064,0.021 -0.064,0.063c-0.437,-0.042 -0.766,-0.063 -0.984,-0.063h-0.784c-0.456,0 -1.155,-0.022 -2.096,-0.064c-0.086,-0.255 -0.739,-4.135 -1.96,-11.64c0.206,-0.085 1.732,-0.455 4.575,-1.112zM131.817,177.33406c0.121,1.398 0.23,2.097 0.328,2.097c1.245,0.431 2.008,0.647 2.287,0.647l0.72,-3.136h-0.063c-0.711,0.043 -1.802,0.174 -3.272,0.392z" data-paper-data="{&quot;origPos&quot;:null}" fill="#2b70c2"/><path d="M141.205,173.59708c3.609,0.499 5.414,0.805 5.414,0.921c1.421,1.221 2.132,1.874 2.132,1.96c-0.577,1.804 -0.905,2.901 -0.984,3.29c0.577,1.282 0.905,2.048 0.984,2.297c0,0.073 -0.941,0.267 -2.825,0.583c-0.024,-0.103 -0.198,-0.334 -0.52,-0.693c-2.6,0.499 -4.001,0.748 -4.201,0.748l-1.386,-3.746l3.054,-1.614c0.492,0.079 1.26,0.119 2.306,0.119c0,-0.134 0.018,-0.538 0.054,-1.212c-0.176,0 -1.75,0.115 -4.721,0.346l-0.055,-0.118c0.413,-1.921 0.662,-2.881 0.748,-2.881zM143.1,178.95707c0,0.067 0.195,0.777 0.584,2.133h0.054c0.766,-0.499 1.149,-0.827 1.149,-0.985l0.118,-0.975c-0.146,0 -0.78,-0.058 -1.905,-0.173z" data-paper-data="{&quot;origPos&quot;:null}" fill="#2b70c2"/><path d="M154.548,173.59708l0.064,0.119l-1.23,6.526h0.063l3.136,-0.921v-3.691c0.012,-0.085 0.051,-0.128 0.118,-0.128c2.358,0.164 3.67,0.246 3.938,0.246c0,0.043 0.021,0.064 0.064,0.064c0,1.039 -0.328,3.193 -0.985,6.462c0,0.189 -0.942,0.332 -2.825,0.429c-0.097,-0.116 -0.18,-0.362 -0.246,-0.738c-2.413,0.492 -3.789,0.738 -4.129,0.738c-1.926,-1.434 -2.89,-2.173 -2.89,-2.215c0.329,-4.308 0.535,-6.544 0.62,-6.708h0.055c1.537,-0.043 2.953,-0.104 4.247,-0.183z" data-paper-data="{&quot;origPos&quot;:null}" fill="#2b70c2"/><path d="M168.977,173.59708c1.75,1.118 2.716,1.762 2.898,1.933c-0.632,1.403 -0.993,2.105 -1.085,2.105l-3.317,-1.923h-0.119c0,0.061 -0.143,0.401 -0.428,1.021c3.056,1.646 4.585,2.491 4.585,2.534c-0.857,1.98 -1.34,3.026 -1.45,3.135l-5.186,0.301c-2.017,-1.337 -3.102,-2.042 -3.254,-2.115v-0.054c0,-0.152 0.301,-0.836 0.903,-2.051l4.046,2.105l0.301,-1.203c-2.503,-1.124 -3.992,-1.826 -4.466,-2.105v-0.128c0,-0.231 0.483,-1.255 1.449,-3.072z" data-paper-data="{&quot;origPos&quot;:null}" fill="#2b70c2"/><path d="M177.945,173.60607c2.753,1.416 4.278,2.243 4.576,2.48c-0.395,1.847 -0.629,2.798 -0.702,2.852h-5.76v0.101l1.613,1.996l2.534,-1.294c0.249,0.431 0.607,1.184 1.075,2.26c-0.218,0.073 -1.813,0.307 -4.785,0.702c-2.461,-1.623 -3.7,-2.467 -3.719,-2.534c0.395,-3.154 0.629,-4.731 0.702,-4.731c2.571,-1.093 4.059,-1.704 4.466,-1.832zM177.353,175.81208c-0.049,0.122 -0.371,0.605 -0.966,1.449c0,0.256 0.358,0.383 1.075,0.383c0,0.037 0.52,0.125 1.559,0.265c0.286,-0.395 0.428,-0.626 0.428,-0.693c-0.091,-0.541 -0.288,-0.811 -0.592,-0.811z" data-paper-data="{&quot;origPos&quot;:null}" fill="#2b70c2"/><path d="M198.107,173.59708c1.483,0.614 2.762,1.191 3.837,1.732c-0.279,3.616 -0.459,5.593 -0.538,5.934c-1.786,0.443 -2.786,0.665 -2.998,0.665c0,-0.79 -0.061,-2.348 -0.183,-4.676c-0.674,0.067 -1.011,0.125 -1.011,0.173c0,0.231 0.039,1.55 0.118,3.956c0.037,0 0.055,0.021 0.055,0.064c0,0.073 -0.939,0.273 -2.817,0.602c-0.079,-0.098 -0.319,-1.577 -0.72,-4.439c-0.759,0.194 -1.139,0.334 -1.139,0.419l0.365,3.719c-0.073,0.079 -1.073,0.398 -2.999,0.957c-1.118,-3.956 -1.817,-6.611 -2.096,-7.966c2.108,-0.523 3.287,-0.784 3.536,-0.784c0.28,1.106 0.419,1.744 0.419,1.914h0.064c1.027,-0.948 1.744,-1.586 2.151,-1.914h0.064l1.914,1.376h0.064c1.197,-1.154 1.835,-1.732 1.914,-1.732z" data-paper-data="{&quot;origPos&quot;:null}" fill="#2b70c2"/><path d="M208.024,173.60607c2.752,1.416 4.277,2.243 4.575,2.48c-0.395,1.847 -0.629,2.798 -0.702,2.852h-5.76v0.101l1.613,1.996l2.534,-1.294c0.249,0.431 0.608,1.184 1.075,2.26c-0.218,0.073 -1.813,0.307 -4.785,0.702c-2.461,-1.623 -3.7,-2.467 -3.718,-2.534c0.395,-3.154 0.628,-4.731 0.701,-4.731c2.571,-1.093 4.059,-1.704 4.467,-1.832zM207.431,175.81208c-0.048,0.122 -0.371,0.605 -0.966,1.449c0,0.256 0.358,0.383 1.075,0.383c0,0.037 0.52,0.125 1.559,0.265c0.286,-0.395 0.428,-0.626 0.428,-0.693c-0.091,-0.541 -0.288,-0.811 -0.592,-0.811z" data-paper-data="{&quot;origPos&quot;:null}" fill="#2b70c2"/><path d="M221.522,173.59708l3.035,2.088c-0.212,3.463 -0.361,5.487 -0.446,6.07c-0.353,0.042 -1.425,0.106 -3.218,0.191l-0.063,-0.127l-0.319,-4.868l-0.128,-0.063c-1.161,0.249 -1.96,0.437 -2.397,0.565c0.121,2.072 0.182,3.57 0.182,4.493c-1.811,0.505 -2.801,0.757 -2.971,0.757c-1.179,-5.189 -1.768,-7.93 -1.768,-8.222c2.564,-0.334 3.955,-0.501 4.174,-0.501v0.064c0.043,0.03 0.106,0.662 0.191,1.896c2.352,-1.562 3.595,-2.343 3.728,-2.343z" data-paper-data="{&quot;origPos&quot;:null}" fill="#2b70c2"/><path d="M230.382,173.59708l0.063,0.119l-1.23,6.526h0.064l3.135,-0.921v-3.691c0.012,-0.085 0.052,-0.128 0.119,-0.128c2.357,0.164 3.67,0.246 3.937,0.246c0,0.043 0.021,0.064 0.064,0.064c0,1.039 -0.328,3.193 -0.984,6.462c0,0.189 -0.942,0.332 -2.826,0.429c-0.097,-0.116 -0.179,-0.362 -0.246,-0.738c-2.412,0.492 -3.789,0.738 -4.129,0.738c-1.926,-1.434 -2.889,-2.173 -2.889,-2.215c0.328,-4.308 0.534,-6.544 0.62,-6.708h0.054c1.538,-0.043 2.953,-0.104 4.248,-0.183z" data-paper-data="{&quot;origPos&quot;:null}" fill="#2b70c2"/><path d="M247.663,170.36207c0.061,0.006 0.364,0.638 0.911,1.895c-1.865,1.076 -2.813,1.635 -2.843,1.678l-1.094,6.963c0.772,0.334 1.549,0.723 2.333,1.167c-0.759,0.954 -1.282,1.561 -1.568,1.823c-2.144,-1.465 -3.25,-2.243 -3.317,-2.334c0.85,-5.286 1.337,-8.215 1.458,-8.786z" data-paper-data="{&quot;origPos&quot;:null}" fill="#000000"/><path d="M256.367,173.59708c1.75,1.118 2.716,1.762 2.899,1.933c-0.632,1.403 -0.994,2.105 -1.085,2.105l-3.318,-1.923h-0.118c0,0.061 -0.143,0.401 -0.428,1.021c3.056,1.646 4.584,2.491 4.584,2.534c-0.857,1.98 -1.34,3.026 -1.449,3.135l-5.186,0.301c-2.018,-1.337 -3.102,-2.042 -3.254,-2.115v-0.054c0,-0.152 0.301,-0.836 0.902,-2.051l4.047,2.105l0.301,-1.203c-2.504,-1.124 -3.992,-1.826 -4.466,-2.105v-0.128c0,-0.231 0.483,-1.255 1.449,-3.072z" data-paper-data="{&quot;origPos&quot;:null}" fill="#000000"/><path d="M264.744,173.60607c0.188,0.778 0.319,1.258 0.392,1.441c2.685,-0.614 4.104,-0.921 4.256,-0.921c1.829,2.631 2.744,4.004 2.744,4.12l-2.097,4.448l-4.512,-0.72v0.136c0.353,2.704 0.529,4.141 0.529,4.312c-0.042,0 -0.064,0.021 -0.064,0.063c-0.437,-0.042 -0.765,-0.063 -0.984,-0.063h-0.784c-0.456,0 -1.154,-0.022 -2.096,-0.064c-0.085,-0.255 -0.739,-4.135 -1.96,-11.64c0.207,-0.085 1.732,-0.455 4.576,-1.112zM265.072,177.33406c0.121,1.398 0.231,2.097 0.328,2.097c1.246,0.431 2.008,0.647 2.288,0.647l0.72,-3.136h-0.064c-0.711,0.043 -1.802,0.174 -3.272,0.392z" data-paper-data="{&quot;origPos&quot;:null}" fill="#000000"/><path d="M274.46,173.59708c3.609,0.499 5.414,0.805 5.414,0.921c1.422,1.221 2.133,1.874 2.133,1.96c-0.578,1.804 -0.906,2.901 -0.985,3.29c0.578,1.282 0.906,2.048 0.985,2.297c0,0.073 -0.942,0.267 -2.826,0.583c-0.024,-0.103 -0.197,-0.334 -0.519,-0.693c-2.601,0.499 -4.002,0.748 -4.202,0.748l-1.386,-3.746l3.054,-1.614c0.492,0.079 1.261,0.119 2.306,0.119c0,-0.134 0.018,-0.538 0.054,-1.212c-0.176,0 -1.75,0.115 -4.721,0.346l-0.055,-0.118c0.414,-1.921 0.663,-2.881 0.748,-2.881zM276.356,178.95707c0,0.067 0.194,0.777 0.583,2.133h0.055c0.765,-0.499 1.148,-0.827 1.148,-0.985l0.119,-0.975c-0.146,0 -0.781,-0.058 -1.905,-0.173z" data-paper-data="{&quot;origPos&quot;:null}" fill="#000000"/><path d="M286.464,173.60607c2.74,0.517 4.174,0.812 4.302,0.885v0.109c-0.59,1.665 -0.884,2.528 -0.884,2.588h-0.055c-0.152,0 -0.887,-0.237 -2.206,-0.71c-0.735,1.233 -1.103,1.892 -1.103,1.977l1.823,1.769c1.41,-1.325 2.127,-1.987 2.151,-1.987c1.1,1.44 1.65,2.248 1.65,2.424c-0.602,0.346 -1.65,1.027 -3.145,2.042c-2.892,-0.626 -4.454,-0.975 -4.684,-1.048l-1.431,-4.631z" data-paper-data="{&quot;origPos&quot;:null}" fill="#000000"/><path d="M298.221,173.60607c2.753,1.416 4.278,2.243 4.576,2.48c-0.395,1.847 -0.629,2.798 -0.702,2.852h-5.76v0.101l1.613,1.996l2.534,-1.294c0.249,0.431 0.608,1.184 1.075,2.26c-0.218,0.073 -1.813,0.307 -4.785,0.702c-2.461,-1.623 -3.7,-2.467 -3.718,-2.534c0.394,-3.154 0.628,-4.731 0.701,-4.731c2.571,-1.093 4.059,-1.704 4.466,-1.832zM297.629,175.81208c-0.049,0.122 -0.371,0.605 -0.966,1.449c0,0.256 0.358,0.383 1.075,0.383c0,0.037 0.52,0.125 1.559,0.265c0.286,-0.395 0.428,-0.626 0.428,-0.693c-0.091,-0.541 -0.288,-0.811 -0.592,-0.811z" data-paper-data="{&quot;origPos&quot;:null}" fill="#000000"/><path d="M308.649,171.61906c0.121,0.572 0.607,3.5 1.458,8.787c-0.067,0.091 -1.176,0.869 -3.327,2.333c-0.286,-0.261 -0.811,-0.869 -1.577,-1.823c0.79,-0.443 1.571,-0.832 2.343,-1.166l-1.094,-6.964c-0.03,-0.042 -0.981,-0.601 -2.853,-1.677c0.553,-1.258 0.857,-1.89 0.912,-1.896z" data-paper-data="{&quot;origPos&quot;:null}" fill="#000000"/><path d="M317.909,170.84506l4.01,0.711l-0.382,3.044c0.796,-0.043 1.379,-0.064 1.75,-0.064h0.583l0.127,-0.064l0.064,0.128c-0.127,1.847 -0.237,2.886 -0.328,3.117l-0.127,-0.073c-0.092,0 -0.912,-0.042 -2.461,-0.127c-0.085,1.428 -0.149,3.135 -0.192,5.122l-0.127,0.064c-1.957,-0.128 -3.124,-0.237 -3.5,-0.328l0.063,-0.256c0,-0.528 0.085,-2.169 0.256,-4.921c-1.641,-0.092 -2.461,-0.201 -2.461,-0.329c0.085,-2.029 0.194,-3.044 0.328,-3.044l2.397,0.456v-0.784c0,-0.638 -0.024,-1.501 -0.073,-2.588c0.049,0 0.073,-0.022 0.073,-0.064z" data-paper-data="{&quot;origPos&quot;:null}" fill="#000000"/><path d="M328.701,173.60607c2.309,0.62 3.533,0.997 3.673,1.131c1.27,1.798 1.984,2.834 2.142,3.108c-0.821,2.6 -1.292,3.901 -1.413,3.901c-2.734,0.638 -4.165,0.957 -4.293,0.957c-2.26,-1.319 -3.464,-2.054 -3.609,-2.206c-0.079,-2.455 -0.119,-3.81 -0.119,-4.065c-0.036,-0.073 -0.055,-0.128 -0.055,-0.164c2.334,-1.774 3.54,-2.662 3.619,-2.662zM328.473,176.94208c-0.037,0.243 -0.091,1.128 -0.164,2.653l2.032,0.455c0.486,-1.519 0.729,-2.33 0.729,-2.433c-1.616,-0.486 -2.482,-0.729 -2.597,-0.729z" data-paper-data="{&quot;origPos&quot;:null}" fill="#000000"/><path d="M347.331,173.59708c1.75,1.118 2.716,1.762 2.898,1.933c-0.632,1.403 -0.993,2.105 -1.084,2.105l-3.318,-1.923h-0.119c0,0.061 -0.142,0.401 -0.428,1.021c3.056,1.646 4.585,2.491 4.585,2.534c-0.857,1.98 -1.34,3.026 -1.45,3.135l-5.186,0.301c-2.017,-1.337 -3.102,-2.042 -3.254,-2.115v-0.054c0,-0.152 0.301,-0.836 0.903,-2.051l4.047,2.105l0.3,-1.203c-2.503,-1.124 -3.992,-1.826 -4.466,-2.105v-0.128c0,-0.231 0.483,-1.255 1.449,-3.072z" data-paper-data="{&quot;origPos&quot;:null}" fill="#2b70c2"/><path d="M355.133,173.59708c0.079,0.104 0.489,1.866 1.23,5.287h0.064c0,-0.079 0.45,-0.775 1.349,-2.087c0.377,0.255 1.094,0.808 2.151,1.658h0.128v-0.063c0.164,-2.37 0.285,-3.683 0.364,-3.938c2.504,0.128 3.756,0.231 3.756,0.31c-1.149,4.618 -1.763,7.018 -1.842,7.201c-0.382,0.042 -1.184,0.164 -2.406,0.364c-1.002,-1.574 -1.577,-2.412 -1.722,-2.516c-0.657,1.75 -1.067,2.714 -1.231,2.89h-2.461c-0.152,-0.049 -0.869,-1.629 -2.151,-4.74c-0.82,-1.738 -1.23,-2.679 -1.23,-2.825c0,-0.134 1.333,-0.647 4.001,-1.541z" data-paper-data="{&quot;origPos&quot;:null}" fill="#2b70c2"/><path d="M366.426,169.94208l3.582,0.565c-0.45,1.72 -0.744,2.58 -0.884,2.58c-1.884,-0.128 -2.826,-0.252 -2.826,-0.374v-2.643c0.018,-0.085 0.061,-0.128 0.128,-0.128zM365.423,174.28108h0.055c2.771,0.504 4.156,0.799 4.156,0.884c-0.796,4.509 -1.279,7.021 -1.449,7.538h-2.889c-0.085,0 -0.128,-0.043 -0.128,-0.128z" data-paper-data="{&quot;origPos&quot;:null}" fill="#2b70c2"/><path d="M373.034,170.84506l4.01,0.711l-0.382,3.044c0.796,-0.043 1.379,-0.064 1.75,-0.064h0.583l0.127,-0.064l0.064,0.128c-0.127,1.847 -0.237,2.886 -0.328,3.117l-0.127,-0.073c-0.092,0 -0.912,-0.042 -2.461,-0.127c-0.085,1.428 -0.149,3.135 -0.192,5.122l-0.127,0.064c-1.957,-0.128 -3.124,-0.237 -3.5,-0.328l0.063,-0.256c0,-0.528 0.085,-2.169 0.256,-4.921c-1.641,-0.092 -2.461,-0.201 -2.461,-0.329c0.085,-2.029 0.194,-3.044 0.328,-3.044l2.397,0.456v-0.784c0,-0.638 -0.024,-1.501 -0.073,-2.588c0.049,0 0.073,-0.022 0.073,-0.064z" data-paper-data="{&quot;origPos&quot;:null}" fill="#2b70c2"/><path d="M383.734,173.60607c2.741,0.517 4.175,0.812 4.303,0.885v0.109c-0.59,1.665 -0.885,2.528 -0.885,2.588h-0.054c-0.152,0 -0.887,-0.237 -2.206,-0.71c-0.735,1.233 -1.103,1.892 -1.103,1.977l1.823,1.769c1.41,-1.325 2.127,-1.987 2.151,-1.987c1.1,1.44 1.65,2.248 1.65,2.424c-0.602,0.346 -1.65,1.027 -3.145,2.042c-2.892,-0.626 -4.454,-0.975 -4.685,-1.048l-1.431,-4.631z" data-paper-data="{&quot;origPos&quot;:null}" fill="#2b70c2"/><path d="M394.408,170.84506c0.036,0.054 0.206,1.719 0.51,4.995c2.346,-0.718 3.594,-1.076 3.746,-1.076l2.324,1.586c-0.376,3.463 -0.622,5.487 -0.738,6.07l-3.226,0.11c0,-0.037 -0.022,-0.055 -0.064,-0.055l0.064,-0.228c0,-0.492 0.072,-1.987 0.218,-4.484c-0.887,-0.037 -1.546,-0.055 -1.978,-0.055h-0.227c0.261,2.777 0.391,4.29 0.391,4.539l-3.062,0.456c-0.115,-0.389 -0.796,-4.02 -2.042,-10.892c0,-0.195 0.474,-0.346 1.422,-0.456c1.197,-0.34 2.084,-0.51 2.662,-0.51z" data-paper-data="{&quot;origPos&quot;:null}" fill="#2b70c2"/><path d="M410.668,173.61608c0.085,0.012 0.128,0.054 0.128,0.127l-0.948,5.25c1.811,-0.213 2.716,-0.383 2.716,-0.51c0.34,-2.103 0.574,-3.282 0.702,-3.537c2.242,0.462 3.485,0.736 3.728,0.821c-1.307,4.49 -2.024,6.829 -2.151,7.018c-2.285,1.604 -3.57,2.491 -3.856,2.661c-0.085,0 -1.54,-0.358 -4.366,-1.075v-0.064c0.748,-1.647 1.212,-2.47 1.395,-2.47l2.78,1.394l1.33,-2.278c-1.197,0.298 -1.892,0.446 -2.087,0.446l-3.545,-1.841c0.431,-3.962 0.704,-5.942 0.82,-5.942z" data-paper-data="{&quot;origPos&quot;:null}" fill="#2b70c2"/><path d="M421.56,173.60607c2.309,0.62 3.533,0.997 3.673,1.131c1.27,1.798 1.984,2.834 2.142,3.108c-0.82,2.6 -1.291,3.901 -1.413,3.901c-2.734,0.638 -4.165,0.957 -4.293,0.957c-2.26,-1.319 -3.463,-2.054 -3.609,-2.206c-0.079,-2.455 -0.118,-3.81 -0.118,-4.065c-0.037,-0.073 -0.055,-0.128 -0.055,-0.164c2.333,-1.774 3.539,-2.662 3.618,-2.662zM421.332,176.94208c-0.036,0.243 -0.091,1.128 -0.164,2.653l2.033,0.455c0.486,-1.519 0.729,-2.33 0.729,-2.433c-1.617,-0.486 -2.482,-0.729 -2.598,-0.729z" data-paper-data="{&quot;origPos&quot;:null}" fill="#2b70c2"/><path d="M433.126,173.59708l0.064,0.119l-1.23,6.526h0.064l3.135,-0.921v-3.691c0.012,-0.085 0.052,-0.128 0.118,-0.128c2.358,0.164 3.671,0.246 3.938,0.246c0,0.043 0.021,0.064 0.064,0.064c0,1.039 -0.328,3.193 -0.985,6.462c0,0.189 -0.941,0.332 -2.825,0.429c-0.097,-0.116 -0.179,-0.362 -0.246,-0.738c-2.413,0.492 -3.789,0.738 -4.129,0.738c-1.926,-1.434 -2.889,-2.173 -2.889,-2.215c0.328,-4.308 0.534,-6.544 0.619,-6.708h0.055c1.537,-0.043 2.953,-0.104 4.247,-0.183z" data-paper-data="{&quot;origPos&quot;:null}" fill="#2b70c2"/><path d="M446.744,173.59708c1.203,0.675 1.941,1.112 2.214,1.313c-0.984,2.048 -1.513,3.09 -1.585,3.126h-0.064l-1.304,-1.139l-1.54,1.877l0.173,3.418c-0.079,0.073 -1.085,0.243 -3.017,0.511c-0.073,-0.523 -0.547,-3.084 -1.422,-7.684c0,-0.073 1.27,-0.261 3.81,-0.565c0.043,0.049 0.158,0.617 0.347,1.705c1.519,-1.708 2.315,-2.562 2.388,-2.562z" data-paper-data="{&quot;origPos&quot;:null}" fill="#2b70c2"/><path d="M36.651,196.94006c2.741,0.516 4.175,0.811 4.302,0.884v0.109c-0.589,1.665 -0.884,2.528 -0.884,2.589h-0.055c-0.151,0 -0.887,-0.237 -2.205,-0.711c-0.736,1.233 -1.103,1.893 -1.103,1.978l1.823,1.768c1.409,-1.325 2.127,-1.987 2.151,-1.987c1.1,1.44 1.65,2.248 1.65,2.424c-0.602,0.347 -1.65,1.027 -3.145,2.042c-2.892,-0.626 -4.454,-0.975 -4.685,-1.048l-1.431,-4.63z" data-paper-data="{&quot;origPos&quot;:null}" fill="#2b70c2"/><path d="M47.324,194.17806c0.037,0.055 0.207,1.72 0.511,4.995c2.345,-0.717 3.594,-1.076 3.746,-1.076l2.324,1.586c-0.377,3.464 -0.623,5.487 -0.738,6.071l-3.227,0.109c0,-0.037 -0.021,-0.055 -0.064,-0.055l0.064,-0.228c0,-0.492 0.073,-1.987 0.219,-4.484c-0.887,-0.036 -1.546,-0.055 -1.978,-0.055h-0.228c0.262,2.777 0.392,4.29 0.392,4.539l-3.062,0.456c-0.116,-0.389 -0.796,-4.019 -2.042,-10.892c0,-0.194 0.474,-0.346 1.422,-0.456c1.197,-0.34 2.084,-0.51 2.661,-0.51z" data-paper-data="{&quot;origPos&quot;:null}" fill="#2b70c2"/><path d="M56.147,196.93108c3.61,0.498 5.414,0.805 5.414,0.92c1.422,1.222 2.133,1.875 2.133,1.96c-0.577,1.805 -0.905,2.901 -0.984,3.29c0.577,1.282 0.905,2.048 0.984,2.297c0,0.073 -0.942,0.267 -2.825,0.583c-0.025,-0.103 -0.198,-0.334 -0.52,-0.692c-2.601,0.498 -4.001,0.747 -4.202,0.747l-1.385,-3.746l3.053,-1.613c0.492,0.079 1.261,0.118 2.306,0.118c0,-0.133 0.018,-0.538 0.055,-1.212c-0.176,0 -1.75,0.115 -4.721,0.346l-0.055,-0.118c0.413,-1.92 0.662,-2.88 0.747,-2.88zM58.043,202.29007c0,0.067 0.195,0.778 0.583,2.133h0.055c0.766,-0.498 1.149,-0.827 1.149,-0.985l0.118,-0.975c-0.146,0 -0.781,-0.058 -1.905,-0.173z" data-paper-data="{&quot;origPos&quot;:null}" fill="#2b70c2"/><path d="M71.113,196.93108c1.204,0.674 1.942,1.112 2.215,1.312c-0.984,2.048 -1.513,3.09 -1.586,3.126h-0.063l-1.304,-1.139l-1.54,1.878l0.173,3.418c-0.079,0.073 -1.085,0.243 -3.017,0.51c-0.073,-0.522 -0.547,-3.084 -1.422,-7.683c0,-0.073 1.27,-0.262 3.81,-0.566c0.043,0.049 0.158,0.617 0.346,1.705c1.519,-1.708 2.315,-2.561 2.388,-2.561z" data-paper-data="{&quot;origPos&quot;:null}" fill="#2b70c2"/><path d="M75.434,196.93108c3.609,0.498 5.414,0.805 5.414,0.92c1.422,1.222 2.133,1.875 2.133,1.96c-0.578,1.805 -0.906,2.901 -0.985,3.29c0.577,1.282 0.906,2.048 0.985,2.297c0,0.073 -0.942,0.267 -2.826,0.583c-0.024,-0.103 -0.197,-0.334 -0.519,-0.692c-2.601,0.498 -4.002,0.747 -4.202,0.747l-1.386,-3.746l3.054,-1.613c0.492,0.079 1.261,0.118 2.306,0.118c0,-0.133 0.018,-0.538 0.054,-1.212c-0.176,0 -1.75,0.115 -4.721,0.346l-0.055,-0.118c0.414,-1.92 0.663,-2.88 0.748,-2.88zM77.33,202.29007c0,0.067 0.194,0.778 0.583,2.133h0.055c0.765,-0.498 1.148,-0.827 1.148,-0.985l0.118,-0.975c-0.145,0 -0.78,-0.058 -1.904,-0.173z" data-paper-data="{&quot;origPos&quot;:null}" fill="#2b70c2"/><path d="M87.438,196.94006c2.74,0.516 4.174,0.811 4.302,0.884v0.109c-0.59,1.665 -0.884,2.528 -0.884,2.589h-0.055c-0.152,0 -0.887,-0.237 -2.206,-0.711c-0.735,1.233 -1.103,1.893 -1.103,1.978l1.823,1.768c1.41,-1.325 2.127,-1.987 2.151,-1.987c1.1,1.44 1.65,2.248 1.65,2.424c-0.602,0.347 -1.65,1.027 -3.145,2.042c-2.892,-0.626 -4.454,-0.975 -4.684,-1.048l-1.431,-4.63z" data-paper-data="{&quot;origPos&quot;:null}" fill="#2b70c2"/><path d="M96.753,194.17806l4.01,0.711l-0.383,3.044c0.796,-0.042 1.38,-0.064 1.75,-0.064h0.584l0.127,-0.063l0.064,0.127c-0.128,1.847 -0.237,2.887 -0.328,3.117l-0.128,-0.072c-0.091,0 -0.911,-0.043 -2.461,-0.128c-0.085,1.428 -0.148,3.135 -0.191,5.122l-0.128,0.064c-1.956,-0.127 -3.123,-0.237 -3.5,-0.328l0.064,-0.255c0,-0.529 0.085,-2.169 0.255,-4.922c-1.64,-0.091 -2.461,-0.201 -2.461,-0.328c0.086,-2.03 0.195,-3.044 0.329,-3.044l2.397,0.455v-0.784c0,-0.638 -0.025,-1.5 -0.073,-2.588c0.048,0 0.073,-0.021 0.073,-0.064z" data-paper-data="{&quot;origPos&quot;:null}" fill="#2b70c2"/><path d="M109.039,196.94006c2.753,1.416 4.278,2.242 4.576,2.479c-0.395,1.847 -0.629,2.798 -0.702,2.853h-5.761v0.1l1.614,1.996l2.534,-1.294c0.249,0.431 0.607,1.185 1.075,2.26c-0.219,0.073 -1.814,0.307 -4.785,0.702c-2.461,-1.622 -3.701,-2.467 -3.719,-2.534c0.395,-3.153 0.629,-4.73 0.702,-4.73c2.57,-1.094 4.059,-1.705 4.466,-1.832zM108.447,199.14508c-0.049,0.122 -0.371,0.605 -0.966,1.45c0,0.255 0.358,0.383 1.075,0.383c0,0.036 0.52,0.124 1.559,0.264c0.285,-0.395 0.428,-0.626 0.428,-0.693c-0.091,-0.541 -0.289,-0.811 -0.592,-0.811z" data-paper-data="{&quot;origPos&quot;:null}" fill="#2b70c2"/><path d="M120.988,196.93108c1.204,0.674 1.942,1.112 2.215,1.312c-0.984,2.048 -1.513,3.09 -1.586,3.126h-0.063l-1.304,-1.139l-1.54,1.878l0.173,3.418c-0.079,0.073 -1.085,0.243 -3.017,0.51c-0.073,-0.522 -0.547,-3.084 -1.422,-7.683c0,-0.073 1.27,-0.262 3.81,-0.566c0.043,0.049 0.158,0.617 0.346,1.705c1.519,-1.708 2.315,-2.561 2.388,-2.561z" data-paper-data="{&quot;origPos&quot;:null}" fill="#2b70c2"/><path d="M124.033,203.22908c0.042,0.024 0.99,0.097 2.843,0.219l0.037,0.073c-0.286,1.677 -0.468,2.515 -0.547,2.515h-2.115c-0.072,0 -0.17,-0.838 -0.291,-2.515c-0.025,0 -0.037,-0.073 -0.037,-0.219c0.073,-0.025 0.11,-0.049 0.11,-0.073z" data-paper-data="{&quot;origPos&quot;:null}" fill="#000000"/></g></g></g></svg>