<svg version="1.1" xmlns="http://www.w3.org/2000/svg" xmlns:xlink="http://www.w3.org/1999/xlink" width="477.64561" height="228.19883" viewBox="0,0,477.64561,228.19883"><defs><radialGradient cx="214.88963" cy="235.64005" r="156.08707" gradientUnits="userSpaceOnUse" id="color-1"><stop offset="0" stop-color="#627cb5"/><stop offset="1" stop-color="#496087"/></radialGradient><radialGradient cx="242.299" cy="223.04871" r="170.9209" gradientUnits="userSpaceOnUse" id="color-2"><stop offset="0" stop-color="#3f5075"/><stop offset="1" stop-color="#263149"/></radialGradient><radialGradient cx="242.89867" cy="221.10086" r="187.44332" gradientUnits="userSpaceOnUse" id="color-3"><stop offset="0" stop-color="#3f5075"/><stop offset="1" stop-color="#263149"/></radialGradient><radialGradient cx="78.6659" cy="328.6005" r="310.388" gradientUnits="userSpaceOnUse" id="color-4"><stop offset="0" stop-color="#627cb5"/><stop offset="1" stop-color="#496087"/></radialGradient><radialGradient cx="133.171" cy="303.5619" r="339.8859" gradientUnits="userSpaceOnUse" id="color-5"><stop offset="0" stop-color="#3f5075"/><stop offset="1" stop-color="#263149"/></radialGradient><radialGradient cx="134.36347" cy="299.6885" r="372.74168" gradientUnits="userSpaceOnUse" id="color-6"><stop offset="0" stop-color="#3f5075"/><stop offset="1" stop-color="#263149"/></radialGradient><radialGradient cx="344.7852" cy="196.54745" r="683.6208" gradientUnits="userSpaceOnUse" id="color-7"><stop offset="0" stop-color="#627cb5"/><stop offset="1" stop-color="#496087"/></radialGradient><radialGradient cx="374.3045" cy="152.65171" r="326.2427" gradientUnits="userSpaceOnUse" id="color-8"><stop offset="0" stop-color="#3f5075"/><stop offset="1" stop-color="#263149"/></radialGradient><radialGradient cx="374.94052" cy="149.2089" r="198.79563" gradientUnits="userSpaceOnUse" id="color-9"><stop offset="0" stop-color="#3f5075"/><stop offset="1" stop-color="#263149"/></radialGradient></defs><g transform="translate(23.86681,-146.80826)"><g data-paper-data="{&quot;isPaintingLayer&quot;:true}" fill-rule="nonzero" stroke-linejoin="miter" stroke-miterlimit="10" stroke-dasharray="" stroke-dashoffset="0" style="mix-blend-mode: normal"><g data-paper-data="{&quot;origPos&quot;:null}" stroke-width="1.64583"><path d="M168.0889,232.27052h143.69281v22.62948h-143.69281z" fill="url(#color-1)" stroke="#435a79" stroke-linecap="butt"/><path d="M240.83337,221.20722l76.33682,2.01151l-5.38848,10.05755l-21.05668,10.30949l-26.54156,-10.30949l-24.24819,14.58344l-25.74495,-15.08632l-25.04475,10.81236l-21.05668,-10.30949l-4.19103,-13.07481l76.9355,1.00575z" fill="url(#color-2)" stroke="url(#color-3)" stroke-linecap="round"/></g><g stroke-width="1.64583"><path d="M-14.4,321.9h285.7413v45h-285.7413z" fill="url(#color-4)" stroke="#435a79" stroke-linecap="butt"/><path d="M130.2565,299.9l151.8001,4l-10.7153,20l-41.8724,20.501l-52.7794,-20.501l-48.2189,29l-51.1953,-30l-49.8029,21.501l-41.8724,-20.501l-8.3341,-26z" fill="url(#color-5)" stroke="url(#color-6)" stroke-linecap="round"/></g><g data-paper-data="{&quot;origPos&quot;:null}"><path d="M295.15,165.48815h151.3953l-5.9385,202.78306l-144.9012,5.80869z" fill="url(#color-7)" stroke="#435a79" stroke-width="1.78172" stroke-linecap="butt"/><path d="M372.7501,149.39685l79.9601,3.55537l-5.7149,17.77678l-22.3319,18.22203l-27.149,-18.22203l-25.7167,25.77629l-27.3042,-26.66513l-26.5615,19.11088l-22.332,-18.22203l-4.4449,-23.10976z" fill="url(#color-8)" stroke="url(#color-9)" stroke-width="1.57976" stroke-linecap="round"/></g></g></g></svg>