<svg version="1.1" xmlns="http://www.w3.org/2000/svg" xmlns:xlink="http://www.w3.org/1999/xlink" width="437" height="90.79587" viewBox="0,0,437,90.79587"><defs><linearGradient x1="239.96075" y1="135.56279" x2="239.96075" y2="224.35867" gradientUnits="userSpaceOnUse" id="color-1"><stop offset="0" stop-color="#ffffff"/><stop offset="1" stop-color="#d8d8d8"/></linearGradient><linearGradient x1="239.96075" y1="135.5628" x2="239.96075" y2="224.35867" gradientUnits="userSpaceOnUse" id="color-2"><stop offset="0" stop-color="#343434"/><stop offset="1" stop-color="#090909"/></linearGradient><radialGradient cx="443.76725" cy="206.50539" r="17.9081" gradientUnits="userSpaceOnUse" id="color-3"><stop offset="0" stop-color="#ffffff"/><stop offset="1" stop-color="#e5e5e5"/></radialGradient></defs><g transform="translate(-21.46075,-134.5628)"><g data-paper-data="{&quot;isPaintingLayer&quot;:true}" fill-rule="nonzero" stroke-linejoin="miter" stroke-miterlimit="10" stroke-dasharray="" stroke-dashoffset="0" style="mix-blend-mode: normal"><path d="M22.46075,224.35867v-88.79587h435v88.79587z" data-paper-data="{&quot;origPos&quot;:null}" fill="url(#color-1)" stroke="url(#color-2)" stroke-width="2" stroke-linecap="butt"/><g data-paper-data="{&quot;origPos&quot;:null}"><path d="M444.26655,202.0594c2.5136,0 4.7909,1.0212 6.4406,2.6702c1.6489,1.6496 2.6702,3.9269 2.6702,6.4405c0,2.5136 -1.0213,4.791 -2.6702,6.4406c-1.6497,1.649 -3.927,2.6702 -6.4406,2.6702c-2.5136,0 -4.7909,-1.0212 -6.4406,-2.6702c-1.6489,-1.6496 -2.6701,-3.927 -2.6701,-6.4406c0,-2.5136 1.0212,-4.7909 2.6701,-6.4405c1.6497,-1.649 3.927,-2.6702 6.4406,-2.6702z" fill="url(#color-3)" stroke="#000000" stroke-width="2.0785" stroke-linecap="butt"/><path d="M441.23415,206.50959l5.6119,0.4503l1.7321,3.187l-3.6374,2.9446l3.3603,-0.5197l0.7967,3.4642l-7.4479,-0.0693l-1.9053,-2.4249l4.6766,-3.3256l-4.5727,-0.3464z" fill="#000000" stroke="none" stroke-width="0.69283" stroke-linecap="round"/></g><path d="M35.15288,149.85078c2.45803,0.54894 3.82426,0.86304 4.09873,0.94234v0.06403c-0.0854,2.20185 -0.14944,3.48272 -0.19212,3.84258c0.14027,0 0.77157,0.14639 1.89383,0.43914c1.00638,-3.10454 1.55227,-4.65681 1.63767,-4.65681c1.68342,0.75632 2.75384,1.2595 3.21129,1.50958v0.06403c-1.8481,4.30001 -2.89716,6.67263 -3.14724,7.11788c-0.46354,0.38425 -2.07986,1.85419 -4.84895,4.4098h-0.06405l-5.10511,-2.51596c0.46965,-0.8051 1.03688,-1.72915 1.70171,-2.77213c0.0305,0 0.82951,0.52454 2.39703,1.57362h0.06404c0.52454,-0.42695 1.15278,-1.03689 1.88469,-1.8298c0,-0.03659 -1.19547,-1.21071 -3.58639,-3.52235v-4.53788z" data-paper-data="{&quot;origPos&quot;:null}" fill="#000000" stroke="none" stroke-width="0.26458" stroke-linecap="butt"/><path d="M50.48653,152.62291c2.31773,0.62213 3.54676,1.00029 3.68703,1.13448c1.27475,1.80539 1.99142,2.84532 2.15001,3.11978c-0.82342,2.61051 -1.2961,3.91577 -1.41808,3.91577c-2.74469,0.64042 -4.18108,0.96064 -4.30916,0.96064c-2.26894,-1.32354 -3.47662,-2.06157 -3.62298,-2.21404c-0.07929,-2.46413 -0.11893,-3.82428 -0.11893,-4.08044c-0.03659,-0.07318 -0.0549,-0.12807 -0.0549,-0.16468c2.34213,-1.78099 3.55285,-2.67149 3.63215,-2.67149zM50.3127,155.97143c-0.03659,0.24398 -0.09149,1.13142 -0.16468,2.66234l2.04022,0.45745c0.48794,-1.52483 0.73191,-2.33907 0.73191,-2.44276c-1.62241,-0.48794 -2.49157,-0.73193 -2.60745,-0.73193z" data-paper-data="{&quot;origPos&quot;:null}" fill="#000000" stroke="none" stroke-width="0.26458" stroke-linecap="butt"/><path d="M62.09656,152.61376l0.06405,0.11891l-1.23511,6.55066h0.06405l3.14723,-0.92405v-3.70532c0.0122,-0.08538 0.05185,-0.12806 0.11893,-0.12806c2.36653,0.16469 3.68399,0.24703 3.95236,0.24703c0,0.04268 0.02135,0.06403 0.06405,0.06403c0,1.04298 -0.32936,3.20519 -0.98809,6.48661c0,0.18908 -0.9454,0.33241 -2.83617,0.43001c-0.09759,-0.11589 -0.17994,-0.36291 -0.24702,-0.74108c-2.42142,0.49406 -3.80291,0.74108 -4.14447,0.74108c-1.93348,-1.43944 -2.90022,-2.18051 -2.90022,-2.22321c0.32936,-4.32441 0.53674,-6.56895 0.62213,-6.73363h0.0549c1.54313,-0.04268 2.96426,-0.10367 4.26342,-0.18297z" data-paper-data="{&quot;origPos&quot;:null}" fill="#000000" stroke="none" stroke-width="0.26458" stroke-linecap="butt"/><path d="M77.43936,152.62291c2.7508,0.51844 4.19023,0.81425 4.31831,0.88745v0.10976c-0.59163,1.67121 -0.88744,2.53731 -0.88744,2.5983h-0.0549c-0.15248,0 -0.89049,-0.23787 -2.21404,-0.71361c-0.73802,1.23817 -1.10703,1.89994 -1.10703,1.98532l1.82979,1.7749c1.41503,-1.32964 2.13475,-1.99446 2.15915,-1.99446c1.10397,1.44553 1.65596,2.25674 1.65596,2.43362c-0.60383,0.34766 -1.65596,1.03078 -3.15638,2.04937c-2.90327,-0.62822 -4.47079,-0.97895 -4.70256,-1.05214l-1.43638,-4.64767z" data-paper-data="{&quot;origPos&quot;:null}" fill="#000000" stroke="none" stroke-width="0.26458" stroke-linecap="butt"/><path d="M85.44471,152.61376c3.62298,0.50013 5.43449,0.80815 5.43449,0.92404c1.42724,1.22595 2.14085,1.88163 2.14085,1.96703c-0.57943,1.81149 -0.90879,2.91242 -0.9881,3.30277c0.57943,1.28696 0.90879,2.05547 0.9881,2.30554c0,0.07318 -0.9454,0.26835 -2.83618,0.58552c-0.0244,-0.10369 -0.19823,-0.33546 -0.5215,-0.69532c-2.6105,0.50015 -4.01638,0.75022 -4.21767,0.75022l-1.39064,-3.76022l3.0649,-1.61937c0.49404,0.07927 1.26561,0.11891 2.31469,0.11891c0,-0.13419 0.01829,-0.53979 0.0549,-1.21682c-0.17688,0 -1.75659,0.11589 -4.73916,0.34766l-0.0549,-0.11891c0.41475,-1.92738 0.66483,-2.89107 0.75022,-2.89107zM87.34769,157.99335c0,0.06708 0.19518,0.7807 0.58553,2.14085h0.0549c0.76852,-0.50013 1.15277,-0.8295 1.15277,-0.98808l0.11894,-0.97894c-0.14639,0 -0.78375,-0.05794 -1.91212,-0.17383z" data-paper-data="{&quot;origPos&quot;:null}" fill="#000000" stroke="none" stroke-width="0.26458" stroke-linecap="butt"/><path d="M102.02262,152.61376l3.0466,2.09511c-0.21347,3.47661 -0.36291,5.50769 -0.44831,6.09321c-0.35376,0.04268 -1.43028,0.10673 -3.22957,0.19212l-0.06404,-0.12806l-0.32022,-4.88555l-0.12809,-0.06403c-1.16497,0.25008 -1.96703,0.43915 -2.40618,0.56723c0.12198,2.07986 0.18297,3.58334 0.18297,4.51044c-1.8176,0.50624 -2.81178,0.75937 -2.98255,0.75937c-1.18327,-5.2088 -1.7749,-7.9596 -1.7749,-8.25237c2.57391,-0.33545 3.97065,-0.50319 4.19023,-0.50319v0.06403c0.04269,0.0305 0.10674,0.66482 0.19212,1.90298c2.36043,-1.56752 3.60774,-2.35128 3.74192,-2.35128z" data-paper-data="{&quot;origPos&quot;:null}" fill="#000000" stroke="none" stroke-width="0.26458" stroke-linecap="butt"/><path d="M118.74691,152.61376l3.0466,2.09511c-0.21347,3.47661 -0.36291,5.50769 -0.44831,6.09321c-0.35376,0.04268 -1.43028,0.10673 -3.22957,0.19212l-0.06404,-0.12806l-0.32022,-4.88555l-0.12809,-0.06403c-1.16497,0.25008 -1.96703,0.43915 -2.40618,0.56723c0.12198,2.07986 0.18298,3.58334 0.18298,4.51044c-1.8176,0.50624 -2.81178,0.75937 -2.98256,0.75937c-1.18327,-5.2088 -1.77491,-7.9596 -1.77491,-8.25237c2.57391,-0.33545 3.97065,-0.50319 4.19023,-0.50319v0.06403c0.04269,0.0305 0.10674,0.66482 0.19212,1.90298c2.36043,-1.56752 3.60774,-2.35128 3.74192,-2.35128z" data-paper-data="{&quot;origPos&quot;:null}" fill="#000000" stroke="none" stroke-width="0.26458" stroke-linecap="butt"/><path d="M126.3863,152.62291c2.31773,0.62213 3.54675,1.00029 3.68703,1.13448c1.27475,1.80539 1.99143,2.84532 2.15001,3.11978c-0.82341,2.61051 -1.2961,3.91577 -1.41809,3.91577c-2.74469,0.64042 -4.18109,0.96064 -4.30916,0.96064c-2.26894,-1.32354 -3.4766,-2.06157 -3.62298,-2.21404c-0.0793,-2.46413 -0.11894,-3.82428 -0.11894,-4.08044c-0.0366,-0.07318 -0.0549,-0.12807 -0.0549,-0.16468c2.34213,-1.78099 3.55284,-2.67149 3.63214,-2.67149zM126.21247,155.97143c-0.0366,0.24398 -0.09148,1.13142 -0.16468,2.66234l2.04021,0.45745c0.48794,-1.52483 0.73191,-2.33907 0.73191,-2.44276c-1.62241,-0.48794 -2.49157,-0.73193 -2.60744,-0.73193z" data-paper-data="{&quot;origPos&quot;:null}" fill="#000000" stroke="none" stroke-width="0.26458" stroke-linecap="butt"/><path d="M137.07229,152.61376c0.0793,0.10369 0.491,1.87248 1.23511,5.30639h0.06405c0,-0.07927 0.45134,-0.77765 1.35404,-2.09511c0.37816,0.25617 1.09788,0.81121 2.15916,1.66511h0.12809v-0.06403c0.16468,-2.37874 0.28666,-3.69619 0.36596,-3.95236c2.51292,0.12807 3.76937,0.23177 3.76937,0.31107c-1.15277,4.63548 -1.76879,7.04469 -1.8481,7.22767c-0.38425,0.04268 -1.18936,0.16468 -2.41532,0.36596c-1.00638,-1.57971 -1.58277,-2.42142 -1.72915,-2.52511c-0.65872,1.75661 -1.07043,2.72334 -1.23511,2.90022h-2.47022c-0.15248,-0.04879 -0.8722,-1.63461 -2.15916,-4.75746c-0.82341,-1.74439 -1.23511,-2.68979 -1.23511,-2.83618c0,-0.13419 1.33881,-0.64958 4.01639,-1.54617z" data-paper-data="{&quot;origPos&quot;:null}" fill="#000000" stroke="none" stroke-width="0.26458" stroke-linecap="butt"/><path d="M155.3519,152.61376c1.49434,3.42781 2.29029,5.20576 2.38787,5.33383c0.73802,-2.79959 1.16802,-4.29086 1.29002,-4.47384c2.32994,0.21347 3.4949,0.39646 3.4949,0.54894v0.06404c-1.63461,4.48909 -2.51292,6.84037 -2.6349,7.05384c-1.8054,0.32936 -3.01305,0.53369 -3.62298,0.61299l-4.47384,-6.62385v-0.12806c0.04269,-0.07927 1.22902,-0.87523 3.55895,-2.38787z" data-paper-data="{&quot;origPos&quot;:null}" fill="#000000" stroke="none" stroke-width="0.26458" stroke-linecap="butt"/><path d="M164.76619,148.94502l3.59554,0.56723c-0.45134,1.72609 -0.74717,2.58916 -0.88744,2.58916c-1.89079,-0.12807 -2.83617,-0.25311 -2.83617,-0.3751v-2.6532c0.01829,-0.08538 0.06099,-0.12806 0.1281,-0.12806zM163.7598,153.29994h0.0549c2.78129,0.50624 4.17192,0.80204 4.17192,0.88744c-0.79901,4.52568 -1.2839,7.04775 -1.45469,7.56619h-2.90022c-0.0854,0 -0.12809,-0.04269 -0.12809,-0.12806z" data-paper-data="{&quot;origPos&quot;:null}" fill="#000000" stroke="none" stroke-width="0.26458" stroke-linecap="butt"/><path d="M176.04685,152.61376c1.7566,1.12226 2.72639,1.76879 2.90936,1.93958c-0.63433,1.40894 -0.99724,2.11341 -1.08873,2.11341l-3.33022,-1.93044h-0.11893c0,0.06098 -0.14333,0.40254 -0.42999,1.02468c3.06795,1.65292 4.60192,2.50072 4.60192,2.54342c-0.86,1.98837 -1.3449,3.03745 -1.45469,3.14723l-5.20576,0.30192c-2.02498,-1.34186 -3.1137,-2.04936 -3.26618,-2.12256v-0.05488c0,-0.15248 0.30192,-0.83866 0.90575,-2.05851l4.06213,2.11341l0.30192,-1.20767c-2.51292,-1.12837 -4.00724,-1.83283 -4.48298,-2.11341v-0.12807c0,-0.23178 0.48489,-1.25951 1.45469,-3.0832z" data-paper-data="{&quot;origPos&quot;:null}" fill="#000000" stroke="none" stroke-width="0.26458" stroke-linecap="butt"/><path d="M181.12452,148.94502l3.59554,0.56723c-0.45134,1.72609 -0.74716,2.58916 -0.88744,2.58916c-1.89079,-0.12807 -2.83617,-0.25311 -2.83617,-0.3751v-2.6532c0.01829,-0.08538 0.06099,-0.12806 0.12809,-0.12806zM180.11814,153.29994h0.0549c2.78129,0.50624 4.17192,0.80204 4.17192,0.88744c-0.79901,4.52568 -1.2839,7.04775 -1.45469,7.56619h-2.90022c-0.0854,0 -0.1281,-0.04269 -0.1281,-0.12806z" data-paper-data="{&quot;origPos&quot;:null}" fill="#000000" stroke="none" stroke-width="0.26458" stroke-linecap="butt"/><path d="M187.75753,149.85078l4.02555,0.71361l-0.38426,3.05575c0.79901,-0.04268 1.38454,-0.06403 1.75659,-0.06403h0.58554l0.12809,-0.06403l0.06405,0.12806c-0.12809,1.85419 -0.23788,2.89717 -0.32936,3.12894l-0.12809,-0.07318c-0.09149,0 -0.9149,-0.04268 -2.47022,-0.12806c-0.0854,1.43334 -0.14944,3.14725 -0.19212,5.14172l-0.1281,0.06403c-1.96397,-0.12809 -3.13503,-0.23788 -3.5132,-0.32936l0.06404,-0.25618c0,-0.53064 0.0854,-2.17745 0.25617,-4.94043c-1.64681,-0.09147 -2.47022,-0.20125 -2.47022,-0.32936c0.0854,-2.03716 0.19518,-3.05575 0.32936,-3.05575l2.40617,0.45745v-0.78681c0,-0.64044 -0.0244,-1.50654 -0.07319,-2.59832c0.04879,0 0.07319,-0.02135 0.07319,-0.06403z" data-paper-data="{&quot;origPos&quot;:null}" fill="#000000" stroke="none" stroke-width="0.26458" stroke-linecap="butt"/><path d="M203.63098,149.84161c1.72609,0.122 2.58915,0.23178 2.58915,0.32937c0.66481,1.78709 1.07042,2.92766 1.2168,3.4217h0.05489c0.15858,-0.34156 0.76546,-1.28085 1.82064,-2.81788h0.05488c1.65292,0.10369 2.47937,0.21652 2.47937,0.33852l1.49128,10.20109c0,0.06098 -1.30525,0.20736 -3.91575,0.43915l-0.05489,-0.10977c-0.14639,-3.09844 -0.21958,-4.99229 -0.21958,-5.6815h-0.05488l-2.2598,1.98531h-0.05488c-0.07318,-0.03659 -0.58857,-0.84474 -1.54618,-2.42447h-0.05488c-1.17716,3.42781 -1.82064,5.24846 -1.93042,5.46193h-0.10977c-2.10426,-0.95149 -3.29972,-1.52178 -3.5864,-1.71086v-0.05488c2.6105,-6.13589 3.97065,-9.2618 4.08044,-9.37769z" data-paper-data="{&quot;origPos&quot;:null}" fill="#2b70c2" stroke="none" stroke-width="0.26458" stroke-linecap="butt"/><path d="M217.8759,152.62291c2.31775,0.62213 3.54675,1.00029 3.68703,1.13448c1.27475,1.80539 1.99142,2.84532 2.15001,3.11978c-0.82342,2.61051 -1.2961,3.91577 -1.41808,3.91577c-2.74469,0.64042 -4.18108,0.96064 -4.30917,0.96064c-2.26894,-1.32354 -3.4766,-2.06157 -3.62298,-2.21404c-0.07927,-2.46413 -0.11892,-3.82428 -0.11892,-4.08044c-0.03659,-0.07318 -0.05488,-0.12807 -0.05488,-0.16468c2.34214,-1.78099 3.55285,-2.67149 3.63213,-2.67149zM217.70207,155.97143c-0.03659,0.24398 -0.09149,1.13142 -0.16468,2.66234l2.04022,0.45745c0.48794,-1.52483 0.73191,-2.33907 0.73191,-2.44276c-1.62241,-0.48794 -2.49156,-0.73193 -2.60745,-0.73193z" data-paper-data="{&quot;origPos&quot;:null}" fill="#2b70c2" stroke="none" stroke-width="0.26458" stroke-linecap="butt"/><path d="M228.23251,152.62291c2.31775,0.62213 3.54675,1.00029 3.68703,1.13448c1.27475,1.80539 1.99143,2.84532 2.15001,3.11978c-0.82342,2.61051 -1.2961,3.91577 -1.41808,3.91577c-2.74469,0.64042 -4.18108,0.96064 -4.30916,0.96064c-2.26894,-1.32354 -3.47661,-2.06157 -3.623,-2.21404c-0.07927,-2.46413 -0.11892,-3.82428 -0.11892,-4.08044c-0.03659,-0.07318 -0.05488,-0.12807 -0.05488,-0.16468c2.34214,-1.78099 3.55284,-2.67149 3.63214,-2.67149zM228.05869,155.97143c-0.03659,0.24398 -0.09149,1.13142 -0.16468,2.66234l2.04022,0.45745c0.48794,-1.52483 0.73191,-2.33907 0.73191,-2.44276c-1.62241,-0.48794 -2.49156,-0.73193 -2.60745,-0.73193z" data-paper-data="{&quot;origPos&quot;:null}" fill="#2b70c2" stroke="none" stroke-width="0.26458" stroke-linecap="butt"/><path d="M243.02639,152.61376l3.0466,2.09511c-0.21347,3.47661 -0.36291,5.50769 -0.44831,6.09321c-0.35376,0.04268 -1.43028,0.10673 -3.22958,0.19212l-0.06403,-0.12806l-0.32021,-4.88555l-0.12806,-0.06403c-1.16496,0.25008 -1.96702,0.43915 -2.40616,0.56723c0.12198,2.07986 0.18297,3.58334 0.18297,4.51044c-1.8176,0.50624 -2.81179,0.75937 -2.98256,0.75937c-1.18327,-5.2088 -1.7749,-7.9596 -1.7749,-8.25237c2.5739,-0.33545 3.97065,-0.50319 4.19023,-0.50319v0.06403c0.04268,0.0305 0.10672,0.66482 0.19212,1.90298c2.36043,-1.56752 3.60774,-2.35128 3.74193,-2.35128z" data-paper-data="{&quot;origPos&quot;:null}" fill="#2b70c2" stroke="none" stroke-width="0.26458" stroke-linecap="butt"/><path d="M258.77174,149.85078c2.18355,1.58582 3.45526,2.56475 3.81512,2.9368c-0.70141,2.07377 -1.05213,3.1442 -1.05213,3.21129c0.17077,0.17079 0.63128,0.75937 1.38148,1.76575v0.10977c-1.13447,2.00057 -1.79624,3.10761 -1.98532,3.32108l-7.58449,0.55809c-0.11589,-0.45136 -0.68921,-3.95845 -1.72,-10.52131zM255.78003,152.67781l0.32936,3.26618c1.61022,-0.39037 2.42142,-0.61298 2.43362,-0.66788c0.07318,-0.18299 0.24091,-0.77462 0.5032,-1.7749zM257.10663,157.10589h-0.60384c-0.07927,0.0122 -0.11891,0.04879 -0.11891,0.10976c-0.03659,0.7929 -0.05489,1.38148 -0.05489,1.76574c-0.03659,0.19518 -0.05488,0.30803 -0.05488,0.33853l2.88192,-0.44831l-0.05488,-0.27446v-0.32937c0,-0.26227 -0.0183,-0.66787 -0.05489,-1.21681c-0.87221,0.03659 -1.51873,0.05489 -1.93958,0.05489z" data-paper-data="{&quot;origPos&quot;:null}" fill="#2b70c2" stroke="none" stroke-width="0.26458" stroke-linecap="butt"/><path d="M265.24007,152.61376c3.623,0.50013 5.43449,0.80815 5.43449,0.92404c1.42723,1.22595 2.14085,1.88163 2.14085,1.96703c-0.57943,1.81149 -0.90879,2.91242 -0.98808,3.30277c0.57943,1.28696 0.90879,2.05547 0.98808,2.30554c0,0.07318 -0.9454,0.26835 -2.83617,0.58552c-0.02439,-0.10369 -0.19823,-0.33546 -0.52149,-0.69532c-2.6105,0.50015 -4.01639,0.75022 -4.21768,0.75022l-1.39064,-3.76022l3.06491,-1.61937c0.49404,0.07927 1.2656,0.11891 2.31468,0.11891c0,-0.13419 0.01829,-0.53979 0.05488,-1.21682c-0.17688,0 -1.75659,0.11589 -4.73917,0.34766l-0.05488,-0.11891c0.41476,-1.92738 0.66483,-2.89107 0.75021,-2.89107zM267.14306,157.99335c0,0.06708 0.19518,0.7807 0.58553,2.14085h0.05488c0.7685,-0.50013 1.15276,-0.8295 1.15276,-0.98808l0.11891,-0.97894c-0.14639,0 -0.78376,-0.05794 -1.91213,-0.17383z" data-paper-data="{&quot;origPos&quot;:null}" fill="#2b70c2" stroke="none" stroke-width="0.26458" stroke-linecap="butt"/><path d="M281.07691,152.61376c1.75661,1.12226 2.72639,1.76879 2.90938,1.93958c-0.63433,1.40894 -0.99724,2.11341 -1.08873,2.11341l-3.33023,-1.93044h-0.11891c0,0.06098 -0.14333,0.40254 -0.43001,1.02468c3.06795,1.65292 4.60193,2.50072 4.60193,2.54342c-0.86,1.98837 -1.34491,3.03745 -1.45469,3.14723l-5.20575,0.30192c-2.02498,-1.34186 -3.11371,-2.04936 -3.26619,-2.12256v-0.05488c0,-0.15248 0.30192,-0.83866 0.90574,-2.05851l4.06214,2.11341l0.30192,-1.20767c-2.5129,-1.12837 -4.00724,-1.83283 -4.48299,-2.11341v-0.12807c0,-0.23178 0.48489,-1.25951 1.45469,-3.0832z" data-paper-data="{&quot;origPos&quot;:null}" fill="#2b70c2" stroke="none" stroke-width="0.26458" stroke-linecap="butt"/><path d="M290.07949,152.62291c2.76298,1.42114 4.29392,2.25065 4.59278,2.48852c-0.39645,1.85419 -0.63128,2.80873 -0.70447,2.86363h-5.78214v0.10062l1.61937,2.00362l2.5434,-1.29915c0.25007,0.43305 0.60993,1.18936 1.07958,2.26894c-0.21958,0.07318 -1.82063,0.308 -4.80319,0.70447c-2.47022,-1.62851 -3.71448,-2.47632 -3.73278,-2.54342c0.39644,-3.16553 0.63127,-4.7483 0.70446,-4.7483c2.58001,-1.09789 4.07433,-1.71087 4.48299,-1.83895zM289.48482,154.83694c-0.04879,0.122 -0.37206,0.60689 -0.9698,1.45469c0,0.25617 0.35986,0.38425 1.07958,0.38425c0,0.03659 0.52149,0.12503 1.56447,0.26532c0.28668,-0.39644 0.43001,-0.62822 0.43001,-0.69532c-0.09147,-0.54283 -0.28971,-0.81426 -0.59469,-0.81426z" data-paper-data="{&quot;origPos&quot;:null}" fill="#2b70c2" stroke="none" stroke-width="0.26458" stroke-linecap="butt"/><path d="M307.34358,149.85078c2.19575,1.11007 3.32412,1.6651 3.38511,1.6651c0,0.09757 -0.45745,0.97892 -1.37233,2.64405h-0.06403c-0.07318,0 -1.1253,-0.4971 -3.15638,-1.49128l-1.03385,1.38148c1.7505,0.84171 3.87611,1.91518 6.37683,3.22045c-1.13448,2.01887 -1.93958,3.36071 -2.41532,4.02553l-5.16916,0.45745c-2.36043,-1.59193 -3.60774,-2.41532 -3.74192,-2.47022v-0.06403c0,-0.17077 0.4788,-0.95454 1.43638,-2.35128h0.11892c0.37815,0.22568 1.56447,0.87526 3.55895,1.94873l1.20766,-1.37234c-3.66568,-1.86639 -5.69675,-2.92156 -6.09321,-3.16554v-0.05489c1.16496,-2.26894 1.79929,-3.41868 1.90298,-3.44917c3.03136,-0.61602 4.71782,-0.92403 5.05938,-0.92403z" data-paper-data="{&quot;origPos&quot;:null}" fill="#2b70c2" stroke="none" stroke-width="0.26458" stroke-linecap="butt"/><path d="M316.04423,152.62291c2.75079,0.51844 4.19023,0.81425 4.3183,0.88745v0.10976c-0.59163,1.67121 -0.88744,2.53731 -0.88744,2.5983h-0.05488c-0.15248,0 -0.8905,-0.23787 -2.21404,-0.71361c-0.73802,1.23817 -1.10703,1.89994 -1.10703,1.98532l1.8298,1.7749c1.41503,-1.32964 2.13476,-1.99446 2.15915,-1.99446c1.10398,1.44553 1.65598,2.25674 1.65598,2.43362c-0.60384,0.34766 -1.65598,1.03078 -3.1564,2.04937c-2.90327,-0.62822 -4.4708,-0.97895 -4.70256,-1.05214l-1.43638,-4.64767z" data-paper-data="{&quot;origPos&quot;:null}" fill="#2b70c2" stroke="none" stroke-width="0.26458" stroke-linecap="butt"/><path d="M329.22789,152.61376c1.20767,0.67703 1.94875,1.11616 2.22321,1.31745c-0.98809,2.05545 -1.51872,3.10148 -1.59192,3.13809h-0.06403l-1.30831,-1.14362l-1.54617,1.88468l0.17382,3.43086c-0.07927,0.07318 -1.08872,0.24397 -3.0283,0.51235c-0.07318,-0.52453 -0.54892,-3.09539 -1.42724,-7.71258c0,-0.07318 1.27475,-0.26226 3.82426,-0.56723c0.04268,0.04879 0.15857,0.61908 0.34767,1.71086c1.52483,-1.71391 2.32382,-2.57085 2.39702,-2.57085z" data-paper-data="{&quot;origPos&quot;:null}" fill="#2b70c2" stroke="none" stroke-width="0.26458" stroke-linecap="butt"/><path d="M333.5645,152.61376c3.623,0.50013 5.43448,0.80815 5.43448,0.92404c1.42723,1.22595 2.14085,1.88163 2.14085,1.96703c-0.57943,1.81149 -0.90879,2.91242 -0.98809,3.30277c0.57945,1.28696 0.9088,2.05547 0.98809,2.30554c0,0.07318 -0.94539,0.26835 -2.83617,0.58552c-0.02439,-0.10369 -0.19823,-0.33546 -0.5215,-0.69532c-2.6105,0.50015 -4.01639,0.75022 -4.21767,0.75022l-1.39065,-3.76022l3.06489,-1.61937c0.49406,0.07927 1.26561,0.11891 2.3147,0.11891c0,-0.13419 0.01829,-0.53979 0.05488,-1.21682c-0.17688,0 -1.7566,0.11589 -4.73916,0.34766l-0.05488,-0.11891c0.41476,-1.92738 0.66483,-2.89107 0.75022,-2.89107zM335.46747,157.99335c0,0.06708 0.19518,0.7807 0.58554,2.14085h0.05488c0.7685,-0.50013 1.15276,-0.8295 1.15276,-0.98808l0.11891,-0.97894c-0.14639,0 -0.78377,-0.05794 -1.91214,-0.17383z" data-paper-data="{&quot;origPos&quot;:null}" fill="#2b70c2" stroke="none" stroke-width="0.26458" stroke-linecap="butt"/><path d="M342.01813,149.85993c1.86639,0.03659 3.23568,0.05489 4.10787,0.05489c0.07927,0 0.3202,3.74498 0.72278,11.23492c-0.31106,0.07927 -1.39674,0.28055 -3.25704,0.60384c-0.09147,0 -0.39339,-2.29335 -0.90575,-6.88002c-0.04268,-0.10978 -0.26531,-1.78099 -0.66787,-5.01362z" data-paper-data="{&quot;origPos&quot;:null}" fill="#2b70c2" stroke="none" stroke-width="0.26458" stroke-linecap="butt"/><path d="M349.2641,152.61376c3.623,0.50013 5.43449,0.80815 5.43449,0.92404c1.42725,1.22595 2.14087,1.88163 2.14087,1.96703c-0.57945,1.81149 -0.9088,2.91242 -0.98809,3.30277c0.57943,1.28696 0.90879,2.05547 0.98809,2.30554c0,0.07318 -0.9454,0.26835 -2.83619,0.58552c-0.02439,-0.10369 -0.19822,-0.33546 -0.52148,-0.69532c-2.61052,0.50015 -4.0164,0.75022 -4.21769,0.75022l-1.39063,-3.76022l3.0649,-1.61937c0.49404,0.07927 1.26561,0.11891 2.31469,0.11891c0,-0.13419 0.01829,-0.53979 0.05488,-1.21682c-0.17688,0 -1.75659,0.11589 -4.73915,0.34766l-0.05488,-0.11891c0.41476,-1.92738 0.66483,-2.89107 0.7502,-2.89107zM351.16709,157.99335c0,0.06708 0.19518,0.7807 0.58553,2.14085h0.05489c0.76851,-0.50013 1.15277,-0.8295 1.15277,-0.98808l0.11892,-0.97894c-0.14637,0 -0.78375,-0.05794 -1.91213,-0.17383z" data-paper-data="{&quot;origPos&quot;:null}" fill="#2b70c2" stroke="none" stroke-width="0.26458" stroke-linecap="butt"/><path d="M364.22267,152.61376h0.03659c1.62851,0.95758 2.50683,1.45773 2.63491,1.50042v0.08232c-0.42084,0.48184 -1.19547,1.31746 -2.32384,2.50682c2.21406,0.82342 3.45832,1.3205 3.73278,1.49128l-2.06766,2.55256c-1.39674,-1.19547 -2.28724,-1.94263 -2.67149,-2.2415c-0.9454,1.842 -1.53399,2.92463 -1.76575,3.24789h-0.03659c-1.7505,-0.61604 -2.70198,-0.98199 -2.85446,-1.09788v-0.04573l2.41532,-3.15638c-2.24454,-0.9271 -3.4461,-1.46994 -3.60469,-1.62852c0.98809,-1.6773 1.54312,-2.57086 1.6651,-2.68064c0.0183,0.04268 1.10397,0.78985 3.25703,2.24149c0.76241,-1.40894 1.29,-2.33298 1.58277,-2.77212z" data-paper-data="{&quot;origPos&quot;:null}" fill="#2b70c2" stroke="none" stroke-width="0.26458" stroke-linecap="butt"/><path d="M373.34419,152.63206c0.08538,0.0122 0.12806,0.05488 0.12806,0.12806l-0.95149,5.26979c1.8176,-0.21347 2.72639,-0.38426 2.72639,-0.51233c0.34156,-2.11037 0.57638,-3.29364 0.70447,-3.5498c2.25065,0.46355 3.49794,0.73802 3.74192,0.82342c-1.31135,4.50738 -2.03107,6.85562 -2.15916,7.04469c-2.29334,1.61022 -3.58334,2.50072 -3.87,2.67149c-0.08538,0 -1.54616,-0.35985 -4.38235,-1.07958v-0.06403c0.7502,-1.65292 1.2168,-2.47937 1.39978,-2.47937l2.79044,1.39979l1.33575,-2.28725c-1.20157,0.29887 -1.89994,0.44831 -2.09512,0.44831l-3.55894,-1.84808c0.43305,-3.97676 0.70751,-5.96513 0.8234,-5.96513z" data-paper-data="{&quot;origPos&quot;:null}" fill="#2b70c2" stroke="none" stroke-width="0.26458" stroke-linecap="butt"/><path d="M384.6157,150.18929l0.03659,0.07317c-0.60993,5.38568 -0.95148,8.21577 -1.02468,8.49024c-1.29305,-0.122 -2.11037,-0.20739 -2.45193,-0.25618v-0.03659l-0.58553,-7.64853c0.14637,-0.04879 1.48823,-0.25617 4.02553,-0.62213zM380.99272,158.93569c0.04268,0.02439 0.99417,0.09758 2.85447,0.21958l0.03659,0.07317c-0.28668,1.6834 -0.46965,2.52511 -0.54894,2.52511h-2.12256c-0.07318,0 -0.17077,-0.84171 -0.29277,-2.52511c-0.02439,0 -0.03659,-0.07319 -0.03659,-0.21957c0.07318,-0.02439 0.10976,-0.04879 0.10976,-0.07318z" data-paper-data="{&quot;origPos&quot;:null}" fill="#000000" stroke="none" stroke-width="0.26458" stroke-linecap="butt"/></g></g></svg>