<svg version="1.1" xmlns="http://www.w3.org/2000/svg" xmlns:xlink="http://www.w3.org/1999/xlink" width="441.55828" height="91.66968" viewBox="0,0,441.55828,91.66968"><defs><linearGradient x1="25.25" y1="260.1943" x2="25.25" y2="339.8057" gradientUnits="userSpaceOnUse" id="color-1"><stop offset="0" stop-color="#ffffff"/><stop offset="1" stop-color="#ffffff"/></linearGradient></defs><g transform="translate(-19.22086,-254.16516)"><g data-paper-data="{&quot;isPaintingLayer&quot;:true}" fill-rule="nonzero" stroke-linecap="butt" stroke-linejoin="miter" stroke-miterlimit="10" stroke-dasharray="" stroke-dashoffset="0" style="mix-blend-mode: normal"><path d="M25.25,260.1943h429.5v79.6114h-429.5z" fill="#ffffff" stroke="url(#color-1)" stroke-width="12.05828"/><g stroke="none"><path d="M442.7369,256.0052c3.8844,0 7.4038,1.5777 9.9531,4.1262c2.5485,2.5493 4.1262,6.0687 4.1262,9.9531c0,3.8844 -1.5777,7.4038 -4.1262,9.9531c-2.5493,2.5485 -6.0687,4.1262 -9.9531,4.1262c-3.8844,0 -7.4038,-1.5777 -9.9531,-4.1262c-2.5485,-2.5493 -4.1262,-6.0687 -4.1262,-9.9531c0,-3.8844 1.5777,-7.4038 4.1262,-9.9531c2.5493,-2.5485 6.0687,-4.1262 9.9531,-4.1262z" fill="#ffdfc0" stroke-width="0.75089"/><text transform="translate(432.4498,275.97906) scale(0.78926,0.78926)" font-size="22" xml:space="preserve" fill="#ff7e1b" fill-rule="nonzero" stroke="none" stroke-width="1" stroke-linecap="butt" stroke-linejoin="miter" stroke-miterlimit="10" stroke-dasharray="" stroke-dashoffset="0" font-family="Sans Serif" font-weight="400" text-anchor="start" style="mix-blend-mode: normal"><tspan x="0" dy="0">2P</tspan></text></g><g fill="#2392d1" stroke="none" stroke-width="0.26458"><path d="M42.4089,263.58252c0.02163,0.04718 0.04325,0.09436 0.06488,0.14155c-0.18775,2.75918 -0.32831,4.13925 -0.42267,4.13925c-0.02163,0 -0.04325,0 -0.06488,0c-2.98329,-0.23886 -4.64548,-0.37942 -4.9846,-0.42267c0,3.20347 0,6.40793 0,9.61141c0,0.17398 -0.67923,0.28899 -2.03768,0.34699c0,0.05111 -0.76868,0.1445 -2.308,0.28211c-0.02556,-0.04718 -0.05013,-0.09436 -0.07569,-0.14056c0.33224,-5.73657 0.54554,-9.12484 0.63893,-10.16481c-1.14122,0.18087 -2.82405,0.41186 -5.04948,0.69299c-0.6576,-2.45642 -0.98591,-3.71658 -0.98591,-3.78146c0,-0.09436 5.07503,-0.32929 15.2251,-0.70478z"/><path d="M47.97837,266.8666c2.74541,0.73624 4.20118,1.18447 4.3673,1.34371c1.50983,2.13794 2.35911,3.36959 2.54686,3.69496c-0.9751,3.0924 -1.53539,4.63762 -1.67988,4.63762c-3.25066,0.75885 -4.95216,1.13827 -5.10354,1.13827c-2.68742,-1.56782 -4.11861,-2.44168 -4.29161,-2.62254c-0.09338,-2.91842 -0.14056,-4.52949 -0.14056,-4.83323c-0.04325,-0.0865 -0.06488,-0.15138 -0.06488,-0.19463c2.77392,-2.10944 4.20806,-3.16416 4.30144,-3.16416c0.02163,0 0.04325,0 0.06488,0zM47.77293,270.83285c-0.04325,0.28899 -0.10813,1.33978 -0.19463,3.15334l2.41612,0.54161c0.57798,-1.80668 0.86697,-2.77097 0.86697,-2.89384c-1.92169,-0.57798 -2.95085,-0.86697 -3.08847,-0.86697c0,0.02163 0,0.04325 0,0.06488z"/><path d="M57.52588,266.85579c4.29063,0.59174 6.43644,0.95642 6.43644,1.09404c1.6907,1.45184 2.53604,2.22838 2.53604,2.32962c-0.68611,2.14581 -1.07634,3.4502 -1.17071,3.91219c0.68709,1.52457 1.07634,2.4348 1.17071,2.73067c0,0.0865 -1.11959,0.31848 -3.35977,0.69397c-0.02851,-0.12287 -0.23395,-0.39712 -0.6173,-0.82372c-3.0924,0.59273 -4.75754,0.8886 -4.99541,0.8886l-1.64744,-4.4538c1.21003,-0.63991 2.42005,-1.27883 3.63008,-1.91776c0.58585,0.09338 1.49902,0.14056 2.74148,0.14056c0,-0.15924 0.02261,-0.63991 0.06586,-1.44102c-0.21035,0 -2.08093,0.13663 -5.6137,0.41186l-0.06488,-0.14155c0.49148,-2.28244 0.78735,-3.42366 0.8886,-3.42366zM59.77981,273.22735c0,0.07962 0.231,0.92497 0.69299,2.53604c0.02261,0 0.04423,0 0.06586,0c0.91022,-0.59273 1.36533,-0.98296 1.36533,-1.17071c0.0462,-0.3863 0.09338,-0.77261 0.14056,-1.1599c-0.173,0 -0.92792,-0.06782 -2.26475,-0.20544z"/><path d="M74.09469,263.57171c0.02163,0 0.04325,0 0.06488,0c3.2654,0.27523 4.8981,0.48755 4.8981,0.63991c0.48067,4.25131 0.96134,8.50262 1.44102,12.75394c0,0.09436 -1.44102,0.33224 -4.32307,0.7156c-0.02163,-0.04718 -0.04325,-0.09436 -0.06488,-0.14056c0,-0.38729 0,-0.77359 0,-1.1599c-2.48591,0.67136 -4.19037,1.10485 -5.11534,1.30046c-2.19594,-3.10616 -3.34797,-4.76049 -3.45708,-4.96298c1.61894,-2.94004 2.48198,-4.42923 2.59011,-4.46461l4.5403,0.21625c-0.09338,-0.55636 -0.28506,-2.18906 -0.57405,-4.8981zM72.07864,271.34203c0.73034,2.23231 1.18545,3.4561 1.36632,3.67333c0.71855,-0.62516 1.43709,-1.25033 2.15564,-1.87451c-0.22313,-1.29358 -0.38925,-1.94037 -0.49836,-1.94037c-0.96035,0 -1.92169,0 -2.88205,0c-0.09436,0.01474 -0.14155,0.06193 -0.14155,0.14155z"/><path d="M92.57045,266.8666c0.22412,0.92398 0.37942,1.49509 0.46691,1.71134c3.19266,-0.72936 4.87943,-1.09404 5.06029,-1.09404c2.17431,3.12779 3.26147,4.76049 3.26147,4.8981c-0.8306,1.76245 -1.66121,3.52589 -2.49181,5.28834c-1.78801,-0.28506 -3.57602,-0.5711 -5.36403,-0.85616c0,0.05406 0,0.10813 0,0.16219c0.41874,3.21527 0.62811,4.92366 0.62811,5.12615c-0.05013,0 -0.07569,0.02556 -0.07569,0.07569c-0.51999,-0.05013 -0.91022,-0.07569 -1.17071,-0.07569c-0.31062,0 -0.62123,0 -0.93185,0c-0.54161,0 -1.37222,-0.02556 -2.49279,-0.07569c-0.10026,-0.30374 -0.8768,-4.91678 -2.32962,-13.83814c0.24574,-0.10125 2.05931,-0.5426 5.43971,-1.32208zM92.96069,271.29877c0.1445,1.66121 0.27523,2.49181 0.39024,2.49181c1.48132,0.51311 2.38762,0.76966 2.71986,0.76966c0.28604,-1.24246 0.5711,-2.48493 0.85616,-3.72739c-0.02457,0 -0.05013,0 -0.07569,0c-0.84535,0.05013 -2.14187,0.20544 -3.89056,0.46592z"/><path d="M106.84208,266.8666c2.74541,0.73624 4.20118,1.18447 4.3673,1.34371c1.50983,2.13794 2.35911,3.36959 2.54686,3.69496c-0.9751,3.0924 -1.53539,4.63762 -1.67988,4.63762c-3.25066,0.75885 -4.95216,1.13827 -5.10354,1.13827c-2.68742,-1.56782 -4.11763,-2.44168 -4.29161,-2.62254c-0.09338,-2.91842 -0.14056,-4.52949 -0.14056,-4.83323c-0.04325,-0.0865 -0.06488,-0.15138 -0.06488,-0.19463c2.77392,-2.10944 4.20806,-3.16416 4.30144,-3.16416c0.02163,0 0.04325,0 0.06488,0zM106.63665,270.83285c-0.04325,0.28899 -0.10813,1.33978 -0.19463,3.15334c0.80505,0.17988 1.61108,0.36075 2.41612,0.54161c0.57798,-1.80668 0.86697,-2.77097 0.86697,-2.89384c-1.92169,-0.57798 -2.95085,-0.86697 -3.08847,-0.86697c0,0.02163 0,0.04325 0,0.06488z"/><path d="M124.36535,266.85579c1.20216,0.82667 2.40531,1.65433 3.60845,2.481c-0.25262,4.11763 -0.42955,6.52392 -0.5308,7.21691c-0.41972,0.05111 -1.69463,0.1268 -3.82569,0.22805c-0.02556,-0.05111 -0.05013,-0.10125 -0.07569,-0.15138c-0.1268,-1.92956 -0.25262,-3.85813 -0.37942,-5.7867c-0.05013,-0.02556 -0.10125,-0.05111 -0.15138,-0.07667c-1.38008,0.29685 -2.32962,0.52097 -2.85059,0.67235c0.1445,2.4633 0.21723,4.24443 0.21723,5.3424c-2.15269,0.59961 -3.33028,0.89941 -3.53277,0.89941c-1.4017,-6.17005 -2.10256,-9.42759 -2.10256,-9.77458c3.04915,-0.39712 4.70347,-0.59568 4.96298,-0.59568c0,0.02457 0,0.05013 0,0.07569c0.05111,0.03637 0.1268,0.78735 0.22805,2.25393c2.79554,-1.85682 4.27294,-2.78473 4.43218,-2.78473z"/><path d="M137.17434,266.88822c3.06979,0.07864 4.60518,0.2133 4.60518,0.40105c0.52687,7.99738 0.79128,12.25164 0.79128,12.76475c-2.32667,1.48132 -3.99181,2.48493 -4.9964,3.01278c-3.53965,-1.11271 -5.30996,-1.74869 -5.30996,-1.90695c1.1422,-1.66907 1.80275,-2.51442 1.98362,-2.53604c1.92857,0.95347 3.03735,1.43021 3.32634,1.43021c0.34404,-0.45118 0.68709,-0.90236 1.03014,-1.35452c-0.27523,-1.11959 -0.45904,-1.78014 -0.55341,-1.98264c-0.15826,0 -2.11632,0.3175 -5.8732,0.95347c-2.05832,-3.34502 -3.08847,-5.06029 -3.08847,-5.14777c1.7772,-2.8388 2.8614,-4.50393 3.25164,-4.99541c0.02457,0 0.05013,0 0.07569,0c0.20937,0 1.76933,0.34305 4.68087,1.02916c0,-0.07864 0,-0.15826 0,-0.23788c0,-0.28211 -0.02457,-0.73329 -0.07569,-1.35452c0.05111,-0.02556 0.10125,-0.05111 0.15236,-0.07569zM133.77132,271.48259c0.10125,0.22412 0.41874,1.41547 0.95347,3.57602c0.67235,-0.21723 1.70151,-0.61435 3.08847,-1.19233c-0.26737,-1.30046 -0.40105,-2.04063 -0.40105,-2.22149c-0.12975,-0.02457 -0.26049,-0.05013 -0.39024,-0.07569c-0.15924,0 -0.3175,0 -0.47674,0c-0.60649,0 -1.53146,-0.02851 -2.77392,-0.0865z"/></g><text transform="translate(27.65907,297.94058) scale(0.69936,0.74059)" font-size="22" xml:space="preserve" fill="#2492d1" fill-rule="nonzero" stroke="none" stroke-width="1" stroke-linecap="butt" stroke-linejoin="miter" stroke-miterlimit="10" stroke-dasharray="" stroke-dashoffset="0" font-family="Sans Serif" font-weight="400" text-anchor="start" style="mix-blend-mode: normal"><tspan x="0" dy="0">The classic table tennis game pong, but with Toads! Blue </tspan><tspan x="0" dy="24.86px">Toad uses the arrow keys and Yellow Toad uses WASD. </tspan><tspan x="0" dy="24.86px">Note: The Toads cannot jump, so work together!</tspan></text></g></g></svg>