<svg version="1.1" xmlns="http://www.w3.org/2000/svg" xmlns:xlink="http://www.w3.org/1999/xlink" width="38.67765" height="32.24052" viewBox="0,0,38.67765,32.24052"><defs><radialGradient cx="243.1834" cy="174.14133" r="22.4478" gradientUnits="userSpaceOnUse" id="color-1"><stop offset="0" stop-color="#fffbc6"/><stop offset="1" stop-color="#e6d380"/></radialGradient><radialGradient cx="256.6006" cy="180.57113" r="15.5074" gradientUnits="userSpaceOnUse" id="color-2"><stop offset="0" stop-color="#fffbc6"/><stop offset="1" stop-color="#e6d380"/></radialGradient><radialGradient cx="254.3006" cy="175.32003" r="6.2652" gradientUnits="userSpaceOnUse" id="color-3"><stop offset="0" stop-color="#4f492c"/><stop offset="1" stop-color="#000000"/></radialGradient><radialGradient cx="241.2395" cy="173.89063" r="7.3294" gradientUnits="userSpaceOnUse" id="color-4"><stop offset="0" stop-color="#4f492c"/><stop offset="1" stop-color="#000000"/></radialGradient><radialGradient cx="240.195" cy="181.03843" r="31.1575" gradientUnits="userSpaceOnUse" id="color-5"><stop offset="0" stop-color="#ffffff"/><stop offset="1" stop-color="#e5e5e5"/></radialGradient></defs><g transform="translate(-221.68778,-163.91476)"><g data-paper-data="{&quot;isPaintingLayer&quot;:true}" fill="none" fill-rule="nonzero" stroke="none" stroke-width="none" stroke-linecap="none" stroke-linejoin="miter" stroke-miterlimit="10" stroke-dasharray="" stroke-dashoffset="0" font-family="none" font-weight="none" font-size="none" text-anchor="none" style="mix-blend-mode: normal"><path d="M246.5737,179.97003c-3.2616,-0.395 -6.4911,0.401 -9.7023,0.4c-4.4118,-0.516 -9.1143,0.234 -13.129,-1.95c-1.2923,-0.705 -0.5665,-3.743 0.1238,-5.3c1.1858,-2.662 2.8529,-5.485 5.1608,-6.75c3.7546,-1.959 7.9526,-2.517 12.1382,-2.45c4.2178,0.067 9.054,1.149 12.1703,3.004c3.1171,1.856 5.046,4.418 5.046,7.246c0,2.828 -2.625,6.066 -5.046,7.246c-2.293,1.119 -4.4903,-1.174 -6.7618,-1.446z" data-paper-data="{&quot;index&quot;:null}" id="ID0.15607240749523044" fill="url(#color-1)" stroke="none" stroke-width="0.91701" stroke-linecap="round"/><path d="M253.4,183.82003c-1.793,0 -3.418,-0.924 -4.595,-2.418c-1.177,-1.493 -1.905,-3.556 -1.905,-5.832c0,-2.276 0.728,-4.339 1.905,-5.832c1.177,-1.494 2.802,-2.418 4.595,-2.418c1.793,0 3.418,0.924 4.595,2.418c1.177,1.493 1.905,3.556 1.905,5.832c0,2.276 -0.728,4.339 -1.905,5.832c-1.177,1.494 -2.802,2.418 -4.595,2.418z" data-paper-data="{&quot;index&quot;:null}" id="ID0.7226808085106313" fill="url(#color-2)" stroke="none" stroke-width="1" stroke-linecap="butt"/><path d="M253.925,180.22003c-1,0 -1.906,-0.56 -2.563,-1.465c-0.656,-0.906 -1.062,-2.156 -1.062,-3.535c0,-1.379 0.406,-2.629 1.062,-3.535c0.657,-0.905 1.563,-1.465 2.563,-1.465c1,0 1.906,0.56 2.563,1.465c0.656,0.906 1.062,2.156 1.062,3.535c0,1.379 -0.406,2.629 -1.062,3.535c-0.657,0.905 -1.563,1.465 -2.563,1.465z" data-paper-data="{&quot;index&quot;:null}" id="ID0.21181316301226616" fill="url(#color-3)" stroke="none" stroke-width="1" stroke-linecap="butt"/><path d="M240.7769,178.23883c-1.6152,-0.2479 -3.5109,-0.5401 -4.483,-1.4524c-0.8629,-0.8051 -0.3788,-1.9743 -0.2696,-2.9955c0.1146,-1.0475 0.12,-2.0205 1.0786,-3.0862c0.7618,-0.8224 2.2516,-1.505 3.674,-1.5431c1.3267,-0.0354 2.5698,0.5083 3.4556,1.3298c0.8845,0.8224 1.4238,2.0932 1.4319,3.2088c0.0108,1.4687 -0.0283,3.1252 -1.2809,4.3116c-0.728,0.6527 -2.4606,0.4021 -3.6066,0.227z" data-paper-data="{&quot;index&quot;:null}" id="ID0.21181316301226616" fill="url(#color-4)" stroke="none" stroke-width="1.1493" stroke-linecap="butt"/><path d="M240.7307,196.15523c-4.3834,0.0068 -9.3857,-0.755 -12.7111,-4.0116c-3.0866,-3.1039 -3.5745,-8.5336 -4.5367,-13.0982c-0.2405,-1.1387 0.5813,-1.5573 1.5408,-1.7883c3.8356,-0.9232 7.7919,-1.9381 11.7268,-1.2567c4.7207,0.8178 8.8704,4.291 13.4387,5.655c2.4969,0.724 7.084,-1.6511 7.5754,0.5558c0.6702,3.0237 -1.9089,7.3331 -4.9921,9.857c-3.084,2.5249 -7.8261,4.0802 -12.0418,4.087z" data-paper-data="{&quot;index&quot;:null}" id="ID0.26931737549602985" fill="#f34135" stroke="none" stroke-width="0.91299" stroke-linecap="round"/><path d="M225.65,179.12003l4.25,2.4l0.25,-3.25l-0.15,3.15l5.5,8.7" data-paper-data="{&quot;origPos&quot;:null,&quot;index&quot;:null}" id="ID0.9385899971239269" fill="none" stroke="#bb3228" stroke-width="1" stroke-linecap="round"/><path d="M244.55,190.47003l3.1,-6.7l-0.15,-3.15l0.25,3.25l4.25,-2.4" data-paper-data="{&quot;origPos&quot;:null,&quot;index&quot;:null}" id="ID0.9385899971239269" fill="none" stroke="#bb3228" stroke-width="1" stroke-linecap="round"/><path d="M259.7874,178.87003c0.4399,0.045 0.7143,0.758 0.5083,1.1c-0.6377,1.05 -1.6237,2.134 -2.8185,2.45c-2.1985,0.61 -4.602,0.797 -6.8846,0.2c-3.7601,-0.984 -6.9334,-3.965 -10.7195,-4.85c-2.8028,-0.648 -5.9345,-0.03 -8.8713,0.35c-2.5699,0.332 -5.2101,2.475 -7.7624,1.65c-1.3076,-0.375 -2.2206,-3.706 -0.9241,-4.35c4.8155,-2.4 10.4414,-3.446 15.7096,-2.8c5.7719,0.709 10.8683,5.225 16.5876,6.85c1.7031,0.484 3.4496,-0.772 5.1749,-0.6z" data-paper-data="{&quot;index&quot;:null}" id="ID0.5838042767718434" fill="url(#color-5)" stroke="none" stroke-width="0.9628" stroke-linecap="round"/><path d="M230.45,193.42003l5.3,-3.5l8.5,0.5l5.3,3.2" data-paper-data="{&quot;origPos&quot;:null,&quot;index&quot;:null}" id="ID0.8476383532397449" fill="none" stroke="#bb3228" stroke-width="1" stroke-linecap="round"/></g></g></svg>