<svg version="1.1" xmlns="http://www.w3.org/2000/svg" xmlns:xlink="http://www.w3.org/1999/xlink" width="507.04747" height="92.66224" viewBox="0,0,507.04747,92.66224"><defs><linearGradient x1="241.17277" y1="291.07561" x2="236.5397" y2="346.88367" gradientUnits="userSpaceOnUse" id="color-1"><stop offset="0" stop-color="#c3e060"/><stop offset="1" stop-color="#6de01b"/></linearGradient></defs><g transform="translate(6.18962,-269.91963)"><g data-paper-data="{&quot;isPaintingLayer&quot;:true}" fill="none" fill-rule="nonzero" stroke="none" stroke-width="none" stroke-linecap="none" stroke-linejoin="miter" stroke-miterlimit="10" stroke-dasharray="" stroke-dashoffset="0" font-family="none" font-weight="none" font-size="none" text-anchor="none" style="mix-blend-mode: normal"><path d="M-1.84028,278.12092l501.99208,52.2481l-2.13812,31.5458l-498.99208,-2.248z" data-paper-data="{&quot;origPos&quot;:null}" id="ID0.29126935824751854" fill="#c06520" stroke="#763e13" stroke-width="1.32849" stroke-linecap="butt"/><path d="M205.00001,350.00002c0,-2.76142 2.23858,-5 5,-5c2.76142,0 5,2.23858 5,5c0,2.76142 -2.23858,5 -5,5c-2.76142,0 -5,-2.23858 -5,-5z" data-paper-data="{&quot;origPos&quot;:null}" fill="#e0bb60" stroke="none" stroke-width="0.5" stroke-linecap="butt"/><path d="M148,342.00002c0,-2.76142 2.23858,-5 5,-5c2.76142,0 5,2.23858 5,5c0,2.76142 -2.23858,5 -5,5c-2.76142,0 -5,-2.23858 -5,-5z" data-paper-data="{&quot;origPos&quot;:null}" fill="#e0bb60" stroke="none" stroke-width="0.5" stroke-linecap="butt"/><path d="M104.00001,346.00002c0,-2.76142 2.23858,-5 5,-5c2.76142,0 5,2.23858 5,5c0,2.76142 -2.23858,5 -5,5c-2.76142,0 -5,-2.23858 -5,-5z" data-paper-data="{&quot;origPos&quot;:null}" fill="#e0bb60" stroke="none" stroke-width="0.5" stroke-linecap="butt"/><path d="M51.00001,340.00002c0,-2.76142 2.23858,-5 5,-5c2.76142,0 5,2.23858 5,5c0,2.76142 -2.23858,5 -5,5c-2.76142,0 -5,-2.23858 -5,-5z" data-paper-data="{&quot;origPos&quot;:null}" fill="#e0bb60" stroke="none" stroke-width="0.5" stroke-linecap="butt"/><path d="M9.00001,339.00002c0,-2.76142 2.23858,-5 5,-5c2.76142,0 5,2.23858 5,5c0,2.76142 -2.23858,5 -5,5c-2.76142,0 -5,-2.23858 -5,-5z" data-paper-data="{&quot;origPos&quot;:null}" fill="#e0bb60" stroke="none" stroke-width="0.5" stroke-linecap="butt"/><path d="M0.02134,271.00338l483.09581,43.22094l-3.50483,41.85344l-8.43819,-8.73002l-11.18671,12.11384l-10.04675,-13.88121l-10.01013,10.20486l-7.85295,-11.69169l-13.88302,11.88941l-13.5751,-12.16794l-5.35929,11.59548l-13.3283,-11.14396l-11.8669,8.04339l-11.22333,-11.97222l-14.98298,8.78748l-9.13338,-12.80177l-13.1112,10.95025l-13.17785,-13.13841l-14.8175,6.79433l-8.27272,-10.72316l-13.27666,12.94339l-12.4012,-10.04844l-9.08046,11.2708l-13.24686,-12.12575l-14.91461,7.78221l-4.9153,-14.46502l-11.78416,7.04682l-10.21221,-11.88807l-17.33615,12.60546l-16.11345,-14.38617l-11.02123,10.1207l-12.31718,-11.05981l-14.98298,8.78748l-4.99118,-13.4604l-15.0657,9.78405l-16.36166,-11.39645l-6.21386,13.53121l-21.3345,-12.81382l-8.99901,10.28901l-7.94178,-14.70946l-15.14844,10.78063l-12.23445,-12.05639l-4.95454,10.62566l-11.22333,-11.97222l-8.07062,11.36975z" data-paper-data="{&quot;origPos&quot;:null,&quot;origRot&quot;:0}" fill="url(#color-1)" stroke="#0f6600" stroke-width="2" stroke-linecap="round"/><path d="M270.66668,348.33335c0,-2.76142 2.23858,-5 5,-5c2.76142,0 5,2.23858 5,5c0,2.76142 -2.23858,5 -5,5c-2.76142,0 -5,-2.23858 -5,-5z" data-paper-data="{&quot;origPos&quot;:null}" fill="#e0bb60" stroke="none" stroke-width="0.5" stroke-linecap="butt"/></g></g></svg>