<svg version="1.1" xmlns="http://www.w3.org/2000/svg" xmlns:xlink="http://www.w3.org/1999/xlink" width="437" height="90.79587" viewBox="0,0,437,90.79587"><defs><linearGradient x1="240" y1="135.60207" x2="240" y2="224.39795" gradientUnits="userSpaceOnUse" id="color-1"><stop offset="0" stop-color="#ffffff"/><stop offset="1" stop-color="#d8d8d8"/></linearGradient><linearGradient x1="240" y1="135.60208" x2="240" y2="224.39795" gradientUnits="userSpaceOnUse" id="color-2"><stop offset="0" stop-color="#343434"/><stop offset="1" stop-color="#090909"/></linearGradient><radialGradient cx="443.8065" cy="206.54467" r="17.9081" gradientUnits="userSpaceOnUse" id="color-3"><stop offset="0" stop-color="#ffffff"/><stop offset="1" stop-color="#e5e5e5"/></radialGradient></defs><g transform="translate(-21.5,-134.60208)"><g data-paper-data="{&quot;isPaintingLayer&quot;:true}" fill-rule="nonzero" stroke-linejoin="miter" stroke-miterlimit="10" stroke-dasharray="" stroke-dashoffset="0" style="mix-blend-mode: normal"><path d="M22.5,224.39795v-88.79587h435v88.79587z" data-paper-data="{&quot;origPos&quot;:null}" fill="url(#color-1)" stroke="url(#color-2)" stroke-width="2" stroke-linecap="butt"/><g data-paper-data="{&quot;origPos&quot;:null}"><path d="M444.3058,202.09868c2.5136,0 4.7909,1.0212 6.4406,2.6702c1.6489,1.6496 2.6702,3.9269 2.6702,6.4405c0,2.5136 -1.0213,4.791 -2.6702,6.4406c-1.6497,1.649 -3.927,2.6702 -6.4406,2.6702c-2.5136,0 -4.7909,-1.0212 -6.4406,-2.6702c-1.6489,-1.6496 -2.6701,-3.927 -2.6701,-6.4406c0,-2.5136 1.0212,-4.7909 2.6701,-6.4405c1.6497,-1.649 3.927,-2.6702 6.4406,-2.6702z" fill="url(#color-3)" stroke="#000000" stroke-width="2.0785" stroke-linecap="butt"/><path d="M441.2734,206.54887l5.6119,0.4503l1.7321,3.187l-3.6374,2.9446l3.3603,-0.5197l0.7967,3.4642l-7.4479,-0.0693l-1.9053,-2.4249l4.6766,-3.3256l-4.5727,-0.3464z" fill="#000000" stroke="none" stroke-width="0.69283" stroke-linecap="round"/></g><g data-paper-data="{&quot;origPos&quot;:null}" stroke="none" stroke-linecap="butt"><g data-paper-data="{&quot;origPos&quot;:null}" stroke-width="0.33915"><path d="M36.8689,147.00967l3.6167,-0.5088l-0.1909,9.4593l-2.5674,0.1031l-0.4768,-2.9489l-1.8999,0.3021l0.0953,2.7424l-2.758,0.4131l-1.7171,-9.4589l3.8076,-0.31l0.1906,3.3624l2.0905,-0.1035z" fill="#000000"/><path d="M46.336,148.82207c2.4005,1.2321 3.7279,1.9552 3.9901,2.1621c-0.3416,1.6136 -0.5484,2.4401 -0.6119,2.488h-5.0238v0.0871l1.4071,1.7409l2.2096,-1.1287c0.2147,0.3737 0.5328,1.0334 0.9381,1.9715c-0.1909,0.0634 -1.5818,0.2703 -4.1732,0.6118c-2.1462,-1.4149 -3.2271,-2.1539 -3.243,-2.2096c0.3419,-2.7505 0.5484,-4.1254 0.6118,-4.1254c2.2418,-0.954 3.5374,-1.4865 3.8952,-1.5977zM45.8191,150.74567c-0.0397,0.1031 -0.3259,0.5244 -0.8424,1.2637c0,0.2225 0.3099,0.3341 0.938,0.3341c0,0.0315 0.4531,0.1112 1.359,0.2303c0.2466,-0.3419 0.3738,-0.5484 0.3738,-0.6041c-0.0794,-0.469 -0.2544,-0.7074 -0.5166,-0.7074z" fill="#000000"/><path d="M54.7062,148.82987c0.0712,0.0081 0.1112,0.0478 0.1112,0.1112l-0.8268,4.5785c1.5818,-0.1828 2.3689,-0.3337 2.3689,-0.4449c0.2941,-1.8362 0.5006,-2.8618 0.6119,-3.0842c1.9555,0.4052 3.0364,0.6437 3.251,0.7152c-1.1364,3.9189 -1.7645,5.9538 -1.8758,6.1207c-1.9952,1.399 -3.1161,2.1702 -3.3623,2.3211c-0.0716,0 -1.3434,-0.31 -3.8077,-0.9381v-0.0556c0.6519,-1.4387 1.0572,-2.1539 1.2162,-2.1539l2.4246,1.2161l1.1606,-1.9874c-1.0415,0.2625 -1.6534,0.3897 -1.8206,0.3897l-3.092,-1.6059c0.3738,-3.4576 0.6122,-5.1825 0.7156,-5.1825z" fill="#000000"/><path d="M67.4161,146.41337l3.4977,0.62l-0.3341,2.6549c0.6916,-0.0397 1.2003,-0.0556 1.5262,-0.0556h0.5087l0.1113,-0.0557l0.0556,0.1113c-0.1112,1.6137 -0.2065,2.5199 -0.2859,2.7186l-0.1113,-0.0634c-0.0797,0 -0.7949,-0.04 -2.1464,-0.1116c-0.0716,1.2481 -0.1272,2.7346 -0.1669,4.4673l-0.1112,0.0556c-1.709,-0.1112 -2.7265,-0.2065 -3.0524,-0.2859l0.0556,-0.2228c0,-0.4609 0.0716,-1.8918 0.2225,-4.2923c-1.4305,-0.0794 -2.1461,-0.175 -2.1461,-0.2862c0.0715,-1.7724 0.1668,-2.6549 0.2862,-2.6549l2.0905,0.3975v-0.6838c0,-0.5562 -0.0237,-1.3114 -0.0634,-2.2573c0.0397,0 0.0634,-0.016 0.0634,-0.0557z" fill="#000000"/><path d="M77.1854,146.41337c0.0315,0.0479 0.1828,1.5025 0.4449,4.3561c2.0431,-0.6281 3.1321,-0.9381 3.267,-0.9381l2.0271,1.3831c-0.3259,3.0208 -0.5406,4.7854 -0.644,5.2941l-2.8139,0.0953c0,-0.0319 -0.016,-0.0478 -0.0556,-0.0478l0.0556,-0.1988c0,-0.429 0.0637,-1.7327 0.1909,-3.9107c-0.7712,-0.0316 -1.3515,-0.0475 -1.7249,-0.0475h-0.1987c0.2306,2.4242 0.3418,3.7439 0.3418,3.9582l-2.6708,0.3975c-0.1034,-0.3415 -0.6915,-3.5055 -1.7805,-9.4986c0,-0.1672 0.4134,-0.3021 1.2399,-0.3974c1.0412,-0.2944 1.8202,-0.4454 2.3212,-0.4454z" fill="#000000"/><path d="M88.1785,148.82207c2.4005,1.2321 3.728,1.9552 3.9901,2.1621c-0.3415,1.6136 -0.5484,2.4401 -0.6118,2.488h-5.0238v0.0871l1.4071,1.7409l2.2096,-1.1287c0.2147,0.3737 0.5328,1.0334 0.9381,1.9715c-0.191,0.0634 -1.5818,0.2703 -4.1733,0.6118c-2.1461,-1.4149 -3.227,-2.1539 -3.2429,-2.2096c0.3418,-2.7505 0.5484,-4.1254 0.6118,-4.1254c2.2418,-0.954 3.5373,-1.4865 3.8951,-1.5977zM87.6617,150.74567c-0.0397,0.1031 -0.3259,0.5244 -0.8425,1.2637c0,0.2225 0.31,0.3341 0.9381,0.3341c0,0.0315 0.4531,0.1112 1.359,0.2303c0.2466,-0.3419 0.3737,-0.5484 0.3737,-0.6041c-0.0793,-0.469 -0.2543,-0.7074 -0.5165,-0.7074z" fill="#000000"/><path d="M98.5993,148.81388c1.0493,0.5885 1.6933,0.97 1.9318,1.1447c-0.8588,1.7887 -1.3197,2.6949 -1.3831,2.7264h-0.0556l-1.1369,-0.9934l-1.3433,1.6374l0.1509,2.9808c-0.0716,0.0635 -0.9459,0.2147 -2.6308,0.445c-0.0637,-0.4531 -0.4772,-2.6867 -1.2403,-6.7006c0,-0.0637 1.105,-0.2306 3.3227,-0.4931c0.0397,0.04 0.1353,0.5406 0.3022,1.4865c1.3274,-1.4865 2.0189,-2.2337 2.0824,-2.2337z" fill="#000000"/><path d="M105.6658,148.82207c2.4005,1.2321 3.7282,1.9552 3.9904,2.1621c-0.3419,1.6136 -0.5484,2.4401 -0.6122,2.488h-5.0234v0.0871l1.4068,1.7409l2.2099,-1.1287c0.2146,0.3737 0.5324,1.0334 0.9377,1.9715c-0.1906,0.0634 -1.5818,0.2703 -4.1729,0.6118c-2.1461,-1.4149 -3.2273,-2.1539 -3.2433,-2.2096c0.3419,-2.7505 0.5484,-4.1254 0.6122,-4.1254c2.2414,-0.954 3.5373,-1.4865 3.8948,-1.5977zM105.1493,150.74567c-0.0397,0.1031 -0.326,0.5244 -0.8425,1.2637c0,0.2225 0.31,0.3341 0.9378,0.3341c0,0.0315 0.4531,0.1112 1.3593,0.2303c0.2465,-0.3419 0.3737,-0.5484 0.3737,-0.6041c-0.0797,-0.469 -0.2544,-0.7074 -0.5169,-0.7074z" fill="#000000"/><path d="M111.1664,146.76307l3.7599,0.3181l-0.8347,6.2716l-2.9252,-0.2147zM111.063,153.88527l2.7108,0.2146v2.6549l-3.2351,-0.4212z" fill="#000000"/><path d="M123.8367,146.42156l0.056,0.1031l0.4131,6.0413h0.0478l2.1699,-2.2734c1.2799,1.725 1.9318,2.5833 1.9633,2.5833c0.5488,-2.6945 0.8984,-4.3163 1.0334,-4.8566c2.3449,0.4528 3.5136,0.7231 3.5136,0.8265c-1.4071,4.4751 -2.2177,7.0109 -2.4246,7.599c-0.5006,0.0319 -1.5977,0.1353 -3.3067,0.31c-0.7549,-1.8121 -1.1365,-2.7424 -1.1365,-2.7898c-0.0638,0.0078 -0.4612,0.7949 -1.1924,2.3767h-0.0479c-2.2733,-0.1512 -3.4098,-0.2944 -3.4098,-0.4134c-1.2799,-5.6357 -1.9158,-8.5293 -1.9158,-8.6802v-0.1034c0,-0.1031 1.4149,-0.3497 4.2366,-0.7231z" fill="#000000"/><path d="M138.4151,148.82207c2.4005,1.2321 3.7279,1.9552 3.9901,2.1621c-0.3416,1.6136 -0.5484,2.4401 -0.6119,2.488h-5.0238v0.0871l1.4072,1.7409l2.2095,-1.1287c0.2147,0.3737 0.5328,1.0334 0.9381,1.9715c-0.1909,0.0634 -1.5818,0.2703 -4.1732,0.6118c-2.1462,-1.4149 -3.227,-2.1539 -3.243,-2.2096c0.3419,-2.7505 0.5484,-4.1254 0.6118,-4.1254c2.2418,-0.954 3.5374,-1.4865 3.8952,-1.5977zM137.8982,150.74567c-0.0397,0.1031 -0.3259,0.5244 -0.8424,1.2637c0,0.2225 0.3099,0.3341 0.9381,0.3341c0,0.0315 0.4531,0.1112 1.3589,0.2303c0.2466,-0.3419 0.3738,-0.5484 0.3738,-0.6041c-0.0794,-0.469 -0.2544,-0.7074 -0.5166,-0.7074z" fill="#000000"/><path d="M143.1286,146.42156c1.6218,0.0315 2.8139,0.0475 3.5692,0.0475c0.0715,0 0.2781,3.2511 0.6278,9.761c-0.2704,0.0716 -1.2162,0.2466 -2.8296,0.5247c-0.0797,0 -0.3418,-1.9949 -0.7871,-5.9775c-0.0397,-0.0953 -0.2303,-1.5499 -0.5803,-4.3557z" fill="#000000"/><path d="M151.3397,148.82207c2.3927,0.4531 3.6408,0.7075 3.752,0.7709v0.0953c-0.5168,1.4546 -0.7712,2.2021 -0.7712,2.2577h-0.0475c-0.1353,0 -0.7712,-0.2069 -1.9236,-0.62c-0.6441,1.0731 -0.9619,1.6534 -0.9619,1.7246l1.5896,1.5421c1.2322,-1.1524 1.8521,-1.7327 1.8762,-1.7327c0.9618,1.2559 1.4387,1.9633 1.4387,2.1143c-0.5247,0.3021 -1.4387,0.8984 -2.7424,1.7805c-2.5199,-0.5484 -3.887,-0.8503 -4.0857,-0.914l-1.2481,-4.0379z" fill="#000000"/><path d="M160.2902,148.82207c2.0112,0.5403 3.0842,0.8662 3.2033,0.9856c1.1049,1.5658 1.733,2.472 1.868,2.7104c-0.7152,2.2656 -1.1287,3.4021 -1.2321,3.4021c-2.3846,0.5565 -3.6326,0.8346 -3.7439,0.8346c-1.9711,-1.1524 -3.0204,-1.7883 -3.1476,-1.9237c-0.0716,-2.138 -0.1035,-3.3223 -0.1035,-3.5451c-0.0318,-0.0634 -0.0474,-0.1112 -0.0474,-0.1431c2.0349,-1.5499 3.0838,-2.3208 3.1554,-2.3208zM160.1393,151.73127c-0.0319,0.2147 -0.0797,0.9856 -0.1431,2.313l1.7724,0.3975c0.4212,-1.3274 0.6359,-2.0349 0.6359,-2.1224c-1.4068,-0.4212 -2.1621,-0.6359 -2.2652,-0.6359z" fill="#000000"/><path d="M174.916,148.81388c1.2956,0.5329 2.4083,1.0416 3.3464,1.5103c-0.2465,3.1558 -0.3974,4.8807 -0.469,5.1747c-1.5581,0.3897 -2.4324,0.5803 -2.6152,0.5803c0,-0.6915 -0.0556,-2.0508 -0.1587,-4.0776c-0.5884,0.0556 -0.8825,0.1113 -0.8825,0.1509c0,0.1988 0.0319,1.3512 0.1035,3.4499c0.0315,0 0.0474,0.0159 0.0474,0.0556c0,0.0634 -0.8187,0.2384 -2.4561,0.5247c-0.0715,-0.0875 -0.2781,-1.3753 -0.6277,-3.8711c-0.66,0.1669 -0.9938,0.294 -0.9938,0.3656l0.3178,3.243c-0.0634,0.0715 -0.9377,0.35 -2.6152,0.8346c-0.9774,-3.4498 -1.5817,-5.7628 -1.828,-6.9471c1.8362,-0.4531 2.8696,-0.6838 3.0843,-0.6838c0.2462,0.9619 0.3656,1.5184 0.3656,1.6693h0.0556c0.898,-0.8265 1.518,-1.383 1.8758,-1.6693h0.0556l1.6693,1.2003h0.0557c1.0411,-1.0093 1.5977,-1.5103 1.6692,-1.5103z" fill="#000000"/><path d="M183.5644,148.82207c2.4005,1.2321 3.7279,1.9552 3.9901,2.1621c-0.3416,1.6136 -0.5485,2.4401 -0.6119,2.488h-5.0238v0.0871l1.4071,1.7409l2.2096,-1.1287c0.2147,0.3737 0.5328,1.0334 0.9381,1.9715c-0.191,0.0634 -1.5818,0.2703 -4.1733,0.6118c-2.1461,-1.4149 -3.227,-2.1539 -3.2429,-2.2096c0.3419,-2.7505 0.5484,-4.1254 0.6118,-4.1254c2.2418,-0.954 3.5374,-1.4865 3.8952,-1.5977zM183.0475,150.74567c-0.0397,0.1031 -0.3259,0.5244 -0.8425,1.2637c0,0.2225 0.31,0.3341 0.9381,0.3341c0,0.0315 0.4531,0.1112 1.359,0.2303c0.2466,-0.3419 0.3738,-0.5484 0.3738,-0.6041c-0.0794,-0.469 -0.2544,-0.7074 -0.5166,-0.7074z" fill="#000000"/><path d="M194.6925,146.41337l3.4977,0.62l-0.3341,2.6549c0.6919,-0.0397 1.2006,-0.0556 1.5262,-0.0556h0.5087l0.1116,-0.0557l0.0556,0.1113c-0.1112,1.6137 -0.2069,2.5199 -0.2862,2.7186l-0.1113,-0.0634c-0.0797,0 -0.7949,-0.04 -2.1461,-0.1116c-0.0716,1.2481 -0.1272,2.7346 -0.1672,4.4673l-0.1112,0.0556c-1.709,-0.1112 -2.7265,-0.2065 -3.0524,-0.2859l0.0556,-0.2228c0,-0.4609 0.0716,-1.8918 0.2229,-4.2923c-1.4309,-0.0794 -2.1462,-0.175 -2.1462,-0.2862c0.0712,-1.7724 0.1669,-2.6549 0.2859,-2.6549l2.0905,0.3975v-0.6838c0,-0.5562 -0.0237,-1.3114 -0.0634,-2.2573c0.0397,0 0.0634,-0.016 0.0634,-0.0557z" fill="#000000"/><path d="M204.1039,148.82207c2.0112,0.5403 3.0843,0.8662 3.2036,0.9856c1.1047,1.5658 1.7328,2.472 1.8677,2.7104c-0.7152,2.2656 -1.1287,3.4021 -1.2318,3.4021c-2.3849,0.5565 -3.6326,0.8346 -3.7438,0.8346c-1.9715,-1.1524 -3.0208,-1.7883 -3.148,-1.9237c-0.0716,-2.138 -0.1031,-3.3223 -0.1031,-3.5451c-0.0319,-0.0634 -0.0478,-0.1112 -0.0478,-0.1431c2.0349,-1.5499 3.0842,-2.3208 3.1558,-2.3208zM203.953,151.73127c-0.0319,0.2147 -0.0793,0.9856 -0.1431,2.313l1.7727,0.3975c0.4213,-1.3274 0.6359,-2.0349 0.6359,-2.1224c-1.4071,-0.4212 -2.162,-0.6359 -2.2655,-0.6359z" fill="#000000"/><path d="M220.1844,146.41337c1.9077,0.9619 2.8855,1.4469 2.9411,1.4469c0,0.0875 -0.3975,0.8505 -1.1921,2.297h-0.0557c-0.0637,0 -0.9777,-0.429 -2.7423,-1.2955l-0.8984,1.2002c1.5183,0.7312 3.3704,1.6612 5.5403,2.798c-0.9855,1.7568 -1.6852,2.9174 -2.0983,3.4973l-4.4914,0.3975c-2.0505,-1.3831 -3.1317,-2.0983 -3.2507,-2.1461v-0.0557c0,-0.1509 0.4131,-0.8265 1.2477,-2.0427h0.1035c0.3259,0.1988 1.3593,0.7631 3.092,1.6931l1.0493,-1.1925c-3.1876,-1.6214 -4.9522,-2.5355 -5.2941,-2.7501v-0.0479c1.0097,-1.9711 1.5662,-2.9726 1.6534,-2.9967c2.6311,-0.5324 4.1016,-0.8028 4.3957,-0.8028z" fill="#2b70c2"/><path d="M228.9124,148.81388l0.0556,0.1035l-1.0731,5.6913h0.0557l2.7342,-0.8028v-3.2192c0.0081,-0.0716 0.0478,-0.1113 0.1034,-0.1113c2.0587,0.1432 3.2033,0.2147 3.4339,0.2147c0,0.0397 0.016,0.0556 0.0556,0.0556c0,0.9059 -0.2862,2.7821 -0.8584,5.6357c0,0.1669 -0.8187,0.2862 -2.4642,0.3734c-0.0875,-0.1031 -0.1591,-0.3178 -0.2147,-0.6437c-2.1065,0.4294 -3.3067,0.6437 -3.6007,0.6437c-1.6771,-1.2477 -2.5196,-1.8918 -2.5196,-1.9315c0.2859,-3.7598 0.4687,-5.7072 0.5403,-5.8503h0.0478c1.3434,-0.0397 2.5755,-0.0875 3.7042,-0.1591z" fill="#2b70c2"/><path d="M239.0709,148.82207c0.1669,0.6756 0.2781,1.0968 0.3419,1.2559c2.3449,-0.5325 3.577,-0.8028 3.712,-0.8028c1.5977,2.2971 2.3927,3.4895 2.3927,3.5926l-1.8284,3.8792l-3.9344,-0.6281v0.1194c0.3099,2.3608 0.4609,3.6089 0.4609,3.7598c-0.0397,0 -0.0557,0.0159 -0.0557,0.0556c-0.3815,-0.0397 -0.6677,-0.0556 -0.8583,-0.0556h-0.6838c-0.3975,0 -1.0096,-0.016 -1.8283,-0.0556c-0.0716,-0.2225 -0.6437,-3.6089 -1.709,-10.1508c0.1828,-0.0715 1.5102,-0.3975 3.9904,-0.9696zM239.3572,152.07316c0.1031,1.2162 0.1987,1.828 0.2859,1.828c1.089,0.3737 1.749,0.5643 1.9952,0.5643l0.6281,-2.7342h-0.0556c-0.62,0.0397 -1.574,0.1509 -2.8536,0.3419z" fill="#2b70c2"/><path d="M250.8432,148.82207c2.4005,1.2321 3.7279,1.9552 3.99,2.1621c-0.3415,1.6136 -0.5484,2.4401 -0.6118,2.488h-5.0238v0.0871l1.4071,1.7409l2.2096,-1.1287c0.2147,0.3737 0.5328,1.0334 0.9381,1.9715c-0.191,0.0634 -1.5818,0.2703 -4.1733,0.6118c-2.1461,-1.4149 -3.227,-2.1539 -3.2429,-2.2096c0.3419,-2.7505 0.5484,-4.1254 0.6118,-4.1254c2.2418,-0.954 3.5374,-1.4865 3.8952,-1.5977zM250.3263,150.74567c-0.0397,0.1031 -0.3259,0.5244 -0.8425,1.2637c0,0.2225 0.31,0.3341 0.9381,0.3341c0,0.0315 0.4531,0.1112 1.359,0.2303c0.2466,-0.3419 0.3737,-0.5484 0.3737,-0.6041c-0.0793,-0.469 -0.2543,-0.7074 -0.5165,-0.7074z" fill="#2b70c2"/><path d="M261.2639,148.81388c1.0493,0.5885 1.6933,0.97 1.9318,1.1447c-0.8588,1.7887 -1.3197,2.6949 -1.3831,2.7264h-0.0556l-1.1368,-0.9934l-1.3434,1.6374l0.1509,2.9808c-0.0716,0.0635 -0.9459,0.2147 -2.6308,0.445c-0.0637,-0.4531 -0.4772,-2.6867 -1.2402,-6.7006c0,-0.0637 1.1049,-0.2306 3.3226,-0.4931c0.0397,0.04 0.1353,0.5406 0.3022,1.4865c1.3274,-1.4865 2.0189,-2.2337 2.0824,-2.2337z" fill="#2b70c2"/><path d="M271.4068,146.40558c1.5021,0.1032 2.2493,0.1988 2.2493,0.286c0.5802,1.5502 0.9302,2.5436 1.0574,2.9729h0.0475c0.1353,-0.294 0.6678,-1.1127 1.5818,-2.4483h0.0478c1.4387,0.0875 2.1543,0.191 2.1543,0.2944l1.2955,8.8627c0,0.0556 -1.1368,0.1828 -3.402,0.3815l-0.0478,-0.0953c-0.1272,-2.6945 -0.1909,-4.3401 -0.1909,-4.9363h-0.0475l-1.9633,1.7249h-0.0479c-0.0634,-0.0316 -0.5087,-0.7312 -1.3433,-2.1065h-0.0475c-1.0256,2.9808 -1.5818,4.5629 -1.6775,4.7458h-0.0953c-1.8283,-0.8269 -2.8695,-1.3197 -3.1157,-1.4865v-0.0479c2.2652,-5.3334 3.4495,-8.0442 3.5451,-8.1474z" fill="#2b70c2"/><path d="M281.7878,148.81388c3.1477,0.4372 4.7217,0.6997 4.7217,0.8028c1.2399,1.0653 1.8599,1.6378 1.8599,1.7093c-0.5006,1.5737 -0.7869,2.5277 -0.8584,2.8692c0.5009,1.1209 0.7868,1.7887 0.8584,2.0034c0,0.0634 -0.8187,0.2303 -2.4639,0.5087c-0.0241,-0.0875 -0.175,-0.294 -0.4531,-0.6043c-2.2656,0.4375 -3.4896,0.6518 -3.6646,0.6518l-1.208,-3.2667l2.6627,-1.4071c0.4293,0.0715 1.0968,0.1034 2.0111,0.1034c0,-0.1194 0.0159,-0.469 0.0475,-1.0571c-0.1509,0 -1.5262,0.1031 -4.1173,0.3018l-0.0478,-0.1031c0.3578,-1.6774 0.5803,-2.5121 0.6518,-2.5121zM283.4412,153.48807c0,0.0556 0.1669,0.6756 0.5087,1.8599h0.0478c0.6675,-0.4372 1.0015,-0.7234 1.0015,-0.8584l0.1031,-0.8506c-0.1271,0 -0.6833,-0.0478 -1.6611,-0.1509z" fill="#2b70c2"/><path d="M294.8397,148.81388c1.0493,0.5885 1.6933,0.97 1.9318,1.1447c-0.8588,1.7887 -1.3197,2.6949 -1.3831,2.7264h-0.0556l-1.1368,-0.9934l-1.3434,1.6374l0.1509,2.9808c-0.0715,0.0635 -0.9459,0.2147 -2.6308,0.445c-0.0637,-0.4531 -0.4772,-2.6867 -1.2402,-6.7006c0,-0.0637 1.1049,-0.2306 3.3226,-0.4931c0.0397,0.04 0.1353,0.5406 0.3022,1.4865c1.3274,-1.4865 2.019,-2.2337 2.0824,-2.2337z" fill="#2b70c2"/><path d="M298.4964,145.62657l3.1239,0.4928c-0.3897,1.5024 -0.6519,2.2496 -0.7712,2.2496c-1.6453,-0.1113 -2.464,-0.2225 -2.464,-0.3259v-2.3052c0.0156,-0.0716 0.0557,-0.1113 0.1113,-0.1113zM297.6221,149.41017h0.0474c2.4165,0.4371 3.6249,0.6996 3.6249,0.7712c-0.6916,3.9345 -1.1131,6.1203 -1.264,6.5734h-2.5199c-0.0716,0 -0.1113,-0.0397 -0.1113,-0.1112z" fill="#2b70c2"/><path d="M305.0857,148.82207c2.0112,0.5403 3.0842,0.8662 3.2036,0.9856c1.1046,1.5658 1.7327,2.472 1.8677,2.7104c-0.7152,2.2656 -1.1287,3.4021 -1.2318,3.4021c-2.3849,0.5565 -3.6326,0.8346 -3.7438,0.8346c-1.9715,-1.1524 -3.0208,-1.7883 -3.148,-1.9237c-0.0716,-2.138 -0.1031,-3.3223 -0.1031,-3.5451c-0.0319,-0.0634 -0.0478,-0.1112 -0.0478,-0.1431c2.0348,-1.5499 3.0842,-2.3208 3.1557,-2.3208zM304.9348,151.73127c-0.0319,0.2147 -0.0794,0.9856 -0.1431,2.313l1.7727,0.3975c0.4212,-1.3274 0.6359,-2.0349 0.6359,-2.1224c-1.4071,-0.4212 -2.1621,-0.6359 -2.2655,-0.6359z" fill="#2b70c2"/><path d="M321.1662,146.41337c1.9077,0.9619 2.8854,1.4469 2.9411,1.4469c0,0.0875 -0.3975,0.8505 -1.1921,2.297h-0.0557c-0.0637,0 -0.9777,-0.429 -2.7423,-1.2955l-0.8984,1.2002c1.5183,0.7312 3.3704,1.6612 5.5403,2.798c-0.9856,1.7568 -1.6852,2.9174 -2.0983,3.4973l-4.4914,0.3975c-2.0505,-1.3831 -3.1317,-2.0983 -3.2507,-2.1461v-0.0557c0,-0.1509 0.4131,-0.8265 1.2477,-2.0427h0.1035c0.3259,0.1988 1.3593,0.7631 3.092,1.6931l1.0493,-1.1925c-3.1877,-1.6214 -4.9523,-2.5355 -5.2941,-2.7501v-0.0479c1.0096,-1.9711 1.5662,-2.9726 1.6533,-2.9967c2.6312,-0.5324 4.1017,-0.8028 4.3958,-0.8028z" fill="#2b70c2"/><path d="M328.7255,148.82207c2.3927,0.4531 3.6407,0.7075 3.752,0.7709v0.0953c-0.5166,1.4546 -0.7709,2.2021 -0.7709,2.2577h-0.0478c-0.1354,0 -0.7713,-0.2069 -1.9237,-0.62c-0.6437,1.0731 -0.9618,1.6534 -0.9618,1.7246l1.5899,1.5421c1.2318,-1.1524 1.8521,-1.7327 1.8759,-1.7327c0.9618,1.2559 1.4386,1.9633 1.4386,2.1143c-0.5246,0.3021 -1.4386,0.8984 -2.7423,1.7805c-2.5199,-0.5484 -3.887,-0.8503 -4.0858,-0.914l-1.2477,-4.0379z" fill="#2b70c2"/><path d="M340.1799,148.81388c1.0493,0.5885 1.693,0.97 1.9315,1.1447c-0.8584,1.7887 -1.3193,2.6949 -1.3831,2.7264h-0.0556l-1.1368,-0.9934l-1.3431,1.6374l0.1509,2.9808c-0.0715,0.0635 -0.9458,0.2147 -2.6311,0.445c-0.0634,-0.4531 -0.4768,-2.6867 -1.2399,-6.7006c0,-0.0637 1.1049,-0.2306 3.3226,-0.4931c0.0397,0.04 0.135,0.5406 0.3019,1.4865c1.3274,-1.4865 2.0189,-2.2337 2.0827,-2.2337z" fill="#2b70c2"/><path d="M343.9475,148.81388c3.1477,0.4372 4.7217,0.6997 4.7217,0.8028c1.2399,1.0653 1.8598,1.6378 1.8598,1.7093c-0.5005,1.5737 -0.7868,2.5277 -0.8583,2.8692c0.5009,1.1209 0.7871,1.7887 0.8583,2.0034c0,0.0634 -0.8183,0.2303 -2.4639,0.5087c-0.0237,-0.0875 -0.175,-0.294 -0.4531,-0.6043c-2.2655,0.4375 -3.4895,0.6518 -3.6645,0.6518l-1.208,-3.2667l2.6626,-1.4071c0.4294,0.0715 1.0972,0.1034 2.0112,0.1034c0,-0.1194 0.0159,-0.469 0.0478,-1.0571c-0.1513,0 -1.5262,0.1031 -4.1176,0.3018l-0.0478,-0.1031c0.3578,-1.6774 0.5803,-2.5121 0.6518,-2.5121zM345.6009,153.48807c0,0.0556 0.1668,0.6756 0.5087,1.8599h0.0478c0.6678,-0.4372 1.0015,-0.7234 1.0015,-0.8584l0.1035,-0.8506c-0.1272,0 -0.6838,-0.0478 -1.6615,-0.1509z" fill="#2b70c2"/><path d="M351.2921,146.42156c1.6218,0.0315 2.814,0.0475 3.5692,0.0475c0.0716,0 0.2781,3.2511 0.6281,9.761c-0.2703,0.0716 -1.2161,0.2466 -2.8298,0.5247c-0.0797,0 -0.3419,-1.9949 -0.7868,-5.9775c-0.0401,-0.0953 -0.2307,-1.5499 -0.5803,-4.3557z" fill="#2b70c2"/><path d="M357.5878,148.81388c3.1476,0.4372 4.7216,0.6997 4.7216,0.8028c1.2399,1.0653 1.8599,1.6378 1.8599,1.7093c-0.5006,1.5737 -0.7868,2.5277 -0.8584,2.8692c0.5009,1.1209 0.7868,1.7887 0.8584,2.0034c0,0.0634 -0.8187,0.2303 -2.4639,0.5087c-0.0238,-0.0875 -0.175,-0.294 -0.4531,-0.6043c-2.2655,0.4375 -3.4895,0.6518 -3.6645,0.6518l-1.2081,-3.2667l2.6627,-1.4071c0.4293,0.0715 1.0971,0.1034 2.0111,0.1034c0,-0.1194 0.016,-0.469 0.0475,-1.0571c-0.1509,0 -1.5262,0.1031 -4.1173,0.3018l-0.0478,-0.1031c0.3578,-1.6774 0.5803,-2.5121 0.6519,-2.5121zM359.2411,153.48807c0,0.0556 0.1669,0.6756 0.5087,1.8599h0.0479c0.6674,-0.4372 1.0015,-0.7234 1.0015,-0.8584l0.1034,-0.8506c-0.1272,0 -0.6837,-0.0478 -1.6615,-0.1509z" fill="#2b70c2"/><path d="M370.584,148.81388h0.0319c1.4149,0.8347 2.178,1.2641 2.2892,1.3037v0.0716c-0.3656,0.4212 -1.0412,1.1446 -2.0189,2.178c1.9236,0.7153 3.0048,1.1446 3.2432,1.2956l-1.7964,2.2177c-1.2162,-1.0412 -1.9874,-1.6853 -2.3212,-1.9474c-0.8187,1.5977 -1.3355,2.5436 -1.5339,2.8217h-0.0319c-1.5184,-0.5325 -2.3452,-0.8503 -2.4802,-0.9537v-0.0397l2.0986,-2.7423c-1.9477,-0.8028 -2.9967,-1.28 -3.132,-1.415c0.8584,-1.4546 1.3434,-2.2336 1.4468,-2.3289c0.0159,0.0397 0.9618,0.6834 2.8299,1.9474c0.6596,-1.2243 1.1205,-2.0271 1.3749,-2.4087z" fill="#2b70c2"/><path d="M378.5092,148.82987c0.0716,0.0081 0.1113,0.0478 0.1113,0.1112l-0.8269,4.5785c1.5818,-0.1828 2.369,-0.3337 2.369,-0.4449c0.294,-1.8362 0.5006,-2.8618 0.6118,-3.0842c1.9555,0.4052 3.0364,0.6437 3.2511,0.7152c-1.1365,3.9189 -1.7646,5.9538 -1.8758,6.1207c-1.9953,1.399 -3.1161,2.1702 -3.3624,2.3211c-0.0715,0 -1.3433,-0.31 -3.8076,-0.9381v-0.0556c0.6518,-1.4387 1.0571,-2.1539 1.2162,-2.1539l2.4246,1.2161l1.1605,-1.9874c-1.0415,0.2625 -1.6533,0.3897 -1.8205,0.3897l-3.092,-1.6059c0.3737,-3.4576 0.6121,-5.1825 0.7156,-5.1825z" fill="#2b70c2"/><path d="M385.5913,146.76307l3.7599,0.3181l-0.8347,6.2716l-2.9252,-0.2147zM385.4882,153.88527l2.7105,0.2146v2.6549l-3.2351,-0.4212z" fill="#000000"/><path d="M31.6623,163.53777l3.8792,0.1194l-0.4928,5.9219l2.2177,0.3018l0.6519,-5.2382l3.3223,0.7394l-0.7153,5.421l-2.4561,2.8854l-4.8566,-0.8584l-1.8999,-2.0986z" fill="#000000"/><path d="M48.4662,165.77137c1.5261,0.9778 2.3686,1.5343 2.5276,1.6853c-0.5484,1.224 -0.8661,1.8361 -0.9458,1.8361l-2.8933,-1.6771h-0.1035c0,0.0556 -0.1271,0.3497 -0.3734,0.8903c2.6627,1.4387 3.9983,2.1699 3.9983,2.2096c-0.7472,1.7249 -1.1687,2.6392 -1.264,2.7345l-4.5229,0.2622c-1.7565,-1.1684 -2.7027,-1.7806 -2.8377,-1.844v-0.0478c0,-0.135 0.2622,-0.7312 0.7868,-1.7883l3.5295,1.8361l0.2622,-1.0493c-2.1858,-0.9778 -3.4817,-1.5896 -3.8948,-1.8362v-0.1112c0,-0.1987 0.4212,-1.0968 1.2637,-2.6789z" fill="#000000"/><path d="M56.288,165.77958c2.4005,1.2321 3.7279,1.9552 3.9901,2.162c-0.3419,1.6137 -0.5484,2.4402 -0.6119,2.488h-5.0238v0.0872l1.4068,1.7409l2.2099,-1.1287c0.2147,0.3737 0.5325,1.0334 0.9381,1.9714c-0.1909,0.0635 -1.5818,0.2704 -4.1732,0.6119c-2.1462,-1.415 -3.2274,-2.154 -3.243,-2.2096c0.3415,-2.7505 0.5484,-4.1254 0.6118,-4.1254c2.2418,-0.954 3.5374,-1.4865 3.8952,-1.5977zM55.7711,167.70317c-0.0397,0.1031 -0.3259,0.5243 -0.8424,1.2637c0,0.2225 0.3099,0.3341 0.9377,0.3341c0,0.0315 0.4531,0.1112 1.3593,0.2302c0.2466,-0.3418 0.3738,-0.5484 0.3738,-0.604c-0.0797,-0.469 -0.2544,-0.7075 -0.5169,-0.7075z" fill="#000000"/><path d="M67.4161,163.37087l3.4977,0.62l-0.3341,2.6549c0.6916,-0.0397 1.2003,-0.0557 1.5262,-0.0557h0.5087l0.1113,-0.0556l0.0556,0.1113c-0.1112,1.6136 -0.2065,2.5198 -0.2859,2.7186l-0.1113,-0.0634c-0.0797,0 -0.7949,-0.0401 -2.1464,-0.1116c-0.0716,1.248 -0.1272,2.7345 -0.1669,4.4673l-0.1112,0.0556c-1.709,-0.1113 -2.7265,-0.2066 -3.0524,-0.2859l0.0556,-0.2228c0,-0.461 0.0716,-1.8918 0.2225,-4.2923c-1.4305,-0.0794 -2.1461,-0.175 -2.1461,-0.2863c0.0715,-1.7724 0.1668,-2.6548 0.2862,-2.6548l2.0905,0.3975v-0.6838c0,-0.5562 -0.0237,-1.3115 -0.0634,-2.2574c0.0397,0 0.0634,-0.0159 0.0634,-0.0556z" fill="#000000"/><path d="M77.1854,163.37087c0.0315,0.0478 0.1828,1.5025 0.4449,4.3561c2.0431,-0.6281 3.1321,-0.9381 3.267,-0.9381l2.0271,1.383c-0.3259,3.0208 -0.5406,4.7854 -0.644,5.2942l-2.8139,0.0953c0,-0.0319 -0.016,-0.0479 -0.0556,-0.0479l0.0556,-0.1987c0,-0.429 0.0637,-1.7327 0.1909,-3.9107c-0.7712,-0.0316 -1.3515,-0.0475 -1.7249,-0.0475h-0.1987c0.2306,2.4242 0.3418,3.7438 0.3418,3.9582l-2.6708,0.3975c-0.1034,-0.3415 -0.6915,-3.5055 -1.7805,-9.4986c0,-0.1672 0.4134,-0.3022 1.2399,-0.3975c1.0412,-0.2944 1.8202,-0.4453 2.3212,-0.4453z" fill="#000000"/><path d="M88.1785,165.77958c2.4005,1.2321 3.728,1.9552 3.9901,2.162c-0.3415,1.6137 -0.5484,2.4402 -0.6118,2.488h-5.0238v0.0872l1.4071,1.7409l2.2096,-1.1287c0.2147,0.3737 0.5328,1.0334 0.9381,1.9714c-0.191,0.0635 -1.5818,0.2704 -4.1733,0.6119c-2.1461,-1.415 -3.227,-2.154 -3.2429,-2.2096c0.3418,-2.7505 0.5484,-4.1254 0.6118,-4.1254c2.2418,-0.954 3.5373,-1.4865 3.8951,-1.5977zM87.6617,167.70317c-0.0397,0.1031 -0.3259,0.5243 -0.8425,1.2637c0,0.2225 0.31,0.3341 0.9381,0.3341c0,0.0315 0.4531,0.1112 1.359,0.2302c0.2466,-0.3418 0.3737,-0.5484 0.3737,-0.604c-0.0793,-0.469 -0.2543,-0.7075 -0.5165,-0.7075z" fill="#000000"/><path d="M98.1384,165.77137c3.1476,0.4372 4.7216,0.6997 4.7216,0.8028c1.2399,1.0653 1.8599,1.6377 1.8599,1.7093c-0.5006,1.5737 -0.7868,2.5277 -0.8584,2.8692c0.5009,1.1209 0.7868,1.7887 0.8584,2.0034c0,0.0634 -0.8187,0.2303 -2.4639,0.5087c-0.0241,-0.0875 -0.175,-0.294 -0.4531,-0.6044c-2.2656,0.4375 -3.4895,0.6519 -3.6645,0.6519l-1.2081,-3.2667l2.6627,-1.4071c0.4293,0.0715 1.0968,0.1034 2.0111,0.1034c0,-0.1194 0.016,-0.469 0.0475,-1.0571c-0.1509,0 -1.5262,0.1031 -4.1173,0.3018l-0.0478,-0.1031c0.3578,-1.6774 0.5803,-2.5121 0.6519,-2.5121zM99.7917,170.44558c0,0.0556 0.1669,0.6756 0.5087,1.8599h0.0478c0.6675,-0.4372 1.0016,-0.7234 1.0016,-0.8584l0.1031,-0.8506c-0.1272,0 -0.6834,-0.0478 -1.6612,-0.1509z" fill="#2b70c2"/><path d="M111.1902,165.77137c1.0493,0.5885 1.6934,0.97 1.9318,1.1447c-0.8587,1.7886 -1.3197,2.6948 -1.3831,2.7264h-0.0556l-1.1368,-0.9934l-1.3434,1.6374l0.1509,2.9808c-0.0715,0.0634 -0.9459,0.2147 -2.6308,0.445c-0.0637,-0.4531 -0.4771,-2.6868 -1.2402,-6.7006c0,-0.0638 1.1049,-0.2306 3.3226,-0.4931c0.0397,0.04 0.1353,0.5406 0.3022,1.4865c1.3274,-1.4865 2.019,-2.2337 2.0824,-2.2337z" fill="#2b70c2"/><path d="M119.457,165.77137c1.0493,0.5885 1.6933,0.97 1.9317,1.1447c-0.8587,1.7886 -1.3196,2.6948 -1.383,2.7264h-0.0556l-1.1369,-0.9934l-1.3433,1.6374l0.1509,2.9808c-0.0716,0.0634 -0.9459,0.2147 -2.6308,0.445c-0.0637,-0.4531 -0.4772,-2.6868 -1.2403,-6.7006c0,-0.0638 1.105,-0.2306 3.3227,-0.4931c0.0397,0.04 0.1353,0.5406 0.3022,1.4865c1.3274,-1.4865 2.0189,-2.2337 2.0824,-2.2337z" fill="#2b70c2"/><path d="M125.2201,165.77958c2.0108,0.5402 3.0839,0.8662 3.2033,0.9855c1.1049,1.5659 1.7327,2.4721 1.868,2.7105c-0.7156,2.2655 -1.1287,3.402 -1.2321,3.402c-2.3846,0.5566 -3.6326,0.8347 -3.7439,0.8347c-1.9715,-1.1525 -3.0204,-1.7884 -3.1476,-1.9237c-0.0716,-2.138 -0.1035,-3.3223 -0.1035,-3.5451c-0.0318,-0.0634 -0.0478,-0.1113 -0.0478,-0.1431c2.0349,-1.5499 3.0842,-2.3208 3.1558,-2.3208zM125.0689,168.68878c-0.0316,0.2147 -0.0794,0.9856 -0.1432,2.313l1.7728,0.3975c0.4212,-1.3275 0.6359,-2.0349 0.6359,-2.1224c-1.4068,-0.4212 -2.1621,-0.6359 -2.2655,-0.6359z" fill="#2b70c2"/><path d="M134.5043,165.77137c0.0716,0.0875 0.4291,1.6296 1.0731,4.6104h0.0556c0,-0.0715 0.3894,-0.6756 1.1762,-1.8202c0.3259,0.2225 0.954,0.7075 1.8762,1.4465h0.1112v-0.0556c0.1431,-2.0665 0.2462,-3.2111 0.3178,-3.4339c2.1862,0.1116 3.2752,0.1987 3.2752,0.2703c-1.0019,4.0301 -1.5343,6.1206 -1.6059,6.2797c-0.3337,0.0397 -1.0334,0.1431 -2.0983,0.3178c-0.8744,-1.375 -1.3753,-2.1065 -1.5025,-2.1937c-0.5721,1.5262 -0.9299,2.3687 -1.073,2.5196h-2.1462c-0.1353,-0.0397 -0.7552,-1.4228 -1.8758,-4.1332c-0.7156,-1.5184 -1.0731,-2.3371 -1.0731,-2.4643c0,-0.119 1.1603,-0.5643 3.4895,-1.3434z" fill="#2b70c2"/><path d="M150.7991,163.37087c0.0716,0.2147 0.2388,1.7171 0.5009,4.507l2.3846,-2.6708h0.0556c0.3738,0.31 1.0575,0.954 2.059,1.9474v0.0556l-2.2815,1.884c1.7172,1.1527 2.623,1.7965 2.7265,1.9474c-1.0809,1.2002 -1.7327,1.8917 -1.9474,2.0589l-2.7743,-2.5595c0.1113,1.1446 0.1669,1.9952 0.1669,2.5595c-0.135,0.0716 -1.1128,0.2782 -2.9489,0.6119c-0.1509,-0.739 -0.6278,-3.9267 -1.4465,-9.5623c0.3415,-0.1113 1.5102,-0.3738 3.5051,-0.7791z" fill="#2b70c2"/><path d="M161.4349,165.77958c2.4005,1.2321 3.7279,1.9552 3.99,2.162c-0.3415,1.6137 -0.5484,2.4402 -0.6118,2.488h-5.0238v0.0872l1.4071,1.7409l2.2096,-1.1287c0.2147,0.3737 0.5328,1.0334 0.9381,1.9714c-0.191,0.0635 -1.5818,0.2704 -4.1733,0.6119c-2.1461,-1.415 -3.227,-2.154 -3.2429,-2.2096c0.3419,-2.7505 0.5484,-4.1254 0.6118,-4.1254c2.2418,-0.954 3.5373,-1.4865 3.8952,-1.5977zM160.918,167.70317c-0.0397,0.1031 -0.3259,0.5243 -0.8425,1.2637c0,0.2225 0.31,0.3341 0.9381,0.3341c0,0.0315 0.4531,0.1112 1.359,0.2302c0.2466,-0.3418 0.3737,-0.5484 0.3737,-0.604c-0.0793,-0.469 -0.2543,-0.7075 -0.5165,-0.7075z" fill="#2b70c2"/><path d="M169.8051,165.78738c0.0712,0.0081 0.1112,0.0478 0.1112,0.1112l-0.8268,4.5785c1.5818,-0.1828 2.3689,-0.3337 2.3689,-0.4449c0.2941,-1.8362 0.5006,-2.8618 0.6118,-3.0843c1.9556,0.4053 3.0364,0.6437 3.2511,0.7153c-1.1365,3.9189 -1.7646,5.9538 -1.8758,6.1206c-1.9952,1.399 -3.1161,2.1703 -3.3623,2.3212c-0.0716,0 -1.3434,-0.31 -3.8077,-0.9381v-0.0556c0.6519,-1.4387 1.0572,-2.154 1.2162,-2.154l2.4246,1.2162l1.1606,-1.9874c-1.0416,0.2625 -1.6534,0.3897 -1.8206,0.3897l-3.092,-1.6059c0.3737,-3.4576 0.6122,-5.1825 0.7156,-5.1825z" fill="#2b70c2"/><path d="M182.515,165.77137c1.5262,0.9778 2.3687,1.5343 2.5277,1.6853c-0.5484,1.224 -0.8662,1.8361 -0.9459,1.8361l-2.8933,-1.6771h-0.1034c0,0.0556 -0.1272,0.3497 -0.3734,0.8903c2.6627,1.4387 3.9982,2.1699 3.9982,2.2096c-0.7471,1.7249 -1.1687,2.6392 -1.264,2.7345l-4.5229,0.2622c-1.7564,-1.1684 -2.7027,-1.7806 -2.8376,-1.844v-0.0478c0,-0.135 0.2621,-0.7312 0.7868,-1.7883l3.5295,1.8361l0.2622,-1.0493c-2.1858,-0.9778 -3.4817,-1.5896 -3.8948,-1.8362v-0.1112c0,-0.1987 0.4212,-1.0968 1.2637,-2.6789z" fill="#2b70c2"/><path d="M192.2446,163.37087l3.4973,0.62l-0.3338,2.6549c0.6916,-0.0397 1.2003,-0.0557 1.5262,-0.0557h0.5087l0.1113,-0.0556l0.0556,0.1113c-0.1112,1.6136 -0.2065,2.5198 -0.2862,2.7186l-0.1113,-0.0634c-0.0793,0 -0.7949,-0.0401 -2.1461,-0.1116c-0.0716,1.248 -0.1272,2.7345 -0.1669,4.4673l-0.1112,0.0556c-1.709,-0.1113 -2.7264,-0.2066 -3.0524,-0.2859l0.0557,-0.2228c0,-0.461 0.0715,-1.8918 0.2224,-4.2923c-1.4308,-0.0794 -2.1461,-0.175 -2.1461,-0.2863c0.0716,-1.7724 0.1669,-2.6548 0.2862,-2.6548l2.0906,0.3975v-0.6838c0,-0.5562 -0.0241,-1.3115 -0.0638,-2.2574c0.0397,0 0.0638,-0.0159 0.0638,-0.0556z" fill="#000000"/><path d="M201.656,165.77958c2.0108,0.5402 3.0838,0.8662 3.2032,0.9855c1.105,1.5659 1.7327,2.4721 1.8681,2.7105c-0.7156,2.2655 -1.1287,3.402 -1.2322,3.402c-2.3845,0.5566 -3.6326,0.8347 -3.7438,0.8347c-1.9715,-1.1525 -3.0205,-1.7884 -3.1477,-1.9237c-0.0716,-2.138 -0.1034,-3.3223 -0.1034,-3.5451c-0.0319,-0.0634 -0.0479,-0.1113 -0.0479,-0.1431c2.0349,-1.5499 3.0843,-2.3208 3.1558,-2.3208zM201.5047,168.68878c-0.0315,0.2147 -0.0794,0.9856 -0.1431,2.313l1.7727,0.3975c0.4212,-1.3275 0.6359,-2.0349 0.6359,-2.1224c-1.4068,-0.4212 -2.1621,-0.6359 -2.2655,-0.6359z" fill="#000000"/><path d="M220.3197,165.77137c1.2955,0.5328 2.4083,1.0416 3.3464,1.5103c-0.2466,3.1557 -0.3975,4.8807 -0.4691,5.1747c-1.558,0.3897 -2.4323,0.5803 -2.6151,0.5803c0,-0.6915 -0.0557,-2.0508 -0.1588,-4.0776c-0.5884,0.0556 -0.8824,0.1112 -0.8824,0.1509c0,0.1988 0.0318,1.3512 0.1034,3.4498c0.0315,0 0.0475,0.016 0.0475,0.0557c0,0.0634 -0.8187,0.2384 -2.4561,0.5246c-0.0716,-0.0875 -0.2781,-1.3752 -0.6278,-3.871c-0.66,0.1668 -0.9937,0.294 -0.9937,0.3656l0.3178,3.2429c-0.0634,0.0716 -0.9378,0.35 -2.6152,0.8347c-0.9774,-3.4499 -1.5818,-5.7629 -1.828,-6.9472c1.8361,-0.4531 2.8695,-0.6837 3.0842,-0.6837c0.2462,0.9618 0.3656,1.5184 0.3656,1.6693h0.0556c0.8981,-0.8265 1.5181,-1.383 1.8759,-1.6693h0.0556l1.6693,1.2003h0.0556c1.0412,-1.0093 1.5977,-1.5103 1.6693,-1.5103z" fill="#000000"/><path d="M225.6691,165.77137c3.148,0.4372 4.7216,0.6997 4.7216,0.8028c1.24,1.0653 1.8603,1.6377 1.8603,1.7093c-0.5009,1.5737 -0.7872,2.5277 -0.8588,2.8692c0.501,1.1209 0.7872,1.7887 0.8588,2.0034c0,0.0634 -0.8191,0.2303 -2.4643,0.5087c-0.0237,-0.0875 -0.175,-0.294 -0.4531,-0.6044c-2.2655,0.4375 -3.4895,0.6519 -3.6645,0.6519l-1.2081,-3.2667l2.6627,-1.4071c0.4294,0.0715 1.0972,0.1034 2.0112,0.1034c0,-0.1194 0.0159,-0.469 0.0478,-1.0571c-0.1513,0 -1.5262,0.1031 -4.1176,0.3018l-0.0478,-0.1031c0.3578,-1.6774 0.5802,-2.5121 0.6518,-2.5121zM227.3225,170.44558c0,0.0556 0.1668,0.6756 0.5087,1.8599h0.0478c0.6678,-0.4372 1.0015,-0.7234 1.0015,-0.8584l0.1034,-0.8506c-0.1271,0 -0.6837,-0.0478 -1.6614,-0.1509z" fill="#000000"/><path d="M236.5192,163.37087c0.0715,0.2147 0.2387,1.7171 0.5009,4.507l2.3846,-2.6708h0.0556c0.3737,0.31 1.0574,0.954 2.059,1.9474v0.0556l-2.2815,1.884c1.7171,1.1527 2.623,1.7965 2.7264,1.9474c-1.0809,1.2002 -1.7327,1.8917 -1.9474,2.0589l-2.7742,-2.5595c0.1112,1.1446 0.1668,1.9952 0.1668,2.5595c-0.1349,0.0716 -1.1127,0.2782 -2.9489,0.6119c-0.1509,-0.739 -0.6277,-3.9267 -1.4464,-9.5623c0.3415,-0.1113 1.5102,-0.3738 3.5051,-0.7791z" fill="#000000"/><path d="M247.1549,165.77958c2.4005,1.2321 3.7279,1.9552 3.9901,2.162c-0.3415,1.6137 -0.5484,2.4402 -0.6118,2.488h-5.0239v0.0872l1.4072,1.7409l2.2095,-1.1287c0.2147,0.3737 0.5328,1.0334 0.9381,1.9714c-0.1909,0.0635 -1.5818,0.2704 -4.1732,0.6119c-2.1461,-1.415 -3.227,-2.154 -3.243,-2.2096c0.3419,-2.7505 0.5484,-4.1254 0.6119,-4.1254c2.2417,-0.954 3.5373,-1.4865 3.8951,-1.5977zM246.638,167.70317c-0.0396,0.1031 -0.3259,0.5243 -0.8424,1.2637c0,0.2225 0.31,0.3341 0.9381,0.3341c0,0.0315 0.4531,0.1112 1.359,0.2302c0.2465,-0.3418 0.3737,-0.5484 0.3737,-0.604c-0.0794,-0.469 -0.2544,-0.7075 -0.5165,-0.7075z" fill="#000000"/><path d="M259.563,165.78738c0.0716,0.0081 0.1113,0.0478 0.1113,0.1112l-0.8269,4.5785c1.5818,-0.1828 2.369,-0.3337 2.369,-0.4449c0.294,-1.8362 0.5006,-2.8618 0.6118,-3.0843c1.9555,0.4053 3.0368,0.6437 3.2511,0.7153c-1.1365,3.9189 -1.7646,5.9538 -1.8758,6.1206c-1.9953,1.399 -3.1158,2.1703 -3.3624,2.3212c-0.0715,0 -1.3433,-0.31 -3.8073,-0.9381v-0.0556c0.6515,-1.4387 1.0572,-2.154 1.2159,-2.154l2.4246,1.2162l1.1605,-1.9874c-1.0415,0.2625 -1.6533,0.3897 -1.8202,0.3897l-3.0923,-1.6059c0.3737,-3.4576 0.6121,-5.1825 0.7156,-5.1825z" fill="#000000"/><path d="M269.0619,165.77958c2.0108,0.5402 3.0839,0.8662 3.2033,0.9855c1.1049,1.5659 1.7327,2.4721 1.868,2.7105c-0.7156,2.2655 -1.1287,3.402 -1.2321,3.402c-2.3846,0.5566 -3.6326,0.8347 -3.7439,0.8347c-1.9714,-1.1525 -3.0204,-1.7884 -3.1476,-1.9237c-0.0716,-2.138 -0.1035,-3.3223 -0.1035,-3.5451c-0.0318,-0.0634 -0.0478,-0.1113 -0.0478,-0.1431c2.0349,-1.5499 3.0842,-2.3208 3.1558,-2.3208zM268.9107,168.68878c-0.0316,0.2147 -0.0794,0.9856 -0.1432,2.313l1.7728,0.3975c0.4212,-1.3275 0.6359,-2.0349 0.6359,-2.1224c-1.4068,-0.4212 -2.1621,-0.6359 -2.2655,-0.6359z" fill="#000000"/><path d="M279.1489,165.77137l0.0556,0.1035l-1.073,5.6912h0.0556l2.7342,-0.8027v-3.2192c0.0082,-0.0716 0.0478,-0.1113 0.1035,-0.1113c2.0586,0.1431 3.2032,0.2147 3.4338,0.2147c0,0.0397 0.016,0.0556 0.0557,0.0556c0,0.9059 -0.2863,2.7821 -0.8584,5.6357c0,0.1668 -0.8187,0.2862 -2.4643,0.3734c-0.0875,-0.1031 -0.159,-0.3178 -0.2147,-0.6437c-2.1064,0.4293 -3.3067,0.6437 -3.6007,0.6437c-1.6771,-1.2478 -2.5196,-1.8918 -2.5196,-1.9315c0.2859,-3.7598 0.4687,-5.7072 0.5403,-5.8503h0.0478c1.3434,-0.0397 2.5755,-0.0875 3.7042,-0.1591z" fill="#000000"/><path d="M291.0242,165.77137c1.0494,0.5885 1.6934,0.97 1.9318,1.1447c-0.8587,1.7886 -1.3196,2.6948 -1.383,2.7264h-0.0556l-1.1369,-0.9934l-1.3433,1.6374l0.1509,2.9808c-0.0716,0.0634 -0.9459,0.2147 -2.6308,0.445c-0.0638,-0.4531 -0.4772,-2.6868 -1.2403,-6.7006c0,-0.0638 1.105,-0.2306 3.3227,-0.4931c0.0397,0.04 0.1353,0.5406 0.3022,1.4865c1.3274,-1.4865 2.0189,-2.2337 2.0823,-2.2337z" fill="#000000"/><path d="M300.7456,165.77958c2.3927,0.4531 3.6408,0.7074 3.752,0.7709v0.0953c-0.5165,1.4546 -0.7709,2.2021 -0.7709,2.2577h-0.0478c-0.1353,0 -0.7712,-0.2069 -1.9236,-0.62c-0.6437,1.0731 -0.9619,1.6534 -0.9619,1.7246l1.59,1.5421c1.2318,-1.1524 1.8521,-1.7327 1.8758,-1.7327c0.9618,1.2559 1.4387,1.9633 1.4387,2.1142c-0.5247,0.3022 -1.4387,0.8984 -2.7424,1.7806c-2.5199,-0.5484 -3.887,-0.8503 -4.0857,-0.914l-1.2477,-4.0379z" fill="#000000"/><path d="M310.0539,163.37087c0.0316,0.0478 0.1828,1.5025 0.445,4.3561c2.043,-0.6281 3.132,-0.9381 3.267,-0.9381l2.0271,1.383c-0.3259,3.0208 -0.5406,4.7854 -0.644,5.2942l-2.814,0.0953c0,-0.0319 -0.0159,-0.0479 -0.0556,-0.0479l0.0556,-0.1987c0,-0.429 0.0638,-1.7327 0.191,-3.9107c-0.7712,-0.0316 -1.3515,-0.0475 -1.7249,-0.0475h-0.1988c0.2306,2.4242 0.3419,3.7438 0.3419,3.9582l-2.6708,0.3975c-0.1035,-0.3415 -0.6915,-3.5055 -1.7805,-9.4986c0,-0.1672 0.4134,-0.3022 1.2399,-0.3975c1.0412,-0.2944 1.8202,-0.4453 2.3211,-0.4453z" fill="#000000"/><path d="M317.7482,165.77137c3.148,0.4372 4.7216,0.6997 4.7216,0.8028c1.24,1.0653 1.8603,1.6377 1.8603,1.7093c-0.5009,1.5737 -0.7872,2.5277 -0.8587,2.8692c0.5009,1.1209 0.7871,1.7887 0.8587,2.0034c0,0.0634 -0.8191,0.2303 -2.4643,0.5087c-0.0237,-0.0875 -0.175,-0.294 -0.4531,-0.6044c-2.2655,0.4375 -3.4895,0.6519 -3.6645,0.6519l-1.208,-3.2667l2.6626,-1.4071c0.4294,0.0715 1.0972,0.1034 2.0112,0.1034c0,-0.1194 0.0159,-0.469 0.0478,-1.0571c-0.1513,0 -1.5262,0.1031 -4.1176,0.3018l-0.0478,-0.1031c0.3578,-1.6774 0.5802,-2.5121 0.6518,-2.5121zM319.4016,170.44558c0,0.0556 0.1668,0.6756 0.5087,1.8599h0.0478c0.6678,-0.4372 1.0015,-0.7234 1.0015,-0.8584l0.1035,-0.8506c-0.1272,0 -0.6838,-0.0478 -1.6615,-0.1509z" fill="#000000"/><path d="M330.8004,165.77137c1.049,0.5885 1.693,0.97 1.9314,1.1447c-0.8584,1.7886 -1.3196,2.6948 -1.383,2.7264h-0.0556l-1.1369,-0.9934l-1.3433,1.6374l0.1512,2.9808c-0.0715,0.0634 -0.9459,0.2147 -2.6311,0.445c-0.0638,-0.4531 -0.4768,-2.6868 -1.2399,-6.7006c0,-0.0638 1.1046,-0.2306 3.3223,-0.4931c0.04,0.04 0.1353,0.5406 0.3022,1.4865c1.3274,-1.4865 2.0189,-2.2337 2.0827,-2.2337z" fill="#000000"/><path d="M334.568,165.77137c3.1476,0.4372 4.7216,0.6997 4.7216,0.8028c1.24,1.0653 1.8599,1.6377 1.8599,1.7093c-0.5006,1.5737 -0.7868,2.5277 -0.8584,2.8692c0.501,1.1209 0.7869,1.7887 0.8584,2.0034c0,0.0634 -0.8187,0.2303 -2.4639,0.5087c-0.0241,-0.0875 -0.175,-0.294 -0.4531,-0.6044c-2.2655,0.4375 -3.4895,0.6519 -3.6645,0.6519l-1.2081,-3.2667l2.6627,-1.4071c0.4294,0.0715 1.0968,0.1034 2.0112,0.1034c0,-0.1194 0.0159,-0.469 0.0474,-1.0571c-0.1509,0 -1.5261,0.1031 -4.1172,0.3018l-0.0479,-0.1031c0.3578,-1.6774 0.5803,-2.5121 0.6519,-2.5121zM336.2213,170.44558c0,0.0556 0.1669,0.6756 0.5088,1.8599h0.0478c0.6674,-0.4372 1.0015,-0.7234 1.0015,-0.8584l0.1031,-0.8506c-0.1272,0 -0.6834,-0.0478 -1.6612,-0.1509z" fill="#000000"/><path d="M345.0365,165.77958c2.3927,0.4531 3.6408,0.7074 3.752,0.7709v0.0953c-0.5168,1.4546 -0.7712,2.2021 -0.7712,2.2577h-0.0475c-0.1353,0 -0.7712,-0.2069 -1.9236,-0.62c-0.6441,1.0731 -0.9619,1.6534 -0.9619,1.7246l1.5896,1.5421c1.2322,-1.1524 1.8521,-1.7327 1.8762,-1.7327c0.9615,1.2559 1.4387,1.9633 1.4387,2.1142c-0.5247,0.3022 -1.4387,0.8984 -2.7424,1.7806c-2.5199,-0.5484 -3.887,-0.8503 -4.0857,-0.914l-1.2481,-4.0379z" fill="#000000"/><path d="M353.1602,163.37087l3.4976,0.62l-0.334,2.6549c0.6915,-0.0397 1.2002,-0.0557 1.5261,-0.0557h0.5088l0.1115,-0.0556l0.0557,0.1113c-0.1116,1.6136 -0.2069,2.5198 -0.2863,2.7186l-0.1112,-0.0634c-0.0797,0 -0.795,-0.0401 -2.1462,-0.1116c-0.0715,1.248 -0.1271,2.7345 -0.1672,4.4673l-0.1112,0.0556c-1.709,-0.1113 -2.7264,-0.2066 -3.0524,-0.2859l0.0557,-0.2228c0,-0.461 0.0715,-1.8918 0.2228,-4.2923c-1.4309,-0.0794 -2.1465,-0.175 -2.1465,-0.2863c0.0716,-1.7724 0.1672,-2.6548 0.2863,-2.6548l2.0905,0.3975v-0.6838c0,-0.5562 -0.0238,-1.3115 -0.0635,-2.2574c0.0397,0 0.0635,-0.0159 0.0635,-0.0556z" fill="#000000"/><path d="M363.8753,165.77958c2.4005,1.2321 3.7279,1.9552 3.9904,2.162c-0.3419,1.6137 -0.5484,2.4402 -0.6122,2.488h-5.0235v0.0872l1.4068,1.7409l2.2099,-1.1287c0.2144,0.3737 0.5325,1.0334 0.9378,1.9714c-0.1906,0.0635 -1.5818,0.2704 -4.1729,0.6119c-2.1465,-1.415 -3.2274,-2.154 -3.2433,-2.2096c0.3419,-2.7505 0.5484,-4.1254 0.6122,-4.1254c2.2414,-0.954 3.537,-1.4865 3.8948,-1.5977zM363.3587,167.70317c-0.0396,0.1031 -0.3259,0.5243 -0.8428,1.2637c0,0.2225 0.31,0.3341 0.9381,0.3341c0,0.0315 0.4531,0.1112 1.3593,0.2302c0.2463,-0.3418 0.3735,-0.5484 0.3735,-0.604c-0.0794,-0.469 -0.2544,-0.7075 -0.5166,-0.7075z" fill="#000000"/><path d="M374.2963,165.77137c1.049,0.5885 1.693,0.97 1.9315,1.1447c-0.8584,1.7886 -1.3197,2.6948 -1.3831,2.7264h-0.0556l-1.1368,-0.9934l-1.3434,1.6374l0.1513,2.9808c-0.0716,0.0634 -0.9459,0.2147 -2.6312,0.445c-0.0637,-0.4531 -0.4768,-2.6868 -1.2399,-6.7006c0,-0.0638 1.1046,-0.2306 3.3223,-0.4931c0.04,0.04 0.1353,0.5406 0.3022,1.4865c1.3274,-1.4865 2.0189,-2.2337 2.0827,-2.2337z" fill="#000000"/><path d="M386.601,165.77137c1.0493,0.5885 1.693,0.97 1.9315,1.1447c-0.8584,1.7886 -1.3193,2.6948 -1.3831,2.7264h-0.0556l-1.1365,-0.9934l-1.3434,1.6374l0.1509,2.9808c-0.0715,0.0634 -0.9458,0.2147 -2.6311,0.445c-0.0634,-0.4531 -0.4768,-2.6868 -1.2399,-6.7006c0,-0.0638 1.1049,-0.2306 3.3226,-0.4931c0.0397,0.04 0.135,0.5406 0.3019,1.4865c1.3274,-1.4865 2.0189,-2.2337 2.0827,-2.2337z" fill="#000000"/><path d="M393.4528,165.77137l0.0557,0.1035l-1.0731,5.6912h0.0556l2.7346,-0.8027v-3.2192c0.0078,-0.0716 0.0474,-0.1113 0.1031,-0.1113c2.0589,0.1431 3.2036,0.2147 3.4339,0.2147c0,0.0397 0.0159,0.0556 0.0556,0.0556c0,0.9059 -0.2859,2.7821 -0.8584,5.6357c0,0.1668 -0.8187,0.2862 -2.4639,0.3734c-0.0875,-0.1031 -0.1591,-0.3178 -0.2147,-0.6437c-2.1065,0.4293 -3.3067,0.6437 -3.6008,0.6437c-1.6774,-1.2478 -2.5198,-1.8918 -2.5198,-1.9315c0.2862,-3.7598 0.469,-5.7072 0.5406,-5.8503h0.0474c1.3434,-0.0397 2.5755,-0.0875 3.7042,-0.1591z" fill="#000000"/><path d="M406.6797,165.77137l2.647,1.8202c-0.1828,3.0208 -0.3181,4.7854 -0.3897,5.2942c-0.3099,0.0396 -1.2399,0.0953 -2.8057,0.1668l-0.0557,-0.1112l-0.2784,-4.2448l-0.1112,-0.0556c-1.0094,0.2147 -1.709,0.3815 -2.0906,0.4928c0.1035,1.8046 0.1591,3.1161 0.1591,3.9188c-1.5818,0.4372 -2.4402,0.6597 -2.5914,0.6597c-1.0253,-4.5229 -1.5422,-6.9153 -1.5422,-7.1696c2.2337,-0.2941 3.4499,-0.4372 3.6408,-0.4372v0.0556c0.0397,0.0238 0.0953,0.5803 0.1669,1.6534c2.0508,-1.3593 3.1317,-2.0431 3.2511,-2.0431z" fill="#000000"/><path d="M415.3599,165.77137c3.1476,0.4372 4.7216,0.6997 4.7216,0.8028c1.2399,1.0653 1.8599,1.6377 1.8599,1.7093c-0.5006,1.5737 -0.7868,2.5277 -0.8584,2.8692c0.5006,1.1209 0.7868,1.7887 0.8584,2.0034c0,0.0634 -0.8187,0.2303 -2.4643,0.5087c-0.0237,-0.0875 -0.1746,-0.294 -0.4527,-0.6044c-2.2655,0.4375 -3.4899,0.6519 -3.6645,0.6519l-1.2084,-3.2667l2.663,-1.4071c0.4293,0.0715 1.0968,0.1034 2.0111,0.1034c0,-0.1194 0.016,-0.469 0.0475,-1.0571c-0.1509,0 -1.5262,0.1031 -4.1173,0.3018l-0.0478,-0.1031c0.3578,-1.6774 0.5803,-2.5121 0.6519,-2.5121zM417.0132,170.44558c0,0.0556 0.1669,0.6756 0.5087,1.8599h0.0475c0.6678,-0.4372 1.0019,-0.7234 1.0019,-0.8584l0.1031,-0.8506c-0.1272,0 -0.6834,-0.0478 -1.6612,-0.1509z" fill="#000000"/><path d="M429.7632,165.77137l2.6467,1.8202c-0.1828,3.0208 -0.3178,4.7854 -0.3893,5.2942c-0.31,0.0396 -1.2403,0.0953 -2.8061,0.1668l-0.0557,-0.1112l-0.2781,-4.2448l-0.1112,-0.0556c-1.0097,0.2147 -1.709,0.3815 -2.0905,0.4928c0.1031,1.8046 0.1587,3.1161 0.1587,3.9188c-1.5818,0.4372 -2.4402,0.6597 -2.5911,0.6597c-1.0256,-4.5229 -1.5421,-6.9153 -1.5421,-7.1696c2.2336,-0.2941 3.4498,-0.4372 3.6404,-0.4372v0.0556c0.04,0.0238 0.0957,0.5803 0.1672,1.6534c2.0505,-1.3593 3.1317,-2.0431 3.2508,-2.0431z" fill="#000000"/><path d="M438.0059,163.36307h0.0478c2.3924,0.1988 3.593,0.3575 3.593,0.4691l1.0571,9.3554c0,0.0716 -1.0571,0.2466 -3.1717,0.5247l-0.0475,-0.1031v-0.8506c-1.8206,0.4928 -3.0764,0.8106 -3.752,0.9537c-1.6137,-2.2811 -2.4561,-3.4895 -2.5355,-3.6405c1.1843,-2.1542 1.8202,-3.251 1.8996,-3.2748l3.3304,0.1587c-0.0712,-0.4052 -0.2065,-1.6055 -0.4212,-3.5926zM436.5275,169.06218c0.5325,1.6377 0.8666,2.5358 1.0016,2.6949l1.5817,-1.3753c-0.1668,-0.9459 -0.2862,-1.4227 -0.3656,-1.4227h-2.1142c-0.0716,0.0078 -0.1035,0.0475 -0.1035,0.1031z" fill="#000000"/><path d="M39.1341,179.40628l3.1321,0.4931c-0.3897,1.5021 -0.6519,2.2574 -0.7713,2.2574c-1.6452,-0.1113 -2.472,-0.2225 -2.472,-0.3341v-2.3049c0.0081,-0.0715 0.0478,-0.1115 0.1112,-0.1115zM38.252,182.76078l3.7917,0.9856c-0.7712,4.4513 -1.1925,6.8121 -1.264,7.0906c-0.1669,0.1509 -1.5184,0.8265 -4.062,2.0349c-2.0268,-0.9541 -3.2667,-1.5581 -3.7357,-1.8125c-0.5169,-1.9633 -0.811,-3.0445 -0.8825,-3.2433c0.0715,-0.0715 1.1209,-0.3656 3.132,-0.8821c0,0.0397 0.016,0.0556 0.0557,0.0556c-0.0397,0.0716 -0.0557,0.1272 -0.0557,0.1669c0,0.2466 -0.0715,1.1128 -0.2228,2.5833c1.7727,-0.2225 2.838,-0.3656 3.1877,-0.4372v-1.4308c0,-0.0872 -0.016,-0.1588 -0.0478,-0.2225l0.0478,-0.1113c-0.0319,-0.0637 -0.0478,-0.1349 -0.0478,-0.2146h0.0478l-0.0478,-0.1113v-0.0556c0,-0.0397 0.0159,-0.0556 0.0478,-0.0556l-0.0478,-0.1113v-0.0556c0,-0.0397 0.0159,-0.0556 0.0478,-0.0556l-0.0478,-0.1034v-3.903c0.0081,-0.0715 0.0478,-0.1112 0.1034,-0.1112z" fill="#000000"/><path d="M47.425,182.72888l0.0556,0.1034l-1.0731,5.6913h0.0556l2.7343,-0.8028v-3.2192c0.0081,-0.0715 0.0478,-0.1112 0.1034,-0.1112c2.0587,0.1431 3.2033,0.2147 3.4339,0.2147c0,0.0397 0.0159,0.0556 0.0556,0.0556c0,0.9059 -0.2862,2.782 -0.8584,5.6357c0,0.1668 -0.8187,0.2862 -2.4642,0.3734c-0.0875,-0.1031 -0.1591,-0.3178 -0.2147,-0.6438c-2.1065,0.4294 -3.3067,0.6438 -3.6008,0.6438c-1.6771,-1.2478 -2.5195,-1.8918 -2.5195,-1.9315c0.2859,-3.7598 0.4687,-5.7072 0.5403,-5.8503h0.0478c1.3434,-0.0397 2.5755,-0.0875 3.7042,-0.1591z" fill="#000000"/><path d="M62.4242,182.72888c1.2959,0.5328 2.4086,1.0415 3.3467,1.5102c-0.2465,3.1558 -0.3974,4.8807 -0.469,5.1748c-1.5581,0.3897 -2.4324,0.5803 -2.6152,0.5803c0,-0.6916 -0.0556,-2.0509 -0.1591,-4.0776c-0.588,0.0556 -0.8824,0.1112 -0.8824,0.1509c0,0.1987 0.0319,1.3512 0.1034,3.4498c0.0319,0 0.0478,0.016 0.0478,0.0556c0,0.0635 -0.8187,0.2385 -2.4561,0.5247c-0.0715,-0.0875 -0.2784,-1.3752 -0.6281,-3.871c-0.6596,0.1668 -0.9937,0.294 -0.9937,0.3656l0.3181,3.2429c-0.0637,0.0716 -0.9381,0.35 -2.6152,0.8347c-0.9777,-3.4499 -1.5817,-5.7629 -1.8283,-6.9472c1.8361,-0.4531 2.8695,-0.6837 3.0842,-0.6837c0.2466,0.9618 0.3656,1.5184 0.3656,1.6693h0.0556c0.8984,-0.8265 1.5184,-1.3831 1.8759,-1.6693h0.0559l1.669,1.2002h0.0556c1.0415,-1.0093 1.5977,-1.5102 1.6693,-1.5102z" fill="#000000"/><path d="M70.556,182.73697c0.1669,0.6756 0.2781,1.0969 0.3419,1.2559c2.3448,-0.5324 3.577,-0.8028 3.7119,-0.8028c1.5978,2.2971 2.3927,3.4896 2.3927,3.5927l-1.8283,3.8792l-3.9345,-0.6282v0.1194c0.31,2.3608 0.4609,3.6089 0.4609,3.7598c-0.0397,0 -0.0556,0.016 -0.0556,0.0557c-0.3815,-0.0397 -0.6678,-0.0557 -0.8584,-0.0557h-0.6837c-0.3975,0 -1.0097,-0.0159 -1.8284,-0.0556c-0.0715,-0.2225 -0.6437,-3.6089 -1.7089,-10.1507c0.1828,-0.0716 1.5102,-0.3975 3.9904,-0.9697zM70.8422,185.98807c0.1031,1.2162 0.1988,1.828 0.2859,1.828c1.089,0.3738 1.749,0.5644 1.9953,0.5644l0.6281,-2.7342h-0.0557c-0.6199,0.0397 -1.574,0.1509 -2.8536,0.3418z" fill="#000000"/><path d="M83.0676,182.72888c3.1476,0.4372 4.7213,0.6997 4.7213,0.8028c1.2402,1.0652 1.8602,1.6377 1.8602,1.7093c-0.5009,1.5736 -0.7872,2.5277 -0.8584,2.8692c0.5006,1.1209 0.7868,1.7887 0.8584,2.0033c0,0.0635 -0.8187,0.2303 -2.4643,0.5088c-0.0237,-0.0875 -0.1746,-0.2941 -0.4531,-0.6044c-2.2651,0.4375 -3.4895,0.6519 -3.6641,0.6519l-1.2084,-3.2667l2.663,-1.4072c0.429,0.0716 1.0968,0.1035 2.0108,0.1035c0,-0.1194 0.0159,-0.4691 0.0478,-1.0572c-0.1509,0 -1.5262,0.1031 -4.1176,0.3019l-0.0475,-0.1031c0.3575,-1.6774 0.5803,-2.5121 0.6519,-2.5121zM84.7209,187.40307c0,0.0556 0.1669,0.6756 0.5087,1.8599h0.0475c0.6678,-0.4372 1.0015,-0.7234 1.0015,-0.8584l0.1035,-0.8506c-0.1272,0 -0.6838,-0.0478 -1.6612,-0.1509z" fill="#000000"/><path d="M97.4706,182.72888l2.647,1.8202c-0.1828,3.0208 -0.3181,4.7854 -0.3893,5.2941c-0.3103,0.0397 -1.2403,0.0953 -2.8061,0.1669l-0.0557,-0.1112l-0.2781,-4.2448l-0.1112,-0.0556c-1.0097,0.2146 -1.709,0.3815 -2.0905,0.4927c0.1031,1.8046 0.1587,3.1161 0.1587,3.9189c-1.5818,0.4372 -2.4402,0.6597 -2.5911,0.6597c-1.0256,-4.5229 -1.5421,-6.9153 -1.5421,-7.1697c2.2336,-0.294 3.4498,-0.4371 3.6404,-0.4371v0.0556c0.0397,0.0237 0.0953,0.5803 0.1669,1.6533c2.0508,-1.3593 3.132,-2.043 3.2511,-2.043z" fill="#000000"/><path d="M105.7136,180.32058h0.0478c2.3924,0.1987 3.5926,0.3575 3.5926,0.469l1.0575,9.3555c0,0.0716 -1.0575,0.2466 -3.1717,0.5247l-0.0479,-0.1031v-0.8506c-1.8202,0.4927 -3.076,0.8105 -3.7516,0.9537c-1.6137,-2.2812 -2.4561,-3.4896 -2.5358,-3.6405c1.1843,-2.1543 1.8202,-3.2511 1.8999,-3.2748l3.3304,0.1587c-0.0715,-0.4053 -0.2065,-1.6055 -0.4212,-3.5926zM104.2352,186.01967c0.5325,1.6377 0.8662,2.5358 1.0016,2.6949l1.5817,-1.3753c-0.1668,-0.9459 -0.2862,-1.4227 -0.3656,-1.4227h-2.1146c-0.0715,0.0078 -0.1031,0.0475 -0.1031,0.1031z" fill="#000000"/><path d="M119.5685,182.72888l0.0557,0.1034l-1.0731,5.6913h0.0556l2.7342,-0.8028v-3.2192c0.0078,-0.0715 0.0478,-0.1112 0.1035,-0.1112c2.0586,0.1431 3.2032,0.2147 3.4339,0.2147c0,0.0397 0.0159,0.0556 0.0556,0.0556c0,0.9059 -0.2863,2.782 -0.8584,5.6357c0,0.1668 -0.8187,0.2862 -2.4643,0.3734c-0.0875,-0.1031 -0.159,-0.3178 -0.2147,-0.6438c-2.1064,0.4294 -3.3067,0.6438 -3.6007,0.6438c-1.6771,-1.2478 -2.5199,-1.8918 -2.5199,-1.9315c0.2863,-3.7598 0.4691,-5.7072 0.5406,-5.8503h0.0478c1.3434,-0.0397 2.5752,-0.0875 3.7042,-0.1591z" fill="#000000"/><path d="M132.1513,182.72888c1.5262,0.9778 2.3686,1.5343 2.5277,1.6852c-0.5484,1.224 -0.8662,1.8362 -0.9459,1.8362l-2.8933,-1.6771h-0.1034c0,0.0556 -0.1272,0.3497 -0.3734,0.8903c2.6626,1.4386 3.9982,2.1698 3.9982,2.2095c-0.7471,1.7249 -1.1687,2.6393 -1.264,2.7346l-4.5229,0.2622c-1.7564,-1.1684 -2.7027,-1.7806 -2.8377,-1.844v-0.0478c0,-0.135 0.2622,-0.7312 0.7869,-1.7884l3.5295,1.8362l0.2622,-1.0493c-2.1859,-0.9778 -3.4817,-1.5896 -3.8948,-1.8362v-0.1112c0,-0.1988 0.4212,-1.0968 1.2636,-2.679z" fill="#000000"/><path d="M139.9731,182.73697c2.4005,1.2322 3.728,1.9552 3.9901,2.1621c-0.3418,1.6137 -0.5484,2.4402 -0.6118,2.488h-5.0238v0.0872l1.4068,1.7408l2.2099,-1.1286c0.2146,0.3737 0.5324,1.0333 0.9381,1.9714c-0.191,0.0634 -1.5818,0.2703 -4.1733,0.6119c-2.1461,-1.415 -3.2273,-2.154 -3.2429,-2.2096c0.3415,-2.7505 0.5484,-4.1254 0.6118,-4.1254c2.2418,-0.954 3.5373,-1.4865 3.8951,-1.5978zM139.4563,184.66068c-0.0397,0.1031 -0.326,0.5243 -0.8425,1.2637c0,0.2225 0.31,0.334 0.9378,0.334c0,0.0316 0.4531,0.1113 1.3593,0.2303c0.2465,-0.3418 0.3737,-0.5484 0.3737,-0.604c-0.0797,-0.4691 -0.2543,-0.7075 -0.5168,-0.7075z" fill="#000000"/><path d="M152.3813,182.74477c0.0712,0.0082 0.1112,0.0479 0.1112,0.1113l-0.8269,4.5785c1.5818,-0.1828 2.369,-0.3337 2.369,-0.445c0.2941,-1.8361 0.5006,-2.8617 0.6118,-3.0842c1.9556,0.4053 3.0364,0.6437 3.2511,0.7153c-1.1365,3.9189 -1.7646,5.9538 -1.8758,6.1206c-1.9952,1.399 -3.1161,2.1702 -3.3623,2.3212c-0.0716,0 -1.3434,-0.31 -3.8077,-0.9381v-0.0557c0.6519,-1.4386 1.0572,-2.1539 1.2162,-2.1539l2.4246,1.2162l1.1606,-1.9874c-1.0416,0.2625 -1.6534,0.3897 -1.8206,0.3897l-3.092,-1.6059c0.3737,-3.4576 0.6121,-5.1826 0.7156,-5.1826z" fill="#000000"/><path d="M161.8798,182.73697c2.0112,0.5403 3.0842,0.8662 3.2036,0.9856c1.1046,1.5659 1.7327,2.4721 1.8677,2.7105c-0.7152,2.2655 -1.1287,3.402 -1.2318,3.402c-2.3849,0.5566 -3.6326,0.8347 -3.7438,0.8347c-1.9715,-1.1525 -3.0208,-1.7884 -3.148,-1.9237c-0.0716,-2.138 -0.1031,-3.3223 -0.1031,-3.5451c-0.0319,-0.0635 -0.0479,-0.1113 -0.0479,-0.1432c2.0349,-1.5499 3.0843,-2.3208 3.1558,-2.3208zM161.7289,185.64627c-0.0319,0.2147 -0.0794,0.9855 -0.1431,2.313l1.7727,0.3975c0.4212,-1.3275 0.6359,-2.0349 0.6359,-2.1224c-1.4071,-0.4213 -2.1621,-0.6359 -2.2655,-0.6359z" fill="#000000"/><path d="M171.9671,182.72888l0.0557,0.1034l-1.0731,5.6913h0.0556l2.7342,-0.8028v-3.2192c0.0078,-0.0715 0.0479,-0.1112 0.1035,-0.1112c2.0586,0.1431 3.2032,0.2147 3.4339,0.2147c0,0.0397 0.0159,0.0556 0.0556,0.0556c0,0.9059 -0.2863,2.782 -0.8584,5.6357c0,0.1668 -0.8187,0.2862 -2.4643,0.3734c-0.0875,-0.1031 -0.159,-0.3178 -0.2146,-0.6438c-2.1065,0.4294 -3.3068,0.6438 -3.6008,0.6438c-1.6771,-1.2478 -2.5199,-1.8918 -2.5199,-1.9315c0.2863,-3.7598 0.4691,-5.7072 0.5406,-5.8503h0.0478c1.3434,-0.0397 2.5752,-0.0875 3.7042,-0.1591z" fill="#000000"/><path d="M183.8425,182.72888c1.0493,0.5884 1.693,0.97 1.9314,1.1446c-0.8584,1.7887 -1.3193,2.6949 -1.383,2.7265h-0.0557l-1.1364,-0.9934l-1.3434,1.6374l0.1509,2.9808c-0.0716,0.0634 -0.9459,0.2147 -2.6311,0.445c-0.0634,-0.4531 -0.4769,-2.6868 -1.2399,-6.7006c0,-0.0638 1.1049,-0.2306 3.3226,-0.4931c0.0397,0.04 0.135,0.5406 0.3022,1.4864c1.3274,-1.4864 2.0189,-2.2336 2.0824,-2.2336z" fill="#000000"/><path d="M196.8546,182.72888c1.5262,0.9778 2.369,1.5343 2.5277,1.6852c-0.5484,1.224 -0.8662,1.8362 -0.9459,1.8362l-2.8933,-1.6771h-0.1034c0,0.0556 -0.1272,0.3497 -0.3734,0.8903c2.6626,1.4386 3.9982,2.1698 3.9982,2.2095c-0.7471,1.7249 -1.1684,2.6393 -1.264,2.7346l-4.5229,0.2622c-1.7565,-1.1684 -2.7023,-1.7806 -2.8377,-1.844v-0.0478c0,-0.135 0.2625,-0.7312 0.7872,-1.7884l3.5292,1.8362l0.2622,-1.0493c-2.1859,-0.9778 -3.4814,-1.5896 -3.8948,-1.8362v-0.1112c0,-0.1988 0.4212,-1.0968 1.2636,-2.679z" fill="#000000"/><path d="M204.1596,182.73697c0.1672,0.6756 0.2784,1.0969 0.3418,1.2559c2.3449,-0.5324 3.577,-0.8028 3.7124,-0.8028c1.5973,2.2971 2.3923,3.4896 2.3923,3.5927l-1.828,3.8792l-3.9348,-0.6282v0.1194c0.31,2.3608 0.4609,3.6089 0.4609,3.7598c-0.0397,0 -0.0556,0.016 -0.0556,0.0557c-0.3816,-0.0397 -0.6675,-0.0557 -0.8584,-0.0557h-0.6837c-0.3972,0 -1.0094,-0.0159 -1.8281,-0.0556c-0.0715,-0.2225 -0.644,-3.6089 -1.7089,-10.1507c0.1828,-0.0716 1.5102,-0.3975 3.9901,-0.9697zM204.4458,185.98807c0.1034,1.2162 0.1987,1.828 0.2862,1.828c1.0891,0.3738 1.7487,0.5644 1.9953,0.5644l0.6277,-2.7342h-0.0556c-0.62,0.0397 -1.5737,0.1509 -2.8536,0.3418z" fill="#000000"/><path d="M215.9318,182.73697c2.4005,1.2322 3.7282,1.9552 3.9904,2.1621c-0.3419,1.6137 -0.5484,2.4402 -0.6122,2.488h-5.0234v0.0872l1.4068,1.7408l2.2099,-1.1286c0.2146,0.3737 0.5324,1.0333 0.9377,1.9714c-0.1906,0.0634 -1.5818,0.2703 -4.1729,0.6119c-2.1461,-1.415 -3.2273,-2.154 -3.2433,-2.2096c0.3419,-2.7505 0.5484,-4.1254 0.6122,-4.1254c2.2414,-0.954 3.5373,-1.4865 3.8948,-1.5978zM215.4153,184.66068c-0.0397,0.1031 -0.326,0.5243 -0.8425,1.2637c0,0.2225 0.31,0.334 0.9378,0.334c0,0.0316 0.4531,0.1113 1.3593,0.2303c0.2465,-0.3418 0.3737,-0.5484 0.3737,-0.604c-0.0797,-0.4691 -0.2544,-0.7075 -0.5169,-0.7075z" fill="#000000"/><path d="M223.7695,182.73697c2.3924,0.4531 3.6405,0.7075 3.7517,0.7709v0.0953c-0.5165,1.4546 -0.7709,2.2021 -0.7709,2.2578h-0.0478c-0.135,0 -0.7709,-0.2069 -1.9237,-0.62c-0.6437,1.0731 -0.9618,1.6533 -0.9618,1.7246l1.5899,1.5421c1.2322,-1.1525 1.8521,-1.7327 1.8759,-1.7327c0.9618,1.2558 1.4386,1.9633 1.4386,2.1142c-0.5246,0.3022 -1.4386,0.8984 -2.7423,1.7806c-2.5196,-0.5485 -3.887,-0.8503 -4.0858,-0.9141l-1.2477,-4.0379z" fill="#000000"/><path d="M230.6132,179.54158l3.1239,0.4928c-0.3893,1.5024 -0.6518,2.2495 -0.7709,2.2495c-1.6455,-0.1112 -2.4642,-0.2224 -2.4642,-0.3259v-2.3052c0.0159,-0.0715 0.0556,-0.1112 0.1112,-0.1112zM229.7389,183.32508h0.0478c2.4165,0.4372 3.6245,0.6997 3.6245,0.7713c-0.6915,3.9344 -1.1127,6.1203 -1.2637,6.5734h-2.5198c-0.0716,0 -0.1113,-0.0397 -0.1113,-0.1113z" fill="#000000"/><path d="M235.2077,182.72888c3.148,0.4372 4.7216,0.6997 4.7216,0.8028c1.24,1.0652 1.8603,1.6377 1.8603,1.7093c-0.501,1.5736 -0.7872,2.5277 -0.8588,2.8692c0.501,1.1209 0.7872,1.7887 0.8588,2.0033c0,0.0635 -0.8191,0.2303 -2.4643,0.5088c-0.0237,-0.0875 -0.175,-0.2941 -0.4531,-0.6044c-2.2655,0.4375 -3.4895,0.6519 -3.6645,0.6519l-1.2081,-3.2667l2.6627,-1.4072c0.4294,0.0716 1.0971,0.1035 2.0112,0.1035c0,-0.1194 0.0159,-0.4691 0.0478,-1.0572c-0.1513,0 -1.5262,0.1031 -4.1176,0.3019l-0.0479,-0.1031c0.3578,-1.6774 0.5803,-2.5121 0.6519,-2.5121zM236.861,187.40307c0,0.0556 0.1669,0.6756 0.5088,1.8599h0.0478c0.6678,-0.4372 1.0015,-0.7234 1.0015,-0.8584l0.1034,-0.8506c-0.1272,0 -0.6837,-0.0478 -1.6615,-0.1509z" fill="#000000"/><path d="M242.5526,180.33647c1.6215,0.0316 2.8136,0.0475 3.5689,0.0475c0.0716,0 0.2781,3.2511 0.6281,9.7611c-0.2703,0.0716 -1.2162,0.2466 -2.8298,0.5247c-0.0797,0 -0.3419,-1.9949 -0.7872,-5.9776c-0.0397,-0.0953 -0.2303,-1.5499 -0.58,-4.3557z" fill="#000000"/><path d="M252.8859,182.72888c3.1479,0.4372 4.7216,0.6997 4.7216,0.8028c1.2399,1.0652 1.8602,1.6377 1.8602,1.7093c-0.5009,1.5736 -0.7871,2.5277 -0.8587,2.8692c0.5009,1.1209 0.7872,1.7887 0.8587,2.0033c0,0.0635 -0.819,0.2303 -2.4642,0.5088c-0.0238,-0.0875 -0.175,-0.2941 -0.4531,-0.6044c-2.2656,0.4375 -3.4895,0.6519 -3.6645,0.6519l-1.2081,-3.2667l2.6627,-1.4072c0.4293,0.0716 1.0971,0.1035 2.0111,0.1035c0,-0.1194 0.016,-0.4691 0.0478,-1.0572c-0.1512,0 -1.5261,0.1031 -4.1176,0.3019l-0.0478,-0.1031c0.3578,-1.6774 0.5803,-2.5121 0.6519,-2.5121zM254.5392,187.40307c0,0.0556 0.1669,0.6756 0.5087,1.8599h0.0479c0.6677,-0.4372 1.0015,-0.7234 1.0015,-0.8584l0.1034,-0.8506c-0.1272,0 -0.6837,-0.0478 -1.6615,-0.1509z" fill="#000000"/><path d="M263.9428,180.32838l0.0556,0.1034c0,0.3019 0.0716,1.4706 0.2066,3.5055c1.8999,-0.604 2.957,-0.9222 3.1876,-0.954l2.8614,3.0764c-1.2002,2.6945 -1.8599,4.1254 -1.9633,4.2923c-0.3337,-0.0397 -1.5499,-0.0875 -3.6564,-0.1591v0.3738c0,0.0715 -0.0396,0.1031 -0.1112,0.1031h-3.0764c-0.1113,0 -0.3256,-1.5896 -0.6359,-4.7692c-0.0713,-0.2703 -0.2622,-1.8602 -0.58,-4.7772c1.8043,-0.4213 3.0364,-0.6916 3.712,-0.795zM264.4753,186.16277l0.2069,1.9633h1.5973l0.5803,-2.2255c-1.5896,0.135 -2.3845,0.2225 -2.3845,0.2622z" fill="#000000"/><path d="M272.1699,179.54158l3.1239,0.4928c-0.3897,1.5024 -0.6518,2.2495 -0.7712,2.2495c-1.6452,-0.1112 -2.4639,-0.2224 -2.4639,-0.3259v-2.3052c0.0156,-0.0715 0.0556,-0.1112 0.1112,-0.1112zM271.2956,183.32508h0.0475c2.4164,0.4372 3.6248,0.6997 3.6248,0.7713c-0.6915,3.9344 -1.1131,6.1203 -1.264,6.5734h-2.5199c-0.0716,0 -0.1113,-0.0397 -0.1113,-0.1113z" fill="#000000"/><path d="M275.556,180.33647c1.6214,0.0316 2.8139,0.0475 3.5688,0.0475c0.0716,0 0.2785,3.2511 0.6281,9.7611c-0.2703,0.0716 -1.2161,0.2466 -2.8298,0.5247c-0.0794,0 -0.3419,-1.9949 -0.7868,-5.9776c-0.0397,-0.0953 -0.2307,-1.5499 -0.5803,-4.3557z" fill="#000000"/><path d="M281.74,179.54158l3.1239,0.4928c-0.3893,1.5024 -0.6518,2.2495 -0.7709,2.2495c-1.6455,-0.1112 -2.4642,-0.2224 -2.4642,-0.3259v-2.3052c0.0159,-0.0715 0.0556,-0.1112 0.1112,-0.1112zM280.8657,183.32508h0.0478c2.4165,0.4372 3.6245,0.6997 3.6245,0.7713c-0.6915,3.9344 -1.1127,6.1203 -1.2637,6.5734h-2.5198c-0.0716,0 -0.1113,-0.0397 -0.1113,-0.1113z" fill="#000000"/><path d="M287.5032,180.32838l3.4973,0.62l-0.3337,2.6548c0.6915,-0.0396 1.2002,-0.0556 1.5261,-0.0556h0.5088l0.1112,-0.0556l0.0556,0.1112c-0.1112,1.6137 -0.2065,2.5199 -0.2862,2.7187l-0.1112,-0.0635c-0.0794,0 -0.795,-0.04 -2.1462,-0.1115c-0.0715,1.248 -0.1272,2.7345 -0.1668,4.4672l-0.1113,0.0557c-1.709,-0.1113 -2.7264,-0.2066 -3.0523,-0.2859l0.0556,-0.2229c0,-0.4609 0.0715,-1.8917 0.2225,-4.2922c-1.4309,-0.0794 -2.1462,-0.175 -2.1462,-0.2863c0.0716,-1.7724 0.1669,-2.6549 0.2863,-2.6549l2.0905,0.3975v-0.6837c0,-0.5562 -0.0241,-1.3115 -0.0638,-2.2574c0.0397,0 0.0638,-0.0159 0.0638,-0.0556z" fill="#000000"/><path d="M297.3677,182.74477c0.0712,0.0082 0.1112,0.0479 0.1112,0.1113l-0.8268,4.5785c1.5818,-0.1828 2.3689,-0.3337 2.3689,-0.445c0.2941,-1.8361 0.5006,-2.8617 0.6119,-3.0842c1.9555,0.4053 3.0364,0.6437 3.2511,0.7153c-1.1365,3.9189 -1.7646,5.9538 -1.8759,6.1206c-1.9952,1.399 -3.1161,2.1702 -3.3623,2.3212c-0.0716,0 -1.3434,-0.31 -3.8076,-0.9381v-0.0557c0.6518,-1.4386 1.0571,-2.1539 1.2162,-2.1539l2.4245,1.2162l1.1606,-1.9874c-1.0415,0.2625 -1.6534,0.3897 -1.8206,0.3897l-3.092,-1.6059c0.3738,-3.4576 0.6122,-5.1826 0.7156,-5.1826z" fill="#000000"/><path d="M311.1904,182.72888c0.0716,0.0875 0.4294,1.6296 1.0731,4.6104h0.0556c0,-0.0716 0.3897,-0.6756 1.1765,-1.8202c0.3259,0.2225 0.954,0.7075 1.8758,1.4465h0.1116v-0.0557c0.1428,-2.0664 0.2462,-3.211 0.3178,-3.4338c2.1858,0.1115 3.2748,0.1987 3.2748,0.2703c-1.0015,4.0301 -1.5339,6.1206 -1.6055,6.2796c-0.3337,0.0397 -1.0334,0.1432 -2.0987,0.3178c-0.8743,-1.3749 -1.3749,-2.1064 -1.502,-2.1936c-0.5725,1.5262 -0.93,2.3686 -1.0731,2.5196h-2.1462c-0.1353,-0.0397 -0.7552,-1.4228 -1.8761,-4.1333c-0.7153,-1.5183 -1.0731,-2.337 -1.0731,-2.4642c0,-0.1191 1.1606,-0.5644 3.4895,-1.3434z" fill="#000000"/><path d="M321.039,179.54158l3.1239,0.4928c-0.3894,1.5024 -0.6519,2.2495 -0.7709,2.2495c-1.6456,-0.1112 -2.4643,-0.2224 -2.4643,-0.3259v-2.3052c0.016,-0.0715 0.0557,-0.1112 0.1113,-0.1112zM320.1646,183.32508h0.0479c2.4164,0.4372 3.6245,0.6997 3.6245,0.7713c-0.6916,3.9344 -1.1128,6.1203 -1.2637,6.5734h-2.5199c-0.0716,0 -0.1112,-0.0397 -0.1112,-0.1113z" fill="#000000"/><path d="M326.8021,180.32838l3.4974,0.62l-0.3338,2.6548c0.6916,-0.0396 1.2003,-0.0556 1.5262,-0.0556h0.5087l0.1113,-0.0556l0.0556,0.1112c-0.1113,1.6137 -0.2066,2.5199 -0.2863,2.7187l-0.1112,-0.0635c-0.0794,0 -0.795,-0.04 -2.1461,-0.1115c-0.0716,1.248 -0.1272,2.7345 -0.1669,4.4672l-0.1112,0.0557c-1.709,-0.1113 -2.7265,-0.2066 -3.0524,-0.2859l0.0556,-0.2229c0,-0.4609 0.0716,-1.8917 0.2225,-4.2922c-1.4308,-0.0794 -2.1461,-0.175 -2.1461,-0.2863c0.0715,-1.7724 0.1668,-2.6549 0.2862,-2.6549l2.0905,0.3975v-0.6837c0,-0.5562 -0.024,-1.3115 -0.0637,-2.2574c0.0397,0 0.0637,-0.0159 0.0637,-0.0556z" fill="#000000"/><path d="M336.571,180.32838c0.0319,0.0478 0.1828,1.5024 0.4453,4.356c2.0427,-0.6281 3.1317,-0.938 3.267,-0.938l2.0268,1.383c-0.3259,3.0208 -0.5406,4.7854 -0.6437,5.2941l-2.8139,0.0953c0,-0.0318 -0.016,-0.0478 -0.0557,-0.0478l0.0557,-0.1987c0,-0.4291 0.0634,-1.7327 0.1906,-3.9108c-0.7709,-0.0315 -1.3512,-0.0474 -1.7249,-0.0474h-0.1988c0.2306,2.4242 0.3419,3.7438 0.3419,3.9582l-2.6708,0.3975c-0.1031,-0.3416 -0.6916,-3.5055 -1.7806,-9.4986c0,-0.1672 0.4135,-0.3022 1.2403,-0.3975c1.0412,-0.2944 1.8202,-0.4453 2.3208,-0.4453z" fill="#000000"/><path d="M355.211,180.31247c0.0319,0.0715 0.0478,0.1193 0.0478,0.1512c-0.0319,1.5818 -0.0478,2.4958 -0.0478,2.7424l-0.1031,0.0475c-2.4324,0.0637 -3.8236,0.0953 -4.1814,0.0953l-0.0475,0.1034c0.0319,0.5881 0.0475,1.0731 0.0475,1.4468v0.2462h0.0479l3.2351,-0.3974l0.0556,0.0956v2.4402c0,0.0715 -0.0319,0.1034 -0.1031,0.1034l-3.0367,-0.35v0.2944c0,0.6675 0.0159,1.6612 0.0556,2.9886c-0.294,0.0716 -1.1921,0.1828 -2.6946,0.3497c-0.0953,-0.1828 -0.5562,-3.2589 -1.3911,-9.2127h0.0478z" fill="#2b70c2"/><path d="M356.2207,188.22177c0.0396,0.0237 0.8661,0.0871 2.4798,0.1906l0.0319,0.0637c-0.2462,1.4624 -0.4053,2.1937 -0.4768,2.1937h-1.844c-0.0638,0 -0.1513,-0.7313 -0.2544,-2.1937c-0.0237,0 -0.0318,-0.0637 -0.0318,-0.1909c0.0634,-0.0237 0.0953,-0.0397 0.0953,-0.0634z" fill="#000000"/><path d="M369.2725,180.33647c2.0111,0.5088 3.0842,0.8106 3.2114,0.9059c-0.7156,1.7093 -1.0972,2.5915 -1.1528,2.6311c-0.135,0 -0.9933,-0.3018 -2.5833,-0.9062c-0.9221,0.8588 -1.383,1.3356 -1.383,1.439c-0.0716,1.5896 -0.1031,2.5118 -0.1031,2.7739c1.1046,0.5088 1.7564,0.795 1.9633,0.8588c1.0253,-0.4453 1.6215,-0.7156 1.7724,-0.8109l-0.2862,-0.914c-0.1906,0.1031 -0.7631,0.3496 -1.725,0.723l-0.0474,-0.0953v-0.3893c0,-0.3341 -0.016,-0.8428 -0.0479,-1.5262c0.2466,-0.0638 1.7012,-0.2228 4.3561,-0.4772c0.0634,0.3259 0.1746,1.7331 0.3337,4.2051c-0.0875,0.0953 -1.6771,0.7312 -4.7851,1.9156c-2.647,-0.9619 -3.9823,-1.5103 -4.0223,-1.6293c-0.8265,-2.8696 -1.2399,-4.3879 -1.2399,-4.5389c1.089,-1.9555 1.709,-3.0126 1.868,-3.1635c0.1354,-0.0638 1.4228,-0.3975 3.8711,-1.0016z" fill="#000000"/><path d="M377.5789,182.73697c2.0112,0.5403 3.0843,0.8662 3.2036,0.9856c1.105,1.5659 1.7328,2.4721 1.8681,2.7105c-0.7156,2.2655 -1.129,3.402 -1.2321,3.402c-2.3849,0.5566 -3.6327,0.8347 -3.7439,0.8347c-1.9715,-1.1525 -3.0208,-1.7884 -3.148,-1.9237c-0.0716,-2.138 -0.1031,-3.3223 -0.1031,-3.5451c-0.0319,-0.0635 -0.0478,-0.1113 -0.0478,-0.1432c2.0349,-1.5499 3.0842,-2.3208 3.1558,-2.3208zM377.428,185.64627c-0.0319,0.2147 -0.0793,0.9855 -0.1431,2.313l1.7727,0.3975c0.4213,-1.3275 0.6359,-2.0349 0.6359,-2.1224c-1.4071,-0.4213 -2.162,-0.6359 -2.2655,-0.6359z" fill="#000000"/><path d="M386.5773,182.73697c2.0108,0.5403 3.0838,0.8662 3.2032,0.9856c1.105,1.5659 1.7327,2.4721 1.8681,2.7105c-0.7156,2.2655 -1.1287,3.402 -1.2322,3.402c-2.3845,0.5566 -3.6326,0.8347 -3.7438,0.8347c-1.9715,-1.1525 -3.0205,-1.7884 -3.1477,-1.9237c-0.0716,-2.138 -0.1034,-3.3223 -0.1034,-3.5451c-0.0319,-0.0635 -0.0479,-0.1113 -0.0479,-0.1432c2.0349,-1.5499 3.0843,-2.3208 3.1558,-2.3208zM386.426,185.64627c-0.0319,0.2147 -0.0794,0.9855 -0.1431,2.313l1.7727,0.3975c0.4212,-1.3275 0.6359,-2.0349 0.6359,-2.1224c-1.4068,-0.4213 -2.1621,-0.6359 -2.2655,-0.6359z" fill="#000000"/><path d="M397.1808,180.32058h0.0478c2.3923,0.1987 3.5929,0.3575 3.5929,0.469l1.0572,9.3555c0,0.0716 -1.0572,0.2466 -3.1718,0.5247l-0.0474,-0.1031v-0.8506c-1.8206,0.4927 -3.0765,0.8105 -3.7521,0.9537c-1.6136,-2.2812 -2.4561,-3.4896 -2.5354,-3.6405c1.1843,-2.1543 1.8202,-3.2511 1.8995,-3.2748l3.3305,0.1587c-0.0712,-0.4053 -0.2066,-1.6055 -0.4212,-3.5926zM395.7024,186.01967c0.5325,1.6377 0.8665,2.5358 1.0015,2.6949l1.5818,-1.3753c-0.1668,-0.9459 -0.2862,-1.4227 -0.3656,-1.4227h-2.1142c-0.0716,0.0078 -0.1035,0.0475 -0.1035,0.1031z" fill="#000000"/><path d="M406.7434,180.33647c1.6215,0.0316 2.8136,0.0475 3.5689,0.0475c0.0716,0 0.2781,3.2511 0.6281,9.7611c-0.2703,0.0716 -1.2162,0.2466 -2.8299,0.5247c-0.0797,0 -0.3418,-1.9949 -0.7868,-5.9776c-0.04,-0.0953 -0.2306,-1.5499 -0.5803,-4.3557z" fill="#000000"/><path d="M416.1229,182.72888l0.0557,0.1034l-1.0731,5.6913h0.0556l2.7342,-0.8028v-3.2192c0.0082,-0.0715 0.0479,-0.1112 0.1035,-0.1112c2.0586,0.1431 3.2033,0.2147 3.4339,0.2147c0,0.0397 0.0159,0.0556 0.0556,0.0556c0,0.9059 -0.2862,2.782 -0.8584,5.6357c0,0.1668 -0.8187,0.2862 -2.4643,0.3734c-0.0875,-0.1031 -0.159,-0.3178 -0.2146,-0.6438c-2.1065,0.4294 -3.3067,0.6438 -3.6008,0.6438c-1.6771,-1.2478 -2.5199,-1.8918 -2.5199,-1.9315c0.2863,-3.7598 0.4691,-5.7072 0.5406,-5.8503h0.0479c1.3433,-0.0397 2.5755,-0.0875 3.7041,-0.1591z" fill="#000000"/><path d="M425.415,182.73697c2.3927,0.4531 3.6407,0.7075 3.752,0.7709v0.0953c-0.5169,1.4546 -0.7712,2.2021 -0.7712,2.2578h-0.0475c-0.1353,0 -0.7713,-0.2069 -1.9237,-0.62c-0.644,1.0731 -0.9618,1.6533 -0.9618,1.7246l1.5896,1.5421c1.2321,-1.1525 1.8521,-1.7327 1.8762,-1.7327c0.9618,1.2558 1.4386,1.9633 1.4386,2.1142c-0.5246,0.3022 -1.4386,0.8984 -2.7423,1.7806c-2.5199,-0.5485 -3.887,-0.8503 -4.0858,-0.9141l-1.248,-4.0379z" fill="#000000"/><path d="M434.6673,180.32838c0.0716,0.2147 0.2388,1.7171 0.5009,4.507l2.3846,-2.6708h0.0556c0.3738,0.3099 1.0571,0.954 2.059,1.9474v0.0556l-2.2815,1.884c1.7171,1.1527 2.6234,1.7964 2.7265,1.9474c-1.0809,1.2002 -1.7328,1.8917 -1.9474,2.0589l-2.7743,-2.5595c0.1113,1.1446 0.1672,1.9952 0.1672,2.5595c-0.1353,0.0716 -1.1131,0.2781 -2.9492,0.6119c-0.151,-0.7391 -0.6278,-3.9267 -1.4465,-9.5624c0.3415,-0.1112 1.5102,-0.3737 3.5054,-0.779z" fill="#000000"/><path d="M441.5829,180.67807l3.7598,0.3181l-0.8346,6.2715l-2.9252,-0.2146zM441.4795,187.80018l2.7108,0.2147v2.6549l-3.2352,-0.4213z" fill="#000000"/></g><g data-paper-data="{&quot;origPos&quot;:null}" stroke-width="0.19638"><path d="M32.1755,197.75167c2.1984,0.4906 3.4201,0.7719 3.6658,0.8424c0,0.0193 0,0.0386 0,0.0579c-0.0765,1.9691 -0.1336,3.1143 -0.1715,3.4364c0.1254,0 0.6895,0.1306 1.6937,0.3926c0.8996,-2.7766 1.388,-4.1645 1.4644,-4.1645c1.5052,0.6762 2.4627,1.1259 2.8716,1.3501c0,0.0185 0,0.0378 0,0.0571c-1.6521,3.8454 -2.591,5.9674 -2.8144,6.366c-0.4142,0.3436 -1.86,1.6581 -4.3368,3.9433h-0.0571c-1.5223,-0.7496 -3.0438,-1.5 -4.5661,-2.2496c0.4201,-0.72 0.9278,-1.5468 1.5223,-2.4797c0.0274,0 0.7414,0.469 2.1435,1.4072c0.0193,0 0.0386,0 0.0579,0c0.469,-0.3815 1.0309,-0.927 1.6855,-1.6358c0,-0.0327 -1.0695,-1.0829 -3.2078,-3.1507c0,-1.3523 0,-2.7054 0,-4.0584z" data-paper-data="{&quot;origPos&quot;:null}" fill="#000000"/><path d="M45.8893,200.23068c2.073,0.5566 3.1722,0.8951 3.2976,1.0146c1.1401,1.615 1.7806,2.545 1.9223,2.7899c-0.7362,2.335 -1.1585,3.5025 -1.2676,3.5025c-2.4553,0.573 -3.7393,0.8587 -3.8543,0.8587c-2.0292,-1.183 -3.1092,-1.8436 -3.2398,-1.9794c-0.0712,-2.2044 -0.1069,-3.4209 -0.1069,-3.6495c-0.0326,-0.0653 -0.049,-0.115 -0.049,-0.1477c2.0946,-1.5928 3.1774,-2.3891 3.2487,-2.3891zM45.7334,203.22548c-0.0326,0.2182 -0.0816,1.0116 -0.1469,2.381l1.8243,0.4089c0.4364,-1.3634 0.6546,-2.0915 0.6546,-2.1843c-1.451,-0.4364 -2.2281,-0.6546 -2.332,-0.6546z" data-paper-data="{&quot;origPos&quot;:null}" fill="#000000"/><path d="M56.2728,200.22247c0.0186,0.0356 0.0379,0.0712 0.0571,0.1061c-0.4015,2.1309 -0.7028,3.7289 -1.1044,5.859c0.0186,0 0.0379,0 0.0572,0c0.9381,-0.2753 1.8763,-0.5507 2.8144,-0.8268c0,-1.1044 0,-2.2088 0,-3.3132c0.0112,-0.0765 0.0468,-0.1151 0.1069,-0.1151c2.1161,0.1477 3.2947,0.2212 3.5344,0.2212c0,0.0379 0.0193,0.0572 0.0572,0.0572c0,0.9329 -0.2947,2.8664 -0.8833,5.8011c0,0.1692 -0.8461,0.2976 -2.5368,0.3844c-0.0876,-0.1031 -0.1611,-0.3243 -0.2212,-0.662c-2.165,0.4416 -3.4008,0.662 -3.7066,0.662c-1.7286,-1.2869 -2.5933,-1.9497 -2.5933,-1.9876c0.2947,-3.8676 0.4795,-5.8753 0.5559,-6.0223c0.0164,0 0.0327,0 0.049,0c1.3805,-0.0386 2.6512,-0.0928 3.8135,-0.164z" data-paper-data="{&quot;origPos&quot;:null}" fill="#000000"/><path d="M69.994,200.23068c2.4605,0.4638 3.7482,0.7281 3.8625,0.7941c0,0.0327 0,0.0653 0,0.098c-0.5292,1.4948 -0.7934,2.2689 -0.7934,2.3239c-0.0171,0 -0.0334,0 -0.0498,0c-0.1358,0 -0.7964,-0.2131 -1.9794,-0.6383c-0.6606,1.1073 -0.9901,1.6989 -0.9901,1.7753c0.5455,0.5292 1.0903,1.0584 1.6358,1.5876c1.2662,-1.189 1.9097,-1.7835 1.9312,-1.7835c0.9872,1.2922 1.4815,2.018 1.4815,2.1761c-0.5404,0.311 -1.4815,0.9219 -2.8234,1.8325c-2.5963,-0.5618 -3.9983,-0.875 -4.2054,-0.9403c-0.4282,-1.3857 -0.8565,-2.7714 -1.2847,-4.1571c0.2679,-0.2554 2.9473,-2.8123 3.2152,-3.0683z" data-paper-data="{&quot;origPos&quot;:null}" fill="#000000"/><path d="M77.1541,200.22247c3.2398,0.4475 4.86,0.7229 4.86,0.8268c1.2766,1.0963 1.9149,1.6826 1.9149,1.7591c-0.5181,1.6202 -0.8127,2.6044 -0.884,2.9539c0.5181,1.1505 0.8128,1.8378 0.884,2.0619c0,0.0653 -0.8454,0.2397 -2.5369,0.5233c-0.0215,-0.0928 -0.1773,-0.2999 -0.4661,-0.622c-2.335,0.4475 -3.5923,0.6709 -3.7719,0.6709c-0.4149,-1.1207 -0.829,-2.2414 -1.2439,-3.3629l2.741,-1.4481c0.4423,0.0713 1.1318,0.1062 2.07,0.1062c0,-0.1195 0.0163,-0.4825 0.049,-1.0881c-0.1581,0 -1.5705,0.1039 -4.238,0.311l-0.049,-0.1061c0.3711,-1.7242 0.5945,-2.5859 0.6709,-2.5859zM78.856,205.03347c0,0.0601 0.1744,0.6984 0.5233,1.9149c0.0163,0 0.0326,0 0.0497,0c0.6873,-0.4476 1.0309,-0.7415 1.0309,-0.8832l0.1062,-0.8758c-0.1307,0 -0.7007,-0.052 -1.7101,-0.1559z" data-paper-data="{&quot;origPos&quot;:null}" fill="#000000"/><path d="M91.9805,200.22247c0.3889,0.2679 2.335,1.6061 2.7247,1.8741c-0.1908,3.1091 -0.3244,4.9253 -0.4008,5.4493c-0.317,0.0378 -1.2796,0.0957 -2.8887,0.1714l-0.0572,-0.1143c-0.0957,-1.4562 -0.1907,-2.9131 -0.2865,-4.3694c-0.0378,-0.0193 -0.0764,-0.0378 -0.1143,-0.0571c-1.042,0.2234 -1.7597,0.3926 -2.1524,0.5069c0.1091,1.8607 0.1641,3.2049 0.1641,4.0339c-1.6255,0.4528 -2.5146,0.6791 -2.6675,0.6791c-1.0584,-4.6581 -1.5876,-7.1185 -1.5876,-7.3805c2.3023,-0.2998 3.5514,-0.4498 3.7474,-0.4498c0,0.0193 0,0.0386 0,0.0572c0.0386,0.0274 0.0957,0.5945 0.1722,1.7019c2.1108,-1.4013 3.2264,-2.1027 3.3466,-2.1027z" data-paper-data="{&quot;origPos&quot;:null}" fill="#000000"/><path d="M100.9479,200.22247c3.2405,0.4475 4.8607,0.7229 4.8607,0.8268c1.2766,1.0963 1.9149,1.6826 1.9149,1.7591c-0.5188,1.6202 -0.8135,2.6044 -0.884,2.9539c0.5181,1.1505 0.8128,1.8378 0.884,2.0619c0,0.0653 -0.8461,0.2397 -2.5369,0.5233c-0.0215,-0.0928 -0.1774,-0.2999 -0.4661,-0.622c-2.335,0.4475 -3.5923,0.6709 -3.7726,0.6709c-0.095,-0.2582 -1.1475,-3.1039 -1.2432,-3.3629c-2.741,1.4488 5.4819,-2.8961 2.741,-1.4481c0.4416,0.0713 1.1318,0.1062 2.07,0.1062c0,-0.1195 0.0163,-0.4825 0.049,-1.0881c-0.1581,0 -1.5705,0.1039 -4.2381,0.311l-0.0497,-0.1061c0.3711,-1.7242 0.5953,-2.5859 0.671,-2.5859zM102.6498,205.03347c0,0.0601 0.1751,0.6984 0.524,1.9149c0.0163,0 0.0326,0 0.049,0c0.6872,-0.4476 1.0309,-0.7415 1.0309,-0.8832c0.0356,-0.2925 0.0712,-0.5842 0.1069,-0.8758c-0.1314,0 -0.7014,-0.052 -1.7108,-0.1559z" data-paper-data="{&quot;origPos&quot;:null}" fill="#000000"/><path d="M108.5088,197.75978c1.6692,0.0327 2.8938,0.049 3.6739,0.049c0.0705,0 0.2865,3.3496 0.6465,10.0481c-0.2784,0.0705 -1.2492,0.2508 -2.9132,0.5395c-0.0816,0 -0.3518,-2.0507 -0.8098,-6.1529c-0.0385,-0.0979 -0.2375,-1.5928 -0.5974,-4.4837z" data-paper-data="{&quot;origPos&quot;:null}" fill="#000000"/><path d="M120.3485,200.22247c1.5713,1.0035 2.4382,1.5824 2.6022,1.7345c-0.5678,1.2603 -0.8922,1.8904 -0.9738,1.8904c-1.4896,-0.8631 -1.4896,-0.8631 -2.9785,-1.7263c-0.0356,0 -0.0712,0 -0.1061,0c0,0.0541 -0.1284,0.3599 -0.3845,0.9166c2.7432,1.4777 4.1156,2.2363 4.1156,2.2741c-0.769,1.7784 -1.2032,2.7165 -1.3011,2.8152l-4.6559,0.2694c-1.811,-1.1994 -2.7848,-1.8325 -2.9213,-1.8978c0,-0.0163 0,-0.0326 0,-0.049c0,-0.1365 0.2701,-0.7503 0.8104,-1.8414c7.2655,3.7801 -3.6331,-1.8897 3.6332,1.8904c0.0074,-0.0304 0.262,-1.0502 0.2694,-1.0799c-2.2474,-1.0094 -3.5834,-1.6395 -4.0087,-1.8904c0,-0.0379 0,-0.0765 0,-0.1143c0,-0.2078 0.4335,-1.1267 1.3004,-2.7573z" data-paper-data="{&quot;origPos&quot;:null}" fill="#000000"/><path d="M127.0581,200.23068c2.073,0.5566 3.1722,0.8951 3.2976,1.0146c1.14,1.615 1.7806,2.545 1.9223,2.7899c-0.7362,2.335 -1.1586,3.5025 -1.2677,3.5025c-2.4552,0.573 -3.7392,0.8587 -3.8543,0.8587c-2.0292,-1.183 -3.1091,-1.8436 -3.2397,-1.9794c-0.0713,-2.2044 -0.1069,-3.4209 -0.1069,-3.6495c-0.0326,-0.0653 -0.049,-0.115 -0.049,-0.1477c2.0945,-1.5928 3.1774,-2.3891 3.2487,-2.3891zM126.9029,203.22548c-0.0334,0.2182 -0.0823,1.0116 -0.1477,2.381l1.8251,0.4089c0.4357,-1.3634 0.6539,-2.0915 0.6539,-2.1843c-1.451,-0.4364 -2.2281,-0.6546 -2.3313,-0.6546z" data-paper-data="{&quot;origPos&quot;:null}" fill="#000000"/><path d="M141.598,200.22247l0.0571,0.1061c-0.4416,2.3439 -0.6628,3.5159 -1.1044,5.859c0.0193,0 0.0386,0 0.0571,0l2.8153,-0.8268c0,-1.1044 0,-2.2088 0,-3.3132c0.0103,-0.0765 0.046,-0.1151 0.1061,-0.1151c2.1168,0.1477 3.2947,0.2212 3.5344,0.2212c0,0.0379 0.0193,0.0572 0.0579,0.0572c0,0.9329 -0.2947,2.8664 -0.884,5.8011c0,0.1692 -0.8454,0.2976 -2.5361,0.3844c-0.0876,-0.1031 -0.1611,-0.3243 -0.2212,-0.662c-2.1658,0.4416 -3.4015,0.662 -3.7066,0.662c-1.7293,-1.2869 -2.594,-1.9497 -2.594,-1.9876c0.2946,-3.8676 0.4802,-5.8753 0.5566,-6.0223c0.0164,0 0.0327,0 0.049,0c1.3798,-0.0386 2.6512,-0.0928 3.8128,-0.164z" data-paper-data="{&quot;origPos&quot;:null}" fill="#000000"/><path d="M154.551,200.22247c1.5705,1.0035 2.4382,1.5824 2.6014,1.7345c-0.567,1.2603 -0.8913,1.8904 -0.9737,1.8904l-2.9778,-1.7263c-0.0356,0 -0.0712,0 -0.1069,0c0,0.0541 -0.1276,0.3599 -0.3844,0.9166c2.7439,1.4777 4.1155,2.2363 4.1155,2.2741c-0.7689,1.7784 -1.2024,2.7165 -1.3003,2.8152l-4.6559,0.2694c-1.811,-1.1994 -2.7848,-1.8325 -2.9213,-1.8978c0,-0.0163 0,-0.0326 0,-0.049c0,-0.1365 0.2701,-0.7503 0.8097,-1.8414c1.2113,0.6301 2.4226,1.2603 3.6331,1.8904c0.0164,-0.0638 0.2546,-1.0168 0.2702,-1.0799c-2.2474,-1.0094 -3.5841,-1.6395 -4.0094,-1.8904c0,-0.0379 0,-0.0765 0,-0.1143c0,-0.2078 0.4334,-1.1267 1.3011,-2.7573z" data-paper-data="{&quot;origPos&quot;:null}" fill="#000000"/><path d="M162.6025,200.23068c2.4708,1.2714 3.8402,2.0128 4.1074,2.2258c-0.3548,1.6581 -0.5648,2.5117 -0.6302,2.5607c-1.7241,0 -3.4475,0 -5.1709,0c0,0.0304 0,0.0601 0,0.0905c0.4824,0.5968 0.9648,1.1942 1.448,1.7917l2.2749,-1.1615c0.2234,0.3866 0.5455,1.0635 0.9649,2.0292c-0.196,0.0653 -1.6277,0.2753 -4.2952,0.6293c-2.2096,-1.4562 -3.3221,-2.214 -3.3385,-2.2741c0.3548,-2.8315 0.5641,-4.2469 0.6302,-4.2469c2.3075,-0.9819 3.6435,-1.5297 4.0094,-1.6447zM162.0703,202.21088c-0.0438,0.1091 -0.3325,0.5425 -0.8676,1.3011c0,0.2293 0.3221,0.3436 0.9656,0.3436c0,0.0327 0.4668,0.1121 1.3991,0.2375c0.2568,-0.3548 0.3852,-0.5618 0.3852,-0.622c-0.0824,-0.4854 -0.2598,-0.7281 -0.5322,-0.7281c-0.4498,-0.1774 -0.9003,-0.3547 -1.3501,-0.5321z" data-paper-data="{&quot;origPos&quot;:null}" fill="#000000"/><path d="M174.0578,197.75167c1.2001,0.2123 2.3995,0.4253 3.5997,0.6383c-0.1143,0.9107 -0.2286,1.8214 -0.3437,2.7328c0.7148,-0.0386 1.2388,-0.0572 1.5713,-0.0572c0.1744,0 0.3488,0 0.5232,0l0.1151,-0.0578l0.0571,0.115c-0.1143,1.6581 -0.213,2.591 -0.2946,2.7981c-0.0379,-0.0215 -0.0765,-0.0438 -0.1143,-0.0653c-0.0817,0 -0.8187,-0.0386 -2.2096,-0.1143c-0.0764,1.2818 -0.1336,2.8145 -0.1714,4.598c-0.0386,0.0193 -0.0765,0.0386 -0.1151,0.0571c-1.756,-0.1143 -2.8033,-0.2122 -3.1417,-0.2939l0.0571,-0.2293c0,-0.475 0.0764,-1.9476 0.2293,-4.4184c-1.4725,-0.0824 -2.2095,-0.1803 -2.2095,-0.2946c0.0764,-1.8222 0.1751,-2.7329 0.2946,-2.7329c0.7178,0.1359 1.4347,0.2724 2.1525,0.409c0,-0.2345 0,-0.4691 0,-0.7036c0,-0.573 -0.0223,-1.3471 -0.0661,-2.3239c0.0438,0 0.0661,-0.0193 0.0661,-0.0571z" data-paper-data="{&quot;origPos&quot;:null}" fill="#000000"/><path d="M184.1132,197.75167c0.0334,0.049 0.1856,1.5438 0.4587,4.4837c2.1056,-0.6435 3.2264,-0.9656 3.3629,-0.9656l2.0864,1.4243c-0.3385,3.1091 -0.5589,4.9253 -0.6628,5.4493l-2.8968,0.0979c0,-0.0326 -0.0186,-0.049 -0.0572,-0.049l0.0572,-0.2048c0,-0.4416 0.066,-1.7835 0.1966,-4.0258c-0.7963,-0.0326 -1.3879,-0.0489 -1.7753,-0.0489c-0.0683,0 -0.1366,0 -0.2049,0c0.2346,2.493 0.3518,3.8513 0.3518,4.0747l-2.7491,0.4097c-0.1039,-0.3496 -0.7148,-3.6086 -1.8325,-9.7786c0,-0.1744 0.4253,-0.3103 1.2758,-0.409c1.0748,-0.305 1.8711,-0.4579 2.3892,-0.4579z" data-paper-data="{&quot;origPos&quot;:null}" fill="#000000"/><path d="M195.4297,200.23068c2.4708,1.2714 3.8402,2.0128 4.1074,2.2258c-0.3541,1.6581 -0.5641,2.5117 -0.6302,2.5607c-1.7234,0 -3.4468,0 -5.1709,0c0,0.0304 0,0.0601 0,0.0905c0.4824,0.5968 0.9656,1.1942 1.448,1.7917l2.2749,-1.1615c0.2234,0.3866 0.5455,1.0635 0.9656,2.0292c-0.1967,0.0653 -1.6284,0.2753 -4.2959,0.6293c-2.2088,-1.4562 -3.3221,-2.214 -3.3385,-2.2741c0.3548,-2.8315 0.5648,-4.2469 0.6302,-4.2469c2.3075,-0.9819 3.6442,-1.5297 4.0094,-1.6447zM194.8983,202.21088c-0.0438,0.1091 -0.3333,0.5425 -0.8677,1.3011c0,0.2293 0.3221,0.3436 0.9656,0.3436c0,0.0327 0.4661,0.1121 1.3991,0.2375c0.2561,-0.3548 0.3845,-0.5618 0.3845,-0.622c-0.0817,-0.4854 -0.2591,-0.7281 -0.5315,-0.7281z" data-paper-data="{&quot;origPos&quot;:null}" fill="#000000"/><path d="M303.8294,197.75167l3.6005,0.6383c-0.0193,0.1506 -0.3251,2.5821 -0.3437,2.7328c0.7148,-0.0386 1.238,-0.0572 1.5705,-0.0572c0.1752,0 0.3496,0 0.524,0l0.1143,-0.0578l0.0579,0.115c-0.115,1.6581 -0.213,2.591 -0.2946,2.7981c-0.0386,-0.0215 -0.0765,-0.0438 -0.1151,-0.0653c-0.0816,0 -0.8179,-0.0386 -2.2088,-0.1143c-0.0764,1.2818 -0.1336,2.8145 -0.1722,4.598l-0.1143,0.0571c-1.7568,-0.1143 -2.8041,-0.2122 -3.1418,-0.2939l0.0572,-0.2293c0,-0.475 0.0764,-1.9476 0.2286,-4.4184c-1.4726,-0.0824 -2.2088,-0.1803 -2.2088,-0.2946c0.0764,-1.8222 0.1744,-2.7329 0.2946,-2.7329l2.1517,0.409c0,-0.2345 0,-0.4691 0,-0.7036c0,-0.573 -0.0215,-1.3471 -0.0653,-2.3239c0.0438,0 0.0653,-0.0193 0.0653,-0.0571z" data-paper-data="{&quot;origPos&quot;:null}" fill="#000000"/><path d="M313.5175,200.23068c2.0729,0.5566 3.1722,0.8951 3.2976,1.0146c1.14,1.615 1.7806,2.545 1.9223,2.7899c-0.7363,2.335 -1.1586,3.5025 -1.2677,3.5025c-2.4552,0.573 -3.7392,0.8587 -3.8543,0.8587c-2.0292,-1.183 -3.1091,-1.8436 -3.2397,-1.9794c-0.0713,-2.2044 -0.1069,-3.4209 -0.1069,-3.6495c-0.0327,-0.0653 -0.049,-0.115 -0.049,-0.1477c2.0945,-1.5928 3.1774,-2.3891 3.2487,-2.3891zM313.3616,203.22548c-0.0327,0.2182 -0.0817,1.0116 -0.147,2.381l1.8244,0.4089c0.4364,-1.3634 0.6546,-2.0915 0.6546,-2.1843c-1.451,-0.4364 -2.2281,-0.6546 -2.332,-0.6546c0,0.0163 0,0.0326 0,0.049z" data-paper-data="{&quot;origPos&quot;:null}" fill="#000000"/><path d="M332.7295,200.22247c1.3308,0.5507 2.479,1.0695 3.4446,1.5549c-0.2508,3.2457 -0.4119,5.0211 -0.4824,5.3269c-1.6039,0.3978 -2.5012,0.5967 -2.692,0.5967c0,-0.7088 -0.0549,-2.1079 -0.164,-4.1972c-0.6057,0.0601 -0.9077,0.1121 -0.9077,0.1551c0,0.2078 0.0348,1.3917 0.1061,3.5515c0.0327,0 0.049,0.0193 0.049,0.0571c0,0.0654 -0.8432,0.2457 -2.5287,0.5404c-0.0705,-0.0876 -0.2858,-1.4154 -0.6457,-3.9849c-0.6821,0.1744 -1.0228,0.2998 -1.0228,0.3763l0.3266,3.3384c-0.0654,0.0713 -0.9627,0.357 -2.692,0.8587c-1.0035,-3.5507 -1.6307,-5.9347 -1.8815,-7.1511c1.8926,-0.4691 2.951,-0.7037 3.1744,-0.7037c0.2509,0.9931 0.3763,1.5654 0.3763,1.7183c0.0193,0 0.0386,0 0.0579,0c0.9218,-0.8506 1.5653,-1.4236 1.9305,-1.7183c0.0193,0 0.0386,0 0.0579,0l1.7182,1.2358c0.0185,0 0.0378,0 0.0571,0c1.0748,-1.0368 1.647,-1.5549 1.7182,-1.5549z" data-paper-data="{&quot;origPos&quot;:null}" fill="#000000"/><path d="M340.257,200.23068c2.073,0.5566 3.1722,0.8951 3.2977,1.0146c1.14,1.615 1.7813,2.545 1.923,2.7899c-0.7362,2.335 -1.1593,3.5025 -1.2684,3.5025c-2.4545,0.573 -3.7392,0.8587 -3.8535,0.8587c-2.0292,-1.183 -3.1099,-1.8436 -3.2405,-1.9794c-0.0713,-2.2044 -0.1062,-3.4209 -0.1062,-3.6495c-0.0326,-0.0653 -0.0497,-0.115 -0.0497,-0.1477c2.0953,-1.5928 3.1781,-2.3891 3.2487,-2.3891zM340.1019,203.22548c-0.0326,0.2182 -0.0816,1.0116 -0.1477,2.381c0.6086,0.1365 1.2165,0.2731 1.8251,0.4089c0.4364,-1.3634 0.6546,-2.0915 0.6546,-2.1843c-1.451,-0.4364 -2.2288,-0.6546 -2.332,-0.6546c0,0.0163 0,0.0326 0,0.049z" data-paper-data="{&quot;origPos&quot;:null}" fill="#000000"/><path d="M349.4048,200.22247c1.3367,3.0661 2.0485,4.6559 2.1361,4.7702c0.6598,-2.5035 1.0442,-3.8372 1.1533,-4.0013c2.0842,0.1915 3.1262,0.3548 3.1262,0.4914c0,0.0193 0,0.0378 0,0.0571c-1.4621,4.0146 -2.2474,6.1181 -2.3565,6.3088c-1.615,0.2947 -2.6949,0.4772 -3.2405,0.5477c-1.3337,-1.9742 -2.6675,-3.9492 -4.0012,-5.9235c0,-0.0386 0,-0.0765 0,-0.1143c0.0386,-0.0713 1.0992,-0.7831 3.1826,-2.1361z" data-paper-data="{&quot;origPos&quot;:null}" fill="#000000"/><path d="M361.3351,200.23068c2.4708,1.2714 3.8401,2.0128 4.1073,2.2258c-0.3547,1.6581 -0.5648,2.5117 -0.6301,2.5607c-1.7234,0 -3.4476,0 -5.171,0c0,0.0304 0,0.0601 0,0.0905c0.4825,0.5968 0.9656,1.1942 1.4481,1.7917c0.7585,-0.3874 1.5163,-0.7749 2.2749,-1.1615c0.2234,0.3866 0.5455,1.0635 0.9656,2.0292c-0.1967,0.0653 -1.6284,0.2753 -4.2959,0.6293c-2.2096,-1.4562 -3.3222,-2.214 -3.3385,-2.2741c0.3548,-2.8315 0.5648,-4.2469 0.6301,-4.2469c2.3076,-0.9819 3.6435,-1.5297 4.0095,-1.6447zM360.8029,202.21088c-0.0431,0.1091 -0.3325,0.5425 -0.8669,1.3011c0,0.2293 0.3214,0.3436 0.9656,0.3436c0,0.0327 0.4661,0.1121 1.3991,0.2375c0.256,-0.3548 0.3844,-0.5618 0.3844,-0.622c-0.0816,-0.4854 -0.259,-0.7281 -0.5321,-0.7281c-0.4498,-0.1774 -0.8996,-0.3547 -1.3501,-0.5321z" data-paper-data="{&quot;origPos&quot;:null}" fill="#000000"/><g data-paper-data="{&quot;origPos&quot;:null}" fill="#2b70c2"><path d="M208.7998,197.75978l0.0572,0.1062c0.1418,2.073 0.2835,4.146 0.4253,6.219c0.0163,0 0.0326,0 0.049,0c-0.2791,0.2924 2.5131,-2.6327 2.234,-2.3402c1.3145,1.7724 1.9884,2.6593 2.0211,2.6593c0.567,-2.7766 0.9218,-4.4436 1.0635,-4.9995c2.4115,0.4631 3.6168,0.7474 3.6168,0.8506c-1.451,4.6098 -2.283,7.2172 -2.4953,7.8221c-0.5129,0.0334 -1.6477,0.1395 -3.4045,0.3191c-0.7801,-1.8651 -1.1697,-2.8226 -1.1697,-2.8716c-0.0653,0.0052 -0.4743,0.8209 -1.2276,2.4464c-0.0164,0 -0.0327,0 -0.049,0c-2.3402,-0.1581 -3.5099,-0.2999 -3.5099,-0.4253c-1.3152,-5.7989 -1.9721,-8.7767 -1.9721,-8.9355c0,-0.0349 0,-0.0705 0,-0.1061c0,-0.1091 1.4533,-0.357 4.3612,-0.7445z"/><path d="M222.3496,197.78427c3.0275,0.4365 4.6967,0.6925 5.0077,0.769c0,0.0438 1.0421,3.167 3.1255,9.3689c-0.2183,0.0816 -1.4756,0.2397 -3.772,0.4742c-0.158,-0.5343 -0.3354,-1.3604 -0.5321,-2.4789c-1.9632,0.1803 -2.9451,0.3384 -2.9451,0.4742c-0.1774,0.6302 -0.3548,1.2603 -0.5322,1.8904c-0.0193,0 -0.0378,0 -0.0571,0c-2.3187,-0.4252 -3.4773,-0.682 -3.4773,-0.7689c1.8489,-5.7825 2.9102,-9.0252 3.1826,-9.7289zM223.9372,203.44668c0.5915,0 1.1838,0 1.7754,0c0.0556,0.2196 -0.7103,-2.8138 -0.6547,-2.5941c-0.5069,0 -0.7607,0.098 -0.7607,0.2947c-0.0817,0.3978 -0.2019,1.1645 -0.36,2.2994z"/><path d="M237.7735,197.75167c1.9639,0.9923 2.9725,1.4889 3.0275,1.4889c0,0.0875 -0.409,0.8758 -1.2277,2.3646c-0.0193,0 -0.0378,0 -0.0571,0c-0.0653,0 -1.0064,-0.4446 -2.8226,-1.3337c-0.3088,0.4119 -0.6168,0.8238 -0.9248,1.2358c1.5653,0.7526 3.4668,1.713 5.7031,2.8805c-1.0146,1.805 -1.7345,3.0052 -2.1606,3.5997l-4.6224,0.4089c-2.1116,-1.4235 -3.2272,-2.1598 -3.3467,-2.2088c0,-0.0193 0,-0.0386 0,-0.0571c0,-0.1529 0.4283,-0.8543 1.2848,-2.1034c0.0349,0 0.0705,0 0.1061,0c0.3385,0.2018 1.3991,0.783 3.1826,1.7434c0.36,-0.4097 0.72,-0.8186 1.0807,-1.2276c-3.2791,-1.6692 -5.0953,-2.6126 -5.4501,-2.8308c0,-0.0163 0,-0.0334 0,-0.0497c1.0421,-2.0292 1.6092,-3.0572 1.7019,-3.0846c2.7113,-0.5508 4.2195,-0.8261 4.5253,-0.8261z"/><path d="M247.5595,197.75167c3.0928,1.756 4.7457,2.7031 4.9587,2.8389c-0.1855,2.8917 -0.3251,4.4592 -0.4178,4.7049c-1.7673,1.7895 -2.6779,2.6838 -2.7329,2.6838l-5.5799,0.4171c-0.0712,-0.2397 -0.5537,-3.3733 -1.4488,-9.4008c0.524,-0.1751 2.2637,-0.5893 5.2207,-1.2439zM246.2176,200.90157c0,0.0193 0,0.0386 0,0.0572c0.1366,1.618 0.2724,3.2353 0.409,4.8525c1.5163,-0.3599 2.2748,-0.5841 2.2748,-0.6709c0,-0.1314 0.1715,-1.146 0.5151,-3.0438c-2.067,-0.7964 -3.1336,-1.195 -3.1989,-1.195z"/><path d="M261.1664,197.75167c0.0765,0.2182 0.2487,1.7642 0.5159,4.6395c-0.6138,0.6873 3.0683,-3.4371 2.4545,-2.7499c0.0193,0 0.0386,0 0.0571,0c0.3823,0.317 1.0888,0.985 2.1198,2.0048c0,0.0192 0,0.0385 0,0.0578c-0.7831,0.6465 -1.5661,1.2922 -2.3484,1.9387c1.7672,1.1838 2.7024,1.8526 2.8063,2.0047c-1.1126,1.2388 -1.7813,1.9446 -2.0047,2.1198c-0.5195,-0.4795 -2.3365,-2.1562 -2.8553,-2.6349c0.1143,1.1779 0.1715,2.0567 0.1715,2.6349c-0.1366,0.0764 -1.1482,0.2857 -3.0357,0.6293c-0.1529,-0.7629 -0.6494,-4.0443 -1.4888,-9.8431c0.3488,-0.1143 1.5519,-0.3815 3.6078,-0.8016z"/><path d="M272.1148,200.23068c2.4708,1.2714 3.8402,2.0128 4.1074,2.2258c-0.3548,1.6581 -0.5649,2.5117 -0.6302,2.5607c-1.7234,0 -3.4475,0 -5.1709,0c0,0.0304 0,0.0601 0,0.0905c0.4824,0.5968 0.9656,1.1942 1.448,1.7917c0.7585,-0.3874 1.5163,-0.7749 2.2749,-1.1615c0.2234,0.3866 0.5455,1.0635 0.9656,2.0292c-0.1967,0.0653 -1.6284,0.2753 -4.2959,0.6293c-2.2096,-1.4562 -3.3221,-2.214 -3.3385,-2.2741c0.3548,-2.8315 0.5648,-4.2469 0.6302,-4.2469c2.3075,-0.9819 3.6435,-1.5297 4.0094,-1.6447zM271.5826,202.21088c-0.043,0.1091 -0.3325,0.5425 -0.8669,1.3011c0,0.2293 0.3214,0.3436 0.9656,0.3436c0,0.0327 0.4661,0.1121 1.3991,0.2375c0.2561,-0.3548 0.3845,-0.5618 0.3845,-0.622c-0.0817,-0.4854 -0.2591,-0.7281 -0.5322,-0.7281c-0.4498,-0.1774 -0.8996,-0.3547 -1.3501,-0.5321z"/><path d="M280.7303,200.23877c0.0765,0.0112 0.1151,0.049 0.1151,0.1151c-0.2835,1.5705 -0.5678,3.1417 -0.8513,4.713c1.6254,-0.1915 2.4389,-0.3436 2.4389,-0.4587c0.305,-1.8874 0.5151,-2.9458 0.6294,-3.1744c2.0128,0.4141 3.1284,0.6598 3.3466,0.7363c-1.1727,4.0309 -1.8162,6.1313 -1.9305,6.3006c-2.0515,1.4399 -3.2049,2.2362 -3.4617,2.3891c-0.0764,0 -1.3827,-0.3221 -3.9188,-0.9656c0,-0.0193 0,-0.0386 0,-0.0571c0.6709,-1.4785 1.088,-2.2177 1.2513,-2.2177c-0.1781,-0.0891 2.6742,1.3411 2.4961,1.2521c0.0341,-0.0587 1.1601,-1.9877 1.1942,-2.0456c-1.0747,0.2672 -1.6989,0.4008 -1.8733,0.4008c-0.3541,-0.1833 -2.8293,-1.4695 -3.1834,-1.6529c0.3875,-3.5566 0.6331,-5.335 0.737,-5.335c1.0035,0 2.007,0 3.0104,0z"/><path d="M293.814,200.22247c1.5713,1.0035 2.4389,1.5824 2.6022,1.7345c-0.567,1.2603 -0.8921,1.8904 -0.9738,1.8904c-0.9923,-0.5752 -1.9854,-1.1511 -2.9785,-1.7263c-0.0348,0 -0.0705,0 -0.1061,0c0,0.0541 -0.1284,0.3599 -0.3845,0.9166c2.744,1.4777 4.1156,2.2363 4.1156,2.2741c-0.7689,1.7784 -1.2024,2.7165 -1.3011,2.8152l-4.6559,0.2694c-1.811,-1.1994 -2.7848,-1.8325 -2.9206,-1.8978c0,-0.0163 0,-0.0326 0,-0.049c0,-0.1365 0.2702,-0.7503 0.8098,-1.8414c1.2113,0.6301 2.4218,1.2603 3.6331,1.8904c0.0898,-0.36 0.1796,-0.7199 0.2701,-1.0799c-2.2474,-1.0094 -3.5841,-1.6395 -4.0094,-1.8904c0,-0.0379 0,-0.0765 0,-0.1143c0,-0.2078 0.4335,-1.1267 1.3011,-2.7573z"/></g></g></g></g></g></svg>