<svg version="1.1" xmlns="http://www.w3.org/2000/svg" xmlns:xlink="http://www.w3.org/1999/xlink" width="143.7336" height="143.73361" viewBox="0,0,143.7336,143.73361"><defs><linearGradient x1="240" y1="110.13321" x2="240" y2="249.86681" gradientUnits="userSpaceOnUse" id="color-1"><stop offset="0" stop-color="#3c94ed"/><stop offset="1" stop-color="#337fcc"/></linearGradient><radialGradient cx="239.57921" cy="140.68692" r="34.68687" gradientUnits="userSpaceOnUse" id="color-2"><stop offset="0" stop-color="#fff343"/><stop offset="1" stop-color="#fff343" stop-opacity="0"/></radialGradient><linearGradient x1="215.35446" y1="118.45109" x2="215.35446" y2="162.861" gradientUnits="userSpaceOnUse" id="color-3"><stop offset="0" stop-color="#fff01b"/><stop offset="1" stop-color="#ffa30a"/></linearGradient><radialGradient cx="273.07921" cy="161.68692" r="34.68687" gradientUnits="userSpaceOnUse" id="color-4"><stop offset="0" stop-color="#fff343"/><stop offset="1" stop-color="#fff343" stop-opacity="0"/></radialGradient><linearGradient x1="248.85446" y1="139.45108" x2="248.85446" y2="183.861" gradientUnits="userSpaceOnUse" id="color-5"><stop offset="0" stop-color="#fff01b"/><stop offset="1" stop-color="#ffa30a"/></linearGradient><linearGradient x1="273.88256" y1="156.06275" x2="273.88256" y2="165.69189" gradientUnits="userSpaceOnUse" id="color-6"><stop offset="0" stop-color="#000000"/><stop offset="1" stop-color="#674205"/></linearGradient><linearGradient x1="265.78148" y1="156.01896" x2="265.78148" y2="165.64813" gradientUnits="userSpaceOnUse" id="color-7"><stop offset="0" stop-color="#000000"/><stop offset="1" stop-color="#674205"/></linearGradient><radialGradient cx="239.49587" cy="140.52024" r="34.68688" gradientUnits="userSpaceOnUse" id="color-8"><stop offset="0" stop-color="#fff343"/><stop offset="1" stop-color="#fff343" stop-opacity="0"/></radialGradient><linearGradient x1="215.27112" y1="118.28442" x2="215.27112" y2="162.69433" gradientUnits="userSpaceOnUse" id="color-9"><stop offset="0" stop-color="#fff01b"/><stop offset="1" stop-color="#ffa30a"/></linearGradient><radialGradient cx="274.57921" cy="195.18692" r="34.68687" gradientUnits="userSpaceOnUse" id="color-10"><stop offset="0" stop-color="#fff343"/><stop offset="1" stop-color="#fff343" stop-opacity="0"/></radialGradient><linearGradient x1="250.35446" y1="172.95108" x2="250.35446" y2="217.361" gradientUnits="userSpaceOnUse" id="color-11"><stop offset="0" stop-color="#fff01b"/><stop offset="1" stop-color="#ffa30a"/></linearGradient><linearGradient x1="275.38256" y1="189.56276" x2="275.38256" y2="199.19192" gradientUnits="userSpaceOnUse" id="color-12"><stop offset="0" stop-color="#000000"/><stop offset="1" stop-color="#674205"/></linearGradient><linearGradient x1="267.28148" y1="189.51896" x2="267.28148" y2="199.14814" gradientUnits="userSpaceOnUse" id="color-13"><stop offset="0" stop-color="#000000"/><stop offset="1" stop-color="#674205"/></linearGradient><radialGradient cx="242.07921" cy="219.68692" r="34.68687" gradientUnits="userSpaceOnUse" id="color-14"><stop offset="0" stop-color="#fff343"/><stop offset="1" stop-color="#fff343" stop-opacity="0"/></radialGradient><linearGradient x1="217.85446" y1="197.45108" x2="217.85446" y2="241.861" gradientUnits="userSpaceOnUse" id="color-15"><stop offset="0" stop-color="#fff01b"/><stop offset="1" stop-color="#ffa30a"/></linearGradient><linearGradient x1="242.88256" y1="214.06276" x2="242.88256" y2="223.69192" gradientUnits="userSpaceOnUse" id="color-16"><stop offset="0" stop-color="#000000"/><stop offset="1" stop-color="#674205"/></linearGradient><linearGradient x1="234.78149" y1="214.01896" x2="234.78149" y2="223.64814" gradientUnits="userSpaceOnUse" id="color-17"><stop offset="0" stop-color="#000000"/><stop offset="1" stop-color="#674205"/></linearGradient><radialGradient cx="206.57921" cy="197.18692" r="34.68687" gradientUnits="userSpaceOnUse" id="color-18"><stop offset="0" stop-color="#fff343"/><stop offset="1" stop-color="#fff343" stop-opacity="0"/></radialGradient><linearGradient x1="182.35446" y1="174.95108" x2="182.35446" y2="219.361" gradientUnits="userSpaceOnUse" id="color-19"><stop offset="0" stop-color="#fff01b"/><stop offset="1" stop-color="#ffa30a"/></linearGradient><linearGradient x1="207.38256" y1="191.56276" x2="207.38256" y2="201.19192" gradientUnits="userSpaceOnUse" id="color-20"><stop offset="0" stop-color="#000000"/><stop offset="1" stop-color="#674205"/></linearGradient><linearGradient x1="199.28149" y1="191.51896" x2="199.28149" y2="201.14814" gradientUnits="userSpaceOnUse" id="color-21"><stop offset="0" stop-color="#000000"/><stop offset="1" stop-color="#674205"/></linearGradient><radialGradient cx="205.07921" cy="163.68692" r="34.68687" gradientUnits="userSpaceOnUse" id="color-22"><stop offset="0" stop-color="#fff343"/><stop offset="1" stop-color="#fff343" stop-opacity="0"/></radialGradient><linearGradient x1="180.85446" y1="141.45108" x2="180.85446" y2="185.861" gradientUnits="userSpaceOnUse" id="color-23"><stop offset="0" stop-color="#fff01b"/><stop offset="1" stop-color="#ffa30a"/></linearGradient><linearGradient x1="205.88256" y1="158.06275" x2="205.88256" y2="167.69189" gradientUnits="userSpaceOnUse" id="color-24"><stop offset="0" stop-color="#000000"/><stop offset="1" stop-color="#674205"/></linearGradient><linearGradient x1="197.78149" y1="158.01896" x2="197.78149" y2="167.64813" gradientUnits="userSpaceOnUse" id="color-25"><stop offset="0" stop-color="#000000"/><stop offset="1" stop-color="#674205"/></linearGradient><linearGradient x1="240.38256" y1="135.06275" x2="240.38256" y2="144.69189" gradientUnits="userSpaceOnUse" id="color-26"><stop offset="0" stop-color="#000000"/><stop offset="1" stop-color="#674205"/></linearGradient><linearGradient x1="232.28149" y1="135.01896" x2="232.28149" y2="144.64813" gradientUnits="userSpaceOnUse" id="color-27"><stop offset="0" stop-color="#000000"/><stop offset="1" stop-color="#674205"/></linearGradient></defs><g transform="translate(-168.1332,-108.1332)"><g data-paper-data="{&quot;isPaintingLayer&quot;:true}" fill-rule="nonzero" stroke-linejoin="miter" stroke-miterlimit="10" stroke-dasharray="" stroke-dashoffset="0" style="mix-blend-mode: normal"><path d="M240,110.13321c19.2752,0 36.74421,7.8268 49.3899,20.47689c12.64989,12.64569 20.4769,30.11449 20.4769,49.38991c0,19.27542 -7.82701,36.74421 -20.4769,49.38991c-12.64569,12.65009 -30.1147,20.4769 -49.3899,20.4769c-19.27542,0 -36.74442,-7.8268 -49.39012,-20.4769c-12.64989,-12.64569 -20.47668,-30.11449 -20.47668,-49.38991c0,-19.27542 7.82679,-36.74421 20.47668,-49.38991c12.64569,-12.6501 30.11471,-20.47689 49.39012,-20.47689z" data-paper-data="{&quot;origPos&quot;:null}" id="ID0.4039921844378114" fill="url(#color-1)" stroke="#23568d" stroke-width="4" stroke-linecap="butt"/><path d="M213.29143,135.67528l-0.93447,-1.20614l0.80994,-2.47586l1.43288,-0.63477h14.76488l6.47919,-14.91841l1.43288,-1.20614l1.43288,0.06341l1.74432,1.33313l6.40335,13.23517l-0.52395,28.92827l-7.00078,-4.96263l-12.21064,11.4269l-2.74114,0.50787l-1.99365,-1.07924l-0.68522,-2.98365l1.43288,-14.22014z" data-paper-data="{&quot;origPos&quot;:null}" id="ID0.3117544511333108" fill="url(#color-2)" stroke="none" stroke-width="1.43627" stroke-linecap="butt"/><path d="M216.19128,136.41584l-0.83682,-1.05997l0.72525,-2.1759l1.28321,-0.55788h13.22253l5.80229,-13.11096l1.28321,-1.06006l1.28321,0.05579l1.56215,1.17163l6.0687,12.4084c-0.11276,2.75322 -0.25167,5.50621 -0.25167,8.24645c0,5.59471 0,11.18942 0,16.78413l-6.8213,-4.74524l-10.93505,10.04244l-2.45484,0.4463l-1.7853,-0.94848l-0.61366,-2.6222l1.28312,-12.4972z" data-paper-data="{&quot;origPos&quot;:null}" id="ID0.3117544511333108" fill="url(#color-3)" stroke="none" stroke-width="1.27408" stroke-linecap="butt"/><g data-paper-data="{&quot;origPos&quot;:null}" stroke="none"><path d="M246.79143,156.67528l-0.93447,-1.20614l0.80994,-2.47586l1.43288,-0.63477h14.76488l6.47919,-14.91841l1.43288,-1.20615l1.43288,0.06341l1.74432,1.33313l6.97751,14.53753l14.95186,-0.2539l1.49524,0.88876l1.18363,1.46012l-1.18363,2.60277l-8.53503,10.09376l2.49198,15.29928l0.12454,2.41228l-1.55742,0.82525l-2.74123,-0.50779l-14.32883,-10.15726l-12.21064,11.4269l-2.74114,0.50787l-1.99365,-1.07924l-0.68522,-2.98365l1.43288,-14.22014z" data-paper-data="{&quot;origPos&quot;:null}" id="ID0.3117544511333108" fill="url(#color-4)" stroke-width="1.43627" stroke-linecap="round"/><path d="M249.69128,157.41584l-0.83682,-1.05997l0.72525,-2.1759l1.28321,-0.55788h13.22253l5.8023,-13.11096l1.28321,-1.06006l1.28321,0.05579l1.56214,1.17163l6.2486,12.77623l13.38998,-0.22315l1.339,0.78104l1.05997,1.28321l-1.05997,2.28748l-7.64347,8.8708l2.23169,13.44568l0.11157,2.12011l-1.39479,0.72525l-2.45484,-0.4463l-12.83201,-8.9266l-10.93505,10.04244l-2.45484,0.4463l-1.7853,-0.94848l-0.61366,-2.6222l1.28312,-12.4972z" data-paper-data="{&quot;origPos&quot;:null}" id="ID0.3117544511333108" fill="url(#color-5)" stroke-width="1.27408" stroke-linecap="round"/><g data-paper-data="{&quot;origPos&quot;:null}" id="ID0.4398073833435774" stroke-width="2.7674"><path d="M275.85221,156.06363c0.61498,-0.02373 1.22787,0.48537 1.48605,1.11322c0.46837,1.13949 0.51873,2.49802 0.4837,3.76686c-0.02408,1.1712 -0.2101,2.38198 -0.65658,3.42926c-0.25608,0.61463 -0.71779,1.32419 -1.31316,1.31894c-0.57338,-0.00526 -1.06146,-0.44849 -1.37657,-1.24511c-0.40269,-1.00769 -0.59309,-2.21584 -0.59309,-3.63498c0,-1.41923 0.1466,-2.57982 0.59309,-3.63497c0.29321,-0.69644 0.85355,-1.13695 1.37657,-1.11322z" id="ID0.6670762049034238" fill="url(#color-6)" stroke-linecap="round"/><path d="M275.94786,156.80962c0.31739,0 0.60403,0.15563 0.81194,0.40619c0.20792,0.25065 0.33709,0.59624 0.33709,0.9787c0,0.38245 -0.12918,0.72805 -0.33709,0.97861c-0.20792,0.25065 -0.49456,0.40628 -0.81194,0.40628c-0.3173,0 -0.60403,-0.15563 -0.81195,-0.40628c-0.20792,-0.25056 -0.337,-0.59615 -0.337,-0.97861c0,-0.38245 0.1291,-0.72805 0.337,-0.9787c0.20792,-0.25056 0.49465,-0.40619 0.81195,-0.40619z" id="ID0.2271407265216112" fill="#ffffff" stroke-linecap="butt"/></g><g data-paper-data="{&quot;origPos&quot;:null}" id="ID0.4398073833435774" stroke-width="2.7674"><path d="M267.75113,156.01984c0.61498,-0.02373 1.22787,0.48536 1.48605,1.11322c0.46837,1.13949 0.51873,2.49802 0.4837,3.76686c-0.02408,1.1712 -0.2101,2.38197 -0.65658,3.42925c-0.25608,0.61463 -0.71779,1.3242 -1.31316,1.31895c-0.57338,-0.00526 -1.06146,-0.44849 -1.37657,-1.24511c-0.40269,-1.00769 -0.59309,-2.21584 -0.59309,-3.63498c0,-1.41923 0.14661,-2.57982 0.59309,-3.63497c0.29321,-0.69644 0.85355,-1.13695 1.37657,-1.11322z" id="ID0.6670762049034238" fill="url(#color-7)" stroke-linecap="round"/><path d="M267.89058,156.72204c0.31739,0 0.60403,0.15563 0.81194,0.40619c0.20792,0.25065 0.33709,0.59624 0.33709,0.9787c0,0.38245 -0.12919,0.72805 -0.33709,0.97861c-0.20792,0.25065 -0.49456,0.40628 -0.81194,0.40628c-0.3173,0 -0.60403,-0.15563 -0.81195,-0.40628c-0.20792,-0.25056 -0.337,-0.59615 -0.337,-0.97861c0,-0.38245 0.1291,-0.72805 0.337,-0.9787c0.20792,-0.25056 0.49465,-0.40619 0.81195,-0.40619z" id="ID0.2271407265216112" fill="#ffffff" stroke-linecap="butt"/></g></g><path d="M246.79995,129.86683l0.54817,1.13452l14.95186,-0.2539l1.49524,0.88876l1.18363,1.46012l-1.18363,2.60277l-8.53503,10.09376l2.49197,15.29928l0.12454,2.41228l-1.55742,0.82525l-2.74123,-0.50779l-7.22494,-4.96246z" data-paper-data="{&quot;origPos&quot;:null}" id="ID0.3117544511333108" fill="url(#color-8)" stroke="none" stroke-width="1.43627" stroke-linecap="butt"/><path d="M236.3044,119.34448l1.28321,-1.06005l1.28321,0.05579l1.56214,1.17163l6.2486,12.77623l13.38998,-0.22315l1.339,0.78104l1.05997,1.2832l-1.05997,2.28748l-7.64347,8.8708l2.23169,13.44568l0.11158,2.12011l-1.39479,0.72525l-2.45484,-0.4463l-12.83202,-8.9266l-0.42145,0.38705c-0.99382,-8.34 -2.31474,-13.87069 -3.81862,-23.95507c-0.25313,-1.69735 -0.50029,-3.39557 -0.74232,-5.09453z" data-paper-data="{&quot;origPos&quot;:null}" id="ID0.3117544511333108" fill="url(#color-9)" stroke="none" stroke-width="1.27408" stroke-linecap="butt"/><g data-paper-data="{&quot;origPos&quot;:null}" stroke="none"><path d="M248.29143,190.17528l-0.93447,-1.20614l0.80994,-2.47586l1.43288,-0.63477h14.76488l6.47919,-14.91841l1.43288,-1.20615l1.43288,0.06341l1.74432,1.33313l6.97751,14.53753l14.95186,-0.2539l1.49524,0.88876l1.18363,1.46012l-1.18363,2.60277l-8.53503,10.09376l2.49198,15.29928l0.12454,2.41228l-1.55742,0.82525l-2.74123,-0.50779l-14.32883,-10.15726l-12.21064,11.4269l-2.74114,0.50787l-1.99365,-1.07924l-0.68522,-2.98365l1.43288,-14.22014z" data-paper-data="{&quot;origPos&quot;:null}" id="ID0.3117544511333108" fill="url(#color-10)" stroke-width="1.43627" stroke-linecap="round"/><path d="M251.19128,190.91585l-0.83682,-1.05997l0.72525,-2.1759l1.28321,-0.55788h13.22253l5.8023,-13.11096l1.28321,-1.06006l1.28321,0.05579l1.56214,1.17163l6.2486,12.77623l13.38998,-0.22315l1.339,0.78104l1.05997,1.28321l-1.05997,2.28748l-7.64347,8.8708l2.23169,13.44568l0.11157,2.12011l-1.39479,0.72525l-2.45484,-0.4463l-12.83201,-8.9266l-10.93505,10.04244l-2.45484,0.4463l-1.7853,-0.94848l-0.61366,-2.6222l1.28312,-12.4972z" data-paper-data="{&quot;origPos&quot;:null}" id="ID0.3117544511333108" fill="url(#color-11)" stroke-width="1.27408" stroke-linecap="round"/><g data-paper-data="{&quot;origPos&quot;:null}" id="ID0.4398073833435774" stroke-width="2.7674"><path d="M277.35221,189.56363c0.61498,-0.02373 1.22787,0.48537 1.48605,1.11322c0.46837,1.13949 0.51873,2.49802 0.4837,3.76686c-0.02408,1.1712 -0.2101,2.38198 -0.65658,3.42926c-0.25608,0.61463 -0.71779,1.32419 -1.31316,1.31894c-0.57338,-0.00526 -1.06146,-0.44849 -1.37657,-1.24511c-0.40269,-1.00769 -0.59309,-2.21584 -0.59309,-3.63498c0,-1.41923 0.1466,-2.57982 0.59309,-3.63497c0.29321,-0.69644 0.85355,-1.13695 1.37657,-1.11322z" id="ID0.6670762049034238" fill="url(#color-12)" stroke-linecap="round"/><path d="M277.44786,190.30964c0.31739,0 0.60403,0.15563 0.81194,0.40619c0.20792,0.25065 0.33709,0.59624 0.33709,0.9787c0,0.38245 -0.12918,0.72805 -0.33709,0.97861c-0.20792,0.25065 -0.49456,0.40628 -0.81194,0.40628c-0.3173,0 -0.60403,-0.15563 -0.81195,-0.40628c-0.20792,-0.25056 -0.337,-0.59615 -0.337,-0.97861c0,-0.38245 0.1291,-0.72805 0.337,-0.9787c0.20792,-0.25056 0.49465,-0.40619 0.81195,-0.40619z" id="ID0.2271407265216112" fill="#ffffff" stroke-linecap="butt"/></g><g data-paper-data="{&quot;origPos&quot;:null}" id="ID0.4398073833435774" stroke-width="2.7674"><path d="M269.25113,189.51984c0.61498,-0.02373 1.22787,0.48536 1.48605,1.11322c0.46837,1.13949 0.51873,2.49802 0.4837,3.76686c-0.02408,1.1712 -0.2101,2.38197 -0.65658,3.42925c-0.25608,0.61463 -0.71779,1.3242 -1.31316,1.31895c-0.57338,-0.00526 -1.06146,-0.44849 -1.37657,-1.24511c-0.40269,-1.00769 -0.59309,-2.21584 -0.59309,-3.63498c0,-1.41923 0.14661,-2.57982 0.59309,-3.63497c0.29321,-0.69644 0.85355,-1.13695 1.37657,-1.11322z" id="ID0.6670762049034238" fill="url(#color-13)" stroke-linecap="round"/><path d="M269.39058,190.22204c0.31739,0 0.60403,0.15563 0.81194,0.40619c0.20792,0.25065 0.33709,0.59624 0.33709,0.9787c0,0.38245 -0.12919,0.72805 -0.33709,0.97861c-0.20792,0.25065 -0.49456,0.40628 -0.81194,0.40628c-0.3173,0 -0.60403,-0.15563 -0.81195,-0.40628c-0.20792,-0.25056 -0.337,-0.59615 -0.337,-0.97861c0,-0.38245 0.1291,-0.72805 0.337,-0.9787c0.20792,-0.25056 0.49465,-0.40619 0.81195,-0.40619z" id="ID0.2271407265216112" fill="#ffffff" stroke-linecap="butt"/></g></g><g data-paper-data="{&quot;origPos&quot;:null}" stroke="none"><path d="M215.79143,214.67528l-0.93447,-1.20614l0.80994,-2.47586l1.43288,-0.63477h14.76488l6.47919,-14.91841l1.43288,-1.20615l1.43288,0.06341l1.74432,1.33313l6.97752,14.53753l14.95186,-0.2539l1.49524,0.88876l1.18363,1.46012l-1.18363,2.60277l-8.53503,10.09376l2.49198,15.29928l0.12454,2.41228l-1.55742,0.82525l-2.74123,-0.50779l-14.32883,-10.15726l-12.21064,11.4269l-2.74114,0.50787l-1.99365,-1.07924l-0.68522,-2.98365l1.43288,-14.22014z" data-paper-data="{&quot;origPos&quot;:null}" id="ID0.3117544511333108" fill="url(#color-14)" stroke-width="1.43627" stroke-linecap="round"/><path d="M218.69128,215.41585l-0.83682,-1.05997l0.72525,-2.1759l1.28321,-0.55788h13.22253l5.80229,-13.11096l1.28321,-1.06006l1.28321,0.05579l1.56215,1.17163l6.2486,12.77623l13.38998,-0.22315l1.339,0.78104l1.05997,1.28321l-1.05997,2.28748l-7.64347,8.8708l2.23169,13.44568l0.11157,2.12011l-1.39479,0.72525l-2.45484,-0.4463l-12.83202,-8.9266l-10.93505,10.04244l-2.45484,0.4463l-1.7853,-0.94848l-0.61366,-2.6222l1.28312,-12.4972z" data-paper-data="{&quot;origPos&quot;:null}" id="ID0.3117544511333108" fill="url(#color-15)" stroke-width="1.27408" stroke-linecap="round"/><g data-paper-data="{&quot;origPos&quot;:null}" id="ID0.4398073833435774" stroke-width="2.7674"><path d="M244.85221,214.06363c0.61498,-0.02373 1.22787,0.48537 1.48605,1.11322c0.46838,1.13949 0.51873,2.49802 0.4837,3.76686c-0.02408,1.1712 -0.2101,2.38198 -0.65658,3.42926c-0.25608,0.61463 -0.7178,1.32419 -1.31316,1.31894c-0.57338,-0.00526 -1.06146,-0.44849 -1.37656,-1.24511c-0.40269,-1.00769 -0.59309,-2.21584 -0.59309,-3.63498c0,-1.41923 0.1466,-2.57982 0.59309,-3.63497c0.29322,-0.69644 0.85354,-1.13695 1.37656,-1.11322z" id="ID0.6670762049034238" fill="url(#color-16)" stroke-linecap="round"/><path d="M244.94786,214.80964c0.31739,0 0.60403,0.15563 0.81195,0.40619c0.20792,0.25065 0.33709,0.59624 0.33709,0.9787c0,0.38245 -0.12918,0.72805 -0.33709,0.97861c-0.20792,0.25065 -0.49456,0.40628 -0.81195,0.40628c-0.3173,0 -0.60403,-0.15563 -0.81195,-0.40628c-0.20792,-0.25056 -0.337,-0.59615 -0.337,-0.97861c0,-0.38245 0.12909,-0.72805 0.337,-0.9787c0.20792,-0.25056 0.49465,-0.40619 0.81195,-0.40619z" id="ID0.2271407265216112" fill="#ffffff" stroke-linecap="butt"/></g><g data-paper-data="{&quot;origPos&quot;:null}" id="ID0.4398073833435774" stroke-width="2.7674"><path d="M236.75114,214.01984c0.61498,-0.02373 1.22786,0.48536 1.48604,1.11322c0.46838,1.13949 0.51874,2.49802 0.48371,3.76686c-0.02408,1.1712 -0.21011,2.38197 -0.65658,3.42925c-0.25608,0.61463 -0.71779,1.3242 -1.31316,1.31895c-0.57338,-0.00526 -1.06147,-0.44849 -1.37657,-1.24511c-0.40269,-1.00769 -0.59309,-2.21584 -0.59309,-3.63498c0,-1.41923 0.1466,-2.57982 0.59309,-3.63497c0.29322,-0.69644 0.85355,-1.13695 1.37657,-1.11322z" id="ID0.6670762049034238" fill="url(#color-17)" stroke-linecap="round"/><path d="M236.89058,214.72204c0.31739,0 0.60403,0.15563 0.81194,0.40619c0.20792,0.25065 0.33709,0.59624 0.33709,0.9787c0,0.38245 -0.12919,0.72805 -0.33709,0.97861c-0.20792,0.25065 -0.49456,0.40628 -0.81194,0.40628c-0.3173,0 -0.60403,-0.15563 -0.81195,-0.40628c-0.20792,-0.25056 -0.33701,-0.59615 -0.33701,-0.97861c0,-0.38245 0.1291,-0.72805 0.33701,-0.9787c0.20792,-0.25056 0.49465,-0.40619 0.81195,-0.40619z" id="ID0.2271407265216112" fill="#ffffff" stroke-linecap="butt"/></g></g><g data-paper-data="{&quot;origPos&quot;:null}" stroke="none"><path d="M180.29143,192.17528l-0.93447,-1.20614l0.80994,-2.47586l1.43288,-0.63477h14.76488l6.47919,-14.91841l1.43288,-1.20615l1.43288,0.06341l1.74432,1.33313l6.97752,14.53753l14.95186,-0.2539l1.49524,0.88876l1.18363,1.46012l-1.18363,2.60277l-8.53503,10.09376l2.49197,15.29928l0.12454,2.41228l-1.55742,0.82525l-2.74123,-0.50779l-14.32883,-10.15726l-12.21064,11.4269l-2.74114,0.50787l-1.99365,-1.07924l-0.68522,-2.98365l1.43288,-14.22014z" data-paper-data="{&quot;origPos&quot;:null}" id="ID0.3117544511333108" fill="url(#color-18)" stroke-width="1.43627" stroke-linecap="round"/><path d="M183.19128,192.91585l-0.83682,-1.05997l0.72525,-2.1759l1.28321,-0.55788h13.22253l5.80229,-13.11096l1.28321,-1.06006l1.28321,0.05579l1.56215,1.17163l6.2486,12.77623l13.38998,-0.22315l1.33899,0.78104l1.05997,1.28321l-1.05997,2.28748l-7.64347,8.8708l2.23169,13.44568l0.11158,2.12011l-1.39479,0.72525l-2.45484,-0.4463l-12.83202,-8.9266l-10.93505,10.04244l-2.45484,0.4463l-1.7853,-0.94848l-0.61366,-2.6222l1.28312,-12.4972z" data-paper-data="{&quot;origPos&quot;:null}" id="ID0.3117544511333108" fill="url(#color-19)" stroke-width="1.27408" stroke-linecap="round"/><g data-paper-data="{&quot;origPos&quot;:null}" id="ID0.4398073833435774" stroke-width="2.7674"><path d="M209.35221,191.56363c0.61498,-0.02373 1.22787,0.48537 1.48605,1.11322c0.46838,1.13949 0.51873,2.49802 0.4837,3.76686c-0.02408,1.1712 -0.2101,2.38198 -0.65658,3.42926c-0.25608,0.61463 -0.7178,1.32419 -1.31316,1.31894c-0.57338,-0.00526 -1.06146,-0.44849 -1.37656,-1.24511c-0.40269,-1.00769 -0.59309,-2.21584 -0.59309,-3.63498c0,-1.41923 0.1466,-2.57982 0.59309,-3.63497c0.29322,-0.69644 0.85354,-1.13695 1.37656,-1.11322z" id="ID0.6670762049034238" fill="url(#color-20)" stroke-linecap="round"/><path d="M209.44786,192.30964c0.31739,0 0.60403,0.15563 0.81195,0.40619c0.20792,0.25065 0.33709,0.59624 0.33709,0.9787c0,0.38245 -0.12918,0.72805 -0.33709,0.97861c-0.20792,0.25065 -0.49456,0.40628 -0.81195,0.40628c-0.3173,0 -0.60403,-0.15563 -0.81195,-0.40628c-0.20792,-0.25056 -0.337,-0.59615 -0.337,-0.97861c0,-0.38245 0.12909,-0.72805 0.337,-0.9787c0.20792,-0.25056 0.49465,-0.40619 0.81195,-0.40619z" id="ID0.2271407265216112" fill="#ffffff" stroke-linecap="butt"/></g><g data-paper-data="{&quot;origPos&quot;:null}" id="ID0.4398073833435774" stroke-width="2.7674"><path d="M201.25114,191.51984c0.61498,-0.02373 1.22786,0.48536 1.48604,1.11322c0.46838,1.13949 0.51874,2.49802 0.48371,3.76686c-0.02408,1.1712 -0.21011,2.38197 -0.65658,3.42925c-0.25608,0.61463 -0.71779,1.3242 -1.31316,1.31895c-0.57338,-0.00526 -1.06147,-0.44849 -1.37657,-1.24511c-0.40269,-1.00769 -0.59309,-2.21584 -0.59309,-3.63498c0,-1.41923 0.1466,-2.57982 0.59309,-3.63497c0.29322,-0.69644 0.85355,-1.13695 1.37657,-1.11322z" id="ID0.6670762049034238" fill="url(#color-21)" stroke-linecap="round"/><path d="M201.39058,192.22204c0.31739,0 0.60403,0.15563 0.81194,0.40619c0.20792,0.25065 0.33709,0.59624 0.33709,0.9787c0,0.38245 -0.12919,0.72805 -0.33709,0.97861c-0.20792,0.25065 -0.49456,0.40628 -0.81194,0.40628c-0.3173,0 -0.60403,-0.15563 -0.81195,-0.40628c-0.20792,-0.25056 -0.33701,-0.59615 -0.33701,-0.97861c0,-0.38245 0.1291,-0.72805 0.33701,-0.9787c0.20792,-0.25056 0.49465,-0.40619 0.81195,-0.40619z" id="ID0.2271407265216112" fill="#ffffff" stroke-linecap="butt"/></g></g><g data-paper-data="{&quot;origPos&quot;:null}" stroke="none"><path d="M178.79143,158.67528l-0.93447,-1.20614l0.80994,-2.47586l1.43288,-0.63477h14.76488l6.47919,-14.91841l1.43288,-1.20615l1.43288,0.06341l1.74432,1.33313l6.97752,14.53753l14.95186,-0.2539l1.49524,0.88876l1.18363,1.46012l-1.18363,2.60277l-8.53503,10.09376l2.49197,15.29928l0.12454,2.41228l-1.55742,0.82525l-2.74123,-0.50779l-14.32883,-10.15726l-12.21064,11.4269l-2.74114,0.50787l-1.99365,-1.07924l-0.68522,-2.98365l1.43288,-14.22014z" data-paper-data="{&quot;origPos&quot;:null}" id="ID0.3117544511333108" fill="url(#color-22)" stroke-width="1.43627" stroke-linecap="round"/><path d="M181.69128,159.41584l-0.83682,-1.05997l0.72525,-2.1759l1.28321,-0.55788h13.22253l5.80229,-13.11096l1.28321,-1.06006l1.28321,0.05579l1.56215,1.17163l6.2486,12.77623l13.38998,-0.22315l1.33899,0.78104l1.05997,1.28321l-1.05997,2.28748l-7.64347,8.8708l2.23169,13.44568l0.11158,2.12011l-1.39479,0.72525l-2.45484,-0.4463l-12.83202,-8.9266l-10.93505,10.04244l-2.45484,0.4463l-1.7853,-0.94848l-0.61366,-2.6222l1.28312,-12.4972z" data-paper-data="{&quot;origPos&quot;:null}" id="ID0.3117544511333108" fill="url(#color-23)" stroke-width="1.27408" stroke-linecap="round"/><g data-paper-data="{&quot;origPos&quot;:null}" id="ID0.4398073833435774" stroke-width="2.7674"><path d="M207.85221,158.06363c0.61498,-0.02373 1.22787,0.48537 1.48605,1.11322c0.46838,1.13949 0.51873,2.49802 0.4837,3.76686c-0.02408,1.1712 -0.2101,2.38198 -0.65658,3.42926c-0.25608,0.61463 -0.7178,1.32419 -1.31316,1.31894c-0.57338,-0.00526 -1.06146,-0.44849 -1.37656,-1.24511c-0.40269,-1.00769 -0.59309,-2.21584 -0.59309,-3.63498c0,-1.41923 0.1466,-2.57982 0.59309,-3.63497c0.29322,-0.69644 0.85354,-1.13695 1.37656,-1.11322z" id="ID0.6670762049034238" fill="url(#color-24)" stroke-linecap="round"/><path d="M207.94786,158.80962c0.31739,0 0.60403,0.15563 0.81195,0.40619c0.20792,0.25065 0.33709,0.59624 0.33709,0.9787c0,0.38245 -0.12918,0.72805 -0.33709,0.97861c-0.20792,0.25065 -0.49456,0.40628 -0.81195,0.40628c-0.3173,0 -0.60403,-0.15563 -0.81195,-0.40628c-0.20792,-0.25056 -0.337,-0.59615 -0.337,-0.97861c0,-0.38245 0.12909,-0.72805 0.337,-0.9787c0.20792,-0.25056 0.49465,-0.40619 0.81195,-0.40619z" id="ID0.2271407265216112" fill="#ffffff" stroke-linecap="butt"/></g><g data-paper-data="{&quot;origPos&quot;:null}" id="ID0.4398073833435774" stroke-width="2.7674"><path d="M199.75114,158.01984c0.61498,-0.02373 1.22786,0.48536 1.48604,1.11322c0.46838,1.13949 0.51874,2.49802 0.48371,3.76686c-0.02408,1.1712 -0.21011,2.38197 -0.65658,3.42925c-0.25608,0.61463 -0.71779,1.3242 -1.31316,1.31895c-0.57338,-0.00526 -1.06147,-0.44849 -1.37657,-1.24511c-0.40269,-1.00769 -0.59309,-2.21584 -0.59309,-3.63498c0,-1.41923 0.1466,-2.57982 0.59309,-3.63497c0.29322,-0.69644 0.85355,-1.13695 1.37657,-1.11322z" id="ID0.6670762049034238" fill="url(#color-25)" stroke-linecap="round"/><path d="M199.89058,158.72204c0.31739,0 0.60403,0.15563 0.81194,0.40619c0.20792,0.25065 0.33709,0.59624 0.33709,0.9787c0,0.38245 -0.12919,0.72805 -0.33709,0.97861c-0.20792,0.25065 -0.49456,0.40628 -0.81194,0.40628c-0.3173,0 -0.60403,-0.15563 -0.81195,-0.40628c-0.20792,-0.25056 -0.33701,-0.59615 -0.33701,-0.97861c0,-0.38245 0.1291,-0.72805 0.33701,-0.9787c0.20792,-0.25056 0.49465,-0.40619 0.81195,-0.40619z" id="ID0.2271407265216112" fill="#ffffff" stroke-linecap="butt"/></g></g><g data-paper-data="{&quot;origPos&quot;:null}" id="ID0.4398073833435774" stroke="none" stroke-width="2.7674"><path d="M242.35221,135.06363c0.61498,-0.02373 1.22787,0.48537 1.48605,1.11322c0.46838,1.13949 0.51873,2.49802 0.4837,3.76686c-0.02408,1.1712 -0.2101,2.38198 -0.65658,3.42926c-0.25608,0.61463 -0.7178,1.32419 -1.31316,1.31894c-0.57338,-0.00526 -1.06146,-0.44849 -1.37656,-1.24511c-0.40269,-1.00769 -0.59309,-2.21584 -0.59309,-3.63498c0,-1.41923 0.1466,-2.57982 0.59309,-3.63497c0.29322,-0.69644 0.85354,-1.13695 1.37656,-1.11322z" id="ID0.6670762049034238" fill="url(#color-26)" stroke-linecap="round"/><path d="M242.44786,135.80962c0.31739,0 0.60403,0.15563 0.81195,0.40619c0.20792,0.25065 0.33709,0.59624 0.33709,0.9787c0,0.38245 -0.12918,0.72805 -0.33709,0.97861c-0.20792,0.25065 -0.49456,0.40628 -0.81195,0.40628c-0.3173,0 -0.60403,-0.15563 -0.81195,-0.40628c-0.20792,-0.25056 -0.337,-0.59615 -0.337,-0.97861c0,-0.38245 0.12909,-0.72805 0.337,-0.9787c0.20792,-0.25056 0.49465,-0.40619 0.81195,-0.40619z" id="ID0.2271407265216112" fill="#ffffff" stroke-linecap="butt"/></g><g data-paper-data="{&quot;origPos&quot;:null}" id="ID0.4398073833435774" stroke="none" stroke-width="2.7674"><path d="M234.25114,135.01984c0.61498,-0.02373 1.22786,0.48536 1.48604,1.11322c0.46838,1.13949 0.51874,2.49802 0.48371,3.76686c-0.02408,1.1712 -0.21011,2.38197 -0.65658,3.42925c-0.25608,0.61463 -0.71779,1.3242 -1.31316,1.31895c-0.57338,-0.00526 -1.06147,-0.44849 -1.37657,-1.24511c-0.40269,-1.00769 -0.59309,-2.21584 -0.59309,-3.63498c0,-1.41923 0.1466,-2.57982 0.59309,-3.63497c0.29322,-0.69644 0.85355,-1.13695 1.37657,-1.11322z" id="ID0.6670762049034238" fill="url(#color-27)" stroke-linecap="round"/><path d="M234.39058,135.72204c0.31739,0 0.60403,0.15563 0.81194,0.40619c0.20792,0.25065 0.33709,0.59624 0.33709,0.9787c0,0.38245 -0.12919,0.72805 -0.33709,0.97861c-0.20792,0.25065 -0.49456,0.40628 -0.81194,0.40628c-0.3173,0 -0.60403,-0.15563 -0.81195,-0.40628c-0.20792,-0.25056 -0.33701,-0.59615 -0.33701,-0.97861c0,-0.38245 0.1291,-0.72805 0.33701,-0.9787c0.20792,-0.25056 0.49465,-0.40619 0.81195,-0.40619z" id="ID0.2271407265216112" fill="#ffffff" stroke-linecap="butt"/></g></g></g></svg>