<svg version="1.1" xmlns="http://www.w3.org/2000/svg" xmlns:xlink="http://www.w3.org/1999/xlink" width="441.55828" height="69.66968" viewBox="0,0,441.55828,69.66968"><defs><linearGradient x1="24.5327" y1="284.2076" x2="24.5327" y2="341.819" gradientUnits="userSpaceOnUse" id="color-1"><stop offset="0" stop-color="#ffffff"/><stop offset="1" stop-color="#ffffff"/></linearGradient><radialGradient cx="433.55778" cy="324.91029" r="18.72682" gradientUnits="userSpaceOnUse" id="color-2"><stop offset="0" stop-color="#ffff00"/><stop offset="1" stop-color="#ff9400"/></radialGradient><radialGradient cx="437.13623" cy="326.02495" r="12.81669" gradientUnits="userSpaceOnUse" id="color-3"><stop offset="0" stop-color="#bda501"/><stop offset="1" stop-color="#c07801"/></radialGradient></defs><g transform="translate(-18.50356,-278.17846)"><g data-paper-data="{&quot;isPaintingLayer&quot;:true}" fill="none" fill-rule="nonzero" stroke="none" stroke-width="none" stroke-linecap="butt" stroke-linejoin="miter" stroke-miterlimit="10" stroke-dasharray="" stroke-dashoffset="0" font-family="none" font-weight="none" font-size="none" text-anchor="none" style="mix-blend-mode: normal"><path d="M24.5327,284.2076h429.5v57.6114h-429.5z" data-paper-data="{&quot;origPos&quot;:null}" id="ID0.3184669064357877" fill="#ffffff" stroke="url(#color-1)" stroke-width="12.05828"/><text transform="translate(25.78827,322.12447) scale(0.7218,0.72179)" font-size="22" xml:space="preserve" data-paper-data="{&quot;origPos&quot;:null}" id="ID0.08681221166625619" fill="#2492d1" fill-rule="nonzero" stroke="none" stroke-width="1" stroke-linecap="butt" stroke-linejoin="miter" stroke-miterlimit="10" stroke-dasharray="" stroke-dashoffset="0" font-family="Sans Serif" font-weight="400" text-anchor="start" style="mix-blend-mode: normal"><tspan x="0" dy="0">Switch to Luigi.</tspan></text><g data-paper-data="{&quot;origPos&quot;:null}" id="text32" fill="#2392d1" stroke="none" stroke-width="0.26458"><path d="M30.96142,285.65998c4.49837,0.64842 6.97856,1.02935 7.44056,1.14283c0,0.06484 1.54809,4.70505 4.64427,13.92064c-0.3242,0.12158 -2.19246,0.35663 -5.60473,0.70516c-0.23505,-0.7943 -0.49847,-2.02224 -0.79026,-3.68381c-2.91787,0.26748 -4.37679,0.50253 -4.37679,0.70515l-0.79027,2.80844h-0.0851c-3.4447,-0.6322 -5.16706,-1.01314 -5.16706,-1.14283c2.74765,-8.59149 4.32411,-13.41002 4.72938,-14.45558zM33.32002,294.07315h2.63823l-0.97261,-3.85401c-0.75378,0 -1.13067,0.14588 -1.13067,0.43767c-0.12158,0.59168 -0.29989,1.73045 -0.53494,3.41634z" id="path756"/><path d="M46.00059,284.40772l4.778,0.75378c-0.59977,2.29376 -0.99288,3.44064 -1.17929,3.44064c-2.51262,-0.17022 -3.76891,-0.33637 -3.76891,-0.49847v-3.52575c0.02431,-0.11348 0.08105,-0.17022 0.17022,-0.17022zM44.66323,290.19483h0.07295c3.69597,0.67273 5.54393,1.06584 5.54393,1.1793c-1.06178,6.01404 -1.70614,9.36554 -1.93309,10.05448h-3.85401c-0.11348,0 -0.17022,-0.05674 -0.17022,-0.17022z" id="path758"/><path d="M64.68708,289.28299c1.97765,0.81863 3.6838,1.58862 5.11842,2.30997c-0.37284,4.82259 -0.61195,7.46081 -0.71731,7.9147c-2.38293,0.59168 -3.71622,0.88753 -3.99992,0.88753c0,-1.05368 -0.08105,-3.13266 -0.24315,-6.23693c-0.89968,0.08915 -1.34951,0.16616 -1.34951,0.23099c0,0.308 0.05268,2.06682 0.15804,5.27647c0.04864,0 0.07295,0.02837 0.07295,0.08511c0,0.09727 -1.25225,0.36472 -3.75674,0.80242c-0.10538,-0.12969 -0.42552,-2.10329 -0.96046,-5.92083c-1.01314,0.25936 -1.51973,0.44579 -1.51973,0.55925l0.48632,4.96037c-0.09727,0.10536 -1.43056,0.53088 -3.99992,1.27656c-1.49136,-5.27647 -2.42345,-8.81844 -2.79629,-10.62588c2.8125,-0.69704 4.38491,-1.04557 4.71722,-1.04557c0.37284,1.47514 0.55925,2.32619 0.55925,2.55314h0.08511c1.36978,-1.2644 2.32619,-2.11544 2.86924,-2.55314h0.0851l2.55314,1.83583h0.08511c1.59672,-1.53998 2.44776,-2.30997 2.55314,-2.30997z" id="path760"/><path d="M82.25505,285.61135c0.42958,0.04864 1.99387,0.40931 4.69289,1.08203l0.07295,0.14589c-0.39715,2.21271 -0.63626,3.31907 -0.71731,3.31907h-0.07295l-1.9574,-1.00908c0,0.22695 -0.07295,1.2401 -0.21884,3.03944l2.67471,-0.65652c0.08105,0.24315 0.154,1.3252 0.21884,3.24612c-0.25936,0.09727 -1.15092,0.24315 -2.67471,0.43768c0.34041,1.45893 0.7011,3.24206 1.08203,5.34943c-1.24819,0.28367 -2.73955,0.57141 -4.47406,0.8632l-0.07295,-0.14589c-0.22695,-3.75269 -0.41742,-5.62904 -0.57141,-5.62904c-1.57241,0.38094 -2.41535,0.59574 -2.52881,0.64436c-0.09727,-0.4701 -0.26746,-1.74666 -0.51063,-3.8297l0.14588,-0.07295h2.60176c-0.14588,-1.19957 -0.36472,-2.76386 -0.65651,-4.69289z" id="path762"/><path d="M93.039,289.29515c3.07996,0.82673 4.71316,1.32924 4.89957,1.50757c1.69398,2.39914 2.64634,3.78106 2.85709,4.1458c-1.09421,3.46902 -1.72235,5.20352 -1.88445,5.20352c-3.64733,0.85104 -5.55611,1.27656 -5.72631,1.27656c-3.01512,-1.75882 -4.61996,-2.73955 -4.81447,-2.94218c-0.10538,-3.27449 -0.15806,-5.08194 -0.15806,-5.42236c-0.04864,-0.09727 -0.07295,-0.1702 -0.07295,-0.21884c3.11239,-2.36671 4.72127,-3.55007 4.82663,-3.55007zM92.808,293.74489c-0.04864,0.3242 -0.12158,1.50351 -0.21884,3.53791l2.71118,0.60789c0.64842,-2.02629 0.97261,-3.10833 0.97261,-3.24612c-2.15597,-0.64842 -3.31097,-0.97261 -3.46495,-0.97261z" id="path764"/><path d="M110.6313,289.28299c1.60482,0.89968 2.5896,1.48324 2.95433,1.75072c-1.31304,2.73145 -2.01818,4.12149 -2.11544,4.17011h-0.08511l-1.73854,-1.51973l-2.05467,2.5045l0.23099,4.55917c-0.10536,0.09727 -1.44678,0.3242 -4.02423,0.68082c-0.09727,-0.69704 -0.72946,-4.11337 -1.89661,-10.249c0,-0.09727 1.69398,-0.34851 5.08195,-0.75378c0.05674,0.06484 0.21074,0.82267 0.46201,2.27351c2.02629,-2.27756 3.08807,-3.41634 3.18534,-3.41634z" id="path766"/><path d="M124.35742,285.61135l5.34943,0.94831l-0.51063,4.06069c1.06178,-0.05674 1.83987,-0.0851 2.3343,-0.0851h0.77809l0.17021,-0.08511l0.08511,0.17021c-0.17022,2.46397 -0.3161,3.84995 -0.43767,4.15796l-0.17022,-0.09726c-0.12158,0 -1.21578,-0.05674 -3.2826,-0.17022c-0.11348,1.90472 -0.19859,4.18227 -0.2553,6.83267l-0.17022,0.08511c-2.60986,-0.17022 -4.16605,-0.3161 -4.66858,-0.43768l0.08511,-0.34041c0,-0.70516 0.11347,-2.89355 0.34041,-6.56519c-2.1884,-0.12158 -3.2826,-0.26748 -3.2826,-0.43767c0.11348,-2.70712 0.25936,-4.0607 0.43767,-4.0607l3.1975,0.60789v-1.04557c0,-0.85104 -0.03243,-2.00199 -0.09727,-3.4528c0.06484,0 0.09727,-0.02836 0.09727,-0.0851z" id="path768"/><path d="M139.29931,285.61135c0.04864,0.07295 0.27557,2.29376 0.68082,6.66245c3.1286,-0.95642 4.79422,-1.43462 4.99684,-1.43462l3.10023,2.11545c-0.50253,4.61994 -0.83078,7.31897 -0.98479,8.09707l-4.30384,0.14588c0,-0.04864 -0.02837,-0.07295 -0.08511,-0.07295l0.08511,-0.30395c0,-0.65652 0.09727,-2.6504 0.29179,-5.98163c-1.18335,-0.04864 -2.06276,-0.07295 -2.63823,-0.07295h-0.30395c0.34853,3.70406 0.52278,5.72226 0.52278,6.05456l-4.085,0.60789c-0.154,-0.51873 -1.06178,-5.36158 -2.72334,-14.52853c0,-0.25936 0.6322,-0.46199 1.89661,-0.60789c1.59672,-0.45389 2.78008,-0.68082 3.55007,-0.68082z" id="path770"/><path d="M156.1135,289.29515c3.67164,1.88851 5.70605,2.99081 6.1032,3.30691c-0.52684,2.46397 -0.83888,3.73244 -0.93615,3.80539h-7.68371v0.13373l2.15193,2.66256l3.37987,-1.72641c0.33231,0.57546 0.81052,1.5805 1.43462,3.01512c-0.29179,0.09727 -2.41939,0.40931 -6.38284,0.93615c-3.2826,-2.16408 -4.93606,-3.2907 -4.96037,-3.37985c0.52684,-4.2066 0.83888,-6.30989 0.93614,-6.30989c3.42849,-1.45893 5.41426,-2.2735 5.9573,-2.44372zM155.32327,292.23734c-0.06484,0.1621 -0.49441,0.80645 -1.28874,1.93309c0,0.34041 0.4782,0.51063 1.43462,0.51063c0,0.04864 0.693,0.16616 2.07898,0.35257c0.38094,-0.52684 0.57141,-0.83483 0.57141,-0.92399c-0.12158,-0.72137 -0.385,-1.08203 -0.79027,-1.08203z" id="path772"/><path d="M179.05522,285.61135c2.91787,1.47514 4.41732,2.21271 4.49837,2.21271c0,0.12969 -0.60789,1.30089 -1.82368,3.5136h-0.08511c-0.09727,0 -1.49542,-0.66057 -4.19442,-1.98172l-1.37382,1.83583c2.32619,1.11852 5.15084,2.54503 8.47397,4.27953c-1.50757,2.68281 -2.57745,4.46596 -3.20965,5.34943l-6.86914,0.60789c-3.1367,-2.11544 -4.79422,-3.20965 -4.97253,-3.2826v-0.08511c0,-0.22695 0.63626,-1.26846 1.90876,-3.12455h0.15806c0.50253,0.29989 2.07897,1.16309 4.72938,2.58961l1.60483,-1.82368c-4.87121,-2.48019 -7.57023,-3.88238 -8.09707,-4.2066v-0.07295c1.5481,-3.01512 2.39102,-4.54295 2.52881,-4.58347c4.02827,-0.81863 6.26936,-1.22794 6.72325,-1.22794z" id="path774"/><path d="M191.20084,285.61135c0.11348,0.3242 0.36878,2.62204 0.76593,6.89345l3.64733,-4.08501h0.0851c0.56737,0.4701 1.617,1.46299 3.14886,2.97866v0.0851l-3.48929,2.8814c2.62608,1.75882 4.01611,2.75171 4.17011,2.97866c-1.65346,1.83987 -2.64634,2.88949 -2.97866,3.14885l-4.24306,-3.91481c0.17022,1.75072 0.2553,3.05565 0.2553,3.91481c-0.20262,0.11348 -1.70614,0.42552 -4.51053,0.93615c-0.22695,-1.13473 -0.96452,-6.01 -2.21271,-14.6258c0.51873,-0.17022 2.30593,-0.56736 5.36158,-1.19145z" id="path776"/><path d="M206.16706,289.30732c0.11348,0.01621 0.17022,0.07295 0.17022,0.17022l-1.2644,7.00288c2.41535,-0.28367 3.62302,-0.51063 3.62302,-0.68082c0.45389,-2.80439 0.76593,-4.3768 0.93614,-4.71721c2.99081,0.61599 4.64831,0.98074 4.97253,1.09421c-1.7426,5.98973 -2.69902,9.11021 -2.86924,9.36148c-3.04755,2.13977 -4.76179,3.32313 -5.14273,3.55007c-0.11348,0 -2.05467,-0.4782 -5.82357,-1.43462v-0.08511c0.99695,-2.19651 1.61699,-3.29476 1.86014,-3.29476l3.70813,1.86014l1.77503,-3.03944c-1.59672,0.39715 -2.52477,0.59574 -2.78413,0.59574l-4.72938,-2.45588c0.57546,-5.28457 0.94021,-7.92686 1.09421,-7.92686z" id="path778"/></g><g stroke="none"><text transform="translate(283,338.98128) scale(0.60677,0.60677)" font-size="40" xml:space="preserve" data-paper-data="{&quot;origPos&quot;:null}" fill="#2392d1" fill-rule="nonzero" stroke="none" stroke-width="1" stroke-linecap="butt" stroke-linejoin="miter" stroke-miterlimit="10" stroke-dasharray="" stroke-dashoffset="0" font-family="Sans Serif" font-weight="normal" text-anchor="start" style="mix-blend-mode: normal"><tspan x="0" dy="0">Reward:   +5</tspan></text><path d="M438.22633,321.71811c2.42757,0 4.62707,0.98611 6.21986,2.5789c1.5928,1.59272 2.57884,3.79221 2.57884,6.21979c0,2.4275 -0.98603,4.62709 -2.57884,6.21981c-1.5928,1.5928 -3.79229,2.5789 -6.21986,2.5789c-2.4275,0 -4.62699,-0.98611 -6.2198,-2.5789c-1.5928,-1.59272 -2.5789,-3.79231 -2.5789,-6.21981c0,-2.42757 0.98611,-4.62706 2.5789,-6.21979c1.5928,-1.5928 3.7923,-2.5789 6.2198,-2.5789z" data-paper-data="{&quot;origPos&quot;:null}" id="ID0.7142658131197095" fill="url(#color-2)" stroke-width="0.48028"/><path d="M436.38196,323.73549h3.47092v13.31086h-3.47092z" data-paper-data="{&quot;origPos&quot;:null}" id="ID0.06001657713204622" fill="url(#color-3)" stroke-width="0.59798"/></g></g></g></svg>