<svg version="1.1" xmlns="http://www.w3.org/2000/svg" xmlns:xlink="http://www.w3.org/1999/xlink" width="437" height="90.79587" viewBox="0,0,437,90.79587"><defs><linearGradient x1="239.96075" y1="135.56279" x2="239.96075" y2="224.35867" gradientUnits="userSpaceOnUse" id="color-1"><stop offset="0" stop-color="#ffffff"/><stop offset="1" stop-color="#d8d8d8"/></linearGradient><linearGradient x1="239.96075" y1="135.5628" x2="239.96075" y2="224.35867" gradientUnits="userSpaceOnUse" id="color-2"><stop offset="0" stop-color="#343434"/><stop offset="1" stop-color="#090909"/></linearGradient><radialGradient cx="443.76725" cy="206.50539" r="17.9081" gradientUnits="userSpaceOnUse" id="color-3"><stop offset="0" stop-color="#ffffff"/><stop offset="1" stop-color="#e5e5e5"/></radialGradient></defs><g transform="translate(-21.46075,-134.5628)"><g data-paper-data="{&quot;isPaintingLayer&quot;:true}" fill-rule="nonzero" stroke-linejoin="miter" stroke-miterlimit="10" stroke-dasharray="" stroke-dashoffset="0" style="mix-blend-mode: normal"><path d="M22.46075,224.35867v-88.79587h435v88.79587z" data-paper-data="{&quot;origPos&quot;:null}" fill="url(#color-1)" stroke="url(#color-2)" stroke-width="2" stroke-linecap="butt"/><g data-paper-data="{&quot;origPos&quot;:null}"><path d="M444.26655,202.0594c2.5136,0 4.7909,1.0212 6.4406,2.6702c1.6489,1.6496 2.6702,3.9269 2.6702,6.4405c0,2.5136 -1.0213,4.791 -2.6702,6.4406c-1.6497,1.649 -3.927,2.6702 -6.4406,2.6702c-2.5136,0 -4.7909,-1.0212 -6.4406,-2.6702c-1.6489,-1.6496 -2.6701,-3.927 -2.6701,-6.4406c0,-2.5136 1.0212,-4.7909 2.6701,-6.4405c1.6497,-1.649 3.927,-2.6702 6.4406,-2.6702z" fill="url(#color-3)" stroke="#000000" stroke-width="2.0785" stroke-linecap="butt"/><path d="M441.23415,206.50959l5.6119,0.4503l1.7321,3.187l-3.6374,2.9446l3.3603,-0.5197l0.7967,3.4642l-7.4479,-0.0693l-1.9053,-2.4249l4.6766,-3.3256l-4.5727,-0.3464z" fill="#000000" stroke="none" stroke-width="0.69283" stroke-linecap="round"/></g><path d="M36.15223,148.76421c2.45739,0.54879 3.82327,0.86282 4.09766,0.94209v0.06402c-0.08537,2.20127 -0.1494,3.4818 -0.19207,3.84156c0.14024,0 0.77137,0.14634 1.89334,0.43903c1.00613,-3.10373 1.55187,-4.6556 1.63724,-4.6556c1.68297,0.75612 2.75312,1.25917 3.21045,1.50918v0.06401c-1.84761,4.29889 -2.89641,6.67091 -3.14642,7.11604c-0.46343,0.38416 -2.07932,1.85372 -4.84768,4.40866h-0.06403l-5.10379,-2.51532c0.46953,-0.80489 1.03661,-1.7287 1.70126,-2.77141c0.03049,0 0.82929,0.5244 2.39641,1.57321h0.06403c0.5244,-0.42685 1.15247,-1.03661 1.88419,-1.82931c0,-0.03658 -1.19516,-1.2104 -3.58546,-3.52143v-4.53672z" data-paper-data="{&quot;origPos&quot;:null}" fill="#000000" stroke="none" stroke-width="0.26458" stroke-linecap="butt"/><path d="M51.4819,151.53562c2.31713,0.62197 3.54582,1.00004 3.68606,1.13419c1.27442,1.80491 1.99091,2.84458 2.14945,3.11899c-0.8232,2.60983 -1.29577,3.91473 -1.41772,3.91473c-2.74397,0.64026 -4.17999,0.96039 -4.30804,0.96039c-2.26835,-1.3232 -3.47571,-2.06103 -3.62204,-2.21347c-0.07926,-2.46348 -0.1189,-3.82327 -0.1189,-4.07937c-0.03658,-0.07316 -0.05488,-0.12804 -0.05488,-0.16465c2.34152,-1.78053 3.55192,-2.6708 3.6312,-2.6708zM51.30812,154.88327c-0.03658,0.24392 -0.09146,1.13113 -0.16463,2.66165l2.03968,0.45733c0.48782,-1.52443 0.73172,-2.33848 0.73172,-2.44214c-1.62199,-0.48782 -2.49092,-0.73173 -2.60677,-0.73173z" data-paper-data="{&quot;origPos&quot;:null}" fill="#000000" stroke="none" stroke-width="0.26458" stroke-linecap="butt"/><path d="M63.08891,151.52648l0.06403,0.11888l-1.23479,6.54895h0.06403l3.14641,-0.9238v-3.70438c0.0122,-0.08535 0.05183,-0.12802 0.1189,-0.12802c2.36592,0.16463 3.68303,0.24696 3.95133,0.24696c0,0.04267 0.02134,0.06401 0.06403,0.06401c0,1.04271 -0.32928,3.20435 -0.98784,6.48492c0,0.18902 -0.94515,0.33231 -2.83543,0.42989c-0.09757,-0.11586 -0.17989,-0.36282 -0.24695,-0.74086c-2.42079,0.49391 -3.80193,0.74086 -4.1434,0.74086c-1.93297,-1.43906 -2.89946,-2.17993 -2.89946,-2.22262c0.32928,-4.32328 0.5366,-6.56724 0.62197,-6.73189h0.05488c1.54272,-0.04267 2.96349,-0.10365 4.26231,-0.18293z" data-paper-data="{&quot;origPos&quot;:null}" fill="#000000" stroke="none" stroke-width="0.26458" stroke-linecap="butt"/><path d="M78.42772,151.53562c2.75008,0.5183 4.18914,0.81405 4.31718,0.88723v0.10974c-0.59148,1.67078 -0.88721,2.53665 -0.88721,2.59762h-0.05488c-0.15244,0 -0.89026,-0.23781 -2.21346,-0.71343c-0.73783,1.23784 -1.10674,1.89944 -1.10674,1.98481l1.82931,1.77443c1.41466,-1.3293 2.1342,-1.99394 2.1586,-1.99394c1.10368,1.44516 1.65552,2.25616 1.65552,2.43299c-0.60368,0.34758 -1.65552,1.03052 -3.15556,2.04883c-2.90252,-0.62806 -4.46963,-0.97868 -4.70134,-1.05185l-1.436,-4.64647z" data-paper-data="{&quot;origPos&quot;:null}" fill="#000000" stroke="none" stroke-width="0.26458" stroke-linecap="butt"/><path d="M86.43098,151.52648c3.62204,0.50002 5.43308,0.80795 5.43308,0.92381c1.42686,1.22564 2.14029,1.88115 2.14029,1.96651c-0.57928,1.81102 -0.90855,2.91166 -0.98783,3.30191c0.57928,1.28662 0.90855,2.05494 0.98783,2.30494c0,0.07316 -0.94515,0.26828 -2.83544,0.58539c-0.02439,-0.10366 -0.19818,-0.33538 -0.52136,-0.69514c-2.60983,0.5 -4.01534,0.75001 -4.21658,0.75001l-1.39028,-3.75924l3.0641,-1.61894c0.49391,0.07925 1.26528,0.11888 2.31409,0.11888c0,-0.13415 0.01829,-0.53965 0.05488,-1.2165c-0.17683,0 -1.75614,0.11586 -4.73794,0.34758l-0.05488,-0.11889c0.41464,-1.92688 0.66465,-2.89032 0.75002,-2.89032zM88.33347,156.90467c0,0.06707 0.19513,0.7805 0.58537,2.14029h0.05488c0.76832,-0.5 1.15247,-0.82927 1.15247,-0.98782l0.11892,-0.97869c-0.14634,0 -0.78356,-0.05792 -1.91163,-0.17378z" data-paper-data="{&quot;origPos&quot;:null}" fill="#000000" stroke="none" stroke-width="0.26458" stroke-linecap="butt"/><path d="M103.00458,151.52648l3.04581,2.09457c-0.21341,3.47571 -0.36281,5.50625 -0.44818,6.09162c-0.35367,0.04267 -1.42992,0.1067 -3.22874,0.19207l-0.06403,-0.12803l-0.32013,-4.88428l-0.12806,-0.06401c-1.16467,0.25001 -1.96651,0.43904 -2.40555,0.5671c0.12195,2.07932 0.18292,3.58241 0.18292,4.50925c-1.81713,0.50611 -2.81105,0.75917 -2.98178,0.75917c-1.18296,-5.20745 -1.77444,-7.95753 -1.77444,-8.25021c2.57325,-0.33538 3.96962,-0.50307 4.18914,-0.50307v0.06401c0.04269,0.03049 0.10672,0.66464 0.19207,1.90249c2.35981,-1.56712 3.6068,-2.35067 3.74095,-2.35067z" data-paper-data="{&quot;origPos&quot;:null}" fill="#000000" stroke="none" stroke-width="0.26458" stroke-linecap="butt"/><path d="M119.72453,151.52648l3.04581,2.09457c-0.21341,3.47571 -0.36281,5.50625 -0.44818,6.09162c-0.35367,0.04267 -1.42992,0.1067 -3.22874,0.19207l-0.06403,-0.12803l-0.32013,-4.88428l-0.12806,-0.06401c-1.16467,0.25001 -1.96651,0.43904 -2.40555,0.5671c0.12195,2.07932 0.18292,3.58241 0.18292,4.50925c-1.81713,0.50611 -2.81105,0.75917 -2.98178,0.75917c-1.18296,-5.20745 -1.77444,-7.95753 -1.77444,-8.25021c2.57325,-0.33538 3.96962,-0.50307 4.18914,-0.50307v0.06401c0.04269,0.03049 0.10671,0.66464 0.19207,1.90249c2.35981,-1.56712 3.6068,-2.35067 3.74095,-2.35067z" data-paper-data="{&quot;origPos&quot;:null}" fill="#000000" stroke="none" stroke-width="0.26458" stroke-linecap="butt"/><path d="M127.36192,151.53562c2.31713,0.62197 3.54583,1.00004 3.68607,1.13419c1.27442,1.80491 1.9909,2.84458 2.14945,3.11899c-0.8232,2.60983 -1.29576,3.91473 -1.41771,3.91473c-2.74397,0.64026 -4.17999,0.96039 -4.30804,0.96039c-2.26835,-1.3232 -3.4757,-2.06103 -3.62204,-2.21347c-0.07928,-2.46348 -0.11892,-3.82327 -0.11892,-4.07937c-0.0366,-0.07316 -0.05488,-0.12804 -0.05488,-0.16465c2.34153,-1.78053 3.55192,-2.6708 3.6312,-2.6708zM127.18814,154.88327c-0.0366,0.24392 -0.09146,1.13113 -0.16464,2.66165l2.03968,0.45733c0.48782,-1.52443 0.73173,-2.33848 0.73173,-2.44214c-1.62199,-0.48782 -2.49093,-0.73173 -2.60677,-0.73173z" data-paper-data="{&quot;origPos&quot;:null}" fill="#000000" stroke="none" stroke-width="0.26458" stroke-linecap="butt"/><path d="M138.04513,151.52648c0.07928,0.10366 0.49087,1.872 1.23479,5.30502h0.06403c0,-0.07925 0.45122,-0.77745 1.35369,-2.09457c0.37807,0.2561 1.09759,0.811 2.1586,1.66469h0.12805v-0.06401c0.16464,-2.37812 0.28659,-3.69522 0.36587,-3.95132c2.51227,0.12806 3.76838,0.23172 3.76838,0.31098c-1.15248,4.63427 -1.76834,7.04286 -1.84761,7.2258c-0.38416,0.04267 -1.18905,0.16463 -2.41469,0.36586c-1.00612,-1.5793 -1.58236,-2.42079 -1.72871,-2.52445c-0.65855,1.75615 -1.07015,2.72263 -1.23479,2.89947h-2.46958c-0.15244,-0.04877 -0.87198,-1.63419 -2.1586,-4.75623c-0.8232,-1.74394 -1.23479,-2.68909 -1.23479,-2.83543c0,-0.13415 1.33845,-0.64941 4.01534,-1.54577z" data-paper-data="{&quot;origPos&quot;:null}" fill="#000000" stroke="none" stroke-width="0.26458" stroke-linecap="butt"/><path d="M156.31999,151.52648c1.49394,3.42692 2.28969,5.20441 2.38725,5.33245c0.73782,-2.79884 1.16771,-4.28973 1.28967,-4.47267c2.32933,0.21341 3.494,0.39635 3.494,0.54879v0.06401c-1.63419,4.48793 -2.51227,6.83859 -2.63422,7.05201c-1.80493,0.32929 -3.01227,0.53356 -3.62204,0.61283l-4.47268,-6.62213v-0.12802c0.04269,-0.07925 1.2287,-0.87502 3.55803,-2.38727z" data-paper-data="{&quot;origPos&quot;:null}" fill="#000000" stroke="none" stroke-width="0.26458" stroke-linecap="butt"/><path d="M165.73182,147.8587l3.59461,0.56708c-0.45122,1.72566 -0.74697,2.5885 -0.88721,2.5885c-1.8903,-0.12806 -2.83543,-0.25306 -2.83543,-0.37501v-2.65251c0.01829,-0.08535 0.06098,-0.12803 0.12806,-0.12803zM164.72571,152.21248h0.05488c2.78056,0.50611 4.17084,0.80186 4.17084,0.88721c-0.7988,4.5245 -1.28357,7.04592 -1.45431,7.56422h-2.89946c-0.08537,0 -0.12805,-0.04267 -0.12805,-0.12803z" data-paper-data="{&quot;origPos&quot;:null}" fill="#000000" stroke="none" stroke-width="0.26458" stroke-linecap="butt"/><path d="M177.00956,151.52648c1.75614,1.12198 2.72568,1.76835 2.9086,1.93908c-0.63416,1.40857 -0.99697,2.11286 -1.08844,2.11286l-3.32936,-1.92993h-0.1189c0,0.06096 -0.14329,0.40243 -0.42988,1.02441c3.06716,1.65249 4.60073,2.50007 4.60073,2.54275c-0.85978,1.98786 -1.34455,3.03667 -1.45432,3.14642l-5.2044,0.30184c-2.02445,-1.3415 -3.1129,-2.04883 -3.26534,-2.12201v-0.05487c0,-0.15244 0.30184,-0.83844 0.90552,-2.05797l4.06108,2.11286l0.30184,-1.20734c-2.51227,-1.12808 -4.0062,-1.83238 -4.48182,-2.11288v-0.12803c0,-0.23172 0.48477,-1.25919 1.45432,-3.0824z" data-paper-data="{&quot;origPos&quot;:null}" fill="#000000" stroke="none" stroke-width="0.26458" stroke-linecap="butt"/><path d="M182.08591,147.8587l3.59461,0.56708c-0.45122,1.72566 -0.74697,2.5885 -0.88721,2.5885c-1.8903,-0.12806 -2.83543,-0.25306 -2.83543,-0.37501v-2.65251c0.01829,-0.08535 0.06098,-0.12803 0.12806,-0.12803zM181.07978,152.21248h0.05489c2.78056,0.50611 4.17083,0.80186 4.17083,0.88721c-0.7988,4.5245 -1.28356,7.04592 -1.45431,7.56422h-2.89947c-0.08537,0 -0.12805,-0.04267 -0.12805,-0.12803z" data-paper-data="{&quot;origPos&quot;:null}" fill="#000000" stroke="none" stroke-width="0.26458" stroke-linecap="butt"/><path d="M188.71719,148.76421l4.0245,0.71343l-0.38415,3.05496c0.7988,-0.04267 1.38417,-0.06401 1.75614,-0.06401h0.58539l0.12806,-0.06401l0.06403,0.12802c-0.12805,1.8537 -0.23781,2.89643 -0.32927,3.12813l-0.12805,-0.07316c-0.09146,0 -0.91466,-0.04267 -2.46958,-0.12803c-0.08537,1.43295 -0.1494,3.14642 -0.19207,5.14037l-0.12806,0.06401c-1.96346,-0.12804 -3.13422,-0.23781 -3.51229,-0.32927l0.06403,-0.2561c0,-0.53051 0.08537,-2.17689 0.2561,-4.93917c-1.64639,-0.09145 -2.46958,-0.20121 -2.46958,-0.32927c0.08537,-2.03663 0.19512,-3.05496 0.32927,-3.05496l2.40556,0.45733v-0.7866c0,-0.64026 -0.0244,-1.50613 -0.07318,-2.59762c0.04878,0 0.07318,-0.02134 0.07318,-0.06401z" data-paper-data="{&quot;origPos&quot;:null}" fill="#000000" stroke="none" stroke-width="0.26458" stroke-linecap="butt"/><path d="M207.69633,148.76421c2.19519,1.10978 3.32327,1.66467 3.38424,1.66467c0,0.09754 -0.45734,0.97867 -1.37199,2.64337h-0.06401c-0.07316,0 -1.12501,-0.49696 -3.15556,-1.49089l-1.03356,1.38114c1.75005,0.84149 3.87509,1.91468 6.37516,3.21959c-1.13417,2.01834 -1.93906,3.35984 -2.4147,4.02448l-5.16781,0.45734c-2.35981,-1.5915 -3.6068,-2.41468 -3.74095,-2.46957v-0.06401c0,-0.17075 0.47867,-0.95429 1.43601,-2.35067h0.1189c0.37805,0.22561 1.56406,0.87502 3.55802,1.94822l1.20735,-1.372c-3.66473,-1.8659 -5.69527,-2.9208 -6.09162,-3.16472v-0.05487c1.16467,-2.26835 1.79884,-3.41777 1.9025,-3.44826c3.03056,-0.61588 4.71658,-0.92381 5.05804,-0.92381z" data-paper-data="{&quot;origPos&quot;:null}" fill="#2b70c2" stroke="none" stroke-width="0.26458" stroke-linecap="butt"/><path d="M216.81547,151.52648c0.07925,0.10366 0.49086,1.872 1.23479,5.30502h0.06402c0,-0.07925 0.45122,-0.77745 1.35368,-2.09457c0.37805,0.2561 1.09759,0.811 2.1586,1.66469h0.12803v-0.06401c0.16465,-2.37812 0.2866,-3.69522 0.36586,-3.95132c2.51226,0.12806 3.76839,0.23172 3.76839,0.31098c-1.15248,4.63427 -1.76833,7.04286 -1.8476,7.2258c-0.38416,0.04267 -1.18907,0.16463 -2.4147,0.36586c-1.00612,-1.5793 -1.58237,-2.42079 -1.7287,-2.52445c-0.65856,1.75615 -1.07015,2.72263 -1.23479,2.89947h-2.46958c-0.15244,-0.04877 -0.87198,-1.63419 -2.1586,-4.75623c-0.82318,-1.74394 -1.23478,-2.68909 -1.23478,-2.83543c0,-0.13415 1.33846,-0.64941 4.01534,-1.54577z" data-paper-data="{&quot;origPos&quot;:null}" fill="#2b70c2" stroke="none" stroke-width="0.26458" stroke-linecap="butt"/><path d="M232.07197,151.53562c2.76226,1.42077 4.29279,2.25006 4.59157,2.48787c-0.39634,1.8537 -0.63111,2.808 -0.70428,2.86289h-5.78064v0.10059l1.61895,2.00311l2.54275,-1.29882c0.25,0.43293 0.60976,1.18905 1.07928,2.26835c-0.21952,0.07316 -1.82017,0.30792 -4.80195,0.70429c-2.46958,-1.62809 -3.71352,-2.47568 -3.73181,-2.54274c0.39635,-3.16472 0.63112,-4.74708 0.70429,-4.74708c2.57933,-1.09759 4.07327,-1.71042 4.48183,-1.83847zM231.47744,153.74911c-0.04878,0.12195 -0.37195,0.60672 -0.96954,1.4543c0,0.2561 0.35976,0.38416 1.07928,0.38416c0,0.03658 0.52136,0.125 1.56407,0.26526c0.28661,-0.39636 0.42989,-0.62808 0.42989,-0.69514c-0.09145,-0.54271 -0.28963,-0.81405 -0.59453,-0.81405z" data-paper-data="{&quot;origPos&quot;:null}" fill="#2b70c2" stroke="none" stroke-width="0.26458" stroke-linecap="butt"/><path d="M242.68199,151.53562c2.76227,1.42077 4.2928,2.25006 4.59158,2.48787c-0.39634,1.8537 -0.63111,2.808 -0.70428,2.86289h-5.78064v0.10059l1.61895,2.00311l2.54275,-1.29882c0.25,0.43293 0.60976,1.18905 1.07928,2.26835c-0.21952,0.07316 -1.82017,0.30792 -4.80194,0.70429c-2.46958,-1.62809 -3.71352,-2.47568 -3.73181,-2.54274c0.39635,-3.16472 0.63111,-4.74708 0.70428,-4.74708c2.57933,-1.09759 4.07328,-1.71042 4.48182,-1.83847zM242.08747,153.74911c-0.04878,0.12195 -0.37196,0.60672 -0.96954,1.4543c0,0.2561 0.35976,0.38416 1.0793,0.38416c0,0.03658 0.52136,0.125 1.56406,0.26526c0.28661,-0.39636 0.4299,-0.62808 0.4299,-0.69514c-0.09145,-0.54271 -0.28963,-0.81405 -0.59454,-0.81405z" data-paper-data="{&quot;origPos&quot;:null}" fill="#2b70c2" stroke="none" stroke-width="0.26458" stroke-linecap="butt"/><path d="M250.84075,148.76421l4.0245,0.71343l-0.38416,3.05496c0.7988,-0.04267 1.38417,-0.06401 1.75614,-0.06401h0.58539l0.12802,-0.06401l0.06402,0.12802c-0.12804,1.8537 -0.23781,2.89643 -0.32927,3.12813l-0.12803,-0.07316c-0.09145,0 -0.91463,-0.04267 -2.46956,-0.12803c-0.08535,1.43295 -0.14939,3.14642 -0.19209,5.14037l-0.12803,0.06401c-1.96347,-0.12804 -3.13424,-0.23781 -3.51229,-0.32927l0.06401,-0.2561c0,-0.53051 0.08537,-2.17689 0.25611,-4.93917c-1.64639,-0.09145 -2.46958,-0.20121 -2.46958,-0.32927c0.08535,-2.03663 0.19511,-3.05496 0.32927,-3.05496l2.40555,0.45733v-0.7866c0,-0.64026 -0.02438,-1.50613 -0.07316,-2.59762c0.04878,0 0.07316,-0.02134 0.07316,-0.06401z" data-paper-data="{&quot;origPos&quot;:null}" fill="#2b70c2" stroke="none" stroke-width="0.26458" stroke-linecap="butt"/><path d="M269.81989,148.76421c2.19517,1.10978 3.32325,1.66467 3.38423,1.66467c0,0.09754 -0.45734,0.97867 -1.37198,2.64337h-0.06401c-0.07316,0 -1.12502,-0.49696 -3.15558,-1.49089l-1.03356,1.38114c1.75005,0.84149 3.8751,1.91468 6.37517,3.21959c-1.13419,2.01834 -1.93908,3.35984 -2.4147,4.02448l-5.16782,0.45734c-2.35983,-1.5915 -3.6068,-2.41468 -3.74095,-2.46957v-0.06401c0,-0.17075 0.47868,-0.95429 1.43601,-2.35067h0.11888c0.37805,0.22561 1.56407,0.87502 3.55801,1.94822l1.20736,-1.372c-3.66474,-1.8659 -5.69528,-2.9208 -6.09162,-3.16472v-0.05487c1.16465,-2.26835 1.79882,-3.41777 1.90248,-3.44826c3.03056,-0.61588 4.71659,-0.92381 5.05806,-0.92381z" data-paper-data="{&quot;origPos&quot;:null}" fill="#2b70c2" stroke="none" stroke-width="0.26458" stroke-linecap="butt"/><path d="M278.93904,151.52648c0.07925,0.10366 0.49086,1.872 1.23479,5.30502h0.06402c0,-0.07925 0.45122,-0.77745 1.35368,-2.09457c0.37806,0.2561 1.0976,0.811 2.1586,1.66469h0.12803v-0.06401c0.16463,-2.37812 0.28658,-3.69522 0.36585,-3.95132c2.51227,0.12806 3.76841,0.23172 3.76841,0.31098c-1.15247,4.63427 -1.76835,7.04286 -1.84762,7.2258c-0.38416,0.04267 -1.18906,0.16463 -2.4147,0.36586c-1.00612,-1.5793 -1.58236,-2.42079 -1.7287,-2.52445c-0.65856,1.75615 -1.07015,2.72263 -1.23479,2.89947h-2.46959c-0.15244,-0.04877 -0.87197,-1.63419 -2.15858,-4.75623c-0.8232,-1.74394 -1.23479,-2.68909 -1.23479,-2.83543c0,-0.13415 1.33845,-0.64941 4.01534,-1.54577z" data-paper-data="{&quot;origPos&quot;:null}" fill="#2b70c2" stroke="none" stroke-width="0.26458" stroke-linecap="butt"/><path d="M294.19552,151.53562c2.76226,1.42077 4.2928,2.25006 4.59159,2.48787c-0.39636,1.8537 -0.63111,2.808 -0.70428,2.86289h-5.78064v0.10059l1.61893,2.00311l2.54275,-1.29882c0.25001,0.43293 0.60977,1.18905 1.0793,2.26835c-0.21952,0.07316 -1.82018,0.30792 -4.80196,0.70429c-2.46956,-1.62809 -3.7135,-2.47568 -3.73181,-2.54274c0.39636,-3.16472 0.63111,-4.74708 0.70428,-4.74708c2.57934,-1.09759 4.07328,-1.71042 4.48183,-1.83847zM293.60101,153.74911c-0.04877,0.12195 -0.37195,0.60672 -0.96954,1.4543c0,0.2561 0.35976,0.38416 1.0793,0.38416c0,0.03658 0.52136,0.125 1.56406,0.26526c0.28659,-0.39636 0.42988,-0.62808 0.42988,-0.69514c-0.09145,-0.54271 -0.28963,-0.81405 -0.59452,-0.81405z" data-paper-data="{&quot;origPos&quot;:null}" fill="#2b70c2" stroke="none" stroke-width="0.26458" stroke-linecap="butt"/><path d="M304.80557,151.53562c2.76226,1.42077 4.2928,2.25006 4.59158,2.48787c-0.39636,1.8537 -0.63111,2.808 -0.70428,2.86289h-5.78066v0.10059l1.61895,2.00311l2.54275,-1.29882c0.25001,0.43293 0.60977,1.18905 1.0793,2.26835c-0.21952,0.07316 -1.82018,0.30792 -4.80196,0.70429c-2.46956,-1.62809 -3.7135,-2.47568 -3.73181,-2.54274c0.39636,-3.16472 0.63111,-4.74708 0.70428,-4.74708c2.57934,-1.09759 4.07328,-1.71042 4.48184,-1.83847zM304.21103,153.74911c-0.04877,0.12195 -0.37195,0.60672 -0.96953,1.4543c0,0.2561 0.35976,0.38416 1.0793,0.38416c0,0.03658 0.52136,0.125 1.56407,0.26526c0.28659,-0.39636 0.42988,-0.62808 0.42988,-0.69514c-0.09145,-0.54271 -0.28963,-0.81405 -0.59454,-0.81405z" data-paper-data="{&quot;origPos&quot;:null}" fill="#2b70c2" stroke="none" stroke-width="0.26458" stroke-linecap="butt"/><path d="M312.96432,148.76421l4.02451,0.71343l-0.38416,3.05496c0.79881,-0.04267 1.38417,-0.06401 1.75613,-0.06401h0.58539l0.12803,-0.06401l0.06401,0.12802c-0.12804,1.8537 -0.2378,2.89643 -0.32927,3.12813l-0.12803,-0.07316c-0.09145,0 -0.91463,-0.04267 -2.46956,-0.12803c-0.08535,1.43295 -0.14939,3.14642 -0.19209,5.14037l-0.12802,0.06401c-1.96348,-0.12804 -3.13424,-0.23781 -3.51229,-0.32927l0.06401,-0.2561c0,-0.53051 0.08537,-2.17689 0.2561,-4.93917c-1.64639,-0.09145 -2.46958,-0.20121 -2.46958,-0.32927c0.08535,-2.03663 0.19511,-3.05496 0.32927,-3.05496l2.40555,0.45733v-0.7866c0,-0.64026 -0.02438,-1.50613 -0.07316,-2.59762c0.04877,0 0.07316,-0.02134 0.07316,-0.06401z" data-paper-data="{&quot;origPos&quot;:null}" fill="#2b70c2" stroke="none" stroke-width="0.26458" stroke-linecap="butt"/><path d="M331.94345,148.76421c2.19518,1.10978 3.32326,1.66467 3.38423,1.66467c0,0.09754 -0.45734,0.97867 -1.37198,2.64337h-0.06401c-0.07316,0 -1.12501,-0.49696 -3.15556,-1.49089l-1.03358,1.38114c1.75005,0.84149 3.8751,1.91468 6.37517,3.21959c-1.13419,2.01834 -1.93908,3.35984 -2.41469,4.02448l-5.16782,0.45734c-2.35982,-1.5915 -3.60681,-2.41468 -3.74095,-2.46957v-0.06401c0,-0.17075 0.47868,-0.95429 1.43601,-2.35067h0.11888c0.37805,0.22561 1.56406,0.87502 3.55802,1.94822l1.20734,-1.372c-3.66472,-1.8659 -5.69527,-2.9208 -6.09162,-3.16472v-0.05487c1.16465,-2.26835 1.79883,-3.41777 1.90249,-3.44826c3.03057,-0.61588 4.71659,-0.92381 5.05806,-0.92381z" data-paper-data="{&quot;origPos&quot;:null}" fill="#2b70c2" stroke="none" stroke-width="0.26458" stroke-linecap="butt"/><path d="M340.64187,151.53562c2.75008,0.5183 4.18914,0.81405 4.31718,0.88723v0.10974c-0.59148,1.67078 -0.88721,2.53665 -0.88721,2.59762h-0.05487c-0.15244,0 -0.89026,-0.23781 -2.21346,-0.71343c-0.73782,1.23784 -1.10674,1.89944 -1.10674,1.98481l1.82931,1.77443c1.41467,-1.3293 2.13421,-1.99394 2.1586,-1.99394c1.10368,1.44516 1.65553,2.25616 1.65553,2.43299c-0.60366,0.34758 -1.65553,1.03052 -3.15557,2.04883c-2.90251,-0.62806 -4.46963,-0.97868 -4.70133,-1.05185l-1.43603,-4.64647z" data-paper-data="{&quot;origPos&quot;:null}" fill="#2b70c2" stroke="none" stroke-width="0.26458" stroke-linecap="butt"/><path d="M353.82208,151.52648c1.20736,0.67685 1.94824,1.11588 2.22262,1.31711c-0.98784,2.05494 -1.51832,3.10069 -1.5915,3.13727h-0.06401l-1.30797,-1.14332l-1.54577,1.8842l0.17378,3.42997c-0.07925,0.07316 -1.08843,0.24389 -3.0275,0.5122c-0.07316,-0.5244 -0.54878,-3.09459 -1.42687,-7.71057c0,-0.07316 1.27443,-0.2622 3.82327,-0.56709c0.04267,0.04877 0.15852,0.61891 0.34758,1.71041c1.52443,-1.71346 2.32322,-2.57019 2.39639,-2.57019z" data-paper-data="{&quot;origPos&quot;:null}" fill="#2b70c2" stroke="none" stroke-width="0.26458" stroke-linecap="butt"/><path d="M358.15757,151.52648c3.62205,0.50002 5.43307,0.80795 5.43307,0.92381c1.42686,1.22564 2.14029,1.88115 2.14029,1.96651c-0.57928,1.81102 -0.90855,2.91166 -0.98783,3.30191c0.57928,1.28662 0.90855,2.05494 0.98783,2.30494c0,0.07316 -0.94515,0.26828 -2.83543,0.58539c-0.02438,-0.10366 -0.19818,-0.33538 -0.52136,-0.69514c-2.60983,0.5 -4.01534,0.75001 -4.21657,0.75001l-1.39028,-3.75924l3.0641,-1.61894c0.49392,0.07925 1.26528,0.11888 2.31409,0.11888c0,-0.13415 0.01829,-0.53965 0.05487,-1.2165c-0.17683,0 -1.75615,0.11586 -4.73793,0.34758l-0.05487,-0.11889c0.41465,-1.92688 0.66466,-2.89032 0.75003,-2.89032zM360.06005,156.90467c0,0.06707 0.19513,0.7805 0.58539,2.14029h0.05487c0.7683,-0.5 1.15246,-0.82927 1.15246,-0.98782l0.11888,-0.97869c-0.14634,0 -0.78357,-0.05792 -1.91165,-0.17378z" data-paper-data="{&quot;origPos&quot;:null}" fill="#2b70c2" stroke="none" stroke-width="0.26458" stroke-linecap="butt"/><path d="M366.609,148.77336c1.8659,0.03658 3.23485,0.05487 4.10681,0.05487c0.07925,0 0.32012,3.74399 0.7226,11.23199c-0.31099,0.07925 -1.39638,0.28048 -3.25619,0.60368c-0.09145,0 -0.39328,-2.29275 -0.90551,-6.87823c-0.04267,-0.10976 -0.26525,-1.78053 -0.6677,-5.01232z" data-paper-data="{&quot;origPos&quot;:null}" fill="#2b70c2" stroke="none" stroke-width="0.26458" stroke-linecap="butt"/><path d="M373.85308,151.52648c3.62205,0.50002 5.43307,0.80795 5.43307,0.92381c1.42686,1.22564 2.14029,1.88115 2.14029,1.96651c-0.57928,1.81102 -0.90855,2.91166 -0.98782,3.30191c0.57928,1.28662 0.90855,2.05494 0.98782,2.30494c0,0.07316 -0.94515,0.26828 -2.83543,0.58539c-0.02438,-0.10366 -0.19818,-0.33538 -0.52136,-0.69514c-2.60983,0.5 -4.01534,0.75001 -4.21657,0.75001l-1.39026,-3.75924l3.0641,-1.61894c0.49391,0.07925 1.26528,0.11888 2.31409,0.11888c0,-0.13415 0.01828,-0.53965 0.05487,-1.2165c-0.17683,0 -1.75613,0.11586 -4.73791,0.34758l-0.05487,-0.11889c0.41465,-1.92688 0.66465,-2.89032 0.75001,-2.89032zM375.75558,156.90467c0,0.06707 0.19512,0.7805 0.58537,2.14029h0.05487c0.76831,-0.5 1.15247,-0.82927 1.15247,-0.98782l0.11888,-0.97869c-0.14633,0 -0.78355,-0.05792 -1.91162,-0.17378z" data-paper-data="{&quot;origPos&quot;:null}" fill="#2b70c2" stroke="none" stroke-width="0.26458" stroke-linecap="butt"/><path d="M388.80776,151.52648h0.03658c1.62809,0.95735 2.50617,1.45736 2.63422,1.50003v0.08231c-0.42073,0.48172 -1.19515,1.31712 -2.32323,2.50617c2.21348,0.82319 3.45742,1.32015 3.73181,1.4909l-2.06712,2.55189c-1.39637,-1.19516 -2.28664,-1.94212 -2.6708,-2.24091c-0.94515,1.84151 -1.53359,2.92385 -1.76529,3.24703h-0.03658c-1.75004,-0.61588 -2.70128,-0.98173 -2.85372,-1.09759v-0.04573l2.41469,-3.15558c-2.24396,-0.92686 -3.44521,-1.46954 -3.60375,-1.62809c0.98784,-1.67687 1.54273,-2.57019 1.66468,-2.67995c0.01829,0.04267 1.10368,0.78964 3.25618,2.24092c0.76221,-1.40857 1.28966,-2.33238 1.58236,-2.77142z" data-paper-data="{&quot;origPos&quot;:null}" fill="#2b70c2" stroke="none" stroke-width="0.26458" stroke-linecap="butt"/><path d="M397.9269,151.54477c0.08535,0.0122 0.12803,0.05487 0.12803,0.12803l-0.95124,5.26844c1.81712,-0.21343 2.72568,-0.38417 2.72568,-0.51222c0.34147,-2.10982 0.57623,-3.29278 0.70429,-3.54888c2.25006,0.46342 3.49704,0.73783 3.74095,0.8232c-1.31101,4.50621 -2.03054,6.85384 -2.1586,7.04286c-2.29275,1.6098 -3.5824,2.50007 -3.86899,2.6708c-0.08535,0 -1.54576,-0.35976 -4.38123,-1.07928v-0.06402c0.75002,-1.65249 1.2165,-2.47872 1.39943,-2.47872l2.78971,1.39943l1.3354,-2.28664c-1.20125,0.29879 -1.89944,0.44817 -2.09457,0.44817l-3.55801,-1.8476c0.43293,-3.97573 0.70733,-5.96358 0.82319,-5.96358z" data-paper-data="{&quot;origPos&quot;:null}" fill="#2b70c2" stroke="none" stroke-width="0.26458" stroke-linecap="butt"/><path d="M409.19548,149.10264l0.03658,0.07315c-0.60977,5.3843 -0.95124,8.21364 -1.02441,8.48803c-1.29271,-0.12196 -2.10982,-0.20734 -2.45129,-0.25611v-0.03658l-0.58537,-7.64655c0.14633,-0.04877 1.48784,-0.2561 4.02449,-0.62196zM405.57345,157.84677c0.04267,0.02438 0.99391,0.09755 2.85372,0.21952l0.03658,0.07316c-0.28661,1.68296 -0.46952,2.52445 -0.54879,2.52445h-2.12201c-0.07316,0 -0.17073,-0.84149 -0.2927,-2.52445c-0.02438,0 -0.03658,-0.07318 -0.03658,-0.21953c0.07316,-0.02438 0.10974,-0.04877 0.10974,-0.07315z" data-paper-data="{&quot;origPos&quot;:null}" fill="#000000" stroke="none" stroke-width="0.26458" stroke-linecap="butt"/></g></g></svg>