<svg version="1.1" xmlns="http://www.w3.org/2000/svg" xmlns:xlink="http://www.w3.org/1999/xlink" width="527.22682" height="244.89565" viewBox="0,0,527.22682,244.89565"><defs><linearGradient x1="430.5716" y1="312.6244" x2="434.8535" y2="350.151" gradientUnits="userSpaceOnUse" id="color-1"><stop offset="0" stop-color="#00ffff"/><stop offset="1" stop-color="#00ffff" stop-opacity="0"/></linearGradient><linearGradient x1="434.5626" y1="308.4082" x2="434.5626" y2="349.03604" gradientUnits="userSpaceOnUse" id="color-2"><stop offset="0" stop-color="#00ffff"/><stop offset="1" stop-color="#00ffff" stop-opacity="0"/></linearGradient><linearGradient x1="442.7584" y1="303.5563" x2="443.0785" y2="317.5526" gradientUnits="userSpaceOnUse" id="color-3"><stop offset="0" stop-color="#b2b2b2"/><stop offset="1" stop-color="#666666"/></linearGradient><linearGradient x1="-19.24966" y1="115.0718" x2="-16.72775" y2="152.794" gradientUnits="userSpaceOnUse" id="color-4"><stop offset="0" stop-color="#00ffff"/><stop offset="1" stop-color="#00ffff" stop-opacity="0"/></linearGradient><linearGradient x1="-16.89582" y1="113.21825" x2="-16.89582" y2="151.93825" gradientUnits="userSpaceOnUse" id="color-5"><stop offset="0" stop-color="#00ffff"/><stop offset="1" stop-color="#00ffff" stop-opacity="0"/></linearGradient><linearGradient x1="-2.34417" y1="106.7926" x2="-3.0952" y2="120.7812" gradientUnits="userSpaceOnUse" id="color-6"><stop offset="0" stop-color="#b2b2b2"/><stop offset="1" stop-color="#666666"/></linearGradient><linearGradient x1="181.85012" y1="314.8218" x2="185.06868" y2="352.544" gradientUnits="userSpaceOnUse" id="color-7"><stop offset="0" stop-color="#00ffff"/><stop offset="1" stop-color="#00ffff" stop-opacity="0"/></linearGradient><linearGradient x1="184.85417" y1="312.96825" x2="184.85417" y2="351.68825" gradientUnits="userSpaceOnUse" id="color-8"><stop offset="0" stop-color="#00ffff"/><stop offset="1" stop-color="#00ffff" stop-opacity="0"/></linearGradient><linearGradient x1="195.50413" y1="306.5426" x2="194.46704" y2="320.5312" gradientUnits="userSpaceOnUse" id="color-9"><stop offset="0" stop-color="#b2b2b2"/><stop offset="1" stop-color="#666666"/></linearGradient></defs><g transform="translate(16.89582,-106.7926)"><g data-paper-data="{&quot;isPaintingLayer&quot;:true}" fill-rule="nonzero" stroke-width="0" stroke-linejoin="miter" stroke-miterlimit="10" stroke-dasharray="" stroke-dashoffset="0" style="mix-blend-mode: normal"><g id="ID0.5679584057070315"><path d="M483.0556,312.1669c3.9565,1.3515 2.3186,1.7371 11.9428,5.4915c6.3905,4.9935 10.4895,10.4701 14.5454,15.9043c1.0143,1.3586 0.8998,2.7656 0.4825,4.2289c-0.1046,0.3657 -1.1772,0.7471 -1.998,1.0847c-2.7948,1.1495 -3.979,2.6414 -8.8109,3.3615c-19.3289,2.8806 -39.2147,5.3128 -58.6465,6.6916c-4.8577,0.3448 -6.4685,-0.0924 -5.899,-2.1114c2.2782,-8.0761 7.6528,-16.3995 13.4524,-24.668c2.331,-3.3235 6.1252,-6.7226 10.8798,-10.0233c1.9595,-1.3603 5.0079,-3.7151 9.1238,-3.7185c7.1289,0.0222 10.5677,2.2734 14.9277,3.7587z" id="ID0.014508410822600126" fill="url(#color-1)" stroke="url(#color-2)" stroke-linecap="round"/><path d="M442.7584,303.5563l57.068,-1.3051l0.3201,13.9963l-57.068,1.3051z" id="ID0.8304188074544072" fill="url(#color-3)" stroke="none" stroke-linecap="butt"/></g><g id="ID0.5679584057070315"><path d="M50.31599,117.9346c5.1277,1.599 2.92556,1.8802 15.35988,6.2359c8.0465,5.3876 13.01677,11.1125 17.93355,16.7923c1.22969,1.42 0.95983,2.817 0.28419,4.2509c-0.16937,0.3584 -1.6222,0.6712 -2.73787,0.9562c-3.79885,0.9705 -5.49273,2.3844 -11.9542,2.7975c-25.84757,1.6524 -52.39508,2.822 -78.25261,2.9691c-6.46412,0.0369 -8.56139,-0.5013 -7.6374,-2.4803c3.69598,-7.9158 11.5147,-15.8826 19.89171,-23.7677c3.36705,-3.1695 8.6786,-6.3218 15.25435,-9.3152c2.71,-1.2337 6.94596,-3.391 12.39861,-3.134c9.44211,0.473 13.80856,2.9372 19.45978,4.6953z" id="ID0.014508410822600126" fill="url(#color-4)" stroke="url(#color-5)" stroke-linecap="round"/><path d="M-2.34417,106.7926l75.70934,2.3068l-0.75104,13.9885l-75.70934,-2.3067z" id="ID0.8304188074544072" fill="url(#color-6)" stroke="none" stroke-linecap="butt"/></g><g><path d="M270.63245,317.6846c6.54417,1.599 3.73371,1.8802 19.60286,6.2359c10.26925,5.3876 16.6125,11.1125 22.88748,16.7923c1.56938,1.42 1.22497,2.817 0.36271,4.2509c-0.21617,0.3584 -2.07031,0.6712 -3.49417,0.9562c-4.84824,0.9705 -7.01003,2.3844 -15.2564,2.7975c-32.98765,1.6524 -66.8686,2.822 -99.86896,2.9691c-8.24976,0.0369 -10.92637,-0.5013 -9.74714,-2.4803c4.71695,-7.9158 14.6955,-15.8826 25.38657,-23.7677c4.29716,-3.1695 11.07596,-6.3218 19.46818,-9.3152c3.4586,-1.2337 8.8647,-3.391 15.82358,-3.134c12.05038,0.473 17.62301,2.9372 24.83531,4.6953z" id="ID0.014508410822600126" fill="url(#color-7)" stroke="url(#color-8)" stroke-linecap="round"/><path d="M195.50413,306.5426l104.54456,2.3068l-1.03708,13.9885l-104.54456,-2.3067z" id="ID0.8304188074544072" fill="url(#color-9)" stroke="none" stroke-linecap="butt"/></g></g></g></svg>