<svg version="1.1" xmlns="http://www.w3.org/2000/svg" xmlns:xlink="http://www.w3.org/1999/xlink" width="16.76059" height="20.21217" viewBox="0,0,16.76059,20.21217"><defs><linearGradient x1="240.0848" y1="170.6127" x2="240.0848" y2="189.7634" gradientUnits="userSpaceOnUse" id="color-1"><stop offset="0" stop-color="#ffffff"/><stop offset="1" stop-color="#d1d1d1"/></linearGradient><linearGradient x1="240.0848" y1="170.6127" x2="240.0848" y2="189.7634" gradientUnits="userSpaceOnUse" id="color-2"><stop offset="0" stop-color="#343434"/><stop offset="1" stop-color="#090909"/></linearGradient></defs><g transform="translate(-231.7644,-170.10004)"><g data-paper-data="{&quot;isPaintingLayer&quot;:true}" fill="url(#color-1)" fill-rule="nonzero" stroke="url(#color-2)" stroke-width="1" stroke-linecap="butt" stroke-linejoin="miter" stroke-miterlimit="10" stroke-dasharray="" stroke-dashoffset="0" style="mix-blend-mode: normal"><path d="M236.2668,170.6127c5.4188,0.2925 8.19,0.4777 8.313,0.5541l3.3254,5.9114l-3.0787,3.141l2.032,2.7705c-0.5699,2.787 -0.9396,4.1876 -1.1082,4.1876c-0.4162,0.1695 -2.2787,1.031 -5.6041,2.5861c-3.9716,-1.7396 -6.0651,-2.6941 -6.281,-2.8943l-0.9853,-4.1868l2.4631,-2.4016c-2.0469,-3.2482 -3.0786,-4.9112 -3.0786,-4.9877v-0.0615c0.0922,-0.0465 1.4321,-1.5858 4.0024,-4.6188zM237.9913,176.7094c1.2312,1.3541 1.8933,2.1391 1.9705,2.3393l2.0934,-2.586l-0.9852,-1.6008c-1.4779,0 -2.2164,0.1079 -2.2164,0.3081c-0.5698,0.9388 -0.8623,1.4621 -0.8623,1.5394zM238.5454,183.4208c0.6006,1.2777 0.9238,1.909 0.9853,1.909c0.7543,0 1.1854,-0.1844 1.2934,-0.5541c0.4461,-0.5699 0.7693,-1.0317 0.9852,-1.4164l-1.4778,-1.4164h-0.0623c-1.1539,0.9545 -1.7238,1.4472 -1.7238,1.4779z" data-paper-data="{&quot;origPos&quot;:null}"/></g></g></svg>