<svg version="1.1" xmlns="http://www.w3.org/2000/svg" xmlns:xlink="http://www.w3.org/1999/xlink" width="738.98393" height="526"><defs><linearGradient x1="447" y1="187" x2="447" y2="371" gradientUnits="userSpaceOnUse" id="color-1"><stop offset="0" stop-color="#cfb841"/><stop offset="1" stop-color="#a28e42"/></linearGradient><linearGradient x1="449" y1="-153" x2="449" y2="31" gradientUnits="userSpaceOnUse" id="color-2"><stop offset="0" stop-color="#cfb841"/><stop offset="1" stop-color="#a28e42"/></linearGradient><linearGradient x1="41.87516" y1="272.27757" x2="41.87516" y2="358.2225" gradientUnits="userSpaceOnUse" id="color-3"><stop offset="0" stop-color="#867037"/><stop offset="1" stop-color="#ac8f46"/></linearGradient><radialGradient cx="39.44289" cy="254.51877" r="425.84807" gradientUnits="userSpaceOnUse" id="color-4"><stop offset="0" stop-color="#b1eb5b"/><stop offset="1" stop-color="#94d955"/></radialGradient><linearGradient x1="45.87516" y1="-4.72243" x2="45.87516" y2="81.22249" gradientUnits="userSpaceOnUse" id="color-5"><stop offset="0" stop-color="#867037"/><stop offset="1" stop-color="#ac8f46"/></linearGradient><linearGradient x1="216.4441" y1="213.33091" x2="216.4441" y2="257.63544" gradientUnits="userSpaceOnUse" id="color-6"><stop offset="0" stop-color="#cfa63e"/><stop offset="1" stop-color="#daac3a"/></linearGradient><radialGradient cx="205.79972" cy="240.15108" r="225.12793" gradientUnits="userSpaceOnUse" id="color-7"><stop offset="0" stop-color="#b1eb5b"/><stop offset="1" stop-color="#94d955"/></radialGradient><linearGradient x1="250.36333" y1="52.97947" x2="274.58504" y2="72.98253" gradientUnits="userSpaceOnUse" id="color-8"><stop offset="0" stop-color="#7dad57"/><stop offset="1" stop-color="#68913c"/></linearGradient><linearGradient x1="187.98702" y1="76.40608" x2="192.91147" y2="112.48835" gradientUnits="userSpaceOnUse" id="color-9"><stop offset="0" stop-color="#7dad57"/><stop offset="1" stop-color="#68913c"/></linearGradient><linearGradient x1="287.144" y1="76.40608" x2="282.21955" y2="112.48835" gradientUnits="userSpaceOnUse" id="color-10"><stop offset="0" stop-color="#7dad57"/><stop offset="1" stop-color="#68913c"/></linearGradient><linearGradient x1="225.98799" y1="169.2114" x2="247.98817" y2="169.2114" gradientUnits="userSpaceOnUse" id="color-11"><stop offset="0" stop-color="#916f3b"/><stop offset="1" stop-color="#ad8a56"/></linearGradient><linearGradient x1="224.69576" y1="103.78839" x2="251.15222" y2="99.52608" gradientUnits="userSpaceOnUse" id="color-12"><stop offset="0" stop-color="#93713d"/><stop offset="1" stop-color="#ac8a56"/></linearGradient><linearGradient x1="237.30548" y1="131.37343" x2="244.02972" y2="131.37343" gradientUnits="userSpaceOnUse" id="color-13"><stop offset="0" stop-color="#9c7a46"/><stop offset="1" stop-color="#a17f4b"/></linearGradient></defs><g transform="translate(224.48393,154)"><g data-paper-data="{&quot;isPaintingLayer&quot;:true}" fill="none" fill-rule="nonzero" stroke="none" stroke-width="none" stroke-linecap="none" stroke-linejoin="miter" stroke-miterlimit="10" stroke-dasharray="" stroke-dashoffset="0" font-family="none" font-weight="none" font-size="none" text-anchor="none" style="mix-blend-mode: normal"><g stroke="#82721f" stroke-width="2" stroke-linecap="butt"><path d="M382.5,371v-184h129v184z" data-paper-data="{&quot;origPos&quot;:null}" fill="url(#color-1)"/><path d="M384.5,31v-184h129v184z" data-paper-data="{&quot;origPos&quot;:null}" fill="url(#color-2)"/></g><path d="M88.30787,273.41858l-0.61273,88.36561l-289.17907,-3.56169v-85.94493z" data-paper-data="{&quot;origPos&quot;:null,&quot;index&quot;:null}" id="ID0.29126935824751854" fill="url(#color-3)" stroke="#8d763a" stroke-width="2" stroke-linecap="butt"/><path d="M31.91234,249.11803c16.68771,-0.14273 33.39174,-0.94632 50.10248,-1.47239c0.20259,0.15296 8.42136,2.50119 9.46208,2.75951c1.82821,0.45378 6.78478,8.76666 6.78478,8.76666l1.23832,18.5104c0,0 -41.50621,22.19049 -64.36838,22.58927c-30.50161,0.52794 -56.27303,-26.12589 -86.92058,-27.98962c-32.43962,-0.97867 -62.78778,20.19306 -95.14155,19.78673c-26.1749,-0.33298 -52.00748,-9.6931 -75.48033,-19.78673c-0.31634,-0.13651 -0.67588,-0.2904 -1.07309,-0.46013c0,-6.7487 0,-13.49739 0,-20.24609c84.84791,-5.76699 170.49347,-1.39223 255.39628,-2.4576z" data-paper-data="{&quot;origPos&quot;:null,&quot;index&quot;:null}" id="ID0.22012263583019376" fill="url(#color-4)" stroke="#3d6600" stroke-width="2" stroke-linecap="butt"/><path d="M86.76391,300.74846c-20.33397,6.52085 -42.32602,16.39523 -71.35709,17.53296c-42.31314,1.65826 -45.49067,-22.43186 -79.49934,-21.49347c-34.00867,0.93838 -50.15628,22.8559 -88.37275,22.15938c-28.74259,-0.52384 -51.55291,-0.28146 -65.01867,-13.28432" data-paper-data="{&quot;origPos&quot;:null,&quot;origRot&quot;:0,&quot;index&quot;:null}" fill="none" stroke="#bba15f" stroke-width="9" stroke-linecap="round"/><path d="M86.5329,332.33581c-20.26958,6.52129 -42.20492,16.32534 -71.12608,17.45876c-42.31314,1.65826 -45.49067,-22.43186 -79.49934,-21.49347c-34.00867,0.93838 -50.15628,22.8559 -88.37275,22.15938c-28.74259,-0.52384 -51.55291,-0.28146 -65.01867,-13.28432" data-paper-data="{&quot;origPos&quot;:null,&quot;origRot&quot;:0,&quot;index&quot;:null}" fill="none" stroke="#7d6938" stroke-width="9" stroke-linecap="round"/><path d="M92.30787,-3.58143l-0.61273,88.36561l-289.17907,-3.56169v-85.94493z" data-paper-data="{&quot;origPos&quot;:null,&quot;index&quot;:null}" id="ID0.29126935824751854" fill="url(#color-5)" stroke="#8d763a" stroke-width="2" stroke-linecap="butt"/><path d="M90.76391,23.74845c-20.33397,6.52085 -42.32602,16.39523 -71.35709,17.53296c-42.31314,1.65827 -45.49067,-22.43184 -79.49934,-21.49346c-34.00867,0.93838 -50.15628,22.8559 -88.37275,22.15938c-28.74259,-0.52384 -51.55291,-0.28145 -65.01867,-13.28431" data-paper-data="{&quot;origPos&quot;:null,&quot;origRot&quot;:0,&quot;index&quot;:null}" fill="none" stroke="#bba15f" stroke-width="9" stroke-linecap="round"/><path d="M90.5329,55.3358c-20.26958,6.52128 -42.20492,16.32534 -71.12608,17.45876c-42.31314,1.65826 -45.49067,-22.43185 -79.49934,-21.49347c-34.00867,0.93838 -50.15628,22.85591 -88.37275,22.15938c-28.74259,-0.52384 -51.55291,-0.28146 -65.01867,-13.28432" data-paper-data="{&quot;origPos&quot;:null,&quot;origRot&quot;:0,&quot;index&quot;:null}" fill="none" stroke="#7d6938" stroke-width="9" stroke-linecap="round"/><g data-paper-data="{&quot;origPos&quot;:null}"><path d="M285.5,245.36562c1.70866,1.03945 11.66666,4.33333 11.66666,6.33333c0,0.16666 1.66667,2.83333 1.5,2.83333c-3,0 -23.33333,1.33333 -26.33333,1.33333c-11.33333,0 -84.4403,1.70024 -90.10204,-0.72699c-0.02149,-0.0377 -0.04304,-0.07538 -0.06463,-0.11303c0,-2.66444 1.33333,-9.32664 10.33333,-10.99332c1.96657,-0.36418 86.66667,-2.51949 93,1.33333z" data-paper-data="{&quot;origPos&quot;:null}" id="ID0.29126935824751854" fill="url(#color-6)" stroke="#aa8730" stroke-width="2" stroke-linecap="butt"/><path d="M214.44746,235.03366c4.19978,0.05139 37.22779,-0.44301 41.40387,0.00546c12.52824,1.34539 38.7529,11.78122 22.17881,12.2688c-16.20207,0.96075 -49.15966,2.36744 -65.28458,2.09528c-12.44937,-0.21175 -8.40678,0.92316 -20.04556,-3.36097c-11.63878,-4.28414 17.54769,-11.05996 21.74746,-11.00856z" data-paper-data="{&quot;origPos&quot;:null}" id="ID0.22012263583019376" fill="url(#color-7)" stroke="#3d6600" stroke-width="2" stroke-linecap="round"/><path d="M237.20551,95.13705l-0.7798,-12.64935l1.5988,-13.68638l4.65556,-9.16112l9.45634,-8.19782l6.50124,-5.636l13.68061,-5.70973l11.34558,-1.63538l9.58703,0.91415l12.65831,6.45184l-10.14901,1.6231l-13.69513,4.69729l-10.68194,6.18523l-7.09226,6.14836l-8.86531,7.68547l-11.17132,13.78468z" data-paper-data="{&quot;origPos&quot;:null,&quot;origRot&quot;:0,&quot;index&quot;:null}" fill="url(#color-8)" stroke="#335e2d" stroke-width="2" stroke-linecap="round"/><path d="M211.05699,98.11404c2.52118,-4.48701 7.94073,-5.92218 12.10492,-3.20555c4.16418,2.71663 5.49611,8.55634 2.97493,13.04335c-2.52118,4.48701 -7.94073,5.92218 -12.10492,3.20555c-4.16418,-2.71663 -5.4961,-8.55633 -2.97492,-13.04335z" data-paper-data="{&quot;origPos&quot;:null,&quot;origRot&quot;:0}" fill="#795d34" stroke="#573b00" stroke-width="2" stroke-linecap="butt"/><path d="M219.51359,119.90047c0,-5.24531 3.94624,-9.49748 8.81418,-9.49748c4.86794,0 8.81418,4.25217 8.81418,9.49748c0,5.24531 -3.94624,9.49749 -8.81418,9.49749c-4.86794,0 -8.81418,-4.25218 -8.81418,-9.49749z" data-paper-data="{&quot;origPos&quot;:null}" fill="#795d34" stroke="#573b00" stroke-width="2" stroke-linecap="butt"/><path d="M223.12299,95.7207l-19.74705,-0.55715l-12.55735,1.98983l-10.04588,1.59187l-12.18801,4.696l-12.53272,8.43688l-7.50979,7.64096l1.25574,-15.86558l4.75209,-9.0471l8.22383,-8.67566l13.493,-7.66748l9.20873,-1.45921l13.39451,-2.12249l11.49859,2.78576l14.03469,8.83485l11.64633,10.13487z" data-paper-data="{&quot;origPos&quot;:null,&quot;origRot&quot;:0}" fill="url(#color-9)" stroke="#335e2d" stroke-width="2" stroke-linecap="round"/><path d="M247.01381,103.94469c0,-5.24532 3.94624,-9.49748 8.81418,-9.49748c4.86794,0 8.81418,4.25217 8.81418,9.49748c0,5.24531 -3.94624,9.49749 -8.81418,9.49749c-4.86794,0 -8.81418,-4.25218 -8.81418,-9.49749z" data-paper-data="{&quot;origPos&quot;:null}" fill="#795d34" stroke="#573b00" stroke-width="2" stroke-linecap="butt"/><path d="M242.783,83.88601c0,-5.24532 3.94624,-9.49748 8.81418,-9.49748c4.86794,0 8.81418,4.25217 8.81418,9.49748c0,5.24532 -3.94624,9.49749 -8.81418,9.49749c-4.86794,0 -8.81418,-4.25218 -8.81418,-9.49749z" data-paper-data="{&quot;origPos&quot;:null}" fill="#795d34" stroke="#573b00" stroke-width="2" stroke-linecap="butt"/><path d="M239.08136,96.43704l11.64633,-10.13487l14.03469,-8.83485l11.49859,-2.78576l13.39451,2.12249l9.20872,1.45921l13.493,7.66748l8.22383,8.67566l4.75209,9.0471l-24.97479,-5.90826l-28.60323,-2.5817l-19.74704,0.55715z" data-paper-data="{&quot;origPos&quot;:null,&quot;origRot&quot;:0,&quot;index&quot;:null}" fill="url(#color-10)" stroke="#335e2d" stroke-width="2" stroke-linecap="round"/><g data-paper-data="{&quot;origPos&quot;:null}" stroke="#5c482a"><path d="M234.4496,172.85844c2.42888,-27.66735 3.38464,-71.11716 3.38464,-71.11716c0,0 7.22548,25.23063 9.30777,44.67617c2.08229,19.44554 0.99307,34.47503 0.84616,50.14672c-0.14691,15.67169 -1.69232,40.11737 -1.69232,40.11737h-20.30785c0,0 6.03273,-36.15575 8.46161,-63.82309z" data-paper-data="{&quot;origPos&quot;:null}" fill="url(#color-11)" stroke-width="2" stroke-linecap="round"/><path d="M251.15222,99.52608c1.57611,11.35867 -8.83568,21.59495 -6.93559,30.20005c0.56285,2.54903 -6.86921,2.56377 -7.52189,0.03974c-3.07495,-11.89154 -10.49704,-15.15332 -11.99898,-25.97748c-1.50194,-10.82417 3.20296,-20.55303 10.50871,-21.73003c7.30575,-1.177 14.4458,6.64356 15.94774,17.46772z" data-paper-data="{&quot;origPos&quot;:null,&quot;origRot&quot;:0}" fill="url(#color-12)" stroke-width="2" stroke-linecap="butt"/><path d="M238.17002,134.99619l-0.86455,-6.31395l5.85969,-0.93157l0.86455,6.31395z" data-paper-data="{&quot;origPos&quot;:null,&quot;origRot&quot;:0}" fill="url(#color-13)" stroke-width="0" stroke-linecap="butt"/></g><path d="M241.51376,116.70931c0,-5.24531 3.94624,-9.49748 8.81418,-9.49748c4.86794,0 8.81418,4.25217 8.81418,9.49748c0,5.24531 -3.94624,9.49749 -8.81418,9.49749c-4.86794,0 -8.81418,-4.25218 -8.81418,-9.49749z" data-paper-data="{&quot;origPos&quot;:null}" fill="#795d34" stroke="#573b00" stroke-width="2" stroke-linecap="butt"/><path d="M224.30849,110.63092c0,-5.24532 3.94624,-9.49748 8.81417,-9.49748c4.86794,0 8.81418,4.25217 8.81418,9.49748c0,5.24531 -3.94624,9.49749 -8.81418,9.49749c-4.86794,0 -8.81417,-4.25218 -8.81417,-9.49749z" data-paper-data="{&quot;origPos&quot;:null}" fill="#795d34" stroke="#573b00" stroke-width="2" stroke-linecap="butt"/><path d="M234.8855,98.47414c0,-5.24532 3.94624,-9.49748 8.81417,-9.49748c4.86794,0 8.81418,4.25217 8.81418,9.49748c0,5.24532 -3.94624,9.49749 -8.81418,9.49749c-4.86794,0 -8.81417,-4.25218 -8.81417,-9.49749z" data-paper-data="{&quot;origPos&quot;:null}" fill="#795d34" stroke="#573b00" stroke-width="2" stroke-linecap="butt"/><path d="M232.62908,125.8269c0,-5.24531 3.94624,-9.49748 8.81418,-9.49748c4.86794,0 8.81418,4.25217 8.81418,9.49748c0,5.24531 -3.94624,9.49749 -8.81418,9.49749c-4.86794,0 -8.81418,-4.25218 -8.81418,-9.49749z" data-paper-data="{&quot;origPos&quot;:null}" fill="#795d34" stroke="#573b00" stroke-width="2" stroke-linecap="butt"/></g></g></g></svg>