<svg version="1.1" xmlns="http://www.w3.org/2000/svg" xmlns:xlink="http://www.w3.org/1999/xlink" width="507.87988" height="376.57653" viewBox="0,0,507.87988,376.57653"><defs><linearGradient x1="258.52637" y1="186.32235" x2="258.52637" y2="359.93231" gradientUnits="userSpaceOnUse" id="color-1"><stop offset="0" stop-color="#a5a5a5"/><stop offset="1" stop-color="#989898"/></linearGradient><linearGradient x1="413.17417" y1="186.45649" x2="413.17417" y2="217.98805" gradientUnits="userSpaceOnUse" id="color-2"><stop offset="0" stop-color="#afafaf"/><stop offset="1" stop-color="#9c9c9c"/></linearGradient><radialGradient cx="478.73874" cy="180.0001" r="180.93093" gradientUnits="userSpaceOnUse" id="color-3"><stop offset="0" stop-color="#afafaf"/><stop offset="1" stop-color="#616161"/></radialGradient><linearGradient x1="496.38138" y1="180.0001" x2="461.09609" y2="180.0001" gradientUnits="userSpaceOnUse" id="color-4"><stop offset="0" stop-color="#afafaf" stop-opacity="0"/><stop offset="1" stop-color="#afafaf"/></linearGradient></defs><g transform="translate(11.4985,0.93081)"><g data-paper-data="{&quot;isPaintingLayer&quot;:true}" fill-rule="nonzero" stroke-linejoin="miter" stroke-miterlimit="10" stroke-dasharray="" stroke-dashoffset="0" style="mix-blend-mode: normal"><path d="M347.85886,201.47155h106.63814l31.25,-23l0.25,197.17417h-342.34234z" data-paper-data="{&quot;index&quot;:null}" fill="#272727" stroke="#000000" stroke-width="0" stroke-linecap="round"/><g data-paper-data="{&quot;index&quot;:null}" fill="#cc1919" stroke="none" stroke-linecap="butt"><path d="M-11.4985,210.00007h127l-53,26h-74z" data-paper-data="{&quot;index&quot;:null}" stroke-width="1"/><path d="M84.5015,185.45655h46l40,26h-134.011z" data-paper-data="{&quot;index&quot;:null}" stroke-width="0.85398"/></g><path d="M135.85184,359.93231l207.56881,-173.60992h52.79526l-207.14465,173.4602z" data-paper-data="{&quot;index&quot;:null}" fill="url(#color-1)" stroke="none" stroke-width="0" stroke-linecap="butt"/><path d="M343.35435,217.98805v-31.53153h152.15466l-31,31.53153z" data-paper-data="{&quot;index&quot;:null}" fill="url(#color-2)" stroke="none" stroke-width="0" stroke-linecap="butt"/><g data-paper-data="{&quot;index&quot;:null}" stroke="none" stroke-width="0" stroke-linecap="butt"><path d="M461.09609,-0.93081h35.28529v187.40985l-35.28529,1z" fill="url(#color-3)"/><path d="M461.09609,-0.93081h35.28529v187.40985l-35.28529,1z" fill="url(#color-4)"/></g></g></g></svg>