<svg version="1.1" xmlns="http://www.w3.org/2000/svg" xmlns:xlink="http://www.w3.org/1999/xlink" width="484.99998" height="289.76783" viewBox="0,0,484.99998,289.76783"><defs><linearGradient x1="315.5" y1="179.74062" x2="449.5" y2="179.74062" gradientUnits="userSpaceOnUse" id="color-1"><stop offset="0" stop-color="#22272d"/><stop offset="1" stop-color="#1e1a17"/></linearGradient><linearGradient x1="239.5" y1="295.24062" x2="239.5" y2="355.24062" gradientUnits="userSpaceOnUse" id="color-2"><stop offset="0" stop-color="#242231"/><stop offset="1" stop-color="#3a3d2f"/></linearGradient><linearGradient x1="240" y1="283.00249" x2="240" y2="320.87274" gradientUnits="userSpaceOnUse" id="color-3"><stop offset="0" stop-color="#505342"/><stop offset="1" stop-color="#3b4232"/></linearGradient><linearGradient x1="49.35743" y1="335.42566" x2="107.10844" y2="335.42566" gradientUnits="userSpaceOnUse" id="color-4"><stop offset="0" stop-color="#242231"/><stop offset="1" stop-color="#223130"/></linearGradient><linearGradient x1="247.77529" y1="341.11317" x2="302.1687" y2="321.70862" gradientUnits="userSpaceOnUse" id="color-5"><stop offset="0" stop-color="#242231"/><stop offset="1" stop-color="#223130"/></linearGradient><linearGradient x1="406.35743" y1="333.42566" x2="464.10844" y2="333.42566" gradientUnits="userSpaceOnUse" id="color-6"><stop offset="0" stop-color="#242231"/><stop offset="1" stop-color="#223130"/></linearGradient></defs><g transform="translate(2.49998,-66.47279)"><g data-paper-data="{&quot;isPaintingLayer&quot;:true}" fill-rule="nonzero" stroke-linejoin="miter" stroke-miterlimit="10" stroke-dasharray="" stroke-dashoffset="0" style="mix-blend-mode: normal"><path d="M292.5,171.24062l51,32l35,31l-6,-45l-12,-27l-22,-33l-17,-26l27,19l9,14l16,-30l22,-33l-7,21l-17,41l16,38l16,-36l1,-20l7,-38l4,21l4,36l16,-17l14,-10l-8,12l-27,44l-8,41l3,80l-38,-2l-1,-28l-23,-28z" data-paper-data="{&quot;origPos&quot;:null}" fill="url(#color-1)" stroke="#1a150f" stroke-width="2" stroke-linecap="round"/><g><path d="M-0.5,295.24062h480v60h-480z" data-paper-data="{&quot;origPos&quot;:null}" fill="url(#color-2)" stroke="#0c1013" stroke-width="2" stroke-linecap="butt"/><path d="M243.5,286.53193c79.11967,0.74376 158.93149,-2.31036 238,1.7157c0,4.71141 0,9.42282 0,14.13423c-0.37015,0.11849 -1,0.32123 -1,0.32123l-16.8863,16.11657l-29.79161,-18.4544l-14.39799,20.50748l-33.89232,-19.3l-14.02533,18.61682l-38.01614,-19.42904l-16.10494,17.32275l-36.8471,-16.30931l-14.62915,17.66479l-37.33466,-18.75292c0,0 -12.13994,17.92965 -12.2295,17.88463c-0.2687,-0.13507 -29.82946,-18.50296 -29.82946,-18.50296l-21.05167,20.40034l-26.92435,-21.65518l-13.85553,19.75763c0,0 -33.43507,-18.93506 -34.3536,-18.25344c-2.75557,2.04485 -12.84064,16.46544 -12.84064,16.46544l-31.98969,-15.75299l-12.661,16.48733c0,0 -11.18,-6.70438 -32.339,-14.81354c-0.58251,-0.22349 -1.25687,-0.49521 -2,-0.80775c0,-5.79775 0,-11.59551 0,-17.39326c46.76992,-2.37402 73.14826,-1.85195 119.96618,-0.78203c48.79651,1.11513 76.22558,2.49915 125.03383,2.81188z" data-paper-data="{&quot;origPos&quot;:null}" fill="url(#color-3)" stroke="#1e231d" stroke-width="2" stroke-linecap="round"/><path d="M54.74295,322.0836c0.09184,-0.1253 2.83686,1.01742 4.31326,1.65016c4.70406,0.89939 6.05141,8.07865 11.20011,8.72927c1.23921,0.1566 2.41742,-3.04649 3.65499,-3.21554c2.04591,-0.27945 4.44419,-2.72022 6.25249,-3.75747c1.83156,-1.0506 3.48627,-1.13218 4.98926,-1.20338c0.501,-0.02373 4.4535,0.26558 4.92313,0.08947c0.83538,-0.62503 3.857,0.59767 4.87861,0.65168c3.01064,0.15916 2.18526,0.51475 4.96295,1.66748c2.09,0.86734 2.16432,0.42373 4.01137,1.73585c0.69223,0.49175 1.85918,3.41378 2.68657,3.22289c0.35463,-0.08182 0.09236,5.42696 -1.08489,7.54601c-0.47665,1.52273 -2.29632,3.82952 -3.41748,4.95428c-2.67609,2.68471 -6.59237,5.52507 -10.57892,5.95591c-4.41813,0.47748 -11.72287,-0.12249 -15.82407,-1.66044c-4.46048,-1.46082 -4.31835,-6.92678 -9.57904,-6.30487c-3.29216,0.38919 -7.53148,4.95686 -10.2796,6.36421c-2.35028,1.2036 -2.6313,0.93214 -4.91231,-0.04543c0.0488,0.27102 -0.65833,1.00894 -0.85305,0.81422c-1.70527,-1.70527 0.02584,-6.69521 0.7052,-9.15103c1.69051,-6.11097 1.52156,-16.76408 1.52156,-16.76408c0,0 2.14733,-0.89374 2.42985,-1.27921z" data-paper-data="{&quot;noHover&quot;:false,&quot;origItem&quot;:[&quot;Path&quot;,{&quot;applyMatrix&quot;:true,&quot;segments&quot;:[[[466.70064,646.41478],[0,0],[-0.46558,1.08789]],[465.53553,648.2022],[464.40075,644.93936],[[463.21082,644.176],[0,0],[0.61134,0.81242]],[[464.07675,645.75219],[0,0],[4.13726,12.41179]],[[462.68165,681.75562],[3.38102,-12.22195],[-1.35873,4.91163]],[[461.26239,700.0304],[-3.41054,-3.41054],[0.38945,0.38945]],[[460.9696,698.40427],[0.0976,0.54204],[4.56201,1.95515]],[[476.12066,699.14929],[-4.70055,2.40721],[5.49623,-2.81468]],[[493.35001,685.76001],[-6.58431,0.77838],[10.52138,-1.24381]],[[517.08895,695.65169],[-8.92096,-2.92165],[8.2024,3.0759]],[[544,700.33333],[-8.83625,0.95496],[7.9731,-0.86167]],[[565.13113,687.13113],[-5.35217,5.36942],[2.2423,-2.24953]],[[571.96255,679.90512],[-0.9533,3.04546],[2.3545,-4.2381]],[[574.33333,662],[1.92804,4.7234],[-0.27509,-0.67392]],[[574.13241,664.17444],[0.70927,-0.16364],[-1.65477,0.38177]],[[570.09381,661.06867],[1.38446,0.98351],[-3.69411,-2.62425]],[[558.07692,654.94872],[4.18,1.73469],[-5.55538,-2.30547]],[[540.83581,650.97519],[6.02128,0.31832],[-2.04322,-0.10802]],[[534.42228,651.68165],[1.67076,-1.25006],[-4.30422,1.61408]],[[521.30293,657.26239],[3.99321,-2.29055],[-3.61659,2.07452]],[[508.90619,666.73533],[4.09182,-0.55891],[-2.47515,0.33808]],[[501.41886,666.41008],[2.47842,0.31319],[-10.2974,-1.30125]],[[481.0304,646.92906],[9.40811,1.79878],[-2.95279,-1.26548]],[[470,645],[3.27105,-1.14877],[-0.29316,0.10296]],[[470.57286,645.73533],[0.18368,-0.25061],[-0.56503,0.77092]],[[468.23952,647.402],[0.77778,-0.55556],[0,0]]],&quot;closed&quot;:true}],&quot;origPos&quot;:null}" fill="url(#color-4)" stroke="none" stroke-width="0.5" stroke-linecap="butt"/><path d="M248.36473,326.73725c0.0444,-0.14888 3.01379,0.00508 4.61695,0.10496c4.73276,-0.73348 8.41404,5.57566 13.48201,4.45848c1.21978,-0.26889 1.25323,-3.68163 2.36206,-4.25668c1.83306,-0.95064 3.27181,-4.05533 4.62645,-5.63988c1.37207,-1.60494 2.90317,-2.23776 4.29485,-2.80982c0.46389,-0.19069 4.28381,-1.24625 4.66696,-1.56992c0.5768,-0.86938 3.83358,-0.73305 4.81394,-1.02544c2.88908,-0.86168 2.23117,-0.24944 5.23469,-0.09704c2.25992,0.11467 2.18086,-0.32812 4.36141,0.2871c0.81722,0.23057 2.89814,2.59061 3.61328,2.13282c0.30652,-0.19622 1.91046,5.08041 1.51367,7.47182c0.0627,1.59436 -0.87609,4.37845 -1.55413,5.81453c-1.61843,3.4278 -4.35265,7.4189 -7.96266,9.16419c-4.00082,1.93423 -11.08247,3.82356 -15.46198,3.75304c-4.69199,0.12284 -6.39471,-5.07308 -11.14058,-2.71972c-2.96998,1.47274 -5.42808,7.19928 -7.54355,9.44818c-1.80922,1.92333 -2.16511,1.76208 -4.64197,1.60776c0.13703,0.23887 -0.28105,1.17148 -0.52988,1.05351c-2.1791,-1.03315 -2.22528,-6.31464 -2.41057,-8.85594c-0.46109,-6.3237 -4.1997,-16.30067 -4.1997,-16.30067c0,0 1.72219,-1.5633 1.85876,-2.02128z" data-paper-data="{&quot;noHover&quot;:false,&quot;origItem&quot;:[&quot;Path&quot;,{&quot;applyMatrix&quot;:true,&quot;segments&quot;:[[[466.70064,646.41478],[0,0],[-0.46558,1.08789]],[465.53553,648.2022],[464.40075,644.93936],[[463.21082,644.176],[0,0],[0.61134,0.81242]],[[464.07675,645.75219],[0,0],[4.13726,12.41179]],[[462.68165,681.75562],[3.38102,-12.22195],[-1.35873,4.91163]],[[461.26239,700.0304],[-3.41054,-3.41054],[0.38945,0.38945]],[[460.9696,698.40427],[0.0976,0.54204],[4.56201,1.95515]],[[476.12066,699.14929],[-4.70055,2.40721],[5.49623,-2.81468]],[[493.35001,685.76001],[-6.58431,0.77838],[10.52138,-1.24381]],[[517.08895,695.65169],[-8.92096,-2.92165],[8.2024,3.0759]],[[544,700.33333],[-8.83625,0.95496],[7.9731,-0.86167]],[[565.13113,687.13113],[-5.35217,5.36942],[2.2423,-2.24953]],[[571.96255,679.90512],[-0.9533,3.04546],[2.3545,-4.2381]],[[574.33333,662],[1.92804,4.7234],[-0.27509,-0.67392]],[[574.13241,664.17444],[0.70927,-0.16364],[-1.65477,0.38177]],[[570.09381,661.06867],[1.38446,0.98351],[-3.69411,-2.62425]],[[558.07692,654.94872],[4.18,1.73469],[-5.55538,-2.30547]],[[540.83581,650.97519],[6.02128,0.31832],[-2.04322,-0.10802]],[[534.42228,651.68165],[1.67076,-1.25006],[-4.30422,1.61408]],[[521.30293,657.26239],[3.99321,-2.29055],[-3.61659,2.07452]],[[508.90619,666.73533],[4.09182,-0.55891],[-2.47515,0.33808]],[[501.41886,666.41008],[2.47842,0.31319],[-10.2974,-1.30125]],[[481.0304,646.92906],[9.40811,1.79878],[-2.95279,-1.26548]],[[470,645],[3.27105,-1.14877],[-0.29316,0.10296]],[[470.57286,645.73533],[0.18368,-0.25061],[-0.56503,0.77092]],[[468.23952,647.402],[0.77778,-0.55556],[0,0]]],&quot;closed&quot;:true}],&quot;origPos&quot;:null,&quot;origRot&quot;:0}" fill="url(#color-5)" stroke="none" stroke-width="0.5" stroke-linecap="butt"/><path d="M411.74295,320.0836c0.09184,-0.12531 2.83686,1.01743 4.31326,1.65017c4.70405,0.89939 6.05141,8.07864 11.20011,8.72927c1.23921,0.15659 2.41741,-3.04649 3.65499,-3.21553c2.04591,-0.27945 4.44419,-2.72021 6.25249,-3.75747c1.83157,-1.05061 3.48628,-1.13218 4.98926,-1.20338c0.501,-0.02373 4.4535,0.26558 4.92313,0.08947c0.83538,-0.62503 3.85701,0.59767 4.87862,0.65168c3.01064,0.15916 2.18526,0.51475 4.96295,1.66748c2.09,0.86735 2.16432,0.42373 4.01137,1.73586c0.69223,0.49176 1.85919,3.41378 2.68657,3.22289c0.35463,-0.08182 0.09235,5.42696 -1.0849,7.54601c-0.47665,1.52273 -2.29632,3.82952 -3.41747,4.95428c-2.67609,2.68471 -6.59237,5.52507 -10.57892,5.95591c-4.41812,0.47748 -11.72287,-0.12249 -15.82407,-1.66044c-4.46048,-1.46082 -4.31835,-6.92678 -9.57904,-6.30487c-3.29215,0.38919 -7.53148,4.95687 -10.2796,6.36421c-2.35027,1.2036 -2.6313,0.93214 -4.91231,-0.04543c0.0488,0.27102 -0.65833,1.00894 -0.85305,0.81421c-1.70527,-1.70527 0.02584,-6.69521 0.70521,-9.15103c1.69051,-6.11097 1.52155,-16.76407 1.52155,-16.76407c0,0 2.14733,-0.89375 2.42985,-1.27921z" data-paper-data="{&quot;noHover&quot;:false,&quot;origItem&quot;:[&quot;Path&quot;,{&quot;applyMatrix&quot;:true,&quot;segments&quot;:[[[466.70064,646.41478],[0,0],[-0.46558,1.08789]],[465.53553,648.2022],[464.40075,644.93936],[[463.21082,644.176],[0,0],[0.61134,0.81242]],[[464.07675,645.75219],[0,0],[4.13726,12.41179]],[[462.68165,681.75562],[3.38102,-12.22195],[-1.35873,4.91163]],[[461.26239,700.0304],[-3.41054,-3.41054],[0.38945,0.38945]],[[460.9696,698.40427],[0.0976,0.54204],[4.56201,1.95515]],[[476.12066,699.14929],[-4.70055,2.40721],[5.49623,-2.81468]],[[493.35001,685.76001],[-6.58431,0.77838],[10.52138,-1.24381]],[[517.08895,695.65169],[-8.92096,-2.92165],[8.2024,3.0759]],[[544,700.33333],[-8.83625,0.95496],[7.9731,-0.86167]],[[565.13113,687.13113],[-5.35217,5.36942],[2.2423,-2.24953]],[[571.96255,679.90512],[-0.9533,3.04546],[2.3545,-4.2381]],[[574.33333,662],[1.92804,4.7234],[-0.27509,-0.67392]],[[574.13241,664.17444],[0.70927,-0.16364],[-1.65477,0.38177]],[[570.09381,661.06867],[1.38446,0.98351],[-3.69411,-2.62425]],[[558.07692,654.94872],[4.18,1.73469],[-5.55538,-2.30547]],[[540.83581,650.97519],[6.02128,0.31832],[-2.04322,-0.10802]],[[534.42228,651.68165],[1.67076,-1.25006],[-4.30422,1.61408]],[[521.30293,657.26239],[3.99321,-2.29055],[-3.61659,2.07452]],[[508.90619,666.73533],[4.09182,-0.55891],[-2.47515,0.33808]],[[501.41886,666.41008],[2.47842,0.31319],[-10.2974,-1.30125]],[[481.0304,646.92906],[9.40811,1.79878],[-2.95279,-1.26548]],[[470,645],[3.27105,-1.14877],[-0.29316,0.10296]],[[470.57286,645.73533],[0.18368,-0.25061],[-0.56503,0.77092]],[[468.23952,647.402],[0.77778,-0.55556],[0,0]]],&quot;closed&quot;:true}],&quot;origPos&quot;:null}" fill="url(#color-6)" stroke="none" stroke-width="0.5" stroke-linecap="butt"/></g></g></g></svg>