<svg version="1.1" xmlns="http://www.w3.org/2000/svg" xmlns:xlink="http://www.w3.org/1999/xlink" width="437" height="90.79587" viewBox="0,0,437,90.79587"><defs><linearGradient x1="240" y1="135.60206" x2="240" y2="224.39795" gradientUnits="userSpaceOnUse" id="color-1"><stop offset="0" stop-color="#ffffff"/><stop offset="1" stop-color="#d8d8d8"/></linearGradient><linearGradient x1="240" y1="135.60208" x2="240" y2="224.39795" gradientUnits="userSpaceOnUse" id="color-2"><stop offset="0" stop-color="#343434"/><stop offset="1" stop-color="#090909"/></linearGradient><radialGradient cx="443.8065" cy="206.54466" r="17.9081" gradientUnits="userSpaceOnUse" id="color-3"><stop offset="0" stop-color="#ffffff"/><stop offset="1" stop-color="#e5e5e5"/></radialGradient></defs><g transform="translate(-21.5,-134.60208)"><g data-paper-data="{&quot;isPaintingLayer&quot;:true}" fill-rule="nonzero" stroke-linejoin="miter" stroke-miterlimit="10" stroke-dasharray="" stroke-dashoffset="0" style="mix-blend-mode: normal"><path d="M22.5,224.39795v-88.79587h435v88.79587z" data-paper-data="{&quot;origPos&quot;:null}" fill="url(#color-1)" stroke="url(#color-2)" stroke-width="2" stroke-linecap="butt"/><g data-paper-data="{&quot;origPos&quot;:null}"><path d="M444.3058,202.09868c2.5136,0 4.7909,1.0212 6.4406,2.6702c1.6489,1.6496 2.6702,3.9269 2.6702,6.4405c0,2.5136 -1.0213,4.791 -2.6702,6.4406c-1.6497,1.649 -3.927,2.6702 -6.4406,2.6702c-2.5136,0 -4.7909,-1.0212 -6.4406,-2.6702c-1.6489,-1.6496 -2.6701,-3.927 -2.6701,-6.4406c0,-2.5136 1.0212,-4.7909 2.6701,-6.4405c1.6497,-1.649 3.927,-2.6702 6.4406,-2.6702z" fill="url(#color-3)" stroke="#000000" stroke-width="2.0785" stroke-linecap="butt"/><path d="M441.2734,206.54886l5.6119,0.4503l1.7321,3.187l-3.6374,2.9446l3.3603,-0.5197l0.7967,3.4642l-7.4479,-0.0693l-1.9053,-2.4249l4.6766,-3.3256l-4.5727,-0.3464z" fill="#000000" stroke="none" stroke-width="0.69284" stroke-linecap="round"/></g><g data-paper-data="{&quot;origPos&quot;:null}" stroke="none" stroke-width="1" stroke-linecap="butt"><path d="M32.0415,149.001c2.516,0.529 3.774,0.833 3.774,0.912c-0.164,3.008 -0.326,5.581 -0.484,7.72c0.244,0 1.155,0.082 2.735,0.246c0.608,-5.39 0.951,-8.085 1.03,-8.085c2.23,0.365 3.345,0.587 3.345,0.666c-0.687,5.821 -1.073,8.78 -1.158,8.877c-0.34,0.28 -0.905,0.787 -1.695,1.522c-3.609,-0.109 -5.414,-0.231 -5.414,-0.364l-2.251,-2.616v-3.227c0,-1.245 0.021,-3.108 0.063,-5.587c0.037,0 0.055,-0.021 0.055,-0.064z" data-paper-data="{&quot;origPos&quot;:null}" fill="#000000"/><path d="M50.6905,151.754c1.75,1.118 2.716,1.762 2.898,1.932c-0.632,1.404 -0.993,2.106 -1.085,2.106l-3.317,-1.924h-0.119c0,0.061 -0.143,0.402 -0.428,1.021c3.056,1.647 4.584,2.492 4.584,2.534c-0.856,1.981 -1.339,3.026 -1.449,3.136l-5.186,0.3c-2.017,-1.336 -3.102,-2.041 -3.254,-2.114v-0.055c0,-0.152 0.301,-0.835 0.902,-2.051l4.047,2.106l0.301,-1.203c-2.503,-1.124 -3.992,-1.826 -4.466,-2.106v-0.127c0,-0.231 0.483,-1.255 1.449,-3.072z" data-paper-data="{&quot;origPos&quot;:null}" fill="#000000"/><path d="M59.6585,151.763c2.753,1.416 4.278,2.242 4.576,2.479c-0.395,1.847 -0.629,2.798 -0.702,2.853h-5.76v0.1l1.613,1.996l2.534,-1.294c0.249,0.432 0.607,1.185 1.075,2.261c-0.219,0.072 -1.814,0.306 -4.785,0.701c-2.461,-1.622 -3.7,-2.467 -3.719,-2.534c0.395,-3.153 0.629,-4.73 0.702,-4.73c2.57,-1.094 4.059,-1.704 4.466,-1.832zM59.0665,153.969c-0.049,0.121 -0.371,0.604 -0.966,1.449c0,0.255 0.358,0.383 1.075,0.383c0,0.036 0.52,0.124 1.559,0.264c0.285,-0.395 0.428,-0.626 0.428,-0.693c-0.091,-0.54 -0.288,-0.811 -0.592,-0.811z" data-paper-data="{&quot;origPos&quot;:null}" fill="#000000"/><path d="M74.6155,151.754l0.064,0.118l-1.23,6.526h0.063l3.136,-0.92v-3.692c0.012,-0.085 0.052,-0.127 0.118,-0.127c2.358,0.164 3.671,0.246 3.938,0.246c0,0.042 0.021,0.064 0.064,0.064c0,1.039 -0.328,3.193 -0.985,6.462c0,0.188 -0.942,0.331 -2.825,0.428c-0.097,-0.115 -0.179,-0.361 -0.246,-0.738c-2.413,0.492 -3.789,0.738 -4.129,0.738c-1.926,-1.434 -2.89,-2.172 -2.89,-2.215c0.329,-4.308 0.535,-6.544 0.62,-6.708h0.055c1.537,-0.042 2.953,-0.103 4.247,-0.182z" data-paper-data="{&quot;origPos&quot;:null}" fill="#2b70c2"/><path d="M86.2645,151.763c0.188,0.778 0.319,1.258 0.392,1.44c2.685,-0.614 4.104,-0.92 4.256,-0.92c1.829,2.631 2.744,4.004 2.744,4.119l-2.097,4.448l-4.511,-0.72v0.137c0.352,2.704 0.528,4.141 0.528,4.311c-0.042,0 -0.064,0.021 -0.064,0.064c-0.437,-0.043 -0.765,-0.064 -0.984,-0.064h-0.784c-0.455,0 -1.154,-0.021 -2.096,-0.064c-0.085,-0.255 -0.738,-4.135 -1.96,-11.639c0.207,-0.085 1.732,-0.456 4.576,-1.112zM86.5925,155.491c0.121,1.397 0.231,2.096 0.328,2.096c1.246,0.432 2.008,0.647 2.288,0.647l0.72,-3.135h-0.064c-0.711,0.042 -1.802,0.173 -3.272,0.392z" data-paper-data="{&quot;origPos&quot;:null}" fill="#2b70c2"/><path d="M100.6105,151.754c3.61,0.498 5.414,0.805 5.414,0.92c1.422,1.222 2.133,1.875 2.133,1.96c-0.577,1.805 -0.905,2.902 -0.984,3.29c0.577,1.283 0.905,2.048 0.984,2.297c0,0.073 -0.942,0.268 -2.826,0.584c-0.024,-0.104 -0.197,-0.335 -0.519,-0.693c-2.601,0.498 -4.001,0.747 -4.202,0.747l-1.385,-3.746l3.053,-1.613c0.492,0.079 1.261,0.118 2.306,0.118c0,-0.133 0.018,-0.537 0.055,-1.212c-0.176,0 -1.75,0.116 -4.722,0.347l-0.054,-0.119c0.413,-1.92 0.662,-2.88 0.747,-2.88zM102.5065,157.11301c0,0.067 0.194,0.778 0.583,2.133h0.055c0.766,-0.498 1.148,-0.826 1.148,-0.984l0.119,-0.976c-0.146,0 -0.781,-0.057 -1.905,-0.173z" data-paper-data="{&quot;origPos&quot;:null}" fill="#2b70c2"/><path d="M115.5765,151.754c1.203,0.674 1.942,1.112 2.215,1.312c-0.984,2.048 -1.513,3.09 -1.586,3.127h-0.064l-1.303,-1.14l-1.54,1.878l0.173,3.418c-0.079,0.073 -1.085,0.243 -3.017,0.51c-0.073,-0.522 -0.547,-3.083 -1.422,-7.683c0,-0.073 1.27,-0.262 3.81,-0.565c0.042,0.048 0.158,0.616 0.346,1.704c1.519,-1.707 2.315,-2.561 2.388,-2.561z" data-paper-data="{&quot;origPos&quot;:null}" fill="#2b70c2"/><path d="M125.0555,151.754c1.204,0.674 1.942,1.112 2.215,1.312c-0.984,2.048 -1.513,3.09 -1.586,3.127h-0.063l-1.304,-1.14l-1.54,1.878l0.173,3.418c-0.079,0.073 -1.085,0.243 -3.017,0.51c-0.073,-0.522 -0.547,-3.083 -1.422,-7.683c0,-0.073 1.27,-0.262 3.81,-0.565c0.043,0.048 0.158,0.616 0.346,1.704c1.52,-1.707 2.316,-2.561 2.388,-2.561z" data-paper-data="{&quot;origPos&quot;:null}" fill="#2b70c2"/><path d="M131.6645,151.763c2.309,0.62 3.533,0.997 3.673,1.13c1.27,1.799 1.984,2.835 2.142,3.108c-0.821,2.601 -1.292,3.901 -1.413,3.901c-2.735,0.638 -4.166,0.957 -4.293,0.957c-2.261,-1.318 -3.464,-2.053 -3.609,-2.205c-0.079,-2.455 -0.119,-3.81 -0.119,-4.065c-0.036,-0.073 -0.055,-0.128 -0.055,-0.165c2.334,-1.774 3.54,-2.661 3.619,-2.661zM131.4365,155.099c-0.037,0.243 -0.092,1.127 -0.164,2.652l2.032,0.456c0.486,-1.519 0.729,-2.33 0.729,-2.434c-1.616,-0.486 -2.482,-0.729 -2.597,-0.729z" data-paper-data="{&quot;origPos&quot;:null}" fill="#2b70c2"/><path d="M142.3095,151.754c0.079,0.103 0.49,1.865 1.231,5.286h0.064c0,-0.079 0.449,-0.774 1.349,-2.087c0.376,0.255 1.093,0.808 2.151,1.659h0.127v-0.064c0.164,-2.37 0.286,-3.682 0.365,-3.937c2.503,0.127 3.755,0.231 3.755,0.31c-1.148,4.618 -1.762,7.018 -1.841,7.2c-0.383,0.043 -1.185,0.164 -2.406,0.365c-1.003,-1.574 -1.577,-2.413 -1.723,-2.516c-0.656,1.75 -1.066,2.713 -1.23,2.889h-2.461c-0.152,-0.048 -0.869,-1.628 -2.151,-4.739c-0.821,-1.738 -1.231,-2.68 -1.231,-2.826c0,-0.133 1.334,-0.647 4.001,-1.54z" data-paper-data="{&quot;origPos&quot;:null}" fill="#2b70c2"/><path d="M160.6485,151.763c2.309,0.62 3.533,0.997 3.673,1.13c1.27,1.799 1.984,2.835 2.142,3.108c-0.82,2.601 -1.291,3.901 -1.413,3.901c-2.734,0.638 -4.165,0.957 -4.293,0.957c-2.26,-1.318 -3.463,-2.053 -3.609,-2.205c-0.079,-2.455 -0.119,-3.81 -0.119,-4.065c-0.036,-0.073 -0.054,-0.128 -0.054,-0.165c2.333,-1.774 3.539,-2.661 3.618,-2.661zM160.4205,155.099c-0.036,0.243 -0.091,1.127 -0.164,2.652l2.033,0.456c0.486,-1.519 0.729,-2.33 0.729,-2.434c-1.617,-0.486 -2.483,-0.729 -2.598,-0.729z" data-paper-data="{&quot;origPos&quot;:null}" fill="#000000"/><path d="M173.8375,151.754c1.203,0.674 1.941,1.112 2.215,1.312c-0.985,2.048 -1.513,3.09 -1.586,3.127h-0.064l-1.304,-1.14l-1.54,1.878l0.173,3.418c-0.079,0.073 -1.084,0.243 -3.017,0.51c-0.073,-0.522 -0.547,-3.083 -1.422,-7.683c0,-0.073 1.27,-0.262 3.81,-0.565c0.043,0.048 0.158,0.616 0.347,1.704c1.519,-1.707 2.315,-2.561 2.388,-2.561z" data-paper-data="{&quot;origPos&quot;:null}" fill="#000000"/><path d="M186.2605,149.01l0.064,0.119l0.474,6.927h0.054l2.489,-2.607c1.464,1.975 2.214,2.962 2.251,2.962c0.632,-3.092 1.027,-4.949 1.185,-5.569c2.686,0.517 4.028,0.833 4.028,0.948c-1.616,5.135 -2.543,8.039 -2.78,8.714c-0.571,0.036 -1.835,0.155 -3.791,0.355c-0.869,-2.078 -1.304,-3.144 -1.304,-3.199c-0.072,0.006 -0.528,0.915 -1.367,2.725h-0.054c-2.607,-0.176 -3.911,-0.334 -3.911,-0.474c-1.464,-6.459 -2.196,-9.776 -2.196,-9.953v-0.118c0,-0.122 1.619,-0.398 4.858,-0.83z" data-paper-data="{&quot;origPos&quot;:null}" fill="#2b70c2"/><path d="M205.1645,149.001l4.01,0.711l-0.383,3.044c0.796,-0.042 1.379,-0.063 1.75,-0.063h0.583l0.128,-0.064l0.064,0.127c-0.128,1.848 -0.237,2.887 -0.328,3.118l-0.128,-0.073c-0.091,0 -0.911,-0.043 -2.461,-0.128c-0.085,1.428 -0.149,3.136 -0.191,5.123l-0.128,0.063c-1.956,-0.127 -3.123,-0.237 -3.5,-0.328l0.064,-0.255c0,-0.529 0.085,-2.169 0.255,-4.922c-1.64,-0.091 -2.461,-0.2 -2.461,-0.328c0.085,-2.03 0.195,-3.044 0.328,-3.044l2.398,0.455v-0.783c0,-0.638 -0.025,-1.501 -0.073,-2.589c0.048,0 0.073,-0.021 0.073,-0.064z" data-paper-data="{&quot;origPos&quot;:null}" fill="#000000"/><path d="M215.9555,151.763c2.309,0.62 3.534,0.997 3.673,1.13c1.27,1.799 1.984,2.835 2.142,3.108c-0.82,2.601 -1.291,3.901 -1.412,3.901c-2.735,0.638 -4.166,0.957 -4.293,0.957c-2.261,-1.318 -3.464,-2.053 -3.61,-2.205c-0.079,-2.455 -0.118,-3.81 -0.118,-4.065c-0.037,-0.073 -0.055,-0.128 -0.055,-0.165c2.333,-1.774 3.539,-2.661 3.618,-2.661zM215.7275,155.099c-0.036,0.243 -0.091,1.127 -0.164,2.652l2.033,0.456c0.486,-1.519 0.729,-2.33 0.729,-2.434c-1.616,-0.486 -2.482,-0.729 -2.598,-0.729z" data-paper-data="{&quot;origPos&quot;:null}" fill="#000000"/><path d="M236.6825,147.944l3.591,0.565c-0.45,1.726 -0.744,2.589 -0.884,2.589c-1.89,-0.128 -2.835,-0.256 -2.835,-0.383v-2.643c0.012,-0.085 0.055,-0.128 0.128,-0.128zM235.6705,151.79l4.348,1.131c-0.881,5.104 -1.364,7.814 -1.45,8.13c-0.188,0.17 -1.74,0.948 -4.657,2.333c-2.321,-1.094 -3.749,-1.786 -4.284,-2.078c-0.589,-2.248 -0.927,-3.488 -1.012,-3.719c0.085,-0.085 1.282,-0.422 3.591,-1.012c0,0.043 0.022,0.064 0.064,0.064c-0.042,0.085 -0.064,0.149 -0.064,0.192c0,0.285 -0.085,1.273 -0.255,2.962c2.036,-0.255 3.254,-0.422 3.655,-0.501v-1.641c0,-0.097 -0.018,-0.182 -0.054,-0.255l0.054,-0.128c-0.036,-0.073 -0.054,-0.155 -0.054,-0.246h0.054l-0.054,-0.128v-0.063c0,-0.043 0.018,-0.064 0.054,-0.064l-0.054,-0.128v-0.064c0,-0.042 0.018,-0.063 0.054,-0.063l-0.054,-0.119v-4.475c0.012,-0.085 0.051,-0.128 0.118,-0.128z" data-paper-data="{&quot;origPos&quot;:null}" fill="#2b70c2"/><path d="M246.1885,151.754l0.064,0.118l-1.23,6.526h0.063l3.136,-0.92v-3.692c0.012,-0.085 0.051,-0.127 0.118,-0.127c2.358,0.164 3.67,0.246 3.938,0.246c0,0.042 0.021,0.064 0.064,0.064c0,1.039 -0.329,3.193 -0.985,6.462c0,0.188 -0.942,0.331 -2.825,0.428c-0.098,-0.115 -0.18,-0.361 -0.246,-0.738c-2.413,0.492 -3.789,0.738 -4.129,0.738c-1.927,-1.434 -2.89,-2.172 -2.89,-2.215c0.328,-4.308 0.535,-6.544 0.62,-6.708h0.055c1.537,-0.042 2.953,-0.103 4.247,-0.182z" data-paper-data="{&quot;origPos&quot;:null}" fill="#2b70c2"/><path d="M263.3875,151.754c1.483,0.614 2.762,1.191 3.838,1.732c-0.28,3.615 -0.459,5.593 -0.538,5.933c-1.787,0.444 -2.786,0.666 -2.999,0.666c0,-0.79 -0.061,-2.349 -0.182,-4.676c-0.675,0.067 -1.012,0.124 -1.012,0.173c0,0.231 0.04,1.549 0.119,3.956c0.036,0 0.054,0.021 0.054,0.064c0,0.072 -0.938,0.273 -2.816,0.601c-0.079,-0.097 -0.319,-1.577 -0.72,-4.439c-0.76,0.195 -1.139,0.334 -1.139,0.42l0.364,3.718c-0.073,0.079 -1.072,0.398 -2.998,0.957c-1.119,-3.955 -1.817,-6.611 -2.097,-7.966c2.109,-0.522 3.288,-0.784 3.537,-0.784c0.279,1.106 0.419,1.744 0.419,1.914h0.064c1.027,-0.948 1.744,-1.586 2.151,-1.914h0.064l1.914,1.377h0.063c1.197,-1.155 1.835,-1.732 1.914,-1.732z" data-paper-data="{&quot;origPos&quot;:null}" fill="#2b70c2"/><path d="M272.7125,151.763c0.188,0.778 0.319,1.258 0.392,1.44c2.685,-0.614 4.104,-0.92 4.256,-0.92c1.829,2.631 2.744,4.004 2.744,4.119l-2.097,4.448l-4.511,-0.72v0.137c0.352,2.704 0.528,4.141 0.528,4.311c-0.042,0 -0.064,0.021 -0.064,0.064c-0.437,-0.043 -0.765,-0.064 -0.984,-0.064h-0.784c-0.456,0 -1.154,-0.021 -2.096,-0.064c-0.085,-0.255 -0.738,-4.135 -1.96,-11.639c0.207,-0.085 1.732,-0.456 4.576,-1.112zM273.0405,155.491c0.121,1.397 0.231,2.096 0.328,2.096c1.246,0.432 2.008,0.647 2.288,0.647l0.72,-3.135h-0.064c-0.711,0.042 -1.802,0.173 -3.272,0.392z" data-paper-data="{&quot;origPos&quot;:null}" fill="#2b70c2"/><path d="M287.0585,151.754c3.609,0.498 5.414,0.805 5.414,0.92c1.422,1.222 2.133,1.875 2.133,1.96c-0.577,1.805 -0.905,2.902 -0.984,3.29c0.577,1.283 0.905,2.048 0.984,2.297c0,0.073 -0.942,0.268 -2.826,0.584c-0.024,-0.104 -0.197,-0.335 -0.519,-0.693c-2.601,0.498 -4.001,0.747 -4.202,0.747l-1.385,-3.746l3.053,-1.613c0.492,0.079 1.261,0.118 2.306,0.118c0,-0.133 0.018,-0.537 0.055,-1.212c-0.177,0 -1.75,0.116 -4.722,0.347l-0.054,-0.119c0.413,-1.92 0.662,-2.88 0.747,-2.88zM288.9545,157.11301c0,0.067 0.194,0.778 0.583,2.133h0.055c0.766,-0.498 1.148,-0.826 1.148,-0.984l0.119,-0.976c-0.146,0 -0.781,-0.057 -1.905,-0.173z" data-paper-data="{&quot;origPos&quot;:null}" fill="#000000"/><path d="M303.5745,151.754l3.035,2.087c-0.213,3.464 -0.362,5.487 -0.447,6.07c-0.352,0.043 -1.425,0.107 -3.217,0.192l-0.064,-0.128l-0.319,-4.867l-0.128,-0.064c-1.16,0.249 -1.959,0.438 -2.397,0.565c0.122,2.072 0.182,3.57 0.182,4.494c-1.81,0.504 -2.801,0.756 -2.971,0.756c-1.179,-5.189 -1.768,-7.929 -1.768,-8.221c2.564,-0.334 3.956,-0.501 4.174,-0.501v0.063c0.043,0.031 0.107,0.663 0.192,1.896c2.351,-1.561 3.594,-2.342 3.728,-2.342z" data-paper-data="{&quot;origPos&quot;:null}" fill="#000000"/><path d="M313.0255,148.992h0.055c2.747,0.231 4.12,0.41 4.12,0.538l1.212,10.728c0,0.079 -1.212,0.279 -3.636,0.601l-0.055,-0.118v-0.975c-2.09,0.565 -3.525,0.929 -4.302,1.093c-1.848,-2.613 -2.817,-4.004 -2.908,-4.174c1.361,-2.473 2.087,-3.725 2.179,-3.755l3.819,0.182c-0.079,-0.468 -0.24,-1.841 -0.484,-4.12zM311.3305,155.527c0.614,1.878 0.997,2.908 1.149,3.09l1.813,-1.577c-0.188,-1.087 -0.328,-1.631 -0.419,-1.631h-2.424c-0.079,0.012 -0.119,0.051 -0.119,0.118z" data-paper-data="{&quot;origPos&quot;:null}" fill="#000000"/><path d="M330.7905,151.781c2.582,0.067 3.873,0.179 3.873,0.337c0.444,6.727 0.666,10.306 0.666,10.737c-1.957,1.246 -3.357,2.091 -4.202,2.534c-2.977,-0.935 -4.466,-1.47 -4.466,-1.604c0.96,-1.404 1.516,-2.114 1.668,-2.133c1.622,0.802 2.555,1.203 2.798,1.203l0.866,-1.139c-0.231,-0.942 -0.386,-1.498 -0.465,-1.668c-0.134,0 -1.78,0.268 -4.94,0.802c-1.732,-2.813 -2.598,-4.256 -2.598,-4.329c1.495,-2.388 2.407,-3.789 2.735,-4.202h0.064c0.176,0 1.488,0.289 3.937,0.866v-0.201c0,-0.237 -0.021,-0.616 -0.064,-1.139zM327.8005,155.71c0.085,0.188 0.353,1.191 0.802,3.007c0.565,-0.182 1.431,-0.516 2.598,-1.002c-0.225,-1.094 -0.337,-1.717 -0.337,-1.869l-0.328,-0.063h-0.401c-0.511,0 -1.289,-0.025 -2.334,-0.073z" data-paper-data="{&quot;origPos&quot;:null}" fill="#000000"/><path d="M341.4815,151.763c2.753,1.416 4.278,2.242 4.576,2.479c-0.395,1.847 -0.629,2.798 -0.702,2.853h-5.76v0.1l1.613,1.996l2.534,-1.294c0.249,0.432 0.607,1.185 1.075,2.261c-0.219,0.072 -1.814,0.306 -4.785,0.701c-2.461,-1.622 -3.701,-2.467 -3.719,-2.534c0.395,-3.153 0.629,-4.73 0.702,-4.73c2.57,-1.094 4.059,-1.704 4.466,-1.832zM340.8895,153.969c-0.049,0.121 -0.371,0.604 -0.966,1.449c0,0.255 0.358,0.383 1.075,0.383c0,0.036 0.52,0.124 1.559,0.264c0.285,-0.395 0.428,-0.626 0.428,-0.693c-0.091,-0.54 -0.288,-0.811 -0.592,-0.811z" data-paper-data="{&quot;origPos&quot;:null}" fill="#000000"/><path d="M349.6115,149.001l4.011,0.711l-0.383,3.044c0.796,-0.042 1.379,-0.063 1.75,-0.063h0.583l0.128,-0.064l0.064,0.127c-0.128,1.848 -0.237,2.887 -0.328,3.118l-0.128,-0.073c-0.091,0 -0.911,-0.043 -2.461,-0.128c-0.085,1.428 -0.149,3.136 -0.191,5.123l-0.128,0.063c-1.957,-0.127 -3.123,-0.237 -3.5,-0.328l0.064,-0.255c0,-0.529 0.085,-2.169 0.255,-4.922c-1.641,-0.091 -2.461,-0.2 -2.461,-0.328c0.085,-2.03 0.195,-3.044 0.328,-3.044l2.397,0.455v-0.783c0,-0.638 -0.024,-1.501 -0.072,-2.589c0.048,0 0.072,-0.021 0.072,-0.064z" data-paper-data="{&quot;origPos&quot;:null}" fill="#000000"/><path d="M365.0335,151.763c2.309,0.62 3.534,0.997 3.673,1.13c1.27,1.799 1.984,2.835 2.142,3.108c-0.82,2.601 -1.291,3.901 -1.412,3.901c-2.735,0.638 -4.166,0.957 -4.293,0.957c-2.261,-1.318 -3.464,-2.053 -3.61,-2.205c-0.079,-2.455 -0.118,-3.81 -0.118,-4.065c-0.037,-0.073 -0.055,-0.128 -0.055,-0.165c2.333,-1.774 3.54,-2.661 3.619,-2.661zM364.8055,155.099c-0.036,0.243 -0.091,1.127 -0.164,2.652l2.033,0.456c0.486,-1.519 0.729,-2.33 0.729,-2.434c-1.616,-0.486 -2.482,-0.729 -2.598,-0.729z" data-paper-data="{&quot;origPos&quot;:null}" fill="#000000"/><path d="M375.2235,151.754c1.489,3.415 2.282,5.186 2.379,5.314c0.736,-2.789 1.164,-4.275 1.285,-4.457c2.322,0.212 3.482,0.395 3.482,0.547v0.063c-1.628,4.473 -2.503,6.815 -2.625,7.028c-1.798,0.328 -3.002,0.531 -3.609,0.61l-4.457,-6.599v-0.127c0.042,-0.079 1.224,-0.872 3.545,-2.379z" data-paper-data="{&quot;origPos&quot;:null}" fill="#000000"/><path d="M388.5125,151.763c2.753,1.416 4.278,2.242 4.576,2.479c-0.395,1.847 -0.629,2.798 -0.702,2.853h-5.76v0.1l1.613,1.996l2.534,-1.294c0.249,0.432 0.608,1.185 1.075,2.261c-0.218,0.072 -1.813,0.306 -4.785,0.701c-2.461,-1.622 -3.7,-2.467 -3.718,-2.534c0.394,-3.153 0.628,-4.73 0.701,-4.73c2.571,-1.094 4.059,-1.704 4.466,-1.832zM387.9205,153.969c-0.049,0.121 -0.371,0.604 -0.966,1.449c0,0.255 0.358,0.383 1.075,0.383c0,0.036 0.52,0.124 1.559,0.264c0.286,-0.395 0.428,-0.626 0.428,-0.693c-0.091,-0.54 -0.288,-0.811 -0.592,-0.811z" data-paper-data="{&quot;origPos&quot;:null}" fill="#000000"/><path d="M400.4625,151.754c1.203,0.674 1.941,1.112 2.215,1.312c-0.985,2.048 -1.513,3.09 -1.586,3.127h-0.064l-1.304,-1.14l-1.54,1.878l0.173,3.418c-0.079,0.073 -1.084,0.243 -3.017,0.51c-0.073,-0.522 -0.547,-3.083 -1.422,-7.683c0,-0.073 1.27,-0.262 3.81,-0.565c0.043,0.048 0.158,0.616 0.347,1.704c1.519,-1.707 2.315,-2.561 2.388,-2.561z" data-paper-data="{&quot;origPos&quot;:null}" fill="#000000"/><path d="M410.7525,149.001l4.01,0.711l-0.382,3.044c0.796,-0.042 1.379,-0.063 1.75,-0.063h0.583l0.128,-0.064l0.063,0.127c-0.127,1.848 -0.237,2.887 -0.328,3.118l-0.127,-0.073c-0.091,0 -0.912,-0.043 -2.461,-0.128c-0.085,1.428 -0.149,3.136 -0.192,5.123l-0.127,0.063c-1.957,-0.127 -3.124,-0.237 -3.5,-0.328l0.064,-0.255c0,-0.529 0.085,-2.169 0.255,-4.922c-1.641,-0.091 -2.461,-0.2 -2.461,-0.328c0.085,-2.03 0.194,-3.044 0.328,-3.044l2.397,0.455v-0.783c0,-0.638 -0.024,-1.501 -0.073,-2.589c0.049,0 0.073,-0.021 0.073,-0.064z" data-paper-data="{&quot;origPos&quot;:null}" fill="#000000"/><path d="M421.9545,149.001c0.036,0.055 0.206,1.72 0.51,4.995c2.346,-0.717 3.594,-1.075 3.746,-1.075l2.325,1.585c-0.377,3.464 -0.623,5.487 -0.739,6.071l-3.226,0.109c0,-0.036 -0.022,-0.055 -0.064,-0.055l0.064,-0.227c0,-0.493 0.073,-1.987 0.219,-4.485c-0.888,-0.036 -1.547,-0.054 -1.978,-0.054h-0.228c0.261,2.776 0.392,4.289 0.392,4.539l-3.063,0.455c-0.115,-0.389 -0.796,-4.019 -2.041,-10.892c0,-0.194 0.473,-0.346 1.421,-0.455c1.197,-0.341 2.085,-0.511 2.662,-0.511z" data-paper-data="{&quot;origPos&quot;:null}" fill="#000000"/><path d="M430.7775,151.754c3.609,0.498 5.414,0.805 5.414,0.92c1.422,1.222 2.133,1.875 2.133,1.96c-0.578,1.805 -0.906,2.902 -0.985,3.29c0.578,1.283 0.906,2.048 0.985,2.297c0,0.073 -0.942,0.268 -2.826,0.584c-0.024,-0.104 -0.197,-0.335 -0.519,-0.693c-2.601,0.498 -4.002,0.747 -4.202,0.747l-1.386,-3.746l3.054,-1.613c0.492,0.079 1.261,0.118 2.306,0.118c0,-0.133 0.018,-0.537 0.054,-1.212c-0.176,0 -1.75,0.116 -4.721,0.347l-0.055,-0.119c0.414,-1.92 0.663,-2.88 0.748,-2.88zM432.6735,157.11301c0,0.067 0.194,0.778 0.583,2.133h0.055c0.765,-0.498 1.148,-0.826 1.148,-0.984l0.119,-0.976c-0.146,0 -0.781,-0.057 -1.905,-0.173z" data-paper-data="{&quot;origPos&quot;:null}" fill="#000000"/><path d="M441.9245,149.001l4.01,0.711l-0.382,3.044c0.796,-0.042 1.379,-0.063 1.75,-0.063h0.583l0.127,-0.064l0.064,0.127c-0.127,1.848 -0.237,2.887 -0.328,3.118l-0.127,-0.073c-0.092,0 -0.912,-0.043 -2.461,-0.128c-0.085,1.428 -0.149,3.136 -0.192,5.123l-0.127,0.063c-1.957,-0.127 -3.124,-0.237 -3.5,-0.328l0.063,-0.255c0,-0.529 0.085,-2.169 0.256,-4.922c-1.641,-0.091 -2.461,-0.2 -2.461,-0.328c0.085,-2.03 0.194,-3.044 0.328,-3.044l2.397,0.455v-0.783c0,-0.638 -0.024,-1.501 -0.073,-2.589c0.049,0 0.073,-0.021 0.073,-0.064z" data-paper-data="{&quot;origPos&quot;:null}" fill="#000000"/><path d="M36.4985,175.096c0.189,0.778 0.319,1.258 0.392,1.44c2.686,-0.613 4.105,-0.92 4.257,-0.92c1.829,2.631 2.743,4.004 2.743,4.12l-2.096,4.448l-4.512,-0.72v0.136c0.352,2.704 0.529,4.141 0.529,4.311c-0.043,0 -0.064,0.022 -0.064,0.064c-0.438,-0.042 -0.766,-0.064 -0.985,-0.064h-0.783c-0.456,0 -1.155,-0.021 -2.097,-0.063c-0.085,-0.256 -0.738,-4.135 -1.959,-11.64c0.206,-0.085 1.731,-0.455 4.575,-1.112zM36.8265,178.824c0.122,1.398 0.231,2.097 0.328,2.097c1.246,0.431 2.009,0.647 2.288,0.647l0.72,-3.136h-0.064c-0.711,0.043 -1.801,0.173 -3.272,0.392z" data-paper-data="{&quot;origPos&quot;:null}" fill="#000000"/><path d="M46.0875,171.43201l3.582,0.565c-0.45,1.72 -0.745,2.58 -0.884,2.58c-1.884,-0.128 -2.826,-0.252 -2.826,-0.374v-2.643c0.018,-0.085 0.061,-0.128 0.128,-0.128zM45.0845,175.77101h0.055c2.771,0.504 4.156,0.799 4.156,0.884c-0.796,4.509 -1.279,7.021 -1.449,7.538h-2.89c-0.085,0 -0.127,-0.043 -0.127,-0.128z" data-paper-data="{&quot;origPos&quot;:null}" fill="#000000"/><path d="M54.5455,175.096c0.188,0.778 0.319,1.258 0.392,1.44c2.686,-0.613 4.105,-0.92 4.256,-0.92c1.829,2.631 2.744,4.004 2.744,4.12l-2.096,4.448l-4.512,-0.72v0.136c0.352,2.704 0.529,4.141 0.529,4.311c-0.043,0 -0.064,0.022 -0.064,0.064c-0.438,-0.042 -0.766,-0.064 -0.985,-0.064h-0.784c-0.455,0 -1.154,-0.021 -2.096,-0.063c-0.085,-0.256 -0.738,-4.135 -1.959,-11.64c0.206,-0.085 1.731,-0.455 4.575,-1.112zM54.8735,178.824c0.122,1.398 0.231,2.097 0.328,2.097c1.246,0.431 2.009,0.647 2.288,0.647l0.72,-3.136h-0.064c-0.711,0.043 -1.801,0.173 -3.272,0.392z" data-paper-data="{&quot;origPos&quot;:null}" fill="#000000"/><path d="M68.0445,175.096c2.752,1.416 4.278,2.243 4.575,2.479c-0.395,1.848 -0.629,2.799 -0.702,2.853h-5.76v0.101l1.613,1.996l2.534,-1.295c0.249,0.432 0.608,1.185 1.076,2.261c-0.219,0.073 -1.814,0.307 -4.785,0.702c-2.461,-1.623 -3.701,-2.467 -3.719,-2.534c0.395,-3.154 0.629,-4.731 0.702,-4.731c2.57,-1.093 4.059,-1.704 4.466,-1.832zM67.4515,177.30201c-0.048,0.122 -0.37,0.605 -0.966,1.449c0,0.255 0.359,0.383 1.076,0.383c0,0.037 0.519,0.125 1.558,0.264c0.286,-0.395 0.429,-0.625 0.429,-0.692c-0.092,-0.541 -0.289,-0.811 -0.593,-0.811z" data-paper-data="{&quot;origPos&quot;:null}" fill="#000000"/><path d="M77.4595,172.67201l0.037,0.073c-0.608,5.365 -0.948,8.185 -1.021,8.458c-1.288,-0.121 -2.103,-0.206 -2.443,-0.255v-0.037l-0.583,-7.619c0.146,-0.049 1.482,-0.256 4.01,-0.62zM73.8505,181.38501c0.042,0.025 0.99,0.098 2.843,0.219l0.037,0.073c-0.286,1.677 -0.468,2.516 -0.547,2.516h-2.115c-0.072,0 -0.17,-0.839 -0.291,-2.516c-0.025,0 -0.037,-0.073 -0.037,-0.219c0.073,-0.024 0.11,-0.048 0.11,-0.073z" data-paper-data="{&quot;origPos&quot;:null}" fill="#000000"/><path d="M89.5455,172.335l3.974,2.935c-0.547,2.497 -0.893,3.746 -1.039,3.746c-0.03,0 -0.76,0.613 -2.188,1.841c-0.887,-0.043 -1.901,-0.101 -3.044,-0.173l-0.118,3.281c-0.249,0.073 -1.325,0.149 -3.227,0.228c-0.231,0 -0.346,-0.654 -0.346,-1.96c-0.42,-5.408 -0.629,-8.325 -0.629,-8.75c0.711,-0.152 2.917,-0.535 6.617,-1.148zM87.0755,174.923v3.801c1.495,-0.267 2.242,-0.422 2.242,-0.465l0.52,-2.242c-0.736,-0.304 -1.656,-0.669 -2.762,-1.094z" data-paper-data="{&quot;origPos&quot;:null}" fill="#000000"/><path d="M101.1025,175.08701c1.203,0.675 1.942,1.112 2.215,1.313c-0.984,2.047 -1.513,3.09 -1.586,3.126h-0.064l-1.303,-1.139l-1.54,1.877l0.173,3.418c-0.079,0.073 -1.085,0.243 -3.017,0.511c-0.073,-0.523 -0.547,-3.084 -1.422,-7.684c0,-0.073 1.27,-0.261 3.81,-0.565c0.042,0.049 0.158,0.617 0.346,1.704c1.519,-1.707 2.315,-2.561 2.388,-2.561z" data-paper-data="{&quot;origPos&quot;:null}" fill="#000000"/><path d="M109.2055,175.096c2.753,1.416 4.278,2.243 4.576,2.479c-0.395,1.848 -0.629,2.799 -0.702,2.853h-5.761v0.101l1.614,1.996l2.534,-1.295c0.249,0.432 0.607,1.185 1.075,2.261c-0.219,0.073 -1.814,0.307 -4.785,0.702c-2.461,-1.623 -3.701,-2.467 -3.719,-2.534c0.395,-3.154 0.629,-4.731 0.702,-4.731c2.57,-1.093 4.059,-1.704 4.466,-1.832zM108.6135,177.30201c-0.049,0.122 -0.371,0.605 -0.966,1.449c0,0.255 0.358,0.383 1.075,0.383c0,0.037 0.52,0.125 1.559,0.264c0.285,-0.395 0.428,-0.625 0.428,-0.692c-0.091,-0.541 -0.289,-0.811 -0.592,-0.811z" data-paper-data="{&quot;origPos&quot;:null}" fill="#000000"/><path d="M121.9665,175.08701c1.75,1.118 2.716,1.762 2.898,1.933c-0.632,1.403 -0.993,2.105 -1.085,2.105l-3.317,-1.923h-0.119c0,0.061 -0.143,0.401 -0.428,1.021c3.056,1.646 4.584,2.491 4.584,2.533c-0.856,1.981 -1.339,3.027 -1.449,3.136l-5.186,0.301c-2.017,-1.337 -3.102,-2.042 -3.254,-2.115v-0.055c0,-0.152 0.301,-0.835 0.902,-2.05l4.047,2.105l0.301,-1.203c-2.503,-1.124 -3.992,-1.826 -4.466,-2.105v-0.128c0,-0.231 0.483,-1.255 1.449,-3.072z" data-paper-data="{&quot;origPos&quot;:null}" fill="#000000"/><path d="M133.1225,175.08701c1.75,1.118 2.716,1.762 2.898,1.933c-0.632,1.403 -0.993,2.105 -1.084,2.105l-3.318,-1.923h-0.119c0,0.061 -0.142,0.401 -0.428,1.021c3.056,1.646 4.585,2.491 4.585,2.533c-0.857,1.981 -1.34,3.027 -1.45,3.136l-5.186,0.301c-2.017,-1.337 -3.102,-2.042 -3.254,-2.115v-0.055c0,-0.152 0.301,-0.835 0.903,-2.05l4.047,2.105l0.3,-1.203c-2.503,-1.124 -3.992,-1.826 -4.466,-2.106v-0.127c0,-0.231 0.483,-1.255 1.449,-3.072z" data-paper-data="{&quot;origPos&quot;:null}" fill="#000000"/><path d="M147.0675,172.32501h0.055c2.746,0.231 4.12,0.411 4.12,0.538l1.212,10.728c0,0.079 -1.212,0.28 -3.637,0.602l-0.055,-0.119v-0.975c-2.09,0.565 -3.524,0.93 -4.302,1.094c-1.847,-2.613 -2.816,-4.005 -2.907,-4.175c1.361,-2.473 2.087,-3.725 2.178,-3.755l3.819,0.182c-0.079,-0.468 -0.24,-1.841 -0.483,-4.12zM145.3725,178.86101c0.614,1.877 0.996,2.907 1.148,3.089l1.814,-1.576c-0.188,-1.088 -0.328,-1.632 -0.419,-1.632h-2.425c-0.079,0.012 -0.118,0.052 -0.118,0.119z" data-paper-data="{&quot;origPos&quot;:null}" fill="#2b70c2"/><path d="M157.0755,175.096c2.309,0.62 3.533,0.997 3.673,1.131c1.27,1.798 1.984,2.834 2.142,3.108c-0.82,2.6 -1.291,3.901 -1.413,3.901c-2.734,0.638 -4.165,0.957 -4.293,0.957c-2.26,-1.319 -3.463,-2.054 -3.609,-2.206c-0.079,-2.455 -0.119,-3.81 -0.119,-4.065c-0.036,-0.073 -0.054,-0.128 -0.054,-0.164c2.333,-1.775 3.539,-2.662 3.618,-2.662zM156.8475,178.43201c-0.036,0.243 -0.091,1.127 -0.164,2.653l2.033,0.455c0.486,-1.519 0.729,-2.33 0.729,-2.433c-1.617,-0.486 -2.482,-0.729 -2.598,-0.729z" data-paper-data="{&quot;origPos&quot;:null}" fill="#2b70c2"/><path d="M167.7215,175.08701c0.079,0.104 0.489,1.866 1.23,5.287h0.064c0,-0.079 0.45,-0.775 1.349,-2.088c0.377,0.256 1.094,0.809 2.151,1.659h0.128v-0.064c0.164,-2.369 0.285,-3.682 0.364,-3.937c2.504,0.128 3.755,0.231 3.755,0.31c-1.148,4.618 -1.762,7.018 -1.841,7.2c-0.382,0.043 -1.185,0.164 -2.406,0.365c-1.003,-1.574 -1.577,-2.412 -1.723,-2.516c-0.656,1.75 -1.066,2.713 -1.23,2.89h-2.461c-0.152,-0.049 -0.869,-1.629 -2.151,-4.74c-0.82,-1.738 -1.23,-2.68 -1.23,-2.825c0,-0.134 1.333,-0.648 4.001,-1.541z" data-paper-data="{&quot;origPos&quot;:null}" fill="#2b70c2"/><path d="M185.8505,175.08701l3.035,2.087c-0.213,3.464 -0.362,5.487 -0.447,6.071c-0.352,0.042 -1.425,0.106 -3.217,0.191l-0.064,-0.127l-0.319,-4.868l-0.128,-0.063c-1.16,0.249 -1.959,0.437 -2.397,0.565c0.122,2.072 0.183,3.57 0.183,4.493c-1.811,0.505 -2.802,0.757 -2.972,0.757c-1.179,-5.19 -1.768,-7.93 -1.768,-8.222c2.564,-0.334 3.956,-0.501 4.174,-0.501v0.064c0.043,0.03 0.107,0.662 0.192,1.896c2.351,-1.562 3.594,-2.343 3.728,-2.343z" data-paper-data="{&quot;origPos&quot;:null}" fill="#2b70c2"/><path d="M195.8035,175.08701c3.609,0.498 5.414,0.805 5.414,0.921c1.422,1.221 2.133,1.874 2.133,1.959c-0.578,1.805 -0.906,2.902 -0.985,3.291c0.578,1.282 0.906,2.048 0.985,2.297c0,0.073 -0.942,0.267 -2.826,0.583c-0.024,-0.103 -0.197,-0.334 -0.519,-0.693c-2.601,0.499 -4.002,0.748 -4.202,0.748l-1.386,-3.746l3.054,-1.614c0.492,0.079 1.261,0.119 2.306,0.119c0,-0.134 0.018,-0.538 0.054,-1.212c-0.176,0 -1.75,0.115 -4.721,0.346l-0.055,-0.119c0.414,-1.92 0.663,-2.88 0.748,-2.88zM197.6995,180.447c0,0.066 0.194,0.777 0.583,2.132h0.055c0.765,-0.498 1.148,-0.826 1.148,-0.984l0.119,-0.975c-0.146,0 -0.781,-0.058 -1.905,-0.173z" data-paper-data="{&quot;origPos&quot;:null}" fill="#2b70c2"/><path d="M210.7695,175.08701c1.203,0.675 1.941,1.112 2.215,1.313c-0.985,2.047 -1.513,3.09 -1.586,3.126h-0.064l-1.303,-1.139l-1.541,1.877l0.174,3.418c-0.079,0.073 -1.085,0.243 -3.017,0.511c-0.073,-0.523 -0.547,-3.084 -1.422,-7.684c0,-0.073 1.27,-0.261 3.81,-0.565c0.042,0.049 0.158,0.617 0.346,1.704c1.519,-1.707 2.315,-2.561 2.388,-2.561z" data-paper-data="{&quot;origPos&quot;:null}" fill="#2b70c2"/><path d="M220.2485,175.08701c1.203,0.675 1.942,1.112 2.215,1.313c-0.984,2.047 -1.513,3.09 -1.586,3.126h-0.064l-1.303,-1.139l-1.54,1.877l0.173,3.418c-0.079,0.073 -1.085,0.243 -3.017,0.511c-0.073,-0.523 -0.547,-3.084 -1.422,-7.684c0,-0.073 1.27,-0.261 3.81,-0.565c0.042,0.049 0.158,0.617 0.346,1.704c1.519,-1.707 2.315,-2.561 2.388,-2.561z" data-paper-data="{&quot;origPos&quot;:null}" fill="#2b70c2"/><path d="M226.8565,175.096c2.309,0.62 3.534,0.997 3.673,1.131c1.27,1.798 1.984,2.834 2.142,3.108c-0.82,2.6 -1.291,3.901 -1.412,3.901c-2.735,0.638 -4.166,0.957 -4.293,0.957c-2.261,-1.319 -3.464,-2.054 -3.61,-2.206c-0.079,-2.455 -0.118,-3.81 -0.118,-4.065c-0.037,-0.073 -0.055,-0.128 -0.055,-0.164c2.333,-1.775 3.54,-2.662 3.619,-2.662zM226.6285,178.43201c-0.036,0.243 -0.091,1.127 -0.164,2.653l2.033,0.455c0.486,-1.519 0.729,-2.33 0.729,-2.433c-1.616,-0.486 -2.482,-0.729 -2.598,-0.729z" data-paper-data="{&quot;origPos&quot;:null}" fill="#2b70c2"/><path d="M237.5025,175.08701c0.079,0.104 0.489,1.866 1.231,5.287h0.063c0,-0.079 0.45,-0.775 1.349,-2.088c0.377,0.256 1.094,0.809 2.151,1.659h0.128v-0.064c0.164,-2.369 0.286,-3.682 0.365,-3.937c2.503,0.128 3.755,0.231 3.755,0.31c-1.149,4.618 -1.762,7.018 -1.841,7.2c-0.383,0.043 -1.185,0.164 -2.407,0.365c-1.002,-1.574 -1.576,-2.412 -1.722,-2.516c-0.657,1.75 -1.067,2.713 -1.231,2.89h-2.461c-0.152,-0.049 -0.869,-1.629 -2.151,-4.74c-0.82,-1.738 -1.23,-2.68 -1.23,-2.825c0,-0.134 1.334,-0.648 4.001,-1.541z" data-paper-data="{&quot;origPos&quot;:null}" fill="#2b70c2"/><path d="M255.8415,175.096c2.309,0.62 3.533,0.997 3.673,1.131c1.27,1.798 1.984,2.834 2.142,3.108c-0.821,2.6 -1.292,3.901 -1.413,3.901c-2.734,0.638 -4.165,0.957 -4.293,0.957c-2.26,-1.319 -3.464,-2.054 -3.609,-2.206c-0.079,-2.455 -0.119,-3.81 -0.119,-4.065c-0.036,-0.073 -0.055,-0.128 -0.055,-0.164c2.334,-1.775 3.54,-2.662 3.619,-2.662zM255.6135,178.43201c-0.037,0.243 -0.091,1.127 -0.164,2.653l2.032,0.455c0.486,-1.519 0.729,-2.33 0.729,-2.433c-1.616,-0.486 -2.482,-0.729 -2.597,-0.729z" data-paper-data="{&quot;origPos&quot;:null}" fill="#000000"/><path d="M269.0295,175.08701c1.204,0.675 1.942,1.112 2.215,1.313c-0.984,2.047 -1.513,3.09 -1.586,3.126h-0.063l-1.304,-1.139l-1.54,1.877l0.173,3.418c-0.079,0.073 -1.085,0.243 -3.017,0.511c-0.073,-0.523 -0.547,-3.084 -1.422,-7.684c0,-0.073 1.27,-0.261 3.81,-0.565c0.043,0.049 0.158,0.617 0.346,1.704c1.519,-1.707 2.315,-2.561 2.388,-2.561z" data-paper-data="{&quot;origPos&quot;:null}" fill="#000000"/><path d="M283.7595,172.335c2.187,1.106 3.311,1.658 3.372,1.658c0,0.098 -0.456,0.976 -1.367,2.635h-0.064c-0.073,0 -1.121,-0.496 -3.145,-1.486l-1.03,1.376c1.744,0.839 3.862,1.908 6.353,3.209c-1.13,2.011 -1.932,3.348 -2.406,4.01l-5.15,0.456c-2.351,-1.586 -3.594,-2.407 -3.727,-2.461v-0.064c0,-0.17 0.477,-0.951 1.43,-2.343h0.119c0.377,0.225 1.559,0.872 3.546,1.942l1.203,-1.367c-3.652,-1.86 -5.676,-2.911 -6.071,-3.154v-0.055c1.161,-2.26 1.793,-3.405 1.896,-3.436c3.02,-0.614 4.7,-0.92 5.041,-0.92z" data-paper-data="{&quot;origPos&quot;:null}" fill="#2b70c2"/><path d="M296.2005,172.335l4.01,0.711l-0.382,3.044c0.796,-0.043 1.379,-0.064 1.75,-0.064h0.583l0.128,-0.064l0.063,0.128c-0.127,1.847 -0.237,2.886 -0.328,3.117l-0.127,-0.073c-0.092,0 -0.912,-0.042 -2.461,-0.128c-0.085,1.428 -0.149,3.136 -0.192,5.123l-0.127,0.064c-1.957,-0.128 -3.124,-0.237 -3.5,-0.328l0.063,-0.256c0,-0.528 0.086,-2.169 0.256,-4.922c-1.641,-0.091 -2.461,-0.2 -2.461,-0.328c0.085,-2.029 0.194,-3.044 0.328,-3.044l2.397,0.456v-0.784c0,-0.638 -0.024,-1.501 -0.073,-2.589c0.049,0 0.073,-0.021 0.073,-0.063z" data-paper-data="{&quot;origPos&quot;:null}" fill="#000000"/><path d="M306.9925,175.096c2.309,0.62 3.533,0.997 3.673,1.131c1.27,1.798 1.984,2.834 2.142,3.108c-0.821,2.6 -1.292,3.901 -1.413,3.901c-2.734,0.638 -4.165,0.957 -4.293,0.957c-2.26,-1.319 -3.464,-2.054 -3.609,-2.206c-0.079,-2.455 -0.119,-3.81 -0.119,-4.065c-0.036,-0.073 -0.055,-0.128 -0.055,-0.164c2.334,-1.775 3.54,-2.662 3.619,-2.662zM306.7645,178.43201c-0.037,0.243 -0.091,1.127 -0.164,2.653l2.032,0.455c0.486,-1.519 0.729,-2.33 0.729,-2.433c-1.616,-0.486 -2.482,-0.729 -2.597,-0.729z" data-paper-data="{&quot;origPos&quot;:null}" fill="#000000"/><path d="M323.7815,172.32501h0.054c2.747,0.231 4.12,0.411 4.12,0.538l1.212,10.728c0,0.079 -1.212,0.28 -3.636,0.602l-0.055,-0.119v-0.975c-2.09,0.565 -3.524,0.93 -4.302,1.094c-1.847,-2.613 -2.816,-4.005 -2.908,-4.175c1.361,-2.473 2.088,-3.725 2.179,-3.755l3.819,0.182c-0.079,-0.468 -0.24,-1.841 -0.483,-4.12zM322.0855,178.86101c0.614,1.877 0.997,2.907 1.149,3.089l1.814,-1.576c-0.189,-1.088 -0.328,-1.632 -0.42,-1.632h-2.424c-0.079,0.012 -0.119,0.052 -0.119,0.119z" data-paper-data="{&quot;origPos&quot;:null}" fill="#000000"/><path d="M331.3735,171.43201l3.582,0.565c-0.449,1.72 -0.744,2.58 -0.884,2.58c-1.884,-0.128 -2.825,-0.252 -2.825,-0.374v-2.643c0.018,-0.085 0.06,-0.128 0.127,-0.128zM330.3715,175.77101h0.054c2.771,0.504 4.156,0.799 4.156,0.884c-0.796,4.509 -1.279,7.021 -1.449,7.538h-2.889c-0.085,0 -0.128,-0.043 -0.128,-0.128z" data-paper-data="{&quot;origPos&quot;:null}" fill="#000000"/><path d="M338.8025,175.08701c1.488,3.415 2.281,5.186 2.378,5.314c0.736,-2.789 1.164,-4.275 1.286,-4.457c2.321,0.213 3.481,0.395 3.481,0.547v0.064c-1.628,4.472 -2.503,6.814 -2.625,7.027c-1.798,0.328 -3.001,0.532 -3.609,0.611l-4.457,-6.599v-0.128c0.042,-0.079 1.224,-0.872 3.546,-2.379z" data-paper-data="{&quot;origPos&quot;:null}" fill="#000000"/><path d="M352.0915,175.096c2.752,1.416 4.277,2.243 4.575,2.479c-0.395,1.848 -0.629,2.799 -0.702,2.853h-5.76v0.101l1.613,1.996l2.534,-1.295c0.249,0.432 0.608,1.185 1.076,2.261c-0.219,0.073 -1.814,0.307 -4.786,0.702c-2.461,-1.623 -3.7,-2.467 -3.718,-2.534c0.395,-3.154 0.629,-4.731 0.701,-4.731c2.571,-1.093 4.059,-1.704 4.467,-1.832zM351.4985,177.30201c-0.048,0.122 -0.37,0.605 -0.966,1.449c0,0.255 0.359,0.383 1.076,0.383c0,0.037 0.519,0.125 1.558,0.264c0.286,-0.395 0.429,-0.625 0.429,-0.692c-0.092,-0.541 -0.289,-0.811 -0.593,-0.811z" data-paper-data="{&quot;origPos&quot;:null}" fill="#000000"/><path d="M363.5115,175.08701c3.61,0.498 5.414,0.805 5.414,0.921c1.422,1.221 2.133,1.874 2.133,1.959c-0.577,1.805 -0.905,2.902 -0.984,3.291c0.577,1.282 0.905,2.048 0.984,2.297c0,0.073 -0.942,0.267 -2.825,0.583c-0.025,-0.103 -0.198,-0.334 -0.52,-0.693c-2.601,0.499 -4.001,0.748 -4.202,0.748l-1.385,-3.746l3.053,-1.614c0.492,0.079 1.261,0.119 2.306,0.119c0,-0.134 0.018,-0.538 0.055,-1.212c-0.176,0 -1.75,0.115 -4.722,0.346l-0.054,-0.119c0.413,-1.92 0.662,-2.88 0.747,-2.88zM365.4075,180.447c0,0.066 0.194,0.777 0.583,2.132h0.055c0.766,-0.498 1.148,-0.826 1.148,-0.984l0.119,-0.975c-0.146,0 -0.781,-0.058 -1.905,-0.173z" data-paper-data="{&quot;origPos&quot;:null}" fill="#000000"/><path d="M380.0275,175.08701l3.035,2.087c-0.213,3.464 -0.362,5.487 -0.447,6.071c-0.352,0.042 -1.425,0.106 -3.217,0.191l-0.064,-0.127l-0.319,-4.868l-0.128,-0.063c-1.16,0.249 -1.959,0.437 -2.397,0.565c0.122,2.072 0.183,3.57 0.183,4.493c-1.811,0.505 -2.802,0.757 -2.972,0.757c-1.179,-5.19 -1.768,-7.93 -1.768,-8.222c2.564,-0.334 3.956,-0.501 4.175,-0.501v0.064c0.042,0.03 0.106,0.662 0.191,1.896c2.352,-1.562 3.594,-2.343 3.728,-2.343z" data-paper-data="{&quot;origPos&quot;:null}" fill="#000000"/><path d="M389.4795,172.32501h0.054c2.747,0.231 4.12,0.411 4.12,0.538l1.212,10.728c0,0.079 -1.212,0.28 -3.636,0.602l-0.055,-0.119v-0.975c-2.09,0.565 -3.524,0.93 -4.302,1.094c-1.847,-2.613 -2.817,-4.005 -2.908,-4.175c1.361,-2.473 2.088,-3.725 2.179,-3.755l3.819,0.182c-0.079,-0.468 -0.24,-1.841 -0.483,-4.12zM387.7835,178.86101c0.614,1.877 0.997,2.907 1.149,3.089l1.814,-1.576c-0.189,-1.088 -0.329,-1.632 -0.42,-1.632h-2.424c-0.079,0.012 -0.119,0.052 -0.119,0.119z" data-paper-data="{&quot;origPos&quot;:null}" fill="#000000"/><path d="M410.5705,175.08701c1.482,0.614 2.761,1.191 3.837,1.732c-0.28,3.615 -0.459,5.593 -0.538,5.934c-1.786,0.443 -2.786,0.665 -2.998,0.665c0,-0.79 -0.061,-2.349 -0.183,-4.676c-0.674,0.067 -1.011,0.125 -1.011,0.173c0,0.231 0.039,1.55 0.118,3.956c0.036,0 0.055,0.021 0.055,0.064c0,0.073 -0.939,0.273 -2.817,0.601c-0.079,-0.097 -0.319,-1.576 -0.72,-4.438c-0.759,0.194 -1.139,0.334 -1.139,0.419l0.365,3.719c-0.073,0.079 -1.073,0.398 -2.999,0.957c-1.118,-3.956 -1.817,-6.611 -2.097,-7.966c2.109,-0.523 3.288,-0.784 3.537,-0.784c0.279,1.106 0.419,1.744 0.419,1.914h0.064c1.027,-0.948 1.744,-1.586 2.151,-1.914h0.064l1.914,1.376h0.064c1.197,-1.155 1.835,-1.732 1.914,-1.732z" data-paper-data="{&quot;origPos&quot;:null}" fill="#2b70c2"/><path d="M418.9925,175.096c2.309,0.62 3.533,0.997 3.673,1.131c1.27,1.798 1.984,2.834 2.142,3.108c-0.821,2.6 -1.292,3.901 -1.413,3.901c-2.734,0.638 -4.165,0.957 -4.293,0.957c-2.26,-1.319 -3.464,-2.054 -3.609,-2.206c-0.079,-2.455 -0.119,-3.81 -0.119,-4.065c-0.036,-0.073 -0.055,-0.128 -0.055,-0.164c2.334,-1.775 3.54,-2.662 3.619,-2.662zM418.7645,178.43201c-0.037,0.243 -0.091,1.127 -0.164,2.653l2.032,0.455c0.486,-1.519 0.729,-2.33 0.729,-2.433c-1.616,-0.486 -2.482,-0.729 -2.597,-0.729z" data-paper-data="{&quot;origPos&quot;:null}" fill="#2b70c2"/><path d="M429.1825,175.08701c1.488,3.415 2.281,5.186 2.379,5.314c0.735,-2.789 1.163,-4.275 1.285,-4.457c2.321,0.213 3.482,0.395 3.482,0.547v0.064c-1.629,4.472 -2.504,6.814 -2.625,7.027c-1.799,0.328 -3.002,0.532 -3.61,0.611l-4.457,-6.599v-0.128c0.043,-0.079 1.225,-0.872 3.546,-2.379z" data-paper-data="{&quot;origPos&quot;:null}" fill="#2b70c2"/><path d="M442.4715,175.096c2.752,1.416 4.278,2.243 4.575,2.479c-0.395,1.848 -0.629,2.799 -0.702,2.853h-5.76v0.101l1.613,1.996l2.534,-1.295c0.249,0.432 0.608,1.185 1.076,2.261c-0.219,0.073 -1.814,0.307 -4.785,0.702c-2.461,-1.623 -3.701,-2.467 -3.719,-2.534c0.395,-3.154 0.629,-4.731 0.702,-4.731c2.57,-1.093 4.059,-1.704 4.466,-1.832zM441.8785,177.30201c-0.048,0.122 -0.37,0.605 -0.966,1.449c0,0.255 0.359,0.383 1.076,0.383c0,0.037 0.519,0.125 1.558,0.264c0.286,-0.395 0.429,-0.625 0.429,-0.692c-0.091,-0.541 -0.289,-0.811 -0.593,-0.811z" data-paper-data="{&quot;origPos&quot;:null}" fill="#2b70c2"/><path d="M35.7145,195.668c0.322,0.036 1.495,0.307 3.519,0.811l0.054,0.11c-0.298,1.658 -0.477,2.488 -0.538,2.488h-0.054l-1.468,-0.757c0,0.17 -0.054,0.93 -0.164,2.279l2.005,-0.492c0.061,0.182 0.116,0.993 0.165,2.433c-0.195,0.073 -0.863,0.183 -2.006,0.328c0.256,1.094 0.526,2.431 0.812,4.011c-0.936,0.213 -2.054,0.428 -3.355,0.647l-0.054,-0.109c-0.17,-2.814 -0.313,-4.22 -0.429,-4.22c-1.179,0.285 -1.81,0.446 -1.896,0.483c-0.072,-0.353 -0.2,-1.31 -0.382,-2.871l0.109,-0.055h1.951c-0.11,-0.899 -0.274,-2.072 -0.493,-3.518z" data-paper-data="{&quot;origPos&quot;:null}" fill="#2b70c2"/><path d="M41.5115,198.42101c3.61,0.498 5.414,0.805 5.414,0.92c1.422,1.221 2.133,1.875 2.133,1.96c-0.577,1.804 -0.905,2.901 -0.984,3.29c0.577,1.282 0.905,2.048 0.984,2.297c0,0.073 -0.942,0.267 -2.825,0.583c-0.025,-0.103 -0.198,-0.334 -0.52,-0.692c-2.601,0.498 -4.001,0.747 -4.202,0.747l-1.385,-3.746l3.053,-1.613c0.492,0.079 1.261,0.118 2.306,0.118c0,-0.134 0.018,-0.538 0.055,-1.212c-0.176,0 -1.75,0.115 -4.722,0.346l-0.054,-0.118c0.413,-1.92 0.662,-2.88 0.747,-2.88zM43.4075,203.78001c0,0.067 0.194,0.778 0.583,2.133h0.055c0.766,-0.499 1.148,-0.827 1.148,-0.985l0.119,-0.975c-0.146,0 -0.781,-0.058 -1.905,-0.173z" data-paper-data="{&quot;origPos&quot;:null}" fill="#2b70c2"/><path d="M57.2895,198.42101c1.75,1.118 2.716,1.762 2.898,1.932c-0.632,1.403 -0.994,2.105 -1.085,2.105l-3.317,-1.923h-0.119c0,0.061 -0.143,0.401 -0.428,1.021c3.056,1.647 4.584,2.491 4.584,2.534c-0.856,1.981 -1.339,3.026 -1.449,3.135l-5.186,0.301c-2.017,-1.337 -3.102,-2.042 -3.254,-2.115v-0.054c0,-0.152 0.301,-0.836 0.902,-2.051l4.047,2.105l0.301,-1.203c-2.503,-1.124 -3.992,-1.826 -4.466,-2.105v-0.128c0,-0.231 0.483,-1.255 1.449,-3.071z" data-paper-data="{&quot;origPos&quot;:null}" fill="#2b70c2"/><path d="M63.8155,195.668l4.01,0.711l-0.383,3.044c0.796,-0.042 1.38,-0.064 1.75,-0.064h0.583l0.128,-0.063l0.064,0.127c-0.128,1.847 -0.237,2.886 -0.328,3.117l-0.128,-0.073c-0.091,0 -0.911,-0.042 -2.461,-0.127c-0.085,1.428 -0.149,3.135 -0.191,5.122l-0.128,0.064c-1.956,-0.128 -3.123,-0.237 -3.5,-0.328l0.064,-0.255c0,-0.529 0.085,-2.17 0.255,-4.922c-1.64,-0.091 -2.461,-0.201 -2.461,-0.328c0.085,-2.03 0.195,-3.045 0.328,-3.045l2.398,0.456v-0.784c0,-0.638 -0.025,-1.501 -0.073,-2.588c0.048,0 0.073,-0.022 0.073,-0.064z" data-paper-data="{&quot;origPos&quot;:null}" fill="#2b70c2"/><path d="M76.1015,198.43c2.753,1.415 4.278,2.242 4.576,2.479c-0.395,1.847 -0.629,2.798 -0.702,2.853h-5.761v0.1l1.614,1.996l2.533,-1.294c0.25,0.431 0.608,1.185 1.076,2.26c-0.219,0.073 -1.814,0.307 -4.785,0.702c-2.461,-1.622 -3.701,-2.467 -3.719,-2.534c0.395,-3.153 0.629,-4.73 0.702,-4.73c2.57,-1.094 4.059,-1.705 4.466,-1.832zM75.5095,200.63501c-0.049,0.122 -0.371,0.605 -0.967,1.45c0,0.255 0.359,0.382 1.076,0.382c0,0.037 0.519,0.125 1.559,0.265c0.285,-0.395 0.428,-0.626 0.428,-0.693c-0.091,-0.541 -0.289,-0.811 -0.593,-0.811z" data-paper-data="{&quot;origPos&quot;:null}" fill="#2b70c2"/><path d="M88.0505,198.42101c1.203,0.674 1.942,1.112 2.215,1.312c-0.984,2.048 -1.513,3.09 -1.586,3.126h-0.064l-1.303,-1.139l-1.54,1.878l0.173,3.418c-0.079,0.073 -1.085,0.243 -3.017,0.51c-0.073,-0.523 -0.547,-3.084 -1.422,-7.684c0,-0.072 1.27,-0.261 3.81,-0.565c0.042,0.049 0.158,0.617 0.346,1.705c1.519,-1.708 2.315,-2.561 2.388,-2.561z" data-paper-data="{&quot;origPos&quot;:null}" fill="#2b70c2"/><path d="M98.3415,195.668l4.01,0.711l-0.383,3.044c0.796,-0.042 1.38,-0.064 1.75,-0.064h0.584l0.127,-0.063l0.064,0.127c-0.128,1.847 -0.237,2.886 -0.328,3.117l-0.128,-0.073c-0.091,0 -0.911,-0.042 -2.461,-0.127c-0.085,1.428 -0.149,3.135 -0.191,5.122l-0.128,0.064c-1.956,-0.128 -3.123,-0.237 -3.5,-0.328l0.064,-0.255c0,-0.529 0.085,-2.17 0.255,-4.922c-1.64,-0.091 -2.461,-0.201 -2.461,-0.328c0.085,-2.03 0.195,-3.045 0.328,-3.045l2.398,0.456v-0.784c0,-0.638 -0.025,-1.501 -0.073,-2.588c0.048,0 0.073,-0.022 0.073,-0.064z" data-paper-data="{&quot;origPos&quot;:null}" fill="#000000"/><path d="M109.5425,195.668c0.037,0.055 0.207,1.72 0.511,4.995c2.345,-0.717 3.594,-1.076 3.746,-1.076l2.324,1.586c-0.377,3.464 -0.623,5.487 -0.738,6.07l-3.227,0.11c0,-0.037 -0.021,-0.055 -0.063,-0.055l0.063,-0.228c0,-0.492 0.073,-1.987 0.219,-4.484c-0.887,-0.037 -1.546,-0.055 -1.978,-0.055h-0.228c0.262,2.777 0.392,4.29 0.392,4.539l-3.062,0.456c-0.116,-0.389 -0.796,-4.02 -2.042,-10.892c0,-0.194 0.474,-0.346 1.422,-0.456c1.197,-0.34 2.084,-0.51 2.661,-0.51z" data-paper-data="{&quot;origPos&quot;:null}" fill="#000000"/><path d="M123.5245,198.42101c1.203,0.674 1.942,1.112 2.215,1.312c-0.984,2.048 -1.513,3.09 -1.586,3.126h-0.064l-1.303,-1.139l-1.54,1.878l0.173,3.418c-0.079,0.073 -1.085,0.243 -3.017,0.51c-0.073,-0.523 -0.547,-3.084 -1.422,-7.684c0,-0.072 1.27,-0.261 3.81,-0.565c0.042,0.049 0.158,0.617 0.346,1.705c1.519,-1.708 2.315,-2.561 2.388,-2.561z" data-paper-data="{&quot;origPos&quot;:null}" fill="#000000"/><path d="M130.1325,198.43c2.309,0.619 3.534,0.996 3.673,1.13c1.27,1.798 1.984,2.835 2.142,3.108c-0.82,2.601 -1.291,3.901 -1.412,3.901c-2.735,0.638 -4.166,0.957 -4.293,0.957c-2.261,-1.319 -3.464,-2.054 -3.61,-2.206c-0.079,-2.455 -0.118,-3.81 -0.118,-4.065c-0.037,-0.073 -0.055,-0.127 -0.055,-0.164c2.333,-1.774 3.54,-2.661 3.619,-2.661zM129.9045,201.76601c-0.036,0.243 -0.091,1.127 -0.164,2.652l2.033,0.456c0.486,-1.519 0.729,-2.331 0.729,-2.434c-1.616,-0.486 -2.482,-0.729 -2.598,-0.729z" data-paper-data="{&quot;origPos&quot;:null}" fill="#000000"/><path d="M141.6995,198.42101l0.063,0.118l-1.23,6.526h0.064l3.135,-0.92v-3.692c0.012,-0.085 0.052,-0.128 0.119,-0.128c2.357,0.165 3.67,0.247 3.937,0.247c0,0.042 0.021,0.063 0.064,0.063c0,1.039 -0.328,3.194 -0.984,6.463c0,0.188 -0.942,0.331 -2.826,0.428c-0.097,-0.115 -0.179,-0.362 -0.246,-0.738c-2.412,0.492 -3.789,0.738 -4.129,0.738c-1.926,-1.434 -2.889,-2.172 -2.889,-2.215c0.328,-4.308 0.535,-6.544 0.62,-6.708h0.054c1.538,-0.043 2.953,-0.103 4.248,-0.182z" data-paper-data="{&quot;origPos&quot;:null}" fill="#000000"/><path d="M155.5715,198.448c2.583,0.067 3.874,0.179 3.874,0.337c0.443,6.727 0.665,10.306 0.665,10.737c-1.956,1.246 -3.357,2.09 -4.202,2.534c-2.977,-0.936 -4.466,-1.471 -4.466,-1.604c0.96,-1.404 1.516,-2.115 1.668,-2.133c1.623,0.802 2.555,1.203 2.798,1.203l0.866,-1.139c-0.231,-0.942 -0.386,-1.498 -0.465,-1.668c-0.133,0 -1.78,0.267 -4.94,0.802c-1.732,-2.813 -2.597,-4.257 -2.597,-4.33c1.494,-2.388 2.406,-3.788 2.734,-4.201h0.064c0.176,0 1.488,0.288 3.937,0.866v-0.201c0,-0.237 -0.021,-0.617 -0.064,-1.139zM152.5815,202.376c0.086,0.189 0.353,1.191 0.803,3.008c0.565,-0.182 1.431,-0.516 2.597,-1.003c-0.225,-1.093 -0.337,-1.716 -0.337,-1.868l-0.328,-0.064h-0.401c-0.511,0 -1.288,-0.024 -2.334,-0.073z" data-paper-data="{&quot;origPos&quot;:null}" fill="#000000"/><path d="M165.1785,195.668c0.036,0.055 0.206,1.72 0.51,4.995c2.346,-0.717 3.594,-1.076 3.746,-1.076l2.325,1.586c-0.377,3.464 -0.623,5.487 -0.739,6.07l-3.226,0.11c0,-0.037 -0.022,-0.055 -0.064,-0.055l0.064,-0.228c0,-0.492 0.073,-1.987 0.218,-4.484c-0.887,-0.037 -1.546,-0.055 -1.977,-0.055h-0.228c0.261,2.777 0.392,4.29 0.392,4.539l-3.063,0.456c-0.115,-0.389 -0.796,-4.02 -2.041,-10.892c0,-0.194 0.473,-0.346 1.421,-0.456c1.197,-0.34 2.085,-0.51 2.662,-0.51z" data-paper-data="{&quot;origPos&quot;:null}" fill="#000000"/><path d="M179.9715,195.668l4.01,0.711l-0.383,3.044c0.796,-0.042 1.38,-0.064 1.75,-0.064h0.584l0.127,-0.063l0.064,0.127c-0.127,1.847 -0.237,2.886 -0.328,3.117l-0.128,-0.073c-0.091,0 -0.911,-0.042 -2.461,-0.127c-0.085,1.428 -0.148,3.135 -0.191,5.122l-0.128,0.064c-1.956,-0.128 -3.123,-0.237 -3.5,-0.328l0.064,-0.255c0,-0.529 0.085,-2.17 0.255,-4.922c-1.64,-0.091 -2.46,-0.201 -2.46,-0.328c0.085,-2.03 0.194,-3.045 0.328,-3.045l2.397,0.456v-0.784c0,-0.638 -0.025,-1.501 -0.073,-2.588c0.048,0 0.073,-0.022 0.073,-0.064z" data-paper-data="{&quot;origPos&quot;:null}" fill="#000000"/><path d="M191.1735,195.668c0.036,0.055 0.206,1.72 0.51,4.995c2.346,-0.717 3.594,-1.076 3.746,-1.076l2.324,1.586c-0.376,3.464 -0.622,5.487 -0.738,6.07l-3.226,0.11c0,-0.037 -0.022,-0.055 -0.064,-0.055l0.064,-0.228c0,-0.492 0.072,-1.987 0.218,-4.484c-0.887,-0.037 -1.546,-0.055 -1.978,-0.055h-0.227c0.261,2.777 0.391,4.29 0.391,4.539l-3.062,0.456c-0.115,-0.389 -0.796,-4.02 -2.042,-10.892c0,-0.194 0.474,-0.346 1.422,-0.456c1.197,-0.34 2.084,-0.51 2.662,-0.51z" data-paper-data="{&quot;origPos&quot;:null}" fill="#000000"/><path d="M203.7785,198.43c2.753,1.415 4.278,2.242 4.576,2.479c-0.395,1.847 -0.629,2.798 -0.702,2.853h-5.761v0.1l1.614,1.996l2.534,-1.294c0.249,0.431 0.607,1.185 1.075,2.26c-0.219,0.073 -1.814,0.307 -4.785,0.702c-2.461,-1.622 -3.701,-2.467 -3.719,-2.534c0.395,-3.153 0.629,-4.73 0.702,-4.73c2.57,-1.094 4.059,-1.705 4.466,-1.832zM203.1865,200.63501c-0.049,0.122 -0.371,0.605 -0.966,1.45c0,0.255 0.358,0.382 1.075,0.382c0,0.037 0.52,0.125 1.559,0.265c0.285,-0.395 0.428,-0.626 0.428,-0.693c-0.091,-0.541 -0.289,-0.811 -0.592,-0.811z" data-paper-data="{&quot;origPos&quot;:null}" fill="#000000"/><path d="M213.8135,195.67701c1.86,0.037 3.224,0.055 4.093,0.055c0.079,0 0.319,3.731 0.72,11.192c-0.31,0.079 -1.392,0.28 -3.245,0.602c-0.091,0 -0.392,-2.285 -0.902,-6.854c-0.043,-0.11 -0.265,-1.774 -0.666,-4.995z" data-paper-data="{&quot;origPos&quot;:null}" fill="#000000"/><path d="M224.8155,198.43c2.752,1.415 4.277,2.242 4.575,2.479c-0.395,1.847 -0.629,2.798 -0.702,2.853h-5.76v0.1l1.613,1.996l2.534,-1.294c0.249,0.431 0.608,1.185 1.075,2.26c-0.218,0.073 -1.813,0.307 -4.785,0.702c-2.461,-1.622 -3.7,-2.467 -3.718,-2.534c0.395,-3.153 0.628,-4.73 0.701,-4.73c2.571,-1.094 4.059,-1.705 4.467,-1.832zM224.2225,200.63501c-0.048,0.122 -0.371,0.605 -0.966,1.45c0,0.255 0.358,0.382 1.075,0.382c0,0.037 0.52,0.125 1.559,0.265c0.286,-0.395 0.428,-0.626 0.428,-0.693c-0.091,-0.541 -0.288,-0.811 -0.592,-0.811z" data-paper-data="{&quot;origPos&quot;:null}" fill="#000000"/><path d="M233.7655,198.42101c1.489,3.414 2.282,5.186 2.379,5.313c0.735,-2.789 1.164,-4.274 1.285,-4.457c2.321,0.213 3.482,0.395 3.482,0.547v0.064c-1.629,4.472 -2.504,6.815 -2.625,7.027c-1.799,0.328 -3.002,0.532 -3.609,0.611l-4.457,-6.599v-0.128c0.042,-0.079 1.224,-0.872 3.545,-2.378z" data-paper-data="{&quot;origPos&quot;:null}" fill="#000000"/><path d="M247.0545,198.43c2.753,1.415 4.278,2.242 4.576,2.479c-0.395,1.847 -0.629,2.798 -0.702,2.853h-5.761v0.1l1.614,1.996l2.534,-1.294c0.249,0.431 0.607,1.185 1.075,2.26c-0.219,0.073 -1.814,0.307 -4.785,0.702c-2.461,-1.622 -3.701,-2.467 -3.719,-2.534c0.395,-3.153 0.629,-4.73 0.702,-4.73c2.57,-1.094 4.059,-1.705 4.466,-1.832zM246.4625,200.63501c-0.049,0.122 -0.371,0.605 -0.966,1.45c0,0.255 0.358,0.382 1.075,0.382c0,0.037 0.52,0.125 1.559,0.265c0.285,-0.395 0.428,-0.626 0.428,-0.693c-0.091,-0.541 -0.289,-0.811 -0.592,-0.811z" data-paper-data="{&quot;origPos&quot;:null}" fill="#000000"/><path d="M252.4595,195.67701c1.859,0.037 3.224,0.055 4.093,0.055c0.079,0 0.319,3.731 0.72,11.192c-0.31,0.079 -1.392,0.28 -3.245,0.602c-0.091,0 -0.392,-2.285 -0.903,-6.854c-0.042,-0.11 -0.264,-1.774 -0.665,-4.995z" data-paper-data="{&quot;origPos&quot;:null}" fill="#000000"/><path d="M258.4025,204.71901c0.042,0.024 0.99,0.097 2.844,0.218l0.036,0.073c-0.286,1.677 -0.468,2.516 -0.547,2.516h-2.114c-0.073,0 -0.171,-0.839 -0.292,-2.516c-0.024,0 -0.037,-0.073 -0.037,-0.218c0.073,-0.025 0.11,-0.049 0.11,-0.073z" data-paper-data="{&quot;origPos&quot;:null}" fill="#000000"/></g></g></g></svg>