<svg version="1.1" xmlns="http://www.w3.org/2000/svg" xmlns:xlink="http://www.w3.org/1999/xlink" width="191.70375" height="41.27851"><g transform="translate(-144.14813,-159.32466)"><g data-paper-data="{&quot;isPaintingLayer&quot;:true}" fill="#ffffff" fill-rule="nonzero" stroke="none" stroke-width="none" stroke-linecap="butt" stroke-linejoin="miter" stroke-miterlimit="10" stroke-dasharray="" stroke-dashoffset="0" font-family="none" font-weight="none" font-size="none" text-anchor="none" style="mix-blend-mode: normal"><text transform="translate(192.73974,195.91153) scale(0.7218,0.72179)" font-size="22" xml:space="preserve" data-paper-data="{&quot;origPos&quot;:null}" id="ID0.08681221166625619" fill="#ffffff" fill-rule="nonzero" stroke="none" stroke-width="1" stroke-linecap="butt" stroke-linejoin="miter" stroke-miterlimit="10" stroke-dasharray="" stroke-dashoffset="0" font-family="Sans Serif" font-weight="400" text-anchor="start" style="mix-blend-mode: normal"><tspan x="0" dy="0">Get 10 stars.</tspan></text><g data-paper-data="{&quot;origPos&quot;:null,&quot;index&quot;:null}" id="text88" stroke-width="0.26458"><path d="M148.91396,161.65896c2.75576,0.30798 4.13364,0.50251 4.13364,0.58356c0.03243,6.06268 0.04862,10.69883 0.04862,13.90849v0.09724l-0.04862,0.09725l-4.27953,-0.14587c0,-0.03241 -0.01621,-0.04862 -0.04862,-0.04862c0.19452,-5.42236 0.29179,-8.30779 0.29179,-8.65632l-1.45893,1.41031c-0.08105,-0.04862 -1.21578,-1.24819 -3.40418,-3.5987c1.71829,-1.36167 3.30691,-2.57745 4.76585,-3.64733z" id="path471"/><path d="M157.47305,161.75623h0.77809c0,0.09724 1.232,0.35661 3.69597,0.77809c0.55115,0.07294 0.82673,0.23503 0.82673,0.48631c1.16714,2.22083 1.75072,3.40418 1.75072,3.55006c0,0.56737 0.04862,2.33428 0.14588,5.30079c-0.75378,2.36671 -1.20767,3.55007 -1.36167,3.55007c-0.92399,0.61599 -1.44271,0.92399 -1.55619,0.92399h-4.96035c-1.29683,-1.66967 -1.94525,-2.6585 -1.94525,-2.96648l-0.53494,-2.91786c0,-0.08915 0.308,-0.89966 0.92399,-2.43157l-0.04862,-0.09724c0.35663,-0.91588 1.05368,-2.86112 2.09113,-5.83572c0.08915,-0.22694 0.15401,-0.34041 0.19453,-0.34041zM159.27239,166.2789c-1.19957,2.51262 -1.81556,3.84188 -1.84799,3.98776c0.12158,0.12155 0.70516,0.93207 1.75072,2.43154c1.02125,-0.48631 1.60482,-0.74568 1.75072,-0.77809c-0.09727,-2.26135 -0.14591,-3.6068 -0.14591,-4.03638c-0.38906,-0.52684 -0.87535,-1.06178 -1.45893,-1.60484z" id="path473"/><path d="M173.76448,164.19993c4.81447,0.66463 7.22173,1.07393 7.22173,1.22793c1.89661,1.62915 2.84493,2.50046 2.84493,2.61392c-0.76999,2.40723 -1.20767,3.87023 -1.31305,4.38897c0.76999,1.71018 1.20767,2.73143 1.31305,3.06375c0,0.09724 -1.25631,0.3566 -3.76891,0.7781c-0.03241,-0.13779 -0.26342,-0.44579 -0.693,-0.92399c-3.46902,0.66461 -5.33727,0.99692 -5.60473,0.99692l-1.84798,-4.99684l4.07285,-2.15193c0.65652,0.10534 1.68183,0.15802 3.07593,0.15802c0,-0.17831 0.02431,-0.71731 0.07295,-1.617c-0.23505,0 -2.3343,0.15401 -6.29773,0.46201l-0.07295,-0.15802c0.55115,-2.56124 0.88346,-3.84185 0.99694,-3.84185zM176.29329,171.34869c0,0.08915 0.25936,1.03745 0.77809,2.84493h0.07295c1.02125,-0.66463 1.53189,-1.1023 1.53189,-1.31304l0.15804,-1.30089c-0.19452,0 -1.04151,-0.07699 -2.54097,-0.23099z" id="path475"/><path d="M195.79435,164.19993l4.04854,2.78413c-0.28367,4.61996 -0.48226,7.31899 -0.59574,8.09707c-0.4701,0.05672 -1.90067,0.14183 -4.29169,0.25532l-0.0851,-0.17018l-0.42552,-6.49226l-0.17021,-0.08509c-1.5481,0.3323 -2.61392,0.58356 -3.1975,0.75378c0.1621,2.76386 0.24315,4.76179 0.24315,5.99379c-2.41535,0.67273 -3.73649,1.00908 -3.96343,1.00908c-1.57241,-6.92182 -2.35861,-10.57727 -2.35861,-10.9663c3.42039,-0.44579 5.27647,-0.66868 5.56826,-0.66868v0.08509c0.05674,0.04052 0.14185,0.88345 0.2553,2.52881c3.1367,-2.08304 4.79422,-3.12455 4.97253,-3.12455z" id="path477"/><path d="M208.40197,160.51613h0.07295c3.66354,0.30798 5.49531,0.54709 5.49531,0.71731l1.61699,14.3097c0,0.10534 -1.61699,0.37281 -4.85095,0.80239l-0.07295,-0.15802v-1.30089c-2.78819,0.75378 -4.70102,1.2401 -5.73847,1.45893c-2.46397,-3.48523 -3.75674,-5.34131 -3.87832,-5.56825c1.81556,-3.29882 2.78413,-4.9685 2.90571,-5.00902l5.09411,0.24317c-0.10538,-0.6241 -0.32016,-2.45588 -0.64436,-5.49532zM206.14062,169.23325c0.81863,2.5045 1.32924,3.87832 1.53188,4.12149l2.41939,-2.1033c-0.25127,-1.45083 -0.43767,-2.17625 -0.55925,-2.17625h-3.23397c-0.10538,0.01621 -0.15806,0.06887 -0.15806,0.15802z" id="path479"/><path d="M231.3072,160.52829c3.62302,1.41029 5.43451,2.16003 5.43451,2.24919c-1.15904,2.36671 -1.73857,3.59869 -1.73857,3.69595h-0.07295c-0.51873,-0.14588 -1.65752,-0.65246 -3.41634,-1.51971l-2.89355,2.03034c0,2.5126 0.14185,3.7689 0.42552,3.7689c0.18641,0.09724 1.39814,0.58356 3.63517,1.45895c0.85916,-0.85106 1.73045,-1.67373 2.61392,-2.46803c0.1621,0.14588 0.88753,1.30493 2.17624,3.47712v0.21884c-0.08105,0 -1.87229,0.96857 -5.37374,2.9057c-4.47406,-1.49946 -6.77187,-2.29781 -6.89345,-2.39508l-2.17624,-7.18524c2.04251,-2.90165 3.08402,-4.35249 3.12455,-4.35249c0.08915,0 1.80746,-0.62814 5.1549,-1.88445z" id="path481"/><path d="M243.78106,164.21208c3.07996,0.82673 4.71317,1.32926 4.89958,1.50757c1.69398,2.39914 2.64634,3.78108 2.85709,4.14581c-1.09421,3.46902 -1.72235,5.20352 -1.88446,5.20352c-3.64733,0.85104 -5.55611,1.27656 -5.7263,1.27656c-3.01512,-1.75882 -4.61996,-2.73955 -4.81447,-2.94217c-0.10538,-3.27449 -0.15806,-5.08195 -0.15806,-5.42236c-0.04864,-0.09724 -0.07295,-0.1702 -0.07295,-0.21884c3.11239,-2.36673 4.72126,-3.55008 4.82662,-3.55008zM243.55007,168.66183c-0.04864,0.32422 -0.12157,1.50351 -0.21884,3.53791l2.71118,0.60789c0.64842,-2.02629 0.97262,-3.10833 0.97262,-3.24612c-2.15597,-0.64842 -3.31098,-0.97262 -3.46496,-0.97262z" id="path483"/><path d="M259.20927,164.19993l0.08511,0.15802l-1.6413,8.70497h0.08511l4.18227,-1.22794v-4.92391c0.01621,-0.11346 0.06889,-0.17017 0.15806,-0.17017c3.14482,0.21884 4.89554,0.32825 5.25217,0.32825c0,0.05672 0.02836,0.08509 0.0851,0.08509c0,1.38598 -0.43767,4.25928 -1.31304,8.61986c0,0.25125 -1.25631,0.44172 -3.76891,0.57141c-0.12969,-0.154 -0.2391,-0.48226 -0.32825,-0.98477c-3.21775,0.65652 -5.05358,0.98477 -5.50747,0.98477c-2.56933,-1.91282 -3.85401,-2.89759 -3.85401,-2.95433c0.43767,-5.74658 0.71325,-8.72928 0.82673,-8.94811h0.07295c2.05061,-0.05672 3.93912,-0.13778 5.66553,-0.24317z" id="path485"/><path d="M279.4398,164.19993l4.04854,2.78413c-0.28367,4.61996 -0.48226,7.31899 -0.59574,8.09707c-0.4701,0.05672 -1.90067,0.14183 -4.29169,0.25532l-0.08511,-0.17018l-0.42552,-6.49226l-0.17022,-0.08509c-1.5481,0.3323 -2.61391,0.58356 -3.19749,0.75378c0.1621,2.76386 0.24315,4.76179 0.24315,5.99379c-2.41535,0.67273 -3.73649,1.00908 -3.96343,1.00908c-1.57241,-6.92182 -2.35861,-10.57727 -2.35861,-10.9663c3.42039,-0.44579 5.27648,-0.66868 5.56827,-0.66868v0.08509c0.05674,0.04052 0.14185,0.88345 0.2553,2.52881c3.1367,-2.08304 4.79422,-3.12455 4.97253,-3.12455z" id="path487"/><path d="M288.32713,160.52829l5.34943,0.94831l-0.51063,4.06069c1.06178,-0.05672 1.83987,-0.08509 2.3343,-0.08509h0.77809l0.17022,-0.08509l0.08511,0.17018c-0.17022,2.46397 -0.3161,3.84997 -0.43768,4.15796l-0.17021,-0.09724c-0.12158,0 -1.21578,-0.05672 -3.28261,-0.17018c-0.11348,1.90471 -0.19859,4.18227 -0.2553,6.83267l-0.17021,0.08509c-2.60986,-0.1702 -4.16606,-0.3161 -4.66859,-0.43767l0.08511,-0.34041c0,-0.70516 0.11348,-2.89355 0.34041,-6.56519c-2.1884,-0.12155 -3.2826,-0.26746 -3.2826,-0.4377c0.11348,-2.70712 0.25936,-4.0607 0.43767,-4.0607l3.1975,0.60789v-1.04557c0,-0.85104 -0.03243,-2.00197 -0.09727,-3.4528c0.06484,0 0.09727,-0.02837 0.09727,-0.08509z" id="path489"/><path d="M299.50016,159.32466l4.778,0.7538c-0.59977,2.29376 -0.99289,3.44064 -1.1793,3.44064c-2.51262,-0.17022 -3.7689,-0.33637 -3.7689,-0.49847v-3.52575c0.02431,-0.11346 0.08105,-0.17018 0.17021,-0.17018zM298.1628,165.11176h0.07295c3.69597,0.67273 5.54393,1.06583 5.54393,1.17929c-1.06178,6.01404 -1.70614,9.36554 -1.93309,10.05448h-3.85403c-0.11348,0 -0.17022,-0.05671 -0.17022,-0.17017z" id="path491"/><path d="M315.47544,164.19993l4.04853,2.78413c-0.28367,4.61996 -0.48226,7.31899 -0.59574,8.09707c-0.4701,0.05672 -1.90066,0.14183 -4.29168,0.25532l-0.08511,-0.17018l-0.42552,-6.49226l-0.17021,-0.08509c-1.5481,0.3323 -2.61392,0.58356 -3.1975,0.75378c0.1621,2.76386 0.24315,4.76179 0.24315,5.99379c-2.41535,0.67273 -3.73649,1.00908 -3.96343,1.00908c-1.57241,-6.92182 -2.35861,-10.57727 -2.35861,-10.9663c3.42039,-0.44579 5.27647,-0.66868 5.56826,-0.66868v0.08509c0.05674,0.04052 0.14185,0.88345 0.2553,2.52881c3.1367,-2.08304 4.79422,-3.12455 4.97253,-3.12455z" id="path493"/><path d="M329.7973,164.23641c3.4447,0.08915 5.16706,0.23909 5.16706,0.44983c0.59168,8.97244 0.88753,13.74639 0.88753,14.32185c-2.60988,1.66156 -4.47811,2.78819 -5.60473,3.37987c-3.97155,-1.24819 -5.9573,-1.96146 -5.9573,-2.13977c1.28062,-1.87229 2.02224,-2.8206 2.22489,-2.84491c2.16408,1.06988 3.40824,1.60482 3.73243,1.60482l1.15499,-1.51973c-0.308,-1.25631 -0.51469,-1.99793 -0.62005,-2.22486c-0.17831,0 -2.37483,0.35663 -6.5895,1.06988c-2.30997,-3.75269 -3.46495,-5.67766 -3.46495,-5.77493c1.99387,-3.18534 3.20966,-5.05358 3.64733,-5.60473h0.0851c0.23505,0 1.98578,0.38499 5.25217,1.15499v-0.26748c0,-0.3161 -0.02837,-0.82267 -0.08511,-1.51973zM325.97974,169.39129c0.11348,0.25127 0.4701,1.58862 1.06988,4.01207c0.75378,-0.24317 1.90877,-0.68894 3.46496,-1.33736c-0.29989,-1.45893 -0.44983,-2.28972 -0.44983,-2.49234l-0.43768,-0.08509h-0.53494c-0.68085,0 -1.71829,-0.03241 -3.11239,-0.09724z" id="path495"/></g></g></g></svg>