<svg version="1.1" xmlns="http://www.w3.org/2000/svg" xmlns:xlink="http://www.w3.org/1999/xlink" width="600.24007" height="378.15262"><defs><linearGradient x1="125.2464" y1="231.81452" x2="125.81298" y2="360.18802" gradientUnits="userSpaceOnUse" id="color-1"><stop offset="0" stop-color="#935f0a"/><stop offset="1" stop-color="#de7b19"/></linearGradient></defs><g transform="translate(103.24007,3.0197)"><g data-paper-data="{&quot;isPaintingLayer&quot;:true}" fill="none" fill-rule="nonzero" stroke="none" stroke-width="0" stroke-linecap="butt" stroke-linejoin="miter" stroke-miterlimit="10" stroke-dasharray="" stroke-dashoffset="0" font-family="none" font-weight="none" font-size="none" text-anchor="none" style="mix-blend-mode: normal"><path d="M-103.00556,336.46449c-0.0476,0.0889 -0.11935,0.16399 -0.20301,0.23171c-0.01043,-0.01399 -0.02093,-0.02795 -0.0315,-0.04186c0.16471,-0.16122 0.29477,-0.30241 0.23451,-0.18985z" data-paper-data="{&quot;origPos&quot;:null,&quot;index&quot;:null}" id="ID0.29126935824751854" fill="url(#color-1)" stroke="#372403"/><path d="M80.49561,375.13292h-94.26563v-105.1h94.26563z" data-paper-data="{&quot;origPos&quot;:null,&quot;index&quot;:null}" id="ID0.17253359453752637" fill="#000000" stroke="#964f17"/><path d="M203.73037,359.23303h-33.86781v-222.42081h33.86782z" data-paper-data="{&quot;origPos&quot;:null,&quot;index&quot;:null}" id="ID0.17253359453752637" fill="#000000" stroke="#964f17"/><path d="M187.12979,250.32999l-8.60592,20.75257l-59.71211,-36.84379l8.60592,-20.75257z" data-paper-data="{&quot;origPos&quot;:null,&quot;index&quot;:null,&quot;origRot&quot;:0}" id="ID0.17253359453752637" fill="#000000" stroke="#964f17"/><path d="M242.1686,156.96284l10.32409,19.56135l-56.4852,43.71593l-10.32409,-19.56135z" data-paper-data="{&quot;origPos&quot;:null,&quot;index&quot;:null,&quot;origRot&quot;:0}" id="ID0.17253359453752637" fill="#000000" stroke="#964f17"/><path d="M330.35847,362.13292h-33.86782v-288.15262h33.86782z" data-paper-data="{&quot;origPos&quot;:null,&quot;index&quot;:null}" id="ID0.17253359453752637" fill="#000000" stroke="#964f17"/><path d="M480.35847,249.13292h-33.86782v-252.15262h33.86782z" data-paper-data="{&quot;origPos&quot;:null,&quot;index&quot;:null}" id="ID0.17253359453752637" fill="#000000" stroke="#964f17"/><path d="M320,137v-21h63v21z" data-paper-data="{&quot;origPos&quot;:null}" fill="#000000" stroke="none"/><path d="M395,249v-21h63v21z" data-paper-data="{&quot;origPos&quot;:null}" fill="#000000" stroke="none"/><path d="M326,360v-29h171v29z" data-paper-data="{&quot;origPos&quot;:null}" fill="#000000" stroke="none"/></g></g></svg>