<svg version="1.1" xmlns="http://www.w3.org/2000/svg" xmlns:xlink="http://www.w3.org/1999/xlink" width="487" height="135.58427" viewBox="0,0,487,135.58427"><g transform="translate(4,-268.38479)"><g data-paper-data="{&quot;isPaintingLayer&quot;:true}" fill-rule="nonzero" stroke="none" stroke-linecap="butt" stroke-linejoin="miter" stroke-miterlimit="10" stroke-dasharray="" stroke-dashoffset="0" style="mix-blend-mode: normal"><path d="M131,300.46546l60.86667,-32h96.4l60.73334,32z" data-paper-data="{&quot;index&quot;:null}" fill="#ececec" stroke-width="0"/><path d="M-4,299.66546h487v74h-487z" data-paper-data="{&quot;origPos&quot;:null,&quot;index&quot;:null}" fill="#ececec" stroke-width="1"/><path d="M88.7,334.16546v-34.5h43.5v34.5z" data-paper-data="{&quot;origPos&quot;:null,&quot;index&quot;:null}" fill="#616161" stroke-width="0"/><path d="M347.8,334.16546v-34.5h43.5v34.5z" data-paper-data="{&quot;index&quot;:null}" fill="#616161" stroke-width="0"/><path d="M175.5,310.46546v-33.1l16.84246,-8.98067l26.65755,0.08067v42z" data-paper-data="{&quot;index&quot;:null}" fill="#616161" stroke-width="0"/><path d="M219,360.96546v-50.5h42.25v50.5z" data-paper-data="{&quot;index&quot;:null}" fill="#616161" stroke-width="0"/><path d="M-0.30931,311.59789l0.51839,-36.47748l44.58161,24v35z" data-paper-data="{&quot;index&quot;:null}" fill="#616161" stroke-width="0"/><path d="M132.16667,369.46546v-35l43,-24l0.5,59z" data-paper-data="{&quot;origPos&quot;:null,&quot;index&quot;:null}" fill="#616161" stroke-width="0"/><path d="M304.5,369.96546l0.5,-59l43,24v35z" data-paper-data="{&quot;origPos&quot;:null,&quot;index&quot;:null}" fill="#616161" stroke-width="0"/><path d="M391.25721,368.69399v-34.5h43.5v34.5z" data-paper-data="{&quot;index&quot;:null}" fill="#616161" stroke-width="0"/><path d="M45.00135,368.58949v-34.5h43.5v34.5z" data-paper-data="{&quot;index&quot;:null}" fill="#616161" stroke-width="0"/><path d="M434.79219,334.23633v-35l45.37241,-24l0.52758,36.47748z" data-paper-data="{&quot;index&quot;:null}" fill="#616161" stroke-width="0"/><path d="M261.375,310.46546v-42l26.65755,-0.08067l16.84246,8.98067v33.1z" data-paper-data="{&quot;index&quot;:null}" fill="#616161" stroke-width="0"/><path d="M-0.30931,381.33062l0.51839,-36.47748l44.58161,24v35z" data-paper-data="{&quot;index&quot;:null}" fill="#616161" stroke-width="0"/><path d="M434.79219,403.96906v-35l45.37241,-24l0.52758,36.47748z" data-paper-data="{&quot;index&quot;:null}" fill="#616161" stroke-width="0"/></g></g></svg>