<svg version="1.1" xmlns="http://www.w3.org/2000/svg" xmlns:xlink="http://www.w3.org/1999/xlink" width="143.7336" height="143.73361" viewBox="0,0,143.7336,143.73361"><defs><linearGradient x1="240" y1="110.13321" x2="240" y2="249.86682" gradientUnits="userSpaceOnUse" id="color-1"><stop offset="0" stop-color="#3c94ed"/><stop offset="1" stop-color="#337fcc"/></linearGradient><radialGradient cx="224.77462" cy="226.36669" r="14.08549" gradientUnits="userSpaceOnUse" id="color-2"><stop offset="0" stop-color="#fef242"/><stop offset="1" stop-color="#fef242" stop-opacity="0"/></radialGradient><radialGradient cx="279.6197" cy="210.66861" r="14.08549" gradientUnits="userSpaceOnUse" id="color-3"><stop offset="0" stop-color="#fef242"/><stop offset="1" stop-color="#fef242" stop-opacity="0"/></radialGradient><radialGradient cx="276.01876" cy="153.59881" r="14.08549" gradientUnits="userSpaceOnUse" id="color-4"><stop offset="0" stop-color="#fef242"/><stop offset="1" stop-color="#fef242" stop-opacity="0"/></radialGradient><radialGradient cx="224.80334" cy="137.13619" r="14.08549" gradientUnits="userSpaceOnUse" id="color-5"><stop offset="0" stop-color="#fef242"/><stop offset="1" stop-color="#fef242" stop-opacity="0"/></radialGradient><radialGradient cx="192.82163" cy="179.34872" r="14.08549" gradientUnits="userSpaceOnUse" id="color-6"><stop offset="0" stop-color="#fef242"/><stop offset="1" stop-color="#fef242" stop-opacity="0"/></radialGradient><radialGradient cx="239.70693" cy="179.27934" r="65.01652" gradientUnits="userSpaceOnUse" id="color-7"><stop offset="0" stop-color="#fff343"/><stop offset="1" stop-color="#fff343" stop-opacity="0"/></radialGradient><linearGradient x1="183.98226" y1="151.15973" x2="207.69306" y2="230.9526" gradientUnits="userSpaceOnUse" id="color-8"><stop offset="0" stop-color="#fff01b"/><stop offset="1" stop-color="#ffa30a"/></linearGradient><linearGradient x1="237.7182" y1="167.58849" x2="242.85928" y2="184.88954" gradientUnits="userSpaceOnUse" id="color-9"><stop offset="0" stop-color="#000000"/><stop offset="1" stop-color="#674205"/></linearGradient><linearGradient x1="223.13934" y1="171.83504" x2="228.28042" y2="189.13609" gradientUnits="userSpaceOnUse" id="color-10"><stop offset="0" stop-color="#000000"/><stop offset="1" stop-color="#674205"/></linearGradient><radialGradient cx="221.60629" cy="134.16953" r="15.04319" gradientUnits="userSpaceOnUse" id="color-11"><stop offset="0" stop-color="#ffe618"/><stop offset="1" stop-color="#ffaa0b"/></radialGradient><radialGradient cx="273.92816" cy="150.93697" r="14.8938" gradientUnits="userSpaceOnUse" id="color-12"><stop offset="0" stop-color="#ffe618"/><stop offset="1" stop-color="#ffaa0b"/></radialGradient><radialGradient cx="277.36496" cy="208.38282" r="14.59274" gradientUnits="userSpaceOnUse" id="color-13"><stop offset="0" stop-color="#ffe618"/><stop offset="1" stop-color="#ffaa0b"/></radialGradient><radialGradient cx="221.54361" cy="224.97603" r="14.74212" gradientUnits="userSpaceOnUse" id="color-14"><stop offset="0" stop-color="#ffe618"/><stop offset="1" stop-color="#ffaa0b"/></radialGradient><radialGradient cx="188.91572" cy="177.24344" r="15.19274" gradientUnits="userSpaceOnUse" id="color-15"><stop offset="0" stop-color="#ffe618"/><stop offset="1" stop-color="#ffaa0b"/></radialGradient></defs><g transform="translate(-168.1332,-108.1332)"><g data-paper-data="{&quot;isPaintingLayer&quot;:true}" fill-rule="nonzero" stroke-linejoin="miter" stroke-miterlimit="10" stroke-dasharray="" stroke-dashoffset="0" style="mix-blend-mode: normal"><path d="M240,110.13321c19.2752,0 36.74421,7.8268 49.3899,20.47689c12.64989,12.64569 20.4769,30.11449 20.4769,49.38991c0,19.27542 -7.82701,36.74421 -20.4769,49.38991c-12.64569,12.65009 -30.1147,20.4769 -49.3899,20.4769c-19.27542,0 -36.74442,-7.8268 -49.39012,-20.4769c-12.64989,-12.64569 -20.47668,-30.11449 -20.47668,-49.38991c0,-19.27542 7.82679,-36.74421 20.47668,-49.38991c12.64569,-12.6501 30.11471,-20.47689 49.39012,-20.47689z" data-paper-data="{&quot;origPos&quot;:null}" id="ID0.4039921844378114" fill="url(#color-1)" stroke="#23568d" stroke-width="4" stroke-linecap="butt"/><path d="M222.00312,216.40826c2.79859,-0.83161 5.67412,-0.4488 8.05656,0.8421c2.38244,1.2909 4.27343,3.49075 5.10509,6.28949c0.83161,2.79859 0.4488,5.67412 -0.8421,8.05656c-1.2909,2.38244 -3.49075,4.27343 -6.28934,5.10504c-2.79874,0.83166 -5.67427,0.44885 -8.05671,-0.84205c-2.38244,-1.2909 -4.27343,-3.49075 -5.10504,-6.28933c-0.83166,-2.79874 -0.44885,-5.67427 0.84205,-8.05671c1.2909,-2.38244 3.49075,-4.27343 6.28949,-5.10509z" data-paper-data="{&quot;origRot&quot;:0,&quot;origPos&quot;:null}" id="ID0.372247823048383" fill="url(#color-2)" stroke="none" stroke-width="0.86844" stroke-linecap="butt"/><path d="M276.8482,200.71019c2.79859,-0.83161 5.67412,-0.4488 8.05656,0.8421c2.38244,1.2909 4.27342,3.49075 5.10508,6.2895c0.83161,2.79859 0.4488,5.67411 -0.84209,8.05655c-1.29089,2.38244 -3.49075,4.27343 -6.28934,5.10504c-2.79874,0.83166 -5.67427,0.44885 -8.05671,-0.84205c-2.38244,-1.2909 -4.27343,-3.49075 -5.10504,-6.28933c-0.83166,-2.79874 -0.44884,-5.67427 0.84205,-8.05671c1.29089,-2.38244 3.49075,-4.27343 6.28949,-5.10509z" data-paper-data="{&quot;origRot&quot;:0,&quot;origPos&quot;:null}" id="ID0.372247823048383" fill="url(#color-3)" stroke="none" stroke-width="0.86844" stroke-linecap="butt"/><path d="M273.24727,143.64039c2.79859,-0.83161 5.67411,-0.4488 8.05655,0.8421c2.38244,1.2909 4.27343,3.49075 5.10509,6.2895c0.83161,2.79859 0.4488,5.67411 -0.8421,8.05655c-1.29089,2.38244 -3.49075,4.27343 -6.28933,5.10504c-2.79874,0.83166 -5.67427,0.44885 -8.05671,-0.84205c-2.38244,-1.2909 -4.27342,-3.49075 -5.10504,-6.28933c-0.83166,-2.79874 -0.44884,-5.67427 0.84205,-8.05671c1.29089,-2.38244 3.49075,-4.27343 6.28949,-5.10509z" data-paper-data="{&quot;origRot&quot;:0,&quot;origPos&quot;:null}" id="ID0.372247823048383" fill="url(#color-4)" stroke="none" stroke-width="0.86844" stroke-linecap="butt"/><path d="M222.03185,127.17778c2.79859,-0.83161 5.67411,-0.4488 8.05655,0.8421c2.38244,1.2909 4.27343,3.49075 5.10509,6.28949c0.83161,2.79859 0.4488,5.67412 -0.8421,8.05656c-1.2909,2.38244 -3.49075,4.27343 -6.28934,5.10504c-2.79874,0.83166 -5.67427,0.44885 -8.05671,-0.84205c-2.38244,-1.2909 -4.27343,-3.49075 -5.10504,-6.28933c-0.83166,-2.79874 -0.44885,-5.67427 0.84205,-8.05671c1.2909,-2.38244 3.49075,-4.27343 6.2895,-5.10509z" data-paper-data="{&quot;origRot&quot;:0,&quot;origPos&quot;:null}" id="ID0.372247823048383" fill="url(#color-5)" stroke="none" stroke-width="0.86844" stroke-linecap="butt"/><path d="M190.05013,169.3903c2.79859,-0.83161 5.67412,-0.4488 8.05656,0.8421c2.38244,1.2909 4.27343,3.49075 5.10509,6.28949c0.83161,2.79859 0.4488,5.67412 -0.8421,8.05656c-1.2909,2.38244 -3.49075,4.27343 -6.28933,5.10504c-2.79874,0.83166 -5.67427,0.44885 -8.05671,-0.84205c-2.38244,-1.2909 -4.27343,-3.49075 -5.10504,-6.28934c-0.83166,-2.79874 -0.44885,-5.67427 0.84205,-8.05671c1.2909,-2.38244 3.49075,-4.27343 6.28949,-5.10509z" data-paper-data="{&quot;origRot&quot;:0,&quot;origPos&quot;:null}" id="ID0.372247823048383" fill="url(#color-6)" stroke="none" stroke-width="0.86844" stroke-linecap="butt"/><path d="M189.79901,184.31001l-2.32297,-1.66819l0.13335,-4.88091l2.2356,-1.90554l26.52859,-7.88309l3.67634,-30.26373l1.93054,-2.93214l2.60836,-0.6511l3.84584,1.46398l20.29846,22.39475l26.729,-8.4391l3.16106,0.79854l2.90625,1.9915l-0.73704,5.30844l-9.94605,22.69274l12.64584,26.1583l1.51169,4.26774l-2.35766,2.31429l-5.19637,0.55121l-31.16816,-10.59963l-15.83838,27.05046l-4.65395,2.37603l-4.15828,-0.87468l-2.82415,-4.99498l-5.01773,-26.31487z" data-paper-data="{&quot;origRot&quot;:0,&quot;origPos&quot;:null}" id="ID0.3117544511333108" fill="url(#color-7)" stroke="none" stroke-width="1.43627" stroke-linecap="round"/><path d="M195.07733,182.99088l-2.06947,-1.45771l0.14134,-4.29674l2.00773,-1.68748l23.75739,-7.05961l3.42515,-26.65481l1.73962,-2.58976l2.33537,-0.58488l3.43231,1.27107l18.04841,19.61932l23.93911,-7.54996l2.82282,0.68841l2.58961,1.73966l-0.68318,4.67593l-8.9971,20.01941l11.18851,22.96681l1.33242,3.74972l-2.11884,2.04776l-4.649,0.50877l-27.82172,-9.18762l-14.28565,23.88192l-4.17242,2.11255l-3.71412,-0.75099l-2.50261,-4.38377l-4.36692,-23.13923z" data-paper-data="{&quot;origRot&quot;:0,&quot;origPos&quot;:null}" id="ID0.3117544511333108" fill="url(#color-8)" stroke="none" stroke-width="1.27408" stroke-linecap="round"/><g data-paper-data="{&quot;origRot&quot;:0,&quot;origPos&quot;:null}" id="ID0.4398073833435774" stroke="none" stroke-width="2.7674"><path d="M241.25762,166.53845c1.09229,-0.37098 2.46527,0.21651 3.26438,1.20675c1.44993,1.7973 2.26574,4.21133 2.88025,6.50982c0.58204,2.11719 0.89426,4.39196 0.6512,6.51201c-0.13196,1.24105 -0.5827,2.76247 -1.65521,3.0709c-1.03302,0.29669 -2.14662,-0.23911 -3.13811,-1.50218c-1.26154,-1.59554 -2.24867,-3.66463 -3.00636,-6.21443c-0.75773,-2.54996 -1.11397,-4.71353 -0.87512,-6.84774c0.155,-1.40785 0.92657,-2.49852 1.87897,-2.73512z" id="ID0.6670762049034238" fill="url(#color-9)" stroke-linecap="round"/><path d="M241.82775,167.82776c0.57026,-0.16945 1.16838,-0.04288 1.67573,0.29631c0.50739,0.33935 0.92401,0.89131 1.1282,1.57849c0.20419,0.68717 0.1566,1.37707 -0.08318,1.93828c-0.23974,0.56136 -0.67167,0.99403 -1.24193,1.16349c-0.57011,0.16941 -1.16838,0.04288 -1.67577,-0.29647c-0.50734,-0.33919 -0.9238,-0.8912 -1.12799,-1.57837c-0.20419,-0.68717 -0.15677,-1.37703 0.08298,-1.93839c0.23979,-0.56121 0.67187,-0.99392 1.24198,-1.16333z" id="ID0.2271407265216112" fill="#ffffff" stroke-linecap="butt"/></g><g data-paper-data="{&quot;origRot&quot;:0,&quot;origPos&quot;:null}" id="ID0.4398073833435774" stroke="none" stroke-width="2.7674"><path d="M226.67875,170.785c1.09229,-0.37098 2.46528,0.21651 3.26439,1.20675c1.44993,1.7973 2.26573,4.21133 2.88024,6.50982c0.58204,2.11719 0.89425,4.39196 0.6512,6.51201c-0.13196,1.24105 -0.58269,2.76247 -1.65521,3.0709c-1.03302,0.29669 -2.14661,-0.2391 -3.1381,-1.50218c-1.26154,-1.59554 -2.24867,-3.66463 -3.00636,-6.21444c-0.75773,-2.54996 -1.11398,-4.71353 -0.87512,-6.84774c0.155,-1.40785 0.92657,-2.49852 1.87897,-2.73512z" id="ID0.6670762049034238" fill="url(#color-10)" stroke-linecap="round"/><path d="M227.30418,171.97225c0.57026,-0.16945 1.16837,-0.04288 1.67572,0.29631c0.50739,0.33935 0.92401,0.89131 1.1282,1.57849c0.20419,0.68717 0.15661,1.37707 -0.08318,1.93828c-0.23974,0.56136 -0.67168,0.99402 -1.24194,1.16348c-0.57011,0.16941 -1.16838,0.04288 -1.67577,-0.29647c-0.50734,-0.33919 -0.9238,-0.8912 -1.12799,-1.57837c-0.20419,-0.68717 -0.15677,-1.37703 0.08298,-1.93839c0.23979,-0.56121 0.67188,-0.99391 1.24198,-1.16332z" id="ID0.2271407265216112" fill="#ffffff" stroke-linecap="butt"/></g><path d="M222.26465,128.66374c2.20268,-0.65454 4.46486,-0.35387 6.34089,0.66263c1.87607,1.01666 3.36341,2.74735 4.01799,4.95019c0.65454,2.20268 0.35371,4.4649 -0.66279,6.34094c-1.01646,1.87618 -2.74735,3.36341 -4.95003,4.01794c-2.20283,0.65458 -4.46485,0.35387 -6.34109,-0.66274c-1.87603,-1.0165 -3.36325,-2.7474 -4.01779,-4.95008c-0.65458,-2.20283 -0.35387,-4.46486 0.66258,-6.34105c1.01666,-1.87607 2.7474,-3.36325 4.95023,-4.01783z" data-paper-data="{&quot;origRot&quot;:0,&quot;origPos&quot;:null}" id="ID0.9518169411458075" fill="url(#color-11)" stroke="none" stroke-width="1.40972" stroke-linecap="butt"/><path d="M273.77771,145.55166c2.20268,-0.65454 4.46485,-0.35387 6.34088,0.66263c1.87608,1.01666 3.36341,2.74736 4.01799,4.95019c0.65454,2.20268 0.35372,4.4649 -0.66278,6.34094c-1.01646,1.87618 -2.74735,3.36341 -4.95003,4.01794c-2.20283,0.65458 -4.46486,0.35387 -6.3411,-0.66274c-1.87603,-1.0165 -3.36325,-2.7474 -4.01778,-4.95008c-0.65458,-2.20283 -0.35388,-4.46486 0.66258,-6.34105c1.01666,-1.87607 2.74741,-3.36325 4.95024,-4.01783z" data-paper-data="{&quot;origRot&quot;:0,&quot;origPos&quot;:null}" id="ID0.9518169411458075" fill="url(#color-12)" stroke="none" stroke-width="1.40972" stroke-linecap="butt"/><path d="M277.4807,202.67675c2.20268,-0.65454 4.46486,-0.35388 6.34089,0.66262c1.87608,1.01666 3.36341,2.74736 4.01799,4.95019c0.65454,2.20268 0.35371,4.4649 -0.66279,6.34094c-1.01646,1.87618 -2.74735,3.36341 -4.95003,4.01794c-2.20283,0.65458 -4.46485,0.35387 -6.34109,-0.66274c-1.87603,-1.0165 -3.36325,-2.7474 -4.01779,-4.95008c-0.65458,-2.20283 -0.35388,-4.46486 0.66258,-6.34104c1.01666,-1.87607 2.7474,-3.36325 4.95024,-4.01783z" data-paper-data="{&quot;origRot&quot;:0,&quot;origPos&quot;:null}" id="ID0.9518169411458075" fill="url(#color-13)" stroke="none" stroke-width="1.40972" stroke-linecap="butt"/><path d="M222.71429,218.35145c2.20268,-0.65454 4.46486,-0.35387 6.34088,0.66263c1.87607,1.01666 3.36342,2.74736 4.018,4.95019c0.65454,2.20268 0.35371,4.46491 -0.66279,6.34094c-1.01646,1.87618 -2.74735,3.36341 -4.95003,4.01794c-2.20283,0.65458 -4.46485,0.35387 -6.34109,-0.66274c-1.87603,-1.0165 -3.36325,-2.7474 -4.01779,-4.95008c-0.65458,-2.20283 -0.35388,-4.46486 0.66258,-6.34105c1.01666,-1.87607 2.74741,-3.36325 4.95024,-4.01783z" data-paper-data="{&quot;origRot&quot;:0,&quot;origPos&quot;:null}" id="ID0.9518169411458075" fill="url(#color-14)" stroke="none" stroke-width="1.40972" stroke-linecap="butt"/><path d="M190.49335,171.58435c2.20268,-0.65454 4.46486,-0.35387 6.34089,0.66263c1.87607,1.01666 3.36341,2.74735 4.01799,4.95019c0.65454,2.20268 0.35372,4.4649 -0.66278,6.34094c-1.01646,1.87618 -2.74736,3.36341 -4.95004,4.01794c-2.20283,0.65458 -4.46485,0.35387 -6.34109,-0.66274c-1.87603,-1.0165 -3.36326,-2.7474 -4.01779,-4.95008c-0.65458,-2.20283 -0.35387,-4.46486 0.66258,-6.34105c1.01666,-1.87607 2.7474,-3.36325 4.95024,-4.01783z" data-paper-data="{&quot;origRot&quot;:0,&quot;origPos&quot;:null}" id="ID0.9518169411458075" fill="url(#color-15)" stroke="none" stroke-width="1.40972" stroke-linecap="butt"/></g></g></svg>