<svg version="1.1" xmlns="http://www.w3.org/2000/svg" xmlns:xlink="http://www.w3.org/1999/xlink" width="193.49879" height="40.741" viewBox="0,0,193.49879,40.741"><g transform="translate(-143.61522,-159.59341)"><g data-paper-data="{&quot;isPaintingLayer&quot;:true}" fill="#ffffff" fill-rule="nonzero" stroke="none" stroke-width="none" stroke-linecap="butt" stroke-linejoin="miter" stroke-miterlimit="10" stroke-dasharray="" stroke-dashoffset="0" font-family="none" font-weight="none" font-size="none" text-anchor="none" style="mix-blend-mode: normal"><text transform="translate(143.97612,195.64277) scale(0.7218,0.72179)" font-size="22" xml:space="preserve" data-paper-data="{&quot;origPos&quot;:null}" id="ID0.08681221166625619" fill="#ffffff" fill-rule="nonzero" stroke="none" stroke-width="1" stroke-linecap="butt" stroke-linejoin="miter" stroke-miterlimit="10" stroke-dasharray="" stroke-dashoffset="0" font-family="Sans Serif" font-weight="400" text-anchor="start" style="mix-blend-mode: normal"><tspan x="0" dy="0">Complete four scralaxies.</tspan></text><g data-paper-data="{&quot;origPos&quot;:null,&quot;index&quot;:null}" id="text84" stroke-width="0.26458"><path d="M183.03565,159.59341c0.04864,0.10534 0.07295,0.18235 0.07295,0.23099c-0.04864,2.41535 -0.07295,3.81349 -0.07295,4.19442l-0.15806,0.07294c-3.72028,0.09724 -5.85194,0.14587 -6.395,0.14587l-0.07295,0.15802c0.04862,0.89968 0.07295,1.63725 0.07295,2.21271v0.37689h0.07295l4.94822,-0.60789l0.0851,0.14587v3.73243c0,0.10534 -0.05268,0.15802 -0.15804,0.15802l-4.64427,-0.53494v0.44983c0,1.02125 0.02836,2.54503 0.0851,4.57132c-0.45389,0.10534 -1.82771,0.28365 -4.12149,0.53494c-0.14588,-0.28367 -0.8551,-4.98062 -2.12762,-14.09084h0.07295z" id="path498"/><path d="M189.33338,163.30151c3.07996,0.82673 4.71316,1.32926 4.89957,1.50757c1.69398,2.39914 2.64635,3.78107 2.85707,4.1458c-1.09421,3.46902 -1.72235,5.20352 -1.88445,5.20352c-3.64733,0.85104 -5.55611,1.27656 -5.72631,1.27656c-3.01512,-1.75882 -4.61996,-2.73955 -4.81447,-2.94218c-0.10536,-3.27449 -0.15805,-5.08194 -0.15805,-5.42236c-0.04864,-0.09724 -0.07295,-0.1702 -0.07295,-0.21884c3.11239,-2.36673 4.72127,-3.55008 4.82663,-3.55008zM189.10236,167.75126c-0.04864,0.32422 -0.12157,1.50351 -0.21884,3.53791l2.71118,0.60789c0.64842,-2.02629 0.97261,-3.10833 0.97261,-3.24612c-2.15597,-0.64842 -3.31098,-0.97262 -3.46496,-0.97262z" id="path500"/><path d="M204.76158,163.28936l0.0851,0.15802l-1.6413,8.70497h0.08511l4.18227,-1.22794v-4.92389c0.01621,-0.11346 0.06889,-0.17018 0.15804,-0.17018c3.14482,0.21884 4.89554,0.32826 5.25217,0.32826c0,0.05672 0.02836,0.08509 0.0851,0.08509c0,1.38598 -0.43767,4.25928 -1.31304,8.61986c0,0.25127 -1.25631,0.44174 -3.76891,0.57141c-0.12969,-0.154 -0.2391,-0.48226 -0.32825,-0.98477c-3.21775,0.65652 -5.05358,0.98477 -5.50747,0.98477c-2.56933,-1.91282 -3.85401,-2.89759 -3.85401,-2.95433c0.43767,-5.74658 0.71325,-8.72928 0.82673,-8.94811h0.07295c2.05061,-0.05672 3.93912,-0.13778 5.66553,-0.24317z" id="path502"/><path d="M222.92529,163.28936c1.60482,0.89968 2.58961,1.48324 2.95435,1.75072c-1.31304,2.73145 -2.01818,4.12149 -2.11545,4.17011h-0.08511l-1.73856,-1.51971l-2.05467,2.5045l0.23099,4.55917c-0.10538,0.09724 -1.44678,0.32418 -4.02423,0.68083c-0.09727,-0.69704 -0.72946,-4.11338 -1.89661,-10.24899c0,-0.09724 1.69398,-0.34851 5.08195,-0.75379c0.05674,0.06484 0.21074,0.82267 0.46199,2.27351c2.02629,-2.27756 3.08808,-3.41634 3.18534,-3.41634z" id="path504"/><path d="M230.47527,159.61772l5.34943,0.94831l-0.51063,4.06069c1.06178,-0.05672 1.83986,-0.08509 2.33428,-0.08509h0.77809l0.17022,-0.08509l0.08511,0.17018c-0.17022,2.46397 -0.3161,3.84997 -0.43768,4.15796l-0.17021,-0.09724c-0.12158,0 -1.21578,-0.05672 -3.28261,-0.17018c-0.11348,1.90471 -0.19858,4.18227 -0.2553,6.83267l-0.17022,0.08509c-2.60986,-0.1702 -4.16605,-0.3161 -4.66858,-0.43767l0.0851,-0.34041c0,-0.70516 0.11348,-2.89355 0.34041,-6.56519c-2.1884,-0.12155 -3.2826,-0.26746 -3.2826,-0.4377c0.11348,-2.70712 0.25936,-4.0607 0.43767,-4.0607l3.1975,0.60789v-1.04557c0,-0.85104 -0.03243,-2.00197 -0.09727,-3.4528c0.06484,0 0.09727,-0.02837 0.09727,-0.08509z" id="path506"/><path d="M245.41718,159.61772c0.04864,0.07294 0.27557,2.29376 0.68084,6.66245c3.1286,-0.95642 4.79422,-1.43462 4.99685,-1.43462l3.10023,2.11547c-0.50251,4.61996 -0.83079,7.31899 -0.98477,8.09707l-4.30386,0.14587c0,-0.04862 -0.02836,-0.07293 -0.0851,-0.07293l0.0851,-0.30395c0,-0.65653 0.09727,-2.6504 0.29179,-5.98163c-1.18335,-0.04862 -2.06276,-0.07294 -2.63823,-0.07294h-0.30395c0.34853,3.70406 0.52278,5.72227 0.52278,6.05458l-4.085,0.60787c-0.154,-0.51873 -1.06178,-5.36157 -2.72333,-14.52854c0,-0.25936 0.6322,-0.46199 1.89661,-0.60787c1.59672,-0.45389 2.78007,-0.68085 3.55006,-0.68085z" id="path508"/><path d="M270.29196,159.62987c3.07996,0.77809 4.71721,1.2401 4.91174,1.38598c-1.09421,2.61798 -1.68183,3.95939 -1.76288,4.02423c-0.20262,0 -1.51973,-0.46199 -3.95127,-1.38598c-1.41031,1.31304 -2.11544,2.04655 -2.11544,2.20055c-0.10538,2.43154 -0.15806,3.84592 -0.15806,4.24306c1.68589,0.77809 2.68687,1.21578 3.00297,1.31304c1.57241,-0.68085 2.47613,-1.09421 2.71118,-1.24009l-0.43768,-1.39816c-0.29179,0.16212 -1.1712,0.5309 -2.63823,1.10636l-0.07295,-0.14587v-0.59571c0,-0.51063 -0.02431,-1.28874 -0.07295,-2.3343c0.38094,-0.09724 2.60176,-0.34039 6.66245,-0.72946c0.09727,0.50251 0.26746,2.64634 0.51063,6.43146c-0.12969,0.14588 -2.56935,1.12256 -7.31899,2.93002c-4.04448,-1.47514 -6.09508,-2.30591 -6.15183,-2.49234c-1.2644,-4.39301 -1.89661,-6.70702 -1.89661,-6.94207c1.66156,-2.99081 2.61392,-4.60375 2.85707,-4.8388c0.20262,-0.09724 2.17624,-0.60787 5.92083,-1.53188z" id="path510"/><path d="M282.99683,163.30151c3.07996,0.82673 4.71316,1.32926 4.89957,1.50757c1.69398,2.39914 2.64634,3.78107 2.85709,4.1458c-1.09421,3.46902 -1.72235,5.20352 -1.88445,5.20352c-3.64733,0.85104 -5.55611,1.27656 -5.72631,1.27656c-3.01512,-1.75882 -4.61996,-2.73955 -4.81447,-2.94218c-0.10538,-3.27449 -0.15806,-5.08194 -0.15806,-5.42236c-0.04864,-0.09724 -0.07295,-0.1702 -0.07295,-0.21884c3.11239,-2.36673 4.72126,-3.55008 4.82664,-3.55008zM282.76586,167.75126c-0.04864,0.32422 -0.12158,1.50351 -0.21884,3.53791l2.71118,0.60789c0.64842,-2.02629 0.97261,-3.10833 0.97261,-3.24612c-2.15597,-0.64842 -3.31097,-0.97262 -3.46495,-0.97262z" id="path512"/><path d="M293.70784,163.28936c4.81447,0.66463 7.22172,1.07394 7.22172,1.22794c1.89661,1.62915 2.84491,2.50045 2.84491,2.61391c-0.76999,2.40723 -1.20767,3.87023 -1.31305,4.38897c0.76999,1.71018 1.20767,2.73143 1.31305,3.06375c0,0.09724 -1.25631,0.3566 -3.76891,0.7781c-0.03243,-0.13779 -0.26342,-0.44579 -0.693,-0.92399c-3.46902,0.66461 -5.33725,0.99693 -5.60473,0.99693l-1.84799,-4.99685l4.07285,-2.15191c0.65652,0.10534 1.68183,0.15802 3.07592,0.15802c0,-0.17831 0.02431,-0.71731 0.07295,-1.61699c-0.23505,0 -2.33429,0.154 -6.29773,0.462l-0.07295,-0.15802c0.55115,-2.56124 0.88347,-3.84185 0.99695,-3.84185zM296.23667,170.43813c0,0.08915 0.25936,1.03745 0.77809,2.84493h0.07295c1.02125,-0.66463 1.53189,-1.1023 1.53189,-1.31304l0.15804,-1.30087c-0.19452,0 -1.04151,-0.07702 -2.54098,-0.23102z" id="path514"/><path d="M304.94163,159.62987c2.48019,0.04862 4.2998,0.07293 5.45884,0.07293c0.10538,0 0.42552,4.97659 0.96046,14.92975c-0.41337,0.10534 -1.85608,0.37282 -4.32817,0.8024c-0.12158,0 -0.52278,-3.04755 -1.20363,-9.14264c-0.05674,-0.14588 -0.35259,-2.36671 -0.88753,-6.66245z" id="path516"/></g></g></g></svg>