<svg version="1.1" xmlns="http://www.w3.org/2000/svg" xmlns:xlink="http://www.w3.org/1999/xlink" width="41.37543" height="41.37543"><defs><linearGradient x1="240.00004" y1="159.31232" x2="240.00004" y2="200.68775" gradientUnits="userSpaceOnUse" id="color-1"><stop offset="0" stop-color="#ffdd33"/><stop offset="1" stop-color="#ffd600"/></linearGradient></defs><g transform="translate(-219.31232,-159.31232)"><g data-paper-data="{&quot;isPaintingLayer&quot;:true}" fill="none" fill-rule="nonzero" stroke="none" stroke-width="none" stroke-linecap="butt" stroke-linejoin="miter" stroke-miterlimit="10" stroke-dasharray="" stroke-dashoffset="0" font-family="none" font-weight="none" font-size="none" text-anchor="none" style="mix-blend-mode: normal"><path d="M219.31233,159.31232h41.37543v41.37543h-41.37543z" data-paper-data="{&quot;origPos&quot;:null}" id="ID0.9625837923958898" fill="url(#color-1)" stroke-width="0.90186"/><path d="M259.34875,197.68485c0.20718,0.20622 0.33454,0.49134 0.33454,0.8059c0,0.31456 -0.12736,0.59968 -0.33454,0.8059c-0.20623,0.20718 -0.49134,0.33453 -0.8059,0.33453c-0.31457,0 -0.59967,-0.12735 -0.8059,-0.33453c-0.20718,-0.20622 -0.33453,-0.49134 -0.33453,-0.8059c0,-0.31456 0.12735,-0.59968 0.33453,-0.8059c0.20623,-0.20718 0.49133,-0.33454 0.8059,-0.33454c0.31457,0 0.59968,0.12736 0.8059,0.33454z" data-paper-data="{&quot;origPos&quot;:null,&quot;index&quot;:null}" id="ID0.22321769315749407" fill="#a88801" stroke-width="1"/><path d="M221.45719,197.3503c0.31457,0 0.59968,0.12736 0.8059,0.33454c0.20718,0.20622 0.33453,0.49134 0.33453,0.8059c0,0.31457 -0.12735,0.59968 -0.33453,0.8059c-0.20622,0.20718 -0.49134,0.33453 -0.8059,0.33453c-0.31457,0 -0.59968,-0.12735 -0.8059,-0.33453c-0.20718,-0.20622 -0.33453,-0.49134 -0.33453,-0.8059c0,-0.31457 0.12735,-0.59968 0.33453,-0.8059c0.20622,-0.20718 0.49135,-0.33454 0.8059,-0.33454z" data-paper-data="{&quot;origPos&quot;:null}" id="ID0.22321769315749407" fill="#a88801" stroke-width="1"/><path d="M220.65129,162.31518c-0.20718,-0.20622 -0.33453,-0.49134 -0.33453,-0.8059c0,-0.31456 0.12735,-0.59968 0.33453,-0.8059c0.20622,-0.20718 0.49134,-0.33453 0.8059,-0.33453c0.31456,0 0.59968,0.12735 0.8059,0.33453c0.20718,0.20622 0.33453,0.49134 0.33453,0.8059c0,0.31456 -0.12735,0.59968 -0.33453,0.8059c-0.20622,0.20718 -0.49134,0.33454 -0.8059,0.33454c-0.31456,0 -0.59968,-0.12736 -0.8059,-0.33454z" data-paper-data="{&quot;origPos&quot;:null,&quot;index&quot;:null}" id="ID0.22321769315749407" fill="#a88801" stroke-width="1"/><path d="M258.54284,162.64971c-0.31457,0 -0.59967,-0.12736 -0.8059,-0.33454c-0.20718,-0.20622 -0.33453,-0.49134 -0.33453,-0.8059c0,-0.31457 0.12735,-0.59968 0.33453,-0.8059c0.20623,-0.20718 0.49135,-0.33453 0.8059,-0.33453c0.31457,0 0.59968,0.12735 0.8059,0.33453c0.20718,0.20622 0.33454,0.49134 0.33454,0.8059c0,0.31457 -0.12736,0.59968 -0.33454,0.8059c-0.20623,0.20718 -0.49135,0.33454 -0.8059,0.33454z" data-paper-data="{&quot;origPos&quot;:null,&quot;index&quot;:null}" id="ID0.22321769315749407" fill="#a88801" stroke-width="1"/><path d="M226.69732,176.32976l0.16201,-8.02869l3.02352,-2.8591l21.65082,-0.03909l3.02352,2.58485l0.37797,9.75196l-2.64556,2.11496l-6.64106,0.07827l-1.83569,1.99742l0.05394,3.99485h-7.18094l0.10797,-7.67636l2.64566,-2.58484l7.72082,-0.11745l-0.10798,-4.9348l-13.22799,-0.11745l-0.21605,5.91383z" data-paper-data="{&quot;origPos&quot;:null}" id="ID0.8400339637883008" fill="#d8b400" stroke-width="1.01601"/><path d="M236.59301,190.34191h7.18095v5.56121h-7.18095z" data-paper-data="{&quot;origPos&quot;:null}" id="ID0.8400339637883008" fill="#d8b400" stroke-width="0.83793"/><path d="M225.06487,175.0238l0.16201,-8.02869l3.02353,-2.8591l21.65081,-0.03909l3.02353,2.58485l0.37797,9.75196l-2.64556,2.11496l-6.64106,0.07827l-1.83569,1.99742l0.05394,3.99485h-7.18095l0.10797,-7.67637l2.64566,-2.58484l7.72082,-0.11745l-0.10797,-4.9348l-13.228,-0.11745l-0.21605,5.91383z" data-paper-data="{&quot;origPos&quot;:null}" id="ID0.8400339637883008" fill="#ffffff" stroke-width="1.01601"/><path d="M234.96056,189.03595h7.18095v5.56121h-7.18095z" data-paper-data="{&quot;origPos&quot;:null}" id="ID0.8400339637883008" fill="#ffffff" stroke-width="0.83793"/></g></g></svg>