<svg version="1.1" xmlns="http://www.w3.org/2000/svg" xmlns:xlink="http://www.w3.org/1999/xlink" width="437" height="90.79587" viewBox="0,0,437,90.79587"><defs><linearGradient x1="240" y1="135.60207" x2="240" y2="224.39795" gradientUnits="userSpaceOnUse" id="color-1"><stop offset="0" stop-color="#ffffff"/><stop offset="1" stop-color="#d8d8d8"/></linearGradient><linearGradient x1="240" y1="135.60208" x2="240" y2="224.39795" gradientUnits="userSpaceOnUse" id="color-2"><stop offset="0" stop-color="#343434"/><stop offset="1" stop-color="#090909"/></linearGradient><radialGradient cx="443.8065" cy="206.54467" r="17.9081" gradientUnits="userSpaceOnUse" id="color-3"><stop offset="0" stop-color="#ffffff"/><stop offset="1" stop-color="#e5e5e5"/></radialGradient></defs><g transform="translate(-21.5,-134.60208)"><g data-paper-data="{&quot;isPaintingLayer&quot;:true}" fill-rule="nonzero" stroke-linejoin="miter" stroke-miterlimit="10" stroke-dasharray="" stroke-dashoffset="0" style="mix-blend-mode: normal"><path d="M22.5,224.39795v-88.79587h435v88.79587z" data-paper-data="{&quot;origPos&quot;:null}" fill="url(#color-1)" stroke="url(#color-2)" stroke-width="2" stroke-linecap="butt"/><g data-paper-data="{&quot;origPos&quot;:null}"><path d="M444.3058,202.09868c2.5136,0 4.7909,1.0212 6.4406,2.6702c1.6489,1.6496 2.6702,3.9269 2.6702,6.4405c0,2.5136 -1.0213,4.791 -2.6702,6.4406c-1.6497,1.649 -3.927,2.6702 -6.4406,2.6702c-2.5136,0 -4.7909,-1.0212 -6.4406,-2.6702c-1.6489,-1.6496 -2.6701,-3.927 -2.6701,-6.4406c0,-2.5136 1.0212,-4.7909 2.6701,-6.4405c1.6497,-1.649 3.927,-2.6702 6.4406,-2.6702z" fill="url(#color-3)" stroke="#000000" stroke-width="2.0785" stroke-linecap="butt"/><path d="M441.2734,206.54887l5.6119,0.4503l1.7321,3.187l-3.6374,2.9446l3.3603,-0.5197l0.7967,3.4642l-7.4479,-0.0693l-1.9053,-2.4249l4.6766,-3.3256l-4.5727,-0.3464z" fill="#000000" stroke="none" stroke-width="0.69283" stroke-linecap="round"/></g><g stroke="none" stroke-width="0.26458" stroke-linecap="butt"><path d="M37.95504,145.90199c2.05675,0.14536 3.08512,0.27588 3.08512,0.39256c0.79205,2.12893 1.27558,3.48757 1.44961,4.0769c0.02274,0 0.0445,0 0.06625,0c0.18887,-0.40739 0.91169,-1.52674 2.16848,-3.35803c0.02274,0 0.0445,0 0.06625,0c1.96874,0.1236 2.9536,0.25808 2.9536,0.40344c0.17799,1.21526 1.59892,10.93931 1.77691,12.15457c0,0.07317 -1.55541,0.24721 -4.66525,0.52309c-0.02175,-0.04351 -0.04351,-0.08702 -0.06526,-0.13052c-0.17502,-3.69225 -0.26204,-5.94874 -0.26204,-6.76946c-0.02175,0 -0.04351,0 -0.06526,0l-2.69255,2.36525c-0.02175,0 -0.04351,0 -0.06526,0c-0.08702,-0.04351 -0.70107,-1.00662 -1.84217,-2.88834c-0.02175,0 -0.0435,0 -0.06625,0c-1.40214,4.08383 -2.16848,6.2533 -2.29999,6.50743c-0.04351,0 -0.08702,0 -0.13052,0c-2.50765,-1.13319 -3.93155,-1.81251 -4.27269,-2.03796c0,-0.02175 0,-0.04351 0,-0.06526c3.10984,-7.31134 4.73051,-11.03622 4.86104,-11.17366z" data-paper-data="{&quot;origPos&quot;:null}" fill="#2b70c2"/><path d="M52.03979,144.83307l4.28357,0.67635c-0.53792,2.05675 -0.88994,3.08512 -1.05705,3.08512c-2.25253,-0.15327 -3.37979,-0.30159 -3.37979,-0.44695c0,-1.05408 0,-2.10816 0,-3.16126c0.02175,-0.10185 0.07318,-0.15327 0.15327,-0.15327zM50.84035,150.0224c0.02175,0 0.04351,0 0.06526,0c3.31453,0.60318 4.9708,0.9552 4.9708,1.05705c-0.95125,5.39302 -1.52971,8.39805 -1.7334,9.01507c-1.15099,0 -2.30296,0 -3.45493,0c-0.10185,0 -0.15327,-0.05043 -0.15327,-0.15228c0.10185,-3.30661 0.2037,-6.61323 0.30555,-9.91984z" data-paper-data="{&quot;origPos&quot;:null}" fill="#2b70c2"/><path d="M65.43731,149.20464c2.09234,1.33688 3.24827,2.10717 3.46581,2.31087c-0.75546,1.67901 -1.18757,2.51852 -1.29733,2.51852l-3.96715,-2.29999c-0.04746,0 -0.09492,0 -0.14239,0c0,0.07218 -0.17008,0.47958 -0.51221,1.2202c3.65567,1.96973 5.48301,2.98031 5.48301,3.03074c-1.02442,2.36921 -1.60189,3.61908 -1.73242,3.7496l-6.20287,0.35993c-2.41272,-1.59892 -3.71005,-2.4414 -3.89199,-2.52841v-0.06625c0,-0.18095 0.35993,-0.99871 1.0788,-2.45227c1.61375,0.83951 3.2275,1.67901 4.84027,2.51852l0.35993,-1.43972c-2.99415,-1.3438 -4.77501,-2.18331 -5.3416,-2.51754v-0.15327c0,-0.27588 0.57747,-1.50004 1.7334,-3.67346z" data-paper-data="{&quot;origPos&quot;:null}" fill="#2b70c2"/><path d="M78.77946,149.20464c2.09333,1.33688 3.24926,2.10717 3.4668,2.31087c-0.75546,1.67901 -1.18856,2.51852 -1.29733,2.51852c-1.32205,-0.76733 -2.64509,-1.53366 -3.96813,-2.29999c-0.04648,0 -0.09394,0 -0.1414,0c0,0.07218 -0.17107,0.47958 -0.51221,1.2202c3.65567,1.96973 5.48301,2.98031 5.48301,3.03074c-1.02442,2.36921 -1.60189,3.61908 -1.7334,3.7496l-6.20287,0.35993c-2.41272,-1.59892 -3.70907,-2.4414 -3.89101,-2.52841c0,-0.02175 0,-0.04351 0,-0.06625c0,-0.18095 0.35993,-0.99871 1.0788,-2.45227c1.61375,0.83951 3.22652,1.67901 4.84028,2.51852l0.35993,-1.43972c-2.99415,-1.3438 -4.77501,-2.18331 -5.34161,-2.51754c0,-0.05142 0,-0.10185 0,-0.15327c0,-0.27588 0.57747,-1.50004 1.7334,-3.67346z" data-paper-data="{&quot;origPos&quot;:null}" fill="#2b70c2"/><path d="M89.50618,149.21552c3.29277,1.69286 5.11616,2.68168 5.47312,2.96547c-0.47265,2.20902 -0.75249,3.34617 -0.83951,3.41143c-2.29703,0 -4.59307,0 -6.8901,0c0,0.04054 0,0.0801 0,0.11965l1.93018,2.388l3.02974,-1.54849c0.29862,0.51616 0.72679,1.41797 1.28646,2.70343c-0.26105,0.088 -2.16947,0.36784 -5.72329,0.83951c-2.94273,-1.94006 -4.42497,-2.95064 -4.44672,-3.02974c0.47167,-3.77235 0.7515,-5.65803 0.83852,-5.65803c3.07424,-1.30821 4.85511,-2.03895 5.34161,-2.19123zM88.79818,151.85369c-0.05834,0.14536 -0.44398,0.72283 -1.15593,1.7334c0,0.30456 0.42915,0.45782 1.28645,0.45782c0,0.04351 0.62098,0.14833 1.86393,0.31543c0.34213,-0.47167 0.51221,-0.74854 0.51221,-0.82765c-0.10877,-0.64669 -0.3451,-0.97102 -0.708,-0.97102c-0.60021,-0.23534 -1.19944,-0.47167 -1.79866,-0.708z" data-paper-data="{&quot;origPos&quot;:null}" fill="#2b70c2"/><path d="M102.56552,145.90199c0.02175,0 0.0445,0 0.06625,0c3.28486,0.27588 4.92729,0.49046 4.92729,0.64273c0.16019,1.42588 1.28843,11.40505 1.44961,12.83093c0,0.09394 -1.4496,0.33422 -4.34982,0.71887c-0.02175,-0.04648 -0.04351,-0.09394 -0.06526,-0.1414c0,-0.38861 0,-0.77721 0,-1.16681c-2.49974,0.67635 -4.21534,1.11242 -5.14582,1.30821c-2.20902,-3.12467 -3.36792,-4.78885 -3.47669,-4.99255c1.6276,-2.95756 2.49578,-4.45463 2.60554,-4.49122c1.52179,0.07317 3.04458,0.14536 4.56736,0.21853c-0.09493,-0.55967 -0.28775,-2.2021 -0.57846,-4.92729zM100.53844,153.71761c0.7337,2.24561 1.19153,3.47768 1.37347,3.69522c0.72283,-0.6279 1.44664,-1.25679 2.16947,-1.88568c-0.22545,-1.3003 -0.39256,-1.95095 -0.50133,-1.95095c-0.96707,0 -1.93314,0 -2.90021,0c-0.09394,0.01384 -0.1414,0.06131 -0.1414,0.1414z" data-paper-data="{&quot;origPos&quot;:null}" fill="#2b70c2"/><path d="M124.47678,149.20464c2.09333,1.33688 3.24926,2.10717 3.4668,2.31087c-0.75546,1.67901 -1.18856,2.51852 -1.29733,2.51852l-3.96813,-2.29999c-0.04746,0 -0.09394,0 -0.1414,0c0,0.07218 -0.17107,0.47958 -0.51221,1.2202c3.65567,1.96973 5.48301,2.98031 5.48301,3.03074c-1.02442,2.36921 -1.60287,3.61908 -1.7334,3.7496l-6.20287,0.35993c-2.41272,-1.59892 -3.71006,-2.4414 -3.89101,-2.52841c0,-0.02175 0,-0.04351 0,-0.06625c0,-0.18095 0.35894,-0.99871 1.0788,-2.45227l4.84028,2.51852l0.35993,-1.43972c-2.99415,-1.3438 -4.77501,-2.18331 -5.34161,-2.51754c0,-0.05142 0,-0.10185 0,-0.15327c0,-0.27588 0.57747,-1.50004 1.7334,-3.67346z" data-paper-data="{&quot;origPos&quot;:null}" fill="#000000"/><path d="M133.41571,149.21552c2.76177,0.74162 4.22622,1.19153 4.39333,1.35172c1.51883,2.15068 2.37317,3.39067 2.56203,3.71698c-0.98091,3.11083 -1.54454,4.66624 -1.6899,4.66624c-3.27003,0.76238 -4.98168,1.14406 -5.13395,1.14406c-2.70442,-1.57717 -4.14315,-2.45623 -4.31719,-2.63817c-0.09493,-2.93581 -0.1414,-4.55648 -0.1414,-4.86103c-0.0445,-0.088 -0.06625,-0.15327 -0.06625,-0.19678c2.79144,-2.12201 4.23413,-3.18301 4.32806,-3.18301c-0.02175,0 0.08701,0 0.06526,0zM133.20905,153.2054c-0.04351,0.29071 -0.10877,1.34776 -0.19678,3.17213l2.43151,0.54484c0.58143,-1.81646 0.87214,-2.7865 0.87214,-2.9101c-1.93314,-0.58143 -2.96943,-0.87214 -3.10687,-0.87214c0,0.02175 0,0.04351 0,0.06526z" data-paper-data="{&quot;origPos&quot;:null}" fill="#000000"/><path d="M153.47392,149.20464c1.77296,0.7337 3.30266,1.4239 4.58911,2.07158c-0.33422,4.32411 -0.5488,6.68937 -0.64273,7.09577c-2.13684,0.531 -3.33233,0.796 -3.58645,0.796c0,-0.94432 -0.07317,-2.80825 -0.21853,-5.59178c-0.80688,0.08009 -1.20933,0.14833 -1.20933,0.20667c0,0.27588 0.04647,1.85305 0.1414,4.7315c0.04351,0 0.06526,0.02472 0.06526,0.07614c0,0.08702 -1.1233,0.3273 -3.36891,0.71986c-0.09394,-0.11668 -0.38069,-1.88667 -0.86027,-5.30897c-0.90873,0.23237 -1.36359,0.39948 -1.36359,0.50133c0.14536,1.48224 0.29071,2.96448 0.43607,4.44771c-0.08702,0.09394 -1.2825,0.47562 -3.58645,1.14406c-1.33688,-4.73051 -2.17244,-7.90661 -2.50666,-9.52728c2.52149,-0.62494 3.93155,-0.9374 4.22918,-0.9374c0.33422,1.32304 0.50133,2.08542 0.50133,2.28911c0.02571,0 0.05142,0 0.07713,0c1.22812,-1.13319 2.08542,-1.89655 2.57192,-2.28911c0.02571,0 0.05142,0 0.07713,0l2.28911,1.64638c0.02472,0 0.05043,0 0.07614,0c1.43181,-1.38138 2.19419,-2.07158 2.28912,-2.07158z" data-paper-data="{&quot;origPos&quot;:null}" fill="#000000"/><path d="M165.29032,149.21552c3.29277,1.69286 5.11616,2.68168 5.47213,2.96547c-0.47167,2.20902 -0.75151,3.34617 -0.83852,3.41143c-2.29703,0 -4.59307,0 -6.8901,0c0,0.04054 0,0.0801 0,0.11965l1.93018,2.388c1.00959,-0.51616 2.02016,-1.03233 3.02974,-1.54849c0.29862,0.51616 0.72679,1.41797 1.28646,2.70343c-0.26105,0.088 -2.16947,0.36784 -5.72329,0.83951c-2.94273,-1.94006 -4.42497,-2.95064 -4.44673,-3.02974c0.47167,-3.77235 0.75151,-5.65803 0.83852,-5.65803c3.07424,-1.30821 4.8551,-2.03895 5.3416,-2.19123zM164.58233,151.85369c-0.05834,0.14536 -0.44398,0.72283 -1.15593,1.7334c0,0.30456 0.42915,0.45782 1.28646,0.45782c0,0.04351 0.62098,0.14833 1.86392,0.31543c0.34213,-0.47167 0.51221,-0.74854 0.51221,-0.82765c-0.10877,-0.64669 -0.34509,-0.97102 -0.70799,-0.97102c-0.60021,-0.23534 -1.19944,-0.47167 -1.79866,-0.708z" data-paper-data="{&quot;origPos&quot;:null}" fill="#000000"/><path d="M175.01437,145.91286c1.59892,0.2828 3.19784,0.5666 4.79677,0.85039c-0.15327,1.21328 -0.30555,2.42656 -0.45782,3.64084c0.95125,-0.05142 1.64935,-0.07713 2.09234,-0.07713c0.23237,0 0.46574,0 0.69811,0l0.15228,-0.07614l0.07614,0.15327c-0.15228,2.20902 -0.28281,3.45197 -0.39157,3.72785c-0.05142,-0.02868 -0.10184,-0.05834 -0.15326,-0.08702c-0.10877,0 -1.08968,-0.05142 -2.94273,-0.15327c-0.10185,1.70868 -0.17798,3.75059 -0.22941,6.12673c-0.05043,0.02571 -0.10185,0.05142 -0.15228,0.07614c-2.34053,-0.15228 -3.73576,-0.2828 -4.18666,-0.39256l0.07713,-0.30455c0,-0.63284 0.10184,-2.59467 0.30455,-5.88645c-1.96182,-0.10976 -2.94273,-0.24029 -2.94273,-0.39256c0.10185,-2.42755 0.23237,-3.64084 0.39256,-3.64084l2.86659,0.54484c0,-0.31247 0,-0.62493 0,-0.9374c0,-0.76337 -0.02867,-1.7957 -0.08701,-3.096c0.05834,0 0.08701,-0.02571 0.08701,-0.07614z" data-paper-data="{&quot;origPos&quot;:null}" fill="#000000"/><path d="M188.4119,145.91286c0.04351,0.06526 0.24721,2.05675 0.6101,5.97346c2.80528,-0.85731 4.2984,-1.28646 4.48034,-1.28646l2.77957,1.89656c-0.44992,4.14315 -0.74459,6.5628 -0.88302,7.26091c-1.28546,0.04351 -2.57192,0.08701 -3.85837,0.13052c0,-0.04351 -0.02571,-0.06526 -0.07614,-0.06526l0.07614,-0.27291c0,-0.58835 0.08701,-2.37614 0.26105,-5.36336c-1.061,-0.04351 -1.84909,-0.06526 -2.36525,-0.06526c-0.09097,0 -0.18194,0 -0.27193,0c0.31247,3.32145 0.4687,5.13099 0.4687,5.42862c-1.22119,0.18194 -2.44238,0.36389 -3.66358,0.54484c-0.13744,-0.46475 -0.95125,-4.80665 -2.4414,-13.02671c0,-0.23237 0.56659,-0.41431 1.70077,-0.54484c1.43181,-0.40739 2.49282,-0.6101 3.18301,-0.6101z" data-paper-data="{&quot;origPos&quot;:null}" fill="#000000"/><path d="M198.81132,144.83307c1.42786,0.22545 2.85571,0.4509 4.28456,0.67635c-0.53792,2.05675 -0.89093,3.08512 -1.05803,3.08512c-2.25253,-0.15327 -3.3788,-0.30159 -3.3788,-0.44695c0,-1.05408 0,-2.10816 0,-3.16126c0.02175,-0.10185 0.07218,-0.15327 0.15228,-0.15327zM197.61188,150.0224c0.02175,0 0.04351,0 0.06526,0c3.31453,0.60318 4.97178,0.9552 4.97178,1.05705c-0.95223,5.39302 -1.53069,8.39805 -1.7334,9.01507c-1.15198,0 -2.30395,0 -3.45593,0c-0.10185,0 -0.15228,-0.05043 -0.15228,-0.15228c-0.09295,2.99909 0.3975,-12.91894 0.30455,-9.91984z" data-paper-data="{&quot;origPos&quot;:null}" fill="#000000"/><path d="M213.09185,149.20464l3.62996,2.49677c-0.25413,4.14217 -0.43211,6.56181 -0.53396,7.25991c-0.42223,0.05043 -1.70472,0.12657 -3.84848,0.22842l-0.07614,-0.15228c0.01384,0.21359 -0.39553,-6.03477 -0.38169,-5.82119l-0.15228,-0.07614c-1.38831,0.29763 -2.3435,0.52309 -2.86758,0.67536c0.14536,2.47798 0.21853,4.26972 0.21853,5.37423c-2.16551,0.60318 -3.35012,0.90477 -3.55382,0.90477c-1.41006,-6.20583 -2.11509,-9.48377 -2.11509,-9.83282c3.06732,-0.39948 4.7315,-0.59923 4.99255,-0.59923c0,0.02571 0,0.05043 0,0.07614c0.05142,0.03659 0.12756,0.79205 0.22941,2.26736c2.8122,-1.86788 4.2984,-2.80133 4.45859,-2.80133z" data-paper-data="{&quot;origPos&quot;:null}" fill="#000000"/><path d="M225.97717,149.23727c3.08808,0.08009 4.63262,0.21457 4.63262,0.40344c0.53001,8.04504 0.796,12.32564 0.796,12.8418c-2.34053,1.48916 -4.0156,2.49974 -5.02617,3.02974c-3.56074,-1.11836 -5.34061,-1.75812 -5.34061,-1.91831c1.14802,-1.67901 1.81251,-2.5294 1.99445,-2.55116c1.94006,0.96014 3.05644,1.43972 3.34617,1.43972l1.03628,-1.36259c-0.27588,-1.12726 -0.46178,-1.79174 -0.55572,-1.99544c-0.16019,0 -2.12992,0.31939 -5.90919,0.95916c-2.07059,-3.36495 -3.10687,-5.09044 -3.10687,-5.17746c1.78779,-2.8567 2.87845,-4.53176 3.27102,-5.02617c0.02472,0 0.05043,0 0.07614,0c0.21062,0 1.78087,0.34609 4.70876,1.03628c0,-0.08009 0,-0.16019 0,-0.24028c0,-0.2828 -0.02472,-0.73766 -0.07614,-1.36259zM222.55387,153.85903c0.10185,0.22545 0.42124,1.42488 0.95916,3.59732c0.67635,-0.21754 1.71165,-0.61702 3.10687,-1.19845c-0.26896,-1.30821 -0.40344,-2.05378 -0.40344,-2.23473c-0.13052,-0.02571 -0.26105,-0.05142 -0.39256,-0.07614c-0.1592,0 -0.31939,0 -0.47958,0c-0.6101,0 -1.54058,-0.02966 -2.79045,-0.088z" data-paper-data="{&quot;origPos&quot;:null}" fill="#000000"/><path d="M240.61665,145.91286c0.18887,0.33422 0.9374,1.87876 2.24561,4.63262c-1.8313,1.4684 -2.79441,2.27824 -2.88835,2.43052c0,0.04746 0,0.09492 0,0.14239c0,0.21754 -0.03263,1.22811 -0.09789,3.02974c-0.82863,0.24721 -1.80657,0.46178 -2.93284,0.64372c0,-0.01483 0,-0.02868 0,-0.04351c0.02966,0.1414 -0.75941,-3.68434 -0.73074,-3.54294c0.02274,0 0.78512,-0.99179 2.29011,-2.97635l-1.05804,-1.10056c-1.21328,1.74428 -1.87085,2.61642 -1.9727,2.61642c-1.85305,-0.79205 -2.81616,-1.23603 -2.88933,-1.32996c1.01057,-2.26736 1.60683,-3.53997 1.78779,-3.81586c3.29277,-0.39948 5.37424,-0.62889 6.24638,-0.68624zM239.87602,156.92238l0.05438,0.09789c-0.03659,1.05408 -0.05438,1.87876 -0.05438,2.47502c0,0.03263 0,0.06526 0,0.09789c0,0.08702 -0.81083,0.25413 -2.43151,0.50133c-0.06526,0 -0.2037,-0.87214 -0.41431,-2.61642c0.28379,-0.09394 1.23207,-0.27983 2.84582,-0.55572z" data-paper-data="{&quot;origPos&quot;:null}" fill="#000000"/><path d="M258.11282,145.91286c2.61642,1.32205 3.96121,1.98357 4.0334,1.98357c0,0.11668 -0.54484,1.16681 -1.63452,3.15038c-0.02571,0 -0.05142,0 -0.07713,0c-0.08702,0 -1.34084,-0.5923 -3.76048,-1.77691l-1.23207,1.64638c2.08641,1.00266 4.61878,2.28219 7.59809,3.83662c-1.35172,2.4058 -2.31087,4.00472 -2.87747,4.79677c-2.05279,0.18194 -4.10657,0.36389 -6.15936,0.54484c-2.8122,-1.89656 -4.2984,-2.87747 -4.45859,-2.94273c0,0 0,-0.07713 0,-0.07614c0,-0.2037 0.57055,-1.13813 1.71165,-2.80231c0.04746,0 0.09492,0 0.1414,0c0.4509,0.26896 1.86392,1.0432 4.24105,2.32175c0.47958,-0.54484 0.95915,-1.08968 1.43873,-1.63452c-4.36762,-2.22385 -6.78825,-3.48163 -7.25991,-3.77235c0,-0.02175 0,-0.04351 0,-0.06526c1.38731,-2.70343 2.14376,-4.07295 2.26736,-4.10954c3.61117,-0.7337 5.62144,-1.10055 6.02785,-1.10055z" data-paper-data="{&quot;origPos&quot;:null}" fill="#000000"/><path d="M265.70004,144.83307l4.28456,0.67635c-0.53792,2.05675 -0.89093,3.08512 -1.05804,3.08512c-2.25253,-0.15327 -3.37879,-0.30159 -3.37879,-0.44695c0,-1.05408 0,-2.10816 0,-3.16126c0.02175,-0.10185 0.07218,-0.15327 0.15228,-0.15327zM264.5006,150.0224c0.02175,0 0.0445,0 0.06625,0c3.31354,0.60318 4.9708,0.9552 4.9708,1.05705c-0.95223,5.39302 -1.5297,8.39805 -1.7334,9.01507c-1.15198,0 -2.30395,0 -3.45593,0c-0.10185,0 -0.15228,-0.05043 -0.15228,-0.15228c-0.04351,1.41203 0.34807,-11.33188 0.30456,-9.91984z" data-paper-data="{&quot;origPos&quot;:null}" fill="#000000"/><path d="M282.4111,149.20464c1.77394,0.7337 3.30364,1.4239 4.5901,2.07158c-0.33422,4.32411 -0.54879,6.68937 -0.64372,7.09577c-2.13684,0.531 -3.33233,0.796 -3.58645,0.796c0,-0.94432 -0.07218,-2.80825 -0.21754,-5.59178c-0.80688,0.08009 -1.21032,0.14833 -1.21032,0.20667c0,0.27588 0.04746,1.85305 0.1414,4.7315c0.04351,0 0.06526,0.02472 0.06526,0.07614c0,0.08702 -1.12231,0.3273 -3.36792,0.71986c-0.09493,-0.11668 -0.38168,-1.88667 -0.86126,-5.30897c-0.90873,0.23237 -1.36259,0.39948 -1.36259,0.50133c0.14536,1.48224 0.29071,2.96448 0.43607,4.44771c-0.08702,0.09394 -1.2825,0.47562 -3.58645,1.14406c-1.33688,-4.73051 -2.17343,-7.90661 -2.50765,-9.52728c2.52248,-0.62494 3.93155,-0.9374 4.23017,-0.9374c0.33422,1.32304 0.50133,2.08542 0.50133,2.28911c0.02571,0 0.05043,0 0.07614,0c1.22812,-1.13319 2.08542,-1.89655 2.57291,-2.28911c0.02571,0 0.05043,0 0.07614,0c0.76337,0.5488 1.52575,1.09759 2.28911,1.64638c0.02571,0 0.05142,0 0.07614,0c1.43181,-1.38138 2.19518,-2.07158 2.28912,-2.07158z" data-paper-data="{&quot;origPos&quot;:null}" fill="#000000"/><path d="M293.5195,149.21552c0.22545,0.93048 0.38168,1.504 0.4687,1.72253c3.21268,-0.7337 4.90949,-1.10155 5.09143,-1.10155c2.18727,3.14741 3.28091,4.78985 3.28091,4.92729c-0.15722,0.33323 -2.35043,4.98761 -2.50765,5.31985c-1.79866,-0.28676 -3.59732,-0.57352 -5.39599,-0.86126c0,0.05438 0,0.10976 0,0.16414c0.42223,3.23344 0.63284,4.95201 0.63284,5.15571c-0.05142,0 -0.07713,0.02571 -0.07713,0.07614c-0.52309,-0.05043 -0.91565,-0.07614 -1.1767,-0.07614c-0.31247,0 -0.62494,0 -0.9374,0c-0.54484,0 -1.38138,-0.02571 -2.50765,-0.07614c-0.10185,-0.30555 -0.88302,-4.94509 -2.3435,-13.92061c0.24721,-0.10185 2.07158,-0.54484 5.47213,-1.32996zM293.91206,153.6741c0.14536,1.67111 0.27588,2.50765 0.39256,2.50765c1.49015,0.51518 2.40184,0.77326 2.73607,0.77326c0.28676,-1.24987 0.5745,-2.49974 0.86126,-3.7496c-0.02571,0 -0.05142,0 -0.07614,0c-0.85039,0.05043 -2.15464,0.20666 -3.91375,0.4687z" data-paper-data="{&quot;origPos&quot;:null}" fill="#000000"/><path d="M303.48285,145.92373c2.22385,0.04351 3.85541,0.06526 4.89466,0.06526c0.09493,0 0.38168,4.46155 0.86126,13.38664c-0.37081,0.09394 -1.66418,0.33422 -3.88013,0.71887c-0.10976,0 -0.4687,-2.73211 -1.07979,-8.19732c-0.05043,-0.13052 -0.31642,-2.12201 -0.796,-5.97346z" data-paper-data="{&quot;origPos&quot;:null}" fill="#000000"/><path d="M315.47426,149.22639c0.10185,0.01483 0.15228,0.06526 0.15228,0.15228c-0.03362,0.19084 -1.09858,6.08915 -1.13319,6.279c2.16551,-0.25413 3.24827,-0.45782 3.24827,-0.6101c0.40739,-2.51457 0.68723,-3.92463 0.83951,-4.22918c2.68168,0.55176 4.16787,0.87906 4.45859,0.98091c-1.56233,5.37028 -2.41964,8.16864 -2.57291,8.3931c-2.73211,1.9193 -4.26972,2.9803 -4.61087,3.184c-0.10185,0 -1.84217,-0.42915 -5.22196,-1.28646c0,-0.02571 0,-0.05142 0,-0.07614c0.89389,-1.96973 1.4506,-2.9546 1.66814,-2.9546c1.10847,0.55572 2.21693,1.11143 3.32441,1.66814l1.592,-2.72519c-1.43181,0.35597 -2.26341,0.53396 -2.49677,0.53396l-4.24006,-2.2021c0.51616,-4.73843 0.84346,-7.10764 0.98091,-7.10764c-0.01384,0 4.02647,0 4.01164,0z" data-paper-data="{&quot;origPos&quot;:null}" fill="#000000"/><path d="M37.8789,174.86719c0.09493,0.1236 0.58538,2.23077 1.47137,6.32251c0.02571,0 0.05142,0 0.07713,0c0,-0.09394 0.53791,-0.92652 1.61276,-2.49578c0.4509,0.30456 1.30821,0.96608 2.57291,1.98357c0.05043,0 0.10185,0 0.15228,0v-0.07614c0.19677,-2.83495 0.34213,-4.4042 0.43607,-4.70975c2.99415,0.15327 4.49122,0.27687 4.49122,0.37081c-1.37347,5.52355 -2.10717,8.39409 -2.2021,8.61163c-0.45782,0.05142 -1.41698,0.19678 -2.87746,0.43607c-1.19944,-1.88172 -1.88568,-2.88439 -2.0607,-3.00799c-0.78413,2.09234 -1.27459,3.24432 -1.47137,3.45494c-0.98091,0 -1.96182,0 -2.94273,0c-0.18194,-0.05834 -1.03925,-1.94699 -2.57291,-5.66792c-0.98091,-2.0785 -1.47137,-3.20575 -1.47137,-3.37979c0,-0.16019 1.59497,-0.77424 4.7849,-1.84217z" data-paper-data="{&quot;origPos&quot;:null}" fill="#2b70c2"/><path d="M51.53846,174.86719c4.3162,0.59626 6.47479,0.96311 6.47479,1.10055c1.70077,1.46148 2.55116,2.24265 2.55116,2.3445c-0.6902,2.15761 -1.08275,3.46977 -1.17768,3.93451c0.6902,1.53366 1.08275,2.44931 1.17768,2.74793c0,0.08702 -1.12626,0.31939 -3.37979,0.69712c-0.02868,-0.1236 -0.23633,-0.39948 -0.62098,-0.82863c-3.11083,0.59626 -4.78589,0.89389 -5.02518,0.89389c-0.55275,-1.49312 -1.10451,-2.98624 -1.65726,-4.48035l3.65171,-1.92919c0.58835,0.09493 1.50795,0.14141 2.75782,0.14141c0,-0.1592 0.02176,-0.64274 0.06526,-1.44961c-0.21062,0 -2.09235,0.13844 -5.64616,0.41432c-0.02175,-0.04746 -0.04351,-0.09492 -0.06526,-0.1414c0.49342,-2.29703 0.79205,-3.44505 0.89389,-3.44505zM53.80582,181.27672c0,0.08009 0.23237,0.93048 0.69712,2.55116c0.02175,0 0.04351,0 0.06526,0c0.91565,-0.59626 1.37347,-0.98882 1.37347,-1.17768c0.04746,-0.38861 0.09493,-0.77721 0.14239,-1.16582c-0.17502,0 -0.93444,-0.06922 -2.27824,-0.20765z" data-paper-data="{&quot;origPos&quot;:null}" fill="#2b70c2"/><path d="M61.61058,171.5863c2.22385,0.04351 3.85541,0.06526 4.89466,0.06526c0.09493,0 0.38168,4.46155 0.86126,13.38664c-0.37081,0.09394 -1.66418,0.33422 -3.88112,0.71887c-0.10877,0 -0.4687,-2.73211 -1.0788,-8.19732c-0.05142,-0.13052 -0.31642,-2.12201 -0.796,-5.97346z" data-paper-data="{&quot;origPos&quot;:null}" fill="#2b70c2"/><path d="M73.39434,171.57542c0.10185,0.29071 0.33125,2.35042 0.68723,6.18012l3.27003,-3.66259c0.02571,0 0.05142,0 0.07614,0c0.50924,0.42223 1.4506,1.31216 2.82407,2.6708c0,0.02571 0,0.05142 0,0.07614c-1.04321,0.86126 -2.08641,1.72252 -3.12863,2.58378c2.35438,1.57717 3.6003,2.4671 3.73873,2.6708c-1.48224,1.64935 -2.37317,2.59071 -2.6708,2.82308c-1.26767,-1.16978 -2.53632,-2.33955 -3.80399,-3.50932c0.15228,1.56926 0.22842,2.73903 0.22842,3.50932c-0.18194,0.10185 -1.52971,0.38169 -4.04427,0.83951c-0.2037,-1.01749 -0.86423,-5.38808 -1.98357,-13.11373c0.46475,-0.15228 2.06763,-0.50826 4.80666,-1.06793z" data-paper-data="{&quot;origPos&quot;:null}" fill="#2b70c2"/><path d="M90.59684,171.57542c1.59892,0.2828 3.19784,0.5666 4.79578,0.85039c-0.05636,0.45486 -0.40047,3.18499 -0.45782,3.64084c0.95223,-0.05142 1.65034,-0.07713 2.09333,-0.07713c0.23237,0 0.46475,0 0.69811,0l0.15228,-0.07614c0.02571,0.05142 0.05043,0.10185 0.07614,0.15327c-0.15228,2.20902 -0.2828,3.45197 -0.39256,3.72785l-0.15228,-0.08701c-0.10877,0 -1.08968,-0.05142 -2.94372,-0.15327c-0.10185,1.70868 -0.17799,3.75059 -0.22842,6.12673c-0.05142,0.02571 -0.10185,0.05142 -0.15228,0.07614c-2.34053,-0.15228 -3.73576,-0.2828 -4.18666,-0.39256c0.02571,-0.10086 0.05142,-0.20271 0.07614,-0.30456c0,-0.63284 0.10185,-2.59466 0.30555,-5.88644c-1.96182,-0.10976 -2.94371,-0.24029 -2.94371,-0.39256c0.10185,-2.42755 0.23336,-3.64084 0.39256,-3.64084l2.86758,0.54484c0,-0.31247 0,-0.62494 0,-0.9374c0,-0.76337 -0.02966,-1.7957 -0.08702,-3.09599c0.05735,0 0.08702,-0.02571 0.08702,-0.07614z" data-paper-data="{&quot;origPos&quot;:null}" fill="#000000"/><path d="M103.50391,174.87808c2.76079,0.74162 4.22523,1.19153 4.39234,1.35172c1.51883,2.15068 2.37317,3.39067 2.56203,3.71698c-0.98091,3.11083 -1.54453,4.66624 -1.68989,4.66624c-3.27003,0.76238 -4.98168,1.14406 -5.13395,1.14406c-2.70343,-1.57717 -4.14217,-2.45623 -4.31719,-2.63817c-0.09394,-2.93581 -0.1414,-4.55648 -0.1414,-4.86104c-0.04351,-0.088 -0.06526,-0.15326 -0.06526,-0.19677c2.79045,-2.12201 4.23314,-3.18301 4.32708,-3.18301c0.02175,0 0.04351,0 0.06625,0zM103.29626,178.86797c-0.04351,0.29071 -0.10877,1.34776 -0.19579,3.17213l2.43052,0.54484c0.58143,-1.81646 0.87214,-2.78649 0.87214,-2.91009c-1.93314,-0.58143 -2.96844,-0.87214 -3.10687,-0.87214z" data-paper-data="{&quot;origPos&quot;:null}" fill="#000000"/><path d="M120.2476,171.57542c1.59892,0.2828 3.19784,0.5666 4.79677,0.85039c-0.09196,0.72777 -0.36685,2.91207 -0.45783,3.64084c0.95125,-0.05142 1.64936,-0.07713 2.09235,-0.07713c0.23237,0 0.46573,0 0.6981,0c0.05043,-0.02472 0.10185,-0.05043 0.15228,-0.07614c0.02571,0.05142 0.05142,0.10185 0.07614,0.15327c-0.15228,2.20902 -0.2828,3.45197 -0.39256,3.72785c-0.05043,-0.02868 -0.10086,-0.05834 -0.15228,-0.08701c-0.10877,0 -1.08968,-0.05142 -2.94273,-0.15327c-0.10185,1.70868 -0.17898,3.75059 -0.22941,6.12673c-0.05043,0.02571 -0.10185,0.05142 -0.15228,0.07614c-2.34053,-0.15228 -3.73576,-0.2828 -4.18666,-0.39256l0.07713,-0.30456c0,-0.63284 0.10086,-2.59466 0.30456,-5.88644c-1.96182,-0.10976 -2.94273,-0.24029 -2.94273,-0.39256c0.10185,-2.42755 0.23237,-3.64084 0.39256,-3.64084c0.9552,0.18095 1.9104,0.3629 2.86659,0.54484v-0.9374c0,-0.76337 -0.02868,-1.7957 -0.08702,-3.09599c0.05834,0 0.08702,-0.02571 0.08702,-0.07614z" data-paper-data="{&quot;origPos&quot;:null}" fill="#000000"/><path d="M133.64512,171.57542c0.04351,0.06526 0.2472,2.05675 0.6101,5.97346c2.80528,-0.85731 4.2984,-1.28646 4.48035,-1.28646c0.92653,0.63284 1.85304,1.2647 2.77957,1.89656c-0.44992,4.14315 -0.74458,6.56279 -0.88301,7.2609l-3.85838,0.13052c0,-0.04351 -0.02571,-0.06526 -0.07713,-0.06526l0.07713,-0.27291c0,-0.58835 0.08702,-2.37614 0.26105,-5.36336c-1.061,-0.04351 -1.8491,-0.06526 -2.36526,-0.06526c-0.09097,0 -0.18194,0 -0.27291,0c0.31247,3.32145 0.4687,5.13099 0.4687,5.42862c-1.2202,0.18194 -2.4414,0.36389 -3.66259,0.54484c-0.13744,-0.46475 -0.95125,-4.80666 -2.4414,-13.02672c0,-0.23237 0.5666,-0.41431 1.70077,-0.54484c1.43082,-0.40739 2.49282,-0.6101 3.18301,-0.6101z" data-paper-data="{&quot;origPos&quot;:null}" fill="#000000"/><path d="M148.72067,174.87808c3.29277,1.69286 5.11616,2.68168 5.47312,2.96547c-0.47265,2.20902 -0.75249,3.34617 -0.83951,3.41143c-2.29703,0 -4.59307,0 -6.8901,0c0,0.04054 0,0.08009 0,0.11964c0.64372,0.796 1.28646,1.592 1.93018,2.388c1.00959,-0.51616 2.02016,-1.03233 3.02974,-1.54849c0.29862,0.51616 0.72679,1.41797 1.28646,2.70343c-0.26105,0.088 -2.16947,0.36784 -5.72329,0.83951c-2.94273,-1.94006 -4.42497,-2.95064 -4.44673,-3.02974c0.47167,-3.77235 0.75151,-5.65803 0.83852,-5.65803c3.07424,-1.30821 4.8551,-2.03895 5.3416,-2.19123zM148.01267,177.51624c-0.05834,0.14536 -0.44398,0.72282 -1.15593,1.7334c0,0.30456 0.42915,0.45783 1.28646,0.45783c0,0.04351 0.62098,0.14832 1.86392,0.31543c0.34213,-0.47167 0.51221,-0.74854 0.51221,-0.82764c-0.10877,-0.64669 -0.34509,-0.97102 -0.70799,-0.97102c-0.60021,-0.23534 -1.19944,-0.47166 -1.79866,-0.70799z" data-paper-data="{&quot;origPos&quot;:null}" fill="#000000"/><path d="M160.72296,171.5863c2.22385,0.04351 3.85541,0.06526 4.89466,0.06526c0.09493,0 0.38168,4.46155 0.86126,13.38664c-0.37081,0.09394 -1.66418,0.33422 -3.88112,0.71887c-0.10877,0 -0.4687,-2.73211 -1.0788,-8.19732c-0.05142,-0.13052 -0.31642,-2.12201 -0.796,-5.97346z" data-paper-data="{&quot;origPos&quot;:null}" fill="#2b70c2"/><path d="M173.8802,174.87808c3.29277,1.69286 5.11715,2.68168 5.47312,2.96547c-0.47265,2.20902 -0.75249,3.34617 -0.83951,3.41143c-2.29703,0 -4.59307,0 -6.8901,0c0,0.04054 0,0.08009 0,0.11964c0.64372,0.796 1.28646,1.592 1.93018,2.388c1.00959,-0.51616 2.02016,-1.03233 3.02974,-1.54849c0.29862,0.51616 0.72679,1.41797 1.28646,2.70343c-0.26105,0.088 -2.16848,0.36784 -5.7223,0.83951c-2.94371,-1.94006 -4.42596,-2.95064 -4.44771,-3.02974c0.47167,-3.77235 0.75151,-5.65803 0.83951,-5.65803c3.07325,-1.30821 4.85411,-2.03895 5.34061,-2.19123zM173.17221,177.51624c-0.05834,0.14536 -0.44299,0.72282 -1.15593,1.7334c0,0.30456 0.42915,0.45783 1.28645,0.45783c0,0.04351 0.62197,0.14832 1.86393,0.31543c0.34213,-0.47167 0.51221,-0.74854 0.51221,-0.82764c-0.10877,-0.64669 -0.3451,-0.97102 -0.708,-0.97102c-0.59922,-0.23534 -1.19944,-0.47166 -1.79866,-0.70799z" data-paper-data="{&quot;origPos&quot;:null}" fill="#2b70c2"/><path d="M184.87983,171.57542c0.38465,0.04351 1.78778,0.36685 4.20743,0.97003l0.06526,0.13052c-0.35597,1.98456 -0.56956,2.97635 -0.64273,2.97635c-0.02175,0 -0.04351,0 -0.06526,0l-1.75516,-0.90477c0,0.2037 -0.06526,1.11144 -0.19579,2.72519c0.79896,-0.19677 1.59793,-0.39256 2.39789,-0.58934c0.07218,0.21853 0.13843,1.18856 0.19579,2.91108c-0.23237,0.08702 -1.03134,0.21754 -2.39789,0.39256c0.30555,1.30821 0.62889,2.90713 0.97003,4.79677c-1.11934,0.25413 -2.45623,0.51221 -4.01164,0.77326c-0.02175,-0.04351 -0.04351,-0.08702 -0.06526,-0.13052c-0.2037,-3.36495 -0.37378,-5.04694 -0.51221,-5.04694c-1.41006,0.34114 -2.16551,0.53396 -2.26736,0.57747c-0.08702,-0.42124 -0.24028,-1.56629 -0.45782,-3.43417c0.04351,-0.02175 0.08702,-0.04351 0.13052,-0.06526c0.7782,0 1.55541,0 2.33262,0c-0.13052,-1.07583 -0.32631,-2.47798 -0.58835,-4.20743z" data-paper-data="{&quot;origPos&quot;:null}" fill="#2b70c2"/><path d="M193.41533,171.57542l4.79677,0.85039c-0.03065,0.24226 -0.42717,3.39759 -0.45782,3.64084c0.95125,-0.05142 1.64935,-0.07713 2.09234,-0.07713c0.23336,0 0.46574,0 0.69811,0l0.15228,-0.07614c0.02571,0.05142 0.05142,0.10185 0.07614,0.15327c-0.15228,2.20902 -0.28281,3.45197 -0.39157,3.72785c-0.05142,-0.02868 -0.10185,-0.05834 -0.15327,-0.08701c-0.10877,0 -1.08968,-0.05142 -2.94273,-0.15327c-0.10185,1.70868 -0.17798,3.75059 -0.22941,6.12673c-0.05043,0.02571 -0.10185,0.05142 -0.15228,0.07614c-2.34053,-0.15228 -3.73576,-0.2828 -4.18666,-0.39256l0.07712,-0.30456c0,-0.63284 0.10185,-2.59466 0.30456,-5.88644c-1.96182,-0.10976 -2.94273,-0.24029 -2.94273,-0.39256c0.10185,-2.42755 0.23237,-3.64084 0.39256,-3.64084c0.9552,0.18095 1.91139,0.3629 2.86659,0.54484c0,-0.31247 0,-0.62494 0,-0.9374c0,-0.76337 -0.02868,-1.7957 -0.08702,-3.09599c0.05834,0 0.08702,-0.02571 0.08702,-0.07614z" data-paper-data="{&quot;origPos&quot;:null}" fill="#2b70c2"/><path d="M209.12372,174.86719c4.31719,0.59626 6.47479,0.96311 6.47479,1.10055c1.70077,1.46148 2.55116,2.24265 2.55116,2.3445c-0.6902,2.15761 -1.08276,3.46977 -1.1767,3.93451c0.6902,1.53366 1.08276,2.44931 1.1767,2.74793c0,0.08702 -1.12627,0.31939 -3.3788,0.69712c-0.02966,-0.1236 -0.23633,-0.39948 -0.62197,-0.82863c-3.10984,0.59626 -4.7849,0.89389 -5.02518,0.89389c-0.23633,-0.63977 -1.41995,-3.83959 -1.65726,-4.48035c1.21724,-0.64273 2.43448,-1.28646 3.65171,-1.92919c0.58934,0.09493 1.50795,0.14141 2.75881,0.14141c0,-0.1592 0.02175,-0.64274 0.06526,-1.44961c-0.21062,0 -2.09333,0.13844 -5.64715,0.41432c-0.02175,-0.04746 -0.04351,-0.09492 -0.06526,-0.1414c0.49441,-2.29703 0.79205,-3.44505 0.89389,-3.44505zM211.39108,181.27672c0,0.08009 0.23237,0.93048 0.69811,2.55116c0.02175,0 0.04351,0 0.06526,0c0.91565,-0.59626 1.37347,-0.98882 1.37347,-1.17768c0.04746,-0.38861 0.09394,-0.77721 0.1414,-1.16582c-0.17403,0 -0.93345,-0.06922 -2.27824,-0.20765z" data-paper-data="{&quot;origPos&quot;:null}" fill="#000000"/><path d="M228.87639,174.86719c1.21032,0.83259 2.41964,1.66418 3.62995,2.49677c-0.25413,4.14217 -0.43211,6.56181 -0.53396,7.25992c-0.42124,0.05043 -1.70374,0.12657 -3.84849,0.22842l-0.07614,-0.15228c-0.12657,-1.94006 -0.25413,-3.88112 -0.38168,-5.82118l-0.15228,-0.07614c-1.38831,0.29763 -2.3435,0.52309 -2.86659,0.67536c0.14536,2.47798 0.21754,4.26973 0.21754,5.37424c-2.16551,0.60318 -3.35012,0.90477 -3.55382,0.90477c-1.41006,-6.20583 -2.11509,-9.48377 -2.11509,-9.83283c3.06732,-0.39948 4.7315,-0.59922 4.99354,-0.59922c0,0.02571 0,0.05043 0,0.07614c0.05043,0.03659 0.12657,0.79205 0.22842,2.26736c2.8122,-1.86788 4.2984,-2.80133 4.45859,-2.80133z" data-paper-data="{&quot;origPos&quot;:null}" fill="#000000"/><path d="M240.22408,171.56454c0.02175,0 0.04351,0 0.06526,0c3.28486,0.27588 4.92729,0.49046 4.92729,0.64273c0.4598,4.06801 0.99079,8.76193 1.4506,12.83093c0,0.09394 -1.4506,0.33422 -4.34982,0.71887l-0.06526,-0.1414c0,-0.38861 0,-0.77721 0,-1.16681c-2.49974,0.67635 -4.21534,1.11242 -5.14582,1.30821c-2.20902,-3.12467 -3.36792,-4.78885 -3.47669,-4.99255c1.6276,-2.95756 2.49578,-4.45463 2.60455,-4.49122l4.56835,0.21853c-0.09493,-0.55967 -0.28775,-2.2021 -0.57846,-4.92729zM238.197,179.38017c0.7337,2.24561 1.19153,3.47768 1.37347,3.69522l2.16947,-1.88568c-0.22545,-1.3003 -0.39256,-1.95094 -0.50133,-1.95094c-0.96707,0 -1.93314,0 -2.90021,0c-0.09394,0.01384 -0.1414,0.06131 -0.1414,0.1414z" data-paper-data="{&quot;origPos&quot;:null}" fill="#000000"/><path d="M261.47086,174.89983c3.08808,0.08009 4.63262,0.21457 4.63262,0.40344c0.531,8.04504 0.796,12.32564 0.796,12.8418c-2.34053,1.48916 -4.0156,2.49974 -5.02518,3.02974c-3.56173,-1.11836 -5.34161,-1.75812 -5.34161,-1.91831c1.14802,-1.67901 1.81251,-2.5294 1.99445,-2.55116c1.94105,0.96014 3.05644,1.43972 3.34716,1.43972l1.03529,-1.36259c-0.27588,-1.12726 -0.46178,-1.79174 -0.55572,-1.99544c-0.16019,0 -2.12992,0.31939 -5.9082,0.95916c-2.07158,-3.36495 -3.10687,-5.09044 -3.10687,-5.17746c1.78779,-2.8567 2.87747,-4.53176 3.27003,-5.02617c0.02571,0 0.05043,0 0.07614,0c0.21062,0 1.78086,0.34609 4.70975,1.03628v-0.24028c0,-0.2828 -0.02571,-0.73766 -0.07713,-1.3626c0.05142,-0.02472 0.10185,-0.05043 0.15327,-0.07614zM258.04756,179.52157c0.10185,0.22545 0.42123,1.42489 0.95915,3.59733c0.67635,-0.21754 1.71165,-0.61702 3.10687,-1.19845c-0.26896,-1.30821 -0.40344,-2.05378 -0.40344,-2.23473l-0.39256,-0.07614c-0.1592,0 -0.31939,0 -0.47957,0c-0.6101,0 -1.54058,-0.02966 -2.79045,-0.088z" data-paper-data="{&quot;origPos&quot;:null}" fill="#000000"/><path d="M272.4695,174.87808c2.76177,0.74162 4.22622,1.19153 4.39333,1.35172c1.51883,2.15068 2.37317,3.39067 2.56203,3.71698c-0.98091,3.11083 -1.54454,4.66624 -1.6899,4.66624c-3.27003,0.76238 -4.98168,1.14406 -5.13395,1.14406c-2.70343,-1.57717 -4.14315,-2.45623 -4.31719,-2.63817c-0.09493,-2.93581 -0.1414,-4.55648 -0.1414,-4.86104c-0.04351,-0.088 -0.06526,-0.15326 -0.06526,-0.19677c2.79045,-2.12201 4.23314,-3.18301 4.32708,-3.18301zM272.26284,178.86797c-0.04351,0.29071 -0.10877,1.34776 -0.19678,3.17213c0.81083,0.18194 1.62067,0.3629 2.43151,0.54484c0.58143,-1.81646 0.87214,-2.78649 0.87214,-2.91009c-1.93314,-0.58143 -2.96943,-0.87214 -3.10687,-0.87214z" data-paper-data="{&quot;origPos&quot;:null}" fill="#000000"/><path d="M294.08609,174.89983c3.08907,0.08009 4.63361,0.21457 4.63361,0.40344c0.53001,8.04504 0.796,12.32564 0.796,12.8418c-2.34053,1.48916 -4.0156,2.49974 -5.02617,3.02974c-3.56074,-1.11836 -5.3416,-1.75812 -5.3416,-1.91831c1.14901,-1.67901 1.8135,-2.5294 1.99544,-2.55116c1.94006,0.96014 3.05545,1.43972 3.34617,1.43972c0.3451,-0.45486 0.69118,-0.90873 1.03628,-1.36259c-0.27687,-1.12726 -0.46177,-1.79174 -0.5567,-1.99544c-0.1592,0 -2.12893,0.31939 -5.9082,0.95916c-2.07059,-3.36495 -3.10687,-5.09044 -3.10687,-5.17746c1.78779,-2.8567 2.87845,-4.53176 3.27101,-5.02617c0.02472,0 0.05043,0 0.07614,0c0.21062,0 1.77988,0.34609 4.70876,1.03628c0,-0.08009 0,-0.16019 0,-0.24028c0,-0.2828 -0.02472,-0.73766 -0.07614,-1.3626c0.05142,-0.02472 0.10185,-0.05043 0.15228,-0.07614zM290.66378,179.52157c0.10185,0.22545 0.42124,1.42489 0.95916,3.59733c0.67536,-0.21754 1.71165,-0.61702 3.10687,-1.19845c-0.26896,-1.30821 -0.40344,-2.05378 -0.40344,-2.23473l-0.39256,-0.07614c-0.16019,0 -0.31939,0 -0.47958,0c-0.6101,0 -1.54058,-0.02966 -2.79045,-0.088z" data-paper-data="{&quot;origPos&quot;:null}" fill="#000000"/><path d="M306.87351,174.87808c3.29178,1.69286 5.11616,2.68168 5.47213,2.96547c-0.47265,2.20902 -0.75151,3.34617 -0.83951,3.41143c-2.29604,0 -4.59307,0 -6.88911,0c0,0.04054 0,0.08009 0,0.11964c0.64273,0.796 1.28646,1.592 1.92919,2.388c1.01057,-0.51616 2.02016,-1.03233 3.03074,-1.54849c0.29763,0.51616 0.72678,1.41797 1.28645,2.70343c-0.26204,0.088 -2.16947,0.36784 -5.72329,0.83951c-2.94273,-1.94006 -4.42596,-2.95064 -4.44771,-3.02974c0.47265,-3.77235 0.75249,-5.65803 0.83951,-5.65803c3.07424,-1.30821 4.8551,-2.03895 5.3416,-2.19123zM306.16453,177.51624c-0.05735,0.14536 -0.443,0.72282 -1.15494,1.7334c0,0.30456 0.42816,0.45783 1.28646,0.45783c0,0.04351 0.62098,0.14832 1.86392,0.31543c0.34114,-0.47167 0.51221,-0.74854 0.51221,-0.82764c-0.10877,-0.64669 -0.34509,-0.97102 -0.70898,-0.97102c-0.59922,-0.23534 -1.19845,-0.47166 -1.79866,-0.70799z" data-paper-data="{&quot;origPos&quot;:null}" fill="#000000"/><path d="M316.59757,171.57542l4.79577,0.85039l-0.45782,3.64084c0.95223,-0.05142 1.65034,-0.07713 2.09333,-0.07713c0.23237,0 0.46475,0 0.69811,0l0.15228,-0.07614c0.02571,0.05142 0.05043,0.10185 0.07614,0.15327c-0.15228,2.20902 -0.28379,3.45197 -0.39256,3.72785c-0.05043,-0.02868 -0.10185,-0.05834 -0.15228,-0.08701c-0.10877,0 -1.09067,-0.05142 -2.94372,-0.15327c-0.10185,1.70868 -0.17799,3.75059 -0.22842,6.12673c-0.05142,0.02571 -0.10184,0.05142 -0.15326,0.07614c-2.33955,-0.15228 -3.73477,-0.2828 -4.18568,-0.39256c0.02571,-0.10086 0.05142,-0.20271 0.07614,-0.30456c0,-0.63284 0.10184,-2.59466 0.30554,-5.88644c-1.96182,-0.10976 -2.94371,-0.24029 -2.94371,-0.39256c0.10185,-2.42755 0.23336,-3.64084 0.39256,-3.64084c0.95619,0.18095 1.91139,0.3629 2.86758,0.54484c0,-0.31247 0,-0.62494 0,-0.9374c0,-0.76337 -0.02967,-1.7957 -0.08801,-3.09599c0.05834,0 0.08801,-0.02571 0.08801,-0.07614z" data-paper-data="{&quot;origPos&quot;:null}" fill="#000000"/><path d="M34.59799,198.12022l4.28357,0.67635c-0.53693,2.05675 -0.88994,3.08512 -1.05705,3.08512c-2.25253,-0.15327 -3.3788,-0.30159 -3.3788,-0.44695c0,-1.05408 0,-2.10817 0,-3.16126c0.02175,-0.10185 0.07218,-0.15326 0.15228,-0.15326zM33.39856,203.30956c0.02175,0 0.04351,0 0.06526,0c3.31453,0.60318 4.9708,0.9552 4.9708,1.05705c-0.95125,5.39302 -1.5297,8.39805 -1.73241,9.01507c-1.15198,0 -2.30395,0 -3.45593,0c-0.10185,0 -0.15228,-0.05043 -0.15228,-0.15228c0.04054,-1.32304 0.26402,-8.59779 0.30456,-9.91984z" data-paper-data="{&quot;origPos&quot;:null}" fill="#000000"/><path d="M42.45714,199.20002c1.59892,0.2828 3.19784,0.5666 4.79676,0.85039l-0.45782,3.64084c0.95223,-0.05142 1.64936,-0.07713 2.09333,-0.07713c0.23237,0 0.46474,0 0.69712,0c0.05142,-0.02472 0.10185,-0.05043 0.15327,-0.07614l0.07614,0.15327c-0.15327,2.20902 -0.28379,3.45197 -0.39256,3.72785l-0.15228,-0.08702c-0.10976,0 -1.09067,-0.05142 -2.94371,-0.15327c-0.10185,1.70868 -0.17799,3.75059 -0.22842,6.12673l-0.15327,0.07614c-2.33955,-0.15228 -3.73477,-0.2828 -4.18568,-0.39256l0.07614,-0.30455c0,-0.63284 0.10185,-2.59467 0.30555,-5.88645c-1.96281,-0.10976 -2.94372,-0.24029 -2.94372,-0.39256c0.10185,-2.42755 0.23237,-3.64084 0.39256,-3.64084l2.86659,0.54484c0,-0.31247 0,-0.62493 0,-0.9374c0,-0.76337 -0.02868,-1.7957 -0.08702,-3.096c0.05834,0 0.08702,-0.02571 0.08702,-0.07614z" data-paper-data="{&quot;origPos&quot;:null}" fill="#000000"/><path d="M61.5997,199.20002l0.07614,0.1414c0,0.41431 0.09492,2.01621 0.28379,4.80764c2.60158,-0.82863 4.05911,-1.2647 4.37157,-1.30821l3.92364,4.21831c-1.64935,3.69918 -2.5472,5.66099 -2.69256,5.88644c-0.45782,-0.05043 -2.12893,-0.1236 -5.0143,-0.21754v0.51221c0,0.09394 -0.05043,0.1414 -0.15228,0.1414c-1.4061,0 -2.81221,0 -4.2193,0c-0.15228,0 -0.44299,-2.18035 -0.87115,-6.54005c-0.09493,-0.37081 -0.35993,-2.55511 -0.796,-6.55192c2.47106,-0.58143 4.16787,-0.94432 5.09044,-1.08968zM62.33044,207.20056l0.28281,2.69255h2.19122c0.26501,-1.01651 0.531,-2.034 0.796,-3.0515c-2.18035,0.18887 -3.27003,0.30851 -3.27003,0.35894z" data-paper-data="{&quot;origPos&quot;:null}" fill="#000000"/><path d="M73.0354,202.49179c4.3162,0.59626 6.47479,0.96311 6.47479,1.10055c1.70077,1.46148 2.55116,2.24265 2.55116,2.3445c-0.6902,2.15761 -1.08276,3.46977 -1.17769,3.93451c0.6902,1.53366 1.08276,2.44931 1.17769,2.74793c0,0.08702 -1.12626,0.31939 -3.37979,0.69712c-0.02868,-0.1236 -0.23633,-0.39949 -0.62098,-0.82863c-3.11083,0.59626 -4.78589,0.89389 -5.02518,0.89389l-1.65726,-4.48035l3.65171,-1.92918c0.58835,0.09493 1.50795,0.1414 2.75782,0.1414c0,-0.1592 0.02175,-0.64273 0.06526,-1.44961c-0.21062,0 -2.09234,0.13843 -5.64616,0.41431c-0.02175,-0.04746 -0.04351,-0.09492 -0.06526,-0.1414c0.49342,-2.29703 0.79205,-3.44505 0.89389,-3.44505zM75.30277,208.90132c0,0.08009 0.23237,0.93048 0.69712,2.55116c0.02175,0 0.04351,0 0.06526,0c0.91565,-0.59626 1.37347,-0.98882 1.37347,-1.17768l0.14239,-1.16582c-0.17502,0 -0.93443,-0.06922 -2.27824,-0.20765z" data-paper-data="{&quot;origPos&quot;:null}" fill="#000000"/><path d="M87.39208,202.50268c3.27695,0.61801 4.99255,0.97003 5.14483,1.05705c0,0.04351 0,0.088 0,0.13151c-0.70503,1.99049 -1.05705,3.02282 -1.05705,3.096c-0.02175,0 -0.04351,0 -0.06526,0c-0.18194,0 -1.061,-0.28379 -2.63817,-0.85039c-0.88005,1.47532 -1.31908,2.26341 -1.31908,2.36525l2.18035,2.11509c1.68594,-1.58508 2.54324,-2.37712 2.57192,-2.37712c1.31612,1.72252 1.97368,2.68959 1.97368,2.90021c-0.71986,0.41431 -1.97368,1.22811 -3.76147,2.4414c-3.45889,-0.74854 -5.32677,-1.16582 -5.60265,-1.25382l-1.71165,-5.53739z" data-paper-data="{&quot;origPos&quot;:null}" fill="#000000"/><path d="M100.08062,199.20002c0.10185,0.29071 0.33027,2.35042 0.68624,6.18012l3.27102,-3.66259c0.02472,0 0.05043,0 0.07614,0c0.50826,0.42223 1.44961,1.31216 2.82308,2.6708c0,0.02571 0,0.05142 0,0.07614l-3.12862,2.58378c2.35438,1.57717 3.60128,2.46711 3.73972,2.67081c-1.48323,1.64935 -2.37317,2.5907 -2.6708,2.82308c-1.26866,-1.16978 -2.53632,-2.33954 -3.80498,-3.50932c0.15228,1.56926 0.22941,2.73903 0.22941,3.50932c-0.18194,0.10185 -1.52971,0.38169 -4.04427,0.83951c-0.2037,-1.01749 -0.86522,-5.38808 -1.98456,-13.11373c0.46574,-0.15228 2.06762,-0.50826 4.80764,-1.06793z" data-paper-data="{&quot;origPos&quot;:null}" fill="#000000"/><path d="M113.28136,199.60345c0.01483,0.02868 0.02966,0.05735 0.04351,0.08702c-0.72678,6.41645 -1.13319,9.78932 -1.2202,10.11563c-1.54058,-0.14536 -2.51457,-0.24721 -2.92196,-0.30456v-0.04351l-0.69712,-9.11396c0.17403,-0.05834 1.77295,-0.30455 4.79577,-0.74062zM108.96516,210.02464c0.05043,0.02868 1.18461,0.11569 3.40055,0.26105l0.04351,0.088c-0.34114,2.00532 -0.55968,3.00799 -0.65361,3.00799c-0.84346,0 -1.68594,0 -2.5294,0c-0.08702,0 -0.2037,-1.00267 -0.34807,-3.00799c-0.02966,0 -0.0445,-0.088 -0.0445,-0.26204c0.088,-0.02868 0.13151,-0.05834 0.13151,-0.08701z" data-paper-data="{&quot;origPos&quot;:null}" fill="#000000"/></g></g></g></svg>