<svg version="1.1" xmlns="http://www.w3.org/2000/svg" xmlns:xlink="http://www.w3.org/1999/xlink" width="55.9375" height="26.81293" viewBox="0,0,55.9375,26.81293"><g transform="translate(-292,-166.68707)"><g data-paper-data="{&quot;isPaintingLayer&quot;:true}" fill-rule="nonzero" stroke-linejoin="miter" stroke-miterlimit="10" stroke-dasharray="" stroke-dashoffset="0" style="mix-blend-mode: normal"><path d="M346.125,180c0,2.89613 -1.69956,7.65878 -5.71372,9.63817c-4.50193,2.2199 -13.0968,2.11183 -20.28628,2.11183c-6.05353,0 -14.22189,-0.36183 -18.50988,-1.99882c-5.34552,-2.04072 -7.86512,-6.34185 -7.86512,-9.75118c0,-3.80922 1.48765,-7.7963 7.94933,-9.80152c3.96083,-1.22915 13.25731,-1.57348 18.42567,-1.57348c6.10494,0 15.56601,0.62866 19.86886,2.29067c5.28263,2.04046 6.13114,5.69823 6.13114,9.08433z" fill="#fff985" stroke="#000000" stroke-width="3.5" stroke-linecap="butt"/><path d="M319.81223,169.31229v21.5" fill="none" stroke="#000000" stroke-width="3.5" stroke-linecap="round"/><path d="M321.18723,190.18729v-19.72556h19.375c0,0 4.375,5.98282 4.375,9.22556c0,3.33013 -4.375,10.5 -4.375,10.5z" fill="#84f1f4" stroke="none" stroke-width="0" stroke-linecap="butt"/><path d="M346.1875,179.81207c0,2.89613 -1.69956,7.65878 -5.71372,9.63817c-4.50193,2.2199 -13.0968,2.11183 -20.28628,2.11183c-6.05353,0 -14.22189,-0.36183 -18.50988,-1.99882c-5.34552,-2.04072 -7.86512,-6.34185 -7.86512,-9.75118c0,-3.80922 1.48765,-7.7963 7.94933,-9.80152c3.96083,-1.22915 13.25731,-1.57348 18.42567,-1.57348c6.10494,0 15.56601,0.62866 19.86886,2.29067c5.28263,2.04046 6.13114,5.69823 6.13114,9.08433z" fill="none" stroke="#000000" stroke-width="3.5" stroke-linecap="butt"/></g></g></svg>