<svg version="1.1" xmlns="http://www.w3.org/2000/svg" xmlns:xlink="http://www.w3.org/1999/xlink" width="130.65708" height="40.24765" viewBox="0,0,130.65708,40.24765"><g transform="translate(-175.03301,-159.84008)"><g data-paper-data="{&quot;isPaintingLayer&quot;:true}" fill="#ffffff" fill-rule="nonzero" stroke="none" stroke-width="none" stroke-linecap="butt" stroke-linejoin="miter" stroke-miterlimit="10" stroke-dasharray="" stroke-dashoffset="0" font-family="none" font-weight="none" font-size="none" text-anchor="none" style="mix-blend-mode: normal"><text transform="translate(175.39391,195.3961) scale(0.7218,0.72179)" font-size="22" xml:space="preserve" data-paper-data="{&quot;origPos&quot;:null}" id="ID0.08681221166625619" fill="#ffffff" fill-rule="nonzero" stroke="none" stroke-width="1" stroke-linecap="butt" stroke-linejoin="miter" stroke-miterlimit="10" stroke-dasharray="" stroke-dashoffset="0" font-family="Sans Serif" font-weight="400" text-anchor="start" style="mix-blend-mode: normal"><tspan x="0" dy="0">Get a Grand Star.</tspan></text><g stroke-width="0.26459"><path d="M184.61472,159.86322c2.93134,0.74054 4.48958,1.18025 4.67472,1.3191c-1.0414,2.49164 -1.60067,3.76832 -1.67781,3.83004c-0.19286,0 -1.44639,-0.43971 -3.7606,-1.3191c-1.34224,1.24967 -2.01336,1.94779 -2.01336,2.09436c-0.10028,2.31421 -0.15043,3.66031 -0.15043,4.0383c1.60452,0.74054 2.55721,1.15712 2.85806,1.24968c1.49652,-0.64798 2.35664,-1.0414 2.58035,-1.18025l-0.41656,-1.33068c-0.2777,0.15429 -1.11469,0.50527 -2.51093,1.05297l-0.06942,-0.13882v-0.56698c0,-0.48599 -0.02315,-1.22653 -0.06943,-2.22164c0.36256,-0.09256 2.47621,-0.32397 6.34095,-0.69426c0.09257,0.47827 0.25456,2.51863 0.48598,6.12109c-0.12342,0.13885 -2.44535,1.0684 -6.96578,2.78863c-3.84931,-1.40396 -5.80097,-2.19465 -5.85496,-2.37206c-1.20339,-4.18101 -1.80509,-6.38338 -1.80509,-6.60709c1.58138,-2.84648 2.48778,-4.38158 2.7192,-4.60529c0.19286,-0.09256 2.07122,-0.57854 5.63511,-1.45796z" data-paper-data="{&quot;origPos&quot;:null}" id="path3805"/><path d="M200.35138,163.34612c1.52738,0.85625 2.46464,1.41167 2.81177,1.66624c-1.24968,2.59963 -1.9208,3.92259 -2.01337,3.96888h-0.081l-1.65466,-1.44639l-1.95551,2.38365l0.21984,4.33915c-0.10028,0.09256 -1.37695,0.30854 -3.83002,0.64798c-0.09257,-0.66341 -0.69427,-3.91487 -1.80509,-9.7544c0,-0.09256 1.61223,-0.33169 4.83671,-0.71741c0.054,0.06167 0.20057,0.78293 0.4397,2.16378c1.92851,-2.16765 2.93906,-3.25146 3.03162,-3.25146z" data-paper-data="{&quot;origPos&quot;:null}" id="path3807"/><path d="M205.83607,163.34612c4.58214,0.63256 6.87322,1.02211 6.87322,1.16867c1.80509,1.55052 2.70763,2.37979 2.70763,2.48778c-0.73283,2.29108 -1.14939,3.68346 -1.24968,4.17716c0.73283,1.62766 1.14939,2.59964 1.24968,2.91592c0,0.09256 -1.19568,0.3394 -3.58703,0.74054c-0.03085,-0.13113 -0.25071,-0.42427 -0.65955,-0.87939c-3.30161,0.63255 -5.07971,0.94882 -5.33427,0.94882l-1.7588,-4.75571l3.87631,-2.04809c0.62484,0.10028 1.60067,0.15043 2.92748,0.15043c0,-0.16971 0.02314,-0.68269 0.06943,-1.53894c-0.22371,0 -2.22164,0.14656 -5.99382,0.43969l-0.06943,-0.15043c0.52455,-2.43764 0.84083,-3.65645 0.94883,-3.65645zM208.24286,170.14991c0,0.0849 0.24685,0.98745 0.74055,2.70764h0.06943c0.97197,-0.63256 1.45796,-1.04912 1.45796,-1.24968l0.15042,-1.2381c-0.18514,0 -0.99126,-0.07328 -2.41836,-0.21985z" data-paper-data="{&quot;origPos&quot;:null}" id="path3809"/><path d="M226.80286,163.34612l3.85317,2.64978c-0.26999,4.397 -0.45898,6.96579 -0.56697,7.70634c-0.44742,0.05402 -1.80895,0.13501 -4.08459,0.24299l-0.081,-0.162l-0.40499,-6.17895l-0.162,-0.08103c-1.47338,0.31628 -2.48779,0.55541 -3.04319,0.71741c0.15429,2.63049 0.23142,4.53201 0.23142,5.70454c-2.29878,0.64026 -3.55617,0.9604 -3.77217,0.9604c-1.49652,-6.5878 -2.24478,-10.06683 -2.24478,-10.4371c3.25533,-0.42427 5.02183,-0.63641 5.29954,-0.63641v0.08103c0.054,0.03854 0.135,0.8408 0.243,2.40679c2.98534,-1.98251 4.56287,-2.97377 4.73257,-2.97377z" data-paper-data="{&quot;origPos&quot;:null}" id="path3811"/><path d="M238.80206,159.84008h0.06943c3.48676,0.29313 5.23013,0.5207 5.23013,0.68269l1.53896,13.61916c0,0.10028 -1.53896,0.35485 -4.61687,0.76369l-0.06942,-0.15042v-1.23811c-2.65363,0.71742 -4.47414,1.18025 -5.46154,1.38853c-2.34507,-3.31704 -3.57546,-5.08356 -3.69118,-5.29955c1.72795,-3.13961 2.64977,-4.72871 2.76548,-4.76728l4.84829,0.23143c-0.10028,-0.59399 -0.30472,-2.33737 -0.61328,-5.23013zM236.64984,168.13655c0.77912,2.38364 1.2651,3.69117 1.45795,3.9226l2.30264,-2.0018c-0.23914,-1.38081 -0.41656,-2.07121 -0.53227,-2.07121h-3.07791c-0.10028,0.0154 -0.15042,0.06554 -0.15042,0.15042z" data-paper-data="{&quot;origPos&quot;:null}" id="path3813"/><path d="M261.07638,159.86322c2.93134,0.74054 4.48958,1.18025 4.67471,1.3191c-1.04139,2.49164 -1.60067,3.76832 -1.67781,3.83004c-0.19285,0 -1.44639,-0.43971 -3.7606,-1.3191c-1.34225,1.24967 -2.01336,1.94779 -2.01336,2.09436c-0.10028,2.31421 -0.15043,3.66031 -0.15043,4.0383c1.60452,0.74054 2.55721,1.15712 2.85806,1.24968c1.49652,-0.64798 2.35664,-1.0414 2.58035,-1.18025l-0.41656,-1.33068c-0.2777,0.15429 -1.11468,0.50527 -2.51093,1.05297l-0.06942,-0.13882v-0.56698c0,-0.48599 -0.02315,-1.22653 -0.06943,-2.22164c0.36256,-0.09256 2.47621,-0.32397 6.34095,-0.69426c0.09256,0.47827 0.25457,2.51863 0.48599,6.12109c-0.12342,0.13885 -2.44536,1.0684 -6.96579,2.78863c-3.84931,-1.40396 -5.80097,-2.19465 -5.85497,-2.37206c-1.20339,-4.18101 -1.80509,-6.38338 -1.80509,-6.60709c1.58138,-2.84648 2.48779,-4.38158 2.71921,-4.60529c0.19285,-0.09256 2.07123,-0.57854 5.63512,-1.45796z" data-paper-data="{&quot;origPos&quot;:null}" id="path3815"/><path d="M273.16815,163.35769c2.93134,0.78683 4.48572,1.26511 4.66314,1.43482c1.61223,2.28337 2.51863,3.59861 2.7192,3.94574c-1.04139,3.30161 -1.63923,4.95242 -1.79351,4.95242c-3.47133,0.80998 -5.28798,1.21495 -5.44998,1.21495c-2.86962,-1.67395 -4.39701,-2.60734 -4.58214,-2.8002c-0.10028,-3.11647 -0.15042,-4.8367 -0.15042,-5.1607c-0.04628,-0.09256 -0.06943,-0.16199 -0.06943,-0.20828c2.96219,-2.2525 4.49343,-3.37875 4.59371,-3.37875zM272.94831,167.5927c-0.04628,0.30856 -0.11572,1.43095 -0.20829,3.36719l2.58035,0.57855c0.61712,-1.92852 0.92569,-2.95835 0.92569,-3.08948c-2.05194,-0.61713 -3.15119,-0.92569 -3.29776,-0.92569z" data-paper-data="{&quot;origPos&quot;:null}" id="path3817"/><path d="M283.36227,163.34612c4.58214,0.63256 6.87322,1.02211 6.87322,1.16867c1.80508,1.55052 2.70763,2.37979 2.70763,2.48778c-0.73283,2.29108 -1.14939,3.68346 -1.24968,4.17716c0.73284,1.62766 1.1494,2.59964 1.24968,2.91592c0,0.09256 -1.19569,0.3394 -3.58704,0.74054c-0.03088,-0.13113 -0.25073,-0.42427 -0.65955,-0.87939c-3.30161,0.63255 -5.0797,0.94882 -5.33426,0.94882l-1.7588,-4.75571l3.87631,-2.04809c0.62484,0.10028 1.60066,0.15043 2.92748,0.15043c0,-0.16971 0.02314,-0.68269 0.06942,-1.53894c-0.2237,0 -2.22164,0.14656 -5.99381,0.43969l-0.06943,-0.15043c0.52455,-2.43764 0.84084,-3.65645 0.94883,-3.65645zM285.76905,170.14991c0,0.0849 0.24686,0.98745 0.74056,2.70764h0.06942c0.97197,-0.63256 1.45795,-1.04912 1.45795,-1.24968l0.15042,-1.2381c-0.18514,0 -0.99125,-0.07328 -2.41835,-0.21985z" data-paper-data="{&quot;origPos&quot;:null}" id="path3819"/><path d="M294.05394,159.86322c2.3605,0.04627 4.09231,0.06941 5.19542,0.06941c0.10028,0 0.40499,4.73643 0.91412,14.20929c-0.39342,0.10028 -1.76651,0.35485 -4.1193,0.76369c-0.11571,0 -0.49757,-2.90049 -1.14554,-8.70145c-0.05402,-0.13885 -0.33558,-2.2525 -0.84469,-6.34095z" data-paper-data="{&quot;origPos&quot;:null}" id="path3821"/></g></g></g></svg>