<svg version="1.1" xmlns="http://www.w3.org/2000/svg" xmlns:xlink="http://www.w3.org/1999/xlink" width="655" height="527.15147" viewBox="0,0,655,527.15147"><defs><linearGradient x1="16.45695" y1="26.69669" x2="106.17125" y2="26.69669" gradientUnits="userSpaceOnUse" id="color-1"><stop offset="0" stop-color="#2a76de" stop-opacity="0"/><stop offset="1" stop-color="#2a76de"/></linearGradient><linearGradient x1="16.45695" y1="88.0332" x2="106.17125" y2="88.0332" gradientUnits="userSpaceOnUse" id="color-2"><stop offset="0" stop-color="#2e89e4" stop-opacity="0"/><stop offset="1" stop-color="#2e89e4"/></linearGradient><linearGradient x1="16.45695" y1="149.3697" x2="106.17125" y2="149.3697" gradientUnits="userSpaceOnUse" id="color-3"><stop offset="0" stop-color="#3099e9" stop-opacity="0"/><stop offset="1" stop-color="#3099e9"/></linearGradient><linearGradient x1="16.45695" y1="210.63036" x2="106.17125" y2="210.63036" gradientUnits="userSpaceOnUse" id="color-4"><stop offset="0" stop-color="#33acef" stop-opacity="0"/><stop offset="1" stop-color="#33acef"/></linearGradient><linearGradient x1="16.45695" y1="271.96686" x2="106.17125" y2="271.96686" gradientUnits="userSpaceOnUse" id="color-5"><stop offset="0" stop-color="#36bcf4" stop-opacity="0"/><stop offset="1" stop-color="#36bcf4"/></linearGradient><linearGradient x1="16.45695" y1="333.30336" x2="106.17125" y2="333.30336" gradientUnits="userSpaceOnUse" id="color-6"><stop offset="0" stop-color="#39d0fa" stop-opacity="0"/><stop offset="1" stop-color="#39d0fa"/></linearGradient><linearGradient x1="624.47487" y1="26.69669" x2="534.76057" y2="26.69669" gradientUnits="userSpaceOnUse" id="color-7"><stop offset="0" stop-color="#2a76de" stop-opacity="0"/><stop offset="1" stop-color="#2a76de"/></linearGradient><linearGradient x1="624.47487" y1="88.0332" x2="534.76057" y2="88.0332" gradientUnits="userSpaceOnUse" id="color-8"><stop offset="0" stop-color="#2e89e4" stop-opacity="0"/><stop offset="1" stop-color="#2e89e4"/></linearGradient><linearGradient x1="624.47487" y1="149.3697" x2="534.76057" y2="149.3697" gradientUnits="userSpaceOnUse" id="color-9"><stop offset="0" stop-color="#3099e9" stop-opacity="0"/><stop offset="1" stop-color="#3099e9"/></linearGradient><linearGradient x1="624.47487" y1="210.63036" x2="534.76057" y2="210.63036" gradientUnits="userSpaceOnUse" id="color-10"><stop offset="0" stop-color="#33acef" stop-opacity="0"/><stop offset="1" stop-color="#33acef"/></linearGradient><linearGradient x1="624.47487" y1="271.96686" x2="534.76057" y2="271.96686" gradientUnits="userSpaceOnUse" id="color-11"><stop offset="0" stop-color="#36bcf4" stop-opacity="0"/><stop offset="1" stop-color="#36bcf4"/></linearGradient><linearGradient x1="624.47487" y1="333.30336" x2="534.76057" y2="333.30336" gradientUnits="userSpaceOnUse" id="color-12"><stop offset="0" stop-color="#39d0fa" stop-opacity="0"/><stop offset="1" stop-color="#39d0fa"/></linearGradient><linearGradient x1="246.9801" y1="242.24302" x2="242.58032" y2="248.49557" gradientUnits="userSpaceOnUse" id="color-13"><stop offset="0" stop-color="#000000"/><stop offset="1" stop-color="#0f410c"/></linearGradient><linearGradient x1="241.00991" y1="238.04189" x2="236.61014" y2="244.29445" gradientUnits="userSpaceOnUse" id="color-14"><stop offset="0" stop-color="#000000"/><stop offset="1" stop-color="#0f410c"/></linearGradient><linearGradient x1="101.68772" y1="198.97387" x2="101.68772" y2="206.60259" gradientUnits="userSpaceOnUse" id="color-15"><stop offset="0" stop-color="#000000"/><stop offset="1" stop-color="#3f380a"/></linearGradient><linearGradient x1="94.40345" y1="198.97387" x2="94.40345" y2="206.60259" gradientUnits="userSpaceOnUse" id="color-16"><stop offset="0" stop-color="#000000"/><stop offset="1" stop-color="#3f380a"/></linearGradient><linearGradient x1="-4.53428" y1="0" x2="-4.53428" y2="360" gradientUnits="userSpaceOnUse" id="color-17"><stop offset="0" stop-color="#3ad7fc" stop-opacity="0"/><stop offset="1" stop-color="#3ad7fc"/></linearGradient><linearGradient x1="459.32729" y1="250.96832" x2="459.32729" y2="280.60243" gradientUnits="userSpaceOnUse" id="color-18"><stop offset="0" stop-color="#ffffff"/><stop offset="1" stop-color="#bbbbbb"/></linearGradient><linearGradient x1="315.95269" y1="251.1478" x2="315.95269" y2="280.97906" gradientUnits="userSpaceOnUse" id="color-19"><stop offset="0" stop-color="#ffffff"/><stop offset="1" stop-color="#bbbbbb"/></linearGradient><linearGradient x1="174.78364" y1="250.70154" x2="174.78364" y2="280.53279" gradientUnits="userSpaceOnUse" id="color-20"><stop offset="0" stop-color="#ffffff"/><stop offset="1" stop-color="#bbbbbb"/></linearGradient><linearGradient x1="200.03838" y1="251.00796" x2="200.03838" y2="280.22226" gradientUnits="userSpaceOnUse" id="color-21"><stop offset="0" stop-color="#ffffff"/><stop offset="1" stop-color="#bbbbbb"/></linearGradient><linearGradient x1="228.51173" y1="250.80745" x2="228.51173" y2="280.02176" gradientUnits="userSpaceOnUse" id="color-22"><stop offset="0" stop-color="#ffffff"/><stop offset="1" stop-color="#bbbbbb"/></linearGradient><linearGradient x1="488.04645" y1="250.44711" x2="488.04645" y2="279.66141" gradientUnits="userSpaceOnUse" id="color-23"><stop offset="0" stop-color="#ffffff"/><stop offset="1" stop-color="#bbbbbb"/></linearGradient><linearGradient x1="344.10781" y1="250.90302" x2="344.10781" y2="280.11732" gradientUnits="userSpaceOnUse" id="color-24"><stop offset="0" stop-color="#ffffff"/><stop offset="1" stop-color="#bbbbbb"/></linearGradient><linearGradient x1="372.58117" y1="250.70251" x2="372.58117" y2="279.91679" gradientUnits="userSpaceOnUse" id="color-25"><stop offset="0" stop-color="#ffffff"/><stop offset="1" stop-color="#bbbbbb"/></linearGradient><linearGradient x1="229.27054" y1="18.9129" x2="229.27054" y2="59.87232" gradientUnits="userSpaceOnUse" id="color-26"><stop offset="0" stop-color="#cef0fa"/><stop offset="1" stop-color="#8fdff7"/></linearGradient><radialGradient cx="417.37056" cy="256.47386" r="33.09685" gradientUnits="userSpaceOnUse" id="color-27"><stop offset="0" stop-color="#ffff00"/><stop offset="1" stop-color="#ff9400"/></radialGradient><radialGradient cx="423.69493" cy="258.44387" r="22.65159" gradientUnits="userSpaceOnUse" id="color-28"><stop offset="0" stop-color="#bda501"/><stop offset="1" stop-color="#c07801"/></radialGradient><radialGradient cx="273.37056" cy="256.47386" r="33.09686" gradientUnits="userSpaceOnUse" id="color-29"><stop offset="0" stop-color="#ffff00"/><stop offset="1" stop-color="#ff9400"/></radialGradient><radialGradient cx="279.69493" cy="258.44387" r="22.65159" gradientUnits="userSpaceOnUse" id="color-30"><stop offset="0" stop-color="#bda501"/><stop offset="1" stop-color="#c07801"/></radialGradient><radialGradient cx="137.37056" cy="256.47386" r="33.09686" gradientUnits="userSpaceOnUse" id="color-31"><stop offset="0" stop-color="#ffff00"/><stop offset="1" stop-color="#ff9400"/></radialGradient><radialGradient cx="143.69494" cy="258.44387" r="22.65159" gradientUnits="userSpaceOnUse" id="color-32"><stop offset="0" stop-color="#bda501"/><stop offset="1" stop-color="#c07801"/></radialGradient><radialGradient cx="102.46173" cy="363.4507" r="84.32163" gradientUnits="userSpaceOnUse" id="color-33"><stop offset="0" stop-color="#3ad6fc"/><stop offset="1" stop-color="#3ad6fc" stop-opacity="0"/></radialGradient><radialGradient cx="538.4701" cy="363.4507" r="84.32163" gradientUnits="userSpaceOnUse" id="color-34"><stop offset="0" stop-color="#3ad6fc"/><stop offset="1" stop-color="#3ad6fc" stop-opacity="0"/></radialGradient><radialGradient cx="102.46173" cy="-5.00631" r="84.32163" gradientUnits="userSpaceOnUse" id="color-35"><stop offset="0" stop-color="#296cdb"/><stop offset="1" stop-color="#296cdb" stop-opacity="0"/></radialGradient><radialGradient cx="538.4701" cy="-5.00631" r="84.32163" gradientUnits="userSpaceOnUse" id="color-36"><stop offset="0" stop-color="#296cdb"/><stop offset="1" stop-color="#296cdb" stop-opacity="0"/></radialGradient><linearGradient x1="320.88467" y1="0.63335" x2="320.88467" y2="-84.95433" gradientUnits="userSpaceOnUse" id="color-37"><stop offset="0" stop-color="#296cdb"/><stop offset="1" stop-color="#296cdb" stop-opacity="0"/></linearGradient><linearGradient x1="320.88467" y1="359.60446" x2="320.88467" y2="440.76194" gradientUnits="userSpaceOnUse" id="color-38"><stop offset="0" stop-color="#3ad6fc"/><stop offset="1" stop-color="#3ad6fc" stop-opacity="0"/></linearGradient></defs><g transform="translate(5.99997,86.38953)"><g data-paper-data="{&quot;isPaintingLayer&quot;:true}" fill-rule="nonzero" stroke-linejoin="miter" stroke-miterlimit="10" stroke-dasharray="" stroke-dashoffset="0" style="mix-blend-mode: normal"><path d="M16.45695,-3.99996h89.71429v61.39331h-89.71429z" fill="url(#color-1)" stroke="none" stroke-width="1.89892" stroke-linecap="butt"/><path d="M16.45695,57.33654h89.71429v61.39331h-89.71429z" fill="url(#color-2)" stroke="none" stroke-width="1.89892" stroke-linecap="butt"/><path d="M16.45695,118.67303h89.71429v61.39333h-89.71429z" fill="url(#color-3)" stroke="none" stroke-width="1.89892" stroke-linecap="butt"/><path d="M16.45695,179.9337h89.71429v61.39332h-89.71429z" fill="url(#color-4)" stroke="none" stroke-width="1.89892" stroke-linecap="butt"/><path d="M16.45695,241.2702h89.71429v61.39332h-89.71429z" fill="url(#color-5)" stroke="none" stroke-width="1.89892" stroke-linecap="butt"/><path d="M16.45695,302.60671h89.71429v61.39332h-89.71429z" fill="url(#color-6)" stroke="none" stroke-width="1.89892" stroke-linecap="butt"/><path d="M624.47487,57.39335h-89.71429v-61.39331h89.71429z" data-paper-data="{&quot;index&quot;:null}" fill="url(#color-7)" stroke="none" stroke-width="1.89892" stroke-linecap="butt"/><path d="M624.47487,118.72985h-89.71429v-61.39331h89.71429z" data-paper-data="{&quot;index&quot;:null}" fill="url(#color-8)" stroke="none" stroke-width="1.89892" stroke-linecap="butt"/><path d="M624.47487,180.06636h-89.71429v-61.39333h89.71429z" data-paper-data="{&quot;index&quot;:null}" fill="url(#color-9)" stroke="none" stroke-width="1.89892" stroke-linecap="butt"/><path d="M624.47487,241.32703h-89.71429v-61.39332h89.71429z" data-paper-data="{&quot;index&quot;:null}" fill="url(#color-10)" stroke="none" stroke-width="1.89892" stroke-linecap="butt"/><path d="M624.47487,302.66352h-89.71429v-61.39332h89.71429z" data-paper-data="{&quot;index&quot;:null}" fill="url(#color-11)" stroke="none" stroke-width="1.89892" stroke-linecap="butt"/><path d="M624.47487,364.00003h-89.71429v-61.39332h89.71429z" data-paper-data="{&quot;index&quot;:null}" fill="url(#color-12)" stroke="none" stroke-width="1.89892" stroke-linecap="butt"/><path d="M-5.99997,0.00002h655v360h-655z" fill="#296cdb" stroke="none" stroke-width="1" stroke-linecap="butt"/><g><path d="M239.81062,241.90627l3.36375,2.19884l-37.93359,58.02114l-3.36375,-2.19957z" data-paper-data="{&quot;origPos&quot;:null}" fill="#eae2c4" stroke="none" stroke-width="0.18203" stroke-linecap="butt"/><path d="M100.52016,273.06306l-4.01795,0.09125l-1.58363,-69.30231l4.01722,-0.09199z" data-paper-data="{&quot;origPos&quot;:null}" fill="#eae2c4" stroke="none" stroke-width="0.18203" stroke-linecap="butt"/><path d="M175.45791,309.30705c-0.55412,-3.63897 2.31879,-7.40451 4.58017,-10.23915c2.34969,-2.94208 5.31238,-5.76201 8.80564,-6.58694c5.17403,-1.01479 10.86908,-0.61373 15.94082,1.33049c4.46758,1.71388 9.86753,4.36603 11.6241,9.26337c1.15461,3.23276 -2.86555,6.56486 -5.4522,8.69305c-4.05475,3.09147 -8.80491,5.31238 -13.81925,6.44638c-4.6177,1.05232 -9.73507,1.40849 -14.26005,-0.49452c-3.35271,-1.41438 -6.86584,-4.77445 -7.41923,-8.41268z" data-paper-data="{&quot;origPos&quot;:null}" fill="#3be6ff" stroke="none" stroke-width="0.29823" stroke-linecap="round"/><path d="M188.93644,295.3914c4.17396,9.74905 1.33343,22.60944 -2.97446,32.93985c-4.02237,9.57097 -11.20096,19.21479 -20.86391,24.00984c-10.63801,5.27485 -23.66986,6.23224 -34.78546,2.76105c-12.3725,-3.23497 -24.33289,-11.02067 -31.05671,-21.55859c-5.59349,-8.78504 -6.31908,-20.67921 -3.59776,-30.46505c3.08117,-13.14297 9.45323,-27.1749 20.14348,-34.90173c11.32091,-8.12495 27.29926,-15.43158 40.75866,-10.64316c15.69283,5.58907 25.82233,22.70143 32.37616,37.85779z" data-paper-data="{&quot;origPos&quot;:null}" fill="#3be6ff" stroke="none" stroke-width="0.27801" stroke-linecap="round"/><path d="M166.3454,248.78094c1.45485,6.99094 9.504,11.04569 12.09139,17.70401c4.39546,10.3672 18.92706,30.48272 8.56942,32.66536c-24.71776,5.20568 -63.90899,-2.4012 -78.47222,-17.9027c-8.09478,-9.29133 22.22678,-21.01845 33.1562,-31.68295c2.73235,-2.66612 3.12753,-2.56163 3.39539,-4.3881c0.37162,-2.55427 -1.1237,-4.97387 -1.30326,-7.44499c-0.42755,-1.92656 -1.48208,-4.07314 -0.51071,-5.71785c0.74178,-1.24807 3.09809,-1.44749 4.52866,-0.84995c2.41224,1.21348 3.10251,5.92611 5.86135,5.74508c3.96718,-0.43859 5.62734,-6.59724 9.56655,-7.23452c6.07476,-0.97284 14.84067,-0.6152 17.69223,1.83604c1.71168,1.93097 -6.06667,4.37412 -8.40606,6.92324c-2.71764,2.94208 -7.02185,6.24181 -6.16895,10.34733z" data-paper-data="{&quot;origPos&quot;:null}" fill="#3be6ff" stroke="none" stroke-width="0.28005" stroke-linecap="round"/><path d="M125.69785,330.91495c0.10155,4.90764 -2.11421,9.53417 -4.79358,13.43953c-2.90161,4.24313 -6.71572,7.84163 -11.08322,10.47317c-2.93104,1.62043 -7.51048,4.13054 -10.09051,1.86621c-3.90536,-3.4366 -4.38222,-9.43409 -4.3307,-14.21958c0.06108,-5.43086 1.78674,-10.87349 4.6361,-15.30943c2.05387,-2.94355 5.76569,-4.65891 9.36639,-5.7598c3.46898,-1.05894 8.02781,-2.34233 11.20685,-0.48716c3.17904,1.85518 5.00846,6.35881 5.08867,9.99705z" data-paper-data="{&quot;origPos&quot;:null}" fill="#3be6ff" stroke="none" stroke-width="0.29823" stroke-linecap="round"/><path d="M157.95843,331.58092c3.67944,0.10229 6.8732,3.59997 9.26042,6.33011c2.477,2.83538 4.72367,6.25285 4.91426,9.83662c0.078,5.27191 -1.33049,10.80505 -4.146,15.44998c-2.48215,4.0908 -6.05342,8.93295 -11.18477,9.78953c-3.38656,0.56075 -5.9504,-3.98852 -7.58407,-6.9122c-2.32026,-4.54043 -3.66031,-9.60997 -3.88328,-14.74574c-0.21414,-4.73103 0.3466,-9.83074 3.0245,-13.94509c1.98837,-3.04731 5.91949,-5.90624 9.59893,-5.80322z" data-paper-data="{&quot;origPos&quot;:null}" fill="#3be6ff" stroke="none" stroke-width="0.29823" stroke-linecap="round"/><path d="M107.38747,299.74786c-4.84803,-0.77342 -9.00581,-3.77732 -12.37176,-7.10942c-3.65957,-3.60953 -6.52145,-8.00352 -8.33394,-12.76988c-1.07219,-3.17315 -2.7272,-8.12568 -0.03974,-10.26123c4.07682,-3.23202 10.06328,-2.63301 14.76266,-1.73081c5.33299,1.02656 10.38192,3.69269 14.24018,7.28677c2.53072,2.5447 3.55876,6.50305 4.00103,10.2421c0.42387,3.60144 0.87571,8.31628 -1.51593,11.11413c-2.3909,2.79858 -7.14842,3.79719 -10.7425,3.22834z" data-paper-data="{&quot;origPos&quot;:null}" fill="#3be6ff" stroke="none" stroke-width="0.29823" stroke-linecap="round"/><g data-paper-data="{&quot;origPos&quot;:null}" stroke="none" stroke-width="0.20611"><path d="M137.92023,287.20977c0.69026,2.73309 0.36132,5.49709 -0.54971,8.68864c-0.91103,3.19155 -2.12819,5.66046 -4.12024,7.66943c-1.3143,1.32681 -3.45058,1.90154 -5.12326,1.37022c-1.60203,-0.404 -3.0532,-1.98101 -3.49106,-3.82956c-0.65053,-2.75149 -0.36132,-5.49709 0.54971,-8.68864c0.91177,-3.19155 2.12966,-5.66487 4.12098,-7.66943c1.27309,-1.28192 3.33284,-1.63441 4.89807,-1.10089c1.63441,0.37972 3.25042,1.71536 3.7155,3.56023z" fill="#000000" stroke-linecap="round"/><path d="M134.56678,287.07953c0.19648,0.41136 0.24799,0.91692 0.10523,1.41659c-0.14276,0.49967 -0.45331,0.90146 -0.83744,1.14725c-0.38487,0.24432 -0.84554,0.33262 -1.28854,0.20605c-0.44374,-0.12657 -0.78814,-0.44521 -0.98683,-0.8551c-0.19648,-0.41136 -0.24726,-0.91692 -0.1045,-1.41659c0.14276,-0.49967 0.45257,-0.9022 0.83671,-1.14725c0.38487,-0.24432 0.84554,-0.33262 1.28928,-0.20605c0.44374,0.12657 0.78814,0.44521 0.98609,0.8551z" fill="#ffffff" stroke-linecap="butt"/></g><g data-paper-data="{&quot;origPos&quot;:null}" stroke="none" stroke-width="0.20611"><path d="M164.57264,294.81814c0.68953,2.73309 0.36132,5.49709 -0.55044,8.68937c-0.91103,3.19155 -2.12819,5.66046 -4.12024,7.66943c-1.3143,1.32681 -3.45058,1.90154 -5.12326,1.37022c-1.60203,-0.404 -3.0532,-1.98101 -3.49106,-3.82956c-0.65053,-2.75149 -0.36132,-5.49709 0.55044,-8.68864c0.91103,-3.19228 2.12966,-5.66561 4.12024,-7.66943c1.27309,-1.28192 3.33284,-1.63514 4.89807,-1.10089c1.63441,0.37972 3.25042,1.71536 3.71624,3.55949z" fill="#000000" stroke-linecap="round"/><path d="M161.21841,294.68862c0.19648,0.41136 0.24799,0.91618 0.10523,1.41659c-0.14276,0.49967 -0.45257,0.90146 -0.83671,1.14725c-0.38561,0.24358 -0.84554,0.33262 -1.28928,0.20605c-0.44374,-0.12657 -0.78814,-0.44521 -0.98609,-0.85584c-0.19648,-0.41136 -0.24799,-0.91618 -0.10523,-1.41585c0.14276,-0.5004 0.45257,-0.9022 0.83671,-1.14799c0.38487,-0.24358 0.84554,-0.33262 1.28928,-0.20605c0.44374,0.12657 0.78814,0.44521 0.98609,0.85584z" fill="#ffffff" stroke-linecap="butt"/></g><path d="M149.80115,323.99759c0,0 -8.55838,6.3154 -13.1621,4.81492c-4.79284,-1.60203 -9.74022,-11.67487 -9.74022,-11.67487" data-paper-data="{&quot;origPos&quot;:null}" fill="none" stroke="#000000" stroke-width="4.5" stroke-linecap="round"/><g data-paper-data="{&quot;origPos&quot;:null,&quot;origRot&quot;:0}" stroke="none"><path d="M260.73879,216.77163c5.04378,3.54919 8.63293,8.61726 9.70924,13.6617c1.30767,6.13098 -1.03679,12.51364 -4.15733,17.51577c-1.52991,2.45272 -5.49334,3.66075 -8.6581,2.8445c-5.23806,-1.35131 -9.56515,-5.50776 -14.1401,-8.58208c-4.93134,-3.31415 -10.59098,-5.85856 -14.17954,-10.38817c-2.01619,-2.54684 -2.91508,-6.90639 -1.09147,-9.24916c3.87865,-4.9593 9.61711,-9.25733 16.37963,-10.32871c5.07881,-0.8044 11.09389,0.97704 16.13767,4.52623z" data-paper-data="{&quot;origPos&quot;:null}" fill="#2dc323" stroke-width="0.93172" stroke-linecap="round"/><path d="M262.4983,225.99967c0.4341,2.60541 -0.12127,5.38935 -1.77047,7.73301c-1.6492,2.34366 -4.08212,3.80638 -6.68106,4.27757c-2.59916,0.46994 -5.36308,-0.05181 -7.67466,-1.67841c-2.3115,-1.62653 -3.73596,-4.05202 -4.17116,-6.65722c-0.4341,-2.60541 0.12127,-5.38935 1.77047,-7.73301c1.6492,-2.34366 4.08212,-3.80638 6.68106,-4.27757c2.59916,-0.46994 5.36308,0.05181 7.67466,1.67841c2.3115,1.62653 3.73596,4.05202 4.17116,6.65722z" data-paper-data="{&quot;origPos&quot;:null}" fill="#ffffff" stroke-width="1" stroke-linecap="butt"/><path d="M240.09223,213.52562c0.42409,0.58753 -0.09522,1.66973 -0.3416,2.4444c-0.65847,2.06203 -1.04459,3.99462 -2.46972,6.01986c-1.42512,2.02517 -3.16771,3.5422 -4.83243,4.3572c-1.66473,0.815 -2.95415,0.4784 -4.3636,0.14556c-0.5422,-0.13069 -0.89837,-0.86702 -0.82677,-1.43204c0.03635,-1.03937 0.49555,-2.07028 1.11973,-2.932c1.11804,-1.53985 2.4915,-2.91059 3.95246,-4.12723c1.79395,-1.49466 3.82508,-2.85422 5.88483,-4.04283c0.54029,-0.31489 1.53381,-0.85083 1.87703,-0.43285z" data-paper-data="{&quot;origPos&quot;:null}" fill="#ffffff" stroke-width="1" stroke-linecap="round"/><path d="M270.73495,234.18488c0.50865,0.16661 0.45139,1.14769 0.35139,1.73523c-0.39363,2.34403 -1.01729,4.71109 -1.81845,6.90433c-0.65192,1.786 -1.47847,3.54154 -2.5503,5.11391c-0.60034,0.87843 -1.41563,1.65877 -2.3817,2.04393c-0.50769,0.25815 -1.32099,0.17161 -1.62712,-0.29465c-0.78924,-1.21429 -1.54139,-2.31437 -1.33637,-4.15652c0.20509,-1.84222 1.04459,-3.99462 2.46972,-6.01986c1.42512,-2.02517 3.1148,-3.03951 4.83243,-4.3572c0.59828,-0.45691 1.36345,-1.18537 2.06041,-0.96917z" data-paper-data="{&quot;origPos&quot;:null}" fill="#ffffff" stroke-width="1" stroke-linecap="round"/><path d="M245.73361,237.80067c3.56008,2.50511 6.06277,4.82287 7.94186,8.09706c0.88196,1.53617 0.68482,3.8044 -0.31651,5.23386c-1.17073,1.65722 -3.35359,3.11222 -5.37971,2.86114c-3.74611,-0.46346 -6.74302,-2.23629 -10.3031,-4.74148c-3.56008,-2.50511 -6.12657,-4.78813 -7.94186,-8.09706c-0.96188,-1.75171 -0.764,-4.2538 0.40386,-5.8133c1.06535,-1.61417 3.35705,-2.60446 5.29244,-2.2817c3.72264,0.6191 6.74302,2.23629 10.3031,4.74148z" data-paper-data="{&quot;origPos&quot;:null}" fill="#ffdea8" stroke-width="1" stroke-linecap="butt"/><g data-paper-data="{&quot;origPos&quot;:null}" stroke-width="2.7956"><path d="M247.02247,242.2737c0.41997,0.2725 0.65707,0.86673 0.5684,1.48009c-0.13261,0.93046 -0.54794,1.76437 -1.19597,2.68533c-0.64802,0.92096 -1.34866,1.60019 -2.12377,2.03245c-0.61035,0.34351 -1.24063,0.39907 -1.6453,0.05033c-0.50261,-0.28965 -0.70741,-0.92258 -0.59379,-1.62587c0.13592,-0.87688 0.54794,-1.76437 1.19597,-2.68533c0.64802,-0.92089 1.29892,-1.584 2.12385,-2.03238c0.53109,-0.28928 1.20046,-0.25844 1.67069,0.09544z" data-paper-data="{&quot;origPos&quot;:null}" fill="url(#color-13)" stroke-linecap="round"/><path d="M241.05229,238.07259c0.41997,0.2725 0.65707,0.86673 0.5684,1.48009c-0.13261,0.93046 -0.54794,1.76437 -1.19597,2.68533c-0.64802,0.92096 -1.34866,1.60019 -2.12377,2.03245c-0.61035,0.34351 -1.24063,0.39907 -1.6453,0.05033c-0.50261,-0.28965 -0.70741,-0.92258 -0.59379,-1.62587c0.13592,-0.87688 0.54794,-1.76437 1.19597,-2.68533c0.64802,-0.92089 1.29892,-1.584 2.12385,-2.03238c0.53109,-0.28928 1.20046,-0.25844 1.67069,0.09544z" data-paper-data="{&quot;origPos&quot;:null}" fill="url(#color-14)" stroke-linecap="round"/><path d="M240.6498,238.4938c0.24814,0.17463 0.40143,0.43344 0.44955,0.7105c0.0482,0.27706 -0.00854,0.57237 -0.18316,0.82059c-0.1747,0.24822 -0.43351,0.40135 -0.71057,0.44955c-0.27699,0.04827 -0.5723,-0.00861 -0.82052,-0.18324c-0.24822,-0.17463 -0.40143,-0.43344 -0.44963,-0.7105c-0.0482,-0.27706 0.00861,-0.57237 0.18331,-0.82059c0.17463,-0.24814 0.43344,-0.40135 0.7105,-0.44955c0.27706,-0.0482 0.57237,0.00861 0.82059,0.18331z" data-paper-data="{&quot;origPos&quot;:null}" fill="#ffffff" stroke-linecap="butt"/><path d="M246.55202,242.92173c0.24814,0.17463 0.40143,0.43344 0.44955,0.7105c0.0482,0.27706 -0.00854,0.57237 -0.18316,0.82059c-0.1747,0.24822 -0.43351,0.40135 -0.71057,0.44955c-0.27699,0.04827 -0.5723,-0.00861 -0.82052,-0.18324c-0.24822,-0.17463 -0.40143,-0.43344 -0.44963,-0.7105c-0.0482,-0.27706 0.00861,-0.57237 0.18331,-0.82059c0.17463,-0.24814 0.43344,-0.40135 0.7105,-0.44955c0.27706,-0.0482 0.57237,0.00861 0.82059,0.18331z" data-paper-data="{&quot;origPos&quot;:null}" fill="#ffffff" stroke-linecap="butt"/></g></g><g data-paper-data="{&quot;origPos&quot;:null}" stroke="none"><path d="M98.28909,170.28775c6.15394,0 11.99307,2.07476 15.76803,5.57318c4.5876,4.25219 6.33953,10.80697 6.66546,16.68076c0.15998,2.88005 -2.38067,6.14173 -5.43196,7.29295c-5.0504,1.90514 -10.96827,0.99801 -16.46691,1.11634c-5.92729,0.12724 -12.00676,1.30076 -17.53623,-0.3349c-3.1078,-0.9206 -6.34468,-3.96202 -6.20185,-6.92096c0.31739,-6.27411 2.53205,-13.07667 7.43535,-17.83419c3.68261,-3.57289 9.61409,-5.57318 15.76803,-5.57318z" data-paper-data="{&quot;origPos&quot;:null}" fill="#ff0000" stroke-width="0.93172" stroke-linecap="round"/><path d="M98.11963,196.06438c4.34373,0 7.7169,0.45426 11.13046,2.0471c1.60181,0.74715 2.74339,2.71131 2.74715,4.45279c-0.00375,2.02465 -0.94959,4.46545 -2.74715,5.42401c-3.3232,1.7729 -6.78681,2.0471 -11.13046,2.0471c-4.34373,0 -7.74905,-0.38929 -11.13046,-2.0471c-1.79079,-0.87711 -3.06615,-3.03245 -3.00861,-4.97571c-0.05755,-1.92898 1.24395,-4.05305 3.00861,-4.90102c3.3934,-1.63242 6.78681,-2.0471 11.13046,-2.0471z" data-paper-data="{&quot;origPos&quot;:null}" fill="#ffdea8" stroke-width="1" stroke-linecap="butt"/><g data-paper-data="{&quot;origPos&quot;:null}" stroke-width="2.7956"><path d="M103.05375,199.85605c0.42608,0.83538 0.56597,1.75443 0.56597,2.87806c0,1.12363 -0.18169,2.08021 -0.56597,2.87806c-0.30076,0.6308 -0.78328,1.03804 -1.31371,0.9858c-0.57642,0.05225 -1.107,-0.34668 -1.41813,-0.9858c-0.39274,-0.79366 -0.56612,-1.75443 -0.56612,-2.87806c0,-1.12363 0.15042,-2.03849 0.56612,-2.87806c0.26727,-0.54103 0.83119,-0.90021 1.41813,-0.88145c0.49915,-0.01877 1.03385,0.32997 1.31371,0.88145z" data-paper-data="{&quot;origPos&quot;:null}" fill="url(#color-15)" stroke-linecap="round"/><path d="M95.76941,199.85605c0.42608,0.83538 0.56597,1.75443 0.56597,2.87806c0,1.12363 -0.18169,2.08021 -0.56597,2.87806c-0.30076,0.6308 -0.78328,1.03804 -1.31371,0.9858c-0.57642,0.05225 -1.107,-0.34668 -1.41813,-0.9858c-0.39274,-0.79366 -0.56612,-1.75443 -0.56612,-2.87806c0,-1.12363 0.15042,-2.03849 0.56612,-2.87806c0.26727,-0.54103 0.83119,-0.90021 1.41813,-0.88145c0.49915,-0.01877 1.03385,0.32997 1.31371,0.88145z" data-paper-data="{&quot;origPos&quot;:null}" fill="url(#color-16)" stroke-linecap="round"/><path d="M95.14398,199.87105c0.19847,0.1984 0.32173,0.472 0.32173,0.77482c0,0.30289 -0.12333,0.5765 -0.32173,0.77489c-0.19832,0.19847 -0.472,0.32166 -0.77482,0.32166c-0.30289,0 -0.5765,-0.12326 -0.77489,-0.32166c-0.19847,-0.1984 -0.32166,-0.472 -0.32166,-0.77489c0,-0.30282 0.12326,-0.57642 0.32166,-0.77482c0.1984,-0.19847 0.472,-0.32166 0.77489,-0.32166c0.30282,0 0.5765,0.12326 0.77482,0.32166z" data-paper-data="{&quot;origPos&quot;:null}" fill="#ffffff" stroke-linecap="butt"/><path d="M102.50301,200.09521c0.19847,0.1984 0.32173,0.472 0.32173,0.77482c0,0.30289 -0.12333,0.5765 -0.32173,0.77489c-0.19832,0.19847 -0.472,0.32166 -0.77482,0.32166c-0.30289,0 -0.5765,-0.12326 -0.77489,-0.32166c-0.19847,-0.1984 -0.32166,-0.472 -0.32166,-0.77489c0,-0.30282 0.12326,-0.57642 0.32166,-0.77482c0.1984,-0.19847 0.472,-0.32166 0.77489,-0.32166c0.30282,0 0.5765,0.12326 0.77482,0.32166z" data-paper-data="{&quot;origPos&quot;:null}" fill="#ffffff" stroke-linecap="butt"/></g><path d="M105.41036,193.79718l-7.5277,-5.43196l-7.27109,5.43196l2.13857,-7.57053l-5.30362,-5.34638l6.71506,0.08551l4.06328,-7.35668l3.50725,6.92891l7.1,0.34219l-5.38913,5.34638z" data-paper-data="{&quot;origPos&quot;:null}" fill="#ffe428" stroke-width="1" stroke-linecap="round"/><path d="M83.08055,194.75427l-5.22422,-4.87055l-2.40437,2.53109l-0.32651,-2.68452l0.86084,-4.90882l1.48414,-2.6846l1.92943,-2.79954l1.30606,3.75833l4.74928,0.07675l-3.74008,4.7938z" data-paper-data="{&quot;origPos&quot;:null}" fill="#ffe428" stroke-width="0.80175" stroke-linecap="round"/><path d="M114.2642,187.11074l-3.74008,-4.7938l4.74928,-0.07675l1.30606,-3.75833l1.92943,2.79954l1.48414,2.6846l0.86084,4.90882l-0.32651,2.68452l-2.40437,-2.53109l-5.22422,4.87055z" data-paper-data="{&quot;origPos&quot;:null}" fill="#ffe428" stroke-width="0.80175" stroke-linecap="round"/></g></g><path d="M-4.53428,0h649.06856v360h-649.06856z" fill="url(#color-17)" stroke="none" stroke-width="1" stroke-linecap="butt"/><path d="M449.84462,250.96832c10.39671,0.12384 16.59459,0.22249 18.5696,0.29709l0.09978,0.19731c-0.47033,4.79058 -0.71689,7.28517 -0.7902,7.50654l-0.19843,0.09978l-9.77863,-1.18594c-0.27174,1.58039 -0.46905,2.59324 -0.59289,3.06229c0.22249,0 0.37039,0.02406 0.49439,0.09865c3.11154,-0.9142 4.79058,-1.38324 5.03714,-1.38324c4.96383,3.58075 7.72903,5.60612 8.29802,6.12458c-0.93938,7.18668 -1.45784,10.76726 -1.58055,10.76726c-6.74153,2.6919 -10.15015,4.04979 -10.27287,4.04979c-7.43307,-2.88904 -11.26165,-4.44553 -11.4588,-4.64284c0.81538,-1.58039 2.00019,-4.04963 3.55652,-7.40789h0.09865c0.1479,0 2.81445,1.40731 8.00093,4.2471h0.09849l2.9638,-2.96364c-0.14806,-0.2719 -1.13669,-1.33271 -2.9638,-3.16094h-0.09849c-2.5679,1.70439 -3.92708,2.5679 -4.04979,2.5679c-4.46943,-3.4075 -6.74153,-5.1852 -6.81612,-5.3331c0.66636,-7.73032 1.08728,-12.0265 1.28459,-12.9407z" data-paper-data="{&quot;origPos&quot;:null}" fill="url(#color-18)" stroke="#000000" stroke-width="1" stroke-linecap="butt"/><path d="M312.15009,251.1478l11.06322,1.97485c3.18485,6.49497 4.83999,9.97706 4.93848,10.47146c-7.21058,6.09923 -10.86591,9.21077 -10.96441,9.38402l9.87841,-1.08728l0.09865,0.19715c-0.76629,5.92743 -1.21,8.89107 -1.38324,8.89107c-11.13781,-0.2719 -17.854,-0.39574 -20.15015,-0.39574c-0.19843,0 -0.59289,-2.17344 -1.18594,-6.51904c1.11134,-0.86479 2.14809,-1.82711 3.06229,-2.86514l9.97706,-9.08693c-0.84089,-1.16059 -1.43249,-1.92688 -1.77898,-2.27193c-1.70311,1.95079 -3.21019,3.58058 -4.5429,4.83983c-4.22288,-3.23538 -6.69212,-5.16098 -7.40901,-5.82733v-0.19859c0.34633,-0.22121 2.93829,-2.54255 7.80362,-7.01215c0,-0.05053 0.19715,-0.22249 0.59289,-0.49423z" data-paper-data="{&quot;origPos&quot;:null}" fill="url(#color-19)" stroke="#000000" stroke-width="1" stroke-linecap="butt"/><path d="M175.37588,250.70154c5.60628,0.61695 8.39667,1.01269 8.39667,1.18594c0.07459,12.32247 0.09865,21.73055 0.09865,28.24958v0.19843l-0.09865,0.19731l-8.69247,-0.2958c0,-0.07459 -0.02406,-0.09994 -0.09865,-0.09994c0.39446,-11.01382 0.59305,-16.86537 0.59305,-17.58226l-2.96364,2.86514c-0.17325,-0.09865 -2.4694,-2.54399 -6.91477,-7.30923c3.48193,-2.76649 6.71747,-5.23573 9.67982,-7.40917z" data-paper-data="{&quot;origPos&quot;:null}" fill="url(#color-20)" stroke="#000000" stroke-width="1" stroke-linecap="butt"/><path d="M197.46993,251.00796c6.69212,1.72974 10.09962,2.71708 10.22346,2.98898c0,0.1479 1.6298,3.16094 4.86533,8.98828c-2.05072,6.66822 -3.13688,10.14903 -3.33419,10.44611c0,0 -3.72849,5.53169 -4.02573,5.16114l-7.87693,1.6298c-5.55688,-3.03694 -8.49517,-4.74134 -8.84038,-5.16114c-0.19843,-2.12403 -0.51958,-8.05018 -0.96344,-17.80475c5.23445,-3.43268 8.56864,-5.53153 9.95188,-6.24842zM199.19822,259.13274l-4.29635,4.34688c0.37055,4.51884 0.54252,7.28405 0.54252,8.27267c0.09865,0 1.03803,0.64229 2.76633,1.9017c2.29616,-0.49439 3.45675,-0.8396 3.45675,-1.0621l2.64265,-8.84038c-0.71576,-2.07495 -1.30865,-3.1117 -1.80305,-3.1117z" data-paper-data="{&quot;origPos&quot;:null}" fill="url(#color-21)" stroke="#000000" stroke-width="1" stroke-linecap="butt"/><path d="M225.94328,250.80745c6.69212,1.72974 10.09962,2.71708 10.22346,2.98898c0,0.1479 1.6298,3.16094 4.86533,8.98828c-2.05072,6.66822 -3.13688,10.14903 -3.33419,10.44611c0,0 -3.72849,5.53169 -4.02573,5.16114l-7.87693,1.6298c-5.55688,-3.03694 -8.49517,-4.74134 -8.84038,-5.16114c-0.19843,-2.12403 -0.51958,-8.05018 -0.96344,-17.80475c5.23445,-3.43268 8.56864,-5.53153 9.95188,-6.24842zM227.67156,258.93222l-4.29635,4.34688c0.37055,4.51884 0.54252,7.28405 0.54252,8.27267c0.09865,0 1.03803,0.64229 2.76633,1.9017c2.29616,-0.49439 3.45675,-0.8396 3.45675,-1.0621l2.64265,-8.84038c-0.71576,-2.07495 -1.30865,-3.1117 -1.80305,-3.1117z" data-paper-data="{&quot;origPos&quot;:null}" fill="url(#color-22)" stroke="#000000" stroke-width="1" stroke-linecap="butt"/><path d="M485.478,250.44711c6.69212,1.72974 10.09962,2.71708 10.22346,2.98898c0,0.1479 1.6298,3.16094 4.86533,8.98828c-2.05072,6.66822 -3.13688,10.14903 -3.33419,10.44611c0,0 -3.72849,5.53169 -4.02573,5.16114l-7.87693,1.6298c-5.55688,-3.03694 -8.49517,-4.74134 -8.84038,-5.16114c-0.19843,-2.12403 -0.51958,-8.05018 -0.96344,-17.80475c5.23445,-3.43268 8.56864,-5.53153 9.95188,-6.24842zM487.20629,258.57187l-4.29635,4.34688c0.37055,4.51884 0.54252,7.28405 0.54252,8.27267c0.09865,0 1.03803,0.64229 2.76633,1.9017c2.29616,-0.49439 3.45675,-0.8396 3.45675,-1.0621l2.64265,-8.84038c-0.71576,-2.07495 -1.30865,-3.1117 -1.80305,-3.1117z" data-paper-data="{&quot;origPos&quot;:null}" fill="url(#color-23)" stroke="#000000" stroke-width="1" stroke-linecap="butt"/><path d="M341.53935,250.90302c6.69212,1.72974 10.09962,2.71708 10.22346,2.98898c0,0.1479 1.6298,3.16094 4.86533,8.98828c-2.05072,6.66822 -3.13688,10.14903 -3.33419,10.44611c0,0 -3.72849,5.53169 -4.02573,5.16114l-7.87693,1.6298c-5.55688,-3.03694 -8.49517,-4.74134 -8.84038,-5.16114c-0.19843,-2.12403 -0.51958,-8.05018 -0.96344,-17.80475c5.23445,-3.43268 8.56864,-5.53153 9.95188,-6.24842zM343.26764,259.02778l-4.29635,4.34688c0.37055,4.51884 0.54252,7.28405 0.54252,8.27267c0.09865,0 1.03803,0.64229 2.76633,1.9017c2.29616,-0.49439 3.45675,-0.8396 3.45675,-1.0621l2.64265,-8.84038c-0.71576,-2.07495 -1.30865,-3.1117 -1.80305,-3.1117z" data-paper-data="{&quot;origPos&quot;:null}" fill="url(#color-24)" stroke="#000000" stroke-width="1" stroke-linecap="butt"/><path d="M370.01271,250.70251c6.69212,1.72974 10.09962,2.71708 10.22346,2.98898c0,0.1479 1.6298,3.16094 4.86533,8.98828c-2.05072,6.66822 -3.13688,10.14903 -3.33419,10.44611c0,0 -3.72849,5.53169 -4.02573,5.16114l-7.87693,1.6298c-5.55688,-3.03694 -8.49517,-4.74134 -8.84038,-5.16114c-0.19843,-2.12403 -0.51958,-8.05018 -0.96344,-17.80475c5.23445,-3.43268 8.56864,-5.53153 9.95188,-6.24842zM371.741,258.82728l-4.29635,4.34688c0.37055,4.51884 0.54252,7.28405 0.54252,8.27267c0.09865,0 1.03803,0.64229 2.76633,1.9017c2.29616,-0.49439 3.45675,-0.8396 3.45675,-1.0621l2.64265,-8.84038c-0.71576,-2.07495 -1.30865,-3.1117 -1.80305,-3.1117z" data-paper-data="{&quot;origPos&quot;:null}" fill="url(#color-25)" stroke="#000000" stroke-width="1" stroke-linecap="butt"/><path d="M112.34283,19.079c0.1197,3.2208 0.2871,10.449 0.5008,21.6614h0.1441l14.2415,-5.0102c0,0.1197 0.0476,0.1674 0.1673,0.1674l-0.4775,11.9757c0,0.2138 -7.3956,0.9063 -22.1622,2.0984c-0.3335,-1.6697 -1.9078,-11.5935 -4.6987,-29.7715c1.2641,-0.2137 5.2959,-0.6437 12.1418,-1.2873c0,0.1184 0.0477,0.1661 0.1429,0.1661zM265.51774,23.27811c0,0.2626 -1.192,2.5527 -3.5774,6.8948h-0.1673c-0.1906,0 -2.9338,-1.2886 -8.2298,-3.8889l-2.6956,3.6019c4.5558,2.1948 10.1143,4.9857 16.6268,8.397c-2.9582,5.2728 -5.0578,8.755 -6.2975,10.4967l-13.4781,1.1921c-6.1546,-4.1503 -9.3998,-6.2975 -9.7577,-6.4404v-0.1674c0,-0.4531 1.241,-2.4806 3.746,-6.1301h0.3103c0.9771,0.596 4.0794,2.2901 9.2789,5.081l3.1488,-3.5787c-9.566,-4.866 -14.862,-7.6093 -15.8867,-8.2542v-0.1429c3.029,-5.9164 4.6987,-8.921 4.9613,-8.9931c7.8963,-1.5988 12.3092,-2.4098 13.1923,-2.4098c5.7246,2.8874 8.6596,4.342 8.8257,4.342zM282.02614,32.00871c6.1314,-1.8847 9.3986,-2.8141 9.8041,-2.8141l6.0838,4.1503c-0.9784,9.0651 -1.622,14.3611 -1.9323,15.8878l-8.4447,0.2858c0,-0.0952 -0.0476,-0.1429 -0.1673,-0.1429l0.1673,-0.596c0,-1.2886 0.1906,-5.2007 0.5729,-11.7364c-2.3146,-0.0965 -4.0563,-0.1441 -5.1775,-0.1441h-0.5961c0.6913,7.2758 1.026,11.2368 1.026,11.8805l-8.016,1.1921c-0.3102,-1.0248 -2.0752,-10.5199 -5.3436,-28.5061c0,-0.502 1.2409,-0.9075 3.7216,-1.1933c3.1255,-0.8831 5.4633,-1.3362 6.9656,-1.3362c0.0953,0.1429 0.5496,4.5094 1.3362,13.0726zM142.87774,26.45132l-3.2196,17.08h0.1661l8.2065,-2.4098v-9.6613c0.0245,-0.2149 0.1429,-0.3334 0.3103,-0.3334c6.179,0.4287 9.6135,0.6437 10.3049,0.6437c0,0.1197 0.0488,0.1673 0.1673,0.1673c0,2.7188 -0.8587,8.3495 -2.5759,16.9126c0,0.502 -2.4575,0.8599 -7.3956,1.1213c-0.2626,-0.309 -0.4763,-0.9539 -0.6436,-1.9323c-6.322,1.2886 -9.9239,1.9323 -10.8069,1.9323c-5.0334,-3.7448 -7.5617,-5.6771 -7.5617,-5.7968c0.8587,-11.2832 1.4071,-17.1275 1.622,-17.5575h0.1429c4.0319,-0.1185 7.729,-0.2614 11.1172,-0.4763zM197.76954,30.67372c-0.7401,9.4706 -1.1933,14.6469 -1.4082,15.53c-4.6755,1.1689 -7.2991,1.7405 -7.8475,1.7405c0,-2.0752 -0.1673,-6.1546 -0.4776,-12.2372c-1.7649,0.1661 -2.6479,0.3335 -2.6479,0.4532c0,0.596 0.0952,4.055 0.3102,10.3525c0.0953,0 0.1429,0.0476 0.1429,0.1673c0,0.1906 -2.4574,0.7158 -7.3711,1.5744c-0.215,-0.2626 -0.8354,-4.1271 -1.8846,-11.6179c-1.9799,0.502 -2.9814,0.8831 -2.9814,1.098l0.9539,9.7333c-0.1906,0.2138 -2.8153,1.0492 -7.8487,2.5039c-2.9338,-10.3525 -4.7476,-17.2949 -5.4865,-20.8492c5.5109,-1.3594 8.612,-2.0519 9.2557,-2.0519c0.739,2.8873 1.0968,4.557 1.0968,5.0101h0.1674c2.6956,-2.4806 4.557,-4.1503 5.6306,-5.0101h0.1661l5.0101,3.6031h0.1674c3.1243,-3.0303 4.7939,-4.5326 5.0089,-4.5326c3.8889,1.5976 7.2282,3.1243 10.0435,4.5326zM217.95064,28.54972c3.7216,3.1976 5.5818,4.9149 5.5818,5.1298c-1.5024,4.7231 -2.361,7.5861 -2.576,8.6108c1.5036,3.3638 2.3622,5.3681 2.576,6.0117c0,0.1918 -2.4563,0.6926 -7.3944,1.5268c-0.072,-0.2626 -0.5252,-0.8819 -1.3594,-1.8126c-6.7995,1.3118 -10.4734,1.9555 -10.9974,1.9555l-3.6263,-9.8041l7.9916,-4.2224c1.2885,0.215 3.2916,0.3102 6.0349,0.3102c0,-0.3578 0.0476,-1.407 0.1429,-3.1731c-0.4532,0 -4.5802,0.3102 -12.3569,0.9074l-0.1429,-0.3102c1.0736,-5.0333 1.7417,-7.5384 1.9567,-7.5384c9.4463,1.3118 14.1694,2.0983 14.1694,2.4086zM309.77004,26.16432c6.0349,1.622 9.2557,2.6003 9.6136,2.9582c3.3161,4.6999 5.2007,7.4187 5.6062,8.1345c-2.1472,6.7995 -3.3881,10.2108 -3.6971,10.2108c-7.1574,1.6697 -10.9022,2.5039 -11.2369,2.5039c-5.9152,-3.459 -9.0651,-5.3668 -9.4462,-5.7723c-0.215,-6.4172 -0.3102,-9.9715 -0.3102,-10.6396c-0.0953,-0.1905 -0.143,-0.3334 -0.143,-0.4299c6.107,-4.6511 9.2558,-6.9656 9.4707,-6.9656zM340.16204,29.93351c7.0364,-1.5976 10.7348,-2.4086 11.1403,-2.4086c4.7952,6.8936 7.1806,10.4722 7.1806,10.7825l-5.4865,11.6411l-11.8085,-1.8846v0.3578c0.9295,7.0853 1.3826,10.8301 1.3826,11.2833c-0.1184,0 -0.1661,0.0476 -0.1661,0.1673c-1.1456,-0.1197 -2.0043,-0.1673 -2.5771,-0.1673h-2.0507c-1.1933,0 -3.0303,-0.0477 -5.4877,-0.1674c-0.2138,-0.6669 -1.9323,-10.8301 -5.1287,-30.4627c0.5484,-0.215 4.5326,-1.1921 11.9758,-2.9106c0.5008,2.0275 0.8354,3.2929 1.026,3.7692zM309.31694,34.89602c-0.0953,0.6437 -0.2382,2.9582 -0.4299,6.9412l5.3204,1.1933c1.2641,-3.9842 1.9078,-6.107 1.9078,-6.3696c-4.2224,-1.2641 -6.4881,-1.9078 -6.7983,-1.9078zM339.99464,35.92202c0.3103,3.6495 0.5961,5.4865 0.8587,5.4865c3.2684,1.1212 5.2483,1.6928 5.9885,1.6928l1.8833,-8.2053h-0.1661c-1.8614,0.1185 -4.7231,0.4532 -8.5644,1.026zM210.26934,45.74931h0.1429c2.0043,-1.3118 3.0058,-2.1704 3.0058,-2.5759l0.3102,-2.5527c-0.381,0 -2.0519,-0.1429 -4.9857,-0.4531c0,0.1673 0.5008,2.0275 1.5268,5.5817z" data-paper-data="{&quot;origPos&quot;:null}" fill="url(#color-26)" stroke="#31b4d3" stroke-width="2" stroke-linecap="butt"/><g data-paper-data="{&quot;origPos&quot;:null}" stroke="none" stroke-linecap="butt"><path d="M425.62153,250.83217c4.29037,0 8.17765,1.7428 10.99268,4.55783c2.81503,2.81491 4.55771,6.70218 4.55771,10.99256c0,4.29025 -1.74266,8.17766 -4.55771,10.99257c-2.81503,2.81503 -6.70231,4.55783 -10.99268,4.55783c-4.29025,0 -8.17753,-1.7428 -10.99257,-4.55783c-2.81503,-2.81491 -4.55783,-6.70232 -4.55783,-10.99257c0,-4.29037 1.7428,-8.17765 4.55783,-10.99256c2.81503,-2.81503 6.70232,-4.55783 10.99257,-4.55783z" data-paper-data="{&quot;origPos&quot;:null}" fill="url(#color-27)" stroke-width="0.48028"/><path d="M422.36188,254.39758h6.13433v23.52496h-6.13433z" data-paper-data="{&quot;origPos&quot;:null}" fill="url(#color-28)" stroke-width="0.59798"/></g><g data-paper-data="{&quot;origPos&quot;:null}" stroke="none" stroke-linecap="butt"><path d="M281.62153,250.83217c4.29037,0 8.17765,1.7428 10.99268,4.55783c2.81504,2.81491 4.5577,6.70218 4.5577,10.99256c0,4.29025 -1.74266,8.17766 -4.5577,10.99257c-2.81504,2.81504 -6.70231,4.55783 -10.99268,4.55783c-4.29025,0 -8.17753,-1.74279 -10.99257,-4.55783c-2.81504,-2.81491 -4.55783,-6.70232 -4.55783,-10.99257c0,-4.29037 1.74279,-8.17765 4.55783,-10.99256c2.81504,-2.81504 6.70232,-4.55783 10.99257,-4.55783z" data-paper-data="{&quot;origPos&quot;:null}" fill="url(#color-29)" stroke-width="0.48028"/><path d="M278.36188,254.39758h6.13433v23.52496h-6.13433z" data-paper-data="{&quot;origPos&quot;:null}" fill="url(#color-30)" stroke-width="0.59798"/></g><g data-paper-data="{&quot;origPos&quot;:null}" stroke="none" stroke-linecap="butt"><path d="M145.62153,250.83217c4.29037,0 8.17765,1.7428 10.99268,4.55783c2.81504,2.81491 4.5577,6.70218 4.5577,10.99256c0,4.29025 -1.74266,8.17766 -4.5577,10.99257c-2.81503,2.81504 -6.70231,4.55783 -10.99268,4.55783c-4.29024,0 -8.17753,-1.74279 -10.99257,-4.55783c-2.81503,-2.81491 -4.55783,-6.70232 -4.55783,-10.99257c0,-4.29037 1.7428,-8.17765 4.55783,-10.99256c2.81504,-2.81504 6.70233,-4.55783 10.99257,-4.55783z" data-paper-data="{&quot;origPos&quot;:null}" fill="url(#color-31)" stroke-width="0.48028"/><path d="M142.36188,254.39758h6.13433v23.52496h-6.13433z" data-paper-data="{&quot;origPos&quot;:null}" fill="url(#color-32)" stroke-width="0.59798"/></g><g fill="#ffffff" stroke-linecap="butt"><g data-paper-data="{&quot;origPos&quot;:null}" stroke="#2ca5c0" stroke-width="3.5"><g data-paper-data="{&quot;origPos&quot;:null}"><path d="M217.66735,297.30936h0.41127c1.24103,0 2.05997,0.05055 2.45681,0.15164c0.57001,0.1443 1.07147,0.42209 1.50438,0.83337c0.32469,0.30304 0.58083,0.73236 0.76843,1.28793c0.18759,0.54836 0.2814,1.19052 0.2814,1.92648v1.11477h-1.07147v-0.46539c0,-0.49064 -0.10462,-0.90552 -0.31387,-1.24464c-0.20203,-0.34634 -0.50507,-0.6097 -0.90913,-0.79008c-0.52672,-0.23088 -1.11115,-0.34633 -1.75331,-0.34633h-0.30304v9.03715c0,0.87304 -0.11545,1.55489 -0.34634,2.04552c-0.23089,0.48344 -0.62773,0.87306 -1.19052,1.16889c-0.56279,0.2886 -1.17609,0.43291 -1.8399,0.43291c-0.78647,0 -1.41059,-0.22006 -1.87237,-0.66019c-0.45456,-0.44735 -0.68185,-1.0318 -0.68185,-1.75332c0,-0.7576 0.27418,-1.39255 0.82254,-1.90485c0.54836,-0.5195 1.26629,-0.77925 2.15377,-0.77925c0.56279,0 1.19053,0.16596 1.88319,0.49788z"/><path d="M228.99901,297.96957c0,0.05054 0.02164,0.07581 0.06494,0.07581c0.0505,1.46472 0.12627,4.74046 0.22728,9.82723h0.06495l6.46129,-2.27281c0,0.05054 0.02525,0.07582 0.07575,0.07582l-0.21645,5.43312c0,0.09383 -3.35151,0.4113 -10.05451,0.95241c-0.15152,-0.7576 -0.86223,-5.25994 -2.13212,-13.50703c0.57001,-0.09383 2.4063,-0.28864 5.50888,-0.58443z"/><path d="M242.84151,301.24893l0.07575,0.14074l-1.46109,7.74922h0.07575l3.7231,-1.09312v-4.3833c0.01442,-0.10109 0.06132,-0.15163 0.1407,-0.15163c2.79953,0.19482 4.35804,0.29223 4.67551,0.29223c0,0.05054 0.02525,0.07581 0.07575,0.07581c0,1.23382 -0.38962,3.79165 -1.16887,7.67347c0,0.22368 -1.11837,0.39323 -3.35511,0.50867c-0.11544,-0.13711 -0.21285,-0.42933 -0.29222,-0.87666c-2.86447,0.58444 -4.49874,0.87666 -4.90279,0.87666c-2.28725,-1.70281 -3.43087,-2.57946 -3.43087,-2.62998c0.38963,-5.11563 0.63494,-7.77085 0.73596,-7.96567h0.06495c1.82547,-0.05054 3.50663,-0.1227 5.04349,-0.21645z"/><path d="M263.26444,301.24893c1.76053,0.72874 3.27935,1.41419 4.55646,2.05635c-0.3319,4.2931 -0.54476,6.64168 -0.63855,7.04572c-2.12129,0.52672 -3.30821,0.79008 -3.56075,0.79008c0,-0.93798 -0.07216,-2.7887 -0.21646,-5.55216c-0.8009,0.0793 -1.20135,0.14786 -1.20135,0.20567c0,0.27418 0.0469,1.83989 0.1407,4.69714c0.0433,0 0.06495,0.02527 0.06495,0.07582c0,0.08657 -1.11476,0.32466 -3.34429,0.7143c-0.0938,-0.11547 -0.3788,-1.87239 -0.85501,-5.27076c-0.90191,0.23088 -1.35287,0.39683 -1.35287,0.49785l0.43292,4.41576c-0.08658,0.09383 -1.2735,0.47263 -3.56074,1.1364c-1.32761,-4.69715 -2.15738,-7.85024 -2.48928,-9.45925c2.50371,-0.62052 3.90348,-0.93078 4.1993,-0.93078c0.3319,1.3132 0.49786,2.07081 0.49786,2.27283h0.07575c1.21938,-1.12558 2.07079,-1.88319 2.55422,-2.27283h0.07575l2.27281,1.63428h0.07575c1.42142,-1.3709 2.17902,-2.05635 2.27282,-2.05635z"/><path d="M270.54828,301.24893c4.28588,0.59164 6.42883,0.95602 6.42883,1.09312c1.68838,1.45027 2.53257,2.22591 2.53257,2.32693c-0.68546,2.14294 -1.07508,3.4453 -1.16888,3.90708c0.68545,1.52242 1.07508,2.43155 1.16888,2.72739c0,0.08657 -1.11837,0.31746 -3.35512,0.69267c-0.02886,-0.12273 -0.23449,-0.39692 -0.61691,-0.82256c-3.08815,0.59166 -4.75127,0.88748 -4.98937,0.88748l-1.64509,-4.44823l3.62568,-1.91565c0.58444,0.09383 1.49718,0.14074 2.73821,0.14074c0,-0.15874 0.02165,-0.63856 0.06495,-1.43946c-0.20924,0 -2.07801,0.13709 -5.60628,0.41127l-0.06495,-0.14074c0.49064,-2.28003 0.78647,-3.42004 0.88748,-3.42004zM272.79945,307.6128c0,0.0793 0.23089,0.9235 0.69266,2.53257h0.06495c0.90913,-0.59166 1.36369,-0.98129 1.36369,-1.16889l0.1407,-1.15804c-0.17317,0 -0.92717,-0.06856 -2.262,-0.20567z"/><path d="M280.54867,297.9912c2.20788,0.04328 3.82771,0.06492 4.8595,0.06492c0.0938,0 0.3788,4.4302 0.85501,13.29058c-0.36798,0.09383 -1.6523,0.33192 -3.85297,0.7143c-0.10822,0 -0.46537,-2.71295 -1.07147,-8.13885c-0.0505,-0.12985 -0.31386,-2.10684 -0.79008,-5.93096z"/><path d="M293.61195,301.25972c3.26853,1.68116 5.07956,2.66245 5.43312,2.94384c-0.469,2.19346 -0.74678,3.32265 -0.83337,3.38758h-6.8401v0.11896l1.91566,2.37022l3.00877,-1.53685c0.29583,0.51228 0.72153,1.40697 1.27711,2.68408c-0.25975,0.08657 -2.15377,0.36436 -5.68204,0.83337c-2.9222,-1.92648 -4.39411,-2.9294 -4.41576,-3.00877c0.469,-3.74474 0.74678,-5.61711 0.83337,-5.61711c3.05207,-1.29876 4.81982,-2.0239 5.30324,-2.17542zM292.90846,303.87889c-0.05772,0.14432 -0.44014,0.71794 -1.14723,1.72086c0,0.30304 0.42571,0.45456 1.27711,0.45456c0,0.04328 0.61691,0.1479 1.85072,0.31386c0.33912,-0.469 0.50867,-0.74317 0.50867,-0.82254c-0.10822,-0.64216 -0.34272,-0.96324 -0.70349,-0.96324z"/><path d="M306.16656,301.25972c3.26853,1.68116 5.07956,2.66245 5.43312,2.94384c-0.469,2.19346 -0.74679,3.32265 -0.83337,3.38758h-6.84009v0.11896l1.91566,2.37022l3.00878,-1.53685c0.29583,0.51228 0.72153,1.40697 1.2771,2.68408c-0.25975,0.08657 -2.15377,0.36436 -5.68204,0.83337c-2.9222,-1.92648 -4.39411,-2.9294 -4.41576,-3.00877c0.469,-3.74474 0.74678,-5.61711 0.83337,-5.61711c3.05207,-1.29876 4.81982,-2.0239 5.30324,-2.17542zM305.46307,303.87889c-0.05772,0.14432 -0.44014,0.71794 -1.14723,1.72086c0,0.30304 0.42571,0.45456 1.27711,0.45456c0,0.04328 0.61691,0.1479 1.85072,0.31386c0.33912,-0.469 0.50867,-0.74317 0.50867,-0.82254c-0.10822,-0.64216 -0.34272,-0.96324 -0.70349,-0.96324z"/><path d="M314.08895,309.72327c1.96256,0.23089 2.94745,0.36077 2.95467,0.38963c-1.19052,2.79953 -1.85794,4.27144 -2.00225,4.41574c-0.98128,-0.12259 -1.47192,-0.2236 -1.47192,-0.30303c0.25975,-3.00156 0.41849,-4.50234 0.47621,-4.50234z"/><path d="M329.60905,297.96957c0,0.05054 0.02165,0.07581 0.06495,0.07581c0.0505,1.46472 0.12626,4.74046 0.22728,9.82723h0.06495l6.4613,-2.27281c0,0.05054 0.02525,0.07582 0.07575,0.07582l-0.21646,5.43312c0,0.09383 -3.3515,0.4113 -10.05451,0.95241c-0.15152,-0.7576 -0.86223,-5.25994 -2.13212,-13.50703c0.57001,-0.09383 2.40629,-0.28864 5.50887,-0.58443z"/><path d="M343.45159,301.24893l0.07575,0.14074l-1.4611,7.74922h0.07575l3.72309,-1.09312v-4.3833c0.01444,-0.10109 0.06134,-0.15163 0.1407,-0.15163c2.79953,0.19482 4.35804,0.29223 4.67551,0.29223c0,0.05054 0.02525,0.07581 0.07575,0.07581c0,1.23382 -0.38962,3.79165 -1.16887,7.67347c0,0.22368 -1.11837,0.39323 -3.35511,0.50867c-0.11544,-0.13711 -0.21285,-0.42933 -0.29222,-0.87666c-2.86447,0.58444 -4.49874,0.87666 -4.90279,0.87666c-2.28725,-1.70281 -3.43087,-2.57946 -3.43087,-2.62998c0.38963,-5.11563 0.63494,-7.77085 0.73596,-7.96567h0.06495c1.82547,-0.05054 3.50663,-0.1227 5.04349,-0.21645z"/><path d="M363.87444,301.24893c1.76053,0.72874 3.27935,1.41419 4.55646,2.05635c-0.3319,4.2931 -0.54476,6.64168 -0.63855,7.04572c-2.12129,0.52672 -3.30821,0.79008 -3.56075,0.79008c0,-0.93798 -0.07215,-2.7887 -0.21645,-5.55216c-0.8009,0.0793 -1.20135,0.14786 -1.20135,0.20567c0,0.27418 0.0469,1.83989 0.1407,4.69714c0.0433,0 0.06495,0.02527 0.06495,0.07582c0,0.08657 -1.11476,0.32466 -3.34429,0.7143c-0.0938,-0.11547 -0.3788,-1.87239 -0.85501,-5.27076c-0.90191,0.23088 -1.35286,0.39683 -1.35286,0.49785l0.43292,4.41576c-0.08658,0.09383 -1.2735,0.47263 -3.56075,1.1364c-1.32761,-4.69715 -2.15737,-7.85024 -2.48927,-9.45925c2.50371,-0.62052 3.90348,-0.93078 4.1993,-0.93078c0.3319,1.3132 0.49785,2.07081 0.49785,2.27283h0.07575c1.21938,-1.12558 2.07079,-1.88319 2.55422,-2.27283h0.07575l2.27282,1.63428h0.07575c1.42142,-1.3709 2.17902,-2.05635 2.27281,-2.05635z"/><path d="M371.15828,301.24893c4.28588,0.59164 6.42883,0.95602 6.42883,1.09312c1.68838,1.45027 2.53257,2.22591 2.53257,2.32693c-0.68545,2.14294 -1.07508,3.4453 -1.16887,3.90708c0.68545,1.52242 1.07508,2.43155 1.16887,2.72739c0,0.08657 -1.11837,0.31746 -3.35511,0.69267c-0.02886,-0.12273 -0.23449,-0.39692 -0.61691,-0.82256c-3.08815,0.59166 -4.75127,0.88748 -4.98938,0.88748l-1.64508,-4.44823l3.62568,-1.91565c0.58444,0.09383 1.49718,0.14074 2.73821,0.14074c0,-0.15874 0.02165,-0.63856 0.06495,-1.43946c-0.20925,0 -2.07801,0.13709 -5.60629,0.41127l-0.06492,-0.14074c0.49064,-2.28003 0.78646,-3.42004 0.88748,-3.42004zM373.40945,307.6128c0,0.0793 0.23089,0.9235 0.69267,2.53257h0.06495c0.90913,-0.59166 1.36369,-0.98129 1.36369,-1.16889l0.1407,-1.15804c-0.17317,0 -0.92717,-0.06856 -2.262,-0.20567z"/><path d="M386.21299,297.98037l0.07575,0.14074c0,0.41126 0.0938,2.00223 0.2814,4.77292c2.58308,-0.82254 4.02974,-1.25546 4.34,-1.29876l3.89626,4.18848c-1.63787,3.67258 -2.52896,5.62071 -2.67326,5.84439c-0.45456,-0.05054 -2.11408,-0.1227 -4.97855,-0.21647v0.50868c0,0.09383 -0.05051,0.14074 -0.15153,0.14074h-4.18847c-0.15152,0 -0.44014,-2.16458 -0.86584,-6.49375c-0.0938,-0.36798 -0.35716,-2.53618 -0.79008,-6.5046c2.4532,-0.57722 4.13797,-0.93798 5.05431,-1.08228zM386.93817,305.92443l0.2814,2.67328h2.17541l0.79008,-3.03043c-2.16459,0.18759 -3.24689,0.30664 -3.24689,0.35715z"/><path d="M400.28283,301.25972c2.74182,0.73596 4.1957,1.18331 4.36164,1.34205c1.508,2.13572 2.3558,3.36593 2.5434,3.69063c-0.97406,3.08814 -1.53325,4.63221 -1.67757,4.63221c-3.24688,0.7576 -4.94608,1.1364 -5.0976,1.1364c-2.68408,-1.56572 -4.11271,-2.43877 -4.28588,-2.61915c-0.0938,-2.91498 -0.1407,-4.52399 -0.1407,-4.82703c-0.0433,-0.08657 -0.06495,-0.1515 -0.06495,-0.19478c2.77068,-2.10688 4.20292,-3.16032 4.29672,-3.16032zM400.0772,305.22093c-0.04328,0.28862 -0.10821,1.33844 -0.19478,3.14949l2.4135,0.54115c0.57723,-1.80382 0.86585,-2.76707 0.86585,-2.88972c-1.91928,-0.57722 -2.94745,-0.86583 -3.08454,-0.86583z"/><path d="M413.60589,301.25972c0.22368,0.92356 0.37881,1.49357 0.46539,1.71003c3.18916,-0.72874 4.87393,-1.09312 5.05431,-1.09312c2.1718,3.12422 3.2577,4.75487 3.2577,4.89196l-2.48928,5.2816l-5.35735,-0.85501v0.16231c0.41848,3.21082 0.62773,4.91724 0.62773,5.11926c-0.05054,0 -0.07582,0.02527 -0.07582,0.07582c-0.5195,-0.05054 -0.90913,-0.07582 -1.16889,-0.07582h-0.93078c-0.54114,0 -1.3709,-0.02527 -2.48928,-0.07581c-0.10095,-0.30304 -0.87659,-4.91001 -2.32693,-13.82089c0.24532,-0.10109 2.05636,-0.54123 5.43312,-1.32042zM413.99548,305.68631c0.14432,1.65952 0.27419,2.48928 0.38964,2.48928c1.47914,0.51228 2.38466,0.76842 2.71656,0.76842l0.85501,-3.72309h-0.07582c-0.8442,0.05054 -2.13934,0.20567 -3.88544,0.46539z"/><path d="M425.00246,309.72327c1.96256,0.23089 2.94745,0.36077 2.95465,0.38963c-1.19052,2.79953 -1.85794,4.27144 -2.00223,4.41574c-0.98128,-0.12259 -1.47192,-0.2236 -1.47192,-0.30303c0.25976,-3.00156 0.41849,-4.50234 0.47622,-4.50234z"/></g><g data-paper-data="{&quot;origPos&quot;:null}"><path d="M172.39776,326.98205l0.07575,0.14074l0.56279,8.22543h0.06494l2.95467,-3.09537c1.73888,2.34496 2.62997,3.51745 2.67326,3.51745c0.75039,-3.67258 1.21938,-5.87686 1.40698,-6.61281c3.18916,0.6133 4.78374,0.98849 4.78374,1.12559c-1.91927,6.09693 -3.0196,9.54584 -3.301,10.34674c-0.67824,0.04328 -2.17902,0.18397 -4.50234,0.42207c-1.03179,-2.46763 -1.54768,-3.7339 -1.54768,-3.79884c-0.08658,0.00698 -0.62773,1.08567 -1.62344,3.23607h-0.06494c-3.09536,-0.20925 -4.64305,-0.39685 -4.64305,-0.5628c-1.73889,-7.66986 -2.60833,-11.60942 -2.60833,-11.81866v-0.14074c0,-0.1443 1.92287,-0.47259 5.76863,-0.98488z"/><path d="M192.24703,330.25058c3.26853,1.68116 5.07956,2.66243 5.43311,2.94382c-0.469,2.19346 -0.74678,3.32265 -0.83337,3.38759h-6.84009v0.11896l1.91566,2.37023l3.00878,-1.53687c0.29583,0.51228 0.72153,1.40698 1.2771,2.6841c-0.25975,0.08657 -2.15377,0.36435 -5.68204,0.83335c-2.9222,-1.92648 -4.39411,-2.9294 -4.41576,-3.00877c0.469,-3.74474 0.74678,-5.61711 0.83337,-5.61711c3.05207,-1.29875 4.81982,-2.02388 5.30324,-2.17539zM191.54354,332.86973c-0.05772,0.1443 -0.44014,0.71791 -1.14723,1.72083c0,0.30304 0.42571,0.45456 1.27711,0.45456c0,0.04328 0.61691,0.1479 1.85072,0.31386c0.33912,-0.46898 0.50867,-0.74317 0.50867,-0.82254c-0.10822,-0.64216 -0.34272,-0.96324 -0.70349,-0.96324z"/><path d="M198.66503,326.98205c2.20788,0.04328 3.82771,0.06492 4.8595,0.06492c0.0938,0 0.3788,4.43019 0.85501,13.29058c-0.36798,0.09383 -1.6523,0.33193 -3.85297,0.71431c-0.10822,0 -0.46537,-2.71294 -1.07147,-8.13883c-0.0505,-0.12985 -0.31386,-2.10684 -0.79008,-5.93097z"/><path d="M209.84509,330.25058c3.25409,0.6133 4.95691,0.96324 5.10843,1.04982v0.12985c-0.69988,1.97698 -1.04983,3.00156 -1.04983,3.07371h-0.06494c-0.18038,0 -1.05343,-0.2814 -2.61915,-0.8442c-0.87305,1.46472 -1.30958,2.24757 -1.30958,2.34858l2.16458,2.09965c1.67395,-1.57292 2.52535,-2.35939 2.55422,-2.35939c1.30597,1.71002 1.95895,2.66965 1.95895,2.87889c-0.71431,0.41128 -1.95895,1.21939 -3.73391,2.42434c-3.43448,-0.74317 -5.28881,-1.15805 -5.56299,-1.24464l-1.6992,-5.49805z"/><path d="M222.03176,330.25058c2.74181,0.73596 4.1957,1.1833 4.36165,1.34203c1.50799,2.13574 2.35579,3.36594 2.54339,3.69063c-0.97407,3.08814 -1.53324,4.63222 -1.67755,4.63222c-3.24688,0.7576 -4.94609,1.1364 -5.09761,1.1364c-2.68409,-1.56571 -4.11272,-2.43876 -4.28588,-2.61915c-0.0938,-2.91497 -0.1407,-4.52397 -0.1407,-4.82701c-0.0433,-0.08657 -0.06495,-0.1515 -0.06495,-0.19478c2.77067,-2.10686 4.20291,-3.16029 4.29671,-3.16029zM221.82611,334.21177c-0.0433,0.28862 -0.10824,1.33844 -0.19482,3.14949l2.41352,0.54114c0.57722,-1.80382 0.86583,-2.76706 0.86583,-2.88972c-1.91927,-0.57722 -2.94745,-0.86584 -3.08454,-0.86584z"/><path d="M241.94596,330.23975c1.76053,0.72874 3.27936,1.41419 4.55646,2.05635c-0.3319,4.2931 -0.54476,6.64168 -0.63856,7.04574c-2.12129,0.52671 -3.30821,0.79006 -3.56075,0.79006c0,-0.93798 -0.07215,-2.7887 -0.21645,-5.55216c-0.80089,0.0793 -1.20135,0.14786 -1.20135,0.20567c0,0.27418 0.0469,1.8399 0.1407,4.69716c0.0433,0 0.06495,0.02527 0.06495,0.07582c0,0.08657 -1.11476,0.32467 -3.34429,0.71431c-0.0938,-0.11547 -0.3788,-1.87239 -0.85501,-5.27077c-0.90191,0.23089 -1.35286,0.39685 -1.35286,0.49785l0.43292,4.41576c-0.08658,0.09383 -1.2735,0.47263 -3.56075,1.1364c-1.32761,-4.69715 -2.15737,-7.85023 -2.48927,-9.45924c2.50371,-0.6205 3.90348,-0.93076 4.1993,-0.93076c0.3319,1.31318 0.49785,2.07079 0.49785,2.27281h0.07575c1.21938,-1.12558 2.07079,-1.88319 2.55422,-2.27281h0.07575l2.27282,1.63425h0.07575c1.42141,-1.3709 2.17902,-2.05635 2.27281,-2.05635z"/><path d="M253.72132,330.25058c3.26853,1.68116 5.07956,2.66243 5.43312,2.94382c-0.469,2.19346 -0.74678,3.32265 -0.83337,3.38759h-6.8401v0.11896l1.91566,2.37023l3.00877,-1.53687c0.29583,0.51228 0.72153,1.40698 1.27711,2.6841c-0.25975,0.08657 -2.15377,0.36435 -5.68204,0.83335c-2.9222,-1.92648 -4.39411,-2.9294 -4.41576,-3.00877c0.469,-3.74474 0.74678,-5.61711 0.83337,-5.61711c3.05207,-1.29875 4.81982,-2.02388 5.30324,-2.17539zM253.01783,332.86973c-0.05772,0.1443 -0.44014,0.71791 -1.14723,1.72083c0,0.30304 0.42571,0.45456 1.27711,0.45456c0,0.04328 0.61691,0.1479 1.85072,0.31386c0.33912,-0.46898 0.50867,-0.74317 0.50867,-0.82254c-0.10822,-0.64216 -0.34272,-0.96324 -0.70349,-0.96324z"/><path d="M268.87343,326.97121l4.76209,0.8442l-0.45456,3.61485c0.94521,-0.05054 1.63786,-0.07582 2.078,-0.07582h0.69267l0.15152,-0.07581l0.07575,0.15163c-0.15152,2.19344 -0.2814,3.42725 -0.38963,3.70144l-0.15152,-0.0865c-0.10822,0 -1.08229,-0.05054 -2.9222,-0.15163c-0.10102,1.6956 -0.17678,3.7231 -0.22728,6.0825l-0.15153,0.07581c-2.32332,-0.15152 -3.70866,-0.28139 -4.15601,-0.38961l0.07575,-0.30306c0,-0.62772 0.10101,-2.57585 0.30304,-5.84437c-1.94813,-0.10821 -2.9222,-0.23809 -2.9222,-0.38964c0.10102,-2.4099 0.23089,-3.61485 0.38963,-3.61485l2.84644,0.54114v-0.93078c0,-0.7576 -0.02886,-1.78218 -0.08658,-3.07371c0.05772,0 0.08658,-0.02527 0.08658,-0.07581z"/><path d="M281.68779,330.25058c2.74181,0.73596 4.19569,1.1833 4.36164,1.34203c1.508,2.13574 2.3558,3.36594 2.54339,3.69063c-0.97406,3.08814 -1.53325,4.63222 -1.67756,4.63222c-3.24688,0.7576 -4.94609,1.1364 -5.09761,1.1364c-2.68409,-1.56571 -4.11272,-2.43876 -4.28588,-2.61915c-0.0938,-2.91497 -0.1407,-4.52397 -0.1407,-4.82701c-0.0433,-0.08657 -0.06494,-0.1515 -0.06494,-0.19478c2.77067,-2.10686 4.20291,-3.16029 4.29671,-3.16029zM281.48215,334.21177c-0.0433,0.28862 -0.10824,1.33844 -0.19482,3.14949l2.41352,0.54114c0.57722,-1.80382 0.86583,-2.76706 0.86583,-2.88972c-1.91927,-0.57722 -2.94745,-0.86584 -3.08454,-0.86584z"/><path d="M298.31184,326.97121l4.76209,0.8442l-0.45456,3.61485c0.9452,-0.05054 1.63786,-0.07582 2.078,-0.07582h0.69267l0.15152,-0.07581l0.07575,0.15163c-0.15152,2.19344 -0.2814,3.42725 -0.38963,3.70144l-0.15152,-0.0865c-0.10822,0 -1.08229,-0.05054 -2.9222,-0.15163c-0.10102,1.6956 -0.17678,3.7231 -0.22728,6.0825l-0.15152,0.07581c-2.32332,-0.15152 -3.70866,-0.28139 -4.15601,-0.38961l0.07575,-0.30306c0,-0.62772 0.10102,-2.57585 0.30304,-5.84437c-1.94813,-0.10821 -2.9222,-0.23809 -2.9222,-0.38964c0.10102,-2.4099 0.23089,-3.61485 0.38963,-3.61485l2.84644,0.54114v-0.93078c0,-0.7576 -0.02886,-1.78218 -0.08658,-3.07371c0.05772,0 0.08658,-0.02527 0.08658,-0.07581z"/><path d="M311.61322,326.97121c0.0433,0.06492 0.24533,2.04192 0.60609,5.93097c2.7851,-0.8514 4.26785,-1.2771 4.44823,-1.2771l2.75985,1.88319c-0.44735,4.11271 -0.73956,6.5154 -0.87665,7.20807l-3.83132,0.12985c0,-0.04328 -0.02525,-0.06492 -0.07575,-0.06492l0.07575,-0.27057c0,-0.58444 0.08658,-2.3594 0.25975,-5.32489c-1.05343,-0.04328 -1.83629,-0.06492 -2.34857,-0.06492h-0.27058c0.31026,3.29738 0.46539,5.09399 0.46539,5.38981l-3.63651,0.54114c-0.1371,-0.46178 -0.94521,-4.77291 -2.42434,-12.9334c0,-0.23088 0.56279,-0.41127 1.68838,-0.54115c1.42142,-0.40406 2.47485,-0.60609 3.1603,-0.60609z"/><path d="M326.58135,330.25058c3.26853,1.68116 5.07956,2.66243 5.43312,2.94382c-0.469,2.19346 -0.74678,3.32265 -0.83337,3.38759h-6.8401v0.11896l1.91566,2.37023l3.00878,-1.53687c0.29582,0.51228 0.72153,1.40698 1.2771,2.6841c-0.25975,0.08657 -2.15377,0.36435 -5.68204,0.83335c-2.9222,-1.92648 -4.39411,-2.9294 -4.41576,-3.00877c0.46899,-3.74474 0.74678,-5.61711 0.83337,-5.61711c3.05207,-1.29875 4.81982,-2.02388 5.30324,-2.17539zM325.87785,332.86973c-0.05772,0.1443 -0.44014,0.71791 -1.14723,1.72083c0,0.30304 0.4257,0.45456 1.2771,0.45456c0,0.04328 0.61691,0.1479 1.85072,0.31386c0.33912,-0.46898 0.50868,-0.74317 0.50868,-0.82254c-0.10822,-0.64216 -0.34272,-0.96324 -0.70349,-0.96324z"/><path d="M344.00628,326.96038c0,0.05054 0.02164,0.07581 0.06492,0.07581c0.05054,1.4647 0.12631,4.74045 0.2273,9.82723h0.06492l6.46129,-2.27283c0,0.05054 0.02527,0.07582 0.07582,0.07582l-0.21647,5.43312c0,0.09383 -3.35151,0.4113 -10.05451,0.95241c-0.15152,-0.7576 -0.86222,-5.25994 -2.13211,-13.50701c0.57,-0.09383 2.40629,-0.28865 5.50888,-0.58445z"/><path d="M357.84881,330.23975l0.07581,0.14074l-1.46109,7.74922h0.07581l3.7231,-1.09312v-4.3833c0.01438,-0.10095 0.06129,-0.15142 0.14074,-0.15142c2.79953,0.1948 4.35803,0.2922 4.67551,0.2922c0,0.05054 0.02527,0.07582 0.07581,0.07582c0,1.2338 -0.38962,3.79162 -1.16886,7.67345c0,0.22368 -1.11837,0.39323 -3.35512,0.50867c-0.11547,-0.13711 -0.21287,-0.42933 -0.29223,-0.87666c-2.86447,0.58444 -4.49872,0.87666 -4.90278,0.87666c-2.28725,-1.70281 -3.43087,-2.57946 -3.43087,-2.62996c0.38962,-5.11565 0.63495,-7.77087 0.73597,-7.96569h0.06492c1.82548,-0.05054 3.50664,-0.1227 5.04348,-0.21645z"/><path d="M378.27171,330.23975c1.76052,0.72874 3.27935,1.41419 4.55646,2.05635c-0.3319,4.2931 -0.54476,6.64168 -0.63855,7.04574c-2.1213,0.52671 -3.30822,0.79006 -3.56076,0.79006c0,-0.93798 -0.07215,-2.7887 -0.21645,-5.55216c-0.8009,0.0793 -1.20135,0.14786 -1.20135,0.20567c0,0.27418 0.04692,1.8399 0.14074,4.69716c0.04328,0 0.06492,0.02527 0.06492,0.07582c0,0.08657 -1.11477,0.32467 -3.3443,0.71431c-0.09383,-0.11547 -0.37883,-1.87239 -0.85501,-5.27077c-0.90192,0.23089 -1.35288,0.39685 -1.35288,0.49785l0.43293,4.41576c-0.08657,0.09383 -1.27348,0.47263 -3.56074,1.1364c-1.32762,-4.69715 -2.15738,-7.85023 -2.48928,-9.45924c2.5037,-0.6205 3.90346,-0.93076 4.19929,-0.93076c0.33192,1.31318 0.49787,2.07079 0.49787,2.27281h0.07582c1.21938,-1.12558 2.07078,-1.88319 2.5542,-2.27281h0.07582l2.27281,1.63425h0.07581c1.42142,-1.3709 2.17903,-2.05635 2.27283,-2.05635z"/><path d="M385.55555,330.23975c4.28588,0.59166 6.42883,0.95603 6.42883,1.09312c1.68838,1.45028 2.53257,2.22591 2.53257,2.32692c-0.68544,2.14294 -1.07507,3.4453 -1.16886,3.90709c0.68544,1.52244 1.07507,2.43156 1.16886,2.72739c0,0.08657 -1.11837,0.31746 -3.35511,0.69267c-0.0289,-0.12259 -0.23454,-0.39677 -0.6169,-0.82254c-3.08814,0.59164 -4.75127,0.88747 -4.98938,0.88747l-1.64508,-4.44823l3.62568,-1.91565c0.58444,0.09383 1.49718,0.14074 2.73822,0.14074c0,-0.15874 0.02164,-0.63856 0.06492,-1.43946c-0.20924,0 -2.078,0.13709 -5.60628,0.41127l-0.06493,-0.14074c0.49064,-2.28003 0.78647,-3.42003 0.88747,-3.42003zM387.80672,336.60364c0,0.0793 0.23088,0.9235 0.69266,2.53257h0.06493c0.90913,-0.59166 1.36368,-0.98128 1.36368,-1.16887l0.14074,-1.15806c-0.17316,0 -0.92716,-0.06856 -2.262,-0.20567z"/><path d="M409.56084,326.97121c2.5975,1.31318 3.93233,1.96978 4.00447,1.96978c0,0.11547 -0.54115,1.15808 -1.62343,3.12783h-0.07581c-0.08657,0 -1.33121,-0.58805 -3.7339,-1.76415l-1.223,1.63428c2.0708,0.9957 4.58533,2.26559 7.54359,3.80967c-1.34204,2.38826 -2.29446,3.97563 -2.85726,4.76209l-6.11496,0.54114c-2.79231,-1.88319 -4.26783,-2.85724 -4.42657,-2.92218v-0.07582c0,-0.20204 0.5664,-1.1292 1.6992,-2.78151h0.14074c0.44734,0.26697 1.85072,1.0354 4.21012,2.30529l1.42863,-1.62345c-4.33639,-2.20787 -6.73908,-3.45611 -7.20808,-3.74473v-0.06492c1.37812,-2.68409 2.12851,-4.04417 2.25117,-4.08025c3.586,-0.72874 5.58103,-1.09312 5.98509,-1.09312z"/><path d="M420.44872,326.97121c0.04328,0.06492 0.24531,2.04192 0.60607,5.93097c2.7851,-0.8514 4.26785,-1.2771 4.44823,-1.2771l2.75985,1.88319c-0.44734,4.11271 -0.73956,6.5154 -0.87666,7.20807l-3.8313,0.12985c0,-0.04328 -0.02527,-0.06492 -0.07582,-0.06492l0.07582,-0.27057c0,-0.58444 0.08658,-2.3594 0.25974,-5.32489c-1.05342,-0.04328 -1.83629,-0.06492 -2.34858,-0.06492h-0.27057c0.31026,3.29738 0.46539,5.09399 0.46539,5.38981l-3.63651,0.54114c-0.13711,-0.46178 -0.94522,-4.77291 -2.42433,-12.9334c0,-0.23088 0.56279,-0.41127 1.68837,-0.54115c1.42142,-0.40406 2.47486,-0.60609 3.16032,-0.60609z"/><path d="M433.64189,330.25058c2.7418,0.73596 4.19568,1.1833 4.36164,1.34203c1.508,2.13574 2.35579,3.36594 2.54338,3.69063c-0.97406,3.08814 -1.53325,4.63222 -1.67755,4.63222c-3.24688,0.7576 -4.94608,1.1364 -5.0976,1.1364c-2.68409,-1.56571 -4.11271,-2.43876 -4.28589,-2.61915c-0.09383,-2.91497 -0.14074,-4.52397 -0.14074,-4.82701c-0.04328,-0.08657 -0.06492,-0.1515 -0.06492,-0.19478c2.77066,-2.10686 4.2029,-3.16029 4.2967,-3.16029zM433.43622,334.21177c-0.04328,0.28862 -0.10821,1.33844 -0.19478,3.14949l2.41353,0.54114c0.57722,-1.80382 0.86583,-2.76706 0.86583,-2.88972c-1.91926,-0.57722 -2.94744,-0.86584 -3.08454,-0.86584z"/><path d="M446.96491,330.25058c0.22366,0.92355 0.37879,1.49355 0.46537,1.71001c3.18916,-0.72874 4.87393,-1.09312 5.05431,-1.09312c2.1718,3.12422 3.2577,4.75489 3.2577,4.89198l-2.48926,5.28159l-5.35737,-0.85503v0.16231c0.41849,3.21081 0.62774,4.91722 0.62774,5.11924c-0.05054,0 -0.07581,0.02527 -0.07581,0.07582c-0.5195,-0.05054 -0.90913,-0.07582 -1.16887,-0.07582h-0.93078c-0.54114,0 -1.3709,-0.02527 -2.48928,-0.07581c-0.10095,-0.30304 -0.87659,-4.91001 -2.32693,-13.82089c0.24532,-0.10109 2.05636,-0.54122 5.43312,-1.32039zM447.35452,334.67714c0.1443,1.65952 0.27418,2.48928 0.38964,2.48928c1.47913,0.51228 2.38464,0.76842 2.71654,0.76842l0.85503,-3.72309h-0.07582c-0.8442,0.05054 -2.13934,0.20567 -3.88544,0.46539z"/><path d="M461.61917,327.37165l0.04335,0.0865c-0.72154,6.3711 -1.1256,9.71901 -1.21218,10.0437c-1.52964,-0.14432 -2.49649,-0.24533 -2.90055,-0.30306v-0.04335l-0.69267,-9.04798c0.17318,-0.05766 1.76054,-0.30299 4.76211,-0.73597zM457.33328,337.7184c0.05054,0.0289 1.17613,0.11549 3.37675,0.25974l0.04335,0.0865c-0.33912,1.99142 -0.55558,2.98713 -0.64936,2.98713h-2.51093c-0.08657,0 -0.20201,-0.99571 -0.34633,-2.98713c-0.0289,0 -0.04335,-0.08658 -0.04335,-0.25974c0.08657,-0.0289 0.12985,-0.05774 0.12985,-0.0865z"/><path d="M467.87484,326.30019h0.41127c1.24102,0 2.05996,0.05047 2.4568,0.15142c0.57002,0.14432 1.07148,0.4221 1.5044,0.83337c0.32469,0.30304 0.58082,0.73236 0.76842,1.28793c0.1876,0.54836 0.2814,1.19052 0.2814,1.92648v1.11477h-1.07148v-0.46539c0,-0.49064 -0.10462,-0.90552 -0.31386,-1.24464c-0.20204,-0.34634 -0.50508,-0.6097 -0.90913,-0.79008c-0.52672,-0.23088 -1.11115,-0.34633 -1.75331,-0.34633h-0.30306v9.03715c0,0.87306 -0.11544,1.55491 -0.34633,2.04555c-0.23088,0.48342 -0.62772,0.87304 -1.19052,1.16887c-0.5628,0.28862 -1.1761,0.43292 -1.8399,0.43292c-0.78646,0 -1.41058,-0.22006 -1.87236,-0.66021c-0.45456,-0.44734 -0.68184,-1.03178 -0.68184,-1.75332c0,-0.7576 0.27418,-1.39254 0.82254,-1.90483c0.54836,-0.5195 1.26629,-0.77925 2.15377,-0.77925c0.56279,0 1.19052,0.16595 1.88319,0.49785z"/></g></g><g data-paper-data="{&quot;origPos&quot;:null}" stroke="#000000" stroke-width="0"><g data-paper-data="{&quot;origPos&quot;:null}"><path d="M217.66735,297.30936h0.41127c1.24103,0 2.05997,0.05055 2.45681,0.15164c0.57001,0.1443 1.07147,0.42209 1.50438,0.83337c0.32469,0.30304 0.58083,0.73236 0.76843,1.28793c0.18759,0.54836 0.2814,1.19052 0.2814,1.92648v1.11477h-1.07147v-0.46539c0,-0.49064 -0.10462,-0.90552 -0.31387,-1.24464c-0.20203,-0.34634 -0.50507,-0.6097 -0.90913,-0.79008c-0.52672,-0.23088 -1.11115,-0.34633 -1.75331,-0.34633h-0.30304v9.03715c0,0.87304 -0.11545,1.55489 -0.34634,2.04552c-0.23089,0.48344 -0.62773,0.87306 -1.19052,1.16889c-0.56279,0.2886 -1.17609,0.43291 -1.8399,0.43291c-0.78647,0 -1.41059,-0.22006 -1.87237,-0.66019c-0.45456,-0.44735 -0.68185,-1.0318 -0.68185,-1.75332c0,-0.7576 0.27418,-1.39255 0.82254,-1.90485c0.54836,-0.5195 1.26629,-0.77925 2.15377,-0.77925c0.56279,0 1.19053,0.16596 1.88319,0.49788z"/><path d="M228.99901,297.96957c0,0.05054 0.02164,0.07581 0.06494,0.07581c0.0505,1.46472 0.12627,4.74046 0.22728,9.82723h0.06495l6.46129,-2.27281c0,0.05054 0.02525,0.07582 0.07575,0.07582l-0.21645,5.43312c0,0.09383 -3.35151,0.4113 -10.05451,0.95241c-0.15152,-0.7576 -0.86223,-5.25994 -2.13212,-13.50703c0.57001,-0.09383 2.4063,-0.28864 5.50888,-0.58443z"/><path d="M242.84151,301.24893l0.07575,0.14074l-1.46109,7.74922h0.07575l3.7231,-1.09312v-4.3833c0.01442,-0.10109 0.06132,-0.15163 0.1407,-0.15163c2.79953,0.19482 4.35804,0.29223 4.67551,0.29223c0,0.05054 0.02525,0.07581 0.07575,0.07581c0,1.23382 -0.38962,3.79165 -1.16887,7.67347c0,0.22368 -1.11837,0.39323 -3.35511,0.50867c-0.11544,-0.13711 -0.21285,-0.42933 -0.29222,-0.87666c-2.86447,0.58444 -4.49874,0.87666 -4.90279,0.87666c-2.28725,-1.70281 -3.43087,-2.57946 -3.43087,-2.62998c0.38963,-5.11563 0.63494,-7.77085 0.73596,-7.96567h0.06495c1.82547,-0.05054 3.50663,-0.1227 5.04349,-0.21645z"/><path d="M263.26444,301.24893c1.76053,0.72874 3.27935,1.41419 4.55646,2.05635c-0.3319,4.2931 -0.54476,6.64168 -0.63855,7.04572c-2.12129,0.52672 -3.30821,0.79008 -3.56075,0.79008c0,-0.93798 -0.07216,-2.7887 -0.21646,-5.55216c-0.8009,0.0793 -1.20135,0.14786 -1.20135,0.20567c0,0.27418 0.0469,1.83989 0.1407,4.69714c0.0433,0 0.06495,0.02527 0.06495,0.07582c0,0.08657 -1.11476,0.32466 -3.34429,0.7143c-0.0938,-0.11547 -0.3788,-1.87239 -0.85501,-5.27076c-0.90191,0.23088 -1.35287,0.39683 -1.35287,0.49785l0.43292,4.41576c-0.08658,0.09383 -1.2735,0.47263 -3.56074,1.1364c-1.32761,-4.69715 -2.15738,-7.85024 -2.48928,-9.45925c2.50371,-0.62052 3.90348,-0.93078 4.1993,-0.93078c0.3319,1.3132 0.49786,2.07081 0.49786,2.27283h0.07575c1.21938,-1.12558 2.07079,-1.88319 2.55422,-2.27283h0.07575l2.27281,1.63428h0.07575c1.42142,-1.3709 2.17902,-2.05635 2.27282,-2.05635z"/><path d="M270.54828,301.24893c4.28588,0.59164 6.42883,0.95602 6.42883,1.09312c1.68838,1.45027 2.53257,2.22591 2.53257,2.32693c-0.68546,2.14294 -1.07508,3.4453 -1.16888,3.90708c0.68545,1.52242 1.07508,2.43155 1.16888,2.72739c0,0.08657 -1.11837,0.31746 -3.35512,0.69267c-0.02886,-0.12273 -0.23449,-0.39692 -0.61691,-0.82256c-3.08815,0.59166 -4.75127,0.88748 -4.98937,0.88748l-1.64509,-4.44823l3.62568,-1.91565c0.58444,0.09383 1.49718,0.14074 2.73821,0.14074c0,-0.15874 0.02165,-0.63856 0.06495,-1.43946c-0.20924,0 -2.07801,0.13709 -5.60628,0.41127l-0.06495,-0.14074c0.49064,-2.28003 0.78647,-3.42004 0.88748,-3.42004zM272.79945,307.6128c0,0.0793 0.23089,0.9235 0.69266,2.53257h0.06495c0.90913,-0.59166 1.36369,-0.98129 1.36369,-1.16889l0.1407,-1.15804c-0.17317,0 -0.92717,-0.06856 -2.262,-0.20567z"/><path d="M280.54867,297.9912c2.20788,0.04328 3.82771,0.06492 4.8595,0.06492c0.0938,0 0.3788,4.4302 0.85501,13.29058c-0.36798,0.09383 -1.6523,0.33192 -3.85297,0.7143c-0.10822,0 -0.46537,-2.71295 -1.07147,-8.13885c-0.0505,-0.12985 -0.31386,-2.10684 -0.79008,-5.93096z"/><path d="M293.61195,301.25972c3.26853,1.68116 5.07956,2.66245 5.43312,2.94384c-0.469,2.19346 -0.74678,3.32265 -0.83337,3.38758h-6.8401v0.11896l1.91566,2.37022l3.00877,-1.53685c0.29583,0.51228 0.72153,1.40697 1.27711,2.68408c-0.25975,0.08657 -2.15377,0.36436 -5.68204,0.83337c-2.9222,-1.92648 -4.39411,-2.9294 -4.41576,-3.00877c0.469,-3.74474 0.74678,-5.61711 0.83337,-5.61711c3.05207,-1.29876 4.81982,-2.0239 5.30324,-2.17542zM292.90846,303.87889c-0.05772,0.14432 -0.44014,0.71794 -1.14723,1.72086c0,0.30304 0.42571,0.45456 1.27711,0.45456c0,0.04328 0.61691,0.1479 1.85072,0.31386c0.33912,-0.469 0.50867,-0.74317 0.50867,-0.82254c-0.10822,-0.64216 -0.34272,-0.96324 -0.70349,-0.96324z"/><path d="M306.16656,301.25972c3.26853,1.68116 5.07956,2.66245 5.43312,2.94384c-0.469,2.19346 -0.74679,3.32265 -0.83337,3.38758h-6.84009v0.11896l1.91566,2.37022l3.00878,-1.53685c0.29583,0.51228 0.72153,1.40697 1.2771,2.68408c-0.25975,0.08657 -2.15377,0.36436 -5.68204,0.83337c-2.9222,-1.92648 -4.39411,-2.9294 -4.41576,-3.00877c0.469,-3.74474 0.74678,-5.61711 0.83337,-5.61711c3.05207,-1.29876 4.81982,-2.0239 5.30324,-2.17542zM305.46307,303.87889c-0.05772,0.14432 -0.44014,0.71794 -1.14723,1.72086c0,0.30304 0.42571,0.45456 1.27711,0.45456c0,0.04328 0.61691,0.1479 1.85072,0.31386c0.33912,-0.469 0.50867,-0.74317 0.50867,-0.82254c-0.10822,-0.64216 -0.34272,-0.96324 -0.70349,-0.96324z"/><path d="M314.08895,309.72327c1.96256,0.23089 2.94745,0.36077 2.95467,0.38963c-1.19052,2.79953 -1.85794,4.27144 -2.00225,4.41574c-0.98128,-0.12259 -1.47192,-0.2236 -1.47192,-0.30303c0.25975,-3.00156 0.41849,-4.50234 0.47621,-4.50234z"/><path d="M329.60905,297.96957c0,0.05054 0.02165,0.07581 0.06495,0.07581c0.0505,1.46472 0.12626,4.74046 0.22728,9.82723h0.06495l6.4613,-2.27281c0,0.05054 0.02525,0.07582 0.07575,0.07582l-0.21646,5.43312c0,0.09383 -3.3515,0.4113 -10.05451,0.95241c-0.15152,-0.7576 -0.86223,-5.25994 -2.13212,-13.50703c0.57001,-0.09383 2.40629,-0.28864 5.50887,-0.58443z"/><path d="M343.45159,301.24893l0.07575,0.14074l-1.4611,7.74922h0.07575l3.72309,-1.09312v-4.3833c0.01444,-0.10109 0.06134,-0.15163 0.1407,-0.15163c2.79953,0.19482 4.35804,0.29223 4.67551,0.29223c0,0.05054 0.02525,0.07581 0.07575,0.07581c0,1.23382 -0.38962,3.79165 -1.16887,7.67347c0,0.22368 -1.11837,0.39323 -3.35511,0.50867c-0.11544,-0.13711 -0.21285,-0.42933 -0.29222,-0.87666c-2.86447,0.58444 -4.49874,0.87666 -4.90279,0.87666c-2.28725,-1.70281 -3.43087,-2.57946 -3.43087,-2.62998c0.38963,-5.11563 0.63494,-7.77085 0.73596,-7.96567h0.06495c1.82547,-0.05054 3.50663,-0.1227 5.04349,-0.21645z"/><path d="M363.87444,301.24893c1.76053,0.72874 3.27935,1.41419 4.55646,2.05635c-0.3319,4.2931 -0.54476,6.64168 -0.63855,7.04572c-2.12129,0.52672 -3.30821,0.79008 -3.56075,0.79008c0,-0.93798 -0.07215,-2.7887 -0.21645,-5.55216c-0.8009,0.0793 -1.20135,0.14786 -1.20135,0.20567c0,0.27418 0.0469,1.83989 0.1407,4.69714c0.0433,0 0.06495,0.02527 0.06495,0.07582c0,0.08657 -1.11476,0.32466 -3.34429,0.7143c-0.0938,-0.11547 -0.3788,-1.87239 -0.85501,-5.27076c-0.90191,0.23088 -1.35286,0.39683 -1.35286,0.49785l0.43292,4.41576c-0.08658,0.09383 -1.2735,0.47263 -3.56075,1.1364c-1.32761,-4.69715 -2.15737,-7.85024 -2.48927,-9.45925c2.50371,-0.62052 3.90348,-0.93078 4.1993,-0.93078c0.3319,1.3132 0.49785,2.07081 0.49785,2.27283h0.07575c1.21938,-1.12558 2.07079,-1.88319 2.55422,-2.27283h0.07575l2.27282,1.63428h0.07575c1.42142,-1.3709 2.17902,-2.05635 2.27281,-2.05635z"/><path d="M371.15828,301.24893c4.28588,0.59164 6.42883,0.95602 6.42883,1.09312c1.68838,1.45027 2.53257,2.22591 2.53257,2.32693c-0.68545,2.14294 -1.07508,3.4453 -1.16887,3.90708c0.68545,1.52242 1.07508,2.43155 1.16887,2.72739c0,0.08657 -1.11837,0.31746 -3.35511,0.69267c-0.02886,-0.12273 -0.23449,-0.39692 -0.61691,-0.82256c-3.08815,0.59166 -4.75127,0.88748 -4.98938,0.88748l-1.64508,-4.44823l3.62568,-1.91565c0.58444,0.09383 1.49718,0.14074 2.73821,0.14074c0,-0.15874 0.02165,-0.63856 0.06495,-1.43946c-0.20925,0 -2.07801,0.13709 -5.60629,0.41127l-0.06492,-0.14074c0.49064,-2.28003 0.78646,-3.42004 0.88748,-3.42004zM373.40945,307.6128c0,0.0793 0.23089,0.9235 0.69267,2.53257h0.06495c0.90913,-0.59166 1.36369,-0.98129 1.36369,-1.16889l0.1407,-1.15804c-0.17317,0 -0.92717,-0.06856 -2.262,-0.20567z"/><path d="M386.21299,297.98037l0.07575,0.14074c0,0.41126 0.0938,2.00223 0.2814,4.77292c2.58308,-0.82254 4.02974,-1.25546 4.34,-1.29876l3.89626,4.18848c-1.63787,3.67258 -2.52896,5.62071 -2.67326,5.84439c-0.45456,-0.05054 -2.11408,-0.1227 -4.97855,-0.21647v0.50868c0,0.09383 -0.05051,0.14074 -0.15153,0.14074h-4.18847c-0.15152,0 -0.44014,-2.16458 -0.86584,-6.49375c-0.0938,-0.36798 -0.35716,-2.53618 -0.79008,-6.5046c2.4532,-0.57722 4.13797,-0.93798 5.05431,-1.08228zM386.93817,305.92443l0.2814,2.67328h2.17541l0.79008,-3.03043c-2.16459,0.18759 -3.24689,0.30664 -3.24689,0.35715z"/><path d="M400.28283,301.25972c2.74182,0.73596 4.1957,1.18331 4.36164,1.34205c1.508,2.13572 2.3558,3.36593 2.5434,3.69063c-0.97406,3.08814 -1.53325,4.63221 -1.67757,4.63221c-3.24688,0.7576 -4.94608,1.1364 -5.0976,1.1364c-2.68408,-1.56572 -4.11271,-2.43877 -4.28588,-2.61915c-0.0938,-2.91498 -0.1407,-4.52399 -0.1407,-4.82703c-0.0433,-0.08657 -0.06495,-0.1515 -0.06495,-0.19478c2.77068,-2.10688 4.20292,-3.16032 4.29672,-3.16032zM400.0772,305.22093c-0.04328,0.28862 -0.10821,1.33844 -0.19478,3.14949l2.4135,0.54115c0.57723,-1.80382 0.86585,-2.76707 0.86585,-2.88972c-1.91928,-0.57722 -2.94745,-0.86583 -3.08454,-0.86583z"/><path d="M413.60589,301.25972c0.22368,0.92356 0.37881,1.49357 0.46539,1.71003c3.18916,-0.72874 4.87393,-1.09312 5.05431,-1.09312c2.1718,3.12422 3.2577,4.75487 3.2577,4.89196l-2.48928,5.2816l-5.35735,-0.85501v0.16231c0.41848,3.21082 0.62773,4.91724 0.62773,5.11926c-0.05054,0 -0.07582,0.02527 -0.07582,0.07582c-0.5195,-0.05054 -0.90913,-0.07582 -1.16889,-0.07582h-0.93078c-0.54114,0 -1.3709,-0.02527 -2.48928,-0.07581c-0.10095,-0.30304 -0.87659,-4.91001 -2.32693,-13.82089c0.24532,-0.10109 2.05636,-0.54123 5.43312,-1.32042zM413.99548,305.68631c0.14432,1.65952 0.27419,2.48928 0.38964,2.48928c1.47914,0.51228 2.38466,0.76842 2.71656,0.76842l0.85501,-3.72309h-0.07582c-0.8442,0.05054 -2.13934,0.20567 -3.88544,0.46539z"/><path d="M425.00246,309.72327c1.96256,0.23089 2.94745,0.36077 2.95465,0.38963c-1.19052,2.79953 -1.85794,4.27144 -2.00223,4.41574c-0.98128,-0.12259 -1.47192,-0.2236 -1.47192,-0.30303c0.25976,-3.00156 0.41849,-4.50234 0.47622,-4.50234z"/></g><g data-paper-data="{&quot;origPos&quot;:null}"><path d="M172.39776,326.98205l0.07575,0.14074l0.56279,8.22543h0.06494l2.95467,-3.09537c1.73888,2.34496 2.62997,3.51745 2.67326,3.51745c0.75039,-3.67258 1.21938,-5.87686 1.40698,-6.61281c3.18916,0.6133 4.78374,0.98849 4.78374,1.12559c-1.91927,6.09693 -3.0196,9.54584 -3.301,10.34674c-0.67824,0.04328 -2.17902,0.18397 -4.50234,0.42207c-1.03179,-2.46763 -1.54768,-3.7339 -1.54768,-3.79884c-0.08658,0.00698 -0.62773,1.08567 -1.62344,3.23607h-0.06494c-3.09536,-0.20925 -4.64305,-0.39685 -4.64305,-0.5628c-1.73889,-7.66986 -2.60833,-11.60942 -2.60833,-11.81866v-0.14074c0,-0.1443 1.92287,-0.47259 5.76863,-0.98488z"/><path d="M192.24703,330.25058c3.26853,1.68116 5.07956,2.66243 5.43311,2.94382c-0.469,2.19346 -0.74678,3.32265 -0.83337,3.38759h-6.84009v0.11896l1.91566,2.37023l3.00878,-1.53687c0.29583,0.51228 0.72153,1.40698 1.2771,2.6841c-0.25975,0.08657 -2.15377,0.36435 -5.68204,0.83335c-2.9222,-1.92648 -4.39411,-2.9294 -4.41576,-3.00877c0.469,-3.74474 0.74678,-5.61711 0.83337,-5.61711c3.05207,-1.29875 4.81982,-2.02388 5.30324,-2.17539zM191.54354,332.86973c-0.05772,0.1443 -0.44014,0.71791 -1.14723,1.72083c0,0.30304 0.42571,0.45456 1.27711,0.45456c0,0.04328 0.61691,0.1479 1.85072,0.31386c0.33912,-0.46898 0.50867,-0.74317 0.50867,-0.82254c-0.10822,-0.64216 -0.34272,-0.96324 -0.70349,-0.96324z"/><path d="M198.66503,326.98205c2.20788,0.04328 3.82771,0.06492 4.8595,0.06492c0.0938,0 0.3788,4.43019 0.85501,13.29058c-0.36798,0.09383 -1.6523,0.33193 -3.85297,0.71431c-0.10822,0 -0.46537,-2.71294 -1.07147,-8.13883c-0.0505,-0.12985 -0.31386,-2.10684 -0.79008,-5.93097z"/><path d="M209.84509,330.25058c3.25409,0.6133 4.95691,0.96324 5.10843,1.04982v0.12985c-0.69988,1.97698 -1.04983,3.00156 -1.04983,3.07371h-0.06494c-0.18038,0 -1.05343,-0.2814 -2.61915,-0.8442c-0.87305,1.46472 -1.30958,2.24757 -1.30958,2.34858l2.16458,2.09965c1.67395,-1.57292 2.52535,-2.35939 2.55422,-2.35939c1.30597,1.71002 1.95895,2.66965 1.95895,2.87889c-0.71431,0.41128 -1.95895,1.21939 -3.73391,2.42434c-3.43448,-0.74317 -5.28881,-1.15805 -5.56299,-1.24464l-1.6992,-5.49805z"/><path d="M222.03176,330.25058c2.74181,0.73596 4.1957,1.1833 4.36165,1.34203c1.50799,2.13574 2.35579,3.36594 2.54339,3.69063c-0.97407,3.08814 -1.53324,4.63222 -1.67755,4.63222c-3.24688,0.7576 -4.94609,1.1364 -5.09761,1.1364c-2.68409,-1.56571 -4.11272,-2.43876 -4.28588,-2.61915c-0.0938,-2.91497 -0.1407,-4.52397 -0.1407,-4.82701c-0.0433,-0.08657 -0.06495,-0.1515 -0.06495,-0.19478c2.77067,-2.10686 4.20291,-3.16029 4.29671,-3.16029zM221.82611,334.21177c-0.0433,0.28862 -0.10824,1.33844 -0.19482,3.14949l2.41352,0.54114c0.57722,-1.80382 0.86583,-2.76706 0.86583,-2.88972c-1.91927,-0.57722 -2.94745,-0.86584 -3.08454,-0.86584z"/><path d="M241.94596,330.23975c1.76053,0.72874 3.27936,1.41419 4.55646,2.05635c-0.3319,4.2931 -0.54476,6.64168 -0.63856,7.04574c-2.12129,0.52671 -3.30821,0.79006 -3.56075,0.79006c0,-0.93798 -0.07215,-2.7887 -0.21645,-5.55216c-0.80089,0.0793 -1.20135,0.14786 -1.20135,0.20567c0,0.27418 0.0469,1.8399 0.1407,4.69716c0.0433,0 0.06495,0.02527 0.06495,0.07582c0,0.08657 -1.11476,0.32467 -3.34429,0.71431c-0.0938,-0.11547 -0.3788,-1.87239 -0.85501,-5.27077c-0.90191,0.23089 -1.35286,0.39685 -1.35286,0.49785l0.43292,4.41576c-0.08658,0.09383 -1.2735,0.47263 -3.56075,1.1364c-1.32761,-4.69715 -2.15737,-7.85023 -2.48927,-9.45924c2.50371,-0.6205 3.90348,-0.93076 4.1993,-0.93076c0.3319,1.31318 0.49785,2.07079 0.49785,2.27281h0.07575c1.21938,-1.12558 2.07079,-1.88319 2.55422,-2.27281h0.07575l2.27282,1.63425h0.07575c1.42141,-1.3709 2.17902,-2.05635 2.27281,-2.05635z"/><path d="M253.72132,330.25058c3.26853,1.68116 5.07956,2.66243 5.43312,2.94382c-0.469,2.19346 -0.74678,3.32265 -0.83337,3.38759h-6.8401v0.11896l1.91566,2.37023l3.00877,-1.53687c0.29583,0.51228 0.72153,1.40698 1.27711,2.6841c-0.25975,0.08657 -2.15377,0.36435 -5.68204,0.83335c-2.9222,-1.92648 -4.39411,-2.9294 -4.41576,-3.00877c0.469,-3.74474 0.74678,-5.61711 0.83337,-5.61711c3.05207,-1.29875 4.81982,-2.02388 5.30324,-2.17539zM253.01783,332.86973c-0.05772,0.1443 -0.44014,0.71791 -1.14723,1.72083c0,0.30304 0.42571,0.45456 1.27711,0.45456c0,0.04328 0.61691,0.1479 1.85072,0.31386c0.33912,-0.46898 0.50867,-0.74317 0.50867,-0.82254c-0.10822,-0.64216 -0.34272,-0.96324 -0.70349,-0.96324z"/><path d="M268.87343,326.97121l4.76209,0.8442l-0.45456,3.61485c0.94521,-0.05054 1.63786,-0.07582 2.078,-0.07582h0.69267l0.15152,-0.07581l0.07575,0.15163c-0.15152,2.19344 -0.2814,3.42725 -0.38963,3.70144l-0.15152,-0.0865c-0.10822,0 -1.08229,-0.05054 -2.9222,-0.15163c-0.10102,1.6956 -0.17678,3.7231 -0.22728,6.0825l-0.15153,0.07581c-2.32332,-0.15152 -3.70866,-0.28139 -4.15601,-0.38961l0.07575,-0.30306c0,-0.62772 0.10101,-2.57585 0.30304,-5.84437c-1.94813,-0.10821 -2.9222,-0.23809 -2.9222,-0.38964c0.10102,-2.4099 0.23089,-3.61485 0.38963,-3.61485l2.84644,0.54114v-0.93078c0,-0.7576 -0.02886,-1.78218 -0.08658,-3.07371c0.05772,0 0.08658,-0.02527 0.08658,-0.07581z"/><path d="M281.68779,330.25058c2.74181,0.73596 4.19569,1.1833 4.36164,1.34203c1.508,2.13574 2.3558,3.36594 2.54339,3.69063c-0.97406,3.08814 -1.53325,4.63222 -1.67756,4.63222c-3.24688,0.7576 -4.94609,1.1364 -5.09761,1.1364c-2.68409,-1.56571 -4.11272,-2.43876 -4.28588,-2.61915c-0.0938,-2.91497 -0.1407,-4.52397 -0.1407,-4.82701c-0.0433,-0.08657 -0.06494,-0.1515 -0.06494,-0.19478c2.77067,-2.10686 4.20291,-3.16029 4.29671,-3.16029zM281.48215,334.21177c-0.0433,0.28862 -0.10824,1.33844 -0.19482,3.14949l2.41352,0.54114c0.57722,-1.80382 0.86583,-2.76706 0.86583,-2.88972c-1.91927,-0.57722 -2.94745,-0.86584 -3.08454,-0.86584z"/><path d="M298.31184,326.97121l4.76209,0.8442l-0.45456,3.61485c0.9452,-0.05054 1.63786,-0.07582 2.078,-0.07582h0.69267l0.15152,-0.07581l0.07575,0.15163c-0.15152,2.19344 -0.2814,3.42725 -0.38963,3.70144l-0.15152,-0.0865c-0.10822,0 -1.08229,-0.05054 -2.9222,-0.15163c-0.10102,1.6956 -0.17678,3.7231 -0.22728,6.0825l-0.15152,0.07581c-2.32332,-0.15152 -3.70866,-0.28139 -4.15601,-0.38961l0.07575,-0.30306c0,-0.62772 0.10102,-2.57585 0.30304,-5.84437c-1.94813,-0.10821 -2.9222,-0.23809 -2.9222,-0.38964c0.10102,-2.4099 0.23089,-3.61485 0.38963,-3.61485l2.84644,0.54114v-0.93078c0,-0.7576 -0.02886,-1.78218 -0.08658,-3.07371c0.05772,0 0.08658,-0.02527 0.08658,-0.07581z"/><path d="M311.61322,326.97121c0.0433,0.06492 0.24533,2.04192 0.60609,5.93097c2.7851,-0.8514 4.26785,-1.2771 4.44823,-1.2771l2.75985,1.88319c-0.44735,4.11271 -0.73956,6.5154 -0.87665,7.20807l-3.83132,0.12985c0,-0.04328 -0.02525,-0.06492 -0.07575,-0.06492l0.07575,-0.27057c0,-0.58444 0.08658,-2.3594 0.25975,-5.32489c-1.05343,-0.04328 -1.83629,-0.06492 -2.34857,-0.06492h-0.27058c0.31026,3.29738 0.46539,5.09399 0.46539,5.38981l-3.63651,0.54114c-0.1371,-0.46178 -0.94521,-4.77291 -2.42434,-12.9334c0,-0.23088 0.56279,-0.41127 1.68838,-0.54115c1.42142,-0.40406 2.47485,-0.60609 3.1603,-0.60609z"/><path d="M326.58135,330.25058c3.26853,1.68116 5.07956,2.66243 5.43312,2.94382c-0.469,2.19346 -0.74678,3.32265 -0.83337,3.38759h-6.8401v0.11896l1.91566,2.37023l3.00878,-1.53687c0.29582,0.51228 0.72153,1.40698 1.2771,2.6841c-0.25975,0.08657 -2.15377,0.36435 -5.68204,0.83335c-2.9222,-1.92648 -4.39411,-2.9294 -4.41576,-3.00877c0.46899,-3.74474 0.74678,-5.61711 0.83337,-5.61711c3.05207,-1.29875 4.81982,-2.02388 5.30324,-2.17539zM325.87785,332.86973c-0.05772,0.1443 -0.44014,0.71791 -1.14723,1.72083c0,0.30304 0.4257,0.45456 1.2771,0.45456c0,0.04328 0.61691,0.1479 1.85072,0.31386c0.33912,-0.46898 0.50868,-0.74317 0.50868,-0.82254c-0.10822,-0.64216 -0.34272,-0.96324 -0.70349,-0.96324z"/><path d="M344.00628,326.96038c0,0.05054 0.02164,0.07581 0.06492,0.07581c0.05054,1.4647 0.12631,4.74045 0.2273,9.82723h0.06492l6.46129,-2.27283c0,0.05054 0.02527,0.07582 0.07582,0.07582l-0.21647,5.43312c0,0.09383 -3.35151,0.4113 -10.05451,0.95241c-0.15152,-0.7576 -0.86222,-5.25994 -2.13211,-13.50701c0.57,-0.09383 2.40629,-0.28865 5.50888,-0.58445z"/><path d="M357.84881,330.23975l0.07581,0.14074l-1.46109,7.74922h0.07581l3.7231,-1.09312v-4.3833c0.01438,-0.10095 0.06129,-0.15142 0.14074,-0.15142c2.79953,0.1948 4.35803,0.2922 4.67551,0.2922c0,0.05054 0.02527,0.07582 0.07581,0.07582c0,1.2338 -0.38962,3.79162 -1.16886,7.67345c0,0.22368 -1.11837,0.39323 -3.35512,0.50867c-0.11547,-0.13711 -0.21287,-0.42933 -0.29223,-0.87666c-2.86447,0.58444 -4.49872,0.87666 -4.90278,0.87666c-2.28725,-1.70281 -3.43087,-2.57946 -3.43087,-2.62996c0.38962,-5.11565 0.63495,-7.77087 0.73597,-7.96569h0.06492c1.82548,-0.05054 3.50664,-0.1227 5.04348,-0.21645z"/><path d="M378.27171,330.23975c1.76052,0.72874 3.27935,1.41419 4.55646,2.05635c-0.3319,4.2931 -0.54476,6.64168 -0.63855,7.04574c-2.1213,0.52671 -3.30822,0.79006 -3.56076,0.79006c0,-0.93798 -0.07215,-2.7887 -0.21645,-5.55216c-0.8009,0.0793 -1.20135,0.14786 -1.20135,0.20567c0,0.27418 0.04692,1.8399 0.14074,4.69716c0.04328,0 0.06492,0.02527 0.06492,0.07582c0,0.08657 -1.11477,0.32467 -3.3443,0.71431c-0.09383,-0.11547 -0.37883,-1.87239 -0.85501,-5.27077c-0.90192,0.23089 -1.35288,0.39685 -1.35288,0.49785l0.43293,4.41576c-0.08657,0.09383 -1.27348,0.47263 -3.56074,1.1364c-1.32762,-4.69715 -2.15738,-7.85023 -2.48928,-9.45924c2.5037,-0.6205 3.90346,-0.93076 4.19929,-0.93076c0.33192,1.31318 0.49787,2.07079 0.49787,2.27281h0.07582c1.21938,-1.12558 2.07078,-1.88319 2.5542,-2.27281h0.07582l2.27281,1.63425h0.07581c1.42142,-1.3709 2.17903,-2.05635 2.27283,-2.05635z"/><path d="M385.55555,330.23975c4.28588,0.59166 6.42883,0.95603 6.42883,1.09312c1.68838,1.45028 2.53257,2.22591 2.53257,2.32692c-0.68544,2.14294 -1.07507,3.4453 -1.16886,3.90709c0.68544,1.52244 1.07507,2.43156 1.16886,2.72739c0,0.08657 -1.11837,0.31746 -3.35511,0.69267c-0.0289,-0.12259 -0.23454,-0.39677 -0.6169,-0.82254c-3.08814,0.59164 -4.75127,0.88747 -4.98938,0.88747l-1.64508,-4.44823l3.62568,-1.91565c0.58444,0.09383 1.49718,0.14074 2.73822,0.14074c0,-0.15874 0.02164,-0.63856 0.06492,-1.43946c-0.20924,0 -2.078,0.13709 -5.60628,0.41127l-0.06493,-0.14074c0.49064,-2.28003 0.78647,-3.42003 0.88747,-3.42003zM387.80672,336.60364c0,0.0793 0.23088,0.9235 0.69266,2.53257h0.06493c0.90913,-0.59166 1.36368,-0.98128 1.36368,-1.16887l0.14074,-1.15806c-0.17316,0 -0.92716,-0.06856 -2.262,-0.20567z"/><path d="M409.56084,326.97121c2.5975,1.31318 3.93233,1.96978 4.00447,1.96978c0,0.11547 -0.54115,1.15808 -1.62343,3.12783h-0.07581c-0.08657,0 -1.33121,-0.58805 -3.7339,-1.76415l-1.223,1.63428c2.0708,0.9957 4.58533,2.26559 7.54359,3.80967c-1.34204,2.38826 -2.29446,3.97563 -2.85726,4.76209l-6.11496,0.54114c-2.79231,-1.88319 -4.26783,-2.85724 -4.42657,-2.92218v-0.07582c0,-0.20204 0.5664,-1.1292 1.6992,-2.78151h0.14074c0.44734,0.26697 1.85072,1.0354 4.21012,2.30529l1.42863,-1.62345c-4.33639,-2.20787 -6.73908,-3.45611 -7.20808,-3.74473v-0.06492c1.37812,-2.68409 2.12851,-4.04417 2.25117,-4.08025c3.586,-0.72874 5.58103,-1.09312 5.98509,-1.09312z"/><path d="M420.44872,326.97121c0.04328,0.06492 0.24531,2.04192 0.60607,5.93097c2.7851,-0.8514 4.26785,-1.2771 4.44823,-1.2771l2.75985,1.88319c-0.44734,4.11271 -0.73956,6.5154 -0.87666,7.20807l-3.8313,0.12985c0,-0.04328 -0.02527,-0.06492 -0.07582,-0.06492l0.07582,-0.27057c0,-0.58444 0.08658,-2.3594 0.25974,-5.32489c-1.05342,-0.04328 -1.83629,-0.06492 -2.34858,-0.06492h-0.27057c0.31026,3.29738 0.46539,5.09399 0.46539,5.38981l-3.63651,0.54114c-0.13711,-0.46178 -0.94522,-4.77291 -2.42433,-12.9334c0,-0.23088 0.56279,-0.41127 1.68837,-0.54115c1.42142,-0.40406 2.47486,-0.60609 3.16032,-0.60609z"/><path d="M433.64189,330.25058c2.7418,0.73596 4.19568,1.1833 4.36164,1.34203c1.508,2.13574 2.35579,3.36594 2.54338,3.69063c-0.97406,3.08814 -1.53325,4.63222 -1.67755,4.63222c-3.24688,0.7576 -4.94608,1.1364 -5.0976,1.1364c-2.68409,-1.56571 -4.11271,-2.43876 -4.28589,-2.61915c-0.09383,-2.91497 -0.14074,-4.52397 -0.14074,-4.82701c-0.04328,-0.08657 -0.06492,-0.1515 -0.06492,-0.19478c2.77066,-2.10686 4.2029,-3.16029 4.2967,-3.16029zM433.43622,334.21177c-0.04328,0.28862 -0.10821,1.33844 -0.19478,3.14949l2.41353,0.54114c0.57722,-1.80382 0.86583,-2.76706 0.86583,-2.88972c-1.91926,-0.57722 -2.94744,-0.86584 -3.08454,-0.86584z"/><path d="M446.96491,330.25058c0.22366,0.92355 0.37879,1.49355 0.46537,1.71001c3.18916,-0.72874 4.87393,-1.09312 5.05431,-1.09312c2.1718,3.12422 3.2577,4.75489 3.2577,4.89198l-2.48926,5.28159l-5.35737,-0.85503v0.16231c0.41849,3.21081 0.62774,4.91722 0.62774,5.11924c-0.05054,0 -0.07581,0.02527 -0.07581,0.07582c-0.5195,-0.05054 -0.90913,-0.07582 -1.16887,-0.07582h-0.93078c-0.54114,0 -1.3709,-0.02527 -2.48928,-0.07581c-0.10095,-0.30304 -0.87659,-4.91001 -2.32693,-13.82089c0.24532,-0.10109 2.05636,-0.54122 5.43312,-1.32039zM447.35452,334.67714c0.1443,1.65952 0.27418,2.48928 0.38964,2.48928c1.47913,0.51228 2.38464,0.76842 2.71654,0.76842l0.85503,-3.72309h-0.07582c-0.8442,0.05054 -2.13934,0.20567 -3.88544,0.46539z"/><path d="M461.61917,327.37165l0.04335,0.0865c-0.72154,6.3711 -1.1256,9.71901 -1.21218,10.0437c-1.52964,-0.14432 -2.49649,-0.24533 -2.90055,-0.30306v-0.04335l-0.69267,-9.04798c0.17318,-0.05766 1.76054,-0.30299 4.76211,-0.73597zM457.33328,337.7184c0.05054,0.0289 1.17613,0.11549 3.37675,0.25974l0.04335,0.0865c-0.33912,1.99142 -0.55558,2.98713 -0.64936,2.98713h-2.51093c-0.08657,0 -0.20201,-0.99571 -0.34633,-2.98713c-0.0289,0 -0.04335,-0.08658 -0.04335,-0.25974c0.08657,-0.0289 0.12985,-0.05774 0.12985,-0.0865z"/><path d="M467.87484,326.30019h0.41127c1.24102,0 2.05996,0.05047 2.4568,0.15142c0.57002,0.14432 1.07148,0.4221 1.5044,0.83337c0.32469,0.30304 0.58082,0.73236 0.76842,1.28793c0.1876,0.54836 0.2814,1.19052 0.2814,1.92648v1.11477h-1.07148v-0.46539c0,-0.49064 -0.10462,-0.90552 -0.31386,-1.24464c-0.20204,-0.34634 -0.50508,-0.6097 -0.90913,-0.79008c-0.52672,-0.23088 -1.11115,-0.34633 -1.75331,-0.34633h-0.30306v9.03715c0,0.87306 -0.11544,1.55491 -0.34633,2.04555c-0.23088,0.48342 -0.62772,0.87304 -1.19052,1.16887c-0.5628,0.28862 -1.1761,0.43292 -1.8399,0.43292c-0.78646,0 -1.41058,-0.22006 -1.87236,-0.66021c-0.45456,-0.44734 -0.68184,-1.03178 -0.68184,-1.75332c0,-0.7576 0.27418,-1.39254 0.82254,-1.90483c0.54836,-0.5195 1.26629,-0.77925 2.15377,-0.77925c0.56279,0 1.19052,0.16595 1.88319,0.49785z"/></g></g></g><path d="M14.21817,440.62134v-78.94468h92.1655v78.94468z" fill="url(#color-33)" stroke="none" stroke-width="0" stroke-linecap="butt"/><path d="M534.54816,440.62134v-78.94468h92.1655v78.94468z" data-paper-data="{&quot;index&quot;:null}" fill="url(#color-34)" stroke="none" stroke-width="0" stroke-linecap="butt"/><path d="M106.38367,-86.38953v83.2541h-92.1655v-83.2541z" data-paper-data="{&quot;index&quot;:null}" fill="url(#color-35)" stroke="none" stroke-width="0" stroke-linecap="butt"/><path d="M626.71365,-86.38953v83.2541h-92.1655v-83.2541z" data-paper-data="{&quot;index&quot;:null}" fill="url(#color-36)" stroke="none" stroke-width="0" stroke-linecap="butt"/><path d="M535.66481,-84.8132l-0.07542,85.44656l-429.48483,-0.14113l0.07542,-85.44656z" data-paper-data="{&quot;index&quot;:null,&quot;origRot&quot;:0}" fill="url(#color-37)" stroke="none" stroke-width="1.89892" stroke-linecap="butt"/><path d="M106.17998,440.76194l-0.07542,-81.02365l429.48484,-0.13382l0.07542,81.02365z" data-paper-data="{&quot;index&quot;:null,&quot;origRot&quot;:0}" fill="url(#color-38)" stroke="none" stroke-width="1.89892" stroke-linecap="butt"/></g></g></svg>