<svg version="1.1" xmlns="http://www.w3.org/2000/svg" xmlns:xlink="http://www.w3.org/1999/xlink" width="441.55828" height="91.66968" viewBox="0,0,441.55828,91.66968"><defs><linearGradient x1="25.5327" y1="70.2076" x2="25.5327" y2="149.819" gradientUnits="userSpaceOnUse" id="color-1"><stop offset="0" stop-color="#ffffff"/><stop offset="1" stop-color="#ffffff"/></linearGradient><radialGradient cx="68.4001" cy="80.7204" r="37.0101" gradientUnits="userSpaceOnUse" id="color-2"><stop offset="0" stop-color="#2ebdff"/><stop offset="1" stop-color="#18628c"/></radialGradient></defs><g transform="translate(-19.50356,-64.17846)"><g data-paper-data="{&quot;isPaintingLayer&quot;:true}" fill-rule="nonzero" stroke-linecap="butt" stroke-linejoin="miter" stroke-miterlimit="10" stroke-dasharray="" stroke-dashoffset="0" style="mix-blend-mode: normal"><path d="M25.5327,70.2076h429.5v79.6114h-429.5z" fill="#ffffff" stroke="url(#color-1)" stroke-width="12.05828"/><text transform="translate(25.1515,107.95944) scale(0.63783,0.67719)" font-size="22" xml:space="preserve" data-paper-data="{&quot;origPos&quot;:null}" fill="#2392d1" fill-rule="nonzero" stroke="none" stroke-width="1" stroke-linecap="butt" stroke-linejoin="miter" stroke-miterlimit="10" stroke-dasharray="" stroke-dashoffset="0" font-family="Sans Serif" font-weight="400" text-anchor="start" style="mix-blend-mode: normal"><tspan x="0" dy="0">The leader of the Toad Brigade is joining the adventure! Usually</tspan><tspan x="0" dy="24.86px">he's unable to jump, but with his new hover springboard, he can</tspan><tspan x="0" dy="24.86px">get around with ease!</tspan></text><g><path d="M94.1887,73.5093c2.9365,0.2443 4.4096,0.4391 4.4096,0.5759l1.2977,11.4826c0,0.0879 -1.2977,0.3022 -3.8926,0.6438l-0.0585,-0.1269v-1.0439c-2.2342,0.6049 -3.7757,0.995 -4.6049,1.1708c-1.9805,-2.7997 -3.0145,-4.2827 -3.1119,-4.468c1.4536,-2.6439 2.2338,-3.9905 2.3317,-4.0195l4.0874,0.1948c-0.0879,-0.4975 -0.2537,-1.9705 -0.517,-4.4096zM41.1266,75.324c-0.927,1.9026 -1.3951,2.8876 -1.3951,2.966h-0.0584c-0.4196,-0.1174 -1.3272,-0.5269 -2.7418,-1.2198l-2.3217,1.6294c0,2.0195 0.1169,3.0245 0.3417,3.0245c0.1459,0.0779 1.1219,0.468 2.9166,1.1703c0.6928,-0.6828 1.3856,-1.3461 2.0979,-1.98c0.1264,0.1169 0.7118,1.0435 1.7463,2.7897v0.1758c-0.0685,0 -1.5025,0.7808 -4.3122,2.3317c-3.5905,-1.1998 -5.4341,-1.8436 -5.5315,-1.9221l-1.7463,-5.7657c1.6389,-2.3317 2.4776,-3.4925 2.507,-3.4925c0.0685,0 1.4536,-0.507 4.1364,-1.512c2.9076,1.1314 4.3611,1.7363 4.3611,1.8047zM65.7016,73.6462c-0.1658,2.4875 -0.2927,3.7267 -0.3806,3.7267h-0.0585c-2.6828,-0.2147 -4.1853,-0.3416 -4.4875,-0.3806v8.6534c0,0.1563 -0.6149,0.2637 -1.8341,0.3122c0,0.0489 -0.6929,0.1268 -2.078,0.2537l-0.0684,-0.1269c0.3022,-5.1608 0.488,-8.2143 0.5754,-9.1508c-1.024,0.1658 -2.5459,0.3706 -4.5459,0.6244c-0.5954,-2.2148 -0.8881,-3.3462 -0.8881,-3.4051c0,-0.0875 4.5659,-0.2928 13.7073,-0.6339zM85.0083,77.4509c1.522,1.3072 2.2833,2.0095 2.2833,2.0974c-0.6149,1.9315 -0.9661,3.1024 -1.054,3.522c0.6149,1.3756 0.966,2.1948 1.054,2.4585c0,0.0779 -1.005,0.2827 -3.0245,0.6244c-0.0295,-0.1074 -0.2148,-0.3612 -0.556,-0.7418c-2.7807,0.537 -4.2832,0.8002 -4.4975,0.8002l-1.483,-4.0095l3.2682,-1.7268c0.527,0.0875 1.3462,0.1269 2.4681,0.1269c0,-0.1463 0.0195,-0.5759 0.0589,-1.2977c-0.1853,0 -1.8731,0.1269 -5.0539,0.3706l-0.0585,-0.1268c0.4391,-2.0585 0.7123,-3.083 0.8002,-3.083c3.8632,0.5365 5.7947,0.8587 5.7947,0.9856zM70.6187,76.4753c2.468,0.6634 3.7852,1.0635 3.9316,1.2098c1.3561,1.9216 2.1269,3.034 2.2927,3.3267c-0.8781,2.7802 -1.3856,4.1753 -1.5125,4.1753c-2.9266,0.6829 -4.4581,1.0245 -4.5949,1.0245c-2.4196,-1.4146 -3.7073,-2.1953 -3.8632,-2.3611c-0.0879,-2.6239 -0.1268,-4.078 -0.1268,-4.3512c-0.039,-0.0779 -0.0585,-0.1363 -0.0585,-0.1753c2.4975,-1.9026 3.7852,-2.8487 3.8732,-2.8487zM70.4334,80.0458c-0.039,0.2637 -0.0979,1.2098 -0.1758,2.8391l2.1758,0.4876c0.517,-1.6289 0.7802,-2.4976 0.7802,-2.6044c-1.7268,-0.5175 -2.6533,-0.7808 -2.7802,-0.7808zM92.3155,80.5043c0.6539,2.01 1.0635,3.1124 1.2293,3.3072l1.9416,-1.6878c-0.2048,-1.1608 -0.3512,-1.7463 -0.4491,-1.7463h-2.5949c-0.0879,0.01 -0.1269,0.0585 -0.1269,0.1269zM81.867,84.4848h0.0584c0.8197,-0.5364 1.2293,-0.8876 1.2293,-1.0534l0.1269,-1.044c-0.1559,0 -0.8387,-0.0584 -2.039,-0.1853c0,0.068 0.2048,0.8292 0.6244,2.2827zM46.0043,83.4409l0.0394,0.0779c-0.3027,1.7952 -0.498,2.6928 -0.5854,2.6928h-2.2637c-0.0779,0 -0.1853,-0.8976 -0.3122,-2.6928c-0.029,0 -0.039,-0.0779 -0.039,-0.2338c0.0784,-0.0294 0.1174,-0.0489 0.1174,-0.0784c0.0485,0.0295 1.0634,0.1074 3.0435,0.2343z" fill="#000000" stroke="#dbf1ff" stroke-width="4.49551"/><path d="M94.1887,73.5093c2.9365,0.2443 4.4096,0.4391 4.4096,0.5759l1.2977,11.4826c0,0.0879 -1.2977,0.3022 -3.8926,0.6438l-0.0585,-0.1269v-1.0439c-2.2342,0.6049 -3.7757,0.995 -4.6049,1.1708c-1.9805,-2.7997 -3.0145,-4.2827 -3.1119,-4.468c1.4536,-2.6439 2.2338,-3.9905 2.3317,-4.0195l4.0874,0.1948c-0.0879,-0.4975 -0.2537,-1.9705 -0.517,-4.4096zM41.1266,75.324c-0.927,1.9026 -1.3951,2.8876 -1.3951,2.966h-0.0584c-0.4196,-0.1174 -1.3272,-0.5269 -2.7418,-1.2198l-2.3217,1.6294c0,2.0195 0.1169,3.0245 0.3417,3.0245c0.1459,0.0779 1.1219,0.468 2.9166,1.1703c0.6928,-0.6828 1.3856,-1.3461 2.0979,-1.98c0.1264,0.1169 0.7118,1.0435 1.7463,2.7897v0.1758c-0.0685,0 -1.5025,0.7808 -4.3122,2.3317c-3.5905,-1.1998 -5.4341,-1.8436 -5.5315,-1.9221l-1.7463,-5.7657c1.6389,-2.3317 2.4776,-3.4925 2.507,-3.4925c0.0685,0 1.4536,-0.507 4.1364,-1.512c2.9076,1.1314 4.3611,1.7363 4.3611,1.8047zM65.7016,73.6462c-0.1658,2.4875 -0.2927,3.7267 -0.3806,3.7267h-0.0585c-2.6828,-0.2147 -4.1853,-0.3416 -4.4875,-0.3806v8.6534c0,0.1563 -0.6149,0.2637 -1.8341,0.3122c0,0.0489 -0.6929,0.1268 -2.078,0.2537l-0.0684,-0.1269c0.3022,-5.1608 0.488,-8.2143 0.5754,-9.1508c-1.024,0.1658 -2.5459,0.3706 -4.5459,0.6244c-0.5954,-2.2148 -0.8881,-3.3462 -0.8881,-3.4051c0,-0.0875 4.5659,-0.2928 13.7073,-0.6339zM85.0083,77.4509c1.522,1.3072 2.2833,2.0095 2.2833,2.0974c-0.6149,1.9315 -0.9661,3.1024 -1.054,3.522c0.6149,1.3756 0.966,2.1948 1.054,2.4585c0,0.0779 -1.005,0.2827 -3.0245,0.6244c-0.0295,-0.1074 -0.2148,-0.3612 -0.556,-0.7418c-2.7807,0.537 -4.2832,0.8002 -4.4975,0.8002l-1.483,-4.0095l3.2682,-1.7268c0.527,0.0875 1.3462,0.1269 2.4681,0.1269c0,-0.1463 0.0195,-0.5759 0.0589,-1.2977c-0.1853,0 -1.8731,0.1269 -5.0539,0.3706l-0.0585,-0.1268c0.4391,-2.0585 0.7123,-3.083 0.8002,-3.083c3.8632,0.5365 5.7947,0.8587 5.7947,0.9856zM70.6187,76.4753c2.468,0.6634 3.7852,1.0635 3.9316,1.2098c1.3561,1.9216 2.1269,3.034 2.2927,3.3267c-0.8781,2.7802 -1.3856,4.1753 -1.5125,4.1753c-2.9266,0.6829 -4.4581,1.0245 -4.5949,1.0245c-2.4196,-1.4146 -3.7073,-2.1953 -3.8632,-2.3611c-0.0879,-2.6239 -0.1268,-4.078 -0.1268,-4.3512c-0.039,-0.0779 -0.0585,-0.1363 -0.0585,-0.1753c2.4975,-1.9026 3.7852,-2.8487 3.8732,-2.8487zM70.4334,80.0458c-0.039,0.2637 -0.0979,1.2098 -0.1758,2.8391l2.1758,0.4876c0.517,-1.6289 0.7802,-2.4976 0.7802,-2.6044c-1.7268,-0.5175 -2.6533,-0.7808 -2.7802,-0.7808zM92.3155,80.5043c0.6539,2.01 1.0635,3.1124 1.2293,3.3072l1.9416,-1.6878c-0.2048,-1.1608 -0.3512,-1.7463 -0.4491,-1.7463h-2.5949c-0.0879,0.01 -0.1269,0.0585 -0.1269,0.1269zM81.867,84.4848h0.0584c0.8197,-0.5364 1.2293,-0.8876 1.2293,-1.0534l0.1269,-1.044c-0.1559,0 -0.8387,-0.0584 -2.039,-0.1853c0,0.068 0.2048,0.8292 0.6244,2.2827zM46.0043,83.4409l0.0394,0.0779c-0.3027,1.7952 -0.498,2.6928 -0.5854,2.6928h-2.2637c-0.0779,0 -0.1853,-0.8976 -0.3122,-2.6928c-0.029,0 -0.039,-0.0779 -0.039,-0.2338c0.0784,-0.0294 0.1174,-0.0489 0.1174,-0.0784c0.0485,0.0295 1.0634,0.1074 3.0435,0.2343z" fill="url(#color-2)" stroke="none" stroke-width="0.4995"/></g></g></g></svg>