<svg version="1.1" xmlns="http://www.w3.org/2000/svg" xmlns:xlink="http://www.w3.org/1999/xlink" width="774.35389" height="787.3107" viewBox="0,0,774.35389,787.3107"><defs><linearGradient x1="-600.4206" y1="-259.59262" x2="-644.76099" y2="1441.27505" gradientUnits="userSpaceOnUse" id="color-1"><stop offset="0" stop-color="#001966"/><stop offset="1" stop-color="#006666"/></linearGradient><linearGradient x1="231.4342" y1="84.62732" x2="231.4342" y2="669.65374" gradientUnits="userSpaceOnUse" id="color-2"><stop offset="0" stop-color="#edf3f8"/><stop offset="1" stop-color="#cedee9"/></linearGradient><linearGradient x1="226.7213" y1="-60.56782" x2="393.1443" y2="-60.56782" gradientUnits="userSpaceOnUse" id="color-3"><stop offset="0" stop-color="#e2524b"/><stop offset="1" stop-color="#ff6767"/></linearGradient><linearGradient x1="311.2718" y1="320.82473" x2="311.2718" y2="400.79225" gradientUnits="userSpaceOnUse" id="color-4"><stop offset="0" stop-color="#ff4040"/><stop offset="1" stop-color="#c33131"/></linearGradient><linearGradient x1="168.07455" y1="334.09549" x2="168.07455" y2="649.75753" gradientUnits="userSpaceOnUse" id="color-5"><stop offset="0" stop-color="#edf3f8"/><stop offset="1" stop-color="#cedee9"/></linearGradient><linearGradient x1="151.33639" y1="430.89864" x2="151.33639" y2="675.01034" gradientUnits="userSpaceOnUse" id="color-6"><stop offset="0" stop-color="#ff6767"/><stop offset="1" stop-color="#e2524b"/></linearGradient><linearGradient x1="-101.73348" y1="632.92198" x2="-101.73348" y2="746.56024" gradientUnits="userSpaceOnUse" id="color-7"><stop offset="0" stop-color="#ff6767"/><stop offset="1" stop-color="#e2524b"/></linearGradient><linearGradient x1="-181.70102" y1="595.04275" x2="-17.55681" y2="595.04275" gradientUnits="userSpaceOnUse" id="color-8"><stop offset="0" stop-color="#e2524b"/><stop offset="1" stop-color="#ff6767"/></linearGradient><linearGradient x1="185.12715" y1="484.31237" x2="185.12715" y2="806.70801" gradientUnits="userSpaceOnUse" id="color-9"><stop offset="0" stop-color="#cedee9"/><stop offset="1" stop-color="#b0c6d8"/></linearGradient><linearGradient x1="-860.36214" y1="644.80337" x2="-860.36214" y2="758.44172" gradientUnits="userSpaceOnUse" id="color-10"><stop offset="0" stop-color="#ff6767"/><stop offset="1" stop-color="#e2524b"/></linearGradient><linearGradient x1="202.94928" y1="511.04557" x2="202.94928" y2="776.4963" gradientUnits="userSpaceOnUse" id="color-11"><stop offset="0" stop-color="#008be8"/><stop offset="1" stop-color="#7fb1d9"/></linearGradient><linearGradient x1="350.17663" y1="267.9342" x2="350.17663" y2="319.08684" gradientUnits="userSpaceOnUse" id="color-12"><stop offset="0" stop-color="#ffffff"/><stop offset="1" stop-color="#c7c7c7"/></linearGradient><linearGradient x1="323.63167" y1="289.62233" x2="323.63167" y2="322.58157" gradientUnits="userSpaceOnUse" id="color-13"><stop offset="0" stop-color="#18c100"/><stop offset="1" stop-color="#13a700"/></linearGradient><linearGradient x1="312.04461" y1="314.65612" x2="312.04461" y2="322.46693" gradientUnits="userSpaceOnUse" id="color-14"><stop offset="0" stop-color="#ffffff"/><stop offset="1" stop-color="#c2c2c2"/></linearGradient><linearGradient x1="379.64286" y1="285.09126" x2="379.64286" y2="324.34193" gradientUnits="userSpaceOnUse" id="color-15"><stop offset="0" stop-color="#18c100"/><stop offset="1" stop-color="#13a700"/></linearGradient><linearGradient x1="381.51273" y1="317.53011" x2="381.51273" y2="325.43257" gradientUnits="userSpaceOnUse" id="color-16"><stop offset="0" stop-color="#ffffff"/><stop offset="1" stop-color="#c2c2c2"/></linearGradient><linearGradient x1="391.05653" y1="316.01038" x2="391.05653" y2="324.73476" gradientUnits="userSpaceOnUse" id="color-17"><stop offset="0" stop-color="#ffffff"/><stop offset="1" stop-color="#c2c2c2"/></linearGradient><linearGradient x1="400.44373" y1="318.99116" x2="400.44373" y2="325.22963" gradientUnits="userSpaceOnUse" id="color-18"><stop offset="0" stop-color="#ffffff"/><stop offset="1" stop-color="#c2c2c2"/></linearGradient><linearGradient x1="386.83882" y1="256.56906" x2="386.83882" y2="288.49298" gradientUnits="userSpaceOnUse" id="color-19"><stop offset="0" stop-color="#18c100"/><stop offset="1" stop-color="#13a700"/></linearGradient><linearGradient x1="360.3865" y1="271.17994" x2="360.3865" y2="276.52448" gradientUnits="userSpaceOnUse" id="color-20"><stop offset="0" stop-color="#ffffff"/><stop offset="1" stop-color="#c2c2c2"/></linearGradient><linearGradient x1="362.87722" y1="280.39077" x2="362.87722" y2="285.73533" gradientUnits="userSpaceOnUse" id="color-21"><stop offset="0" stop-color="#ffffff"/><stop offset="1" stop-color="#c2c2c2"/></linearGradient><linearGradient x1="367.12809" y1="261.96912" x2="367.12809" y2="267.31368" gradientUnits="userSpaceOnUse" id="color-22"><stop offset="0" stop-color="#ffffff"/><stop offset="1" stop-color="#c2c2c2"/></linearGradient><linearGradient x1="316.72794" y1="265.90412" x2="316.72794" y2="290.81667" gradientUnits="userSpaceOnUse" id="color-23"><stop offset="0" stop-color="#18c100"/><stop offset="1" stop-color="#13a700"/></linearGradient><linearGradient x1="326.59995" y1="275.36668" x2="326.59995" y2="280.71124" gradientUnits="userSpaceOnUse" id="color-24"><stop offset="0" stop-color="#ffffff"/><stop offset="1" stop-color="#c2c2c2"/></linearGradient><linearGradient x1="324.29724" y1="284.57752" x2="324.29724" y2="289.92204" gradientUnits="userSpaceOnUse" id="color-25"><stop offset="0" stop-color="#ffffff"/><stop offset="1" stop-color="#c2c2c2"/></linearGradient><linearGradient x1="320.94786" y1="266.57451" x2="320.94786" y2="271.91909" gradientUnits="userSpaceOnUse" id="color-26"><stop offset="0" stop-color="#ffffff"/><stop offset="1" stop-color="#c2c2c2"/></linearGradient><linearGradient x1="339.43612" y1="204.7536" x2="377.98903" y2="204.7536" gradientUnits="userSpaceOnUse" id="color-27"><stop offset="0" stop-color="#fff700"/><stop offset="1" stop-color="#db9600"/></linearGradient><radialGradient cx="350.62754" cy="203.15751" r="2.98478" gradientUnits="userSpaceOnUse" id="color-28"><stop offset="0" stop-color="#ffffff"/><stop offset="1" stop-color="#5242ad"/></radialGradient><linearGradient x1="343.01146" y1="209.03075" x2="343.01146" y2="269.65069" gradientUnits="userSpaceOnUse" id="color-29"><stop offset="0" stop-color="#18c100"/><stop offset="1" stop-color="#13a700"/></linearGradient><linearGradient x1="-115.49841" y1="47.5287" x2="-115.49841" y2="148.47623" gradientUnits="userSpaceOnUse" id="color-30"><stop offset="0" stop-color="#000000"/><stop offset="1" stop-color="#000000" stop-opacity="0"/></linearGradient></defs><g transform="translate(195.8327,60.56782)"><g data-paper-data="{&quot;isPaintingLayer&quot;:true}" fill-rule="nonzero" stroke-linejoin="miter" stroke-miterlimit="10" stroke-dasharray="" stroke-dashoffset="0" style="mix-blend-mode: normal"><path d="M-10.40622,-28.97878l513.87967,-13.49958l-0.19916,421.92042l-0.78565,0.0954l-525.96351,-0.19887z" fill="url(#color-1)" stroke="#000000" stroke-width="2.39335" stroke-linecap="butt"/><path d="M456.20458,328.79445c28.96122,-20.24459 66.57706,-34.43922 108.60674,-39.61975c-0.06669,30.1413 -0.14001,60.28233 -0.19243,90.42232c-5.57548,0.10933 -152.21375,22.04003 -165.3043,25.96849c7.23098,-29.72378 27.64924,-56.33108 56.88999,-76.77105z" data-paper-data="{&quot;origPos&quot;:null}" fill="#718399" stroke="none" stroke-width="1" stroke-linecap="butt"/><path d="M92.65684,157.50005l-1.18814,-1.18814" data-paper-data="{&quot;origPos&quot;:null}" fill="none" stroke="#cccccc" stroke-width="2" stroke-linecap="round"/><path d="M-35.26645,532.55684l1.18814,1.18814" data-paper-data="{&quot;origPos&quot;:null}" fill="none" stroke="#cccccc" stroke-width="2" stroke-linecap="round"/><path d="M504.54608,450.57507l-1.18814,-1.18813" data-paper-data="{&quot;origPos&quot;:null}" fill="none" stroke="#cccccc" stroke-width="2" stroke-linecap="round"/><path d="M146.91534,552.35921l1.18814,1.18814" data-paper-data="{&quot;origPos&quot;:null}" fill="none" stroke="#cccccc" stroke-width="2" stroke-linecap="round"/><path d="M-144.97155,220.86762l-1.18814,-1.18814" data-paper-data="{&quot;origPos&quot;:null}" fill="none" stroke="#cccccc" stroke-width="2" stroke-linecap="round"/><path d="M30.08135,13.73484c56.2704,0 107.2615,15.97655 144.18499,41.78696c36.92349,25.81041 59.77938,61.45468 59.77938,100.79008c0,39.33541 -22.8559,74.97969 -59.77938,100.79008c-36.92349,25.81041 -87.91459,41.78696 -144.18499,41.78696c-56.2704,0 -107.2615,-15.97655 -144.18499,-41.78696c-36.92349,-25.81041 -59.77938,-61.45468 -59.77938,-100.79008c0,-39.33541 22.8559,-74.97968 59.77938,-100.79008c36.92349,-25.8104 87.91459,-41.78695 144.18499,-41.78695z" data-paper-data="{&quot;origPos&quot;:null}" fill="#718399" stroke="none" stroke-width="1" stroke-linecap="butt"/><path d="M283.55156,-49.63273c56.2704,0 107.2615,15.97655 144.18499,41.78696c36.92349,25.81041 59.77938,61.45467 59.77938,100.79008c0,39.33542 -22.8559,74.97969 -59.77938,100.79008c-36.92349,25.81041 -87.91458,41.78696 -144.18499,41.78696c-56.2704,0 -107.2615,-15.97655 -144.18499,-41.78696c-36.92349,-25.81041 -59.77938,-61.45468 -59.77938,-100.79008c0,-39.33541 22.8559,-74.97968 59.77938,-100.79008c36.92349,-25.81041 87.91459,-41.78696 144.18499,-41.78696z" data-paper-data="{&quot;origPos&quot;:null}" fill="#718399" stroke="none" stroke-width="1" stroke-linecap="butt"/><path d="M75.62683,75.12217c4.91891,0 9.37443,4.3288 12.59826,11.31904c3.2278,6.99023 5.22387,16.64192 5.22387,27.29558c0,10.65367 -1.99609,20.30535 -5.22387,27.29557c-3.22382,6.99023 -7.67936,11.31904 -12.59826,11.31904c-4.91891,0 -9.37443,-4.3288 -12.59826,-11.31903c-3.2278,-6.99023 -5.22387,-16.64191 -5.22387,-27.29557c0,-10.65367 1.99609,-20.30535 5.22387,-27.29557c3.22382,-6.99023 7.67936,-11.31903 12.59826,-11.31903z" data-paper-data="{&quot;origPos&quot;:null}" fill="#000000" stroke="none" stroke-width="1" stroke-linecap="butt"/><path d="M158.79674,73.14192c4.91891,0 9.37444,4.3288 12.59826,11.31904c3.22779,6.99023 5.22387,16.64192 5.22387,27.29558c0,10.65367 -1.99608,20.30535 -5.22387,27.29557c-3.22382,6.99023 -7.67935,11.31904 -12.59826,11.31904c-4.91891,0 -9.37443,-4.3288 -12.59826,-11.31903c-3.22779,-6.99023 -5.22387,-16.64191 -5.22387,-27.29557c0,-10.65367 1.99608,-20.30535 5.22387,-27.29558c3.22382,-6.99023 7.67935,-11.31903 12.59826,-11.31903z" data-paper-data="{&quot;origPos&quot;:null}" fill="#000000" stroke="none" stroke-width="1" stroke-linecap="butt"/><path d="M231.4342,84.62732h155.72661v585.02647h-155.72661z" data-paper-data="{&quot;origPos&quot;:null}" fill="url(#color-2)" stroke="none" stroke-width="1.11058" stroke-linecap="butt"/><path d="M226.7213,93.05308l81.0777,-153.6209l85.34529,153.62091z" data-paper-data="{&quot;origPos&quot;:null}" fill="url(#color-3)" stroke="none" stroke-width="1.06271" stroke-linecap="round"/><path d="M185.00714,320.82473h252.52929v79.96751h-252.52929z" data-paper-data="{&quot;origPos&quot;:null}" fill="url(#color-4)" stroke="none" stroke-width="1.06271" stroke-linecap="butt"/><path d="M184.90975,384.60148l63.13232,-50.50594h130.47344l54.71473,58.92352l4.2088,256.73847h-269.36447z" data-paper-data="{&quot;origPos&quot;:null}" fill="url(#color-5)" stroke="none" stroke-width="1.06271" stroke-linecap="round"/><path d="M227.09551,430.89864h168.35299l54.71473,244.1117h-298.82682z" data-paper-data="{&quot;origPos&quot;:null}" fill="url(#color-6)" stroke="none" stroke-width="1.06271" stroke-linecap="round"/><path d="M-76.48038,696.05423l155.72621,-63.13232h315.66201l101.01188,4.2088l68.62748,24.7822c0,12.32791 0,24.65582 0,36.98374c0,0.26715 0,0.53427 0,0.80142c-6.65142,-1.25679 -16.29315,7.27742 -24.14024,7.99866c-9.08173,0.83474 -18.22678,-0.75187 -27.34592,-0.87914c-37.17964,-0.51891 -69.84127,7.51164 -106.31054,12.55976c-27.38171,3.7902 -56.38502,3.878 -83.89353,5.31712c-52.74568,2.77608 -105.50797,1.92549 -158.31759,1.92549c-69.04821,0 -136.98832,0.10595 -205.7934,-7.33138c-1.54198,-0.16669 -25.38408,-3.13494 -44.11539,-5.45644z" data-paper-data="{&quot;origPos&quot;:null}" fill="url(#color-7)" stroke="none" stroke-width="1.06271" stroke-linecap="butt"/><path d="M-101.73348,595.04275l69.54661,125.18337c-3.02081,-0.29837 -6.0431,-0.61068 -9.0671,-0.93754c-2.52258,-0.27267 -64.72575,-8.04309 -66.60086,-8.2138c-17.81687,-1.62206 -35.7493,-1.77454 -53.60477,-2.86675z" data-paper-data="{&quot;origPos&quot;:null}" fill="url(#color-8)" stroke="none" stroke-width="1.06271" stroke-linecap="round"/><path d="M185.12715,590.41703l115.74286,-106.10465l115.74246,106.10465v127.5178c-3.25998,0.49976 -6.54521,0.98355 -9.86192,1.44265c-27.38171,3.7902 -56.38501,3.87799 -83.89352,5.31711c-45.89064,2.4153 -91.79386,2.08533 -137.72987,1.95876z" data-paper-data="{&quot;origPos&quot;:null}" fill="url(#color-9)" stroke="none" stroke-width="1.26431" stroke-linecap="butt"/><path d="M-111.1915,703.72693l2.23053,7.2491c-22.86355,-2.00428 -45.91078,-1.67184 -68.73511,-4.09002c-6.11144,-0.64748 -12.12919,-1.91638 -18.13662,-3.26088c0.02405,-10.14046 0.06077,-20.28224 0.10538,-30.42508z" data-paper-data="{&quot;origPos&quot;:null}" fill="url(#color-10)" stroke="none" stroke-width="1.06271" stroke-linecap="butt"/><path d="M202.94928,598.40892l96.90344,-87.36333l96.90306,87.36333l0.81741,122.10109c-24.62715,2.69378 -50.26228,2.90522 -74.71618,4.18452c-39.95526,2.10291 -79.92007,2.12477 -119.90774,2.0117z" data-paper-data="{&quot;origPos&quot;:null}" fill="url(#color-11)" stroke="none" stroke-width="1.26431" stroke-linecap="round"/><path d="" data-paper-data="{&quot;origPos&quot;:null}" fill="#000000" stroke="none" stroke-width="1" stroke-linecap="butt"/><path d="" data-paper-data="{&quot;origPos&quot;:null}" fill="#000000" stroke="none" stroke-width="1" stroke-linecap="butt"/><g data-paper-data="{&quot;origPos&quot;:null}"><g data-paper-data="{&quot;origPos&quot;:null}"><path d="M226.35765,305.02849h8.83542v12.92579h-8.83542z" data-paper-data="{&quot;origPos&quot;:null}" fill="#c673f8" stroke="none" stroke-width="0.27541" stroke-linecap="butt"/><path d="M228.13989,315.09405c1.33507,-0.04278 2.62105,-0.24792 3.84482,0.18892c1.16279,0.41704 2.54381,0.98379 3.10897,2.204c0.50616,1.22774 0.54536,3.26065 -0.38178,4.02977c-1.23726,1.02537 -3.0456,0.10457 -4.58148,0.18892c-1.37111,-0.00118 -2.75729,0.18892 -4.14463,0.06298c-1.01229,-0.09188 -2.05865,-0.31328 -2.95411,-0.87012c-0.87131,-0.54259 -2.11807,-1.46576 -2.11807,-2.404c0,-0.93824 0.80913,-1.78816 2.11807,-2.40401c1.30775,-0.61467 3.38898,-0.92557 5.10822,-0.99646z" data-paper-data="{&quot;origPos&quot;:null}" fill="#c673f8" stroke="none" stroke-width="0.29746" stroke-linecap="round"/><path d="M218.84108,319.91159l2.18143,-1.9632l0.65466,1.90896z" data-paper-data="{&quot;origPos&quot;:null}" fill="#ffffff" stroke="none" stroke-width="0.27541" stroke-linecap="round"/><path d="M220.78925,322.60864l0.75249,-2.83688l1.59212,1.24003z" data-paper-data="{&quot;origPos&quot;:null}" fill="#ffffff" stroke="none" stroke-width="0.27541" stroke-linecap="round"/><path d="M222.96669,323.96155l-0.0998,-2.93312l2.14143,0.58813z" data-paper-data="{&quot;origPos&quot;:null}" fill="#ffffff" stroke="none" stroke-width="0.27541" stroke-linecap="round"/><path d="M237.05091,305.62262h8.83541v12.92579h-8.83541z" data-paper-data="{&quot;origPos&quot;:null}" fill="#c673f8" stroke="none" stroke-width="0.27541" stroke-linecap="butt"/><path d="M238.83315,315.68816c1.33507,-0.04278 2.62105,-0.24792 3.84482,0.18892c1.16279,0.41704 2.54382,0.98379 3.10898,2.204c0.50616,1.22774 0.54536,3.26065 -0.38179,4.02977c-1.23726,1.02537 -3.0456,0.10457 -4.58148,0.18892c-1.37111,-0.00118 -2.75729,0.18892 -4.14463,0.06299c-1.01229,-0.09188 -2.05865,-0.31328 -2.95411,-0.87013c-0.87131,-0.54259 -2.11807,-1.46576 -2.11807,-2.404c0,-0.93824 0.80913,-1.78816 2.11807,-2.404c1.30775,-0.61467 3.38898,-0.92557 5.10822,-0.99646z" data-paper-data="{&quot;origPos&quot;:null}" fill="#c673f8" stroke="none" stroke-width="0.29746" stroke-linecap="round"/><path d="M229.73238,320.50561l2.18142,-1.9632l0.65466,1.90895z" data-paper-data="{&quot;origPos&quot;:null}" fill="#ffffff" stroke="none" stroke-width="0.27541" stroke-linecap="round"/><path d="M231.48251,323.00471l0.75249,-2.83689l1.59212,1.24003z" data-paper-data="{&quot;origPos&quot;:null}" fill="#ffffff" stroke="none" stroke-width="0.27541" stroke-linecap="round"/><path d="M233.65997,324.55564l-0.0998,-2.93313l2.14143,0.58814z" data-paper-data="{&quot;origPos&quot;:null}" fill="#ffffff" stroke="none" stroke-width="0.27541" stroke-linecap="round"/><path d="M214.36891,293.13912c1.33627,0.06099 2.64838,1.73627 3.81751,1.25428c2.44797,-1.01428 4.16562,-5.01 6.10863,-5.18109c1.1113,0.08951 0.61506,3.62345 0,5.01753c-1.13229,2.56759 -3.1569,4.88247 -5.19337,6.64172c-1.12003,0.96753 -2.50342,1.70261 -4.10583,1.70261c-1.60201,0 -3.05391,-0.65109 -4.10542,-1.70261c-1.0515,-1.0515 -1.59251,-2.62896 -1.70261,-4.10583c-0.07327,-0.99248 0.50812,-2.02103 1.36319,-2.53589c1.03091,-0.80516 2.45431,-1.15092 3.81788,-1.09072z" data-paper-data="{&quot;origPos&quot;:null}" fill="#c774f9" stroke="none" stroke-width="0.27541" stroke-linecap="butt"/><path d="M209.51493,296.79312l1.96321,-1.03606" data-paper-data="{&quot;origPos&quot;:null}" fill="none" stroke="#794699" stroke-width="0.27541" stroke-linecap="round"/><path d="M210.37595,299.81812l2.29033,-1.09072" data-paper-data="{&quot;origPos&quot;:null}" fill="none" stroke="#794699" stroke-width="0.27541" stroke-linecap="round"/><path d="M214.25048,300.31163l-2.29033,1.09072" data-paper-data="{&quot;origPos&quot;:null}" fill="none" stroke="#794699" stroke-width="0.27541" stroke-linecap="round"/><path d="M236.10159,276.04855c3.94977,0 7.52886,1.95567 10.12019,5.11455c2.59173,3.16006 4.19652,7.52292 4.19652,12.33767c0,4.81474 -1.60478,9.17761 -4.19652,12.33767c-2.59133,3.15888 -6.17042,5.11455 -10.12019,5.11455c-3.94938,0 -7.52846,-1.95567 -10.12019,-5.11455c-2.59133,-3.16006 -4.19612,-7.52292 -4.19612,-12.33767c0,-4.81474 1.60478,-9.17761 4.19612,-12.33767c2.59173,-3.15888 6.17082,-5.11455 10.12019,-5.11455z" data-paper-data="{&quot;origPos&quot;:null}" fill="#c774f9" stroke="none" stroke-width="0.27541" stroke-linecap="butt"/><path d="M226.76282,274.15745l-5.73279,-1.33428l-8.0057,-23.86938l14.82565,8.89522z" data-paper-data="{&quot;origPos&quot;:null}" fill="#c774f9" stroke="none" stroke-width="0.24956" stroke-linecap="round"/><path d="M224.14336,269.01795c0,0 -0.95883,-0.86575 -1.33428,-1.38379c-0.50219,-0.6919 -0.86457,-1.47963 -1.28477,-2.22381c-0.36953,-0.65428 -0.79565,-1.28398 -1.08714,-1.97667c-0.36991,-0.87804 -0.65428,-1.7949 -0.88953,-2.71807c-0.22733,-0.8915 -0.49427,-2.71806 -0.49427,-2.71806" data-paper-data="{&quot;origPos&quot;:null}" fill="none" stroke="#7a4799" stroke-width="0.24956" stroke-linecap="round"/><path d="M221.82093,261.20946c0,0 0.43367,0.2919 0.59289,0.49427c0.20952,0.26693 0.43883,0.55567 0.49427,0.88952c0.08079,0.48832 -0.09901,1.48281 -0.09901,1.48281" data-paper-data="{&quot;origPos&quot;:null}" fill="none" stroke="#7a4799" stroke-width="0.24956" stroke-linecap="round"/><path d="M233.0465,262.89187c5.57595,0 10.62911,1.22379 14.28859,3.20126c3.65868,1.97707 5.92369,4.70663 5.92369,7.72054c0,3.01352 -2.26499,5.74309 -5.92369,7.72015c-3.65948,1.97746 -8.71264,3.20125 -14.28859,3.20125c-5.57636,0 -10.62952,-1.22378 -14.28899,-3.20125c-3.65829,-1.97707 -5.92329,-4.70663 -5.92329,-7.72015c0,-3.01391 2.26499,-5.74347 5.92329,-7.72054c3.65948,-1.97746 8.71264,-3.20126 14.289,-3.20126z" data-paper-data="{&quot;origPos&quot;:null}" fill="#c774f9" stroke="none" stroke-width="0.24689" stroke-linecap="butt"/><path d="M237.38363,250.21085c4.55336,0 8.68017,1.84914 11.66875,4.83732c2.98779,2.98857 4.28166,7.56608 4.83732,11.66874c0.44872,3.32085 0.55646,7.41123 -1.97706,9.9293c-3.57987,3.59493 -9.06712,6.20764 -14.529,6.57637c-4.29156,0.28871 -8.67978,-1.84915 -11.66874,-4.83732c-2.98779,-2.98818 -4.83693,-7.11499 -4.83693,-11.66835c0,-4.55375 1.84914,-8.68017 4.83693,-11.66874c2.98897,-2.98818 7.11538,-4.83732 11.66874,-4.83732z" data-paper-data="{&quot;origPos&quot;:null}" fill="#c774f9" stroke="none" stroke-width="0.23388" stroke-linecap="round"/><path d="M246.57824,259.03716l14.82564,-8.89522l-8.0057,23.86938l-5.73279,1.33428z" data-paper-data="{&quot;origPos&quot;:null}" fill="#c774f9" stroke="none" stroke-width="0.24956" stroke-linecap="round"/><path d="M255.37485,259.18568c0,0 -0.26693,1.82657 -0.49427,2.71806c-0.23525,0.92318 -0.5196,1.84004 -0.88952,2.71807c-0.29149,0.69269 -0.71765,1.32241 -1.08715,1.97667c-0.42021,0.74417 -0.78259,1.53192 -1.28477,2.22381c-0.37546,0.51802 -1.33428,1.3838 -1.33428,1.3838" data-paper-data="{&quot;origPos&quot;:null}" fill="none" stroke="#7a4799" stroke-width="0.24956" stroke-linecap="round"/><path d="M251.61913,265.26421c0,0 -0.17981,-0.99448 -0.09901,-1.48281c0.05544,-0.33386 0.28476,-0.62259 0.49427,-0.88952c0.15921,-0.20237 0.59289,-0.49427 0.59289,-0.49427" data-paper-data="{&quot;origPos&quot;:null}" fill="none" stroke="#7a4799" stroke-width="0.24956" stroke-linecap="round"/><path d="M228.00323,253.91588c1.66775,0 3.17867,1.0717 4.27256,2.80164c1.09428,1.73073 1.77112,4.12087 1.77112,6.75816c0,2.63727 -0.67685,5.02742 -1.77112,6.75815c-1.09389,1.72993 -2.60481,2.80165 -4.27256,2.80165c-1.66735,0 -3.17867,-1.07171 -4.27217,-2.80165c-1.09428,-1.73073 -1.77112,-4.12086 -1.77112,-6.75815c0,-2.63727 0.67685,-5.02743 1.77112,-6.75816c1.09348,-1.72993 2.6048,-2.80164 4.27217,-2.80164z" data-paper-data="{&quot;origPos&quot;:null}" fill="#ffffff" stroke="none" stroke-width="0.22196" stroke-linecap="butt"/><path d="M235.11307,275.24652c0,0 -0.7216,0.18496 -1.08755,0.24713c-0.40793,0.06931 -0.821,0.16792 -1.23528,0.14813c-0.67604,-0.03446 -1.51013,0.00713 -2.1743,-0.34575c-0.41625,-0.2412 -0.64555,-0.76002 -0.79091,-1.28478c-0.08673,-0.33625 0.12276,-0.72079 0.34615,-0.98853c0.21625,-0.25981 0.67091,-0.23525 0.88952,-0.49427c0.38616,-0.46258 0.63131,-1.06735 0.88953,-1.63053c0.43288,-0.94101 1.48241,-3.26185 1.48241,-3.26185" data-paper-data="{&quot;origPos&quot;:null}" fill="none" stroke="#784598" stroke-width="0.24956" stroke-linecap="round"/><path d="M238.89453,253.71783c1.66775,0 3.17867,1.07171 4.27256,2.80165c1.09428,1.73073 1.77112,4.12086 1.77112,6.75816c0,2.63727 -0.67685,5.02743 -1.77112,6.75816c-1.09389,1.72993 -2.60481,2.80164 -4.27256,2.80164c-1.66735,0 -3.17868,-1.0717 -4.27217,-2.80164c-1.09428,-1.73073 -1.77112,-4.12087 -1.77112,-6.75816c0,-2.63727 0.67685,-5.02743 1.77112,-6.75816c1.09348,-1.72993 2.60481,-2.80165 4.27217,-2.80165z" data-paper-data="{&quot;origPos&quot;:null}" fill="#ffffff" stroke="none" stroke-width="0.22196" stroke-linecap="butt"/><path d="M236.74359,252.61287l-3.70621,6.12805l-3.55808,-5.73279" data-paper-data="{&quot;origPos&quot;:null}" fill="none" stroke="#794699" stroke-width="0.24956" stroke-linecap="round"/><path d="M225.1303,265.11566c0.27287,0 0.52,0.19365 0.69863,0.50733c0.17901,0.31328 0.28991,0.74497 0.28991,1.22261c0,0.47724 -0.11091,0.90933 -0.28991,1.2226c-0.17863,0.31328 -0.42575,0.50695 -0.69863,0.50695c-0.27287,0 -0.52001,-0.19366 -0.69863,-0.50695c-0.17901,-0.31328 -0.28991,-0.74536 -0.28991,-1.2226c0,-0.47763 0.1109,-0.90933 0.28991,-1.22261c0.17863,-0.31367 0.42575,-0.50733 0.69863,-0.50733z" data-paper-data="{&quot;origPos&quot;:null}" fill="#000000" stroke="none" stroke-width="0.24956" stroke-linecap="butt"/><path d="M235.62557,265.11566c0.27287,0 0.52,0.19365 0.69863,0.50733c0.17901,0.31328 0.28991,0.74497 0.28991,1.22261c0,0.47724 -0.1109,0.90933 -0.28991,1.2226c-0.17863,0.31328 -0.42574,0.50695 -0.69863,0.50695c-0.27287,0 -0.52001,-0.19366 -0.69864,-0.50695c-0.17901,-0.31328 -0.2899,-0.74536 -0.2899,-1.2226c0,-0.47763 0.1109,-0.90933 0.2899,-1.22261c0.17863,-0.31367 0.42575,-0.50733 0.69864,-0.50733z" data-paper-data="{&quot;origPos&quot;:null}" fill="#000000" stroke="none" stroke-width="0.24956" stroke-linecap="butt"/><path d="M247.36875,276.13566c0,0 -2.24558,1.76043 -3.45947,2.47093c-1.84201,0.99051 -3.7379,2.00956 -5.68288,2.61946c-2.64798,0.8321 -5.3807,1.8321 -8.15421,1.72953c-2.28994,-0.08595 -4.35493,-1.25151 -6.42428,-2.07568c-1.60122,-0.74615 -3.13234,-1.68914 -4.54662,-2.61907c-1.07328,-0.70575 -2.96521,-2.47093 -2.96521,-2.47093" data-paper-data="{&quot;origPos&quot;:null}" fill="none" stroke="#794699" stroke-width="0.24956" stroke-linecap="round"/><path d="M244.35445,278.40821l0.84001,-4.94189l2.47093,2.37194z" data-paper-data="{&quot;origPos&quot;:null}" fill="#ffffff" stroke="none" stroke-width="0.24956" stroke-linecap="round"/><path d="M216.06953,275.44217l2.47093,-2.37194l0.84001,4.94188z" data-paper-data="{&quot;origPos&quot;:null}" fill="#ffffff" stroke="none" stroke-width="0.24956" stroke-linecap="round"/><path d="M238.32978,291.15889c1.33627,0.06099 2.64838,1.73627 3.81751,1.25428c2.44797,-1.01428 4.16562,-5.01 6.10863,-5.18109c1.1113,0.08951 0.61506,3.62345 0,5.01753c-1.13229,2.56759 -3.15691,4.88247 -5.19337,6.64172c-1.12003,0.96753 -2.50342,1.70261 -4.10582,1.70261c-1.60201,0 -3.05391,-0.65109 -4.10542,-1.70261c-1.0515,-1.0515 -1.59251,-2.62896 -1.70261,-4.10583c-0.07327,-0.99248 0.50812,-2.02103 1.36319,-2.53589c1.03091,-0.80516 2.45431,-1.15092 3.81788,-1.09072z" data-paper-data="{&quot;origPos&quot;:null}" fill="#c774f9" stroke="#b16ee7" stroke-width="0.27541" stroke-linecap="butt"/><path d="M235.43902,293.77677l-2.29033,1.09072" data-paper-data="{&quot;origPos&quot;:null}" fill="none" stroke="#794699" stroke-width="0.27541" stroke-linecap="round"/><path d="M234.20732,298.00145l2.61787,-1.25428" data-paper-data="{&quot;origPos&quot;:null}" fill="none" stroke="#794699" stroke-width="0.27541" stroke-linecap="round"/><path d="M238.40939,298.33135l-2.45391,1.36319" data-paper-data="{&quot;origPos&quot;:null}" fill="none" stroke="#794699" stroke-width="0.27541" stroke-linecap="round"/></g><g data-paper-data="{&quot;origPos&quot;:null}"><path d="M407.39685,320.96626l-11.51353,1.74447l-68.73234,-1.74447l-7.6757,-0.3489l-3.48895,-16.39807l2.09337,-21.98039l1.39558,-10.81575l63.49892,-0.69779z" data-paper-data="{&quot;origPos&quot;:null}" fill="#9c5a00" stroke="#9c5a00" stroke-width="0" stroke-linecap="round"/><path d="M380.53194,285.72785c1.92953,3.76494 2.31167,7.23025 2.79116,10.46685c0.47949,3.2366 0.38594,5.54333 0,8.37349c-0.38594,2.83015 -0.74475,4.75268 -2.09338,6.9779c-1.34862,2.22522 -2.87138,2.85801 -4.88452,4.53563c-2.01315,1.67762 -2.14815,2.20034 -3.48895,2.44227c-1.60741,0.29003 -12.798,0.88018 -20.23592,0.3489c-7.4379,-0.53128 -14.10742,-1.88882 -18.84034,-3.14006c-4.73292,-1.25123 -8.89465,-2.84764 -11.51353,-4.88454c-2.61888,-2.0369 -4.40765,-5.03477 -4.60541,-6.48945c-0.23822,-1.75224 -1.84444,-3.31287 -0.27912,-10.95531c1.56531,-7.64244 4.69079,-15.38934 6.62901,-18.84034c1.93823,-3.451 7.6757,-6.62901 7.6757,-6.62901l37.33178,0.34889c0,0 9.58401,13.67982 11.51354,17.44476z" data-paper-data="{&quot;origPos&quot;:null}" fill="url(#color-12)" stroke="#ffffff" stroke-width="0" stroke-linecap="round"/><path d="M393.11894,246.62558l7.06513,4.97175l1.8317,29.56886l9.1585,28.78385l-11.77522,0.52334l-23.28875,-50.50257z" data-paper-data="{&quot;origPos&quot;:null}" fill="#5242ad" stroke="#000000" stroke-width="0" stroke-linecap="round"/><g data-paper-data="{&quot;origPos&quot;:null}" stroke="#000000" stroke-width="0"><path d="M367.99848,260.75583h-40.55906l29.56887,-49.71756l36.63398,13.86859z" data-paper-data="{&quot;origPos&quot;:null}" fill="#536265" stroke-linecap="round"/><path d="M360.89317,217.13936l-4.88454,1.74448l-21.2826,49.892l-14.47914,-2.00614c0,0 2.2138,-11.82427 4.63565,-16.04274c7.26554,-12.65543 25.54378,-43.00778 25.54378,-43.00778l9.42017,0.34891l10.46686,0.3489l21.2826,9.07127l8.37349,3.14006l2.09337,4.18673l-0.69779,10.11795l-3.14006,6.28011l-3.48894,6.28011l-7.42636,5.16617c-0.91748,-0.68923 -1.83498,-1.37846 -2.75245,-2.06769c-1.53391,-1.1523 -3.03668,-2.3293 -4.52292,-3.54243c-1.16712,-0.95266 -2.48312,-2.28094 -3.81156,-2.99332l11.88428,-12.61188l1.04669,-2.09338l-2.09337,-2.44227l-18.66589,-9.07127z" data-paper-data="{&quot;origPos&quot;:null}" fill="#f6e000" stroke-linecap="butt"/></g><path d="M401.47914,297.12152l0.84861,0.07604c1.90744,2.72492 3.98593,5.38823 6.21224,7.8619c3.77127,4.28437 9.99212,4.83691 13.27058,9.69713c2.13984,3.17225 -0.25464,6.7083 -3.02292,8.21889c-4.48728,2.44862 -12.83263,0.21544 -16.46637,-2.75761c-4.33494,-4.21972 -6.13303,-11.01015 -6.58051,-16.97365c-0.17718,-2.36134 0.16476,-4.67036 -0.37604,-7.06772c-0.96266,-4.26749 -6.1368,-4.35589 -7.18715,-8.60478c-0.21017,-0.8502 1.83502,-4.05291 1.83688,-4.9287c0.00302,-1.42341 -0.53096,-3.13612 -0.87333,-4.50562c-0.93807,-4.01372 -6.56681,-8.85712 -6.35159,-13.00844c0.28425,-5.48284 8.0512,-10.71874 13.20905,-12.73367c1.8589,-0.72618 4.55964,-0.15296 6.47951,-0.00528c0,0 2.60901,0.20069 2.40831,2.80969c-0.20069,2.60901 -2.80971,2.4083 -2.80971,2.4083c-1.57954,-0.12151 -4.26322,1.16336 -5.81903,1.82643c-1.09017,0.46463 -2.86144,1.35777 -3.71217,2.43264c-0.60525,0.76471 -2.66471,2.66674 -2.85619,3.63525c-0.04374,0.22122 0.58612,-0.16832 0.67538,0.03877c0.46753,1.08469 0.45534,2.34077 0.94786,3.41434c1.16932,2.54885 2.19828,5.2015 2.90573,7.91264c0.38196,1.52785 0.95638,3.32952 0.95838,4.91455c0.00178,1.42048 2.78547,5.73401 3.14522,7.10819c0.0643,0.24565 1.65668,1.59878 2.36387,3.4321c0.57306,1.48561 0.75426,4.79507 0.75426,4.79507l0.04376,-0.03967c0,0 -0.00123,0.01518 -0.00467,0.04316z" data-paper-data="{&quot;origPos&quot;:null}" fill="#f6e000" stroke="none" stroke-width="0.5" stroke-linecap="butt"/><g data-paper-data="{&quot;origPos&quot;:null}" stroke="#000000" stroke-width="0" stroke-linecap="round"><path d="M345.15244,316.48724c0.32599,2.39065 5.43976,3.86826 -5.23343,5.23343c-10.6732,1.36518 -27.56272,0.69779 -27.56272,0.69779l-3.14006,-1.39558c0,0 -1.45871,-2.10287 0,-4.18674c1.45871,-2.08388 4.88453,-2.79116 4.88453,-2.79116c0,0 -8.98734,-4.2373 -10.46685,-5.58232c-1.47951,-1.34502 -1.60055,-2.22171 -1.04669,-4.88454c0.55387,-2.66283 0.45705,-3.16098 3.3145,-6.01844c2.85745,-2.85745 8.54793,-5.84399 8.54793,-5.84399c0,0 4.13027,-2.09337 6.97791,-2.09337c2.84764,0 4.45795,0.93554 6.97791,2.09337c2.51996,1.15782 3.44651,1.35315 5.93121,3.83785c2.48469,2.48469 5.23343,7.3268 5.23343,7.3268c0,0 1.12158,6.68294 1.74448,8.02459c0.62291,1.34164 2.46516,-0.64617 2.79117,1.74448z" data-paper-data="{&quot;origPos&quot;:null}" fill="url(#color-13)"/><path d="M318.94928,322.11807c-0.39823,0.03057 -15.70029,0.3489 -15.70029,0.3489c0,0 2.84028,-3.98126 5.23343,-5.93123c2.39314,-1.94995 4.18674,-1.74448 4.18674,-1.74448c0,0 2.96167,-0.4723 4.53563,0.3489c1.57397,0.82121 2.78335,1.92288 3.48895,3.83785c0.7056,1.91496 -1.34625,3.10948 -1.74447,3.14006z" data-paper-data="{&quot;origPos&quot;:null}" fill="url(#color-14)"/></g><g data-paper-data="{&quot;origPos&quot;:null}" stroke-width="0" stroke-linecap="round"><path d="M386.57716,287.44629c0,0 3.99768,3.67162 6.28011,6.28012c2.28243,2.6085 2.4812,2.23692 2.87839,4.18673c0.39718,1.94982 0.89697,6.16345 0,9.94351c-0.89697,3.78006 -3.6634,5.4951 -3.6634,5.4951l7.3268,5.75678v5.23343h-32.44725l-5.75678,-1.04669l-1.30836,-3.14006l1.8317,-3.14006l3.40172,-2.61671c0,0 -0.8347,-1.63493 -1.4828,-2.35503c-0.6481,-0.72012 -2.51436,-5.71353 -1.91893,-9.1585c0.59543,-3.44497 2.47419,-7.66112 4.71008,-12.29855c2.2359,-4.63744 2.35504,-2.35504 2.35504,-2.35504l10.72853,-3.14006z" data-paper-data="{&quot;origPos&quot;:null}" fill="url(#color-15)" stroke="#18c100"/><path d="M381.75043,317.75687c4.11625,0.52907 8.02459,6.97791 8.02459,6.97791l-2.79116,0.69779l-13.60692,-0.69779c0,0 -0.28461,-1.72391 0,-2.79117c0.2846,-1.06725 0.60348,-1.65016 1.39558,-2.44227c0.7921,-0.7921 0.50707,-0.91177 2.44227,-1.39558c1.9352,-0.48379 0.86535,-0.82064 4.53564,-0.3489z" data-paper-data="{&quot;origPos&quot;:null}" fill="url(#color-16)" stroke="#000000"/><path d="M391.1706,316.71018c1.42567,0.36962 3.14006,2.09337 3.14006,2.09337l4.88452,5.58231l-2.09337,0.3489h-12.56023c0,0 -1.25151,-2.08928 -1.39558,-2.44227c-0.14407,-0.35297 0,-0.23535 0,-0.9769c0,-0.74154 -0.51329,-0.35653 0,-1.81426c0.51329,-1.45772 -0.57395,-2.33364 1.74448,-3.14006c2.31843,-0.80642 4.85444,-0.02072 6.28012,0.34889z" data-paper-data="{&quot;origPos&quot;:null}" fill="url(#color-17)" stroke="#000000"/><path d="M396.40402,319.15245c1.18575,-0.20209 1.69846,-0.22762 3.14006,0c1.4416,0.22762 2.42473,0.10071 3.48895,1.04669c1.06421,0.94597 2.79116,4.53564 2.79116,4.53564c0,0 -5.55973,1.31851 -8.37349,-0.3489c-2.81375,-1.6674 -3.11115,-4.88157 -1.04668,-5.23343z" data-paper-data="{&quot;origPos&quot;:null}" fill="url(#color-18)" stroke="#000000"/></g><g data-paper-data="{&quot;origPos&quot;:null}"><path d="M384.26915,255.51783l-4.18673,8.02459l-9.76906,2.09338l-3.33942,0.54826l-5.38296,3.63847l-6.97791,4.53563l-4.88453,5.93122l-1.04669,2.09338l-2.34258,2.09337c0,0 -0.06514,1.56414 -0.44859,2.79117c-0.38344,1.22701 -0.72802,1.74057 -1.2959,3.09022c-0.42996,1.02188 -1.43327,1.64824 -2.89084,2.4921c-1.45757,0.84385 -4.40358,1.01055 -4.54237,0.98741c-0.41638,-0.0694 -2.51403,-0.25421 -3.83112,-0.63852c-1.3171,-0.38431 -1.72579,0.01869 -3.14006,-1.39558c-1.41426,-1.41427 -2.05511,-2.31641 -2.09338,-3.83784c-0.13693,-5.44471 0,-13.95581 0,-13.95581l-10.11795,-0.34889l-4.53563,-2.44226l3.14006,-3.83785l3.83784,-0.69779l0.43612,-3.40172l13.69413,5.844l0.52334,5.23343l6.97791,1.39558l4.53563,0.34889l4.88454,-5.23343l5.23343,-4.53563l8.02459,-4.18674l0.34889,-4.18674l5.93123,-8.37348l13.21202,-13.76994c1.33886,0.67328 9.3511,10.22267 10.22256,10.87732z" data-paper-data="{&quot;origPos&quot;:null}" fill="#f6e000" stroke="#000000" stroke-width="0" stroke-linecap="butt"/><g data-paper-data="{&quot;origPos&quot;:null}"><path d="M341.4345,285.21347c0,2.89034 -2.67112,5.23342 -5.96611,5.23342c-3.29498,0 -5.96611,-2.34309 -5.96611,-5.23342c0,-2.89033 2.67111,-5.23343 5.96611,-5.23343c3.29498,0 5.96611,2.34309 5.96611,5.23343z" data-paper-data="{&quot;origPos&quot;:null}" fill="#ca576f" stroke="none" stroke-width="0" stroke-linecap="butt"/><path d="M333.27036,286.4695l-5.02409,-2.51205l5.6521,-1.88404l3.14006,-6.48945l0.20933,7.11746l8.37349,3.34939l-7.95481,1.46536l-2.30271,5.86144z" data-paper-data="{&quot;origPos&quot;:null}" fill="#d1290f" stroke="#d1290f" stroke-width="0.5" stroke-linecap="round"/></g></g><g data-paper-data="{&quot;origPos&quot;:null}" stroke-width="0" stroke-linecap="round"><path d="M404.63246,256.56906l4.18674,2.09338l2.35504,2.09338l0.52334,2.87839l0.26167,3.6634l-1.30836,4.18674l-2.87839,4.44842l-4.18673,3.6634l-3.6634,2.09337l-3.92507,0.52334h-6.54179l-1.57002,4.71009l-2.61671,1.30836l-8.89683,0.26168l-9.42017,-0.52334l-2.09338,-1.8317l-1.57002,-2.35504v-1.57003v-1.8317l1.04669,-1.57003l-2.35504,-2.87839l-0.26167,-3.14006l0.78501,-1.8317l2.35503,-3.14006h2.61671v-3.14006l3.40172,-2.87839l2.61671,-1.30836l3.14006,0.52334l3.6634,2.09338l2.61671,4.97175l18.57867,-11.25186z" data-paper-data="{&quot;origPos&quot;:null}" fill="url(#color-19)" stroke="#18c100"/><path d="M362.62374,271.28405c1.28163,0.32316 1.46677,0.6274 1.585,1.46536c0.11822,0.83796 0.13034,2.39155 -0.90572,3.34939c-1.03605,0.95784 -2.71715,0 -2.71715,0l-4.07572,-0.83735l2.71714,-3.76807c0,0 2.11479,-0.53249 3.39642,-0.20933z" data-paper-data="{&quot;origPos&quot;:null,&quot;index&quot;:null}" fill="url(#color-20)" stroke="#000000"/><path d="M365.11444,280.49485c1.28163,0.32316 1.46679,0.62739 1.58501,1.46536c0.11822,0.83796 0.13033,2.39156 -0.90572,3.34939c-1.03605,0.95784 -2.71714,0 -2.71714,0l-4.07572,-0.83735l2.71714,-3.76806c0,0 2.11479,-0.5325 3.39643,-0.20934z" data-paper-data="{&quot;origPos&quot;:null,&quot;index&quot;:null}" fill="url(#color-21)" stroke="#000000"/><path d="M369.36533,262.07322c1.28163,0.32316 1.46677,0.62739 1.585,1.46536c0.11822,0.83796 0.13034,2.39155 -0.90572,3.34939c-1.03605,0.95784 -2.71715,0 -2.71715,0l-4.07572,-0.83735l2.71715,-3.76807c0,0 2.11479,-0.53249 3.39643,-0.20933z" data-paper-data="{&quot;origPos&quot;:null,&quot;index&quot;:null}" fill="url(#color-22)" stroke="#000000"/></g><g data-paper-data="{&quot;origPos&quot;:null}" stroke-width="0" stroke-linecap="round"><path d="M308.04035,271.59662l2.83283,-4.10578l3.4509,-1.45766l2.8234,-0.12904l10.54171,3.52363l-3.70501,3.84893l1.74372,3.01725l0.49817,1.69776l-0.56296,2.74033l-2.38064,2.28815l0.75652,1.49478l-0.35999,2.99869l-1.63323,1.90987l-2.03919,1.39315l-8.35946,-0.53555l-5.36855,-0.80523c0.06342,-1.44853 -0.10399,-2.92767 -0.51183,-4.30947c0.88029,-4.58477 1.29635,-9.24631 1.87566,-13.88116z" data-paper-data="{&quot;origPos&quot;:null,&quot;index&quot;:null,&quot;origRot&quot;:0}" fill="url(#color-23)" stroke="#18c100"/><path d="M327.67168,275.68012l2.51205,3.76806l-3.76806,0.83735c0,0 -1.55421,0.95784 -2.51205,0c-0.95785,-0.95785 -0.94664,-2.51143 -0.83735,-3.34939c0.10931,-0.83795 0.28047,-1.14221 1.46536,-1.46536c1.18489,-0.32316 3.14006,0.20934 3.14006,0.20934z" data-paper-data="{&quot;origPos&quot;:null}" fill="url(#color-24)" stroke="#000000"/><path d="M325.36895,284.89097l2.51205,3.76806l-3.76806,0.83735c0,0 -1.5542,0.95785 -2.51205,0c-0.95785,-0.95785 -0.94664,-2.51143 -0.83735,-3.34939c0.10929,-0.83796 0.28047,-1.1422 1.46536,-1.46536c1.18489,-0.32316 3.14006,0.20934 3.14006,0.20934z" data-paper-data="{&quot;origPos&quot;:null}" fill="url(#color-25)" stroke="#000000"/><path d="M322.01957,266.88795l2.51205,3.76806l-3.76806,0.83735c0,0 -1.5542,0.95784 -2.51205,0c-0.95785,-0.95785 -0.94664,-2.51142 -0.83735,-3.34938c0.10929,-0.83796 0.28047,-1.14221 1.46536,-1.46536c1.18489,-0.32316 3.14006,0.20934 3.14006,0.20934z" data-paper-data="{&quot;origPos&quot;:null}" fill="url(#color-26)" stroke="#000000"/></g><g data-paper-data="{&quot;origPos&quot;:null}"><path d="M342.40173,208.59145v-10.46685l-1.57003,-0.17443l-0.87223,-0.69779l-0.52333,-1.04669v-1.57003l1.04668,-1.22112l1.22114,-0.69779l1.91892,0.34889l1.57003,1.39559v1.74447l-0.87223,1.22113l1.91892,2.26781l-0.17444,-4.71009l-1.39558,-1.39559l-0.52334,-1.91892l0.69779,-1.39559l2.09338,-0.52334h1.39558l0.69779,1.04668l0.69779,2.09338l-1.22114,1.74447l4.71008,5.93122h1.74448l4.88453,-5.58232l-0.69779,-1.22113l0.34889,-2.09338l0.87223,-1.39559l1.91892,-0.3489l1.22113,1.04668l0.87224,1.74449l-0.52334,1.39558l-1.74448,1.22113l-0.17445,5.75678l1.04669,1.57002l1.39558,0.69779l1.39557,-1.39559l3.6634,-4.53563l-0.34889,-1.91893l0.69779,-1.04669l1.39558,-0.69778h1.91892l0.87223,0.87223v1.74448l-0.3489,1.22112l-1.57002,0.52334h-1.04669l-2.09337,6.10567l0.17444,2.44227l1.22114,1.39559h1.22113l1.22114,-0.87224v-1.22112l0.34889,-1.57002l1.22114,-0.52334h1.04669l1.74448,0.3489l0.87223,1.74447l-1.04669,2.09338l-1.57003,0.3489l-7.85014,11.33909l-5.05898,-4.71008l-3.48895,-1.91892h-7.15234l-9.24572,-0.17444z" data-paper-data="{&quot;origPos&quot;:null}" fill="url(#color-27)" stroke="#fff700" stroke-width="0" stroke-linecap="round"/><path d="M342.57616,205.97472l12.03689,-0.17443l3.14006,0.34889l3.14006,1.39559l3.6634,2.61671l5.23343,5.75678" data-paper-data="{&quot;origPos&quot;:null}" fill="none" stroke="#ce8c00" stroke-width="1" stroke-linecap="round"/><path d="M353.87425,206.75579c-1.06038,1.37226 -2.8779,1.74446 -4.05957,0.83137c-1.18166,-0.91311 -1.27997,-2.76575 -0.2196,-4.13799c1.06038,-1.37226 2.8779,-1.74447 4.05957,-0.83137c1.18166,0.91311 1.27998,2.76574 0.21961,4.13799z" data-paper-data="{&quot;origRot&quot;:0,&quot;origPos&quot;:null}" fill="url(#color-28)" stroke="#ce8c00" stroke-width="0" stroke-linecap="butt"/></g><g data-paper-data="{&quot;origPos&quot;:null}"><path d="M317.43699,260.39543l-0.47505,0.28678c-1.80605,-1.35453 -3.69934,-3.59731 -5.72366,-4.55877c-4.20214,-1.99581 -11.70916,0.03186 -11.92617,-6.95607c-0.04075,-1.31235 0.08836,-2.66824 0.53706,-3.90217c0.32592,-0.48216 0.77582,-1.15359 1.25968,-1.78657c-0.27683,-0.31307 -0.51882,-0.66614 -0.71607,-1.10112c-1.5266,-3.36679 -1.08416,-6.8079 1.09408,-9.92794c1.54667,-2.21543 4.57427,-2.56601 7.00844,-2.3473c0.42488,0.03817 1.10451,-0.15012 1.41647,0.04337c0.16195,-0.29258 0.32679,-0.58342 0.50838,-0.86399c0.70324,-1.08655 1.57828,-2.10436 2.35504,-3.14006c5.00087,-6.61995 11.3861,-13.17799 19.63551,-15.64946c2.21112,-0.66244 4.55678,-0.59735 6.80345,-1.04668c8.64979,-1.48388 19.33099,1.12215 26.57174,6.09172c2.06686,1.41857 3.28287,3.6158 5.11792,5.24695c4.43244,3.96072 8.31519,7.66648 11.47596,12.68428c2.02091,3.20823 4.35607,5.23276 4.33805,9.38706c-0.01376,3.1765 -3.38751,5.71596 -5.36174,7.74502c-2.54484,2.61553 -4.94608,5.50333 -7.61148,7.98836c-1.51868,1.41589 -3.4083,1.9387 -5.08033,3.01596c-6.08988,3.9236 -11.70849,6.99889 -19.18524,7.57403c-6.26934,0.42133 -11.92455,1.04546 -18.17506,-0.62564c-3.99786,-1.06886 -7.64174,-3.98229 -11.57289,-5.41181c0,0 -0.37914,-0.13787 -0.78554,-0.4542l-0.01378,0.07382c0,0 -1.57704,-0.78852 -1.49478,-2.36558z" data-paper-data="{&quot;origPos&quot;:null}" fill="url(#color-29)" stroke="#000000" stroke-width="0" stroke-linecap="butt"/><g data-paper-data="{&quot;origPos&quot;:null}"><path d="M356.28502,216.42519c3.28341,6.10616 1.56479,13.13325 -3.83864,15.69545c-5.40343,2.5622 -12.44551,-0.31077 -15.72893,-6.41693c-3.28341,-6.10616 -1.56479,-13.13326 3.83864,-15.69544c5.40343,-2.5622 12.44551,0.31078 15.72892,6.41693z" data-paper-data="{&quot;origRot&quot;:0,&quot;origPos&quot;:null}" fill="#ffffff" stroke="none" stroke-width="NaN" stroke-linecap="butt"/><path d="M340.23584,215.0296c3.28341,6.10616 1.56479,13.13325 -3.83865,15.69545c-5.40343,2.5622 -12.44551,-0.31077 -15.72892,-6.41694c-3.28341,-6.10616 -1.5648,-13.13326 3.83864,-15.69544c5.40343,-2.5622 12.44552,0.31078 15.72893,6.41694z" data-paper-data="{&quot;origRot&quot;:0,&quot;origPos&quot;:null}" fill="#ffffff" stroke="none" stroke-width="NaN" stroke-linecap="butt"/><path d="M341.44226,214.26097c-3.74,1.99897 -6.62901,7.67569 -6.62901,7.67569c0,0 -3.62041,-5.30001 -6.10566,-7.50124c-2.48526,-2.20123 -7.50125,-2.96561 -7.50125,-2.96561c0,0 1.69686,-1.64049 3.14006,-2.44227c1.4432,-0.80178 1.58402,-0.70091 3.14006,-1.04669c1.55603,-0.34579 1.59402,-0.73413 4.01229,0c2.41827,0.73413 5.75677,2.96562 5.75677,2.96562c0,0 2.77102,-2.08833 4.88454,-2.61671c2.11352,-0.52838 3.0555,-0.68914 5.58231,0c2.52682,0.68914 5.93122,3.14006 5.93122,3.14006c0,0 -8.47133,0.7922 -12.21134,2.79117z" data-paper-data="{&quot;origPos&quot;:null}" fill="#a8e61d" stroke="#a8e61d" stroke-width="0.5" stroke-linecap="round"/><path d="M339.56499,220.71819c0.39802,0 0.75842,0.23406 1.01903,0.61268c0.26139,0.37862 0.42297,0.9014 0.42297,1.47844c0,0.57665 -0.16159,1.09943 -0.42297,1.47844c-0.2606,0.37822 -0.621,0.61268 -1.01903,0.61268c-0.39802,0 -0.75883,-0.23447 -1.01943,-0.61268c-0.26139,-0.37901 -0.42298,-0.90179 -0.42298,-1.47844c0,-0.57705 0.1616,-1.09982 0.42298,-1.47844c0.2606,-0.37862 0.6214,-0.61268 1.01943,-0.61268z" data-paper-data="{&quot;origPos&quot;:null}" fill="#000000" stroke="none" stroke-width="0.14566" stroke-linecap="butt"/><path d="M329.66382,220.71819c0.39802,0 0.75842,0.23406 1.01903,0.61268c0.26139,0.37862 0.42298,0.9014 0.42298,1.47844c0,0.57665 -0.1616,1.09943 -0.42298,1.47844c-0.2606,0.37822 -0.621,0.61268 -1.01903,0.61268c-0.39802,0 -0.75883,-0.23447 -1.01943,-0.61268c-0.26139,-0.37901 -0.42298,-0.90179 -0.42298,-1.47844c0,-0.57705 0.1616,-1.09982 0.42298,-1.47844c0.2606,-0.37862 0.6214,-0.61268 1.01943,-0.61268z" data-paper-data="{&quot;origPos&quot;:null}" fill="#000000" stroke="none" stroke-width="0.14566" stroke-linecap="butt"/></g><path d="M302.04663,243.67358l8.11182,-0.52334h7.3268l8.89682,2.87838l8.37349,2.09338l5.75678,-0.26167" data-paper-data="{&quot;origPos&quot;:null}" fill="none" stroke="#005208" stroke-width="2" stroke-linecap="round"/><path d="M343.39074,245.50529l7.06513,-4.71008l6.28011,-2.61671l6.28011,-1.30836h2.87839l2.87838,1.04668l2.09338,2.35504l0.52334,4.71009v2.61671l-2.61671,3.40172l-3.92507,2.61671l-5.23342,0.78501l-12.03689,-3.6634l-8.89682,-2.87839z" data-paper-data="{&quot;origPos&quot;:null}" fill="#801a1a" stroke="#801a1a" stroke-width="0.5" stroke-linecap="round"/><path d="M323.17535,238.00185c-0.60838,-0.85173 0.24334,-1.46009 0.24334,-1.46009l-0.32781,-0.13971c0.89276,-1.78553 2.62505,-2.67196 4.59958,-2.67196c0,0 1.04668,0 1.04668,1.04668c0,1.04668 -1.04668,1.04669 -1.04668,1.04669c-1.39402,0 -2.27127,0.60288 -2.72721,1.51478l-0.32781,0.90697c0,0 -0.85172,0.60838 -1.4601,-0.24335z" data-paper-data="{&quot;origPos&quot;:null}" fill="#000000" stroke="none" stroke-width="0.5" stroke-linecap="butt"/><path d="M316.70023,237.65515c-1.04669,0 -1.04669,-1.04669 -1.04669,-1.04669c0,-0.69779 0,-2.1806 0,-2.87838c0,0 0,-1.04669 1.04669,-1.04669c1.04669,0 1.04669,1.04669 1.04669,1.04669c0,0.69779 0,1.39559 0,2.09337v0.78501c0,0 0,1.04669 -1.04669,1.04669z" data-paper-data="{&quot;origPos&quot;:null}" fill="#000000" stroke="none" stroke-width="0.5" stroke-linecap="butt"/><path d="M342.99823,245.63614c0,0 3.0901,1.35818 7.98098,1.70086c4.89087,0.34268 12.56023,-0.26167 12.56023,-0.26167c0,0 1.04669,1.29305 1.04669,2.87839c0,1.58534 -1.04669,3.92507 -1.04669,3.92507l-3.79424,0.65418l-11.77521,-3.6634l-9.28934,-3.00923z" data-paper-data="{&quot;origPos&quot;:null}" fill="#ffffff" stroke="#ffffff" stroke-width="0.5" stroke-linecap="round"/><path d="M348.3625,242.10356l2.48588,-1.70086c0,0 3.64781,-1.83681 6.06635,-2.51c2.53432,-0.70542 6.62471,-1.02256 6.62471,-1.02256l-0.39251,7.85014c0,0 -8.91653,0.66725 -9.93405,0.59188c-3.05254,-0.2261 -8.38294,-1.11522 -8.38294,-1.11522z" data-paper-data="{&quot;origPos&quot;:null}" fill="#ffffff" stroke="#ffffff" stroke-width="0.5" stroke-linecap="round"/></g></g></g><g data-paper-data="{&quot;origPos&quot;:null}" stroke="none" stroke-linecap="butt"><path d="M-115.49841,47.5287h687.89257v100.94752h-687.89257z" fill="url(#color-30)" stroke-width="1.15292"/><path d="M-98.25842,-0.58129h676.77961v51.80223h-676.77961z" fill="#000000" stroke-width="1.1317"/></g><g data-paper-data="{&quot;origPos&quot;:null}" fill="#ffffff" stroke="none" stroke-width="0.58309" stroke-linecap="butt"><path d="M35.51699,38.9579c7.30884,0.51532 10.96327,0.97451 10.96327,1.38651c2.82022,7.57118 4.53497,12.39654 5.1536,14.49566h0.23428c0.66498,-1.45241 3.242,-5.4253 7.70213,-11.93735h0.23428c6.99932,0.44007 10.50364,0.91796 10.50364,1.43329l6.30627,43.19659c0,0.25298 -5.51884,0.87119 -16.57564,1.85506l-0.23428,-0.45919c-0.61864,-13.11807 -0.92774,-21.13867 -0.92774,-24.06222h-0.23428l-9.56697,8.40496h-0.23428c-0.3091,-0.15009 -2.49241,-3.57024 -6.54013,-10.26044h-0.23428c-4.98481,14.51437 -7.7115,22.21651 -8.17069,23.12554h-0.46855c-8.91092,-4.02901 -13.97099,-6.44657 -15.18913,-7.24294v-0.23428c11.05681,-25.98361 16.81928,-39.21394 17.27847,-39.70119z"/><path d="M101.13589,50.68906l0.27211,0.50597l-5.22886,27.73577h0.27169l13.32471,-3.91675v-15.68574c0.05613,-0.35588 0.22449,-0.54338 0.50597,-0.54338c10.01639,0.70282 15.60113,1.04935 16.73467,1.04935c0,0.17815 0.09396,0.27169 0.27211,0.27169c0,4.41337 -1.39629,13.56792 -4.18844,27.46408c0,0.79636 -4.00137,1.40522 -12.00325,1.81764c-0.41243,-0.48725 -0.76831,-1.5366 -1.04935,-3.1391c-10.25109,2.09912 -16.09817,3.1391 -17.55058,3.1391c-8.18004,-6.09071 -12.27452,-9.22938 -12.27452,-9.40753c1.39586,-18.3091 2.26748,-27.81996 2.63272,-28.51343h0.23428c6.53119,-0.17773 12.54663,-0.44007 18.04676,-0.77766z"/><path d="M137.0891,50.68906c15.33922,2.11783 23.00394,3.42015 23.00394,3.91675c6.04351,5.19103 9.06994,7.96447 9.06994,8.33013c-2.45499,7.66472 -3.85085,12.33107 -4.18844,13.98034c2.45499,5.45335 3.85128,8.70472 4.18844,9.76341c0,0.3091 -4.00094,1.13396 -12.01219,2.47369c-0.10331,-0.43113 -0.83421,-1.415 -2.202,-2.94225c-11.05681,2.11783 -17.00678,3.17652 -17.85968,3.17652l-5.89384,-15.9196l12.97777,-6.859c2.09912,0.33717 5.35982,0.50597 9.80125,0.50597c0,-0.57187 0.08419,-2.28619 0.23428,-5.1536c-0.74959,0 -7.43981,0.49662 -20.0617,1.47112l-0.23428,-0.49662c1.75259,-8.16134 2.8113,-12.24689 3.17652,-12.24689zM145.14755,73.46808c0,0.28104 0.82442,3.30748 2.47369,9.06058h0.23428c3.25135,-2.11739 4.88191,-3.50434 4.88191,-4.17909l0.50597,-4.14126c-0.61864,0 -3.31725,-0.25298 -8.09585,-0.74024z"/><path d="M190.23661,38.99533c0.15009,0.23428 0.87119,7.30842 2.16459,21.22329c9.96963,-3.04556 15.28267,-4.57281 15.9196,-4.57281l9.88544,6.74676c-1.60208,14.72016 -2.65142,23.31263 -3.13867,25.79567l-13.718,0.46855c0,-0.15901 -0.08419,-0.23428 -0.27169,-0.23428l0.27169,-0.96516c0,-2.09869 0.3091,-8.45173 0.93709,-19.05869c-3.77603,-0.15944 -6.57796,-0.23428 -8.41431,-0.23428h-0.96516c1.11482,11.79705 1.66799,18.23428 1.66799,19.29297l-13.01519,1.93031c-0.49662,-1.64927 -3.38274,-17.0816 -8.67665,-46.2885c0,-0.82442 2.0145,-1.47112 6.04351,-1.93968c5.08813,-1.44264 8.8548,-2.16417 11.30979,-2.16417z"/><path d="M227.7358,50.68906c15.33879,2.11783 23.00351,3.42015 23.00351,3.91675c6.04393,5.19103 9.07037,7.96447 9.07037,8.33013c-2.45499,7.66472 -3.85085,12.33107 -4.18844,13.98034c2.45499,5.45335 3.85128,8.70472 4.18844,9.76341c0,0.3091 -4.01029,1.13396 -12.01262,2.47369c-0.10289,-0.43113 -0.83378,-1.415 -2.21137,-2.94225c-11.04702,2.11783 -16.99699,3.17652 -17.84991,3.17652l-5.89384,-15.9196l12.97777,-6.859c2.08933,0.33717 5.35982,0.50597 9.80125,0.50597c0,-0.57187 0.07483,-2.28619 0.23428,-5.1536c-0.75002,0 -7.44023,0.49662 -20.07105,1.47112l-0.22491,-0.49662c1.75216,-8.16134 2.8113,-12.24689 3.17652,-12.24689zM235.79424,73.46808c0,0.28104 0.82442,3.30748 2.47369,9.06058h0.23428c3.25135,-2.11739 4.88191,-3.50434 4.88191,-4.17909l0.50597,-4.14126c-0.62799,0 -3.32661,-0.25298 -8.09585,-0.74024z"/><path d="M280.88329,38.99533c0.14966,0.23428 0.87119,7.30842 2.16417,21.22329c9.97005,-3.04556 15.27332,-4.57281 15.92002,-4.57281l9.87609,6.74676c-1.59273,14.72016 -2.64249,23.31263 -3.12975,25.79567l-13.71758,0.46855c0,-0.15901 -0.09396,-0.23428 -0.27169,-0.23428l0.27169,-0.96516c0,-2.09869 0.3091,-8.45173 0.92774,-19.05869c-3.76709,-0.15944 -6.56861,-0.23428 -8.40539,-0.23428h-0.96473c1.10547,11.79705 1.66755,18.23428 1.66755,19.29297l-13.01519,1.93031c-0.49662,-1.64927 -3.3823,-17.0816 -8.67665,-46.2885c0,-0.82442 2.0145,-1.47112 6.03458,-1.93968c5.0877,-1.44264 8.86415,-2.16417 11.31915,-2.16417z"/><path d="M318.37312,50.68906c15.34815,2.11783 23.01288,3.42015 23.01288,3.91675c6.04393,5.19103 9.06102,7.96447 9.06102,8.33013c-2.44563,7.66472 -3.84193,12.33107 -4.17909,13.98034c2.45499,5.45335 3.85128,8.70472 4.17909,9.76341c0,0.3091 -4.00094,1.13396 -12.00325,2.47369c-0.10289,-0.43113 -0.84313,-1.415 -2.21137,-2.94225c-11.04746,2.11783 -17.00678,3.17652 -17.85926,3.17652l-5.88449,-15.9196l12.97777,-6.859c2.08933,0.33717 5.35939,0.50597 9.80083,0.50597c0,-0.57187 0.07526,-2.28619 0.23428,-5.1536c-0.74959,0 -7.43981,0.49662 -20.07063,1.47112l-0.23428,-0.49662c1.76153,-8.16134 2.82022,-12.24689 3.17652,-12.24689zM326.43116,73.46808c0,0.28104 0.83421,3.30748 2.48348,9.06058h0.23385c3.25177,-2.11739 4.88191,-3.50434 4.88191,-4.17909l0.49662,-4.14126c-0.61822,0 -3.31683,-0.25298 -8.09585,-0.74024z"/><path d="M371.52023,38.99533c0.15944,0.23428 0.88097,7.30842 2.17394,21.22329c9.97005,-3.04556 15.27332,-4.57281 15.92002,-4.57281l9.87609,6.74676c-1.6025,14.72016 -2.64249,23.31263 -3.1391,25.79567l-13.70823,0.46855c0,-0.15901 -0.09396,-0.23428 -0.27211,-0.23428l0.27211,-0.96516c0,-2.09869 0.3091,-8.45173 0.92732,-19.05869c-3.76667,-0.15944 -6.56818,-0.23428 -8.40496,-0.23428h-0.96516c1.1059,11.79705 1.65862,18.23428 1.65862,19.29297l-13.01519,1.93031c-0.48725,-1.64927 -3.38274,-17.0816 -8.67665,-46.2885c0,-0.82442 2.0145,-1.47112 6.04393,-1.93968c5.0877,-1.44264 8.86373,-2.16417 11.30936,-2.16417z"/><path d="M409.01983,50.68906c15.33879,2.11783 23.01288,3.42015 23.01288,3.91675c6.04351,5.19103 9.06102,7.96447 9.06102,8.33013c-2.45499,7.66472 -3.84193,12.33107 -4.17909,13.98034c2.45499,5.45335 3.8415,8.70472 4.17909,9.76341c0,0.3091 -4.00137,1.13396 -12.00325,2.47369c-0.10289,-0.43113 -0.84313,-1.415 -2.21137,-2.94225c-11.05681,2.11783 -17.00678,3.17652 -17.85926,3.17652l-5.88449,-15.9196l12.97735,-6.859c2.08977,0.33717 5.35982,0.50597 9.80125,0.50597c0,-0.57187 0.07483,-2.28619 0.23428,-5.1536c-0.74959,0 -7.43981,0.49662 -20.07063,1.47112l-0.23428,-0.49662c1.76153,-8.16134 2.82022,-12.24689 3.17652,-12.24689zM417.07782,73.46808c0,0.28104 0.82486,3.30748 2.48306,9.06058h0.23428c3.25135,-2.11739 4.87256,-3.50434 4.87256,-4.17909l0.50597,-4.14126c-0.61822,0 -3.31683,-0.25298 -8.09585,-0.74024z"/><path d="M461.85781,40.42904l0.15944,0.3091c-2.58637,22.7973 -4.02943,34.78185 -4.33853,35.94387c-5.48142,-0.51532 -8.93898,-0.87162 -10.38204,-1.08718v-0.14966l-2.48306,-32.38342c0.61822,-0.20621 6.30585,-1.08676 17.04419,-2.63272zM446.519,77.45968c0.17773,0.10289 4.20716,0.412 12.08744,0.92774l0.14966,0.3091c-1.20878,7.13069 -1.98644,10.69116 -2.32361,10.69116h-8.98618c-0.3091,0 -0.72153,-3.56045 -1.23685,-10.69116c-0.10289,0 -0.15901,-0.3091 -0.15901,-0.92774c0.31847,-0.10289 0.46855,-0.20621 0.46855,-0.3091z"/></g><path d="M419.95107,282.00004l1.48794,1.19802" fill="none" stroke="#cccccc" stroke-width="9" stroke-linecap="round"/><path d="M142.20382,321.93415l1.48794,1.19803" fill="none" stroke="#cccccc" stroke-width="9" stroke-linecap="round"/></g></g></svg>