<svg version="1.1" xmlns="http://www.w3.org/2000/svg" xmlns:xlink="http://www.w3.org/1999/xlink" width="395.89656" height="21.75199" viewBox="0,0,395.89656,21.75199"><defs><linearGradient x1="373.4966" y1="318.30806" x2="373.4966" y2="331.77836" gradientUnits="userSpaceOnUse" id="color-1"><stop offset="0" stop-color="#ffffff"/><stop offset="1" stop-color="#dedede"/></linearGradient><linearGradient x1="431.09659" y1="318.30804" x2="431.09659" y2="331.77834" gradientUnits="userSpaceOnUse" id="color-2"><stop offset="0" stop-color="#ffffff"/><stop offset="1" stop-color="#dedede"/></linearGradient><linearGradient x1="50.54394" y1="319.34199" x2="50.54394" y2="330.12623" gradientUnits="userSpaceOnUse" id="color-3"><stop offset="0" stop-color="#ffffff"/><stop offset="1" stop-color="#dedede"/></linearGradient><linearGradient x1="69.40088" y1="317.27298" x2="69.40088" y2="331.627" gradientUnits="userSpaceOnUse" id="color-4"><stop offset="0" stop-color="#ffffff"/><stop offset="1" stop-color="#dedede"/></linearGradient><linearGradient x1="80.18788" y1="316.19299" x2="80.18788" y2="331.627" gradientUnits="userSpaceOnUse" id="color-5"><stop offset="0" stop-color="#ffffff"/><stop offset="1" stop-color="#dedede"/></linearGradient><linearGradient x1="90.16488" y1="320.61396" x2="90.16488" y2="331.627" gradientUnits="userSpaceOnUse" id="color-6"><stop offset="0" stop-color="#ffffff"/><stop offset="1" stop-color="#dedede"/></linearGradient><linearGradient x1="103.39988" y1="317.28399" x2="103.39988" y2="331.627" gradientUnits="userSpaceOnUse" id="color-7"><stop offset="0" stop-color="#ffffff"/><stop offset="1" stop-color="#dedede"/></linearGradient><linearGradient x1="115.82938" y1="320.62497" x2="115.82938" y2="331.627" gradientUnits="userSpaceOnUse" id="color-8"><stop offset="0" stop-color="#ffffff"/><stop offset="1" stop-color="#dedede"/></linearGradient><linearGradient x1="129.45538" y1="320.61396" x2="129.45538" y2="331.627" gradientUnits="userSpaceOnUse" id="color-9"><stop offset="0" stop-color="#ffffff"/><stop offset="1" stop-color="#dedede"/></linearGradient><linearGradient x1="143.91438" y1="317.27298" x2="143.91438" y2="331.627" gradientUnits="userSpaceOnUse" id="color-10"><stop offset="0" stop-color="#ffffff"/><stop offset="1" stop-color="#dedede"/></linearGradient><linearGradient x1="157.39088" y1="320.62497" x2="157.39088" y2="331.627" gradientUnits="userSpaceOnUse" id="color-11"><stop offset="0" stop-color="#ffffff"/><stop offset="1" stop-color="#dedede"/></linearGradient><linearGradient x1="175.25587" y1="319.30198" x2="175.25587" y2="333.71886" gradientUnits="userSpaceOnUse" id="color-12"><stop offset="0" stop-color="#ffffff"/><stop offset="1" stop-color="#dedede"/></linearGradient><linearGradient x1="194.37188" y1="317.28399" x2="194.37188" y2="331.627" gradientUnits="userSpaceOnUse" id="color-13"><stop offset="0" stop-color="#ffffff"/><stop offset="1" stop-color="#dedede"/></linearGradient><linearGradient x1="207.96538" y1="320.62497" x2="207.96538" y2="331.627" gradientUnits="userSpaceOnUse" id="color-14"><stop offset="0" stop-color="#ffffff"/><stop offset="1" stop-color="#dedede"/></linearGradient><linearGradient x1="219.96487" y1="320.61396" x2="219.96487" y2="331.627" gradientUnits="userSpaceOnUse" id="color-15"><stop offset="0" stop-color="#ffffff"/><stop offset="1" stop-color="#dedede"/></linearGradient><linearGradient x1="231.53488" y1="320.61396" x2="231.53488" y2="331.627" gradientUnits="userSpaceOnUse" id="color-16"><stop offset="0" stop-color="#ffffff"/><stop offset="1" stop-color="#dedede"/></linearGradient><linearGradient x1="240.90588" y1="317.295" x2="240.90588" y2="331.627" gradientUnits="userSpaceOnUse" id="color-17"><stop offset="0" stop-color="#ffffff"/><stop offset="1" stop-color="#dedede"/></linearGradient><linearGradient x1="250.45287" y1="320.61396" x2="250.45287" y2="331.627" gradientUnits="userSpaceOnUse" id="color-18"><stop offset="0" stop-color="#ffffff"/><stop offset="1" stop-color="#dedede"/></linearGradient><linearGradient x1="263.29035" y1="320.61396" x2="263.29035" y2="331.627" gradientUnits="userSpaceOnUse" id="color-19"><stop offset="0" stop-color="#ffffff"/><stop offset="1" stop-color="#dedede"/></linearGradient><linearGradient x1="277.04388" y1="320.63598" x2="277.04388" y2="334.94499" gradientUnits="userSpaceOnUse" id="color-20"><stop offset="0" stop-color="#ffffff"/><stop offset="1" stop-color="#dedede"/></linearGradient><linearGradient x1="297.85186" y1="317.28399" x2="297.85186" y2="331.627" gradientUnits="userSpaceOnUse" id="color-21"><stop offset="0" stop-color="#ffffff"/><stop offset="1" stop-color="#dedede"/></linearGradient><linearGradient x1="312.67936" y1="320.62497" x2="312.67936" y2="331.627" gradientUnits="userSpaceOnUse" id="color-22"><stop offset="0" stop-color="#ffffff"/><stop offset="1" stop-color="#dedede"/></linearGradient><linearGradient x1="324.97686" y1="320.61396" x2="324.97686" y2="331.627" gradientUnits="userSpaceOnUse" id="color-23"><stop offset="0" stop-color="#ffffff"/><stop offset="1" stop-color="#dedede"/></linearGradient><linearGradient x1="339.88238" y1="320.61396" x2="339.88238" y2="331.627" gradientUnits="userSpaceOnUse" id="color-24"><stop offset="0" stop-color="#ffffff"/><stop offset="1" stop-color="#dedede"/></linearGradient><linearGradient x1="360.43088" y1="318.30995" x2="360.43088" y2="331.62695" gradientUnits="userSpaceOnUse" id="color-25"><stop offset="0" stop-color="#ffffff"/><stop offset="1" stop-color="#dedede"/></linearGradient><linearGradient x1="384.39988" y1="318.30995" x2="384.39988" y2="331.62695" gradientUnits="userSpaceOnUse" id="color-26"><stop offset="0" stop-color="#ffffff"/><stop offset="1" stop-color="#dedede"/></linearGradient><linearGradient x1="395.82838" y1="319.54399" x2="395.82838" y2="331.627" gradientUnits="userSpaceOnUse" id="color-27"><stop offset="0" stop-color="#ffffff"/><stop offset="1" stop-color="#dedede"/></linearGradient><linearGradient x1="406.24638" y1="324.98995" x2="406.24638" y2="328.39699" gradientUnits="userSpaceOnUse" id="color-28"><stop offset="0" stop-color="#ffffff"/><stop offset="1" stop-color="#dedede"/></linearGradient><linearGradient x1="418.09754" y1="318.30995" x2="418.09754" y2="331.62695" gradientUnits="userSpaceOnUse" id="color-29"><stop offset="0" stop-color="#ffffff"/><stop offset="1" stop-color="#dedede"/></linearGradient><linearGradient x1="51.05201" y1="316.7712" x2="51.05201" y2="333.09962" gradientUnits="userSpaceOnUse" id="color-30"><stop offset="0" stop-color="#ffffff"/><stop offset="1" stop-color="#dedede"/></linearGradient><linearGradient x1="373.4966" y1="318.30806" x2="373.4966" y2="331.77836" gradientUnits="userSpaceOnUse" id="color-31"><stop offset="0" stop-color="#ffffff"/><stop offset="1" stop-color="#dedede"/></linearGradient><linearGradient x1="431.09659" y1="318.30804" x2="431.09659" y2="331.77834" gradientUnits="userSpaceOnUse" id="color-32"><stop offset="0" stop-color="#ffffff"/><stop offset="1" stop-color="#dedede"/></linearGradient><linearGradient x1="50.54394" y1="319.34199" x2="50.54394" y2="330.12623" gradientUnits="userSpaceOnUse" id="color-33"><stop offset="0" stop-color="#ffffff"/><stop offset="1" stop-color="#dedede"/></linearGradient><linearGradient x1="69.40088" y1="317.27298" x2="69.40088" y2="331.627" gradientUnits="userSpaceOnUse" id="color-34"><stop offset="0" stop-color="#ffffff"/><stop offset="1" stop-color="#dedede"/></linearGradient><linearGradient x1="80.18788" y1="316.19299" x2="80.18788" y2="331.627" gradientUnits="userSpaceOnUse" id="color-35"><stop offset="0" stop-color="#ffffff"/><stop offset="1" stop-color="#dedede"/></linearGradient><linearGradient x1="90.16488" y1="320.61396" x2="90.16488" y2="331.627" gradientUnits="userSpaceOnUse" id="color-36"><stop offset="0" stop-color="#ffffff"/><stop offset="1" stop-color="#dedede"/></linearGradient><linearGradient x1="103.39988" y1="317.28399" x2="103.39988" y2="331.627" gradientUnits="userSpaceOnUse" id="color-37"><stop offset="0" stop-color="#ffffff"/><stop offset="1" stop-color="#dedede"/></linearGradient><linearGradient x1="115.82938" y1="320.62497" x2="115.82938" y2="331.627" gradientUnits="userSpaceOnUse" id="color-38"><stop offset="0" stop-color="#ffffff"/><stop offset="1" stop-color="#dedede"/></linearGradient><linearGradient x1="129.45538" y1="320.61396" x2="129.45538" y2="331.627" gradientUnits="userSpaceOnUse" id="color-39"><stop offset="0" stop-color="#ffffff"/><stop offset="1" stop-color="#dedede"/></linearGradient><linearGradient x1="143.91438" y1="317.27298" x2="143.91438" y2="331.627" gradientUnits="userSpaceOnUse" id="color-40"><stop offset="0" stop-color="#ffffff"/><stop offset="1" stop-color="#dedede"/></linearGradient><linearGradient x1="157.39088" y1="320.62497" x2="157.39088" y2="331.627" gradientUnits="userSpaceOnUse" id="color-41"><stop offset="0" stop-color="#ffffff"/><stop offset="1" stop-color="#dedede"/></linearGradient><linearGradient x1="175.25587" y1="319.30198" x2="175.25587" y2="333.71886" gradientUnits="userSpaceOnUse" id="color-42"><stop offset="0" stop-color="#ffffff"/><stop offset="1" stop-color="#dedede"/></linearGradient><linearGradient x1="194.37188" y1="317.28399" x2="194.37188" y2="331.627" gradientUnits="userSpaceOnUse" id="color-43"><stop offset="0" stop-color="#ffffff"/><stop offset="1" stop-color="#dedede"/></linearGradient><linearGradient x1="207.96538" y1="320.62497" x2="207.96538" y2="331.627" gradientUnits="userSpaceOnUse" id="color-44"><stop offset="0" stop-color="#ffffff"/><stop offset="1" stop-color="#dedede"/></linearGradient><linearGradient x1="219.96487" y1="320.61396" x2="219.96487" y2="331.627" gradientUnits="userSpaceOnUse" id="color-45"><stop offset="0" stop-color="#ffffff"/><stop offset="1" stop-color="#dedede"/></linearGradient><linearGradient x1="231.53488" y1="320.61396" x2="231.53488" y2="331.627" gradientUnits="userSpaceOnUse" id="color-46"><stop offset="0" stop-color="#ffffff"/><stop offset="1" stop-color="#dedede"/></linearGradient><linearGradient x1="240.90588" y1="317.295" x2="240.90588" y2="331.627" gradientUnits="userSpaceOnUse" id="color-47"><stop offset="0" stop-color="#ffffff"/><stop offset="1" stop-color="#dedede"/></linearGradient><linearGradient x1="250.45287" y1="320.61396" x2="250.45287" y2="331.627" gradientUnits="userSpaceOnUse" id="color-48"><stop offset="0" stop-color="#ffffff"/><stop offset="1" stop-color="#dedede"/></linearGradient><linearGradient x1="263.29035" y1="320.61396" x2="263.29035" y2="331.627" gradientUnits="userSpaceOnUse" id="color-49"><stop offset="0" stop-color="#ffffff"/><stop offset="1" stop-color="#dedede"/></linearGradient><linearGradient x1="277.04388" y1="320.63598" x2="277.04388" y2="334.94499" gradientUnits="userSpaceOnUse" id="color-50"><stop offset="0" stop-color="#ffffff"/><stop offset="1" stop-color="#dedede"/></linearGradient><linearGradient x1="297.85186" y1="317.28399" x2="297.85186" y2="331.627" gradientUnits="userSpaceOnUse" id="color-51"><stop offset="0" stop-color="#ffffff"/><stop offset="1" stop-color="#dedede"/></linearGradient><linearGradient x1="312.67936" y1="320.62497" x2="312.67936" y2="331.627" gradientUnits="userSpaceOnUse" id="color-52"><stop offset="0" stop-color="#ffffff"/><stop offset="1" stop-color="#dedede"/></linearGradient><linearGradient x1="324.97686" y1="320.61396" x2="324.97686" y2="331.627" gradientUnits="userSpaceOnUse" id="color-53"><stop offset="0" stop-color="#ffffff"/><stop offset="1" stop-color="#dedede"/></linearGradient><linearGradient x1="339.88238" y1="320.61396" x2="339.88238" y2="331.627" gradientUnits="userSpaceOnUse" id="color-54"><stop offset="0" stop-color="#ffffff"/><stop offset="1" stop-color="#dedede"/></linearGradient><linearGradient x1="360.43088" y1="318.30995" x2="360.43088" y2="331.62695" gradientUnits="userSpaceOnUse" id="color-55"><stop offset="0" stop-color="#ffffff"/><stop offset="1" stop-color="#dedede"/></linearGradient><linearGradient x1="384.39988" y1="318.30995" x2="384.39988" y2="331.62695" gradientUnits="userSpaceOnUse" id="color-56"><stop offset="0" stop-color="#ffffff"/><stop offset="1" stop-color="#dedede"/></linearGradient><linearGradient x1="395.82838" y1="319.54399" x2="395.82838" y2="331.627" gradientUnits="userSpaceOnUse" id="color-57"><stop offset="0" stop-color="#ffffff"/><stop offset="1" stop-color="#dedede"/></linearGradient><linearGradient x1="406.24638" y1="324.98995" x2="406.24638" y2="328.39699" gradientUnits="userSpaceOnUse" id="color-58"><stop offset="0" stop-color="#ffffff"/><stop offset="1" stop-color="#dedede"/></linearGradient><linearGradient x1="418.09754" y1="318.30995" x2="418.09754" y2="331.62695" gradientUnits="userSpaceOnUse" id="color-59"><stop offset="0" stop-color="#ffffff"/><stop offset="1" stop-color="#dedede"/></linearGradient><linearGradient x1="51.05201" y1="316.7712" x2="51.05201" y2="333.09962" gradientUnits="userSpaceOnUse" id="color-60"><stop offset="0" stop-color="#ffffff"/><stop offset="1" stop-color="#dedede"/></linearGradient><linearGradient x1="385.4966" y1="318.39141" x2="385.4966" y2="331.86171" gradientUnits="userSpaceOnUse" id="color-61"><stop offset="0" stop-color="#ffffff"/><stop offset="1" stop-color="#dedede"/></linearGradient><linearGradient x1="385.4966" y1="318.39141" x2="385.4966" y2="331.86171" gradientUnits="userSpaceOnUse" id="color-62"><stop offset="0" stop-color="#ffffff"/><stop offset="1" stop-color="#dedede"/></linearGradient><linearGradient x1="443.09659" y1="318.39139" x2="443.09659" y2="331.86169" gradientUnits="userSpaceOnUse" id="color-63"><stop offset="0" stop-color="#ffffff"/><stop offset="1" stop-color="#dedede"/></linearGradient><linearGradient x1="62.54394" y1="319.42534" x2="62.54394" y2="330.20958" gradientUnits="userSpaceOnUse" id="color-64"><stop offset="0" stop-color="#ffffff"/><stop offset="1" stop-color="#dedede"/></linearGradient><linearGradient x1="81.40088" y1="317.35633" x2="81.40088" y2="331.71035" gradientUnits="userSpaceOnUse" id="color-65"><stop offset="0" stop-color="#ffffff"/><stop offset="1" stop-color="#dedede"/></linearGradient><linearGradient x1="81.40088" y1="317.35633" x2="81.40088" y2="331.71035" gradientUnits="userSpaceOnUse" id="color-66"><stop offset="0" stop-color="#ffffff"/><stop offset="1" stop-color="#dedede"/></linearGradient><linearGradient x1="92.18788" y1="316.27634" x2="92.18788" y2="331.71035" gradientUnits="userSpaceOnUse" id="color-67"><stop offset="0" stop-color="#ffffff"/><stop offset="1" stop-color="#dedede"/></linearGradient><linearGradient x1="102.16488" y1="320.69731" x2="102.16488" y2="331.71035" gradientUnits="userSpaceOnUse" id="color-68"><stop offset="0" stop-color="#ffffff"/><stop offset="1" stop-color="#dedede"/></linearGradient><linearGradient x1="102.16488" y1="320.69731" x2="102.16488" y2="331.71035" gradientUnits="userSpaceOnUse" id="color-69"><stop offset="0" stop-color="#ffffff"/><stop offset="1" stop-color="#dedede"/></linearGradient><linearGradient x1="115.39988" y1="317.36732" x2="115.39988" y2="331.71035" gradientUnits="userSpaceOnUse" id="color-70"><stop offset="0" stop-color="#ffffff"/><stop offset="1" stop-color="#dedede"/></linearGradient><linearGradient x1="127.82938" y1="320.70832" x2="127.82938" y2="331.71035" gradientUnits="userSpaceOnUse" id="color-71"><stop offset="0" stop-color="#ffffff"/><stop offset="1" stop-color="#dedede"/></linearGradient><linearGradient x1="141.45538" y1="320.69731" x2="141.45538" y2="331.71035" gradientUnits="userSpaceOnUse" id="color-72"><stop offset="0" stop-color="#ffffff"/><stop offset="1" stop-color="#dedede"/></linearGradient><linearGradient x1="155.91438" y1="317.35633" x2="155.91438" y2="331.71035" gradientUnits="userSpaceOnUse" id="color-73"><stop offset="0" stop-color="#ffffff"/><stop offset="1" stop-color="#dedede"/></linearGradient><linearGradient x1="155.91438" y1="317.35633" x2="155.91438" y2="331.71035" gradientUnits="userSpaceOnUse" id="color-74"><stop offset="0" stop-color="#ffffff"/><stop offset="1" stop-color="#dedede"/></linearGradient><linearGradient x1="169.39088" y1="320.70832" x2="169.39088" y2="331.71035" gradientUnits="userSpaceOnUse" id="color-75"><stop offset="0" stop-color="#ffffff"/><stop offset="1" stop-color="#dedede"/></linearGradient><linearGradient x1="187.25587" y1="319.38533" x2="187.25587" y2="333.80221" gradientUnits="userSpaceOnUse" id="color-76"><stop offset="0" stop-color="#ffffff"/><stop offset="1" stop-color="#dedede"/></linearGradient><linearGradient x1="206.37188" y1="317.36732" x2="206.37188" y2="331.71035" gradientUnits="userSpaceOnUse" id="color-77"><stop offset="0" stop-color="#ffffff"/><stop offset="1" stop-color="#dedede"/></linearGradient><linearGradient x1="219.96538" y1="320.70832" x2="219.96538" y2="331.71035" gradientUnits="userSpaceOnUse" id="color-78"><stop offset="0" stop-color="#ffffff"/><stop offset="1" stop-color="#dedede"/></linearGradient><linearGradient x1="231.96487" y1="320.69731" x2="231.96487" y2="331.71035" gradientUnits="userSpaceOnUse" id="color-79"><stop offset="0" stop-color="#ffffff"/><stop offset="1" stop-color="#dedede"/></linearGradient><linearGradient x1="243.53488" y1="320.69731" x2="243.53488" y2="331.71035" gradientUnits="userSpaceOnUse" id="color-80"><stop offset="0" stop-color="#ffffff"/><stop offset="1" stop-color="#dedede"/></linearGradient><linearGradient x1="252.90588" y1="317.37833" x2="252.90588" y2="331.71035" gradientUnits="userSpaceOnUse" id="color-81"><stop offset="0" stop-color="#ffffff"/><stop offset="1" stop-color="#dedede"/></linearGradient><linearGradient x1="262.45287" y1="320.69731" x2="262.45287" y2="331.71035" gradientUnits="userSpaceOnUse" id="color-82"><stop offset="0" stop-color="#ffffff"/><stop offset="1" stop-color="#dedede"/></linearGradient><linearGradient x1="275.29035" y1="320.69731" x2="275.29035" y2="331.71035" gradientUnits="userSpaceOnUse" id="color-83"><stop offset="0" stop-color="#ffffff"/><stop offset="1" stop-color="#dedede"/></linearGradient><linearGradient x1="275.29035" y1="320.69731" x2="275.29035" y2="331.71035" gradientUnits="userSpaceOnUse" id="color-84"><stop offset="0" stop-color="#ffffff"/><stop offset="1" stop-color="#dedede"/></linearGradient><linearGradient x1="289.04388" y1="320.71933" x2="289.04388" y2="335.02832" gradientUnits="userSpaceOnUse" id="color-85"><stop offset="0" stop-color="#ffffff"/><stop offset="1" stop-color="#dedede"/></linearGradient><linearGradient x1="309.85186" y1="317.36732" x2="309.85186" y2="331.71035" gradientUnits="userSpaceOnUse" id="color-86"><stop offset="0" stop-color="#ffffff"/><stop offset="1" stop-color="#dedede"/></linearGradient><linearGradient x1="324.67936" y1="320.70832" x2="324.67936" y2="331.71035" gradientUnits="userSpaceOnUse" id="color-87"><stop offset="0" stop-color="#ffffff"/><stop offset="1" stop-color="#dedede"/></linearGradient><linearGradient x1="336.97686" y1="320.69731" x2="336.97686" y2="331.71035" gradientUnits="userSpaceOnUse" id="color-88"><stop offset="0" stop-color="#ffffff"/><stop offset="1" stop-color="#dedede"/></linearGradient><linearGradient x1="351.88238" y1="320.69731" x2="351.88238" y2="331.71035" gradientUnits="userSpaceOnUse" id="color-89"><stop offset="0" stop-color="#ffffff"/><stop offset="1" stop-color="#dedede"/></linearGradient><linearGradient x1="372.43088" y1="318.3933" x2="372.43088" y2="331.7103" gradientUnits="userSpaceOnUse" id="color-90"><stop offset="0" stop-color="#ffffff"/><stop offset="1" stop-color="#dedede"/></linearGradient><linearGradient x1="396.39988" y1="318.3933" x2="396.39988" y2="331.7103" gradientUnits="userSpaceOnUse" id="color-91"><stop offset="0" stop-color="#ffffff"/><stop offset="1" stop-color="#dedede"/></linearGradient><linearGradient x1="407.82838" y1="319.62734" x2="407.82838" y2="331.71035" gradientUnits="userSpaceOnUse" id="color-92"><stop offset="0" stop-color="#ffffff"/><stop offset="1" stop-color="#dedede"/></linearGradient><linearGradient x1="418.24638" y1="325.0733" x2="418.24638" y2="328.48032" gradientUnits="userSpaceOnUse" id="color-93"><stop offset="0" stop-color="#ffffff"/><stop offset="1" stop-color="#dedede"/></linearGradient><linearGradient x1="430.09754" y1="318.3933" x2="430.09754" y2="331.7103" gradientUnits="userSpaceOnUse" id="color-94"><stop offset="0" stop-color="#ffffff"/><stop offset="1" stop-color="#dedede"/></linearGradient><linearGradient x1="63.05201" y1="316.85455" x2="63.05201" y2="333.18295" gradientUnits="userSpaceOnUse" id="color-95"><stop offset="0" stop-color="#ffffff"/><stop offset="1" stop-color="#dedede"/></linearGradient><linearGradient x1="385.4966" y1="318.3914" x2="385.4966" y2="331.86171" gradientUnits="userSpaceOnUse" id="color-96"><stop offset="0" stop-color="#ffffff"/><stop offset="1" stop-color="#dedede"/></linearGradient><linearGradient x1="443.09659" y1="318.39139" x2="443.09659" y2="331.86169" gradientUnits="userSpaceOnUse" id="color-97"><stop offset="0" stop-color="#ffffff"/><stop offset="1" stop-color="#dedede"/></linearGradient><linearGradient x1="62.54394" y1="319.42533" x2="62.54394" y2="330.20958" gradientUnits="userSpaceOnUse" id="color-98"><stop offset="0" stop-color="#ffffff"/><stop offset="1" stop-color="#dedede"/></linearGradient><linearGradient x1="81.40088" y1="317.35633" x2="81.40088" y2="331.71034" gradientUnits="userSpaceOnUse" id="color-99"><stop offset="0" stop-color="#ffffff"/><stop offset="1" stop-color="#dedede"/></linearGradient><linearGradient x1="81.40088" y1="317.35633" x2="81.40088" y2="331.71034" gradientUnits="userSpaceOnUse" id="color-100"><stop offset="0" stop-color="#ffffff"/><stop offset="1" stop-color="#dedede"/></linearGradient><linearGradient x1="92.18788" y1="316.27631" x2="92.18788" y2="331.71034" gradientUnits="userSpaceOnUse" id="color-101"><stop offset="0" stop-color="#ffffff"/><stop offset="1" stop-color="#dedede"/></linearGradient><linearGradient x1="102.16488" y1="320.69731" x2="102.16488" y2="331.71034" gradientUnits="userSpaceOnUse" id="color-102"><stop offset="0" stop-color="#ffffff"/><stop offset="1" stop-color="#dedede"/></linearGradient><linearGradient x1="102.16488" y1="320.69731" x2="102.16488" y2="331.71034" gradientUnits="userSpaceOnUse" id="color-103"><stop offset="0" stop-color="#ffffff"/><stop offset="1" stop-color="#dedede"/></linearGradient><linearGradient x1="115.39988" y1="317.36732" x2="115.39988" y2="331.71034" gradientUnits="userSpaceOnUse" id="color-104"><stop offset="0" stop-color="#ffffff"/><stop offset="1" stop-color="#dedede"/></linearGradient><linearGradient x1="127.82938" y1="320.70832" x2="127.82938" y2="331.71034" gradientUnits="userSpaceOnUse" id="color-105"><stop offset="0" stop-color="#ffffff"/><stop offset="1" stop-color="#dedede"/></linearGradient><linearGradient x1="141.45538" y1="320.69731" x2="141.45538" y2="331.71034" gradientUnits="userSpaceOnUse" id="color-106"><stop offset="0" stop-color="#ffffff"/><stop offset="1" stop-color="#dedede"/></linearGradient><linearGradient x1="155.91438" y1="317.35633" x2="155.91438" y2="331.71034" gradientUnits="userSpaceOnUse" id="color-107"><stop offset="0" stop-color="#ffffff"/><stop offset="1" stop-color="#dedede"/></linearGradient><linearGradient x1="155.91438" y1="317.35633" x2="155.91438" y2="331.71034" gradientUnits="userSpaceOnUse" id="color-108"><stop offset="0" stop-color="#ffffff"/><stop offset="1" stop-color="#dedede"/></linearGradient><linearGradient x1="169.39088" y1="320.70832" x2="169.39088" y2="331.71034" gradientUnits="userSpaceOnUse" id="color-109"><stop offset="0" stop-color="#ffffff"/><stop offset="1" stop-color="#dedede"/></linearGradient><linearGradient x1="187.25587" y1="319.38533" x2="187.25587" y2="333.80221" gradientUnits="userSpaceOnUse" id="color-110"><stop offset="0" stop-color="#ffffff"/><stop offset="1" stop-color="#dedede"/></linearGradient><linearGradient x1="206.37188" y1="317.36732" x2="206.37188" y2="331.71034" gradientUnits="userSpaceOnUse" id="color-111"><stop offset="0" stop-color="#ffffff"/><stop offset="1" stop-color="#dedede"/></linearGradient><linearGradient x1="219.96538" y1="320.70832" x2="219.96538" y2="331.71034" gradientUnits="userSpaceOnUse" id="color-112"><stop offset="0" stop-color="#ffffff"/><stop offset="1" stop-color="#dedede"/></linearGradient><linearGradient x1="231.96487" y1="320.69731" x2="231.96487" y2="331.71034" gradientUnits="userSpaceOnUse" id="color-113"><stop offset="0" stop-color="#ffffff"/><stop offset="1" stop-color="#dedede"/></linearGradient><linearGradient x1="243.53488" y1="320.69731" x2="243.53488" y2="331.71034" gradientUnits="userSpaceOnUse" id="color-114"><stop offset="0" stop-color="#ffffff"/><stop offset="1" stop-color="#dedede"/></linearGradient><linearGradient x1="252.90588" y1="317.37833" x2="252.90588" y2="331.71034" gradientUnits="userSpaceOnUse" id="color-115"><stop offset="0" stop-color="#ffffff"/><stop offset="1" stop-color="#dedede"/></linearGradient><linearGradient x1="262.45287" y1="320.69731" x2="262.45287" y2="331.71034" gradientUnits="userSpaceOnUse" id="color-116"><stop offset="0" stop-color="#ffffff"/><stop offset="1" stop-color="#dedede"/></linearGradient><linearGradient x1="275.29035" y1="320.69731" x2="275.29035" y2="331.71034" gradientUnits="userSpaceOnUse" id="color-117"><stop offset="0" stop-color="#ffffff"/><stop offset="1" stop-color="#dedede"/></linearGradient><linearGradient x1="275.29035" y1="320.69731" x2="275.29035" y2="331.71034" gradientUnits="userSpaceOnUse" id="color-118"><stop offset="0" stop-color="#ffffff"/><stop offset="1" stop-color="#dedede"/></linearGradient><linearGradient x1="289.04388" y1="320.71933" x2="289.04388" y2="335.02832" gradientUnits="userSpaceOnUse" id="color-119"><stop offset="0" stop-color="#ffffff"/><stop offset="1" stop-color="#dedede"/></linearGradient><linearGradient x1="309.85186" y1="317.36732" x2="309.85186" y2="331.71034" gradientUnits="userSpaceOnUse" id="color-120"><stop offset="0" stop-color="#ffffff"/><stop offset="1" stop-color="#dedede"/></linearGradient><linearGradient x1="324.67936" y1="320.70832" x2="324.67936" y2="331.71034" gradientUnits="userSpaceOnUse" id="color-121"><stop offset="0" stop-color="#ffffff"/><stop offset="1" stop-color="#dedede"/></linearGradient><linearGradient x1="336.97686" y1="320.69731" x2="336.97686" y2="331.71034" gradientUnits="userSpaceOnUse" id="color-122"><stop offset="0" stop-color="#ffffff"/><stop offset="1" stop-color="#dedede"/></linearGradient><linearGradient x1="351.88238" y1="320.69731" x2="351.88238" y2="331.71034" gradientUnits="userSpaceOnUse" id="color-123"><stop offset="0" stop-color="#ffffff"/><stop offset="1" stop-color="#dedede"/></linearGradient><linearGradient x1="372.43088" y1="318.3933" x2="372.43088" y2="331.7103" gradientUnits="userSpaceOnUse" id="color-124"><stop offset="0" stop-color="#ffffff"/><stop offset="1" stop-color="#dedede"/></linearGradient><linearGradient x1="396.39988" y1="318.3933" x2="396.39988" y2="331.7103" gradientUnits="userSpaceOnUse" id="color-125"><stop offset="0" stop-color="#ffffff"/><stop offset="1" stop-color="#dedede"/></linearGradient><linearGradient x1="407.82838" y1="319.62731" x2="407.82838" y2="331.71034" gradientUnits="userSpaceOnUse" id="color-126"><stop offset="0" stop-color="#ffffff"/><stop offset="1" stop-color="#dedede"/></linearGradient><linearGradient x1="418.24638" y1="325.0733" x2="418.24638" y2="328.48032" gradientUnits="userSpaceOnUse" id="color-127"><stop offset="0" stop-color="#ffffff"/><stop offset="1" stop-color="#dedede"/></linearGradient><linearGradient x1="430.09754" y1="318.3933" x2="430.09754" y2="331.7103" gradientUnits="userSpaceOnUse" id="color-128"><stop offset="0" stop-color="#ffffff"/><stop offset="1" stop-color="#dedede"/></linearGradient><linearGradient x1="63.05201" y1="316.85455" x2="63.05201" y2="333.18295" gradientUnits="userSpaceOnUse" id="color-129"><stop offset="0" stop-color="#ffffff"/><stop offset="1" stop-color="#dedede"/></linearGradient></defs><g transform="translate(-41.29089,-314.69299)"><g data-paper-data="{&quot;isPaintingLayer&quot;:true}" fill-rule="nonzero" stroke-linecap="butt" stroke-miterlimit="10" stroke-dasharray="" stroke-dashoffset="0" style="mix-blend-mode: normal"><g><g data-paper-data="{&quot;origPos&quot;:null}" stroke="#005385" stroke-width="3"><path d="M372.31226,318.30806c3.08573,0.79752 4.65686,1.25281 4.71398,1.37817c0,0.06819 0.75146,1.45744 2.24333,4.14441c-0.94561,3.07462 -1.44639,4.67959 -1.53733,4.81657c0,0 -1.71921,2.55054 -1.85622,2.37976l-3.63195,0.75143c-2.5622,-1.40031 -3.91705,-2.18617 -4.07621,-2.37973c-0.09155,-0.9794 -0.2396,-3.71184 -0.44422,-8.20954c2.41353,-1.58279 3.95086,-2.55054 4.58863,-2.88107zM373.10919,322.0543l-1.98097,2.00428c0.17082,2.08359 0.25009,3.35854 0.25009,3.81443c0.0455,0 0.47865,0.29617 1.27558,0.87682c1.05868,-0.22794 1.59386,-0.3871 1.59386,-0.48973l1.21843,-4.07617c-0.32997,-0.95668 -0.60338,-1.43474 -0.83132,-1.43474z" data-paper-data="{&quot;origPos&quot;:null}" fill="url(#color-1)" stroke-linejoin="miter"/><path d="" data-paper-data="{&quot;origPos&quot;:null}" fill="url(#color-2)" stroke-linejoin="miter"/><path d="M51.26536,319.34201c2.46994,0.96166 3.70528,1.47294 3.70528,1.53384c-0.79023,1.61354 -1.18572,2.4534 -1.18572,2.51956c-0.01654,0 -0.03308,0 -0.04962,0c-0.35339,-0.09925 -1.13008,-0.44436 -2.32933,-1.0361c-0.65715,0.46166 -1.31504,0.92331 -1.97294,1.38422c0,1.71354 0.09699,2.56994 0.29023,2.56994c0.12707,0.06617 0.95339,0.39775 2.47896,0.99474c0.58572,-0.58045 1.17971,-1.14136 1.78196,-1.68272c0.11053,0.09925 0.60527,0.88948 1.48347,2.37069c0,0.04962 0,0.09925 0,0.14887c-0.05489,0 -1.2767,0.66015 -3.66393,1.98121c-3.05039,-1.02256 -4.61656,-1.56693 -4.69927,-1.63309c-0.49474,-1.63309 -0.98948,-3.26543 -1.48422,-4.89852c1.39249,-1.97821 2.10302,-2.96768 2.13009,-2.96768c0.0609,0 1.23234,-0.42782 3.51506,-1.28497z" data-paper-data="{&quot;origPos&quot;:null}" fill="url(#color-3)" stroke-linejoin="miter"/><path d="M72.34387,317.27298c0.294,0 0.588,0 0.882,0c0.103,0 0.353,1.129 0.75,3.385c0.044,0.066 0.764,3.564 2.161,10.495l-0.133,0.066c-2.667,-0.081 -4.001,-0.195 -4.001,-0.342c0,-0.771 -0.316,-1.312 -0.949,-1.62c0,-0.03 -1.036,-0.864 -3.108,-2.503c-0.022,0 -0.044,0 -0.067,0c0.045,0.066 0.181,1.353 0.408,3.859c-2.153,0.632 -3.417,0.97 -3.792,1.014c-0.118,0 -0.478,-2.528 -1.08,-7.585c-0.096,-0.316 -0.346,-2.098 -0.75,-5.347l3.925,-1.08c0.088,0 0.338,1.624 0.749,4.873c1.286,1.128 2.573,2.256 3.859,3.384c0.022,0 0.044,0 0.066,0c0,-0.11 -0.566,-2.932 -1.698,-8.466c0.052,0 0.077,-0.022 0.077,-0.067c1.132,-0.044 2.033,-0.066 2.701,-0.066z" data-paper-data="{&quot;origPos&quot;:null}" fill="url(#color-4)" stroke-linejoin="miter"/><path d="M78.78288,316.19299l4.332,0.683c-0.544,2.08 -0.9,3.12 -1.069,3.12c-2.279,-0.154 -3.418,-0.305 -3.418,-0.452c0,-1.065 0,-2.131 0,-3.197c0.022,-0.103 0.074,-0.154 0.155,-0.154zM77.56987,321.44096c0.022,0 0.044,0 0.066,0c3.351,0.61 5.027,0.966 5.027,1.069c-0.963,5.453 -1.547,8.492 -1.753,9.117c-1.165,0 -2.33,0 -3.494,0c-0.103,0 -0.155,-0.052 -0.155,-0.154c0.103,-3.344 0.206,-6.688 0.309,-10.032z" data-paper-data="{&quot;origPos&quot;:null}" fill="url(#color-5)" stroke-linejoin="miter"/><path d="M93.22388,320.61396l3.671,2.524c-0.257,4.19 -0.437,6.637 -0.54,7.342c-0.426,0.052 -1.723,0.129 -3.891,0.232l-0.077,-0.154c-0.047,-0.712 -0.34,-5.176 -0.386,-5.887c-0.052,-0.026 -0.103,-0.052 -0.155,-0.078c-1.403,0.302 -2.37,0.53 -2.899,0.684c0.147,2.506 0.22,4.318 0.22,5.435c-2.19,0.61 -3.388,0.915 -3.594,0.915c-1.425,-6.277 -2.138,-9.591 -2.138,-9.944c3.101,-0.404 4.784,-0.606 5.049,-0.606c0,0.025 0,0.051 0,0.077c0.051,0.037 0.129,0.801 0.231,2.293c2.845,-1.889 4.348,-2.833 4.509,-2.833z" data-paper-data="{&quot;origPos&quot;:null}" fill="url(#color-6)" stroke-linejoin="miter"/><path d="M101.32688,317.28399l4.851,0.86c-0.034,0.273 -0.429,3.41 -0.463,3.682c0.963,-0.051 1.668,-0.077 2.117,-0.077c0.235,0 0.47,0 0.705,0l0.154,-0.077l0.078,0.154c-0.155,2.235 -0.287,3.491 -0.397,3.771l-0.155,-0.089c-0.11,0 -1.102,-0.051 -2.976,-0.154c-0.103,1.727 -0.18,3.792 -0.232,6.196l-0.154,0.077c-2.367,-0.154 -3.778,-0.287 -4.233,-0.397l0.077,-0.309c0,-0.639 0.103,-2.623 0.309,-5.953c-1.985,-0.11 -2.977,-0.242 -2.977,-0.397c0.103,-2.454 0.235,-3.682 0.397,-3.682l2.899,0.551c0,-0.316 0,-0.632 0,-0.948c0,-0.771 -0.029,-1.815 -0.088,-3.13c0.059,0 0.088,-0.026 0.088,-0.078z" data-paper-data="{&quot;origPos&quot;:null}" fill="url(#color-7)" stroke-linejoin="miter"/><path d="M116.18788,320.62497c3.329,1.712 5.174,2.712 5.534,2.998c-0.478,2.235 -0.76,3.385 -0.849,3.451c-2.322,0 -4.645,0 -6.967,0c0,0.04 0,0.081 0,0.121l1.951,2.415l3.065,-1.566c0.301,0.522 0.735,1.433 1.301,2.734c-0.265,0.088 -2.194,0.371 -5.788,0.849c-2.976,-1.962 -4.476,-2.984 -4.498,-3.065c0.478,-3.814 0.761,-5.721 0.849,-5.721c3.109,-1.323 4.91,-2.062 5.402,-2.216zM115.47088,323.29295c-0.058,0.147 -0.448,0.731 -1.168,1.752c0,0.309 0.433,0.464 1.301,0.464c0,0.044 0.628,0.15 1.885,0.319c0.345,-0.478 0.518,-0.757 0.518,-0.838c-0.11,-0.654 -0.349,-0.981 -0.717,-0.981z" data-paper-data="{&quot;origPos&quot;:null}" fill="url(#color-8)" stroke-linejoin="miter"/><path d="M132.51486,320.61396c0.282,0.194 3.389,2.33 3.671,2.524c-0.257,4.19 -0.437,6.637 -0.54,7.342c-0.426,0.052 -1.724,0.129 -3.892,0.232l-0.077,-0.154l-0.386,-5.887l-0.154,-0.078c-1.404,0.302 -2.37,0.53 -2.899,0.684c0.147,2.506 0.22,4.318 0.22,5.435c-2.19,0.61 -3.388,0.915 -3.594,0.915c-1.426,-6.277 -2.139,-9.591 -2.139,-9.944c3.102,-0.404 4.785,-0.606 5.05,-0.606c0,0.025 0,0.051 0,0.077c0.051,0.037 0.128,0.801 0.231,2.293c2.844,-1.889 4.347,-2.833 4.509,-2.833z" data-paper-data="{&quot;origPos&quot;:null}" fill="url(#color-9)" stroke-linejoin="miter"/><path d="M143.99088,317.27298c0.022,0 0.044,0 0.066,0c3.322,0.28 4.983,0.496 4.983,0.651c0.534,4.718 0.933,8.257 1.467,12.975c0,0.096 -1.467,0.338 -4.399,0.728l-0.066,-0.143c0,-0.394 0,-0.787 0,-1.18c-2.528,0.684 -4.263,1.125 -5.204,1.323c-2.234,-3.16 -3.406,-4.843 -3.516,-5.049c1.646,-2.991 2.524,-4.505 2.634,-4.542c1.54,0.073 3.08,0.147 4.62,0.22c-0.096,-0.566 -0.291,-2.227 -0.585,-4.983zM141.94088,325.17797c0.742,2.271 1.205,3.517 1.389,3.737l2.194,-1.907c-0.228,-1.316 -0.397,-1.974 -0.507,-1.974c-0.978,0 -1.955,0 -2.933,0c-0.095,0.015 -0.143,0.063 -0.143,0.144z" data-paper-data="{&quot;origPos&quot;:null}" fill="url(#color-10)" stroke-linejoin="miter"/><path d="M156.09587,320.62497c2.793,0.749 4.274,1.205 4.443,1.367c1.536,2.175 2.399,3.428 2.59,3.759c-0.992,3.146 -1.561,4.718 -1.708,4.718c-3.308,0.772 -5.038,1.158 -5.193,1.158c-2.734,-1.595 -4.189,-2.484 -4.365,-2.668c-0.096,-2.969 -0.144,-4.608 -0.144,-4.917c-0.044,-0.088 -0.066,-0.154 -0.066,-0.198c2.822,-2.146 4.281,-3.219 4.377,-3.219zM155.88687,324.65998c-0.045,0.294 -0.111,1.363 -0.199,3.208l2.458,0.551c0.588,-1.837 0.882,-2.819 0.882,-2.944c-1.955,-0.588 -3.002,-0.882 -3.141,-0.882c0,0.023 0,0.045 0,0.067z" data-paper-data="{&quot;origPos&quot;:null}" fill="url(#color-11)" stroke-linejoin="miter"/><path d="M180.76787,319.30198c0.015,0.029 0.03,0.059 0.044,0.088c-1.602,1.984 -2.631,3.425 -3.086,4.322c5.159,-8.291 -5.16,8.29 -5.16,8.29c0,0 -0.029,0 -0.044,0c-1.815,-0.177 -2.756,-0.294 -2.822,-0.353c5.365,-8.099 8.099,-12.185 8.202,-12.259c0.559,-0.029 1.514,-0.059 2.866,-0.088z" data-paper-data="{&quot;origPos&quot;:null}" fill="url(#color-12)" stroke-linejoin="miter"/><path d="M196.21288,317.28399c2.646,1.338 4.006,2.007 4.079,2.007c0,0.117 -0.551,1.179 -1.653,3.186c-0.026,0 -0.052,0 -0.077,0c-0.089,0 -1.356,-0.599 -3.804,-1.797c-0.415,0.555 -0.83,1.11 -1.246,1.665c2.11,1.014 4.671,2.307 7.684,3.88c-1.367,2.433 -2.337,4.05 -2.91,4.851c-2.076,0.184 -4.152,0.367 -6.229,0.551c-2.844,-1.918 -4.347,-2.91 -4.509,-2.977c0,-0.025 0,-0.051 0,-0.077c0,-0.206 0.577,-1.15 1.731,-2.833c0.048,0 0.096,0 0.143,0c0.456,0.272 1.886,1.055 4.289,2.348c0.485,-0.551 0.97,-1.102 1.455,-1.653c-4.417,-2.249 -6.864,-3.521 -7.342,-3.815c0,-0.022 0,-0.044 0,-0.066c1.404,-2.734 2.168,-4.119 2.293,-4.156c3.653,-0.742 5.685,-1.114 6.096,-1.114z" data-paper-data="{&quot;origPos&quot;:null}" fill="url(#color-13)" stroke-linejoin="miter"/><path d="M206.69788,320.62497c3.314,0.624 5.049,0.981 5.203,1.069c0,0.044 0,0.088 0,0.132c-0.713,2.014 -1.069,3.058 -1.069,3.131c-0.022,0 -0.044,0 -0.066,0c-0.184,0 -1.074,-0.286 -2.668,-0.86c-0.89,1.492 -1.334,2.29 -1.334,2.393c0.735,0.713 1.47,1.425 2.205,2.138c1.705,-1.602 2.572,-2.403 2.601,-2.403c1.331,1.742 1.996,2.719 1.996,2.933c-0.728,0.418 -1.996,1.242 -3.804,2.469c-3.498,-0.757 -5.387,-1.18 -5.666,-1.268c-0.186,-0.6 -1.546,-5 -1.731,-5.6c1.444,-1.378 2.888,-2.756 4.333,-4.134z" data-paper-data="{&quot;origPos&quot;:null}" fill="url(#color-14)" stroke-linejoin="miter"/><path d="M222.58388,320.61396c1.455,0.816 2.348,1.345 2.678,1.587c-1.19,2.477 -1.83,3.737 -1.918,3.782c-0.025,0 -0.051,0 -0.077,0c-0.525,-0.46 -1.051,-0.919 -1.576,-1.378c1.863,-2.271 -3.727,4.542 -1.864,2.271c0.07,1.378 0.14,2.756 0.21,4.134c-0.096,0.088 -1.312,0.294 -3.649,0.617c-0.088,-0.632 -0.662,-3.73 -1.72,-9.293c0,-0.089 1.536,-0.317 4.608,-0.684c0.052,0.059 0.191,0.746 0.419,2.062c1.838,-2.066 2.8,-3.098 2.889,-3.098z" data-paper-data="{&quot;origPos&quot;:null}" fill="url(#color-15)" stroke-linejoin="miter"/><path d="M227.80888,320.61396c4.366,0.602 6.549,0.974 6.549,1.113c1.719,1.477 2.579,2.268 2.579,2.37c-0.698,2.183 -1.095,3.51 -1.19,3.98c0.698,1.551 1.095,2.477 1.19,2.778c0,0.088 -1.139,0.324 -3.417,0.706c-0.03,-0.125 -0.239,-0.404 -0.629,-0.838c-3.145,0.603 -4.839,0.904 -5.082,0.904c-0.558,-1.51 -1.117,-3.021 -1.676,-4.531l3.694,-1.951c0.595,0.095 1.525,0.143 2.789,0.143c0,-0.162 0.022,-0.65 0.066,-1.466c-0.213,0 -2.117,0.139 -5.711,0.419c-0.022,-0.048 -0.044,-0.096 -0.066,-0.144c0.5,-2.322 0.801,-3.483 0.904,-3.483zM230.10187,327.09595c0,0.081 0.235,0.941 0.706,2.58c0.022,0 0.044,0 0.066,0c0.926,-0.603 1.389,-1 1.389,-1.191c0.048,-0.393 0.095,-0.786 0.143,-1.18c-0.176,0 -0.944,-0.069 -2.304,-0.209z" data-paper-data="{&quot;origPos&quot;:null}" fill="url(#color-16)" stroke-linejoin="miter"/><path d="M237.99588,317.295c2.249,0.044 3.898,0.067 4.949,0.067c0.096,0 0.386,4.512 0.871,13.537c-0.374,0.096 -1.683,0.339 -3.924,0.728c-0.111,0 -0.474,-2.763 -1.092,-8.29c-0.051,-0.133 -0.319,-2.146 -0.804,-6.042z" data-paper-data="{&quot;origPos&quot;:null}" fill="url(#color-17)" stroke-linejoin="miter"/><path d="M246.72687,320.61396c4.365,0.602 6.548,0.974 6.548,1.113c1.72,1.477 2.58,2.268 2.58,2.37c-0.698,2.183 -1.095,3.51 -1.191,3.98c0.699,1.551 1.095,2.477 1.191,2.778c0,0.088 -1.139,0.324 -3.418,0.706c-0.029,-0.125 -0.238,-0.404 -0.628,-0.838c-3.146,0.603 -4.84,0.904 -5.082,0.904c-0.559,-1.51 -1.117,-3.021 -1.676,-4.531l3.693,-1.951c0.596,0.095 1.525,0.143 2.789,0.143c0,-0.162 0.022,-0.65 0.066,-1.466c-0.213,0 -2.116,0.139 -5.71,0.419c-0.022,-0.048 -0.044,-0.096 -0.066,-0.144c0.499,-2.322 0.801,-3.483 0.904,-3.483zM249.01988,327.09595c0,0.081 0.235,0.941 0.705,2.58c0.022,0 0.045,0 0.067,0c0.926,-0.603 1.389,-1 1.389,-1.191c0.047,-0.393 0.095,-0.786 0.143,-1.18c-0.176,0 -0.945,-0.069 -2.304,-0.209z" data-paper-data="{&quot;origPos&quot;:null}" fill="url(#color-18)" stroke-linejoin="miter"/><path d="M264.75185,320.61396c0.014,0 0.029,0 0.044,0c1.962,1.154 3.02,1.756 3.175,1.808c0,0.033 0,0.066 0,0.099c-0.507,0.581 -1.441,1.587 -2.801,3.021c2.668,0.992 4.168,1.591 4.498,1.797c-0.83,1.025 -1.661,2.05 -2.491,3.075c-1.683,-1.44 -2.756,-2.341 -3.219,-2.701c-1.139,2.22 -1.849,3.524 -2.128,3.914c-0.015,0 -0.029,0 -0.044,0c-2.109,-0.742 -3.256,-1.183 -3.44,-1.323c0,-0.018 0,-0.037 0,-0.055c0.971,-1.268 1.941,-2.536 2.911,-3.803c-2.705,-1.118 -4.153,-1.772 -4.344,-1.963c1.191,-2.021 1.86,-3.098 2.007,-3.23c0.022,0.052 1.33,0.952 3.924,2.701c0.919,-1.698 1.555,-2.811 1.908,-3.34z" data-paper-data="{&quot;origPos&quot;:null}" fill="url(#color-19)" stroke-linejoin="miter"/><path d="M275.74288,320.63598c0.103,0.014 0.154,0.066 0.154,0.154c0.05,-0.276 -1.196,6.626 -1.146,6.35c2.19,-0.257 3.285,-0.463 3.285,-0.617c0.411,-2.543 0.694,-3.969 0.849,-4.278c2.712,0.559 4.215,0.89 4.509,0.993c-1.581,5.431 -2.448,8.26 -2.602,8.488c-2.764,1.94 -4.318,3.014 -4.663,3.219c-0.103,0 -1.863,-0.433 -5.281,-1.301c0,-0.025 0,-0.051 0,-0.077c0.904,-1.991 1.466,-2.987 1.687,-2.987c1.12,0.562 2.241,1.124 3.362,1.686c0.537,-0.918 1.073,-1.837 1.61,-2.756c-1.448,0.36 -2.29,0.54 -2.525,0.54c-1.429,-0.742 -2.859,-1.484 -4.288,-2.226c0.521,-4.792 0.852,-7.188 0.992,-7.188c1.352,0 2.704,0 4.057,0z" data-paper-data="{&quot;origPos&quot;:null}" fill="url(#color-20)" stroke-linejoin="miter"/><path d="M305.56388,317.28399c0.022,0.048 0.044,0.096 0.066,0.144c-0.191,2.807 -0.335,4.211 -0.43,4.211c-0.022,0 -0.044,0 -0.066,0c-3.036,-0.243 -4.726,-0.386 -5.072,-0.43c0,3.26 0,6.519 0,9.779c0,0.176 -0.69,0.294 -2.072,0.352c0,0.052 -0.783,0.147 -2.348,0.287c-0.026,-0.048 -0.052,-0.096 -0.077,-0.143c0.338,-5.836 0.554,-9.283 0.65,-10.341c-1.161,0.184 -2.874,0.419 -5.137,0.705c-0.669,-2.498 -1.004,-3.781 -1.004,-3.847c0,-0.096 5.163,-0.334 15.49,-0.717z" data-paper-data="{&quot;origPos&quot;:null}" fill="url(#color-21)" stroke-linejoin="miter"/><path d="M313.03786,320.62497c3.329,1.712 5.174,2.712 5.534,2.998c-0.478,2.235 -0.761,3.385 -0.849,3.451c-2.322,0 -4.645,0 -6.967,0c0,0.04 0,0.081 0,0.121c0.65,0.805 1.301,1.61 1.951,2.415c1.022,-0.522 2.043,-1.044 3.065,-1.566c0.301,0.522 0.735,1.433 1.301,2.734c-0.265,0.088 -2.194,0.371 -5.788,0.849c-2.976,-1.962 -4.476,-2.984 -4.498,-3.065c0.478,-3.814 0.761,-5.721 0.849,-5.721c3.109,-1.323 4.91,-2.062 5.402,-2.216zM312.32088,323.29295c-0.058,0.147 -0.448,0.731 -1.168,1.752c0,0.309 0.433,0.464 1.301,0.464c0,0.044 0.628,0.15 1.885,0.319c0.345,-0.478 0.518,-0.757 0.518,-0.838c-0.11,-0.654 -0.349,-0.981 -0.717,-0.981c-0.606,-0.239 -1.212,-0.478 -1.819,-0.716z" data-paper-data="{&quot;origPos&quot;:null}" fill="url(#color-22)" stroke-linejoin="miter"/><path d="M321.25086,320.61396c4.366,0.602 6.549,0.974 6.549,1.113c1.719,1.477 2.579,2.268 2.579,2.37c-0.698,2.183 -1.095,3.51 -1.19,3.98c0.698,1.551 1.095,2.477 1.19,2.778c0,0.088 -1.139,0.324 -3.417,0.706c-0.03,-0.125 -0.239,-0.404 -0.629,-0.838c-3.145,0.603 -4.839,0.904 -5.082,0.904c-0.558,-1.51 -1.117,-3.021 -1.676,-4.531l3.694,-1.951c0.595,0.095 1.525,0.143 2.789,0.143c0,-0.162 0.022,-0.65 0.066,-1.466c-0.213,0 -2.117,0.139 -5.711,0.419c-0.022,-0.048 -0.044,-0.096 -0.066,-0.144c0.5,-2.322 0.801,-3.483 0.904,-3.483zM323.54388,327.09595c0,0.081 0.235,0.941 0.706,2.58c0.022,0 0.044,0 0.066,0c0.926,-0.603 1.389,-1 1.389,-1.191c0.048,-0.393 0.095,-0.786 0.143,-1.18c-0.176,0 -0.944,-0.069 -2.304,-0.209z" data-paper-data="{&quot;origPos&quot;:null}" fill="url(#color-23)" stroke-linejoin="miter"/><path d="M343.68588,320.61396c1.793,0.742 3.34,1.44 4.641,2.094c-0.338,4.373 -0.555,6.766 -0.651,7.177c-2.16,0.537 -3.369,0.805 -3.627,0.805c0,-0.956 -0.073,-2.841 -0.22,-5.656c-0.816,0.081 -1.224,0.151 -1.224,0.21c0,0.279 0.048,1.874 0.143,4.784c0.045,0 0.067,0.026 0.067,0.078c0,0.088 -1.136,0.33 -3.407,0.727c-0.095,-0.117 -0.386,-1.907 -0.871,-5.369c-0.919,0.236 -1.378,0.405 -1.378,0.508c0.147,1.499 0.294,2.998 0.441,4.497c-0.088,0.096 -1.297,0.482 -3.627,1.158c-1.352,-4.785 -2.197,-7.996 -2.535,-9.635c2.55,-0.632 3.976,-0.948 4.277,-0.948c0.338,1.337 0.507,2.109 0.507,2.315c0.026,0 0.052,0 0.077,0c1.242,-1.147 2.11,-1.918 2.602,-2.315c0.026,0 0.052,0 0.077,0c0.772,0.555 1.544,1.109 2.315,1.664c0.026,0 0.052,0 0.078,0c1.447,-1.396 2.219,-2.094 2.315,-2.094z" data-paper-data="{&quot;origPos&quot;:null}" fill="url(#color-24)" stroke-linejoin="miter"/><path d="M358.73388,318.30995c1.646,0.294 3.292,0.588 4.939,0.882c1.425,2.895 2.16,4.453 2.204,4.674c-3.219,2.719 -4.85,4.116 -4.894,4.189c1.47,-0.162 2.94,-0.323 4.409,-0.485c0.015,0.029 0.03,0.059 0.045,0.088c-0.339,2.646 -0.544,3.969 -0.618,3.969c-4.975,-0.118 -7.974,-0.176 -8.996,-0.176c-0.088,0 -0.264,-0.971 -0.529,-2.911c0.5,-0.389 0.956,-0.816 1.367,-1.279c2.227,-2.028 2.227,-2.028 4.454,-4.057c-0.375,-0.521 -0.639,-0.859 -0.794,-1.014c-0.757,0.875 -1.433,1.595 -2.028,2.161c-1.882,-1.441 -2.984,-2.308 -3.308,-2.602c0,-0.029 0,-0.059 0,-0.088c0.155,-0.096 1.316,-1.139 3.484,-3.131c0,-0.022 0.088,-0.095 0.265,-0.22z" data-paper-data="{&quot;origPos&quot;:null}" fill="url(#color-25)" stroke-linejoin="miter"/><path d="M384.66387,318.30995c2.499,0.279 3.749,0.455 3.749,0.529c0.029,5.497 0.044,9.701 0.044,12.612c0,0.029 0,0.058 0,0.088c-0.015,0.029 -0.03,0.059 -0.044,0.088c-1.294,-0.044 -2.587,-0.088 -3.881,-0.132c0,-0.03 -0.015,-0.044 -0.044,-0.044c0.176,-4.917 0.264,-7.534 0.264,-7.85c-0.44,0.427 -0.881,0.853 -1.322,1.279c-0.074,-0.044 -1.103,-1.132 -3.087,-3.263c1.558,-1.235 2.998,-2.337 4.321,-3.307z" data-paper-data="{&quot;origPos&quot;:null}" fill="url(#color-26)" stroke-linejoin="miter"/><path d="M400.08388,319.54399c0.338,0.956 0.676,1.911 1.014,2.867c-1.675,2.653 -2.513,4.064 -2.513,4.233c-0.074,1.646 -0.147,3.293 -0.221,4.939c-0.029,0.015 -0.059,0.029 -0.088,0.044c-2.999,-0.059 -4.645,-0.088 -4.939,-0.088c-0.059,-0.03 -0.117,-0.059 -0.176,-0.088c1.969,-5.248 2.969,-7.953 2.998,-8.114c-0.147,-0.088 -0.264,-0.133 -0.352,-0.133c-1.72,0.118 -3.44,0.236 -5.16,0.353c0,0.03 -0.014,0.044 -0.044,0.044c-0.029,-0.059 -0.044,-0.103 -0.044,-0.132c0.441,-2.587 0.706,-3.881 0.794,-3.881c0.015,0 0.029,0 0.044,0c1.771,0 4.667,-0.014 8.687,-0.044z" data-paper-data="{&quot;origPos&quot;:null}" fill="url(#color-27)" stroke-linejoin="miter"/><path d="M410.40288,324.98995c0.022,0.048 0.044,0.096 0.066,0.144c-0.044,0.985 -0.066,1.789 -0.066,2.414c0,0.118 0,0.235 0,0.353c0,0.066 -0.074,0.136 -0.221,0.209c-0.801,0 -3.355,0.096 -7.662,0.287c-0.08,0 -0.246,-1.066 -0.496,-3.197c0.044,0 0.067,-0.022 0.067,-0.066c2.41,-0.052 4.303,-0.077 5.677,-0.077c0.404,0 0.809,0 1.213,0c0.308,0 0.782,-0.022 1.422,-0.067z" data-paper-data="{&quot;origPos&quot;:null}" fill="url(#color-28)" stroke-linejoin="miter"/><path d="M416.40054,318.30995c1.646,0.294 3.292,0.588 4.939,0.882c1.425,2.895 2.16,4.453 2.204,4.674c-3.219,2.719 -4.85,4.116 -4.894,4.189c1.47,-0.162 2.94,-0.323 4.409,-0.485c0.015,0.029 0.03,0.059 0.045,0.088c-0.339,2.646 -0.544,3.969 -0.618,3.969c-4.975,-0.118 -7.974,-0.176 -8.996,-0.176c-0.088,0 -0.264,-0.971 -0.529,-2.911c0.5,-0.389 0.956,-0.816 1.367,-1.279c2.227,-2.028 2.227,-2.028 4.454,-4.057c-0.375,-0.521 -0.639,-0.859 -0.794,-1.014c-0.757,0.875 -1.433,1.595 -2.028,2.161c-1.882,-1.441 -2.984,-2.308 -3.308,-2.602c0,-0.029 0,-0.059 0,-0.088c0.155,-0.096 1.316,-1.139 3.484,-3.131c0,-0.022 0.08799,-0.095 0.26499,-0.22z" data-paper-data="{&quot;origPos&quot;:null}" fill="url(#color-29)" stroke-linejoin="miter"/><path d="M51.05197,316.7712c2.27928,0 4.34454,0.91339 5.84004,2.39223c1.49543,1.47891 2.42112,3.5189 2.42112,5.77197c0,2.25307 -0.92569,4.29305 -2.42112,5.77196c-1.49551,1.47884 -3.56076,2.39224 -5.84004,2.39224c-2.2792,0 -4.34445,-0.9134 -5.83996,-2.39224c-1.49543,-1.47891 -2.42112,-3.51889 -2.42112,-5.77196c0,-2.25307 0.92569,-4.29306 2.42112,-5.77197c1.49551,-1.47884 3.56076,-2.39223 5.83996,-2.39223zM51.15016,331.68932c3.72792,0 6.75,-3.02208 6.75,-6.75c0,-3.72792 -3.02208,-6.75 -6.75,-6.75c-3.72792,0 -6.75,3.02208 -6.75,6.75c0,3.72792 3.02208,6.75 6.75,6.75z" data-paper-data="{&quot;origPos&quot;:null}" fill="url(#color-30)" stroke-linejoin="round"/></g><g data-paper-data="{&quot;origPos&quot;:null}" stroke="#000000" stroke-width="0"><path d="M372.31226,318.30806c3.08573,0.79752 4.65686,1.25281 4.71398,1.37817c0,0.06819 0.75146,1.45744 2.24333,4.14441c-0.94561,3.07462 -1.44639,4.67959 -1.53733,4.81657c0,0 -1.71921,2.55054 -1.85622,2.37976l-3.63195,0.75143c-2.5622,-1.40031 -3.91705,-2.18617 -4.07621,-2.37973c-0.09155,-0.9794 -0.2396,-3.71184 -0.44422,-8.20954c2.41353,-1.58279 3.95086,-2.55054 4.58863,-2.88107zM373.10919,322.0543l-1.98097,2.00428c0.17082,2.08359 0.25009,3.35854 0.25009,3.81443c0.0455,0 0.47865,0.29617 1.27558,0.87682c1.05868,-0.22794 1.59386,-0.3871 1.59386,-0.48973l1.21843,-4.07617c-0.32997,-0.95668 -0.60338,-1.43474 -0.83132,-1.43474z" data-paper-data="{&quot;origPos&quot;:null}" fill="url(#color-31)" stroke-linejoin="miter"/><path d="" data-paper-data="{&quot;origPos&quot;:null}" fill="url(#color-32)" stroke-linejoin="miter"/><path d="M51.26536,319.34201c2.46994,0.96166 3.70528,1.47294 3.70528,1.53384c-0.79023,1.61354 -1.18572,2.4534 -1.18572,2.51956c-0.01654,0 -0.03308,0 -0.04962,0c-0.35339,-0.09925 -1.13008,-0.44436 -2.32933,-1.0361c-0.65715,0.46166 -1.31504,0.92331 -1.97294,1.38422c0,1.71354 0.09699,2.56994 0.29023,2.56994c0.12707,0.06617 0.95339,0.39775 2.47896,0.99474c0.58572,-0.58045 1.17971,-1.14136 1.78196,-1.68272c0.11053,0.09925 0.60527,0.88948 1.48347,2.37069c0,0.04962 0,0.09925 0,0.14887c-0.05489,0 -1.2767,0.66015 -3.66393,1.98121c-3.05039,-1.02256 -4.61656,-1.56693 -4.69927,-1.63309c-0.49474,-1.63309 -0.98948,-3.26543 -1.48422,-4.89852c1.39249,-1.97821 2.10302,-2.96768 2.13009,-2.96768c0.0609,0 1.23234,-0.42782 3.51506,-1.28497z" data-paper-data="{&quot;origPos&quot;:null}" fill="url(#color-33)" stroke-linejoin="miter"/><path d="M72.34387,317.27298c0.294,0 0.588,0 0.882,0c0.103,0 0.353,1.129 0.75,3.385c0.044,0.066 0.764,3.564 2.161,10.495l-0.133,0.066c-2.667,-0.081 -4.001,-0.195 -4.001,-0.342c0,-0.771 -0.316,-1.312 -0.949,-1.62c0,-0.03 -1.036,-0.864 -3.108,-2.503c-0.022,0 -0.044,0 -0.067,0c0.045,0.066 0.181,1.353 0.408,3.859c-2.153,0.632 -3.417,0.97 -3.792,1.014c-0.118,0 -0.478,-2.528 -1.08,-7.585c-0.096,-0.316 -0.346,-2.098 -0.75,-5.347l3.925,-1.08c0.088,0 0.338,1.624 0.749,4.873c1.286,1.128 2.573,2.256 3.859,3.384c0.022,0 0.044,0 0.066,0c0,-0.11 -0.566,-2.932 -1.698,-8.466c0.052,0 0.077,-0.022 0.077,-0.067c1.132,-0.044 2.033,-0.066 2.701,-0.066z" data-paper-data="{&quot;origPos&quot;:null}" fill="url(#color-34)" stroke-linejoin="miter"/><path d="M78.78288,316.19299l4.332,0.683c-0.544,2.08 -0.9,3.12 -1.069,3.12c-2.279,-0.154 -3.418,-0.305 -3.418,-0.452c0,-1.065 0,-2.131 0,-3.197c0.022,-0.103 0.074,-0.154 0.155,-0.154zM77.56987,321.44096c0.022,0 0.044,0 0.066,0c3.351,0.61 5.027,0.966 5.027,1.069c-0.963,5.453 -1.547,8.492 -1.753,9.117c-1.165,0 -2.33,0 -3.494,0c-0.103,0 -0.155,-0.052 -0.155,-0.154c0.103,-3.344 0.206,-6.688 0.309,-10.032z" data-paper-data="{&quot;origPos&quot;:null}" fill="url(#color-35)" stroke-linejoin="miter"/><path d="M93.22388,320.61396l3.671,2.524c-0.257,4.19 -0.437,6.637 -0.54,7.342c-0.426,0.052 -1.723,0.129 -3.891,0.232l-0.077,-0.154c-0.047,-0.712 -0.34,-5.176 -0.386,-5.887c-0.052,-0.026 -0.103,-0.052 -0.155,-0.078c-1.403,0.302 -2.37,0.53 -2.899,0.684c0.147,2.506 0.22,4.318 0.22,5.435c-2.19,0.61 -3.388,0.915 -3.594,0.915c-1.425,-6.277 -2.138,-9.591 -2.138,-9.944c3.101,-0.404 4.784,-0.606 5.049,-0.606c0,0.025 0,0.051 0,0.077c0.051,0.037 0.129,0.801 0.231,2.293c2.845,-1.889 4.348,-2.833 4.509,-2.833z" data-paper-data="{&quot;origPos&quot;:null}" fill="url(#color-36)" stroke-linejoin="miter"/><path d="M101.32688,317.28399l4.851,0.86c-0.034,0.273 -0.429,3.41 -0.463,3.682c0.963,-0.051 1.668,-0.077 2.117,-0.077c0.235,0 0.47,0 0.705,0l0.154,-0.077l0.078,0.154c-0.155,2.235 -0.287,3.491 -0.397,3.771l-0.155,-0.089c-0.11,0 -1.102,-0.051 -2.976,-0.154c-0.103,1.727 -0.18,3.792 -0.232,6.196l-0.154,0.077c-2.367,-0.154 -3.778,-0.287 -4.233,-0.397l0.077,-0.309c0,-0.639 0.103,-2.623 0.309,-5.953c-1.985,-0.11 -2.977,-0.242 -2.977,-0.397c0.103,-2.454 0.235,-3.682 0.397,-3.682l2.899,0.551c0,-0.316 0,-0.632 0,-0.948c0,-0.771 -0.029,-1.815 -0.088,-3.13c0.059,0 0.088,-0.026 0.088,-0.078z" data-paper-data="{&quot;origPos&quot;:null}" fill="url(#color-37)" stroke-linejoin="miter"/><path d="M116.18788,320.62497c3.329,1.712 5.174,2.712 5.534,2.998c-0.478,2.235 -0.76,3.385 -0.849,3.451c-2.322,0 -4.645,0 -6.967,0c0,0.04 0,0.081 0,0.121l1.951,2.415l3.065,-1.566c0.301,0.522 0.735,1.433 1.301,2.734c-0.265,0.088 -2.194,0.371 -5.788,0.849c-2.976,-1.962 -4.476,-2.984 -4.498,-3.065c0.478,-3.814 0.761,-5.721 0.849,-5.721c3.109,-1.323 4.91,-2.062 5.402,-2.216zM115.47088,323.29295c-0.058,0.147 -0.448,0.731 -1.168,1.752c0,0.309 0.433,0.464 1.301,0.464c0,0.044 0.628,0.15 1.885,0.319c0.345,-0.478 0.518,-0.757 0.518,-0.838c-0.11,-0.654 -0.349,-0.981 -0.717,-0.981z" data-paper-data="{&quot;origPos&quot;:null}" fill="url(#color-38)" stroke-linejoin="miter"/><path d="M132.51486,320.61396c0.282,0.194 3.389,2.33 3.671,2.524c-0.257,4.19 -0.437,6.637 -0.54,7.342c-0.426,0.052 -1.724,0.129 -3.892,0.232l-0.077,-0.154l-0.386,-5.887l-0.154,-0.078c-1.404,0.302 -2.37,0.53 -2.899,0.684c0.147,2.506 0.22,4.318 0.22,5.435c-2.19,0.61 -3.388,0.915 -3.594,0.915c-1.426,-6.277 -2.139,-9.591 -2.139,-9.944c3.102,-0.404 4.785,-0.606 5.05,-0.606c0,0.025 0,0.051 0,0.077c0.051,0.037 0.128,0.801 0.231,2.293c2.844,-1.889 4.347,-2.833 4.509,-2.833z" data-paper-data="{&quot;origPos&quot;:null}" fill="url(#color-39)" stroke-linejoin="miter"/><path d="M143.99088,317.27298c0.022,0 0.044,0 0.066,0c3.322,0.28 4.983,0.496 4.983,0.651c0.534,4.718 0.933,8.257 1.467,12.975c0,0.096 -1.467,0.338 -4.399,0.728l-0.066,-0.143c0,-0.394 0,-0.787 0,-1.18c-2.528,0.684 -4.263,1.125 -5.204,1.323c-2.234,-3.16 -3.406,-4.843 -3.516,-5.049c1.646,-2.991 2.524,-4.505 2.634,-4.542c1.54,0.073 3.08,0.147 4.62,0.22c-0.096,-0.566 -0.291,-2.227 -0.585,-4.983zM141.94088,325.17797c0.742,2.271 1.205,3.517 1.389,3.737l2.194,-1.907c-0.228,-1.316 -0.397,-1.974 -0.507,-1.974c-0.978,0 -1.955,0 -2.933,0c-0.095,0.015 -0.143,0.063 -0.143,0.144z" data-paper-data="{&quot;origPos&quot;:null}" fill="url(#color-40)" stroke-linejoin="miter"/><path d="M156.09587,320.62497c2.793,0.749 4.274,1.205 4.443,1.367c1.536,2.175 2.399,3.428 2.59,3.759c-0.992,3.146 -1.561,4.718 -1.708,4.718c-3.308,0.772 -5.038,1.158 -5.193,1.158c-2.734,-1.595 -4.189,-2.484 -4.365,-2.668c-0.096,-2.969 -0.144,-4.608 -0.144,-4.917c-0.044,-0.088 -0.066,-0.154 -0.066,-0.198c2.822,-2.146 4.281,-3.219 4.377,-3.219zM155.88687,324.65998c-0.045,0.294 -0.111,1.363 -0.199,3.208l2.458,0.551c0.588,-1.837 0.882,-2.819 0.882,-2.944c-1.955,-0.588 -3.002,-0.882 -3.141,-0.882c0,0.023 0,0.045 0,0.067z" data-paper-data="{&quot;origPos&quot;:null}" fill="url(#color-41)" stroke-linejoin="miter"/><path d="M180.76787,319.30198c0.015,0.029 0.03,0.059 0.044,0.088c-1.602,1.984 -2.631,3.425 -3.086,4.322c5.159,-8.291 -5.16,8.29 -5.16,8.29c0,0 -0.029,0 -0.044,0c-1.815,-0.177 -2.756,-0.294 -2.822,-0.353c5.365,-8.099 8.099,-12.185 8.202,-12.259c0.559,-0.029 1.514,-0.059 2.866,-0.088z" data-paper-data="{&quot;origPos&quot;:null}" fill="url(#color-42)" stroke-linejoin="miter"/><path d="M196.21288,317.28399c2.646,1.338 4.006,2.007 4.079,2.007c0,0.117 -0.551,1.179 -1.653,3.186c-0.026,0 -0.052,0 -0.077,0c-0.089,0 -1.356,-0.599 -3.804,-1.797c-0.415,0.555 -0.83,1.11 -1.246,1.665c2.11,1.014 4.671,2.307 7.684,3.88c-1.367,2.433 -2.337,4.05 -2.91,4.851c-2.076,0.184 -4.152,0.367 -6.229,0.551c-2.844,-1.918 -4.347,-2.91 -4.509,-2.977c0,-0.025 0,-0.051 0,-0.077c0,-0.206 0.577,-1.15 1.731,-2.833c0.048,0 0.096,0 0.143,0c0.456,0.272 1.886,1.055 4.289,2.348c0.485,-0.551 0.97,-1.102 1.455,-1.653c-4.417,-2.249 -6.864,-3.521 -7.342,-3.815c0,-0.022 0,-0.044 0,-0.066c1.404,-2.734 2.168,-4.119 2.293,-4.156c3.653,-0.742 5.685,-1.114 6.096,-1.114z" data-paper-data="{&quot;origPos&quot;:null}" fill="url(#color-43)" stroke-linejoin="miter"/><path d="M206.69788,320.62497c3.314,0.624 5.049,0.981 5.203,1.069c0,0.044 0,0.088 0,0.132c-0.713,2.014 -1.069,3.058 -1.069,3.131c-0.022,0 -0.044,0 -0.066,0c-0.184,0 -1.074,-0.286 -2.668,-0.86c-0.89,1.492 -1.334,2.29 -1.334,2.393c0.735,0.713 1.47,1.425 2.205,2.138c1.705,-1.602 2.572,-2.403 2.601,-2.403c1.331,1.742 1.996,2.719 1.996,2.933c-0.728,0.418 -1.996,1.242 -3.804,2.469c-3.498,-0.757 -5.387,-1.18 -5.666,-1.268c-0.186,-0.6 -1.546,-5 -1.731,-5.6c1.444,-1.378 2.888,-2.756 4.333,-4.134z" data-paper-data="{&quot;origPos&quot;:null}" fill="url(#color-44)" stroke-linejoin="miter"/><path d="M222.58388,320.61396c1.455,0.816 2.348,1.345 2.678,1.587c-1.19,2.477 -1.83,3.737 -1.918,3.782c-0.025,0 -0.051,0 -0.077,0c-0.525,-0.46 -1.051,-0.919 -1.576,-1.378c1.863,-2.271 -3.727,4.542 -1.864,2.271c0.07,1.378 0.14,2.756 0.21,4.134c-0.096,0.088 -1.312,0.294 -3.649,0.617c-0.088,-0.632 -0.662,-3.73 -1.72,-9.293c0,-0.089 1.536,-0.317 4.608,-0.684c0.052,0.059 0.191,0.746 0.419,2.062c1.838,-2.066 2.8,-3.098 2.889,-3.098z" data-paper-data="{&quot;origPos&quot;:null}" fill="url(#color-45)" stroke-linejoin="miter"/><path d="M227.80888,320.61396c4.366,0.602 6.549,0.974 6.549,1.113c1.719,1.477 2.579,2.268 2.579,2.37c-0.698,2.183 -1.095,3.51 -1.19,3.98c0.698,1.551 1.095,2.477 1.19,2.778c0,0.088 -1.139,0.324 -3.417,0.706c-0.03,-0.125 -0.239,-0.404 -0.629,-0.838c-3.145,0.603 -4.839,0.904 -5.082,0.904c-0.558,-1.51 -1.117,-3.021 -1.676,-4.531l3.694,-1.951c0.595,0.095 1.525,0.143 2.789,0.143c0,-0.162 0.022,-0.65 0.066,-1.466c-0.213,0 -2.117,0.139 -5.711,0.419c-0.022,-0.048 -0.044,-0.096 -0.066,-0.144c0.5,-2.322 0.801,-3.483 0.904,-3.483zM230.10187,327.09595c0,0.081 0.235,0.941 0.706,2.58c0.022,0 0.044,0 0.066,0c0.926,-0.603 1.389,-1 1.389,-1.191c0.048,-0.393 0.095,-0.786 0.143,-1.18c-0.176,0 -0.944,-0.069 -2.304,-0.209z" data-paper-data="{&quot;origPos&quot;:null}" fill="url(#color-46)" stroke-linejoin="miter"/><path d="M237.99588,317.295c2.249,0.044 3.898,0.067 4.949,0.067c0.096,0 0.386,4.512 0.871,13.537c-0.374,0.096 -1.683,0.339 -3.924,0.728c-0.111,0 -0.474,-2.763 -1.092,-8.29c-0.051,-0.133 -0.319,-2.146 -0.804,-6.042z" data-paper-data="{&quot;origPos&quot;:null}" fill="url(#color-47)" stroke-linejoin="miter"/><path d="M246.72687,320.61396c4.365,0.602 6.548,0.974 6.548,1.113c1.72,1.477 2.58,2.268 2.58,2.37c-0.698,2.183 -1.095,3.51 -1.191,3.98c0.699,1.551 1.095,2.477 1.191,2.778c0,0.088 -1.139,0.324 -3.418,0.706c-0.029,-0.125 -0.238,-0.404 -0.628,-0.838c-3.146,0.603 -4.84,0.904 -5.082,0.904c-0.559,-1.51 -1.117,-3.021 -1.676,-4.531l3.693,-1.951c0.596,0.095 1.525,0.143 2.789,0.143c0,-0.162 0.022,-0.65 0.066,-1.466c-0.213,0 -2.116,0.139 -5.71,0.419c-0.022,-0.048 -0.044,-0.096 -0.066,-0.144c0.499,-2.322 0.801,-3.483 0.904,-3.483zM249.01988,327.09595c0,0.081 0.235,0.941 0.705,2.58c0.022,0 0.045,0 0.067,0c0.926,-0.603 1.389,-1 1.389,-1.191c0.047,-0.393 0.095,-0.786 0.143,-1.18c-0.176,0 -0.945,-0.069 -2.304,-0.209z" data-paper-data="{&quot;origPos&quot;:null}" fill="url(#color-48)" stroke-linejoin="miter"/><path d="M264.75185,320.61396c0.014,0 0.029,0 0.044,0c1.962,1.154 3.02,1.756 3.175,1.808c0,0.033 0,0.066 0,0.099c-0.507,0.581 -1.441,1.587 -2.801,3.021c2.668,0.992 4.168,1.591 4.498,1.797c-0.83,1.025 -1.661,2.05 -2.491,3.075c-1.683,-1.44 -2.756,-2.341 -3.219,-2.701c-1.139,2.22 -1.849,3.524 -2.128,3.914c-0.015,0 -0.029,0 -0.044,0c-2.109,-0.742 -3.256,-1.183 -3.44,-1.323c0,-0.018 0,-0.037 0,-0.055c0.971,-1.268 1.941,-2.536 2.911,-3.803c-2.705,-1.118 -4.153,-1.772 -4.344,-1.963c1.191,-2.021 1.86,-3.098 2.007,-3.23c0.022,0.052 1.33,0.952 3.924,2.701c0.919,-1.698 1.555,-2.811 1.908,-3.34z" data-paper-data="{&quot;origPos&quot;:null}" fill="url(#color-49)" stroke-linejoin="miter"/><path d="M275.74288,320.63598c0.103,0.014 0.154,0.066 0.154,0.154c0.05,-0.276 -1.196,6.626 -1.146,6.35c2.19,-0.257 3.285,-0.463 3.285,-0.617c0.411,-2.543 0.694,-3.969 0.849,-4.278c2.712,0.559 4.215,0.89 4.509,0.993c-1.581,5.431 -2.448,8.26 -2.602,8.488c-2.764,1.94 -4.318,3.014 -4.663,3.219c-0.103,0 -1.863,-0.433 -5.281,-1.301c0,-0.025 0,-0.051 0,-0.077c0.904,-1.991 1.466,-2.987 1.687,-2.987c1.12,0.562 2.241,1.124 3.362,1.686c0.537,-0.918 1.073,-1.837 1.61,-2.756c-1.448,0.36 -2.29,0.54 -2.525,0.54c-1.429,-0.742 -2.859,-1.484 -4.288,-2.226c0.521,-4.792 0.852,-7.188 0.992,-7.188c1.352,0 2.704,0 4.057,0z" data-paper-data="{&quot;origPos&quot;:null}" fill="url(#color-50)" stroke-linejoin="miter"/><path d="M305.56388,317.28399c0.022,0.048 0.044,0.096 0.066,0.144c-0.191,2.807 -0.335,4.211 -0.43,4.211c-0.022,0 -0.044,0 -0.066,0c-3.036,-0.243 -4.726,-0.386 -5.072,-0.43c0,3.26 0,6.519 0,9.779c0,0.176 -0.69,0.294 -2.072,0.352c0,0.052 -0.783,0.147 -2.348,0.287c-0.026,-0.048 -0.052,-0.096 -0.077,-0.143c0.338,-5.836 0.554,-9.283 0.65,-10.341c-1.161,0.184 -2.874,0.419 -5.137,0.705c-0.669,-2.498 -1.004,-3.781 -1.004,-3.847c0,-0.096 5.163,-0.334 15.49,-0.717z" data-paper-data="{&quot;origPos&quot;:null}" fill="url(#color-51)" stroke-linejoin="miter"/><path d="M313.03786,320.62497c3.329,1.712 5.174,2.712 5.534,2.998c-0.478,2.235 -0.761,3.385 -0.849,3.451c-2.322,0 -4.645,0 -6.967,0c0,0.04 0,0.081 0,0.121c0.65,0.805 1.301,1.61 1.951,2.415c1.022,-0.522 2.043,-1.044 3.065,-1.566c0.301,0.522 0.735,1.433 1.301,2.734c-0.265,0.088 -2.194,0.371 -5.788,0.849c-2.976,-1.962 -4.476,-2.984 -4.498,-3.065c0.478,-3.814 0.761,-5.721 0.849,-5.721c3.109,-1.323 4.91,-2.062 5.402,-2.216zM312.32088,323.29295c-0.058,0.147 -0.448,0.731 -1.168,1.752c0,0.309 0.433,0.464 1.301,0.464c0,0.044 0.628,0.15 1.885,0.319c0.345,-0.478 0.518,-0.757 0.518,-0.838c-0.11,-0.654 -0.349,-0.981 -0.717,-0.981c-0.606,-0.239 -1.212,-0.478 -1.819,-0.716z" data-paper-data="{&quot;origPos&quot;:null}" fill="url(#color-52)" stroke-linejoin="miter"/><path d="M321.25086,320.61396c4.366,0.602 6.549,0.974 6.549,1.113c1.719,1.477 2.579,2.268 2.579,2.37c-0.698,2.183 -1.095,3.51 -1.19,3.98c0.698,1.551 1.095,2.477 1.19,2.778c0,0.088 -1.139,0.324 -3.417,0.706c-0.03,-0.125 -0.239,-0.404 -0.629,-0.838c-3.145,0.603 -4.839,0.904 -5.082,0.904c-0.558,-1.51 -1.117,-3.021 -1.676,-4.531l3.694,-1.951c0.595,0.095 1.525,0.143 2.789,0.143c0,-0.162 0.022,-0.65 0.066,-1.466c-0.213,0 -2.117,0.139 -5.711,0.419c-0.022,-0.048 -0.044,-0.096 -0.066,-0.144c0.5,-2.322 0.801,-3.483 0.904,-3.483zM323.54388,327.09595c0,0.081 0.235,0.941 0.706,2.58c0.022,0 0.044,0 0.066,0c0.926,-0.603 1.389,-1 1.389,-1.191c0.048,-0.393 0.095,-0.786 0.143,-1.18c-0.176,0 -0.944,-0.069 -2.304,-0.209z" data-paper-data="{&quot;origPos&quot;:null}" fill="url(#color-53)" stroke-linejoin="miter"/><path d="M343.68588,320.61396c1.793,0.742 3.34,1.44 4.641,2.094c-0.338,4.373 -0.555,6.766 -0.651,7.177c-2.16,0.537 -3.369,0.805 -3.627,0.805c0,-0.956 -0.073,-2.841 -0.22,-5.656c-0.816,0.081 -1.224,0.151 -1.224,0.21c0,0.279 0.048,1.874 0.143,4.784c0.045,0 0.067,0.026 0.067,0.078c0,0.088 -1.136,0.33 -3.407,0.727c-0.095,-0.117 -0.386,-1.907 -0.871,-5.369c-0.919,0.236 -1.378,0.405 -1.378,0.508c0.147,1.499 0.294,2.998 0.441,4.497c-0.088,0.096 -1.297,0.482 -3.627,1.158c-1.352,-4.785 -2.197,-7.996 -2.535,-9.635c2.55,-0.632 3.976,-0.948 4.277,-0.948c0.338,1.337 0.507,2.109 0.507,2.315c0.026,0 0.052,0 0.077,0c1.242,-1.147 2.11,-1.918 2.602,-2.315c0.026,0 0.052,0 0.077,0c0.772,0.555 1.544,1.109 2.315,1.664c0.026,0 0.052,0 0.078,0c1.447,-1.396 2.219,-2.094 2.315,-2.094z" data-paper-data="{&quot;origPos&quot;:null}" fill="url(#color-54)" stroke-linejoin="miter"/><path d="M358.73388,318.30995c1.646,0.294 3.292,0.588 4.939,0.882c1.425,2.895 2.16,4.453 2.204,4.674c-3.219,2.719 -4.85,4.116 -4.894,4.189c1.47,-0.162 2.94,-0.323 4.409,-0.485c0.015,0.029 0.03,0.059 0.045,0.088c-0.339,2.646 -0.544,3.969 -0.618,3.969c-4.975,-0.118 -7.974,-0.176 -8.996,-0.176c-0.088,0 -0.264,-0.971 -0.529,-2.911c0.5,-0.389 0.956,-0.816 1.367,-1.279c2.227,-2.028 2.227,-2.028 4.454,-4.057c-0.375,-0.521 -0.639,-0.859 -0.794,-1.014c-0.757,0.875 -1.433,1.595 -2.028,2.161c-1.882,-1.441 -2.984,-2.308 -3.308,-2.602c0,-0.029 0,-0.059 0,-0.088c0.155,-0.096 1.316,-1.139 3.484,-3.131c0,-0.022 0.088,-0.095 0.265,-0.22z" data-paper-data="{&quot;origPos&quot;:null}" fill="url(#color-55)" stroke-linejoin="miter"/><path d="M384.66387,318.30995c2.499,0.279 3.749,0.455 3.749,0.529c0.029,5.497 0.044,9.701 0.044,12.612c0,0.029 0,0.058 0,0.088c-0.015,0.029 -0.03,0.059 -0.044,0.088c-1.294,-0.044 -2.587,-0.088 -3.881,-0.132c0,-0.03 -0.015,-0.044 -0.044,-0.044c0.176,-4.917 0.264,-7.534 0.264,-7.85c-0.44,0.427 -0.881,0.853 -1.322,1.279c-0.074,-0.044 -1.103,-1.132 -3.087,-3.263c1.558,-1.235 2.998,-2.337 4.321,-3.307z" data-paper-data="{&quot;origPos&quot;:null}" fill="url(#color-56)" stroke-linejoin="miter"/><path d="M400.08388,319.54399c0.338,0.956 0.676,1.911 1.014,2.867c-1.675,2.653 -2.513,4.064 -2.513,4.233c-0.074,1.646 -0.147,3.293 -0.221,4.939c-0.029,0.015 -0.059,0.029 -0.088,0.044c-2.999,-0.059 -4.645,-0.088 -4.939,-0.088c-0.059,-0.03 -0.117,-0.059 -0.176,-0.088c1.969,-5.248 2.969,-7.953 2.998,-8.114c-0.147,-0.088 -0.264,-0.133 -0.352,-0.133c-1.72,0.118 -3.44,0.236 -5.16,0.353c0,0.03 -0.014,0.044 -0.044,0.044c-0.029,-0.059 -0.044,-0.103 -0.044,-0.132c0.441,-2.587 0.706,-3.881 0.794,-3.881c0.015,0 0.029,0 0.044,0c1.771,0 4.667,-0.014 8.687,-0.044z" data-paper-data="{&quot;origPos&quot;:null}" fill="url(#color-57)" stroke-linejoin="miter"/><path d="M410.40288,324.98995c0.022,0.048 0.044,0.096 0.066,0.144c-0.044,0.985 -0.066,1.789 -0.066,2.414c0,0.118 0,0.235 0,0.353c0,0.066 -0.074,0.136 -0.221,0.209c-0.801,0 -3.355,0.096 -7.662,0.287c-0.08,0 -0.246,-1.066 -0.496,-3.197c0.044,0 0.067,-0.022 0.067,-0.066c2.41,-0.052 4.303,-0.077 5.677,-0.077c0.404,0 0.809,0 1.213,0c0.308,0 0.782,-0.022 1.422,-0.067z" data-paper-data="{&quot;origPos&quot;:null}" fill="url(#color-58)" stroke-linejoin="miter"/><path d="M416.40054,318.30995c1.646,0.294 3.292,0.588 4.939,0.882c1.425,2.895 2.16,4.453 2.204,4.674c-3.219,2.719 -4.85,4.116 -4.894,4.189c1.47,-0.162 2.94,-0.323 4.409,-0.485c0.015,0.029 0.03,0.059 0.045,0.088c-0.339,2.646 -0.544,3.969 -0.618,3.969c-4.975,-0.118 -7.974,-0.176 -8.996,-0.176c-0.088,0 -0.264,-0.971 -0.529,-2.911c0.5,-0.389 0.956,-0.816 1.367,-1.279c2.227,-2.028 2.227,-2.028 4.454,-4.057c-0.375,-0.521 -0.639,-0.859 -0.794,-1.014c-0.757,0.875 -1.433,1.595 -2.028,2.161c-1.882,-1.441 -2.984,-2.308 -3.308,-2.602c0,-0.029 0,-0.059 0,-0.088c0.155,-0.096 1.316,-1.139 3.484,-3.131c0,-0.022 0.08799,-0.095 0.26499,-0.22z" data-paper-data="{&quot;origPos&quot;:null}" fill="url(#color-59)" stroke-linejoin="miter"/><path d="M51.05197,316.7712c2.27928,0 4.34454,0.91339 5.84004,2.39223c1.49543,1.47891 2.42112,3.5189 2.42112,5.77197c0,2.25307 -0.92569,4.29305 -2.42112,5.77196c-1.49551,1.47884 -3.56076,2.39224 -5.84004,2.39224c-2.2792,0 -4.34445,-0.9134 -5.83996,-2.39224c-1.49543,-1.47891 -2.42112,-3.51889 -2.42112,-5.77196c0,-2.25307 0.92569,-4.29306 2.42112,-5.77197c1.49551,-1.47884 3.56076,-2.39223 5.83996,-2.39223zM51.15016,331.68932c3.72792,0 6.75,-3.02208 6.75,-6.75c0,-3.72792 -3.02208,-6.75 -6.75,-6.75c-3.72792,0 -6.75,3.02208 -6.75,6.75c0,3.72792 3.02208,6.75 6.75,6.75z" data-paper-data="{&quot;origPos&quot;:null}" fill="url(#color-60)" stroke-linejoin="round"/></g></g><g><g data-paper-data="{&quot;origPos&quot;:null}" stroke="#005385" stroke-width="3"><path d="" data-paper-data="{&quot;origPos&quot;:null}" fill="url(#color-61)" stroke-linejoin="miter"/><path d="" data-paper-data="{&quot;origPos&quot;:null}" fill="url(#color-62)" stroke-linejoin="miter"/><path d="" data-paper-data="{&quot;origPos&quot;:null}" fill="url(#color-63)" stroke-linejoin="miter"/><path d="" data-paper-data="{&quot;origPos&quot;:null}" fill="url(#color-64)" stroke-linejoin="miter"/><path d="" data-paper-data="{&quot;origPos&quot;:null}" fill="url(#color-65)" stroke-linejoin="miter"/><path d="" data-paper-data="{&quot;origPos&quot;:null}" fill="url(#color-66)" stroke-linejoin="miter"/><path d="" data-paper-data="{&quot;origPos&quot;:null}" fill="url(#color-67)" stroke-linejoin="miter"/><path d="" data-paper-data="{&quot;origPos&quot;:null}" fill="url(#color-68)" stroke-linejoin="miter"/><path d="" data-paper-data="{&quot;origPos&quot;:null}" fill="url(#color-69)" stroke-linejoin="miter"/><path d="" data-paper-data="{&quot;origPos&quot;:null}" fill="url(#color-70)" stroke-linejoin="miter"/><path d="" data-paper-data="{&quot;origPos&quot;:null}" fill="url(#color-71)" stroke-linejoin="miter"/><path d="" data-paper-data="{&quot;origPos&quot;:null}" fill="url(#color-72)" stroke-linejoin="miter"/><path d="" data-paper-data="{&quot;origPos&quot;:null}" fill="url(#color-73)" stroke-linejoin="miter"/><path d="" data-paper-data="{&quot;origPos&quot;:null}" fill="url(#color-74)" stroke-linejoin="miter"/><path d="" data-paper-data="{&quot;origPos&quot;:null}" fill="url(#color-75)" stroke-linejoin="miter"/><path d="" data-paper-data="{&quot;origPos&quot;:null}" fill="url(#color-76)" stroke-linejoin="miter"/><path d="" data-paper-data="{&quot;origPos&quot;:null}" fill="url(#color-77)" stroke-linejoin="miter"/><path d="" data-paper-data="{&quot;origPos&quot;:null}" fill="url(#color-78)" stroke-linejoin="miter"/><path d="" data-paper-data="{&quot;origPos&quot;:null}" fill="url(#color-79)" stroke-linejoin="miter"/><path d="" data-paper-data="{&quot;origPos&quot;:null}" fill="url(#color-80)" stroke-linejoin="miter"/><path d="" data-paper-data="{&quot;origPos&quot;:null}" fill="url(#color-81)" stroke-linejoin="miter"/><path d="" data-paper-data="{&quot;origPos&quot;:null}" fill="url(#color-82)" stroke-linejoin="miter"/><path d="" data-paper-data="{&quot;origPos&quot;:null}" fill="url(#color-83)" stroke-linejoin="miter"/><path d="" data-paper-data="{&quot;origPos&quot;:null}" fill="url(#color-84)" stroke-linejoin="miter"/><path d="" data-paper-data="{&quot;origPos&quot;:null}" fill="url(#color-85)" stroke-linejoin="miter"/><path d="" data-paper-data="{&quot;origPos&quot;:null}" fill="url(#color-86)" stroke-linejoin="miter"/><path d="" data-paper-data="{&quot;origPos&quot;:null}" fill="url(#color-87)" stroke-linejoin="miter"/><path d="" data-paper-data="{&quot;origPos&quot;:null}" fill="url(#color-88)" stroke-linejoin="miter"/><path d="" data-paper-data="{&quot;origPos&quot;:null}" fill="url(#color-89)" stroke-linejoin="miter"/><path d="" data-paper-data="{&quot;origPos&quot;:null}" fill="url(#color-90)" stroke-linejoin="miter"/><path d="" data-paper-data="{&quot;origPos&quot;:null}" fill="url(#color-91)" stroke-linejoin="miter"/><path d="" data-paper-data="{&quot;origPos&quot;:null}" fill="url(#color-92)" stroke-linejoin="miter"/><path d="" data-paper-data="{&quot;origPos&quot;:null}" fill="url(#color-93)" stroke-linejoin="miter"/><path d="M428.40054,318.3933c1.646,0.294 3.292,0.588 4.939,0.882c1.425,2.895 2.16,4.453 2.204,4.674c-3.219,2.719 -4.85,4.116 -4.894,4.189c1.47,-0.162 2.94,-0.323 4.409,-0.485c0.015,0.029 0.03,0.059 0.045,0.088c-0.339,2.646 -0.544,3.969 -0.618,3.969c-4.975,-0.118 -7.974,-0.176 -8.996,-0.176c-0.088,0 -0.264,-0.971 -0.529,-2.911c0.5,-0.389 0.956,-0.816 1.367,-1.279c2.227,-2.028 2.227,-2.028 4.454,-4.057c-0.375,-0.521 -0.639,-0.859 -0.794,-1.014c-0.757,0.875 -1.433,1.595 -2.028,2.161c-1.882,-1.441 -2.984,-2.308 -3.308,-2.602c0,-0.029 0,-0.059 0,-0.088c0.155,-0.096 1.316,-1.139 3.484,-3.131c0,-0.022 0.08799,-0.095 0.26499,-0.22z" data-paper-data="{&quot;origPos&quot;:null}" fill="url(#color-94)" stroke-linejoin="miter"/><path d="" data-paper-data="{&quot;origPos&quot;:null}" fill="url(#color-95)" stroke-linejoin="round"/></g><g data-paper-data="{&quot;origPos&quot;:null}" stroke="#000000" stroke-width="0"><path d="" data-paper-data="{&quot;origPos&quot;:null}" fill="url(#color-96)" stroke-linejoin="miter"/><path d="" data-paper-data="{&quot;origPos&quot;:null}" fill="url(#color-97)" stroke-linejoin="miter"/><path d="" data-paper-data="{&quot;origPos&quot;:null}" fill="url(#color-98)" stroke-linejoin="miter"/><path d="" data-paper-data="{&quot;origPos&quot;:null}" fill="url(#color-99)" stroke-linejoin="miter"/><path d="" data-paper-data="{&quot;origPos&quot;:null}" fill="url(#color-100)" stroke-linejoin="miter"/><path d="" data-paper-data="{&quot;origPos&quot;:null}" fill="url(#color-101)" stroke-linejoin="miter"/><path d="" data-paper-data="{&quot;origPos&quot;:null}" fill="url(#color-102)" stroke-linejoin="miter"/><path d="" data-paper-data="{&quot;origPos&quot;:null}" fill="url(#color-103)" stroke-linejoin="miter"/><path d="" data-paper-data="{&quot;origPos&quot;:null}" fill="url(#color-104)" stroke-linejoin="miter"/><path d="" data-paper-data="{&quot;origPos&quot;:null}" fill="url(#color-105)" stroke-linejoin="miter"/><path d="" data-paper-data="{&quot;origPos&quot;:null}" fill="url(#color-106)" stroke-linejoin="miter"/><path d="" data-paper-data="{&quot;origPos&quot;:null}" fill="url(#color-107)" stroke-linejoin="miter"/><path d="" data-paper-data="{&quot;origPos&quot;:null}" fill="url(#color-108)" stroke-linejoin="miter"/><path d="" data-paper-data="{&quot;origPos&quot;:null}" fill="url(#color-109)" stroke-linejoin="miter"/><path d="" data-paper-data="{&quot;origPos&quot;:null}" fill="url(#color-110)" stroke-linejoin="miter"/><path d="" data-paper-data="{&quot;origPos&quot;:null}" fill="url(#color-111)" stroke-linejoin="miter"/><path d="" data-paper-data="{&quot;origPos&quot;:null}" fill="url(#color-112)" stroke-linejoin="miter"/><path d="" data-paper-data="{&quot;origPos&quot;:null}" fill="url(#color-113)" stroke-linejoin="miter"/><path d="" data-paper-data="{&quot;origPos&quot;:null}" fill="url(#color-114)" stroke-linejoin="miter"/><path d="" data-paper-data="{&quot;origPos&quot;:null}" fill="url(#color-115)" stroke-linejoin="miter"/><path d="" data-paper-data="{&quot;origPos&quot;:null}" fill="url(#color-116)" stroke-linejoin="miter"/><path d="" data-paper-data="{&quot;origPos&quot;:null}" fill="url(#color-117)" stroke-linejoin="miter"/><path d="" data-paper-data="{&quot;origPos&quot;:null}" fill="url(#color-118)" stroke-linejoin="miter"/><path d="" data-paper-data="{&quot;origPos&quot;:null}" fill="url(#color-119)" stroke-linejoin="miter"/><path d="" data-paper-data="{&quot;origPos&quot;:null}" fill="url(#color-120)" stroke-linejoin="miter"/><path d="" data-paper-data="{&quot;origPos&quot;:null}" fill="url(#color-121)" stroke-linejoin="miter"/><path d="" data-paper-data="{&quot;origPos&quot;:null}" fill="url(#color-122)" stroke-linejoin="miter"/><path d="" data-paper-data="{&quot;origPos&quot;:null}" fill="url(#color-123)" stroke-linejoin="miter"/><path d="" data-paper-data="{&quot;origPos&quot;:null}" fill="url(#color-124)" stroke-linejoin="miter"/><path d="" data-paper-data="{&quot;origPos&quot;:null}" fill="url(#color-125)" stroke-linejoin="miter"/><path d="" data-paper-data="{&quot;origPos&quot;:null}" fill="url(#color-126)" stroke-linejoin="miter"/><path d="" data-paper-data="{&quot;origPos&quot;:null}" fill="url(#color-127)" stroke-linejoin="miter"/><path d="M428.40054,318.3933c1.646,0.294 3.292,0.588 4.939,0.882c1.425,2.895 2.16,4.453 2.204,4.674c-3.219,2.719 -4.85,4.116 -4.894,4.189c1.47,-0.162 2.94,-0.323 4.409,-0.485c0.015,0.029 0.03,0.059 0.045,0.088c-0.339,2.646 -0.544,3.969 -0.618,3.969c-4.975,-0.118 -7.974,-0.176 -8.996,-0.176c-0.088,0 -0.264,-0.971 -0.529,-2.911c0.5,-0.389 0.956,-0.816 1.367,-1.279c2.227,-2.028 2.227,-2.028 4.454,-4.057c-0.375,-0.521 -0.639,-0.859 -0.794,-1.014c-0.757,0.875 -1.433,1.595 -2.028,2.161c-1.882,-1.441 -2.984,-2.308 -3.308,-2.602c0,-0.029 0,-0.059 0,-0.088c0.155,-0.096 1.316,-1.139 3.484,-3.131c0,-0.022 0.08799,-0.095 0.26499,-0.22z" data-paper-data="{&quot;origPos&quot;:null}" fill="url(#color-128)" stroke-linejoin="miter"/><path d="" data-paper-data="{&quot;origPos&quot;:null}" fill="url(#color-129)" stroke-linejoin="round"/></g></g></g></g></svg>