<svg version="1.1" xmlns="http://www.w3.org/2000/svg" xmlns:xlink="http://www.w3.org/1999/xlink" width="516.23574" height="250.23593" viewBox="0,0,516.23574,250.23593"><defs><linearGradient x1="-9.791" y1="316.6975" x2="1.2324" y2="352.8231" gradientUnits="userSpaceOnUse" id="color-1"><stop offset="0" stop-color="#00ffff"/><stop offset="1" stop-color="#00ffff" stop-opacity="0"/></linearGradient><linearGradient x1="0.43384" y1="305.254" x2="0.43384" y2="351.35975" gradientUnits="userSpaceOnUse" id="color-2"><stop offset="0" stop-color="#00ffff"/><stop offset="1" stop-color="#00ffff" stop-opacity="0"/></linearGradient><linearGradient x1="0.5455" y1="305.5412" x2="3.4012" y2="319.2469" gradientUnits="userSpaceOnUse" id="color-3"><stop offset="0" stop-color="#b2b2b2"/><stop offset="1" stop-color="#666666"/></linearGradient><linearGradient x1="45.009" y1="306.1975" x2="56.0324" y2="342.3231" gradientUnits="userSpaceOnUse" id="color-4"><stop offset="0" stop-color="#00ffff"/><stop offset="1" stop-color="#00ffff" stop-opacity="0"/></linearGradient><linearGradient x1="55.23384" y1="294.754" x2="55.23384" y2="340.85975" gradientUnits="userSpaceOnUse" id="color-5"><stop offset="0" stop-color="#00ffff"/><stop offset="1" stop-color="#00ffff" stop-opacity="0"/></linearGradient><linearGradient x1="55.3455" y1="295.0412" x2="58.2012" y2="308.7469" gradientUnits="userSpaceOnUse" id="color-6"><stop offset="0" stop-color="#b2b2b2"/><stop offset="1" stop-color="#666666"/></linearGradient><linearGradient x1="96.609" y1="295.1975" x2="107.6324" y2="331.3231" gradientUnits="userSpaceOnUse" id="color-7"><stop offset="0" stop-color="#00ffff"/><stop offset="1" stop-color="#00ffff" stop-opacity="0"/></linearGradient><linearGradient x1="106.83384" y1="283.754" x2="106.83384" y2="329.85975" gradientUnits="userSpaceOnUse" id="color-8"><stop offset="0" stop-color="#00ffff"/><stop offset="1" stop-color="#00ffff" stop-opacity="0"/></linearGradient><linearGradient x1="106.9455" y1="284.0412" x2="109.8012" y2="297.7469" gradientUnits="userSpaceOnUse" id="color-9"><stop offset="0" stop-color="#b2b2b2"/><stop offset="1" stop-color="#666666"/></linearGradient><linearGradient x1="221.2221" y1="268.8475" x2="233.30947" y2="304.9731" gradientUnits="userSpaceOnUse" id="color-10"><stop offset="0" stop-color="#00ffff"/><stop offset="1" stop-color="#00ffff" stop-opacity="0"/></linearGradient><linearGradient x1="232.43384" y1="257.404" x2="232.43384" y2="303.50975" gradientUnits="userSpaceOnUse" id="color-11"><stop offset="0" stop-color="#00ffff"/><stop offset="1" stop-color="#00ffff" stop-opacity="0"/></linearGradient><linearGradient x1="232.55628" y1="257.6912" x2="235.68761" y2="271.3969" gradientUnits="userSpaceOnUse" id="color-12"><stop offset="0" stop-color="#b2b2b2"/><stop offset="1" stop-color="#666666"/></linearGradient><linearGradient x1="341.95318" y1="236.40094" x2="369.97673" y2="261.74678" gradientUnits="userSpaceOnUse" id="color-13"><stop offset="0" stop-color="#00ffff"/><stop offset="1" stop-color="#00ffff" stop-opacity="0"/></linearGradient><linearGradient x1="378.12854" y1="181.2723" x2="353.45608" y2="258.84597" gradientUnits="userSpaceOnUse" id="color-14"><stop offset="0" stop-color="#00ffff"/><stop offset="1" stop-color="#00ffff" stop-opacity="0"/></linearGradient><linearGradient x1="347.60525" y1="219.16576" x2="356.85604" y2="229.68986" gradientUnits="userSpaceOnUse" id="color-15"><stop offset="0" stop-color="#b2b2b2"/><stop offset="1" stop-color="#666666"/></linearGradient><linearGradient x1="438.32234" y1="151.58596" x2="464.59199" y2="178.7241" gradientUnits="userSpaceOnUse" id="color-16"><stop offset="0" stop-color="#00ffff"/><stop offset="1" stop-color="#00ffff" stop-opacity="0"/></linearGradient><linearGradient x1="467.60002" y1="107.55129" x2="449.74045" y2="173.56316" gradientUnits="userSpaceOnUse" id="color-17"><stop offset="0" stop-color="#00ffff"/><stop offset="1" stop-color="#00ffff" stop-opacity="0"/></linearGradient><linearGradient x1="442.44194" y1="136.94585" x2="451.22755" y2="147.846" gradientUnits="userSpaceOnUse" id="color-18"><stop offset="0" stop-color="#b2b2b2"/><stop offset="1" stop-color="#666666"/></linearGradient></defs><g transform="translate(-0.43384,-101.12382)"><g data-paper-data="{&quot;isPaintingLayer&quot;:true}" fill-rule="nonzero" stroke-width="0" stroke-linejoin="miter" stroke-miterlimit="10" stroke-dasharray="" stroke-dashoffset="0" style="mix-blend-mode: normal"><g id="ID0.5679584057070315"><path d="M41.7378,306.7194c4.136,0.6107 2.5954,1.2873 12.7413,3.2321c7.1908,3.7504 12.2159,8.3918 17.191,12.9994c1.2441,1.1518 1.3869,2.5563 1.2422,4.0709c-0.0365,0.3788 -1.022,0.9485 -1.7679,1.4295c-2.5396,1.6378 -3.4333,3.3198 -8.0542,4.9052c-18.4848,6.3418 -37.5986,12.3437 -56.4571,17.2274c-4.7144,1.2209 -6.3778,1.0835 -6.1843,-1.0055c0.7741,-8.3555 4.5484,-17.5163 8.7505,-26.7002c1.6889,-3.6915 4.803,-7.7229 8.8793,-11.8319c1.68,-1.6935 4.2502,-4.5626 8.2971,-5.3131c7.0145,-1.2724 10.8049,0.3171 15.3621,0.9862z" id="ID0.014508410822600126" fill="url(#color-1)" stroke="url(#color-2)" stroke-linecap="round"/><path d="M0.5455,305.5412l55.8827,-11.6438l2.8557,13.7056l-55.8827,11.6439z" id="ID0.8304188074544072" fill="url(#color-3)" stroke="none" stroke-linecap="butt"/></g><g id="ID0.5679584057070315"><path d="M96.5378,296.2194c4.136,0.6107 2.5954,1.2873 12.7413,3.2321c7.1908,3.7504 12.2159,8.3918 17.191,12.9994c1.2441,1.1518 1.3869,2.5563 1.2422,4.0709c-0.0365,0.3788 -1.022,0.9485 -1.7679,1.4295c-2.5396,1.6378 -3.4333,3.3198 -8.0542,4.9052c-18.4848,6.3418 -37.5986,12.3437 -56.4571,17.2274c-4.7144,1.2209 -6.3778,1.0835 -6.1843,-1.0055c0.7741,-8.3555 4.5484,-17.5163 8.7505,-26.7002c1.6889,-3.6915 4.803,-7.7229 8.8793,-11.8319c1.68,-1.6935 4.2502,-4.5626 8.2971,-5.3131c7.0145,-1.2724 10.8049,0.3171 15.3621,0.9862z" id="ID0.014508410822600126" fill="url(#color-4)" stroke="url(#color-5)" stroke-linecap="round"/><path d="M55.3455,295.0412l55.8827,-11.6438l2.8557,13.7056l-55.8827,11.6439z" id="ID0.8304188074544072" fill="url(#color-6)" stroke="none" stroke-linecap="butt"/></g><g id="ID0.5679584057070315"><path d="M148.1378,285.2194c4.136,0.6107 2.5954,1.2873 12.7413,3.2321c7.1908,3.7504 12.2159,8.3918 17.191,12.9994c1.2441,1.1518 1.3869,2.5563 1.2422,4.0709c-0.0365,0.3788 -1.022,0.9485 -1.7679,1.4295c-2.5396,1.6378 -3.4333,3.3198 -8.0542,4.9052c-18.4848,6.3418 -37.5986,12.3437 -56.4571,17.2274c-4.7144,1.2209 -6.3778,1.0835 -6.1843,-1.0055c0.7741,-8.3555 4.5484,-17.5163 8.7505,-26.7002c1.6889,-3.6915 4.803,-7.7229 8.8793,-11.8319c1.68,-1.6935 4.2502,-4.5626 8.2971,-5.3131c7.0145,-1.2724 10.8049,0.3171 15.3621,0.9862z" id="ID0.014508410822600126" fill="url(#color-7)" stroke="url(#color-8)" stroke-linecap="round"/><path d="M106.9455,284.0412l55.8827,-11.6438l2.8557,13.7056l-55.8827,11.6439z" id="ID0.8304188074544072" fill="url(#color-9)" stroke="none" stroke-linecap="butt"/></g><g data-paper-data="{&quot;origPos&quot;:null}" id="ID0.5679584057070315"><path d="M277.72443,258.8694c4.5352,0.6107 2.84591,1.2873 13.97108,3.2321c7.88485,3.7504 13.39497,8.3918 18.85026,12.9994c1.36418,1.1518 1.52076,2.5563 1.3621,4.0709c-0.04002,0.3788 -1.12064,0.9485 -1.93854,1.4295c-2.78472,1.6378 -3.76468,3.3198 -8.83159,4.9052c-20.26894,6.3418 -41.22759,12.3437 -61.90631,17.2274c-5.16943,1.2209 -6.99338,1.0835 -6.7812,-1.0055c0.84882,-8.3555 4.98741,-17.5163 9.59509,-26.7002c1.85191,-3.6915 5.26658,-7.7229 9.73632,-11.8319c1.84215,-1.6935 4.66043,-4.5626 9.09793,-5.3131c7.69154,-1.2724 11.84778,0.3171 16.84484,0.9862z" id="ID0.014508410822600126" fill="url(#color-10)" stroke="url(#color-11)" stroke-linecap="round"/><path d="M232.55628,257.6912l61.27646,-11.6438l3.13133,13.7056l-61.27646,11.6439z" id="ID0.8304188074544072" fill="url(#color-12)" stroke="none" stroke-linecap="butt"/></g><g data-paper-data="{&quot;origRot&quot;:0}" id="ID0.5679584057070315"><path d="M391.03283,192.03512c4.58607,-2.27582 3.2919,-0.60488 14.74623,-5.78076c9.20458,-1.50861 16.56252,-0.72299 23.85278,0.06599c1.82284,0.19689 2.61478,1.37791 3.15791,2.85617c0.1354,0.36979 -0.62967,1.56333 -1.18598,2.51199c-1.89394,3.23005 -2.05406,5.37353 -6.13902,9.98078c-16.34108,18.43054 -33.49269,36.9823 -50.89063,54.34096c-4.34925,4.33953 -6.14406,5.35325 -6.89934,3.31878c-3.02107,-8.13791 -3.28736,-19.06326 -3.1186,-30.30254c0.06754,-4.51765 1.46338,-10.32049 3.8255,-16.85281c0.97345,-2.69211 2.33534,-7.06427 6.20512,-10.51841c6.72037,-5.96125 11.39481,-7.1092 16.44603,-9.62013z" id="ID0.014508410822600126" fill="url(#color-13)" stroke="url(#color-14)" stroke-linecap="round"/><path d="M347.60525,219.16576l52.84997,-48.86364l9.2508,10.52411l-52.84997,48.86364z" id="ID0.8304188074544072" fill="url(#color-15)" stroke="none" stroke-linecap="butt"/></g><g data-paper-data="{&quot;origPos&quot;:null}" id="ID0.5679584057070315"><path d="M479.64874,119.23022c3.96022,-1.34046 2.89692,-0.0363 12.81491,-2.92681c8.10981,0.06295 14.69766,1.9058 21.22547,3.74121c1.63218,0.45858 2.39906,1.64379 2.96027,3.05814c0.13998,0.35373 -0.47777,1.30988 -0.92267,2.07784c-1.51467,2.61488 -1.54408,4.51939 -4.93548,8.03562c-13.56665,14.06608 -27.84801,28.11614 -42.4115,41.05434c-3.64066,3.23445 -5.18406,3.86982 -5.96334,1.92211c-3.11711,-7.79085 -3.9303,-17.66532 -4.37298,-27.75519c-0.17819,-4.05569 0.75762,-9.06307 2.51465,-14.57789c0.72409,-2.27277 1.70515,-5.99773 4.96594,-8.5093c5.66473,-4.3281 9.76306,-4.63979 14.12472,-6.12006z" id="ID0.014508410822600126" fill="url(#color-16)" stroke="url(#color-17)" stroke-linecap="round"/><path d="M442.44194,136.94585l44.44365,-35.82203l8.7856,10.90015l-44.44365,35.82203z" id="ID0.8304188074544072" fill="url(#color-18)" stroke="none" stroke-linecap="butt"/></g></g></g></svg>