<svg version="1.1" xmlns="http://www.w3.org/2000/svg" xmlns:xlink="http://www.w3.org/1999/xlink" width="115" height="115" viewBox="0,0,115,115"><defs><linearGradient x1="328.875" y1="127.25" x2="328.875" y2="230.75" gradientUnits="userSpaceOnUse" id="color-1"><stop offset="0" stop-color="#74c2ff"/><stop offset="1" stop-color="#99ffff"/></linearGradient><linearGradient x1="338.1313" y1="155.076" x2="338.1313" y2="188.5481" gradientUnits="userSpaceOnUse" id="color-2"><stop offset="0" stop-color="#b44b44"/><stop offset="1" stop-color="#b44b44"/></linearGradient></defs><g transform="translate(-322.375,-121.25)"><g data-paper-data="{&quot;isPaintingLayer&quot;:true}" fill-rule="nonzero" stroke-linejoin="miter" stroke-miterlimit="10" stroke-dasharray="" stroke-dashoffset="0" style="mix-blend-mode: normal"><g><path d="M328.875,127.25h103.25v103.5h-103.25z" data-paper-data="{&quot;origPos&quot;:null}" fill="url(#color-1)" stroke="none" stroke-width="1" stroke-linecap="butt"/><path d="M338.625,201.75c2.897,0 5.522,1.177 7.423,3.077c1.9,1.901 3.077,4.526 3.077,7.423c0,2.897 -1.177,5.522 -3.077,7.423c-1.901,1.9 -4.526,3.077 -7.423,3.077c-2.897,0 -5.522,-1.177 -7.423,-3.077c-1.9,-1.901 -3.077,-4.526 -3.077,-7.423c0,-2.897 1.177,-5.522 3.077,-7.423c1.901,-1.9 4.526,-3.077 7.423,-3.077z" data-paper-data="{&quot;origPos&quot;:null}" fill="#ffffff" stroke="none" stroke-width="1" stroke-linecap="butt"/><path d="M351.875,194.5c2.897,0 5.522,1.177 7.423,3.077c1.9,1.901 3.077,4.526 3.077,7.423c0,2.897 -1.177,5.522 -3.077,7.423c-1.901,1.9 -4.526,3.077 -7.423,3.077c-2.897,0 -5.522,-1.177 -7.423,-3.077c-1.9,-1.901 -3.077,-4.526 -3.077,-7.423c0,-2.897 1.177,-5.522 3.077,-7.423c1.901,-1.9 4.526,-3.077 7.423,-3.077z" data-paper-data="{&quot;origPos&quot;:null}" fill="#ffffff" stroke="none" stroke-width="1" stroke-linecap="butt"/><path d="M368.125,196.5c2.897,0 5.522,1.177 7.423,3.077c1.9,1.901 3.077,4.526 3.077,7.423c0,2.897 -1.177,5.522 -3.077,7.423c-1.901,1.9 -4.526,3.077 -7.423,3.077c-2.897,0 -5.522,-1.177 -7.423,-3.077c-1.9,-1.901 -3.077,-4.526 -3.077,-7.423c0,-2.897 1.177,-5.522 3.077,-7.423c1.901,-1.9 4.526,-3.077 7.423,-3.077z" data-paper-data="{&quot;origPos&quot;:null}" fill="#ffffff" stroke="none" stroke-width="1" stroke-linecap="butt"/><path d="M385.625,187.75c2.897,0 5.522,1.177 7.423,3.077c1.9,1.901 3.077,4.526 3.077,7.423c0,2.897 -1.177,5.522 -3.077,7.423c-1.901,1.9 -4.526,3.077 -7.423,3.077c-2.897,0 -5.522,-1.177 -7.423,-3.077c-1.9,-1.901 -3.077,-4.526 -3.077,-7.423c0,-2.897 1.177,-5.522 3.077,-7.423c1.901,-1.9 4.526,-3.077 7.423,-3.077z" data-paper-data="{&quot;origPos&quot;:null}" fill="#ffffff" stroke="none" stroke-width="1" stroke-linecap="butt"/><path d="M400.125,197.75c2.897,0 5.522,1.177 7.423,3.077c1.9,1.901 3.077,4.526 3.077,7.423c0,2.897 -1.177,5.522 -3.077,7.423c-1.901,1.9 -4.526,3.077 -7.423,3.077c-2.897,0 -5.522,-1.177 -7.423,-3.077c-1.9,-1.901 -3.077,-4.526 -3.077,-7.423c0,-2.897 1.177,-5.522 3.077,-7.423c1.901,-1.9 4.526,-3.077 7.423,-3.077z" data-paper-data="{&quot;origPos&quot;:null}" fill="#ffffff" stroke="none" stroke-width="1" stroke-linecap="butt"/><path d="M415.375,203c2.897,0 5.522,1.177 7.423,3.077c1.9,1.901 3.077,4.526 3.077,7.423c0,2.897 -1.177,5.522 -3.077,7.423c-1.901,1.9 -4.526,3.077 -7.423,3.077c-2.897,0 -5.522,-1.177 -7.423,-3.077c-1.9,-1.901 -3.077,-4.526 -3.077,-7.423c0,-2.897 1.177,-5.522 3.077,-7.423c1.901,-1.9 4.526,-3.077 7.423,-3.077z" data-paper-data="{&quot;origPos&quot;:null}" fill="#ffffff" stroke="none" stroke-width="1" stroke-linecap="butt"/><path d="M423.125,193c2.897,0 5.522,1.177 7.423,3.077c1.9,1.901 3.077,4.526 3.077,7.423c0,2.897 -1.177,5.522 -3.077,7.423c-1.901,1.9 -4.526,3.077 -7.423,3.077c-2.897,0 -5.522,-1.177 -7.423,-3.077c-1.9,-1.901 -3.077,-4.526 -3.077,-7.423c0,-2.897 1.177,-5.522 3.077,-7.423c1.901,-1.9 4.526,-3.077 7.423,-3.077z" data-paper-data="{&quot;origPos&quot;:null}" fill="#ffffff" stroke="none" stroke-width="1" stroke-linecap="butt"/><path d="M333.125,205.5h99.75v28.75h-99.75z" data-paper-data="{&quot;origPos&quot;:null}" fill="#ffffff" stroke="none" stroke-width="1" stroke-linecap="butt"/><path d="M326.375,211.25h14.25v22.5h-14.25z" data-paper-data="{&quot;origPos&quot;:null}" fill="#ffffff" stroke="none" stroke-width="1" stroke-linecap="butt"/><path d="M328.375,206.75h25.75v25h-25.75z" data-paper-data="{&quot;origPos&quot;:null}" fill="#e5e5e5" stroke="none" stroke-width="1" stroke-linecap="butt"/><path d="M327.125,202h27.5v7.75h-27.5z" data-paper-data="{&quot;origPos&quot;:null}" fill="#58db60" stroke="none" stroke-width="1" stroke-linecap="butt"/><path d="M375.125,207.75h-12.75" data-paper-data="{&quot;origPos&quot;:null}" fill="none" stroke="#457ddb" stroke-width="2" stroke-linecap="round"/><path d="M404.375,194h12.75" data-paper-data="{&quot;origPos&quot;:null}" fill="none" stroke="#457ddb" stroke-width="2" stroke-linecap="round"/><path d="M408.375,218.5h10.25" data-paper-data="{&quot;origPos&quot;:null}" fill="none" stroke="#457ddb" stroke-width="2" stroke-linecap="round"/><path d="M383.875,212.75h11.5" data-paper-data="{&quot;origPos&quot;:null}" fill="none" stroke="#ff0000" stroke-width="2" stroke-linecap="round"/><path d="M389.125,196.75h-14.5" data-paper-data="{&quot;origPos&quot;:null}" fill="none" stroke="#ff0000" stroke-width="2" stroke-linecap="round"/><path d="M341.4538,155.076l83.1088,18.727l-3.3225,14.7451l-83.1088,-18.727z" data-paper-data="{&quot;origPos&quot;:null}" fill="#ff6b61" stroke="url(#color-2)" stroke-width="3.43519" stroke-linecap="butt"/><path d="M326.875,125.75h106v106h-106z" data-paper-data="{&quot;origPos&quot;:null}" fill="none" stroke="#995900" stroke-width="9" stroke-linecap="butt"/></g></g></g></svg>