<svg version="1.1" xmlns="http://www.w3.org/2000/svg" xmlns:xlink="http://www.w3.org/1999/xlink" width="502.12012" height="373.37088" viewBox="0,0,502.12012,373.37088"><defs><radialGradient cx="0.51953" cy="180.06851" r="180.93093" gradientUnits="userSpaceOnUse" id="color-1"><stop offset="0" stop-color="#ececec"/><stop offset="1" stop-color="#616161"/></radialGradient><linearGradient x1="-17.12311" y1="180.06851" x2="18.16218" y2="180.06851" gradientUnits="userSpaceOnUse" id="color-2"><stop offset="0" stop-color="#ececec" stop-opacity="0"/><stop offset="1" stop-color="#ececec"/></linearGradient></defs><g transform="translate(17.12311,0.86242)"><g data-paper-data="{&quot;isPaintingLayer&quot;:true}" fill-rule="nonzero" stroke-linecap="butt" stroke-linejoin="miter" stroke-miterlimit="10" stroke-dasharray="" stroke-dashoffset="0" style="mix-blend-mode: normal"><path d="M8.61483,260.55577v-25.91041h142.30862v25.91041z" data-paper-data="{&quot;index&quot;:null}" fill="#674521" stroke="#4b3318" stroke-width="7"/><path d="M59.19463,293.01824v-25.91041h130.29661v25.91041z" data-paper-data="{&quot;index&quot;:null}" fill="#805c39" stroke="#674521" stroke-width="7"/><path d="M-3.15636,293.01824v-25.91041h61.30862v25.91041z" data-paper-data="{&quot;index&quot;:null}" fill="#805c39" stroke="#674521" stroke-width="7"/><path d="M96.72006,325.18288v-25.91041h130.29661v25.91041z" data-paper-data="{&quot;index&quot;:null}" fill="#674521" stroke="#4b3318" stroke-width="7"/><path d="M135.28785,357.64537v-25.91042h130.29661v25.91041z" data-paper-data="{&quot;index&quot;:null}" fill="#805c39" stroke="#674521" stroke-width="7"/><path d="M1.36906,325.18288v-25.91041h94.30862v25.91041z" data-paper-data="{&quot;index&quot;:null}" fill="#674521" stroke="#4b3318" stroke-width="7"/><path d="M-8.06314,357.64537v-25.91042h142.30862v25.91041z" data-paper-data="{&quot;index&quot;:null}" fill="#805c39" stroke="#674521" stroke-width="7"/><g data-paper-data="{&quot;index&quot;:null}" fill="#cc1919" stroke="none"><g><path d="M264.78297,365.39147v-10.28539h11.9965v10.28539z" stroke-width="NaN"/><path d="M252.57226,355.10608v-10.28539h11.9965v10.28539z" stroke-width="NaN"/><path d="M240.23706,344.82491v-10.28539h11.9965v10.28539z" stroke-width="NaN"/><path d="M228.02634,334.53952v-10.28539h11.9965v10.28539z" stroke-width="NaN"/></g><g><path d="M215.69114,324.25836v-10.28539h11.9965v10.28539z" stroke-width="NaN"/><path d="M203.48042,313.97297v-10.28539h11.9965v10.28539z" stroke-width="NaN"/><path d="M191.14521,303.69181v-10.28539h11.9965v10.28539z" stroke-width="NaN"/><path d="M178.9345,293.40641v-10.28539h11.9965v10.28539z" stroke-width="NaN"/></g><g><path d="M166.59929,282.64696v-10.28539h11.9965v10.28539z" stroke-width="NaN"/><path d="M154.38858,272.36157v-10.28539h11.9965v10.28539z" stroke-width="NaN"/><path d="M142.05337,262.08041v-10.28539h11.9965v10.28539z" stroke-width="NaN"/><path d="M129.84265,251.79502v-10.28539h11.9965v10.28539z" stroke-width="NaN"/></g><g stroke-width="NaN"><path d="M117.50745,241.51386v-10.28539h11.99649v10.28539z" stroke-width="NaN"/></g></g><path d="M274.78679,335h210.21022v31h-210.21021z" data-paper-data="{&quot;origPos&quot;:null,&quot;index&quot;:null}" fill="#cc1919" stroke="none" stroke-width="1"/><path d="M285.79881,372.50846l-206.2042,-172.67268h37.54054l205.70571,172.67268z" data-paper-data="{&quot;index&quot;:null}" fill="#cc1919" stroke="none" stroke-width="0"/><path d="M16.77478,200h99.73574v31h-99.73573z" data-paper-data="{&quot;index&quot;:null}" fill="#cc1919" stroke="none" stroke-width="1"/><g data-paper-data="{&quot;index&quot;:null}" stroke="none" stroke-width="0"><path d="M-17.12311,360.99944v-361.86186h35.28529v361.86186z" fill="url(#color-1)"/><path d="M-17.12311,360.99944v-361.86186h35.28529v361.86186z" fill="url(#color-2)"/></g></g></g></svg>