<svg version="1.1" xmlns="http://www.w3.org/2000/svg" xmlns:xlink="http://www.w3.org/1999/xlink" width="441.55828" height="91.66968" viewBox="0,0,441.55828,91.66968"><defs><linearGradient x1="25.25" y1="260.1943" x2="25.25" y2="339.8057" gradientUnits="userSpaceOnUse" id="color-1"><stop offset="0" stop-color="#ffffff"/><stop offset="1" stop-color="#ffffff"/></linearGradient><linearGradient x1="26.36949" y1="263.33724" x2="26.36949" y2="277.5035" gradientUnits="userSpaceOnUse" id="color-2"><stop offset="0" stop-color="#2392d1"/><stop offset="1" stop-color="#2391d0"/></linearGradient><linearGradient x1="38.70642" y1="262.28302" x2="38.70642" y2="279.21627" gradientUnits="userSpaceOnUse" id="color-3"><stop offset="0" stop-color="#2392d1"/><stop offset="1" stop-color="#2391d0"/></linearGradient><linearGradient x1="44.8522" y1="266.64188" x2="44.8522" y2="277.5035" gradientUnits="userSpaceOnUse" id="color-4"><stop offset="0" stop-color="#2392d1"/><stop offset="1" stop-color="#2391d0"/></linearGradient><linearGradient x1="59.24628" y1="263.34808" x2="59.24628" y2="277.5035" gradientUnits="userSpaceOnUse" id="color-5"><stop offset="0" stop-color="#2392d1"/><stop offset="1" stop-color="#2391d0"/></linearGradient><linearGradient x1="78.90252" y1="263.34808" x2="78.90252" y2="277.5035" gradientUnits="userSpaceOnUse" id="color-6"><stop offset="0" stop-color="#2392d1"/><stop offset="1" stop-color="#2391d0"/></linearGradient><linearGradient x1="92.4268" y1="266.64188" x2="92.4268" y2="277.5035" gradientUnits="userSpaceOnUse" id="color-7"><stop offset="0" stop-color="#2392d1"/><stop offset="1" stop-color="#2391d0"/></linearGradient><linearGradient x1="106.73409" y1="262.28302" x2="106.73409" y2="277.5035" gradientUnits="userSpaceOnUse" id="color-8"><stop offset="0" stop-color="#2392d1"/><stop offset="1" stop-color="#2391d0"/></linearGradient><linearGradient x1="112.82267" y1="266.67442" x2="112.82267" y2="282.9067" gradientUnits="userSpaceOnUse" id="color-9"><stop offset="0" stop-color="#2392d1"/><stop offset="1" stop-color="#2391d0"/></linearGradient><linearGradient x1="127.52147" y1="262.28302" x2="127.52147" y2="277.5035" gradientUnits="userSpaceOnUse" id="color-10"><stop offset="0" stop-color="#2392d1"/><stop offset="1" stop-color="#2391d0"/></linearGradient></defs><g transform="translate(-19.22086,-254.16516)"><g data-paper-data="{&quot;isPaintingLayer&quot;:true}" fill-rule="nonzero" stroke-linecap="butt" stroke-linejoin="miter" stroke-miterlimit="10" stroke-dasharray="" stroke-dashoffset="0" style="mix-blend-mode: normal"><path d="M25.25,260.1943h429.5v79.6114h-429.5z" fill="#ffffff" stroke="url(#color-1)" stroke-width="12.05828"/><text transform="translate(26.06976,298.5041) scale(0.72715,0.72714)" font-size="22" xml:space="preserve" fill="#2492d1" fill-rule="nonzero" stroke="none" stroke-width="1" stroke-linecap="butt" stroke-linejoin="miter" stroke-miterlimit="10" stroke-dasharray="" stroke-dashoffset="0" font-family="Sans Serif" font-weight="400" text-anchor="start" style="mix-blend-mode: normal"><tspan x="0" dy="0">Luigi is hiding on your screen: click or tap on him as fast</tspan><tspan x="0" dy="24.86px">as you can to get the most points. Be careful: don't click</tspan><tspan x="0" dy="24.86px">on anything else!</tspan></text><g stroke="none" stroke-width="0.26458"><path d="M37.46977,263.33724c0.04339,0.09467 0.06509,0.16272 0.06509,0.20611c-0.04339,2.16069 -0.06509,3.41016 -0.06509,3.75137c-0.04734,0.0217 -0.09369,0.04339 -0.14102,0.06509c-3.32732,0.08678 -5.23259,0.13017 -5.71877,0.13017l-0.06509,0.14201c0.04339,0.80372 0.06509,1.46347 0.06509,1.97825c0,0.11242 0,0.22485 0,0.33727c0.0217,0 0.04339,0 0.06509,0l4.42492,-0.54338c0.02564,0.04339 0.05128,0.08678 0.07593,0.13017c0,1.11239 0,2.22479 0,3.33718c0,0.09467 -0.04635,0.14201 -0.14102,0.14201l-4.15274,-0.47829c0,0.13412 0,0.26824 0,0.40137c0,0.91418 0.02465,2.27607 0.07593,4.08864c-0.4063,0.09369 -1.63408,0.25344 -3.6853,0.47829c-0.13116,-0.25443 -0.76526,-4.45451 -1.9033,-12.60024c0.0217,0 0.04339,0 0.06607,0z" data-paper-data="{&quot;origPos&quot;:null}" fill="url(#color-2)"/><path d="M40.26358,262.28302l4.27305,0.67355c-0.53647,2.05122 -0.88755,3.07684 -1.05421,3.07684c-2.24747,-0.15187 -3.37071,-0.30078 -3.37071,-0.44575c0,-1.05125 0,-2.10152 0,-3.15277c0.0217,-0.10158 0.07298,-0.15187 0.15187,-0.15187zM39.06834,267.45743c0.0217,0 0.04339,0 0.06509,0c3.30464,0.60156 4.95745,0.95362 4.95745,1.0552c-0.94968,5.37756 -1.5256,8.37452 -1.72875,8.99087c-1.14888,0 -2.29777,0 -3.44665,0c-0.10059,0 -0.15187,-0.05128 -0.15187,-0.15286c1.11634,-36.27511 -0.81161,26.38288 0.30473,-9.89321z" fill="url(#color-3)"/><path d="M54.50578,266.64188l3.62021,2.49007c-0.25344,4.13105 -0.43095,6.54518 -0.53253,7.24043c-0.42011,0.05128 -1.69916,0.12722 -3.83717,0.22879l-0.07692,-0.15286c-0.02465,-0.38658 -0.35502,-5.41799 -0.37967,-5.80556c-0.05128,-0.02465 -0.10158,-0.05029 -0.15286,-0.07593c-1.38458,0.29782 -2.33721,0.52168 -2.85889,0.67454c0.14497,2.47133 0.21696,4.25826 0.21696,5.35981c-2.1597,0.60156 -3.34113,0.90234 -3.54428,0.90234c-1.40529,-6.19016 -2.10842,-9.45831 -2.10842,-9.80643c3.0581,-0.39841 4.71782,-0.5986 4.97915,-0.5986c0,0.02564 0,0.05128 0,0.07692c0.05029,0.0355 0.12623,0.78992 0.2278,2.26128c2.80564,-1.86287 4.28785,-2.79479 4.44662,-2.79479z" fill="url(#color-4)"/><path d="M65.824,263.34808c0.0217,0 0.04339,0 0.06509,0c3.27604,0.27514 4.91406,0.48914 4.91406,0.64101c0.48125,4.26615 0.96348,8.53132 1.44572,12.79648c0,0.09467 -1.44572,0.33332 -4.33814,0.71793c-0.0217,-0.04734 -0.04339,-0.09467 -0.06509,-0.14201c0,-0.38756 0,-0.77513 0,-1.16269c-2.49303,0.67355 -4.20402,1.10845 -5.13102,1.3047c-2.20408,-3.11727 -3.35987,-4.77699 -3.46834,-4.97915c1.62323,-2.95061 2.48908,-4.44366 2.59855,-4.47916c1.51771,0.07199 3.0364,0.14497 4.5551,0.21696c-0.09467,-0.55817 -0.28599,-2.19619 -0.57592,-4.91406zM63.80137,271.14273c0.73173,2.23958 1.18833,3.46834 1.36978,3.68629l2.16365,-1.88062c-0.22485,-1.29779 -0.39151,-1.94669 -0.49999,-1.94669c-0.96447,0 -1.92795,0 -2.89242,0c-0.09369,0.01479 -0.14102,0.06213 -0.14102,0.14102z" fill="url(#color-5)"/><path d="M84.4359,263.34808c0,0.05029 0.0217,0.07593 0.06509,0.07593c0.05128,1.47136 0.12722,4.76219 0.22879,9.87152c0.0217,0 0.04339,0 0.06509,0c2.16365,-0.76033 4.32729,-1.52165 6.49094,-2.28297c0,0.05128 0.02465,0.07593 0.07593,0.07593c-0.18639,4.67837 -0.03156,0.78006 -0.21794,5.45843c0,0.09369 -3.36677,0.41222 -10.09932,0.95658c-0.15286,-0.76132 -0.86684,-5.28387 -2.14195,-13.56865c0.57198,-0.09369 2.41709,-0.28993 5.53337,-0.58677z" fill="url(#color-6)"/><path d="M98.29744,266.64188c0.02564,0.04734 0.05128,0.09467 0.07593,0.14201c-0.48914,2.5946 -0.97828,5.1892 -1.46741,7.7838c0.02564,0 0.05128,0 0.07593,0l3.74053,-1.0976c0,-1.4684 0,-2.93581 0,-4.40323c0.01381,-0.10158 0.06114,-0.15286 0.14102,-0.15286c2.81254,0.19625 4.37759,0.29388 4.69612,0.29388c0,0.05128 0.02564,0.07593 0.07692,0.07593c0,1.23961 -0.39151,3.80857 -1.17452,7.70886c0,0.22386 -1.12324,0.39447 -3.37071,0.51083c-0.11538,-0.13806 -0.21301,-0.43194 -0.29289,-0.88065c-2.87763,0.58677 -4.5196,0.88065 -4.92491,0.88065c-2.29777,-1.711 -3.44665,-2.59164 -3.44665,-2.64194c0.39151,-5.13891 0.63805,-7.80649 0.73962,-8.00175c0.0217,0 0.04339,0 0.06509,0c1.83328,-0.05128 3.52258,-0.12327 5.06593,-0.21794z" fill="url(#color-7)"/><path d="M108.23404,262.28302l4.27305,0.67355c-0.53647,2.05122 -0.88755,3.07684 -1.05421,3.07684c-2.24747,-0.15187 -3.37071,-0.30078 -3.37071,-0.44575c0,-1.05125 0,-2.10152 0,-3.15277c0.0217,-0.10158 0.07298,-0.15187 0.15187,-0.15187zM107.03881,267.45743c0.0217,0 0.04339,0 0.06509,0c3.30464,0.60156 4.95745,0.95362 4.95745,1.0552c-0.94968,5.37756 -1.5256,8.37452 -1.72875,8.99087c-1.14888,0 -2.29777,0 -3.44665,0c-0.10059,0 -0.15187,-0.05128 -0.15187,-0.15286c0.14891,-4.83616 0.15581,-5.05607 0.30473,-9.89321z" fill="url(#color-8)"/><path d="M120.93289,266.67442c3.07979,0.07988 4.62019,0.214 4.62019,0.40236c0.52957,8.02344 0.79386,12.29255 0.79386,12.80733c-2.33425,1.48615 -4.00482,2.49303 -5.01169,3.0226c-3.55217,-1.11634 -5.32727,-1.75439 -5.32727,-1.91415c1.14494,-1.67352 1.80764,-2.52162 1.9891,-2.54332c1.93584,0.95658 3.04824,1.43487 3.33817,1.43487l1.03252,-1.35894c-0.27514,-1.12324 -0.46054,-1.78693 -0.55422,-1.9891c-0.15976,0 -2.1242,0.31853 -5.89234,0.95658c-2.06602,-3.35592 -3.09853,-5.07777 -3.09853,-5.16455c1.78299,-2.84805 2.86974,-4.51861 3.26125,-5.01169c0.02564,0 0.05029,0 0.07593,0c0.21005,0 1.77608,0.34417 4.69711,1.03252c0,-0.07988 0,-0.15877 0,-0.23865c0,-0.28303 -0.02564,-0.73568 -0.07692,-1.35894c0.05128,-0.02564 0.10158,-0.05128 0.15286,-0.07692zM117.51879,271.28474c0.10158,0.22485 0.42011,1.42008 0.95658,3.58767c0.67454,-0.21794 1.70705,-0.61635 3.09853,-1.19622c-0.26824,-1.3047 -0.40236,-2.04728 -0.40236,-2.22873c-0.13017,-0.02564 -0.26035,-0.05029 -0.39151,-0.07593h-0.47829c-0.60846,0 -1.53645,-0.0286 -2.78296,-0.08678z" fill="url(#color-9)"/><path d="M129.02142,262.28302c1.42402,0.22386 2.84805,0.44871 4.27207,0.67355c-0.53549,2.05122 -0.88755,3.07684 -1.05421,3.07684c-2.24648,-0.15187 -3.36973,-0.30078 -3.36973,-0.44575c0,-1.05125 0,-2.10152 0,-3.15277c0.0217,-0.10158 0.07199,-0.15187 0.15187,-0.15187zM127.8252,267.45743c0.0217,0 0.04339,0 0.06509,0c3.30563,0.60156 4.95745,0.95362 4.95745,1.0552c-0.94869,5.37756 -1.5256,8.37452 -1.72776,8.99087h-3.44665c-0.10158,0 -0.15187,-0.05128 -0.15187,-0.15286c0.38855,-12.64067 -0.08481,2.74844 0.30374,-9.89321z" fill="url(#color-10)"/></g></g></g></svg>