<svg version="1.1" xmlns="http://www.w3.org/2000/svg" xmlns:xlink="http://www.w3.org/1999/xlink" width="358.28513" height="165.26086" viewBox="0,0,358.28513,165.26086"><defs><linearGradient x1="67.85926" y1="196.70507" x2="67.85926" y2="259.72526" gradientUnits="userSpaceOnUse" id="color-1"><stop offset="0" stop-color="#000000"/><stop offset="1" stop-color="#000000"/></linearGradient><linearGradient x1="165.28656" y1="110.13697" x2="165.28656" y2="140.19997" gradientUnits="userSpaceOnUse" id="color-2"><stop offset="0" stop-color="#000000"/><stop offset="1" stop-color="#000000"/></linearGradient><linearGradient x1="293.27546" y1="150.90026" x2="293.27546" y2="189.57097" gradientUnits="userSpaceOnUse" id="color-3"><stop offset="0" stop-color="#000000"/><stop offset="1" stop-color="#000000"/></linearGradient><linearGradient x1="274.37476" y1="151.53907" x2="274.37476" y2="189.87457" gradientUnits="userSpaceOnUse" id="color-4"><stop offset="0" stop-color="#000000"/><stop offset="1" stop-color="#000000"/></linearGradient><linearGradient x1="234.99706" y1="150.50497" x2="234.99706" y2="190.08797" gradientUnits="userSpaceOnUse" id="color-5"><stop offset="0" stop-color="#000000"/><stop offset="1" stop-color="#000000"/></linearGradient><linearGradient x1="190.11336" y1="150.62667" x2="190.11336" y2="190.08797" gradientUnits="userSpaceOnUse" id="color-6"><stop offset="0" stop-color="#000000"/><stop offset="1" stop-color="#000000"/></linearGradient><linearGradient x1="141.76646" y1="150.47337" x2="141.76646" y2="190.08797" gradientUnits="userSpaceOnUse" id="color-7"><stop offset="0" stop-color="#000000"/><stop offset="1" stop-color="#000000"/></linearGradient><linearGradient x1="165.33656" y1="109.78697" x2="165.33656" y2="139.84997" gradientUnits="userSpaceOnUse" id="color-8"><stop offset="0" stop-color="#ffffff"/><stop offset="1" stop-color="#dae0e7"/></linearGradient><linearGradient x1="141.86646" y1="150.07337" x2="141.86646" y2="189.68797" gradientUnits="userSpaceOnUse" id="color-9"><stop offset="0" stop-color="#ff1818"/><stop offset="1" stop-color="#e11515"/></linearGradient><linearGradient x1="190.21336" y1="150.22667" x2="190.21336" y2="189.68797" gradientUnits="userSpaceOnUse" id="color-10"><stop offset="0" stop-color="#1ce11c"/><stop offset="1" stop-color="#1acf1a"/></linearGradient><linearGradient x1="235.09706" y1="150.10497" x2="235.09706" y2="189.68797" gradientUnits="userSpaceOnUse" id="color-11"><stop offset="0" stop-color="#239eff"/><stop offset="1" stop-color="#1e8be1"/></linearGradient><linearGradient x1="274.47476" y1="151.13906" x2="274.47476" y2="189.47457" gradientUnits="userSpaceOnUse" id="color-12"><stop offset="0" stop-color="#ffe530"/><stop offset="1" stop-color="#ffd628"/></linearGradient><linearGradient x1="293.37546" y1="150.50027" x2="293.37546" y2="189.17097" gradientUnits="userSpaceOnUse" id="color-13"><stop offset="0" stop-color="#a818ff"/><stop offset="1" stop-color="#9404e4"/></linearGradient><linearGradient x1="67.90926" y1="196.60507" x2="67.90926" y2="259.62527" gradientUnits="userSpaceOnUse" id="color-14"><stop offset="0" stop-color="#0160c0"/><stop offset="1" stop-color="#23f4f4"/></linearGradient><radialGradient cx="147.73866" cy="154.42527" r="14.5387" gradientUnits="userSpaceOnUse" id="color-15"><stop offset="0" stop-color="#ff7c7c"/><stop offset="1" stop-color="#ff7c7c" stop-opacity="0"/></radialGradient><radialGradient cx="327.52196" cy="182.23537" r="17.4697" gradientUnits="userSpaceOnUse" id="color-16"><stop offset="0" stop-color="#da9dff"/><stop offset="1" stop-color="#da9dff" stop-opacity="0"/></radialGradient><linearGradient x1="235.15106" y1="198.84257" x2="235.15106" y2="216.94277" gradientUnits="userSpaceOnUse" id="color-17"><stop offset="0" stop-color="#54a7dc"/><stop offset="1" stop-color="#4fa3da"/></linearGradient><linearGradient x1="113.37726" y1="225.17477" x2="116.07986" y2="243.07207" gradientUnits="userSpaceOnUse" id="color-18"><stop offset="0" stop-color="#6dbee4"/><stop offset="1" stop-color="#9ae6f6"/></linearGradient><linearGradient x1="375.41166" y1="236.84457" x2="371.80806" y2="252.48487" gradientUnits="userSpaceOnUse" id="color-19"><stop offset="0" stop-color="#94e1f4"/><stop offset="1" stop-color="#adf7fd"/></linearGradient><linearGradient x1="300.95676" y1="225.12307" x2="301.96466" y2="241.14147" gradientUnits="userSpaceOnUse" id="color-20"><stop offset="0" stop-color="#2fcce7"/><stop offset="1" stop-color="#9be6f6"/></linearGradient><radialGradient cx="280.48386" cy="108.50007" r="10.1622" gradientUnits="userSpaceOnUse" id="color-21"><stop offset="0" stop-color="#ffffff"/><stop offset="1" stop-color="#ffffff" stop-opacity="0"/></radialGradient></defs><g transform="translate(-62.18006,-100.27487)"><g data-paper-data="{&quot;isPaintingLayer&quot;:true}" fill="none" fill-rule="nonzero" stroke="none" stroke-width="none" stroke-linecap="none" stroke-linejoin="miter" stroke-miterlimit="10" stroke-dasharray="" stroke-dashoffset="0" font-family="none" font-weight="none" font-size="none" text-anchor="none" style="mix-blend-mode: normal"><g><g data-paper-data="{&quot;origPos&quot;:null}" id="ID0.7838820973411202" stroke-linecap="butt"><path d="M221.39036,199.41297l13.5775,38.667l-15.1947,2.347l-2.3991,-10.2623l-11.8539,2.2626l-1.9583,7.9161l-0.231,0.0058l-14.1297,-2.8589l11.878,-40.7852zM249.40486,197.29987l0.7107,29.1081h0.2032l20.218,-6.7308l0.2369,0.223l-0.6777,16.0946l-31.4609,2.8201l-6.6721,-40.0078l17.238,-1.7309zM307.82776,203.06547l9.1695,39.9586l-15.4169,0.6087l-1.2329,-10.4676l-12.0776,0.9058l-2.8479,7.6439l-0.2303,-0.0191l-13.7682,-4.441l16.454,-39.1782v-0.0014zM185.58526,209.89457l0.0161,0.1973l-2.4042,13.0992l-6.3039,4.5268l12.5939,8.3114l-12.3805,7.1224l-11.2414,-13.9332l-0.3763,0.0301l0.699,11.5979l-0.4797,1.5241l-9.4445,0.7481l-3.4596,-18.1475l-3.2866,-18.3588l21.7898,-5.9533zM340.42706,217.54947l9.1049,-12.1018l0.2252,0.036l11.0089,9.1064l-0.0587,0.4041l-12.3599,10.3041l16.0499,9.8838l-11.1696,10.7039l-10.6936,-12.7062l-10.2366,14.2963l-0.2244,-0.036l-12.2771,-7.3483l0.033,-0.2355l13.191,-13.3735l-15.348,-10.4259l9.4643,-11.6316zM145.41395,209.14787l-3.5014,10.8542l-0.1988,0.0242l-9.8559,-3.0856l-7.2237,6.6098l2.4409,10.3356l10.4339,2.8436l6.3105,-7.7327l7.1291,8.9414l0.0748,0.6088l-13.7087,9.8684l-19.6599,-4.3588l-8.3862,-19.2499l7.0667,-13.1418l13.4572,-6.9574zM388.14686,226.34637l14.1099,-8.7448l9.834,12.8792l-22.8525,11.6565l-3.6687,15.8636l-17.9847,-6.5811l8.2035,-16.1475l-8.139,-23.7187l18.1336,-2.633zM209.28716,210.50477l-1.2219,9.6007l7.1745,-0.1753l-2.9066,-10.7265zM163.39576,210.79227l1.3525,14.2882l0.1892,-0.0147l7.4561,-3.1325l1.1229,-8.541l-10.1361,-2.7944zM294.50556,212.71607l-2.3052,9.4005l7.1745,0.6388l-1.6861,-10.9862l-0.7225,-0.044l-0.5552,-0.0014zM102.17476,215.71877l-2.0441,10.929l-0.2303,0.0712l-13.0098,-1.7933l-2.2106,6.0626l26.5139,4.3618l-4.287,17.0011l-18.124,7.3741l-16.1958,-4.6229l-0.0704,-0.2274l2.5971,-9.9586l0.4283,-0.1321l14.9622,2.9712l2.8465,-6.2225l-25.4314,-4.4828l-0.0601,-0.1944l3.0731,-14.3827l17.2168,-8.9113z" id="flowRoot4547-3" fill="#3bb2ff" stroke="url(#color-1)" stroke-width="11.00161"/><path d="M192.59916,114.34327l-3.544,6.6765h-0.165l-8.1507,-3.7662l-2.6705,3.4897l16.4679,8.1339l-6.2371,10.1676l-13.3494,1.1552l-9.6638,-6.2386v-0.1621l3.7105,-5.9394h0.3066l9.1907,4.9221l3.1186,-3.4648l-15.7345,-7.9967v-0.1386l4.9133,-8.7111l13.0663,-2.3338zM253.99616,117.57777l-2.6932,9.4973l-5.6702,4.6669l-7.8918,-0.4379l-0.3066,8.318l-8.3641,0.5779l-0.8978,-4.9683l-1.6304,-22.1837l17.153,-2.911zM282.66276,113.16387l-2.2686,8.1111l-11.8839,-3.189l-2.4343,5.2463h0.1665l10.7266,-0.9483l0.1643,0.3235l-1.464,7.3014l-9.0961,-1.2704l0.1415,3.9753v0.8075l0.1651,0.3235l12.2147,-0.9697l1.1346,7.1628l-0.165,0.1621l-21.7839,-1.4331l-3.4267,-9.5428l4.3955,-19.0871zM309.67606,117.39287v0.1387l-2.5758,9.0352l-4.9852,2.8186l8.9303,6.5167l-9.6865,4.2979l-7.5838,-10.376h-0.2838l-0.1658,8.1581l-0.4488,1.04h-7.1108l-1.513,-12.8953l-1.3708,-13.0325l16.6571,-2.9573zM209.02676,110.96797l-1.4639,17.2161l6.5906,0.8779l1.9385,-15.2277l9.8758,2.149l-2.1262,15.7587l-7.3014,8.3891l-14.4349,-2.4959l-5.6475,-6.1008l1.04,-20.9133zM293.01885,116.79147l0.1643,10.076h0.1423l5.7656,-1.7793l1.3466,-5.9159l-7.4188,-2.5187zM237.29286,126.33577l5.8117,-1.1787l1.3466,-5.6841l-7.1583,-2.7732z" id="flowRoot4515-8" fill="#ececec" stroke="url(#color-2)" stroke-width="11.00161"/><g id="ID0.6757190795615315" stroke-width="11.00161"><path d="M307.78216,150.90026l14.5068,4.8077l8.4448,13.2034l-5.5683,16.6124l-16.9505,4.0472l-14.2596,-9.3719l-0.4642,-17.2814l-0.2157,-0.6989l14.2904,-11.3185zM306.88516,165.10916l-0.6505,10.3144l7.9505,1.7647l2.845,-9.4636l-10.145,-2.8289z" id="path5341" fill="#9404e4" stroke="url(#color-3)"/><path d="M289.90166,154.21687l-5.5367,35.6577l-9.9902,-0.8809l2.2259,-37.4546z" id="path5339" fill="#fbc211" stroke="url(#color-4)"/><path d="M270.07306,160.05797v0.1819l-3.3723,11.8972l-6.5262,3.7119l11.6918,8.5805l-12.6819,5.6585l-9.9286,-13.6603h-0.3711l-0.2164,10.739l-0.5875,1.3694h-9.311l-1.9796,-16.9777l-1.7932,-17.1596l21.8066,-3.8938zM248.26566,159.26737l0.2164,13.265h0.1863l7.5478,-2.3433l1.7625,-7.7884l-9.713,-3.3167z" id="path5337" fill="#0492d0" stroke="url(#color-5)"/><path d="M221.07556,153.48567l11.815,34.8369l-14.2588,1.7654l-2.0096,-9.2186l-11.1351,1.7639l-2.0111,7.0293h-0.2164l-13.1462,-2.8611l12.0336,-36.1748zM209.50846,163.13117l-1.3612,8.5489h6.7117l-2.4739,-9.6447z" id="path5335" fill="#10d004" stroke="url(#color-6)"/><path d="M164.31536,151.56917l4.1131,11.3801h0.1863l6.1551,-9.3719h0.1848l8.3832,1.1265l5.0424,33.9239l-13.2393,1.4602l-0.1863,-0.3652l-0.7415,-18.8935h-0.1848l-7.641,6.601h-0.1849l-5.2272,-8.062h-0.1863l-6.5269,18.1637h-0.3703l-12.1253,-5.6893v-0.1826l13.7953,-31.1867z" id="path5333" fill="#e10404" stroke="url(#color-7)"/></g><g id="ID0.38717245077714324" stroke="none"><g id="layer1"><path d="M192.64916,113.99327l-3.544,6.6765h-0.165l-8.1507,-3.7662l-2.6705,3.4897l16.4679,8.1339l-6.2371,10.1676l-13.3494,1.1552l-9.6638,-6.2386v-0.1621l3.7105,-5.9394h0.3066l9.1907,4.9221l3.1186,-3.4648l-15.7345,-7.9967v-0.1386l4.9133,-8.7111l13.0663,-2.3338zM254.04616,117.22777l-2.6932,9.4973l-5.6702,4.6669l-7.8918,-0.4379l-0.3066,8.318l-8.3641,0.5779l-0.8978,-4.9683l-1.6304,-22.1837l17.153,-2.911zM282.71276,112.81387l-2.2686,8.1111l-11.8839,-3.189l-2.4343,5.2463h0.1665l10.7266,-0.9483l0.1643,0.3235l-1.464,7.3014l-9.0961,-1.2704l0.1415,3.9753v0.8075l0.1651,0.3235l12.2147,-0.9697l1.1346,7.1628l-0.165,0.1621l-21.7839,-1.4331l-3.4267,-9.5428l4.3955,-19.0871zM309.72605,117.04287v0.1387l-2.5758,9.0352l-4.9852,2.8186l8.9303,6.5167l-9.6865,4.2979l-7.5838,-10.376h-0.2838l-0.1658,8.1581l-0.4488,1.04h-7.1108l-1.513,-12.8953l-1.3708,-13.0325l16.6571,-2.9573zM209.07676,110.61797l-1.4639,17.2161l6.5906,0.8779l1.9385,-15.2277l9.8758,2.149l-2.1262,15.7587l-7.3014,8.3891l-14.4349,-2.4959l-5.6475,-6.1008l1.04,-20.9133zM293.06886,116.44147l0.1643,10.076h0.1423l5.7656,-1.7793l1.3466,-5.9159l-7.4188,-2.5187zM237.34286,125.98577l5.8117,-1.1787l1.3466,-5.6841l-7.1583,-2.7732z" id="flowRoot4515-8" fill="url(#color-8)" stroke-width="1.19633"/><path d="M164.41536,151.16917l4.1131,11.3801h0.1863l6.1551,-9.3719h0.1848l8.3832,1.1265l5.0424,33.9239l-13.2393,1.4602l-0.1863,-0.3652l-0.7415,-18.8935h-0.1848l-7.641,6.601h-0.1849l-5.2272,-8.062h-0.1863l-6.5269,18.1637h-0.3703l-12.1253,-5.6893v-0.1826l13.7953,-31.1867z" id="path5333" fill="url(#color-9)" stroke-width="1.57068"/><path d="M221.17556,153.08567l11.815,34.8369l-14.2588,1.7654l-2.0096,-9.2186l-11.1351,1.7639l-2.0111,7.0293h-0.2164l-13.1462,-2.8611l12.0336,-36.1748zM209.60846,162.73117l-1.3612,8.5489h6.7117l-2.4739,-9.6447z" id="path5335" fill="url(#color-10)" stroke-width="1.57068"/><path d="M270.17305,159.65796v0.1819l-3.3723,11.8972l-6.5262,3.7119l11.6918,8.5805l-12.6819,5.6585l-9.9286,-13.6603h-0.3711l-0.2164,10.739l-0.5875,1.3694h-9.311l-1.9796,-16.9777l-1.7932,-17.1596l21.8066,-3.8938zM248.36566,158.86737l0.2164,13.265h0.1863l7.5478,-2.3433l1.7625,-7.7884l-9.713,-3.3167z" id="path5337" fill="url(#color-11)" stroke-width="1.57068"/><path d="M290.00166,153.81687l-5.5367,35.6577l-9.9902,-0.8809l2.2259,-37.4546z" id="path5339" fill="url(#color-12)" stroke-width="1.57068"/><path d="M307.88216,150.50027l14.5068,4.8077l8.4448,13.2034l-5.5683,16.6124l-16.9505,4.0472l-14.2596,-9.3719l-0.4642,-17.2814l-0.2157,-0.6989l14.2904,-11.3185zM306.98516,164.70917l-0.6505,10.3144l7.9505,1.7647l2.845,-9.4636l-10.145,-2.8289z" id="path5341" fill="url(#color-13)" stroke-width="1.57068"/><path d="M221.44036,199.31297l13.5775,38.667l-15.1947,2.347l-2.3991,-10.2623l-11.8539,2.2626l-1.9583,7.9161l-0.231,0.0058l-14.1297,-2.8589l11.878,-40.7852zM249.45486,197.19987l0.7107,29.1081h0.2032l20.218,-6.7308l0.2369,0.223l-0.6777,16.0946l-31.4609,2.8201l-6.6721,-40.0078l17.238,-1.7309zM307.87775,202.96547l9.1695,39.9586l-15.4169,0.6087l-1.2329,-10.4676l-12.0776,0.9058l-2.8479,7.6439l-0.2303,-0.0191l-13.7682,-4.441l16.454,-39.1782v-0.0014zM185.63526,209.79457l0.0161,0.1973l-2.4042,13.0992l-6.3039,4.5268l12.5939,8.3114l-12.3805,7.1224l-11.2414,-13.9332l-0.3763,0.0301l0.699,11.5979l-0.4797,1.5241l-9.4445,0.7481l-3.4596,-18.1475l-3.2866,-18.3588l21.7898,-5.9533zM340.47706,217.44947l9.1049,-12.1018l0.2252,0.036l11.0089,9.1064l-0.0587,0.4041l-12.3599,10.3041l16.0499,9.8838l-11.1696,10.7039l-10.6936,-12.7062l-10.2366,14.2963l-0.2244,-0.036l-12.2771,-7.3483l0.033,-0.2355l13.191,-13.3735l-15.348,-10.4259l9.4643,-11.6316zM145.46396,209.04787l-3.5014,10.8542l-0.1988,0.0242l-9.8559,-3.0856l-7.2237,6.6098l2.4409,10.3356l10.4339,2.8436l6.3105,-7.7327l7.1291,8.9414l0.0748,0.6088l-13.7087,9.8684l-19.6599,-4.3588l-8.3862,-19.2499l7.0667,-13.1418l13.4572,-6.9574zM388.19686,226.24637l14.1099,-8.7448l9.834,12.8792l-22.8525,11.6565l-3.6687,15.8636l-17.9847,-6.5811l8.2035,-16.1475l-8.139,-23.7187l18.1336,-2.633zM209.33716,210.40477l-1.2219,9.6007l7.1745,-0.1753l-2.9066,-10.7265zM163.44576,210.69227l1.3525,14.2882l0.1892,-0.0147l7.4561,-3.1325l1.1229,-8.541l-10.1361,-2.7944zM294.55556,212.61607l-2.3052,9.4005l7.1745,0.6388l-1.6861,-10.9862l-0.7225,-0.044l-0.5552,-0.0014zM102.22476,215.61877l-2.0441,10.929l-0.2303,0.0712l-13.0098,-1.7933l-2.2106,6.0626l26.5139,4.3618l-4.287,17.0011l-18.124,7.3741l-16.1958,-4.6229l-0.0704,-0.2274l2.5971,-9.9586l0.4283,-0.1321l14.9622,2.9712l2.8465,-6.2225l-25.4314,-4.4828l-0.0601,-0.1944l3.0731,-14.3827l17.2168,-8.9113z" id="flowRoot4547-3" fill="url(#color-14)" stroke-width="1.73862"/></g></g></g><path d="M146.85366,146.75116l0.7534,-5.2176l1.0193,5.5186l1.551,3.1105l1.4181,2.0068l4.9635,0.9031l-4.7419,1.8562l-2.0828,3.0102l-0.7977,3.1607l-0.975,3.6121l-0.9749,-3.5118l-1.4625,-3.5119l-1.9942,-2.6088l-3.9885,-1.4047l4.0771,-1.4048l2.2158,-2.3579z" data-paper-data="{&quot;origPos&quot;:null}" id="ID0.2795926104299724" fill="url(#color-15)" stroke="none" stroke-width="0.94667" stroke-linecap="round"/><path d="M325.43966,173.50377l0.9572,-6.6295l1.2951,7.0119l1.9707,3.9522l1.8019,2.5498l6.3065,1.1474l-6.025,2.3585l-2.6464,3.8247l-1.0136,4.0159l-1.2387,4.5896l-1.2388,-4.4621l-1.8582,-4.4621l-2.5338,-3.3147l-5.0677,-1.7849l5.1803,-1.7848l2.8154,-2.996z" data-paper-data="{&quot;origPos&quot;:null}" id="ID0.2795926104299724" fill="url(#color-16)" stroke="none" stroke-width="1.20282" stroke-linecap="round"/><path d="M204.10336,201.40267l-0.3,-0.3" data-paper-data="{&quot;origPos&quot;:null}" id="ID0.6499854293651879" fill="none" stroke="#4fa3da" stroke-width="2" stroke-linecap="round"/><path d="M218.55336,206.85267l0.3,0.3" data-paper-data="{&quot;origPos&quot;:null}" id="ID0.5598452151753008" fill="none" stroke="#4fa3da" stroke-width="2" stroke-linecap="round"/><path d="M203.10336,210.65267l-0.3,-0.3" data-paper-data="{&quot;origPos&quot;:null}" id="ID0.4491646192036569" fill="none" stroke="#4fa3da" stroke-width="2" stroke-linecap="round"/><path d="M205.05336,218.60267l0.3,0.3" data-paper-data="{&quot;origPos&quot;:null}" id="ID0.5537896947935224" fill="none" stroke="#54a7dc" stroke-width="2" stroke-linecap="round"/><path d="M197.85336,223.15267l-0.3,-0.3" data-paper-data="{&quot;origPos&quot;:null}" id="ID0.5275348289869726" fill="none" stroke="#72c2e7" stroke-width="2" stroke-linecap="round"/><path d="M200.35336,232.15267l-0.3,-0.3" data-paper-data="{&quot;origPos&quot;:null}" id="ID0.9056790093891323" fill="none" stroke="#88d6f0" stroke-width="2" stroke-linecap="round"/><path d="M193.05336,235.10267l0.3,0.3" data-paper-data="{&quot;origPos&quot;:null}" id="ID0.4016126864589751" fill="none" stroke="#94e1f4" stroke-width="2" stroke-linecap="round"/><path d="M210.80336,224.60267l0.3,0.3" data-paper-data="{&quot;origPos&quot;:null}" id="ID0.6391602312214673" fill="none" stroke="#72c2e7" stroke-width="2" stroke-linecap="round"/><path d="M219.35336,214.90267l-0.3,-0.3" data-paper-data="{&quot;origPos&quot;:null}" id="ID0.6710907896049321" fill="none" stroke="#54a7dc" stroke-width="2" stroke-linecap="round"/><path d="M225.35336,222.65267l-0.3,-0.3" data-paper-data="{&quot;origPos&quot;:null}" id="ID0.6969702276401222" fill="none" stroke="#72c2e7" stroke-width="2" stroke-linecap="round"/><path d="M219.60336,228.40267l-0.3,-0.3" data-paper-data="{&quot;origPos&quot;:null}" id="ID0.8263453720137477" fill="none" stroke="#88d6f0" stroke-width="2" stroke-linecap="round"/><path d="M224.10336,236.40267l-0.3,-0.3" data-paper-data="{&quot;origPos&quot;:null}" id="ID0.7075949367135763" fill="none" stroke="#94e1f4" stroke-width="2" stroke-linecap="round"/><path d="M228.30336,231.85267l0.3,0.3" data-paper-data="{&quot;origPos&quot;:null}" id="ID0.7763621103949845" fill="none" stroke="#94e1f4" stroke-width="2" stroke-linecap="round"/><path d="M223.85336,231.90267l-0.3,-0.3" data-paper-data="{&quot;origPos&quot;:null}" id="ID0.2479989198036492" fill="none" stroke="#88d6f0" stroke-width="2" stroke-linecap="round"/><path d="M202.55336,235.35267l0.3,0.3" data-paper-data="{&quot;origPos&quot;:null}" id="ID0.12113476637750864" fill="none" stroke="#94e1f4" stroke-width="2" stroke-linecap="round"/><path d="M177.55336,237.60267l0.3,0.3" data-paper-data="{&quot;origPos&quot;:null}" id="ID0.771653370000422" fill="none" stroke="#94e1f4" stroke-width="2" stroke-linecap="round"/><path d="M183.05336,235.60267l0.3,0.3" data-paper-data="{&quot;origPos&quot;:null}" id="ID0.4566332823596895" fill="none" stroke="#94e1f4" stroke-width="2" stroke-linecap="round"/><path d="M174.80336,232.85267l0.3,0.3" data-paper-data="{&quot;origPos&quot;:null}" id="ID0.3542340062558651" fill="none" stroke="#88d6f0" stroke-width="2" stroke-linecap="round"/><path d="M169.80336,230.10267l0.3,0.3" data-paper-data="{&quot;origPos&quot;:null}" id="ID0.20665045594796538" fill="none" stroke="#88d6f0" stroke-width="2" stroke-linecap="round"/><path d="M176.10336,225.15267l-0.3,-0.3" data-paper-data="{&quot;origPos&quot;:null}" id="ID0.8675201260484755" fill="none" stroke="#72c2e7" stroke-width="2" stroke-linecap="round"/><path d="M160.60336,228.90267l-0.3,-0.3" data-paper-data="{&quot;origPos&quot;:null}" id="ID0.414981902576983" fill="none" stroke="#88d6f0" stroke-width="2" stroke-linecap="round"/><path d="M156.80336,233.60267l0.3,0.3" data-paper-data="{&quot;origPos&quot;:null}" id="ID0.4818250173702836" fill="none" stroke="#88d6f0" stroke-width="2" stroke-linecap="round"/><path d="M162.85336,237.40267l-0.3,-0.3" data-paper-data="{&quot;origPos&quot;:null}" id="ID0.4766224464401603" fill="none" stroke="#94e1f4" stroke-width="2" stroke-linecap="round"/><path d="M158.35336,239.65267l-0.3,-0.3" data-paper-data="{&quot;origPos&quot;:null}" id="ID0.1469330908730626" fill="none" stroke="#94e1f4" stroke-width="2" stroke-linecap="round"/><path d="M131.85336,238.15267l-0.3,-0.3" data-paper-data="{&quot;origPos&quot;:null}" id="ID0.6075432924553752" fill="none" stroke="#8ad8f0" stroke-width="2" stroke-linecap="round"/><path d="M129.05336,241.85267l0.3,0.3" data-paper-data="{&quot;origPos&quot;:null}" id="ID0.35215799137949944" fill="none" stroke="#9ae6f6" stroke-width="2" stroke-linecap="round"/><path d="M139.60336,238.15267l-0.3,-0.3" data-paper-data="{&quot;origPos&quot;:null}" id="ID0.5494424398057163" fill="none" stroke="#8ad8f0" stroke-width="2" stroke-linecap="round"/><path d="M147.55336,236.35267l0.3,0.3" data-paper-data="{&quot;origPos&quot;:null}" id="ID0.5125295701436698" fill="none" stroke="#8ad8f0" stroke-width="2" stroke-linecap="round"/><path d="M143.05336,239.60267l0.3,0.3" data-paper-data="{&quot;origPos&quot;:null}" id="ID0.7047668294981122" fill="none" stroke="#9ae6f6" stroke-width="2" stroke-linecap="round"/><path d="M139.35336,243.15267l-0.3,-0.3" data-paper-data="{&quot;origPos&quot;:null}" id="ID0.10724268853664398" fill="none" stroke="#9ae6f6" stroke-width="2" stroke-linecap="round"/><path d="M87.80336,238.10267l0.3,0.3" data-paper-data="{&quot;origPos&quot;:null}" id="ID0.7326121684163809" fill="none" stroke="#7ccbeb" stroke-width="2" stroke-linecap="round"/><path d="M98.55336,236.10267l0.3,0.3" data-paper-data="{&quot;origPos&quot;:null}" id="ID0.05295181553810835" fill="none" stroke="#8ad8f0" stroke-width="2" stroke-linecap="round"/><path d="M94.35336,239.65267l-0.3,-0.3" data-paper-data="{&quot;origPos&quot;:null}" id="ID0.05987188359722495" fill="none" stroke="#8ad8f0" stroke-width="2" stroke-linecap="round"/><path d="M99.10336,242.40267l-0.3,-0.3" data-paper-data="{&quot;origPos&quot;:null}" id="ID0.588753295596689" fill="none" stroke="#93e0f4" stroke-width="2" stroke-linecap="round"/><path d="M95.35336,246.40267l-0.3,-0.3" data-paper-data="{&quot;origPos&quot;:null}" id="ID0.9863094626925886" fill="none" stroke="#9ae6f6" stroke-width="2" stroke-linecap="round"/><path d="M99.55336,249.85267l0.3,0.3" data-paper-data="{&quot;origPos&quot;:null}" id="ID0.7813720102421939" fill="none" stroke="#b0faff" stroke-width="2" stroke-linecap="round"/><path d="M93.30336,252.10267l0.3,0.3" data-paper-data="{&quot;origPos&quot;:null}" id="ID0.8387309391982853" fill="none" stroke="#b0faff" stroke-width="2" stroke-linecap="round"/><path d="M87.60336,251.65267l-0.3,-0.3" data-paper-data="{&quot;origPos&quot;:null}" id="ID0.9414228750392795" fill="none" stroke="#b0faff" stroke-width="2" stroke-linecap="round"/><path d="M87.05336,255.85267l0.3,0.3" data-paper-data="{&quot;origPos&quot;:null}" id="ID0.457717998418957" fill="none" stroke="#b0faff" stroke-width="2" stroke-linecap="round"/><path d="M81.35336,254.40267l-0.3,-0.3" data-paper-data="{&quot;origPos&quot;:null}" id="ID0.3906590547412634" fill="none" stroke="#b0faff" stroke-width="2" stroke-linecap="round"/><path d="M77.35336,249.40267l-0.3,-0.3" data-paper-data="{&quot;origPos&quot;:null}" id="ID0.10809051897376776" fill="none" stroke="#b0faff" stroke-width="2" stroke-linecap="round"/><path d="M82.30336,248.10267l0.3,0.3" data-paper-data="{&quot;origPos&quot;:null}" id="ID0.23494144016876817" fill="none" stroke="#b0faff" stroke-width="2" stroke-linecap="round"/><path d="M103.60336,247.90267l-0.3,-0.3" data-paper-data="{&quot;origPos&quot;:null}" id="ID0.5408836966380477" fill="none" stroke="#b0faff" stroke-width="2" stroke-linecap="round"/><path d="M106.10336,238.65267l-0.3,-0.3" data-paper-data="{&quot;origPos&quot;:null}" id="ID0.2394651803188026" fill="none" stroke="#8ad8f0" stroke-width="2" stroke-linecap="round"/><path d="M103.60336,242.90267l-0.3,-0.3" data-paper-data="{&quot;origPos&quot;:null}" id="ID0.9916556524112821" fill="none" stroke="#93e0f4" stroke-width="2" stroke-linecap="round"/><path d="M239.10336,226.40267l-0.3,-0.3" data-paper-data="{&quot;origPos&quot;:null}" id="ID0.42014424642547965" fill="none" stroke="#72c2e7" stroke-width="2" stroke-linecap="round"/><path d="M247.35336,225.90267l-0.3,-0.3" data-paper-data="{&quot;origPos&quot;:null}" id="ID0.22169578168541193" fill="none" stroke="#72c2e7" stroke-width="2" stroke-linecap="round"/><path d="M242.05336,235.10267l0.3,0.3" data-paper-data="{&quot;origPos&quot;:null}" id="ID0.48782738484442234" fill="none" stroke="#94e1f4" stroke-width="2" stroke-linecap="round"/><path d="M246.80336,231.60267l0.3,0.3" data-paper-data="{&quot;origPos&quot;:null}" id="ID0.1280678086914122" fill="none" stroke="#88d6f0" stroke-width="2" stroke-linecap="round"/><path d="M253.05336,233.60267l0.3,0.3" data-paper-data="{&quot;origPos&quot;:null}" id="ID0.9404324968345463" fill="none" stroke="#94e1f4" stroke-width="2" stroke-linecap="round"/><path d="M257.10336,227.15267l-0.3,-0.3" data-paper-data="{&quot;origPos&quot;:null}" id="ID0.021309853065758944" fill="none" stroke="#72c2e7" stroke-width="2" stroke-linecap="round"/><path d="M266.10336,224.40267l-0.3,-0.3" data-paper-data="{&quot;origPos&quot;:null}" id="ID0.9753020219504833" fill="none" stroke="#72c2e7" stroke-width="2" stroke-linecap="round"/><path d="M266.05336,230.60267l0.3,0.3" data-paper-data="{&quot;origPos&quot;:null}" id="ID0.40473376074805856" fill="none" stroke="#88d6f0" stroke-width="2" stroke-linecap="round"/><path d="M262.35336,234.40267l-0.3,-0.3" data-paper-data="{&quot;origPos&quot;:null}" id="ID0.7319698031060398" fill="none" stroke="#94e1f4" stroke-width="2" stroke-linecap="round"/><path d="M277.55336,235.35267l0.3,0.3" data-paper-data="{&quot;origPos&quot;:null}" id="ID0.9104511672630906" fill="none" stroke="#94e1f4" stroke-width="2" stroke-linecap="round"/><path d="M277.60336,228.90267l-0.3,-0.3" data-paper-data="{&quot;origPos&quot;:null}" id="ID0.9091563373804092" fill="none" stroke="#88d6f0" stroke-width="2" stroke-linecap="round"/><path d="M282.30336,222.35267l0.3,0.3" data-paper-data="{&quot;origPos&quot;:null}" id="ID0.9194171749986708" fill="none" stroke="#72c2e7" stroke-width="2" stroke-linecap="round"/><path d="M282.30336,237.35267l0.3,0.3" data-paper-data="{&quot;origPos&quot;:null}" id="ID0.1918188980780542" fill="none" stroke="#94e1f4" stroke-width="2" stroke-linecap="round"/><path d="M292.80336,227.35267l0.3,0.3" data-paper-data="{&quot;origPos&quot;:null}" id="ID0.09547013137489557" fill="none" stroke="#88d6f0" stroke-width="2" stroke-linecap="round"/><path d="M288.60336,229.40267l-0.3,-0.3" data-paper-data="{&quot;origPos&quot;:null}" id="ID0.2871633372269571" fill="none" stroke="#88d6f0" stroke-width="2" stroke-linecap="round"/><path d="M326.05336,240.10267l0.3,0.3" data-paper-data="{&quot;origPos&quot;:null}" id="ID0.8174936231225729" fill="none" stroke="#9be7f7" stroke-width="2" stroke-linecap="round"/><path d="M331.10336,235.65267l-0.3,-0.3" data-paper-data="{&quot;origPos&quot;:null}" id="ID0.41062508430331945" fill="none" stroke="#94e1f4" stroke-width="2" stroke-linecap="round"/><path d="M331.05336,240.85267l0.3,0.3" data-paper-data="{&quot;origPos&quot;:null}" id="ID0.5514435353688896" fill="none" stroke="#9be7f7" stroke-width="2" stroke-linecap="round"/><path d="M334.60336,231.40267l-0.3,-0.3" data-paper-data="{&quot;origPos&quot;:null}" id="ID0.6676767878234386" fill="none" stroke="#88d6f0" stroke-width="2" stroke-linecap="round"/><path d="M340.35336,231.40267l-0.3,-0.3" data-paper-data="{&quot;origPos&quot;:null}" id="ID0.1600186857394874" fill="none" stroke="#88d6f0" stroke-width="2" stroke-linecap="round"/><path d="M348.10336,232.65267l-0.3,-0.3" data-paper-data="{&quot;origPos&quot;:null}" id="ID0.4089344306848943" fill="none" stroke="#94e1f4" stroke-width="2" stroke-linecap="round"/><path d="M343.30336,228.35267l0.3,0.3" data-paper-data="{&quot;origPos&quot;:null}" id="ID0.15855511417612433" fill="none" stroke="#88d6f0" stroke-width="2" stroke-linecap="round"/><path d="M350.55336,238.85267l0.3,0.3" data-paper-data="{&quot;origPos&quot;:null}" id="ID0.6612030696123838" fill="none" stroke="#9be7f7" stroke-width="2" stroke-linecap="round"/><path d="M355.55336,237.60267l0.3,0.3" data-paper-data="{&quot;origPos&quot;:null}" id="ID0.6980914147570729" fill="none" stroke="#9be7f7" stroke-width="2" stroke-linecap="round"/><path d="M354.60336,233.40267l-0.3,-0.3" data-paper-data="{&quot;origPos&quot;:null}" id="ID0.7011006963439286" fill="none" stroke="#94e1f4" stroke-width="2" stroke-linecap="round"/><path d="M385.10336,238.15267l-0.3,-0.3" data-paper-data="{&quot;origPos&quot;:null}" id="ID0.29149198019877076" fill="none" stroke="#94e1f4" stroke-width="2" stroke-linecap="round"/><path d="M378.35336,235.40267l-0.3,-0.3" data-paper-data="{&quot;origPos&quot;:null}" id="ID0.2503963699564338" fill="none" stroke="#94e1f4" stroke-width="2" stroke-linecap="round"/><path d="M377.80336,227.85267l0.3,0.3" data-paper-data="{&quot;origPos&quot;:null}" id="ID0.22835101373493671" fill="none" stroke="#72c2e7" stroke-width="2" stroke-linecap="round"/><path d="M384.05336,225.35267l0.3,0.3" data-paper-data="{&quot;origPos&quot;:null}" id="ID0.5760205201804638" fill="none" stroke="#72c2e7" stroke-width="2" stroke-linecap="round"/><path d="M388.85336,233.40267l-0.3,-0.3" data-paper-data="{&quot;origPos&quot;:null}" id="ID0.8916551279835403" fill="none" stroke="#94e1f4" stroke-width="2" stroke-linecap="round"/><path d="M397.80336,226.60267l0.3,0.3" data-paper-data="{&quot;origPos&quot;:null}" id="ID0.18290941836312413" fill="none" stroke="#72c2e7" stroke-width="2" stroke-linecap="round"/><path d="M403.60336,222.40267l-0.3,-0.3" data-paper-data="{&quot;origPos&quot;:null}" id="ID0.1982335769571364" fill="none" stroke="#72c2e7" stroke-width="2" stroke-linecap="round"/><path d="M405.10336,228.40267l-0.3,-0.3" data-paper-data="{&quot;origPos&quot;:null}" id="ID0.166236390825361" fill="none" stroke="#72c2e7" stroke-width="2" stroke-linecap="round"/><path d="M397.35336,232.65267l-0.3,-0.3" data-paper-data="{&quot;origPos&quot;:null}" id="ID0.35241640359163284" fill="none" stroke="#94e1f4" stroke-width="2" stroke-linecap="round"/><path d="M380.60336,216.40267l-0.3,-0.3" data-paper-data="{&quot;origPos&quot;:null}" id="ID0.5104196779429913" fill="none" stroke="#54a7dc" stroke-width="2" stroke-linecap="round"/><path d="M371.35336,213.65267l-0.3,-0.3" data-paper-data="{&quot;origPos&quot;:null}" id="ID0.10381529992446303" fill="none" stroke="#54a7dc" stroke-width="2" stroke-linecap="round"/><path d="M324.55336,215.60267l0.3,0.3" data-paper-data="{&quot;origPos&quot;:null}" id="ID0.07017018646001816" fill="none" stroke="#54a7dc" stroke-width="2" stroke-linecap="round"/><path d="M328.10336,209.90267l-0.3,-0.3" data-paper-data="{&quot;origPos&quot;:null}" id="ID0.48270123079419136" fill="none" stroke="#4fa3da" stroke-width="2" stroke-linecap="round"/><path d="M334.05336,219.10267l0.3,0.3" data-paper-data="{&quot;origPos&quot;:null}" id="ID0.4168377760797739" fill="none" stroke="#72c2e7" stroke-width="2" stroke-linecap="round"/><path d="M339.05336,224.35267l0.3,0.3" data-paper-data="{&quot;origPos&quot;:null}" id="ID0.2979034804739058" fill="none" stroke="#72c2e7" stroke-width="2" stroke-linecap="round"/><path d="M345.85336,217.90267l-0.3,-0.3" data-paper-data="{&quot;origPos&quot;:null}" id="ID0.4660600977949798" fill="none" stroke="#54a7dc" stroke-width="2" stroke-linecap="round"/><path d="M351.30336,211.10267l0.3,0.3" data-paper-data="{&quot;origPos&quot;:null}" id="ID0.11013553803786635" fill="none" stroke="#54a7dc" stroke-width="2" stroke-linecap="round"/><path d="M353.05336,216.85267l0.3,0.3" data-paper-data="{&quot;origPos&quot;:null}" id="ID0.6056974972598255" fill="none" stroke="#54a7dc" stroke-width="2" stroke-linecap="round"/><path d="M301.30336,218.85267l0.3,0.3" data-paper-data="{&quot;origPos&quot;:null}" id="ID0.13412669813260436" fill="none" stroke="#72c2e7" stroke-width="2" stroke-linecap="round"/><path d="M305.60336,208.90267l-0.3,-0.3" data-paper-data="{&quot;origPos&quot;:null}" id="ID0.4549560025334358" fill="none" stroke="#4fa3da" stroke-width="2" stroke-linecap="round"/><path d="M299.35336,204.90267l-0.3,-0.3" data-paper-data="{&quot;origPos&quot;:null}" id="ID0.7246163035742939" fill="none" stroke="#4fa3da" stroke-width="2" stroke-linecap="round"/><path d="M306.35336,215.90267l-0.3,-0.3" data-paper-data="{&quot;origPos&quot;:null}" id="ID0.7466701483353972" fill="none" stroke="#54a7dc" stroke-width="2" stroke-linecap="round"/><path d="M290.10336,218.65267l-0.3,-0.3" data-paper-data="{&quot;origPos&quot;:null}" id="ID0.49013361474499106" fill="none" stroke="#72c2e7" stroke-width="2" stroke-linecap="round"/><path d="M284.80336,213.60267l0.3,0.3" data-paper-data="{&quot;origPos&quot;:null}" id="ID0.9549365504644811" fill="none" stroke="#54a7dc" stroke-width="2" stroke-linecap="round"/><path d="M289.55336,210.85267l0.3,0.3" data-paper-data="{&quot;origPos&quot;:null}" id="ID0.3469667639583349" fill="none" stroke="#4fa3da" stroke-width="2" stroke-linecap="round"/><path d="M288.85336,202.15267l-0.3,-0.3" data-paper-data="{&quot;origPos&quot;:null}" id="ID0.9413825939409435" fill="none" stroke="#4fa3da" stroke-width="2" stroke-linecap="round"/><path d="M238.05336,217.85267l0.3,0.3" data-paper-data="{&quot;origPos&quot;:null}" id="ID0.6559168267995119" fill="none" stroke="#54a7dc" stroke-width="2" stroke-linecap="round"/><path d="M247.85336,217.65267l-0.3,-0.3" data-paper-data="{&quot;origPos&quot;:null}" id="ID0.300282534211874" fill="none" stroke="#54a7dc" stroke-width="2" stroke-linecap="round"/><path d="M175.80336,207.85267l0.3,0.3" data-paper-data="{&quot;origPos&quot;:null}" id="ID0.8013310446403921" fill="none" stroke="#4fa3da" stroke-width="2" stroke-linecap="round"/><path d="M181.35336,215.15267l-0.3,-0.3" data-paper-data="{&quot;origPos&quot;:null}" id="ID0.9165923274122179" fill="none" stroke="#54a7dc" stroke-width="2" stroke-linecap="round"/><path d="M163.60336,205.65267l-0.3,-0.3" data-paper-data="{&quot;origPos&quot;:null}" id="ID0.2983856596983969" fill="none" stroke="#4fa3da" stroke-width="2" stroke-linecap="round"/><path d="M152.80336,208.60267l0.3,0.3" data-paper-data="{&quot;origPos&quot;:null}" id="ID0.3981295060366392" fill="none" stroke="#4fa3da" stroke-width="2" stroke-linecap="round"/><path d="M160.10336,214.15267l-0.3,-0.3" data-paper-data="{&quot;origPos&quot;:null}" id="ID0.14021461037918925" fill="none" stroke="#54a7dc" stroke-width="2" stroke-linecap="round"/><path d="M155.60336,223.65267l-0.3,-0.3" data-paper-data="{&quot;origPos&quot;:null}" id="ID0.10421877400949597" fill="none" stroke="#72c2e7" stroke-width="2" stroke-linecap="round"/><path d="M121.80336,220.85267l0.3,0.3" data-paper-data="{&quot;origPos&quot;:null}" id="ID0.7923943987116218" fill="none" stroke="#6dbee5" stroke-width="2" stroke-linecap="round"/><path d="M123.30336,212.10267l0.3,0.3" data-paper-data="{&quot;origPos&quot;:null}" id="ID0.13212093664333224" fill="none" stroke="#4fa3da" stroke-width="2" stroke-linecap="round"/><path d="M133.80336,210.35267l0.3,0.3" data-paper-data="{&quot;origPos&quot;:null}" id="ID0.148838572204113" fill="none" stroke="#4fa3da" stroke-width="2" stroke-linecap="round"/><path d="M115.30336,220.85267l0.3,0.3" data-paper-data="{&quot;origPos&quot;:null}" id="ID0.8713282831013203" fill="none" stroke="#6dbee5" stroke-width="2" stroke-linecap="round"/><path d="M76.85335,234.40267l-0.3,-0.3" data-paper-data="{&quot;origPos&quot;:null}" id="ID0.4100715424865484" fill="none" stroke="#7ccbeb" stroke-width="2" stroke-linecap="round"/><path d="M83.30335,233.85267l0.3,0.3" data-paper-data="{&quot;origPos&quot;:null}" id="ID0.4702699091285467" fill="none" stroke="#7ccbeb" stroke-width="2" stroke-linecap="round"/><path d="M72.55336,228.10267l0.3,0.3" data-paper-data="{&quot;origPos&quot;:null}" id="ID0.2133310125209391" fill="none" stroke="#6dbee5" stroke-width="2" stroke-linecap="round"/><path d="M80.55336,221.60267l0.3,0.3" data-paper-data="{&quot;origPos&quot;:null}" id="ID0.9358747429214418" fill="none" stroke="#6dbee5" stroke-width="2" stroke-linecap="round"/><path d="M82.05336,227.10267l0.3,0.3" data-paper-data="{&quot;origPos&quot;:null}" id="ID0.6573073593899608" fill="none" stroke="#6dbee5" stroke-width="2" stroke-linecap="round"/><path d="M90.35336,218.40267l-0.3,-0.3" data-paper-data="{&quot;origPos&quot;:null}" id="ID0.4531853240914643" fill="none" stroke="#6dbee5" stroke-width="2" stroke-linecap="round"/><path d="M98.35336,222.15267l-0.3,-0.3" data-paper-data="{&quot;origPos&quot;:null}" id="ID0.12073744973167777" fill="none" stroke="#6dbee5" stroke-width="2" stroke-linecap="round"/><path d="M240.86136,202.91717l0.5883,-4.0745l0.796,4.3096l1.2112,2.429l1.1075,1.5671l3.8759,0.7052l-3.7029,1.4495l-1.6265,2.3507l-0.623,2.4682l-0.7613,2.8207l-0.7614,-2.7424l-1.142,-2.7424l-1.5573,-2.0372l-3.1146,-1.097l3.1838,-1.097l1.7304,-1.8413z" data-paper-data="{&quot;origPos&quot;:null}" id="ID0.2795926104299724" fill="url(#color-17)" stroke="none" stroke-width="0.73926" stroke-linecap="round"/><path d="M118.74046,228.48567l-0.1185,-4.1027l1.3062,4.1611l1.3712,2.2495l1.1561,1.4103l3.3327,0.2099l-2.8668,1.8989l-1.0034,2.5288l-0.1502,2.5189l-0.2127,2.8849l-1.0435,-2.616l-1.3604,-2.5681l-1.6009,-1.8186l-2.7572,-0.693l2.4873,-1.485l1.1658,-2.0383z" data-paper-data="{&quot;origPos&quot;:null}" id="ID0.2795926104299724" fill="url(#color-18)" stroke="none" stroke-width="0.69053" stroke-linecap="round"/><path d="M380.16496,241.64747l1.3845,-3.3886l-0.0823,3.9025l0.6967,2.3709l0.7671,1.6028l3.6366,1.4795l-3.897,0.4212l-2.0529,1.6661l-1.0984,1.9929l-1.3036,2.2665l-0.1959,-2.5407l-0.5668,-2.6262l-1.112,-2.11l-2.8167,-1.6472l3.3209,-0.233l2.0528,-1.2026z" data-paper-data="{&quot;origPos&quot;:null}" id="ID0.2795926104299724" fill="url(#color-19)" stroke="none" stroke-width="0.69347" stroke-linecap="round"/><path d="M306.41486,228.39987l0.3101,-3.6396l0.9708,3.7679l1.2455,2.0797l1.1021,1.3231l3.5892,0.4007l-3.3098,1.4962l-1.3577,2.1739l-0.4319,2.2202l-0.539,2.5401l-0.8511,-2.383l-1.1998,-2.3612l-1.5404,-1.7131l-2.9139,-0.7913l2.8541,-1.1542l1.4814,-1.7293z" data-paper-data="{&quot;origPos&quot;:null}" id="ID0.2795926104299724" fill="url(#color-20)" stroke="none" stroke-width="0.66563" stroke-linecap="round"/><path d="M279.96326,104.11157l0.554,-3.8367l0.7495,4.058l1.1406,2.2873l1.0428,1.4756l3.6497,0.6641l-3.4868,1.365l-1.5316,2.2134l-0.5866,2.3242l-0.7169,2.6561l-0.7169,-2.5823l-1.0754,-2.5824l-1.4664,-1.9184l-2.9329,-1.0329l2.9981,-1.033l1.6293,-1.7339z" data-paper-data="{&quot;origPos&quot;:null}" id="ID0.2795926104299724" fill="url(#color-21)" stroke="none" stroke-width="0.69612" stroke-linecap="round"/></g></g></g></svg>