<svg version="1.1" xmlns="http://www.w3.org/2000/svg" xmlns:xlink="http://www.w3.org/1999/xlink" width="156.11929" height="185.0577" viewBox="0,0,156.11929,185.0577"><defs><linearGradient x1="205.94657" y1="208.02071" x2="219.62883" y2="244.32513" gradientUnits="userSpaceOnUse" id="color-1"><stop offset="0" stop-color="#8d6431"/><stop offset="1" stop-color="#ac793c"/></linearGradient><linearGradient x1="208.63704" y1="251.01511" x2="246.76661" y2="258.19693" gradientUnits="userSpaceOnUse" id="color-2"><stop offset="0" stop-color="#8d6431"/><stop offset="1" stop-color="#ac793c"/></linearGradient><linearGradient x1="244.96964" y1="170.90759" x2="244.96964" y2="224.28189" gradientUnits="userSpaceOnUse" id="color-3"><stop offset="0" stop-color="#4f6af7"/><stop offset="1" stop-color="#4758dd"/></linearGradient><linearGradient x1="274.94599" y1="119.13053" x2="274.94599" y2="132.45389" gradientUnits="userSpaceOnUse" id="color-4"><stop offset="0" stop-color="#349fc7"/><stop offset="1" stop-color="#297299"/></linearGradient><linearGradient x1="255.21855" y1="111.7076" x2="255.21855" y2="129.72296" gradientUnits="userSpaceOnUse" id="color-5"><stop offset="0" stop-color="#349fc7"/><stop offset="1" stop-color="#308fb6"/></linearGradient></defs><g transform="translate(-163.03422,-85.16498)"><g data-paper-data="{&quot;isPaintingLayer&quot;:true}" fill="none" fill-rule="nonzero" stroke="none" stroke-width="none" stroke-linecap="none" stroke-linejoin="miter" stroke-miterlimit="10" stroke-dasharray="" stroke-dashoffset="0" font-family="none" font-weight="none" font-size="none" text-anchor="none" style="mix-blend-mode: normal"><g data-paper-data="{&quot;origPos&quot;:null,&quot;origRot&quot;:0}" stroke="none" stroke-linecap="butt"><g data-paper-data="{&quot;origPos&quot;:null,&quot;index&quot;:null,&quot;origRot&quot;:0}" stroke-width="0"><path d="M257.40455,189.83147c-2.80062,-4.51813 2.53584,-13.66214 10.80933,-18.79057c8.27349,-5.12841 16.90388,-8.76778 16.90388,-8.76778l8.56003,13.46213c0,0 -11.95635,9.60297 -18.61079,13.7278c-8.27349,5.12841 -14.8618,4.88654 -17.66243,0.36841z" data-paper-data="{&quot;origRot&quot;:0,&quot;origPos&quot;:null}" fill="#41c3ff"/><g data-paper-data="{&quot;origPos&quot;:null}" fill="#ffffff"><path d="M294.0809,167.04063c-5.30706,-7.74504 -11.4435,-17.6221 -2.96657,-22.72963c6.14969,-3.70532 20.0273,-1.19484 23.47678,7.53737c3.76416,9.52883 8.64584,17.42188 -1.37149,22.23592c-9.35351,4.49502 -13.83165,0.70137 -19.13873,-7.04366z" data-paper-data="{&quot;origRot&quot;:0,&quot;origPos&quot;:null}"/><path d="M286.90782,170.40649c-4.0895,-5.985 -9.92268,-12.01592 -5.08104,-14.78697c5.41632,-3.09996 6.17388,-1.3328 12.61507,8.6127c7.3377,11.32978 10.52183,11.72553 4.75055,15.41209c-3.37003,2.15271 -8.19508,-3.25283 -12.28459,-9.23782z" data-paper-data="{&quot;origRot&quot;:0,&quot;origPos&quot;:null}"/></g></g><path d="M313.93067,158.34993l-7.4151,4.46871l-0.85608,7.80993l-4.70203,-6.58711l-7.87011,1.90475l4.07934,-7.05907l-5.4272,-7.6014l8.77718,2.65382l6.03374,-5.85356l-0.37993,8.35171z" data-paper-data="{&quot;origPos&quot;:null,&quot;origRot&quot;:0}" fill="#ffe008" stroke-width="NaN"/></g><g data-paper-data="{&quot;origPos&quot;:null,&quot;origRot&quot;:0}" stroke="none" stroke-width="0" stroke-linecap="butt"><path d="M230.02173,229.1928c-4.04043,2.13385 -3.50769,7.56918 -4.50599,7.8517c-4.03913,1.14304 -7.51727,0.57457 -12.16339,-4.855c-5.75527,-6.72573 -8.03667,-13.03985 -7.15533,-21.84791c0.60027,-5.99906 4.90664,-2.94864 10.90723,-3.53345c2.15318,-0.20984 4.80125,-0.84973 9.92818,-2.65785c6.41,-2.26062 25.1052,-5.47633 25.1052,-5.47633c0,0 3.12016,6.63574 4.37875,11.57493c0.99327,3.89795 7.99602,7.48049 7.99602,7.48049c0,0 -25.15074,6.53075 -34.49066,11.4634z" data-paper-data="{&quot;origPos&quot;:null}" fill="#4758dd"/><path d="M212.85062,244.97916c-3.54172,1.62926 -6.86833,-1.2071 -9.37879,-4.18968c-1.64521,-1.95463 -6.32049,-12.95449 -5.64352,-19.79159c0.21018,-2.12262 1.80878,-4.50332 1.80878,-4.50332c0,0 -2.79496,-4.25838 -1.46549,-4.85404c1.05535,-0.47284 2.83214,-1.32223 3.84563,-0.55507c4.36258,3.30223 9.13158,13.68396 11.4182,18.65469c3.13903,6.82369 2.87718,13.64643 -0.58484,15.23903z" data-paper-data="{&quot;origPos&quot;:null}" fill="#f8dca0"/><path d="M218.08713,244.64459c-4.71671,0.6656 -9.58866,-2.12038 -13.13738,-9.83467c-3.54872,-7.71428 -2.87065,-18.02486 -2.87065,-18.02486c0,0 -2.86313,-5.44958 -1.48224,-6.22172c2.85809,-1.59813 7.67248,-3.87753 8.34707,-2.82782c2.49036,3.87523 1.56937,3.35085 5.22067,8.23666c2.36404,3.16331 8.40372,7.48673 10.05412,11.07442c3.54872,7.71428 1.63458,16.50208 -6.13159,17.59801z" data-paper-data="{&quot;origPos&quot;:null}" fill="url(#color-1)"/></g><g data-paper-data="{&quot;origPos&quot;:null,&quot;origRot&quot;:0}" stroke="none" stroke-width="0" stroke-linecap="butt"><path d="M239.29374,241.47867c-0.295,4.55975 4.61601,6.94901 4.33457,7.94762c-1.13876,4.04034 -3.44269,6.70726 -10.50058,7.8267c-8.74275,1.38668 -15.31748,0.02804 -22.36322,-5.33071c-4.79876,-3.64978 0.0537,-5.72422 2.69429,-11.14422c0.94752,-1.94484 1.7874,-4.53643 2.92838,-9.85178c1.42651,-6.64557 8.46559,-24.26097 8.46559,-24.26097c0,0 7.28759,0.81205 12.15548,2.32315c3.84167,1.19254 10.04258,5.5975 10.04258,5.5975c0,0 -7.07518,16.35229 -7.75711,26.89271z" data-paper-data="{&quot;origPos&quot;:null}" fill="#4758dd"/><path d="M243.76543,264.37103c-0.46416,3.87077 -4.62168,5.22217 -8.47688,5.80151c-2.52649,0.37966 -14.34696,-1.38993 -19.81984,-5.54348c-1.69909,-1.2895 -2.89181,-3.89732 -2.89181,-3.89732c0,0 -5.09134,0.15443 -4.90354,-1.29023c0.14909,-1.14679 0.35464,-3.10541 1.53863,-3.56785c5.09649,-1.99063 16.43919,-0.62424 21.87172,0.02721c7.45766,0.89429 13.13545,4.68651 12.68173,8.47017z" data-paper-data="{&quot;origPos&quot;:null}" fill="#f8dca0"/><path d="M246.21957,259.73312c-1.90012,4.36807 -6.82308,7.06287 -15.25406,6.05186c-8.43098,-1.01101 -16.86359,-6.9825 -16.86359,-6.9825c0,0 -6.14223,-0.4106 -6.07792,-1.99141c0.13308,-3.27184 0.70889,-8.56736 1.95642,-8.59317c4.60546,-0.09525 3.67677,0.41536 9.7508,-0.14068c3.93263,-0.36001 10.77676,-3.24577 14.69776,-2.77557c8.43098,1.01101 14.91919,7.23937 11.79062,14.43148z" data-paper-data="{&quot;origPos&quot;:null}" fill="url(#color-2)"/></g><g data-paper-data="{&quot;origPos&quot;:null}"><path d="M270.72766,194.07829c0.39163,21.17353 -7.36176,30.41297 -28.3,30.2c-21.9365,-0.22312 -23.2,-12.78796 -23.2,-22.95c0,-11.02412 -0.93148,-20.04986 7.57136,-27.06648c6.33487,-5.22759 13.21535,-2.78352 21.42864,-2.78352c15.18783,0 22.11612,1.84521 22.5,22.6z" data-paper-data="{&quot;origPos&quot;:null}" fill="url(#color-3)" stroke="none" stroke-width="0" stroke-linecap="butt"/><path d="M270.97766,193.47829c0,0 -17.24385,2 -29.4,2.4c-11.15011,0.36689 -22.4,-3.4 -22.4,-3.4c0,0 -0.98648,-13.79564 6.98462,-19.16002c5.21526,-3.50975 11.08038,-4.65914 18.61538,-4.83998c7.535,-0.18084 15.72889,2.13912 19.52206,5.21215c8.95988,7.25886 6.67794,19.78785 6.67794,19.78785z" data-paper-data="{&quot;origPos&quot;:null}" fill="#41c3ff" stroke="none" stroke-width="0" stroke-linecap="butt"/><path d="M257.08547,172.3696c0,0 2.14029,6.84028 2.57206,10.95319c0.55457,5.28272 -0.57997,15.20846 -0.57997,15.20846" data-paper-data="{&quot;origPos&quot;:null,&quot;origRot&quot;:0}" fill="none" stroke="#5063f7" stroke-width="10" stroke-linecap="round"/><path d="M235.57766,172.87829c0,0 1.23985,7.05925 1.13735,11.19349c-0.13165,5.31011 -2.53735,15.00651 -2.53735,15.00651" data-paper-data="{&quot;origPos&quot;:null}" fill="none" stroke="#5063f7" stroke-width="10" stroke-linecap="round"/><path d="M231.96113,202.69229l0.47856,-4.16533l-2.74233,-2.63761l3.91676,0.14425l1.59649,-3.58172l1.50128,3.65183l4.5202,0.16603l-3.61311,2.58175l0.46103,4.045l-3.09091,-2.61517z" data-paper-data="{&quot;origPos&quot;:null,&quot;origRot&quot;:0}" fill="#ffe008" stroke="none" stroke-width="NaN" stroke-linecap="butt"/><path d="M257.35407,202.45039l-0.09884,-4.19156l-3.07901,-2.23539l3.89937,-0.39579l1.08873,-3.76726l1.98925,3.41067l4.50007,-0.45721l-3.2237,3.05412l1.01296,3.94315l-3.4212,-2.16523z" data-paper-data="{&quot;origPos&quot;:null,&quot;origRot&quot;:0}" fill="#ffe008" stroke="none" stroke-width="NaN" stroke-linecap="butt"/></g><g data-paper-data="{&quot;origPos&quot;:null,&quot;origRot&quot;:0}" stroke="none" stroke-linecap="butt"><g data-paper-data="{&quot;origPos&quot;:null}" stroke-width="0"><path d="M192.59425,188.71335l1.47605,-15.88473c0,0 9.34027,-0.69856 19.04223,0.09083c9.70196,0.78937 18.10061,12.16893 17.66952,17.46717c-0.43107,5.29823 -5.60195,-0.50736 -15.30392,-1.29673z" data-paper-data="{&quot;origRot&quot;:0,&quot;origPos&quot;:null}" fill="#41c3ff"/><g data-paper-data="{&quot;origPos&quot;:null}" fill="#ffffff"><path d="M174.45116,196.15906c-11.11034,0.28593 -10.367,-8.96493 -11.36435,-19.16165c-0.91397,-9.34424 10.29018,-17.90915 17.45301,-17.41731c9.87347,0.67796 8.91863,12.26678 7.72922,21.57998c-1.18941,9.3132 -3.44379,14.73201 -13.81789,14.99899z" data-paper-data="{&quot;origRot&quot;:0,&quot;origPos&quot;:null}"/><path d="M189.47015,194.7077c-6.81755,-0.64778 -4.16458,-2.45255 -2.80349,-15.8821c1.1948,-11.78873 1.06277,-13.70688 7.29683,-13.41918c5.57262,0.25717 3.13305,8.28504 2.22423,15.47657c-0.90883,7.19153 -2.73661,14.20298 -6.71757,13.82471z" data-paper-data="{&quot;origRot&quot;:0,&quot;origPos&quot;:null}"/></g></g><path d="M168.99949,169.53196l8.35191,2.28001l6.2415,-4.77196l-1.5199,7.94916l6.81098,4.37916l-7.92332,1.9216l-1.75315,9.174l-4.139,-8.18231l-8.40028,-0.32461l6.30478,-5.49046z" data-paper-data="{&quot;origPos&quot;:null,&quot;origRot&quot;:0}" fill="#ffe008" stroke-width="NaN"/></g><path d="M287.89953,123.85389c-0.56793,3.79329 -11.88998,8.6 -20.8,8.6c-7.1797,0 -5.4,-6.75492 -5.4,-10.4c0,-3.64508 14.0703,-2.85 21.25,-2.85c7.1797,0 5.31761,2.19464 4.95,4.65z" data-paper-data="{&quot;origPos&quot;:null}" fill="url(#color-4)" stroke="none" stroke-width="0" stroke-linecap="butt"/><path d="M212.74262,165.23551c-1.88302,-1.368 -2.34219,-3.637 -0.85476,-6.37559c1.72578,-3.17745 1.08123,-8.21818 2.96425,-6.85018c0,0 7.23293,1.02169 7.79114,3.9154c0,0 3.0507,8.35652 1.80057,9.69315c0,0 -1.78179,1.32182 -6.42716,1.10231c-2.51693,-0.11893 -3.39102,-0.11707 -5.27403,-1.48508z" data-paper-data="{&quot;origRot&quot;:0,&quot;origPos&quot;:null}" fill="#e7be7a" stroke="none" stroke-width="0" stroke-linecap="butt"/><path d="M219.48286,126.13722c4.31396,1.0071 37.24301,-2.16822 43.0368,-1.8462c8.57182,0.47642 6.20204,8.21361 6.80713,16.77732c0.69572,9.84642 7.56286,14.33038 4.11388,23.57918c-1.32977,3.56593 -5.57109,6.18206 -8.56062,8.53723c-1.69594,1.33607 -4.01231,5.30061 -14.80054,5.5225c-18.91647,-3.76969 -24.18277,-8.72429 -27.36091,-12.69741c-3.28722,-3.79189 -1.91707,-5.03225 -5.0923,-9.83925c-0.97333,-1.47352 -2.12747,-2.25956 -2.322,-2.25956c-10.37042,0 -16.07143,-8.56649 -16.07143,-16.66666c0,-8.10018 3.70101,-14.66666 9.5,-14.66666c5.79899,0 9.25,3.20935 10.75,3.55952z" data-paper-data="{&quot;origPos&quot;:null}" fill="#ffdebd" stroke="none" stroke-width="0" stroke-linecap="butt"/><path d="M267.66619,131.34363c0.35235,4.88885 -1.81808,9.02906 -4.84779,9.24741c-3.02971,0.21836 -5.7714,-3.56782 -6.12375,-8.45666c-0.35235,-4.88885 1.81808,-9.02905 4.84779,-9.24741c3.02971,-0.21836 5.77141,3.56782 6.12376,8.45666z" data-paper-data="{&quot;origPos&quot;:null,&quot;origRot&quot;:0}" fill="#ffffff" stroke="none" stroke-width="0" stroke-linecap="butt"/><path d="M229.89286,133.9607c0,2.60849 3.85805,10.02393 1.51211,11.16446c-2.72909,1.32681 -3.54387,-2.9338 -7.19783,-2.25017c-2.71433,0.50783 -4.45714,-4.78172 -4.45714,-9.2c0,-4.41828 -0.01669,-8.69821 2.74286,-8.8c11.61857,-0.42857 7.4,4.66744 7.4,9.08571z" data-paper-data="{&quot;origPos&quot;:null}" fill="#e7be7a" stroke="none" stroke-width="0" stroke-linecap="butt"/><path d="M254.64298,136.34835c0.57094,4.86816 -1.41189,9.10142 -4.42877,9.45524c-3.01689,0.35383 -5.92541,-3.30577 -6.49635,-8.17393c-0.57094,-4.86816 1.41189,-9.10142 4.42877,-9.45524c3.01689,-0.35383 5.92541,3.30577 6.49635,8.17393z" data-paper-data="{&quot;origPos&quot;:null,&quot;origRot&quot;:0}" fill="#ffffff" stroke="none" stroke-width="0" stroke-linecap="butt"/><path d="M249.7875,135.06142c0.58983,0 1.12389,0.23527 1.51112,0.61508c0.38661,0.37981 0.62638,0.90451 0.62638,1.4837c0,0.57919 -0.23977,1.10389 -0.62638,1.4837c-0.38723,0.37981 -0.92129,0.61508 -1.51112,0.61508c-0.58983,0 -1.12389,-0.23527 -1.51112,-0.61508c-0.38661,-0.37981 -0.62638,-0.90451 -0.62638,-1.4837c0,-0.57919 0.23977,-1.10389 0.62638,-1.4837c0.38723,-0.37981 0.92129,-0.61508 1.51112,-0.61508z" data-paper-data="{&quot;origPos&quot;:null}" id="ID0.2989244391210377" fill="#000000" stroke="#ffe008" stroke-width="0.5" stroke-linecap="butt"/><path d="M273.79348,96.82854c2.39648,14.94461 -0.49216,15.79448 -8.52168,20.57884c-11.69967,6.97121 -27.00365,5.55994 -39.50062,10.97342c-3.28137,1.42143 -11.64483,-2.03217 -15.22084,-2.03217c-7.31398,0 -11.44089,-5.22725 -11.74313,-11.45342c-0.66666,-13.7335 6.09582,-13.78676 13.4098,-13.78676c0,0 8.04926,1.33414 10.82961,5.60456c0,0 11.19763,-18.21899 23.00151,-20.46979c15.1949,-2.89741 26.02436,-0.14688 27.74535,10.58532z" data-paper-data="{&quot;origPos&quot;:null}" fill="#41c3ff" stroke="none" stroke-width="0" stroke-linecap="butt"/><path d="M270.89953,105.35389c0,5.46762 -1.46317,9.58116 -12.2,9.9c-11.33464,0.33659 -12.2,-4.43238 -12.2,-9.9c0,-5.46762 5.46212,-9.9 12.2,-9.9c6.73787,0 12.2,4.43238 12.2,9.9z" data-paper-data="{&quot;origPos&quot;:null}" fill="#ffffff" stroke="none" stroke-width="0" stroke-linecap="butt"/><path d="M288.29953,121.75389c-0.2,0.85848 -39.34284,6.5 -50.3,7.7c-5.32532,0.58322 -16.1,0.15848 -15.9,-0.7c0.73933,-3.1735 2.8049,-8.24498 7.9,-9.9c6.15716,-2 27.29511,-7.38005 43.10212,-7.1384c6.46182,0.09879 15.93721,6.8649 15.19788,10.0384z" data-paper-data="{&quot;origPos&quot;:null}" fill="url(#color-5)" stroke="none" stroke-width="0" stroke-linecap="butt"/><path d="M254.2034,111.59417l0.18849,-3.45889l5.09724,-0.74498l-1.45114,-1.76959l-3.62565,-0.45434l-1.99342,-3.01392l1.9556,-2.81852l7.89963,-1.24007l1.73259,3.27111l-7.32518,0.57178l4.13196,1.53006l3.06427,2.53879l0.28922,2.58669l-2.24917,1.64784z" data-paper-data="{&quot;origPos&quot;:null,&quot;origRot&quot;:0}" fill="#ffe008" stroke="none" stroke-width="0" stroke-linecap="butt"/><path d="M268.23037,169.54033c-3.21733,0.20214 -7.84599,-0.72468 -15.34899,-1.96359c-9.7284,-1.60637 -11.10928,-8.44609 -11.10928,-8.44609c0,0 -3.6461,-1.33232 -5.675,-2.475c-1.58811,-0.89443 0.32605,-6.49937 1.18005,-6.66272c4.97377,-0.95139 6.45569,3.43243 10.27828,5.49605c0,0 12.7819,4.20754 18.75328,3.86744c0,0 9.6388,-4.51103 12.62642,-4.31325c1.48172,0.09809 1.49141,3.20314 1.02397,4.7714c0,0 -1.29607,4.20023 -3.42128,5.67204c-2.1252,1.47181 -5.09013,3.85158 -8.30745,4.05371z" data-paper-data="{&quot;origPos&quot;:null}" fill="#e7be7a" stroke="none" stroke-width="0" stroke-linecap="butt"/><path d="M278.43042,148.98899c-0.5,6.61802 1.12741,11.125 -13.25,10.875c-6.62642,-0.11523 -13,-4.25698 -13,-10.125c0,-5.86802 6.3926,-13.11026 13,-13.625c9.62741,-0.75 14.04992,2.28715 13.25,12.875z" data-paper-data="{&quot;origPos&quot;:null}" fill="#ffdebd" stroke="none" stroke-width="0" stroke-linecap="butt"/><g data-paper-data="{&quot;origPos&quot;:null}" fill="none" stroke="#f6b09a" stroke-width="3.5" stroke-linecap="round"><path d="M205.60689,132.93213c0,0 2.96332,-1.72996 6.75499,1.19948c5.43788,4.2013 2.24501,11.37195 2.24501,11.37195" data-paper-data="{&quot;origPos&quot;:null}"/><path d="M214.32118,139.64644h-6" data-paper-data="{&quot;origPos&quot;:null}"/><path d="M212.46403,145.64644h1.28571" data-paper-data="{&quot;origPos&quot;:null}"/></g><path d="M245.01269,125.7013c-1.37576,0.41027 -1.31062,0.60464 -1.97844,1.87549c-0.68894,1.31106 -2.14657,2.99951 -2.14657,2.99951c0,0 -1.45833,-3.62706 -1.45833,-6.31945c0,-1.8281 0.99336,-5.0144 3.81107,-5.65344c9.53112,-0.32089 6.69401,8.65093 6.69401,8.65093c0,0 -3.4773,-2.0232 -4.92174,-1.55303z" data-paper-data="{&quot;origPos&quot;:null}" fill="#e7be7a" stroke="none" stroke-width="0" stroke-linecap="butt"/><path d="M262.27348,122.89526c-1.51641,0.08916 -4.01601,3.24146 -4.01601,3.24146c0,0 -5.91454,-7.31854 3.07681,-10.49674c2.85665,-0.43291 4.94393,2.17143 5.61082,3.87354c0.98219,2.50684 0.94752,6.41595 0.94752,6.41595c0,0 -1.97313,-1.04035 -3.09287,-2.00973c-1.0854,-0.93965 -1.09566,-1.14439 -2.52627,-1.02451z" data-paper-data="{&quot;origPos&quot;:null,&quot;index&quot;:null,&quot;origRot&quot;:0}" fill="#e7be7a" stroke="none" stroke-width="0" stroke-linecap="butt"/><path d="M263.03751,131.43642c0.58983,0 1.12388,0.23527 1.51112,0.61508c0.38661,0.37981 0.62638,0.90451 0.62638,1.4837c0,0.57919 -0.23978,1.10389 -0.62638,1.4837c-0.38723,0.37981 -0.92129,0.61507 -1.51112,0.61507c-0.58983,0 -1.12389,-0.23526 -1.51112,-0.61507c-0.38661,-0.37981 -0.62638,-0.90451 -0.62638,-1.4837c0,-0.57919 0.23977,-1.10389 0.62638,-1.4837c0.38723,-0.37981 0.92129,-0.61508 1.51112,-0.61508z" data-paper-data="{&quot;origPos&quot;:null}" id="ID0.2989244391210377" fill="#000000" stroke="#ffe008" stroke-width="0.5" stroke-linecap="butt"/></g></g></svg>