<svg version="1.1" xmlns="http://www.w3.org/2000/svg" xmlns:xlink="http://www.w3.org/1999/xlink" width="770.28617" height="197" viewBox="0,0,770.28617,197"><defs><linearGradient x1="-63.72938" y1="288.99825" x2="-63.31006" y2="344.99672" gradientUnits="userSpaceOnUse" id="color-1"><stop offset="0" stop-color="#c3e060"/><stop offset="1" stop-color="#6de01b"/></linearGradient><linearGradient x1="362.64312" y1="260" x2="362.64312" y2="435.00142" gradientUnits="userSpaceOnUse" id="color-2"><stop offset="0" stop-color="#bee061"/><stop offset="1" stop-color="#4ce01b"/></linearGradient></defs><g transform="translate(308.99998,-259)"><g data-paper-data="{&quot;isPaintingLayer&quot;:true}" fill-rule="nonzero" stroke-linejoin="miter" stroke-miterlimit="10" stroke-dasharray="" stroke-dashoffset="0" style="mix-blend-mode: normal"><path d="M-307.99998,310l486.79592,0.08163v49.91837h-486.79592z" id="ID0.29126935824751854" fill="#c06520" stroke="#763e13" stroke-width="2" stroke-linecap="butt"/><path d="M133.28053,344c0,-2.76142 2.22487,-5 4.96938,-5c2.74451,0 4.96938,2.23858 4.96938,5c0,2.76142 -2.22487,5 -4.96938,5c-2.74451,0 -4.96938,-2.23858 -4.96938,-5z" fill="#e0bb60" stroke="none" stroke-width="0.5" stroke-linecap="butt"/><path d="M58.73991,350c0,-2.76142 2.22487,-5 4.96938,-5c2.74451,0 4.96938,2.23858 4.96938,5c0,2.76142 -2.22487,5 -4.96938,5c-2.74451,0 -4.96938,-2.23858 -4.96938,-5z" fill="#e0bb60" stroke="none" stroke-width="0.5" stroke-linecap="butt"/><path d="M-0.89259,343c0,-2.76142 2.22487,-5 4.96938,-5c2.74451,0 4.96938,2.23858 4.96938,5c0,2.76142 -2.22487,5 -4.96938,5c-2.74451,0 -4.96938,-2.23858 -4.96938,-5z" fill="#e0bb60" stroke="none" stroke-width="0.5" stroke-linecap="butt"/><path d="M-93.32297,346c0,-2.76142 2.22487,-5 4.96938,-5c2.74451,0 4.96938,2.23858 4.96938,5c0,2.76142 -2.22487,5 -4.96938,5c-2.74451,0 -4.96938,-2.23858 -4.96938,-5z" fill="#e0bb60" stroke="none" stroke-width="0.5" stroke-linecap="butt"/><path d="M-187.74109,337c0,-2.76142 2.22487,-5 4.96938,-5c2.74451,0 4.96938,2.23858 4.96938,5c0,2.76142 -2.22487,5 -4.96938,5c-2.74451,0 -4.96938,-2.23858 -4.96938,-5z" fill="#e0bb60" stroke="none" stroke-width="0.5" stroke-linecap="butt"/><path d="M-239.4226,344c0,-2.76142 2.22487,-5 4.96938,-5c2.74451,0 4.96938,2.23858 4.96938,5c0,2.76142 -2.22487,5 -4.96938,5c-2.74451,0 -4.96938,-2.23858 -4.96938,-5z" fill="#e0bb60" stroke="none" stroke-width="0.5" stroke-linecap="butt"/><path d="M-299.0551,344c0,-2.76142 2.22487,-5 4.96938,-5c2.74451,0 4.96938,2.23858 4.96938,5c0,2.76142 -2.22487,5 -4.96938,5c-2.74451,0 -4.96938,-2.23858 -4.96938,-5z" fill="#e0bb60" stroke="none" stroke-width="0.5" stroke-linecap="butt"/><path d="M-304.22614,290.76927l482.05428,-0.54964l0.28455,41.99896l-9.13525,-7.93295l-9.98638,13.0739l-11.18943,-12.91796l-8.99299,11.06653l-8.82159,-10.93534l-12.67537,13.0937l-14.52821,-10.89329l-4.26478,12.03179l-14.19209,-9.89576l-11.02471,9.08143l-12.18283,-10.91059l-14.04233,10.10368l-10.18855,-11.92535l-11.99563,12.08872l-14.22204,-11.89565l-14.0573,8.10373l-9.15023,-9.93289l-11.98066,14.08866l-13.17617,-8.88837l-7.97718,12.04423l-14.19952,-10.88089l-14.06482,9.09634l-6.16258,-13.96245l-11.03219,8.08146l-11.17445,-10.91802l-16.02913,14.11843l-17.23967,-12.87341l-10.00134,11.07396l-13.18371,-9.90319l-14.04233,10.10368l-6.14758,-12.95508l-14.03484,11.10365l-17.2172,-9.87349l-4.93703,14.03674l-22.26655,-10.83633l-7.98461,11.0591l-9.18017,-13.93279l-14.02735,12.10363l-13.19121,-10.90317l-3.95112,11.0294l-12.18283,-10.91059l-6.96874,12.05165z" data-paper-data="{&quot;origRot&quot;:0}" fill="url(#color-1)" stroke="#0f6600" stroke-width="2" stroke-linecap="round"/><g stroke-width="2"><path d="M362.50005,262c0,0 50.749,10.813 68.218,28.282c17.469,17.469 28.282,41.594 28.282,68.218c0,26.624 -10.813,50.749 -28.282,68.218c-17.469,17.469 -41.594,28.282 -68.218,28.282c-26.624,0 -50.749,-10.813 -68.218,-28.282c-17.469,-17.469 -28.282,-41.594 -28.282,-68.218c0,-26.624 28.282,-68.218 28.282,-68.218z" id="ID0.263604449108243" fill="#c06520" stroke="#763e13" stroke-linecap="butt"/><path d="M361.50005,260c26.624,0 49.935,11.841 68.218,28.282c16.785,15.11 28.428,39.161 30.282,62.718c2.816,28.029 -16.058,83.682 -17,84c-0.948,0.32 7.295,-53.653 3,-80c-3.243,-18.886 -11.474,-38.105 -26,-51c-2.77511,-2.46227 -11.95906,-14.10512 -11.95906,-14.10512l-13.95058,3.92558l-18.09032,-15.64311l-18.00005,13.82266l-17.08442,-9.47323l-13.2311,14.14013l-15.18862,-4.04789l-5.49586,14.38099c0,0 -20.978,28.443 -23,46c-1.654,24.528 11.503,71.59 9.282,71.718c-2.22,0.126 -28.282,-41.594 -28.282,-68.218c0,-26.624 10.813,-50.749 28.282,-68.218c17.469,-17.469 41.594,-28.282 68.218,-28.282z" data-paper-data="{&quot;origPos&quot;:null}" id="ID0.263604449108243" fill="url(#color-2)" stroke="#006622" stroke-linecap="round"/></g><path d="M332.00004,303c0,-2.76142 2.23858,-5 5,-5c2.76142,0 5,2.23858 5,5c0,2.76142 -2.23858,5 -5,5c-2.76142,0 -5,-2.23858 -5,-5z" data-paper-data="{&quot;origPos&quot;:null}" fill="#e0bb60" stroke="none" stroke-width="0.5" stroke-linecap="butt"/><path d="M383.00004,301c0,-2.76142 5,-5 5,-5c0,0 5,2.23858 5,5c0,2.76142 -2.23858,5 -5,5c-2.76142,0 -5,-2.23858 -5,-5z" data-paper-data="{&quot;origPos&quot;:null}" fill="#e0bb60" stroke="none" stroke-width="0.5" stroke-linecap="butt"/><path d="M310.00005,339c0,-2.76142 2.23858,-5 5,-5c2.76142,0 5,2.23858 5,5c0,2.76142 -2.23858,5 -5,5c-2.76142,0 -5,-2.23858 -5,-5z" fill="#e0bb60" stroke="none" stroke-width="0.5" stroke-linecap="butt"/><path d="M357.00005,325c0,-2.76142 2.23858,-5 5,-5c2.76142,0 5,2.23858 5,5c0,2.76142 -2.23858,5 -5,5c-2.76142,0 -5,-2.23858 -5,-5z" fill="#e0bb60" stroke="none" stroke-width="0.5" stroke-linecap="butt"/><path d="M401.00005,345c0,-2.76142 2.23858,-5 5,-5c2.76142,0 5,2.23858 5,5c0,2.76142 -2.23858,5 -5,5c-2.76142,0 -5,-2.23858 -5,-5z" fill="#e0bb60" stroke="none" stroke-width="0.5" stroke-linecap="butt"/></g></g></svg>