<svg version="1.1" xmlns="http://www.w3.org/2000/svg" xmlns:xlink="http://www.w3.org/1999/xlink" width="30.10079" height="30.10079"><defs><radialGradient cx="16.39685" cy="15.43833" r="32.03267" gradientUnits="userSpaceOnUse" id="color-1"><stop offset="0" stop-color="#ffff00"/><stop offset="1" stop-color="#ff9400"/></radialGradient><radialGradient cx="22.51787" cy="17.34497" r="21.92326" gradientUnits="userSpaceOnUse" id="color-2"><stop offset="0" stop-color="#bda501"/><stop offset="1" stop-color="#c07801"/></radialGradient></defs><g transform="translate(-9.33212,-9.97803)"><g data-paper-data="{&quot;isPaintingLayer&quot;:true}" fill="none" fill-rule="nonzero" stroke="none" stroke-width="none" stroke-linecap="butt" stroke-linejoin="miter" stroke-miterlimit="10" stroke-dasharray="" stroke-dashoffset="0" font-family="none" font-weight="none" font-size="none" text-anchor="none" style="mix-blend-mode: normal"><path d="M24.38252,9.97803c4.15242,0 7.91471,1.68676 10.63923,4.41128c2.72452,2.7244 4.41116,6.48668 4.41116,10.63911c0,4.1523 -1.68663,7.91472 -4.41116,10.63912c-2.72452,2.72452 -6.48681,4.41128 -10.63923,4.41128c-4.1523,0 -7.91459,-1.68676 -10.63912,-4.41128c-2.72452,-2.7244 -4.41128,-6.48682 -4.41128,-10.63912c0,-4.15242 1.68676,-7.91471 4.41128,-10.63911c2.72452,-2.72452 6.48682,-4.41128 10.63912,-4.41128z" data-paper-data="{&quot;origPos&quot;:null}" id="ID0.7142658131197095" fill="url(#color-1)" stroke-width="0.48028"/><path d="M21.22768,13.4288h5.93709v22.76855h-5.93709z" data-paper-data="{&quot;origPos&quot;:null}" id="ID0.06001657713204622" fill="url(#color-2)" stroke-width="0.59798"/></g></g></svg>