<svg version="1.1" xmlns="http://www.w3.org/2000/svg" xmlns:xlink="http://www.w3.org/1999/xlink" width="143.7336" height="143.73361" viewBox="0,0,143.7336,143.73361"><defs><linearGradient x1="240" y1="110.13321" x2="240" y2="249.86681" gradientUnits="userSpaceOnUse" id="color-1"><stop offset="0" stop-color="#3c94ed"/><stop offset="1" stop-color="#337fcc"/></linearGradient><linearGradient x1="226.65338" y1="205.06474" x2="226.65338" y2="219.13335" gradientUnits="userSpaceOnUse" id="color-2"><stop offset="0" stop-color="#000000"/><stop offset="1" stop-color="#0f410c"/></linearGradient><linearGradient x1="240.08682" y1="205.06474" x2="240.08682" y2="219.13335" gradientUnits="userSpaceOnUse" id="color-3"><stop offset="0" stop-color="#000000"/><stop offset="1" stop-color="#0f410c"/></linearGradient><linearGradient x1="269.24126" y1="134.44543" x2="269.24126" y2="177.01133" gradientUnits="userSpaceOnUse" id="color-4"><stop offset="0" stop-color="#ffae82"/><stop offset="1" stop-color="#db8b67"/></linearGradient></defs><g transform="translate(-168.1332,-108.1332)"><g data-paper-data="{&quot;isPaintingLayer&quot;:true}" fill-rule="nonzero" stroke-linejoin="miter" stroke-miterlimit="10" stroke-dasharray="" stroke-dashoffset="0" style="mix-blend-mode: normal"><path d="M240,110.13321c19.2752,0 36.74421,7.8268 49.3899,20.47689c12.64989,12.64569 20.4769,30.11449 20.4769,49.38991c0,19.27542 -7.82701,36.74421 -20.4769,49.38991c-12.64569,12.65009 -30.1147,20.4769 -49.3899,20.4769c-19.27542,0 -36.74442,-7.8268 -49.39012,-20.4769c-12.64989,-12.64569 -20.47668,-30.11449 -20.47668,-49.38991c0,-19.27542 7.82679,-36.74421 20.47668,-49.38991c12.64569,-12.6501 30.11471,-20.47689 49.39012,-20.47689z" data-paper-data="{&quot;origPos&quot;:null}" id="ID0.4039921844378114" fill="url(#color-1)" stroke="#23568d" stroke-width="4" stroke-linecap="butt"/><g data-paper-data="{&quot;origPos&quot;:null}" stroke="none"><path d="M232.92115,152.16283c11.34884,0 22.2875,3.68892 29.07882,10.27781c9.04246,8.77361 13.12671,21.3186 13.71198,32.8892c0.26345,5.45676 -5.70596,11.06564 -11.43717,12.76333c-10.19722,3.01645 -21.40882,0.8522 -32.33959,0.61756c-10.14044,-0.21817 -21.05386,1.45473 -30.36766,-2.05869c-5.62709,-2.12297 -10.31238,-8.13812 -10.01739,-13.44935c0.60104,-10.83228 3.83185,-22.92031 12.2922,-30.76206c6.96168,-6.45164 17.72998,-10.27781 29.07882,-10.27781z" data-paper-data="{&quot;origPos&quot;:null}" id="ID0.664129285607487" fill="#2dc323" stroke-width="0.93172" stroke-linecap="round"/><path d="M233.82823,158.5854c5.20115,0 9.91327,2.1417 13.32707,5.60135c3.41223,3.46127 5.52455,8.23889 5.52455,13.51236c0,5.27346 -2.11233,10.05109 -5.52455,13.51236c-3.4138,3.45965 -8.12592,5.60135 -13.32707,5.60135c-5.20115,0 -9.91327,-2.1417 -13.32707,-5.60135c-3.41223,-3.46127 -5.52455,-8.23889 -5.52455,-13.51236c0,-5.27346 2.11233,-10.05109 5.52455,-13.51236c3.4138,-3.45965 8.12592,-5.60135 13.32707,-5.60135z" data-paper-data="{&quot;origPos&quot;:null}" id="ID0.5112368017435074" fill="#ffffff" stroke-width="1" stroke-linecap="butt"/><path d="M267.42986,169.14196c0.95915,-0.26552 1.88674,1.59309 2.36632,2.63913c1.84099,3.9699 3.45797,8.16691 4.57488,12.31596c0.91024,3.37809 1.52549,6.89534 1.57754,10.3966c0.02682,1.95775 -0.37387,3.99548 -1.41978,5.59815c-0.49062,0.92609 -1.80628,1.65705 -2.76069,1.27957c-2.47358,-0.99167 -4.77048,-1.85059 -6.41271,-4.84001c-1.64222,-2.98942 -2.65816,-7.11765 -2.65816,-11.67458c0,-4.5569 1.46553,-7.87421 2.65816,-11.67458c0.4496,-1.42673 0.81401,-3.60522 2.07446,-4.04027z" data-paper-data="{&quot;origPos&quot;:null}" id="ID0.4402989586815238" fill="#ffffff" stroke-width="1" stroke-linecap="round"/><path d="M201.51231,171.42278c1.18947,3.80196 2.65816,7.11765 2.65816,11.67458c0,4.5569 -1.01593,8.68515 -2.65816,11.67458c-1.64222,2.98942 -3.93911,3.84834 -6.41271,4.84001c-0.95441,0.37747 -2.27008,-0.35348 -2.76069,-1.27957c-1.04591,-1.60267 -1.4466,-3.64041 -1.41978,-5.59815c0.05205,-3.50126 0.6673,-7.01849 1.57754,-10.3966c1.1169,-4.14904 2.68498,-8.37165 4.57488,-12.31596c0.47169,-0.99009 1.42453,-2.52718 2.36632,-2.23928c1.27781,0.41266 1.658,2.31924 2.07446,3.64041z" data-paper-data="{&quot;origPos&quot;:null}" id="ID0.4402989586815238" fill="#ffffff" stroke-width="1" stroke-linecap="round"/><path d="M233.23349,199.69928c8.01046,0 14.2684,0.76467 20.52632,3.77515c3.25434,1.56378 5.65445,5.48085 5.54836,9.0383c0.10609,3.58363 -2.24581,7.55855 -5.54836,9.17608c-6.23587,3.05732 -12.51584,3.77515 -20.52632,3.77515c-8.01046,0 -14.3979,-0.50565 -20.52632,-3.77515c-3.31497,-1.7677 -5.05925,-6.26894 -5.06613,-10.00277c0.00689,-3.21162 2.11215,-6.83384 5.06613,-8.21162c6.29513,-2.93744 12.51584,-3.77515 20.52632,-3.77515z" data-paper-data="{&quot;origPos&quot;:null}" id="ID0.7818866483867168" fill="#ffdea8" stroke-width="1" stroke-linecap="butt"/><g data-paper-data="{&quot;origPos&quot;:null}" stroke-width="2.7956"><path d="M226.55701,205.06604c1.0824,-0.03458 2.12234,0.62786 2.61532,1.62552c0.7666,1.54836 1.04395,3.23545 1.04395,5.30767c0,2.07219 -0.31979,3.84404 -1.04395,5.30767c-0.57385,1.17871 -1.55222,1.9143 -2.61532,1.81799c-0.97823,0.0963 -1.86801,-0.65472 -2.42271,-1.81799c-0.70875,-1.47133 -1.04381,-3.23545 -1.04381,-5.30767c0,-2.07219 0.25805,-3.76701 1.04381,-5.30767c0.51613,-1.01695 1.5022,-1.6601 2.42271,-1.62552z" data-paper-data="{&quot;origPos&quot;:null}" id="ID0.6670762049034238" fill="url(#color-2)" stroke-linecap="round"/><path d="M239.99045,205.06604c1.0824,-0.03458 2.12234,0.62786 2.61532,1.62552c0.7666,1.54836 1.04395,3.23545 1.04395,5.30767c0,2.07219 -0.31979,3.84404 -1.04395,5.30767c-0.57385,1.17871 -1.55222,1.9143 -2.61532,1.81799c-0.97823,0.0963 -1.86801,-0.65472 -2.42271,-1.81799c-0.70875,-1.47133 -1.04381,-3.23545 -1.04381,-5.30767c0,-2.07219 0.25805,-3.76701 1.04381,-5.30767c0.51613,-1.01695 1.5022,-1.6601 2.42271,-1.62552z" data-paper-data="{&quot;origPos&quot;:null}" id="ID0.6670762049034238" fill="url(#color-3)" stroke-linecap="round"/><path d="M240.15001,206.12613c0.55856,0 1.0631,0.2272 1.42904,0.59314c0.36594,0.36594 0.59314,0.87049 0.59314,1.42891c0,0.55856 -0.2272,1.0631 -0.59314,1.42904c-0.36594,0.36594 -0.87049,0.59314 -1.42904,0.59314c-0.55842,0 -1.0631,-0.2272 -1.42891,-0.59314c-0.36594,-0.36594 -0.59328,-0.87049 -0.59328,-1.42904c0,-0.55842 0.22734,-1.06296 0.59328,-1.42891c0.3658,-0.36594 0.87049,-0.59314 1.42891,-0.59314z" data-paper-data="{&quot;origPos&quot;:null}" id="ID0.2271407265216112" fill="#ffffff" stroke-linecap="butt"/><path d="M226.57878,206.53945c0.55856,0 1.0631,0.2272 1.42904,0.59314c0.36594,0.36594 0.59314,0.87049 0.59314,1.42891c0,0.55856 -0.2272,1.0631 -0.59314,1.42904c-0.36594,0.36594 -0.87049,0.59314 -1.42904,0.59314c-0.55842,0 -1.0631,-0.2272 -1.42891,-0.59314c-0.36594,-0.36594 -0.59328,-0.87049 -0.59328,-1.42904c0,-0.55842 0.22734,-1.06296 0.59328,-1.42891c0.3658,-0.36594 0.87049,-0.59314 1.42891,-0.59314z" data-paper-data="{&quot;origPos&quot;:null}" id="ID0.2271407265216112" fill="#ffffff" stroke-linecap="butt"/></g></g><path d="M263.5075,134.44543c10.49881,1.72094 16.08848,2.72432 16.76904,3.0106c3.94066,7.63134 6.09056,11.89482 6.45015,12.75506c0,0.17991 -1.89876,2.0419 -5.73282,5.58968c0.2495,0.42942 2.15013,3.29664 5.73282,8.59841v0.14314c-0.14314,0.61073 -2.43618,4.76599 -6.87933,12.46902h-17.19846c-0.46597,-0.32096 -3.69092,-3.6176 -9.74656,-9.88807c1.18329,-1.11161 4.47971,-3.83406 9.8897,-8.169c0.46597,0.46597 2.47109,3.61784 6.01887,9.45865h0.14314l4.72944,-4.15688c-0.39451,-0.6091 -2.22158,-2.759 -5.44491,-6.44829l5.01549,-6.87933l-3.58269,-5.3034c-4.37148,5.9125 -6.62983,8.88632 -6.7362,8.88632c-6.45015,-4.15712 -10.17599,-6.63006 -11.17936,-7.45376c6.69942,-7.27361 10.60517,-11.46541 11.75169,-12.61215z" data-paper-data="{&quot;origPos&quot;:null}" id="path4542" fill="url(#color-4)" stroke="#ab7356" stroke-width="2.5" stroke-linecap="butt"/></g></g></svg>