<svg version="1.1" xmlns="http://www.w3.org/2000/svg" xmlns:xlink="http://www.w3.org/1999/xlink" width="188.67768" height="172.43196" viewBox="0,0,188.67768,172.43196"><defs><linearGradient x1="-0.39677" y1="222.39661" x2="-0.39677" y2="368.4066" gradientUnits="userSpaceOnUse" id="color-1"><stop offset="0" stop-color="#ffffff"/><stop offset="1" stop-color="#e7e7e7"/></linearGradient><linearGradient x1="-1.00169" y1="202.16833" x2="-1.00169" y2="245.20473" gradientUnits="userSpaceOnUse" id="color-2"><stop offset="0" stop-color="#6adc80"/><stop offset="1" stop-color="#55b268"/></linearGradient><linearGradient x1="-0.75169" y1="203.66833" x2="-0.75169" y2="227.23485" gradientUnits="userSpaceOnUse" id="color-3"><stop offset="0" stop-color="#74f08c"/><stop offset="1" stop-color="#68d97e"/></linearGradient></defs><g transform="translate(95.33789,-201.17136)"><g data-paper-data="{&quot;isPaintingLayer&quot;:true}" fill-rule="nonzero" stroke-linejoin="miter" stroke-miterlimit="10" stroke-dasharray="" stroke-dashoffset="0" style="mix-blend-mode: normal"><path d="M80.37852,261.6033c0,5.59704 -2.5,16.99804 -2.5,26c0,9.12028 2.5,15.87064 2.5,26c0,10.6124 -2,19.09198 -2,28c0,14.47703 2,26.80331 2,26.80331l-159.0506,-0.5c0,0 -2.5,-12.65003 -2.5,-29.30331c0,-8.20111 2,-17.25182 2,-26c0,-11.34702 -2,-22.18507 -2,-30c0,-8.83976 1.5,-18.88597 1.5,-29.5c0,-15.61168 -1.5,-30.70669 -1.5,-30.70669h161.5506c0,0 0,22.9304 0,39.20669z" data-paper-data="{&quot;origPos&quot;:null}" fill="url(#color-1)" stroke="#cccccc" stroke-width="2" stroke-linecap="butt"/><path d="M62.55595,366.10331c0,0 -10.5,-13.49313 -10.5,-25.5c0,-8.24502 10.5,-18.93961 10.5,-26.5c0,-7.2939 -10.5,-15.4006 -10.5,-27c0,-10.09121 10.5,-16.43376 10.5,-26.5c0,-10.86667 -11,-23.85285 -11,-31.5c0,-7.29002 11,-9.5 11,-9.5" fill="none" stroke="#cccccc" stroke-width="15" stroke-linecap="round"/><path d="M25.05595,366.10331c0,0 -10.5,-13.49313 -10.5,-25.5c0,-8.24502 10.5,-18.93961 10.5,-26.5c0,-7.2939 -10.5,-15.4006 -10.5,-27c0,-10.09121 10.5,-16.43376 10.5,-26.5c0,-10.86667 -11,-23.85285 -11,-31.5c0,-7.29002 11,-9.5 11,-9.5" fill="none" stroke="#cccccc" stroke-width="15" stroke-linecap="round"/><path d="M-12.44406,366.10331c0,0 -10.5,-13.49313 -10.5,-25.5c0,-8.24502 10.5,-18.93961 10.5,-26.5c0,-7.2939 -10.5,-15.4006 -10.5,-27c0,-10.09121 10.5,-16.43376 10.5,-26.5c0,-10.86667 -11,-23.85285 -11,-31.5c0,-7.29002 11,-9.5 11,-9.5" fill="none" stroke="#cccccc" stroke-width="15" stroke-linecap="round"/><path d="M-49.94405,366.10331c0,0 -10.5,-13.49313 -10.5,-25.5c0,-8.24502 10.5,-18.93961 10.5,-26.5c0,-7.2939 -10.5,-15.4006 -10.5,-27c0,-10.09121 10.5,-16.43376 10.5,-26.5c0,-10.86667 -11,-23.85285 -11,-31.5c0,-7.29002 11,-9.5 11,-9.5" fill="none" stroke="#cccccc" stroke-width="15" stroke-linecap="round"/><g stroke-linecap="butt"><path d="M92.33453,223.27255c0.21723,8.28143 -6.32009,15.17094 -14.60152,15.38817c-4.34246,0.1139 -8.30222,-1.6294 -11.11795,-4.50751c-2.56881,2.57554 -6.07303,4.22673 -9.97986,4.39204c-2.61586,3.90333 -7.02079,6.52164 -12.07547,6.65423c-6.07754,0.15942 -11.40543,-3.31899 -13.89663,-8.45486c-2.59022,2.44211 -6.05424,3.97647 -9.89301,4.07717c-6.25562,0.16409 -11.71703,-3.52596 -14.10826,-8.91055c-2.66436,3.10721 -6.58283,5.11847 -10.99677,5.23425c-4.58859,0.12036 -8.74986,-1.83298 -11.58557,-5.00769c-2.09731,5.51948 -7.36618,9.50618 -13.63417,9.67059c-4.35274,0.11418 -8.32096,-1.63764 -11.13792,-4.52794c-2.47744,4.54182 -7.23985,7.6776 -12.78391,7.82302c-6.71146,0.17604 -12.50874,-4.0842 -14.58121,-10.11381c-2.66177,3.03841 -6.53556,4.9991 -10.892,5.11337c-8.28143,0.21723 -15.17094,-6.32009 -15.38817,-14.60152c-0.21722,-8.28143 6.32009,-22.67094 14.60152,-22.88817c6.71145,-0.17604 152.67722,-0.33726 156.68272,-0.44233c8.28143,-0.21723 15.17094,12.82009 15.38817,21.10152z" fill="url(#color-2)" stroke="#199442" stroke-width="2"/><path d="M83.33504,215.22487c0.1957,4.53487 -5.69378,8.30754 -13.15453,8.42649c-3.91214,0.06237 -7.47948,-0.89225 -10.01618,-2.46829c-2.31425,1.41036 -5.47121,2.31454 -8.99088,2.40507c-2.35662,2.13744 -6.32503,3.57121 -10.8788,3.64382c-5.47527,0.0873 -10.27518,-1.81746 -12.5195,-4.62984c-2.33353,1.33729 -5.45427,2.1775 -8.91262,2.23264c-5.6357,0.08985 -10.55588,-1.9308 -12.71015,-4.87938c-2.40032,1.70149 -5.93049,2.80285 -9.90701,2.86625c-4.13387,0.06591 -7.88276,-1.00372 -10.43745,-2.74218c-1.88948,3.02245 -6.63621,5.20553 -12.28305,5.29557c-3.92139,0.06252 -7.49636,-0.89678 -10.03417,-2.47949c-2.23193,2.48708 -6.52238,4.20422 -11.51704,4.28385c-6.04636,0.0964 -11.26913,-2.23649 -13.13623,-5.53827c-2.39799,1.66382 -5.88789,2.73748 -9.81262,2.80006c-7.46075,0.11896 -13.66752,-3.46085 -13.86322,-7.99571c-0.1957,-4.53486 5.69378,-12.4145 13.15453,-12.53345c6.04636,-0.0964 137.54713,-0.18468 141.15569,-0.24222c7.46075,-0.11895 13.66752,7.02023 13.86323,11.55509z" fill="url(#color-3)" stroke="none" stroke-width="0.5"/></g></g></g></svg>