<svg version="1.1" xmlns="http://www.w3.org/2000/svg" xmlns:xlink="http://www.w3.org/1999/xlink" width="511.98369" height="378.80486" viewBox="0,0,511.98369,378.80486"><defs><linearGradient x1="240" y1="-1.5" x2="240" y2="361.5" gradientUnits="userSpaceOnUse" id="color-1"><stop offset="0" stop-color="#b4daff"/><stop offset="1" stop-color="#ffffbd"/></linearGradient><linearGradient x1="241.00001" y1="274.50218" x2="241.00001" y2="390.50218" gradientUnits="userSpaceOnUse" id="color-2"><stop offset="0" stop-color="#76cfff"/><stop offset="1" stop-color="#76cfff" stop-opacity="0"/></linearGradient><linearGradient x1="297.50832" y1="243.60512" x2="297.50832" y2="365.20486" gradientUnits="userSpaceOnUse" id="color-3"><stop offset="0" stop-color="#f5e862"/><stop offset="1" stop-color="#e0bc5c"/></linearGradient><linearGradient x1="59.50322" y1="168" x2="59.50322" y2="406" gradientUnits="userSpaceOnUse" id="color-4"><stop offset="0" stop-color="#8d8d8d"/><stop offset="1" stop-color="#bbbbbb"/></linearGradient><linearGradient x1="59.66255" y1="132.49999" x2="59.66255" y2="225.47867" gradientUnits="userSpaceOnUse" id="color-5"><stop offset="0" stop-color="#90e3c8"/><stop offset="1" stop-color="#47b566"/></linearGradient><linearGradient x1="178.5101" y1="213" x2="178.5101" y2="451" gradientUnits="userSpaceOnUse" id="color-6"><stop offset="0" stop-color="#8d8d8d"/><stop offset="1" stop-color="#bbbbbb"/></linearGradient><linearGradient x1="178.66943" y1="177.49999" x2="178.66943" y2="270.47867" gradientUnits="userSpaceOnUse" id="color-7"><stop offset="0" stop-color="#90e3c8"/><stop offset="1" stop-color="#47b566"/></linearGradient><linearGradient x1="83.24397" y1="306.9872" x2="83.24397" y2="384" gradientUnits="userSpaceOnUse" id="color-8"><stop offset="0" stop-color="#8d8d8d"/><stop offset="1" stop-color="#bbbbbb"/></linearGradient><linearGradient x1="83.6212" y1="295.49999" x2="83.6212" y2="325.58633" gradientUnits="userSpaceOnUse" id="color-9"><stop offset="0" stop-color="#90e3c8"/><stop offset="1" stop-color="#47b566"/></linearGradient><linearGradient x1="567.89951" y1="308.00443" x2="567.89951" y2="406.00443" gradientUnits="userSpaceOnUse" id="color-10"><stop offset="0" stop-color="#000000" stop-opacity="0"/><stop offset="1" stop-color="#000000"/></linearGradient></defs><g transform="translate(25.97759,1.5)"><g data-paper-data="{&quot;isPaintingLayer&quot;:true}" fill-rule="nonzero" stroke-linejoin="miter" stroke-miterlimit="10" stroke-dasharray="" stroke-dashoffset="0" style="mix-blend-mode: normal"><path d="M-1,361.5v-363h482v363z" fill="url(#color-1)" stroke="none" stroke-width="0" stroke-linecap="butt"/><path d="M1.00001,360.50218v-86h480v86z" data-paper-data="{&quot;origPos&quot;:null,&quot;index&quot;:null}" fill="url(#color-2)" stroke="none" stroke-width="NaN" stroke-linecap="butt"/><path d="M226.26424,243.70486c20.73891,2.95442 56.27692,20.56543 67,22.5c10.72308,1.93457 15.73127,-9.20794 27,-9.5c23.82202,-0.61743 12.98912,9.75241 58.5,17.5c14.49892,2.46824 -57.83243,13.15018 -61.5,19c-5.79835,9.24843 19.238,8.77669 12,13c-10.48708,6.11911 -30.35471,7.15081 -45.28734,11.69831c-15.40149,4.69028 -20.05559,8.62808 -22.71266,16.80169c-2.65707,8.17361 17.14955,10.74173 11.5,14c-15.7447,9.08044 -42.5,16.5 -42.5,16.5c0,0 -33.0053,-125.63203 -4,-121.5z" fill="url(#color-3)" stroke="#e0bd5c" stroke-width="2" stroke-linecap="round"/><g data-paper-data="{&quot;origPos&quot;:null,&quot;index&quot;:null}" stroke="none" stroke-width="1" stroke-linecap="butt"><path d="M337.94778,116.5c15.47445,0 29.49708,4.034 39.6511,10.551c10.15402,6.517 16.43943,15.517 16.43943,25.449c0,9.932 -6.28541,18.932 -16.43943,25.449c-10.15402,6.517 -24.17665,10.551 -39.6511,10.551c-15.47445,0 -29.49708,-4.034 -39.6511,-10.551c-10.15402,-6.517 -16.43943,-15.517 -16.43943,-25.449c0,-9.932 6.28541,-18.932 16.43943,-25.449c10.15402,-6.517 24.17665,-10.551 39.6511,-10.551z" fill="#ffffff"/><path d="M407.65252,100.5c15.47445,0 29.49708,4.034 39.6511,10.551c10.15402,6.517 16.43943,15.517 16.43943,25.449c0,9.932 -6.28541,18.932 -16.43943,25.449c-10.15402,6.517 -24.17665,10.551 -39.6511,10.551c-15.47445,0 -29.49708,-4.034 -39.6511,-10.551c-10.15402,-6.517 -16.43943,-15.517 -16.43943,-25.449c0,-9.932 6.28541,-18.932 16.43943,-25.449c10.15402,-6.517 24.17665,-10.551 39.6511,-10.551z" fill="#ffffff"/><g fill="#4a4f54"><path d="M350.47285,132c1.3527,0 2.57798,1.093 3.46454,2.858c0.88765,1.765 1.43657,4.202 1.43657,6.892c0,2.69 -0.54892,5.127 -1.43657,6.892c-0.88655,1.765 -2.11183,2.858 -3.46454,2.858c-1.3527,0 -2.57798,-1.093 -3.46454,-2.858c-0.88765,-1.765 -1.43657,-4.202 -1.43657,-6.892c0,-2.69 0.54892,-5.127 1.43657,-6.892c0.88655,-1.765 2.11183,-2.858 3.46454,-2.858z"/><path d="M373.34472,131.5c1.3527,0 2.57798,1.093 3.46454,2.858c0.88765,1.765 1.43657,4.202 1.43657,6.892c0,2.69 -0.54892,5.127 -1.43657,6.892c-0.88655,1.765 -2.11183,2.858 -3.46454,2.858c-1.3527,0 -2.57798,-1.093 -3.46454,-2.858c-0.88765,-1.765 -1.43657,-4.202 -1.43657,-6.892c0,-2.69 0.54892,-5.127 1.43657,-6.892c0.88655,-1.765 2.11183,-2.858 3.46454,-2.858z"/></g></g><g data-paper-data="{&quot;origPos&quot;:null}"><path d="M3.17243,367v-199h112.66158v199z" data-paper-data="{&quot;origPos&quot;:null}" fill="url(#color-4)" stroke="#a8a8a8" stroke-width="2" stroke-linecap="butt"/><path d="M80.36647,189l-7.30214,96l13.56112,10l-15.64744,64" data-paper-data="{&quot;origPos&quot;:null}" fill="none" stroke="#838383" stroke-width="5" stroke-linecap="round"/><path d="M60.54638,191l-9.73619,96l18.08149,10l-20.86326,64" data-paper-data="{&quot;origPos&quot;:null}" fill="none" stroke="#838383" stroke-width="5" stroke-linecap="round"/><path d="M38.63994,190l-7.30214,96l13.56111,10l-15.64744,64" data-paper-data="{&quot;origPos&quot;:null}" fill="none" stroke="#838383" stroke-width="5" stroke-linecap="round"/><path d="M22.72699,193l-5.17788,96l9.61606,10l-11.09546,64" data-paper-data="{&quot;origPos&quot;:null}" fill="none" stroke="#838383" stroke-width="5" stroke-linecap="round"/><path d="M9.54248,195l-3.30019,96l6.12892,10l-7.07183,64" data-paper-data="{&quot;origPos&quot;:null}" fill="none" stroke="#838383" stroke-width="5" stroke-linecap="round"/><path d="M2.88928,194l-1.65009,96l3.06445,10l-3.53591,64" data-paper-data="{&quot;origPos&quot;:null}" fill="none" stroke="#838383" stroke-width="5" stroke-linecap="round"/><path d="M118.75859,189l-1.63586,96l3.03804,10l-3.50543,64" data-paper-data="{&quot;origPos&quot;:null}" fill="none" stroke="#838383" stroke-width="5" stroke-linecap="round"/><path d="M111.68303,191l-3.92609,96l7.2913,10l-8.41304,64" data-paper-data="{&quot;origPos&quot;:null}" fill="none" stroke="#838383" stroke-width="5" stroke-linecap="round"/><path d="M98.49854,190l-5.17789,96l9.61607,10l-11.09546,64" data-paper-data="{&quot;origPos&quot;:null}" fill="none" stroke="#838383" stroke-width="5" stroke-linecap="round"/><path d="M102.49757,146.12524c10.96938,8.41586 17.7595,20.0382 17.7595,32.86409c0,12.82589 1.49217,21.56413 -5.51611,27.96112c-5.76902,4.42608 -19.91552,-12.19881 -26.76613,-8.90721c-11.25526,5.40797 -15.18698,17.91789 -28.31228,17.91789c-14.79097,0 -15.93422,-11.02587 -28.24679,-17.59015c-5.48114,-2.92219 -21.42333,12.28251 -26.11142,8.57946c-7.36837,-5.82018 -6.23631,-15.13523 -6.23631,-27.96112c0,-12.82589 6.79012,-24.44824 17.75949,-32.86409c10.96938,-8.41586 26.118,-13.62525 42.83503,-13.62525c16.71703,0 31.86564,5.20938 42.83502,13.62525z" data-paper-data="{&quot;origPos&quot;:null}" fill="url(#color-5)" stroke="#65a96e" stroke-width="2" stroke-linecap="butt"/></g><g data-paper-data="{&quot;origPos&quot;:null}"><path d="M122.17931,213h112.66158v156.89562c-4.99938,0.34118 -9.99908,0.80783 -14.99625,1.33709c-11.46293,-0.48327 -22.92437,-0.98192 -34.37222,-0.93266c-19.87693,0.08553 -39.77209,0.81444 -59.6285,1.64123c-1.2197,0.05082 -2.44133,0.09726 -3.66461,0.14017z" data-paper-data="{&quot;origPos&quot;:null}" fill="url(#color-6)" stroke="#a8a8a8" stroke-width="2" stroke-linecap="butt"/><path d="M199.37336,234l-7.30214,96l13.56112,10l-12.83,30.33788" data-paper-data="{&quot;origPos&quot;:null}" fill="none" stroke="#838383" stroke-width="5" stroke-linecap="round"/><path d="M179.55326,236l-9.73618,96l18.08149,10l-16.04371,28.45277" data-paper-data="{&quot;origPos&quot;:null}" fill="none" stroke="#838383" stroke-width="5" stroke-linecap="round"/><path d="M157.64684,235l-7.30213,96l13.56112,10l-12.67884,29.98043" data-paper-data="{&quot;origPos&quot;:null}" fill="none" stroke="#838383" stroke-width="5" stroke-linecap="round"/><path d="M141.73387,238l-5.17788,96l9.61606,10l-8.23297,27.45448" data-paper-data="{&quot;origPos&quot;:null}" fill="none" stroke="#838383" stroke-width="5" stroke-linecap="round"/><path d="M126.42455,371.91713l4.95356,-25.91713l-6.12892,-10l3.30019,-96" data-paper-data="{&quot;origPos&quot;:null}" fill="none" stroke="#838383" stroke-width="5" stroke-linecap="round"/><path d="M237.76547,234l-1.63587,96l3.03804,10l-2.823,29.79684" data-paper-data="{&quot;origPos&quot;:null}" fill="none" stroke="#838383" stroke-width="5" stroke-linecap="round"/><path d="M230.68992,236l-3.92609,96l7.29129,10l-6.47397,28.47213" data-paper-data="{&quot;origPos&quot;:null}" fill="none" stroke="#838383" stroke-width="5" stroke-linecap="round"/><path d="M217.50542,235l-5.17789,96l9.61607,10l-8.97991,29.94527" data-paper-data="{&quot;origPos&quot;:null}" fill="none" stroke="#838383" stroke-width="5" stroke-linecap="round"/><path d="M221.50446,191.12524c10.96937,8.41586 17.75949,20.0382 17.75949,32.86409c0,12.82589 1.49217,21.56413 -5.51611,27.96112c-5.76902,4.42608 -19.91551,-12.19881 -26.76612,-8.90721c-11.25526,5.40797 -15.18699,17.91789 -28.31229,17.91789c-14.79098,0 -15.93422,-11.02587 -28.24679,-17.59015c-5.48114,-2.92219 -21.42333,12.28251 -26.11142,8.57946c-7.36837,-5.82018 -6.23631,-15.13523 -6.23631,-27.96112c0,-12.82589 6.79012,-24.44824 17.75949,-32.86409c10.96937,-8.41586 26.118,-13.62525 42.83503,-13.62525c16.71703,0 31.86565,5.20938 42.83503,13.62525z" data-paper-data="{&quot;origPos&quot;:null}" fill="url(#color-7)" stroke="#65a96e" stroke-width="2" stroke-linecap="butt"/></g><g data-paper-data="{&quot;origPos&quot;:null,&quot;index&quot;:null}" stroke="none" stroke-width="1" stroke-linecap="butt"><path d="M224.88161,46.051c10.15402,6.517 16.43943,15.517 16.43943,25.449c0,9.932 -6.28541,18.932 -16.43943,25.449c-10.15402,6.517 -24.17665,10.551 -39.6511,10.551c-15.47445,0 -29.49708,-4.034 -39.6511,-10.551c-10.15402,-6.517 -16.43943,-15.517 -16.43943,-25.449c0,-9.932 6.28541,-18.932 16.43943,-25.449c10.15402,-6.517 24.17665,-10.551 39.6511,-10.551c15.47445,0 29.49708,4.034 39.6511,10.551z" fill="#ffffff"/><path d="M155.17688,30.051c10.15402,6.517 16.43943,15.517 16.43943,25.449c0,9.932 -6.28541,18.932 -16.43943,25.449c-10.15402,6.517 -24.17665,10.551 -39.6511,10.551c-15.47445,0 -29.49708,-4.034 -39.6511,-10.551c-10.15402,-6.517 -16.43943,-15.517 -16.43943,-25.449c0,-9.932 6.28541,-18.932 16.43943,-25.449c10.15402,-6.517 24.17665,-10.551 39.6511,-10.551c15.47445,0 29.49708,4.034 39.6511,10.551z" fill="#ffffff"/><g fill="#4a4f54"><path d="M176.16998,53.858c0.88765,1.765 1.43657,4.202 1.43657,6.892c0,2.69 -0.54892,5.127 -1.43657,6.892c-0.88655,1.765 -2.11183,2.858 -3.46454,2.858c-1.3527,0 -2.57798,-1.093 -3.46454,-2.858c-0.88765,-1.765 -1.43657,-4.202 -1.43657,-6.892c0,-2.69 0.54892,-5.127 1.43657,-6.892c0.88655,-1.765 2.11183,-2.858 3.46454,-2.858c1.3527,0 2.57798,1.093 3.46454,2.858z"/><path d="M153.29812,53.358c0.88765,1.765 1.43657,4.202 1.43657,6.892c0,2.69 -0.54892,5.127 -1.43657,6.892c-0.88655,1.765 -2.11183,2.858 -3.46454,2.858c-1.3527,0 -2.57798,-1.093 -3.46454,-2.858c-0.88765,-1.765 -1.43657,-4.202 -1.43657,-6.892c0,-2.69 0.54892,-5.127 1.43657,-6.892c0.88655,-1.765 2.11183,-2.858 3.46454,-2.858c1.3527,0 2.57798,1.093 3.46454,2.858z"/></g></g><g data-paper-data="{&quot;origPos&quot;:null}"><g data-paper-data="{&quot;origPos&quot;:null}"><path d="M-14.12217,306.9872h230.73229v64.1092c-10.38439,-0.43592 -219.30485,2.98807 -230.73229,2.81473z" data-paper-data="{&quot;origPos&quot;:null}" fill="url(#color-8)" stroke="#a8a8a8" stroke-width="2" stroke-linecap="butt"/><path d="M207.80097,370.74345l5.05295,-19.66117l-7.42353,-3.23584l3.9973,-31.06399" data-paper-data="{&quot;origPos&quot;:null}" fill="none" stroke="#838383" stroke-width="5" stroke-linecap="round"/><path d="M190.62307,370.31294l4.68532,-18.23066l-7.42354,-3.23584l3.9973,-31.06399" data-paper-data="{&quot;origPos&quot;:null}" fill="none" stroke="#838383" stroke-width="5" stroke-linecap="round"/><path d="M176.40081,315.78245l-3.99729,31.06399l7.42353,3.23584l-5.22365,20.32533" data-paper-data="{&quot;origPos&quot;:null}" fill="none" stroke="#838383" stroke-width="5" stroke-linecap="round"/><path d="M157.21484,370.79683l5.06668,-19.71455l-7.42354,-3.23584l3.9973,-31.06399" data-paper-data="{&quot;origPos&quot;:null}" fill="none" stroke="#838383" stroke-width="5" stroke-linecap="round"/><path d="M143.37393,316.78245l-3.9973,31.06399l7.42354,3.23584l-5.20013,20.23383" data-paper-data="{&quot;origPos&quot;:null}" fill="none" stroke="#838383" stroke-width="5" stroke-linecap="round"/><path d="M125.8284,317.78245l-3.9973,31.06399l7.42354,3.23584l-5.12139,19.92744" data-paper-data="{&quot;origPos&quot;:null}" fill="none" stroke="#838383" stroke-width="5" stroke-linecap="round"/><path d="M110.34705,315.78245l-3.9973,31.06399l7.42354,3.23584l-5.75322,22.38593" data-paper-data="{&quot;origPos&quot;:null}" fill="none" stroke="#838383" stroke-width="5" stroke-linecap="round"/><path d="M92.80152,316.78245l-3.99729,31.06399l7.42353,3.23584l-5.61773,21.85874" data-paper-data="{&quot;origPos&quot;:null}" fill="none" stroke="#838383" stroke-width="5" stroke-linecap="round"/><path d="M77.32017,316.78245l-3.9973,31.06399l7.42354,3.23584l-5.83479,22.70331" data-paper-data="{&quot;origPos&quot;:null}" fill="none" stroke="#838383" stroke-width="5" stroke-linecap="round"/><path d="M59.77464,317.78245l-3.9973,31.06399l7.42354,3.23584l-5.1294,21.84963" data-paper-data="{&quot;origPos&quot;:null}" fill="none" stroke="#838383" stroke-width="5" stroke-linecap="round"/><path d="M43.29329,315.78245l-3.9973,31.06399l7.42354,3.23584l-5.51515,23.35058" data-paper-data="{&quot;origPos&quot;:null}" fill="none" stroke="#838383" stroke-width="5" stroke-linecap="round"/><path d="M26.74776,316.78245l-3.9973,31.06399l7.42354,3.23584l-6.09674,23.72258" data-paper-data="{&quot;origPos&quot;:null}" fill="none" stroke="#838383" stroke-width="5" stroke-linecap="round"/><path d="M11.26642,317.78245l-3.9973,31.06399l7.42354,3.23584l-5.72797,22.28764" data-paper-data="{&quot;origPos&quot;:null}" fill="none" stroke="#838383" stroke-width="5" stroke-linecap="round"/><path d="M-6.27911,318.78245l-3.9973,31.06399l7.42353,3.23584l-5.37772,20.92483" data-paper-data="{&quot;origPos&quot;:null}" fill="none" stroke="#838383" stroke-width="5" stroke-linecap="round"/><path d="M207.03539,295.90889c25.97058,2.72323 20.04654,10.48402 20.04654,14.63427c0,4.15024 3.53279,6.97779 -13.05968,9.04775c-13.65847,1.4322 -47.15105,-3.94733 -63.37022,-2.88222c-26.64742,1.74993 -35.956,5.79793 -67.03084,5.79793c-35.01842,0 -37.72512,-3.56779 -66.87579,-5.69187c-12.97689,-0.94558 -14.72087,3.97441 -25.82016,2.77616c-17.44502,-1.88331 -14.76479,-4.8975 -14.76479,-9.04775c0,-4.15024 -7.92404,-10.91104 18.04654,-13.63427c25.97058,-2.72324 49.83576,-1.4089 89.41422,-1.4089c39.57846,0 97.44362,-2.31434 123.4142,0.4089z" data-paper-data="{&quot;origPos&quot;:null}" fill="url(#color-9)" stroke="#65a96e" stroke-width="2" stroke-linecap="butt"/></g><g data-paper-data="{&quot;origPos&quot;:null}" stroke="none" stroke-linecap="butt"><path d="M4.57805,295.4367c-0.22483,-0.17059 -0.33062,-0.54461 -0.36405,-1.00488c-0.39677,0.08271 -0.77342,0.0267 -1.08613,-0.07306c-1.81368,0.66388 -3.70867,0.90004 -5.43369,-0.19074c-4.26397,-2.69624 -5.56474,-5.20033 -0.10511,-7.56788c0.57468,-0.24921 1.22265,0.27727 1.82307,0.45577c0.9765,0.2903 1.74216,0.60184 2.42614,0.96452c0.74386,-4.28913 2.51374,-8.02604 4.7758,-11.90384c0,0 1.14824,-1.96841 3.11665,-0.82017c1.96841,1.14824 0.82017,3.11666 0.82017,3.11666c-1.78821,3.06551 -3.38136,6.0575 -4.0968,9.41987c0.38788,-0.12402 0.81387,-0.24903 1.31133,-0.40533c0.56097,-0.17624 1.14292,-0.70893 1.69205,-0.4987c4.56574,1.74786 4.68517,3.84597 2.58306,7.56224c-0.22987,0.40638 -0.62602,0.74834 -1.06345,0.91154c-0.90652,0.3382 -1.90024,0.36575 -2.85036,0.54861c-0.95679,0 -1.91462,-0.06193 -2.86534,-0.16952l-1.21538,-0.15192c0,0 0.2298,-0.08545 0.53206,-0.19315z" fill="#65a96e" stroke-width="0.5"/><g stroke-width="0"><g data-paper-data="{&quot;origPos&quot;:null}" fill="#ff9191"><path d="M10.73516,274.65858c1.69766,2.69883 0.13756,6.7337 -3.48455,9.01213c-3.62212,2.27843 -7.93464,1.93763 -9.63229,-0.76121c-1.69766,-2.69884 -0.13757,-6.7337 3.48455,-9.01213c3.62212,-2.27843 7.93465,-1.93763 9.6323,0.76121z" data-paper-data="{&quot;origRot&quot;:0,&quot;origPos&quot;:null}"/><path d="M23.19281,265.23938c1.69765,2.69884 0.13756,6.7337 -3.48455,9.01212c-3.62212,2.27843 -7.93464,1.93763 -9.63229,-0.76121c-1.69765,-2.69883 -0.13758,-6.73369 3.48454,-9.01212c3.62212,-2.27843 7.93464,-1.93763 9.6323,0.76121z" data-paper-data="{&quot;origRot&quot;:0,&quot;origPos&quot;:null}"/></g><g data-paper-data="{&quot;origPos&quot;:null,&quot;origRot&quot;:0}" fill="#ff9191"><path d="M10.14195,274.43201c-2.61322,1.82669 -6.71908,0.46435 -9.17069,-3.04287c-2.45161,-3.50722 -2.3206,-7.8312 0.29263,-9.65789c2.61322,-1.82669 6.71908,-0.46435 9.17069,3.04287c2.45161,3.50722 2.3206,7.83121 -0.29262,9.65789z" data-paper-data="{&quot;origRot&quot;:0,&quot;origPos&quot;:null}"/><path d="M20.15491,286.41763c-2.61322,1.82669 -6.71908,0.46435 -9.17069,-3.04287c-2.45161,-3.50722 -2.32059,-7.8312 0.29263,-9.65789c2.61322,-1.82669 6.71907,-0.46435 9.17068,3.04287c2.45161,3.50722 2.3206,7.8312 -0.29263,9.65789z" data-paper-data="{&quot;origRot&quot;:0,&quot;origPos&quot;:null}"/></g><path d="M5.24019,273.61867c0,-3.02056 2.44864,-5.46922 5.46921,-5.46922c3.02057,0 5.46922,2.44865 5.46922,5.46922c0,3.02056 -2.44865,5.46921 -5.46922,5.46921c-3.02056,0 -5.46921,-2.44865 -5.46921,-5.46921z" data-paper-data="{&quot;origPos&quot;:null}" fill="#fffba7"/></g></g><g data-paper-data="{&quot;origPos&quot;:null,&quot;index&quot;:null}" stroke="none" stroke-linecap="butt"><path d="M72.75548,296.84523l-1.21538,0.15192c-0.95072,0.10759 -1.90856,0.16953 -2.86534,0.16953c-0.95011,-0.18287 -1.94383,-0.21042 -2.85035,-0.54862c-0.43743,-0.1632 -0.83359,-0.50516 -1.06345,-0.91154c-2.10211,-3.71627 -1.98269,-5.81438 2.58306,-7.56224c0.54914,-0.21023 1.13108,0.32245 1.69205,0.4987c0.49745,0.15629 0.92344,0.2813 1.31133,0.40532c-0.71544,-3.36236 -2.3086,-6.35435 -4.09681,-9.41986c0,0 -1.14824,-1.96841 0.82017,-3.11665c1.96841,-1.14825 3.11665,0.82017 3.11665,0.82017c2.26205,3.8778 4.03193,7.61471 4.77579,11.90384c0.68398,-0.36268 1.44964,-0.67422 2.42614,-0.96452c0.60042,-0.17849 1.24839,-0.70498 1.82307,-0.45576c5.45963,2.36755 4.15886,4.87163 -0.10511,7.56787c-1.72502,1.09078 -3.62001,0.85464 -5.43369,0.19076c-0.31271,0.09976 -0.68936,0.15576 -1.08613,0.07306c-0.03343,0.46027 -0.13923,0.83429 -0.36405,1.00488c0.30226,0.1077 0.53206,0.19315 0.53206,0.19315z" fill="#65a96e" stroke-width="0.5"/><g stroke-width="0"><g data-paper-data="{&quot;origPos&quot;:null}" fill="#dc91ff"><path d="M75.69864,275.11275c3.62212,2.27843 5.18221,6.31329 3.48455,9.01213c-1.69765,2.69884 -6.01017,3.03964 -9.63229,0.76121c-3.62212,-2.27843 -5.18221,-6.31329 -3.48455,-9.01213c1.69766,-2.69884 6.01018,-3.03964 9.63229,-0.76121z" data-paper-data="{&quot;origRot&quot;:0,&quot;origPos&quot;:null}"/><path d="M63.24099,265.69354c3.62212,2.27843 5.1822,6.31329 3.48455,9.01213c-1.69765,2.69883 -6.01018,3.03964 -9.63229,0.76121c-3.62212,-2.27843 -5.18221,-6.31329 -3.48455,-9.01213c1.69765,-2.69883 6.01018,-3.03964 9.63229,-0.76121z" data-paper-data="{&quot;origRot&quot;:0,&quot;origPos&quot;:null}"/></g><g data-paper-data="{&quot;origPos&quot;:null,&quot;origRot&quot;:0}" fill="#dc91ff"><path d="M66.36692,265.98949c2.45161,-3.50722 6.55747,-4.86955 9.17069,-3.04286c2.61322,1.82669 2.74424,6.15067 0.29262,9.65789c-2.45161,3.50722 -6.55747,4.86956 -9.17069,3.04287c-2.61322,-1.82669 -2.74424,-6.15067 -0.29263,-9.65789z" data-paper-data="{&quot;origRot&quot;:0,&quot;origPos&quot;:null}"/><path d="M56.35396,277.97511c2.45161,-3.50722 6.55746,-4.86955 9.17068,-3.04287c2.61322,1.82669 2.74424,6.15067 0.29263,9.65789c-2.45161,3.50722 -6.55747,4.86956 -9.17069,3.04287c-2.61322,-1.82669 -2.74424,-6.15068 -0.29262,-9.6579z" data-paper-data="{&quot;origRot&quot;:0,&quot;origPos&quot;:null}"/></g><path d="M66.09207,280.30326c-3.02057,0 -5.46921,-2.44865 -5.46921,-5.46921c0,-3.02056 2.44865,-5.46922 5.46921,-5.46922c3.02057,0 5.46921,2.44865 5.46921,5.46922c0,3.02056 -2.44865,5.46921 -5.46921,5.46921z" data-paper-data="{&quot;origPos&quot;:null}" fill="#fffba7"/></g></g><g data-paper-data="{&quot;origPos&quot;:null}" stroke="none" stroke-linecap="butt"><path d="M96.03545,296.04439c-0.22482,-0.1706 -0.33062,-0.54462 -0.36405,-1.00489c-0.39677,0.08271 -0.77342,0.02671 -1.08612,-0.07305c-1.81368,0.66388 -3.70868,0.90003 -5.43369,-0.19076c-4.26397,-2.69624 -5.56475,-5.20031 -0.10512,-7.56787c0.57468,-0.24921 1.22265,0.27727 1.82307,0.45577c0.9765,0.2903 1.74216,0.60183 2.42614,0.96452c0.74386,-4.28913 2.51375,-8.02605 4.7758,-11.90385c0,0 1.14825,-1.96841 3.11666,-0.82017c1.96841,1.14824 0.82016,3.11665 0.82016,3.11665c-1.78821,3.0655 -3.38136,6.0575 -4.09681,9.41986c0.38788,-0.12402 0.81387,-0.24904 1.31133,-0.40532c0.56097,-0.17624 1.14292,-0.70893 1.69206,-0.4987c4.56574,1.74787 4.68517,3.84597 2.58306,7.56225c-0.22987,0.40637 -0.62603,0.74834 -1.06346,0.91153c-0.90652,0.3382 -1.90024,0.36575 -2.85035,0.54862c-0.95679,0 -1.91463,-0.06194 -2.86534,-0.16953l-1.21539,-0.15192c0,0 0.2298,-0.08545 0.53206,-0.19315z" fill="#65a96e" stroke-width="0.5"/><g stroke-width="0"><g data-paper-data="{&quot;origPos&quot;:null}" fill="#ff9191"><path d="M102.19255,275.26626c1.69765,2.69884 0.13756,6.7337 -3.48455,9.01213c-3.62212,2.27843 -7.93464,1.93763 -9.63229,-0.76121c-1.69765,-2.69884 -0.13757,-6.7337 3.48455,-9.01213c3.62212,-2.27843 7.93464,-1.93762 9.63229,0.76121z" data-paper-data="{&quot;origRot&quot;:0,&quot;origPos&quot;:null}"/><path d="M114.6502,265.84707c1.69765,2.69883 0.13756,6.7337 -3.48455,9.01213c-3.62212,2.27843 -7.93464,1.93763 -9.63229,-0.76121c-1.69765,-2.69884 -0.13757,-6.7337 3.48455,-9.01212c3.62212,-2.27843 7.93464,-1.93763 9.63229,0.76121z" data-paper-data="{&quot;origRot&quot;:0,&quot;origPos&quot;:null}"/></g><g data-paper-data="{&quot;origPos&quot;:null,&quot;origRot&quot;:0}" fill="#ff9191"><path d="M101.59936,275.0397c-2.61322,1.82669 -6.71908,0.46435 -9.17069,-3.04287c-2.45161,-3.50722 -2.3206,-7.83121 0.29262,-9.65789c2.61322,-1.82669 6.71908,-0.46435 9.17069,3.04287c2.45161,3.50722 2.3206,7.8312 -0.29262,9.65789z" data-paper-data="{&quot;origRot&quot;:0,&quot;origPos&quot;:null}"/><path d="M111.61231,287.02531c-2.61322,1.82669 -6.71908,0.46435 -9.17069,-3.04287c-2.45161,-3.50722 -2.32059,-7.8312 0.29263,-9.65789c2.61322,-1.82669 6.71908,-0.46436 9.17069,3.04287c2.45161,3.50722 2.32059,7.8312 -0.29263,9.65789z" data-paper-data="{&quot;origRot&quot;:0,&quot;origPos&quot;:null}"/></g><path d="M96.69759,274.22636c0,-3.02057 2.44865,-5.46921 5.46921,-5.46921c3.02056,0 5.46921,2.44865 5.46921,5.46921c0,3.02057 -2.44865,5.46921 -5.46921,5.46921c-3.02056,0 -5.46921,-2.44864 -5.46921,-5.46921z" data-paper-data="{&quot;origPos&quot;:null}" fill="#fffba7"/></g></g><g data-paper-data="{&quot;origPos&quot;:null,&quot;index&quot;:null}" stroke="none" stroke-linecap="butt"><path d="M169.37827,295.93369l-1.21538,0.15192c-0.95072,0.10759 -1.90855,0.16953 -2.86534,0.16953c-0.95011,-0.18287 -1.94383,-0.21042 -2.85035,-0.54861c-0.43743,-0.1632 -0.83359,-0.50516 -1.06345,-0.91154c-2.10212,-3.71627 -1.98269,-5.81438 2.58306,-7.56224c0.54914,-0.21023 1.13108,0.32245 1.69205,0.49869c0.49745,0.15628 0.92344,0.28131 1.31133,0.40532c-0.71544,-3.36236 -2.3086,-6.35436 -4.09681,-9.41986c0,0 -1.14824,-1.96841 0.82017,-3.11666c1.96841,-1.14824 3.11665,0.82018 3.11665,0.82018c2.26205,3.8778 4.03193,7.61471 4.77579,11.90384c0.68398,-0.36268 1.44965,-0.67422 2.42615,-0.96452c0.60042,-0.17849 1.24838,-0.70497 1.82307,-0.45576c5.45963,2.36755 4.15886,4.87163 -0.10511,7.56787c-1.72502,1.09078 -3.62002,0.85463 -5.4337,0.19075c-0.3127,0.09976 -0.68935,0.15576 -1.08613,0.07306c-0.03343,0.46027 -0.13923,0.83429 -0.36405,1.00489c0.30226,0.1077 0.53206,0.19315 0.53206,0.19315z" fill="#65a96e" stroke-width="0.5"/><g stroke-width="0"><g data-paper-data="{&quot;origPos&quot;:null}" fill="#dc91ff"><path d="M172.3214,274.20121c3.62212,2.27843 5.18221,6.31329 3.48455,9.01213c-1.69766,2.69883 -6.01018,3.03964 -9.63229,0.76121c-3.62212,-2.27843 -5.18221,-6.3133 -3.48455,-9.01213c1.69765,-2.69883 6.01018,-3.03964 9.6323,-0.76121z" data-paper-data="{&quot;origRot&quot;:0,&quot;origPos&quot;:null}"/><path d="M159.86375,264.78201c3.62212,2.27843 5.1822,6.31329 3.48455,9.01213c-1.69765,2.69884 -6.01017,3.03964 -9.63229,0.76121c-3.62212,-2.27843 -5.18221,-6.31329 -3.48455,-9.01213c1.69765,-2.69884 6.01018,-3.03964 9.6323,-0.76121z" data-paper-data="{&quot;origRot&quot;:0,&quot;origPos&quot;:null}"/></g><g data-paper-data="{&quot;origPos&quot;:null,&quot;origRot&quot;:0}" fill="#dc91ff"><path d="M162.98968,265.07796c2.45161,-3.50722 6.55747,-4.86956 9.17069,-3.04287c2.61322,1.82669 2.74424,6.15067 0.29262,9.65789c-2.45161,3.50722 -6.55747,4.86956 -9.17069,3.04287c-2.61322,-1.82669 -2.74424,-6.15067 -0.29262,-9.65789z" data-paper-data="{&quot;origRot&quot;:0,&quot;origPos&quot;:null}"/><path d="M152.97672,277.06358c2.45161,-3.50722 6.55746,-4.86955 9.17068,-3.04287c2.61322,1.82669 2.74424,6.15067 0.29263,9.65789c-2.45161,3.50722 -6.55747,4.86956 -9.17069,3.04287c-2.61322,-1.82669 -2.74424,-6.15068 -0.29262,-9.65789z" data-paper-data="{&quot;origRot&quot;:0,&quot;origPos&quot;:null}"/></g><path d="M162.71486,279.39173c-3.02056,0 -5.46922,-2.44864 -5.46922,-5.46921c0,-3.02056 2.44865,-5.46921 5.46922,-5.46921c3.02056,0 5.46921,2.44865 5.46921,5.46921c0,3.02057 -2.44864,5.46921 -5.46921,5.46921z" data-paper-data="{&quot;origPos&quot;:null}" fill="#fffba7"/></g></g></g><path d="M486.00609,366.97l-493.51352,1.49689c0,-20.15415 0,-40.3083 0,-60.46246h490.88069c0.19361,6.68646 2.63283,58.96557 2.63283,58.96557z" data-paper-data="{&quot;origPos&quot;:null,&quot;index&quot;:null}" fill="url(#color-10)" stroke="none" stroke-width="1.22826" stroke-linecap="butt"/><path d="" fill="#f5e862" stroke="none" stroke-width="0.5" stroke-linecap="butt"/></g></g></svg>