<svg version="1.1" xmlns="http://www.w3.org/2000/svg" xmlns:xlink="http://www.w3.org/1999/xlink" width="437" height="90.79587" viewBox="0,0,437,90.79587"><defs><linearGradient x1="240" y1="135.60206" x2="240" y2="224.39795" gradientUnits="userSpaceOnUse" id="color-1"><stop offset="0" stop-color="#ffffff"/><stop offset="1" stop-color="#d8d8d8"/></linearGradient><linearGradient x1="240" y1="135.60208" x2="240" y2="224.39795" gradientUnits="userSpaceOnUse" id="color-2"><stop offset="0" stop-color="#343434"/><stop offset="1" stop-color="#090909"/></linearGradient><radialGradient cx="442.80745" cy="205.05499" r="17.9081" gradientUnits="userSpaceOnUse" id="color-3"><stop offset="0" stop-color="#ffffff"/><stop offset="1" stop-color="#e5e5e5"/></radialGradient></defs><g transform="translate(-21.5,-134.60208)"><g data-paper-data="{&quot;isPaintingLayer&quot;:true}" fill-rule="nonzero" stroke-linejoin="miter" stroke-miterlimit="10" stroke-dasharray="" stroke-dashoffset="0" style="mix-blend-mode: normal"><path d="M22.5,224.39795v-88.79587h435v88.79587z" data-paper-data="{&quot;origPos&quot;:null}" fill="url(#color-1)" stroke="url(#color-2)" stroke-width="2" stroke-linecap="butt"/><text transform="translate(34,157.40423) scale(0.3438,0.3438)" font-size="40" xml:space="preserve" data-paper-data="{&quot;origPos&quot;:null}" fill="#d1d1d1" fill-rule="nonzero" stroke="#000000" stroke-width="10" stroke-linecap="butt" stroke-linejoin="miter" stroke-miterlimit="10" stroke-dasharray="" stroke-dashoffset="0" font-family="Sans Serif" font-weight="normal" text-anchor="start" style="mix-blend-mode: normal"><tspan x="0" dy="0">Toad</tspan></text><text transform="translate(34,157.40423) scale(0.3438,0.3438)" font-size="40" xml:space="preserve" data-paper-data="{&quot;origPos&quot;:null}" fill="#d1d1d1" fill-rule="nonzero" stroke="none" stroke-width="1" stroke-linecap="butt" stroke-linejoin="miter" stroke-miterlimit="10" stroke-dasharray="" stroke-dashoffset="0" font-family="Sans Serif" font-weight="normal" text-anchor="start" style="mix-blend-mode: normal"><tspan x="0" dy="0">Toad</tspan></text><g data-paper-data="{&quot;origPos&quot;:null}"><path d="M443.30675,200.60899c2.5136,0 4.7909,1.0212 6.4406,2.6702c1.6489,1.6496 2.6702,3.9269 2.6702,6.4405c0,2.5136 -1.0213,4.791 -2.6702,6.4406c-1.6497,1.649 -3.927,2.6702 -6.4406,2.6702c-2.5136,0 -4.7909,-1.0212 -6.4406,-2.6702c-1.6489,-1.6496 -2.6701,-3.927 -2.6701,-6.4406c0,-2.5136 1.0212,-4.7909 2.6701,-6.4405c1.6497,-1.649 3.927,-2.6702 6.4406,-2.6702z" fill="url(#color-3)" stroke="#000000" stroke-width="2.0785" stroke-linecap="butt"/><path d="M440.27435,205.05919l5.6119,0.4503l1.7321,3.187l-3.6374,2.9446l3.3603,-0.5197l0.7967,3.4642l-7.4479,-0.0693l-1.9053,-2.4249l4.6766,-3.3256l-4.5727,-0.3464z" fill="#000000" stroke="none" stroke-width="0.69283" stroke-linecap="round"/></g><g data-paper-data="{&quot;origPos&quot;:null}" stroke="none" stroke-width="1" stroke-linecap="butt"><path d="M38.20295,169.00539l0.064,0.119l0.474,6.927h0.055l2.488,-2.607c1.464,1.975 2.215,2.962 2.251,2.962c0.632,-3.093 1.027,-4.949 1.185,-5.569c2.686,0.517 4.029,0.833 4.029,0.948c-1.616,5.135 -2.543,8.039 -2.78,8.714c-0.571,0.036 -1.835,0.155 -3.792,0.355c-0.869,-2.078 -1.303,-3.144 -1.303,-3.199c-0.073,0.006 -0.529,0.914 -1.367,2.725h-0.055c-2.607,-0.176 -3.91,-0.334 -3.91,-0.474c-1.465,-6.459 -2.197,-9.777 -2.197,-9.953v-0.118c0,-0.122 1.62,-0.398 4.858,-0.83z" data-paper-data="{&quot;origPos&quot;:null}" fill="#000000"/><path d="M53.42495,171.75838c2.309,0.62 3.533,0.996 3.673,1.13c1.27,1.799 1.984,2.835 2.142,3.108c-0.821,2.601 -1.292,3.901 -1.413,3.901c-2.734,0.638 -4.165,0.957 -4.293,0.957c-2.26,-1.318 -3.464,-2.054 -3.609,-2.206c-0.079,-2.455 -0.119,-3.81 -0.119,-4.065c-0.036,-0.073 -0.055,-0.127 -0.055,-0.164c2.334,-1.774 3.54,-2.661 3.619,-2.661zM53.25095,175.09439c-0.036,0.243 -0.091,1.127 -0.164,2.652l2.033,0.456c0.486,-1.519 0.729,-2.331 0.729,-2.434c-1.616,-0.486 -2.482,-0.729 -2.598,-0.729z" data-paper-data="{&quot;origPos&quot;:null}" fill="#000000"/><path d="M61.45495,171.74939c3.609,0.498 5.414,0.805 5.414,0.92c1.422,1.222 2.132,1.875 2.132,1.96c-0.577,1.805 -0.905,2.901 -0.984,3.29c0.577,1.282 0.905,2.048 0.984,2.297c0,0.073 -0.941,0.267 -2.825,0.583c-0.024,-0.103 -0.198,-0.334 -0.52,-0.692c-2.6,0.498 -4.001,0.747 -4.201,0.747l-1.386,-3.746l3.054,-1.613c0.492,0.079 1.26,0.118 2.306,0.118c0,-0.133 0.018,-0.538 0.054,-1.212c-0.176,0 -1.75,0.115 -4.721,0.346l-0.055,-0.118c0.413,-1.92 0.662,-2.88 0.748,-2.88zM63.34995,177.10839c0,0.067 0.195,0.778 0.584,2.133h0.054c0.766,-0.498 1.149,-0.827 1.149,-0.985l0.118,-0.975c-0.145,0 -0.78,-0.058 -1.905,-0.173z" data-paper-data="{&quot;origPos&quot;:null}" fill="#000000"/><path d="M73.95995,168.99638c0.036,0.055 0.206,1.72 0.51,4.995c2.346,-0.717 3.594,-1.076 3.746,-1.076l2.325,1.586c-0.377,3.464 -0.623,5.487 -0.739,6.071l-3.226,0.109c0,-0.037 -0.022,-0.055 -0.064,-0.055l0.064,-0.228c0,-0.492 0.073,-1.987 0.218,-4.484c-0.887,-0.036 -1.546,-0.055 -1.977,-0.055h-0.228c0.261,2.777 0.392,4.29 0.392,4.539l-3.063,0.456c-0.115,-0.389 -0.796,-4.019 -2.042,-10.892c0,-0.194 0.474,-0.346 1.422,-0.456c1.197,-0.34 2.085,-0.51 2.662,-0.51z" data-paper-data="{&quot;origPos&quot;:null}" fill="#000000"/><path d="M82.66395,178.88539c1.653,0.195 2.482,0.304 2.488,0.328c-1.002,2.358 -1.564,3.598 -1.686,3.719c-0.826,-0.103 -1.239,-0.188 -1.239,-0.255c0.218,-2.528 0.352,-3.792 0.401,-3.792z" data-paper-data="{&quot;origPos&quot;:null}" fill="#000000"/><path d="M91.09495,169.00539c1.86,0.037 3.224,0.055 4.093,0.055c0.079,0 0.319,3.731 0.72,11.193c-0.31,0.079 -1.392,0.279 -3.245,0.601c-0.091,0 -0.392,-2.285 -0.902,-6.854c-0.043,-0.109 -0.265,-1.774 -0.666,-4.995z" data-paper-data="{&quot;origPos&quot;:null}" fill="#000000"/><path d="M100.60195,171.75838c2.309,0.62 3.533,0.996 3.673,1.13c1.27,1.799 1.984,2.835 2.142,3.108c-0.821,2.601 -1.291,3.901 -1.413,3.901c-2.734,0.638 -4.165,0.957 -4.293,0.957c-2.26,-1.318 -3.463,-2.054 -3.609,-2.206c-0.079,-2.455 -0.119,-3.81 -0.119,-4.065c-0.036,-0.073 -0.054,-0.127 -0.054,-0.164c2.333,-1.774 3.539,-2.661 3.618,-2.661zM100.37395,175.09439c-0.037,0.243 -0.091,1.127 -0.164,2.652l2.032,0.456c0.523,-1.519 0.784,-2.331 0.784,-2.434c-1.616,-0.486 -2.482,-0.729 -2.597,-0.729z" data-paper-data="{&quot;origPos&quot;:null}" fill="#000000"/><path d="M110.91895,171.75838c2.309,0.62 3.534,0.996 3.674,1.13c1.27,1.799 1.984,2.835 2.142,3.108c-0.821,2.601 -1.292,3.901 -1.413,3.901c-2.735,0.638 -4.166,0.957 -4.293,0.957c-2.261,-1.318 -3.464,-2.054 -3.61,-2.206c-0.079,-2.455 -0.118,-3.81 -0.118,-4.065c-0.037,-0.073 -0.055,-0.127 -0.055,-0.164c2.334,-1.774 3.54,-2.661 3.619,-2.661zM110.74595,175.09439c-0.036,0.243 -0.091,1.127 -0.164,2.652l2.033,0.456c0.486,-1.519 0.729,-2.331 0.729,-2.434c-1.616,-0.486 -2.482,-0.729 -2.598,-0.729z" data-paper-data="{&quot;origPos&quot;:null}" fill="#000000"/><path d="M121.58295,168.99638c0.086,0.243 0.277,1.966 0.575,5.168l2.734,-3.063h0.064c0.425,0.353 1.212,1.097 2.361,2.234v0.063l-2.616,2.161c1.968,1.318 3.011,2.062 3.126,2.233c-1.24,1.379 -1.984,2.166 -2.233,2.36l-3.181,-2.935c0.128,1.313 0.191,2.291 0.191,2.935c-0.152,0.085 -1.279,0.319 -3.381,0.702c-0.17,-0.851 -0.723,-4.506 -1.659,-10.965c0.389,-0.127 1.729,-0.425 4.019,-0.893z" data-paper-data="{&quot;origPos&quot;:null}" fill="#000000"/><path d="M134.62595,171.74939c3.61,0.498 5.415,0.805 5.415,0.92c1.421,1.222 2.132,1.875 2.132,1.96c-0.577,1.805 -0.905,2.901 -0.984,3.29c0.577,1.282 0.905,2.048 0.984,2.297c0,0.073 -0.942,0.267 -2.825,0.583c-0.025,-0.103 -0.198,-0.334 -0.52,-0.692c-2.6,0.498 -4.001,0.747 -4.202,0.747l-1.385,-3.746l3.053,-1.613c0.493,0.079 1.261,0.118 2.306,0.118c0,-0.133 0.019,-0.538 0.055,-1.212c-0.176,0 -1.75,0.115 -4.721,0.346l-0.055,-0.118c0.413,-1.92 0.662,-2.88 0.747,-2.88zM136.52195,177.10839c0,0.067 0.195,0.778 0.584,2.133h0.054c0.766,-0.498 1.149,-0.827 1.149,-0.985l0.118,-0.975c-0.146,0 -0.781,-0.058 -1.905,-0.173z" data-paper-data="{&quot;origPos&quot;:null}" fill="#000000"/><path d="M145.77395,168.99638l4.01,0.711l-0.383,3.044c0.796,-0.042 1.38,-0.064 1.75,-0.064h0.584l0.127,-0.063l0.064,0.127c-0.128,1.847 -0.237,2.887 -0.328,3.117l-0.128,-0.073c-0.091,0 -0.911,-0.042 -2.461,-0.127c-0.085,1.428 -0.149,3.135 -0.191,5.122l-0.128,0.064c-1.956,-0.128 -3.123,-0.237 -3.5,-0.328l0.064,-0.255c0,-0.529 0.085,-2.17 0.255,-4.922c-1.64,-0.091 -2.461,-0.201 -2.461,-0.328c0.085,-2.03 0.195,-3.045 0.328,-3.045l2.398,0.456v-0.784c0,-0.638 -0.025,-1.501 -0.073,-2.588c0.048,0 0.073,-0.021 0.073,-0.064z" data-paper-data="{&quot;origPos&quot;:null}" fill="#000000"/><path d="M158.90795,171.74939c3.609,0.498 5.414,0.805 5.414,0.92c1.422,1.222 2.133,1.875 2.133,1.96c-0.578,1.805 -0.906,2.901 -0.985,3.29c0.577,1.282 0.906,2.048 0.985,2.297c0,0.073 -0.942,0.267 -2.826,0.583c-0.024,-0.103 -0.197,-0.334 -0.519,-0.692c-2.601,0.498 -4.002,0.747 -4.202,0.747l-1.386,-3.746l3.054,-1.613c0.492,0.079 1.261,0.118 2.306,0.118c0,-0.133 0.018,-0.538 0.054,-1.212c-0.176,0 -1.75,0.115 -4.721,0.346l-0.055,-0.118c0.413,-1.92 0.663,-2.88 0.748,-2.88zM160.80395,177.10839c0,0.067 0.194,0.778 0.583,2.133h0.055c0.765,-0.498 1.148,-0.827 1.148,-0.985l0.118,-0.975c-0.145,0 -0.78,-0.058 -1.904,-0.173z" data-paper-data="{&quot;origPos&quot;:null}" fill="#000000"/><path d="M167.32995,169.00539c1.859,0.037 3.223,0.055 4.092,0.055c0.079,0 0.319,3.731 0.72,11.193c-0.31,0.079 -1.391,0.279 -3.245,0.601c-0.091,0 -0.392,-2.285 -0.902,-6.854c-0.043,-0.109 -0.264,-1.774 -0.665,-4.995z" data-paper-data="{&quot;origPos&quot;:null}" fill="#000000"/><path d="M173.16295,169.00539c1.859,0.037 3.223,0.055 4.092,0.055c0.079,0 0.319,3.731 0.72,11.193c-0.31,0.079 -1.391,0.279 -3.244,0.601c-0.092,0 -0.392,-2.285 -0.903,-6.854c-0.042,-0.109 -0.264,-1.774 -0.665,-4.995z" data-paper-data="{&quot;origPos&quot;:null}" fill="#000000"/><path d="M186.35195,168.99638l4.01,0.711l-0.383,3.044c0.796,-0.042 1.38,-0.064 1.75,-0.064h0.584l0.127,-0.063l0.064,0.127c-0.128,1.847 -0.237,2.887 -0.328,3.117l-0.128,-0.073c-0.091,0 -0.911,-0.042 -2.461,-0.127c-0.085,1.428 -0.148,3.135 -0.191,5.122l-0.128,0.064c-1.956,-0.128 -3.123,-0.237 -3.5,-0.328l0.064,-0.255c0,-0.529 0.085,-2.17 0.255,-4.922c-1.64,-0.091 -2.461,-0.201 -2.461,-0.328c0.086,-2.03 0.195,-3.045 0.329,-3.045l2.397,0.456v-0.784c0,-0.638 -0.025,-1.501 -0.073,-2.588c0.048,0 0.073,-0.021 0.073,-0.064z" data-paper-data="{&quot;origPos&quot;:null}" fill="#000000"/><path d="M197.55395,168.99638c0.036,0.055 0.206,1.72 0.51,4.995c2.345,-0.717 3.594,-1.076 3.746,-1.076l2.324,1.586c-0.376,3.464 -0.623,5.487 -0.738,6.071l-3.227,0.109c0,-0.037 -0.021,-0.055 -0.063,-0.055l0.063,-0.228c0,-0.492 0.073,-1.987 0.219,-4.484c-0.887,-0.036 -1.546,-0.055 -1.978,-0.055h-0.228c0.262,2.777 0.392,4.29 0.392,4.539l-3.062,0.456c-0.116,-0.389 -0.796,-4.019 -2.042,-10.892c0,-0.194 0.474,-0.346 1.422,-0.456c1.197,-0.34 2.084,-0.51 2.662,-0.51z" data-paper-data="{&quot;origPos&quot;:null}" fill="#000000"/><path d="M210.15895,171.75838c2.753,1.416 4.278,2.242 4.576,2.479c-0.395,1.847 -0.629,2.798 -0.702,2.853h-5.761v0.1l1.614,1.996l2.533,-1.294c0.25,0.431 0.608,1.185 1.076,2.26c-0.219,0.073 -1.814,0.307 -4.785,0.702c-2.461,-1.622 -3.701,-2.467 -3.719,-2.534c0.395,-3.153 0.629,-4.73 0.702,-4.73c2.57,-1.094 4.059,-1.705 4.466,-1.832zM209.56695,173.96339c-0.049,0.122 -0.371,0.605 -0.967,1.45c0,0.255 0.359,0.382 1.076,0.382c0,0.037 0.519,0.125 1.559,0.265c0.285,-0.395 0.428,-0.626 0.428,-0.693c-0.091,-0.541 -0.289,-0.811 -0.593,-0.811z" data-paper-data="{&quot;origPos&quot;:null}" fill="#000000"/><path d="M227.54995,171.74939c1.75,1.118 2.716,1.762 2.898,1.932c-0.632,1.404 -0.993,2.105 -1.085,2.105l-3.317,-1.923h-0.119c0,0.061 -0.143,0.401 -0.428,1.021c3.056,1.647 4.584,2.491 4.584,2.534c-0.856,1.981 -1.339,3.026 -1.449,3.135l-5.186,0.301c-2.017,-1.337 -3.102,-2.042 -3.254,-2.115v-0.054c0,-0.152 0.301,-0.836 0.902,-2.051l4.047,2.105l0.301,-1.203c-2.503,-1.124 -3.992,-1.826 -4.466,-2.105v-0.128c0,-0.231 0.483,-1.254 1.449,-3.071z" data-paper-data="{&quot;origPos&quot;:null}" fill="#2b70c2"/><path d="M234.07595,168.99638l4.01,0.711l-0.383,3.044c0.796,-0.042 1.38,-0.064 1.75,-0.064h0.584l0.127,-0.063l0.064,0.127c-0.128,1.847 -0.237,2.887 -0.328,3.117l-0.128,-0.073c-0.091,0 -0.911,-0.042 -2.461,-0.127c-0.085,1.428 -0.149,3.135 -0.191,5.122l-0.128,0.064c-1.956,-0.128 -3.123,-0.237 -3.5,-0.328l0.064,-0.255c0,-0.529 0.085,-2.17 0.255,-4.922c-1.64,-0.091 -2.461,-0.201 -2.461,-0.328c0.085,-2.03 0.195,-3.045 0.329,-3.045l2.397,0.456v-0.784c0,-0.638 -0.025,-1.501 -0.073,-2.588c0.048,0 0.073,-0.021 0.073,-0.064z" data-paper-data="{&quot;origPos&quot;:null}" fill="#2b70c2"/><path d="M242.57995,171.74939c3.609,0.498 5.414,0.805 5.414,0.92c1.422,1.222 2.132,1.875 2.132,1.96c-0.577,1.805 -0.905,2.901 -0.984,3.29c0.577,1.282 0.905,2.048 0.984,2.297c0,0.073 -0.941,0.267 -2.825,0.583c-0.024,-0.103 -0.198,-0.334 -0.52,-0.692c-2.6,0.498 -4.001,0.747 -4.201,0.747l-1.386,-3.746l3.054,-1.613c0.492,0.079 1.26,0.118 2.306,0.118c0,-0.133 0.018,-0.538 0.054,-1.212c-0.176,0 -1.75,0.115 -4.721,0.346l-0.055,-0.118c0.413,-1.92 0.662,-2.88 0.748,-2.88zM244.47495,177.10839c0,0.067 0.195,0.778 0.584,2.133h0.054c0.766,-0.498 1.149,-0.827 1.149,-0.985l0.118,-0.975c-0.145,0 -0.78,-0.058 -1.905,-0.173z" data-paper-data="{&quot;origPos&quot;:null}" fill="#2b70c2"/><path d="M257.54595,171.74939c1.203,0.674 1.941,1.112 2.215,1.312c-0.985,2.048 -1.513,3.09 -1.586,3.126h-0.064l-1.304,-1.139l-1.54,1.878l0.173,3.418c-0.079,0.073 -1.084,0.243 -3.017,0.51c-0.073,-0.522 -0.547,-3.084 -1.422,-7.684c0,-0.072 1.27,-0.261 3.81,-0.565c0.043,0.049 0.158,0.617 0.347,1.705c1.519,-1.708 2.315,-2.561 2.388,-2.561z" data-paper-data="{&quot;origPos&quot;:null}" fill="#2b70c2"/><path d="M267.83595,171.74939c1.75,1.118 2.716,1.762 2.898,1.932c-0.631,1.404 -0.993,2.105 -1.084,2.105l-3.318,-1.923h-0.118c0,0.061 -0.143,0.401 -0.429,1.021c3.057,1.647 4.585,2.491 4.585,2.534c-0.857,1.981 -1.34,3.026 -1.449,3.135l-5.187,0.301c-2.017,-1.337 -3.101,-2.042 -3.253,-2.115v-0.054c0,-0.152 0.3,-0.836 0.902,-2.051l4.047,2.105l0.301,-1.203c-2.504,-1.124 -3.993,-1.826 -4.467,-2.105v-0.128c0,-0.231 0.484,-1.254 1.45,-3.071z" data-paper-data="{&quot;origPos&quot;:null}" fill="#2b70c2"/><path d="M275.64695,169.33339l0.037,0.073c-0.608,5.366 -0.948,8.185 -1.021,8.458c-1.288,-0.121 -2.103,-0.206 -2.443,-0.255v-0.036l-0.583,-7.62c0.146,-0.049 1.483,-0.255 4.01,-0.62zM272.03795,178.04739c0.042,0.024 0.99,0.097 2.844,0.219l0.036,0.072c-0.285,1.678 -0.468,2.516 -0.547,2.516h-2.114c-0.073,0 -0.17,-0.838 -0.292,-2.516c-0.024,0 -0.036,-0.072 -0.036,-0.218c0.072,-0.025 0.109,-0.049 0.109,-0.073z" data-paper-data="{&quot;origPos&quot;:null}" fill="#000000"/></g></g></g></svg>