<svg version="1.1" xmlns="http://www.w3.org/2000/svg" xmlns:xlink="http://www.w3.org/1999/xlink" width="109.19954" height="170.21028" viewBox="0,0,109.19954,170.21028"><defs><linearGradient x1="243.16667" y1="252.66667" x2="243.16667" y2="276.59583" gradientUnits="userSpaceOnUse" id="color-1"><stop offset="0" stop-color="#ff0000"/><stop offset="1" stop-color="#ffc400"/></linearGradient></defs><g transform="translate(-184.80048,-106.38555)"><g data-paper-data="{&quot;isPaintingLayer&quot;:true}" fill="none" fill-rule="nonzero" stroke="none" stroke-width="none" stroke-linecap="butt" stroke-linejoin="miter" stroke-miterlimit="10" stroke-dasharray="" stroke-dashoffset="0" font-family="none" font-weight="none" font-size="none" text-anchor="none" style="mix-blend-mode: normal"><path d="M204.33334,274.29483v-21.62817h77.66666v21.62817c0,0 -4.74188,-5.84404 -8.88462,-5.02895c-3.31652,0.65253 -10.20096,8.1595 -13.48882,7.25433c-3.4548,-0.95113 -0.4212,-8.80672 -3.93719,-8.67311c-3.68743,0.14013 -9.43717,7.86305 -13.11112,7.38766c-4.24929,-0.54983 -0.64511,-7.61507 -4.91148,-7.61337c-4.4274,0.00177 -10.25317,8.67468 -14.67513,8.35813c-5.068,-0.36279 0.74927,-7.4522 -4.32497,-7.4522c-2.99202,0 -14.33333,5.76751 -14.33333,5.76751z" data-paper-data="{&quot;origPos&quot;:null}" fill="url(#color-1)" stroke="none" stroke-width="0"/><path d="M201.33333,259.66667v-15h84v15z" data-paper-data="{&quot;origPos&quot;:null}" fill="#7c7c7c" stroke="none" stroke-width="NaN"/><g data-paper-data="{&quot;origPos&quot;:null,&quot;origRot&quot;:0}" stroke="none" stroke-width="0"><path d="M279.1867,234.80497c1.57485,4.83543 2.60608,6.86723 -10.57097,11.00952c-11.35809,3.57049 -12.83429,3.1821 -14.73957,-1.7898c-1.23885,-3.23279 3.93255,-7.87112 10.85846,-10.12682c6.9259,-2.25569 13.38036,-2.3836 14.45209,0.90709z" data-paper-data="{&quot;origPos&quot;:null}" fill="#f3c08d"/><path d="M279.61753,230.88134c1.6473,5.05789 2.77041,8.73911 -11.50511,13.38849c-14.93756,4.865 -15.38693,0.72028 -17.03423,-4.33763c-1.64731,-5.0579 3.63432,-11.55732 11.06882,-13.97866c7.4345,-2.42134 15.82323,-0.13011 17.47053,4.92779z" data-paper-data="{&quot;origPos&quot;:null}" fill="#e13936"/></g><g data-paper-data="{&quot;origPos&quot;:null}"><path d="M193.50001,251.5v-16.5h100.5v16.5z" data-paper-data="{&quot;origPos&quot;:null}" fill="#ff6c3b" stroke="none" stroke-width="0"/><path d="M196.50001,248.5v-13.5h97.5v13.5z" data-paper-data="{&quot;origPos&quot;:null}" fill="#ffd13b" stroke="none" stroke-width="0"/><path d="M201.00001,242c0,-2.48528 2.01472,-4.5 4.5,-4.5c2.48528,0 4.5,2.01472 4.5,4.5c0,2.48528 -2.01472,4.5 -4.5,4.5c-2.48528,0 -4.5,-2.01472 -4.5,-4.5z" data-paper-data="{&quot;origPos&quot;:null}" fill="none" stroke="#ff6c3b" stroke-width="2"/><path d="M217.10001,242c0,-2.48528 2.01472,-4.5 4.5,-4.5c2.48528,0 4.5,2.01472 4.5,4.5c0,2.48528 -2.01472,4.5 -4.5,4.5c-2.48528,0 -4.5,-2.01472 -4.5,-4.5z" data-paper-data="{&quot;origPos&quot;:null}" fill="none" stroke="#ff6c3b" stroke-width="2"/><path d="M233.20001,242c0,-2.48528 2.01472,-4.5 4.5,-4.5c2.48528,0 4.5,2.01472 4.5,4.5c0,2.48528 -2.01472,4.5 -4.5,4.5c-2.48528,0 -4.5,-2.01472 -4.5,-4.5z" data-paper-data="{&quot;origPos&quot;:null}" fill="none" stroke="#ff6c3b" stroke-width="2"/><path d="M248.95001,242c0,-2.48528 2.01472,-4.5 4.5,-4.5c2.48528,0 4.5,2.01472 4.5,4.5c0,2.48528 -2.01472,4.5 -4.5,4.5c-2.48528,0 -4.5,-2.01472 -4.5,-4.5z" data-paper-data="{&quot;origPos&quot;:null}" fill="none" stroke="#ff6c3b" stroke-width="2"/><path d="M264.2,242c0,-2.48528 2.01472,-4.5 4.5,-4.5c2.48528,0 4.5,2.01472 4.5,4.5c0,2.48528 -2.01472,4.5 -4.5,4.5c-2.48528,0 -4.5,-2.01472 -4.5,-4.5z" data-paper-data="{&quot;origPos&quot;:null}" fill="none" stroke="#ff6c3b" stroke-width="2"/><path d="M280.95,242c0,-2.48528 2.01472,-4.5 4.5,-4.5c2.48528,0 4.5,2.01472 4.5,4.5c0,2.48528 -2.01472,4.5 -4.5,4.5c-2.48528,0 -4.5,-2.01472 -4.5,-4.5z" data-paper-data="{&quot;origPos&quot;:null}" fill="none" stroke="#ff6c3b" stroke-width="2"/></g><g data-paper-data="{&quot;origPos&quot;:null}" stroke="none" stroke-width="0"><path d="M255.04087,214.35408c0,10.21727 -10.44669,18.5 -23.33334,18.5c-12.88664,0 -24.33333,-1.9494 -24.33333,-12.16667c0,-10.21727 11.44669,-24.83333 24.33333,-24.83333c12.88664,0 23.33334,8.28273 23.33334,18.5z" data-paper-data="{&quot;origPos&quot;:null}" fill="#a36c40"/><path d="M232.59642,189.90964l-0.00639,13.71478l-16.54916,0.22967c0,0 -6.22223,0.8295 -6.22223,-6.94445c0,-6.99616 6.22223,-6.72222 6.22223,-6.72222z" data-paper-data="{&quot;origPos&quot;:null}" fill="#d3c29e"/></g><path d="M256.19962,203.71933c0.72651,-2.80706 8.69551,-7.99688 12.32395,-12.1457c3.62844,-4.14883 5.05781,-12.02004 10.31631,-6.63034c2.28257,2.33951 5.00315,9.33409 1.3747,13.48293c-3.62844,4.14883 -26.01055,13.00355 -24.01496,5.29311z" data-paper-data="{&quot;origRot&quot;:0,&quot;origPos&quot;:null,&quot;index&quot;:null}" fill="#ffdfc0" stroke="none" stroke-width="0"/><g data-paper-data="{&quot;origPos&quot;:null}"><g data-paper-data="{&quot;origPos&quot;:null}"><g data-paper-data="{&quot;origPos&quot;:null}" fill="#f9faaf" stroke="none" stroke-width="0"><path d="M267.8649,221.1066c0,11.27968 -10.85849,20.42368 -24.25311,20.42368c-13.39462,0 -24.25311,-9.14399 -24.25311,-20.42368c0,-7.51824 -0.38802,-14.03009 4.38975,-19.83498c4.95021,-6.01439 11.8417,-6.85504 19.63127,-6.85504c0,0 12.1457,-1.43995 17.27028,4.94823c4.52483,5.64056 7.21492,10.46211 7.21492,21.7418z" data-paper-data="{&quot;origPos&quot;:null}"/></g><g data-paper-data="{&quot;origPos&quot;:null}" fill="#f9faaf" stroke="#d6d496" stroke-width="1.5"><path d="M262.79168,205.09869c0,0 -0.14866,7.75174 -5.88553,7.68421c-5.73542,-0.06751 -5.9478,-7.82456 -5.9478,-7.82456z" data-paper-data="{&quot;origPos&quot;:null}"/></g><g data-paper-data="{&quot;origPos&quot;:null}" fill="#f9faaf" stroke="#d6d496" stroke-width="1.5"><path d="M239.62502,205.09869c0,0 -0.1675,7.75174 -6.63158,7.68421c-6.46245,-0.06751 -6.70175,-7.82456 -6.70175,-7.82456z" data-paper-data="{&quot;origPos&quot;:null}"/></g><path d="M219.83847,226.33781c0,0 -0.539,-1.80728 -0.6805,-2.96403c-0.16867,-1.37882 -0.11428,-3.53306 -0.11428,-3.53306h11.69631v6.49709z" data-paper-data="{&quot;origPos&quot;:null}" fill="#a37540" stroke="none" stroke-width="0"/><path d="M231.82107,226.38573v-6.59292h8.11903v6.59292z" data-paper-data="{&quot;origPos&quot;:null}" fill="#a37540" stroke="none" stroke-width="0"/><path d="M251.89762,226.43806v-6.59292h8.11903v6.59292z" data-paper-data="{&quot;origPos&quot;:null}" fill="#a37540" stroke="none" stroke-width="0"/><path d="M240.93218,226.42352v-6.59292h10.00793v6.59292z" data-paper-data="{&quot;origPos&quot;:null}" fill="#dcc830" stroke="none" stroke-width="0"/><path d="M261.06426,226.43806v-6.59292h6.73014c0,0 0.13876,2.18719 -0.09245,3.71156c-0.15905,1.04861 -0.79644,2.88136 -0.79644,2.88136z" data-paper-data="{&quot;origPos&quot;:null}" fill="#a37540" stroke="none" stroke-width="0"/></g><path d="M261.04087,199.02075c0,5.2467 -16,12.83334 -16,12.83334c0,0 -7.08197,-4.22448 -11.69559,-6.95106c-3.39667,-2.00738 -9.63774,-1.93678 -9.63774,-5.88227c0,-5.2467 7.65583,-6.16666 18.33334,-6.16666c10.6775,0 19,0.91996 19,6.16666z" data-paper-data="{&quot;origPos&quot;:null}" fill="#fc3f3d" stroke="none" stroke-width="0"/></g><path d="M208.97928,217.46904c-5.41263,1.04011 -10.0797,-4.83732 -10.94832,-7.98834c-2.00111,-7.25922 5.51628,-4.52284 10.92891,-5.56296c5.41263,-1.04011 13.91364,-5.30296 16.70387,-4.51427c7.66419,2.16638 -11.27184,17.02544 -16.68447,18.06555z" data-paper-data="{&quot;origRot&quot;:0,&quot;origPos&quot;:null}" fill="#ffdfc0" stroke="none" stroke-width="0"/><g data-paper-data="{&quot;origPos&quot;:null}" stroke="none" stroke-width="0"><g data-paper-data="{&quot;origPos&quot;:null}"><g data-paper-data="{&quot;origPos&quot;:null}"><path d="M292.49726,142.33612c-0.27988,14.86686 -2.41182,21.20777 -17.04234,23.86291c-11.20256,2.03304 -43.69155,1.92729 -55.07536,2.12545c-24.88201,0.43314 -33.5683,-4.18143 -34.00144,-25.55522c-0.16943,-8.36096 1.57605,-16.5109 7.88268,-22.00279c14.77425,-12.86561 27.97727,-14.38092 46.90945,-14.38092c28.34713,0 51.85187,8.07117 51.32701,35.95057z" data-paper-data="{&quot;origPos&quot;:null}" fill="#ffffff"/><path d="M271.70659,137.74291c0,11.81622 -8.92046,21.39515 -19.92441,21.39515c-11.00395,0 -19.92441,-9.57894 -19.92441,-21.39515c0,-11.81621 8.92046,-21.39515 19.92441,-21.39515c11.00395,0 19.92441,9.57894 19.92441,21.39515z" data-paper-data="{&quot;origPos&quot;:null}" fill="#ff5138"/><path d="M185.29816,150.67284c-0.34672,-5.14109 -1.03439,-6.63717 1.41495,-16.4022c0.14748,-3.90451 3.60873,-9.04402 3.60873,-9.04402c0,0 11.06791,1.21351 15.18655,4.72352c4.83289,4.11872 5.5155,10.19882 5.9554,16.53342c0.46258,6.66118 -0.39065,10.99536 -4.58844,16.69822c-2.03304,2.76197 -2.7083,3.10776 -2.7083,3.10776c0,0 -8.10047,1.15006 -11.77158,-1.03207c-4.34643,-3.39689 -5.69883,-5.85925 -7.09731,-14.58464z" data-paper-data="{&quot;origPos&quot;:null,&quot;origRot&quot;:0}" fill="#ff5138"/><path d="M289.19086,126.82287c0,0 3.63631,1.29149 3.7779,16.01825c0.12411,12.90913 -4.1097,17.24197 -4.1097,17.24197c0,0 -7.85544,-1.31053 -7.97955,-17.5442c-0.1126,-14.72701 8.31135,-15.71602 8.31135,-15.71602z" data-paper-data="{&quot;origPos&quot;:null}" fill="#ff5138"/></g><g data-paper-data="{&quot;origPos&quot;:null}"><path d="M268.87141,179.86444c-0.53827,13.76018 -10.82953,20.09838 -24.93407,20.09838c-14.10454,0 -27.39622,-4.82791 -27.95638,-18.58722c-0.30223,-7.42385 -1.05781,-14.96044 -1.05781,-14.96044c0,0 20.35245,-2.95729 27.38231,-2.72223c13.61672,0.45531 26.73091,4.18896 26.73091,4.18896c0,0 0.13727,4.25647 -0.16496,11.98255z" data-paper-data="{&quot;origPos&quot;:null}" fill="#ffdfc0"/><path d="M250.38483,189.04235c0,0 -6.34397,6.61219 -11.30929,5.72288c-4.96532,-0.88931 -5.61484,-9.05855 -5.61484,-9.05855c0,0 3.51921,2.06633 7.46943,2.77383c3.95022,0.7075 8.89113,0.56184 8.89113,0.56184z" data-paper-data="{&quot;origPos&quot;:null,&quot;origRot&quot;:0}" fill="#480d0d"/><g data-paper-data="{&quot;origPos&quot;:null}"><path d="M256.03783,175.55647c0,3.8391 -0.94143,6.8817 -3.62678,6.95131c-2.9626,0.0768 -3.62677,-3.11221 -3.62677,-6.95131c0,-3.8391 0.80282,-6.95131 3.62677,-6.95131c2.82395,0 3.62678,3.11221 3.62678,6.95131z" data-paper-data="{&quot;origPos&quot;:null}" fill="#000000"/><path d="M254.8608,172.60586c0,1.28025 -0.56653,2.29487 -2.18251,2.31808c-1.78283,0.02561 -2.1825,-1.03784 -2.1825,-2.31808c0,-1.28025 0.48311,-2.31808 2.1825,-2.31808c1.69939,0 2.18251,1.03784 2.18251,2.31808z" data-paper-data="{&quot;origPos&quot;:null}" fill="#aaaaaa"/></g><g data-paper-data="{&quot;origPos&quot;:null}"><path d="M243.78623,175.78432c0,3.8391 -0.94143,6.8817 -3.62678,6.95131c-2.9626,0.0768 -3.62677,-3.11221 -3.62677,-6.95131c0,-3.8391 0.80282,-6.95131 3.62677,-6.95131c2.82395,0 3.62678,3.11221 3.62678,6.95131z" data-paper-data="{&quot;origPos&quot;:null}" fill="#000000"/><path d="M242.40739,172.66078c0,1.28025 -0.56653,2.29487 -2.18251,2.31808c-1.78283,0.02561 -2.18251,-1.03784 -2.18251,-2.31808c0,-1.28025 0.48312,-2.31808 2.18251,-2.31808c1.69939,0 2.18251,1.03784 2.18251,2.31808z" data-paper-data="{&quot;origPos&quot;:null}" fill="#aaaaaa"/></g></g></g><g data-paper-data="{&quot;origPos&quot;:null}"><path d="M185.71944,153.37863c0,0 -0.95011,-5.17527 -0.91818,-8.76202c0.02382,-2.67604 1.06104,-7.2856 1.06104,-7.2856c0,0 42.39384,-8.17944 66.84594,-8.93433c17.08302,-0.52739 39.58263,5.64862 39.58263,5.64862c0,0 0.66034,5.55323 0.71724,8.28466c0.07319,3.51278 -0.38391,7.71534 -0.38391,7.71534c0,0 -24.92789,-5.61843 -39.60292,-5.16086c-27.04593,0.8433 -67.30184,8.49419 -67.30184,8.49419z" data-paper-data="{&quot;origPos&quot;:null}" fill="#f3c640"/><g data-paper-data="{&quot;origPos&quot;:null}"><path d="M276.62739,135.89602c-0.41507,14.94254 -9.63875,22.88461 -17.43269,22.88461c-7.55854,0 -20.13766,-13.80112 -20.13766,-13.80112l-0.20048,-15.36554c0,0 12.5442,-17.5 20.33814,-17.5c7.79394,0 17.87249,7.94921 17.43269,23.78205z" data-paper-data="{&quot;origPos&quot;:null}" fill="#a7a7a7"/><path d="M274.13702,135.4473c0,10.90408 -5.57492,19.74359 -12.45192,19.74359c-6.877,0 -12.45192,-8.83951 -12.45192,-19.74359c0,-10.90408 5.57492,-19.7436 12.45192,-19.7436c6.877,0 12.45192,8.83952 12.45192,19.7436z" data-paper-data="{&quot;origPos&quot;:null}" fill="#f2ecc1"/><path d="M272.50002,135.33334c0,7.45585 -3.73096,13.5 -8.33333,13.5c-4.60237,0 -8.33333,-6.04415 -8.33333,-13.5c0,-7.45584 3.73096,-13.5 8.33333,-13.5c4.60237,0 8.33333,6.04416 8.33333,13.5z" data-paper-data="{&quot;origPos&quot;:null}" fill="#fffaca"/></g></g></g><g data-paper-data="{&quot;origPos&quot;:null,&quot;origRot&quot;:0}" stroke="none" stroke-width="0"><path d="M233.99123,244.41519c-1.93234,4.704 -2.4628,6.91991 -15.18494,1.5403c-10.96598,-4.637 -11.83904,-5.88911 -10.07005,-10.91112c1.15022,-3.26538 8.09454,-3.44933 14.8322,-0.68159c6.73764,2.76774 11.73784,6.85116 10.42282,10.0524z" data-paper-data="{&quot;origPos&quot;:null}" fill="#f3c08d"/><path d="M236.86101,241.70503c-2.02125,4.92041 -3.5501,8.45245 -17.43759,2.74764c-14.53153,-5.96937 -12.18914,-9.41812 -10.1679,-14.33854c2.02125,-4.92043 10.25507,-6.45086 17.48748,-3.47987c7.23243,2.97099 12.13925,10.15036 10.118,15.07077z" data-paper-data="{&quot;origPos&quot;:null}" fill="#e13936"/></g><path d="M242.98699,193.41058c0,0.93374 -1.34568,1.69068 -3.00565,1.69068c-1.65997,0 -3.00565,-0.75694 -3.00565,-1.69068c0,-0.93374 1.34568,-1.69068 3.00565,-1.69068c1.65997,0 3.00565,0.75694 3.00565,1.69068z" fill="#ff89ca" stroke="none" stroke-width="0"/></g></g></svg>