<svg version="1.1" xmlns="http://www.w3.org/2000/svg" xmlns:xlink="http://www.w3.org/1999/xlink" width="437" height="90.79587" viewBox="0,0,437,90.79587"><defs><linearGradient x1="240" y1="135.60206" x2="240" y2="224.39795" gradientUnits="userSpaceOnUse" id="color-1"><stop offset="0" stop-color="#ffffff"/><stop offset="1" stop-color="#d8d8d8"/></linearGradient><linearGradient x1="240" y1="135.60208" x2="240" y2="224.39795" gradientUnits="userSpaceOnUse" id="color-2"><stop offset="0" stop-color="#343434"/><stop offset="1" stop-color="#090909"/></linearGradient><radialGradient cx="443.8065" cy="206.54466" r="17.9081" gradientUnits="userSpaceOnUse" id="color-3"><stop offset="0" stop-color="#ffffff"/><stop offset="1" stop-color="#e5e5e5"/></radialGradient></defs><g transform="translate(-21.5,-134.60208)"><g data-paper-data="{&quot;isPaintingLayer&quot;:true}" fill-rule="nonzero" stroke-linejoin="miter" stroke-miterlimit="10" stroke-dasharray="" stroke-dashoffset="0" style="mix-blend-mode: normal"><path d="M22.5,224.39795v-88.79587h435v88.79587z" data-paper-data="{&quot;origPos&quot;:null}" fill="url(#color-1)" stroke="url(#color-2)" stroke-width="2" stroke-linecap="butt"/><path d="M37.37511,156.01317c1.9723,0.9977 2.9864,1.4965 3.0416,1.4965c0,0.0873 -0.4116,0.8792 -1.2333,2.3757c-0.0194,0 -0.0388,0 -0.0574,0c-0.0664,0 -1.0112,-0.4466 -2.8366,-1.3399c-0.3094,0.4138 -0.6189,0.8277 -0.9283,1.2408c1.5726,0.7568 3.4823,1.721 5.7297,2.8939c-1.0201,1.8142 -1.7434,3.02 -2.1706,3.6173l-4.6448,0.4108c-2.1207,-1.4302 -3.2415,-2.1706 -3.3623,-2.2198c0,-0.0187 0,-0.0381 0,-0.0574c0,-0.1537 0.4303,-0.8576 1.2908,-2.1125c0.0358,0 0.0716,0 0.1074,0c0.3393,0.2028 1.4056,0.7867 3.1974,1.7508c0.3617,-0.4109 0.7233,-0.8217 1.085,-1.2333c-3.2937,-1.6763 -5.1183,-2.6248 -5.4748,-2.844c0,-0.0164 0,-0.0328 0,-0.0492c1.047,-2.0387 1.6167,-3.0722 1.7099,-3.0991c2.7239,-0.554 4.2391,-0.8306 4.5463,-0.8306z" data-paper-data="{&quot;origPos&quot;:null}" fill="#000000" stroke="none" stroke-width="0.19729" stroke-linecap="butt"/><path d="M46.62291,158.50446c2.4824,1.2765 3.8582,2.0222 4.1266,2.2355c-0.3564,1.6666 -0.5675,2.5241 -0.6331,2.5733c-1.7314,0 -3.4636,0 -5.1951,0c0,0.0298 0,0.0604 0,0.0902l1.4548,1.8001l2.2855,-1.167c0.2245,0.3892 0.5481,1.0685 0.9701,2.0387c-0.1976,0.0656 -1.636,0.2766 -4.3159,0.633c-2.2199,-1.463 -3.3376,-2.225 -3.354,-2.2854c0.3564,-2.844 0.5674,-4.266 0.633,-4.266c2.3183,-0.9866 3.6605,-1.5376 4.0281,-1.6524zM46.08831,160.49387c-0.0432,0.1096 -0.3341,0.5451 -0.8709,1.3064c0,0.2304 0.3228,0.3453 0.9701,0.3453c0,0.0335 0.4683,0.1126 1.4056,0.2386c0.2572,-0.3564 0.3862,-0.5645 0.3862,-0.6249c-0.082,-0.4877 -0.2602,-0.7315 -0.5346,-0.7315c-0.4519,-0.1782 -0.9038,-0.3564 -1.3564,-0.5339z" data-paper-data="{&quot;origPos&quot;:null}" fill="#000000" stroke="none" stroke-width="0.19729" stroke-linecap="butt"/><path d="M56.15861,158.50446c2.4823,1.2765 3.8581,2.0222 4.1265,2.2355c-0.3556,1.6666 -0.5667,2.5241 -0.633,2.5733c-1.7315,0 -3.4629,0 -5.1951,0c0,0.0298 0,0.0604 0,0.0902l1.4548,1.8001l2.2855,-1.167c0.2244,0.3892 0.548,1.0685 0.9701,2.0387c-0.1976,0.0656 -1.636,0.2766 -4.316,0.633c-2.2191,-1.463 -3.3376,-2.225 -3.354,-2.2854c0.3564,-2.844 0.5675,-4.266 0.6331,-4.266c2.3183,-0.9866 3.6612,-1.5376 4.0281,-1.6524zM55.62471,160.49387c-0.044,0.1096 -0.3348,0.5451 -0.8717,1.3064c0,0.2304 0.3236,0.3453 0.9701,0.3453c0,0.0335 0.4683,0.1126 1.4056,0.2386c0.2573,-0.3564 0.3863,-0.5645 0.3863,-0.6249c-0.0821,-0.4877 -0.2603,-0.7315 -0.5339,-0.7315z" data-paper-data="{&quot;origPos&quot;:null}" fill="#000000" stroke="none" stroke-width="0.19729" stroke-linecap="butt"/><path d="M67.66731,156.01317l3.6172,0.6412c-0.0029,0.0254 -0.3422,2.721 -0.3452,2.7456c0.7181,-0.038 1.2438,-0.0574 1.5778,-0.0574c0.176,0 0.3512,0 0.5265,0l0.1148,-0.0574l0.0582,0.1148c-0.1156,1.6666 -0.214,2.6031 -0.2961,2.8119c-0.0387,-0.0223 -0.0768,-0.044 -0.1155,-0.0663c-0.0821,0 -0.8218,-0.0381 -2.2192,-0.1149c-0.0768,1.2878 -0.1342,2.8276 -0.173,4.6202c-0.038,0.0187 -0.0768,0.038 -0.1148,0.0574c-1.765,-0.1148 -2.8171,-0.214 -3.1564,-0.296l0.0574,-0.2304c0,-0.4765 0.0768,-1.9559 0.2297,-4.439c-1.4794,-0.082 -2.2191,-0.1804 -2.2191,-0.296c0.0768,-1.8299 0.1752,-2.7456 0.296,-2.7456l2.1617,0.4109c0,-0.2357 0,-0.4713 0,-0.7069c0,-0.5749 -0.0216,-1.3534 -0.0656,-2.3347c0.044,0 0.0656,-0.0187 0.0656,-0.0574z" data-paper-data="{&quot;origPos&quot;:null}" fill="#000000" stroke="none" stroke-width="0.19729" stroke-linecap="butt"/><path d="M77.77041,156.01317c0.0328,0.0492 0.1864,1.551 0.4601,4.5053c2.1154,-0.6472 3.2421,-0.9701 3.3786,-0.9701l2.0968,1.4302c-0.34,3.1236 -0.5622,4.949 -0.6659,5.4747c-0.9701,0.0328 -1.9402,0.0656 -2.9103,0.0984c0,-0.0328 -0.0194,-0.0492 -0.0574,-0.0492l0.0574,-0.205c0,-0.4444 0.0656,-1.7926 0.1976,-4.0446c-0.8001,-0.0328 -1.3952,-0.0492 -1.7844,-0.0492c-0.0686,0 -0.1365,0 -0.2051,0c0.2357,2.504 0.3535,3.8686 0.3535,4.0938c-0.9209,0.1364 -1.8418,0.2736 -2.762,0.4108c-0.1044,-0.3504 -0.7181,-3.6254 -1.8418,-9.8234c0,-0.1753 0.4273,-0.3125 1.2826,-0.4109c1.0797,-0.3072 1.8798,-0.4608 2.4003,-0.4608z" data-paper-data="{&quot;origPos&quot;:null}" fill="#000000" stroke="none" stroke-width="0.19729" stroke-linecap="butt"/><path d="M85.72821,158.49628c3.2548,0.4489 4.8826,0.7255 4.8826,0.8299c1.2826,1.1013 1.9239,1.6904 1.9239,1.7672c-0.5212,1.6278 -0.8165,2.6173 -0.8881,2.9678c0.5205,1.1565 0.8165,1.847 0.8881,2.0715c0,0.0656 -0.8501,0.2416 -2.5487,0.5264c-0.0216,-0.0932 -0.1782,-0.3012 -0.4683,-0.6249c-2.3459,0.4497 -3.6091,0.6741 -3.7895,0.6741c-0.4168,-1.1259 -0.8337,-2.2526 -1.2498,-3.3786l2.7538,-1.4548c0.4437,0.0708 1.1372,0.1066 2.0797,0.1066c0,-0.1208 0.0164,-0.4847 0.0492,-1.0931c-0.1588,0 -1.5778,0.1036 -4.2578,0.3124c-0.0164,-0.0358 -0.0328,-0.0716 -0.0492,-0.1074c0.3721,-1.7314 0.5973,-2.5971 0.6741,-2.5971zM87.43801,163.32967c0,0.0604 0.1752,0.7017 0.5257,1.9238c0.0164,0 0.0328,0 0.0492,0c0.6905,-0.4496 1.0358,-0.7456 1.0358,-0.8881l0.1073,-0.8799c-0.1319,0 -0.7046,-0.0514 -1.718,-0.1558z" data-paper-data="{&quot;origPos&quot;:null}" fill="#000000" stroke="none" stroke-width="0.19729" stroke-linecap="butt"/><path d="M95.78131,156.01317c1.2058,0.214 2.4115,0.428 3.6173,0.6412c-0.006,0.05 -0.3393,2.6964 -0.3453,2.7456c0.7181,-0.038 1.2438,-0.0574 1.5786,-0.0574h0.5257l0.1149,-0.0574c0.0193,0.038 0.0387,0.0768 0.0581,0.1148c-0.1156,1.6666 -0.214,2.6031 -0.296,2.8119c-0.0388,-0.0223 -0.0768,-0.044 -0.1156,-0.0663c-0.082,0 -0.8217,-0.0381 -2.2191,-0.1149c-0.0768,1.2878 -0.1342,2.8276 -0.173,4.6202l-0.1148,0.0574c-1.765,-0.1148 -2.8172,-0.214 -3.1565,-0.296c0.0187,-0.0768 0.0381,-0.1536 0.0575,-0.2304c0,-0.4765 0.0768,-1.9559 0.2304,-4.439c-1.4802,-0.082 -2.2199,-0.1804 -2.2199,-0.296c0.0768,-1.8299 0.1752,-2.7456 0.296,-2.7456c0.7204,0.1372 1.4414,0.2744 2.1617,0.4109c0,-0.2357 0,-0.4713 0,-0.7069c0,-0.5749 -0.0216,-1.3534 -0.0656,-2.3347c0.044,0 0.0656,-0.0187 0.0656,-0.0574z" data-paper-data="{&quot;origPos&quot;:null}" fill="#000000" stroke="none" stroke-width="0.19729" stroke-linecap="butt"/><path d="M112.51051,158.52087c2.3287,0.0604 3.4934,0.1618 3.4934,0.3042c0.4005,6.0668 0.6003,9.294 0.6003,9.6833c-1.765,1.1237 -3.0282,1.885 -3.7895,2.2855c-2.6859,-0.8441 -4.0281,-1.3266 -4.0281,-1.4466c0.8657,-1.2662 1.3668,-1.9075 1.504,-1.9239c1.463,0.7233 2.3049,1.085 2.5241,1.085c0.2602,-0.3423 0.5205,-0.6845 0.7807,-1.0275c-0.208,-0.8494 -0.3482,-1.3505 -0.419,-1.5041c-0.1208,0 -1.6062,0.2409 -4.4554,0.7233c-1.5622,-2.5375 -2.3429,-3.8387 -2.3429,-3.905c1.3481,-2.1535 2.1699,-3.4167 2.4659,-3.7895c0.0194,0 0.038,0 0.0574,0c0.1589,0 1.343,0.2602 3.5517,0.7807c0,-0.0597 0,-0.1201 0,-0.1805c0,-0.214 -0.0194,-0.5563 -0.0582,-1.0275zM109.92901,162.00607c0.0768,0.17 0.3176,1.0745 0.7233,2.7128c0.51,-0.1641 1.2907,-0.4661 2.3429,-0.9045c-0.2029,-0.9865 -0.3043,-1.548 -0.3043,-1.6852l-0.296,-0.0574c-0.1201,0 -0.2409,0 -0.3617,0c-0.46,0 -1.1617,-0.0217 -2.1042,-0.0657z" data-paper-data="{&quot;origPos&quot;:null}" fill="#47aa19" stroke="none" stroke-width="0.19729" stroke-linecap="butt"/><path d="M123.39431,158.49628c1.0849,0.6077 1.7508,1.0029 1.9976,1.1833c-0.888,1.8471 -1.3645,2.7866 -1.4302,2.8194c-0.0193,0 -0.0387,0 -0.0581,0c-0.3915,-0.3422 -0.7837,-0.6845 -1.1752,-1.0275l-1.3892,1.6934c0.006,0.1245 0.1499,2.9588 0.1559,3.0834c-0.0709,0.0656 -0.9784,0.2192 -2.721,0.46c-0.0656,-0.4712 -0.4929,-2.7813 -1.2825,-6.9302c0,-0.0657 1.1453,-0.2357 3.4368,-0.5093c0.038,0.044 0.1424,0.5562 0.3116,1.5368c1.3706,-1.5398 2.0887,-2.3093 2.1543,-2.3093z" data-paper-data="{&quot;origPos&quot;:null}" fill="#47aa19" stroke="none" stroke-width="0.19729" stroke-linecap="butt"/><path d="M130.70191,158.50446c2.4831,1.2765 3.8588,2.0222 4.1273,2.2355c-0.3565,1.6666 -0.5675,2.5241 -0.6331,2.5733c-1.7322,0 -3.4637,0 -5.1959,0c0,0.0298 0,0.0604 0,0.0902l1.4556,1.8001c0.7613,-0.3885 1.5234,-0.7778 2.2855,-1.167c0.2244,0.3892 0.5473,1.0685 0.9694,2.0387c-0.1969,0.0656 -1.6353,0.2766 -4.3152,0.633c-2.2199,-1.463 -3.3377,-2.225 -3.3541,-2.2854c0.3557,-2.844 0.5667,-4.266 0.6331,-4.266c2.3175,-0.9866 3.6605,-1.5376 4.0274,-1.6524zM130.16801,160.49387c-0.044,0.1096 -0.3341,0.5451 -0.8717,1.3064c0,0.2304 0.3236,0.3453 0.9701,0.3453c0,0.0335 0.469,0.1126 1.4056,0.2386c0.258,-0.3564 0.387,-0.5645 0.387,-0.6249c-0.0828,-0.4877 -0.261,-0.7315 -0.5347,-0.7315z" data-paper-data="{&quot;origPos&quot;:null}" fill="#47aa19" stroke="none" stroke-width="0.19729" stroke-linecap="butt"/><path d="M140.23831,158.50446c2.4823,1.2765 3.8581,2.0222 4.1265,2.2355c-0.3564,1.6666 -0.5674,2.5241 -0.6331,2.5733c-1.7314,0 -3.4636,0 -5.1951,0c0,0.0298 0,0.0604 0,0.0902l1.4548,1.8001l2.2855,-1.167c0.2245,0.3892 0.5481,1.0685 0.9701,2.0387c-0.1976,0.0656 -1.636,0.2766 -4.3159,0.633c-2.2199,-1.463 -3.3376,-2.225 -3.354,-2.2854c0.3564,-2.844 0.5674,-4.266 0.633,-4.266c2.3183,-0.9866 3.6605,-1.5376 4.0282,-1.6524zM139.70361,160.49387c-0.044,0.1096 -0.334,0.5451 -0.8709,1.3064c0,0.2304 0.3228,0.3453 0.9693,0.3453c0,0.0335 0.4691,0.1126 1.4064,0.2386c0.2572,-0.3564 0.3862,-0.5645 0.3862,-0.6249c-0.0827,-0.4877 -0.2602,-0.7315 -0.5346,-0.7315z" data-paper-data="{&quot;origPos&quot;:null}" fill="#47aa19" stroke="none" stroke-width="0.19729" stroke-linecap="butt"/><path d="M152.41281,158.49628l2.7374,1.882c-0.1916,3.1236 -0.3266,4.9491 -0.4027,5.4748c-0.3184,0.0387 -1.2855,0.0961 -2.9021,0.1729l-0.0574,-0.1148c-0.0962,-1.4637 -0.1917,-2.9267 -0.2879,-4.3898l-0.1148,-0.0581c-1.0469,0.2252 -1.768,0.3952 -2.1624,0.51c0.1096,1.8687 0.1648,3.2198 0.1648,4.0527c-1.6331,0.4549 -2.5264,0.6823 -2.68,0.6823c-1.0633,-4.6805 -1.595,-7.1517 -1.595,-7.4149c2.3131,-0.3013 3.5681,-0.4519 3.7649,-0.4519c0,0.0186 0,0.038 0,0.0574c0.0388,0.0276 0.0962,0.5973 0.173,1.7098c2.1207,-1.4085 3.2414,-2.1124 3.3622,-2.1124z" data-paper-data="{&quot;origPos&quot;:null}" fill="#47aa19" stroke="none" stroke-width="0.19729" stroke-linecap="butt"/><path d="M164.29961,158.50446c0.17,0.7009 0.2878,1.1341 0.3534,1.2989c2.422,-0.554 3.7015,-0.8307 3.8388,-0.8307c1.6494,2.3728 2.4748,3.6113 2.4748,3.7157l-1.891,4.0117c-1.3564,-0.2162 -2.7127,-0.4332 -4.0691,-0.6494c0,0.041 0,0.082 0,0.123c0.3176,2.4391 0.4765,3.7351 0.4765,3.8887c-0.0381,0 -0.0574,0.0194 -0.0574,0.0574c-0.3945,-0.038 -0.6905,-0.0574 -0.8881,-0.0574c-0.2357,0 -0.4713,0 -0.7069,0c-0.4109,0 -1.041,-0.0194 -1.8903,-0.0575c-0.0768,-0.2304 -0.6659,-3.7298 -1.7673,-10.4975c0.1857,-0.0768 1.5615,-0.4116 4.1266,-1.0029zM164.59561,161.86666c0.1096,1.2602 0.2081,1.8903 0.2961,1.8903c1.1229,0.3892 1.8112,0.5838 2.0632,0.5838l0.6495,-2.8276c-0.0194,0 -0.0388,0 -0.0582,0c-0.6412,0.0381 -1.6248,0.1559 -2.9506,0.3535z" data-paper-data="{&quot;origPos&quot;:null}" fill="#47aa19" stroke="none" stroke-width="0.19729" stroke-linecap="butt"/><path d="M172.94711,155.19957l3.231,0.5093c-0.4056,1.551 -0.6711,2.3265 -0.7971,2.3265c-1.6994,-0.1148 -2.5487,-0.2274 -2.5487,-0.337c0,-0.7942 0,-1.589 0,-2.3839c0.0164,-0.0768 0.0552,-0.1149 0.1148,-0.1149zM172.04341,159.11217c0.0164,0 0.0328,0 0.0492,0c2.4987,0.4548 3.7485,0.721 3.7485,0.7978c-0.7181,4.0662 -1.1536,6.3323 -1.3072,6.7983c-0.8687,0 -1.7374,0 -2.6061,0c-0.0768,0 -0.1148,-0.0387 -0.1148,-0.1148z" data-paper-data="{&quot;origPos&quot;:null}" fill="#47aa19" stroke="none" stroke-width="0.19729" stroke-linecap="butt"/><path d="M180.54331,158.50446c0.17,0.7009 0.2878,1.1341 0.3534,1.2989c2.422,-0.554 3.7023,-0.8307 3.8388,-0.8307c1.6494,2.3728 2.4748,3.6113 2.4748,3.7157c-0.6308,1.337 -1.2609,2.6747 -1.891,4.0117c-1.3564,-0.2162 -2.7127,-0.4332 -4.0691,-0.6494c0,0.041 0,0.082 0,0.123c0.3176,2.4391 0.4765,3.7351 0.4765,3.8887c-0.0381,0 -0.0574,0.0194 -0.0574,0.0574c-0.3945,-0.038 -0.6905,-0.0574 -0.8874,-0.0574c-0.2364,0 -0.472,0 -0.7076,0c-0.4109,0 -1.041,-0.0194 -1.8903,-0.0575c-0.0768,-0.2304 -0.6659,-3.7298 -1.7673,-10.4975c0.1865,-0.0768 1.5615,-0.4116 4.1266,-1.0029zM180.83931,161.86666c0.1096,1.2602 0.2081,1.8903 0.2961,1.8903c1.1229,0.3892 1.8112,0.5838 2.0632,0.5838l0.6495,-2.8276c-0.0194,0 -0.0388,0 -0.0582,0c-0.6405,0.0381 -1.6248,0.1559 -2.9506,0.3535z" data-paper-data="{&quot;origPos&quot;:null}" fill="#47aa19" stroke="none" stroke-width="0.19729" stroke-linecap="butt"/><path d="M192.71791,158.50446c2.4823,1.2765 3.8581,2.0222 4.1265,2.2355c-0.3564,1.6666 -0.5674,2.5241 -0.6331,2.5733c-1.7314,0 -3.4636,0 -5.1951,0c0,0.0298 0,0.0604 0,0.0902c0.4847,0.6003 0.9702,1.2006 1.4549,1.8001l2.2854,-1.167c0.2245,0.3892 0.5481,1.0685 0.9702,2.0387c-0.1976,0.0656 -1.636,0.2766 -4.316,0.633c-2.2199,-1.463 -3.3376,-2.225 -3.354,-2.2854c0.3564,-2.844 0.5674,-4.266 0.6331,-4.266c2.3182,-0.9866 3.6605,-1.5376 4.0281,-1.6524zM192.18321,160.49387c-0.044,0.1096 -0.334,0.5451 -0.8709,1.3064c0,0.2304 0.3229,0.3453 0.9701,0.3453c0,0.0335 0.4683,0.1126 1.4056,0.2386c0.2572,-0.3564 0.3862,-0.5645 0.3862,-0.6249c-0.082,-0.4877 -0.2602,-0.7315 -0.5346,-0.7315z" data-paper-data="{&quot;origPos&quot;:null}" fill="#47aa19" stroke="none" stroke-width="0.19729" stroke-linecap="butt"/><path d="M205.08111,158.50446c2.0827,0.5585 3.187,0.8985 3.313,1.0193c1.1454,1.6218 1.7896,2.5562 1.9321,2.803c-0.7398,2.3459 -1.1648,3.518 -1.2744,3.518c-2.4659,0.5757 -3.7567,0.8635 -3.8715,0.8635c-2.0387,-1.1893 -3.1244,-1.8522 -3.2556,-1.9894c-0.0709,-2.2139 -0.1067,-3.4361 -0.1067,-3.6665c-0.0328,-0.0656 -0.0492,-0.1148 -0.0492,-0.1476c2.1043,-1.6002 3.1922,-2.4003 3.2631,-2.4003c0.0164,0 0.0328,0 0.0492,0zM204.92531,161.51317c-0.0329,0.2193 -0.0821,1.0164 -0.1477,2.3922c0.6107,0.1364 1.2214,0.2736 1.8329,0.4108c0.4384,-1.3705 0.6577,-2.102 0.6577,-2.1952c-1.4578,-0.4385 -2.2386,-0.6577 -2.3429,-0.6577c0,0.0164 0,0.0335 0,0.0499z" data-paper-data="{&quot;origPos&quot;:null}" fill="#000000" stroke="none" stroke-width="0.19729" stroke-linecap="butt"/><path d="M214.27221,158.49628c1.3423,3.0796 2.0574,4.6768 2.1453,4.7924c0.6629,-2.5159 1.0492,-3.8559 1.1588,-4.0199c2.0939,0.1916 3.1408,0.3564 3.1408,0.4929c0,0.0193 0,0.0387 0,0.0581c-1.469,4.0334 -2.2579,6.1458 -2.3675,6.3375c-1.6226,0.296 -2.7076,0.4795 -3.2556,0.551l-4.0199,-5.9519c0,-0.038 0,-0.0768 0,-0.1148c0.0387,-0.0716 1.1043,-0.7867 3.1981,-2.1453z" data-paper-data="{&quot;origPos&quot;:null}" fill="#000000" stroke="none" stroke-width="0.19729" stroke-linecap="butt"/><path d="M226.25741,158.50446c2.4824,1.2765 3.8581,2.0222 4.1266,2.2355c-0.3557,1.6666 -0.5667,2.5241 -0.6331,2.5733c-1.7315,0 -3.4637,0 -5.1951,0c0,0.0298 0,0.0604 0,0.0902c0.4847,0.6003 0.9701,1.2006 1.4548,1.8001l2.2855,-1.167c0.2244,0.3892 0.5481,1.0685 0.9701,2.0387c-0.1976,0.0656 -1.636,0.2766 -4.3159,0.633c-2.2192,-1.463 -3.3377,-2.225 -3.3541,-2.2854c0.3565,-2.844 0.5675,-4.266 0.6331,-4.266c2.3183,-0.9866 3.6613,-1.5376 4.0281,-1.6524zM225.72281,160.49387c-0.0433,0.1096 -0.3341,0.5451 -0.871,1.3064c0,0.2304 0.3229,0.3453 0.9702,0.3453c0,0.0335 0.4682,0.1126 1.4055,0.2386c0.2573,-0.3564 0.3863,-0.5645 0.3863,-0.6249c-0.082,-0.4877 -0.2602,-0.7315 -0.5346,-0.7315z" data-paper-data="{&quot;origPos&quot;:null}" fill="#000000" stroke="none" stroke-width="0.19729" stroke-linecap="butt"/><path d="M237.03461,158.49628c1.085,0.6077 1.7508,1.0029 1.9977,1.1833c-0.8881,1.8471 -1.3646,2.7866 -1.4302,2.8194c-0.0194,0 -0.0388,0 -0.0582,0l-1.1752,-1.0275l-1.3892,1.6934c0.0038,0.0776 0.1522,3.0058 0.1559,3.0834c-0.0709,0.0656 -0.9783,0.2192 -2.721,0.46c-0.0656,-0.4712 -0.4929,-2.7813 -1.2825,-6.9302c0,-0.0657 1.1453,-0.2357 3.4368,-0.5093c0.038,0.044 0.1424,0.5562 0.3124,1.5368c1.3698,-1.5398 2.0879,-2.3093 2.1535,-2.3093z" data-paper-data="{&quot;origPos&quot;:null}" fill="#000000" stroke="none" stroke-width="0.19729" stroke-linecap="butt"/><path d="M246.31521,156.01317l3.6173,0.6412c-0.0082,0.0679 -0.3371,2.6785 -0.3453,2.7456c0.7181,-0.038 1.2438,-0.0574 1.5786,-0.0574c0.1753,0 0.3505,0 0.5257,0l0.1156,-0.0574l0.0574,0.1148c-0.1156,1.6666 -0.214,2.6031 -0.296,2.8119c-0.0388,-0.0223 -0.0768,-0.044 -0.1148,-0.0663c-0.0828,0 -0.8225,-0.0381 -2.2199,-0.1149c-0.0768,1.2878 -0.1342,2.8276 -0.173,4.6202l-0.1148,0.0574c-1.7643,-0.1148 -2.8172,-0.214 -3.1565,-0.296l0.0575,-0.2304c0,-0.4765 0.0768,-1.9559 0.2304,-4.439c-1.4802,-0.082 -2.2199,-0.1804 -2.2199,-0.296c0.0768,-1.8299 0.1752,-2.7456 0.296,-2.7456c0.7204,0.1372 1.4414,0.2744 2.1617,0.4109c0,-0.2357 0,-0.4713 0,-0.7069c0,-0.5749 -0.0216,-1.3534 -0.0656,-2.3347c0.044,0 0.0656,-0.0187 0.0656,-0.0574z" data-paper-data="{&quot;origPos&quot;:null}" fill="#000000" stroke="none" stroke-width="0.19729" stroke-linecap="butt"/><path d="M256.4183,156.01317c0.0328,0.0492 0.1865,1.551 0.4609,4.5053c2.1147,-0.6472 3.2414,-0.9701 3.3786,-0.9701l2.0961,1.4302c-0.34,3.1236 -0.5623,4.949 -0.6659,5.4747c-0.9701,0.0328 -1.9402,0.0656 -2.9104,0.0984c0,-0.0328 -0.0193,-0.0492 -0.0574,-0.0492l0.0574,-0.205c0,-0.4444 0.0657,-1.7926 0.1976,-4.0446c-0.8001,-0.0328 -1.3951,-0.0492 -1.7843,-0.0492c-0.0679,0 -0.1365,0 -0.2051,0c0.2356,2.504 0.3534,3.8686 0.3534,4.0938c-0.9209,0.1364 -1.8418,0.2736 -2.7619,0.4108c-0.1044,-0.3504 -0.7181,-3.6254 -1.8418,-9.8234c0,-0.1753 0.428,-0.3125 1.2825,-0.4109c1.0798,-0.3072 1.8799,-0.4608 2.4003,-0.4608z" data-paper-data="{&quot;origPos&quot;:null}" fill="#000000" stroke="none" stroke-width="0.19729" stroke-linecap="butt"/><path d="M267.78761,158.50446c2.4823,1.2765 3.8581,2.0222 4.1265,2.2355c-0.3564,1.6666 -0.5674,2.5241 -0.633,2.5733c-1.7315,0 -3.4637,0 -5.1951,0c0,0.0298 0,0.0604 0,0.0902l1.4548,1.8001c0.7621,-0.3885 1.5234,-0.7778 2.2855,-1.167c0.2244,0.3892 0.548,1.0685 0.9701,2.0387c-0.1976,0.0656 -1.636,0.2766 -4.316,0.633c-2.2198,-1.463 -3.3376,-2.225 -3.354,-2.2854c0.3564,-2.844 0.5675,-4.266 0.6331,-4.266c2.3183,-0.9866 3.6605,-1.5376 4.0281,-1.6524zM267.25291,160.49387c-0.0439,0.1096 -0.334,0.5451 -0.8709,1.3064c0,0.2304 0.3229,0.3453 0.9701,0.3453c0,0.0335 0.4683,0.1126 1.4056,0.2386c0.2573,-0.3564 0.3863,-0.5645 0.3863,-0.6249c-0.0821,-0.4877 -0.2603,-0.7315 -0.5347,-0.7315z" data-paper-data="{&quot;origPos&quot;:null}" fill="#000000" stroke="none" stroke-width="0.19729" stroke-linecap="butt"/><path d="M278.5648,158.49628c1.0849,0.6077 1.7508,1.0029 1.9976,1.1833c-0.8881,1.8471 -1.3645,2.7866 -1.4309,2.8194c-0.0187,0 -0.038,0 -0.0574,0l-1.1752,-1.0275l-1.3892,1.6934c0.0037,0.0813 0.1521,3.0021 0.1559,3.0834c-0.0709,0.0656 -0.9784,0.2192 -2.721,0.46c-0.0656,-0.4712 -0.4929,-2.7813 -1.2826,-6.9302c0,-0.0657 1.1454,-0.2357 3.4361,-0.5093c0.0388,0.044 0.1424,0.5562 0.3124,1.5368c1.3706,-1.5398 2.0879,-2.3093 2.1543,-2.3093z" data-paper-data="{&quot;origPos&quot;:null}" fill="#000000" stroke="none" stroke-width="0.19729" stroke-linecap="butt"/><path d="M285.87241,158.50446c2.483,1.2765 3.8581,2.0222 4.1265,2.2355c-0.3557,1.6666 -0.5667,2.5241 -0.6323,2.5733c-1.7322,0 -3.4637,0 -5.1959,0c0,0.0298 0,0.0604 0,0.0902l1.4556,1.8001l2.2847,-1.167c0.2252,0.3892 0.5481,1.0685 0.9701,2.0387c-0.1968,0.0656 -1.636,0.2766 -4.3159,0.633c-2.2191,-1.463 -3.3369,-2.225 -3.3533,-2.2854c0.3557,-2.844 0.5667,-4.266 0.6323,-4.266c2.3183,-0.9866 3.6613,-1.5376 4.0282,-1.6524zM285.33851,160.49387c-0.044,0.1096 -0.3348,0.5451 -0.8717,1.3064c0,0.2304 0.3236,0.3453 0.9701,0.3453c0,0.0335 0.4683,0.1126 1.4056,0.2386c0.258,-0.3564 0.3862,-0.5645 0.3862,-0.6249c-0.082,-0.4877 -0.2602,-0.7315 -0.5339,-0.7315z" data-paper-data="{&quot;origPos&quot;:null}" fill="#000000" stroke="none" stroke-width="0.19729" stroke-linecap="butt"/><path d="M296.80611,156.01317c0.1425,0.252 0.7069,1.4167 1.6935,3.4942c-1.381,1.1066 -2.1073,1.718 -2.1789,1.8328c0,0.0358 0,0.0716 0,0.1067c0,0.1648 -0.0246,0.9261 -0.0738,2.2855c-0.6249,0.1864 -1.3616,0.3482 -2.2117,0.4854c0,-0.0112 0,-0.0224 0,-0.0336l-0.5503,-2.671c0.0164,0 0.5921,-0.7486 1.7262,-2.2444c-0.2662,-0.2767 -0.5316,-0.5533 -0.7971,-0.8307c-0.9157,1.3154 -1.4115,1.973 -1.4883,1.973c-1.3974,-0.5972 -2.1237,-0.9313 -2.1781,-1.0029c0.7613,-1.7098 1.2109,-2.6687 1.3481,-2.8768c2.4824,-0.3012 4.0528,-0.4742 4.7104,-0.5182zM296.24691,164.31616l0.041,0.0738c-0.0276,0.7949 -0.041,1.4168 -0.041,1.8665c0,0.0246 0,0.0492 0,0.0738c0,0.0656 -0.6115,0.1916 -1.8329,0.378c-0.0499,0 -0.1536,-0.6576 -0.3124,-1.973c0.2133,-0.0708 0.9283,-0.211 2.1453,-0.4191z" data-paper-data="{&quot;origPos&quot;:null}" fill="#000000" stroke="none" stroke-width="0.19729" stroke-linecap="butt"/><path d="M305.79891,156.01317c2.2087,0.4936 3.4361,0.7755 3.6829,0.8471c0,0.0193 0,0.038 0,0.0574c-0.0768,1.9782 -0.1342,3.1296 -0.1722,3.4524c0.126,0 0.6927,0.132 1.7016,0.3945c0.9037,-2.7896 1.3944,-4.184 1.4712,-4.184c1.5122,0.6793 2.4741,1.132 2.8857,1.3564c0,0.0194 0,0.038 0,0.0574c-1.6606,3.8641 -2.6038,5.996 -2.8283,6.3956c-0.4161,0.3453 -1.8686,1.6659 -4.357,3.9625c-0.0186,0 -0.038,0 -0.0574,0c-1.5286,-0.7538 -3.058,-1.507 -4.5866,-2.2608c0.4213,-0.7233 0.9313,-1.554 1.5286,-2.4906c0.0276,0 0.7457,0.4713 2.1535,1.4138c0.0194,0 0.0388,0 0.0582,0c0.4713,-0.384 1.0357,-0.9321 1.6934,-1.6442c0,-0.0328 -1.0745,-1.0879 -3.2228,-3.1646c0,-1.3594 0,-2.7187 0,-4.0773z" data-paper-data="{&quot;origPos&quot;:null}" fill="#000000" stroke="none" stroke-width="0.19729" stroke-linecap="butt"/><path d="M319.57671,158.50446c2.0827,0.5585 3.187,0.8985 3.313,1.0193c1.1454,1.6218 1.7889,2.5562 1.9313,2.803c-0.7397,2.3459 -1.164,3.518 -1.2736,3.518c-2.4667,0.5757 -3.7567,0.8635 -3.8723,0.8635c-2.0386,-1.1893 -3.1236,-1.8522 -3.2548,-1.9894c-0.0716,-2.2139 -0.1074,-3.4361 -0.1074,-3.6665c-0.0328,-0.0656 -0.0492,-0.1148 -0.0492,-0.1476c2.1043,-1.6002 3.1922,-2.4003 3.2638,-2.4003c0.0164,0 0.0328,0 0.0492,0zM319.4201,161.51317c-0.0328,0.2193 -0.082,1.0164 -0.1476,2.3922c0.6114,0.1364 1.2221,0.2736 1.8328,0.4108c0.4385,-1.3705 0.6577,-2.102 0.6577,-2.1952c-1.4578,-0.4385 -2.2385,-0.6577 -2.3429,-0.6577c0,0.0164 0,0.0335 0,0.0499z" data-paper-data="{&quot;origPos&quot;:null}" fill="#000000" stroke="none" stroke-width="0.19729" stroke-linecap="butt"/><path d="M330.00861,158.49628c0.0194,0.035 0.0381,0.0708 0.0575,0.1066c-0.3699,1.9618 -0.7397,3.9237 -1.1096,5.8856c0.0186,0 0.038,0 0.0574,0l2.8276,-0.83c0,-1.1095 0,-2.2198 0,-3.3294c0.0112,-0.0768 0.047,-0.1148 0.1074,-0.1148c2.1259,0.1476 3.31,0.2214 3.5509,0.2214c0,0.0388 0.0194,0.0582 0.0574,0.0582c0,0.9366 -0.296,2.8798 -0.8874,5.8282c0,0.17 -0.85,0.2982 -2.5487,0.3862c-0.088,-0.1044 -0.1618,-0.3258 -0.2222,-0.6658c-2.1751,0.4436 -3.4166,0.6658 -3.7239,0.6658c-1.7366,-1.2937 -2.6053,-1.9596 -2.6053,-1.9976c0.296,-3.8857 0.4817,-5.902 0.5585,-6.0504c0.0164,0 0.0328,0 0.0492,0c1.3869,-0.038 2.6635,-0.0932 3.8312,-0.164z" data-paper-data="{&quot;origPos&quot;:null}" fill="#000000" stroke="none" stroke-width="0.19729" stroke-linecap="butt"/><path d="M343.79461,158.50446c2.4712,0.4653 3.7649,0.7315 3.8798,0.7971c0,0.0328 0,0.0656 0,0.0984c-0.5317,1.5018 -0.7972,2.2803 -0.7972,2.3347c-0.0164,0 -0.0328,0 -0.0492,0c-0.1372,0 -0.8008,-0.2133 -1.9894,-0.6413c-0.6637,1.1126 -0.9948,1.7076 -0.9948,1.7844l1.6442,1.5943c1.2714,-1.1946 1.9179,-1.7919 1.9395,-1.7919c0.9925,1.299 1.4884,2.0275 1.4884,2.1863c-0.5429,0.3125 -1.4884,0.9269 -2.8365,1.8418c-2.6084,-0.5644 -4.017,-0.8799 -4.225,-0.9455c0.0492,0.1611 -1.3407,-4.3368 -1.2908,-4.1757z" data-paper-data="{&quot;origPos&quot;:null}" fill="#000000" stroke="none" stroke-width="0.19729" stroke-linecap="butt"/><path d="M350.98741,158.49628c3.2548,0.4489 4.8826,0.7255 4.8826,0.8299c1.2826,1.1013 1.9239,1.6904 1.9239,1.7672c-0.5205,1.6278 -0.8166,2.6173 -0.8881,2.9678c0.5212,1.1565 0.8165,1.847 0.8881,2.0715c0,0.0656 -0.8494,0.2416 -2.5487,0.5264c-0.0217,-0.0932 -0.1775,-0.3012 -0.4683,-0.6249c-2.3459,0.4497 -3.6091,0.6741 -3.7895,0.6741c-0.4169,-1.1259 -0.8329,-2.2526 -1.2498,-3.3786c0.9179,-0.4854 1.8359,-0.9701 2.7538,-1.4548c0.4444,0.0708 1.1371,0.1066 2.0797,0.1066c0,-0.1208 0.0164,-0.4847 0.0499,-1.0931c-0.1595,0 -1.5786,0.1036 -4.2585,0.3124c-0.0164,-0.0358 -0.0328,-0.0716 -0.0492,-0.1074c0.3728,-1.7314 0.5973,-2.5971 0.6741,-2.5971zM352.69721,163.32967c0,0.0604 0.1752,0.7017 0.5257,1.9238c0.0164,0 0.0335,0 0.05,0c0.6904,-0.4496 1.0357,-0.7456 1.0357,-0.8881c-0.0015,0.0082 0.1074,-0.8881 0.1066,-0.8799c-0.1312,0 -0.7039,-0.0514 -1.718,-0.1558z" data-paper-data="{&quot;origPos&quot;:null}" fill="#000000" stroke="none" stroke-width="0.19729" stroke-linecap="butt"/><path d="M365.88291,158.49628c0.9127,0.6271 1.8247,1.2549 2.7374,1.882c-0.1917,3.1236 -0.3259,4.9491 -0.4027,5.4748c-0.3184,0.0387 -1.2855,0.0961 -2.9022,0.1729c-0.0193,-0.0387 -0.038,-0.0768 -0.0574,-0.1148c0.0522,0.7979 -0.34,-5.1884 -0.2878,-4.3898l-0.1148,-0.0581c-1.047,0.2252 -1.7673,0.3952 -2.1625,0.51c0.1096,1.8687 0.1648,3.2198 0.1648,4.0527c-1.633,0.4549 -2.5263,0.6823 -2.6799,0.6823c-1.0634,-4.6805 -1.595,-7.1517 -1.595,-7.4149c2.313,-0.3013 3.568,-0.4519 3.7649,-0.4519c0,0.0186 0,0.038 0,0.0574c0.0387,0.0276 0.0962,0.5973 0.173,1.7098c2.1207,-1.4085 3.2414,-2.1124 3.3622,-2.1124z" data-paper-data="{&quot;origPos&quot;:null}" fill="#000000" stroke="none" stroke-width="0.19729" stroke-linecap="butt"/><path d="M379.77551,158.52087c2.3287,0.0604 3.4935,0.1618 3.4935,0.3042c0.4004,6.0668 0.6002,9.294 0.6002,9.6833c-1.765,1.1237 -3.0281,1.885 -3.7895,2.2855c-2.6851,-0.8441 -4.0281,-1.3266 -4.0281,-1.4466c0.8657,-1.2662 1.3676,-1.9075 1.504,-1.9239c1.4638,0.7233 2.3049,1.085 2.5241,1.085l0.7808,-1.0275c-0.2081,-0.8494 -0.3483,-1.3505 -0.4191,-1.5041c-0.1208,0 -1.6062,0.2409 -4.4554,0.7233c-1.5622,-2.5375 -2.3429,-3.8387 -2.3429,-3.905c1.3482,-2.1535 2.1699,-3.4167 2.4659,-3.7895c0.0194,0 0.0388,0 0.0575,0c0.1588,0 1.3429,0.2602 3.5516,0.7807c0,-0.0597 0,-0.1201 0,-0.1805c0,-0.214 -0.0194,-0.5563 -0.0574,-1.0275c0.038,-0.0194 0.076,-0.0388 0.1148,-0.0574zM377.19401,162.00607c0.0768,0.17 0.3184,1.0745 0.7233,2.7128c0.51,-0.1641 1.2907,-0.4661 2.3429,-0.9045c-0.2028,-0.9865 -0.3042,-1.548 -0.3042,-1.6852l-0.2953,-0.0574c-0.1208,0 -0.2416,0 -0.3617,0c-0.4608,0 -1.1625,-0.0217 -2.105,-0.0657z" data-paper-data="{&quot;origPos&quot;:null}" fill="#000000" stroke="none" stroke-width="0.19729" stroke-linecap="butt"/><path d="M388.06961,158.50446c2.0827,0.5585 3.187,0.8985 3.313,1.0193c1.1454,1.6218 1.7896,2.5562 1.9321,2.803c-0.7397,2.3459 -1.1648,3.518 -1.2744,3.518c-2.4659,0.5757 -3.7567,0.8635 -3.8715,0.8635c-2.0387,-1.1893 -3.1236,-1.8522 -3.2556,-1.9894c-0.0709,-2.2139 -0.1067,-3.4361 -0.1067,-3.6665c-0.0328,-0.0656 -0.0492,-0.1148 -0.0492,-0.1476c2.1043,-1.6002 3.1923,-2.4003 3.2631,-2.4003zM387.91381,161.51317c-0.0328,0.2193 -0.0821,1.0164 -0.1477,2.3922c0.6107,0.1364 1.2222,0.2736 1.8329,0.4108c0.4384,-1.3705 0.6577,-2.102 0.6577,-2.1952c-1.4578,-0.4385 -2.2385,-0.6577 -2.3429,-0.6577z" data-paper-data="{&quot;origPos&quot;:null}" fill="#000000" stroke="none" stroke-width="0.19729" stroke-linecap="butt"/><path d="M399.37321,155.19957l3.2303,0.5093c-0.4049,1.551 -0.6711,2.3265 -0.7971,2.3265c-1.6987,-0.1148 -2.548,-0.2274 -2.548,-0.337c0,-0.7942 0,-1.589 0,-2.3839c0.0164,-0.0768 0.0544,-0.1149 0.1148,-0.1149zM398.46871,159.11217c0.0164,0 0.0328,0 0.0493,0c2.4994,0.4548 3.7484,0.721 3.7484,0.7978c-0.7173,4.0662 -1.1535,6.3323 -1.3064,6.7983c-0.8687,0 -1.7374,0 -2.6061,0c-0.0768,0 -0.1156,-0.0387 -0.1156,-0.1148c0.0768,-2.4935 0.1536,-4.9878 0.2304,-7.4813z" data-paper-data="{&quot;origPos&quot;:null}" fill="#000000" stroke="none" stroke-width="0.19729" stroke-linecap="butt"/><path d="M410.14221,158.49628l2.7374,1.882c-0.1917,3.1236 -0.3259,4.9491 -0.4027,5.4748c-0.3184,0.0387 -1.2855,0.0961 -2.9021,0.1729c-0.0194,-0.0387 -0.0381,-0.0768 -0.0574,-0.1148c0.0119,0.1842 -0.2998,-4.5747 -0.2879,-4.3898l-0.1148,-0.0581c-1.0469,0.2252 -1.768,0.3952 -2.1625,0.51c0.1097,1.8687 0.1648,3.2198 0.1648,4.0527c-1.633,0.4549 -2.5263,0.6823 -2.6799,0.6823c-1.0633,-4.6805 -1.595,-7.1517 -1.595,-7.4149c2.3131,-0.3013 3.568,-0.4519 3.7649,-0.4519c0,0.0186 0,0.038 0,0.0574c0.0388,0.0276 0.0962,0.5973 0.173,1.7098c2.1207,-1.4085 3.2414,-2.1124 3.3622,-2.1124z" data-paper-data="{&quot;origPos&quot;:null}" fill="#000000" stroke="none" stroke-width="0.19729" stroke-linecap="butt"/><path d="M419.03661,155.19957l3.231,0.5093c-0.4057,1.551 -0.6719,2.3265 -0.7979,2.3265c-1.6986,-0.1148 -2.5479,-0.2274 -2.5479,-0.337c0,-0.7942 0,-1.589 0,-2.3839c0.0164,-0.0768 0.0544,-0.1149 0.1148,-0.1149zM418.13211,159.11217c0.0164,0 0.0328,0 0.05,0c2.4987,0.4548 3.7484,0.721 3.7484,0.7978c-0.718,4.0662 -1.1535,6.3323 -1.3071,6.7983c-0.8687,0 -1.7374,0 -2.6061,0c-0.0768,0 -0.1149,-0.0387 -0.1149,-0.1148c0.0768,-2.4935 0.1529,-4.9878 0.2297,-7.4813z" data-paper-data="{&quot;origPos&quot;:null}" fill="#000000" stroke="none" stroke-width="0.19729" stroke-linecap="butt"/><path d="M424.96391,156.01317l3.6165,0.6412c-0.0059,0.0478 -0.3392,2.6986 -0.3452,2.7456c0.7181,-0.038 1.2445,-0.0574 1.5786,-0.0574c0.1752,0 0.3504,0 0.5257,0l0.1156,-0.0574c0.0186,0.038 0.038,0.0768 0.0574,0.1148c-0.1149,1.6666 -0.214,2.6031 -0.2961,2.8119l-0.1148,-0.0663c-0.0828,0 -0.8225,-0.0381 -2.2199,-0.1149c-0.0768,1.2878 -0.1342,2.8276 -0.1722,4.6202l-0.1156,0.0574c-1.7642,-0.1148 -2.8164,-0.214 -3.1564,-0.296l0.0574,-0.2304c0,-0.4765 0.0768,-1.9559 0.2304,-4.439c-1.4794,-0.082 -2.2198,-0.1804 -2.2198,-0.296c0.0768,-1.8299 0.1752,-2.7456 0.296,-2.7456l2.1624,0.4109c0,-0.2357 0,-0.4713 0,-0.7069c0,-0.5749 -0.0223,-1.3534 -0.0663,-2.3347c0.044,0 0.0663,-0.0187 0.0663,-0.0574z" data-paper-data="{&quot;origPos&quot;:null}" fill="#000000" stroke="none" stroke-width="0.19729" stroke-linecap="butt"/><path d="M438.01771,156.01317l3.6172,0.6412c-0.0045,0.0373 -0.3408,2.7091 -0.3452,2.7456c0.718,-0.038 1.2437,-0.0574 1.5778,-0.0574c0.176,0 0.3512,0 0.5264,0c0.0381,-0.0194 0.0769,-0.038 0.1149,-0.0574l0.0581,0.1148c-0.1155,1.6666 -0.214,2.6031 -0.296,2.8119l-0.1156,-0.0663c-0.082,0 -0.8217,-0.0381 -2.2191,-0.1149c-0.0768,1.2878 -0.1342,2.8276 -0.173,4.6202l-0.1148,0.0574c-1.765,-0.1148 -2.8172,-0.214 -3.1564,-0.296c0.0186,-0.0768 0.038,-0.1536 0.0574,-0.2304c0,-0.4765 0.0768,-1.9559 0.2296,-4.439c-1.4794,-0.082 -2.2191,-0.1804 -2.2191,-0.296c0.0768,-1.8299 0.1753,-2.7456 0.2961,-2.7456l2.1617,0.4109c0,-0.2357 0,-0.4713 0,-0.7069c0,-0.5749 -0.0217,-1.3534 -0.0657,-2.3347c0.044,0 0.0657,-0.0187 0.0657,-0.0574z" data-paper-data="{&quot;origPos&quot;:null}" fill="#000000" stroke="none" stroke-width="0.19729" stroke-linecap="butt"/><path d="M447.75091,158.50446c2.0827,0.5585 3.187,0.8985 3.313,1.0193c1.1454,1.6218 1.7889,2.5562 1.9313,2.803c-0.7397,2.3459 -1.164,3.518 -1.2736,3.518c-2.4667,0.5757 -3.7567,0.8635 -3.8723,0.8635c-2.0386,-1.1893 -3.1236,-1.8522 -3.2548,-1.9894c-0.0716,-2.2139 -0.1074,-3.4361 -0.1074,-3.6665c-0.0328,-0.0656 -0.0492,-0.1148 -0.0492,-0.1476c2.1043,-1.6002 3.1922,-2.4003 3.2638,-2.4003zM447.59431,161.51317c-0.0328,0.2193 -0.082,1.0164 -0.1476,2.3922c0.6107,0.1364 1.2221,0.2736 1.8328,0.4108c0.4385,-1.3705 0.6577,-2.102 0.6577,-2.1952c-1.4578,-0.4385 -2.2385,-0.6577 -2.3429,-0.6577c0,0.0164 0,0.0335 0,0.0499z" data-paper-data="{&quot;origPos&quot;:null}" fill="#000000" stroke="none" stroke-width="0.19729" stroke-linecap="butt"/><path d="M32.16291,173.60059c3.2556,0.4489 4.8834,0.7255 4.8834,0.8299c1.2818,1.1014 1.9231,1.6904 1.9231,1.7672c-0.5205,1.6279 -0.8165,2.6174 -0.8874,2.9678c0.5205,1.1566 0.8165,1.8471 0.8874,2.0715c0,0.0656 -0.8493,0.2408 -2.548,0.5264c-0.0224,-0.0932 -0.1782,-0.302 -0.469,-0.6248c-2.3451,0.4489 -3.6083,0.6741 -3.7895,0.6741c-0.4161,-1.1268 -0.8329,-2.2527 -1.2498,-3.3787l2.7546,-1.4548c0.4436,0.0709 1.1371,0.1066 2.0796,0.1066c0,-0.1208 0.0164,-0.4854 0.0492,-1.0931c-0.1588,0 -1.5785,0.1036 -4.2585,0.3124c-0.0164,-0.0358 -0.0328,-0.0716 -0.0492,-0.1074c0.3728,-1.7314 0.5973,-2.5971 0.6741,-2.5971zM33.87271,178.43397c0,0.0604 0.1752,0.7017 0.5265,1.9239c0.0164,0 0.0328,0 0.0492,0c0.6905,-0.4497 1.0357,-0.7457 1.0357,-0.8881c0.0082,-0.0679 0.0984,-0.8121 0.1066,-0.8799c-0.1312,0 -0.7039,-0.0522 -1.718,-0.1559z" data-paper-data="{&quot;origPos&quot;:null}" fill="#000000" stroke="none" stroke-width="0.19729" stroke-linecap="butt"/><path d="M42.98931,173.60877c2.4719,0.4653 3.7649,0.7315 3.8805,0.7971c0,0.0328 0,0.0656 0,0.0984c-0.5317,1.5018 -0.7979,2.2803 -0.7979,2.3347c-0.0164,0 -0.0328,0 -0.0492,0c-0.1372,0 -0.8001,-0.214 -1.9895,-0.6413c-0.6629,1.1126 -0.9947,1.7076 -0.9947,1.7837c0.5481,0.5317 1.0961,1.0633 1.6442,1.595c1.2714,-1.1946 1.9186,-1.7919 1.9402,-1.7919c0.9918,1.299 1.4877,2.0275 1.4877,2.1863c-0.5421,0.3125 -1.4877,0.9262 -2.8358,1.8419c-2.6084,-0.5645 -4.017,-0.8799 -4.2257,-0.9456c-0.4296,-1.3921 -0.8598,-2.7843 -1.2901,-4.1757c1.0768,-1.0276 2.1535,-2.0551 3.2303,-3.0826z" data-paper-data="{&quot;origPos&quot;:null}" fill="#000000" stroke="none" stroke-width="0.19729" stroke-linecap="butt"/><path d="M52.16331,173.60877c2.4719,0.4653 3.7649,0.7315 3.8805,0.7971c0,0.0328 0,0.0656 0,0.0984c-0.5317,1.5018 -0.7979,2.2803 -0.7979,2.3347c-0.0164,0 -0.0328,0 -0.0492,0c-0.1365,0 -0.8001,-0.214 -1.9895,-0.6413c-0.6629,1.1126 -0.9947,1.7076 -0.9947,1.7837l1.6442,1.595c1.2714,-1.1946 1.9186,-1.7919 1.9402,-1.7919c0.9918,1.299 1.4877,2.0275 1.4877,2.1863c-0.5421,0.3125 -1.4877,0.9262 -2.8358,1.8419c-2.6084,-0.5645 -4.017,-0.8799 -4.225,-0.9456c-0.3229,-1.0439 -0.9686,-3.1318 -1.2908,-4.1757c1.0768,-1.0276 2.1535,-2.0551 3.2303,-3.0826z" data-paper-data="{&quot;origPos&quot;:null}" fill="#000000" stroke="none" stroke-width="0.19729" stroke-linecap="butt"/><path d="M62.76821,173.60877c2.4824,1.2766 3.8581,2.0222 4.1266,2.2355c-0.3565,1.6658 -0.5675,2.5241 -0.6331,2.5733c-1.7315,0 -3.4636,0 -5.1951,0c0,0.0298 0,0.0604 0,0.0902c0.4847,0.6003 0.9694,1.2006 1.4548,1.8001c0.7613,-0.3885 1.5234,-0.7777 2.2855,-1.167c0.2244,0.3893 0.5481,1.0686 0.9701,2.0387c-0.1976,0.0656 -1.636,0.2766 -4.3159,0.6331c-2.2199,-1.4638 -3.3377,-2.2251 -3.3541,-2.2855c0.3565,-2.844 0.5675,-4.2668 0.6331,-4.2668c2.3183,-0.9857 3.6605,-1.5368 4.0281,-1.6516zM62.23361,175.59747c-0.044,0.1096 -0.3341,0.5458 -0.8717,1.3071c0,0.2305 0.3236,0.3453 0.9701,0.3453c0,0.0328 0.469,0.1126 1.4056,0.2386c0.258,-0.3564 0.387,-0.5645 0.387,-0.6249c-0.0828,-0.4876 -0.2602,-0.7315 -0.5346,-0.7315c-0.4519,-0.1782 -0.9045,-0.3564 -1.3564,-0.5346z" data-paper-data="{&quot;origPos&quot;:null}" fill="#000000" stroke="none" stroke-width="0.19729" stroke-linecap="butt"/><path d="M74.27691,173.60059c1.5779,1.0081 2.4495,1.589 2.6136,1.7426c-0.5697,1.2654 -0.8956,1.8985 -0.9776,1.8985c-0.9977,-0.5779 -1.9954,-1.1558 -2.9924,-1.7344c-0.0358,0 -0.0715,0 -0.1073,0c0,0.0551 -0.1283,0.3616 -0.3863,0.9209c2.7568,1.4853 4.1348,2.2467 4.1348,2.2854c-0.7726,1.7867 -1.208,2.7292 -1.3065,2.8276l-4.6776,0.2715c-1.8194,-1.2058 -2.7977,-1.8419 -2.9349,-1.9075c0,-0.0164 0,-0.0328 0,-0.0492c0,-0.1372 0.2714,-0.7539 0.8135,-1.8493c1.2169,0.6324 2.4339,1.2655 3.6501,1.8985c0.0909,-0.3616 0.1812,-0.7233 0.2714,-1.0849c-2.2579,-1.0141 -3.6009,-1.6472 -4.0281,-1.8992c0,-0.0381 0,-0.0769 0,-0.1149c0,-0.208 0.4354,-1.1319 1.3071,-2.7702c1.5398,-0.1454 3.0797,-0.2908 4.6202,-0.4354z" data-paper-data="{&quot;origPos&quot;:null}" fill="#000000" stroke="none" stroke-width="0.19729" stroke-linecap="butt"/><path d="M84.33831,173.60059c1.5785,1.0081 2.4502,1.589 2.6143,1.7426c-0.5697,1.2654 -0.8963,1.8985 -0.9783,1.8985c-0.997,-0.5779 -1.9947,-1.1558 -2.9924,-1.7344c-0.0351,0 -0.0709,0 -0.1066,0c0,0.0551 -0.129,0.3616 -0.3863,0.9209c2.7567,1.4853 4.1347,2.2467 4.1347,2.2854c-0.7725,1.7867 -1.2079,2.7292 -1.3071,2.8276c-1.5592,0.0903 -3.1184,0.1812 -4.6776,0.2715c-1.8195,-1.2058 -2.797,-1.8419 -2.9342,-1.9075c0,-0.0164 0,-0.0328 0,-0.0492c0,-0.1372 0.2714,-0.7539 0.8135,-1.8493c1.2169,0.6324 2.4331,1.2655 3.6501,1.8985c0.0902,-0.3616 0.1812,-0.7233 0.2714,-1.0849c-2.2579,-1.0141 -3.6009,-1.6472 -4.0281,-1.8992c0,-0.0381 0,-0.0769 0,-0.1149c0,-0.208 0.4354,-1.1319 1.3071,-2.7702c1.5398,-0.1454 3.0796,-0.2908 4.6195,-0.4354z" data-paper-data="{&quot;origPos&quot;:null}" fill="#000000" stroke="none" stroke-width="0.19729" stroke-linecap="butt"/><path d="M93.19241,173.60059c3.2548,0.4489 4.8826,0.7255 4.8826,0.8299c1.2826,1.1014 1.9239,1.6904 1.9239,1.7672c-0.5205,1.6279 -0.8166,2.6174 -0.8881,2.9678c0.5204,1.1566 0.8165,1.8471 0.8881,2.0715c0,0.0656 -0.8494,0.2408 -2.5488,0.5264c-0.0216,-0.0932 -0.1782,-0.302 -0.4682,-0.6248c-2.3459,0.4489 -3.6091,0.6741 -3.7895,0.6741c-0.4169,-1.1268 -0.8337,-2.2527 -1.2498,-3.3787c0.9179,-0.4854 1.8359,-0.9701 2.7538,-1.4548c0.4437,0.0709 1.1371,0.1066 2.0797,0.1066c0,-0.1208 0.0164,-0.4854 0.0492,-1.0931c-0.1589,0 -1.5779,0.1036 -4.2578,0.3124c-0.0164,-0.0358 -0.0328,-0.0716 -0.0492,-0.1074c0.3721,-1.7314 0.5973,-2.5971 0.6741,-2.5971zM94.90221,178.43397c0,0.0604 0.1752,0.7017 0.5257,1.9239c0.0164,0 0.0328,0 0.0492,0c0.6905,-0.4497 1.0357,-0.7457 1.0357,-0.8881l0.1074,-0.8799c-0.132,0 -0.7046,-0.0522 -1.718,-0.1559z" data-paper-data="{&quot;origPos&quot;:null}" fill="#000000" stroke="none" stroke-width="0.19729" stroke-linecap="butt"/><path d="M108.57261,173.60059c0.0716,0.0924 0.4414,1.6822 1.1095,4.7678c0.0194,0 0.0388,0 0.0582,0c0,-0.0716 0.4049,-0.6987 1.2162,-1.8828c0.34,0.2304 0.9865,0.7292 1.9402,1.4958c0.0381,0 0.0768,0 0.1149,0c0,-0.0186 0,-0.038 0,-0.0574c0.1484,-2.1371 0.258,-3.3212 0.3288,-3.5509c2.2579,0.1148 3.3868,0.208 3.3868,0.2796c-1.0357,4.1646 -1.589,6.3293 -1.6606,6.4941c-0.3452,0.038 -1.0685,0.1476 -2.1699,0.3288c-0.9045,-1.4197 -1.422,-2.1759 -1.5539,-2.2691c-0.5914,1.5786 -0.962,2.4473 -1.1096,2.6062c-0.7397,0 -1.4794,0 -2.2199,0c-0.1364,-0.044 -0.7837,-1.469 -1.9395,-4.275c-0.7397,-1.5674 -1.1103,-2.4167 -1.1103,-2.5479c0,-0.1208 1.2035,-0.5839 3.6091,-1.3892z" data-paper-data="{&quot;origPos&quot;:null}" fill="#2b70c2" stroke="none" stroke-width="0.19729" stroke-linecap="butt"/><path d="M120.93661,173.60877c2.0819,0.5585 3.1862,0.8985 3.3122,1.0193c1.1454,1.6218 1.7896,2.5562 1.9321,2.803c-0.7397,2.3451 -1.1648,3.5181 -1.2744,3.5181c-2.4659,0.5756 -3.7567,0.8635 -3.8715,0.8635c-2.0387,-1.1894 -3.1236,-1.8523 -3.2556,-1.9895c-0.0709,-2.2139 -0.1066,-3.436 -0.1066,-3.6665c-0.0329,-0.0656 -0.0493,-0.1148 -0.0493,-0.1476c2.1043,-1.6002 3.1923,-2.4003 3.2638,-2.4003zM120.78001,176.61679c-0.0328,0.2192 -0.0821,1.0171 -0.1477,2.3929c0.6107,0.1364 1.2222,0.2736 1.8329,0.4108c0.4384,-1.3705 0.6577,-2.102 0.6577,-2.1952c-1.4578,-0.4385 -2.2385,-0.6577 -2.3429,-0.6577c0,0.0007 0,0.0492 0,0.0492z" data-paper-data="{&quot;origPos&quot;:null}" fill="#2b70c2" stroke="none" stroke-width="0.19729" stroke-linecap="butt"/><path d="M132.83151,173.60059c1.085,0.6077 1.7508,1.0022 1.9977,1.1834c-0.8881,1.847 -1.3646,2.7865 -1.431,2.8193c-0.0186,0 -0.038,0 -0.0574,0c-0.3915,-0.3422 -0.7837,-0.6845 -1.1752,-1.0275l-1.3892,1.6934c-0.0052,-0.1021 0.1611,3.1855 0.1559,3.0826c-0.0709,0.0664 -0.9783,0.2193 -2.721,0.4609c-0.0656,-0.4713 -0.4929,-2.7814 -1.2825,-6.9303c0,-0.0656 1.1453,-0.2356 3.436,-0.5093c0.0388,0.044 0.1432,0.5563 0.3125,1.5368c1.3705,-1.5398 2.0886,-2.3093 2.1542,-2.3093z" data-paper-data="{&quot;origPos&quot;:null}" fill="#2b70c2" stroke="none" stroke-width="0.19729" stroke-linecap="butt"/><path d="M135.4786,171.12568c1.6771,0.0328 2.9074,0.0492 3.6911,0.0492c0.0709,0 0.2871,3.3652 0.6487,10.0949c-0.2788,0.0716 -1.2549,0.252 -2.926,0.5429c-0.082,0 -0.3534,-2.0611 -0.8142,-6.1817c-0.0381,-0.0991 -0.2379,-1.6009 -0.5996,-4.5053z" data-paper-data="{&quot;origPos&quot;:null}" fill="#2b70c2" stroke="none" stroke-width="0.19729" stroke-linecap="butt"/><path d="M145.71301,171.10928c0.0164,0 0.0328,0 0.0492,0c2.4771,0.208 3.7157,0.3698 3.7157,0.4854c0.3035,2.6874 0.7896,6.9877 1.0931,9.6751c0,0.0716 -1.0931,0.252 -3.2794,0.5429c-0.0164,-0.0358 -0.0336,-0.0716 -0.05,-0.1074c0,-0.2931 0,-0.5861 0,-0.8792c-1.885,0.5093 -3.178,0.8382 -3.8797,0.9866c-1.6658,-2.3564 -2.5405,-3.6121 -2.6225,-3.7649c1.2273,-2.2311 1.8828,-3.36 1.9648,-3.3869c1.1483,0.0545 2.2959,0.1096 3.4443,0.1641c-0.0709,-0.4221 -0.2163,-1.6606 -0.4355,-3.7157zM144.18361,177.00379c0.554,1.6934 0.8993,2.6218 1.0357,2.7866c0.5459,-0.4743 1.091,-0.9485 1.6361,-1.422c-0.1701,-0.9813 -0.2961,-1.472 -0.3781,-1.472c-0.7285,0 -1.4578,0 -2.1863,0c-0.0716,0.0112 -0.1074,0.047 -0.1074,0.1074z" data-paper-data="{&quot;origPos&quot;:null}" fill="#2b70c2" stroke="none" stroke-width="0.19729" stroke-linecap="butt"/><path d="M152.56871,180.03719c1.4906,0.1752 2.2385,0.2737 2.2445,0.2953c-0.9045,2.1267 -1.4116,3.2444 -1.5212,3.354c-0.7449,-0.0932 -1.1178,-0.1692 -1.1178,-0.2296c0.1976,-2.2803 0.3177,-3.4197 0.3617,-3.4197c0.0112,0 0.0216,0 0.0328,0z" data-paper-data="{&quot;origPos&quot;:null}" fill="#000000" stroke="none" stroke-width="0.19729" stroke-linecap="butt"/><path d="M162.63081,171.11749c1.2057,0.214 2.4115,0.4273 3.6172,0.6413c-0.0141,0.1096 -0.3318,2.6359 -0.3452,2.7455c0.7173,-0.038 1.2438,-0.0574 1.5778,-0.0574c0.1753,0 0.3512,0 0.5265,0l0.1148,-0.0574l0.0574,0.1148c-0.1148,1.6659 -0.2132,2.6032 -0.296,2.812l-0.1148,-0.0664c-0.0821,0 -0.8218,-0.038 -2.2192,-0.1148c-0.0768,1.2877 -0.1349,2.8275 -0.173,4.6201c-0.038,0.0187 -0.0768,0.0381 -0.1148,0.0575c-1.765,-0.1156 -2.8171,-0.2141 -3.1572,-0.2961l0.0582,-0.2304c0,-0.4765 0.0761,-1.9566 0.2297,-4.439c-1.4795,-0.082 -2.2192,-0.1804 -2.2192,-0.296c0.0768,-1.8299 0.1753,-2.7456 0.2961,-2.7456c0.7203,0.1372 1.4406,0.2744 2.1617,0.4109c0,-0.2356 0,-0.4713 0,-0.7069c0,-0.5749 -0.0216,-1.3534 -0.0656,-2.3347c0.044,0 0.0656,-0.0186 0.0656,-0.0574z" data-paper-data="{&quot;origPos&quot;:null}" fill="#000000" stroke="none" stroke-width="0.19729" stroke-linecap="butt"/><path d="M172.36401,173.60877c2.0819,0.5585 3.1863,0.8985 3.3123,1.0193c1.1461,1.6218 1.7896,2.5562 1.932,2.803c-0.7397,2.3451 -1.1647,3.5181 -1.2743,3.5181c-2.466,0.5756 -3.7567,0.8635 -3.8715,0.8635c-2.0387,-1.1894 -3.1237,-1.8523 -3.2556,-1.9895c-0.0709,-2.2139 -0.1067,-3.436 -0.1067,-3.6665c-0.0328,-0.0656 -0.0492,-0.1148 -0.0492,-0.1476c2.1043,-1.6002 3.1922,-2.4003 3.2638,-2.4003c0.0164,0 0.0328,0 0.0492,0zM172.20741,176.61679c-0.0328,0.2192 -0.082,1.0171 -0.1476,2.3929l1.8328,0.4108c0.4385,-1.3705 0.6577,-2.102 0.6577,-2.1952c-1.4578,-0.4385 -2.2385,-0.6577 -2.3429,-0.6577z" data-paper-data="{&quot;origPos&quot;:null}" fill="#000000" stroke="none" stroke-width="0.19729" stroke-linecap="butt"/><path d="M188.66511,173.62519c2.3288,0.0596 3.4935,0.161 3.4935,0.3035c0.4004,6.0668 0.6003,9.2948 0.6003,9.684c-1.765,1.1237 -3.0282,1.8851 -3.7895,2.2855c-2.6859,-0.8441 -4.0281,-1.3266 -4.0281,-1.4466c0.8657,-1.2662 1.3675,-1.9074 1.504,-1.9238c1.4637,0.7233 2.3049,1.0849 2.5241,1.0849c0.2602,-0.3423 0.5205,-0.6853 0.7807,-1.0275c-0.208,-0.8493 -0.3482,-1.3512 -0.4191,-1.504c-0.1208,0 -1.6061,0.2408 -4.4554,0.7233c-1.5621,-2.5376 -2.3429,-3.8395 -2.3429,-3.9051c1.3482,-2.1535 2.1699,-3.4167 2.466,-3.7895c0.0194,0 0.0388,0 0.0574,0c0.1588,0 1.343,0.2602 3.5516,0.7807c0,-0.0604 0,-0.1201 0,-0.1805c0,-0.214 -0.0194,-0.5562 -0.0574,-1.0275c0.038,-0.0194 0.0761,-0.0388 0.1148,-0.0574zM186.08361,177.11047c0.0768,0.17 0.3184,1.0737 0.7233,2.7127c0.5101,-0.1648 1.2908,-0.466 2.3429,-0.9045c-0.2028,-0.9865 -0.3042,-1.548 -0.3042,-1.6852l-0.2953,-0.0574c-0.1208,0 -0.2416,0 -0.3624,0c-0.4601,0 -1.1617,-0.0217 -2.1043,-0.0656z" data-paper-data="{&quot;origPos&quot;:null}" fill="#000000" stroke="none" stroke-width="0.19729" stroke-linecap="butt"/><path d="M196.95921,173.60877c2.0827,0.5585 3.187,0.8985 3.3131,1.0193c1.1453,1.6218 1.7896,2.5562 1.932,2.803c-0.7397,2.3451 -1.1647,3.5181 -1.2744,3.5181c-2.4659,0.5756 -3.7566,0.8635 -3.8715,0.8635c-2.0386,-1.1894 -3.1243,-1.8523 -3.2556,-1.9895c-0.0708,-2.2139 -0.1066,-3.436 -0.1066,-3.6665c-0.0328,-0.0656 -0.0492,-0.1148 -0.0492,-0.1476c2.1043,-1.6002 3.1922,-2.4003 3.263,-2.4003c0.0164,0 0.0328,0 0.0492,0zM196.80341,176.61679c-0.0328,0.2192 -0.082,1.0171 -0.1484,2.3929c0.6115,0.1364 1.2222,0.2736 1.8336,0.4108c0.4385,-1.3705 0.6577,-2.102 0.6577,-2.1952c-1.4578,-0.4385 -2.2385,-0.6577 -2.3429,-0.6577c0,0.0164 0,0.0328 0,0.0492z" data-paper-data="{&quot;origPos&quot;:null}" fill="#000000" stroke="none" stroke-width="0.19729" stroke-linecap="butt"/><path d="M208.26291,170.30397c1.0767,0.17 2.1535,0.3392 3.2302,0.5093c-0.4049,1.551 -0.6711,2.3265 -0.7971,2.3265c-1.6986,-0.1149 -2.5487,-0.2275 -2.5487,-0.3371c0,-0.7949 0,-1.589 0,-2.3839c0.0172,-0.0768 0.0552,-0.1148 0.1156,-0.1148zM207.35841,174.21647c0.0164,0 0.0328,0 0.0492,0c2.4995,0.4549 3.7485,0.7211 3.7485,0.7979c-0.7173,4.0661 -1.1536,6.3322 -1.3064,6.7983c-0.8687,0 -1.7374,0 -2.6062,0c-0.0768,0 -0.1148,-0.0388 -0.1148,-0.1156c0.0425,-1.3847 0.1872,-6.0951 0.2297,-7.4806z" data-paper-data="{&quot;origPos&quot;:null}" fill="#000000" stroke="none" stroke-width="0.19729" stroke-linecap="butt"/><path d="M219.03191,173.60059l2.7373,1.8821c-0.1916,3.1236 -0.3266,4.949 -0.4026,5.4747c-0.3184,0.0387 -1.2856,0.0962 -2.9022,0.173l-0.0574,-0.1156c-0.0313,-0.4698 -0.2573,-3.9193 -0.2878,-4.3898c-0.0381,-0.0186 -0.0768,-0.038 -0.1149,-0.0574c-1.0469,0.2252 -1.768,0.3945 -2.1624,0.51c0.1096,1.8687 0.1648,3.2199 0.1648,4.0528c-1.633,0.4548 -2.5264,0.6823 -2.68,0.6823c-1.0633,-4.6806 -1.595,-7.1518 -1.595,-7.415c2.3131,-0.3013 3.5681,-0.4519 3.7649,-0.4519c0,0.0187 0,0.0381 0,0.0574c0.0388,0.0269 0.0962,0.5973 0.173,1.7099c2.1207,-1.4086 3.2415,-2.1125 3.3623,-2.1125z" data-paper-data="{&quot;origPos&quot;:null}" fill="#000000" stroke="none" stroke-width="0.19729" stroke-linecap="butt"/><path d="M227.92621,170.30397c1.0768,0.17 2.1535,0.3392 3.231,0.5093c-0.4056,1.551 -0.6718,2.3265 -0.7978,2.3265c-1.6987,-0.1149 -2.548,-0.2275 -2.548,-0.3371c0,-0.7949 0,-1.589 0,-2.3839c0.0164,-0.0768 0.0544,-0.1148 0.1148,-0.1148zM227.02171,174.21647c0.0164,0 0.0328,0 0.0493,0c2.4994,0.4549 3.7492,0.7211 3.7492,0.7979c-0.7181,4.0661 -1.1543,6.3322 -1.3072,6.7983c-0.8687,0 -1.7374,0 -2.6061,0c-0.0768,0 -0.1148,-0.0388 -0.1148,-0.1156c-0.1029,3.3249 0.3318,-10.8048 0.2296,-7.4806z" data-paper-data="{&quot;origPos&quot;:null}" fill="#000000" stroke="none" stroke-width="0.19729" stroke-linecap="butt"/><path d="M233.85281,171.11749c1.2058,0.214 2.4115,0.4273 3.6173,0.6413l-0.3453,2.7455c0.7181,-0.038 1.2446,-0.0574 1.5786,-0.0574c0.1753,0 0.3505,0 0.5257,0c0.0388,-0.0194 0.0768,-0.038 0.1156,-0.0574c0.0186,0.038 0.038,0.0768 0.0574,0.1148c-0.1148,1.6659 -0.214,2.6032 -0.296,2.812l-0.1148,-0.0664c-0.0828,0 -0.8225,-0.038 -2.2199,-0.1148c-0.0768,1.2877 -0.1342,2.8275 -0.1723,4.6201c-0.0387,0.0187 -0.0768,0.0381 -0.1155,0.0575c-1.7643,-0.1156 -2.8164,-0.2141 -3.1565,-0.2961l0.0575,-0.2304c0,-0.4765 0.0768,-1.9566 0.2304,-4.439c-1.4802,-0.082 -2.2199,-0.1804 -2.2199,-0.296c0.0768,-1.8299 0.1752,-2.7456 0.296,-2.7456c0.7211,0.1372 1.4414,0.2744 2.1617,0.4109c0,-0.2356 0,-0.4713 0,-0.7069c0,-0.5749 -0.0216,-1.3534 -0.0656,-2.3347c0.044,0 0.0656,-0.0186 0.0656,-0.0574z" data-paper-data="{&quot;origPos&quot;:null}" fill="#000000" stroke="none" stroke-width="0.19729" stroke-linecap="butt"/><path d="M241.41621,180.03719c1.4906,0.1752 2.2385,0.2737 2.2437,0.2953c-0.9038,2.1267 -1.4108,3.2444 -1.5204,3.354c-0.7457,-0.0932 -1.1178,-0.1692 -1.1178,-0.2296c0.1969,-2.2803 0.3177,-3.4197 0.3617,-3.4197c0.0104,0 0.0216,0 0.0328,0z" data-paper-data="{&quot;origPos&quot;:null}" fill="#000000" stroke="none" stroke-width="0.19729" stroke-linecap="butt"/><path d="M255.65401,173.60059c1.5786,1.0081 2.4496,1.589 2.6144,1.7426c-0.5705,1.2654 -0.8963,1.8985 -0.9784,1.8985c-0.9977,-0.5779 -1.9946,-1.1558 -2.9923,-1.7344c-0.0358,0 -0.0716,0 -0.1067,0c0,0.0551 -0.129,0.3616 -0.387,0.9209c2.7568,1.4853 4.1355,2.2467 4.1355,2.2854c-0.7733,1.7867 -1.2087,2.7292 -1.3072,2.8276c-1.5592,0.0903 -3.1184,0.1812 -4.6775,0.2715c-1.8195,-1.2058 -2.7978,-1.8419 -2.935,-1.9075c0,-0.0164 0,-0.0328 0,-0.0492c0,-0.1372 0.2714,-0.7539 0.8143,-1.8493c1.2162,0.6324 2.4331,1.2655 3.65,1.8985c0.0902,-0.3616 0.1805,-0.7233 0.2707,-1.0849c-2.2579,-1.0141 -3.6001,-1.6472 -4.0281,-1.8992c0,-0.0381 0,-0.0769 0,-0.1149c0,-0.208 0.4362,-1.1319 1.3071,-2.7702c1.5406,-0.1454 3.0804,-0.2908 4.6202,-0.4354z" data-paper-data="{&quot;origPos&quot;:null}" fill="#2b70c2" stroke="none" stroke-width="0.19729" stroke-linecap="butt"/><path d="M261.53961,171.11749c1.2058,0.214 2.4115,0.4273 3.6173,0.6413c-0.0314,0.2498 -0.314,2.4957 -0.3453,2.7455c0.7181,-0.038 1.2438,-0.0574 1.5786,-0.0574c0.1752,0 0.3505,0 0.5257,0l0.1156,-0.0574l0.0574,0.1148c-0.1156,1.6659 -0.214,2.6032 -0.296,2.812l-0.1149,-0.0664c-0.0827,0 -0.8224,-0.038 -2.2198,-0.1148c-0.0768,1.2877 -0.1343,2.8275 -0.173,4.6201c-0.0381,0.0187 -0.0761,0.0381 -0.1149,0.0575c-1.7642,-0.1156 -2.8171,-0.2141 -3.1564,-0.2961l0.0574,-0.2304c0,-0.4765 0.0768,-1.9566 0.2304,-4.439c-1.4801,-0.082 -2.2198,-0.1804 -2.2198,-0.296c0.0768,-1.8299 0.1752,-2.7456 0.296,-2.7456c0.7203,0.1372 1.4414,0.2744 2.1617,0.4109c0,-0.2356 0,-0.4713 0,-0.7069c0,-0.5749 -0.0216,-1.3534 -0.0656,-2.3347c0.044,0 0.0656,-0.0186 0.0656,-0.0574z" data-paper-data="{&quot;origPos&quot;:null}" fill="#2b70c2" stroke="none" stroke-width="0.19729" stroke-linecap="butt"/><path d="M269.20961,173.60059c3.2556,0.4489 4.8826,0.7255 4.8826,0.8299c1.2826,1.1014 1.9239,1.6904 1.9239,1.7672c-0.5205,1.6279 -0.8165,2.6174 -0.8874,2.9678c0.5205,1.1566 0.8165,1.8471 0.8874,2.0715c0,0.0656 -0.8493,0.2408 -2.548,0.5264c-0.0224,-0.0932 -0.1782,-0.302 -0.469,-0.6248c-2.3451,0.4489 -3.6083,0.6741 -3.7895,0.6741c-0.4168,-1.1268 -0.8329,-2.2527 -1.2498,-3.3787c0.918,-0.4854 1.8359,-0.9701 2.7538,-1.4548c0.4444,0.0709 1.1379,0.1066 2.0804,0.1066c0,-0.1208 0.0164,-0.4854 0.0492,-1.0931c-0.1588,0 -1.5785,0.1036 -4.2585,0.3124c-0.0164,-0.0358 -0.0328,-0.0716 -0.0492,-0.1074c0.3728,-1.7314 0.5973,-2.5971 0.6741,-2.5971zM270.91941,178.43397c0,0.0604 0.1752,0.7017 0.5265,1.9239c0.0164,0 0.0328,0 0.0492,0c0.6905,-0.4497 1.0357,-0.7457 1.0357,-0.8881c0.0358,-0.2931 0.0708,-0.5869 0.1066,-0.8799c-0.1312,0 -0.7039,-0.0522 -1.718,-0.1559z" data-paper-data="{&quot;origPos&quot;:null}" fill="#2b70c2" stroke="none" stroke-width="0.19729" stroke-linecap="butt"/><path d="M284.1051,173.60059l2.7374,1.8821c-0.1917,3.1236 -0.3259,4.949 -0.4027,5.4747c-0.3176,0.0387 -1.2848,0.0962 -2.9021,0.173l-0.0575,-0.1156c-0.0432,-0.6584 -0.2445,-3.7306 -0.2878,-4.3898c-0.038,-0.0186 -0.0768,-0.038 -0.1148,-0.0574c-1.0469,0.2252 -1.7673,0.3945 -2.1617,0.51c0.1096,1.8687 0.164,3.2199 0.164,4.0528c-1.633,0.4548 -2.5263,0.6823 -2.6799,0.6823c-1.0633,-4.6806 -1.595,-7.1518 -1.595,-7.415c2.3131,-0.3013 3.568,-0.4519 3.7656,-0.4519c0,0.0187 0,0.0381 0,0.0574c0.0381,0.0269 0.0955,0.5973 0.1723,1.7099c2.1207,-1.4086 3.2414,-2.1125 3.3622,-2.1125z" data-paper-data="{&quot;origPos&quot;:null}" fill="#2b70c2" stroke="none" stroke-width="0.19729" stroke-linecap="butt"/><path d="M292.6624,171.10928c0.0164,0 0.0329,0 0.0493,0c2.4771,0.208 3.7156,0.3698 3.7156,0.4854c0.3647,3.225 0.7293,6.4501 1.0939,9.6751c0,0.0716 -1.0939,0.252 -3.2802,0.5429c-0.0164,-0.0358 -0.0328,-0.0716 -0.0492,-0.1074c0,-0.2931 0,-0.5861 0,-0.8792c-1.885,0.5093 -3.1788,0.8382 -3.8805,0.9866c-1.6658,-2.3564 -2.5397,-3.6121 -2.6217,-3.7649c1.2273,-2.2311 1.882,-3.36 1.9641,-3.3869c1.1483,0.0545 2.2966,0.1096 3.445,0.1641c-0.0716,-0.4221 -0.217,-1.6606 -0.4363,-3.7157zM291.13381,177.00379c0.5533,1.6934 0.8986,2.6218 1.0358,2.7866c0.545,-0.4743 1.0901,-0.9485 1.636,-1.422c-0.1701,-0.9813 -0.2961,-1.472 -0.3781,-1.472c-0.7293,0 -1.4578,0 -2.1871,0c-0.0708,0.0112 -0.1066,0.047 -0.1066,0.1074z" data-paper-data="{&quot;origPos&quot;:null}" fill="#2b70c2" stroke="none" stroke-width="0.19729" stroke-linecap="butt"/><path d="M305.86461,173.60877c2.0826,0.5585 3.187,0.8985 3.313,1.0193c1.1453,1.6218 1.7896,2.5562 1.932,2.803c-0.7397,2.3451 -1.1647,3.5181 -1.2743,3.5181c-2.466,0.5756 -3.7567,0.8635 -3.8716,0.8635c-2.0386,-1.1894 -3.1243,-1.8523 -3.2556,-1.9895c-0.0708,-2.2139 -0.1066,-3.436 -0.1066,-3.6665c-0.0328,-0.0656 -0.0492,-0.1148 -0.0492,-0.1476c2.1043,-1.6002 3.1922,-2.4003 3.263,-2.4003c0.0164,0 0.0329,0 0.0493,0zM305.70871,176.61679c-0.0328,0.2192 -0.082,1.0171 -0.1484,2.3929l1.8336,0.4108c0.4385,-1.3705 0.6577,-2.102 0.6577,-2.1952c-1.4578,-0.4385 -2.2385,-0.6577 -2.3429,-0.6577c0,0.0164 0,0.0328 0,0.0492z" data-paper-data="{&quot;origPos&quot;:null}" fill="#000000" stroke="none" stroke-width="0.19729" stroke-linecap="butt"/><path d="M319.15761,173.60059l2.7374,1.8821c-0.1916,3.1236 -0.3266,4.949 -0.4027,5.4747c-0.3184,0.0387 -1.2855,0.0962 -2.9021,0.173c-0.0194,-0.0388 -0.038,-0.0768 -0.0574,-0.1156c-0.0962,-1.463 -0.1917,-2.926 -0.2879,-4.3898l-0.1148,-0.0574c-1.0469,0.2252 -1.768,0.3945 -2.1624,0.51c0.1096,1.8687 0.1648,3.2199 0.1648,4.0528c-1.6331,0.4548 -2.5264,0.6823 -2.68,0.6823c-1.0633,-4.6806 -1.595,-7.1518 -1.595,-7.415c2.3131,-0.3013 3.5681,-0.4519 3.7649,-0.4519c0,0.0187 0,0.0381 0,0.0574c0.0388,0.0269 0.0962,0.5973 0.173,1.7099c2.1207,-1.4086 3.2414,-2.1125 3.3622,-2.1125z" data-paper-data="{&quot;origPos&quot;:null}" fill="#000000" stroke="none" stroke-width="0.19729" stroke-linecap="butt"/><path d="M329.37561,171.11749l3.6172,0.6413c-0.1156,0.9149 -0.2304,1.8306 -0.3452,2.7455c0.7173,-0.038 1.2438,-0.0574 1.5778,-0.0574c0.1753,0 0.3512,0 0.5265,0c0.038,-0.0194 0.0768,-0.038 0.1148,-0.0574l0.0574,0.1148c-0.1148,1.6659 -0.2132,2.6032 -0.296,2.812c-0.038,-0.0224 -0.0761,-0.044 -0.1149,-0.0664c-0.082,0 -0.8217,-0.038 -2.2191,-0.1148c-0.0768,1.2877 -0.1349,2.8275 -0.173,4.6201c-0.038,0.0187 -0.0768,0.0381 -0.1148,0.0575c-1.765,-0.1156 -2.8171,-0.2141 -3.1572,-0.2961c0.0194,-0.0768 0.0388,-0.1536 0.0582,-0.2304c0,-0.4765 0.0761,-1.9566 0.2297,-4.439c-1.4795,-0.082 -2.2192,-0.1804 -2.2192,-0.296c0.0768,-1.8299 0.1753,-2.7456 0.2961,-2.7456c0.7203,0.1372 1.4406,0.2744 2.1617,0.4109c0,-0.2356 0,-0.4713 0,-0.7069c0,-0.5749 -0.0217,-1.3534 -0.0656,-2.3347c0.0439,0 0.0656,-0.0186 0.0656,-0.0574z" data-paper-data="{&quot;origPos&quot;:null}" fill="#000000" stroke="none" stroke-width="0.19729" stroke-linecap="butt"/><path d="M339.10881,173.60877c2.0827,0.5585 3.1863,0.8985 3.3123,1.0193c1.1461,1.6218 1.7896,2.5562 1.932,2.803c-0.7397,2.3451 -1.1647,3.5181 -1.2743,3.5181c-2.466,0.5756 -3.7567,0.8635 -3.8715,0.8635c-2.0387,-1.1894 -3.1237,-1.8523 -3.2556,-1.9895c-0.0709,-2.2139 -0.1067,-3.436 -0.1067,-3.6665c-0.0328,-0.0656 -0.0492,-0.1148 -0.0492,-0.1476c2.1043,-1.6002 3.1922,-2.4003 3.2638,-2.4003c0.0164,0 0.0328,0 0.0492,0zM338.95221,176.61679c-0.0328,0.2192 -0.082,1.0171 -0.1476,2.3929c0.6107,0.1364 1.2221,0.2736 1.8328,0.4108c0.4385,-1.3705 0.6577,-2.102 0.6577,-2.1952c-1.4578,-0.4385 -2.2385,-0.6577 -2.3429,-0.6577z" data-paper-data="{&quot;origPos&quot;:null}" fill="#000000" stroke="none" stroke-width="0.19729" stroke-linecap="butt"/><path d="M349.22831,173.60877c0.1693,0.7009 0.2871,1.1341 0.3535,1.2982c2.4219,-0.5533 3.7015,-0.8299 3.8387,-0.8299c1.6494,2.3727 2.4741,3.6112 2.4741,3.7156l-1.8902,4.0118c-1.3564,-0.217 -2.7128,-0.4333 -4.0692,-0.6495c0,0.041 0,0.082 0,0.123c0.3177,2.4391 0.4765,3.7351 0.4765,3.8887c-0.038,0 -0.0574,0.0186 -0.0574,0.0574c-0.3945,-0.0388 -0.6905,-0.0574 -0.8881,-0.0574c-0.2356,0 -0.4713,0 -0.7069,0c-0.4109,0 -1.041,-0.0194 -1.8903,-0.0574c-0.0768,-0.2304 -0.6659,-3.7299 -1.768,-10.4976c0.1865,-0.0768 1.5622,-0.4116 4.1273,-1.0029zM349.52361,176.97029c0.1096,1.2609 0.2088,1.891 0.296,1.891c1.1238,0.3892 1.8113,0.5838 2.0633,0.5838c0.217,-0.9425 0.4333,-1.885 0.6495,-2.8283c-0.0186,0 -0.038,0 -0.0574,0c-0.6413,0.0388 -1.6248,0.1566 -2.9514,0.3535z" data-paper-data="{&quot;origPos&quot;:null}" fill="#000000" stroke="none" stroke-width="0.19729" stroke-linecap="butt"/><path d="M364.23051,173.60877c2.0827,0.5585 3.187,0.8985 3.313,1.0193c1.1454,1.6218 1.7889,2.5562 1.9313,2.803c-0.7397,2.3451 -1.164,3.5181 -1.2736,3.5181c-2.4667,0.5756 -3.7567,0.8635 -3.8723,0.8635c-2.0386,-1.1894 -3.1236,-1.8523 -3.2548,-1.9895c-0.0716,-2.2139 -0.1074,-3.436 -0.1074,-3.6665c-0.0328,-0.0656 -0.0492,-0.1148 -0.0492,-0.1476c2.1043,-1.6002 3.1922,-2.4003 3.2638,-2.4003c0.0164,0 0.0328,0 0.0492,0zM364.07391,176.61679c-0.0328,0.2192 -0.082,1.0171 -0.1476,2.3929c0.6107,0.1364 1.2221,0.2736 1.8328,0.4108c0.4385,-1.3705 0.6577,-2.102 0.6577,-2.1952c-1.4578,-0.4385 -2.2385,-0.6577 -2.3429,-0.6577c0,0.0164 0,0.0328 0,0.0492z" data-paper-data="{&quot;origPos&quot;:null}" fill="#000000" stroke="none" stroke-width="0.19729" stroke-linecap="butt"/><path d="M373.64311,171.11749c0.2901,0.0328 1.3482,0.2766 3.1728,0.7315l0.0492,0.0992c-0.2684,1.4958 -0.4302,2.2437 -0.4846,2.2437c-0.0164,0 -0.0328,0 -0.0493,0c-0.4414,-0.2274 -0.8828,-0.4549 -1.3235,-0.6823c0,0.1536 -0.0492,0.8389 -0.1484,2.0551l1.809,-0.4437c0.0544,0.1648 0.1036,0.8963 0.1476,2.1953c-0.1752,0.0656 -0.7777,0.164 -1.8082,0.2952c0.2304,0.9866 0.4742,2.1923 0.7315,3.6173c-0.8441,0.1916 -1.8523,0.3863 -3.0252,0.5839c-0.0164,-0.0329 -0.0328,-0.0657 -0.0492,-0.0985c-0.1536,-2.5375 -0.2826,-3.8066 -0.3863,-3.8066c-1.0633,0.258 -1.633,0.4026 -1.7098,0.4362c-0.0664,-0.3184 -0.1812,-1.1812 -0.3452,-2.5897l0.0984,-0.0492c0.5861,0 1.1729,0 1.759,0c-0.0984,-0.8113 -0.2468,-1.8687 -0.4437,-3.1736z" data-paper-data="{&quot;origPos&quot;:null}" fill="#000000" stroke="none" stroke-width="0.19729" stroke-linecap="butt"/><path d="M382.93191,170.30397c1.0768,0.17 2.1543,0.3392 3.231,0.5093c-0.4056,1.551 -0.6711,2.3265 -0.7978,2.3265c-1.6987,-0.1149 -2.548,-0.2275 -2.548,-0.3371c0,-0.7949 0,-1.589 0,-2.3839c0.0164,-0.0768 0.0544,-0.1148 0.1148,-0.1148zM382.02821,174.21647c0.0164,0 0.0328,0 0.0492,0c2.4987,0.4549 3.7485,0.7211 3.7485,0.7979c-0.7181,4.0661 -1.1536,6.3322 -1.3072,6.7983c-0.0074,0 -2.5986,0 -2.6061,0c-0.0768,0 -0.1148,-0.0388 -0.1148,-0.1156c-0.0373,1.2072 0.2669,-8.6871 0.2304,-7.4806z" data-paper-data="{&quot;origPos&quot;:null}" fill="#000000" stroke="none" stroke-width="0.19729" stroke-linecap="butt"/><path d="M388.85931,171.11749l3.6165,0.6413l-0.3453,2.7455c0.7181,-0.038 1.2446,-0.0574 1.5786,-0.0574c0.1753,0 0.3512,0 0.5265,0c0.038,-0.0194 0.0768,-0.038 0.1148,-0.0574l0.0574,0.1148c-0.1148,1.6659 -0.2132,2.6032 -0.296,2.812c-0.038,-0.0224 -0.0768,-0.044 -0.1149,-0.0664c-0.082,0 -0.8217,-0.038 -2.2198,-0.1148c-0.0761,1.2877 -0.1342,2.8275 -0.1723,4.6201l-0.1148,0.0575c-1.765,-0.1156 -2.8171,-0.2141 -3.1572,-0.2961l0.0574,-0.2304c0,-0.4765 0.0768,-1.9566 0.2305,-4.439c-1.4795,-0.082 -2.2192,-0.1804 -2.2192,-0.296c0.0761,-1.8299 0.1753,-2.7456 0.2953,-2.7456l2.1625,0.4109c0,-0.2356 0,-0.4713 0,-0.7069c0,-0.5749 -0.0224,-1.3534 -0.0656,-2.3347c0.0432,0 0.0656,-0.0186 0.0656,-0.0574z" data-paper-data="{&quot;origPos&quot;:null}" fill="#000000" stroke="none" stroke-width="0.19729" stroke-linecap="butt"/><path d="M400.70501,173.60059c3.2549,0.4489 4.8827,0.7255 4.8827,0.8299c1.2825,1.1014 1.9238,1.6904 1.9238,1.7672c-0.5205,1.6279 -0.8165,2.6174 -0.8881,2.9678c0.5212,1.1566 0.8165,1.8471 0.8881,2.0715c0,0.0656 -0.8493,0.2408 -2.5487,0.5264c-0.0216,-0.0932 -0.1775,-0.302 -0.4683,-0.6248c-2.3459,0.4489 -3.609,0.6741 -3.7895,0.6741c-0.2498,-0.6756 -0.9999,-2.7031 -1.2497,-3.3787l2.7537,-1.4548c0.4444,0.0709 1.1372,0.1066 2.0797,0.1066c0,-0.1208 0.0164,-0.4854 0.05,-1.0931c-0.1596,0 -1.5786,0.1036 -4.2586,0.3124l-0.0492,-0.1074c0.3729,-1.7314 0.5973,-2.5971 0.6741,-2.5971zM402.41481,178.43397c0,0.0604 0.1753,0.7017 0.5257,1.9239c0.0172,0 0.0336,0 0.05,0c0.6905,-0.4497 1.0357,-0.7457 1.0357,-0.8881l0.1067,-0.8799c-0.1313,0 -0.704,-0.0522 -1.7181,-0.1559z" data-paper-data="{&quot;origPos&quot;:null}" fill="#000000" stroke="none" stroke-width="0.19729" stroke-linecap="butt"/><path d="M415.60051,173.60059c0.9127,0.6271 1.8247,1.2549 2.7374,1.8821c-0.1916,3.1236 -0.3259,4.949 -0.4027,5.4747c-0.3184,0.0387 -1.2855,0.0962 -2.9021,0.173l-0.0574,-0.1156l-0.2879,-4.3898l-0.1148,-0.0574c-1.0469,0.2252 -1.7672,0.3945 -2.1624,0.51c0.1096,1.8687 0.1648,3.2199 0.1648,4.0528c-1.6331,0.4548 -2.5264,0.6823 -2.68,0.6823c-1.0633,-4.6806 -1.595,-7.1518 -1.595,-7.415c2.3131,-0.3013 3.5681,-0.4519 3.7649,-0.4519c0,0.0187 0,0.0381 0,0.0574c0.0388,0.0269 0.0962,0.5973 0.173,1.7099c2.1207,-1.4086 3.2414,-2.1125 3.3622,-2.1125z" data-paper-data="{&quot;origPos&quot;:null}" fill="#000000" stroke="none" stroke-width="0.19729" stroke-linecap="butt"/><path d="M424.15791,171.10928c0.0164,0 0.0328,0 0.0492,0c2.4771,0.208 3.7157,0.3698 3.7157,0.4854c0.3646,3.225 0.7292,6.4501 1.0931,9.6751c0,0.0716 -1.0931,0.252 -3.2794,0.5429c-0.0165,-0.0358 -0.0329,-0.0716 -0.0493,-0.1074c0,-0.2931 0,-0.5861 0,-0.8792c-1.8858,0.5093 -3.1788,0.8382 -3.8804,0.9866c-1.6659,-2.3564 -2.5398,-3.6121 -2.6226,-3.7649c1.2282,-2.2311 1.8829,-3.36 1.9649,-3.3869l3.4442,0.1641c-0.0708,-0.4221 -0.2162,-1.6606 -0.4354,-3.7157zM422.62921,177.00379c0.5533,1.6934 0.8986,2.6218 1.0358,2.7866l1.636,-1.422c-0.17,-0.9813 -0.2961,-1.472 -0.3788,-1.472c-0.7285,0 -1.4578,0 -2.1863,0c-0.0716,0.0112 -0.1067,0.047 -0.1067,0.1074z" data-paper-data="{&quot;origPos&quot;:null}" fill="#000000" stroke="none" stroke-width="0.19729" stroke-linecap="butt"/><path d="M35.04041,188.71237c0.1693,0.7016 0.2871,1.1349 0.3535,1.2989c2.4219,-0.5533 3.7015,-0.8299 3.8387,-0.8299c1.6494,2.3727 2.4741,3.6113 2.4741,3.7157c0.1186,-0.2506 -2.0088,4.2622 -1.8902,4.0117c-1.3564,-0.217 -2.7128,-0.4333 -4.0692,-0.6495c0,0.041 0,0.082 0,0.123c0.3177,2.4391 0.4765,3.7351 0.4765,3.8887c-0.038,0 -0.0574,0.0186 -0.0574,0.0574c-0.3945,-0.0388 -0.6905,-0.0574 -0.8881,-0.0574c-0.2356,0 -0.4713,0 -0.7069,0c-0.4109,0 -1.041,-0.0194 -1.8903,-0.0582c-0.0768,-0.2296 -0.6659,-3.7291 -1.768,-10.4975c0.1865,-0.0761 1.5622,-0.4109 4.1273,-1.0029zM35.33651,192.07459c0.1096,1.2609 0.208,1.891 0.2953,1.891c1.1237,0.3892 1.8112,0.5839 2.064,0.5839c0.0149,-0.0664 0.6338,-2.762 0.6487,-2.8284c-0.0186,0 -0.038,0 -0.0574,0c-0.6413,0.0388 -1.6248,0.1566 -2.9514,0.3535z" data-paper-data="{&quot;origPos&quot;:null}" fill="#000000" stroke="none" stroke-width="0.19729" stroke-linecap="butt"/><path d="M48.45581,188.70419c1.0857,0.6084 1.7516,1.0029 1.9977,1.1841c-0.8874,1.847 -1.3646,2.7866 -1.4302,2.8194c-0.0194,0 -0.0388,0 -0.0575,0c-0.3922,-0.3423 -0.7837,-0.6846 -1.1759,-1.0276c-0.463,0.5645 -0.9261,1.129 -1.3892,1.6934c0.0522,1.0276 0.1044,2.0551 0.1566,3.0827c-0.0716,0.0663 -0.9783,0.2192 -2.7209,0.4608c-0.0664,-0.4713 -0.4937,-2.7814 -1.2826,-6.9303c0,-0.0656 1.1454,-0.2356 3.4361,-0.5093c0.038,0.0433 0.1424,0.5563 0.3124,1.5368c1.3698,-1.5398 2.0879,-2.31 2.1535,-2.31z" data-paper-data="{&quot;origPos&quot;:null}" fill="#000000" stroke="none" stroke-width="0.19729" stroke-linecap="butt"/><path d="M55.76411,188.71237c2.4824,1.2773 3.8581,2.0222 4.1266,2.2362c-0.3565,1.6659 -0.5675,2.5241 -0.6331,2.5733c-1.7314,0 -3.4636,0 -5.1951,0c0,0.0299 0,0.0604 0,0.0903c0.4847,0.6002 0.9701,1.1997 1.4548,1.8c0.7621,-0.3892 1.5234,-0.7777 2.2855,-1.167c0.2244,0.3893 0.5481,1.0686 0.9701,2.0387c-0.1976,0.0656 -1.636,0.2766 -4.3159,0.6331c-2.2191,-1.4638 -3.3377,-2.2251 -3.3541,-2.2855c0.3565,-2.844 0.5675,-4.2667 0.6331,-4.2667c2.3183,-0.9866 3.6605,-1.5369 4.0281,-1.6524zM55.22951,190.70178c-0.0433,0.1096 -0.3341,0.5458 -0.871,1.3072c0,0.2304 0.3229,0.3452 0.9702,0.3452c0,0.0328 0.4682,0.1126 1.4056,0.2386c0.2572,-0.3564 0.3862,-0.5644 0.3862,-0.6248c-0.082,-0.4877 -0.2602,-0.7315 -0.5346,-0.7315z" data-paper-data="{&quot;origPos&quot;:null}" fill="#000000" stroke="none" stroke-width="0.19729" stroke-linecap="butt"/><path d="M67.27281,188.70419c1.5786,1.0088 2.4496,1.5897 2.6143,1.7433c-0.5704,1.2654 -0.8962,1.8985 -0.9783,1.8985c-0.9977,-0.5779 -1.9946,-1.1565 -2.9924,-1.7344c-0.0357,0 -0.0715,0 -0.1066,0c0,0.0552 -0.129,0.3616 -0.387,0.9209c2.7568,1.4846 4.1355,2.2467 4.1355,2.2855c-0.7733,1.7858 -1.2087,2.7291 -1.3072,2.8276c-1.5592,0.0902 -3.1184,0.1804 -4.6776,0.2714c-1.8194,-1.2058 -2.7977,-1.8418 -2.9349,-1.9075c0,-0.0164 0,-0.0328 0,-0.0492c0,-0.1372 0.2714,-0.7538 0.8143,-1.85c1.2162,0.6331 2.4331,1.2662 3.65,1.8992l0.2707,-1.0849c-2.2579,-1.0141 -3.6001,-1.6472 -4.0281,-1.8992c0,-0.0381 0,-0.0768 0,-0.1149c0,-0.208 0.4362,-1.1319 1.3071,-2.7701c1.5406,-0.1454 3.0804,-0.2908 4.6202,-0.4362z" data-paper-data="{&quot;origPos&quot;:null}" fill="#000000" stroke="none" stroke-width="0.19729" stroke-linecap="butt"/><path d="M77.33491,188.70419c1.5779,1.0088 2.4495,1.5897 2.6136,1.7433c-0.5697,1.2654 -0.8956,1.8985 -0.9776,1.8985c-0.9977,-0.5779 -1.9954,-1.1565 -2.9924,-1.7344c-0.0358,0 -0.0715,0 -0.1073,0c0,0.0552 -0.1283,0.3616 -0.3863,0.9209c2.7568,1.4846 4.1348,2.2467 4.1348,2.2855c-0.7726,1.7858 -1.208,2.7291 -1.3065,2.8276c-1.5592,0.0902 -3.1184,0.1804 -4.6776,0.2714c-1.8194,-1.2058 -2.7977,-1.8418 -2.9349,-1.9075c0,-0.0164 0,-0.0328 0,-0.0492c0,-0.1372 0.2714,-0.7538 0.8135,-1.85c1.2169,0.6331 2.4339,1.2662 3.6501,1.8992c0.0909,-0.3616 0.1812,-0.7233 0.2714,-1.0849c-2.2579,-1.0141 -3.6009,-1.6472 -4.0281,-1.8992c0,-0.0381 0,-0.0768 0,-0.1149c0,-0.208 0.4354,-1.1319 1.3071,-2.7701c1.5398,-0.1454 3.0797,-0.2908 4.6202,-0.4362z" data-paper-data="{&quot;origPos&quot;:null}" fill="#000000" stroke="none" stroke-width="0.19729" stroke-linecap="butt"/><path d="M87.39631,186.22177c1.2057,0.214 2.4115,0.4273 3.6172,0.6413c-0.1148,0.9149 -0.2304,1.8306 -0.3452,2.7455c0.718,-0.038 1.2437,-0.0574 1.5786,-0.0574c0.1752,0 0.3504,0 0.5257,0l0.1155,-0.0574c0.0187,0.038 0.0381,0.0768 0.0574,0.1148c-0.1148,1.6659 -0.214,2.6032 -0.296,2.8112c-0.038,-0.0216 -0.0768,-0.0432 -0.1148,-0.0656c-0.0828,0 -0.8225,-0.038 -2.2199,-0.1148c-0.0768,1.2878 -0.1342,2.8276 -0.1722,4.6202c-0.0388,0.0186 -0.0768,0.038 -0.1156,0.0574c-1.7643,-0.1156 -2.8164,-0.214 -3.1564,-0.2961c0.0193,-0.0768 0.038,-0.1536 0.0574,-0.2304c0,-0.4765 0.0768,-1.9566 0.2304,-4.439c-1.4802,-0.082 -2.2199,-0.1811 -2.2199,-0.296c0.0768,-1.8306 0.1753,-2.7455 0.2961,-2.7455c0.721,0.1372 1.4413,0.2736 2.1624,0.4108c0,-0.2356 0,-0.4712 0,-0.7069c0,-0.5756 -0.0224,-1.3534 -0.0664,-2.3347c0.044,0 0.0664,-0.0186 0.0664,-0.0574c-0.0007,0 -0.0007,0 -0.0007,0z" data-paper-data="{&quot;origPos&quot;:null}" fill="#000000" stroke="none" stroke-width="0.19729" stroke-linecap="butt"/><path d="M97.49941,186.22177c0.0328,0.0492 0.1864,1.551 0.4608,4.5046c2.1155,-0.6465 3.2414,-0.9694 3.3786,-0.9694l2.0961,1.4302c-0.34,3.1237 -0.5615,4.9483 -0.6659,5.4748c-0.9701,0.0328 -1.9402,0.0656 -2.9103,0.0984c0,-0.0328 -0.0187,-0.0492 -0.0575,-0.0492l0.0575,-0.2058c0,-0.4437 0.0663,-1.7919 0.1976,-4.0438c-0.8001,-0.0336 -1.3952,-0.05 -1.7837,-0.05h-0.2058c0.2356,2.5047 0.3535,3.8693 0.3535,4.0938c-0.9209,0.1372 -1.8411,0.2744 -2.762,0.4116c-0.1044,-0.3512 -0.7181,-3.6255 -1.8418,-9.8235c0,-0.176 0.428,-0.3124 1.2825,-0.4116c1.0798,-0.3065 1.8799,-0.4601 2.4004,-0.4601z" data-paper-data="{&quot;origPos&quot;:null}" fill="#000000" stroke="none" stroke-width="0.19729" stroke-linecap="butt"/><path d="M108.86861,188.71237c2.4824,1.2773 3.8581,2.0222 4.1266,2.2362c-0.3565,1.6659 -0.5675,2.5241 -0.6331,2.5733h-5.1951c0,0.0299 0,0.0604 0,0.0903c0.4847,0.6002 0.9701,1.1997 1.4548,1.8l2.2855,-1.167c0.2244,0.3893 0.548,1.0686 0.9701,2.0387c-0.1976,0.0656 -1.636,0.2766 -4.3159,0.6331c-2.2192,-1.4638 -3.3377,-2.2251 -3.3541,-2.2855c0.3565,-2.844 0.5675,-4.2667 0.6331,-4.2667c2.3183,-0.9866 3.6612,-1.5369 4.0281,-1.6524zM108.33401,190.70178c-0.0433,0.1096 -0.3341,0.5458 -0.871,1.3072c0,0.2304 0.3229,0.3452 0.9701,0.3452c0,0.0328 0.4683,0.1126 1.4056,0.2386c0.2573,-0.3564 0.3863,-0.5644 0.3863,-0.6248c-0.082,-0.4877 -0.2603,-0.7315 -0.5347,-0.7315z" data-paper-data="{&quot;origPos&quot;:null}" fill="#000000" stroke="none" stroke-width="0.19729" stroke-linecap="butt"/><path d="M122.89251,186.21359h0.0499c2.4771,0.2081 3.7157,0.3699 3.7157,0.4847l1.0931,9.6758c0,0.0716 -1.0931,0.2521 -3.2802,0.5429l-0.0492,-0.1074c0,-0.2931 0,-0.5861 0,-0.8791c-1.885,0.5092 -3.1788,0.8381 -3.8797,0.9865c-1.6666,-2.3571 -2.5405,-3.6121 -2.6225,-3.7649c1.2273,-2.2311 1.882,-3.36 1.9648,-3.3869l3.4443,0.1641c-0.0716,-0.4221 -0.217,-1.6606 -0.4362,-3.7157zM121.36381,192.10739c0.5533,1.6934 0.8986,2.6225 1.0358,2.7873l1.636,-1.422c-0.17,-0.9813 -0.2961,-1.4719 -0.3781,-1.4719c-0.7293,0 -1.4578,0 -2.187,0c-0.0709,0.0111 -0.1067,0.0469 -0.1067,0.1066z" data-paper-data="{&quot;origPos&quot;:null}" fill="#2b70c2" stroke="none" stroke-width="0.19729" stroke-linecap="butt"/><path d="M131.91881,188.71237c2.0827,0.5592 3.187,0.8992 3.313,1.0193c1.1454,1.6226 1.7896,2.5569 1.9321,2.8037c-0.7405,2.3451 -1.1648,3.5181 -1.2744,3.5181c-2.4659,0.5756 -3.7567,0.8635 -3.8723,0.8635c-2.0386,-1.1894 -3.1236,-1.8523 -3.2548,-1.9895c-0.0716,-2.2139 -0.1074,-3.436 -0.1074,-3.6664c-0.0328,-0.0657 -0.0492,-0.1149 -0.0492,-0.1477c2.1043,-1.6009 3.1922,-2.401 3.2638,-2.401zM131.76301,191.72109c-0.0328,0.2193 -0.0828,1.0171 -0.1484,2.3922c0.6114,0.1372 1.2221,0.2744 1.8336,0.4116c0.4384,-1.3706 0.6577,-2.1021 0.6577,-2.1953c-1.4578,-0.4384 -2.2393,-0.6577 -2.3429,-0.6577z" data-paper-data="{&quot;origPos&quot;:null}" fill="#2b70c2" stroke="none" stroke-width="0.19729" stroke-linecap="butt"/><path d="M141.52011,188.70419c0.0716,0.0932 0.4414,1.6829 1.1103,4.7685c0.0186,0 0.038,0 0.0574,0c0,-0.0716 0.4056,-0.6994 1.2169,-1.8828c0.3393,0.2304 0.9858,0.7285 1.9395,1.4958c0.0388,0 0.0768,0 0.1156,0c0,-0.0186 0,-0.038 0,-0.0574c0.1476,-2.1371 0.2573,-3.3212 0.3288,-3.5509c2.2579,0.1148 3.3869,0.2081 3.3869,0.2796c-1.0358,4.1646 -1.5898,6.3293 -1.6606,6.4941c-0.3453,0.038 -1.0686,0.1476 -2.1707,0.3288c-0.9037,-1.4197 -1.422,-2.1758 -1.5532,-2.269c-0.5921,1.5785 -0.9619,2.4472 -1.1103,2.6061c-0.7397,0 -1.4794,0 -2.2191,0c-0.1372,-0.044 -0.7837,-1.469 -1.9403,-4.275c-0.7397,-1.5674 -1.1095,-2.4167 -1.1095,-2.5479c0,-0.1208 1.2027,-0.5839 3.6083,-1.3899z" data-paper-data="{&quot;origPos&quot;:null}" fill="#2b70c2" stroke="none" stroke-width="0.19729" stroke-linecap="butt"/><path d="M157.87121,188.70419l2.7373,1.8828c-0.1916,3.1236 -0.3258,4.949 -0.4026,5.4747c-0.3185,0.0388 -1.2856,0.0962 -2.9022,0.173c-0.0194,-0.0388 -0.038,-0.0768 -0.0574,-0.1156c-0.0962,-1.463 -0.1917,-2.926 -0.2878,-4.3898c-0.0381,-0.0186 -0.0769,-0.038 -0.1149,-0.0574c-1.0469,0.2252 -1.7672,0.3945 -2.1624,0.5101c0.1096,1.8686 0.1648,3.2198 0.1648,4.0527c-1.6331,0.4548 -2.5264,0.6823 -2.68,0.6823c-1.0633,-4.6806 -1.595,-7.1518 -1.595,-7.415c2.3131,-0.3012 3.5681,-0.4526 3.7649,-0.4526c0,0.0194 0,0.0388 0,0.0582c0.0388,0.0268 0.0962,0.5972 0.173,1.7098c2.1207,-1.4086 3.2415,-2.1132 3.3623,-2.1132z" data-paper-data="{&quot;origPos&quot;:null}" fill="#2b70c2" stroke="none" stroke-width="0.19729" stroke-linecap="butt"/><path d="M166.88041,188.70419c3.2556,0.4496 4.8834,0.7262 4.8834,0.8306c1.2825,1.1014 1.9238,1.6905 1.9238,1.7673c-0.5212,1.6278 -0.8165,2.6165 -0.8881,2.9677c0.5205,1.1566 0.8165,1.8471 0.8881,2.0715c0,0.0656 -0.8501,0.2409 -2.5487,0.5265c-0.0216,-0.0932 -0.1782,-0.302 -0.4683,-0.6249c-2.3459,0.4489 -3.609,0.6741 -3.7902,0.6741l-1.249,-3.3787c0.9179,-0.4854 1.8358,-0.9701 2.7537,-1.4555c0.4437,0.0716 1.1372,0.1074 2.0797,0.1074c0,-0.1208 0.0164,-0.4855 0.0492,-1.0939c-0.1588,0 -1.5778,0.1044 -4.2578,0.3124l-0.0499,-0.1066c0.3728,-1.7315 0.598,-2.5979 0.6741,-2.5979zM168.59091,193.53828c0,0.0604 0.1753,0.701 0.5257,1.9231c0.0164,0 0.0328,0 0.0492,0c0.6905,-0.4489 1.0358,-0.7449 1.0358,-0.8873l0.1074,-0.8799c-0.132,0 -0.7047,-0.0522 -1.7188,-0.1559z" data-paper-data="{&quot;origPos&quot;:null}" fill="#2b70c2" stroke="none" stroke-width="0.19729" stroke-linecap="butt"/><path d="M180.37851,188.70419c1.0857,0.6084 1.7516,1.0029 1.9977,1.1841c-0.8874,1.847 -1.3646,2.7866 -1.4302,2.8194c-0.0194,0 -0.0381,0 -0.0575,0c-0.3922,-0.3423 -0.7837,-0.6846 -1.1759,-1.0276l-1.3892,1.6934c-0.003,-0.0611 0.1596,3.1445 0.1566,3.0827c-0.0716,0.0663 -0.9783,0.2192 -2.7209,0.4608c-0.0664,-0.4713 -0.4937,-2.7814 -1.2826,-6.9303c0,-0.0656 1.1454,-0.2356 3.4361,-0.5093c0.0387,0.0433 0.1424,0.5563 0.3124,1.5368c1.3698,-1.5398 2.0879,-2.31 2.1535,-2.31z" data-paper-data="{&quot;origPos&quot;:null}" fill="#2b70c2" stroke="none" stroke-width="0.19729" stroke-linecap="butt"/><path d="M188.92841,188.70419c1.0849,0.6084 1.7508,1.0029 1.9976,1.1841c-0.8881,1.847 -1.3646,2.7866 -1.4309,2.8194c-0.0187,0 -0.0381,0 -0.0574,0c-0.3915,-0.3423 -0.7837,-0.6846 -1.1752,-1.0276c-0.4631,0.5645 -0.9261,1.129 -1.3892,1.6934c0.0514,1.0276 0.1036,2.0551 0.1558,3.0827c-0.0708,0.0663 -0.9783,0.2192 -2.7209,0.4608c-0.0656,-0.4713 -0.4929,-2.7814 -1.2826,-6.9303c0,-0.0656 1.1454,-0.2356 3.4361,-0.5093c0.0388,0.0433 0.1424,0.5563 0.3124,1.5368c1.3706,-1.5398 2.0879,-2.31 2.1543,-2.31z" data-paper-data="{&quot;origPos&quot;:null}" fill="#2b70c2" stroke="none" stroke-width="0.19729" stroke-linecap="butt"/><path d="M194.88781,188.71237c2.0826,0.5592 3.187,0.8992 3.313,1.0193c1.1453,1.6226 1.7896,2.5569 1.932,2.8037c-0.7397,2.3451 -1.1647,3.5181 -1.2743,3.5181c-2.466,0.5756 -3.7567,0.8635 -3.8716,0.8635c-2.0386,-1.1894 -3.1243,-1.8523 -3.2556,-1.9895c-0.0715,-2.2139 -0.1066,-3.436 -0.1066,-3.6664c-0.0328,-0.0657 -0.0492,-0.1149 -0.0492,-0.1477c2.1043,-1.6009 3.1922,-2.401 3.2631,-2.401c0.0029,0 0.0462,0 0.0492,0zM194.73191,191.72109c-0.0328,0.2193 -0.082,1.0171 -0.1484,2.3922c0.6115,0.1372 1.2222,0.2744 1.8336,0.4116c0.4385,-1.3706 0.6577,-2.1021 0.6577,-2.1953c-1.4578,-0.4384 -2.2392,-0.6577 -2.3429,-0.6577c0,0.0164 0,0.0328 0,0.0492z" data-paper-data="{&quot;origPos&quot;:null}" fill="#2b70c2" stroke="none" stroke-width="0.19729" stroke-linecap="butt"/><path d="M204.48981,188.70419c0.0708,0.0932 0.4407,1.6829 1.1095,4.7685c0.0194,0 0.0381,0 0.0575,0c0,-0.0716 0.4056,-0.6994 1.2169,-1.8828c0.3393,0.2304 0.9865,0.7285 1.9395,1.4958c0.0388,0 0.0768,0 0.1156,0c0,-0.0186 0,-0.038 0,-0.0574c0.1476,-2.1371 0.2572,-3.3212 0.3288,-3.5509c2.2579,0.1148 3.3868,0.2081 3.3868,0.2796c-1.0357,4.1646 -1.5897,6.3293 -1.6606,6.4941c-0.3452,0.038 -1.0685,0.1476 -2.1706,0.3288c-0.9038,-1.4197 -1.422,-2.1758 -1.5532,-2.269c-0.5921,1.5785 -0.962,2.4472 -1.1096,2.6061c-0.7405,0 -1.4802,0 -2.2199,0c-0.1372,-0.044 -0.7837,-1.469 -1.9402,-4.275c-0.7397,-1.5674 -1.1096,-2.4167 -1.1096,-2.5479c0,-0.1208 1.2028,-0.5839 3.6091,-1.3899z" data-paper-data="{&quot;origPos&quot;:null}" fill="#2b70c2" stroke="none" stroke-width="0.19729" stroke-linecap="butt"/><path d="M221.34121,186.22177c0.0768,0.2192 0.2498,1.7732 0.5183,4.6612l2.4659,-2.762c0.0194,0 0.0388,0 0.0574,0c0.384,0.3177 1.0939,0.9888 2.1296,2.0141c0,0.0186 0,0.038 0,0.0574l-2.3593,1.9484c1.7755,1.1887 2.715,1.8605 2.8194,2.0141c-1.1177,1.2438 -1.7888,1.9537 -2.014,2.1289c-0.956,-0.8821 -1.9127,-1.765 -2.8686,-2.6471c0.1148,1.1833 0.1722,2.0662 0.1722,2.6471c-0.1372,0.0768 -1.1535,0.2878 -3.0498,0.6331c-0.1536,-0.7673 -0.6517,-4.0639 -1.4958,-9.8899c0.3505,-0.1148 1.5592,-0.3832 3.6247,-0.8053z" data-paper-data="{&quot;origPos&quot;:null}" fill="#2b70c2" stroke="none" stroke-width="0.19729" stroke-linecap="butt"/><path d="M232.34061,188.71237c2.4824,1.2773 3.8581,2.0222 4.1266,2.2362c-0.3565,1.6659 -0.5668,2.5241 -0.6331,2.5733c-1.7315,0 -3.4637,0 -5.1951,0c0,0.0299 0,0.0604 0,0.0903c0.4847,0.6002 0.9701,1.1997 1.4548,1.8c0.7621,-0.3892 1.5234,-0.7777 2.2855,-1.167c0.2244,0.3893 0.548,1.0686 0.9701,2.0387c-0.1976,0.0656 -1.636,0.2766 -4.316,0.6331c-2.2191,-1.4638 -3.3376,-2.2251 -3.354,-2.2855c0.3564,-2.844 0.5675,-4.2667 0.6331,-4.2667c2.3183,-0.9866 3.6612,-1.5369 4.0281,-1.6524zM231.80601,190.70178c-0.0433,0.1096 -0.3341,0.5458 -0.871,1.3072c0,0.2304 0.3229,0.3452 0.9701,0.3452c0,0.0328 0.4683,0.1126 1.4056,0.2386c0.2573,-0.3564 0.3863,-0.5644 0.3863,-0.6248c-0.082,-0.4877 -0.2603,-0.7315 -0.5347,-0.7315c-0.4518,-0.1783 -0.9037,-0.3565 -1.3563,-0.5347z" data-paper-data="{&quot;origPos&quot;:null}" fill="#2b70c2" stroke="none" stroke-width="0.19729" stroke-linecap="butt"/><path d="M240.99711,188.72058c0.0768,0.0111 0.1148,0.0499 0.1148,0.1155c-0.2848,1.5779 -0.5697,3.1565 -0.8552,4.735c1.6337,-0.1916 2.4502,-0.3452 2.4502,-0.4608c0.3065,-1.8962 0.5175,-2.9588 0.6331,-3.1892c2.0223,0.4168 3.143,0.6629 3.3615,0.7397c-1.1782,4.0505 -1.8247,6.16 -1.9395,6.33c-2.061,1.4466 -3.2198,2.2467 -3.4778,2.4003c-0.0761,0 -1.3892,-0.3236 -3.9372,-0.9701c0,-0.0194 0,-0.038 0,-0.0574c0.6741,-1.4854 1.0932,-2.2281 1.258,-2.2281c0.8351,0.4198 1.671,0.8389 2.5069,1.258l1.2006,-2.0551c-1.0798,0.2684 -1.7076,0.4027 -1.8828,0.4027c-1.0664,-0.5533 -2.1319,-1.1066 -3.1982,-1.6607c0.3892,-3.5732 0.636,-5.3598 0.7404,-5.3598c1.0082,0 2.0163,0 3.0252,0z" data-paper-data="{&quot;origPos&quot;:null}" fill="#2b70c2" stroke="none" stroke-width="0.19729" stroke-linecap="butt"/><path d="M254.99631,188.71237c2.0827,0.5592 3.187,0.8992 3.3131,1.0193c1.1453,1.6226 1.7888,2.5569 1.932,2.8037c-0.7405,2.3451 -1.1647,3.5181 -1.2744,3.5181c-2.4666,0.5756 -3.7566,0.8635 -3.8722,0.8635c-2.0387,-1.1894 -3.1236,-1.8523 -3.2549,-1.9895c-0.0716,-2.2139 -0.1074,-3.436 -0.1074,-3.6664c-0.0328,-0.0657 -0.0492,-0.1149 -0.0492,-0.1477c2.1043,-1.6009 3.1922,-2.401 3.2638,-2.401c0.0164,0 0.0328,0 0.0492,0zM254.84051,191.72109c-0.0336,0.2193 -0.0828,1.0171 -0.1484,2.3922c0.6115,0.1372 1.2222,0.2744 1.8336,0.4116c0.4377,-1.3706 0.657,-2.1021 0.657,-2.1953c-1.4578,-0.4384 -2.2386,-0.6577 -2.3422,-0.6577c0,0.0164 0,0.0328 0,0.0492z" data-paper-data="{&quot;origPos&quot;:null}" fill="#000000" stroke="none" stroke-width="0.19729" stroke-linecap="butt"/><path d="M266.89131,188.70419c1.0849,0.6084 1.7508,1.0029 1.9976,1.1841c-0.888,1.847 -1.3645,2.7866 -1.4301,2.8194c-0.0194,0 -0.0388,0 -0.0575,0l-1.1759,-1.0276c-0.4631,0.5645 -0.9261,1.129 -1.3892,1.6934c-0.0052,-0.1043 0.1618,3.187 0.1566,3.0827c-0.0716,0.0663 -0.9783,0.2192 -2.7217,0.4608c-0.0656,-0.4713 -0.4929,-2.7814 -1.2818,-6.9303c0,-0.0656 1.1454,-0.2356 3.4361,-0.5093c0.038,0.0433 0.1424,0.5563 0.3124,1.5368c1.3698,-1.5398 2.0879,-2.31 2.1535,-2.31z" data-paper-data="{&quot;origPos&quot;:null}" fill="#000000" stroke="none" stroke-width="0.19729" stroke-linecap="butt"/><path d="M276.17271,186.22177c1.2057,0.214 2.4107,0.4273 3.6165,0.6413c-0.1149,0.9149 -0.2297,1.8306 -0.3453,2.7455c0.7181,-0.038 1.2446,-0.0574 1.5786,-0.0574c0.1752,0 0.3505,0 0.5265,0l0.1148,-0.0574c0.0194,0.038 0.038,0.0768 0.0574,0.1148c-0.1148,1.6659 -0.214,2.6032 -0.296,2.8112l-0.1149,-0.0656c-0.082,0 -0.8224,-0.038 -2.2198,-0.1148c-0.0768,1.2878 -0.1342,2.8276 -0.1723,4.6202l-0.1156,0.0574c-1.7642,-0.1156 -2.8164,-0.214 -3.1564,-0.2961c0.0194,-0.0768 0.0388,-0.1536 0.0574,-0.2304c0,-0.4765 0.0768,-1.9566 0.2305,-4.439c-1.4795,-0.082 -2.2199,-0.1811 -2.2199,-0.296c0.0768,-1.8306 0.176,-2.7455 0.296,-2.7455c0.7211,0.1372 1.4414,0.2736 2.1625,0.4108c0,-0.2356 0,-0.4712 0,-0.7069c0,-0.5756 -0.0224,-1.3534 -0.0664,-2.3347c0.044,0 0.0664,-0.0186 0.0664,-0.0574z" data-paper-data="{&quot;origPos&quot;:null}" fill="#2b70c2" stroke="none" stroke-width="0.19729" stroke-linecap="butt"/><path d="M286.27501,186.22177c0.0336,0.0492 0.1864,1.551 0.4608,4.5046c2.1155,-0.6465 3.2415,-0.9694 3.3787,-0.9694l2.0961,1.4302c-0.3401,3.1237 -0.5615,4.9483 -0.6659,5.4748l-2.9104,0.0984c0,-0.0328 -0.0186,-0.0492 -0.0574,-0.0492l0.0574,-0.2058c0,-0.4437 0.0664,-1.7919 0.1976,-4.0438c-0.8001,-0.0336 -1.3944,-0.05 -1.7836,-0.05c-0.0686,0 -0.1372,0 -0.2058,0c0.2356,2.5047 0.3534,3.8693 0.3534,4.0938l-2.7619,0.4116c-0.1044,-0.3512 -0.7181,-3.6255 -1.8411,-9.8235c0,-0.176 0.4273,-0.3124 1.2818,-0.4116c1.0797,-0.3065 1.8798,-0.4601 2.4003,-0.4601z" data-paper-data="{&quot;origPos&quot;:null}" fill="#2b70c2" stroke="none" stroke-width="0.19729" stroke-linecap="butt"/><path d="M297.6443,188.71237c2.4823,1.2773 3.8581,2.0222 4.1265,2.2362c-0.3557,1.6659 -0.5667,2.5241 -0.6331,2.5733c-1.7314,0 -3.4629,0 -5.195,0c0,0.0299 0,0.0604 0,0.0903c0.4846,0.6002 0.9701,1.1997 1.4548,1.8c0.762,-0.3892 1.5241,-0.7777 2.2854,-1.167c0.2245,0.3893 0.5481,1.0686 0.9702,2.0387c-0.1976,0.0656 -1.636,0.2766 -4.316,0.6331c-2.2191,-1.4638 -3.3376,-2.2251 -3.354,-2.2855c0.3564,-2.844 0.5674,-4.2667 0.6331,-4.2667c2.3182,-0.9866 3.6612,-1.5369 4.0281,-1.6524zM297.11041,190.70178c-0.044,0.1096 -0.3348,0.5458 -0.8717,1.3072c0,0.2304 0.3236,0.3452 0.9701,0.3452c0,0.0328 0.4683,0.1126 1.4056,0.2386c0.2572,-0.3564 0.3862,-0.5644 0.3862,-0.6248c-0.082,-0.4877 -0.2602,-0.7315 -0.5339,-0.7315z" data-paper-data="{&quot;origPos&quot;:null}" fill="#2b70c2" stroke="none" stroke-width="0.19729" stroke-linecap="butt"/><path d="M313.15651,186.22177c1.973,0.9977 2.9864,1.4958 3.0416,1.4958c0,0.088 -0.4109,0.8799 -1.2334,2.3765c-0.0186,0 -0.038,0 -0.0574,0c-0.0656,0 -1.0111,-0.4467 -2.8358,-1.34l-0.9291,1.2408c1.5726,0.7561 3.483,1.721 5.7298,2.894c-1.0194,1.8134 -1.7427,3.0192 -2.1699,3.6165c-1.5488,0.1372 -3.0968,0.2744 -4.6448,0.4116c-2.1207,-1.431 -3.2415,-2.1707 -3.3623,-2.2199c0,-0.0194 0,-0.038 0,-0.0574c0,-0.1536 0.4303,-0.8575 1.2908,-2.1125c0.035,0 0.0708,0 0.1066,0c0.34,0.2028 1.4056,0.7859 3.1975,1.7508l1.0857,-1.2333c-3.2937,-1.677 -5.1191,-2.6248 -5.4755,-2.844c0,-0.0164 0,-0.0328 0,-0.0492c1.0469,-2.0387 1.6174,-3.0722 1.7106,-3.099c2.7232,-0.554 4.2384,-0.8307 4.5456,-0.8307z" data-paper-data="{&quot;origPos&quot;:null}" fill="#2b70c2" stroke="none" stroke-width="0.19729" stroke-linecap="butt"/><path d="M325.5451,186.22177c0.076,0.2192 0.249,1.7732 0.5175,4.6612c0.8224,-0.9209 1.6442,-1.8418 2.4659,-2.762c0.0194,0 0.0388,0 0.0582,0c0.3832,0.3177 1.0931,0.9888 2.1288,2.0141c0,0.0186 0,0.038 0,0.0574c-0.7866,0.6495 -1.5726,1.299 -2.3593,1.9484c1.7755,1.1887 2.7158,1.8605 2.8194,2.0141c-1.1177,1.2438 -1.7888,1.9537 -2.014,2.1289l-2.8686,-2.6471c0.1148,1.1833 0.1722,2.0662 0.1722,2.6471c-0.1364,0.0768 -1.1535,0.2878 -3.0498,0.6331c-0.1536,-0.7673 -0.6517,-4.0639 -1.4958,-9.8899c0.3505,-0.1148 1.5592,-0.3832 3.6255,-0.8053z" data-paper-data="{&quot;origPos&quot;:null}" fill="#2b70c2" stroke="none" stroke-width="0.19729" stroke-linecap="butt"/><path d="M336.54371,188.71237c2.4824,1.2773 3.8581,2.0222 4.1266,2.2362c-0.3557,1.6659 -0.5668,2.5241 -0.6331,2.5733c-1.7315,0 -3.4629,0 -5.1951,0c0,0.0299 0,0.0604 0,0.0903c0.4854,0.6002 0.9701,1.1997 1.4548,1.8l2.2855,-1.167c0.2244,0.3893 0.548,1.0686 0.9701,2.0387c-0.1976,0.0656 -1.636,0.2766 -4.3159,0.6331c-2.2192,-1.4638 -3.3377,-2.2251 -3.3541,-2.2855c0.3565,-2.844 0.5675,-4.2667 0.6331,-4.2667c2.3183,-0.9866 3.6612,-1.5369 4.0281,-1.6524zM336.00981,190.70178c-0.044,0.1096 -0.3348,0.5458 -0.8717,1.3072c0,0.2304 0.3236,0.3452 0.9701,0.3452c0,0.0328 0.4683,0.1126 1.4056,0.2386c0.2573,-0.3564 0.3863,-0.5644 0.3863,-0.6248c-0.082,-0.4877 -0.2602,-0.7315 -0.5339,-0.7315z" data-paper-data="{&quot;origPos&quot;:null}" fill="#2b70c2" stroke="none" stroke-width="0.19729" stroke-linecap="butt"/><path d="M345.20021,188.72058c0.0768,0.0111 0.1148,0.0499 0.1148,0.1155c-0.2848,1.5779 -0.5696,3.1565 -0.8545,4.735c1.633,-0.1916 2.4495,-0.3452 2.4495,-0.4608c0.3065,-1.8962 0.5175,-2.9588 0.6331,-3.1892c2.0223,0.4168 3.143,0.6629 3.3622,0.7397c-1.1789,4.0505 -1.8254,6.16 -1.9402,6.33c-2.061,1.4466 -3.2198,2.2467 -3.4771,2.4003c-0.0768,0 -1.3899,-0.3236 -3.9378,-0.9701c0,-0.0194 0,-0.038 0,-0.0574c0.674,-1.4854 1.0931,-2.2281 1.2579,-2.2281c0.8352,0.4198 1.671,0.8389 2.5069,1.258l1.2006,-2.0551c-1.0798,0.2684 -1.7076,0.4027 -1.8828,0.4027l-3.1975,-1.6607c0.3885,-3.5732 0.6353,-5.3598 0.7397,-5.3598c1.0082,0 2.0163,0 3.0252,0z" data-paper-data="{&quot;origPos&quot;:null}" fill="#2b70c2" stroke="none" stroke-width="0.19729" stroke-linecap="butt"/><path d="M351.80911,194.38469c0.0388,0.0223 0.8933,0.088 2.5651,0.1976l0.0328,0.0656c-0.258,1.5122 -0.422,2.2691 -0.4936,2.2691c-0.6353,0 -1.2714,0 -1.9067,0c-0.0656,0 -0.1536,-0.7569 -0.2632,-2.2691c-0.0216,0 -0.0328,-0.0656 -0.0328,-0.1976c0.0656,-0.0216 0.0984,-0.0433 0.0984,-0.0656z" data-paper-data="{&quot;origPos&quot;:null}" fill="#000000" stroke="none" stroke-width="0.19729" stroke-linecap="butt"/><g data-paper-data="{&quot;origPos&quot;:null}"><path d="M444.3058,202.09868c2.5136,0 4.7909,1.0212 6.4406,2.6702c1.6489,1.6496 2.6702,3.9269 2.6702,6.4405c0,2.5136 -1.0213,4.791 -2.6702,6.4406c-1.6497,1.649 -3.927,2.6702 -6.4406,2.6702c-2.5136,0 -4.7909,-1.0212 -6.4406,-2.6702c-1.6489,-1.6496 -2.6701,-3.927 -2.6701,-6.4406c0,-2.5136 1.0212,-4.7909 2.6701,-6.4405c1.6497,-1.649 3.927,-2.6702 6.4406,-2.6702z" fill="url(#color-3)" stroke="#000000" stroke-width="2.0785" stroke-linecap="butt"/><path d="M441.2734,206.54886l5.6119,0.4503l1.7321,3.187l-3.6374,2.9446l3.3603,-0.5197l0.7967,3.4642l-7.4479,-0.0693l-1.9053,-2.4249l4.6766,-3.3256l-4.5727,-0.3464z" fill="#000000" stroke="none" stroke-width="0.69283" stroke-linecap="round"/></g></g></g></svg>