<svg version="1.1" xmlns="http://www.w3.org/2000/svg" xmlns:xlink="http://www.w3.org/1999/xlink" width="753.17899" height="365.88469" viewBox="0,0,753.17899,365.88469"><defs><linearGradient x1="409.94022" y1="158.31309" x2="425.41011" y2="212.13398" gradientUnits="userSpaceOnUse" id="color-1"><stop offset="0" stop-color="#c3e060"/><stop offset="1" stop-color="#6de01b"/></linearGradient><linearGradient x1="188.49029" y1="241.47477" x2="166.07221" y2="292.79179" gradientUnits="userSpaceOnUse" id="color-2"><stop offset="0" stop-color="#c3e060"/><stop offset="1" stop-color="#6de01b"/></linearGradient><linearGradient x1="322.6431" y1="261" x2="322.6431" y2="436.00142" gradientUnits="userSpaceOnUse" id="color-3"><stop offset="0" stop-color="#bee061"/><stop offset="1" stop-color="#4ce01b"/></linearGradient></defs><g transform="translate(95.68062,-92.11532)"><g data-paper-data="{&quot;isPaintingLayer&quot;:true}" fill-rule="nonzero" stroke-linejoin="miter" stroke-miterlimit="10" stroke-dasharray="" stroke-dashoffset="0" style="mix-blend-mode: normal"><g stroke-linecap="butt"><path d="M427.43181,174.89428l182.0712,-44.36537l14.9545,38.6039l-184.0712,45.6987z" data-paper-data="{&quot;origPos&quot;:null}" fill="#c06520" stroke="#763e13" stroke-width="1.40647"/><path d="M490.00001,189.00001c0,-2.76142 2.23858,-5 5,-5c2.76142,0 5,2.23858 5,5c0,2.76142 -2.23858,5 -5,5c-2.76142,0 -5,-2.23858 -5,-5z" data-paper-data="{&quot;origPos&quot;:null}" fill="#e0bb60" stroke="none" stroke-width="0.5"/><path d="M644.35637,94.11025l11.57344,40.37388l-10.98671,-5.16803l-6.16069,15.29488l-14.31834,-9.41331l-5.73801,13.09264l-11.49039,-8.14464l-8.76121,16.04175l-17.00922,-6.55962l-0.89636,12.7426l-16.41516,-5.68982l-8.24089,11.73061l-14.74103,-7.21107l-10.8902,13.53192l-13.08138,-8.72818l-8.37283,14.88984l-16.98216,-7.60788l-11.44269,11.60973l-11.53921,-7.0902l-7.82033,16.812l-15.15967,-4.99453l-4.4906,13.75936l-16.68736,-6.63663l-0.12533,0.14084c-2.74271,-9.82014 -4.5439,-14.77517 -7.2866,-24.59532c-0.80783,-2.89236 -0.68842,-8.10078 0.56267,-10.83083c0.90143,-1.96703 4.58287,-5.09868 10.03002,-6.6267c16.34145,-4.58404 216.47025,-60.7233 216.47025,-60.7233z" data-paper-data="{&quot;origPos&quot;:null,&quot;origRot&quot;:0,&quot;index&quot;:null}" fill="url(#color-1)" stroke="#0f6600" stroke-width="2"/></g><path d="M-2.70601,166.36517l173.86345,77.90141l-91.95632,195.58104l-173.86363,-77.90099z" fill="#c06520" stroke="#763e13" stroke-width="1.5215" stroke-linecap="butt"/><path d="M-33.23798,144.55481c0,0 196.98772,87.55794 208.22426,92.55256c3.74551,1.66488 7.37204,3.19941 8.03837,6.12567c0.74027,3.25105 0.16001,7.00821 -1.06211,9.74928c-4.5882,10.29075 -4.83278,10.83928 -9.42097,21.13004l-13.82512,8.9241l0.02255,-15.27731l-13.42904,2.8609l-5.8229,-14.55023l-20.47939,6.32729l-10.60034,-18.82122l-13.70032,6.01641l-8.0826,-14.44659l-17.01872,3.47453l-0.37388,-14.35111l-17.41904,4.3909l-11.80129,-16.0721l-10.25292,10.79738l-16.04937,-19.02032l-11.84097,6.82914l-2.76257,-16.48661l-17.81937,5.30728l-7.68226,-15.36298l-8.12227,8.45464l-6.75259,-14.95661l-11.31161,8.15189z" data-paper-data="{&quot;origRot&quot;:0}" fill="url(#color-2)" stroke="#0f6600" stroke-width="2" stroke-linecap="butt"/><path d="M322.50001,264.00002c26.624,0 50.749,10.813 68.218,28.282c17.469,17.469 28.282,41.594 28.282,68.218c0,26.624 -10.813,50.749 -28.282,68.218c-17.469,17.469 -41.594,28.282 -68.218,28.282c-26.624,0 -50.749,-10.813 -68.218,-28.282c-17.469,-17.469 -28.282,-41.594 -28.282,-68.218c0,-26.624 10.813,-50.749 28.282,-68.218c17.469,-17.469 41.594,-28.282 68.218,-28.282z" fill="#c06520" stroke="#763e13" stroke-width="2" stroke-linecap="butt"/><path d="M321.50004,261c26.624,0 49.935,11.841 68.218,28.282c16.785,15.11 28.428,39.161 30.282,62.718c2.816,28.029 -16.058,83.682 -17,84c-0.948,0.32 7.295,-53.653 3,-80c-3.243,-18.886 -11.474,-38.105 -26,-51c-2.77511,-2.46227 -11.95906,-14.10512 -11.95906,-14.10512l-13.95058,3.92558l-18.09032,-15.64311l-18.00005,13.82266l-17.08442,-9.47323l-13.2311,14.14013l-15.18862,-4.04789l-5.49586,14.38099c0,0 -20.978,28.443 -23,46c-1.654,24.528 11.503,71.59 9.282,71.718c-18.19079,1.03245 -16.86419,-12.66558 -23.23087,-29.73708c-3.85653,-10.3408 -5.05113,-27.44439 -5.05113,-38.48092c0,-26.624 10.813,-50.749 28.282,-68.218c17.469,-17.469 41.594,-28.282 68.218,-28.282z" fill="url(#color-3)" stroke="#006622" stroke-width="2" stroke-linecap="round"/><path d="M281.65267,315.16402c0,-2.76142 2.23858,-5 5,-5c2.76142,0 5,2.23858 5,5c0,2.76142 -2.23858,5 -5,5c-2.76142,0 -5,-2.23858 -5,-5z" fill="#e0bb60" stroke="none" stroke-width="0.5" stroke-linecap="butt"/><path d="M260.31933,333.49735c0,-2.76142 2.23858,-5 5,-5c2.76142,0 5,2.23858 5,5c0,2.76142 -2.23858,5 -5,5c-2.76142,0 -5,-2.23858 -5,-5z" fill="#e0bb60" stroke="none" stroke-width="0.5" stroke-linecap="butt"/><path d="M331.31933,301.83069c0,-2.76142 2.23858,-5 5,-5c2.76142,0 5,2.23858 5,5c0,2.76142 -2.23858,5 -5,5c-2.76142,0 -5,-2.23858 -5,-5z" fill="#e0bb60" stroke="none" stroke-width="0.5" stroke-linecap="butt"/><path d="M361.65267,338.16402c0,-2.76142 2.23858,-5 5,-5c2.76142,0 5,2.23858 5,5c0,2.76142 -2.23858,5 -5,5c-2.76142,0 -5,-2.23858 -5,-5z" fill="#e0bb60" stroke="none" stroke-width="0.5" stroke-linecap="butt"/><path d="M290.65267,352.49735c0,-2.76142 2.23858,-5 5,-5c2.76142,0 5,2.23858 5,5c0,2.76142 -2.23858,5 -5,5c-2.76142,0 -5,-2.23858 -5,-5z" fill="#e0bb60" stroke="none" stroke-width="0.5" stroke-linecap="butt"/><path d="M319.65267,330.16402c0,-2.76142 2.23858,-5 5,-5c2.76142,0 5,2.23858 5,5c0,2.76142 -2.23858,5 -5,5c-2.76142,0 -5,-2.23858 -5,-5z" fill="#e0bb60" stroke="none" stroke-width="0.5" stroke-linecap="butt"/><path d="M337.31933,344.16402c0,-2.76142 2.23858,-5 5,-5c2.76142,0 5,2.23858 5,5c0,2.76142 -2.23858,5 -5,5c-2.76142,0 -5,-2.23858 -5,-5z" fill="#e0bb60" stroke="none" stroke-width="0.5" stroke-linecap="butt"/><path d="M360.31933,312.49735c0,-2.76142 2.23858,-5 5,-5c2.76142,0 5,2.23858 5,5c0,2.76142 -2.23858,5 -5,5c-2.76142,0 -5,-2.23858 -5,-5z" fill="#e0bb60" stroke="none" stroke-width="0.5" stroke-linecap="butt"/><path d="M121.55063,279.25835c0,-2.76142 2.23858,-5 5,-5c2.76142,0 5,2.23858 5,5c0,2.76142 -2.23858,5 -5,5c-2.76142,0 -5,-2.23858 -5,-5z" fill="#e0bb60" stroke="none" stroke-width="0.5" stroke-linecap="butt"/><path d="M9.29605,235.31589c0,-2.76142 2.23858,-5 5,-5c2.76142,0 5,2.23858 5,5c0,2.76142 -2.23858,5 -5,5c-2.76142,0 -5,-2.23858 -5,-5z" fill="#e0bb60" stroke="none" stroke-width="0.5" stroke-linecap="butt"/><path d="M9.62938,261.64922c0,-2.76142 2.23858,-5 5,-5c2.76142,0 5,2.23858 5,5c0,2.76142 -2.23858,5 -5,5c-2.76142,0 -5,-2.23858 -5,-5z" fill="#e0bb60" stroke="none" stroke-width="0.5" stroke-linecap="butt"/><path d="M76.94028,340.25957c0,-2.76142 2.23858,-5 5,-5c2.76142,0 5,2.23858 5,5c0,2.76142 -2.23858,5 -5,5c-2.76142,0 -5,-2.23858 -5,-5z" fill="#e0bb60" stroke="none" stroke-width="0.5" stroke-linecap="butt"/><path d="M84.60694,285.25957c0,-2.76142 2.23858,-5 5,-5c2.76142,0 5,2.23858 5,5c0,2.76142 -2.23858,5 -5,5c-2.76142,0 -5,-2.23858 -5,-5z" fill="#e0bb60" stroke="none" stroke-width="0.5" stroke-linecap="butt"/><path d="M49.60694,304.92623c0,-2.76142 2.23858,-5 5,-5c2.76142,0 5,2.23858 5,5c0,2.76142 -2.23858,5 -5,5c-2.76142,0 -5,-2.23858 -5,-5z" fill="#e0bb60" stroke="none" stroke-width="0.5" stroke-linecap="butt"/><path d="M49.27361,263.92623c0,-2.76142 2.23858,-5 5,-5c2.76142,0 5,2.23858 5,5c0,2.76142 -2.23858,5 -5,5c-2.76142,0 -5,-2.23858 -5,-5z" fill="#e0bb60" stroke="none" stroke-width="0.5" stroke-linecap="butt"/><path d="M105.94028,311.5929c0,-2.76142 2.23858,-5 5,-5c2.76142,0 5,2.23858 5,5c0,2.76142 -2.23858,5 -5,5c-2.76142,0 -5,-2.23858 -5,-5z" fill="#e0bb60" stroke="none" stroke-width="0.5" stroke-linecap="butt"/><path d="M8.60694,351.5929c0,-2.76142 2.23858,-5 5,-5c2.76142,0 5,2.23858 5,5c0,2.76142 -2.23858,5 -5,5c-2.76142,0 -5,-2.23858 -5,-5z" fill="#e0bb60" stroke="none" stroke-width="0.5" stroke-linecap="butt"/><path d="M18.60694,319.5929c0,-2.76142 2.23858,-5 5,-5c2.76142,0 5,2.23858 5,5c0,2.76142 -2.23858,5 -5,5c-2.76142,0 -5,-2.23858 -5,-5z" fill="#e0bb60" stroke="none" stroke-width="0.5" stroke-linecap="butt"/><path d="M450.45738,202.03471c0,-2.76142 2.23858,-5 5,-5c2.76142,0 5,2.23858 5,5c0,2.76142 -2.23858,5 -5,5c-2.76142,0 -5,-2.23858 -5,-5z" fill="#e0bb60" stroke="none" stroke-width="0.5" stroke-linecap="butt"/></g></g></svg>