<svg version="1.1" xmlns="http://www.w3.org/2000/svg" xmlns:xlink="http://www.w3.org/1999/xlink" width="113.34257" height="147.40158" viewBox="0,0,113.34257,147.40158"><g transform="translate(-188.0622,-105.68805)"><g data-paper-data="{&quot;isPaintingLayer&quot;:true}" fill="none" fill-rule="nonzero" stroke="none" stroke-width="none" stroke-linecap="butt" stroke-linejoin="miter" stroke-miterlimit="10" stroke-dasharray="" stroke-dashoffset="0" font-family="none" font-weight="none" font-size="none" text-anchor="none" style="mix-blend-mode: normal"><g data-paper-data="{&quot;origPos&quot;:null,&quot;origRot&quot;:0}" stroke="none" stroke-width="0"><path d="M231.98376,214.84911c-6.19893,8.12194 -19.52846,8.36795 -29.77235,0.54948c-10.24388,-7.81846 -18.16039,-16.31292 -11.96147,-24.43486c6.19893,-8.12194 24.16588,-12.79575 34.40976,-4.97728c10.24388,7.81846 13.52298,20.74072 7.32405,28.86266z" data-paper-data="{&quot;origPos&quot;:null}" fill="#a36c40"/><path d="M228.97286,181.80038l-8.32598,10.89831l-13.29465,-9.85798c0,0 -5.44946,-3.11571 -0.73292,-9.29539c4.24465,-5.56141 9.02463,-1.56855 9.02463,-1.56855z" data-paper-data="{&quot;origPos&quot;:null}" fill="#d3c29e"/></g><g data-paper-data="{&quot;origPos&quot;:null,&quot;origRot&quot;:0}" stroke="none" stroke-width="0"><path d="M246.31466,240.26534c1.44686,4.87525 2.42418,6.93353 -10.85746,10.72709c-11.44824,3.2699 -12.9137,2.84273 -14.68728,-2.17765c-1.15321,-3.26432 4.13863,-7.76474 11.12159,-9.83711c6.98294,-2.07237 13.43853,-2.03012 14.42316,1.28767z" data-paper-data="{&quot;origPos&quot;:null}" fill="#f3c08d"/><path d="M246.84876,236.35441c1.51342,5.09955 2.53913,8.80909 -11.85398,13.08061c-15.06059,4.46962 -15.40056,0.3145 -16.91399,-4.78507c-1.51343,-5.09956 3.93765,-11.45752 11.43339,-13.68208c7.49574,-2.22455 15.82116,0.28697 17.33459,5.38653z" data-paper-data="{&quot;origPos&quot;:null}" fill="#e13936"/></g><path d="M244.32543,204.15739c2.79352,-0.77695 11.27653,3.52161 16.68473,4.58448c5.40821,1.06287 12.93704,-1.64187 10.90542,5.60888c-0.88187,3.14734 -5.57361,9.00509 -10.98182,7.94221c-5.40821,-1.06287 -24.28158,-16.00144 -16.60833,-18.13557z" data-paper-data="{&quot;origRot&quot;:0,&quot;origPos&quot;:null,&quot;index&quot;:null}" fill="#ffdfc0" stroke="none" stroke-width="0"/><g data-paper-data="{&quot;origPos&quot;:null,&quot;origRot&quot;:0}"><g data-paper-data="{&quot;origPos&quot;:null}"><g data-paper-data="{&quot;origPos&quot;:null}" fill="#f9faaf" stroke="none" stroke-width="0"><path d="M247.33947,229.46207c-4.80176,10.20658 -18.51982,13.8582 -30.64014,8.15611c-12.12031,-5.70209 -18.05318,-18.59862 -13.25141,-28.80521c3.20052,-6.80299 5.62151,-12.86051 12.41588,-16.07925c7.03959,-3.3349 13.63332,-1.16187 20.68183,2.15415c0,0 11.6032,3.86747 13.5208,11.82944c1.69317,7.03016 2.0748,12.53818 -2.72696,22.74477z" data-paper-data="{&quot;origPos&quot;:null}"/></g><g data-paper-data="{&quot;origPos&quot;:null}" fill="#f9faaf" stroke="#d6d496" stroke-width="1.5"><path d="M249.56347,212.81742c0,0 -3.43443,6.95099 -8.59678,4.4477c-5.16104,-2.50266 -2.05104,-9.61214 -2.05104,-9.61214z" data-paper-data="{&quot;origPos&quot;:null}"/></g><g data-paper-data="{&quot;origPos&quot;:null}" fill="#f9faaf" stroke="#d6d496" stroke-width="1.5"><path d="M228.60078,202.95536c0,0 -3.45148,6.94297 -9.27185,4.1301c-5.8189,-2.81215 -2.73326,-9.9331 -2.73326,-9.9331z" data-paper-data="{&quot;origPos&quot;:null}"/></g><path d="M201.65514,213.75074c0,0 0.28164,-1.8648 0.64603,-2.97173c0.43434,-1.31945 1.40062,-3.24559 1.40062,-3.24559l10.58357,4.97912l-2.76581,5.87898z" data-paper-data="{&quot;origPos&quot;:null}" fill="#a37540" stroke="none" stroke-width="0"/><path d="M212.47737,218.8951l2.80661,-5.9657l7.34662,3.45627l-2.80661,5.9657z" data-paper-data="{&quot;origPos&quot;:null}" fill="#a37540" stroke="none" stroke-width="0"/><path d="M230.62164,227.48904l2.80661,-5.9657l7.34662,3.45627l-2.80661,5.9657z" data-paper-data="{&quot;origPos&quot;:null}" fill="#a37540" stroke="none" stroke-width="0"/><path d="M220.7056,222.8079l2.80661,-5.9657l9.05582,4.26038l-2.80661,5.9657z" data-paper-data="{&quot;origPos&quot;:null}" fill="#dcc830" stroke="none" stroke-width="0"/><path d="M238.91622,231.39129l2.80661,-5.9657l6.08986,2.86502c0,0 -0.80553,2.03818 -1.66367,3.3191c-0.59031,0.88114 -1.94727,2.2682 -1.94727,2.2682z" data-paper-data="{&quot;origPos&quot;:null}" fill="#a37540" stroke="none" stroke-width="0"/></g><path d="M250.5666,206.57238c-2.23352,4.74755 -19.94098,4.80123 -19.94098,4.80123c0,0 -4.60986,-6.83738 -7.62385,-11.26858c-2.21898,-3.26237 -7.89636,-5.85531 -6.21676,-9.42544c2.23352,-4.74755 9.55264,-2.3209 19.21433,2.22452c9.66169,4.54541 16.80079,8.92074 14.56727,13.66829z" data-paper-data="{&quot;origPos&quot;:null}" fill="#fc3f3d" stroke="none" stroke-width="0"/></g><g data-paper-data="{&quot;origPos&quot;:null,&quot;origRot&quot;:0}" stroke="none" stroke-width="0"><path d="M221.34464,229.17936c1.31249,4.91313 2.23294,6.99746 -11.14783,10.42501c-11.53369,2.95441 -12.98687,2.48718 -14.62197,-2.58c-1.06317,-3.29475 4.35022,-7.64821 11.38742,-9.52812c7.0372,-1.87991 13.48919,-1.66047 14.38238,1.6831z" data-paper-data="{&quot;origPos&quot;:null}" fill="#f3c08d"/><path d="M221.9859,225.28457c1.37287,5.13918 2.29636,8.87547 -12.20857,12.75029c-15.1776,4.05452 -15.40339,-0.10837 -16.77627,-5.24755c-1.37287,-5.13919 4.25068,-11.34512 11.80465,-13.36308c7.55398,-2.01796 15.80731,0.72115 17.18019,5.86034z" data-paper-data="{&quot;origPos&quot;:null}" fill="#e13936"/></g><path d="M227.23774,211.00313c-5.29259,-1.53847 -22.76627,-18.09247 -14.93396,-19.53746c2.85143,-0.52606 10.91964,4.50812 16.21223,6.04659c5.29259,1.53848 13.03169,-0.48768 10.36483,6.55423c-1.1576,3.05669 -6.35052,8.47512 -11.64311,6.93666z" data-paper-data="{&quot;origRot&quot;:0,&quot;origPos&quot;:null,&quot;index&quot;:null}" fill="#ffdfc0" stroke="none" stroke-width="0"/><g data-paper-data="{&quot;origPos&quot;:null}" stroke="none" stroke-width="0"><g data-paper-data="{&quot;origPos&quot;:null}"><path d="M299.12662,155.0134c-3.48259,14.45591 -6.93308,20.1871 -21.7918,19.62134c-11.3773,-0.43319 -43.07744,-7.54985 -54.23562,-9.81378c-24.38885,-4.94835 -31.87419,-11.32923 -27.68315,-32.29257c1.63945,-8.2004 5.1031,-15.78139 12.44657,-19.78238c17.2032,-9.37295 30.42203,-8.0024 48.90783,-3.91551c27.67876,6.11929 48.88699,19.07413 42.35618,46.18289z" data-paper-data="{&quot;origPos&quot;:null}" fill="#ffffff"/><path d="M279.81769,146.04041c-2.55077,11.53762 -13.32871,18.96504 -24.07321,16.58962c-10.7445,-2.37542 -17.38683,-13.65417 -14.83606,-25.19178c2.55077,-11.53761 13.32871,-18.96504 24.07321,-16.58962c10.7445,2.37542 17.38683,13.65417 14.83606,25.19178z" data-paper-data="{&quot;origPos&quot;:null}" fill="#ff5138"/><path d="M192.65541,140.01249c0.77126,-5.09472 0.42276,-6.70397 4.92233,-15.71003c0.98687,-3.78061 5.47598,-8.05176 5.47598,-8.05176c0,0 10.54499,3.57413 13.80882,7.89047c3.82983,5.06489 3.18384,11.14898 2.24591,17.42919c-0.98628,6.60398 -2.75501,10.65178 -8.0849,15.314c-2.58133,2.25798 -3.31532,2.44984 -3.31532,2.44984c0,0 -8.15774,-0.6257 -11.27124,-3.54887c-3.51066,-4.25506 -4.29963,-6.95131 -3.78158,-15.77286z" data-paper-data="{&quot;origPos&quot;:null,&quot;origRot&quot;:0}" fill="#ff5138"/><path d="M299.24704,139.15217c0,0 3.27178,2.04601 0.23097,16.45611c-2.66551,12.63155 -7.73483,15.94828 -7.73483,15.94828c0,0 -7.38732,-2.97538 -4.00414,-18.85309c3.06917,-14.40409 11.508,-13.5513 11.508,-13.5513z" data-paper-data="{&quot;origPos&quot;:null}" fill="#ff5138"/></g><g data-paper-data="{&quot;origPos&quot;:null}"><path d="M267.95658,186.55677c-3.49599,13.31955 -14.91283,17.28673 -28.68481,14.24198c-13.77198,-3.04475 -25.70807,-10.6281 -23.2848,-24.18392c1.30748,-7.31405 2.19664,-14.83605 2.19664,-14.83605c0,0 20.51097,1.50592 27.32434,3.25297c13.19738,3.38402 25.19638,9.86059 25.19638,9.86059c0,0 -0.78481,4.18574 -2.74774,11.66442z" data-paper-data="{&quot;origPos&quot;:null}" fill="#ffdfc0"/><path d="M243.6173,190.09096c-0.68074,2.38293 -3.50309,3.24065 -6.09618,2.65365c-2.59309,-0.587 -3.7925,-2.48748 -3.14727,-4.7461c0.64523,-2.25862 2.68474,-3.11959 5.22971,-2.54348c2.54497,0.57611 4.69448,2.253 4.01374,4.63593z" data-paper-data="{&quot;origPos&quot;:null,&quot;origRot&quot;:0}" fill="#480d0d"/><g data-paper-data="{&quot;origPos&quot;:null}"><path d="M256.35555,179.57999c-0.82875,3.74858 -2.40479,6.51622 -5.04185,6.0045c-2.90933,-0.56455 -2.86943,-3.82174 -2.04068,-7.57032c0.82875,-3.74858 2.28447,-6.61411 5.04184,-6.0045c2.75737,0.60961 2.86944,3.82174 2.04069,7.57033z" data-paper-data="{&quot;origPos&quot;:null}" fill="#000000"/><path d="M255.84322,176.44486c-0.27637,1.25006 -1.04857,2.11846 -2.63145,1.79229c-1.74632,-0.35985 -1.907,-1.48451 -1.63064,-2.73456c0.27637,-1.25006 0.97212,-2.15914 2.63145,-1.79229c1.65932,0.36685 1.90701,1.48451 1.63065,2.73456z" data-paper-data="{&quot;origPos&quot;:null}" fill="#aaaaaa"/></g><g data-paper-data="{&quot;origPos&quot;:null}"><path d="M244.34363,177.15771c-0.82875,3.74858 -2.40479,6.51622 -5.04185,6.0045c-2.90933,-0.56455 -2.86943,-3.82174 -2.04068,-7.57032c0.82875,-3.74858 2.28447,-6.61411 5.04184,-6.0045c2.75737,0.60961 2.86944,3.82174 2.04069,7.57033z" data-paper-data="{&quot;origPos&quot;:null}" fill="#000000"/><path d="M243.67158,173.81017c-0.27637,1.25006 -1.04857,2.11846 -2.63145,1.79229c-1.74632,-0.35985 -1.90701,-1.48451 -1.63065,-2.73456c0.27637,-1.25006 0.97213,-2.15913 2.63145,-1.79229c1.65932,0.36685 1.90701,1.48451 1.63065,2.73456z" data-paper-data="{&quot;origPos&quot;:null}" fill="#aaaaaa"/></g></g></g><path d="M194.1675,130.47574c0.60094,-2.6078 1.85244,-6.50661 1.85244,-6.50661c0,0 45.05079,-3.75115 69.08932,0.79024c16.79409,3.17276 36.2955,22.37972 36.2955,22.37972c0,0 -1.31034,5.56484 -1.84441,8.24416c-0.68684,3.44576 -2.41853,8.9632 -2.41853,8.9632c0,0 -20.85831,-20.69938 -35.28611,-23.4205c-26.59029,-5.01499 -69.43946,-1.69657 -69.43946,-1.69657c0,0 0.9458,-5.25836 1.75125,-8.75365z" data-paper-data="{&quot;origPos&quot;:null}" fill="#f3c640" stroke="none" stroke-width="0"/><g data-paper-data="{&quot;origPos&quot;:null,&quot;origRot&quot;:0}" stroke="none" stroke-width="0"><path d="M286.42019,129.80038c-0.70101,14.93186 -10.07502,22.69592 -17.86752,22.54674c-7.55716,-0.14467 -19.86981,-14.18405 -19.86981,-14.18405l0.09367,-15.36656c0,0 12.87687,-17.25669 20.66937,-17.1075c7.79252,0.14918 17.71706,8.28985 16.97428,24.11137z" data-paper-data="{&quot;origPos&quot;:null}" fill="#a7a7a7"/><path d="M283.93885,129.30408c-0.20871,10.90208 -5.9518,19.63326 -12.82755,19.50163c-6.87574,-0.13163 -12.28045,-9.07623 -12.07173,-19.97831c0.20871,-10.90208 5.95181,-19.63328 12.82755,-19.50164c6.87574,0.13163 12.28044,9.07624 12.07173,19.97832z" data-paper-data="{&quot;origPos&quot;:null}" fill="#f2ecc1"/><path d="M282.30433,129.1588c-0.14271,7.45449 -3.98868,13.42612 -8.5902,13.33802c-4.60153,-0.08809 -8.21612,-6.20255 -8.0734,-13.65703c0.14271,-7.45448 3.98868,-13.42612 8.5902,-13.33802c4.60153,0.08809 8.21611,6.20256 8.0734,13.65703z" data-paper-data="{&quot;origPos&quot;:null}" fill="#fffaca"/></g><path d="M240.50001,192.87501c0,0.89746 -0.89543,1.625 -2,1.625c-1.10457,0 -2,-0.72754 -2,-1.625c0,-0.89746 0.89543,-1.625 2,-1.625c1.10457,0 2,0.72754 2,1.625z" fill="#ff89ca" stroke="none" stroke-width="0"/></g></g></svg>