<svg version="1.1" xmlns="http://www.w3.org/2000/svg" xmlns:xlink="http://www.w3.org/1999/xlink" width="307.67853" height="326.99779"><g transform="translate(-86.16074,-16.50111)"><g data-paper-data="{&quot;isPaintingLayer&quot;:true}" fill="none" fill-rule="nonzero" stroke="none" stroke-width="none" stroke-linecap="none" stroke-linejoin="miter" stroke-miterlimit="10" stroke-dasharray="" stroke-dashoffset="0" font-family="none" font-weight="none" font-size="none" text-anchor="none" style="mix-blend-mode: normal"><g data-paper-data="{&quot;origPos&quot;:null}" id="ID0.20286902273073792" fill="#fff346" stroke-width="0.88955" stroke-linecap="round"><path d="M258.60726,37.05684l-34.21156,1.72485l14.08712,-21.34625l4.95916,0.21556l0.79068,4.8155l3.73735,-5.74983l6.10922,-0.21557l-0.93433,7.04357l5.46236,-6.46861l8.91223,2.51554z" id="ID0.07827324094250798"/><path d="M240.27957,17.88451c3.41836,1.87579 5.78733,6.07174 6.25304,9.91848c0.33918,2.79736 -1.59138,5.48111 -4.16008,7.36691c-2.57015,1.88742 -6.59514,2.44378 -10.03499,3.05461c-2.73401,0.48155 -5.42924,0.54781 -8.08568,0.4313c-1.63291,-0.12508 -4.36417,0.42257 -4.67168,-1.1499c-0.79779,-4.08251 -0.07773,-8.74272 2.15615,-12.21845c2.00813,-3.12507 6.10195,-4.39003 9.5591,-5.74984c2.82903,-1.11257 6.30184,-3.08629 8.98414,-1.65311z" id="ID0.3567104428075254"/></g><path d="M213.37159,59.1899c1.51397,1.54807 2.22725,3.29523 1.78028,4.87546c-0.44697,1.58023 -1.96983,2.69474 -4.07039,3.22024c-2.10073,0.52567 -4.77865,0.46119 -7.53238,-0.31769c-2.75388,-0.77904 -5.06872,-2.12706 -6.58254,-3.6753c-1.51397,-1.54807 -2.22725,-3.29522 -1.78028,-4.87545c0.44697,-1.58023 1.96983,-2.69474 4.07039,-3.22025c2.10056,-0.52567 4.77866,-0.46119 7.53239,0.31786c2.75373,0.77904 5.06871,2.12706 6.58253,3.67513z" data-paper-data="{&quot;origPos&quot;:null}" id="ID0.16623971331864595" fill="#fff346" stroke-width="0.83998" stroke-linecap="butt"/><path d="M209.03536,64.56678c1.86205,1.1053 3.00177,2.60925 2.97737,4.25137c-0.02424,1.64195 -1.20824,3.1115 -3.10212,4.16105c-1.89405,1.04971 -4.49797,1.67815 -7.35948,1.63565c-2.8615,-0.04234 -5.44572,-0.74786 -7.30777,-1.85316c-1.86205,-1.1053 -3.00177,-2.60926 -2.97737,-4.25122c0.02424,-1.64212 1.20808,-3.11165 3.10213,-4.1612c1.89388,-1.04971 4.49797,-1.67816 7.35948,-1.63566c2.8615,0.0425 5.44571,0.74786 7.30776,1.85316z" data-paper-data="{&quot;origPos&quot;:null}" id="ID0.16623971331864595" fill="#fff346" stroke-width="0.83998" stroke-linecap="butt"/><path d="M207.83941,81.51168c-2.75373,0.77904 -5.43182,0.84353 -7.53238,0.31786c-2.10056,-0.52567 -3.62342,-1.64019 -4.07039,-3.22025c-0.44697,-1.58023 0.2663,-3.32738 1.78028,-4.87545c1.51381,-1.54824 3.82865,-2.89625 6.58254,-3.67529c2.75373,-0.77904 5.43166,-0.84337 7.53238,-0.31786c2.10056,0.52567 3.62342,1.64018 4.07039,3.22041c0.44697,1.58023 -0.26631,3.32722 -1.78028,4.87545c-1.51381,1.54807 -3.82881,2.89608 -6.58254,3.67513z" data-paper-data="{&quot;origPos&quot;:null}" id="ID0.16623971331864595" fill="#fff346" stroke-width="0.83998" stroke-linecap="butt"/><path d="M265.45205,41.09231c6.1939,6.1939 10.02853,14.74869 10.02853,24.18902c0,9.44033 -3.83463,17.99511 -10.02853,24.18901c-6.1939,6.1939 -14.74869,10.02853 -24.18902,10.02853c-9.44033,0 -17.99511,-3.83462 -24.18901,-10.02853c-6.1939,-6.1939 -10.02853,-14.74868 -10.02853,-24.18901c0,-9.44033 3.83462,-17.99511 10.02853,-24.18902c6.1939,-6.1939 14.74868,-10.02853 24.18901,-10.02853c9.44033,0 17.99512,3.83462 24.18902,10.02853z" data-paper-data="{&quot;origPos&quot;:null}" id="ID0.1863371403887868" fill="#e12323" stroke-width="1" stroke-linecap="butt"/><path d="M276.99924,45.00452c1.68914,2.47078 2.73514,5.88526 2.73514,9.65201c0,3.76675 -1.046,7.18123 -2.73514,9.65201c-1.6893,2.47239 -4.02288,4.00269 -6.59691,4.00269c-2.57403,0 -4.90777,-1.5303 -6.59692,-4.00269c-1.68914,-2.47078 -2.73514,-5.88526 -2.73514,-9.65201c0,-3.76675 1.046,-7.18124 2.73514,-9.65201c1.68914,-2.47239 4.02289,-4.00268 6.59692,-4.00268c2.57403,0 4.90761,1.53029 6.59691,4.00268z" data-paper-data="{&quot;origPos&quot;:null}" id="ID0.39472739631310105" fill="#ffffff" stroke-width="0.91936" stroke-linecap="butt"/><path d="M263.30641,45.73168c1.71839,2.47078 2.78249,5.88526 2.78249,9.65202c0,3.76675 -1.0641,7.18124 -2.78249,9.65201c-1.71839,2.47239 -4.09253,4.00268 -6.71116,4.00268c-2.61863,0 -4.99261,-1.53029 -6.711,-4.00268c-1.71855,-2.47078 -2.78265,-5.88526 -2.78265,-9.65201c0,-3.76675 1.0641,-7.18124 2.78265,-9.65202c1.71839,-2.47239 4.09237,-4.00268 6.711,-4.00268c2.61863,0 4.99277,1.53029 6.71116,4.00268z" data-paper-data="{&quot;origPos&quot;:null}" id="ID0.39472739631310105" fill="#ffffff" stroke-width="0.9259" stroke-linecap="butt"/><path d="M275.15238,65.36698c1.67492,1.97468 2.71107,4.70238 2.71107,7.71126c0,3.00888 -1.03615,5.73659 -2.71107,7.71127c-1.67492,1.97468 -3.98846,3.19633 -6.54019,3.19633c-2.55173,0 -4.86543,-1.22165 -6.54035,-3.19633c-1.67476,-1.97468 -2.7109,-4.70239 -2.7109,-7.71127c0,-3.00888 1.03614,-5.73658 2.7109,-7.71126c1.67492,-1.97468 3.98862,-3.19633 6.54035,-3.19633c2.55173,0 4.86527,1.22165 6.54019,3.19633z" data-paper-data="{&quot;origPos&quot;:null}" id="ID0.2919205715879798" fill="#ffb197" stroke-width="0.99783" stroke-linecap="round"/><path d="M273.30212,72.18836c0.1868,0.83011 0.08242,1.80096 -0.35906,2.71365c-0.44148,0.91252 -1.13779,1.59704 -1.90439,1.96596c-0.76741,0.36714 -1.6056,0.41982 -2.33309,0.06787c-0.72766,-0.35179 -1.20663,-1.0418 -1.39505,-1.87126c-0.1868,-0.83011 -0.08241,-1.80097 0.35907,-2.71349c0.44148,-0.91269 1.13778,-1.59719 1.90454,-1.96595c0.76725,-0.3673 1.60544,-0.41998 2.3331,-0.06803c0.72749,0.35195 1.20646,1.04179 1.39488,1.87125z" data-paper-data="{&quot;origPos&quot;:null}" id="ID0.41036201547831297" fill="#a27060" stroke-width="0.73984" stroke-linecap="butt"/><path d="M262.66455,55.26088c0.37975,0.67223 0.61568,1.6014 0.61568,2.62752c0,1.02612 -0.23593,1.95529 -0.61568,2.62752c-0.37975,0.67223 -0.90492,1.08915 -1.48505,1.08915c-0.58013,0 -1.1053,-0.41691 -1.48505,-1.08915c-0.37975,-0.67223 -0.61567,-1.6014 -0.61567,-2.62752c0,-1.02612 0.23593,-1.95529 0.61567,-2.62752c0.37975,-0.67223 0.90492,-1.08914 1.48505,-1.08914c0.58013,0 1.1053,0.41691 1.48505,1.08914z" data-paper-data="{&quot;origPos&quot;:null}" id="ID0.26917251013219357" fill="#001966" stroke-width="1" stroke-linecap="butt"/><path d="M273.24897,55.26088c0.37975,0.67223 0.61568,1.6014 0.61568,2.62752c0,1.02612 -0.23593,1.95529 -0.61568,2.62752c-0.37975,0.67223 -0.90492,1.08915 -1.48505,1.08915c-0.58013,0 -1.1053,-0.41691 -1.48505,-1.08915c-0.37975,-0.67223 -0.61567,-1.6014 -0.61567,-2.62752c0,-1.02612 0.23592,-1.95529 0.61567,-2.62752c0.37975,-0.67223 0.90492,-1.08914 1.48505,-1.08914c0.58013,0 1.1053,0.41691 1.48505,1.08914z" data-paper-data="{&quot;origPos&quot;:null}" id="ID0.26917251013219357" fill="#001966" stroke-width="1" stroke-linecap="butt"/><g data-paper-data="{&quot;origPos&quot;:null}" id="ID0.5137764848768711" fill="#ffffff"><path d="M221.45307,41.36139c3.84674,1.23409 7.62934,4.00802 10.43316,8.02492c2.80398,4.01691 4.10368,8.52392 3.93578,12.56022c-0.1658,4.03662 -1.79919,7.60235 -4.85735,9.73701c-3.05817,2.13466 -6.96842,2.43846 -10.81468,1.20243c-3.84659,-1.23409 -7.62933,-4.00818 -10.43315,-8.02508c-2.80382,-4.01674 -4.10352,-8.52393 -3.93563,-12.56022c0.1658,-4.03662 1.79903,-7.60235 4.85736,-9.73701c3.05817,-2.13466 6.96826,-2.43846 10.81452,-1.20226z" id="ID0.9694409435614944" stroke-width="0.90437" stroke-linecap="butt"/><path d="M206.84173,31.73523c4.38243,1.7562 10.58021,5.40887 15.65232,8.91773c3.20603,2.22079 6.67286,5.00699 8.08326,7.26478c3.05606,5.04916 4.32135,9.59691 4.44723,13.23488c0.03215,0.9101 -2.61119,-0.90525 -3.9416,-1.63113c-5.20704,-2.84405 -9.94837,-4.86899 -15.65216,-8.91773c-5.70395,-4.0489 -10.47857,-8.27652 -13.5823,-11.83401c-3.10374,-3.55766 -4.53659,-6.44518 -3.56217,-7.81792c0.97457,-1.37291 4.17316,-0.97296 8.55543,0.78341z" id="ID0.4074811181053519" stroke-width="1.53181" stroke-linecap="round"/><path d="M205.43619,41.47694c3.24982,0.95244 7.25121,2.95443 11.22917,5.77812c3.97796,2.82369 7.18819,5.94068 9.15931,8.6944c1.97097,2.75356 2.70314,5.1437 1.72857,6.5166c-0.97441,1.37274 -3.47234,1.47018 -6.72199,0.51791c-3.24982,-0.95227 -7.2512,-2.95442 -11.22916,-5.77812c-3.97796,-2.82369 -7.18819,-5.94069 -9.15915,-8.69424c-1.97113,-2.75373 -2.7033,-5.14387 -1.72873,-6.5166c0.97441,-1.37291 3.47234,-1.47034 6.72199,-0.51807z" id="ID0.4074811181053519" stroke-width="1.13742" stroke-linecap="butt"/><path d="M207.359,52.96127c3.06124,0.81864 6.80263,2.63609 10.49344,5.25601c3.69097,2.61992 6.64086,5.55221 8.42357,8.17197c1.7827,2.61992 2.39822,4.92749 1.42381,6.30023c-0.97457,1.37274 -3.35582,1.55292 -6.41722,0.73444c-3.0614,-0.81864 -6.80263,-2.63608 -10.49344,-5.25601c-3.69097,-2.61992 -6.64086,-5.55221 -8.42357,-8.17213c-1.7827,-2.61977 -2.39822,-4.92733 -1.42381,-6.30007c0.97441,-1.37274 3.35582,-1.55308 6.41722,-0.73444z" id="ID0.4074811181053519" stroke-width="1.07474" stroke-linecap="butt"/></g><path d="M217.89199,90.80086c0,0 5.854,-8.07253 25.02483,-8.07253c19.17083,0 23.14124,6.72711 23.14124,6.72711c0,0 -5.31584,9.95613 -24.48667,9.95613c-19.17084,0 -23.67942,-8.61069 -23.67942,-8.61069z" data-paper-data="{&quot;origPos&quot;:null}" fill="#ffffff" stroke-width="0" stroke-linecap="butt"/><g data-paper-data="{&quot;origPos&quot;:null,&quot;index&quot;:null}" id="ID0.20286902273073792" fill="#fff346" stroke-width="0.88955" stroke-linecap="round"><path d="M221.39274,322.94315l34.21156,-1.72485l-14.08712,21.34625l-4.95916,-0.21556l-0.79068,-4.8155l-3.73735,5.74983l-6.10922,0.21557l0.93433,-7.04357l-5.46236,6.46861l-8.91223,-2.51554z" id="ID0.07827324094250798"/><path d="M239.72042,342.11548c-3.41836,-1.87579 -5.78733,-6.07174 -6.25304,-9.91848c-0.33918,-2.79736 1.59138,-5.48111 4.16008,-7.36691c2.57015,-1.88742 6.59514,-2.44378 10.03499,-3.05461c2.73401,-0.48155 5.42924,-0.54781 8.08568,-0.4313c1.63291,0.12508 4.36417,-0.42257 4.67168,1.1499c0.79779,4.08251 0.07773,8.74272 -2.15615,12.21845c-2.00813,3.12507 -6.10195,4.39003 -9.5591,5.74984c-2.82903,1.11257 -6.30184,3.08629 -8.98414,1.65311z" id="ID0.3567104428075254"/></g><path d="M266.62841,300.8101c-1.51397,-1.54807 -2.22725,-3.29523 -1.78028,-4.87546c0.44697,-1.58023 1.96983,-2.69474 4.07039,-3.22024c2.10073,-0.52567 4.77865,-0.46119 7.53238,0.31769c2.75388,0.77904 5.06872,2.12706 6.58254,3.6753c1.51397,1.54807 2.22725,3.29522 1.78028,4.87545c-0.44697,1.58023 -1.96983,2.69474 -4.07039,3.22025c-2.10056,0.52567 -4.77866,0.46119 -7.53239,-0.31786c-2.75373,-0.77904 -5.06871,-2.12706 -6.58253,-3.67513z" data-paper-data="{&quot;origPos&quot;:null,&quot;index&quot;:null}" id="ID0.16623971331864595" fill="#fff346" stroke-width="0.83998" stroke-linecap="butt"/><path d="M270.96463,295.43321c-1.86205,-1.1053 -3.00177,-2.60925 -2.97737,-4.25137c0.02424,-1.64195 1.20824,-3.1115 3.10212,-4.16105c1.89405,-1.04971 4.49797,-1.67815 7.35948,-1.63565c2.8615,0.04234 5.44572,0.74786 7.30777,1.85316c1.86205,1.1053 3.00177,2.60926 2.97737,4.25122c-0.02424,1.64212 -1.20808,3.11165 -3.10213,4.1612c-1.89388,1.04971 -4.49797,1.67816 -7.35948,1.63566c-2.8615,-0.0425 -5.44571,-0.74786 -7.30776,-1.85316z" data-paper-data="{&quot;origPos&quot;:null,&quot;index&quot;:null}" id="ID0.16623971331864595" fill="#fff346" stroke-width="0.83998" stroke-linecap="butt"/><path d="M272.16057,278.48832c2.75373,-0.77904 5.43182,-0.84353 7.53238,-0.31786c2.10056,0.52567 3.62342,1.64019 4.07039,3.22025c0.44697,1.58023 -0.2663,3.32738 -1.78028,4.87545c-1.51381,1.54824 -3.82865,2.89625 -6.58254,3.67529c-2.75373,0.77904 -5.43166,0.84337 -7.53238,0.31786c-2.10056,-0.52567 -3.62342,-1.64018 -4.07039,-3.22041c-0.44697,-1.58023 0.26631,-3.32722 1.78028,-4.87545c1.51381,-1.54807 3.82881,-2.89608 6.58254,-3.67513z" data-paper-data="{&quot;origPos&quot;:null,&quot;index&quot;:null}" id="ID0.16623971331864595" fill="#fff346" stroke-width="0.83998" stroke-linecap="butt"/><path d="M214.54794,318.90766c-6.1939,-6.1939 -10.02853,-14.74869 -10.02853,-24.18902c0,-9.44033 3.83463,-17.99511 10.02853,-24.18901c6.1939,-6.1939 14.74869,-10.02853 24.18902,-10.02853c9.44033,0 17.99511,3.83462 24.18901,10.02853c6.1939,6.1939 10.02853,14.74868 10.02853,24.18901c0,9.44033 -3.83462,17.99511 -10.02853,24.18902c-6.1939,6.1939 -14.74868,10.02853 -24.18901,10.02853c-9.44033,0 -17.99512,-3.83462 -24.18902,-10.02853z" data-paper-data="{&quot;origPos&quot;:null,&quot;index&quot;:null}" id="ID0.1863371403887868" fill="#e12323" stroke-width="1" stroke-linecap="butt"/><path d="M203.00076,314.99548c-1.68914,-2.47078 -2.73514,-5.88526 -2.73514,-9.65201c0,-3.76675 1.046,-7.18123 2.73514,-9.65201c1.6893,-2.47239 4.02288,-4.00269 6.59691,-4.00269c2.57403,0 4.90777,1.5303 6.59692,4.00269c1.68914,2.47078 2.73514,5.88526 2.73514,9.65201c0,3.76675 -1.046,7.18124 -2.73514,9.65201c-1.68914,2.47239 -4.02289,4.00268 -6.59692,4.00268c-2.57403,0 -4.90761,-1.53029 -6.59691,-4.00268z" data-paper-data="{&quot;origPos&quot;:null,&quot;index&quot;:null}" id="ID0.39472739631310105" fill="#ffffff" stroke-width="0.91936" stroke-linecap="butt"/><path d="M216.69359,314.26831c-1.71839,-2.47078 -2.78249,-5.88526 -2.78249,-9.65202c0,-3.76675 1.0641,-7.18124 2.78249,-9.65201c1.71839,-2.47239 4.09253,-4.00268 6.71116,-4.00268c2.61863,0 4.99261,1.53029 6.711,4.00268c1.71855,2.47078 2.78265,5.88526 2.78265,9.65201c0,3.76675 -1.0641,7.18124 -2.78265,9.65202c-1.71839,2.47239 -4.09237,4.00268 -6.711,4.00268c-2.61863,0 -4.99277,-1.53029 -6.71116,-4.00268z" data-paper-data="{&quot;origPos&quot;:null,&quot;index&quot;:null}" id="ID0.39472739631310105" fill="#ffffff" stroke-width="0.9259" stroke-linecap="butt"/><path d="M204.84762,294.63299c-1.67492,-1.97468 -2.71107,-4.70238 -2.71107,-7.71126c0,-3.00888 1.03615,-5.73659 2.71107,-7.71127c1.67492,-1.97468 3.98846,-3.19633 6.54019,-3.19633c2.55173,0 4.86543,1.22165 6.54035,3.19633c1.67476,1.97468 2.7109,4.70239 2.7109,7.71127c0,3.00888 -1.03614,5.73658 -2.7109,7.71126c-1.67492,1.97468 -3.98862,3.19633 -6.54035,3.19633c-2.55173,0 -4.86527,-1.22165 -6.54019,-3.19633z" data-paper-data="{&quot;origPos&quot;:null,&quot;index&quot;:null}" id="ID0.2919205715879798" fill="#ffb197" stroke-width="0.99783" stroke-linecap="round"/><path d="M206.69786,287.81167c-0.1868,-0.83011 -0.08242,-1.80096 0.35906,-2.71365c0.44148,-0.91252 1.13779,-1.59704 1.90439,-1.96596c0.76741,-0.36714 1.6056,-0.41982 2.33309,-0.06787c0.72766,0.35179 1.20663,1.0418 1.39505,1.87126c0.1868,0.83011 0.08241,1.80097 -0.35907,2.71349c-0.44148,0.91269 -1.13778,1.59719 -1.90454,1.96595c-0.76725,0.3673 -1.60544,0.41998 -2.3331,0.06803c-0.72749,-0.35195 -1.20646,-1.04179 -1.39488,-1.87125z" data-paper-data="{&quot;origPos&quot;:null,&quot;index&quot;:null}" id="ID0.41036201547831297" fill="#a27060" stroke-width="0.73984" stroke-linecap="butt"/><path d="M217.33544,304.73909c-0.37975,-0.67223 -0.61568,-1.6014 -0.61568,-2.62752c0,-1.02612 0.23593,-1.95529 0.61568,-2.62752c0.37975,-0.67223 0.90492,-1.08915 1.48505,-1.08915c0.58013,0 1.1053,0.41691 1.48505,1.08915c0.37975,0.67223 0.61567,1.6014 0.61567,2.62752c0,1.02612 -0.23593,1.95529 -0.61567,2.62752c-0.37975,0.67223 -0.90492,1.08914 -1.48505,1.08914c-0.58013,0 -1.1053,-0.41691 -1.48505,-1.08914z" data-paper-data="{&quot;origPos&quot;:null,&quot;index&quot;:null}" id="ID0.26917251013219357" fill="#001966" stroke-width="1" stroke-linecap="butt"/><path d="M206.75102,304.73909c-0.37975,-0.67223 -0.61568,-1.6014 -0.61568,-2.62752c0,-1.02612 0.23593,-1.95529 0.61568,-2.62752c0.37975,-0.67223 0.90492,-1.08915 1.48505,-1.08915c0.58013,0 1.1053,0.41691 1.48505,1.08915c0.37975,0.67223 0.61567,1.6014 0.61567,2.62752c0,1.02612 -0.23592,1.95529 -0.61567,2.62752c-0.37975,0.67223 -0.90492,1.08914 -1.48505,1.08914c-0.58013,0 -1.1053,-0.41691 -1.48505,-1.08914z" data-paper-data="{&quot;origPos&quot;:null,&quot;index&quot;:null}" id="ID0.26917251013219357" fill="#001966" stroke-width="1" stroke-linecap="butt"/><g data-paper-data="{&quot;origPos&quot;:null,&quot;index&quot;:null}" id="ID0.5137764848768711" fill="#ffffff"><path d="M258.54692,318.63861c-3.84674,-1.23409 -7.62934,-4.00802 -10.43316,-8.02492c-2.80398,-4.01691 -4.10368,-8.52392 -3.93578,-12.56022c0.1658,-4.03662 1.79919,-7.60235 4.85735,-9.73701c3.05817,-2.13466 6.96842,-2.43846 10.81468,-1.20243c3.84659,1.23409 7.62933,4.00818 10.43315,8.02508c2.80382,4.01674 4.10352,8.52393 3.93563,12.56022c-0.1658,4.03662 -1.79903,7.60235 -4.85736,9.73701c-3.05817,2.13466 -6.96826,2.43846 -10.81452,1.20226z" id="ID0.9694409435614944" stroke-width="0.90437" stroke-linecap="butt"/><path d="M273.15825,328.26475c-4.38243,-1.7562 -10.58021,-5.40887 -15.65232,-8.91773c-3.20603,-2.22079 -6.67286,-5.00699 -8.08326,-7.26478c-3.05606,-5.04916 -4.32135,-9.59691 -4.44723,-13.23488c-0.03215,-0.9101 2.61119,0.90525 3.9416,1.63113c5.20704,2.84405 9.94837,4.86899 15.65216,8.91773c5.70395,4.0489 10.47857,8.27652 13.5823,11.83401c3.10374,3.55766 4.53659,6.44518 3.56217,7.81792c-0.97457,1.37291 -4.17316,0.97296 -8.55543,-0.78341z" id="ID0.4074811181053519" stroke-width="1.53181" stroke-linecap="round"/><path d="M274.5638,318.52307c-3.24982,-0.95244 -7.25121,-2.95443 -11.22917,-5.77812c-3.97796,-2.82369 -7.18819,-5.94068 -9.15931,-8.6944c-1.97097,-2.75356 -2.70314,-5.1437 -1.72857,-6.5166c0.97441,-1.37274 3.47234,-1.47018 6.72199,-0.51791c3.24982,0.95227 7.2512,2.95442 11.22916,5.77812c3.97796,2.82369 7.18819,5.94069 9.15915,8.69424c1.97113,2.75373 2.7033,5.14387 1.72873,6.5166c-0.97441,1.37291 -3.47234,1.47034 -6.72199,0.51807z" id="ID0.4074811181053519" stroke-width="1.13742" stroke-linecap="butt"/><path d="M272.64099,307.03874c-3.06124,-0.81864 -6.80263,-2.63609 -10.49344,-5.25601c-3.69097,-2.61992 -6.64086,-5.55221 -8.42357,-8.17197c-1.7827,-2.61992 -2.39822,-4.92749 -1.42381,-6.30023c0.97457,-1.37274 3.35582,-1.55292 6.41722,-0.73444c3.0614,0.81864 6.80263,2.63608 10.49344,5.25601c3.69097,2.61992 6.64086,5.55221 8.42357,8.17213c1.7827,2.61977 2.39822,4.92733 1.42381,6.30007c-0.97441,1.37274 -3.35582,1.55308 -6.41722,0.73444z" id="ID0.4074811181053519" stroke-width="1.07474" stroke-linecap="butt"/></g><path d="M262.108,269.19915c0,0 -5.854,8.07253 -25.02483,8.07253c-19.17083,0 -23.14124,-6.72711 -23.14124,-6.72711c0,0 5.31584,-9.95613 24.48667,-9.95613c19.17084,0 23.67942,8.61069 23.67942,8.61069z" data-paper-data="{&quot;origPos&quot;:null,&quot;index&quot;:null}" fill="#ffffff" stroke-width="0" stroke-linecap="butt"/><g data-paper-data="{&quot;origRot&quot;:0,&quot;origPos&quot;:null}"><g data-paper-data="{&quot;origPos&quot;:null}" id="ID0.20286902273073792" fill="#fff346" stroke-width="0.88955" stroke-linecap="round"><path d="M374.24069,127.47941l-17.98497,-29.15385l25.49181,2.06805l2.19896,4.4502l-3.83977,3.0117l6.83896,0.50695l3.13059,5.25057l-6.62316,2.57267l8.29953,1.67272l2.08662,9.02229z" id="ID0.07827324094250798"/><path d="M382.2191,102.18463c0.00196,3.8992 -2.53485,7.99586 -5.68204,10.25628c-2.2884,1.64423 -5.57013,1.24447 -8.45978,-0.09881c-2.89177,-1.34376 -5.31746,-4.60354 -7.50914,-7.32424c-1.7385,-2.16432 -3.09436,-4.49462 -4.27136,-6.87894c-0.67664,-1.49138 -2.47176,-3.62145 -1.24164,-4.64814c3.19393,-2.66499 7.62504,-4.27784 11.74694,-3.99359c3.70587,0.25525 6.78575,3.23414 9.64221,5.60937c2.33732,1.94375 5.73935,4.0371 5.77482,7.07806z" id="ID0.3567104428075254"/></g><path d="M333.06093,98.49037c-0.6278,2.07232 -1.81563,3.53874 -3.41583,3.9079c-1.6002,0.36916 -3.31027,-0.4289 -4.78229,-2.01687c-1.47224,-1.58805 -2.70518,-3.96613 -3.34848,-6.75465c-0.64324,-2.78873 -0.57641,-5.46664 0.05162,-7.5389c0.6278,-2.07232 1.81562,-3.53874 3.41582,-3.90789c1.6002,-0.36916 3.31027,0.4289 4.7823,2.01686c1.47216,1.58789 2.70518,3.96614 3.34834,6.75474c0.64317,2.78859 0.5764,5.46663 -0.05148,7.53881z" data-paper-data="{&quot;origPos&quot;:null}" id="ID0.16623971331864595" fill="#fff346" stroke-width="0.83998" stroke-linecap="butt"/><path d="M326.26047,97.27896c-0.07213,2.16419 -0.84146,3.88726 -2.29243,4.65657c-1.45074,0.76938 -3.30882,0.43927 -5.14062,-0.71523c-1.83201,-1.15458 -3.63662,-3.13415 -4.97722,-5.66256c-1.34074,-2.52832 -1.96672,-5.13295 -1.89459,-7.29714c0.07213,-2.16419 0.84147,-3.88726 2.29231,-4.65649c1.45089,-0.76945 3.30888,-0.43949 5.14076,0.71517c1.83193,1.15443 3.63663,3.13415 4.97723,5.66256c1.34059,2.5284 1.96671,5.13294 1.89459,7.29713z" data-paper-data="{&quot;origPos&quot;:null}" id="ID0.16623971331864595" fill="#fff346" stroke-width="0.83998" stroke-linecap="butt"/><path d="M310.83343,104.38995c-2.00873,-2.03836 -3.35479,-4.3545 -3.90551,-6.44863c-0.55072,-2.09413 -0.30718,-3.96549 0.86242,-5.11804c1.16976,-1.15264 3.04448,-1.36877 5.13027,-0.78727c2.08586,0.58128 4.38192,1.96101 6.39073,3.99951c2.00873,2.03836 3.35457,4.35444 3.90551,6.44863c0.55072,2.09413 0.30719,3.96548 -0.86255,5.11811c-1.16976,1.15264 -3.04434,1.36869 -5.13027,0.78727c-2.0857,-0.58136 -4.38186,-1.96123 -6.3906,-3.99958z" data-paper-data="{&quot;origPos&quot;:null}" id="ID0.16623971331864595" fill="#fff346" stroke-width="0.83998" stroke-linecap="butt"/><path d="M373.99966,135.42161c-2.44615,8.41102 -8.09749,15.89107 -16.37137,20.43669c-8.27388,4.54563 -17.61805,5.30401 -26.02906,2.85787c-8.41102,-2.44615 -15.89107,-8.09749 -20.43669,-16.37137c-4.54563,-8.27388 -5.30402,-17.61804 -2.85787,-26.02906c2.44615,-8.41102 8.09748,-15.89106 16.37136,-20.43669c8.27388,-4.54563 17.61804,-5.30402 26.02907,-2.85788c8.41102,2.44615 15.89106,8.09748 20.43669,16.37136c4.54563,8.27388 5.30403,17.61805 2.85788,26.02907z" data-paper-data="{&quot;origPos&quot;:null}" id="ID0.1863371403887868" fill="#e12323" stroke-width="1" stroke-linecap="butt"/><path d="M376.13098,147.42579c-1.35214,2.67015 -3.84107,5.231 -7.1424,7.04474c-3.30133,1.81373 -6.79758,2.54108 -9.77642,2.25036c-2.98031,-0.29009 -5.44518,-1.59848 -6.6846,-3.85445c-1.23942,-2.25598 -1.02193,-5.03822 0.33162,-7.70915c1.35214,-2.67015 3.84107,-5.231 7.1424,-7.04474c3.30133,-1.81373 6.79759,-2.54109 9.77642,-2.25036c2.98025,0.28995 5.44517,1.59849 6.6846,3.85446c1.23942,2.25598 1.02186,5.03808 -0.33162,7.70913z" data-paper-data="{&quot;origPos&quot;:null}" id="ID0.39472739631310105" fill="#ffffff" stroke-width="0.91936" stroke-linecap="butt"/><path d="M368.90041,135.77497c-1.33806,2.69577 -3.81828,5.2725 -7.11962,7.08623c-3.30133,1.81373 -6.80631,2.52523 -9.7992,2.20886c-2.99433,-0.31558 -5.4787,-1.65952 -6.7396,-3.95459c-1.2609,-2.29507 -1.06279,-5.11258 0.27668,-7.80913c1.33799,-2.69592 3.8182,-5.27264 7.11953,-7.08637c3.30133,-1.81373 6.80631,-2.52523 9.7993,-2.20873c2.99433,0.31558 5.47863,1.65938 6.73953,3.95445c1.2609,2.29507 1.06288,5.11271 -0.2766,7.80927z" data-paper-data="{&quot;origPos&quot;:null}" id="ID0.39472739631310105" fill="#ffffff" stroke-width="0.9259" stroke-linecap="butt"/><path d="M357.39522,155.61187c-0.92419,2.4188 -2.81595,4.64034 -5.45305,6.08914c-2.63711,1.4488 -5.5267,1.8541 -8.06387,1.33697c-2.53718,-0.51713 -4.72188,-1.95658 -5.95057,-4.19301c-1.22869,-2.23644 -1.27206,-4.8525 -0.34787,-7.27129c0.92428,-2.41866 2.81603,-4.64019 5.45315,-6.089c2.63711,-1.4488 5.52668,-1.85411 8.06379,-1.33712c2.53718,0.51713 4.72196,1.95672 5.95064,4.19315c1.22869,2.23644 1.27197,4.85236 0.34778,7.27116z" data-paper-data="{&quot;origPos&quot;:null}" id="ID0.2919205715879798" fill="#ffb197" stroke-width="0.99783" stroke-linecap="round"/><path d="M350.52578,157.27481c-0.6376,0.56343 -1.53874,0.93942 -2.55125,0.99196c-1.01234,0.05246 -1.94757,-0.22821 -2.64003,-0.72245c-0.69129,-0.49581 -1.14106,-1.20507 -1.18289,-2.01214c-0.04206,-0.80714 0.33208,-1.55918 0.96831,-2.12371c0.6376,-0.56343 1.53875,-0.93942 2.55111,-0.99187c1.01249,-0.05254 1.9477,0.22813 2.64009,0.72258c0.69135,0.49559 1.14112,1.20485 1.18303,2.01206c0.04183,0.80707 -0.33214,1.55903 -0.96838,2.12355z" data-paper-data="{&quot;origPos&quot;:null}" id="ID0.41036201547831297" fill="#a27060" stroke-width="0.73984" stroke-linecap="butt"/><path d="M360.23957,139.80084c-0.40632,0.65652 -1.10708,1.3107 -2.00641,1.80479c-0.89933,0.49409 -1.82729,0.73472 -2.59932,0.72558c-0.77203,-0.00914 -1.3903,-0.26867 -1.66964,-0.77713c-0.27934,-0.50846 -0.16682,-1.16947 0.23951,-1.82599c0.40632,-0.65652 1.10708,-1.31069 2.00641,-1.80478c0.89933,-0.49409 1.82729,-0.73472 2.59932,-0.72559c0.77203,0.00914 1.39029,0.26868 1.66963,0.77713c0.27934,0.50846 0.16682,1.16947 -0.2395,1.82599z" data-paper-data="{&quot;origPos&quot;:null}" id="ID0.26917251013219357" fill="#001966" stroke-width="1" stroke-linecap="butt"/><path d="M365.3361,149.07745c-0.40632,0.65652 -1.10708,1.3107 -2.00641,1.80479c-0.89933,0.49409 -1.82729,0.73472 -2.59932,0.72558c-0.77203,-0.00914 -1.3903,-0.26867 -1.66964,-0.77713c-0.27934,-0.50846 -0.16682,-1.16947 0.23951,-1.82599c0.40632,-0.65652 1.10708,-1.31069 2.00641,-1.80478c0.89933,-0.49409 1.82729,-0.73473 2.59932,-0.72559c0.77203,0.00914 1.39029,0.26868 1.66963,0.77713c0.27934,0.50846 0.16682,1.16947 -0.2395,1.82599z" data-paper-data="{&quot;origPos&quot;:null}" id="ID0.26917251013219357" fill="#001966" stroke-width="1" stroke-linecap="butt"/><g data-paper-data="{&quot;origPos&quot;:null}" id="ID0.5137764848768711" fill="#ffffff"><path d="M352.57787,96.98868c0.77065,3.96567 0.16083,8.61657 -2.00968,13.00812c-2.17043,4.39171 -5.49473,7.70098 -9.11316,9.49735c-3.61768,1.79837 -7.52934,2.08374 -10.87277,0.43131c-3.34345,-1.65244 -5.49253,-4.93325 -6.26125,-8.89944c-0.77056,-3.96554 -0.16067,-8.61662 2.00982,-13.0082c2.17036,-4.39148 5.49482,-7.70085 9.11323,-9.49724c3.61768,-1.79837 7.52925,-2.08388 10.87278,-0.4313c3.34345,1.65244 5.49246,4.93312 6.26102,8.89938z" id="ID0.9694409435614944" stroke-width="0.90437" stroke-linecap="butt"/><path d="M353.9791,79.54761c0.57099,4.68657 0.35394,11.87735 -0.27909,18.0123c-0.40265,3.87922 -1.17527,8.25928 -2.47497,10.58256c-2.95375,5.10968 -6.33034,8.40843 -9.4582,10.27047c-0.78217,0.4664 -0.46392,-2.72444 -0.46834,-4.23999c-0.01461,-5.9331 -0.52287,-11.06363 0.27917,-18.01216c0.8021,-6.94876 2.20833,-13.16907 3.83177,-17.60228c1.62359,-4.43329 3.4644,-7.07947 5.13671,-6.88645c1.67254,0.19308 2.86216,3.18903 3.43292,7.87554z" id="ID0.4074811181053519" stroke-width="1.53181" stroke-linecap="round"/><path d="M344.76429,83.00649c0.73007,3.30689 0.90216,7.77783 0.3428,12.62392c-0.55937,4.84608 -1.74546,9.16053 -3.20981,12.21404c-1.46429,3.05331 -3.20655,4.84589 -4.87908,4.65281c-1.67231,-0.19302 -2.96049,-2.3354 -3.69062,-5.64204c-0.73022,-3.3068 -0.90216,-7.77782 -0.3428,-12.62391c0.55937,-4.84608 1.74547,-9.16053 3.20975,-12.21382c1.46436,-3.05353 3.20662,-4.84611 4.87901,-4.65295c1.67247,0.19295 2.96064,2.33531 3.69077,5.64196z" id="ID0.4074811181053519" stroke-width="1.13742" stroke-linecap="butt"/><path d="M335.62482,90.22155c0.75653,3.07717 0.96517,7.2314 0.44613,11.7277c-0.51896,4.49644 -1.66853,8.49377 -3.1062,11.31765c-1.43781,2.82395 -3.16389,4.47453 -4.83619,4.28152c-1.67238,-0.19316 -2.9769,-2.19343 -3.73366,-5.27066c-0.75661,-3.07732 -0.96518,-7.2314 -0.44613,-11.7277c0.51896,-4.49644 1.66853,-8.49377 3.10634,-11.31773c1.43768,-2.82388 3.16374,-4.47447 4.83606,-4.28144c1.67231,0.19302 2.97704,2.19335 3.73366,5.27066z" id="ID0.4074811181053519" stroke-width="1.07474" stroke-linecap="butt"/></g><path d="M307.53246,117.67326c0,0 9.89385,1.24367 19.12483,18.04574c9.23096,16.80207 5.24686,23.52108 5.24686,23.52108c0,0 -11.28559,0.13497 -20.51655,-16.6671c-9.23097,-16.80208 -3.85515,-24.89974 -3.85515,-24.89974z" data-paper-data="{&quot;origPos&quot;:null}" fill="#ffffff" stroke-width="0" stroke-linecap="butt"/><g data-paper-data="{&quot;origPos&quot;:null,&quot;index&quot;:null}" id="ID0.20286902273073792" fill="#fff346" stroke-width="0.88955" stroke-linecap="round"><path d="M105.75931,232.52057l17.98497,29.15385l-25.49181,-2.06805l-2.19896,-4.4502l3.83977,-3.0117l-6.83896,-0.50695l-3.13059,-5.25057l6.62316,-2.57267l-8.29953,-1.67272l-2.08662,-9.02229z" id="ID0.07827324094250798"/><path d="M97.7809,257.81536c-0.00196,-3.8992 2.53485,-7.99586 5.68204,-10.25628c2.2884,-1.64423 5.57013,-1.24447 8.45978,0.09881c2.89177,1.34376 5.31746,4.60354 7.50914,7.32424c1.7385,2.16432 3.09436,4.49462 4.27136,6.87894c0.67664,1.49138 2.47176,3.62145 1.24164,4.64814c-3.19393,2.66499 -7.62504,4.27784 -11.74694,3.99359c-3.70587,-0.25525 -6.78575,-3.23414 -9.64221,-5.60937c-2.33732,-1.94375 -5.73935,-4.0371 -5.77482,-7.07806z" id="ID0.3567104428075254"/></g><path d="M146.93907,261.50961c0.6278,-2.07232 1.81563,-3.53874 3.41583,-3.9079c1.6002,-0.36916 3.31027,0.4289 4.78229,2.01687c1.47224,1.58805 2.70518,3.96613 3.34848,6.75465c0.64324,2.78873 0.57641,5.46664 -0.05162,7.5389c-0.6278,2.07232 -1.81562,3.53874 -3.41582,3.90789c-1.6002,0.36916 -3.31027,-0.4289 -4.7823,-2.01686c-1.47216,-1.58789 -2.70518,-3.96614 -3.34834,-6.75474c-0.64317,-2.78859 -0.5764,-5.46663 0.05148,-7.53881z" data-paper-data="{&quot;origPos&quot;:null,&quot;index&quot;:null}" id="ID0.16623971331864595" fill="#fff346" stroke-width="0.83998" stroke-linecap="butt"/><path d="M153.73953,262.72102c0.07213,-2.16419 0.84146,-3.88726 2.29243,-4.65657c1.45074,-0.76938 3.30882,-0.43927 5.14062,0.71523c1.83201,1.15458 3.63662,3.13415 4.97722,5.66256c1.34074,2.52832 1.96672,5.13295 1.89459,7.29714c-0.07213,2.16419 -0.84147,3.88726 -2.29231,4.65649c-1.45089,0.76945 -3.30888,0.43949 -5.14076,-0.71517c-1.83193,-1.15443 -3.63663,-3.13415 -4.97723,-5.66256c-1.34059,-2.5284 -1.96671,-5.13294 -1.89459,-7.29713z" data-paper-data="{&quot;origPos&quot;:null,&quot;index&quot;:null}" id="ID0.16623971331864595" fill="#fff346" stroke-width="0.83998" stroke-linecap="butt"/><path d="M169.16658,255.61003c2.00873,2.03836 3.35479,4.3545 3.90551,6.44863c0.55072,2.09413 0.30718,3.96549 -0.86242,5.11804c-1.16976,1.15264 -3.04448,1.36877 -5.13027,0.78727c-2.08586,-0.58128 -4.38192,-1.96101 -6.39073,-3.99951c-2.00873,-2.03836 -3.35457,-4.35444 -3.90551,-6.44863c-0.55072,-2.09413 -0.30719,-3.96548 0.86255,-5.11811c1.16976,-1.15264 3.04434,-1.36869 5.13027,-0.78727c2.0857,0.58136 4.38186,1.96123 6.3906,3.99958z" data-paper-data="{&quot;origPos&quot;:null,&quot;index&quot;:null}" id="ID0.16623971331864595" fill="#fff346" stroke-width="0.83998" stroke-linecap="butt"/><path d="M106.00033,224.57838c2.44615,-8.41102 8.09749,-15.89107 16.37137,-20.43669c8.27388,-4.54563 17.61805,-5.30401 26.02906,-2.85787c8.41102,2.44615 15.89107,8.09749 20.43669,16.37137c4.54563,8.27388 5.30402,17.61804 2.85787,26.02906c-2.44615,8.41102 -8.09748,15.89106 -16.37136,20.43669c-8.27388,4.54563 -17.61804,5.30402 -26.02907,2.85788c-8.41102,-2.44615 -15.89106,-8.09748 -20.43669,-16.37136c-4.54563,-8.27388 -5.30403,-17.61805 -2.85788,-26.02907z" data-paper-data="{&quot;origPos&quot;:null,&quot;index&quot;:null}" id="ID0.1863371403887868" fill="#e12323" stroke-width="1" stroke-linecap="butt"/><path d="M103.86902,212.57422c1.35214,-2.67015 3.84107,-5.231 7.1424,-7.04474c3.30133,-1.81373 6.79758,-2.54108 9.77642,-2.25036c2.98031,0.29009 5.44518,1.59848 6.6846,3.85445c1.23942,2.25598 1.02193,5.03822 -0.33162,7.70915c-1.35214,2.67015 -3.84107,5.231 -7.1424,7.04474c-3.30133,1.81373 -6.79759,2.54109 -9.77642,2.25036c-2.98025,-0.28995 -5.44517,-1.59849 -6.6846,-3.85446c-1.23942,-2.25598 -1.02186,-5.03808 0.33162,-7.70913z" data-paper-data="{&quot;origPos&quot;:null,&quot;index&quot;:null}" id="ID0.39472739631310105" fill="#ffffff" stroke-width="0.91936" stroke-linecap="butt"/><path d="M111.09959,224.22501c1.33806,-2.69577 3.81828,-5.2725 7.11962,-7.08623c3.30133,-1.81373 6.80631,-2.52523 9.7992,-2.20886c2.99433,0.31558 5.4787,1.65952 6.7396,3.95459c1.2609,2.29507 1.06279,5.11258 -0.27668,7.80913c-1.33799,2.69592 -3.8182,5.27264 -7.11953,7.08637c-3.30133,1.81373 -6.80631,2.52523 -9.7993,2.20873c-2.99433,-0.31558 -5.47863,-1.65938 -6.73953,-3.95445c-1.2609,-2.29507 -1.06288,-5.11271 0.2766,-7.80927z" data-paper-data="{&quot;origPos&quot;:null,&quot;index&quot;:null}" id="ID0.39472739631310105" fill="#ffffff" stroke-width="0.9259" stroke-linecap="butt"/><path d="M122.60479,204.38812c0.92419,-2.4188 2.81595,-4.64034 5.45305,-6.08914c2.63711,-1.4488 5.5267,-1.8541 8.06387,-1.33697c2.53718,0.51713 4.72188,1.95658 5.95057,4.19301c1.22869,2.23644 1.27206,4.8525 0.34787,7.27129c-0.92428,2.41866 -2.81603,4.64019 -5.45315,6.089c-2.63711,1.4488 -5.52668,1.85411 -8.06379,1.33712c-2.53718,-0.51713 -4.72196,-1.95672 -5.95064,-4.19315c-1.22869,-2.23644 -1.27197,-4.85236 -0.34778,-7.27116z" data-paper-data="{&quot;origPos&quot;:null,&quot;index&quot;:null}" id="ID0.2919205715879798" fill="#ffb197" stroke-width="0.99783" stroke-linecap="round"/><path d="M129.47422,202.72518c0.6376,-0.56343 1.53874,-0.93942 2.55125,-0.99196c1.01234,-0.05246 1.94757,0.22821 2.64003,0.72245c0.69129,0.49581 1.14106,1.20507 1.18289,2.01214c0.04206,0.80714 -0.33208,1.55918 -0.96831,2.12371c-0.6376,0.56343 -1.53875,0.93942 -2.55111,0.99187c-1.01249,0.05254 -1.9477,-0.22813 -2.64009,-0.72258c-0.69135,-0.49559 -1.14112,-1.20485 -1.18303,-2.01206c-0.04183,-0.80707 0.33214,-1.55903 0.96838,-2.12355z" data-paper-data="{&quot;origPos&quot;:null,&quot;index&quot;:null}" id="ID0.41036201547831297" fill="#a27060" stroke-width="0.73984" stroke-linecap="butt"/><path d="M119.76041,220.19914c0.40632,-0.65652 1.10708,-1.3107 2.00641,-1.80479c0.89933,-0.49409 1.82729,-0.73472 2.59932,-0.72558c0.77203,0.00914 1.3903,0.26867 1.66964,0.77713c0.27934,0.50846 0.16682,1.16947 -0.23951,1.82599c-0.40632,0.65652 -1.10708,1.31069 -2.00641,1.80478c-0.89933,0.49409 -1.82729,0.73472 -2.59932,0.72559c-0.77203,-0.00914 -1.39029,-0.26868 -1.66963,-0.77713c-0.27934,-0.50846 -0.16682,-1.16947 0.2395,-1.82599z" data-paper-data="{&quot;origPos&quot;:null,&quot;index&quot;:null}" id="ID0.26917251013219357" fill="#001966" stroke-width="1" stroke-linecap="butt"/><path d="M114.66391,210.92254c0.40632,-0.65652 1.10708,-1.3107 2.00641,-1.80479c0.89933,-0.49409 1.82729,-0.73472 2.59932,-0.72558c0.77203,0.00914 1.3903,0.26867 1.66964,0.77713c0.27934,0.50846 0.16682,1.16947 -0.23951,1.82599c-0.40632,0.65652 -1.10708,1.31069 -2.00641,1.80478c-0.89933,0.49409 -1.82729,0.73473 -2.59932,0.72559c-0.77203,-0.00914 -1.39029,-0.26868 -1.66963,-0.77713c-0.27934,-0.50846 -0.16682,-1.16947 0.2395,-1.82599z" data-paper-data="{&quot;origPos&quot;:null,&quot;index&quot;:null}" id="ID0.26917251013219357" fill="#001966" stroke-width="1" stroke-linecap="butt"/><g data-paper-data="{&quot;origPos&quot;:null,&quot;index&quot;:null}" id="ID0.5137764848768711" fill="#ffffff"><path d="M127.42213,263.0113c-0.77065,-3.96567 -0.16083,-8.61657 2.00968,-13.00812c2.17043,-4.39171 5.49473,-7.70098 9.11316,-9.49735c3.61768,-1.79837 7.52934,-2.08374 10.87277,-0.43131c3.34345,1.65244 5.49253,4.93325 6.26125,8.89944c0.77056,3.96554 0.16067,8.61662 -2.00982,13.0082c-2.17036,4.39148 -5.49482,7.70085 -9.11323,9.49724c-3.61768,1.79837 -7.52925,2.08388 -10.87278,0.4313c-3.34345,-1.65244 -5.49246,-4.93312 -6.26102,-8.89938z" id="ID0.9694409435614944" stroke-width="0.90437" stroke-linecap="butt"/><path d="M126.02089,280.45237c-0.57099,-4.68657 -0.35394,-11.87735 0.27909,-18.0123c0.40265,-3.87922 1.17527,-8.25928 2.47497,-10.58256c2.95375,-5.10968 6.33034,-8.40843 9.4582,-10.27047c0.78217,-0.4664 0.46392,2.72444 0.46834,4.23999c0.01461,5.9331 0.52287,11.06363 -0.27917,18.01216c-0.8021,6.94876 -2.20833,13.16907 -3.83177,17.60228c-1.62359,4.43329 -3.4644,7.07947 -5.13671,6.88645c-1.67254,-0.19308 -2.86216,-3.18903 -3.43292,-7.87554z" id="ID0.4074811181053519" stroke-width="1.53181" stroke-linecap="round"/><path d="M135.2357,276.9935c-0.73007,-3.30689 -0.90216,-7.77783 -0.3428,-12.62392c0.55937,-4.84608 1.74546,-9.16053 3.20981,-12.21404c1.46429,-3.05331 3.20655,-4.84589 4.87908,-4.65281c1.67231,0.19302 2.96049,2.3354 3.69062,5.64204c0.73022,3.3068 0.90216,7.77782 0.3428,12.62391c-0.55937,4.84608 -1.74547,9.16053 -3.20975,12.21382c-1.46436,3.05353 -3.20662,4.84611 -4.87901,4.65295c-1.67247,-0.19295 -2.96064,-2.33531 -3.69077,-5.64196z" id="ID0.4074811181053519" stroke-width="1.13742" stroke-linecap="butt"/><path d="M144.37518,269.77844c-0.75653,-3.07717 -0.96517,-7.2314 -0.44613,-11.7277c0.51896,-4.49644 1.66853,-8.49377 3.1062,-11.31765c1.43781,-2.82395 3.16389,-4.47453 4.83619,-4.28152c1.67238,0.19316 2.9769,2.19343 3.73366,5.27066c0.75661,3.07732 0.96518,7.2314 0.44613,11.7277c-0.51896,4.49644 -1.66853,8.49377 -3.10634,11.31773c-1.43768,2.82388 -3.16374,4.47447 -4.83606,4.28144c-1.67231,-0.19302 -2.97704,-2.19335 -3.73366,-5.27066z" id="ID0.4074811181053519" stroke-width="1.07474" stroke-linecap="butt"/></g><path d="M172.46755,242.32673c0,0 -9.89385,-1.24367 -19.12483,-18.04574c-9.23096,-16.80207 -5.24686,-23.52108 -5.24686,-23.52108c0,0 11.28559,-0.13497 20.51655,16.6671c9.23097,16.80208 3.85515,24.89974 3.85515,24.89974z" data-paper-data="{&quot;origPos&quot;:null,&quot;index&quot;:null}" fill="#ffffff" stroke-width="0" stroke-linecap="butt"/></g><g data-paper-data="{&quot;origRot&quot;:0,&quot;origPos&quot;:null}"><g data-paper-data="{&quot;origPos&quot;:null}" id="ID0.20286902273073792" fill="#fff346" stroke-width="0.88955" stroke-linecap="round"><path d="M356.77545,264.51314l14.7964,-30.89454l12.04651,22.56083l-2.55408,4.25634l-4.60985,-1.60109l3.27211,6.02675l-2.72348,5.47282l-5.74583,-4.17976l3.08141,7.88576l-6.46065,6.63445z" id="ID0.07827324094250798"/><path d="M382.36688,257.54465c-3.27875,2.11035 -8.09656,2.19199 -11.69992,0.76718c-2.62062,-1.03568 -4.05913,-4.01231 -4.49196,-7.16938c-0.43357,-3.15912 0.99657,-6.96238 2.09981,-10.27727c0.88033,-2.63281 2.1072,-5.03352 3.47625,-7.313c0.88854,-1.3757 1.70946,-4.03761 3.23829,-3.55814c3.96894,1.24534 7.72195,4.10032 9.71199,7.72119c1.78944,3.25523 0.94936,7.45687 0.49622,11.14409c-0.37096,3.01722 -0.29194,7.01093 -2.83067,8.68532z" id="ID0.3567104428075254"/></g><path d="M358.88939,214.19744c-2.08264,0.59264 -3.95851,0.38655 -5.13441,-0.75981c-1.17591,-1.14637 -1.42944,-3.01638 -0.88978,-5.11334c0.53959,-2.0972 1.87314,-4.42035 3.87079,-6.46951c1.99787,-2.04921 4.28653,-3.44122 6.36926,-4.03364c2.08264,-0.59264 3.9585,-0.38656 5.1344,0.75981c1.17591,1.14637 1.42944,3.01638 0.8898,5.11334c-0.53951,2.09705 -1.87315,4.42036 -3.87095,6.46944c-1.99779,2.04909 -4.28652,3.44121 -6.36909,4.03371z" data-paper-data="{&quot;origPos&quot;:null}" id="ID0.16623971331864595" fill="#fff346" stroke-width="0.83998" stroke-linecap="butt"/><path d="M356.23067,207.82211c-1.85941,1.10973 -3.72483,1.39445 -5.15662,0.59001c-1.43172,-0.80421 -2.15892,-2.54565 -2.17845,-4.71083c-0.01959,-2.1654 0.6696,-4.7539 2.07136,-7.24891c1.40162,-2.49508 3.25397,-4.43022 5.11338,-5.53995c1.85941,-1.10973 3.72484,-1.39444 5.15649,-0.59008c1.43187,0.8043 2.15913,2.54559 2.17858,4.7109c0.01967,2.16525 -0.66958,4.7539 -2.07135,7.24892c-1.40177,2.49501 -3.25397,4.43021 -5.11338,5.53994z" data-paper-data="{&quot;origPos&quot;:null}" id="ID0.16623971331864595" fill="#fff346" stroke-width="0.83998" stroke-linecap="butt"/><path d="M341.90626,198.6913c0.62824,-2.792 1.8485,-5.1768 3.31214,-6.77255c1.46364,-1.59575 3.16944,-2.40293 4.77143,-2.04243c1.60215,0.36059 2.79781,1.82062 3.43668,3.88956c0.6391,2.06887 0.72026,4.74637 0.09195,7.53851c-0.62824,2.792 -1.84857,5.17659 -3.31214,6.77255c-1.46364,1.59575 -3.16943,2.40294 -4.77157,2.04235c-1.60215,-0.36059 -2.79766,-1.82055 -3.43668,-3.88956c-0.63895,-2.06879 -0.72004,-4.74643 -0.09181,-7.53843z" data-paper-data="{&quot;origPos&quot;:null}" id="ID0.16623971331864595" fill="#fff346" stroke-width="0.83998" stroke-linecap="butt"/><path d="M349.96453,268.60555c-8.3978,2.49113 -17.7459,1.78274 -26.04399,-2.71854c-8.29809,-4.50128 -13.98937,-11.95097 -16.4805,-20.34877c-2.49113,-8.3978 -1.78274,-17.7459 2.71854,-26.04399c4.50128,-8.29809 11.95097,-13.98938 20.34878,-16.48051c8.3978,-2.49113 17.74589,-1.78274 26.04398,2.71853c8.29809,4.50128 13.98938,11.95097 16.48052,20.34878c2.49113,8.3978 1.78274,17.74589 -2.71853,26.04398c-4.50128,8.29809 -11.95098,13.98939 -20.34878,16.48051z" data-paper-data="{&quot;origPos&quot;:null}" id="ID0.1863371403887868" fill="#e12323" stroke-width="1" stroke-linecap="butt"/><path d="M341.01985,276.8902c-2.97723,0.30666 -6.47732,-0.40197 -9.78832,-2.19801c-3.31098,-1.79604 -5.81358,-4.34355 -7.18,-7.00642c-1.36776,-2.66377 -1.60022,-5.44466 -0.37289,-7.70725c1.22733,-2.26258 3.68523,-3.58429 6.66389,-3.89019c2.97723,-0.30666 6.47732,0.40197 9.78831,2.19802c3.31098,1.79604 5.81359,4.34355 7.18001,7.00642c1.36784,2.66363 1.6002,5.44467 0.37287,7.70726c-1.22733,2.26258 -3.68515,3.58414 -6.66387,3.89018z" data-paper-data="{&quot;origPos&quot;:null}" id="ID0.39472739631310105" fill="#ffffff" stroke-width="0.91936" stroke-linecap="butt"/><path d="M346.9096,264.50741c-2.99118,0.33238 -6.49989,-0.36036 -9.8109,-2.1564c-3.31098,-1.79604 -5.80497,-4.35946 -7.15742,-7.04803c-1.35389,-2.68934 -1.56699,-5.50589 -0.31839,-7.80767c1.2486,-2.30178 3.72567,-3.65886 6.71827,-3.99047c2.99126,-0.33251 6.49998,0.36022 9.81096,2.15625c3.31098,1.79604 5.80497,4.35947 7.15736,7.04818c1.35389,2.68934 1.56708,5.50575 0.31848,7.80753c-1.2486,2.30178 -3.72575,3.65901 -6.71835,3.99061z" data-paper-data="{&quot;origPos&quot;:null}" id="ID0.39472739631310105" fill="#ffffff" stroke-width="0.9259" stroke-linecap="butt"/><path d="M324.00176,265.5577c-2.53438,0.53071 -5.42609,0.14088 -8.07091,-1.2938c-2.64481,-1.43468 -4.54844,-3.64607 -5.48556,-6.05988c-0.93712,-2.41381 -0.90784,-5.02993 0.30886,-7.27291c1.2167,-2.24299 3.39374,-3.69424 5.92812,-4.22495c2.5343,-0.53057 5.42602,-0.14073 8.07084,1.29396c2.64481,1.43468 4.54843,3.64605 5.48564,6.05973c0.93712,2.41381 0.90776,5.03007 -0.30894,7.27305c-1.2167,2.24299 -3.39367,3.6941 -5.92804,4.22481z" data-paper-data="{&quot;origPos&quot;:null}" id="ID0.2919205715879798" fill="#ffb197" stroke-width="0.99783" stroke-linecap="round"/><path d="M318.88798,260.67879c-0.81874,-0.23161 -1.62234,-0.78628 -2.21411,-1.60952c-0.5916,-0.82316 -0.86129,-1.76161 -0.82005,-2.61136c0.04319,-0.84961 0.39655,-1.61151 1.05279,-2.08316c0.65618,-0.47188 1.49109,-0.56389 2.31003,-0.33402c0.81874,0.23161 1.62235,0.78629 2.21396,1.60946c0.59176,0.82324 0.86143,1.76168 0.81997,2.61149c-0.04298,0.84955 -0.39633,1.61144 -1.05265,2.08324c-0.65625,0.47165 -1.49099,0.56374 -2.30993,0.33387z" data-paper-data="{&quot;origPos&quot;:null}" id="ID0.41036201547831297" fill="#a27060" stroke-width="0.73984" stroke-linecap="butt"/><path d="M338.83943,259.39957c-0.77197,0.01327 -1.7012,-0.22239 -2.60316,-0.71166c-0.90196,-0.48927 -1.60621,-1.13969 -2.01604,-1.79403c-0.40983,-0.65433 -0.52589,-1.31475 -0.24927,-1.82469c0.27661,-0.50994 0.89348,-0.77278 1.66546,-0.78604c0.77197,-0.01327 1.7012,0.2224 2.60316,0.71166c0.90196,0.48927 1.60621,1.13969 2.01604,1.79402c0.40983,0.65433 0.52588,1.31474 0.24926,1.82468c-0.27661,0.50994 -0.89349,0.77278 -1.66545,0.78605z" data-paper-data="{&quot;origPos&quot;:null}" id="ID0.26917251013219357" fill="#001966" stroke-width="1" stroke-linecap="butt"/><path d="M333.79264,268.70332c-0.77197,0.01327 -1.70121,-0.22239 -2.60317,-0.71165c-0.90196,-0.48927 -1.60621,-1.13969 -2.01604,-1.79403c-0.40983,-0.65433 -0.52588,-1.31475 -0.24927,-1.82469c0.27661,-0.50994 0.89348,-0.77278 1.66546,-0.78604c0.77197,-0.01327 1.7012,0.2224 2.60316,0.71167c0.90196,0.48927 1.60622,1.13968 2.01604,1.79401c0.40983,0.65433 0.52587,1.31475 0.24926,1.82469c-0.27661,0.50994 -0.89348,0.77278 -1.66545,0.78605z" data-paper-data="{&quot;origPos&quot;:null}" id="ID0.26917251013219357" fill="#001966" stroke-width="1" stroke-linecap="butt"/><g data-paper-data="{&quot;origPos&quot;:null}" id="ID0.5137764848768711" fill="#ffffff"><path d="M370.70736,229.80197c-2.91895,2.79287 -7.16084,4.79514 -12.02861,5.3444c-4.86787,0.54939 -9.44925,-0.45717 -12.91712,-2.52932c-3.46915,-2.07045 -5.82462,-5.2064 -6.24283,-8.91237c-0.4182,-3.70598 1.17923,-7.28796 4.09966,-10.07949c2.91888,-2.79274 7.16097,-4.79506 12.02874,-5.34432c4.86763,-0.54934 9.44919,0.45732 12.91706,2.52945c3.46915,2.07045 5.82469,5.20626 6.24282,8.91238c0.4182,3.70598 -1.17915,7.28782 -4.09972,10.07926z" id="ID0.9694409435614944" stroke-width="0.90437" stroke-linecap="butt"/><path d="M386.13569,221.54843c-3.63331,3.0148 -9.79921,6.72103 -15.30196,9.50636c-3.48076,1.75921 -7.58288,3.47807 -10.23998,3.64127c-5.8954,0.27878 -10.49621,-0.77745 -13.75402,-2.40144c-0.81532,-0.40569 2.04077,-1.86361 3.31318,-2.68694c4.98272,-3.22093 9.02339,-6.42305 15.30189,-9.50621c6.27871,-3.08322 12.27143,-5.26435 16.87838,-6.29629c4.60711,-1.03186 7.82845,-0.91453 8.57048,0.59653c0.74211,1.51128 -1.13458,4.13214 -4.76797,7.14672z" id="ID0.4074811181053519" stroke-width="1.53181" stroke-linecap="round"/><path d="M378.24288,215.66797c-2.38676,2.40247 -6.05443,4.96513 -10.43322,7.1154c-4.37878,2.15027 -8.64931,3.48585 -12.0097,3.90546c-3.36018,0.41955 -5.81023,-0.07652 -6.55233,-1.58779c-0.74203,-1.51105 0.36337,-3.7532 2.74989,-6.1556c2.38661,-2.40255 6.05442,-4.96512 10.43321,-7.11539c4.37878,-2.15027 8.64932,-3.48585 12.00948,-3.90539c3.3604,-0.41961 5.81046,0.07646 6.55241,1.58764c0.74218,1.51113 -0.36323,3.75328 -2.74976,6.15568z" id="ID0.4074811181053519" stroke-width="1.13742" stroke-linecap="butt"/><path d="M367.23127,211.88224c-2.17923,2.30051 -5.56072,4.72262 -9.62348,6.71764c-4.06282,1.99517 -8.04687,3.18997 -11.19967,3.50784c-3.15293,0.31779 -5.47479,-0.24145 -6.21683,-1.7525c-0.74196,-1.51119 0.23508,-3.69023 2.41424,-5.99096c2.1793,-2.30065 5.56071,-4.72262 9.62348,-6.71764c4.06282,-1.99517 8.04687,-3.18998 11.19981,-3.50777c3.15281,-0.31787 5.47465,0.24138 6.21668,1.75243c0.74203,1.51105 -0.23494,3.69031 -2.41424,5.99096z" id="ID0.4074811181053519" stroke-width="1.07474" stroke-linecap="butt"/></g><path d="M328.94785,203.09834c0,0 4.30452,8.99479 -4.83639,25.84603c-9.14092,16.85124 -16.94722,17.13367 -16.94722,17.13367c0,0 -6.21682,-9.41987 2.9241,-26.27111c9.14092,-16.85125 18.85951,-16.70862 18.85951,-16.70862z" data-paper-data="{&quot;origPos&quot;:null}" fill="#ffffff" stroke-width="0" stroke-linecap="butt"/><g data-paper-data="{&quot;origPos&quot;:null,&quot;index&quot;:null}" id="ID0.20286902273073792" fill="#fff346" stroke-width="0.88955" stroke-linecap="round"><path d="M123.22455,95.48683l-14.7964,30.89454l-12.04651,-22.56083l2.55408,-4.25634l4.60985,1.60109l-3.27211,-6.02675l2.72347,-5.47282l5.74583,4.17976l-3.0814,-7.88575l6.46065,-6.63445z" id="ID0.07827324094250798"/><path d="M97.63312,102.45532c3.27875,-2.11035 8.09656,-2.19199 11.69992,-0.76718c2.62062,1.03568 4.05912,4.0123 4.49196,7.16938c0.43357,3.15912 -0.99656,6.96238 -2.0998,10.27728c-0.88033,2.63281 -2.1072,5.03352 -3.47625,7.313c-0.88854,1.3757 -1.70946,4.03761 -3.23829,3.55814c-3.96894,-1.24534 -7.72195,-4.10032 -9.71199,-7.72119c-1.78944,-3.25523 -0.94937,-7.45687 -0.49622,-11.1441c0.37096,-3.01722 0.29195,-7.01093 2.83067,-8.68532z" id="ID0.3567104428075254"/></g><path d="M121.1106,145.80254c2.08264,-0.59264 3.95851,-0.38655 5.13441,0.75981c1.17591,1.14637 1.42944,3.01638 0.88979,5.11334c-0.53959,2.0972 -1.87314,4.42036 -3.87079,6.46952c-1.99787,2.04921 -4.28653,3.44122 -6.36926,4.03364c-2.08264,0.59264 -3.9585,0.38656 -5.1344,-0.75981c-1.17591,-1.14637 -1.42944,-3.01638 -0.8898,-5.11335c0.53951,-2.09705 1.87314,-4.42036 3.87094,-6.46944c1.99779,-2.04909 4.28653,-3.44121 6.3691,-4.03371z" data-paper-data="{&quot;origPos&quot;:null,&quot;index&quot;:null}" id="ID0.16623971331864595" fill="#fff346" stroke-width="0.83998" stroke-linecap="butt"/><path d="M123.76933,152.17787c1.85941,-1.10973 3.72483,-1.39445 5.15662,-0.59001c1.43172,0.80421 2.15892,2.54564 2.17845,4.71083c0.01959,2.1654 -0.66959,4.7539 -2.07136,7.24891c-1.40162,2.49508 -3.25397,4.43022 -5.11338,5.53995c-1.85941,1.10973 -3.72484,1.39444 -5.15649,0.59008c-1.43187,-0.8043 -2.15913,-2.54559 -2.17858,-4.7109c-0.01967,-2.16525 0.66959,-4.7539 2.07135,-7.24891c1.40177,-2.49501 3.25396,-4.43021 5.11337,-5.53994z" data-paper-data="{&quot;origPos&quot;:null,&quot;index&quot;:null}" id="ID0.16623971331864595" fill="#fff346" stroke-width="0.83998" stroke-linecap="butt"/><path d="M138.09374,161.30868c-0.62824,2.792 -1.84851,5.1768 -3.31215,6.77255c-1.46364,1.59575 -3.16944,2.40294 -4.77143,2.04243c-1.60215,-0.36059 -2.79781,-1.82062 -3.43668,-3.88956c-0.6391,-2.06887 -0.72026,-4.74637 -0.09195,-7.53851c0.62824,-2.792 1.84857,-5.17658 3.31215,-6.77255c1.46364,-1.59575 3.16943,-2.40294 4.77157,-2.04236c1.60215,0.36059 2.79766,1.82056 3.43668,3.88956c0.63895,2.06879 0.72004,4.74643 0.09181,7.53843z" data-paper-data="{&quot;origPos&quot;:null,&quot;index&quot;:null}" id="ID0.16623971331864595" fill="#fff346" stroke-width="0.83998" stroke-linecap="butt"/><path d="M130.03546,91.39442c8.3978,-2.49113 17.7459,-1.78274 26.04399,2.71854c8.29809,4.50128 13.98937,11.95098 16.48051,20.34878c2.49113,8.3978 1.78274,17.7459 -2.71854,26.04399c-4.50128,8.29809 -11.95097,13.98938 -20.34878,16.48051c-8.3978,2.49113 -17.7459,1.78274 -26.04399,-2.71854c-8.29809,-4.50128 -13.98937,-11.95097 -16.48051,-20.34878c-2.49113,-8.3978 -1.78274,-17.74589 2.71853,-26.04398c4.50128,-8.29809 11.95097,-13.98939 20.34878,-16.48051z" data-paper-data="{&quot;origPos&quot;:null,&quot;index&quot;:null}" id="ID0.1863371403887868" fill="#e12323" stroke-width="1" stroke-linecap="butt"/><path d="M138.98014,83.10978c2.97723,-0.30666 6.47732,0.40197 9.78831,2.19802c3.31098,1.79604 5.81359,4.34355 7.18001,7.00642c1.36776,2.66377 1.60022,5.44467 0.37289,7.70725c-1.22733,2.26258 -3.68523,3.58428 -6.66388,3.89019c-2.97723,0.30666 -6.47732,-0.40197 -9.78832,-2.19801c-3.31098,-1.79604 -5.81359,-4.34355 -7.18001,-7.00642c-1.36784,-2.66363 -1.6002,-5.44467 -0.37287,-7.70726c1.22733,-2.26258 3.68515,-3.58415 6.66387,-3.89018z" data-paper-data="{&quot;origPos&quot;:null,&quot;index&quot;:null}" id="ID0.39472739631310105" fill="#ffffff" stroke-width="0.91936" stroke-linecap="butt"/><path d="M133.0904,95.49256c2.99118,-0.33238 6.49989,0.36035 9.8109,2.1564c3.31098,1.79604 5.80497,4.35946 7.15743,7.04803c1.35389,2.68934 1.56699,5.50589 0.31839,7.80767c-1.2486,2.30178 -3.72568,3.65886 -6.71827,3.99047c-2.99126,0.33251 -6.49998,-0.36022 -9.81096,-2.15625c-3.31098,-1.79604 -5.80497,-4.35947 -7.15736,-7.04818c-1.35389,-2.68934 -1.56708,-5.50575 -0.31848,-7.80753c1.2486,-2.30178 3.72575,-3.65901 6.71835,-3.99061z" data-paper-data="{&quot;origPos&quot;:null,&quot;index&quot;:null}" id="ID0.39472739631310105" fill="#ffffff" stroke-width="0.9259" stroke-linecap="butt"/><path d="M155.99824,94.44228c2.53438,-0.53071 5.42609,-0.14088 8.0709,1.2938c2.64481,1.43468 4.54844,3.64607 5.48556,6.05988c0.93712,2.41381 0.90783,5.02993 -0.30886,7.27291c-1.2167,2.24299 -3.39374,3.69424 -5.92812,4.22495c-2.5343,0.53057 -5.42601,0.14073 -8.07083,-1.29395c-2.64481,-1.43468 -4.54843,-3.64606 -5.48564,-6.05973c-0.93712,-2.41381 -0.90776,-5.03007 0.30894,-7.27305c1.2167,-2.24299 3.39367,-3.6941 5.92804,-4.22481z" data-paper-data="{&quot;origPos&quot;:null,&quot;index&quot;:null}" id="ID0.2919205715879798" fill="#ffb197" stroke-width="0.99783" stroke-linecap="round"/><path d="M161.11202,99.32118c0.81874,0.23161 1.62234,0.78628 2.21411,1.60952c0.5916,0.82316 0.86129,1.76161 0.82005,2.61136c-0.04319,0.84961 -0.39655,1.61151 -1.05279,2.08316c-0.65618,0.47188 -1.49109,0.56389 -2.31003,0.33401c-0.81874,-0.23161 -1.62235,-0.78629 -2.21396,-1.60946c-0.59176,-0.82324 -0.86142,-1.76168 -0.81997,-2.61148c0.04298,-0.84955 0.39633,-1.61144 1.05265,-2.08324c0.65625,-0.47165 1.49099,-0.56374 2.30993,-0.33387z" data-paper-data="{&quot;origPos&quot;:null,&quot;index&quot;:null}" id="ID0.41036201547831297" fill="#a27060" stroke-width="0.73984" stroke-linecap="butt"/><path d="M141.16056,100.6004c0.77197,-0.01327 1.7012,0.22239 2.60316,0.71166c0.90196,0.48927 1.60621,1.13969 2.01604,1.79402c0.40983,0.65433 0.52588,1.31475 0.24927,1.82469c-0.27661,0.50994 -0.89348,0.77278 -1.66546,0.78604c-0.77197,0.01327 -1.7012,-0.2224 -2.60316,-0.71166c-0.90196,-0.48927 -1.60621,-1.13969 -2.01604,-1.79402c-0.40983,-0.65433 -0.52587,-1.31475 -0.24926,-1.82469c0.27661,-0.50994 0.89348,-0.77278 1.66545,-0.78605z" data-paper-data="{&quot;origPos&quot;:null,&quot;index&quot;:null}" id="ID0.26917251013219357" fill="#001966" stroke-width="1" stroke-linecap="butt"/><path d="M146.20736,91.29665c0.77197,-0.01327 1.70121,0.22239 2.60317,0.71165c0.90196,0.48927 1.60621,1.13969 2.01604,1.79403c0.40983,0.65433 0.52588,1.31475 0.24927,1.82469c-0.27661,0.50994 -0.89348,0.77278 -1.66546,0.78604c-0.77197,0.01327 -1.7012,-0.2224 -2.60316,-0.71167c-0.90196,-0.48927 -1.60622,-1.13968 -2.01604,-1.79401c-0.40983,-0.65433 -0.52588,-1.31475 -0.24926,-1.82469c0.27661,-0.50994 0.89349,-0.77277 1.66545,-0.78604z" data-paper-data="{&quot;origPos&quot;:null,&quot;index&quot;:null}" id="ID0.26917251013219357" fill="#001966" stroke-width="1" stroke-linecap="butt"/><g data-paper-data="{&quot;origPos&quot;:null,&quot;index&quot;:null}" id="ID0.5137764848768711" fill="#ffffff"><path d="M109.29263,130.198c2.91895,-2.79287 7.16084,-4.79515 12.02861,-5.3444c4.86787,-0.54939 9.44925,0.45718 12.91712,2.52933c3.46915,2.07045 5.82462,5.2064 6.24283,8.91237c0.4182,3.70598 -1.17922,7.28795 -4.09965,10.07948c-2.91888,2.79274 -7.16098,4.79505 -12.02875,5.34432c-4.86763,0.54934 -9.44919,-0.45732 -12.91706,-2.52945c-3.46915,-2.07045 -5.82469,-5.20626 -6.24282,-8.91238c-0.4182,-3.70598 1.17914,-7.28783 4.09972,-10.07927z" id="ID0.9694409435614944" stroke-width="0.90437" stroke-linecap="butt"/><path d="M93.8643,138.45153c3.63331,-3.0148 9.79921,-6.72103 15.30196,-9.50636c3.48076,-1.75921 7.58288,-3.47807 10.23998,-3.64127c5.8954,-0.27878 10.49621,0.77745 13.75402,2.40145c0.81532,0.40569 -2.04077,1.86361 -3.31318,2.68693c-4.98272,3.22093 -9.02339,6.42306 -15.30189,9.50622c-6.27871,3.08322 -12.27143,5.26435 -16.87838,6.29628c-4.60711,1.03186 -7.82844,0.91453 -8.57047,-0.59653c-0.74211,-1.51128 1.13458,-4.13214 4.76797,-7.14672z" id="ID0.4074811181053519" stroke-width="1.53181" stroke-linecap="round"/><path d="M101.75712,144.332c2.38676,-2.40247 6.05443,-4.96513 10.43322,-7.11541c4.37878,-2.15027 8.64931,-3.48585 12.0097,-3.90546c3.36018,-0.41955 5.81023,0.07652 6.55233,1.58778c0.74203,1.51105 -0.36337,3.7532 -2.74989,6.1556c-2.38661,2.40255 -6.05442,4.96512 -10.43321,7.11539c-4.37878,2.15027 -8.64932,3.48584 -12.00949,3.90539c-3.3604,0.41961 -5.81046,-0.07645 -6.55241,-1.58764c-0.74218,-1.51113 0.36323,-3.75328 2.74976,-6.15568z" id="ID0.4074811181053519" stroke-width="1.13742" stroke-linecap="butt"/><path d="M112.76872,148.11773c2.17923,-2.30051 5.56072,-4.72262 9.62348,-6.71764c4.06282,-1.99517 8.04687,-3.18998 11.19967,-3.50784c3.15293,-0.31779 5.47479,0.24146 6.21682,1.75251c0.74196,1.51119 -0.23508,3.69023 -2.41424,5.99095c-2.1793,2.30065 -5.56071,4.72263 -9.62347,6.71765c-4.06282,1.99517 -8.04687,3.18997 -11.19981,3.50777c-3.15281,0.31787 -5.47465,-0.24137 -6.21668,-1.75242c-0.74203,-1.51105 0.23494,-3.69031 2.41424,-5.99096z" id="ID0.4074811181053519" stroke-width="1.07474" stroke-linecap="butt"/></g><path d="M151.05215,156.90163c0,0 -4.30452,-8.99479 4.8364,-25.84603c9.14092,-16.85124 16.94722,-17.13367 16.94722,-17.13367c0,0 6.21682,9.41987 -2.9241,26.27111c-9.14092,16.85125 -18.85951,16.70862 -18.85951,16.70862z" data-paper-data="{&quot;origPos&quot;:null,&quot;index&quot;:null}" fill="#ffffff" stroke-width="0" stroke-linecap="butt"/></g></g></g></svg>