<svg version="1.1" xmlns="http://www.w3.org/2000/svg" xmlns:xlink="http://www.w3.org/1999/xlink" width="441.55828" height="69.66968" viewBox="0,0,441.55828,69.66968"><defs><linearGradient x1="24.5327" y1="284.2076" x2="24.5327" y2="341.819" gradientUnits="userSpaceOnUse" id="color-1"><stop offset="0" stop-color="#ffffff"/><stop offset="1" stop-color="#ffffff"/></linearGradient><radialGradient cx="433.55778" cy="324.91029" r="18.72682" gradientUnits="userSpaceOnUse" id="color-2"><stop offset="0" stop-color="#ffff00"/><stop offset="1" stop-color="#ff9400"/></radialGradient><radialGradient cx="437.13623" cy="326.02495" r="12.81669" gradientUnits="userSpaceOnUse" id="color-3"><stop offset="0" stop-color="#bda501"/><stop offset="1" stop-color="#c07801"/></radialGradient></defs><g transform="translate(-18.50356,-278.17846)"><g data-paper-data="{&quot;isPaintingLayer&quot;:true}" fill="none" fill-rule="nonzero" stroke="none" stroke-width="none" stroke-linecap="butt" stroke-linejoin="miter" stroke-miterlimit="10" stroke-dasharray="" stroke-dashoffset="0" font-family="none" font-weight="none" font-size="none" text-anchor="none" style="mix-blend-mode: normal"><path d="M24.5327,284.2076h429.5v57.6114h-429.5z" data-paper-data="{&quot;origPos&quot;:null}" id="ID0.3184669064357877" fill="#ffffff" stroke="url(#color-1)" stroke-width="12.05828"/><text transform="translate(25.78827,322.12447) scale(0.7218,0.72179)" font-size="22" xml:space="preserve" data-paper-data="{&quot;origPos&quot;:null}" id="ID0.08681221166625619" fill="#2492d1" fill-rule="nonzero" stroke="none" stroke-width="1" stroke-linecap="butt" stroke-linejoin="miter" stroke-miterlimit="10" stroke-dasharray="" stroke-dashoffset="0" font-family="Sans Serif" font-weight="400" text-anchor="start" style="mix-blend-mode: normal"><tspan x="0" dy="0">Switch to Stefano.</tspan></text><g data-paper-data="{&quot;origPos&quot;:null}" id="text56" fill="#2392d1" stroke="none" stroke-width="0.26458"><path d="M35.30597,285.15922c2.91787,1.47514 4.41732,2.21271 4.49836,2.21271c0,0.12965 -0.60789,1.30085 -1.82367,3.5136h-0.08511c-0.09727,0 -1.4954,-0.66057 -4.19442,-1.98172l-1.37382,1.83581c2.32619,1.11852 5.15084,2.54502 8.47397,4.27955c-1.50757,2.68281 -2.57745,4.46593 -3.20966,5.3494l-6.86913,0.60789c-3.1367,-2.11547 -4.79422,-3.20965 -4.97253,-3.2826v-0.08509c0,-0.22695 0.63626,-1.26848 1.90876,-3.12456h0.15804c0.50253,0.29991 2.07897,1.1631 4.72938,2.58961l1.60482,-1.82365c-4.87121,-2.48019 -7.57023,-3.88238 -8.09707,-4.2066v-0.07294c1.5481,-3.01512 2.39102,-4.54297 2.52881,-4.5835c4.02827,-0.81861 6.26936,-1.22792 6.72325,-1.22792z" id="path636"/><path d="M45.72516,285.15922l5.34943,0.9483l-0.51063,4.0607c1.06178,-0.05672 1.83987,-0.08509 2.3343,-0.08509h0.77809l0.17022,-0.08509l0.0851,0.17018c-0.17022,2.46397 -0.3161,3.84995 -0.43767,4.15796l-0.17021,-0.09724c-0.12158,0 -1.21578,-0.05672 -3.28261,-0.17018c-0.11348,1.90472 -0.19859,4.18228 -0.2553,6.83267l-0.17021,0.08509c-2.60986,-0.1702 -4.16606,-0.3161 -4.66859,-0.43767l0.08511,-0.34043c0,-0.70516 0.11348,-2.89355 0.34041,-6.56519c-2.1884,-0.12155 -3.28261,-0.26744 -3.28261,-0.43767c0.11348,-2.70712 0.25937,-4.0607 0.43768,-4.0607l3.19749,0.60789v-1.04557c0,-0.85106 -0.03242,-2.00199 -0.09726,-3.45282c0.06484,0 0.09726,-0.02837 0.09726,-0.08509z" id="path638"/><path d="M57.06838,288.83086c4.81447,0.66463 7.22173,1.07393 7.22173,1.22793c1.89661,1.62913 2.84493,2.50044 2.84493,2.61392c-0.76999,2.40723 -1.20767,3.87022 -1.31305,4.38895c0.76999,1.7102 1.20767,2.73145 1.31305,3.06377c0,0.09724 -1.25631,0.35661 -3.76891,0.77809c-0.03241,-0.13779 -0.26342,-0.44579 -0.693,-0.92399c-3.46902,0.66463 -5.33725,0.99694 -5.60473,0.99694l-1.84798,-4.99684l4.07285,-2.15193c0.65652,0.10534 1.68183,0.15802 3.07593,0.15802c0,-0.17831 0.02431,-0.71731 0.07295,-1.617c-0.23505,0 -2.33428,0.154 -6.29773,0.46199l-0.07295,-0.15802c0.55115,-2.56124 0.88346,-3.84186 0.99694,-3.84186zM59.59719,295.97963c0,0.08915 0.25936,1.03745 0.77809,2.84491h0.07295c1.02125,-0.66461 1.53189,-1.10228 1.53189,-1.31303l0.15806,-1.30089c-0.19452,0 -1.04151,-0.07699 -2.54097,-0.23099z" id="path640"/><path d="M77.03143,288.83086c1.60482,0.89968 2.5896,1.48324 2.95434,1.75072c-1.31304,2.73143 -2.01818,4.12147 -2.11544,4.17011h-0.08511l-1.73857,-1.51972l-2.05466,2.5045l0.23099,4.55917c-0.10536,0.09724 -1.44678,0.3242 -4.02423,0.68084c-0.09727,-0.69704 -0.72946,-4.11337 -1.89661,-10.249c0,-0.09724 1.69398,-0.34851 5.08195,-0.75378c0.05674,0.06484 0.21074,0.82267 0.46199,2.27351c2.02629,-2.27756 3.08808,-3.41633 3.18534,-3.41633z" id="path642"/><path d="M90.75755,288.83086c2.3343,1.49134 3.62302,2.35049 3.86617,2.57745c-0.84294,1.87229 -1.3252,2.80844 -1.44678,2.80844l-4.42543,-2.5653h-0.15806c0,0.08103 -0.19047,0.53493 -0.57141,1.36167c4.07691,2.19651 6.11536,3.32313 6.11536,3.37987c-1.14283,2.64229 -1.78719,4.03638 -1.9331,4.18227l-6.91778,0.40121c-2.69093,-1.78315 -4.13771,-2.72333 -4.34033,-2.8206v-0.07293c0,-0.20262 0.40121,-1.11446 1.20363,-2.73549l5.39805,2.80844l0.40121,-1.60484c-3.33933,-1.49946 -5.32509,-2.43561 -5.9573,-2.80844v-0.17018c0,-0.308 0.64435,-1.67373 1.93309,-4.09718z" id="path644"/><path d="M103.85148,288.83086c4.81447,0.66463 7.22173,1.07393 7.22173,1.22793c1.89661,1.62913 2.84491,2.50044 2.84491,2.61392c-0.76999,2.40723 -1.20766,3.87022 -1.31304,4.38895c0.76999,1.7102 1.20766,2.73145 1.31304,3.06377c0,0.09724 -1.2563,0.35661 -3.7689,0.77809c-0.03241,-0.13779 -0.26342,-0.44579 -0.693,-0.92399c-3.46902,0.66463 -5.33725,0.99694 -5.60473,0.99694l-1.84798,-4.99684l4.07285,-2.15193c0.65652,0.10534 1.68183,0.15802 3.07592,0.15802c0,-0.17831 0.02431,-0.71731 0.07295,-1.617c-0.23505,0 -2.33428,0.154 -6.29773,0.46199l-0.07295,-0.15802c0.55115,-2.56124 0.88346,-3.84186 0.99694,-3.84186zM106.38029,295.97963c0,0.08915 0.25936,1.03745 0.77809,2.84491h0.07295c1.02125,-0.66461 1.53189,-1.10228 1.53189,-1.31303l0.15806,-1.30089c-0.19452,0 -1.0415,-0.07699 -2.54096,-0.23099z" id="path646"/><path d="M125.88136,288.83086l4.04853,2.78413c-0.28367,4.61996 -0.48226,7.31899 -0.59574,8.09707c-0.4701,0.05672 -1.90066,0.14183 -4.29168,0.2553l-0.08511,-0.17018l-0.42552,-6.49226l-0.17021,-0.08509c-1.5481,0.33231 -2.61392,0.58359 -3.1975,0.75378c0.1621,2.76386 0.24315,4.76179 0.24315,5.99378c-2.41535,0.67273 -3.73649,1.0091 -3.96342,1.0091c-1.57241,-6.92182 -2.35861,-10.57726 -2.35861,-10.96632c3.42039,-0.44577 5.27647,-0.66867 5.56826,-0.66867v0.08509c0.05674,0.04052 0.14185,0.88345 0.2553,2.52881c3.1367,-2.08304 4.79422,-3.12455 4.97253,-3.12455z" id="path648"/><path d="M138.48897,285.14705h0.07295c3.66354,0.308 5.49531,0.54711 5.49531,0.71731l1.617,14.3097c0,0.10534 -1.617,0.37282 -4.85096,0.80242l-0.07295,-0.15802v-1.30087c-2.78819,0.75378 -4.70102,1.2401 -5.73847,1.45893c-2.46397,-3.48523 -3.75674,-5.34131 -3.87832,-5.56826c1.81556,-3.2988 2.78413,-4.96847 2.90571,-5.009l5.09411,0.24315c-0.10538,-0.6241 -0.32016,-2.45588 -0.64436,-5.49532zM136.22763,293.86416c0.81863,2.50452 1.32924,3.87834 1.53188,4.12149l2.41939,-2.10329c-0.25127,-1.45083 -0.43767,-2.17624 -0.55925,-2.17624h-3.23397c-0.10538,0.01621 -0.15806,0.06887 -0.15806,0.15802z" id="path650"/><path d="M162.67078,285.15922c2.91787,1.47514 4.41732,2.21271 4.49836,2.21271c0,0.12965 -0.60789,1.30085 -1.82367,3.5136h-0.08511c-0.09727,0 -1.4954,-0.66057 -4.19442,-1.98172l-1.37382,1.83581c2.32619,1.11852 5.15084,2.54502 8.47397,4.27955c-1.50757,2.68281 -2.57745,4.46593 -3.20966,5.3494l-6.86913,0.60789c-3.1367,-2.11547 -4.79422,-3.20965 -4.97253,-3.2826v-0.08509c0,-0.22695 0.63626,-1.26848 1.90876,-3.12456h0.15806c0.50251,0.29991 2.07898,1.1631 4.72936,2.58961l1.60484,-1.82365c-4.87121,-2.48019 -7.57023,-3.88238 -8.09707,-4.2066v-0.07294c1.5481,-3.01512 2.39102,-4.54297 2.52881,-4.5835c4.02828,-0.81861 6.26936,-1.22792 6.72325,-1.22792z" id="path652"/><path d="M173.08998,285.15922l5.34943,0.9483l-0.51063,4.0607c1.06178,-0.05672 1.83987,-0.08509 2.33429,-0.08509h0.7781l0.17022,-0.08509l0.0851,0.17018c-0.17022,2.46397 -0.3161,3.84995 -0.43767,4.15796l-0.17022,-0.09724c-0.12158,0 -1.21578,-0.05672 -3.2826,-0.17018c-0.11348,1.90472 -0.19859,4.18228 -0.2553,6.83267l-0.17021,0.08509c-2.60986,-0.1702 -4.16606,-0.3161 -4.66859,-0.43767l0.08511,-0.34043c0,-0.70516 0.11348,-2.89355 0.34041,-6.56519c-2.1884,-0.12155 -3.28261,-0.26744 -3.28261,-0.43767c0.11348,-2.70712 0.25937,-4.0607 0.43768,-4.0607l3.19749,0.60789v-1.04557c0,-0.85106 -0.03242,-2.00199 -0.09726,-3.45282c0.06484,0 0.09726,-0.02837 0.09726,-0.08509z" id="path654"/><path d="M191.31448,288.83086c1.60482,0.89968 2.58961,1.48324 2.95435,1.75072c-1.31304,2.73143 -2.01818,4.12147 -2.11544,4.17011h-0.08511l-1.73857,-1.51972l-2.05467,2.5045l0.23099,4.55917c-0.10536,0.09724 -1.44677,0.3242 -4.02422,0.68084c-0.09727,-0.69704 -0.72946,-4.11337 -1.89661,-10.249c0,-0.09724 1.69398,-0.34851 5.08195,-0.75378c0.05674,0.06484 0.21074,0.82267 0.46199,2.27351c2.02629,-2.27756 3.08807,-3.41633 3.18534,-3.41633z" id="path656"/><path d="M196.90706,283.95559l4.778,0.75378c-0.59977,2.29376 -0.99288,3.44065 -1.17929,3.44065c-2.51262,-0.1702 -3.76891,-0.33635 -3.76891,-0.49845v-3.52576c0.02431,-0.11346 0.08105,-0.17017 0.17022,-0.17017zM195.5697,289.74269h0.07295c3.69597,0.67273 5.54393,1.06582 5.54393,1.1793c-1.06178,6.01404 -1.70614,9.36554 -1.93309,10.05448h-3.85401c-0.11348,0 -0.17022,-0.05672 -0.17022,-0.17018z" id="path658"/><path d="M208.18946,288.84301c0.25127,1.03747 0.42552,1.67778 0.52278,1.92094c3.58249,-0.81863 5.47504,-1.22794 5.67769,-1.22794c2.43966,3.50954 3.65948,5.34132 3.65948,5.49532l-2.79629,5.93298l-6.0181,-0.96046v0.18233c0.4701,3.60682 0.70516,5.5237 0.70516,5.75063c-0.05674,0 -0.08511,0.02837 -0.08511,0.08509c-0.58358,-0.05672 -1.02125,-0.08509 -1.31304,-0.08509h-1.04557c-0.60789,0 -1.53998,-0.02837 -2.79629,-0.08509c-0.11348,-0.34041 -0.98479,-5.51558 -2.61391,-15.52548c0.27558,-0.11346 2.30997,-0.60787 6.1032,-1.48324zM208.62713,293.81555c0.1621,1.8642 0.30801,2.79629 0.43768,2.79629c1.66156,0.57546 2.67875,0.8632 3.05159,0.8632l0.96046,-4.18227h-0.0851c-0.94831,0.05672 -2.40318,0.23099 -4.36464,0.52278z" id="path660"/><path d="M226.19512,288.84301c3.67164,1.88851 5.70605,2.99082 6.1032,3.30692c-0.52684,2.46397 -0.83888,3.73243 -0.93614,3.80539h-7.68371v0.13371l2.15191,2.66256l3.37987,-1.72641c0.33231,0.57546 0.81052,1.5805 1.43462,3.01512c-0.29179,0.09724 -2.41939,0.40929 -6.38284,0.93615c-3.28259,-2.16408 -4.93605,-3.2907 -4.96038,-3.37987c0.52684,-4.20658 0.83888,-6.30987 0.93615,-6.30987c3.42849,-1.45893 5.41426,-2.27351 5.95732,-2.44372zM225.40486,291.78519c-0.06484,0.16212 -0.4944,0.80647 -1.28872,1.93309c0,0.34041 0.4782,0.51063 1.43462,0.51063c0,0.04862 0.693,0.16614 2.07898,0.35257c0.38094,-0.52682 0.57141,-0.83483 0.57141,-0.92399c-0.12155,-0.72135 -0.38498,-1.08203 -0.79024,-1.08203z" id="path662"/><path d="M243.216,288.83086c2.3343,1.49134 3.62302,2.35049 3.86617,2.57745c-0.84294,1.87229 -1.32519,2.80844 -1.44677,2.80844l-4.42542,-2.5653h-0.15802c0,0.08103 -0.19047,0.53493 -0.57141,1.36167c4.07691,2.19651 6.11536,3.32313 6.11536,3.37987c-1.14283,2.64229 -1.78721,4.03638 -1.93309,4.18227l-6.91778,0.40121c-2.69093,-1.78315 -4.1377,-2.72333 -4.34032,-2.8206v-0.07293c0,-0.20262 0.40121,-1.11446 1.20363,-2.73549l5.39805,2.80844l0.40121,-1.60484c-3.33933,-1.49946 -5.3251,-2.43561 -5.95732,-2.80844v-0.17018c0,-0.308 0.64435,-1.67373 1.93309,-4.09718z" id="path664"/></g><g stroke="none"><text transform="translate(283,338.98128) scale(0.60677,0.60677)" font-size="40" xml:space="preserve" data-paper-data="{&quot;origPos&quot;:null}" fill="#2392d1" fill-rule="nonzero" stroke="none" stroke-width="1" stroke-linecap="butt" stroke-linejoin="miter" stroke-miterlimit="10" stroke-dasharray="" stroke-dashoffset="0" font-family="Sans Serif" font-weight="normal" text-anchor="start" style="mix-blend-mode: normal"><tspan x="0" dy="0">Reward: +10</tspan></text><path d="M438.22633,321.71811c2.42757,0 4.62707,0.98611 6.21986,2.5789c1.5928,1.59272 2.57884,3.79221 2.57884,6.21979c0,2.4275 -0.98603,4.62709 -2.57884,6.21981c-1.5928,1.5928 -3.79229,2.5789 -6.21986,2.5789c-2.4275,0 -4.62699,-0.98611 -6.2198,-2.5789c-1.5928,-1.59272 -2.5789,-3.79231 -2.5789,-6.21981c0,-2.42757 0.98611,-4.62706 2.5789,-6.21979c1.5928,-1.5928 3.7923,-2.5789 6.2198,-2.5789z" data-paper-data="{&quot;origPos&quot;:null}" id="ID0.7142658131197095" fill="url(#color-2)" stroke-width="0.48028"/><path d="M436.38196,323.73549h3.47092v13.31086h-3.47092z" data-paper-data="{&quot;origPos&quot;:null}" id="ID0.06001657713204622" fill="url(#color-3)" stroke-width="0.59798"/></g></g></g></svg>