<svg version="1.1" xmlns="http://www.w3.org/2000/svg" xmlns:xlink="http://www.w3.org/1999/xlink" width="437" height="90.79587" viewBox="0,0,437,90.79587"><defs><linearGradient x1="239.96075" y1="135.56279" x2="239.96075" y2="224.35867" gradientUnits="userSpaceOnUse" id="color-1"><stop offset="0" stop-color="#ffffff"/><stop offset="1" stop-color="#d8d8d8"/></linearGradient><linearGradient x1="239.96075" y1="135.5628" x2="239.96075" y2="224.35867" gradientUnits="userSpaceOnUse" id="color-2"><stop offset="0" stop-color="#343434"/><stop offset="1" stop-color="#090909"/></linearGradient><radialGradient cx="443.76725" cy="206.50539" r="17.9081" gradientUnits="userSpaceOnUse" id="color-3"><stop offset="0" stop-color="#ffffff"/><stop offset="1" stop-color="#e5e5e5"/></radialGradient></defs><g transform="translate(-21.46075,-134.5628)"><g data-paper-data="{&quot;isPaintingLayer&quot;:true}" fill-rule="nonzero" stroke-linejoin="miter" stroke-miterlimit="10" stroke-dasharray="" stroke-dashoffset="0" style="mix-blend-mode: normal"><path d="M22.46075,224.35867v-88.79587h435v88.79587z" data-paper-data="{&quot;origPos&quot;:null}" fill="url(#color-1)" stroke="url(#color-2)" stroke-width="2" stroke-linecap="butt"/><g data-paper-data="{&quot;origPos&quot;:null}"><path d="M444.26655,202.0594c2.5136,0 4.7909,1.0212 6.4406,2.6702c1.6489,1.6496 2.6702,3.9269 2.6702,6.4405c0,2.5136 -1.0213,4.791 -2.6702,6.4406c-1.6497,1.649 -3.927,2.6702 -6.4406,2.6702c-2.5136,0 -4.7909,-1.0212 -6.4406,-2.6702c-1.6489,-1.6496 -2.6701,-3.927 -2.6701,-6.4406c0,-2.5136 1.0212,-4.7909 2.6701,-6.4405c1.6497,-1.649 3.927,-2.6702 6.4406,-2.6702z" fill="url(#color-3)" stroke="#000000" stroke-width="2.0785" stroke-linecap="butt"/><path d="M441.23415,206.50959l5.6119,0.4503l1.7321,3.187l-3.6374,2.9446l3.3603,-0.5197l0.7967,3.4642l-7.4479,-0.0693l-1.9053,-2.4249l4.6766,-3.3256l-4.5727,-0.3464z" fill="#000000" stroke="none" stroke-width="0.69283" stroke-linecap="round"/></g><path d="M36.15223,148.688c2.45739,0.5488 3.82327,0.86283 4.09766,0.94209v0.06403c-0.08537,2.20129 -0.1494,3.4818 -0.19207,3.84156c0.14024,0 0.77137,0.14634 1.89334,0.43904c1.00613,-3.10374 1.55187,-4.65561 1.63724,-4.65561c1.68297,0.75611 2.75312,1.25917 3.21045,1.50919v0.06402c-1.84761,4.29889 -2.89641,6.67091 -3.14642,7.11604c-0.46343,0.38416 -2.07932,1.8537 -4.84768,4.40866h-0.06403l-5.10379,-2.51531c0.46953,-0.80489 1.03661,-1.7287 1.70126,-2.77142c0.03049,0 0.82929,0.5244 2.39641,1.57321h0.06403c0.5244,-0.42684 1.15247,-1.03661 1.88419,-1.82931c0,-0.0366 -1.19516,-1.2104 -3.58546,-3.52143v-4.53671z" data-paper-data="{&quot;origPos&quot;:null}" fill="#000000" stroke="none" stroke-width="0.26458" stroke-linecap="butt"/><path d="M51.4819,151.4594c2.31713,0.62197 3.54582,1.00002 3.68606,1.13419c1.27442,1.80493 1.99091,2.84458 2.14945,3.11899c-0.8232,2.60983 -1.29577,3.91473 -1.41772,3.91473c-2.74397,0.64026 -4.17999,0.96039 -4.30804,0.96039c-2.26835,-1.3232 -3.47571,-2.06103 -3.62204,-2.21347c-0.07926,-2.46347 -0.1189,-3.82327 -0.1189,-4.07937c-0.03658,-0.07317 -0.05488,-0.12804 -0.05488,-0.16464c2.34152,-1.78053 3.55192,-2.6708 3.6312,-2.6708zM51.30812,154.80705c-0.03658,0.2439 -0.09146,1.13113 -0.16463,2.66165l2.03968,0.45733c0.48782,-1.52443 0.73172,-2.33848 0.73172,-2.44214c-1.62199,-0.48782 -2.49092,-0.73172 -2.60677,-0.73172z" data-paper-data="{&quot;origPos&quot;:null}" fill="#000000" stroke="none" stroke-width="0.26458" stroke-linecap="butt"/><path d="M63.08891,151.45026l0.06403,0.11892l-1.23479,6.54895h0.06403l3.14641,-0.92381v-3.70437c0.0122,-0.08537 0.05183,-0.12805 0.1189,-0.12805c2.36592,0.16464 3.68303,0.24695 3.95133,0.24695c0,0.04269 0.02134,0.06403 0.06403,0.06403c0,1.04271 -0.32928,3.20435 -0.98784,6.48492c0,0.18903 -0.94515,0.33233 -2.83543,0.42988c-0.09757,-0.11586 -0.17989,-0.36282 -0.24695,-0.74088c-2.42079,0.49391 -3.80193,0.74088 -4.1434,0.74088c-1.93297,-1.43906 -2.89946,-2.17995 -2.89946,-2.22261c0.32928,-4.32328 0.5366,-6.56724 0.62197,-6.73188h0.05488c1.54272,-0.04269 2.96349,-0.10366 4.26231,-0.18293z" data-paper-data="{&quot;origPos&quot;:null}" fill="#000000" stroke="none" stroke-width="0.26458" stroke-linecap="butt"/><path d="M78.42772,151.4594c2.75008,0.5183 4.18914,0.81404 4.31718,0.88722v0.10975c-0.59148,1.67078 -0.88721,2.53665 -0.88721,2.59762h-0.05488c-0.15244,0 -0.89026,-0.23781 -2.21346,-0.71343c-0.73783,1.23784 -1.10674,1.89944 -1.10674,1.9848l1.82931,1.77444c1.41466,-1.32931 2.1342,-1.99396 2.1586,-1.99396c1.10368,1.44517 1.65552,2.25615 1.65552,2.43299c-0.60368,0.34757 -1.65552,1.03052 -3.15556,2.04883c-2.90252,-0.62806 -4.46963,-0.97868 -4.70134,-1.05185l-1.436,-4.64647z" data-paper-data="{&quot;origPos&quot;:null}" fill="#000000" stroke="none" stroke-width="0.26458" stroke-linecap="butt"/><path d="M86.43098,151.45026c3.62204,0.50001 5.43308,0.80795 5.43308,0.92381c1.42686,1.22565 2.14029,1.88114 2.14029,1.96651c-0.57928,1.81102 -0.90855,2.91166 -0.98783,3.30191c0.57928,1.28662 0.90855,2.05494 0.98783,2.30493c0,0.07317 -0.94515,0.2683 -2.83544,0.58539c-0.02439,-0.10366 -0.19818,-0.33538 -0.52136,-0.69514c-2.60983,0.50001 -4.01534,0.75003 -4.21658,0.75003l-1.39028,-3.75925l3.0641,-1.61894c0.49391,0.07928 1.26528,0.11891 2.31409,0.11891c0,-0.13415 0.01829,-0.53965 0.05488,-1.2165c-0.17683,0 -1.75614,0.11586 -4.73794,0.34756l-0.05488,-0.11891c0.41464,-1.92688 0.66465,-2.89032 0.75002,-2.89032zM88.33347,156.82845c0,0.06707 0.19513,0.7805 0.58537,2.1403h0.05488c0.76832,-0.50001 1.15247,-0.82929 1.15247,-0.98783l0.11892,-0.97868c-0.14634,0 -0.78356,-0.05793 -1.91163,-0.17379z" data-paper-data="{&quot;origPos&quot;:null}" fill="#000000" stroke="none" stroke-width="0.26458" stroke-linecap="butt"/><path d="M103.00458,151.45026l3.04581,2.09457c-0.21341,3.47571 -0.36281,5.50625 -0.44818,6.09162c-0.35367,0.04269 -1.42992,0.10672 -3.22874,0.19207l-0.06403,-0.12806l-0.32013,-4.88428l-0.12806,-0.06403c-1.16467,0.25001 -1.96651,0.43904 -2.40555,0.56708c0.12195,2.07932 0.18292,3.58241 0.18292,4.50927c-1.81713,0.50611 -2.81105,0.75917 -2.98178,0.75917c-1.18296,-5.20745 -1.77444,-7.95752 -1.77444,-8.25022c2.57325,-0.33538 3.96962,-0.50306 4.18914,-0.50306v0.06403c0.04269,0.03049 0.10672,0.66465 0.19207,1.90248c2.35981,-1.56712 3.6068,-2.35067 3.74095,-2.35067z" data-paper-data="{&quot;origPos&quot;:null}" fill="#000000" stroke="none" stroke-width="0.26458" stroke-linecap="butt"/><path d="M119.72453,151.45026l3.04581,2.09457c-0.21341,3.47571 -0.36281,5.50625 -0.44818,6.09162c-0.35367,0.04269 -1.42992,0.10672 -3.22874,0.19207l-0.06403,-0.12806l-0.32013,-4.88428l-0.12806,-0.06403c-1.16467,0.25001 -1.96651,0.43904 -2.40555,0.56708c0.12195,2.07932 0.18292,3.58241 0.18292,4.50927c-1.81713,0.50611 -2.81105,0.75917 -2.98178,0.75917c-1.18296,-5.20745 -1.77444,-7.95752 -1.77444,-8.25022c2.57325,-0.33538 3.96962,-0.50306 4.18914,-0.50306v0.06403c0.04269,0.03049 0.10671,0.66465 0.19207,1.90248c2.35981,-1.56712 3.6068,-2.35067 3.74095,-2.35067z" data-paper-data="{&quot;origPos&quot;:null}" fill="#000000" stroke="none" stroke-width="0.26458" stroke-linecap="butt"/><path d="M127.36192,151.4594c2.31713,0.62197 3.54583,1.00002 3.68607,1.13419c1.27442,1.80493 1.9909,2.84458 2.14945,3.11899c-0.8232,2.60983 -1.29576,3.91473 -1.41771,3.91473c-2.74397,0.64026 -4.17999,0.96039 -4.30804,0.96039c-2.26835,-1.3232 -3.4757,-2.06103 -3.62204,-2.21347c-0.07928,-2.46347 -0.11892,-3.82327 -0.11892,-4.07937c-0.0366,-0.07317 -0.05488,-0.12804 -0.05488,-0.16464c2.34153,-1.78053 3.55192,-2.6708 3.6312,-2.6708zM127.18814,154.80705c-0.0366,0.2439 -0.09146,1.13113 -0.16464,2.66165l2.03968,0.45733c0.48782,-1.52443 0.73173,-2.33848 0.73173,-2.44214c-1.62199,-0.48782 -2.49093,-0.73172 -2.60677,-0.73172z" data-paper-data="{&quot;origPos&quot;:null}" fill="#000000" stroke="none" stroke-width="0.26458" stroke-linecap="butt"/><path d="M138.04513,151.45026c0.07928,0.10366 0.49087,1.87199 1.23479,5.30501h0.06403c0,-0.07928 0.45122,-0.77745 1.35369,-2.09456c0.37807,0.2561 1.09759,0.811 2.1586,1.66467h0.12805v-0.06403c0.16464,-2.37811 0.28659,-3.69521 0.36587,-3.95132c2.51227,0.12805 3.76838,0.23172 3.76838,0.31098c-1.15248,4.63427 -1.76834,7.04286 -1.84761,7.2258c-0.38416,0.04269 -1.18905,0.16464 -2.41469,0.36587c-1.00612,-1.57932 -1.58236,-2.42079 -1.72871,-2.52445c-0.65855,1.75614 -1.07015,2.72263 -1.23479,2.89947h-2.46958c-0.15244,-0.04878 -0.87198,-1.63419 -2.1586,-4.75623c-0.8232,-1.74395 -1.23479,-2.68909 -1.23479,-2.83544c0,-0.13415 1.33845,-0.64941 4.01534,-1.54577z" data-paper-data="{&quot;origPos&quot;:null}" fill="#000000" stroke="none" stroke-width="0.26458" stroke-linecap="butt"/><path d="M156.31999,151.45026c1.49394,3.42692 2.28969,5.20441 2.38725,5.33245c0.73782,-2.79886 1.16771,-4.28974 1.28967,-4.47267c2.32933,0.21341 3.494,0.39635 3.494,0.5488v0.06402c-1.63419,4.48792 -2.51227,6.83859 -2.63422,7.05201c-1.80493,0.32927 -3.01227,0.53355 -3.62204,0.61283l-4.47268,-6.62213v-0.12806c0.04269,-0.07928 1.2287,-0.87503 3.55803,-2.38726z" data-paper-data="{&quot;origPos&quot;:null}" fill="#000000" stroke="none" stroke-width="0.26458" stroke-linecap="butt"/><path d="M165.73182,147.78248l3.59461,0.56708c-0.45122,1.72565 -0.74697,2.58848 -0.88721,2.58848c-1.8903,-0.12805 -2.83543,-0.25306 -2.83543,-0.37501v-2.65251c0.01829,-0.08537 0.06098,-0.12806 0.12806,-0.12806zM164.72571,152.13625h0.05488c2.78056,0.50611 4.17084,0.80186 4.17084,0.88721c-0.7988,4.52451 -1.28357,7.04592 -1.45431,7.56423h-2.89946c-0.08537,0 -0.12805,-0.04269 -0.12805,-0.12806z" data-paper-data="{&quot;origPos&quot;:null}" fill="#000000" stroke="none" stroke-width="0.26458" stroke-linecap="butt"/><path d="M177.00956,151.45026c1.75614,1.12198 2.72568,1.76833 2.9086,1.93908c-0.63416,1.40858 -0.99697,2.11286 -1.08844,2.11286l-3.32936,-1.92993h-0.1189c0,0.06098 -0.14329,0.40245 -0.42988,1.02442c3.06716,1.65248 4.60073,2.50007 4.60073,2.54275c-0.85978,1.98785 -1.34455,3.03666 -1.45432,3.14642l-5.2044,0.30184c-2.02445,-1.34149 -3.1129,-2.04883 -3.26534,-2.12201v-0.05489c0,-0.15244 0.30184,-0.83844 0.90552,-2.05797l4.06108,2.11286l0.30184,-1.20734c-2.51227,-1.12807 -4.00621,-1.83236 -4.48183,-2.11286v-0.12806c0,-0.23172 0.48477,-1.25917 1.45432,-3.08239z" data-paper-data="{&quot;origPos&quot;:null}" fill="#000000" stroke="none" stroke-width="0.26458" stroke-linecap="butt"/><path d="M182.08591,147.78248l3.59461,0.56708c-0.45122,1.72565 -0.74697,2.58848 -0.88721,2.58848c-1.8903,-0.12805 -2.83543,-0.25306 -2.83543,-0.37501v-2.65251c0.01829,-0.08537 0.06098,-0.12806 0.12806,-0.12806zM181.07978,152.13625h0.05489c2.78056,0.50611 4.17083,0.80186 4.17083,0.88721c-0.7988,4.52451 -1.28356,7.04592 -1.45431,7.56423h-2.89947c-0.08537,0 -0.12805,-0.04269 -0.12805,-0.12806z" data-paper-data="{&quot;origPos&quot;:null}" fill="#000000" stroke="none" stroke-width="0.26458" stroke-linecap="butt"/><path d="M188.71719,148.688l4.0245,0.71343l-0.38415,3.05496c0.7988,-0.04269 1.38417,-0.06403 1.75614,-0.06403h0.58539l0.12806,-0.06402l0.06403,0.12805c-0.12805,1.8537 -0.23781,2.89641 -0.32927,3.12813l-0.12805,-0.07317c-0.09146,0 -0.91466,-0.04268 -2.46958,-0.12805c-0.08537,1.43297 -0.1494,3.14642 -0.19207,5.14038l-0.12806,0.06403c-1.96346,-0.12804 -3.13422,-0.23781 -3.51229,-0.32927l0.06403,-0.2561c0,-0.53051 0.08537,-2.17689 0.2561,-4.93915c-1.64639,-0.09146 -2.46958,-0.20123 -2.46958,-0.32927c0.08537,-2.03663 0.19512,-3.05496 0.32927,-3.05496l2.40556,0.45733v-0.78661c0,-0.64026 -0.0244,-1.50614 -0.07318,-2.59762c0.04878,0 0.07318,-0.02134 0.07318,-0.06403z" data-paper-data="{&quot;origPos&quot;:null}" fill="#000000" stroke="none" stroke-width="0.26458" stroke-linecap="butt"/><path d="M213.35807,148.688l0.05487,0.11891c-0.15855,2.32933 -0.27745,3.494 -0.35673,3.494h-0.05486c-2.51836,-0.20123 -3.92083,-0.32013 -4.20743,-0.35673v8.11302c0,0.14634 -0.57319,0.2439 -1.71955,0.29269c0,0.04269 -0.64941,0.12196 -1.94823,0.23782l-0.06402,-0.1189c0.2805,-4.8416 0.46037,-7.70142 0.53965,-8.5795c-0.96344,0.15244 -2.38421,0.34757 -4.26231,0.58537c-0.55489,-2.07323 -0.83235,-3.13727 -0.83235,-3.19215c0,-0.07928 4.28366,-0.27746 12.85095,-0.59454z" data-paper-data="{&quot;origPos&quot;:null}" fill="#2b70c2" stroke="none" stroke-width="0.26458" stroke-linecap="butt"/><path d="M215.59898,147.78248l3.59461,0.56708c-0.45124,1.72565 -0.74697,2.58848 -0.88721,2.58848c-1.8903,-0.12805 -2.83545,-0.25306 -2.83545,-0.37501v-2.65251c0.01829,-0.08537 0.06096,-0.12806 0.12803,-0.12806zM214.59286,152.13625h0.05487c2.78055,0.50611 4.17084,0.80186 4.17084,0.88721c-0.7988,4.52451 -1.28357,7.04592 -1.4543,7.56423h-2.89948c-0.08535,0 -0.12803,-0.04269 -0.12803,-0.12806z" data-paper-data="{&quot;origPos&quot;:null}" fill="#2b70c2" stroke="none" stroke-width="0.26458" stroke-linecap="butt"/><path d="M223.52906,148.688c0.08535,0.2439 0.27742,1.97262 0.57624,5.1861l2.74398,-3.07324h0.06401c0.42684,0.35367 1.21649,1.10064 2.36896,2.24092v0.06403l-2.62508,2.16774c1.97565,1.3232 3.02143,2.07017 3.13729,2.24092c-1.24393,1.38417 -1.9909,2.17384 -2.24092,2.36896l-3.19216,-2.9452c0.12805,1.31711 0.19209,2.29883 0.19209,2.9452c-0.15244,0.08537 -1.28357,0.32013 -3.39339,0.70429c-0.17073,-0.85369 -0.72563,-4.52147 -1.66468,-11.00334c0.39025,-0.12805 1.73479,-0.42684 4.03364,-0.89635z" data-paper-data="{&quot;origPos&quot;:null}" fill="#2b70c2" stroke="none" stroke-width="0.26458" stroke-linecap="butt"/><path d="M231.84331,147.78248l3.59461,0.56708c-0.45122,1.72565 -0.74696,2.58848 -0.88721,2.58848c-1.89029,-0.12805 -2.83543,-0.25306 -2.83543,-0.37501v-2.65251c0.01829,-0.08537 0.06096,-0.12806 0.12802,-0.12806zM230.83718,152.13625h0.05487c2.78055,0.50611 4.17083,0.80186 4.17083,0.88721c-0.7988,4.52451 -1.28357,7.04592 -1.4543,7.56423h-2.89946c-0.08535,0 -0.12803,-0.04269 -0.12803,-0.12806z" data-paper-data="{&quot;origPos&quot;:null}" fill="#2b70c2" stroke="none" stroke-width="0.26458" stroke-linecap="butt"/><path d="M253.23717,148.688l0.05487,0.11891c-0.15855,2.32933 -0.27745,3.494 -0.35671,3.494h-0.05487c-2.51836,-0.20123 -3.92082,-0.32013 -4.20743,-0.35673v8.11302c0,0.14634 -0.57319,0.2439 -1.71956,0.29269c0,0.04269 -0.6494,0.12196 -1.94822,0.23782l-0.06402,-0.1189c0.2805,-4.8416 0.46039,-7.70142 0.53965,-8.5795c-0.96344,0.15244 -2.3842,0.34757 -4.2623,0.58537c-0.5549,-2.07323 -0.83234,-3.13727 -0.83234,-3.19215c0,-0.07928 4.28365,-0.27746 12.85095,-0.59454z" data-paper-data="{&quot;origPos&quot;:null}" fill="#2b70c2" stroke="none" stroke-width="0.26458" stroke-linecap="butt"/><path d="M260.78307,151.45026c1.20734,0.67685 1.94822,1.11588 2.22263,1.31711c-0.98783,2.05494 -1.51834,3.1007 -1.59151,3.13727h-0.06402l-1.30795,-1.14333l-1.54577,1.8842l0.17379,3.42997c-0.07925,0.07317 -1.08844,0.2439 -3.02752,0.5122c-0.07316,-0.5244 -0.54878,-3.09459 -1.42686,-7.71057c0,-0.07317 1.27443,-0.26219 3.82327,-0.56708c0.04267,0.04878 0.15853,0.61891 0.34757,1.71041c1.52443,-1.71347 2.32323,-2.57019 2.3964,-2.57019z" data-paper-data="{&quot;origPos&quot;:null}" fill="#2b70c2" stroke="none" stroke-width="0.26458" stroke-linecap="butt"/><path d="M267.41434,151.4594c2.31715,0.62197 3.54583,1.00002 3.68607,1.13419c1.27443,1.80493 1.99091,2.84458 2.14945,3.11899c-0.8232,2.60983 -1.29577,3.91473 -1.41772,3.91473c-2.74397,0.64026 -4.18,0.96039 -4.30805,0.96039c-2.26835,-1.3232 -3.4757,-2.06103 -3.62204,-2.21347c-0.07925,-2.46347 -0.11888,-3.82327 -0.11888,-4.07937c-0.03658,-0.07317 -0.05487,-0.12804 -0.05487,-0.16464c2.34152,-1.78053 3.55192,-2.6708 3.63118,-2.6708zM267.24055,154.80705c-0.03658,0.2439 -0.09146,1.13113 -0.16463,2.66165l2.03968,0.45733c0.48782,-1.52443 0.73172,-2.33848 0.73172,-2.44214c-1.62198,-0.48782 -2.49091,-0.73172 -2.60677,-0.73172z" data-paper-data="{&quot;origPos&quot;:null}" fill="#2b70c2" stroke="none" stroke-width="0.26458" stroke-linecap="butt"/><path d="M278.67377,151.4594c0.18902,0.78052 0.32013,1.26223 0.3933,1.44515c2.69518,-0.61587 4.119,-0.92381 4.27145,-0.92381c1.83541,2.64031 2.75313,4.01839 2.75313,4.13425l-2.10372,4.46353l-4.52756,-0.72258v0.1372c0.35366,2.71348 0.53049,4.1556 0.53049,4.32632c-0.04267,0 -0.06401,0.02134 -0.06401,0.06403c-0.43904,-0.04269 -0.76831,-0.06403 -0.98783,-0.06403h-0.78661c-0.45733,0 -1.15857,-0.02134 -2.10372,-0.06403c-0.08535,-0.2561 -0.74085,-4.14949 -1.96651,-11.68018c0.20733,-0.08537 1.73785,-0.45734 4.59159,-1.11588zM279.00307,155.20036c0.12195,1.40248 0.23171,2.10371 0.32927,2.10371c1.25003,0.43293 2.01529,0.64941 2.29579,0.64941l0.72259,-3.14642h-0.06401c-0.71343,0.04269 -1.80799,0.17379 -3.28363,0.3933z" data-paper-data="{&quot;origPos&quot;:null}" fill="#2b70c2" stroke="none" stroke-width="0.26458" stroke-linecap="butt"/><path d="M288.29598,147.78248l3.59461,0.56708c-0.45123,1.72565 -0.74695,2.58848 -0.88721,2.58848c-1.89029,-0.12805 -2.83544,-0.25306 -2.83544,-0.37501v-2.65251c0.01829,-0.08537 0.06096,-0.12806 0.12802,-0.12806zM287.28985,152.13625h0.05487c2.78057,0.50611 4.17085,0.80186 4.17085,0.88721c-0.79881,4.52451 -1.28358,7.04592 -1.45431,7.56423h-2.89947c-0.08535,0 -0.12803,-0.04269 -0.12803,-0.12806z" data-paper-data="{&quot;origPos&quot;:null}" fill="#2b70c2" stroke="none" stroke-width="0.26458" stroke-linecap="butt"/><path d="M295.78704,151.4594c2.75008,0.5183 4.18914,0.81404 4.31718,0.88722v0.10975c-0.59148,1.67078 -0.88721,2.53665 -0.88721,2.59762h-0.05487c-0.15244,0 -0.89027,-0.23781 -2.21347,-0.71343c-0.73782,1.23784 -1.10673,1.89944 -1.10673,1.9848l1.82931,1.77444c1.41467,-1.32931 2.1342,-1.99396 2.1586,-1.99396c1.10368,1.44517 1.65553,2.25615 1.65553,2.43299c-0.60368,0.34757 -1.65555,1.03052 -3.15558,2.04883c-2.9025,-0.62806 -4.46961,-0.97868 -4.70133,-1.05185l-1.43601,-4.64647z" data-paper-data="{&quot;origPos&quot;:null}" fill="#2b70c2" stroke="none" stroke-width="0.26458" stroke-linecap="butt"/><path d="M314.2357,148.688c2.19518,1.10978 3.32326,1.66467 3.38423,1.66467c0,0.09757 -0.45734,0.97869 -1.37198,2.64336h-0.06401c-0.07316,0 -1.12502,-0.49696 -3.15558,-1.49089l-1.03356,1.38114c1.75005,0.84149 3.8751,1.91468 6.37517,3.21959c-1.13419,2.01834 -1.93908,3.35984 -2.41469,4.0245l-5.16782,0.45734c-2.35983,-1.5915 -3.60681,-2.4147 -3.74095,-2.46958v-0.06403c0,-0.17075 0.47867,-0.95429 1.43601,-2.35066h0.11888c0.37805,0.22561 1.56406,0.87501 3.55801,1.94822l1.20736,-1.37199c-3.66474,-1.8659 -5.69528,-2.92081 -6.09162,-3.1647v-0.05489c1.16465,-2.26835 1.79883,-3.41777 1.90249,-3.44826c3.03056,-0.61587 4.71659,-0.9238 5.05806,-0.9238z" data-paper-data="{&quot;origPos&quot;:null}" fill="#2b70c2" stroke="none" stroke-width="0.26458" stroke-linecap="butt"/><path d="M322.93406,151.4594c2.75008,0.5183 4.18914,0.81404 4.3172,0.88722v0.10975c-0.59148,1.67078 -0.88723,2.53665 -0.88723,2.59762h-0.05487c-0.15244,0 -0.89026,-0.23781 -2.21348,-0.71343c-0.73782,1.23784 -1.10674,1.89944 -1.10674,1.9848l1.82932,1.77444c1.41467,-1.32931 2.13421,-1.99396 2.15859,-1.99396c1.10368,1.44517 1.65553,2.25615 1.65553,2.43299c-0.60366,0.34757 -1.65553,1.03052 -3.15556,2.04883c-2.90251,-0.62806 -4.46964,-0.97868 -4.70134,-1.05185l-1.43602,-4.64647z" data-paper-data="{&quot;origPos&quot;:null}" fill="#2b70c2" stroke="none" stroke-width="0.26458" stroke-linecap="butt"/><path d="M336.11432,151.45026c1.20734,0.67685 1.94822,1.11588 2.22262,1.31711c-0.98784,2.05494 -1.51834,3.1007 -1.59151,3.13727h-0.06401l-1.30795,-1.14333l-1.54577,1.8842l0.17378,3.42997c-0.07925,0.07317 -1.08843,0.2439 -3.02752,0.5122c-0.07316,-0.5244 -0.54877,-3.09459 -1.42686,-7.71057c0,-0.07317 1.27443,-0.26219 3.82327,-0.56708c0.04267,0.04878 0.15852,0.61891 0.34756,1.71041c1.52443,-1.71347 2.32324,-2.57019 2.39641,-2.57019z" data-paper-data="{&quot;origPos&quot;:null}" fill="#2b70c2" stroke="none" stroke-width="0.26458" stroke-linecap="butt"/><path d="M340.4498,151.45026c3.62204,0.50001 5.43306,0.80795 5.43306,0.92381c1.42687,1.22565 2.14031,1.88114 2.14031,1.96651c-0.57928,1.81102 -0.90855,2.91166 -0.98783,3.30191c0.57928,1.28662 0.90855,2.05494 0.98783,2.30493c0,0.07317 -0.94515,0.2683 -2.83545,0.58539c-0.02438,-0.10366 -0.19817,-0.33538 -0.52134,-0.69514c-2.60983,0.50001 -4.01535,0.75003 -4.21658,0.75003l-1.39028,-3.75925l3.0641,-1.61894c0.49392,0.07928 1.26528,0.11891 2.31409,0.11891c0,-0.13415 0.01828,-0.53965 0.05487,-1.2165c-0.17683,0 -1.75615,0.11586 -4.73793,0.34756l-0.05487,-0.11891c0.41465,-1.92688 0.66465,-2.89032 0.75002,-2.89032zM342.35229,156.82845c0,0.06707 0.19512,0.7805 0.58539,2.1403h0.05487c0.76831,-0.50001 1.15247,-0.82929 1.15247,-0.98783l0.11888,-0.97868c-0.14634,0 -0.78356,-0.05793 -1.91164,-0.17379z" data-paper-data="{&quot;origPos&quot;:null}" fill="#2b70c2" stroke="none" stroke-width="0.26458" stroke-linecap="butt"/><path d="M348.90122,148.69714c1.8659,0.0366 3.23484,0.05489 4.10682,0.05489c0.07925,0 0.32012,3.744 0.72258,11.232c-0.31099,0.07926 -1.39638,0.2805 -3.25617,0.60368c-0.09145,0 -0.39328,-2.29275 -0.90551,-6.87823c-0.04267,-0.10976 -0.26525,-1.78053 -0.66771,-5.01232z" data-paper-data="{&quot;origPos&quot;:null}" fill="#2b70c2" stroke="none" stroke-width="0.26458" stroke-linecap="butt"/><path d="M356.14532,151.45026c3.62205,0.50001 5.43308,0.80795 5.43308,0.92381c1.42686,1.22565 2.14029,1.88114 2.14029,1.96651c-0.57928,1.81102 -0.90856,2.91166 -0.98782,3.30191c0.57928,1.28662 0.90856,2.05494 0.98782,2.30493c0,0.07317 -0.94515,0.2683 -2.83543,0.58539c-0.02438,-0.10366 -0.19818,-0.33538 -0.52136,-0.69514c-2.60983,0.50001 -4.01535,0.75003 -4.21658,0.75003l-1.39028,-3.75925l3.06411,-1.61894c0.49391,0.07928 1.26526,0.11891 2.31408,0.11891c0,-0.13415 0.01828,-0.53965 0.05487,-1.2165c-0.17683,0 -1.75614,0.11586 -4.73793,0.34756l-0.05487,-0.11891c0.41465,-1.92688 0.66466,-2.89032 0.75001,-2.89032zM358.04782,156.82845c0,0.06707 0.19512,0.7805 0.58537,2.1403h0.05487c0.76831,-0.50001 1.15247,-0.82929 1.15247,-0.98783l0.11888,-0.97868c-0.14634,0 -0.78355,-0.05793 -1.91162,-0.17379z" data-paper-data="{&quot;origPos&quot;:null}" fill="#2b70c2" stroke="none" stroke-width="0.26458" stroke-linecap="butt"/><path d="M371.09997,151.45026h0.03658c1.62809,0.95735 2.50616,1.45735 2.63421,1.50003v0.08232c-0.42073,0.48173 -1.19514,1.31711 -2.32322,2.50616c2.21346,0.8232 3.4574,1.32016 3.73179,1.49089l-2.06712,2.5519c-1.39637,-1.19516 -2.28664,-1.94213 -2.6708,-2.24092c-0.94515,1.84151 -1.53357,2.92387 -1.76529,3.24705h-0.03658c-1.75004,-0.61587 -2.70129,-0.98173 -2.85373,-1.09759v-0.04574l2.41469,-3.15556c-2.24396,-0.92686 -3.4452,-1.46954 -3.60375,-1.62809c0.98784,-1.67687 1.54272,-2.57019 1.66467,-2.67995c0.01829,0.04269 1.10368,0.78966 3.25619,2.24092c0.76223,-1.40858 1.28967,-2.33238 1.58235,-2.77141z" data-paper-data="{&quot;origPos&quot;:null}" fill="#2b70c2" stroke="none" stroke-width="0.26458" stroke-linecap="butt"/><path d="M380.21912,151.46856c0.08535,0.0122 0.12803,0.05489 0.12803,0.12806l-0.95124,5.26842c1.81712,-0.21341 2.72568,-0.38416 2.72568,-0.5122c0.34147,-2.1098 0.57623,-3.29277 0.70428,-3.54888c2.25006,0.46343 3.49704,0.73783 3.74095,0.8232c-1.31102,4.50621 -2.03055,6.85383 -2.1586,7.04286c-2.29275,1.6098 -3.5824,2.50007 -3.86901,2.6708c-0.08535,0 -1.54576,-0.35976 -4.38121,-1.0793v-0.06403c0.75002,-1.65249 1.2165,-2.47872 1.39943,-2.47872l2.78971,1.39943l1.3354,-2.28664c-1.20125,0.29879 -1.89944,0.44819 -2.09457,0.44819l-3.55801,-1.84761c0.43293,-3.97571 0.70733,-5.96357 0.82319,-5.96357z" data-paper-data="{&quot;origPos&quot;:null}" fill="#2b70c2" stroke="none" stroke-width="0.26458" stroke-linecap="butt"/><path d="M391.48769,149.02642l0.03658,0.07317c-0.60977,5.38428 -0.95124,8.21363 -1.02442,8.48803c-1.29271,-0.12195 -2.10982,-0.20732 -2.45129,-0.2561v-0.0366l-0.58537,-7.64654c0.14634,-0.04878 1.48784,-0.2561 4.02449,-0.62197zM387.86565,157.77055c0.04267,0.02439 0.99392,0.09757 2.85373,0.21952l0.03658,0.07317c-0.28659,1.68297 -0.46952,2.52446 -0.54879,2.52446h-2.122c-0.07316,0 -0.17073,-0.8415 -0.29269,-2.52446c-0.02438,0 -0.03658,-0.07317 -0.03658,-0.21952c0.07316,-0.02438 0.10974,-0.04878 0.10974,-0.07317z" data-paper-data="{&quot;origPos&quot;:null}" fill="#000000" stroke="none" stroke-width="0.26458" stroke-linecap="butt"/></g></g></svg>