<svg version="1.1" xmlns="http://www.w3.org/2000/svg" xmlns:xlink="http://www.w3.org/1999/xlink" width="35.30526" height="35.30526" viewBox="0,0,35.30526,35.30526"><defs><linearGradient x1="240.08888" y1="163.06125" x2="240.08888" y2="197.11651" gradientUnits="userSpaceOnUse" id="color-1"><stop offset="0" stop-color="#ede43b"/><stop offset="1" stop-color="#c3bc31"/></linearGradient></defs><g transform="translate(-222.43625,-162.43625)"><g data-paper-data="{&quot;isPaintingLayer&quot;:true}" fill-rule="nonzero" stroke-linecap="butt" stroke-linejoin="miter" stroke-miterlimit="10" stroke-dasharray="" stroke-dashoffset="0" style="mix-blend-mode: normal"><path d="M240.08888,163.06125c4.69771,0 8.95515,1.90752 12.0371,4.99053c3.08301,3.08195 4.99053,7.33939 4.99053,12.0371c0,4.69771 -1.90752,8.95515 -4.99053,12.0371c-3.08195,3.08301 -7.33939,4.99053 -12.0371,4.99053c-4.69771,0 -8.95515,-1.90752 -12.0371,-4.99053c-3.08301,-3.08195 -4.99053,-7.33939 -4.99053,-12.0371c0,-4.69771 1.90752,-8.95515 4.99053,-12.0371c3.08195,-3.08301 7.33939,-4.99053 12.0371,-4.99053z" data-paper-data="{&quot;origPos&quot;:null}" id="ID0.4039921844378114" fill="url(#color-1)" stroke="#8b8c23" stroke-width="1.25"/><g data-paper-data="{&quot;origPos&quot;:null}" id="ID0.34360446594655514" fill="none" stroke="#8b8c23" stroke-width="2.5"><path d="M238.215,178.66761h3.675v11.9175h-3.675z" id="ID0.2298461222089827"/><path d="M240.0488,170.14351c0.5868,0 1.1178,0.2381 1.5029,0.6233c0.3852,0.3852 0.6233,0.9161 0.6233,1.503c0,0.5868 -0.2381,1.1178 -0.6233,1.5029c-0.3851,0.3852 -0.9161,0.6233 -1.5029,0.6233c-0.5869,0 -1.1178,-0.2381 -1.503,-0.6233c-0.3852,-0.3851 -0.6233,-0.9161 -0.6233,-1.5029c0,-0.5869 0.2381,-1.1178 0.6233,-1.503c0.3852,-0.3852 0.9161,-0.6233 1.503,-0.6233z" id="ID0.3662859983742237"/></g><g id="ID0.34360446594655514" fill="#ffffff" stroke="none"><path d="M238.215,178.66761h3.675v11.9175h-3.675z" id="ID0.2298461222089827" stroke-width="0.94663"/><path d="M240.0488,170.14351c0.5868,0 1.1178,0.2381 1.5029,0.6233c0.3852,0.3852 0.6233,0.9161 0.6233,1.503c0,0.5868 -0.2381,1.1178 -0.6233,1.5029c-0.3851,0.3852 -0.9161,0.6233 -1.5029,0.6233c-0.5869,0 -1.1178,-0.2381 -1.503,-0.6233c-0.3852,-0.3851 -0.6233,-0.9161 -0.6233,-1.5029c0,-0.5869 0.2381,-1.1178 0.6233,-1.503c0.3852,-0.3852 0.9161,-0.6233 1.503,-0.6233z" id="ID0.3662859983742237" stroke-width="1.215"/></g></g></g></svg>