<svg version="1.1" xmlns="http://www.w3.org/2000/svg" xmlns:xlink="http://www.w3.org/1999/xlink" width="35.30526" height="35.30526" viewBox="0,0,35.30526,35.30526"><defs><linearGradient x1="240.08888" y1="163.06125" x2="240.08888" y2="197.11651" gradientUnits="userSpaceOnUse" id="color-1"><stop offset="0" stop-color="#3c94ed"/><stop offset="1" stop-color="#296ec6"/></linearGradient><linearGradient x1="229.42225" y1="177.11281" x2="229.96364" y2="177.88219" gradientUnits="userSpaceOnUse" id="color-2"><stop offset="0" stop-color="#000000"/><stop offset="1" stop-color="#0f410c"/></linearGradient><linearGradient x1="230.15688" y1="176.59586" x2="230.69827" y2="177.36524" gradientUnits="userSpaceOnUse" id="color-3"><stop offset="0" stop-color="#000000"/><stop offset="1" stop-color="#0f410c"/></linearGradient><linearGradient x1="247.30056" y1="171.78852" x2="247.30056" y2="172.72724" gradientUnits="userSpaceOnUse" id="color-4"><stop offset="0" stop-color="#000000"/><stop offset="1" stop-color="#3f380a"/></linearGradient><linearGradient x1="248.1969" y1="171.78852" x2="248.1969" y2="172.72724" gradientUnits="userSpaceOnUse" id="color-5"><stop offset="0" stop-color="#000000"/><stop offset="1" stop-color="#3f380a"/></linearGradient></defs><g transform="translate(-222.43625,-162.43625)"><g data-paper-data="{&quot;isPaintingLayer&quot;:true}" fill-rule="nonzero" stroke-linejoin="miter" stroke-miterlimit="10" stroke-dasharray="" stroke-dashoffset="0" style="mix-blend-mode: normal"><path d="M240.08888,163.06125c4.69771,0 8.95515,1.90752 12.0371,4.99053c3.08301,3.08195 4.99053,7.33939 4.99053,12.0371c0,4.69771 -1.90752,8.95515 -4.99053,12.0371c-3.08195,3.08301 -7.33939,4.99053 -12.0371,4.99053c-4.69771,0 -8.95515,-1.90752 -12.0371,-4.99053c-3.08301,-3.08195 -4.99053,-7.33939 -4.99053,-12.0371c0,-4.69771 1.90752,-8.95515 4.99053,-12.0371c3.08195,-3.08301 7.33939,-4.99053 12.0371,-4.99053z" data-paper-data="{&quot;origPos&quot;:null}" id="ID0.4039921844378114" fill="url(#color-1)" stroke="#23568d" stroke-width="1.25" stroke-linecap="butt"/><g><g data-paper-data="{&quot;origPos&quot;:null}" id="ID0.22944588866084814"><path d="M234.97221,184.21082l-0.41391,0.27066l-4.66775,-7.13954l0.41391,-0.27057z" id="ID0.4130530641414225" fill="#eae2c4" stroke="none" stroke-width="0.18203" stroke-linecap="butt"/><path d="M247.63919,172.37746l0.49432,0.01132l-0.19487,8.52769l-0.49441,-0.01123z" id="ID0.4130530641414225" fill="#eae2c4" stroke="none" stroke-width="0.18203" stroke-linecap="butt"/><path d="M237.31016,186.40027c-0.5568,0.23417 -1.1865,0.19034 -1.75471,0.06085c-0.61702,-0.13954 -1.20153,-0.41282 -1.70047,-0.79323c-0.31829,-0.26188 -0.81297,-0.67189 -0.6709,-1.06969c0.21615,-0.60262 0.88061,-0.92897 1.43035,-1.13986c0.62408,-0.23924 1.32486,-0.28859 1.96153,-0.16372c0.42985,0.10151 0.79441,0.4485 1.08354,0.81053c0.27826,0.3488 0.63178,0.81216 0.56359,1.25993c-0.06809,0.44769 -0.50039,0.86115 -0.91294,1.03519z" id="ID0.7044514827430248" fill="#3be6ff" stroke="none" stroke-width="0.29823" stroke-linecap="round"/><path d="M240.54846,178.99433c1.65619,-0.58922 3.62233,0.30987 5.01538,1.30965c1.31544,0.95079 2.09953,2.67743 2.47867,4.29468c0.33486,1.20415 0.24558,2.66774 -0.44271,3.74874c-0.82737,1.2967 -2.2991,2.25473 -3.82155,2.6528c-1.36778,0.42713 -2.97136,0.30932 -4.28037,-0.33975c-1.18903,-0.59003 -2.07236,-1.77671 -2.56732,-2.95443c-0.53009,-1.27116 -0.87962,-2.85364 -0.36601,-4.05327c0.80645,-1.865 2.05289,-3.97069 3.98391,-4.65842z" id="ID0.7259586220607162" fill="#3be6ff" stroke="none" stroke-width="0.27801" stroke-linecap="round"/><path d="M238.5853,176.64406c-0.28786,-0.31367 -1.24499,-0.6143 -1.03437,-0.85191c0.35089,-0.30163 1.42954,-0.34564 2.17704,-0.22593c0.48472,0.07842 0.68901,0.83624 1.17717,0.89021c0.33948,0.02228 0.42442,-0.55762 0.72124,-0.70694c0.17603,-0.07353 0.46598,-0.04899 0.55725,0.10459c0.11953,0.20238 -0.01023,0.46652 -0.06284,0.70359c-0.02209,0.30407 -0.2061,0.60181 -0.16037,0.91611c0.03296,0.22475 0.08159,0.21189 0.4178,0.53996c1.34487,1.31227 5.07596,2.7553 4.07989,3.89861c-1.79202,1.90747 -6.61452,2.8435 -9.65606,2.20294c-1.27451,-0.26858 0.51361,-2.7438 1.05447,-4.01949c0.31838,-0.81931 1.30883,-1.31825 1.48785,-2.17849c0.10495,-0.50519 -0.42469,-0.91122 -0.75909,-1.27325z" id="ID0.29891544999554753" fill="#3be6ff" stroke="none" stroke-width="0.28005" stroke-linecap="round"/><path d="M244.97227,186.79381c0.39118,-0.22828 0.95215,-0.07036 1.37901,0.05995c0.44307,0.13547 0.89981,0.34654 1.15254,0.70875c0.35062,0.54584 0.56296,1.21556 0.57047,1.88383c0.00634,0.58886 -0.05234,1.32685 -0.5329,1.74973c-0.31747,0.27863 -0.88098,-0.03024 -1.24164,-0.22964c-0.53742,-0.32381 -1.00675,-0.76661 -1.3638,-1.28873c-0.3297,-0.48056 -0.60235,-1.04985 -0.58985,-1.65374c0.00987,-0.44769 0.23498,-1.00186 0.62616,-1.23014z" id="ID0.7044514827430248" fill="#3be6ff" stroke="none" stroke-width="0.29823" stroke-linecap="round"/><path d="M241.55757,188.81999c0.32952,0.50627 0.39852,1.1338 0.37217,1.71595c-0.02744,0.63196 -0.19233,1.25577 -0.47784,1.81447c-0.20102,0.35976 -0.51651,0.91955 -0.93322,0.85055c-0.63142,-0.1054 -1.07086,-0.70123 -1.37629,-1.20461c-0.34645,-0.57156 -0.51977,-1.25242 -0.51017,-1.90113c0.02345,-0.44099 0.29991,-0.86151 0.6047,-1.2104c0.29375,-0.33595 0.68674,-0.76634 1.1395,-0.77892c0.45276,-0.01268 0.93648,0.33912 1.18115,0.71409z" id="ID0.7044514827430248" fill="#3be6ff" stroke="none" stroke-width="0.29823" stroke-linecap="round"/><path d="M245.27733,183.79157c-0.29429,-0.34428 -0.23869,-0.92444 -0.18654,-1.3676c0.05442,-0.46009 0.18092,-0.94717 0.49233,-1.2603c0.47476,-0.44225 1.09604,-0.77032 1.75226,-0.89664c0.57826,-0.11102 1.3149,-0.18473 1.81655,0.21298c0.33069,0.26278 0.12704,0.87219 -0.00489,1.26265c-0.22303,0.5865 -0.57518,1.12719 -1.0255,1.57134c-0.41418,0.41002 -0.9258,0.77965 -1.52235,0.87482c-0.44225,0.07 -1.02767,-0.05288 -1.32187,-0.39725z" id="ID0.7044514827430248" fill="#3be6ff" stroke="none" stroke-width="0.29823" stroke-linecap="round"/><g id="ID0.18017858965322375" stroke="none" stroke-width="0.20611"><path d="M243.29933,182.20791c0.1926,-0.06565 0.44606,-0.02228 0.60271,0.13547c0.24503,0.24666 0.3949,0.55101 0.50709,0.94373c0.1121,0.39272 0.14769,0.73057 0.06764,1.06914c-0.05388,0.22747 -0.23245,0.42152 -0.42958,0.47123c-0.20582,0.06538 -0.46869,-0.00534 -0.63042,-0.16861c-0.24512,-0.24721 -0.3949,-0.55101 -0.507,-0.94373c-0.1121,-0.39272 -0.15258,-0.73283 -0.06764,-1.06914c0.05723,-0.22701 0.25608,-0.39136 0.45719,-0.43809z" id="ID0.6874992060475051" fill="#000000" stroke-linecap="round"/><path d="M243.37611,182.52475c0.0546,-0.01557 0.11129,-0.00471 0.15865,0.02535c0.04727,0.03015 0.08539,0.07969 0.10296,0.14117c0.01757,0.06148 0.01132,0.12369 -0.01286,0.17431c-0.02445,0.05044 -0.06683,0.08965 -0.12143,0.10522c-0.05451,0.01557 -0.1112,0.00471 -0.15856,-0.02535c-0.04727,-0.03024 -0.08548,-0.07969 -0.10305,-0.14117c-0.01757,-0.06148 -0.01123,-0.12369 0.01295,-0.17431c0.02436,-0.05044 0.06674,-0.08965 0.12134,-0.10522z" id="ID0.9743419005535543" fill="#ffffff" stroke-linecap="butt"/></g><g id="ID0.18017858965322375" stroke="none" stroke-width="0.20611"><path d="M240.01982,183.14422c0.1926,-0.06574 0.44606,-0.02228 0.60271,0.13547c0.24494,0.24657 0.3949,0.55092 0.507,0.94373c0.11219,0.39272 0.14778,0.73057 0.06773,1.06914c-0.05388,0.22747 -0.23245,0.42152 -0.42958,0.47123c-0.20582,0.06538 -0.46869,-0.00534 -0.63042,-0.16861c-0.24512,-0.24721 -0.3949,-0.55101 -0.507,-0.94373c-0.11219,-0.39281 -0.15258,-0.73292 -0.06773,-1.06923c0.05732,-0.22692 0.25617,-0.39127 0.45729,-0.438z" id="ID0.6874992060475051" fill="#000000" stroke-linecap="round"/><path d="M240.09661,183.46097c0.0546,-0.01557 0.11129,-0.00462 0.15865,0.02535c0.04727,0.03024 0.08539,0.07969 0.10296,0.14126c0.01757,0.06148 0.01123,0.1236 -0.01295,0.17422c-0.02436,0.05053 -0.06674,0.08974 -0.12134,0.10531c-0.0546,0.01557 -0.1112,0.00462 -0.15865,-0.02535c-0.04727,-0.03024 -0.08539,-0.07969 -0.10296,-0.14117c-0.01757,-0.06158 -0.01123,-0.12369 0.01295,-0.17431c0.02436,-0.05053 0.06674,-0.08974 0.12134,-0.10531z" id="ID0.9743419005535543" fill="#ffffff" stroke-linecap="butt"/></g><path d="M244.19832,186.32864c0,0 -0.60878,1.23947 -1.19854,1.4366c-0.56649,0.18463 -1.61961,-0.59248 -1.61961,-0.59248" id="ID0.22629520948976278" fill="none" stroke="#000000" stroke-width="0.56009" stroke-linecap="round"/></g><g data-paper-data="{&quot;origPos&quot;:null,&quot;origRot&quot;:0}" stroke="none"><path d="M227.72923,173.97855c0.62064,-0.43673 1.3608,-0.65594 1.98575,-0.55696c0.83213,0.13183 1.53825,0.66071 2.01552,1.27095c0.2244,0.28828 0.11379,0.82473 -0.13431,1.13812c-0.44157,0.55737 -1.138,0.87046 -1.7448,1.27827c-0.56295,0.3783 -1.0954,0.88975 -1.73995,1.05603c-0.38943,0.10044 -0.87713,-0.04821 -1.06538,-0.35002c-0.38398,-0.61552 -0.67247,-1.4009 -0.51156,-2.15533c0.13244,-0.62072 0.57409,-1.24435 1.19473,-1.68108z" data-paper-data="{&quot;origPos&quot;:null}" id="ID0.664129285607487" fill="#2dc323" stroke-width="0.93172" stroke-linecap="round"/><path d="M228.02599,174.29488c0.28444,-0.20016 0.62454,-0.26436 0.94437,-0.20653c0.3198,0.05798 0.61917,0.23797 0.82211,0.52636c0.20294,0.28839 0.27127,0.63095 0.21786,0.95155c-0.05355,0.32057 -0.22883,0.61903 -0.51326,0.81917c-0.28444,0.20016 -0.62454,0.26436 -0.94437,0.20653c-0.3198,-0.05798 -0.61917,-0.23797 -0.82211,-0.52636c-0.20294,-0.28839 -0.27127,-0.63095 -0.21786,-0.95155c0.05355,-0.32057 0.22883,-0.61903 0.51326,-0.81917z" data-paper-data="{&quot;origPos&quot;:null}" id="ID0.5112368017435074" fill="#ffffff" stroke-width="1" stroke-linecap="butt"/><path d="M230.26981,173.57913c0.04223,-0.05143 0.16449,0.01452 0.23097,0.05326c0.25345,0.14626 0.50339,0.31355 0.72413,0.49747c0.17977,0.14971 0.34878,0.31838 0.48635,0.50786c0.07681,0.10604 0.13331,0.23289 0.13778,0.36078c0.00881,0.06953 -0.03502,0.16013 -0.10173,0.17621c-0.17343,0.04096 -0.3321,0.08237 -0.53694,-0.01791c-0.20485,-0.10029 -0.41927,-0.28696 -0.59463,-0.53616c-0.17536,-0.24921 -0.22287,-0.48701 -0.3039,-0.74075c-0.03032,-0.09532 -0.09422,-0.22849 -0.04203,-0.30079z" data-paper-data="{&quot;origPos&quot;:null}" id="ID0.4402989586815238" fill="#ffffff" stroke-width="1" stroke-linecap="round"/><path d="M226.75273,176.24051c0.21136,0.16214 0.41927,0.28696 0.59463,0.53616c0.17536,0.24921 0.27866,0.51406 0.3039,0.74075c0.02523,0.22668 -0.06733,0.36204 -0.16444,0.51146c-0.03767,0.05737 -0.13775,0.06802 -0.20022,0.03626c-0.11888,-0.04739 -0.2192,-0.14342 -0.29307,-0.25151c-0.13189,-0.19348 -0.2336,-0.4095 -0.31382,-0.62927c-0.09858,-0.26988 -0.17533,-0.56115 -0.22376,-0.84958c-0.01231,-0.0723 -0.01935,-0.19302 0.04324,-0.21352c0.08576,-0.0266 0.17992,0.06303 0.25354,0.11926z" data-paper-data="{&quot;origPos&quot;:null}" id="ID0.4402989586815238" fill="#ffffff" stroke-width="1" stroke-linecap="round"/><path d="M229.57561,176.56618c0.43807,-0.30826 0.80973,-0.50726 1.2678,-0.58344c0.23815,-0.03972 0.52015,0.08214 0.65124,0.28076c0.14371,0.1919 0.16805,0.49978 0.04969,0.71533c-0.22337,0.40717 -0.53918,0.68809 -0.97725,0.99635c-0.43807,0.30826 -0.80684,0.52641 -1.2678,0.58344c-0.24932,0.0309 -0.51792,-0.14814 -0.66198,-0.35206c-0.12321,-0.1759 -0.14747,-0.455 -0.03895,-0.64403c0.23122,-0.40289 0.53918,-0.68809 0.97725,-0.99635z" data-paper-data="{&quot;origPos&quot;:null}" id="ID0.7818866483867168" fill="#ffdea8" stroke-width="1" stroke-linecap="butt"/><g data-paper-data="{&quot;origPos&quot;:null}" stroke-width="2.7956"><path d="M229.41702,177.1166c0.05786,-0.04355 0.14023,-0.04734 0.20558,-0.01174c0.10151,0.05517 0.1816,0.13677 0.26134,0.25009c0.07974,0.11333 0.13044,0.22253 0.14716,0.33043c0.01398,0.08654 -0.01122,0.16442 -0.07307,0.20006c-0.04979,0.04291 -0.12735,0.03608 -0.20246,-0.00619c-0.09538,-0.05319 -0.18159,-0.13677 -0.26133,-0.25009c-0.07974,-0.11333 -0.13085,-0.21594 -0.14716,-0.33043c-0.01091,-0.07547 0.01826,-0.1486 0.06994,-0.18213z" data-paper-data="{&quot;origPos&quot;:null}" id="ID0.6670762049034238" fill="url(#color-2)" stroke-linecap="round"/><path d="M230.15166,176.59965c0.05786,-0.04355 0.14023,-0.04734 0.20558,-0.01174c0.10151,0.05517 0.1816,0.13677 0.26134,0.25009c0.07974,0.11333 0.13044,0.22253 0.14716,0.33043c0.01398,0.08654 -0.01122,0.16442 -0.07307,0.20006c-0.04979,0.04291 -0.12735,0.03608 -0.20246,-0.00619c-0.09538,-0.05319 -0.18159,-0.13677 -0.26133,-0.25009c-0.07974,-0.11333 -0.13085,-0.21594 -0.14716,-0.33043c-0.01091,-0.07547 0.01826,-0.1486 0.06994,-0.18213z" data-paper-data="{&quot;origPos&quot;:null}" id="ID0.6670762049034238" fill="url(#color-3)" stroke-linecap="round"/><path d="M230.20118,176.65148c0.03054,-0.0215 0.06688,-0.02849 0.10097,-0.02256c0.03409,0.00593 0.06594,0.02478 0.08743,0.05532c0.0215,0.03054 0.02849,0.06688 0.02256,0.10097c-0.00593,0.03409 -0.02478,0.06594 -0.05533,0.08743c-0.03054,0.02149 -0.06688,0.02849 -0.10096,0.02255c-0.03409,-0.00593 -0.06594,-0.02477 -0.08744,-0.05532c-0.02149,-0.03054 -0.02847,-0.06688 -0.02254,-0.10097c0.00592,-0.03409 0.02478,-0.06594 0.05532,-0.08743z" data-paper-data="{&quot;origPos&quot;:null}" id="ID0.2271407265216112" fill="#ffffff" stroke-linecap="butt"/><path d="M229.47491,177.19634c0.03054,-0.0215 0.06688,-0.02849 0.10097,-0.02256c0.03409,0.00593 0.06594,0.02478 0.08743,0.05532c0.0215,0.03054 0.02849,0.06688 0.02256,0.10097c-0.00593,0.03409 -0.02478,0.06594 -0.05533,0.08743c-0.03054,0.02149 -0.06688,0.02849 -0.10096,0.02255c-0.03409,-0.00593 -0.06594,-0.02477 -0.08744,-0.05532c-0.02149,-0.03054 -0.02847,-0.06688 -0.02254,-0.10097c0.00592,-0.03409 0.02478,-0.06594 0.05532,-0.08743z" data-paper-data="{&quot;origPos&quot;:null}" id="ID0.2271407265216112" fill="#ffffff" stroke-linecap="butt"/></g></g><g data-paper-data="{&quot;origPos&quot;:null}" stroke="none"><path d="M247.71878,168.25867c0.75725,0 1.48712,0.24614 1.94027,0.68578c0.60335,0.58542 0.87587,1.42247 0.91492,2.19451c0.01758,0.3641 -0.38072,0.73835 -0.76314,0.85163c-0.6804,0.20127 -1.42849,0.05687 -2.15784,0.04121c-0.67661,-0.01456 -1.40481,0.09706 -2.02626,-0.13737c-0.37546,-0.14166 -0.68809,-0.54301 -0.66841,-0.8974c0.04011,-0.72277 0.25568,-1.52934 0.82019,-2.05258c0.46451,-0.43048 1.18302,-0.68578 1.94027,-0.68578z" data-paper-data="{&quot;origPos&quot;:null}" id="ID0.664129285607487" fill="#ff0000" stroke-width="0.93172" stroke-linecap="round"/><path d="M247.73961,171.43051c0.53449,0 0.95205,0.05103 1.36961,0.2519c0.21714,0.10434 0.37729,0.36571 0.37021,0.60307c0.00708,0.23912 -0.14985,0.50434 -0.37021,0.61226c-0.41608,0.20399 -0.83511,0.2519 -1.36961,0.2519c-0.53449,0 -0.96069,-0.03374 -1.36961,-0.2519c-0.22119,-0.11795 -0.33758,-0.41829 -0.33804,-0.66743c0.00046,-0.21429 0.14093,-0.45598 0.33804,-0.54792c0.42004,-0.196 0.83511,-0.2519 1.36961,-0.2519z" data-paper-data="{&quot;origPos&quot;:null}" id="ID0.7818866483867168" fill="#ffdea8" stroke-width="1" stroke-linecap="butt"/><g data-paper-data="{&quot;origPos&quot;:null}" stroke-width="2.7956"><path d="M247.29413,171.78861c0.07222,-0.00231 0.14161,0.04189 0.1745,0.10846c0.05115,0.10331 0.06966,0.21588 0.06966,0.35415c0,0.13826 -0.02133,0.25649 -0.06966,0.35415c-0.03829,0.07864 -0.10357,0.12773 -0.1745,0.1213c-0.06527,0.00643 -0.12464,-0.04368 -0.16165,-0.1213c-0.04729,-0.09818 -0.06964,-0.21588 -0.06964,-0.35415c0,-0.13826 0.01721,-0.25135 0.06964,-0.35415c0.03444,-0.06786 0.10023,-0.11077 0.16165,-0.10846z" data-paper-data="{&quot;origPos&quot;:null}" id="ID0.6670762049034238" fill="url(#color-4)" stroke-linecap="round"/><path d="M248.19047,171.78861c0.07222,-0.00231 0.14161,0.04189 0.1745,0.10846c0.05115,0.10331 0.06966,0.21588 0.06966,0.35415c0,0.13826 -0.02133,0.25649 -0.06966,0.35415c-0.03829,0.07864 -0.10357,0.12773 -0.1745,0.1213c-0.06527,0.00643 -0.12464,-0.04368 -0.16165,-0.1213c-0.04729,-0.09818 -0.06964,-0.21588 -0.06964,-0.35415c0,-0.13826 0.01721,-0.25135 0.06964,-0.35415c0.03444,-0.06786 0.10023,-0.11077 0.16165,-0.10846z" data-paper-data="{&quot;origPos&quot;:null}" id="ID0.6670762049034238" fill="url(#color-5)" stroke-linecap="round"/><path d="M248.20112,171.85934c0.03727,0 0.07094,0.01516 0.09535,0.03958c0.02441,0.02441 0.03958,0.05808 0.03958,0.09534c0,0.03727 -0.01516,0.07094 -0.03958,0.09535c-0.02441,0.02441 -0.05808,0.03958 -0.09535,0.03958c-0.03726,0 -0.07094,-0.01516 -0.09534,-0.03958c-0.02441,-0.02441 -0.03959,-0.05808 -0.03959,-0.09535c0,-0.03726 0.01517,-0.07093 0.03959,-0.09534c0.0244,-0.02441 0.05808,-0.03958 0.09534,-0.03958z" data-paper-data="{&quot;origPos&quot;:null}" id="ID0.2271407265216112" fill="#ffffff" stroke-linecap="butt"/><path d="M247.29558,171.88692c0.03727,0 0.07094,0.01516 0.09535,0.03958c0.02441,0.02441 0.03958,0.05808 0.03958,0.09534c0,0.03727 -0.01516,0.07094 -0.03958,0.09535c-0.02441,0.02441 -0.05808,0.03958 -0.09535,0.03958c-0.03726,0 -0.07094,-0.01516 -0.09534,-0.03958c-0.02441,-0.02441 -0.03959,-0.05808 -0.03959,-0.09535c0,-0.03726 0.01517,-0.07093 0.03959,-0.09534c0.0244,-0.02441 0.05808,-0.03958 0.09534,-0.03958z" data-paper-data="{&quot;origPos&quot;:null}" id="ID0.2271407265216112" fill="#ffffff" stroke-linecap="butt"/></g><path d="M247.08458,170.21996l-0.66314,-0.65788l0.87366,-0.04211l0.43157,-0.85261l0.49999,0.90524l0.82629,-0.01052l-0.65261,0.65788l0.26315,0.93156l-0.89471,-0.66841l-0.92629,0.66841z" data-paper-data="{&quot;origPos&quot;:null}" id="ID0.7469178936444223" fill="#ffe428" stroke-width="1" stroke-linecap="round"/><path d="M249.75821,170.43402l-0.46022,-0.58988l0.5844,-0.00944l0.16071,-0.46246l0.23742,0.34449l0.18262,0.33034l0.10593,0.60403l-0.04018,0.33033l-0.29586,-0.31145l-0.64284,0.59932z" data-paper-data="{&quot;origPos&quot;:null}" id="ID0.7469178936444223" fill="#ffe428" stroke-width="0.80175" stroke-linecap="round"/><path d="M245.92104,171.16403l-0.64284,-0.59932l-0.29586,0.31145l-0.04018,-0.33033l0.10593,-0.60403l0.18262,-0.33034l0.23742,-0.34449l0.16071,0.46246l0.5844,0.00944l-0.46022,0.58988z" data-paper-data="{&quot;origPos&quot;:null}" id="ID0.7469178936444223" fill="#ffe428" stroke-width="0.80175" stroke-linecap="round"/></g></g></g></g></svg>