<svg version="1.1" xmlns="http://www.w3.org/2000/svg" xmlns:xlink="http://www.w3.org/1999/xlink" width="441.55828" height="91.66968" viewBox="0,0,441.55828,91.66968"><defs><linearGradient x1="25.25" y1="260.1943" x2="25.25" y2="339.8057" gradientUnits="userSpaceOnUse" id="color-1"><stop offset="0" stop-color="#ffffff"/><stop offset="1" stop-color="#ffffff"/></linearGradient><radialGradient cx="33.74691" cy="275.99366" r="45.2085" gradientUnits="userSpaceOnUse" id="color-2"><stop offset="0" stop-color="#2392d1"/><stop offset="1" stop-color="#2391d0"/></radialGradient></defs><g transform="translate(-19.22086,-254.16516)"><g data-paper-data="{&quot;isPaintingLayer&quot;:true}" fill-rule="nonzero" stroke-linecap="butt" stroke-linejoin="miter" stroke-miterlimit="10" stroke-dasharray="" stroke-dashoffset="0" style="mix-blend-mode: normal"><path d="M25.25,260.1943h429.5v79.6114h-429.5z" fill="#ffffff" stroke="url(#color-1)" stroke-width="12.05828"/><text transform="translate(24.36035,299.41445) scale(0.72232,0.72231)" font-size="22" xml:space="preserve" fill="#2492d1" fill-rule="nonzero" stroke="none" stroke-width="1" stroke-linecap="butt" stroke-linejoin="miter" stroke-miterlimit="10" stroke-dasharray="" stroke-dashoffset="0" font-family="Sans Serif" font-weight="400" text-anchor="start" style="mix-blend-mode: normal"><tspan x="0" dy="0">Stefano has grabbed a Red Star, so he can fly to collect </tspan><tspan x="0" dy="24.86px">coins. Use the up and down arrow keys to move. Collect </tspan><tspan x="0" dy="24.86px">coins to increase your score. If you miss one, it will reset.</tspan></text><path d="M39.89605,265.84645c0,0.1256 -0.57039,1.22144 -1.71174,3.29916h-0.08009c-0.09117,0 -1.40448,-0.61661 -3.93795,-1.86081l-1.28985,1.72341c2.17987,1.05029 4.83975,2.38567 7.95598,4.01803c-1.41557,2.52307 -2.42023,4.18928 -3.01338,5.02269l-6.44992,0.57107c-2.94496,-1.98654 -4.49724,-3.01395 -4.66849,-3.08236v-0.0795c0,-0.21736 0.59372,-1.18758 1.79252,-2.93387h0.1478c0.46812,0.28519 1.95199,1.09582 4.44062,2.4312l1.50663,-1.71232c-4.57733,-2.32847 -7.11148,-3.64108 -7.60237,-3.94904v-0.06899c1.45,-2.83045 2.24897,-4.26879 2.37458,-4.30322c3.77836,-0.76452 5.88994,-1.15256 6.31252,-1.15256c2.73927,1.38101 4.14375,2.07713 4.22314,2.07713zM50.47794,264.65945l-0.4798,3.81223c0.99356,-0.05663 1.72411,-0.07938 2.19165,-0.07938h0.73055l0.16017,-0.08008l0.08008,0.15947c-0.16016,2.31738 -0.29697,3.6189 -0.41149,3.90409l-0.15959,-0.09117c-0.11394,0 -1.14136,-0.0572 -3.08167,-0.16017c-0.10295,1.79252 -0.18293,3.92686 -0.24025,6.41549l-0.15959,0.08008c-2.45408,-0.16017 -3.91518,-0.29698 -4.3833,-0.41092l0.08008,-0.31963c0,-0.66225 0.10227,-2.71709 0.31975,-6.16415c-2.05495,-0.11452 -3.08236,-0.25134 -3.08236,-0.4108c0.10285,-2.54583 0.23955,-3.81292 0.41081,-3.81292l3.00229,0.57097v-0.98188c0,-0.79884 -0.03445,-1.88358 -0.09118,-3.24184c0.05673,0 0.09118,-0.02276 0.09118,-0.0795zM76.76609,264.78507l0.06841,0.13682c-0.37636,2.0776 -0.59327,3.11622 -0.67335,3.11622h-0.06829l-1.83804,-0.94745c0,0.2169 -0.06842,1.16424 -0.20523,2.8539l2.5114,-0.61661c0.0795,0.22846 0.14837,1.24431 0.20512,3.04781c-0.23966,0.09117 -1.08415,0.22857 -2.51128,0.41092c0.31963,1.36992 0.66214,3.04781 1.01632,5.02268c-1.17591,0.26244 -2.56859,0.53653 -4.20095,0.81064l-0.06841,-0.13739c-0.21678,-3.52714 -0.38804,-5.28511 -0.53653,-5.28511c-1.47277,0.35418 -2.27173,0.55929 -2.37458,0.60493c-0.09118,-0.44478 -0.25076,-1.64345 -0.47922,-3.59543l0.1367,-0.06841h2.44299c-0.1367,-1.13037 -0.34252,-2.59148 -0.61661,-4.40607l2.7855,-1.9632c0.39971,0.04564 1.8719,0.38803 4.40607,1.01574zM86.40064,268.36941c1.78015,1.52951 2.67087,2.35123 2.67087,2.45408c-0.71946,2.26006 -1.13038,3.62999 -1.23322,4.12087c0.71946,1.60959 1.13038,2.56802 1.23322,2.8761c0,0.09176 -1.17591,0.33142 -3.53882,0.73055c-0.03386,-0.12504 -0.25134,-0.42201 -0.65047,-0.86737c-3.25362,0.62771 -5.01101,0.93636 -5.26235,0.93636l-1.73521,-4.69195l3.82401,-2.02039c0.61661,0.10285 1.57562,0.14849 2.88835,0.14849c0,-0.17126 0.02277,-0.67335 0.06841,-1.51785c-0.2169,0 -2.19165,0.14791 -5.91281,0.43368l-0.06899,-0.14849c0.51376,-2.40843 0.83339,-3.60711 0.93624,-3.60711c4.52012,0.62771 6.78077,1.00465 6.78077,1.15303zM104.10499,269.83051c-0.263,4.3372 -0.45702,6.87136 -0.55987,7.60191c-0.44478,0.05719 -1.78016,0.13728 -4.02912,0.24013l-0.08008,-0.16016l-0.39913,-6.09563l-0.16016,-0.0795c-1.44943,0.30796 -2.45408,0.54762 -3.00229,0.70778c0.14849,2.59079 0.22857,4.47448 0.22857,5.62751c-2.27173,0.62771 -3.50438,0.94745 -3.72116,0.94745c-1.47277,-6.49557 -2.21441,-9.93142 -2.21441,-10.29669c3.20739,-0.42201 4.95369,-0.6277 5.22779,-0.6277v0.08008c0.05732,0.03444 0.1374,0.83339 0.23967,2.374c2.94496,-1.95141 4.49781,-2.9333 4.66907,-2.9333zM66.57282,270.33261c-0.49089,2.31725 -0.78775,3.50425 -0.87893,3.57267h-7.21434v0.1256l2.0204,2.49973l3.17354,-1.62068c0.30795,0.53653 0.76441,1.48387 1.34705,2.83103c-0.27409,0.09117 -2.27162,0.38804 -5.99278,0.87904c-3.08236,-2.03219 -4.63465,-3.09345 -4.6574,-3.17353c0.49089,-3.94963 0.78775,-5.92448 0.87893,-5.92448c3.21919,-1.36935 5.07941,-2.13433 5.59318,-2.2945c3.44753,1.76964 5.35341,2.80826 5.73035,3.10513zM109.83488,267.22748c2.88835,0.77666 4.42894,1.2442 4.60008,1.41545c1.58683,2.24896 2.48863,3.55048 2.68266,3.893c-1.02741,3.25303 -1.62068,4.8854 -1.76917,4.8854c-3.42476,0.79884 -5.2167,1.19868 -5.37617,1.19868c-2.83103,-1.65512 -4.33777,-2.56872 -4.5207,-2.76273c-0.10285,-3.07058 -0.14849,-4.77134 -0.14849,-5.09097c-0.04553,-0.09117 -0.06829,-0.15958 -0.06829,-0.20523c2.9222,-2.22609 4.42883,-3.33358 4.53167,-3.33358zM58.89036,271.80538c0,0.31905 0.44536,0.47921 1.34717,0.47921c0,0.04564 0.65047,0.15958 1.95199,0.33084c0.35361,-0.49101 0.53653,-0.78729 0.53653,-0.86737c-0.11452,-0.67324 -0.36528,-1.01575 -0.74222,-1.01575l-1.88299,-0.74222c-0.05732,0.14849 -0.46824,0.75331 -1.21046,1.81529zM109.6181,271.40567c-0.04564,0.30796 -0.11405,1.41545 -0.20512,3.32192l2.54514,0.57039c0.60494,-1.90646 0.91348,-2.92221 0.91348,-3.04781c-2.02097,-0.60494 -3.10513,-0.9129 -3.2535,-0.9129zM82.72444,276.59961h0.06899c0.95854,-0.62828 1.43834,-1.0392 1.43834,-1.23322l0.14837,-1.22143c-0.18293,0 -0.98177,-0.06841 -2.38624,-0.2169c0,0.08008 0.24025,0.97022 0.73055,2.67155z" fill="url(#color-2)" stroke="none" stroke-width="0.50576"/><path d="M137.26741,262.01398c0.04957,0.11252 0.07456,0.18768 0.07456,0.23784c-0.04957,2.48691 -0.07456,3.92391 -0.07456,4.31163l-0.16268,0.07456c-3.8242,0.10031 -6.0109,0.14988 -6.5735,0.14988l-0.07516,0.16268c0.05016,0.92457 0.07516,1.68706 0.07516,2.27466v0.38712h0.07516l5.08633,-0.62496l0.08751,0.15033v3.83655c0,0.11252 -0.05016,0.16268 -0.16268,0.16268l-4.77392,-0.55024v0.46273c0,1.04944 0.02515,2.61178 0.08751,4.69876c-0.46228,0.11252 -1.87474,0.2874 -4.23647,0.5498c-0.15033,-0.2874 -0.87501,-5.12369 -2.1873,-14.48444h0.07532z" fill="#2391d0" stroke="none" stroke-width="0.35826"/><path d="M139.4394,262.52576c2.2289,0.04739 3.8674,0.07146 4.9053,0.07146c0.09841,0 0.3822,4.89137 0.86322,14.6857c-0.37148,0.10772 -1.67133,0.37101 -3.88911,0.78942c-0.10954,0 -0.46989,-3.00139 -1.08133,-8.99331c-0.05511,-0.14338 -0.31706,-2.33188 -0.79753,-6.55327z" fill="#2391d0" stroke="none" stroke-width="0.33915"/><path d="M152.33872,268.00675c0.10031,0.01134 0.15593,0.06696 0.15593,0.15579l-1.15849,6.4145c2.21611,-0.2561 3.31897,-0.46752 3.31897,-0.62331c0.41189,-2.57252 0.70134,-4.0094 0.85713,-4.32098c2.73967,0.56769 4.25402,0.90183 4.55481,1.00199c-1.59224,5.4904 -2.47221,8.3413 -2.628,8.57513c-2.79543,1.96 -4.36567,3.04047 -4.71073,3.25187c-0.10017,0 -1.88198,-0.43431 -5.33446,-1.31428v-0.0779c0.91318,-2.01562 1.481,-3.01762 1.7039,-3.01762l3.39688,1.70376l1.62586,-2.78435c-1.45915,0.36777 -2.31629,0.54597 -2.55053,0.54597l-4.33191,-2.24988c0.52355,-4.84411 0.85756,-7.26071 1.00256,-7.26071z" fill="#2391d0" stroke="none" stroke-width="0.33915"/></g></g></svg>