<svg version="1.1" xmlns="http://www.w3.org/2000/svg" xmlns:xlink="http://www.w3.org/1999/xlink" width="35.30526" height="35.30526" viewBox="0,0,35.30526,35.30526"><defs><linearGradient x1="240.08888" y1="163.06125" x2="240.08888" y2="197.11651" gradientUnits="userSpaceOnUse" id="color-1"><stop offset="0" stop-color="#ed3b3b"/><stop offset="1" stop-color="#c53131"/></linearGradient></defs><g transform="translate(-222.43625,-162.43625)"><g data-paper-data="{&quot;isPaintingLayer&quot;:true}" fill-rule="nonzero" stroke-linejoin="miter" stroke-miterlimit="10" stroke-dasharray="" stroke-dashoffset="0" style="mix-blend-mode: normal"><path d="M240.08888,163.06125c4.69771,0 8.95515,1.90752 12.0371,4.99053c3.08301,3.08195 4.99053,7.33939 4.99053,12.0371c0,4.69771 -1.90752,8.95515 -4.99053,12.0371c-3.08195,3.08301 -7.33939,4.99053 -12.0371,4.99053c-4.69771,0 -8.95515,-1.90752 -12.0371,-4.99053c-3.08301,-3.08195 -4.99053,-7.33939 -4.99053,-12.0371c0,-4.69771 1.90752,-8.95515 4.99053,-12.0371c3.08195,-3.08301 7.33939,-4.99053 12.0371,-4.99053z" data-paper-data="{&quot;origPos&quot;:null}" id="ID0.4039921844378114" fill="url(#color-1)" stroke="#8c2323" stroke-width="1.25" stroke-linecap="butt"/><g data-paper-data="{&quot;origPos&quot;:null}" id="ID0.23944968869909644" fill="#ffffff" stroke="#8c2323" stroke-width="2.5" stroke-linecap="round"><path d="M244.8538,172.69151l4.4839,-0.0013l-10.9864,11.355l-4.773,-0.0106z" id="ID0.971273441798985"/><path d="M246.5673,184.06301l-4.6467,-0.0178l-10.9864,-11.355l4.4839,0.0013z" id="ID0.971273441798985"/><path d="M249.4939,188.01561l-4.321,0.0153l-2.2573,-2.491l4.4839,0.0012z" id="ID0.971273441798985"/><path d="M232.5252,185.54111l4.4838,-0.0012l-2.2573,2.491l-4.321,-0.0153z" id="ID0.971273441798985"/></g><g id="ID0.23944968869909644" fill="#ffffff" stroke="none" stroke-width="1.15762" stroke-linecap="round"><path d="M244.8538,172.69151l4.4839,-0.0013l-10.9864,11.355l-4.773,-0.0106z" id="ID0.971273441798985"/><path d="M246.5673,184.06301l-4.6467,-0.0178l-10.9864,-11.355l4.4839,0.0013z" id="ID0.971273441798985"/><path d="M249.4939,188.01561l-4.321,0.0153l-2.2573,-2.491l4.4839,0.0012z" id="ID0.971273441798985"/><path d="M232.5252,185.54111l4.4838,-0.0012l-2.2573,2.491l-4.321,-0.0153z" id="ID0.971273441798985"/></g></g></g></svg>