<svg xmlns="http://www.w3.org/2000/svg" xmlns:xlink="http://www.w3.org/1999/xlink" version="1.1" width="38.109813691358625" height="33.240516663770734" viewBox="-0.07497835217955773 0.4147550457811051 38.109813691358625 33.240516663770734">
  <defs>
    <radialGradient id="grad_1" cx="0.4299" cy="0.4257" r="0.7465900000000001">
      <stop offset="0" stop-color="#FFFBC6" stop-opacity="1"/>
      <stop offset="1" stop-color="#E6D380" stop-opacity="1"/>
    </radialGradient>
    <radialGradient id="grad_2" cx="0.4482" cy="0.49" r="0.71734">
      <stop offset="0" stop-color="#4F492C" stop-opacity="1"/>
      <stop offset="1" stop-color="#000000" stop-opacity="1"/>
    </radialGradient>
    <radialGradient id="grad_3" cx="0.4057" cy="0.19579999999999997" r="1.04546">
      <stop offset="0" stop-color="#43F665" stop-opacity="1"/>
      <stop offset="1" stop-color="#36C651" stop-opacity="1"/>
    </radialGradient>
    <radialGradient id="grad_4" cx="0.25379999999999997" cy="0.19690000000000002" r="1.04403">
      <stop offset="0" stop-color="#FFFBC6" stop-opacity="1"/>
      <stop offset="1" stop-color="#E6D380" stop-opacity="1"/>
    </radialGradient>
    <radialGradient id="grad_5" cx="0.4482" cy="0.49" r="0.71734">
      <stop offset="0" stop-color="#4F492C" stop-opacity="1"/>
      <stop offset="1" stop-color="#000000" stop-opacity="1"/>
    </radialGradient>
    <radialGradient id="grad_6" cx="0.5215" cy="0.1844" r="1.0602800000000001">
      <stop offset="0" stop-color="#FFFFFF" stop-opacity="1"/>
      <stop offset="1" stop-color="#E5E5E5" stop-opacity="1"/>
    </radialGradient>
  <radialGradient id="grad_1-0.8257243037223816,0,0,1,218.05,-161.6" cx="21.6571" cy="23.5745" r="21.7411" gradientUnits="userSpaceOnUse">
      <stop offset="0" stop-color="#FFFBC6" stop-opacity="1"/>
      <stop offset="1" stop-color="#E6D380" stop-opacity="1"/>
    </radialGradient><radialGradient id="grad_2-0.9992231130599976,-4.274552430063317e-17,2.8778278563932325e-17,0.9077160358428955,235.6,-146.6" cx="13.5907" cy="23.1794" r="6.0876" gradientUnits="userSpaceOnUse">
      <stop offset="0" stop-color="#4F492C" stop-opacity="1"/>
      <stop offset="1" stop-color="#000000" stop-opacity="1"/>
    </radialGradient><radialGradient id="grad_3-0.8559701442718506,0,0,0.9666550755500793,224.65,-155.2" cx="23.1197" cy="4.9047" r="30.906" gradientUnits="userSpaceOnUse">
      <stop offset="0" stop-color="#43F665" stop-opacity="1"/>
      <stop offset="1" stop-color="#36C651" stop-opacity="1"/>
    </radialGradient><radialGradient id="grad_4-1,0,0,1,250.7,-165.15" cx="30.6007" cy="17.8367" r="14.6307" gradientUnits="userSpaceOnUse">
      <stop offset="0" stop-color="#FFFBC6" stop-opacity="1"/>
      <stop offset="1" stop-color="#E6D380" stop-opacity="1"/>
    </radialGradient><radialGradient id="grad_5-1,0,0,1,250.5,-164.9" cx="28.3506" cy="22.25" r="6.2652" gradientUnits="userSpaceOnUse">
      <stop offset="0" stop-color="#4F492C" stop-opacity="1"/>
      <stop offset="1" stop-color="#000000" stop-opacity="1"/>
    </radialGradient><radialGradient id="grad_6-0.7163537740707397,0,0,1,187.45,-160.6" cx="18.1821" cy="16.1788" r="34.4689" gradientUnits="userSpaceOnUse">
      <stop offset="0" stop-color="#FFFFFF" stop-opacity="1"/>
      <stop offset="1" stop-color="#E5E5E5" stop-opacity="1"/>
    </radialGradient></defs>
  <!-- Exported by Scratch - http://scratch.mit.edu/ -->
  <path id="ID0.15607240749523044" fill="url(#grad_1-0.8257243037223816,0,0,1,218.05,-161.6)" stroke="none" stroke-linecap="round" d="M 25.5737 17.1 C 22.3418 17.013 19.0826 16.699 15.8714 16.7 C 11.4596 17.216 6.7571 16.466 2.7424 18.65 C 1.4501 19.355 2.1759 22.393 2.8662 23.95 C 4.052 26.612 5.7191 29.435 8.027 30.7 C 11.7816 32.659 15.9796 33.217 20.1652 33.15 C 24.383 33.083 28.6718 32.467 32.3355 30.146 C 34.2479 28.935 35.1496 25.982 35.8539 23.5 C 36.2883 21.525 37.0777 18.278 35.6062 17.35 C 32.6369 15.484 28.8146 17.189 25.5737 17.1 Z " stroke-width="0.9170116209072303"/>
  <path id="ID0.21181316301226616" fill="url(#grad_2-0.9992231130599976,-4.274552430063317e-17,2.8778278563932325e-17,0.9077160358428955,235.6,-146.6)" stroke="none" d="M 13.2479 18.8312 C 12.0508 19.0791 10.6459 19.3713 9.9255 20.2836 C 9.286 21.0887 9.6447 22.2579 9.7256 23.2791 C 9.8105 24.3266 9.8145 25.2996 10.525 26.3653 C 11.0896 27.1877 12.1937 27.8703 13.2479 27.9084 C 14.2311 27.9438 15.1524 27.4001 15.8089 26.5786 C 16.4644 25.7562 16.8641 24.4854 16.8701 23.3698 C 16.8781 21.9011 16.8491 20.2446 15.9208 19.0582 C 15.3812 18.4055 14.0972 18.6561 13.2479 18.8312 Z " stroke-width="0.9545667162120345"/>
  <path id="ID0.26931737549602985" fill="url(#grad_3-0.8559701442718506,0,0,0.9666550755500793,224.65,-155.2)" stroke="none" stroke-linecap="round" d="M 19.7307 0.9148 C 15.3473 0.908 10.345 1.6698 7.0196 4.9264 C 3.933 8.0303 3.4451 13.46 2.4829 18.0246 C 2.2424 19.1633 3.0642 19.5819 4.0237 19.8129 C 7.8593 20.7361 11.8156 21.751 15.7505 21.0696 C 20.4712 20.2518 24.4523 16.0806 29.1892 15.4146 C 31.9206 15.0328 36.6019 20.4229 37.1069 18.4596 C 37.8936 15.2165 34.9662 8.1589 31.7725 5.0018 C 28.6226 1.8921 23.9464 0.9216 19.7307 0.9148 Z " stroke-width="0.9129914903687499"/>
  <path id="ID0.9385899971239269" fill="none" stroke="#2B9638" stroke-width="1" stroke-linecap="round" d="M 18.3 18.75 L 16 14.75 L 14.9 18.85 L 15.9 14.75 L 15.8 8.15 "/>
  <path id="ID0.7226808085106313" fill="url(#grad_4-1,0,0,1,250.7,-165.15)" stroke="none" d="M 27.75 15 C 26.083 14.918 23.991 14.575 22.805 15.768 C 21.365 17.214 20.9 19.324 20.9 21.6 C 20.9 23.876 21.628 25.939 22.805 27.432 C 23.982 28.926 25.607 29.85 27.4 29.85 C 29.193 29.85 30.818 28.926 31.995 27.432 C 33.172 25.939 33.889 23.741 33.9 21.6 C 33.91 19.563 33.365 17.631 32.1 16.35 C 31.061 15.146 29.23 15.023 27.75 15 Z " stroke-width="1"/>
  <path id="ID0.9385899971239269" fill="none" stroke="#2B9638" stroke-width="1.0000000011730803" stroke-linecap="round" d="M 33.6311 16.599 L 29.2648 11.8348 L 28.2265 14.9246 L 29.1433 11.9072 L 27.3385 5.985 "/>
  <path id="ID0.21181316301226616" fill="url(#grad_5-1,0,0,1,250.5,-164.9)" stroke="none" d="M 27.975 17.35 C 26.975 17.35 26.069 17.91 25.412 18.815 C 24.756 19.721 24.35 20.971 24.35 22.35 C 24.35 23.729 24.756 24.979 25.412 25.885 C 26.069 26.79 26.975 27.35 27.975 27.35 C 28.975 27.35 29.881 26.79 30.538 25.885 C 31.194 24.979 31.6 23.729 31.6 22.35 C 31.6 20.971 31.194 19.721 30.538 18.815 C 29.881 17.91 28.975 17.35 27.975 17.35 Z " stroke-width="1"/>
  <path id="ID0.9385899971239269" fill="none" stroke="#2B9638" stroke-width="0.9999999885719774" stroke-linecap="round" d="M 7.4564 18.8512 L 6.3856 14.3631 L 4.1677 17.9826 L 6.2897 14.3347 L 7.9048 4.6448 "/>
  <path id="ID0.5838042767718434" fill="url(#grad_6-0.7163537740707397,0,0,1,187.45,-160.6)" stroke="none" stroke-linecap="round" d="M 31.4998 18.5 C 33.3659 18.748 35.3874 19.446 37.3739 19.15 C 37.8058 19.092 37.3051 18.09 36.6217 17.75 C 33.8881 16.391 30.9374 15.391 28.1687 14.75 C 26.4151 14.344 24.6013 13.953 22.8319 14.55 C 19.9171 15.534 17.4571 18.515 14.5222 19.4 C 12.3495 20.048 9.9218 19.43 7.6452 19.05 C 5.653 18.718 3.6064 16.575 1.6278 17.4 C 0.6142 17.775 -0.0936 21.106 0.9115 21.75 C 4.6444 24.15 9.0056 25.196 13.0895 24.55 C 17.5638 23.841 21.4938 19.204 25.948 17.7 C 27.6394 17.132 29.6494 18.254 31.4998 18.5 Z " stroke-width="0.869816857052504"/>
  <path id="ID0.8476383532397449" fill="none" stroke="#2B9638" stroke-width="1" stroke-linecap="round" d="M 29.6 3.75 L 26.75 5.75 L 15.6 8.15 L 8.25 4.65 "/>
</svg>