<svg version="1.1" xmlns="http://www.w3.org/2000/svg" xmlns:xlink="http://www.w3.org/1999/xlink" width="16.66304" height="19.27073" viewBox="0,0,16.66304,19.27073"><defs><linearGradient x1="240.53925" y1="170.9524" x2="240.53925" y2="189.1643" gradientUnits="userSpaceOnUse" id="color-1"><stop offset="0" stop-color="#ffffff"/><stop offset="1" stop-color="#bbbbbb"/></linearGradient></defs><g transform="translate(-232.22176,-170.42042)"><g data-paper-data="{&quot;isPaintingLayer&quot;:true}" fill="url(#color-1)" fill-rule="nonzero" stroke="#000000" stroke-width="1" stroke-linecap="butt" stroke-linejoin="miter" stroke-miterlimit="10" stroke-dasharray="" stroke-dashoffset="0" font-family="none" font-weight="none" font-size="none" text-anchor="none" style="mix-blend-mode: normal"><path d="M238.9381,170.9524c4.1718,1.0783 6.296,1.6938 6.3732,1.8633c0,0.0922 1.016,1.9705 3.033,5.6032c-1.2784,4.1569 -1.9555,6.3268 -2.0785,6.512c0,0 -2.3243,3.4484 -2.5096,3.2174l-4.9104,1.016c-3.4641,-1.8932 -5.2958,-2.9557 -5.511,-3.2174c-0.1237,-1.3241 -0.3239,-5.0184 -0.6006,-11.0993c3.2631,-2.1399 5.3416,-3.4483 6.2039,-3.8952zM240.0155,176.0173l-2.6783,2.7098c0.231,2.817 0.3382,4.5408 0.3382,5.1571c0.0615,0 0.6471,0.4004 1.7245,1.1855c1.4314,-0.3082 2.1549,-0.5234 2.1549,-0.6621l1.6474,-5.511c-0.4462,-1.2935 -0.8158,-1.9398 -1.124,-1.9398z" data-paper-data="{&quot;origPos&quot;:null}" id="path4556"/></g></g></svg>