<svg version="1.1" xmlns="http://www.w3.org/2000/svg" xmlns:xlink="http://www.w3.org/1999/xlink" width="46.33931" height="70.70336" viewBox="0,0,46.33931,70.70336"><defs><linearGradient x1="218.80726" y1="150.64008" x2="264.15092" y2="150.64008" gradientUnits="userSpaceOnUse" id="color-1"><stop offset="0" stop-color="#c07840"/><stop offset="1" stop-color="#8a562e"/></linearGradient><linearGradient x1="222.61514" y1="133.6884" x2="260.62974" y2="133.6884" gradientUnits="userSpaceOnUse" id="color-2"><stop offset="0" stop-color="#e5e5e5"/><stop offset="1" stop-color="#ffffff"/></linearGradient></defs><g transform="translate(-218.34894,-115.25743)"><g data-paper-data="{&quot;isPaintingLayer&quot;:true}" fill-rule="nonzero" stroke-width="1.02878" stroke-linecap="round" stroke-linejoin="miter" stroke-miterlimit="10" stroke-dasharray="" stroke-dashoffset="0" style="mix-blend-mode: normal"><path d="M242.132,115.8754c8.1254,-0.0536 13.8299,-0.8709 18.7495,3.1377c3.8918,3.0612 3.26615,8.54738 3.2406,14.5058c-0.02555,5.95843 0.52424,11.97854 -3.3692,15.81643c-2.34814,2.68864 -10.3444,-0.6163 -13.0398,3.0606c-3.8203,5.2143 -2.97796,9.52981 -2.9577,16.1867c0.02026,6.65689 2.80185,10.65767 3.05335,14.90906c0.0633,1.0715 -3.64463,1.9026 -6.2755,1.9547c-2.63086,0.0521 -6.6958,-0.5242 -6.7128,-1.6975c-0.053,-4.2144 3.25215,-8.94134 3.42794,-14.93476c0.17579,-5.99343 1.3106,-11.2013 -2.4948,-16.5468c-2.7612,-3.878 -10.6628,0.0741 -13.8628,-3.4207c-3.451,-3.8656 -3.0091,-9.41277 -3.0091,-15.58493c0,-6.17217 -0.8272,-11.1833 3.0091,-13.9914c5.467,-4.149 12.1158,-3.3413 20.2412,-3.3949z" fill="url(#color-1)" stroke="#8a562e"/><path d="M241.004,119.5018c5.0034,0.0545 8.95489,-0.00821 13.88329,0.89199c1.2201,0.2278 3.84814,1.07859 4.32504,2.28079c1.1424,3.2478 1.51276,6.73341 1.41557,11.11698c-0.09719,4.38357 0.50047,8.07483 -1.69953,11.60143c-1.1718,1.9943 -4.45312,2.1409 -6.72922,2.2633c-6.953,0.3642 -14.54484,0.54687 -21.32864,0.02377c-2.2499,-0.1739 -5.24778,-0.17646 -6.38768,-2.04736c-2.0066,-3.2658 -1.81625,-6.99162 -1.84252,-11.61592c-0.02628,-4.6243 -0.0736,-7.58618 1.4917,-11.01718c0.7809,-1.7237 2.9999,-2.3944 4.7581,-2.7519c3.9906,-0.8328 8.1057,-0.7891 12.1139,-0.7459z" data-paper-data="{&quot;index&quot;:null}" fill="url(#color-2)" stroke="#666666"/><path d="M226.2374,125.9574c0,0 2.5704,-0.6641 3.8579,-0.5144c2.4552,0.2855 4.7345,1.644 7.2015,1.8003c1.0555,0.0669 1.9423,-0.8605 2.9577,-1.1573c1.7746,-0.5185 3.5524,-1.2593 5.4011,-1.286c1.2186,-0.0175 2.2612,1.0211 3.4721,1.1574c2.2556,0.2536 6.8156,0 6.8156,0" fill="none" stroke="#b2b2b2"/><path d="M226.2374,131.1013c0,0 3.0015,-0.3339 4.5009,-0.2572c3.5236,0.1805 7.0168,1.0575 10.545,1.0287c1.7972,-0.0144 3.4762,-1.0915 5.2725,-1.1573c2.9176,-0.107 8.7446,0.643 8.7446,0.643" fill="none" stroke="#b2b2b2"/><path d="M254.4002,136.2451c0,0 -2.2258,-0.8317 -3.3435,-0.6429c-2.537,0.4279 -4.7581,2.3661 -7.3301,2.4433c-4.7462,0.142 -9.3994,-1.6507 -14.1457,-1.8004c-1.1867,-0.0375 -2.1861,1.286 -2.1861,1.286" fill="none" stroke="#b2b2b2"/><path d="M229.1951,142.4178c0,0 1.4084,-0.823 2.1862,-1.0288c0.7047,-0.1867 1.4624,-0.217 2.1861,-0.1286c1.0515,0.1281 2.0298,0.697 3.0864,0.7716c2.6059,0.1842 5.2334,0.0746 7.8444,0c0.6528,-0.0185 0.769,-0.1867 1.1574,-0.2572c1.0252,-0.1862 2.0457,-0.4856 3.0863,-0.5144c0.5792,-0.0113 1.268,0.4738 2.0061,0.4887c0.8755,-0.0134 2.752,-0.4887 2.752,-0.4887" fill="none" stroke="#b2b2b2"/></g></g></svg>