<svg version="1.1" xmlns="http://www.w3.org/2000/svg" xmlns:xlink="http://www.w3.org/1999/xlink" width="156.45832" height="40.32092"><g transform="translate(-161.77084,-159.80345)"><g data-paper-data="{&quot;isPaintingLayer&quot;:true}" fill="#ffffff" fill-rule="nonzero" stroke="none" stroke-width="none" stroke-linecap="butt" stroke-linejoin="miter" stroke-miterlimit="10" stroke-dasharray="" stroke-dashoffset="0" font-family="none" font-weight="none" font-size="none" text-anchor="none" style="mix-blend-mode: normal"><text transform="translate(179.13684,195.43274) scale(0.7218,0.72179)" font-size="22" xml:space="preserve" data-paper-data="{&quot;origPos&quot;:null}" id="ID0.08681221166625619" fill="#ffffff" fill-rule="nonzero" stroke="none" stroke-width="1" stroke-linecap="butt" stroke-linejoin="miter" stroke-miterlimit="10" stroke-dasharray="" stroke-dashoffset="0" font-family="Sans Serif" font-weight="400" text-anchor="start" style="mix-blend-mode: normal"><tspan x="0" dy="0">Switch to Wario.</tspan></text><g data-paper-data="{&quot;origPos&quot;:null}" id="text100" stroke-width="0.26458"><path d="M170.34205,159.80345c0.17831,0.19452 1.91686,1.46703 5.21568,3.81755v0.07295c-0.67273,2.77198 -1.11446,4.35655 -1.3252,4.7537l-2.56528,1.48324c3.03944,2.19651 4.57132,3.33934 4.59563,3.42849c-1.07799,0.51873 -2.73955,1.27252 -4.98468,2.26135c-2.60176,-3.55818 -3.90266,-5.3778 -3.90266,-5.45885h-0.14587c-0.05672,2.08304 -0.08509,3.5136 -0.08509,4.29169c-0.03241,0.36474 -0.10942,0.54709 -0.23099,0.54709h-3.6595c-0.1702,0 -0.42956,-2.26135 -0.77809,-6.78403c-0.1621,-0.98883 -0.39716,-3.27449 -0.70516,-6.85698c0.94021,-0.20262 3.79729,-0.72137 8.57124,-1.5562zM166.98651,163.23194v0.07295c0,0.49441 0.02837,2.26135 0.08509,5.30079h0.07294c1.97768,-0.46199 2.9665,-0.77405 2.9665,-0.93615l0.69298,-3.11239z" id="path418"/><path d="M184.14114,163.47509l0.08509,0.15806l-1.6413,8.70497h0.08509l4.18227,-1.22794v-4.92391c0.01621,-0.11348 0.06887,-0.17021 0.15802,-0.17021c3.14482,0.21884 4.89554,0.32825 5.25217,0.32825c0,0.05674 0.02837,0.08511 0.08509,0.08511c0,1.38598 -0.43767,4.25928 -1.31304,8.61986c0,0.25127 -1.25631,0.44174 -3.76891,0.57143c-0.12965,-0.154 -0.23907,-0.48226 -0.32826,-0.98477c-3.21777,0.65652 -5.05358,0.98477 -5.50747,0.98477c-2.56933,-1.91282 -3.85401,-2.89762 -3.85401,-2.95433c0.43767,-5.74658 0.71325,-8.72928 0.82671,-8.94811h0.07293c2.05061,-0.05674 3.93912,-0.13779 5.66553,-0.24315z" id="path420"/><path d="M193.57556,159.81561c2.48019,0.04864 4.2998,0.07295 5.45883,0.07295c0.10534,0 0.4255,4.97659 0.96048,14.92975c-0.41337,0.10538 -1.85608,0.37284 -4.32817,0.80242c-0.12155,0 -0.52276,-3.04755 -1.20363,-9.14264c-0.05672,-0.14588 -0.35257,-2.36671 -0.88751,-6.66246z" id="path422"/><path d="M208.24998,163.48725c3.67164,1.88851 5.70605,2.99081 6.1032,3.30691c-0.52684,2.46397 -0.83888,3.73244 -0.93615,3.80539h-7.68371v0.13373l2.15193,2.66256l3.37985,-1.72641c0.33231,0.57546 0.81052,1.5805 1.43462,3.01512c-0.29179,0.09727 -2.41939,0.40931 -6.38282,0.93615c-3.2826,-2.16408 -4.93607,-3.2907 -4.96038,-3.37987c0.52682,-4.2066 0.83888,-6.30989 0.93615,-6.30989c3.42849,-1.45893 5.41425,-2.2735 5.9573,-2.44372zM207.45974,166.42944c-0.06484,0.1621 -0.49441,0.80645 -1.28874,1.93309c0,0.34041 0.4782,0.51063 1.43462,0.51063c0,0.04864 0.693,0.16616 2.07898,0.35257c0.38094,-0.52684 0.5714,-0.83483 0.5714,-0.92399c-0.12155,-0.72137 -0.38498,-1.08203 -0.79024,-1.08203z" id="path424"/><path d="M231.13092,159.80345c2.90165,2.10735 4.59159,3.40824 5.06979,3.90265c-0.93211,2.75576 -1.39815,4.17823 -1.39815,4.26738c0.22694,0.22695 0.83888,1.0091 1.83583,2.34646v0.14588c-1.50757,2.6585 -2.38698,4.12959 -2.63825,4.41326l-10.07879,0.74163c-0.154,-0.59977 -0.91588,-5.26027 -2.28566,-13.98145zM227.15531,163.5602l0.4377,4.34032c2.13977,-0.51873 3.21775,-0.81457 3.23396,-0.88753c0.09724,-0.24315 0.32014,-1.02935 0.66867,-2.35861zM228.91818,169.44457h-0.8024c-0.10534,0.01621 -0.15802,0.06484 -0.15802,0.14588c-0.04862,1.05368 -0.07293,1.83583 -0.07293,2.34646c-0.04862,0.25936 -0.07294,0.40931 -0.07294,0.44983l3.8297,-0.59574l-0.07293,-0.36472v-0.43768c0,-0.34853 -0.02431,-0.88753 -0.07294,-1.61699c-1.15902,0.04864 -2.01818,0.07295 -2.57745,0.07295z" id="path426"/><path d="M246.60775,163.47509c1.60482,0.89968 2.5896,1.48324 2.95433,1.75072c-1.31304,2.73145 -2.01818,4.12149 -2.11544,4.17011h-0.08509l-1.73857,-1.51973l-2.05465,2.5045l0.23099,4.55917c-0.10534,0.09727 -1.44675,0.3242 -4.02422,0.68085c-0.09724,-0.69704 -0.72945,-4.11338 -1.89661,-10.24901c0,-0.09727 1.69398,-0.34851 5.08195,-0.75378c0.05672,0.06484 0.21072,0.82267 0.46199,2.27351c2.02629,-2.27756 3.08807,-3.41634 3.18534,-3.41634z" id="path428"/><path d="M257.41602,163.48725c3.67164,1.88851 5.70606,2.99081 6.10321,3.30691c-0.52684,2.46397 -0.83888,3.73244 -0.93615,3.80539h-7.68371v0.13373l2.15193,2.66256l3.37985,-1.72641c0.33231,0.57546 0.81052,1.5805 1.43462,3.01512c-0.29179,0.09727 -2.41939,0.40931 -6.38284,0.93615c-3.28259,-2.16408 -4.93604,-3.2907 -4.96035,-3.37987c0.52682,-4.2066 0.83888,-6.30989 0.93615,-6.30989c3.42849,-1.45893 5.41424,-2.2735 5.9573,-2.44372zM256.62573,166.42944c-0.06484,0.1621 -0.49439,0.80645 -1.28871,1.93309c0,0.34041 0.4782,0.51063 1.43462,0.51063c0,0.04864 0.693,0.16616 2.07897,0.35257c0.38094,-0.52684 0.57141,-0.83483 0.57141,-0.92399c-0.12155,-0.72137 -0.38498,-1.08203 -0.79024,-1.08203z" id="path430"/><path d="M266.47353,163.47509c4.81449,0.66463 7.22172,1.07394 7.22172,1.22794c1.89661,1.62915 2.84491,2.50044 2.84491,2.61391c-0.76999,2.40723 -1.20767,3.87022 -1.31303,4.38895c0.76999,1.7102 1.20767,2.73146 1.31303,3.06377c0,0.09727 -1.2563,0.35663 -3.7689,0.7781c-0.03241,-0.13779 -0.26342,-0.44579 -0.693,-0.92399c-3.46902,0.66463 -5.33725,0.99695 -5.60473,0.99695l-1.84796,-4.99684l4.07285,-2.15193c0.65652,0.10538 1.68181,0.15806 3.0759,0.15806c0,-0.17831 0.02431,-0.71731 0.07294,-1.61699c-0.23505,0 -2.33429,0.154 -6.29773,0.46199l-0.07294,-0.15806c0.55115,-2.56124 0.88347,-3.84185 0.99693,-3.84185zM269.00237,170.62386c0,0.08915 0.25936,1.03745 0.77809,2.84491h0.07294c1.02125,-0.66463 1.53188,-1.1023 1.53188,-1.31304l0.15802,-1.30089c-0.19452,0 -1.04151,-0.07699 -2.54097,-0.23099z" id="path432"/><path d="M283.0689,159.80345c0.11346,0.3242 0.36876,2.62203 0.76595,6.89345l3.64733,-4.085h0.08509c0.56737,0.4701 1.61699,1.46299 3.14888,2.97866v0.0851l-3.48929,2.8814c2.62608,1.75882 4.01611,2.75171 4.17011,2.97866c-1.65346,1.83987 -2.64634,2.88949 -2.97864,3.14885l-4.24306,-3.91481c0.1702,1.75072 0.2553,3.05565 0.2553,3.91481c-0.20262,0.11348 -1.70614,0.42552 -4.51053,0.93615c-0.22694,-1.13473 -0.96452,-6.01 -2.21273,-14.6258c0.51874,-0.17022 2.30593,-0.56737 5.36158,-1.19147z" id="path434"/><path d="M299.33599,163.48725c3.67164,1.88851 5.70605,2.99081 6.1032,3.30691c-0.52684,2.46397 -0.83888,3.73244 -0.93614,3.80539h-7.68371v0.13373l2.15191,2.66256l3.37987,-1.72641c0.33231,0.57546 0.81052,1.5805 1.43462,3.01512c-0.29179,0.09727 -2.41939,0.40931 -6.38284,0.93615c-3.28259,-2.16408 -4.93605,-3.2907 -4.96038,-3.37987c0.52684,-4.2066 0.83888,-6.30989 0.93615,-6.30989c3.42849,-1.45893 5.41426,-2.2735 5.95732,-2.44372zM298.54575,166.42944c-0.06484,0.1621 -0.4944,0.80645 -1.28872,1.93309c0,0.34041 0.4782,0.51063 1.43462,0.51063c0,0.04864 0.693,0.16616 2.07898,0.35257c0.38094,-0.52684 0.57141,-0.83483 0.57141,-0.92399c-0.12155,-0.72137 -0.38498,-1.08203 -0.79024,-1.08203z" id="path436"/><path d="M315.27482,163.47509c1.60483,0.89968 2.58962,1.48324 2.95434,1.75072c-1.31304,2.73145 -2.01818,4.12149 -2.11544,4.17011h-0.08509l-1.73857,-1.51973l-2.05467,2.5045l0.23099,4.55917c-0.10534,0.09727 -1.44675,0.3242 -4.0242,0.68085c-0.09724,-0.69704 -0.72945,-4.11338 -1.89663,-10.24901c0,-0.09727 1.69398,-0.34851 5.08195,-0.75378c0.05672,0.06484 0.21072,0.82267 0.46201,2.27351c2.02629,-2.27756 3.08805,-3.41634 3.18532,-3.41634z" id="path438"/></g></g></g></svg>