<svg version="1.1" xmlns="http://www.w3.org/2000/svg" xmlns:xlink="http://www.w3.org/1999/xlink" width="437" height="90.79587" viewBox="0,0,437,90.79587"><defs><linearGradient x1="240" y1="135.60206" x2="240" y2="224.39795" gradientUnits="userSpaceOnUse" id="color-1"><stop offset="0" stop-color="#ffffff"/><stop offset="1" stop-color="#d8d8d8"/></linearGradient><linearGradient x1="240" y1="135.60208" x2="240" y2="224.39795" gradientUnits="userSpaceOnUse" id="color-2"><stop offset="0" stop-color="#343434"/><stop offset="1" stop-color="#090909"/></linearGradient><radialGradient cx="443.8065" cy="206.54466" r="17.9081" gradientUnits="userSpaceOnUse" id="color-3"><stop offset="0" stop-color="#ffffff"/><stop offset="1" stop-color="#e5e5e5"/></radialGradient></defs><g transform="translate(-21.5,-134.60208)"><g data-paper-data="{&quot;isPaintingLayer&quot;:true}" fill-rule="nonzero" stroke-linejoin="miter" stroke-miterlimit="10" stroke-dasharray="" stroke-dashoffset="0" style="mix-blend-mode: normal"><path d="M22.5,224.39795v-88.79587h435v88.79587z" data-paper-data="{&quot;origPos&quot;:null}" fill="url(#color-1)" stroke="url(#color-2)" stroke-width="2" stroke-linecap="butt"/><g data-paper-data="{&quot;origPos&quot;:null}"><path d="M444.3058,202.09868c2.5136,0 4.7909,1.0212 6.4406,2.6702c1.6489,1.6496 2.6702,3.9269 2.6702,6.4405c0,2.5136 -1.0213,4.791 -2.6702,6.4406c-1.6497,1.649 -3.927,2.6702 -6.4406,2.6702c-2.5136,0 -4.7909,-1.0212 -6.4406,-2.6702c-1.6489,-1.6496 -2.6701,-3.927 -2.6701,-6.4406c0,-2.5136 1.0212,-4.7909 2.6701,-6.4405c1.6497,-1.649 3.927,-2.6702 6.4406,-2.6702z" fill="url(#color-3)" stroke="#000000" stroke-width="2.0785" stroke-linecap="butt"/><path d="M441.2734,206.54886l5.6119,0.4503l1.7321,3.187l-3.6374,2.9446l3.3603,-0.5197l0.7967,3.4642l-7.4479,-0.0693l-1.9053,-2.4249l4.6766,-3.3256l-4.5727,-0.3464z" fill="#000000" stroke="none" stroke-width="0.69283" stroke-linecap="round"/></g><path d="M34.963,147.12506c2.448,0.546 3.809,0.859 4.083,0.938v0.064c-0.085,2.194 -0.149,3.47 -0.192,3.828c0.14,0 0.769,0.146 1.887,0.438c1.003,-3.093 1.547,-4.64 1.632,-4.64c1.677,0.754 2.743,1.255 3.199,1.504v0.064c-1.841,4.284 -2.886,6.648 -3.136,7.091c-0.461,0.383 -2.072,1.847 -4.83,4.393h-0.064l-5.086,-2.506c0.468,-0.802 1.033,-1.723 1.695,-2.762c0.031,0 0.827,0.523 2.388,1.568h0.064c0.523,-0.425 1.149,-1.033 1.878,-1.823c0,-0.036 -1.191,-1.206 -3.573,-3.509v-4.521z" data-paper-data="{&quot;origPos&quot;:null}" fill="#000000" stroke="none" stroke-width="1" stroke-linecap="butt"/><path d="M50.239,149.88606c2.309,0.62 3.533,0.997 3.673,1.13c1.27,1.799 1.984,2.835 2.142,3.109c-0.821,2.6 -1.292,3.901 -1.413,3.901c-2.734,0.638 -4.165,0.957 -4.293,0.957c-2.26,-1.319 -3.464,-2.054 -3.609,-2.206c-0.079,-2.455 -0.119,-3.81 -0.119,-4.065c-0.036,-0.073 -0.055,-0.128 -0.055,-0.164c2.334,-1.775 3.54,-2.662 3.619,-2.662zM50.011,153.22206c-0.037,0.243 -0.091,1.127 -0.164,2.653l2.032,0.455c0.486,-1.519 0.729,-2.33 0.729,-2.433c-1.616,-0.486 -2.482,-0.73 -2.597,-0.73z" data-paper-data="{&quot;origPos&quot;:null}" fill="#000000" stroke="none" stroke-width="1" stroke-linecap="butt"/><path d="M61.805,149.87706l0.064,0.119l-1.231,6.526h0.064l3.136,-0.921v-3.691c0.012,-0.085 0.051,-0.128 0.118,-0.128c2.358,0.164 3.67,0.246 3.938,0.246c0,0.043 0.021,0.064 0.063,0.064c0,1.039 -0.328,3.193 -0.984,6.462c0,0.189 -0.942,0.331 -2.826,0.429c-0.097,-0.116 -0.179,-0.362 -0.246,-0.739c-2.412,0.492 -3.788,0.739 -4.129,0.739c-1.926,-1.434 -2.889,-2.173 -2.889,-2.215c0.328,-4.308 0.535,-6.545 0.62,-6.709h0.055c1.537,-0.042 2.953,-0.103 4.247,-0.182z" data-paper-data="{&quot;origPos&quot;:null}" fill="#000000" stroke="none" stroke-width="1" stroke-linecap="butt"/><path d="M80.308,149.90406c2.582,0.067 3.873,0.18 3.873,0.338c0.444,6.726 0.666,10.305 0.666,10.737c-1.957,1.245 -3.358,2.09 -4.202,2.534c-2.978,-0.936 -4.466,-1.471 -4.466,-1.605c0.96,-1.403 1.516,-2.114 1.668,-2.132c1.622,0.802 2.555,1.203 2.798,1.203l0.866,-1.14c-0.231,-0.941 -0.386,-1.497 -0.465,-1.668c-0.134,0 -1.781,0.268 -4.94,0.802c-1.732,-2.813 -2.598,-4.256 -2.598,-4.329c1.495,-2.388 2.406,-3.789 2.734,-4.202h0.064c0.176,0 1.489,0.289 3.938,0.866v-0.2c0,-0.237 -0.022,-0.617 -0.064,-1.14zM77.318,153.83306c0.085,0.188 0.352,1.191 0.802,3.008c0.565,-0.183 1.431,-0.517 2.598,-1.003c-0.225,-1.094 -0.338,-1.717 -0.338,-1.868l-0.328,-0.064h-0.401c-0.51,0 -1.288,-0.025 -2.333,-0.073z" data-paper-data="{&quot;origPos&quot;:null}" fill="#000000" stroke="none" stroke-width="1" stroke-linecap="butt"/><path d="M89.504,149.88606c2.309,0.62 3.534,0.997 3.673,1.13c1.27,1.799 1.984,2.835 2.142,3.109c-0.82,2.6 -1.291,3.901 -1.412,3.901c-2.735,0.638 -4.166,0.957 -4.293,0.957c-2.261,-1.319 -3.464,-2.054 -3.61,-2.206c-0.079,-2.455 -0.118,-3.81 -0.118,-4.065c-0.037,-0.073 -0.055,-0.128 -0.055,-0.164c2.333,-1.775 3.539,-2.662 3.618,-2.662zM89.276,153.22206c-0.036,0.243 -0.091,1.127 -0.164,2.653l2.033,0.455c0.486,-1.519 0.729,-2.33 0.729,-2.433c-1.616,-0.486 -2.482,-0.73 -2.598,-0.73z" data-paper-data="{&quot;origPos&quot;:null}" fill="#000000" stroke="none" stroke-width="1" stroke-linecap="butt"/><path d="M98.874,147.12506l4.01,0.71l-0.382,3.045c0.796,-0.043 1.379,-0.064 1.75,-0.064h0.583l0.128,-0.064l0.063,0.128c-0.127,1.847 -0.237,2.886 -0.328,3.117l-0.127,-0.073c-0.092,0 -0.912,-0.043 -2.461,-0.128c-0.085,1.428 -0.149,3.136 -0.192,5.123l-0.127,0.064c-1.957,-0.128 -3.124,-0.237 -3.5,-0.329l0.063,-0.255c0,-0.528 0.086,-2.169 0.256,-4.922c-1.641,-0.091 -2.461,-0.2 -2.461,-0.328c0.085,-2.029 0.194,-3.044 0.328,-3.044l2.397,0.456v-0.784c0,-0.638 -0.024,-1.501 -0.073,-2.589c0.049,0 0.073,-0.021 0.073,-0.063z" data-paper-data="{&quot;origPos&quot;:null}" fill="#000000" stroke="none" stroke-width="1" stroke-linecap="butt"/><path d="M112.008,149.87706c3.609,0.498 5.414,0.805 5.414,0.921c1.422,1.221 2.133,1.874 2.133,1.959c-0.577,1.805 -0.905,2.902 -0.984,3.291c0.577,1.282 0.905,2.047 0.984,2.297c0,0.072 -0.942,0.267 -2.826,0.583c-0.024,-0.103 -0.197,-0.334 -0.519,-0.693c-2.601,0.498 -4.001,0.748 -4.202,0.748l-1.385,-3.747l3.053,-1.613c0.492,0.079 1.261,0.119 2.306,0.119c0,-0.134 0.018,-0.538 0.055,-1.213c-0.176,0 -1.75,0.116 -4.722,0.347l-0.054,-0.119c0.413,-1.92 0.662,-2.88 0.747,-2.88zM113.904,155.23607c0,0.067 0.194,0.778 0.583,2.133h0.055c0.766,-0.498 1.148,-0.826 1.148,-0.984l0.119,-0.975c-0.146,0 -0.781,-0.058 -1.905,-0.174z" data-paper-data="{&quot;origPos&quot;:null}" fill="#000000" stroke="none" stroke-width="1" stroke-linecap="butt"/><path d="M128.852,147.12506c0.322,0.036 1.495,0.306 3.518,0.811l0.055,0.109c-0.298,1.659 -0.477,2.488 -0.538,2.488h-0.055l-1.467,-0.756c0,0.17 -0.055,0.93 -0.164,2.279l2.005,-0.493c0.061,0.183 0.115,0.994 0.164,2.434c-0.194,0.073 -0.863,0.182 -2.005,0.328c0.255,1.094 0.525,2.431 0.811,4.01c-0.936,0.213 -2.054,0.429 -3.354,0.648l-0.055,-0.11c-0.17,-2.813 -0.313,-4.22 -0.428,-4.22c-1.179,0.286 -1.811,0.447 -1.896,0.483c-0.073,-0.352 -0.201,-1.309 -0.383,-2.871l0.11,-0.055h1.95c-0.109,-0.899 -0.273,-2.072 -0.492,-3.518z" data-paper-data="{&quot;origPos&quot;:null}" fill="#c2662b" stroke="none" stroke-width="1" stroke-linecap="butt"/><path d="M134.521,146.22206l3.582,0.565c-0.45,1.72 -0.744,2.58 -0.884,2.58c-1.884,-0.128 -2.825,-0.252 -2.825,-0.374v-2.643c0.018,-0.085 0.06,-0.128 0.127,-0.128zM133.519,150.56106h0.054c2.771,0.504 4.156,0.799 4.156,0.884c-0.796,4.509 -1.279,7.021 -1.449,7.538h-2.889c-0.085,0 -0.128,-0.043 -0.128,-0.128z" data-paper-data="{&quot;origPos&quot;:null}" fill="#c2662b" stroke="none" stroke-width="1" stroke-linecap="butt"/><path d="M144.948,149.87706c1.203,0.675 1.942,1.112 2.215,1.313c-0.984,2.047 -1.513,3.089 -1.586,3.126h-0.064l-1.303,-1.139l-1.54,1.877l0.173,3.418c-0.079,0.073 -1.085,0.243 -3.017,0.511c-0.073,-0.523 -0.547,-3.084 -1.422,-7.684c0,-0.073 1.27,-0.261 3.81,-0.565c0.042,0.049 0.158,0.617 0.346,1.704c1.519,-1.707 2.315,-2.561 2.388,-2.561z" data-paper-data="{&quot;origPos&quot;:null}" fill="#c2662b" stroke="none" stroke-width="1" stroke-linecap="butt"/><path d="M153.051,149.88606c2.753,1.416 4.278,2.242 4.576,2.479c-0.395,1.848 -0.629,2.799 -0.702,2.853h-5.761v0.101l1.614,1.996l2.533,-1.295c0.25,0.432 0.608,1.185 1.076,2.261c-0.219,0.073 -1.814,0.307 -4.785,0.702c-2.461,-1.623 -3.701,-2.467 -3.719,-2.534c0.395,-3.154 0.629,-4.731 0.702,-4.731c2.57,-1.093 4.059,-1.704 4.466,-1.832zM152.459,152.09208c-0.049,0.121 -0.371,0.605 -0.967,1.449c0,0.255 0.359,0.383 1.076,0.383c0,0.036 0.52,0.125 1.559,0.264c0.285,-0.395 0.428,-0.626 0.428,-0.692c-0.091,-0.541 -0.289,-0.812 -0.592,-0.812z" data-paper-data="{&quot;origPos&quot;:null}" fill="#c2662b" stroke="none" stroke-width="1" stroke-linecap="butt"/><path d="M166.878,147.12506c0.322,0.036 1.495,0.306 3.518,0.811l0.055,0.109c-0.298,1.659 -0.477,2.488 -0.538,2.488h-0.055l-1.467,-0.756c0,0.17 -0.055,0.93 -0.164,2.279l2.005,-0.493c0.061,0.183 0.115,0.994 0.164,2.434c-0.194,0.073 -0.863,0.182 -2.005,0.328c0.255,1.094 0.526,2.431 0.811,4.01c-0.936,0.213 -2.054,0.429 -3.354,0.648l-0.055,-0.11c-0.17,-2.813 -0.313,-4.22 -0.428,-4.22c-1.179,0.286 -1.811,0.447 -1.896,0.483c-0.073,-0.352 -0.201,-1.309 -0.383,-2.871l0.11,-0.055h1.95c-0.109,-0.899 -0.273,-2.072 -0.492,-3.518z" data-paper-data="{&quot;origPos&quot;:null}" fill="#c2662b" stroke="none" stroke-width="1" stroke-linecap="butt"/><path d="M171.289,147.13408c1.86,0.036 3.224,0.054 4.093,0.054c0.079,0 0.319,3.731 0.72,11.193c-0.31,0.079 -1.392,0.28 -3.245,0.602c-0.091,0 -0.392,-2.285 -0.902,-6.855c-0.043,-0.109 -0.265,-1.774 -0.666,-4.994z" data-paper-data="{&quot;origPos&quot;:null}" fill="#c2662b" stroke="none" stroke-width="1" stroke-linecap="butt"/><path d="M180.796,149.88606c2.309,0.62 3.533,0.997 3.673,1.13c1.27,1.799 1.984,2.835 2.142,3.109c-0.82,2.6 -1.291,3.901 -1.413,3.901c-2.734,0.638 -4.165,0.957 -4.293,0.957c-2.26,-1.319 -3.463,-2.054 -3.609,-2.206c-0.079,-2.455 -0.119,-3.81 -0.119,-4.065c-0.036,-0.073 -0.054,-0.128 -0.054,-0.164c2.333,-1.775 3.539,-2.662 3.618,-2.662zM180.568,153.22206c-0.037,0.243 -0.091,1.127 -0.164,2.653l2.032,0.455c0.487,-1.519 0.73,-2.33 0.73,-2.433c-1.617,-0.486 -2.483,-0.73 -2.598,-0.73z" data-paper-data="{&quot;origPos&quot;:null}" fill="#c2662b" stroke="none" stroke-width="1" stroke-linecap="butt"/><path d="M191.442,149.87706c0.079,0.103 0.489,1.866 1.23,5.287h0.064c0,-0.079 0.45,-0.775 1.349,-2.088c0.377,0.256 1.094,0.808 2.151,1.659h0.128v-0.064c0.164,-2.369 0.285,-3.682 0.364,-3.937c2.504,0.127 3.755,0.231 3.755,0.31c-1.148,4.618 -1.762,7.018 -1.841,7.2c-0.383,0.043 -1.185,0.164 -2.406,0.365c-1.003,-1.574 -1.577,-2.412 -1.723,-2.516c-0.656,1.75 -1.066,2.713 -1.23,2.89h-2.461c-0.152,-0.049 -0.869,-1.629 -2.151,-4.74c-0.82,-1.738 -1.231,-2.68 -1.231,-2.826c0,-0.133 1.334,-0.647 4.002,-1.54z" data-paper-data="{&quot;origPos&quot;:null}" fill="#c2662b" stroke="none" stroke-width="1" stroke-linecap="butt"/><path d="M206.645,149.88606c2.752,1.416 4.278,2.242 4.575,2.479c-0.395,1.848 -0.629,2.799 -0.701,2.853h-5.761v0.101l1.613,1.996l2.534,-1.295c0.249,0.432 0.608,1.185 1.076,2.261c-0.219,0.073 -1.814,0.307 -4.785,0.702c-2.461,-1.623 -3.701,-2.467 -3.719,-2.534c0.395,-3.154 0.629,-4.731 0.702,-4.731c2.57,-1.093 4.059,-1.704 4.466,-1.832zM206.052,152.09208c-0.048,0.121 -0.37,0.605 -0.966,1.449c0,0.255 0.359,0.383 1.076,0.383c0,0.036 0.519,0.125 1.558,0.264c0.286,-0.395 0.429,-0.626 0.429,-0.692c-0.091,-0.541 -0.289,-0.812 -0.593,-0.812z" data-paper-data="{&quot;origPos&quot;:null}" fill="#c2662b" stroke="none" stroke-width="1" stroke-linecap="butt"/><path d="M218.594,149.87706c1.203,0.675 1.941,1.112 2.215,1.313c-0.985,2.047 -1.513,3.089 -1.586,3.126h-0.064l-1.303,-1.139l-1.541,1.877l0.174,3.418c-0.079,0.073 -1.085,0.243 -3.017,0.511c-0.073,-0.523 -0.547,-3.084 -1.422,-7.684c0,-0.073 1.27,-0.261 3.81,-0.565c0.042,0.049 0.158,0.617 0.346,1.704c1.519,-1.707 2.315,-2.561 2.388,-2.561z" data-paper-data="{&quot;origPos&quot;:null}" fill="#c2662b" stroke="none" stroke-width="1" stroke-linecap="butt"/><path d="M225.539,147.46208l0.037,0.073c-0.608,5.365 -0.948,8.185 -1.021,8.458c-1.288,-0.122 -2.102,-0.207 -2.443,-0.255v-0.037l-0.583,-7.619c0.146,-0.049 1.483,-0.256 4.01,-0.62zM221.93,156.17506c0.043,0.025 0.99,0.098 2.844,0.219l0.036,0.073c-0.285,1.677 -0.468,2.516 -0.547,2.516h-2.114c-0.073,0 -0.17,-0.839 -0.292,-2.516c-0.024,0 -0.036,-0.073 -0.036,-0.219c0.073,-0.024 0.109,-0.048 0.109,-0.073z" data-paper-data="{&quot;origPos&quot;:null}" fill="#000000" stroke="none" stroke-width="1" stroke-linecap="butt"/><path d="M237.625,147.12506l3.974,2.934c-0.547,2.498 -0.893,3.747 -1.039,3.747c-0.03,0 -0.759,0.613 -2.187,1.841c-0.887,-0.043 -1.902,-0.101 -3.045,-0.174l-0.118,3.282c-0.249,0.073 -1.325,0.149 -3.227,0.228c-0.231,0 -0.346,-0.654 -0.346,-1.96c-0.419,-5.408 -0.629,-8.325 -0.629,-8.75c0.711,-0.152 2.917,-0.535 6.617,-1.148zM235.155,149.71307v3.801c1.495,-0.268 2.242,-0.422 2.242,-0.465l0.52,-2.242c-0.735,-0.304 -1.656,-0.669 -2.762,-1.094z" data-paper-data="{&quot;origPos&quot;:null}" fill="#000000" stroke="none" stroke-width="1" stroke-linecap="butt"/><path d="M249.183,149.87706c1.203,0.675 1.941,1.112 2.214,1.313c-0.984,2.047 -1.513,3.089 -1.586,3.126h-0.063l-1.304,-1.139l-1.54,1.877l0.173,3.418c-0.079,0.073 -1.085,0.243 -3.017,0.511c-0.073,-0.523 -0.547,-3.084 -1.422,-7.684c0,-0.073 1.27,-0.261 3.81,-0.565c0.043,0.049 0.158,0.617 0.347,1.704c1.519,-1.707 2.315,-2.561 2.388,-2.561z" data-paper-data="{&quot;origPos&quot;:null}" fill="#000000" stroke="none" stroke-width="1" stroke-linecap="butt"/><path d="M257.285,149.88606c2.753,1.416 4.278,2.242 4.576,2.479c-0.395,1.848 -0.629,2.799 -0.702,2.853h-5.76v0.101l1.613,1.996l2.534,-1.295c0.249,0.432 0.607,1.185 1.075,2.261c-0.218,0.073 -1.813,0.307 -4.785,0.702c-2.461,-1.623 -3.7,-2.467 -3.719,-2.534c0.395,-3.154 0.629,-4.731 0.702,-4.731c2.571,-1.093 4.059,-1.704 4.466,-1.832zM256.693,152.09208c-0.049,0.121 -0.371,0.605 -0.966,1.449c0,0.255 0.358,0.383 1.075,0.383c0,0.036 0.52,0.125 1.559,0.264c0.286,-0.395 0.428,-0.626 0.428,-0.692c-0.091,-0.541 -0.288,-0.812 -0.592,-0.812z" data-paper-data="{&quot;origPos&quot;:null}" fill="#000000" stroke="none" stroke-width="1" stroke-linecap="butt"/><path d="M270.046,149.87706c1.75,1.118 2.716,1.762 2.898,1.932c-0.632,1.404 -0.993,2.106 -1.084,2.106l-3.318,-1.923h-0.119c0,0.06 -0.142,0.401 -0.428,1.021c3.056,1.646 4.585,2.491 4.585,2.533c-0.857,1.981 -1.34,3.026 -1.45,3.136l-5.186,0.301c-2.017,-1.337 -3.102,-2.042 -3.254,-2.115v-0.055c0,-0.152 0.301,-0.835 0.903,-2.05l4.047,2.105l0.3,-1.203c-2.503,-1.124 -3.992,-1.826 -4.466,-2.106v-0.127c0,-0.231 0.483,-1.255 1.449,-3.072z" data-paper-data="{&quot;origPos&quot;:null}" fill="#000000" stroke="none" stroke-width="1" stroke-linecap="butt"/><path d="M281.202,149.87706c1.75,1.118 2.716,1.762 2.899,1.932c-0.632,1.404 -0.994,2.106 -1.085,2.106l-3.318,-1.923h-0.118c0,0.06 -0.143,0.401 -0.429,1.021c3.057,1.646 4.585,2.491 4.585,2.533c-0.857,1.981 -1.34,3.026 -1.449,3.136l-5.186,0.301c-2.018,-1.337 -3.102,-2.042 -3.254,-2.115v-0.055c0,-0.152 0.3,-0.835 0.902,-2.05l4.047,2.105l0.301,-1.203c-2.504,-1.124 -3.993,-1.826 -4.467,-2.106v-0.127c0,-0.231 0.484,-1.255 1.45,-3.072z" data-paper-data="{&quot;origPos&quot;:null}" fill="#000000" stroke="none" stroke-width="1" stroke-linecap="butt"/><path d="M298.064,147.12506h0.064c2.114,1.239 3.254,1.886 3.418,1.941v0.109c-0.547,0.626 -1.556,1.711 -3.026,3.254c2.88,1.07 4.496,1.714 4.849,1.932l-2.68,3.309c-1.811,-1.543 -2.968,-2.512 -3.473,-2.907c-1.221,2.388 -1.98,3.794 -2.278,4.22h-0.064c-2.267,-0.796 -3.5,-1.27 -3.701,-1.422v-0.064l3.136,-4.102c-2.911,-1.197 -4.469,-1.899 -4.676,-2.105c1.282,-2.175 2.005,-3.336 2.169,-3.482c0.019,0.061 1.422,1.03 4.211,2.908c0.991,-1.823 1.674,-3.02 2.051,-3.591z" data-paper-data="{&quot;origPos&quot;:null}" fill="#2b70c2" stroke="none" stroke-width="1" stroke-linecap="butt"/><path d="M311.645,147.12506l4.01,0.71l-0.383,3.045c0.796,-0.043 1.38,-0.064 1.75,-0.064h0.584l0.127,-0.064l0.064,0.128c-0.127,1.847 -0.237,2.886 -0.328,3.117l-0.128,-0.073c-0.091,0 -0.911,-0.043 -2.461,-0.128c-0.085,1.428 -0.148,3.136 -0.191,5.123l-0.128,0.064c-1.956,-0.128 -3.123,-0.237 -3.5,-0.329l0.064,-0.255c0,-0.528 0.085,-2.169 0.255,-4.922c-1.64,-0.091 -2.46,-0.2 -2.46,-0.328c0.085,-2.029 0.194,-3.044 0.328,-3.044l2.397,0.456v-0.784c0,-0.638 -0.025,-1.501 -0.073,-2.589c0.048,0 0.073,-0.021 0.073,-0.063z" data-paper-data="{&quot;origPos&quot;:null}" fill="#000000" stroke="none" stroke-width="1" stroke-linecap="butt"/><path d="M322.436,149.88606c2.309,0.62 3.534,0.997 3.674,1.13c1.27,1.799 1.984,2.835 2.142,3.109c-0.821,2.6 -1.292,3.901 -1.413,3.901c-2.735,0.638 -4.166,0.957 -4.293,0.957c-2.261,-1.319 -3.464,-2.054 -3.61,-2.206c-0.079,-2.455 -0.118,-3.81 -0.118,-4.065c-0.036,-0.073 -0.055,-0.128 -0.055,-0.164c2.334,-1.775 3.54,-2.662 3.619,-2.662zM322.209,153.22206c-0.037,0.243 -0.092,1.127 -0.164,2.653l2.032,0.455c0.486,-1.519 0.729,-2.33 0.729,-2.433c-1.616,-0.486 -2.482,-0.73 -2.597,-0.73z" data-paper-data="{&quot;origPos&quot;:null}" fill="#000000" stroke="none" stroke-width="1" stroke-linecap="butt"/><path d="M341.067,149.87706c1.75,1.118 2.716,1.762 2.898,1.932c-0.632,1.404 -0.993,2.106 -1.085,2.106l-3.317,-1.923h-0.119c0,0.06 -0.143,0.401 -0.428,1.021c3.056,1.646 4.585,2.491 4.585,2.533c-0.857,1.981 -1.34,3.026 -1.45,3.136l-5.186,0.301c-2.017,-1.337 -3.102,-2.042 -3.254,-2.115v-0.055c0,-0.152 0.301,-0.835 0.903,-2.05l4.046,2.105l0.301,-1.203c-2.503,-1.124 -3.992,-1.826 -4.466,-2.106v-0.127c0,-0.231 0.483,-1.255 1.449,-3.072z" data-paper-data="{&quot;origPos&quot;:null}" fill="#000000" stroke="none" stroke-width="1" stroke-linecap="butt"/><path d="M348.951,147.12506c0.036,0.054 0.206,1.719 0.51,4.994c2.346,-0.717 3.594,-1.075 3.746,-1.075l2.325,1.586c-0.377,3.463 -0.623,5.487 -0.739,6.07l-3.226,0.109c0,-0.036 -0.022,-0.054 -0.064,-0.054l0.064,-0.228c0,-0.492 0.073,-1.987 0.218,-4.485c-0.887,-0.036 -1.546,-0.054 -1.977,-0.054h-0.228c0.261,2.777 0.392,4.29 0.392,4.539l-3.063,0.456c-0.115,-0.389 -0.796,-4.02 -2.042,-10.892c0,-0.195 0.474,-0.347 1.422,-0.456c1.197,-0.34 2.085,-0.51 2.662,-0.51z" data-paper-data="{&quot;origPos&quot;:null}" fill="#000000" stroke="none" stroke-width="1" stroke-linecap="butt"/><path d="M360.061,149.88606c2.309,0.62 3.534,0.997 3.674,1.13c1.27,1.799 1.984,2.835 2.142,3.109c-0.821,2.6 -1.292,3.901 -1.413,3.901c-2.735,0.638 -4.166,0.957 -4.293,0.957c-2.261,-1.319 -3.464,-2.054 -3.61,-2.206c-0.079,-2.455 -0.118,-3.81 -0.118,-4.065c-0.036,-0.073 -0.055,-0.128 -0.055,-0.164c2.334,-1.775 3.54,-2.662 3.619,-2.662zM359.834,153.22206c-0.037,0.243 -0.092,1.127 -0.164,2.653l2.032,0.455c0.486,-1.519 0.729,-2.33 0.729,-2.433c-1.616,-0.486 -2.482,-0.73 -2.597,-0.73z" data-paper-data="{&quot;origPos&quot;:null}" fill="#000000" stroke="none" stroke-width="1" stroke-linecap="butt"/><path d="M370.379,149.88606c2.309,0.62 3.534,0.997 3.673,1.13c1.27,1.799 1.984,2.835 2.142,3.109c-0.82,2.6 -1.291,3.901 -1.412,3.901c-2.735,0.638 -4.166,0.957 -4.293,0.957c-2.261,-1.319 -3.464,-2.054 -3.61,-2.206c-0.079,-2.455 -0.118,-3.81 -0.118,-4.065c-0.037,-0.073 -0.055,-0.128 -0.055,-0.164c2.333,-1.775 3.539,-2.662 3.618,-2.662zM370.151,153.22206c-0.036,0.243 -0.091,1.127 -0.164,2.653l2.033,0.455c0.486,-1.519 0.729,-2.33 0.729,-2.433c-1.616,-0.486 -2.482,-0.73 -2.598,-0.73z" data-paper-data="{&quot;origPos&quot;:null}" fill="#000000" stroke="none" stroke-width="1" stroke-linecap="butt"/><path d="M379.749,147.12506l4.01,0.71l-0.382,3.045c0.796,-0.043 1.379,-0.064 1.75,-0.064h0.583l0.127,-0.064l0.064,0.128c-0.127,1.847 -0.237,2.886 -0.328,3.117l-0.127,-0.073c-0.092,0 -0.912,-0.043 -2.461,-0.128c-0.085,1.428 -0.149,3.136 -0.192,5.123l-0.127,0.064c-1.957,-0.128 -3.124,-0.237 -3.5,-0.329l0.063,-0.255c0,-0.528 0.085,-2.169 0.256,-4.922c-1.641,-0.091 -2.461,-0.2 -2.461,-0.328c0.085,-2.029 0.194,-3.044 0.328,-3.044l2.397,0.456v-0.784c0,-0.638 -0.024,-1.501 -0.073,-2.589c0.049,0 0.073,-0.021 0.073,-0.063z" data-paper-data="{&quot;origPos&quot;:null}" fill="#000000" stroke="none" stroke-width="1" stroke-linecap="butt"/><path d="M36.248,170.45806c0.322,0.036 1.494,0.307 3.518,0.811l0.055,0.109c-0.298,1.659 -0.477,2.489 -0.538,2.489h-0.055l-1.467,-0.757c0,0.17 -0.055,0.93 -0.164,2.279l2.005,-0.492c0.061,0.182 0.115,0.993 0.164,2.433c-0.195,0.073 -0.863,0.183 -2.005,0.328c0.255,1.094 0.525,2.431 0.811,4.011c-0.936,0.212 -2.054,0.428 -3.354,0.647l-0.055,-0.109c-0.17,-2.814 -0.313,-4.221 -0.428,-4.221c-1.179,0.286 -1.811,0.447 -1.896,0.484c-0.073,-0.353 -0.201,-1.31 -0.383,-2.872l0.109,-0.054h1.951c-0.109,-0.9 -0.274,-2.072 -0.492,-3.518z" data-paper-data="{&quot;origPos&quot;:null}" fill="#2b70c2" stroke="none" stroke-width="1" stroke-linecap="butt"/><path d="M41.917,169.55608l3.582,0.565c-0.45,1.719 -0.744,2.579 -0.884,2.579c-1.884,-0.128 -2.826,-0.252 -2.826,-0.374v-2.643c0.019,-0.085 0.061,-0.127 0.128,-0.127zM40.914,173.89408h0.055c2.771,0.504 4.156,0.799 4.156,0.884c-0.796,4.509 -1.279,7.021 -1.449,7.538h-2.889c-0.085,0 -0.128,-0.043 -0.128,-0.128z" data-paper-data="{&quot;origPos&quot;:null}" fill="#2b70c2" stroke="none" stroke-width="1" stroke-linecap="butt"/><path d="M52.344,173.21008c1.203,0.675 1.941,1.112 2.215,1.313c-0.985,2.048 -1.513,3.09 -1.586,3.126h-0.064l-1.303,-1.139l-1.541,1.878l0.174,3.418c-0.079,0.072 -1.085,0.243 -3.017,0.51c-0.073,-0.523 -0.547,-3.084 -1.422,-7.684c0,-0.073 1.27,-0.261 3.81,-0.565c0.042,0.049 0.158,0.617 0.346,1.705c1.519,-1.708 2.315,-2.562 2.388,-2.562z" data-paper-data="{&quot;origPos&quot;:null}" fill="#2b70c2" stroke="none" stroke-width="1" stroke-linecap="butt"/><path d="M60.447,173.22006c2.752,1.415 4.278,2.242 4.575,2.479c-0.395,1.847 -0.628,2.798 -0.701,2.853h-5.761v0.1l1.613,1.996l2.534,-1.294c0.249,0.431 0.608,1.185 1.076,2.26c-0.219,0.073 -1.814,0.307 -4.785,0.702c-2.461,-1.622 -3.701,-2.467 -3.719,-2.534c0.395,-3.154 0.629,-4.73 0.702,-4.73c2.57,-1.094 4.059,-1.705 4.466,-1.832zM59.854,175.42508c-0.048,0.122 -0.37,0.605 -0.966,1.45c0,0.255 0.359,0.382 1.076,0.382c0,0.037 0.519,0.125 1.558,0.265c0.286,-0.395 0.429,-0.626 0.429,-0.693c-0.091,-0.541 -0.289,-0.811 -0.593,-0.811z" data-paper-data="{&quot;origPos&quot;:null}" fill="#2b70c2" stroke="none" stroke-width="1" stroke-linecap="butt"/><path d="M70.108,170.45806l0.064,0.118c0,0.347 0.079,1.687 0.237,4.02c2.175,-0.693 3.394,-1.057 3.655,-1.094l3.281,3.527c-1.379,3.093 -2.129,4.734 -2.251,4.922c-0.383,-0.042 -1.78,-0.103 -4.193,-0.182v0.428c0,0.079 -0.042,0.119 -0.127,0.119h-3.528c-0.127,0 -0.37,-1.823 -0.729,-5.469c-0.079,-0.31 -0.301,-2.136 -0.665,-5.478c2.066,-0.486 3.485,-0.79 4.256,-0.911zM70.719,177.14806l0.237,2.251h1.832l0.665,-2.552c-1.823,0.158 -2.734,0.258 -2.734,0.301z" data-paper-data="{&quot;origPos&quot;:null}" fill="#2b70c2" stroke="none" stroke-width="1" stroke-linecap="butt"/><path d="M79.67,173.21008c3.609,0.499 5.414,0.806 5.414,0.921c1.421,1.221 2.132,1.875 2.132,1.96c-0.577,1.804 -0.905,2.901 -0.984,3.29c0.577,1.282 0.905,2.048 0.984,2.297c0,0.073 -0.941,0.267 -2.825,0.583c-0.024,-0.103 -0.198,-0.334 -0.52,-0.692c-2.6,0.498 -4.001,0.747 -4.201,0.747l-1.386,-3.746l3.054,-1.613c0.492,0.079 1.26,0.118 2.306,0.118c0,-0.134 0.018,-0.538 0.054,-1.212c-0.176,0 -1.75,0.115 -4.721,0.346l-0.055,-0.118c0.413,-1.92 0.662,-2.881 0.748,-2.881zM81.565,178.57007c0,0.067 0.195,0.778 0.584,2.133h0.054c0.766,-0.499 1.149,-0.827 1.149,-0.985l0.118,-0.975c-0.146,0 -0.78,-0.058 -1.905,-0.173z" data-paper-data="{&quot;origPos&quot;:null}" fill="#2b70c2" stroke="none" stroke-width="1" stroke-linecap="butt"/><path d="M88.091,170.46708c1.86,0.036 3.224,0.055 4.093,0.055c0.079,0 0.319,3.731 0.72,11.192c-0.31,0.079 -1.392,0.28 -3.245,0.602c-0.091,0 -0.392,-2.285 -0.902,-6.854c-0.043,-0.11 -0.265,-1.775 -0.666,-4.995z" data-paper-data="{&quot;origPos&quot;:null}" fill="#2b70c2" stroke="none" stroke-width="1" stroke-linecap="butt"/><path d="M93.925,170.46708c1.859,0.036 3.223,0.055 4.092,0.055c0.079,0 0.319,3.731 0.72,11.192c-0.31,0.079 -1.391,0.28 -3.245,0.602c-0.091,0 -0.391,-2.285 -0.902,-6.854c-0.042,-0.11 -0.264,-1.775 -0.665,-4.995z" data-paper-data="{&quot;origPos&quot;:null}" fill="#2b70c2" stroke="none" stroke-width="1" stroke-linecap="butt"/><path d="M107.114,173.21008c1.75,1.119 2.716,1.763 2.898,1.933c-0.632,1.403 -0.993,2.105 -1.085,2.105l-3.317,-1.923h-0.119c0,0.061 -0.143,0.401 -0.428,1.021c3.056,1.647 4.584,2.491 4.584,2.534c-0.856,1.981 -1.339,3.026 -1.449,3.135l-5.186,0.301c-2.017,-1.337 -3.102,-2.042 -3.254,-2.115v-0.054c0,-0.152 0.301,-0.836 0.902,-2.051l4.047,2.105l0.301,-1.203c-2.503,-1.124 -3.992,-1.826 -4.466,-2.105v-0.128c0,-0.231 0.483,-1.255 1.449,-3.071z" data-paper-data="{&quot;origPos&quot;:null}" fill="#2b70c2" stroke="none" stroke-width="1" stroke-linecap="butt"/><path d="M116.93,173.21008c3.609,0.499 5.414,0.806 5.414,0.921c1.422,1.221 2.133,1.875 2.133,1.96c-0.577,1.804 -0.906,2.901 -0.985,3.29c0.578,1.282 0.906,2.048 0.985,2.297c0,0.073 -0.942,0.267 -2.826,0.583c-0.024,-0.103 -0.197,-0.334 -0.519,-0.692c-2.601,0.498 -4.002,0.747 -4.202,0.747l-1.385,-3.746l3.053,-1.613c0.492,0.079 1.261,0.118 2.306,0.118c0,-0.134 0.018,-0.538 0.055,-1.212c-0.177,0 -1.75,0.115 -4.722,0.346l-0.054,-0.118c0.413,-1.92 0.662,-2.881 0.747,-2.881zM118.826,178.57007c0,0.067 0.194,0.778 0.583,2.133h0.055c0.765,-0.499 1.148,-0.827 1.148,-0.985l0.119,-0.975c-0.146,0 -0.781,-0.058 -1.905,-0.173z" data-paper-data="{&quot;origPos&quot;:null}" fill="#000000" stroke="none" stroke-width="1" stroke-linecap="butt"/><path d="M133.446,173.21008l3.035,2.088c-0.213,3.463 -0.362,5.487 -0.447,6.07c-0.352,0.043 -1.425,0.106 -3.217,0.191l-0.064,-0.127l-0.319,-4.867l-0.128,-0.064c-1.16,0.249 -1.959,0.437 -2.397,0.565c0.122,2.072 0.182,3.57 0.182,4.493c-1.81,0.505 -2.801,0.757 -2.971,0.757c-1.179,-5.189 -1.768,-7.93 -1.768,-8.221c2.564,-0.335 3.956,-0.502 4.174,-0.502v0.064c0.043,0.03 0.107,0.662 0.192,1.896c2.351,-1.562 3.594,-2.343 3.728,-2.343z" data-paper-data="{&quot;origPos&quot;:null}" fill="#000000" stroke="none" stroke-width="1" stroke-linecap="butt"/><path d="M142.897,170.44908h0.055c2.747,0.231 4.12,0.41 4.12,0.537l1.212,10.728c0,0.079 -1.212,0.28 -3.637,0.602l-0.054,-0.119v-0.975c-2.091,0.565 -3.525,0.93 -4.302,1.094c-1.848,-2.613 -2.817,-4.004 -2.908,-4.175c1.361,-2.473 2.087,-3.724 2.178,-3.755l3.819,0.183c-0.079,-0.468 -0.24,-1.842 -0.483,-4.12zM141.202,176.98408c0.614,1.877 0.997,2.907 1.149,3.09l1.813,-1.577c-0.188,-1.088 -0.328,-1.632 -0.419,-1.632h-2.424c-0.079,0.013 -0.119,0.052 -0.119,0.119z" data-paper-data="{&quot;origPos&quot;:null}" fill="#000000" stroke="none" stroke-width="1" stroke-linecap="butt"/><path d="M159.377,170.44908h0.054c2.747,0.231 4.12,0.41 4.12,0.537l1.212,10.728c0,0.079 -1.212,0.28 -3.636,0.602l-0.055,-0.119v-0.975c-2.09,0.565 -3.524,0.93 -4.302,1.094c-1.847,-2.613 -2.817,-4.004 -2.908,-4.175c1.361,-2.473 2.087,-3.724 2.179,-3.755l3.819,0.183c-0.079,-0.468 -0.24,-1.842 -0.483,-4.12zM157.681,176.98408c0.614,1.877 0.997,2.907 1.149,3.09l1.813,-1.577c-0.188,-1.088 -0.328,-1.632 -0.419,-1.632h-2.424c-0.079,0.013 -0.119,0.052 -0.119,0.119z" data-paper-data="{&quot;origPos&quot;:null}" fill="#2b70c2" stroke="none" stroke-width="1" stroke-linecap="butt"/><path d="M170.879,173.22006c2.753,1.415 4.278,2.242 4.576,2.479c-0.395,1.847 -0.629,2.798 -0.702,2.853h-5.761v0.1l1.614,1.996l2.534,-1.294c0.249,0.431 0.607,1.185 1.075,2.26c-0.219,0.073 -1.814,0.307 -4.785,0.702c-2.461,-1.622 -3.701,-2.467 -3.719,-2.534c0.395,-3.154 0.629,-4.73 0.702,-4.73c2.57,-1.094 4.059,-1.705 4.466,-1.832zM170.287,175.42508c-0.049,0.122 -0.371,0.605 -0.966,1.45c0,0.255 0.358,0.382 1.075,0.382c0,0.037 0.52,0.125 1.559,0.265c0.285,-0.395 0.428,-0.626 0.428,-0.693c-0.091,-0.541 -0.289,-0.811 -0.592,-0.811z" data-paper-data="{&quot;origPos&quot;:null}" fill="#2b70c2" stroke="none" stroke-width="1" stroke-linecap="butt"/><path d="M180.076,170.45806c0.322,0.036 1.495,0.307 3.518,0.811l0.055,0.109c-0.298,1.659 -0.477,2.489 -0.538,2.489h-0.055l-1.467,-0.757c0,0.17 -0.055,0.93 -0.164,2.279l2.005,-0.492c0.061,0.182 0.115,0.993 0.164,2.433c-0.194,0.073 -0.863,0.183 -2.005,0.328c0.255,1.094 0.525,2.431 0.811,4.011c-0.936,0.212 -2.054,0.428 -3.354,0.647l-0.055,-0.109c-0.17,-2.814 -0.313,-4.221 -0.428,-4.221c-1.179,0.286 -1.811,0.447 -1.896,0.484c-0.073,-0.353 -0.201,-1.31 -0.383,-2.872l0.109,-0.054h1.951c-0.109,-0.9 -0.273,-2.072 -0.492,-3.518z" data-paper-data="{&quot;origPos&quot;:null}" fill="#2b70c2" stroke="none" stroke-width="1" stroke-linecap="butt"/><path d="M189.655,173.22006c2.753,1.415 4.278,2.242 4.576,2.479c-0.395,1.847 -0.629,2.798 -0.702,2.853h-5.76v0.1l1.613,1.996l2.534,-1.294c0.249,0.431 0.607,1.185 1.075,2.26c-0.219,0.073 -1.814,0.307 -4.785,0.702c-2.461,-1.622 -3.701,-2.467 -3.719,-2.534c0.395,-3.154 0.629,-4.73 0.702,-4.73c2.57,-1.094 4.059,-1.705 4.466,-1.832zM189.063,175.42508c-0.049,0.122 -0.371,0.605 -0.966,1.45c0,0.255 0.358,0.382 1.075,0.382c0,0.037 0.52,0.125 1.559,0.265c0.285,-0.395 0.428,-0.626 0.428,-0.693c-0.091,-0.541 -0.288,-0.811 -0.592,-0.811z" data-paper-data="{&quot;origPos&quot;:null}" fill="#2b70c2" stroke="none" stroke-width="1" stroke-linecap="butt"/><path d="M196.446,173.21008c3.609,0.499 5.414,0.806 5.414,0.921c1.422,1.221 2.132,1.875 2.132,1.96c-0.577,1.804 -0.905,2.901 -0.984,3.29c0.577,1.282 0.905,2.048 0.984,2.297c0,0.073 -0.941,0.267 -2.825,0.583c-0.024,-0.103 -0.198,-0.334 -0.52,-0.692c-2.6,0.498 -4.001,0.747 -4.201,0.747l-1.386,-3.746l3.054,-1.613c0.492,0.079 1.26,0.118 2.306,0.118c0,-0.134 0.018,-0.538 0.054,-1.212c-0.176,0 -1.75,0.115 -4.721,0.346l-0.055,-0.118c0.413,-1.92 0.663,-2.881 0.748,-2.881zM198.341,178.57007c0,0.067 0.195,0.778 0.584,2.133h0.054c0.766,-0.499 1.149,-0.827 1.149,-0.985l0.118,-0.975c-0.145,0 -0.78,-0.058 -1.905,-0.173z" data-paper-data="{&quot;origPos&quot;:null}" fill="#2b70c2" stroke="none" stroke-width="1" stroke-linecap="butt"/><path d="M207.593,170.45806l4.01,0.711l-0.383,3.044c0.796,-0.042 1.38,-0.064 1.75,-0.064h0.584l0.127,-0.064l0.064,0.128c-0.128,1.847 -0.237,2.886 -0.328,3.117l-0.128,-0.073c-0.091,0 -0.911,-0.042 -2.461,-0.127c-0.085,1.428 -0.148,3.135 -0.191,5.122l-0.128,0.064c-1.956,-0.128 -3.123,-0.237 -3.5,-0.328l0.064,-0.255c0,-0.529 0.085,-2.17 0.255,-4.922c-1.64,-0.091 -2.461,-0.201 -2.461,-0.328c0.086,-2.03 0.195,-3.045 0.329,-3.045l2.397,0.456v-0.784c0,-0.638 -0.025,-1.501 -0.073,-2.588c0.048,0 0.073,-0.022 0.073,-0.064z" data-paper-data="{&quot;origPos&quot;:null}" fill="#2b70c2" stroke="none" stroke-width="1" stroke-linecap="butt"/><path d="M224.509,173.22006c2.753,1.415 4.278,2.242 4.576,2.479c-0.395,1.847 -0.629,2.798 -0.702,2.853h-5.76v0.1l1.613,1.996l2.534,-1.294c0.249,0.431 0.607,1.185 1.075,2.26c-0.218,0.073 -1.813,0.307 -4.785,0.702c-2.461,-1.622 -3.7,-2.467 -3.719,-2.534c0.395,-3.154 0.629,-4.73 0.702,-4.73c2.571,-1.094 4.059,-1.705 4.466,-1.832zM223.917,175.42508c-0.049,0.122 -0.371,0.605 -0.966,1.45c0,0.255 0.358,0.382 1.075,0.382c0,0.037 0.52,0.125 1.559,0.265c0.285,-0.395 0.428,-0.626 0.428,-0.693c-0.091,-0.541 -0.288,-0.811 -0.592,-0.811z" data-paper-data="{&quot;origPos&quot;:null}" fill="#2b70c2" stroke="none" stroke-width="1" stroke-linecap="butt"/><path d="M238.008,173.21008l3.035,2.088c-0.212,3.463 -0.361,5.487 -0.446,6.07c-0.353,0.043 -1.425,0.106 -3.218,0.191l-0.064,-0.127l-0.319,-4.867l-0.127,-0.064c-1.161,0.249 -1.96,0.437 -2.397,0.565c0.121,2.072 0.182,3.57 0.182,4.493c-1.811,0.505 -2.801,0.757 -2.971,0.757c-1.179,-5.189 -1.769,-7.93 -1.769,-8.221c2.565,-0.335 3.956,-0.502 4.175,-0.502v0.064c0.042,0.03 0.106,0.662 0.191,1.896c2.352,-1.562 3.594,-2.343 3.728,-2.343z" data-paper-data="{&quot;origPos&quot;:null}" fill="#2b70c2" stroke="none" stroke-width="1" stroke-linecap="butt"/><path d="M247.114,173.22006c2.752,1.415 4.277,2.242 4.575,2.479c-0.395,1.847 -0.629,2.798 -0.702,2.853h-5.76v0.1l1.613,1.996l2.534,-1.294c0.249,0.431 0.608,1.185 1.075,2.26c-0.218,0.073 -1.813,0.307 -4.785,0.702c-2.461,-1.622 -3.7,-2.467 -3.718,-2.534c0.395,-3.154 0.628,-4.73 0.701,-4.73c2.571,-1.094 4.059,-1.705 4.467,-1.832zM246.521,175.42508c-0.048,0.122 -0.371,0.605 -0.966,1.45c0,0.255 0.358,0.382 1.075,0.382c0,0.037 0.52,0.125 1.559,0.265c0.286,-0.395 0.428,-0.626 0.428,-0.693c-0.091,-0.541 -0.288,-0.811 -0.592,-0.811z" data-paper-data="{&quot;origPos&quot;:null}" fill="#2b70c2" stroke="none" stroke-width="1" stroke-linecap="butt"/><path d="M262.645,173.21008c1.482,0.614 2.762,1.191 3.837,1.732c-0.279,3.616 -0.459,5.594 -0.538,5.934c-1.786,0.443 -2.786,0.665 -2.998,0.665c0,-0.79 -0.061,-2.348 -0.183,-4.676c-0.674,0.067 -1.011,0.125 -1.011,0.174c0,0.23 0.039,1.549 0.118,3.955c0.037,0 0.055,0.022 0.055,0.064c0,0.073 -0.939,0.274 -2.817,0.602c-0.079,-0.098 -0.319,-1.577 -0.72,-4.439c-0.759,0.194 -1.139,0.334 -1.139,0.419l0.365,3.719c-0.073,0.079 -1.073,0.398 -2.999,0.957c-1.118,-3.956 -1.817,-6.611 -2.096,-7.966c2.108,-0.523 3.287,-0.784 3.536,-0.784c0.279,1.106 0.419,1.744 0.419,1.914h0.064c1.027,-0.948 1.744,-1.586 2.151,-1.914h0.064l1.914,1.376h0.064c1.197,-1.154 1.835,-1.732 1.914,-1.732z" data-paper-data="{&quot;origPos&quot;:null}" fill="#2b70c2" stroke="none" stroke-width="1" stroke-linecap="butt"/><path d="M268.651,169.55608l3.582,0.565c-0.449,1.719 -0.744,2.579 -0.884,2.579c-1.883,-0.128 -2.825,-0.252 -2.825,-0.374v-2.643c0.018,-0.085 0.06,-0.127 0.127,-0.127zM267.649,173.89408h0.054c2.771,0.504 4.157,0.799 4.157,0.884c-0.796,4.509 -1.279,7.021 -1.45,7.538h-2.889c-0.085,0 -0.128,-0.043 -0.128,-0.128z" data-paper-data="{&quot;origPos&quot;:null}" fill="#2b70c2" stroke="none" stroke-width="1" stroke-linecap="butt"/><path d="M277.702,173.22006c2.753,1.415 4.278,2.242 4.576,2.479c-0.395,1.847 -0.629,2.798 -0.702,2.853h-5.761v0.1l1.614,1.996l2.534,-1.294c0.249,0.431 0.607,1.185 1.075,2.26c-0.219,0.073 -1.814,0.307 -4.785,0.702c-2.461,-1.622 -3.701,-2.467 -3.719,-2.534c0.395,-3.154 0.629,-4.73 0.702,-4.73c2.57,-1.094 4.059,-1.705 4.466,-1.832zM277.11,175.42508c-0.049,0.122 -0.371,0.605 -0.967,1.45c0,0.255 0.359,0.382 1.076,0.382c0,0.037 0.52,0.125 1.559,0.265c0.285,-0.395 0.428,-0.626 0.428,-0.693c-0.091,-0.541 -0.289,-0.811 -0.592,-0.811z" data-paper-data="{&quot;origPos&quot;:null}" fill="#2b70c2" stroke="none" stroke-width="1" stroke-linecap="butt"/><path d="M290.463,173.21008c1.75,1.119 2.716,1.763 2.898,1.933c-0.632,1.403 -0.994,2.105 -1.085,2.105l-3.317,-1.923h-0.119c0,0.061 -0.143,0.401 -0.428,1.021c3.056,1.647 4.584,2.491 4.584,2.534c-0.856,1.981 -1.339,3.026 -1.449,3.135l-5.186,0.301c-2.017,-1.337 -3.102,-2.042 -3.254,-2.115v-0.054c0,-0.152 0.301,-0.836 0.902,-2.051l4.047,2.105l0.301,-1.203c-2.503,-1.124 -3.992,-1.826 -4.466,-2.105v-0.128c0,-0.231 0.483,-1.255 1.449,-3.071z" data-paper-data="{&quot;origPos&quot;:null}" fill="#2b70c2" stroke="none" stroke-width="1" stroke-linecap="butt"/><path d="M294.373,179.50908c0.042,0.024 0.99,0.097 2.843,0.218l0.037,0.073c-0.286,1.677 -0.468,2.516 -0.547,2.516h-2.115c-0.072,0 -0.17,-0.839 -0.291,-2.516c-0.025,0 -0.037,-0.073 -0.037,-0.218c0.073,-0.025 0.11,-0.049 0.11,-0.073z" data-paper-data="{&quot;origPos&quot;:null}" fill="#000000" stroke="none" stroke-width="1" stroke-linecap="butt"/></g></g></svg>