<svg version="1.1" xmlns="http://www.w3.org/2000/svg" xmlns:xlink="http://www.w3.org/1999/xlink" width="115.99998" height="36" viewBox="0,0,115.99998,36"><defs><linearGradient x1="304.08335" y1="208.02568" x2="304.08335" y2="243.97432" gradientUnits="userSpaceOnUse" id="color-1"><stop offset="0" stop-color="#40d638"/><stop offset="1" stop-color="#31bb2f"/></linearGradient><linearGradient x1="265.00003" y1="208" x2="265.00003" y2="244" gradientUnits="userSpaceOnUse" id="color-2"><stop offset="0" stop-color="#40d638"/><stop offset="1" stop-color="#31bb2f"/></linearGradient><linearGradient x1="345.00001" y1="208" x2="345.00001" y2="244" gradientUnits="userSpaceOnUse" id="color-3"><stop offset="0" stop-color="#40d638"/><stop offset="1" stop-color="#31bb2f"/></linearGradient></defs><g transform="translate(-247.00003,-208)"><g data-paper-data="{&quot;isPaintingLayer&quot;:true}" fill-rule="nonzero" stroke="none" stroke-linecap="butt" stroke-linejoin="miter" stroke-miterlimit="10" stroke-dasharray="" stroke-dashoffset="0" style="mix-blend-mode: normal"><path d="M263.56534,208.02568h81.036v35.94864h-81.03599z" fill="url(#color-1)" stroke-width="6.59245"/><path d="M247.00003,226c0,-9.94113 8.05887,-18 18,-18c9.94113,0 18,8.05887 18,18c0,9.94113 -8.05887,18 -18,18c-9.94113,0 -18,-8.05887 -18,-18z" fill="url(#color-2)" stroke-width="0"/><path d="M327.00001,226c0,-9.94112 8.05887,-18 18,-18c9.94112,0 18,8.05888 18,18c0,9.94113 -8.05888,18 -18,18c-9.94113,0 -18,-8.05887 -18,-18z" fill="url(#color-3)" stroke-width="0"/><text transform="translate(257.31276,229.87605) scale(0.58728,0.58728)" font-size="22" xml:space="preserve" fill="#ffffff" fill-rule="nonzero" stroke="none" stroke-width="1" stroke-linecap="butt" stroke-linejoin="miter" stroke-miterlimit="10" stroke-dasharray="" stroke-dashoffset="0" font-family="Malgun Gothic" font-weight="400" text-anchor="start" style="mix-blend-mode: normal"><tspan x="0" dy="0">Wait, nevermind</tspan></text></g></g></svg>