<svg version="1.1" xmlns="http://www.w3.org/2000/svg" xmlns:xlink="http://www.w3.org/1999/xlink" width="766.79195" height="787.31066" viewBox="0,0,766.79195,787.31066"><defs><linearGradient x1="-600.4206" y1="-259.59262" x2="-644.76099" y2="1441.27503" gradientUnits="userSpaceOnUse" id="color-1"><stop offset="0" stop-color="#001966"/><stop offset="1" stop-color="#006666"/></linearGradient><linearGradient x1="231.4342" y1="84.62733" x2="231.4342" y2="669.65374" gradientUnits="userSpaceOnUse" id="color-2"><stop offset="0" stop-color="#edf3f8"/><stop offset="1" stop-color="#cedee9"/></linearGradient><linearGradient x1="226.7213" y1="-60.56781" x2="393.1443" y2="-60.56781" gradientUnits="userSpaceOnUse" id="color-3"><stop offset="0" stop-color="#e2524b"/><stop offset="1" stop-color="#ff6767"/></linearGradient><linearGradient x1="311.2718" y1="320.82473" x2="311.2718" y2="400.79225" gradientUnits="userSpaceOnUse" id="color-4"><stop offset="0" stop-color="#ff4040"/><stop offset="1" stop-color="#c33131"/></linearGradient><linearGradient x1="168.07455" y1="334.0955" x2="168.07455" y2="649.75751" gradientUnits="userSpaceOnUse" id="color-5"><stop offset="0" stop-color="#edf3f8"/><stop offset="1" stop-color="#cedee9"/></linearGradient><linearGradient x1="151.33639" y1="430.89863" x2="151.33639" y2="675.0103" gradientUnits="userSpaceOnUse" id="color-6"><stop offset="0" stop-color="#ff6767"/><stop offset="1" stop-color="#e2524b"/></linearGradient><linearGradient x1="-101.73348" y1="632.92195" x2="-101.73348" y2="746.56023" gradientUnits="userSpaceOnUse" id="color-7"><stop offset="0" stop-color="#ff6767"/><stop offset="1" stop-color="#e2524b"/></linearGradient><linearGradient x1="-181.70102" y1="595.04276" x2="-17.55681" y2="595.04276" gradientUnits="userSpaceOnUse" id="color-8"><stop offset="0" stop-color="#e2524b"/><stop offset="1" stop-color="#ff6767"/></linearGradient><linearGradient x1="185.12715" y1="484.31236" x2="185.12715" y2="806.70797" gradientUnits="userSpaceOnUse" id="color-9"><stop offset="0" stop-color="#cedee9"/><stop offset="1" stop-color="#b0c6d8"/></linearGradient><linearGradient x1="-860.36212" y1="644.80335" x2="-860.36212" y2="758.44169" gradientUnits="userSpaceOnUse" id="color-10"><stop offset="0" stop-color="#ff6767"/><stop offset="1" stop-color="#e2524b"/></linearGradient><linearGradient x1="202.94928" y1="511.04556" x2="202.94928" y2="776.49629" gradientUnits="userSpaceOnUse" id="color-11"><stop offset="0" stop-color="#008be8"/><stop offset="1" stop-color="#7fb1d9"/></linearGradient><linearGradient x1="350.17663" y1="267.93421" x2="350.17663" y2="319.08684" gradientUnits="userSpaceOnUse" id="color-12"><stop offset="0" stop-color="#ffffff"/><stop offset="1" stop-color="#c7c7c7"/></linearGradient><linearGradient x1="323.63167" y1="289.62233" x2="323.63167" y2="322.58157" gradientUnits="userSpaceOnUse" id="color-13"><stop offset="0" stop-color="#18c100"/><stop offset="1" stop-color="#13a700"/></linearGradient><linearGradient x1="312.0446" y1="314.65612" x2="312.0446" y2="322.46693" gradientUnits="userSpaceOnUse" id="color-14"><stop offset="0" stop-color="#ffffff"/><stop offset="1" stop-color="#c2c2c2"/></linearGradient><linearGradient x1="379.64286" y1="285.09126" x2="379.64286" y2="324.34193" gradientUnits="userSpaceOnUse" id="color-15"><stop offset="0" stop-color="#18c100"/><stop offset="1" stop-color="#13a700"/></linearGradient><linearGradient x1="381.51273" y1="317.53012" x2="381.51273" y2="325.43257" gradientUnits="userSpaceOnUse" id="color-16"><stop offset="0" stop-color="#ffffff"/><stop offset="1" stop-color="#c2c2c2"/></linearGradient><linearGradient x1="391.05654" y1="316.01038" x2="391.05654" y2="324.73476" gradientUnits="userSpaceOnUse" id="color-17"><stop offset="0" stop-color="#ffffff"/><stop offset="1" stop-color="#c2c2c2"/></linearGradient><linearGradient x1="400.44374" y1="318.99117" x2="400.44374" y2="325.22963" gradientUnits="userSpaceOnUse" id="color-18"><stop offset="0" stop-color="#ffffff"/><stop offset="1" stop-color="#c2c2c2"/></linearGradient><linearGradient x1="386.83882" y1="256.56907" x2="386.83882" y2="288.49298" gradientUnits="userSpaceOnUse" id="color-19"><stop offset="0" stop-color="#18c100"/><stop offset="1" stop-color="#13a700"/></linearGradient><linearGradient x1="360.3865" y1="271.17994" x2="360.3865" y2="276.52449" gradientUnits="userSpaceOnUse" id="color-20"><stop offset="0" stop-color="#ffffff"/><stop offset="1" stop-color="#c2c2c2"/></linearGradient><linearGradient x1="362.87722" y1="280.39078" x2="362.87722" y2="285.73532" gradientUnits="userSpaceOnUse" id="color-21"><stop offset="0" stop-color="#ffffff"/><stop offset="1" stop-color="#c2c2c2"/></linearGradient><linearGradient x1="367.12809" y1="261.96913" x2="367.12809" y2="267.31369" gradientUnits="userSpaceOnUse" id="color-22"><stop offset="0" stop-color="#ffffff"/><stop offset="1" stop-color="#c2c2c2"/></linearGradient><linearGradient x1="316.72794" y1="265.90413" x2="316.72794" y2="290.81667" gradientUnits="userSpaceOnUse" id="color-23"><stop offset="0" stop-color="#18c100"/><stop offset="1" stop-color="#13a700"/></linearGradient><linearGradient x1="326.59995" y1="275.36669" x2="326.59995" y2="280.71125" gradientUnits="userSpaceOnUse" id="color-24"><stop offset="0" stop-color="#ffffff"/><stop offset="1" stop-color="#c2c2c2"/></linearGradient><linearGradient x1="324.29724" y1="284.57752" x2="324.29724" y2="289.92205" gradientUnits="userSpaceOnUse" id="color-25"><stop offset="0" stop-color="#ffffff"/><stop offset="1" stop-color="#c2c2c2"/></linearGradient><linearGradient x1="320.94784" y1="266.57452" x2="320.94784" y2="271.9191" gradientUnits="userSpaceOnUse" id="color-26"><stop offset="0" stop-color="#ffffff"/><stop offset="1" stop-color="#c2c2c2"/></linearGradient><linearGradient x1="339.43612" y1="204.75359" x2="377.98904" y2="204.75359" gradientUnits="userSpaceOnUse" id="color-27"><stop offset="0" stop-color="#fff700"/><stop offset="1" stop-color="#db9600"/></linearGradient><radialGradient cx="350.62755" cy="203.15751" r="2.98478" gradientUnits="userSpaceOnUse" id="color-28"><stop offset="0" stop-color="#ffffff"/><stop offset="1" stop-color="#5242ad"/></radialGradient><linearGradient x1="343.01146" y1="209.03074" x2="343.01146" y2="269.65069" gradientUnits="userSpaceOnUse" id="color-29"><stop offset="0" stop-color="#18c100"/><stop offset="1" stop-color="#13a700"/></linearGradient><linearGradient x1="-220.87956" y1="50.68717" x2="-220.87956" y2="163.70174" gradientUnits="userSpaceOnUse" id="color-30"><stop offset="0" stop-color="#000000"/><stop offset="1" stop-color="#000000" stop-opacity="0"/></linearGradient></defs><g transform="translate(195.8327,60.56781)"><g data-paper-data="{&quot;isPaintingLayer&quot;:true}" fill-rule="nonzero" stroke-linejoin="miter" stroke-miterlimit="10" stroke-dasharray="" stroke-dashoffset="0" style="mix-blend-mode: normal"><path d="M-10.40622,-28.97878l513.87967,-13.49958l-0.19916,421.92042l-0.78565,0.0954l-525.96351,-0.19887z" fill="url(#color-1)" stroke="#000000" stroke-width="2.39335" stroke-linecap="butt"/><path d="M92.65683,157.50005l-1.18814,-1.18814" data-paper-data="{&quot;origPos&quot;:null}" fill="none" stroke="#cccccc" stroke-width="2" stroke-linecap="round"/><path d="M-34.07832,533.74497l-1.18814,-1.18814" data-paper-data="{&quot;origPos&quot;:null}" fill="none" stroke="#cccccc" stroke-width="2" stroke-linecap="round"/><path d="M504.54609,450.57506l-1.18814,-1.18813" data-paper-data="{&quot;origPos&quot;:null}" fill="none" stroke="#cccccc" stroke-width="2" stroke-linecap="round"/><path d="M148.10348,553.54734l-1.18814,-1.18814" data-paper-data="{&quot;origPos&quot;:null}" fill="none" stroke="#cccccc" stroke-width="2" stroke-linecap="round"/><path d="M-144.97155,220.86761l-1.18814,-1.18814" data-paper-data="{&quot;origPos&quot;:null}" fill="none" stroke="#cccccc" stroke-width="2" stroke-linecap="round"/><path d="M30.08135,13.73485c56.2704,0 107.2615,15.97655 144.18499,41.78696c36.92349,25.81041 59.77938,61.45468 59.77938,100.79008c0,39.33541 -22.8559,74.97969 -59.77938,100.79008c-36.92349,25.81041 -87.91459,41.78696 -144.18499,41.78696c-56.2704,0 -107.2615,-15.97655 -144.18499,-41.78696c-36.92349,-25.81041 -59.77938,-61.45468 -59.77938,-100.79008c0,-39.33541 22.8559,-74.97968 59.77938,-100.79008c36.92349,-25.8104 87.91459,-41.78695 144.18499,-41.78695z" data-paper-data="{&quot;origPos&quot;:null}" fill="#718399" stroke="none" stroke-width="1" stroke-linecap="butt"/><path d="M283.55154,-49.63272c56.2704,0 107.2615,15.97655 144.18499,41.78696c36.92349,25.81041 59.77938,61.45467 59.77938,100.79008c0,39.33542 -22.8559,74.97969 -59.77938,100.79008c-36.92349,25.81041 -87.91458,41.78696 -144.18499,41.78696c-56.2704,0 -107.2615,-15.97655 -144.18499,-41.78696c-36.92349,-25.81041 -59.77938,-61.45468 -59.77938,-100.79008c0,-39.33541 22.8559,-74.97968 59.77938,-100.79008c36.92349,-25.81041 87.91459,-41.78696 144.18499,-41.78696z" data-paper-data="{&quot;origPos&quot;:null}" fill="#718399" stroke="none" stroke-width="1" stroke-linecap="butt"/><path d="M75.62681,75.12218c4.91891,0 9.37443,4.3288 12.59826,11.31904c3.2278,6.99023 5.22387,16.64192 5.22387,27.29558c0,10.65367 -1.99609,20.30535 -5.22387,27.29557c-3.22382,6.99023 -7.67936,11.31904 -12.59826,11.31904c-4.91891,0 -9.37443,-4.3288 -12.59826,-11.31903c-3.2278,-6.99023 -5.22387,-16.64191 -5.22387,-27.29557c0,-10.65367 1.99609,-20.30535 5.22387,-27.29557c3.22382,-6.99023 7.67936,-11.31903 12.59826,-11.31903z" data-paper-data="{&quot;origPos&quot;:null}" fill="#000000" stroke="none" stroke-width="1" stroke-linecap="butt"/><path d="M158.79674,73.14193c4.91891,0 9.37444,4.3288 12.59826,11.31904c3.22779,6.99023 5.22387,16.64192 5.22387,27.29558c0,10.65367 -1.99608,20.30535 -5.22387,27.29557c-3.22382,6.99023 -7.67935,11.31904 -12.59826,11.31904c-4.91891,0 -9.37443,-4.3288 -12.59826,-11.31903c-3.22779,-6.99023 -5.22387,-16.64191 -5.22387,-27.29557c0,-10.65367 1.99608,-20.30535 5.22387,-27.29558c3.22382,-6.99023 7.67935,-11.31903 12.59826,-11.31903z" data-paper-data="{&quot;origPos&quot;:null}" fill="#000000" stroke="none" stroke-width="1" stroke-linecap="butt"/><path d="M456.20455,328.79445c28.96122,-20.24459 66.57706,-34.43922 108.60674,-39.61975c-0.0667,30.14131 -0.14002,60.28233 -0.19243,90.42231c-5.57548,0.10932 -152.21375,22.04003 -165.3043,25.96849c7.23098,-29.72378 27.64924,-56.33108 56.88999,-76.77105z" data-paper-data="{&quot;origPos&quot;:null}" fill="#718399" stroke="none" stroke-width="1" stroke-linecap="butt"/><path d="M231.4342,84.62733h155.72661v585.02647h-155.72661z" data-paper-data="{&quot;origPos&quot;:null}" fill="url(#color-2)" stroke="none" stroke-width="1.11058" stroke-linecap="butt"/><path d="M226.7213,93.05309l81.0777,-153.6209l85.34529,153.62091z" data-paper-data="{&quot;origPos&quot;:null}" fill="url(#color-3)" stroke="none" stroke-width="1.06271" stroke-linecap="round"/><path d="M185.00715,320.82473h252.52929v79.96751h-252.52929z" data-paper-data="{&quot;origPos&quot;:null}" fill="url(#color-4)" stroke="none" stroke-width="1.06271" stroke-linecap="butt"/><path d="M184.90974,384.60148l63.13232,-50.50594h130.47344l54.71473,58.92352l4.2088,256.73847h-269.36447z" data-paper-data="{&quot;origPos&quot;:null}" fill="url(#color-5)" stroke="none" stroke-width="1.06271" stroke-linecap="round"/><path d="M227.09551,430.89863h168.35299l54.71473,244.1117h-298.82682z" data-paper-data="{&quot;origPos&quot;:null}" fill="url(#color-6)" stroke="none" stroke-width="1.06271" stroke-linecap="round"/><path d="M-76.48038,696.05422l155.72621,-63.13232h315.66201l101.01188,4.2088l68.62748,24.7822c0,12.32791 0,24.65582 0,36.98374c0,0.26715 0,0.53427 0,0.80142c-6.65142,-1.25679 -16.29315,7.27742 -24.14024,7.99866c-9.08173,0.83474 -18.22678,-0.75187 -27.34592,-0.87914c-37.17964,-0.51891 -69.84127,7.51164 -106.31054,12.55976c-27.38171,3.7902 -56.38502,3.878 -83.89353,5.31712c-52.74568,2.77608 -105.50797,1.92549 -158.31759,1.92549c-69.04821,0 -136.98832,0.10595 -205.7934,-7.33138c-1.54198,-0.16669 -25.38408,-3.13494 -44.11539,-5.45644z" data-paper-data="{&quot;origPos&quot;:null}" fill="url(#color-7)" stroke="none" stroke-width="1.06271" stroke-linecap="butt"/><path d="M-101.73348,595.04276l69.54661,125.18337c-3.02081,-0.29837 -6.0431,-0.61068 -9.0671,-0.93754c-2.52258,-0.27267 -64.72575,-8.04309 -66.60086,-8.2138c-17.81687,-1.62206 -35.7493,-1.77454 -53.60477,-2.86675z" data-paper-data="{&quot;origPos&quot;:null}" fill="url(#color-8)" stroke="none" stroke-width="1.06271" stroke-linecap="round"/><path d="M185.12715,590.417l115.74286,-106.10465l115.74246,106.10465v127.5178c-3.25998,0.49976 -6.54521,0.98355 -9.86192,1.44265c-27.38171,3.7902 -56.38501,3.87799 -83.89352,5.31711c-45.89064,2.4153 -91.79386,2.08533 -137.72987,1.95876z" data-paper-data="{&quot;origPos&quot;:null}" fill="url(#color-9)" stroke="none" stroke-width="1.26431" stroke-linecap="butt"/><path d="M-111.1915,703.7269l2.23053,7.2491c-22.86355,-2.00428 -45.91078,-1.67184 -68.73511,-4.09002c-6.11144,-0.64748 -12.12919,-1.91638 -18.13662,-3.26088c0.02405,-10.14046 0.06077,-20.28224 0.10538,-30.42508z" data-paper-data="{&quot;origPos&quot;:null}" fill="url(#color-10)" stroke="none" stroke-width="1.06271" stroke-linecap="butt"/><path d="M202.94928,598.4089l96.90344,-87.36333l96.90306,87.36333l0.81741,122.10109c-24.62715,2.69378 -50.26228,2.90522 -74.71618,4.18452c-39.95526,2.10291 -79.92007,2.12477 -119.90774,2.0117z" data-paper-data="{&quot;origPos&quot;:null}" fill="url(#color-11)" stroke="none" stroke-width="1.26431" stroke-linecap="round"/><path d="" data-paper-data="{&quot;origPos&quot;:null}" fill="#000000" stroke="none" stroke-width="1" stroke-linecap="butt"/><path d="" data-paper-data="{&quot;origPos&quot;:null}" fill="#000000" stroke="none" stroke-width="1" stroke-linecap="butt"/><g data-paper-data="{&quot;origPos&quot;:null}"><g data-paper-data="{&quot;origPos&quot;:null}"><path d="M226.35765,305.0285h8.83542v12.92579h-8.83542z" data-paper-data="{&quot;origPos&quot;:null}" fill="#c673f8" stroke="none" stroke-width="0.27541" stroke-linecap="butt"/><path d="M228.13988,315.09406c1.33507,-0.04278 2.62105,-0.24792 3.84482,0.18892c1.16279,0.41704 2.54381,0.98379 3.10897,2.204c0.50616,1.22774 0.54536,3.26065 -0.38178,4.02977c-1.23726,1.02537 -3.0456,0.10457 -4.58148,0.18892c-1.37111,-0.00118 -2.75729,0.18892 -4.14463,0.06298c-1.01229,-0.09188 -2.05865,-0.31328 -2.95411,-0.87012c-0.87131,-0.54259 -2.11807,-1.46576 -2.11807,-2.404c0,-0.93824 0.80913,-1.78816 2.11807,-2.40401c1.30775,-0.61467 3.38898,-0.92557 5.10822,-0.99646z" data-paper-data="{&quot;origPos&quot;:null}" fill="#c673f8" stroke="none" stroke-width="0.29746" stroke-linecap="round"/><path d="M218.84108,319.91159l2.18143,-1.9632l0.65466,1.90896z" data-paper-data="{&quot;origPos&quot;:null}" fill="#ffffff" stroke="none" stroke-width="0.27541" stroke-linecap="round"/><path d="M220.78924,322.60865l0.75249,-2.83688l1.59212,1.24003z" data-paper-data="{&quot;origPos&quot;:null}" fill="#ffffff" stroke="none" stroke-width="0.27541" stroke-linecap="round"/><path d="M222.96669,323.96155l-0.0998,-2.93312l2.14143,0.58813z" data-paper-data="{&quot;origPos&quot;:null}" fill="#ffffff" stroke="none" stroke-width="0.27541" stroke-linecap="round"/><path d="M237.05091,305.62263h8.83541v12.92579h-8.83541z" data-paper-data="{&quot;origPos&quot;:null}" fill="#c673f8" stroke="none" stroke-width="0.27541" stroke-linecap="butt"/><path d="M238.83315,315.68816c1.33507,-0.04278 2.62105,-0.24792 3.84482,0.18892c1.16279,0.41704 2.54382,0.98379 3.10898,2.204c0.50616,1.22774 0.54536,3.26065 -0.38179,4.02977c-1.23726,1.02537 -3.0456,0.10457 -4.58148,0.18892c-1.37111,-0.00118 -2.75729,0.18892 -4.14463,0.06299c-1.01229,-0.09188 -2.05865,-0.31328 -2.95411,-0.87013c-0.87131,-0.54259 -2.11807,-1.46576 -2.11807,-2.404c0,-0.93824 0.80913,-1.78816 2.11807,-2.404c1.30775,-0.61467 3.38898,-0.92557 5.10822,-0.99646z" data-paper-data="{&quot;origPos&quot;:null}" fill="#c673f8" stroke="none" stroke-width="0.29746" stroke-linecap="round"/><path d="M229.73238,320.50561l2.18142,-1.9632l0.65466,1.90895z" data-paper-data="{&quot;origPos&quot;:null}" fill="#ffffff" stroke="none" stroke-width="0.27541" stroke-linecap="round"/><path d="M231.48251,323.00471l0.75249,-2.83689l1.59212,1.24003z" data-paper-data="{&quot;origPos&quot;:null}" fill="#ffffff" stroke="none" stroke-width="0.27541" stroke-linecap="round"/><path d="M233.65997,324.55564l-0.0998,-2.93313l2.14143,0.58814z" data-paper-data="{&quot;origPos&quot;:null}" fill="#ffffff" stroke="none" stroke-width="0.27541" stroke-linecap="round"/><path d="M214.3689,293.13912c1.33627,0.06099 2.64838,1.73627 3.81751,1.25428c2.44797,-1.01428 4.16562,-5.01 6.10863,-5.18109c1.1113,0.08951 0.61506,3.62345 0,5.01753c-1.13229,2.56759 -3.1569,4.88247 -5.19337,6.64172c-1.12003,0.96753 -2.50342,1.70261 -4.10583,1.70261c-1.60201,0 -3.05391,-0.65109 -4.10542,-1.70261c-1.0515,-1.0515 -1.59251,-2.62896 -1.70261,-4.10583c-0.07327,-0.99248 0.50812,-2.02103 1.36319,-2.53589c1.03091,-0.80516 2.45431,-1.15092 3.81788,-1.09072z" data-paper-data="{&quot;origPos&quot;:null}" fill="#c774f9" stroke="none" stroke-width="0.27541" stroke-linecap="butt"/><path d="M211.47815,295.75705l-1.96321,1.03606" data-paper-data="{&quot;origPos&quot;:null}" fill="none" stroke="#794699" stroke-width="0.27541" stroke-linecap="round"/><path d="M210.37597,299.81811l2.29033,-1.09072" data-paper-data="{&quot;origPos&quot;:null}" fill="none" stroke="#794699" stroke-width="0.27541" stroke-linecap="round"/><path d="M211.96016,301.40236l2.29033,-1.09072" data-paper-data="{&quot;origPos&quot;:null}" fill="none" stroke="#794699" stroke-width="0.27541" stroke-linecap="round"/><path d="M236.1016,276.04856c3.94977,0 7.52886,1.95567 10.12019,5.11455c2.59173,3.16006 4.19652,7.52292 4.19652,12.33767c0,4.81474 -1.60478,9.17761 -4.19652,12.33767c-2.59133,3.15888 -6.17042,5.11455 -10.12019,5.11455c-3.94938,0 -7.52846,-1.95567 -10.12019,-5.11455c-2.59133,-3.16006 -4.19612,-7.52292 -4.19612,-12.33767c0,-4.81474 1.60478,-9.17761 4.19612,-12.33767c2.59173,-3.15888 6.17082,-5.11455 10.12019,-5.11455z" data-paper-data="{&quot;origPos&quot;:null}" fill="#c774f9" stroke="none" stroke-width="0.27541" stroke-linecap="butt"/><path d="M226.76281,274.15745l-5.73279,-1.33428l-8.0057,-23.86938l14.82565,8.89522z" data-paper-data="{&quot;origPos&quot;:null}" fill="#c774f9" stroke="none" stroke-width="0.24956" stroke-linecap="round"/><path d="M224.14335,269.01795c0,0 -0.95883,-0.86575 -1.33428,-1.38379c-0.50219,-0.6919 -0.86457,-1.47963 -1.28477,-2.22381c-0.36953,-0.65428 -0.79565,-1.28398 -1.08714,-1.97667c-0.36991,-0.87804 -0.65428,-1.7949 -0.88953,-2.71807c-0.22733,-0.8915 -0.49427,-2.71806 -0.49427,-2.71806" data-paper-data="{&quot;origPos&quot;:null}" fill="none" stroke="#7a4799" stroke-width="0.24956" stroke-linecap="round"/><path d="M221.82094,261.20947c0,0 0.43367,0.2919 0.59289,0.49427c0.20952,0.26693 0.43883,0.55567 0.49427,0.88952c0.08079,0.48832 -0.09901,1.48281 -0.09901,1.48281" data-paper-data="{&quot;origPos&quot;:null}" fill="none" stroke="#7a4799" stroke-width="0.24956" stroke-linecap="round"/><path d="M233.0465,262.89188c5.57595,0 10.62911,1.22379 14.28859,3.20126c3.65868,1.97707 5.92369,4.70663 5.92369,7.72054c0,3.01352 -2.26499,5.74309 -5.92369,7.72015c-3.65948,1.97746 -8.71264,3.20125 -14.28859,3.20125c-5.57636,0 -10.62952,-1.22378 -14.28899,-3.20125c-3.65829,-1.97707 -5.92329,-4.70663 -5.92329,-7.72015c0,-3.01391 2.26499,-5.74347 5.92329,-7.72054c3.65948,-1.97746 8.71264,-3.20126 14.289,-3.20126z" data-paper-data="{&quot;origPos&quot;:null}" fill="#c774f9" stroke="none" stroke-width="0.24689" stroke-linecap="butt"/><path d="M237.38362,250.21085c4.55336,0 8.68017,1.84914 11.66875,4.83732c2.98779,2.98857 4.28166,7.56608 4.83732,11.66874c0.44872,3.32085 0.55646,7.41123 -1.97706,9.9293c-3.57987,3.59493 -9.06712,6.20764 -14.529,6.57637c-4.29156,0.28871 -8.67978,-1.84915 -11.66874,-4.83732c-2.98779,-2.98818 -4.83693,-7.11499 -4.83693,-11.66835c0,-4.55375 1.84914,-8.68017 4.83693,-11.66874c2.98897,-2.98818 7.11538,-4.83732 11.66874,-4.83732z" data-paper-data="{&quot;origPos&quot;:null}" fill="#c774f9" stroke="none" stroke-width="0.23388" stroke-linecap="round"/><path d="M246.57824,259.03716l14.82564,-8.89522l-8.0057,23.86938l-5.73279,1.33428z" data-paper-data="{&quot;origPos&quot;:null}" fill="#c774f9" stroke="none" stroke-width="0.24956" stroke-linecap="round"/><path d="M255.37485,259.18568c0,0 -0.26693,1.82657 -0.49427,2.71806c-0.23525,0.92318 -0.5196,1.84004 -0.88952,2.71807c-0.29149,0.69269 -0.71765,1.32241 -1.08715,1.97667c-0.42021,0.74417 -0.78259,1.53192 -1.28477,2.22381c-0.37546,0.51802 -1.33428,1.3838 -1.33428,1.3838" data-paper-data="{&quot;origPos&quot;:null}" fill="none" stroke="#7a4799" stroke-width="0.24956" stroke-linecap="round"/><path d="M251.61913,265.26421c0,0 -0.17981,-0.99448 -0.09901,-1.48281c0.05544,-0.33386 0.28476,-0.62259 0.49427,-0.88952c0.15921,-0.20237 0.59289,-0.49427 0.59289,-0.49427" data-paper-data="{&quot;origPos&quot;:null}" fill="none" stroke="#7a4799" stroke-width="0.24956" stroke-linecap="round"/><path d="M228.00322,253.91588c1.66775,0 3.17867,1.0717 4.27256,2.80164c1.09428,1.73073 1.77112,4.12087 1.77112,6.75816c0,2.63727 -0.67685,5.02742 -1.77112,6.75815c-1.09389,1.72993 -2.60481,2.80165 -4.27256,2.80165c-1.66735,0 -3.17867,-1.07171 -4.27217,-2.80165c-1.09428,-1.73073 -1.77112,-4.12086 -1.77112,-6.75815c0,-2.63727 0.67685,-5.02743 1.77112,-6.75816c1.09348,-1.72993 2.6048,-2.80164 4.27217,-2.80164z" data-paper-data="{&quot;origPos&quot;:null}" fill="#ffffff" stroke="none" stroke-width="0.22196" stroke-linecap="butt"/><path d="M235.11307,275.24653c0,0 -0.7216,0.18496 -1.08755,0.24713c-0.40793,0.06931 -0.821,0.16792 -1.23528,0.14813c-0.67604,-0.03446 -1.51013,0.00713 -2.1743,-0.34575c-0.41625,-0.2412 -0.64555,-0.76002 -0.79091,-1.28478c-0.08673,-0.33625 0.12276,-0.72079 0.34615,-0.98853c0.21625,-0.25981 0.67091,-0.23525 0.88952,-0.49427c0.38616,-0.46258 0.63131,-1.06735 0.88953,-1.63053c0.43288,-0.94101 1.48241,-3.26185 1.48241,-3.26185" data-paper-data="{&quot;origPos&quot;:null}" fill="none" stroke="#784598" stroke-width="0.24956" stroke-linecap="round"/><path d="M238.89453,253.71784c1.66775,0 3.17867,1.07171 4.27256,2.80165c1.09428,1.73073 1.77112,4.12086 1.77112,6.75816c0,2.63727 -0.67685,5.02743 -1.77112,6.75816c-1.09389,1.72993 -2.60481,2.80164 -4.27256,2.80164c-1.66735,0 -3.17868,-1.0717 -4.27217,-2.80164c-1.09428,-1.73073 -1.77112,-4.12087 -1.77112,-6.75816c0,-2.63727 0.67685,-5.02743 1.77112,-6.75816c1.09348,-1.72993 2.60481,-2.80165 4.27217,-2.80165z" data-paper-data="{&quot;origPos&quot;:null}" fill="#ffffff" stroke="none" stroke-width="0.22196" stroke-linecap="butt"/><path d="M236.74359,252.61287l-3.70621,6.12805l-3.55808,-5.73279" data-paper-data="{&quot;origPos&quot;:null}" fill="none" stroke="#794699" stroke-width="0.24956" stroke-linecap="round"/><path d="M225.1303,265.11566c0.27287,0 0.52,0.19365 0.69863,0.50733c0.17901,0.31328 0.28991,0.74497 0.28991,1.22261c0,0.47724 -0.11091,0.90933 -0.28991,1.2226c-0.17863,0.31328 -0.42575,0.50695 -0.69863,0.50695c-0.27287,0 -0.52001,-0.19366 -0.69863,-0.50695c-0.17901,-0.31328 -0.28991,-0.74536 -0.28991,-1.2226c0,-0.47763 0.1109,-0.90933 0.28991,-1.22261c0.17863,-0.31367 0.42575,-0.50733 0.69863,-0.50733z" data-paper-data="{&quot;origPos&quot;:null}" fill="#000000" stroke="none" stroke-width="0.24956" stroke-linecap="butt"/><path d="M235.62556,265.11566c0.27287,0 0.52,0.19365 0.69863,0.50733c0.17901,0.31328 0.28991,0.74497 0.28991,1.22261c0,0.47724 -0.1109,0.90933 -0.28991,1.2226c-0.17863,0.31328 -0.42574,0.50695 -0.69863,0.50695c-0.27287,0 -0.52001,-0.19366 -0.69864,-0.50695c-0.17901,-0.31328 -0.2899,-0.74536 -0.2899,-1.2226c0,-0.47763 0.1109,-0.90933 0.2899,-1.22261c0.17863,-0.31367 0.42575,-0.50733 0.69864,-0.50733z" data-paper-data="{&quot;origPos&quot;:null}" fill="#000000" stroke="none" stroke-width="0.24956" stroke-linecap="butt"/><path d="M247.36876,276.13567c0,0 -2.24558,1.76043 -3.45947,2.47093c-1.84201,0.99051 -3.7379,2.00956 -5.68288,2.61946c-2.64798,0.8321 -5.3807,1.8321 -8.15421,1.72953c-2.28994,-0.08595 -4.35493,-1.25151 -6.42428,-2.07568c-1.60122,-0.74615 -3.13234,-1.68914 -4.54662,-2.61907c-1.07328,-0.70575 -2.96521,-2.47093 -2.96521,-2.47093" data-paper-data="{&quot;origPos&quot;:null}" fill="none" stroke="#794699" stroke-width="0.24956" stroke-linecap="round"/><path d="M244.35444,278.40821l0.84001,-4.94189l2.47093,2.37194z" data-paper-data="{&quot;origPos&quot;:null}" fill="#ffffff" stroke="none" stroke-width="0.24956" stroke-linecap="round"/><path d="M216.06954,275.44218l2.47093,-2.37194l0.84001,4.94188z" data-paper-data="{&quot;origPos&quot;:null}" fill="#ffffff" stroke="none" stroke-width="0.24956" stroke-linecap="round"/><path d="M238.32977,291.15889c1.33627,0.06099 2.64838,1.73627 3.81751,1.25428c2.44797,-1.01428 4.16562,-5.01 6.10863,-5.18109c1.1113,0.08951 0.61506,3.62345 0,5.01753c-1.13229,2.56759 -3.15691,4.88247 -5.19337,6.64172c-1.12003,0.96753 -2.50342,1.70261 -4.10582,1.70261c-1.60201,0 -3.05391,-0.65109 -4.10542,-1.70261c-1.0515,-1.0515 -1.59251,-2.62896 -1.70261,-4.10583c-0.07327,-0.99248 0.50812,-2.02103 1.36319,-2.53589c1.03091,-0.80516 2.45431,-1.15092 3.81788,-1.09072z" data-paper-data="{&quot;origPos&quot;:null}" fill="#c774f9" stroke="#b16ee7" stroke-width="0.27541" stroke-linecap="butt"/><path d="M235.43902,293.77677l-2.29033,1.09072" data-paper-data="{&quot;origPos&quot;:null}" fill="none" stroke="#794699" stroke-width="0.27541" stroke-linecap="round"/><path d="M236.82518,296.74716l-2.61787,1.25428" data-paper-data="{&quot;origPos&quot;:null}" fill="none" stroke="#794699" stroke-width="0.27541" stroke-linecap="round"/><path d="M238.40939,298.33135l-2.45391,1.36319" data-paper-data="{&quot;origPos&quot;:null}" fill="none" stroke="#794699" stroke-width="0.27541" stroke-linecap="round"/></g><g data-paper-data="{&quot;origPos&quot;:null}"><path d="M407.39685,320.96627l-11.51353,1.74447l-68.73234,-1.74447l-7.6757,-0.3489l-3.48895,-16.39807l2.09337,-21.98039l1.39558,-10.81575l63.49892,-0.69779z" data-paper-data="{&quot;origPos&quot;:null}" fill="#9c5a00" stroke="#9c5a00" stroke-width="0" stroke-linecap="round"/><path d="M380.53194,285.72785c1.92953,3.76494 2.31167,7.23025 2.79116,10.46685c0.47949,3.2366 0.38594,5.54333 0,8.37349c-0.38594,2.83015 -0.74475,4.75268 -2.09338,6.9779c-1.34862,2.22522 -2.87138,2.85801 -4.88452,4.53563c-2.01315,1.67762 -2.14815,2.20034 -3.48895,2.44227c-1.60741,0.29003 -12.798,0.88018 -20.23592,0.3489c-7.4379,-0.53128 -14.10742,-1.88882 -18.84034,-3.14006c-4.73292,-1.25123 -8.89465,-2.84764 -11.51353,-4.88454c-2.61888,-2.0369 -4.40765,-5.03477 -4.60541,-6.48945c-0.23822,-1.75224 -1.84444,-3.31287 -0.27912,-10.95531c1.56531,-7.64244 4.69079,-15.38934 6.62901,-18.84034c1.93823,-3.451 7.6757,-6.62901 7.6757,-6.62901l37.33178,0.34889c0,0 9.58401,13.67982 11.51354,17.44476z" data-paper-data="{&quot;origPos&quot;:null}" fill="url(#color-12)" stroke="#ffffff" stroke-width="0" stroke-linecap="round"/><path d="M393.11895,246.62557l7.06513,4.97175l1.8317,29.56886l9.1585,28.78385l-11.77522,0.52334l-23.28875,-50.50257z" data-paper-data="{&quot;origPos&quot;:null}" fill="#5242ad" stroke="#000000" stroke-width="0" stroke-linecap="round"/><g data-paper-data="{&quot;origPos&quot;:null}" stroke="#000000" stroke-width="0"><path d="M367.99849,260.75583h-40.55906l29.56887,-49.71756l36.63398,13.86859z" data-paper-data="{&quot;origPos&quot;:null}" fill="#536265" stroke-linecap="round"/><path d="M360.89317,217.13935l-4.88454,1.74448l-21.2826,49.892l-14.47914,-2.00614c0,0 2.2138,-11.82427 4.63565,-16.04274c7.26554,-12.65543 25.54378,-43.00778 25.54378,-43.00778l9.42017,0.34891l10.46686,0.3489l21.2826,9.07127l8.37349,3.14006l2.09337,4.18673l-0.69779,10.11795l-3.14006,6.28011l-3.48894,6.28011l-7.42636,5.16617c-0.91748,-0.68923 -1.83498,-1.37846 -2.75245,-2.06769c-1.53391,-1.1523 -3.03668,-2.3293 -4.52292,-3.54243c-1.16712,-0.95266 -2.48312,-2.28094 -3.81156,-2.99332l11.88428,-12.61188l1.04669,-2.09338l-2.09337,-2.44227l-18.66589,-9.07127z" data-paper-data="{&quot;origPos&quot;:null}" fill="#f6e000" stroke-linecap="butt"/></g><path d="M401.47917,297.12153l0.84861,0.07604c1.90744,2.72492 3.98593,5.38823 6.21224,7.8619c3.77127,4.28437 9.99212,4.83691 13.27058,9.69713c2.13984,3.17225 -0.25464,6.7083 -3.02292,8.21889c-4.48728,2.44862 -12.83263,0.21544 -16.46637,-2.75761c-4.33494,-4.21972 -6.13303,-11.01015 -6.58051,-16.97365c-0.17718,-2.36134 0.16476,-4.67036 -0.37604,-7.06772c-0.96266,-4.26749 -6.1368,-4.35589 -7.18715,-8.60478c-0.21017,-0.8502 1.83502,-4.05291 1.83688,-4.9287c0.00302,-1.42341 -0.53096,-3.13612 -0.87333,-4.50562c-0.93807,-4.01372 -6.56681,-8.85712 -6.35159,-13.00844c0.28425,-5.48284 8.0512,-10.71874 13.20905,-12.73367c1.8589,-0.72618 4.55964,-0.15296 6.47951,-0.00528c0,0 2.60901,0.20069 2.40831,2.80969c-0.20069,2.60901 -2.80971,2.4083 -2.80971,2.4083c-1.57954,-0.12151 -4.26322,1.16336 -5.81903,1.82643c-1.09017,0.46463 -2.86144,1.35777 -3.71217,2.43264c-0.60525,0.76471 -2.66471,2.66674 -2.85619,3.63525c-0.04374,0.22122 0.58612,-0.16832 0.67538,0.03877c0.46753,1.08469 0.45534,2.34077 0.94786,3.41434c1.16932,2.54885 2.19828,5.2015 2.90573,7.91264c0.38196,1.52785 0.95638,3.32952 0.95838,4.91455c0.00178,1.42048 2.78547,5.73401 3.14522,7.10819c0.0643,0.24565 1.65668,1.59878 2.36387,3.4321c0.57306,1.48561 0.75426,4.79507 0.75426,4.79507l0.04376,-0.03967c0,0 -0.00123,0.01518 -0.00467,0.04316z" data-paper-data="{&quot;origPos&quot;:null}" fill="#f6e000" stroke="none" stroke-width="0.5" stroke-linecap="butt"/><g data-paper-data="{&quot;origPos&quot;:null}" stroke="#000000" stroke-width="0" stroke-linecap="round"><path d="M345.15244,316.48724c0.32599,2.39065 5.43976,3.86826 -5.23343,5.23343c-10.6732,1.36518 -27.56272,0.69779 -27.56272,0.69779l-3.14006,-1.39558c0,0 -1.45871,-2.10287 0,-4.18674c1.45871,-2.08388 4.88453,-2.79116 4.88453,-2.79116c0,0 -8.98734,-4.2373 -10.46685,-5.58232c-1.47951,-1.34502 -1.60055,-2.22171 -1.04669,-4.88454c0.55387,-2.66283 0.45705,-3.16098 3.3145,-6.01844c2.85745,-2.85745 8.54793,-5.84399 8.54793,-5.84399c0,0 4.13027,-2.09337 6.97791,-2.09337c2.84764,0 4.45795,0.93554 6.97791,2.09337c2.51996,1.15782 3.44651,1.35315 5.93121,3.83785c2.48469,2.48469 5.23343,7.3268 5.23343,7.3268c0,0 1.12158,6.68294 1.74448,8.02459c0.62291,1.34164 2.46516,-0.64617 2.79117,1.74448z" data-paper-data="{&quot;origPos&quot;:null}" fill="url(#color-13)"/><path d="M318.94928,322.11807c-0.39823,0.03057 -15.70029,0.3489 -15.70029,0.3489c0,0 2.84028,-3.98126 5.23343,-5.93123c2.39314,-1.94995 4.18674,-1.74448 4.18674,-1.74448c0,0 2.96167,-0.4723 4.53563,0.3489c1.57397,0.82121 2.78335,1.92288 3.48895,3.83785c0.7056,1.91496 -1.34625,3.10948 -1.74447,3.14006z" data-paper-data="{&quot;origPos&quot;:null}" fill="url(#color-14)"/></g><g data-paper-data="{&quot;origPos&quot;:null}" stroke-width="0" stroke-linecap="round"><path d="M386.57716,287.44629c0,0 3.99768,3.67162 6.28011,6.28012c2.28243,2.6085 2.4812,2.23692 2.87839,4.18673c0.39718,1.94982 0.89697,6.16345 0,9.94351c-0.89697,3.78006 -3.6634,5.4951 -3.6634,5.4951l7.3268,5.75678v5.23343h-32.44725l-5.75678,-1.04669l-1.30836,-3.14006l1.8317,-3.14006l3.40172,-2.61671c0,0 -0.8347,-1.63493 -1.4828,-2.35503c-0.6481,-0.72012 -2.51436,-5.71353 -1.91893,-9.1585c0.59543,-3.44497 2.47419,-7.66112 4.71008,-12.29855c2.2359,-4.63744 2.35504,-2.35504 2.35504,-2.35504l10.72853,-3.14006z" data-paper-data="{&quot;origPos&quot;:null}" fill="url(#color-15)" stroke="#18c100"/><path d="M381.75043,317.75687c4.11625,0.52907 8.02459,6.97791 8.02459,6.97791l-2.79116,0.69779l-13.60692,-0.69779c0,0 -0.28461,-1.72391 0,-2.79117c0.2846,-1.06725 0.60348,-1.65016 1.39558,-2.44227c0.7921,-0.7921 0.50707,-0.91177 2.44227,-1.39558c1.9352,-0.48379 0.86535,-0.82064 4.53564,-0.3489z" data-paper-data="{&quot;origPos&quot;:null}" fill="url(#color-16)" stroke="#000000"/><path d="M391.1706,316.71019c1.42567,0.36962 3.14006,2.09337 3.14006,2.09337l4.88452,5.58231l-2.09337,0.3489h-12.56023c0,0 -1.25151,-2.08928 -1.39558,-2.44227c-0.14407,-0.35297 0,-0.23535 0,-0.9769c0,-0.74154 -0.51329,-0.35653 0,-1.81426c0.51329,-1.45772 -0.57395,-2.33364 1.74448,-3.14006c2.31843,-0.80642 4.85444,-0.02072 6.28012,0.34889z" data-paper-data="{&quot;origPos&quot;:null}" fill="url(#color-17)" stroke="#000000"/><path d="M396.40402,319.15245c1.18575,-0.20209 1.69846,-0.22762 3.14006,0c1.4416,0.22762 2.42473,0.10071 3.48895,1.04669c1.06421,0.94597 2.79116,4.53564 2.79116,4.53564c0,0 -5.55973,1.31851 -8.37349,-0.3489c-2.81375,-1.6674 -3.11115,-4.88157 -1.04668,-5.23343z" data-paper-data="{&quot;origPos&quot;:null}" fill="url(#color-18)" stroke="#000000"/></g><g data-paper-data="{&quot;origPos&quot;:null}"><path d="M384.26915,255.51783l-4.18673,8.02459l-9.76906,2.09338l-3.33942,0.54826l-5.38296,3.63847l-6.97791,4.53563l-4.88453,5.93122l-1.04669,2.09338l-2.34258,2.09337c0,0 -0.06514,1.56414 -0.44859,2.79117c-0.38344,1.22701 -0.72802,1.74057 -1.2959,3.09022c-0.42996,1.02188 -1.43327,1.64824 -2.89084,2.4921c-1.45757,0.84385 -4.40358,1.01055 -4.54237,0.98741c-0.41638,-0.0694 -2.51403,-0.25421 -3.83112,-0.63852c-1.3171,-0.38431 -1.72579,0.01869 -3.14006,-1.39558c-1.41426,-1.41427 -2.05511,-2.31641 -2.09338,-3.83784c-0.13693,-5.44471 0,-13.95581 0,-13.95581l-10.11795,-0.34889l-4.53563,-2.44226l3.14006,-3.83785l3.83784,-0.69779l0.43612,-3.40172l13.69413,5.844l0.52334,5.23343l6.97791,1.39558l4.53563,0.34889l4.88454,-5.23343l5.23343,-4.53563l8.02459,-4.18674l0.34889,-4.18674l5.93123,-8.37348l13.21202,-13.76994c1.33886,0.67328 9.3511,10.22267 10.22256,10.87732z" data-paper-data="{&quot;origPos&quot;:null}" fill="#f6e000" stroke="#000000" stroke-width="0" stroke-linecap="butt"/><g data-paper-data="{&quot;origPos&quot;:null}"><path d="M341.4345,285.21348c0,2.89034 -2.67112,5.23342 -5.96611,5.23342c-3.29498,0 -5.96611,-2.34309 -5.96611,-5.23342c0,-2.89033 2.67111,-5.23343 5.96611,-5.23343c3.29498,0 5.96611,2.34309 5.96611,5.23343z" data-paper-data="{&quot;origPos&quot;:null}" fill="#ca576f" stroke="none" stroke-width="0" stroke-linecap="butt"/><path d="M333.27037,286.4695l-5.02409,-2.51205l5.6521,-1.88404l3.14006,-6.48945l0.20933,7.11746l8.37349,3.34939l-7.95481,1.46536l-2.30271,5.86144z" data-paper-data="{&quot;origPos&quot;:null}" fill="#d1290f" stroke="#d1290f" stroke-width="0.5" stroke-linecap="round"/></g></g><g data-paper-data="{&quot;origPos&quot;:null}" stroke-width="0" stroke-linecap="round"><path d="M404.63246,256.56907l4.18674,2.09338l2.35504,2.09338l0.52334,2.87839l0.26167,3.6634l-1.30836,4.18674l-2.87839,4.44842l-4.18673,3.6634l-3.6634,2.09337l-3.92507,0.52334h-6.54179l-1.57002,4.71009l-2.61671,1.30836l-8.89683,0.26168l-9.42017,-0.52334l-2.09338,-1.8317l-1.57002,-2.35504v-1.57003v-1.8317l1.04669,-1.57003l-2.35504,-2.87839l-0.26167,-3.14006l0.78501,-1.8317l2.35503,-3.14006h2.61671v-3.14006l3.40172,-2.87839l2.61671,-1.30836l3.14006,0.52334l3.6634,2.09338l2.61671,4.97175l18.57867,-11.25186z" data-paper-data="{&quot;origPos&quot;:null}" fill="url(#color-19)" stroke="#18c100"/><path d="M362.62374,271.28406c1.28163,0.32316 1.46677,0.6274 1.585,1.46536c0.11822,0.83796 0.13034,2.39155 -0.90572,3.34939c-1.03605,0.95784 -2.71715,0 -2.71715,0l-4.07572,-0.83735l2.71714,-3.76807c0,0 2.11479,-0.53249 3.39642,-0.20933z" data-paper-data="{&quot;origPos&quot;:null,&quot;index&quot;:null}" fill="url(#color-20)" stroke="#000000"/><path d="M365.11444,280.49485c1.28163,0.32316 1.46679,0.62739 1.58501,1.46536c0.11822,0.83796 0.13033,2.39156 -0.90572,3.34939c-1.03605,0.95784 -2.71714,0 -2.71714,0l-4.07572,-0.83735l2.71714,-3.76806c0,0 2.11479,-0.5325 3.39643,-0.20934z" data-paper-data="{&quot;origPos&quot;:null,&quot;index&quot;:null}" fill="url(#color-21)" stroke="#000000"/><path d="M369.36533,262.07322c1.28163,0.32316 1.46677,0.62739 1.585,1.46536c0.11822,0.83796 0.13034,2.39155 -0.90572,3.34939c-1.03605,0.95784 -2.71715,0 -2.71715,0l-4.07572,-0.83735l2.71715,-3.76807c0,0 2.11479,-0.53249 3.39643,-0.20933z" data-paper-data="{&quot;origPos&quot;:null,&quot;index&quot;:null}" fill="url(#color-22)" stroke="#000000"/></g><g data-paper-data="{&quot;origPos&quot;:null}" stroke-width="0" stroke-linecap="round"><path d="M308.04035,271.59663l2.83283,-4.10578l3.4509,-1.45766l2.8234,-0.12904l10.54171,3.52363l-3.70501,3.84893l1.74372,3.01725l0.49817,1.69776l-0.56296,2.74033l-2.38064,2.28815l0.75652,1.49478l-0.35999,2.99869l-1.63323,1.90987l-2.03919,1.39315l-8.35946,-0.53555l-5.36855,-0.80523c0.06342,-1.44853 -0.10399,-2.92767 -0.51183,-4.30947c0.88029,-4.58477 1.29635,-9.24631 1.87566,-13.88116z" data-paper-data="{&quot;origPos&quot;:null,&quot;index&quot;:null,&quot;origRot&quot;:0}" fill="url(#color-23)" stroke="#18c100"/><path d="M327.67168,275.68012l2.51205,3.76806l-3.76806,0.83735c0,0 -1.55421,0.95784 -2.51205,0c-0.95785,-0.95785 -0.94664,-2.51143 -0.83735,-3.34939c0.10931,-0.83795 0.28047,-1.14221 1.46536,-1.46536c1.18489,-0.32316 3.14006,0.20934 3.14006,0.20934z" data-paper-data="{&quot;origPos&quot;:null}" fill="url(#color-24)" stroke="#000000"/><path d="M325.36895,284.89097l2.51205,3.76806l-3.76806,0.83735c0,0 -1.5542,0.95785 -2.51205,0c-0.95785,-0.95785 -0.94664,-2.51143 -0.83735,-3.34939c0.10929,-0.83796 0.28047,-1.1422 1.46536,-1.46536c1.18489,-0.32316 3.14006,0.20934 3.14006,0.20934z" data-paper-data="{&quot;origPos&quot;:null}" fill="url(#color-25)" stroke="#000000"/><path d="M322.01957,266.88795l2.51205,3.76806l-3.76806,0.83735c0,0 -1.5542,0.95784 -2.51205,0c-0.95785,-0.95785 -0.94664,-2.51142 -0.83735,-3.34938c0.10929,-0.83796 0.28047,-1.14221 1.46536,-1.46536c1.18489,-0.32316 3.14006,0.20934 3.14006,0.20934z" data-paper-data="{&quot;origPos&quot;:null}" fill="url(#color-26)" stroke="#000000"/></g><g data-paper-data="{&quot;origPos&quot;:null}"><path d="M342.40173,208.59144v-10.46685l-1.57003,-0.17443l-0.87223,-0.69779l-0.52333,-1.04669v-1.57003l1.04668,-1.22112l1.22114,-0.69779l1.91892,0.34889l1.57003,1.39559v1.74447l-0.87223,1.22113l1.91892,2.26781l-0.17444,-4.71009l-1.39558,-1.39559l-0.52334,-1.91892l0.69779,-1.39559l2.09338,-0.52334h1.39558l0.69779,1.04668l0.69779,2.09338l-1.22114,1.74447l4.71008,5.93122h1.74448l4.88453,-5.58232l-0.69779,-1.22113l0.34889,-2.09338l0.87223,-1.39559l1.91892,-0.3489l1.22113,1.04668l0.87224,1.74449l-0.52334,1.39558l-1.74448,1.22113l-0.17445,5.75678l1.04669,1.57002l1.39558,0.69779l1.39557,-1.39559l3.6634,-4.53563l-0.34889,-1.91893l0.69779,-1.04669l1.39558,-0.69778h1.91892l0.87223,0.87223v1.74448l-0.3489,1.22112l-1.57002,0.52334h-1.04669l-2.09337,6.10567l0.17444,2.44227l1.22114,1.39559h1.22113l1.22114,-0.87224v-1.22112l0.34889,-1.57002l1.22114,-0.52334h1.04669l1.74448,0.3489l0.87223,1.74447l-1.04669,2.09338l-1.57003,0.3489l-7.85014,11.33909l-5.05898,-4.71008l-3.48895,-1.91892h-7.15234l-9.24572,-0.17444z" data-paper-data="{&quot;origPos&quot;:null}" fill="url(#color-27)" stroke="#fff700" stroke-width="0" stroke-linecap="round"/><path d="M342.57616,205.97472l12.03689,-0.17443l3.14006,0.34889l3.14006,1.39559l3.6634,2.61671l5.23343,5.75678" data-paper-data="{&quot;origPos&quot;:null}" fill="none" stroke="#ce8c00" stroke-width="1" stroke-linecap="round"/><path d="M353.87425,206.7558c-1.06038,1.37226 -2.8779,1.74446 -4.05957,0.83137c-1.18166,-0.91311 -1.27997,-2.76575 -0.2196,-4.13799c1.06038,-1.37226 2.8779,-1.74447 4.05957,-0.83137c1.18166,0.91311 1.27998,2.76574 0.21961,4.13799z" data-paper-data="{&quot;origRot&quot;:0,&quot;origPos&quot;:null}" fill="url(#color-28)" stroke="#ce8c00" stroke-width="0" stroke-linecap="butt"/></g><g data-paper-data="{&quot;origPos&quot;:null}"><path d="M317.43699,260.39544l-0.47505,0.28678c-1.80605,-1.35453 -3.69934,-3.59731 -5.72366,-4.55877c-4.20214,-1.99581 -11.70916,0.03186 -11.92617,-6.95607c-0.04075,-1.31235 0.08836,-2.66824 0.53706,-3.90217c0.32592,-0.48216 0.77582,-1.15359 1.25968,-1.78657c-0.27683,-0.31307 -0.51882,-0.66614 -0.71607,-1.10112c-1.5266,-3.36679 -1.08416,-6.8079 1.09408,-9.92794c1.54667,-2.21543 4.57427,-2.56601 7.00844,-2.3473c0.42488,0.03817 1.10451,-0.15012 1.41647,0.04337c0.16195,-0.29258 0.32679,-0.58342 0.50838,-0.86399c0.70324,-1.08655 1.57828,-2.10436 2.35504,-3.14006c5.00087,-6.61995 11.3861,-13.17799 19.63551,-15.64946c2.21112,-0.66244 4.55678,-0.59735 6.80345,-1.04668c8.64979,-1.48388 19.33099,1.12215 26.57174,6.09172c2.06686,1.41857 3.28287,3.6158 5.11792,5.24695c4.43244,3.96072 8.31519,7.66648 11.47596,12.68428c2.02091,3.20823 4.35607,5.23276 4.33805,9.38706c-0.01376,3.1765 -3.38751,5.71596 -5.36174,7.74502c-2.54484,2.61553 -4.94608,5.50333 -7.61148,7.98836c-1.51868,1.41589 -3.4083,1.9387 -5.08033,3.01596c-6.08988,3.9236 -11.70849,6.99889 -19.18524,7.57403c-6.26934,0.42133 -11.92455,1.04546 -18.17506,-0.62564c-3.99786,-1.06886 -7.64174,-3.98229 -11.57289,-5.41181c0,0 -0.37914,-0.13787 -0.78554,-0.4542l-0.01378,0.07382c0,0 -1.57704,-0.78852 -1.49478,-2.36558z" data-paper-data="{&quot;origPos&quot;:null}" fill="url(#color-29)" stroke="#000000" stroke-width="0" stroke-linecap="butt"/><g data-paper-data="{&quot;origPos&quot;:null}"><path d="M356.28502,216.42519c3.28341,6.10616 1.56479,13.13325 -3.83864,15.69545c-5.40343,2.5622 -12.44551,-0.31077 -15.72893,-6.41693c-3.28341,-6.10616 -1.56479,-13.13326 3.83864,-15.69544c5.40343,-2.5622 12.44551,0.31078 15.72892,6.41693z" data-paper-data="{&quot;origRot&quot;:0,&quot;origPos&quot;:null}" fill="#ffffff" stroke="none" stroke-width="NaN" stroke-linecap="butt"/><path d="M340.23584,215.0296c3.28341,6.10616 1.56479,13.13325 -3.83865,15.69545c-5.40343,2.5622 -12.44551,-0.31077 -15.72892,-6.41694c-3.28341,-6.10616 -1.5648,-13.13326 3.83864,-15.69544c5.40343,-2.5622 12.44552,0.31078 15.72893,6.41694z" data-paper-data="{&quot;origRot&quot;:0,&quot;origPos&quot;:null}" fill="#ffffff" stroke="none" stroke-width="NaN" stroke-linecap="butt"/><path d="M341.44226,214.26098c-3.74,1.99897 -6.62901,7.67569 -6.62901,7.67569c0,0 -3.62041,-5.30001 -6.10566,-7.50124c-2.48526,-2.20123 -7.50125,-2.96561 -7.50125,-2.96561c0,0 1.69686,-1.64049 3.14006,-2.44227c1.4432,-0.80178 1.58402,-0.70091 3.14006,-1.04669c1.55603,-0.34579 1.59402,-0.73413 4.01229,0c2.41827,0.73413 5.75677,2.96562 5.75677,2.96562c0,0 2.77102,-2.08833 4.88454,-2.61671c2.11352,-0.52838 3.0555,-0.68914 5.58231,0c2.52682,0.68914 5.93122,3.14006 5.93122,3.14006c0,0 -8.47133,0.7922 -12.21134,2.79117z" data-paper-data="{&quot;origPos&quot;:null}" fill="#a8e61d" stroke="#a8e61d" stroke-width="0.5" stroke-linecap="round"/><path d="M339.56499,220.7182c0.39802,0 0.75842,0.23406 1.01903,0.61268c0.26139,0.37862 0.42297,0.9014 0.42297,1.47844c0,0.57665 -0.16159,1.09943 -0.42297,1.47844c-0.2606,0.37822 -0.621,0.61268 -1.01903,0.61268c-0.39802,0 -0.75883,-0.23447 -1.01943,-0.61268c-0.26139,-0.37901 -0.42298,-0.90179 -0.42298,-1.47844c0,-0.57705 0.1616,-1.09982 0.42298,-1.47844c0.2606,-0.37862 0.6214,-0.61268 1.01943,-0.61268z" data-paper-data="{&quot;origPos&quot;:null}" fill="#000000" stroke="none" stroke-width="0.14566" stroke-linecap="butt"/><path d="M329.66382,220.7182c0.39802,0 0.75842,0.23406 1.01903,0.61268c0.26139,0.37862 0.42298,0.9014 0.42298,1.47844c0,0.57665 -0.1616,1.09943 -0.42298,1.47844c-0.2606,0.37822 -0.621,0.61268 -1.01903,0.61268c-0.39802,0 -0.75883,-0.23447 -1.01943,-0.61268c-0.26139,-0.37901 -0.42298,-0.90179 -0.42298,-1.47844c0,-0.57705 0.1616,-1.09982 0.42298,-1.47844c0.2606,-0.37862 0.6214,-0.61268 1.01943,-0.61268z" data-paper-data="{&quot;origPos&quot;:null}" fill="#000000" stroke="none" stroke-width="0.14566" stroke-linecap="butt"/></g><path d="M302.04661,243.67359l8.11182,-0.52334h7.3268l8.89682,2.87838l8.37349,2.09338l5.75678,-0.26167" data-paper-data="{&quot;origPos&quot;:null}" fill="none" stroke="#005208" stroke-width="2" stroke-linecap="round"/><path d="M343.39074,245.50529l7.06513,-4.71008l6.28011,-2.61671l6.28011,-1.30836h2.87839l2.87838,1.04668l2.09338,2.35504l0.52334,4.71009v2.61671l-2.61671,3.40172l-3.92507,2.61671l-5.23342,0.78501l-12.03689,-3.6634l-8.89682,-2.87839z" data-paper-data="{&quot;origPos&quot;:null}" fill="#801a1a" stroke="#801a1a" stroke-width="0.5" stroke-linecap="round"/><path d="M323.17535,238.00186c-0.60838,-0.85173 0.24334,-1.46009 0.24334,-1.46009l-0.32781,-0.13971c0.89276,-1.78553 2.62505,-2.67196 4.59958,-2.67196c0,0 1.04668,0 1.04668,1.04668c0,1.04668 -1.04668,1.04669 -1.04668,1.04669c-1.39402,0 -2.27127,0.60288 -2.72721,1.51478l-0.32781,0.90697c0,0 -0.85172,0.60838 -1.4601,-0.24335z" data-paper-data="{&quot;origPos&quot;:null}" fill="#000000" stroke="none" stroke-width="0.5" stroke-linecap="butt"/><path d="M316.70023,237.65516c-1.04669,0 -1.04669,-1.04669 -1.04669,-1.04669c0,-0.69779 0,-2.1806 0,-2.87838c0,0 0,-1.04669 1.04669,-1.04669c1.04669,0 1.04669,1.04669 1.04669,1.04669c0,0.69779 0,1.39559 0,2.09337v0.78501c0,0 0,1.04669 -1.04669,1.04669z" data-paper-data="{&quot;origPos&quot;:null}" fill="#000000" stroke="none" stroke-width="0.5" stroke-linecap="butt"/><path d="M342.99823,245.63613c0,0 3.0901,1.35818 7.98098,1.70086c4.89087,0.34268 12.56023,-0.26167 12.56023,-0.26167c0,0 1.04669,1.29305 1.04669,2.87839c0,1.58534 -1.04669,3.92507 -1.04669,3.92507l-3.79424,0.65418l-11.77521,-3.6634l-9.28934,-3.00923z" data-paper-data="{&quot;origPos&quot;:null}" fill="#ffffff" stroke="#ffffff" stroke-width="0.5" stroke-linecap="round"/><path d="M348.36251,242.10357l2.48588,-1.70086c0,0 3.64781,-1.83681 6.06635,-2.51c2.53432,-0.70542 6.62471,-1.02256 6.62471,-1.02256l-0.39251,7.85014c0,0 -8.91653,0.66725 -9.93405,0.59188c-3.05254,-0.2261 -8.38294,-1.11522 -8.38294,-1.11522z" data-paper-data="{&quot;origPos&quot;:null}" fill="#ffffff" stroke="#ffffff" stroke-width="0.5" stroke-linecap="round"/></g></g></g><path d="M-97.31827,50.68717h666.76056c0.20934,37.66905 0.27812,75.3412 0.27399,113.01457h-658.12984c-3.54441,-37.70557 -7.46366,-75.22584 -8.90471,-113.01457z" data-paper-data="{&quot;origPos&quot;:null}" fill="url(#color-30)" stroke="none" stroke-width="1.43181" stroke-linecap="butt"/><path d="M429.44878,53.57325l-1.04278,-1.04278" fill="none" stroke="#cccccc" stroke-width="2" stroke-linecap="round"/><path d="M570.87452,40.0737c0.03072,4.97322 0.0589,9.94649 0.08473,14.91981h-656.1228c-0.38595,-9.11231 -0.63612,-18.23925 -0.71109,-27.38718c-0.08359,-10.2004 -0.08343,-20.40377 -0.06187,-30.60729h655.4407c0.67377,14.35448 1.28162,28.70896 1.37033,43.07466z" fill="#000000" stroke="none" stroke-width="1.40148" stroke-linecap="butt"/><path d="M39.96106,10.19652c3.24932,0.72543 5.05368,1.14081 5.41657,1.24613v0.08481c-0.11123,2.90972 -0.19604,4.6032 -0.25166,5.07697c0.18423,0 1.01776,0.19604 2.5006,0.58187c1.33059,-4.10301 2.0529,-6.15312 2.16413,-6.15312c2.22565,0.99725 3.64106,1.66394 4.24344,1.9945v0.08481c-2.44185,5.68248 -3.82806,8.81744 -4.15863,9.40557c-0.61142,0.50888 -2.74913,2.45054 -6.40791,5.82847h-0.08481l-6.74682,-3.32509c0.62289,-1.06468 1.37161,-2.28717 2.24894,-3.66469c0.04102,0 1.09666,0.6931 3.17007,2.07931h0.08203c0.6931,-0.56415 1.52386,-1.36848 2.49191,-2.41857c0,-0.04658 -1.57947,-1.59963 -4.74085,-4.65291v-5.99845z" fill="#ffffff" stroke="none" stroke-width="0.22261" stroke-linecap="butt"/><path d="M60.2255,13.86123c3.06231,0.82171 4.68836,1.3219 4.87259,1.50022c1.68444,2.38346 2.63199,3.7582 2.84263,4.12074c-1.08797,3.45092 -1.71399,5.17638 -1.87458,5.17638c-3.62646,0.84535 -5.52467,1.26942 -5.6943,1.26942c-3.00044,-1.74875 -4.59451,-2.72584 -4.78742,-2.92744c-0.10532,-3.25523 -0.15816,-5.05368 -0.15816,-5.39015c-0.04971,-0.09628 -0.07299,-0.16963 -0.07299,-0.21933c3.09429,-2.35426 4.69392,-3.52983 4.79924,-3.52983zM59.92448,18.28611c-0.04971,0.32153 -0.12305,1.49431 -0.21933,3.51836l2.69629,0.60516c0.64653,-2.01501 0.96805,-3.09116 0.96805,-3.22881c-2.14362,-0.6434 -3.29311,-0.96805 -3.44501,-0.96805z" fill="#ffffff" stroke="none" stroke-width="0.22261" stroke-linecap="butt"/><path d="M75.56798,13.84941l0.08481,0.15781l-1.63196,8.65685h0.08481l4.15897,-1.22249v-4.89553c0.01738,-0.11436 0.07021,-0.16963 0.15781,-0.16963c3.12627,0.2162 4.86946,0.32743 5.22331,0.32743c0,0.05562 0.0292,0.08203 0.08481,0.08203c0,1.3803 -0.43588,4.23753 -1.3073,8.57482c0,0.24853 -1.24891,0.43866 -3.74638,0.56727c-0.12861,-0.1519 -0.23984,-0.47968 -0.32743,-0.97987c-3.19961,0.65244 -5.02448,0.97987 -5.47775,0.97987c-2.55343,-1.90378 -3.83119,-2.88087 -3.83119,-2.93926c0.43554,-5.71446 0.7077,-8.68014 0.82171,-8.89669h0.07299c2.03864,-0.0584 3.916,-0.1373 5.63278,-0.24262z" fill="#ffffff" stroke="none" stroke-width="0.22261" stroke-linecap="butt"/><path d="M92.9314,13.84941c4.78742,0.66113 7.1827,1.06746 7.1827,1.21971c1.88362,1.62014 2.82803,2.48878 2.82803,2.59966c-0.7661,2.39528 -1.20198,3.84892 -1.3073,4.36649c0.76645,1.69939 1.20198,2.71715 1.3073,3.04736c0,0.09663 -1.24856,0.3542 -3.74916,0.77236c-0.03233,-0.13765 -0.26035,-0.44179 -0.6872,-0.91835c-3.45127,0.66078 -5.30847,0.99134 -5.57438,0.99134l-1.83947,-4.96887l4.05052,-2.14084c0.65487,0.10532 1.67263,0.15781 3.05884,0.15781c0,-0.17832 0.02642,-0.71361 0.07334,-1.60832c-0.23393,0 -2.32228,0.1519 -6.26157,0.45917l-0.07299,-0.15816c0.54677,-2.54718 0.87733,-3.81937 0.99134,-3.81937zM95.44659,20.95912c0,0.08759 0.25722,1.03236 0.77201,2.82803h0.07299c1.01498,-0.66078 1.52386,-1.09666 1.52386,-1.30418l0.15781,-1.29583c-0.19292,0 -1.03514,-0.07578 -2.52667,-0.22802z" fill="#ffffff" stroke="none" stroke-width="0.22261" stroke-linecap="butt"/><path d="M112.78358,13.84941c1.59685,0.89506 2.57637,1.47415 2.93926,1.74006c-1.3073,2.71715 -2.00945,4.10023 -2.10573,4.14715h-0.08481l-1.72859,-1.51204l-2.04142,2.49191l0.22802,4.53299c-0.10497,0.09663 -1.4387,0.32465 -4.00082,0.67851c-0.09628,-0.6931 -0.72508,-4.09154 -1.88605,-10.19218c0,-0.09663 1.68444,-0.34794 5.05368,-0.74872c0.05527,0.06431 0.20751,0.81581 0.45917,2.26076c2.01501,-2.26667 3.07065,-3.39844 3.16728,-3.39844z" fill="#ffffff" stroke="none" stroke-width="0.22261" stroke-linecap="butt"/><path d="M123.53122,13.86123c3.65287,1.87736 5.67692,2.97437 6.07144,3.28999c-0.52626,2.44811 -0.83631,3.71127 -0.93294,3.78461h-7.63875v0.13139l2.13771,2.64694l3.36333,-1.71677c0.33056,0.57318 0.80433,1.57356 1.4241,3.00044c-0.28955,0.09663 -2.40397,0.40669 -6.34639,0.93016c-3.26357,-2.15266 -4.90734,-3.27261 -4.93376,-3.3602c0.52348,-4.18539 0.83666,-6.27617 0.93294,-6.27617c3.40713,-1.45086 5.38424,-2.26076 5.92232,-2.43038zM122.74739,16.78865c-0.06431,0.16094 -0.49393,0.80121 -1.28367,1.9215c0,0.33925 0.47655,0.50575 1.42722,0.50575c0,0.04971 0.68998,0.16685 2.06749,0.35107c0.38027,-0.52348 0.56762,-0.8304 0.56762,-0.91835c-0.11992,-0.71639 -0.38027,-1.07615 -0.78383,-1.07615z" fill="#ffffff" stroke="none" stroke-width="0.22261" stroke-linecap="butt"/><path d="M140.45872,10.19652l5.31994,0.94476l-0.50888,4.03871c1.05565,-0.0584 1.83078,-0.08481 2.32228,-0.08481h0.77479l0.16963,-0.08481l0.08481,0.16963c-0.16963,2.45089 -0.31562,3.82841 -0.43554,4.13534l-0.16963,-0.09941c-0.11992,0 -1.21102,-0.05527 -3.26392,-0.1665c-0.11401,1.89231 -0.19882,4.15863 -0.25444,6.79374l-0.16963,0.08481c-2.5941,-0.16963 -4.14437,-0.31596 -4.64422,-0.43588l0.08481,-0.33925c0,-0.69901 0.11401,-2.87774 0.33925,-6.52748c-2.17594,-0.11992 -3.26392,-0.26626 -3.26392,-0.43588c0.11401,-2.69073 0.25722,-4.03871 0.43588,-4.03871l3.17876,0.60516v-1.04105c0,-0.84535 -0.03198,-1.98859 -0.09628,-3.43354c0.06431,0 0.09628,-0.02607 0.09628,-0.08481z" fill="#ffffff" stroke="none" stroke-width="0.22261" stroke-linecap="butt"/><path d="M154.77479,13.86123c3.06196,0.82171 4.68801,1.3219 4.87224,1.50022c1.68479,2.38346 2.63234,3.7582 2.83985,4.12074c-1.08797,3.45092 -1.71086,5.17638 -1.8718,5.17638c-3.62924,0.84535 -5.52745,1.26942 -5.69708,1.26942c-2.99766,-1.74875 -4.59451,-2.72584 -4.78742,-2.92744c-0.10254,-3.25523 -0.15503,-5.05368 -0.15503,-5.39015c-0.04971,-0.09628 -0.07299,-0.16963 -0.07299,-0.21933c3.09394,-2.35426 4.69392,-3.52983 4.79924,-3.52983zM154.47063,18.28611c-0.04693,0.32153 -0.11992,1.49431 -0.21655,3.51836l2.69664,0.60516c0.6434,-2.01501 0.96805,-3.09116 0.96805,-3.22881c-2.14397,-0.6434 -3.29311,-0.96805 -3.44814,-0.96805z" fill="#ffffff" stroke="none" stroke-width="0.22261" stroke-linecap="butt"/><path d="M168.46169,13.86123c3.06231,0.82171 4.68523,1.3219 4.87259,1.50022c1.68444,2.38346 2.63199,3.7582 2.83985,4.12074c-1.08797,3.45092 -1.71086,5.17638 -1.87493,5.17638c-3.62646,0.84535 -5.52433,1.26942 -5.69395,1.26942c-2.99766,-1.74875 -4.59451,-2.72584 -4.78777,-2.92744c-0.10532,-3.25523 -0.15781,-5.05368 -0.15781,-5.39015c-0.04693,-0.09628 -0.07021,-0.16963 -0.07021,-0.21933c3.09429,-2.35426 4.69392,-3.52983 4.79924,-3.52983zM168.23089,18.28611c-0.04693,0.32153 -0.11992,1.49431 -0.21655,3.51836l2.69664,0.60516c0.6434,-2.01501 0.96492,-3.09116 0.96492,-3.22881c-2.14362,-0.6434 -3.29311,-0.96805 -3.44501,-0.96805z" fill="#ffffff" stroke="none" stroke-width="0.22261" stroke-linecap="butt"/><path d="M183.41834,10.21112c2.46514,0.04693 4.27576,0.07021 5.42804,0.07021c0.10497,0 0.42094,4.95149 0.95311,14.84821c-0.40912,0.10532 -1.84538,0.37158 -4.30183,0.79843c-0.12305,0 -0.5207,-3.02998 -1.1992,-9.09239c-0.05562,-0.14634 -0.35107,-2.35461 -0.88011,-6.62446z" fill="#ffffff" stroke="none" stroke-width="0.22261" stroke-linecap="butt"/><path d="M192.99319,13.84941c4.78777,0.66113 7.17992,1.06746 7.17992,1.21971c1.8864,1.62014 2.83116,2.48878 2.83116,2.59966c-0.76645,2.39528 -1.20198,3.84892 -1.3073,4.36649c0.7661,1.69939 1.20198,2.71715 1.3073,3.04736c0,0.09663 -1.24891,0.3542 -3.74951,0.77236c-0.03198,-0.13765 -0.26035,-0.44179 -0.6872,-0.91835c-3.45092,0.66078 -5.30812,0.99134 -5.57438,0.99134l-1.83947,-4.96887l4.05052,-2.14084c0.65522,0.10532 1.67297,0.15781 3.05918,0.15781c0,-0.17832 0.02642,-0.71361 0.07299,-1.60832c-0.23393,0 -2.32193,0.1519 -6.26157,0.45917l-0.07299,-0.15816c0.54677,-2.54718 0.87733,-3.81937 0.99134,-3.81937zM195.50839,20.95912c0,0.08759 0.25757,1.03236 0.77201,2.82803h0.07334c1.01463,-0.66078 1.52351,-1.09666 1.52351,-1.30418l0.15816,-1.29583c-0.19326,0 -1.03549,-0.07578 -2.52701,-0.22802z" fill="#ffffff" stroke="none" stroke-width="0.22261" stroke-linecap="butt"/><path d="M207.77988,10.19652l5.31994,0.94476l-0.50888,4.03871c1.05599,-0.0584 1.83078,-0.08481 2.32228,-0.08481h0.77479l0.16685,-0.08481l0.08481,0.16963c-0.16963,2.45089 -0.31284,3.82841 -0.43276,4.13534l-0.16963,-0.09941c-0.12305,0 -1.21102,-0.05527 -3.26704,-0.1665c-0.11088,1.89231 -0.1957,4.15863 -0.25131,6.79374l-0.16963,0.08481c-2.59723,-0.16963 -4.14403,-0.31596 -4.64422,-0.43588l0.08481,-0.33925c0,-0.69901 0.11401,-2.87774 0.33925,-6.52748c-2.17594,-0.11992 -3.26392,-0.26626 -3.26392,-0.43588c0.11123,-2.69073 0.25722,-4.03871 0.43588,-4.03871l3.17876,0.60516v-1.04105c0,-0.84535 -0.03198,-1.98859 -0.09628,-3.43354c0.06431,0 0.09628,-0.02607 0.09628,-0.08481z" fill="#ffffff" stroke="none" stroke-width="0.22261" stroke-linecap="butt"/><path d="M224.07896,13.86123c3.64975,1.87736 5.67344,2.97437 6.06831,3.28999c-0.52348,2.44811 -0.83353,3.71127 -0.92982,3.78461h-7.64222v0.13139l2.14084,2.64694l3.36055,-1.71677c0.33022,0.57318 0.80399,1.57356 1.42722,3.00044c-0.29267,0.09663 -2.40709,0.40669 -6.34952,0.93016c-3.26392,-2.15266 -4.90734,-3.27261 -4.93063,-3.3602c0.52348,-4.18539 0.83353,-6.27617 0.92982,-6.27617c3.41025,-1.45086 5.38424,-2.26076 5.92545,-2.43038zM223.292,16.78865c-0.06431,0.16094 -0.49115,0.80121 -1.28089,1.9215c0,0.33925 0.47377,0.50575 1.4241,0.50575c0,0.04971 0.69032,0.16685 2.06784,0.35107c0.38027,-0.52348 0.5704,-0.8304 0.5704,-0.91835c-0.12305,-0.71639 -0.38305,-1.07615 -0.78695,-1.07615z" fill="#ffffff" stroke="none" stroke-width="0.22261" stroke-linecap="butt"/><path d="M236.56665,10.64424l0.04971,0.09628c-0.80712,7.1184 -1.25725,10.85921 -1.35388,11.22175c-1.71086,-0.16094 -2.79014,-0.27495 -3.24063,-0.33925v-0.04693l-0.77479,-10.11015c0.19292,-0.06431 1.96808,-0.33647 5.31959,-0.82171zM231.77923,22.2049c0.05562,0.03233 1.31321,0.12861 3.77279,0.28955l0.04658,0.09663c-0.37714,2.22565 -0.61976,3.33691 -0.72508,3.33691h-2.80474c-0.09663,0 -0.22524,-1.11126 -0.38618,-3.33691c-0.03198,0 -0.04971,-0.09663 -0.04971,-0.28955c0.09663,-0.03233 0.14634,-0.06431 0.14634,-0.09663z" fill="#ffffff" stroke="none" stroke-width="0.22261" stroke-linecap="butt"/><path d="M260.80861,10.19652l0.07334,0.15816c-0.21064,3.07934 -0.36845,4.6178 -0.47099,4.6178h-0.07299c-3.32822,-0.26626 -5.18264,-0.42129 -5.56256,-0.47099v10.72469c0,0.19292 -0.75741,0.32153 -2.27258,0.38583c0,0.05874 -0.8596,0.16406 -2.57637,0.31596l-0.08481,-0.15781c0.37123,-6.39922 0.60829,-10.18071 0.71361,-11.34167c-1.2722,0.20195 -3.1499,0.45917 -5.63278,0.77514c-0.73412,-2.74044 -1.09979,-4.14715 -1.09979,-4.22015c0,-0.10532 5.66197,-0.36567 16.98592,-0.78695z" fill="#ffffff" stroke="none" stroke-width="0.22261" stroke-linecap="butt"/><path d="M267.51786,10.19652c0.04971,0.07334 0.2746,2.28127 0.67851,6.62724c3.11167,-0.95067 4.76692,-1.42722 4.96887,-1.42722l3.08247,2.1026c-0.50019,4.59486 -0.82484,7.27933 -0.97987,8.05447l-4.27855,0.14321c0,-0.04658 -0.0292,-0.07021 -0.08481,-0.07021l0.08481,-0.30415c0,-0.65209 0.09628,-2.63477 0.28955,-5.94839c-1.17591,-0.04693 -2.05011,-0.07334 -2.6233,-0.07334h-0.30136c0.34516,3.6852 0.51757,5.69152 0.51757,6.02173l-4.06234,0.60551c-0.1519,-0.51479 -1.05565,-5.33141 -2.70811,-14.44743c0,-0.26035 0.6288,-0.45917 1.8864,-0.60551c1.58816,-0.45014 2.76686,-0.67851 3.53017,-0.67851z" fill="#ffffff" stroke="none" stroke-width="0.22261" stroke-linecap="butt"/><path d="M284.24066,13.86123c3.64975,1.87736 5.67344,2.97437 6.06831,3.28999c-0.52348,2.44811 -0.83353,3.71127 -0.92982,3.78461h-7.64222v0.13139l2.14084,2.64694l3.36055,-1.71677c0.33056,0.57318 0.80712,1.57356 1.42722,3.00044c-0.28955,0.09663 -2.40709,0.40669 -6.34639,0.93016c-3.2667,-2.15266 -4.91047,-3.27261 -4.93376,-3.3602c0.52348,-4.18539 0.83353,-6.27617 0.92982,-6.27617c3.41025,-1.45086 5.38424,-2.26076 5.92545,-2.43038zM283.45373,16.78865c-0.06431,0.16094 -0.49115,0.80121 -1.28089,1.9215c0,0.33925 0.4769,0.50575 1.42722,0.50575c0,0.04971 0.6872,0.16685 2.06784,0.35107c0.37714,-0.52348 0.56727,-0.8304 0.56727,-0.91835c-0.11992,-0.71639 -0.38305,-1.07615 -0.78661,-1.07615z" fill="#ffffff" stroke="none" stroke-width="0.22261" stroke-linecap="butt"/><path d="M310.986,13.84941c1.9653,0.81302 3.66156,1.57947 5.08879,2.29586c-0.37158,4.79646 -0.60829,7.41976 -0.71361,7.87302c-2.36886,0.58778 -3.69667,0.88011 -3.97753,0.88011c0,-1.04696 -0.08203,-3.11445 -0.24262,-6.20005c-0.89506,0.08794 -1.34241,0.16372 -1.34241,0.22802c0,0.30727 0.05249,2.05602 0.15781,5.24694c0.04971,0 0.07299,0.0292 0.07299,0.08481c0,0.09628 -1.24578,0.36254 -3.73456,0.79843c-0.10532,-0.12861 -0.42407,-2.09113 -0.95623,-5.88721c-1.00907,0.25722 -1.51204,0.44457 -1.51204,0.55546l0.48559,4.93376c-0.09663,0.10532 -1.42444,0.52661 -3.98066,1.26942c-1.48249,-5.2466 -2.40988,-8.77086 -2.77833,-10.56654c2.79605,-0.6931 4.36058,-1.04105 4.69114,-1.04105c0.36845,1.46789 0.5558,2.31324 0.5558,2.53849h0.08481c1.36257,-1.2576 2.31324,-2.10295 2.85132,-2.53849h0.08481l2.53849,1.82487h0.08481c1.58816,-1.52977 2.43629,-2.29586 2.54161,-2.29586z" fill="#ffffff" stroke="none" stroke-width="0.22261" stroke-linecap="butt"/><path d="M324.14072,13.86123c3.64975,1.87736 5.67379,2.97437 6.06866,3.28999c-0.52348,2.44811 -0.83353,3.71127 -0.93016,3.78461h-7.64187v0.13139l2.14084,2.64694l3.3602,-1.71677c0.33056,0.57318 0.80433,1.57356 1.42722,3.00044c-0.29233,0.09663 -2.40675,0.40669 -6.34917,0.93016c-3.26392,-2.15266 -4.90769,-3.27261 -4.93376,-3.3602c0.52626,-4.18539 0.83631,-6.27617 0.93294,-6.27617c3.40991,-1.45086 5.3839,-2.26076 5.9251,-2.43038zM323.35414,16.78865c-0.06431,0.16094 -0.4915,0.80121 -1.28123,1.9215c0,0.33925 0.47412,0.50575 1.42444,0.50575c0,0.04971 0.69032,0.16685 2.06784,0.35107c0.37992,-0.52348 0.57006,-0.8304 0.57006,-0.91835c-0.1227,-0.71639 -0.38305,-1.07615 -0.78661,-1.07615z" fill="#ffffff" stroke="none" stroke-width="0.22261" stroke-linecap="butt"/><path d="M339.989,13.84941c1.59685,0.89506 2.57672,1.47415 2.93926,1.74006c-1.3073,2.71715 -2.00632,4.10023 -2.1026,4.14715h-0.08481l-1.72859,-1.51204l-2.04421,2.49191l0.22802,4.53299c-0.10219,0.09663 -1.4387,0.32465 -4.00082,0.67851c-0.09663,-0.6931 -0.72508,-4.09154 -1.8864,-10.19218c0,-0.09663 1.68479,-0.34794 5.05368,-0.74872c0.05562,0.06431 0.21064,0.81581 0.45917,2.26076c2.01501,-2.26667 3.071,-3.39844 3.16728,-3.39844z" fill="#ffffff" stroke="none" stroke-width="0.22261" stroke-linecap="butt"/><path d="M352.90424,13.88452c3.4245,0.09072 5.1385,0.23984 5.1385,0.44735c0.58778,8.92311 0.88011,13.67265 0.88011,14.24305c-2.5941,1.65212 -4.4513,2.77242 -5.57125,3.36298c-3.95111,-1.24265 -5.9251,-1.9507 -5.9251,-2.12902c1.2722,-1.86276 2.0091,-2.80474 2.2107,-2.82803c2.15266,1.06155 3.38975,1.59407 3.7144,1.59407l1.14637,-1.51204c-0.30415,-1.24891 -0.51166,-1.98581 -0.61698,-2.21105c-0.17554,0 -2.36017,0.35385 -6.55112,1.06434c-2.29865,-3.73178 -3.44501,-5.64737 -3.44501,-5.74366c1.98268,-3.16728 3.19057,-5.02448 3.62646,-5.57438h0.08481c0.23393,0 1.97399,0.38305 5.22331,1.1495v-0.26626c0,-0.31284 -0.0292,-0.81893 -0.08481,-1.51204zM348.93852,19.09599c0.11088,0.25166 0.46473,1.57947 1.06155,3.98935c0.7515,-0.23984 1.89787,-0.68441 3.44814,-1.32781c-0.29858,-1.45051 -0.4477,-2.27814 -0.4477,-2.48009l-0.43554,-0.08481h-0.53252c-0.67851,0 -1.70773,-0.03198 -3.09394,-0.09663z" fill="#ffffff" stroke="none" stroke-width="0.22261" stroke-linecap="butt"/><path d="M361.89721,9.00044l4.75266,0.74872c-0.59682,2.28127 -0.98856,3.42172 -1.17279,3.42172c-2.49782,-0.16685 -3.74951,-0.33334 -3.74951,-0.49428v-3.50654c0.02642,-0.11401 0.08203,-0.16963 0.16963,-0.16963zM360.5694,14.75594h0.07021c3.67616,0.66982 5.51598,1.05877 5.51598,1.17279c-1.05599,5.98072 -1.69939,9.31485 -1.92463,9.99926h-3.83119c-0.11401,0 -0.16963,-0.05562 -0.16963,-0.16963z" fill="#ffffff" stroke="none" stroke-width="0.22261" stroke-linecap="butt"/><path d="M377.78646,13.84941l4.02445,2.76964c-0.28086,4.59451 -0.47968,7.2762 -0.59091,8.05134c-0.46786,0.05562 -1.89231,0.14043 -4.26986,0.25444l-0.08481,-0.16963l-0.42129,-6.45762l-0.16963,-0.08481c-1.54124,0.33056 -2.60001,0.58222 -3.17876,0.75185c0.16059,2.746 0.23949,4.73494 0.23949,5.96021c-2.40084,0.66982 -3.71405,1.00316 -3.93929,1.00316c-1.56452,-6.88446 -2.34557,-10.51961 -2.34557,-10.90579c3.40122,-0.44457 5.24694,-0.66391 5.53649,-0.66391v0.08203c0.05527,0.04067 0.14008,0.88011 0.25444,2.5152c3.11758,-2.07062 4.76692,-3.10611 4.94523,-3.10611z" fill="#ffffff" stroke="none" stroke-width="0.22261" stroke-linecap="butt"/><path d="M392.02919,13.88452c3.42485,0.09072 5.1385,0.23984 5.1385,0.44735c0.58813,8.92311 0.88046,13.67265 0.88046,14.24305c-2.5941,1.65212 -4.4513,2.77242 -5.57125,3.36298c-3.95111,-1.24265 -5.92545,-1.9507 -5.92545,-2.12902c1.2722,-1.86276 2.00945,-2.80474 2.21105,-2.82803c2.15266,1.06155 3.38975,1.59407 3.7144,1.59407l1.14637,-1.51204c-0.30415,-1.24891 -0.51166,-1.98581 -0.61698,-2.21105c-0.17554,0 -2.36017,0.35385 -6.55112,1.06434c-2.29899,-3.73178 -3.44536,-5.64737 -3.44536,-5.74366c1.98303,-3.16728 3.19092,-5.02448 3.62646,-5.57438h0.08481c0.23393,0 1.97434,0.38305 5.22331,1.1495v-0.26626c0,-0.31284 -0.0292,-0.81893 -0.08481,-1.51204zM388.06346,19.09599c0.11123,0.25166 0.46508,1.57947 1.0619,3.98935c0.7515,-0.23984 1.89787,-0.68441 3.44779,-1.32781c-0.29824,-1.45051 -0.44735,-2.27814 -0.44735,-2.48009l-0.43588,-0.08481h-0.53217c-0.67851,0 -1.70808,-0.03198 -3.09429,-0.09663z" fill="#ffffff" stroke="none" stroke-width="0.22261" stroke-linecap="butt"/><path d="M410.36934,13.86123c3.06231,0.82171 4.68836,1.3219 4.87259,1.50022c1.68444,2.38346 2.63199,3.7582 2.84263,4.12074c-1.08797,3.45092 -1.71399,5.17638 -1.87458,5.17638c-3.62646,0.84535 -5.52467,1.26942 -5.6943,1.26942c-3.00079,-1.74875 -4.59451,-2.72584 -4.78742,-2.92744c-0.10532,-3.25523 -0.15816,-5.05368 -0.15816,-5.39015c-0.04971,-0.09628 -0.07299,-0.16963 -0.07299,-0.21933c3.09429,-2.35426 4.69392,-3.52983 4.79924,-3.52983zM410.06829,18.28611c-0.04971,0.32153 -0.12305,1.49431 -0.21933,3.51836l2.69629,0.60516c0.64653,-2.01501 0.96805,-3.09116 0.96805,-3.22881c-2.14362,-0.6434 -3.29311,-0.96805 -3.44501,-0.96805z" fill="#ffffff" stroke="none" stroke-width="0.22261" stroke-linecap="butt"/><path d="M424.21436,10.19652c0.42719,0.04971 1.98303,0.40947 4.66472,1.0765l0.07334,0.14599c-0.39487,2.19923 -0.63193,3.3018 -0.71361,3.3018h-0.07334l-1.94479,-1.00594c0,0.22802 -0.07299,1.23431 -0.21933,3.02408l2.66153,-0.65209c0.0789,0.23984 0.1519,1.31599 0.2162,3.22846c-0.25722,0.09663 -1.14359,0.23984 -2.65841,0.4331c0.33925,1.45051 0.69623,3.22568 1.07615,5.31959c-1.243,0.28399 -2.72549,0.5704 -4.45095,0.85995l-0.07021,-0.14634c-0.22837,-3.73178 -0.41538,-5.59767 -0.5704,-5.59767c-1.56174,0.38027 -2.40119,0.59369 -2.5152,0.64062c-0.09663,-0.46786 -0.26313,-1.73728 -0.5061,-3.8079l0.14356,-0.07299h2.58819c-0.14321,-1.19329 -0.36254,-2.74913 -0.65209,-4.66785z" fill="#ffffff" stroke="none" stroke-width="0.22261" stroke-linecap="butt"/><path d="M40.25373,41.15055l5.31959,0.94163l-0.50888,4.03905c1.05599,-0.05562 1.83078,-0.08481 2.32228,-0.08481h0.77201l0.16963,-0.08481l0.08481,0.16963c-0.16963,2.45054 -0.31284,3.82806 -0.43588,4.13534l-0.16963,-0.09663c-0.11992,0 -1.20754,-0.0584 -3.26357,-0.16963c-0.11123,1.89509 -0.19604,4.15863 -0.25444,6.79374l-0.16963,0.08481c-2.5941,-0.16963 -4.14125,-0.31284 -4.64143,-0.43554l0.08481,-0.33647c0,-0.70179 0.11123,-2.87774 0.33925,-6.53061c-2.17872,-0.11992 -3.2667,-0.26626 -3.2667,-0.43588c0.11401,-2.69038 0.26035,-4.03592 0.43554,-4.03592l3.18223,0.60273v-1.03827c0,-0.84813 -0.03511,-1.99172 -0.09941,-3.43354c0.06431,0 0.09941,-0.0292 0.09941,-0.08481z" fill="#ffffff" stroke="none" stroke-width="0.22261" stroke-linecap="butt"/><path d="M55.11064,41.15055c0.04971,0.07299 0.27495,2.28127 0.67851,6.62412c3.11167,-0.95032 4.76692,-1.42722 4.96887,-1.42722l3.08247,2.10573c-0.50019,4.59451 -0.82484,7.27655 -0.97987,8.05134l-4.27855,0.14634c0,-0.04971 -0.0292,-0.07299 -0.08481,-0.07299l0.08481,-0.30136c0,-0.65522 0.09628,-2.6379 0.28955,-5.94874c-1.17591,-0.04971 -2.05011,-0.07299 -2.6233,-0.07299h-0.30136c0.34516,3.68207 0.51757,5.69117 0.51757,6.02173l-4.06234,0.60238c-0.1519,-0.51479 -1.05565,-5.33141 -2.70811,-14.44743c0,-0.25722 0.6288,-0.45917 1.8864,-0.60551c1.58816,-0.45014 2.76686,-0.67538 3.53017,-0.67538z" fill="#ffffff" stroke="none" stroke-width="0.22261" stroke-linecap="butt"/><path d="M66.64521,39.95135l4.75232,0.75185c-0.59647,2.28092 -0.98856,3.42172 -1.17279,3.42172c-2.49747,-0.16963 -3.74916,-0.33647 -3.74916,-0.49741v-3.50654c0.02607,-0.11123 0.08168,-0.16963 0.16963,-0.16963zM65.3174,45.70718h0.07021c3.67616,0.66947 5.51564,1.06155 5.51564,1.17244c-1.05877,5.98107 -1.69904,9.31485 -1.92429,9.99926h-3.83119c-0.11401,0 -0.16963,-0.05562 -0.16963,-0.16963z" fill="#ffffff" stroke="none" stroke-width="0.22261" stroke-linecap="butt"/><path d="M81.5546,44.8003c2.31915,1.48284 3.60317,2.33966 3.84301,2.5649c-0.83631,1.85998 -1.31599,2.79292 -1.43904,2.79292l-4.39847,-2.55308h-0.15781c0,0.08203 -0.19013,0.53217 -0.5704,1.35423c4.05643,2.18463 6.08326,3.30458 6.08326,3.36333c-1.13768,2.62608 -1.7783,4.01229 -1.9215,4.15863l-6.88168,0.39765c-2.67613,-1.77239 -4.11483,-2.70811 -4.31678,-2.80474v-0.07299c0,-0.20195 0.40078,-1.10848 1.1992,-2.71993l5.36652,2.79292l0.40078,-1.59685c-3.32231,-1.4884 -5.2963,-2.42135 -5.9251,-2.79292v-0.1665c0,-0.30727 0.64027,-1.66707 1.9215,-4.07694z" fill="#ffffff" stroke="none" stroke-width="0.22261" stroke-linecap="butt"/><path d="M99.26597,44.8003l0.08481,0.15816l-1.63196,8.6565h0.08481l4.15897,-1.22249v-4.89553c0.01738,-0.11123 0.06709,-0.16963 0.15781,-0.16963c3.12627,0.21933 4.86668,0.32743 5.22331,0.32743c0,0.05562 0.02642,0.08481 0.08481,0.08481c0,1.37752 -0.43588,4.23475 -1.3073,8.57204c0,0.24853 -1.24891,0.43866 -3.74638,0.56727c-0.13174,-0.1519 -0.23984,-0.47968 -0.32743,-0.97952c-3.19961,0.65487 -5.02448,0.97952 -5.47775,0.97952c-2.55343,-1.901 -3.83119,-2.88052 -3.83119,-2.93613c0.43554,-5.71481 0.7077,-8.68327 0.82171,-8.89947h0.07299c2.03864,-0.05562 3.916,-0.13765 5.63278,-0.24297z" fill="#ffffff" stroke="none" stroke-width="0.22261" stroke-linecap="butt"/><path d="M119.38441,44.8003l4.02689,2.76964c-0.28364,4.59451 -0.47933,7.27933 -0.59369,8.05134c-0.46473,0.05874 -1.88918,0.14356 -4.26673,0.25444l-0.08481,-0.16963l-0.42407,-6.45449l-0.16685,-0.08481c-1.54124,0.33056 -2.60001,0.57909 -3.18188,0.74872c0.16094,2.74913 0.24262,4.73494 0.24262,5.96021c-2.40119,0.66982 -3.71718,1.00316 -3.94242,1.00316c-1.56174,-6.88134 -2.34522,-10.51683 -2.34522,-10.90579c3.40122,-0.44145 5.2466,-0.66391 5.53892,-0.66391v0.08481c0.05562,0.04102 0.14043,0.87733 0.25166,2.5152c3.12036,-2.0734 4.77004,-3.10889 4.94558,-3.10889z" fill="#ffffff" stroke="none" stroke-width="0.22261" stroke-linecap="butt"/><path d="M126.27757,39.95135l4.74954,0.75185c-0.59682,2.28092 -0.98578,3.42172 -1.17279,3.42172c-2.49747,-0.16963 -3.74638,-0.33647 -3.74638,-0.49741v-3.50654c0.02329,-0.11123 0.0789,-0.16963 0.16963,-0.16963zM124.94697,45.70718h0.07299c3.67616,0.66947 5.51286,1.06155 5.51286,1.17244c-1.05565,5.98107 -1.69626,9.31485 -1.9215,9.99926h-3.83397c-0.11123,0 -0.16963,-0.05562 -0.16963,-0.16963z" fill="#ffffff" stroke="none" stroke-width="0.22261" stroke-linecap="butt"/><path d="M136.13047,44.8003c1.97399,4.5302 3.02686,6.88168 3.15547,7.04818c0.97709,-3.69945 1.54436,-5.66753 1.7053,-5.9105c3.07934,0.28086 4.6178,0.52348 4.6178,0.72543v0.08481c-2.15822,5.93101 -3.31953,9.0399 -3.48012,9.32076c-2.38659,0.43554 -3.98344,0.70457 -4.79055,0.8099l-5.9105,-8.75313v-0.16963c0.05527,-0.10532 1.62292,-1.15541 4.70261,-3.15581z" fill="#ffffff" stroke="none" stroke-width="0.22261" stroke-linecap="butt"/><path d="M153.7598,44.81212c3.65009,1.88049 5.67379,2.97437 6.06866,3.28999c-0.52348,2.45089 -0.83353,3.71162 -0.93016,3.78461h-7.64187v0.13139l2.14084,2.64972l3.3602,-1.71677c0.33056,0.5704 0.80433,1.57078 1.42722,2.99801c-0.29233,0.09628 -2.40675,0.40634 -6.34917,0.92982c-3.26392,-2.15231 -4.90734,-3.27261 -4.93098,-3.3602c0.52348,-4.18226 0.83353,-6.27617 0.93016,-6.27617c3.40991,-1.45051 5.38424,-2.26076 5.9251,-2.43038zM152.9732,47.73957c-0.06431,0.16094 -0.4915,0.80121 -1.28089,1.9215c0,0.33925 0.47377,0.50888 1.4241,0.50888c0,0.04693 0.69032,0.16372 2.06784,0.35107c0.38027,-0.52348 0.5704,-0.83075 0.5704,-0.92147c-0.12305,-0.71639 -0.3834,-1.07337 -0.78695,-1.07337z" fill="#ffffff" stroke="none" stroke-width="0.22261" stroke-linecap="butt"/><path d="M169.60841,44.8003c1.59685,0.89506 2.57637,1.47693 2.93926,1.74319c-1.30452,2.71402 -2.00632,4.09745 -2.10295,4.14715h-0.08481l-1.72859,-1.51204l-2.04421,2.48878l0.22802,4.53611c-0.10219,0.09628 -1.4387,0.32153 -4.00082,0.67538c-0.09628,-0.6931 -0.72508,-4.08841 -1.88605,-10.19218c0,-0.09663 1.68444,-0.34516 5.05368,-0.74872c0.05527,0.06431 0.21029,0.81893 0.45917,2.26076c2.01501,-2.26667 3.07065,-3.39844 3.16728,-3.39844z" fill="#ffffff" stroke="none" stroke-width="0.22261" stroke-linecap="butt"/><path d="M183.26019,44.8003c2.32228,1.48284 3.60317,2.33966 3.84301,2.5649c-0.83631,1.85998 -1.31599,2.79292 -1.43591,2.79292l-4.40159,-2.55308h-0.15781c0,0.08203 -0.19013,0.53217 -0.56762,1.35423c4.05365,2.18463 6.08048,3.30458 6.08048,3.36333c-1.1349,2.62608 -1.7783,4.01229 -1.9215,4.15863l-6.88168,0.39765c-2.67579,-1.77239 -4.11483,-2.70811 -4.31365,-2.80474v-0.07299c0,-0.20195 0.39765,-1.10848 1.19607,-2.71993l5.36652,2.79292l0.40078,-1.59685c-3.32231,-1.4884 -5.2963,-2.42135 -5.9251,-2.79292v-0.1665c0,-0.30727 0.64027,-1.66707 1.9215,-4.07694z" fill="#ffffff" stroke="none" stroke-width="0.22261" stroke-linecap="butt"/><path d="M195.15766,44.81212c3.64975,1.88049 5.67344,2.97437 6.06831,3.28999c-0.52348,2.45089 -0.83353,3.71162 -0.92982,3.78461h-7.64222v0.13139l2.14084,2.64972l3.36055,-1.71677c0.33022,0.5704 0.80712,1.57078 1.42722,2.99801c-0.28955,0.09628 -2.40709,0.40634 -6.34952,0.92982c-3.26392,-2.15231 -4.90734,-3.27261 -4.93063,-3.3602c0.52348,-4.18226 0.83353,-6.27617 0.92982,-6.27617c3.41025,-1.45051 5.38424,-2.26076 5.92545,-2.43038zM194.37071,47.73957c-0.06431,0.16094 -0.49115,0.80121 -1.28089,1.9215c0,0.33925 0.47377,0.50888 1.42722,0.50888c0,0.04693 0.6872,0.16372 2.06749,0.35107c0.37749,-0.52348 0.56762,-0.83075 0.56762,-0.92147c-0.11992,-0.71639 -0.38305,-1.07337 -0.78695,-1.07337z" fill="#ffffff" stroke="none" stroke-width="0.22261" stroke-linecap="butt"/><path d="M210.3069,44.8003c4.78742,0.66113 7.17992,1.06746 7.17992,1.22249c1.8864,1.62014 2.83081,2.486 2.83081,2.60001c-0.7661,2.3925 -1.20198,3.84892 -1.3073,4.36336c0.76645,1.70217 1.20198,2.71715 1.3073,3.04771c0,0.09628 -1.24856,0.35385 -3.74916,0.77201c-0.03233,-0.13452 -0.26035,-0.44179 -0.6872,-0.91835c-3.45127,0.66078 -5.30812,0.99134 -5.57438,0.99134l-1.83947,-4.96887l4.05052,-2.14084c0.65487,0.10532 1.67263,0.15816 3.05918,0.15816c0,-0.17866 0.02607,-0.71361 0.07299,-1.60867c-0.23393,0 -2.32228,0.15503 -6.26157,0.45917l-0.07299,-0.15503c0.54677,-2.54718 0.87733,-3.8225 0.99134,-3.8225zM212.8221,51.91001c0,0.08794 0.25722,1.03236 0.77201,2.82803h0.07299c1.01498,-0.66078 1.52386,-1.09353 1.52386,-1.30418l0.15781,-1.29271c-0.19292,0 -1.03514,-0.0789 -2.52667,-0.23115z" fill="#ffffff" stroke="none" stroke-width="0.22261" stroke-linecap="butt"/><path d="M232.21511,44.8003l4.02689,2.76964c-0.28364,4.59451 -0.47933,7.27933 -0.59369,8.05134c-0.46786,0.05874 -1.88918,0.14356 -4.26673,0.25444l-0.08481,-0.16963l-0.42407,-6.45449l-0.16963,-0.08481c-1.53845,0.33056 -2.60001,0.57909 -3.1791,0.74872c0.16094,2.74913 0.23984,4.73494 0.23984,5.96021c-2.40119,0.66982 -3.7144,1.00316 -3.93929,1.00316c-1.56487,-6.88134 -2.34557,-10.51683 -2.34557,-10.90579c3.40122,-0.44145 5.2466,-0.66391 5.53614,-0.66391v0.08481c0.05562,0.04102 0.14043,0.87733 0.25444,2.5152c3.12036,-2.0734 4.76692,-3.10889 4.94558,-3.10889z" fill="#ffffff" stroke="none" stroke-width="0.22261" stroke-linecap="butt"/><path d="M244.75285,41.13873h0.07299c3.64106,0.30415 5.46315,0.54399 5.46315,0.71361l1.60867,14.2281c0,0.10532 -1.60867,0.37158 -4.82288,0.79843l-0.07299,-0.15781v-1.29271c-2.77242,0.74872 -4.67654,1.23431 -5.70577,1.45051c-2.45089,-3.46552 -3.73769,-5.3109 -3.85761,-5.53614c1.80437,-3.2813 2.76651,-4.94245 2.88956,-4.98069l5.06515,0.23984c-0.10532,-0.62011 -0.31874,-2.44185 -0.64027,-5.46315zM242.50357,49.80741c0.81302,2.48878 1.3219,3.85726 1.52386,4.0971l2.40709,-2.09078c-0.25166,-1.44182 -0.43588,-2.16447 -0.55858,-2.16447h-3.21421c-0.10532,0.01773 -0.15816,0.06743 -0.15816,0.15816z" fill="#ffffff" stroke="none" stroke-width="0.22261" stroke-linecap="butt"/><path d="M268.80154,41.15055c2.90137,1.46511 4.3929,2.19923 4.47181,2.19923c0,0.12861 -0.60238,1.29549 -1.8134,3.49472h-0.08481c-0.09628,0 -1.48562,-0.658 -4.17044,-1.97086l-1.3657,1.82487c2.31324,1.11404 5.12112,2.53258 8.4257,4.25804c-1.49744,2.66744 -2.56177,4.43948 -3.19057,5.31994l-6.83198,0.60238c-3.11758,-2.1026 -4.76692,-3.19057 -4.94558,-3.26392v-0.08481c0,-0.22489 0.63471,-1.26038 1.89822,-3.10576h0.15781c0.50019,0.29824 2.06784,1.15506 4.70296,2.57359l1.59685,-1.81305c-4.84339,-2.46549 -7.52786,-3.86074 -8.05169,-4.18226v-0.07334c1.53845,-2.99766 2.3779,-4.51839 2.5152,-4.5594c4.00395,-0.81302 6.23238,-1.21936 6.68564,-1.21936z" fill="#ffffff" stroke="none" stroke-width="0.22261" stroke-linecap="butt"/><path d="M282.07621,44.8003l0.08481,0.15816l-1.63161,8.6565h0.08481l4.15863,-1.22249v-4.89553c0.0146,-0.11123 0.06709,-0.16963 0.15781,-0.16963c3.12662,0.21933 4.86668,0.32743 5.22331,0.32743c0,0.05562 0.02642,0.08481 0.08203,0.08481c0,1.37752 -0.43276,4.23475 -1.30452,8.57204c0,0.24853 -1.24856,0.43866 -3.74916,0.56727c-0.12861,-0.1519 -0.23706,-0.47968 -0.32465,-0.97952c-3.19961,0.65487 -5.02726,0.97952 -5.47775,0.97952c-2.55621,-1.901 -3.83119,-2.88052 -3.83119,-2.93613c0.43276,-5.71481 0.7077,-8.68327 0.82171,-8.89947h0.07021c2.04142,-0.05562 3.91913,-0.13765 5.63556,-0.24297z" fill="#ffffff" stroke="none" stroke-width="0.22261" stroke-linecap="butt"/><path d="M297.10587,41.15055l0.08481,0.15503c0,0.46195 0.10219,2.23712 0.31284,5.33454c2.88678,-0.92147 4.50101,-1.40394 4.84895,-1.45086l4.35189,4.67654c-1.83078,4.10301 -2.82525,6.27895 -2.98584,6.53061c-0.50888,-0.05562 -2.3633,-0.13765 -5.56291,-0.24262v0.56727c0,0.10532 -0.05527,0.15781 -0.16963,0.15781h-4.67619c-0.16963,0 -0.49428,-2.41857 -0.96805,-7.25292c-0.10532,-0.41225 -0.40078,-2.83394 -0.88324,-7.26751c2.74044,-0.6434 4.62371,-1.04696 5.64737,-1.20789zM297.9161,50.02361l0.31284,2.98619h2.43038l0.88324,-3.38384c-2.41891,0.20751 -3.62646,0.34203 -3.62646,0.39765z" fill="#ffffff" stroke="none" stroke-width="0.22261" stroke-linecap="butt"/><path d="M312.70277,44.81212c3.63515,0.6872 5.53614,1.07615 5.70577,1.17279v0.14634c-0.7807,2.20792 -1.17279,3.35429 -1.17279,3.43319h-0.07299c-0.20195,0 -1.17591,-0.31284 -2.92466,-0.94163c-0.97674,1.63474 -1.46511,2.50929 -1.46511,2.6233l2.41857,2.34557c1.8718,-1.75779 2.82212,-2.63512 2.85445,-2.63512c1.4592,1.90969 2.18741,2.98028 2.18741,3.21421c-0.79843,0.45917 -2.18741,1.36292 -4.17044,2.70811c-3.8371,-0.8304 -5.90772,-1.29271 -6.21465,-1.38899l-1.89822,-6.14165z" fill="#ffffff" stroke="none" stroke-width="0.22261" stroke-linecap="butt"/><path d="M326.31667,44.81212c3.06196,0.82171 4.68523,1.3219 4.87224,1.50022c1.68479,2.38659 2.63234,3.76098 2.83985,4.12387c-1.08797,3.44779 -1.71086,5.1736 -1.87458,5.1736c-3.62646,0.84813 -5.52467,1.26907 -5.6943,1.26907c-2.99766,-1.74875 -4.59451,-2.72271 -4.78742,-2.92466c-0.10532,-3.25801 -0.15816,-5.05368 -0.15816,-5.39293c-0.04658,-0.09628 -0.06987,-0.16963 -0.06987,-0.2162c3.09394,-2.35426 4.69392,-3.53295 4.79924,-3.53295zM326.01254,49.237c-0.04693,0.32465 -0.11992,1.49744 -0.21655,3.51836l2.69664,0.60516c0.6434,-2.01501 0.96805,-3.09116 0.96805,-3.22846c-2.14675,-0.6434 -3.29311,-0.96527 -3.44814,-0.96527z" fill="#ffffff" stroke="none" stroke-width="0.22261" stroke-linecap="butt"/><path d="M345.86751,44.8003l4.02411,2.76964c-0.28051,4.59451 -0.47933,7.27933 -0.59056,8.05134c-0.46786,0.05874 -1.89231,0.14356 -4.26986,0.25444l-0.08481,-0.16963l-0.42129,-6.45449l-0.16963,-0.08481c-1.54124,0.33056 -2.60001,0.57909 -3.1791,0.74872c0.16094,2.74913 0.23984,4.73494 0.23984,5.96021c-2.40084,0.66982 -3.71405,1.00316 -3.94207,1.00316c-1.56174,-6.88134 -2.34557,-10.51683 -2.34557,-10.90579c3.404,-0.44145 5.24938,-0.66391 5.53892,-0.66391v0.08481c0.05562,0.04102 0.14043,0.87733 0.25444,2.5152c3.11758,-2.0734 4.76726,-3.10889 4.94558,-3.10889z" fill="#ffffff" stroke="none" stroke-width="0.22261" stroke-linecap="butt"/><path d="M362.64871,41.15055c0.04693,0.07299 0.27217,2.28127 0.67572,6.62412c3.11167,-0.95032 4.76726,-1.42722 4.96887,-1.42722l3.0856,2.10573c-0.50019,4.59451 -0.82762,7.27655 -0.97987,8.05134l-4.28167,0.14634c0,-0.04971 -0.02642,-0.07299 -0.08481,-0.07299l0.08481,-0.30136c0,-0.65522 0.09663,-2.6379 0.28955,-5.94874c-1.17557,-0.04971 -2.05011,-0.07299 -2.6233,-0.07299h-0.30136c0.34516,3.68207 0.5207,5.69117 0.5207,6.02173l-4.06234,0.60238c-0.15503,-0.51479 -1.05565,-5.33141 -2.70811,-14.44743c0,-0.25722 0.6288,-0.45917 1.88362,-0.60551c1.58781,-0.45014 2.76651,-0.67538 3.53261,-0.67538z" fill="#ffffff" stroke="none" stroke-width="0.22261" stroke-linecap="butt"/><path d="M374.35013,44.8003c4.79055,0.66113 7.1827,1.06746 7.1827,1.22249c1.8864,1.62014 2.83116,2.486 2.83116,2.60001c-0.76645,2.3925 -1.20198,3.84892 -1.3073,4.36336c0.7661,1.70217 1.20198,2.71715 1.3073,3.04771c0,0.09628 -1.25169,0.35385 -3.74951,0.77201c-0.03198,-0.13452 -0.26313,-0.44179 -0.68998,-0.91835c-3.44814,0.66078 -5.30812,0.99134 -5.57438,0.99134l-1.83669,-4.96887l4.05052,-2.14084c0.65244,0.10532 1.67297,0.15816 3.05918,0.15816c0,-0.17866 0.02329,-0.71361 0.07299,-1.60867c-0.23393,0 -2.32193,0.15503 -6.26436,0.45917l-0.07299,-0.15503c0.5499,-2.54718 0.88011,-3.8225 0.99134,-3.8225zM376.86534,51.91001c0,0.08794 0.26035,1.03236 0.77514,2.82803h0.07299c1.01463,-0.66078 1.52351,-1.09353 1.52351,-1.30418l0.15503,-1.29271c-0.19292,0 -1.03514,-0.0789 -2.52667,-0.23115z" fill="#ffffff" stroke="none" stroke-width="0.22261" stroke-linecap="butt"/><path d="M395.28162,44.8003c2.31915,1.48284 3.60282,2.33966 3.84266,2.5649c-0.83631,1.85998 -1.31599,2.79292 -1.4387,2.79292l-4.39881,-2.55308h-0.15781c0,0.08203 -0.19013,0.53217 -0.56727,1.35423c4.0533,2.18463 6.08013,3.30458 6.08013,3.36333c-1.13768,2.62608 -1.7783,4.01229 -1.9215,4.15863l-6.88168,0.39765c-2.67579,-1.77239 -4.11483,-2.70811 -4.31643,-2.80474v-0.07299c0,-0.20195 0.40043,-1.10848 1.19885,-2.71993l5.36687,2.79292l0.40043,-1.59685c-3.32231,-1.4884 -5.2963,-2.42135 -5.9251,-2.79292v-0.1665c0,-0.30727 0.64062,-1.66707 1.9215,-4.07694z" fill="#ffffff" stroke="none" stroke-width="0.22261" stroke-linecap="butt"/><path d="M38.47543,75.75432c4.78742,0.66078 7.17992,1.06746 7.17992,1.21936c1.8864,1.62049 2.83081,2.486 2.83081,2.60001c-0.7661,2.39528 -1.20198,3.84892 -1.3073,4.36371c0.76645,1.70182 1.20233,2.7168 1.3073,3.04736c0,0.09628 -1.24856,0.35385 -3.74916,0.77479c-0.03233,-0.1373 -0.26035,-0.44423 -0.6872,-0.918c-3.45127,0.66078 -5.30812,0.99134 -5.57438,0.99134l-1.83947,-4.972l4.05052,-2.13771c0.65522,0.10532 1.67297,0.15503 3.05918,0.15503c0,-0.17554 0.02607,-0.71083 0.07299,-1.60554c-0.23393,0 -2.32228,0.1519 -6.26157,0.45917l-0.07299,-0.15816c0.54677,-2.54718 0.87733,-3.81937 0.99134,-3.81937zM40.99063,82.8609c0,0.09072 0.25722,1.03236 0.77201,2.83116h0.07299c1.01498,-0.66113 1.52386,-1.09666 1.52386,-1.3073l0.15781,-1.29271c-0.19292,0 -1.03514,-0.07612 -2.52667,-0.23115z" fill="#ffffff" stroke="none" stroke-width="0.22261" stroke-linecap="butt"/><path d="M49.64749,72.11325c2.46549,0.04971 4.27576,0.07299 5.42804,0.07299c0.10532,0 0.42407,4.94836 0.95623,14.84821c-0.41225,0.10532 -1.84851,0.36845 -4.30496,0.79843c-0.1227,0 -0.5207,-3.03277 -1.19607,-9.09273c-0.05874,-0.14599 -0.35107,-2.35426 -0.88324,-6.6269z" fill="#ffffff" stroke="none" stroke-width="0.22261" stroke-linecap="butt"/><path d="M66.06613,75.75432c1.59685,0.89471 2.57359,1.4738 2.93613,1.74006c-1.30418,2.7168 -2.00632,4.09745 -2.1026,4.14715h-0.08481l-1.72859,-1.51204l-2.04421,2.49156l0.23115,4.53333c-0.10532,0.09628 -1.43904,0.32153 -4.00395,0.67851c-0.09663,-0.6931 -0.72543,-4.09154 -1.88327,-10.19531c0,-0.09628 1.68444,-0.34516 5.05368,-0.74872c0.05527,0.06431 0.20751,0.81893 0.45917,2.26076c2.01501,-2.26354 3.07065,-3.39531 3.16728,-3.39531z" fill="#ffffff" stroke="none" stroke-width="0.22261" stroke-linecap="butt"/><path d="M76.81376,75.76578c3.65287,1.87771 5.67379,2.97437 6.06866,3.28755c-0.52348,2.45054 -0.83353,3.71127 -0.93016,3.78427h-7.64187v0.13452l2.14084,2.64694l3.36055,-1.71677c0.33022,0.57318 0.80712,1.57043 1.42688,2.99766c-0.2892,0.09628 -2.40675,0.40634 -6.34604,0.93294c-3.26392,-2.15266 -4.91047,-3.27261 -4.93411,-3.36333c0.52383,-4.18226 0.83353,-6.27339 0.93016,-6.27339c3.41025,-1.45051 5.38424,-2.26076 5.9251,-2.43038zM76.02715,78.69046c-0.06431,0.16094 -0.49115,0.80155 -1.28089,1.9215c0,0.33925 0.47655,0.50888 1.42722,0.50888c0,0.04971 0.68998,0.16685 2.06749,0.35107c0.37749,-0.52348 0.56762,-0.83075 0.56762,-0.91835c-0.11992,-0.71674 -0.3834,-1.07615 -0.78695,-1.07615z" fill="#ffffff" stroke="none" stroke-width="0.22261" stroke-linecap="butt"/><path d="M85.82169,75.75432c4.78742,0.66078 7.1827,1.06746 7.1827,1.21936c1.8864,1.62049 2.82803,2.486 2.82803,2.60001c-0.7661,2.39528 -1.20198,3.84892 -1.30418,4.36371c0.76332,1.70182 1.19885,2.7168 1.30418,3.04736c0,0.09628 -1.24856,0.35385 -3.74916,0.77479c-0.03233,-0.1373 -0.26035,-0.44423 -0.6872,-0.918c-3.45127,0.66078 -5.30812,0.99134 -5.57438,0.99134l-1.83669,-4.972l4.05052,-2.13771c0.65209,0.10532 1.66985,0.15503 3.0564,0.15503c0,-0.17554 0.02607,-0.71083 0.07299,-1.60554c-0.23393,0 -2.31915,0.1519 -6.26157,0.45917l-0.07299,-0.15816c0.54677,-2.54718 0.87733,-3.81937 0.99134,-3.81937zM88.33689,82.8609c0,0.09072 0.25722,1.03236 0.77201,2.83116h0.07299c1.01776,-0.66113 1.52386,-1.09666 1.52386,-1.3073l0.15781,-1.29271c-0.19292,0 -1.03514,-0.07612 -2.52667,-0.23115z" fill="#ffffff" stroke="none" stroke-width="0.22261" stroke-linecap="butt"/><path d="M104.30783,72.08961h0.07334c3.64384,0.30727 5.46315,0.54399 5.46315,0.71361l1.60832,14.23123c0,0.10532 -1.60832,0.36845 -4.82253,0.79843l-0.07299,-0.15816v-1.29549c-2.77276,0.7515 -4.67654,1.23431 -5.70612,1.45364c-2.45054,-3.46865 -3.73734,-5.31403 -3.85726,-5.53927c1.80437,-3.2813 2.76929,-4.93967 2.88921,-4.98069l5.0655,0.24297c-0.10532,-0.62289 -0.31874,-2.44498 -0.64062,-5.46628zM102.05889,80.7583c0.81302,2.49156 1.3219,3.85761 1.52386,4.10023l2.40675,-2.09391c-0.25131,-1.44182 -0.43554,-2.16447 -0.55546,-2.16447h-3.21699c-0.10532,0.01773 -0.15816,0.07021 -0.15816,0.15816z" fill="#ffffff" stroke="none" stroke-width="0.22261" stroke-linecap="butt"/><path d="M118.2728,75.7776c0.11401,0.0146 0.16963,0.07299 0.16963,0.16963l-1.2576,6.96337c2.40119,-0.28051 3.60317,-0.50888 3.60317,-0.67851c0.45048,-2.78702 0.76054,-4.35154 0.93016,-4.69079c2.97437,0.6142 4.62371,0.97674 4.94558,1.08797c-1.7345,5.95708 -2.68482,9.06041 -2.85445,9.31172c-3.02998,2.12624 -4.73494,3.30493 -5.11243,3.53017c-0.11401,0 -2.04421,-0.4769 -5.79336,-1.42722v-0.08481c0.99134,-2.18463 1.60832,-3.27573 1.85129,-3.27573l3.68763,1.84851l1.7637,-3.02129c-1.58816,0.39487 -2.50929,0.59091 -2.76686,0.59091l-4.70261,-2.4422c0.5704,-5.25529 0.93294,-7.88171 1.08797,-7.88171z" fill="#ffffff" stroke="none" stroke-width="0.22261" stroke-linecap="butt"/><path d="M139.63704,72.10143l0.08481,0.15781c0,0.45917 0.10532,2.23747 0.31284,5.33176c2.88678,-0.91835 4.50413,-1.40394 4.84895,-1.45086l4.35189,4.67967c-1.82765,4.10301 -2.82525,6.27895 -2.98584,6.52748c-0.5061,-0.05562 -2.36017,-0.1373 -5.55978,-0.23984v0.56727c0,0.10532 -0.0584,0.15816 -0.16963,0.15816h-4.67932c-0.16963,0 -0.4915,-2.41857 -0.96805,-7.25604c-0.10532,-0.40947 -0.39765,-2.83394 -0.88324,-7.26751c2.74044,-0.6434 4.62371,-1.04696 5.64737,-1.20789zM140.44726,80.97763l0.31284,2.98584h2.43038l0.88324,-3.38662c-2.41857,0.21064 -3.62646,0.34238 -3.62646,0.40078z" fill="#ffffff" stroke="none" stroke-width="0.22261" stroke-linecap="butt"/><path d="M157.33656,75.76578c3.65287,1.87771 5.67692,2.97437 6.07144,3.28755c-0.52626,2.45054 -0.83631,3.71127 -0.93294,3.78427h-7.63875v0.13452l2.13771,2.64694l3.36333,-1.71677c0.33056,0.57318 0.80433,1.57043 1.4241,2.99766c-0.28955,0.09628 -2.40397,0.40634 -6.34604,0.93294c-3.26392,-2.15266 -4.90769,-3.27261 -4.93411,-3.36333c0.52383,-4.18226 0.83353,-6.27339 0.93294,-6.27339c3.40747,-1.45051 5.38424,-2.26076 5.92232,-2.43038zM156.55273,78.69046c-0.06431,0.16094 -0.49393,0.80155 -1.28367,1.9215c0,0.33925 0.47655,0.50888 1.42722,0.50888c0,0.04971 0.68998,0.16685 2.06749,0.35107c0.38027,-0.52348 0.56762,-0.83075 0.56762,-0.91835c-0.11992,-0.71674 -0.3834,-1.07615 -0.78383,-1.07615z" fill="#ffffff" stroke="none" stroke-width="0.22261" stroke-linecap="butt"/><path d="M173.52718,75.78942c3.42485,0.08759 5.1385,0.23671 5.1385,0.44735c0.58778,8.92311 0.88324,13.66952 0.88324,14.2427c-2.59688,1.65247 -4.45408,2.77276 -5.57438,3.36055c-3.95111,-1.24022 -5.9251,-1.9507 -5.9251,-2.12624c1.27533,-1.86311 2.01223,-2.80752 2.21383,-2.83116c2.15266,1.06468 3.38975,1.59685 3.71127,1.59685l1.1495,-1.51204c-0.30693,-1.24856 -0.51166,-1.98581 -0.61698,-2.2107c-0.17832,0 -2.3633,0.35385 -6.55425,1.06155c-2.29552,-3.73178 -3.44501,-5.64459 -3.44501,-5.74122c1.98303,-3.16728 3.19057,-5.02726 3.62646,-5.57403h0.08481c0.23393,0 1.97399,0.38305 5.22331,1.14915v-0.26591c0,-0.31596 -0.0292,-0.81893 -0.08481,-1.51204zM169.56148,81.00092c0.11123,0.24853 0.46786,1.57947 1.06468,3.98935c0.74872,-0.24297 1.89787,-0.68441 3.44501,-1.33094c-0.29824,-1.45051 -0.44735,-2.27536 -0.44735,-2.47696l-0.43588,-0.08481h-0.53217c-0.67572,0 -1.70808,-0.03233 -3.09429,-0.09663z" fill="#ffffff" stroke="none" stroke-width="0.22261" stroke-linecap="butt"/><path d="M187.38406,75.75432l0.08168,0.15503l-1.63196,8.65685h0.08481l4.15897,-1.21971v-4.89865c0.01738,-0.11123 0.07021,-0.16685 0.15781,-0.16685c3.1294,0.21655 4.86946,0.32465 5.22331,0.32465c0,0.05874 0.0292,0.08481 0.08481,0.08481c0,1.37752 -0.43554,4.23475 -1.30418,8.57204c0,0.25166 -1.25169,0.43866 -3.74951,0.5704c-0.12861,-0.15503 -0.23671,-0.47968 -0.32743,-0.97987c-3.19961,0.65209 -5.02448,0.97987 -5.47497,0.97987c-2.55587,-1.90412 -3.83397,-2.88365 -3.83397,-2.93926c0.43554,-5.71481 0.71048,-8.68014 0.82171,-8.89947h0.07299c2.03864,-0.05562 3.91913,-0.13765 5.6359,-0.23984z" fill="#ffffff" stroke="none" stroke-width="0.22261" stroke-linecap="butt"/><path d="M207.50214,75.75432l4.02445,2.76651c-0.28086,4.59451 -0.47968,7.27933 -0.59091,8.05447c-0.46786,0.05562 -1.88918,0.14043 -4.26986,0.25131l-0.08203,-0.1665l-0.42407,-6.45762l-0.16963,-0.08481c-1.53811,0.33056 -2.60001,0.57909 -3.1791,0.74872c0.16094,2.74913 0.23984,4.73772 0.23984,5.96021c-2.40084,0.66982 -3.71405,1.00629 -3.93929,1.00629c-1.56452,-6.88446 -2.34557,-10.51996 -2.34557,-10.90579c3.40122,-0.44457 5.2466,-0.66703 5.53614,-0.66703v0.08481c0.05562,0.04102 0.14043,0.88046 0.25444,2.5152c3.11793,-2.07062 4.76726,-3.10576 4.94558,-3.10576z" fill="#ffffff" stroke="none" stroke-width="0.22261" stroke-linecap="butt"/><path d="M218.04541,72.54878l0.04658,0.09663c-0.80399,7.1184 -1.25725,10.85886 -1.35388,11.22175c-1.70808,-0.16372 -2.78702,-0.27495 -3.24063,-0.33925v-0.04971l-0.77201,-10.10736c0.19292,-0.06465 1.9653,-0.33925 5.31994,-0.82206zM213.25764,84.10703c0.05562,0.03198 1.31321,0.12861 3.77001,0.28955l0.04971,0.09941c-0.38027,2.22252 -0.62011,3.33691 -0.72543,3.33691h-2.80474c-0.09628,0 -0.22489,-1.11439 -0.38896,-3.33691c-0.03198,0 -0.04658,-0.09941 -0.04658,-0.29267c0.09628,-0.03198 0.14599,-0.06431 0.14599,-0.09628z" fill="#ffffff" stroke="none" stroke-width="0.22261" stroke-linecap="butt"/><path d="M419.95107,282.00004l1.48794,1.19802" fill="none" stroke="#cccccc" stroke-width="9" stroke-linecap="round"/><path d="M142.20382,321.93416l1.48794,1.19802" fill="none" stroke="#cccccc" stroke-width="9" stroke-linecap="round"/></g></g></svg>