<svg version="1.1" xmlns="http://www.w3.org/2000/svg" xmlns:xlink="http://www.w3.org/1999/xlink" width="148.62874" height="43.58556"><g transform="translate(-165.74367,-158.17113)"><g data-paper-data="{&quot;isPaintingLayer&quot;:true}" fill="#ffffff" fill-rule="nonzero" stroke="none" stroke-width="none" stroke-linecap="butt" stroke-linejoin="miter" stroke-miterlimit="10" stroke-dasharray="" stroke-dashoffset="0" font-family="none" font-weight="none" font-size="none" text-anchor="none" style="mix-blend-mode: normal"><text transform="translate(178.62759,197.06505) scale(0.7218,0.72179)" font-size="22" xml:space="preserve" data-paper-data="{&quot;origPos&quot;:null}" id="ID0.08681221166625619" fill="#ffffff" fill-rule="nonzero" stroke="none" stroke-width="1" stroke-linecap="butt" stroke-linejoin="miter" stroke-miterlimit="10" stroke-dasharray="" stroke-dashoffset="0" font-family="Sans Serif" font-weight="400" text-anchor="start" style="mix-blend-mode: normal"><tspan x="0" dy="0">Defeat 4 bosses.</tspan></text><g data-paper-data="{&quot;origPos&quot;:null}" id="text108" stroke-width="0.26458"><path d="M175.2389,160.20146c2.90165,2.10735 4.59159,3.40822 5.06979,3.90265c-0.93211,2.75576 -1.39815,4.17823 -1.39815,4.26738c0.22694,0.22695 0.83888,1.0091 1.83583,2.34646v0.14588c-1.50757,2.6585 -2.38698,4.12959 -2.63825,4.41328l-10.07879,0.74162c-0.154,-0.59977 -0.91588,-5.26026 -2.28566,-13.98144zM171.26328,163.95823l0.43769,4.34033c2.13977,-0.51873 3.21776,-0.81457 3.23397,-0.88753c0.09724,-0.24315 0.32013,-1.02935 0.66867,-2.35861zM173.02616,169.84258h-0.80239c-0.10534,0.01621 -0.15802,0.06484 -0.15802,0.14588c-0.04862,1.05367 -0.07294,1.83583 -0.07294,2.34646c-0.04862,0.25936 -0.07293,0.40931 -0.07293,0.44983l3.8297,-0.59574l-0.07294,-0.36474v-0.43767c0,-0.34853 -0.02431,-0.88753 -0.07293,-1.61699c-1.15902,0.04864 -2.01818,0.07295 -2.57745,0.07295z" id="path376"/><path d="M190.71572,163.87312c1.60482,0.89968 2.5896,1.48324 2.95433,1.75072c-1.31304,2.73145 -2.01818,4.12149 -2.11544,4.17011h-0.08509l-1.73857,-1.51973l-2.05465,2.5045l0.23099,4.55917c-0.10534,0.09727 -1.44676,0.3242 -4.02423,0.68083c-0.09724,-0.69704 -0.72945,-4.11338 -1.89661,-10.24901c0,-0.09727 1.69398,-0.34851 5.08195,-0.75378c0.05672,0.06484 0.21072,0.82267 0.46199,2.27351c2.02629,-2.27756 3.08808,-3.41634 3.18534,-3.41634z" id="path378"/><path d="M196.3083,158.99786l4.778,0.75378c-0.59979,2.29376 -0.99289,3.44064 -1.1793,3.44064c-2.51262,-0.17022 -3.76892,-0.33637 -3.76892,-0.49847v-3.52575c0.02431,-0.11348 0.08103,-0.17022 0.17018,-0.17022zM194.97094,164.78494h0.07294c3.69595,0.67273 5.54393,1.06583 5.54393,1.17929c-1.06178,6.01404 -1.70614,9.36554 -1.93309,10.05448h-3.85401c-0.11346,0 -0.17018,-0.05674 -0.17018,-0.17022z" id="path380"/><path d="M212.28361,163.87312l4.04853,2.78413c-0.28367,4.61996 -0.48226,7.31899 -0.59574,8.09707c-0.4701,0.05674 -1.90066,0.14185 -4.29168,0.2553l-0.08509,-0.17021l-0.42552,-6.49226l-0.17018,-0.08511c-1.54808,0.33231 -2.61392,0.58358 -3.1975,0.75378c0.16212,2.76386 0.24317,4.76179 0.24317,5.99379c-2.41535,0.67273 -3.73649,1.0091 -3.96343,1.0091c-1.57241,-6.92182 -2.35861,-10.57726 -2.35861,-10.96632c3.42037,-0.44579 5.27646,-0.66867 5.56825,-0.66867v0.08511c0.05672,0.04052 0.14183,0.88347 0.25532,2.52881c3.1367,-2.08304 4.79422,-3.12455 4.97253,-3.12455z" id="path382"/><path d="M226.60548,163.90959c3.4447,0.08915 5.16705,0.23909 5.16705,0.44983c0.59168,8.97244 0.88751,13.74639 0.88751,14.32185c-2.60986,1.66156 -4.4781,2.78819 -5.60473,3.37987c-3.97152,-1.24819 -5.9573,-1.96146 -5.9573,-2.13977c1.28062,-1.87229 2.02224,-2.8206 2.22486,-2.84491c2.16408,1.06988 3.40824,1.60483 3.73244,1.60483l1.15499,-1.51972c-0.30798,-1.25631 -0.51466,-1.99793 -0.62005,-2.22486c-0.17831,0 -2.3748,0.35663 -6.5895,1.06988c-2.30999,-3.75269 -3.46498,-5.67769 -3.46498,-5.77495c1.99387,-3.18534 3.20965,-5.05358 3.64735,-5.60473h0.08509c0.23505,0 1.98578,0.38499 5.25217,1.15499v-0.26748c0,-0.3161 -0.02837,-0.82267 -0.08509,-1.51973zM222.78792,169.06449c0.11346,0.25127 0.47009,1.58862 1.06988,4.01207c0.75378,-0.24315 1.90879,-0.68894 3.46498,-1.33736c-0.29991,-1.45893 -0.44985,-2.28972 -0.44985,-2.49234l-0.43767,-0.08511h-0.53494c-0.68085,0 -1.71829,-0.03242 -3.11239,-0.09726z" id="path384"/><path d="M243.66281,158.17113l0.04862,0.09726l-0.34041,4.47406h-0.04862c-1.58862,-0.07295 -2.38293,-0.17021 -2.38293,-0.29179l-0.68082,-3.93912c0,-0.06484 1.13471,-0.17831 3.40416,-0.34041z" id="path386"/><path d="M251.75987,163.88528c3.67166,1.88851 5.70605,2.99081 6.1032,3.30691c-0.52682,2.46397 -0.83888,3.73244 -0.93615,3.80539h-7.68371v0.13373l2.15193,2.66256l3.37987,-1.72641c0.3323,0.57546 0.8105,1.5805 1.4346,3.01512c-0.29179,0.09727 -2.41939,0.40931 -6.38282,0.93615c-3.2826,-2.16408 -4.93607,-3.2907 -4.96038,-3.37987c0.52684,-4.2066 0.83888,-6.30989 0.93615,-6.30989c3.42849,-1.45893 5.41426,-2.2735 5.9573,-2.44372zM250.96965,166.82745c-0.06484,0.1621 -0.49441,0.80645 -1.28874,1.93309c0,0.34041 0.4782,0.51063 1.43462,0.51063c0,0.04864 0.693,0.16616 2.07898,0.35257c0.38096,-0.52684 0.57142,-0.83483 0.57142,-0.92399c-0.12155,-0.72137 -0.38498,-1.08203 -0.79026,-1.08203z" id="path388"/><path d="M272.47673,163.87312c1.97768,0.81863 3.68381,1.58862 5.11842,2.30997c-0.37284,4.82259 -0.61194,7.46081 -0.7173,7.91471c-2.38293,0.59168 -3.71624,0.88753 -3.99991,0.88753c0,-1.05368 -0.08105,-3.13266 -0.24315,-6.23694c-0.89968,0.08915 -1.34952,0.16616 -1.34952,0.23099c0,0.308 0.05268,2.06682 0.15802,5.27647c0.04862,0 0.07294,0.02837 0.07294,0.08511c0,0.09727 -1.25225,0.36472 -3.75675,0.80242c-0.10534,-0.12969 -0.4255,-2.10329 -0.96048,-5.92083c-1.01314,0.25936 -1.51971,0.44579 -1.51971,0.55925l0.4863,4.96038c-0.09724,0.10536 -1.43054,0.53088 -3.99989,1.27656c-1.49136,-5.27647 -2.42345,-8.81844 -2.79629,-10.62588c2.8125,-0.69704 4.38491,-1.04557 4.71721,-1.04557c0.37284,1.47514 0.55927,2.32619 0.55927,2.55314h0.08509c1.36977,-1.2644 2.32617,-2.11544 2.86922,-2.55314h0.08509l2.55314,1.83583h0.08509c1.59672,-1.53998 2.44776,-2.30997 2.55312,-2.30997z" id="path390"/><path d="M290.28786,160.20146c3.55006,0.93209 5.36156,1.47108 5.43451,1.61699c0,0.08105 0.85916,1.70208 2.57745,4.86311c-1.51567,5.07385 -2.37483,7.79313 -2.57745,8.15787l-5.50747,1.1793c-2.95839,-1.63725 -4.53079,-2.56933 -4.71721,-2.79629c-0.09724,-1.14283 -0.26746,-4.35654 -0.51063,-9.64112c2.79629,-1.8642 4.5632,-2.99082 5.30079,-3.37985zM291.23616,164.3959l-2.27351,2.35861c0.19452,2.44776 0.29179,3.94317 0.29179,4.48621c0.05672,0 0.54709,0.34041 1.47109,1.02125c1.22388,-0.26748 1.83583,-0.46199 1.83583,-0.58358l1.39813,-4.778c-0.37284,-1.13473 -0.68894,-1.70208 -0.9483,-1.70208z" id="path392"/><path d="M310.32387,163.87312l4.04854,2.78413c-0.28367,4.61996 -0.48226,7.31899 -0.59574,8.09707c-0.4701,0.05674 -1.90067,0.14185 -4.29169,0.2553l-0.08509,-0.17021l-0.42552,-6.49226l-0.17018,-0.08511c-1.54808,0.33231 -2.61391,0.58358 -3.19749,0.75378c0.16212,2.76386 0.24317,4.76179 0.24317,5.99379c-2.41535,0.67273 -3.73649,1.0091 -3.96345,1.0091c-1.57239,-6.92182 -2.35859,-10.57726 -2.35859,-10.96632c3.42037,-0.44579 5.27646,-0.66867 5.56825,-0.66867v0.08511c0.05672,0.04052 0.14183,0.88347 0.25532,2.52881c3.1367,-2.08304 4.79422,-3.12455 4.97253,-3.12455z" id="path394"/></g></g></g></svg>