<svg version="1.1" xmlns="http://www.w3.org/2000/svg" xmlns:xlink="http://www.w3.org/1999/xlink" width="590.16572" height="463.05691" viewBox="0,0,590.16572,463.05691"><defs><linearGradient x1="178.06921" y1="68.19791" x2="211.14423" y2="135.85038" gradientUnits="userSpaceOnUse" id="color-1"><stop offset="0" stop-color="#cfb841"/><stop offset="1" stop-color="#a28e42"/></linearGradient><linearGradient x1="173.17458" y1="63.94458" x2="198.41906" y2="113.9318" gradientUnits="userSpaceOnUse" id="color-2"><stop offset="0" stop-color="#c3e060"/><stop offset="1" stop-color="#6de01b"/></linearGradient><linearGradient x1="144.31631" y1="55.45008" x2="144.83826" y2="111.4477" gradientUnits="userSpaceOnUse" id="color-3"><stop offset="0" stop-color="#c3e060"/><stop offset="1" stop-color="#6de01b"/></linearGradient><linearGradient x1="474.5" y1="-97" x2="474.5" y2="227" gradientUnits="userSpaceOnUse" id="color-4"><stop offset="0" stop-color="#cfb841"/><stop offset="1" stop-color="#a28e42"/></linearGradient></defs><g transform="translate(50.16572,98)"><g data-paper-data="{&quot;isPaintingLayer&quot;:true}" fill="none" fill-rule="nonzero" stroke="none" stroke-width="2" stroke-linecap="butt" stroke-linejoin="miter" stroke-miterlimit="10" stroke-dasharray="" stroke-dashoffset="0" font-family="none" font-weight="none" font-size="none" text-anchor="none" style="mix-blend-mode: normal"><path d="M-30.80923,173.81561c77.73791,-54.49243 216.46283,-110.47141 216.46283,-110.47141l126.20682,-2.22464l0.23437,82.02601l-191.15,1.24482l-1.63595,196.40295l361.01135,-0.93747l5.68515,24.1975l-534.5802,-1.49399c0,0 -5.61366,-172.35545 17.76563,-188.74378z" data-paper-data="{&quot;origPos&quot;:null,&quot;origRot&quot;:0}" id="ID0.29126935824751854" fill="url(#color-1)" stroke="#82721f"/><path d="M-41.96244,172.53552l105.81007,-58.49766c0.08642,0.34446 0.18233,7.68618 0.29373,8.02345c0.33231,1.00606 1.25825,3.27613 1.98705,4.03753c0.11656,0.12179 0.1392,-0.64616 0.16659,-0.47982c0.07676,0.46601 -0.11967,1.14796 -0.19336,1.70963c-2.60395,0.59542 -14.76991,12.1823 -14.76991,12.1823l0.66235,1.34584l3.19392,15.05585l-0.01943,0.98603l-0.7156,1.32874l-1.55313,0.30228l-18.30801,3.1119l-1.38386,16.51385l-1.66464,9.92581l-14.4295,-8.39903l-7.21905,17.08587l-16.68527,-3.89992l1.35058,11.64015l-15.78324,-4.35522l-0.90476,13.89871z" data-paper-data="{&quot;origPos&quot;:null,&quot;origRot&quot;:0}" fill="url(#color-2)" stroke="#0f6600"/><path d="M268.60246,109.3203l-9.21474,-12.91661l-11.02115,10.10081l-9.19609,-10.9167l-11.03979,8.1009c0,0 -4.14364,-13.62042 -3.88533,-14.37365c1.28978,-3.76102 -13.05255,-2.49511 -13.05255,-2.49511c0,0 3.80074,-14.43683 3.04769,-15.12412c-2.63276,-2.40283 -10.30771,-4.34846 -10.30771,-4.34846c0,0 -3.3787,-8.14438 -2.05221,-8.13723c0.98009,0.00527 1.53124,0.00869 2.51131,0.01439c2.94021,0.0171 77.6801,0.45948 77.6801,0.45948l7.349,16.1347l-8.93527,3.26466l3.94604,18.82133l-12.08025,-3.8649z" data-paper-data="{&quot;origPos&quot;:null,&quot;origRot&quot;:0}" fill="url(#color-3)" stroke="#0f6600"/><path d="M410,227v-324h129v324z" data-paper-data="{&quot;origPos&quot;:null}" fill="url(#color-4)" stroke="#82721f"/></g></g></svg>