<svg version="1.1" xmlns="http://www.w3.org/2000/svg" xmlns:xlink="http://www.w3.org/1999/xlink" width="644.05987" height="182.98092" viewBox="0,0,644.05987,182.98092"><defs><linearGradient x1="277.07939" y1="-2350.23938" x2="277.07939" y2="6936.62316" gradientUnits="userSpaceOnUse" id="color-1"><stop offset="0" stop-color="#519dff"/><stop offset="1" stop-color="#519dff" stop-opacity="0"/></linearGradient></defs><g transform="translate(112.88088,-187.35849)"><g data-paper-data="{&quot;isPaintingLayer&quot;:true}" fill="url(#color-1)" fill-rule="nonzero" stroke="#3e7ac6" stroke-width="2" stroke-linecap="butt" stroke-linejoin="miter" stroke-miterlimit="10" stroke-dasharray="" stroke-dashoffset="0" font-family="none" font-weight="none" font-size="none" text-anchor="none" style="mix-blend-mode: normal"><path d="M520.1961,369.22293c-5.01794,-0.6549 -631.90915,-0.51576 -631.90915,-0.51576l-0.16682,-167.38827c0,0 36.05743,0.37557 71.62224,5.45002c27.82488,5.94458 42.10346,17.95412 100.58615,17.83344c31.37088,-0.06473 36.67135,-26.81496 115.93554,-25.09745c88.05536,4.82815 75.76382,24.5838 133.02163,21.81112c58.14234,0.32347 83.37708,-9.70848 108.60581,-17.67943c2.28748,-0.23339 81.94201,-34.24582 103.08814,-0.0195c21.14613,34.22632 -0.78354,165.60583 -0.78354,165.60583z" data-paper-data="{&quot;origPos&quot;:null,&quot;index&quot;:null}" id="ID0.18147781118750572"/></g></g></svg>