<svg version="1.1" xmlns="http://www.w3.org/2000/svg" xmlns:xlink="http://www.w3.org/1999/xlink" width="109.26722" height="148.36277" viewBox="0,0,109.26722,148.36277"><g transform="translate(-190.20794,-104.59697)"><g data-paper-data="{&quot;isPaintingLayer&quot;:true}" fill="none" fill-rule="nonzero" stroke="none" stroke-width="none" stroke-linecap="butt" stroke-linejoin="miter" stroke-miterlimit="10" stroke-dasharray="" stroke-dashoffset="0" font-family="none" font-weight="none" font-size="none" text-anchor="none" style="mix-blend-mode: normal"><g data-paper-data="{&quot;origPos&quot;:null,&quot;origRot&quot;:0}" stroke="none" stroke-width="0"><path d="M250.64358,217.66307c-2.97416,9.77481 -15.3795,14.65791 -27.70809,10.90671c-12.32859,-3.7512 -22.71212,-8.94822 -19.73796,-18.72303c2.97416,-9.77481 18.17977,-20.42589 30.50836,-16.67469c12.32859,3.7512 19.91186,14.71619 16.93769,24.49101z" data-paper-data="{&quot;origPos&quot;:null}" fill="#a36c40"/><path d="M236.28667,187.7438l-3.99838,13.119l-15.89936,-4.5976c0,0 -6.19424,-1.01766 -3.9313,-8.45496c2.03653,-6.69319 7.90956,-4.61987 7.90956,-4.61987z" data-paper-data="{&quot;origPos&quot;:null}" fill="#d3c29e"/></g><g data-paper-data="{&quot;origPos&quot;:null,&quot;origRot&quot;:0}" stroke="none" stroke-width="0"><path d="M275.35073,247.91568c-1.91081,4.71278 -2.43112,6.9311 -15.17774,1.60974c-10.98707,-4.5868 -11.86586,-5.8349 -10.11985,-10.86494c1.13527,-3.27061 8.07868,-3.48632 14.82892,-0.74943c6.75023,2.73689 11.76906,6.7974 10.46868,10.00462z" data-paper-data="{&quot;origPos&quot;:null}" fill="#f3c08d"/><path d="M278.20808,245.19242c-1.99872,4.92961 -3.5114,8.4686 -17.42485,2.82737c-14.55868,-5.90284 -12.2321,-9.36227 -10.23337,-14.29189c1.99872,-4.92962 10.22545,-6.4977 17.47138,-3.55983c7.24594,2.93788 12.18556,10.09473 10.18684,15.02434z" data-paper-data="{&quot;origPos&quot;:null}" fill="#e13936"/></g><path d="M259.37298,203.11722c0.29286,-2.88472 7.38364,-9.22192 10.34166,-13.87256c2.95802,-4.65065 3.17842,-12.64755 9.19276,-8.11671c2.61065,1.96671 6.35949,8.46839 3.40147,13.11904c-2.95802,4.65065 -23.74032,16.794 -22.93588,8.87023z" data-paper-data="{&quot;origRot&quot;:0,&quot;origPos&quot;:null,&quot;index&quot;:null}" fill="#ffdfc0" stroke="none" stroke-width="0"/><g data-paper-data="{&quot;origPos&quot;:null}"><g data-paper-data="{&quot;origPos&quot;:null}"><g data-paper-data="{&quot;origPos&quot;:null}" fill="#f9faaf" stroke="none" stroke-width="0"><path d="M267.8649,221.10661c0,11.27968 -10.85849,20.42368 -24.25311,20.42368c-13.39462,0 -24.25311,-9.14399 -24.25311,-20.42368c0,-7.51824 -0.38802,-14.03009 4.38975,-19.83498c4.95021,-6.01439 11.8417,-6.85504 19.63127,-6.85504c0,0 12.1457,-1.43995 17.27028,4.94823c4.52483,5.64056 7.21492,10.46211 7.21492,21.7418z" data-paper-data="{&quot;origPos&quot;:null}"/></g><g data-paper-data="{&quot;origPos&quot;:null}" fill="#f9faaf" stroke="#d6d496" stroke-width="1.5"><path d="M262.79168,205.0987c0,0 -0.14866,7.75174 -5.88553,7.68421c-5.73542,-0.06751 -5.9478,-7.82456 -5.9478,-7.82456z" data-paper-data="{&quot;origPos&quot;:null}"/></g><g data-paper-data="{&quot;origPos&quot;:null}" fill="#f9faaf" stroke="#d6d496" stroke-width="1.5"><path d="M239.62502,205.0987c0,0 -0.1675,7.75174 -6.63158,7.68421c-6.46245,-0.06751 -6.70175,-7.82456 -6.70175,-7.82456z" data-paper-data="{&quot;origPos&quot;:null}"/></g><path d="M219.83847,226.33782c0,0 -0.539,-1.80728 -0.6805,-2.96403c-0.16867,-1.37882 -0.11428,-3.53306 -0.11428,-3.53306h11.69631v6.49709z" data-paper-data="{&quot;origPos&quot;:null}" fill="#a37540" stroke="none" stroke-width="0"/><path d="M231.82107,226.38574v-6.59292h8.11903v6.59292z" data-paper-data="{&quot;origPos&quot;:null}" fill="#a37540" stroke="none" stroke-width="0"/><path d="M251.89762,226.43807v-6.59292h8.11903v6.59292z" data-paper-data="{&quot;origPos&quot;:null}" fill="#a37540" stroke="none" stroke-width="0"/><path d="M240.93218,226.42353v-6.59292h10.00793v6.59292z" data-paper-data="{&quot;origPos&quot;:null}" fill="#dcc830" stroke="none" stroke-width="0"/><path d="M261.06426,226.43807v-6.59292h6.73014c0,0 0.13876,2.18719 -0.09245,3.71156c-0.15905,1.04861 -0.79644,2.88136 -0.79644,2.88136z" data-paper-data="{&quot;origPos&quot;:null}" fill="#a37540" stroke="none" stroke-width="0"/></g><path d="M261.04087,199.02076c0,5.2467 -16,12.83334 -16,12.83334c0,0 -7.08197,-4.22448 -11.69559,-6.95106c-3.39667,-2.00738 -9.63774,-1.93678 -9.63774,-5.88227c0,-5.2467 7.65583,-6.16666 18.33334,-6.16666c10.6775,0 19,0.91996 19,6.16666z" data-paper-data="{&quot;origPos&quot;:null}" fill="#fc3f3d" stroke="none" stroke-width="0"/></g><g data-paper-data="{&quot;origPos&quot;:null,&quot;origRot&quot;:0}" stroke="none" stroke-width="0"><path d="M237.37792,236.91239c2.20164,4.58413 3.49298,6.46139 -9.01905,12.31307c-10.78487,5.04391 -12.29952,4.85453 -14.84676,0.17891c-1.65626,-3.04015 2.85499,-8.32277 9.42096,-11.47624c6.56597,-3.15346 12.94657,-4.13543 14.44486,-1.01576z" data-paper-data="{&quot;origPos&quot;:null}" fill="#f3c08d"/><path d="M237.2851,232.96626c2.30293,4.79504 3.90389,8.29499 -9.62975,14.79483c-14.16126,6.80128 -15.15583,2.75264 -17.45877,-2.04241c-2.30293,-4.79505 2.07097,-11.93696 9.11911,-15.32199c7.04814,-3.38503 15.66647,-2.22548 17.96941,2.56957z" data-paper-data="{&quot;origPos&quot;:null}" fill="#e13936"/></g><path d="M204.67356,195.40289c-3.1596,-4.51612 0.29981,-11.17632 2.82148,-13.25588c5.80934,-4.79085 6.38107,3.18863 9.54068,7.70475c3.1596,4.51612 10.5221,10.53547 10.9415,13.40453c1.15199,7.88074 -20.14404,-3.33728 -23.30364,-7.8534z" data-paper-data="{&quot;origRot&quot;:0,&quot;origPos&quot;:null}" fill="#ffdfc0" stroke="none" stroke-width="0"/><g data-paper-data="{&quot;origPos&quot;:null}" stroke="none" stroke-width="0"><g data-paper-data="{&quot;origPos&quot;:null}"><path d="M298.06764,148.22568c-2.0296,14.73033 -4.8938,20.77588 -19.73525,21.6887c-11.36407,0.69895 -43.6143,-3.23404 -54.94216,-4.37854c-24.75973,-2.50157 -32.84181,-8.10745 -30.75359,-29.38339c0.81687,-8.32268 3.51045,-16.2102 10.42022,-20.92076c16.18721,-11.03524 29.47681,-10.98436 48.27712,-8.7537c28.14968,3.33997 50.53972,14.12433 46.73366,41.7477z" data-paper-data="{&quot;origPos&quot;:null}" fill="#ffffff"/><path d="M277.96297,141.21482c-1.39223,11.73391 -11.37918,20.19508 -22.30648,18.89855c-10.9273,-1.29653 -18.657,-11.85979 -17.26477,-23.59369c1.39223,-11.7339 11.37918,-20.19508 22.30648,-18.89855c10.9273,1.29653 18.657,11.85979 17.26477,23.59369z" data-paper-data="{&quot;origPos&quot;:null}" fill="#ff5138"/><path d="M190.63297,143.87373c0.26144,-5.14613 -0.24517,-6.71281 3.33766,-16.12124c0.6065,-3.85994 4.64919,-8.55583 4.64919,-8.55583c0,0 10.84784,2.50912 14.52423,6.47995c4.31394,4.65946 4.27542,10.77764 3.96589,17.11994c-0.32549,6.66928 -1.68344,10.87274 -6.52393,16.04128c-2.3443,2.50319 -3.0556,2.76701 -3.0556,2.76701c0,0 -8.17955,0.18762 -11.56798,-2.41185c-3.91592,-3.88534 -4.96878,-6.4899 -5.32946,-15.31928z" data-paper-data="{&quot;origPos&quot;:null,&quot;origRot&quot;:0}" fill="#ff5138"/><path d="M296.61211,132.43092c0,0 3.45881,1.71094 1.86425,16.3518c-1.39776,12.83383 -6.11259,16.63765 -6.11259,16.63765c0,0 -7.64631,-2.22696 -5.85684,-18.36218c1.62338,-14.6377 10.10518,-14.62728 10.10518,-14.62728z" data-paper-data="{&quot;origPos&quot;:null}" fill="#ff5138"/></g><g data-paper-data="{&quot;origPos&quot;:null}"><path d="M270.18463,182.70891c-2.1558,13.60091 -13.12216,18.68241 -27.12846,17.02056c-14.0063,-1.66185 -26.63655,-8.02221 -25.57163,-21.75168c0.57458,-7.40775 0.71225,-14.98087 0.71225,-14.98087c0,0 20.55912,-0.53869 27.51232,0.52302c13.46823,2.05651 26.05116,7.30932 26.05116,7.30932c0,0 -0.3652,4.243 -1.57564,11.87965z" data-paper-data="{&quot;origPos&quot;:null}" fill="#ffdfc0"/><path d="M250.1858,189.57833c0,0 -4.13523,3.33036 -8.96118,1.86221c-4.82595,-1.46815 -6.89241,-7.10231 -6.89241,-7.10231c0,0 3.6338,4.02535 7.47314,5.19335c3.83934,1.168 8.38044,0.04675 8.38044,0.04675z" data-paper-data="{&quot;origPos&quot;:null,&quot;origRot&quot;:0}" fill="#000000"/><g data-paper-data="{&quot;origPos&quot;:null}"><path d="M257.94802,176.91885c-0.45234,3.81236 -1.7457,6.72284 -4.42055,6.47557c-2.95101,-0.2728 -3.23482,-3.51785 -2.78248,-7.33021c0.45234,-3.81236 1.61626,-6.8083 4.42054,-6.47557c2.80428,0.33273 3.23483,3.51785 2.78249,7.33021z" data-paper-data="{&quot;origPos&quot;:null}" fill="#000000"/><path d="M257.12684,173.85011c-0.15084,1.27133 -0.83297,2.21213 -2.44043,2.04478c-1.77343,-0.18463 -2.04502,-1.28776 -1.89417,-2.55908c0.15084,-1.27133 0.75287,-2.24501 2.44042,-2.04478c1.68755,0.20023 2.04503,1.28776 1.89418,2.55909z" data-paper-data="{&quot;origPos&quot;:null}" fill="#aaaaaa"/></g><g data-paper-data="{&quot;origPos&quot;:null}"><path d="M245.75491,175.70158c-0.45234,3.81236 -1.7457,6.72284 -4.42055,6.47557c-2.95101,-0.2728 -3.23482,-3.51785 -2.78248,-7.33021c0.45234,-3.81236 1.61626,-6.8083 4.42054,-6.47557c2.80428,0.33273 3.23483,3.51785 2.78249,7.33021z" data-paper-data="{&quot;origPos&quot;:null}" fill="#000000"/><path d="M244.7537,172.43734c-0.15084,1.27133 -0.83297,2.21213 -2.44043,2.04478c-1.77343,-0.18463 -2.04503,-1.28776 -1.89418,-2.55909c0.15084,-1.27133 0.75288,-2.24501 2.44043,-2.04478c1.68755,0.20023 2.04503,1.28776 1.89418,2.55909z" data-paper-data="{&quot;origPos&quot;:null}" fill="#aaaaaa"/></g></g></g><path d="M191.21425,134.5382c0.37873,-2.6492 1.29676,-6.63972 1.29676,-6.63972c0,0 44.57355,-7.53944 68.90957,-5.04277c17.00193,1.74425 38.05458,19.23704 38.05458,19.23704c0,0 -0.83607,5.65556 -1.14213,8.3704c-0.39362,3.49143 -1.65353,9.13532 -1.65353,9.13532c0,0 -22.53066,-18.86539 -37.13662,-20.3593c-26.91864,-2.75324 -69.33494,4.16923 -69.33494,4.16923c0,0 0.49869,-5.31942 1.00632,-8.87021z" data-paper-data="{&quot;origPos&quot;:null,&quot;origRot&quot;:0}" fill="#f3c640" stroke="none" stroke-width="0"/><g data-paper-data="{&quot;origPos&quot;:null,&quot;origRot&quot;:0}" stroke="none" stroke-width="0"><path d="M278.54293,127.21488c0.56154,14.93775 -8.12385,23.46516 -15.90114,23.97409c-7.54242,0.49356 -20.99588,-12.45671 -20.99588,-12.45671l-1.2034,-15.31966c0,0 11.37471,-18.28177 19.152,-18.79069c7.77731,-0.50893 18.35341,6.7652 18.9484,22.59297z" data-paper-data="{&quot;origPos&quot;:null}" fill="#a7a7a7"/><path d="M276.02856,126.92974c0.71202,10.88081 -4.2738,20.06548 -11.13613,20.51455c-6.86232,0.44905 -13.00256,-8.00755 -13.71457,-18.88836c-0.71202,-10.8808 4.2738,-20.06551 11.13612,-20.51455c6.86232,-0.44906 13.00255,8.00756 13.71457,18.88837z" data-paper-data="{&quot;origPos&quot;:null}" fill="#f2ecc1"/><path d="M274.38761,126.92291c0.48685,7.43995 -2.84147,13.71482 -7.43401,14.01534c-4.59256,0.30053 -8.71022,-5.4871 -9.19707,-12.92704c-0.48685,-7.43994 2.84147,-13.71482 7.43401,-14.01534c4.59256,-0.30053 8.71022,5.48711 9.19707,12.92704z" data-paper-data="{&quot;origPos&quot;:null}" fill="#fffaca"/></g></g></g></svg>