<svg version="1.1" xmlns="http://www.w3.org/2000/svg" xmlns:xlink="http://www.w3.org/1999/xlink" width="35.30526" height="35.30526" viewBox="0,0,35.30526,35.30526"><defs><linearGradient x1="240.08888" y1="163.06125" x2="240.08888" y2="197.11651" gradientUnits="userSpaceOnUse" id="color-1"><stop offset="0" stop-color="#3c94ed"/><stop offset="1" stop-color="#296ec6"/></linearGradient><linearGradient x1="227.10429" y1="169.62538" x2="229.81123" y2="192.29537" gradientUnits="userSpaceOnUse" id="color-2"><stop offset="0" stop-color="#fff01b"/><stop offset="1" stop-color="#ffa30a"/></linearGradient><linearGradient x1="240.8931" y1="176.63348" x2="241.48003" y2="181.54894" gradientUnits="userSpaceOnUse" id="color-3"><stop offset="0" stop-color="#000000"/><stop offset="1" stop-color="#674205"/></linearGradient><linearGradient x1="236.77193" y1="177.06088" x2="237.35887" y2="181.97635" gradientUnits="userSpaceOnUse" id="color-4"><stop offset="0" stop-color="#000000"/><stop offset="1" stop-color="#674205"/></linearGradient></defs><g transform="translate(-222.43625,-162.43625)"><g data-paper-data="{&quot;isPaintingLayer&quot;:true}" fill-rule="nonzero" stroke-linejoin="miter" stroke-miterlimit="10" stroke-dasharray="" stroke-dashoffset="0" style="mix-blend-mode: normal"><path d="M240.08888,163.06125c4.69771,0 8.95515,1.90752 12.0371,4.99053c3.08301,3.08195 4.99053,7.33939 4.99053,12.0371c0,4.69771 -1.90752,8.95515 -4.99053,12.0371c-3.08195,3.08301 -7.33939,4.99053 -12.0371,4.99053c-4.69771,0 -8.95515,-1.90752 -12.0371,-4.99053c-3.08301,-3.08195 -4.99053,-7.33939 -4.99053,-12.0371c0,-4.69771 1.90752,-8.95515 4.99053,-12.0371c3.08195,-3.08301 7.33939,-4.99053 12.0371,-4.99053z" data-paper-data="{&quot;origPos&quot;:null}" id="ID0.4039921844378114" fill="url(#color-1)" stroke="#23568d" stroke-width="1.25" stroke-linecap="butt"/><g data-paper-data="{&quot;origPos&quot;:null,&quot;origRot&quot;:0}" id="ID0.8391130547970533" stroke="none"><path d="M227.13506,178.63353l-0.55056,-0.55873l0.26248,-1.31321l0.69275,-0.41138l7.5371,-0.89998l2.39809,-8.01035l0.65792,-0.7031l0.73532,-0.05488l0.97169,0.57417l4.448,6.99572l7.61697,-1.04102l0.81745,0.36256l0.69321,0.6732l-0.44556,1.40079l-3.74167,5.67277l2.20469,7.65797l0.21063,1.22386l-0.74472,0.51624l-1.43026,-0.09216l-7.93358,-4.31159l-5.5367,6.57736l-1.36835,0.42634l-1.08345,-0.42938l-0.53168,-1.48133l-0.13532,-7.34632z" id="ID0.3117544511333108" fill="#23568d" stroke-width="1.00682" stroke-linecap="round"/><path d="M228.62648,178.74491l-0.49179,-0.49013l0.23759,-1.15493l0.62103,-0.36304l6.74973,-0.80596l2.16279,-7.04645l0.59043,-0.61929l0.65844,-0.04977l0.86881,0.50288l3.96851,6.14104l6.82158,-0.93013l0.73116,0.31711l0.61929,0.59043l-0.40165,1.23228l-3.36104,4.99424l1.95873,6.72761l0.18618,1.07541l-0.66778,0.4553l-1.28028,-0.07825l-7.09454,-3.77463l-4.96993,5.79291l-1.22592,0.3775l-0.96917,-0.37537l-0.4731,-1.30112l-0.10671,-6.45772z" id="ID0.3117544511333108" fill="url(#color-2)" stroke-width="0.89312" stroke-linecap="round"/><g id="ID0.4398073833435774" stroke-width="1.93994"><path d="M241.89865,176.51392c0.31246,-0.0496 0.65631,0.17293 0.8264,0.47767c0.30855,0.55315 0.41706,1.24358 0.47655,1.89342c0.05908,0.59931 0.03792,1.22876 -0.12618,1.79055c-0.09322,0.32932 -0.28568,0.71971 -0.58989,0.75332c-0.29305,0.03228 -0.56918,-0.16426 -0.77864,-0.55168c-0.26697,-0.48987 -0.43781,-1.09498 -0.52431,-1.81941c-0.0865,-0.72443 -0.08245,-1.32591 0.08118,-1.89171c0.10723,-0.37336 0.36642,-0.63239 0.6349,-0.65216z" id="ID0.6670762049034238" fill="url(#color-3)" stroke-linecap="round"/><path d="M242.009,176.89966c0.16199,-0.01934 0.31785,0.04265 0.43924,0.15784c0.12146,0.11526 0.20841,0.28379 0.23173,0.47907c0.02331,0.19522 -0.02151,0.37949 -0.11242,0.5201c-0.09085,0.14061 -0.22772,0.23755 -0.38972,0.25689c-0.16199,0.01934 -0.31785,-0.04265 -0.43924,-0.15791c-0.1214,-0.11526 -0.20841,-0.28379 -0.23172,-0.47901c-0.02332,-0.19528 0.02156,-0.37956 0.11241,-0.52017c0.09085,-0.14054 0.22773,-0.23748 0.38972,-0.25683z" id="ID0.2271407265216112" fill="#ffffff" stroke-linecap="butt"/></g><g id="ID0.4398073833435774" stroke-width="1.93994"><path d="M237.77748,176.94133c0.31246,-0.0496 0.65631,0.17293 0.8264,0.47767c0.30855,0.55315 0.41706,1.24358 0.47655,1.89342c0.05908,0.59931 0.03792,1.22876 -0.12618,1.79055c-0.09322,0.32932 -0.28568,0.71971 -0.58989,0.75332c-0.29305,0.03228 -0.56918,-0.16426 -0.77864,-0.55168c-0.26697,-0.48987 -0.43781,-1.09498 -0.52431,-1.81941c-0.0865,-0.72443 -0.08245,-1.32591 0.08118,-1.89171c0.10723,-0.37336 0.36642,-0.63239 0.6349,-0.65216z" id="ID0.6670762049034238" fill="url(#color-4)" stroke-linecap="round"/><path d="M237.88403,177.29518c0.16199,-0.01934 0.31785,0.04265 0.43924,0.15784c0.12146,0.11526 0.20841,0.28379 0.23173,0.47907c0.02331,0.19522 -0.02151,0.37949 -0.11242,0.5201c-0.09085,0.14061 -0.22772,0.23755 -0.38972,0.25689c-0.16199,0.01934 -0.31785,-0.04265 -0.43924,-0.15791c-0.1214,-0.11526 -0.20841,-0.28379 -0.23172,-0.47901c-0.02332,-0.19528 0.02156,-0.37956 0.11241,-0.52017c0.09085,-0.14054 0.22773,-0.23748 0.38972,-0.25683z" id="ID0.2271407265216112" fill="#ffffff" stroke-linecap="butt"/></g></g></g></g></svg>