<svg version="1.1" xmlns="http://www.w3.org/2000/svg" xmlns:xlink="http://www.w3.org/1999/xlink" width="615.4985" height="545.02889" viewBox="0,0,615.4985,545.02889"><defs><linearGradient x1="-64.99999" y1="180.00002" x2="26.50001" y2="180.00002" gradientUnits="userSpaceOnUse" id="color-1"><stop offset="0" stop-color="#296cdb" stop-opacity="0"/><stop offset="1" stop-color="#296cdb"/></linearGradient><linearGradient x1="240.88466" y1="359.60443" x2="240.88466" y2="451.09908" gradientUnits="userSpaceOnUse" id="color-2"><stop offset="0" stop-color="#296cdb"/><stop offset="1" stop-color="#296cdb" stop-opacity="0"/></linearGradient><radialGradient cx="22.71666" cy="365.63333" r="86" gradientUnits="userSpaceOnUse" id="color-3"><stop offset="0" stop-color="#296cdb"/><stop offset="1" stop-color="#296cdb" stop-opacity="0"/></radialGradient><linearGradient x1="545.9318" y1="180.00002" x2="454.4318" y2="180.00002" gradientUnits="userSpaceOnUse" id="color-4"><stop offset="0" stop-color="#296cdb" stop-opacity="0"/><stop offset="1" stop-color="#296cdb"/></linearGradient><radialGradient cx="458.21516" cy="365.63333" r="86" gradientUnits="userSpaceOnUse" id="color-5"><stop offset="0" stop-color="#296cdb"/><stop offset="1" stop-color="#296cdb" stop-opacity="0"/></radialGradient><linearGradient x1="240.88466" y1="0.63334" x2="240.88466" y2="-90.86131" gradientUnits="userSpaceOnUse" id="color-6"><stop offset="0" stop-color="#296cdb"/><stop offset="1" stop-color="#296cdb" stop-opacity="0"/></linearGradient><radialGradient cx="22.71666" cy="-5.39556" r="86" gradientUnits="userSpaceOnUse" id="color-7"><stop offset="0" stop-color="#296cdb"/><stop offset="1" stop-color="#296cdb" stop-opacity="0"/></radialGradient><radialGradient cx="458.21516" cy="-5.39556" r="86" gradientUnits="userSpaceOnUse" id="color-8"><stop offset="0" stop-color="#296cdb"/><stop offset="1" stop-color="#296cdb" stop-opacity="0"/></radialGradient><radialGradient cx="93.06674" cy="286.76502" r="43.7905" gradientUnits="userSpaceOnUse" id="color-9"><stop offset="0" stop-color="#ffc79a"/><stop offset="1" stop-color="#ffc79a" stop-opacity="0"/></radialGradient></defs><g transform="translate(67.28335,92.39557)"><g data-paper-data="{&quot;isPaintingLayer&quot;:true}" fill-rule="nonzero" stroke-linejoin="miter" stroke-miterlimit="10" stroke-dasharray="" stroke-dashoffset="0" style="mix-blend-mode: normal"><g stroke="none" stroke-linecap="butt"><path d="M-64.99999,-3.99998h91.5v368h-91.5z" id="ID0.7050563441589475" fill="url(#color-1)" stroke-width="1.89892"/><path d="M26.00001,-3.99998h429v368h-429z" data-paper-data="{&quot;origPos&quot;:null}" id="ID0.10820248955860734" fill="#296cdb" stroke-width="0.90886"/><path d="M26.17997,451.09908l-0.07542,-91.34377l429.48484,-0.15087l0.07542,91.34377z" data-paper-data="{&quot;index&quot;:null,&quot;origRot&quot;:0}" id="ID0.7050563441589475" fill="url(#color-2)" stroke-width="1.89892"/><path d="M-67.28334,452.63333v-89h94v89z" fill="url(#color-3)" stroke-width="0"/><path d="M545.9318,364.00002h-91.5v-368h91.5z" data-paper-data="{&quot;index&quot;:null}" id="ID0.7050563441589475" fill="url(#color-4)" stroke-width="1.89892"/><path d="M454.21516,452.63333v-89h94v89z" data-paper-data="{&quot;index&quot;:null}" fill="url(#color-5)" stroke-width="0"/><path d="M455.6648,-90.71044l-0.07542,91.34377l-429.48483,-0.15087l0.07542,-91.34377z" data-paper-data="{&quot;index&quot;:null,&quot;origRot&quot;:0}" id="ID0.7050563441589475" fill="url(#color-6)" stroke-width="1.89892"/><path d="M26.71666,-92.39556v89h-94v-89z" data-paper-data="{&quot;index&quot;:null}" fill="url(#color-7)" stroke-width="0"/><path d="M548.21516,-92.39556v89h-94v-89z" data-paper-data="{&quot;index&quot;:null}" fill="url(#color-8)" stroke-width="0"/></g><text transform="translate(356.43201,350.79976) scale(0.74106,0.74106)" font-size="22" xml:space="preserve" id="ID0.5113111385144293" fill="#a1f4fa" fill-rule="nonzero" stroke="none" stroke-width="1" stroke-linecap="butt" stroke-linejoin="miter" stroke-miterlimit="10" stroke-dasharray="" stroke-dashoffset="0" font-family="Sans Serif" font-weight="400" text-anchor="start" style="mix-blend-mode: normal"><tspan x="0" dy="0">Page 2</tspan></text><text transform="translate(57.425,123.67517) scale(0.71252,0.71252)" font-size="22" xml:space="preserve" id="ID0.8610048689879477" fill="#a1f3f9" fill-rule="nonzero" stroke="none" stroke-width="1" stroke-linecap="butt" stroke-linejoin="miter" stroke-miterlimit="10" stroke-dasharray="" stroke-dashoffset="0" font-family="Sans Serif" font-weight="400" text-anchor="start" style="mix-blend-mode: normal"><tspan x="0" dy="0">If you press the F key, you can perform a</tspan><tspan x="0" dy="24.86px">powerful special ability! That is</tspan><tspan x="0" dy="24.86px">different for every character.</tspan><tspan x="0" dy="24.86px"> </tspan><tspan x="0" dy="24.86px">Powerups help you throughout</tspan><tspan x="0" dy="24.86px">your adventure. When you see the</tspan><tspan x="0" dy="24.86px">powerup icon in the top-right, press</tspan><tspan x="0" dy="24.86px">X to use the powerup!</tspan><tspan x="0" dy="24.86px"> </tspan><tspan x="0" dy="24.86px"> </tspan><tspan x="0" dy="24.86px"> </tspan><tspan x="0" dy="24.86px"> </tspan><tspan x="0" dy="24.86px">Other powerups include the Ice and Goo flowers.</tspan><tspan x="0" dy="24.86px"> </tspan></text><g data-paper-data="{&quot;origPos&quot;:null,&quot;index&quot;:null,&quot;origRot&quot;:0}" stroke="none" stroke-width="0" stroke-linecap="butt"><path d="M354.06485,217.48038c4.61186,-0.06372 7.8673,4.63992 7.984,13.08503c0.09386,6.79248 -1.33979,20.02098 -1.33979,20.02098l-13.84202,0.03245c0,0 -1.37213,-8.01022 -1.48883,-16.45533c-0.11669,-8.44511 4.07479,-16.6194 8.68664,-16.68313z" data-paper-data="{&quot;origRot&quot;:0,&quot;origPos&quot;:null}" fill="#ff0021"/><g data-paper-data="{&quot;origPos&quot;:null}" fill="#ffffff"><path d="M368.63364,265.6448c1.16141,9.5731 -6.89026,9.69243 -15.61566,11.39314c-7.99593,1.55852 -16.31609,-7.41419 -16.4808,-13.64162c-0.22704,-8.58408 9.86146,-8.71315 18.00369,-8.45232c8.14223,0.26084 13.00831,1.76207 14.09276,10.70081z" data-paper-data="{&quot;origRot&quot;:0,&quot;origPos&quot;:null}"/><path d="M366.14386,252.7915c0.0016,5.94201 -1.77563,3.79904 -13.48753,3.72871c-10.28093,-0.06174 -11.92689,0.21017 -12.19148,-5.19823c-0.23652,-4.83456 6.89839,-3.38809 13.18493,-3.19499c6.28654,0.19312 12.49315,1.19478 12.49408,4.6645z" data-paper-data="{&quot;origRot&quot;:0,&quot;origPos&quot;:null}"/></g></g><g data-paper-data="{&quot;origPos&quot;:null,&quot;index&quot;:null}" stroke="none" stroke-width="0" stroke-linecap="butt"><path d="M352.4373,275.43246c0.50142,-9.15098 -1.08459,-22.23403 -1.08459,-22.23403c0,0 4.49563,-1.85275 9.01301,-1.8325c4.56669,0.06875 9.19349,0.77278 9.19349,0.77278c0,0 3.15976,10.6968 3.70216,16.56931c0.43383,4.69702 0.88967,7.01644 1.50504,8.78981c1.71493,4.94211 5.68101,7.23053 1.16984,9.87905c-6.62349,3.88867 -12.42795,4.37994 -19.81655,2.28212c-5.9647,-1.69353 -7.67402,-4.22908 -8.23766,-7.82747c-0.1393,-0.88937 4.33835,-2.44038 4.55527,-6.39907z" data-paper-data="{&quot;origPos&quot;:null}" fill="#0052ef"/><path d="M346.21999,294.69224c0,-3.30649 5.28317,-5.98692 11.8003,-5.98692c4.74741,0 14.66027,-0.00534 18.84524,2.23608c0.97223,0.52071 0.94698,2.22929 0.95694,3.23265c0.01254,1.26397 -4.35768,0.60496 -4.35768,0.60496c0,0 -1.29694,2.1234 -2.89391,3.05877c-5.14396,3.01288 -15.51008,3.31624 -17.64742,2.72816c-3.26141,-0.89737 -6.70348,-2.49111 -6.70348,-5.87372z" data-paper-data="{&quot;origPos&quot;:null}" fill="#f9c869"/><path d="M344.58487,290.44315c-1.95225,-6.51919 4.28075,-11.21462 11.64846,-11.21462c3.42651,0 9.02457,3.19312 12.37534,3.90953c5.17532,1.10652 4.42801,0.57069 8.38576,1.12853c1.07207,0.1511 1.02107,4.77267 0.79771,7.6051c-0.10791,1.36849 -5.44184,1.08769 -5.44184,1.08769c0,0 -7.88158,4.27327 -15.24929,4.27327c-7.36771,0 -11.33045,-2.83013 -12.51613,-6.78951z" data-paper-data="{&quot;origPos&quot;:null}" fill="#8e4108"/></g><g data-paper-data="{&quot;origPos&quot;:null,&quot;index&quot;:null}" stroke="none" stroke-width="0" stroke-linecap="butt"><path d="M371.95985,275.64937c0.50142,-9.15098 -3.47067,-19.84793 -3.47067,-19.84793c0,0 5.58021,-2.28659 9.013,-2.91709c4.34978,-0.79892 10.92883,-0.74564 10.92883,-0.74564c0,0 3.81051,10.91372 4.35291,16.78623c0.43383,4.69702 0.88967,7.01644 1.50504,8.7898c1.71493,4.94211 5.68101,7.23054 1.16984,9.87906c-6.62349,3.88867 -12.42795,4.37992 -19.81655,2.28211c-5.9647,-1.69353 -7.67402,-4.22907 -8.23766,-7.82746c-0.1393,-0.88937 4.33835,-2.44037 4.55527,-6.39906z" data-paper-data="{&quot;origPos&quot;:null}" fill="#0052ef"/><path d="M365.74254,294.90916c0,-3.30649 5.28317,-5.98692 11.80031,-5.98692c4.74741,0 14.66027,-0.00536 18.84524,2.23607c0.97223,0.52071 0.94698,2.2293 0.95694,3.23265c0.01254,1.26397 -4.35768,0.60495 -4.35768,0.60495c0,0 -1.29694,2.1234 -2.89391,3.05878c-5.14396,3.01288 -15.51008,3.31624 -17.64742,2.72816c-3.26139,-0.89737 -6.70348,-2.49111 -6.70348,-5.87372z" data-paper-data="{&quot;origPos&quot;:null}" fill="#f9c869"/><path d="M364.10743,290.66006c-1.95225,-6.51919 4.28075,-11.21463 11.64846,-11.21463c3.42651,0 9.02457,3.19312 12.37534,3.90954c5.17532,1.10652 4.42801,0.57069 8.38576,1.12853c1.07207,0.15112 1.02107,4.77267 0.79771,7.6051c-0.10791,1.36851 -5.44184,1.0877 -5.44184,1.0877c0,0 -7.88158,4.27327 -15.24929,4.27327c-7.36771,0 -11.33045,-2.83013 -12.51613,-6.78951z" data-paper-data="{&quot;origPos&quot;:null}" fill="#8e4108"/></g><g data-paper-data="{&quot;origPos&quot;:null,&quot;index&quot;:null}"><path d="M366.57867,219.8579c7.12642,0 15.04866,-2.12064 20.54523,2.41518c7.37766,6.08811 8.52169,13.70254 8.52169,23.26783c0,8.81729 -10.85642,17.52692 -24.03444,17.52692c-13.17802,0 -24.89485,-5.22898 -24.55505,-23.6006c0.33308,-18.0083 6.34454,-19.60933 19.52256,-19.60933z" data-paper-data="{&quot;origPos&quot;:null}" fill="#0052ef" stroke="none" stroke-width="0" stroke-linecap="butt"/><path d="M352.85036,221.77732c3.29122,-2.66637 10.4008,-4.67934 16.93869,-4.52242c6.53789,0.15691 11.62687,1.1542 16.15199,4.1995c6.91628,4.65451 6.06034,16.62456 6.06034,16.62456c0,0 -9.76118,3.26842 -19.43579,2.95007c-10.54752,-0.34707 -25.50948,-2.0824 -25.50948,-2.0824c0,0 -1.97997,-10.87102 5.79424,-17.16931z" data-paper-data="{&quot;origPos&quot;:null}" fill="#ff0021" stroke="none" stroke-width="0" stroke-linecap="butt"/><path d="M357.38145,243.33092c0,0 -0.98441,-8.61226 -0.50322,-13.19592c0.37464,-3.56865 2.2317,-9.50374 2.2317,-9.50374" data-paper-data="{&quot;origPos&quot;:null,&quot;origRot&quot;:0}" fill="none" stroke="#0052ef" stroke-width="10" stroke-linecap="round"/><path d="M378.98634,243.80557c0,0 -2.08735,-8.41327 -2.20158,-13.02069c-0.08893,-3.58715 0.98685,-9.71225 0.98685,-9.71225" data-paper-data="{&quot;origPos&quot;:null}" fill="none" stroke="#0052ef" stroke-width="10" stroke-linecap="round"/><path d="M378.37898,245.71444c-1.96472,0 -3.55744,-1.59273 -3.55744,-3.55745c0,-1.96472 1.59273,-3.55745 3.55744,-3.55745c1.96472,0 3.55745,1.59273 3.55745,3.55745c0,1.96472 -1.59273,3.55745 -3.55745,3.55745z" data-paper-data="{&quot;origPos&quot;:null}" fill="#ffe84f" stroke="none" stroke-width="0" stroke-linecap="butt"/><path d="M356.86078,245.71444c-1.96472,0 -3.55745,-1.59273 -3.55745,-3.55745c0,-1.96472 1.59273,-3.55745 3.55745,-3.55745c1.96472,0 3.55744,1.59273 3.55744,3.55745c0,1.96472 -1.59273,3.55745 -3.55744,3.55745z" data-paper-data="{&quot;origPos&quot;:null}" fill="#ffe84f" stroke="none" stroke-width="0" stroke-linecap="butt"/></g><g data-paper-data="{&quot;origPos&quot;:null,&quot;index&quot;:null}" stroke="none" stroke-width="0" stroke-linecap="butt"><path d="M380.68976,233.01212c-2.13705,-8.17108 -0.25214,-13.57194 4.21008,-14.73898c4.46222,-1.16705 10.67965,5.59543 12.8167,13.7665c2.13705,8.17107 2.94818,16.25739 2.94818,16.25739l-13.35057,3.65582c0,0 -4.90554,-12.36868 -6.62439,-18.94076z" data-paper-data="{&quot;origRot&quot;:0,&quot;origPos&quot;:null}" fill="#ff0021"/><g data-paper-data="{&quot;origPos&quot;:null}" fill="#ffffff"><path d="M394.42024,254.50999c7.77857,-2.42027 17.53697,-4.98314 19.60468,3.35128c1.50005,6.04631 -4.12944,16.9111 -12.25163,17.53877c-8.86318,0.68493 -16.65573,2.71464 -18.08627,-6.82196c-1.33575,-8.90464 2.95464,-11.64782 10.73322,-14.06809z" data-paper-data="{&quot;origRot&quot;:0,&quot;origPos&quot;:null}"/><path d="M393.46329,247.70192c6.00797,-1.86068 12.49981,-5.15542 13.55962,-0.43252c1.1856,5.28348 -0.47332,5.45982 -10.36636,8.25787c-11.27001,3.1875 -12.41221,5.72645 -13.99345,-0.00131c-0.92334,-3.34461 4.79223,-5.96336 10.8002,-7.82404z" data-paper-data="{&quot;origRot&quot;:0,&quot;origPos&quot;:null}"/></g></g><g data-paper-data="{&quot;origPos&quot;:null,&quot;index&quot;:null}"><path d="M336.23466,173.19951c6.2296,0 18.43797,-0.68987 18.43797,2.47285c0,3.16272 1.54419,9.02376 -4.68542,9.02376c-7.73095,0 -17.55474,-4.17064 -18.04752,-7.46196c-0.31896,-2.13044 -1.93464,-4.03466 4.29496,-4.03466z" data-paper-data="{&quot;origPos&quot;:null}" fill="#880010" stroke="none" stroke-width="0" stroke-linecap="butt"/><path d="M395.48804,212.73259c0,0 -0.72925,1.5925 -2.91312,1.6957c-4.03064,0.19046 -5.57665,-0.95644 -5.57665,-0.95644c-1.0847,-1.15975 1.5623,-8.41045 1.5623,-8.41045c0.48434,-2.51078 6.76013,-3.39727 6.76013,-3.39727c1.63384,-1.18697 0.90001,4.08655 3.72888,5.65447c2.36507,1.31086 1.18142,4.05571 -0.45243,5.24268c-1.63384,1.18698 -3.10912,0.17131 -3.10912,0.17131z" data-paper-data="{&quot;origRot&quot;:0,&quot;origPos&quot;:null}" fill="#5a2c0a" stroke="none" stroke-width="0" stroke-linecap="butt"/><path d="M391.30273,179.21534c1.30151,-0.30383 4.29584,-3.08848 9.32745,-3.08848c5.03161,0 8.24286,5.69753 8.24286,12.72581c0,7.02827 -4.94659,14.46115 -13.94468,14.46115c-0.16879,0 -1.1702,0.68202 -2.01473,1.96055c-2.75505,4.17088 -1.24374,7.9217 -4.70766,10.56178c-5.45523,4.15777 -9.20692,6.3002 -22.43871,6.02805c-9.36061,-0.19252 -13.46733,-1.31865 -14.93885,-2.47792c-2.59393,-2.04351 -5.1894,-3.66269 -6.3432,-6.75674c-2.99257,-8.0249 2.96583,-11.9155 3.56948,-20.45893c0.52502,-7.43047 -1.53116,-14.14379 5.90634,-14.55716c5.02709,-0.2794 33.59862,2.47572 37.34171,1.60189z" data-paper-data="{&quot;origPos&quot;:null}" fill="#ffdebd" stroke="none" stroke-width="0" stroke-linecap="butt"/><path d="M349.49553,183.73278c0.30572,-4.24189 2.68462,-7.52705 5.3134,-7.33758c2.62878,0.18947 4.512,3.78179 4.20628,8.02369c-0.30572,4.24189 -2.68461,7.52705 -5.31339,7.33758c-2.62878,-0.18946 -4.512,-3.78178 -4.20628,-8.02369z" data-paper-data="{&quot;origPos&quot;:null,&quot;origRot&quot;:0}" fill="#ffffff" stroke="none" stroke-width="0" stroke-linecap="butt"/><path d="M388.69105,178.12014c2.39438,0.08832 2.3799,3.80188 2.3799,7.63549c0,3.83361 -0.81805,8.77025 -3.17319,8.32962c-3.17043,-0.59316 -2.66522,-1.96036 -2.66522,-1.96036c0,0 -1.21217,1.59332 -3.58012,0.44209c-2.0355,-0.98961 0.61788,-4.30014 0.61788,-6.56345c0,-3.8336 -3.66032,-8.25525 6.42075,-7.8834z" data-paper-data="{&quot;origPos&quot;:null}" fill="#5a2c0a" stroke="none" stroke-width="0" stroke-linecap="butt"/><path d="M366.43206,180.98295c2.61766,0.307 4.3381,3.98007 3.84271,8.20403c-0.49538,4.22395 -3.01902,7.39927 -5.63668,7.09226c-2.61766,-0.307 -4.33809,-3.98007 -3.84271,-8.20402c0.49538,-4.22395 3.01902,-7.39927 5.63668,-7.09227z" data-paper-data="{&quot;origPos&quot;:null,&quot;origRot&quot;:0}" fill="#ffffff" stroke="none" stroke-width="0" stroke-linecap="butt"/><path d="M365.33501,186.48623c0.54143,0.97352 0.87722,2.31841 0.87722,3.80299c0,1.48458 -0.33579,2.82947 -0.87722,3.803c-0.5423,0.97352 -1.29022,1.57655 -2.11624,1.57655c-0.82602,0 -1.57395,-0.60303 -2.11624,-1.57655c-0.54143,-0.97352 -0.87722,-2.31842 -0.87722,-3.803c0,-1.48458 0.33579,-2.82946 0.87722,-3.80299c0.5423,-0.97352 1.29022,-1.57656 2.11624,-1.57656c0.82602,0 1.57395,0.60303 2.11624,1.57656z" data-paper-data="{&quot;origPos&quot;:null}" id="ID0.2989244391210377" fill="#000000" stroke="none" stroke-width="1" stroke-linecap="butt"/><path d="M354.05531,182.53833c0.54143,0.97352 0.88849,2.50063 0.87721,3.803c-0.00867,1.00823 0.05727,2.36006 -0.7809,2.86331c-0.95617,0.55271 -2.25073,-0.12147 -3.34053,-0.34706c-0.62385,-0.21431 -1.31626,-0.4538 -1.73534,-0.95444c-0.33231,-0.41388 -0.20217,-1.09413 -0.13015,-1.5618c0.20477,-1.28329 0.33579,-2.82947 0.87722,-3.803c0.5423,-0.97352 1.29022,-1.57655 2.11624,-1.57655c0.82602,0 1.57395,0.60303 2.11624,1.57655z" data-paper-data="{&quot;origPos&quot;:null}" id="ID0.2989244391210377" fill="#000000" stroke="none" stroke-width="1" stroke-linecap="round"/><path d="M368.25286,144.60053c10.24187,1.95295 19.95771,17.76101 19.95771,17.76101c2.41242,-3.70531 9.39652,-4.8629 9.39652,-4.8629c6.34611,0 12.21371,0.04621 11.63527,11.96235c-0.26225,5.40225 -3.84304,9.93778 -10.18916,9.93778c-3.1028,0 -10.35951,2.99658 -13.20665,1.76325c-10.84323,-4.69711 -24.12203,-3.47259 -34.27348,-9.5213c-6.96697,-4.15124 -9.47335,-4.88864 -7.394,-17.85563c1.49325,-9.312 10.88963,-11.69855 24.07378,-9.18456z" data-paper-data="{&quot;origPos&quot;:null}" fill="#ff0021" stroke="none" stroke-width="0" stroke-linecap="butt"/><path d="M357.27564,152.59236c5.84625,0 10.58557,3.84584 10.58557,8.58993c0,4.74409 -0.75085,8.88197 -10.58557,8.58992c-9.31602,-0.27665 -10.58556,-3.84584 -10.58556,-8.58992c0,-4.74409 4.73932,-8.58993 10.58556,-8.58993z" data-paper-data="{&quot;origPos&quot;:null}" fill="#ffffff" stroke="none" stroke-width="0" stroke-linecap="butt"/><path d="M344.77936,166.70205c13.71526,-0.20967 32.05601,4.45843 37.39839,6.19377c4.42086,1.43601 6.21309,5.83638 6.85459,8.58992c0.17354,0.74488 -9.17533,1.11341 -13.79594,0.60737c-9.50719,-1.0412 -43.47023,-5.93618 -43.64377,-6.68106c-0.6415,-2.75355 7.58001,-8.62429 13.18673,-8.71001z" data-paper-data="{&quot;origPos&quot;:null}" fill="#bc041a" stroke="none" stroke-width="0" stroke-linecap="butt"/><path d="M360.83748,166.14727l-1.32738,-6.56315l-3.09923,4.06989l-2.35551,-4.05085l-1.31702,6.62968l-3.17456,-1.91745l4.62709,-8.74796l2.36314,4.60694l3.82108,-5.15255l4.18897,11.12545z" data-paper-data="{&quot;origPos&quot;:null}" fill="#ff0021" stroke="none" stroke-width="0" stroke-linecap="butt"/><path d="M345.03638,212.92584c-0.09319,-0.6399 -0.2862,2.55095 -4.53998,0.21485c-1.79902,-0.98799 -1.66704,-4.70453 -1.66704,-4.70453c-0.40558,-1.36073 -0.39718,-4.05489 0.88847,-4.14c2.59226,-0.17161 10.95556,3.74248 10.95556,3.74248c5.18119,0.2951 16.27165,-3.35566 16.27165,-3.35566c3.31675,-1.79054 4.60256,-5.59425 8.91815,-4.76875c0.74099,0.14174 1.16851,2.87926 1.16851,7.8056c0,4.4925 -3.14817,7.70056 -7.70056,7.70056c-2.83707,0 -5.19115,-1.5681 -5.41381,-1.35954c-0.21075,0.19738 -0.24952,1.60944 -2.43219,2.26721c-3.79779,1.1445 -9.37391,1.29574 -13.20215,0.25763c-1.25433,-0.34014 -2.92458,-1.44869 -3.24658,-3.65983z" data-paper-data="{&quot;origPos&quot;:null}" fill="#38291e" stroke="none" stroke-width="0" stroke-linecap="butt"/><path d="M351.65237,187.87189c5.73304,0.44663 11.2797,6.7305 11.2797,11.822c0,5.0915 -5.53016,8.68518 -11.2797,8.78516c-12.47484,0.21692 -11.06279,-3.69365 -11.49662,-9.43591c-0.69407,-9.18676 3.14321,-11.82199 11.49662,-11.17124z" data-paper-data="{&quot;origPos&quot;:null}" fill="#ffdebd" stroke="none" stroke-width="0" stroke-linecap="butt"/><g data-paper-data="{&quot;origPos&quot;:null}" fill="none" stroke="#f6b09a" stroke-width="3.5" stroke-linecap="round"><path d="M395.53347,196.01892c0,0 -2.77035,-6.22176 1.94792,-9.8671c3.28992,-2.54179 5.8611,-1.04075 5.8611,-1.04075" data-paper-data="{&quot;origPos&quot;:null}"/><path d="M400.98738,190.93688h-5.20601" data-paper-data="{&quot;origPos&quot;:null}"/><path d="M397.39276,196.14289h-1.11557" data-paper-data="{&quot;origPos&quot;:null}"/></g><path d="M369.15129,178.83712c-1.25329,-0.40795 -4.27044,1.34751 -4.27044,1.34751c0,0 -2.46167,-7.78457 5.80819,-7.50615c2.44484,0.55447 3.30674,3.31913 3.30674,4.90532c0,2.33611 -1.26535,5.48319 -1.26535,5.48319c0,0 -1.26474,-1.46502 -1.86251,-2.60258c-0.57945,-1.10268 -0.52292,-1.27133 -1.71663,-1.62731z" data-paper-data="{&quot;origPos&quot;:null}" fill="#38291e" stroke="none" stroke-width="0" stroke-linecap="butt"/><path d="M354.17463,176.40236c-1.24129,-0.10402 -1.2502,0.07363 -2.19197,0.88894c-0.97156,0.8411 -2.68359,1.74379 -2.68359,1.74379c0,0 -0.03008,-3.39182 0.82214,-5.56692c0.57864,-1.47687 2.3897,-3.73658 4.86834,-3.36095c7.80152,2.75762 2.66965,9.1077 2.66965,9.1077c0,0 -2.16883,-2.73516 -3.48457,-2.81252z" data-paper-data="{&quot;origPos&quot;:null,&quot;index&quot;:null,&quot;origRot&quot;:0}" fill="#38291e" stroke="none" stroke-width="0" stroke-linecap="butt"/></g><text transform="translate(68.259,99.81804) scale(1.62937,1.62937)" font-size="22" xml:space="preserve" data-paper-data="{&quot;origPos&quot;:null}" id="ID0.6023869565688074" fill="#a1f3f9" fill-rule="nonzero" stroke="none" stroke-width="1" stroke-linecap="butt" stroke-linejoin="miter" stroke-miterlimit="10" stroke-dasharray="" stroke-dashoffset="0" font-family="Sans Serif" font-weight="400" text-anchor="start" style="mix-blend-mode: normal"><tspan x="0" dy="0">Special Moves!</tspan></text><g data-paper-data="{&quot;origPos&quot;:null}" id="ID0.49040613742545247" stroke="none"><g id="ID0.20286902273073792" fill="#fff346" stroke-width="1.71334" stroke-linecap="round"><path d="M257.3536,306.31784l37.24482,-1.87788l-15.33616,23.23888l-5.39891,-0.23474l-0.86067,-5.24245l-4.06878,6.25967l-6.65086,0.23474l1.01722,-7.66808l-5.94666,7.04206l-9.70242,-2.73855z" id="ID0.07827324094250798"/><path d="M277.30618,327.18316c-3.72142,-2.0422 -6.30031,-6.61013 -6.80741,-10.79782c-0.36927,-3.04535 1.73238,-5.96703 4.52884,-8.02018c2.7981,-2.05471 7.17979,-2.66036 10.92469,-3.32539c2.97639,-0.52427 5.91067,-0.59625 8.80257,-0.46947c1.77778,0.13609 4.75106,-0.46015 5.08599,1.25186c0.86852,4.44435 0.08449,9.51783 -2.34735,13.30173c-2.18623,3.40211 -6.6431,4.77928 -10.40672,6.25967c-3.07969,1.21122 -6.86048,3.35982 -9.78061,1.79961z" id="ID0.3567104428075254"/></g><path d="M306.59283,282.22103c-1.64817,-1.68544 -2.42471,-3.58743 -1.93807,-5.30776c0.48673,-1.72024 2.14459,-2.93364 4.43138,-3.50578c2.2868,-0.57222 5.20226,-0.50208 8.20012,0.34598c2.99794,0.84806 5.51801,2.31566 7.16618,4.001c1.64817,1.68544 2.42471,3.58743 1.93807,5.30776c-0.48664,1.72024 -2.14449,2.93364 -4.43138,3.50578c-2.2868,0.57222 -5.20217,0.50208 -8.20012,-0.34598c-2.99794,-0.84806 -5.51801,-2.31566 -7.16618,-4.001z" id="ID0.16623971331864595" fill="#fff346" stroke-width="1.61785" stroke-linecap="butt"/><path d="M311.3271,276.38773c-2.02713,-1.20327 -3.26794,-2.84066 -3.24145,-4.6283c0.02658,-1.78764 1.31534,-3.38749 3.37727,-4.53012c2.06183,-1.14262 4.89674,-1.82682 8.01196,-1.78061c3.11522,0.04622 5.92857,0.81418 7.95561,2.01744c2.02713,1.20327 3.26794,2.84066 3.24145,4.62821c-0.02649,1.78764 -1.31534,3.38749 -3.37727,4.53012c-2.06183,1.14271 -4.89674,1.82682 -8.01196,1.7807c-3.11522,-0.04622 -5.92857,-0.81418 -7.95561,-2.01744z" id="ID0.16623971331864595" fill="#fff346" stroke-width="1.61785" stroke-linecap="butt"/><path d="M312.61731,257.94786c2.99794,-0.84806 5.91332,-0.91821 8.20012,-0.34598c2.28689,0.57222 3.94474,1.78554 4.43138,3.50578c0.48664,1.72033 -0.2899,3.62232 -1.93807,5.30776c-1.64817,1.68534 -4.16824,3.15294 -7.16618,4.001c-2.99785,0.84815 -5.91332,0.91821 -8.20012,0.34607c-2.2868,-0.57222 -3.94465,-1.78554 -4.43138,-3.50587c-0.48664,-1.72033 0.2899,-3.62232 1.93807,-5.30767c1.64817,-1.68544 4.16824,-3.15294 7.16618,-4.00109z" id="ID0.16623971331864595" fill="#fff346" stroke-width="1.61785" stroke-linecap="butt"/><path d="M249.90198,301.94081c-6.74311,-6.74302 -10.91766,-16.05626 -10.91766,-26.33355c0,-10.27729 4.17454,-19.59053 10.91766,-26.33364c6.74302,-6.74302 16.05626,-10.91756 26.33355,-10.91756c10.27729,0 19.59053,4.17454 26.33355,10.91756c6.74311,6.74311 10.91766,16.05635 10.91766,26.33364c0,10.27729 -4.17454,19.59053 -10.91766,26.33355c-6.74302,6.74311 -16.05626,10.91766 -26.33355,10.91766c-10.27729,0 -19.59053,-4.17454 -26.33355,-10.91766z" id="ID0.1863371403887868" fill="#e12323" stroke-width="1.92607" stroke-linecap="butt"/><path d="M257.73046,253.28229c-2.62776,-0.68256 -7.8165,-1.52879 -7.07412,-3.69439c1.0301,-3.84034 6.58291,-6.62164 10.61908,-8.31748c4.88359,-2.05307 9.42056,-3.02936 15.45179,-3.02936c6.03124,0 10.52692,1.09595 15.4517,3.02936c3.45125,1.35279 9.94035,3.6046 9.50632,6.55834c-2.35594,3.71539 -6.09965,5.43946 -25.51445,8.09234c-6.18386,0.17418 -12.4154,-1.07485 -18.44033,-2.63881z" id="ID0.19371372321620584" fill="#ffffff" stroke-width="1.83562" stroke-linecap="round"/><path d="M237.33516,297.6647c-1.83897,-2.68977 -2.97767,-6.40699 -2.97767,-10.50774c0,-4.10065 1.13869,-7.81787 2.97767,-10.50774c1.83897,-2.6916 4.3795,-4.35758 7.1818,-4.35758c2.80221,0 5.34283,1.66598 7.18171,4.35758c1.83897,2.68987 2.97767,6.40709 2.97767,10.50774c0,4.10074 -1.13869,7.81796 -2.97767,10.50774c-1.83888,2.6916 -4.3795,4.35758 -7.18171,4.35758c-2.8023,0 -5.34283,-1.66598 -7.1818,-4.35758z" id="ID0.39472739631310105" fill="#ffffff" stroke-width="1.77076" stroke-linecap="butt"/><path d="M252.23107,296.88834c-1.87076,-2.68977 -3.02927,-6.40699 -3.02927,-10.50774c0,-4.10065 1.15851,-7.81787 3.02927,-10.50774c1.87076,-2.6916 4.45531,-4.35758 7.30611,-4.35758c2.8508,0 5.43535,1.66598 7.30611,4.35758c1.87076,2.68987 3.02927,6.40709 3.02927,10.50774c0,4.10074 -1.15851,7.81796 -3.02927,10.50774c-1.87076,2.6916 -4.45531,4.35758 -7.30611,4.35758c-2.8508,0 -5.43535,-1.66598 -7.30611,-4.35758z" id="ID0.39472739631310105" fill="#ffffff" stroke-width="1.78334" stroke-linecap="butt"/><path d="M239.36438,275.50532c-1.82335,-2.14979 -2.95136,-5.11933 -2.95136,-8.39494c0,-3.2757 1.12801,-6.24524 2.95136,-8.39494c1.82335,-2.14979 4.34205,-3.47974 7.12006,-3.47974c2.77801,0 5.29671,1.32995 7.12006,3.47974c1.82345,2.1497 2.95145,5.11924 2.95145,8.39494c0,3.27561 -1.12801,6.24515 -2.95145,8.39494c-1.82335,2.1497 -4.34205,3.47965 -7.12006,3.47965c-2.77801,0 -5.29671,-1.32995 -7.12006,-3.47965z" id="ID0.2919205715879798" fill="#ffb197" stroke-width="1.92189" stroke-linecap="round"/><path d="M241.34858,268.08833c-0.20341,-0.90369 -0.08978,-1.96054 0.39083,-2.9541c0.48061,-0.99356 1.23862,-1.73869 2.07334,-2.1402c0.83537,-0.39978 1.74791,-0.45714 2.53998,-0.07407c0.79198,0.38316 1.31351,1.13422 1.51866,2.03726c0.20332,0.90369 0.08969,1.96054 -0.39092,2.9541c-0.48061,0.99356 -1.23862,1.73869 -2.07334,2.14029c-0.83527,0.39978 -1.74791,0.45714 -2.53989,0.07398c-0.79207,-0.38307 -1.3136,-1.13413 -1.51866,-2.03726z" id="ID0.41036201547831297" fill="#a27060" stroke-width="1.42498" stroke-linecap="butt"/><path d="M252.95309,286.51788c-0.41339,-0.73179 -0.67023,-1.74334 -0.67023,-2.86048c0,-1.11705 0.25684,-2.1286 0.67023,-2.86048c0.41348,-0.73179 0.98516,-1.18573 1.61675,-1.18573c0.6315,0 1.20327,0.45394 1.61666,1.18573c0.41348,0.73188 0.67032,1.74343 0.67032,2.86048c0,1.11714 -0.25684,2.12869 -0.67032,2.86048c-0.41339,0.73179 -0.98516,1.18573 -1.61666,1.18573c-0.63159,0 -1.20327,-0.45394 -1.61675,-1.18573z" id="ID0.26917251013219357" fill="#001966" stroke-width="1.92607" stroke-linecap="butt"/><path d="M241.39899,286.51788c-0.41339,-0.73179 -0.67023,-1.74334 -0.67023,-2.86048c0,-1.11705 0.25684,-2.1286 0.67023,-2.86048c0.41348,-0.73179 0.98516,-1.18573 1.61675,-1.18573c0.6315,0 1.20327,0.45394 1.61666,1.18573c0.41348,0.73188 0.67032,1.74343 0.67032,2.86048c0,1.11714 -0.25684,2.12869 -0.67032,2.86048c-0.41339,0.73179 -0.98516,1.18573 -1.61666,1.18573c-0.63159,0 -1.20327,-0.45394 -1.61675,-1.18573z" id="ID0.26917251013219357" fill="#001966" stroke-width="1.92607" stroke-linecap="butt"/><g id="ID0.5137764848768711" fill="#ffffff"><path d="M297.75237,301.62168c-4.1877,-1.34347 -8.3057,-4.36343 -11.35817,-8.73644c-3.05238,-4.37302 -4.46737,-9.27972 -4.2846,-13.67383c0.18048,-4.39457 1.95862,-8.27638 5.28794,-10.60026c3.32931,-2.32397 7.58624,-2.6547 11.77348,-1.30895c4.1877,1.34347 8.30579,4.36343 11.35817,8.73644c3.05247,4.37293 4.46737,9.27972 4.2847,13.67383c-0.18057,4.39448 -1.95872,8.27638 -5.28803,10.60026c-3.32931,2.32397 -7.58624,2.6547 -11.77348,1.30895z" id="ID0.9694409435614944" stroke-width="1.74188" stroke-linecap="butt"/><path d="M313.65198,312.13079c-4.77088,-1.91204 -11.5181,-5.88857 -17.04005,-9.70845c-3.49025,-2.41768 -7.26446,-5.45079 -8.79983,-7.90884c-3.32694,-5.49682 -4.70457,-10.44782 -4.84148,-14.40836c-0.03498,-0.99064 2.84267,0.98552 4.29091,1.77586c5.66872,3.09613 10.83043,5.30054 17.04005,9.70836c6.20962,4.40782 11.40759,9.01018 14.7865,12.88322c3.37891,3.87295 4.93867,7.01658 3.87788,8.51112c-1.06088,1.49445 -4.54309,1.05905 -9.31397,-0.8529z" id="ID0.4074811181053519" stroke-width="2.95037" stroke-linecap="round"/><path d="M315.20059,301.53664c-3.53784,-1.03676 -7.89405,-3.21642 -12.22468,-6.29045c-4.33064,-3.07403 -7.82536,-6.46737 -9.97123,-9.46513c-2.14586,-2.99767 -2.94287,-5.59985 -1.88199,-7.0943c1.06078,-1.49454 3.78024,-1.60068 7.31808,-0.56391c3.53784,1.03676 7.89405,3.21642 12.22468,6.29045c4.33064,3.07403 7.82536,6.46737 9.97123,9.46513c2.14586,2.99767 2.94287,5.59985 1.88199,7.0943c-1.06078,1.49454 -3.78024,1.60068 -7.31808,0.56391z" id="ID0.4074811181053519" stroke-width="2.19076" stroke-linecap="butt"/><path d="M313.12113,289.03621c-3.33269,-0.89117 -7.40576,-2.86971 -11.42384,-5.72188c-4.01808,-2.85217 -7.22957,-6.04448 -9.17029,-8.89656c-1.94081,-2.85217 -2.61095,-5.36429 -1.55007,-6.85875c1.06088,-1.49454 3.65338,-1.69073 6.98607,-0.79956c3.33278,0.89126 7.40576,2.86971 11.42394,5.72197c4.01808,2.85217 7.22957,6.04439 9.17029,8.89656c1.94081,2.85217 2.61095,5.36429 1.55007,6.85875c-1.06088,1.49454 -3.65338,1.69073 -6.98616,0.79947z" id="ID0.4074811181053519" stroke-width="2.07001" stroke-linecap="butt"/></g></g><g data-paper-data="{&quot;origPos&quot;:null}" id="ID0.505328306928277" stroke="none"><path d="M324.2263,247.21584c5.76599,0 10.98972,2.34288 14.77298,6.12613c3.78326,3.78326 6.12604,9.00689 6.12604,14.77298c0,5.76599 -2.34279,10.98963 -6.12604,14.77289c-3.78326,3.78335 -9.00698,6.12613 -14.77298,6.12613c-5.76599,0 -10.98972,-2.34279 -14.77298,-6.12613c-3.78326,-3.78326 -6.12613,-9.00689 -6.12613,-14.77289c0,-5.76608 2.34288,-10.98972 6.12613,-14.77298c3.78326,-3.78326 9.00698,-6.12613 14.77298,-6.12613z" id="ID0.23879779409617186" fill="#ff561d" stroke-width="2.34681" stroke-linecap="butt"/><path d="M324.10893,251.10131c4.71626,0 8.98899,1.91633 12.08357,5.01091c3.09449,3.09449 5.01082,7.36722 5.01082,12.08348c0,4.71635 -1.91633,8.98899 -5.01082,12.08357c-3.09458,3.09449 -7.36731,5.01082 -12.08357,5.01082c-4.71626,0 -8.98899,-1.91633 -12.08357,-5.01082c-3.09449,-3.09458 -5.01082,-7.36722 -5.01082,-12.08357c0,-4.71626 1.91633,-8.98899 5.01082,-12.08348c3.09458,-3.09458 7.36731,-5.01091 12.08357,-5.01091z" id="ID0.23879779409617186" fill="#ff9e23" stroke-width="1.91957" stroke-linecap="butt"/><path d="M323.96781,256.3528c3.22309,0 6.14303,1.30959 8.25775,3.4243c2.11472,2.11472 3.4243,5.03466 3.4243,8.25775c0,3.223 -1.30959,6.14294 -3.4243,8.25766c-2.11472,2.11472 -5.03466,3.4243 -8.25775,3.4243c-3.223,0 -6.14294,-1.30959 -8.25766,-3.4243c-2.11472,-2.11472 -3.4243,-5.03466 -3.4243,-8.25766c0,-3.22309 1.30959,-6.14303 3.4243,-8.25775c2.11472,-2.11472 5.03466,-3.4243 8.25766,-3.4243z" id="ID0.23879779409617186" fill="#ffe21d" stroke-width="1.3118" stroke-linecap="butt"/><path d="M317.9985,248.43245l12.96807,-4.81317v5.57309z" id="ID0.979667681735009" fill="#ff561d" stroke-width="1.92751" stroke-linecap="round"/><path d="M330.06827,288.14363l-12.96816,4.81308v-5.57309z" id="ID0.979667681735009" fill="#ff561d" stroke-width="1.92751" stroke-linecap="round"/><path d="M343.63681,261.39905l5.89551,12.51331l-5.553,0.47258z" id="ID0.979667681735009" fill="#ff561d" stroke-width="1.92751" stroke-linecap="round"/><path d="M304.9665,275.13865l-5.89551,-12.51331l5.553,-0.47258z" id="ID0.979667681735009" fill="#ff561d" stroke-width="1.92751" stroke-linecap="round"/><path d="M334.23278,249.54146l12.30195,6.32461l-4.11362,3.76006z" id="ID0.979667681735009" fill="#ff561d" stroke-width="1.92751" stroke-linecap="round"/><path d="M307.22862,256.6153l6.80577,-12.04247l3.59456,4.25885z" id="ID0.979667681735009" fill="#ff561d" stroke-width="1.92751" stroke-linecap="round"/><path d="M342.35654,277.5789l-4.86441,12.94898l-4.20916,-3.65265z" id="ID0.979667681735009" fill="#ff561d" stroke-width="1.92751" stroke-linecap="round"/><path d="M313.64338,286.10116l-12.67461,-5.54021l3.86957,-4.01078z" id="ID0.979667681735009" fill="#ff561d" stroke-width="1.92751" stroke-linecap="round"/></g><path d="M92.325,254.80001c9.0558,0 17.26148,3.67777 23.2055,9.6195c5.94173,5.94402 9.6195,14.14969 9.6195,23.2055c0,9.0558 -3.67777,17.26148 -9.6195,23.2055c-5.94402,5.94173 -14.14969,9.6195 -23.2055,9.6195c-9.0558,0 -17.26148,-3.67777 -23.2055,-9.6195c-5.94173,-5.94402 -9.6195,-14.14969 -9.6195,-23.2055c0,-9.0558 3.67777,-17.26148 9.6195,-23.2055c5.94402,-5.94173 14.14969,-9.6195 23.2055,-9.6195z" data-paper-data="{&quot;origPos&quot;:null}" id="ID0.5567860365845263" fill="url(#color-9)" stroke="#da5757" stroke-width="2" stroke-linecap="butt"/><g data-paper-data="{&quot;origPos&quot;:null}" stroke="none"><path d="M85.48659,299.00149c2.86646,1.80738 5.07356,4.0643 6.32566,6.24931c1.252,2.18501 1.54622,4.29892 0.58599,5.82186c-0.96023,1.52297 -2.99442,2.16867 -5.50576,1.98089c-2.51134,-0.18776 -5.4992,-1.20633 -8.36567,-3.01374c-2.86656,-1.80738 -5.07366,-4.0643 -6.32566,-6.24931c-1.25209,-2.1851 -1.54634,-4.29892 -0.58608,-5.82186c0.96023,-1.52297 2.99442,-2.16867 5.50576,-1.98089c2.51134,0.18776 5.4992,1.20633 8.36578,3.01374z" id="ID0.067250931635499" fill="#81eb2a" stroke-width="2.05882" stroke-linecap="butt"/><path d="M108.25737,295.59164c2.51134,-0.18776 4.5455,0.45795 5.50576,1.98089c0.96023,1.52297 0.66601,3.63676 -0.58608,5.82186c-1.252,2.18501 -3.4591,4.4419 -6.32566,6.24931c-2.86646,1.80738 -5.85435,2.82595 -8.36567,3.01374c-2.51134,0.18776 -4.5455,-0.45795 -5.50576,-1.98089c-0.96023,-1.52297 -0.66601,-3.63685 0.58599,-5.82186c1.25209,-2.18501 3.45919,-4.4419 6.32566,-6.24931c2.86656,-1.80738 5.85444,-2.82595 8.36578,-3.01374z" id="ID0.067250931635499" fill="#81eb2a" stroke-width="2.05882" stroke-linecap="butt"/><path d="M90.37485,285.96455h4.56473v24.40597h-4.56473z" id="ID0.4741013334132731" fill="#81eb2a" stroke-width="0.97987" stroke-linecap="butt"/><path d="M92.51579,261.84855c6.01141,0 11.45834,1.65092 15.4019,4.31791c3.94457,2.66601 6.38576,6.34912 6.38576,10.41351c0,4.06439 -2.44122,7.7475 -6.38576,10.41351c-3.94356,2.66702 -9.39049,4.31791 -15.4019,4.31791c-6.01141,0 -11.45834,-1.65092 -15.4019,-4.31791c-3.94457,-2.66601 -6.38576,-6.34912 -6.38576,-10.41351c0,-4.06439 2.44122,-7.7475 6.38576,-10.41351c3.94356,-2.66702 9.39049,-4.31791 15.4019,-4.31791z" id="ID0.8194569833576679" fill="#ff3e23" stroke-width="1" stroke-linecap="butt"/><path d="M92.42575,264.9426c4.85033,0 9.24531,1.33211 12.42719,3.48406c3.18278,2.15103 5.15248,5.12288 5.15248,8.40221c0,3.27945 -1.96971,6.25119 -5.15248,8.40233c-3.18188,2.15192 -7.57686,3.48406 -12.42719,3.48406c-4.85042,0 -9.2454,-1.33211 -12.4273,-3.48406c-3.18278,-2.15114 -5.15248,-5.12288 -5.15248,-8.40233c0,-3.27934 1.96971,-6.25119 5.15248,-8.40221c3.18188,-2.15192 7.57686,-3.48406 12.4273,-3.48406z" id="ID0.8194569833576679" fill="#ffd41d" stroke-width="0.80687" stroke-linecap="butt"/><path d="M92.5961,267.90621c3.68222,0 7.01862,1.01124 9.43417,2.64484c2.41626,1.63309 3.91157,3.88909 3.91157,6.37875c0,2.48954 -1.49533,4.74554 -3.91157,6.37864c-2.41555,1.63357 -5.75195,2.64484 -9.43417,2.64484c-3.68222,0 -7.01862,-1.01124 -9.43426,-2.64484c-2.41615,-1.63309 -3.91148,-3.88909 -3.91148,-6.37864c0,-2.48964 1.49533,-4.74566 3.91148,-6.37875c2.41567,-1.63357 5.75204,-2.64484 9.43426,-2.64484z" id="ID0.8194569833576679" fill="#ffffff" stroke-width="0.61254" stroke-linecap="butt"/><g id="ID0.04460352612659335" stroke-width="1"><path d="M88.55438,272.89095c0.53084,0.01288 1.05077,0.45953 1.26566,0.94479c0.42387,0.95469 0.56647,1.8995 0.56647,3.11564c0,1.21614 -0.13073,2.16986 -0.56647,3.11564c-0.23274,0.50806 -0.79921,0.90517 -1.3647,0.89527c-0.52586,0.0099 -1.10721,-0.36445 -1.3647,-0.89527c-0.45753,-0.93489 -0.56647,-1.8995 -0.56647,-3.11564c0,-1.21614 0.09209,-2.18471 0.56647,-3.11564c0.27234,-0.53776 0.8933,-0.93191 1.46373,-0.94479z" id="ID0.13159783789888024" fill="#000000" stroke-linecap="round"/><path d="M88.45534,273.6337c0.27335,0 0.52091,0.11093 0.70018,0.29017c0.17926,0.17926 0.29017,0.42685 0.29017,0.70018c0,0.27335 -0.11093,0.52091 -0.29017,0.70018c-0.17926,0.17926 -0.42685,0.29017 -0.70018,0.29017c-0.27335,0 -0.52091,-0.11093 -0.70018,-0.29017c-0.17926,-0.17926 -0.29017,-0.42685 -0.29017,-0.70018c0,-0.27335 0.11093,-0.52091 0.29017,-0.70018c0.17926,-0.17926 0.42685,-0.29017 0.70018,-0.29017z" id="ID0.8673957432620227" fill="#ffffff" stroke-linecap="butt"/></g><g id="ID0.04460352612659335" stroke-width="1"><path d="M96.37814,272.94046c0.53084,0.01288 1.05077,0.45953 1.26566,0.94479c0.42387,0.95469 0.56647,1.8995 0.56647,3.11564c0,1.21614 -0.13073,2.16986 -0.56647,3.11564c-0.23274,0.50806 -0.79921,0.90517 -1.3647,0.89527c-0.52586,0.0099 -1.10721,-0.36445 -1.3647,-0.89527c-0.45753,-0.93489 -0.56647,-1.8995 -0.56647,-3.11564c0,-1.21614 0.09209,-2.18471 0.56647,-3.11564c0.27234,-0.53776 0.8933,-0.93191 1.46373,-0.94479z" id="ID0.13159783789888024" fill="#000000" stroke-linecap="round"/><path d="M96.2791,273.68321c0.27335,0 0.52091,0.11093 0.70018,0.29017c0.17926,0.17926 0.29017,0.42685 0.29017,0.70018c0,0.27335 -0.11093,0.52091 -0.29017,0.70018c-0.17926,0.17926 -0.42685,0.29017 -0.70018,0.29017c-0.27335,0 -0.52091,-0.11093 -0.70018,-0.29017c-0.17926,-0.17926 -0.29017,-0.42685 -0.29017,-0.70018c0,-0.27335 0.11093,-0.52091 0.29017,-0.70018c0.17926,-0.17926 0.42685,-0.29017 0.70018,-0.29017z" id="ID0.8673957432620227" fill="#ffffff" stroke-linecap="butt"/></g></g><text transform="translate(62.772,45.84276) scale(2.14679,2.14679)" font-size="22" xml:space="preserve" data-paper-data="{&quot;origPos&quot;:null}" id="ID0.16084741614758968" fill="#a1f3f9" fill-rule="nonzero" stroke="none" stroke-width="1" stroke-linecap="butt" stroke-linejoin="miter" stroke-miterlimit="10" stroke-dasharray="" stroke-dashoffset="0" font-family="Sans Serif" font-weight="400" text-anchor="start" style="mix-blend-mode: normal"><tspan x="0" dy="0">Guide</tspan></text><text transform="translate(210.114,28.80252) scale(0.77297,0.77296)" font-size="22" xml:space="preserve" data-paper-data="{&quot;origPos&quot;:null}" id="ID0.35283531714230776" fill="#a1f3f9" fill-rule="nonzero" stroke="none" stroke-width="1" stroke-linecap="butt" stroke-linejoin="miter" stroke-miterlimit="10" stroke-dasharray="" stroke-dashoffset="0" font-family="Sans Serif" font-weight="400" text-anchor="start" style="mix-blend-mode: normal"><tspan x="0" dy="0">Use the arrow keys</tspan><tspan x="0" dy="24.86px">or tap to navigate</tspan></text></g></g></svg>