<svg version="1.1" xmlns="http://www.w3.org/2000/svg" xmlns:xlink="http://www.w3.org/1999/xlink" width="105.89106" height="89.24254" viewBox="0,0,105.89106,89.24254"><defs><linearGradient x1="237.47652" y1="169.24612" x2="237.47652" y2="187.05922" gradientUnits="userSpaceOnUse" id="color-1"><stop offset="0" stop-color="#edf3f8"/><stop offset="1" stop-color="#cedee9"/></linearGradient><linearGradient x1="239.83986" y1="176.59302" x2="239.83986" y2="179.03557" gradientUnits="userSpaceOnUse" id="color-2"><stop offset="0" stop-color="#ff4040"/><stop offset="1" stop-color="#c33131"/></linearGradient><linearGradient x1="243.93017" y1="181.43277" x2="240.07437" y2="181.83649" gradientUnits="userSpaceOnUse" id="color-3"><stop offset="0" stop-color="#ffffff"/><stop offset="1" stop-color="#ffffff" stop-opacity="0"/></linearGradient><linearGradient x1="235.84439" y1="181.4112" x2="239.70535" y2="181.75268" gradientUnits="userSpaceOnUse" id="color-4"><stop offset="0" stop-color="#979797"/><stop offset="1" stop-color="#979797" stop-opacity="0"/></linearGradient><linearGradient x1="239.65742" y1="186.09926" x2="239.65742" y2="189.27782" gradientUnits="userSpaceOnUse" id="color-5"><stop offset="0" stop-color="#ff4040"/><stop offset="1" stop-color="#c33131"/></linearGradient><linearGradient x1="224.42593" y1="187.15878" x2="229.82618" y2="187.15878" gradientUnits="userSpaceOnUse" id="color-6"><stop offset="0" stop-color="#c33131"/><stop offset="1" stop-color="#ff4040"/></linearGradient><linearGradient x1="249.44292" y1="187.15878" x2="254.84318" y2="187.15878" gradientUnits="userSpaceOnUse" id="color-7"><stop offset="0" stop-color="#c33131"/><stop offset="1" stop-color="#ff4040"/></linearGradient><radialGradient cx="239.83305" cy="186.44244" r="3.37631" gradientUnits="userSpaceOnUse" id="color-8"><stop offset="0" stop-color="#65ceff"/><stop offset="1" stop-color="#3f99ff"/></radialGradient><linearGradient x1="225.54979" y1="195.32289" x2="229.4252" y2="195.32289" gradientUnits="userSpaceOnUse" id="color-9"><stop offset="0" stop-color="#d6dde2"/><stop offset="1" stop-color="#d6dde2" stop-opacity="0"/></linearGradient><linearGradient x1="249.97666" y1="195.3833" x2="253.85207" y2="195.3833" gradientUnits="userSpaceOnUse" id="color-10"><stop offset="0" stop-color="#d6dde2"/><stop offset="1" stop-color="#d6dde2" stop-opacity="0"/></linearGradient><linearGradient x1="236.1191" y1="196.89358" x2="239.99452" y2="196.89358" gradientUnits="userSpaceOnUse" id="color-11"><stop offset="0" stop-color="#d6dde2"/><stop offset="1" stop-color="#d6dde2" stop-opacity="0"/></linearGradient><linearGradient x1="243.57635" y1="196.95399" x2="239.70093" y2="196.95399" gradientUnits="userSpaceOnUse" id="color-12"><stop offset="0" stop-color="#ffffff"/><stop offset="1" stop-color="#ffffff" stop-opacity="0"/></linearGradient><linearGradient x1="214.8159" y1="186.21263" x2="214.8159" y2="189.30212" gradientUnits="userSpaceOnUse" id="color-13"><stop offset="0" stop-color="#ff4040"/><stop offset="1" stop-color="#c33131"/></linearGradient><linearGradient x1="199.5844" y1="187.24245" x2="204.98466" y2="187.24245" gradientUnits="userSpaceOnUse" id="color-14"><stop offset="0" stop-color="#c33131"/><stop offset="1" stop-color="#ff4040"/></linearGradient><linearGradient x1="200.70826" y1="195.1778" x2="204.58368" y2="195.1778" gradientUnits="userSpaceOnUse" id="color-15"><stop offset="0" stop-color="#d6dde2"/><stop offset="1" stop-color="#d6dde2" stop-opacity="0"/></linearGradient><linearGradient x1="239.81427" y1="164.83784" x2="239.81427" y2="169.61208" gradientUnits="userSpaceOnUse" id="color-16"><stop offset="0" stop-color="#ff4040"/><stop offset="1" stop-color="#c33131"/></linearGradient><linearGradient x1="265.48575" y1="186.33322" x2="265.48575" y2="189.42271" gradientUnits="userSpaceOnUse" id="color-17"><stop offset="0" stop-color="#ff4040"/><stop offset="1" stop-color="#c33131"/></linearGradient><linearGradient x1="280.71724" y1="187.36304" x2="275.31698" y2="187.36304" gradientUnits="userSpaceOnUse" id="color-18"><stop offset="0" stop-color="#c33131"/><stop offset="1" stop-color="#ff4040"/></linearGradient><linearGradient x1="279.59337" y1="195.29839" x2="275.71796" y2="195.29839" gradientUnits="userSpaceOnUse" id="color-19"><stop offset="0" stop-color="#d6dde2"/><stop offset="1" stop-color="#d6dde2" stop-opacity="0"/></linearGradient></defs><g transform="translate(-186.02905,-164.83784)"><g data-paper-data="{&quot;isPaintingLayer&quot;:true}" fill-rule="nonzero" stroke-linejoin="miter" stroke-miterlimit="10" stroke-dasharray="" stroke-dashoffset="0" style="mix-blend-mode: normal"><path d="M187.125,197.95c0,0 2.01576,21.86372 4.56622,30.1527c2.4451,7.94657 10.43378,18.5973 10.43378,18.5973c0,0 4.94117,-9.12315 7.05687,-12.56116c1.84797,-3.00295 4.94313,-6.93884 4.94313,-6.93884c0,0 4.16208,10.07415 6.4,14.55c1.98055,3.96111 6.35,10.95 6.35,10.95c0,0 9.35434,-5.88419 12.42121,-9.93077c2.92655,-3.86142 5.57879,-13.81923 5.57879,-13.81923c0,0 5.02807,6.11954 7.21762,9.87306c1.82829,3.13421 5.03238,11.12694 5.03238,11.12694c0,0 7.45677,-5.83254 10.14758,-9.44831c2.64162,-3.54967 4.12114,-11.74351 5.85242,-12.05169c5.15925,-0.91837 12,11 12,11c0,0 4.31255,-12.25043 5.14615,-18.91923c0.90974,-7.27789 0.10385,-23.08077 0.10385,-23.08077z" fill="#c06520" stroke="#763e13" stroke-width="2" stroke-linecap="round"/><path d="M239.14051,188.48583c14.28597,0 27.23035,1.01998 36.60376,2.6686c9.37341,1.64862 15.17585,3.92588 15.17585,6.43836c0,2.51248 -5.80244,4.78975 -15.17585,6.43837c-9.37341,1.64862 -22.31779,2.6686 -36.60376,2.6686c-14.28597,0 -27.23035,-1.01998 -36.60376,-2.6686c-9.37341,-1.64862 -15.17585,-3.92589 -15.17585,-6.43837c0,-2.51248 5.80244,-4.78974 15.17585,-6.43836c9.37341,-1.64862 22.31779,-2.6686 36.60376,-2.6686z" data-paper-data="{&quot;origPos&quot;:null}" fill="#78de56" stroke="#006521" stroke-width="2" stroke-linecap="butt"/><path d="M199.55041,220.04516l5.1261,11.65023" fill="none" stroke="#763e13" stroke-width="2.70749" stroke-linecap="round"/><path d="M231.31909,224.0353l-5.1261,-9.32018" fill="none" stroke="#763e13" stroke-width="2.70749" stroke-linecap="round"/><path d="M255.00553,219.11315l6.52413,12.11624" fill="none" stroke="#763e13" stroke-width="2.70749" stroke-linecap="round"/><path d="M235.44741,232.06709l-5.59211,8.38817" fill="none" stroke="#763e13" stroke-width="2.70749" stroke-linecap="round"/><path d="M276.44194,215.38507l7.92216,7.45615" fill="none" stroke="#763e13" stroke-width="2.70749" stroke-linecap="round"/><path d="M213.9967,213.98705l-3.72807,3.26206" fill="none" stroke="#763e13" stroke-width="2.70749" stroke-linecap="round"/><path d="M203.7445,208.86094l-8.38817,0.46601" fill="none" stroke="#763e13" stroke-width="2.70749" stroke-linecap="round"/><path d="M265.72373,213.05503l4.66009,-2.79606" fill="none" stroke="#763e13" stroke-width="2.70749" stroke-linecap="round"/><path d="M233.78585,200.08747c0.1148,0.00213 0.21913,0.27516 0.21623,0.55724c-0.00291,0.28207 -0.03706,0.54964 -0.03706,0.54964l-0.34455,-0.00109c0,0 -0.03569,-0.44185 -0.03335,-0.66873c0.00291,-0.28207 0.08394,-0.43919 0.19874,-0.43706z" data-paper-data="{&quot;origRot&quot;:0,&quot;origPos&quot;:null}" fill="#ff0021" stroke="none" stroke-width="0" stroke-linecap="butt"/><path d="M233.774,201.02c0.20268,-0.00649 0.4538,-0.00328 0.44815,0.21039c-0.0041,0.15501 -0.2112,0.37836 -0.41024,0.33957c-0.21719,-0.04234 -0.24058,-0.54347 -0.0379,-0.54996z" data-paper-data="{&quot;origRot&quot;:0,&quot;origPos&quot;:null}" fill="#ffffff" stroke="none" stroke-width="0" stroke-linecap="butt"/><g data-paper-data="{&quot;origPos&quot;:null}" stroke="none" stroke-width="0" stroke-linecap="butt"><path d="M233.82635,201.01681c0.0054,0.17859 0.11686,0.24854 0.11339,0.28867c-0.01403,0.16233 -0.05658,0.27672 -0.20505,0.35311c-0.18392,0.09464 -0.3284,0.07247 -0.49327,-0.10296c-0.11229,-0.11949 -0.01357,-0.22272 0.02912,-0.44567c0.01532,-0.08 0.02667,-0.18464 0.03746,-0.39652c0.0135,-0.26493 0.09215,-0.74747 0.09215,-0.74747c0,0 0.11517,-0.03177 0.22884,-0.03487c0.11245,-0.00091 0.22435,0.08268 0.22435,0.08268c0,0 -0.03948,0.5902 -0.027,1.00303z" data-paper-data="{&quot;origPos&quot;:null}" fill="#0052ef"/><path d="M233.98112,201.88567c0,0.1526 -0.08568,0.22449 -0.16686,0.26498c-0.0532,0.02653 -0.31123,0.01285 -0.43928,-0.12307c-0.03975,-0.04219 -0.07203,-0.13799 -0.07203,-0.13799c0,0 -0.10878,0.02974 -0.10847,-0.02729c0.00025,-0.04525 -0.00038,-0.12235 0.02382,-0.14584c0.10417,-0.10111 0.35092,-0.10087 0.46909,-0.10087c0.16222,0 0.29373,0.12092 0.29373,0.27009z" data-paper-data="{&quot;origPos&quot;:null}" fill="#f9c869"/><path d="M234.03848,201.69398c-0.02951,0.17862 -0.12815,0.30628 -0.31155,0.30628c-0.1834,0 -0.37958,-0.19278 -0.37958,-0.19278c0,0 -0.13277,0.01267 -0.13546,-0.04908c-0.00556,-0.12777 -0.00683,-0.33626 0.01986,-0.34307c0.09852,-0.02517 0.07991,-0.001 0.20874,-0.05091c0.08341,-0.03231 0.22275,-0.17636 0.30805,-0.17636c0.1834,0 0.33855,0.21182 0.28995,0.50591z" fill="#8e4108"/></g><g data-paper-data="{&quot;origPos&quot;:null}" stroke="none" stroke-width="0" stroke-linecap="butt"><path d="M233.34041,201.01637c0.0054,0.1795 0.11686,0.24983 0.11339,0.29016c-0.01403,0.16316 -0.05658,0.27813 -0.20505,0.35491c-0.18392,0.09512 -0.3284,0.07284 -0.49327,-0.10348c-0.11229,-0.1201 -0.01357,-0.22385 0.02912,-0.44794c0.01532,-0.0804 0.02667,-0.18558 0.03746,-0.39854c0.0135,-0.26628 0.10835,-0.76112 0.10835,-0.76112c0,0 0.16376,-0.00242 0.27204,0.03381c0.08545,0.0286 0.22435,0.13226 0.22435,0.13226c0,0 -0.09887,0.48503 -0.08639,0.89994z" data-paper-data="{&quot;origPos&quot;:null}" fill="#0052ef"/><path d="M233.49516,201.88966c0,0.15338 -0.08568,0.22564 -0.16686,0.26633c-0.0532,0.02667 -0.31123,0.01291 -0.43928,-0.1237c-0.03975,-0.04241 -0.07203,-0.13869 -0.07203,-0.13869c0,0 -0.10879,0.02989 -0.10847,-0.02743c0.00025,-0.04548 -0.00038,-0.12297 0.02382,-0.14658c0.10417,-0.10162 0.35092,-0.10139 0.46909,-0.10139c0.16222,0 0.29373,0.12153 0.29373,0.27147z" data-paper-data="{&quot;origPos&quot;:null}" fill="#f9c869"/><path d="M233.53587,201.697c-0.02951,0.17953 -0.12815,0.30784 -0.31155,0.30784c-0.1834,0 -0.37958,-0.19376 -0.37958,-0.19376c0,0 -0.13277,0.01273 -0.13546,-0.04931c-0.00556,-0.12842 -0.00683,-0.33797 0.01986,-0.34484c0.09852,-0.0253 0.07991,-0.001 0.20874,-0.05117c0.08341,-0.03248 0.22275,-0.17726 0.30805,-0.17726c0.1834,0 0.33854,0.21289 0.28995,0.50849z" data-paper-data="{&quot;origPos&quot;:null}" fill="#8e4108"/></g><path d="M233.12309,200.5981c-0.04279,0.2184 -0.16489,0.62945 -0.16489,0.62945l-0.33232,-0.12149c0,0 0.02019,-0.26872 0.07338,-0.54026c0.05319,-0.27155 0.20796,-0.49629 0.31903,-0.45749c0.11107,0.03878 0.15799,0.21826 0.1048,0.48981z" data-paper-data="{&quot;origRot&quot;:0,&quot;origPos&quot;:null}" fill="#ff0021" stroke="none" stroke-width="0" stroke-linecap="butt"/><path d="M232.80726,201.56253c-0.20217,-0.01563 -0.34231,-0.28607 -0.30497,-0.43657c0.05147,-0.20746 0.29437,-0.14366 0.488,-0.08342c0.19362,0.06024 0.03759,0.53704 -0.18303,0.51999z" data-paper-data="{&quot;origRot&quot;:0}" fill="#ffffff" stroke="none" stroke-width="0" stroke-linecap="butt"/><path d="M234.13207,199.62853c-0.0108,0.14294 0.02435,0.24027 -0.28617,0.23488c-0.14312,-0.00249 -0.28077,-0.09194 -0.28077,-0.21868c0,-0.12674 0.13807,-0.28316 0.28077,-0.29427c0.20793,-0.0162 0.30345,0.0494 0.28617,0.27808z" data-paper-data="{&quot;origPos&quot;:null}" fill="#ffdebd" stroke="none" stroke-width="0" stroke-linecap="butt"/><path d="M233.78844,199.09511c0.11716,0.00651 0.21032,0.27383 0.24407,0.51988c0.01958,0.14277 0.01916,0.27837 -0.0082,0.35172c-0.02872,0.07701 -0.29674,0.22508 -0.52974,0.22987c-0.32936,0.00677 -0.42275,-0.04655 -0.55854,-0.15005c-0.08622,-0.06572 -0.16313,-0.3117 -0.16733,-0.3117c-0.22398,0 -0.34711,-0.18502 -0.34711,-0.35997c0,-0.17495 0.07993,-0.31677 0.20518,-0.31677c0.12525,0 1.03653,0.03005 1.16167,0.03701z" data-paper-data="{&quot;origPos&quot;:null}" fill="#ffdebd" stroke="none" stroke-width="0" stroke-linecap="butt"/><path d="M233.13124,199.34191c0,0.06721 0.07879,0.16552 0.01835,0.1949c-0.07031,0.03419 -0.09131,0.02747 -0.18545,0.04509c-0.06993,0.01309 -0.09422,-0.1335 -0.09422,-0.24734c0,-0.11383 0.26134,-0.10647 0.26134,0.00736z" data-paper-data="{&quot;origPos&quot;:null}" fill="#5a2c0a" stroke="none" stroke-width="0" stroke-linecap="butt"/><path d="M234.03193,198.50198c0.05176,0.32277 -0.01063,0.34113 -0.18405,0.44446c-0.25269,0.15056 -0.58322,0.12008 -0.85313,0.237c-0.07087,0.0307 -0.25151,-0.04389 -0.32874,-0.04389c-0.15797,0 -0.12197,-0.54513 0.03599,-0.54513c0,0 0.17385,0.02882 0.2339,0.12105c0,0 0.24185,-0.39349 0.49678,-0.44211c0.32818,-0.06258 0.56207,-0.00317 0.59924,0.22862z" data-paper-data="{&quot;origPos&quot;:null}" fill="#ff0021" stroke="none" stroke-width="0" stroke-linecap="butt"/><path d="M233.96942,198.6861c0,0.11809 -0.0316,0.20694 -0.26349,0.21382c-0.2448,0.00727 -0.26349,-0.09573 -0.26349,-0.21382c0,-0.11809 0.11797,-0.21382 0.26349,-0.21382c0.14552,0 0.26349,0.09573 0.26349,0.21382z" data-paper-data="{&quot;origPos&quot;:null}" fill="#ffffff" stroke="none" stroke-width="0" stroke-linecap="butt"/><path d="M234.34522,199.04031c-0.00432,0.01854 -0.84972,0.14039 -1.08637,0.1663c-0.11501,0.0126 -0.34772,0.00342 -0.34341,-0.01512c0.01597,-0.06854 0.76014,-0.38987 1.10154,-0.38465c0.13956,0.00213 0.34421,0.16493 0.32824,0.23347z" data-paper-data="{&quot;origPos&quot;:null}" fill="#bc041a" stroke="none" stroke-width="0" stroke-linecap="butt"/><path d="M233.92977,200.0652c-0.09529,0.02584 -0.23409,0.02208 -0.32863,-0.00641c-0.05433,-0.01638 -0.12468,-0.02259 -0.1953,-0.02259c-0.11332,0 -0.18104,-0.38245 -0.16259,-0.38597c0.10742,-0.02055 0.49805,0.20957 0.62702,0.20223c0,0 0.2981,0.01906 0.25331,0.04365c-0.0465,0.02553 -0.01685,0.09296 -0.04638,0.12387c-0.03773,0.03949 -0.12991,0.04047 -0.14742,0.04522z" data-paper-data="{&quot;origPos&quot;:null}" fill="#38291e" stroke="none" stroke-width="0" stroke-linecap="butt"/><path d="M237.47652,169.24612h4.74161v17.8131h-4.74161z" fill="url(#color-1)" stroke="none" stroke-width="1.11058" stroke-linecap="butt"/><path d="M235.98319,176.59302h7.71332v2.44255h-7.71332z" fill="url(#color-2)" stroke="none" stroke-width="1.06271" stroke-linecap="butt"/><path d="M244.46775,189.21278c0.04785,0.10663 0.07745,0.25384 0.07745,0.41635c0,0.16251 -0.0296,0.30973 -0.07745,0.41636c-0.0478,0.10663 -0.11385,0.17265 -0.18678,0.17265c-0.07293,0 -0.13899,-0.06603 -0.18679,-0.17265c-0.04785,-0.10663 -0.07745,-0.25385 -0.07745,-0.41636c0,-0.16251 0.0296,-0.30972 0.07745,-0.41635c0.0478,-0.10663 0.11386,-0.17266 0.18679,-0.17266c0.07293,0 0.13899,0.06603 0.18678,0.17266z" fill="#000000" stroke="none" stroke-width="1" stroke-linecap="butt"/><g data-paper-data="{&quot;origRot&quot;:0}" stroke="none"><path d="M244.33762,185.96016l-8.86128,-0.11045l0.6081,-6.97154l1.75638,-1.68175l4.22654,0.00093l1.61467,1.62733z" data-paper-data="{&quot;origPos&quot;:null}" fill="#ebf2f7" stroke-width="2.16315" stroke-linecap="round"/><path d="M240.6707,187.90664l-1.05352,-10.72396l2.44217,0.02541l1.65011,1.66643l0.81703,8.62841z" data-paper-data="{&quot;origPos&quot;:null,&quot;index&quot;:null,&quot;origRot&quot;:0}" fill="url(#color-3)" stroke-width="0" stroke-linecap="butt"/><path d="M235.33227,187.49029l0.72381,-8.59192l1.77778,-1.70319l2.2599,-0.02747l-0.90053,10.66406z" data-paper-data="{&quot;origPos&quot;:null,&quot;origRot&quot;:0}" fill="url(#color-4)" stroke-width="0" stroke-linecap="butt"/></g><path d="M227.88763,187.86512l5.12332,-1.76586h3.4617h6.92341l3.32323,0.11773l4.98486,1.53042l0.55387,1.53042h-25.2012z" fill="url(#color-5)" stroke="none" stroke-width="2.16315" stroke-linecap="round"/><path d="M224.49338,189.27782h30.32453v9.5789h-30.32453z" fill="#ebf2f7" stroke="none" stroke-width="9.46438" stroke-linecap="butt"/><path d="M224.42593,189.27782l2.63089,-4.23808l2.76937,4.23808z" fill="url(#color-6)" stroke="none" stroke-width="2.16315" stroke-linecap="round"/><path d="M249.44292,189.27782l2.63089,-4.23808l2.76937,4.23808z" fill="url(#color-7)" stroke="none" stroke-width="2.16315" stroke-linecap="round"/><path d="M237.394,180.32766h5.53872l1.80009,6.82802h-9.83124z" fill="#ff4040" stroke="none" stroke-width="2.16315" stroke-linecap="round"/><path d="M236.03045,184.77348l3.80788,-2.96785l3.80787,2.96785v6.04984h-7.61575z" fill="#d6dde2" stroke="none" stroke-width="2.65368" stroke-linecap="round"/><path d="M236.76501,185.23422l3.11208,-2.26542l3.024,2.26542v4.68187h-6.13608z" fill="url(#color-8)" stroke="none" stroke-width="1" stroke-linecap="round"/><path d="M225.54979,198.28909v-9.06773h3.87541v9.06773z" fill="url(#color-9)" stroke="none" stroke-width="0" stroke-linecap="butt"/><path d="M249.97666,198.3495v-9.06773h3.87542v9.06773z" fill="url(#color-10)" stroke="none" stroke-width="0" stroke-linecap="butt"/><path d="M236.1191,199.01565v-8.2236h3.87542v8.2236z" fill="url(#color-11)" stroke="none" stroke-width="0" stroke-linecap="butt"/><path d="M239.70093,199.07606v-8.2236h3.87542v8.2236z" data-paper-data="{&quot;index&quot;:null}" fill="url(#color-12)" stroke="none" stroke-width="0" stroke-linecap="butt"/><g fill="#99ffff" stroke="#84c3c3" stroke-width="0.5" stroke-linecap="butt"><path d="M226.01953,192.63459h0.93949v0.96658h-0.93949z"/><path d="M227.28198,192.63459h0.93949v0.96658h-0.93949z"/><path d="M227.25262,193.96364h0.93949v0.96658h-0.93949z"/><path d="M226.01953,193.96364h0.93949v0.96658h-0.93949z"/></g><g stroke="none" stroke-linecap="butt"><path d="M249.44819,195.52508h1.64411v8.3428h-1.64411z" data-paper-data="{&quot;origPos&quot;:null}" fill="#aa5e35" stroke-width="2.07153"/><path d="M250.27025,193.41646c0.64801,0 1.2352,0.27077 1.66038,0.7082c0.42518,0.43743 0.68836,1.04155 0.68836,1.70825c0,0.6667 -0.26318,1.27081 -0.68836,1.70825c-0.42518,0.43743 -1.01237,0.7082 -1.66038,0.7082c-0.64801,0 -1.2352,-0.27077 -1.66038,-0.7082c-0.42518,-0.43743 -0.68836,-1.04155 -0.68836,-1.70825c0,-0.6667 0.26317,-1.27081 0.68836,-1.70825c0.42518,-0.43743 1.01236,-0.7082 1.66038,-0.7082z" data-paper-data="{&quot;origPos&quot;:null}" fill="#3abc3a" stroke-width="1"/><path d="M250.27025,191.12083c0.53457,0 1.019,0.2234 1.36979,0.58429c0.35079,0.36089 0.56793,0.85929 0.56793,1.40927c0,0.54998 -0.21714,1.04838 -0.56793,1.40928c-0.35079,0.36089 -0.83521,0.58429 -1.36979,0.58429c-0.53457,0 -1.01899,-0.2234 -1.36978,-0.58429c-0.35079,-0.36089 -0.56793,-0.85929 -0.56793,-1.40928c0,-0.54998 0.21714,-1.04838 0.56793,-1.40927c0.35079,-0.36089 0.83521,-0.58429 1.36978,-0.58429z" data-paper-data="{&quot;origPos&quot;:null}" fill="#3ec73d" stroke-width="1"/><path d="M250.29961,189.55014c0.3159,0 0.60216,0.132 0.80943,0.34525c0.20728,0.21325 0.33558,0.50775 0.33558,0.83276c0,0.32502 -0.1283,0.61952 -0.33558,0.83277c-0.20728,0.21325 -0.49353,0.34525 -0.80943,0.34525c-0.3159,0 -0.60216,-0.132 -0.80944,-0.34525c-0.20728,-0.21325 -0.33558,-0.50776 -0.33558,-0.83277c0,-0.32502 0.1283,-0.61952 0.33558,-0.83276c0.20728,-0.21325 0.49353,-0.34525 0.80944,-0.34525z" data-paper-data="{&quot;origPos&quot;:null}" fill="#42d642" stroke-width="1"/></g><g stroke="none" stroke-linecap="butt"><path d="M228.25083,195.5625h1.64412v8.58444h-1.64412z" data-paper-data="{&quot;origPos&quot;:null}" fill="#aa5e35" stroke-width="2.1101"/><path d="M229.07289,193.50707c0.64801,0 1.2352,0.27077 1.66038,0.7082c0.42518,0.43743 0.68836,1.04155 0.68836,1.70825c0,0.6667 -0.26317,1.27081 -0.68836,1.70825c-0.42518,0.43743 -1.01237,0.7082 -1.66038,0.7082c-0.64801,0 -1.2352,-0.27077 -1.66038,-0.7082c-0.42518,-0.43743 -0.68836,-1.04155 -0.68836,-1.70825c0,-0.6667 0.26318,-1.27081 0.68836,-1.70825c0.42518,-0.43743 1.01237,-0.7082 1.66038,-0.7082z" data-paper-data="{&quot;origPos&quot;:null}" fill="#3abc3a" stroke-width="1"/><path d="M229.07289,191.21145c0.53457,0 1.019,0.22341 1.36979,0.5843c0.35079,0.36089 0.56792,0.85928 0.56792,1.40927c0,0.54998 -0.21713,1.04838 -0.56792,1.40928c-0.35079,0.36089 -0.83521,0.58429 -1.36979,0.58429c-0.53457,0 -1.019,-0.2234 -1.36979,-0.58429c-0.35079,-0.36089 -0.56793,-0.85929 -0.56793,-1.40928c0,-0.54998 0.21714,-1.04837 0.56793,-1.40927c0.35079,-0.36089 0.83521,-0.5843 1.36979,-0.5843z" data-paper-data="{&quot;origPos&quot;:null}" fill="#3ec73d" stroke-width="1"/><path d="M229.10225,189.64076c0.3159,0 0.60216,0.132 0.80943,0.34525c0.20728,0.21325 0.33558,0.50775 0.33558,0.83277c0,0.32502 -0.12831,0.61952 -0.33558,0.83277c-0.20728,0.21325 -0.49353,0.34525 -0.80943,0.34525c-0.3159,0 -0.60216,-0.132 -0.80943,-0.34525c-0.20728,-0.21325 -0.33557,-0.50776 -0.33557,-0.83277c0,-0.32502 0.1283,-0.61952 0.33557,-0.83277c0.20728,-0.21325 0.49353,-0.34525 0.80943,-0.34525z" data-paper-data="{&quot;origPos&quot;:null}" fill="#42d642" stroke-width="1"/></g><g fill="#99ffff" stroke="#84c3c3" stroke-width="0.5" stroke-linecap="butt"><path d="M231.89138,194.14487h0.93949v0.96658h-0.93949z"/><path d="M233.15382,194.14487h0.93949v0.96658h-0.93949z"/><path d="M233.12446,195.47392h0.93949v0.96658h-0.93949z"/><path d="M231.89138,195.47392h0.93949v0.96658h-0.93949z"/></g><g fill="#99ffff" stroke="#84c3c3" stroke-width="0.5" stroke-linecap="butt"><path d="M244.19289,194.2959h0.93949v0.96658h-0.93949z"/><path d="M245.45534,194.2959h0.9395v0.96658h-0.9395z"/><path d="M245.42598,195.62494h0.93949v0.96658h-0.93949z"/><path d="M244.19289,195.62494h0.93949v0.96658h-0.93949z"/></g><g fill="#99ffff" stroke="#84c3c3" stroke-width="0.5" stroke-linecap="butt"><path d="M231.89138,190.58061h0.93949v0.96658h-0.93949z"/><path d="M233.15382,190.58061h0.93949v0.96658h-0.93949z"/><path d="M233.12446,191.90966h0.93949v0.96658h-0.93949z"/><path d="M231.89138,191.90966h0.93949v0.96658h-0.93949z"/></g><g fill="#99ffff" stroke="#84c3c3" stroke-width="0.5" stroke-linecap="butt"><path d="M244.19289,190.73164h0.93949v0.96658h-0.93949z"/><path d="M245.45534,190.73164h0.9395v0.96658h-0.9395z"/><path d="M245.42598,192.06069h0.93949v0.96658h-0.93949z"/><path d="M244.19289,192.06069h0.93949v0.96658h-0.93949z"/></g><path d="M203.04611,187.929l5.12332,-1.71638h3.46171h6.9234l3.32324,0.11443l4.98486,1.48753l0.55387,1.48754h-25.2012z" fill="url(#color-13)" stroke="none" stroke-width="2.16315" stroke-linecap="round"/><path d="M199.65185,189.30212h25.8627v9.22263h-25.8627z" fill="#ebf2f7" stroke="none" stroke-width="9.46438" stroke-linecap="butt"/><path d="M199.5844,189.30212l2.6309,-4.11933l2.76936,4.11933z" fill="url(#color-14)" stroke="none" stroke-width="2.16315" stroke-linecap="round"/><path d="M200.70826,197.97302v-8.72579h3.87542v8.72579z" fill="url(#color-15)" stroke="none" stroke-width="0" stroke-linecap="butt"/><g fill="#99ffff" stroke="#84c3c3" stroke-width="0.5" stroke-linecap="butt"><path d="M201.17801,192.56483h0.9395v0.93949h-0.9395z"/><path d="M202.44046,192.56483h0.93949v0.93949h-0.93949z"/><path d="M202.4111,193.85663h0.9395v0.93949h-0.9395z"/><path d="M201.17801,193.85663h0.9395v0.93949h-0.9395z"/></g><g stroke="none" stroke-linecap="butt"><path d="M213.39181,193.47214h1.64411v8.02116h-1.64411z" data-paper-data="{&quot;origPos&quot;:null}" fill="#aa5e35" stroke-width="2.07153"/><path d="M214.21386,191.42261c0.64801,0 1.2352,0.26317 1.66038,0.68836c0.42518,0.42518 0.68836,1.01237 0.68836,1.66038c0,0.64801 -0.26317,1.2352 -0.68836,1.66038c-0.42518,0.42518 -1.01237,0.68836 -1.66038,0.68836c-0.64801,0 -1.2352,-0.26317 -1.66038,-0.68836c-0.42518,-0.42518 -0.68836,-1.01237 -0.68836,-1.66038c0,-0.64801 0.26317,-1.2352 0.68836,-1.66038c0.42518,-0.42518 1.01237,-0.68836 1.66038,-0.68836z" data-paper-data="{&quot;origPos&quot;:null}" fill="#3abc3a" stroke-width="1"/><path d="M214.21386,189.19131c0.53457,0 1.019,0.21714 1.36978,0.56793c0.35079,0.35079 0.56793,0.83521 0.56793,1.36978c0,0.53457 -0.21714,1.019 -0.56793,1.36979c-0.35079,0.35079 -0.83521,0.56793 -1.36978,0.56793c-0.53457,0 -1.019,-0.21714 -1.36978,-0.56793c-0.35079,-0.35079 -0.56793,-0.83521 -0.56793,-1.36979c0,-0.53457 0.21714,-1.01899 0.56793,-1.36978c0.35079,-0.35079 0.83521,-0.56793 1.36978,-0.56793z" data-paper-data="{&quot;origPos&quot;:null}" fill="#3ec73d" stroke-width="1"/><path d="M214.24322,187.66463c0.3159,0 0.60216,0.1283 0.80943,0.33558c0.20728,0.20728 0.33558,0.49353 0.33558,0.80943c0,0.3159 -0.1283,0.60216 -0.33558,0.80943c-0.20728,0.20728 -0.49353,0.33558 -0.80943,0.33558c-0.3159,0 -0.60216,-0.1283 -0.80944,-0.33558c-0.20728,-0.20728 -0.33558,-0.49353 -0.33558,-0.80943c0,-0.3159 0.1283,-0.60216 0.33558,-0.80943c0.20728,-0.20728 0.49353,-0.33558 0.80944,-0.33558z" data-paper-data="{&quot;origPos&quot;:null}" fill="#42d642" stroke-width="1"/></g><g fill="#99ffff" stroke="#84c3c3" stroke-width="0.5" stroke-linecap="butt"><path d="M207.04985,194.03279h0.93949v0.9395h-0.93949z"/><path d="M208.3123,194.03279h0.93949v0.9395h-0.93949z"/><path d="M208.28294,195.32459h0.93949v0.93949h-0.93949z"/><path d="M207.04985,195.32459h0.93949v0.93949h-0.93949z"/></g><g fill="#99ffff" stroke="#84c3c3" stroke-width="0.5" stroke-linecap="butt"><path d="M219.35137,194.17958h0.9395v0.9395h-0.9395z"/><path d="M220.61381,194.17958h0.93949v0.9395h-0.93949z"/><path d="M220.58445,195.47139h0.93949v0.93949h-0.93949z"/><path d="M219.35137,195.47139h0.9395v0.93949h-0.9395z"/></g><g fill="#99ffff" stroke="#84c3c3" stroke-width="0.5" stroke-linecap="butt"><path d="M207.04985,190.5684h0.93949v0.93949h-0.93949z"/><path d="M208.3123,190.5684h0.93949v0.93949h-0.93949z"/><path d="M208.28294,191.86021h0.93949v0.93949h-0.93949z"/><path d="M207.04985,191.86021h0.93949v0.93949h-0.93949z"/></g><g fill="#99ffff" stroke="#84c3c3" stroke-width="0.5" stroke-linecap="butt"><path d="M219.35137,190.7152h0.9395v0.93949h-0.9395z"/><path d="M220.61381,190.7152h0.93949v0.93949h-0.93949z"/><path d="M220.58445,192.007h0.93949v0.93949h-0.93949z"/><path d="M219.35137,192.007h0.9395v0.93949h-0.9395z"/></g><g stroke="none" stroke-linecap="butt"><path d="M220.98897,195.30702h1.64411v8.02116h-1.64411z" data-paper-data="{&quot;origPos&quot;:null}" fill="#aa5e35" stroke-width="2.07153"/><path d="M221.81103,193.25749c0.64801,0 1.2352,0.26317 1.66038,0.68836c0.42518,0.42518 0.68836,1.01237 0.68836,1.66038c0,0.64801 -0.26317,1.2352 -0.68836,1.66038c-0.42518,0.42518 -1.01237,0.68836 -1.66038,0.68836c-0.64801,0 -1.2352,-0.26317 -1.66038,-0.68836c-0.42518,-0.42518 -0.68836,-1.01237 -0.68836,-1.66038c0,-0.64801 0.26318,-1.2352 0.68836,-1.66038c0.42518,-0.42518 1.01237,-0.68836 1.66038,-0.68836z" data-paper-data="{&quot;origPos&quot;:null}" fill="#3abc3a" stroke-width="1"/><path d="M221.81103,191.02619c0.53457,0 1.019,0.21714 1.36979,0.56793c0.35079,0.35079 0.56793,0.83521 0.56793,1.36978c0,0.53457 -0.21714,1.019 -0.56793,1.36979c-0.35079,0.35079 -0.83521,0.56793 -1.36979,0.56793c-0.53457,0 -1.019,-0.21714 -1.36979,-0.56793c-0.35079,-0.35079 -0.56793,-0.83521 -0.56793,-1.36979c0,-0.53457 0.21714,-1.01899 0.56793,-1.36978c0.35079,-0.35079 0.83521,-0.56793 1.36979,-0.56793z" data-paper-data="{&quot;origPos&quot;:null}" fill="#3ec73d" stroke-width="1"/><path d="M221.84039,189.49951c0.3159,0 0.60216,0.1283 0.80944,0.33558c0.20728,0.20728 0.33558,0.49353 0.33558,0.80944c0,0.3159 -0.1283,0.60215 -0.33558,0.80943c-0.20728,0.20728 -0.49353,0.33558 -0.80944,0.33558c-0.3159,0 -0.60216,-0.1283 -0.80944,-0.33558c-0.20728,-0.20728 -0.33557,-0.49353 -0.33557,-0.80943c0,-0.3159 0.1283,-0.60216 0.33557,-0.80944c0.20728,-0.20728 0.49353,-0.33558 0.80944,-0.33558z" data-paper-data="{&quot;origPos&quot;:null}" fill="#42d642" stroke-width="1"/></g><path d="M237.22821,169.61208l2.51974,-4.77424l2.65237,4.77424z" fill="url(#color-16)" stroke="none" stroke-width="1.06271" stroke-linecap="round"/><path d="M278.08635,189.42271h-25.2012l0.55387,-1.48754l4.98485,-1.48753l3.32324,-0.11443h6.92341h3.4617l5.12332,1.71638z" fill="url(#color-17)" stroke="none" stroke-width="2.16315" stroke-linecap="round"/><path d="M280.64979,198.64534h-25.8627v-9.22263h25.8627z" fill="#ebf2f7" stroke="none" stroke-width="9.46438" stroke-linecap="butt"/><path d="M275.31698,189.42271l2.76937,-4.11933l2.63089,4.11933z" fill="url(#color-18)" stroke="none" stroke-width="2.16315" stroke-linecap="round"/><path d="M275.71796,198.09361v-8.72579h3.87541v8.72579z" fill="url(#color-19)" stroke="none" stroke-width="0" stroke-linecap="butt"/><g fill="#99ffff" stroke="#84c3c3" stroke-width="0.5" stroke-linecap="butt"><path d="M279.12363,193.62492h-0.9395v-0.93949h0.9395z"/><path d="M277.86118,193.62492h-0.93949v-0.93949h0.93949z"/><path d="M277.89054,194.91672h-0.93949v-0.9395h0.93949z"/><path d="M279.12363,194.91672h-0.9395v-0.9395h0.9395z"/></g><g stroke="none" stroke-linecap="butt"><path d="M266.90984,201.61389h-1.64411v-8.02116h1.64411z" data-paper-data="{&quot;origPos&quot;:null}" fill="#aa5e35" stroke-width="2.07153"/><path d="M267.74816,192.23155c0.42518,0.42518 0.68836,1.01237 0.68836,1.66038c0,0.64801 -0.26318,1.2352 -0.68836,1.66038c-0.42518,0.42518 -1.01236,0.68836 -1.66038,0.68836c-0.64801,0 -1.2352,-0.26317 -1.66038,-0.68836c-0.42518,-0.42518 -0.68836,-1.01237 -0.68836,-1.66038c0,-0.64801 0.26317,-1.2352 0.68836,-1.66038c0.42518,-0.42518 1.01237,-0.68836 1.66038,-0.68836c0.64801,0 1.2352,0.26317 1.66038,0.68836z" data-paper-data="{&quot;origPos&quot;:null}" fill="#3abc3a" stroke-width="1"/><path d="M267.45756,189.87982c0.35078,0.35079 0.56793,0.83521 0.56793,1.36979c0,0.53457 -0.21714,1.019 -0.56793,1.36979c-0.35078,0.35079 -0.83521,0.56792 -1.36978,0.56792c-0.53458,0 -1.019,-0.21713 -1.36979,-0.56792c-0.35078,-0.35079 -0.56793,-0.83521 -0.56793,-1.36979c0,-0.53457 0.21714,-1.019 0.56793,-1.36979c0.35078,-0.35079 0.83521,-0.56793 1.36979,-0.56793c0.53458,0 1.019,0.21714 1.36978,0.56793z" data-paper-data="{&quot;origPos&quot;:null}" fill="#3ec73d" stroke-width="1"/><path d="M266.86785,188.12079c0.20727,0.20728 0.33558,0.49353 0.33558,0.80943c0,0.3159 -0.1283,0.60216 -0.33558,0.80944c-0.20727,0.20728 -0.49353,0.33558 -0.80943,0.33558c-0.3159,0 -0.60216,-0.1283 -0.80944,-0.33558c-0.20727,-0.20728 -0.33558,-0.49353 -0.33558,-0.80944c0,-0.3159 0.1283,-0.60215 0.33558,-0.80943c0.20727,-0.20728 0.49353,-0.33558 0.80944,-0.33558c0.3159,0 0.60216,0.1283 0.80943,0.33558z" data-paper-data="{&quot;origPos&quot;:null}" fill="#42d642" stroke-width="1"/></g><g fill="#99ffff" stroke="#84c3c3" stroke-width="0.5" stroke-linecap="butt"><path d="M273.25179,195.09287h-0.93949v-0.93949h0.93949z"/><path d="M271.98934,195.09287h-0.9395v-0.93949h0.9395z"/><path d="M272.01869,196.38468h-0.93949v-0.93949h0.93949z"/><path d="M273.25179,196.38468h-0.93949v-0.93949h0.93949z"/></g><g fill="#99ffff" stroke="#84c3c3" stroke-width="0.5" stroke-linecap="butt"><path d="M260.95027,195.23967h-0.93949v-0.93949h0.93949z"/><path d="M259.68782,195.23967h-0.93949v-0.93949h0.93949z"/><path d="M259.71718,196.53148h-0.93949v-0.9395h0.93949z"/><path d="M260.95027,196.53148h-0.93949v-0.9395h0.93949z"/></g><g fill="#99ffff" stroke="#84c3c3" stroke-width="0.5" stroke-linecap="butt"><path d="M273.25179,191.62849h-0.93949v-0.9395h0.93949z"/><path d="M271.98934,191.62849h-0.9395v-0.9395h0.9395z"/><path d="M272.01869,192.92029h-0.93949v-0.93949h0.93949z"/><path d="M273.25179,192.92029h-0.93949v-0.93949h0.93949z"/></g><g fill="#99ffff" stroke="#84c3c3" stroke-width="0.5" stroke-linecap="butt"><path d="M260.95027,191.77528h-0.93949v-0.9395h0.93949z"/><path d="M259.68782,191.77528h-0.93949v-0.9395h0.93949z"/><path d="M259.71718,193.06709h-0.93949v-0.93949h0.93949z"/><path d="M260.95027,193.06709h-0.93949v-0.93949h0.93949z"/></g><g stroke="none" stroke-linecap="butt"><path d="M259.31267,203.44877h-1.64412v-8.02116h1.64412z" data-paper-data="{&quot;origPos&quot;:null}" fill="#aa5e35" stroke-width="2.07153"/><path d="M260.15099,194.06643c0.42518,0.42518 0.68836,1.01237 0.68836,1.66038c0,0.64801 -0.26318,1.2352 -0.68836,1.66038c-0.42518,0.42518 -1.01236,0.68836 -1.66038,0.68836c-0.64801,0 -1.2352,-0.26317 -1.66038,-0.68836c-0.42518,-0.42518 -0.68835,-1.01237 -0.68835,-1.66038c0,-0.64801 0.26317,-1.2352 0.68835,-1.66038c0.42518,-0.42518 1.01237,-0.68836 1.66038,-0.68836c0.64801,0 1.2352,0.26317 1.66038,0.68836z" data-paper-data="{&quot;origPos&quot;:null}" fill="#3abc3a" stroke-width="1"/><path d="M259.8604,191.7147c0.35078,0.35079 0.56793,0.83521 0.56793,1.36979c0,0.53457 -0.21714,1.019 -0.56793,1.36979c-0.35078,0.35079 -0.83521,0.56792 -1.36978,0.56792c-0.53458,0 -1.019,-0.21713 -1.36978,-0.56792c-0.35078,-0.35079 -0.56793,-0.83521 -0.56793,-1.36979c0,-0.53457 0.21714,-1.019 0.56793,-1.36979c0.35078,-0.35079 0.83521,-0.56793 1.36978,-0.56793c0.53458,0 1.019,0.21714 1.36978,0.56793z" data-paper-data="{&quot;origPos&quot;:null}" fill="#3ec73d" stroke-width="1"/><path d="M259.27069,189.95567c0.20727,0.20728 0.33558,0.49353 0.33558,0.80943c0,0.3159 -0.1283,0.60216 -0.33558,0.80944c-0.20727,0.20728 -0.49353,0.33558 -0.80944,0.33558c-0.3159,0 -0.60216,-0.1283 -0.80944,-0.33558c-0.20727,-0.20728 -0.33558,-0.49353 -0.33558,-0.80944c0,-0.3159 0.1283,-0.60215 0.33558,-0.80943c0.20727,-0.20728 0.49353,-0.33558 0.80944,-0.33558c0.3159,0 0.60216,0.1283 0.80944,0.33558z" data-paper-data="{&quot;origPos&quot;:null}" fill="#42d642" stroke-width="1"/></g><path d="M237.94395,191.54853h3.75153v1.75396h-3.75153z" fill="#c95206" stroke="none" stroke-width="1" stroke-linecap="butt"/><path d="M236.70587,193.09408h6.36406v5.95494h-6.36406z" fill="#c95206" stroke="none" stroke-width="1" stroke-linecap="butt"/><path d="M236.70587,193.10545l1.27282,-1.56829v1.56829z" fill="#c95206" stroke="none" stroke-width="1" stroke-linecap="round"/><path d="M241.66075,191.55989l1.42055,1.54556h-1.42055z" fill="#c95206" stroke="none" stroke-width="1" stroke-linecap="round"/><g fill="#dd7821" stroke="none" stroke-width="1" stroke-linecap="butt"><path d="M237.99118,192.1122c0.05487,0 0.1046,0.02228 0.1406,0.05828c0.036,0.036 0.05828,0.08573 0.05828,0.1406c0,0.05487 -0.02228,0.1046 -0.05828,0.1406c-0.036,0.036 -0.08573,0.05828 -0.1406,0.05828c-0.05487,0 -0.1046,-0.02228 -0.1406,-0.05828c-0.036,-0.036 -0.05828,-0.08573 -0.05828,-0.1406c0,-0.05487 0.02228,-0.1046 0.05828,-0.1406c0.036,-0.036 0.08573,-0.05828 0.1406,-0.05828z" data-paper-data="{&quot;origPos&quot;:null}"/><path d="M239.19203,191.69627c0.05487,0 0.1046,0.02227 0.1406,0.05827c0.036,0.036 0.05828,0.08573 0.05828,0.1406c0,0.05487 -0.02228,0.1046 -0.05828,0.1406c-0.036,0.036 -0.08573,0.05828 -0.1406,0.05828c-0.05487,0 -0.10459,-0.02228 -0.14059,-0.05828c-0.036,-0.036 -0.05828,-0.08573 -0.05828,-0.1406c0,-0.05487 0.02228,-0.1046 0.05828,-0.1406c0.036,-0.036 0.08573,-0.05827 0.14059,-0.05827z" data-paper-data="{&quot;origPos&quot;:null}"/><g data-paper-data="{&quot;origPos&quot;:null}"><path d="M239.20263,193.14281c0.05487,0 0.1046,0.02227 0.1406,0.05827c0.036,0.036 0.05828,0.08573 0.05828,0.1406c0,0.05487 -0.02228,0.1046 -0.05828,0.1406c-0.036,0.036 -0.08573,0.05828 -0.1406,0.05828c-0.05487,0 -0.1046,-0.02228 -0.1406,-0.05828c-0.036,-0.036 -0.05828,-0.08573 -0.05828,-0.1406c0,-0.05487 0.02228,-0.1046 0.05828,-0.1406c0.036,-0.036 0.08573,-0.05827 0.1406,-0.05827z" data-paper-data="{&quot;origPos&quot;:null}"/><path d="M239.19959,194.5267c0.05487,0 0.1046,0.02228 0.1406,0.05828c0.036,0.036 0.05828,0.08573 0.05828,0.1406c0,0.05487 -0.02228,0.1046 -0.05828,0.1406c-0.036,0.036 -0.08573,0.05828 -0.1406,0.05828c-0.05487,0 -0.1046,-0.02228 -0.1406,-0.05828c-0.036,-0.036 -0.05828,-0.08573 -0.05828,-0.1406c0,-0.05487 0.02228,-0.1046 0.05828,-0.1406c0.036,-0.036 0.08573,-0.05828 0.1406,-0.05828z" data-paper-data="{&quot;origPos&quot;:null}"/><path d="M239.17891,195.91245c0.05487,0 0.1046,0.02228 0.1406,0.05828c0.036,0.036 0.05828,0.08573 0.05828,0.1406c0,0.05487 -0.02228,0.1046 -0.05828,0.1406c-0.036,0.036 -0.08573,0.05828 -0.1406,0.05828c-0.05487,0 -0.1046,-0.02228 -0.1406,-0.05828c-0.036,-0.036 -0.05828,-0.08573 -0.05828,-0.1406c0,-0.05487 0.02228,-0.1046 0.05828,-0.1406c0.036,-0.036 0.08573,-0.05828 0.1406,-0.05828z" data-paper-data="{&quot;origPos&quot;:null}"/><path d="M239.18029,197.23789c0.05487,0 0.1046,0.02228 0.1406,0.05828c0.036,0.036 0.05828,0.08573 0.05828,0.1406c0,0.05487 -0.02228,0.1046 -0.05828,0.1406c-0.036,0.036 -0.08573,0.05828 -0.1406,0.05828c-0.05487,0 -0.1046,-0.02228 -0.1406,-0.05828c-0.036,-0.036 -0.05828,-0.08573 -0.05828,-0.1406c0,-0.05487 0.02228,-0.1046 0.05828,-0.1406c0.036,-0.036 0.08573,-0.05828 0.1406,-0.05828z" data-paper-data="{&quot;origPos&quot;:null}"/><path d="M239.17639,198.50808c0.05487,0 0.1046,0.02228 0.1406,0.05828c0.036,0.036 0.05828,0.08573 0.05828,0.1406c0,0.05487 -0.02228,0.1046 -0.05828,0.1406c-0.036,0.036 -0.08573,0.05828 -0.1406,0.05828c-0.05487,0 -0.1046,-0.02228 -0.1406,-0.05828c-0.036,-0.036 -0.05828,-0.08573 -0.05828,-0.1406c0,-0.05487 0.02228,-0.1046 0.05828,-0.1406c0.036,-0.036 0.08573,-0.05828 0.1406,-0.05828z" data-paper-data="{&quot;origPos&quot;:null}"/></g><g data-paper-data="{&quot;origPos&quot;:null}"><path d="M237.16629,193.13382c0.05487,0 0.10459,0.02228 0.14059,0.05828c0.036,0.036 0.05828,0.08573 0.05828,0.1406c0,0.05487 -0.02228,0.1046 -0.05828,0.1406c-0.036,0.036 -0.08573,0.05827 -0.14059,0.05827c-0.05487,0 -0.1046,-0.02227 -0.1406,-0.05827c-0.036,-0.036 -0.05828,-0.08573 -0.05828,-0.1406c0,-0.05487 0.02228,-0.1046 0.05828,-0.1406c0.036,-0.036 0.08574,-0.05828 0.1406,-0.05828z" data-paper-data="{&quot;origPos&quot;:null}"/><path d="M237.16325,194.51771c0.05487,0 0.1046,0.02228 0.1406,0.05828c0.036,0.036 0.05828,0.08573 0.05828,0.1406c0,0.05487 -0.02228,0.1046 -0.05828,0.1406c-0.036,0.036 -0.08573,0.05828 -0.1406,0.05828c-0.05487,0 -0.1046,-0.02228 -0.1406,-0.05828c-0.036,-0.036 -0.05828,-0.08573 -0.05828,-0.1406c0,-0.05487 0.02228,-0.1046 0.05828,-0.1406c0.036,-0.036 0.08573,-0.05828 0.1406,-0.05828z" data-paper-data="{&quot;origPos&quot;:null}"/><path d="M237.14257,195.90346c0.05487,0 0.1046,0.02228 0.1406,0.05828c0.036,0.036 0.05828,0.08574 0.05828,0.1406c0,0.05487 -0.02228,0.1046 -0.05828,0.1406c-0.036,0.036 -0.08573,0.05828 -0.1406,0.05828c-0.05487,0 -0.1046,-0.02228 -0.1406,-0.05828c-0.036,-0.036 -0.05828,-0.08573 -0.05828,-0.1406c0,-0.05487 0.02228,-0.1046 0.05828,-0.1406c0.036,-0.036 0.08573,-0.05828 0.1406,-0.05828z" data-paper-data="{&quot;origPos&quot;:null}"/><path d="M237.14395,197.2289c0.05487,0 0.1046,0.02227 0.1406,0.05827c0.036,0.036 0.05828,0.08573 0.05828,0.1406c0,0.05487 -0.02228,0.1046 -0.05828,0.1406c-0.036,0.036 -0.08573,0.05828 -0.1406,0.05828c-0.05487,0 -0.1046,-0.02228 -0.1406,-0.05828c-0.036,-0.036 -0.05828,-0.08573 -0.05828,-0.1406c0,-0.05487 0.02228,-0.1046 0.05828,-0.1406c0.036,-0.036 0.08573,-0.05827 0.1406,-0.05827z" data-paper-data="{&quot;origPos&quot;:null}"/><path d="M237.14005,198.49909c0.05487,0 0.1046,0.02228 0.1406,0.05828c0.036,0.036 0.05828,0.08573 0.05828,0.1406c0,0.05487 -0.02228,0.1046 -0.05828,0.1406c-0.036,0.036 -0.08573,0.05828 -0.1406,0.05828c-0.05487,0 -0.1046,-0.02228 -0.1406,-0.05828c-0.036,-0.036 -0.05828,-0.08573 -0.05828,-0.1406c0,-0.05487 0.02228,-0.1046 0.05828,-0.1406c0.036,-0.036 0.08573,-0.05828 0.1406,-0.05828z" data-paper-data="{&quot;origPos&quot;:null}"/></g><path d="M238.19574,198.49899c0.05487,0 0.1046,0.02228 0.1406,0.05828c0.036,0.036 0.05828,0.08573 0.05828,0.1406c0,0.05487 -0.02228,0.1046 -0.05828,0.1406c-0.036,0.036 -0.08573,0.05828 -0.1406,0.05828c-0.05487,0 -0.1046,-0.02228 -0.1406,-0.05828c-0.036,-0.036 -0.05827,-0.08573 -0.05827,-0.1406c0,-0.05487 0.02227,-0.1046 0.05827,-0.1406c0.036,-0.036 0.08573,-0.05828 0.1406,-0.05828z" data-paper-data="{&quot;origPos&quot;:null}"/></g><g data-paper-data="{&quot;index&quot;:null}" fill="#dd7821" stroke="none" stroke-width="1" stroke-linecap="butt"><path d="M241.90141,192.17048c0.036,0.036 0.05827,0.08573 0.05827,0.1406c0,0.05487 -0.02227,0.1046 -0.05827,0.1406c-0.036,0.036 -0.08573,0.05828 -0.1406,0.05828c-0.05487,0 -0.1046,-0.02228 -0.1406,-0.05828c-0.036,-0.036 -0.05828,-0.08573 -0.05828,-0.1406c0,-0.05487 0.02228,-0.1046 0.05828,-0.1406c0.036,-0.036 0.08573,-0.05828 0.1406,-0.05828c0.05487,0 0.1046,0.02228 0.1406,0.05828z" data-paper-data="{&quot;origPos&quot;:null}"/><path d="M240.70056,191.75454c0.036,0.036 0.05828,0.08573 0.05828,0.1406c0,0.05487 -0.02228,0.1046 -0.05828,0.1406c-0.036,0.036 -0.08573,0.05828 -0.1406,0.05828c-0.05487,0 -0.1046,-0.02228 -0.1406,-0.05828c-0.036,-0.036 -0.05828,-0.08573 -0.05828,-0.1406c0,-0.05487 0.02228,-0.1046 0.05828,-0.1406c0.036,-0.036 0.08573,-0.05828 0.1406,-0.05828c0.05487,0 0.1046,0.02228 0.1406,0.05828z" data-paper-data="{&quot;origPos&quot;:null}"/><g data-paper-data="{&quot;origPos&quot;:null}"><path d="M240.68996,193.20108c0.036,0.036 0.05828,0.08573 0.05828,0.1406c0,0.05487 -0.02228,0.1046 -0.05828,0.1406c-0.036,0.036 -0.08573,0.05828 -0.1406,0.05828c-0.05487,0 -0.1046,-0.02228 -0.1406,-0.05828c-0.036,-0.036 -0.05828,-0.08573 -0.05828,-0.1406c0,-0.05487 0.02228,-0.1046 0.05828,-0.1406c0.036,-0.036 0.08573,-0.05827 0.1406,-0.05827c0.05487,0 0.1046,0.02227 0.1406,0.05827z" data-paper-data="{&quot;origPos&quot;:null}"/><path d="M240.693,194.58497c0.036,0.036 0.05827,0.08573 0.05827,0.1406c0,0.05487 -0.02227,0.1046 -0.05827,0.1406c-0.036,0.036 -0.08573,0.05827 -0.1406,0.05827c-0.05487,0 -0.1046,-0.02227 -0.1406,-0.05827c-0.036,-0.036 -0.05828,-0.08573 -0.05828,-0.1406c0,-0.05487 0.02228,-0.1046 0.05828,-0.1406c0.036,-0.036 0.08573,-0.05828 0.1406,-0.05828c0.05487,0 0.1046,0.02228 0.1406,0.05828z" data-paper-data="{&quot;origPos&quot;:null}"/><path d="M240.71368,195.97073c0.036,0.036 0.05828,0.08573 0.05828,0.1406c0,0.05487 -0.02228,0.1046 -0.05828,0.1406c-0.036,0.036 -0.08573,0.05828 -0.1406,0.05828c-0.05487,0 -0.1046,-0.02228 -0.1406,-0.05828c-0.036,-0.036 -0.05828,-0.08573 -0.05828,-0.1406c0,-0.05487 0.02228,-0.1046 0.05828,-0.1406c0.036,-0.036 0.08573,-0.05828 0.1406,-0.05828c0.05487,0 0.1046,0.02228 0.1406,0.05828z" data-paper-data="{&quot;origPos&quot;:null}"/><path d="M240.7123,197.29616c0.036,0.036 0.05828,0.08573 0.05828,0.1406c0,0.05487 -0.02228,0.1046 -0.05828,0.1406c-0.036,0.036 -0.08573,0.05828 -0.1406,0.05828c-0.05487,0 -0.1046,-0.02228 -0.1406,-0.05828c-0.036,-0.036 -0.05827,-0.08573 -0.05827,-0.1406c0,-0.05487 0.02227,-0.1046 0.05827,-0.1406c0.036,-0.036 0.08573,-0.05827 0.1406,-0.05827c0.05487,0 0.1046,0.02227 0.1406,0.05827z" data-paper-data="{&quot;origPos&quot;:null}"/><path d="M240.7162,198.56635c0.036,0.036 0.05828,0.08573 0.05828,0.1406c0,0.05487 -0.02228,0.1046 -0.05828,0.1406c-0.036,0.036 -0.08573,0.05828 -0.1406,0.05828c-0.05487,0 -0.1046,-0.02228 -0.1406,-0.05828c-0.036,-0.036 -0.05828,-0.08574 -0.05828,-0.1406c0,-0.05487 0.02228,-0.1046 0.05828,-0.1406c0.036,-0.036 0.08573,-0.05828 0.1406,-0.05828c0.05487,0 0.1046,0.02228 0.1406,0.05828z" data-paper-data="{&quot;origPos&quot;:null}"/></g><g data-paper-data="{&quot;origPos&quot;:null}"><path d="M242.7263,193.1921c0.036,0.036 0.05827,0.08573 0.05827,0.1406c0,0.05487 -0.02227,0.1046 -0.05827,0.1406c-0.036,0.036 -0.08573,0.05828 -0.1406,0.05828c-0.05487,0 -0.1046,-0.02228 -0.1406,-0.05828c-0.036,-0.036 -0.05828,-0.08573 -0.05828,-0.1406c0,-0.05487 0.02228,-0.1046 0.05828,-0.1406c0.036,-0.036 0.08573,-0.05828 0.1406,-0.05828c0.05487,0 0.1046,0.02228 0.1406,0.05828z" data-paper-data="{&quot;origPos&quot;:null}"/><path d="M242.72934,194.57599c0.036,0.036 0.05827,0.08574 0.05827,0.1406c0,0.05487 -0.02227,0.1046 -0.05827,0.1406c-0.036,0.036 -0.08573,0.05828 -0.1406,0.05828c-0.05487,0 -0.1046,-0.02228 -0.1406,-0.05828c-0.036,-0.036 -0.05828,-0.08573 -0.05828,-0.1406c0,-0.05487 0.02228,-0.1046 0.05828,-0.1406c0.036,-0.036 0.08573,-0.05828 0.1406,-0.05828c0.05487,0 0.1046,0.02228 0.1406,0.05828z" data-paper-data="{&quot;origPos&quot;:null}"/><path d="M242.75002,195.96174c0.036,0.036 0.05827,0.08573 0.05827,0.1406c0,0.05487 -0.02227,0.1046 -0.05827,0.1406c-0.036,0.036 -0.08573,0.05828 -0.1406,0.05828c-0.05487,0 -0.1046,-0.02228 -0.1406,-0.05828c-0.036,-0.036 -0.05827,-0.08573 -0.05827,-0.1406c0,-0.05487 0.02227,-0.1046 0.05827,-0.1406c0.036,-0.036 0.08573,-0.05828 0.1406,-0.05828c0.05487,0 0.1046,0.02228 0.1406,0.05828z" data-paper-data="{&quot;origPos&quot;:null}"/><path d="M242.74864,197.28718c0.036,0.036 0.05828,0.08574 0.05828,0.14061c0,0.05487 -0.02228,0.10459 -0.05828,0.14059c-0.036,0.036 -0.08573,0.05828 -0.1406,0.05828c-0.05487,0 -0.1046,-0.02228 -0.1406,-0.05828c-0.036,-0.036 -0.05828,-0.08573 -0.05828,-0.14059c0,-0.05487 0.02228,-0.10461 0.05828,-0.14061c0.036,-0.036 0.08573,-0.05827 0.1406,-0.05827c0.05487,0 0.1046,0.02227 0.1406,0.05827z" data-paper-data="{&quot;origPos&quot;:null}"/><path d="M242.75255,198.55737c0.036,0.036 0.05828,0.08573 0.05828,0.1406c0,0.05487 -0.02228,0.1046 -0.05828,0.1406c-0.036,0.036 -0.08573,0.05828 -0.1406,0.05828c-0.05487,0 -0.1046,-0.02228 -0.1406,-0.05828c-0.036,-0.036 -0.05828,-0.08573 -0.05828,-0.1406c0,-0.05487 0.02228,-0.1046 0.05828,-0.1406c0.036,-0.036 0.08573,-0.05828 0.1406,-0.05828c0.05487,0 0.1046,0.02228 0.1406,0.05828z" data-paper-data="{&quot;origPos&quot;:null}"/></g><path d="M241.69685,198.55726c0.036,0.036 0.05828,0.08573 0.05828,0.1406c0,0.05487 -0.02228,0.1046 -0.05828,0.1406c-0.036,0.036 -0.08573,0.05828 -0.1406,0.05828c-0.05487,0 -0.1046,-0.02228 -0.1406,-0.05828c-0.036,-0.036 -0.05828,-0.08573 -0.05828,-0.1406c0,-0.05487 0.02228,-0.1046 0.05828,-0.1406c0.036,-0.036 0.08573,-0.05828 0.1406,-0.05828c0.05487,0 0.1046,0.02228 0.1406,0.05828z" data-paper-data="{&quot;origPos&quot;:null}"/></g><path d="M239.70607,191.55164h0.37502v7.5005h-0.37502z" fill="#b03405" stroke="none" stroke-width="1.14943" stroke-linecap="round"/><path d="M238.54691,195.87836c0,-0.28243 0.22896,-0.51139 0.51139,-0.51139c0.28243,0 0.51139,0.22896 0.51139,0.51139c0,0.28243 -0.22896,0.5114 -0.51139,0.5114c-0.28243,0 -0.51139,-0.22897 -0.51139,-0.5114z" fill="#ffd400" stroke="none" stroke-width="0" stroke-linecap="butt"/><path d="M240.22883,195.87836c0,-0.28243 0.22896,-0.51139 0.5114,-0.51139c0.28243,0 0.5114,0.22896 0.5114,0.51139c0,0.28243 -0.22896,0.5114 -0.5114,0.5114c-0.28243,0 -0.5114,-0.22897 -0.5114,-0.5114z" fill="#ffd400" stroke="none" stroke-width="0" stroke-linecap="butt"/><path d="M240.47373,217.30503l4.66009,-2.79606" fill="none" stroke="#763e13" stroke-width="2.70749" stroke-linecap="round"/></g></g></svg>