<svg version="1.1" xmlns="http://www.w3.org/2000/svg" xmlns:xlink="http://www.w3.org/1999/xlink" width="437" height="90.79587" viewBox="0,0,437,90.79587"><defs><linearGradient x1="239.96075" y1="135.56279" x2="239.96075" y2="224.35867" gradientUnits="userSpaceOnUse" id="color-1"><stop offset="0" stop-color="#ffffff"/><stop offset="1" stop-color="#d8d8d8"/></linearGradient><linearGradient x1="239.96075" y1="135.5628" x2="239.96075" y2="224.35867" gradientUnits="userSpaceOnUse" id="color-2"><stop offset="0" stop-color="#343434"/><stop offset="1" stop-color="#090909"/></linearGradient><radialGradient cx="443.76725" cy="206.50539" r="17.9081" gradientUnits="userSpaceOnUse" id="color-3"><stop offset="0" stop-color="#ffffff"/><stop offset="1" stop-color="#e5e5e5"/></radialGradient></defs><g transform="translate(-21.46075,-134.5628)"><g data-paper-data="{&quot;isPaintingLayer&quot;:true}" fill-rule="nonzero" stroke-linejoin="miter" stroke-miterlimit="10" stroke-dasharray="" stroke-dashoffset="0" style="mix-blend-mode: normal"><path d="M22.46075,224.35867v-88.79587h435v88.79587z" data-paper-data="{&quot;origPos&quot;:null}" fill="url(#color-1)" stroke="url(#color-2)" stroke-width="2" stroke-linecap="butt"/><g data-paper-data="{&quot;origPos&quot;:null}"><path d="M444.26655,202.0594c2.5136,0 4.7909,1.0212 6.4406,2.6702c1.6489,1.6496 2.6702,3.9269 2.6702,6.4405c0,2.5136 -1.0213,4.791 -2.6702,6.4406c-1.6497,1.649 -3.927,2.6702 -6.4406,2.6702c-2.5136,0 -4.7909,-1.0212 -6.4406,-2.6702c-1.6489,-1.6496 -2.6701,-3.927 -2.6701,-6.4406c0,-2.5136 1.0212,-4.7909 2.6701,-6.4405c1.6497,-1.649 3.927,-2.6702 6.4406,-2.6702z" fill="url(#color-3)" stroke="#000000" stroke-width="2.0785" stroke-linecap="butt"/><path d="M441.23415,206.50959l5.6119,0.4503l1.7321,3.187l-3.6374,2.9446l3.3603,-0.5197l0.7967,3.4642l-7.4479,-0.0693l-1.9053,-2.4249l4.6766,-3.3256l-4.5727,-0.3464z" fill="#000000" stroke="none" stroke-width="0.69283" stroke-linecap="round"/></g><path d="M36.15288,149.74409c2.45803,0.54894 3.82426,0.86304 4.09873,0.94234v0.06404c-0.0854,2.20184 -0.14944,3.4827 -0.19212,3.84256c0.14027,0 0.77157,0.14639 1.89383,0.43914c1.00638,-3.10454 1.55227,-4.65681 1.63767,-4.65681c1.68342,0.75632 2.75384,1.25949 3.21129,1.50957v0.06403c-1.8481,4.30001 -2.89716,6.67264 -3.14724,7.11789c-0.46354,0.38426 -2.07986,1.85419 -4.84895,4.40981h-0.06405l-5.10511,-2.51598c0.46965,-0.8051 1.03688,-1.72915 1.70171,-2.77212c0.0305,0 0.82951,0.52453 2.39703,1.57361h0.06404c0.52454,-0.42695 1.15278,-1.03688 1.88469,-1.8298c0,-0.03659 -1.19547,-1.21071 -3.58639,-3.52235v-4.53789z" data-paper-data="{&quot;origPos&quot;:null}" fill="#000000" stroke="none" stroke-width="0.26458" stroke-linecap="butt"/><path d="M51.48653,152.51621c2.31773,0.62213 3.54676,1.00029 3.68703,1.13448c1.27475,1.80539 1.99142,2.84532 2.15001,3.11979c-0.82342,2.6105 -1.2961,3.91576 -1.41808,3.91576c-2.74469,0.64043 -4.18108,0.96063 -4.30916,0.96063c-2.26894,-1.32355 -3.47662,-2.06156 -3.62298,-2.21404c-0.07929,-2.46413 -0.11893,-3.82429 -0.11893,-4.08045c-0.03659,-0.07318 -0.0549,-0.12807 -0.0549,-0.16468c2.34213,-1.78099 3.55285,-2.67149 3.63215,-2.67149zM51.3127,155.86474c-0.03659,0.24398 -0.09149,1.13143 -0.16468,2.66235l2.04022,0.45745c0.48794,-1.52483 0.73191,-2.33908 0.73191,-2.44277c-1.62241,-0.48795 -2.49157,-0.73193 -2.60745,-0.73193z" data-paper-data="{&quot;origPos&quot;:null}" fill="#000000" stroke="none" stroke-width="0.26458" stroke-linecap="butt"/><path d="M63.09656,152.50707l0.06405,0.11891l-1.23511,6.55064h0.06405l3.14723,-0.92403v-3.70534c0.0122,-0.08538 0.05185,-0.12806 0.11893,-0.12806c2.36653,0.1647 3.68399,0.24704 3.95236,0.24704c0,0.04268 0.02135,0.06403 0.06405,0.06403c0,1.04299 -0.32936,3.20521 -0.98809,6.48663c0,0.18906 -0.9454,0.3324 -2.83617,0.42999c-0.09759,-0.11589 -0.17994,-0.36291 -0.24702,-0.74106c-2.42142,0.49404 -3.80291,0.74106 -4.14447,0.74106c-1.93348,-1.43944 -2.90022,-2.18051 -2.90022,-2.22319c0.32936,-4.32441 0.53674,-6.56895 0.62213,-6.73364h0.0549c1.54313,-0.04268 2.96426,-0.10367 4.26342,-0.18297z" data-paper-data="{&quot;origPos&quot;:null}" fill="#000000" stroke="none" stroke-width="0.26458" stroke-linecap="butt"/><path d="M78.43936,152.51621c2.7508,0.51844 4.19023,0.81424 4.31831,0.88744v0.10977c-0.59163,1.67121 -0.88744,2.53731 -0.88744,2.5983h-0.0549c-0.15248,0 -0.89049,-0.23787 -2.21404,-0.71362c-0.73802,1.23817 -1.10703,1.89994 -1.10703,1.98532l1.82979,1.7749c1.41503,-1.32964 2.13475,-1.99447 2.15915,-1.99447c1.10397,1.44553 1.65596,2.25675 1.65596,2.43362c-0.60383,0.34767 -1.65596,1.03079 -3.15638,2.04936c-2.90327,-0.62823 -4.47079,-0.97892 -4.70256,-1.05212l-1.43638,-4.64768z" data-paper-data="{&quot;origPos&quot;:null}" fill="#000000" stroke="none" stroke-width="0.26458" stroke-linecap="butt"/><path d="M86.44471,152.50707c3.62298,0.50015 5.43449,0.80816 5.43449,0.92405c1.42724,1.22595 2.14085,1.88163 2.14085,1.96702c-0.57943,1.81149 -0.90879,2.91242 -0.9881,3.30277c0.57943,1.28695 0.90879,2.05547 0.9881,2.30555c0,0.07318 -0.9454,0.26835 -2.83618,0.58553c-0.0244,-0.10369 -0.19823,-0.33546 -0.5215,-0.69532c-2.6105,0.50015 -4.01638,0.75022 -4.21767,0.75022l-1.39064,-3.76022l3.0649,-1.61937c0.49404,0.07927 1.26561,0.11892 2.31469,0.11892c0,-0.13419 0.01829,-0.53979 0.0549,-1.21682c-0.17688,0 -1.75659,0.11589 -4.73916,0.34767l-0.0549,-0.11892c0.41475,-1.92738 0.66483,-2.89107 0.75022,-2.89107zM88.34769,157.88665c0,0.06708 0.19518,0.7807 0.58553,2.14085h0.0549c0.76852,-0.50013 1.15277,-0.82949 1.15277,-0.98808l0.11894,-0.97895c-0.14639,0 -0.78375,-0.05793 -1.91212,-0.17382z" data-paper-data="{&quot;origPos&quot;:null}" fill="#000000" stroke="none" stroke-width="0.26458" stroke-linecap="butt"/><path d="M103.02262,152.50707l3.0466,2.09511c-0.21347,3.47661 -0.36291,5.50768 -0.44831,6.0932c-0.35376,0.04268 -1.43028,0.10673 -3.22957,0.19212l-0.06404,-0.12806l-0.32022,-4.88555l-0.12809,-0.06403c-1.16497,0.25008 -1.96703,0.43915 -2.40618,0.56724c0.12198,2.07986 0.18297,3.58334 0.18297,4.51042c-1.8176,0.50624 -2.81178,0.75937 -2.98255,0.75937c-1.18327,-5.2088 -1.7749,-7.9596 -1.7749,-8.25237c2.57391,-0.33546 3.97065,-0.50318 4.19023,-0.50318v0.06403c0.04269,0.0305 0.10674,0.66481 0.19212,1.90298c2.36043,-1.56753 3.60774,-2.35128 3.74192,-2.35128z" data-paper-data="{&quot;origPos&quot;:null}" fill="#000000" stroke="none" stroke-width="0.26458" stroke-linecap="butt"/><path d="M119.74691,152.50707l3.0466,2.09511c-0.21347,3.47661 -0.36291,5.50768 -0.44831,6.0932c-0.35376,0.04268 -1.43028,0.10673 -3.22957,0.19212l-0.06404,-0.12806l-0.32022,-4.88555l-0.12809,-0.06403c-1.16497,0.25008 -1.96703,0.43915 -2.40618,0.56724c0.12198,2.07986 0.18298,3.58334 0.18298,4.51042c-1.8176,0.50624 -2.81178,0.75937 -2.98256,0.75937c-1.18327,-5.2088 -1.77491,-7.9596 -1.77491,-8.25237c2.57391,-0.33546 3.97065,-0.50318 4.19023,-0.50318v0.06403c0.04269,0.0305 0.10674,0.66481 0.19212,1.90298c2.36043,-1.56753 3.60774,-2.35128 3.74192,-2.35128z" data-paper-data="{&quot;origPos&quot;:null}" fill="#000000" stroke="none" stroke-width="0.26458" stroke-linecap="butt"/><path d="M127.3863,152.51621c2.31773,0.62213 3.54675,1.00029 3.68703,1.13448c1.27475,1.80539 1.99143,2.84532 2.15001,3.11979c-0.82341,2.6105 -1.2961,3.91576 -1.41809,3.91576c-2.74469,0.64043 -4.18109,0.96063 -4.30916,0.96063c-2.26894,-1.32355 -3.4766,-2.06156 -3.62298,-2.21404c-0.0793,-2.46413 -0.11894,-3.82429 -0.11894,-4.08045c-0.0366,-0.07318 -0.0549,-0.12807 -0.0549,-0.16468c2.34213,-1.78099 3.55284,-2.67149 3.63214,-2.67149zM127.21247,155.86474c-0.0366,0.24398 -0.09148,1.13143 -0.16468,2.66235l2.04021,0.45745c0.48794,-1.52483 0.73191,-2.33908 0.73191,-2.44277c-1.62241,-0.48795 -2.49157,-0.73193 -2.60744,-0.73193z" data-paper-data="{&quot;origPos&quot;:null}" fill="#000000" stroke="none" stroke-width="0.26458" stroke-linecap="butt"/><path d="M138.07229,152.50707c0.0793,0.10369 0.491,1.87248 1.23511,5.3064h0.06405c0,-0.07927 0.45134,-0.77765 1.35404,-2.09511c0.37816,0.25617 1.09788,0.81121 2.15916,1.66511h0.12809v-0.06403c0.16468,-2.37873 0.28666,-3.69619 0.36596,-3.95236c2.51292,0.12808 3.76937,0.23176 3.76937,0.31106c-1.15277,4.63547 -1.76879,7.0447 -1.8481,7.22769c-0.38425,0.04268 -1.18936,0.16466 -2.41532,0.36595c-1.00638,-1.57971 -1.58277,-2.42142 -1.72915,-2.52511c-0.65872,1.75661 -1.07043,2.72334 -1.23511,2.90022h-2.47022c-0.15248,-0.04879 -0.8722,-1.63461 -2.15916,-4.75746c-0.82341,-1.74439 -1.23511,-2.68978 -1.23511,-2.83617c0,-0.13419 1.33881,-0.64959 4.01639,-1.54618z" data-paper-data="{&quot;origPos&quot;:null}" fill="#000000" stroke="none" stroke-width="0.26458" stroke-linecap="butt"/><path d="M156.3519,152.50707c1.49434,3.4278 2.29029,5.20576 2.38787,5.33384c0.73802,-2.79957 1.16802,-4.29085 1.29002,-4.47384c2.32994,0.21347 3.4949,0.39646 3.4949,0.54894v0.06403c-1.63461,4.48909 -2.51292,6.84038 -2.6349,7.05385c-1.8054,0.32937 -3.01305,0.5337 -3.62298,0.61298l-4.47384,-6.62385v-0.12806c0.04269,-0.07927 1.22902,-0.87524 3.55895,-2.38788z" data-paper-data="{&quot;origPos&quot;:null}" fill="#000000" stroke="none" stroke-width="0.26458" stroke-linecap="butt"/><path d="M165.76619,148.83834l3.59554,0.56723c-0.45134,1.7261 -0.74717,2.58915 -0.88744,2.58915c-1.89079,-0.12808 -2.83617,-0.25311 -2.83617,-0.37509v-2.6532c0.01829,-0.08538 0.06099,-0.12806 0.1281,-0.12806zM164.7598,153.19324h0.0549c2.78129,0.50624 4.17192,0.80206 4.17192,0.88744c-0.79901,4.52568 -1.2839,7.04775 -1.45469,7.56619h-2.90022c-0.0854,0 -0.12809,-0.04268 -0.12809,-0.12806z" data-paper-data="{&quot;origPos&quot;:null}" fill="#000000" stroke="none" stroke-width="0.26458" stroke-linecap="butt"/><path d="M177.04685,152.50707c1.7566,1.12228 2.72639,1.76881 2.90936,1.93958c-0.63433,1.40894 -0.99724,2.11341 -1.08873,2.11341l-3.33022,-1.93043h-0.11893c0,0.06097 -0.14333,0.40254 -0.42999,1.02468c3.06795,1.65292 4.60192,2.50072 4.60192,2.54342c-0.86,1.98837 -1.3449,3.03746 -1.45469,3.14724l-5.20576,0.30192c-2.02498,-1.34186 -3.1137,-2.04936 -3.26618,-2.12255v-0.05488c0,-0.15248 0.30192,-0.83866 0.90575,-2.05851l4.06213,2.11341l0.30192,-1.20767c-2.51292,-1.12837 -4.00724,-1.83284 -4.48298,-2.11341v-0.12806c0,-0.23178 0.48489,-1.25952 1.45469,-3.08321z" data-paper-data="{&quot;origPos&quot;:null}" fill="#000000" stroke="none" stroke-width="0.26458" stroke-linecap="butt"/><path d="M182.12452,148.83834l3.59554,0.56723c-0.45134,1.7261 -0.74716,2.58915 -0.88744,2.58915c-1.89079,-0.12808 -2.83617,-0.25311 -2.83617,-0.37509v-2.6532c0.01829,-0.08538 0.06099,-0.12806 0.12809,-0.12806zM181.11814,153.19324h0.0549c2.78129,0.50624 4.17192,0.80206 4.17192,0.88744c-0.79901,4.52568 -1.2839,7.04775 -1.45469,7.56619h-2.90022c-0.0854,0 -0.1281,-0.04268 -0.1281,-0.12806z" data-paper-data="{&quot;origPos&quot;:null}" fill="#000000" stroke="none" stroke-width="0.26458" stroke-linecap="butt"/><path d="M188.75753,149.74409l4.02555,0.71362l-0.38426,3.05575c0.79901,-0.04268 1.38454,-0.06403 1.75659,-0.06403h0.58554l0.12809,-0.06403l0.06405,0.12806c-0.12809,1.85419 -0.23788,2.89717 -0.32936,3.12894l-0.12809,-0.07317c-0.09149,0 -0.9149,-0.04268 -2.47022,-0.12806c-0.0854,1.43334 -0.14944,3.14726 -0.19212,5.14172l-0.1281,0.06403c-1.96397,-0.12808 -3.13503,-0.23788 -3.5132,-0.32936l0.06404,-0.25617c0,-0.53064 0.0854,-2.17747 0.25617,-4.94045c-1.64681,-0.09147 -2.47022,-0.20126 -2.47022,-0.32936c0.0854,-2.03716 0.19518,-3.05575 0.32936,-3.05575l2.40617,0.45745v-0.78681c0,-0.64044 -0.0244,-1.50653 -0.07319,-2.59831c0.04879,0 0.07319,-0.02135 0.07319,-0.06403z" data-paper-data="{&quot;origPos&quot;:null}" fill="#000000" stroke="none" stroke-width="0.26458" stroke-linecap="butt"/><path d="M200.95308,150.33877c1.70781,0.07318 2.56171,0.14637 2.56171,0.21957v0.03659c0,0.34156 0.15858,4.01333 0.47574,11.01534l-0.07318,0.03659l-3.33021,-0.21957c-0.0244,-0.04879 -0.0366,-0.08538 -0.0366,-0.10977l0.29277,-10.64939c0.01829,-0.21958 0.05488,-0.32936 0.10978,-0.32936z" data-paper-data="{&quot;origPos&quot;:null}" fill="#2b70c2" stroke="none" stroke-width="0.26458" stroke-linecap="butt"/><path d="M208.35459,152.51621c2.7508,0.51844 4.19023,0.81424 4.31832,0.88744v0.10977c-0.59163,1.67121 -0.88746,2.53731 -0.88746,2.5983h-0.05488c-0.15248,0 -0.89048,-0.23787 -2.21404,-0.71362c-0.73802,1.23817 -1.10702,1.89994 -1.10702,1.98532l1.82979,1.7749c1.41504,-1.32964 2.13477,-1.99447 2.15916,-1.99447c1.10397,1.44553 1.65596,2.25675 1.65596,2.43362c-0.60382,0.34767 -1.65596,1.03079 -3.15638,2.04936c-2.90327,-0.62823 -4.4708,-0.97892 -4.70256,-1.05212l-1.4364,-4.64768z" data-paper-data="{&quot;origPos&quot;:null}" fill="#2b70c2" stroke="none" stroke-width="0.26458" stroke-linecap="butt"/><path d="M220.15676,152.51621c2.76298,1.42114 4.2939,2.25064 4.59277,2.48851c-0.39644,1.85419 -0.63128,2.80873 -0.70447,2.86363h-5.78214v0.10062l1.61937,2.00363l2.54342,-1.29916c0.25006,0.43305 0.60992,1.18936 1.07957,2.26894c-0.21958,0.07318 -1.82064,0.30799 -4.8032,0.70447c-2.47022,-1.62852 -3.71448,-2.47631 -3.73278,-2.54342c0.39646,-3.16553 0.63127,-4.7483 0.70447,-4.7483c2.58001,-1.09788 4.07434,-1.71085 4.483,-1.83894zM219.56207,154.73026c-0.04879,0.122 -0.37204,0.60689 -0.96978,1.45469c0,0.25617 0.35986,0.38426 1.07957,0.38426c0,0.03659 0.52149,0.12502 1.56447,0.26531c0.28668,-0.39644 0.43001,-0.62822 0.43001,-0.69531c-0.09147,-0.54284 -0.28971,-0.81426 -0.59469,-0.81426z" data-paper-data="{&quot;origPos&quot;:null}" fill="#2b70c2" stroke="none" stroke-width="0.26458" stroke-linecap="butt"/><path d="M237.42083,149.74409c2.19576,1.11008 3.32414,1.66511 3.38513,1.66511c0,0.09757 -0.45745,0.97892 -1.37235,2.64406h-0.06403c-0.07318,0 -1.1253,-0.4971 -3.15638,-1.49128l-1.03383,1.38148c1.7505,0.84171 3.87609,1.91519 6.37681,3.22044c-1.13447,2.01887 -1.93956,3.36071 -2.41532,4.02553l-5.16916,0.45745c-2.36043,-1.59193 -3.60774,-2.41532 -3.74193,-2.47022v-0.06403c0,-0.17079 0.4788,-0.95455 1.4364,-2.3513h0.11892c0.37815,0.22568 1.56447,0.87526 3.55895,1.94873l1.20766,-1.37233c-3.66568,-1.86639 -5.69675,-2.92157 -6.09321,-3.16555v-0.05488c1.16497,-2.26894 1.79931,-3.41868 1.903,-3.44917c3.03135,-0.61602 4.7178,-0.92404 5.05936,-0.92404z" data-paper-data="{&quot;origPos&quot;:null}" fill="#2b70c2" stroke="none" stroke-width="0.26458" stroke-linecap="butt"/><path d="M242.52596,149.75323c1.86639,0.03659 3.23568,0.05488 4.10789,0.05488c0.07927,0 0.32019,3.74498 0.72276,11.23493c-0.31107,0.07927 -1.39674,0.28055 -3.25701,0.60383c-0.09147,0 -0.39339,-2.29335 -0.90575,-6.88001c-0.04268,-0.10978 -0.26531,-1.78099 -0.66788,-5.01362z" data-paper-data="{&quot;origPos&quot;:null}" fill="#2b70c2" stroke="none" stroke-width="0.26458" stroke-linecap="butt"/><path d="M249.64387,148.83834l3.59554,0.56723c-0.45136,1.7261 -0.74717,2.58915 -0.88746,2.58915c-1.89077,-0.12808 -2.83617,-0.25311 -2.83617,-0.37509v-2.6532c0.01829,-0.08538 0.06098,-0.12806 0.12806,-0.12806zM248.63748,153.19324h0.05489c2.78129,0.50624 4.17193,0.80206 4.17193,0.88744c-0.79901,4.52568 -1.28392,7.04775 -1.45469,7.56619h-2.90022c-0.08538,0 -0.12806,-0.04268 -0.12806,-0.12806z" data-paper-data="{&quot;origPos&quot;:null}" fill="#2b70c2" stroke="none" stroke-width="0.26458" stroke-linecap="butt"/><path d="M259.07642,149.73495h0.05488c2.75689,0.23177 4.13533,0.4117 4.13533,0.53977l1.21682,10.76833c0,0.07927 -1.21682,0.28055 -3.65044,0.60383l-0.05488,-0.11892v-0.97894c-2.09815,0.56723 -3.53759,0.93319 -4.3183,1.09787c-1.85419,-2.6227 -2.82703,-4.01944 -2.91852,-4.19023c1.36624,-2.48241 2.09511,-3.73887 2.1866,-3.76937l3.83342,0.18298c-0.07927,-0.46965 -0.24091,-1.84808 -0.4849,-4.13532zM257.37472,156.29475c0.61604,1.88468 1.00028,2.91851 1.15276,3.10149l1.82065,-1.58277c-0.18908,-1.09178 -0.32937,-1.63766 -0.42086,-1.63766h-2.43363c-0.07927,0.0122 -0.11891,0.05183 -0.11891,0.11892z" data-paper-data="{&quot;origPos&quot;:null}" fill="#2b70c2" stroke="none" stroke-width="0.26458" stroke-linecap="butt"/><path d="M270.6224,152.51621c2.76298,1.42114 4.29392,2.25064 4.59278,2.48851c-0.39644,1.85419 -0.63127,2.80873 -0.70447,2.86363h-5.78215v0.10062l1.61937,2.00363l2.54341,-1.29916c0.25008,0.43305 0.60993,1.18936 1.07958,2.26894c-0.21958,0.07318 -1.82064,0.30799 -4.8032,0.70447c-2.47022,-1.62852 -3.71448,-2.47631 -3.73278,-2.54342c0.39646,-3.16553 0.63128,-4.7483 0.70447,-4.7483c2.58001,-1.09788 4.07433,-1.71085 4.48298,-1.83894zM270.02773,154.73026c-0.04879,0.122 -0.37206,0.60689 -0.9698,1.45469c0,0.25617 0.35985,0.38426 1.07958,0.38426c0,0.03659 0.52149,0.12502 1.56447,0.26531c0.28668,-0.39644 0.43001,-0.62822 0.43001,-0.69531c-0.09147,-0.54284 -0.2897,-0.81426 -0.59468,-0.81426z" data-paper-data="{&quot;origPos&quot;:null}" fill="#2b70c2" stroke="none" stroke-width="0.26458" stroke-linecap="butt"/><path d="M287.88652,149.74409c2.19575,1.11008 3.32412,1.66511 3.38511,1.66511c0,0.09757 -0.45745,0.97892 -1.37235,2.64406h-0.06403c-0.07318,0 -1.12532,-0.4971 -3.1564,-1.49128l-1.03383,1.38148c1.7505,0.84171 3.87611,1.91519 6.37683,3.22044c-1.13448,2.01887 -1.93958,3.36071 -2.41533,4.02553l-5.16916,0.45745c-2.36044,-1.59193 -3.60774,-2.41532 -3.74193,-2.47022v-0.06403c0,-0.17079 0.4788,-0.95455 1.43638,-2.3513h0.11892c0.37815,0.22568 1.56448,0.87526 3.55894,1.94873l1.20767,-1.37233c-3.66569,-1.86639 -5.69676,-2.92157 -6.09321,-3.16555v-0.05488c1.16496,-2.26894 1.79929,-3.41868 1.90298,-3.44917c3.03135,-0.61602 4.71782,-0.92404 5.05938,-0.92404z" data-paper-data="{&quot;origPos&quot;:null}" fill="#2b70c2" stroke="none" stroke-width="0.26458" stroke-linecap="butt"/><path d="M296.58716,152.51621c2.75079,0.51844 4.19023,0.81424 4.31832,0.88744v0.10977c-0.59163,1.67121 -0.88746,2.53731 -0.88746,2.5983h-0.05488c-0.15248,0 -0.89049,-0.23787 -2.21404,-0.71362c-0.73802,1.23817 -1.10702,1.89994 -1.10702,1.98532l1.82979,1.7749c1.41505,-1.32964 2.13477,-1.99447 2.15916,-1.99447c1.10397,1.44553 1.65596,2.25675 1.65596,2.43362c-0.60382,0.34767 -1.65596,1.03079 -3.15638,2.04936c-2.90327,-0.62823 -4.4708,-0.97892 -4.70256,-1.05212l-1.4364,-4.64768z" data-paper-data="{&quot;origPos&quot;:null}" fill="#2b70c2" stroke="none" stroke-width="0.26458" stroke-linecap="butt"/><path d="M309.77081,152.50707c1.20765,0.67703 1.94873,1.11617 2.22319,1.31745c-0.98809,2.05546 -1.51872,3.10149 -1.59192,3.13809h-0.06403l-1.30831,-1.14363l-1.54618,1.88469l0.17383,3.43086c-0.07927,0.07318 -1.08871,0.24395 -3.02829,0.51234c-0.07318,-0.52454 -0.54892,-3.09539 -1.42725,-7.71258c0,-0.07318 1.27475,-0.26226 3.82426,-0.56723c0.04268,0.04879 0.15857,0.61908 0.34767,1.71086c1.52483,-1.71391 2.32384,-2.57086 2.39703,-2.57086z" data-paper-data="{&quot;origPos&quot;:null}" fill="#2b70c2" stroke="none" stroke-width="0.26458" stroke-linecap="butt"/><path d="M314.10741,152.50707c3.623,0.50015 5.43448,0.80816 5.43448,0.92405c1.42723,1.22595 2.14085,1.88163 2.14085,1.96702c-0.57943,1.81149 -0.90879,2.91242 -0.98809,3.30277c0.57945,1.28695 0.90881,2.05547 0.98809,2.30555c0,0.07318 -0.9454,0.26835 -2.83618,0.58553c-0.02439,-0.10369 -0.19823,-0.33546 -0.52149,-0.69532c-2.6105,0.50015 -4.01639,0.75022 -4.21767,0.75022l-1.39065,-3.76022l3.06489,-1.61937c0.49406,0.07927 1.26561,0.11892 2.3147,0.11892c0,-0.13419 0.01829,-0.53979 0.05488,-1.21682c-0.17688,0 -1.75661,0.11589 -4.73917,0.34767l-0.05488,-0.11892c0.41476,-1.92738 0.66483,-2.89107 0.75022,-2.89107zM316.01039,157.88665c0,0.06708 0.19518,0.7807 0.58555,2.14085h0.05488c0.7685,-0.50013 1.15276,-0.82949 1.15276,-0.98808l0.11892,-0.97895c-0.14639,0 -0.78377,-0.05793 -1.91214,-0.17382z" data-paper-data="{&quot;origPos&quot;:null}" fill="#2b70c2" stroke="none" stroke-width="0.26458" stroke-linecap="butt"/><path d="M322.56106,149.75323c1.86639,0.03659 3.23568,0.05488 4.10789,0.05488c0.07927,0 0.3202,3.74498 0.72276,11.23493c-0.31106,0.07927 -1.39673,0.28055 -3.25703,0.60383c-0.09147,0 -0.39339,-2.29335 -0.90574,-6.88001c-0.04268,-0.10978 -0.26532,-1.78099 -0.66788,-5.01362z" data-paper-data="{&quot;origPos&quot;:null}" fill="#2b70c2" stroke="none" stroke-width="0.26458" stroke-linecap="butt"/><path d="M329.80704,152.50707c3.623,0.50015 5.43449,0.80816 5.43449,0.92405c1.42723,1.22595 2.14085,1.88163 2.14085,1.96702c-0.57943,1.81149 -0.90879,2.91242 -0.98809,3.30277c0.57945,1.28695 0.9088,2.05547 0.98809,2.30555c0,0.07318 -0.9454,0.26835 -2.83617,0.58553c-0.02439,-0.10369 -0.19823,-0.33546 -0.52149,-0.69532c-2.6105,0.50015 -4.01639,0.75022 -4.21767,0.75022l-1.39064,-3.76022l3.06491,-1.61937c0.49404,0.07927 1.26559,0.11892 2.31468,0.11892c0,-0.13419 0.01829,-0.53979 0.05488,-1.21682c-0.17688,0 -1.75661,0.11589 -4.73917,0.34767l-0.05488,-0.11892c0.41476,-1.92738 0.66482,-2.89107 0.75022,-2.89107zM331.71002,157.88665c0,0.06708 0.19518,0.7807 0.58554,2.14085h0.05489c0.7685,-0.50013 1.15276,-0.82949 1.15276,-0.98808l0.11891,-0.97895c-0.14639,0 -0.78377,-0.05793 -1.91214,-0.17382z" data-paper-data="{&quot;origPos&quot;:null}" fill="#2b70c2" stroke="none" stroke-width="0.26458" stroke-linecap="butt"/><path d="M344.76558,152.50707h0.03659c1.62851,0.95758 2.50681,1.45773 2.63488,1.50043v0.08232c-0.42084,0.48186 -1.19545,1.31746 -2.32382,2.50682c2.21404,0.82341 3.45831,1.3205 3.73277,1.49128l-2.06766,2.55257c-1.39674,-1.19547 -2.28724,-1.94264 -2.67149,-2.2415c-0.9454,1.842 -1.53399,2.92462 -1.76576,3.24789h-0.03659c-1.7505,-0.61603 -2.702,-0.98199 -2.85448,-1.09788v-0.04574l2.41532,-3.15638c-2.24454,-0.9271 -3.4461,-1.46993 -3.60469,-1.62852c0.98809,-1.6773 1.54312,-2.57086 1.66511,-2.68064c0.0183,0.04268 1.10397,0.78985 3.25703,2.2415c0.76241,-1.40895 1.28999,-2.333 1.58276,-2.77214z" data-paper-data="{&quot;origPos&quot;:null}" fill="#2b70c2" stroke="none" stroke-width="0.26458" stroke-linecap="butt"/><path d="M353.8871,152.52537c0.08538,0.0122 0.12806,0.05488 0.12806,0.12806l-0.95149,5.26979c1.8176,-0.21347 2.72639,-0.38426 2.72639,-0.51234c0.34156,-2.11037 0.57639,-3.29364 0.70447,-3.5498c2.25065,0.46355 3.49795,0.73802 3.74193,0.82342c-1.31135,4.50738 -2.03107,6.85562 -2.15916,7.04469c-2.29334,1.61022 -3.58335,2.50072 -3.87,2.6715c-0.08538,0 -1.54616,-0.35985 -4.38235,-1.07957v-0.06403c0.7502,-1.65292 1.2168,-2.47938 1.39978,-2.47938l2.79044,1.3998l1.33575,-2.28724c-1.20157,0.29886 -1.89994,0.44828 -2.09511,0.44828l-3.55894,-1.84808c0.43305,-3.97676 0.70751,-5.96513 0.8234,-5.96513z" data-paper-data="{&quot;origPos&quot;:null}" fill="#2b70c2" stroke="none" stroke-width="0.26458" stroke-linecap="butt"/><path d="M365.15861,150.0826l0.03659,0.07318c-0.60993,5.38569 -0.95148,8.21576 -1.02468,8.49024c-1.29305,-0.122 -2.11037,-0.2074 -2.45193,-0.25619v-0.03659l-0.58553,-7.64853c0.14639,-0.04879 1.48823,-0.25617 4.02553,-0.62213zM361.53563,158.829c0.04268,0.02439 0.99417,0.09758 2.85447,0.21958l0.03659,0.07318c-0.28668,1.6834 -0.46965,2.52511 -0.54893,2.52511h-2.12255c-0.07318,0 -0.17077,-0.84171 -0.29277,-2.52511c-0.02439,0 -0.03659,-0.07319 -0.03659,-0.21958c0.07318,-0.02439 0.10976,-0.04879 0.10976,-0.07318z" data-paper-data="{&quot;origPos&quot;:null}" fill="#000000" stroke="none" stroke-width="0.26458" stroke-linecap="butt"/></g></g></svg>