<svg version="1.1" xmlns="http://www.w3.org/2000/svg" xmlns:xlink="http://www.w3.org/1999/xlink" width="134.2" height="481.31863"><defs><linearGradient x1="227.60239" y1="-5867.76894" x2="227.60239" y2="15203.01622" gradientUnits="userSpaceOnUse" id="color-1"><stop offset="0" stop-color="#519dff"/><stop offset="1" stop-color="#519dff" stop-opacity="0"/></linearGradient></defs><g transform="translate(-172.9,154.81863)"><g data-paper-data="{&quot;isPaintingLayer&quot;:true}" fill="none" fill-rule="nonzero" stroke="none" stroke-width="none" stroke-linecap="none" stroke-linejoin="miter" stroke-miterlimit="10" stroke-dasharray="" stroke-dashoffset="0" font-family="none" font-weight="none" font-size="none" text-anchor="none" style="mix-blend-mode: normal"><path d="M185.12013,-94.37271l110.23071,-0.21437l-0.02906,395.78406c0,0 -109.19116,-0.31568 -110.06518,1.1702z" data-paper-data="{&quot;origPos&quot;:null}" id="ID0.18147781118750572" fill="url(#color-1)" stroke="#55b2f0" stroke-width="3" stroke-linecap="butt"/><path d="M281.8514,-33.26229v-42.36335" data-paper-data="{&quot;origPos&quot;:null}" fill="none" stroke="#8bdfff" stroke-width="3" stroke-linecap="round"/><path d="M283.72516,-8.36029l0.9151,64.5212" data-paper-data="{&quot;origPos&quot;:null}" fill="none" stroke="#8bdfff" stroke-width="3" stroke-linecap="round"/><path d="M264.05065,-42.78897v46.29757" data-paper-data="{&quot;origPos&quot;:null}" fill="none" stroke="#8bdfff" stroke-width="3" stroke-linecap="round"/><path d="M245.24767,88.00469l-2.81066,-105.36522" data-paper-data="{&quot;origPos&quot;:null}" fill="none" stroke="#8bdfff" stroke-width="3" stroke-linecap="round"/><path d="M268.73505,208.7942l-0.93688,-38.01838" data-paper-data="{&quot;origPos&quot;:null}" fill="none" stroke="#8bdfff" stroke-width="3" stroke-linecap="round"/><path d="M261.43604,95.52011v42.36333" data-paper-data="{&quot;origPos&quot;:null}" fill="none" stroke="#8bdfff" stroke-width="3" stroke-linecap="round"/><path d="M226.51003,171.47055l0.9369,-94.50281" data-paper-data="{&quot;origPos&quot;:null}" fill="none" stroke="#8bdfff" stroke-width="3" stroke-linecap="round"/><path d="M204.09024,131.61746l0.93686,121.65882" data-paper-data="{&quot;origPos&quot;:null}" fill="none" stroke="#8bdfff" stroke-width="3" stroke-linecap="round"/><path d="M226.61896,209.43522l0.9151,96.38169" data-paper-data="{&quot;origPos&quot;:null}" fill="none" stroke="#8bdfff" stroke-width="3" stroke-linecap="round"/><path d="M244.37613,144.83085v87.98539" data-paper-data="{&quot;origPos&quot;:null}" fill="none" stroke="#8bdfff" stroke-width="3" stroke-linecap="round"/><path d="M283.72516,222.86158v-145.55606" data-paper-data="{&quot;origPos&quot;:null}" fill="none" stroke="#8bdfff" stroke-width="3" stroke-linecap="round"/><path d="M264.57369,303.04069l-0.9151,-71.38169" data-paper-data="{&quot;origPos&quot;:null}" fill="none" stroke="#8bdfff" stroke-width="3" stroke-linecap="round"/><path d="M204.11202,24.80735l-0.9369,-106.45144" data-paper-data="{&quot;origPos&quot;:null}" fill="none" stroke="#8bdfff" stroke-width="3" stroke-linecap="round"/><path d="M220.9541,-37.4364l0.9151,94.50281" data-paper-data="{&quot;origPos&quot;:null}" fill="none" stroke="#8bdfff" stroke-width="3" stroke-linecap="round"/><path d="M194.76472,64.03642v42.36333" data-paper-data="{&quot;origPos&quot;:null}" fill="none" stroke="#8bdfff" stroke-width="3" stroke-linecap="round"/><path d="M240.62861,-153.31862l2.81064,105.36522" data-paper-data="{&quot;origPos&quot;:null}" fill="none" stroke="#8bdfff" stroke-width="3" stroke-linecap="round"/><path d="M221.89098,-134.03307l0.95866,61.91564" data-paper-data="{&quot;origPos&quot;:null}" fill="none" stroke="#8bdfff" stroke-width="3" stroke-linecap="round"/><g data-paper-data="{&quot;origPos&quot;:null}" fill="#8bdfff" stroke="none" stroke-linecap="butt"><path d="M212.5,305.84551c0,11.40716 -8.86476,20.65449 -19.8,20.65449c-10.93524,0 -19.8,-9.24732 -19.8,-20.65449c0,-11.40716 8.86476,-20.65449 19.8,-20.65449c10.93524,0 19.8,9.24732 19.8,20.65449z" data-paper-data="{&quot;origPos&quot;:null}" stroke-width="3"/><path d="M290.05,286.3075c9.41645,0 17.05,7.49783 17.05,16.74688c0,9.24905 -7.63355,16.74688 -17.05,16.74688c-9.41645,0 -17.05,-7.49783 -17.05,-16.74688c0,-9.24905 7.63355,-16.74688 17.05,-16.74688z" data-paper-data="{&quot;origPos&quot;:null}" stroke-width="0"/><path d="M234.5,301.37969c0,7.09093 -6.40233,12.83928 -14.3,12.83928c-7.89767,0 -14.3,-5.74834 -14.3,-12.83928c0,-7.09093 6.40233,-12.83928 14.3,-12.83928c7.89767,0 14.3,5.74834 14.3,12.83928z" data-paper-data="{&quot;origPos&quot;:null}" stroke-width="0"/><path d="M264.75,300.82147c6.37889,0 11.55,5.24848 11.55,11.72282c0,6.47433 -5.17111,11.72282 -11.55,11.72282c-6.37889,0 -11.55,-5.24848 -11.55,-11.72282c0,-6.47433 5.17111,-11.72282 11.55,-11.72282z" data-paper-data="{&quot;origPos&quot;:null}" stroke-width="0"/><path d="M259.8,299.70501c0,9.24905 -7.3873,16.74688 -16.5,16.74688c-9.1127,0 -16.5,-7.49783 -16.5,-16.74688c0,-9.24905 7.3873,-16.74688 16.5,-16.74688c9.1127,0 16.5,7.49783 16.5,16.74688z" data-paper-data="{&quot;origPos&quot;:null}" stroke-width="0"/><path d="M268.6,281.84166c7.89767,0 14.3,6.24819 14.3,13.95574c0,7.70754 -6.40233,13.95574 -14.3,13.95574c-7.89767,0 -14.3,-6.24819 -14.3,-13.95574c0,-7.70754 6.40233,-13.95574 14.3,-13.95574z" data-paper-data="{&quot;origPos&quot;:null}" stroke-width="0"/><path d="M246.6,309.19489c0,7.09093 -5.6636,12.83928 -12.65,12.83928c-6.9864,0 -12.65,-5.74834 -12.65,-12.83928c0,-7.09093 5.6636,-12.83928 12.65,-12.83928c6.9864,0 12.65,5.74834 12.65,12.83928z" data-paper-data="{&quot;origPos&quot;:null}" stroke-width="0"/></g></g></g></svg>