<svg version="1.1" xmlns="http://www.w3.org/2000/svg" xmlns:xlink="http://www.w3.org/1999/xlink" width="437" height="90.79587" viewBox="0,0,437,90.79587"><defs><linearGradient x1="240" y1="135.60204" x2="240" y2="224.39794" gradientUnits="userSpaceOnUse" id="color-1"><stop offset="0" stop-color="#ffffff"/><stop offset="1" stop-color="#d8d8d8"/></linearGradient><linearGradient x1="240" y1="135.60207" x2="240" y2="224.39794" gradientUnits="userSpaceOnUse" id="color-2"><stop offset="0" stop-color="#343434"/><stop offset="1" stop-color="#090909"/></linearGradient><radialGradient cx="443.8065" cy="206.54466" r="17.9081" gradientUnits="userSpaceOnUse" id="color-3"><stop offset="0" stop-color="#ffffff"/><stop offset="1" stop-color="#e5e5e5"/></radialGradient></defs><g transform="translate(-21.5,-134.60207)"><g data-paper-data="{&quot;isPaintingLayer&quot;:true}" fill-rule="nonzero" stroke-linejoin="miter" stroke-miterlimit="10" stroke-dasharray="" stroke-dashoffset="0" style="mix-blend-mode: normal"><path d="M22.5,224.39794v-88.79587h435v88.79587z" data-paper-data="{&quot;origPos&quot;:null}" fill="url(#color-1)" stroke="url(#color-2)" stroke-width="2" stroke-linecap="butt"/><g data-paper-data="{&quot;origPos&quot;:null}"><path d="M444.3058,202.09868c2.5136,0 4.7909,1.0212 6.4406,2.6702c1.6489,1.6496 2.6702,3.9269 2.6702,6.4405c0,2.5136 -1.0213,4.791 -2.6702,6.4406c-1.6497,1.649 -3.927,2.6702 -6.4406,2.6702c-2.5136,0 -4.7909,-1.0212 -6.4406,-2.6702c-1.6489,-1.6496 -2.6701,-3.927 -2.6701,-6.4406c0,-2.5136 1.0212,-4.7909 2.6701,-6.4405c1.6497,-1.649 3.927,-2.6702 6.4406,-2.6702z" fill="url(#color-3)" stroke="#000000" stroke-width="2.0785" stroke-linecap="butt"/><path d="M441.2734,206.54886l5.6119,0.4503l1.7321,3.187l-3.6374,2.9446l3.3603,-0.5197l0.7967,3.4642l-7.4479,-0.0693l-1.9053,-2.4249l4.6766,-3.3256l-4.5727,-0.3464z" fill="#000000" stroke="none" stroke-width="0.69283" stroke-linecap="round"/></g><path d="M36.42491,147.15936c2.53254,0.56558 3.9402,0.88923 4.22299,0.97091v0.066c-0.08798,2.26861 -0.15396,3.5883 -0.19796,3.95906c0.14454,0 0.79496,0.15082 1.95125,0.45247c1.0369,-3.19867 1.59933,-4.79801 1.68731,-4.79801c1.73445,0.77925 2.83733,1.29769 3.30865,1.55534v0.06597c-1.90412,4.43038 -2.985,6.87495 -3.24265,7.33369c-0.4776,0.39591 -2.14293,1.9104 -4.99597,4.54349h-0.06597l-5.25989,-2.59224c0.48389,-0.82952 1.06831,-1.78158 1.75329,-2.85618c0.03142,0 0.85467,0.54045 2.4697,1.62134h0.066c0.54045,-0.43989 1.18771,-1.06832 1.94183,-1.88527c0,-0.0377 -1.2317,-1.24743 -3.69512,-3.62915v-4.67546z" data-paper-data="{&quot;origPos&quot;:null}" fill="#000000" stroke="none" stroke-width="0.26459" stroke-linecap="butt"/><path d="M52.22346,150.01554c2.388,0.64099 3.65427,1.0306 3.79881,1.16886c1.3134,1.86013 2.05181,2.93158 2.2152,3.21437c-0.84837,2.68965 -1.3354,4.03448 -1.46108,4.03448c-2.82791,0.65984 -4.30784,0.98977 -4.43981,0.98977c-2.33774,-1.36368 -3.58202,-2.12407 -3.73284,-2.28118c-0.0817,-2.53883 -0.12255,-3.9402 -0.12255,-4.20414c-0.0377,-0.07541 -0.05656,-0.13197 -0.05656,-0.16967c2.41314,-1.83499 3.66057,-2.7525 3.74226,-2.7525zM52.04435,153.46558c-0.0377,0.25137 -0.09426,1.16571 -0.16967,2.74306l2.10207,0.47132c0.50274,-1.57106 0.7541,-2.41 0.7541,-2.51683c-1.6716,-0.50274 -2.56709,-0.75411 -2.6865,-0.75411z" data-paper-data="{&quot;origPos&quot;:null}" fill="#000000" stroke="none" stroke-width="0.26459" stroke-linecap="butt"/><path d="M64.18548,150.00612l0.066,0.12255l-1.27256,6.74925h0.06597l3.24267,-0.95206v-3.81766c0.01259,-0.08798 0.05344,-0.13197 0.12255,-0.13197c2.43828,0.16968 3.79567,0.25452 4.07218,0.25452c0,0.04398 0.022,0.06597 0.066,0.06597c0,1.0746 -0.33935,3.30236 -1.01804,6.68327c0,0.19481 -0.97406,0.3425 -2.92217,0.44304c-0.10054,-0.11941 -0.18539,-0.37391 -0.25452,-0.76353c-2.49483,0.50902 -3.91821,0.76353 -4.27012,0.76353c-1.9921,-1.48308 -2.98815,-2.24662 -2.98815,-2.29061c0.33935,-4.45551 0.55301,-6.76812 0.64099,-6.93779h0.05656c1.58992,-0.044 3.05413,-0.10683 4.39268,-0.18852z" data-paper-data="{&quot;origPos&quot;:null}" fill="#000000" stroke="none" stroke-width="0.26459" stroke-linecap="butt"/><path d="M81.02092,150.01554c0.19481,0.80438 0.32991,1.30084 0.40532,1.48936c2.77763,-0.63471 4.24499,-0.95206 4.4021,-0.95206c1.89155,2.72107 2.83733,4.14129 2.83733,4.2607l-2.16805,4.60006l-4.66605,-0.74469v0.1414c0.36448,2.79648 0.54673,4.2827 0.54673,4.45866c-0.044,0 -0.066,0.022 -0.066,0.066c-0.45247,-0.044 -0.79182,-0.066 -1.01804,-0.066h-0.81066c-0.47132,0 -1.19401,-0.02199 -2.16807,-0.06597c-0.08798,-0.26394 -0.76353,-4.27642 -2.02666,-12.03743c0.21367,-0.08798 1.79101,-0.47132 4.73203,-1.15002zM81.36026,153.87091c0.12569,1.44538 0.2388,2.16807 0.33935,2.16807c1.28827,0.44619 2.07694,0.66927 2.36601,0.66927l0.74467,-3.24265h-0.066c-0.73526,0.044 -1.86327,0.1791 -3.38406,0.40532z" data-paper-data="{&quot;origPos&quot;:null}" fill="#000000" stroke="none" stroke-width="0.26459" stroke-linecap="butt"/><path d="M90.93742,146.22615l3.70456,0.58443c-0.46504,1.77844 -0.76982,2.66766 -0.91436,2.66766c-1.94811,-0.13198 -2.92217,-0.2608 -2.92217,-0.38648v-2.73364c0.01887,-0.08798 0.06285,-0.13197 0.13197,-0.13197zM89.90052,150.71309h0.05656c2.86561,0.52159 4.29841,0.82638 4.29841,0.91436c-0.82323,4.6629 -1.32282,7.26143 -1.49879,7.79559h-2.98815c-0.08798,0 -0.13197,-0.04398 -0.13197,-0.13197z" data-paper-data="{&quot;origPos&quot;:null}" fill="#000000" stroke="none" stroke-width="0.26459" stroke-linecap="butt"/><path d="M98.65759,150.01554c2.83419,0.53415 4.31727,0.83893 4.44923,0.91434v0.11311c-0.60958,1.72188 -0.91436,2.61425 -0.91436,2.67709h-0.05656c-0.15711,0 -0.91749,-0.24509 -2.28117,-0.73526c-0.76039,1.27569 -1.1406,1.95753 -1.1406,2.04551l1.88527,1.82871c1.45794,-1.36996 2.19949,-2.05494 2.22462,-2.05494c1.13745,1.48936 1.70616,2.32516 1.70616,2.50741c-0.62213,0.3582 -1.70616,1.06203 -3.25208,2.1115c-2.9913,-0.64728 -4.60634,-1.00862 -4.84514,-1.08403l-1.47994,-4.78858z" data-paper-data="{&quot;origPos&quot;:null}" fill="#000000" stroke="none" stroke-width="0.26459" stroke-linecap="butt"/><path d="M109.62986,147.15936c0.08798,0.25137 0.28593,2.03295 0.59386,5.34474l2.82789,-3.16726h0.066c0.43989,0.36448 1.25371,1.1343 2.44142,2.30946v0.066l-2.70537,2.23404c2.03609,1.36368 3.11383,2.13348 3.23324,2.30944c-1.28199,1.42653 -2.05181,2.24033 -2.30946,2.44142l-3.2898,-3.03528c0.13198,1.3574 0.19796,2.36915 0.19796,3.03528c-0.15711,0.08798 -1.32284,0.32993 -3.49717,0.72584c-0.17595,-0.87979 -0.74781,-4.65975 -1.71559,-11.33989c0.40219,-0.13198 1.78786,-0.43991 4.15701,-0.92378z" data-paper-data="{&quot;origPos&quot;:null}" fill="#000000" stroke="none" stroke-width="0.26459" stroke-linecap="butt"/><path d="M122.2423,150.01554c2.84676,1.46423 4.4241,2.31887 4.73203,2.56396c-0.40848,1.9104 -0.65043,2.89389 -0.72584,2.95044h-5.95745v0.1037l1.66847,2.06437l2.62052,-1.33854c0.25765,0.44619 0.62841,1.22543 1.1123,2.33774c-0.22624,0.07541 -1.87584,0.31734 -4.94883,0.72582c-2.54511,-1.67788 -3.82708,-2.55139 -3.84594,-2.62052c0.40847,-3.26152 0.65041,-4.89227 0.72582,-4.89227c2.65822,-1.13116 4.19786,-1.76273 4.6189,-1.8947zM121.62959,152.29671c-0.05028,0.12569 -0.38334,0.62528 -0.99919,1.49879c0,0.26394 0.37076,0.39591 1.1123,0.39591c0,0.0377 0.53731,0.12883 1.61191,0.27337c0.29536,-0.40847 0.44303,-0.64727 0.44303,-0.7164c-0.09427,-0.5593 -0.2985,-0.83895 -0.61271,-0.83895z" data-paper-data="{&quot;origPos&quot;:null}" fill="#000000" stroke="none" stroke-width="0.26459" stroke-linecap="butt"/><path d="M133.53506,147.14993h0.05656c2.84046,0.2388 4.26071,0.42419 4.26071,0.55615l1.2537,11.0948c0,0.0817 -1.2537,0.28909 -3.7611,0.62215l-0.05656,-0.12255v-1.00862c-2.16177,0.58443 -3.64486,0.96149 -4.44923,1.13116c-1.9104,-2.70222 -2.91274,-4.1413 -3.007,-4.31727c1.40766,-2.55768 2.15863,-3.85223 2.25289,-3.88365l3.94964,0.18852c-0.0817,-0.48389 -0.24824,-1.90411 -0.4996,-4.2607zM131.78176,153.90862c0.63471,1.94183 1.0306,3.007 1.18771,3.19552l1.87584,-1.63075c-0.19481,-1.12488 -0.33935,-1.68732 -0.43361,-1.68732h-2.50741c-0.0817,0.01259 -0.12255,0.05344 -0.12255,0.12255z" data-paper-data="{&quot;origPos&quot;:null}" fill="#000000" stroke="none" stroke-width="0.26459" stroke-linecap="butt"/><path d="M149.96516,150.00612l0.06597,0.12255l-1.27256,6.74925h0.066l3.24267,-0.95206v-3.81766c0.01259,-0.08798 0.05344,-0.13197 0.12255,-0.13197c2.43828,0.16968 3.79567,0.25452 4.07218,0.25452c0,0.04398 0.022,0.06597 0.066,0.06597c0,1.0746 -0.33935,3.30236 -1.01804,6.68327c0,0.19481 -0.97406,0.3425 -2.92217,0.44304c-0.10054,-0.11941 -0.18539,-0.37391 -0.25452,-0.76353c-2.49483,0.50902 -3.91821,0.76353 -4.27012,0.76353c-1.9921,-1.48308 -2.98815,-2.24662 -2.98815,-2.29061c0.33935,-4.45551 0.55301,-6.76812 0.64099,-6.93779h0.05656c1.58992,-0.044 3.05413,-0.10683 4.39268,-0.18852z" data-paper-data="{&quot;origPos&quot;:null}" fill="#000000" stroke="none" stroke-width="0.26459" stroke-linecap="butt"/><path d="M162.01202,150.01554c0.19481,0.80438 0.32993,1.30084 0.40534,1.48936c2.77763,-0.63471 4.24499,-0.95206 4.4021,-0.95206c1.89155,2.72107 2.83733,4.14129 2.83733,4.2607l-2.16807,4.60006l-4.66603,-0.74469v0.1414c0.36448,2.79648 0.54673,4.2827 0.54673,4.45866c-0.04398,0 -0.06597,0.022 -0.06597,0.066c-0.45247,-0.044 -0.7918,-0.066 -1.01804,-0.066h-0.81068c-0.47132,0 -1.19399,-0.02199 -2.16805,-0.06597c-0.08798,-0.26394 -0.76353,-4.27642 -2.02666,-12.03743c0.21367,-0.08798 1.791,-0.47132 4.73201,-1.15002zM162.35137,153.87091c0.12569,1.44538 0.2388,2.16807 0.33935,2.16807c1.28827,0.44619 2.07692,0.66927 2.366,0.66927l0.74469,-3.24265h-0.066c-0.73525,0.044 -1.86327,0.1791 -3.38406,0.40532z" data-paper-data="{&quot;origPos&quot;:null}" fill="#000000" stroke="none" stroke-width="0.26459" stroke-linecap="butt"/><path d="M176.84908,150.00612c3.73284,0.5153 5.59925,0.83266 5.59925,0.95206c1.47051,1.26314 2.20576,1.93868 2.20576,2.02666c-0.597,1.86642 -0.93636,3.00072 -1.01804,3.40291c0.597,1.32597 0.93636,2.11778 1.01804,2.37543c0,0.07541 -0.97406,0.27652 -2.92217,0.6033c-0.02513,-0.10683 -0.20424,-0.34565 -0.5373,-0.71641c-2.68965,0.5153 -4.13817,0.77297 -4.34555,0.77297l-1.4328,-3.87423l3.15783,-1.66847c0.50902,0.0817 1.30399,0.12255 2.38487,0.12255c0,-0.13824 0.01885,-0.55614 0.05656,-1.2537c-0.18224,0 -1.80986,0.11941 -4.88285,0.3582l-0.05656,-0.12255c0.42733,-1.98581 0.68497,-2.97872 0.77295,-2.97872zM178.80976,155.5488c0,0.06913 0.20111,0.80438 0.6033,2.20576h0.05656c0.79182,-0.5153 1.18771,-0.85465 1.18771,-1.01804l0.12255,-1.00862c-0.15082,0 -0.80752,-0.0597 -1.97011,-0.17911z" data-paper-data="{&quot;origPos&quot;:null}" fill="#000000" stroke="none" stroke-width="0.26459" stroke-linecap="butt"/><path d="M185.67215,156.51972c0.044,0.02513 1.02434,0.10054 2.94102,0.22623l0.0377,0.07541c-0.29536,1.73444 -0.48389,2.60167 -0.56559,2.60167h-2.1869c-0.07541,0 -0.17596,-0.86723 -0.30165,-2.60167c-0.02513,0 -0.0377,-0.07541 -0.0377,-0.22623c0.07541,-0.02513 0.11311,-0.05028 0.11311,-0.07541z" data-paper-data="{&quot;origPos&quot;:null}" fill="#000000" stroke="none" stroke-width="0.26459" stroke-linecap="butt"/><path d="M189.6689,156.51972c0.044,0.02513 1.02434,0.10054 2.94102,0.22623l0.0377,0.07541c-0.29536,1.73444 -0.48389,2.60167 -0.56558,2.60167h-2.18692c-0.07541,0 -0.17595,-0.86723 -0.30163,-2.60167c-0.02513,0 -0.0377,-0.07541 -0.0377,-0.22623c0.07541,-0.02513 0.11311,-0.05028 0.11311,-0.07541z" data-paper-data="{&quot;origPos&quot;:null}" fill="#000000" stroke="none" stroke-width="0.26459" stroke-linecap="butt"/><path d="M193.66568,156.51972c0.044,0.02513 1.02434,0.10054 2.94102,0.22623l0.0377,0.07541c-0.29536,1.73444 -0.48389,2.60167 -0.56558,2.60167h-2.18692c-0.07541,0 -0.17596,-0.86723 -0.30165,-2.60167c-0.02513,0 -0.0377,-0.07541 -0.0377,-0.22623c0.07541,-0.02513 0.11311,-0.05028 0.11311,-0.07541z" data-paper-data="{&quot;origPos&quot;:null}" fill="#000000" stroke="none" stroke-width="0.26459" stroke-linecap="butt"/><path d="M209.36997,150.0344c2.6708,0.06913 4.00619,0.18537 4.00619,0.34876c0.45874,6.95664 0.68812,10.65805 0.68812,11.10424c-2.02352,1.28827 -3.47204,2.16177 -4.34555,2.62052c-3.07926,-0.96777 -4.6189,-1.52077 -4.6189,-1.65903c0.99291,-1.45166 1.56792,-2.18692 1.72503,-2.20577c1.67788,0.82952 2.6425,1.24428 2.89387,1.24428l0.8955,-1.1783c-0.2388,-0.97406 -0.39906,-1.54905 -0.48074,-1.72501c-0.13824,0 -1.84127,0.27652 -5.10907,0.82952c-1.79101,-2.90959 -2.6865,-4.4021 -2.6865,-4.47751c1.54592,-2.4697 2.48854,-3.91823 2.82789,-4.34555h0.066c0.18224,0 1.53964,0.2985 4.07218,0.8955v-0.20737c0,-0.24509 -0.022,-0.63785 -0.066,-1.1783zM206.4101,154.03116c0.08798,0.19481 0.36447,1.23171 0.82951,3.11069c0.58443,-0.18852 1.47995,-0.53415 2.68651,-1.0369c-0.23252,-1.13116 -0.34878,-1.77529 -0.34878,-1.9324l-0.33935,-0.06597h-0.41475c-0.52787,0 -1.33226,-0.02513 -2.41314,-0.07541z" data-paper-data="{&quot;origPos&quot;:null}" fill="#32c22b" stroke="none" stroke-width="0.26459" stroke-linecap="butt"/><path d="M218.88114,150.01554c2.38801,0.64099 3.65428,1.0306 3.79882,1.16886c1.3134,1.86013 2.05179,2.93158 2.21518,3.21437c-0.84837,2.68965 -1.3354,4.03448 -1.46108,4.03448c-2.82791,0.65984 -4.30784,0.98977 -4.43981,0.98977c-2.33774,-1.36368 -3.58201,-2.12407 -3.73282,-2.28118c-0.0817,-2.53883 -0.12255,-3.9402 -0.12255,-4.20414c-0.0377,-0.07541 -0.05656,-0.13197 -0.05656,-0.16967c2.41314,-1.83499 3.66056,-2.7525 3.74225,-2.7525zM218.70203,153.46558c-0.0377,0.25137 -0.09426,1.16571 -0.16967,2.74306l2.10207,0.47132c0.50274,-1.57106 0.75411,-2.41 0.75411,-2.51683c-1.6716,-0.50274 -2.56712,-0.75411 -2.68651,-0.75411z" data-paper-data="{&quot;origPos&quot;:null}" fill="#32c22b" stroke="none" stroke-width="0.26459" stroke-linecap="butt"/><path d="M229.55175,150.01554c2.38801,0.64099 3.6543,1.0306 3.79883,1.16886c1.3134,1.86013 2.05178,2.93158 2.21517,3.21437c-0.84836,2.68965 -1.33538,4.03448 -1.46108,4.03448c-2.82789,0.65984 -4.30783,0.98977 -4.43981,0.98977c-2.33772,-1.36368 -3.58201,-2.12407 -3.73282,-2.28118c-0.0817,-2.53883 -0.12255,-3.9402 -0.12255,-4.20414c-0.0377,-0.07541 -0.05656,-0.13197 -0.05656,-0.16967c2.41314,-1.83499 3.66056,-2.7525 3.74226,-2.7525zM229.37267,153.46558c-0.0377,0.25137 -0.09426,1.16571 -0.16967,2.74306l2.10207,0.47132c0.50274,-1.57106 0.75411,-2.41 0.75411,-2.51683c-1.67162,-0.50274 -2.56712,-0.75411 -2.68651,-0.75411z" data-paper-data="{&quot;origPos&quot;:null}" fill="#32c22b" stroke="none" stroke-width="0.26459" stroke-linecap="butt"/><path d="M245.13351,147.15936c0.33306,0.0377 1.54592,0.31735 3.63855,0.83895l0.05664,0.11311c-0.30793,1.71559 -0.49332,2.57339 -0.55615,2.57339h-0.05664l-1.51764,-0.78239c0,0.17595 -0.05654,0.96149 -0.16964,2.35659l2.07379,-0.50902c0.06275,0.18852 0.1193,1.02747 0.16964,2.51683c-0.20109,0.07541 -0.89236,0.18852 -2.07379,0.33935c0.26394,1.13116 0.54359,2.51368 0.83893,4.14758c-0.96777,0.21995 -2.12406,0.44304 -3.46888,0.66927l-0.05664,-0.11311c-0.17603,-2.90959 -0.3237,-4.36438 -0.44304,-4.36438c-1.21914,0.29536 -1.8727,0.46189 -1.96068,0.4996c-0.07534,-0.36448 -0.20731,-1.35425 -0.3959,-2.9693l0.113,-0.05656h2.01724c-0.1131,-0.93006 -0.28277,-2.14293 -0.50904,-3.63858z" data-paper-data="{&quot;origPos&quot;:null}" fill="#32c22b" stroke="none" stroke-width="0.26459" stroke-linecap="butt"/><path d="M249.69584,147.16879c1.92297,0.0377 3.33378,0.05656 4.23243,0.05656c0.08172,0 0.32994,3.85851 0.74467,11.57554c-0.3205,0.0817 -1.43908,0.28908 -3.35577,0.62213c-0.0943,0 -0.40538,-2.36287 -0.93322,-7.0886c-0.04396,-0.11311 -0.27333,-1.83498 -0.68812,-5.16563z" data-paper-data="{&quot;origPos&quot;:null}" fill="#32c22b" stroke="none" stroke-width="0.26459" stroke-linecap="butt"/><path d="M259.5275,150.01554c2.38801,0.64099 3.6543,1.0306 3.79883,1.16886c1.3134,1.86013 2.05178,2.93158 2.21517,3.21437c-0.84837,2.68965 -1.3354,4.03448 -1.46108,4.03448c-2.82789,0.65984 -4.30783,0.98977 -4.43981,0.98977c-2.33772,-1.36368 -3.58199,-2.12407 -3.73281,-2.28118c-0.08172,-2.53883 -0.12258,-3.9402 -0.12258,-4.20414c-0.03776,-0.07541 -0.05664,-0.13197 -0.05664,-0.16967c2.41314,-1.83499 3.66056,-2.7525 3.74225,-2.7525zM259.34855,153.46558c-0.03776,0.25137 -0.0943,1.16571 -0.16964,2.74306l2.10208,0.47132c0.50274,-1.57106 0.75411,-2.41 0.75411,-2.51683c-1.67162,-0.50274 -2.56711,-0.75411 -2.6865,-0.75411z" data-paper-data="{&quot;origPos&quot;:null}" fill="#32c22b" stroke="none" stroke-width="0.26459" stroke-linecap="butt"/><path d="M270.53746,150.00612c0.08172,0.10683 0.5059,1.92927 1.27256,5.46728h0.06594c0,-0.0817 0.46502,-0.80126 1.39509,-2.15864c0.38963,0.26394 1.13117,0.83582 2.22461,1.7156h0.13188v-0.066c0.16964,-2.45085 0.29533,-3.80823 0.37704,-4.07218c2.58911,0.13198 3.88365,0.2388 3.88365,0.32049c-1.18771,4.77601 -1.82242,7.25829 -1.90412,7.44681c-0.39591,0.04398 -1.22543,0.16967 -2.48857,0.37706c-1.0369,-1.62762 -1.63075,-2.49483 -1.78157,-2.60167c-0.67869,1.80986 -1.10288,2.80591 -1.27256,2.98815h-2.5451c-0.15706,-0.05028 -0.8986,-1.68418 -2.22461,-4.9017c-0.84837,-1.79729 -1.27256,-2.77135 -1.27256,-2.92217c0,-0.13824 1.37938,-0.66927 4.13814,-1.59305z" data-paper-data="{&quot;origPos&quot;:null}" fill="#32c22b" stroke="none" stroke-width="0.26459" stroke-linecap="butt"/><path d="M286.26062,150.01554c2.84676,1.46423 4.42409,2.31887 4.732,2.56396c-0.40847,1.9104 -0.65041,2.89389 -0.72582,2.95044h-5.95745v0.1037l1.66846,2.06437l2.62053,-1.33854c0.25765,0.44619 0.62843,1.22543 1.1123,2.33774c-0.22623,0.07541 -1.87583,0.31734 -4.94881,0.72582c-2.54512,-1.67788 -3.82711,-2.55139 -3.84595,-2.62052c0.40847,-3.26152 0.65041,-4.89227 0.72582,-4.89227c2.65824,-1.13116 4.19787,-1.76273 4.61892,-1.8947zM285.64791,152.29671c-0.05035,0.12569 -0.3834,0.62528 -0.99919,1.49879c0,0.26394 0.37076,0.39591 1.1123,0.39591c0,0.0377 0.5373,0.12883 1.6119,0.27337c0.29536,-0.40847 0.44304,-0.64727 0.44304,-0.7164c-0.0943,-0.5593 -0.29854,-0.83895 -0.61271,-0.83895z" data-paper-data="{&quot;origPos&quot;:null}" fill="#32c22b" stroke="none" stroke-width="0.26459" stroke-linecap="butt"/><path d="M298.61853,150.00612c1.24428,0.69754 2.00781,1.15001 2.29061,1.35738c-1.01803,2.11779 -1.56476,3.19554 -1.64017,3.23324h-0.06594l-1.34797,-1.17829l-1.59305,1.94181l0.17922,3.53489c-0.08172,0.07541 -1.12176,0.25137 -3.12013,0.52787c-0.07534,-0.54045 -0.5655,-3.18924 -1.4705,-7.9464c0,-0.07541 1.3134,-0.27024 3.94021,-0.58444c0.04396,0.05028 0.16336,0.63785 0.35819,1.76273c1.57105,-1.76586 2.39428,-2.6488 2.46969,-2.6488z" data-paper-data="{&quot;origPos&quot;:null}" fill="#32c22b" stroke="none" stroke-width="0.26459" stroke-linecap="butt"/><path d="M301.76695,156.51972c0.04396,0.02513 1.0243,0.10054 2.94102,0.22623l0.03776,0.07541c-0.29536,1.73444 -0.48389,2.60167 -0.56559,2.60167h-2.1869c-0.07534,0 -0.17588,-0.86723 -0.30163,-2.60167c-0.02517,0 -0.03776,-0.07541 -0.03776,-0.22623c0.07534,-0.02513 0.113,-0.05028 0.113,-0.07541z" data-paper-data="{&quot;origPos&quot;:null}" fill="#000000" stroke="none" stroke-width="0.26459" stroke-linecap="butt"/><path d="M317.28268,147.15936l4.10988,3.03528c-0.56558,2.58281 -0.92378,3.87423 -1.0746,3.87423c-0.03137,0 -0.78548,0.63471 -2.26231,1.90412c-0.9175,-0.04398 -1.96699,-0.10369 -3.14842,-0.17911l-0.12258,3.39347c-0.25765,0.07541 -1.36997,0.15396 -3.33694,0.23567c-0.2388,0 -0.35819,-0.67556 -0.35819,-2.02666c-0.43361,-5.59296 -0.65041,-8.60939 -0.65041,-9.04928c0.73526,-0.15711 3.01644,-0.55301 6.84352,-1.18771zM314.72815,149.83643v3.93078c1.54592,-0.2765 2.31887,-0.43676 2.31887,-0.48074l0.5373,-2.31887c-0.76039,-0.31421 -1.71245,-0.69128 -2.85617,-1.13117z" data-paper-data="{&quot;origPos&quot;:null}" fill="#000000" stroke="none" stroke-width="0.26459" stroke-linecap="butt"/><path d="M329.23531,150.00612c1.24428,0.69754 2.00781,1.15001 2.29061,1.35738c-1.01806,2.11779 -1.56478,3.19554 -1.64019,3.23324h-0.06594l-1.34794,-1.17829l-1.59308,1.94181l0.17922,3.53489c-0.08172,0.07541 -1.12176,0.25137 -3.12013,0.52787c-0.07534,-0.54045 -0.5655,-3.18924 -1.4705,-7.9464c0,-0.07541 1.3134,-0.27024 3.94021,-0.58444c0.04396,0.05028 0.16336,0.63785 0.35819,1.76273c1.57106,-1.76586 2.39431,-2.6488 2.46971,-2.6488z" data-paper-data="{&quot;origPos&quot;:null}" fill="#000000" stroke="none" stroke-width="0.26459" stroke-linecap="butt"/><path d="M337.61527,150.01554c2.84676,1.46423 4.4241,2.31887 4.73203,2.56396c-0.40847,1.9104 -0.65041,2.89389 -0.72582,2.95044h-5.95745v0.1037l1.66846,2.06437l2.62053,-1.33854c0.25765,0.44619 0.62843,1.22543 1.1123,2.33774c-0.22623,0.07541 -1.87584,0.31734 -4.94884,0.72582c-2.54511,-1.67788 -3.82708,-2.55139 -3.84592,-2.62052c0.40847,-3.26152 0.65041,-4.89227 0.72582,-4.89227c2.65822,-1.13116 4.19785,-1.76273 4.61889,-1.8947zM337.00256,152.29671c-0.05035,0.12569 -0.3834,0.62528 -0.99919,1.49879c0,0.26394 0.37076,0.39591 1.1123,0.39591c0,0.0377 0.53731,0.12883 1.61193,0.27337c0.29536,-0.40847 0.44304,-0.64727 0.44304,-0.7164c-0.0943,-0.5593 -0.29856,-0.83895 -0.61274,-0.83895z" data-paper-data="{&quot;origPos&quot;:null}" fill="#000000" stroke="none" stroke-width="0.26459" stroke-linecap="butt"/><path d="M350.81219,150.00612c1.80986,1.1563 2.80905,1.82242 2.99758,1.99838c-0.65356,1.45166 -1.02747,2.17748 -1.12174,2.17748l-3.43117,-1.98896h-0.12258c0,0.06284 -0.14768,0.41476 -0.44304,1.05575c3.16098,1.70303 4.74147,2.57653 4.74147,2.62052c-0.88608,2.04866 -1.38567,3.12955 -1.49879,3.24267l-5.36359,0.31107c-2.08636,-1.38253 -3.2081,-2.11151 -3.36521,-2.18692v-0.05656c0,-0.15711 0.31106,-0.86408 0.9332,-2.12092l4.18529,2.17748l0.31107,-1.24427c-2.58911,-1.16258 -4.12873,-1.88842 -4.61889,-2.17749v-0.13197c0,-0.2388 0.4996,-1.29768 1.49879,-3.17667z" data-paper-data="{&quot;origPos&quot;:null}" fill="#000000" stroke="none" stroke-width="0.26459" stroke-linecap="butt"/><path d="M362.35004,150.00612c1.80985,1.1563 2.80904,1.82242 2.99758,1.99838c-0.65356,1.45166 -1.02747,2.17748 -1.12174,2.17748l-3.43117,-1.98896h-0.12258c0,0.06284 -0.14768,0.41476 -0.44304,1.05575c3.16097,1.70303 4.74144,2.57653 4.74144,2.62052c-0.88608,2.04866 -1.38567,3.12955 -1.49879,3.24267l-5.36359,0.31107c-2.08636,-1.38253 -3.2081,-2.11151 -3.36521,-2.18692v-0.05656c0,-0.15711 0.31107,-0.86408 0.93322,-2.12092l4.18529,2.17748l0.31107,-1.24427c-2.58911,-1.16258 -4.12875,-1.88842 -4.61892,-2.17749v-0.13197c0,-0.2388 0.4996,-1.29768 1.49879,-3.17667z" data-paper-data="{&quot;origPos&quot;:null}" fill="#000000" stroke="none" stroke-width="0.26459" stroke-linecap="butt"/><path d="M379.78875,147.15936h0.06594c2.1869,1.28199 3.36519,1.95125 3.53488,2.00781v0.11311c-0.56558,0.64728 -1.60877,1.76901 -3.12954,3.36521c2.97871,1.10603 4.65031,1.77216 5.01481,1.99838l-2.77135,3.42176c-1.8727,-1.59619 -3.06985,-2.59853 -3.59143,-3.007c-1.26314,2.4697 -2.04867,3.92449 -2.3566,4.36438h-0.06594c-2.34402,-0.82323 -3.61971,-1.3134 -3.8271,-1.47051v-0.066l3.24265,-4.24184c-3.01015,-1.23799 -4.62205,-1.96383 -4.8357,-2.17749c1.32596,-2.24975 2.07378,-3.45004 2.24346,-3.60086c0.01878,0.06284 1.47045,1.06517 4.35499,3.007c1.02432,-1.88527 1.73129,-3.12325 2.12091,-3.71397z" data-paper-data="{&quot;origPos&quot;:null}" fill="#000000" stroke="none" stroke-width="0.26459" stroke-linecap="butt"/><path d="M35.41858,172.62156l4.14758,0.73525l-0.39591,3.14841c0.82323,-0.04396 1.42653,-0.06594 1.80986,-0.06594h0.60328l0.13197,-0.06594l0.066,0.13188c-0.13198,1.9104 -0.24509,2.985 -0.33935,3.2238l-0.13197,-0.07552c-0.09427,0 -0.94264,-0.04396 -2.54511,-0.13188c-0.08798,1.4768 -0.15396,3.24267 -0.19796,5.29759l-0.13197,0.06594c-2.02352,-0.13206 -3.23009,-0.24519 -3.61971,-0.33937l0.066,-0.26404c0,-0.54673 0.08798,-2.24346 0.26393,-5.09022c-1.69674,-0.0943 -2.54511,-0.20741 -2.54511,-0.33934c0.08798,-2.09892 0.20108,-3.14839 0.33934,-3.14839l2.47913,0.4713v-0.81067c0,-0.65984 -0.02513,-1.5522 -0.07541,-2.67707c0.05028,0 0.07541,-0.022 0.07541,-0.066z" data-paper-data="{&quot;origPos&quot;:null}" fill="#000000" stroke="none" stroke-width="0.26459" stroke-linecap="butt"/><path d="M46.57936,175.47773c2.38801,0.64099 3.65428,1.03062 3.79882,1.16886c1.3134,1.86014 2.05179,2.93159 2.21518,3.21439c-0.84837,2.68965 -1.3354,4.03447 -1.46108,4.03447c-2.82791,0.65985 -4.30784,0.98978 -4.43981,0.98978c-2.33774,-1.36369 -3.58201,-2.12407 -3.73282,-2.28117c-0.0817,-2.53883 -0.12255,-3.94022 -0.12255,-4.20417c-0.0377,-0.07534 -0.05656,-0.13188 -0.05656,-0.16964c2.41314,-1.83499 3.66056,-2.7525 3.74226,-2.7525zM46.40025,178.92779c-0.0377,0.25136 -0.09426,1.16571 -0.16967,2.74306l2.10207,0.47133c0.50274,-1.57106 0.75411,-2.41003 0.75411,-2.51686c-1.6716,-0.50273 -2.56711,-0.75409 -2.68651,-0.75409z" data-paper-data="{&quot;origPos&quot;:null}" fill="#000000" stroke="none" stroke-width="0.26459" stroke-linecap="butt"/><path d="M65.8468,175.46832c1.80986,1.1563 2.80907,1.82243 2.99759,1.99838c-0.65356,1.45166 -1.02748,2.17749 -1.12174,2.17749l-3.43119,-1.98897h-0.12255c0,0.06275 -0.14767,0.41467 -0.44303,1.05575c3.16097,1.70303 4.74144,2.57653 4.74144,2.62053c-0.88608,2.04866 -1.38567,3.12954 -1.49879,3.24265l-5.36359,0.31107c-2.08636,-1.38253 -3.2081,-2.1115 -3.36521,-2.1869v-0.05664c0,-0.15706 0.31107,-0.86404 0.93321,-2.12094l4.1853,2.17749l0.31106,-1.2443c-2.58911,-1.16258 -4.12873,-1.8884 -4.6189,-2.17747v-0.13188c0,-0.23881 0.4996,-1.29771 1.49879,-3.17668z" data-paper-data="{&quot;origPos&quot;:null}" fill="#000000" stroke="none" stroke-width="0.26459" stroke-linecap="butt"/><path d="M74.00059,172.62156c0.0377,0.05657 0.21367,1.77844 0.52787,5.16563c2.42572,-0.74154 3.71712,-1.1123 3.87423,-1.1123l2.40372,1.64019c-0.38962,3.58201 -0.64413,5.67465 -0.76354,6.27793l-3.33693,0.113c0,-0.03776 -0.022,-0.05664 -0.066,-0.05664l0.066,-0.23558c0,-0.50902 0.07541,-2.05493 0.22623,-4.63774c-0.9175,-0.03776 -1.59933,-0.05664 -2.04551,-0.05664h-0.23567c0.27022,2.87188 0.40534,4.43665 0.40534,4.6943l-3.16724,0.47133c-0.11941,-0.4022 -0.82324,-4.15702 -2.11151,-11.26448c0,-0.20109 0.49017,-0.3582 1.47051,-0.47132c1.23799,-0.35191 2.15549,-0.52787 2.7525,-0.52787z" data-paper-data="{&quot;origPos&quot;:null}" fill="#000000" stroke="none" stroke-width="0.26459" stroke-linecap="butt"/><path d="M85.49129,175.47773c2.388,0.64099 3.65428,1.03062 3.79882,1.16886c1.3134,1.86014 2.05179,2.93159 2.21518,3.21439c-0.84837,2.68965 -1.3354,4.03447 -1.46108,4.03447c-2.82791,0.65985 -4.30784,0.98978 -4.43981,0.98978c-2.33774,-1.36369 -3.58201,-2.12407 -3.73282,-2.28117c-0.0817,-2.53883 -0.12255,-3.94022 -0.12255,-4.20417c-0.0377,-0.07534 -0.05656,-0.13188 -0.05656,-0.16964c2.41314,-1.83499 3.66056,-2.7525 3.74225,-2.7525zM85.31218,178.92779c-0.0377,0.25136 -0.09426,1.16571 -0.16967,2.74306l2.10207,0.47133c0.50274,-1.57106 0.75411,-2.41003 0.75411,-2.51686c-1.6716,-0.50273 -2.56711,-0.75409 -2.68651,-0.75409z" data-paper-data="{&quot;origPos&quot;:null}" fill="#000000" stroke="none" stroke-width="0.26459" stroke-linecap="butt"/><path d="M96.16191,175.47773c2.388,0.64099 3.65427,1.03062 3.79881,1.16886c1.3134,1.86014 2.05181,2.93159 2.2152,3.21439c-0.84837,2.68965 -1.3354,4.03447 -1.46108,4.03447c-2.82791,0.65985 -4.30784,0.98978 -4.43981,0.98978c-2.33774,-1.36369 -3.58202,-2.12407 -3.73284,-2.28117c-0.0817,-2.53883 -0.12255,-3.94022 -0.12255,-4.20417c-0.0377,-0.07534 -0.05656,-0.13188 -0.05656,-0.16964c2.41314,-1.83499 3.66057,-2.7525 3.74226,-2.7525zM95.9828,178.92779c-0.0377,0.25136 -0.09426,1.16571 -0.16967,2.74306l2.10207,0.47133c0.50274,-1.57106 0.75411,-2.41003 0.75411,-2.51686c-1.6716,-0.50273 -2.56711,-0.75409 -2.68651,-0.75409z" data-paper-data="{&quot;origPos&quot;:null}" fill="#000000" stroke="none" stroke-width="0.26459" stroke-linecap="butt"/><path d="M105.85218,172.62156l4.14758,0.73525l-0.39591,3.14841c0.82323,-0.04396 1.42653,-0.06594 1.80986,-0.06594h0.60328l0.13197,-0.06594l0.06597,0.13188c-0.13198,1.9104 -0.24508,2.985 -0.33934,3.2238l-0.13197,-0.07552c-0.09427,0 -0.94265,-0.04396 -2.54512,-0.13188c-0.08798,1.4768 -0.15396,3.24267 -0.19796,5.29759l-0.13197,0.06594c-2.02352,-0.13206 -3.23009,-0.24519 -3.61971,-0.33937l0.066,-0.26404c0,-0.54673 0.08798,-2.24346 0.26393,-5.09022c-1.69674,-0.0943 -2.54511,-0.20741 -2.54511,-0.33934c0.08798,-2.09892 0.20109,-3.14839 0.33935,-3.14839l2.47913,0.4713v-0.81067c0,-0.65984 -0.02513,-1.5522 -0.07541,-2.67707c0.05028,0 0.07541,-0.022 0.07541,-0.066z" data-paper-data="{&quot;origPos&quot;:null}" fill="#000000" stroke="none" stroke-width="0.26459" stroke-linecap="butt"/><path d="M125.60979,175.46832c1.80986,1.1563 2.80905,1.82243 2.99758,1.99838c-0.65356,1.45166 -1.02747,2.17749 -1.12173,2.17749l-3.43119,-1.98897h-0.12255c0,0.06275 -0.14768,0.41467 -0.44304,1.05575c3.16097,1.70303 4.74145,2.57653 4.74145,2.62053c-0.88608,2.04866 -1.38567,3.12954 -1.49879,3.24265l-5.36359,0.31107c-2.08636,-1.38253 -3.2081,-2.1115 -3.36521,-2.1869v-0.05664c0,-0.15706 0.31107,-0.86404 0.93321,-2.12094l4.18529,2.17749l0.31107,-1.2443c-2.58911,-1.16258 -4.12873,-1.8884 -4.6189,-2.17747v-0.13188c0,-0.23881 0.4996,-1.29771 1.49879,-3.17668z" data-paper-data="{&quot;origPos&quot;:null}" fill="#2b70c2" stroke="none" stroke-width="0.26459" stroke-linecap="butt"/><path d="M129.54056,172.63099c1.92297,0.0377 3.33378,0.05656 4.23243,0.05656c0.0817,0 0.32994,3.85851 0.74469,11.57554c-0.3205,0.08172 -1.43908,0.2891 -3.35578,0.62215c-0.09427,0 -0.40534,-2.36287 -0.93321,-7.0886c-0.04398,-0.1131 -0.27336,-1.83498 -0.68813,-5.16564z" data-paper-data="{&quot;origPos&quot;:null}" fill="#2b70c2" stroke="none" stroke-width="0.26459" stroke-linecap="butt"/><path d="M136.87427,171.68835l3.70454,0.58443c-0.46504,1.77844 -0.76981,2.66766 -0.91434,2.66766c-1.94811,-0.13198 -2.92217,-0.2608 -2.92217,-0.38648v-2.73364c0.01884,-0.08798 0.06284,-0.13197 0.13197,-0.13197zM135.83737,176.17529h0.05656c2.86561,0.52158 4.2984,0.82636 4.2984,0.91434c-0.82323,4.66291 -1.32282,7.26145 -1.49879,7.7956h-2.98815c-0.08798,0 -0.13197,-0.04396 -0.13197,-0.13188z" data-paper-data="{&quot;origPos&quot;:null}" fill="#2b70c2" stroke="none" stroke-width="0.26459" stroke-linecap="butt"/><path d="M151.36255,175.46832c1.53335,0.63469 2.85618,1.2317 3.96849,1.79101c-0.28908,3.73912 -0.47446,5.78462 -0.55615,6.13653c-1.84757,0.45876 -2.88133,0.68814 -3.10128,0.68814c0,-0.81696 -0.06284,-2.42888 -0.18852,-4.83573c-0.69754,0.06913 -1.04632,0.12887 -1.04632,0.17922c0,0.2388 0.04085,1.60247 0.12255,4.09103c0.0377,0 0.05656,0.02199 0.05656,0.06594c0,0.07534 -0.9709,0.28271 -2.91273,0.62212c-0.0817,-0.10051 -0.32994,-1.63071 -0.74469,-4.59062c-0.78552,0.20109 -1.17829,0.34562 -1.17829,0.4336l0.37704,3.84595c-0.07541,0.08172 -1.10916,0.41164 -3.10126,0.98978c-1.1563,-4.09104 -1.87898,-6.83725 -2.16805,-8.23864c2.18063,-0.54043 3.39976,-0.81064 3.65741,-0.81064c0.28908,1.14372 0.43361,1.80355 0.43361,1.97953h0.066c1.06203,-0.98035 1.80358,-1.64019 2.22462,-1.97953h0.066l1.97953,1.42338h0.066c1.23799,-1.19401 1.89784,-1.79101 1.97953,-1.79101z" data-paper-data="{&quot;origPos&quot;:null}" fill="#2b70c2" stroke="none" stroke-width="0.26459" stroke-linecap="butt"/><path d="M161.61842,175.47773c2.84676,1.46423 4.42409,2.31888 4.73201,2.56398c-0.40847,1.9104 -0.65041,2.89389 -0.72582,2.95043h-5.95745v0.1037l1.66846,2.06438l2.62053,-1.33856c0.25765,0.44617 0.62841,1.22543 1.1123,2.33775c-0.22623,0.07534 -1.87584,0.31727 -4.94883,0.72582c-2.54511,-1.67788 -3.8271,-2.5514 -3.84595,-2.62053c0.40847,-3.26151 0.65043,-4.89226 0.72584,-4.89226c2.65822,-1.13117 4.19786,-1.76273 4.6189,-1.89471zM161.00571,177.75893c-0.05028,0.12569 -0.38334,0.62528 -0.99919,1.49879c0,0.26393 0.37076,0.3959 1.1123,0.3959c0,0.03776 0.5373,0.12887 1.6119,0.27334c0.29536,-0.40847 0.44304,-0.64728 0.44304,-0.71641c-0.09427,-0.55929 -0.2985,-0.83893 -0.61271,-0.83893z" data-paper-data="{&quot;origPos&quot;:null}" fill="#2b70c2" stroke="none" stroke-width="0.26459" stroke-linecap="butt"/><path d="M176.39891,172.62156l0.066,0.12255c0,0.3582 0.08169,1.74387 0.24508,4.15701c2.24975,-0.7164 3.50973,-1.09345 3.77995,-1.13116l3.39348,3.64799c-1.42653,3.19868 -2.20261,4.89542 -2.3283,5.09022c-0.39591,-0.04396 -1.84129,-0.10681 -4.33612,-0.18852v0.44304c0,0.08172 -0.04398,0.12258 -0.13197,0.12258h-3.648c-0.13198,0 -0.38334,-1.88527 -0.7541,-5.65581c-0.0817,-0.3205 -0.31109,-2.2089 -0.68813,-5.66522c2.13664,-0.50274 3.604,-0.81695 4.4021,-0.94264zM177.03047,179.5405l0.24508,2.32831h1.8947l0.68812,-2.63938c-1.88527,0.16344 -2.82791,0.26713 -2.82791,0.31107z" data-paper-data="{&quot;origPos&quot;:null}" fill="#2b70c2" stroke="none" stroke-width="0.26459" stroke-linecap="butt"/><path d="M186.28714,175.46832c3.73284,0.51532 5.59925,0.83266 5.59925,0.95205c1.47051,1.26314 2.20576,1.93869 2.20576,2.02668c-0.597,1.8664 -0.93636,3.00071 -1.01804,3.40291c0.597,1.32596 0.93636,2.11778 1.01804,2.37543c0,0.07534 -0.97406,0.27643 -2.92217,0.6033c-0.02513,-0.10689 -0.20424,-0.3457 -0.5373,-0.71641c-2.68965,0.51532 -4.13817,0.77297 -4.34555,0.77297l-1.4328,-3.87424l3.15783,-1.66846c0.50902,0.08172 1.30397,0.12258 2.38485,0.12258c0,-0.13827 0.01885,-0.55617 0.05656,-1.25371c-0.18224,0 -1.80985,0.11939 -4.88283,0.35819l-0.05656,-0.12258c0.42733,-1.98581 0.68497,-2.97872 0.77295,-2.97872zM188.24782,181.01099c0,0.06913 0.20109,0.80439 0.60328,2.20578h0.05656c0.79182,-0.51532 1.18773,-0.85465 1.18773,-1.01804l0.12255,-1.00863c-0.15082,0 -0.80752,-0.05974 -1.97011,-0.17922z" data-paper-data="{&quot;origPos&quot;:null}" fill="#2b70c2" stroke="none" stroke-width="0.26459" stroke-linecap="butt"/><path d="M194.99708,172.63099c1.92297,0.0377 3.33378,0.05656 4.23243,0.05656c0.0817,0 0.32993,3.85851 0.74467,11.57554c-0.3205,0.08172 -1.43908,0.2891 -3.35578,0.62215c-0.09427,0 -0.40532,-2.36287 -0.9332,-7.0886c-0.044,-0.1131 -0.27338,-1.83498 -0.68813,-5.16564z" data-paper-data="{&quot;origPos&quot;:null}" fill="#2b70c2" stroke="none" stroke-width="0.26459" stroke-linecap="butt"/><path d="M201.02994,172.63099c1.92297,0.0377 3.33377,0.05656 4.23242,0.05656c0.0817,0 0.32994,3.85851 0.74469,11.57554c-0.3205,0.08172 -1.43908,0.2891 -3.35578,0.62215c-0.09427,0 -0.40534,-2.36287 -0.93321,-7.0886c-0.044,-0.1131 -0.27337,-1.83498 -0.68812,-5.16564z" data-paper-data="{&quot;origPos&quot;:null}" fill="#2b70c2" stroke="none" stroke-width="0.26459" stroke-linecap="butt"/><path d="M214.66986,175.46832c1.80986,1.1563 2.80905,1.82243 2.99758,1.99838c-0.65356,1.45166 -1.02747,2.17749 -1.12173,2.17749l-3.43119,-1.98897h-0.12255c0,0.06275 -0.14768,0.41467 -0.44304,1.05575c3.16097,1.70303 4.74144,2.57653 4.74144,2.62053c-0.88608,2.04866 -1.38567,3.12954 -1.49879,3.24265l-5.36359,0.31107c-2.08636,-1.38253 -3.20808,-2.1115 -3.36519,-2.1869v-0.05664c0,-0.15706 0.31107,-0.86404 0.93321,-2.12094l4.18529,2.17749l0.31107,-1.2443c-2.58911,-1.16258 -4.12875,-1.8884 -4.61892,-2.17747v-0.13188c0,-0.23881 0.4996,-1.29771 1.49879,-3.17668z" data-paper-data="{&quot;origPos&quot;:null}" fill="#2b70c2" stroke="none" stroke-width="0.26459" stroke-linecap="butt"/><path d="M224.82202,175.46832c3.73284,0.51532 5.59924,0.83266 5.59924,0.95205c1.47051,1.26314 2.20577,1.93869 2.20577,2.02668c-0.597,1.8664 -0.93636,3.00071 -1.01804,3.40291c0.597,1.32596 0.93636,2.11778 1.01804,2.37543c0,0.07534 -0.97406,0.27643 -2.92217,0.6033c-0.02513,-0.10689 -0.20424,-0.3457 -0.5373,-0.71641c-2.68965,0.51532 -4.13816,0.77297 -4.34555,0.77297l-1.4328,-3.87424l3.15783,-1.66846c0.50902,0.08172 1.30397,0.12258 2.38485,0.12258c0,-0.13827 0.01885,-0.55617 0.05656,-1.25371c-0.18224,0 -1.80986,0.11939 -4.88285,0.35819l-0.05656,-0.12258c0.42732,-1.98581 0.68498,-2.97872 0.77297,-2.97872zM226.7827,181.01099c0,0.06913 0.20109,0.80439 0.60328,2.20578h0.05656c0.79182,-0.51532 1.18773,-0.85465 1.18773,-1.01804l0.12255,-1.00863c-0.15082,0 -0.80752,-0.05974 -1.97011,-0.17922z" data-paper-data="{&quot;origPos&quot;:null}" fill="#000000" stroke="none" stroke-width="0.26459" stroke-linecap="butt"/><path d="M241.90255,175.46832l3.13897,2.15861c-0.21995,3.58202 -0.37391,5.67468 -0.46189,6.27796c-0.36447,0.04396 -1.47363,0.10999 -3.32749,0.1981l-0.06597,-0.13188l-0.32993,-5.03366l-0.13197,-0.06594c-1.20029,0.25765 -2.02666,0.45247 -2.47913,0.58442c0.12569,2.14292 0.18852,3.692 0.18852,4.64721c-1.8727,0.52158 -2.89702,0.78238 -3.07298,0.78238c-1.21914,-5.36672 -1.82871,-8.20092 -1.82871,-8.50257c2.65194,-0.34563 4.09104,-0.51845 4.31727,-0.51845v0.06594c0.044,0.03137 0.10998,0.68493 0.19796,1.96068c2.432,-1.61505 3.7171,-2.42257 3.85536,-2.42257z" data-paper-data="{&quot;origPos&quot;:null}" fill="#000000" stroke="none" stroke-width="0.26459" stroke-linecap="butt"/><path d="M251.67767,172.61214h0.05664c2.84046,0.2388 4.2607,0.42419 4.2607,0.55615l1.25371,11.0948c0,0.08172 -1.25371,0.2891 -3.76113,0.62215l-0.05664,-0.12258v-1.0086c-2.16177,0.58443 -3.64484,0.96147 -4.44922,1.13116c-1.9104,-2.70222 -2.91274,-4.1413 -3.00701,-4.31728c1.40769,-2.55767 2.15865,-3.85222 2.2529,-3.88363l3.94965,0.18852c-0.08172,-0.4839 -0.24825,-1.90414 -0.4996,-4.26071zM249.92436,179.37083c0.63469,1.94181 1.0306,3.00699 1.18771,3.19551l1.87583,-1.63075c-0.1948,-1.12488 -0.33933,-1.68731 -0.4336,-1.68731h-2.50739c-0.08172,0.01276 -0.12258,0.05363 -0.12258,0.12258z" data-paper-data="{&quot;origPos&quot;:null}" fill="#000000" stroke="none" stroke-width="0.26459" stroke-linecap="butt"/><path d="M270.62461,175.46832c1.80986,1.1563 2.80905,1.82243 2.99758,1.99838c-0.65356,1.45166 -1.02747,2.17749 -1.12172,2.17749l-3.4312,-1.98897h-0.12258c0,0.06275 -0.14768,0.41467 -0.44304,1.05575c3.16097,1.70303 4.74144,2.57653 4.74144,2.62053c-0.88608,2.04866 -1.38567,3.12954 -1.49879,3.24265l-5.36359,0.31107c-2.08636,-1.38253 -3.2081,-2.1115 -3.36521,-2.1869v-0.05664c0,-0.15706 0.31107,-0.86404 0.93322,-2.12094l4.18529,2.17749l0.31107,-1.2443c-2.58911,-1.16258 -4.12875,-1.8884 -4.61892,-2.17747v-0.13188c0,-0.23881 0.4996,-1.29771 1.49879,-3.17668z" data-paper-data="{&quot;origPos&quot;:null}" fill="#2b70c2" stroke="none" stroke-width="0.26459" stroke-linecap="butt"/><path d="M277.37387,172.62156l4.14758,0.73525l-0.3959,3.14841c0.82324,-0.04396 1.42653,-0.06594 1.80986,-0.06594h0.60327l0.13188,-0.06594l0.06594,0.13188c-0.13206,1.9104 -0.24517,2.985 -0.33934,3.2238l-0.13188,-0.07552c-0.0943,0 -0.94268,-0.04396 -2.54512,-0.13188c-0.08793,1.4768 -0.15395,3.24267 -0.1981,5.29759l-0.13188,0.06594c-2.02352,-0.13206 -3.23009,-0.24519 -3.61972,-0.33937l0.06594,-0.26404c0,-0.54673 0.08801,-2.24346 0.26404,-5.09022c-1.69674,-0.0943 -2.5451,-0.20741 -2.5451,-0.33934c0.08793,-2.09892 0.20104,-3.14839 0.33934,-3.14839l2.47913,0.4713v-0.81067c0,-0.65984 -0.02517,-1.5522 -0.07552,-2.67707c0.05035,0 0.07552,-0.022 0.07552,-0.066z" data-paper-data="{&quot;origPos&quot;:null}" fill="#2b70c2" stroke="none" stroke-width="0.26459" stroke-linecap="butt"/><path d="M286.03667,171.68835l3.70457,0.58443c-0.46504,1.77844 -0.76983,2.66766 -0.91437,2.66766c-1.94811,-0.13198 -2.92217,-0.2608 -2.92217,-0.38648v-2.73364c0.01878,-0.08798 0.06275,-0.13197 0.13188,-0.13197zM284.99977,176.17529h0.05664c2.86562,0.52158 4.29843,0.82636 4.29843,0.91434c-0.82324,4.66291 -1.32284,7.26145 -1.49879,7.7956h-2.98816c-0.08793,0 -0.13188,-0.04396 -0.13188,-0.13188z" data-paper-data="{&quot;origPos&quot;:null}" fill="#2b70c2" stroke="none" stroke-width="0.26459" stroke-linecap="butt"/><path d="M293.75683,175.47773c2.83419,0.53417 4.31727,0.83896 4.44925,0.91437v0.113c-0.60956,1.72187 -0.91434,2.61423 -0.91434,2.67709h-0.05664c-0.15706,0 -0.91745,-0.24509 -2.28117,-0.73526c-0.76038,1.27569 -1.14057,1.95752 -1.14057,2.0455l1.88524,1.82871c1.45795,-1.36996 2.1995,-2.05494 2.22464,-2.05494c1.13744,1.48936 1.70616,2.32518 1.70616,2.50742c-0.62215,0.3582 -1.70617,1.06203 -3.25209,2.1115c-2.99128,-0.64728 -4.60633,-1.00863 -4.84514,-1.08404l-1.47994,-4.78858z" data-paper-data="{&quot;origPos&quot;:null}" fill="#2b70c2" stroke="none" stroke-width="0.26459" stroke-linecap="butt"/><path d="M304.72912,172.62156c0.08793,0.25137 0.28587,2.03294 0.59386,5.34474l2.82791,-3.16726h0.06594c0.43991,0.36448 1.25371,1.1343 2.44142,2.30944v0.06594l-2.70535,2.23405c2.03609,1.36366 3.11383,2.13348 3.23324,2.30946c-1.28199,1.42651 -2.05181,2.24031 -2.30946,2.44142l-3.2898,-3.03528c0.13206,1.3574 0.1981,2.36915 0.1981,3.03528c-0.15706,0.08793 -1.32278,0.32986 -3.49717,0.72582c-0.17603,-0.8798 -0.74789,-4.65977 -1.7156,-11.33989c0.40217,-0.13198 1.78785,-0.43991 4.15702,-0.92378z" data-paper-data="{&quot;origPos&quot;:null}" fill="#2b70c2" stroke="none" stroke-width="0.26459" stroke-linecap="butt"/><path d="M322.13015,175.47773c2.84674,1.46423 4.42407,2.31888 4.732,2.56398c-0.40847,1.9104 -0.65041,2.89389 -0.72582,2.95043h-5.95745v0.1037l1.66846,2.06438l2.62053,-1.33856c0.25765,0.44617 0.62843,1.22543 1.1123,2.33775c-0.22623,0.07534 -1.87583,0.31727 -4.94881,0.72582c-2.54512,-1.67788 -3.82711,-2.5514 -3.84595,-2.62053c0.40847,-3.26151 0.65041,-4.89226 0.72582,-4.89226c2.65822,-1.13117 4.19786,-1.76273 4.61892,-1.89471zM321.51741,177.75893c-0.05035,0.12569 -0.3834,0.62528 -0.99919,1.49879c0,0.26393 0.37078,0.3959 1.11233,0.3959c0,0.03776 0.5373,0.12887 1.6119,0.27334c0.29536,-0.40847 0.44304,-0.64728 0.44304,-0.71641c-0.0943,-0.55929 -0.29856,-0.83893 -0.61274,-0.83893z" data-paper-data="{&quot;origPos&quot;:null}" fill="#2b70c2" stroke="none" stroke-width="0.26459" stroke-linecap="butt"/><path d="M336.09054,175.46832l3.13898,2.15861c-0.21995,3.58202 -0.37391,5.67468 -0.46189,6.27796c-0.3645,0.04396 -1.47366,0.10999 -3.3275,0.1981l-0.06594,-0.13188l-0.32993,-5.03366l-0.13188,-0.06594c-1.20029,0.25765 -2.02666,0.45247 -2.47913,0.58442c0.12569,2.14292 0.18852,3.692 0.18852,4.64721c-1.8727,0.52158 -2.89703,0.78238 -3.07298,0.78238c-1.21914,-5.36672 -1.82871,-8.20092 -1.82871,-8.50257c2.65194,-0.34563 4.09104,-0.51845 4.31728,-0.51845v0.06594c0.04396,0.03137 0.1099,0.68493 0.19782,1.96068c2.43201,-1.61505 3.71714,-2.42257 3.85539,-2.42257z" data-paper-data="{&quot;origPos&quot;:null}" fill="#2b70c2" stroke="none" stroke-width="0.26459" stroke-linecap="butt"/><path d="M345.50743,175.47773c2.84676,1.46423 4.4241,2.31888 4.73203,2.56398c-0.40847,1.9104 -0.65043,2.89389 -0.72585,2.95043h-5.95745v0.1037l1.66848,2.06438l2.6205,-1.33856c0.25765,0.44617 0.62843,1.22543 1.1123,2.33775c-0.22623,0.07534 -1.87583,0.31727 -4.94881,0.72582c-2.54512,-1.67788 -3.82711,-2.5514 -3.84595,-2.62053c0.40847,-3.26151 0.65041,-4.89226 0.72582,-4.89226c2.65824,-1.13117 4.19787,-1.76273 4.61892,-1.89471zM344.89472,177.75893c-0.05035,0.12569 -0.3834,0.62528 -0.99919,1.49879c0,0.26393 0.37076,0.3959 1.1123,0.3959c0,0.03776 0.5373,0.12887 1.6119,0.27334c0.29536,-0.40847 0.44304,-0.64728 0.44304,-0.71641c-0.0943,-0.55929 -0.29854,-0.83893 -0.61271,-0.83893z" data-paper-data="{&quot;origPos&quot;:null}" fill="#2b70c2" stroke="none" stroke-width="0.26459" stroke-linecap="butt"/><path d="M361.56993,175.46832c1.53336,0.63469 2.8562,1.2317 3.9685,1.79101c-0.28909,3.73912 -0.47446,5.78462 -0.55615,6.13653c-1.84757,0.45876 -2.88133,0.68814 -3.10128,0.68814c0,-0.81696 -0.06284,-2.42888 -0.18852,-4.83573c-0.69756,0.06913 -1.04634,0.12887 -1.04634,0.17922c0,0.2388 0.04086,1.60247 0.12258,4.09103c0.03776,0 0.05664,0.02199 0.05664,0.06594c0,0.07534 -0.97091,0.28271 -2.91273,0.62212c-0.08172,-0.10051 -0.32995,-1.63071 -0.7447,-4.59062c-0.78551,0.20109 -1.17827,0.34562 -1.17827,0.4336l0.37704,3.84595c-0.07534,0.08172 -1.10909,0.41164 -3.10128,0.98978c-1.15629,-4.09104 -1.87896,-6.83725 -2.16805,-8.23864c2.18063,-0.54043 3.39978,-0.81064 3.65743,-0.81064c0.28906,1.14372 0.4336,1.80355 0.4336,1.97953h0.06594c1.06203,-0.98035 1.80357,-1.64019 2.22461,-1.97953h0.06594l1.97953,1.42338h0.06594c1.238,-1.19401 1.89784,-1.79101 1.97953,-1.79101z" data-paper-data="{&quot;origPos&quot;:null}" fill="#2b70c2" stroke="none" stroke-width="0.26459" stroke-linecap="butt"/><path d="M367.78189,171.68835l3.70454,0.58443c-0.46504,1.77844 -0.76983,2.66766 -0.91437,2.66766c-1.94811,-0.13198 -2.92217,-0.2608 -2.92217,-0.38648v-2.73364c0.01878,-0.08798 0.06275,-0.13197 0.13188,-0.13197zM366.745,176.17529h0.05664c2.8656,0.52158 4.2984,0.82636 4.2984,0.91434c-0.82324,4.66291 -1.32284,7.26145 -1.49879,7.7956h-2.98816c-0.08793,0 -0.13188,-0.04396 -0.13188,-0.13188z" data-paper-data="{&quot;origPos&quot;:null}" fill="#2b70c2" stroke="none" stroke-width="0.26459" stroke-linecap="butt"/><path d="M377.14225,175.47773c2.84676,1.46423 4.4241,2.31888 4.73203,2.56398c-0.40847,1.9104 -0.65041,2.89389 -0.72582,2.95043h-5.95745v0.1037l1.66846,2.06438l2.6205,-1.33856c0.25765,0.44617 0.62843,1.22543 1.11233,2.33775c-0.22624,0.07534 -1.87586,0.31727 -4.94884,0.72582c-2.54511,-1.67788 -3.82708,-2.5514 -3.84595,-2.62053c0.40847,-3.26151 0.65041,-4.89226 0.72582,-4.89226c2.65824,-1.13117 4.19787,-1.76273 4.61892,-1.89471zM376.52954,177.75893c-0.05035,0.12569 -0.3834,0.62528 -0.99919,1.49879c0,0.26393 0.37076,0.3959 1.1123,0.3959c0,0.03776 0.5373,0.12887 1.6119,0.27334c0.29536,-0.40847 0.44304,-0.64728 0.44304,-0.71641c-0.0943,-0.55929 -0.29854,-0.83893 -0.61271,-0.83893z" data-paper-data="{&quot;origPos&quot;:null}" fill="#2b70c2" stroke="none" stroke-width="0.26459" stroke-linecap="butt"/><path d="M390.33912,175.46832c1.80986,1.1563 2.80905,1.82243 2.99758,1.99838c-0.65356,1.45166 -1.02747,2.17749 -1.12172,2.17749l-3.4312,-1.98897h-0.12258c0,0.06275 -0.14768,0.41467 -0.44304,1.05575c3.16098,1.70303 4.74147,2.57653 4.74147,2.62053c-0.88608,2.04866 -1.38567,3.12954 -1.49879,3.24265l-5.36359,0.31107c-2.08636,-1.38253 -3.2081,-2.1115 -3.36521,-2.1869v-0.05664c0,-0.15706 0.31106,-0.86404 0.9332,-2.12094l4.18532,2.17749l0.31105,-1.2443c-2.58911,-1.16258 -4.12873,-1.8884 -4.61889,-2.17747v-0.13188c0,-0.23881 0.4996,-1.29771 1.49879,-3.17668z" data-paper-data="{&quot;origPos&quot;:null}" fill="#2b70c2" stroke="none" stroke-width="0.26459" stroke-linecap="butt"/><path d="M34.51318,197.6114l4.14758,0.73526l-0.39591,3.14839c0.82323,-0.04396 1.42653,-0.06594 1.80986,-0.06594h0.60328l0.13197,-0.06594l0.06597,0.13188c-0.13198,1.9104 -0.24509,2.985 -0.33935,3.2238l-0.13197,-0.07552c-0.09427,0 -0.94264,-0.04396 -2.54511,-0.13188c-0.08798,1.4768 -0.15396,3.24267 -0.19796,5.29759l-0.13197,0.06594c-2.02352,-0.13206 -3.23009,-0.24517 -3.61971,-0.33934l0.066,-0.26404c0,-0.54673 0.08798,-2.24346 0.26393,-5.09022c-1.69674,-0.0943 -2.54511,-0.20741 -2.54511,-0.33934c0.08798,-2.09892 0.20108,-3.14839 0.33934,-3.14839l2.47913,0.4713v-0.81067c0,-0.65984 -0.02513,-1.55218 -0.07541,-2.67706c0.05028,0 0.07541,-0.02199 0.07541,-0.06594z" data-paper-data="{&quot;origPos&quot;:null}" fill="#2b70c2" stroke="none" stroke-width="0.26459" stroke-linecap="butt"/><path d="M45.67396,200.46757c2.388,0.64099 3.65428,1.03062 3.79882,1.16889c1.3134,1.86014 2.05179,2.93159 2.21518,3.21436c-0.84837,2.68966 -1.3354,4.0345 -1.46108,4.0345c-2.82791,0.65984 -4.30784,0.98975 -4.43981,0.98975c-2.33774,-1.36369 -3.58201,-2.12407 -3.73282,-2.28117c-0.0817,-2.53883 -0.12255,-3.94022 -0.12255,-4.20417c-0.0377,-0.07534 -0.05656,-0.13188 -0.05656,-0.16964c2.41314,-1.83499 3.66055,-2.7525 3.74225,-2.7525zM45.49485,203.91762c-0.0377,0.25136 -0.09426,1.16571 -0.16967,2.74306l2.10207,0.47133c0.50274,-1.57106 0.75411,-2.41001 0.75411,-2.51683c-1.6716,-0.50274 -2.56711,-0.75411 -2.68651,-0.75411z" data-paper-data="{&quot;origPos&quot;:null}" fill="#2b70c2" stroke="none" stroke-width="0.26459" stroke-linecap="butt"/><path d="M60.15281,197.6114l4.1476,0.73526l-0.39591,3.14839c0.82323,-0.04396 1.42653,-0.06594 1.80986,-0.06594h0.60328l0.13197,-0.06594l0.06597,0.13188c-0.13198,1.9104 -0.24509,2.985 -0.33935,3.2238l-0.13197,-0.07552c-0.09427,0 -0.94264,-0.04396 -2.54511,-0.13188c-0.08798,1.4768 -0.15396,3.24267 -0.19796,5.29759l-0.13197,0.06594c-2.02352,-0.13206 -3.23009,-0.24517 -3.61971,-0.33934l0.066,-0.26404c0,-0.54673 0.08798,-2.24346 0.26393,-5.09022c-1.69674,-0.0943 -2.54511,-0.20741 -2.54511,-0.33934c0.08798,-2.09892 0.20108,-3.14839 0.33934,-3.14839l2.47913,0.4713v-0.81067c0,-0.65984 -0.02513,-1.55218 -0.07541,-2.67706c0.05028,0 0.07541,-0.02199 0.07541,-0.06594z" data-paper-data="{&quot;origPos&quot;:null}" fill="#2b70c2" stroke="none" stroke-width="0.26459" stroke-linecap="butt"/><path d="M71.73779,197.6114c0.0377,0.05654 0.21367,1.77842 0.52787,5.16563c2.4257,-0.74154 3.71712,-1.1123 3.87423,-1.1123l2.40372,1.64019c-0.38962,3.58201 -0.64413,5.67465 -0.76354,6.27793l-3.33693,0.113c0,-0.03776 -0.022,-0.05664 -0.066,-0.05664l0.066,-0.23558c0,-0.50904 0.07541,-2.05495 0.22623,-4.63777c-0.9175,-0.03776 -1.59933,-0.05664 -2.04551,-0.05664h-0.23567c0.27022,2.87189 0.40534,4.43667 0.40534,4.69432l-3.16724,0.4713c-0.11941,-0.4022 -0.82326,-4.15702 -2.11151,-11.26448c0,-0.20109 0.49017,-0.35819 1.47051,-0.4713c1.23799,-0.35193 2.15549,-0.52789 2.7525,-0.52789z" data-paper-data="{&quot;origPos&quot;:null}" fill="#2b70c2" stroke="none" stroke-width="0.26459" stroke-linecap="butt"/><path d="M84.77442,200.46757c2.84676,1.46423 4.42409,2.31888 4.73201,2.56398c-0.40847,1.9104 -0.65041,2.89389 -0.72582,2.95046h-5.95745v0.1037l1.66846,2.06438l2.62053,-1.33856c0.25765,0.4462 0.62841,1.22544 1.1123,2.33775c-0.22624,0.07534 -1.87584,0.31727 -4.94883,0.72582c-2.54511,-1.67788 -3.8271,-2.5514 -3.84595,-2.62053c0.40847,-3.26151 0.65043,-4.89226 0.72584,-4.89226c2.65822,-1.13117 4.19786,-1.76273 4.6189,-1.89471zM84.16171,202.74876c-0.05028,0.12569 -0.38334,0.62528 -0.99919,1.49879c0,0.26393 0.37076,0.3959 1.1123,0.3959c0,0.03776 0.5373,0.12887 1.6119,0.27334c0.29536,-0.40847 0.44304,-0.64728 0.44304,-0.71641c-0.09427,-0.55929 -0.2985,-0.83893 -0.61271,-0.83893z" data-paper-data="{&quot;origPos&quot;:null}" fill="#2b70c2" stroke="none" stroke-width="0.26459" stroke-linecap="butt"/><path d="M102.18488,200.48645c2.6708,0.06913 4.00619,0.18539 4.00619,0.34875c0.45874,6.95664 0.68812,10.65805 0.68812,11.10425c-2.02352,1.28825 -3.47204,2.16176 -4.34555,2.6205c-3.07928,-0.96777 -4.6189,-1.52077 -4.6189,-1.65902c0.99291,-1.45166 1.56792,-2.18692 1.72503,-2.20578c1.67788,0.82954 2.6425,1.2443 2.89387,1.2443l0.8955,-1.1783c-0.2388,-0.97406 -0.39906,-1.54906 -0.48074,-1.72501c-0.13824,0 -1.84127,0.2765 -5.10907,0.82952c-1.79101,-2.90959 -2.68651,-4.40212 -2.68651,-4.47754c1.54592,-2.4697 2.48855,-3.9182 2.82791,-4.34552h0.066c0.18224,0 1.53964,0.2985 4.07218,0.89549v-0.2074c0,-0.24509 -0.022,-0.63785 -0.066,-1.1783zM99.22501,204.48321c0.08798,0.1948 0.36447,1.2317 0.82951,3.11069c0.58443,-0.18854 1.47995,-0.53417 2.68651,-1.0369c-0.23252,-1.13117 -0.34878,-1.7753 -0.34878,-1.93241l-0.33935,-0.06594h-0.41475c-0.52787,0 -1.33226,-0.02517 -2.41314,-0.07552z" data-paper-data="{&quot;origPos&quot;:null}" fill="#2b70c2" stroke="none" stroke-width="0.26459" stroke-linecap="butt"/><path d="M114.66535,200.45815c1.24428,0.69756 2.0078,1.15002 2.29059,1.35738c-1.01804,2.11779 -1.56477,3.19554 -1.64018,3.23324h-0.066l-1.34797,-1.1783l-1.59305,1.94183l0.17911,3.53488c-0.0817,0.07552 -1.12173,0.25148 -3.12011,0.52789c-0.07541,-0.54045 -0.56558,-3.18926 -1.47051,-7.94642c0,-0.07534 1.3134,-0.27014 3.94021,-0.58442c0.044,0.05035 0.1634,0.63792 0.3582,1.76272c1.57106,-1.76586 2.39429,-2.6488 2.4697,-2.6488z" data-paper-data="{&quot;origPos&quot;:null}" fill="#2b70c2" stroke="none" stroke-width="0.26459" stroke-linecap="butt"/><path d="M121.49943,200.46757c2.388,0.64099 3.65428,1.03062 3.79882,1.16889c1.3134,1.86014 2.05179,2.93159 2.21518,3.21436c-0.84837,2.68966 -1.3354,4.0345 -1.46108,4.0345c-2.82791,0.65984 -4.30784,0.98975 -4.43981,0.98975c-2.33774,-1.36369 -3.58201,-2.12407 -3.73282,-2.28117c-0.0817,-2.53883 -0.12255,-3.94022 -0.12255,-4.20417c-0.0377,-0.07534 -0.05656,-0.13188 -0.05656,-0.16964c2.41314,-1.83499 3.66056,-2.7525 3.74226,-2.7525zM121.32032,203.91762c-0.0377,0.25136 -0.09426,1.16571 -0.16967,2.74306l2.10207,0.47133c0.50274,-1.57106 0.75411,-2.41001 0.75411,-2.51683c-1.6716,-0.50274 -2.56711,-0.75411 -2.68651,-0.75411z" data-paper-data="{&quot;origPos&quot;:null}" fill="#2b70c2" stroke="none" stroke-width="0.26459" stroke-linecap="butt"/><path d="M133.46147,200.45815l0.066,0.12258l-1.27256,6.74924h0.066l3.24265,-0.95205v-3.81766c0.01259,-0.08793 0.05344,-0.13188 0.12255,-0.13188c2.43828,0.16964 3.79569,0.25446 4.07219,0.25446c0,0.04396 0.022,0.06594 0.066,0.06594c0,1.0746 -0.33937,3.30236 -1.01806,6.68327c0,0.19481 -0.97405,0.3425 -2.92215,0.44304c-0.10054,-0.11947 -0.18539,-0.37399 -0.25452,-0.76353c-2.49483,0.50902 -3.91823,0.76353 -4.27014,0.76353c-1.9921,-1.48307 -2.98815,-2.24661 -2.98815,-2.29061c0.33935,-4.45551 0.55301,-6.7681 0.64099,-6.93779h0.05656c1.58992,-0.04396 3.05413,-0.10681 4.39268,-0.18852z" data-paper-data="{&quot;origPos&quot;:null}" fill="#2b70c2" stroke="none" stroke-width="0.26459" stroke-linecap="butt"/><path d="M149.14689,200.45815l3.13898,2.15864c-0.21995,3.58201 -0.37391,5.67465 -0.46189,6.27793c-0.36448,0.04396 -1.47366,0.10999 -3.3275,0.1981l-0.066,-0.13188l-0.32993,-5.03369l-0.13197,-0.06594c-1.20029,0.25765 -2.02666,0.45247 -2.47913,0.58444c0.12569,2.14291 0.18852,3.69197 0.18852,4.64718c-1.8727,0.52158 -2.89702,0.78238 -3.07298,0.78238c-1.21914,-5.36672 -1.8287,-8.20092 -1.8287,-8.50257c2.65194,-0.34563 4.09103,-0.51845 4.31725,-0.51845v0.06594c0.044,0.03137 0.10998,0.68493 0.19796,1.96068c2.432,-1.61505 3.71712,-2.42257 3.85538,-2.42257z" data-paper-data="{&quot;origPos&quot;:null}" fill="#2b70c2" stroke="none" stroke-width="0.26459" stroke-linecap="butt"/><path d="M158.922,197.60198h0.05656c2.84046,0.2388 4.26071,0.42417 4.26071,0.55615l1.25371,11.09478c0,0.08172 -1.25371,0.2891 -3.76111,0.62215l-0.05656,-0.12258v-1.0086c-2.16177,0.58443 -3.64486,0.96147 -4.44923,1.13116c-1.9104,-2.70222 -2.91274,-4.1413 -3.007,-4.31725c1.40766,-2.5577 2.15864,-3.85224 2.2529,-3.88365l3.94964,0.18852c-0.0817,-0.48388 -0.24824,-1.90411 -0.4996,-4.2607zM157.16871,204.36066c0.63471,1.94181 1.0306,3.007 1.18771,3.19554l1.87584,-1.63075c-0.19481,-1.12489 -0.33935,-1.68734 -0.43361,-1.68734h-2.50741c-0.0817,0.01276 -0.12255,0.05363 -0.12255,0.12258z" data-paper-data="{&quot;origPos&quot;:null}" fill="#2b70c2" stroke="none" stroke-width="0.26459" stroke-linecap="butt"/><path d="M169.6209,197.96017l0.0377,0.07552c-0.62843,5.54898 -0.98035,8.46485 -1.05576,8.74765c-1.33225,-0.12569 -2.17435,-0.21369 -2.52626,-0.26404v-0.03776l-0.60328,-7.88042c0.15082,-0.05035 1.53335,-0.26401 4.14758,-0.641zM165.88807,206.97175c0.044,0.02517 1.02434,0.1006 2.94102,0.22628l0.0377,0.07552c-0.29536,1.73445 -0.48389,2.60168 -0.56558,2.60168h-2.18692c-0.07541,0 -0.17595,-0.86723 -0.30163,-2.60168c-0.02513,0 -0.0377,-0.07542 -0.0377,-0.22628c0.07541,-0.02517 0.11311,-0.05035 0.11311,-0.07552z" data-paper-data="{&quot;origPos&quot;:null}" fill="#000000" stroke="none" stroke-width="0.26459" stroke-linecap="butt"/></g></g></svg>