<svg version="1.1" xmlns="http://www.w3.org/2000/svg" xmlns:xlink="http://www.w3.org/1999/xlink" width="441.55828" height="69.66968" viewBox="0,0,441.55828,69.66968"><defs><linearGradient x1="24.5327" y1="284.2076" x2="24.5327" y2="341.819" gradientUnits="userSpaceOnUse" id="color-1"><stop offset="0" stop-color="#ffffff"/><stop offset="1" stop-color="#ffffff"/></linearGradient><radialGradient cx="433.55778" cy="324.91029" r="18.72682" gradientUnits="userSpaceOnUse" id="color-2"><stop offset="0" stop-color="#ffff00"/><stop offset="1" stop-color="#ff9400"/></radialGradient><radialGradient cx="437.13623" cy="326.02495" r="12.81669" gradientUnits="userSpaceOnUse" id="color-3"><stop offset="0" stop-color="#bda501"/><stop offset="1" stop-color="#c07801"/></radialGradient></defs><g transform="translate(-18.50356,-278.17846)"><g data-paper-data="{&quot;isPaintingLayer&quot;:true}" fill="none" fill-rule="nonzero" stroke="none" stroke-width="none" stroke-linecap="butt" stroke-linejoin="miter" stroke-miterlimit="10" stroke-dasharray="" stroke-dashoffset="0" font-family="none" font-weight="none" font-size="none" text-anchor="none" style="mix-blend-mode: normal"><path d="M24.5327,284.2076h429.5v57.6114h-429.5z" data-paper-data="{&quot;origPos&quot;:null}" id="ID0.3184669064357877" fill="#ffffff" stroke="url(#color-1)" stroke-width="12.05828"/><text transform="translate(25.78827,322.12447) scale(0.7218,0.72179)" font-size="22" xml:space="preserve" data-paper-data="{&quot;origPos&quot;:null}" id="ID0.08681221166625619" fill="#2492d1" fill-rule="nonzero" stroke="none" stroke-width="1" stroke-linecap="butt" stroke-linejoin="miter" stroke-miterlimit="10" stroke-dasharray="" stroke-dashoffset="0" font-family="Sans Serif" font-weight="400" text-anchor="start" style="mix-blend-mode: normal"><tspan x="0" dy="0">Get six 1-up mushrooms.</tspan></text><g data-paper-data="{&quot;origPos&quot;:null,&quot;index&quot;:null}" id="text92" fill="#2392d1" stroke="none" stroke-width="0.26458"><path d="M31.97829,284.83125l4.2918,2.33665v0.09538l-2.8612,3.14732c1.66905,-0.12717 2.67047,-0.19075 3.00427,-0.19075c1.65313,2.77378 2.5115,4.26796 2.57507,4.48255c-0.88221,2.4797 -1.37496,3.71957 -1.47829,3.71957c-1.35112,0.50865 -2.95658,1.14448 -4.81635,1.90747c-3.40959,-1.47034 -5.25349,-2.29691 -5.53165,-2.4797c-0.22255,-0.92989 -0.55635,-2.59893 -1.00142,-5.00709zM30.88149,295.22695l2.09822,1.57365c0.98553,-1.27165 1.47828,-1.97105 1.47828,-2.09822c-0.7153,-0.98553 -1.11268,-1.47829 -1.19215,-1.47829c-1.0809,0.11921 -1.62135,0.32586 -1.62135,0.61992z" id="path464"/><path d="M46.61812,288.41967l0.08343,0.15499l-1.60943,8.53592h0.08343l4.10105,-1.20409v-4.82827c0.0159,-0.11128 0.06754,-0.16691 0.15495,-0.16691c3.08375,0.21459 4.80047,0.32188 5.15017,0.32188c0,0.05563 0.02782,0.08346 0.08344,0.08346c0,1.35907 -0.42918,4.17656 -1.28755,8.45246c0,0.24639 -1.23191,0.43315 -3.69571,0.5603c-0.12713,-0.15101 -0.23443,-0.47289 -0.32188,-0.96567c-3.15528,0.64377 -4.95544,0.96567 -5.40052,0.96567c-2.51944,-1.87567 -3.77917,-2.84134 -3.77917,-2.89697c0.42918,-5.63498 0.6994,-8.55976 0.81068,-8.77435h0.07152c2.01078,-0.05563 3.86262,-0.13511 5.55551,-0.23843z" id="path466"/><path d="M61.85401,288.43161c0.24637,1.01732 0.41725,1.64519 0.51263,1.88364c3.5129,-0.80273 5.36872,-1.20409 5.5674,-1.20409c2.39229,3.44138 3.58844,5.23759 3.58844,5.3886l-2.74198,5.81777l-5.90123,-0.94181v0.17883c0.46096,3.53676 0.69144,5.41641 0.69144,5.63894c-0.05562,0 -0.08344,0.02782 -0.08344,0.08346c-0.57225,-0.05563 -1.00143,-0.08346 -1.28755,-0.08346h-1.02526c-0.59608,0 -1.51008,-0.02782 -2.74198,-0.08346c-0.11125,-0.3338 -0.96563,-5.40847 -2.56316,-15.22398c0.27023,-0.11128 2.26512,-0.59609 5.98469,-1.45444zM62.28318,293.30755c0.15895,1.828 0.30201,2.74199 0.42918,2.74199c1.62929,0.56429 2.62673,0.84643 2.99233,0.84643l0.94182,-4.10105h-0.08344c-0.92989,0.05563 -2.35653,0.22651 -4.27988,0.51263z" id="path468"/></g><g stroke="none"><text transform="translate(283,338.98128) scale(0.60677,0.60677)" font-size="40" xml:space="preserve" data-paper-data="{&quot;origPos&quot;:null}" fill="#2392d1" fill-rule="nonzero" stroke="none" stroke-width="1" stroke-linecap="butt" stroke-linejoin="miter" stroke-miterlimit="10" stroke-dasharray="" stroke-dashoffset="0" font-family="Sans Serif" font-weight="normal" text-anchor="start" style="mix-blend-mode: normal"><tspan x="0" dy="0">Reward: +15</tspan></text><path d="M438.22633,321.71811c2.42757,0 4.62707,0.98611 6.21986,2.5789c1.5928,1.59272 2.57884,3.79221 2.57884,6.21979c0,2.4275 -0.98603,4.62709 -2.57884,6.21981c-1.5928,1.5928 -3.79229,2.5789 -6.21986,2.5789c-2.4275,0 -4.62699,-0.98611 -6.2198,-2.5789c-1.5928,-1.59272 -2.5789,-3.79231 -2.5789,-6.21981c0,-2.42757 0.98611,-4.62706 2.5789,-6.21979c1.5928,-1.5928 3.7923,-2.5789 6.2198,-2.5789z" data-paper-data="{&quot;origPos&quot;:null}" id="ID0.7142658131197095" fill="url(#color-2)" stroke-width="0.48028"/><path d="M436.38196,323.73549h3.47092v13.31086h-3.47092z" data-paper-data="{&quot;origPos&quot;:null}" id="ID0.06001657713204622" fill="url(#color-3)" stroke-width="0.59798"/></g></g></g></svg>