<svg version="1.1" xmlns="http://www.w3.org/2000/svg" xmlns:xlink="http://www.w3.org/1999/xlink" width="65.9463" height="65.3463"><defs><radialGradient cx="224.6981" cy="205.0775" r="8.5805" gradientUnits="userSpaceOnUse" id="color-1"><stop offset="0" stop-color="#fef242"/><stop offset="1" stop-color="#fef242" stop-opacity="0"/></radialGradient><radialGradient cx="259.4481" cy="205.4275" r="8.5805" gradientUnits="userSpaceOnUse" id="color-2"><stop offset="0" stop-color="#fef242"/><stop offset="1" stop-color="#fef242" stop-opacity="0"/></radialGradient><radialGradient cx="267.2481" cy="171.4775" r="8.5805" gradientUnits="userSpaceOnUse" id="color-3"><stop offset="0" stop-color="#fef242"/><stop offset="1" stop-color="#fef242" stop-opacity="0"/></radialGradient><radialGradient cx="240.1981" cy="152.9775" r="8.5805" gradientUnits="userSpaceOnUse" id="color-4"><stop offset="0" stop-color="#fef242"/><stop offset="1" stop-color="#fef242" stop-opacity="0"/></radialGradient><radialGradient cx="214.1981" cy="172.0775" r="8.5805" gradientUnits="userSpaceOnUse" id="color-5"><stop offset="0" stop-color="#fef242"/><stop offset="1" stop-color="#fef242" stop-opacity="0"/></radialGradient><radialGradient cx="241.5882" cy="180.1725" r="39.6063" gradientUnits="userSpaceOnUse" id="color-6"><stop offset="0" stop-color="#fff343"/><stop offset="1" stop-color="#fff343" stop-opacity="0"/></radialGradient><radialGradient cx="240.2158" cy="181.9439" r="36.569" gradientUnits="userSpaceOnUse" id="color-7"><stop offset="0" stop-color="#ffffff" stop-opacity="0"/><stop offset="1" stop-color="#ffffff"/></radialGradient></defs><g transform="translate(-207.8595,-146.6815)"><g data-paper-data="{&quot;isPaintingLayer&quot;:true}" fill="none" fill-rule="nonzero" stroke="none" stroke-width="none" stroke-linecap="none" stroke-linejoin="miter" stroke-miterlimit="10" stroke-dasharray="" stroke-dashoffset="0" font-family="none" font-weight="none" font-size="none" text-anchor="none" style="mix-blend-mode: normal"><path d="M224.8077,198.7815c1.7785,0 3.3912,0.7225 4.5584,1.8897c1.1672,1.1672 1.8897,2.7799 1.8897,4.5585c0,1.7785 -0.7225,3.3912 -1.8897,4.5584c-1.1672,1.1672 -2.7799,1.8897 -4.5584,1.8897c-1.7786,0 -3.3913,-0.7225 -4.5585,-1.8897c-1.1672,-1.1672 -1.8897,-2.7799 -1.8897,-4.5584c0,-1.7786 0.7225,-3.3913 1.8897,-4.5585c1.1672,-1.1672 2.7799,-1.8897 4.5585,-1.8897z" id="ID0.372247823048383" fill="url(#color-1)" stroke-width="0.86844" stroke-linecap="butt"/><path d="M259.5577,199.1315c1.7785,0 3.3912,0.7225 4.5584,1.8897c1.1672,1.1672 1.8897,2.7799 1.8897,4.5585c0,1.7785 -0.7225,3.3912 -1.8897,4.5584c-1.1672,1.1672 -2.7799,1.8897 -4.5584,1.8897c-1.7786,0 -3.3913,-0.7225 -4.5585,-1.8897c-1.1672,-1.1672 -1.8897,-2.7799 -1.8897,-4.5584c0,-1.7786 0.7225,-3.3913 1.8897,-4.5585c1.1672,-1.1672 2.7799,-1.8897 4.5585,-1.8897z" id="ID0.372247823048383" fill="url(#color-2)" stroke-width="0.86844" stroke-linecap="butt"/><path d="M267.3577,165.1815c1.7785,0 3.3912,0.7225 4.5584,1.8897c1.1672,1.1672 1.8897,2.7799 1.8897,4.5585c0,1.7785 -0.7225,3.3912 -1.8897,4.5584c-1.1672,1.1672 -2.7799,1.8897 -4.5584,1.8897c-1.7786,0 -3.3913,-0.7225 -4.5585,-1.8897c-1.1672,-1.1672 -1.8897,-2.7799 -1.8897,-4.5584c0,-1.7786 0.7225,-3.3913 1.8897,-4.5585c1.1672,-1.1672 2.7799,-1.8897 4.5585,-1.8897z" id="ID0.372247823048383" fill="url(#color-3)" stroke-width="0.86844" stroke-linecap="butt"/><path d="M240.3077,146.6815c1.7785,0 3.3912,0.7225 4.5584,1.8897c1.1672,1.1672 1.8897,2.7799 1.8897,4.5585c0,1.7785 -0.7225,3.3912 -1.8897,4.5584c-1.1672,1.1672 -2.7799,1.8897 -4.5584,1.8897c-1.7786,0 -3.3913,-0.7225 -4.5585,-1.8897c-1.1672,-1.1672 -1.8897,-2.7799 -1.8897,-4.5584c0,-1.7786 0.7225,-3.3913 1.8897,-4.5585c1.1672,-1.1672 2.7799,-1.8897 4.5585,-1.8897z" id="ID0.372247823048383" fill="url(#color-4)" stroke-width="0.86844" stroke-linecap="butt"/><path d="M214.3077,165.7815c1.7785,0 3.3912,0.7225 4.5584,1.8897c1.1672,1.1672 1.8897,2.7799 1.8897,4.5585c0,1.7785 -0.7225,3.3912 -1.8897,4.5584c-1.1672,1.1672 -2.7799,1.8897 -4.5584,1.8897c-1.7786,0 -3.3913,-0.7225 -4.5585,-1.8897c-1.1672,-1.1672 -1.8897,-2.7799 -1.8897,-4.5584c0,-1.7786 0.7225,-3.3913 1.8897,-4.5585c1.1672,-1.1672 2.7799,-1.8897 4.5585,-1.8897z" id="ID0.372247823048383" fill="url(#color-5)" stroke-width="0.86844" stroke-linecap="butt"/><path d="M211.5722,174.4501l-1.067,-1.3772l0.9248,-2.827l1.6361,-0.7248h16.8589l7.3981,-17.0342l1.6361,-1.3772l1.6361,0.0724l1.9917,1.5222l7.9671,16.5993l17.0724,-0.2899l1.7073,1.0148l1.3515,1.6672l-1.3515,2.9719l-9.7455,11.5253l2.8454,17.4691l0.1422,2.7544l-1.7783,0.9423l-3.13,-0.5798l-16.361,-11.5978l-13.9424,13.0475l-3.1299,0.5799l-2.2764,-1.2323l-0.7824,-3.4068l1.6361,-16.2369z" id="ID0.3117544511333108" fill="url(#color-6)" stroke-width="1.43627" stroke-linecap="round"/><path d="M214.4833,175.1957l-0.9555,-1.2103l0.8281,-2.4845l1.4652,-0.637h15.0978l6.6252,-14.9704l1.4652,-1.2104l1.4652,0.0637l1.7837,1.3378l7.1348,14.5882l15.289,-0.2548l1.5289,0.8918l1.2103,1.4652l-1.2103,2.6119l-8.7275,10.1289l2.5482,15.3526l0.1274,2.4208l-1.5926,0.8281l-2.803,-0.5096l-14.6519,-10.1926l-12.4859,11.4667l-2.803,0.5096l-2.0385,-1.083l-0.7007,-2.9941l1.4651,-14.2696z" id="ID0.3117544511333108" fill="url(#color-7)" stroke-width="1.27408" stroke-linecap="round"/><text transform="translate(225.48128,185.97121) rotate(-5.73005) scale(0.573,0.573)" font-size="22" xml:space="preserve" data-paper-data="{&quot;origPos&quot;:null,&quot;origRot&quot;:-2.82164}" id="ID0.5449277525767684" fill="#4b3002" fill-rule="nonzero" stroke="none" stroke-width="1" stroke-linecap="butt" stroke-linejoin="miter" stroke-miterlimit="10" stroke-dasharray="" stroke-dashoffset="0" font-family="Sans Serif" font-weight="400" text-anchor="start" style="mix-blend-mode: normal"><tspan x="0" dy="0">NEW!</tspan></text></g></g></svg>