<svg version="1.1" xmlns="http://www.w3.org/2000/svg" xmlns:xlink="http://www.w3.org/1999/xlink" width="88.80615" height="85.14494" viewBox="0,0,88.80615,85.14494"><defs><radialGradient cx="253.0063" cy="175.63953" r="58.4462" gradientUnits="userSpaceOnUse" id="color-1"><stop offset="0" stop-color="#fff343"/><stop offset="1" stop-color="#fff343" stop-opacity="0"/></radialGradient><linearGradient x1="212.13125" y1="138.10483" x2="212.13125" y2="212.93349" gradientUnits="userSpaceOnUse" id="color-2"><stop offset="0" stop-color="#ffec6c"/><stop offset="1" stop-color="#fdc363"/></linearGradient><linearGradient x1="214.51399" y1="139.2482" x2="214.51399" y2="210.58404" gradientUnits="userSpaceOnUse" id="color-3"><stop offset="0" stop-color="#fff01b"/><stop offset="1" stop-color="#ffa30a"/></linearGradient><linearGradient x1="254.43913" y1="166.12886" x2="254.43913" y2="182.35354" gradientUnits="userSpaceOnUse" id="color-4"><stop offset="0" stop-color="#000000"/><stop offset="1" stop-color="#674205"/></linearGradient><linearGradient x1="240.68981" y1="166.12886" x2="240.68981" y2="182.35354" gradientUnits="userSpaceOnUse" id="color-5"><stop offset="0" stop-color="#000000"/><stop offset="1" stop-color="#674205"/></linearGradient></defs><g transform="translate(-207.1376,-132.75178)"><g data-paper-data="{&quot;isPaintingLayer&quot;:true}" fill-rule="nonzero" stroke="none" stroke-linejoin="miter" stroke-miterlimit="10" stroke-dasharray="" stroke-dashoffset="0" style="mix-blend-mode: normal"><path d="" data-paper-data="{&quot;origPos&quot;:null}" fill="#000000" stroke-width="0.26458" stroke-linecap="butt"/><path d="" data-paper-data="{&quot;origPos&quot;:null}" fill="#000000" stroke-width="0.26458" stroke-linecap="butt"/><path d="" data-paper-data="{&quot;origPos&quot;:null}" fill="#000000" stroke-width="0.26458" stroke-linecap="butt"/><path d="" data-paper-data="{&quot;origPos&quot;:null}" fill="#000000" stroke-width="0.26458" stroke-linecap="butt"/><path d="" data-paper-data="{&quot;origPos&quot;:null}" fill="#000000" stroke-width="0.26458" stroke-linecap="butt"/><path d="" data-paper-data="{&quot;origPos&quot;:null}" fill="#000000" stroke-width="0.26458" stroke-linecap="butt"/><path d="" data-paper-data="{&quot;origPos&quot;:null}" fill="#000000" stroke-width="0.26458" stroke-linecap="butt"/><path d="" data-paper-data="{&quot;origPos&quot;:null}" fill="#2b70c2" stroke-width="0.26458" stroke-linecap="butt"/><path d="" data-paper-data="{&quot;origPos&quot;:null}" fill="#2b70c2" stroke-width="0.26458" stroke-linecap="butt"/><path d="" data-paper-data="{&quot;origPos&quot;:null}" fill="#2b70c2" stroke-width="0.26458" stroke-linecap="butt"/><path d="" data-paper-data="{&quot;origPos&quot;:null}" fill="#2b70c2" stroke-width="0.26458" stroke-linecap="butt"/><path d="" data-paper-data="{&quot;origPos&quot;:null}" fill="#000000" stroke-width="0.26458" stroke-linecap="butt"/><path d="" data-paper-data="{&quot;origPos&quot;:null}" fill="#000000" stroke-width="0.26458" stroke-linecap="butt"/><path d="" data-paper-data="{&quot;origPos&quot;:null}" fill="#2b70c2" stroke-width="0.26458" stroke-linecap="butt"/><path d="" data-paper-data="{&quot;origPos&quot;:null}" fill="#2b70c2" stroke-width="0.26458" stroke-linecap="butt"/><path d="" data-paper-data="{&quot;origPos&quot;:null}" fill="#2b70c2" stroke-width="0.26458" stroke-linecap="butt"/><path d="" data-paper-data="{&quot;origPos&quot;:null}" fill="#2b70c2" stroke-width="0.26458" stroke-linecap="butt"/><path d="" data-paper-data="{&quot;origPos&quot;:null}" fill="#2b70c2" stroke-width="0.26458" stroke-linecap="butt"/><path d="" data-paper-data="{&quot;origPos&quot;:null}" fill="#2b70c2" stroke-width="0.26458" stroke-linecap="butt"/><path d="" data-paper-data="{&quot;origPos&quot;:null}" fill="#000000" stroke-width="0.26458" stroke-linecap="butt"/><path d="" data-paper-data="{&quot;origPos&quot;:null}" fill="#000000" stroke-width="0.26458" stroke-linecap="butt"/><path d="" data-paper-data="{&quot;origPos&quot;:null}" fill="#000000" stroke-width="0.26458" stroke-linecap="butt"/><path d="" data-paper-data="{&quot;origPos&quot;:null}" fill="#000000" stroke-width="0.26458" stroke-linecap="butt"/><path d="" data-paper-data="{&quot;origPos&quot;:null}" fill="#000000" stroke-width="0.26458" stroke-linecap="butt"/><path d="" data-paper-data="{&quot;origPos&quot;:null}" fill="#2b70c2" stroke-width="0.26458" stroke-linecap="butt"/><path d="" data-paper-data="{&quot;origPos&quot;:null}" fill="#2b70c2" stroke-width="0.26458" stroke-linecap="butt"/><path d="" data-paper-data="{&quot;origPos&quot;:null}" fill="#2b70c2" stroke-width="0.26458" stroke-linecap="butt"/><path d="" data-paper-data="{&quot;origPos&quot;:null}" fill="#2b70c2" stroke-width="0.26458" stroke-linecap="butt"/><path d="" data-paper-data="{&quot;origPos&quot;:null}" fill="#2b70c2" stroke-width="0.26458" stroke-linecap="butt"/><path d="" data-paper-data="{&quot;origPos&quot;:null}" fill="#000000" stroke-width="0.26458" stroke-linecap="butt"/><path d="M208.71226,167.19504l-1.57466,-2.03249l1.3648,-4.17159l2.41409,-1.06955h24.87856l10.91697,-25.13714l2.41457,-2.03249l2.41409,0.1071l2.93946,2.2462l11.75688,24.4955l25.1931,-0.42792l2.51926,1.49747l1.99437,2.45992l-1.99437,4.38579l-14.38131,17.00767l4.1991,25.77877l0.20986,4.06449l-2.62444,1.39085l-4.61832,-0.85584l-24.14381,-17.11477l-20.5743,19.25387l-4.6188,0.85584l-3.35918,-1.81829l-1.15494,-5.02743l2.41457,-23.96048z" fill="url(#color-1)" stroke-width="0.43933" stroke-linecap="round"/><path d="M213.54141,168.37458l-1.41015,-1.78596l1.22248,-3.666l2.16179,-0.94025h22.27969l9.7765,-22.09154l2.16227,-1.78596l2.16227,0.09408l2.63215,1.97411l10.5286,21.5271l22.56144,-0.37581l2.25634,1.31608l1.78596,2.16227l-1.78596,3.85415l-12.87902,14.94673l3.76008,22.6555l0.18815,3.57242l-2.34993,1.222l-4.13638,-0.75211l-21.62165,-15.04079l-18.42506,16.92132l-4.13638,0.75162l-3.00796,-1.59781l-1.03434,-4.41861l2.16227,-21.05721z" fill="url(#color-2)" stroke-width="0.38972" stroke-linecap="round"/><path d="M214.51399,165.07281l25.42564,-0.63778l10.52089,-25.18682l12.59342,24.94754l27.49817,-0.0796l-17.37577,18.65084l5.02164,26.14302l-25.66493,-17.45488l-23.59287,19.12893l3.02919,-25.90421z" fill="url(#color-3)" stroke-width="0.33043" stroke-linecap="round"/><g stroke-width="0.8465"><path d="M257.75778,166.13031c1.03627,-0.04004 2.06916,0.81772 2.5043,1.8757c0.78877,1.92008 0.87368,4.20923 0.81483,6.34688c-0.04052,1.97364 -0.3541,4.01384 -1.10622,5.7781c-0.43177,1.03579 -1.20947,2.23125 -2.21292,2.22257c-0.96582,-0.00868 -1.78838,-0.75549 -2.31954,-2.0981c-0.6783,-1.69768 -0.99912,-3.73354 -0.99912,-6.12448c0,-2.39143 0.24701,-4.34721 0.99912,-6.12497c0.49449,-1.17328 1.43814,-1.91574 2.31954,-1.8757z" fill="url(#color-4)" stroke-linecap="round"/><path d="M257.83111,167.27946c0.53453,0 1.01793,0.26197 1.36817,0.68458c0.35024,0.42213 0.56783,1.00443 0.56783,1.64895c0,0.64452 -0.21757,1.22682 -0.56783,1.64895c-0.35024,0.42213 -0.83364,0.68458 -1.36817,0.68458c-0.53453,0 -1.01793,-0.26244 -1.36817,-0.68458c-0.35024,-0.42213 -0.56783,-1.00443 -0.56783,-1.64895c0,-0.64452 0.21757,-1.22682 0.56783,-1.64895c0.35024,-0.42261 0.83364,-0.68458 1.36817,-0.68458z" fill="#ffffff" stroke-linecap="butt"/></g><g stroke-width="0.8465"><path d="M244.00847,166.13031c1.03627,-0.04004 2.06916,0.81772 2.5043,1.8757c0.78877,1.92008 0.87368,4.20923 0.81483,6.34688c-0.04052,1.97364 -0.3541,4.01384 -1.10622,5.7781c-0.43177,1.03579 -1.20947,2.23125 -2.21292,2.22257c-0.96582,-0.00868 -1.78838,-0.75549 -2.31954,-2.0981c-0.6783,-1.69768 -0.99912,-3.73354 -0.99912,-6.12448c0,-2.39143 0.24701,-4.34721 0.99912,-6.12497c0.49449,-1.17328 1.43814,-1.91574 2.31954,-1.8757z" fill="url(#color-5)" stroke-linecap="round"/><path d="M244.56421,167.27946c0.53453,0 1.01793,0.26197 1.36817,0.68458c0.35024,0.42213 0.56783,1.00443 0.56783,1.64895c0,0.64452 -0.21757,1.22682 -0.56783,1.64895c-0.35024,0.42213 -0.83364,0.68458 -1.36817,0.68458c-0.53453,0 -1.01793,-0.26244 -1.36817,-0.68458c-0.35024,-0.42213 -0.56783,-1.00443 -0.56783,-1.64895c0,-0.64452 0.21757,-1.22682 0.56783,-1.64895c0.35024,-0.42261 0.83364,-0.68458 1.36817,-0.68458z" fill="#ffffff" stroke-linecap="butt"/></g></g></g></svg>