<svg version="1.1" xmlns="http://www.w3.org/2000/svg" xmlns:xlink="http://www.w3.org/1999/xlink" width="651.75071" height="470.256" viewBox="0,0,651.75071,470.256"><defs><radialGradient cx="22597.46762" cy="-7108.54227" r="52489.66435" gradientUnits="userSpaceOnUse" id="color-1"><stop offset="0" stop-color="#000000" stop-opacity="0"/><stop offset="1" stop-color="#000000"/></radialGradient><linearGradient x1="-0.02275" y1="179.93704" x2="66.97868" y2="179.93704" gradientUnits="userSpaceOnUse" id="color-2"><stop offset="0" stop-color="#2958a5"/><stop offset="1" stop-color="#2958a5" stop-opacity="0"/></linearGradient><linearGradient x1="481.39309" y1="179.93704" x2="414.39171" y2="179.93704" gradientUnits="userSpaceOnUse" id="color-3"><stop offset="0" stop-color="#2958a5"/><stop offset="1" stop-color="#2958a5" stop-opacity="0"/></linearGradient><radialGradient cx="3.49147" cy="355.39648" r="59.56677" gradientUnits="userSpaceOnUse" id="color-4"><stop offset="0" stop-color="#3672d9"/><stop offset="1" stop-color="#2958a5"/></radialGradient><radialGradient cx="238.47805" cy="16.50791" r="324.5007" gradientUnits="userSpaceOnUse" id="color-5"><stop offset="0" stop-color="#3672d9"/><stop offset="1" stop-color="#2958a5"/></radialGradient></defs><g transform="translate(87.27274,20.83965)"><g data-paper-data="{&quot;isPaintingLayer&quot;:true}" fill-rule="nonzero" stroke-linecap="butt" stroke-linejoin="miter" stroke-miterlimit="10" stroke-dasharray="" stroke-dashoffset="0" style="mix-blend-mode: normal"><path d="M514.32334,-7.67936c0,0 0,304.73048 0,457.09571c-182.88217,0 -365.76434,0 -548.64651,0v-456.83684z" fill="url(#color-1)" stroke="none" stroke-width="1.24396"/><path d="M480.47797,386.16035v-407h84v407z" fill="#2958a5" stroke="none" stroke-width="0"/><path d="M-0.02275,-1.58302h67.0014v363.0401h-67.0014z" fill="url(#color-2)" stroke="#034e9d" stroke-width="0"/><path d="M481.39309,361.45711h-67.0014v-363.0401h67.0014z" data-paper-data="{&quot;index&quot;:null}" fill="url(#color-3)" stroke="#034e9d" stroke-width="0"/><path d="M-4.48354,280.19713l82.88038,85.57828l-83.26372,-0.17963z" data-paper-data="{&quot;origRot&quot;:0}" fill="url(#color-4)" stroke="#034e9d" stroke-width="2.5"/><path d="M12.38617,325.03097c0,-7.75438 3.077,-13.83573 9.07674,-17.83978c0.50262,0.45574 30.47066,31.64286 30.73603,31.79452c-4.05738,5.60629 -10.02998,8.3786 -17.47945,8.3786c-12.33436,0 -22.33333,-9.99897 -22.33333,-22.33333z" fill="#03468e" stroke="#034e9d" stroke-width="2.5"/><path d="M-85.52203,390.16036v-407h86v407z" fill="#2958a5" stroke="none" stroke-width="0"/><path d="M-86.02273,-0.50274h649.0014v35.95053h-649.0014z" data-paper-data="{&quot;origPos&quot;:null}" fill="url(#color-5)" stroke="#034e9d" stroke-width="2.5"/><text transform="translate(7.62143,22.66229) scale(0.81068,0.81306)" font-size="22" xml:space="preserve" data-paper-data="{&quot;origPos&quot;:null}" fill="#ffffff" fill-rule="nonzero" stroke="none" stroke-width="1" stroke-linecap="butt" stroke-linejoin="miter" stroke-miterlimit="10" stroke-dasharray="" stroke-dashoffset="0" font-family="Sans Serif" font-weight="400" text-anchor="start" style="mix-blend-mode: normal"><tspan x="0" dy="0">Power Stars</tspan></text><text transform="translate(200.42105,22.37517) scale(0.81068,0.81306)" font-size="22" xml:space="preserve" fill="#ffffff" fill-rule="nonzero" stroke="none" stroke-width="1" stroke-linecap="butt" stroke-linejoin="miter" stroke-miterlimit="10" stroke-dasharray="" stroke-dashoffset="0" font-family="Sans Serif" font-weight="400" text-anchor="start" style="mix-blend-mode: normal"><tspan x="0" dy="0">Big Stars</tspan></text><text transform="translate(370.92104,21.8488) scale(0.81068,0.81306)" font-size="22" xml:space="preserve" fill="#ffffff" fill-rule="nonzero" stroke="none" stroke-width="1" stroke-linecap="butt" stroke-linejoin="miter" stroke-miterlimit="10" stroke-dasharray="" stroke-dashoffset="0" font-family="Sans Serif" font-weight="400" text-anchor="start" style="mix-blend-mode: normal"><tspan x="0" dy="0">Grand Stars</tspan></text></g></g></svg>