<svg version="1.1" xmlns="http://www.w3.org/2000/svg" xmlns:xlink="http://www.w3.org/1999/xlink" width="437" height="90.79587" viewBox="0,0,437,90.79587"><defs><linearGradient x1="240" y1="135.60206" x2="240" y2="224.39795" gradientUnits="userSpaceOnUse" id="color-1"><stop offset="0" stop-color="#ffffff"/><stop offset="1" stop-color="#d8d8d8"/></linearGradient><linearGradient x1="240" y1="135.60208" x2="240" y2="224.39795" gradientUnits="userSpaceOnUse" id="color-2"><stop offset="0" stop-color="#343434"/><stop offset="1" stop-color="#090909"/></linearGradient><radialGradient cx="443.8065" cy="206.54466" r="17.9081" gradientUnits="userSpaceOnUse" id="color-3"><stop offset="0" stop-color="#ffffff"/><stop offset="1" stop-color="#e5e5e5"/></radialGradient></defs><g transform="translate(-21.5,-134.60208)"><g data-paper-data="{&quot;isPaintingLayer&quot;:true}" fill-rule="nonzero" stroke-linejoin="miter" stroke-miterlimit="10" stroke-dasharray="" stroke-dashoffset="0" style="mix-blend-mode: normal"><path d="M22.5,224.39795v-88.79587h435v88.79587z" data-paper-data="{&quot;origPos&quot;:null}" fill="url(#color-1)" stroke="url(#color-2)" stroke-width="2" stroke-linecap="butt"/><g data-paper-data="{&quot;origPos&quot;:null}"><path d="M444.3058,202.09868c2.5136,0 4.7909,1.0212 6.4406,2.6702c1.6489,1.6496 2.6702,3.9269 2.6702,6.4405c0,2.5136 -1.0213,4.791 -2.6702,6.4406c-1.6497,1.649 -3.927,2.6702 -6.4406,2.6702c-2.5136,0 -4.7909,-1.0212 -6.4406,-2.6702c-1.6489,-1.6496 -2.6701,-3.927 -2.6701,-6.4406c0,-2.5136 1.0212,-4.7909 2.6701,-6.4405c1.6497,-1.649 3.927,-2.6702 6.4406,-2.6702z" fill="url(#color-3)" stroke="#000000" stroke-width="2.0785" stroke-linecap="butt"/><path d="M441.2734,206.54886l5.6119,0.4503l1.7321,3.187l-3.6374,2.9446l3.3603,-0.5197l0.7967,3.4642l-7.4479,-0.0693l-1.9053,-2.4249l4.6766,-3.3256l-4.5727,-0.3464z" fill="#000000" stroke="none" stroke-width="0.69284" stroke-linecap="round"/></g><g data-paper-data="{&quot;origPos&quot;:null}" stroke="none" stroke-width="1" stroke-linecap="butt"><path d="M35.83595,149.44533l0.06196,0.11606l0.46619,6.81288h0.05409l2.44701,-2.56307c1.44086,1.94148 2.17851,2.9132 2.2149,2.9132c0.62159,-3.04204 1.0091,-4.86747 1.16449,-5.47725c2.64175,0.5075 3.96262,0.81829 3.96262,0.93238c-1.58938,5.04942 -2.5011,7.90656 -2.7342,8.56945c-0.56159,0.03639 -1.80477,0.15245 -3.72854,0.35013c-0.85468,-2.04376 -1.28252,-3.09319 -1.28252,-3.1463c-0.0718,0.0059 -0.52028,0.89894 -1.34448,2.68011h-0.05409c-2.56405,-0.1731 -3.84558,-0.3285 -3.84558,-0.46619c-1.43988,-6.35259 -2.1608,-9.61592 -2.1608,-9.78902v-0.11704c0,-0.11901 1.59331,-0.39144 4.77895,-0.81534z" data-paper-data="{&quot;origPos&quot;:null}" fill="#000000"/><path d="M52.27655,152.15199c2.70666,1.39267 4.20654,2.20605 4.49963,2.43914c-0.38849,1.81657 -0.61864,2.7519 -0.69043,2.80501h-5.6651v0.09934l1.58643,1.96312l2.49225,-1.27366c0.2449,0.42488 0.59798,1.16548 1.05827,2.22375c-0.21539,0.0718 -1.78411,0.30194 -4.70715,0.69043c-2.41947,-1.59626 -3.63904,-2.42636 -3.65675,-2.49225c0.38849,-3.10204 0.61864,-4.65306 0.69043,-4.65306c2.52766,-1.07499 3.99213,-1.67593 4.39242,-1.80182zM51.69332,154.32163c-0.04721,0.11999 -0.3639,0.59503 -0.95009,1.42513c0,0.25178 0.35309,0.37669 1.05827,0.37669c0,0.03639 0.51045,0.12294 1.53233,0.25965c0.28129,-0.38849 0.42193,-0.6147 0.42193,-0.6806c-0.09048,-0.53209 -0.28424,-0.79764 -0.58323,-0.79764z" data-paper-data="{&quot;origPos&quot;:null}" fill="#000000"/><path d="M57.5925,149.44533c1.82837,0.03541 3.1699,0.05311 4.02458,0.05311c0.0777,0 0.31374,3.66953 0.70814,11.0086c-0.30489,0.0777 -1.36808,0.27539 -3.19154,0.59208c-0.0895,0 -0.38554,-2.24735 -0.88714,-6.74108c-0.04229,-0.10819 -0.25965,-1.74576 -0.65404,-4.91271z" data-paper-data="{&quot;origPos&quot;:null}" fill="#000000"/><path d="M66.85239,152.15199c2.69486,0.50848 4.10523,0.79862 4.23112,0.86944v0.10819c-0.5793,1.63757 -0.86944,2.48635 -0.86944,2.54536h-0.05409c-0.1495,0 -0.87239,-0.2331 -2.16867,-0.69929c-0.72387,1.21367 -1.08483,1.86181 -1.08483,1.94541l1.79297,1.73986c1.38579,-1.30317 2.09097,-1.95426 2.11556,-1.95426c1.08089,1.41628 1.62183,2.21096 1.62183,2.38406c-0.5911,0.3403 -1.62183,1.01008 -3.0922,2.00836c-2.84435,-0.61569 -4.38062,-0.95992 -4.60781,-1.03073l-1.40742,-4.5547z" data-paper-data="{&quot;origPos&quot;:null}" fill="#000000"/><path d="M76.94631,152.15199c2.27096,0.60979 3.47479,0.98057 3.61249,1.11237c1.24908,1.76838 1.95131,2.78731 2.10671,3.0568c-0.80649,2.55716 -1.26973,3.83673 -1.38972,3.83673c-2.68896,0.62749 -4.09638,0.94123 -4.22227,0.94123c-2.22277,-1.29727 -3.40595,-2.02016 -3.54954,-2.16966c-0.0777,-2.41455 -0.11606,-3.74723 -0.11606,-3.99803c-0.03639,-0.0718 -0.05409,-0.12589 -0.05409,-0.1613c2.29456,-1.74477 3.48069,-2.61814 3.55839,-2.61814zM76.72207,155.43302c-0.03541,0.239 -0.0895,1.10843 -0.1613,2.60929l1.99951,0.4475c0.47799,-1.49397 0.71699,-2.29161 0.71699,-2.39292c-1.58938,-0.47799 -2.44111,-0.71699 -2.5552,-0.71699z" data-paper-data="{&quot;origPos&quot;:null}" fill="#000000"/><path d="M93.44101,152.14315c1.45857,0.60388 2.7165,1.17138 3.77379,1.70347c-0.2744,3.55544 -0.45144,5.50086 -0.52914,5.83624c-1.75658,0.4357 -2.7401,0.65404 -2.94861,0.65404c0,-0.77698 -0.06,-2.3103 -0.17999,-4.59896c-0.6629,0.0659 -0.99434,0.12294 -0.99434,0.17015c0,0.22719 0.03836,1.52446 0.11606,3.89082c0.03639,0 0.05409,0.02065 0.05409,0.06295c0,0.0718 -0.92353,0.2685 -2.77059,0.5911c-0.0777,-0.0954 -0.31374,-1.55004 -0.70814,-4.36488c-0.7465,0.1908 -1.12023,0.3285 -1.12023,0.4121l0.35899,3.65773c-0.0718,0.0777 -1.05532,0.39144 -2.94959,0.94123c-1.09958,-3.89082 -1.78706,-6.50208 -2.06147,-7.83476c2.07327,-0.51438 3.23285,-0.77108 3.47774,-0.77108c0.27539,1.08778 0.4121,1.71527 0.4121,1.88247h0.06295c1.01008,-0.93238 1.71527,-1.55987 2.11556,-1.88247h0.06295l1.88247,1.35333h0.06295c1.17728,-1.13499 1.80477,-1.70347 1.88247,-1.70347z" data-paper-data="{&quot;origPos&quot;:null}" fill="#000000"/><path d="M103.19462,152.15199c2.70666,1.39267 4.20654,2.20605 4.49963,2.43914c-0.38849,1.81657 -0.61864,2.7519 -0.69043,2.80501h-5.6651v0.09934l1.58643,1.96312l2.49225,-1.27366c0.2449,0.42488 0.59798,1.16548 1.05729,2.22375c-0.21441,0.0718 -1.78313,0.30194 -4.70617,0.69043c-2.42046,-1.59626 -3.63904,-2.42636 -3.65675,-2.49225c0.38849,-3.10204 0.61765,-4.65306 0.68945,-4.65306c2.52864,-1.07499 3.99213,-1.67593 4.39341,-1.80182zM102.61139,154.32163c-0.04819,0.11999 -0.36489,0.59503 -0.95009,1.42513c0,0.25178 0.3521,0.37669 1.05729,0.37669c0,0.03639 0.51143,0.12294 1.53332,0.25965c0.28129,-0.38849 0.42095,-0.6147 0.42095,-0.6806c-0.0895,-0.53209 -0.28326,-0.79764 -0.58225,-0.79764z" data-paper-data="{&quot;origPos&quot;:null}" fill="#000000"/><path d="M115.7444,149.43649l3.94394,0.69929l-0.37571,2.99385c0.78289,-0.04229 1.35628,-0.06295 1.72117,-0.06295h0.5734l0.12491,-0.06295l0.06295,0.12589c-0.12491,1.81657 -0.2331,2.83845 -0.3226,3.06565l-0.12491,-0.0718c-0.09048,0 -0.89697,-0.04131 -2.42046,-0.12491c-0.0836,1.40349 -0.14655,3.08335 -0.18884,5.03762l-0.12491,0.06295c-1.92476,-0.12589 -3.07253,-0.2331 -3.44234,-0.3226l0.06196,-0.25178c0,-0.5193 0.0836,-2.13327 0.25178,-4.83993c-1.61396,-0.09048 -2.42046,-0.19769 -2.42046,-0.32358c0.0836,-1.99557 0.1908,-2.99385 0.3226,-2.99385l2.35751,0.44849v-0.77108c0,-0.62749 -0.0236,-1.47627 -0.0718,-2.54635c0.04819,0 0.0718,-0.02065 0.0718,-0.06196z" data-paper-data="{&quot;origPos&quot;:null}" fill="#000000"/><path d="M126.3586,152.15199c2.27096,0.60979 3.47479,0.98057 3.61249,1.11237c1.24908,1.76838 1.95131,2.78731 2.10671,3.0568c-0.80747,2.55716 -1.27071,3.83673 -1.38972,3.83673c-2.68896,0.62749 -4.09638,0.94123 -4.22227,0.94123c-2.22277,-1.29727 -3.40693,-2.02016 -3.54954,-2.16966c-0.0777,-2.41455 -0.11704,-3.74723 -0.11704,-3.99803c-0.03541,-0.0718 -0.05409,-0.12589 -0.05409,-0.1613c2.29555,-1.74477 3.48168,-2.61814 3.55938,-2.61814zM126.13436,155.43302c-0.03639,0.239 -0.0895,1.10843 -0.1613,2.60929l1.99852,0.4475c0.47799,-1.49397 0.71699,-2.29161 0.71699,-2.39292c-1.58938,-0.47799 -2.44111,-0.71699 -2.55421,-0.71699z" data-paper-data="{&quot;origPos&quot;:null}" fill="#000000"/><path d="M144.49284,149.43649c2.15195,1.08778 3.25743,1.63167 3.31743,1.63167c0,0.0954 -0.44849,0.95894 -1.34448,2.5906h-0.06295c-0.0718,0 -1.10253,-0.48783 -3.09319,-1.46152l-1.01303,1.35333c1.71527,0.82518 3.79837,1.87657 6.24833,3.15613c-1.11138,1.97787 -1.90017,3.29284 -2.36636,3.94394l-5.06515,0.44849c-2.31227,-1.55987 -3.53479,-2.36734 -3.66658,-2.42046v-0.06295c0,-0.1672 0.46914,-0.93533 1.40742,-2.30342h0.11704c0.37079,0.22031 1.53233,0.85665 3.4866,1.90902l1.18416,-1.34448c-3.59183,-1.82936 -5.58249,-2.86304 -5.97098,-3.10204v-0.05409c1.14187,-2.22277 1.76346,-3.3489 1.86476,-3.37939c2.97025,-0.6029 4.62257,-0.90484 4.95697,-0.90484z" data-paper-data="{&quot;origPos&quot;:null}" fill="#2b70c2"/><path d="M154.33596,152.14315l0.06295,0.11704l-1.20974,6.41848h0.06196l3.08433,-0.90583v-3.63019c0.0118,-0.0836 0.05016,-0.12589 0.11606,-0.12589c2.31915,0.1613 3.60954,0.24195 3.87312,0.24195c0,0.04229 0.02065,0.06295 0.06295,0.06295c0,1.02188 -0.32358,3.1404 -0.96877,6.35554c0,0.18589 -0.92648,0.32555 -2.77846,0.42193c-0.09639,-0.11409 -0.17703,-0.35604 -0.24195,-0.72682c-2.37325,0.48488 -3.72658,0.72682 -4.06097,0.72682c-1.89525,-1.41037 -2.84239,-2.1372 -2.84239,-2.17851c0.3226,-4.23703 0.52619,-6.43619 0.60979,-6.59749h0.05409c1.51168,-0.04229 2.90435,-0.10229 4.17703,-0.17999z" data-paper-data="{&quot;origPos&quot;:null}" fill="#2b70c2"/><path d="M165.79304,152.15199c0.1849,0.76518 0.31374,1.23727 0.38554,1.41628c2.64076,-0.6029 4.03639,-0.90484 4.18588,-0.90484c1.79887,2.58765 2.69879,3.93803 2.69879,4.05212l-2.06245,4.37472l-4.43668,-0.70814v0.13376c0.3462,2.65945 0.5193,4.07278 0.5193,4.23998c-0.04131,0 -0.06295,0.02164 -0.06295,0.06295c-0.4298,-0.04131 -0.7524,-0.06295 -0.96779,-0.06295h-0.77108c-0.44849,0 -1.13499,-0.02065 -2.06147,-0.06196c-0.0836,-0.25178 -0.72682,-4.06688 -1.92771,-11.44823c0.20359,-0.0836 1.70347,-0.4475 4.50061,-1.09368zM166.11564,155.81857c0.11901,1.37497 0.22719,2.06245 0.3226,2.06245c1.22547,0.4239 1.97492,0.63634 2.25031,0.63634l0.70814,-3.08433h-0.06295c-0.69929,0.04229 -1.77231,0.17015 -3.21809,0.38554z" data-paper-data="{&quot;origPos&quot;:null}" fill="#2b70c2"/><path d="M179.06866,152.15199c2.70764,1.39267 4.20752,2.20605 4.50061,2.43914c-0.38849,1.81657 -0.61864,2.7519 -0.69043,2.80501h-5.6651v0.09934l1.58643,1.96312l2.49225,-1.27366c0.2449,0.42488 0.597,1.16548 1.05729,2.22375c-0.21441,0.0718 -1.78411,0.30194 -4.70617,0.69043c-2.42046,-1.59626 -3.63904,-2.42636 -3.65773,-2.49225c0.38849,-3.10204 0.61864,-4.65306 0.69043,-4.65306c2.52864,-1.07499 3.99213,-1.67593 4.39242,-1.80182zM178.48641,154.32163c-0.04819,0.11999 -0.36489,0.59503 -0.95009,1.42513c0,0.25178 0.3521,0.37669 1.05729,0.37669c0,0.03639 0.51143,0.12294 1.53332,0.25965c0.2803,-0.38849 0.42095,-0.6147 0.42095,-0.6806c-0.0895,-0.53209 -0.28326,-0.79764 -0.58225,-0.79764z" data-paper-data="{&quot;origPos&quot;:null}" fill="#2b70c2"/><path d="M190.82178,152.14315c1.18318,0.66388 1.90902,1.09368 2.17752,1.29137c-0.96779,2.01328 -1.48807,3.03909 -1.55987,3.0745h-0.06196l-1.28252,-1.12023l-1.51463,1.84608l0.17015,3.36169c-0.0777,0.0718 -1.06712,0.239 -2.96729,0.50258c-0.0718,-0.51438 -0.53799,-3.03319 -1.39857,-7.55741c0,-0.0718 1.24908,-0.2567 3.74723,-0.55569c0.04229,0.04819 0.1554,0.60683 0.34128,1.67593c1.49397,-1.67888 2.27686,-2.51881 2.34866,-2.51881z" data-paper-data="{&quot;origPos&quot;:null}" fill="#2b70c2"/><path d="M202.26018,149.42763c1.69068,0.11901 2.53651,0.22621 2.53651,0.3226c0.65208,1.75067 1.04942,2.86796 1.19203,3.35284h0.05409c0.1554,-0.33538 0.75043,-1.25596 1.78411,-2.76174h0.05409c1.61888,0.10229 2.42931,0.21244 2.42931,0.33145l1.46053,9.99556c0,0.06 -1.27858,0.20359 -3.83673,0.43078l-0.05311,-0.10819c-0.14359,-3.03516 -0.21539,-4.89107 -0.21539,-5.56675h-0.05409l-2.21391,1.94541h-0.05409c-0.0718,-0.03541 -0.57635,-0.82813 -1.51463,-2.37521h-0.05409c-1.15367,3.35874 -1.78411,5.14187 -1.89132,5.35136h-0.1072c-2.06245,-0.93238 -3.23383,-1.49102 -3.51413,-1.67593v-0.05409c2.55716,-6.01229 3.88984,-9.07499 3.99803,-9.18809z" data-paper-data="{&quot;origPos&quot;:null}" fill="#2b70c2"/><path d="M213.96708,152.14315c3.55053,0.49078 5.3248,0.79174 5.3248,0.90583c1.39857,1.20088 2.09786,1.84313 2.09786,1.92673c-0.56749,1.77526 -0.89009,2.85419 -0.96779,3.23678c0.56749,1.26088 0.89009,2.01426 0.96779,2.25916c0,0.0718 -0.92648,0.2626 -2.77846,0.5734c-0.02459,-0.1013 -0.19474,-0.3285 -0.51143,-0.68158c-2.55716,0.49078 -3.93508,0.73568 -4.13277,0.73568l-1.36218,-3.68428l3.0027,-1.58741c0.48488,0.0777 1.24023,0.11704 2.26801,0.11704c0,-0.13179 0.01869,-0.52914 0.05409,-1.19203c-0.1731,0 -1.72117,0.11311 -4.64322,0.3403l-0.05409,-0.11704c0.4062,-1.88837 0.65109,-2.83255 0.73469,-2.83255zM215.83184,157.41483c0,0.06491 0.19179,0.7642 0.57438,2.09688h0.05311c0.75338,-0.4898 1.13007,-0.81239 1.13007,-0.96779l0.11606,-0.95894c-0.14359,0 -0.76813,-0.05704 -1.87362,-0.17015z" data-paper-data="{&quot;origPos&quot;:null}" fill="#2b70c2"/><path d="M228.6875,152.14315c1.18318,0.66388 1.90902,1.09368 2.17752,1.29137c-0.96779,2.01328 -1.48807,3.03909 -1.55987,3.0745h-0.06196l-1.28252,-1.12023l-1.51463,1.84608l0.17015,3.36169c-0.0777,0.0718 -1.06712,0.239 -2.96729,0.50258c-0.0718,-0.51438 -0.53799,-3.03319 -1.39857,-7.55741c0,-0.0718 1.24908,-0.2567 3.74723,-0.55569c0.04229,0.04819 0.1554,0.60683 0.34128,1.67593c1.49397,-1.67888 2.27686,-2.51881 2.34866,-2.51881z" data-paper-data="{&quot;origPos&quot;:null}" fill="#2b70c2"/><path d="M232.81043,148.54834l3.52299,0.55569c-0.4416,1.69166 -0.73174,2.53749 -0.86944,2.53749c-1.85198,-0.12589 -2.77846,-0.24785 -2.77846,-0.36784v-2.59946c0.0177,-0.0836 0.05901,-0.12589 0.12491,-0.12589zM231.82494,152.81588h0.05311c2.72535,0.4957 4.08851,0.78584 4.08851,0.86944c-0.78289,4.43471 -1.25793,6.90533 -1.42611,7.41381h-2.8414c-0.0836,0 -0.12589,-0.04229 -0.12589,-0.12589z" data-paper-data="{&quot;origPos&quot;:null}" fill="#2b70c2"/><path d="M240.24195,152.15199c2.27096,0.60979 3.47578,0.98057 3.61249,1.11237c1.24908,1.76838 1.95131,2.78731 2.10671,3.0568c-0.80649,2.55716 -1.26973,3.83673 -1.38874,3.83673c-2.68994,0.62749 -4.09737,0.94123 -4.22227,0.94123c-2.22375,-1.29727 -3.40693,-2.02016 -3.55053,-2.16966c-0.0777,-2.41455 -0.11606,-3.74723 -0.11606,-3.99803c-0.03639,-0.0718 -0.05409,-0.12589 -0.05409,-0.1613c2.29456,-1.74477 3.48168,-2.61814 3.55938,-2.61814zM240.0177,155.43302c-0.03541,0.239 -0.0895,1.10843 -0.1613,2.60929l1.99951,0.4475c0.47799,-1.49397 0.71699,-2.29161 0.71699,-2.39292c-1.58938,-0.47799 -2.44111,-0.71699 -2.5552,-0.71699z" data-paper-data="{&quot;origPos&quot;:null}" fill="#2b70c2"/><path d="M258.37716,149.43649c2.15195,1.08778 3.25743,1.63167 3.31645,1.63167c0,0.0954 -0.4475,0.95894 -1.34448,2.5906h-0.06295c-0.07081,0 -1.10253,-0.48783 -3.0922,-1.46152l-1.01303,1.35333c1.71527,0.82518 3.79837,1.87657 6.24833,3.15613c-1.11138,1.97787 -1.90017,3.29284 -2.36636,3.94394l-5.06515,0.44849c-2.31325,-1.55987 -3.53479,-2.36734 -3.66658,-2.42046v-0.06295c0,-0.1672 0.46914,-0.93533 1.40742,-2.30342h0.11606c0.37079,0.22031 1.53332,0.85665 3.48758,1.90902l1.18318,-1.34448c-3.59183,-1.82936 -5.5815,-2.86304 -5.97,-3.10204v-0.05409c1.14089,-2.22277 1.76248,-3.3489 1.86476,-3.37939c2.97025,-0.6029 4.62257,-0.90484 4.95697,-0.90484z" data-paper-data="{&quot;origPos&quot;:null}" fill="#2b70c2"/><path d="M266.90236,152.15199c2.69486,0.50848 4.10622,0.79862 4.23112,0.86944v0.10819c-0.5793,1.63757 -0.86944,2.48635 -0.86944,2.54536h-0.05409c-0.1495,0 -0.87239,-0.2331 -2.16867,-0.69929c-0.72387,1.21367 -1.08483,1.86181 -1.08483,1.94541l1.79297,1.73986c1.38579,-1.30317 2.09097,-1.95426 2.11556,-1.95426c1.08089,1.41628 1.62183,2.21096 1.62183,2.38406c-0.5911,0.3403 -1.62183,1.01008 -3.0922,2.00836c-2.84435,-0.61569 -4.38062,-0.95992 -4.60781,-1.03073l-1.40742,-4.5547z" data-paper-data="{&quot;origPos&quot;:null}" fill="#2b70c2"/><path d="M279.81998,152.14315c1.18318,0.66388 1.91001,1.09368 2.17851,1.29137c-0.96779,2.01328 -1.48807,3.03909 -1.55987,3.0745h-0.06295l-1.28153,-1.12023l-1.51463,1.84608l0.17015,3.36169c-0.0777,0.0718 -1.06712,0.239 -2.96729,0.50258c-0.0718,-0.51438 -0.53799,-3.03319 -1.39857,-7.55741c0,-0.0718 1.24908,-0.2567 3.74723,-0.55569c0.04131,0.04819 0.1554,0.60683 0.3403,1.67593c1.49397,-1.67888 2.27686,-2.51881 2.34866,-2.51881z" data-paper-data="{&quot;origPos&quot;:null}" fill="#2b70c2"/><path d="M284.0688,152.14315c3.55053,0.49078 5.32579,0.79174 5.32579,0.90583c1.39759,1.20088 2.09688,1.84313 2.09688,1.92673c-0.56749,1.77526 -0.89009,2.85419 -0.96779,3.23678c0.56749,1.26088 0.89009,2.01426 0.96779,2.25916c0,0.0718 -0.9255,0.2626 -2.77846,0.5734c-0.02459,-0.1013 -0.19474,-0.3285 -0.51143,-0.68158c-2.55716,0.49078 -3.93508,0.73568 -4.13277,0.73568l-1.36218,-3.68428l3.0027,-1.58741c0.48488,0.0777 1.24023,0.11704 2.26801,0.11704c0,-0.13179 0.01869,-0.52914 0.05409,-1.19203c-0.1731,0 -1.72117,0.11311 -4.64322,0.3403l-0.05409,-0.11704c0.4062,-1.88837 0.65109,-2.83255 0.73469,-2.83255zM285.93357,157.41483c0,0.06491 0.19179,0.7642 0.57438,2.09688h0.05311c0.75338,-0.4898 1.13007,-0.81239 1.13007,-0.96779l0.11606,-0.95894c-0.14359,0 -0.76813,-0.05704 -1.87362,-0.17015z" data-paper-data="{&quot;origPos&quot;:null}" fill="#2b70c2"/><path d="M292.35205,149.44533c1.82936,0.03541 3.17088,0.05311 4.02557,0.05311c0.0777,0 0.31374,3.66953 0.70814,11.0086c-0.30489,0.0777 -1.36907,0.27539 -3.19154,0.59208c-0.0895,0 -0.38554,-2.24735 -0.88714,-6.74108c-0.04229,-0.10819 -0.26063,-1.74576 -0.65503,-4.91271z" data-paper-data="{&quot;origPos&quot;:null}" fill="#2b70c2"/><path d="M299.45212,152.14315c3.54954,0.49078 5.3248,0.79174 5.3248,0.90583c1.39857,1.20088 2.09786,1.84313 2.09786,1.92673c-0.56749,1.77526 -0.89009,2.85419 -0.96779,3.23678c0.56749,1.26088 0.89009,2.01426 0.96779,2.25916c0,0.0718 -0.92648,0.2626 -2.77944,0.5734c-0.0236,-0.1013 -0.19375,-0.3285 -0.51045,-0.68158c-2.55815,0.49078 -3.93508,0.73568 -4.13277,0.73568l-1.36218,-3.68428l3.0027,-1.58741c0.48389,0.0777 1.24023,0.11704 2.26801,0.11704c0,-0.13179 0.0177,-0.52914 0.05409,-1.19203c-0.1731,0 -1.72117,0.11311 -4.64421,0.3403l-0.05311,-0.11704c0.4062,-1.88837 0.65109,-2.83255 0.73469,-2.83255zM301.31688,157.41483c0,0.06491 0.1908,0.7642 0.5734,2.09688h0.05409c0.75338,-0.4898 1.12909,-0.81239 1.12909,-0.96779l0.11704,-0.95894c-0.14359,0 -0.76813,-0.05704 -1.87362,-0.17015z" data-paper-data="{&quot;origPos&quot;:null}" fill="#2b70c2"/><path d="M314.10861,152.14315h0.03639c1.59528,0.93828 2.45586,1.42906 2.58175,1.47037v0.08065c-0.4121,0.47209 -1.17138,1.29137 -2.27686,2.45586c2.16966,0.80747 3.38824,1.29432 3.65773,1.46152l-2.02606,2.5011c-1.36907,-1.17138 -2.24145,-1.90312 -2.61814,-2.19621c-0.92648,1.80477 -1.50283,2.86599 -1.73002,3.18269h-0.03541c-1.71527,-0.60388 -2.64765,-0.96287 -2.79715,-1.07598v-0.04524l2.36636,-3.0922c-2.19916,-0.90878 -3.37644,-1.44086 -3.53184,-1.59626c0.96779,-1.64347 1.51168,-2.51881 1.63167,-2.62601c0.0177,0.04131 1.08188,0.77403 3.19154,2.19621c0.7465,-1.38087 1.26383,-2.28571 1.55004,-2.7165z" data-paper-data="{&quot;origPos&quot;:null}" fill="#2b70c2"/><path d="M323.04688,152.16084c0.0836,0.01279 0.12491,0.05409 0.12491,0.12589l-0.93238,5.16351c1.78116,-0.20949 2.67224,-0.37669 2.67224,-0.5016c0.3344,-2.06835 0.56454,-3.22793 0.68945,-3.47873c2.20605,0.45439 3.42758,0.72289 3.66658,0.80747c-1.28448,4.41603 -1.98967,6.71649 -2.11556,6.90238c-2.24735,1.57757 -3.51118,2.44996 -3.79149,2.61716c-0.0836,0 -1.51561,-0.3521 -4.29407,-1.05729v-0.06295c0.73469,-1.61987 1.19203,-2.42931 1.37103,-2.42931l2.7342,1.37103l1.30907,-2.24047c-1.17728,0.29211 -1.86181,0.43865 -2.05262,0.43865l-3.48758,-1.81067c0.42488,-3.89673 0.69339,-5.84509 0.80747,-5.84509z" data-paper-data="{&quot;origPos&quot;:null}" fill="#2b70c2"/><path d="M334.09089,149.76791l0.03541,0.0718c-0.597,5.27661 -0.93238,8.05015 -1.0032,8.31865c-1.26776,-0.11901 -2.06835,-0.20261 -2.40275,-0.2508v-0.03639l-0.57438,-7.49348c0.14359,-0.04819 1.45857,-0.25178 3.94492,-0.60979zM330.54134,158.33738c0.04131,0.02459 0.97369,0.09639 2.79616,0.21539l0.03639,0.0718c-0.28129,1.64937 -0.46029,2.47455 -0.53799,2.47455h-2.08016c-0.0718,0 -0.1672,-0.82518 -0.28621,-2.47455c-0.02459,0 -0.03639,-0.0718 -0.03639,-0.21539c0.0718,-0.0236 0.10819,-0.04721 0.10819,-0.0718z" data-paper-data="{&quot;origPos&quot;:null}" fill="#000000"/><path d="M339.58584,149.43649c2.47455,0.5193 3.71182,0.81829 3.71182,0.89599c-0.16228,2.95844 -0.32063,5.48905 -0.47603,7.59281c0.23998,0 1.13597,0.08065 2.68994,0.24195c0.597,-5.3012 0.93533,-7.95082 1.01303,-7.95082c2.19326,0.358 3.28989,0.57635 3.28989,0.65404c-0.67568,5.7251 -1.05532,8.63535 -1.13892,8.73173c-0.3344,0.2744 -0.89009,0.77305 -1.66707,1.49693c-3.54954,-0.10819 -5.3248,-0.22719 -5.3248,-0.35899l-2.21391,-2.5729v-3.17285c0,-1.22547 0.02065,-3.0568 0.06196,-5.49594c0.03639,0 0.05409,-0.02065 0.05409,-0.06196z" data-paper-data="{&quot;origPos&quot;:null}" fill="#000000"/><path d="M357.9276,152.14315c1.72117,1.09958 2.67125,1.73297 2.85026,1.90115c-0.62159,1.37989 -0.97762,2.07032 -1.06712,2.07032l-3.26235,-1.89132h-0.11704c0,0.06 -0.14064,0.39439 -0.42095,1.00418c3.00565,1.61888 4.50848,2.44996 4.50848,2.49225c-0.8419,1.94738 -1.31694,2.97615 -1.42513,3.08335l-5.10056,0.29604c-1.98377,-1.31497 -3.05089,-2.00836 -3.20039,-2.08016v-0.05409c0,-0.14851 0.29604,-0.82124 0.88714,-2.01623l3.98033,2.07032l0.29604,-1.18318c-2.46176,-1.10548 -3.92623,-1.79592 -4.39242,-2.07032v-0.12589c0,-0.22719 0.47504,-1.23432 1.42513,-3.02139z" data-paper-data="{&quot;origPos&quot;:null}" fill="#000000"/><path d="M366.74785,152.15199c2.70764,1.39267 4.20752,2.20605 4.50061,2.43914c-0.38849,1.81657 -0.61864,2.7519 -0.69043,2.80501h-5.6651v0.09934l1.58643,1.96312l2.49225,-1.27366c0.2449,0.42488 0.597,1.16548 1.05729,2.22375c-0.21539,0.0718 -1.78411,0.30194 -4.70617,0.69043c-2.42046,-1.59626 -3.63904,-2.42636 -3.65773,-2.49225c0.38849,-3.10204 0.61864,-4.65306 0.69043,-4.65306c2.52766,-1.07499 3.99213,-1.67593 4.39242,-1.80182zM366.1656,154.32163c-0.04819,0.11999 -0.36489,0.59503 -0.95009,1.42513c0,0.25178 0.3521,0.37669 1.05729,0.37669c0,0.03639 0.51143,0.12294 1.53332,0.25965c0.2803,-0.38849 0.42095,-0.6147 0.42095,-0.6806c-0.0895,-0.53209 -0.28326,-0.79764 -0.58225,-0.79764z" data-paper-data="{&quot;origPos&quot;:null}" fill="#000000"/><path d="M379.29861,149.43649l3.94394,0.69929l-0.37669,2.99385c0.78289,-0.04229 1.35726,-0.06295 1.72117,-0.06295h0.57438l0.12491,-0.06295l0.06295,0.12589c-0.12589,1.81657 -0.2331,2.83845 -0.3226,3.06565l-0.12589,-0.0718c-0.0895,0 -0.89599,-0.04131 -2.42046,-0.12491c-0.0836,1.40349 -0.14655,3.08335 -0.18785,5.03762l-0.12589,0.06295c-1.92377,-0.12589 -3.07155,-0.2331 -3.44234,-0.3226l0.06295,-0.25178c0,-0.5193 0.0836,-2.13327 0.2508,-4.83993c-1.61298,-0.09048 -2.42046,-0.19769 -2.42046,-0.32358c0.0836,-1.99557 0.19179,-2.99385 0.32358,-2.99385l2.35751,0.44849v-0.77108c0,-0.62749 -0.02459,-1.47627 -0.0718,-2.54635c0.04721,0 0.0718,-0.02065 0.0718,-0.06196z" data-paper-data="{&quot;origPos&quot;:null}" fill="#000000"/><path d="M390.31508,149.43649c0.03639,0.05311 0.20359,1.69068 0.50258,4.91172c2.30637,-0.70519 3.53479,-1.05729 3.68428,-1.05729l2.28571,1.55987c-0.37079,3.40595 -0.61274,5.3966 -0.72584,5.97l-3.17384,0.10819c0,-0.03639 -0.02065,-0.05409 -0.06196,-0.05409l0.06196,-0.22424c0,-0.48389 0.0718,-1.95426 0.21539,-4.41013c-0.87239,-0.03639 -1.52053,-0.05409 -1.94541,-0.05409h-0.22424c0.25768,2.73125 0.38554,4.21932 0.38554,4.46422l-3.01155,0.44849c-0.11409,-0.38259 -0.78289,-3.95377 -2.00836,-10.71255c0,-0.19179 0.46619,-0.34128 1.39857,-0.44849c1.17728,-0.3344 2.04967,-0.5016 2.61716,-0.5016z" data-paper-data="{&quot;origPos&quot;:null}" fill="#000000"/><path d="M402.71339,152.15199c2.70764,1.39267 4.20752,2.20605 4.49963,2.43914c-0.38751,1.81657 -0.61765,2.7519 -0.68945,2.80501h-5.66609v0.09934l1.58741,1.96312l2.49127,-1.27366c0.24588,0.42488 0.59798,1.16548 1.05827,2.22375c-0.21539,0.0718 -1.78411,0.30194 -4.70617,0.69043c-2.42046,-1.59626 -3.64003,-2.42636 -3.65773,-2.49225c0.38849,-3.10204 0.61864,-4.65306 0.69043,-4.65306c2.52766,-1.07499 3.99213,-1.67593 4.39242,-1.80182zM402.13114,154.32163c-0.04819,0.11999 -0.36489,0.59503 -0.95107,1.42513c0,0.25178 0.35309,0.37669 1.05827,0.37669c0,0.03639 0.51045,0.12294 1.53233,0.25965c0.28129,-0.38849 0.42193,-0.6147 0.42193,-0.6806c-0.0895,-0.53209 -0.28424,-0.79764 -0.58323,-0.79764z" data-paper-data="{&quot;origPos&quot;:null}" fill="#000000"/><path d="M412.58306,149.44533c1.82936,0.03541 3.17088,0.05311 4.02557,0.05311c0.0777,0 0.31374,3.66953 0.70814,11.0086c-0.30489,0.0777 -1.36907,0.27539 -3.19154,0.59208c-0.0895,0 -0.38554,-2.24735 -0.88812,-6.74108c-0.04131,-0.10819 -0.25965,-1.74576 -0.65404,-4.91271z" data-paper-data="{&quot;origPos&quot;:null}" fill="#2b70c2"/><path d="M423.40282,152.15199c2.70764,1.39267 4.20752,2.20605 4.50061,2.43914c-0.38849,1.81657 -0.61864,2.7519 -0.69043,2.80501h-5.6651v0.09934l1.58643,1.96312l2.49225,-1.27366c0.2449,0.42488 0.59798,1.16548 1.05729,2.22375c-0.21441,0.0718 -1.78313,0.30194 -4.70617,0.69043c-2.42046,-1.59626 -3.63904,-2.42636 -3.65773,-2.49225c0.38849,-3.10204 0.61864,-4.65306 0.69043,-4.65306c2.52864,-1.07499 3.99213,-1.67593 4.39242,-1.80182zM422.82058,154.32163c-0.04819,0.11999 -0.36489,0.59503 -0.95009,1.42513c0,0.25178 0.3521,0.37669 1.05729,0.37669c0,0.03639 0.51143,0.12294 1.53332,0.25965c0.28129,-0.38849 0.42095,-0.6147 0.42095,-0.6806c-0.0895,-0.53209 -0.28326,-0.79764 -0.58225,-0.79764z" data-paper-data="{&quot;origPos&quot;:null}" fill="#2b70c2"/><path d="M432.4483,149.43649c0.3167,0.03541 1.47037,0.30194 3.46004,0.79764l0.05409,0.1072c-0.29309,1.63167 -0.46914,2.44799 -0.52914,2.44799h-0.05311l-1.44381,-0.74453c0,0.1672 -0.05409,0.91468 -0.1613,2.24145l1.97197,-0.48488c0.06,0.17999 0.11409,0.97762 0.1613,2.3939c-0.1908,0.0718 -0.84878,0.179 -1.97197,0.3226c0.2508,1.07598 0.51733,2.39095 0.79764,3.94492c-0.9196,0.20851 -2.02016,0.42095 -3.29874,0.63634l-0.05409,-0.10819c-0.1672,-2.76666 -0.30784,-4.15048 -0.42095,-4.15048c-1.15958,0.28129 -1.78116,0.43964 -1.86476,0.47504c-0.0718,-0.3462 -0.1967,-1.28743 -0.37669,-2.8237l0.10819,-0.05311h1.91787c-0.1072,-0.88517 -0.2685,-2.03786 -0.48389,-3.46102z" data-paper-data="{&quot;origPos&quot;:null}" fill="#2b70c2"/><path d="M439.46772,149.43649l3.94394,0.69929l-0.37669,2.99385c0.78289,-0.04229 1.35726,-0.06295 1.72117,-0.06295h0.57438l0.12491,-0.06295l0.06295,0.12589c-0.12491,1.81657 -0.2331,2.83845 -0.3226,3.06565l-0.12589,-0.0718c-0.0895,0 -0.89599,-0.04131 -2.42046,-0.12491c-0.0836,1.40349 -0.14556,3.08335 -0.18785,5.03762l-0.12589,0.06295c-1.92377,-0.12589 -3.07155,-0.2331 -3.44234,-0.3226l0.06295,-0.25178c0,-0.5193 0.0836,-2.13327 0.2508,-4.83993c-1.61298,-0.09048 -2.41947,-0.19769 -2.41947,-0.32358c0.0836,-1.99557 0.1908,-2.99385 0.3226,-2.99385l2.35751,0.44849v-0.77108c0,-0.62749 -0.02459,-1.47627 -0.0718,-2.54635c0.04721,0 0.0718,-0.02065 0.0718,-0.06196z" data-paper-data="{&quot;origPos&quot;:null}" fill="#2b70c2"/><path d="M32.42017,175.09272c3.54954,0.4898 5.3248,0.79174 5.3248,0.90484c1.39857,1.20187 2.09786,1.84411 2.09786,1.92771c-0.56749,1.77428 -0.89107,2.85321 -0.96877,3.2358c0.56848,1.26088 0.89107,2.01426 0.96877,2.25916c0,0.0718 -0.92648,0.2626 -2.77944,0.5734c-0.0236,-0.1013 -0.19375,-0.3285 -0.51045,-0.6806c-2.55815,0.4898 -3.93607,0.73469 -4.13277,0.73469l-1.36317,-3.68428l3.00369,-1.58643c0.48389,0.0777 1.24023,0.11606 2.26801,0.11606c0,-0.13179 0.0177,-0.52914 0.05409,-1.19203c-0.17408,0 -1.72117,0.11311 -4.64421,0.3403l-0.05311,-0.11606c0.4062,-1.88837 0.65109,-2.83255 0.73469,-2.83255zM34.28493,180.36343c0,0.0659 0.1908,0.76518 0.5734,2.09786h0.05409c0.7524,-0.4898 1.12909,-0.81338 1.12909,-0.96877l0.11704,-0.95894c-0.14359,0 -0.76813,-0.05704 -1.87362,-0.17015z" data-paper-data="{&quot;origPos&quot;:null}" fill="#000000"/><path d="M48.66406,175.09272l2.985,2.05262c-0.20949,3.40595 -0.35604,5.3966 -0.43964,5.97c-0.3462,0.04229 -1.40152,0.10425 -3.164,0.18884l-0.06295,-0.12589l-0.31374,-4.78682l-0.12589,-0.06295c-1.14089,0.2449 -1.92673,0.4298 -2.35751,0.55569c0.11999,2.03786 0.179,3.51118 0.179,4.41996c-1.78018,0.4957 -2.75485,0.74354 -2.92205,0.74354c-1.15958,-5.10351 -1.73887,-7.79935 -1.73887,-8.08556c2.52176,-0.32948 3.89082,-0.49373 4.10523,-0.49373v0.06295c0.04229,0.03049 0.10524,0.65208 0.18884,1.86476c2.31227,-1.53627 3.53479,-2.30342 3.66658,-2.30342z" data-paper-data="{&quot;origPos&quot;:null}" fill="#000000"/><path d="M57.95936,172.37621h0.05409c2.70174,0.22719 4.05212,0.40325 4.05212,0.52914l1.19203,10.55027c0,0.0777 -1.19203,0.27539 -3.57708,0.59208l-0.05311,-0.11606v-0.95992c-2.05655,0.55569 -3.46693,0.91468 -4.23112,1.07598c-1.81755,-2.56995 -2.77059,-3.93803 -2.86009,-4.10523c1.33858,-2.43324 2.05262,-3.66363 2.14212,-3.69412l3.75608,0.17999c-0.0777,-0.46029 -0.23605,-1.81067 -0.47504,-4.05212zM56.29228,178.80355c0.60388,1.84706 0.98057,2.86009 1.12909,3.03909l1.78411,-1.55102c-0.1849,-1.07008 -0.3226,-1.60413 -0.4121,-1.60413h-2.38406c-0.0777,0.0118 -0.11704,0.05016 -0.11704,0.11606z" data-paper-data="{&quot;origPos&quot;:null}" fill="#000000"/><path d="M75.1799,175.09272c1.18416,0.6629 1.91001,1.09368 2.17851,1.29038c-0.96779,2.01426 -1.48807,3.03909 -1.55987,3.0745h-0.06196l-1.28252,-1.12023l-1.51463,1.84706l0.17015,3.36169c-0.0777,0.0718 -1.06712,0.239 -2.96729,0.5016c-0.0718,-0.51438 -0.53799,-3.03319 -1.39857,-7.55741c0,-0.07081 1.24908,-0.2567 3.74723,-0.55569c0.04229,0.04819 0.1554,0.60683 0.3403,1.67691c1.49496,-1.67986 2.27784,-2.51881 2.34866,-2.51881z" data-paper-data="{&quot;origPos&quot;:null}" fill="#2b70c2"/><path d="M79.30382,171.49792l3.52299,0.55569c-0.4416,1.69068 -0.73174,2.53651 -0.86944,2.53651c-1.85296,-0.12491 -2.77846,-0.24785 -2.77846,-0.36784v-2.59946c0.0177,-0.0836 0.05901,-0.12491 0.12491,-0.12491zM78.31833,175.76447h0.05311c2.72535,0.49668 4.08851,0.78584 4.08851,0.86944c-0.78387,4.43471 -1.25891,6.90631 -1.42611,7.41381h-2.8414c-0.0836,0 -0.12589,-0.04131 -0.12589,-0.12589z" data-paper-data="{&quot;origPos&quot;:null}" fill="#2b70c2"/><path d="M89.80983,175.11926c2.54045,0.0659 3.81018,0.17605 3.81018,0.33145c0.43669,6.61617 0.65503,10.13621 0.65503,10.56011c-1.92476,1.22547 -3.30268,2.05557 -4.13277,2.49225c-2.92894,-0.92058 -4.39242,-1.44578 -4.39242,-1.57757c0.94418,-1.38087 1.49102,-2.08016 1.64052,-2.09786c1.59528,0.78879 2.51291,1.18318 2.7519,1.18318l0.85173,-1.12023c-0.22719,-0.92648 -0.37964,-1.47332 -0.45734,-1.64052c-0.13179,0 -1.75166,0.2626 -4.85861,0.78879c-1.70347,-2.76666 -2.5552,-4.18687 -2.5552,-4.25768c1.47037,-2.34964 2.36636,-3.72658 2.68896,-4.13277h0.06295c0.1731,0 1.46447,0.28326 3.87312,0.85173v-0.19769c0,-0.2331 -0.02164,-0.60683 -0.06295,-1.12023zM86.87008,178.98255c0.0836,0.18589 0.3462,1.17138 0.78879,2.95844c0.55569,-0.179 1.40742,-0.5075 2.5552,-0.98549c-0.22129,-1.07598 -0.33243,-1.68871 -0.33243,-1.83821l-0.3226,-0.06295h-0.39439c-0.5016,0 -1.26678,-0.0236 -2.29456,-0.0718z" data-paper-data="{&quot;origPos&quot;:null}" fill="#2b70c2"/><path d="M99.25856,172.38506c0.03639,0.05409 0.20359,1.69166 0.50258,4.91271c2.30637,-0.70519 3.53479,-1.05827 3.68428,-1.05827l2.28571,1.55987c-0.37079,3.40693 -0.61274,5.3966 -0.72584,5.97l-3.17384,0.10819c0,-0.03639 -0.02065,-0.05409 -0.06295,-0.05409l0.06295,-0.22424c0,-0.48389 0.0718,-1.95426 0.21539,-4.41013c-0.87239,-0.03639 -1.52151,-0.05409 -1.94541,-0.05409h-0.22424c0.2567,2.73125 0.38554,4.21932 0.38554,4.46422l-3.01155,0.44849c-0.11409,-0.38259 -0.78289,-3.95279 -2.00836,-10.71255c0,-0.1908 0.46619,-0.3403 1.39857,-0.44849c1.17728,-0.3344 2.04967,-0.5016 2.61716,-0.5016z" data-paper-data="{&quot;origPos&quot;:null}" fill="#2b70c2"/><path d="M109.25412,172.38506l3.94394,0.69929l-0.37571,2.99385c0.78289,-0.04131 1.35628,-0.06295 1.72117,-0.06295h0.5734l0.12589,-0.06196l0.06196,0.12491c-0.12491,1.81657 -0.2331,2.83845 -0.3226,3.06565l-0.12491,-0.0718c-0.09048,0 -0.89697,-0.04131 -2.42046,-0.12491c-0.0836,1.40447 -0.14655,3.08335 -0.18884,5.03762l-0.12491,0.06295c-1.92476,-0.12589 -3.07253,-0.2331 -3.44234,-0.3226l0.06196,-0.2508c0,-0.52028 0.08458,-2.13425 0.25178,-4.84091c-1.61396,-0.0895 -2.42046,-0.19769 -2.42046,-0.3226c0.0836,-1.99656 0.1908,-2.99483 0.3226,-2.99483l2.35751,0.44849v-0.77108c0,-0.62749 -0.0236,-1.47627 -0.0718,-2.54536c0.04819,0 0.0718,-0.02065 0.0718,-0.06295z" data-paper-data="{&quot;origPos&quot;:null}" fill="#2b70c2"/><path d="M122.17174,175.09272c3.54954,0.4898 5.3248,0.79174 5.3248,0.90484c1.39857,1.20187 2.09786,1.84411 2.09786,1.92771c-0.56749,1.77428 -0.89009,2.85321 -0.96779,3.2358c0.56749,1.26088 0.89009,2.01426 0.96779,2.25916c0,0.0718 -0.92648,0.2626 -2.77944,0.5734c-0.0236,-0.1013 -0.19375,-0.3285 -0.51045,-0.6806c-2.55815,0.4898 -3.93508,0.73469 -4.13277,0.73469l-1.36218,-3.68428l3.0027,-1.58643c0.48389,0.0777 1.24023,0.11606 2.26801,0.11606c0,-0.13179 0.0177,-0.52914 0.05409,-1.19203c-0.1731,0 -1.72117,0.11311 -4.64421,0.3403l-0.05311,-0.11606c0.4062,-1.88837 0.65109,-2.83255 0.73469,-2.83255zM124.0365,180.36343c0,0.0659 0.1908,0.76518 0.5734,2.09786h0.05409c0.75338,-0.4898 1.12909,-0.81338 1.12909,-0.96877l0.11704,-0.95894c-0.14359,0 -0.76813,-0.05704 -1.87362,-0.17015z" data-paper-data="{&quot;origPos&quot;:null}" fill="#2b70c2"/><path d="M136.89117,175.09272c1.18318,0.6629 1.91001,1.09368 2.17851,1.29038c-0.96779,2.01426 -1.48807,3.03909 -1.55987,3.0745h-0.06295l-1.28153,-1.12023l-1.51463,1.84706l0.17015,3.36169c-0.0777,0.0718 -1.06712,0.239 -2.96729,0.5016c-0.0718,-0.51438 -0.53799,-3.03319 -1.39857,-7.55741c0,-0.07081 1.24908,-0.2567 3.74723,-0.55569c0.04131,0.04819 0.1554,0.60683 0.3403,1.67691c1.49397,-1.67986 2.27686,-2.51881 2.34866,-2.51881z" data-paper-data="{&quot;origPos&quot;:null}" fill="#2b70c2"/><path d="M146.21401,175.09272c1.18416,0.6629 1.91001,1.09368 2.17851,1.29038c-0.96779,2.01426 -1.48807,3.03909 -1.55987,3.0745h-0.06196l-1.28252,-1.12023l-1.51463,1.84706l0.17015,3.36169c-0.0777,0.0718 -1.06712,0.239 -2.96729,0.5016c-0.0718,-0.51438 -0.53799,-3.03319 -1.39857,-7.55741c0,-0.07081 1.24908,-0.2567 3.74723,-0.55569c0.04229,0.04819 0.1554,0.60683 0.3403,1.67691c1.49397,-1.67986 2.27784,-2.51881 2.34866,-2.51881z" data-paper-data="{&quot;origPos&quot;:null}" fill="#2b70c2"/><path d="M152.71314,175.10156c2.27194,0.6088 3.47578,0.97959 3.61347,1.11138c1.24908,1.76936 1.95131,2.78829 2.10671,3.0568c-0.80747,2.55815 -1.27071,3.83673 -1.38972,3.83673c-2.68994,0.62749 -4.09737,0.94123 -4.22227,0.94123c-2.22375,-1.29727 -3.40693,-2.02016 -3.55053,-2.16966c-0.0777,-2.41455 -0.11606,-3.74723 -0.11606,-3.99803c-0.03541,-0.0718 -0.05409,-0.12491 -0.05409,-0.1613c2.29555,-1.74477 3.48168,-2.61716 3.55938,-2.61716zM152.48988,178.3826c-0.03639,0.239 -0.09048,1.10843 -0.1613,2.60831l1.99852,0.44849c0.47799,-1.49397 0.71699,-2.2926 0.71699,-2.3939c-1.58938,-0.47799 -2.44111,-0.71699 -2.55421,-0.71699z" data-paper-data="{&quot;origPos&quot;:null}" fill="#2b70c2"/><path d="M163.18375,175.09272c0.0777,0.1013 0.48094,1.83427 1.21072,5.19891h0.06295c0,-0.0777 0.4416,-0.76223 1.32678,-2.05262c0.36981,0.2508 1.07499,0.79469 2.11556,1.63167h0.12491v-0.06295c0.1613,-2.33095 0.28129,-3.62134 0.35899,-3.87312c2.46176,0.12589 3.69314,0.22719 3.69314,0.30489c-1.12909,4.54192 -1.73297,6.90238 -1.81067,7.08236c-0.37669,0.04131 -1.16548,0.1613 -2.36636,0.358c-0.98648,-1.54708 -1.55102,-2.37226 -1.69461,-2.47357c-0.64519,1.72117 -1.04844,2.6683 -1.21072,2.8414h-2.41947c-0.1495,-0.04819 -0.85468,-1.60118 -2.11655,-4.66191c-0.80649,-1.70838 -1.20974,-2.63486 -1.20974,-2.77846c0,-0.13179 1.31202,-0.63634 3.93508,-1.51463z" data-paper-data="{&quot;origPos&quot;:null}" fill="#2b70c2"/><path d="M181.56091,172.38506c0.0836,0.239 0.27244,1.93361 0.56454,5.08286l2.68994,-3.01254h0.06295c0.418,0.34718 1.19203,1.07893 2.32112,2.19719v0.06196l-2.5729,2.12441c1.93656,1.29727 2.96139,2.02901 3.07548,2.19719c-1.21957,1.35628 -1.95131,2.13032 -2.19621,2.32112l-3.12859,-2.88665c0.12491,1.29137 0.18785,2.25326 0.18785,2.88665c-0.1495,0.0836 -1.25793,0.31374 -3.3253,0.69043c-0.16818,-0.83698 -0.71207,-4.43176 -1.63167,-10.78435c0.38259,-0.12491 1.69953,-0.418 3.95279,-0.87829z" data-paper-data="{&quot;origPos&quot;:null}" fill="#2b70c2"/><path d="M193.55598,175.10156c2.70666,1.39169 4.20654,2.20506 4.49963,2.43816c-0.38849,1.81657 -0.61864,2.7519 -0.69043,2.806h-5.6651v0.09835l1.58643,1.96312l2.49225,-1.27268c0.2449,0.4239 0.59798,1.16548 1.05729,2.22277c-0.21441,0.0718 -1.78313,0.30194 -4.70617,0.69043c-2.42046,-1.59528 -3.63904,-2.42636 -3.65675,-2.49225c0.38849,-3.10105 0.61765,-4.65207 0.68945,-4.65207c2.52864,-1.07598 3.99213,-1.67691 4.39341,-1.80182zM192.97275,177.27023c-0.04819,0.11999 -0.36489,0.59503 -0.95009,1.42611c0,0.2508 0.3521,0.37571 1.05729,0.37571c0,0.03639 0.51143,0.12294 1.53332,0.26063c0.28129,-0.38849 0.42095,-0.61569 0.42095,-0.68158c-0.0895,-0.53209 -0.28326,-0.79764 -0.58225,-0.79764z" data-paper-data="{&quot;origPos&quot;:null}" fill="#2b70c2"/><path d="M202.99487,175.11041c0.0836,0.0118 0.12589,0.05409 0.12589,0.12491l-0.93238,5.16351c1.78116,-0.20851 2.67125,-0.37571 2.67125,-0.5016c0.3344,-2.06737 0.56454,-3.22695 0.69043,-3.47774c2.20506,0.45341 3.42758,0.72289 3.66658,0.80649c-1.28547,4.41603 -1.99065,6.71748 -2.11556,6.90238c-2.24735,1.57757 -3.51118,2.44996 -3.79247,2.61814c-0.0836,0 -1.51463,-0.35309 -4.29407,-1.05827v-0.06295c0.73568,-1.61888 1.19302,-2.42931 1.37202,-2.42931l2.7342,1.37202l1.30907,-2.24145c-1.17826,0.29309 -1.86181,0.43964 -2.0536,0.43964l-3.4866,-1.81067c0.4239,-3.89673 0.69339,-5.84509 0.80649,-5.84509z" data-paper-data="{&quot;origPos&quot;:null}" fill="#2b70c2"/><path d="M217.32877,175.09272c1.72117,1.09958 2.67224,1.73297 2.85124,1.90017c-0.62159,1.38087 -0.97762,2.07032 -1.06712,2.07032l-3.26334,-1.89132h-0.11606c0,0.06 -0.14064,0.39439 -0.42095,1.00418c3.00565,1.61987 4.50848,2.44996 4.50848,2.49225c-0.84288,1.94836 -1.31792,2.97615 -1.42513,3.08335l-5.10056,0.29604c-1.98475,-1.31497 -3.05089,-2.00836 -3.20039,-2.08016v-0.05311c0,-0.1495 0.29604,-0.82223 0.88714,-2.01721l3.98033,2.07032l0.29604,-1.18318c-2.46275,-1.10548 -3.92623,-1.79592 -4.39242,-2.07032v-0.12589c0,-0.22719 0.47504,-1.23432 1.42513,-3.02041z" data-paper-data="{&quot;origPos&quot;:null}" fill="#2b70c2"/><path d="M229.23434,175.10156c2.27096,0.6088 3.47479,0.97959 3.61249,1.11138c1.24908,1.76936 1.95131,2.78829 2.10671,3.0568c-0.80747,2.55815 -1.27071,3.83673 -1.38972,3.83673c-2.68896,0.62749 -4.09638,0.94123 -4.22227,0.94123c-2.22277,-1.29727 -3.40693,-2.02016 -3.54954,-2.16966c-0.0777,-2.41455 -0.11704,-3.74723 -0.11704,-3.99803c-0.03541,-0.0718 -0.05409,-0.12491 -0.05409,-0.1613c2.29555,-1.74477 3.48168,-2.61716 3.55938,-2.61716zM229.01009,178.3826c-0.03639,0.239 -0.0895,1.10843 -0.1613,2.60831l1.99852,0.44849c0.47799,-1.49397 0.71699,-2.2926 0.71699,-2.3939c-1.58938,-0.47799 -2.44111,-0.71699 -2.55421,-0.71699z" data-paper-data="{&quot;origPos&quot;:null}" fill="#000000"/><path d="M242.20506,175.09272c1.18318,0.6629 1.91001,1.09368 2.17851,1.29038c-0.96779,2.01426 -1.48807,3.03909 -1.55987,3.0745h-0.06295l-1.28153,-1.12023l-1.51463,1.84706l0.17015,3.36169c-0.0777,0.0718 -1.06712,0.239 -2.96729,0.5016c-0.0718,-0.51438 -0.53799,-3.03319 -1.39857,-7.55741c0,-0.07081 1.24908,-0.2567 3.74723,-0.55569c0.04229,0.04819 0.1554,0.60683 0.3403,1.67691c1.49397,-1.67986 2.27686,-2.51881 2.34866,-2.51881z" data-paper-data="{&quot;origPos&quot;:null}" fill="#000000"/><path d="M253.13301,172.42047c3.31645,0.47898 5.1458,0.75928 5.4861,0.84288c0,0.04819 1.14187,3.46988 3.42463,10.26407c-0.239,0.09048 -1.61692,0.26358 -4.13277,0.52028c-0.1731,-0.5852 -0.36784,-1.49102 -0.58225,-2.7165c-2.15195,0.19769 -3.22793,0.37079 -3.22793,0.52028l-0.58225,2.07032h-0.06295c-2.53946,-0.46619 -3.81018,-0.7465 -3.81018,-0.8419c2.02606,-6.33488 3.18859,-9.88836 3.48758,-10.65944zM254.87188,178.62455h1.94541l-0.71699,-2.84239c-0.55569,0 -0.83403,0.10819 -0.83403,0.32358c-0.0895,0.4357 -0.22129,1.27563 -0.39439,2.51881z" data-paper-data="{&quot;origPos&quot;:null}" fill="#2b70c2"/><path d="M268.90187,175.09272c3.54954,0.4898 5.3248,0.79174 5.3248,0.90484c1.39857,1.20187 2.09688,1.84411 2.09688,1.92771c-0.56749,1.77428 -0.89009,2.85321 -0.96779,3.2358c0.56749,1.26088 0.89009,2.01426 0.96779,2.25916c0,0.0718 -0.9255,0.2626 -2.77846,0.5734c-0.0236,-0.1013 -0.19474,-0.3285 -0.51143,-0.6806c-2.55716,0.4898 -3.93508,0.73469 -4.13179,0.73469l-1.36317,-3.68428l3.00369,-1.58643c0.48389,0.0777 1.23924,0.11606 2.26801,0.11606c0,-0.13179 0.0177,-0.52914 0.05311,-1.19203c-0.1731,0 -1.72117,0.11311 -4.64322,0.3403l-0.05409,-0.11606c0.4062,-1.88837 0.65208,-2.83255 0.73568,-2.83255zM270.76565,180.36343c0,0.0659 0.19179,0.76518 0.57438,2.09786h0.05311c0.75338,-0.4898 1.13007,-0.81338 1.13007,-0.96877l0.11606,-0.95894c-0.14261,0 -0.76715,-0.05704 -1.87362,-0.17015z" data-paper-data="{&quot;origPos&quot;:null}" fill="#000000"/><path d="M285.14478,175.09272l2.985,2.05262c-0.20851,3.40595 -0.35505,5.3966 -0.43865,5.97c-0.34718,0.04229 -1.40152,0.10425 -3.16498,0.18884l-0.06196,-0.12589l-0.31473,-4.78682l-0.12491,-0.06295c-1.14187,0.2449 -1.92771,0.4298 -2.35751,0.55569c0.11901,2.03786 0.179,3.51118 0.179,4.41996c-1.78116,0.4957 -2.75485,0.74354 -2.92205,0.74354c-1.15958,-5.10351 -1.73986,-7.79935 -1.73986,-8.08556c2.52274,-0.32948 3.89082,-0.49373 4.10622,-0.49373v0.06295c0.04131,0.03049 0.10425,0.65208 0.18785,1.86476c2.31325,-1.53627 3.53577,-2.30342 3.66658,-2.30342z" data-paper-data="{&quot;origPos&quot;:null}" fill="#000000"/><path d="M294.44106,172.37621h0.05409c2.70076,0.22719 4.05212,0.40325 4.05212,0.52914l1.19203,10.55027c0,0.0777 -1.19203,0.27539 -3.57708,0.59208l-0.05409,-0.11606v-0.95992c-2.05557,0.55569 -3.46594,0.91468 -4.23112,1.07598c-1.81657,-2.56995 -2.76961,-3.93803 -2.85911,-4.10523c1.33858,-2.43324 2.05262,-3.66363 2.14212,-3.69412l3.75608,0.17999c-0.0777,-0.46029 -0.23605,-1.81067 -0.47504,-4.05212zM292.77398,178.80355c0.6029,1.84706 0.97959,2.86009 1.12909,3.03909l1.78411,-1.55102c-0.1849,-1.07008 -0.3226,-1.60413 -0.4121,-1.60413h-2.38505c-0.0777,0.0118 -0.11606,0.05016 -0.11606,0.11606z" data-paper-data="{&quot;origPos&quot;:null}" fill="#000000"/><path d="M310.94461,172.38506c3.38824,1.92476 5.19891,2.96139 5.43201,3.11089c-0.20261,3.16695 -0.35505,4.88517 -0.45636,5.15465c-1.93656,1.96017 -2.93484,2.93976 -2.99483,2.93976l-6.11359,0.45734c-0.0777,-0.2626 -0.60683,-3.69609 -1.58643,-10.30046c0.5734,-0.1908 2.48045,-0.64519 5.7192,-1.36218zM309.47424,175.83625v0.06295l0.44849,5.31595c1.66117,-0.39439 2.49225,-0.63929 2.49225,-0.73568c0,-0.14261 0.18785,-1.25498 0.56454,-3.33415c-2.26506,-0.87239 -3.43349,-1.30907 -3.50528,-1.30907z" data-paper-data="{&quot;origPos&quot;:null}" fill="#2b70c2"/><path d="M324.57922,172.38506l3.94492,0.69929l-0.37669,2.99385c0.78289,-0.04131 1.35628,-0.06295 1.72117,-0.06295h0.5734l0.12589,-0.06196l0.06295,0.12491c-0.12589,1.81657 -0.2331,2.83845 -0.32358,3.06565l-0.12491,-0.0718c-0.0895,0 -0.89697,-0.04131 -2.42046,-0.12491c-0.0836,1.40447 -0.14655,3.08335 -0.18785,5.03762l-0.12589,0.06295c-1.92476,-0.12589 -3.07155,-0.2331 -3.44234,-0.3226l0.06295,-0.2508c0,-0.52028 0.0836,-2.13425 0.2508,-4.84091c-1.61396,-0.0895 -2.42046,-0.19769 -2.42046,-0.3226c0.0836,-1.99656 0.1908,-2.99483 0.3226,-2.99483l2.35751,0.44849v-0.77108c0,-0.62749 -0.0236,-1.47627 -0.0718,-2.54536c0.04819,0 0.0718,-0.02065 0.0718,-0.06295z" data-paper-data="{&quot;origPos&quot;:null}" fill="#000000"/><path d="M335.19342,175.10156c2.27096,0.6088 3.47479,0.97959 3.61249,1.11138c1.24908,1.76936 1.95131,2.78829 2.10671,3.0568c-0.80649,2.55815 -1.26973,3.83673 -1.38972,3.83673c-2.68896,0.62749 -4.09638,0.94123 -4.22227,0.94123c-2.22277,-1.29727 -3.40595,-2.02016 -3.54954,-2.16966c-0.0777,-2.41455 -0.11704,-3.74723 -0.11704,-3.99803c-0.03541,-0.0718 -0.05311,-0.12491 -0.05311,-0.1613c2.29456,-1.74477 3.48069,-2.61716 3.55839,-2.61716zM334.96917,178.3826c-0.03541,0.239 -0.0895,1.10843 -0.1613,2.60831l1.99951,0.44849c0.47799,-1.49397 0.71699,-2.2926 0.71699,-2.3939c-1.59036,-0.47799 -2.44111,-0.71699 -2.5552,-0.71699z" data-paper-data="{&quot;origPos&quot;:null}" fill="#000000"/><path d="M356.24184,175.09272c1.45857,0.6029 2.7165,1.17138 3.77379,1.70248c-0.2744,3.55643 -0.45144,5.50184 -0.52914,5.83624c-1.75658,0.43669 -2.7401,0.65404 -2.94861,0.65404c0,-0.77698 -0.06,-2.30932 -0.17999,-4.59798c-0.6629,0.06491 -0.99434,0.12196 -0.99434,0.17015c0,0.22719 0.03836,1.52348 0.11606,3.88984c0.03639,0 0.05409,0.02164 0.05409,0.06295c0,0.0718 -0.92353,0.26949 -2.76961,0.59208c-0.0777,-0.0954 -0.31374,-1.55102 -0.70912,-4.36587c-0.7465,0.1908 -1.12023,0.3285 -1.12023,0.4121l0.35899,3.65773c-0.0718,0.0777 -1.05532,0.39144 -2.94959,0.94123c-1.09958,-3.89082 -1.78706,-6.50208 -2.06147,-7.83476c2.07327,-0.51438 3.23285,-0.77108 3.47774,-0.77108c0.27539,1.08778 0.4121,1.71527 0.4121,1.88247h0.06295c1.01008,-0.93238 1.71527,-1.55987 2.11556,-1.88247h0.06295l1.88247,1.35333h0.06295c1.17728,-1.13499 1.80477,-1.70248 1.88247,-1.70248z" data-paper-data="{&quot;origPos&quot;:null}" fill="#000000"/><path d="M364.52508,175.10156c2.27096,0.6088 3.47479,0.97959 3.61249,1.11138c1.24908,1.76936 1.95131,2.78829 2.10671,3.0568c-0.80649,2.55815 -1.26973,3.83673 -1.38972,3.83673c-2.68896,0.62749 -4.09638,0.94123 -4.22227,0.94123c-2.22277,-1.29727 -3.40595,-2.02016 -3.54954,-2.16966c-0.0777,-2.41455 -0.11704,-3.74723 -0.11704,-3.99803c-0.03541,-0.0718 -0.05311,-0.12491 -0.05311,-0.1613c2.29456,-1.74477 3.48069,-2.61716 3.55839,-2.61716zM364.30084,178.3826c-0.03541,0.239 -0.0895,1.10843 -0.1613,2.60831l1.99852,0.44849c0.47898,-1.49397 0.71797,-2.2926 0.71797,-2.3939c-1.59036,-0.47799 -2.44209,-0.71699 -2.5552,-0.71699z" data-paper-data="{&quot;origPos&quot;:null}" fill="#000000"/><path d="M374.5472,175.09272c1.46447,3.35874 2.2444,5.10056 2.33981,5.22547c0.72289,-2.74305 1.14384,-4.20359 1.26383,-4.38357c2.28276,0.20949 3.42463,0.38849 3.42463,0.53799v0.06295c-1.60216,4.39832 -2.46275,6.70272 -2.58175,6.91123c-1.76936,0.3226 -2.95254,0.52324 -3.55053,0.60093l-4.38357,-6.49028v-0.12589c0.04229,-0.0777 1.20482,-0.85665 3.48758,-2.33882z" data-paper-data="{&quot;origPos&quot;:null}" fill="#000000"/><path d="M387.61727,175.10156c2.70764,1.39169 4.20752,2.20506 4.50061,2.43816c-0.38849,1.81657 -0.61864,2.7519 -0.69043,2.806h-5.66609v0.09835l1.58741,1.96312l2.49127,-1.27268c0.24588,0.4239 0.59798,1.16548 1.05827,2.22277c-0.21539,0.0718 -1.78411,0.30194 -4.70617,0.69043c-2.42046,-1.59528 -3.64003,-2.42636 -3.65773,-2.49225c0.38849,-3.10105 0.61864,-4.65207 0.69043,-4.65207c2.52766,-1.07598 3.99213,-1.67691 4.39242,-1.80182zM387.03502,177.27023c-0.04819,0.11999 -0.36489,0.59503 -0.95107,1.42611c0,0.2508 0.35309,0.37571 1.05827,0.37571c0,0.03639 0.51045,0.12294 1.53332,0.26063c0.2803,-0.38849 0.42095,-0.61569 0.42095,-0.68158c-0.0895,-0.53209 -0.28424,-0.79764 -0.58323,-0.79764z" data-paper-data="{&quot;origPos&quot;:null}" fill="#000000"/><path d="M401.48497,172.37621c1.69166,0.11901 2.53749,0.22719 2.53749,0.3226c0.65109,1.75067 1.04844,2.86894 1.19203,3.35284h0.05409c0.1554,-0.3344 0.74945,-1.25498 1.78313,-2.76075h0.05409c1.61987,0.1013 2.42931,0.21146 2.42931,0.33145l1.46152,9.99556c0,0.05901 -1.27858,0.20261 -3.83673,0.4298l-0.05409,-0.1072c-0.14359,-3.03614 -0.21539,-4.89205 -0.21539,-5.56675h-0.05311l-2.2149,1.94443h-0.05311c-0.0718,-0.03541 -0.57733,-0.82714 -1.51561,-2.37521h-0.05311c-1.15367,3.35874 -1.78411,5.14285 -1.8923,5.35136h-0.1072c-2.06147,-0.9314 -3.23285,-1.49102 -3.51413,-1.67593v-0.05409c2.55815,-6.01229 3.89082,-9.07499 3.99803,-9.18809z" data-paper-data="{&quot;origPos&quot;:null}" fill="#000000"/><path d="M413.19285,175.09272c3.54954,0.4898 5.3248,0.79174 5.3248,0.90484c1.39857,1.20187 2.09786,1.84411 2.09786,1.92771c-0.56749,1.77428 -0.89107,2.85321 -0.96877,3.2358c0.56848,1.26088 0.89107,2.01426 0.96877,2.25916c0,0.0718 -0.92648,0.2626 -2.77944,0.5734c-0.0236,-0.1013 -0.19375,-0.3285 -0.51045,-0.6806c-2.55815,0.4898 -3.93607,0.73469 -4.13277,0.73469l-1.36218,-3.68428l3.0027,-1.58643c0.48389,0.0777 1.24023,0.11606 2.26801,0.11606c0,-0.13179 0.0177,-0.52914 0.05409,-1.19203c-0.17408,0 -1.72117,0.11311 -4.64421,0.3403l-0.05311,-0.11606c0.4062,-1.88837 0.65109,-2.83255 0.73469,-2.83255zM415.05761,180.36343c0,0.0659 0.1908,0.76518 0.5734,2.09786h0.05409c0.7524,-0.4898 1.12909,-0.81338 1.12909,-0.96877l0.11704,-0.95894c-0.14359,0 -0.76813,-0.05704 -1.87362,-0.17015z" data-paper-data="{&quot;origPos&quot;:null}" fill="#000000"/><path d="M427.91229,175.09272c1.18318,0.6629 1.90902,1.09368 2.17851,1.29038c-0.96779,2.01426 -1.48807,3.03909 -1.55987,3.0745h-0.06295l-1.28153,-1.12023l-1.51561,1.84706l0.17113,3.36169c-0.0777,0.0718 -1.06712,0.239 -2.96729,0.5016c-0.0718,-0.51438 -0.53799,-3.03319 -1.39857,-7.55741c0,-0.07081 1.24908,-0.2567 3.74723,-0.55569c0.04131,0.04819 0.1554,0.60683 0.3403,1.67691c1.49397,-1.67986 2.27686,-2.51881 2.34866,-2.51881z" data-paper-data="{&quot;origPos&quot;:null}" fill="#000000"/><path d="M432.03621,171.49792l3.52299,0.55569c-0.44259,1.69068 -0.73273,2.53651 -0.86944,2.53651c-1.85296,-0.12491 -2.77944,-0.24785 -2.77944,-0.36784v-2.59946c0.0177,-0.0836 0.06,-0.12491 0.12589,-0.12491zM431.04973,175.76447h0.05409c2.72535,0.49668 4.08753,0.78584 4.08753,0.86944c-0.78289,4.43471 -1.25793,6.90631 -1.42513,7.41381h-2.8414c-0.08458,0 -0.12589,-0.04131 -0.12589,-0.12589z" data-paper-data="{&quot;origPos&quot;:null}" fill="#000000"/><path d="M439.46772,175.10156c2.27096,0.6088 3.47479,0.97959 3.61249,1.11138c1.24908,1.76936 1.95131,2.78829 2.10671,3.0568c-0.80649,2.55815 -1.26973,3.83673 -1.38972,3.83673c-2.68896,0.62749 -4.09638,0.94123 -4.22227,0.94123c-2.22277,-1.29727 -3.40595,-2.02016 -3.54954,-2.16966c-0.0777,-2.41455 -0.11704,-3.74723 -0.11704,-3.99803c-0.03541,-0.0718 -0.05311,-0.12491 -0.05311,-0.1613c2.29456,-1.74477 3.48069,-2.61716 3.55839,-2.61716zM439.24348,178.3826c-0.03639,0.239 -0.0895,1.10843 -0.1613,2.60831l1.99852,0.44849c0.47799,-1.49397 0.71797,-2.2926 0.71797,-2.3939c-1.59036,-0.47799 -2.44209,-0.71699 -2.5552,-0.71699z" data-paper-data="{&quot;origPos&quot;:null}" fill="#000000"/><path d="M446.11045,181.28696c0.04131,0.0236 0.97369,0.0954 2.79616,0.21539l0.03639,0.07081c-0.28129,1.65035 -0.46029,2.47455 -0.53799,2.47455h-2.08016c-0.07081,0 -0.1672,-0.82419 -0.28621,-2.47455c-0.02459,0 -0.03639,-0.07081 -0.03639,-0.21441c0.0718,-0.02459 0.10819,-0.04819 0.10819,-0.0718z" data-paper-data="{&quot;origPos&quot;:null}" fill="#000000"/><path d="M37.52958,195.3425c2.27096,0.57438 3.47873,0.91468 3.62232,1.02188c-0.80747,1.93066 -1.24023,2.92009 -1.30022,2.96729c-0.1495,0 -1.12023,-0.3403 -2.9132,-1.02188c-1.04057,0.96877 -1.55987,1.50971 -1.55987,1.62282c-0.0777,1.79297 -0.11704,2.8355 -0.11704,3.12859c1.24318,0.5734 1.9818,0.89697 2.2149,0.96779c1.15859,-0.5016 1.82542,-0.80649 1.99852,-0.91369l-0.3226,-1.03073c-0.21539,0.11901 -0.86353,0.39144 -1.94541,0.81534l-0.05409,-0.1072v-0.43964c0,-0.37669 -0.0177,-0.95009 -0.05311,-1.72117c0.2803,-0.0718 1.91787,-0.2508 4.91172,-0.53799c0.0718,0.37079 0.19769,1.95131 0.37669,4.74256c-0.0954,0.1072 -1.89427,0.82714 -5.3966,2.15982c-2.98205,-1.08778 -4.49373,-1.69953 -4.53602,-1.83722c-0.93238,-3.23973 -1.39857,-4.94516 -1.39857,-5.11925c1.22547,-2.20506 1.92771,-3.39414 2.10671,-3.56725c0.1495,-0.0718 1.60511,-0.44849 4.36587,-1.13007z" data-paper-data="{&quot;origPos&quot;:null}" fill="#000000"/><path d="M48.36802,198.05015c2.70666,1.39267 4.20752,2.20506 4.49963,2.43816c-0.38849,1.81657 -0.61864,2.7519 -0.69043,2.806h-5.6651v0.09835l1.58643,1.96312l2.49225,-1.27268c0.2449,0.42488 0.59798,1.16548 1.05827,2.22375c-0.21539,0.07081 -1.78411,0.30096 -4.70617,0.68945c-2.42046,-1.59528 -3.64003,-2.42636 -3.65773,-2.49127c0.38849,-3.10204 0.61864,-4.65306 0.69043,-4.65306c2.52766,-1.07598 3.99213,-1.67593 4.39242,-1.80182zM47.78479,200.21981c-0.04721,0.11901 -0.3639,0.59405 -0.95009,1.42513c0,0.2508 0.35309,0.37669 1.05827,0.37669c0,0.03541 0.51045,0.12196 1.53233,0.25965c0.28129,-0.38849 0.42193,-0.61569 0.42193,-0.68158c-0.0895,-0.5311 -0.28424,-0.79764 -0.58323,-0.79764z" data-paper-data="{&quot;origPos&quot;:null}" fill="#000000"/><path d="M56.36408,195.33365l3.94394,0.69929l-0.37571,2.99483c0.78289,-0.04229 1.35628,-0.06295 1.72117,-0.06295h0.5734l0.12491,-0.06295l0.06295,0.12589c-0.12491,1.81657 -0.2331,2.83845 -0.3226,3.06565l-0.12491,-0.0718c-0.09048,0 -0.89697,-0.04229 -2.42046,-0.12589c-0.0836,1.40447 -0.14655,3.08433 -0.18884,5.0386l-0.12491,0.06196c-1.92476,-0.12491 -3.07253,-0.2331 -3.44234,-0.3226l0.06196,-0.2508c0,-0.52028 0.0836,-2.13327 0.25178,-4.84091c-1.61396,-0.0895 -2.42046,-0.1967 -2.42046,-0.3226c0.0836,-1.99557 0.1908,-2.99385 0.3226,-2.99385l2.35751,0.44849v-0.77108c0,-0.62749 -0.0236,-1.47627 -0.0718,-2.54635c0.04819,0 0.0718,-0.02065 0.0718,-0.06295z" data-paper-data="{&quot;origPos&quot;:null}" fill="#000000"/><path d="M70.59962,195.33365l3.94394,0.69929l-0.37571,2.99483c0.78289,-0.04229 1.35628,-0.06295 1.72117,-0.06295h0.5734l0.12491,-0.06295l0.06295,0.12589c-0.12491,1.81657 -0.2331,2.83845 -0.3226,3.06565l-0.12491,-0.0718c-0.09048,0 -0.89697,-0.04229 -2.42046,-0.12589c-0.0836,1.40447 -0.14655,3.08433 -0.18884,5.0386l-0.12491,0.06196c-1.92476,-0.12491 -3.07253,-0.2331 -3.44234,-0.3226l0.06196,-0.2508c0,-0.52028 0.0836,-2.13327 0.25178,-4.84091c-1.61396,-0.0895 -2.42046,-0.1967 -2.42046,-0.3226c0.0836,-1.99557 0.1908,-2.99385 0.3226,-2.99385l2.35751,0.44849v-0.77108c0,-0.62749 -0.0236,-1.47627 -0.0718,-2.54635c0.04819,0 0.0718,-0.02065 0.0718,-0.06295z" data-paper-data="{&quot;origPos&quot;:null}" fill="#000000"/><path d="M81.21382,198.05015c2.27096,0.60979 3.47479,0.98057 3.61249,1.11138c1.24908,1.76936 1.95131,2.78829 2.10671,3.0568c-0.80747,2.55815 -1.27071,3.83673 -1.38972,3.83673c-2.68896,0.62749 -4.09638,0.94123 -4.22227,0.94123c-2.22277,-1.29629 -3.40693,-2.01918 -3.54954,-2.16867c-0.0777,-2.41455 -0.11704,-3.74723 -0.11704,-3.99803c-0.03541,-0.0718 -0.05409,-0.12589 -0.05409,-0.16228c2.29555,-1.74477 3.48168,-2.61716 3.55938,-2.61716zM80.98958,201.3312c-0.03639,0.239 -0.0895,1.10843 -0.1613,2.60831l1.99852,0.44849c0.47799,-1.49397 0.71699,-2.29161 0.71699,-2.3939c-1.58938,-0.47799 -2.44111,-0.71699 -2.55421,-0.71699z" data-paper-data="{&quot;origPos&quot;:null}" fill="#000000"/><path d="M94.98317,195.33365l3.94394,0.69929l-0.37669,2.99483c0.78289,-0.04229 1.35726,-0.06295 1.72117,-0.06295h0.57438l0.12491,-0.06295l0.06295,0.12589c-0.12589,1.81657 -0.2331,2.83845 -0.3226,3.06565l-0.12589,-0.0718c-0.0895,0 -0.89599,-0.04229 -2.42046,-0.12589c-0.0836,1.40447 -0.14655,3.08433 -0.18785,5.0386l-0.12589,0.06196c-1.92377,-0.12491 -3.07155,-0.2331 -3.44234,-0.3226l0.06295,-0.2508c0,-0.52028 0.0836,-2.13327 0.2508,-4.84091c-1.61298,-0.0895 -2.42046,-0.1967 -2.42046,-0.3226c0.0836,-1.99557 0.19179,-2.99385 0.3226,-2.99385l2.35849,0.44849v-0.77108c0,-0.62749 -0.02459,-1.47627 -0.0718,-2.54635c0.04721,0 0.0718,-0.02065 0.0718,-0.06295z" data-paper-data="{&quot;origPos&quot;:null}" fill="#000000"/><path d="M105.99964,195.33365c0.03639,0.05409 0.20359,1.69166 0.50258,4.91271c2.30637,-0.70519 3.53479,-1.05729 3.68428,-1.05729l2.28571,1.55987c-0.37079,3.40595 -0.61274,5.39562 -0.72584,5.97l-3.17384,0.1072c0,-0.03541 -0.02065,-0.05311 -0.06295,-0.05311l0.06295,-0.22424c0,-0.48488 0.0718,-1.95426 0.21539,-4.41111c-0.87239,-0.03541 -1.52053,-0.05311 -1.94541,-0.05311h-0.22424c0.25768,2.73027 0.38554,4.21932 0.38554,4.46422l-3.01155,0.4475c-0.11409,-0.38259 -0.78289,-3.95279 -2.00836,-10.71255c0,-0.1908 0.46619,-0.3403 1.39857,-0.4475c1.17728,-0.33538 2.04967,-0.50258 2.61716,-0.50258z" data-paper-data="{&quot;origPos&quot;:null}" fill="#000000"/><path d="M118.39795,198.05015c2.70666,1.39267 4.20752,2.20506 4.49963,2.43816c-0.38849,1.81657 -0.61864,2.7519 -0.68945,2.806h-5.66609v0.09835l1.58643,1.96312l2.49225,-1.27268c0.2449,0.42488 0.59798,1.16548 1.05827,2.22375c-0.21539,0.07081 -1.78411,0.30096 -4.70617,0.68945c-2.42046,-1.59528 -3.64003,-2.42636 -3.65773,-2.49127c0.38849,-3.10204 0.61864,-4.65306 0.69043,-4.65306c2.52766,-1.07598 3.99213,-1.67593 4.39242,-1.80182zM117.81472,200.21981c-0.04721,0.11901 -0.3639,0.59405 -0.95009,1.42513c0,0.2508 0.35309,0.37669 1.05827,0.37669c0,0.03541 0.51045,0.12196 1.53233,0.25965c0.28129,-0.38849 0.42193,-0.61569 0.42193,-0.68158c-0.0895,-0.5311 -0.28424,-0.79764 -0.58323,-0.79764z" data-paper-data="{&quot;origPos&quot;:null}" fill="#000000"/><path d="M134.70381,198.0413c1.18318,0.6629 1.91001,1.09368 2.17851,1.29038c-0.96779,2.01426 -1.48807,3.03909 -1.55987,3.07548h-0.06295l-1.28153,-1.12122l-1.51463,1.84706l0.17015,3.36169c-0.0777,0.0718 -1.06712,0.239 -2.96729,0.5016c-0.0718,-0.5134 -0.53799,-3.03221 -1.39857,-7.55642c0,-0.0718 1.24908,-0.2567 3.74723,-0.55569c0.04131,0.04721 0.1554,0.60585 0.3403,1.67593c1.49397,-1.67888 2.27686,-2.51881 2.34866,-2.51881z" data-paper-data="{&quot;origPos&quot;:null}" fill="#2b70c2"/><path d="M138.82773,194.44652l3.52299,0.55569c-0.44259,1.69166 -0.73174,2.53651 -0.86944,2.53651c-1.85296,-0.12491 -2.77944,-0.24785 -2.77944,-0.36685v-2.59946c0.01869,-0.0836 0.06,-0.12589 0.12589,-0.12589zM137.84126,198.71404h0.05409c2.72535,0.4957 4.08753,0.78584 4.08753,0.86944c-0.78289,4.43373 -1.25793,6.90533 -1.42513,7.41283h-2.8414c-0.0836,0 -0.12589,-0.04131 -0.12589,-0.12491z" data-paper-data="{&quot;origPos&quot;:null}" fill="#2b70c2"/><path d="M149.33375,198.06786c2.54045,0.0659 3.81018,0.17703 3.81018,0.33145c0.43669,6.61617 0.65404,10.13621 0.65404,10.56011c-1.92377,1.22547 -3.30169,2.05655 -4.13179,2.49225c-2.92894,-0.9196 -4.39341,-1.44578 -4.39341,-1.57757c0.94418,-1.37989 1.49102,-2.07917 1.64052,-2.09786c1.59626,0.78879 2.51291,1.18318 2.75289,1.18318l0.85075,-1.12023c-0.22621,-0.92648 -0.37866,-1.47332 -0.45636,-1.64052c-0.13179,0 -1.75166,0.26358 -4.8596,0.78879c-1.70248,-2.76666 -2.55421,-4.18588 -2.55421,-4.25768c1.47037,-2.34866 2.36636,-3.72658 2.68896,-4.13277h0.06295c0.1731,0 1.46447,0.28424 3.87214,0.85173v-0.19769c0,-0.2331 -0.02065,-0.60585 -0.06196,-1.12023zM146.39399,201.93212c0.0836,0.1849 0.3462,1.17138 0.78879,2.95746c0.55569,-0.179 1.40742,-0.5075 2.55421,-0.98549c-0.22031,-1.07598 -0.33145,-1.68871 -0.33145,-1.83821l-0.3226,-0.06196h-0.39439c-0.5016,0 -1.26678,-0.02459 -2.29456,-0.0718z" data-paper-data="{&quot;origPos&quot;:null}" fill="#2b70c2"/><path d="M158.78247,195.33365c0.03639,0.05409 0.20359,1.69166 0.5016,4.91271c2.30735,-0.70519 3.53577,-1.05729 3.68527,-1.05729l2.28571,1.55987c-0.37079,3.40595 -0.61274,5.39562 -0.72584,5.97l-3.17384,0.1072c0,-0.03541 -0.02065,-0.05311 -0.06295,-0.05311l0.06295,-0.22424c0,-0.48488 0.0718,-1.95426 0.21539,-4.41111c-0.87239,-0.03541 -1.52151,-0.05311 -1.94541,-0.05311h-0.22424c0.2567,2.73027 0.38554,4.21932 0.38554,4.46422l-3.01254,0.4475c-0.11311,-0.38259 -0.78289,-3.95279 -2.00737,-10.71255c0,-0.1908 0.46619,-0.3403 1.39857,-0.4475c1.17728,-0.33538 2.04967,-0.50258 2.61716,-0.50258z" data-paper-data="{&quot;origPos&quot;:null}" fill="#2b70c2"/><path d="M168.77804,195.33365l3.94394,0.69929l-0.37669,2.99483c0.78289,-0.04229 1.35726,-0.06295 1.72117,-0.06295h0.57438l0.12491,-0.06295l0.06295,0.12589c-0.12491,1.81657 -0.2331,2.83845 -0.3226,3.06565l-0.12589,-0.0718c-0.0895,0 -0.89599,-0.04229 -2.42046,-0.12589c-0.0836,1.40447 -0.14556,3.08433 -0.18785,5.0386l-0.12589,0.06196c-1.92377,-0.12491 -3.07155,-0.2331 -3.44234,-0.3226l0.06295,-0.2508c0,-0.52028 0.0836,-2.13327 0.2508,-4.84091c-1.61298,-0.0895 -2.41947,-0.1967 -2.41947,-0.3226c0.0836,-1.99557 0.1908,-2.99385 0.3226,-2.99385l2.35751,0.44849v-0.77108c0,-0.62749 -0.0236,-1.47627 -0.0718,-2.54635c0.04819,0 0.0718,-0.02065 0.0718,-0.06295z" data-paper-data="{&quot;origPos&quot;:null}" fill="#2b70c2"/><path d="M183.94596,198.05015c2.27096,0.60979 3.47479,0.98057 3.61249,1.11138c1.24908,1.76936 1.95131,2.78829 2.10671,3.0568c-0.80747,2.55815 -1.26973,3.83673 -1.38972,3.83673c-2.68896,0.62749 -4.09638,0.94123 -4.22227,0.94123c-2.22277,-1.29629 -3.40595,-2.01918 -3.54954,-2.16867c-0.0777,-2.41455 -0.11704,-3.74723 -0.11704,-3.99803c-0.03541,-0.0718 -0.05311,-0.12589 -0.05311,-0.16228c2.29456,-1.74477 3.48069,-2.61716 3.55839,-2.61716zM183.72172,201.3312c-0.03639,0.239 -0.0895,1.10843 -0.1613,2.60831l1.99852,0.44849c0.47799,-1.49397 0.71699,-2.29161 0.71699,-2.3939c-1.58938,-0.47799 -2.44111,-0.71699 -2.55421,-0.71699z" data-paper-data="{&quot;origPos&quot;:null}" fill="#2b70c2"/><path d="M194.21003,195.33365c0.3167,0.03639 1.47037,0.30194 3.46004,0.79862l0.05409,0.1072c-0.29309,1.63167 -0.46914,2.44701 -0.52914,2.44701h-0.05409l-1.44283,-0.74354c0,0.1672 -0.05409,0.91369 -0.1613,2.24047l1.97197,-0.48389c0.06,0.179 0.11311,0.97762 0.1613,2.3939c-0.1908,0.0718 -0.84878,0.179 -1.97197,0.3226c0.2508,1.07598 0.51733,2.38997 0.79764,3.94394c-0.92058,0.20949 -2.02016,0.42193 -3.29874,0.63634l-0.05409,-0.1072c-0.1672,-2.76666 -0.30784,-4.15048 -0.42095,-4.15048c-1.15958,0.28129 -1.78116,0.43964 -1.86476,0.47504c-0.0718,-0.3462 -0.1967,-1.28743 -0.37669,-2.8237l0.10819,-0.05409h1.91787c-0.1072,-0.88419 -0.2685,-2.03786 -0.48389,-3.46004z" data-paper-data="{&quot;origPos&quot;:null}" fill="#2b70c2"/><path d="M205.78317,195.33365l3.94394,0.69929l-0.37669,2.99483c0.78289,-0.04229 1.35726,-0.06295 1.72117,-0.06295h0.57438l0.12491,-0.06295l0.06295,0.12589c-0.12491,1.81657 -0.2331,2.83845 -0.3226,3.06565l-0.12589,-0.0718c-0.0895,0 -0.89599,-0.04229 -2.42046,-0.12589c-0.0836,1.40447 -0.14556,3.08433 -0.18785,5.0386l-0.12589,0.06196c-1.92377,-0.12491 -3.07155,-0.2331 -3.44234,-0.3226l0.06295,-0.2508c0,-0.52028 0.0836,-2.13327 0.2508,-4.84091c-1.61298,-0.0895 -2.41947,-0.1967 -2.41947,-0.3226c0.0836,-1.99557 0.1908,-2.99385 0.3226,-2.99385l2.35751,0.44849v-0.77108c0,-0.62749 -0.0236,-1.47627 -0.0718,-2.54635c0.04819,0 0.0718,-0.02065 0.0718,-0.06295z" data-paper-data="{&quot;origPos&quot;:null}" fill="#2b70c2"/><path d="M216.80061,195.33365c0.03541,0.05409 0.20261,1.69166 0.5016,4.91271c2.30735,-0.70519 3.53479,-1.05729 3.68428,-1.05729l2.28571,1.55987c-0.36981,3.40595 -0.61175,5.39562 -0.72584,5.97l-3.17285,0.1072c0,-0.03541 -0.02164,-0.05311 -0.06295,-0.05311l0.06295,-0.22424c0,-0.48488 0.07081,-1.95426 0.21441,-4.41111c-0.87239,-0.03541 -1.52053,-0.05311 -1.94541,-0.05311h-0.22326c0.2567,2.73027 0.38456,4.21932 0.38456,4.46422l-3.01155,0.4475c-0.11311,-0.38259 -0.78289,-3.95279 -2.00836,-10.71255c0,-0.1908 0.46619,-0.3403 1.39857,-0.4475c1.17728,-0.33538 2.04967,-0.50258 2.61814,-0.50258z" data-paper-data="{&quot;origPos&quot;:null}" fill="#2b70c2"/><path d="M229.19795,198.05015c2.70764,1.39267 4.20752,2.20506 4.50061,2.43816c-0.38849,1.81657 -0.61864,2.7519 -0.69043,2.806h-5.66609v0.09835l1.58741,1.96312l2.49225,-1.27268c0.2449,0.42488 0.597,1.16548 1.05729,2.22375c-0.21539,0.07081 -1.78411,0.30096 -4.70617,0.68945c-2.42046,-1.59528 -3.64003,-2.42636 -3.65773,-2.49127c0.38849,-3.10204 0.61864,-4.65306 0.69043,-4.65306c2.52766,-1.07598 3.99213,-1.67593 4.39242,-1.80182zM228.6157,200.21981c-0.04819,0.11901 -0.36489,0.59405 -0.95009,1.42513c0,0.2508 0.3521,0.37669 1.05729,0.37669c0,0.03541 0.51143,0.12196 1.53332,0.25965c0.2803,-0.38849 0.42095,-0.61569 0.42095,-0.68158c-0.0895,-0.5311 -0.28424,-0.79764 -0.58225,-0.79764z" data-paper-data="{&quot;origPos&quot;:null}" fill="#2b70c2"/><path d="M246.30243,198.0413c1.72117,1.09958 2.67125,1.73297 2.85026,1.90017c-0.62159,1.38087 -0.97664,2.0713 -1.06614,2.0713l-3.26334,-1.8923h-0.11704c0,0.06 -0.13966,0.39538 -0.42095,1.00418c3.00565,1.61987 4.50946,2.45094 4.50946,2.49225c-0.84288,1.94836 -1.31792,2.97615 -1.42611,3.08433l-5.10056,0.29506c-1.98377,-1.31399 -3.05089,-2.00737 -3.20039,-2.07917v-0.05409c0,-0.1495 0.29604,-0.82124 0.88812,-2.01721l3.97934,2.0713l0.29604,-1.18318c-2.46176,-1.10548 -3.92623,-1.79592 -4.39242,-2.0713v-0.12491c0,-0.22719 0.47504,-1.23432 1.42513,-3.02139z" data-paper-data="{&quot;origPos&quot;:null}" fill="#2b70c2"/><path d="M253.56379,198.05015c2.69486,0.50848 4.10523,0.79764 4.23112,0.86944v0.10819c-0.58028,1.63659 -0.86944,2.48537 -0.86944,2.54536h-0.05409c-0.1495,0 -0.87239,-0.2331 -2.16966,-0.69929c-0.72289,1.21367 -1.08483,1.86181 -1.08483,1.94541l1.79297,1.73887c1.38677,-1.30219 2.09196,-1.95426 2.11556,-1.95426c1.08188,1.41628 1.62282,2.21195 1.62282,2.38505c-0.59208,0.3403 -1.62282,1.01008 -3.09319,2.00737c-2.84435,-0.6147 -4.38062,-0.95894 -4.60781,-1.03073l-1.40644,-4.55372z" data-paper-data="{&quot;origPos&quot;:null}" fill="#2b70c2"/><path d="M266.48141,198.0413c1.18318,0.6629 1.90902,1.09368 2.17851,1.29038c-0.96877,2.01426 -1.48906,3.03909 -1.55987,3.07548h-0.06295l-1.28252,-1.12122l-1.51463,1.84706l0.17015,3.36169c-0.0777,0.0718 -1.06614,0.239 -2.96729,0.5016c-0.0718,-0.5134 -0.53799,-3.03221 -1.39857,-7.55642c0,-0.0718 1.24908,-0.2567 3.74723,-0.55569c0.04229,0.04721 0.1554,0.60585 0.34128,1.67593c1.49397,-1.67888 2.27686,-2.51881 2.34866,-2.51881z" data-paper-data="{&quot;origPos&quot;:null}" fill="#2b70c2"/><path d="M274.45091,198.05015c2.70666,1.39267 4.20654,2.20506 4.49963,2.43816c-0.38849,1.81657 -0.61864,2.7519 -0.69043,2.806h-5.6651v0.09835l1.58643,1.96312l2.49225,-1.27268c0.2449,0.42488 0.59798,1.16548 1.05729,2.22375c-0.21441,0.07081 -1.78313,0.30096 -4.70617,0.68945c-2.42046,-1.59528 -3.63904,-2.42636 -3.65675,-2.49127c0.38849,-3.10204 0.61765,-4.65306 0.68945,-4.65306c2.52864,-1.07598 3.99213,-1.67593 4.39341,-1.80182zM273.86768,200.21981c-0.04819,0.11901 -0.36489,0.59405 -0.95009,1.42513c0,0.2508 0.3521,0.37669 1.05729,0.37669c0,0.03541 0.51143,0.12196 1.53332,0.25965c0.28129,-0.38849 0.42095,-0.61569 0.42095,-0.68158c-0.0895,-0.5311 -0.28326,-0.79764 -0.58225,-0.79764z" data-paper-data="{&quot;origPos&quot;:null}" fill="#2b70c2"/><path d="M284.84874,198.05015c2.70764,1.39267 4.20752,2.20506 4.50061,2.43816c-0.38849,1.81657 -0.61864,2.7519 -0.69043,2.806h-5.6651v0.09835l1.58643,1.96312l2.49225,-1.27268c0.2449,0.42488 0.597,1.16548 1.05729,2.22375c-0.21441,0.07081 -1.78313,0.30096 -4.70617,0.68945c-2.42046,-1.59528 -3.63904,-2.42636 -3.65773,-2.49127c0.38849,-3.10204 0.61864,-4.65306 0.69043,-4.65306c2.52864,-1.07598 3.99213,-1.67593 4.39242,-1.80182zM284.26649,200.21981c-0.04819,0.11901 -0.36489,0.59405 -0.95009,1.42513c0,0.2508 0.3521,0.37669 1.05729,0.37669c0,0.03541 0.51143,0.12196 1.53332,0.25965c0.28129,-0.38849 0.42095,-0.61569 0.42095,-0.68158c-0.0895,-0.5311 -0.28326,-0.79764 -0.58225,-0.79764z" data-paper-data="{&quot;origPos&quot;:null}" fill="#2b70c2"/><path d="M298.12534,198.0413l2.985,2.05262c-0.20851,3.40693 -0.35505,5.3966 -0.43865,5.97c-0.34718,0.04229 -1.40152,0.10524 -3.16498,0.18884l-0.06295,-0.12589l-0.31374,-4.78682l-0.12491,-0.06295c-1.14187,0.2449 -1.92771,0.43078 -2.35751,0.55569c0.11901,2.03786 0.179,3.51118 0.179,4.41996c-1.78116,0.4957 -2.75485,0.74354 -2.92205,0.74354c-1.15958,-5.10351 -1.73986,-7.79837 -1.73986,-8.08556c2.52274,-0.3285 3.89082,-0.49275 4.10622,-0.49275v0.06295c0.04131,0.02951 0.10425,0.65109 0.18785,1.86378c2.31325,-1.53528 3.53479,-2.30342 3.66658,-2.30342z" data-paper-data="{&quot;origPos&quot;:null}" fill="#2b70c2"/><path d="M309.23229,195.33365l3.94492,0.69929l-0.37669,2.99483c0.78289,-0.04229 1.35628,-0.06295 1.72117,-0.06295h0.5734l0.12589,-0.06295l0.06196,0.12589c-0.12491,1.81657 -0.2331,2.83845 -0.3226,3.06565l-0.12491,-0.0718c-0.0895,0 -0.89697,-0.04229 -2.42046,-0.12589c-0.0836,1.40447 -0.14655,3.08433 -0.18884,5.0386l-0.12491,0.06196c-1.92476,-0.12491 -3.07155,-0.2331 -3.44234,-0.3226l0.06295,-0.2508c0,-0.52028 0.0836,-2.13327 0.2508,-4.84091c-1.61396,-0.0895 -2.42046,-0.1967 -2.42046,-0.3226c0.0836,-1.99557 0.1908,-2.99385 0.3226,-2.99385l2.35751,0.44849v-0.77108c0,-0.62749 -0.0236,-1.47627 -0.0718,-2.54635c0.04819,0 0.0718,-0.02065 0.0718,-0.06295z" data-paper-data="{&quot;origPos&quot;:null}" fill="#000000"/><path d="M319.84649,198.05015c2.27096,0.60979 3.47479,0.98057 3.61249,1.11138c1.24908,1.76936 1.95131,2.78829 2.10671,3.0568c-0.80649,2.55815 -1.26973,3.83673 -1.38972,3.83673c-2.68896,0.62749 -4.09638,0.94123 -4.22227,0.94123c-2.22277,-1.29629 -3.40595,-2.01918 -3.54954,-2.16867c-0.0777,-2.41455 -0.11704,-3.74723 -0.11704,-3.99803c-0.03541,-0.0718 -0.05311,-0.12589 -0.05311,-0.16228c2.29456,-1.74477 3.48069,-2.61716 3.55839,-2.61716zM319.62225,201.3312c-0.03639,0.239 -0.0895,1.10843 -0.1613,2.60831l1.99852,0.44849c0.47898,-1.49397 0.71797,-2.29161 0.71797,-2.3939c-1.59036,-0.47799 -2.44209,-0.71699 -2.5552,-0.71699z" data-paper-data="{&quot;origPos&quot;:null}" fill="#000000"/><path d="M334.45872,198.05015c2.69486,0.50848 4.10523,0.79764 4.23112,0.86944v0.10819c-0.58028,1.63659 -0.86944,2.48537 -0.86944,2.54536h-0.05409c-0.1495,0 -0.87239,-0.2331 -2.16966,-0.69929c-0.72289,1.21367 -1.08483,1.86181 -1.08483,1.94541l1.79297,1.73887c1.38677,-1.30219 2.09196,-1.95426 2.11556,-1.95426c1.08188,1.41628 1.62282,2.21195 1.62282,2.38505c-0.59208,0.3403 -1.62282,1.01008 -3.09319,2.00737c-2.84435,-0.6147 -4.38062,-0.95894 -4.60781,-1.03073l-1.40644,-4.55372z" data-paper-data="{&quot;origPos&quot;:null}" fill="#000000"/><path d="M344.55264,198.05015c2.27096,0.60979 3.47479,0.98057 3.61249,1.11138c1.24908,1.76936 1.95131,2.78829 2.10671,3.0568c-0.80747,2.55815 -1.27071,3.83673 -1.38972,3.83673c-2.68896,0.62749 -4.09638,0.94123 -4.22227,0.94123c-2.22277,-1.29629 -3.40693,-2.01918 -3.54954,-2.16867c-0.0777,-2.41455 -0.11704,-3.74723 -0.11704,-3.99803c-0.03541,-0.0718 -0.05409,-0.12589 -0.05409,-0.16228c2.29555,-1.74477 3.48168,-2.61716 3.55938,-2.61716zM344.3284,201.3312c-0.03639,0.239 -0.0895,1.10843 -0.1613,2.60831l1.99852,0.44849c0.47799,-1.49397 0.71699,-2.29161 0.71699,-2.3939c-1.58938,-0.47799 -2.44111,-0.71699 -2.55421,-0.71699z" data-paper-data="{&quot;origPos&quot;:null}" fill="#000000"/><path d="M359.04783,198.0413l2.985,2.05262c-0.20949,3.40693 -0.35604,5.3966 -0.43964,5.97c-0.3462,0.04229 -1.40152,0.10524 -3.164,0.18884l-0.06295,-0.12589l-0.31374,-4.78682l-0.12491,-0.06295c-1.14187,0.2449 -1.92771,0.43078 -2.35849,0.55569c0.11999,2.03786 0.17999,3.51118 0.17999,4.41996c-1.78116,0.4957 -2.75584,0.74354 -2.92304,0.74354c-1.15859,-5.10351 -1.73887,-7.79837 -1.73887,-8.08556c2.52176,-0.3285 3.89082,-0.49275 4.10622,-0.49275v0.06295c0.04131,0.02951 0.10425,0.65109 0.18785,1.86378c2.31325,-1.53528 3.53479,-2.30342 3.66658,-2.30342z" data-paper-data="{&quot;origPos&quot;:null}" fill="#000000"/><path d="M365.60106,195.33365l3.94394,0.69929l-0.37669,2.99483c0.78289,-0.04229 1.35726,-0.06295 1.72117,-0.06295h0.57438l0.12491,-0.06295l0.06295,0.12589c-0.12589,1.81657 -0.2331,2.83845 -0.3226,3.06565l-0.12589,-0.0718c-0.0895,0 -0.89599,-0.04229 -2.42046,-0.12589c-0.0836,1.40447 -0.14655,3.08433 -0.18785,5.0386l-0.12589,0.06196c-1.92377,-0.12491 -3.07155,-0.2331 -3.44234,-0.3226l0.06295,-0.2508c0,-0.52028 0.0836,-2.13327 0.2508,-4.84091c-1.61298,-0.0895 -2.42046,-0.1967 -2.42046,-0.3226c0.0836,-1.99557 0.19179,-2.99385 0.3226,-2.99385l2.35849,0.44849v-0.77108c0,-0.62749 -0.02459,-1.47627 -0.0718,-2.54635c0.04721,0 0.0718,-0.02065 0.0718,-0.06295z" data-paper-data="{&quot;origPos&quot;:null}" fill="#000000"/><path d="M373.83906,194.44652l3.52299,0.55569c-0.44259,1.69166 -0.73174,2.53651 -0.86944,2.53651c-1.85296,-0.12491 -2.77944,-0.24785 -2.77944,-0.36685v-2.59946c0.01869,-0.0836 0.06,-0.12589 0.12589,-0.12589zM372.85259,198.71404h0.05409c2.72535,0.4957 4.08753,0.78584 4.08753,0.86944c-0.78289,4.43373 -1.25793,6.90533 -1.42513,7.41283h-2.8414c-0.0836,0 -0.12589,-0.04131 -0.12589,-0.12491z" data-paper-data="{&quot;origPos&quot;:null}" fill="#000000"/><path d="M385.61776,198.0413l2.98598,2.05262c-0.20949,3.40693 -0.35604,5.3966 -0.43964,5.97c-0.3462,0.04229 -1.40152,0.10524 -3.164,0.18884l-0.06295,-0.12589l-0.31374,-4.78682l-0.12589,-0.06295c-1.14089,0.2449 -1.92673,0.43078 -2.35751,0.55569c0.11999,2.03786 0.179,3.51118 0.179,4.41996c-1.78018,0.4957 -2.75485,0.74354 -2.92205,0.74354c-1.15958,-5.10351 -1.73887,-7.79837 -1.73887,-8.08556c2.52176,-0.3285 3.88984,-0.49275 4.10523,-0.49275v0.06295c0.04229,0.02951 0.10524,0.65109 0.18884,1.86378c2.31227,-1.53528 3.53479,-2.30342 3.6656,-2.30342z" data-paper-data="{&quot;origPos&quot;:null}" fill="#000000"/><path d="M394.33179,198.0413l0.06295,0.11606l-1.21072,6.41848h0.06295l3.08335,-0.90484v-3.63117c0.01279,-0.0836 0.05114,-0.12491 0.11704,-0.12491c2.31915,0.1613 3.60954,0.24195 3.87214,0.24195c0,0.04131 0.02164,0.06295 0.06295,0.06295c0,1.02188 -0.3226,3.1404 -0.96779,6.35554c0,0.1849 -0.92648,0.32555 -2.77944,0.42095c-0.0954,-0.11311 -0.17605,-0.35505 -0.24195,-0.72584c-2.37226,0.48389 -3.72559,0.72584 -4.06097,0.72584c-1.89427,-1.41037 -2.8414,-2.13622 -2.8414,-2.17752c0.3226,-4.23801 0.52619,-6.43717 0.60979,-6.59847h0.05311c1.51266,-0.04131 2.90533,-0.1013 4.17801,-0.179z" data-paper-data="{&quot;origPos&quot;:null}" fill="#000000"/><path d="M406.37112,198.05015c2.70666,1.39267 4.20752,2.20506 4.49963,2.43816c-0.38849,1.81657 -0.61864,2.7519 -0.69043,2.806h-5.6651v0.09835l1.58643,1.96312l2.49225,-1.27268c0.2449,0.42488 0.59798,1.16548 1.05827,2.22375c-0.21539,0.07081 -1.78411,0.30096 -4.70617,0.68945c-2.42046,-1.59528 -3.64003,-2.42636 -3.65773,-2.49127c0.38849,-3.10204 0.61864,-4.65306 0.69043,-4.65306c2.52766,-1.07598 3.99213,-1.67593 4.39242,-1.80182zM405.78789,200.21981c-0.04721,0.11901 -0.3639,0.59405 -0.95009,1.42513c0,0.2508 0.35309,0.37669 1.05827,0.37669c0,0.03541 0.51045,0.12196 1.53233,0.25965c0.28129,-0.38849 0.42193,-0.61569 0.42193,-0.68158c-0.09048,-0.5311 -0.28424,-0.79764 -0.58323,-0.79764z" data-paper-data="{&quot;origPos&quot;:null}" fill="#000000"/><path d="M415.63101,195.66608l0.03639,0.07081c-0.59798,5.2776 -0.93238,8.05015 -1.00418,8.31964c-1.26678,-0.11999 -2.06835,-0.20359 -2.40275,-0.2508v-0.03639l-0.5734,-7.49446c0.14359,-0.04721 1.45758,-0.2508 3.94394,-0.6088zM412.08147,204.23555c0.04131,0.0236 0.97369,0.0954 2.79715,0.21539l0.03541,0.0718c-0.28129,1.64937 -0.46029,2.47357 -0.53799,2.47357h-2.07917c-0.0718,0 -0.16818,-0.82419 -0.28719,-2.47357c-0.0236,0 -0.03639,-0.0718 -0.03639,-0.21539c0.0718,-0.0236 0.10819,-0.04819 0.10819,-0.0718z" data-paper-data="{&quot;origPos&quot;:null}" fill="#000000"/></g></g></g></svg>