<svg version="1.1" xmlns="http://www.w3.org/2000/svg" xmlns:xlink="http://www.w3.org/1999/xlink" width="441.55828" height="69.66968" viewBox="0,0,441.55828,69.66968"><defs><linearGradient x1="24.5327" y1="284.2076" x2="24.5327" y2="341.819" gradientUnits="userSpaceOnUse" id="color-1"><stop offset="0" stop-color="#ffffff"/><stop offset="1" stop-color="#ffffff"/></linearGradient><radialGradient cx="433.55778" cy="324.91029" r="18.72682" gradientUnits="userSpaceOnUse" id="color-2"><stop offset="0" stop-color="#ffff00"/><stop offset="1" stop-color="#ff9400"/></radialGradient><radialGradient cx="437.13623" cy="326.02495" r="12.81669" gradientUnits="userSpaceOnUse" id="color-3"><stop offset="0" stop-color="#bda501"/><stop offset="1" stop-color="#c07801"/></radialGradient></defs><g transform="translate(-18.50356,-278.17846)"><g data-paper-data="{&quot;isPaintingLayer&quot;:true}" fill="none" fill-rule="nonzero" stroke="none" stroke-width="none" stroke-linecap="butt" stroke-linejoin="miter" stroke-miterlimit="10" stroke-dasharray="" stroke-dashoffset="0" font-family="none" font-weight="none" font-size="none" text-anchor="none" style="mix-blend-mode: normal"><path d="M24.5327,284.2076h429.5v57.6114h-429.5z" data-paper-data="{&quot;origPos&quot;:null}" id="ID0.3184669064357877" fill="#ffffff" stroke="url(#color-1)" stroke-width="12.05828"/><text transform="translate(25.78827,322.12447) scale(0.7218,0.72179)" font-size="22" xml:space="preserve" data-paper-data="{&quot;origPos&quot;:null}" id="ID0.08681221166625619" fill="#2492d1" fill-rule="nonzero" stroke="none" stroke-width="1" stroke-linecap="butt" stroke-linejoin="miter" stroke-miterlimit="10" stroke-dasharray="" stroke-dashoffset="0" font-family="Sans Serif" font-weight="400" text-anchor="start" style="mix-blend-mode: normal"><tspan x="0" dy="0">Find a pile of coins.</tspan></text><g data-paper-data="{&quot;origPos&quot;:null}" id="text20" fill="#2392d1" stroke="none" stroke-width="0.26458"><path d="M34.82388,285.72178c2.91787,1.47514 4.41732,2.21271 4.49836,2.21271c0,0.12969 -0.60789,1.30089 -1.82367,3.5136h-0.08511c-0.09727,0 -1.4954,-0.66057 -4.19442,-1.98172l-1.37382,1.83583c2.32619,1.11852 5.15084,2.54502 8.47397,4.27953c-1.50757,2.68281 -2.57745,4.46596 -3.20966,5.34943l-6.86913,0.60789c-3.1367,-2.11544 -4.79422,-3.20965 -4.97253,-3.2826v-0.08511c0,-0.22695 0.63626,-1.26846 1.90876,-3.12455h0.15804c0.50253,0.29989 2.07897,1.1631 4.72938,2.58961l1.60482,-1.82365c-4.87121,-2.48019 -7.57023,-3.88238 -8.09707,-4.2066v-0.07295c1.5481,-3.01512 2.39102,-4.54295 2.52881,-4.58348c4.02827,-0.81863 6.26936,-1.22793 6.72325,-1.22793z" id="path827"/><path d="M48.50135,289.40559c3.67164,1.88851 5.70606,2.99081 6.10321,3.30691c-0.52684,2.46397 -0.83888,3.73243 -0.93615,3.80539h-7.68371v0.13373l2.15193,2.66255l3.37987,-1.7264c0.33231,0.57546 0.81052,1.5805 1.43462,3.01512c-0.29179,0.09727 -2.41939,0.4093 -6.38284,0.93614c-3.2826,-2.16408 -4.93607,-3.2907 -4.96038,-3.37987c0.52684,-4.2066 0.83888,-6.30988 0.93615,-6.30988c3.42849,-1.45893 5.41426,-2.27351 5.9573,-2.44372zM47.71111,292.34777c-0.06484,0.1621 -0.49442,0.80645 -1.28872,1.93309c0,0.34041 0.4782,0.51063 1.43462,0.51063c0,0.04864 0.693,0.16616 2.07898,0.35257c0.38094,-0.52684 0.57142,-0.83483 0.57142,-0.92399c-0.12158,-0.72137 -0.38499,-1.08203 -0.79026,-1.08203z" id="path829"/><path d="M60.48893,289.40559c3.65545,0.68894 5.56826,1.08203 5.73846,1.17929v0.14589c-0.7862,2.22083 -1.17929,3.37175 -1.17929,3.4528h-0.07295c-0.20262,0 -1.18336,-0.3161 -2.94218,-0.9483c-0.98073,1.64536 -1.47108,2.52477 -1.47108,2.63824l2.43154,2.35861c1.88039,-1.76693 2.83681,-2.6504 2.86924,-2.6504c1.46703,1.92094 2.20055,2.99891 2.20055,3.23397c-0.80242,0.46199 -2.20055,1.36978 -4.19442,2.72333c-3.85807,-0.83483 -5.94111,-1.30089 -6.24909,-1.39815l-1.90876,-6.17614z" id="path831"/><path d="M78.00827,289.39344c1.60482,0.89968 2.58961,1.48324 2.95433,1.75072c-1.31304,2.73145 -2.01818,4.12149 -2.11545,4.17011h-0.0851l-1.73857,-1.51973l-2.05467,2.5045l0.23099,4.55917c-0.10538,0.09727 -1.44678,0.3242 -4.02423,0.68084c-0.09727,-0.69704 -0.72946,-4.11337 -1.89661,-10.249c0,-0.09727 1.69398,-0.34851 5.08195,-0.75378c0.05674,0.06484 0.21074,0.82267 0.46199,2.27351c2.02629,-2.27756 3.08808,-3.41634 3.18534,-3.41634z" id="path833"/><path d="M88.81653,289.40559c3.67164,1.88851 5.70605,2.99081 6.1032,3.30691c-0.52684,2.46397 -0.83888,3.73243 -0.93614,3.80539h-7.68371v0.13373l2.15193,2.66255l3.37987,-1.7264c0.33231,0.57546 0.81052,1.5805 1.43462,3.01512c-0.29179,0.09727 -2.41939,0.4093 -6.38284,0.93614c-3.2826,-2.16408 -4.93606,-3.2907 -4.96037,-3.37987c0.52684,-4.2066 0.83888,-6.30988 0.93614,-6.30988c3.42849,-1.45893 5.41426,-2.27351 5.9573,-2.44372zM88.02629,292.34777c-0.06484,0.1621 -0.49441,0.80645 -1.28871,1.93309c0,0.34041 0.4782,0.51063 1.43462,0.51063c0,0.04864 0.693,0.16616 2.07897,0.35257c0.38094,-0.52684 0.57142,-0.83483 0.57142,-0.92399c-0.12158,-0.72137 -0.38499,-1.08203 -0.79026,-1.08203z" id="path835"/><path d="M99.66127,285.72178l5.34943,0.9483l-0.51063,4.0607c1.06178,-0.05674 1.83987,-0.08511 2.33429,-0.08511h0.7781l0.17022,-0.08511l0.0851,0.17022c-0.17022,2.46397 -0.3161,3.84995 -0.43767,4.15796l-0.17021,-0.09727c-0.12158,0 -1.21578,-0.05674 -3.28261,-0.17021c-0.11348,1.90472 -0.19859,4.18226 -0.2553,6.83267l-0.17021,0.08511c-2.60986,-0.17022 -4.16606,-0.3161 -4.66859,-0.43767l0.08511,-0.34041c0,-0.70516 0.11348,-2.89355 0.34041,-6.56519c-2.1884,-0.12158 -3.28261,-0.26748 -3.28261,-0.43768c0.11348,-2.70712 0.25937,-4.06069 0.43768,-4.06069l3.19749,0.60789v-1.04557c0,-0.85104 -0.03242,-2.00198 -0.09726,-3.4528c0.06484,0 0.09726,-0.02837 0.09726,-0.08511z" id="path837"/><path d="M132.41431,285.72178l0.07295,0.15806c-0.21074,3.09618 -0.36878,4.64428 -0.47416,4.64428h-0.07295c-3.34744,-0.26748 -5.21164,-0.42554 -5.59258,-0.47416v10.78395c0,0.19452 -0.76189,0.3242 -2.28566,0.38906c0,0.05674 -0.86319,0.1621 -2.5896,0.3161l-0.08511,-0.15806c0.37284,-6.43552 0.61195,-10.23685 0.71731,-11.40399c-1.28062,0.20262 -3.16913,0.462 -5.66553,0.77809c-0.73756,-2.75576 -1.10636,-4.17011 -1.10636,-4.24306c0,-0.10538 5.6939,-0.36881 17.08167,-0.79027z" id="path839"/><path d="M142.44446,289.39344c1.60482,0.89968 2.5896,1.48324 2.95433,1.75072c-1.31304,2.73145 -2.01818,4.12149 -2.11544,4.17011h-0.08511l-1.73857,-1.51973l-2.05467,2.5045l0.23099,4.55917c-0.10538,0.09727 -1.44677,0.3242 -4.02422,0.68084c-0.09727,-0.69704 -0.72946,-4.11337 -1.89661,-10.249c0,-0.09727 1.69398,-0.34851 5.08194,-0.75378c0.05674,0.06484 0.21074,0.82267 0.46199,2.27351c2.02629,-2.27756 3.08807,-3.41634 3.18534,-3.41634z" id="path841"/><path d="M153.25271,289.40559c3.67164,1.88851 5.70605,2.99081 6.1032,3.30691c-0.52684,2.46397 -0.83888,3.73243 -0.93614,3.80539h-7.68371v0.13373l2.15193,2.66255l3.37984,-1.7264c0.33231,0.57546 0.81052,1.5805 1.43462,3.01512c-0.29179,0.09727 -2.41939,0.4093 -6.38284,0.93614c-3.2826,-2.16408 -4.93607,-3.2907 -4.96038,-3.37987c0.52684,-4.2066 0.83888,-6.30988 0.93615,-6.30988c3.42849,-1.45893 5.41426,-2.27351 5.9573,-2.44372zM152.46247,292.34777c-0.06484,0.1621 -0.49441,0.80645 -1.28873,1.93309c0,0.34041 0.4782,0.51063 1.43461,0.51063c0,0.04864 0.693,0.16616 2.07898,0.35257c0.38094,-0.52684 0.57141,-0.83483 0.57141,-0.92399c-0.12158,-0.72137 -0.38499,-1.08203 -0.79026,-1.08203z" id="path843"/><path d="M162.31027,289.39344c4.81447,0.66463 7.22172,1.07393 7.22172,1.22793c1.89661,1.62915 2.84491,2.50044 2.84491,2.61392c-0.76999,2.40723 -1.20766,3.87022 -1.31304,4.38895c0.76999,1.7102 1.20766,2.73145 1.31304,3.06377c0,0.09727 -1.2563,0.35663 -3.7689,0.77811c-0.03243,-0.13779 -0.26342,-0.44579 -0.693,-0.92399c-3.46902,0.66463 -5.33725,0.99695 -5.60473,0.99695l-1.84798,-4.99684l4.07285,-2.15193c0.65652,0.10538 1.68183,0.15806 3.07592,0.15806c0,-0.17831 0.02431,-0.71731 0.07295,-1.617c-0.23505,0 -2.33429,0.15401 -6.29773,0.46199l-0.07295,-0.15806c0.55115,-2.56124 0.88347,-3.84185 0.99695,-3.84185zM164.83908,296.54219c0,0.08915 0.25936,1.03745 0.77809,2.84491h0.07295c1.02125,-0.66463 1.53188,-1.10231 1.53188,-1.31305l0.15806,-1.30089c-0.19452,0 -1.04151,-0.07699 -2.54097,-0.23099z" id="path845"/><path d="M183.35537,289.39344c2.33429,1.49136 3.62302,2.3505 3.86617,2.57745c-0.84294,1.87229 -1.3252,2.80844 -1.44678,2.80844l-4.42543,-2.5653h-0.15806c0,0.08105 -0.19046,0.53494 -0.5714,1.36167c4.07691,2.19651 6.11536,3.32313 6.11536,3.37987c-1.14283,2.64229 -1.78718,4.03638 -1.93309,4.18227l-6.91778,0.40121c-2.69091,-1.78315 -4.13768,-2.72333 -4.34032,-2.82059v-0.07295c0,-0.20262 0.40121,-1.11446 1.20362,-2.73549l5.39805,2.80844l0.40121,-1.60484c-3.33934,-1.49946 -5.3251,-2.43561 -5.9573,-2.80844v-0.17021c0,-0.308 0.64435,-1.67371 1.93309,-4.09716z" id="path847"/><path d="M194.99036,289.39344l0.08511,0.15806l-1.6413,8.70497h0.08511l4.18227,-1.22793v-4.92389c0.01621,-0.11348 0.06889,-0.17021 0.15804,-0.17021c3.14482,0.21884 4.89554,0.32826 5.25216,0.32826c0,0.05674 0.02837,0.0851 0.08511,0.0851c0,1.38598 -0.43767,4.25928 -1.31304,8.61986c0,0.25127 -1.25631,0.44173 -3.76891,0.5714c-0.12969,-0.154 -0.2391,-0.48225 -0.32825,-0.98479c-3.21775,0.65652 -5.05358,0.98479 -5.50747,0.98479c-2.56933,-1.91282 -3.85401,-2.89761 -3.85401,-2.95433c0.43767,-5.74658 0.71325,-8.72928 0.82673,-8.94811h0.07295c2.05061,-0.05674 3.93912,-0.13779 5.66553,-0.24315z" id="path849"/><path d="M213.15407,289.39344c1.60482,0.89968 2.5896,1.48324 2.95433,1.75072c-1.31304,2.73145 -2.01818,4.12149 -2.11544,4.17011h-0.08511l-1.73857,-1.51973l-2.05467,2.5045l0.23099,4.55917c-0.10538,0.09727 -1.44677,0.3242 -4.02422,0.68084c-0.09727,-0.69704 -0.72946,-4.11337 -1.89661,-10.249c0,-0.09727 1.69398,-0.34851 5.08194,-0.75378c0.05674,0.06484 0.21074,0.82267 0.46199,2.27351c2.02629,-2.27756 3.08807,-3.41634 3.18534,-3.41634z" id="path851"/><path d="M223.96232,289.40559c3.67164,1.88851 5.70605,2.99081 6.1032,3.30691c-0.52684,2.46397 -0.83888,3.73243 -0.93614,3.80539h-7.68371v0.13373l2.15191,2.66255l3.37987,-1.7264c0.33231,0.57546 0.81052,1.5805 1.43462,3.01512c-0.29179,0.09727 -2.41939,0.4093 -6.38284,0.93614c-3.28259,-2.16408 -4.93604,-3.2907 -4.96035,-3.37987c0.52682,-4.2066 0.83888,-6.30988 0.93614,-6.30988c3.42849,-1.45893 5.41425,-2.27351 5.9573,-2.44372zM223.17206,292.34777c-0.06484,0.1621 -0.49439,0.80645 -1.28871,1.93309c0,0.34041 0.4782,0.51063 1.43461,0.51063c0,0.04864 0.693,0.16616 2.07898,0.35257c0.38094,-0.52684 0.57141,-0.83483 0.57141,-0.92399c-0.12155,-0.72137 -0.38498,-1.08203 -0.79024,-1.08203z" id="path853"/></g><g stroke="none"><text transform="translate(283,338.98128) scale(0.60677,0.60677)" font-size="40" xml:space="preserve" data-paper-data="{&quot;origPos&quot;:null}" fill="#2392d1" fill-rule="nonzero" stroke="none" stroke-width="1" stroke-linecap="butt" stroke-linejoin="miter" stroke-miterlimit="10" stroke-dasharray="" stroke-dashoffset="0" font-family="Sans Serif" font-weight="normal" text-anchor="start" style="mix-blend-mode: normal"><tspan x="0" dy="0">Reward:   +5</tspan></text><path d="M438.22633,321.71811c2.42757,0 4.62707,0.98611 6.21986,2.5789c1.5928,1.59272 2.57884,3.79221 2.57884,6.21979c0,2.4275 -0.98603,4.62709 -2.57884,6.21981c-1.5928,1.5928 -3.79229,2.5789 -6.21986,2.5789c-2.4275,0 -4.62699,-0.98611 -6.2198,-2.5789c-1.5928,-1.59272 -2.5789,-3.79231 -2.5789,-6.21981c0,-2.42757 0.98611,-4.62706 2.5789,-6.21979c1.5928,-1.5928 3.7923,-2.5789 6.2198,-2.5789z" data-paper-data="{&quot;origPos&quot;:null}" id="ID0.7142658131197095" fill="url(#color-2)" stroke-width="0.48028"/><path d="M436.38196,323.73549h3.47092v13.31086h-3.47092z" data-paper-data="{&quot;origPos&quot;:null}" id="ID0.06001657713204622" fill="url(#color-3)" stroke-width="0.59798"/></g></g></g></svg>