<svg version="1.1" xmlns="http://www.w3.org/2000/svg" xmlns:xlink="http://www.w3.org/1999/xlink" width="497.63062" height="361.55107" viewBox="0,0,497.63062,361.55107"><defs><linearGradient x1="57.00004" y1="53" x2="57.00004" y2="98" gradientUnits="userSpaceOnUse" id="color-1"><stop offset="0" stop-color="#ffe21d" stop-opacity="0"/><stop offset="1" stop-color="#ffe21d"/></linearGradient><linearGradient x1="155.33963" y1="102.5605" x2="155.33963" y2="145.2621" gradientUnits="userSpaceOnUse" id="color-2"><stop offset="0" stop-color="#ffe21d" stop-opacity="0"/><stop offset="1" stop-color="#ffe21d"/></linearGradient><linearGradient x1="266.44516" y1="37.8726" x2="266.44516" y2="79.6928" gradientUnits="userSpaceOnUse" id="color-3"><stop offset="0" stop-color="#ffe21d" stop-opacity="0"/><stop offset="1" stop-color="#ffe21d"/></linearGradient><linearGradient x1="386.07494" y1="115.1438" x2="386.07494" y2="160.8181" gradientUnits="userSpaceOnUse" id="color-4"><stop offset="0" stop-color="#ffe21d" stop-opacity="0"/><stop offset="1" stop-color="#ffe21d"/></linearGradient><linearGradient x1="429.54794" y1="35.534" x2="429.54794" y2="79.5677" gradientUnits="userSpaceOnUse" id="color-5"><stop offset="0" stop-color="#ffe21d" stop-opacity="0"/><stop offset="1" stop-color="#ffe21d"/></linearGradient><linearGradient x1="154.35548" y1="4.331" x2="154.35548" y2="46.0521" gradientUnits="userSpaceOnUse" id="color-6"><stop offset="0" stop-color="#ffe21d" stop-opacity="0"/><stop offset="1" stop-color="#ffe21d"/></linearGradient></defs><g transform="translate(13.00447,0)"><g data-paper-data="{&quot;isPaintingLayer&quot;:true}" fill-rule="nonzero" stroke="none" stroke-linejoin="miter" stroke-miterlimit="10" stroke-dasharray="" stroke-dashoffset="0" style="mix-blend-mode: normal"><path d="M0.00003,0h480v360h-480z" data-paper-data="{&quot;origPos&quot;:null}" fill="#195490" stroke-width="1" stroke-linecap="butt"/><g data-paper-data="{&quot;origPos&quot;:null}" fill="#2172c3" stroke-width="1" stroke-linecap="butt"><path d="M38.00001,85c10.484,0 19.984,4.258 26.863,11.137c6.879,6.879 11.137,16.379 11.137,26.863c0,10.484 -4.258,19.984 -11.137,26.863c-6.879,6.879 -16.379,11.137 -26.863,11.137c-10.484,0 -19.984,-4.258 -26.863,-11.137c-6.879,-6.879 -11.137,-16.379 -11.137,-26.863c0,-10.484 4.258,-19.984 11.137,-26.863c6.879,-6.879 16.379,-11.137 26.863,-11.137z"/><path d="M107.00004,86c10.484,0 19.984,4.258 26.863,11.137c6.879,6.879 11.137,16.379 11.137,26.863c0,10.484 -4.258,19.984 -11.137,26.863c-6.879,6.879 -16.379,11.137 -26.863,11.137c-10.484,0 -19.984,-4.258 -26.863,-11.137c-6.879,-6.879 -11.137,-16.379 -11.137,-26.863c0,-10.484 4.258,-19.984 11.137,-26.863c6.879,-6.879 16.379,-11.137 26.863,-11.137z"/><path d="M169.00004,86c10.484,0 19.984,4.258 26.863,11.137c6.879,6.879 11.137,16.379 11.137,26.863c0,10.484 -4.258,19.984 -11.137,26.863c-6.879,6.879 -16.379,11.137 -26.863,11.137c-10.484,0 -19.984,-4.258 -26.863,-11.137c-6.879,-6.879 -11.137,-16.379 -11.137,-26.863c0,-10.484 4.258,-19.984 11.137,-26.863c6.879,-6.879 16.379,-11.137 26.863,-11.137z"/><path d="M228.00004,87c10.484,0 19.984,4.258 26.863,11.137c6.879,6.879 11.137,16.379 11.137,26.863c0,10.484 -4.258,19.984 -11.137,26.863c-6.879,6.879 -16.379,11.137 -26.863,11.137c-10.484,0 -19.984,-4.258 -26.863,-11.137c-6.879,-6.879 -11.137,-16.379 -11.137,-26.863c0,-10.484 4.258,-19.984 11.137,-26.863c6.879,-6.879 16.379,-11.137 26.863,-11.137z"/><path d="M290.00004,88c10.484,0 19.984,4.258 26.863,11.137c6.879,6.879 11.137,16.379 11.137,26.863c0,10.484 -4.258,19.984 -11.137,26.863c-6.879,6.879 -16.379,11.137 -26.863,11.137c-10.484,0 -19.984,-4.258 -26.863,-11.137c-6.879,-6.879 -11.137,-16.379 -11.137,-26.863c0,-10.484 4.258,-19.984 11.137,-26.863c6.879,-6.879 16.379,-11.137 26.863,-11.137z"/><path d="M342.00004,88c10.484,0 19.984,4.258 26.863,11.137c6.879,6.879 11.137,16.379 11.137,26.863c0,10.484 -4.258,19.984 -11.137,26.863c-6.879,6.879 -16.379,11.137 -26.863,11.137c-10.484,0 -19.984,-4.258 -26.863,-11.137c-6.879,-6.879 -11.137,-16.379 -11.137,-26.863c0,-10.484 4.258,-19.984 11.137,-26.863c6.879,-6.879 16.379,-11.137 26.863,-11.137z"/><path d="M394.00004,90c10.484,0 19.984,4.258 26.863,11.137c6.879,6.879 11.137,16.379 11.137,26.863c0,10.484 -4.258,19.984 -11.137,26.863c-6.879,6.879 -16.379,11.137 -26.863,11.137c-10.484,0 -19.984,-4.258 -26.863,-11.137c-6.879,-6.879 -11.137,-16.379 -11.137,-26.863c0,-10.484 4.258,-19.984 11.137,-26.863c6.879,-6.879 16.379,-11.137 26.863,-11.137z"/><path d="M447.00004,91c10.484,0 19.984,4.258 26.863,11.137c5.48145,5.48145 9.2987,12.62712 10.62349,20.60874c0,4.16994 0,8.34171 0,12.50852c-1.32479,7.98163 -5.14203,15.12729 -10.62349,20.60874c-6.879,6.879 -16.379,11.137 -26.863,11.137c-10.484,0 -19.984,-4.258 -26.863,-11.137c-6.879,-6.879 -11.137,-16.379 -11.137,-26.863c0,-10.484 4.258,-19.984 11.137,-26.863c6.879,-6.879 16.379,-11.137 26.863,-11.137z"/><path d="M466.13704,154.863c-6.879,-6.879 -11.137,-16.379 -11.137,-26.863c0,-10.484 4.258,-19.984 11.137,-26.863c4.95889,-4.95888 11.27979,-8.55575 18.34949,-10.17735c0,24.49225 0,49.66221 0,74.0807c-7.0697,-1.6216 -13.3906,-5.21846 -18.34949,-10.17735z"/><path d=""/><path d="M-0.99996,120h480v93.33634h-480z"/></g><path d="M36.00001,72.5l17.5,-2l5,-17.5l5,14.5l14.5,-8l-11.5,16l8.5,17.5l-14,-10l-8,15l-1,-19z" data-paper-data="{&quot;origPos&quot;:null}" fill="url(#color-1)" stroke-width="0" stroke-linecap="round"/><path d="M140.24902,102.5605l13.1942,11.6689l16.352,-7.9915l-7.4321,13.4169l15.6467,5.425l-19.5856,2.1569l-7.3203,18.0254l-1.9337,-17.0957l-16.5008,4.0892l13.4527,-13.4545z" data-paper-data="{&quot;origPos&quot;:null}" fill="url(#color-2)" stroke-width="0" stroke-linecap="round"/><path d="M286.12934,77.8092l-15.1347,-9.0105l-14.5798,10.8941l4.8062,-14.5654l-16.3828,-2.4194l18.8425,-5.7629l3.839,-19.0725l5.0804,16.4374l15.452,-7.0876l-10.7147,15.7223z" data-paper-data="{&quot;origPos&quot;:null}" fill="url(#color-3)" stroke-width="0" stroke-linecap="round"/><path d="M364.45094,151.5679l12.3977,-12.5118l-7.052,-16.7785l12.9742,8.1804l6.3029,-15.3142l1.0436,19.6764l17.5816,8.3299l-17.1777,0.9619l3.1476,16.7061l-12.6706,-14.1936z" data-paper-data="{&quot;origPos&quot;:null}" fill="url(#color-4)" stroke-width="0" stroke-linecap="round"/><path d="M422.35434,35.534l9.4077,14.8911l17.9337,-3.1035l-10.8854,10.8055l13.5073,9.5814l-19.4081,-3.4023l-12.0659,15.2615l2.9208,-16.9549l-16.9862,-0.6849l16.6767,-9.1591z" data-paper-data="{&quot;origPos&quot;:null}" fill="url(#color-5)" stroke-width="0" stroke-linecap="round"/><path d="M134.87284,5.9535l15.055,9.1431l14.6749,-10.7656l-4.934,14.5226l16.3609,2.5633l-18.8923,5.5971l-4.0065,19.0381l-4.9358,-16.4815l-15.5137,6.9516l10.8525,-15.6276z" data-paper-data="{&quot;origPos&quot;:null}" fill="url(#color-6)" stroke-width="0" stroke-linecap="round"/><g fill="#2889ea" stroke-linecap="butt"><path d="M8.00004,162c10.484,0 19.984,4.258 26.863,11.137c6.879,6.879 11.137,16.379 11.137,26.863c0,10.484 -4.258,19.984 -11.137,26.863c-6.879,6.879 -16.379,11.137 -26.863,11.137c-4.89198,0 -9.56971,-0.92709 -13.86689,-2.61495c-0.03836,-0.49596 2.8501,-66.4975 2.84615,-71.75871c3.48887,-1.05759 7.18909,-1.62634 11.02074,-1.62634z" stroke-width="1"/><path d="M77.00002,163c10.484,0 19.984,4.258 26.863,11.137c6.879,6.879 11.137,16.379 11.137,26.863c0,10.484 -4.258,19.984 -11.137,26.863c-6.879,6.879 -16.379,11.137 -26.863,11.137c-10.484,0 -19.984,-4.258 -26.863,-11.137c-6.879,-6.879 -11.137,-16.379 -11.137,-26.863c0,-10.484 4.258,-19.984 11.137,-26.863c6.879,-6.879 16.379,-11.137 26.863,-11.137z" stroke-width="1"/><path d="M139,163c10.484,0 19.984,4.258 26.863,11.137c6.879,6.879 11.137,16.379 11.137,26.863c0,10.484 -4.258,19.984 -11.137,26.863c-6.879,6.879 -16.379,11.137 -26.863,11.137c-10.484,0 -19.984,-4.258 -26.863,-11.137c-6.879,-6.879 -11.137,-16.379 -11.137,-26.863c0,-10.484 4.258,-19.984 11.137,-26.863c6.879,-6.879 16.379,-11.137 26.863,-11.137z" stroke-width="1"/><path d="M198.00004,164c10.484,0 19.984,4.258 26.863,11.137c6.879,6.879 11.137,16.379 11.137,26.863c0,10.484 -4.258,19.984 -11.137,26.863c-6.879,6.879 -16.379,11.137 -26.863,11.137c-10.484,0 -19.984,-4.258 -26.863,-11.137c-6.879,-6.879 -11.137,-16.379 -11.137,-26.863c0,-10.484 4.258,-19.984 11.137,-26.863c6.879,-6.879 16.379,-11.137 26.863,-11.137z" stroke-width="1"/><path d="M260.00004,165c10.484,0 19.984,4.258 26.863,11.137c6.879,6.879 11.137,16.379 11.137,26.863c0,10.484 -4.258,19.984 -11.137,26.863c-6.879,6.879 -16.379,11.137 -26.863,11.137c-10.484,0 -19.984,-4.258 -26.863,-11.137c-6.879,-6.879 -11.137,-16.379 -11.137,-26.863c0,-10.484 4.258,-19.984 11.137,-26.863c6.879,-6.879 16.379,-11.137 26.863,-11.137z" stroke-width="1"/><path d="M312.00004,165c10.484,0 19.984,4.258 26.863,11.137c6.879,6.879 11.137,16.379 11.137,26.863c0,10.484 -4.258,19.984 -11.137,26.863c-6.879,6.879 -16.379,11.137 -26.863,11.137c-10.484,0 -19.984,-4.258 -26.863,-11.137c-6.879,-6.879 -11.137,-16.379 -11.137,-26.863c0,-10.484 4.258,-19.984 11.137,-26.863c6.879,-6.879 16.379,-11.137 26.863,-11.137z" stroke-width="1"/><path d="M364.00004,167c10.484,0 19.984,4.258 26.863,11.137c6.879,6.879 11.137,16.379 11.137,26.863c0,10.484 -4.258,19.984 -11.137,26.863c-6.879,6.879 -16.379,11.137 -26.863,11.137c-10.484,0 -19.984,-4.258 -26.863,-11.137c-6.879,-6.879 -11.137,-16.379 -11.137,-26.863c0,-10.484 4.258,-19.984 11.137,-26.863c6.879,-6.879 16.379,-11.137 26.863,-11.137z" stroke-width="1"/><path d="M417.00004,168c10.484,0 19.984,4.258 26.863,11.137c6.879,6.879 11.137,16.379 11.137,26.863c0,10.484 -4.258,19.984 -11.137,26.863c-6.879,6.879 -16.379,11.137 -26.863,11.137c-10.484,0 -19.984,-4.258 -26.863,-11.137c-6.879,-6.879 -11.137,-16.379 -11.137,-26.863c0,-10.484 4.258,-19.984 11.137,-26.863c6.879,-6.879 16.379,-11.137 26.863,-11.137z" stroke-width="1"/><path d="M463.00004,167c7.96056,0 15.35381,2.45493 21.4631,6.64816c-0.13808,19.50656 -0.81252,39.14345 0.02724,58.59177c0.0575,1.33151 0.10031,2.66494 0.13578,3.9994c-6.14058,4.2618 -13.59461,6.76067 -21.62612,6.76067c-10.484,0 -19.984,-4.258 -26.863,-11.137c-6.879,-6.879 -11.137,-16.379 -11.137,-26.863c0,-10.484 4.258,-19.984 11.137,-26.863c6.879,-6.879 16.379,-11.137 26.863,-11.137z" stroke-width="1"/><path d="M0.99554,361.55107v-159h483v159z" stroke-width="0"/></g><g fill="#4fa7ff" stroke-linecap="butt"><path d="M25.00004,248c10.484,0 19.984,4.258 26.863,11.137c6.879,6.879 11.137,16.379 11.137,26.863c0,10.484 -4.258,19.984 -11.137,26.863c-6.879,6.879 -16.379,11.137 -26.863,11.137c-10.484,0 -19.984,-4.258 -26.863,-11.137c-6.879,-6.879 -11.137,-16.379 -11.137,-26.863c0,-10.484 4.258,-19.984 11.137,-26.863c6.879,-6.879 16.379,-11.137 26.863,-11.137z" stroke-width="1"/><path d="M94.00004,249c10.484,0 19.984,4.258 26.863,11.137c6.879,6.879 11.137,16.379 11.137,26.863c0,10.484 -4.258,19.984 -11.137,26.863c-6.879,6.879 -16.379,11.137 -26.863,11.137c-10.484,0 -19.984,-4.258 -26.863,-11.137c-6.879,-6.879 -11.137,-16.379 -11.137,-26.863c0,-10.484 4.258,-19.984 11.137,-26.863c6.879,-6.879 16.379,-11.137 26.863,-11.137z" stroke-width="1"/><path d="M156,249c10.484,0 19.984,4.258 26.863,11.137c6.879,6.879 11.137,16.379 11.137,26.863c0,10.484 -4.258,19.984 -11.137,26.863c-6.879,6.879 -16.379,11.137 -26.863,11.137c-10.484,0 -19.984,-4.258 -26.863,-11.137c-6.879,-6.879 -11.137,-16.379 -11.137,-26.863c0,-10.484 4.258,-19.984 11.137,-26.863c6.879,-6.879 16.379,-11.137 26.863,-11.137z" stroke-width="1"/><path d="M215.00004,250c10.484,0 19.984,4.258 26.863,11.137c6.879,6.879 11.137,16.379 11.137,26.863c0,10.484 -4.258,19.984 -11.137,26.863c-6.879,6.879 -16.379,11.137 -26.863,11.137c-10.484,0 -19.984,-4.258 -26.863,-11.137c-6.879,-6.879 -11.137,-16.379 -11.137,-26.863c0,-10.484 4.258,-19.984 11.137,-26.863c6.879,-6.879 16.379,-11.137 26.863,-11.137z" stroke-width="1"/><path d="M277.00004,251c10.484,0 19.984,4.258 26.863,11.137c6.879,6.879 11.137,16.379 11.137,26.863c0,10.484 -4.258,19.984 -11.137,26.863c-6.879,6.879 -16.379,11.137 -26.863,11.137c-10.484,0 -19.984,-4.258 -26.863,-11.137c-6.879,-6.879 -11.137,-16.379 -11.137,-26.863c0,-10.484 4.258,-19.984 11.137,-26.863c6.879,-6.879 16.379,-11.137 26.863,-11.137z" stroke-width="1"/><path d="M329.00004,251c10.484,0 19.984,4.258 26.863,11.137c6.879,6.879 11.137,16.379 11.137,26.863c0,10.484 -4.258,19.984 -11.137,26.863c-6.879,6.879 -16.379,11.137 -26.863,11.137c-10.484,0 -19.984,-4.258 -26.863,-11.137c-6.879,-6.879 -11.137,-16.379 -11.137,-26.863c0,-10.484 4.258,-19.984 11.137,-26.863c6.879,-6.879 16.379,-11.137 26.863,-11.137z" stroke-width="1"/><path d="M381.00004,253c10.484,0 19.984,4.258 26.863,11.137c6.879,6.879 11.137,16.379 11.137,26.863c0,10.484 -4.258,19.984 -11.137,26.863c-6.879,6.879 -16.379,11.137 -26.863,11.137c-10.484,0 -19.984,-4.258 -26.863,-11.137c-6.879,-6.879 -11.137,-16.379 -11.137,-26.863c0,-10.484 4.258,-19.984 11.137,-26.863c6.879,-6.879 16.379,-11.137 26.863,-11.137z" stroke-width="1"/><path d="M434.00004,254c10.484,0 19.984,4.258 26.863,11.137c6.879,6.879 11.137,16.379 11.137,26.863c0,10.484 -4.258,19.984 -11.137,26.863c-6.879,6.879 -16.379,11.137 -26.863,11.137c-10.484,0 -19.984,-4.258 -26.863,-11.137c-6.879,-6.879 -11.137,-16.379 -11.137,-26.863c0,-10.484 4.258,-19.984 11.137,-26.863c6.879,-6.879 16.379,-11.137 26.863,-11.137z" stroke-width="1"/><path d="M480.00004,253c1.51927,0 3.01789,0.08942 4.49085,0.26327c-0.00911,6.75488 -0.00437,13.55817 -0.00437,16.23673c0,18.76546 0,40.04222 0,59.23724c-1.47156,0.17352 -2.96871,0.26276 -4.48649,0.26276c-10.484,0 -19.984,-4.258 -26.863,-11.137c-6.879,-6.879 -11.137,-16.379 -11.137,-26.863c0,-10.484 4.258,-19.984 11.137,-26.863c6.879,-6.879 16.379,-11.137 26.863,-11.137z" stroke-width="1"/><path d="M-13.00446,359.55107v-70h495v70z" stroke-width="0"/></g></g></g></svg>