<svg version="1.1" xmlns="http://www.w3.org/2000/svg" xmlns:xlink="http://www.w3.org/1999/xlink" width="437" height="90.79587" viewBox="0,0,437,90.79587"><defs><linearGradient x1="239.96075" y1="135.56279" x2="239.96075" y2="224.35867" gradientUnits="userSpaceOnUse" id="color-1"><stop offset="0" stop-color="#ffffff"/><stop offset="1" stop-color="#d8d8d8"/></linearGradient><linearGradient x1="239.96075" y1="135.5628" x2="239.96075" y2="224.35867" gradientUnits="userSpaceOnUse" id="color-2"><stop offset="0" stop-color="#343434"/><stop offset="1" stop-color="#090909"/></linearGradient><radialGradient cx="443.76725" cy="206.50539" r="17.9081" gradientUnits="userSpaceOnUse" id="color-3"><stop offset="0" stop-color="#ffffff"/><stop offset="1" stop-color="#e5e5e5"/></radialGradient></defs><g transform="translate(-21.46075,-134.5628)"><g data-paper-data="{&quot;isPaintingLayer&quot;:true}" fill-rule="nonzero" stroke-linejoin="miter" stroke-miterlimit="10" stroke-dasharray="" stroke-dashoffset="0" style="mix-blend-mode: normal"><path d="M22.46075,224.35867v-88.79587h435v88.79587z" data-paper-data="{&quot;origPos&quot;:null}" fill="url(#color-1)" stroke="url(#color-2)" stroke-width="2" stroke-linecap="butt"/><g data-paper-data="{&quot;origPos&quot;:null}"><path d="M444.26655,202.0594c2.5136,0 4.7909,1.0212 6.4406,2.6702c1.6489,1.6496 2.6702,3.9269 2.6702,6.4405c0,2.5136 -1.0213,4.791 -2.6702,6.4406c-1.6497,1.649 -3.927,2.6702 -6.4406,2.6702c-2.5136,0 -4.7909,-1.0212 -6.4406,-2.6702c-1.6489,-1.6496 -2.6701,-3.927 -2.6701,-6.4406c0,-2.5136 1.0212,-4.7909 2.6701,-6.4405c1.6497,-1.649 3.927,-2.6702 6.4406,-2.6702z" fill="url(#color-3)" stroke="#000000" stroke-width="2.0785" stroke-linecap="butt"/><path d="M441.23415,206.50959l5.6119,0.4503l1.7321,3.187l-3.6374,2.9446l3.3603,-0.5197l0.7967,3.4642l-7.4479,-0.0693l-1.9053,-2.4249l4.6766,-3.3256l-4.5727,-0.3464z" fill="#000000" stroke="none" stroke-width="0.69283" stroke-linecap="round"/></g><path d="M36.15223,149.27275c2.45739,0.5488 3.82327,0.86283 4.09766,0.94209v0.06403c-0.08537,2.20129 -0.1494,3.4818 -0.19207,3.84156c0.14024,0 0.77137,0.14634 1.89334,0.43904c1.00613,-3.10374 1.55187,-4.65561 1.63724,-4.65561c1.68297,0.75611 2.75312,1.25917 3.21045,1.50918v0.06403c-1.84761,4.29889 -2.89641,6.6709 -3.14642,7.11603c-0.46343,0.38416 -2.07932,1.8537 -4.84768,4.40866h-0.06403l-5.10379,-2.51531c0.46953,-0.80489 1.03661,-1.7287 1.70126,-2.7714c0.03049,0 0.82929,0.5244 2.39641,1.57321h0.06403c0.5244,-0.42684 1.15247,-1.03661 1.88419,-1.82931c0,-0.0366 -1.19516,-1.2104 -3.58546,-3.52143v-4.5367z" data-paper-data="{&quot;origPos&quot;:null}" fill="#000000" stroke="none" stroke-width="0.26458" stroke-linecap="butt"/><path d="M51.48189,152.04416c2.31713,0.62197 3.54582,1.00003 3.68606,1.13419c1.27442,1.80493 1.99091,2.84458 2.14945,3.11899c-0.8232,2.60983 -1.29577,3.91473 -1.41772,3.91473c-2.74397,0.64026 -4.17999,0.96039 -4.30804,0.96039c-2.26835,-1.3232 -3.47571,-2.06103 -3.62204,-2.21347c-0.07926,-2.46347 -0.1189,-3.82327 -0.1189,-4.07937c-0.03658,-0.07317 -0.05488,-0.12804 -0.05488,-0.16464c2.34152,-1.78053 3.55192,-2.6708 3.6312,-2.6708zM51.30811,155.39181c-0.03658,0.2439 -0.09146,1.13113 -0.16463,2.66165l2.03968,0.45733c0.48782,-1.52443 0.73172,-2.33847 0.73172,-2.44213c-1.62199,-0.48782 -2.49092,-0.73172 -2.60677,-0.73172z" data-paper-data="{&quot;origPos&quot;:null}" fill="#000000" stroke="none" stroke-width="0.26458" stroke-linecap="butt"/><path d="M63.0889,152.03501l0.06403,0.1189l-1.23479,6.54895h0.06403l3.14641,-0.9238v-3.70437c0.0122,-0.08537 0.05183,-0.12805 0.1189,-0.12805c2.36592,0.16464 3.68303,0.24695 3.95133,0.24695c0,0.04269 0.02134,0.06403 0.06403,0.06403c0,1.04271 -0.32928,3.20435 -0.98784,6.48493c0,0.18903 -0.94515,0.33232 -2.83543,0.42989c-0.09757,-0.11585 -0.17989,-0.3628 -0.24695,-0.74086c-2.42079,0.49391 -3.80193,0.74088 -4.1434,0.74088c-1.93297,-1.43906 -2.89946,-2.17995 -2.89946,-2.22263c0.32928,-4.32328 0.5366,-6.56724 0.62197,-6.73188h0.05488c1.54272,-0.04269 2.96349,-0.10367 4.26231,-0.18293z" data-paper-data="{&quot;origPos&quot;:null}" fill="#000000" stroke="none" stroke-width="0.26458" stroke-linecap="butt"/><path d="M78.42771,152.04416c2.75008,0.5183 4.18914,0.81404 4.31718,0.88721v0.10975c-0.59148,1.67078 -0.88721,2.53665 -0.88721,2.59762h-0.05488c-0.15244,0 -0.89026,-0.23781 -2.21346,-0.71343c-0.73783,1.23784 -1.10674,1.89944 -1.10674,1.9848l1.82931,1.77445c1.41466,-1.32931 2.1342,-1.99397 2.1586,-1.99397c1.10368,1.44517 1.65552,2.25615 1.65552,2.43299c-0.60368,0.34757 -1.65552,1.03052 -3.15556,2.04883c-2.90252,-0.62806 -4.46963,-0.97869 -4.70134,-1.05185l-1.436,-4.64647z" data-paper-data="{&quot;origPos&quot;:null}" fill="#000000" stroke="none" stroke-width="0.26458" stroke-linecap="butt"/><path d="M86.43097,152.03501c3.62204,0.50001 5.43308,0.80795 5.43308,0.92381c1.42686,1.22564 2.14029,1.88114 2.14029,1.96651c-0.57928,1.81102 -0.90855,2.91166 -0.98783,3.30191c0.57928,1.28662 0.90855,2.05494 0.98783,2.30495c0,0.07317 -0.94515,0.2683 -2.83544,0.58539c-0.02439,-0.10366 -0.19818,-0.33538 -0.52136,-0.69514c-2.60983,0.50001 -4.01534,0.75002 -4.21658,0.75002l-1.39028,-3.75924l3.0641,-1.61894c0.49391,0.07928 1.26528,0.11891 2.31409,0.11891c0,-0.13415 0.01829,-0.53965 0.05488,-1.2165c-0.17683,0 -1.75614,0.11586 -4.73794,0.34757l-0.05488,-0.11891c0.41464,-1.92688 0.66465,-2.89032 0.75002,-2.89032zM88.33346,157.4132c0,0.06707 0.19513,0.7805 0.58537,2.1403h0.05488c0.76832,-0.50001 1.15247,-0.82929 1.15247,-0.98783l0.11892,-0.97869c-0.14634,0 -0.78356,-0.05793 -1.91163,-0.17379z" data-paper-data="{&quot;origPos&quot;:null}" fill="#000000" stroke="none" stroke-width="0.26458" stroke-linecap="butt"/><path d="M103.00457,152.03501l3.04581,2.09457c-0.21341,3.47571 -0.36281,5.50625 -0.44818,6.09162c-0.35367,0.04269 -1.42992,0.10672 -3.22874,0.19207l-0.06403,-0.12806l-0.32013,-4.88428l-0.12806,-0.06403c-1.16467,0.25001 -1.96651,0.43904 -2.40555,0.56708c0.12195,2.07932 0.18292,3.58241 0.18292,4.50927c-1.81713,0.50611 -2.81105,0.75917 -2.98178,0.75917c-1.18296,-5.20745 -1.77444,-7.95752 -1.77444,-8.25022c2.57325,-0.33538 3.96962,-0.50307 4.18914,-0.50307v0.06403c0.04269,0.03049 0.10672,0.66465 0.19207,1.90248c2.35981,-1.56712 3.6068,-2.35067 3.74095,-2.35067z" data-paper-data="{&quot;origPos&quot;:null}" fill="#000000" stroke="none" stroke-width="0.26458" stroke-linecap="butt"/><path d="M119.72452,152.03501l3.04581,2.09457c-0.21341,3.47571 -0.36281,5.50625 -0.44818,6.09162c-0.35367,0.04269 -1.42992,0.10672 -3.22874,0.19207l-0.06403,-0.12806l-0.32013,-4.88428l-0.12806,-0.06403c-1.16467,0.25001 -1.96651,0.43904 -2.40555,0.56708c0.12195,2.07932 0.18292,3.58241 0.18292,4.50927c-1.81713,0.50611 -2.81105,0.75917 -2.98178,0.75917c-1.18296,-5.20745 -1.77444,-7.95752 -1.77444,-8.25022c2.57325,-0.33538 3.96962,-0.50307 4.18914,-0.50307v0.06403c0.04269,0.03049 0.10671,0.66465 0.19207,1.90248c2.35981,-1.56712 3.6068,-2.35067 3.74095,-2.35067z" data-paper-data="{&quot;origPos&quot;:null}" fill="#000000" stroke="none" stroke-width="0.26458" stroke-linecap="butt"/><path d="M127.36191,152.04416c2.31713,0.62197 3.54583,1.00003 3.68607,1.13419c1.27442,1.80493 1.9909,2.84458 2.14945,3.11899c-0.8232,2.60983 -1.29576,3.91473 -1.41771,3.91473c-2.74397,0.64026 -4.17999,0.96039 -4.30804,0.96039c-2.26835,-1.3232 -3.4757,-2.06103 -3.62204,-2.21347c-0.07928,-2.46347 -0.11892,-3.82327 -0.11892,-4.07937c-0.0366,-0.07317 -0.05488,-0.12804 -0.05488,-0.16464c2.34153,-1.78053 3.55192,-2.6708 3.6312,-2.6708zM127.18813,155.39181c-0.0366,0.2439 -0.09146,1.13113 -0.16464,2.66165l2.03968,0.45733c0.48782,-1.52443 0.73173,-2.33847 0.73173,-2.44213c-1.62199,-0.48782 -2.49093,-0.73172 -2.60677,-0.73172z" data-paper-data="{&quot;origPos&quot;:null}" fill="#000000" stroke="none" stroke-width="0.26458" stroke-linecap="butt"/><path d="M138.04512,152.03501c0.07928,0.10366 0.49087,1.872 1.23479,5.30502h0.06403c0,-0.07928 0.45122,-0.77746 1.35369,-2.09457c0.37807,0.2561 1.09759,0.811 2.1586,1.66467h0.12805v-0.06403c0.16464,-2.37811 0.28659,-3.69521 0.36587,-3.95133c2.51227,0.12805 3.76838,0.23172 3.76838,0.31098c-1.15248,4.63427 -1.76834,7.04287 -1.84761,7.22581c-0.38416,0.04269 -1.18905,0.16463 -2.41469,0.36586c-1.00612,-1.57932 -1.58236,-2.42079 -1.72871,-2.52445c-0.65855,1.75615 -1.07015,2.72263 -1.23479,2.89947h-2.46958c-0.15244,-0.04878 -0.87198,-1.63419 -2.1586,-4.75623c-0.8232,-1.74395 -1.23479,-2.68909 -1.23479,-2.83544c0,-0.13415 1.33845,-0.64941 4.01534,-1.54577z" data-paper-data="{&quot;origPos&quot;:null}" fill="#000000" stroke="none" stroke-width="0.26458" stroke-linecap="butt"/><path d="M156.31998,152.03501c1.49394,3.42692 2.28969,5.20441 2.38725,5.33246c0.73782,-2.79886 1.16771,-4.28975 1.28967,-4.47268c2.32933,0.21341 3.494,0.39635 3.494,0.5488v0.06403c-1.63419,4.48792 -2.51227,6.83859 -2.63422,7.05201c-1.80493,0.32927 -3.01227,0.53356 -3.62204,0.61283l-4.47268,-6.62213v-0.12806c0.04269,-0.07928 1.2287,-0.87503 3.55803,-2.38726z" data-paper-data="{&quot;origPos&quot;:null}" fill="#000000" stroke="none" stroke-width="0.26458" stroke-linecap="butt"/><path d="M165.73182,148.36724l3.59461,0.56708c-0.45122,1.72565 -0.74697,2.58848 -0.88721,2.58848c-1.8903,-0.12805 -2.83543,-0.25306 -2.83543,-0.37501v-2.65251c0.01829,-0.08537 0.06098,-0.12805 0.12806,-0.12805zM164.7257,152.72101h0.05488c2.78056,0.50611 4.17084,0.80185 4.17084,0.88721c-0.7988,4.52451 -1.28357,7.04592 -1.45431,7.56423h-2.89946c-0.08537,0 -0.12805,-0.04269 -0.12805,-0.12806z" data-paper-data="{&quot;origPos&quot;:null}" fill="#000000" stroke="none" stroke-width="0.26458" stroke-linecap="butt"/><path d="M177.00955,152.03501c1.75614,1.12198 2.72568,1.76833 2.9086,1.93908c-0.63416,1.40858 -0.99697,2.11286 -1.08844,2.11286l-3.32936,-1.92994h-0.1189c0,0.06098 -0.14329,0.40245 -0.42988,1.02442c3.06716,1.65249 4.60073,2.50007 4.60073,2.54275c-0.85978,1.98785 -1.34455,3.03666 -1.45432,3.14642l-5.2044,0.30184c-2.02445,-1.34151 -3.1129,-2.04883 -3.26534,-2.12201v-0.05489c0,-0.15244 0.30184,-0.83844 0.90552,-2.05797l4.06108,2.11286l0.30184,-1.20734c-2.51227,-1.12807 -4.00621,-1.83236 -4.48183,-2.11286v-0.12806c0,-0.23172 0.48477,-1.25919 1.45432,-3.0824z" data-paper-data="{&quot;origPos&quot;:null}" fill="#000000" stroke="none" stroke-width="0.26458" stroke-linecap="butt"/><path d="M182.0859,148.36724l3.59461,0.56708c-0.45122,1.72565 -0.74697,2.58848 -0.88721,2.58848c-1.8903,-0.12805 -2.83543,-0.25306 -2.83543,-0.37501v-2.65251c0.01829,-0.08537 0.06098,-0.12805 0.12806,-0.12805zM181.07977,152.72101h0.05489c2.78056,0.50611 4.17083,0.80185 4.17083,0.88721c-0.7988,4.52451 -1.28356,7.04592 -1.45431,7.56423h-2.89947c-0.08537,0 -0.12805,-0.04269 -0.12805,-0.12806z" data-paper-data="{&quot;origPos&quot;:null}" fill="#000000" stroke="none" stroke-width="0.26458" stroke-linecap="butt"/><path d="M188.71718,149.27275l4.0245,0.71343l-0.38415,3.05496c0.7988,-0.04269 1.38417,-0.06402 1.75614,-0.06402h0.58539l0.12806,-0.06403l0.06403,0.12805c-0.12805,1.8537 -0.23781,2.89641 -0.32927,3.12813l-0.12805,-0.07317c-0.09146,0 -0.91466,-0.04269 -2.46958,-0.12806c-0.08537,1.43297 -0.1494,3.14642 -0.19207,5.14038l-0.12806,0.06403c-1.96346,-0.12804 -3.13422,-0.23781 -3.51229,-0.32928l0.06403,-0.2561c0,-0.53051 0.08537,-2.17689 0.2561,-4.93915c-1.64639,-0.09146 -2.46958,-0.20123 -2.46958,-0.32927c0.08537,-2.03663 0.19512,-3.05496 0.32927,-3.05496l2.40556,0.45734v-0.78661c0,-0.64026 -0.0244,-1.50615 -0.07318,-2.59762c0.04878,0 0.07318,-0.02134 0.07318,-0.06403z" data-paper-data="{&quot;origPos&quot;:null}" fill="#000000" stroke="none" stroke-width="0.26458" stroke-linecap="butt"/><path d="M205.38224,149.2819l0.06402,0.1189l0.47562,6.9514h0.05487l2.49702,-2.61593c1.46956,1.98176 2.22263,2.97263 2.25921,2.97263c0.63416,-3.10374 1.03052,-4.96659 1.18907,-5.58856c2.69518,0.5183 4.04278,0.83538 4.04278,0.95124c-1.62198,5.15258 -2.55188,8.06728 -2.78969,8.74413c-0.57319,0.0366 -1.84151,0.15549 -3.80498,0.35672c-0.87197,-2.08542 -1.30796,-3.15556 -1.30796,-3.21045c-0.07316,0.00609 -0.53049,0.9177 -1.37198,2.73483h-0.05487c-2.61592,-0.17684 -3.92388,-0.33538 -3.92388,-0.47562c-1.46955,-6.48187 -2.20434,-9.81123 -2.20434,-9.98807v-0.11891c0,-0.12195 1.62504,-0.39941 4.87514,-0.83235z" data-paper-data="{&quot;origPos&quot;:null}" fill="#2b70c2" stroke="none" stroke-width="0.26458" stroke-linecap="butt"/><path d="M218.23318,148.36724l3.5946,0.56708c-0.45122,1.72565 -0.74695,2.58848 -0.88721,2.58848c-1.89029,-0.12805 -2.83544,-0.25306 -2.83544,-0.37501v-2.65251c0.01829,-0.08537 0.06096,-0.12805 0.12803,-0.12805zM217.22707,152.72101h0.05487c2.78056,0.50611 4.17085,0.80185 4.17085,0.88721c-0.7988,4.52451 -1.28359,7.04592 -1.45432,7.56423h-2.89946c-0.08535,0 -0.12803,-0.04269 -0.12803,-0.12806z" data-paper-data="{&quot;origPos&quot;:null}" fill="#2b70c2" stroke="none" stroke-width="0.26458" stroke-linecap="butt"/><path d="M230.25178,152.03501l3.04582,2.09457c-0.21341,3.47571 -0.36282,5.50625 -0.44819,6.09162c-0.35366,0.04269 -1.4299,0.10672 -3.22874,0.19207l-0.06401,-0.12806l-0.32013,-4.88428l-0.12803,-0.06403c-1.16467,0.25001 -1.96653,0.43904 -2.40555,0.56708c0.12195,2.07932 0.18293,3.58241 0.18293,4.50927c-1.81713,0.50611 -2.81105,0.75917 -2.98178,0.75917c-1.18296,-5.20745 -1.77444,-7.95752 -1.77444,-8.25022c2.57324,-0.33538 3.96962,-0.50307 4.18914,-0.50307v0.06403c0.04267,0.03049 0.1067,0.66465 0.19207,1.90248c2.35983,-1.56712 3.6068,-2.35067 3.74095,-2.35067z" data-paper-data="{&quot;origPos&quot;:null}" fill="#2b70c2" stroke="none" stroke-width="0.26458" stroke-linecap="butt"/><path d="M239.73679,149.26361h0.05487c2.75617,0.23172 4.13425,0.4116 4.13425,0.53965l1.2165,10.76552c0,0.07928 -1.2165,0.2805 -3.64948,0.60368l-0.05487,-0.11891v-0.97868c-2.09762,0.56708 -3.53668,0.93295 -4.31719,1.09759c-1.8537,-2.62202 -2.82629,-4.01839 -2.91775,-4.18914c1.36588,-2.48176 2.09456,-3.7379 2.18603,-3.76838l3.83242,0.18293c-0.07925,-0.46953 -0.24086,-1.84761 -0.48477,-4.13425zM238.03553,155.82171c0.61587,1.8842 1.00003,2.91775 1.15248,3.10069l1.82016,-1.58235c-0.18903,-1.0915 -0.32927,-1.63724 -0.42074,-1.63724h-2.433c-0.07925,0.0122 -0.11889,0.05183 -0.11889,0.1189z" data-paper-data="{&quot;origPos&quot;:null}" fill="#2b70c2" stroke="none" stroke-width="0.26458" stroke-linecap="butt"/><path d="M249.77973,152.04416c2.31715,0.62197 3.54583,1.00003 3.68608,1.13419c1.27443,1.80493 1.99089,2.84458 2.14944,3.11899c-0.8232,2.60983 -1.29577,3.91473 -1.41772,3.91473c-2.74397,0.64026 -4.17999,0.96039 -4.30803,0.96039c-2.26835,-1.3232 -3.47571,-2.06103 -3.62206,-2.21347c-0.07925,-2.46347 -0.11888,-3.82327 -0.11888,-4.07937c-0.03658,-0.07317 -0.05487,-0.12804 -0.05487,-0.16464c2.34152,-1.78053 3.55191,-2.6708 3.63119,-2.6708zM249.60595,155.39181c-0.03658,0.2439 -0.09146,1.13113 -0.16463,2.66165l2.03968,0.45733c0.48782,-1.52443 0.73173,-2.33847 0.73173,-2.44213c-1.622,-0.48782 -2.49093,-0.73172 -2.60679,-0.73172z" data-paper-data="{&quot;origPos&quot;:null}" fill="#2b70c2" stroke="none" stroke-width="0.26458" stroke-linecap="butt"/><path d="M260.46295,152.03501c0.07925,0.10366 0.49084,1.872 1.23478,5.30502h0.06401c0,-0.07928 0.45123,-0.77746 1.3537,-2.09457c0.37805,0.2561 1.09759,0.811 2.15858,1.66467h0.12803v-0.06403c0.16464,-2.37811 0.28659,-3.69521 0.36587,-3.95133c2.51225,0.12805 3.76839,0.23172 3.76839,0.31098c-1.15247,4.63427 -1.76833,7.04287 -1.84762,7.22581c-0.38416,0.04269 -1.18905,0.16463 -2.4147,0.36586c-1.00612,-1.57932 -1.58236,-2.42079 -1.7287,-2.52445c-0.65856,1.75615 -1.07015,2.72263 -1.23479,2.89947h-2.46957c-0.15244,-0.04878 -0.87197,-1.63419 -2.15859,-4.75623c-0.8232,-1.74395 -1.23479,-2.68909 -1.23479,-2.83544c0,-0.13415 1.33845,-0.64941 4.01536,-1.54577z" data-paper-data="{&quot;origPos&quot;:null}" fill="#2b70c2" stroke="none" stroke-width="0.26458" stroke-linecap="butt"/><path d="M277.91461,152.03501c1.75615,1.12198 2.72568,1.76833 2.90861,1.93908c-0.63417,1.40858 -0.99696,2.11286 -1.08843,2.11286l-3.32936,-1.92994h-0.11888c0,0.06098 -0.14329,0.40245 -0.42988,1.02442c3.06716,1.65249 4.60073,2.50007 4.60073,2.54275c-0.85978,1.98785 -1.34456,3.03666 -1.45432,3.14642l-5.20441,0.30184c-2.02443,-1.34151 -3.11288,-2.04883 -3.26532,-2.12201v-0.05489c0,-0.15244 0.30184,-0.83844 0.90551,-2.05797l4.06108,2.11286l0.30184,-1.20734c-2.51225,-1.12807 -4.0062,-1.83236 -4.48182,-2.11286v-0.12806c0,-0.23172 0.48477,-1.25919 1.4543,-3.0824z" data-paper-data="{&quot;origPos&quot;:null}" fill="#2b70c2" stroke="none" stroke-width="0.26458" stroke-linecap="butt"/><path d="M294.83579,149.27275h0.06401c2.12201,1.24393 3.26533,1.89333 3.42997,1.94822v0.10976c-0.54879,0.62806 -1.56101,1.7165 -3.03667,3.26533c2.89032,1.07319 4.51232,1.71956 4.86597,1.93908l-2.68908,3.32021c-1.81712,-1.54883 -2.97875,-2.52141 -3.48485,-2.91775c-1.22563,2.39641 -1.98786,3.80804 -2.28664,4.23487h-0.06401c-2.27444,-0.7988 -3.51227,-1.27442 -3.7135,-1.42686v-0.06403l3.14641,-4.11596c-2.9208,-1.20125 -4.48486,-1.90554 -4.69219,-2.11286c1.28662,-2.18298 2.01225,-3.34766 2.17688,-3.494c0.01829,0.06098 1.42687,1.03356 4.22572,2.91775c0.99392,-1.82931 1.67993,-3.03057 2.05797,-3.60375z" data-paper-data="{&quot;origPos&quot;:null}" fill="#2b70c2" stroke="none" stroke-width="0.26458" stroke-linecap="butt"/><path d="M307.72332,149.27275l3.9879,2.9452c-0.54879,2.50616 -0.89636,3.75924 -1.0427,3.75924c-0.03049,0 -0.7622,0.61588 -2.19518,1.84762c-0.89026,-0.04269 -1.90859,-0.10061 -3.05496,-0.17379l-0.11889,3.29277c-0.25001,0.07317 -1.3293,0.14938 -3.23788,0.22867c-0.23172,0 -0.34758,-0.65551 -0.34758,-1.96651c-0.42073,-5.42697 -0.63112,-8.35388 -0.63112,-8.78071c0.71343,-0.15244 2.92692,-0.5366 6.64042,-1.15248zM305.24458,151.87038v3.81413c1.50004,-0.2683 2.25007,-0.42379 2.25007,-0.46648l0.52136,-2.25006c-0.73782,-0.30489 -1.66164,-0.67075 -2.77142,-1.09759z" data-paper-data="{&quot;origPos&quot;:null}" fill="#2b70c2" stroke="none" stroke-width="0.26458" stroke-linecap="butt"/><path d="M324.58961,149.27275c2.19518,1.10978 3.32326,1.66467 3.38423,1.66467c0,0.09757 -0.45734,0.97869 -1.37198,2.64336h-0.06401c-0.07316,0 -1.12502,-0.49696 -3.15557,-1.49089l-1.03356,1.38114c1.75005,0.84149 3.8751,1.91468 6.37517,3.21959c-1.13419,2.01834 -1.93908,3.35984 -2.4147,4.0245l-5.16782,0.45734c-2.35983,-1.5915 -3.6068,-2.4147 -3.74095,-2.46958v-0.06403c0,-0.17075 0.47867,-0.95429 1.43601,-2.35067h0.11888c0.37805,0.22561 1.56407,0.87502 3.55801,1.94822l1.20736,-1.37198c-3.66474,-1.8659 -5.69528,-2.92081 -6.09162,-3.16472v-0.05489c1.16465,-2.26835 1.79883,-3.41777 1.90249,-3.44826c3.03056,-0.61587 4.71659,-0.9238 5.05806,-0.9238z" data-paper-data="{&quot;origPos&quot;:null}" fill="#2b70c2" stroke="none" stroke-width="0.26458" stroke-linecap="butt"/><path d="M333.288,152.04416c2.75008,0.5183 4.18914,0.81404 4.3172,0.88721v0.10975c-0.59148,1.67078 -0.88723,2.53665 -0.88723,2.59762h-0.05487c-0.15244,0 -0.89026,-0.23781 -2.21348,-0.71343c-0.73782,1.23784 -1.10674,1.89944 -1.10674,1.9848l1.82931,1.77445c1.41468,-1.32931 2.13421,-1.99397 2.15859,-1.99397c1.10368,1.44517 1.65553,2.25615 1.65553,2.43299c-0.60366,0.34757 -1.65553,1.03052 -3.15557,2.04883c-2.90251,-0.62806 -4.46963,-0.97869 -4.70134,-1.05185l-1.43602,-4.64647z" data-paper-data="{&quot;origPos&quot;:null}" fill="#2b70c2" stroke="none" stroke-width="0.26458" stroke-linecap="butt"/><path d="M346.46823,152.03501c1.20734,0.67685 1.94822,1.11588 2.22261,1.31711c-0.98784,2.05494 -1.51833,3.1007 -1.5915,3.13727h-0.06401l-1.30797,-1.14333l-1.54577,1.88419l0.17379,3.42997c-0.07925,0.07317 -1.08843,0.2439 -3.02752,0.51221c-0.07316,-0.5244 -0.54879,-3.09459 -1.42688,-7.71057c0,-0.07317 1.27443,-0.26219 3.82327,-0.56708c0.04267,0.04878 0.15853,0.61891 0.34758,1.71041c1.52443,-1.71347 2.32324,-2.57019 2.39641,-2.57019z" data-paper-data="{&quot;origPos&quot;:null}" fill="#2b70c2" stroke="none" stroke-width="0.26458" stroke-linecap="butt"/><path d="M350.8037,152.03501c3.62205,0.50001 5.43308,0.80795 5.43308,0.92381c1.42686,1.22564 2.14029,1.88114 2.14029,1.96651c-0.57928,1.81102 -0.90855,2.91166 -0.98782,3.30191c0.57928,1.28662 0.90855,2.05494 0.98782,2.30495c0,0.07317 -0.94515,0.2683 -2.83544,0.58539c-0.02438,-0.10366 -0.19817,-0.33538 -0.52135,-0.69514c-2.60983,0.50001 -4.01535,0.75002 -4.21658,0.75002l-1.39028,-3.75924l3.06411,-1.61894c0.49391,0.07928 1.26526,0.11891 2.31408,0.11891c0,-0.13415 0.01829,-0.53965 0.05487,-1.2165c-0.17683,0 -1.75614,0.11586 -4.73793,0.34757l-0.05487,-0.11891c0.41465,-1.92688 0.66466,-2.89032 0.75001,-2.89032zM352.70619,157.4132c0,0.06707 0.19513,0.7805 0.58537,2.1403h0.05487c0.76831,-0.50001 1.15247,-0.82929 1.15247,-0.98783l0.11888,-0.97869c-0.14634,0 -0.78355,-0.05793 -1.91162,-0.17379z" data-paper-data="{&quot;origPos&quot;:null}" fill="#2b70c2" stroke="none" stroke-width="0.26458" stroke-linecap="butt"/><path d="M359.25515,149.2819c1.8659,0.0366 3.23485,0.05489 4.10682,0.05489c0.07925,0 0.32011,3.744 0.72257,11.232c-0.31099,0.07928 -1.39637,0.2805 -3.25617,0.60368c-0.09145,0 -0.39329,-2.29275 -0.90552,-6.87823c-0.04267,-0.10976 -0.26524,-1.78053 -0.66771,-5.01232z" data-paper-data="{&quot;origPos&quot;:null}" fill="#2b70c2" stroke="none" stroke-width="0.26458" stroke-linecap="butt"/><path d="M366.49924,152.03501c3.62205,0.50001 5.43307,0.80795 5.43307,0.92381c1.42686,1.22564 2.14029,1.88114 2.14029,1.96651c-0.57928,1.81102 -0.90855,2.91166 -0.98782,3.30191c0.57928,1.28662 0.90855,2.05494 0.98782,2.30495c0,0.07317 -0.94515,0.2683 -2.83543,0.58539c-0.02438,-0.10366 -0.19818,-0.33538 -0.52136,-0.69514c-2.60983,0.50001 -4.01534,0.75002 -4.21657,0.75002l-1.39029,-3.75924l3.06412,-1.61894c0.49391,0.07928 1.26526,0.11891 2.31408,0.11891c0,-0.13415 0.01829,-0.53965 0.05487,-1.2165c-0.17683,0 -1.75614,0.11586 -4.73793,0.34757l-0.05487,-0.11891c0.41465,-1.92688 0.66465,-2.89032 0.75001,-2.89032zM368.40174,157.4132c0,0.06707 0.19513,0.7805 0.58537,2.1403h0.05487c0.7683,-0.50001 1.15246,-0.82929 1.15246,-0.98783l0.11888,-0.97869c-0.14634,0 -0.78355,-0.05793 -1.91163,-0.17379z" data-paper-data="{&quot;origPos&quot;:null}" fill="#2b70c2" stroke="none" stroke-width="0.26458" stroke-linecap="butt"/><path d="M381.45389,152.03501h0.03657c1.62809,0.95735 2.50616,1.45736 2.63421,1.50004v0.08231c-0.42073,0.48171 -1.19514,1.31711 -2.32322,2.50616c2.21346,0.8232 3.4574,1.32017 3.73179,1.49089l-2.06712,2.5519c-1.39637,-1.19516 -2.28664,-1.94214 -2.6708,-2.24092c-0.94515,1.84151 -1.53358,2.92387 -1.7653,3.24705h-0.03658c-1.75004,-0.61587 -2.7013,-0.98173 -2.85374,-1.09759v-0.04574l2.4147,-3.15556c-2.24396,-0.92686 -3.4452,-1.46954 -3.60375,-1.62809c0.98784,-1.67687 1.54272,-2.57019 1.66467,-2.67995c0.01829,0.04269 1.10368,0.78966 3.25619,2.24092c0.76223,-1.40858 1.28967,-2.33238 1.58236,-2.77142z" data-paper-data="{&quot;origPos&quot;:null}" fill="#2b70c2" stroke="none" stroke-width="0.26458" stroke-linecap="butt"/><path d="M390.57303,152.05332c0.08535,0.0122 0.12803,0.05489 0.12803,0.12806l-0.95125,5.26842c1.81712,-0.21341 2.72568,-0.38416 2.72568,-0.51221c0.34147,-2.1098 0.57624,-3.29277 0.70429,-3.54887c2.25006,0.46343 3.49703,0.73783 3.74095,0.8232c-1.31101,4.50621 -2.03054,6.85383 -2.15859,7.04286c-2.29275,1.6098 -3.58241,2.50007 -3.869,2.6708c-0.08535,0 -1.54576,-0.35976 -4.38121,-1.0793v-0.06403c0.75001,-1.65249 1.21649,-2.47872 1.39943,-2.47872l2.7897,1.39943l1.3354,-2.28664c-1.20125,0.29879 -1.89943,0.44818 -2.09455,0.44818l-3.55803,-1.84762c0.43293,-3.97571 0.70734,-5.96356 0.8232,-5.96356z" data-paper-data="{&quot;origPos&quot;:null}" fill="#2b70c2" stroke="none" stroke-width="0.26458" stroke-linecap="butt"/><path d="M401.84161,149.61117l0.03658,0.07317c-0.60977,5.38428 -0.95124,8.21363 -1.02441,8.48803c-1.29271,-0.12195 -2.10982,-0.20732 -2.45129,-0.2561v-0.03657l-0.58537,-7.64655c0.14634,-0.04878 1.48784,-0.25609 4.02449,-0.62196zM398.21957,158.3553c0.04267,0.02438 0.99393,0.09755 2.85374,0.21952l0.03658,0.07318c-0.28661,1.68297 -0.46953,2.52445 -0.54879,2.52445h-2.12201c-0.07316,0 -0.17073,-0.84149 -0.29269,-2.52445c-0.02438,0 -0.03658,-0.07318 -0.03658,-0.21953c0.07316,-0.02439 0.10974,-0.04879 0.10974,-0.07317z" data-paper-data="{&quot;origPos&quot;:null}" fill="#000000" stroke="none" stroke-width="0.26458" stroke-linecap="butt"/></g></g></svg>