<svg version="1.1" xmlns="http://www.w3.org/2000/svg" xmlns:xlink="http://www.w3.org/1999/xlink" width="437" height="90.79587" viewBox="0,0,437,90.79587"><defs><linearGradient x1="240" y1="135.60206" x2="240" y2="224.39795" gradientUnits="userSpaceOnUse" id="color-1"><stop offset="0" stop-color="#ffffff"/><stop offset="1" stop-color="#d8d8d8"/></linearGradient><linearGradient x1="240" y1="135.60208" x2="240" y2="224.39795" gradientUnits="userSpaceOnUse" id="color-2"><stop offset="0" stop-color="#343434"/><stop offset="1" stop-color="#090909"/></linearGradient><radialGradient cx="443.8065" cy="206.54466" r="17.9081" gradientUnits="userSpaceOnUse" id="color-3"><stop offset="0" stop-color="#ffffff"/><stop offset="1" stop-color="#e5e5e5"/></radialGradient></defs><g transform="translate(-21.5,-134.60208)"><g data-paper-data="{&quot;isPaintingLayer&quot;:true}" fill-rule="nonzero" stroke-linejoin="miter" stroke-miterlimit="10" stroke-dasharray="" stroke-dashoffset="0" style="mix-blend-mode: normal"><path d="M22.5,224.39795v-88.79587h435v88.79587z" data-paper-data="{&quot;origPos&quot;:null}" fill="url(#color-1)" stroke="url(#color-2)" stroke-width="2" stroke-linecap="butt"/><g data-paper-data="{&quot;origPos&quot;:null}"><path d="M444.3058,202.09868c2.5136,0 4.7909,1.0212 6.4406,2.6702c1.6489,1.6496 2.6702,3.9269 2.6702,6.4405c0,2.5136 -1.0213,4.791 -2.6702,6.4406c-1.6497,1.649 -3.927,2.6702 -6.4406,2.6702c-2.5136,0 -4.7909,-1.0212 -6.4406,-2.6702c-1.6489,-1.6496 -2.6701,-3.927 -2.6701,-6.4406c0,-2.5136 1.0212,-4.7909 2.6701,-6.4405c1.6497,-1.649 3.927,-2.6702 6.4406,-2.6702z" fill="url(#color-3)" stroke="#000000" stroke-width="2.0785" stroke-linecap="butt"/><path d="M441.2734,206.54886l5.6119,0.4503l1.7321,3.187l-3.6374,2.9446l3.3603,-0.5197l0.7967,3.4642l-7.4479,-0.0693l-1.9053,-2.4249l4.6766,-3.3256l-4.5727,-0.3464z" fill="#000000" stroke="none" stroke-width="0.69283" stroke-linecap="round"/></g><g stroke="none" stroke-width="0.26458" stroke-linecap="butt"><path d="M40.784,146.86207c3.285,1.279 4.927,1.959 4.927,2.04c-1.051,2.146 -1.576,3.263 -1.576,3.351c-0.022,0 -0.044,0 -0.066,0c-0.471,-0.132 -1.503,-0.591 -3.098,-1.378c-0.875,0.614 -1.749,1.228 -2.624,1.841c0,2.279 0.129,3.418 0.386,3.418c0.169,0.088 1.268,0.529 3.296,1.323c0.779,-0.772 1.569,-1.518 2.371,-2.238c0.146,0.132 0.804,1.183 1.973,3.153c0,0.066 0,0.132 0,0.198c-0.074,0 -1.698,0.878 -4.873,2.635c-4.057,-1.36 -6.14,-2.084 -6.251,-2.172l-1.973,-6.515c1.852,-2.631 2.796,-3.947 2.833,-3.947c0.081,0 1.639,-0.57 4.675,-1.709z" data-paper-data="{&quot;origPos&quot;:null}" fill="#000000"/><path d="M47.652,146.87307c2.249,0.044 3.899,0.066 4.95,0.066c0.095,0 0.385,4.513 0.871,13.538c-0.375,0.096 -1.684,0.338 -3.925,0.728c-0.11,0 -0.474,-2.764 -1.092,-8.29c-0.051,-0.133 -0.319,-2.146 -0.804,-6.042z" data-paper-data="{&quot;origPos&quot;:null}" fill="#000000"/><path d="M56.229,145.77108c1.444,0.228 2.888,0.456 4.332,0.683c-0.544,2.08 -0.9,3.12 -1.069,3.12c-2.279,-0.154 -3.418,-0.305 -3.418,-0.452c0,-1.065 0,-2.131 0,-3.197c0.022,-0.103 0.074,-0.154 0.155,-0.154zM55.016,151.01806c0.022,0 0.044,0 0.066,0c3.351,0.61 5.027,0.967 5.027,1.07c-0.963,5.453 -1.547,8.492 -1.753,9.117c-1.165,0 -2.33,0 -3.494,0c-0.103,0 -0.155,-0.052 -0.155,-0.154c0.103,-3.344 0.206,-6.688 0.309,-10.033z" data-paper-data="{&quot;origPos&quot;:null}" fill="#000000"/><path d="M65.213,150.20306c3.315,0.624 5.05,0.981 5.204,1.069c0,0.044 0,0.088 0,0.132c-0.713,2.014 -1.069,3.058 -1.069,3.131c-0.023,0 -0.045,0 -0.067,0c-0.183,0 -1.073,-0.286 -2.668,-0.86c-0.889,1.492 -1.333,2.29 -1.333,2.393l2.204,2.138c1.705,-1.602 2.573,-2.403 2.602,-2.403c1.33,1.742 1.996,2.719 1.996,2.932c-0.728,0.419 -1.996,1.243 -3.804,2.47c-3.498,-0.757 -5.387,-1.18 -5.666,-1.268l-1.731,-5.6z" data-paper-data="{&quot;origPos&quot;:null}" fill="#000000"/><path d="M78.046,146.86207c0.103,0.294 0.334,2.378 0.694,6.251c1.103,-1.235 2.205,-2.469 3.308,-3.704c0.025,0 0.051,0 0.077,0c0.514,0.426 1.466,1.327 2.855,2.701v0.077l-3.164,2.613c2.381,1.595 3.642,2.495 3.781,2.701c-1.499,1.668 -2.399,2.62 -2.701,2.855l-3.847,-3.55c0.154,1.588 0.231,2.771 0.231,3.55c-0.183,0.103 -1.547,0.386 -4.09,0.849c-0.205,-1.029 -0.874,-5.45 -2.006,-13.262c0.47,-0.155 2.091,-0.515 4.862,-1.081z" data-paper-data="{&quot;origPos&quot;:null}" fill="#000000"/><path d="M93.821,150.19206c4.366,0.602 6.549,0.973 6.549,1.113c1.72,1.477 2.58,2.267 2.58,2.37c-0.699,2.183 -1.095,3.51 -1.191,3.98c0.698,1.551 1.095,2.477 1.191,2.778c0,0.088 -1.14,0.324 -3.418,0.706c-0.029,-0.125 -0.239,-0.404 -0.628,-0.838c-3.146,0.603 -4.84,0.904 -5.083,0.904l-1.675,-4.531l3.693,-1.951c0.595,0.095 1.525,0.143 2.789,0.143c0,-0.162 0.022,-0.65 0.066,-1.466c-0.213,0 -2.116,0.139 -5.71,0.419c-0.022,-0.048 -0.044,-0.096 -0.067,-0.144c0.5,-2.322 0.802,-3.483 0.904,-3.483zM96.115,156.67406c0,0.081 0.235,0.941 0.705,2.58c0.022,0 0.044,0 0.066,0c0.926,-0.603 1.389,-1 1.389,-1.191c0.048,-0.393 0.096,-0.786 0.144,-1.18c-0.177,0 -0.945,-0.069 -2.304,-0.209z" data-paper-data="{&quot;origPos&quot;:null}" fill="#000000"/><path d="M118.505,150.19206c2.117,1.352 3.285,2.131 3.506,2.337c-0.765,1.698 -1.202,2.546 -1.312,2.546l-4.013,-2.326c-0.048,0 -0.096,0 -0.143,0c0,0.074 -0.173,0.485 -0.519,1.235c3.697,1.992 5.546,3.013 5.546,3.065c-1.037,2.396 -1.621,3.66 -1.753,3.792c-2.091,0.121 -4.182,0.243 -6.273,0.364c-2.44,-1.617 -3.752,-2.47 -3.936,-2.558c0,-0.022 0,-0.044 0,-0.066c0,-0.184 0.364,-1.01 1.092,-2.48c1.631,0.849 3.263,1.697 4.894,2.546c0.122,-0.485 0.243,-0.97 0.364,-1.455c-3.028,-1.36 -4.828,-2.208 -5.402,-2.547v-0.154c0,-0.279 0.585,-1.518 1.753,-3.715c2.065,-0.195 4.131,-0.39 6.196,-0.584z" data-paper-data="{&quot;origPos&quot;:null}" fill="#2b70c2"/><path d="M126.398,146.86207c1.617,0.287 3.234,0.574 4.851,0.86c-0.154,1.228 -0.309,2.455 -0.463,3.682c0.963,-0.051 1.668,-0.077 2.117,-0.077c0.235,0 0.47,0 0.705,0l0.155,-0.077l0.077,0.154c-0.155,2.235 -0.287,3.491 -0.397,3.771c-0.052,-0.03 -0.103,-0.059 -0.154,-0.089c-0.111,0 -1.103,-0.051 -2.977,-0.154c-0.103,1.727 -0.18,3.792 -0.232,6.196l-0.154,0.077c-2.366,-0.154 -3.778,-0.287 -4.233,-0.397l0.077,-0.309c0,-0.639 0.103,-2.623 0.309,-5.953c-1.985,-0.11 -2.977,-0.242 -2.977,-0.397c0.103,-2.454 0.235,-3.682 0.397,-3.682c0.966,0.184 1.933,0.368 2.899,0.551v-0.948c0,-0.771 -0.029,-1.815 -0.088,-3.131c0.059,0 0.088,-0.025 0.088,-0.077z" data-paper-data="{&quot;origPos&quot;:null}" fill="#2b70c2"/><path d="M136.684,150.19206c4.366,0.602 6.548,0.973 6.548,1.113c1.72,1.477 2.58,2.267 2.58,2.37c-0.698,2.183 -1.095,3.51 -1.191,3.98c0.699,1.551 1.096,2.477 1.191,2.778c0,0.088 -1.139,0.324 -3.417,0.706c-0.03,-0.125 -0.239,-0.404 -0.629,-0.838c-3.145,0.603 -4.839,0.904 -5.082,0.904l-1.676,-4.531l3.693,-1.951c0.596,0.095 1.525,0.143 2.79,0.143c0,-0.162 0.022,-0.65 0.066,-1.466c-0.213,0 -2.117,0.139 -5.711,0.419c-0.022,-0.048 -0.044,-0.096 -0.066,-0.144c0.5,-2.322 0.801,-3.483 0.904,-3.483zM138.977,156.67406c0,0.081 0.235,0.941 0.706,2.58c0.022,0 0.044,0 0.066,0c0.926,-0.603 1.389,-1 1.389,-1.191c0.048,-0.393 0.095,-0.786 0.143,-1.18c-0.176,0 -0.944,-0.069 -2.304,-0.209z" data-paper-data="{&quot;origPos&quot;:null}" fill="#2b70c2"/><path d="M154.786,150.19206c1.455,0.815 2.348,1.345 2.679,1.587c-1.191,2.477 -1.83,3.737 -1.918,3.781c-0.026,0 -0.052,0 -0.078,0l-1.576,-1.378l-1.863,2.271l0.209,4.135c-0.095,0.088 -1.312,0.294 -3.649,0.617c-0.088,-0.632 -0.661,-3.73 -1.72,-9.294c0,-0.088 1.536,-0.316 4.609,-0.683c0.051,0.059 0.191,0.746 0.418,2.061c1.838,-2.065 2.801,-3.097 2.889,-3.097z" data-paper-data="{&quot;origPos&quot;:null}" fill="#2b70c2"/><path d="M167.232,146.86207c1.617,0.287 3.234,0.574 4.851,0.86c-0.008,0.064 -0.455,3.619 -0.463,3.682c0.963,-0.051 1.668,-0.077 2.117,-0.077c0.235,0 0.47,0 0.705,0l0.155,-0.077c0.025,0.051 0.051,0.103 0.077,0.154c-0.155,2.235 -0.287,3.491 -0.397,3.771l-0.154,-0.089c-0.111,0 -1.103,-0.051 -2.977,-0.154c-0.103,1.727 -0.18,3.792 -0.232,6.196l-0.154,0.077c-2.366,-0.154 -3.778,-0.287 -4.233,-0.397c0.025,-0.103 0.051,-0.206 0.077,-0.309c0,-0.639 0.103,-2.623 0.309,-5.953c-1.985,-0.11 -2.977,-0.242 -2.977,-0.397c0.103,-2.454 0.235,-3.682 0.397,-3.682c0.966,0.184 1.933,0.368 2.899,0.551v-0.948c0,-0.771 -0.029,-1.815 -0.088,-3.131c0.059,0 0.088,-0.025 0.088,-0.077z" data-paper-data="{&quot;origPos&quot;:null}" fill="#000000"/><path d="M180.285,150.20306c2.793,0.749 4.274,1.205 4.443,1.367c1.536,2.175 2.4,3.428 2.591,3.759c-0.993,3.146 -1.562,4.718 -1.709,4.718c-3.307,0.772 -5.038,1.158 -5.193,1.158c-2.734,-1.595 -4.189,-2.484 -4.365,-2.668c-0.096,-2.969 -0.144,-4.608 -0.144,-4.917c-0.044,-0.088 -0.066,-0.154 -0.066,-0.198c2.823,-2.146 4.281,-3.219 4.377,-3.219zM180.076,154.23806c-0.044,0.294 -0.111,1.363 -0.199,3.208c0.82,0.183 1.639,0.367 2.459,0.551c0.588,-1.838 0.882,-2.819 0.882,-2.944c-1.955,-0.588 -3.003,-0.882 -3.142,-0.882c0,0.022 0,0.045 0,0.067z" data-paper-data="{&quot;origPos&quot;:null}" fill="#000000"/><path d="M202.819,150.19206c2.116,1.352 3.285,2.131 3.506,2.337c-0.765,1.698 -1.202,2.546 -1.312,2.546l-4.013,-2.326c-0.048,0 -0.096,0 -0.144,0c0,0.074 -0.172,0.485 -0.518,1.235c3.697,1.992 5.546,3.013 5.546,3.065c-1.037,2.396 -1.621,3.66 -1.753,3.792c-2.091,0.121 -4.182,0.243 -6.273,0.364c-2.44,-1.617 -3.752,-2.47 -3.936,-2.558c0,-0.022 0,-0.044 0,-0.066c0,-0.184 0.364,-1.01 1.092,-2.48l4.894,2.546c0.122,-0.485 0.243,-0.97 0.364,-1.455c-3.028,-1.36 -4.828,-2.208 -5.402,-2.547c0,-0.051 0,-0.102 0,-0.154c0,-0.279 0.585,-1.518 1.753,-3.715c2.065,-0.195 4.131,-0.39 6.196,-0.584z" data-paper-data="{&quot;origPos&quot;:null}" fill="#000000"/><path d="M210.712,146.86207c1.617,0.287 3.234,0.574 4.851,0.86c-0.154,1.228 -0.309,2.455 -0.463,3.682c0.963,-0.051 1.668,-0.077 2.117,-0.077c0.235,0 0.47,0 0.705,0c0.052,-0.026 0.103,-0.051 0.154,-0.077l0.078,0.154c-0.155,2.235 -0.287,3.491 -0.397,3.771l-0.155,-0.089c-0.11,0 -1.102,-0.051 -2.976,-0.154c-0.103,1.727 -0.18,3.792 -0.232,6.196l-0.154,0.077c-2.367,-0.154 -3.778,-0.287 -4.233,-0.397c0.025,-0.103 0.051,-0.206 0.077,-0.309c0,-0.639 0.103,-2.623 0.309,-5.953c-1.985,-0.11 -2.977,-0.242 -2.977,-0.397c0.103,-2.454 0.235,-3.682 0.397,-3.682l2.899,0.551v-0.948c0,-0.771 -0.029,-1.815 -0.088,-3.131c0.059,0 0.088,-0.025 0.088,-0.077z" data-paper-data="{&quot;origPos&quot;:null}" fill="#000000"/><path d="M220.998,150.19206c4.365,0.602 6.548,0.973 6.548,1.113c1.72,1.477 2.58,2.267 2.58,2.37c-0.698,2.183 -1.095,3.51 -1.191,3.98c0.699,1.551 1.095,2.477 1.191,2.778c0,0.088 -1.139,0.324 -3.418,0.706c-0.029,-0.125 -0.238,-0.404 -0.628,-0.838c-3.146,0.603 -4.84,0.904 -5.082,0.904c-0.559,-1.51 -1.117,-3.021 -1.676,-4.531c1.231,-0.651 2.462,-1.301 3.693,-1.951c0.596,0.095 1.525,0.143 2.789,0.143c0,-0.162 0.022,-0.65 0.067,-1.466c-0.214,0 -2.117,0.139 -5.711,0.419c-0.022,-0.048 -0.044,-0.096 -0.066,-0.144c0.5,-2.322 0.801,-3.483 0.904,-3.483zM223.291,156.67406c0,0.081 0.235,0.941 0.705,2.58c0.022,0 0.045,0 0.067,0c0.926,-0.603 1.389,-1 1.389,-1.191l0.143,-1.18c-0.176,0 -0.944,-0.069 -2.304,-0.209z" data-paper-data="{&quot;origPos&quot;:null}" fill="#000000"/><path d="M239.1,150.19206c1.455,0.815 2.348,1.345 2.679,1.587c-1.191,2.477 -1.83,3.737 -1.919,3.781c-0.025,0 -0.051,0 -0.077,0l-1.576,-1.378l-1.863,2.271c0.01,0.211 0.198,3.924 0.209,4.135c-0.095,0.088 -1.312,0.294 -3.649,0.617c-0.088,-0.632 -0.661,-3.73 -1.72,-9.294c0,-0.088 1.536,-0.316 4.608,-0.683c0.052,0.059 0.192,0.746 0.419,2.061c1.838,-2.065 2.801,-3.097 2.889,-3.097z" data-paper-data="{&quot;origPos&quot;:null}" fill="#000000"/><path d="M245.946,146.86207c1.617,0.287 3.234,0.574 4.851,0.86c-0.155,1.228 -0.309,2.455 -0.463,3.682c0.962,-0.051 1.668,-0.077 2.116,-0.077c0.235,0 0.471,0 0.706,0c0.051,-0.026 0.103,-0.051 0.154,-0.077c0.026,0.051 0.052,0.103 0.077,0.154c-0.154,2.235 -0.286,3.491 -0.397,3.771l-0.154,-0.089c-0.11,0 -1.102,-0.051 -2.976,-0.154c-0.103,1.727 -0.181,3.792 -0.232,6.196l-0.154,0.077c-2.367,-0.154 -3.778,-0.287 -4.234,-0.397c0.026,-0.103 0.052,-0.206 0.078,-0.309c0,-0.639 0.102,-2.623 0.308,-5.953c-1.984,-0.11 -2.976,-0.242 -2.976,-0.397c0.103,-2.454 0.235,-3.682 0.397,-3.682l2.899,0.551v-0.948c0,-0.771 -0.029,-1.815 -0.088,-3.131c0.059,0 0.088,-0.025 0.088,-0.077z" data-paper-data="{&quot;origPos&quot;:null}" fill="#000000"/><path d="M261.832,150.19206c4.366,0.602 6.548,0.973 6.548,1.113c1.72,1.477 2.58,2.267 2.58,2.37c-0.698,2.183 -1.095,3.51 -1.191,3.98c0.699,1.551 1.095,2.477 1.191,2.778c0,0.088 -1.139,0.324 -3.418,0.706c-0.029,-0.125 -0.238,-0.404 -0.628,-0.838c-3.146,0.603 -4.84,0.904 -5.082,0.904l-1.676,-4.531c1.231,-0.651 2.462,-1.301 3.693,-1.951c0.596,0.095 1.525,0.143 2.789,0.143c0,-0.162 0.022,-0.65 0.067,-1.466c-0.214,0 -2.117,0.139 -5.711,0.419c-0.022,-0.048 -0.044,-0.096 -0.066,-0.144c0.5,-2.322 0.801,-3.483 0.904,-3.483zM264.125,156.67406c0,0.081 0.235,0.941 0.705,2.58c0.022,0 0.045,0 0.067,0c0.926,-0.603 1.389,-1 1.389,-1.191l0.143,-1.18c-0.176,0 -0.944,-0.069 -2.304,-0.209z" data-paper-data="{&quot;origPos&quot;:null}" fill="#2b70c2"/><path d="M289.867,150.19206c1.793,0.742 3.34,1.44 4.641,2.094c-0.338,4.373 -0.555,6.766 -0.651,7.177c-2.16,0.537 -3.369,0.805 -3.626,0.805c0,-0.956 -0.074,-2.841 -0.221,-5.656c-0.816,0.081 -1.224,0.151 -1.224,0.21c0,0.279 0.048,1.874 0.144,4.784c0.044,0 0.066,0.026 0.066,0.078c0,0.088 -1.136,0.33 -3.407,0.727c-0.095,-0.117 -0.386,-1.907 -0.871,-5.369c-0.918,0.236 -1.378,0.405 -1.378,0.507c0.021,0.213 0.42,4.286 0.441,4.498c-0.088,0.096 -1.297,0.482 -3.627,1.158c-1.352,-4.785 -2.197,-7.996 -2.535,-9.635c2.55,-0.632 3.976,-0.948 4.277,-0.948c0.338,1.337 0.507,2.109 0.507,2.315c0.026,0 0.052,0 0.077,0c1.242,-1.147 2.11,-1.919 2.602,-2.315c0.026,0 0.052,0 0.077,0l2.315,1.664c0.026,0 0.052,0 0.078,0c1.448,-1.396 2.219,-2.094 2.315,-2.094z" data-paper-data="{&quot;origPos&quot;:null}" fill="#2b70c2"/><path d="M297.088,145.77108c1.444,0.228 2.888,0.456 4.332,0.683c-0.544,2.08 -0.9,3.12 -1.069,3.12c-2.279,-0.154 -3.418,-0.305 -3.418,-0.452c0,-1.065 0,-2.131 0,-3.197c0.022,-0.103 0.074,-0.154 0.155,-0.154zM295.875,151.01806c0.022,0 0.044,0 0.066,0c3.351,0.61 5.027,0.967 5.027,1.07c-0.963,5.453 -1.547,8.492 -1.753,9.117c-1.165,0 -2.33,0 -3.494,0c-0.103,0 -0.155,-0.052 -0.155,-0.154c-0.027,0.89 0.336,-10.923 0.309,-10.033z" data-paper-data="{&quot;origPos&quot;:null}" fill="#2b70c2"/><path d="M310.637,150.19206c2.116,1.352 3.285,2.131 3.505,2.337c-0.764,1.698 -1.201,2.546 -1.312,2.546l-4.013,-2.326c-0.047,0 -0.095,0 -0.143,0c0,0.074 -0.173,0.485 -0.518,1.235c3.697,1.992 5.545,3.013 5.545,3.065c-1.036,2.396 -1.62,3.66 -1.753,3.792c-2.091,0.121 -4.181,0.243 -6.272,0.364c-2.44,-1.617 -3.752,-2.47 -3.936,-2.558c0,-0.022 0,-0.044 0,-0.066c0,-0.184 0.364,-1.01 1.091,-2.48l4.895,2.546c-0.009,0.038 0.373,-1.492 0.364,-1.455c-3.028,-1.36 -4.829,-2.208 -5.402,-2.547c0,-0.051 0,-0.102 0,-0.154c0,-0.279 0.584,-1.518 1.753,-3.715c2.065,-0.195 4.13,-0.39 6.196,-0.584z" data-paper-data="{&quot;origPos&quot;:null}" fill="#2b70c2"/><path d="M324.13,150.19206c2.117,1.352 3.285,2.131 3.506,2.337c-0.764,1.698 -1.202,2.546 -1.312,2.546c-1.338,-0.775 -2.675,-1.55 -4.013,-2.326c-0.048,0 -0.095,0 -0.143,0c0,0.074 -0.173,0.485 -0.518,1.235c3.697,1.992 5.545,3.013 5.545,3.065c-1.036,2.396 -1.621,3.66 -1.753,3.792c-2.091,0.121 -4.182,0.243 -6.273,0.364c-2.44,-1.617 -3.752,-2.47 -3.935,-2.558c0,-0.022 0,-0.044 0,-0.066c0,-0.184 0.363,-1.01 1.091,-2.48l4.895,2.546c0.364,-1.455 0,0 0.364,-1.455c-3.028,-1.36 -4.829,-2.208 -5.402,-2.547v-0.154c0,-0.279 0.584,-1.518 1.753,-3.715c2.065,-0.195 4.13,-0.39 6.195,-0.584z" data-paper-data="{&quot;origPos&quot;:null}" fill="#2b70c2"/><path d="M330.249,145.77108c1.444,0.228 2.888,0.456 4.332,0.683c-0.544,2.08 -0.9,3.12 -1.069,3.12c-2.278,-0.154 -3.418,-0.305 -3.418,-0.452c0,-1.065 0,-2.131 0,-3.197c0.022,-0.103 0.074,-0.154 0.155,-0.154zM329.036,151.01806c0.022,0 0.044,0 0.066,0c3.352,0.61 5.027,0.967 5.027,1.07c-0.963,5.453 -1.547,8.492 -1.753,9.117c-1.165,0 -2.329,0 -3.494,0c-0.103,0 -0.155,-0.052 -0.155,-0.154z" data-paper-data="{&quot;origPos&quot;:null}" fill="#2b70c2"/><path d="M339.344,150.20306c2.793,0.749 4.274,1.205 4.443,1.367c1.536,2.175 2.399,3.428 2.59,3.759c-0.992,3.146 -1.561,4.718 -1.708,4.718c-3.308,0.772 -5.039,1.158 -5.193,1.158c-2.734,-1.595 -4.189,-2.484 -4.366,-2.668c-0.095,-2.969 -0.143,-4.608 -0.143,-4.917c-0.044,-0.088 -0.066,-0.154 -0.066,-0.198c2.822,-2.146 4.281,-3.219 4.377,-3.219zM339.134,154.23806c-0.044,0.294 -0.11,1.363 -0.198,3.208c0.819,0.183 1.639,0.367 2.458,0.551c0.588,-1.838 0.882,-2.819 0.882,-2.944c-1.955,-0.588 -3.002,-0.882 -3.142,-0.882c0,0.022 0,0.045 0,0.067z" data-paper-data="{&quot;origPos&quot;:null}" fill="#2b70c2"/><path d="M357.17,150.19206l3.671,2.524c-0.257,4.189 -0.437,6.637 -0.54,7.342c-0.426,0.052 -1.723,0.129 -3.892,0.232l-0.077,-0.154c0.011,0.163 -0.396,-6.051 -0.386,-5.887c-0.051,-0.026 -0.103,-0.052 -0.154,-0.078c-1.404,0.302 -2.37,0.53 -2.899,0.684c0.147,2.506 0.22,4.318 0.22,5.435c-2.19,0.61 -3.388,0.915 -3.594,0.915c-1.426,-6.277 -2.139,-9.591 -2.139,-9.944c3.102,-0.404 4.785,-0.606 5.05,-0.606v0.077c0.051,0.037 0.128,0.801 0.231,2.293c2.844,-1.889 4.347,-2.833 4.509,-2.833z" data-paper-data="{&quot;origPos&quot;:null}" fill="#2b70c2"/><path d="M362.109,157.80906c0.051,0.03 1.198,0.118 3.44,0.265c0.014,0.029 0.029,0.059 0.044,0.088c-0.346,2.029 -0.566,3.043 -0.662,3.043c-0.852,0 -1.705,0 -2.557,0c-0.089,0 -0.206,-1.014 -0.353,-3.043c-0.03,0 -0.044,-0.088 -0.044,-0.264c0.088,-0.03 0.132,-0.059 0.132,-0.089z" data-paper-data="{&quot;origPos&quot;:null}" fill="#2b70c2"/><path d="M37.609,174.20306c3.314,0.624 5.049,0.981 5.203,1.069c0,0.044 0,0.088 0,0.132c-0.713,2.014 -1.069,3.058 -1.069,3.131c-0.022,0 -0.044,0 -0.066,0c-0.184,0 -1.074,-0.286 -2.668,-0.86c-0.89,1.492 -1.334,2.29 -1.334,2.393c0.735,0.712 1.47,1.425 2.205,2.138c1.705,-1.602 2.572,-2.403 2.601,-2.403c1.331,1.742 1.996,2.719 1.996,2.932c-0.728,0.419 -1.996,1.243 -3.804,2.47c-3.498,-0.757 -5.387,-1.18 -5.666,-1.268c-0.577,-1.867 -1.154,-3.733 -1.731,-5.6c1.444,-1.378 2.888,-2.756 4.333,-4.134z" data-paper-data="{&quot;origPos&quot;:null}" fill="#000000"/><path d="M50.022,174.20306c2.793,0.749 4.274,1.205 4.443,1.367c1.536,2.175 2.399,3.428 2.59,3.759c-0.992,3.146 -1.561,4.718 -1.708,4.718c-3.308,0.772 -5.038,1.158 -5.193,1.158c-2.734,-1.595 -4.189,-2.484 -4.365,-2.668c-0.096,-2.969 -0.144,-4.608 -0.144,-4.917c-0.044,-0.088 -0.066,-0.154 -0.066,-0.198c2.822,-2.146 4.281,-3.219 4.377,-3.219c0.022,0 0.044,0 0.066,0zM49.812,178.23806c-0.044,0.294 -0.11,1.363 -0.198,3.208l2.458,0.551c0.588,-1.838 0.882,-2.819 0.882,-2.944c-1.955,-0.588 -3.002,-0.882 -3.142,-0.882c0,0.022 0,0.045 0,0.067z" data-paper-data="{&quot;origPos&quot;:null}" fill="#000000"/><path d="M58.059,170.87307c2.249,0.044 3.899,0.066 4.95,0.066c0.095,0 0.385,4.513 0.87,13.538c-0.374,0.096 -1.683,0.338 -3.924,0.728c-0.11,0 -0.474,-2.764 -1.092,-8.29c-0.051,-0.133 -0.319,-2.146 -0.804,-6.042z" data-paper-data="{&quot;origPos&quot;:null}" fill="#000000"/><path d="M65.114,170.87307c2.249,0.044 3.899,0.066 4.95,0.066c0.096,0 0.386,4.513 0.871,13.538c-0.375,0.096 -1.683,0.338 -3.925,0.728c-0.11,0 -0.474,-2.764 -1.091,-8.29c-0.051,-0.133 -0.32,-2.146 -0.805,-6.042z" data-paper-data="{&quot;origPos&quot;:null}" fill="#000000"/><path d="M78.421,174.20306c3.329,1.712 5.174,2.712 5.534,2.998c-0.478,2.235 -0.761,3.385 -0.849,3.451c-2.323,0 -4.645,0 -6.968,0c0,0.04 0,0.081 0,0.121c0.651,0.805 1.301,1.61 1.952,2.414c1.021,-0.521 2.043,-1.043 3.065,-1.565c0.301,0.522 0.734,1.433 1.3,2.734c-0.264,0.088 -2.193,0.371 -5.787,0.849c-2.977,-1.962 -4.476,-2.984 -4.498,-3.065c0.477,-3.814 0.76,-5.721 0.849,-5.721c3.108,-1.323 4.909,-2.062 5.402,-2.216zM77.704,176.87108c-0.059,0.147 -0.448,0.731 -1.169,1.752c0,0.309 0.434,0.463 1.301,0.463c0,0.045 0.629,0.151 1.885,0.32c0.346,-0.478 0.519,-0.757 0.519,-0.838c-0.111,-0.654 -0.35,-0.981 -0.717,-0.981z" data-paper-data="{&quot;origPos&quot;:null}" fill="#000000"/><path d="M89.29,174.20306c3.315,0.624 5.05,0.981 5.204,1.069c0,0.044 0,0.088 0,0.132c-0.713,2.014 -1.069,3.058 -1.069,3.131c-0.022,0 -0.044,0 -0.067,0c-0.183,0 -1.073,-0.286 -2.667,-0.86c-0.89,1.492 -1.334,2.29 -1.334,2.393c0.735,0.712 1.47,1.425 2.204,2.138c1.706,-1.602 2.573,-2.403 2.602,-2.403c1.33,1.742 1.996,2.719 1.996,2.932c-0.728,0.419 -1.996,1.243 -3.804,2.47c-3.498,-0.757 -5.387,-1.18 -5.666,-1.268l-1.731,-5.6c1.444,-1.378 2.888,-2.756 4.332,-4.134z" data-paper-data="{&quot;origPos&quot;:null}" fill="#000000"/><path d="M100.557,170.86207c1.617,0.287 3.234,0.574 4.851,0.86c-0.154,1.228 -0.309,2.455 -0.463,3.682c0.963,-0.051 1.668,-0.077 2.117,-0.077c0.235,0 0.47,0 0.705,0l0.155,-0.077c0.025,0.051 0.051,0.103 0.077,0.154c-0.155,2.235 -0.287,3.491 -0.397,3.771c-0.052,-0.03 -0.103,-0.059 -0.154,-0.089c-0.111,0 -1.103,-0.051 -2.977,-0.154c-0.103,1.727 -0.18,3.792 -0.232,6.196l-0.154,0.077c-2.366,-0.154 -3.778,-0.287 -4.233,-0.397l0.077,-0.309c0,-0.639 0.103,-2.623 0.309,-5.953c-1.985,-0.11 -2.977,-0.242 -2.977,-0.397c0.103,-2.454 0.235,-3.682 0.397,-3.682c0.966,0.184 1.933,0.368 2.899,0.551c0,-0.316 0,-0.632 0,-0.948c0,-0.771 -0.029,-1.815 -0.088,-3.131c0.059,0 0.088,-0.025 0.088,-0.077z" data-paper-data="{&quot;origPos&quot;:null}" fill="#000000"/><path d="M116.443,174.19208c4.366,0.602 6.549,0.973 6.549,1.113c1.72,1.477 2.579,2.267 2.579,2.37c-0.698,2.183 -1.095,3.51 -1.19,3.98c0.698,1.551 1.095,2.477 1.19,2.778c0,0.088 -1.139,0.324 -3.417,0.706c-0.029,-0.125 -0.239,-0.404 -0.628,-0.838c-3.146,0.603 -4.84,0.904 -5.083,0.904c-0.558,-1.51 -1.117,-3.021 -1.675,-4.531c1.231,-0.651 2.462,-1.301 3.693,-1.951c0.595,0.095 1.525,0.143 2.789,0.143c0,-0.162 0.022,-0.65 0.066,-1.466c-0.213,0 -2.117,0.139 -5.71,0.419c-0.023,-0.048 -0.045,-0.096 -0.067,-0.144c0.5,-2.322 0.801,-3.483 0.904,-3.483zM118.736,180.67408c0,0.081 0.236,0.941 0.706,2.58c0.022,0 0.044,0 0.066,0c0.926,-0.603 1.389,-1 1.389,-1.191c0.048,-0.393 0.096,-0.786 0.143,-1.18c-0.176,0 -0.944,-0.069 -2.304,-0.209z" data-paper-data="{&quot;origPos&quot;:null}" fill="#2b70c2"/><path d="M126.63,170.87307c2.249,0.044 3.899,0.066 4.95,0.066c0.095,0 0.386,4.513 0.871,13.538c-0.375,0.096 -1.683,0.338 -3.925,0.728c-0.11,0 -0.474,-2.764 -1.091,-8.29c-0.052,-0.133 -0.32,-2.146 -0.805,-6.042z" data-paper-data="{&quot;origPos&quot;:null}" fill="#2b70c2"/><path d="M133.685,170.87307c2.249,0.044 3.899,0.066 4.95,0.066c0.096,0 0.386,4.513 0.871,13.538c-0.375,0.096 -1.683,0.338 -3.924,0.728c-0.111,0 -0.474,-2.764 -1.092,-8.29c-0.051,-0.133 -0.32,-2.146 -0.805,-6.042z" data-paper-data="{&quot;origPos&quot;:null}" fill="#2b70c2"/><path d="M149.638,170.86207c1.616,0.287 3.233,0.574 4.85,0.86c-0.066,0.526 -0.397,3.156 -0.463,3.682c0.963,-0.051 1.669,-0.077 2.117,-0.077c0.235,0 0.47,0 0.705,0c0.052,-0.026 0.103,-0.051 0.155,-0.077c0.025,0.051 0.051,0.103 0.077,0.154c-0.154,2.235 -0.287,3.491 -0.397,3.771c-0.051,-0.03 -0.103,-0.059 -0.154,-0.089c-0.11,0 -1.103,-0.051 -2.977,-0.154c-0.103,1.727 -0.18,3.792 -0.231,6.196l-0.155,0.077c-2.366,-0.154 -3.777,-0.287 -4.233,-0.397l0.077,-0.309c0,-0.639 0.103,-2.623 0.309,-5.953c-1.984,-0.11 -2.977,-0.242 -2.977,-0.397c0.103,-2.454 0.236,-3.682 0.397,-3.682c0.967,0.184 1.933,0.368 2.9,0.551c0,-0.316 0,-0.632 0,-0.948c0,-0.771 -0.03,-1.815 -0.089,-3.131c0.059,0 0.089,-0.025 0.089,-0.077z" data-paper-data="{&quot;origPos&quot;:null}" fill="#2b70c2"/><path d="M163.186,170.86207c0.044,0.066 0.25,2.08 0.618,6.042c2.837,-0.868 4.347,-1.301 4.531,-1.301c0.937,0.639 1.874,1.279 2.811,1.918c-0.456,4.189 -0.753,6.637 -0.893,7.342c-1.301,0.044 -2.602,0.088 -3.903,0.132c0,-0.044 -0.025,-0.066 -0.077,-0.066c0.026,-0.092 0.052,-0.183 0.077,-0.275c0,-0.596 0.089,-2.404 0.265,-5.424c-1.073,-0.044 -1.871,-0.066 -2.392,-0.066c-0.092,0 -0.184,0 -0.276,0c0.316,3.358 0.474,5.188 0.474,5.49c-1.235,0.183 -2.469,0.367 -3.704,0.551c-0.14,-0.47 -0.963,-4.862 -2.469,-13.174c0,-0.235 0.573,-0.419 1.719,-0.551c1.448,-0.412 2.521,-0.618 3.219,-0.618z" data-paper-data="{&quot;origPos&quot;:null}" fill="#2b70c2"/><path d="M178.433,174.20306c3.329,1.712 5.174,2.712 5.534,2.998c-0.478,2.235 -0.76,3.385 -0.849,3.451c-2.322,0 -4.645,0 -6.967,0c0,0.04 0,0.081 0,0.121c0.65,0.805 1.301,1.61 1.951,2.414l3.065,-1.565c0.301,0.522 0.735,1.433 1.301,2.734c-0.265,0.088 -2.194,0.371 -5.788,0.849c-2.976,-1.962 -4.476,-2.984 -4.498,-3.065c0.478,-3.814 0.761,-5.721 0.849,-5.721c3.109,-1.323 4.91,-2.062 5.402,-2.216zM177.716,176.87108c-0.058,0.147 -0.448,0.731 -1.168,1.752c0,0.309 0.433,0.463 1.301,0.463c0,0.045 0.628,0.151 1.885,0.32c0.345,-0.478 0.518,-0.757 0.518,-0.838c-0.11,-0.654 -0.349,-0.981 -0.717,-0.981c-0.606,-0.239 -1.212,-0.478 -1.819,-0.716z" data-paper-data="{&quot;origPos&quot;:null}" fill="#2b70c2"/><path d="M199.467,174.19208c2.117,1.352 3.286,2.131 3.506,2.337c-0.764,1.698 -1.202,2.546 -1.312,2.546c-1.337,-0.775 -2.675,-1.55 -4.013,-2.326c-0.047,0 -0.095,0 -0.143,0c0,0.074 -0.173,0.485 -0.518,1.235c3.697,1.992 5.545,3.013 5.545,3.065c-1.036,2.396 -1.62,3.66 -1.753,3.792c-2.091,0.121 -4.182,0.243 -6.273,0.364c-2.44,-1.617 -3.751,-2.47 -3.935,-2.558c0,-0.022 0,-0.044 0,-0.066c0,-0.184 0.364,-1.01 1.091,-2.48l4.895,2.546c0.121,-0.485 0.242,-0.97 0.364,-1.455c-3.028,-1.36 -4.829,-2.208 -5.402,-2.547c0,-0.051 0,-0.102 0,-0.154c0,-0.279 0.584,-1.518 1.753,-3.715c2.065,-0.195 4.13,-0.39 6.195,-0.584z" data-paper-data="{&quot;origPos&quot;:null}" fill="#2b70c2"/><path d="M207.361,170.86207c1.617,0.287 3.234,0.574 4.85,0.86c-0.154,1.228 -0.308,2.455 -0.463,3.682c0.963,-0.051 1.669,-0.077 2.117,-0.077c0.235,0 0.471,0 0.706,0c0.051,-0.026 0.103,-0.051 0.154,-0.077c0.026,0.051 0.052,0.103 0.077,0.154c-0.154,2.235 -0.286,3.491 -0.397,3.771c-0.051,-0.03 -0.103,-0.059 -0.154,-0.089c-0.11,0 -1.102,-0.051 -2.977,-0.154c-0.102,1.727 -0.18,3.792 -0.231,6.196l-0.154,0.077c-2.367,-0.154 -3.778,-0.287 -4.234,-0.397l0.077,-0.309c0,-0.639 0.103,-2.623 0.309,-5.953c-1.984,-0.11 -2.976,-0.242 -2.976,-0.397c0.102,-2.454 0.235,-3.682 0.396,-3.682c0.967,0.184 1.933,0.368 2.9,0.551c0,-0.316 0,-0.632 0,-0.948c0,-0.771 -0.03,-1.815 -0.088,-3.131c0.058,0 0.088,-0.025 0.088,-0.077z" data-paper-data="{&quot;origPos&quot;:null}" fill="#2b70c2"/><path d="M217.646,174.19208c4.366,0.602 6.549,0.973 6.549,1.113c1.72,1.477 2.58,2.267 2.58,2.37c-0.699,2.183 -1.095,3.51 -1.191,3.98c0.698,1.551 1.095,2.477 1.191,2.778c0,0.088 -1.14,0.324 -3.418,0.706c-0.029,-0.125 -0.239,-0.404 -0.628,-0.838c-3.146,0.603 -4.84,0.904 -5.083,0.904c-0.558,-1.51 -1.117,-3.021 -1.675,-4.531c1.231,-0.651 2.462,-1.301 3.693,-1.951c0.595,0.095 1.525,0.143 2.789,0.143c0,-0.162 0.022,-0.65 0.066,-1.466c-0.213,0 -2.116,0.139 -5.71,0.419c-0.022,-0.048 -0.045,-0.096 -0.067,-0.144c0.5,-2.322 0.802,-3.483 0.904,-3.483zM219.94,180.67408c0,0.081 0.235,0.941 0.705,2.58c0.022,0 0.044,0 0.066,0c0.926,-0.603 1.389,-1 1.389,-1.191c0.048,-0.393 0.096,-0.786 0.144,-1.18c-0.177,0 -0.945,-0.069 -2.305,-0.209c0.001,0 0.001,0 0.001,0z" data-paper-data="{&quot;origPos&quot;:null}" fill="#2b70c2"/><path d="M235.748,174.19208c1.456,0.815 2.349,1.345 2.679,1.587c-1.19,2.477 -1.83,3.737 -1.918,3.781c-0.026,0 -0.051,0 -0.077,0c-0.526,-0.459 -1.051,-0.918 -1.577,-1.378c-0.621,0.757 -1.242,1.514 -1.863,2.271c0.07,1.378 0.14,2.757 0.21,4.135c-0.096,0.088 -1.312,0.294 -3.649,0.617c-0.089,-0.632 -0.662,-3.73 -1.72,-9.294c0,-0.088 1.536,-0.316 4.608,-0.683c0.052,0.059 0.191,0.746 0.419,2.061c1.837,-2.065 2.8,-3.097 2.888,-3.097z" data-paper-data="{&quot;origPos&quot;:null}" fill="#2b70c2"/><path d="M248.195,174.19208c2.116,1.352 3.285,2.131 3.506,2.337c-0.765,1.698 -1.202,2.546 -1.312,2.546c-1.338,-0.775 -2.676,-1.55 -4.013,-2.326c-0.048,0 -0.096,0 -0.144,0c0,0.074 -0.172,0.485 -0.518,1.235c3.697,1.992 5.546,3.013 5.546,3.065c-1.037,2.396 -1.621,3.66 -1.753,3.792l-6.273,0.364c-2.44,-1.617 -3.752,-2.47 -3.936,-2.558v-0.066c0,-0.184 0.364,-1.01 1.092,-2.48c1.631,0.849 3.263,1.697 4.894,2.546l0.364,-1.455c-3.028,-1.36 -4.828,-2.208 -5.402,-2.547c0,-0.051 0,-0.102 0,-0.154c0,-0.279 0.585,-1.518 1.753,-3.715c2.065,-0.195 4.131,-0.39 6.196,-0.584z" data-paper-data="{&quot;origPos&quot;:null}" fill="#2b70c2"/><path d="M259.914,169.77108c1.444,0.228 2.888,0.456 4.332,0.683c-0.544,2.08 -0.9,3.12 -1.069,3.12c-2.278,-0.154 -3.418,-0.305 -3.418,-0.452c0,-1.065 0,-2.131 0,-3.197c0.022,-0.103 0.074,-0.154 0.155,-0.154zM258.701,175.01806c0.022,0 0.044,0 0.066,0c3.351,0.61 5.027,0.967 5.027,1.07c-0.963,5.453 -1.547,8.492 -1.753,9.117c-1.165,0 -2.329,0 -3.494,0c-0.103,0 -0.155,-0.052 -0.155,-0.154c0.064,-2.066 0.245,-7.967 0.309,-10.033z" data-paper-data="{&quot;origPos&quot;:null}" fill="#000000"/><path d="M274.356,174.19208c1.223,0.841 2.447,1.683 3.671,2.524c-0.258,4.189 -0.438,6.637 -0.541,7.342c-0.426,0.052 -1.723,0.129 -3.891,0.232c-0.026,-0.052 -0.052,-0.103 -0.077,-0.154c-0.129,-1.963 -0.258,-3.925 -0.386,-5.887c-0.052,-0.026 -0.103,-0.052 -0.155,-0.078c-1.403,0.302 -2.37,0.53 -2.899,0.684c0.147,2.506 0.221,4.318 0.221,5.435c-2.191,0.61 -3.389,0.915 -3.594,0.915c-1.426,-6.277 -2.139,-9.591 -2.139,-9.944c3.101,-0.404 4.784,-0.606 5.049,-0.606c0,0.025 0,0.051 0,0.077c0.052,0.037 0.129,0.801 0.232,2.293c2.844,-1.889 4.347,-2.833 4.508,-2.833v0z" data-paper-data="{&quot;origPos&quot;:null}" fill="#000000"/><path d="M286.438,174.19208c4.366,0.602 6.549,0.973 6.549,1.113c1.719,1.477 2.579,2.267 2.579,2.37c-0.698,2.183 -1.095,3.51 -1.19,3.98c0.698,1.551 1.095,2.477 1.19,2.778c0,0.088 -1.139,0.324 -3.417,0.706c-0.03,-0.125 -0.239,-0.404 -0.629,-0.838c-3.145,0.603 -4.839,0.904 -5.082,0.904c-0.558,-1.51 -1.117,-3.021 -1.676,-4.531c1.231,-0.651 2.463,-1.301 3.694,-1.951c0.595,0.095 1.525,0.143 2.789,0.143c0,-0.162 0.022,-0.65 0.066,-1.466c-0.213,0 -2.117,0.139 -5.711,0.419c-0.022,-0.048 -0.044,-0.096 -0.066,-0.144c0.5,-2.322 0.801,-3.483 0.904,-3.483zM288.731,180.67408c0,0.081 0.235,0.941 0.706,2.58c0.022,0 0.044,0 0.066,0c0.926,-0.603 1.389,-1 1.389,-1.191c0.048,-0.393 0.096,-0.786 0.143,-1.18c-0.176,0 -0.944,-0.069 -2.304,-0.209z" data-paper-data="{&quot;origPos&quot;:null}" fill="#000000"/><path d="M307.065,174.19208c0.095,0.125 0.591,2.256 1.488,6.394c0.026,0 0.051,0 0.077,0c0,-0.096 0.544,-0.937 1.632,-2.525c0.455,0.309 1.323,0.978 2.601,2.007c0.052,0 0.103,0 0.155,0c0,-0.026 0,-0.052 0,-0.078c0.198,-2.866 0.345,-4.453 0.441,-4.762c3.028,0.154 4.542,0.279 4.542,0.375c-1.389,5.585 -2.132,8.488 -2.227,8.709c-0.463,0.051 -1.433,0.198 -2.911,0.441c-1.212,-1.904 -1.907,-2.918 -2.083,-3.043c-0.794,2.117 -1.29,3.282 -1.488,3.495c-0.993,0 -1.985,0 -2.977,0c-0.184,-0.059 -1.051,-1.97 -2.602,-5.733c-0.992,-2.102 -1.488,-3.241 -1.488,-3.417c0,-0.162 1.613,-0.783 4.84,-1.863z" data-paper-data="{&quot;origPos&quot;:null}" fill="#2b70c2"/><path d="M323.645,174.20306c2.793,0.749 4.274,1.205 4.443,1.367c1.536,2.175 2.4,3.428 2.591,3.759c-0.993,3.146 -1.562,4.718 -1.709,4.718c-3.307,0.772 -5.038,1.158 -5.193,1.158c-2.734,-1.595 -4.189,-2.484 -4.365,-2.668c-0.096,-2.969 -0.143,-4.608 -0.143,-4.917c-0.045,-0.088 -0.067,-0.154 -0.067,-0.198c2.823,-2.146 4.282,-3.219 4.377,-3.219c0.022,0 0.044,0 0.066,0zM323.436,178.23806c-0.044,0.294 -0.11,1.363 -0.199,3.208c0.82,0.183 1.639,0.367 2.459,0.551c0.588,-1.838 0.882,-2.819 0.882,-2.944c-1.955,-0.588 -3.003,-0.882 -3.142,-0.882c0,0.022 0,0.045 0,0.067z" data-paper-data="{&quot;origPos&quot;:null}" fill="#2b70c2"/><path d="M339.597,174.19208c1.456,0.815 2.349,1.345 2.679,1.587c-1.19,2.477 -1.83,3.737 -1.918,3.781c-0.026,0 -0.051,0 -0.077,0c-0.526,-0.459 -1.051,-0.918 -1.577,-1.378c-0.621,0.757 -1.242,1.514 -1.863,2.271c0.07,1.378 0.14,2.757 0.21,4.135c-0.096,0.088 -1.312,0.294 -3.649,0.617c-0.089,-0.632 -0.662,-3.73 -1.72,-9.294c0,-0.088 1.536,-0.316 4.608,-0.683c0.052,0.059 0.191,0.746 0.419,2.061c1.837,-2.065 2.8,-3.097 2.888,-3.097z" data-paper-data="{&quot;origPos&quot;:null}" fill="#2b70c2"/><path d="M343.147,170.87307c2.249,0.044 3.899,0.066 4.95,0.066c0.096,0 0.386,4.513 0.871,13.538c-0.375,0.096 -1.683,0.338 -3.925,0.728c-0.11,0 -0.474,-2.764 -1.091,-8.29c-0.052,-0.133 -0.32,-2.146 -0.805,-6.042z" data-paper-data="{&quot;origPos&quot;:null}" fill="#2b70c2"/><path d="M356.872,170.85106c0.022,0 0.045,0 0.067,0c3.322,0.28 4.982,0.496 4.982,0.651c0.489,4.325 0.978,8.65 1.467,12.975c0,0.096 -1.467,0.338 -4.399,0.728c-0.022,-0.048 -0.044,-0.096 -0.066,-0.143c0,-0.394 0,-0.787 0,-1.18c-2.528,0.684 -4.263,1.124 -5.204,1.323c-2.234,-3.16 -3.406,-4.843 -3.516,-5.049c1.646,-2.991 2.524,-4.505 2.635,-4.542c1.539,0.073 3.079,0.147 4.619,0.22c-0.096,-0.566 -0.291,-2.227 -0.585,-4.983zM354.822,178.75606c0.742,2.271 1.205,3.516 1.389,3.737c0.731,-0.636 1.463,-1.272 2.194,-1.907c-0.228,-1.316 -0.397,-1.974 -0.507,-1.974c-0.978,0 -1.955,0 -2.933,0c-0.095,0.015 -0.143,0.063 -0.143,0.144z" data-paper-data="{&quot;origPos&quot;:null}" fill="#2b70c2"/><path d="M36.572,194.86207c1.617,0.287 3.234,0.574 4.851,0.86l-0.463,3.682c0.963,-0.051 1.668,-0.077 2.117,-0.077h0.705c0.052,-0.026 0.103,-0.051 0.154,-0.077l0.078,0.154c-0.155,2.235 -0.287,3.491 -0.397,3.771l-0.155,-0.089c-0.11,0 -1.102,-0.051 -2.976,-0.154c-0.103,1.727 -0.18,3.792 -0.232,6.196l-0.154,0.077c-2.367,-0.154 -3.778,-0.287 -4.233,-0.397l0.077,-0.309c0,-0.639 0.103,-2.623 0.309,-5.953c-1.985,-0.11 -2.977,-0.242 -2.977,-0.397c0.103,-2.454 0.235,-3.682 0.397,-3.682l2.899,0.551c0,-0.316 0,-0.632 0,-0.948c0,-0.771 -0.029,-1.815 -0.088,-3.131c0.059,0 0.088,-0.025 0.088,-0.077z" data-paper-data="{&quot;origPos&quot;:null}" fill="#000000"/><path d="M49.625,198.20306c2.793,0.749 4.274,1.205 4.443,1.367c1.536,2.175 2.399,3.428 2.591,3.759c-0.993,3.146 -1.562,4.718 -1.709,4.718c-3.308,0.772 -5.038,1.158 -5.193,1.158c-2.734,-1.595 -4.189,-2.484 -4.365,-2.668c-0.096,-2.969 -0.144,-4.608 -0.144,-4.917c-0.044,-0.088 -0.066,-0.154 -0.066,-0.198c2.822,-2.146 4.281,-3.219 4.377,-3.219zM49.416,202.23806c-0.045,0.294 -0.111,1.363 -0.199,3.208l2.459,0.551c0.588,-1.838 0.881,-2.819 0.881,-2.944c-1.954,-0.588 -3.002,-0.882 -3.141,-0.882z" data-paper-data="{&quot;origPos&quot;:null}" fill="#000000"/><path d="M69.215,198.19208l0.077,0.143c0.124,-0.658 -1.612,8.551 -1.488,7.893c0.026,0 0.052,0 0.077,0c1.264,-0.371 2.529,-0.742 3.793,-1.113c0,-1.488 0,-2.977 0,-4.465c0.014,-0.103 0.062,-0.154 0.143,-0.154c2.852,0.198 4.439,0.297 4.762,0.297c0,0.052 0.026,0.078 0.078,0.078c0,1.256 -0.397,3.862 -1.191,7.816c0,0.228 -1.139,0.4 -3.418,0.518c-0.117,-0.14 -0.216,-0.437 -0.297,-0.893c-2.918,0.595 -4.583,0.893 -4.994,0.893c-2.33,-1.735 -3.495,-2.628 -3.495,-2.679c0.397,-5.211 0.647,-7.915 0.75,-8.114c0.022,0 0.044,0 0.066,0c1.859,-0.051 3.572,-0.125 5.137,-0.22z" data-paper-data="{&quot;origPos&quot;:null}" fill="#2b70c2"/><path d="M87.56,198.19208l3.671,2.524c-0.257,4.189 -0.438,6.637 -0.54,7.342c-0.427,0.052 -1.724,0.129 -3.892,0.232c-0.026,-0.052 -0.051,-0.103 -0.077,-0.154c-0.129,-1.963 -0.257,-3.925 -0.386,-5.887c-0.051,-0.026 -0.103,-0.052 -0.154,-0.078c-1.404,0.302 -2.371,0.53 -2.9,0.684c0.147,2.506 0.221,4.318 0.221,5.435c-2.19,0.61 -3.388,0.915 -3.594,0.915c-1.426,-6.277 -2.139,-9.591 -2.139,-9.944c3.102,-0.404 4.785,-0.606 5.049,-0.606c0,0.025 0,0.051 0,0.077c0.052,0.037 0.129,0.801 0.232,2.293c2.844,-1.889 4.347,-2.833 4.509,-2.833z" data-paper-data="{&quot;origPos&quot;:null}" fill="#2b70c2"/><path d="M92.366,194.87307c2.249,0.044 3.899,0.066 4.95,0.066c0.096,0 0.386,4.513 0.871,13.538c-0.375,0.096 -1.683,0.338 -3.925,0.728c-0.11,0 -0.474,-2.764 -1.091,-8.29c-0.051,-0.133 -0.32,-2.146 -0.805,-6.042z" data-paper-data="{&quot;origPos&quot;:null}" fill="#2b70c2"/><path d="M103.865,198.20306c2.792,0.749 4.273,1.205 4.442,1.367c1.536,2.175 2.4,3.428 2.591,3.759c-0.992,3.146 -1.562,4.718 -1.709,4.718c-3.307,0.772 -5.038,1.158 -5.192,1.158c-2.734,-1.595 -4.189,-2.484 -4.366,-2.668c-0.095,-2.969 -0.143,-4.608 -0.143,-4.917c-0.044,-0.088 -0.066,-0.154 -0.066,-0.198c2.822,-2.146 4.281,-3.219 4.376,-3.219zM103.655,202.23806c-0.044,0.294 -0.11,1.363 -0.198,3.208c0.819,0.183 1.639,0.367 2.458,0.551c0.588,-1.838 0.882,-2.819 0.882,-2.944c-1.955,-0.588 -3.002,-0.882 -3.142,-0.882c0,0.008 0,0.059 0,0.067z" data-paper-data="{&quot;origPos&quot;:null}" fill="#2b70c2"/><path d="M116.234,198.20306c3.315,0.624 5.049,0.981 5.203,1.069c0,0.044 0,0.088 0,0.132c-0.713,2.014 -1.069,3.058 -1.069,3.131c-0.022,0 -0.044,0 -0.066,0c-0.184,0 -1.073,-0.286 -2.668,-0.86c-0.889,1.492 -1.334,2.29 -1.334,2.393c0.735,0.712 1.47,1.425 2.205,2.138c1.705,-1.602 2.572,-2.403 2.602,-2.403c1.33,1.742 1.995,2.719 1.995,2.932c-0.728,0.419 -1.995,1.243 -3.803,2.47c-3.499,-0.757 -5.388,-1.18 -5.667,-1.268c-0.577,-1.867 -1.154,-3.733 -1.731,-5.6z" data-paper-data="{&quot;origPos&quot;:null}" fill="#2b70c2"/><path d="M129.066,194.86207c0.103,0.294 0.335,2.378 0.695,6.251l3.307,-3.704c0.026,0 0.052,0 0.077,0c0.515,0.426 1.466,1.327 2.856,2.701c0,0.026 0,0.051 0,0.077l-3.164,2.613c2.381,1.595 3.641,2.495 3.781,2.701c-1.499,1.668 -2.4,2.62 -2.701,2.855c-1.283,-1.183 -2.565,-2.367 -3.848,-3.55c0.155,1.588 0.232,2.771 0.232,3.55c-0.184,0.103 -1.547,0.386 -4.09,0.849c-0.206,-1.029 -0.875,-5.45 -2.007,-13.262c0.471,-0.155 2.091,-0.515 4.862,-1.081z" data-paper-data="{&quot;origPos&quot;:null}" fill="#2b70c2"/><path d="M144.842,198.19208c4.366,0.602 6.548,0.973 6.548,1.113c1.72,1.477 2.58,2.267 2.58,2.37c-0.698,2.183 -1.095,3.51 -1.191,3.98c0.699,1.551 1.096,2.477 1.191,2.778c0,0.088 -1.139,0.324 -3.417,0.706c-0.03,-0.125 -0.239,-0.404 -0.629,-0.838c-3.145,0.603 -4.84,0.904 -5.082,0.904c-0.559,-1.51 -1.117,-3.021 -1.676,-4.531c1.231,-0.651 2.462,-1.301 3.693,-1.951c0.596,0.095 1.525,0.143 2.79,0.143c0,-0.162 0.022,-0.65 0.066,-1.466c-0.213,0 -2.117,0.139 -5.711,0.419l-0.066,-0.144c0.5,-2.322 0.801,-3.483 0.904,-3.483zM147.135,204.67408c0,0.081 0.235,0.941 0.706,2.58c0.022,0 0.044,0 0.066,0c0.926,-0.603 1.389,-1 1.389,-1.191c0.048,-0.393 0.095,-0.786 0.143,-1.18c-0.176,0 -0.944,-0.069 -2.304,-0.209z" data-paper-data="{&quot;origPos&quot;:null}" fill="#000000"/><path d="M170.418,198.19208c1.224,0.841 2.448,1.683 3.671,2.524c-0.257,4.189 -0.437,6.637 -0.54,7.342c-0.426,0.052 -1.723,0.129 -3.891,0.232c-0.026,-0.052 -0.052,-0.103 -0.078,-0.154c-0.128,-1.963 -0.257,-3.925 -0.385,-5.887c-0.052,-0.026 -0.103,-0.052 -0.155,-0.078c-1.403,0.302 -2.37,0.53 -2.899,0.684c0.147,2.506 0.22,4.318 0.22,5.435c-2.19,0.61 -3.388,0.915 -3.594,0.915c-1.425,-6.277 -2.138,-9.591 -2.138,-9.944c3.101,-0.404 4.784,-0.606 5.049,-0.606c0,0.025 0,0.051 0,0.077c0.051,0.037 0.129,0.801 0.231,2.293c2.845,-1.889 4.348,-2.833 4.509,-2.833z" data-paper-data="{&quot;origPos&quot;:null}" fill="#000000"/><path d="M181.476,198.20306c3.329,1.712 5.174,2.712 5.534,2.998c-0.478,2.235 -0.761,3.385 -0.849,3.451c-2.322,0 -4.645,0 -6.967,0c0,0.04 0,0.081 0,0.121c0.65,0.805 1.301,1.61 1.951,2.414c1.022,-0.521 2.043,-1.043 3.065,-1.565c0.301,0.522 0.735,1.433 1.301,2.734c-0.265,0.088 -2.194,0.371 -5.788,0.849c-2.977,-1.962 -4.476,-2.984 -4.498,-3.065c0.478,-3.814 0.761,-5.721 0.849,-5.721c3.109,-1.323 4.909,-2.062 5.402,-2.216zM180.759,200.87108c-0.059,0.147 -0.448,0.731 -1.168,1.752c0,0.309 0.433,0.463 1.3,0.463c0,0.045 0.629,0.151 1.886,0.32c0.345,-0.478 0.518,-0.757 0.518,-0.838c-0.111,-0.654 -0.349,-0.981 -0.717,-0.981c-0.606,-0.239 -1.213,-0.478 -1.819,-0.716z" data-paper-data="{&quot;origPos&quot;:null}" fill="#000000"/><path d="M192.853,198.19208c0.095,0.125 0.591,2.256 1.488,6.394c0.026,0 0.052,0 0.077,0c0,-0.096 0.544,-0.937 1.632,-2.525c0.456,0.309 1.323,0.978 2.602,2.007c0.051,0 0.103,0 0.154,0c0,-0.026 0,-0.052 0,-0.078c0.198,-2.866 0.345,-4.453 0.441,-4.762c3.028,0.154 4.542,0.279 4.542,0.375c-1.389,5.585 -2.131,8.488 -2.227,8.709c-0.463,0.051 -1.433,0.198 -2.91,0.441c-1.213,-1.904 -1.908,-2.918 -2.084,-3.043c-0.794,2.117 -1.29,3.282 -1.488,3.495c-0.992,0 -1.985,0 -2.977,0c-0.184,-0.059 -1.051,-1.97 -2.602,-5.733c-0.992,-2.102 -1.488,-3.241 -1.488,-3.417c0,-0.162 1.613,-0.783 4.84,-1.863z" data-paper-data="{&quot;origPos&quot;:null}" fill="#000000"/><path d="M215.431,198.19208c0.095,0.125 0.591,2.256 1.488,6.394c0.026,0 0.051,0 0.077,0c0,-0.096 0.544,-0.937 1.632,-2.525c0.455,0.309 1.323,0.978 2.601,2.007c0.052,0 0.103,0 0.155,0c0,-0.026 0,-0.052 0,-0.078c0.198,-2.866 0.345,-4.453 0.441,-4.762c3.028,0.154 4.542,0.279 4.542,0.375c-1.389,5.585 -2.132,8.488 -2.227,8.709c-0.463,0.051 -1.433,0.198 -2.911,0.441c-1.212,-1.904 -1.907,-2.918 -2.083,-3.043c-0.794,2.117 -1.29,3.282 -1.488,3.495c-0.993,0 -1.985,0 -2.977,0c-0.184,-0.059 -1.051,-1.97 -2.602,-5.733c-0.992,-2.102 -1.488,-3.241 -1.488,-3.417c0,-0.162 1.613,-0.783 4.84,-1.863z" data-paper-data="{&quot;origPos&quot;:null}" fill="#2b70c2"/><path d="M232.011,198.20306c2.793,0.749 4.274,1.205 4.443,1.367c1.536,2.175 2.4,3.428 2.591,3.759c-0.993,3.146 -1.562,4.718 -1.709,4.718c-3.307,0.772 -5.038,1.158 -5.193,1.158c-2.734,-1.595 -4.189,-2.484 -4.365,-2.668c-0.096,-2.969 -0.144,-4.608 -0.144,-4.917c-0.044,-0.088 -0.066,-0.154 -0.066,-0.198c2.823,-2.146 4.281,-3.219 4.377,-3.219c0.022,0 0.044,0 0.066,0zM231.802,202.23806c-0.044,0.294 -0.111,1.363 -0.199,3.208c0.82,0.183 1.639,0.367 2.459,0.551c0.588,-1.838 0.882,-2.819 0.882,-2.944c-1.955,-0.588 -3.003,-0.882 -3.142,-0.882c0,0.022 0,0.045 0,0.067z" data-paper-data="{&quot;origPos&quot;:null}" fill="#2b70c2"/><path d="M247.963,198.19208c1.456,0.815 2.349,1.345 2.679,1.587c-1.19,2.477 -1.83,3.737 -1.918,3.781c-0.026,0 -0.051,0 -0.077,0c-0.526,-0.459 -1.051,-0.918 -1.577,-1.378c-0.621,0.757 -1.242,1.514 -1.863,2.271c0.07,1.378 0.14,2.757 0.21,4.135c-0.096,0.088 -1.312,0.294 -3.649,0.617c-0.089,-0.632 -0.662,-3.73 -1.72,-9.294c0,-0.088 1.536,-0.316 4.608,-0.683c0.052,0.059 0.191,0.746 0.419,2.061c1.837,-2.065 2.8,-3.097 2.888,-3.097z" data-paper-data="{&quot;origPos&quot;:null}" fill="#2b70c2"/><path d="M251.513,194.87307c2.249,0.044 3.899,0.066 4.95,0.066c0.096,0 0.386,4.513 0.871,13.538c-0.375,0.096 -1.683,0.338 -3.925,0.728c-0.11,0 -0.474,-2.764 -1.091,-8.29c-0.052,-0.133 -0.32,-2.146 -0.805,-6.042z" data-paper-data="{&quot;origPos&quot;:null}" fill="#2b70c2"/><path d="M265.238,194.85106c0.023,0 0.044,0 0.067,0c3.322,0.28 4.983,0.496 4.983,0.651c0.488,4.325 0.977,8.65 1.466,12.975c0,0.096 -1.466,0.338 -4.399,0.728c-0.022,-0.048 -0.044,-0.096 -0.066,-0.143c0,-0.394 0,-0.787 0,-1.18c-2.528,0.684 -4.263,1.124 -5.203,1.323c-2.235,-3.16 -3.407,-4.843 -3.517,-5.049c1.646,-2.991 2.524,-4.505 2.635,-4.542c1.539,0.073 3.079,0.147 4.619,0.22c-0.096,-0.566 -0.291,-2.227 -0.585,-4.983zM263.188,202.75606c0.742,2.271 1.205,3.516 1.389,3.737c0.731,-0.636 1.462,-1.272 2.194,-1.907c-0.228,-1.316 -0.397,-1.974 -0.507,-1.974c-0.978,0 -1.955,0 -2.933,0c-0.095,0.015 -0.143,0.063 -0.143,0.144z" data-paper-data="{&quot;origPos&quot;:null}" fill="#2b70c2"/><path d="M277.751,195.27008c0.015,0.03 0.029,0.059 0.044,0.088c-0.735,6.49 -1.146,9.9 -1.235,10.231c-1.558,-0.147 -2.543,-0.25 -2.954,-0.309c0,-0.014 0,-0.029 0,-0.044c-0.235,-3.072 -0.471,-6.144 -0.706,-9.216c0.177,-0.059 1.794,-0.309 4.851,-0.75zM273.385,205.80906c0.052,0.03 1.198,0.118 3.44,0.265c0.015,0.029 0.029,0.059 0.044,0.088c-0.345,2.029 -0.566,3.043 -0.661,3.043c-0.853,0 -1.706,0 -2.558,0c-0.088,0 -0.206,-1.014 -0.353,-3.043c-0.029,0 -0.044,-0.088 -0.044,-0.264c0.088,-0.03 0.132,-0.059 0.132,-0.089z" data-paper-data="{&quot;origPos&quot;:null}" fill="#2b70c2"/></g></g></g></svg>