<svg version="1.1" xmlns="http://www.w3.org/2000/svg" xmlns:xlink="http://www.w3.org/1999/xlink" width="437" height="90.79587" viewBox="0,0,437,90.79587"><defs><linearGradient x1="240" y1="135.60206" x2="240" y2="224.39795" gradientUnits="userSpaceOnUse" id="color-1"><stop offset="0" stop-color="#ffffff"/><stop offset="1" stop-color="#d8d8d8"/></linearGradient><linearGradient x1="240" y1="135.60208" x2="240" y2="224.39795" gradientUnits="userSpaceOnUse" id="color-2"><stop offset="0" stop-color="#343434"/><stop offset="1" stop-color="#090909"/></linearGradient><radialGradient cx="443.8065" cy="206.54466" r="17.9081" gradientUnits="userSpaceOnUse" id="color-3"><stop offset="0" stop-color="#ffffff"/><stop offset="1" stop-color="#e5e5e5"/></radialGradient></defs><g transform="translate(-21.5,-134.60208)"><g data-paper-data="{&quot;isPaintingLayer&quot;:true}" fill-rule="nonzero" stroke-linejoin="miter" stroke-miterlimit="10" stroke-dasharray="" stroke-dashoffset="0" style="mix-blend-mode: normal"><path d="M22.5,224.39795v-88.79587h435v88.79587z" data-paper-data="{&quot;origPos&quot;:null}" fill="url(#color-1)" stroke="url(#color-2)" stroke-width="2" stroke-linecap="butt"/><g data-paper-data="{&quot;origPos&quot;:null}"><path d="M444.3058,202.09868c2.5136,0 4.7909,1.0212 6.4406,2.6702c1.6489,1.6496 2.6702,3.9269 2.6702,6.4405c0,2.5136 -1.0213,4.791 -2.6702,6.4406c-1.6497,1.649 -3.927,2.6702 -6.4406,2.6702c-2.5136,0 -4.7909,-1.0212 -6.4406,-2.6702c-1.6489,-1.6496 -2.6701,-3.927 -2.6701,-6.4406c0,-2.5136 1.0212,-4.7909 2.6701,-6.4405c1.6497,-1.649 3.927,-2.6702 6.4406,-2.6702z" fill="url(#color-3)" stroke="#000000" stroke-width="2.0785" stroke-linecap="butt"/><path d="M441.2734,206.54886l5.6119,0.4503l1.7321,3.187l-3.6374,2.9446l3.3603,-0.5197l0.7967,3.4642l-7.4479,-0.0693l-1.9053,-2.4249l4.6766,-3.3256l-4.5727,-0.3464z" fill="#000000" stroke="none" stroke-width="0.69283" stroke-linecap="round"/></g><g data-paper-data="{&quot;origPos&quot;:null}" stroke="none" stroke-width="1" stroke-linecap="butt"><path d="M35.269,148.12506c2.449,0.546 3.81,0.859 4.083,0.938v0.064c-0.085,2.194 -0.148,3.47 -0.191,3.828c0.14,0 0.769,0.146 1.887,0.438c1.002,-3.093 1.546,-4.64 1.631,-4.64c1.677,0.754 2.744,1.255 3.199,1.504v0.064c-1.841,4.284 -2.886,6.648 -3.135,7.091c-0.462,0.383 -2.072,1.847 -4.831,4.393h-0.063l-5.086,-2.506c0.467,-0.802 1.033,-1.723 1.695,-2.762c0.03,0 0.826,0.523 2.388,1.568h0.064c0.522,-0.425 1.148,-1.033 1.877,-1.823c0,-0.036 -1.191,-1.206 -3.573,-3.509v-4.521z" data-paper-data="{&quot;origPos&quot;:null}" fill="#000000"/><path d="M50.545,150.88606c2.309,0.62 3.534,0.997 3.673,1.13c1.27,1.799 1.984,2.835 2.142,3.109c-0.82,2.6 -1.291,3.901 -1.413,3.901c-2.734,0.638 -4.165,0.957 -4.293,0.957c-2.26,-1.319 -3.463,-2.054 -3.609,-2.206c-0.079,-2.455 -0.118,-3.81 -0.118,-4.065c-0.037,-0.073 -0.055,-0.128 -0.055,-0.164c2.333,-1.775 3.539,-2.662 3.618,-2.662zM50.317,154.22206c-0.036,0.243 -0.091,1.127 -0.164,2.653l2.033,0.455c0.522,-1.519 0.784,-2.33 0.784,-2.433c-1.617,-0.486 -2.483,-0.73 -2.598,-0.73z" data-paper-data="{&quot;origPos&quot;:null}" fill="#000000"/><path d="M62.112,150.87706l0.063,0.119l-1.23,6.526h0.064l3.135,-0.921v-3.691c0.012,-0.085 0.052,-0.128 0.119,-0.128c2.357,0.164 3.67,0.246 3.937,0.246c0,0.043 0.021,0.064 0.064,0.064c0,1.039 -0.328,3.193 -0.985,6.462c0,0.189 -0.941,0.331 -2.825,0.429c-0.097,-0.116 -0.179,-0.362 -0.246,-0.739c-2.412,0.492 -3.789,0.739 -4.129,0.739c-1.926,-1.434 -2.889,-2.173 -2.889,-2.215c0.328,-4.308 0.534,-6.545 0.619,-6.709h0.055c1.537,-0.042 2.953,-0.103 4.248,-0.182z" data-paper-data="{&quot;origPos&quot;:null}" fill="#000000"/><path d="M77.397,150.88606c2.74,0.517 4.174,0.811 4.302,0.884v0.11c-0.59,1.665 -0.884,2.527 -0.884,2.588h-0.055c-0.152,0 -0.887,-0.237 -2.206,-0.711c-0.735,1.234 -1.103,1.893 -1.103,1.978l1.823,1.768c1.41,-1.324 2.127,-1.987 2.151,-1.987c1.1,1.441 1.65,2.249 1.65,2.425c-0.601,0.346 -1.65,1.027 -3.144,2.042c-2.893,-0.626 -4.454,-0.976 -4.685,-1.049l-1.431,-4.63z" data-paper-data="{&quot;origPos&quot;:null}" fill="#000000"/><path d="M85.372,150.87706c3.609,0.498 5.414,0.805 5.414,0.921c1.422,1.221 2.133,1.874 2.133,1.959c-0.577,1.805 -0.906,2.902 -0.985,3.291c0.578,1.282 0.906,2.047 0.985,2.297c0,0.072 -0.942,0.267 -2.826,0.583c-0.024,-0.103 -0.197,-0.334 -0.519,-0.693c-2.601,0.498 -4.002,0.748 -4.202,0.748l-1.385,-3.747l3.053,-1.613c0.492,0.079 1.261,0.119 2.306,0.119c0,-0.134 0.018,-0.538 0.055,-1.213c-0.177,0 -1.75,0.116 -4.722,0.347l-0.054,-0.119c0.413,-1.92 0.662,-2.88 0.747,-2.88zM87.268,156.23607c0,0.067 0.194,0.778 0.583,2.133h0.055c0.765,-0.498 1.148,-0.826 1.148,-0.984l0.119,-0.975c-0.146,0 -0.781,-0.058 -1.905,-0.174z" data-paper-data="{&quot;origPos&quot;:null}" fill="#000000"/><path d="M101.888,150.87706l3.035,2.087c-0.213,3.464 -0.362,5.487 -0.447,6.071c-0.352,0.042 -1.425,0.106 -3.217,0.191l-0.064,-0.128l-0.319,-4.867l-0.128,-0.064c-1.16,0.25 -1.959,0.438 -2.397,0.566c0.122,2.072 0.182,3.569 0.182,4.493c-1.81,0.504 -2.801,0.757 -2.971,0.757c-1.179,-5.19 -1.768,-7.93 -1.768,-8.222c2.564,-0.334 3.956,-0.501 4.174,-0.501v0.064c0.043,0.03 0.107,0.662 0.192,1.896c2.351,-1.562 3.594,-2.343 3.728,-2.343z" data-paper-data="{&quot;origPos&quot;:null}" fill="#000000"/><path d="M118.549,150.87706l3.035,2.087c-0.212,3.464 -0.361,5.487 -0.446,6.071c-0.353,0.042 -1.425,0.106 -3.218,0.191l-0.064,-0.128l-0.319,-4.867l-0.127,-0.064c-1.161,0.25 -1.96,0.438 -2.397,0.566c0.121,2.072 0.182,3.569 0.182,4.493c-1.811,0.504 -2.801,0.757 -2.971,0.757c-1.179,-5.19 -1.769,-7.93 -1.769,-8.222c2.565,-0.334 3.956,-0.501 4.175,-0.501v0.064c0.042,0.03 0.106,0.662 0.191,1.896c2.352,-1.562 3.594,-2.343 3.728,-2.343z" data-paper-data="{&quot;origPos&quot;:null}" fill="#000000"/><path d="M126.16,150.88606c2.309,0.62 3.533,0.997 3.673,1.13c1.27,1.799 1.984,2.835 2.142,3.109c-0.821,2.6 -1.291,3.901 -1.413,3.901c-2.734,0.638 -4.165,0.957 -4.293,0.957c-2.26,-1.319 -3.463,-2.054 -3.609,-2.206c-0.079,-2.455 -0.119,-3.81 -0.119,-4.065c-0.036,-0.073 -0.054,-0.128 -0.054,-0.164c2.333,-1.775 3.539,-2.662 3.618,-2.662zM125.932,154.22206c-0.037,0.243 -0.091,1.127 -0.164,2.653l2.032,0.455c0.486,-1.519 0.729,-2.33 0.729,-2.433c-1.616,-0.486 -2.482,-0.73 -2.597,-0.73z" data-paper-data="{&quot;origPos&quot;:null}" fill="#000000"/><path d="M136.806,150.87706c0.079,0.103 0.489,1.866 1.23,5.287h0.064c0,-0.079 0.449,-0.775 1.349,-2.088c0.376,0.256 1.094,0.808 2.151,1.659h0.127v-0.064c0.164,-2.369 0.286,-3.682 0.365,-3.937c2.503,0.127 3.755,0.231 3.755,0.31c-1.148,4.618 -1.762,7.018 -1.841,7.2c-0.383,0.043 -1.185,0.164 -2.406,0.365c-1.003,-1.574 -1.577,-2.412 -1.723,-2.516c-0.656,1.75 -1.066,2.713 -1.23,2.89h-2.461c-0.152,-0.049 -0.869,-1.629 -2.151,-4.74c-0.821,-1.738 -1.231,-2.68 -1.231,-2.826c0,-0.133 1.334,-0.647 4.002,-1.54z" data-paper-data="{&quot;origPos&quot;:null}" fill="#000000"/><path d="M155.016,150.87706c1.489,3.415 2.282,5.186 2.379,5.314c0.736,-2.789 1.164,-4.275 1.286,-4.457c2.321,0.213 3.481,0.395 3.481,0.547v0.064c-1.628,4.472 -2.503,6.814 -2.625,7.027c-1.798,0.328 -3.001,0.532 -3.609,0.611l-4.457,-6.599v-0.128c0.042,-0.079 1.224,-0.872 3.545,-2.379z" data-paper-data="{&quot;origPos&quot;:null}" fill="#000000"/><path d="M164.395,147.22206l3.582,0.565c-0.449,1.72 -0.744,2.58 -0.884,2.58c-1.883,-0.128 -2.825,-0.252 -2.825,-0.374v-2.643c0.018,-0.085 0.061,-0.128 0.127,-0.128zM163.393,151.56106h0.054c2.771,0.504 4.157,0.799 4.157,0.884c-0.796,4.509 -1.279,7.021 -1.449,7.538h-2.89c-0.085,0 -0.127,-0.043 -0.127,-0.128z" data-paper-data="{&quot;origPos&quot;:null}" fill="#000000"/><path d="M175.634,150.87706c1.75,1.118 2.716,1.762 2.898,1.932c-0.632,1.404 -0.993,2.106 -1.085,2.106l-3.317,-1.923h-0.119c0,0.06 -0.143,0.401 -0.428,1.021c3.056,1.646 4.585,2.491 4.585,2.533c-0.857,1.981 -1.34,3.026 -1.45,3.136l-5.186,0.301c-2.017,-1.337 -3.102,-2.042 -3.254,-2.115v-0.055c0,-0.152 0.301,-0.835 0.903,-2.05l4.046,2.105l0.301,-1.203c-2.503,-1.124 -3.992,-1.826 -4.466,-2.106v-0.127c0,-0.231 0.483,-1.255 1.449,-3.072z" data-paper-data="{&quot;origPos&quot;:null}" fill="#000000"/><path d="M180.692,147.22206l3.582,0.565c-0.449,1.72 -0.744,2.58 -0.884,2.58c-1.884,-0.128 -2.825,-0.252 -2.825,-0.374v-2.643c0.018,-0.085 0.06,-0.128 0.127,-0.128zM179.69,151.56106h0.054c2.771,0.504 4.157,0.799 4.157,0.884c-0.796,4.509 -1.279,7.021 -1.45,7.538h-2.889c-0.085,0 -0.128,-0.043 -0.128,-0.128z" data-paper-data="{&quot;origPos&quot;:null}" fill="#000000"/><path d="M187.3,148.12506l4.011,0.71l-0.383,3.045c0.796,-0.043 1.379,-0.064 1.75,-0.064h0.583l0.128,-0.064l0.064,0.128c-0.128,1.847 -0.237,2.886 -0.328,3.117l-0.128,-0.073c-0.091,0 -0.912,-0.043 -2.461,-0.128c-0.085,1.428 -0.149,3.136 -0.191,5.123l-0.128,0.064c-1.957,-0.128 -3.123,-0.237 -3.5,-0.329l0.064,-0.255c0,-0.528 0.085,-2.169 0.255,-4.922c-1.641,-0.091 -2.461,-0.2 -2.461,-0.328c0.085,-2.029 0.195,-3.044 0.328,-3.044l2.397,0.456v-0.784c0,-0.638 -0.024,-1.501 -0.073,-2.589c0.049,0 0.073,-0.021 0.073,-0.063z" data-paper-data="{&quot;origPos&quot;:null}" fill="#000000"/><path d="M205.256,148.12506c2.716,1.057 4.074,1.619 4.074,1.686c-0.869,1.774 -1.303,2.698 -1.303,2.771h-0.055c-0.389,-0.11 -1.242,-0.49 -2.561,-1.14l-2.169,1.522c0,1.884 0.106,2.826 0.319,2.826c0.139,0.073 1.048,0.437 2.725,1.094c0.644,-0.638 1.297,-1.255 1.96,-1.851c0.121,0.11 0.665,0.979 1.631,2.607v0.164c-0.061,0 -1.403,0.726 -4.029,2.179c-3.354,-1.125 -5.076,-1.723 -5.167,-1.796l-1.632,-5.387c1.531,-2.175 2.312,-3.263 2.342,-3.263c0.067,0 1.355,-0.471 3.865,-1.412z" data-paper-data="{&quot;origPos&quot;:null}" fill="#2b70c2"/><path d="M210.934,148.13408c1.86,0.036 3.224,0.054 4.093,0.054c0.079,0 0.319,3.731 0.72,11.193c-0.31,0.079 -1.392,0.28 -3.245,0.602c-0.091,0 -0.392,-2.285 -0.902,-6.855c-0.043,-0.109 -0.265,-1.774 -0.666,-4.994z" data-paper-data="{&quot;origPos&quot;:null}" fill="#2b70c2"/><path d="M220.441,150.88606c2.309,0.62 3.533,0.997 3.673,1.13c1.27,1.799 1.984,2.835 2.142,3.109c-0.82,2.6 -1.291,3.901 -1.413,3.901c-2.734,0.638 -4.165,0.957 -4.293,0.957c-2.26,-1.319 -3.463,-2.054 -3.609,-2.206c-0.079,-2.455 -0.119,-3.81 -0.119,-4.065c-0.036,-0.073 -0.054,-0.128 -0.054,-0.164c2.333,-1.775 3.539,-2.662 3.618,-2.662zM220.213,154.22206c-0.036,0.243 -0.091,1.127 -0.164,2.653l2.033,0.455c0.486,-1.519 0.729,-2.33 0.729,-2.433c-1.617,-0.486 -2.482,-0.73 -2.598,-0.73z" data-paper-data="{&quot;origPos&quot;:null}" fill="#2b70c2"/><path d="M232.007,150.87706l0.064,0.119l-1.23,6.526h0.063l3.136,-0.921v-3.691c0.012,-0.085 0.052,-0.128 0.118,-0.128c2.358,0.164 3.671,0.246 3.938,0.246c0,0.043 0.021,0.064 0.064,0.064c0,1.039 -0.328,3.193 -0.985,6.462c0,0.189 -0.942,0.331 -2.825,0.429c-0.097,-0.116 -0.179,-0.362 -0.246,-0.739c-2.413,0.492 -3.789,0.739 -4.129,0.739c-1.926,-1.434 -2.89,-2.173 -2.89,-2.215c0.329,-4.308 0.535,-6.545 0.62,-6.709h0.055c1.537,-0.042 2.953,-0.103 4.247,-0.182z" data-paper-data="{&quot;origPos&quot;:null}" fill="#2b70c2"/><path d="M244.595,148.11506h0.054c2.747,0.231 4.12,0.411 4.12,0.538l1.212,10.728c0,0.079 -1.212,0.28 -3.636,0.602l-0.055,-0.119v-0.975c-2.09,0.565 -3.524,0.93 -4.302,1.094c-1.847,-2.613 -2.817,-4.005 -2.908,-4.175c1.361,-2.473 2.088,-3.725 2.179,-3.755l3.819,0.182c-0.079,-0.468 -0.24,-1.841 -0.483,-4.12zM242.899,154.65106c0.614,1.877 0.997,2.907 1.149,3.089l1.814,-1.576c-0.189,-1.088 -0.329,-1.632 -0.42,-1.632h-2.424c-0.079,0.012 -0.119,0.052 -0.119,0.119z" data-paper-data="{&quot;origPos&quot;:null}" fill="#2b70c2"/><path d="M262.724,148.12506c2.187,1.105 3.311,1.658 3.372,1.658c0,0.098 -0.456,0.976 -1.367,2.634h-0.064c-0.073,0 -1.121,-0.495 -3.145,-1.485l-1.03,1.376c1.744,0.839 3.862,1.908 6.353,3.208c-1.13,2.012 -1.932,3.349 -2.406,4.011l-5.15,0.456c-2.351,-1.586 -3.594,-2.407 -3.728,-2.461v-0.064c0,-0.17 0.477,-0.951 1.431,-2.343h0.119c0.377,0.225 1.559,0.872 3.546,1.942l1.203,-1.367c-3.652,-1.86 -5.676,-2.911 -6.071,-3.154v-0.055c1.161,-2.26 1.793,-3.406 1.896,-3.436c3.02,-0.614 4.7,-0.92 5.041,-0.92z" data-paper-data="{&quot;origPos&quot;:null}" fill="#2b70c2"/><path d="M271.893,148.12506c0.036,0.054 0.206,1.719 0.51,4.994c2.346,-0.717 3.594,-1.075 3.746,-1.075l2.325,1.586c-0.377,3.463 -0.623,5.487 -0.739,6.07l-3.226,0.109c0,-0.036 -0.022,-0.054 -0.064,-0.054l0.064,-0.228c0,-0.492 0.073,-1.987 0.218,-4.485c-0.887,-0.036 -1.546,-0.054 -1.977,-0.054h-0.228c0.261,2.777 0.392,4.29 0.392,4.539l-3.063,0.456c-0.115,-0.389 -0.796,-4.02 -2.042,-10.892c0,-0.195 0.474,-0.347 1.422,-0.456c1.197,-0.34 2.085,-0.51 2.662,-0.51z" data-paper-data="{&quot;origPos&quot;:null}" fill="#2b70c2"/><path d="M280.588,147.22206l3.582,0.565c-0.45,1.72 -0.744,2.58 -0.884,2.58c-1.884,-0.128 -2.826,-0.252 -2.826,-0.374v-2.643c0.019,-0.085 0.061,-0.128 0.128,-0.128zM279.585,151.56106h0.055c2.771,0.504 4.156,0.799 4.156,0.884c-0.796,4.509 -1.279,7.021 -1.449,7.538h-2.889c-0.085,0 -0.128,-0.043 -0.128,-0.128z" data-paper-data="{&quot;origPos&quot;:null}" fill="#2b70c2"/><path d="M289.046,150.88606c0.189,0.778 0.319,1.258 0.392,1.44c2.686,-0.613 4.105,-0.92 4.257,-0.92c1.829,2.631 2.743,4.004 2.743,4.12l-2.096,4.447l-4.512,-0.72v0.137c0.353,2.704 0.529,4.141 0.529,4.311c-0.043,0 -0.064,0.022 -0.064,0.064c-0.437,-0.042 -0.766,-0.064 -0.984,-0.064h-0.784c-0.456,0 -1.155,-0.021 -2.096,-0.063c-0.086,-0.256 -0.739,-4.135 -1.96,-11.64c0.206,-0.085 1.732,-0.456 4.575,-1.112zM289.375,154.61406c0.121,1.398 0.23,2.096 0.328,2.096c1.245,0.432 2.008,0.648 2.287,0.648l0.72,-3.136h-0.063c-0.711,0.043 -1.802,0.173 -3.272,0.392z" data-paper-data="{&quot;origPos&quot;:null}" fill="#2b70c2"/><path d="M309.171,148.12506c2.188,1.105 3.312,1.658 3.373,1.658c0,0.098 -0.456,0.976 -1.367,2.634h-0.064c-0.073,0 -1.121,-0.495 -3.145,-1.485l-1.03,1.376c1.744,0.839 3.862,1.908 6.353,3.208c-1.13,2.012 -1.932,3.349 -2.406,4.011l-5.15,0.456c-2.351,-1.586 -3.594,-2.407 -3.728,-2.461v-0.064c0,-0.17 0.477,-0.951 1.431,-2.343h0.119c0.377,0.225 1.558,0.872 3.545,1.942l1.204,-1.367c-3.652,-1.86 -5.676,-2.911 -6.071,-3.154v-0.055c1.161,-2.26 1.793,-3.406 1.896,-3.436c3.02,-0.614 4.7,-0.92 5.04,-0.92z" data-paper-data="{&quot;origPos&quot;:null}" fill="#2b70c2"/><path d="M317.839,150.88606c2.741,0.517 4.175,0.811 4.302,0.884v0.11c-0.589,1.665 -0.884,2.527 -0.884,2.588h-0.054c-0.152,0 -0.888,-0.237 -2.206,-0.711c-0.735,1.234 -1.103,1.893 -1.103,1.978l1.823,1.768c1.41,-1.324 2.127,-1.987 2.151,-1.987c1.1,1.441 1.65,2.249 1.65,2.425c-0.602,0.346 -1.65,1.027 -3.145,2.042c-2.892,-0.626 -4.454,-0.976 -4.685,-1.049l-1.431,-4.63z" data-paper-data="{&quot;origPos&quot;:null}" fill="#2b70c2"/><path d="M330.974,150.87706c1.203,0.675 1.941,1.112 2.214,1.313c-0.984,2.047 -1.513,3.089 -1.586,3.126h-0.063l-1.304,-1.139l-1.54,1.877l0.173,3.418c-0.079,0.073 -1.085,0.243 -3.017,0.511c-0.073,-0.523 -0.547,-3.084 -1.422,-7.684c0,-0.073 1.27,-0.261 3.81,-0.565c0.043,0.049 0.158,0.617 0.346,1.704c1.52,-1.707 2.316,-2.561 2.388,-2.561z" data-paper-data="{&quot;origPos&quot;:null}" fill="#2b70c2"/><path d="M335.294,150.87706c3.609,0.498 5.414,0.805 5.414,0.921c1.422,1.221 2.133,1.874 2.133,1.959c-0.578,1.805 -0.906,2.902 -0.985,3.291c0.578,1.282 0.906,2.047 0.985,2.297c0,0.072 -0.942,0.267 -2.826,0.583c-0.024,-0.103 -0.197,-0.334 -0.519,-0.693c-2.601,0.498 -4.002,0.748 -4.202,0.748l-1.386,-3.747l3.054,-1.613c0.492,0.079 1.261,0.119 2.306,0.119c0,-0.134 0.018,-0.538 0.054,-1.213c-0.176,0 -1.75,0.116 -4.721,0.347l-0.055,-0.119c0.414,-1.92 0.663,-2.88 0.748,-2.88zM337.19,156.23607c0,0.067 0.194,0.778 0.583,2.133h0.055c0.765,-0.498 1.148,-0.826 1.148,-0.984l0.119,-0.975c-0.146,0 -0.781,-0.058 -1.905,-0.174z" data-paper-data="{&quot;origPos&quot;:null}" fill="#2b70c2"/><path d="M343.716,148.13408c1.859,0.036 3.223,0.054 4.092,0.054c0.079,0 0.319,3.731 0.72,11.193c-0.31,0.079 -1.391,0.28 -3.245,0.602c-0.091,0 -0.392,-2.285 -0.902,-6.855c-0.042,-0.109 -0.264,-1.774 -0.665,-4.994z" data-paper-data="{&quot;origPos&quot;:null}" fill="#2b70c2"/><path d="M350.934,150.87706c3.61,0.498 5.414,0.805 5.414,0.921c1.422,1.221 2.133,1.874 2.133,1.959c-0.577,1.805 -0.905,2.902 -0.984,3.291c0.577,1.282 0.905,2.047 0.984,2.297c0,0.072 -0.942,0.267 -2.825,0.583c-0.025,-0.103 -0.198,-0.334 -0.52,-0.693c-2.6,0.498 -4.001,0.748 -4.202,0.748l-1.385,-3.747l3.053,-1.613c0.493,0.079 1.261,0.119 2.306,0.119c0,-0.134 0.019,-0.538 0.055,-1.213c-0.176,0 -1.75,0.116 -4.721,0.347l-0.055,-0.119c0.413,-1.92 0.662,-2.88 0.747,-2.88zM352.83,156.23607c0,0.067 0.195,0.778 0.584,2.133h0.054c0.766,-0.498 1.149,-0.826 1.149,-0.984l0.118,-0.975c-0.146,0 -0.781,-0.058 -1.905,-0.174z" data-paper-data="{&quot;origPos&quot;:null}" fill="#2b70c2"/><path d="M365.837,150.87706h0.036c1.623,0.954 2.498,1.452 2.625,1.495v0.082c-0.419,0.48 -1.191,1.312 -2.315,2.497c2.206,0.821 3.445,1.316 3.719,1.486l-2.06,2.543c-1.391,-1.191 -2.279,-1.935 -2.661,-2.233c-0.942,1.835 -1.529,2.914 -1.76,3.236h-0.036c-1.744,-0.614 -2.692,-0.979 -2.844,-1.094v-0.046l2.406,-3.144c-2.236,-0.924 -3.433,-1.465 -3.591,-1.623c0.985,-1.671 1.538,-2.561 1.659,-2.67c0.018,0.042 1.1,0.787 3.245,2.233c0.76,-1.404 1.285,-2.324 1.577,-2.762z" data-paper-data="{&quot;origPos&quot;:null}" fill="#2b70c2"/><path d="M374.924,150.89506c0.085,0.013 0.128,0.055 0.128,0.128l-0.948,5.25c1.81,-0.213 2.716,-0.383 2.716,-0.51c0.34,-2.103 0.574,-3.282 0.702,-3.537c2.242,0.462 3.484,0.735 3.728,0.82c-1.307,4.491 -2.024,6.83 -2.151,7.019c-2.285,1.604 -3.57,2.491 -3.856,2.661c-0.085,0 -1.54,-0.358 -4.366,-1.075v-0.064c0.748,-1.647 1.212,-2.47 1.395,-2.47l2.78,1.394l1.33,-2.278c-1.197,0.297 -1.892,0.446 -2.087,0.446l-3.545,-1.841c0.431,-3.962 0.704,-5.943 0.82,-5.943z" data-paper-data="{&quot;origPos&quot;:null}" fill="#2b70c2"/><path d="M386.153,148.46208l0.037,0.073c-0.608,5.365 -0.948,8.185 -1.021,8.458c-1.288,-0.122 -2.103,-0.207 -2.443,-0.255v-0.037l-0.583,-7.619c0.146,-0.049 1.482,-0.256 4.01,-0.62zM382.544,157.17506c0.042,0.025 0.99,0.098 2.844,0.219l0.036,0.073c-0.286,1.677 -0.468,2.516 -0.547,2.516h-2.114c-0.073,0 -0.171,-0.839 -0.292,-2.516c-0.024,0 -0.037,-0.073 -0.037,-0.219c0.073,-0.024 0.11,-0.048 0.11,-0.073z" data-paper-data="{&quot;origPos&quot;:null}" fill="#000000"/></g></g></g></svg>