<svg version="1.1" xmlns="http://www.w3.org/2000/svg" xmlns:xlink="http://www.w3.org/1999/xlink" width="210.90094" height="41.4757" viewBox="0,0,210.90094,41.4757"><g transform="translate(-134.91321,-159.22606)"><g data-paper-data="{&quot;isPaintingLayer&quot;:true}" fill="#ffffff" fill-rule="nonzero" stroke="none" stroke-width="none" stroke-linecap="butt" stroke-linejoin="miter" stroke-miterlimit="10" stroke-dasharray="" stroke-dashoffset="0" font-family="none" font-weight="none" font-size="none" text-anchor="none" style="mix-blend-mode: normal"><text transform="translate(135.27411,196.01012) scale(0.7218,0.72179)" font-size="22" xml:space="preserve" data-paper-data="{&quot;origPos&quot;:null}" id="ID0.08681221166625619" fill="#ffffff" fill-rule="nonzero" stroke="none" stroke-width="1" stroke-linecap="butt" stroke-linejoin="miter" stroke-miterlimit="10" stroke-dasharray="" stroke-dashoffset="0" font-family="Sans Serif" font-weight="400" text-anchor="start" style="mix-blend-mode: normal"><tspan x="0" dy="0">Get three 1-up mushrooms.</tspan></text><g data-paper-data="{&quot;origPos&quot;:null}" id="text40" stroke-width="0.26458"><path d="M221.68772,159.22608c3.55818,0.58356 5.45479,0.92399 5.68984,1.02126c1.33736,2.59365 2.06682,4.03636 2.1884,4.32815c0,0.05672 -0.64842,0.68895 -1.94525,1.89663c0.08105,0.14588 0.72946,1.11852 1.94525,2.91786v0.04862c-0.04864,0.21074 -0.82673,1.62103 -2.3343,4.23091h-5.83572c-0.154,-0.11346 -1.25631,-1.23196 -3.30691,-3.35554c0.40527,-0.37284 1.52377,-1.29683 3.35554,-2.77198c0.154,0.154 0.83482,1.22388 2.04251,3.20965h0.04862l1.60482,-1.41031c-0.13779,-0.20262 -0.75378,-0.93209 -1.84798,-2.1884l1.70208,-2.33429l-1.21578,-1.79936c-1.48324,2.01008 -2.24514,3.01512 -2.28566,3.01512c-2.1884,-1.41029 -3.4528,-2.25323 -3.79324,-2.52881c2.26945,-2.46397 3.59871,-3.8905 3.98774,-4.27953z" id="path732"/><path d="M237.15241,161.5239l0.08511,0.15802l-1.64131,8.70497h0.08511l4.18227,-1.22792v-4.92391c0.01621,-0.11346 0.0689,-0.17018 0.15806,-0.17018c3.14482,0.21886 4.89552,0.32828 5.25216,0.32828c0,0.05672 0.02837,0.08509 0.08511,0.08509c0,1.38598 -0.43768,4.25928 -1.31305,8.61987c0,0.25125 -1.2563,0.44172 -3.7689,0.57141c-0.12969,-0.154 -0.23911,-0.48226 -0.32826,-0.98477c-3.21775,0.65652 -5.05358,0.98477 -5.50747,0.98477c-2.56933,-1.91282 -3.85401,-2.89761 -3.85401,-2.95433c0.43767,-5.74658 0.71325,-8.7293 0.82673,-8.94814h0.07295c2.05061,-0.05672 3.93911,-0.13777 5.66552,-0.24315z" id="path734"/><path d="M252.69003,161.53605c0.25127,1.03747 0.42552,1.67777 0.52278,1.92094c3.58249,-0.81863 5.47504,-1.22793 5.67769,-1.22793c2.43966,3.50954 3.65948,5.34131 3.65948,5.49531l-2.79629,5.93299l-6.0181,-0.96046v0.18233c0.4701,3.60682 0.70516,5.5237 0.70516,5.75064c-0.05674,0 -0.08511,0.02837 -0.08511,0.08509c-0.58358,-0.05672 -1.02125,-0.08509 -1.31304,-0.08509h-1.04557c-0.60789,0 -1.53999,-0.02837 -2.79629,-0.08509c-0.11348,-0.34041 -0.98479,-5.51558 -2.61391,-15.52548c0.27558,-0.11346 2.30997,-0.60787 6.1032,-1.48324zM253.12772,166.50858c0.1621,1.8642 0.308,2.79629 0.43767,2.79629c1.66156,0.57546 2.67875,0.8632 3.05159,0.8632l0.96046,-4.18227h-0.08511c-0.94831,0.05672 -2.40318,0.23099 -4.36464,0.52278z" id="path736"/></g></g></g></svg>