<svg version="1.1" xmlns="http://www.w3.org/2000/svg" xmlns:xlink="http://www.w3.org/1999/xlink" width="441.55828" height="69.66968" viewBox="0,0,441.55828,69.66968"><defs><linearGradient x1="24.5327" y1="284.2076" x2="24.5327" y2="341.819" gradientUnits="userSpaceOnUse" id="color-1"><stop offset="0" stop-color="#ffffff"/><stop offset="1" stop-color="#ffffff"/></linearGradient><radialGradient cx="433.55778" cy="324.91029" r="18.72682" gradientUnits="userSpaceOnUse" id="color-2"><stop offset="0" stop-color="#ffff00"/><stop offset="1" stop-color="#ff9400"/></radialGradient><radialGradient cx="437.13623" cy="326.02495" r="12.81669" gradientUnits="userSpaceOnUse" id="color-3"><stop offset="0" stop-color="#bda501"/><stop offset="1" stop-color="#c07801"/></radialGradient></defs><g transform="translate(-18.50356,-278.17846)"><g data-paper-data="{&quot;isPaintingLayer&quot;:true}" fill="none" fill-rule="nonzero" stroke="none" stroke-width="none" stroke-linecap="butt" stroke-linejoin="miter" stroke-miterlimit="10" stroke-dasharray="" stroke-dashoffset="0" font-family="none" font-weight="none" font-size="none" text-anchor="none" style="mix-blend-mode: normal"><path d="M24.5327,284.2076h429.5v57.6114h-429.5z" data-paper-data="{&quot;origPos&quot;:null}" id="ID0.3184669064357877" fill="#ffffff" stroke="url(#color-1)" stroke-width="12.05828"/><text transform="translate(25.78827,322.12447) scale(0.7218,0.72179)" font-size="22" xml:space="preserve" data-paper-data="{&quot;origPos&quot;:null}" id="ID0.08681221166625619" fill="#2492d1" fill-rule="nonzero" stroke="none" stroke-width="1" stroke-linecap="butt" stroke-linejoin="miter" stroke-miterlimit="10" stroke-dasharray="" stroke-dashoffset="0" font-family="Sans Serif" font-weight="400" text-anchor="start" style="mix-blend-mode: normal"><tspan x="0" dy="0">Defeat 5 goombas.</tspan></text><g data-paper-data="{&quot;origPos&quot;:null}" id="text44" fill="#2392d1" stroke="none" stroke-width="0.26458"><path d="M27.49339,285.77109c8.03224,0.94831 12.04835,1.47921 12.04835,1.59267l-1.16714,4.26737c-3.79324,-1.00504 -5.83169,-1.56431 -6.11536,-1.67779c0,0.07295 -0.41742,0.99289 -1.25225,2.75982h0.08511c1.69398,-0.10534 3.53385,-0.2715 5.51962,-0.49847l0.08511,0.17018c-0.33231,1.88039 -0.58358,3.16101 -0.75378,3.84185l-4.68074,-0.66867c0.04862,0.92399 0.07295,1.62103 0.07295,2.09113v0.42552l0.0851,0.17017c1.03747,-0.11346 3.13266,-0.28365 6.28558,-0.5106c0.10538,0.50251 0.29991,1.75882 0.58358,3.7689c-0.05674,0 -0.08511,0.02837 -0.08511,0.08509c-7.35139,-0.38906 -11.08789,-0.64032 -11.20946,-0.75379l-1.76287,-5.02108c1.33736,-6.23287 2.09113,-9.58031 2.26135,-10.04232z" id="path705"/><path d="M45.32884,289.44275c1.98577,4.5551 3.0435,6.91776 3.17319,7.08798c0.98073,-3.72028 1.55214,-5.702 1.71424,-5.94515c3.09618,0.28367 4.64427,0.52684 4.64427,0.72947v0.08509c-2.17218,5.96541 -3.33934,9.08998 -3.50144,9.37366c-2.39914,0.43767 -4.00395,0.70919 -4.81447,0.81457l-5.94515,-8.80223v-0.17017c0.05674,-0.10534 1.63321,-1.16307 4.72939,-3.17317z" id="path707"/><path d="M57.83918,284.56749l4.778,0.75378c-0.59977,2.29376 -0.99288,3.44065 -1.17929,3.44065c-2.51262,-0.17022 -3.76891,-0.33638 -3.76891,-0.49848v-3.52575c0.02431,-0.11348 0.08105,-0.17021 0.17022,-0.17021zM56.50184,290.35457h0.07295c3.69597,0.67273 5.54393,1.06584 5.54393,1.17932c-1.06178,6.01404 -1.70614,9.36554 -1.93309,10.05448h-3.85401c-0.11348,0 -0.17021,-0.05672 -0.17021,-0.17018z" id="path709"/><path d="M63.01839,285.78325c2.48019,0.04864 4.29981,0.07295 5.45885,0.07295c0.10536,0 0.42552,4.97659 0.96046,14.92975c-0.41337,0.10534 -1.85608,0.37282 -4.32817,0.80242c-0.12158,0 -0.52278,-3.04755 -1.20363,-9.14264c-0.05674,-0.14591 -0.35259,-2.36673 -0.88753,-6.66248z" id="path711"/><path d="M82.39788,285.75894c2.29376,0.1621 3.44065,0.30801 3.44065,0.43768c0.88347,2.37483 1.42246,3.89049 1.61699,4.54701h0.07295c0.21074,-0.45389 1.0172,-1.70208 2.41939,-3.74459h0.07295c2.1965,0.13779 3.29476,0.28773 3.29476,0.44983l1.98172,13.55592c0,0.08103 -1.7345,0.27555 -5.20352,0.58358l-0.07295,-0.14587c-0.19452,-4.11743 -0.29179,-6.63409 -0.29179,-7.54998h-0.07295l-3.00297,2.63825h-0.07295c-0.09727,-0.04862 -0.78215,-1.12256 -2.05467,-3.22181h-0.07295c-1.56429,4.5551 -2.41939,6.97452 -2.5653,7.25819h-0.14588c-2.79629,-1.2644 -4.38491,-2.02224 -4.76585,-2.27351v-0.07293c3.46902,-8.15382 5.27648,-12.30771 5.42236,-12.46172z" id="path713"/><path d="M102.99316,289.44275l0.08511,0.15805l-1.64131,8.70497h0.08511l4.18227,-1.22794v-4.92389c0.01621,-0.11346 0.0689,-0.17018 0.15806,-0.17018c3.14482,0.21884 4.89554,0.32826 5.25216,0.32826c0,0.05672 0.02837,0.08509 0.08511,0.08509c0,1.38598 -0.43768,4.25928 -1.31305,8.61986c0,0.25127 -1.2563,0.44174 -3.7689,0.57142c-0.12969,-0.154 -0.23911,-0.48228 -0.32826,-0.98479c-3.21775,0.65653 -5.05358,0.98479 -5.50747,0.98479c-2.56933,-1.91282 -3.85401,-2.8976 -3.85401,-2.95434c0.43767,-5.74658 0.71325,-8.72928 0.82673,-8.94811h0.07295c2.05061,-0.05674 3.93912,-0.13779 5.66553,-0.24315z" id="path715"/><path d="M122.2389,289.44275c2.33429,1.49136 3.62302,2.3505 3.86617,2.57743c-0.84294,1.87232 -1.3252,2.80846 -1.44678,2.80846l-4.42543,-2.5653h-0.15806c0,0.08103 -0.19047,0.53492 -0.57142,1.36167c4.07691,2.19651 6.11536,3.32313 6.11536,3.37985c-1.14283,2.6423 -1.78718,4.03641 -1.93309,4.18229l-6.91778,0.40121c-2.69093,-1.78315 -4.13771,-2.72335 -4.34033,-2.82062v-0.07294c0,-0.20262 0.40121,-1.11446 1.20363,-2.73551l5.39805,2.80844l0.40121,-1.60482c-3.33934,-1.49946 -5.32509,-2.43561 -5.9573,-2.80844v-0.17018c0,-0.30798 0.64435,-1.67371 1.93309,-4.09716z" id="path717"/><path d="M132.75536,285.77109c0.04864,0.07295 0.27558,2.29376 0.68083,6.66246c3.1286,-0.9564 4.79422,-1.4346 4.99684,-1.4346l3.10023,2.11544c-0.50253,4.61996 -0.83079,7.31899 -0.98479,8.09707l-4.30384,0.14587c0,-0.04862 -0.02837,-0.07293 -0.08511,-0.07293l0.08511,-0.30395c0,-0.65653 0.09727,-2.6504 0.29179,-5.98163c-1.18335,-0.04862 -2.06277,-0.07293 -2.63823,-0.07293h-0.30395c0.34853,3.70406 0.52278,5.72226 0.52278,6.05458l-4.085,0.60789c-0.154,-0.51874 -1.06178,-5.36158 -2.72333,-14.52853c0,-0.25936 0.6322,-0.46199 1.89661,-0.60789c1.59672,-0.45389 2.78007,-0.68085 3.55006,-0.68085z" id="path719"/><path d="M151.40539,289.44275c1.60482,0.89968 2.5896,1.48324 2.95433,1.7507c-1.31304,2.73145 -2.01818,4.12149 -2.11544,4.17013h-0.08511l-1.73857,-1.51972l-2.05466,2.5045l0.23099,4.55916c-0.10536,0.09724 -1.44678,0.3242 -4.02423,0.68085c-0.09727,-0.69704 -0.72946,-4.11337 -1.89661,-10.249c0,-0.09724 1.69398,-0.34851 5.08195,-0.75378c0.05674,0.06484 0.21074,0.82267 0.462,2.27351c2.02629,-2.27756 3.08808,-3.41634 3.18534,-3.41634z" id="path721"/><path d="M160.21977,289.45491c3.07996,0.82673 4.71316,1.32926 4.89957,1.50756c1.69398,2.39914 2.64635,3.78107 2.85707,4.1458c-1.09421,3.46902 -1.72235,5.20352 -1.88446,5.20352c-3.64733,0.85106 -5.55611,1.27658 -5.7263,1.27658c-3.01512,-1.75884 -4.61995,-2.73957 -4.81447,-2.94219c-0.10538,-3.27449 -0.15806,-5.08194 -0.15806,-5.42236c-0.04864,-0.09724 -0.07295,-0.1702 -0.07295,-0.21884c3.11239,-2.36671 4.72126,-3.55007 4.82662,-3.55007zM159.98877,293.90466c-0.04864,0.3242 -0.12157,1.50349 -0.21884,3.53791l2.71118,0.60789c0.64842,-2.02629 0.97261,-3.10835 0.97261,-3.24614c-2.15597,-0.64842 -3.31098,-0.97261 -3.46496,-0.97261z" id="path723"/><path d="M173.98235,289.45491c3.07996,0.82673 4.71317,1.32926 4.89958,1.50756c1.69398,2.39914 2.64634,3.78107 2.85706,4.1458c-1.09421,3.46902 -1.72235,5.20352 -1.88445,5.20352c-3.64733,0.85106 -5.55611,1.27658 -5.7263,1.27658c-3.01512,-1.75884 -4.61995,-2.73957 -4.81447,-2.94219c-0.10538,-3.27449 -0.15806,-5.08194 -0.15806,-5.42236c-0.04864,-0.09724 -0.07295,-0.1702 -0.07295,-0.21884c3.11239,-2.36671 4.72127,-3.55007 4.82663,-3.55007zM173.75136,293.90466c-0.04864,0.3242 -0.12157,1.50349 -0.21884,3.53791l2.71118,0.60789c0.64842,-2.02629 0.97262,-3.10835 0.97262,-3.24614c-2.15597,-0.64842 -3.31098,-0.97261 -3.46496,-0.97261z" id="path725"/><path d="M196.35266,289.44275c1.97765,0.81861 3.68379,1.5886 5.11841,2.30997c-0.37284,4.82259 -0.61195,7.46081 -0.71731,7.91471c-2.38293,0.59168 -3.71622,0.88753 -3.99992,0.88753c0,-1.05368 -0.08105,-3.13266 -0.24315,-6.23694c-0.89968,0.08915 -1.34951,0.16614 -1.34951,0.23099c0,0.30798 0.05268,2.06682 0.15804,5.27647c0.04864,0 0.07295,0.02837 0.07295,0.08509c0,0.09724 -1.25225,0.36472 -3.75675,0.80242c-0.10536,-0.12965 -0.42552,-2.10327 -0.96046,-5.92083c-1.01314,0.25936 -1.51973,0.44579 -1.51973,0.55927l0.48631,4.96035c-0.09727,0.10534 -1.43056,0.53088 -3.99991,1.27658c-1.49136,-5.27647 -2.42346,-8.81844 -2.79629,-10.6259c2.8125,-0.69704 4.38491,-1.04557 4.71721,-1.04557c0.37284,1.47514 0.55925,2.32619 0.55925,2.55314h0.08511c1.36978,-1.2644 2.32619,-2.11544 2.86924,-2.55314h0.08511l2.55314,1.83583h0.08511c1.59672,-1.53998 2.44776,-2.30997 2.55314,-2.30997z" id="path727"/><path d="M212.49819,289.44275c2.33429,1.49136 3.62302,2.3505 3.86619,2.57743c-0.84294,1.87232 -1.3252,2.80846 -1.44678,2.80846l-4.42544,-2.5653h-0.15806c0,0.08103 -0.19047,0.53492 -0.57142,1.36167c4.07691,2.19651 6.11536,3.32313 6.11536,3.37985c-1.14283,2.6423 -1.78721,4.03641 -1.93309,4.18229l-6.91776,0.40121c-2.69093,-1.78315 -4.13771,-2.72335 -4.34033,-2.82062v-0.07294c0,-0.20262 0.40121,-1.11446 1.20363,-2.73551l5.39805,2.80844l0.40121,-1.60482c-3.33934,-1.49946 -5.32509,-2.43561 -5.9573,-2.80844v-0.17018c0,-0.30798 0.64435,-1.67371 1.93309,-4.09716z" id="path729"/></g><g stroke="none"><text transform="translate(283,338.98128) scale(0.60677,0.60677)" font-size="40" xml:space="preserve" data-paper-data="{&quot;origPos&quot;:null}" fill="#2392d1" fill-rule="nonzero" stroke="none" stroke-width="1" stroke-linecap="butt" stroke-linejoin="miter" stroke-miterlimit="10" stroke-dasharray="" stroke-dashoffset="0" font-family="Sans Serif" font-weight="normal" text-anchor="start" style="mix-blend-mode: normal"><tspan x="0" dy="0">Reward:   +5</tspan></text><path d="M438.22633,321.71811c2.42757,0 4.62707,0.98611 6.21986,2.5789c1.5928,1.59272 2.57884,3.79221 2.57884,6.21979c0,2.4275 -0.98603,4.62709 -2.57884,6.21981c-1.5928,1.5928 -3.79229,2.5789 -6.21986,2.5789c-2.4275,0 -4.62699,-0.98611 -6.2198,-2.5789c-1.5928,-1.59272 -2.5789,-3.79231 -2.5789,-6.21981c0,-2.42757 0.98611,-4.62706 2.5789,-6.21979c1.5928,-1.5928 3.7923,-2.5789 6.2198,-2.5789z" data-paper-data="{&quot;origPos&quot;:null}" id="ID0.7142658131197095" fill="url(#color-2)" stroke-width="0.48028"/><path d="M436.38196,323.73549h3.47092v13.31086h-3.47092z" data-paper-data="{&quot;origPos&quot;:null}" id="ID0.06001657713204622" fill="url(#color-3)" stroke-width="0.59798"/></g></g></g></svg>