<svg version="1.1" xmlns="http://www.w3.org/2000/svg" xmlns:xlink="http://www.w3.org/1999/xlink" width="686.40075" height="73.82876" viewBox="0,0,686.40075,73.82876"><defs><linearGradient x1="320.00001" y1="318" x2="320.00001" y2="363" gradientUnits="userSpaceOnUse" id="color-1"><stop offset="0" stop-color="#8d5418"/><stop offset="1" stop-color="#c06520"/></linearGradient><linearGradient x1="321.33448" y1="289.76281" x2="321.80583" y2="348.00707" gradientUnits="userSpaceOnUse" id="color-2"><stop offset="0" stop-color="#7fea5b"/><stop offset="1" stop-color="#61b245"/></linearGradient></defs><g transform="translate(19.87744,-290.17123)"><g data-paper-data="{&quot;isPaintingLayer&quot;:true}" fill-rule="nonzero" stroke-width="2" stroke-linejoin="miter" stroke-miterlimit="10" stroke-dasharray="" stroke-dashoffset="0" style="mix-blend-mode: normal"><path d="M-3.99999,318h648v45h-648z" data-paper-data="{&quot;origPos&quot;:null}" fill="url(#color-1)" stroke="#763e13" stroke-linecap="butt"/><path d="M322.80667,294.98921c84.8008,0.49677 170.34418,-5.48668 255.02402,1.93629c3.35662,0.29424 81.86901,-0.79279 86.30815,3.22368c9.91633,8.97214 -36.5329,33.45076 -41.04768,36.54556c-6.21083,4.2574 -59.56183,-21.35633 -63.09803,-19.62423c-3.5362,1.7321 -45.78238,20.52716 -70.17079,21.06954c-30.14561,0.66497 -58.6032,-21.04144 -88.824,-19.78284c-28.54344,2.16206 -52.33517,29.9715 -80.76267,29.65454c-30.32277,-0.34263 -55.85296,-28.80795 -86.23996,-29.30307c-28.81605,-1.99087 -54.47837,21.18156 -83.48426,22.17732c-24.37609,0.82929 -49.2469,-8.06774 -70.5026,-19.93111c-2.83933,-1.58647 -35.59825,4.1339 -56.63364,13.43321c-21.83622,9.65334 -41.17426,-33.56509 -42.25265,-36.84291c-1.06585,-3.2397 77.70331,-1.76618 84.67634,-2.47615c85.06269,-8.66165 171.29998,-0.20125 257.00777,-0.07983z" data-paper-data="{&quot;origPos&quot;:null,&quot;origRot&quot;:0}" fill="url(#color-2)" stroke="#006622" stroke-linecap="round"/></g></g></svg>