<svg version="1.1" xmlns="http://www.w3.org/2000/svg" xmlns:xlink="http://www.w3.org/1999/xlink" width="116" height="36" viewBox="0,0,116,36"><defs><linearGradient x1="133.56533" y1="207.02566" x2="133.56533" y2="242.9743" gradientUnits="userSpaceOnUse" id="color-1"><stop offset="0" stop-color="#ff4242"/><stop offset="1" stop-color="#ed3b3b"/></linearGradient><linearGradient x1="135" y1="207" x2="135" y2="243" gradientUnits="userSpaceOnUse" id="color-2"><stop offset="0" stop-color="#ff4242"/><stop offset="1" stop-color="#ed3b3b"/></linearGradient><linearGradient x1="215" y1="207" x2="215" y2="243" gradientUnits="userSpaceOnUse" id="color-3"><stop offset="0" stop-color="#ff4242"/><stop offset="1" stop-color="#ed3b3b"/></linearGradient></defs><g transform="translate(-117,-207)"><g data-paper-data="{&quot;isPaintingLayer&quot;:true}" fill-rule="nonzero" stroke="none" stroke-linecap="butt" stroke-linejoin="miter" stroke-miterlimit="10" stroke-dasharray="" stroke-dashoffset="0" style="mix-blend-mode: normal"><path d="M133.56533,207.02568h81.036v35.94864h-81.03599z" fill="url(#color-1)" stroke-width="6.59245"/><path d="M117,225c0,-9.94113 8.05887,-18 18,-18c9.94113,0 18,8.05887 18,18c0,9.94113 -8.05887,18 -18,18c-9.94113,0 -18,-8.05887 -18,-18z" fill="url(#color-2)" stroke-width="0"/><path d="M197,225c0,-9.94112 8.05887,-18 18,-18c9.94112,0 18,8.05888 18,18c0,9.94113 -8.05888,18 -18,18c-9.94113,0 -18,-8.05887 -18,-18z" fill="url(#color-3)" stroke-width="0"/><text transform="translate(126.28087,221.74429) scale(0.49329,0.49329)" font-size="22" xml:space="preserve" fill="#ffffff" fill-rule="nonzero" stroke="none" stroke-width="1" stroke-linecap="butt" stroke-linejoin="miter" stroke-miterlimit="10" stroke-dasharray="" stroke-dashoffset="0" font-family="Malgun Gothic" font-weight="400" text-anchor="start" style="mix-blend-mode: normal"><tspan x="0" dy="0">    Yes, I want to</tspan><tspan x="0" dy="26.4px">delete EVERYTHING</tspan></text></g></g></svg>