<svg version="1.1" xmlns="http://www.w3.org/2000/svg" xmlns:xlink="http://www.w3.org/1999/xlink" width="441.55828" height="91.66968" viewBox="0,0,441.55828,91.66968"><defs><linearGradient x1="25.5327" y1="70.2076" x2="25.5327" y2="149.819" gradientUnits="userSpaceOnUse" id="color-1"><stop offset="0" stop-color="#ffffff"/><stop offset="1" stop-color="#ffffff"/></linearGradient><radialGradient cx="69.1037" cy="79.1763" r="38.1721" gradientUnits="userSpaceOnUse" id="color-2"><stop offset="0" stop-color="#2ebdff"/><stop offset="1" stop-color="#18628c"/></radialGradient></defs><g transform="translate(-19.50356,-64.17846)"><g data-paper-data="{&quot;isPaintingLayer&quot;:true}" fill-rule="nonzero" stroke-linecap="butt" stroke-linejoin="miter" stroke-miterlimit="10" stroke-dasharray="" stroke-dashoffset="0" style="mix-blend-mode: normal"><path d="M25.5327,70.2076h429.5v79.6114h-429.5z" fill="#ffffff" stroke="url(#color-1)" stroke-width="12.05828"/><text transform="translate(26.4558,108.10322) scale(0.64162,0.68184)" font-size="22" xml:space="preserve" data-paper-data="{&quot;origPos&quot;:null}" fill="#2392d1" fill-rule="nonzero" stroke="none" stroke-width="1" stroke-linecap="butt" stroke-linejoin="miter" stroke-miterlimit="10" stroke-dasharray="" stroke-dashoffset="0" font-family="Sans Serif" font-weight="400" text-anchor="start" style="mix-blend-mode: normal"><tspan x="0" dy="0">Stefano is Mario and Luigi's long lost third brother. He has been</tspan><tspan x="0" dy="24.86px">lost in a far away galaxy for years, but was rescued by a woman</tspan><tspan x="0" dy="24.86px">in a blue dress and is now ready for a new adventure!</tspan></text><g><path d="M42.2142,74.8527c0,0.1087 -0.4936,1.057 -1.4813,2.855h-0.0693c-0.0789,0 -1.2154,-0.5336 -3.4078,-1.6103l-1.1162,1.4914c1.8864,0.9089 4.1882,2.0645 6.8849,3.4771c-1.225,2.1834 -2.0944,3.6253 -2.6077,4.3465l-5.5816,0.4942c-2.5485,-1.7191 -3.8918,-2.6082 -4.04,-2.6674v-0.0688c0,-0.1881 0.5138,-1.0277 1.5512,-2.5389h0.1279c0.4051,0.2468 1.6892,0.9483 3.8428,2.1039l1.3038,-1.4818c-3.9611,-2.015 -6.1541,-3.1509 -6.5789,-3.4174v-0.0597c1.2548,-2.4494 1.9462,-3.6941 2.0549,-3.7239c3.2697,-0.6616 5.097,-0.9974 5.4627,-0.9974c2.3705,1.1951 3.5859,1.7975 3.6546,1.7975zM51.3715,73.8255l-0.4152,3.299c0.8598,-0.049 1.492,-0.0687 1.8966,-0.0687h0.6322l0.1386,-0.0693l0.0693,0.138c-0.1386,2.0054 -0.257,3.1317 -0.3561,3.3785l-0.1381,-0.0789c-0.0986,0 -0.9877,-0.0495 -2.6668,-0.1386c-0.0891,1.5512 -0.1583,3.3982 -0.2079,5.5518l-0.1381,0.0693c-2.1237,-0.1386 -3.3881,-0.257 -3.7932,-0.3556l0.0693,-0.2766c0,-0.5731 0.0885,-2.3513 0.2767,-5.3343c-1.7783,-0.0991 -2.6674,-0.2175 -2.6674,-0.3555c0.089,-2.2031 0.2073,-3.2996 0.3555,-3.2996l2.5981,0.4941v-0.8497c0,-0.6913 -0.0298,-1.63 -0.0789,-2.8054c0.0491,0 0.0789,-0.0197 0.0789,-0.0688zM74.1206,73.9342l0.0592,0.1184c-0.3257,1.7979 -0.5134,2.6967 -0.5827,2.6967h-0.0591l-1.5906,-0.8199c0,0.1877 -0.0592,1.0075 -0.1776,2.4697l2.1733,-0.5336c0.0688,0.1977 0.1284,1.0768 0.1775,2.6375c-0.2074,0.0789 -0.9382,0.1978 -2.1732,0.3556c0.2766,1.1855 0.573,2.6375 0.8795,4.3465c-1.0176,0.2271 -2.2228,0.4643 -3.6354,0.7015l-0.0592,-0.1189c-0.1876,-3.0523 -0.3358,-4.5736 -0.4643,-4.5736c-1.2745,0.3065 -1.9659,0.484 -2.0549,0.5235c-0.0789,-0.3849 -0.217,-1.4222 -0.4147,-3.1114l0.1183,-0.0592h2.1141c-0.1183,-0.9782 -0.2964,-2.2426 -0.5336,-3.8129l2.4105,-1.6989c0.3459,0.0395 1.6199,0.3358 3.8129,0.879zM82.4581,77.036c1.5405,1.3236 2.3113,2.0347 2.3113,2.1237c-0.6226,1.9558 -0.9782,3.1413 -1.0672,3.5661c0.6226,1.3929 0.9782,2.2223 1.0672,2.4889c0,0.0794 -1.0176,0.2868 -3.0624,0.6322c-0.0293,-0.1082 -0.2175,-0.3652 -0.5629,-0.7506c-2.8156,0.5432 -4.3364,0.8103 -4.5539,0.8103l-1.5016,-4.0603l3.3092,-1.7484c0.5336,0.089 1.3635,0.1285 2.4995,0.1285c0,-0.1482 0.0197,-0.5827 0.0592,-1.3135c-0.1877,0 -1.8966,0.128 -5.1168,0.3753l-0.0597,-0.1285c0.4446,-2.0842 0.7212,-3.1215 0.8102,-3.1215c3.9116,0.5432 5.8679,0.8694 5.8679,0.9978zM97.779,78.3004c-0.2276,3.7533 -0.3955,5.9463 -0.4845,6.5785c-0.3849,0.0495 -1.5405,0.1188 -3.4867,0.2078l-0.0693,-0.1386l-0.3454,-5.275l-0.1386,-0.0688c-1.2543,0.2665 -2.1237,0.4739 -2.5981,0.6125c0.1285,2.242 0.1978,3.8721 0.1978,4.8699c-1.9659,0.5432 -3.0326,0.8199 -3.2202,0.8199c-1.2745,-5.6211 -1.9163,-8.5944 -1.9163,-8.9105c2.7756,-0.3652 4.2868,-0.5432 4.524,-0.5432v0.0693c0.0496,0.0298 0.1189,0.7212 0.2074,2.0544c2.5485,-1.6887 3.8923,-2.5384 4.0405,-2.5384zM65.2996,78.7349c-0.4248,2.0053 -0.6817,3.0325 -0.7606,3.0917h-6.2431v0.1087l1.7484,2.1632l2.7463,-1.4025c0.2665,0.4643 0.6615,1.2841 1.1657,2.4499c-0.2372,0.0789 -1.9658,0.3358 -5.186,0.7607c-2.6674,-1.7586 -4.0107,-2.677 -4.0304,-2.7463c0.4248,-3.4179 0.6817,-5.1269 0.7606,-5.1269c2.7858,-1.185 4.3956,-1.847 4.8402,-1.9856c2.9834,1.5314 4.6327,2.4302 4.9589,2.6871zM102.7375,76.0478c2.4995,0.6721 3.8327,1.0767 3.9808,1.2249c1.3732,1.9462 2.1536,3.0725 2.3215,3.3689c-0.8891,2.8151 -1.4025,4.2277 -1.531,4.2277c-2.9637,0.6913 -4.5144,1.0373 -4.6524,1.0373c-2.4499,-1.4323 -3.7538,-2.2229 -3.9121,-2.3908c-0.089,-2.6572 -0.1285,-4.129 -0.1285,-4.4056c-0.0394,-0.0789 -0.0591,-0.1381 -0.0591,-0.1776c2.5288,-1.9264 3.8326,-2.8848 3.9216,-2.8848zM58.6514,80.0094c0,0.2761 0.3854,0.4147 1.1658,0.4147c0,0.0395 0.5629,0.1381 1.6892,0.2863c0.306,-0.4249 0.4643,-0.6813 0.4643,-0.7506c-0.0991,-0.5826 -0.3161,-0.879 -0.6423,-0.879l-1.6295,-0.6423c-0.0496,0.1285 -0.4052,0.6519 -1.0475,1.5709zM102.5499,79.6635c-0.0395,0.2665 -0.0987,1.2249 -0.1775,2.8747l2.2025,0.4936c0.5235,-1.6498 0.7905,-2.5288 0.7905,-2.6375c-1.7489,-0.5235 -2.6871,-0.79 -2.8155,-0.79zM79.2768,84.1582h0.0597c0.8295,-0.5437 1.2447,-0.8993 1.2447,-1.0672l0.1284,-1.057c-0.1583,0 -0.8496,-0.0592 -2.065,-0.1877c0,0.0693 0.2079,0.8396 0.6322,2.3119z" fill="#000000" stroke="#dbf1ff" stroke-width="4.55184"/><path d="M42.2142,74.8527c0,0.1087 -0.4936,1.057 -1.4813,2.855h-0.0693c-0.0789,0 -1.2154,-0.5336 -3.4078,-1.6103l-1.1162,1.4914c1.8864,0.9089 4.1882,2.0645 6.8849,3.4771c-1.225,2.1834 -2.0944,3.6253 -2.6077,4.3465l-5.5816,0.4942c-2.5485,-1.7191 -3.8918,-2.6082 -4.04,-2.6674v-0.0688c0,-0.1881 0.5138,-1.0277 1.5512,-2.5389h0.1279c0.4051,0.2468 1.6892,0.9483 3.8428,2.1039l1.3038,-1.4818c-3.9611,-2.015 -6.1541,-3.1509 -6.5789,-3.4174v-0.0597c1.2548,-2.4494 1.9462,-3.6941 2.0549,-3.7239c3.2697,-0.6616 5.097,-0.9974 5.4627,-0.9974c2.3705,1.1951 3.5859,1.7975 3.6546,1.7975zM51.3715,73.8255l-0.4152,3.299c0.8598,-0.049 1.492,-0.0687 1.8966,-0.0687h0.6322l0.1386,-0.0693l0.0693,0.138c-0.1386,2.0054 -0.257,3.1317 -0.3561,3.3785l-0.1381,-0.0789c-0.0986,0 -0.9877,-0.0495 -2.6668,-0.1386c-0.0891,1.5512 -0.1583,3.3982 -0.2079,5.5518l-0.1381,0.0693c-2.1237,-0.1386 -3.3881,-0.257 -3.7932,-0.3556l0.0693,-0.2766c0,-0.5731 0.0885,-2.3513 0.2767,-5.3343c-1.7783,-0.0991 -2.6674,-0.2175 -2.6674,-0.3555c0.089,-2.2031 0.2073,-3.2996 0.3555,-3.2996l2.5981,0.4941v-0.8497c0,-0.6913 -0.0298,-1.63 -0.0789,-2.8054c0.0491,0 0.0789,-0.0197 0.0789,-0.0688zM74.1206,73.9342l0.0592,0.1184c-0.3257,1.7979 -0.5134,2.6967 -0.5827,2.6967h-0.0591l-1.5906,-0.8199c0,0.1877 -0.0592,1.0075 -0.1776,2.4697l2.1733,-0.5336c0.0688,0.1977 0.1284,1.0768 0.1775,2.6375c-0.2074,0.0789 -0.9382,0.1978 -2.1732,0.3556c0.2766,1.1855 0.573,2.6375 0.8795,4.3465c-1.0176,0.2271 -2.2228,0.4643 -3.6354,0.7015l-0.0592,-0.1189c-0.1876,-3.0523 -0.3358,-4.5736 -0.4643,-4.5736c-1.2745,0.3065 -1.9659,0.484 -2.0549,0.5235c-0.0789,-0.3849 -0.217,-1.4222 -0.4147,-3.1114l0.1183,-0.0592h2.1141c-0.1183,-0.9782 -0.2964,-2.2426 -0.5336,-3.8129l2.4105,-1.6989c0.3459,0.0395 1.6199,0.3358 3.8129,0.879zM82.4581,77.036c1.5405,1.3236 2.3113,2.0347 2.3113,2.1237c-0.6226,1.9558 -0.9782,3.1413 -1.0672,3.5661c0.6226,1.3929 0.9782,2.2223 1.0672,2.4889c0,0.0794 -1.0176,0.2868 -3.0624,0.6322c-0.0293,-0.1082 -0.2175,-0.3652 -0.5629,-0.7506c-2.8156,0.5432 -4.3364,0.8103 -4.5539,0.8103l-1.5016,-4.0603l3.3092,-1.7484c0.5336,0.089 1.3635,0.1285 2.4995,0.1285c0,-0.1482 0.0197,-0.5827 0.0592,-1.3135c-0.1877,0 -1.8966,0.128 -5.1168,0.3753l-0.0597,-0.1285c0.4446,-2.0842 0.7212,-3.1215 0.8102,-3.1215c3.9116,0.5432 5.8679,0.8694 5.8679,0.9978zM97.779,78.3004c-0.2276,3.7533 -0.3955,5.9463 -0.4845,6.5785c-0.3849,0.0495 -1.5405,0.1188 -3.4867,0.2078l-0.0693,-0.1386l-0.3454,-5.275l-0.1386,-0.0688c-1.2543,0.2665 -2.1237,0.4739 -2.5981,0.6125c0.1285,2.242 0.1978,3.8721 0.1978,4.8699c-1.9659,0.5432 -3.0326,0.8199 -3.2202,0.8199c-1.2745,-5.6211 -1.9163,-8.5944 -1.9163,-8.9105c2.7756,-0.3652 4.2868,-0.5432 4.524,-0.5432v0.0693c0.0496,0.0298 0.1189,0.7212 0.2074,2.0544c2.5485,-1.6887 3.8923,-2.5384 4.0405,-2.5384zM65.2996,78.7349c-0.4248,2.0053 -0.6817,3.0325 -0.7606,3.0917h-6.2431v0.1087l1.7484,2.1632l2.7463,-1.4025c0.2665,0.4643 0.6615,1.2841 1.1657,2.4499c-0.2372,0.0789 -1.9658,0.3358 -5.186,0.7607c-2.6674,-1.7586 -4.0107,-2.677 -4.0304,-2.7463c0.4248,-3.4179 0.6817,-5.1269 0.7606,-5.1269c2.7858,-1.185 4.3956,-1.847 4.8402,-1.9856c2.9834,1.5314 4.6327,2.4302 4.9589,2.6871zM102.7375,76.0478c2.4995,0.6721 3.8327,1.0767 3.9808,1.2249c1.3732,1.9462 2.1536,3.0725 2.3215,3.3689c-0.8891,2.8151 -1.4025,4.2277 -1.531,4.2277c-2.9637,0.6913 -4.5144,1.0373 -4.6524,1.0373c-2.4499,-1.4323 -3.7538,-2.2229 -3.9121,-2.3908c-0.089,-2.6572 -0.1285,-4.129 -0.1285,-4.4056c-0.0394,-0.0789 -0.0591,-0.1381 -0.0591,-0.1776c2.5288,-1.9264 3.8326,-2.8848 3.9216,-2.8848zM58.6514,80.0094c0,0.2761 0.3854,0.4147 1.1658,0.4147c0,0.0395 0.5629,0.1381 1.6892,0.2863c0.306,-0.4249 0.4643,-0.6813 0.4643,-0.7506c-0.0991,-0.5826 -0.3161,-0.879 -0.6423,-0.879l-1.6295,-0.6423c-0.0496,0.1285 -0.4052,0.6519 -1.0475,1.5709zM102.5499,79.6635c-0.0395,0.2665 -0.0987,1.2249 -0.1775,2.8747l2.2025,0.4936c0.5235,-1.6498 0.7905,-2.5288 0.7905,-2.6375c-1.7489,-0.5235 -2.6871,-0.79 -2.8155,-0.79zM79.2768,84.1582h0.0597c0.8295,-0.5437 1.2447,-0.8993 1.2447,-1.0672l0.1284,-1.057c-0.1583,0 -0.8496,-0.0592 -2.065,-0.1877c0,0.0693 0.2079,0.8396 0.6322,2.3119z" fill="url(#color-2)" stroke="none" stroke-width="0.50576"/></g></g></g></svg>