<svg version="1.1" xmlns="http://www.w3.org/2000/svg" xmlns:xlink="http://www.w3.org/1999/xlink" width="507.49998" height="162.24118" viewBox="0,0,507.49998,162.24118"><defs><linearGradient x1="240.77598" y1="292.99824" x2="241.19789" y2="348.9967" gradientUnits="userSpaceOnUse" id="color-1"><stop offset="0" stop-color="#c3e060"/><stop offset="1" stop-color="#6de01b"/></linearGradient><linearGradient x1="235.50001" y1="123" x2="235.50001" y2="179" gradientUnits="userSpaceOnUse" id="color-2"><stop offset="0" stop-color="#c3e060"/><stop offset="1" stop-color="#6de01b"/></linearGradient><linearGradient x1="235.50001" y1="123" x2="235.50001" y2="179" gradientUnits="userSpaceOnUse" id="color-3"><stop offset="0" stop-color="#c3e060"/><stop offset="1" stop-color="#6de01b"/></linearGradient><linearGradient x1="235.50001" y1="123" x2="235.50001" y2="179" gradientUnits="userSpaceOnUse" id="color-4"><stop offset="0" stop-color="#c3e060"/><stop offset="1" stop-color="#6de01b"/></linearGradient><linearGradient x1="237.33757" y1="200" x2="237.33757" y2="256" gradientUnits="userSpaceOnUse" id="color-5"><stop offset="0" stop-color="#c3e060"/><stop offset="1" stop-color="#6de01b"/></linearGradient><linearGradient x1="592.77598" y1="201.99824" x2="593.19789" y2="257.9967" gradientUnits="userSpaceOnUse" id="color-6"><stop offset="0" stop-color="#c3e060"/><stop offset="1" stop-color="#6de01b"/></linearGradient></defs><g transform="translate(5.99998,-202.75882)"><g data-paper-data="{&quot;isPaintingLayer&quot;:true}" fill-rule="nonzero" stroke-linejoin="miter" stroke-miterlimit="10" stroke-dasharray="" stroke-dashoffset="0" style="mix-blend-mode: normal"><path d="M-4.99998,314l489.79592,0.08164v49.91836h-489.79592z" data-paper-data="{&quot;origPos&quot;:null}" id="ID0.29126935824751854" fill="#c06520" stroke="#763e13" stroke-width="2" stroke-linecap="butt"/><path d="M357.30001,229.25h130.69331c0.68169,14.46526 0.30669,81 0.30669,81h-131z" data-paper-data="{&quot;origPos&quot;:null}" id="ID0.7496546297334135" fill="#c06520" stroke="#663b00" stroke-width="2" stroke-linecap="butt"/><path d="M-1.2029,294.76925l485.02506,-0.54964l0.2863,41.99896l-9.19155,-7.93295l-10.04792,13.0739l-11.25839,-12.91796l-9.04841,11.06653l-8.87596,-10.93534l-12.75349,13.0937l-14.61774,-10.89329l-4.29106,12.03179l-14.27955,-9.89576l-11.09265,9.08143l-12.25791,-10.91059l-14.12887,10.10368l-10.25134,-11.92535l-12.06956,12.08872l-14.30969,-11.89565l-14.14393,8.10373l-9.20662,-9.93289l-12.05449,14.08866l-13.25737,-8.88837l-8.02634,12.04423l-14.28703,-10.88089l-14.1515,9.09634l-6.20056,-13.96245l-11.10018,8.08146l-11.24332,-10.91802l-16.12791,14.11843l-17.34591,-12.87341l-10.06298,11.07396l-13.26496,-9.90319l-14.12887,10.10368l-6.18547,-12.95508l-14.12133,11.10365l-17.32331,-9.87349l-4.96746,14.03674l-22.40377,-10.83633l-8.03382,11.0591l-9.23675,-13.93279l-14.1138,12.10363l-13.2725,-10.90317l-3.97547,11.0294l-12.25791,-10.91059l-7.01169,12.05165z" data-paper-data="{&quot;origPos&quot;:null,&quot;origRot&quot;:0}" fill="url(#color-1)" stroke="#0f6600" stroke-width="2" stroke-linecap="round"/><path d="" data-paper-data="{&quot;origPos&quot;:null}" fill="url(#color-2)" stroke="#0f6600" stroke-width="2" stroke-linecap="butt"/><path d="" data-paper-data="{&quot;origPos&quot;:null}" fill="url(#color-3)" stroke="#0f6600" stroke-width="2" stroke-linecap="butt"/><path d="" data-paper-data="{&quot;origPos&quot;:null}" fill="url(#color-4)" stroke="#0f6600" stroke-width="2" stroke-linecap="butt"/><path d="M482,220.90188v8.49371c-0.15984,-3.46136 -0.32772,-6.91865 -0.51964,-10.36823c0.19662,0.62258 0.37188,1.24809 0.51964,1.87452z" data-paper-data="{&quot;origPos&quot;:null}" fill="url(#color-5)" stroke="#0f6600" stroke-width="2" stroke-linecap="butt"/><path d="M373.00001,287c0,-2.76142 2.23858,-5 5,-5c2.76142,0 5,2.23858 5,5c0,2.76142 -2.23858,5 -5,5c-2.76142,0 -5,-2.23858 -5,-5z" fill="#e0bb60" stroke="none" stroke-width="0.5" stroke-linecap="butt"/><path d="M410.00001,266c0,-2.76142 2.23858,-5 5,-5c2.76142,0 5,2.23858 5,5c0,2.76142 -2.23858,5 -5,5c-2.76142,0 -5,-2.23858 -5,-5z" fill="#e0bb60" stroke="none" stroke-width="0.5" stroke-linecap="butt"/><path d="M460.00001,277c0,-2.76142 2.23858,-5 5,-5c2.76142,0 5,2.23858 5,5c0,2.76142 -2.23858,5 -5,5c-2.76142,0 -5,-2.23858 -5,-5z" fill="#e0bb60" stroke="none" stroke-width="0.5" stroke-linecap="butt"/><path d="M441.00001,349c0,-2.76142 2.23858,-5 5,-5c2.76142,0 5,2.23858 5,5c0,2.76142 -2.23858,5 -5,5c-2.76142,0 -5,-2.23858 -5,-5z" data-paper-data="{&quot;origPos&quot;:null}" fill="#e0bb60" stroke="none" stroke-width="0.5" stroke-linecap="butt"/><path d="M326.00001,357c0,-2.76142 2.23858,-5 5,-5c2.76142,0 5,2.23858 5,5c0,2.76142 -2.23858,5 -5,5c-2.76142,0 -5,-2.23858 -5,-5z" data-paper-data="{&quot;origPos&quot;:null}" fill="#e0bb60" stroke="none" stroke-width="0.5" stroke-linecap="butt"/><path d="M280.00001,348c0,-2.76142 2.23858,-5 5,-5c2.76142,0 5,2.23858 5,5c0,2.76142 -2.23858,5 -5,5c-2.76142,0 -5,-2.23858 -5,-5z" data-paper-data="{&quot;origPos&quot;:null}" fill="#e0bb60" stroke="none" stroke-width="0.5" stroke-linecap="butt"/><path d="M210.00001,355c0,-2.76142 2.23858,-5 5,-5c2.76142,0 5,2.23858 5,5c0,2.76142 -2.23858,5 -5,5c-2.76142,0 -5,-2.23858 -5,-5z" data-paper-data="{&quot;origPos&quot;:null}" fill="#e0bb60" stroke="none" stroke-width="0.5" stroke-linecap="butt"/><path d="M140,344c0,-2.76142 2.23858,-5 5,-5c2.76142,0 5,2.23858 5,5c0,2.76142 -2.23858,5 -5,5c-2.76142,0 -5,-2.23858 -5,-5z" data-paper-data="{&quot;origPos&quot;:null}" fill="#e0bb60" stroke="none" stroke-width="0.5" stroke-linecap="butt"/><path d="M95,349c0,-2.76142 2.23858,-5 5,-5c2.76142,0 5,2.23858 5,5c0,2.76142 -2.23858,5 -5,5c-2.76142,0 -5,-2.23858 -5,-5z" data-paper-data="{&quot;origPos&quot;:null}" fill="#e0bb60" stroke="none" stroke-width="0.5" stroke-linecap="butt"/><path d="M13,346c0,-2.76142 2.23858,-5 5,-5c2.76142,0 5,2.23858 5,5c0,2.76142 -2.23858,5 -5,5c-2.76142,0 -5,-2.23858 -5,-5z" data-paper-data="{&quot;origPos&quot;:null}" fill="#e0bb60" stroke="none" stroke-width="0.5" stroke-linecap="butt"/><path d="M353.79711,206.76925c1.1798,-1.64256 4.81187,-3.00636 8.40376,-3.01043c49.95358,-0.05661 111.16579,-0.12847 125.79984,-0.14505c4.87801,-0.00553 8.6146,1.84668 9.4993,2.98584c1.15522,1.48747 3,4.56098 3,9.4004c0,8.39065 0,13.10935 0,21.5c0,0.89907 -0.59805,8.5977 -0.59421,9.49592l-9.54454,-12.29693l-11.32887,13.10368l-10.98547,-13.15508l-11.32133,13.50365l-15.32331,-12.07349l-4.96745,14.03674l-17.40378,-13.16966l-11.03381,13.39243l-9.23676,-13.93278l-12.1138,12.10363l-13.2725,-10.90317l-3.97547,11.0294l-12.25791,-10.91059l-7.0117,12.05165c0,0 0.29895,-20.58864 0.49029,-33.76641c0.06936,-4.77672 2.18704,-7.86049 3.17772,-9.23975z" data-paper-data="{&quot;origPos&quot;:null,&quot;origRot&quot;:0}" fill="url(#color-6)" stroke="#0f6600" stroke-width="2" stroke-linecap="butt"/></g></g></svg>