<svg version="1.1" xmlns="http://www.w3.org/2000/svg" xmlns:xlink="http://www.w3.org/1999/xlink" width="437" height="90.79587" viewBox="0,0,437,90.79587"><defs><linearGradient x1="240" y1="135.60206" x2="240" y2="224.39795" gradientUnits="userSpaceOnUse" id="color-1"><stop offset="0" stop-color="#ffffff"/><stop offset="1" stop-color="#d8d8d8"/></linearGradient><linearGradient x1="240" y1="135.60208" x2="240" y2="224.39795" gradientUnits="userSpaceOnUse" id="color-2"><stop offset="0" stop-color="#343434"/><stop offset="1" stop-color="#090909"/></linearGradient><radialGradient cx="443.8065" cy="206.54466" r="17.9081" gradientUnits="userSpaceOnUse" id="color-3"><stop offset="0" stop-color="#ffffff"/><stop offset="1" stop-color="#e5e5e5"/></radialGradient></defs><g transform="translate(-21.5,-134.60208)"><g data-paper-data="{&quot;isPaintingLayer&quot;:true}" fill-rule="nonzero" stroke-linejoin="miter" stroke-miterlimit="10" stroke-dasharray="" stroke-dashoffset="0" style="mix-blend-mode: normal"><path d="M22.5,224.39795v-88.79587h435v88.79587z" data-paper-data="{&quot;origPos&quot;:null}" fill="url(#color-1)" stroke="url(#color-2)" stroke-width="2" stroke-linecap="butt"/><g data-paper-data="{&quot;origPos&quot;:null}"><path d="M444.3058,202.09868c2.5136,0 4.7909,1.0212 6.4406,2.6702c1.6489,1.6496 2.6702,3.9269 2.6702,6.4405c0,2.5136 -1.0213,4.791 -2.6702,6.4406c-1.6497,1.649 -3.927,2.6702 -6.4406,2.6702c-2.5136,0 -4.7909,-1.0212 -6.4406,-2.6702c-1.6489,-1.6496 -2.6701,-3.927 -2.6701,-6.4406c0,-2.5136 1.0212,-4.7909 2.6701,-6.4405c1.6497,-1.649 3.927,-2.6702 6.4406,-2.6702z" fill="url(#color-3)" stroke="#000000" stroke-width="2.0785" stroke-linecap="butt"/><path d="M441.2734,206.54886l5.6119,0.4503l1.7321,3.187l-3.6374,2.9446l3.3603,-0.5197l0.7967,3.4642l-7.4479,-0.0693l-1.9053,-2.4249l4.6766,-3.3256l-4.5727,-0.3464z" fill="#000000" stroke="none" stroke-width="0.69283" stroke-linecap="round"/></g><g data-paper-data="{&quot;origPos&quot;:null}" stroke="none"><path d="M37.48377,172.54718c1.50315,0.26679 3.00628,0.53266 4.50942,0.79945l-0.4304,3.42273c0.8952,-0.04741 1.55055,-0.07158 1.96794,-0.07158c0.21845,0 0.43689,0 0.65535,0c0.04833,-0.02416 0.09575,-0.04833 0.14409,-0.07158l0.07158,0.14316c-0.14409,2.07669 -0.26679,3.24519 -0.36904,3.50453l-0.14409,-0.0818c-0.10225,0 -1.0244,-0.04741 -2.76645,-0.14316c-0.09575,1.60539 -0.16733,3.52499 -0.21567,5.75878l-0.14316,0.0725c-2.1994,-0.14408 -3.51197,-0.2668 -3.93493,-0.36905l0.07158,-0.28724c0,-0.594 0.09574,-2.43923 0.28724,-5.53382c-1.84522,-0.10225 -2.76737,-0.22589 -2.76737,-0.36905c0.09575,-2.28214 0.21845,-3.42273 0.36905,-3.42273c0.89798,0.17104 1.7969,0.34117 2.69486,0.5122v-0.88124c0,-0.71764 -0.02695,-1.68719 -0.0818,-2.91053c0.05485,0 0.0818,-0.02323 0.0818,-0.07158z" data-paper-data="{&quot;origPos&quot;:null}" fill="#000000" stroke-width="0.26459" stroke-linecap="butt"/><path d="M47.04549,175.64179c4.05856,0.56055 6.08693,0.90541 6.08693,1.03556c1.59889,1.37299 2.39833,2.10737 2.39833,2.20312c-0.64885,2.02929 -1.01789,3.26285 -1.10714,3.69976c0.64978,1.44179 1.01882,2.30259 1.10714,2.58239c0,0.0818 -1.0588,0.30025 -3.17641,0.65629c-0.02788,-0.1162 -0.22216,-0.37648 -0.58471,-0.77899c-2.92354,0.55961 -4.49827,0.84035 -4.72416,0.84035l-1.55799,-4.21196c1.14432,-0.60516 2.28864,-1.20939 3.43296,-1.81455c0.55403,0.08924 1.41761,0.13387 2.59355,0.13387c0,-0.1506 0.02045,-0.60516 0.06135,-1.36278c-0.198,0 -1.96794,0.12921 -5.30886,0.38857c-0.02045,-0.04369 -0.0409,-0.08832 -0.06135,-0.13294c0.4648,-2.15849 0.74459,-3.23868 0.84035,-3.23868zM49.17703,181.6683c0,0.0753 0.21845,0.87381 0.65629,2.3974c0.02045,0 0.0409,0 0.06135,0c0.8608,-0.55961 1.2912,-0.92866 1.2912,-1.10621c0.04462,-0.36533 0.08832,-0.73158 0.13293,-1.09691c-0.1636,0 -0.87754,-0.06507 -2.14178,-0.19428z" data-paper-data="{&quot;origPos&quot;:null}" fill="#000000" stroke-width="0.26459" stroke-linecap="butt"/><path d="M61.65951,175.65201c0.21102,0.87475 0.35789,1.41483 0.44063,1.61934c3.0193,-0.68976 4.61447,-1.03463 4.78551,-1.03463c2.05624,2.95795 3.08438,4.50199 3.08438,4.63212l-2.3565,5.00118l-5.07275,-0.80966c0,0.05112 0,0.10225 0,0.15338c0.396,3.04068 0.594,4.6563 0.594,4.84779c-0.04741,0 -0.07157,0.02323 -0.07157,0.07158c-0.49175,-0.04834 -0.8608,-0.07158 -1.10714,-0.07158c-0.29375,0 -0.5875,0 -0.88124,0c-0.5122,0 -1.2977,-0.02416 -2.35651,-0.0725c-0.09575,-0.28632 -0.83012,-4.64886 -2.20404,-13.0867c0.2324,-0.09482 1.94748,-0.51221 5.14525,-1.2503zM62.02856,179.84352c0.13665,1.57193 0.25935,2.35743 0.36811,2.35743c1.40089,0.48525 2.25796,0.72786 2.57217,0.72786c0.27052,-1.17499 0.54009,-2.35092 0.80966,-3.52591c-0.02323,0 -0.04741,0 -0.07157,0c-0.79945,0.04834 -2.02558,0.19522 -3.67837,0.44064z" data-paper-data="{&quot;origPos&quot;:null}" fill="#000000" stroke-width="0.26459" stroke-linecap="butt"/><path d="M125.15022,172.54718c1.50314,0.26679 3.00628,0.53266 4.50942,0.79945l-0.4304,3.42273c0.89426,-0.04741 1.55055,-0.07158 1.96701,-0.07158c0.21845,0 0.43783,0 0.65629,0c0.04741,-0.02416 0.09575,-0.04833 0.14316,-0.07158l0.07158,0.14316c-0.14316,2.07669 -0.26586,3.24519 -0.36905,3.50453l-0.14316,-0.0818c-0.10225,0 -1.0244,-0.04741 -2.76646,-0.14316c-0.09574,1.60539 -0.16825,3.52499 -0.21566,5.75878l-0.14315,0.0725c-2.20032,-0.14408 -3.51197,-0.2668 -3.93586,-0.36905l0.0725,-0.28724c0,-0.594 0.09482,-2.43923 0.28632,-5.53382c-1.84429,-0.10225 -2.76646,-0.22589 -2.76646,-0.36905c0.09574,-2.28214 0.21845,-3.42273 0.36904,-3.42273l2.69487,0.5122v-0.88124c0,-0.71764 -0.02788,-1.68719 -0.0818,-2.91053c0.05392,0 0.0818,-0.02323 0.0818,-0.07158z" data-paper-data="{&quot;origPos&quot;:null}" fill="#000000" stroke-width="0.26459" stroke-linecap="butt"/><path d="M137.28411,175.65201c2.5954,0.69719 3.97212,1.12107 4.12922,1.27074c1.42877,2.02277 2.231,3.18756 2.40855,3.49525c-0.92215,2.92354 -1.45201,4.38579 -1.58866,4.38579c-3.07414,0.71764 -4.68325,1.07646 -4.8264,1.07646c-2.54149,-1.48269 -3.89404,-2.3091 -4.05857,-2.48015c-0.08831,-2.75993 -0.13293,-4.28353 -0.13293,-4.57077c-0.04091,-0.0818 -0.06134,-0.14316 -0.06134,-0.18406c2.62329,-1.99489 3.97956,-2.99327 4.06879,-2.99327zM137.08889,179.40287c-0.04091,0.2733 -0.10225,1.26795 -0.18406,2.98211l2.28492,0.51314c0.5466,-1.70858 0.81989,-2.62051 0.81989,-2.73671c-1.81733,-0.5466 -2.79063,-0.81989 -2.92076,-0.81989z" data-paper-data="{&quot;origPos&quot;:null}" fill="#000000" stroke-width="0.26459" stroke-linecap="butt"/><path d="M154.09102,175.65201c2.5954,0.69719 3.97212,1.12107 4.12922,1.27074c1.42784,2.02277 2.231,3.18756 2.40855,3.49525c-0.92215,2.92354 -1.45201,4.38579 -1.58866,4.38579c-3.07414,0.71764 -4.68325,1.07646 -4.8264,1.07646c-2.54149,-1.48269 -3.89404,-2.3091 -4.05857,-2.48015c-0.08831,-2.75993 -0.13294,-4.28353 -0.13294,-4.57077c-0.04091,-0.0818 -0.06134,-0.14316 -0.06134,-0.18406c2.62329,-1.99489 3.97956,-2.99327 4.06786,-2.99327zM153.89581,179.40287c-0.04091,0.2733 -0.10225,1.26795 -0.18406,2.98211l2.28492,0.51314c0.5466,-1.70858 0.8199,-2.62051 0.8199,-2.73671c-1.81733,-0.5466 -2.79062,-0.81989 -2.92075,-0.81989z" data-paper-data="{&quot;origPos&quot;:null}" fill="#2a70c2" stroke-width="0.26459" stroke-linecap="butt"/><path d="M166.7055,175.65201c0.21195,0.87475 0.35881,1.41483 0.44155,1.61934c3.0193,-0.68976 4.61447,-1.03463 4.78551,-1.03463c2.05624,2.95795 3.08437,4.50199 3.08437,4.63212c-0.7855,1.66674 -1.57099,3.33349 -2.3565,5.00118l-5.07275,-0.80966c0,0.05112 0,0.10225 0,0.15338c0.39601,3.04068 0.594,4.6563 0.594,4.84779c-0.04834,0 -0.07158,0.02323 -0.07158,0.07158c-0.49175,-0.04834 -0.8608,-0.07158 -1.10714,-0.07158c-0.29375,0 -0.58751,0 -0.88124,0c-0.5122,0 -1.2977,-0.02416 -2.35743,-0.0725c-0.09482,-0.28632 -0.83012,-4.64886 -2.20312,-13.0867c0.2324,-0.09482 1.94748,-0.51221 5.14433,-1.2503zM167.07455,179.84352c0.13665,1.57193 0.26028,2.35743 0.36904,2.35743c1.40089,0.48525 2.25796,0.72786 2.57217,0.72786c0.27052,-1.17499 0.54009,-2.35092 0.80967,-3.52591c-0.02324,0 -0.04741,0 -0.07158,0c-0.79945,0.04834 -2.02557,0.19522 -3.6793,0.44064z" data-paper-data="{&quot;origPos&quot;:null}" fill="#2a70c2" stroke-width="0.26459" stroke-linecap="butt"/><path d="M181.88284,175.65201c3.09552,1.59238 4.81061,2.52104 5.14526,2.78783c-0.44435,2.07669 -0.70741,3.14665 -0.78921,3.208c0.34023,0 -6.81758,0 -6.47735,0c0,0.03718 0,0.07437 0,0.11248c0.60516,0.74832 1.20939,1.49663 1.81455,2.24402c0.94911,-0.48525 1.89914,-0.96956 2.84825,-1.45481c0.28074,0.48525 0.68325,1.3321 1.20939,2.54149c-0.24542,0.0818 -2.03858,0.34488 -5.37951,0.78922c-2.76737,-1.82478 -4.16083,-2.77389 -4.18128,-2.84919c0.44341,-3.54543 0.70649,-5.31909 0.78922,-5.31909c2.88915,-1.22985 4.56333,-1.91588 5.02069,-2.05997zM181.21727,178.13215c-0.05485,0.13665 -0.41645,0.68046 -1.08668,1.62956c0,0.28724 0.40344,0.4304 1.20939,0.4304c0,0.04091 0.58471,0.14037 1.75227,0.29747c0.32163,-0.44435 0.48152,-0.7037 0.48152,-0.77899c-0.10225,-0.60795 -0.32442,-0.91193 -0.66557,-0.91193c-0.56332,-0.22217 -1.1276,-0.44434 -1.69091,-0.66651z" data-paper-data="{&quot;origPos&quot;:null}" fill="#2a70c2" stroke-width="0.26459" stroke-linecap="butt"/><path d="M197.0602,175.64179l3.41343,2.34721c-0.23983,3.89404 -0.40717,6.16965 -0.5029,6.82502c-0.39601,0.04834 -1.60168,0.11992 -3.61701,0.21566l-0.07158,-0.14408c-0.11992,-1.82384 -0.23983,-3.6477 -0.35881,-5.47248l-0.14408,-0.07157c-1.3042,0.28074 -2.20311,0.49175 -2.69487,0.63584c0.13665,2.32953 0.20451,4.01394 0.20451,5.05229c-2.03579,0.56705 -3.14943,0.85057 -3.34,0.85057c-1.32559,-5.83501 -1.98838,-8.91566 -1.98838,-9.24381c2.88265,-0.37555 4.44714,-0.56427 4.69348,-0.56427c0,0.02416 0,0.04834 0,0.0725c0.04741,0.03347 0.11992,0.74459 0.21474,2.13154c2.64467,-1.75599 4.04184,-2.63445 4.1915,-2.63445z" data-paper-data="{&quot;origPos&quot;:null}" fill="#2a70c2" stroke-width="0.26459" stroke-linecap="butt"/><path d="M209.79923,172.54718c1.50314,0.26679 3.00536,0.53266 4.5085,0.79945c-0.14316,1.14059 -0.28632,2.28214 -0.4304,3.42273c0.8952,-0.04741 1.55147,-0.07158 1.96794,-0.07158h0.65629l0.14316,-0.07158c0.02416,0.04741 0.04741,0.09575 0.07158,0.14316c-0.14316,2.07669 -0.2668,3.24519 -0.36905,3.50453l-0.14315,-0.0818c-0.10225,0 -1.02533,-0.04741 -2.76738,-0.14316c-0.09574,1.60539 -0.16733,3.52499 -0.21473,5.75878c-0.04834,0.02416 -0.09575,0.04834 -0.14409,0.0725c-2.1994,-0.14408 -3.51105,-0.2668 -3.93493,-0.36905c0.02416,-0.09574 0.04833,-0.1915 0.07158,-0.28724c0,-0.594 0.09574,-2.43923 0.28724,-5.53382c-1.84429,-0.10225 -2.76737,-0.22589 -2.76737,-0.36905c0.09574,-2.28214 0.21938,-3.42273 0.36905,-3.42273c0.89891,0.17104 1.79689,0.34117 2.6958,0.5122c0,-0.29375 0,-0.58751 0,-0.88124c0,-0.71764 -0.02788,-1.68719 -0.0818,-2.91053c0.05392,0 0.0818,-0.02323 0.0818,-0.07158z" data-paper-data="{&quot;origPos&quot;:null}" fill="#000000" stroke-width="0.26459" stroke-linecap="butt"/><path d="M222.39419,172.54718c0.04091,0.06134 0.23147,1.93354 0.57355,5.61563c2.63724,-0.80595 4.04092,-1.20846 4.21195,-1.20846l2.61307,1.78294c-0.42389,3.89404 -0.69998,6.16873 -0.83012,6.82502l-3.62725,0.1227c0,-0.04091 -0.02416,-0.06135 -0.0725,-0.06135c0.02416,-0.08553 0.04834,-0.17104 0.0725,-0.25562c0,-0.55404 0.0818,-2.23472 0.24542,-5.04208c-0.99745,-0.04183 -1.73833,-0.06228 -2.22357,-0.06228h-0.25657c0.29375,3.12248 0.44063,4.82363 0.44063,5.10436l-3.44318,0.5122c-0.13014,-0.43783 -0.8952,-4.51964 -2.29514,-12.24635c0,-0.21845 0.53266,-0.3895 1.59796,-0.5122c1.34604,-0.38299 2.34349,-0.57448 2.99327,-0.57448z" data-paper-data="{&quot;origPos&quot;:null}" fill="#000000" stroke-width="0.26459" stroke-linecap="butt"/><path d="M236.56667,175.65201c3.09459,1.59238 4.80968,2.52104 5.14433,2.78783c-0.44341,2.07669 -0.70649,3.14665 -0.78922,3.208h-6.47642c0,0.03718 0,0.07437 0,0.11248l1.81362,2.24402l2.84918,-1.45481c0.2798,0.48525 0.68325,1.3321 1.20939,2.54149c-0.24634,0.0818 -2.03951,0.34488 -5.38044,0.78922c-2.76646,-1.82478 -4.16083,-2.77389 -4.18128,-2.84919c0.44435,-3.54543 0.70741,-5.31909 0.78921,-5.31909c2.89009,-1.22985 4.56426,-1.91588 5.02163,-2.05997zM235.90108,178.13215c-0.05485,0.13665 -0.41739,0.68046 -1.08668,1.62956c0,0.28724 0.40344,0.4304 1.20939,0.4304c0,0.04091 0.58378,0.14037 1.75227,0.29747c0.32071,-0.44435 0.48153,-0.7037 0.48153,-0.77899c-0.10225,-0.60795 -0.32443,-0.91193 -0.66558,-0.91193z" data-paper-data="{&quot;origPos&quot;:null}" fill="#000000" stroke-width="0.26459" stroke-linecap="butt"/><path d="M254.05032,172.53697c0.02045,0 0.0409,0 0.06134,0c3.08808,0.25936 4.63213,0.46108 4.63213,0.60516c0.45363,4.02046 0.90821,8.04091 1.36278,12.06138c0,0.08924 -1.36278,0.31421 -4.08925,0.67674l-0.06135,-0.13387c0,-0.36533 0,-0.73064 0,-1.09597c-2.34999,0.63491 -3.96283,1.04487 -4.83662,1.22985c-2.07762,-2.93842 -3.1671,-4.50291 -3.26935,-4.69348c1.53009,-2.78132 2.34627,-4.18871 2.44946,-4.22218l4.29376,0.20452c-0.08924,-0.52614 -0.26958,-2.0702 -0.54288,-4.63213zM252.14374,179.88535c0.68976,2.11109 1.12015,3.26842 1.29119,3.47386l2.03951,-1.77273c-0.21195,-1.22333 -0.36905,-1.83501 -0.4713,-1.83501c-0.90913,0 -1.81733,0 -2.72647,0c-0.08831,0.01395 -0.13294,0.05857 -0.13294,0.13387z" data-paper-data="{&quot;origPos&quot;:null}" fill="#2a70c2" stroke-width="0.26459" stroke-linecap="butt"/><path d="M265.30202,175.65201c2.59634,0.69719 3.97306,1.12107 4.13014,1.27074c1.42784,2.02277 2.23101,3.18756 2.40855,3.49525c-0.92215,2.92354 -1.45201,4.38579 -1.58866,4.38579c-3.07414,0.71764 -4.68325,1.07646 -4.82641,1.07646c-2.54149,-1.48269 -3.89497,-2.3091 -4.05857,-2.48015c-0.08924,-2.75993 -0.13293,-4.28353 -0.13293,-4.57077c-0.04091,-0.0818 -0.06135,-0.14316 -0.06135,-0.18406c2.62329,-1.99489 3.97956,-2.99327 4.06787,-2.99327zM265.10773,179.40287c-0.04091,0.2733 -0.10225,1.26795 -0.18498,2.98211c0.76227,0.17104 1.52359,0.34209 2.28586,0.51314c0.5466,-1.70858 0.81989,-2.62051 0.81989,-2.73671c-1.81733,-0.5466 -2.79156,-0.81989 -2.92075,-0.81989z" data-paper-data="{&quot;origPos&quot;:null}" fill="#2a70c2" stroke-width="0.26459" stroke-linecap="butt"/><path d="M276.90326,175.65201c2.59634,0.69719 3.97306,1.12107 4.13014,1.27074c1.42784,2.02277 2.23008,3.18756 2.40763,3.49525c-0.92215,2.92354 -1.45108,4.38579 -1.58773,4.38579c-3.07507,0.71764 -4.68419,1.07646 -4.82735,1.07646c-2.54149,-1.48269 -3.89403,-2.3091 -4.05856,-2.48015c-0.08831,-2.75993 -0.13293,-4.28353 -0.13293,-4.57077c-0.04091,-0.0818 -0.06135,-0.14316 -0.06135,-0.18406c2.62329,-1.99489 3.97957,-2.99327 4.0688,-2.99327c0.02045,0 0.04091,0 0.06135,0zM276.70805,179.40287c-0.04091,0.2733 -0.10226,1.26795 -0.18407,2.98211l2.28492,0.51314c0.5466,-1.70858 0.81989,-2.62051 0.81989,-2.73671c-1.81733,-0.5466 -2.79062,-0.81989 -2.92075,-0.81989c0,0.02045 0,0.0409 0,0.06134z" data-paper-data="{&quot;origPos&quot;:null}" fill="#2a70c2" stroke-width="0.26459" stroke-linecap="butt"/><path d="M291.73202,175.64179c1.35255,0.75855 2.18266,1.2503 2.49035,1.47619c-1.10714,2.30259 -1.70114,3.47386 -1.78294,3.51476c-0.02417,0 -0.04833,0 -0.0725,0c-0.48803,-0.42668 -0.977,-0.85336 -1.46503,-1.28097l-1.73182,2.11109c0.06507,1.28097 0.13014,2.56194 0.19428,3.84291c-0.08831,0.08273 -1.21961,0.2733 -3.39206,0.57448c-0.0818,-0.5875 -0.61446,-3.46736 -1.59796,-8.63958c0,-0.0818 1.42785,-0.29375 4.28354,-0.63491c0.04741,0.05485 0.17755,0.69347 0.38949,1.91588c1.70764,-1.91959 2.60284,-2.87986 2.68465,-2.87986z" data-paper-data="{&quot;origPos&quot;:null}" fill="#2a70c2" stroke-width="0.26459" stroke-linecap="butt"/><path d="M295.15475,182.72336c0.04833,0.02788 1.11365,0.10969 3.19778,0.24634l0.04091,0.0818c-0.32163,1.8852 -0.52614,2.82873 -0.61538,2.82873c-0.79201,0 -1.58495,0 -2.37696,0c-0.08273,0 -0.1915,-0.94353 -0.32815,-2.82873c-0.02695,0 -0.04091,-0.0818 -0.04091,-0.24634c0.0818,-0.02695 0.1227,-0.05392 0.1227,-0.0818z" data-paper-data="{&quot;origPos&quot;:null}" fill="#000000" stroke-width="0.26459" stroke-linecap="butt"/><path d="M78.06518,182.96671l5.55319,-5.94089l-7.16016,1.7372l-0.1196,-4.91457l12.56214,-1.53841l0.12084,3.88031l-6.27909,7.03193l7.48561,-1.99596l0.10123,4.79927l-10.98199,0.78319z" data-paper-data="{&quot;origPos&quot;:null,&quot;origRot&quot;:0}" fill="#2a70c2" stroke-width="0.66935" stroke-linecap="round"/><path d="M98.01836,170.8253c1.96275,1.89945 2.8956,2.96471 2.79855,3.1958l-6.53806,13.59301c-0.18095,0.43084 -1.097,0.31241 -2.7492,-0.35592c-0.01499,-0.009 -0.03105,-0.01865 -0.04712,-0.0283c2.11482,-5.361 4.22855,-10.72265 6.34395,-16.08821c0.06269,-0.10458 0.12812,-0.21243 0.19189,-0.31636z" data-paper-data="{&quot;origPos&quot;:null,&quot;origRot&quot;:0}" fill="#2a70c2" stroke-width="0.26459" stroke-linecap="butt"/><path d="M106.74475,172.14517c3.4152,0.7902 5.15966,1.25392 5.23339,1.39115c0.00224,0.07739 0.86779,1.59692 2.59664,4.55861c-0.9279,3.47345 -1.43598,5.28891 -1.5243,5.44638l2.11366,2.74905l-2.82071,2.04607l-0.2089,0.00606c-0.54639,-1.19975 -0.89584,-1.89031 -1.04831,-2.07168l-3.968,0.953c-2.86241,-1.48021 -4.38566,-2.32213 -4.56976,-2.52583c-0.12516,-1.096 -0.3777,-4.15529 -0.75764,-9.17787c2.6094,-1.85787 4.26072,-2.98285 4.95392,-3.37494zM107.77898,176.11079l-2.1158,2.31574c0.25439,2.33128 0.38905,3.75226 0.40408,4.26294c0.05418,-0.00159 0.53196,0.3135 1.43337,0.94526c1.16087,-0.28968 1.73959,-0.49255 1.7362,-0.60861l1.20064,-4.60051c-0.38754,-1.06506 -0.7051,-1.59394 -0.95271,-1.58666z" data-paper-data="{&quot;origPos&quot;:null}" fill="#2a70c2" stroke-width="0.26459" stroke-linecap="butt"/></g><g data-paper-data="{&quot;origPos&quot;:null}" stroke="none" stroke-width="0.26459" stroke-linecap="butt"><path d="M37.23835,147.25013c2.75344,0.61538 4.28353,0.96677 4.59123,1.05601c0,0.02324 0,0.04742 0,0.07158c-0.09575,2.46618 -0.16733,3.90054 -0.21567,4.30398c0.1571,0 0.86451,0.16359 2.12131,0.49174c1.1276,-3.47758 1.73926,-5.21591 1.83408,-5.21591c1.88612,0.84684 3.0853,1.41018 3.5975,1.69091c0,0.02416 0,0.04741 0,0.07158c-2.07019,4.81619 -3.24518,7.47387 -3.52498,7.97306c-0.51964,0.4304 -2.33047,2.07669 -5.43158,4.93982c-0.02416,0 -0.04834,0 -0.07158,0l-5.71881,-2.8185c0.52614,-0.9017 1.16105,-1.93726 1.90658,-3.10482c0.03346,0 0.92865,0.5875 2.68464,1.7625c0.02416,0 0.04741,0 0.07158,0c0.5875,-0.47874 1.2912,-1.16198 2.11109,-2.04974c0,-0.04091 -1.3386,-1.35626 -4.01674,-3.94516c0,-1.69464 0,-3.38927 0,-5.08391z" data-paper-data="{&quot;origPos&quot;:null}" fill="#000000"/><path d="M54.41338,150.35494c2.59634,0.69719 3.97306,1.12107 4.13015,1.27074c1.42784,2.02277 2.23101,3.18756 2.40855,3.49525c-0.92215,2.92354 -1.45201,4.38579 -1.58866,4.38579c-3.07414,0.71764 -4.68325,1.07646 -4.82641,1.07646c-2.54149,-1.48269 -3.89403,-2.3091 -4.05856,-2.48015c-0.08832,-2.75993 -0.13294,-4.28353 -0.13294,-4.57077c-0.04091,-0.0818 -0.06134,-0.14316 -0.06134,-0.18406c2.62329,-1.99489 3.97956,-2.99327 4.06786,-2.99327c0.02045,0 0.0409,0 0.06135,0zM54.2191,154.10581c-0.04091,0.2733 -0.10225,1.26795 -0.18406,2.98211c0.76133,0.17104 1.52359,0.34209 2.28492,0.51314c0.5466,-1.70858 0.8199,-2.62051 0.8199,-2.73671c-1.81734,-0.5466 -2.79062,-0.81989 -2.92075,-0.81989c0,0.02045 0,0.0409 0,0.06134z" data-paper-data="{&quot;origPos&quot;:null}" fill="#000000"/><path d="M67.41829,150.34471l0.07158,0.13387c-0.19706,1.04764 -1.18523,6.28957 -1.38323,7.33722c0.02416,0 0.04834,0 0.07158,0l3.52591,-1.03463c0,-1.38416 0,-2.76737 0,-4.1506c0.01301,-0.09574 0.05764,-0.14316 0.13294,-0.14316c2.65118,0.18406 4.12643,0.27608 4.42761,0.27608c0,0.04834 0.02323,0.07158 0.07158,0.07158c0,1.1685 -0.36904,3.59098 -1.10714,7.26657c0,0.21102 -1.0588,0.37184 -3.1764,0.48153c-0.10969,-0.13014 -0.20172,-0.40717 -0.27701,-0.83012c-2.71254,0.5531 -4.2603,0.83012 -4.64235,0.83012c-2.16594,-1.61282 -3.2489,-2.44295 -3.2489,-2.49036c0.36905,-4.84407 0.60144,-7.35861 0.69719,-7.54266c0.02045,0 0.0409,0 0.06135,0c1.7281,-0.04834 3.32048,-0.1162 4.77528,-0.20544z" data-paper-data="{&quot;origPos&quot;:null}" fill="#000000"/><path d="M78.33256,145.53877c0.01395,0.02695 0.02788,0.05485 0.0409,0.0818c-0.09574,1.25772 -0.1915,2.51452 -0.28631,3.77133c-0.01395,0 -0.02788,0 -0.0409,0c-1.33954,-0.06134 -2.00884,-0.14315 -2.00884,-0.24541l-0.57448,-3.32048c0,-0.05485 0.95655,-0.15059 2.86964,-0.28724z" data-paper-data="{&quot;origPos&quot;:null}" fill="#000000"/><path d="M86.70534,150.34471c1.35255,0.75855 2.18267,1.2503 2.49036,1.47618c-1.10714,2.30258 -1.70114,3.47386 -1.78294,3.51476c-0.02416,0 -0.04833,0 -0.07158,0l-1.46596,-1.28097l-1.73183,2.11109c0.06507,1.28097 0.13014,2.56194 0.19428,3.84291c-0.08831,0.08273 -1.21869,0.2733 -3.39206,0.57448c-0.0818,-0.5875 -0.61447,-3.46735 -1.59796,-8.63958c0,-0.0818 1.42785,-0.29375 4.28354,-0.63491c0.04741,0.05485 0.17755,0.69347 0.38949,1.91587c1.70764,-1.91959 2.60283,-2.87986 2.68465,-2.87986z" data-paper-data="{&quot;origPos&quot;:null}" fill="#000000"/><path d="M95.8162,150.35494c3.09459,1.59238 4.80968,2.52104 5.14432,2.78783c-0.44434,2.07669 -0.70741,3.14665 -0.78921,3.208c0.0818,0 -6.55915,0 -6.47642,0c0,0.03718 0,0.07531 0,0.11249l1.81362,2.24402l2.84918,-1.45481c0.27981,0.48525 0.68324,1.3321 1.20939,2.54149c-0.24634,0.0818 -2.03951,0.34488 -5.38044,0.78922c-2.76738,-1.82478 -4.16083,-2.77389 -4.18128,-2.84919c0.44434,-3.54543 0.70741,-5.31909 0.78921,-5.31909c2.89009,-1.22985 4.56333,-1.91588 5.02163,-2.05997zM95.14969,152.83507c-0.05485,0.13665 -0.41645,0.68047 -1.08667,1.62957c0,0.28724 0.40344,0.4304 1.20939,0.4304c0,0.04091 0.58471,0.14036 1.7532,0.29746c0.32071,-0.44435 0.48153,-0.70369 0.48153,-0.77899c-0.10319,-0.60795 -0.32443,-0.91193 -0.66651,-0.91193z" data-paper-data="{&quot;origPos&quot;:null}" fill="#000000"/><path d="M108.65658,150.34471c4.05857,0.56055 6.08785,0.90541 6.08785,1.03556c1.59796,1.37299 2.3974,2.10738 2.3974,2.20312c-0.64885,2.02929 -1.0179,3.26285 -1.10621,3.69975c0.64885,1.44179 1.0179,2.30259 1.10621,2.58239c0,0.0818 -1.0588,0.30025 -3.17641,0.65629c-0.02788,-0.1162 -0.22216,-0.37648 -0.5847,-0.77899c-2.92355,0.55961 -4.49827,0.84035 -4.72415,0.84035c-0.51871,-1.4046 -1.03835,-2.80827 -1.55799,-4.21195c1.14432,-0.60516 2.28957,-1.20939 3.43388,-1.81456c0.5531,0.08924 1.41761,0.13387 2.59261,0.13387c0,-0.1506 0.02045,-0.60516 0.06135,-1.36278c-0.19799,0 -1.96794,0.12921 -5.30886,0.38857c-0.02045,-0.04369 -0.0409,-0.08831 -0.06135,-0.13293c0.4648,-2.15849 0.7446,-3.23868 0.84035,-3.23868zM110.78812,156.37122c0,0.0753 0.21844,0.87381 0.65628,2.3974c0.02045,0 0.0409,0 0.06135,0c0.8608,-0.55961 1.29119,-0.92866 1.29119,-1.10621l0.13294,-1.09691c-0.1636,0 -0.87753,-0.06507 -2.14177,-0.19428z" data-paper-data="{&quot;origPos&quot;:null}" fill="#000000"/><path d="M121.19019,147.25013l4.50942,0.79945c-0.14408,1.14059 -0.28725,2.28214 -0.4304,3.42273c0.89426,-0.04741 1.55055,-0.07158 1.96701,-0.07158c0.21845,0 0.43783,0 0.65628,0l0.14316,-0.07158l0.07158,0.14316c-0.14315,2.07669 -0.26586,3.24519 -0.36904,3.50453l-0.14316,-0.0818c-0.10225,0 -1.0244,-0.04741 -2.76738,-0.14316c-0.09481,1.60539 -0.16733,3.52498 -0.21473,5.75971l-0.14315,0.07158c-2.20032,-0.14408 -3.51197,-0.2668 -3.93587,-0.36905c0.02416,-0.09574 0.04833,-0.1915 0.07158,-0.28724c0,-0.594 0.09575,-2.43923 0.28725,-5.53382c-1.84429,-0.10225 -2.76645,-0.22496 -2.76645,-0.36905c0.09481,-2.28214 0.21845,-3.42273 0.36811,-3.42273l2.6958,0.5122c0,-0.29375 0,-0.58751 0,-0.88124c0,-0.71764 -0.02788,-1.68719 -0.0818,-2.91053c0.05392,0 0.0818,-0.02323 0.0818,-0.07158z" data-paper-data="{&quot;origPos&quot;:null}" fill="#000000"/><path d="M137.46351,147.25013l4.50942,0.79945c-0.03905,0.31141 -0.39135,3.11132 -0.4304,3.42273c0.8952,-0.04741 1.55054,-0.07158 1.96794,-0.07158c0.21845,0 0.4369,0 0.65536,0l0.14408,-0.07158c0.02324,0.04741 0.04741,0.09575 0.07158,0.14316c-0.14316,2.07669 -0.2668,3.24519 -0.36905,3.50453l-0.14315,-0.0818c-0.10319,0 -1.02533,-0.04741 -2.76737,-0.14316c-0.09574,1.60539 -0.16733,3.52498 -0.21474,5.75971l-0.14409,0.07158c-2.1994,-0.14408 -3.51104,-0.2668 -3.93493,-0.36905c0.02416,-0.09574 0.04741,-0.1915 0.07158,-0.28724c0,-0.594 0.09574,-2.43923 0.28724,-5.53382c-1.84523,-0.10225 -2.76738,-0.22496 -2.76738,-0.36905c0.09574,-2.28214 0.21845,-3.42273 0.36905,-3.42273l2.69487,0.5122c0,-0.29375 0,-0.58751 0,-0.88124c0,-0.71764 -0.02695,-1.68719 -0.0818,-2.91053c0.05485,0 0.0818,-0.02323 0.0818,-0.07158z" data-paper-data="{&quot;origPos&quot;:null}" fill="#000000"/><path d="M150.05847,147.25013c0.04091,0.06134 0.2324,1.93354 0.57448,5.61563c2.63724,-0.80595 4.04092,-1.20846 4.21195,-1.20846c0.87102,0.594 1.74205,1.18801 2.61307,1.78294c-0.42389,3.89404 -0.69998,6.16873 -0.83012,6.82502c-1.20939,0.04091 -2.41879,0.0818 -3.62817,0.1227c0,-0.04091 -0.02323,-0.06135 -0.07157,-0.06135l0.07157,-0.25563c0,-0.55404 0.0818,-2.23472 0.24634,-5.04207c-0.99745,-0.04183 -1.73926,-0.06228 -2.22357,-0.06228c-0.08553,0 -0.17104,0 -0.25657,0c0.29375,3.12248 0.44063,4.82363 0.44063,5.10436l-3.44318,0.5122c-0.13014,-0.43783 -0.8952,-4.51964 -2.29607,-12.24635c0,-0.21938 0.53359,-0.3895 1.59889,-0.51314c1.34604,-0.38206 2.34349,-0.57354 2.99234,-0.57354z" data-paper-data="{&quot;origPos&quot;:null}" fill="#000000"/><path d="M164.23188,150.35494c3.09459,1.59238 4.80968,2.52104 5.14433,2.78783c-0.44435,2.07669 -0.70742,3.14665 -0.78922,3.208h-6.47642c0,0.03718 0,0.07531 0,0.11249c0.60423,0.74832 1.20939,1.49662 1.81362,2.24402l2.84918,-1.45481c0.2798,0.48525 0.68325,1.3321 1.20939,2.54149c-0.24634,0.0818 -2.03951,0.34488 -5.38044,0.78922c-2.76737,-1.82478 -4.16083,-2.77389 -4.18128,-2.84919c0.44435,-3.54543 0.70741,-5.31909 0.78921,-5.31909c2.89009,-1.22985 4.56426,-1.91588 5.02163,-2.05997zM163.56535,152.83507c-0.05392,0.13665 -0.41645,0.68047 -1.08575,1.62957c0,0.28724 0.40251,0.4304 1.20939,0.4304c0,0.04091 0.58378,0.14036 1.75227,0.29746c0.32071,-0.44435 0.48153,-0.70369 0.48153,-0.77899c-0.10225,-0.60795 -0.32443,-0.91193 -0.66651,-0.91193c-0.56332,-0.22217 -1.12666,-0.44434 -1.69091,-0.66651z" data-paper-data="{&quot;origPos&quot;:null}" fill="#000000"/><path d="M179.54216,150.35494c3.08157,0.581 4.69347,0.91285 4.83756,0.99466c0,0.04091 0,0.0818 0,0.1227c-0.6628,1.87219 -0.99466,2.84266 -0.99466,2.91053c-0.02045,0 -0.04091,0 -0.06135,0c-0.17012,0 -0.99745,-0.26679 -2.48014,-0.79944c-0.82641,1.38694 -1.24007,2.12875 -1.24007,2.22357l2.04974,1.98838c1.58495,-1.4892 2.39183,-2.23379 2.41879,-2.23379c1.23634,1.61934 1.85453,2.52755 1.85453,2.72554c-0.67581,0.38949 -1.85452,1.15454 -3.53521,2.29607c-3.25168,-0.7037 -5.00767,-1.09691 -5.26703,-1.17871c0.22961,0.74367 -1.83965,-5.94936 -1.60911,-5.20568z" data-paper-data="{&quot;origPos&quot;:null}" fill="#2a70c2"/><path d="M188.50987,150.34471c4.05765,0.56055 6.08692,0.90541 6.08692,1.03556c1.59889,1.37299 2.39834,2.10738 2.39834,2.20312c-0.64978,2.02929 -1.0179,3.26285 -1.10714,3.69975c0.64885,1.44179 1.0179,2.30259 1.10714,2.58239c0,0.0818 -1.05973,0.30025 -3.17733,0.65629c-0.02695,-0.1162 -0.22217,-0.37648 -0.58378,-0.77899c-2.92448,0.55961 -4.4992,0.84035 -4.72415,0.84035c0.1478,0.40065 -1.70673,-4.61353 -1.55799,-4.21195l3.43296,-1.81456c0.5531,0.08924 1.41761,0.13387 2.59262,0.13387c0,-0.1506 0.02045,-0.60516 0.06135,-1.36278c-0.19799,0 -1.96701,0.12921 -5.30794,0.38857l-0.06228,-0.13293c0.4648,-2.15849 0.74552,-3.23868 0.84035,-3.23868zM190.64141,156.37122c0,0.0753 0.21845,0.87381 0.65536,2.3974c0.02045,0 0.0409,0 0.06135,0c0.8608,-0.55961 1.29119,-0.92866 1.29119,-1.10621c-0.04462,0.36533 0.17756,-1.46224 0.13387,-1.09691c-0.16453,0 -0.87846,-0.06507 -2.14177,-0.19428z" data-paper-data="{&quot;origPos&quot;:null}" fill="#2a70c2"/><path d="M206.24915,150.34471c1.96701,1.25772 3.05369,1.98187 3.2582,2.17337c-0.7102,1.57751 -1.11643,2.36673 -1.21961,2.36673l-3.7295,-2.16222c-0.00093,0 -0.13387,0 -0.13387,0c0,0.06878 -0.15988,0.45085 -0.48152,1.14804c3.43668,1.85174 5.15455,2.80084 5.15455,2.84919c-0.96304,2.22729 -1.50593,3.40228 -1.62956,3.52498c-1.94283,0.11249 -3.8866,0.22497 -5.83036,0.33837c-2.26819,-1.50314 -3.4878,-2.29607 -3.65885,-2.37788c0,-0.02045 0,-0.04091 0,-0.06135c0,-0.17104 0.33837,-0.93981 1.01418,-2.3063l4.55032,2.36766c0.11249,-0.45085 0.22588,-0.9017 0.33837,-1.35255c-2.81479,-1.26424 -4.48897,-2.05346 -5.02163,-2.36766c0,-0.04741 0,-0.09574 0,-0.14315c0,-0.25936 0.54289,-1.41111 1.62957,-3.45342z" data-paper-data="{&quot;origPos&quot;:null}" fill="#2a70c2"/><path d="M213.58637,147.25013c1.50314,0.26679 3.00628,0.53266 4.50942,0.79945c-0.01486,0.11526 -0.41645,3.3084 -0.4304,3.42273c0.89426,-0.04741 1.55055,-0.07158 1.96701,-0.07158c0.21845,0 0.43783,0 0.65629,0l0.14316,-0.07158l0.07158,0.14316c-0.14316,2.07669 -0.26586,3.24519 -0.36811,3.50453l-0.14408,-0.0818c-0.10225,0 -1.0244,-0.04741 -2.76646,-0.14316c-0.09574,1.60539 -0.16733,3.52498 -0.21566,5.75971l-0.14316,0.07158c-2.20033,-0.14408 -3.51197,-0.2668 -3.93586,-0.36905c0.02416,-0.09574 0.04834,-0.1915 0.0725,-0.28724c0,-0.594 0.09574,-2.43923 0.28631,-5.53382c-1.84429,-0.10225 -2.76645,-0.22496 -2.76645,-0.36905c0.09574,-2.28214 0.21845,-3.42273 0.36904,-3.42273l2.69487,0.5122c0,-0.29375 0,-0.58751 0,-0.88124c0,-0.71764 -0.02695,-1.68719 -0.0818,-2.91053c0.05485,0 0.0818,-0.02323 0.0818,-0.07158z" data-paper-data="{&quot;origPos&quot;:null}" fill="#2a70c2"/><path d="M221.59011,147.26035c2.09064,0.04091 3.62445,0.06134 4.60145,0.06134c0.08831,0 0.35881,4.19522 0.80967,12.58473c-0.3486,0.08924 -1.56448,0.31421 -3.64862,0.67674c-0.10225,0 -0.44064,-2.56938 -1.01418,-7.7072c-0.04834,-0.1227 -0.29746,-1.99488 -0.74832,-5.61562z" data-paper-data="{&quot;origPos&quot;:null}" fill="#2a70c2"/><path d="M233.95918,150.35494c3.09552,1.59238 4.80968,2.52104 5.14433,2.78783c-0.44341,2.07669 -0.70649,3.14665 -0.7883,3.208c-2.15942,0 -4.31793,0 -6.47735,0c0,0.03718 0,0.07531 0,0.11249c0.18127,0.22404 1.63235,2.01998 1.81455,2.24402l2.84825,-1.45481c0.28074,0.48525 0.68325,1.3321 1.20939,2.54149c-0.24542,0.0818 -2.03951,0.34488 -5.38044,0.78922c-2.76646,-1.82478 -4.1599,-2.77389 -4.18035,-2.84919c0.44341,-3.54543 0.70648,-5.31909 0.78829,-5.31909c2.89009,-1.22985 4.56426,-1.91588 5.02163,-2.05997zM233.2936,152.83507c-0.05485,0.13665 -0.41739,0.68047 -1.08668,1.62957c0,0.28724 0.40344,0.4304 1.20939,0.4304c0,0.04091 0.58378,0.14036 1.75227,0.29746c0.32163,-0.44435 0.48152,-0.70369 0.48152,-0.77899c-0.10225,-0.60795 -0.32442,-0.91193 -0.66557,-0.91193c-0.56427,-0.22217 -1.1276,-0.44434 -1.69091,-0.66651z" data-paper-data="{&quot;origPos&quot;:null}" fill="#2a70c2"/><path d="M244.5453,147.62941c0.01395,0.02695 0.02788,0.05485 0.0409,0.0818c-0.68231,6.033 -1.0653,9.2029 -1.14711,9.51058c-1.4483,-0.13665 -2.36394,-0.23239 -2.74693,-0.28724c0,-0.01395 0,-0.02695 0,-0.0409c-0.21845,-2.85569 -0.4369,-5.71138 -0.65535,-8.56707c0.1636,-0.05485 1.66674,-0.28724 4.50849,-0.69719zM240.48766,157.42629c0.04741,0.02788 1.11365,0.10969 3.19685,0.24634l0.0409,0.0818c-0.32071,1.8852 -0.52521,2.82873 -0.61446,2.82873c-0.79293,0 -1.58495,0 -2.37788,0c-0.0818,0 -0.19057,-0.94353 -0.32722,-2.82873c-0.02788,0 -0.04183,-0.0818 -0.04183,-0.24634c0.08273,-0.02695 0.12364,-0.05392 0.12364,-0.0818z" data-paper-data="{&quot;origPos&quot;:null}" fill="#000000"/><path d="M258.13492,147.25013c0.26215,0.19428 4.20451,3.10575 4.46759,3.30004c-0.61446,2.80828 -1.00395,4.21195 -1.1685,4.21195c-0.03347,0 -0.85336,0.68975 -2.45876,2.07019c-0.99745,-0.04834 -2.13898,-0.11248 -3.42367,-0.19521c-0.01486,0.41925 -0.11805,3.27028 -0.13293,3.68953c-0.27981,0.0818 -1.48919,0.16733 -3.62725,0.25657c-0.26028,0 -0.38949,-0.73437 -0.38949,-2.20311c-0.4713,-6.08136 -0.70741,-9.36 -0.70741,-9.83874c0.79945,-0.17104 3.27959,-0.60144 7.44041,-1.29119zM255.35731,150.16066c0,1.42412 0,2.84919 0,4.27331c1.68069,-0.30025 2.52104,-0.47502 2.52104,-0.52243l0.58377,-2.52104c-0.8264,-0.34209 -1.86102,-0.75203 -3.10481,-1.22985z" data-paper-data="{&quot;origPos&quot;:null}" fill="#000000"/><path d="M271.12867,150.34471c1.35348,0.75855 2.1836,1.2503 2.49035,1.47618c-1.10621,2.30258 -1.70114,3.47386 -1.78294,3.51476c-0.02417,0 -0.04741,0 -0.07158,0c-0.48897,-0.42668 -0.977,-0.85336 -1.46597,-1.28097l-1.73182,2.11109c0.06507,1.28097 0.13014,2.56194 0.19521,3.84291c-0.08924,0.08273 -1.21961,0.2733 -3.39205,0.57448c-0.0818,-0.5875 -0.61538,-3.46735 -1.59889,-8.63958c0,-0.0818 1.42785,-0.29375 4.28354,-0.63491c0.04833,0.05485 0.17756,0.69347 0.3895,1.91587c1.70764,-1.91959 2.60283,-2.87986 2.68464,-2.87986z" data-paper-data="{&quot;origPos&quot;:null}" fill="#000000"/><path d="M280.23954,150.35494c3.09459,1.59238 4.80968,2.52104 5.14433,2.78783c-0.44341,2.07669 -0.70649,3.14665 -0.78922,3.208c-2.15849,0 -4.31793,0 -6.47642,0c0,0.03718 0,0.07531 0,0.11249l1.81362,2.24402l2.84918,-1.45481c0.27981,0.48525 0.68325,1.3321 1.20939,2.54149c-0.24634,0.0818 -2.03951,0.34488 -5.38044,0.78922c-2.76645,-1.82478 -4.16083,-2.77389 -4.18128,-2.84919c0.44435,-3.54543 0.70741,-5.31909 0.78921,-5.31909c2.89009,-1.22985 4.56426,-1.91588 5.02163,-2.05997zM279.57303,152.83507c-0.05392,0.13665 -0.41646,0.68047 -1.08576,1.62957c0,0.28724 0.40344,0.4304 1.20939,0.4304c0,0.04091 0.58378,0.14036 1.75227,0.29746c0.32071,-0.44435 0.48153,-0.70369 0.48153,-0.77899c-0.10225,-0.60795 -0.32443,-0.91193 -0.66651,-0.91193z" data-paper-data="{&quot;origPos&quot;:null}" fill="#000000"/><path d="M294.58677,150.34471c1.96794,1.25772 3.05369,1.98187 3.25913,2.17337c-0.71113,1.57751 -1.11737,2.36673 -1.21961,2.36673l-3.73043,-2.16222c-0.04462,0 -0.08832,0 -0.13294,0c0,0.06878 -0.16082,0.45085 -0.48152,1.14804c3.43574,1.85174 5.15456,2.80084 5.15456,2.84919c-0.96304,2.22729 -1.50685,3.40228 -1.62956,3.52498l-5.8313,0.33837c-2.26819,-1.50314 -3.4878,-2.29607 -3.65885,-2.37788c0,-0.02045 0,-0.04091 0,-0.06135c0,-0.17104 0.33837,-0.93981 1.01511,-2.3063l4.55032,2.36766c0.11249,-0.45085 0.22496,-0.9017 0.33743,-1.35255c-2.81478,-1.26424 -4.48804,-2.05346 -5.02069,-2.36766c0,-0.04741 0,-0.09574 0,-0.14315c0,-0.25936 0.54289,-1.41111 1.62864,-3.45342c1.92052,-0.18127 3.84012,-0.36253 5.75971,-0.54381z" data-paper-data="{&quot;origPos&quot;:null}" fill="#000000"/><path d="M307.1306,150.34471c1.96794,1.25772 3.05369,1.98187 3.25913,2.17337c-0.71113,1.57751 -1.11737,2.36673 -1.21962,2.36673l-3.73042,-2.16222c-0.04462,0 -0.08924,0 -0.13293,0c0,0.06878 -0.16082,0.45085 -0.48245,1.14804c3.43669,1.85174 5.15548,2.80084 5.15548,2.84919c-0.96398,2.22729 -1.50686,3.40228 -1.62957,3.52498l-5.8313,0.33837c-2.26819,-1.50314 -3.4878,-2.29607 -3.65885,-2.37788c0,-0.02045 0,-0.04091 0,-0.06135c0,-0.17104 0.33837,-0.93981 1.01511,-2.3063l4.5494,2.36766c0.11342,-0.45085 0.22588,-0.9017 0.33837,-1.35255c-2.81478,-1.26424 -4.48805,-2.05346 -5.02163,-2.36766c0,-0.04741 0,-0.09574 0,-0.14315c0,-0.25936 0.54381,-1.41111 1.62956,-3.45342c1.91959,-0.18127 3.84012,-0.36253 5.75971,-0.54381z" data-paper-data="{&quot;origPos&quot;:null}" fill="#000000"/><path d="M320.73974,150.35494c2.59634,0.69719 3.97306,1.12107 4.13014,1.27074c1.42784,2.02277 2.23101,3.18756 2.40855,3.49525c-0.92308,2.92354 -1.45201,4.38579 -1.58865,4.38579c-3.07414,0.71764 -4.68326,1.07646 -4.82735,1.07646c-2.54149,-1.48269 -3.89403,-2.3091 -4.05764,-2.48015c-0.08924,-2.75993 -0.13387,-4.28353 -0.13387,-4.57077c-0.04091,-0.0818 -0.06135,-0.14316 -0.06135,-0.18406c2.62422,-1.99489 3.97956,-2.99327 4.0688,-2.99327c0.02045,0 0.0409,0 0.06135,0zM320.54546,154.10581c-0.04091,0.2733 -0.10319,1.26795 -0.18499,2.98211c0.76227,0.17104 1.52359,0.34209 2.28586,0.51314c0.5466,-1.70858 0.81989,-2.62051 0.81989,-2.73671c-1.81733,-0.5466 -2.79155,-0.81989 -2.92075,-0.81989c0,0.02045 0,0.0409 0,0.06134z" data-paper-data="{&quot;origPos&quot;:null}" fill="#000000"/><path d="M335.5685,150.34471c1.35255,0.75855 2.18267,1.2503 2.49036,1.47618c-1.10621,2.30258 -1.70114,3.47386 -1.78294,3.51476c-0.02417,0 -0.04833,0 -0.07158,0c-0.48897,-0.42668 -0.97699,-0.85336 -1.46596,-1.28097l-1.73183,2.11109c0.06507,1.28097 0.13015,2.56194 0.19522,3.84291c-0.08924,0.08273 -1.21961,0.2733 -3.39206,0.57448c-0.08273,-0.5875 -0.61538,-3.46735 -1.59889,-8.63958c0,-0.0818 1.42784,-0.29375 4.28353,-0.63491c0.04741,0.05485 0.17756,0.69347 0.3895,1.91587c1.70764,-1.91959 2.60283,-2.87986 2.68464,-2.87986z" data-paper-data="{&quot;origPos&quot;:null}" fill="#000000"/></g></g></g></svg>