<svg version="1.1" xmlns="http://www.w3.org/2000/svg" xmlns:xlink="http://www.w3.org/1999/xlink" width="277.13737" height="42.14948" viewBox="0,0,277.13737,42.14948"><g transform="translate(-101.79634,-158.88917)"><g data-paper-data="{&quot;isPaintingLayer&quot;:true}" fill="#ffffff" fill-rule="nonzero" stroke="none" stroke-width="none" stroke-linecap="butt" stroke-linejoin="miter" stroke-miterlimit="10" stroke-dasharray="" stroke-dashoffset="0" font-family="none" font-weight="none" font-size="none" text-anchor="none" style="mix-blend-mode: normal"><text transform="translate(102.15724,196.34702) scale(0.7218,0.72179)" font-size="22" xml:space="preserve" data-paper-data="{&quot;origPos&quot;:null}" id="ID0.08681221166625619" fill="#ffffff" fill-rule="nonzero" stroke="none" stroke-width="1" stroke-linecap="butt" stroke-linejoin="miter" stroke-miterlimit="10" stroke-dasharray="" stroke-dashoffset="0" font-family="Sans Serif" font-weight="400" text-anchor="start" style="mix-blend-mode: normal"><tspan x="0" dy="0">Dive 10 times in Flip Switch Scralaxy.</tspan></text><g data-paper-data="{&quot;origPos&quot;:null}" id="text68" stroke-width="0.26458"><path d="M182.19091,160.0928c2.91787,1.47514 4.41732,2.21271 4.49837,2.21271c0,0.12965 -0.60789,1.30085 -1.82368,3.5136h-0.0851c-0.09727,0 -1.4954,-0.66057 -4.19442,-1.98172l-1.37382,1.83583c2.32619,1.11852 5.15084,2.54503 8.47397,4.27953c-1.50757,2.68281 -2.57745,4.46596 -3.20966,5.3494l-6.86913,0.60789c-3.1367,-2.11544 -4.79422,-3.20963 -4.97253,-3.28259v-0.08509c0,-0.22695 0.63626,-1.26846 1.90876,-3.12455h0.15805c0.50253,0.29989 2.07897,1.16309 4.72938,2.58961l1.60482,-1.82368c-4.87121,-2.48019 -7.57023,-3.88238 -8.09707,-4.2066v-0.07294c1.5481,-3.01512 2.39102,-4.54295 2.52881,-4.58347c4.02827,-0.81863 6.26936,-1.22794 6.72325,-1.22794z" id="path569"/><path d="M194.3122,163.76444c0.10536,0.13779 0.65245,2.48828 1.6413,7.0515h0.08511c0,-0.10534 0.59977,-1.03339 1.79934,-2.78413c0.50251,0.34041 1.45893,1.078 2.86924,2.21273h0.17022v-0.08509c0.21884,-3.16103 0.38093,-4.91175 0.48631,-5.25216c3.33933,0.17022 5.009,0.308 5.009,0.41336c-1.53189,6.15994 -2.35049,9.36148 -2.45587,9.60465c-0.51063,0.05672 -1.58051,0.21882 -3.20966,0.4863c-1.33736,-2.09923 -2.10329,-3.21775 -2.29782,-3.35554c-0.87535,2.3343 -1.42246,3.61896 -1.6413,3.85402h-3.2826c-0.20262,-0.06484 -1.15904,-2.17218 -2.86924,-6.32205c-1.09421,-2.31807 -1.6413,-3.57438 -1.6413,-3.7689c0,-0.17831 1.77908,-0.86321 5.33725,-2.05467z" id="path571"/><path d="M209.37569,158.88917l4.778,0.75378c-0.59977,2.29378 -0.99288,3.44067 -1.17929,3.44067c-2.51262,-0.17022 -3.76891,-0.33637 -3.76891,-0.49847v-3.52575c0.02431,-0.11346 0.08105,-0.17018 0.17022,-0.17018zM208.03833,164.67627h0.07295c3.69597,0.67273 5.54393,1.06584 5.54393,1.1793c-1.06178,6.01404 -1.70614,9.36554 -1.93309,10.05448h-3.85402c-0.11348,0 -0.17021,-0.05672 -0.17021,-0.17018z" id="path573"/><path d="M218.19006,160.0928l5.34943,0.9483l-0.51063,4.0607c1.06178,-0.05672 1.83987,-0.08509 2.33429,-0.08509h0.77809l0.17021,-0.08509l0.08511,0.17018c-0.17022,2.46397 -0.3161,3.84997 -0.43767,4.15796l-0.17022,-0.09724c-0.12158,0 -1.21578,-0.05672 -3.2826,-0.17018c-0.11348,1.90471 -0.19859,4.18227 -0.2553,6.83265l-0.17022,0.08509c-2.60986,-0.1702 -4.16605,-0.3161 -4.66858,-0.43768l0.08511,-0.34041c0,-0.70516 0.11348,-2.89357 0.34041,-6.56521c-2.1884,-0.12155 -3.28261,-0.26744 -3.28261,-0.43768c0.11348,-2.70712 0.25937,-4.06069 0.43768,-4.06069l3.19749,0.60789v-1.04557c0,-0.85104 -0.03242,-2.00197 -0.09726,-3.4528c0.06484,0 0.09726,-0.02837 0.09726,-0.08509z" id="path575"/><path d="M232.46329,163.7766c3.65545,0.68894 5.56826,1.08205 5.73846,1.17932v0.14587c-0.7862,2.22083 -1.17929,3.37175 -1.17929,3.4528h-0.07295c-0.20262,0 -1.18336,-0.3161 -2.94218,-0.9483c-0.98073,1.64536 -1.47108,2.52477 -1.47108,2.63824l2.43154,2.3586c1.88039,-1.76692 2.83681,-2.65039 2.86924,-2.65039c1.46703,1.92094 2.20055,2.99891 2.20055,3.23397c-0.80242,0.46201 -2.20055,1.36978 -4.19444,2.72333c-3.85807,-0.83483 -5.94111,-1.30087 -6.24909,-1.39814l-1.90876,-6.17616z" id="path577"/><path d="M246.70003,160.0928c0.04864,0.07294 0.27557,2.29376 0.68082,6.66245c3.1286,-0.95642 4.79422,-1.43462 4.99684,-1.43462l3.10023,2.11547c-0.50253,4.61994 -0.83078,7.31897 -0.98479,8.09707l-4.30384,0.14587c0,-0.04862 -0.02836,-0.07294 -0.0851,-0.07294l0.0851,-0.30395c0,-0.65652 0.09727,-2.65038 0.29179,-5.98161c-1.18335,-0.04862 -2.06276,-0.07294 -2.63823,-0.07294h-0.30395c0.34853,3.70406 0.52278,5.72227 0.52278,6.05457l-4.085,0.60789c-0.154,-0.51873 -1.06178,-5.36157 -2.72333,-14.52854c0,-0.25936 0.6322,-0.462 1.89661,-0.60789c1.59672,-0.45389 2.78007,-0.68083 3.55006,-0.68083z" id="path579"/><path d="M275.21,160.06849c0.04864,0.10534 0.07295,0.18235 0.07295,0.23099c-0.04864,2.41535 -0.07295,3.81349 -0.07295,4.19442l-0.15804,0.07294c-3.72028,0.09724 -5.85194,0.14587 -6.39499,0.14587l-0.07295,0.15802c0.04864,0.89968 0.07295,1.63725 0.07295,2.21271v0.3769h0.07295l4.94822,-0.60789l0.08511,0.14587v3.73244c0,0.10534 -0.05268,0.15802 -0.15806,0.15802l-4.64427,-0.53494v0.44983c0,1.02125 0.02836,2.54503 0.0851,4.57132c-0.45389,0.10534 -1.82771,0.28365 -4.12149,0.53494c-0.14588,-0.28367 -0.8551,-4.98063 -2.12762,-14.09086h0.07295z" id="path581"/><path d="M276.60817,160.10496c2.48019,0.04862 4.2998,0.07293 5.45884,0.07293c0.10538,0 0.42552,4.97657 0.96046,14.92973c-0.41337,0.10534 -1.85608,0.37282 -4.32817,0.80242c-0.12158,0 -0.52278,-3.04755 -1.20363,-9.14264c-0.05674,-0.14588 -0.35259,-2.36671 -0.88753,-6.66246z" id="path583"/><path d="M286.0669,158.88917l4.778,0.75378c-0.59977,2.29378 -0.99289,3.44067 -1.1793,3.44067c-2.51262,-0.17022 -3.7689,-0.33637 -3.7689,-0.49847v-3.52575c0.02431,-0.11346 0.08105,-0.17018 0.17021,-0.17018zM284.72953,164.67627h0.07295c3.69597,0.67273 5.54393,1.06584 5.54393,1.1793c-1.06178,6.01404 -1.70614,9.36554 -1.93309,10.05448h-3.85401c-0.11348,0 -0.17022,-0.05672 -0.17022,-0.17018z" id="path585"/><path d="M297.34932,163.7766c0.25127,1.03747 0.42552,1.67777 0.52278,1.92094c3.58249,-0.81863 5.47504,-1.22794 5.67769,-1.22794c2.43966,3.50954 3.65948,5.34132 3.65948,5.49532l-2.79629,5.93298l-6.01809,-0.96046v0.18233c0.4701,3.6068 0.70515,5.52368 0.70515,5.75062c-0.05674,0 -0.08511,0.02837 -0.08511,0.08509c-0.58358,-0.05672 -1.02125,-0.08509 -1.31304,-0.08509h-1.04557c-0.60789,0 -1.53998,-0.02837 -2.79629,-0.08509c-0.11348,-0.34041 -0.98479,-5.51557 -2.61392,-15.52546c0.27558,-0.11346 2.30997,-0.60787 6.1032,-1.48326zM297.787,168.74913c0.1621,1.8642 0.308,2.79629 0.43767,2.79629c1.66156,0.57546 2.67875,0.8632 3.05159,0.8632l0.96046,-4.18227h-0.08511c-0.94831,0.05672 -2.40318,0.23099 -4.36464,0.52278z" id="path587"/></g></g></g></svg>