<svg version="1.1" xmlns="http://www.w3.org/2000/svg" xmlns:xlink="http://www.w3.org/1999/xlink" width="60.1801" height="57.6988" viewBox="0,0,60.1801,57.6988"><defs><radialGradient cx="240.99295" cy="180.2134" r="39.6063" gradientUnits="userSpaceOnUse" id="color-1"><stop offset="0" stop-color="#fff343"/><stop offset="1" stop-color="#fff343" stop-opacity="0"/></radialGradient><radialGradient cx="240.02055" cy="181.3848" r="36.569" gradientUnits="userSpaceOnUse" id="color-2"><stop offset="0" stop-color="#ffffff" stop-opacity="0"/><stop offset="1" stop-color="#ffffff"/></radialGradient></defs><g transform="translate(-209.90995,-151.1506)"><g data-paper-data="{&quot;isPaintingLayer&quot;:true}" fill-rule="nonzero" stroke="none" stroke-linejoin="miter" stroke-miterlimit="10" stroke-dasharray="" stroke-dashoffset="0" style="mix-blend-mode: normal"><path d="M210.97695,174.491l-1.067,-1.3772l0.9248,-2.827l1.6361,-0.7248h16.8589l7.3981,-17.0342l1.6361,-1.3772l1.6361,0.0724l1.9917,1.5222l7.9671,16.5993l17.0724,-0.2899l1.7073,1.0148l1.3515,1.6672l-1.3515,2.9719l-9.7455,11.5253l2.8454,17.4691l0.1422,2.7544l-1.7783,0.9423l-3.13,-0.5798l-16.361,-11.5978l-13.9424,13.0475l-3.1299,0.5799l-2.2764,-1.2323l-0.7824,-3.4068l1.6361,-16.2369z" data-paper-data="{&quot;origPos&quot;:null}" fill="url(#color-1)" stroke-width="1.43627" stroke-linecap="round"/><path d="M214.28805,174.6366l-0.9555,-1.2103l0.8281,-2.4845l1.4652,-0.637h15.0978l6.6252,-14.9704l1.4652,-1.2104l1.4652,0.0637l1.7837,1.3378l7.1348,14.5882l15.289,-0.2548l1.5289,0.8918l1.2103,1.4652l-1.2103,2.6119l-8.7275,10.1289l2.5482,15.3526l0.1274,2.4208l-1.5926,0.8281l-2.803,-0.5096l-14.6519,-10.1926l-12.4859,11.4667l-2.803,0.5096l-2.0385,-1.083l-0.7007,-2.9941l1.4651,-14.2696z" data-paper-data="{&quot;origPos&quot;:null}" fill="url(#color-2)" stroke-width="1.27408" stroke-linecap="round"/><text transform="translate(226.21012,186.01695) rotate(-5.73005) scale(0.53179,0.53179)" font-size="22" xml:space="preserve" data-paper-data="{&quot;origPos&quot;:null,&quot;origRot&quot;:-2.82164}" fill="#4b3002" fill-rule="nonzero" stroke="none" stroke-width="1" stroke-linecap="butt" stroke-linejoin="miter" stroke-miterlimit="10" stroke-dasharray="" stroke-dashoffset="0" font-family="Sans Serif" font-weight="400" text-anchor="start" style="mix-blend-mode: normal"><tspan x="0" dy="0">NEW!</tspan></text></g></g></svg>