<svg version="1.1" xmlns="http://www.w3.org/2000/svg" xmlns:xlink="http://www.w3.org/1999/xlink" width="191" height="246.85849" viewBox="0,0,191,246.85849"><defs><linearGradient x1="257.2357" y1="173.95838" x2="257.2357" y2="216.45271" gradientUnits="userSpaceOnUse" id="color-1"><stop offset="0" stop-color="#73b612"/><stop offset="1" stop-color="#2e8d0e"/></linearGradient><linearGradient x1="238.69154" y1="191.35511" x2="238.69154" y2="221.17941" gradientUnits="userSpaceOnUse" id="color-2"><stop offset="0" stop-color="#73b612"/><stop offset="1" stop-color="#2e8d0e"/></linearGradient><linearGradient x1="275.89093" y1="190.6654" x2="275.89093" y2="220.48967" gradientUnits="userSpaceOnUse" id="color-3"><stop offset="0" stop-color="#73b612"/><stop offset="1" stop-color="#2e8d0e"/></linearGradient></defs><g transform="translate(-158,-58.64151)"><g data-paper-data="{&quot;isPaintingLayer&quot;:true}" fill-rule="nonzero" stroke="none" stroke-linejoin="miter" stroke-miterlimit="10" stroke-dasharray="" stroke-dashoffset="0" style="mix-blend-mode: normal"><g><path d="M253.26176,173.95838h7.94785v42.49432h-7.94785z" fill="url(#color-1)" stroke-width="0.97987" stroke-linecap="butt"/><path d="M256.98946,131.96892c10.46673,0 19.95063,2.87449 26.81695,7.51812c6.86806,4.64191 11.11855,11.05474 11.11855,18.13143c0,7.07668 -4.25052,13.48953 -11.11855,18.13143c-6.86631,4.64366 -16.35021,7.51812 -26.81695,7.51812c-10.46673,0 -19.95063,-2.87449 -26.81695,-7.51812c-6.86806,-4.64191 -11.11855,-11.05474 -11.11855,-18.13143c0,-7.07668 4.25052,-13.48953 11.11855,-18.13143c6.86631,-4.64366 16.35021,-7.51812 26.81695,-7.51812z" fill="#11ac1e" stroke-width="1" stroke-linecap="butt"/><path d="M256.83271,137.35613c8.44514,0 16.09742,2.31939 21.63753,6.06624c5.54168,3.74526 8.97122,8.91967 8.97122,14.62948c0,5.71 -3.42954,10.88422 -8.97122,14.62967c-5.54011,3.74682 -13.19241,6.06624 -21.63753,6.06624c-8.4453,0 -16.09757,-2.31939 -21.63774,-6.06624c-5.54168,-3.74545 -8.97122,-8.91967 -8.97122,-14.62967c0,-5.70981 3.42954,-10.88422 8.97122,-14.62948c5.54011,-3.74682 13.19241,-6.06624 21.63774,-6.06624z" fill="#96f018" stroke-width="0.80687" stroke-linecap="butt"/><path d="M257.1293,142.51621c6.41128,0 12.22043,1.76071 16.42625,4.60504c4.20707,2.84344 6.81062,6.77148 6.81062,11.10634c0,4.33465 -2.60358,8.26269 -6.81062,11.10613c-4.20582,2.84429 -10.01497,4.60504 -16.42625,4.60504c-6.41128,0 -12.22043,-1.76071 -16.42641,-4.60504c-4.20686,-2.84344 -6.81044,-6.77148 -6.81044,-11.10613c0,-4.33482 2.60358,-8.26288 6.81044,-11.10634c4.20603,-2.84429 10.01513,-4.60504 16.42641,-4.60504z" fill="#ffffff" stroke-width="0.61254" stroke-linecap="butt"/><g stroke-width="1"><path d="M250.09207,151.19535c0.92426,0.02242 1.82954,0.80011 2.20369,1.645c0.73802,1.66225 0.98631,3.30729 0.98631,5.42478c0,2.11747 -0.22762,3.77805 -0.98631,5.42478c-0.40525,0.8846 -1.39155,1.57603 -2.37614,1.55879c-0.91561,0.01725 -1.92781,-0.63456 -2.37614,-1.55879c-0.79663,-1.62778 -0.98631,-3.30729 -0.98631,-5.42478c0,-2.11747 0.16034,-3.80389 0.98631,-5.42478c0.47418,-0.93632 1.55536,-1.62259 2.54857,-1.645z" fill="#000000" stroke-linecap="round"/><path d="M249.91964,152.48858c0.47593,0 0.90698,0.19315 1.2191,0.50521c0.31211,0.31211 0.50521,0.74322 0.50521,1.2191c0,0.47593 -0.19315,0.90698 -0.50521,1.2191c-0.31211,0.31211 -0.74322,0.50521 -1.2191,0.50521c-0.47593,0 -0.90698,-0.19315 -1.2191,-0.50521c-0.31211,-0.31211 -0.50521,-0.74322 -0.50521,-1.2191c0,-0.47593 0.19315,-0.90698 0.50521,-1.2191c0.31211,-0.31211 0.74322,-0.50521 1.2191,-0.50521z" fill="#ffffff" stroke-linecap="butt"/></g><g stroke-width="1"><path d="M263.71439,151.28157c0.92426,0.02242 1.82954,0.80011 2.20369,1.645c0.73802,1.66225 0.98631,3.30729 0.98631,5.42478c0,2.11747 -0.22762,3.77805 -0.98631,5.42478c-0.40525,0.8846 -1.39155,1.57603 -2.37614,1.55879c-0.91561,0.01725 -1.92781,-0.63456 -2.37614,-1.55879c-0.79663,-1.62778 -0.98631,-3.30729 -0.98631,-5.42478c0,-2.11747 0.16034,-3.80389 0.98631,-5.42478c0.47418,-0.93632 1.55536,-1.62259 2.54857,-1.645z" fill="#000000" stroke-linecap="round"/><path d="M263.54194,152.57479c0.47593,0 0.90698,0.19315 1.2191,0.50521c0.31211,0.31211 0.50521,0.74322 0.50521,1.2191c0,0.47593 -0.19315,0.90698 -0.50521,1.2191c-0.31211,0.31211 -0.74322,0.50521 -1.2191,0.50521c-0.47593,0 -0.90698,-0.19315 -1.2191,-0.50521c-0.31211,-0.31211 -0.50521,-0.74322 -0.50521,-1.2191c0,-0.47593 0.19315,-0.90698 0.50521,-1.2191c0.31211,-0.31211 0.74322,-0.50521 1.2191,-0.50521z" fill="#ffffff" stroke-linecap="butt"/></g><path d="M244.75061,196.65761c4.99094,3.14691 8.83381,7.07653 11.01388,10.88094c2.17991,3.80441 2.69219,7.48504 1.02029,10.1367c-1.6719,2.65171 -5.21371,3.77597 -9.58632,3.44901c-4.37259,-0.32693 -9.57491,-2.1004 -14.56583,-5.24734c-4.9911,-3.14691 -8.83397,-7.07653 -11.01388,-10.88094c-2.18007,-3.80457 -2.6924,-7.48504 -1.02047,-10.1367c1.6719,-2.65171 5.21371,-3.77597 9.58632,-3.44901c4.37259,0.32693 9.57491,2.1004 14.56604,5.24734z" fill="url(#color-2)" stroke-width="2.05882" stroke-linecap="butt"/><path d="M284.39785,190.72054c4.37259,-0.32693 7.91438,0.79734 9.58632,3.44901c1.6719,2.65171 1.15962,6.33213 -1.02047,10.1367c-2.17991,3.80441 -6.0228,7.73399 -11.01388,10.88094c-4.99094,3.14691 -10.19327,4.92038 -14.56583,5.24734c-4.37259,0.32693 -7.91438,-0.79734 -9.58632,-3.44901c-1.6719,-2.65171 -1.15962,-6.33229 1.02029,-10.1367c2.18007,-3.80441 6.02295,-7.73399 11.01388,-10.88094c4.9911,-3.14691 10.19343,-4.92038 14.56604,-5.24734z" fill="url(#color-3)" stroke-width="2.05882" stroke-linecap="butt"/></g><path d="M158,305.5v-246.85849h191v246.85849z" fill="none" stroke-width="0" stroke-linecap="butt"/><path d="M158,305.5v-246.85849h191v246.85849z" fill="none" stroke-width="0" stroke-linecap="butt"/></g></g></svg>