<svg version="1.1" xmlns="http://www.w3.org/2000/svg" xmlns:xlink="http://www.w3.org/1999/xlink" width="441.55828" height="91.66968" viewBox="0,0,441.55828,91.66968"><defs><linearGradient x1="25.5327" y1="70.2076" x2="25.5327" y2="149.819" gradientUnits="userSpaceOnUse" id="color-1"><stop offset="0" stop-color="#ffffff"/><stop offset="1" stop-color="#ffffff"/></linearGradient><radialGradient cx="66.7558" cy="78.5833" r="43.7894" gradientUnits="userSpaceOnUse" id="color-2"><stop offset="0" stop-color="#2ebdff"/><stop offset="1" stop-color="#18628c"/></radialGradient></defs><g transform="translate(-19.50356,-64.17846)"><g data-paper-data="{&quot;isPaintingLayer&quot;:true}" fill-rule="nonzero" stroke-linecap="butt" stroke-linejoin="miter" stroke-miterlimit="10" stroke-dasharray="" stroke-dashoffset="0" style="mix-blend-mode: normal"><path d="M25.5327,70.2076h429.5v79.6114h-429.5z" data-paper-data="{&quot;origPos&quot;:null}" fill="#ffffff" stroke="url(#color-1)" stroke-width="12.05828"/><text transform="translate(23.35286,107.70718) scale(0.64698,0.6738)" font-size="22" xml:space="preserve" data-paper-data="{&quot;origPos&quot;:null}" fill="#2392d1" fill-rule="nonzero" stroke="none" stroke-width="1" stroke-linecap="butt" stroke-linejoin="miter" stroke-miterlimit="10" stroke-dasharray="" stroke-dashoffset="0" font-family="Sans Serif" font-weight="400" text-anchor="start" style="mix-blend-mode: normal"><tspan x="0" dy="0">Waluigi time! Waluigi is super fast and a really good swimmer.</tspan><tspan x="0" dy="24.86px">He's also just plain awesome, I mean, who doesn't like a strange</tspan><tspan x="0" dy="24.86px">skinny man with a pointy moustache yelling 'WAH' all the time?</tspan></text><g><path d="M82.8963,72.4701c-0.484,1.8672 -0.8097,2.7958 -0.9579,2.7958c-2.0448,-0.1386 -3.0624,-0.2766 -3.0624,-0.4051v-2.8646c0.0197,-0.089 0.0693,-0.1381 0.1386,-0.1381zM101.8228,72.4701c-0.484,1.8672 -0.8097,2.7958 -0.9579,2.7958c-2.0448,-0.1386 -3.0623,-0.2766 -3.0623,-0.4051v-2.8646c0.0197,-0.089 0.0692,-0.1381 0.138,-0.1381zM35.2542,72.9743l0.5139,7.507h0.0591l2.6968,-2.8252c1.5906,2.1439 2.4003,3.2106 2.4397,3.2106c0.6818,-3.3486 1.1163,-5.3636 1.2842,-6.0357c2.9142,0.5634 4.3662,0.8992 4.3662,1.0277c-1.7484,5.5613 -2.7559,8.7122 -3.0128,9.4435c-0.6221,0.0395 -1.9856,0.1679 -4.1093,0.3849c-0.9382,-2.2522 -1.4126,-3.4078 -1.4126,-3.467c-0.0789,0.0096 -0.573,0.9878 -1.4819,2.9536h-0.0592c-2.8251,-0.1876 -4.2377,-0.3656 -4.2377,-0.5138c-1.5901,-7.0038 -2.3806,-10.5992 -2.3806,-10.7869v-0.1284c0,-0.1285 1.7585,-0.4345 5.2649,-0.8988zM62.765,72.905c0.0885,0 0.3455,4.04 0.7804,12.1302c-0.3358,0.089 -1.5117,0.3065 -3.5165,0.6519c-0.0992,0 -0.4249,-2.4792 -0.9782,-7.4281c-0.0495,-0.1189 -0.2862,-1.9264 -0.7212,-5.4132c2.0155,0.0395 3.4968,0.0592 4.4355,0.0592zM55.0699,76.8166c1.541,1.3235 2.3113,2.0351 2.3113,2.1237c-0.6221,1.9562 -0.9776,3.1412 -1.0666,3.5661c0.6221,1.3928 0.9776,2.2228 1.0666,2.4893c0,0.0789 -1.0176,0.2863 -3.0624,0.6322c-0.0293,-0.1087 -0.2169,-0.3656 -0.5629,-0.7505c-2.815,0.5432 -4.3364,0.8097 -4.5538,0.8097l-1.5011,-4.0597l3.3087,-1.7485c0.5335,0.0891 1.3635,0.1285 2.4994,0.1285c0,-0.1482 0.0197,-0.5831 0.0592,-1.314c-0.1876,0 -1.8966,0.1285 -5.1168,0.3753l-0.0592,-0.1284c0.4446,-2.0843 0.7208,-3.1211 0.8098,-3.1211c3.912,0.5432 5.8678,0.8689 5.8678,0.9974zM70.0551,75.9472l-1.3337,7.073h0.0693l3.3976,-0.9978v-4.0006c0.0102,-0.089 0.0597,-0.1381 0.1285,-0.1381c2.5586,0.1775 3.9808,0.2666 4.2676,0.2666c0,0.0495 0.0197,0.0692 0.0693,0.0692c0,1.1259 -0.3561,3.4574 -1.0672,7.0033c0,0.2074 -1.017,0.3556 -3.0618,0.4643c-0.1088,-0.1285 -0.1978,-0.395 -0.2671,-0.8001c-2.6178,0.5336 -4.1093,0.8001 -4.4744,0.8001c-2.0848,-1.5507 -3.1317,-2.3508 -3.1317,-2.4003c0.3556,-4.6723 0.5826,-7.0923 0.6717,-7.2703h0.0591c1.6695,-0.0491 3.201,-0.1088 4.6035,-0.1973zM94.7897,76.2142c0.4841,7.29 0.7213,11.1722 0.7213,11.6365c-2.1237,1.3529 -3.6354,2.2618 -4.5539,2.7458c-3.2303,-1.0171 -4.8401,-1.5901 -4.8401,-1.7383c1.0368,-1.5213 1.6396,-2.2916 1.8076,-2.3118c1.758,0.8694 2.766,1.3043 3.0325,1.3043l0.9382,-1.235c-0.2468,-1.0176 -0.4147,-1.62 -0.5038,-1.8076c-0.1481,0 -1.9259,0.2862 -5.3539,0.8694c-1.8769,-3.0523 -2.8151,-4.6131 -2.8151,-4.6925c1.62,-2.5879 2.6077,-4.1093 2.9633,-4.5538h0.0692c0.1877,0 1.6104,0.3161 4.2671,0.9387v-0.2175c0,-0.2569 -0.0197,-0.6717 -0.0687,-1.2346l0.138,-0.0693c2.7959,0.0693 4.1983,0.1978 4.1983,0.3657zM77.9869,76.5596c3.0032,0.5437 4.5048,0.8694 4.5048,0.9585c-0.8598,4.8896 -1.3833,7.6061 -1.5709,8.169h-3.1312c-0.089,0 -0.1385,-0.0491 -0.1385,-0.1381l0.2766,-8.9894zM96.9134,76.5596c3.0032,0.5437 4.5043,0.8694 4.5043,0.9585c-0.8593,4.8896 -1.3827,7.6061 -1.5704,8.169h-3.1311c-0.089,0 -0.1386,-0.0491 -0.1386,-0.1381l0.2767,-8.9894zM88.359,83.2969c0.6125,-0.1978 1.5512,-0.5634 2.8156,-1.0869c-0.2473,-1.185 -0.3657,-1.8572 -0.3657,-2.0251l-0.3555,-0.0688h-0.435c-0.5528,0 -1.3929,-0.0298 -2.5288,-0.0794c0.089,0.2079 0.3854,1.2943 0.8694,3.2602zM51.8892,83.9387h0.0591c0.83,-0.5432 1.2447,-0.8988 1.2447,-1.0667l0.1285,-1.057c-0.1583,0 -0.8497,-0.0592 -2.0645,-0.1876c0,0.0692 0.2073,0.8395 0.6322,2.3113z" fill="#000000" stroke="#dbf1ff" stroke-width="4.55184"/><path d="M82.8963,72.4701c-0.484,1.8672 -0.8097,2.7958 -0.9579,2.7958c-2.0448,-0.1386 -3.0624,-0.2766 -3.0624,-0.4051v-2.8646c0.0197,-0.089 0.0693,-0.1381 0.1386,-0.1381zM101.8228,72.4701c-0.484,1.8672 -0.8097,2.7958 -0.9579,2.7958c-2.0448,-0.1386 -3.0623,-0.2766 -3.0623,-0.4051v-2.8646c0.0197,-0.089 0.0692,-0.1381 0.138,-0.1381zM35.2542,72.9743l0.5139,7.507h0.0591l2.6968,-2.8252c1.5906,2.1439 2.4003,3.2106 2.4397,3.2106c0.6818,-3.3486 1.1163,-5.3636 1.2842,-6.0357c2.9142,0.5634 4.3662,0.8992 4.3662,1.0277c-1.7484,5.5613 -2.7559,8.7122 -3.0128,9.4435c-0.6221,0.0395 -1.9856,0.1679 -4.1093,0.3849c-0.9382,-2.2522 -1.4126,-3.4078 -1.4126,-3.467c-0.0789,0.0096 -0.573,0.9878 -1.4819,2.9536h-0.0592c-2.8251,-0.1876 -4.2377,-0.3656 -4.2377,-0.5138c-1.5901,-7.0038 -2.3806,-10.5992 -2.3806,-10.7869v-0.1284c0,-0.1285 1.7585,-0.4345 5.2649,-0.8988zM62.765,72.905c0.0885,0 0.3455,4.04 0.7804,12.1302c-0.3358,0.089 -1.5117,0.3065 -3.5165,0.6519c-0.0992,0 -0.4249,-2.4792 -0.9782,-7.4281c-0.0495,-0.1189 -0.2862,-1.9264 -0.7212,-5.4132c2.0155,0.0395 3.4968,0.0592 4.4355,0.0592zM55.0699,76.8166c1.541,1.3235 2.3113,2.0351 2.3113,2.1237c-0.6221,1.9562 -0.9776,3.1412 -1.0666,3.5661c0.6221,1.3928 0.9776,2.2228 1.0666,2.4893c0,0.0789 -1.0176,0.2863 -3.0624,0.6322c-0.0293,-0.1087 -0.2169,-0.3656 -0.5629,-0.7505c-2.815,0.5432 -4.3364,0.8097 -4.5538,0.8097l-1.5011,-4.0597l3.3087,-1.7485c0.5335,0.0891 1.3635,0.1285 2.4994,0.1285c0,-0.1482 0.0197,-0.5831 0.0592,-1.314c-0.1876,0 -1.8966,0.1285 -5.1168,0.3753l-0.0592,-0.1284c0.4446,-2.0843 0.7208,-3.1211 0.8098,-3.1211c3.912,0.5432 5.8678,0.8689 5.8678,0.9974zM70.0551,75.9472l-1.3337,7.073h0.0693l3.3976,-0.9978v-4.0006c0.0102,-0.089 0.0597,-0.1381 0.1285,-0.1381c2.5586,0.1775 3.9808,0.2666 4.2676,0.2666c0,0.0495 0.0197,0.0692 0.0693,0.0692c0,1.1259 -0.3561,3.4574 -1.0672,7.0033c0,0.2074 -1.017,0.3556 -3.0618,0.4643c-0.1088,-0.1285 -0.1978,-0.395 -0.2671,-0.8001c-2.6178,0.5336 -4.1093,0.8001 -4.4744,0.8001c-2.0848,-1.5507 -3.1317,-2.3508 -3.1317,-2.4003c0.3556,-4.6723 0.5826,-7.0923 0.6717,-7.2703h0.0591c1.6695,-0.0491 3.201,-0.1088 4.6035,-0.1973zM94.7897,76.2142c0.4841,7.29 0.7213,11.1722 0.7213,11.6365c-2.1237,1.3529 -3.6354,2.2618 -4.5539,2.7458c-3.2303,-1.0171 -4.8401,-1.5901 -4.8401,-1.7383c1.0368,-1.5213 1.6396,-2.2916 1.8076,-2.3118c1.758,0.8694 2.766,1.3043 3.0325,1.3043l0.9382,-1.235c-0.2468,-1.0176 -0.4147,-1.62 -0.5038,-1.8076c-0.1481,0 -1.9259,0.2862 -5.3539,0.8694c-1.8769,-3.0523 -2.8151,-4.6131 -2.8151,-4.6925c1.62,-2.5879 2.6077,-4.1093 2.9633,-4.5538h0.0692c0.1877,0 1.6104,0.3161 4.2671,0.9387v-0.2175c0,-0.2569 -0.0197,-0.6717 -0.0687,-1.2346l0.138,-0.0693c2.7959,0.0693 4.1983,0.1978 4.1983,0.3657zM77.9869,76.5596c3.0032,0.5437 4.5048,0.8694 4.5048,0.9585c-0.8598,4.8896 -1.3833,7.6061 -1.5709,8.169h-3.1312c-0.089,0 -0.1385,-0.0491 -0.1385,-0.1381l0.2766,-8.9894zM96.9134,76.5596c3.0032,0.5437 4.5043,0.8694 4.5043,0.9585c-0.8593,4.8896 -1.3827,7.6061 -1.5704,8.169h-3.1311c-0.089,0 -0.1386,-0.0491 -0.1386,-0.1381l0.2767,-8.9894zM88.359,83.2969c0.6125,-0.1978 1.5512,-0.5634 2.8156,-1.0869c-0.2473,-1.185 -0.3657,-1.8572 -0.3657,-2.0251l-0.3555,-0.0688h-0.435c-0.5528,0 -1.3929,-0.0298 -2.5288,-0.0794c0.089,0.2079 0.3854,1.2943 0.8694,3.2602zM51.8892,83.9387h0.0591c0.83,-0.5432 1.2447,-0.8988 1.2447,-1.0667l0.1285,-1.057c-0.1583,0 -0.8497,-0.0592 -2.0645,-0.1876c0,0.0692 0.2073,0.8395 0.6322,2.3113z" fill="url(#color-2)" stroke="none" stroke-width="0.50576"/></g></g></g></svg>