<svg version="1.1" xmlns="http://www.w3.org/2000/svg" xmlns:xlink="http://www.w3.org/1999/xlink" width="564.23147" height="305.00468" viewBox="0,0,564.23147,305.00468"><defs><linearGradient x1="25.57972" y1="25.99701" x2="25.57972" y2="324.99401" gradientUnits="userSpaceOnUse" id="color-1"><stop offset="0" stop-color="#ff796b"/><stop offset="1" stop-color="#ff4040"/></linearGradient><linearGradient x1="281.73354" y1="264.07367" x2="311.39284" y2="264.07367" gradientUnits="userSpaceOnUse" id="color-2"><stop offset="0" stop-color="#d6dde2"/><stop offset="1" stop-color="#d6dde2" stop-opacity="0"/></linearGradient><linearGradient x1="186.06758" y1="64.04087" x2="186.06758" y2="200.36788" gradientUnits="userSpaceOnUse" id="color-3"><stop offset="0" stop-color="#edf3f8"/><stop offset="1" stop-color="#cedee9"/></linearGradient><linearGradient x1="204.15467" y1="120.26812" x2="204.15467" y2="138.96142" gradientUnits="userSpaceOnUse" id="color-4"><stop offset="0" stop-color="#ff4040"/><stop offset="1" stop-color="#c33131"/></linearGradient><linearGradient x1="235.45861" y1="157.30762" x2="205.94947" y2="160.39736" gradientUnits="userSpaceOnUse" id="color-5"><stop offset="0" stop-color="#ffffff"/><stop offset="1" stop-color="#ffffff" stop-opacity="0"/></linearGradient><linearGradient x1="173.57665" y1="157.14253" x2="203.12529" y2="159.75594" gradientUnits="userSpaceOnUse" id="color-6"><stop offset="0" stop-color="#979797"/><stop offset="1" stop-color="#979797" stop-opacity="0"/></linearGradient><linearGradient x1="202.75843" y1="193.02114" x2="202.75843" y2="217.34728" gradientUnits="userSpaceOnUse" id="color-7"><stop offset="0" stop-color="#ff4040"/><stop offset="1" stop-color="#c33131"/></linearGradient><linearGradient x1="86.18896" y1="201.12985" x2="127.51815" y2="201.12985" gradientUnits="userSpaceOnUse" id="color-8"><stop offset="0" stop-color="#c33131"/><stop offset="1" stop-color="#ff4040"/></linearGradient><radialGradient cx="204.10256" cy="195.6476" r="25.83954" gradientUnits="userSpaceOnUse" id="color-9"><stop offset="0" stop-color="#65ceff"/><stop offset="1" stop-color="#3f99ff"/></radialGradient><linearGradient x1="94.79007" y1="263.61131" x2="124.44935" y2="263.61131" gradientUnits="userSpaceOnUse" id="color-10"><stop offset="0" stop-color="#d6dde2"/><stop offset="1" stop-color="#d6dde2" stop-opacity="0"/></linearGradient><linearGradient x1="175.67906" y1="265.13212" x2="205.33836" y2="265.13212" gradientUnits="userSpaceOnUse" id="color-11"><stop offset="0" stop-color="#d6dde2"/><stop offset="1" stop-color="#d6dde2" stop-opacity="0"/></linearGradient><linearGradient x1="12.64157" y1="193.88876" x2="12.64157" y2="217.53326" gradientUnits="userSpaceOnUse" id="color-12"><stop offset="0" stop-color="#ff4040"/><stop offset="1" stop-color="#c33131"/></linearGradient><linearGradient x1="-103.92792" y1="201.77024" x2="-62.59872" y2="201.77024" gradientUnits="userSpaceOnUse" id="color-13"><stop offset="0" stop-color="#c33131"/><stop offset="1" stop-color="#ff4040"/></linearGradient><linearGradient x1="-95.32681" y1="262.5009" x2="-65.66752" y2="262.5009" gradientUnits="userSpaceOnUse" id="color-14"><stop offset="0" stop-color="#d6dde2"/><stop offset="1" stop-color="#d6dde2" stop-opacity="0"/></linearGradient><linearGradient x1="203.95883" y1="30.30347" x2="203.95883" y2="66.84166" gradientUnits="userSpaceOnUse" id="color-15"><stop offset="0" stop-color="#ff4040"/><stop offset="1" stop-color="#c33131"/></linearGradient><linearGradient x1="33.09923" y1="304.29709" x2="33.09923" y2="325.02348" gradientUnits="userSpaceOnUse" id="color-16"><stop offset="0" stop-color="#8d5418"/><stop offset="1" stop-color="#a75d1c"/></linearGradient><linearGradient x1="38.35871" y1="287.17746" x2="38.35871" y2="323.07428" gradientUnits="userSpaceOnUse" id="color-17"><stop offset="0" stop-color="#7de75a"/><stop offset="1" stop-color="#62b446"/></linearGradient></defs><g transform="translate(257.15636,-22.98934)"><g data-paper-data="{&quot;isPaintingLayer&quot;:true}" fill-rule="nonzero" stroke-linejoin="miter" stroke-miterlimit="10" stroke-dasharray="" stroke-dashoffset="0" style="mix-blend-mode: normal"><path d="M302.76002,25.99701l-110.8863,298.997h-440.4743l-5.5,-298.00694z" fill="none" stroke="#801818" stroke-width="6" stroke-linecap="round"/><path d="M302.76002,25.99701l-110.8863,298.997h-439.4743l-4,-298.00694z" fill="url(#color-1)" stroke="#000000" stroke-width="0" stroke-linecap="round"/><path d="" data-paper-data="{&quot;origPos&quot;:null}" fill="url(#color-2)" stroke="none" stroke-width="0" stroke-linecap="butt"/><g><path d="M-14.6305,306.25222l-0.31205,-0.27687" fill="none" stroke="#cccccc" stroke-width="2" stroke-linecap="round"/><path d="M111.2321,285.02557l-0.31205,-0.27687" fill="none" stroke="#cccccc" stroke-width="2" stroke-linecap="round"/><path d="M184.04519,252.72418l-0.31205,-0.27687" fill="none" stroke="#cccccc" stroke-width="2" stroke-linecap="round"/><path d="" fill="none" stroke="#cccccc" stroke-width="2" stroke-linecap="round"/><path d="M115.0808,242.29544l0.31205,0.27687" fill="none" stroke="#cccccc" stroke-width="2" stroke-linecap="round"/><path d="M186.06758,64.04087h36.28851v136.32699h-36.28851z" data-paper-data="{&quot;origPos&quot;:null}" fill="url(#color-3)" stroke="none" stroke-width="1.11058" stroke-linecap="butt"/><path d="M174.6389,120.26812h59.03154v18.6933h-59.03154z" data-paper-data="{&quot;origPos&quot;:null}" fill="url(#color-4)" stroke="none" stroke-width="1.06271" stroke-linecap="butt"/><g data-paper-data="{&quot;origPos&quot;:null,&quot;origRot&quot;:0}" stroke="none"><path d="M238.57688,191.95661l-67.817,-0.84528l4.65386,-53.35457l13.44196,-12.87069l32.34654,0.00714l12.35734,12.45426z" data-paper-data="{&quot;origPos&quot;:null}" fill="#ebf2f7" stroke-width="2.16315" stroke-linecap="round"/><path d="M210.5133,206.85336l-8.06277,-82.07253l18.69042,0.19442l12.62862,12.75352l5.13095,54.18676l-4.21721,12.40711z" data-paper-data="{&quot;origPos&quot;:null,&quot;index&quot;:null,&quot;origRot&quot;:0}" fill="url(#color-5)" stroke-width="0" stroke-linecap="butt"/><path d="M169.65729,203.66694l5.53945,-65.75557l13.60574,-13.03485l17.29543,-0.21021l-6.89196,81.6141z" data-paper-data="{&quot;origPos&quot;:null,&quot;origRot&quot;:0}" fill="url(#color-6)" stroke-width="0" stroke-linecap="butt"/></g><path d="M112.68203,206.53563l39.20973,-13.51449h26.49307h52.98617l8.87649,0.34987l-8.99749,23.97625h-124.92634z" data-paper-data="{&quot;origPos&quot;:null}" fill="url(#color-7)" stroke="none" stroke-width="2.16315" stroke-linecap="round"/><path d="M86.70515,217.34728h144.79485l-36.25,97.30448h-108.54485z" data-paper-data="{&quot;origPos&quot;:null}" fill="#ebf2f7" stroke="none" stroke-width="9.46438" stroke-linecap="butt"/><path d="M86.18896,217.34728l20.13472,-32.43485l21.19449,32.43485z" data-paper-data="{&quot;origPos&quot;:null}" fill="url(#color-8)" stroke="none" stroke-width="2.16315" stroke-linecap="round"/><path d="M185.43607,148.85h42.38889l12.10972,46.58947l-2.29146,5.66666h-71.28217z" data-paper-data="{&quot;origPos&quot;:null}" fill="#ff4040" stroke="none" stroke-width="2.16315" stroke-linecap="round"/><path d="M175.00058,182.87473l29.14242,-22.71348l29.14238,22.71348v29.57527l-6.08383,16.72531h-52.20095z" data-paper-data="{&quot;origPos&quot;:null}" fill="#d6dde2" stroke="none" stroke-width="2.65368" stroke-linecap="round"/><path d="M180.62228,186.4008l23.81732,-17.3377l23.14324,17.3377v35.83123h-46.96055z" data-paper-data="{&quot;origPos&quot;:null}" fill="url(#color-9)" stroke="none" stroke-width="1" stroke-linecap="round"/><path d="M94.79007,310.30753v-93.39238h29.6593v93.39238z" data-paper-data="{&quot;origPos&quot;:null}" fill="url(#color-10)" stroke="none" stroke-width="0" stroke-linecap="butt"/><path d="M175.67906,301.32833v-72.39238h29.6593v72.39238z" data-paper-data="{&quot;origPos&quot;:null}" fill="url(#color-11)" stroke="none" stroke-width="0" stroke-linecap="butt"/><g data-paper-data="{&quot;origPos&quot;:null}" fill="#99ffff" stroke="#84c3c3" stroke-width="2" stroke-linecap="butt"><path d="M98.38513,243.03727h7.19012v7.39741h-7.19012z"/><path d="M108.04687,243.03727h7.19012v7.39741h-7.19012z"/><path d="M107.82218,253.20872h7.19013v7.39742h-7.19013z"/><path d="M98.38513,253.20872h7.19012v7.39742h-7.19012z"/></g><g data-paper-data="{&quot;origPos&quot;:null}" stroke="none" stroke-linecap="butt"><path d="M115.4617,232.64573h12.58274v89.69369h-12.58273z" data-paper-data="{&quot;origPos&quot;:null}" fill="#aa5e35" stroke-width="2.1101"/><path d="M121.75305,216.91516c4.95939,0 9.45323,2.0722 12.70721,5.41999c3.25399,3.34779 5.26812,7.97117 5.26812,13.07354c0,5.10237 -2.01413,9.72576 -5.26812,13.07354c-3.25399,3.34779 -7.74782,5.42001 -12.70721,5.42001c-4.95939,0 -9.45323,-2.07221 -12.70721,-5.41999c-3.25399,-3.34779 -5.26812,-7.97117 -5.26812,-13.07354c0,-5.10237 2.01413,-9.72576 5.26812,-13.07354c3.25399,-3.34779 7.74783,-5.41999 12.70721,-5.41999z" data-paper-data="{&quot;origPos&quot;:null}" fill="#3abc3a" stroke-width="1"/><path d="M121.75305,199.34631c4.09118,0 7.7986,1.70973 10.48322,4.47174c2.68462,2.76201 4.34643,6.5763 4.34643,10.78543c0,4.20913 -1.66181,8.02342 -4.34643,10.78543c-2.68462,2.76201 -6.39203,4.47174 -10.48322,4.47174c-4.09118,0 -7.7986,-1.70972 -10.48321,-4.47174c-2.68461,-2.76201 -4.34644,-6.5763 -4.34644,-10.78543c0,-4.20913 1.66183,-8.02342 4.34644,-10.78543c2.68461,-2.76201 6.39203,-4.47174 10.48321,-4.47174z" data-paper-data="{&quot;origPos&quot;:null}" fill="#3ec73d" stroke-width="1"/><path d="M121.97774,187.32551c2.41768,0 4.60844,1.01022 6.19476,2.64227c1.58632,1.63206 2.56823,3.88595 2.56823,6.37333c0,2.48738 -0.98191,4.74129 -2.56823,6.37334c-1.58632,1.63206 -3.77707,2.64226 -6.19476,2.64226c-2.41768,0 -4.60843,-1.01021 -6.19475,-2.64226c-1.58632,-1.63206 -2.56822,-3.88596 -2.56822,-6.37334c0,-2.48738 0.9819,-4.74128 2.56822,-6.37333c1.58632,-1.63206 3.77706,-2.64227 6.19475,-2.64227z" data-paper-data="{&quot;origPos&quot;:null}" fill="#42d642" stroke-width="1"/></g><g data-paper-data="{&quot;origPos&quot;:null}" fill="#99ffff" stroke="#84c3c3" stroke-width="2" stroke-linecap="butt"><path d="M143.32345,254.59577h7.19013v7.39741h-7.19013z"/><path d="M152.98519,254.59577h7.19013v7.39741h-7.19013z"/><path d="M152.7605,264.76717h7.19013v7.39741h-7.19013z"/><path d="M143.32345,264.76717h7.19013v7.39741h-7.19013z"/></g><g data-paper-data="{&quot;origPos&quot;:null}" fill="#99ffff" stroke="#84c3c3" stroke-width="2" stroke-linecap="butt"><path d="M143.32345,227.31776h7.19013v7.39741h-7.19013z"/><path d="M152.98519,227.31776h7.19013v7.39741h-7.19013z"/><path d="M152.7605,237.48921h7.19013v7.39741h-7.19013z"/><path d="M143.32345,237.48921h7.19013v7.39741h-7.19013z"/></g><path d="M-77.43485,207.02451l39.20973,-13.13578h26.49307h52.98616l25.43334,0.87571l38.15004,11.38436l4.23885,11.38441h-192.86956z" data-paper-data="{&quot;origPos&quot;:null}" fill="url(#color-12)" stroke="none" stroke-width="2.16315" stroke-linecap="round"/><path d="M-103.41171,217.53326h197.93212v94.57789h-197.93212z" data-paper-data="{&quot;origPos&quot;:null}" fill="#ebf2f7" stroke="none" stroke-width="9.46438" stroke-linecap="butt"/><path d="M-103.92792,217.53326l20.13472,-31.52599l21.19449,31.52599z" data-paper-data="{&quot;origPos&quot;:null}" fill="url(#color-13)" stroke="none" stroke-width="2.16315" stroke-linecap="round"/><path d="M-95.32681,307.88865v-90.77542h29.6593v90.77542z" data-paper-data="{&quot;origPos&quot;:null}" fill="url(#color-14)" stroke="none" stroke-width="0" stroke-linecap="butt"/><g data-paper-data="{&quot;origPos&quot;:null}" fill="#99ffff" stroke="#84c3c3" stroke-width="2" stroke-linecap="butt"><path d="M-91.73176,242.5034h7.19014v7.19013h-7.19014z"/><path d="M-82.07002,242.5034h7.19013v7.19013h-7.19013z"/><path d="M-82.2947,252.3898h7.19013v7.19013h-7.19013z"/><path d="M-91.73176,252.3898h7.19014v7.19013h-7.19014z"/></g><g data-paper-data="{&quot;origPos&quot;:null}" stroke="none" stroke-linecap="butt"><path d="M1.74274,233.04752h12.58273v85.38283h-12.58273z" data-paper-data="{&quot;origPos&quot;:null}" fill="#aa5e35" stroke-width="2.07153"/><path d="M8.03411,217.36206c4.95939,0 9.45323,2.01413 12.70721,5.26812c3.25398,3.25399 5.26812,7.74783 5.26812,12.70721c0,4.95939 -2.01414,9.45323 -5.26812,12.70722c-3.25398,3.25399 -7.74782,5.26812 -12.7072,5.26812c-4.95939,0 -9.45323,-2.01413 -12.70721,-5.26812c-3.25398,-3.25399 -5.26812,-7.74783 -5.26812,-12.70722c0,-4.95939 2.01414,-9.45323 5.26812,-12.70721c3.25398,-3.25399 7.74782,-5.26812 12.70721,-5.26812z" data-paper-data="{&quot;origPos&quot;:null}" fill="#3abc3a" stroke-width="1"/><path d="M8.03411,200.28549c4.09119,0 7.79861,1.66183 10.48322,4.34644c2.68462,2.68462 4.34643,6.39203 4.34643,10.48322c0,4.09118 -1.66181,7.7986 -4.34643,10.48321c-2.68462,2.68462 -6.39203,4.34643 -10.48322,4.34643c-4.09119,0 -7.7986,-1.66182 -10.48321,-4.34643c-2.68462,-2.68462 -4.34644,-6.39203 -4.34644,-10.48321c0,-4.09118 1.66182,-7.7986 4.34644,-10.48322c2.68462,-2.68462 6.39203,-4.34644 10.48321,-4.34644z" data-paper-data="{&quot;origPos&quot;:null}" fill="#3ec73d" stroke-width="1"/><path d="M8.25879,188.60152c2.41767,0 4.60844,0.98191 6.19476,2.56823c1.58632,1.58632 2.56823,3.77706 2.56823,6.19474c0,2.41768 -0.98191,4.60844 -2.56823,6.19476c-1.58632,1.58632 -3.77707,2.56822 -6.19476,2.56822c-2.41767,0 -4.60843,-0.9819 -6.19475,-2.56822c-1.58632,-1.58632 -2.56822,-3.77707 -2.56822,-6.19476c0,-2.41768 0.9819,-4.60842 2.56822,-6.19474c1.58632,-1.58632 3.77707,-2.56823 6.19475,-2.56823z" data-paper-data="{&quot;origPos&quot;:null}" fill="#42d642" stroke-width="1"/></g><g data-paper-data="{&quot;origPos&quot;:null}" fill="#99ffff" stroke="#84c3c3" stroke-width="2" stroke-linecap="butt"><path d="M-46.79342,253.73795h7.19013v7.19014h-7.19013z"/><path d="M-37.13168,253.73795h7.19014v7.19014h-7.19014z"/><path d="M-37.35637,263.62437h7.19013v7.19013h-7.19013z"/><path d="M-46.79342,263.62437h7.19013v7.19013h-7.19013z"/></g><g data-paper-data="{&quot;origPos&quot;:null}" fill="#99ffff" stroke="#84c3c3" stroke-width="2" stroke-linecap="butt"><path d="M47.35238,254.8614h7.19013v7.19013h-7.19013z"/><path d="M57.01413,254.8614h7.19013v7.19013h-7.19013z"/><path d="M56.78943,264.74782h7.19014v7.19013h-7.19014z"/><path d="M47.35238,264.74782h7.19013v7.19013h-7.19013z"/></g><g data-paper-data="{&quot;origPos&quot;:null}" fill="#99ffff" stroke="#84c3c3" stroke-width="2" stroke-linecap="butt"><path d="M-46.79342,227.22435h7.19013v7.19013h-7.19013z"/><path d="M-37.13168,227.22435h7.19014v7.19013h-7.19014z"/><path d="M-37.35637,237.1108h7.19013v7.19013h-7.19013z"/><path d="M-46.79342,237.1108h7.19013v7.19013h-7.19013z"/></g><g data-paper-data="{&quot;origPos&quot;:null}" fill="#99ffff" stroke="#84c3c3" stroke-width="2" stroke-linecap="butt"><path d="M47.35238,228.3478h7.19013v7.19013h-7.19013z"/><path d="M57.01413,228.3478h7.19013v7.19013h-7.19013z"/><path d="M56.78943,238.23425h7.19014v7.19013h-7.19014z"/><path d="M47.35238,238.23425h7.19013v7.19013h-7.19013z"/></g><g data-paper-data="{&quot;origPos&quot;:null}" stroke="none" stroke-linecap="butt"><path d="M59.88528,233.97042h12.58273v85.38282h-12.58273z" data-paper-data="{&quot;origPos&quot;:null}" fill="#aa5e35" stroke-width="2.07153"/><path d="M66.17663,218.28496c4.95939,0 9.45323,2.01413 12.70721,5.26812c3.25398,3.25399 5.26812,7.74782 5.26812,12.70721c0,4.95939 -2.01414,9.45323 -5.26812,12.70722c-3.25398,3.25399 -7.74782,5.26812 -12.70721,5.26812c-4.95939,0 -9.45323,-2.01413 -12.70721,-5.26812c-3.25398,-3.25399 -5.26812,-7.74783 -5.26812,-12.70722c0,-4.95939 2.01414,-9.45323 5.26812,-12.70721c3.25398,-3.25399 7.74782,-5.26812 12.70721,-5.26812z" data-paper-data="{&quot;origPos&quot;:null}" fill="#3abc3a" stroke-width="1"/><path d="M66.17663,201.20839c4.09118,0 7.7986,1.66182 10.48322,4.34643c2.68461,2.68462 4.34643,6.39204 4.34643,10.48322c0,4.09118 -1.66182,7.79859 -4.34643,10.48321c-2.68461,2.68462 -6.39203,4.34644 -10.48322,4.34644c-4.09119,0 -7.79859,-1.66183 -10.48321,-4.34644c-2.68462,-2.68462 -4.34645,-6.39202 -4.34645,-10.48321c0,-4.09118 1.66183,-7.79861 4.34645,-10.48322c2.68462,-2.68462 6.39202,-4.34643 10.48321,-4.34643z" data-paper-data="{&quot;origPos&quot;:null}" fill="#3ec73d" stroke-width="1"/><path d="M66.40134,189.52441c2.41768,0 4.60844,0.98191 6.19476,2.56823c1.58632,1.58632 2.56822,3.77706 2.56822,6.19475c0,2.41768 -0.9819,4.60843 -2.56822,6.19475c-1.58632,1.58632 -3.77707,2.56822 -6.19476,2.56822c-2.41768,0 -4.60843,-0.9819 -6.19476,-2.56822c-1.58632,-1.58632 -2.56822,-3.77707 -2.56822,-6.19475c0,-2.41768 0.98191,-4.60843 2.56822,-6.19475c1.58632,-1.58632 3.77707,-2.56823 6.19476,-2.56823z" data-paper-data="{&quot;origPos&quot;:null}" fill="#42d642" stroke-width="1"/></g><path d="M184.16728,66.84166l19.28403,-36.53818l20.29908,36.53819z" data-paper-data="{&quot;origPos&quot;:null}" fill="url(#color-15)" stroke="none" stroke-width="1.06271" stroke-linecap="round"/><path d="M189.64495,234.72545h28.71117v13.42341h-28.71117z" data-paper-data="{&quot;origPos&quot;:null}" fill="#c95206" stroke="none" stroke-width="1" stroke-linecap="butt"/><path d="M180.16971,246.55387h40.45534l-16.75,45.57428h-23.70534z" data-paper-data="{&quot;origPos&quot;:null}" fill="#c95206" stroke="none" stroke-width="1" stroke-linecap="butt"/><path d="M180.16971,246.64085l9.74107,-12.00239v12.00239z" data-paper-data="{&quot;origPos&quot;:null}" fill="#c95206" stroke="none" stroke-width="1" stroke-linecap="round"/><path d="M218.09028,234.81242l5.04409,5.50997l-2.67237,6.31846h-2.37172z" data-paper-data="{&quot;origPos&quot;:null}" fill="#c95206" stroke="none" stroke-width="1" stroke-linecap="round"/><g data-paper-data="{&quot;origPos&quot;:null}" fill="#dd7821" stroke="none" stroke-width="1" stroke-linecap="butt"><path d="M190.00643,239.03933c0.41991,0 0.80051,0.17048 1.07604,0.44601c0.27553,0.27553 0.446,0.65613 0.446,1.07604c0,0.41991 -0.17047,0.80051 -0.446,1.07604c-0.27553,0.27553 -0.65614,0.446 -1.07604,0.446c-0.41991,0 -0.8005,-0.17047 -1.07603,-0.446c-0.27553,-0.27553 -0.446,-0.65613 -0.446,-1.07604c0,-0.41991 0.17047,-0.80052 0.446,-1.07604c0.27553,-0.27553 0.65612,-0.44601 1.07603,-0.44601z" data-paper-data="{&quot;origPos&quot;:null}"/><path d="M199.19673,235.85611c0.41991,0 0.8005,0.17047 1.07603,0.446c0.27553,0.27553 0.44601,0.65613 0.44601,1.07604c0,0.41991 -0.17048,0.80052 -0.44601,1.07604c-0.27553,0.27553 -0.65613,0.446 -1.07603,0.446c-0.41991,0 -0.8005,-0.17047 -1.07603,-0.446c-0.27553,-0.27553 -0.44601,-0.65613 -0.44601,-1.07604c0,-0.41991 0.17048,-0.80051 0.44601,-1.07604c0.27553,-0.27553 0.65613,-0.446 1.07603,-0.446z" data-paper-data="{&quot;origPos&quot;:null}"/><g data-paper-data="{&quot;origPos&quot;:null}"><path d="M199.27786,246.92676c0.41991,0 0.80051,0.17047 1.07604,0.446c0.27553,0.27553 0.446,0.65613 0.446,1.07603c0,0.41991 -0.17047,0.80051 -0.446,1.07604c-0.27553,0.27553 -0.65613,0.446 -1.07604,0.446c-0.41991,0 -0.8005,-0.17047 -1.07603,-0.446c-0.27553,-0.27553 -0.44601,-0.65614 -0.44601,-1.07604c0,-0.41991 0.17048,-0.80051 0.44601,-1.07603c0.27553,-0.27553 0.65613,-0.446 1.07603,-0.446z" data-paper-data="{&quot;origPos&quot;:null}"/><path d="M199.25458,257.51793c0.41991,0 0.80051,0.17048 1.07604,0.44601c0.27553,0.27553 0.446,0.65612 0.446,1.07603c0,0.41991 -0.17047,0.80052 -0.446,1.07605c-0.27553,0.27553 -0.65613,0.446 -1.07604,0.446c-0.41991,0 -0.8005,-0.17047 -1.07603,-0.446c-0.27553,-0.27553 -0.44601,-0.65614 -0.44601,-1.07605c0,-0.41991 0.17048,-0.80052 0.44601,-1.07603c0.27553,-0.27553 0.65613,-0.44601 1.07603,-0.44601z" data-paper-data="{&quot;origPos&quot;:null}"/><path d="M199.09631,268.12333c0.41991,0 0.80052,0.17048 1.07605,0.44601c0.27553,0.27553 0.446,0.65612 0.446,1.07603c0,0.41991 -0.17047,0.80051 -0.446,1.07603c-0.27553,0.27553 -0.65614,0.44601 -1.07605,0.44601c-0.41991,0 -0.80051,-0.17048 -1.07604,-0.44601c-0.27553,-0.27553 -0.446,-0.65612 -0.446,-1.07603c0,-0.41991 0.17047,-0.80052 0.446,-1.07603c0.27553,-0.27553 0.65613,-0.44601 1.07604,-0.44601z" data-paper-data="{&quot;origPos&quot;:null}"/><path d="M199.10689,278.26718c0.41991,0 0.80051,0.17047 1.07604,0.446c0.27553,0.27553 0.446,0.65613 0.446,1.07604c0,0.41991 -0.17047,0.80052 -0.446,1.07603c-0.27553,0.27553 -0.65614,0.44601 -1.07604,0.44601c-0.41991,0 -0.8005,-0.17048 -1.07603,-0.44601c-0.27553,-0.27553 -0.446,-0.65612 -0.446,-1.07603c0,-0.41991 0.17047,-0.80051 0.446,-1.07604c0.27553,-0.27553 0.65612,-0.446 1.07603,-0.446z" data-paper-data="{&quot;origPos&quot;:null}"/><path d="M199.07701,287.98817c0.41991,0 0.80051,0.17047 1.07604,0.446c0.27553,0.27553 0.446,0.65614 0.446,1.07605c0,0.41991 -0.17047,0.80051 -0.446,1.07604c-0.27553,0.27553 -0.65613,0.446 -1.07604,0.446c-0.41991,0 -0.80051,-0.17047 -1.07604,-0.446c-0.27553,-0.27553 -0.446,-0.65613 -0.446,-1.07604c0,-0.41991 0.17047,-0.80052 0.446,-1.07605c0.27553,-0.27553 0.65613,-0.446 1.07604,-0.446z" data-paper-data="{&quot;origPos&quot;:null}"/></g><g data-paper-data="{&quot;origPos&quot;:null}"><path d="M183.69339,246.85799c0.41991,0 0.8005,0.17047 1.07603,0.446c0.27553,0.27553 0.446,0.65613 0.446,1.07604c0,0.41991 -0.17047,0.80052 -0.446,1.07604c-0.27553,0.27553 -0.65612,0.446 -1.07603,0.446c-0.41991,0 -0.80051,-0.17047 -1.07604,-0.446c-0.27553,-0.27553 -0.446,-0.65613 -0.446,-1.07604c0,-0.41991 0.17047,-0.80051 0.446,-1.07604c0.27553,-0.27553 0.65614,-0.446 1.07604,-0.446z" data-paper-data="{&quot;origPos&quot;:null}"/><path d="M183.67009,257.44917c0.41991,0 0.80051,0.17047 1.07604,0.446c0.27553,0.27553 0.446,0.65613 0.446,1.07604c0,0.41991 -0.17047,0.80052 -0.446,1.07605c-0.27553,0.27553 -0.65613,0.44599 -1.07604,0.44599c-0.41991,0 -0.80051,-0.17046 -1.07604,-0.44599c-0.27553,-0.27553 -0.446,-0.65614 -0.446,-1.07605c0,-0.41991 0.17047,-0.80051 0.446,-1.07604c0.27553,-0.27553 0.65614,-0.446 1.07604,-0.446z" data-paper-data="{&quot;origPos&quot;:null}"/><path d="M183.51182,268.05458c0.41991,0 0.8005,0.17047 1.07603,0.446c0.27553,0.27553 0.44601,0.65613 0.44601,1.07604c0,0.41991 -0.17048,0.80052 -0.44601,1.07605c-0.27553,0.27553 -0.65613,0.446 -1.07603,0.446c-0.41991,0 -0.8005,-0.17047 -1.07603,-0.446c-0.27553,-0.27553 -0.44601,-0.65614 -0.44601,-1.07605c0,-0.41991 0.17048,-0.80051 0.44601,-1.07604c0.27553,-0.27553 0.65612,-0.446 1.07603,-0.446z" data-paper-data="{&quot;origPos&quot;:null}"/><path d="M183.5224,278.19841c0.41991,0 0.80051,0.17047 1.07604,0.446c0.27553,0.27553 0.446,0.65613 0.446,1.07604c0,0.41991 -0.17047,0.80052 -0.446,1.07603c-0.27553,0.27553 -0.65613,0.446 -1.07604,0.446c-0.41991,0 -0.80051,-0.17047 -1.07604,-0.446c-0.27553,-0.27553 -0.446,-0.65612 -0.446,-1.07603c0,-0.41991 0.17047,-0.80052 0.446,-1.07604c0.27553,-0.27553 0.65613,-0.446 1.07604,-0.446z" data-paper-data="{&quot;origPos&quot;:null}"/><path d="M183.49252,287.91942c0.41991,0 0.80051,0.17048 1.07604,0.44601c0.27553,0.27553 0.446,0.65612 0.446,1.07603c0,0.41991 -0.17047,0.80051 -0.446,1.07603c-0.27553,0.27553 -0.65614,0.44601 -1.07604,0.44601c-0.41991,0 -0.80051,-0.17048 -1.07604,-0.44601c-0.27553,-0.27553 -0.446,-0.65612 -0.446,-1.07603c0,-0.41991 0.17047,-0.80052 0.446,-1.07603c0.27553,-0.27553 0.65614,-0.44601 1.07604,-0.44601z" data-paper-data="{&quot;origPos&quot;:null}"/></g><path d="M191.57197,287.91861c0.41991,0 0.8005,0.17048 1.07603,0.44601c0.27553,0.27553 0.44601,0.65612 0.44601,1.07603c0,0.41991 -0.17048,0.80051 -0.44601,1.07604c-0.27553,0.27553 -0.65613,0.446 -1.07603,0.446c-0.41991,0 -0.80051,-0.17047 -1.07604,-0.446c-0.27553,-0.27553 -0.446,-0.65613 -0.446,-1.07604c0,-0.41991 0.17047,-0.80052 0.446,-1.07603c0.27553,-0.27553 0.65614,-0.44601 1.07604,-0.44601z" data-paper-data="{&quot;origPos&quot;:null}"/></g><path d="M219.93211,239.48534c0.27553,0.27553 0.446,0.65613 0.446,1.07604c0,0.41991 -0.17047,0.80051 -0.446,1.07604c-0.27553,0.27553 -0.65613,0.446 -1.07604,0.446c-0.41991,0 -0.80051,-0.17047 -1.07604,-0.446c-0.27553,-0.27553 -0.446,-0.65613 -0.446,-1.07604c0,-0.41991 0.17047,-0.80052 0.446,-1.07604c0.27553,-0.27553 0.65613,-0.44601 1.07604,-0.44601c0.41991,0 0.80051,0.17048 1.07604,0.44601z" data-paper-data="{&quot;origPos&quot;:null}" fill="#dd7821" stroke="none" stroke-width="1" stroke-linecap="butt"/><path d="M210.7418,236.3021c0.27553,0.27553 0.44601,0.65614 0.44601,1.07604c0,0.41991 -0.17048,0.80051 -0.44601,1.07603c-0.27553,0.27553 -0.65613,0.446 -1.07604,0.446c-0.41991,0 -0.8005,-0.17047 -1.07603,-0.446c-0.27553,-0.27553 -0.44601,-0.65612 -0.44601,-1.07603c0,-0.41991 0.17048,-0.80051 0.44601,-1.07604c0.27553,-0.27553 0.65613,-0.446 1.07603,-0.446c0.41991,0 0.80051,0.17047 1.07604,0.446z" data-paper-data="{&quot;origPos&quot;:null}" fill="#dd7821" stroke="none" stroke-width="1" stroke-linecap="butt"/><g data-paper-data="{&quot;origPos&quot;:null}" fill="#dd7821" stroke="none" stroke-width="1" stroke-linecap="butt"><path d="M210.66071,247.37277c0.27553,0.27553 0.44601,0.65613 0.44601,1.07604c0,0.41991 -0.17048,0.80051 -0.44601,1.07604c-0.27553,0.27553 -0.65613,0.446 -1.07604,0.446c-0.41991,0 -0.8005,-0.17047 -1.07603,-0.446c-0.27553,-0.27553 -0.446,-0.65614 -0.446,-1.07604c0,-0.41991 0.17047,-0.80052 0.446,-1.07604c0.27553,-0.27553 0.65613,-0.446 1.07603,-0.446c0.41991,0 0.80051,0.17047 1.07604,0.446z" data-paper-data="{&quot;origPos&quot;:null}"/><path d="M210.68395,257.96392c0.27553,0.27553 0.44601,0.65612 0.44601,1.07603c0,0.41991 -0.17048,0.80052 -0.44601,1.07605c-0.27553,0.27553 -0.65612,0.446 -1.07603,0.446c-0.41991,0 -0.80051,-0.17047 -1.07604,-0.446c-0.27553,-0.27553 -0.446,-0.65614 -0.446,-1.07605c0,-0.41991 0.17047,-0.80051 0.446,-1.07603c0.27553,-0.27553 0.65614,-0.44601 1.07604,-0.44601c0.41991,0 0.8005,0.17048 1.07603,0.44601z" data-paper-data="{&quot;origPos&quot;:null}"/><path d="M210.84224,268.56934c0.27553,0.27553 0.446,0.65612 0.446,1.07603c0,0.41991 -0.17047,0.80051 -0.446,1.07603c-0.27553,0.27553 -0.65613,0.44601 -1.07603,0.44601c-0.41991,0 -0.80051,-0.17048 -1.07604,-0.44601c-0.27553,-0.27553 -0.44601,-0.65612 -0.44601,-1.07603c0,-0.41991 0.17048,-0.80052 0.44601,-1.07603c0.27553,-0.27553 0.65613,-0.44601 1.07604,-0.44601c0.41991,0 0.8005,0.17048 1.07603,0.44601z" data-paper-data="{&quot;origPos&quot;:null}"/></g><path d="M203.13079,234.74921h2.87014v50.90272l-2.87014,7.5z" data-paper-data="{&quot;origPos&quot;:null}" fill="#b03405" stroke="none" stroke-width="1.14943" stroke-linecap="round"/><path d="M194.25947,267.86244c0,-2.16154 1.75228,-3.91381 3.91381,-3.91381c2.16154,0 3.91383,1.75228 3.91383,3.91381c0,2.16154 -1.75228,3.91382 -3.91383,3.91382c-2.16154,0 -3.91381,-1.75228 -3.91381,-3.91382z" data-paper-data="{&quot;origPos&quot;:null}" fill="#ffd400" stroke="none" stroke-width="0" stroke-linecap="butt"/><path d="M207.13158,267.86244c0,-2.16154 1.75227,-3.91381 3.91381,-3.91381c1.25244,0 2.11748,0.33829 2.83387,1.25361c0.08141,0.10402 -2.41136,6.57403 -2.58387,6.57403c-2.16154,0 -4.16381,-1.75228 -4.16381,-3.91382z" data-paper-data="{&quot;origPos&quot;:null}" fill="#ffd400" stroke="none" stroke-width="0" stroke-linecap="butt"/><path d="M-126.0862,304.29709h326.03753l-7.66667,20.72641h-318.37086z" data-paper-data="{&quot;origPos&quot;:null}" fill="url(#color-16)" stroke="#763e13" stroke-width="0" stroke-linecap="butt"/><path d="M197.94924,309.59978c-3.88268,-1.11119 -8.60938,-1.7749 -14.86478,-1.63479c-26.35795,1.19003 -30.06431,15.44051 -56.29674,15.1034c-27.98132,-0.36237 -35.64045,-18.03171 -63.67992,-18.48837c-26.57852,-1.37061 -31.97655,13.70453 -58.75257,14.17352c-22.50208,0.38949 -32.46753,-6.14031 -51.99511,-13.55723c-3.24849,-1.23519 -38.96077,14.46621 -59.36806,12.46776c-18.56584,-1.81813 -22.23759,-21.30771 -20.34517,-23.07216c0.93539,-0.87214 63.0493,-5.18477 66.79267,-5.41885c78.56626,-4.91359 158.08863,0.73029 237.18464,1.23256c0,0 10.69464,-0.17219 27.89091,-0.33812" data-paper-data="{&quot;origPos&quot;:null}" fill="url(#color-17)" stroke="#006622" stroke-width="2" stroke-linecap="round"/></g><text transform="translate(-40.60057,99.49852) scale(3.60417,3.60417)" font-size="16.9333" xml:space="preserve" fill="#ffffff" fill-rule="nonzero" stroke="#801818" stroke-width="3" stroke-linecap="butt" stroke-linejoin="miter" stroke-miterlimit="10" stroke-dasharray="" stroke-dashoffset="0" font-family="&quot;New Super Mario Font U&quot;" font-weight="400" text-anchor="start" style="mix-blend-mode: normal"><tspan x="0" dy="0">New Game</tspan></text><text transform="translate(-40.60058,99.49851) scale(3.60417,3.60417)" font-size="16.9333" xml:space="preserve" fill="#ffffff" fill-rule="nonzero" stroke="none" stroke-width="1" stroke-linecap="butt" stroke-linejoin="miter" stroke-miterlimit="10" stroke-dasharray="" stroke-dashoffset="0" font-family="&quot;New Super Mario Font U&quot;" font-weight="400" text-anchor="start" style="mix-blend-mode: normal"><tspan x="0" dy="0">New Game</tspan></text></g></g></svg>