<svg version="1.1" xmlns="http://www.w3.org/2000/svg" xmlns:xlink="http://www.w3.org/1999/xlink" width="79.6524" height="57.35999" viewBox="0,0,79.6524,57.35999"><defs><linearGradient x1="240.02544" y1="163.80509" x2="240.02544" y2="167.44171" gradientUnits="userSpaceOnUse" id="color-1"><stop offset="0" stop-color="#f69635"/><stop offset="1" stop-color="#ff0000"/></linearGradient><linearGradient x1="239.97458" y1="153.85454" x2="239.97458" y2="156.68301" gradientUnits="userSpaceOnUse" id="color-2"><stop offset="0" stop-color="#ffffff"/><stop offset="1" stop-color="#ff0000"/></linearGradient><linearGradient x1="222.3189" y1="203.77284" x2="234.42748" y2="203.77284" gradientUnits="userSpaceOnUse" id="color-3"><stop offset="0" stop-color="#be6d2f"/><stop offset="1" stop-color="#8e4108"/></linearGradient><linearGradient x1="238.32336" y1="204.16539" x2="250.92109" y2="204.16539" gradientUnits="userSpaceOnUse" id="color-4"><stop offset="0" stop-color="#be6d2f"/><stop offset="1" stop-color="#8e4108"/></linearGradient><linearGradient x1="238.1562" y1="179.26214" x2="238.1562" y2="195.90186" gradientUnits="userSpaceOnUse" id="color-5"><stop offset="0" stop-color="#0052ef"/><stop offset="1" stop-color="#004bd6"/></linearGradient><linearGradient x1="237.38559" y1="156.51845" x2="234.03273" y2="161.14752" gradientUnits="userSpaceOnUse" id="color-6"><stop offset="0" stop-color="#bc041a"/><stop offset="1" stop-color="#880010"/></linearGradient><linearGradient x1="243.26868" y1="158.83415" x2="237.69583" y2="166.52821" gradientUnits="userSpaceOnUse" id="color-7"><stop offset="0" stop-color="#bc041a"/><stop offset="1" stop-color="#a90216"/></linearGradient></defs><g transform="translate(-200.17381,-152.05026)"><g data-paper-data="{&quot;isPaintingLayer&quot;:true}" fill="none" fill-rule="nonzero" stroke="none" stroke-width="none" stroke-linecap="none" stroke-linejoin="miter" stroke-miterlimit="10" stroke-dasharray="" stroke-dashoffset="0" font-family="none" font-weight="none" font-size="none" text-anchor="none" style="mix-blend-mode: normal"><g data-paper-data="{&quot;origPos&quot;:null,&quot;index&quot;:null,&quot;origRot&quot;:0}" stroke="none" stroke-width="0" stroke-linecap="butt"><path d="M231.54688,181.42486c-1.10287,1.36649 -3.27244,1.17629 -5.77472,-0.84326c-2.01262,-1.62434 -5.53914,-5.26129 -5.53914,-5.26129l3.35667,-4.06277c0,0 2.6802,1.54602 5.18249,3.56556c2.50229,2.01954 3.87756,5.23527 2.77469,6.60176z" data-paper-data="{&quot;origRot&quot;:0,&quot;origPos&quot;:null}" fill="#ff0021"/><g data-paper-data="{&quot;origPos&quot;:null}" fill="#ffffff"><path d="M213.89468,173.97976c-3.08678,-1.98781 -1.16369,-4.37549 0.45999,-7.34509c1.48794,-2.72134 6.13976,-2.97662 8.00407,-1.51044c2.56984,2.02101 0.15427,5.00773 -1.90222,7.32949c-2.05648,2.32176 -3.67962,3.38215 -6.56185,1.52605z" data-paper-data="{&quot;origRot&quot;:0,&quot;origPos&quot;:null}"/><path d="M218.2654,176.37613c-1.74104,-1.44455 -0.68108,-1.44402 2.18769,-4.8578c2.51826,-2.99669 2.83888,-3.54498 4.48756,-2.30724c1.47376,1.10641 -0.68508,2.84475 -2.27044,4.63937c-1.58537,1.79461 -3.38815,3.36919 -4.4048,2.52568z" data-paper-data="{&quot;origRot&quot;:0,&quot;origPos&quot;:null}"/></g></g><path d="M200.17381,163.95626v-7.47527h79.60157v7.47527h-5.84077c0.81257,-0.59079 1.34084,-1.54891 1.34084,-2.63042c0,-1.79493 -1.45507,-3.25 -3.25,-3.25c-1.79493,0 -3.25,1.45507 -3.25,3.25c0,1.08151 0.52827,2.03963 1.34084,2.63042h-8.69243c0.98607,-0.55806 1.65159,-1.61652 1.65159,-2.83042c0,-1.79493 -1.45507,-3.25 -3.25,-3.25c-1.79493,0 -3.25,1.45507 -3.25,3.25c0,1.2139 0.66552,2.27236 1.65159,2.83042h-9.80317c0.98607,-0.55806 1.65159,-1.61652 1.65159,-2.83042c0,-1.79493 -1.45507,-3.25 -3.25,-3.25c-1.79493,0 -3.25,1.45507 -3.25,3.25c0,1.2139 0.66552,2.27236 1.65159,2.83042h-10.40317c0.98607,-0.55806 1.65159,-1.61652 1.65159,-2.83042c0,-1.79493 -1.45507,-3.25 -3.25,-3.25c-1.79493,0 -3.25,1.45507 -3.25,3.25c0,1.2139 0.66552,2.27236 1.65159,2.83042h-10.9093c1.14794,-0.50146 1.9502,-1.64687 1.9502,-2.97966c0,-1.79493 -1.45507,-3.25 -3.25,-3.25c-1.79493,0 -3.25,1.45507 -3.25,3.25c0,1.33279 0.80225,2.47819 1.9502,2.97966h-10.3306c1.14794,-0.50146 1.9502,-1.64687 1.9502,-2.97966c0,-1.79493 -1.45507,-3.25 -3.25,-3.25c-1.79493,0 -3.25,1.45507 -3.25,3.25c0,1.33279 0.80226,2.47819 1.9502,2.97966z" data-paper-data="{&quot;origPos&quot;:null}" fill="#f69635" stroke="none" stroke-width="NaN" stroke-linecap="butt"/><path d="M200.22467,167.44171v-3.63662h4.66124c0.47276,0.26831 1.0194,0.42151 1.60182,0.42151c0.58243,0 1.12907,-0.1532 1.60183,-0.42151h9.72654c0.47276,0.26831 1.01941,0.42151 1.60183,0.42151c0.58243,0 1.12907,-0.1532 1.60183,-0.42151h10.36554c0.52318,0.36001 1.15705,0.57076 1.84014,0.57076c0.68309,0 1.31696,-0.21074 1.84014,-0.57076h9.91972c0.52318,0.36001 1.15705,0.57076 1.84014,0.57076c0.68309,0 1.31696,-0.21074 1.84014,-0.57076h9.31972c0.52318,0.36001 1.15705,0.57076 1.84014,0.57076c0.68309,0 1.31696,-0.21074 1.84014,-0.57076h8.25836c0.56662,0.48076 1.30019,0.77076 2.10149,0.77076c0.8013,0 1.53488,-0.28999 2.10149,-0.77076h5.69929v3.63662z" data-paper-data="{&quot;origPos&quot;:null}" fill="url(#color-1)" stroke="none" stroke-width="NaN" stroke-linecap="butt"/><path d="M200.17381,156.68301v-2.82849h79.60157v2.82849z" data-paper-data="{&quot;origPos&quot;:null}" fill="url(#color-2)" stroke="none" stroke-width="NaN" stroke-linecap="butt"/><path d="M210.93249,161.78473c0,1.78529 -1.44726,3.23255 -3.23255,3.23255c-0.91237,0 -1.73647,-0.37799 -2.32423,-0.98591c0.34691,0.12632 0.72142,0.19522 1.11202,0.19522c1.79493,0 3.25,-1.45507 3.25,-3.25c0,-0.85031 -0.32655,-1.62436 -0.86109,-2.20356c1.20343,0.47055 2.05585,1.64158 2.05585,3.01171z" data-paper-data="{&quot;origPos&quot;:null}" fill="#ff0000" stroke="none" stroke-width="0" stroke-linecap="butt"/><path d="M223.81184,161.73387c0,1.78529 -1.44726,3.23255 -3.23255,3.23255c-0.88683,0 -1.69026,-0.35712 -2.2743,-0.93539c0.34718,0.12653 0.722,0.19556 1.11295,0.19556c1.79493,0 3.25,-1.45507 3.25,-3.25c0,-0.87454 -0.34543,-1.6684 -0.90728,-2.25259c1.20097,0.47174 2.05118,1.64152 2.05118,3.00987z" data-paper-data="{&quot;origPos&quot;:null}" fill="#ff0000" stroke="none" stroke-width="0" stroke-linecap="butt"/><path d="M237.55017,161.73387c0,1.78529 -1.44726,3.23255 -3.23255,3.23255c-0.77907,0 -1.49377,-0.2756 -2.05192,-0.73463c0.30335,0.09363 0.62566,0.14404 0.95974,0.14404c1.79493,0 3.25,-1.45507 3.25,-3.25c0,-0.9797 -0.43349,-1.85815 -1.11912,-2.45401c1.27575,0.43262 2.19384,1.64012 2.19384,3.06205z" data-paper-data="{&quot;origPos&quot;:null}" fill="#ff0000" stroke="none" stroke-width="0" stroke-linecap="butt"/><path d="M251.03562,161.88506c0,1.78529 -1.44726,3.23255 -3.23255,3.23255c-0.95378,0 -1.81108,-0.41307 -2.40277,-1.07008c0.43031,0.21029 0.91394,0.32832 1.42514,0.32832c1.79493,0 3.25,-1.45507 3.25,-3.25c0,-0.80355 -0.29162,-1.53899 -0.7748,-2.10626c1.0313,0.54009 1.73498,1.6206 1.73498,2.86547z" data-paper-data="{&quot;origPos&quot;:null}" fill="#ff0000" stroke="none" stroke-width="0" stroke-linecap="butt"/><path d="M263.96582,161.88506c0,1.78529 -1.44726,3.23255 -3.23255,3.23255c-0.98527,0 -1.86758,-0.44079 -2.46049,-1.13594c0.46133,0.25135 0.99032,0.39417 1.55266,0.39417c1.79493,0 3.25,-1.45507 3.25,-3.25c0,-0.77034 -0.26801,-1.47808 -0.71588,-2.03506c0.96068,0.56033 1.60626,1.60191 1.60626,2.79427z" data-paper-data="{&quot;origPos&quot;:null}" fill="#ff0000" stroke="none" stroke-width="0" stroke-linecap="butt"/><path d="M276.84517,161.8342c0,1.78529 -1.44726,3.23255 -3.23255,3.23255c-0.63104,0 -1.21984,-0.18082 -1.71743,-0.49347c0.04321,0.0017 0.08663,0.00256 0.13026,0.00256c1.79493,0 3.25,-1.45507 3.25,-3.25c0,-1.137 -0.58387,-2.13764 -1.46814,-2.71843c1.69464,0.10067 3.03786,1.50686 3.03786,3.22678z" data-paper-data="{&quot;origPos&quot;:null}" fill="#ff0000" stroke="none" stroke-width="0" stroke-linecap="butt"/><g data-paper-data="{&quot;origPos&quot;:null,&quot;index&quot;:null,&quot;origRot&quot;:0}" stroke="none" stroke-width="0" stroke-linecap="butt"><path d="M227.73886,198.05722c1.829,-2.97147 3.67318,-7.63781 3.67318,-7.63781c0,0 1.84086,0.19604 3.34897,1.02286c1.51582,0.85199 2.93645,1.92752 2.93645,1.92752c0,0 -0.88433,4.15342 -1.76885,6.21719c-0.70746,1.65067 -0.97596,2.50965 -1.09194,3.21484c-0.32321,1.96525 0.58868,3.45107 -1.40184,3.51852c-2.92255,0.09903 -4.95427,-0.79025 -7.04616,-2.83357c-1.68874,-1.64953 -1.80052,-2.80839 -1.33593,-4.11496c0.11483,-0.32294 1.8949,-0.02917 2.6861,-1.31462z" data-paper-data="{&quot;origPos&quot;:null}" fill="#004bd6"/><path d="M222.16191,203.37415c0.60022,-1.10656 2.8549,-1.04454 5.03594,0.13852c1.58879,0.8618 4.90723,2.6595 5.9009,4.16932c0.23085,0.35076 -0.08776,0.91797 -0.26658,1.25557c-0.22525,0.42528 -1.56818,-0.5886 -1.56818,-0.5886c0,0 -0.8195,0.47519 -1.52375,0.49833c-2.26843,0.07451 -5.79266,-1.70572 -6.4012,-2.29053c-0.92857,-0.89236 -1.7912,-2.05057 -1.17716,-3.18261z" data-paper-data="{&quot;origPos&quot;:null}" fill="#f9c869"/><path d="M222.38603,201.65531c0.53008,-2.53613 3.46841,-2.97604 5.93411,-1.63858c1.14673,0.62201 2.44055,2.70686 3.43188,3.55488c1.53112,1.30979 1.3783,0.9948 2.60154,1.89995c0.33135,0.24518 -0.52466,1.78259 -1.11359,2.68996c-0.28454,0.43839 -2.01864,-0.62386 -2.01864,-0.62386c0,0 -3.41341,-0.00063 -5.87912,-1.3381c-2.46571,-1.33746 -3.27814,-3.00396 -2.9562,-4.54426z" data-paper-data="{&quot;origPos&quot;:null}" fill="url(#color-3)"/></g><g data-paper-data="{&quot;origPos&quot;:null,&quot;index&quot;:null,&quot;origRot&quot;:0}" stroke="none" stroke-width="0" stroke-linecap="butt"><path d="M239.61484,200.55369c-1.13134,-3.30076 -4.06226,-6.50746 -4.06226,-6.50746c0,0 1.64217,-1.60464 2.76334,-2.31788c1.42067,-0.90378 3.74981,-1.82556 3.74981,-1.82556c0,0 2.90488,3.3063 3.93584,5.30096c0.82459,1.59539 1.31704,2.34867 1.78771,2.88645c1.31169,1.49872 3.03836,1.73921 1.82516,3.31873c-1.78125,2.3191 -3.75921,3.3223 -6.66631,3.63836c-2.34685,0.25516 -3.3125,-0.39517 -4.02584,-1.58435c-0.17631,-0.29391 1.18197,-1.48137 0.69254,-2.90925z" data-paper-data="{&quot;origPos&quot;:null}" fill="#004bd6"/><path d="M240.17444,208.23866c-0.47271,-1.16674 1.00833,-2.86789 3.308,-3.79962c1.6752,-0.67871 5.17233,-2.0978 6.96951,-1.90519c0.41752,0.04475 0.65287,0.65125 0.79982,1.00389c0.18513,0.44422 -1.45119,0.83646 -1.45119,0.83646c0,0 -0.15407,0.93469 -0.58386,1.49307c-1.3844,1.79855 -4.99887,3.38759 -5.83713,3.48564c-1.27912,0.14962 -2.72157,0.07934 -3.20516,-1.11427z" data-paper-data="{&quot;origPos&quot;:null}" fill="#f9c869"/><path d="M238.98999,206.97306c-1.62091,-2.02128 -0.09278,-4.56926 2.50703,-5.62258c1.20909,-0.48987 3.64097,-0.16346 4.92576,-0.3897c1.98438,-0.34943 1.64407,-0.43168 3.12038,-0.80065c0.39989,-0.09995 1.04262,1.53813 1.36875,2.56953c0.15756,0.49833 -1.76473,1.16181 -1.76473,1.16181c0,0 -2.17021,2.63468 -4.77001,3.68802c-2.59981,1.05333 -4.40273,0.62121 -5.38717,-0.60641z" data-paper-data="{&quot;origPos&quot;:null}" fill="url(#color-4)"/></g><g data-paper-data="{&quot;origPos&quot;:null,&quot;index&quot;:null}"><path d="M236.34067,179.45067c2.71322,0 5.72943,-0.80739 7.82213,0.91952c2.80887,2.31791 3.24444,5.21693 3.24444,8.8587c0,3.35698 -4.13334,6.67297 -9.15056,6.67297c-5.01723,0 -9.47814,-1.99082 -9.34877,-8.98539c0.12681,-6.85625 2.41554,-7.4658 7.43277,-7.4658z" data-paper-data="{&quot;origPos&quot;:null}" fill="url(#color-5)" stroke="none" stroke-width="0" stroke-linecap="butt"/><path d="M231.11392,180.18145c1.25306,-1.01516 3.95987,-1.78155 6.44902,-1.72181c2.48915,0.05974 4.42667,0.43944 6.1495,1.59886c2.63321,1.7721 2.30734,6.32942 2.30734,6.32942c0,0 -3.71635,1.24437 -7.39973,1.12317c-4.01573,-0.13214 -9.71215,-0.79283 -9.71215,-0.79283c0,0 -0.75383,-4.13889 2.20603,-6.53682z" data-paper-data="{&quot;origPos&quot;:null}" fill="#ff0021" stroke="none" stroke-width="0" stroke-linecap="butt"/><path d="M232.83903,188.38749c0,0 -0.37479,-3.27892 -0.19159,-5.02404c0.14263,-1.35868 0.84967,-3.61833 0.84967,-3.61833" data-paper-data="{&quot;origPos&quot;:null,&quot;origRot&quot;:0}" fill="none" stroke="#0052ef" stroke-width="3.5" stroke-linecap="round"/><path d="M241.06461,188.5682c0,0 -0.79471,-3.20316 -0.8382,-4.95733c-0.03386,-1.36573 0.37572,-3.69772 0.37572,-3.69772" data-paper-data="{&quot;origPos&quot;:null}" fill="none" stroke="#0052ef" stroke-width="3.5" stroke-linecap="round"/><path d="M240.83337,189.29496c-0.74802,0 -1.35442,-0.60639 -1.35442,-1.35442c0,-0.74802 0.60639,-1.35442 1.35442,-1.35442c0.74802,0 1.35442,0.60639 1.35442,1.35442c0,0.74802 -0.60639,1.35442 -1.35442,1.35442z" data-paper-data="{&quot;origPos&quot;:null}" fill="#ffe84f" stroke="none" stroke-width="0" stroke-linecap="butt"/><path d="M232.64079,189.29496c-0.74802,0 -1.35442,-0.60639 -1.35442,-1.35442c0,-0.74802 0.60639,-1.35442 1.35442,-1.35442c0.74802,0 1.35442,0.60639 1.35442,1.35442c0,0.74802 -0.60639,1.35442 -1.35442,1.35442z" data-paper-data="{&quot;origPos&quot;:null}" fill="#ffe84f" stroke="none" stroke-width="0" stroke-linecap="butt"/></g><g data-paper-data="{&quot;origPos&quot;:null,&quot;origRot&quot;:0}"><path d="M235.38859,155.28478c1.55038,1.79489 4.78748,5.14072 3.87623,5.92784c-0.91125,0.78712 -2.21565,2.69069 -3.76603,0.8958c-1.92404,-2.22746 -3.16726,-6.09589 -2.3416,-7.05699c0.53445,-0.62211 0.681,-1.56154 2.23139,0.23335z" data-paper-data="{&quot;origPos&quot;:null}" fill="url(#color-6)" stroke="none" stroke-width="0" stroke-linecap="butt"/><path d="M238.74479,182.19581c0,0 -0.64033,0.18621 -1.21356,-0.41732c-1.058,-1.11392 -1.11231,-1.84479 -1.11231,-1.84479c0.0642,-0.60116 2.81206,-1.643 2.81206,-1.643c0.84395,-0.48532 2.66125,1.10225 2.66125,1.10225c0.74862,0.17534 -0.95345,1.27635 -0.70117,2.48163c0.21092,1.00768 -0.87452,1.34976 -1.62314,1.17442c-0.74862,-0.17534 -0.82313,-0.85317 -0.82313,-0.85317z" data-paper-data="{&quot;origRot&quot;:0,&quot;origPos&quot;:null}" fill="#5a2c0a" stroke="none" stroke-width="0" stroke-linecap="butt"/><path d="M247.36028,172.64836c0.41145,0.29937 1.95899,0.46909 3.21123,1.91881c1.25223,1.44972 0.40983,3.79293 -1.61517,5.54207c-2.02501,1.74916 -5.39767,2.17378 -7.63706,-0.41879c-0.04201,-0.04863 -0.48774,-0.16743 -1.06629,-0.09256c-1.88738,0.24423 -2.59196,1.61315 -4.21471,1.27216c-2.55561,-0.53702 -4.1066,-1.08477 -7.32123,-4.96489c-2.27414,-2.74493 -2.97173,-4.20843 -3.00394,-4.92092c-0.05677,-1.25595 -0.2362,-2.40674 0.36811,-3.5092c1.56739,-2.85942 4.17125,-2.11093 6.78305,-4.06323c2.27156,-1.69798 3.69409,-3.96119 5.66419,-1.92115c1.33161,1.37889 7.64849,10.29668 8.83183,11.15768z" data-paper-data="{&quot;origPos&quot;:null}" fill="#ffdebd" stroke="none" stroke-width="0" stroke-linecap="butt"/><path d="M235.65399,161.727c1.29827,-0.9676 2.83685,-1.09979 3.4365,-0.29522c0.59965,0.80457 0.03329,2.24121 -1.26498,3.20882c-1.29827,0.9676 -2.83684,1.09979 -3.43649,0.29522c-0.59965,-0.80457 -0.03329,-2.24121 1.26498,-3.20882z" data-paper-data="{&quot;origPos&quot;:null,&quot;origRot&quot;:0}" fill="#ffffff" stroke="none" stroke-width="0" stroke-linecap="butt"/><path d="M247.02585,171.62331c0.57045,0.71186 -0.50312,1.63189 -1.60768,2.58597c-1.10456,0.95408 -2.7305,1.94699 -3.18968,1.15876c-0.61813,-1.06109 -0.09847,-1.2558 -0.09847,-1.2558c0,0 -0.76075,0.04728 -1.01837,-0.92149c-0.22145,-0.83276 1.39274,-0.89217 2.04485,-1.45544c1.10456,-0.95408 1.46758,-3.10914 3.86935,-0.112z" data-paper-data="{&quot;origPos&quot;:null}" fill="#5a2c0a" stroke="none" stroke-width="0" stroke-linecap="butt"/><path d="M240.66134,165.92245c0.56302,0.83061 -0.06711,2.24045 -1.40743,3.14894c-1.34031,0.9085 -2.88326,0.97163 -3.44627,0.14102c-0.56302,-0.83061 0.06711,-2.24045 1.40742,-3.14894c1.34031,-0.9085 2.88326,-0.97163 3.44628,-0.14102z" data-paper-data="{&quot;origPos&quot;:null,&quot;origRot&quot;:0}" fill="#ffffff" stroke="none" stroke-width="0" stroke-linecap="butt"/><path d="M239.75749,166.47079c-0.14576,0.39828 -0.44968,0.82973 -0.87742,1.19921c-0.42774,0.36947 -0.8988,0.60743 -1.31405,0.69373c-0.41546,0.08604 -0.77534,0.02063 -0.98092,-0.21737c-0.20558,-0.238 -0.21796,-0.60357 -0.07244,-1.00211c0.14576,-0.39828 0.44967,-0.82974 0.87741,-1.19922c0.42774,-0.36947 0.8988,-0.60743 1.31404,-0.69373c0.41546,-0.08604 0.77535,-0.02062 0.98093,0.21738c0.20558,0.238 0.21796,0.60357 0.07244,1.00211z" data-paper-data="{&quot;origPos&quot;:null}" id="ID0.2989244391210377" fill="#000000" stroke="none" stroke-width="1" stroke-linecap="butt"/><path d="M251.59711,157.39244c1.98624,3.43696 -0.15042,10.17053 -0.15042,10.17053c1.66798,-0.22708 3.73967,1.4971 3.73967,1.4971c1.57938,1.82846 3.02636,3.53056 -0.55092,6.3295c-1.62178,1.26892 -3.81974,1.36598 -5.39912,-0.46248c-0.7722,-0.89399 -3.44159,-2.23905 -3.79482,-3.36632c-1.34525,-4.29318 -5.0028,-7.81436 -5.78646,-12.24458c-0.53782,-3.04048 -0.94914,-3.94616 3.30445,-6.57418c3.05463,-1.88727 6.08077,0.2261 8.63762,4.65043z" data-paper-data="{&quot;origPos&quot;:null}" fill="#ff0021" stroke="none" stroke-width="0" stroke-linecap="butt"/><path d="M246.56253,156.2186c1.45498,1.68444 1.5264,4.00708 0.15951,5.18776c-1.36688,1.18069 -2.74596,1.99415 -5.10942,-0.91214c-2.23881,-2.75301 -1.5264,-4.00708 -0.15951,-5.18775c1.36688,-1.18069 3.65445,-0.7723 5.10943,0.91214z" data-paper-data="{&quot;origPos&quot;:null}" fill="#ffffff" stroke="none" stroke-width="0" stroke-linecap="butt"/><path d="M239.38721,156.12966c3.47378,3.89951 6.69332,10.34566 7.5229,12.31681c0.68649,1.63114 -0.13532,3.24267 -0.76903,4.11278c-0.17142,0.23539 -2.60429,-2.36653 -3.60844,-3.82378c-2.06609,-2.99837 -9.10825,-14.00214 -8.93682,-14.23752c0.63371,-0.87011 4.37133,0.03761 5.79139,1.63171z" data-paper-data="{&quot;origPos&quot;:null}" fill="url(#color-7)" stroke="none" stroke-width="0" stroke-linecap="butt"/><path d="M243.5435,160.61831l1.56064,-2.01584l-1.94395,0.11992l0.58092,-1.68683l-2.23794,1.27049l-0.23761,-1.39187l3.67206,-0.84396l-0.73924,1.82743l2.43554,-0.1814l-2.16297,3.97578z" data-paper-data="{&quot;origPos&quot;:null}" fill="#ff0021" stroke="none" stroke-width="0" stroke-linecap="butt"/><path d="M226.13303,167.7076c0.16118,-0.1861 -0.80622,0.5524 -1.19179,-1.25461c-0.16307,-0.76423 0.94061,-1.65115 0.94061,-1.65115c0.29112,-0.45551 1.06947,-1.12359 1.41395,-0.77435c0.69459,0.70419 1.64825,4.08795 1.64825,4.08795c1.20443,1.56626 5.01643,3.8531 5.01643,3.8531c1.34134,0.51002 2.75728,-0.06616 3.59348,1.38271c0.14358,0.24877 -0.53877,1.05324 -1.95816,2.27929c-1.2944,1.11807 -3.00221,1.00941 -4.13518,-0.30224c-0.70607,-0.81742 -0.84014,-1.88594 -0.95564,-1.8982c-0.10933,-0.01159 -0.52582,0.32865 -1.25854,-0.13653c-1.27492,-0.80939 -2.70625,-2.37836 -3.3599,-3.73973c-0.21417,-0.44605 -0.31044,-1.20318 0.2465,-1.84625z" data-paper-data="{&quot;origPos&quot;:null}" fill="#38291e" stroke="none" stroke-width="0" stroke-linecap="butt"/><path d="M234.9982,163.37855c1.29812,1.76298 0.86801,4.92498 -0.59897,6.19213c-1.46698,1.26714 -3.8787,0.56814 -5.33843,-1.06355c-3.16716,-3.5403 -1.68901,-4.10669 -0.1425,-5.66079c2.47418,-2.48632 4.18846,-2.03655 6.0799,0.53221z" data-paper-data="{&quot;origPos&quot;:null}" fill="#ffdebd" stroke="none" stroke-width="0" stroke-linecap="butt"/><g data-paper-data="{&quot;origPos&quot;:null}" fill="none" stroke="#f6b09a" stroke-width="1.5" stroke-linecap="round"><path d="M243.5717,178.0493c0,0 1.10316,-2.34663 3.32773,-1.89442c1.55112,0.31531 1.75853,1.4297 1.75853,1.4297" data-paper-data="{&quot;origPos&quot;:null}"/><path d="M246.39329,178.35591l-1.29564,-1.49997" data-paper-data="{&quot;origPos&quot;:null}"/><path d="M243.99871,178.61587l-0.27764,-0.32143" data-paper-data="{&quot;origPos&quot;:null}"/></g><path d="M241.95635,166.17188c-0.19438,-0.46264 -1.45105,-0.89506 -1.45105,-0.89506c0,0 1.63027,-2.64664 3.6082,-0.1946c0.4487,0.84241 -0.13336,1.7788 -0.59038,2.17356c-0.67308,0.58139 -1.89475,1.00004 -1.89475,1.00004c0,0 0.10734,-0.729 0.28634,-1.18435c0.1735,-0.44138 0.23615,-0.46706 0.04163,-0.89959z" data-paper-data="{&quot;origPos&quot;:null}" fill="#38291e" stroke="none" stroke-width="0" stroke-linecap="butt"/><path d="M238.93056,161.25081c-0.27895,-0.38353 -0.33235,-0.34189 -0.80164,-0.41033c-0.48414,-0.0706 -1.17031,-0.33922 -1.17031,-0.33922c0,0 0.96977,-0.8528 1.80857,-1.14859c0.56953,-0.20084 1.67133,-0.2414 2.17997,0.56623c1.14705,2.9341 -1.95974,3.03585 -1.95974,3.03585c0,0 0.2483,-1.3056 -0.05687,-1.70395z" data-paper-data="{&quot;origPos&quot;:null,&quot;index&quot;:null,&quot;origRot&quot;:0}" fill="#38291e" stroke="none" stroke-width="0" stroke-linecap="butt"/><path d="M237.88884,162.36287c-0.16393,0.44798 -0.79624,1.1267 -0.87741,1.19922c-0.82173,0.73398 -1.55804,0.58198 -1.55804,0.58198c0,0 -0.07561,-0.31738 -0.28119,-0.55538c-0.20558,-0.238 -0.50904,-0.66847 -0.50904,-0.66847c0,0 0.43055,-0.71362 0.85828,-1.08309c0.42774,-0.36947 0.8988,-0.60743 1.31405,-0.69371c0.41546,-0.08604 0.77534,-0.02063 0.98092,0.21737c0.20558,0.238 0.21797,0.60358 0.07244,1.00211z" data-paper-data="{&quot;origPos&quot;:null}" id="ID0.2989244391210377" fill="#000000" stroke="none" stroke-width="1" stroke-linecap="butt"/></g><g data-paper-data="{&quot;origPos&quot;:null,&quot;index&quot;:null,&quot;origRot&quot;:0}" stroke="none" stroke-width="0" stroke-linecap="butt"><path d="M249.36502,181.1475c-2.44084,2.09341 -4.60374,2.34835 -5.74695,1.01542c-1.14321,-1.33293 0.13537,-4.58831 2.57619,-6.68172c2.44083,-2.0934 5.07364,-3.71882 5.07364,-3.71882l3.47656,3.96067c0,0 -3.41627,3.7407 -5.37946,5.42445z" data-paper-data="{&quot;origRot&quot;:0,&quot;origPos&quot;:null}" fill="#ff0021"/><g data-paper-data="{&quot;origPos&quot;:null}" fill="#ffffff"><path d="M254.43543,172.86439c-2.12494,-2.25927 -4.62867,-5.17248 -2.12037,-7.26938c1.81968,-1.52122 6.47704,-1.40506 8.04563,1.27061c1.71169,2.91976 3.70527,5.24891 0.67926,7.32808c-2.82549,1.94138 -4.47958,0.92996 -6.60451,-1.32931z" data-paper-data="{&quot;origRot&quot;:0,&quot;origPos&quot;:null}"/><path d="M252.26447,174.32668c-1.63828,-1.74645 -3.84809,-3.41951 -2.40805,-4.56946c1.61096,-1.28644 1.94782,-0.74797 4.55449,2.17213c2.96949,3.32654 4.02896,3.29435 2.33186,4.79027c-0.99098,0.87351 -2.84002,-0.6465 -4.4783,-2.39294z" data-paper-data="{&quot;origRot&quot;:0,&quot;origPos&quot;:null}"/></g></g></g></g></svg>