<svg version="1.1" xmlns="http://www.w3.org/2000/svg" xmlns:xlink="http://www.w3.org/1999/xlink" width="89.97709" height="121.5594" viewBox="0,0,89.97709,121.5594"><g transform="translate(-195.01146,-119.2203)"><g data-paper-data="{&quot;isPaintingLayer&quot;:true}" fill="none" fill-rule="nonzero" stroke="none" stroke-width="0" stroke-linecap="butt" stroke-linejoin="miter" stroke-miterlimit="10" stroke-dasharray="" stroke-dashoffset="0" font-family="none" font-weight="none" font-size="none" text-anchor="none" style="mix-blend-mode: normal"><g data-paper-data="{&quot;origPos&quot;:null}"><path d="M270.75525,234.78223c0,4.23547 0.29261,6.11048 -11.21098,5.99222c-9.91563,-0.10193 -10.98449,-0.79026 -11.21098,-5.21903c-0.14727,-2.87965 5.1444,-5.21903 11.21098,-5.21903c6.06657,0 11.21098,1.56345 11.21098,4.44584z" data-paper-data="{&quot;origPos&quot;:null}" fill="#f3c08d"/><path d="M272.10843,231.78613c0,4.43034 -0.06004,7.63524 -12.56433,7.63524c-13.08417,0 -12.37103,-3.3982 -12.37103,-7.82854c0,-4.43034 5.85897,-8.21514 12.37103,-8.21514c6.51207,0 12.56433,3.9781 12.56433,8.40844z" data-paper-data="{&quot;origPos&quot;:null}" fill="#94612e"/></g><path d="M259.45195,196.61794c2.33544,0.61452 6.63102,7.26902 10.07421,10.30495c3.44319,3.03593 9.99398,4.25286 5.48744,8.61433c-1.95616,1.89319 -7.79081,4.13553 -11.234,1.09959c-3.44319,-3.03593 -10.74265,-21.70684 -4.32765,-20.01887z" data-paper-data="{&quot;origRot&quot;:0,&quot;origPos&quot;:null,&quot;index&quot;:null}" fill="#ffdfc0"/><g data-paper-data="{&quot;origPos&quot;:null}"><path d="M264.07816,214.76752c0,9.39445 -9.04366,17.01018 -20.19958,17.01018c-11.15592,0 -20.19958,-7.61571 -20.19958,-17.01018c0,-6.26168 1.84132,-10.96368 5.82055,-15.79837c4.12286,-5.00918 7.69806,-6.43082 14.18572,-6.43082c0,0 9.39424,-0.47779 13.66232,4.8427c3.76857,4.69783 6.73055,7.99203 6.73055,17.3865z" data-paper-data="{&quot;origPos&quot;:null}" fill="#ffdfc0"/><path d="M263.98995,214.87261c-0.8068,9.35974 -9.04365,17.01018 -20.19958,17.01018c-11.15592,0 -20.45968,-7.07901 -20.19958,-17.01018c-0.1933,-2.00914 1.37471,-4.39383 1.37471,-4.39383c0,0 12.5305,0.14129 19.01816,0.14129l19.84784,-0.18302c0,0 0.35173,2.19312 0.15844,4.43557z" data-paper-data="{&quot;origPos&quot;:null}" fill="#ffffff"/></g><g data-paper-data="{&quot;origPos&quot;:null}"><path d="M239.72258,234.67715c0,4.23547 0.29261,6.11048 -11.21098,5.99222c-9.91563,-0.10193 -10.98449,-0.79026 -11.21098,-5.21903c-0.14727,-2.87965 5.1444,-5.21903 11.21098,-5.21903c6.06657,0 11.21098,1.56345 11.21098,4.44584z" data-paper-data="{&quot;origPos&quot;:null}" fill="#f3c08d"/><path d="M241.07576,231.68105c0,4.43034 -0.06004,7.63524 -12.56432,7.63524c-13.08417,0 -12.37103,-3.3982 -12.37103,-7.82854c0,-4.43034 5.85897,-8.21514 12.37103,-8.21514c6.51207,0 12.56432,3.9781 12.56432,8.40844z" data-paper-data="{&quot;origPos&quot;:null}" fill="#94612e"/></g><g data-paper-data="{&quot;origPos&quot;:null}"><path d="M254.38571,195.12904c4.19705,0 10.38794,6.5254 10.38794,13.14422c0,6.61882 0.71276,11.59784 0.71276,11.59784c0,0 -9.18831,1.7136 -11.29649,0.67936c-4.14914,-2.0355 -2.39695,-6.57845 -2.39695,-11.50402c0,-6.61882 -1.6043,-13.91741 2.59275,-13.91741z" data-paper-data="{&quot;index&quot;:null,&quot;origPos&quot;:null}" fill="#4e7aff"/><path d="M250.06466,222.6045l-0.1933,-29.5745h5.02573l-0.33317,25.40338l11.16568,-0.11332l-0.00787,4.47773z" data-paper-data="{&quot;index&quot;:null,&quot;origPos&quot;:null}" fill="#ffef45"/></g><g data-paper-data="{&quot;origPos&quot;:null}"><path d="M235.66344,209.71456c0,4.92557 1.31425,8.88862 -3.17105,10.92412c-2.27899,1.03424 -11.8095,-1.25925 -11.8095,-1.25925c0,0 -0.09665,-3.43264 -0.09665,-10.05146c0,-6.61882 7.73729,-13.53081 12.27439,-13.53081c4.5371,0 2.80281,7.29859 2.80281,13.91741z" data-paper-data="{&quot;origPos&quot;:null}" fill="#4e7aff"/><path d="M220.77954,222.69271l-0.58776,-4.28443l12.32547,-0.07998l-0.33316,-25.40338h5.02573l-0.1933,29.5745z" data-paper-data="{&quot;origPos&quot;:null}" fill="#ffef45"/></g><path d="M222.39639,216.53172c-3.44319,3.03593 -9.27784,0.79359 -11.234,-1.0996c-4.50654,-4.36146 2.04425,-5.57839 5.48744,-8.61433c3.44319,-3.03593 7.73877,-9.69043 10.07421,-10.30495c6.41499,-1.68797 -0.88447,16.98294 -4.32766,20.01887z" data-paper-data="{&quot;origRot&quot;:0,&quot;origPos&quot;:null}" fill="#ffdfc0"/><g data-paper-data="{&quot;origPos&quot;:null}"><g data-paper-data="{&quot;origPos&quot;:null}"><path d="M284.5936,149.16229c-0.2331,12.38209 -2.00872,17.66322 -14.19397,19.87459c-9.33022,1.69325 -36.38918,1.60517 -45.87036,1.77021c-20.72336,0.36075 -27.95787,-3.48257 -28.31862,-21.28406c-0.14111,-6.96355 1.31264,-13.75136 6.56521,-18.32536c12.30496,-10.71532 23.3013,-11.97737 39.06926,-11.97737c23.60934,0 43.18563,6.7222 42.74849,29.94198z" data-paper-data="{&quot;origPos&quot;:null}" fill="#ffffff"/><path d="M267.27777,145.33676c0,9.84132 -7.42954,17.81928 -16.59435,17.81928c-9.16481,0 -16.59435,-7.97797 -16.59435,-17.81928c0,-9.84131 7.42954,-17.81928 16.59435,-17.81928c9.16481,0 16.59435,7.97797 16.59435,17.81928z" data-paper-data="{&quot;origPos&quot;:null}" fill="#4e7aff"/><path d="M195.31119,156.10568c-0.28877,-4.28184 -0.86151,-5.52787 1.17846,-13.66082c0.12283,-3.25193 3.00559,-7.53245 3.00559,-7.53245c0,0 9.21808,1.01069 12.64835,3.93406c4.02515,3.43034 4.59367,8.49424 4.96005,13.77011c0.38527,5.54787 -0.32536,9.15765 -3.82155,13.90737c-1.69325,2.30035 -2.25565,2.58835 -2.25565,2.58835c0,0 -6.7466,0.95785 -9.80414,-0.85958c-3.61999,-2.82915 -4.74636,-4.87997 -5.9111,-12.14704z" data-paper-data="{&quot;origPos&quot;:null,&quot;origRot&quot;:0}" fill="#4e7aff"/><path d="M281.83983,136.24187c0,0 3.02856,1.07564 3.14648,13.34105c0.10337,10.75157 -3.42283,14.36024 -3.42283,14.36024c0,0 -6.54252,-1.0915 -6.64589,-14.61196c-0.09378,-12.26562 6.92224,-13.08933 6.92224,-13.08933z" data-paper-data="{&quot;origPos&quot;:null}" fill="#4e7aff"/></g><g data-paper-data="{&quot;origPos&quot;:null}"><path d="M264.91644,180.41835c-0.44831,11.46038 -9.01954,16.73924 -20.76672,16.73924c-11.74718,0 -22.81736,-4.021 -23.2839,-15.48065c-0.25172,-6.18307 -0.88101,-12.46003 -0.88101,-12.46003c0,0 16.95085,-2.46302 22.80578,-2.26725c11.34089,0.37921 22.26325,3.48884 22.26325,3.48884c0,0 0.11433,3.54507 -0.13739,9.97985z" data-paper-data="{&quot;origPos&quot;:null}" fill="#ffdfc0"/><path d="M249.05024,188.06231c0,0 -3.09329,3.16022 -7.22873,2.41954c-4.13544,-0.74068 -6.39742,-5.1977 -6.39742,-5.1977c0,0 3.4004,2.97263 6.6904,3.56188c3.29,0.58925 6.93574,-0.78372 6.93574,-0.78372z" data-paper-data="{&quot;origPos&quot;:null,&quot;origRot&quot;:0}" fill="#000000"/><g data-paper-data="{&quot;origPos&quot;:null}"><path d="M254.2278,176.8304c0,3.19745 -0.78408,5.73153 -3.02062,5.78951c-2.46745,0.06396 -3.02061,-2.59205 -3.02061,-5.78951c0,-3.19745 0.66864,-5.78951 3.02061,-5.78951c2.35197,0 3.02062,2.59205 3.02062,5.78951z" data-paper-data="{&quot;origPos&quot;:null}" fill="#000000"/><path d="M253.24749,174.37294c0,1.06628 -0.47184,1.91132 -1.81774,1.93065c-1.48486,0.02133 -1.81773,-0.86438 -1.81773,-1.93065c0,-1.06628 0.40237,-1.93065 1.81773,-1.93065c1.41536,0 1.81774,0.86438 1.81774,1.93065z" data-paper-data="{&quot;origPos&quot;:null}" fill="#aaaaaa"/></g><g data-paper-data="{&quot;origPos&quot;:null}"><path d="M244.02387,177.02017c0,3.19745 -0.78408,5.73153 -3.02062,5.78951c-2.46745,0.06396 -3.02061,-2.59205 -3.02061,-5.78951c0,-3.19745 0.66864,-5.78951 3.02061,-5.78951c2.35197,0 3.02062,2.59205 3.02062,5.78951z" data-paper-data="{&quot;origPos&quot;:null}" fill="#000000"/><path d="M242.87549,174.41866c0,1.06628 -0.47184,1.91132 -1.81774,1.93065c-1.48486,0.02133 -1.81774,-0.86438 -1.81774,-1.93065c0,-1.06628 0.40237,-1.93065 1.81774,-1.93065c1.41536,0 1.81774,0.86438 1.81774,1.93065z" data-paper-data="{&quot;origPos&quot;:null}" fill="#aaaaaa"/></g></g></g></g></g></svg>