<svg version="1.1" xmlns="http://www.w3.org/2000/svg" xmlns:xlink="http://www.w3.org/1999/xlink" width="114.38653" height="41.98035" viewBox="0,0,114.38653,41.98035"><defs><linearGradient x1="205.32803" y1="158.40302" x2="205.32803" y2="200.37209" gradientUnits="userSpaceOnUse" id="color-1"><stop offset="0" stop-color="#208057"/><stop offset="1" stop-color="#103c3d"/></linearGradient><linearGradient x1="277.7455" y1="158.40302" x2="277.7455" y2="200.37209" gradientUnits="userSpaceOnUse" id="color-2"><stop offset="0" stop-color="#208057"/><stop offset="1" stop-color="#103c3d"/></linearGradient><linearGradient x1="241.90688" y1="158.42031" x2="241.90688" y2="200.38339" gradientUnits="userSpaceOnUse" id="color-3"><stop offset="0" stop-color="#208057"/><stop offset="1" stop-color="#103c3d"/></linearGradient><linearGradient x1="206.71667" y1="162.22232" x2="206.71667" y2="196.27763" gradientUnits="userSpaceOnUse" id="color-4"><stop offset="0" stop-color="#3bedb3"/><stop offset="1" stop-color="#31be8d"/></linearGradient></defs><g transform="translate(-184.3435,-158.40304)"><g data-paper-data="{&quot;isPaintingLayer&quot;:true}" fill-rule="nonzero" stroke-linejoin="miter" stroke-miterlimit="10" stroke-dasharray="" stroke-dashoffset="0" style="mix-blend-mode: normal"><g data-paper-data="{&quot;index&quot;:null}" stroke="#000000" stroke-width="0" stroke-linecap="butt"><path d="M184.3435,179.38758c0,-11.58944 9.39509,-20.98453 20.98453,-20.98453c11.58944,0 20.98453,9.39509 20.98453,20.98453c0,11.58944 -9.39509,20.98453 -20.98453,20.98453c-11.58944,0 -20.98453,-9.39509 -20.98453,-20.98453z" data-paper-data="{&quot;origPos&quot;:null,&quot;index&quot;:null}" fill="url(#color-1)"/><path d="M256.76097,179.38758c0,-11.58943 9.39509,-20.98453 20.98453,-20.98453c11.58943,0 20.98453,9.39509 20.98453,20.98453c0,11.58943 -9.39509,20.98453 -20.98453,20.98453c-11.58943,0 -20.98453,-9.39509 -20.98453,-20.98453z" data-paper-data="{&quot;origPos&quot;:null,&quot;index&quot;:null}" fill="url(#color-2)"/><path d="M205.82984,200.38339v-41.96308h72.15408v41.96308z" data-paper-data="{&quot;origPos&quot;:null,&quot;index&quot;:null}" fill="url(#color-3)"/></g><text transform="translate(229.12101,185.46461) scale(0.44701,0.44701)" font-size="40" xml:space="preserve" data-paper-data="{&quot;index&quot;:null}" fill="#f7f7f7" fill-rule="nonzero" stroke="none" stroke-width="1" stroke-linecap="butt" stroke-linejoin="miter" stroke-miterlimit="10" stroke-dasharray="" stroke-dashoffset="0" font-family="&quot;Microsoft YaHei&quot;, &quot;微软雅黑&quot;, STXihei, &quot;华文细黑&quot;" font-weight="normal" text-anchor="start" style="mix-blend-mode: normal"><tspan x="0" dy="0">Mobile</tspan></text><g><path d="M206.71667,162.22232c4.69771,0 8.95515,1.90752 12.0371,4.99053c3.08301,3.08195 4.99053,7.33939 4.99053,12.0371c0,4.69771 -1.90752,8.95515 -4.99053,12.0371c-3.08195,3.08301 -7.33939,4.99053 -12.0371,4.99053c-4.69771,0 -8.95515,-1.90752 -12.0371,-4.99053c-3.08301,-3.08195 -4.99053,-7.33939 -4.99053,-12.0371c0,-4.69771 1.90752,-8.95515 4.99053,-12.0371c3.08195,-3.08301 7.33939,-4.99053 12.0371,-4.99053z" data-paper-data="{&quot;origPos&quot;:null}" fill="url(#color-4)" stroke="#238c6c" stroke-width="1.25" stroke-linecap="butt"/><g data-paper-data="{&quot;origPos&quot;:null}" fill="none" stroke="#238c6c" stroke-width="4.5" stroke-linecap="round" font-family="&quot;Helvetica Neue&quot;, Helvetica, Arial, sans-serif" font-weight="400" font-size="16" text-anchor="start"><g/></g><g fill="none" stroke="#ffffff" stroke-width="2" stroke-linecap="round" font-family="&quot;Helvetica Neue&quot;, Helvetica, Arial, sans-serif" font-weight="400" font-size="16" text-anchor="start"><g/></g></g><g fill="none" stroke-linecap="butt"><path d="M200.99731,170.3275h11.5v18.65h-11.5z" stroke="#238c6c" stroke-width="4.5"/><path d="M200.99731,170.3275h11.5v18.65h-11.5z" stroke="#ffffff" stroke-width="2"/></g></g></g></svg>