<svg version="1.1" xmlns="http://www.w3.org/2000/svg" xmlns:xlink="http://www.w3.org/1999/xlink" width="460.96172" height="171.36769" viewBox="0,0,460.96172,171.36769"><defs><linearGradient x1="-22.97962" y1="-2345.23938" x2="-22.97962" y2="6941.62316" gradientUnits="userSpaceOnUse" id="color-1"><stop offset="0" stop-color="#519dff"/><stop offset="1" stop-color="#519dff" stop-opacity="0"/></linearGradient></defs><g transform="translate(93.98108,-203.42561)"><g data-paper-data="{&quot;isPaintingLayer&quot;:true}" fill="url(#color-1)" fill-rule="nonzero" stroke="#3e7ac6" stroke-width="2" stroke-linecap="butt" stroke-linejoin="miter" stroke-miterlimit="10" stroke-dasharray="" stroke-dashoffset="0" font-family="none" font-weight="none" font-size="none" text-anchor="none" style="mix-blend-mode: normal"><path d="M-55.18592,226.31603c57.25781,2.77268 44.96627,-16.98297 133.02163,-21.81112c79.26419,-1.71751 84.56466,25.03272 115.93554,25.09745c58.48269,0.12068 72.76127,-11.88886 100.58615,-17.83344c35.56481,-5.07445 71.62224,-5.45002 71.62224,-5.45002l-0.16682,167.38827c0,0 -271.70044,-0.0603 -458.79151,0.08535c0.08464,-35.59249 0.50135,-71.15349 2.5329,-106.70574c0.72455,-12.67955 0.44579,-25.38889 0.44579,-38.08678c0,-1.30424 0,-2.60849 0,-3.91273c10.1723,0.84437 21.64969,1.302 34.81408,1.22876z" data-paper-data="{&quot;origPos&quot;:null,&quot;index&quot;:null}" id="ID0.18147781118750572"/></g></g></svg>