<svg version="1.1" xmlns="http://www.w3.org/2000/svg" xmlns:xlink="http://www.w3.org/1999/xlink" width="14.84037" height="24.4524"><defs><linearGradient x1="240.24186" y1="167.87031" x2="240.24186" y2="192.07326" gradientUnits="userSpaceOnUse" id="color-1"><stop offset="0" stop-color="#bda501"/><stop offset="1" stop-color="#c07801"/></linearGradient><linearGradient x1="242.59419" y1="167.8762" x2="242.59419" y2="192.2262" gradientUnits="userSpaceOnUse" id="color-2"><stop offset="0" stop-color="#bda001"/><stop offset="1" stop-color="#be7800"/></linearGradient><radialGradient cx="234.84522" cy="172.1909" r="19.7101" gradientUnits="userSpaceOnUse" id="color-3"><stop offset="0" stop-color="#ffff00"/><stop offset="1" stop-color="#ff9400"/></radialGradient><radialGradient cx="236.70313" cy="173.8333" r="8.98024" gradientUnits="userSpaceOnUse" id="color-4"><stop offset="0" stop-color="#bda501"/><stop offset="1" stop-color="#c07801"/></radialGradient></defs><g transform="translate(-232.57982,-167.7738)"><g data-paper-data="{&quot;isPaintingLayer&quot;:true}" fill="none" fill-rule="nonzero" stroke="none" stroke-width="none" stroke-linecap="butt" stroke-linejoin="miter" stroke-miterlimit="10" stroke-dasharray="" stroke-dashoffset="0" font-family="none" font-weight="none" font-size="none" text-anchor="none" style="mix-blend-mode: normal"><path d="M237.79728,167.87031h4.88916v24.20296h-4.88916z" data-paper-data="{&quot;origPos&quot;:null}" id="ID0.06001657713204622" fill="url(#color-1)" stroke-width="0.36499"/><path d="M242.59419,167.8762c1.3315,0 2.5379,1.3645 3.4115,3.5685c0.8737,2.2039 1.4145,5.2474 1.4145,8.6065c0,3.359 -0.5408,6.4026 -1.4145,8.6065c-0.8736,2.204 -2.08,3.5685 -3.4115,3.5685c-1.3314,0 -2.5378,-1.3645 -3.4115,-3.5685c-0.8736,-2.2039 -1.4145,-5.2475 -1.4145,-8.6065c0,-3.3591 0.5409,-6.4026 1.4145,-8.6065c0.8737,-2.204 2.0801,-3.5685 3.4115,-3.5685z" data-paper-data="{&quot;origPos&quot;:null}" id="ID0.7142658131197095" fill="url(#color-2)" stroke-width="0.36532"/><path d="M237.40582,167.7738c1.3315,0 2.5379,1.3645 3.4115,3.5685c0.8737,2.2039 1.4145,5.2474 1.4145,8.6065c0,3.359 -0.5408,6.4026 -1.4145,8.6065c-0.8736,2.204 -2.08,3.5685 -3.4115,3.5685c-1.3314,0 -2.5378,-1.3645 -3.4115,-3.5685c-0.8736,-2.2039 -1.4145,-5.2475 -1.4145,-8.6065c0,-3.3591 0.5409,-6.4026 1.4145,-8.6065c0.8737,-2.204 2.0801,-3.5685 3.4115,-3.5685z" data-paper-data="{&quot;origPos&quot;:null}" id="ID0.7142658131197095" fill="url(#color-3)" stroke-width="0.36531"/><path d="M236.31066,170.6653h1.80612v18.4186h-1.80612z" data-paper-data="{&quot;origPos&quot;:null}" id="ID0.06001657713204622" fill="url(#color-4)" stroke-width="0.42911"/></g></g></svg>