<svg version="1.1" xmlns="http://www.w3.org/2000/svg" xmlns:xlink="http://www.w3.org/1999/xlink" width="188.67767" height="200.00157" viewBox="0,0,188.67767,200.00157"><defs><linearGradient x1="60.4835" y1="187.92223" x2="60.4835" y2="361.40661" gradientUnits="userSpaceOnUse" id="color-1"><stop offset="0" stop-color="#ffffff"/><stop offset="1" stop-color="#e7e7e7"/></linearGradient><linearGradient x1="61.08842" y1="167.16834" x2="61.08842" y2="210.20474" gradientUnits="userSpaceOnUse" id="color-2"><stop offset="0" stop-color="#6adc80"/><stop offset="1" stop-color="#55b268"/></linearGradient><linearGradient x1="60.83842" y1="168.66834" x2="60.83842" y2="192.23486" gradientUnits="userSpaceOnUse" id="color-3"><stop offset="0" stop-color="#74f08c"/><stop offset="1" stop-color="#68d97e"/></linearGradient></defs><g transform="translate(33.24779,-166.16834)"><g data-paper-data="{&quot;isPaintingLayer&quot;:true}" fill-rule="nonzero" stroke-linejoin="miter" stroke-miterlimit="10" stroke-dasharray="" stroke-dashoffset="0" style="mix-blend-mode: normal"><g><path d="M-20.29179,187.92223h161.5506c0,0 -1.5,17.93541 -1.5,36.4847c0,12.61125 1.5,24.54783 1.5,35.05095c0,9.28545 -2,22.16287 -2,35.64504c0,10.39431 2,21.14808 2,30.89236c0,19.78689 -2.5,34.81725 -2.5,34.81725l-159.0506,0.59408c0,0 2,-14.64569 2,-31.84683c0,-10.58423 -2,-20.65939 -2,-33.2687c0,-12.03538 2.5,-20.05594 2.5,-30.89236c0,-10.69584 -2.5,-24.24214 -2.5,-30.89236c0,-19.33896 0,-46.58413 0,-46.58413z" data-paper-data="{&quot;origPos&quot;:null}" fill="url(#color-1)" stroke="#cccccc" stroke-width="2" stroke-linecap="butt"/><path d="M-2.46922,184.60332c0,0 11,2.62583 11,11.28759c0,9.0861 -11,24.51586 -11,37.42729c0,11.96038 10.5,19.4964 10.5,31.48645c0,13.78203 -10.5,23.41415 -10.5,32.08053c0,8.98301 10.5,21.68998 10.5,31.48645c0,14.26618 -10.5,30.29828 -10.5,30.29828" fill="none" stroke="#cccccc" stroke-width="15" stroke-linecap="round"/><path d="M35.03078,184.60332c0,0 11,2.62583 11,11.28759c0,9.0861 -11,24.51586 -11,37.42729c0,11.96038 10.5,19.4964 10.5,31.48645c0,13.78203 -10.5,23.41415 -10.5,32.08053c0,8.98301 10.5,21.68998 10.5,31.48645c0,14.26618 -10.5,30.29828 -10.5,30.29828" fill="none" stroke="#cccccc" stroke-width="15" stroke-linecap="round"/><path d="M72.53079,184.60331c0,0 11,2.62583 11,11.28759c0,9.0861 -11,24.51586 -11,37.42729c0,11.96038 10.5,19.4964 10.5,31.48645c0,13.78203 -10.5,23.41415 -10.5,32.08053c0,8.98301 10.5,21.68998 10.5,31.48645c0,14.26618 -10.5,30.29828 -10.5,30.29828" fill="none" stroke="#cccccc" stroke-width="15" stroke-linecap="round"/><path d="M110.03078,184.60331c0,0 11,2.62583 11,11.28759c0,9.0861 -11,24.51586 -11,37.42729c0,11.96038 10.5,19.4964 10.5,31.48645c0,13.78203 -10.5,23.41415 -10.5,32.08053c0,8.98301 10.5,21.68998 10.5,31.48645c0,14.26618 -10.5,30.29828 -10.5,30.29828" fill="none" stroke="#cccccc" stroke-width="15" stroke-linecap="round"/><g stroke-linecap="butt"><path d="M-32.24779,188.27254c0.21723,-8.28143 7.10674,-21.31875 15.38817,-21.10152c4.0055,0.10507 149.97127,0.26629 156.68272,0.44233c8.28143,0.21723 14.81874,14.60674 14.60152,22.88817c-0.21723,8.28143 -7.10674,14.81875 -15.38817,14.60152c-4.35644,-0.11427 -8.23023,-2.07496 -10.892,-5.11337c-2.07247,6.02961 -7.86975,10.28985 -14.58121,10.11381c-5.54406,-0.14542 -10.30647,-3.2812 -12.78391,-7.82302c-2.81696,2.8903 -6.78518,4.64212 -11.13792,4.52794c-6.26799,-0.16441 -11.53686,-4.15111 -13.63417,-9.67059c-2.83571,3.17471 -6.99698,5.12805 -11.58557,5.00769c-4.41394,-0.11578 -8.33241,-2.12704 -10.99677,-5.23425c-2.39123,5.38459 -7.85264,9.07464 -14.10826,8.91055c-3.83877,-0.1007 -7.30279,-1.63506 -9.89301,-4.07717c-2.4912,5.13587 -7.81909,8.61428 -13.89663,8.45486c-5.05468,-0.13259 -9.45961,-2.7509 -12.07547,-6.65423c-3.90683,-0.16531 -7.41105,-1.8165 -9.97986,-4.39204c-2.81573,2.87811 -6.77549,4.62141 -11.11795,4.50751c-8.28143,-0.21723 -14.81875,-7.10674 -14.60152,-15.38817z" fill="url(#color-2)" stroke="#199442" stroke-width="2"/><path d="M-23.24831,180.22489c0.19571,-4.53486 6.40248,-11.67404 13.86323,-11.55509c3.60856,0.05754 135.10933,0.14582 141.15569,0.24222c7.46075,0.11895 13.35023,7.99859 13.15453,12.53345c-0.1957,4.53486 -6.40247,8.11467 -13.86322,7.99571c-3.92473,-0.06258 -7.41463,-1.13624 -9.81262,-2.80006c-1.8671,3.30178 -7.08987,5.63467 -13.13623,5.53827c-4.99466,-0.07963 -9.28511,-1.79677 -11.51704,-4.28385c-2.53781,1.58271 -6.11278,2.54201 -10.03417,2.47949c-5.64684,-0.09004 -10.39357,-2.27312 -12.28305,-5.29557c-2.55469,1.73846 -6.30358,2.80809 -10.43745,2.74218c-3.97652,-0.0634 -7.50669,-1.16476 -9.90701,-2.86625c-2.15427,2.94858 -7.07445,4.96923 -12.71015,4.87938c-3.45835,-0.05514 -6.57909,-0.89535 -8.91262,-2.23264c-2.24432,2.81238 -7.04423,4.71714 -12.5195,4.62984c-4.55377,-0.07261 -8.52218,-1.50638 -10.8788,-3.64382c-3.51967,-0.09053 -6.67663,-0.99471 -8.99088,-2.40507c-2.5367,1.57604 -6.10404,2.53066 -10.01618,2.46829c-7.46075,-0.11895 -13.35023,-3.89162 -13.15453,-8.42649z" fill="url(#color-3)" stroke="none" stroke-width="0.5"/></g></g></g></g></svg>