<svg version="1.1" xmlns="http://www.w3.org/2000/svg" xmlns:xlink="http://www.w3.org/1999/xlink" width="20.24137" height="24.3844"><defs><linearGradient x1="240.01669" y1="167.83972" x2="240.01669" y2="192.04267" gradientUnits="userSpaceOnUse" id="color-1"><stop offset="0" stop-color="#bda501"/><stop offset="1" stop-color="#c07801"/></linearGradient><linearGradient x1="237.40583" y1="167.8422" x2="237.40583" y2="192.1922" gradientUnits="userSpaceOnUse" id="color-2"><stop offset="0" stop-color="#bda001"/><stop offset="1" stop-color="#be7800"/></linearGradient><radialGradient cx="238.60059" cy="172.22489" r="21.5417" gradientUnits="userSpaceOnUse" id="color-3"><stop offset="0" stop-color="#ffff00"/><stop offset="1" stop-color="#ff9400"/></radialGradient><radialGradient cx="243.29875" cy="173.71729" r="9.41534" gradientUnits="userSpaceOnUse" id="color-4"><stop offset="0" stop-color="#bda501"/><stop offset="1" stop-color="#c07801"/></radialGradient></defs><g transform="translate(-229.87932,-167.8078)"><g data-paper-data="{&quot;isPaintingLayer&quot;:true}" fill="none" fill-rule="nonzero" stroke="none" stroke-width="none" stroke-linecap="butt" stroke-linejoin="miter" stroke-miterlimit="10" stroke-dasharray="" stroke-dashoffset="0" font-family="none" font-weight="none" font-size="none" text-anchor="none" style="mix-blend-mode: normal"><path d="M242.76215,192.04268h-5.49094v-24.20296h5.49094z" data-paper-data="{&quot;origPos&quot;:null}" id="ID0.06001657713204622" fill="url(#color-1)" stroke-width="0.36499"/><path d="M242.72632,171.4107c1.3625,2.2039 2.206,5.2474 2.206,8.6065c0,3.359 -0.8435,6.4026 -2.206,8.6065c-1.3625,2.204 -3.2439,3.5685 -5.3205,3.5685c-2.0765,0 -3.958,-1.3645 -5.3205,-3.5685c-1.3625,-2.2039 -2.206,-5.2475 -2.206,-8.6065c0,-3.3591 0.8435,-6.4026 2.206,-8.6065c1.3625,-2.204 3.244,-3.5685 5.3205,-3.5685c2.0766,0 3.958,1.3645 5.3205,3.5685z" data-paper-data="{&quot;origPos&quot;:null}" id="ID0.7142658131197095" fill="url(#color-2)" stroke-width="0.39926"/><path d="M242.5942,167.8078c2.0765,0 3.958,1.3645 5.3205,3.5685c1.3625,2.2039 2.206,5.2474 2.206,8.6065c0,3.359 -0.8435,6.4026 -2.206,8.6065c-1.3625,2.204 -3.244,3.5685 -5.3205,3.5685c-2.0766,0 -3.958,-1.3645 -5.3205,-3.5685c-1.3625,-2.2039 -2.206,-5.2475 -2.206,-8.6065c0,-3.3591 0.8435,-6.4026 2.206,-8.6065c1.3625,-2.204 3.2439,-3.5685 5.3205,-3.5685z" data-paper-data="{&quot;origPos&quot;:null,&quot;index&quot;:null}" id="ID0.7142658131197095" fill="url(#color-3)" stroke-width="0.39926"/><path d="M243.79382,188.96789h-2.27832v-18.4186h2.27832z" data-paper-data="{&quot;origPos&quot;:null}" id="ID0.06001657713204622" fill="url(#color-4)" stroke-width="0.5012"/></g></g></svg>