<svg version="1.1" xmlns="http://www.w3.org/2000/svg" xmlns:xlink="http://www.w3.org/1999/xlink" width="190.18298" height="101.5819" viewBox="0,0,190.18298,101.5819"><g transform="translate(-149.18018,-155.72691)"><g data-paper-data="{&quot;isPaintingLayer&quot;:true}" fill="none" fill-rule="nonzero" stroke="none" stroke-width="none" stroke-linecap="none" stroke-linejoin="miter" stroke-miterlimit="10" stroke-dasharray="" stroke-dashoffset="0" font-family="none" font-weight="none" font-size="none" text-anchor="none" style="mix-blend-mode: normal"><g data-paper-data="{&quot;origPos&quot;:null,&quot;origRot&quot;:0}" stroke="none" stroke-linecap="butt"><g data-paper-data="{&quot;origPos&quot;:null,&quot;index&quot;:null,&quot;origRot&quot;:0}" stroke-width="0"><path d="M257.81945,166.53946c4.14496,3.32811 2.15687,13.72707 -3.93747,21.31721c-6.09436,7.59013 -13.02096,13.89494 -13.02096,13.89494l-12.55329,-9.8447c0,0 8.0776,-13.03547 12.97934,-19.14029c6.09436,-7.59013 12.38741,-9.55527 16.53238,-6.22717z" data-paper-data="{&quot;origRot&quot;:0,&quot;origPos&quot;:null}" fill="#41c3ff"/><g data-paper-data="{&quot;origPos&quot;:null}" fill="#ffffff"><path d="M230.82198,200.23983c7.58267,5.53658 16.65713,12.80749 10.36398,20.44564c-4.56544,5.54119 -18.48723,7.79372 -24.6469,0.70789c-6.72159,-7.73227 -13.95239,-13.55002 -6.10901,-21.42422c7.32363,-7.35239 12.80925,-5.26587 20.39192,0.27069z" data-paper-data="{&quot;origRot&quot;:0,&quot;origPos&quot;:null}"/><path d="M236.46545,194.67804c5.84863,4.28226 13.35679,8.02734 9.71377,12.25211c-4.07543,4.72622 -5.37806,3.31205 -14.76269,-3.92194c-10.69083,-8.24087 -13.82509,-7.55406 -9.61024,-12.95159c2.46119,-3.15179 8.81052,0.33918 14.65915,4.62142z" data-paper-data="{&quot;origRot&quot;:0,&quot;origPos&quot;:null}"/></g></g><path d="M214.99749,215.04275l5.50455,-6.68229l-1.79265,-7.64946l6.62667,4.64611l6.78713,-4.41605l-1.49673,8.01445l7.64814,5.36114l-9.16,0.41944l-3.74097,7.5283l-2.422,-8.00183z" data-paper-data="{&quot;origPos&quot;:null,&quot;origRot&quot;:0}" fill="#ffe008" stroke-width="NaN"/></g><g data-paper-data="{&quot;origPos&quot;:null,&quot;origRot&quot;:0}" stroke="none" stroke-width="0" stroke-linecap="butt"><path d="M308.83071,170.1855c4.56618,-0.16842 6.44567,-5.29622 7.46764,-5.11737c4.13492,0.7236 7.02149,2.74553 8.85014,9.6537c2.2652,8.55731 1.57957,15.23584 -3.03788,22.78819c-3.14488,5.1438 -5.70021,0.52644 -11.35982,-1.55152c-2.03082,-0.74564 -4.69417,-1.31867 -10.09775,-1.91532c-6.75589,-0.74598 -24.99374,-5.96439 -24.99374,-5.96439c0,0 -0.23198,-15.30334 7.02382,-20.58174c6.34313,-4.61445 15.59231,3.0778 26.14757,2.68846z" data-paper-data="{&quot;origPos&quot;:null}" fill="#5063f7"/><path d="M331.15232,163.41779c3.89788,0.06967 5.66349,4.06891 6.63039,7.84559c0.63365,2.47503 0.07057,14.41396 -3.5072,20.27945c-1.11075,1.82097 -3.58433,3.27173 -3.58433,3.27173c0,0 0.66939,5.04952 -0.78686,5.00902c-1.15599,-0.03214 -3.12535,-0.03824 -3.70536,-1.16929c-2.49667,-4.86862 -2.28633,-16.29139 -2.18855,-21.76196c0.13423,-7.50988 3.33177,-13.54263 7.14194,-13.47453z" data-paper-data="{&quot;origPos&quot;:null}" fill="#f8dca0"/><path d="M326.28967,161.4461c4.53807,1.44785 7.71772,6.07251 7.56597,14.56253c-0.15175,8.49002 -5.23828,17.48418 -5.23828,17.48418c0,0 0.21373,6.15223 -1.36547,6.24839c-3.2685,0.19904 -8.5951,0.16262 -8.74715,-1.07586c-0.56131,-4.57212 0.04076,-3.69993 -1.12772,-9.68639c-0.75654,-3.87594 -4.32076,-10.39252 -4.25019,-14.34098c0.15175,-8.49002 5.6908,-15.5758 13.16284,-13.19188z" data-paper-data="{&quot;origPos&quot;:null}" fill="#8d6431"/></g><g data-paper-data="{&quot;origPos&quot;:null,&quot;origRot&quot;:0}" stroke="none" stroke-width="0" stroke-linecap="butt"><path d="M310.48255,196.0622c4.56646,0.16059 6.81005,-4.81866 7.81652,-4.56674c4.07212,1.01927 6.80573,3.24367 8.13254,10.26552c1.64356,8.69813 0.47912,15.31001 -4.66981,22.51051c-3.50687,4.90416 -5.72332,0.11489 -11.21873,-2.36493c-1.9719,-0.88984 -4.58711,-1.65303 -9.93374,-2.63698c-6.6847,-1.23019 -24.49977,-7.74745 -24.49977,-7.74745c0,0 0.59707,-7.30834 1.96417,-12.21862c1.07888,-3.87512 5.29932,-10.20307 5.29932,-10.20307c0,0 16.55357,6.59054 27.1095,6.96176z" data-paper-data="{&quot;origPos&quot;:null}" fill="#5063f7"/><path d="M333.23329,190.91828c3.88276,0.34997 5.35602,4.46589 6.04864,8.30236c0.4539,2.51421 -0.96683,14.38167 -4.95739,19.97449c-1.2389,1.73632 -3.81046,3.00534 -3.81046,3.00534c0,0 0.3043,5.08459 -1.14526,4.93941c-1.15067,-0.11524 -3.1145,-0.26303 -3.61161,-1.43289c-2.13985,-5.03566 -1.1081,-16.41368 -0.61692,-21.86304c0.67428,-7.48075 4.29764,-13.26776 8.09303,-12.92567z" data-paper-data="{&quot;origPos&quot;:null}" fill="#f8dca0"/><path d="M328.52512,188.60179c4.42213,1.77066 7.26074,6.61212 6.49846,15.06921c-0.76228,8.45709 -6.48284,17.06193 -6.48284,17.06193c0,0 -0.22954,6.15165 -1.81156,6.13393c-3.27435,-0.03667 -8.58452,-0.45629 -8.64706,-1.7025c-0.23085,-4.60066 0.30691,-3.68741 -0.42777,-9.74243c-0.47567,-3.92033 -3.56172,-10.6765 -3.20722,-14.60964c0.76228,-8.45709 6.79686,-15.1259 14.078,-12.2105z" data-paper-data="{&quot;origPos&quot;:null}" fill="#8d6431"/></g><g data-paper-data="{&quot;origPos&quot;:null,&quot;origRot&quot;:0}"><path d="M261.45919,164.21951c21.16183,-0.80547 30.55106,6.76583 30.74744,27.70422c0.20575,21.93667 -12.33199,23.44555 -22.49208,23.6442c-11.02201,0.2155 -20.02783,1.32324 -27.20932,-7.0408c-5.35043,-6.23147 -3.04133,-13.1584 -3.20189,-21.37012c-0.29689,-15.18492 1.41253,-22.14796 22.15584,-22.9375z" data-paper-data="{&quot;origPos&quot;:null}" fill="#5063f7" stroke="none" stroke-width="0" stroke-linecap="butt"/><path d="M260.85441,163.98129c0,0 2.33671,17.20146 2.97427,29.34747c0.58479,11.14081 -2.96146,22.46218 -2.96146,22.46218c0,0 -13.77372,1.25597 -19.2929,-6.60874c-3.61103,-5.14565 -4.87486,-10.98718 -5.20296,-18.5172c-0.3281,-7.53003 1.83124,-15.76771 4.82952,-19.62022c7.08232,-9.10007 19.65352,-7.06349 19.65352,-7.06349z" data-paper-data="{&quot;origPos&quot;:null}" fill="#41c3ff" stroke="none" stroke-width="0" stroke-linecap="butt"/><path d="M240.02133,178.28346c0,0 6.79713,-2.2736 10.90082,-2.78568c5.27087,-0.65773 15.2169,0.28255 15.2169,0.28255" data-paper-data="{&quot;origPos&quot;:null,&quot;origRot&quot;:0}" fill="none" stroke="#5063f7" stroke-width="10" stroke-linecap="round"/><path d="M240.95038,199.77722c0,0 7.03367,-1.37761 11.16912,-1.35595c5.31167,0.02781 15.05325,2.24351 15.05325,2.24351" data-paper-data="{&quot;origPos&quot;:null}" fill="none" stroke="#5063f7" stroke-width="10" stroke-linecap="round"/><path d="M270.82938,202.81024l-4.17389,-0.39704l-2.58349,2.79337l0.06765,-3.91883l-3.61224,-1.52617l3.62178,-1.57238l0.07764,-4.52258l2.65189,3.56195l4.03522,-0.54001l-2.55425,3.14144z" data-paper-data="{&quot;origPos&quot;:null,&quot;origRot&quot;:0}" fill="#ffe008" stroke="none" stroke-width="NaN" stroke-linecap="butt"/><path d="M270.09113,177.42688l-4.18883,0.18076l-2.17477,3.12212l-0.47194,-3.89089l-3.78783,-1.01488l3.37113,-2.05555l-0.5451,-4.49027l3.11655,3.16338l3.92259,-1.08985l-2.09793,3.46288z" data-paper-data="{&quot;origPos&quot;:null,&quot;origRot&quot;:0}" fill="#ffe008" stroke="none" stroke-width="NaN" stroke-linecap="butt"/></g><g data-paper-data="{&quot;origPos&quot;:null,&quot;origRot&quot;:0,&quot;index&quot;:null}" stroke="none" stroke-linecap="butt"><g data-paper-data="{&quot;origPos&quot;:null}" stroke-width="0"><path d="M238.21576,234.75337l-10.91805,-11.63182c0,0 5.66641,-7.45792 12.68683,-14.20068c7.02041,-6.74278 21.04382,-7.72009 18.46977,5.56674c3.68222,3.83384 1.05746,-1.15599 -5.96295,5.58679z" data-paper-data="{&quot;origRot&quot;:0,&quot;origPos&quot;:null}" fill="#41c3ff"/><g data-paper-data="{&quot;origPos&quot;:null}" fill="#ffffff"><path d="M231.76897,253.27494c-7.14841,8.5101 -13.58385,1.8231 -21.88117,-4.18709c-7.60364,-5.50772 -6.59325,-19.57433 -1.47829,-24.61271c7.05063,-6.94504 15.09684,1.44966 21.28336,8.51203c6.18652,7.06238 8.75081,12.3416 2.07609,20.28777z" data-paper-data="{&quot;origRot&quot;:0,&quot;origPos&quot;:null}"/><path d="M240.63472,241.06532c-5.00294,4.67644 -4.5965,1.49365 -13.75202,-8.4251c-8.03691,-8.70689 -9.56091,-9.87912 -5.2143,-14.35721c3.88542,-4.00296 8.28092,3.14392 13.06446,8.59019c4.78353,5.44628 8.82324,11.46142 5.90187,14.19213z" data-paper-data="{&quot;origRot&quot;:0,&quot;origPos&quot;:null}"/></g></g><path d="M208.21503,239.71264l7.24212,-4.74391l0.56233,-7.83657l4.94598,6.40598l7.79305,-2.19882l-3.81148,7.20722l5.70871,7.39233l-8.87061,-2.32248l-5.80975,6.07592l0.06617,-8.36009z" data-paper-data="{&quot;origPos&quot;:null,&quot;origRot&quot;:0}" fill="#ffe008" stroke-width="NaN"/></g><g data-paper-data="{&quot;origPos&quot;:null,&quot;origRot&quot;:0}"><path d="M182.68025,155.83253c3.83517,-0.05543 10.4162,10.33608 11.8627,19.12789c1.16559,7.08445 -5.78864,6.42499 -9.38537,7.01676c-3.59672,0.59176 -5.09644,-13.42096 -6.26204,-20.50541c-1.16559,-7.08445 1.30224,-5.60336 3.7847,-5.63924z" data-paper-data="{&quot;origPos&quot;:null}" fill="#297299" stroke="none" stroke-width="0" stroke-linecap="butt"/><path d="M235.71429,223.27429c-1.04415,2.08013 -3.20851,2.90157 -6.15224,1.87847c-3.41547,-1.18704 -8.28469,0.2673 -7.24054,-1.81283c0,0 -0.1661,-7.30284 2.5986,-8.32343c0,0 7.75039,-4.36687 9.27225,-3.35032c0,0 1.59355,1.54356 2.13111,6.16294c0.29126,2.50285 0.435,3.36504 -0.60916,5.44516z" data-paper-data="{&quot;origRot&quot;:0,&quot;origPos&quot;:null}" fill="#e7be7a" stroke="none" stroke-width="0" stroke-linecap="butt"/><path d="M196.04043,222.9709c0.29339,-4.42023 -8.18569,-36.39694 -8.80854,-42.16615c-0.9215,-8.53545 7.09777,-7.45321 15.44964,-9.44055c9.60285,-2.28501 12.91248,-9.789 22.59851,-7.88728c3.73451,0.73322 7.00449,4.49355 9.81375,7.06107c1.59367,1.45654 5.88167,3.09855 7.85204,13.70764c-0.64868,19.27752 -4.68259,25.27831 -8.08704,29.05931c-3.20792,3.85921 -4.65426,2.7086 -8.88201,6.6221c-1.29596,1.19964 -1.8842,2.46608 -1.85262,2.65803c1.68359,10.23285 -5.84372,17.24896 -13.83643,18.56398c-7.99272,1.31503 -15.07293,-1.27085 -16.01437,-6.99291c-0.94144,-5.72206 1.66508,-9.64831 1.76708,-11.18526z" data-paper-data="{&quot;origPos&quot;:null}" fill="#ffdebd" stroke="none" stroke-width="0" stroke-linecap="butt"/><path d="M193.35542,174.58153c4.76679,-1.14136 9.20444,0.32813 9.91175,3.2822c0.70732,2.95407 -2.58353,6.27406 -7.35031,7.41541c-4.76679,1.14136 -9.20443,-0.32814 -9.91175,-3.2822c-0.70732,-2.95407 2.58353,-6.27407 7.35031,-7.41542z" data-paper-data="{&quot;origPos&quot;:null,&quot;origRot&quot;:0}" fill="#ffffff" stroke="none" stroke-width="0" stroke-linecap="butt"/><path d="M202.07009,211.42889c2.57389,-0.42348 9.26461,-5.43421 10.77087,-3.30455c1.75226,2.47748 -2.31955,3.97315 -1.05178,7.46765c0.94175,2.59588 -3.99469,5.1743 -8.35436,5.89159c-4.35967,0.71729 -8.58011,1.42858 -9.12855,-1.27783c-2.30911,-11.39486 3.40416,-8.05957 7.76382,-8.77686z" data-paper-data="{&quot;origPos&quot;:null}" fill="#e7be7a" stroke="none" stroke-width="0" stroke-linecap="butt"/><path d="M200.40801,186.61948c4.71089,-1.35369 9.20989,-0.08442 10.0488,2.835c0.83891,2.91943 -2.29995,6.38348 -7.01084,7.73717c-4.71089,1.35369 -9.20989,0.08442 -10.0488,-2.835c-0.83891,-2.91943 2.29995,-6.38348 7.01084,-7.73717z" data-paper-data="{&quot;origPos&quot;:null,&quot;origRot&quot;:0}" fill="#ffffff" stroke="none" stroke-width="0" stroke-linecap="butt"/><path d="M194.87583,190.86693c-0.15455,-0.93937 0.39129,-1.90277 1.39693,-2.70163c1.00581,-0.79787 2.47242,-1.43138 4.16072,-1.70915c1.6883,-0.27777 3.28057,-0.14754 4.48899,0.28603c1.20858,0.43456 2.0343,1.17229 2.18886,2.11166c0.15455,0.93937 -0.39129,1.90277 -1.39693,2.70163c-1.00581,0.79787 -2.47242,1.43138 -4.16072,1.70915c-1.6883,0.27777 -3.28057,0.14754 -4.48899,-0.28603c-1.20858,-0.43456 -2.0343,-1.17229 -2.18886,-2.11166z" data-paper-data="{&quot;origPos&quot;:null}" id="ID0.2989244391210377" fill="#000000" stroke="#ffe008" stroke-width="2" stroke-linecap="butt"/><path d="M188.76907,178.6969c-0.15455,-0.93937 0.39129,-1.90277 1.39693,-2.70163c1.00581,-0.79787 2.44798,-1.2941 4.16072,-1.70915c2.83233,-0.68636 6.74083,1.01682 7.10128,1.68618c0.46046,1.19713 -0.90692,2.35779 -2.37762,3.61731c-1.47069,1.25952 -2.56454,1.32485 -3.60348,1.50497c-1.47898,0.25651 -3.28057,0.14754 -4.48899,-0.28603c-1.20858,-0.43456 -2.0343,-1.17229 -2.18886,-2.11166z" data-paper-data="{&quot;origPos&quot;:null}" id="ID0.2989244391210377" fill="#000000" stroke="#ffe008" stroke-width="2" stroke-linecap="round"/><path d="M158.30347,174.1389c14.3573,-4.79088 15.66485,-2.07853 21.6893,5.06775c8.77812,10.41272 9.8701,25.74279 17.2406,37.19512c1.93529,3.00708 -0.11472,11.82026 0.46582,15.34883c1.18739,7.21695 -3.30053,12.13774 -9.39503,13.44676c-13.44308,2.88739 -14.59349,-3.77673 -15.78089,-10.99369c0,0 0.00968,-8.15907 3.77207,-11.59582c0,0 -19.79518,-8.09131 -23.93243,-19.37319c-5.3258,-14.52294 -4.36987,-25.65527 5.94056,-29.09576z" data-paper-data="{&quot;origPos&quot;:null}" fill="#41c3ff" stroke="none" stroke-width="0" stroke-linecap="butt"/><path d="M167.18554,175.6104c5.39509,-0.88764 9.6916,-0.1117 11.74928,10.43093c2.17225,11.12963 -2.39296,12.75773 -7.78805,13.64538c-5.39509,0.88764 -10.65542,-3.78244 -11.74928,-10.43093c-1.09386,-6.64849 2.39296,-12.75773 7.78805,-13.64538z" data-paper-data="{&quot;origPos&quot;:null}" fill="#ffffff" stroke="none" stroke-width="0" stroke-linecap="butt"/><path d="M180.54317,155.77876c0.87956,0.05798 12.80091,37.76567 15.76383,48.38266c1.44003,5.15999 2.77014,15.86069 1.89058,15.80271c-3.25143,-0.21432 -8.59096,-1.42915 -11.0512,-6.18798c-2.97306,-5.75079 -11.71339,-25.73489 -14.04114,-41.37144c-0.95157,-6.39214 4.18649,-16.84027 7.43792,-16.62595z" data-paper-data="{&quot;origPos&quot;:null}" fill="#349fc7" stroke="none" stroke-width="0" stroke-linecap="butt"/><path d="M176.05358,191.07196l-3.4436,0.37555l-1.56261,-4.90868l-1.51053,1.71917l0.1403,3.65131l-2.65031,2.45627l-3.09861,-1.47208l-2.50609,-7.59351l2.94644,-2.24066l1.75341,7.13518l0.83896,-4.32554l2.00764,-3.43578l2.50542,-0.70532l1.99112,1.95181z" data-paper-data="{&quot;origPos&quot;:null,&quot;origRot&quot;:0}" fill="#ffe008" stroke="none" stroke-width="0" stroke-linecap="butt"/><path d="M230.95381,167.82377c0.72178,3.14183 0.5587,7.85955 0.5543,15.46415c-0.0057,9.86013 -6.5305,12.33309 -6.5305,12.33309c0,0 -0.72272,3.81403 -1.52086,6.00152c-0.62474,1.71225 -6.46608,0.73342 -6.76591,-0.08273c-1.74624,-4.75333 2.33884,-6.92729 3.75451,-11.03419c0,0 2.07664,-13.29541 0.77162,-19.13236c0,0 -6.016,-8.77859 -6.30587,-11.75868c-0.14376,-1.47799 2.91852,-1.99164 4.54187,-1.785c0,0 4.35492,0.59699 6.15222,2.45506c1.7973,1.85807 4.62684,4.39732 5.34861,7.53914z" data-paper-data="{&quot;origPos&quot;:null}" fill="#e7be7a" stroke="none" stroke-width="0" stroke-linecap="butt"/><path d="M209.01915,161.09546c6.6114,-0.58104 10.79439,-2.91855 12.88181,11.30872c0.96207,6.55722 -2.09001,13.51864 -7.88019,14.47129c-5.79017,0.95265 -13.97415,-4.1794 -15.55474,-10.61558c-2.30302,-9.37793 -0.02413,-14.23484 10.55312,-15.16442z" data-paper-data="{&quot;origPos&quot;:null}" fill="#ffdebd" stroke="none" stroke-width="0" stroke-linecap="butt"/><g data-paper-data="{&quot;origPos&quot;:null}" fill="none" stroke="#f6b09a" stroke-width="3.5" stroke-linecap="round"><path d="M204.99788,235.55967c0,0 -2.18809,-2.64316 0.08692,-6.86011c3.26275,-6.0478 10.85662,-4.06141 10.85662,-4.06141" data-paper-data="{&quot;origPos&quot;:null}"/><path d="M210.20841,225.87094l0.97407,5.9204" data-paper-data="{&quot;origPos&quot;:null}"/><path d="M216.43032,226.72938l-0.20873,-1.26865" data-paper-data="{&quot;origPos&quot;:null}"/></g><path d="M191.46564,197.85052c0.62818,1.2909 0.80939,1.19507 2.1718,1.64772c1.40551,0.46696 3.3082,1.63114 3.3082,1.63114c0,0 -3.34219,2.02782 -5.99886,2.46492c-1.80385,0.29678 -5.10915,-0.16612 -6.19715,-2.8427c-1.86397,-9.35258 7.44942,-8.00965 7.44942,-8.00965c0,0 -1.43184,3.75963 -0.7334,5.10858z" data-paper-data="{&quot;origPos&quot;:null}" fill="#38291e" stroke="none" stroke-width="0" stroke-linecap="butt"/><path d="M185.89461,181.27426c0.33416,1.48182 3.85044,3.4365 3.85044,3.4365c0,0 -6.26125,7.02421 -10.857,-1.33189c-0.89093,-2.74847 1.34,-5.23087 2.91126,-6.16524c2.31413,-1.37613 6.17701,-1.97655 6.17701,-1.97655c0,0 -0.70622,2.11585 -1.48096,3.37811c-0.75097,1.22355 -0.95133,1.26691 -0.60079,2.65908z" data-paper-data="{&quot;origPos&quot;:null,&quot;index&quot;:null,&quot;origRot&quot;:0}" fill="#38291e" stroke="none" stroke-width="0" stroke-linecap="butt"/></g></g></g></svg>