<svg version="1.1" xmlns="http://www.w3.org/2000/svg" xmlns:xlink="http://www.w3.org/1999/xlink" width="59.11979" height="56.68221"><defs><radialGradient cx="240.97546" cy="180.20963" r="38.90847" gradientUnits="userSpaceOnUse" id="color-1"><stop offset="0" stop-color="#fff343"/><stop offset="1" stop-color="#fff343" stop-opacity="0"/></radialGradient><linearGradient x1="213.80241" y1="155.26757" x2="213.80241" y2="205.08244" gradientUnits="userSpaceOnUse" id="color-2"><stop offset="0" stop-color="#fff01b"/><stop offset="1" stop-color="#ffa30a"/></linearGradient><linearGradient x1="241.87659" y1="173.90098" x2="241.87659" y2="184.70206" gradientUnits="userSpaceOnUse" id="color-3"><stop offset="0" stop-color="#000000"/><stop offset="1" stop-color="#674205"/></linearGradient><linearGradient x1="232.78958" y1="173.85186" x2="232.78958" y2="184.65294" gradientUnits="userSpaceOnUse" id="color-4"><stop offset="0" stop-color="#000000"/><stop offset="1" stop-color="#674205"/></linearGradient></defs><g transform="translate(-210.4401,-151.65889)"><g data-paper-data="{&quot;isPaintingLayer&quot;:true}" fill="none" fill-rule="nonzero" stroke="none" stroke-width="none" stroke-linecap="none" stroke-linejoin="miter" stroke-miterlimit="10" stroke-dasharray="" stroke-dashoffset="0" font-family="none" font-weight="none" font-size="none" text-anchor="none" style="mix-blend-mode: normal"><path d="M211.48831,174.58806l-1.0482,-1.35293l0.9085,-2.7772l1.60727,-0.71203c0,0 10.52326,2.39728 15.47902,-1.08284c4.95576,-3.48013 8.35059,-15.65123 8.35059,-15.65123l1.60728,-1.35294l1.60728,0.07113l1.95661,1.49538c0,0 3.68157,10.88692 9.34271,14.57429c5.66114,3.68736 15.25562,1.44775 15.25562,1.44775l1.67722,0.99692l1.32769,1.63783l-1.32769,2.91954c0,0 -6.99149,6.14804 -8.27438,11.5388c-1.28289,5.39076 1.49586,16.94474 1.49586,16.94474l0.1397,2.70588l-1.74696,0.92569l-3.07485,-0.56958c0,0 -8.71874,-10.22929 -16.07273,-9.87748c-7.35399,0.35181 -13.69675,11.30163 -13.69675,11.30163l-3.07475,0.56969l-2.23629,-1.21059l-0.76862,-3.34677c0,0 2.57925,-9.61229 0.741,-15.30112c-1.83825,-5.68883 -10.17511,-13.89456 -10.17511,-13.89456z" data-paper-data="{&quot;origPos&quot;:null}" id="ID0.3117544511333108" fill="url(#color-1)" stroke-width="1.43627" stroke-linecap="round"/><path d="M214.74108,175.41875l-0.93867,-1.18897l0.81351,-2.44073l1.43938,-0.62577c0,0 8.99124,1.03116 13.31581,-1.94912c4.32457,-2.98028 8.02445,-12.75752 8.02445,-12.75752l1.43938,-1.18907l1.43939,0.06258l1.75227,1.31423c0,0 3.69845,8.86371 8.52507,11.94891c4.82662,3.0852 13.50364,2.13194 13.50364,2.13194l1.50196,0.87609l1.18897,1.43938l-1.18897,2.56588c0,0 -5.64717,6.10955 -6.84118,11.03328c-1.19401,4.92373 0.77075,13.99925 0.77075,13.99925l0.12515,2.37815l-1.56454,0.81351l-2.75362,-0.50062c0,0 -8.02154,-8.80637 -14.61031,-8.49704c-6.58877,0.30934 -12.04934,9.74869 -12.04934,9.74869l-2.75362,0.50062l-2.00258,-1.06392l-0.68835,-2.94135c0,0 1.41812,-8.82071 -0.29326,-14.01818c-1.71138,-5.19747 -8.1553,-11.64023 -8.1553,-11.64023z" data-paper-data="{&quot;origPos&quot;:null}" id="ID0.3117544511333108" fill="url(#color-2)" stroke-width="1.27408" stroke-linecap="round"/><g data-paper-data="{&quot;origPos&quot;:null}" id="ID0.4398073833435774" stroke-width="2.7674"><path d="M244.08597,173.90196c0.68982,-0.02662 1.37731,0.54444 1.66691,1.2487c0.52538,1.27817 0.58186,2.80204 0.54257,4.22532c-0.02701,1.31374 0.05308,1.66123 -0.44774,2.83596c-0.28725,0.68943 -3.38552,0.39887 -3.73898,-0.4947c-0.45169,-1.13032 -0.23214,-0.89736 -0.23214,-2.4892c0,-1.59194 0.16445,-2.8938 0.66527,-4.07737c0.3289,-0.78119 0.95742,-1.27532 1.54411,-1.2487z" data-paper-data="{&quot;origPos&quot;:null}" id="ID0.6670762049034238" fill="url(#color-3)" stroke-linecap="round"/><path d="M244.19325,174.73876c0.35602,0 0.67755,0.17457 0.91077,0.45563c0.23322,0.28116 0.37812,0.66881 0.37812,1.09781c0,0.429 -0.1449,0.81665 -0.37812,1.09772c-0.23322,0.28116 -0.55474,0.45572 -0.91077,0.45572c-0.35592,0 -0.67755,-0.17457 -0.91077,-0.45572c-0.23322,-0.28105 -0.37802,-0.66871 -0.37802,-1.09772c0,-0.429 0.14481,-0.81665 0.37802,-1.09781c0.23322,-0.28105 0.55484,-0.45563 0.91077,-0.45563z" id="ID0.2271407265216112" fill="#ffffff" stroke-linecap="butt"/></g><g data-paper-data="{&quot;origPos&quot;:null}" id="ID0.4398073833435774" stroke-width="2.7674"><path d="M234.99895,173.85284c0.68982,-0.02662 1.3773,0.54444 1.6669,1.2487c0.52538,1.27817 0.58186,2.80204 0.54257,4.22532c-0.02701,1.31374 0.05309,1.51685 -0.44773,2.69158c-0.28725,0.68943 -3.09676,0.97639 -3.45023,0.08282c-0.45169,-1.13032 -0.52089,-1.33049 -0.52089,-2.92234c0,-1.59194 0.16445,-2.8938 0.66527,-4.07737c0.3289,-0.78119 0.95742,-1.27532 1.54411,-1.2487z" data-paper-data="{&quot;origPos&quot;:null}" id="ID0.6670762049034238" fill="url(#color-4)" stroke-linecap="round"/><path d="M235.15533,174.64052c0.35602,0 0.67755,0.17457 0.91077,0.45563c0.23322,0.28116 0.37812,0.66881 0.37812,1.09781c0,0.429 -0.1449,0.81665 -0.37812,1.09772c-0.23322,0.28116 -0.55475,0.45573 -0.91077,0.45573c-0.35592,0 -0.67755,-0.17457 -0.91077,-0.45573c-0.23322,-0.28105 -0.37802,-0.66871 -0.37802,-1.09772c0,-0.429 0.1448,-0.81665 0.37802,-1.09781c0.23322,-0.28105 0.55485,-0.45563 0.91077,-0.45563z" id="ID0.2271407265216112" fill="#ffffff" stroke-linecap="butt"/></g></g></g></svg>