<svg version="1.1" xmlns="http://www.w3.org/2000/svg" xmlns:xlink="http://www.w3.org/1999/xlink" width="669.03896" height="378.54597" viewBox="0,0,669.03896,378.54597"><defs><radialGradient cx="566.71366" cy="14.69502" r="751.31071" gradientUnits="userSpaceOnUse" id="color-1"><stop offset="0" stop-color="#2f6aa5"/><stop offset="1" stop-color="#031c3f"/></radialGradient><radialGradient cx="341.44435" cy="141.72703" r="266.55517" gradientUnits="userSpaceOnUse" id="color-2"><stop offset="0" stop-color="#265d99"/><stop offset="1" stop-color="#265d99" stop-opacity="0"/></radialGradient><radialGradient cx="294.85907" cy="176.72703" r="261.05517" gradientUnits="userSpaceOnUse" id="color-3"><stop offset="0" stop-color="#2c68a8"/><stop offset="1" stop-color="#2c68a8" stop-opacity="0"/></radialGradient><linearGradient x1="-83.14093" y1="238.79842" x2="-83.14093" y2="394.79853" gradientUnits="userSpaceOnUse" id="color-4"><stop offset="0" stop-color="#000000" stop-opacity="0"/><stop offset="1" stop-color="#000000"/></linearGradient><linearGradient x1="242.85907" y1="359.72703" x2="242.85907" y2="249.72703" gradientUnits="userSpaceOnUse" id="color-5"><stop offset="0" stop-color="#02142d"/><stop offset="1" stop-color="#02142d" stop-opacity="0"/></linearGradient><linearGradient x1="241.85907" y1="15.72702" x2="241.85907" y2="120.72703" gradientUnits="userSpaceOnUse" id="color-6"><stop offset="0" stop-color="#02142d"/><stop offset="1" stop-color="#02142d" stop-opacity="0"/></linearGradient><linearGradient x1="-83.14093" y1="185.72703" x2="104.85907" y2="185.72703" gradientUnits="userSpaceOnUse" id="color-7"><stop offset="0" stop-color="#02142d"/><stop offset="1" stop-color="#02142d" stop-opacity="0"/></linearGradient><linearGradient x1="569.85905" y1="165.72703" x2="382.85907" y2="165.72703" gradientUnits="userSpaceOnUse" id="color-8"><stop offset="0" stop-color="#02142d"/><stop offset="1" stop-color="#02142d" stop-opacity="0"/></linearGradient><linearGradient x1="-83.14093" y1="68.72702" x2="-83.14093" y2="-2.27298" gradientUnits="userSpaceOnUse" id="color-9"><stop offset="0" stop-color="#346dce"/><stop offset="1" stop-color="#28549f"/></linearGradient><linearGradient x1="244.35907" y1="-9.27298" x2="244.35907" y2="28.72702" gradientUnits="userSpaceOnUse" id="color-10"><stop offset="0" stop-color="#1c3c72"/><stop offset="1" stop-color="#1c3c72" stop-opacity="0"/></linearGradient><linearGradient x1="-80.14093" y1="293.72703" x2="-80.14093" y2="364.72703" gradientUnits="userSpaceOnUse" id="color-11"><stop offset="0" stop-color="#3c94ed"/><stop offset="1" stop-color="#307cb7"/></linearGradient><linearGradient x1="245.35907" y1="367.72703" x2="245.35907" y2="329.72703" gradientUnits="userSpaceOnUse" id="color-12"><stop offset="0" stop-color="#276495"/><stop offset="1" stop-color="#276495" stop-opacity="0"/></linearGradient><radialGradient cx="235.18971" cy="180.00001" r="817.10868" gradientUnits="userSpaceOnUse" id="color-13"><stop offset="0" stop-color="#1c3c73" stop-opacity="0"/><stop offset="1" stop-color="#1c3c73"/></radialGradient><radialGradient cx="235.18971" cy="180.00001" r="817.10868" gradientUnits="userSpaceOnUse" id="color-14"><stop offset="0" stop-color="#1c3c73" stop-opacity="0"/><stop offset="1" stop-color="#1c3c73"/></radialGradient></defs><g transform="translate(94.51947,9.27298)"><g data-paper-data="{&quot;isPaintingLayer&quot;:true}" fill-rule="nonzero" stroke="none" stroke-linecap="butt" stroke-linejoin="miter" stroke-miterlimit="10" stroke-dasharray="" stroke-dashoffset="0" style="mix-blend-mode: normal"><path d="M-87.14093,0.72702h658v360h-658z" fill="url(#color-1)" stroke-width="1"/><path d="M519.85905,176.248c0,25.04909 -61.6965,15.73684 -96.93411,23.83926c-35.09166,8.06885 -51.71992,14.31419 -87.12664,21.73422c-70.67987,14.81206 -75.17335,16.16406 -124.05776,14.43634c-48.88441,-1.72771 -74.02554,-15.47058 -98.4243,-22.70085c-24.39877,-7.23026 -55.67849,-16.76378 -99.72472,-22.24533c-18.82155,-2.34234 -28.04026,-4.49794 -26.7182,-17.34232c1.12921,-10.97076 27.92374,-16.82677 79.13576,-14.63839c32.92994,1.40715 81.33825,-15.24393 113.59353,-19.92135c29.66552,-4.30188 58.09619,-14.81152 88.44327,-14.81152c0,0 40.6068,-3.93561 81.09245,12.65781c17.02602,6.97827 37.93791,18.45065 55.20751,25.15265c30.12689,11.69167 115.51323,1.6742 115.51323,13.83948z" data-paper-data="{&quot;origPos&quot;:null}" fill="url(#color-2)" stroke-width="0"/><path d="M81.8785,170.11135c16.91326,-3.57738 37.39366,-9.70109 54.06837,-13.42595c39.65029,-8.85722 79.41922,-6.75647 79.41922,-6.75647c29.72091,0 57.56495,5.60982 86.61836,7.90607c31.58973,2.49671 78.9992,11.38471 111.24968,10.6336c50.15533,-1.16811 76.397,1.95771 77.50291,7.81367c1.29477,6.85606 -7.73372,8.00667 -26.16691,9.25696c-43.1374,2.92594 -73.77171,8.01472 -97.66704,11.87409c-23.89533,3.85936 -48.5177,11.19501 -96.39345,12.11723c-47.87575,0.92222 -52.27651,0.20055 -121.498,-7.70582c-34.67615,-3.96065 -50.96132,-7.29428 -85.3289,-11.60126c-34.51053,-4.3249 -94.93401,0.64578 -94.93401,-12.72489c0,-6.49357 83.6245,-1.14646 113.12977,-7.38722z" data-paper-data="{&quot;origPos&quot;:null,&quot;index&quot;:null}" fill="url(#color-3)" stroke-width="0"/><g data-paper-data="{&quot;index&quot;:null}" stroke-width="0.5"><path d="M557.60805,235.07758c-0.27614,0 -0.5,-0.22386 -0.5,-0.5c0,-0.27614 0.22386,-0.5 0.5,-0.5c0.27614,0 0.5,0.22386 0.5,0.5c0,0.27614 -0.22386,0.5 -0.5,0.5z" fill="#ffffff"/><path d="M415.55804,119.57802c-0.27614,0 -0.5,-0.22386 -0.5,-0.5c0,-0.27614 0.22386,-0.5 0.5,-0.5c0.27614,0 0.5,0.22386 0.5,0.5c0,0.27614 -0.22386,0.5 -0.5,0.5z" fill="#c6e9ed"/><path d="M340.558,166.57802c-0.27614,0 -0.5,-0.22386 -0.5,-0.5c0,-0.27614 0.22386,-0.5 0.5,-0.5c0.27614,0 0.5,0.22386 0.5,0.5c0,0.27614 -0.22386,0.5 -0.5,0.5z" fill="#c6e9ed"/><path d="M388.558,174.57802c-0.27614,0 -0.5,-0.22386 -0.5,-0.5c0,-0.27614 0.22386,-0.5 0.5,-0.5c0.27614,0 0.5,0.22386 0.5,0.5c0,0.27614 -0.22386,0.5 -0.5,0.5z" fill="#c6e9ed"/><path d="M284.558,108.57802c-0.27614,0 -0.5,-0.22386 -0.5,-0.5c0,-0.27614 0.22386,-0.5 0.5,-0.5c0.27614,0 0.5,0.22386 0.5,0.5c0,0.27614 -0.22386,0.5 -0.5,0.5z" fill="#c6e9ed"/><path d="M367.558,101.57802c-0.27614,0 -0.5,-0.22386 -0.5,-0.5c0,-0.27614 0.22386,-0.5 0.5,-0.5c0.27614,0 0.5,0.22386 0.5,0.5c0,0.27614 -0.22386,0.5 -0.5,0.5z" fill="#c6e9ed"/><path d="M239.558,177.57802c-0.27614,0 -0.5,-0.22386 -0.5,-0.5c0,-0.27614 0.22386,-0.5 0.5,-0.5c0.27614,0 0.5,0.22386 0.5,0.5c0,0.27614 -0.22386,0.5 -0.5,0.5z" fill="#c6e9ed"/><path d="M277.558,207.57802c-0.27614,0 -0.5,-0.22386 -0.5,-0.5c0,-0.27614 0.22386,-0.5 0.5,-0.5c0.27614,0 0.5,0.22386 0.5,0.5c0,0.27614 -0.22386,0.5 -0.5,0.5z" fill="#c6e9ed"/><path d="M176.55801,213.57802c-0.27614,0 -0.5,-0.22386 -0.5,-0.5c0,-0.27614 0.22386,-0.5 0.5,-0.5c0.27614,0 0.5,0.22386 0.5,0.5c0,0.27614 -0.22386,0.5 -0.5,0.5z" fill="#c6e9ed"/><path d="M207.55801,126.57802c-0.27614,0 -0.5,-0.22386 -0.5,-0.5c0,-0.27614 0.22386,-0.5 0.5,-0.5c0.27614,0 0.5,0.22386 0.5,0.5c0,0.27614 -0.22386,0.5 -0.5,0.5z" fill="#c6e9ed"/><path d="M139.55799,114.57802c-0.27614,0 -0.5,-0.22386 -0.5,-0.5c0,-0.27614 0.22386,-0.5 0.5,-0.5c0.27614,0 0.5,0.22386 0.5,0.5c0,0.27614 -0.22386,0.5 -0.5,0.5z" fill="#c6e9ed"/><path d="M103.55799,155.57802c-0.27614,0 -0.5,-0.22386 -0.5,-0.5c0,-0.27614 0.22386,-0.5 0.5,-0.5c0.27614,0 0.5,0.22386 0.5,0.5c0,0.27614 -0.22386,0.5 -0.5,0.5z" fill="#c6e9ed"/><path d="M113.55799,240.57802c-0.27614,0 -0.5,-0.22386 -0.5,-0.5c0,-0.27614 0.22386,-0.5 0.5,-0.5c0.27614,0 0.5,0.22386 0.5,0.5c0,0.27614 -0.22386,0.5 -0.5,0.5z" fill="#c6e9ed"/><path d="M17.55801,222.57802c-0.27614,0 -0.5,-0.22386 -0.5,-0.5c0,-0.27614 0.22386,-0.5 0.5,-0.5c0.27614,0 0.5,0.22386 0.5,0.5c0,0.27614 -0.22386,0.5 -0.5,0.5z" fill="#c6e9ed"/><path d="M59.558,194.57802c-0.27614,0 -0.5,-0.22386 -0.5,-0.5c0,-0.27614 0.22386,-0.5 0.5,-0.5c0.27614,0 0.5,0.22386 0.5,0.5c0,0.27614 -0.22386,0.5 -0.5,0.5z" fill="#c6e9ed"/><path d="M21.55801,130.57802c-0.27614,0 -0.5,-0.22386 -0.5,-0.5c0,-0.27614 0.22386,-0.5 0.5,-0.5c0.27614,0 0.5,0.22386 0.5,0.5c0,0.27614 -0.22386,0.5 -0.5,0.5z" fill="#c6e9ed"/><path d="M73.55799,101.57802c-0.27614,0 -0.5,-0.22386 -0.5,-0.5c0,-0.27614 0.22386,-0.5 0.5,-0.5c0.27614,0 0.5,0.22386 0.5,0.5c0,0.27614 -0.22386,0.5 -0.5,0.5z" fill="#c6e9ed"/><path d="M199.55801,89.57802c-0.27614,0 -0.5,-0.22386 -0.5,-0.5c0,-0.27614 0.22386,-0.5 0.5,-0.5c0.27614,0 0.5,0.22386 0.5,0.5c0,0.27614 -0.22386,0.5 -0.5,0.5z" fill="#c6e9ed"/><path d="M384.558,275.57802c-0.27614,0 -0.5,-0.22386 -0.5,-0.5c0,-0.27614 0.22386,-0.5 0.5,-0.5c0.27614,0 0.5,0.22386 0.5,0.5c0,0.27614 -0.22386,0.5 -0.5,0.5z" fill="#c6e9ed"/><path d="M436.558,215.57802c-0.27614,0 -0.5,-0.22386 -0.5,-0.5c0,-0.27614 0.22386,-0.5 0.5,-0.5c0.27614,0 0.5,0.22386 0.5,0.5c0,0.27614 -0.22386,0.5 -0.5,0.5z" fill="#c6e9ed"/><path d="M27.55801,287.57802c-0.27614,0 -0.5,-0.22386 -0.5,-0.5c0,-0.27614 0.22386,-0.5 0.5,-0.5c0.27614,0 0.5,0.22386 0.5,0.5c0,0.27614 -0.22386,0.5 -0.5,0.5z" fill="#c6e9ed"/><path d="M459.55803,95.57802c-0.27614,0 -0.5,-0.22386 -0.5,-0.5c0,-0.27614 0.22386,-0.5 0.5,-0.5c0.27614,0 0.5,0.22386 0.5,0.5c0,0.27614 -0.22386,0.5 -0.5,0.5z" fill="#c6e9ed"/><path d="M351.558,251.57802c-0.27614,0 -0.5,-0.22386 -0.5,-0.5c0,-0.27614 0.22386,-0.5 0.5,-0.5c0.27614,0 0.5,0.22386 0.5,0.5c0,0.27614 -0.22386,0.5 -0.5,0.5z" fill="#c6e9ed"/><path d="M221.55801,234.57802c-0.27614,0 -0.5,-0.22386 -0.5,-0.5c0,-0.27614 0.22386,-0.5 0.5,-0.5c0.27614,0 0.5,0.22386 0.5,0.5c0,0.27614 -0.22386,0.5 -0.5,0.5z" fill="#c6e9ed"/><path d="M339.058,213.07802v-0.5c0,-0.16666 0,-0.33334 0,-0.5c0,0 0,-0.5 0.5,-0.5c0.5,0 0.5,0.5 0.5,0.5c0,0.16666 0,0.83334 0,1c0,0 0,0.5 -0.5,0.5c-0.5,0 -0.5,-0.5 -0.5,-0.5z" fill="#c6e9ed"/><path d="M127.55799,194.57802c-0.27614,0 -0.5,-0.22386 -0.5,-0.5c0,-0.27614 0.22386,-0.5 0.5,-0.5c0.27614,0 0.5,0.22386 0.5,0.5c0,0.27614 -0.22386,0.5 -0.5,0.5z" fill="#c6e9ed"/><path d="M376.558,134.32801c-0.69036,0 -1.25,-0.55964 -1.25,-1.25c0,-0.69036 0.55964,-1.25 1.25,-1.25c0.69036,0 1.25,0.55964 1.25,1.25c0,0.69036 -0.55964,1.25 -1.25,1.25z" fill="#c6e9ed"/><path d="M287.558,176.32801c-0.69036,0 -1.25,-0.55964 -1.25,-1.25c0,-0.69036 0.55964,-1.25 1.25,-1.25c0.69036,0 1.25,0.55964 1.25,1.25c0,0.69036 -0.55964,1.25 -1.25,1.25z" fill="#c6e9ed"/><path d="M238.558,105.32801c-0.69036,0 -1.25,-0.55964 -1.25,-1.25c0,-0.69036 0.55964,-1.25 1.25,-1.25c0.69036,0 1.25,0.55964 1.25,1.25c0,0.69036 -0.55964,1.25 -1.25,1.25z" fill="#c6e9ed"/><path d="M168.55801,171.32801c-0.69036,0 -1.25,-0.55964 -1.25,-1.25c0,-0.69036 0.55964,-1.25 1.25,-1.25c0.69036,0 1.25,0.55964 1.25,1.25c0,0.69036 -0.55964,1.25 -1.25,1.25z" fill="#c6e9ed"/><path d="M53.55801,158.32801c-0.69036,0 -1.25,-0.55964 -1.25,-1.25c0,-0.69036 0.55964,-1.25 1.25,-1.25c0.69036,0 1.25,0.55964 1.25,1.25c0,0.69036 -0.55964,1.25 -1.25,1.25z" fill="#c6e9ed"/><path d="M119.55799,92.32801c-0.69036,0 -1.25,-0.55964 -1.25,-1.25c0,-0.69036 0.55964,-1.25 1.25,-1.25c0.69036,0 1.25,0.55964 1.25,1.25c0,0.69036 -0.55964,1.25 -1.25,1.25z" fill="#c6e9ed"/><path d="M58.558,254.32801c-0.69036,0 -1.25,-0.55964 -1.25,-1.25c0,-0.69036 0.55964,-1.25 1.25,-1.25c0.69036,0 1.25,0.55964 1.25,1.25c0,0.69036 -0.55964,1.25 -1.25,1.25z" fill="#c6e9ed"/><path d="M175.55801,254.32801c-0.69036,0 -1.25,-0.55964 -1.25,-1.25c0,-0.69036 0.55964,-1.25 1.25,-1.25c0.69036,0 1.25,0.55964 1.25,1.25c0,0.69036 -0.55964,1.25 -1.25,1.25z" fill="#c6e9ed"/><path d="M283.558,254.32801c-0.69036,0 -1.25,-0.55964 -1.25,-1.25c0,-0.69036 0.55964,-1.25 1.25,-1.25c0.69036,0 1.25,0.55964 1.25,1.25c0,0.69036 -0.55964,1.25 -1.25,1.25z" fill="#c6e9ed"/><path d="M392.558,221.32801c-0.69036,0 -1.25,-0.55964 -1.25,-1.25c0,-0.69036 0.55964,-1.25 1.25,-1.25c0.69036,0 1.25,0.55964 1.25,1.25c0,0.69036 -0.55964,1.25 -1.25,1.25z" fill="#c6e9ed"/><path d="M441.55801,273.32801c-0.69036,0 -1.25,-0.55964 -1.25,-1.25c0,-0.69036 0.55964,-1.25 1.25,-1.25c0.69036,0 1.25,0.55964 1.25,1.25c0,0.69036 -0.55964,1.25 -1.25,1.25z" fill="#c6e9ed"/><path d="M453.558,176.32801c-0.69036,0 -1.25,-0.55964 -1.25,-1.25c0,-0.69036 0.55964,-1.25 1.25,-1.25c0.69036,0 1.25,0.55964 1.25,1.25c0,0.69036 -0.55964,1.25 -1.25,1.25z" fill="#c6e9ed"/><path d="M414.558,98.32801c-0.69036,0 -1.25,-0.55964 -1.25,-1.25c0,-0.69036 0.55964,-1.25 1.25,-1.25c0.69036,0 1.25,0.55964 1.25,1.25c0,0.69036 -0.55964,1.25 -1.25,1.25z" fill="#c6e9ed"/><path d="M317.55802,132.32801c-0.69036,0 -1.25,-0.55964 -1.25,-1.25c0,-0.69036 0.55964,-1.25 1.25,-1.25c0.69036,0 1.25,0.55964 1.25,1.25c0,0.69036 -0.55964,1.25 -1.25,1.25z" fill="#c6e9ed"/><path d="M125.55799,150.32801c-0.69036,0 -1.25,-0.55964 -1.25,-1.25c0,-0.69036 0.55964,-1.25 1.25,-1.25c0.69036,0 1.25,0.55964 1.25,1.25c0,0.69036 -0.55964,1.25 -1.25,1.25z" fill="#c6e9ed"/><path d="M183.55801,108.32801c-0.69036,0 -1.25,-0.55964 -1.25,-1.25c0,-0.69036 0.55964,-1.25 1.25,-1.25c0.69036,0 1.25,0.55964 1.25,1.25c0,0.69036 -0.55964,1.25 -1.25,1.25z" fill="#c6e9ed"/><path d="M86.55799,124.32801c-0.69036,0 -1.25,-0.55964 -1.25,-1.25c0,-0.69036 0.55964,-1.25 1.25,-1.25c0.69036,0 1.25,0.55964 1.25,1.25c0,0.69036 -0.55964,1.25 -1.25,1.25z" fill="#c6e9ed"/><path d="M103.55799,209.32801c-0.69036,0 -1.25,-0.55964 -1.25,-1.25c0,-0.69036 0.55964,-1.25 1.25,-1.25c0.69036,0 1.25,0.55964 1.25,1.25c0,0.69036 -0.55964,1.25 -1.25,1.25z" fill="#c6e9ed"/><path d="M29.55801,282.32801c-0.69036,0 -1.25,-0.55964 -1.25,-1.25c0,-0.69036 0.55964,-1.25 1.25,-1.25c0.69036,0 1.25,0.55964 1.25,1.25c0,0.69036 -0.55964,1.25 -1.25,1.25z" fill="#c6e9ed"/><path d="M406.558,255.32801c-0.69036,0 -1.25,-0.55964 -1.25,-1.25c0,-0.69036 0.55964,-1.25 1.25,-1.25c0.69036,0 1.25,0.55964 1.25,1.25c0,0.69036 -0.55964,1.25 -1.25,1.25z" fill="#c6e9ed"/><path d="M430.558,166.32801c-0.69036,0 -1.25,-0.55964 -1.25,-1.25c0,-0.69036 0.55964,-1.25 1.25,-1.25c0.69036,0 1.25,0.55964 1.25,1.25c0,0.69036 -0.55964,1.25 -1.25,1.25z" fill="#c6e9ed"/><path d="M465.55801,238.32801c-0.69036,0 -1.25,-0.55964 -1.25,-1.25c0,-0.69036 0.55964,-1.25 1.25,-1.25c0.69036,0 1.25,0.55964 1.25,1.25c0,0.69036 -0.55964,1.25 -1.25,1.25z" fill="#c6e9ed"/><path d="M211.55801,204.32801c-0.69036,0 -1.25,-0.55964 -1.25,-1.25c0,-0.69036 0.55964,-1.25 1.25,-1.25c0.69036,0 1.25,0.55964 1.25,1.25c0,0.69036 -0.55964,1.25 -1.25,1.25z" fill="#c6e9ed"/><path d="M246.558,146.32801c-0.69036,0 -1.25,-0.55964 -1.25,-1.25c0,-0.69036 0.55964,-1.25 1.25,-1.25c0.69036,0 1.25,0.55964 1.25,1.25c0,0.69036 -0.55964,1.25 -1.25,1.25z" fill="#c6e9ed"/><path d="M22.55801,95.32801c-0.69036,0 -1.25,-0.55964 -1.25,-1.25c0,-0.69036 0.55964,-1.25 1.25,-1.25c0.69036,0 1.25,0.55964 1.25,1.25c0,0.69036 -0.55964,1.25 -1.25,1.25z" fill="#c6e9ed"/><path d="M26.55801,198.32801c-0.69036,0 -1.25,-0.55964 -1.25,-1.25c0,-0.69036 0.55964,-1.25 1.25,-1.25c0.69036,0 1.25,0.55964 1.25,1.25c0,0.69036 -0.55964,1.25 -1.25,1.25z" fill="#c6e9ed"/><path d="M360.558,199.07801c-1.10457,0 -2,-0.89543 -2,-2c0,-1.10457 0.89543,-2 2,-2c1.10457,0 2,0.89543 2,2c0,1.10457 -0.89543,2 -2,2z" fill="#8ecad1"/><path d="M453.558,127.07801c-1.10457,0 -2,-0.89543 -2,-2c0,-1.10457 0.89543,-2 2,-2c1.10457,0 2,0.89543 2,2c0,1.10457 -0.89543,2 -2,2z" fill="#8ecad1"/><path d="M385.558,83.07801c-1.10457,0 -2,-0.89543 -2,-2c0,-1.10457 0.89543,-2 2,-2c1.10457,0 2,0.89543 2,2c0,1.10457 -0.89543,2 -2,2z" fill="#8ecad1"/><path d="M306.558,195.07801c-1.10457,0 -2,-0.89543 -2,-2c0,-1.10457 0.89543,-2 2,-2c1.10457,0 2,0.89543 2,2c0,1.10457 -0.89543,2 -2,2z" fill="#8ecad1"/><path d="M311.55802,90.07801c-1.10457,0 -2,-0.89543 -2,-2c0,-1.10457 0.89543,-2 2,-2c1.10457,0 2,0.89543 2,2c0,1.10457 -0.89543,2 -2,2z" fill="#8ecad1"/><path d="M255.558,224.07801c-1.10457,0 -2,-0.89543 -2,-2c0,-1.10457 0.89543,-2 2,-2c1.10457,0 2,0.89543 2,2c0,1.10457 -0.89543,2 -2,2z" fill="#8ecad1"/><path d="M199.55801,166.07801c-1.10457,0 -2,-0.89543 -2,-2c0,-1.10457 0.89543,-2 2,-2c1.10457,0 2,0.89543 2,2c0,1.10457 -0.89543,2 -2,2z" fill="#8ecad1"/><path d="M261.558,93.07801c-1.10457,0 -2,-0.89543 -2,-2c0,-1.10457 0.89543,-2 2,-2c1.10457,0 2,0.89543 2,2c0,1.10457 -0.89543,2 -2,2z" fill="#8ecad1"/><path d="M283.558,149.07801c-1.10457,0 -2,-0.89543 -2,-2c0,-1.10457 0.89543,-2 2,-2c1.10457,0 2,0.89543 2,2c0,1.10457 -0.89543,2 -2,2z" fill="#8ecad1"/><path d="M144.55801,227.07801c-1.10457,0 -2,-0.89543 -2,-2c0,-1.10457 0.89543,-2 2,-2c1.10457,0 2,0.89543 2,2c0,1.10457 -0.89543,2 -2,2z" fill="#8ecad1"/><path d="M91.55799,187.07801c-1.10457,0 -2,-0.89543 -2,-2c0,-1.10457 0.89543,-2 2,-2c1.10457,0 2,0.89543 2,2c0,1.10457 -0.89543,2 -2,2z" fill="#8ecad1"/><path d="M168.55801,139.07801c-1.10457,0 -2,-0.89543 -2,-2c0,-1.10457 0.89543,-2 2,-2c1.10457,0 2,0.89543 2,2c0,1.10457 -0.89543,2 -2,2z" fill="#8ecad1"/><path d="M151.55801,90.07801c-1.10457,0 -2,-0.89543 -2,-2c0,-1.10457 0.89543,-2 2,-2c1.10457,0 2,0.89543 2,2c0,1.10457 -0.89543,2 -2,2z" fill="#8ecad1"/><path d="M67.558,88.07801c-1.10457,0 -2,-0.89543 -2,-2c0,-1.10457 0.89543,-2 2,-2c1.10457,0 2,0.89543 2,2c0,1.10457 -0.89543,2 -2,2z" fill="#8ecad1"/><path d="M19.55801,160.07801c-1.10457,0 -2,-0.89543 -2,-2c0,-1.10457 0.89543,-2 2,-2c1.10457,0 2,0.89543 2,2c0,1.10457 -0.89543,2 -2,2z" fill="#8ecad1"/><path d="M155.55801,196.07801c-1.10457,0 -2,-0.89543 -2,-2c0,-1.10457 0.89543,-2 2,-2c1.10457,0 2,0.89543 2,2c0,1.10457 -0.89543,2 -2,2z" fill="#8ecad1"/><path d="M97.55799,263.07801c-1.10457,0 -2,-0.89543 -2,-2c0,-1.10457 0.89543,-2 2,-2c1.10457,0 2,0.89543 2,2c0,1.10457 -0.89543,2 -2,2z" fill="#8ecad1"/><path d="M61.558,219.07801c-1.10457,0 -2,-0.89543 -2,-2c0,-1.10457 0.89543,-2 2,-2c1.10457,0 2,0.89543 2,2c0,1.10457 -0.89543,2 -2,2z" fill="#8ecad1"/><path d="M16.55801,255.07801c-1.10457,0 -2,-0.89543 -2,-2c0,-1.10457 0.89543,-2 2,-2c1.10457,0 2,0.89543 2,2c0,1.10457 -0.89543,2 -2,2z" fill="#8ecad1"/><path d="M231.558,266.07801c-1.10457,0 -2,-0.89543 -2,-2c0,-1.10457 0.89543,-2 2,-2c1.10457,0 2,0.89543 2,2c0,1.10457 -0.89543,2 -2,2z" fill="#8ecad1"/><path d="M416.558,196.07801c-1.10457,0 -2,-0.89543 -2,-2c0,-1.10457 0.89543,-2 2,-2c1.10457,0 2,0.89543 2,2c0,1.10457 -0.89543,2 -2,2z" fill="#8ecad1"/><path d="M315.55802,271.07801c-1.10457,0 -2,-0.89543 -2,-2c0,-1.10457 0.89543,-2 2,-2c1.10457,0 2,0.89543 2,2c0,1.10457 -0.89543,2 -2,2z" fill="#8ecad1"/><path d="M304.558,227.07801c-1.10457,0 -2,-0.89543 -2,-2c0,-1.10457 0.89543,-2 2,-2c1.10457,0 2,0.89543 2,2c0,1.10457 -0.89543,2 -2,2z" fill="#8ecad1"/><path d="M134.55799,271.07801c-1.10457,0 -2,-0.89543 -2,-2c0,-1.10457 0.89543,-2 2,-2c1.10457,0 2,0.89543 2,2c0,1.10457 -0.89543,2 -2,2z" fill="#8ecad1"/><path d="M378.558,247.07801c-1.10457,0 -2,-0.89543 -2,-2c0,-1.10457 0.89543,-2 2,-2c1.10457,0 2,0.89543 2,2c0,1.10457 -0.89543,2 -2,2z" fill="#8ecad1"/><path d="M437.55801,242.07801c-1.10457,0 -2,-0.89543 -2,-2c0,-1.10457 0.89543,-2 2,-2c1.10457,0 2,0.89543 2,2c0,1.10457 -0.89543,2 -2,2z" fill="#8ecad1"/><path d="M270.35981,282.063c-1.10457,0 -2,-0.89543 -2,-2c0,-1.10457 0.89543,-2 2,-2c1.10457,0 2,0.89543 2,2c0,1.10457 -0.89543,2 -2,2z" fill="#8ecad1"/><path d="M51.55801,123.07801c-1.10457,0 -2,-0.89543 -2,-2c0,-1.10457 0.89543,-2 2,-2c1.10457,0 2,0.89543 2,2c0,1.10457 -0.89543,2 -2,2z" fill="#8ecad1"/><path d="M335.558,113.07801c-1.10457,0 -2,-0.89543 -2,-2c0,-1.10457 0.89543,-2 2,-2c1.10457,0 2,0.89543 2,2c0,1.10457 -0.89543,2 -2,2z" fill="#8ecad1"/><path d="M260.558,124.07801c-1.10457,0 -2,-0.89543 -2,-2c0,-1.10457 0.89543,-2 2,-2c1.10457,0 2,0.89543 2,2c0,1.10457 -0.89543,2 -2,2z" fill="#8ecad1"/><path d="M257.558,191.07801c-1.10457,0 -2,-0.89543 -2,-2c0,-1.10457 0.89543,-2 2,-2c1.10457,0 2,0.89543 2,2c0,1.10457 -0.89543,2 -2,2z" fill="#8ecad1"/><path d="M366.558,160.07801c-1.10457,0 -2,-0.89543 -2,-2c0,-1.10457 0.89543,-2 2,-2c1.10457,0 2,0.89543 2,2c0,1.10457 -0.89543,2 -2,2z" fill="#8ecad1"/><path d="M411.558,149.07801c-1.10457,0 -2,-0.89543 -2,-2c0,-1.10457 0.89543,-2 2,-2c1.10457,0 2,0.89543 2,2c0,1.10457 -0.89543,2 -2,2z" fill="#8ecad1"/><path d="M469.55801,200.07801c-1.10457,0 -2,-0.89543 -2,-2c0,-1.10457 0.89543,-2 2,-2c1.10457,0 2,0.89543 2,2c0,1.10457 -0.89543,2 -2,2z" fill="#8ecad1"/><path d="M441.558,84.07801c-1.10457,0 -2,-0.89543 -2,-2c0,-1.10457 0.89543,-2 2,-2c1.10457,0 2,0.89543 2,2c0,1.10457 -0.89543,2 -2,2z" fill="#8ecad1"/><path d="M224.558,83.32801c-0.69036,0 -1.25,-0.55964 -1.25,-1.25c0,-0.69036 0.55964,-1.25 1.25,-1.25c0.69036,0 1.25,0.55964 1.25,1.25c0,0.69036 -0.55964,1.25 -1.25,1.25z" fill="#c6e9ed"/><path d="M177.55801,77.32801c-0.69036,0 -1.25,-0.55964 -1.25,-1.25c0,-0.69036 0.55964,-1.25 1.25,-1.25c0.69036,0 1.25,0.55964 1.25,1.25c0,0.69036 -0.55964,1.25 -1.25,1.25z" fill="#c6e9ed"/><path d="M116.55799,126.32801c-0.69036,0 -1.25,-0.55964 -1.25,-1.25c0,-0.69036 0.55964,-1.25 1.25,-1.25c0.69036,0 1.25,0.55964 1.25,1.25c0,0.69036 -0.55964,1.25 -1.25,1.25z" fill="#c6e9ed"/><path d="M347.55801,79.32801c-0.69036,0 -1.25,-0.55964 -1.25,-1.25c0,-0.69036 0.55964,-1.25 1.25,-1.25c0.69036,0 1.25,0.55964 1.25,1.25c0,0.69036 -0.55964,1.25 -1.25,1.25z" fill="#c6e9ed"/><path d="M497.60602,108.17801c-1.10457,0 -2,-0.89543 -2,-2c0,-1.10457 0.89543,-2 2,-2c1.10457,0 2,0.89543 2,2c0,1.10457 -0.89543,2 -2,2z" fill="#8ecad1"/><path d="M501.60602,154.17801c-1.10457,0 -2,-0.89543 -2,-2c0,-1.10457 0.89543,-2 2,-2c1.10457,0 2,0.89543 2,2c0,1.10457 -0.89543,2 -2,2z" fill="#8ecad1"/><path d="M495.60602,274.17801c-1.10457,0 -2,-0.89543 -2,-2c0,-1.10457 0.89543,-2 2,-2c1.10457,0 2,0.89543 2,2c0,1.10457 -0.89543,2 -2,2z" fill="#8ecad1"/><path d="M502.60602,222.17801c-1.10457,0 -2,-0.89543 -2,-2c0,-1.10457 0.89543,-2 2,-2c1.10457,0 2,0.89543 2,2c0,1.10457 -0.89543,2 -2,2z" fill="#8ecad1"/><path d="M541.60602,291.17801c-1.10457,0 -2,-0.89543 -2,-2c0,-1.10457 0.89543,-2 2,-2c1.10457,0 2,0.89543 2,2c0,1.10457 -0.89543,2 -2,2z" fill="#8ecad1"/><path d="M537.60602,252.17801c-1.10457,0 -2,-0.89543 -2,-2c0,-1.10457 0.89543,-2 2,-2c1.10457,0 2,0.89543 2,2c0,1.10457 -0.89543,2 -2,2z" fill="#8ecad1"/><path d="M545.60604,181.17801c-1.10457,0 -2,-0.89543 -2,-2c0,-1.10457 0.89543,-2 2,-2c1.10457,0 2,0.89543 2,2c0,1.10457 -0.89543,2 -2,2z" fill="#8ecad1"/><path d="M532.60602,161.17801c-1.10457,0 -2,-0.89543 -2,-2c0,-1.10457 0.89543,-2 2,-2c1.10457,0 2,0.89543 2,2c0,1.10457 -0.89543,2 -2,2z" fill="#8ecad1"/><path d="M538.60602,123.17801c-1.10457,0 -2,-0.89543 -2,-2c0,-1.10457 0.89543,-2 2,-2c1.10457,0 2,0.89543 2,2c0,1.10457 -0.89543,2 -2,2z" fill="#8ecad1"/><path d="M557.60604,90.17801c-1.10457,0 -2,-0.89543 -2,-2c0,-1.10457 0.89543,-2 2,-2c1.10457,0 2,0.89543 2,2c0,1.10457 -0.89543,2 -2,2z" fill="#8ecad1"/><path d="M483.60602,81.17801c-1.10457,0 -2,-0.89543 -2,-2c0,-1.10457 0.89543,-2 2,-2c1.10457,0 2,0.89543 2,2c0,1.10457 -0.89543,2 -2,2z" fill="#8ecad1"/><path d="M-4.39398,129.17801c-1.10457,0 -2,-0.89543 -2,-2c0,-1.10457 0.89543,-2 2,-2c1.10457,0 2,0.89543 2,2c0,1.10457 -0.89543,2 -2,2z" fill="#8ecad1"/><path d="M-65.39395,134.17801c-1.10457,0 -2,-0.89543 -2,-2c0,-1.10457 0.89543,-2 2,-2c1.10457,0 2,0.89543 2,2c0,1.10457 -0.89543,2 -2,2z" fill="#8ecad1"/><path d="M-21.39398,158.17801c-1.10457,0 -2,-0.89543 -2,-2c0,-1.10457 0.89543,-2 2,-2c1.10457,0 2,0.89543 2,2c0,1.10457 -0.89543,2 -2,2z" fill="#8ecad1"/><path d="M-37.39395,207.17801c-1.10457,0 -2,-0.89543 -2,-2c0,-1.10457 0.89543,-2 2,-2c1.10457,0 2,0.89543 2,2c0,1.10457 -0.89543,2 -2,2z" fill="#8ecad1"/><path d="M-21.39398,92.17801c-1.10457,0 -2,-0.89543 -2,-2c0,-1.10457 0.89543,-2 2,-2c1.10457,0 2,0.89543 2,2c0,1.10457 -0.89543,2 -2,2z" fill="#8ecad1"/><path d="M-29.39398,288.17801c-1.10457,0 -2,-0.89543 -2,-2c0,-1.10457 0.89543,-2 2,-2c1.10457,0 2,0.89543 2,2c0,1.10457 -0.89543,2 -2,2z" fill="#8ecad1"/><path d="M-60.39395,247.17801c-1.10457,0 -2,-0.89543 -2,-2c0,-1.10457 0.89543,-2 2,-2c1.10457,0 2,0.89543 2,2c0,1.10457 -0.89543,2 -2,2z" fill="#8ecad1"/><path d="M-83.39395,218.17801c-1.10457,0 -2,-0.89543 -2,-2c0,-1.10457 0.89543,-2 2,-2c1.10457,0 2,0.89543 2,2c0,1.10457 -0.89543,2 -2,2z" fill="#8ecad1"/><path d="M538.60602,206.67801h-1c0,0 -0.5,0 -0.5,-0.5c0,-0.5 0.5,-0.5 0.5,-0.5h1c0,0 0.5,0 0.5,0.5c0,0.5 -0.5,0.5 -0.5,0.5z" fill="#8ecad1"/><path d="M498.60602,185.67801c-0.27614,0 -0.5,-0.22386 -0.5,-0.5c0,-0.27614 0.22386,-0.5 0.5,-0.5c0.27614,0 0.5,0.22386 0.5,0.5c0,0.27614 -0.22386,0.5 -0.5,0.5z" fill="#8ecad1"/><path d="M565.60602,264.67801c-0.27614,0 -0.5,-0.22386 -0.5,-0.5c0,-0.27614 0.22386,-0.5 0.5,-0.5c0.27614,0 0.5,0.22386 0.5,0.5c0,0.27614 -0.22386,0.5 -0.5,0.5z" fill="#8ecad1"/><path d="M501.60602,286.67801h-1c0,0 -0.5,0 -0.5,-0.5c0,-0.5 0.5,-0.5 0.5,-0.5h1c0,0 0.5,0 0.5,0.5c0,0.5 -0.5,0.5 -0.5,0.5z" fill="#8ecad1"/><path d="M495.60602,244.67801c-0.27614,0 -0.5,-0.22386 -0.5,-0.5c0,-0.27614 0.22386,-0.5 0.5,-0.5c0.27614,0 0.5,0.22386 0.5,0.5c0,0.27614 -0.22386,0.5 -0.5,0.5z" fill="#8ecad1"/><path d="M520.60605,97.67801c-0.27614,0 -0.5,-0.22386 -0.5,-0.5c0,-0.27614 0.22386,-0.5 0.5,-0.5c0.27614,0 0.5,0.22386 0.5,0.5c0,0.27614 -0.22386,0.5 -0.5,0.5z" fill="#8ecad1"/><path d="M6.60602,180.67801c-0.27614,0 -0.5,-0.22386 -0.5,-0.5c0,-0.27614 0.22386,-0.5 0.5,-0.5c0.27614,0 0.5,0.22386 0.5,0.5c0,0.27614 -0.22386,0.5 -0.5,0.5z" fill="#8ecad1"/><path d="M-13.39398,248.67801c-0.27614,0 -0.5,-0.22386 -0.5,-0.5c0,-0.27614 0.22386,-0.5 0.5,-0.5c0.27614,0 0.5,0.22386 0.5,0.5c0,0.27614 -0.22386,0.5 -0.5,0.5z" fill="#8ecad1"/><path d="M-70.39395,281.67801c-0.27614,0 -0.5,-0.22386 -0.5,-0.5c0,-0.27614 0.22386,-0.5 0.5,-0.5c0.27614,0 0.5,0.22386 0.5,0.5c0,0.27614 -0.22386,0.5 -0.5,0.5z" fill="#8ecad1"/><path d="M-58.39395,159.67801c-0.27614,0 -0.5,-0.22386 -0.5,-0.5c0,-0.27614 0.22386,-0.5 0.5,-0.5c0.27614,0 0.5,0.22386 0.5,0.5c0,0.27614 -0.22386,0.5 -0.5,0.5z" fill="#8ecad1"/><path d="M-49.39395,101.67801c-0.27614,0 -0.5,-0.22386 -0.5,-0.5c0,-0.27614 0.22386,-0.5 0.5,-0.5c0.27614,0 0.5,0.22386 0.5,0.5c0,0.27614 -0.22386,0.5 -0.5,0.5z" fill="#8ecad1"/><path d="M-27.39398,131.67801c-0.27614,0 -0.5,-0.22386 -0.5,-0.5c0,-0.27614 0.22386,-0.5 0.5,-0.5c0.27614,0 0.5,0.22386 0.5,0.5c0,0.27614 -0.22386,0.5 -0.5,0.5z" fill="#8ecad1"/><path d="M-12.39398,200.67801c-0.27614,0 -0.5,-0.22386 -0.5,-0.5c0,-0.27614 0.22386,-0.5 0.5,-0.5c0.27614,0 0.5,0.22386 0.5,0.5c0,0.27614 -0.22386,0.5 -0.5,0.5z" fill="#8ecad1"/><path d="M44.60602,236.67801c-0.27614,0 -0.5,-0.22386 -0.5,-0.5c0,-0.27614 0.22386,-0.5 0.5,-0.5c0.27614,0 0.5,0.22386 0.5,0.5c0,0.27614 -0.22386,0.5 -0.5,0.5z" fill="#8ecad1"/><path d="M203.60602,181.67801c-0.27614,0 -0.5,-0.22386 -0.5,-0.5c0,-0.27614 0.22386,-0.5 0.5,-0.5c0.27614,0 0.5,0.22386 0.5,0.5c0,0.27614 -0.22386,0.5 -0.5,0.5z" fill="#8ecad1"/></g><path d="M-83.14093,238.79842h655v130.47457h-655z" data-paper-data="{&quot;origPos&quot;:null}" fill="url(#color-4)" stroke-width="2.09891"/><path d="M569.85905,359.72703h-654v-110h654z" data-paper-data="{&quot;index&quot;:null,&quot;origRot&quot;:0}" fill="url(#color-5)" stroke-width="0"/><path d="M567.85905,120.72703h-652v-105h652z" data-paper-data="{&quot;origPos&quot;:null,&quot;index&quot;:null,&quot;origRot&quot;:0}" fill="url(#color-6)" stroke-width="0"/><path d="M-83.14093,328.72703v-286h188v286z" data-paper-data="{&quot;origPos&quot;:null}" fill="url(#color-7)" stroke-width="0"/><path d="M382.85907,330.72703v-330h187v330z" data-paper-data="{&quot;origPos&quot;:null,&quot;index&quot;:null}" fill="url(#color-8)" stroke-width="0"/><path d="M-83.14093,-2.27298h650v71h-650z" fill="url(#color-9)" stroke-width="1.57031"/><path d="M571.85905,28.72702h-655v-38h655z" data-paper-data="{&quot;index&quot;:null,&quot;origRot&quot;:0}" fill="url(#color-10)" stroke-width="0"/><path d="M-80.14093,293.72703h654v71h-654z" data-paper-data="{&quot;origPos&quot;:null}" fill="url(#color-11)" stroke-width="1.57031"/><path d="M572.85905,367.72703h-655v-38h655z" data-paper-data="{&quot;origPos&quot;:null,&quot;index&quot;:null,&quot;origRot&quot;:0}" fill="url(#color-12)" stroke-width="0"/><path d="M-94.51947,70.28491l0.18014,-77.63124l666.30761,0.7291l2.55121,75.35376z" fill="url(#color-13)" stroke-width="0"/><path d="M-88.47463,292.98968l662.30381,1.95979l0.6396,68.07757l-663.35568,-0.60736z" fill="url(#color-14)" stroke-width="0"/></g></g></svg>