<svg version="1.1" xmlns="http://www.w3.org/2000/svg" xmlns:xlink="http://www.w3.org/1999/xlink" width="63.75" height="60.4"><defs><radialGradient cx="242.0882" cy="179.4725" r="39.6063" gradientUnits="userSpaceOnUse" id="color-1"><stop offset="0" stop-color="#fff343"/><stop offset="1" stop-color="#fff343" stop-opacity="0"/></radialGradient><linearGradient x1="214.4278" y1="154.0831" x2="214.4278" y2="204.7914" gradientUnits="userSpaceOnUse" id="color-2"><stop offset="0" stop-color="#ffec6c"/><stop offset="1" stop-color="#fdc363"/></linearGradient><linearGradient x1="216.0057" y1="154.785" x2="216.0057" y2="203.126" gradientUnits="userSpaceOnUse" id="color-3"><stop offset="0" stop-color="#fff01b"/><stop offset="1" stop-color="#ffa30a"/></linearGradient><linearGradient x1="243.0055" y1="173.0507" x2="243.0055" y2="184.0455" gradientUnits="userSpaceOnUse" id="color-4"><stop offset="0" stop-color="#000000"/><stop offset="1" stop-color="#674205"/></linearGradient><linearGradient x1="233.7555" y1="173.0007" x2="233.7555" y2="183.9955" gradientUnits="userSpaceOnUse" id="color-5"><stop offset="0" stop-color="#000000"/><stop offset="1" stop-color="#674205"/></linearGradient><radialGradient cx="258.6976" cy="202.4484" r="8.9716" gradientUnits="userSpaceOnUse" id="color-6"><stop offset="0" stop-color="#ffec1a"/><stop offset="1" stop-color="#ffa50a"/></radialGradient><radialGradient cx="224.2476" cy="201.9484" r="8.9716" gradientUnits="userSpaceOnUse" id="color-7"><stop offset="0" stop-color="#ffec1a"/><stop offset="1" stop-color="#ffa50a"/></radialGradient><radialGradient cx="212.9476" cy="169.7484" r="8.9716" gradientUnits="userSpaceOnUse" id="color-8"><stop offset="0" stop-color="#ffec1a"/><stop offset="1" stop-color="#ffa50a"/></radialGradient><radialGradient cx="239.0476" cy="151.3984" r="8.9716" gradientUnits="userSpaceOnUse" id="color-9"><stop offset="0" stop-color="#ffec1a"/><stop offset="1" stop-color="#ffa50a"/></radialGradient><radialGradient cx="267.3476" cy="169.9984" r="8.9716" gradientUnits="userSpaceOnUse" id="color-10"><stop offset="0" stop-color="#ffec1a"/><stop offset="1" stop-color="#ffa50a"/></radialGradient></defs><g transform="translate(-209.6087,-148.9496)"><g data-paper-data="{&quot;isPaintingLayer&quot;:true}" fill="none" fill-rule="nonzero" stroke="none" stroke-width="none" stroke-linecap="none" stroke-linejoin="miter" stroke-miterlimit="10" stroke-dasharray="" stroke-dashoffset="0" font-family="none" font-weight="none" font-size="none" text-anchor="none" style="mix-blend-mode: normal"><path d="M212.0722,173.7501l-1.067,-1.3772l0.9248,-2.827l1.6361,-0.7248h16.8589l7.3981,-17.0342l1.6361,-1.3772l1.6361,0.0724l1.9917,1.5222l7.9671,16.5993l17.0724,-0.2899l1.7073,1.0148l1.3515,1.6672l-1.3515,2.9719l-9.7455,11.5253l2.8454,17.4691l0.1422,2.7544l-1.7783,0.9423l-3.13,-0.5798l-16.361,-11.5978l-13.9424,13.0475l-3.1299,0.5799l-2.2764,-1.2323l-0.7824,-3.4068l1.6361,-16.2369z" id="ID0.3117544511333108" fill="url(#color-1)" stroke-width="1.43627" stroke-linecap="round"/><path d="M215.3833,174.5957l-0.9555,-1.2103l0.8281,-2.4845l1.4652,-0.637h15.0978l6.6252,-14.9704l1.4652,-1.2104l1.4652,0.0637l1.7837,1.3378l7.1348,14.5882l15.289,-0.2548l1.5289,0.8918l1.2103,1.4652l-1.2103,2.6119l-8.7275,10.1289l2.5482,15.3526l0.1274,2.4208l-1.5926,0.8281l-2.803,-0.5096l-14.6519,-10.1926l-12.4859,11.4667l-2.803,0.5096l-2.0385,-1.083l-0.7007,-2.9941l1.4651,-14.2696z" id="ID0.3117544511333108" fill="url(#color-2)" stroke-width="1.27408" stroke-linecap="round"/><path d="M216.0057,172.285l17.2299,-0.4321l7.1296,-17.068l8.534,16.9059l18.6343,-0.054l-11.7747,12.6389l3.4027,17.7161l-17.3919,-11.8287l-15.9877,12.9629l2.0525,-17.554z" id="ID0.3117544511333108" fill="url(#color-3)" stroke-width="1.08024" stroke-linecap="round"/><g id="ID0.4398073833435774" stroke-width="2.7674"><path d="M245.2545,173.0517c0.7022,-0.0271 1.402,0.5542 1.6968,1.2711c0.5348,1.3011 0.5923,2.8523 0.5523,4.3011c-0.0275,1.3373 -0.2399,2.7198 -0.7497,3.9156c-0.2924,0.7018 -0.8196,1.512 -1.4994,1.506c-0.6547,-0.006 -1.212,-0.5121 -1.5718,-1.4217c-0.4598,-1.1506 -0.6772,-2.5301 -0.6772,-4.1505c0,-1.6205 0.1674,-2.9457 0.6772,-4.1505c0.3348,-0.7952 0.9746,-1.2982 1.5718,-1.2711z" id="ID0.6670762049034238" fill="url(#color-4)" stroke-linecap="round"/><path d="M245.3637,173.9035c0.3624,0 0.6897,0.1777 0.9271,0.4638c0.2374,0.2862 0.3849,0.6808 0.3849,1.1175c0,0.4367 -0.1475,0.8313 -0.3849,1.1174c-0.2374,0.2862 -0.5647,0.4639 -0.9271,0.4639c-0.3623,0 -0.6897,-0.1777 -0.9271,-0.4639c-0.2374,-0.2861 -0.3848,-0.6807 -0.3848,-1.1174c0,-0.4367 0.1474,-0.8313 0.3848,-1.1175c0.2374,-0.2861 0.5648,-0.4638 0.9271,-0.4638z" id="ID0.2271407265216112" fill="#ffffff" stroke-linecap="butt"/></g><g id="ID0.4398073833435774" stroke-width="2.7674"><path d="M236.0045,173.0017c0.7022,-0.0271 1.402,0.5542 1.6968,1.2711c0.5348,1.3011 0.5923,2.8523 0.5523,4.3011c-0.0275,1.3373 -0.2399,2.7198 -0.7497,3.9156c-0.2924,0.7018 -0.8196,1.512 -1.4994,1.506c-0.6547,-0.006 -1.212,-0.5121 -1.5718,-1.4217c-0.4598,-1.1506 -0.6772,-2.5301 -0.6772,-4.1505c0,-1.6205 0.1674,-2.9457 0.6772,-4.1505c0.3348,-0.7952 0.9746,-1.2982 1.5718,-1.2711z" id="ID0.6670762049034238" fill="url(#color-5)" stroke-linecap="round"/><path d="M236.1637,173.8035c0.3624,0 0.6897,0.1777 0.9271,0.4638c0.2374,0.2862 0.3849,0.6808 0.3849,1.1175c0,0.4367 -0.1475,0.8313 -0.3849,1.1174c-0.2374,0.2862 -0.5647,0.4639 -0.9271,0.4639c-0.3623,0 -0.6897,-0.1777 -0.9271,-0.4639c-0.2374,-0.2861 -0.3848,-0.6807 -0.3848,-1.1174c0,-0.4367 0.1474,-0.8313 0.3848,-1.1175c0.2374,-0.2861 0.5648,-0.4638 0.9271,-0.4638z" id="ID0.2271407265216112" fill="#ffffff" stroke-linecap="butt"/></g><path d="M260.0337,199.9996c1.2897,0 2.4585,0.5239 3.3052,1.3698c0.8459,0.8467 1.3698,2.0155 1.3698,3.3052c0,1.2897 -0.5239,2.4585 -1.3698,3.3051c-0.8467,0.846 -2.0155,1.3699 -3.3052,1.3699c-1.2897,0 -2.4584,-0.5239 -3.3051,-1.3699c-0.846,-0.8466 -1.3699,-2.0154 -1.3699,-3.3051c0,-1.2897 0.5239,-2.4585 1.3699,-3.3052c0.8467,-0.8459 2.0154,-1.3698 3.3051,-1.3698z" id="ID0.39403693610802293" fill="url(#color-6)" stroke-width="0.74207" stroke-linecap="butt"/><path d="M225.5837,199.4996c1.2897,0 2.4585,0.5239 3.3052,1.3698c0.8459,0.8467 1.3698,2.0155 1.3698,3.3052c0,1.2897 -0.5239,2.4585 -1.3698,3.3051c-0.8467,0.846 -2.0155,1.3699 -3.3052,1.3699c-1.2897,0 -2.4584,-0.5239 -3.3051,-1.3699c-0.846,-0.8466 -1.3699,-2.0154 -1.3699,-3.3051c0,-1.2897 0.5239,-2.4585 1.3699,-3.3052c0.8467,-0.8459 2.0154,-1.3698 3.3051,-1.3698z" id="ID0.39403693610802293" fill="url(#color-7)" stroke-width="0.74207" stroke-linecap="butt"/><path d="M214.2837,167.2996c1.2897,0 2.4585,0.5239 3.3052,1.3698c0.8459,0.8467 1.3698,2.0155 1.3698,3.3052c0,1.2897 -0.5239,2.4585 -1.3698,3.3051c-0.8467,0.846 -2.0155,1.3699 -3.3052,1.3699c-1.2897,0 -2.4584,-0.5239 -3.3051,-1.3699c-0.846,-0.8466 -1.3699,-2.0154 -1.3699,-3.3051c0,-1.2897 0.5239,-2.4585 1.3699,-3.3052c0.8467,-0.8459 2.0154,-1.3698 3.3051,-1.3698z" id="ID0.39403693610802293" fill="url(#color-8)" stroke-width="0.74207" stroke-linecap="butt"/><path d="M240.3837,148.9496c1.2897,0 2.4585,0.5239 3.3052,1.3698c0.8459,0.8467 1.3698,2.0155 1.3698,3.3052c0,1.2897 -0.5239,2.4585 -1.3698,3.3051c-0.8467,0.846 -2.0155,1.3699 -3.3052,1.3699c-1.2897,0 -2.4584,-0.5239 -3.3051,-1.3699c-0.846,-0.8466 -1.3699,-2.0154 -1.3699,-3.3051c0,-1.2897 0.5239,-2.4585 1.3699,-3.3052c0.8467,-0.8459 2.0154,-1.3698 3.3051,-1.3698z" id="ID0.39403693610802293" fill="url(#color-9)" stroke-width="0.74207" stroke-linecap="butt"/><path d="M268.6837,167.5496c1.2897,0 2.4585,0.5239 3.3052,1.3698c0.8459,0.8467 1.3698,2.0155 1.3698,3.3052c0,1.2897 -0.5239,2.4585 -1.3698,3.3051c-0.8467,0.846 -2.0155,1.3699 -3.3052,1.3699c-1.2897,0 -2.4584,-0.5239 -3.3051,-1.3699c-0.846,-0.8466 -1.3699,-2.0154 -1.3699,-3.3051c0,-1.2897 0.5239,-2.4585 1.3699,-3.3052c0.8467,-0.8459 2.0154,-1.3698 3.3051,-1.3698z" id="ID0.39403693610802293" fill="url(#color-10)" stroke-width="0.74207" stroke-linecap="butt"/></g></g></svg>