<svg version="1.1" xmlns="http://www.w3.org/2000/svg" xmlns:xlink="http://www.w3.org/1999/xlink" width="598.64438" height="312.48337" viewBox="0,0,598.64438,312.48337"><g transform="translate(21.8222,-47.75832)"><g data-paper-data="{&quot;isPaintingLayer&quot;:true}" fill-rule="nonzero" stroke-linecap="butt" stroke-linejoin="miter" stroke-miterlimit="10" stroke-dasharray="" stroke-dashoffset="0" style="mix-blend-mode: normal"><g fill="none" stroke="#00c8ff" stroke-width="6"><path d="M409.77804,294.08704v-203.06156h1v203.06156z"/><path d="M464.77804,294.08704v-203.06156h1v203.06156z"/><path d="M409.77804,116.1391v-0.71753h55.5v0.71753z"/><path d="M409.77804,185.02217v-0.71753h55.5v0.71753z"/><path d="M410.77804,259.6455v-0.71753h55.5v0.71753z"/></g><path d="M400.70528,346.13883l-7.13857,-10.86466l66.85947,-43.92963l7.13857,10.86466z" data-paper-data="{&quot;index&quot;:null}" fill="#001ee8" stroke="#001f66" stroke-width="2"/><path d="M322.56671,306.2092l7.13856,-10.86466l66.85947,43.92963l-7.13856,10.86466z" data-paper-data="{&quot;index&quot;:null}" fill="#001ee8" stroke="#001f66" stroke-width="2"/><path d="M262.70528,349.13883l-7.13856,-10.86466l66.85947,-43.92963l7.13856,10.86466z" data-paper-data="{&quot;index&quot;:null}" fill="#001ee8" stroke="#001f66" stroke-width="2"/><path d="M194.56671,306.2092l7.13856,-10.86466l66.85947,43.92963l-7.13856,10.86466z" data-paper-data="{&quot;index&quot;:null}" fill="#001ee8" stroke="#001f66" stroke-width="2"/><path d="M5.70528,351.13883l-7.13857,-10.86466l66.85947,-43.92963l7.13857,10.86466z" fill="#001ee8" stroke="#001f66" stroke-width="2"/><path d="M65.56671,306.2092l7.13857,-10.86466l66.85947,43.92963l-7.13857,10.86466z" data-paper-data="{&quot;index&quot;:null}" fill="#001ee8" stroke="#001f66" stroke-width="2"/><path d="M133.70527,351.13883l-7.13857,-10.86466l66.85947,-43.92963l7.13856,10.86466z" data-paper-data="{&quot;index&quot;:null}" fill="#001ee8" stroke="#001f66" stroke-width="2"/><path d="M-6.43427,305.24169v-23h490v23z" fill="#001ee8" stroke="#001f66" stroke-width="2"/><path d="M-6.43427,359.24169v-23h491v23z" fill="#001ee8" stroke="#001f66" stroke-width="2"/><path d="M-15.31561,183.3177c0.49572,-1.39933 0.99352,-2.79811 1.48554,-4.19816l1.47869,2.25053z" data-paper-data="{&quot;index&quot;:null}" fill="#001ee8" stroke="#001f66" stroke-width="1"/><path d="M64.54832,182.00038l4.49955,-6.84816l42.14255,27.68952l-4.49955,6.84816z" data-paper-data="{&quot;index&quot;:null}" fill="#001ee8" stroke="#001f66" stroke-width="1"/><path d="M26.81674,209.05958l-4.49955,-6.84816l42.14255,-27.68952l4.49955,6.84817z" data-paper-data="{&quot;index&quot;:null}" fill="#001ee8" stroke="#001f66" stroke-width="1"/><path d="M-15.09111,182.68432c0.57856,-1.63155 1.15834,-3.26274 1.72687,-4.89641l1.73175,-2.63568l42.14255,27.68952l-4.49955,6.84816z" data-paper-data="{&quot;index&quot;:null}" fill="#001ee8" stroke="#001f66" stroke-width="1"/><path d="M-14.40901,180.76023c1.69973,-4.80176 3.36756,-9.61006 4.68567,-14.49725h124.06595v14.49725z" data-paper-data="{&quot;index&quot;:null}" fill="#001ee8" stroke="#001f66" stroke-width="1"/><path d="M-18.09377,214.79725c-0.02967,-0.06728 -0.06036,-0.13325 -0.09203,-0.19795c-0.01378,-2.0648 -0.06203,-4.26949 -0.22406,-4.9513c-0.46635,-1.96233 -1.89659,-3.58851 -2.48074,-5.51905c-0.10058,-0.33239 -0.51385,-0.60345 -0.44232,-0.94328c0.20329,-0.9657 0.42399,-1.92741 0.65974,-2.88566h135.01577v14.49725z" data-paper-data="{&quot;index&quot;:null}" fill="#001ee8" stroke="#001f66" stroke-width="1"/><path d="M572.89034,121.82953l1.47869,-2.25053c0.49202,1.40005 0.98982,2.79883 1.48554,4.19816z" data-paper-data="{&quot;index&quot;:null}" fill="#001ee8" stroke="#001f66" stroke-width="1"/><path d="M363.68293,210.18539l-4.49955,-6.84816l42.14255,-27.68952l4.49955,6.84816z" data-paper-data="{&quot;index&quot;:null}" fill="#001ee8" stroke="#001f66" stroke-width="1"/><path d="M401.41451,181.86556l4.49955,-6.84816l42.14255,27.68952l-4.49955,6.84816z" data-paper-data="{&quot;index&quot;:null}" fill="#001ee8" stroke="#001f66" stroke-width="1"/><path d="M444.36329,210.1854l-4.49955,-6.84816l42.14254,-27.68951l1.73175,2.63567c0.56853,1.63367 1.14831,3.26486 1.72687,4.89641z" data-paper-data="{&quot;index&quot;:null}" fill="#001ee8" stroke="#001f66" stroke-width="1"/><path d="M356.03119,181.25572v-14.49725h124.06595c1.31812,4.88718 2.98595,9.69549 4.68567,14.49725z" data-paper-data="{&quot;index&quot;:null}" fill="#001ee8" stroke="#001f66" stroke-width="1"/><path d="M356.03119,215.29275v-14.49725h135.01576c0.23575,0.95825 0.45646,1.91996 0.65975,2.88566c0.07154,0.33983 -0.34173,0.61089 -0.44232,0.94329c-0.58415,1.93054 -2.01439,3.55671 -2.48074,5.51905c-0.16203,0.68181 -0.21028,2.8865 -0.22406,4.9513c-0.03166,0.0647 -0.06235,0.13067 -0.09203,0.19796z" data-paper-data="{&quot;index&quot;:null}" fill="#001ee8" stroke="#001f66" stroke-width="1"/><path d="M193.00627,211.68889l-3.76959,-7.05116l35.30577,-28.51031l3.76959,7.05116z" fill="#001ee8" stroke="#001f66" stroke-width="1"/><path d="M224.61666,182.52957l3.76959,-7.05116l35.30577,28.51031l-3.76959,7.05116z" data-paper-data="{&quot;index&quot;:null}" fill="#001ee8" stroke="#001f66" stroke-width="1"/><path d="M260.59787,211.68889l-3.76959,-7.05116l35.30577,-28.51031l3.76958,7.05116z" data-paper-data="{&quot;index&quot;:null}" fill="#001ee8" stroke="#001f66" stroke-width="1"/><path d="M186.59587,181.90166v-14.92699h111.22463v14.92699z" fill="#001ee8" stroke="#001f66" stroke-width="1"/><path d="M186.59587,216.94764v-14.92699h111.45162v14.92699z" fill="#001ee8" stroke="#001f66" stroke-width="1"/><path d="M441.68256,82.45457l-3.8204,-5.81451l35.78163,-23.51012l3.8204,5.81451z" data-paper-data="{&quot;index&quot;:null}" fill="#001ee8" stroke="#001f66" stroke-width="1"/><path d="M399.86462,61.08517l3.82039,-5.81451l35.78163,23.51012l-3.82039,5.81451z" data-paper-data="{&quot;index&quot;:null}" fill="#001ee8" stroke="#001f66" stroke-width="1"/><path d="M367.82817,84.0601l-3.82039,-5.81451l35.78163,-23.51012l3.82039,5.81451z" data-paper-data="{&quot;index&quot;:null}" fill="#001ee8" stroke="#001f66" stroke-width="1"/><path d="M331.362,61.08517l3.82039,-5.81451l35.78163,23.51012l-3.82039,5.81451z" data-paper-data="{&quot;index&quot;:null}" fill="#001ee8" stroke="#001f66" stroke-width="1"/><path d="M230.28775,85.13046l-3.8204,-5.81451l35.78163,-23.51012l3.8204,5.81451z" fill="#001ee8" stroke="#001f66" stroke-width="1"/><path d="M262.3242,61.08517l3.8204,-5.81451l35.78163,23.51012l-3.8204,5.81451z" data-paper-data="{&quot;index&quot;:null}" fill="#001ee8" stroke="#001f66" stroke-width="1"/><path d="M298.79037,85.13046l-3.8204,-5.81451l35.78163,-23.51012l3.82039,5.81451z" data-paper-data="{&quot;index&quot;:null}" fill="#001ee8" stroke="#001f66" stroke-width="1"/><path d="M223.79095,60.56738v-12.30906h262.2366v12.30906z" fill="#001ee8" stroke="#001f66" stroke-width="1"/><path d="M223.79095,89.46692v-12.30906h262.77177v12.30906z" fill="#001ee8" stroke="#001f66" stroke-width="1"/></g></g></svg>