<svg version="1.1" xmlns="http://www.w3.org/2000/svg" xmlns:xlink="http://www.w3.org/1999/xlink" width="35.30526" height="35.30526" viewBox="0,0,35.30526,35.30526"><defs><linearGradient x1="240.08888" y1="163.06125" x2="240.08888" y2="197.11651" gradientUnits="userSpaceOnUse" id="color-1"><stop offset="0" stop-color="#9d3bed"/><stop offset="1" stop-color="#7c31be"/></linearGradient></defs><g transform="translate(-222.43625,-162.43625)"><g data-paper-data="{&quot;isPaintingLayer&quot;:true}" fill-rule="nonzero" stroke-linejoin="miter" stroke-miterlimit="10" stroke-dasharray="" stroke-dashoffset="0" style="mix-blend-mode: normal"><path d="M240.08888,163.06125c4.69771,0 8.95515,1.90752 12.0371,4.99053c3.08301,3.08195 4.99053,7.33939 4.99053,12.0371c0,4.69771 -1.90752,8.95515 -4.99053,12.0371c-3.08195,3.08301 -7.33939,4.99053 -12.0371,4.99053c-4.69771,0 -8.95515,-1.90752 -12.0371,-4.99053c-3.08301,-3.08195 -4.99053,-7.33939 -4.99053,-12.0371c0,-4.69771 1.90752,-8.95515 4.99053,-12.0371c3.08195,-3.08301 7.33939,-4.99053 12.0371,-4.99053z" data-paper-data="{&quot;origPos&quot;:null}" id="ID0.4039921844378114" fill="url(#color-1)" stroke="#5f238c" stroke-width="1.25" stroke-linecap="butt"/><g fill="none" stroke-linecap="round"><path d="M234.92118,185.86533l-6.61562,-0.04926v-12.46621v-0.12466l16.73987,0.12466v2.70368" id="ID0.08591015869751573" stroke="#5f238c" stroke-width="4.5"/><path d="M234.92118,185.86533l-6.61562,-0.04927v-12.46621v-0.12466l16.73987,0.12466v2.70368" id="ID0.08591015869751573" stroke="#ffffff" stroke-width="2"/><g stroke="#5f238c" stroke-width="3"><path d="M233.24453,176.09219l6.75,6.75"/><path d="M240.05703,176.09219l-6.75,6.75" data-paper-data="{&quot;index&quot;:null}"/></g><g stroke="#ffffff" stroke-width="1"><path d="M233.24453,176.09219l6.75,6.75"/><path d="M240.05703,176.09219l-6.75,6.75" data-paper-data="{&quot;index&quot;:null}"/></g><path d="M236.26418,189.5861l15.38811,-15.46505" stroke="#5f238c" stroke-width="4.5"/><path d="M236.26418,189.58609l15.46505,-15.54197" stroke="#ffffff" stroke-width="2"/></g></g></g></svg>