<svg version="1.1" xmlns="http://www.w3.org/2000/svg" xmlns:xlink="http://www.w3.org/1999/xlink" width="437" height="90.79587" viewBox="0,0,437,90.79587"><defs><linearGradient x1="240" y1="135.60206" x2="240" y2="224.39795" gradientUnits="userSpaceOnUse" id="color-1"><stop offset="0" stop-color="#ffffff"/><stop offset="1" stop-color="#d8d8d8"/></linearGradient><linearGradient x1="240" y1="135.60208" x2="240" y2="224.39795" gradientUnits="userSpaceOnUse" id="color-2"><stop offset="0" stop-color="#343434"/><stop offset="1" stop-color="#090909"/></linearGradient><radialGradient cx="444.8065" cy="205.54466" r="17.9081" gradientUnits="userSpaceOnUse" id="color-3"><stop offset="0" stop-color="#ffffff"/><stop offset="1" stop-color="#e5e5e5"/></radialGradient></defs><g transform="translate(-21.5,-134.60208)"><g data-paper-data="{&quot;isPaintingLayer&quot;:true}" fill-rule="nonzero" stroke-linejoin="miter" stroke-miterlimit="10" stroke-dasharray="" stroke-dashoffset="0" style="mix-blend-mode: normal"><path d="M22.5,224.39795v-88.79587h435v88.79587z" data-paper-data="{&quot;origPos&quot;:null}" fill="url(#color-1)" stroke="url(#color-2)" stroke-width="2" stroke-linecap="butt"/><g data-paper-data="{&quot;origPos&quot;:null}"><path d="M445.3058,201.09868c2.5136,0 4.7909,1.0212 6.4406,2.6702c1.6489,1.6496 2.6702,3.9269 2.6702,6.4405c0,2.5136 -1.0213,4.791 -2.6702,6.4406c-1.6497,1.649 -3.927,2.6702 -6.4406,2.6702c-2.5136,0 -4.7909,-1.0212 -6.4406,-2.6702c-1.6489,-1.6496 -2.6701,-3.927 -2.6701,-6.4406c0,-2.5136 1.0212,-4.7909 2.6701,-6.4405c1.6497,-1.649 3.927,-2.6702 6.4406,-2.6702z" fill="url(#color-3)" stroke="#000000" stroke-width="2.0785" stroke-linecap="butt"/><path d="M442.2734,205.54886l5.6119,0.4503l1.7321,3.187l-3.6374,2.9446l3.3603,-0.5197l0.7967,3.4642l-7.4479,-0.0693l-1.9053,-2.4249l4.6766,-3.3256l-4.5727,-0.3464z" fill="#000000" stroke="none" stroke-width="0.69283" stroke-linecap="round"/></g><g data-paper-data="{&quot;origPos&quot;:null}" stroke="none" stroke-width="1" stroke-linecap="butt"><path d="M35.284,147.19006c2.449,0.547 3.81,0.86 4.083,0.939v0.064c-0.085,2.193 -0.149,3.469 -0.191,3.828c0.139,0 0.768,0.146 1.886,0.437c1.003,-3.092 1.547,-4.639 1.632,-4.639c1.677,0.754 2.743,1.255 3.199,1.504v0.064c-1.841,4.284 -2.886,6.647 -3.135,7.091c-0.462,0.383 -2.072,1.847 -4.831,4.393h-0.064l-5.086,-2.506c0.468,-0.802 1.033,-1.723 1.696,-2.762c0.03,0 0.826,0.522 2.388,1.568h0.063c0.523,-0.426 1.149,-1.033 1.878,-1.823c0,-0.037 -1.191,-1.206 -3.573,-3.509v-4.521z" data-paper-data="{&quot;origPos&quot;:null}" fill="#000000"/><path d="M50.56,149.95206c2.309,0.62 3.533,0.996 3.673,1.13c1.27,1.799 1.984,2.835 2.142,3.108c-0.82,2.601 -1.291,3.901 -1.413,3.901c-2.734,0.638 -4.165,0.957 -4.293,0.957c-2.26,-1.318 -3.463,-2.054 -3.609,-2.205c-0.079,-2.455 -0.119,-3.81 -0.119,-4.066c-0.036,-0.073 -0.054,-0.127 -0.054,-0.164c2.333,-1.774 3.539,-2.661 3.618,-2.661zM50.332,153.28806c-0.037,0.243 -0.091,1.127 -0.164,2.652l2.032,0.456c0.487,-1.519 0.73,-2.33 0.73,-2.434c-1.617,-0.486 -2.483,-0.729 -2.598,-0.729z" data-paper-data="{&quot;origPos&quot;:null}" fill="#000000"/><path d="M62.126,149.94306l0.064,0.118l-1.23,6.526h0.063l3.136,-0.92v-3.692c0.012,-0.085 0.051,-0.127 0.118,-0.127c2.358,0.164 3.67,0.246 3.938,0.246c0,0.042 0.021,0.064 0.064,0.064c0,1.039 -0.329,3.193 -0.985,6.462c0,0.188 -0.942,0.331 -2.825,0.428c-0.098,-0.115 -0.18,-0.361 -0.246,-0.738c-2.413,0.492 -3.789,0.738 -4.129,0.738c-1.927,-1.434 -2.89,-2.172 -2.89,-2.215c0.328,-4.308 0.535,-6.544 0.62,-6.708h0.055c1.537,-0.042 2.953,-0.103 4.247,-0.182z" data-paper-data="{&quot;origPos&quot;:null}" fill="#000000"/><path d="M79.344,147.18106h0.054c2.747,0.231 4.12,0.41 4.12,0.538l1.212,10.728c0,0.079 -1.212,0.279 -3.636,0.601l-0.055,-0.118v-0.976c-2.09,0.566 -3.524,0.93 -4.302,1.094c-1.847,-2.613 -2.817,-4.004 -2.908,-4.174c1.361,-2.473 2.088,-3.725 2.179,-3.755l3.819,0.182c-0.079,-0.468 -0.24,-1.841 -0.483,-4.12zM77.648,153.71606c0.614,1.878 0.997,2.908 1.149,3.09l1.814,-1.577c-0.189,-1.087 -0.329,-1.631 -0.42,-1.631h-2.424c-0.079,0.012 -0.119,0.051 -0.119,0.118z" data-paper-data="{&quot;origPos&quot;:null}" fill="#000000"/><path d="M89.351,149.95206c2.309,0.62 3.534,0.996 3.674,1.13c1.27,1.799 1.984,2.835 2.142,3.108c-0.821,2.601 -1.292,3.901 -1.413,3.901c-2.735,0.638 -4.166,0.957 -4.293,0.957c-2.261,-1.318 -3.464,-2.054 -3.61,-2.205c-0.079,-2.455 -0.118,-3.81 -0.118,-4.066c-0.036,-0.073 -0.055,-0.127 -0.055,-0.164c2.334,-1.774 3.54,-2.661 3.619,-2.661zM89.124,153.28806c-0.037,0.243 -0.092,1.127 -0.164,2.652l2.032,0.456c0.486,-1.519 0.729,-2.33 0.729,-2.434c-1.616,-0.486 -2.482,-0.729 -2.597,-0.729z" data-paper-data="{&quot;origPos&quot;:null}" fill="#000000"/><path d="M104.09,149.94306l3.035,2.087c-0.213,3.464 -0.362,5.487 -0.447,6.07c-0.352,0.043 -1.425,0.107 -3.217,0.192l-0.064,-0.128l-0.319,-4.867l-0.128,-0.064c-1.16,0.249 -1.959,0.438 -2.397,0.565c0.122,2.072 0.183,3.57 0.183,4.494c-1.811,0.504 -2.802,0.756 -2.972,0.756c-1.179,-5.189 -1.768,-7.929 -1.768,-8.221c2.564,-0.334 3.956,-0.501 4.174,-0.501v0.063c0.043,0.031 0.107,0.663 0.192,1.896c2.351,-1.561 3.594,-2.342 3.728,-2.342z" data-paper-data="{&quot;origPos&quot;:null}" fill="#000000"/><path d="M110.661,145.66806l0.037,0.073l-0.255,3.354h-0.037c-1.191,-0.055 -1.786,-0.127 -1.786,-0.219l-0.511,-2.953c0,-0.048 0.851,-0.133 2.552,-0.255z" data-paper-data="{&quot;origPos&quot;:null}" fill="#000000"/><path d="M114.289,147.19006l4.01,0.711l-0.382,3.044c0.796,-0.042 1.379,-0.063 1.75,-0.063h0.583l0.127,-0.064l0.064,0.127c-0.127,1.848 -0.237,2.887 -0.328,3.118l-0.127,-0.073c-0.092,0 -0.912,-0.043 -2.461,-0.128c-0.085,1.428 -0.149,3.135 -0.192,5.122l-0.127,0.064c-1.957,-0.127 -3.124,-0.237 -3.5,-0.328l0.063,-0.255c0,-0.529 0.085,-2.169 0.256,-4.922c-1.641,-0.091 -2.461,-0.2 -2.461,-0.328c0.085,-2.03 0.194,-3.044 0.328,-3.044l2.397,0.455v-0.783c0,-0.639 -0.024,-1.501 -0.073,-2.589c0.049,0 0.073,-0.021 0.073,-0.064z" data-paper-data="{&quot;origPos&quot;:null}" fill="#000000"/><path d="M130.121,147.19006c0.036,0.055 0.207,1.72 0.51,4.995c2.346,-0.717 3.595,-1.076 3.746,-1.076l2.325,1.586c-0.377,3.464 -0.623,5.487 -0.739,6.071l-3.226,0.109c0,-0.036 -0.021,-0.055 -0.064,-0.055l0.064,-0.228c0,-0.492 0.073,-1.986 0.219,-4.484c-0.888,-0.036 -1.547,-0.055 -1.978,-0.055h-0.228c0.261,2.777 0.392,4.29 0.392,4.539l-3.063,0.456c-0.115,-0.389 -0.796,-4.019 -2.041,-10.892c0,-0.194 0.474,-0.346 1.422,-0.455c1.197,-0.341 2.084,-0.511 2.661,-0.511z" data-paper-data="{&quot;origPos&quot;:null}" fill="#000000"/><path d="M138.944,149.94306c3.609,0.498 5.414,0.805 5.414,0.92c1.422,1.222 2.133,1.875 2.133,1.96c-0.577,1.805 -0.906,2.901 -0.985,3.29c0.578,1.282 0.906,2.048 0.985,2.297c0,0.073 -0.942,0.268 -2.826,0.584c-0.024,-0.104 -0.197,-0.335 -0.519,-0.693c-2.601,0.498 -4.002,0.747 -4.202,0.747l-1.386,-3.746l3.054,-1.613c0.492,0.079 1.261,0.118 2.306,0.118c0,-0.133 0.018,-0.537 0.055,-1.212c-0.177,0 -1.75,0.116 -4.722,0.346l-0.055,-0.118c0.414,-1.92 0.663,-2.88 0.748,-2.88zM140.84,155.30207c0,0.067 0.194,0.778 0.583,2.133h0.055c0.765,-0.498 1.148,-0.826 1.148,-0.984l0.119,-0.976c-0.146,0 -0.781,-0.057 -1.905,-0.173z" data-paper-data="{&quot;origPos&quot;:null}" fill="#000000"/><path d="M150.911,149.94306c1.489,3.415 2.282,5.186 2.379,5.314c0.735,-2.789 1.164,-4.275 1.285,-4.457c2.322,0.212 3.482,0.394 3.482,0.546v0.064c-1.628,4.472 -2.503,6.815 -2.625,7.028c-1.798,0.328 -3.002,0.531 -3.609,0.61l-4.457,-6.599v-0.127c0.042,-0.079 1.224,-0.872 3.545,-2.379z" data-paper-data="{&quot;origPos&quot;:null}" fill="#000000"/><path d="M164.2,149.95206c2.753,1.416 4.278,2.242 4.576,2.479c-0.395,1.847 -0.629,2.798 -0.702,2.853h-5.76v0.1l1.613,1.996l2.534,-1.294c0.249,0.431 0.607,1.185 1.075,2.26c-0.218,0.073 -1.813,0.307 -4.785,0.702c-2.461,-1.622 -3.7,-2.467 -3.719,-2.534c0.395,-3.153 0.629,-4.73 0.702,-4.73c2.571,-1.094 4.059,-1.705 4.466,-1.832zM163.608,152.15808c-0.049,0.121 -0.371,0.604 -0.966,1.449c0,0.255 0.358,0.383 1.075,0.383c0,0.036 0.52,0.124 1.559,0.264c0.286,-0.395 0.428,-0.626 0.428,-0.693c-0.091,-0.541 -0.288,-0.811 -0.592,-0.811z" data-paper-data="{&quot;origPos&quot;:null}" fill="#000000"/><path d="M179.404,149.95206c2.752,1.416 4.277,2.242 4.575,2.479c-0.395,1.847 -0.629,2.798 -0.702,2.853h-5.76v0.1l1.613,1.996l2.534,-1.294c0.249,0.431 0.608,1.185 1.075,2.26c-0.218,0.073 -1.813,0.307 -4.785,0.702c-2.461,-1.622 -3.7,-2.467 -3.718,-2.534c0.395,-3.153 0.628,-4.73 0.701,-4.73c2.571,-1.094 4.059,-1.705 4.467,-1.832zM178.811,152.15808c-0.049,0.121 -0.371,0.604 -0.966,1.449c0,0.255 0.358,0.383 1.075,0.383c0,0.036 0.52,0.124 1.559,0.264c0.286,-0.395 0.428,-0.626 0.428,-0.693c-0.091,-0.541 -0.288,-0.811 -0.592,-0.811z" data-paper-data="{&quot;origPos&quot;:null}" fill="#000000"/><path d="M192.902,149.94306l3.035,2.087c-0.212,3.464 -0.361,5.487 -0.446,6.07c-0.353,0.043 -1.425,0.107 -3.218,0.192l-0.063,-0.128l-0.319,-4.867l-0.128,-0.064c-1.161,0.249 -1.96,0.438 -2.397,0.565c0.121,2.072 0.182,3.57 0.182,4.494c-1.811,0.504 -2.801,0.756 -2.971,0.756c-1.179,-5.189 -1.769,-7.929 -1.769,-8.221c2.565,-0.334 3.956,-0.501 4.175,-0.501v0.063c0.042,0.031 0.106,0.663 0.191,1.896c2.352,-1.561 3.595,-2.342 3.728,-2.342z" data-paper-data="{&quot;origPos&quot;:null}" fill="#000000"/><path d="M200.513,149.95206c2.309,0.62 3.533,0.996 3.673,1.13c1.27,1.799 1.984,2.835 2.142,3.108c-0.82,2.601 -1.291,3.901 -1.413,3.901c-2.734,0.638 -4.165,0.957 -4.293,0.957c-2.26,-1.318 -3.463,-2.054 -3.609,-2.205c-0.079,-2.455 -0.119,-3.81 -0.119,-4.066c-0.036,-0.073 -0.054,-0.127 -0.054,-0.164c2.333,-1.774 3.539,-2.661 3.618,-2.661zM200.285,153.28806c-0.036,0.243 -0.091,1.127 -0.164,2.652l2.033,0.456c0.486,-1.519 0.729,-2.33 0.729,-2.434c-1.617,-0.486 -2.483,-0.729 -2.598,-0.729z" data-paper-data="{&quot;origPos&quot;:null}" fill="#000000"/><path d="M212.079,149.94306l0.064,0.118l-1.23,6.526h0.063l3.136,-0.92v-3.692c0.012,-0.085 0.051,-0.127 0.118,-0.127c2.358,0.164 3.67,0.246 3.938,0.246c0,0.042 0.021,0.064 0.064,0.064c0,1.039 -0.328,3.193 -0.985,6.462c0,0.188 -0.942,0.331 -2.825,0.428c-0.097,-0.115 -0.18,-0.361 -0.246,-0.738c-2.413,0.492 -3.789,0.738 -4.129,0.738c-1.926,-1.434 -2.89,-2.172 -2.89,-2.215c0.329,-4.308 0.535,-6.544 0.62,-6.708h0.055c1.537,-0.042 2.953,-0.103 4.247,-0.182z" data-paper-data="{&quot;origPos&quot;:null}" fill="#000000"/><path d="M225.952,149.97006c2.582,0.067 3.873,0.179 3.873,0.337c0.444,6.727 0.666,10.306 0.666,10.737c-1.957,1.246 -3.357,2.091 -4.202,2.534c-2.977,-0.936 -4.466,-1.47 -4.466,-1.604c0.96,-1.404 1.516,-2.115 1.668,-2.133c1.622,0.802 2.555,1.203 2.798,1.203l0.866,-1.139c-0.231,-0.942 -0.386,-1.498 -0.465,-1.668c-0.134,0 -1.78,0.267 -4.94,0.802c-1.732,-2.813 -2.598,-4.256 -2.598,-4.329c1.495,-2.388 2.406,-3.789 2.735,-4.202h0.063c0.177,0 1.489,0.288 3.938,0.866v-0.201c0,-0.237 -0.021,-0.617 -0.064,-1.139zM222.962,153.89806c0.085,0.189 0.353,1.191 0.802,3.008c0.565,-0.182 1.431,-0.516 2.598,-1.002c-0.225,-1.094 -0.337,-1.717 -0.337,-1.869l-0.328,-0.064h-0.402c-0.51,0 -1.288,-0.024 -2.333,-0.073z" data-paper-data="{&quot;origPos&quot;:null}" fill="#000000"/><path d="M235.558,147.19006c0.037,0.055 0.207,1.72 0.511,4.995c2.345,-0.717 3.594,-1.076 3.746,-1.076l2.324,1.586c-0.377,3.464 -0.623,5.487 -0.738,6.071l-3.227,0.109c0,-0.036 -0.021,-0.055 -0.063,-0.055l0.063,-0.228c0,-0.492 0.073,-1.986 0.219,-4.484c-0.887,-0.036 -1.546,-0.055 -1.978,-0.055h-0.228c0.262,2.777 0.392,4.29 0.392,4.539l-3.062,0.456c-0.116,-0.389 -0.796,-4.019 -2.042,-10.892c0,-0.194 0.474,-0.346 1.422,-0.455c1.197,-0.341 2.084,-0.511 2.661,-0.511z" data-paper-data="{&quot;origPos&quot;:null}" fill="#000000"/><path d="M254.426,149.97006c2.582,0.067 3.873,0.179 3.873,0.337c0.444,6.727 0.666,10.306 0.666,10.737c-1.957,1.246 -3.357,2.091 -4.202,2.534c-2.978,-0.936 -4.466,-1.47 -4.466,-1.604c0.96,-1.404 1.516,-2.115 1.668,-2.133c1.622,0.802 2.555,1.203 2.798,1.203l0.866,-1.139c-0.231,-0.942 -0.386,-1.498 -0.465,-1.668c-0.134,0 -1.78,0.267 -4.94,0.802c-1.732,-2.813 -2.598,-4.256 -2.598,-4.329c1.495,-2.388 2.406,-3.789 2.735,-4.202h0.063c0.177,0 1.489,0.288 3.938,0.866v-0.201c0,-0.237 -0.021,-0.617 -0.064,-1.139zM251.436,153.89806c0.085,0.189 0.353,1.191 0.802,3.008c0.565,-0.182 1.431,-0.516 2.598,-1.002c-0.225,-1.094 -0.337,-1.717 -0.337,-1.869l-0.329,-0.064h-0.401c-0.51,0 -1.288,-0.024 -2.333,-0.073z" data-paper-data="{&quot;origPos&quot;:null}" fill="#2b70c2"/><path d="M266.493,149.94306c1.203,0.674 1.942,1.112 2.215,1.312c-0.984,2.048 -1.513,3.09 -1.586,3.127h-0.064l-1.303,-1.14l-1.54,1.878l0.173,3.418c-0.079,0.073 -1.085,0.243 -3.017,0.51c-0.073,-0.522 -0.547,-3.084 -1.422,-7.683c0,-0.073 1.27,-0.262 3.81,-0.565c0.043,0.048 0.158,0.616 0.346,1.704c1.519,-1.708 2.315,-2.561 2.388,-2.561z" data-paper-data="{&quot;origPos&quot;:null}" fill="#2b70c2"/><path d="M270.814,149.94306c3.609,0.498 5.414,0.805 5.414,0.92c1.422,1.222 2.133,1.875 2.133,1.96c-0.578,1.805 -0.906,2.901 -0.985,3.29c0.577,1.282 0.906,2.048 0.985,2.297c0,0.073 -0.942,0.268 -2.826,0.584c-0.024,-0.104 -0.197,-0.335 -0.519,-0.693c-2.601,0.498 -4.002,0.747 -4.202,0.747l-1.386,-3.746l3.054,-1.613c0.492,0.079 1.261,0.118 2.306,0.118c0,-0.133 0.018,-0.537 0.054,-1.212c-0.176,0 -1.75,0.116 -4.721,0.346l-0.055,-0.118c0.413,-1.92 0.663,-2.88 0.748,-2.88zM272.71,155.30207c0,0.067 0.194,0.778 0.583,2.133h0.055c0.765,-0.498 1.148,-0.826 1.148,-0.984l0.118,-0.976c-0.145,0 -0.78,-0.057 -1.904,-0.173z" data-paper-data="{&quot;origPos&quot;:null}" fill="#2b70c2"/><path d="M287.329,149.94306l3.035,2.087c-0.212,3.464 -0.361,5.487 -0.446,6.07c-0.353,0.043 -1.425,0.107 -3.218,0.192l-0.063,-0.128l-0.319,-4.867l-0.128,-0.064c-1.161,0.249 -1.96,0.438 -2.397,0.565c0.121,2.072 0.182,3.57 0.182,4.494c-1.811,0.504 -2.801,0.756 -2.971,0.756c-1.179,-5.189 -1.768,-7.929 -1.768,-8.221c2.564,-0.334 3.955,-0.501 4.174,-0.501v0.063c0.043,0.031 0.106,0.663 0.191,1.896c2.352,-1.561 3.595,-2.342 3.728,-2.342z" data-paper-data="{&quot;origPos&quot;:null}" fill="#2b70c2"/><path d="M296.781,147.18106h0.055c2.746,0.231 4.12,0.41 4.12,0.538l1.212,10.728c0,0.079 -1.212,0.279 -3.637,0.601l-0.055,-0.118v-0.976c-2.09,0.566 -3.524,0.93 -4.302,1.094c-1.847,-2.613 -2.816,-4.004 -2.907,-4.174c1.361,-2.473 2.087,-3.725 2.178,-3.755l3.819,0.182c-0.079,-0.468 -0.24,-1.841 -0.483,-4.12zM295.086,153.71606c0.614,1.878 0.996,2.908 1.148,3.09l1.814,-1.577c-0.188,-1.087 -0.328,-1.631 -0.419,-1.631h-2.425c-0.079,0.012 -0.118,0.051 -0.118,0.118z" data-paper-data="{&quot;origPos&quot;:null}" fill="#2b70c2"/><path d="M315.101,149.94306c1.75,1.118 2.717,1.762 2.899,1.932c-0.632,1.404 -0.994,2.106 -1.085,2.106l-3.317,-1.924h-0.119c0,0.061 -0.143,0.401 -0.428,1.021c3.056,1.647 4.584,2.491 4.584,2.534c-0.856,1.981 -1.34,3.026 -1.449,3.135l-5.186,0.301c-2.017,-1.337 -3.102,-2.041 -3.254,-2.114v-0.055c0,-0.152 0.301,-0.836 0.902,-2.051l4.047,2.106l0.301,-1.203c-2.503,-1.125 -3.992,-1.826 -4.466,-2.106v-0.128c0,-0.23 0.483,-1.254 1.449,-3.071z" data-paper-data="{&quot;origPos&quot;:null}" fill="#2b70c2"/><path d="M321.627,147.19006l4.011,0.711l-0.383,3.044c0.796,-0.042 1.379,-0.063 1.75,-0.063h0.583l0.128,-0.064l0.064,0.127c-0.128,1.848 -0.237,2.887 -0.328,3.118l-0.128,-0.073c-0.091,0 -0.911,-0.043 -2.461,-0.128c-0.085,1.428 -0.149,3.135 -0.191,5.122l-0.128,0.064c-1.956,-0.127 -3.123,-0.237 -3.5,-0.328l0.064,-0.255c0,-0.529 0.085,-2.169 0.255,-4.922c-1.64,-0.091 -2.461,-0.2 -2.461,-0.328c0.085,-2.03 0.195,-3.044 0.328,-3.044l2.397,0.455v-0.783c0,-0.639 -0.024,-1.501 -0.072,-2.589c0.048,0 0.072,-0.021 0.072,-0.064z" data-paper-data="{&quot;origPos&quot;:null}" fill="#2b70c2"/><path d="M330.131,149.94306c3.61,0.498 5.414,0.805 5.414,0.92c1.422,1.222 2.133,1.875 2.133,1.96c-0.577,1.805 -0.905,2.901 -0.984,3.29c0.577,1.282 0.905,2.048 0.984,2.297c0,0.073 -0.942,0.268 -2.825,0.584c-0.025,-0.104 -0.198,-0.335 -0.52,-0.693c-2.6,0.498 -4.001,0.747 -4.202,0.747l-1.385,-3.746l3.053,-1.613c0.493,0.079 1.261,0.118 2.306,0.118c0,-0.133 0.019,-0.537 0.055,-1.212c-0.176,0 -1.75,0.116 -4.721,0.346l-0.055,-0.118c0.413,-1.92 0.662,-2.88 0.747,-2.88zM332.027,155.30207c0,0.067 0.195,0.778 0.584,2.133h0.054c0.766,-0.498 1.149,-0.826 1.149,-0.984l0.118,-0.976c-0.146,0 -0.781,-0.057 -1.905,-0.173z" data-paper-data="{&quot;origPos&quot;:null}" fill="#2b70c2"/><path d="M345.098,149.94306c1.203,0.674 1.941,1.112 2.214,1.312c-0.984,2.048 -1.513,3.09 -1.586,3.127h-0.063l-1.304,-1.14l-1.54,1.878l0.173,3.418c-0.079,0.073 -1.085,0.243 -3.017,0.51c-0.073,-0.522 -0.547,-3.084 -1.422,-7.683c0,-0.073 1.27,-0.262 3.81,-0.565c0.043,0.048 0.158,0.616 0.347,1.704c1.519,-1.708 2.315,-2.561 2.388,-2.561z" data-paper-data="{&quot;origPos&quot;:null}" fill="#2b70c2"/><path d="M355.388,149.94306c1.75,1.118 2.716,1.762 2.898,1.932c-0.632,1.404 -0.993,2.106 -1.084,2.106l-3.318,-1.924h-0.119c0,0.061 -0.142,0.401 -0.428,1.021c3.057,1.647 4.585,2.491 4.585,2.534c-0.857,1.981 -1.34,3.026 -1.449,3.135l-5.187,0.301c-2.017,-1.337 -3.102,-2.041 -3.254,-2.114v-0.055c0,-0.152 0.301,-0.836 0.903,-2.051l4.047,2.106l0.3,-1.203c-2.503,-1.125 -3.992,-1.826 -4.466,-2.106v-0.128c0,-0.23 0.483,-1.254 1.449,-3.071z" data-paper-data="{&quot;origPos&quot;:null}" fill="#2b70c2"/><path d="M366.544,147.19006l4.011,0.711l-0.383,3.044c0.796,-0.042 1.379,-0.063 1.75,-0.063h0.583l0.128,-0.064l0.063,0.127c-0.127,1.848 -0.236,2.887 -0.328,3.118l-0.127,-0.073c-0.091,0 -0.912,-0.043 -2.461,-0.128c-0.085,1.428 -0.149,3.135 -0.192,5.122l-0.127,0.064c-1.957,-0.127 -3.123,-0.237 -3.5,-0.328l0.064,-0.255c0,-0.529 0.085,-2.169 0.255,-4.922c-1.641,-0.091 -2.461,-0.2 -2.461,-0.328c0.085,-2.03 0.194,-3.044 0.328,-3.044l2.397,0.455v-0.783c0,-0.639 -0.024,-1.501 -0.073,-2.589c0.049,0 0.073,-0.021 0.073,-0.064z" data-paper-data="{&quot;origPos&quot;:null}" fill="#000000"/><path d="M377.336,149.95206c2.309,0.62 3.533,0.996 3.673,1.13c1.27,1.799 1.984,2.835 2.142,3.108c-0.82,2.601 -1.291,3.901 -1.413,3.901c-2.734,0.638 -4.165,0.957 -4.293,0.957c-2.26,-1.318 -3.463,-2.054 -3.609,-2.205c-0.079,-2.455 -0.119,-3.81 -0.119,-4.066c-0.036,-0.073 -0.054,-0.127 -0.054,-0.164c2.333,-1.774 3.539,-2.661 3.618,-2.661zM377.108,153.28806c-0.037,0.243 -0.091,1.127 -0.164,2.652l2.032,0.456c0.487,-1.519 0.73,-2.33 0.73,-2.434c-1.617,-0.486 -2.483,-0.729 -2.598,-0.729z" data-paper-data="{&quot;origPos&quot;:null}" fill="#000000"/><path d="M392.284,149.95206c2.309,0.62 3.533,0.996 3.673,1.13c1.27,1.799 1.984,2.835 2.142,3.108c-0.82,2.601 -1.291,3.901 -1.413,3.901c-2.734,0.638 -4.165,0.957 -4.293,0.957c-2.26,-1.318 -3.463,-2.054 -3.609,-2.205c-0.079,-2.455 -0.119,-3.81 -0.119,-4.066c-0.036,-0.073 -0.054,-0.127 -0.054,-0.164c2.333,-1.774 3.539,-2.661 3.618,-2.661zM392.056,153.28806c-0.037,0.243 -0.091,1.127 -0.164,2.652l2.032,0.456c0.486,-1.519 0.729,-2.33 0.729,-2.434c-1.616,-0.486 -2.482,-0.729 -2.597,-0.729z" data-paper-data="{&quot;origPos&quot;:null}" fill="#000000"/><path d="M403.504,149.95206c0.188,0.778 0.319,1.258 0.392,1.44c2.685,-0.614 4.104,-0.921 4.256,-0.921c1.829,2.631 2.744,4.005 2.744,4.12l-2.097,4.448l-4.511,-0.72v0.137c0.352,2.704 0.528,4.141 0.528,4.311c-0.042,0 -0.064,0.021 -0.064,0.064c-0.437,-0.043 -0.765,-0.064 -0.984,-0.064h-0.784c-0.455,0 -1.154,-0.021 -2.096,-0.064c-0.085,-0.255 -0.738,-4.135 -1.96,-11.639c0.207,-0.085 1.732,-0.456 4.576,-1.112zM403.832,153.68006c0.121,1.397 0.231,2.096 0.328,2.096c1.246,0.432 2.008,0.647 2.288,0.647l0.72,-3.135h-0.064c-0.711,0.042 -1.802,0.173 -3.272,0.392z" data-paper-data="{&quot;origPos&quot;:null}" fill="#000000"/><path d="M417.002,149.95206c2.753,1.416 4.278,2.242 4.576,2.479c-0.395,1.847 -0.629,2.798 -0.702,2.853h-5.76v0.1l1.613,1.996l2.534,-1.294c0.249,0.431 0.608,1.185 1.075,2.26c-0.218,0.073 -1.813,0.307 -4.785,0.702c-2.461,-1.622 -3.7,-2.467 -3.718,-2.534c0.394,-3.153 0.628,-4.73 0.701,-4.73c2.571,-1.094 4.059,-1.705 4.466,-1.832zM416.41,152.15808c-0.049,0.121 -0.371,0.604 -0.966,1.449c0,0.255 0.358,0.383 1.075,0.383c0,0.036 0.52,0.124 1.559,0.264c0.286,-0.395 0.428,-0.626 0.428,-0.693c-0.091,-0.541 -0.288,-0.811 -0.592,-0.811z" data-paper-data="{&quot;origPos&quot;:null}" fill="#000000"/><path d="M430.501,149.94306l3.035,2.087c-0.212,3.464 -0.361,5.487 -0.446,6.07c-0.353,0.043 -1.425,0.107 -3.218,0.192l-0.064,-0.128l-0.319,-4.867l-0.127,-0.064c-1.161,0.249 -1.96,0.438 -2.397,0.565c0.121,2.072 0.182,3.57 0.182,4.494c-1.811,0.504 -2.801,0.756 -2.971,0.756c-1.179,-5.189 -1.769,-7.929 -1.769,-8.221c2.565,-0.334 3.956,-0.501 4.175,-0.501v0.063c0.042,0.031 0.106,0.663 0.191,1.896c2.352,-1.561 3.595,-2.342 3.728,-2.342z" data-paper-data="{&quot;origPos&quot;:null}" fill="#000000"/><path d="M35.502,170.52306l4.011,0.711l-0.383,3.045c0.796,-0.043 1.379,-0.064 1.75,-0.064h0.583l0.128,-0.064l0.064,0.128c-0.128,1.847 -0.237,2.886 -0.328,3.117l-0.128,-0.073c-0.091,0 -0.911,-0.043 -2.461,-0.128c-0.085,1.428 -0.149,3.136 -0.191,5.123l-0.128,0.064c-1.956,-0.128 -3.123,-0.237 -3.5,-0.329l0.064,-0.255c0,-0.528 0.085,-2.169 0.255,-4.922c-1.64,-0.091 -2.461,-0.2 -2.461,-0.328c0.085,-2.029 0.195,-3.044 0.328,-3.044l2.397,0.456v-0.784c0,-0.638 -0.024,-1.501 -0.072,-2.589c0.048,0 0.072,-0.021 0.072,-0.064z" data-paper-data="{&quot;origPos&quot;:null}" fill="#000000"/><path d="M46.704,170.52306c0.037,0.055 0.207,1.72 0.511,4.995c2.345,-0.717 3.594,-1.075 3.746,-1.075l2.324,1.586c-0.377,3.463 -0.623,5.487 -0.738,6.07l-3.227,0.109c0,-0.036 -0.021,-0.054 -0.064,-0.054l0.064,-0.228c0,-0.492 0.073,-1.987 0.219,-4.485c-0.887,-0.036 -1.546,-0.054 -1.978,-0.054h-0.228c0.262,2.777 0.392,4.29 0.392,4.539l-3.062,0.456c-0.116,-0.389 -0.796,-4.02 -2.042,-10.892c0,-0.195 0.474,-0.347 1.422,-0.456c1.197,-0.34 2.084,-0.511 2.661,-0.511z" data-paper-data="{&quot;origPos&quot;:null}" fill="#000000"/><path d="M55.4,169.62108l3.582,0.565c-0.45,1.72 -0.745,2.58 -0.884,2.58c-1.884,-0.128 -2.826,-0.252 -2.826,-0.374v-2.643c0.018,-0.085 0.061,-0.128 0.128,-0.128zM54.397,173.96008h0.055c2.771,0.504 4.156,0.799 4.156,0.884c-0.796,4.508 -1.279,7.021 -1.449,7.538h-2.89c-0.085,0 -0.127,-0.043 -0.127,-0.128z" data-paper-data="{&quot;origPos&quot;:null}" fill="#000000"/><path d="M66.638,173.27608c1.75,1.118 2.716,1.762 2.898,1.932c-0.632,1.404 -0.993,2.106 -1.084,2.106l-3.318,-1.923h-0.118c0,0.06 -0.143,0.401 -0.429,1.021c3.057,1.646 4.585,2.491 4.585,2.533c-0.857,1.981 -1.34,3.026 -1.449,3.136l-5.187,0.301c-2.017,-1.337 -3.102,-2.042 -3.254,-2.115v-0.055c0,-0.152 0.301,-0.835 0.903,-2.05l4.047,2.105l0.3,-1.203c-2.503,-1.124 -3.992,-1.826 -4.466,-2.106v-0.127c0,-0.231 0.483,-1.255 1.45,-3.072z" data-paper-data="{&quot;origPos&quot;:null}" fill="#000000"/><path d="M80.583,170.51408h0.055c2.746,0.231 4.12,0.411 4.12,0.538l1.212,10.728c0,0.079 -1.212,0.28 -3.637,0.602l-0.054,-0.119v-0.975c-2.091,0.565 -3.525,0.93 -4.303,1.094c-1.847,-2.613 -2.816,-4.005 -2.907,-4.175c1.361,-2.473 2.087,-3.725 2.178,-3.755l3.819,0.182c-0.079,-0.468 -0.24,-1.841 -0.483,-4.12zM78.888,177.05008c0.614,1.877 0.996,2.907 1.148,3.089l1.814,-1.576c-0.188,-1.088 -0.328,-1.632 -0.419,-1.632h-2.425c-0.079,0.012 -0.118,0.052 -0.118,0.119z" data-paper-data="{&quot;origPos&quot;:null}" fill="#000000"/><path d="M90.591,173.28506c2.309,0.62 3.533,0.997 3.673,1.13c1.27,1.799 1.984,2.835 2.142,3.108c-0.82,2.601 -1.291,3.902 -1.413,3.902c-2.734,0.638 -4.165,0.957 -4.293,0.957c-2.26,-1.319 -3.463,-2.054 -3.609,-2.206c-0.079,-2.455 -0.118,-3.81 -0.118,-4.065c-0.037,-0.073 -0.055,-0.128 -0.055,-0.164c2.333,-1.775 3.539,-2.662 3.618,-2.662zM90.363,176.62108c-0.036,0.243 -0.091,1.127 -0.164,2.652l2.033,0.456c0.486,-1.519 0.729,-2.33 0.729,-2.433c-1.616,-0.486 -2.482,-0.73 -2.598,-0.73z" data-paper-data="{&quot;origPos&quot;:null}" fill="#000000"/><path d="M100.909,173.28506c2.309,0.62 3.533,0.997 3.673,1.13c1.27,1.799 1.984,2.835 2.142,3.108c-0.82,2.601 -1.291,3.902 -1.413,3.902c-2.734,0.638 -4.165,0.957 -4.293,0.957c-2.26,-1.319 -3.463,-2.054 -3.609,-2.206c-0.079,-2.455 -0.119,-3.81 -0.119,-4.065c-0.036,-0.073 -0.054,-0.128 -0.054,-0.164c2.333,-1.775 3.539,-2.662 3.618,-2.662zM100.681,176.62108c-0.037,0.243 -0.091,1.127 -0.164,2.652l2.032,0.456c0.486,-1.519 0.73,-2.33 0.73,-2.433c-1.617,-0.486 -2.483,-0.73 -2.598,-0.73z" data-paper-data="{&quot;origPos&quot;:null}" fill="#000000"/><path d="M114.098,173.27608c1.203,0.675 1.941,1.112 2.214,1.313c-0.984,2.047 -1.513,3.089 -1.586,3.126h-0.063l-1.304,-1.139l-1.54,1.877l0.173,3.418c-0.079,0.073 -1.085,0.243 -3.017,0.511c-0.073,-0.523 -0.547,-3.084 -1.422,-7.684c0,-0.073 1.27,-0.261 3.81,-0.565c0.043,0.048 0.158,0.617 0.347,1.704c1.519,-1.707 2.315,-2.561 2.388,-2.561z" data-paper-data="{&quot;origPos&quot;:null}" fill="#000000"/><path d="M121.043,170.86107l0.036,0.073c-0.607,5.365 -0.948,8.185 -1.021,8.458c-1.288,-0.122 -2.102,-0.207 -2.442,-0.255v-0.037l-0.584,-7.619c0.146,-0.049 1.483,-0.256 4.011,-0.62zM117.433,179.57408c0.043,0.025 0.991,0.097 2.844,0.219l0.037,0.073c-0.286,1.677 -0.468,2.516 -0.547,2.516h-2.115c-0.073,0 -0.17,-0.839 -0.291,-2.516c-0.025,0 -0.037,-0.073 -0.037,-0.219c0.073,-0.024 0.109,-0.048 0.109,-0.073z" data-paper-data="{&quot;origPos&quot;:null}" fill="#000000"/></g></g></g></svg>