<svg version="1.1" xmlns="http://www.w3.org/2000/svg" xmlns:xlink="http://www.w3.org/1999/xlink" width="441.55828" height="91.66968" viewBox="0,0,441.55828,91.66968"><defs><linearGradient x1="25.5327" y1="70.2076" x2="25.5327" y2="149.819" gradientUnits="userSpaceOnUse" id="color-1"><stop offset="0" stop-color="#ffffff"/><stop offset="1" stop-color="#ffffff"/></linearGradient><radialGradient cx="58.0101" cy="80.167" r="31.1457" gradientUnits="userSpaceOnUse" id="color-2"><stop offset="0" stop-color="#2ebdff"/><stop offset="1" stop-color="#18628c"/></radialGradient></defs><g transform="translate(-19.50356,-64.17846)"><g data-paper-data="{&quot;isPaintingLayer&quot;:true}" fill-rule="nonzero" stroke-linecap="butt" stroke-linejoin="miter" stroke-miterlimit="10" stroke-dasharray="" stroke-dashoffset="0" style="mix-blend-mode: normal"><path d="M25.5327,70.2076h429.5v79.6114h-429.5z" fill="#ffffff" stroke="url(#color-1)" stroke-width="12.05828"/><text transform="translate(28.9383,105.4168) scale(0.74414,0.74413)" font-size="22" xml:space="preserve" fill="#2392d1" fill-rule="nonzero" stroke="none" stroke-width="1" stroke-linecap="butt" stroke-linejoin="miter" stroke-miterlimit="10" stroke-dasharray="" stroke-dashoffset="0" font-family="Sans Serif" font-weight="400" text-anchor="start" style="mix-blend-mode: normal"><tspan x="0" dy="0">Mario is the main character of the game.</tspan><tspan x="0" dy="24.86px">His jumps aren't high, but they aren't low either. Same</tspan><tspan x="0" dy="24.86px">with his speed. He's good for beginners.</tspan></text><g><path d="M72.1783,72.1579c-0.484,1.8673 -0.8098,2.7959 -0.9579,2.7959c-2.0448,-0.1386 -3.0624,-0.2767 -3.0624,-0.4051v-2.8647c0.0197,-0.089 0.0693,-0.138 0.1381,-0.138zM37.427,72.8695c0.7212,1.926 1.1557,3.161 1.314,3.6941h0.0591c0.1679,-0.3651 0.83,-1.3827 1.9659,-3.0421h0.0592c1.7879,0.1087 2.677,0.2372 2.677,0.3651l1.6103,11.0145c0,0.0688 -1.4126,0.2271 -4.2281,0.4739l-0.0592,-0.1184c-0.1578,-3.3486 -0.2372,-5.3934 -0.2372,-6.1343h-0.0592l-2.4398,2.1434h-0.0591c-0.0794,-0.0395 -0.6322,-0.9089 -1.6695,-2.6178h-0.0592c-1.2745,3.7046 -1.9659,5.67 -2.0843,5.8976h-0.1188c-2.2719,-1.0277 -3.5661,-1.6402 -3.8721,-1.8475v-0.0592c2.815,-6.628 4.2873,-9.9968 4.4057,-10.1248c1.8667,0.128 2.7953,0.2468 2.7953,0.3555zM53.3999,76.5044c1.5411,1.3236 2.3118,2.0352 2.3118,2.1237c-0.6226,1.9563 -0.9781,3.1413 -1.0671,3.5661c0.6226,1.3929 0.9781,2.2229 1.0671,2.4894c0,0.0789 -1.0176,0.2863 -3.0623,0.6322c-0.0299,-0.1087 -0.2175,-0.3657 -0.563,-0.7506c-2.8155,0.5432 -4.3368,0.8098 -4.5538,0.8098l-1.5016,-4.0598l3.3092,-1.7484c0.5335,0.089 1.363,0.1285 2.4989,0.1285c0,-0.1482 0.0198,-0.5832 0.0597,-1.314c-0.1881,0 -1.8966,0.1285 -5.1173,0.3753l-0.0591,-0.1285c0.4445,-2.0842 0.7212,-3.121 0.8102,-3.121c3.9115,0.5432 5.8673,0.8689 5.8673,0.9973zM66.1526,76.9293c-1.0666,2.2228 -1.6396,3.3486 -1.7185,3.3881h-0.0693l-1.4126,-1.2346l-1.6695,2.0347l0.1876,3.7047c-0.0885,0.0789 -1.1754,0.2665 -3.2692,0.5528c-0.0794,-0.5629 -0.5928,-3.3386 -1.5411,-8.3274c0,-0.0789 1.3727,-0.2862 4.1291,-0.6124c0.049,0.0495 0.1679,0.6721 0.3752,1.8475c1.6498,-1.8475 2.5091,-2.7756 2.588,-2.7756c1.3039,0.7308 2.104,1.2047 2.4003,1.4222zM76.4853,75.5167c2.499,0.6716 3.8327,1.0768 3.9809,1.2249c1.3731,1.9462 2.1535,3.072 2.3214,3.3684c-0.8891,2.8156 -1.403,4.2277 -1.5314,4.2277c-2.9633,0.6918 -4.514,1.0373 -4.6525,1.0373c-2.4499,-1.4323 -3.7538,-2.2223 -3.9116,-2.3903c-0.089,-2.6572 -0.1284,-4.129 -0.1284,-4.4056c-0.0395,-0.0789 -0.0592,-0.1386 -0.0592,-0.1781c2.5288,-1.9259 3.8326,-2.8843 3.9216,-2.8843zM67.2689,76.2475c3.0032,0.5437 4.5043,0.8694 4.5043,0.9584c-0.8593,4.8897 -1.3828,7.6062 -1.5704,8.1691h-3.1312c-0.089,0 -0.1386,-0.0491 -0.1386,-0.1381l0.2767,-8.9894zM76.2977,79.1324c-0.0395,0.2665 -0.0991,1.2244 -0.178,2.8742l2.203,0.4941c0.5235,-1.6498 0.79,-2.5288 0.79,-2.6375c-1.7484,-0.5235 -2.6866,-0.7905 -2.815,-0.7905zM50.2192,83.6266h0.0592c0.8299,-0.5432 1.2446,-0.8988 1.2446,-1.0667l0.1285,-1.057c-0.1578,0 -0.8492,-0.0592 -2.0645,-0.1877c0,0.0693 0.2073,0.8396 0.6322,2.3114z" fill="#000000" stroke="#dbf1ff" stroke-width="4.55184"/><path d="M72.1783,72.1579c-0.484,1.8673 -0.8098,2.7959 -0.9579,2.7959c-2.0448,-0.1386 -3.0624,-0.2767 -3.0624,-0.4051v-2.8647c0.0197,-0.089 0.0693,-0.138 0.1381,-0.138zM37.427,72.8695c0.7212,1.926 1.1557,3.161 1.314,3.6941h0.0591c0.1679,-0.3651 0.83,-1.3827 1.9659,-3.0421h0.0592c1.7879,0.1087 2.677,0.2372 2.677,0.3651l1.6103,11.0145c0,0.0688 -1.4126,0.2271 -4.2281,0.4739l-0.0592,-0.1184c-0.1578,-3.3486 -0.2372,-5.3934 -0.2372,-6.1343h-0.0592l-2.4398,2.1434h-0.0591c-0.0794,-0.0395 -0.6322,-0.9089 -1.6695,-2.6178h-0.0592c-1.2745,3.7046 -1.9659,5.67 -2.0843,5.8976h-0.1188c-2.2719,-1.0277 -3.5661,-1.6402 -3.8721,-1.8475v-0.0592c2.815,-6.628 4.2873,-9.9968 4.4057,-10.1248c1.8667,0.128 2.7953,0.2468 2.7953,0.3555zM53.3999,76.5044c1.5411,1.3236 2.3118,2.0352 2.3118,2.1237c-0.6226,1.9563 -0.9781,3.1413 -1.0671,3.5661c0.6226,1.3929 0.9781,2.2229 1.0671,2.4894c0,0.0789 -1.0176,0.2863 -3.0623,0.6322c-0.0299,-0.1087 -0.2175,-0.3657 -0.563,-0.7506c-2.8155,0.5432 -4.3368,0.8098 -4.5538,0.8098l-1.5016,-4.0598l3.3092,-1.7484c0.5335,0.089 1.363,0.1285 2.4989,0.1285c0,-0.1482 0.0198,-0.5832 0.0597,-1.314c-0.1881,0 -1.8966,0.1285 -5.1173,0.3753l-0.0591,-0.1285c0.4445,-2.0842 0.7212,-3.121 0.8102,-3.121c3.9115,0.5432 5.8673,0.8689 5.8673,0.9973zM66.1526,76.9293c-1.0666,2.2228 -1.6396,3.3486 -1.7185,3.3881h-0.0693l-1.4126,-1.2346l-1.6695,2.0347l0.1876,3.7047c-0.0885,0.0789 -1.1754,0.2665 -3.2692,0.5528c-0.0794,-0.5629 -0.5928,-3.3386 -1.5411,-8.3274c0,-0.0789 1.3727,-0.2862 4.1291,-0.6124c0.049,0.0495 0.1679,0.6721 0.3752,1.8475c1.6498,-1.8475 2.5091,-2.7756 2.588,-2.7756c1.3039,0.7308 2.104,1.2047 2.4003,1.4222zM76.4853,75.5167c2.499,0.6716 3.8327,1.0768 3.9809,1.2249c1.3731,1.9462 2.1535,3.072 2.3214,3.3684c-0.8891,2.8156 -1.403,4.2277 -1.5314,4.2277c-2.9633,0.6918 -4.514,1.0373 -4.6525,1.0373c-2.4499,-1.4323 -3.7538,-2.2223 -3.9116,-2.3903c-0.089,-2.6572 -0.1284,-4.129 -0.1284,-4.4056c-0.0395,-0.0789 -0.0592,-0.1386 -0.0592,-0.1781c2.5288,-1.9259 3.8326,-2.8843 3.9216,-2.8843zM67.2689,76.2475c3.0032,0.5437 4.5043,0.8694 4.5043,0.9584c-0.8593,4.8897 -1.3828,7.6062 -1.5704,8.1691h-3.1312c-0.089,0 -0.1386,-0.0491 -0.1386,-0.1381l0.2767,-8.9894zM76.2977,79.1324c-0.0395,0.2665 -0.0991,1.2244 -0.178,2.8742l2.203,0.4941c0.5235,-1.6498 0.79,-2.5288 0.79,-2.6375c-1.7484,-0.5235 -2.6866,-0.7905 -2.815,-0.7905zM50.2192,83.6266h0.0592c0.8299,-0.5432 1.2446,-0.8988 1.2446,-1.0667l0.1285,-1.057c-0.1578,0 -0.8492,-0.0592 -2.0645,-0.1877c0,0.0693 0.2073,0.8396 0.6322,2.3114z" fill="url(#color-2)" stroke="none" stroke-width="0.50576"/></g></g></g></svg>