<svg version="1.1" xmlns="http://www.w3.org/2000/svg" xmlns:xlink="http://www.w3.org/1999/xlink" width="24.35" height="24.35"><defs><radialGradient cx="233.54" cy="172.2421" r="25.9128" gradientUnits="userSpaceOnUse" id="color-1"><stop offset="0" stop-color="#ffff00"/><stop offset="1" stop-color="#ff9400"/></radialGradient><radialGradient cx="238.4916" cy="173.7845" r="17.7348" gradientUnits="userSpaceOnUse" id="color-2"><stop offset="0" stop-color="#bda501"/><stop offset="1" stop-color="#c07801"/></radialGradient></defs><g transform="translate(-227.825,-167.825)"><g data-paper-data="{&quot;isPaintingLayer&quot;:true}" fill="none" fill-rule="nonzero" stroke="none" stroke-width="none" stroke-linecap="butt" stroke-linejoin="miter" stroke-miterlimit="10" stroke-dasharray="" stroke-dashoffset="0" font-family="none" font-weight="none" font-size="none" text-anchor="none" style="mix-blend-mode: normal"><path d="M240,167.825c3.3591,0 6.4026,1.3645 8.6066,3.5685c2.204,2.2039 3.5684,5.2474 3.5684,8.6065c0,3.359 -1.3644,6.4026 -3.5684,8.6065c-2.204,2.204 -5.2475,3.5685 -8.6066,3.5685c-3.359,0 -6.4025,-1.3645 -8.6065,-3.5685c-2.204,-2.2039 -3.5685,-5.2475 -3.5685,-8.6065c0,-3.3591 1.3645,-6.4026 3.5685,-8.6065c2.204,-2.204 5.2475,-3.5685 8.6065,-3.5685z" data-paper-data="{&quot;origPos&quot;:null}" id="ID0.7142658131197095" fill="url(#color-1)" stroke-width="0.48028"/><path d="M237.4479,170.6165h4.8028v18.4186h-4.8028z" data-paper-data="{&quot;origPos&quot;:null}" id="ID0.06001657713204622" fill="url(#color-2)" stroke-width="0.59798"/></g></g></svg>