<svg xmlns="http://www.w3.org/2000/svg" xmlns:xlink="http://www.w3.org/1999/xlink" version="1.1" width="40.03776773870555" height="33.28981623113719" viewBox="0.14182837277369087 -0.5598939930303257 40.03776773870555 33.28981623113719">
  <defs>
    <radialGradient id="grad_1" cx="0.25379999999999997" cy="0.19690000000000002" r="1.04403">
      <stop offset="0" stop-color="#FFFBC6" stop-opacity="1"/>
      <stop offset="1" stop-color="#E6D380" stop-opacity="1"/>
    </radialGradient>
    <radialGradient id="grad_2" cx="0.4299" cy="0.4257" r="0.7465900000000001">
      <stop offset="0" stop-color="#FFFBC6" stop-opacity="1"/>
      <stop offset="1" stop-color="#E6D380" stop-opacity="1"/>
    </radialGradient>
    <radialGradient id="grad_3" cx="0.4482" cy="0.49" r="0.71734">
      <stop offset="0" stop-color="#4F492C" stop-opacity="1"/>
      <stop offset="1" stop-color="#000000" stop-opacity="1"/>
    </radialGradient>
    <radialGradient id="grad_4" cx="0.4057" cy="0.19579999999999997" r="1.04546">
      <stop offset="0" stop-color="#43F665" stop-opacity="1"/>
      <stop offset="1" stop-color="#36C651" stop-opacity="1"/>
    </radialGradient>
    <radialGradient id="grad_5" cx="0.5215" cy="0.1844" r="1.0602800000000001">
      <stop offset="0" stop-color="#FFFFFF" stop-opacity="1"/>
      <stop offset="1" stop-color="#E5E5E5" stop-opacity="1"/>
    </radialGradient>
  <radialGradient id="grad_1-1,0,0,1,255.95,-166.3" cx="35.8506" cy="15.4488" r="15.5074" gradientUnits="userSpaceOnUse">
      <stop offset="0" stop-color="#FFFBC6" stop-opacity="1"/>
      <stop offset="1" stop-color="#E6D380" stop-opacity="1"/>
    </radialGradient><radialGradient id="grad_2-0.8257243037223816,0,0,1,218.3,-162.6" cx="21.1498" cy="21.8975" r="21.2458" gradientUnits="userSpaceOnUse">
      <stop offset="0" stop-color="#FFFBC6" stop-opacity="1"/>
      <stop offset="1" stop-color="#E6D380" stop-opacity="1"/>
    </radialGradient><radialGradient id="grad_3-1.348266839981079,0,0,0.9077160954475403,327.2,-148.1" cx="27.6395" cy="21.6794" r="7.3294" gradientUnits="userSpaceOnUse">
      <stop offset="0" stop-color="#4F492C" stop-opacity="1"/>
      <stop offset="1" stop-color="#000000" stop-opacity="1"/>
    </radialGradient><radialGradient id="grad_4-0.8559701442718506,0,0,0.9666550755500793,224.95,-156.1" cx="23.1757" cy="3.9737" r="30.5678" gradientUnits="userSpaceOnUse">
      <stop offset="0" stop-color="#43F665" stop-opacity="1"/>
      <stop offset="1" stop-color="#36C651" stop-opacity="1"/>
    </radialGradient><radialGradient id="grad_5-0.924096405506134,0,0,1,242.2,-161.7" cx="19.3246" cy="15.1408" r="31.1856" gradientUnits="userSpaceOnUse">
      <stop offset="0" stop-color="#FFFFFF" stop-opacity="1"/>
      <stop offset="1" stop-color="#E5E5E5" stop-opacity="1"/>
    </radialGradient></defs>
  <!-- Exported by Scratch - http://scratch.mit.edu/ -->
  <path id="ID0.7226808085106313" fill="url(#grad_1-1,0,0,1,255.95,-166.3)" stroke="none" d="M 32.65 12.2 C 30.857 12.2 29.232 13.124 28.055 14.618 C 26.878 16.111 26.15 18.174 26.15 20.45 C 26.15 22.726 26.878 24.789 28.055 26.282 C 29.232 27.776 30.857 28.7 32.65 28.7 C 34.443 28.7 36.068 27.776 37.245 26.282 C 38.422 24.789 39.15 22.726 39.15 20.45 C 39.15 18.174 38.422 16.111 37.245 14.618 C 36.068 13.124 34.443 12.2 32.65 12.2 Z " stroke-width="1"/>
  <path id="ID0.15607240749523044" fill="url(#grad_2-0.8257243037223816,0,0,1,218.3,-162.6)" stroke="none" stroke-linecap="round" d="M 25.8237 16.1 C 22.5621 16.495 19.3326 15.699 16.1214 15.7 C 11.7096 16.216 7.0071 15.466 2.9924 17.65 C 1.7001 18.355 2.4259 21.393 3.1162 22.95 C 4.302 25.612 5.9691 28.435 8.277 29.7 C 12.0316 31.659 16.2296 32.217 20.4152 32.15 C 24.633 32.083 29.0225 31.395 32.5855 29.146 C 34.6895 27.828 35.516 24.979 35.3608 22.5 C 35.516 19.605 34.744 15.967 32.5855 14.654 C 30.5163 13.393 28.0952 15.828 25.8237 16.1 Z " stroke-width="0.9170116209072303"/>
  <path id="ID0.21181316301226616" fill="url(#grad_3-1.348266839981079,0,0,0.9077160954475403,327.2,-148.1)" stroke="none" d="M 27.1769 17.3313 C 25.5617 17.5791 23.666 17.8713 22.6939 18.7836 C 21.831 19.5887 22.3151 20.7579 22.4243 21.7791 C 22.5389 22.8266 22.5443 23.7996 23.5029 24.8653 C 24.2647 25.6877 25.7545 26.3703 27.1769 26.4084 C 28.5036 26.4438 29.7467 25.9001 30.6325 25.0786 C 31.517 24.2562 32.0563 22.9854 32.0644 21.8698 C 32.0752 20.4012 32.0361 18.7446 30.7835 17.5582 C 30.0555 16.9055 28.3229 17.1561 27.1769 17.3313 Z " stroke-width="1.149298042660626"/>
  <path id="ID0.26931737549602985" fill="url(#grad_4-0.8559701442718506,0,0,0.9666550755500793,224.95,-156.1)" stroke="none" stroke-linecap="round" d="M 20.0307 0.0148 C 15.6473 0.008 10.645 0.7698 7.3196 4.0264 C 4.233 7.1303 3.7451 12.56 2.7829 17.1246 C 2.5424 18.2633 3.3642 18.6819 4.3237 18.9129 C 8.1593 19.8361 12.1327 20.4383 16.0505 20.1696 C 20.8944 19.839 25.7615 18.9284 30.4736 17.5596 C 32.8258 16.8414 36.717 16.6181 37.0646 13.9588 C 37.543 10.301 35.1557 6.6257 32.0725 4.1018 C 28.9885 1.5769 24.2464 0.0216 20.0307 0.0148 Z " stroke-width="0.9129914903687499"/>
  <path id="ID0.9385899971239269" fill="none" stroke="#2B9638" stroke-width="1.0000000025314244" stroke-linecap="round" d="M 11.8831 19.3621 L 15.007 15.6119 L 16.3924 18.5624 L 15.1359 15.67 L 17.1964 5.5856 "/>
  <path id="ID0.9385899971239269" fill="none" stroke="#2B9638" stroke-width="1" stroke-linecap="round" d="M 34.35 14.35 L 30.1 11.95 L 29.85 15.2 L 30 12.05 L 26.9 5.35 "/>
  <path id="ID0.5838042767718434" fill="url(#grad_5-0.924096405506134,0,0,1,242.2,-161.7)" stroke="none" stroke-linecap="round" d="M 39.0374 17.2 C 39.3812 17.026 39.7517 16.442 39.5457 16.1 C 38.908 15.05 37.874 14.052 36.7272 13.65 C 35.3078 13.16 34.185 13.316 32.9846 13.65 C 30.3121 14.38 28.1321 16.043 25.5918 17 C 23.495 17.599 21.4694 18.08 19.1231 18.3 C 16.178 18.557 13.1886 18.33 10.2518 17.95 C 7.6819 17.618 5.0417 15.475 2.4894 16.3 C 1.1818 16.675 -0.2293 20.091 1.5653 20.65 C 8.727 22.88 16.9996 23.545 24.7139 22.85 C 28.9989 22.466 32.8737 19.154 37.0968 17.5 C 38.0606 17.107 38.3037 17.544 39.0374 17.2 Z " stroke-width="0.9627964911312663"/>
  <path id="ID0.8476383532397449" fill="none" stroke="#2B9638" stroke-width="1" stroke-linecap="round" d="M 29.85 2.5 L 27.35 4.65 L 16.8 5.5 L 9.6 2.25 "/>
</svg>