<svg version="1.1" xmlns="http://www.w3.org/2000/svg" xmlns:xlink="http://www.w3.org/1999/xlink" width="495.48167" height="367.35705" viewBox="0,0,495.48167,367.35705"><defs><linearGradient x1="-0.70905" y1="-0.28647" x2="-0.70905" y2="360.76724" gradientUnits="userSpaceOnUse" id="color-1"><stop offset="0" stop-color="#001d66"/><stop offset="1" stop-color="#006666"/></linearGradient><linearGradient x1="370.84988" y1="95.4368" x2="370.84988" y2="115.60455" gradientUnits="userSpaceOnUse" id="color-2"><stop offset="0" stop-color="#c19872"/><stop offset="1" stop-color="#906b49"/></linearGradient><linearGradient x1="468.53325" y1="95.30875" x2="468.53325" y2="115.4765" gradientUnits="userSpaceOnUse" id="color-3"><stop offset="0" stop-color="#c19872"/><stop offset="1" stop-color="#906b49"/></linearGradient><linearGradient x1="435.44448" y1="95.11666" x2="435.44448" y2="115.28439" gradientUnits="userSpaceOnUse" id="color-4"><stop offset="0" stop-color="#c19872"/><stop offset="1" stop-color="#906b49"/></linearGradient><linearGradient x1="402.86632" y1="94.92462" x2="402.86632" y2="115.09236" gradientUnits="userSpaceOnUse" id="color-5"><stop offset="0" stop-color="#c19872"/><stop offset="1" stop-color="#906b49"/></linearGradient><linearGradient x1="240.12879" y1="95.4368" x2="240.12879" y2="115.60455" gradientUnits="userSpaceOnUse" id="color-6"><stop offset="0" stop-color="#c19872"/><stop offset="1" stop-color="#906b49"/></linearGradient><linearGradient x1="337.81215" y1="95.30875" x2="337.81215" y2="115.4765" gradientUnits="userSpaceOnUse" id="color-7"><stop offset="0" stop-color="#c19872"/><stop offset="1" stop-color="#906b49"/></linearGradient><linearGradient x1="304.72335" y1="95.11666" x2="304.72335" y2="115.28439" gradientUnits="userSpaceOnUse" id="color-8"><stop offset="0" stop-color="#c19872"/><stop offset="1" stop-color="#906b49"/></linearGradient><linearGradient x1="272.14523" y1="94.92462" x2="272.14523" y2="115.09236" gradientUnits="userSpaceOnUse" id="color-9"><stop offset="0" stop-color="#c19872"/><stop offset="1" stop-color="#906b49"/></linearGradient><linearGradient x1="142.08797" y1="96.71727" x2="142.08797" y2="116.88501" gradientUnits="userSpaceOnUse" id="color-10"><stop offset="0" stop-color="#c19872"/><stop offset="1" stop-color="#906b49"/></linearGradient><linearGradient x1="206.68255" y1="96.39719" x2="206.68255" y2="116.56492" gradientUnits="userSpaceOnUse" id="color-11"><stop offset="0" stop-color="#c19872"/><stop offset="1" stop-color="#906b49"/></linearGradient><linearGradient x1="174.10438" y1="96.20509" x2="174.10438" y2="116.37284" gradientUnits="userSpaceOnUse" id="color-12"><stop offset="0" stop-color="#c19872"/><stop offset="1" stop-color="#906b49"/></linearGradient><linearGradient x1="11.36686" y1="96.71727" x2="11.36686" y2="116.88501" gradientUnits="userSpaceOnUse" id="color-13"><stop offset="0" stop-color="#c19872"/><stop offset="1" stop-color="#906b49"/></linearGradient><linearGradient x1="109.05024" y1="96.58922" x2="109.05024" y2="116.75695" gradientUnits="userSpaceOnUse" id="color-14"><stop offset="0" stop-color="#c19872"/><stop offset="1" stop-color="#906b49"/></linearGradient><linearGradient x1="75.96148" y1="96.39719" x2="75.96148" y2="116.56492" gradientUnits="userSpaceOnUse" id="color-15"><stop offset="0" stop-color="#c19872"/><stop offset="1" stop-color="#906b49"/></linearGradient><linearGradient x1="43.38333" y1="96.20509" x2="43.38333" y2="116.37284" gradientUnits="userSpaceOnUse" id="color-16"><stop offset="0" stop-color="#c19872"/><stop offset="1" stop-color="#906b49"/></linearGradient><linearGradient x1="-14.94633" y1="172.11821" x2="94.67538" y2="172.11821" gradientUnits="userSpaceOnUse" id="color-17"><stop offset="0" stop-color="#d1dfeb"/><stop offset="1" stop-color="#edf3f8"/></linearGradient></defs><g transform="translate(14.94633,6.58985)"><g data-paper-data="{&quot;isPaintingLayer&quot;:true}" fill-rule="nonzero" stroke-linejoin="miter" stroke-miterlimit="10" stroke-dasharray="" stroke-dashoffset="0" style="mix-blend-mode: normal"><path d="M-0.70905,-0.28647h481.24439v361.05367h-481.24439z" fill="url(#color-1)" stroke="#000000" stroke-width="0" stroke-linecap="butt"/><path d="M79.30001,71.30004l-0.3,-0.3" fill="none" stroke="#cccccc" stroke-width="2" stroke-linecap="round"/><path d="M210.21894,15.75649l-0.3,-0.3" fill="none" stroke="#cccccc" stroke-width="2" stroke-linecap="round"/><path d="M157.78951,22.78951l-0.3,-0.3" fill="none" stroke="#cccccc" stroke-width="2" stroke-linecap="round"/><path d="M135.73546,55.7685l-0.3,-0.3" fill="none" stroke="#cccccc" stroke-width="2" stroke-linecap="round"/><path d="M179.91594,68.03906l0.3,0.3" fill="none" stroke="#cccccc" stroke-width="2" stroke-linecap="round"/><path d="M455.30002,41.30003l-0.3,-0.3" fill="none" stroke="#cccccc" stroke-width="2" stroke-linecap="round"/><path d="M405.83455,29.27601l-0.3,-0.3" fill="none" stroke="#cccccc" stroke-width="2" stroke-linecap="round"/><path d="M405.03305,76.98502l0.3,0.3" fill="none" stroke="#cccccc" stroke-width="2" stroke-linecap="round"/><g stroke="none" stroke-width="1" stroke-linecap="butt"><path d="M264.04356,26.98501c14.208,0 27.083,4.034 36.406,10.551c9.323,6.517 15.094,15.517 15.094,25.449c0,9.932 -5.771,18.932 -15.094,25.449c-9.323,6.517 -22.198,10.551 -36.406,10.551c-14.208,0 -27.083,-4.034 -36.406,-10.551c-9.323,-6.517 -15.094,-15.517 -15.094,-25.449c0,-9.932 5.771,-18.932 15.094,-25.449c9.323,-6.517 22.198,-10.551 36.406,-10.551z" fill="#718399"/><path d="M328.04356,10.98501c14.208,0 27.083,4.034 36.406,10.551c9.323,6.517 15.094,15.517 15.094,25.449c0,9.932 -5.771,18.932 -15.094,25.449c-9.323,6.517 -22.198,10.551 -36.406,10.551c-14.208,0 -27.083,-4.034 -36.406,-10.551c-9.323,-6.517 -15.094,-15.517 -15.094,-25.449c0,-9.932 5.771,-18.932 15.094,-25.449c9.323,-6.517 22.198,-10.551 36.406,-10.551z" fill="#718399"/><path d="M275.54356,42.48502c1.242,0 2.367,1.093 3.181,2.858c0.815,1.765 1.319,4.202 1.319,6.892c0,2.69 -0.504,5.127 -1.319,6.892c-0.814,1.765 -1.939,2.858 -3.181,2.858c-1.242,0 -2.367,-1.093 -3.181,-2.858c-0.815,-1.765 -1.319,-4.202 -1.319,-6.892c0,-2.69 0.504,-5.127 1.319,-6.892c0.814,-1.765 1.939,-2.858 3.181,-2.858z" fill="#000000"/><path d="M296.54356,41.98502c1.242,0 2.367,1.093 3.181,2.858c0.815,1.765 1.319,4.202 1.319,6.892c0,2.69 -0.504,5.127 -1.319,6.892c-0.814,1.765 -1.939,2.858 -3.181,2.858c-1.242,0 -2.367,-1.093 -3.181,-2.858c-0.815,-1.765 -1.319,-4.202 -1.319,-6.892c0,-2.69 0.504,-5.127 1.319,-6.892c0.814,-1.765 1.939,-2.858 3.181,-2.858z" fill="#000000"/></g><g stroke="none" stroke-width="1" stroke-linecap="butt"><path d="M0.00004,114.17898h480v221.29555h-480z" data-paper-data="{&quot;origPos&quot;:null}" fill="#906b49"/><g data-paper-data="{&quot;origPos&quot;:null}"><g data-paper-data="{&quot;origPos&quot;:null}"><path d="M359.23306,95.4368h23.23363v20.16774h-23.23363z" data-paper-data="{&quot;origPos&quot;:null}" fill="url(#color-2)"/><path d="M456.91643,95.30875h23.23363v20.16775h-23.23363z" data-paper-data="{&quot;origPos&quot;:null}" fill="url(#color-3)"/><path d="M423.82766,95.11666h23.23363v20.16773h-23.23363z" data-paper-data="{&quot;origPos&quot;:null}" fill="url(#color-4)"/><path d="M391.2495,94.92462h23.23363v20.16774h-23.23363z" data-paper-data="{&quot;origPos&quot;:null}" fill="url(#color-5)"/></g><g data-paper-data="{&quot;origPos&quot;:null}"><path d="M228.51197,95.4368h23.23363v20.16774h-23.23363z" data-paper-data="{&quot;origPos&quot;:null}" fill="url(#color-6)"/><path d="M326.19533,95.30875h23.23363v20.16775h-23.23363z" data-paper-data="{&quot;origPos&quot;:null}" fill="url(#color-7)"/><path d="M293.10653,95.11666h23.23363v20.16773h-23.23363z" data-paper-data="{&quot;origPos&quot;:null}" fill="url(#color-8)"/><path d="M260.52842,94.92462h23.23363v20.16774h-23.23363z" data-paper-data="{&quot;origPos&quot;:null}" fill="url(#color-9)"/></g><path d="M130.47115,96.71727h23.23363v20.16773h-23.23363z" data-paper-data="{&quot;origPos&quot;:null}" fill="url(#color-10)"/><path d="M195.06573,96.39719h23.23363v20.16773h-23.23363z" data-paper-data="{&quot;origPos&quot;:null}" fill="url(#color-11)"/><path d="M162.48756,96.20509h23.23363v20.16774h-23.23363z" data-paper-data="{&quot;origPos&quot;:null}" fill="url(#color-12)"/><g data-paper-data="{&quot;origPos&quot;:null}"><path d="M-0.24996,96.71727h23.23363v20.16773h-23.23363z" data-paper-data="{&quot;origPos&quot;:null}" fill="url(#color-13)"/><path d="M97.43342,96.58922h23.23363v20.16773h-23.23363z" data-paper-data="{&quot;origPos&quot;:null}" fill="url(#color-14)"/><path d="M64.34466,96.39719h23.23363v20.16773h-23.23363z" data-paper-data="{&quot;origPos&quot;:null}" fill="url(#color-15)"/><path d="M31.76651,96.20509h23.23363v20.16774h-23.23363z" data-paper-data="{&quot;origPos&quot;:null}" fill="url(#color-16)"/></g></g></g><path d="M174.63664,185.64808h28v149.74598h-28z" fill="#aa5e35" stroke="none" stroke-width="1.78564" stroke-linecap="butt"/><path d="M367.63665,186.58606h28v152.55372h-28z" fill="#aa5e35" stroke="none" stroke-width="1.81391" stroke-linecap="butt"/><path d="M188.63664,150.96549c11.036,0 21.036,4.482 28.277,11.723c7.241,7.241 11.723,17.241 11.723,28.277c0,11.036 -4.482,21.036 -11.723,28.277c-7.241,7.241 -17.241,11.723 -28.277,11.723c-11.036,0 -21.036,-4.482 -28.277,-11.723c-7.241,-7.241 -11.723,-17.241 -11.723,-28.277c0,-11.036 4.482,-21.036 11.723,-28.277c7.241,-7.241 17.241,-11.723 28.277,-11.723z" fill="#3abc3a" stroke="none" stroke-width="1" stroke-linecap="butt"/><path d="M188.63664,112.96546c9.104,0 17.354,3.698 23.328,9.672c5.974,5.974 9.672,14.224 9.672,23.328c0,9.104 -3.698,17.354 -9.672,23.328c-5.974,5.974 -14.224,9.672 -23.328,9.672c-9.104,0 -17.354,-3.698 -23.328,-9.672c-5.974,-5.974 -9.672,-14.224 -9.672,-23.328c0,-9.104 3.698,-17.354 9.672,-23.328c5.974,-5.974 14.224,-9.672 23.328,-9.672z" fill="#3ec73d" stroke="none" stroke-width="1" stroke-linecap="butt"/><path d="M189.13664,86.96548c5.38,0 10.255,2.185 13.785,5.715c3.53,3.53 5.715,8.405 5.715,13.785c0,5.38 -2.185,10.255 -5.715,13.785c-3.53,3.53 -8.405,5.715 -13.785,5.715c-5.38,0 -10.255,-2.185 -13.785,-5.715c-3.53,-3.53 -5.715,-8.405 -5.715,-13.785c0,-5.38 2.185,-10.255 5.715,-13.785c3.53,-3.53 8.405,-5.715 13.785,-5.715z" fill="#42d642" stroke="none" stroke-width="1" stroke-linecap="butt"/><path d="M381.63665,151.96549c11.036,0 21.036,4.482 28.277,11.723c7.241,7.241 11.723,17.241 11.723,28.277c0,11.036 -4.482,21.036 -11.723,28.277c-7.241,7.241 -17.241,11.723 -28.277,11.723c-11.036,0 -21.036,-4.482 -28.277,-11.723c-7.241,-7.241 -11.723,-17.241 -11.723,-28.277c0,-11.036 4.482,-21.036 11.723,-28.277c7.241,-7.241 17.241,-11.723 28.277,-11.723z" fill="#3abc3a" stroke="none" stroke-width="1" stroke-linecap="butt"/><path d="M381.63665,113.96546c9.104,0 17.354,3.698 23.328,9.672c5.974,5.974 9.672,14.224 9.672,23.328c0,9.104 -3.698,17.354 -9.672,23.328c-5.974,5.974 -14.224,9.672 -23.328,9.672c-9.104,0 -17.354,-3.698 -23.328,-9.672c-5.974,-5.974 -9.672,-14.224 -9.672,-23.328c0,-9.104 3.698,-17.354 9.672,-23.328c5.974,-5.974 14.224,-9.672 23.328,-9.672z" fill="#3ec73d" stroke="none" stroke-width="1" stroke-linecap="butt"/><path d="M382.13665,87.96548c5.38,0 10.255,2.185 13.785,5.715c3.53,3.53 5.715,8.405 5.715,13.785c0,5.38 -2.185,10.255 -5.715,13.785c-3.53,3.53 -8.405,5.715 -13.785,5.715c-5.38,0 -10.255,-2.185 -13.785,-5.715c-3.53,-3.53 -5.715,-8.405 -5.715,-13.785c0,-5.38 2.185,-10.255 5.715,-13.785c3.53,-3.53 8.405,-5.715 13.785,-5.715z" fill="#42d642" stroke="none" stroke-width="1" stroke-linecap="butt"/><path d="M-14.94633,-6.58985h109.62171v357.41613h-109.62171z" fill="url(#color-17)" stroke="none" stroke-width="1.11058" stroke-linecap="butt"/></g></g></svg>