<svg version="1.1" xmlns="http://www.w3.org/2000/svg" xmlns:xlink="http://www.w3.org/1999/xlink" width="95.8495" height="108.65584" viewBox="0,0,95.8495,108.65584"><g transform="translate(-192.03868,-125.60065)"><g data-paper-data="{&quot;isPaintingLayer&quot;:true}" fill-rule="nonzero" stroke-linejoin="miter" stroke-miterlimit="10" stroke-dasharray="" stroke-dashoffset="0" style="mix-blend-mode: normal"><g stroke-linecap="butt"><path d="M257.44885,160.66183c0,-8.19848 6.64619,-14.84467 14.84467,-14.84467c8.19849,0 14.84467,6.64619 14.84467,14.84467c0,8.19848 -6.64619,14.84467 -14.84467,14.84467c-8.19849,0 -14.84467,-6.64619 -14.84467,-14.84467z" fill="#ffffff" stroke="#ffe008" stroke-width="1.5"/><path d="M274.61757,150.77487c3.54252,1.79151 5.36481,2.68726 5.46198,2.68726c0,0.15711 -0.73701,1.5793 -2.21428,4.26656h-0.10367c-0.11824,0 -1.81581,-0.8018 -5.09267,-2.40541l-1.6684,2.22886c2.82494,1.3574 6.25407,3.09059 10.29062,5.19634c-1.832,3.25905 -3.13109,5.42311 -3.89887,6.49704l-8.34038,0.73701c-3.80978,-2.56901 -5.82158,-3.89725 -6.03863,-3.98634v-0.10205c0,-0.27538 0.77264,-1.54043 2.31794,-3.7952h0.19115c0.61066,0.36446 2.52528,1.41247 5.74383,3.14566l1.94863,-2.21589c-5.91552,-3.01121 -9.19239,-4.71364 -9.83222,-5.10724v-0.08909c1.87898,-3.66077 2.90269,-5.51706 3.07115,-5.56566c4.8918,-0.99457 7.61309,-1.49184 8.16382,-1.49184z" fill="#ffe008" stroke="none" stroke-width="1"/></g><g data-paper-data="{&quot;index&quot;:null}"><path d="M192.86184,199.32364c0,-8.19848 6.64619,-14.84467 14.84467,-14.84467c8.19849,0 14.84467,6.64619 14.84467,14.84467c0,8.19848 -6.64619,14.84467 -14.84467,14.84467c-8.19849,0 -14.84467,-6.64619 -14.84467,-14.84467z" fill="#ffffff" stroke="#0052ef" stroke-width="1.5" stroke-linecap="butt"/><path d="M194.52046,195.01121l3.23432,-1.57569l4.64414,6.80035l5.3076,-7.96139l5.63932,8.04432l4.72706,-6.88328l2.81966,1.57569l-7.13208,12.85434l-6.05397,-8.95656l-5.88811,9.0395z" fill="#0052ef" stroke="#000000" stroke-width="0" stroke-linecap="round"/></g><g><path d="M192.78869,160.61448c0,-8.19849 6.64619,-14.84467 14.84467,-14.84467c8.19848,0 14.84467,6.6462 14.84467,14.84467c0,8.19849 -6.64619,14.84467 -14.84467,14.84467c-8.19848,0 -14.84467,-6.64619 -14.84467,-14.84467z" fill="#ffffff" stroke="#ff0021" stroke-width="1.5" stroke-linecap="butt"/><path d="M207.63336,156.46791l5.63932,-6.55157l6.88328,14.51295l-4.47828,3.81483l-3.7319,-10.69812l-4.31242,5.14173l-4.31242,-5.22467l-3.81483,10.69812l-4.39535,-3.64896l6.88328,-14.43002z" fill="#ff0021" stroke="#000000" stroke-width="0" stroke-linecap="round"/></g><g data-paper-data="{&quot;index&quot;:null}" stroke-linecap="butt"><path d="M257.44106,199.26676c0,-8.19849 6.64619,-14.84467 14.84467,-14.84467c8.19849,0 14.84467,6.64619 14.84467,14.84467c0,8.19848 -6.64619,14.84467 -14.84467,14.84467c-8.19849,0 -14.84467,-6.64619 -14.84467,-14.84467z" fill="#ffffff" stroke="#6f18b4" stroke-width="1.5"/><path d="M281.7769,192.64067l-1.47685,4.26163v0.08562c-0.61496,0.37832 -6.87233,3.64619 -12.55799,6.5404l4.98074,0.49817c3.09348,-1.66584 4.9337,-2.67313 5.52063,-3.02343h0.18371c1.48524,2.16715 2.22786,3.38306 2.22786,3.64772v0.09808c-0.20863,0.08563 -2.14224,1.36226 -5.80398,3.83143l-12.05646,-1.48532l0.29281,-5.46762c0,0 10.05033,-5.24368 12.7655,-6.54834l-4.47831,-0.58833c-3.14953,1.54129 -4.78112,2.31194 -4.89476,2.31194h-0.09964c-1.41985,-2.58283 -2.12824,-3.94975 -2.12824,-4.10077c0.09342,0 1.84488,-0.86094 5.24974,-2.58283c0.52933,0 12.27524,2.52161 12.27524,2.52161z" data-paper-data="{&quot;index&quot;:null}" fill="#6f18b4" stroke="none" stroke-width="1"/></g><g stroke="#7100f3"><path d="M225.14755,218.66183c0,-8.19848 6.64619,-14.84467 14.84467,-14.84467c8.19849,0 14.84467,6.64619 14.84467,14.84467c0,8.19848 -6.64619,14.84467 -14.84467,14.84467c-8.19849,0 -14.84467,-6.64619 -14.84467,-14.84467z" fill="#ffffff" stroke-width="1.5" stroke-linecap="butt"/><path d="M248.11948,209.20767v5.63932h-7.79553v14.76175h-6.30277v-20.40107z" fill="#ffe008" stroke-width="2.5" stroke-linecap="round"/></g><g stroke-linecap="butt"><path d="M225.15535,180.00002c0,-8.19848 6.64619,-14.84467 14.84467,-14.84467c8.19849,0 14.84467,6.64619 14.84467,14.84467c0,8.19848 -6.64619,14.84467 -14.84467,14.84467c-8.19849,0 -14.84467,-6.64619 -14.84467,-14.84467z" fill="#fffaca" stroke="#a7a7a7" stroke-width="1.5"/><g stroke="none" stroke-width="0"><g data-paper-data="{&quot;origPos&quot;:null}"><g data-paper-data="{&quot;origPos&quot;:null}"><path d="M250.68656,177.92166c-0.05582,2.96469 -0.48096,4.22918 -3.39853,4.75865c-2.23397,0.40542 -8.71281,0.38433 -10.98293,0.42385c-4.96189,0.08638 -6.69408,-0.83384 -6.78046,-5.09613c-0.03379,-1.66732 0.31429,-3.29255 1.57194,-4.38772c2.94623,-2.56562 5.57913,-2.8678 9.35452,-2.8678c5.65288,0 10.34011,1.60953 10.23546,7.16914z" data-paper-data="{&quot;origPos&quot;:null}" fill="#ffffff"/><path d="M246.54056,177.00569c0,2.35635 -1.77888,4.26655 -3.97325,4.26655c-2.19437,0 -3.97325,-1.91021 -3.97325,-4.26655c0,-2.35635 1.77888,-4.26655 3.97325,-4.26655c2.19437,0 3.97325,1.91021 3.97325,4.26655z" data-paper-data="{&quot;origPos&quot;:null}" fill="#ff5138"/><path d="M229.30928,179.58413c-0.06915,-1.02521 -0.20627,-1.32356 0.28217,-3.27087c0.02941,-0.77863 0.71964,-1.80352 0.71964,-1.80352c0,0 2.20712,0.24199 3.02845,0.94195c0.96375,0.82133 1.09987,2.03381 1.18761,3.29703c0.09225,1.32834 -0.0779,2.19265 -0.91501,3.3299c-0.40542,0.55078 -0.54008,0.61974 -0.54008,0.61974c0,0 -1.61536,0.22934 -2.34745,-0.20582c-0.86675,-0.67739 -1.13644,-1.16843 -1.41532,-2.90841z" data-paper-data="{&quot;origPos&quot;:null,&quot;origRot&quot;:0}" fill="#ff5138"/><path d="M250.02721,174.82805c0,0 0.72514,0.25755 0.75338,3.19431c0.02475,2.5743 -0.81954,3.43834 -0.81954,3.43834c0,0 -1.5665,-0.26134 -1.59125,-3.49861c-0.02246,-2.9368 1.65742,-3.13403 1.65742,-3.13403z" data-paper-data="{&quot;origPos&quot;:null}" fill="#ff5138"/></g><g data-paper-data="{&quot;origPos&quot;:null}"><path d="M245.97517,185.40542c-0.10735,2.74401 -2.15958,4.00795 -4.97227,4.00795c-2.81268,0 -5.46325,-0.96277 -5.57496,-3.70661c-0.06027,-1.48044 -0.21094,-2.98336 -0.21094,-2.98336c0,0 4.05862,-0.58973 5.4605,-0.54286c2.7154,0.0908 5.33058,0.83534 5.33058,0.83534c0,0 0.02738,0.84881 -0.0329,2.38952z" data-paper-data="{&quot;origPos&quot;:null}" fill="#ffdfc0"/><path d="M242.17627,187.23565c0,0 -0.74064,0.75666 -1.7308,0.57932c-0.99016,-0.17735 -1.53177,-1.24451 -1.53177,-1.24451c0,0 0.81417,0.71175 1.60191,0.85283c0.78774,0.14108 1.66065,-0.18765 1.66065,-0.18765z" data-paper-data="{&quot;origPos&quot;:null,&quot;origRot&quot;:0}" fill="#000000"/><g data-paper-data="{&quot;origPos&quot;:null}"><path d="M243.41594,184.54635c0,0.76558 -0.18775,1.37233 -0.72324,1.38622c-0.59078,0.01532 -0.72323,-0.62063 -0.72323,-1.38622c0,-0.76558 0.16009,-1.38622 0.72323,-1.38622c0.56314,0 0.72324,0.62063 0.72324,1.38622z" data-paper-data="{&quot;origPos&quot;:null}" fill="#000000"/><path d="M243.18123,183.95793c0,0.2553 -0.11297,0.45764 -0.43523,0.46227c-0.35552,0.00512 -0.43524,-0.20696 -0.43524,-0.46227c0,-0.2553 0.09634,-0.46226 0.43524,-0.46226c0.33888,0 0.43523,0.20696 0.43523,0.46226z" data-paper-data="{&quot;origPos&quot;:null}" fill="#aaaaaa"/></g><g data-paper-data="{&quot;origPos&quot;:null}"><path d="M240.97277,184.59178c0,0.76558 -0.18775,1.37233 -0.72324,1.38622c-0.59078,0.01532 -0.72323,-0.62063 -0.72323,-1.38622c0,-0.76558 0.16009,-1.38621 0.72323,-1.38621c0.56314,0 0.72324,0.62063 0.72324,1.38621z" data-paper-data="{&quot;origPos&quot;:null}" fill="#000000"/><path d="M240.69781,183.96889c0,0.2553 -0.11297,0.45764 -0.43523,0.46227c-0.35552,0.00512 -0.43523,-0.20696 -0.43523,-0.46227c0,-0.2553 0.09634,-0.46227 0.43523,-0.46227c0.33888,0 0.43523,0.20696 0.43523,0.46227z" data-paper-data="{&quot;origPos&quot;:null}" fill="#aaaaaa"/></g></g></g><g data-paper-data="{&quot;origPos&quot;:null}"><path d="M229.39329,180.12371c0,0 -0.18947,-1.03202 -0.1831,-1.74729c0.00475,-0.53364 0.21158,-1.45286 0.21158,-1.45286c0,0 8.45403,-1.63112 13.33019,-1.78166c3.40664,-0.10517 7.89343,1.12643 7.89343,1.12643c0,0 0.13169,1.1074 0.14302,1.6521c0.0146,0.7005 -0.07656,1.53857 -0.07656,1.53857c0,0 -4.97105,-1.1204 -7.89748,-1.02915c-5.3934,0.16816 -13.42109,1.69388 -13.42109,1.69388z" data-paper-data="{&quot;origPos&quot;:null}" fill="#f3c640"/><g data-paper-data="{&quot;origPos&quot;:null}"><path d="M247.52185,176.63738c-0.08278,2.9798 -1.92212,4.56357 -3.47637,4.56357c-1.5073,0 -4.01577,-2.75217 -4.01577,-2.75217l-0.03998,-3.06415c0,0 2.50153,-3.4898 4.05577,-3.4898c1.55424,0 3.56408,1.5852 3.47636,4.74253z" data-paper-data="{&quot;origPos&quot;:null}" fill="#a7a7a7"/><path d="M247.02522,176.54791c0,2.17446 -1.11173,3.9372 -2.48313,3.9372c-1.37139,0 -2.48313,-1.76275 -2.48313,-3.9372c0,-2.17446 1.11173,-3.9372 2.48313,-3.9372c1.37139,0 2.48313,1.76275 2.48313,3.9372z" data-paper-data="{&quot;origPos&quot;:null}" fill="#f2ecc1"/><path d="M246.69877,176.52519c0,1.48682 -0.74402,2.69212 -1.6618,2.69212c-0.91779,0 -1.6618,-1.2053 -1.6618,-2.69212c0,-1.48682 0.74403,-2.69212 1.6618,-2.69212c0.91779,0 1.6618,1.2053 1.6618,2.69212z" data-paper-data="{&quot;origPos&quot;:null}" fill="#fffaca"/></g></g></g></g><g><path d="M225.16314,141.19533c0,-8.19849 6.64619,-14.84467 14.84467,-14.84467c8.19849,0 14.84467,6.64619 14.84467,14.84467c0,8.19848 -6.64619,14.84467 -14.84467,14.84467c-8.19849,0 -14.84467,-6.64619 -14.84467,-14.84467z" fill="#ffffff" stroke="#64ca00" stroke-width="1.5" stroke-linecap="butt"/><path d="M237.68575,131.24359l-0.41466,14.51295l9.37122,-0.58051l0.16586,4.72707l-13.35192,0.08293l-0.49758,-18.65951z" fill="#64ca00" stroke="#000000" stroke-width="0" stroke-linecap="round"/></g></g></g></svg>