<svg version="1.1" xmlns="http://www.w3.org/2000/svg" xmlns:xlink="http://www.w3.org/1999/xlink" width="437" height="90.79587" viewBox="0,0,437,90.79587"><defs><linearGradient x1="239.96078" y1="135.56279" x2="239.96078" y2="224.35867" gradientUnits="userSpaceOnUse" id="color-1"><stop offset="0" stop-color="#ffffff"/><stop offset="1" stop-color="#d8d8d8"/></linearGradient><linearGradient x1="239.96078" y1="135.5628" x2="239.96078" y2="224.35867" gradientUnits="userSpaceOnUse" id="color-2"><stop offset="0" stop-color="#343434"/><stop offset="1" stop-color="#090909"/></linearGradient><radialGradient cx="443.76728" cy="206.50539" r="17.9081" gradientUnits="userSpaceOnUse" id="color-3"><stop offset="0" stop-color="#ffffff"/><stop offset="1" stop-color="#e5e5e5"/></radialGradient></defs><g transform="translate(-21.46078,-134.5628)"><g data-paper-data="{&quot;isPaintingLayer&quot;:true}" fill-rule="nonzero" stroke-linejoin="miter" stroke-miterlimit="10" stroke-dasharray="" stroke-dashoffset="0" style="mix-blend-mode: normal"><path d="M22.46078,224.35867v-88.79587h435v88.79587z" data-paper-data="{&quot;origPos&quot;:null}" fill="url(#color-1)" stroke="url(#color-2)" stroke-width="2" stroke-linecap="butt"/><g data-paper-data="{&quot;origPos&quot;:null}"><path d="M444.26658,202.0594c2.5136,0 4.7909,1.0212 6.4406,2.6702c1.6489,1.6496 2.6702,3.9269 2.6702,6.4405c0,2.5136 -1.0213,4.791 -2.6702,6.4406c-1.6497,1.649 -3.927,2.6702 -6.4406,2.6702c-2.5136,0 -4.7909,-1.0212 -6.4406,-2.6702c-1.6489,-1.6496 -2.6701,-3.927 -2.6701,-6.4406c0,-2.5136 1.0212,-4.7909 2.6701,-6.4405c1.6497,-1.649 3.927,-2.6702 6.4406,-2.6702z" fill="url(#color-3)" stroke="#000000" stroke-width="2.0785" stroke-linecap="butt"/><path d="M441.23418,206.50959l5.6119,0.4503l1.7321,3.187l-3.6374,2.9446l3.3603,-0.5197l0.7967,3.4642l-7.4479,-0.0693l-1.9053,-2.4249l4.6766,-3.3256l-4.5727,-0.3464z" fill="#000000" stroke="none" stroke-width="0.69283" stroke-linecap="round"/></g><path d="M39.78228,149.69344c2.18355,1.58582 3.45527,2.56476 3.81512,2.93682c-0.70142,2.07377 -1.05213,3.1442 -1.05213,3.21129c0.17079,0.17077 0.63128,0.75937 1.3815,1.76576v0.10976c-1.13448,2.00057 -1.79625,3.10761 -1.98531,3.32108l-7.58449,0.55808c-0.11589,-0.45136 -0.68921,-3.95845 -1.72,-10.52131zM36.79057,152.52048l0.32936,3.26617c1.61022,-0.39035 2.42142,-0.61296 2.43362,-0.66786c0.0732,-0.18299 0.24092,-0.77463 0.50318,-1.77491zM38.11716,156.94857h-0.60384c-0.07928,0.0122 -0.11893,0.04879 -0.11893,0.10977c-0.0366,0.7929 -0.0549,1.38148 -0.0549,1.76574c-0.0366,0.19518 -0.0549,0.30803 -0.0549,0.33853l2.88192,-0.44831l-0.05489,-0.27447v-0.32936c0,-0.26227 -0.0183,-0.66787 -0.0549,-1.2168c-0.87221,0.03659 -1.51872,0.05488 -1.93958,0.05488z" data-paper-data="{&quot;origPos&quot;:null}" fill="#c2aa2b" stroke="none" stroke-width="0.26458" stroke-linecap="butt"/><path d="M49.80038,152.45644l0.06404,0.11891l-1.23511,6.55066h0.06405l3.14724,-0.92405v-3.70532c0.0122,-0.08538 0.05185,-0.12806 0.11893,-0.12806c2.36653,0.16468 3.68399,0.24702 3.95236,0.24702c0,0.04268 0.02135,0.06403 0.06405,0.06403c0,1.04298 -0.32936,3.20519 -0.98809,6.48661c0,0.18908 -0.9454,0.33241 -2.83618,0.43001c-0.09759,-0.11589 -0.17993,-0.36291 -0.24702,-0.74107c-2.42142,0.49406 -3.80292,0.74107 -4.14448,0.74107c-1.93347,-1.43944 -2.90022,-2.18051 -2.90022,-2.22321c0.32936,-4.32441 0.53673,-6.56895 0.62213,-6.73363h0.0549c1.54313,-0.04268 2.96426,-0.10367 4.26342,-0.18297z" data-paper-data="{&quot;origPos&quot;:null}" fill="#c2aa2b" stroke="none" stroke-width="0.26458" stroke-linecap="butt"/><path d="M65.02425,152.45644l3.0466,2.09511c-0.21347,3.4766 -0.36291,5.50767 -0.4483,6.09321c-0.35376,0.04268 -1.43029,0.10672 -3.22958,0.19212l-0.06405,-0.12806l-0.32021,-4.88555l-0.12809,-0.06403c-1.16497,0.25008 -1.96702,0.43916 -2.40618,0.56723c0.12198,2.07986 0.18297,3.58334 0.18297,4.51044c-1.8176,0.50624 -2.81179,0.75937 -2.98256,0.75937c-1.18327,-5.2088 -1.7749,-7.9596 -1.7749,-8.25237c2.57391,-0.33545 3.97065,-0.50319 4.19023,-0.50319v0.06403c0.04269,0.0305 0.10674,0.66481 0.19212,1.90298c2.36043,-1.56752 3.60774,-2.35128 3.74193,-2.35128z" data-paper-data="{&quot;origPos&quot;:null}" fill="#c2aa2b" stroke="none" stroke-width="0.26458" stroke-linecap="butt"/><path d="M77.10088,152.45644l3.0466,2.09511c-0.21347,3.4766 -0.36291,5.50767 -0.4483,6.09321c-0.35376,0.04268 -1.43029,0.10672 -3.22958,0.19212l-0.06405,-0.12806l-0.32021,-4.88555l-0.1281,-0.06403c-1.16497,0.25008 -1.96702,0.43916 -2.40618,0.56723c0.12199,2.07986 0.18297,3.58334 0.18297,4.51044c-1.8176,0.50624 -2.81178,0.75937 -2.98255,0.75937c-1.18327,-5.2088 -1.77491,-7.9596 -1.77491,-8.25237c2.57391,-0.33545 3.97065,-0.50319 4.19023,-0.50319v0.06403c0.0427,0.0305 0.10674,0.66481 0.19212,1.90298c2.36043,-1.56752 3.60774,-2.35128 3.74193,-2.35128z" data-paper-data="{&quot;origPos&quot;:null}" fill="#c2aa2b" stroke="none" stroke-width="0.26458" stroke-linecap="butt"/><path d="M85.26176,152.47473c0.08539,0.0122 0.12809,0.05488 0.12809,0.12806l-0.95148,5.26979c1.8176,-0.21347 2.72639,-0.38425 2.72639,-0.51233c0.34156,-2.11037 0.57638,-3.29364 0.70447,-3.5498c2.25064,0.46355 3.49796,0.73802 3.74193,0.82341c-1.31135,4.50738 -2.03107,6.85562 -2.15916,7.0447c-2.29335,1.61022 -3.58334,2.50071 -3.87002,2.67149c-0.08539,0 -1.54617,-0.35985 -4.38235,-1.07958v-0.06403c0.75022,-1.65292 1.21681,-2.47937 1.39979,-2.47937l2.79044,1.39979l1.33575,-2.28725c-1.20157,0.29887 -1.89994,0.44831 -2.09511,0.44831l-3.55895,-1.8481c0.43305,-3.97674 0.70752,-5.96511 0.82339,-5.96511z" data-paper-data="{&quot;origPos&quot;:null}" fill="#c2aa2b" stroke="none" stroke-width="0.26458" stroke-linecap="butt"/><path d="M100.75095,152.46558c2.75079,0.51844 4.19023,0.81425 4.3183,0.88744v0.10977c-0.59163,1.67121 -0.88744,2.53731 -0.88744,2.5983h-0.0549c-0.15248,0 -0.8905,-0.23787 -2.21404,-0.71362c-0.73802,1.23817 -1.10702,1.89994 -1.10702,1.98532l1.82979,1.7749c1.41503,-1.32966 2.13476,-1.99448 2.15916,-1.99448c1.10398,1.44555 1.65596,2.25675 1.65596,2.43364c-0.60384,0.34766 -1.65596,1.03078 -3.1564,2.04936c-2.90327,-0.62822 -4.47079,-0.97895 -4.70256,-1.05214l-1.43638,-4.64766z" data-paper-data="{&quot;origPos&quot;:null}" fill="#c2aa2b" stroke="none" stroke-width="0.26458" stroke-linecap="butt"/><path d="M108.75629,152.45644c3.62298,0.50013 5.43449,0.80815 5.43449,0.92405c1.42723,1.22595 2.14085,1.88163 2.14085,1.96703c-0.57944,1.81149 -0.90879,2.91242 -0.9881,3.30277c0.57944,1.28696 0.90879,2.05547 0.9881,2.30555c0,0.07318 -0.9454,0.26835 -2.83617,0.58552c-0.02439,-0.10369 -0.19823,-0.33546 -0.5215,-0.69532c-2.6105,0.50015 -4.0164,0.75022 -4.21767,0.75022l-1.39064,-3.76022l3.0649,-1.61937c0.49404,0.07927 1.2656,0.11891 2.31469,0.11891c0,-0.13419 0.0183,-0.53978 0.0549,-1.21681c-0.17688,0 -1.75659,0.11589 -4.73916,0.34766l-0.0549,-0.11892c0.41475,-1.92738 0.66482,-2.89107 0.75022,-2.89107zM110.65927,157.83603c0,0.06708 0.19518,0.7807 0.58553,2.14085h0.0549c0.76851,-0.50013 1.15277,-0.8295 1.15277,-0.98808l0.11895,-0.97895c-0.14638,0 -0.78375,-0.05793 -1.91213,-0.17382z" data-paper-data="{&quot;origPos&quot;:null}" fill="#c2aa2b" stroke="none" stroke-width="0.26458" stroke-linecap="butt"/><path d="M119.94547,149.69344l4.02555,0.71363l-0.38426,3.05575c0.79901,-0.04268 1.38454,-0.06403 1.7566,-0.06403h0.58552l0.12809,-0.06403l0.06405,0.12806c-0.12809,1.85419 -0.23788,2.89717 -0.32936,3.12895l-0.12809,-0.07318c-0.09149,0 -0.9149,-0.04268 -2.47022,-0.12806c-0.0854,1.43334 -0.14944,3.14725 -0.19212,5.14172l-0.12809,0.06403c-1.96397,-0.12809 -3.13504,-0.23787 -3.5132,-0.32936l0.06405,-0.25619c0,-0.53064 0.08539,-2.17745 0.25616,-4.94043c-1.64681,-0.09147 -2.47022,-0.20126 -2.47022,-0.32936c0.0854,-2.03716 0.19518,-3.05575 0.32936,-3.05575l2.40618,0.45745v-0.78681c0,-0.64044 -0.0244,-1.50653 -0.07319,-2.59831c0.04879,0 0.07319,-0.02135 0.07319,-0.06403z" data-paper-data="{&quot;origPos&quot;:null}" fill="#c2aa2b" stroke="none" stroke-width="0.26458" stroke-linecap="butt"/><path d="M130.68634,152.46558c2.75079,0.51844 4.19023,0.81425 4.3183,0.88744v0.10977c-0.59163,1.67121 -0.88744,2.53731 -0.88744,2.5983h-0.0549c-0.15248,0 -0.8905,-0.23787 -2.21404,-0.71362c-0.73802,1.23817 -1.10702,1.89994 -1.10702,1.98532l1.82979,1.7749c1.41503,-1.32966 2.13476,-1.99448 2.15916,-1.99448c1.10397,1.44555 1.65596,2.25675 1.65596,2.43364c-0.60384,0.34766 -1.65595,1.03078 -3.15638,2.04936c-2.90327,-0.62822 -4.4708,-0.97895 -4.70257,-1.05214l-1.43638,-4.64766z" data-paper-data="{&quot;origPos&quot;:null}" fill="#c2aa2b" stroke="none" stroke-width="0.26458" stroke-linecap="butt"/><path d="M141.39978,149.69344c0.0366,0.05489 0.20737,1.72609 0.51234,5.01364c2.35434,-0.71973 3.60774,-1.07958 3.76022,-1.07958l2.33299,1.59192c-0.37816,3.47661 -0.62519,5.50768 -0.74108,6.09321l-3.23873,0.10976c0,-0.03659 -0.02135,-0.05488 -0.06404,-0.05488l0.06404,-0.22872c0,-0.49404 0.0732,-1.99446 0.21958,-4.50129c-0.8905,-0.03659 -1.55227,-0.05488 -1.98532,-0.05488h-0.22872c0.26228,2.78739 0.39341,4.3061 0.39341,4.55618l-3.07405,0.45745c-0.11589,-0.39037 -0.79901,-4.0347 -2.04936,-10.93301c0,-0.19518 0.47574,-0.34767 1.42723,-0.45745c1.20157,-0.34156 2.09206,-0.51235 2.6715,-0.51235z" data-paper-data="{&quot;origPos&quot;:null}" fill="#c2aa2b" stroke="none" stroke-width="0.26458" stroke-linecap="butt"/><path d="M154.05279,152.46558c2.76298,1.42114 4.29391,2.25065 4.59278,2.48852c-0.39646,1.85419 -0.63128,2.80873 -0.70447,2.86363h-5.78214v0.10062l1.61937,2.00361l2.54341,-1.29914c0.25007,0.43305 0.60993,1.18936 1.07958,2.26894c-0.21958,0.07318 -1.82064,0.30799 -4.80321,0.70447c-2.47022,-1.62851 -3.71448,-2.47632 -3.73278,-2.54342c0.39646,-3.16553 0.63128,-4.74829 0.70447,-4.74829c2.58001,-1.09789 4.07434,-1.71088 4.48298,-1.83895zM153.4581,154.67962c-0.04879,0.122 -0.37206,0.60689 -0.96978,1.45469c0,0.25617 0.35985,0.38425 1.07958,0.38425c0,0.03659 0.5215,0.12502 1.56447,0.26531c0.28666,-0.39644 0.43,-0.62822 0.43,-0.69532c-0.09149,-0.54283 -0.28972,-0.81426 -0.59469,-0.81426z" data-paper-data="{&quot;origPos&quot;:null}" fill="#c2aa2b" stroke="none" stroke-width="0.26458" stroke-linecap="butt"/><path d="M165.01324,149.68428h0.0549c2.75689,0.23178 4.13533,0.41172 4.13533,0.53979l1.21682,10.76833c0,0.07927 -1.21682,0.28055 -3.65044,0.60384l-0.0549,-0.11892v-0.97893c-2.09817,0.56723 -3.5376,0.93319 -4.3183,1.09787c-1.85419,-2.6227 -2.82703,-4.01944 -2.91851,-4.19023c1.36624,-2.48241 2.09512,-3.73888 2.1866,-3.76937l3.83342,0.18297c-0.07928,-0.46965 -0.24091,-1.84809 -0.48489,-4.13533zM163.31153,156.24409c0.61604,1.8847 1.00028,2.91852 1.15277,3.1015l1.82064,-1.58276c-0.18908,-1.09178 -0.32936,-1.63766 -0.42084,-1.63766h-2.43363c-0.07928,0.0122 -0.11892,0.05183 -0.11892,0.11891z" data-paper-data="{&quot;origPos&quot;:null}" fill="#c2aa2b" stroke="none" stroke-width="0.26458" stroke-linecap="butt"/><path d="M175.39731,150.03196l0.0366,0.07317c-0.60993,5.38568 -0.95148,8.21577 -1.02468,8.49023c-1.29305,-0.12198 -2.11035,-0.20738 -2.45193,-0.25617v-0.03659l-0.58552,-7.64853c0.14639,-0.04879 1.48822,-0.25617 4.02553,-0.62213zM171.77433,158.77837c0.0427,0.02439 0.99418,0.09758 2.85448,0.21958l0.03659,0.07317c-0.28666,1.6834 -0.46965,2.52511 -0.54894,2.52511h-2.12256c-0.07319,0 -0.17077,-0.84171 -0.29277,-2.52511c-0.0244,0 -0.03661,-0.07319 -0.03661,-0.21957c0.07319,-0.02439 0.10978,-0.04879 0.10978,-0.07318z" data-paper-data="{&quot;origPos&quot;:null}" fill="#000000" stroke="none" stroke-width="0.26458" stroke-linecap="butt"/><path d="M40.6697,173.10563h0.73191c0.0854,0 0.29277,0.93625 0.62213,2.80873c0.03659,0.05489 0.63433,2.95816 1.79319,8.70981l-0.10978,0.05488c-2.21405,-0.06708 -3.32108,-0.16162 -3.32108,-0.28363c0,-0.64042 -0.26228,-1.08873 -0.78681,-1.34489c0,-0.02439 -0.86,-0.71667 -2.58,-2.07682h-0.0549c0.0366,0.05489 0.14945,1.12226 0.33851,3.20213c-1.7871,0.52453 -2.83617,0.8051 -3.14724,0.8417c-0.0976,0 -0.39646,-2.09817 -0.89659,-6.29449c-0.07929,-0.26227 -0.28667,-1.74135 -0.62213,-4.43724l3.25704,-0.89659c0.0732,0 0.28057,1.34795 0.62213,4.04384l3.20214,2.80873h0.0549c0,-0.09147 -0.46965,-2.43361 -1.40894,-7.0264c0.0427,0 0.06405,-0.01829 0.06405,-0.05488c0.93929,-0.03659 1.68646,-0.05488 2.2415,-0.05488z" data-paper-data="{&quot;origPos&quot;:null}" fill="#000000" stroke="none" stroke-width="0.26458" stroke-linecap="butt"/><path d="M49.93762,175.88692c2.76298,1.42114 4.29392,2.25065 4.59278,2.48852c-0.39646,1.85419 -0.63128,2.80871 -0.70447,2.86361h-5.78214v0.10062l1.61937,2.00361l2.54341,-1.29915c0.25007,0.43305 0.60993,1.18936 1.07958,2.26894c-0.21958,0.07318 -1.82063,0.30799 -4.80321,0.70447c-2.47022,-1.62851 -3.71448,-2.47631 -3.73278,-2.54342c0.39646,-3.16555 0.63128,-4.74831 0.70447,-4.74831c2.58001,-1.09787 4.07434,-1.71086 4.48298,-1.83893zM49.34293,178.10096c-0.04879,0.122 -0.37205,0.60689 -0.96978,1.45469c0,0.25617 0.35985,0.38426 1.07957,0.38426c0,0.03659 0.5215,0.12502 1.56448,0.26531c0.28666,-0.39644 0.43001,-0.62822 0.43001,-0.69532c-0.09148,-0.54283 -0.28972,-0.81425 -0.59469,-0.81425z" data-paper-data="{&quot;origPos&quot;:null}" fill="#000000" stroke="none" stroke-width="0.26458" stroke-linecap="butt"/><path d="M59.37935,175.87777c0.07928,0.10369 0.49101,1.87248 1.23512,5.3064h0.06405c0,-0.07927 0.45134,-0.77765 1.35404,-2.09511c0.37816,0.25617 1.09787,0.81121 2.15916,1.66511h0.12809v-0.06403c0.16468,-2.37873 0.28666,-3.69618 0.36597,-3.95235c2.51292,0.12807 3.76937,0.23177 3.76937,0.31107c-1.15277,4.63548 -1.76879,7.04469 -1.8481,7.22767c-0.38426,0.04268 -1.18936,0.16468 -2.41533,0.36596c-1.00639,-1.57971 -1.58276,-2.42142 -1.72915,-2.52511c-0.65872,1.7566 -1.07043,2.72334 -1.23512,2.90022h-2.47022c-0.15248,-0.04879 -0.87221,-1.63461 -2.15916,-4.75746c-0.82342,-1.74441 -1.23511,-2.6898 -1.23511,-2.83617c0,-0.13419 1.3388,-0.64959 4.01638,-1.54618z" data-paper-data="{&quot;origPos&quot;:null}" fill="#000000" stroke="none" stroke-width="0.26458" stroke-linecap="butt"/><path d="M84.26452,175.87777c1.48823,0.61604 2.77214,1.19547 3.85171,1.7383c-0.28057,3.62909 -0.4605,5.61441 -0.53979,5.95597c-1.79319,0.44525 -2.79653,0.66788 -3.01002,0.66788c0,-0.7929 -0.06099,-2.35738 -0.18297,-4.69342c-0.67703,0.06708 -1.01553,0.12502 -1.01553,0.17382c0,0.23176 0.03964,1.55533 0.11894,3.97065c0.03661,0 0.0549,0.02135 0.0549,0.06403c0,0.07318 -0.94235,0.27445 -2.82703,0.60382c-0.0793,-0.09757 -0.32021,-1.58275 -0.72276,-4.45554c-0.76241,0.19518 -1.14363,0.33546 -1.14363,0.42086l0.36596,3.73278c-0.07319,0.07927 -1.07653,0.39948 -3.01002,0.96063c-1.12228,-3.97065 -1.82369,-6.63605 -2.10426,-7.9962c2.11646,-0.52453 3.29973,-0.78681 3.5498,-0.78681c0.28057,1.11007 0.42084,1.75052 0.42084,1.92129h0.06405c1.03079,-0.95149 1.7505,-1.59192 2.15916,-1.92129h0.06405l1.92129,1.3815h0.06405c1.20157,-1.15886 1.84198,-1.7383 1.92128,-1.7383z" data-paper-data="{&quot;origPos&quot;:null}" fill="#2b70c2" stroke="none" stroke-width="0.26458" stroke-linecap="butt"/><path d="M90.29369,172.20904l3.59554,0.56723c-0.45134,1.72609 -0.74717,2.58915 -0.88744,2.58915c-1.89079,-0.12807 -2.83618,-0.25311 -2.83618,-0.37511v-2.65319c0.0183,-0.08538 0.06099,-0.12807 0.1281,-0.12807zM89.2873,176.56395h0.0549c2.78129,0.50624 4.17192,0.80205 4.17192,0.88745c-0.79901,4.52568 -1.2839,7.04775 -1.45469,7.56619h-2.90022c-0.08539,0 -0.12809,-0.04268 -0.12809,-0.12806z" data-paper-data="{&quot;origPos&quot;:null}" fill="#2b70c2" stroke="none" stroke-width="0.26458" stroke-linecap="butt"/><path d="M102.31542,175.87777l3.0466,2.09511c-0.21347,3.4766 -0.36291,5.50767 -0.44831,6.09321c-0.35376,0.04268 -1.43028,0.10673 -3.22957,0.19213l-0.06405,-0.12806l-0.32021,-4.88555l-0.12809,-0.06403c-1.16497,0.25008 -1.96703,0.43915 -2.40618,0.56723c0.12198,2.07986 0.18297,3.58334 0.18297,4.51044c-1.8176,0.50624 -2.81178,0.75937 -2.98255,0.75937c-1.18327,-5.2088 -1.77491,-7.9596 -1.77491,-8.25236c2.57392,-0.33545 3.97065,-0.50319 4.19023,-0.50319v0.06403c0.04269,0.0305 0.10674,0.66481 0.19212,1.90297c2.36043,-1.56752 3.60774,-2.35128 3.74192,-2.35128z" data-paper-data="{&quot;origPos&quot;:null}" fill="#2b70c2" stroke="none" stroke-width="0.26458" stroke-linecap="butt"/><path d="M107.53032,172.20904l3.59554,0.56723c-0.45134,1.72609 -0.74716,2.58915 -0.88744,2.58915c-1.89079,-0.12807 -2.83617,-0.25311 -2.83617,-0.37511v-2.65319c0.01829,-0.08538 0.06099,-0.12807 0.12809,-0.12807zM106.52394,176.56395h0.0549c2.78129,0.50624 4.17191,0.80205 4.17191,0.88745c-0.79901,4.52568 -1.2839,7.04775 -1.45469,7.56619h-2.90022c-0.0854,0 -0.12809,-0.04268 -0.12809,-0.12806z" data-paper-data="{&quot;origPos&quot;:null}" fill="#2b70c2" stroke="none" stroke-width="0.26458" stroke-linecap="butt"/><path d="M118.25291,175.90521c2.5922,0.06708 3.88831,0.17992 3.88831,0.33853c0.44525,6.75193 0.66788,10.34441 0.66788,10.77747c-1.96397,1.25036 -3.36987,2.09815 -4.21767,2.5434c-2.98866,-0.93929 -4.483,-1.47604 -4.483,-1.61022c0.96369,-1.40894 1.52177,-2.12256 1.67427,-2.14085c1.62851,0.80512 2.56477,1.20767 2.80873,1.20767l0.86915,-1.14362c-0.23178,-0.94539 -0.38732,-1.50348 -0.4666,-1.67427c-0.13419,0 -1.7871,0.26837 -4.95874,0.80512c-1.7383,-2.82397 -2.60744,-4.27257 -2.60744,-4.34576c1.50042,-2.39703 2.41532,-3.80291 2.74468,-4.21767h0.06405c0.17688,0 1.49433,0.28972 3.95235,0.86915v-0.20127c0,-0.23787 -0.02135,-0.61909 -0.06404,-1.14363zM115.38013,179.78438c0.0854,0.18906 0.35376,1.19546 0.8051,3.01916c0.56723,-0.18299 1.43639,-0.51844 2.60745,-1.00639c-0.22567,-1.09787 -0.33851,-1.72306 -0.33851,-1.87554l-0.32936,-0.06403h-0.40255c-0.51235,0 -1.29305,-0.02439 -2.34213,-0.07318z" data-paper-data="{&quot;origPos&quot;:null}" fill="#2b70c2" stroke="none" stroke-width="0.26458" stroke-linecap="butt"/><path d="M125.18782,175.87777c3.62298,0.50013 5.43449,0.80816 5.43449,0.92405c1.42723,1.22595 2.14085,1.88163 2.14085,1.96702c-0.57944,1.81149 -0.90879,2.91242 -0.9881,3.30277c0.57944,1.28696 0.90879,2.05547 0.9881,2.30555c0,0.07318 -0.9454,0.26835 -2.83617,0.58553c-0.0244,-0.10369 -0.19823,-0.33547 -0.5215,-0.69532c-2.6105,0.50015 -4.01638,0.75022 -4.21767,0.75022l-1.39065,-3.76022l3.0649,-1.61937c0.49404,0.07927 1.26561,0.11891 2.31469,0.11891c0,-0.13419 0.01829,-0.53979 0.0549,-1.21682c-0.17688,0 -1.75659,0.11589 -4.73916,0.34766l-0.0549,-0.11892c0.41475,-1.92738 0.66482,-2.89107 0.75022,-2.89107zM127.0908,181.25736c0,0.06708 0.19517,0.7807 0.58552,2.14085h0.0549c0.76851,-0.50013 1.15277,-0.82951 1.15277,-0.98809l0.11894,-0.97894c-0.14638,0 -0.78375,-0.05793 -1.91213,-0.17382z" data-paper-data="{&quot;origPos&quot;:null}" fill="#2b70c2" stroke="none" stroke-width="0.26458" stroke-linecap="butt"/><path d="M143.80595,175.87777c1.48823,0.61604 2.77212,1.19547 3.8517,1.7383c-0.28057,3.62909 -0.4605,5.61441 -0.53979,5.95597c-1.79319,0.44525 -2.79653,0.66788 -3.01001,0.66788c0,-0.7929 -0.06099,-2.35738 -0.18297,-4.69342c-0.67703,0.06708 -1.01553,0.12502 -1.01553,0.17382c0,0.23176 0.03964,1.55533 0.11894,3.97065c0.0366,0 0.0549,0.02135 0.0549,0.06403c0,0.07318 -0.94234,0.27445 -2.82703,0.60382c-0.0793,-0.09757 -0.32021,-1.58275 -0.72276,-4.45554c-0.76241,0.19518 -1.14363,0.33546 -1.14363,0.42086l0.36597,3.73278c-0.07319,0.07927 -1.07653,0.39948 -3.01002,0.96063c-1.12228,-3.97065 -1.8237,-6.63605 -2.10426,-7.9962c2.11647,-0.52453 3.29973,-0.78681 3.54981,-0.78681c0.28057,1.11007 0.42084,1.75052 0.42084,1.92129h0.06405c1.03079,-0.95149 1.7505,-1.59192 2.15915,-1.92129h0.06405l1.92128,1.3815h0.06404c1.20157,-1.15886 1.84199,-1.7383 1.92129,-1.7383z" data-paper-data="{&quot;origPos&quot;:null}" fill="#2b70c2" stroke="none" stroke-width="0.26458" stroke-linecap="butt"/><path d="M153.76002,175.88692c2.76298,1.42114 4.29391,2.25065 4.59278,2.48852c-0.39646,1.85419 -0.63128,2.80871 -0.70447,2.86361h-5.78214v0.10062l1.61937,2.00361l2.54341,-1.29915c0.25007,0.43305 0.60993,1.18936 1.07958,2.26894c-0.21958,0.07318 -1.82064,0.30799 -4.80321,0.70447c-2.47022,-1.62851 -3.71448,-2.47631 -3.73278,-2.54342c0.39646,-3.16555 0.63128,-4.74831 0.70447,-4.74831c2.58001,-1.09787 4.07434,-1.71086 4.48298,-1.83893zM153.16535,178.10096c-0.04879,0.122 -0.37206,0.60689 -0.96979,1.45469c0,0.25617 0.35985,0.38426 1.07958,0.38426c0,0.03659 0.5215,0.12502 1.56448,0.26531c0.28666,-0.39644 0.43,-0.62822 0.43,-0.69532c-0.09149,-0.54283 -0.28972,-0.81425 -0.59468,-0.81425z" data-paper-data="{&quot;origPos&quot;:null}" fill="#2b70c2" stroke="none" stroke-width="0.26458" stroke-linecap="butt"/><path d="M166.56856,175.87777c1.7566,1.12226 2.72639,1.76879 2.90937,1.93958c-0.63433,1.40894 -0.99724,2.11341 -1.08873,2.11341l-3.33023,-1.93043h-0.11893c0,0.06098 -0.14333,0.40254 -0.43001,1.02469c3.06795,1.65292 4.60193,2.50072 4.60193,2.54341c-0.86,1.98837 -1.3449,3.03746 -1.45469,3.14724l-5.20576,0.30192c-2.02498,-1.34186 -3.1137,-2.04936 -3.26618,-2.12256v-0.05489c0,-0.15248 0.30192,-0.83865 0.90576,-2.05851l4.06213,2.11341l0.30192,-1.20767c-2.51292,-1.12837 -4.00724,-1.83284 -4.48298,-2.11341v-0.12806c0,-0.23178 0.48489,-1.25952 1.45469,-3.08321z" data-paper-data="{&quot;origPos&quot;:null}" fill="#2b70c2" stroke="none" stroke-width="0.26458" stroke-linecap="butt"/><path d="M176.42199,175.87777c3.62298,0.50013 5.43448,0.80816 5.43448,0.92405c1.42723,1.22595 2.14086,1.88163 2.14086,1.96702c-0.57943,1.81149 -0.90879,2.91242 -0.98809,3.30277c0.57943,1.28696 0.90879,2.05547 0.98809,2.30555c0,0.07318 -0.9454,0.26835 -2.83617,0.58553c-0.02439,-0.10369 -0.19823,-0.33547 -0.52149,-0.69532c-2.6105,0.50015 -4.01638,0.75022 -4.21767,0.75022l-1.39065,-3.76022l3.0649,-1.61937c0.49404,0.07927 1.26561,0.11891 2.3147,0.11891c0,-0.13419 0.01829,-0.53979 0.05489,-1.21682c-0.17688,0 -1.75659,0.11589 -4.73916,0.34766l-0.0549,-0.11892c0.41476,-1.92738 0.66483,-2.89107 0.75022,-2.89107zM178.32497,181.25736c0,0.06708 0.19518,0.7807 0.58553,2.14085h0.0549c0.76852,-0.50013 1.15277,-0.82951 1.15277,-0.98809l0.11893,-0.97894c-0.14639,0 -0.78376,-0.05793 -1.91214,-0.17382z" data-paper-data="{&quot;origPos&quot;:null}" fill="#000000" stroke="none" stroke-width="0.26458" stroke-linecap="butt"/><path d="M191.44459,175.87777c1.20765,0.67703 1.94873,1.11617 2.22319,1.31745c-0.98809,2.05545 -1.51872,3.10148 -1.59192,3.13809h-0.06405l-1.3083,-1.14362l-1.54618,1.88468l0.17382,3.43086c-0.07928,0.07318 -1.08873,0.24397 -3.02831,0.51235c-0.07319,-0.52453 -0.54894,-3.09539 -1.42723,-7.71258c0,-0.07318 1.27475,-0.26226 3.82426,-0.56723c0.0427,0.04879 0.15859,0.61908 0.34766,1.71086c1.52483,-1.71391 2.32384,-2.57086 2.39703,-2.57086z" data-paper-data="{&quot;origPos&quot;:null}" fill="#000000" stroke="none" stroke-width="0.26458" stroke-linecap="butt"/><path d="M199.57802,175.88692c2.76298,1.42114 4.29391,2.25065 4.59278,2.48852c-0.39646,1.85419 -0.63127,2.80871 -0.70447,2.86361h-5.78215v0.10062l1.61937,2.00361l2.54342,-1.29915c0.25008,0.43305 0.60993,1.18936 1.07958,2.26894c-0.21958,0.07318 -1.82066,0.30799 -4.80322,0.70447c-2.47022,-1.62851 -3.71448,-2.47631 -3.73277,-2.54342c0.39646,-3.16555 0.63127,-4.74831 0.70447,-4.74831c2.58001,-1.09787 4.07434,-1.71086 4.48299,-1.83893zM198.98333,178.10096c-0.04879,0.122 -0.37206,0.60689 -0.9698,1.45469c0,0.25617 0.35985,0.38426 1.07958,0.38426c0,0.03659 0.5215,0.12502 1.56447,0.26531c0.28666,-0.39644 0.42999,-0.62822 0.42999,-0.69532c-0.09149,-0.54283 -0.28972,-0.81425 -0.59468,-0.81425z" data-paper-data="{&quot;origPos&quot;:null}" fill="#000000" stroke="none" stroke-width="0.26458" stroke-linecap="butt"/><path d="M217.7753,175.87777l3.0466,2.09511c-0.21348,3.4766 -0.36292,5.50767 -0.4483,6.09321c-0.35376,0.04268 -1.43029,0.10673 -3.2296,0.19213l-0.06403,-0.12806l-0.32021,-4.88555l-0.12806,-0.06403c-1.16496,0.25008 -1.96702,0.43915 -2.40617,0.56723c0.12198,2.07986 0.18297,3.58334 0.18297,4.51044c-1.81759,0.50624 -2.81176,0.75937 -2.98255,0.75937c-1.18326,-5.2088 -1.77489,-7.9596 -1.77489,-8.25236c2.5739,-0.33545 3.97063,-0.50319 4.19021,-0.50319v0.06403c0.04268,0.0305 0.10673,0.66481 0.19214,1.90297c2.36043,-1.56752 3.60774,-2.35128 3.74193,-2.35128z" data-paper-data="{&quot;origPos&quot;:null}" fill="#000000" stroke="none" stroke-width="0.26458" stroke-linecap="butt"/><path d="M225.41466,175.88692c2.31775,0.62213 3.54676,1.00027 3.68705,1.13446c1.27475,1.8054 1.99141,2.84534 2.14999,3.1198c-0.82342,2.61051 -1.2961,3.91577 -1.41808,3.91577c-2.74469,0.64042 -4.18108,0.96063 -4.30916,0.96063c-2.26894,-1.32356 -3.47661,-2.06156 -3.623,-2.21404c-0.07927,-2.46413 -0.11892,-3.82428 -0.11892,-4.08045c-0.03659,-0.07318 -0.05488,-0.12807 -0.05488,-0.16468c2.34214,-1.78099 3.55285,-2.67149 3.63215,-2.67149zM225.24084,179.23544c-0.03659,0.24398 -0.09149,1.13142 -0.16468,2.66234l2.04022,0.45745c0.48794,-1.52483 0.73192,-2.33909 0.73192,-2.44278c-1.62242,-0.48794 -2.49157,-0.73191 -2.60746,-0.73191z" data-paper-data="{&quot;origPos&quot;:null}" fill="#000000" stroke="none" stroke-width="0.26458" stroke-linecap="butt"/><path d="M236.10067,175.87777c0.07927,0.10369 0.49097,1.87248 1.2351,5.3064h0.06403c0,-0.07927 0.45136,-0.77765 1.35406,-2.09511c0.37815,0.25617 1.09787,0.81121 2.15914,1.66511h0.12806v-0.06403c0.16468,-2.37873 0.28666,-3.69618 0.36596,-3.95235c2.5129,0.12807 3.76937,0.23177 3.76937,0.31107c-1.15277,4.63548 -1.7688,7.04469 -1.8481,7.22767c-0.38425,0.04268 -1.18936,0.16468 -2.41532,0.36596c-1.00638,-1.57971 -1.58277,-2.42142 -1.72915,-2.52511c-0.65874,1.7566 -1.07043,2.72334 -1.23511,2.90022h-2.47021c-0.15248,-0.04879 -0.87221,-1.63461 -2.15916,-4.75746c-0.82342,-1.74441 -1.23511,-2.6898 -1.23511,-2.83617c0,-0.13419 1.3388,-0.64959 4.0164,-1.54618z" data-paper-data="{&quot;origPos&quot;:null}" fill="#000000" stroke="none" stroke-width="0.26458" stroke-linecap="butt"/><path d="M252.21198,175.87777c3.62298,0.50013 5.43448,0.80816 5.43448,0.92405c1.42725,1.22595 2.14086,1.88163 2.14086,1.96702c-0.57943,1.81149 -0.90879,2.91242 -0.98809,3.30277c0.57943,1.28696 0.90879,2.05547 0.98809,2.30555c0,0.07318 -0.9454,0.26835 -2.83619,0.58553c-0.02439,-0.10369 -0.19822,-0.33547 -0.52148,-0.69532c-2.6105,0.50015 -4.01639,0.75022 -4.21767,0.75022l-1.39064,-3.76022l3.0649,-1.61937c0.49406,0.07927 1.2656,0.11891 2.31469,0.11891c0,-0.13419 0.0183,-0.53979 0.05489,-1.21682c-0.17688,0 -1.75659,0.11589 -4.73915,0.34766l-0.05489,-0.11892c0.41476,-1.92738 0.66483,-2.89107 0.75022,-2.89107zM254.11496,181.25736c0,0.06708 0.19518,0.7807 0.58554,2.14085h0.05488c0.76852,-0.50013 1.15277,-0.82951 1.15277,-0.98809l0.11892,-0.97894c-0.14639,0 -0.78377,-0.05793 -1.91214,-0.17382z" data-paper-data="{&quot;origPos&quot;:null}" fill="#000000" stroke="none" stroke-width="0.26458" stroke-linecap="butt"/><path d="M264.22455,175.87777c1.49434,3.42781 2.29029,5.20577 2.38788,5.33384c0.73802,-2.79959 1.16801,-4.29086 1.29001,-4.47384c2.32994,0.21347 3.49489,0.39646 3.49489,0.54894v0.06403c-1.63461,4.48909 -2.51291,6.84037 -2.63489,7.05384c-1.8054,0.32936 -3.01307,0.53368 -3.623,0.61298l-4.47384,-6.62385v-0.12806c0.04268,-0.07927 1.22901,-0.87523 3.55894,-2.38787z" data-paper-data="{&quot;origPos&quot;:null}" fill="#000000" stroke="none" stroke-width="0.26458" stroke-linecap="butt"/><path d="M273.76694,175.87777c3.62298,0.50013 5.43447,0.80816 5.43447,0.92405c1.42725,1.22595 2.14087,1.88163 2.14087,1.96702c-0.57943,1.81149 -0.9088,2.91242 -0.9881,3.30277c0.57943,1.28696 0.9088,2.05547 0.9881,2.30555c0,0.07318 -0.9454,0.26835 -2.83619,0.58553c-0.02439,-0.10369 -0.19822,-0.33547 -0.52148,-0.69532c-2.6105,0.50015 -4.01638,0.75022 -4.21767,0.75022l-1.39065,-3.76022l3.0649,-1.61937c0.49406,0.07927 1.2656,0.11891 2.31469,0.11891c0,-0.13419 0.0183,-0.53979 0.05489,-1.21682c-0.17688,0 -1.7566,0.11589 -4.73916,0.34766l-0.05488,-0.11892c0.41476,-1.92738 0.66482,-2.89107 0.75022,-2.89107zM275.66992,181.25736c0,0.06708 0.19517,0.7807 0.58554,2.14085h0.05488c0.76852,-0.50013 1.15278,-0.82951 1.15278,-0.98809l0.11891,-0.97894c-0.14639,0 -0.78377,-0.05793 -1.91214,-0.17382z" data-paper-data="{&quot;origPos&quot;:null}" fill="#000000" stroke="none" stroke-width="0.26458" stroke-linecap="butt"/><path d="M283.48312,172.20904l3.59554,0.56723c-0.45136,1.72609 -0.74717,2.58915 -0.88746,2.58915c-1.89077,-0.12807 -2.83617,-0.25311 -2.83617,-0.37511v-2.65319c0.01829,-0.08538 0.06098,-0.12807 0.12806,-0.12807zM282.47673,176.56395h0.05489c2.78129,0.50624 4.17193,0.80205 4.17193,0.88745c-0.79901,4.52568 -1.28392,7.04775 -1.45469,7.56619h-2.90022c-0.08538,0 -0.12806,-0.04268 -0.12806,-0.12806z" data-paper-data="{&quot;origPos&quot;:null}" fill="#000000" stroke="none" stroke-width="0.26458" stroke-linecap="butt"/><path d="M287.38059,173.12394c1.86639,0.03659 3.23569,0.05488 4.10789,0.05488c0.07927,0 0.3202,3.74498 0.72276,11.23493c-0.31106,0.07927 -1.39674,0.28055 -3.25703,0.60384c-0.09147,0 -0.39339,-2.29335 -0.90574,-6.88002c-0.04268,-0.10978 -0.26531,-1.78099 -0.66788,-5.01362z" data-paper-data="{&quot;origPos&quot;:null}" fill="#000000" stroke="none" stroke-width="0.26458" stroke-linecap="butt"/><path d="M294.62657,175.87777c3.62298,0.50013 5.43448,0.80816 5.43448,0.92405c1.42725,1.22595 2.14086,1.88163 2.14086,1.96702c-0.57943,1.81149 -0.90879,2.91242 -0.98809,3.30277c0.57943,1.28696 0.90879,2.05547 0.98809,2.30555c0,0.07318 -0.9454,0.26835 -2.83617,0.58553c-0.02439,-0.10369 -0.19823,-0.33547 -0.5215,-0.69532c-2.6105,0.50015 -4.01639,0.75022 -4.21767,0.75022l-1.39065,-3.76022l3.0649,-1.61937c0.49406,0.07927 1.2656,0.11891 2.31469,0.11891c0,-0.13419 0.0183,-0.53979 0.05489,-1.21682c-0.17688,0 -1.75661,0.11589 -4.73917,0.34766l-0.05489,-0.11892c0.41476,-1.92738 0.66483,-2.89107 0.75022,-2.89107zM296.52953,181.25736c0,0.06708 0.19518,0.7807 0.58554,2.14085h0.05489c0.76851,-0.50013 1.15277,-0.82951 1.15277,-0.98809l0.11892,-0.97894c-0.14639,0 -0.78377,-0.05793 -1.91214,-0.17382z" data-paper-data="{&quot;origPos&quot;:null}" fill="#000000" stroke="none" stroke-width="0.26458" stroke-linecap="butt"/><path d="M307.35276,173.11478l0.06403,0.11891c0,0.34767 0.07928,1.69256 0.23787,4.03469c2.18354,-0.69532 3.40646,-1.06128 3.66873,-1.09787l3.29363,3.54064c-1.38454,3.10456 -2.13779,4.75137 -2.25979,4.94044c-0.38425,-0.04268 -1.78709,-0.10368 -4.20853,-0.18297v0.42999c0,0.07927 -0.04268,0.11891 -0.12806,0.11891h-3.54066c-0.12808,0 -0.37206,-1.82978 -0.73191,-5.48937c-0.07927,-0.31107 -0.3019,-2.14391 -0.66787,-5.49854c2.07375,-0.48794 3.49795,-0.7929 4.27256,-0.9149zM307.96574,179.83011l0.23787,2.2598h1.83895l0.66787,-2.5617c-1.82979,0.15858 -2.74469,0.25922 -2.74469,0.3019z" data-paper-data="{&quot;origPos&quot;:null}" fill="#000000" stroke="none" stroke-width="0.26458" stroke-linecap="butt"/><path d="M315.55939,173.12394c1.86639,0.03659 3.23568,0.05488 4.10789,0.05488c0.07927,0 0.3202,3.74498 0.72276,11.23493c-0.31106,0.07927 -1.39673,0.28055 -3.25703,0.60384c-0.09147,0 -0.39339,-2.29335 -0.90574,-6.88002c-0.04268,-0.10978 -0.26532,-1.78099 -0.66788,-5.01362z" data-paper-data="{&quot;origPos&quot;:null}" fill="#000000" stroke="none" stroke-width="0.26458" stroke-linecap="butt"/><path d="M326.60217,175.88692c2.76299,1.42114 4.29392,2.25065 4.59278,2.48852c-0.39645,1.85419 -0.63128,2.80871 -0.70447,2.86361h-5.78215v0.10062l1.61937,2.00361l2.54341,-1.29915c0.25007,0.43305 0.60993,1.18936 1.07958,2.26894c-0.21958,0.07318 -1.82064,0.30799 -4.8032,0.70447c-2.47023,-1.62851 -3.71448,-2.47631 -3.73278,-2.54342c0.39646,-3.16555 0.63128,-4.74831 0.70447,-4.74831c2.58,-1.09787 4.07434,-1.71086 4.48298,-1.83893zM326.00748,178.10096c-0.04879,0.122 -0.37206,0.60689 -0.9698,1.45469c0,0.25617 0.35986,0.38426 1.07958,0.38426c0,0.03659 0.52149,0.12502 1.56447,0.26531c0.28668,-0.39644 0.43001,-0.62822 0.43001,-0.69532c-0.09147,-0.54283 -0.28971,-0.81425 -0.59469,-0.81425z" data-paper-data="{&quot;origPos&quot;:null}" fill="#000000" stroke="none" stroke-width="0.26458" stroke-linecap="butt"/><path d="M36.44289,196.53612c0.32327,0.03659 1.50042,0.30801 3.53149,0.81426l0.0549,0.10976c-0.29887,1.6651 -0.4788,2.49767 -0.53979,2.49767h-0.0549l-1.47298,-0.75935c0,0.17077 -0.0549,0.9332 -0.16468,2.28724l2.01278,-0.49406c0.06099,0.18299 0.11589,0.99724 0.16468,2.44279c-0.19517,0.07318 -0.86609,0.18296 -2.01277,0.32936c0.25617,1.09787 0.52759,2.43972 0.81426,4.02554c-0.93929,0.21347 -2.06157,0.43 -3.36682,0.64958l-0.0549,-0.10977c-0.17079,-2.82397 -0.31412,-4.23596 -0.42999,-4.23596c-1.18327,0.28668 -1.8176,0.44831 -1.90298,0.48489c-0.0732,-0.35375 -0.20127,-1.3144 -0.38425,-2.88193l0.10978,-0.05488h1.95788c-0.10978,-0.9027 -0.27447,-2.07988 -0.49404,-3.5315z" data-paper-data="{&quot;origPos&quot;:null}" fill="#000000" stroke="none" stroke-width="0.26458" stroke-linecap="butt"/><path d="M47.43996,199.29911c1.20766,0.67703 1.94873,1.11617 2.22319,1.31745c-0.9881,2.05545 -1.51872,3.10148 -1.59192,3.13809h-0.06405l-1.30831,-1.14362l-1.54617,1.88468l0.17382,3.43086c-0.07929,0.07318 -1.08873,0.24397 -3.02831,0.51235c-0.0732,-0.52454 -0.54894,-3.09539 -1.42723,-7.71258c0,-0.07318 1.27476,-0.26226 3.82427,-0.56723c0.0427,0.04879 0.15859,0.61908 0.34765,1.71085c1.52483,-1.71391 2.32384,-2.57085 2.39703,-2.57085z" data-paper-data="{&quot;origPos&quot;:null}" fill="#000000" stroke="none" stroke-width="0.26458" stroke-linecap="butt"/><path d="M54.07295,199.30825c2.31773,0.62213 3.54675,1.00028 3.68702,1.13446c1.27475,1.8054 1.99143,2.84534 2.15002,3.1198c-0.82342,2.61052 -1.2961,3.91577 -1.41809,3.91577c-2.74469,0.64042 -4.18108,0.96064 -4.30916,0.96064c-2.26894,-1.32356 -3.47661,-2.06158 -3.62298,-2.21406c-0.07928,-2.46411 -0.11893,-3.82426 -0.11893,-4.08043c-0.03659,-0.07318 -0.0549,-0.12808 -0.0549,-0.16468c2.34213,-1.781 3.55284,-2.67149 3.63214,-2.67149zM53.89913,202.65678c-0.03659,0.24397 -0.09149,1.13141 -0.16468,2.66235l2.04022,0.45745c0.48794,-1.52483 0.73191,-2.33909 0.73191,-2.44278c-1.62241,-0.48795 -2.49157,-0.73191 -2.60745,-0.73191z" data-paper-data="{&quot;origPos&quot;:null}" fill="#000000" stroke="none" stroke-width="0.26458" stroke-linecap="butt"/><path d="M70.90704,199.29911c1.48823,0.61604 2.77214,1.19547 3.85171,1.73829c-0.28057,3.62909 -0.4605,5.61441 -0.53979,5.95597c-1.79319,0.44525 -2.79653,0.66788 -3.01002,0.66788c0,-0.79291 -0.06099,-2.35737 -0.18297,-4.69342c-0.67703,0.06709 -1.01553,0.12502 -1.01553,0.17383c0,0.23176 0.03965,1.55532 0.11893,3.97065c0.03661,0 0.0549,0.02135 0.0549,0.06403c0,0.07318 -0.94235,0.27445 -2.82703,0.60382c-0.07928,-0.09756 -0.32021,-1.58275 -0.72276,-4.45554c-0.76241,0.19518 -1.14363,0.33546 -1.14363,0.42086l0.36596,3.73278c-0.07319,0.07927 -1.07652,0.39949 -3.01001,0.96064c-1.12227,-3.97065 -1.82369,-6.63605 -2.10426,-7.9962c2.11646,-0.52454 3.29973,-0.78681 3.54979,-0.78681c0.28057,1.11007 0.42084,1.75051 0.42084,1.92129h0.06405c1.03079,-0.95149 1.7505,-1.59191 2.15916,-1.92129h0.06405l1.92129,1.38149h0.06405c1.20157,-1.15886 1.84198,-1.73829 1.92128,-1.73829z" data-paper-data="{&quot;origPos&quot;:null}" fill="#000000" stroke="none" stroke-width="0.26458" stroke-linecap="butt"/><path d="M83.05685,196.53611l4.02555,0.71363l-0.38426,3.05575c0.79901,-0.04268 1.38454,-0.06403 1.75661,-0.06403h0.58552l0.12809,-0.06403l0.06405,0.12806c-0.12809,1.85419 -0.23787,2.89717 -0.32935,3.12895l-0.1281,-0.07318c-0.09148,0 -0.91489,-0.04268 -2.47022,-0.12806c-0.08539,1.43334 -0.14945,3.14725 -0.19212,5.14172l-0.12809,0.06403c-1.96397,-0.12809 -3.13504,-0.23788 -3.5132,-0.32936l0.06405,-0.25619c0,-0.53064 0.08539,-2.17745 0.25617,-4.94043c-1.64681,-0.09147 -2.47022,-0.20126 -2.47022,-0.32936c0.08539,-2.03716 0.19517,-3.05575 0.32935,-3.05575l2.40618,0.45745v-0.78681c0,-0.64044 -0.0244,-1.50653 -0.07319,-2.59831c0.04879,0 0.07319,-0.02135 0.07319,-0.06403z" data-paper-data="{&quot;origPos&quot;:null}" fill="#000000" stroke="none" stroke-width="0.26458" stroke-linecap="butt"/><path d="M94.30092,196.53612c0.03661,0.05489 0.20738,1.72609 0.51235,5.01364c2.35433,-0.71972 3.60774,-1.07958 3.76022,-1.07958l2.33299,1.59191c-0.37815,3.47661 -0.62518,5.50768 -0.74106,6.09321l-3.23873,0.10976c0,-0.03659 -0.02135,-0.05488 -0.06404,-0.05488l0.06404,-0.22872c0,-0.49404 0.07319,-1.99447 0.21958,-4.5013c-0.8905,-0.03659 -1.55227,-0.05488 -1.98532,-0.05488h-0.22872c0.26228,2.78738 0.39341,4.30611 0.39341,4.55618l-3.07405,0.45745c-0.11589,-0.39036 -0.79901,-4.0347 -2.04936,-10.93301c0,-0.19518 0.47574,-0.34767 1.42723,-0.45745c1.20157,-0.34156 2.09206,-0.51234 2.67149,-0.51234z" data-paper-data="{&quot;origPos&quot;:null}" fill="#000000" stroke="none" stroke-width="0.26458" stroke-linecap="butt"/><path d="M106.95395,199.30825c2.76298,1.42114 4.29391,2.25065 4.59278,2.48852c-0.39646,1.85419 -0.63128,2.80872 -0.70447,2.86361h-5.78214v0.10062l1.61937,2.00361l2.54342,-1.29914c0.25007,0.43305 0.60993,1.18936 1.07958,2.26894c-0.21958,0.07318 -1.82063,0.30799 -4.80321,0.70447c-2.47022,-1.62851 -3.71449,-2.47632 -3.73278,-2.54342c0.39646,-3.16555 0.63128,-4.74831 0.70447,-4.74831c2.58001,-1.09787 4.07434,-1.71086 4.48298,-1.83893zM106.35926,201.5223c-0.04879,0.122 -0.37206,0.60689 -0.96979,1.45469c0,0.25617 0.35986,0.38425 1.07958,0.38425c0,0.03659 0.5215,0.12502 1.56448,0.26531c0.28666,-0.39645 0.42999,-0.62822 0.42999,-0.69532c-0.09149,-0.54283 -0.28972,-0.81426 -0.59468,-0.81426z" data-paper-data="{&quot;origPos&quot;:null}" fill="#000000" stroke="none" stroke-width="0.26458" stroke-linecap="butt"/><path d="M121.10739,196.52697c1.7261,0.122 2.58916,0.23178 2.58916,0.32938c0.66482,1.78709 1.07043,2.92766 1.21681,3.4217h0.0549c0.15859,-0.34156 0.76546,-1.28085 1.82063,-2.81788h0.0549c1.65291,0.10369 2.47937,0.21652 2.47937,0.33852l1.49128,10.20108c0,0.06097 -1.30525,0.20736 -3.91575,0.43916l-0.0549,-0.10977c-0.14638,-3.09845 -0.21958,-4.99228 -0.21958,-5.68149h-0.0549l-2.25979,1.98532h-0.0549c-0.07319,-0.03659 -0.58858,-0.84474 -1.54617,-2.42447h-0.0549c-1.17716,3.4278 -1.82064,5.24846 -1.93044,5.46193h-0.10978c-2.10426,-0.95149 -3.29973,-1.52178 -3.58639,-1.71086v-0.05488c2.6105,-6.13589 3.97065,-9.2618 4.08043,-9.37768z" data-paper-data="{&quot;origPos&quot;:null}" fill="#2b70c2" stroke="none" stroke-width="0.26458" stroke-linecap="butt"/><path d="M133.05593,199.29911c3.62298,0.50013 5.43449,0.80815 5.43449,0.92404c1.42723,1.22595 2.14085,1.88163 2.14085,1.96703c-0.57944,1.81149 -0.90879,2.91242 -0.9881,3.30277c0.57944,1.28695 0.90879,2.05547 0.9881,2.30555c0,0.07318 -0.9454,0.26835 -2.83617,0.58552c-0.0244,-0.10369 -0.19823,-0.33546 -0.5215,-0.69532c-2.6105,0.50014 -4.01638,0.75022 -4.21767,0.75022l-1.39065,-3.76022l3.0649,-1.61937c0.49404,0.07927 1.2656,0.11891 2.31469,0.11891c0,-0.13419 0.0183,-0.53977 0.0549,-1.2168c-0.17688,0 -1.7566,0.11589 -4.73916,0.34765l-0.0549,-0.11891c0.41475,-1.92738 0.66483,-2.89107 0.75022,-2.89107zM134.95891,204.6787c0,0.06709 0.19517,0.7807 0.58552,2.14085h0.0549c0.76851,-0.50013 1.15277,-0.82951 1.15277,-0.9881l0.11894,-0.97893c-0.14638,0 -0.78375,-0.05793 -1.91214,-0.17382z" data-paper-data="{&quot;origPos&quot;:null}" fill="#2b70c2" stroke="none" stroke-width="0.26458" stroke-linecap="butt"/><path d="M142.77212,195.63038l3.59554,0.56723c-0.45134,1.72609 -0.74717,2.58916 -0.88744,2.58916c-1.89079,-0.12808 -2.83617,-0.25311 -2.83617,-0.37511v-2.6532c0.01829,-0.08538 0.06099,-0.12806 0.12809,-0.12806zM141.76573,199.98528h0.0549c2.78129,0.50624 4.17192,0.80205 4.17192,0.88744c-0.79901,4.52568 -1.2839,7.04775 -1.45469,7.56619h-2.90022c-0.0854,0 -0.12809,-0.04269 -0.12809,-0.12807z" data-paper-data="{&quot;origPos&quot;:null}" fill="#2b70c2" stroke="none" stroke-width="0.26458" stroke-linecap="butt"/><path d="M154.79385,199.29911l3.0466,2.09511c-0.21347,3.47659 -0.3629,5.50767 -0.4483,6.09321c-0.35376,0.04268 -1.43029,0.10672 -3.22958,0.19212l-0.06405,-0.12806l-0.32021,-4.88554l-0.12809,-0.06403c-1.16497,0.25007 -1.96702,0.43915 -2.40618,0.56723c0.12198,2.07986 0.18297,3.58334 0.18297,4.51044c-1.8176,0.50624 -2.81179,0.75937 -2.98256,0.75937c-1.18327,-5.2088 -1.7749,-7.95959 -1.7749,-8.25236c2.57391,-0.33546 3.97065,-0.50318 4.19023,-0.50318v0.06403c0.04269,0.03049 0.10674,0.66482 0.19212,1.90298c2.36043,-1.56752 3.60774,-2.35128 3.74193,-2.35128z" data-paper-data="{&quot;origPos&quot;:null}" fill="#2b70c2" stroke="none" stroke-width="0.26458" stroke-linecap="butt"/><path d="M167.47431,196.52697c1.72609,0.122 2.58916,0.23178 2.58916,0.32938c0.66483,1.78709 1.07043,2.92766 1.21681,3.4217h0.0549c0.15858,-0.34156 0.76547,-1.28085 1.82064,-2.81788h0.05489c1.65291,0.10369 2.47937,0.21652 2.47937,0.33852l1.49128,10.20108c0,0.06097 -1.30525,0.20736 -3.91575,0.43916l-0.0549,-0.10977c-0.14639,-3.09845 -0.21957,-4.99228 -0.21957,-5.68149h-0.0549l-2.25979,1.98532h-0.0549c-0.07319,-0.03659 -0.58858,-0.84474 -1.54618,-2.42447h-0.0549c-1.17716,3.4278 -1.82064,5.24846 -1.93043,5.46193h-0.10978c-2.10426,-0.95149 -3.29973,-1.52178 -3.58639,-1.71086v-0.05488c2.6105,-6.13589 3.97065,-9.2618 4.08043,-9.37768z" data-paper-data="{&quot;origPos&quot;:null}" fill="#2b70c2" stroke="none" stroke-width="0.26458" stroke-linecap="butt"/><path d="M183.21968,199.30825c2.76298,1.42114 4.29391,2.25065 4.59278,2.48852c-0.39646,1.85419 -0.63128,2.80872 -0.70447,2.86361h-5.78214v0.10062l1.61937,2.00361l2.54342,-1.29914c0.25008,0.43305 0.60993,1.18936 1.07958,2.26894c-0.21958,0.07318 -1.82064,0.30799 -4.80321,0.70447c-2.47022,-1.62851 -3.71448,-2.47632 -3.73278,-2.54342c0.39646,-3.16555 0.63127,-4.74831 0.70447,-4.74831c2.58001,-1.09787 4.07434,-1.71086 4.483,-1.83893zM182.62499,201.5223c-0.04879,0.122 -0.37205,0.60689 -0.96978,1.45469c0,0.25617 0.35985,0.38425 1.07958,0.38425c0,0.03659 0.52149,0.12502 1.56447,0.26531c0.28666,-0.39645 0.43,-0.62822 0.43,-0.69532c-0.09149,-0.54283 -0.28972,-0.81426 -0.59469,-0.81426z" data-paper-data="{&quot;origPos&quot;:null}" fill="#2b70c2" stroke="none" stroke-width="0.26458" stroke-linecap="butt"/><path d="M196.76928,199.29911l3.0466,2.09511c-0.21347,3.47659 -0.36291,5.50767 -0.44831,6.09321c-0.35376,0.04268 -1.43028,0.10672 -3.22957,0.19212l-0.06405,-0.12806l-0.32021,-4.88554l-0.12809,-0.06403c-1.16497,0.25007 -1.96703,0.43915 -2.40618,0.56723c0.12198,2.07986 0.18297,3.58334 0.18297,4.51044c-1.8176,0.50624 -2.81178,0.75937 -2.98256,0.75937c-1.18327,-5.2088 -1.7749,-7.95959 -1.7749,-8.25236c2.57391,-0.33546 3.97065,-0.50318 4.19023,-0.50318v0.06403c0.0427,0.03049 0.10674,0.66482 0.19212,1.90298c2.36043,-1.56752 3.60774,-2.35128 3.74193,-2.35128z" data-paper-data="{&quot;origPos&quot;:null}" fill="#2b70c2" stroke="none" stroke-width="0.26458" stroke-linecap="butt"/><path d="M205.66207,199.29911l0.06404,0.11891l-1.23512,6.55066h0.06403l3.14724,-0.92405v-3.70532c0.0122,-0.08538 0.05183,-0.12806 0.11892,-0.12806c2.36652,0.16468 3.68397,0.24702 3.95234,0.24702c0,0.04268 0.02135,0.06403 0.06403,0.06403c0,1.04298 -0.32936,3.20519 -0.98809,6.48661c0,0.18908 -0.9454,0.33242 -2.83617,0.43001c-0.09757,-0.11589 -0.1799,-0.36291 -0.24702,-0.74108c-2.42144,0.49406 -3.80292,0.74108 -4.14448,0.74108c-1.93349,-1.43944 -2.90022,-2.18051 -2.90022,-2.22321c0.32936,-4.32441 0.53673,-6.56896 0.62213,-6.73363h0.05488c1.54313,-0.04268 2.96426,-0.10367 4.26342,-0.18297z" data-paper-data="{&quot;origPos&quot;:null}" fill="#2b70c2" stroke="none" stroke-width="0.26458" stroke-linecap="butt"/><path d="M212.87145,205.62103c0.04268,0.02439 0.99417,0.09758 2.85447,0.21958l0.03659,0.07317c-0.28668,1.6834 -0.46965,2.52511 -0.54894,2.52511h-2.12256c-0.07318,0 -0.17077,-0.84171 -0.29277,-2.52511c-0.02439,0 -0.03659,-0.07319 -0.03659,-0.21958c0.07318,-0.02439 0.10977,-0.04879 0.10977,-0.07318z" data-paper-data="{&quot;origPos&quot;:null}" fill="#000000" stroke="none" stroke-width="0.26458" stroke-linecap="butt"/></g></g></svg>