<svg version="1.1" xmlns="http://www.w3.org/2000/svg" xmlns:xlink="http://www.w3.org/1999/xlink" width="289.62653" height="79.23609" viewBox="0,0,289.62653,79.23609"><defs><linearGradient x1="240" y1="-24135.25496" x2="240" y2="207.61464" gradientUnits="userSpaceOnUse" id="color-1"><stop offset="0" stop-color="#ffffff"/><stop offset="1" stop-color="#ffffff" stop-opacity="0"/></linearGradient><radialGradient cx="351.08268" cy="169.64516" r="27.79167" gradientUnits="userSpaceOnUse" id="color-2"><stop offset="0" stop-color="#005eff"/><stop offset="1" stop-color="#005eff" stop-opacity="0"/></radialGradient><linearGradient x1="117.1257" y1="161.23036" x2="117.1257" y2="176.82076" gradientUnits="userSpaceOnUse" id="color-3"><stop offset="0" stop-color="#ffffff"/><stop offset="1" stop-color="#f0f0f0"/></linearGradient><linearGradient x1="130.97749" y1="185.71088" x2="130.97749" y2="198.02595" gradientUnits="userSpaceOnUse" id="color-4"><stop offset="0" stop-color="#fdfdfd"/><stop offset="1" stop-color="#f0f0f0"/></linearGradient><linearGradient x1="144.94457" y1="185.69857" x2="144.94457" y2="198.41623" gradientUnits="userSpaceOnUse" id="color-5"><stop offset="0" stop-color="#fdfdfd"/><stop offset="1" stop-color="#f0f0f0"/></linearGradient><linearGradient x1="164.04564" y1="181.97259" x2="164.04564" y2="198.02595" gradientUnits="userSpaceOnUse" id="color-6"><stop offset="0" stop-color="#fdfdfd"/><stop offset="1" stop-color="#f0f0f0"/></linearGradient><linearGradient x1="177.37141" y1="185.69857" x2="177.37141" y2="198.02595" gradientUnits="userSpaceOnUse" id="color-7"><stop offset="0" stop-color="#fdfdfd"/><stop offset="1" stop-color="#f0f0f0"/></linearGradient><linearGradient x1="190.64793" y1="185.71088" x2="190.64793" y2="203.14651" gradientUnits="userSpaceOnUse" id="color-8"><stop offset="0" stop-color="#fdfdfd"/><stop offset="1" stop-color="#f0f0f0"/></linearGradient><linearGradient x1="214.38828" y1="181.97259" x2="214.38828" y2="198.02595" gradientUnits="userSpaceOnUse" id="color-9"><stop offset="0" stop-color="#fdfdfd"/><stop offset="1" stop-color="#f0f0f0"/></linearGradient><linearGradient x1="227.71404" y1="181.97259" x2="227.71404" y2="198.02595" gradientUnits="userSpaceOnUse" id="color-10"><stop offset="0" stop-color="#fdfdfd"/><stop offset="1" stop-color="#f0f0f0"/></linearGradient><linearGradient x1="243.31075" y1="185.71088" x2="243.31075" y2="198.02595" gradientUnits="userSpaceOnUse" id="color-11"><stop offset="0" stop-color="#fdfdfd"/><stop offset="1" stop-color="#f0f0f0"/></linearGradient><linearGradient x1="263.89257" y1="185.69857" x2="263.89257" y2="198.02595" gradientUnits="userSpaceOnUse" id="color-12"><stop offset="0" stop-color="#fdfdfd"/><stop offset="1" stop-color="#f0f0f0"/></linearGradient><linearGradient x1="278.97934" y1="185.71088" x2="278.97934" y2="198.02595" gradientUnits="userSpaceOnUse" id="color-13"><stop offset="0" stop-color="#fdfdfd"/><stop offset="1" stop-color="#f0f0f0"/></linearGradient><linearGradient x1="292.76466" y1="185.69857" x2="292.76466" y2="198.02595" gradientUnits="userSpaceOnUse" id="color-14"><stop offset="0" stop-color="#fdfdfd"/><stop offset="1" stop-color="#f0f0f0"/></linearGradient><linearGradient x1="305.59797" y1="185.71088" x2="305.59797" y2="198.02595" gradientUnits="userSpaceOnUse" id="color-15"><stop offset="0" stop-color="#fdfdfd"/><stop offset="1" stop-color="#f0f0f0"/></linearGradient><linearGradient x1="319.91092" y1="185.71088" x2="319.91092" y2="198.02595" gradientUnits="userSpaceOnUse" id="color-16"><stop offset="0" stop-color="#fdfdfd"/><stop offset="1" stop-color="#f0f0f0"/></linearGradient><linearGradient x1="334.22382" y1="185.69857" x2="334.22382" y2="198.02595" gradientUnits="userSpaceOnUse" id="color-17"><stop offset="0" stop-color="#fdfdfd"/><stop offset="1" stop-color="#f0f0f0"/></linearGradient><linearGradient x1="117.1257" y1="161.23036" x2="117.1257" y2="176.82076" gradientUnits="userSpaceOnUse" id="color-18"><stop offset="0" stop-color="#ffffff"/><stop offset="1" stop-color="#f0f0f0"/></linearGradient><linearGradient x1="130.97749" y1="185.71088" x2="130.97749" y2="198.02595" gradientUnits="userSpaceOnUse" id="color-19"><stop offset="0" stop-color="#fdfdfd"/><stop offset="1" stop-color="#f0f0f0"/></linearGradient><linearGradient x1="144.94457" y1="185.69857" x2="144.94457" y2="198.41623" gradientUnits="userSpaceOnUse" id="color-20"><stop offset="0" stop-color="#fdfdfd"/><stop offset="1" stop-color="#f0f0f0"/></linearGradient><linearGradient x1="164.04564" y1="181.97259" x2="164.04564" y2="198.02595" gradientUnits="userSpaceOnUse" id="color-21"><stop offset="0" stop-color="#fdfdfd"/><stop offset="1" stop-color="#f0f0f0"/></linearGradient><linearGradient x1="177.37141" y1="185.69857" x2="177.37141" y2="198.02595" gradientUnits="userSpaceOnUse" id="color-22"><stop offset="0" stop-color="#fdfdfd"/><stop offset="1" stop-color="#f0f0f0"/></linearGradient><linearGradient x1="190.64793" y1="185.71088" x2="190.64793" y2="203.14651" gradientUnits="userSpaceOnUse" id="color-23"><stop offset="0" stop-color="#fdfdfd"/><stop offset="1" stop-color="#f0f0f0"/></linearGradient><linearGradient x1="214.38828" y1="181.97259" x2="214.38828" y2="198.02595" gradientUnits="userSpaceOnUse" id="color-24"><stop offset="0" stop-color="#fdfdfd"/><stop offset="1" stop-color="#f0f0f0"/></linearGradient><linearGradient x1="227.71404" y1="181.97259" x2="227.71404" y2="198.02595" gradientUnits="userSpaceOnUse" id="color-25"><stop offset="0" stop-color="#fdfdfd"/><stop offset="1" stop-color="#f0f0f0"/></linearGradient><linearGradient x1="243.31075" y1="185.71088" x2="243.31075" y2="198.02595" gradientUnits="userSpaceOnUse" id="color-26"><stop offset="0" stop-color="#fdfdfd"/><stop offset="1" stop-color="#f0f0f0"/></linearGradient><linearGradient x1="263.89257" y1="185.69857" x2="263.89257" y2="198.02595" gradientUnits="userSpaceOnUse" id="color-27"><stop offset="0" stop-color="#fdfdfd"/><stop offset="1" stop-color="#f0f0f0"/></linearGradient><linearGradient x1="278.97934" y1="185.71088" x2="278.97934" y2="198.02595" gradientUnits="userSpaceOnUse" id="color-28"><stop offset="0" stop-color="#fdfdfd"/><stop offset="1" stop-color="#f0f0f0"/></linearGradient><linearGradient x1="292.76466" y1="185.69857" x2="292.76466" y2="198.02595" gradientUnits="userSpaceOnUse" id="color-29"><stop offset="0" stop-color="#fdfdfd"/><stop offset="1" stop-color="#f0f0f0"/></linearGradient><linearGradient x1="305.59797" y1="185.71088" x2="305.59797" y2="198.02595" gradientUnits="userSpaceOnUse" id="color-30"><stop offset="0" stop-color="#fdfdfd"/><stop offset="1" stop-color="#f0f0f0"/></linearGradient><linearGradient x1="319.91092" y1="185.71088" x2="319.91092" y2="198.02595" gradientUnits="userSpaceOnUse" id="color-31"><stop offset="0" stop-color="#fdfdfd"/><stop offset="1" stop-color="#f0f0f0"/></linearGradient><linearGradient x1="334.22382" y1="185.69857" x2="334.22382" y2="198.02595" gradientUnits="userSpaceOnUse" id="color-32"><stop offset="0" stop-color="#fdfdfd"/><stop offset="1" stop-color="#f0f0f0"/></linearGradient><linearGradient x1="264.8135" y1="163.44036" x2="264.8135" y2="176.02416" gradientUnits="userSpaceOnUse" id="color-33"><stop offset="0" stop-color="#252525"/><stop offset="1" stop-color="#000000"/></linearGradient><linearGradient x1="343.9919" y1="163.01526" x2="343.9919" y2="176.69686" gradientUnits="userSpaceOnUse" id="color-34"><stop offset="0" stop-color="#252525"/><stop offset="1" stop-color="#000000"/></linearGradient><linearGradient x1="117.1257" y1="161.23036" x2="117.1257" y2="176.82076" gradientUnits="userSpaceOnUse" id="color-35"><stop offset="0" stop-color="#ffffff"/><stop offset="1" stop-color="#f0f0f0"/></linearGradient><linearGradient x1="130.97749" y1="185.71088" x2="130.97749" y2="198.02595" gradientUnits="userSpaceOnUse" id="color-36"><stop offset="0" stop-color="#fdfdfd"/><stop offset="1" stop-color="#f0f0f0"/></linearGradient><linearGradient x1="144.94457" y1="185.69857" x2="144.94457" y2="198.41623" gradientUnits="userSpaceOnUse" id="color-37"><stop offset="0" stop-color="#fdfdfd"/><stop offset="1" stop-color="#f0f0f0"/></linearGradient><linearGradient x1="164.04564" y1="181.97259" x2="164.04564" y2="198.02595" gradientUnits="userSpaceOnUse" id="color-38"><stop offset="0" stop-color="#fdfdfd"/><stop offset="1" stop-color="#f0f0f0"/></linearGradient><linearGradient x1="177.37141" y1="185.69857" x2="177.37141" y2="198.02595" gradientUnits="userSpaceOnUse" id="color-39"><stop offset="0" stop-color="#fdfdfd"/><stop offset="1" stop-color="#f0f0f0"/></linearGradient><linearGradient x1="190.64793" y1="185.71088" x2="190.64793" y2="203.14651" gradientUnits="userSpaceOnUse" id="color-40"><stop offset="0" stop-color="#fdfdfd"/><stop offset="1" stop-color="#f0f0f0"/></linearGradient><linearGradient x1="214.38828" y1="181.97259" x2="214.38828" y2="198.02595" gradientUnits="userSpaceOnUse" id="color-41"><stop offset="0" stop-color="#fdfdfd"/><stop offset="1" stop-color="#f0f0f0"/></linearGradient><linearGradient x1="227.71404" y1="181.97259" x2="227.71404" y2="198.02595" gradientUnits="userSpaceOnUse" id="color-42"><stop offset="0" stop-color="#fdfdfd"/><stop offset="1" stop-color="#f0f0f0"/></linearGradient><linearGradient x1="243.31075" y1="185.71088" x2="243.31075" y2="198.02595" gradientUnits="userSpaceOnUse" id="color-43"><stop offset="0" stop-color="#fdfdfd"/><stop offset="1" stop-color="#f0f0f0"/></linearGradient><linearGradient x1="263.89257" y1="185.69857" x2="263.89257" y2="198.02595" gradientUnits="userSpaceOnUse" id="color-44"><stop offset="0" stop-color="#fdfdfd"/><stop offset="1" stop-color="#f0f0f0"/></linearGradient><linearGradient x1="278.97934" y1="185.71088" x2="278.97934" y2="198.02595" gradientUnits="userSpaceOnUse" id="color-45"><stop offset="0" stop-color="#fdfdfd"/><stop offset="1" stop-color="#f0f0f0"/></linearGradient><linearGradient x1="292.76466" y1="185.69857" x2="292.76466" y2="198.02595" gradientUnits="userSpaceOnUse" id="color-46"><stop offset="0" stop-color="#fdfdfd"/><stop offset="1" stop-color="#f0f0f0"/></linearGradient><linearGradient x1="305.59797" y1="185.71088" x2="305.59797" y2="198.02595" gradientUnits="userSpaceOnUse" id="color-47"><stop offset="0" stop-color="#fdfdfd"/><stop offset="1" stop-color="#f0f0f0"/></linearGradient><linearGradient x1="319.91092" y1="185.71088" x2="319.91092" y2="198.02595" gradientUnits="userSpaceOnUse" id="color-48"><stop offset="0" stop-color="#fdfdfd"/><stop offset="1" stop-color="#f0f0f0"/></linearGradient><linearGradient x1="334.22382" y1="185.69857" x2="334.22382" y2="198.02595" gradientUnits="userSpaceOnUse" id="color-49"><stop offset="0" stop-color="#fdfdfd"/><stop offset="1" stop-color="#f0f0f0"/></linearGradient></defs><g transform="translate(-95.18674,-140.26476)"><g data-paper-data="{&quot;isPaintingLayer&quot;:true}" fill-rule="nonzero" stroke-linejoin="miter" stroke-miterlimit="10" stroke-dasharray="" stroke-dashoffset="0" style="mix-blend-mode: normal"><path d="M372.19221,207.61464h-264.3844v-55.22928h264.3844z" data-paper-data="{&quot;index&quot;:null}" fill="url(#color-1)" stroke="none" stroke-width="0" stroke-linecap="butt"/><path d="M323.29098,169.64516c0,-15.34891 12.44275,-27.79167 27.79167,-27.79167c15.34891,0 27.79167,12.44275 27.79167,27.79167c0,15.34891 -12.44275,27.79167 -27.79167,27.79167c-15.34891,0 -27.79167,-12.44275 -27.79167,-27.79167z" fill="url(#color-2)" stroke="none" stroke-width="11" stroke-linecap="butt"/><g stroke="#a2a2a2" stroke-width="3.5" stroke-linecap="butt"><path d="M324.60029,161.23036c3.6037,0.2992 5.4122,0.5389 5.4122,0.7069l1.5922,14.0933c0,0.1079 -1.5922,0.3709 -4.7777,0.7902l-0.0717,-0.1557v-1.2813c-2.7417,0.7424 -4.6336,1.2212 -5.6519,1.437c-2.4303,-3.4369 -3.6999,-5.2564 -3.8195,-5.4839c1.7841,-3.245 2.7423,-4.8978 2.8618,-4.9334l5.0174,0.2391c-0.1079,-0.6106 -0.3114,-2.4186 -0.6351,-5.4122zM131.03938,165.09826c-0.7185,3.2805 -1.1734,4.9211 -1.3653,4.9211c-0.0356,0 -0.9938,0.8025 -2.8735,2.4186c-1.1618,-0.0595 -2.5026,-0.1312 -3.9997,-0.2275l-0.1551,4.3112c-0.3237,0.0956 -1.7368,0.1912 -4.2394,0.2991c-0.2992,0 -0.4549,-0.8619 -0.4549,-2.5743c-0.5505,-7.1006 -0.8258,-10.9323 -0.8258,-11.4951c0.9337,-0.2035 3.8317,-0.7068 8.6928,-1.5087zM199.8181,161.39836c0,0.4549 0.1079,2.215 0.3114,5.2804c2.8618,-0.9098 4.4546,-1.3892 4.8016,-1.4371l4.3111,4.6343c-1.8085,4.0591 -2.8023,6.214 -2.958,6.466c-0.5028,-0.0601 -2.3346,-0.1318 -5.5079,-0.2397v0.5628c0,0.1079 -0.0601,0.1557 -0.168,0.1557h-4.6336c-0.1679,0 -0.491,-2.3946 -0.9582,-7.1846c-0.1073,-0.407 -0.3948,-2.8017 -0.8736,-7.1962c2.7177,-0.6345 4.5741,-1.0416 5.5918,-1.1973zM232.8786,162.17636l-0.5027,3.9997c1.0416,-0.0601 1.8079,-0.084 2.299,-0.084h0.7663l0.1674,-0.084l0.084,0.168c-0.1674,2.4302 -0.3114,3.7955 -0.431,4.0947l-0.168,-0.0957c-0.1195,0 -1.1973,-0.0601 -3.2327,-0.1673c-0.1079,1.8796 -0.1913,4.1186 -0.2514,6.729l-0.1679,0.084c-2.5743,-0.1679 -4.107,-0.3114 -4.5981,-0.431l0.084,-0.3353c0,-0.6946 0.1079,-2.8502 0.3354,-6.4661c-2.1556,-0.1195 -3.2328,-0.2636 -3.2328,-0.431c0.1073,-2.6705 0.2514,-3.9997 0.431,-3.9997l3.1488,0.599v-1.0299c0,-0.8381 -0.0356,-1.9754 -0.0957,-3.4008c0.0601,0 0.0957,-0.0239 0.0957,-0.0833zM242.9967,167.80436c3.0777,-0.946 4.7176,-1.4131 4.9212,-1.4131l3.0537,2.0838c-0.4911,4.5496 -0.8142,7.2079 -0.9699,7.9742l-4.2388,0.1441c0,-0.0478 -0.0239,-0.0717 -0.084,-0.0717l0.084,-0.2998c0,-0.6462 0.0957,-2.6105 0.2876,-5.891c-1.1618,-0.0479 -2.0361,-0.0718 -2.5989,-0.0718h-0.2991c0.347,3.6521 0.5149,5.6397 0.5149,5.9628l-4.0235,0.5989c-0.1558,-0.5149 -1.0417,-5.2804 -2.6822,-14.3091c0,-0.2513 0.6228,-0.4549 1.868,-0.5989c1.5688,-0.4427 2.7423,-0.6701 3.4963,-0.6701c0.0479,0.0717 0.2759,2.2628 0.6707,6.5617zM122.5735,169.63616c1.9636,-0.347 2.9458,-0.5505 2.9458,-0.6106l0.6823,-2.9458c-0.9699,-0.3948 -2.1788,-0.8736 -3.6281,-1.4364zM143.9114,166.58306c-1.2929,2.6939 -1.9875,4.0592 -2.0832,4.107h-0.084l-1.7123,-1.4971l-2.0237,2.467l0.2274,4.4901c-0.1079,0.0957 -1.4248,0.3231 -3.9635,0.6707c-0.0956,-0.6823 -0.7185,-4.0475 -1.868,-10.0942c0,-0.0956 1.6645,-0.347 5.0057,-0.7424c0.0595,0.0601 0.2035,0.8141 0.4549,2.2389c1.9992,-2.2389 3.0415,-3.3645 3.1371,-3.3645c1.5805,0.8859 2.5504,1.4609 2.9096,1.7245zM172.21819,167.39726c-0.8264,1.8441 -1.3052,2.7656 -1.4248,2.7656l-4.3589,-2.5265h-0.1557c0,0.084 -0.1913,0.5272 -0.5628,1.3414c4.0113,2.1672 6.0234,3.2689 6.0234,3.329c-1.1256,2.5982 -1.7601,3.9751 -1.9042,4.1186l-6.8131,0.3954c-2.6466,-1.7601 -4.0714,-2.6822 -4.2749,-2.7778v-0.0723c0,-0.2036 0.3954,-1.1011 1.1856,-2.6939l5.3166,2.7662l0.3948,-1.5811c-3.2928,-1.4726 -5.2442,-2.3947 -5.8671,-2.7656v-0.168c0,-0.2991 0.6346,-1.6522 1.9036,-4.0352l6.7297,-0.6345c2.299,1.4726 3.5681,2.3113 3.8078,2.5387zM186.8743,167.39726c-0.8264,1.8441 -1.3052,2.7656 -1.4248,2.7656l-4.3583,-2.5265h-0.1557c0,0.084 -0.1919,0.5272 -0.5628,1.3414c4.0113,2.1672 6.0228,3.2689 6.0228,3.329c-1.1256,2.5982 -1.7601,3.9751 -1.9042,4.1186l-6.8131,0.3954c-2.646,-1.7601 -4.0708,-2.6822 -4.2749,-2.7778v-0.0723c0,-0.2036 0.3954,-1.1011 1.1856,-2.6939l5.3166,2.7662l0.3948,-1.5811c-3.2928,-1.4726 -5.2442,-2.3947 -5.8671,-2.7656v-0.168c0,-0.2991 0.6346,-1.6522 1.9042,-4.0352l6.7291,-0.6345c2.299,1.4726 3.5687,2.3113 3.8078,2.5387zM297.52637,166.06816c1.8681,1.6044 2.8024,2.4664 2.8024,2.5743c-0.7547,2.3707 -1.1857,3.8077 -1.2936,4.3227c0.7547,1.6884 1.1857,2.6939 1.2936,3.0176c0,0.0956 -1.2335,0.347 -3.7122,0.7663c-0.0361,-0.1318 -0.2636,-0.4432 -0.6823,-0.9104c-3.413,0.659 -5.2565,0.9821 -5.5201,0.9821l-1.8202,-4.9211l4.0113,-2.12c0.6468,0.1079 1.6522,0.1557 3.0292,0.1557c0,-0.1796 0.0245,-0.7062 0.0723,-1.5921c-0.2274,0 -2.299,0.1557 -6.203,0.4549l-0.0717,-0.1557c0.5388,-2.5265 0.8742,-3.7839 0.9821,-3.7839c4.7415,0.6584 7.1122,1.0538 7.1122,1.2096zM316.09817,167.60076c-0.2752,4.5503 -0.4788,7.2085 -0.5867,7.9749c-0.4665,0.0595 -1.868,0.1434 -4.2265,0.2513l-0.084,-0.1679l-0.4187,-6.3938l-0.168,-0.084c-1.5204,0.3231 -2.5743,0.5745 -3.1493,0.7425c0.1557,2.7177 0.2397,4.6937 0.2397,5.9032c-2.383,0.6585 -3.676,0.9938 -3.9035,0.9938c-1.5449,-6.813 -2.3229,-10.4173 -2.3229,-10.8005c3.3645,-0.4432 5.1964,-0.659 5.4839,-0.659v0.084c0.0601,0.0362 0.1435,0.8742 0.2514,2.4909c3.0893,-2.0477 4.7182,-3.0776 4.8972,-3.0776zM157.65769,168.12746c-0.5149,2.4308 -0.8264,3.676 -0.922,3.7477h-7.5678v0.1318l2.1194,2.6227l3.329,-1.7006c0.3231,0.5628 0.8025,1.5565 1.4131,2.9697c-0.2875,0.0956 -2.383,0.4071 -6.2864,0.922c-3.2334,-2.1316 -4.8617,-3.245 -4.8856,-3.3289c0.515,-4.1432 0.8264,-6.2148 0.9221,-6.2148c3.3768,-1.4364 5.3282,-2.2389 5.8671,-2.4063c3.6165,1.8558 5.6157,2.9452 6.0111,3.2567zM215.3006,164.87076c3.0298,0.8142 4.6459,1.3053 4.8255,1.4849c1.6645,2.3585 2.6105,3.7238 2.814,4.0831c-1.0778,3.4123 -1.7001,5.1246 -1.8558,5.1246c-3.592,0.8381 -5.4723,1.2574 -5.6396,1.2574c-2.9697,-1.7362 -4.5502,-2.6944 -4.7421,-2.898c-0.1073,-3.221 -0.1558,-5.0051 -0.1558,-5.3404c-0.0478,-0.0957 -0.0717,-0.1674 -0.0717,-0.2152c3.0654,-2.3352 4.6459,-3.4964 4.7538,-3.4964zM149.5989,169.67236c0,0.3354 0.4672,0.5027 1.4131,0.5027c0,0.0479 0.6824,0.1674 2.0477,0.347c0.3709,-0.5143 0.5628,-0.8258 0.5628,-0.9098c-0.1196,-0.7062 -0.3832,-1.0655 -0.7786,-1.0655l-1.9753,-0.7786c-0.0601,0.1557 -0.4911,0.7903 -1.2697,1.9042zM215.0732,169.25306c-0.0479,0.3231 -0.1196,1.4848 -0.2152,3.4847l2.6699,0.5983c0.6345,-1.9992 0.9582,-3.0653 0.9582,-3.1971c-2.1194,-0.6346 -3.2572,-0.9577 -3.4129,-0.9577zM200.53659,170.03166l0.3114,2.9574h2.407l0.8742,-3.3529c-2.3953,0.2036 -3.5926,0.3354 -3.5926,0.3955zM322.30127,169.81586c0.8019,2.467 1.3046,3.82 1.5088,4.0591l2.3824,-2.0715c-0.2514,-1.4248 -0.431,-2.1433 -0.5506,-2.1433h-3.1855c-0.1073,0.0122 -0.1551,0.0717 -0.1551,0.1557zM293.67078,174.70136h0.0724c1.0054,-0.6584 1.5081,-1.09 1.5081,-1.2935l0.1558,-1.2807c-0.1913,0 -1.0294,-0.0724 -2.5026,-0.2275c0,0.0834 0.252,1.0177 0.7663,2.8017z" data-paper-data="{&quot;origPos&quot;:null}" fill="url(#color-3)"/><g data-paper-data="{&quot;origPos&quot;:null}"><path d="M135.95029,185.71088c3.12494,0.83944 4.78254,1.34981 4.97169,1.53001c1.71916,2.43548 2.68619,3.8379 2.89997,4.20837c-1.11029,3.52003 -1.74826,5.28061 -1.91279,5.28061c-3.70135,0.86406 -5.63877,1.29609 -5.81114,1.29609c-3.06002,-1.7852 -4.68853,-2.78021 -4.88663,-2.98615c-0.10633,-3.32304 -0.16005,-5.15749 -0.16005,-5.50334c-0.04925,-0.09849 -0.07387,-0.17236 -0.07387,-0.22161c3.15852,-2.40303 4.7915,-3.60398 4.89782,-3.60398c0,0 0.07388,0 0.07499,0zM135.71526,190.22704c-0.04925,0.32906 -0.12312,1.52665 -0.22161,3.59055c0.91667,0.20594 1.83444,0.41188 2.75111,0.61782c0.65812,-2.05718 0.98717,-3.15516 0.98717,-3.29506c-2.18813,-0.65812 -3.35997,-0.98717 -3.51667,-0.98717z" fill="url(#color-4)"/><path d="M153.80453,185.69857c1.62851,0.91331 2.628,1.50539 2.99847,1.77736c-1.33302,2.77238 -2.04822,4.18263 -2.14784,4.23187c-0.02798,0 -0.05708,0 -0.08618,0l-1.76394,-1.54232c-0.29772,0.36376 -1.78744,2.17917 -2.08516,2.54181c-0.25855,-5.08922 0.49135,9.7173 0.23392,4.62697c-0.10633,0.09961 -1.46845,0.32906 -4.08413,0.6917c-0.09849,-0.70736 -0.73982,-4.17479 -1.92511,-10.40229c0,-0.09849 1.71916,-0.35368 5.15749,-0.76444c0.0582,0.06492 0.21378,0.83496 0.46897,2.30677c2.05718,-2.31125 3.13389,-3.46743 3.2335,-3.46743z" fill="url(#color-5)"/><path d="M167.73469,181.97259l5.42946,0.96255l-0.51821,4.12107c1.07784,-0.05708 1.8669,-0.08618 2.36833,-0.08618c0.26414,0 0.52717,0 0.79019,0l0.17236,-0.08618l0.08731,0.17237c-0.17348,2.5004 -0.32122,3.90729 -0.44434,4.21956l-0.17348,-0.09849c-0.12312,0 -1.23341,-0.05708 -3.33088,-0.17237c-0.11528,1.93294 -0.20146,4.24418 -0.25967,6.93486l-0.17237,0.08618c-2.64926,-0.17348 -4.22852,-0.32122 -4.73777,-0.44434l0.08618,-0.34584c0,-0.7152 0.11529,-2.9369 0.34473,-6.66288c-2.22058,-0.12312 -3.33088,-0.27198 -3.33088,-0.44434c0.11528,-2.74775 0.26302,-4.12107 0.44434,-4.12107l3.2447,0.6167c0,-0.35368 0,-0.70736 0,-1.06104c0,-0.86406 -0.03246,-2.03143 -0.09849,-3.50436c0.06603,0 0.09849,-0.02798 0.09849,-0.08618z" fill="url(#color-6)"/><path d="M179.24727,185.69857c4.88552,0.6749 7.32883,1.09014 7.32883,1.24684c1.92511,1.65313 2.88766,2.53733 2.88766,2.65261c-0.78124,2.44332 -1.22557,3.92744 -1.33302,4.45461c0.78235,1.73595 1.22557,2.77238 1.33302,3.10927c0,0.09849 -1.27483,0.36151 -3.82559,0.79019c-0.03246,-0.1399 -0.26638,-0.45329 -0.70289,-0.93793c-3.52115,0.67379 -5.41716,1.0118 -5.68802,1.0118l-1.87586,-5.07131l4.13338,-2.18477c0.66707,0.10745 1.70685,0.16118 3.12158,0.16118c0,-0.18132 0.02462,-0.72863 0.07499,-1.64194c-0.23952,0 -2.36944,0.1567 -6.39202,0.46897l-0.07387,-0.16005c0.55962,-2.59889 0.89652,-3.89945 1.0118,-3.89945zM181.81371,192.95464c0,0.09066 0.26302,1.05209 0.78907,2.88654c0.02462,0 0.05036,0 0.07499,0c1.03642,-0.67379 1.55463,-1.11813 1.55463,-1.3319c0.0056,-0.04477 0.15446,-1.27706 0.16005,-1.32071c-0.19699,0 -1.05769,-0.07835 -2.57874,-0.23392z" fill="url(#color-7)"/><path d="M196.84184,185.71088c0.25519,1.05321 0.43203,1.70349 0.53052,1.94972c3.63644,-0.83048 5.55706,-1.24572 5.763,-1.24572c2.47577,3.56144 3.71366,5.42052 3.71366,5.57721l-2.83729,6.02155l-6.10773,-0.97486c0,0.06156 0,0.12312 0,0.18468c0.4768,3.66106 0.7152,5.6063 0.7152,5.83687c-0.0582,0 -0.08618,0.02798 -0.08618,0.08618c-0.59208,-0.0582 -1.03642,-0.08618 -1.33302,-0.08618h-1.06104c-0.61671,0 -1.56247,-0.0291 -2.83841,-0.0873c-0.11416,-0.34473 -0.99949,-5.59736 -2.65261,-15.75676c0.27981,-0.11528 2.34482,-0.6167 6.19391,-1.50539zM197.28618,190.75756c0.16453,1.89265 0.31339,2.83841 0.44434,2.83841c1.68671,0.58425 2.71865,0.87637 3.09696,0.87637l0.97486,-4.2453c-0.02798,0 -0.05708,0 -0.08618,0c-0.96255,0.0582 -2.43884,0.23504 -4.42998,0.53052z" fill="url(#color-8)"/><path d="M218.07732,181.97259l5.42947,0.96255c-0.03022,0.23952 -0.48799,3.88156 -0.51821,4.12107c1.07784,-0.05708 1.8669,-0.08618 2.36945,-0.08618c0.26302,0 0.52605,0 0.78907,0l0.17348,-0.08618c0.02798,0.05708 0.05708,0.11529 0.08618,0.17237c-0.17348,2.5004 -0.32122,3.90729 -0.44434,4.21956l-0.17237,-0.09849c-0.12424,0 -1.23453,-0.05708 -3.332,-0.17237c-0.11528,1.93294 -0.20146,4.24418 -0.25967,6.93486c-0.05708,0.02798 -0.11416,0.05708 -0.17236,0.08618c-2.64814,-0.17348 -4.22852,-0.32122 -4.73777,-0.44434l0.08618,-0.34584c0,-0.7152 0.11528,-2.9369 0.34584,-6.66288c-2.22171,-0.12312 -3.332,-0.27198 -3.332,-0.44434c0.11528,-2.74775 0.26302,-4.12107 0.44434,-4.12107l3.2447,0.6167c0,-0.35368 0,-0.70736 0,-1.06104c0,-0.86406 -0.03246,-2.03143 -0.09849,-3.50436c0.06603,0 0.09849,-0.02798 0.09849,-0.08618z" fill="url(#color-9)"/><path d="M233.24199,181.97259c0.04925,0.07387 0.27981,2.32804 0.69169,6.76137c3.17419,-0.97039 4.86537,-1.45502 5.07131,-1.45502l3.1462,2.14672c-0.51038,4.68853 -0.84391,7.42732 -0.99949,8.21751l-4.36843,0.14774c0,-0.04925 -0.0291,-0.07387 -0.08618,-0.07387l0.08618,-0.30891c0,-0.66595 0.09849,-2.68955 0.2966,-6.0708c-1.20095,-0.04925 -2.09411,-0.07387 -2.67836,-0.07387c-0.10185,0 -0.20483,0 -0.3078,0c0.35368,3.75955 0.53052,5.80777 0.53052,6.14467l-4.1457,0.61782c-0.1567,-0.52717 -1.07783,-5.44178 -2.76454,-14.74496c0,-0.26414 0.64245,-0.46896 1.92511,-0.61782c1.62067,-0.46001 2.82162,-0.69058 3.60286,-0.69058z" fill="url(#color-10)"/><path d="M250.30716,185.71088c3.72598,1.91727 5.79099,3.0354 6.19391,3.35662c-0.535,2.5004 -0.85174,3.78753 -0.95024,3.86252c-2.59889,0 -5.1989,0 -7.7978,0c0,0.04477 0,0.08954 0,0.13543l2.18365,2.70186c1.14387,-0.58425 2.28662,-1.16737 3.43049,-1.75162c0.33689,0.58425 0.82265,1.60388 1.45614,3.06002c-0.2966,0.09849 -2.45563,0.41524 -6.4782,0.95024c-3.332,-2.19708 -5.00975,-3.33984 -5.03437,-3.43049c0.535,-4.26881 0.85175,-6.40433 0.95024,-6.40433c3.47974,-1.48076 5.49438,-2.30677 6.04617,-2.48025zM249.50466,188.69703c-0.06603,0.16453 -0.50142,0.81929 -1.30728,1.96204c0,0.34585 0.48464,0.51821 1.45502,0.51821c0,0.04925 0.70401,0.16901 2.1109,0.35816c0.38614,-0.535 0.57977,-0.84727 0.57977,-0.93793c-0.12312,-0.73199 -0.39062,-1.09799 -0.8025,-1.09799c-0.67826,-0.2675 -1.35653,-0.53499 -2.03591,-0.8025z" fill="url(#color-11)"/><path d="M273.84941,185.69857c2.36945,1.51434 3.67673,2.38623 3.92408,2.6168c-0.85511,1.89936 -1.34533,2.8496 -1.46845,2.8496c-1.49756,-0.86742 -2.99399,-1.73595 -4.49154,-2.60337c-0.05372,0 -0.10633,0 -0.16005,0c0,0.08283 -0.19363,0.54283 -0.57977,1.38227c4.13674,2.22842 6.20623,3.37229 6.20623,3.43049c-1.15954,2.6806 -1.8143,4.09644 -1.96204,4.24418l-7.02103,0.40741c-2.73097,-1.80982 -4.19942,-2.76454 -4.40424,-2.86303c0,-0.02462 0,-0.04925 0,-0.07387c0,-0.20594 0.40628,-1.13156 1.2211,-2.77686c1.82661,0.95024 3.6521,1.90049 5.47871,2.85073l0.40741,-1.62851c-3.38908,-1.52218 -5.40484,-2.47242 -6.04617,-2.85072c0,-0.05708 0,-0.11529 0,-0.17237c0,-0.31227 0.65364,-1.69902 1.96092,-4.15801z" fill="url(#color-12)"/><path d="M283.84425,185.71088c3.70918,0.69953 5.65108,1.0991 5.82344,1.19759c0,0.04925 0,0.09849 0,0.14774c-0.79802,2.25416 -1.19647,3.42154 -1.19647,3.50436c-0.02462,0 -0.04925,0 -0.07387,0c-0.20594,0 -1.20095,-0.32122 -2.98615,-0.96256c-0.99501,1.66992 -1.49308,2.56196 -1.49308,2.67724c0.82265,0.79802 1.64529,1.59604 2.46794,2.39407c1.90831,-1.79303 2.87871,-2.68955 2.91229,-2.68955c1.4886,1.94973 2.2329,3.04324 2.2329,3.28163c-0.81481,0.46897 -2.2329,1.3901 -4.2565,2.76454c-3.91625,-0.84727 -6.0305,-1.32071 -6.34277,-1.4192c0.22833,0.73759 -2.16463,-7.00537 -1.93742,-6.26778c1.61731,-1.54344 3.2335,-3.08576 4.8497,-4.62809z" fill="url(#color-13)"/><path d="M301.62462,185.69857c1.62851,0.91331 2.62799,1.50539 2.99846,1.77736c-1.33302,2.77238 -2.04822,4.18263 -2.14671,4.23187c-0.0291,0 -0.05821,0 -0.08731,0l-1.76393,-1.54232c-0.69505,0.84727 -1.39011,1.69454 -2.08516,2.54181c0.07835,1.54232 0.15558,3.08465 0.23392,4.62697c-0.10633,0.09961 -1.46846,0.32906 -4.08414,0.6917c-0.09849,-0.70736 -0.73982,-4.17479 -1.92511,-10.40229c0,-0.09849 1.71916,-0.35368 5.15861,-0.76444c0.05708,0.06492 0.21378,0.83496 0.46785,2.30677c2.05718,-2.31125 3.13501,-3.46743 3.2335,-3.46743z" fill="url(#color-14)"/><path d="M312.59326,185.71088c3.72709,1.91727 5.7921,3.0354 6.19503,3.35662c-0.535,2.5004 -0.85174,3.78753 -0.95024,3.86252c-2.60001,0 -5.19891,0 -7.79892,0c0,0.04477 0,0.08954 0,0.13543c0.72863,0.901 1.45614,1.80087 2.18477,2.70186c1.14275,-0.58425 2.28662,-1.16737 3.42938,-1.75162c0.33801,0.58425 0.82265,1.60388 1.45614,3.06002c-0.29548,0.09849 -2.45451,0.41524 -6.47709,0.95024c-3.332,-2.19708 -5.00975,-3.33984 -5.03437,-3.43049c0.53388,-4.26881 0.85063,-6.40433 0.95024,-6.40433c3.47862,-1.48076 5.49439,-2.30677 6.04506,-2.48025zM311.79188,188.69703c-0.06603,0.16453 -0.50143,0.81929 -1.3084,1.96204c0,0.34585 0.48575,0.51821 1.45614,0.51821c0,0.04925 0.70401,0.16901 2.10978,0.35816c0.38726,-0.535 0.57977,-0.84727 0.57977,-0.93793c-0.12312,-0.73199 -0.39062,-1.09799 -0.80138,-1.09799c-0.67826,-0.2675 -1.35765,-0.53499 -2.03591,-0.8025z" fill="url(#color-15)"/><path d="M326.90729,185.71088c3.72598,1.91727 5.79099,3.0354 6.19391,3.35662c-0.535,2.5004 -0.85174,3.78753 -0.95024,3.86252c-2.59889,0 -5.1989,0 -7.7978,0c0,0.04477 0,0.08954 0,0.13543c2.18365,2.70186 0,0 2.18365,2.70186c1.14387,-0.58425 2.28662,-1.16737 3.43049,-1.75162c0.33689,0.58425 0.82265,1.60388 1.45614,3.06002c-0.2966,0.09849 -2.45563,0.41524 -6.4782,0.95024c-3.332,-2.19708 -5.00975,-3.33984 -5.03437,-3.43049c0.535,-4.26881 0.85174,-6.40433 0.95024,-6.40433c3.47974,-1.48076 5.49438,-2.30677 6.04617,-2.48025zM326.10481,188.69703c-0.06603,0.16453 -0.50142,0.81929 -1.30728,1.96204c0,0.34585 0.48463,0.51821 1.45502,0.51821c0,0.04925 0.70401,0.16901 2.1109,0.35816c0.38614,-0.535 0.57977,-0.84727 0.57977,-0.93793c-0.12424,-0.73199 -0.39062,-1.09799 -0.8025,-1.09799z" fill="url(#color-16)"/><path d="M345.18128,185.69857l4.10875,2.8261c-0.28765,4.68853 -0.49023,7.42845 -0.60439,8.21751c-0.47792,0.0582 -1.92959,0.14438 -4.35611,0.25967c-0.0291,-0.0582 -0.0582,-0.11528 -0.08618,-0.17348c-0.14438,-2.19597 -0.28764,-4.39193 -0.43203,-6.58901c-0.05708,-0.02798 -0.11529,-0.05708 -0.17237,-0.08618c-1.57142,0.33689 -2.65373,0.59208 -3.24582,0.76557c0.16453,2.80484 0.24735,4.83291 0.24735,6.08311c-2.45115,0.68274 -3.79201,1.02411 -4.02258,1.02411c-1.59604,-7.02551 -2.39407,-10.7347 -2.39407,-11.12979c3.4719,-0.45217 5.3556,-0.67938 5.65108,-0.67938c0,0.0291 0,0.05821 0,0.08731c0.0582,0.04029 0.14438,0.89652 0.25967,2.56643c3.18314,-2.11426 4.86537,-3.17195 5.04669,-3.17195z" fill="url(#color-17)"/></g></g><path d="M324.60029,161.23036c3.6037,0.2992 5.4122,0.5389 5.4122,0.7069l1.5922,14.0933c0,0.1079 -1.5922,0.3709 -4.7777,0.7902l-0.0717,-0.1557v-1.2813c-2.7417,0.7424 -4.6336,1.2212 -5.6519,1.437c-2.4303,-3.4369 -3.6999,-5.2564 -3.8195,-5.4839c1.7841,-3.245 2.7423,-4.8978 2.8618,-4.9334l5.0174,0.2391c-0.1079,-0.6106 -0.3114,-2.4186 -0.6351,-5.4122zM131.03938,165.09826c-0.7185,3.2805 -1.1734,4.9211 -1.3653,4.9211c-0.0356,0 -0.9938,0.8025 -2.8735,2.4186c-1.1618,-0.0595 -2.5026,-0.1312 -3.9997,-0.2275l-0.1551,4.3112c-0.3237,0.0956 -1.7368,0.1912 -4.2394,0.2991c-0.2992,0 -0.4549,-0.8619 -0.4549,-2.5743c-0.5505,-7.1006 -0.8258,-10.9323 -0.8258,-11.4951c0.9337,-0.2035 3.8317,-0.7068 8.6928,-1.5087zM199.8181,161.39836c0,0.4549 0.1079,2.215 0.3114,5.2804c2.8618,-0.9098 4.4546,-1.3892 4.8016,-1.4371l4.3111,4.6343c-1.8085,4.0591 -2.8023,6.214 -2.958,6.466c-0.5028,-0.0601 -2.3346,-0.1318 -5.5079,-0.2397v0.5628c0,0.1079 -0.0601,0.1557 -0.168,0.1557h-4.6336c-0.1679,0 -0.491,-2.3946 -0.9582,-7.1846c-0.1073,-0.407 -0.3948,-2.8017 -0.8736,-7.1962c2.7177,-0.6345 4.5741,-1.0416 5.5918,-1.1973zM232.8786,162.17636l-0.5027,3.9997c1.0416,-0.0601 1.8079,-0.084 2.299,-0.084h0.7663l0.1674,-0.084l0.084,0.168c-0.1674,2.4302 -0.3114,3.7955 -0.431,4.0947l-0.168,-0.0957c-0.1195,0 -1.1973,-0.0601 -3.2327,-0.1673c-0.1079,1.8796 -0.1913,4.1186 -0.2514,6.729l-0.1679,0.084c-2.5743,-0.1679 -4.107,-0.3114 -4.5981,-0.431l0.084,-0.3353c0,-0.6946 0.1079,-2.8502 0.3354,-6.4661c-2.1556,-0.1195 -3.2328,-0.2636 -3.2328,-0.431c0.1073,-2.6705 0.2514,-3.9997 0.431,-3.9997l3.1488,0.599v-1.0299c0,-0.8381 -0.0356,-1.9754 -0.0957,-3.4008c0.0601,0 0.0957,-0.0239 0.0957,-0.0833zM242.9967,167.80436c3.0777,-0.946 4.7176,-1.4131 4.9212,-1.4131l3.0537,2.0838c-0.4911,4.5496 -0.8142,7.2079 -0.9699,7.9742l-4.2388,0.1441c0,-0.0478 -0.0239,-0.0717 -0.084,-0.0717l0.084,-0.2998c0,-0.6462 0.0957,-2.6105 0.2876,-5.891c-1.1618,-0.0479 -2.0361,-0.0718 -2.5989,-0.0718h-0.2991c0.347,3.6521 0.5149,5.6397 0.5149,5.9628l-4.0235,0.5989c-0.1558,-0.5149 -1.0417,-5.2804 -2.6822,-14.3091c0,-0.2513 0.6228,-0.4549 1.868,-0.5989c1.5688,-0.4427 2.7423,-0.6701 3.4963,-0.6701c0.0479,0.0717 0.2759,2.2628 0.6707,6.5617zM122.5735,169.63616c1.9636,-0.347 2.9458,-0.5505 2.9458,-0.6106l0.6823,-2.9458c-0.9699,-0.3948 -2.1788,-0.8736 -3.6281,-1.4364zM143.9114,166.58306c-1.2929,2.6939 -1.9875,4.0592 -2.0832,4.107h-0.084l-1.7123,-1.4971l-2.0237,2.467l0.2274,4.4901c-0.1079,0.0957 -1.4248,0.3231 -3.9635,0.6707c-0.0956,-0.6823 -0.7185,-4.0475 -1.868,-10.0942c0,-0.0956 1.6645,-0.347 5.0057,-0.7424c0.0595,0.0601 0.2035,0.8141 0.4549,2.2389c1.9992,-2.2389 3.0415,-3.3645 3.1371,-3.3645c1.5805,0.8859 2.5504,1.4609 2.9096,1.7245zM172.21819,167.39726c-0.8264,1.8441 -1.3052,2.7656 -1.4248,2.7656l-4.3589,-2.5265h-0.1557c0,0.084 -0.1913,0.5272 -0.5628,1.3414c4.0113,2.1672 6.0234,3.2689 6.0234,3.329c-1.1256,2.5982 -1.7601,3.9751 -1.9042,4.1186l-6.8131,0.3954c-2.6466,-1.7601 -4.0714,-2.6822 -4.2749,-2.7778v-0.0723c0,-0.2036 0.3954,-1.1011 1.1856,-2.6939l5.3166,2.7662l0.3948,-1.5811c-3.2928,-1.4726 -5.2442,-2.3947 -5.8671,-2.7656v-0.168c0,-0.2991 0.6346,-1.6522 1.9036,-4.0352l6.7297,-0.6345c2.299,1.4726 3.5681,2.3113 3.8078,2.5387zM186.8743,167.39726c-0.8264,1.8441 -1.3052,2.7656 -1.4248,2.7656l-4.3583,-2.5265h-0.1557c0,0.084 -0.1919,0.5272 -0.5628,1.3414c4.0113,2.1672 6.0228,3.2689 6.0228,3.329c-1.1256,2.5982 -1.7601,3.9751 -1.9042,4.1186l-6.8131,0.3954c-2.646,-1.7601 -4.0708,-2.6822 -4.2749,-2.7778v-0.0723c0,-0.2036 0.3954,-1.1011 1.1856,-2.6939l5.3166,2.7662l0.3948,-1.5811c-3.2928,-1.4726 -5.2442,-2.3947 -5.8671,-2.7656v-0.168c0,-0.2991 0.6346,-1.6522 1.9042,-4.0352l6.7291,-0.6345c2.299,1.4726 3.5687,2.3113 3.8078,2.5387zM297.52637,166.06816c1.8681,1.6044 2.8024,2.4664 2.8024,2.5743c-0.7547,2.3707 -1.1857,3.8077 -1.2936,4.3227c0.7547,1.6884 1.1857,2.6939 1.2936,3.0176c0,0.0956 -1.2335,0.347 -3.7122,0.7663c-0.0361,-0.1318 -0.2636,-0.4432 -0.6823,-0.9104c-3.413,0.659 -5.2565,0.9821 -5.5201,0.9821l-1.8202,-4.9211l4.0113,-2.12c0.6468,0.1079 1.6522,0.1557 3.0292,0.1557c0,-0.1796 0.0245,-0.7062 0.0723,-1.5921c-0.2274,0 -2.299,0.1557 -6.203,0.4549l-0.0717,-0.1557c0.5388,-2.5265 0.8742,-3.7839 0.9821,-3.7839c4.7415,0.6584 7.1122,1.0538 7.1122,1.2096zM316.09817,167.60076c-0.2752,4.5503 -0.4788,7.2085 -0.5867,7.9749c-0.4665,0.0595 -1.868,0.1434 -4.2265,0.2513l-0.084,-0.1679l-0.4187,-6.3938l-0.168,-0.084c-1.5204,0.3231 -2.5743,0.5745 -3.1493,0.7425c0.1557,2.7177 0.2397,4.6937 0.2397,5.9032c-2.383,0.6585 -3.676,0.9938 -3.9035,0.9938c-1.5449,-6.813 -2.3229,-10.4173 -2.3229,-10.8005c3.3645,-0.4432 5.1964,-0.659 5.4839,-0.659v0.084c0.0601,0.0362 0.1435,0.8742 0.2514,2.4909c3.0893,-2.0477 4.7182,-3.0776 4.8972,-3.0776zM157.65769,168.12746c-0.5149,2.4308 -0.8264,3.676 -0.922,3.7477h-7.5678v0.1318l2.1194,2.6227l3.329,-1.7006c0.3231,0.5628 0.8025,1.5565 1.4131,2.9697c-0.2875,0.0956 -2.383,0.4071 -6.2864,0.922c-3.2334,-2.1316 -4.8617,-3.245 -4.8856,-3.3289c0.515,-4.1432 0.8264,-6.2148 0.9221,-6.2148c3.3768,-1.4364 5.3282,-2.2389 5.8671,-2.4063c3.6165,1.8558 5.6157,2.9452 6.0111,3.2567zM215.3006,164.87076c3.0298,0.8142 4.6459,1.3053 4.8255,1.4849c1.6645,2.3585 2.6105,3.7238 2.814,4.0831c-1.0778,3.4123 -1.7001,5.1246 -1.8558,5.1246c-3.592,0.8381 -5.4723,1.2574 -5.6396,1.2574c-2.9697,-1.7362 -4.5502,-2.6944 -4.7421,-2.898c-0.1073,-3.221 -0.1558,-5.0051 -0.1558,-5.3404c-0.0478,-0.0957 -0.0717,-0.1674 -0.0717,-0.2152c3.0654,-2.3352 4.6459,-3.4964 4.7538,-3.4964zM149.5989,169.67236c0,0.3354 0.4672,0.5027 1.4131,0.5027c0,0.0479 0.6824,0.1674 2.0477,0.347c0.3709,-0.5143 0.5628,-0.8258 0.5628,-0.9098c-0.1196,-0.7062 -0.3832,-1.0655 -0.7786,-1.0655l-1.9753,-0.7786c-0.0601,0.1557 -0.4911,0.7903 -1.2697,1.9042zM215.0732,169.25306c-0.0479,0.3231 -0.1196,1.4848 -0.2152,3.4847l2.6699,0.5983c0.6345,-1.9992 0.9582,-3.0653 0.9582,-3.1971c-2.1194,-0.6346 -3.2572,-0.9577 -3.4129,-0.9577zM200.53659,170.03166l0.3114,2.9574h2.407l0.8742,-3.3529c-2.3953,0.2036 -3.5926,0.3354 -3.5926,0.3955zM322.30127,169.81586c0.8019,2.467 1.3046,3.82 1.5088,4.0591l2.3824,-2.0715c-0.2514,-1.4248 -0.431,-2.1433 -0.5506,-2.1433h-3.1855c-0.1073,0.0122 -0.1551,0.0717 -0.1551,0.1557zM293.67078,174.70136h0.0724c1.0054,-0.6584 1.5081,-1.09 1.5081,-1.2935l0.1558,-1.2807c-0.1913,0 -1.0294,-0.0724 -2.5026,-0.2275c0,0.0834 0.252,1.0177 0.7663,2.8017z" fill="url(#color-18)" stroke="#b6b6b6" stroke-width="0" stroke-linecap="butt"/><g stroke="#b6b6b6" stroke-width="0" stroke-linecap="butt"><path d="M135.95029,185.71088c3.12494,0.83944 4.78254,1.34981 4.97169,1.53001c1.71916,2.43548 2.68619,3.8379 2.89997,4.20837c-1.11029,3.52003 -1.74826,5.28061 -1.91279,5.28061c-3.70135,0.86406 -5.63877,1.29609 -5.81114,1.29609c-3.06002,-1.7852 -4.68853,-2.78021 -4.88663,-2.98615c-0.10633,-3.32304 -0.16005,-5.15749 -0.16005,-5.50334c-0.04925,-0.09849 -0.07387,-0.17236 -0.07387,-0.22161c3.15852,-2.40303 4.7915,-3.60398 4.89782,-3.60398c0,0 0.07388,0 0.07499,0zM135.71526,190.22704c-0.04925,0.32906 -0.12312,1.52665 -0.22161,3.59055c0.91667,0.20594 1.83444,0.41188 2.75111,0.61782c0.65812,-2.05718 0.98717,-3.15516 0.98717,-3.29506c-2.18813,-0.65812 -3.35997,-0.98717 -3.51667,-0.98717z" fill="url(#color-19)"/><path d="M153.80453,185.69857c1.62851,0.91331 2.628,1.50539 2.99847,1.77736c-1.33302,2.77238 -2.04822,4.18263 -2.14784,4.23187c-0.02798,0 -0.05708,0 -0.08618,0l-1.76394,-1.54232c-0.29772,0.36376 -1.78744,2.17917 -2.08516,2.54181c-0.25855,-5.08922 0.49135,9.7173 0.23392,4.62697c-0.10633,0.09961 -1.46845,0.32906 -4.08413,0.6917c-0.09849,-0.70736 -0.73982,-4.17479 -1.92511,-10.40229c0,-0.09849 1.71916,-0.35368 5.15749,-0.76444c0.0582,0.06492 0.21378,0.83496 0.46897,2.30677c2.05718,-2.31125 3.13389,-3.46743 3.2335,-3.46743z" fill="url(#color-20)"/><path d="M167.73469,181.97259l5.42946,0.96255l-0.51821,4.12107c1.07784,-0.05708 1.8669,-0.08618 2.36833,-0.08618c0.26414,0 0.52717,0 0.79019,0l0.17236,-0.08618l0.08731,0.17237c-0.17348,2.5004 -0.32122,3.90729 -0.44434,4.21956l-0.17348,-0.09849c-0.12312,0 -1.23341,-0.05708 -3.33088,-0.17237c-0.11528,1.93294 -0.20146,4.24418 -0.25967,6.93486l-0.17237,0.08618c-2.64926,-0.17348 -4.22852,-0.32122 -4.73777,-0.44434l0.08618,-0.34584c0,-0.7152 0.11529,-2.9369 0.34473,-6.66288c-2.22058,-0.12312 -3.33088,-0.27198 -3.33088,-0.44434c0.11528,-2.74775 0.26302,-4.12107 0.44434,-4.12107l3.2447,0.6167c0,-0.35368 0,-0.70736 0,-1.06104c0,-0.86406 -0.03246,-2.03143 -0.09849,-3.50436c0.06603,0 0.09849,-0.02798 0.09849,-0.08618z" fill="url(#color-21)"/><path d="M179.24727,185.69857c4.88552,0.6749 7.32883,1.09014 7.32883,1.24684c1.92511,1.65313 2.88766,2.53733 2.88766,2.65261c-0.78124,2.44332 -1.22557,3.92744 -1.33302,4.45461c0.78235,1.73595 1.22557,2.77238 1.33302,3.10927c0,0.09849 -1.27483,0.36151 -3.82559,0.79019c-0.03246,-0.1399 -0.26638,-0.45329 -0.70289,-0.93793c-3.52115,0.67379 -5.41716,1.0118 -5.68802,1.0118l-1.87586,-5.07131l4.13338,-2.18477c0.66707,0.10745 1.70685,0.16118 3.12158,0.16118c0,-0.18132 0.02462,-0.72863 0.07499,-1.64194c-0.23952,0 -2.36944,0.1567 -6.39202,0.46897l-0.07387,-0.16005c0.55962,-2.59889 0.89652,-3.89945 1.0118,-3.89945zM181.81371,192.95464c0,0.09066 0.26302,1.05209 0.78907,2.88654c0.02462,0 0.05036,0 0.07499,0c1.03642,-0.67379 1.55463,-1.11813 1.55463,-1.3319c0.0056,-0.04477 0.15446,-1.27706 0.16005,-1.32071c-0.19699,0 -1.05769,-0.07835 -2.57874,-0.23392z" fill="url(#color-22)"/><path d="M196.84184,185.71088c0.25519,1.05321 0.43203,1.70349 0.53052,1.94972c3.63644,-0.83048 5.55706,-1.24572 5.763,-1.24572c2.47577,3.56144 3.71366,5.42052 3.71366,5.57721l-2.83729,6.02155l-6.10773,-0.97486c0,0.06156 0,0.12312 0,0.18468c0.4768,3.66106 0.7152,5.6063 0.7152,5.83687c-0.0582,0 -0.08618,0.02798 -0.08618,0.08618c-0.59208,-0.0582 -1.03642,-0.08618 -1.33302,-0.08618h-1.06104c-0.61671,0 -1.56247,-0.0291 -2.83841,-0.0873c-0.11416,-0.34473 -0.99949,-5.59736 -2.65261,-15.75676c0.27981,-0.11528 2.34482,-0.6167 6.19391,-1.50539zM197.28618,190.75756c0.16453,1.89265 0.31339,2.83841 0.44434,2.83841c1.68671,0.58425 2.71865,0.87637 3.09696,0.87637l0.97486,-4.2453c-0.02798,0 -0.05708,0 -0.08618,0c-0.96255,0.0582 -2.43884,0.23504 -4.42998,0.53052z" fill="url(#color-23)"/><path d="M218.07732,181.97259l5.42947,0.96255c-0.03022,0.23952 -0.48799,3.88156 -0.51821,4.12107c1.07784,-0.05708 1.8669,-0.08618 2.36945,-0.08618c0.26302,0 0.52605,0 0.78907,0l0.17348,-0.08618c0.02798,0.05708 0.05708,0.11529 0.08618,0.17237c-0.17348,2.5004 -0.32122,3.90729 -0.44434,4.21956l-0.17237,-0.09849c-0.12424,0 -1.23453,-0.05708 -3.332,-0.17237c-0.11528,1.93294 -0.20146,4.24418 -0.25967,6.93486c-0.05708,0.02798 -0.11416,0.05708 -0.17236,0.08618c-2.64814,-0.17348 -4.22852,-0.32122 -4.73777,-0.44434l0.08618,-0.34584c0,-0.7152 0.11528,-2.9369 0.34584,-6.66288c-2.22171,-0.12312 -3.332,-0.27198 -3.332,-0.44434c0.11528,-2.74775 0.26302,-4.12107 0.44434,-4.12107l3.2447,0.6167c0,-0.35368 0,-0.70736 0,-1.06104c0,-0.86406 -0.03246,-2.03143 -0.09849,-3.50436c0.06603,0 0.09849,-0.02798 0.09849,-0.08618z" fill="url(#color-24)"/><path d="M233.24199,181.97259c0.04925,0.07387 0.27981,2.32804 0.69169,6.76137c3.17419,-0.97039 4.86537,-1.45502 5.07131,-1.45502l3.1462,2.14672c-0.51038,4.68853 -0.84391,7.42732 -0.99949,8.21751l-4.36843,0.14774c0,-0.04925 -0.0291,-0.07387 -0.08618,-0.07387l0.08618,-0.30891c0,-0.66595 0.09849,-2.68955 0.2966,-6.0708c-1.20095,-0.04925 -2.09411,-0.07387 -2.67836,-0.07387c-0.10185,0 -0.20483,0 -0.3078,0c0.35368,3.75955 0.53052,5.80777 0.53052,6.14467l-4.1457,0.61782c-0.1567,-0.52717 -1.07783,-5.44178 -2.76454,-14.74496c0,-0.26414 0.64245,-0.46896 1.92511,-0.61782c1.62067,-0.46001 2.82162,-0.69058 3.60286,-0.69058z" fill="url(#color-25)"/><path d="M250.30716,185.71088c3.72598,1.91727 5.79099,3.0354 6.19391,3.35662c-0.535,2.5004 -0.85174,3.78753 -0.95024,3.86252c-2.59889,0 -5.1989,0 -7.7978,0c0,0.04477 0,0.08954 0,0.13543l2.18365,2.70186c1.14387,-0.58425 2.28662,-1.16737 3.43049,-1.75162c0.33689,0.58425 0.82265,1.60388 1.45614,3.06002c-0.2966,0.09849 -2.45563,0.41524 -6.4782,0.95024c-3.332,-2.19708 -5.00975,-3.33984 -5.03437,-3.43049c0.535,-4.26881 0.85175,-6.40433 0.95024,-6.40433c3.47974,-1.48076 5.49438,-2.30677 6.04617,-2.48025zM249.50466,188.69703c-0.06603,0.16453 -0.50142,0.81929 -1.30728,1.96204c0,0.34585 0.48464,0.51821 1.45502,0.51821c0,0.04925 0.70401,0.16901 2.1109,0.35816c0.38614,-0.535 0.57977,-0.84727 0.57977,-0.93793c-0.12312,-0.73199 -0.39062,-1.09799 -0.8025,-1.09799c-0.67826,-0.2675 -1.35653,-0.53499 -2.03591,-0.8025z" fill="url(#color-26)"/><path d="M273.84941,185.69857c2.36945,1.51434 3.67673,2.38623 3.92408,2.6168c-0.85511,1.89936 -1.34533,2.8496 -1.46845,2.8496c-1.49756,-0.86742 -2.99399,-1.73595 -4.49154,-2.60337c-0.05372,0 -0.10633,0 -0.16005,0c0,0.08283 -0.19363,0.54283 -0.57977,1.38227c4.13674,2.22842 6.20623,3.37229 6.20623,3.43049c-1.15954,2.6806 -1.8143,4.09644 -1.96204,4.24418l-7.02103,0.40741c-2.73097,-1.80982 -4.19942,-2.76454 -4.40424,-2.86303c0,-0.02462 0,-0.04925 0,-0.07387c0,-0.20594 0.40628,-1.13156 1.2211,-2.77686c1.82661,0.95024 3.6521,1.90049 5.47871,2.85073l0.40741,-1.62851c-3.38908,-1.52218 -5.40484,-2.47242 -6.04617,-2.85072c0,-0.05708 0,-0.11529 0,-0.17237c0,-0.31227 0.65364,-1.69902 1.96092,-4.15801z" fill="url(#color-27)"/><path d="M283.84425,185.71088c3.70918,0.69953 5.65108,1.0991 5.82344,1.19759c0,0.04925 0,0.09849 0,0.14774c-0.79802,2.25416 -1.19647,3.42154 -1.19647,3.50436c-0.02462,0 -0.04925,0 -0.07387,0c-0.20594,0 -1.20095,-0.32122 -2.98615,-0.96256c-0.99501,1.66992 -1.49308,2.56196 -1.49308,2.67724c0.82265,0.79802 1.64529,1.59604 2.46794,2.39407c1.90831,-1.79303 2.87871,-2.68955 2.91229,-2.68955c1.4886,1.94973 2.2329,3.04324 2.2329,3.28163c-0.81481,0.46897 -2.2329,1.3901 -4.2565,2.76454c-3.91625,-0.84727 -6.0305,-1.32071 -6.34277,-1.4192c0.22833,0.73759 -2.16463,-7.00537 -1.93742,-6.26778c1.61731,-1.54344 3.2335,-3.08576 4.8497,-4.62809z" fill="url(#color-28)"/><path d="M301.62462,185.69857c1.62851,0.91331 2.62799,1.50539 2.99846,1.77736c-1.33302,2.77238 -2.04822,4.18263 -2.14671,4.23187c-0.0291,0 -0.05821,0 -0.08731,0l-1.76393,-1.54232c-0.69505,0.84727 -1.39011,1.69454 -2.08516,2.54181c0.07835,1.54232 0.15558,3.08465 0.23392,4.62697c-0.10633,0.09961 -1.46846,0.32906 -4.08414,0.6917c-0.09849,-0.70736 -0.73982,-4.17479 -1.92511,-10.40229c0,-0.09849 1.71916,-0.35368 5.15861,-0.76444c0.05708,0.06492 0.21378,0.83496 0.46785,2.30677c2.05718,-2.31125 3.13501,-3.46743 3.2335,-3.46743z" fill="url(#color-29)"/><path d="M312.59326,185.71088c3.72709,1.91727 5.7921,3.0354 6.19503,3.35662c-0.535,2.5004 -0.85174,3.78753 -0.95024,3.86252c-2.60001,0 -5.19891,0 -7.79892,0c0,0.04477 0,0.08954 0,0.13543c0.72863,0.901 1.45614,1.80087 2.18477,2.70186c1.14275,-0.58425 2.28662,-1.16737 3.42938,-1.75162c0.33801,0.58425 0.82265,1.60388 1.45614,3.06002c-0.29548,0.09849 -2.45451,0.41524 -6.47709,0.95024c-3.332,-2.19708 -5.00975,-3.33984 -5.03437,-3.43049c0.53388,-4.26881 0.85063,-6.40433 0.95024,-6.40433c3.47862,-1.48076 5.49439,-2.30677 6.04506,-2.48025zM311.79188,188.69703c-0.06603,0.16453 -0.50143,0.81929 -1.3084,1.96204c0,0.34585 0.48575,0.51821 1.45614,0.51821c0,0.04925 0.70401,0.16901 2.10978,0.35816c0.38726,-0.535 0.57977,-0.84727 0.57977,-0.93793c-0.12312,-0.73199 -0.39062,-1.09799 -0.80138,-1.09799c-0.67826,-0.2675 -1.35765,-0.53499 -2.03591,-0.8025z" fill="url(#color-30)"/><path d="M326.90729,185.71088c3.72598,1.91727 5.79099,3.0354 6.19391,3.35662c-0.535,2.5004 -0.85174,3.78753 -0.95024,3.86252c-2.59889,0 -5.1989,0 -7.7978,0c0,0.04477 0,0.08954 0,0.13543c2.18365,2.70186 0,0 2.18365,2.70186c1.14387,-0.58425 2.28662,-1.16737 3.43049,-1.75162c0.33689,0.58425 0.82265,1.60388 1.45614,3.06002c-0.2966,0.09849 -2.45563,0.41524 -6.4782,0.95024c-3.332,-2.19708 -5.00975,-3.33984 -5.03437,-3.43049c0.535,-4.26881 0.85174,-6.40433 0.95024,-6.40433c3.47974,-1.48076 5.49438,-2.30677 6.04617,-2.48025zM326.10481,188.69703c-0.06603,0.16453 -0.50142,0.81929 -1.30728,1.96204c0,0.34585 0.48463,0.51821 1.45502,0.51821c0,0.04925 0.70401,0.16901 2.1109,0.35816c0.38614,-0.535 0.57977,-0.84727 0.57977,-0.93793c-0.12424,-0.73199 -0.39062,-1.09799 -0.8025,-1.09799z" fill="url(#color-31)"/><path d="M345.18128,185.69857l4.10875,2.8261c-0.28765,4.68853 -0.49023,7.42845 -0.60439,8.21751c-0.47792,0.0582 -1.92959,0.14438 -4.35611,0.25967c-0.0291,-0.0582 -0.0582,-0.11528 -0.08618,-0.17348c-0.14438,-2.19597 -0.28764,-4.39193 -0.43203,-6.58901c-0.05708,-0.02798 -0.11529,-0.05708 -0.17237,-0.08618c-1.57142,0.33689 -2.65373,0.59208 -3.24582,0.76557c0.16453,2.80484 0.24735,4.83291 0.24735,6.08311c-2.45115,0.68274 -3.79201,1.02411 -4.02258,1.02411c-1.59604,-7.02551 -2.39407,-10.7347 -2.39407,-11.12979c3.4719,-0.45217 5.3556,-0.67938 5.65108,-0.67938c0,0.0291 0,0.05821 0,0.08731c0.0582,0.04029 0.14438,0.89652 0.25967,2.56643c3.18314,-2.11426 4.86537,-3.17195 5.04669,-3.17195z" fill="url(#color-32)"/></g><path d="M270.80487,157.77016c3.345,0 6.376,1.345 8.571,3.517c2.195,2.172 3.554,5.172 3.554,8.483c0,3.311 -1.359,6.311 -3.554,8.483c-2.195,2.172 -5.226,3.517 -8.571,3.517c-3.345,0 -6.376,-1.345 -8.571,-3.517c-2.195,-2.172 -3.554,-5.172 -3.554,-8.483c0,-3.311 1.359,-6.311 3.554,-8.483c2.195,-2.172 5.226,-3.517 8.571,-3.517z" fill="#f0f0f0" stroke="#ffa33b" stroke-width="2" stroke-linecap="butt"/><path d="M350.8049,157.52016c3.345,0 6.376,1.345 8.571,3.517c2.195,2.172 3.554,5.172 3.554,8.483c0,3.311 -1.359,6.311 -3.554,8.483c-2.195,2.172 -5.226,3.517 -8.571,3.517c-3.345,0 -6.376,-1.345 -8.571,-3.517c-2.195,-2.172 -3.554,-5.172 -3.554,-8.483c0,-3.311 1.359,-6.311 3.554,-8.483c2.195,-2.172 5.226,-3.517 8.571,-3.517z" fill="#f0f0f0" stroke="#3b9dff" stroke-width="2" stroke-linecap="butt"/><path d="M265.92497,163.51976l10.0035,-0.0794l0.5954,2.8582l-5.1605,6.3514l5.1605,-0.5954l-1.5878,3.7711l-8.9317,0.1985l-1.1909,-2.8978l6.9468,-5.6369l-6.9468,-0.3176z" fill="url(#color-33)" stroke="none" stroke-width="0.79393" stroke-linecap="round"/><path d="M348.0504,169.29126l-4.0585,-3.4727l3.138,-2.8033l3.7656,4.6861l3.2635,-4.6024l3.9329,1.3389l-4.686,5.1462l4.6023,3.5564l-3.1379,2.9288l-3.7656,-4.2676l-3.2217,4.8952l-3.8911,-2.9288z" fill="url(#color-34)" stroke="none" stroke-width="0.8368" stroke-linecap="round"/><g stroke-width="0" stroke-linecap="butt"><path d="M324.60029,161.23036c3.6037,0.2992 5.4122,0.5389 5.4122,0.7069l1.5922,14.0933c0,0.1079 -1.5922,0.3709 -4.7777,0.7902l-0.0717,-0.1557v-1.2813c-2.7417,0.7424 -4.6336,1.2212 -5.6519,1.437c-2.4303,-3.4369 -3.6999,-5.2564 -3.8195,-5.4839c1.7841,-3.245 2.7423,-4.8978 2.8618,-4.9334l5.0174,0.2391c-0.1079,-0.6106 -0.3114,-2.4186 -0.6351,-5.4122zM131.03938,165.09826c-0.7185,3.2805 -1.1734,4.9211 -1.3653,4.9211c-0.0356,0 -0.9938,0.8025 -2.8735,2.4186c-1.1618,-0.0595 -2.5026,-0.1312 -3.9997,-0.2275l-0.1551,4.3112c-0.3237,0.0956 -1.7368,0.1912 -4.2394,0.2991c-0.2992,0 -0.4549,-0.8619 -0.4549,-2.5743c-0.5505,-7.1006 -0.8258,-10.9323 -0.8258,-11.4951c0.9337,-0.2035 3.8317,-0.7068 8.6928,-1.5087zM199.8181,161.39836c0,0.4549 0.1079,2.215 0.3114,5.2804c2.8618,-0.9098 4.4546,-1.3892 4.8016,-1.4371l4.3111,4.6343c-1.8085,4.0591 -2.8023,6.214 -2.958,6.466c-0.5028,-0.0601 -2.3346,-0.1318 -5.5079,-0.2397v0.5628c0,0.1079 -0.0601,0.1557 -0.168,0.1557h-4.6336c-0.1679,0 -0.491,-2.3946 -0.9582,-7.1846c-0.1073,-0.407 -0.3948,-2.8017 -0.8736,-7.1962c2.7177,-0.6345 4.5741,-1.0416 5.5918,-1.1973zM232.8786,162.17636l-0.5027,3.9997c1.0416,-0.0601 1.8079,-0.084 2.299,-0.084h0.7663l0.1674,-0.084l0.084,0.168c-0.1674,2.4302 -0.3114,3.7955 -0.431,4.0947l-0.168,-0.0957c-0.1195,0 -1.1973,-0.0601 -3.2327,-0.1673c-0.1079,1.8796 -0.1913,4.1186 -0.2514,6.729l-0.1679,0.084c-2.5743,-0.1679 -4.107,-0.3114 -4.5981,-0.431l0.084,-0.3353c0,-0.6946 0.1079,-2.8502 0.3354,-6.4661c-2.1556,-0.1195 -3.2328,-0.2636 -3.2328,-0.431c0.1073,-2.6705 0.2514,-3.9997 0.431,-3.9997l3.1488,0.599v-1.0299c0,-0.8381 -0.0356,-1.9754 -0.0957,-3.4008c0.0601,0 0.0957,-0.0239 0.0957,-0.0833zM242.9967,167.80436c3.0777,-0.946 4.7176,-1.4131 4.9212,-1.4131l3.0537,2.0838c-0.4911,4.5496 -0.8142,7.2079 -0.9699,7.9742l-4.2388,0.1441c0,-0.0478 -0.0239,-0.0717 -0.084,-0.0717l0.084,-0.2998c0,-0.6462 0.0957,-2.6105 0.2876,-5.891c-1.1618,-0.0479 -2.0361,-0.0718 -2.5989,-0.0718h-0.2991c0.347,3.6521 0.5149,5.6397 0.5149,5.9628l-4.0235,0.5989c-0.1558,-0.5149 -1.0417,-5.2804 -2.6822,-14.3091c0,-0.2513 0.6228,-0.4549 1.868,-0.5989c1.5688,-0.4427 2.7423,-0.6701 3.4963,-0.6701c0.0479,0.0717 0.2759,2.2628 0.6707,6.5617zM122.5735,169.63616c1.9636,-0.347 2.9458,-0.5505 2.9458,-0.6106l0.6823,-2.9458c-0.9699,-0.3948 -2.1788,-0.8736 -3.6281,-1.4364zM143.9114,166.58306c-1.2929,2.6939 -1.9875,4.0592 -2.0832,4.107h-0.084l-1.7123,-1.4971l-2.0237,2.467l0.2274,4.4901c-0.1079,0.0957 -1.4248,0.3231 -3.9635,0.6707c-0.0956,-0.6823 -0.7185,-4.0475 -1.868,-10.0942c0,-0.0956 1.6645,-0.347 5.0057,-0.7424c0.0595,0.0601 0.2035,0.8141 0.4549,2.2389c1.9992,-2.2389 3.0415,-3.3645 3.1371,-3.3645c1.5805,0.8859 2.5504,1.4609 2.9096,1.7245zM172.21819,167.39726c-0.8264,1.8441 -1.3052,2.7656 -1.4248,2.7656l-4.3589,-2.5265h-0.1557c0,0.084 -0.1913,0.5272 -0.5628,1.3414c4.0113,2.1672 6.0234,3.2689 6.0234,3.329c-1.1256,2.5982 -1.7601,3.9751 -1.9042,4.1186l-6.8131,0.3954c-2.6466,-1.7601 -4.0714,-2.6822 -4.2749,-2.7778v-0.0723c0,-0.2036 0.3954,-1.1011 1.1856,-2.6939l5.3166,2.7662l0.3948,-1.5811c-3.2928,-1.4726 -5.2442,-2.3947 -5.8671,-2.7656v-0.168c0,-0.2991 0.6346,-1.6522 1.9036,-4.0352l6.7297,-0.6345c2.299,1.4726 3.5681,2.3113 3.8078,2.5387zM186.8743,167.39726c-0.8264,1.8441 -1.3052,2.7656 -1.4248,2.7656l-4.3583,-2.5265h-0.1557c0,0.084 -0.1919,0.5272 -0.5628,1.3414c4.0113,2.1672 6.0228,3.2689 6.0228,3.329c-1.1256,2.5982 -1.7601,3.9751 -1.9042,4.1186l-6.8131,0.3954c-2.646,-1.7601 -4.0708,-2.6822 -4.2749,-2.7778v-0.0723c0,-0.2036 0.3954,-1.1011 1.1856,-2.6939l5.3166,2.7662l0.3948,-1.5811c-3.2928,-1.4726 -5.2442,-2.3947 -5.8671,-2.7656v-0.168c0,-0.2991 0.6346,-1.6522 1.9042,-4.0352l6.7291,-0.6345c2.299,1.4726 3.5687,2.3113 3.8078,2.5387zM297.52637,166.06816c1.8681,1.6044 2.8024,2.4664 2.8024,2.5743c-0.7547,2.3707 -1.1857,3.8077 -1.2936,4.3227c0.7547,1.6884 1.1857,2.6939 1.2936,3.0176c0,0.0956 -1.2335,0.347 -3.7122,0.7663c-0.0361,-0.1318 -0.2636,-0.4432 -0.6823,-0.9104c-3.413,0.659 -5.2565,0.9821 -5.5201,0.9821l-1.8202,-4.9211l4.0113,-2.12c0.6468,0.1079 1.6522,0.1557 3.0292,0.1557c0,-0.1796 0.0245,-0.7062 0.0723,-1.5921c-0.2274,0 -2.299,0.1557 -6.203,0.4549l-0.0717,-0.1557c0.5388,-2.5265 0.8742,-3.7839 0.9821,-3.7839c4.7415,0.6584 7.1122,1.0538 7.1122,1.2096zM316.09817,167.60076c-0.2752,4.5503 -0.4788,7.2085 -0.5867,7.9749c-0.4665,0.0595 -1.868,0.1434 -4.2265,0.2513l-0.084,-0.1679l-0.4187,-6.3938l-0.168,-0.084c-1.5204,0.3231 -2.5743,0.5745 -3.1493,0.7425c0.1557,2.7177 0.2397,4.6937 0.2397,5.9032c-2.383,0.6585 -3.676,0.9938 -3.9035,0.9938c-1.5449,-6.813 -2.3229,-10.4173 -2.3229,-10.8005c3.3645,-0.4432 5.1964,-0.659 5.4839,-0.659v0.084c0.0601,0.0362 0.1435,0.8742 0.2514,2.4909c3.0893,-2.0477 4.7182,-3.0776 4.8972,-3.0776zM157.65769,168.12746c-0.5149,2.4308 -0.8264,3.676 -0.922,3.7477h-7.5678v0.1318l2.1194,2.6227l3.329,-1.7006c0.3231,0.5628 0.8025,1.5565 1.4131,2.9697c-0.2875,0.0956 -2.383,0.4071 -6.2864,0.922c-3.2334,-2.1316 -4.8617,-3.245 -4.8856,-3.3289c0.515,-4.1432 0.8264,-6.2148 0.9221,-6.2148c3.3768,-1.4364 5.3282,-2.2389 5.8671,-2.4063c3.6165,1.8558 5.6157,2.9452 6.0111,3.2567zM215.3006,164.87076c3.0298,0.8142 4.6459,1.3053 4.8255,1.4849c1.6645,2.3585 2.6105,3.7238 2.814,4.0831c-1.0778,3.4123 -1.7001,5.1246 -1.8558,5.1246c-3.592,0.8381 -5.4723,1.2574 -5.6396,1.2574c-2.9697,-1.7362 -4.5502,-2.6944 -4.7421,-2.898c-0.1073,-3.221 -0.1558,-5.0051 -0.1558,-5.3404c-0.0478,-0.0957 -0.0717,-0.1674 -0.0717,-0.2152c3.0654,-2.3352 4.6459,-3.4964 4.7538,-3.4964zM149.5989,169.67236c0,0.3354 0.4672,0.5027 1.4131,0.5027c0,0.0479 0.6824,0.1674 2.0477,0.347c0.3709,-0.5143 0.5628,-0.8258 0.5628,-0.9098c-0.1196,-0.7062 -0.3832,-1.0655 -0.7786,-1.0655l-1.9753,-0.7786c-0.0601,0.1557 -0.4911,0.7903 -1.2697,1.9042zM215.0732,169.25306c-0.0479,0.3231 -0.1196,1.4848 -0.2152,3.4847l2.6699,0.5983c0.6345,-1.9992 0.9582,-3.0653 0.9582,-3.1971c-2.1194,-0.6346 -3.2572,-0.9577 -3.4129,-0.9577zM200.53659,170.03166l0.3114,2.9574h2.407l0.8742,-3.3529c-2.3953,0.2036 -3.5926,0.3354 -3.5926,0.3955zM322.30127,169.81586c0.8019,2.467 1.3046,3.82 1.5088,4.0591l2.3824,-2.0715c-0.2514,-1.4248 -0.431,-2.1433 -0.5506,-2.1433h-3.1855c-0.1073,0.0122 -0.1551,0.0717 -0.1551,0.1557zM293.67078,174.70136h0.0724c1.0054,-0.6584 1.5081,-1.09 1.5081,-1.2935l0.1558,-1.2807c-0.1913,0 -1.0294,-0.0724 -2.5026,-0.2275c0,0.0834 0.252,1.0177 0.7663,2.8017z" data-paper-data="{&quot;origPos&quot;:null}" fill="url(#color-35)" stroke="#999999"/><g data-paper-data="{&quot;origPos&quot;:null}" stroke="#8f8f8f"><path d="M135.95029,185.71088c3.12494,0.83944 4.78254,1.34981 4.97169,1.53001c1.71916,2.43548 2.68619,3.8379 2.89997,4.20837c-1.11029,3.52003 -1.74826,5.28061 -1.91279,5.28061c-3.70135,0.86406 -5.63877,1.29609 -5.81114,1.29609c-3.06002,-1.7852 -4.68853,-2.78021 -4.88663,-2.98615c-0.10633,-3.32304 -0.16005,-5.15749 -0.16005,-5.50334c-0.04925,-0.09849 -0.07387,-0.17236 -0.07387,-0.22161c3.15852,-2.40303 4.7915,-3.60398 4.89782,-3.60398c0,0 0.07388,0 0.07499,0zM135.71526,190.22704c-0.04925,0.32906 -0.12312,1.52665 -0.22161,3.59055c0.91667,0.20594 1.83444,0.41188 2.75111,0.61782c0.65812,-2.05718 0.98717,-3.15516 0.98717,-3.29506c-2.18813,-0.65812 -3.35997,-0.98717 -3.51667,-0.98717z" fill="url(#color-36)"/><path d="M153.80453,185.69857c1.62851,0.91331 2.628,1.50539 2.99847,1.77736c-1.33302,2.77238 -2.04822,4.18263 -2.14784,4.23187c-0.02798,0 -0.05708,0 -0.08618,0l-1.76394,-1.54232c-0.29772,0.36376 -1.78744,2.17917 -2.08516,2.54181c-0.25855,-5.08922 0.49135,9.7173 0.23392,4.62697c-0.10633,0.09961 -1.46845,0.32906 -4.08413,0.6917c-0.09849,-0.70736 -0.73982,-4.17479 -1.92511,-10.40229c0,-0.09849 1.71916,-0.35368 5.15749,-0.76444c0.0582,0.06492 0.21378,0.83496 0.46897,2.30677c2.05718,-2.31125 3.13389,-3.46743 3.2335,-3.46743z" fill="url(#color-37)"/><path d="M167.73469,181.97259l5.42946,0.96255l-0.51821,4.12107c1.07784,-0.05708 1.8669,-0.08618 2.36833,-0.08618c0.26414,0 0.52717,0 0.79019,0l0.17236,-0.08618l0.08731,0.17237c-0.17348,2.5004 -0.32122,3.90729 -0.44434,4.21956l-0.17348,-0.09849c-0.12312,0 -1.23341,-0.05708 -3.33088,-0.17237c-0.11528,1.93294 -0.20146,4.24418 -0.25967,6.93486l-0.17237,0.08618c-2.64926,-0.17348 -4.22852,-0.32122 -4.73777,-0.44434l0.08618,-0.34584c0,-0.7152 0.11529,-2.9369 0.34473,-6.66288c-2.22058,-0.12312 -3.33088,-0.27198 -3.33088,-0.44434c0.11528,-2.74775 0.26302,-4.12107 0.44434,-4.12107l3.2447,0.6167c0,-0.35368 0,-0.70736 0,-1.06104c0,-0.86406 -0.03246,-2.03143 -0.09849,-3.50436c0.06603,0 0.09849,-0.02798 0.09849,-0.08618z" fill="url(#color-38)"/><path d="M179.24727,185.69857c4.88552,0.6749 7.32883,1.09014 7.32883,1.24684c1.92511,1.65313 2.88766,2.53733 2.88766,2.65261c-0.78124,2.44332 -1.22557,3.92744 -1.33302,4.45461c0.78235,1.73595 1.22557,2.77238 1.33302,3.10927c0,0.09849 -1.27483,0.36151 -3.82559,0.79019c-0.03246,-0.1399 -0.26638,-0.45329 -0.70289,-0.93793c-3.52115,0.67379 -5.41716,1.0118 -5.68802,1.0118l-1.87586,-5.07131l4.13338,-2.18477c0.66707,0.10745 1.70685,0.16118 3.12158,0.16118c0,-0.18132 0.02462,-0.72863 0.07499,-1.64194c-0.23952,0 -2.36944,0.1567 -6.39202,0.46897l-0.07387,-0.16005c0.55962,-2.59889 0.89652,-3.89945 1.0118,-3.89945zM181.81371,192.95464c0,0.09066 0.26302,1.05209 0.78907,2.88654c0.02462,0 0.05036,0 0.07499,0c1.03642,-0.67379 1.55463,-1.11813 1.55463,-1.3319c0.0056,-0.04477 0.15446,-1.27706 0.16005,-1.32071c-0.19699,0 -1.05769,-0.07835 -2.57874,-0.23392z" fill="url(#color-39)"/><path d="M196.84184,185.71088c0.25519,1.05321 0.43203,1.70349 0.53052,1.94972c3.63644,-0.83048 5.55706,-1.24572 5.763,-1.24572c2.47577,3.56144 3.71366,5.42052 3.71366,5.57721l-2.83729,6.02155l-6.10773,-0.97486c0,0.06156 0,0.12312 0,0.18468c0.4768,3.66106 0.7152,5.6063 0.7152,5.83687c-0.0582,0 -0.08618,0.02798 -0.08618,0.08618c-0.59208,-0.0582 -1.03642,-0.08618 -1.33302,-0.08618h-1.06104c-0.61671,0 -1.56247,-0.0291 -2.83841,-0.0873c-0.11416,-0.34473 -0.99949,-5.59736 -2.65261,-15.75676c0.27981,-0.11528 2.34482,-0.6167 6.19391,-1.50539zM197.28618,190.75756c0.16453,1.89265 0.31339,2.83841 0.44434,2.83841c1.68671,0.58425 2.71865,0.87637 3.09696,0.87637l0.97486,-4.2453c-0.02798,0 -0.05708,0 -0.08618,0c-0.96255,0.0582 -2.43884,0.23504 -4.42998,0.53052z" fill="url(#color-40)"/><path d="M218.07732,181.97259l5.42947,0.96255c-0.03022,0.23952 -0.48799,3.88156 -0.51821,4.12107c1.07784,-0.05708 1.8669,-0.08618 2.36945,-0.08618c0.26302,0 0.52605,0 0.78907,0l0.17348,-0.08618c0.02798,0.05708 0.05708,0.11529 0.08618,0.17237c-0.17348,2.5004 -0.32122,3.90729 -0.44434,4.21956l-0.17237,-0.09849c-0.12424,0 -1.23453,-0.05708 -3.332,-0.17237c-0.11528,1.93294 -0.20146,4.24418 -0.25967,6.93486c-0.05708,0.02798 -0.11416,0.05708 -0.17236,0.08618c-2.64814,-0.17348 -4.22852,-0.32122 -4.73777,-0.44434l0.08618,-0.34584c0,-0.7152 0.11528,-2.9369 0.34584,-6.66288c-2.22171,-0.12312 -3.332,-0.27198 -3.332,-0.44434c0.11528,-2.74775 0.26302,-4.12107 0.44434,-4.12107l3.2447,0.6167c0,-0.35368 0,-0.70736 0,-1.06104c0,-0.86406 -0.03246,-2.03143 -0.09849,-3.50436c0.06603,0 0.09849,-0.02798 0.09849,-0.08618z" fill="url(#color-41)"/><path d="M233.24199,181.97259c0.04925,0.07387 0.27981,2.32804 0.69169,6.76137c3.17419,-0.97039 4.86537,-1.45502 5.07131,-1.45502l3.1462,2.14672c-0.51038,4.68853 -0.84391,7.42732 -0.99949,8.21751l-4.36843,0.14774c0,-0.04925 -0.0291,-0.07387 -0.08618,-0.07387l0.08618,-0.30891c0,-0.66595 0.09849,-2.68955 0.2966,-6.0708c-1.20095,-0.04925 -2.09411,-0.07387 -2.67836,-0.07387c-0.10185,0 -0.20483,0 -0.3078,0c0.35368,3.75955 0.53052,5.80777 0.53052,6.14467l-4.1457,0.61782c-0.1567,-0.52717 -1.07783,-5.44178 -2.76454,-14.74496c0,-0.26414 0.64245,-0.46896 1.92511,-0.61782c1.62067,-0.46001 2.82162,-0.69058 3.60286,-0.69058z" fill="url(#color-42)"/><path d="M250.30716,185.71088c3.72598,1.91727 5.79099,3.0354 6.19391,3.35662c-0.535,2.5004 -0.85174,3.78753 -0.95024,3.86252c-2.59889,0 -5.1989,0 -7.7978,0c0,0.04477 0,0.08954 0,0.13543l2.18365,2.70186c1.14387,-0.58425 2.28662,-1.16737 3.43049,-1.75162c0.33689,0.58425 0.82265,1.60388 1.45614,3.06002c-0.2966,0.09849 -2.45563,0.41524 -6.4782,0.95024c-3.332,-2.19708 -5.00975,-3.33984 -5.03437,-3.43049c0.535,-4.26881 0.85175,-6.40433 0.95024,-6.40433c3.47974,-1.48076 5.49438,-2.30677 6.04617,-2.48025zM249.50466,188.69703c-0.06603,0.16453 -0.50142,0.81929 -1.30728,1.96204c0,0.34585 0.48464,0.51821 1.45502,0.51821c0,0.04925 0.70401,0.16901 2.1109,0.35816c0.38614,-0.535 0.57977,-0.84727 0.57977,-0.93793c-0.12312,-0.73199 -0.39062,-1.09799 -0.8025,-1.09799c-0.67826,-0.2675 -1.35653,-0.53499 -2.03591,-0.8025z" fill="url(#color-43)"/><path d="M273.84941,185.69857c2.36945,1.51434 3.67673,2.38623 3.92408,2.6168c-0.85511,1.89936 -1.34533,2.8496 -1.46845,2.8496c-1.49756,-0.86742 -2.99399,-1.73595 -4.49154,-2.60337c-0.05372,0 -0.10633,0 -0.16005,0c0,0.08283 -0.19363,0.54283 -0.57977,1.38227c4.13674,2.22842 6.20623,3.37229 6.20623,3.43049c-1.15954,2.6806 -1.8143,4.09644 -1.96204,4.24418l-7.02103,0.40741c-2.73097,-1.80982 -4.19942,-2.76454 -4.40424,-2.86303c0,-0.02462 0,-0.04925 0,-0.07387c0,-0.20594 0.40628,-1.13156 1.2211,-2.77686c1.82661,0.95024 3.6521,1.90049 5.47871,2.85073l0.40741,-1.62851c-3.38908,-1.52218 -5.40484,-2.47242 -6.04617,-2.85072c0,-0.05708 0,-0.11529 0,-0.17237c0,-0.31227 0.65364,-1.69902 1.96092,-4.15801z" fill="url(#color-44)"/><path d="M283.84425,185.71088c3.70918,0.69953 5.65108,1.0991 5.82344,1.19759c0,0.04925 0,0.09849 0,0.14774c-0.79802,2.25416 -1.19647,3.42154 -1.19647,3.50436c-0.02462,0 -0.04925,0 -0.07387,0c-0.20594,0 -1.20095,-0.32122 -2.98615,-0.96256c-0.99501,1.66992 -1.49308,2.56196 -1.49308,2.67724c0.82265,0.79802 1.64529,1.59604 2.46794,2.39407c1.90831,-1.79303 2.87871,-2.68955 2.91229,-2.68955c1.4886,1.94973 2.2329,3.04324 2.2329,3.28163c-0.81481,0.46897 -2.2329,1.3901 -4.2565,2.76454c-3.91625,-0.84727 -6.0305,-1.32071 -6.34277,-1.4192c0.22833,0.73759 -2.16463,-7.00537 -1.93742,-6.26778c1.61731,-1.54344 3.2335,-3.08576 4.8497,-4.62809z" fill="url(#color-45)"/><path d="M301.62462,185.69857c1.62851,0.91331 2.62799,1.50539 2.99846,1.77736c-1.33302,2.77238 -2.04822,4.18263 -2.14671,4.23187c-0.0291,0 -0.05821,0 -0.08731,0l-1.76393,-1.54232c-0.69505,0.84727 -1.39011,1.69454 -2.08516,2.54181c0.07835,1.54232 0.15558,3.08465 0.23392,4.62697c-0.10633,0.09961 -1.46846,0.32906 -4.08414,0.6917c-0.09849,-0.70736 -0.73982,-4.17479 -1.92511,-10.40229c0,-0.09849 1.71916,-0.35368 5.15861,-0.76444c0.05708,0.06492 0.21378,0.83496 0.46785,2.30677c2.05718,-2.31125 3.13501,-3.46743 3.2335,-3.46743z" fill="url(#color-46)"/><path d="M312.59326,185.71088c3.72709,1.91727 5.7921,3.0354 6.19503,3.35662c-0.535,2.5004 -0.85174,3.78753 -0.95024,3.86252c-2.60001,0 -5.19891,0 -7.79892,0c0,0.04477 0,0.08954 0,0.13543c0.72863,0.901 1.45614,1.80087 2.18477,2.70186c1.14275,-0.58425 2.28662,-1.16737 3.42938,-1.75162c0.33801,0.58425 0.82265,1.60388 1.45614,3.06002c-0.29548,0.09849 -2.45451,0.41524 -6.47709,0.95024c-3.332,-2.19708 -5.00975,-3.33984 -5.03437,-3.43049c0.53388,-4.26881 0.85063,-6.40433 0.95024,-6.40433c3.47862,-1.48076 5.49439,-2.30677 6.04506,-2.48025zM311.79188,188.69703c-0.06603,0.16453 -0.50143,0.81929 -1.3084,1.96204c0,0.34585 0.48575,0.51821 1.45614,0.51821c0,0.04925 0.70401,0.16901 2.10978,0.35816c0.38726,-0.535 0.57977,-0.84727 0.57977,-0.93793c-0.12312,-0.73199 -0.39062,-1.09799 -0.80138,-1.09799c-0.67826,-0.2675 -1.35765,-0.53499 -2.03591,-0.8025z" fill="url(#color-47)"/><path d="M326.90729,185.71088c3.72598,1.91727 5.79099,3.0354 6.19391,3.35662c-0.535,2.5004 -0.85174,3.78753 -0.95024,3.86252c-2.59889,0 -5.1989,0 -7.7978,0c0,0.04477 0,0.08954 0,0.13543c2.18365,2.70186 0,0 2.18365,2.70186c1.14387,-0.58425 2.28662,-1.16737 3.43049,-1.75162c0.33689,0.58425 0.82265,1.60388 1.45614,3.06002c-0.2966,0.09849 -2.45563,0.41524 -6.4782,0.95024c-3.332,-2.19708 -5.00975,-3.33984 -5.03437,-3.43049c0.535,-4.26881 0.85174,-6.40433 0.95024,-6.40433c3.47974,-1.48076 5.49438,-2.30677 6.04617,-2.48025zM326.10481,188.69703c-0.06603,0.16453 -0.50142,0.81929 -1.30728,1.96204c0,0.34585 0.48463,0.51821 1.45502,0.51821c0,0.04925 0.70401,0.16901 2.1109,0.35816c0.38614,-0.535 0.57977,-0.84727 0.57977,-0.93793c-0.12424,-0.73199 -0.39062,-1.09799 -0.8025,-1.09799z" fill="url(#color-48)"/><path d="M345.18128,185.69857l4.10875,2.8261c-0.28765,4.68853 -0.49023,7.42845 -0.60439,8.21751c-0.47792,0.0582 -1.92959,0.14438 -4.35611,0.25967c-0.0291,-0.0582 -0.0582,-0.11528 -0.08618,-0.17348c-0.14438,-2.19597 -0.28764,-4.39193 -0.43203,-6.58901c-0.05708,-0.02798 -0.11529,-0.05708 -0.17237,-0.08618c-1.57142,0.33689 -2.65373,0.59208 -3.24582,0.76557c0.16453,2.80484 0.24735,4.83291 0.24735,6.08311c-2.45115,0.68274 -3.79201,1.02411 -4.02258,1.02411c-1.59604,-7.02551 -2.39407,-10.7347 -2.39407,-11.12979c3.4719,-0.45217 5.3556,-0.67938 5.65108,-0.67938c0,0.0291 0,0.05821 0,0.08731c0.0582,0.04029 0.14438,0.89652 0.25967,2.56643c3.18314,-2.11426 4.86537,-3.17195 5.04669,-3.17195z" fill="url(#color-49)"/></g></g><path d="M95.18675,219.50085v-79.23609h289.62653v79.23609z" fill-opacity="0.00392" fill="#ffffff" stroke="none" stroke-width="0" stroke-linecap="butt"/></g></g></svg>