<svg version="1.1" xmlns="http://www.w3.org/2000/svg" xmlns:xlink="http://www.w3.org/1999/xlink" width="437" height="90.79587" viewBox="0,0,437,90.79587"><defs><linearGradient x1="239.96075" y1="135.56279" x2="239.96075" y2="224.35867" gradientUnits="userSpaceOnUse" id="color-1"><stop offset="0" stop-color="#ffffff"/><stop offset="1" stop-color="#d8d8d8"/></linearGradient><linearGradient x1="239.96075" y1="135.5628" x2="239.96075" y2="224.35867" gradientUnits="userSpaceOnUse" id="color-2"><stop offset="0" stop-color="#343434"/><stop offset="1" stop-color="#090909"/></linearGradient><radialGradient cx="443.76725" cy="206.50539" r="17.9081" gradientUnits="userSpaceOnUse" id="color-3"><stop offset="0" stop-color="#ffffff"/><stop offset="1" stop-color="#e5e5e5"/></radialGradient></defs><g transform="translate(-21.46075,-134.5628)"><g data-paper-data="{&quot;isPaintingLayer&quot;:true}" fill-rule="nonzero" stroke-linejoin="miter" stroke-miterlimit="10" stroke-dasharray="" stroke-dashoffset="0" style="mix-blend-mode: normal"><path d="M22.46075,224.35867v-88.79587h435v88.79587z" data-paper-data="{&quot;origPos&quot;:null}" fill="url(#color-1)" stroke="url(#color-2)" stroke-width="2" stroke-linecap="butt"/><g data-paper-data="{&quot;origPos&quot;:null}"><path d="M444.26655,202.0594c2.5136,0 4.7909,1.0212 6.4406,2.6702c1.6489,1.6496 2.6702,3.9269 2.6702,6.4405c0,2.5136 -1.0213,4.791 -2.6702,6.4406c-1.6497,1.649 -3.927,2.6702 -6.4406,2.6702c-2.5136,0 -4.7909,-1.0212 -6.4406,-2.6702c-1.6489,-1.6496 -2.6701,-3.927 -2.6701,-6.4406c0,-2.5136 1.0212,-4.7909 2.6701,-6.4405c1.6497,-1.649 3.927,-2.6702 6.4406,-2.6702z" fill="url(#color-3)" stroke="#000000" stroke-width="2.0785" stroke-linecap="butt"/><path d="M441.23415,206.50959l5.6119,0.4503l1.7321,3.187l-3.6374,2.9446l3.3603,-0.5197l0.7967,3.4642l-7.4479,-0.0693l-1.9053,-2.4249l4.6766,-3.3256l-4.5727,-0.3464z" fill="#000000" stroke="none" stroke-width="0.69283" stroke-linecap="round"/></g><path d="M35.15288,149.2721c2.45803,0.54894 3.82426,0.86306 4.09873,0.94236v0.06403c-0.0854,2.20185 -0.14944,3.48272 -0.19212,3.84258c0.14027,0 0.77157,0.14638 1.89383,0.43914c1.00638,-3.10454 1.55227,-4.65681 1.63767,-4.65681c1.68342,0.75632 2.75384,1.2595 3.21129,1.50958v0.06403c-1.8481,4.30001 -2.89716,6.67264 -3.14724,7.11789c-0.46354,0.38425 -2.07986,1.85418 -4.84895,4.40979h-0.06405l-5.10511,-2.51596c0.46965,-0.8051 1.03688,-1.72915 1.70171,-2.77213c0.0305,0 0.82951,0.52453 2.39703,1.57362h0.06404c0.52454,-0.42695 1.15278,-1.03689 1.88469,-1.8298c0,-0.03659 -1.19547,-1.2107 -3.58639,-3.52235v-4.53789z" data-paper-data="{&quot;origPos&quot;:null}" fill="#000000" stroke="none" stroke-width="0.26458" stroke-linecap="butt"/><path d="M50.48653,152.04424c2.31773,0.62213 3.54676,1.00029 3.68703,1.13448c1.27475,1.80539 1.99142,2.84532 2.15001,3.11978c-0.82342,2.61051 -1.2961,3.91577 -1.41808,3.91577c-2.74469,0.64042 -4.18108,0.96063 -4.30916,0.96063c-2.26894,-1.32356 -3.47662,-2.06156 -3.62298,-2.21404c-0.07929,-2.46413 -0.11893,-3.82429 -0.11893,-4.08045c-0.03659,-0.07318 -0.0549,-0.12807 -0.0549,-0.16468c2.34213,-1.78099 3.55285,-2.67149 3.63215,-2.67149zM50.3127,155.39277c-0.03659,0.24398 -0.09149,1.13143 -0.16468,2.66235l2.04022,0.45745c0.48794,-1.52483 0.73191,-2.33908 0.73191,-2.44277c-1.62241,-0.48794 -2.49157,-0.73193 -2.60745,-0.73193z" data-paper-data="{&quot;origPos&quot;:null}" fill="#000000" stroke="none" stroke-width="0.26458" stroke-linecap="butt"/><path d="M62.09656,152.0351l0.06405,0.11891l-1.23511,6.55066h0.06405l3.14723,-0.92405v-3.70532c0.0122,-0.08538 0.05185,-0.12806 0.11893,-0.12806c2.36653,0.16469 3.68399,0.24704 3.95236,0.24704c0,0.04268 0.02135,0.06403 0.06405,0.06403c0,1.04298 -0.32936,3.20519 -0.98809,6.48661c0,0.18908 -0.9454,0.33241 -2.83617,0.43001c-0.09759,-0.11589 -0.17994,-0.36291 -0.24702,-0.74108c-2.42142,0.49406 -3.80291,0.74108 -4.14447,0.74108c-1.93348,-1.43944 -2.90022,-2.18051 -2.90022,-2.22321c0.32936,-4.32441 0.53674,-6.56895 0.62213,-6.73363h0.0549c1.54313,-0.04268 2.96426,-0.10368 4.26342,-0.18297z" data-paper-data="{&quot;origPos&quot;:null}" fill="#000000" stroke="none" stroke-width="0.26458" stroke-linecap="butt"/><path d="M77.43936,152.04424c2.7508,0.51844 4.19023,0.81425 4.31831,0.88744v0.10977c-0.59163,1.67121 -0.88744,2.53731 -0.88744,2.5983h-0.0549c-0.15248,0 -0.89049,-0.23788 -2.21404,-0.71362c-0.73802,1.23817 -1.10703,1.89994 -1.10703,1.98532l1.82979,1.7749c1.41503,-1.32964 2.13475,-1.99446 2.15915,-1.99446c1.10397,1.44553 1.65596,2.25674 1.65596,2.43363c-0.60383,0.34766 -1.65596,1.03077 -3.15638,2.04936c-2.90327,-0.62822 -4.47079,-0.97894 -4.70256,-1.05214l-1.43638,-4.64766z" data-paper-data="{&quot;origPos&quot;:null}" fill="#000000" stroke="none" stroke-width="0.26458" stroke-linecap="butt"/><path d="M85.44471,152.0351c3.62298,0.50013 5.43449,0.80816 5.43449,0.92405c1.42724,1.22595 2.14085,1.88162 2.14085,1.96702c-0.57943,1.81149 -0.90879,2.91242 -0.9881,3.30277c0.57943,1.28696 0.90879,2.05547 0.9881,2.30554c0,0.07318 -0.9454,0.26835 -2.83618,0.58552c-0.0244,-0.10369 -0.19823,-0.33546 -0.5215,-0.69532c-2.6105,0.50015 -4.01638,0.75022 -4.21767,0.75022l-1.39064,-3.76022l3.0649,-1.61937c0.49404,0.07927 1.26561,0.11891 2.31469,0.11891c0,-0.13419 0.01829,-0.53979 0.0549,-1.21682c-0.17688,0 -1.75659,0.11589 -4.73916,0.34766l-0.0549,-0.11891c0.41475,-1.92738 0.66483,-2.89107 0.75022,-2.89107zM87.34769,157.41469c0,0.06708 0.19518,0.7807 0.58553,2.14085h0.0549c0.76852,-0.50013 1.15277,-0.82949 1.15277,-0.98807l0.11894,-0.97895c-0.14639,0 -0.78375,-0.05794 -1.91212,-0.17383z" data-paper-data="{&quot;origPos&quot;:null}" fill="#000000" stroke="none" stroke-width="0.26458" stroke-linecap="butt"/><path d="M102.02262,152.0351l3.0466,2.09511c-0.21347,3.4766 -0.36291,5.50767 -0.44831,6.09321c-0.35376,0.04268 -1.43028,0.10673 -3.22957,0.19212l-0.06404,-0.12806l-0.32022,-4.88555l-0.12809,-0.06403c-1.16497,0.25008 -1.96703,0.43915 -2.40618,0.56723c0.12198,2.07986 0.18297,3.58334 0.18297,4.51044c-1.8176,0.50624 -2.81178,0.75937 -2.98255,0.75937c-1.18327,-5.2088 -1.7749,-7.9596 -1.7749,-8.25236c2.57391,-0.33545 3.97065,-0.50319 4.19023,-0.50319v0.06403c0.04269,0.0305 0.10674,0.66481 0.19212,1.90297c2.36043,-1.56752 3.60774,-2.35128 3.74192,-2.35128z" data-paper-data="{&quot;origPos&quot;:null}" fill="#000000" stroke="none" stroke-width="0.26458" stroke-linecap="butt"/><path d="M118.74691,152.0351l3.0466,2.09511c-0.21347,3.4766 -0.36291,5.50767 -0.44831,6.09321c-0.35376,0.04268 -1.43028,0.10673 -3.22957,0.19212l-0.06404,-0.12806l-0.32022,-4.88555l-0.12809,-0.06403c-1.16497,0.25008 -1.96703,0.43915 -2.40618,0.56723c0.12198,2.07986 0.18298,3.58334 0.18298,4.51044c-1.8176,0.50624 -2.81178,0.75937 -2.98256,0.75937c-1.18327,-5.2088 -1.77491,-7.9596 -1.77491,-8.25236c2.57391,-0.33545 3.97065,-0.50319 4.19023,-0.50319v0.06403c0.04269,0.0305 0.10674,0.66481 0.19212,1.90297c2.36043,-1.56752 3.60774,-2.35128 3.74192,-2.35128z" data-paper-data="{&quot;origPos&quot;:null}" fill="#000000" stroke="none" stroke-width="0.26458" stroke-linecap="butt"/><path d="M126.3863,152.04424c2.31773,0.62213 3.54675,1.00029 3.68703,1.13448c1.27475,1.80539 1.99143,2.84532 2.15001,3.11978c-0.82341,2.61051 -1.2961,3.91577 -1.41809,3.91577c-2.74469,0.64042 -4.18109,0.96063 -4.30916,0.96063c-2.26894,-1.32356 -3.4766,-2.06156 -3.62298,-2.21404c-0.0793,-2.46413 -0.11894,-3.82429 -0.11894,-4.08045c-0.0366,-0.07318 -0.0549,-0.12807 -0.0549,-0.16468c2.34213,-1.78099 3.55284,-2.67149 3.63214,-2.67149zM126.21247,155.39277c-0.0366,0.24398 -0.09148,1.13143 -0.16468,2.66235l2.04021,0.45745c0.48794,-1.52483 0.73191,-2.33908 0.73191,-2.44277c-1.62241,-0.48794 -2.49157,-0.73193 -2.60744,-0.73193z" data-paper-data="{&quot;origPos&quot;:null}" fill="#000000" stroke="none" stroke-width="0.26458" stroke-linecap="butt"/><path d="M137.07229,152.0351c0.0793,0.10369 0.491,1.87248 1.23511,5.3064h0.06405c0,-0.07927 0.45134,-0.77765 1.35404,-2.09511c0.37816,0.25617 1.09788,0.81121 2.15916,1.6651h0.12809v-0.06403c0.16468,-2.37874 0.28666,-3.69619 0.36596,-3.95235c2.51292,0.12807 3.76937,0.23176 3.76937,0.31106c-1.15277,4.63548 -1.76879,7.04469 -1.8481,7.22767c-0.38425,0.04268 -1.18936,0.16468 -2.41532,0.36597c-1.00638,-1.57971 -1.58277,-2.42142 -1.72915,-2.52511c-0.65872,1.75661 -1.07043,2.72333 -1.23511,2.90022h-2.47022c-0.15248,-0.04879 -0.8722,-1.63461 -2.15916,-4.75746c-0.82341,-1.74441 -1.23511,-2.6898 -1.23511,-2.83617c0,-0.13419 1.33881,-0.64959 4.01639,-1.54618z" data-paper-data="{&quot;origPos&quot;:null}" fill="#000000" stroke="none" stroke-width="0.26458" stroke-linecap="butt"/><path d="M155.3519,152.0351c1.49434,3.42781 2.29029,5.20576 2.38787,5.33384c0.73802,-2.79959 1.16802,-4.29086 1.29002,-4.47383c2.32994,0.21347 3.4949,0.39646 3.4949,0.54894v0.06403c-1.63461,4.48909 -2.51292,6.84037 -2.6349,7.05384c-1.8054,0.32936 -3.01305,0.53368 -3.62298,0.61298l-4.47384,-6.62385v-0.12806c0.04269,-0.07927 1.22902,-0.87523 3.55895,-2.38787z" data-paper-data="{&quot;origPos&quot;:null}" fill="#000000" stroke="none" stroke-width="0.26458" stroke-linecap="butt"/><path d="M164.76619,148.36637l3.59554,0.56723c-0.45134,1.72609 -0.74717,2.58915 -0.88744,2.58915c-1.89079,-0.12807 -2.83617,-0.25311 -2.83617,-0.37511v-2.65318c0.01829,-0.08538 0.06099,-0.12807 0.1281,-0.12807zM163.7598,152.72126h0.0549c2.78129,0.50624 4.17192,0.80205 4.17192,0.88744c-0.79901,4.52568 -1.2839,7.04775 -1.45469,7.56619h-2.90022c-0.0854,0 -0.12809,-0.04268 -0.12809,-0.12806z" data-paper-data="{&quot;origPos&quot;:null}" fill="#000000" stroke="none" stroke-width="0.26458" stroke-linecap="butt"/><path d="M176.04685,152.0351c1.7566,1.12226 2.72639,1.76879 2.90936,1.93958c-0.63433,1.40894 -0.99724,2.11341 -1.08873,2.11341l-3.33022,-1.93044h-0.11893c0,0.06098 -0.14333,0.40254 -0.42999,1.02469c3.06795,1.65292 4.60192,2.50072 4.60192,2.54342c-0.86,1.98837 -1.3449,3.03746 -1.45469,3.14724l-5.20576,0.30191c-2.02498,-1.34186 -3.1137,-2.04936 -3.26618,-2.12256v-0.05488c0,-0.15248 0.30192,-0.83866 0.90575,-2.05851l4.06213,2.11341l0.30192,-1.20767c-2.51292,-1.12837 -4.00724,-1.83284 -4.48298,-2.11341v-0.12806c0,-0.23178 0.48489,-1.25952 1.45469,-3.08321z" data-paper-data="{&quot;origPos&quot;:null}" fill="#000000" stroke="none" stroke-width="0.26458" stroke-linecap="butt"/><path d="M181.12452,148.36637l3.59554,0.56723c-0.45134,1.72609 -0.74716,2.58915 -0.88744,2.58915c-1.89079,-0.12807 -2.83617,-0.25311 -2.83617,-0.37511v-2.65318c0.01829,-0.08538 0.06099,-0.12807 0.12809,-0.12807zM180.11814,152.72126h0.0549c2.78129,0.50624 4.17192,0.80205 4.17192,0.88744c-0.79901,4.52568 -1.2839,7.04775 -1.45469,7.56619h-2.90022c-0.0854,0 -0.1281,-0.04268 -0.1281,-0.12806z" data-paper-data="{&quot;origPos&quot;:null}" fill="#000000" stroke="none" stroke-width="0.26458" stroke-linecap="butt"/><path d="M187.75753,149.2721l4.02555,0.71363l-0.38426,3.05576c0.79901,-0.04268 1.38454,-0.06403 1.75659,-0.06403h0.58554l0.12809,-0.06403l0.06405,0.12806c-0.12809,1.85419 -0.23788,2.89716 -0.32936,3.12894l-0.12809,-0.07317c-0.09149,0 -0.9149,-0.04269 -2.47022,-0.12806c-0.0854,1.43334 -0.14944,3.14726 -0.19212,5.14172l-0.1281,0.06403c-1.96397,-0.12809 -3.13503,-0.23788 -3.5132,-0.32936l0.06404,-0.25618c0,-0.53064 0.0854,-2.17745 0.25617,-4.94043c-1.64681,-0.09147 -2.47022,-0.20126 -2.47022,-0.32936c0.0854,-2.03716 0.19518,-3.05575 0.32936,-3.05575l2.40617,0.45745v-0.78681c0,-0.64044 -0.0244,-1.50654 -0.07319,-2.59832c0.04879,0 0.07319,-0.02135 0.07319,-0.06403z" data-paper-data="{&quot;origPos&quot;:null}" fill="#000000" stroke="none" stroke-width="0.26458" stroke-linecap="butt"/><path d="M206.74161,149.2721c2.19576,1.11007 3.32414,1.66512 3.38513,1.66512c0,0.09757 -0.45745,0.97892 -1.37235,2.64406h-0.06403c-0.07318,0 -1.1253,-0.4971 -3.15638,-1.49128l-1.03383,1.38148c1.7505,0.84171 3.87609,1.91518 6.37681,3.22045c-1.13447,2.01887 -1.93956,3.36071 -2.41532,4.02553l-5.16916,0.45745c-2.36043,-1.59193 -3.60774,-2.41532 -3.74192,-2.47022v-0.06403c0,-0.17077 0.4788,-0.95454 1.43638,-2.35128h0.11893c0.37815,0.22568 1.56447,0.87526 3.55895,1.94873l1.20766,-1.37233c-3.66568,-1.86639 -5.69675,-2.92157 -6.09321,-3.16555v-0.05488c1.16497,-2.26894 1.79931,-3.41866 1.903,-3.44916c3.03135,-0.61604 4.7178,-0.92405 5.05936,-0.92405z" data-paper-data="{&quot;origPos&quot;:null}" fill="#2b70c2" stroke="none" stroke-width="0.26458" stroke-linecap="butt"/><path d="M216.78717,152.0351l0.06403,0.11891l-1.23511,6.55066h0.06403l3.14724,-0.92405v-3.70532c0.0122,-0.08538 0.05183,-0.12806 0.11891,-0.12806c2.36652,0.16469 3.68397,0.24704 3.95234,0.24704c0,0.04268 0.02136,0.06403 0.06404,0.06403c0,1.04298 -0.32936,3.20519 -0.9881,6.48661c0,0.18908 -0.9454,0.33241 -2.83617,0.43001c-0.09757,-0.11589 -0.1799,-0.36291 -0.24702,-0.74108c-2.42144,0.49406 -3.80292,0.74108 -4.14448,0.74108c-1.93347,-1.43944 -2.90022,-2.18051 -2.90022,-2.22321c0.32936,-4.32441 0.53673,-6.56895 0.62213,-6.73363h0.05488c1.54313,-0.04268 2.96426,-0.10368 4.26342,-0.18297z" data-paper-data="{&quot;origPos&quot;:null}" fill="#2b70c2" stroke="none" stroke-width="0.26458" stroke-linecap="butt"/><path d="M234.05124,152.0351c1.48824,0.61604 2.77214,1.19547 3.85172,1.7383c-0.28057,3.62909 -0.4605,5.61441 -0.53979,5.95597c-1.79319,0.44525 -2.79655,0.66788 -3.01002,0.66788c0,-0.7929 -0.06099,-2.35737 -0.18297,-4.69341c-0.67703,0.06708 -1.01553,0.12502 -1.01553,0.17382c0,0.23178 0.03964,1.55533 0.11891,3.97065c0.03659,0 0.05488,0.02135 0.05488,0.06403c0,0.07318 -0.94234,0.27444 -2.82702,0.60382c-0.07927,-0.09757 -0.32019,-1.58275 -0.72276,-4.45554c-0.76242,0.19518 -1.14363,0.33546 -1.14363,0.42086l0.36596,3.73278c-0.07318,0.07927 -1.07651,0.39948 -3.01001,0.96063c-1.12226,-3.97065 -1.82369,-6.63603 -2.10426,-7.99618c2.11647,-0.52455 3.29973,-0.78682 3.5498,-0.78682c0.28057,1.11007 0.42085,1.75052 0.42085,1.92129h0.06403c1.03079,-0.95149 1.7505,-1.59192 2.15916,-1.92129h0.06403l1.92129,1.3815h0.06403c1.20156,-1.15886 1.84198,-1.7383 1.92127,-1.7383z" data-paper-data="{&quot;origPos&quot;:null}" fill="#2b70c2" stroke="none" stroke-width="0.26458" stroke-linecap="butt"/><path d="M248.98236,152.0351c1.48824,0.61604 2.77214,1.19547 3.8517,1.7383c-0.28057,3.62909 -0.46049,5.61441 -0.53979,5.95597c-1.79319,0.44525 -2.79653,0.66788 -3.01,0.66788c0,-0.7929 -0.06098,-2.35737 -0.18297,-4.69341c-0.67703,0.06708 -1.01553,0.12502 -1.01553,0.17382c0,0.23178 0.03964,1.55533 0.11891,3.97065c0.03659,0 0.05488,0.02135 0.05488,0.06403c0,0.07318 -0.94234,0.27444 -2.82702,0.60382c-0.07927,-0.09757 -0.3202,-1.58275 -0.72278,-4.45554c-0.76241,0.19518 -1.14361,0.33546 -1.14361,0.42086l0.36595,3.73278c-0.07318,0.07927 -1.07651,0.39948 -3.01,0.96063c-1.12228,-3.97065 -1.82369,-6.63603 -2.10426,-7.99618c2.11645,-0.52455 3.29971,-0.78682 3.54979,-0.78682c0.28057,1.11007 0.42086,1.75052 0.42086,1.92129h0.06403c1.03079,-0.95149 1.7505,-1.59192 2.15916,-1.92129h0.06403l1.92129,1.3815h0.06403c1.20156,-1.15886 1.84199,-1.7383 1.92129,-1.7383z" data-paper-data="{&quot;origPos&quot;:null}" fill="#2b70c2" stroke="none" stroke-width="0.26458" stroke-linecap="butt"/><path d="M255.01153,148.36637l3.59554,0.56723c-0.45136,1.72609 -0.74717,2.58915 -0.88746,2.58915c-1.89077,-0.12807 -2.83617,-0.25311 -2.83617,-0.37511v-2.65318c0.01829,-0.08538 0.06098,-0.12807 0.12806,-0.12807zM254.00515,152.72126h0.05488c2.78129,0.50624 4.17193,0.80205 4.17193,0.88744c-0.79901,4.52568 -1.28392,7.04775 -1.45469,7.56619h-2.90022c-0.08538,0 -0.12806,-0.04268 -0.12806,-0.12806z" data-paper-data="{&quot;origPos&quot;:null}" fill="#2b70c2" stroke="none" stroke-width="0.26458" stroke-linecap="butt"/><path d="M261.64453,149.2721l4.02555,0.71363l-0.38425,3.05576c0.79901,-0.04268 1.38453,-0.06403 1.75659,-0.06403h0.58554l0.12806,-0.06403l0.06403,0.12806c-0.12807,1.85419 -0.23787,2.89716 -0.32936,3.12894l-0.12806,-0.07317c-0.09147,0 -0.91487,-0.04269 -2.47021,-0.12806c-0.08538,1.43334 -0.14943,3.14726 -0.19214,5.14172l-0.12806,0.06403c-1.96399,-0.12809 -3.13505,-0.23788 -3.5132,-0.32936l0.06403,-0.25618c0,-0.53064 0.0854,-2.17745 0.25619,-4.94043c-1.64681,-0.09147 -2.47022,-0.20126 -2.47022,-0.32936c0.08538,-2.03716 0.19516,-3.05575 0.32936,-3.05575l2.40618,0.45745v-0.78681c0,-0.64044 -0.02439,-1.50654 -0.07318,-2.59832c0.04879,0 0.07318,-0.02135 0.07318,-0.06403z" data-paper-data="{&quot;origPos&quot;:null}" fill="#2b70c2" stroke="none" stroke-width="0.26458" stroke-linecap="butt"/><path d="M280.62862,149.2721c2.19575,1.11007 3.32412,1.66512 3.38511,1.66512c0,0.09757 -0.45745,0.97892 -1.37233,2.64406h-0.06403c-0.07318,0 -1.12532,-0.4971 -3.1564,-1.49128l-1.03383,1.38148c1.7505,0.84171 3.87611,1.91518 6.37683,3.22045c-1.13448,2.01887 -1.93958,3.36071 -2.41532,4.02553l-5.16916,0.45745c-2.36044,-1.59193 -3.60774,-2.41532 -3.74193,-2.47022v-0.06403c0,-0.17077 0.4788,-0.95454 1.43638,-2.35128h0.11891c0.37815,0.22568 1.56447,0.87526 3.55894,1.94873l1.20767,-1.37233c-3.66569,-1.86639 -5.69676,-2.92157 -6.0932,-3.16555v-0.05488c1.16496,-2.26894 1.79929,-3.41866 1.90298,-3.44916c3.03135,-0.61604 4.71782,-0.92405 5.05938,-0.92405z" data-paper-data="{&quot;origPos&quot;:null}" fill="#2b70c2" stroke="none" stroke-width="0.26458" stroke-linecap="butt"/><path d="M289.32926,152.04424c2.75079,0.51844 4.19023,0.81425 4.31832,0.88744v0.10977c-0.59163,1.67121 -0.88746,2.53731 -0.88746,2.5983h-0.05488c-0.15248,0 -0.8905,-0.23788 -2.21406,-0.71362c-0.73802,1.23817 -1.10702,1.89994 -1.10702,1.98532l1.8298,1.7749c1.41503,-1.32964 2.13476,-1.99446 2.15915,-1.99446c1.10397,1.44553 1.65596,2.25674 1.65596,2.43363c-0.60382,0.34766 -1.65596,1.03077 -3.15638,2.04936c-2.90327,-0.62822 -4.4708,-0.97894 -4.70257,-1.05214l-1.4364,-4.64766z" data-paper-data="{&quot;origPos&quot;:null}" fill="#2b70c2" stroke="none" stroke-width="0.26458" stroke-linecap="butt"/><path d="M302.51293,152.0351c1.20765,0.67703 1.94873,1.11617 2.22321,1.31745c-0.98809,2.05545 -1.51873,3.10148 -1.59193,3.13809h-0.06403l-1.30831,-1.14363l-1.54618,1.88468l0.17383,3.43086c-0.07927,0.07318 -1.08872,0.24397 -3.02831,0.51235c-0.07318,-0.52453 -0.54892,-3.09539 -1.42723,-7.71257c0,-0.07318 1.27475,-0.26226 3.82426,-0.56723c0.04268,0.04879 0.15857,0.61907 0.34767,1.71085c1.52483,-1.71391 2.32382,-2.57086 2.39702,-2.57086z" data-paper-data="{&quot;origPos&quot;:null}" fill="#2b70c2" stroke="none" stroke-width="0.26458" stroke-linecap="butt"/><path d="M306.84954,152.0351c3.62298,0.50013 5.43447,0.80816 5.43447,0.92405c1.42725,1.22595 2.14086,1.88162 2.14086,1.96702c-0.57943,1.81149 -0.90879,2.91242 -0.98809,3.30277c0.57943,1.28696 0.90879,2.05547 0.98809,2.30554c0,0.07318 -0.94539,0.26835 -2.83617,0.58552c-0.02439,-0.10369 -0.19823,-0.33546 -0.5215,-0.69532c-2.6105,0.50015 -4.01639,0.75022 -4.21767,0.75022l-1.39065,-3.76022l3.0649,-1.61937c0.49406,0.07927 1.26561,0.11891 2.31469,0.11891c0,-0.13419 0.01829,-0.53979 0.05488,-1.21682c-0.17688,0 -1.75661,0.11589 -4.73917,0.34766l-0.05489,-0.11891c0.41476,-1.92738 0.66483,-2.89107 0.75023,-2.89107zM308.75252,157.41469c0,0.06708 0.19518,0.7807 0.58554,2.14085h0.05489c0.76851,-0.50013 1.15277,-0.82949 1.15277,-0.98807l0.11891,-0.97895c-0.14639,0 -0.78377,-0.05794 -1.91214,-0.17383z" data-paper-data="{&quot;origPos&quot;:null}" fill="#2b70c2" stroke="none" stroke-width="0.26458" stroke-linecap="butt"/><path d="M315.30316,149.28126c1.86639,0.03659 3.23568,0.05488 4.10789,0.05488c0.07927,0 0.3202,3.74498 0.72276,11.23492c-0.31106,0.07927 -1.39674,0.28055 -3.25702,0.60384c-0.09147,0 -0.39339,-2.29334 -0.90575,-6.88001c-0.04268,-0.10978 -0.26532,-1.781 -0.66788,-5.01363z" data-paper-data="{&quot;origPos&quot;:null}" fill="#2b70c2" stroke="none" stroke-width="0.26458" stroke-linecap="butt"/><path d="M322.54913,152.0351c3.623,0.50013 5.43449,0.80816 5.43449,0.92405c1.42723,1.22595 2.14085,1.88162 2.14085,1.96702c-0.57943,1.81149 -0.90879,2.91242 -0.98808,3.30277c0.57943,1.28696 0.90879,2.05547 0.98808,2.30554c0,0.07318 -0.9454,0.26835 -2.83617,0.58552c-0.02439,-0.10369 -0.19824,-0.33546 -0.5215,-0.69532c-2.6105,0.50015 -4.01639,0.75022 -4.21767,0.75022l-1.39065,-3.76022l3.06492,-1.61937c0.49404,0.07927 1.26559,0.11891 2.31467,0.11891c0,-0.13419 0.0183,-0.53979 0.05489,-1.21682c-0.17688,0 -1.75659,0.11589 -4.73917,0.34766l-0.05488,-0.11891c0.41476,-1.92738 0.66483,-2.89107 0.7502,-2.89107zM324.45213,157.41469c0,0.06708 0.19517,0.7807 0.58552,2.14085h0.05489c0.76851,-0.50013 1.15277,-0.82949 1.15277,-0.98807l0.11891,-0.97895c-0.14639,0 -0.78375,-0.05794 -1.91213,-0.17383z" data-paper-data="{&quot;origPos&quot;:null}" fill="#2b70c2" stroke="none" stroke-width="0.26458" stroke-linecap="butt"/><path d="M337.50771,152.0351h0.03659c1.62851,0.95758 2.50683,1.45773 2.63491,1.50042v0.08233c-0.42084,0.48184 -1.19547,1.31745 -2.32384,2.50681c2.21406,0.82342 3.45832,1.3205 3.73278,1.49128l-2.06766,2.55257c-1.39674,-1.19547 -2.28725,-1.94263 -2.67151,-2.2415c-0.9454,1.842 -1.53397,2.92462 -1.76574,3.24788h-0.03659c-1.7505,-0.61604 -2.70199,-0.98198 -2.85447,-1.09787v-0.04574l2.41533,-3.15638c-2.24454,-0.9271 -3.44612,-1.46993 -3.60471,-1.62851c0.98809,-1.6773 1.54312,-2.57086 1.66512,-2.68064c0.0183,0.04268 1.10397,0.78985 3.25704,2.24149c0.76241,-1.40894 1.28999,-2.33299 1.58276,-2.77213z" data-paper-data="{&quot;origPos&quot;:null}" fill="#2b70c2" stroke="none" stroke-width="0.26458" stroke-linecap="butt"/><path d="M346.62921,152.05339c0.08538,0.0122 0.12806,0.05488 0.12806,0.12806l-0.95149,5.26979c1.8176,-0.21347 2.72639,-0.38426 2.72639,-0.51234c0.34156,-2.11037 0.57638,-3.29364 0.70447,-3.5498c2.25065,0.46355 3.49794,0.73802 3.74192,0.82342c-1.31136,4.50738 -2.03108,6.85562 -2.15916,7.04469c-2.29334,1.61022 -3.58334,2.50072 -3.87002,2.67149c-0.08538,0 -1.54616,-0.35985 -4.38235,-1.07958v-0.06403c0.75022,-1.65292 1.21681,-2.47938 1.39979,-2.47938l2.79044,1.3998l1.33574,-2.28725c-1.20157,0.29887 -1.89994,0.4483 -2.09511,0.4483l-3.55894,-1.8481c0.43305,-3.97674 0.70751,-5.96511 0.8234,-5.96511z" data-paper-data="{&quot;origPos&quot;:null}" fill="#2b70c2" stroke="none" stroke-width="0.26458" stroke-linecap="butt"/><path d="M357.90074,149.61062l0.03659,0.07318c-0.60993,5.38568 -0.95148,8.21577 -1.02468,8.49023c-1.29305,-0.12198 -2.11035,-0.20738 -2.45191,-0.25617v-0.03659l-0.58555,-7.64854c0.14639,-0.04879 1.48824,-0.25617 4.02555,-0.62213zM354.27776,158.35703c0.04268,0.02439 0.99417,0.09758 2.85447,0.21958l0.03659,0.07318c-0.28668,1.6834 -0.46965,2.5251 -0.54894,2.5251h-2.12257c-0.07318,0 -0.17075,-0.8417 -0.29275,-2.5251c-0.02439,0 -0.03659,-0.07319 -0.03659,-0.21958c0.07318,-0.02439 0.10977,-0.04879 0.10977,-0.07318z" data-paper-data="{&quot;origPos&quot;:null}" fill="#000000" stroke="none" stroke-width="0.26458" stroke-linecap="butt"/></g></g></svg>