<svg version="1.1" xmlns="http://www.w3.org/2000/svg" xmlns:xlink="http://www.w3.org/1999/xlink" width="86.1865" height="91.90881" viewBox="0,0,86.1865,91.90881"><g transform="translate(-196.90675,-134.0456)"><g data-paper-data="{&quot;isPaintingLayer&quot;:true}" fill-rule="nonzero" stroke-linejoin="miter" stroke-miterlimit="10" stroke-dasharray="" stroke-dashoffset="0" style="mix-blend-mode: normal"><path d="" data-paper-data="{&quot;origPos&quot;:null}" fill="#000000" stroke="none" stroke-width="1" stroke-linecap="butt"/><g><path d="M266.6181,201.71661c-8.94282,11.0644 -18.79643,20.73177 -29.37285,23.13025c-14.08291,3.19269 -27.24922,-0.86593 -36.88591,-7.711c-4.53488,-3.24062 -4.27864,-12.65521 -1.10905,-19.33095c5.64323,-11.87549 16.19415,-21.41906 24.99386,-31.92582c8.16345,-9.74635 15.43649,-21.45873 25.56185,-28.28759c6.11777,-4.12552 14.57952,-4.838 18.55882,-1.14665c8.11656,7.52891 15.15612,18.42605 14.70815,31.70063c-0.36968,10.9223 -7.51201,22.5064 -16.45486,33.57115z" fill="#ffc138" stroke="none" stroke-width="0.49674" stroke-linecap="round"/><path d="M230.39875,170.23807c-4.84076,5.98948 -9.19457,10.20638 -15.22716,13.06628c-3.13578,1.48806 -7.51512,0.9156 -10.11085,-1.31356c-2.74368,-2.08638 -4.2945,-6.24709 -3.50823,-9.69393c1.48254,-6.51022 4.74074,-11.6396 9.58185,-17.62908c4.84076,-5.98948 9.07905,-10.45986 15.22716,-13.06628c3.32511,-1.41046 7.74479,0.00552 10.54056,2.25674c2.39745,1.94603 3.83344,5.7091 3.07854,8.75075c-1.60807,6.48192 -4.74109,11.6396 -9.58185,17.62908z" fill="#ffdea8" stroke="none" stroke-width="0.3841" stroke-linecap="butt"/><path d="M261.56316,194.61393c-3.14715,3.89412 -7.37788,6.30708 -11.67204,7.06164c-4.29381,0.75281 -8.64937,-0.15277 -12.04586,-2.89784c-3.39649,-2.74506 -5.19527,-6.81369 -5.3601,-11.17025c-0.16242,-4.35658 1.30942,-8.99939 4.45658,-12.89317c3.14715,-3.89378 7.37788,-6.30675 11.67167,-7.06164c4.29416,-0.75281 8.64937,0.15277 12.04586,2.89784c3.39649,2.74541 5.1956,6.81369 5.3601,11.17025c0.16277,4.35658 -1.30907,8.99939 -4.45625,12.89317z" fill="#ff5218" stroke="none" stroke-width="0.41318" stroke-linecap="butt"/><path d="M222.05908,225.41932c-0.3352,0.76455 -2.02189,0.40279 -2.94853,0.1714c-3.52858,-0.86421 -7.08544,-1.99328 -10.3471,-3.42373c-2.65608,-1.1639 -5.24629,-2.59299 -7.52891,-4.38175c-1.27493,-1.00146 -2.37606,-2.32399 -2.85611,-3.84135c-0.33762,-0.80247 -0.11414,-2.04224 0.63282,-2.46883c1.9443,-1.09906 3.70962,-2.15191 6.50193,-1.66841c2.79231,0.48383 5.98741,1.96949 8.92248,4.34174c2.93474,2.37192 4.29797,5.05595 6.11603,7.81307c0.68178,1.03631 1.89258,2.40848 1.50737,3.45788z" fill="#ff5218" stroke="none" stroke-width="0.3841" stroke-linecap="round"/><path d="M277.45657,155.24162c-3.07647,-1.20217 -5.98707,-1.96913 -8.92214,-4.34141c-2.93508,-2.37192 -5.05766,-5.18458 -6.11639,-7.81307c-1.0587,-2.62851 -0.39968,-4.57591 0.26726,-6.70713c0.26071,-0.82007 1.42599,-1.29875 2.28123,-1.13699c1.58427,0.1514 3.10819,0.95043 4.3552,1.98706c2.22743,1.85671 4.16794,4.08931 5.86326,6.44228c2.08294,2.88922 3.97517,6.11155 5.51805,9.39874c0.38865,0.82351 0.87558,2.24604 0.19312,2.71092c-0.94008,0.61971 -2.36881,-0.1245 -3.4396,-0.54038z" fill="#ff5218" stroke="none" stroke-width="0.3841" stroke-linecap="round"/><g stroke="none" stroke-width="0.7204"><path d="M229.3604,161.71597c-0.48211,0.6266 -1.24114,0.98974 -1.89153,0.92697c-1.01008,-0.09656 -1.85464,-0.51866 -2.7354,-1.23046c-0.88077,-0.71178 -1.48701,-1.50219 -1.77669,-2.41642c-0.23761,-0.73076 -0.10138,-1.5391 0.42762,-2.10983c0.40831,-0.58868 1.13596,-0.83628 1.88498,-0.75145c0.95077,0.10276 1.8543,0.51866 2.7354,1.23046c0.88077,0.71214 1.48254,1.44081 1.77669,2.41642c0.19554,0.64248 0.0162,1.42356 -0.42107,1.93431z" fill="#000000" stroke-linecap="round"/><path d="M228.75761,161.15834c-0.25622,0.31727 -0.58454,0.52589 -0.90802,0.60799c-0.32347,0.08207 -0.64211,0.03793 -0.87972,-0.15415c-0.23726,-0.19174 -0.34761,-0.49418 -0.3352,-0.82767c0.0124,-0.33349 0.1476,-0.69833 0.40382,-1.0156c0.25657,-0.31727 0.58487,-0.52556 0.90835,-0.60763c0.32347,-0.08207 0.64211,-0.03793 0.87972,0.15381c0.23726,0.19207 0.34728,0.49451 0.33485,0.828c-0.0124,0.33349 -0.14726,0.69799 -0.40382,1.01525z" fill="#ffffff" stroke-linecap="butt"/></g><g stroke="none" stroke-width="0.7204"><path d="M222.46341,170.16496c-0.48211,0.6266 -1.24114,0.98974 -1.89153,0.92697c-1.01008,-0.09656 -1.85464,-0.51866 -2.7354,-1.23046c-0.88077,-0.71178 -1.48701,-1.50219 -1.77669,-2.41642c-0.23761,-0.73076 -0.10138,-1.5391 0.42762,-2.10983c0.40831,-0.58868 1.13596,-0.83628 1.88498,-0.75145c0.95077,0.10276 1.8543,0.51866 2.7354,1.23046c0.88077,0.71214 1.48254,1.44081 1.77669,2.41642c0.19554,0.64248 0.0162,1.42356 -0.42107,1.93431z" fill="#000000" stroke-linecap="round"/><path d="M221.86047,169.60733c-0.25622,0.31727 -0.58454,0.52589 -0.90802,0.60799c-0.32347,0.08207 -0.64211,0.03793 -0.87972,-0.15415c-0.23726,-0.19174 -0.34761,-0.49418 -0.3352,-0.82767c0.0124,-0.33349 0.1476,-0.69833 0.40382,-1.0156c0.25657,-0.31727 0.58487,-0.52556 0.90835,-0.60763c0.32347,-0.08207 0.64211,-0.03793 0.87972,0.15381c0.23726,0.19207 0.34728,0.49451 0.33485,0.828c-0.0124,0.33349 -0.14726,0.69799 -0.40382,1.01525z" fill="#ffffff" stroke-linecap="butt"/></g><path d="M224.80345,153.85632c0,0 -0.18381,1.03491 -0.48383,1.65256c-0.23621,0.48175 -0.59142,0.9149 -0.89629,1.31942c-0.45556,0.57003 -0.8118,1.19838 -1.38356,1.60668c-0.50281,0.35657 -1.95809,0.63144 -1.95809,0.63144" fill="none" stroke="#e1c496" stroke-width="0.3841" stroke-linecap="round"/><path d="M217.56138,162.30532c0,0 -0.18381,1.03491 -0.48383,1.65256c-0.23621,0.48175 -0.59142,0.9149 -0.89629,1.31942c-0.45556,0.57003 -0.8118,1.19838 -1.38356,1.60668c-0.50281,0.35657 -1.95809,0.63144 -1.95809,0.63144" fill="none" stroke="#e1c496" stroke-width="0.3841" stroke-linecap="round"/></g></g></g></svg>