<svg version="1.1" xmlns="http://www.w3.org/2000/svg" xmlns:xlink="http://www.w3.org/1999/xlink" width="143.7336" height="143.73361" viewBox="0,0,143.7336,143.73361"><defs><linearGradient x1="240" y1="110.13321" x2="240" y2="249.86681" gradientUnits="userSpaceOnUse" id="color-1"><stop offset="0" stop-color="#3c94ed"/><stop offset="1" stop-color="#337fcc"/></linearGradient><linearGradient x1="193.57063" y1="156.97873" x2="191.46396" y2="174.3588" gradientUnits="userSpaceOnUse" id="color-2"><stop offset="0" stop-color="#b44b44"/><stop offset="1" stop-color="#b44b44"/></linearGradient><linearGradient x1="272.05846" y1="135.35828" x2="272.05846" y2="177.74613" gradientUnits="userSpaceOnUse" id="color-3"><stop offset="0" stop-color="#ffae82"/><stop offset="1" stop-color="#db8b67"/></linearGradient><linearGradient x1="235.6025" y1="134.39524" x2="235.6025" y2="177.67825" gradientUnits="userSpaceOnUse" id="color-4"><stop offset="0" stop-color="#ffae82"/><stop offset="1" stop-color="#db8b67"/></linearGradient></defs><g transform="translate(-168.1332,-108.1332)"><g data-paper-data="{&quot;isPaintingLayer&quot;:true}" fill-rule="nonzero" stroke-linejoin="miter" stroke-miterlimit="10" stroke-dasharray="" stroke-dashoffset="0" style="mix-blend-mode: normal"><path d="M240,110.13321c19.2752,0 36.74421,7.8268 49.3899,20.47689c12.64989,12.64569 20.4769,30.11449 20.4769,49.38991c0,19.27542 -7.82701,36.74421 -20.4769,49.38991c-12.64569,12.65009 -30.1147,20.4769 -49.3899,20.4769c-19.27542,0 -36.74442,-7.8268 -49.39012,-20.4769c-12.64989,-12.64569 -20.47668,-30.11449 -20.47668,-49.38991c0,-19.27542 7.82679,-36.74421 20.47668,-49.38991c12.64569,-12.6501 30.11471,-20.47689 49.39012,-20.47689z" data-paper-data="{&quot;origPos&quot;:null}" id="ID0.4039921844378114" fill="url(#color-1)" stroke="#23568d" stroke-width="4" stroke-linecap="butt"/><path d="M193.57063,156.97873l97.9604,11.87399l-2.10668,17.38007l-97.9604,-11.87399z" data-paper-data="{&quot;origPos&quot;:null,&quot;origRot&quot;:0}" id="ID0.18447983544319868" fill="#ff6b61" stroke="url(#color-2)" stroke-width="5" stroke-linecap="butt"/><g data-paper-data="{&quot;origPos&quot;:null,&quot;origRot&quot;:0}" id="ID0.5973279047757387" fill="none" stroke="#4d5c99" stroke-width="5" stroke-linecap="round"><path d="M198.42076,190.88042l12.16605,1.47467" id="ID0.14810920041054487"/><path d="M242.89315,196.31109l-12.16605,-1.47467" id="ID0.14810920041054487"/><path d="M277.11465,200.33891l-12.16605,-1.47467" id="ID0.14810920041054487"/></g><g data-paper-data="{&quot;origPos&quot;:null,&quot;origRot&quot;:0}" id="ID0.5973279047757387" fill="none" stroke="#4d5c99" stroke-width="5" stroke-linecap="round"><path d="M195.87479,208.24732l12.16605,1.47467" id="ID0.14810920041054487"/><path d="M228.18114,212.20331l12.16605,1.47467" id="ID0.14810920041054487"/><path d="M274.56869,217.70581l-12.16605,-1.47467" id="ID0.14810920041054487"/></g><path d="M286.04648,205.34943l-1.15867,9.55904" data-paper-data="{&quot;origPos&quot;:null,&quot;origRot&quot;:0}" id="ID0.6072141025215387" fill="none" stroke="#4d5c99" stroke-width="5" stroke-linecap="round"/><path d="M186.93818,203.27628l1.15867,-9.55904" data-paper-data="{&quot;origPos&quot;:null,&quot;origRot&quot;:0}" id="ID0.6072141025215387" fill="none" stroke="#4d5c99" stroke-width="5" stroke-linecap="round"/><path d="M268.33181,135.35828c9.70979,2.50973 14.65382,3.94228 14.83351,4.33679c0,0.2146 2.36472,4.5863 7.05925,13.04134c-2.97545,9.67511 -4.55138,14.7255 -4.83766,15.15655c0,0 -5.40976,8.02609 -5.84105,7.48844l-11.42887,2.36472c-8.06263,-4.40639 -12.32587,-6.87934 -12.82674,-7.48844c-0.28791,-3.08182 -0.75387,-11.68023 -1.39789,-25.83341c7.5948,-4.98058 12.43248,-8.02585 14.43946,-9.066zM270.83944,147.14673l-6.23369,6.30701c0.53764,6.55651 0.78715,10.56862 0.78715,12.00305c0.14313,0 1.50611,0.93192 4.01374,2.75923c3.33156,-0.71733 5.01549,-1.2182 5.01549,-1.54102l3.83429,-12.82675c-1.03852,-3.0106 -1.89876,-4.51485 -2.61609,-4.51485z" data-paper-data="{&quot;origPos&quot;:null}" id="path4556" fill="url(#color-3)" stroke="#ab7356" stroke-width="2.5" stroke-linecap="butt"/><path d="M236.4618,134.39524c8.13431,0.89515 12.18297,1.46934 12.18297,1.72071c0.10822,17.87901 0.14314,31.52945 0.14314,40.98811v0.28791l-0.14314,0.28628l-12.61215,-0.42918c0,-0.10823 -0.03491,-0.14501 -0.14314,-0.14501c0.57233,-15.98025 0.86047,-24.47044 0.86047,-25.5106l-4.30002,4.15712c-0.25137,-0.14314 -3.58292,-3.69114 -10.03284,-10.60517c5.05203,-4.01397 9.74656,-7.59667 14.04472,-10.75017z" data-paper-data="{&quot;origPos&quot;:null}" id="path4538" fill="url(#color-4)" stroke="#ab7356" stroke-width="2.5" stroke-linecap="butt"/></g></g></svg>