<svg version="1.1" xmlns="http://www.w3.org/2000/svg" xmlns:xlink="http://www.w3.org/1999/xlink" width="490.06539" height="390.63687" viewBox="0,0,490.06539,390.63687"><defs><linearGradient x1="197.9601" y1="223.0481" x2="197.9601" y2="362.0481" gradientUnits="userSpaceOnUse" id="color-1"><stop offset="0" stop-color="#ea742e"/><stop offset="1" stop-color="#c37f10"/></linearGradient><linearGradient x1="485.7266" y1="156.4272" x2="485.7266" y2="204.9272" gradientUnits="userSpaceOnUse" id="color-2"><stop offset="0" stop-color="#ea742e"/><stop offset="1" stop-color="#c37f10"/></linearGradient><linearGradient x1="273" y1="83.9829" x2="273" y2="361.0829" gradientUnits="userSpaceOnUse" id="color-3"><stop offset="0" stop-color="#ea742e"/><stop offset="1" stop-color="#c37f10"/></linearGradient><linearGradient x1="416.5" y1="-17.162" x2="416.5" y2="204.838" gradientUnits="userSpaceOnUse" id="color-4"><stop offset="0" stop-color="#ea742e"/><stop offset="1" stop-color="#c37f10"/></linearGradient><linearGradient x1="482.2734" y1="303.9101" x2="482.2734" y2="371.0101" gradientUnits="userSpaceOnUse" id="color-5"><stop offset="0" stop-color="#ea742e"/><stop offset="1" stop-color="#c37f10"/></linearGradient></defs><g transform="translate(3.12991,18.21656)"><g data-paper-data="{&quot;isPaintingLayer&quot;:true}" fill="none" fill-rule="nonzero" stroke="none" stroke-width="none" stroke-linecap="none" stroke-linejoin="miter" stroke-miterlimit="10" stroke-dasharray="" stroke-dashoffset="0" font-family="none" font-weight="none" font-size="none" text-anchor="none" style="mix-blend-mode: normal"><path d="M197.9601,362.0481h-200v-139h200z" id="ID0.17253359453752637" fill="url(#color-1)" stroke="#964f17" stroke-width="2.18003" stroke-linecap="butt"/><path d="M485.7266,204.9272h-126.05v-48.5h126.05z" id="ID0.17253359453752637" fill="url(#color-2)" stroke="#964f17" stroke-width="2.41774" stroke-linecap="butt"/><path d="M273,361.0829h-79v-277.1h79z" data-paper-data="{&quot;origPos&quot;:null}" id="ID0.17253359453752637" fill="url(#color-3)" stroke="#964f17" stroke-width="2.73437" stroke-linecap="butt"/><path d="M416.5,204.838h-79v-222h79z" id="ID0.17253359453752637" fill="url(#color-4)" stroke="#964f17" stroke-width="2.10912" stroke-linecap="butt"/><path d="M482.2734,371.0101h-142.55v-67.1h142.55z" id="ID0.17253359453752637" fill="url(#color-5)" stroke="#964f17" stroke-width="2.82042" stroke-linecap="butt"/><g stroke="#674116"><path d="M234,218c7.311,0 13.936,2.969 18.733,7.767c4.798,4.797 7.767,11.422 7.767,18.733c0,7.311 -2.969,13.936 -7.767,18.733c-4.797,4.798 -11.422,7.767 -18.733,7.767c-7.311,0 -13.936,-2.969 -18.733,-7.767c-4.798,-4.797 -7.767,-11.422 -7.767,-18.733c0,-7.311 2.969,-13.936 7.767,-18.733c4.797,-4.798 11.422,-7.767 18.733,-7.767z" data-paper-data="{&quot;origPos&quot;:null}" id="ID0.7821869030594826" fill="none" stroke-width="2" stroke-linecap="butt"/><path d="M221,228.5h11l-1.5,23l19,-2l-1.5,11l-27,-1z" data-paper-data="{&quot;origPos&quot;:null}" id="ID0.7211763034574687" fill="#664215" stroke-width="1" stroke-linecap="round"/><path d="M219,180h-11.5l26,-33l26.5,33h-11.5v26.5h-29.5z" data-paper-data="{&quot;origPos&quot;:null}" id="ID0.818852954544127" fill="none" stroke-width="2" stroke-linecap="round"/></g></g></g></svg>