<svg version="1.1" xmlns="http://www.w3.org/2000/svg" xmlns:xlink="http://www.w3.org/1999/xlink" width="437" height="90.79587" viewBox="0,0,437,90.79587"><defs><linearGradient x1="240" y1="135.60206" x2="240" y2="224.39795" gradientUnits="userSpaceOnUse" id="color-1"><stop offset="0" stop-color="#ffffff"/><stop offset="1" stop-color="#d8d8d8"/></linearGradient><linearGradient x1="240" y1="135.60208" x2="240" y2="224.39795" gradientUnits="userSpaceOnUse" id="color-2"><stop offset="0" stop-color="#343434"/><stop offset="1" stop-color="#090909"/></linearGradient><radialGradient cx="443.8065" cy="206.54466" r="17.9081" gradientUnits="userSpaceOnUse" id="color-3"><stop offset="0" stop-color="#ffffff"/><stop offset="1" stop-color="#e5e5e5"/></radialGradient></defs><g transform="translate(-21.5,-134.60208)"><g data-paper-data="{&quot;isPaintingLayer&quot;:true}" fill-rule="nonzero" stroke-linejoin="miter" stroke-miterlimit="10" stroke-dasharray="" stroke-dashoffset="0" style="mix-blend-mode: normal"><path d="M22.5,224.39795v-88.79587h435v88.79587z" data-paper-data="{&quot;origPos&quot;:null}" fill="url(#color-1)" stroke="url(#color-2)" stroke-width="2" stroke-linecap="butt"/><g data-paper-data="{&quot;origPos&quot;:null}"><path d="M444.3058,202.09868c2.5136,0 4.7909,1.0212 6.4406,2.6702c1.6489,1.6496 2.6702,3.9269 2.6702,6.4405c0,2.5136 -1.0213,4.791 -2.6702,6.4406c-1.6497,1.649 -3.927,2.6702 -6.4406,2.6702c-2.5136,0 -4.7909,-1.0212 -6.4406,-2.6702c-1.6489,-1.6496 -2.6701,-3.927 -2.6701,-6.4406c0,-2.5136 1.0212,-4.7909 2.6701,-6.4405c1.6497,-1.649 3.927,-2.6702 6.4406,-2.6702z" fill="url(#color-3)" stroke="#000000" stroke-width="2.0785" stroke-linecap="butt"/><path d="M441.2734,206.54886l5.6119,0.4503l1.7321,3.187l-3.6374,2.9446l3.3603,-0.5197l0.7967,3.4642l-7.4479,-0.0693l-1.9053,-2.4249l4.6766,-3.3256l-4.5727,-0.3464z" fill="#000000" stroke="none" stroke-width="0.69284" stroke-linecap="round"/></g><g data-paper-data="{&quot;origPos&quot;:null}" stroke="none" stroke-width="1" stroke-linecap="butt"><path d="M40.36025,149.54563l4.00966,2.96135c-0.5519,2.52042 -0.90102,3.77963 -1.04833,3.77963c-0.03027,0 -0.76581,0.61952 -2.20662,1.85853c-0.89497,-0.0434 -1.91907,-0.10191 -3.07133,-0.17557l-0.12007,3.31145c-0.25124,0.07366 -1.33689,0.15034 -3.25596,0.23005c-0.23206,0 -0.34911,-0.65987 -0.34911,-1.9776c-0.42276,-5.45654 -0.63463,-8.39971 -0.63463,-8.82853c0.71738,-0.15337 2.94317,-0.5398 6.67639,-1.15931zM37.86807,152.15786v3.83511c1.50841,-0.27041 2.26312,-0.42579 2.26312,-0.46918l0.52365,-2.26212c-0.7416,-0.30673 -1.67086,-0.675 -2.78679,-1.10383z" data-paper-data="{&quot;origPos&quot;:null}" fill="#000000"/><path d="M52.02197,152.32333c1.2138,0.68105 1.95841,1.12198 2.23488,1.32478c-0.99385,2.06537 -1.52759,3.11673 -1.60023,3.15405h-0.06458l-1.3157,-1.14923l-1.55383,1.89385l0.17455,3.44867c-0.0797,0.07366 -1.09372,0.24519 -3.04408,0.5156c-0.07366,-0.5277 -0.5519,-3.11168 -1.43476,-7.75296c0,-0.07366 1.2814,-0.26335 3.84419,-0.57008c0.04339,0.04843 0.15942,0.62253 0.35011,1.7193c1.53263,-1.72233 2.33577,-2.58399 2.40943,-2.58399z" data-paper-data="{&quot;origPos&quot;:null}" fill="#000000"/><path d="M60.19769,152.33243c2.77669,1.42871 4.31538,2.26212 4.61606,2.50125c-0.39855,1.86459 -0.63464,2.82413 -0.7083,2.87861h-5.81169v0.1019l1.62748,2.01391l2.55673,-1.30662c0.25124,0.43588 0.61346,1.19564 1.08465,2.28129c-0.21995,0.07366 -1.82927,0.30975 -4.82794,0.7083c-2.48309,-1.63757 -3.73321,-2.48914 -3.75137,-2.55674c0.39855,-3.18231 0.63364,-4.77345 0.7073,-4.77345c2.59408,-1.10383 4.09543,-1.7193 4.50709,-1.84844zM59.59938,154.5582c-0.04944,0.12208 -0.37433,0.61043 -0.97466,1.46201c0,0.25729 0.36122,0.38643 1.08465,0.38643c0,0.03632 0.52466,0.12613 1.57299,0.26637c0.28856,-0.39855 0.43184,-0.63163 0.43184,-0.69821c-0.09182,-0.54585 -0.29058,-0.81928 -0.59732,-0.81928z" data-paper-data="{&quot;origPos&quot;:null}" fill="#000000"/><path d="M73.07222,152.32333c1.7657,1.12803 2.74038,1.77781 2.924,1.94934c-0.63768,1.41661 -1.0019,2.12489 -1.09372,2.12489l-3.34778,-1.94025h-0.11907c0,0.06054 -0.14428,0.40459 -0.43285,1.03015c3.08443,1.66078 4.62614,2.51336 4.62614,2.55573c-0.86468,1.99878 -1.35202,3.05315 -1.462,3.16414l-5.23355,0.3037c-2.0351,-1.34899 -3.12984,-2.06033 -3.2832,-2.13398v-0.0555c0,-0.15337 0.3037,-0.84249 0.91111,-2.0684l4.08331,2.1239l0.30269,-1.2138c-2.52547,-1.13408 -4.02783,-1.84239 -4.50608,-2.1249v-0.12814c0,-0.23307 0.48735,-1.26626 1.46301,-3.09958z" data-paper-data="{&quot;origPos&quot;:null}" fill="#000000"/><path d="M84.32834,152.32333c1.7657,1.12803 2.74038,1.77781 2.92502,1.94934c-0.63768,1.41661 -1.00292,2.12489 -1.09473,2.12489l-3.34778,-1.94025h-0.11906c0,0.06054 -0.14428,0.40459 -0.43286,1.03015c3.08443,1.66078 4.62614,2.51336 4.62614,2.55573c-0.86468,1.99878 -1.35202,3.05315 -1.462,3.16414l-5.23254,0.3037c-2.03611,-1.34899 -3.12983,-2.06033 -3.28319,-2.13398v-0.0555c0,-0.15337 0.3037,-0.84249 0.91009,-2.0684l4.08331,2.1239l0.30371,-1.2138c-2.52647,-1.13408 -4.02783,-1.84239 -4.50609,-2.1249v-0.12814c0,-0.23307 0.48735,-1.26626 1.46201,-3.09958z" data-paper-data="{&quot;origPos&quot;:null}" fill="#000000"/><path d="M102.22451,149.52746c0.03733,0.0797 0.0555,0.13823 0.0555,0.17455c-0.03733,1.82725 -0.0555,2.88466 -0.0555,3.17322l-0.11906,0.0555c-2.81403,0.07366 -4.42637,0.10997 -4.83804,0.10997l-0.05447,0.12007c0.03632,0.68005 0.05447,1.23801 0.05447,1.67289v0.28555h0.0555l3.74329,-0.46009l0.06458,0.11098v2.82312c0,0.0797 -0.04036,0.11907 -0.12007,0.11907l-3.51324,-0.4046v0.34002c0,0.77286 0.0222,1.92512 0.06457,3.45876c-0.34305,0.0797 -1.38229,0.2139 -3.11773,0.4046c-0.10998,-0.21491 -0.64675,-3.76752 -1.60932,-10.65881h0.0555z" data-paper-data="{&quot;origPos&quot;:null}" fill="#2b70c2"/><path d="M110.70394,149.54563l4.04599,0.71738l-0.38643,3.07234c0.80315,-0.0434 1.39238,-0.06457 1.7657,-0.06457h0.58924l0.12815,-0.06458l0.06458,0.12914c-0.12814,1.86357 -0.23913,2.9119 -0.33095,3.14497l-0.12914,-0.07366c-0.09182,0 -0.91918,-0.0434 -2.48208,-0.12914c-0.08676,1.44081 -0.15033,3.16414 -0.19373,5.16897l-0.12914,0.06458c-1.97356,-0.12914 -3.15102,-0.23913 -3.5304,-0.33196l0.06356,-0.25729c0,-0.53274 0.08577,-2.18846 0.2583,-4.96617c-1.65573,-0.09182 -2.48309,-0.2018 -2.48309,-0.33095c0.08577,-2.04721 0.19575,-3.07133 0.33095,-3.07133l2.41851,0.4601v-0.79104c0,-0.64372 -0.02422,-1.51447 -0.07365,-2.61223c0.04945,0 0.07365,-0.02119 0.07365,-0.06356z" data-paper-data="{&quot;origPos&quot;:null}" fill="#000000"/><path d="M121.59279,152.33243c2.32972,0.62557 3.56471,1.00595 3.70597,1.14014c1.2814,1.81514 2.00181,2.86044 2.16123,3.1359c-0.82837,2.62434 -1.3036,3.93702 -1.42568,3.93702c-2.75954,0.64372 -4.20339,0.9656 -4.33153,0.9656c-2.28129,-1.33084 -3.49509,-2.07244 -3.6414,-2.22581c-0.07971,-2.47704 -0.12007,-3.84419 -0.12007,-4.10148c-0.03632,-0.07366 -0.05549,-0.12913 -0.05549,-0.16547c2.35495,-1.79093 3.57178,-2.68589 3.65147,-2.68589zM121.36275,155.69836c-0.03733,0.24519 -0.09283,1.13712 -0.16548,2.6758l2.05023,0.46009c0.49035,-1.53263 0.73555,-2.3509 0.73555,-2.45484c-1.6305,-0.49035 -2.50428,-0.73656 -2.62031,-0.73656z" data-paper-data="{&quot;origPos&quot;:null}" fill="#000000"/><path d="M137.93415,152.32333l0.06458,0.12007l-1.24205,6.58456h0.06457l3.16415,-0.92926v-3.72413c0.0121,-0.08577 0.05146,-0.12914 0.11906,-0.12914c2.37916,0.16547 3.70293,0.24821 3.97334,0.24821c0,0.0434 0.02119,0.06457 0.06357,0.06457c0,1.04833 -0.33095,3.22166 -0.99284,6.52c0,0.19069 -0.95045,0.33397 -2.85035,0.43285c-0.09888,-0.11703 -0.18162,-0.36524 -0.24921,-0.74563c-2.43365,0.49641 -3.822,0.74563 -4.16505,0.74563c-1.94429,-1.44686 -2.91594,-2.19251 -2.91594,-2.23488c0.33095,-4.34666 0.5398,-6.60373 0.62557,-6.76921h0.0555c1.55078,-0.04237 2.9795,-0.10392 4.28512,-0.18363z" data-paper-data="{&quot;origPos&quot;:null}" fill="#000000"/><path d="M152.49163,152.32333c1.7657,1.12803 2.74138,1.77781 2.92502,1.94934c-0.63768,1.41661 -1.00291,2.12489 -1.09473,2.12489l-3.34678,-1.94025h-0.12007c0,0.06054 -0.14428,0.40459 -0.43185,1.03015c3.08343,1.66078 4.62515,2.51336 4.62515,2.55573c-0.86368,1.99878 -1.35101,3.05315 -1.462,3.16414l-5.23254,0.3037c-2.0351,-1.34899 -3.12984,-2.06033 -3.2832,-2.13398v-0.0555c0,-0.15337 0.30371,-0.84249 0.9101,-2.0684l4.08331,2.1239l0.30371,-1.2138c-2.52547,-1.13408 -4.02783,-1.84239 -4.50609,-2.1249v-0.12814c0,-0.23307 0.48735,-1.26626 1.46201,-3.09958z" data-paper-data="{&quot;origPos&quot;:null}" fill="#000000"/><path d="M161.54114,152.33243c2.77771,1.42871 4.31639,2.26212 4.61706,2.50125c-0.39855,1.86459 -0.63464,2.82413 -0.7083,2.87861h-5.81169v0.1019l1.62748,2.01391l2.55674,-1.30662c0.25124,0.43588 0.61245,1.19564 1.08464,2.28129c-0.22096,0.07366 -1.83028,0.30975 -4.82794,0.7083c-2.48308,-1.63757 -3.73321,-2.48914 -3.75238,-2.55674c0.39855,-3.18231 0.63464,-4.77345 0.7083,-4.77345c2.59307,-1.10383 4.09544,-1.7193 4.50609,-1.84844zM160.94382,154.5582c-0.04944,0.12208 -0.37433,0.61043 -0.97466,1.46201c0,0.25729 0.36122,0.38643 1.08465,0.38643c0,0.03632 0.52466,0.12613 1.57298,0.26637c0.28757,-0.39855 0.43185,-0.63163 0.43185,-0.69821c-0.09182,-0.54585 -0.29058,-0.81928 -0.59732,-0.81928z" data-paper-data="{&quot;origPos&quot;:null}" fill="#000000"/><path d="M175.89682,152.34149c0.08577,0.0121 0.12914,0.0555 0.12914,0.12914l-0.9565,5.29712c1.82725,-0.21491 2.74038,-0.38644 2.74038,-0.51458c0.34305,-2.12188 0.57915,-3.31145 0.7083,-3.56874c2.26212,0.46615 3.51628,0.7416 3.76146,0.82737c-1.31873,4.5313 -2.04217,6.8913 -2.17031,7.082c-2.30551,1.61839 -3.60204,2.51335 -3.89061,2.68489c-0.08577,0 -1.55382,-0.36121 -4.40517,-1.08464v-0.06458c0.75471,-1.66178 1.22288,-2.49216 1.40753,-2.49216l2.80494,1.4065l1.34193,-2.29843c-1.20774,0.29967 -1.90899,0.45 -2.10573,0.45l-3.57681,-1.85753c0.43487,-3.99756 0.71032,-5.99634 0.82736,-5.99634z" data-paper-data="{&quot;origPos&quot;:null}" fill="#000000"/><path d="M186.88658,152.33243c2.32972,0.62557 3.56471,1.00595 3.70596,1.14014c1.2814,1.81514 2.00181,2.86044 2.16123,3.1359c-0.82736,2.62434 -1.30258,3.93702 -1.42568,3.93702c-2.75853,0.64372 -4.20238,0.9656 -4.33153,0.9656c-2.28028,-1.33084 -3.49408,-2.07244 -3.6414,-2.22581c-0.0797,-2.47704 -0.11907,-3.84419 -0.11907,-4.10148c-0.03733,-0.07366 -0.0555,-0.12913 -0.0555,-0.16547c2.35394,-1.79093 3.57076,-2.68589 3.65046,-2.68589zM186.65653,155.69836c-0.03632,0.24519 -0.09182,1.13712 -0.16547,2.6758l2.05124,0.46009c0.49035,-1.53263 0.73555,-2.3509 0.73555,-2.45484c-1.63151,-0.49035 -2.50428,-0.73656 -2.62132,-0.73656z" data-paper-data="{&quot;origPos&quot;:null}" fill="#000000"/><path d="M198.55638,152.32333l0.06457,0.12007l-1.24104,6.58456h0.06457l3.16315,-0.92926v-3.72413c0.0121,-0.08577 0.05246,-0.12914 0.11907,-0.12914c2.37916,0.16547 3.70396,0.24821 3.97334,0.24821c0,0.0434 0.02119,0.06457 0.06457,0.06457c0,1.04833 -0.33095,3.22166 -0.99385,6.52c0,0.19069 -0.94944,0.33397 -2.85035,0.43285c-0.09787,-0.11703 -0.18061,-0.36524 -0.24821,-0.74563c-2.43466,0.49641 -3.823,0.74563 -4.16606,0.74563c-1.9433,-1.44686 -2.91492,-2.19251 -2.91492,-2.23488c0.33095,-4.34666 0.53879,-6.60373 0.62456,-6.76921h0.0555c1.55078,-0.04237 2.9795,-0.10392 4.28512,-0.18363z" data-paper-data="{&quot;origPos&quot;:null}" fill="#000000"/><path d="M212.29659,152.32333c1.2138,0.68105 1.95841,1.12198 2.23387,1.32478c-0.99284,2.06537 -1.52658,3.11673 -1.59922,3.15405h-0.06457l-1.31571,-1.14923l-1.55382,1.89385l0.17455,3.44867c-0.0797,0.07366 -1.09373,0.24519 -3.04408,0.5156c-0.07366,-0.5277 -0.55191,-3.11168 -1.43476,-7.75296c0,-0.07366 1.2814,-0.26335 3.84419,-0.57008c0.0434,0.04843 0.15942,0.62253 0.35011,1.7193c1.53263,-1.72233 2.33578,-2.58399 2.40944,-2.58399z" data-paper-data="{&quot;origPos&quot;:null}" fill="#000000"/><path d="M227.35049,152.32333c1.7657,1.12803 2.74039,1.77781 2.92502,1.94934c-0.63768,1.41661 -1.00291,2.12489 -1.09473,2.12489l-3.34779,-1.94025h-0.11907c0,0.06054 -0.14428,0.40459 -0.43285,1.03015c3.08444,1.66078 4.62615,2.51336 4.62615,2.55573c-0.86469,1.99878 -1.35203,3.05315 -1.46201,3.16414l-5.23254,0.3037c-2.03611,-1.34899 -3.12983,-2.06033 -3.28319,-2.13398v-0.0555c0,-0.15337 0.3037,-0.84249 0.91009,-2.0684l4.08332,2.1239l0.3037,-1.2138c-2.52647,-1.13408 -4.02783,-1.84239 -4.50609,-2.1249v-0.12814c0,-0.23307 0.48735,-1.26626 1.46201,-3.09958z" data-paper-data="{&quot;origPos&quot;:null}" fill="#2b70c2"/><path d="M235.80168,152.33243c0.19069,0.78498 0.32287,1.2693 0.39553,1.45291c2.71011,-0.6185 4.14183,-0.92825 4.29519,-0.92825c1.84542,2.65461 2.76763,4.03994 2.76763,4.15697l-2.11481,4.48692l-4.55249,-0.72646v0.13823c0.35618,2.72826 0.53375,4.17817 0.53375,4.34969c-0.0434,0 -0.06458,0.0222 -0.06458,0.06457c-0.44092,-0.04237 -0.77187,-0.06457 -0.99284,-0.06457h-0.79103c-0.4601,0 -1.16537,-0.02119 -2.11481,-0.06357c-0.08577,-0.2583 -0.74563,-4.17211 -1.9776,-11.74446c0.20885,-0.08577 1.74755,-0.4601 4.61707,-1.12198zM236.13362,156.09389c0.12208,1.41054 0.23306,2.1148 0.33094,2.1148c1.25618,0.43588 2.02603,0.65383 2.30854,0.65383l0.72645,-3.16414h-0.06457c-0.71738,0.0434 -1.81817,0.17455 -3.30137,0.39552z" data-paper-data="{&quot;origPos&quot;:null}" fill="#2b70c2"/><path d="M249.42182,152.33243c2.77771,1.42871 4.3164,2.26212 4.61707,2.50125c-0.39855,1.86459 -0.63464,2.82413 -0.7083,2.87861h-5.8127v0.1019l1.62849,2.01391l2.55674,-1.30662c0.25124,0.43588 0.61245,1.19564 1.08465,2.28129c-0.22096,0.07366 -1.83028,0.30975 -4.82794,0.7083c-2.48308,-1.63757 -3.73422,-2.48914 -3.75239,-2.55674c0.39855,-3.18231 0.63464,-4.77345 0.7083,-4.77345c2.59307,-1.10383 4.09543,-1.7193 4.50608,-1.84844zM248.82451,154.5582c-0.04944,0.12208 -0.37433,0.61043 -0.97466,1.46201c0,0.25729 0.36122,0.38643 1.08465,0.38643c0,0.03632 0.52466,0.12613 1.57299,0.26637c0.28757,-0.39855 0.43185,-0.63163 0.43185,-0.69821c-0.09182,-0.54585 -0.2916,-0.81928 -0.59732,-0.81928z" data-paper-data="{&quot;origPos&quot;:null}" fill="#2b70c2"/><path d="M258.48947,152.33243c2.76561,0.52165 4.21247,0.81827 4.34061,0.89193v0.11098c-0.59428,1.67995 -0.89193,2.54967 -0.89193,2.61122h-0.0555c-0.15235,0 -0.89497,-0.23913 -2.22479,-0.71738c-0.74261,1.24507 -1.11289,1.90999 -1.11289,1.99576l1.83937,1.78387c1.42266,-1.33588 2.14608,-2.00483 2.1703,-2.00483c1.10987,1.45394 1.66481,2.26919 1.66481,2.44676c-0.60741,0.34912 -1.66481,1.03621 -3.17322,2.06033c-2.91796,-0.63163 -4.49397,-0.98476 -4.72704,-1.05841l-1.44385,-4.67156z" data-paper-data="{&quot;origPos&quot;:null}" fill="#2b70c2"/><path d="M266.40791,148.63553l3.61415,0.57008c-0.45403,1.73544 -0.75068,2.60315 -0.89193,2.60315c-1.90091,-0.12914 -2.85136,-0.25426 -2.85136,-0.37736v-2.66672c0.01815,-0.08577 0.06155,-0.12914 0.12914,-0.12914zM265.39592,153.01347h0.0555c2.79588,0.50852 4.19331,0.80617 4.19331,0.89193c-0.80315,4.54846 -1.29048,7.08401 -1.46201,7.60566h-2.91492c-0.08577,0 -0.12914,-0.0434 -0.12914,-0.12914z" data-paper-data="{&quot;origPos&quot;:null}" fill="#2b70c2"/><path d="M271.72319,152.32333c3.6414,0.50247 5.46259,0.81223 5.46259,0.92926c1.43476,1.23195 2.15213,1.89082 2.15213,1.97658c-0.58218,1.82119 -0.91312,2.92806 -0.99284,3.32054c0.58218,1.29351 0.91312,2.06537 0.99284,2.31762c0,0.07265 -0.95045,0.2694 -2.85136,0.58823c-0.02422,-0.10393 -0.19877,-0.337 -0.52366,-0.69922c-2.62434,0.50247 -4.0369,0.75471 -4.23971,0.75471l-1.39743,-3.78062l3.0804,-1.62748c0.49641,0.0797 1.27231,0.12008 2.32668,0.12008c0,-0.13521 0.01816,-0.54283 0.0555,-1.22388c-0.17757,0 -1.76571,0.11703 -4.76439,0.35011l-0.05448,-0.12008c0.4167,-1.93723 0.66795,-2.90585 0.7537,-2.90585zM273.6362,157.73044c0,0.0676 0.19574,0.78498 0.58823,2.15213h0.0555c0.77287,-0.50247 1.1583,-0.83342 1.1583,-0.99284l0.12007,-0.98375c-0.14732,0 -0.788,-0.05853 -1.9221,-0.17557z" data-paper-data="{&quot;origPos&quot;:null}" fill="#2b70c2"/><path d="M280.22077,149.55573c1.87568,0.03632 3.25192,0.05447 4.12871,0.05447c0.0797,0 0.32187,3.76449 0.72646,11.29346c-0.31177,0.0797 -1.40348,0.28251 -3.27312,0.6074c-0.09283,0 -0.39553,-2.30551 -0.91111,-6.91652c-0.04237,-0.10997 -0.26637,-1.78993 -0.67097,-5.03883z" data-paper-data="{&quot;origPos&quot;:null}" fill="#2b70c2"/><path d="M292.17612,152.32333c3.6414,0.50247 5.46259,0.81223 5.46259,0.92926c1.43476,1.23195 2.15213,1.89082 2.15213,1.97658c-0.58218,1.82119 -0.91413,2.92806 -0.99384,3.32054c0.58319,1.29351 0.91413,2.06537 0.99384,2.31762c0,0.07265 -0.95045,0.2694 -2.85136,0.58823c-0.02422,-0.10393 -0.19877,-0.337 -0.52365,-0.69922c-2.62434,0.50247 -4.03791,0.75471 -4.23971,0.75471l-1.39844,-3.78062l3.0814,-1.62748c0.49641,0.0797 1.27231,0.12008 2.32669,0.12008c0,-0.13521 0.01816,-0.54283 0.0555,-1.22388c-0.17858,0 -1.76571,0.11703 -4.76439,0.35011l-0.05448,-0.12008c0.4167,-1.93723 0.66794,-2.90585 0.7537,-2.90585zM294.08913,157.73044c0,0.0676 0.19574,0.78498 0.58823,2.15213h0.05549c0.77187,-0.50247 1.15831,-0.83342 1.15831,-0.99284l0.12007,-0.98375c-0.14732,0 -0.788,-0.05853 -1.9221,-0.17557z" data-paper-data="{&quot;origPos&quot;:null}" fill="#2b70c2"/><path d="M304.96789,149.54563l0.06457,0.12007c0,0.34912 0.0797,1.70114 0.23913,4.05609c2.19451,-0.69922 3.42446,-1.06749 3.68781,-1.10383l3.31044,3.55865c-1.39137,3.12076 -2.14911,4.77649 -2.27121,4.96617c-0.38644,-0.0434 -1.79597,-0.10393 -4.23064,-0.18363v0.43184c0,0.0797 -0.04237,0.12008 -0.12814,0.12008h-3.55966c-0.12814,0 -0.37332,-1.83937 -0.73555,-5.51809c-0.0797,-0.31278 -0.3037,-2.15516 -0.67097,-5.52716c2.08454,-0.49035 3.51628,-0.79708 4.29419,-0.92018zM305.58437,156.29669l0.23913,2.2712h1.84843l0.67097,-2.57489c-1.83937,0.15942 -2.75853,0.26031 -2.75853,0.30371z" data-paper-data="{&quot;origPos&quot;:null}" fill="#2b70c2"/><path d="M314.48657,148.63553l3.61415,0.57008c-0.45403,1.73544 -0.75068,2.60315 -0.89193,2.60315c-1.90091,-0.12914 -2.85136,-0.25426 -2.85136,-0.37736v-2.66672c0.01815,-0.08577 0.06155,-0.12914 0.12914,-0.12914zM313.47456,153.01347h0.0555c2.79588,0.50852 4.19331,0.80617 4.19331,0.89193c-0.80315,4.54846 -1.29048,7.08401 -1.462,7.60566h-2.91492c-0.08577,0 -0.12914,-0.0434 -0.12914,-0.12914z" data-paper-data="{&quot;origPos&quot;:null}" fill="#2b70c2"/><path d="M318.40441,149.55573c1.87568,0.03632 3.25193,0.05447 4.12872,0.05447c0.0797,0 0.32187,3.76449 0.72646,11.29346c-0.31278,0.0797 -1.40348,0.28251 -3.27413,0.6074c-0.09182,0 -0.39552,-2.30551 -0.9101,-6.91652c-0.04237,-0.10997 -0.26637,-1.78993 -0.67097,-5.03883z" data-paper-data="{&quot;origPos&quot;:null}" fill="#2b70c2"/><path d="M325.55905,148.63553l3.61415,0.57008c-0.45403,1.73544 -0.75169,2.60315 -0.89193,2.60315c-1.90091,-0.12914 -2.85136,-0.25426 -2.85136,-0.37736v-2.66672c0.01815,-0.08577 0.06155,-0.12914 0.12914,-0.12914zM324.54705,153.01347h0.0555c2.79588,0.50852 4.1933,0.80617 4.1933,0.89193c-0.80315,4.54846 -1.29048,7.08401 -1.462,7.60566h-2.91492c-0.08577,0 -0.12914,-0.0434 -0.12914,-0.12914z" data-paper-data="{&quot;origPos&quot;:null}" fill="#2b70c2"/><path d="M332.22636,149.54563l4.04598,0.71738l-0.38643,3.07234c0.80415,-0.0434 1.39238,-0.06457 1.7657,-0.06457h0.58924l0.12815,-0.06458l0.06457,0.12914c-0.12814,1.86357 -0.23913,2.9119 -0.33095,3.14497l-0.12814,-0.07366c-0.09283,0 -0.92019,-0.0434 -2.48309,-0.12914c-0.08577,1.44081 -0.15033,3.16414 -0.19372,5.16897l-0.12815,0.06458c-1.97456,-0.12914 -3.15204,-0.23913 -3.53141,-0.33196l0.06356,-0.25729c0,-0.53274 0.08577,-2.18846 0.25831,-4.96617c-1.65573,-0.09182 -2.48309,-0.2018 -2.48309,-0.33095c0.08577,-2.04721 0.19574,-3.07133 0.33094,-3.07133l2.41851,0.4601v-0.79104c0,-0.64372 -0.02422,-1.51447 -0.07365,-2.61223c0.04944,0 0.07365,-0.02119 0.07365,-0.06457z" data-paper-data="{&quot;origPos&quot;:null}" fill="#2b70c2"/><path d="M343.63887,152.34149c0.08577,0.0121 0.12914,0.0555 0.12914,0.12914l-0.9565,5.29712c1.82725,-0.21491 2.74037,-0.38644 2.74037,-0.51458c0.34305,-2.12188 0.57916,-3.31145 0.7083,-3.56874c2.26213,0.46615 3.51628,0.7416 3.76146,0.82737c-1.31873,4.5313 -2.04217,6.8913 -2.1703,7.082c-2.30551,1.61839 -3.60204,2.51335 -3.89061,2.68489c-0.08577,0 -1.55382,-0.36121 -4.40517,-1.08464v-0.06458c0.75471,-1.66178 1.22287,-2.49216 1.40752,-2.49216l2.80494,1.4065l1.34193,-2.29843c-1.20774,0.29967 -1.90899,0.45 -2.10573,0.45l-3.57681,-1.85753c0.43487,-3.99756 0.71032,-5.99634 0.82736,-5.99634z" data-paper-data="{&quot;origPos&quot;:null}" fill="#2b70c2"/><path d="M354.96865,149.88665l0.03733,0.07365c-0.61345,5.41315 -0.95651,8.25845 -1.03016,8.53392c-1.29955,-0.12309 -2.12088,-0.20885 -2.46492,-0.25729v-0.03734l-0.58822,-7.68738c0.14732,-0.04944 1.4963,-0.25831 4.04598,-0.62557zM351.32725,158.67787c0.04237,0.02522 0.99889,0.09888 2.86953,0.22096l0.03632,0.07365c-0.28756,1.69205 -0.4722,2.53858 -0.5519,2.53858h-2.13297c-0.07365,0 -0.17152,-0.84653 -0.29461,-2.53858c-0.02422,0 -0.03632,-0.07366 -0.03632,-0.22096c0.07265,-0.02422 0.10998,-0.04843 0.10998,-0.07366z" data-paper-data="{&quot;origPos&quot;:null}" fill="#000000"/><path d="M364.58822,149.53654c1.73545,0.12309 2.60315,0.23306 2.60315,0.33195c0.66794,1.79597 1.07557,2.94216 1.22288,3.43858h0.05448c0.15942,-0.34305 0.76985,-1.28745 1.83028,-2.83219h0.0555c1.66178,0.10393 2.49216,0.21795 2.49216,0.34003l1.49935,10.2542c0,0.06155 -1.31268,0.20885 -3.93601,0.44193l-0.0555,-0.11098c-0.14732,-3.1147 -0.22096,-5.01763 -0.22096,-5.71079h-0.05447l-2.27222,1.99576h-0.05448c-0.07365,-0.03733 -0.59227,-0.84956 -1.55483,-2.43667h-0.0555c-1.18251,3.44465 -1.82927,5.27492 -1.94026,5.48983h-0.10997c-2.1148,-0.9565 -3.3165,-1.52961 -3.60507,-1.7193v-0.0555c2.62434,-6.16787 3.99151,-9.30982 4.10149,-9.42685z" data-paper-data="{&quot;origPos&quot;:null}" fill="#000000"/><path d="M376.59905,152.32333c3.6414,0.50247 5.46259,0.81223 5.46259,0.92926c1.43476,1.23195 2.15213,1.89082 2.15213,1.97658c-0.58319,1.82119 -0.91413,2.92806 -0.99385,3.32054c0.58319,1.29351 0.91413,2.06537 0.99385,2.31762c0,0.07265 -0.95045,0.2694 -2.85136,0.58823c-0.02422,-0.10393 -0.19877,-0.337 -0.52366,-0.69922c-2.62434,0.50247 -4.03791,0.75471 -4.23971,0.75471l-1.39844,-3.78062l3.0814,-1.62748c0.49641,0.0797 1.27231,0.12008 2.32669,0.12008c0,-0.13521 0.01816,-0.54283 0.05448,-1.22388c-0.17757,0 -1.76571,0.11703 -4.76338,0.35011l-0.0555,-0.12008c0.41773,-1.93723 0.66894,-2.90585 0.75471,-2.90585zM378.51207,157.73044c0,0.0676 0.19574,0.78498 0.58823,2.15213h0.0555c0.77187,-0.50247 1.1583,-0.83342 1.1583,-0.99284l0.12007,-0.98375c-0.14732,0 -0.788,-0.05853 -1.9221,-0.17557z" data-paper-data="{&quot;origPos&quot;:null}" fill="#000000"/><path d="M391.69936,152.32333c1.2138,0.68105 1.95841,1.12198 2.23488,1.32478c-0.99385,2.06537 -1.52658,3.11673 -1.60023,3.15405h-0.06457l-1.31468,-1.14923l-1.55483,1.89385l0.17455,3.44867c-0.0797,0.07366 -1.09373,0.24519 -3.04307,0.5156c-0.07365,-0.5277 -0.5519,-3.11168 -1.43476,-7.75296c0,-0.07366 1.2814,-0.26335 3.84419,-0.57008c0.04237,0.04843 0.15942,0.62253 0.34911,1.7193c1.53263,-1.72233 2.33578,-2.58399 2.40943,-2.58399z" data-paper-data="{&quot;origPos&quot;:null}" fill="#000000"/><path d="M395.92999,148.63553l3.61415,0.57008c-0.45403,1.73544 -0.75169,2.60315 -0.89193,2.60315c-1.90091,-0.12914 -2.85136,-0.25426 -2.85136,-0.37736v-2.66672c0.01815,-0.08577 0.06155,-0.12914 0.12914,-0.12914zM394.91798,153.01347h0.0555c2.79588,0.50852 4.1933,0.80617 4.1933,0.89193c-0.80315,4.54846 -1.29048,7.08401 -1.462,7.60566h-2.91594c-0.08577,0 -0.12814,-0.0434 -0.12814,-0.12914z" data-paper-data="{&quot;origPos&quot;:null}" fill="#000000"/><path d="M403.5538,152.33243c2.32972,0.62557 3.56471,1.00595 3.70596,1.14014c1.2814,1.81514 2.0018,2.86044 2.16123,3.1359c-0.82837,2.62434 -1.3036,3.93702 -1.42568,3.93702c-2.75853,0.64372 -4.20239,0.9656 -4.33154,0.9656c-2.28028,-1.33084 -3.49508,-2.07244 -3.64139,-2.22581c-0.0797,-2.47704 -0.12007,-3.84419 -0.12007,-4.10148c-0.03632,-0.07366 -0.0555,-0.12913 -0.0555,-0.16547c2.35494,-1.79093 3.57178,-2.68589 3.65147,-2.68589zM403.32377,155.69836c-0.03733,0.24519 -0.09182,1.13712 -0.16547,2.6758l2.05023,0.46009c0.49036,-1.53263 0.73555,-2.3509 0.73555,-2.45484c-1.63051,-0.49035 -2.50428,-0.73656 -2.62031,-0.73656z" data-paper-data="{&quot;origPos&quot;:null}" fill="#000000"/><path d="M418.54314,152.33243c2.7656,0.52165 4.21247,0.81827 4.34061,0.89193v0.11098c-0.59428,1.67995 -0.89193,2.54967 -0.89193,2.61122h-0.05448c-0.15337,0 -0.89598,-0.23913 -2.22581,-0.71738c-0.7416,1.24507 -1.11289,1.90999 -1.11289,1.99576l1.83938,1.78387c1.42266,-1.33588 2.14608,-2.00483 2.1703,-2.00483c1.10987,1.45394 1.66481,2.26919 1.66481,2.44676c-0.60741,0.34912 -1.66481,1.03621 -3.17322,2.06033c-2.91796,-0.63163 -4.49398,-0.98476 -4.72704,-1.05841l-1.44385,-4.67156z" data-paper-data="{&quot;origPos&quot;:null}" fill="#000000"/><path d="M426.59072,152.32333c3.6414,0.50247 5.46259,0.81223 5.46259,0.92926c1.43476,1.23195 2.15213,1.89082 2.15213,1.97658c-0.58319,1.82119 -0.91413,2.92806 -0.99385,3.32054c0.58218,1.29351 0.91413,2.06537 0.99385,2.31762c0,0.07265 -0.95045,0.2694 -2.85136,0.58823c-0.02422,-0.10393 -0.19977,-0.337 -0.52466,-0.69922c-2.62333,0.50247 -4.03691,0.75471 -4.2387,0.75471l-1.39844,-3.78062l3.0814,-1.62748c0.49641,0.0797 1.27131,0.12008 2.32669,0.12008c0,-0.13521 0.01816,-0.54283 0.05448,-1.22388c-0.17757,0 -1.7657,0.11703 -4.76337,0.35011l-0.0555,-0.12008c0.4167,-1.93723 0.66894,-2.90585 0.75471,-2.90585zM428.50273,157.73044c0,0.0676 0.19675,0.78498 0.58924,2.15213h0.0555c0.77187,-0.50247 1.1583,-0.83342 1.1583,-0.99284l0.11906,-0.98375c-0.1463,0 -0.78699,-0.05853 -1.9221,-0.17557z" data-paper-data="{&quot;origPos&quot;:null}" fill="#000000"/><path d="M443.25393,152.32333l3.06223,2.10573c-0.2139,3.49509 -0.36423,5.53624 -0.45,6.12548c-0.35618,0.04237 -1.43779,0.10696 -3.24688,0.19271l-0.06357,-0.12914l-0.32187,-4.91067l-0.12913,-0.06457c-1.17142,0.25225 -1.9776,0.44193 -2.41851,0.57108c0.12208,2.09059 0.18363,3.60103 0.18363,4.53333c-1.82725,0.50852 -2.82614,0.7638 -2.99766,0.7638c-1.18958,-5.23657 -1.78387,-8.00117 -1.78387,-8.29578c2.58702,-0.337 3.99049,-0.5055 4.21146,-0.5055v0.06458c0.04339,0.03027 0.10696,0.66795 0.1927,1.91301c2.37311,-1.57602 3.62727,-2.36404 3.76146,-2.36404z" data-paper-data="{&quot;origPos&quot;:null}" fill="#000000"/><path d="M40.54488,175.894c2.60518,0.0676 3.90776,0.1806 3.90776,0.34002c0.44798,6.78737 0.67198,10.3985 0.67198,10.83336c-1.97456,1.25718 -3.38713,2.10876 -4.23971,2.55674c-3.00472,-0.9444 -4.50608,-1.4842 -4.50608,-1.61838c0.96861,-1.41661 1.5296,-2.13398 1.68296,-2.15214c1.63656,0.8092 2.57793,1.2138 2.82312,1.2138l0.87377,-1.14923c-0.23307,-0.95046 -0.38947,-1.51145 -0.46917,-1.68296c-0.1352,0 -1.79597,0.2694 -4.98433,0.8092c-1.74755,-2.83925 -2.62132,-4.2952 -2.62132,-4.36886c1.50841,-2.40943 2.4276,-3.82201 2.75954,-4.2387h0.06357c0.17858,0 1.50236,0.29058 3.97334,0.87277v-0.2018c0,-0.23913 -0.02119,-0.62253 -0.06457,-1.14923zM37.52805,179.85725c0.08577,0.19069 0.35618,1.2017 0.8092,3.03499c0.57008,-0.18363 1.44385,-0.52165 2.62131,-1.012c-0.22701,-1.10281 -0.34002,-1.7314 -0.34002,-1.88476l-0.33196,-0.06458h-0.4046c-0.51458,0 -1.29955,-0.02421 -2.35393,-0.07365z" data-paper-data="{&quot;origPos&quot;:null}" fill="#000000"/><path d="M51.33183,175.87585c2.77771,1.4277 4.3164,2.26212 4.61707,2.50125c-0.39855,1.86357 -0.63464,2.82312 -0.7083,2.8786h-5.8127v0.1009l1.62848,2.01391l2.55573,-1.30562c0.25225,0.43487 0.61345,1.19563 1.08565,2.28028c-0.22096,0.07366 -1.83028,0.30975 -4.82794,0.7083c-2.48309,-1.63655 -3.73422,-2.48914 -3.75239,-2.55674c0.39855,-3.18231 0.63464,-4.77245 0.70831,-4.77245c2.59307,-1.10383 4.09543,-1.7203 4.50608,-1.84843zM50.73453,178.10062c-0.04944,0.12309 -0.37433,0.61043 -0.97568,1.46201c0,0.2583 0.36222,0.38643 1.08565,0.38643c0,0.03733 0.52467,0.12612 1.57299,0.26737c0.28757,-0.39855 0.43185,-0.63162 0.43185,-0.69921c-0.09182,-0.54585 -0.2916,-0.81828 -0.59732,-0.81828z" data-paper-data="{&quot;origPos&quot;:null}" fill="#000000"/><path d="M59.5348,173.08905l4.047,0.71738l-0.38643,3.07133c0.80315,-0.04237 1.39138,-0.06457 1.7657,-0.06457h0.58823l0.12914,-0.06457l0.06457,0.12914c-0.12914,1.86357 -0.23913,2.9119 -0.33094,3.14497l-0.12914,-0.07365c-0.09182,0 -0.92019,-0.04237 -2.48309,-0.12814c-0.08577,1.44081 -0.15033,3.16315 -0.19271,5.16797l-0.12914,0.06457c-1.97456,-0.12914 -3.15102,-0.23912 -3.53141,-0.33094l0.06457,-0.25729c0,-0.53375 0.08577,-2.18947 0.25729,-4.96617c-1.65573,-0.09182 -2.48309,-0.20281 -2.48309,-0.33095c0.08577,-2.04821 0.19575,-3.07233 0.33095,-3.07233l2.41851,0.4601v-0.79103c0,-0.64372 -0.02422,-1.51446 -0.07365,-2.61122c0.04944,0 0.07365,-0.0222 0.07365,-0.06458z" data-paper-data="{&quot;origPos&quot;:null}" fill="#000000"/><path d="M75.21528,173.08905c0.32488,0.03632 1.5074,0.30975 3.54958,0.81828l0.0555,0.10998c-0.30067,1.67389 -0.48129,2.51134 -0.54283,2.51134h-0.0555l-1.48016,-0.7638c0,0.17153 -0.05549,0.93835 -0.16547,2.29945l2.02299,-0.49641c0.06155,0.18363 0.11603,1.00191 0.16548,2.45485c-0.19675,0.07366 -0.87074,0.18464 -2.023,0.33095c0.25729,1.10383 0.52972,2.45281 0.81828,4.04699c-0.9444,0.2139 -2.07243,0.43185 -3.38411,0.65281l-0.0555,-0.10997c-0.17153,-2.83925 -0.31581,-4.25888 -0.43185,-4.25888c-1.18958,0.28856 -1.82724,0.45102 -1.91301,0.48836c-0.07366,-0.35618 -0.2028,-1.32176 -0.38643,-2.89777l0.10998,-0.05448h1.96851c-0.10998,-0.90808 -0.27646,-2.09059 -0.49641,-3.54958z" data-paper-data="{&quot;origPos&quot;:null}" fill="#2b70c2"/><path d="M80.93515,172.17794l3.61415,0.57108c-0.45404,1.73442 -0.75068,2.60215 -0.89193,2.60215c-1.90091,-0.12914 -2.85136,-0.25426 -2.85136,-0.37736v-2.66671c0.01917,-0.08577 0.06155,-0.12914 0.12914,-0.12914zM79.92315,176.55588h0.05549c2.79587,0.50852 4.1933,0.80617 4.1933,0.89193c-0.80315,4.54946 -1.29048,7.08401 -1.462,7.60566h-2.91492c-0.08577,0 -0.12914,-0.04339 -0.12914,-0.12913z" data-paper-data="{&quot;origPos&quot;:null}" fill="#2b70c2"/><path d="M91.45573,175.86574c1.2138,0.68105 1.95841,1.12198 2.23488,1.32478c-0.99385,2.06638 -1.52658,3.11774 -1.60023,3.15405h-0.06457l-1.31468,-1.14923l-1.55484,1.89486l0.17558,3.44768c-0.07971,0.07366 -1.09474,0.24618 -3.04408,0.51559c-0.07366,-0.5277 -0.5519,-3.11168 -1.43476,-7.75296c0,-0.07366 1.2814,-0.26334 3.84419,-0.57007c0.04238,0.04944 0.15942,0.62253 0.34911,1.7203c1.53263,-1.72332 2.33577,-2.58499 2.40943,-2.58499z" data-paper-data="{&quot;origPos&quot;:null}" fill="#2b70c2"/><path d="M99.63146,175.87585c2.77669,1.4277 4.31639,2.26212 4.61606,2.50125c-0.39855,1.86357 -0.63464,2.82312 -0.70729,2.8786h-5.8127v0.1009l1.62748,2.01391l2.55673,-1.30562c0.25124,0.43487 0.61346,1.19563 1.08566,2.28028c-0.22096,0.07366 -1.83028,0.30975 -4.82794,0.7083c-2.48309,-1.63655 -3.73422,-2.48914 -3.75239,-2.55674c0.39855,-3.18231 0.63464,-4.77245 0.70831,-4.77245c2.59307,-1.10383 4.09543,-1.7203 4.50608,-1.84843zM99.03314,178.10062c-0.04842,0.12309 -0.37332,0.61043 -0.97466,1.46201c0,0.2583 0.36223,0.38643 1.08566,0.38643c0,0.03733 0.52365,0.12612 1.57198,0.26737c0.28856,-0.39855 0.43286,-0.63162 0.43286,-0.69921c-0.09182,-0.54585 -0.2916,-0.81828 -0.59833,-0.81828z" data-paper-data="{&quot;origPos&quot;:null}" fill="#2b70c2"/><path d="M114.37358,175.87585c0.18969,0.78397 0.32187,1.26828 0.39451,1.45292c2.71011,-0.61952 4.14183,-0.92927 4.29519,-0.92927c1.84542,2.65461 2.76763,4.03994 2.76763,4.15697l-2.11481,4.48792l-4.55249,-0.72646v0.13722c0.35617,2.72826 0.53375,4.17917 0.53375,4.3507c-0.04238,0 -0.06458,0.02119 -0.06458,0.06357c-0.44092,-0.04237 -0.77187,-0.06357 -0.99284,-0.06357h-0.79103c-0.4601,0 -1.16436,-0.02221 -2.11481,-0.06458c-0.08577,-0.25729 -0.74563,-4.17211 -1.9776,-11.74345c0.20885,-0.08677 1.74755,-0.4601 4.61707,-1.12198zM114.70454,179.63629c0.12208,1.41054 0.23306,2.11583 0.33094,2.11583c1.25617,0.43487 2.02602,0.65281 2.30853,0.65281l0.72646,-3.16415h-0.06458c-0.71738,0.0434 -1.81818,0.17557 -3.30137,0.39552z" data-paper-data="{&quot;origPos&quot;:null}" fill="#2b70c2"/><path d="M126.4843,175.87585c2.32973,0.62456 3.56571,1.00495 3.70697,1.14014c1.2814,1.81413 2.00181,2.85943 2.16123,3.1359c-0.82837,2.62434 -1.30361,3.93601 -1.42569,3.93601c-2.75954,0.64372 -4.20339,0.96559 -4.33153,0.96559c-2.28129,-1.33084 -3.49509,-2.07243 -3.6424,-2.2258c-0.07971,-2.47704 -0.11906,-3.84419 -0.11906,-4.10149c-0.03733,-0.07366 -0.0555,-0.12913 -0.0555,-0.16547c2.35495,-1.78993 3.57178,-2.68489 3.65148,-2.68489zM126.25527,179.24075c-0.03733,0.24618 -0.09283,1.13813 -0.16547,2.67681l2.05023,0.4601c0.49035,-1.53364 0.73555,-2.35192 0.73555,-2.45585c-1.6305,-0.49035 -2.50428,-0.73555 -2.62031,-0.73555z" data-paper-data="{&quot;origPos&quot;:null}" fill="#2b70c2"/><path d="M137.22585,175.86574c0.0797,0.10493 0.49339,1.88275 1.24205,5.33445h0.06457c0,-0.0797 0.45303,-0.78195 1.36111,-2.10573c0.37937,0.25729 1.10281,0.81525 2.1703,1.67388h0.12814v-0.06457c0.16547,-2.39127 0.28857,-3.71606 0.36828,-3.97334c2.52547,0.12914 3.78869,0.23307 3.78869,0.31278c-1.1583,4.65946 -1.77781,7.08097 -1.85752,7.26563c-0.38644,0.04237 -1.19563,0.16547 -2.42759,0.36727c-1.012,-1.58813 -1.59115,-2.43365 -1.73847,-2.53758c-0.66188,1.7657 -1.07658,2.73736 -1.24205,2.91492h-2.48207c-0.15337,-0.04944 -0.8768,-1.64362 -2.17131,-4.78254c-0.82736,-1.7536 -1.24105,-2.70305 -1.24105,-2.85036c0,-0.13521 1.34598,-0.6528 4.03691,-1.55483z" data-paper-data="{&quot;origPos&quot;:null}" fill="#2b70c2"/><path d="M152.5653,175.87585c2.77771,1.4277 4.31639,2.26212 4.61706,2.50125c-0.39855,1.86357 -0.63463,2.82312 -0.7083,2.8786h-5.81169v0.1009l1.62748,2.01391l2.55674,-1.30562c0.25124,0.43487 0.61245,1.19563 1.08464,2.28028c-0.21995,0.07366 -1.82927,0.30975 -4.82794,0.7083c-2.48308,-1.63655 -3.7332,-2.48914 -3.75238,-2.55674c0.39855,-3.18231 0.63464,-4.77245 0.7083,-4.77245c2.59408,-1.10383 4.09543,-1.7203 4.50608,-1.84843zM151.96798,178.10062c-0.04944,0.12309 -0.37433,0.61043 -0.97466,1.46201c0,0.2583 0.36122,0.38643 1.08465,0.38643c0,0.03733 0.52466,0.12612 1.57298,0.26737c0.28856,-0.39855 0.43185,-0.63162 0.43185,-0.69921c-0.09182,-0.54585 -0.29058,-0.81828 -0.59732,-0.81828z" data-paper-data="{&quot;origPos&quot;:null}" fill="#2b70c2"/><path d="M164.62254,175.86574c1.2138,0.68105 1.95841,1.12198 2.23387,1.32478c-0.99284,2.06638 -1.52658,3.11774 -1.59923,3.15405h-0.06457l-1.31571,-1.14923l-1.55382,1.89486l0.17455,3.44768c-0.0797,0.07366 -1.09373,0.24618 -3.04408,0.51559c-0.07366,-0.5277 -0.5519,-3.11168 -1.43476,-7.75296c0,-0.07366 1.2814,-0.26334 3.84419,-0.57007c0.0434,0.04944 0.15942,0.62253 0.35011,1.7203c1.53263,-1.72332 2.33577,-2.58499 2.40943,-2.58499z" data-paper-data="{&quot;origPos&quot;:null}" fill="#2b70c2"/><path d="M176.08046,173.08905c0.32488,0.03632 1.50841,0.30975 3.55059,0.81828l0.05448,0.10998c-0.29967,1.67389 -0.48129,2.51134 -0.54182,2.51134h-0.0555l-1.48116,-0.7638c0,0.17153 -0.05448,0.93835 -0.16548,2.29945l2.02401,-0.49641c0.06054,0.18363 0.11603,1.00191 0.16547,2.45485c-0.19675,0.07366 -0.87073,0.18464 -2.024,0.33095c0.2583,1.10383 0.53071,2.45281 0.81928,4.04699c-0.9444,0.2139 -2.07243,0.43185 -3.38511,0.65281l-0.05447,-0.10997c-0.17153,-2.83925 -0.31581,-4.25888 -0.43286,-4.25888c-1.18857,0.28856 -1.82625,0.45102 -1.912,0.48836c-0.07366,-0.35618 -0.2028,-1.32176 -0.38643,-2.89777l0.10997,-0.05448h1.96851c-0.11098,-0.90808 -0.27646,-2.09059 -0.49742,-3.54958z" data-paper-data="{&quot;origPos&quot;:null}" fill="#000000"/><path d="M184.23802,175.87585c2.32972,0.62456 3.56471,1.00495 3.70597,1.14014c1.2814,1.81413 2.0018,2.85943 2.16123,3.1359c-0.82736,2.62434 -1.30258,3.93601 -1.42568,3.93601c-2.75853,0.64372 -4.20238,0.96559 -4.33154,0.96559c-2.28028,-1.33084 -3.49408,-2.07243 -3.6414,-2.2258c-0.0797,-2.47704 -0.11907,-3.84419 -0.11907,-4.10149c-0.03733,-0.07366 -0.0555,-0.12913 -0.0555,-0.16547c2.35394,-1.78993 3.57076,-2.68489 3.65046,-2.68489zM184.00797,179.24075c-0.03632,0.24618 -0.09181,1.13813 -0.16547,2.67681l2.05124,0.4601c0.49035,-1.53364 0.73555,-2.35192 0.73555,-2.45585c-1.63151,-0.49035 -2.50428,-0.73555 -2.62131,-0.73555z" data-paper-data="{&quot;origPos&quot;:null}" fill="#000000"/><path d="M197.54538,175.86574c1.2138,0.68105 1.95842,1.12198 2.23489,1.32478c-0.99385,2.06638 -1.52658,3.11774 -1.60024,3.15405h-0.06457l-1.31468,-1.14923l-1.55483,1.89486l0.17455,3.44768c-0.0797,0.07366 -1.09373,0.24618 -3.04408,0.51559c-0.07265,-0.5277 -0.55089,-3.11168 -1.43375,-7.75296c0,-0.07366 1.2814,-0.26334 3.84318,-0.57007c0.0434,0.04944 0.15942,0.62253 0.35011,1.7203c1.53263,-1.72332 2.33577,-2.58499 2.40943,-2.58499z" data-paper-data="{&quot;origPos&quot;:null}" fill="#000000"/><path d="M212.59929,175.86574c1.7657,1.12803 2.74138,1.77882 2.92502,1.95036c-0.63768,1.41559 -1.00291,2.1239 -1.09473,2.1239l-3.34678,-1.94026h-0.12007c0,0.06155 -0.14428,0.4046 -0.43185,1.03016c3.08343,1.66178 4.62515,2.51335 4.62515,2.55674c-0.86469,1.99878 -1.35203,3.05315 -1.462,3.16315l-5.23254,0.3037c-2.03611,-1.34899 -3.12984,-2.06033 -3.2832,-2.13398v-0.05447c0,-0.15337 0.3037,-0.8435 0.91009,-2.06941l4.08331,2.1239l0.30371,-1.2138c-2.52647,-1.13408 -4.02783,-1.84239 -4.50608,-2.1239v-0.12914c0,-0.23307 0.48734,-1.26626 1.462,-3.09856z" data-paper-data="{&quot;origPos&quot;:null}" fill="#000000"/><path d="M221.64878,175.87585c2.77771,1.4277 4.3164,2.26212 4.61707,2.50125c-0.39855,1.86357 -0.63464,2.82312 -0.70831,2.8786h-5.8127v0.1009l1.62849,2.01391l2.55674,-1.30562c0.25124,0.43487 0.61245,1.19563 1.08465,2.28028c-0.22096,0.07366 -1.83028,0.30975 -4.82794,0.7083c-2.48308,-1.63655 -3.73422,-2.48914 -3.75239,-2.55674c0.39855,-3.18231 0.63464,-4.77245 0.7083,-4.77245c2.59307,-1.10383 4.09543,-1.7203 4.50608,-1.84843zM221.05147,178.10062c-0.04944,0.12309 -0.37433,0.61043 -0.97466,1.46201c0,0.2583 0.36121,0.38643 1.08464,0.38643c0,0.03733 0.52466,0.12612 1.57299,0.26737c0.28757,-0.39855 0.43185,-0.63162 0.43185,-0.69921c-0.09182,-0.54585 -0.2916,-0.81828 -0.59732,-0.81828z" data-paper-data="{&quot;origPos&quot;:null}" fill="#000000"/><path d="M230.68012,175.86574c1.50135,3.44565 2.30148,5.23355 2.40036,5.36169c0.7416,-2.81403 1.17344,-4.31336 1.29653,-4.49699c2.34183,0.21491 3.51324,0.39855 3.51324,0.55191v0.06457c-1.64362,4.51214 -2.52647,6.87617 -2.64855,7.09007c-1.81514,0.33095 -3.02894,0.53678 -3.64239,0.61648l-4.49699,-6.65822v-0.12914c0.0434,-0.0797 1.23499,-0.87983 3.57783,-2.40035z" data-paper-data="{&quot;origPos&quot;:null}" fill="#000000"/><path d="M244.08837,175.87585c2.77669,1.4277 4.3164,2.26212 4.61606,2.50125c-0.39855,1.86357 -0.63464,2.82312 -0.7083,2.8786h-5.81169v0.1009l1.62748,2.01391l2.55674,-1.30562c0.25124,0.43487 0.61346,1.19563 1.08566,2.28028c-0.22096,0.07366 -1.83028,0.30975 -4.82794,0.7083c-2.48308,-1.63655 -3.73422,-2.48914 -3.75239,-2.55674c0.39855,-3.18231 0.63464,-4.77245 0.7083,-4.77245c2.59307,-1.10383 4.09543,-1.7203 4.50608,-1.84843zM243.49006,178.10062c-0.04843,0.12309 -0.37332,0.61043 -0.97466,1.46201c0,0.2583 0.36222,0.38643 1.08565,0.38643c0,0.03733 0.52366,0.12612 1.57198,0.26737c0.28856,-0.39855 0.43285,-0.63162 0.43285,-0.69921c-0.09182,-0.54585 -0.2916,-0.81828 -0.59832,-0.81828z" data-paper-data="{&quot;origPos&quot;:null}" fill="#000000"/><path d="M256.14462,175.86574c1.2138,0.68105 1.95841,1.12198 2.23488,1.32478c-0.99385,2.06638 -1.52657,3.11774 -1.60023,3.15405h-0.06458l-1.31469,-1.14923l-1.55483,1.89486l0.17455,3.44768c-0.0797,0.07366 -1.09373,0.24618 -3.04307,0.51559c-0.07366,-0.5277 -0.5519,-3.11168 -1.43476,-7.75296c0,-0.07366 1.2814,-0.26334 3.84419,-0.57007c0.04237,0.04944 0.15942,0.62253 0.34911,1.7203c1.53263,-1.72332 2.33577,-2.58499 2.40943,-2.58499z" data-paper-data="{&quot;origPos&quot;:null}" fill="#000000"/><path d="M260.5034,175.86574c3.6424,0.50347 5.46259,0.81323 5.46259,0.92926c1.43476,1.23195 2.15214,1.89183 2.15214,1.9776c-0.58218,1.82019 -0.91312,2.92705 -0.99284,3.31953c0.58218,1.29351 0.91312,2.06638 0.99284,2.31762c0,0.07366 -0.95046,0.2694 -2.85036,0.58822c-0.02522,-0.10393 -0.19977,-0.337 -0.52466,-0.69821c-2.62434,0.50247 -4.03691,0.7537 -4.23971,0.7537l-1.39742,-3.77963l3.0804,-1.62748c0.49641,0.0797 1.27231,0.11907 2.32669,0.11907c0,-0.13521 0.01816,-0.54282 0.0555,-1.22287c-0.17757,0 -1.76571,0.11603 -4.76338,0.34911l-0.0555,-0.11907c0.4167,-1.93723 0.66795,-2.90686 0.7537,-2.90686zM262.41641,181.27386c0,0.0676 0.19675,0.78499 0.58823,2.15214h0.0555c0.77287,-0.50347 1.15931,-0.83443 1.15931,-0.99385l0.11906,-0.98375c-0.14732,0 -0.788,-0.05853 -1.9221,-0.17455z" data-paper-data="{&quot;origPos&quot;:null}" fill="#000000"/><path d="M269.00098,173.09813c1.87669,0.03632 3.25294,0.05549 4.12974,0.05549c0.0797,0 0.32187,3.76449 0.72645,11.29245c-0.31278,0.0797 -1.40449,0.28251 -3.27413,0.6074c-0.09182,0 -0.39552,-2.30551 -0.91009,-6.91551c-0.04339,-0.11098 -0.26737,-1.79093 -0.67198,-5.03983z" data-paper-data="{&quot;origPos&quot;:null}" fill="#000000"/><path d="M286.9799,175.86574c1.76571,1.12803 2.74038,1.77882 2.92502,1.95036c-0.63768,1.41559 -1.00292,2.1239 -1.09474,2.1239l-3.34778,-1.94026h-0.11906c0,0.06155 -0.14429,0.4046 -0.43286,1.03016c3.08443,1.66178 4.62615,2.51335 4.62615,2.55674c-0.86469,1.99878 -1.35202,3.05315 -1.462,3.16315l-5.23254,0.3037c-2.03611,-1.34899 -3.12984,-2.06033 -3.2832,-2.13398v-0.05447c0,-0.15337 0.3027,-0.8435 0.9101,-2.06941l4.08332,2.1239l0.3037,-1.2138c-2.52647,-1.13408 -4.02884,-1.84239 -4.50608,-2.1239v-0.12914c0,-0.23307 0.48735,-1.26626 1.462,-3.09856z" data-paper-data="{&quot;origPos&quot;:null}" fill="#000000"/><path d="M296.02939,175.87585c2.77771,1.4277 4.3164,2.26212 4.61606,2.50125c-0.39855,1.86357 -0.63364,2.82312 -0.70729,2.8786h-5.8127v0.1009l1.62748,2.01391l2.55674,-1.30562c0.25124,0.43487 0.61346,1.19563 1.08566,2.28028c-0.22096,0.07366 -1.83028,0.30975 -4.82794,0.7083c-2.48309,-1.63655 -3.73422,-2.48914 -3.75239,-2.55674c0.39855,-3.18231 0.63464,-4.77245 0.7083,-4.77245c2.59307,-1.10383 4.09543,-1.7203 4.50608,-1.84843zM295.43106,178.10062c-0.04843,0.12309 -0.37332,0.61043 -0.97466,1.46201c0,0.2583 0.36223,0.38643 1.08566,0.38643c0,0.03733 0.52366,0.12612 1.57198,0.26737c0.28856,-0.39855 0.43286,-0.63162 0.43286,-0.69921c-0.09182,-0.54585 -0.2916,-0.81828 -0.59833,-0.81828z" data-paper-data="{&quot;origPos&quot;:null}" fill="#000000"/><path d="M305.09704,175.87585c2.76459,0.52062 4.21146,0.81827 4.34061,0.89193v0.10997c-0.59428,1.67995 -0.89193,2.55068 -0.89193,2.61223h-0.0555c-0.15337,0 -0.89497,-0.23913 -2.22581,-0.71738c-0.7416,1.24407 -1.11189,1.90899 -1.11189,1.99576l1.83835,1.78387c1.42266,-1.33688 2.14609,-2.00483 2.17131,-2.00483c1.10886,1.45291 1.6638,2.26818 1.6638,2.44575c-0.6064,0.35011 -1.6638,1.03621 -3.17221,2.06033c-2.91897,-0.63163 -4.49398,-0.98375 -4.72704,-1.0574l-1.44385,-4.67156z" data-paper-data="{&quot;origPos&quot;:null}" fill="#000000"/><path d="M315.45214,175.87585c2.32972,0.62456 3.56471,1.00495 3.70597,1.14014c1.2814,1.81413 2.0018,2.85943 2.16123,3.1359c-0.82736,2.62434 -1.30258,3.93601 -1.42568,3.93601c-2.75853,0.64372 -4.20239,0.96559 -4.33154,0.96559c-2.28028,-1.33084 -3.49408,-2.07243 -3.64139,-2.2258c-0.0797,-2.47704 -0.12007,-3.84419 -0.12007,-4.10149c-0.03632,-0.07366 -0.05448,-0.12913 -0.05448,-0.16547c2.35393,-1.78993 3.57076,-2.68489 3.65046,-2.68489zM315.22211,179.24075c-0.03632,0.24618 -0.09182,1.13813 -0.16547,2.67681l2.05124,0.4601c0.49036,-1.53364 0.73555,-2.35192 0.73555,-2.45585c-1.63151,-0.49035 -2.50529,-0.73555 -2.62132,-0.73555z" data-paper-data="{&quot;origPos&quot;:null}" fill="#000000"/><path d="M330.32243,175.86574l3.06223,2.10674c-0.2139,3.49408 -0.36423,5.53624 -0.45,6.12447c-0.35618,0.0434 -1.43779,0.10696 -3.24689,0.1927l-0.06457,-0.12814l-0.32187,-4.91067l-0.12815,-0.06457c-1.17142,0.25124 -1.9776,0.44092 -2.41851,0.57008c0.12208,2.09059 0.18363,3.60204 0.18363,4.53333c-1.82725,0.50953 -2.82614,0.76379 -2.99766,0.76379c-1.18958,-5.23558 -1.78487,-8.00117 -1.78487,-8.29477c2.58803,-0.33801 3.99151,-0.50651 4.21247,-0.50651v0.06457c0.04237,0.03027 0.10696,0.66794 0.1927,1.91301c2.37311,-1.57602 3.62727,-2.36403 3.76146,-2.36403z" data-paper-data="{&quot;origPos&quot;:null}" fill="#000000"/><path d="M339.85926,173.07997h0.0555c2.77064,0.23307 4.15697,0.41368 4.15697,0.54182l1.22287,10.82428c0,0.0797 -1.22287,0.28251 -3.66964,0.6074l-0.0555,-0.12007v-0.98375c-2.10875,0.57008 -3.55563,0.93835 -4.34061,1.10382c-1.86358,-2.63646 -2.84128,-4.03993 -2.9331,-4.21247c1.37322,-2.4952 2.10573,-3.75742 2.19755,-3.78869l3.85328,0.18464c-0.0797,-0.4722 -0.24215,-1.85853 -0.48734,-4.15697zM338.14904,179.67363c0.6185,1.89385 1.00494,2.9331 1.1583,3.11773l1.83029,-1.59114c-0.18969,-1.09777 -0.33095,-1.64664 -0.42276,-1.64664h-2.44676c-0.0797,0.01311 -0.11906,0.05246 -0.11906,0.12008z" data-paper-data="{&quot;origPos&quot;:null}" fill="#000000"/><path d="M353.67212,175.86574c1.76571,1.12803 2.74038,1.77882 2.92501,1.95036c-0.63768,1.41559 -1.00291,2.1239 -1.09473,2.1239l-3.34779,-1.94026h-0.11906c0,0.06155 -0.14428,0.4046 -0.43285,1.03016c3.08443,1.66178 4.62614,2.51335 4.62614,2.55674c-0.86469,1.99878 -1.35203,3.05315 -1.462,3.16315l-5.23254,0.3037c-2.03611,-1.34899 -3.12983,-2.06033 -3.28319,-2.13398v-0.05447c0,-0.15337 0.3027,-0.8435 0.9101,-2.06941l4.08332,2.1239l0.3037,-1.2138c-2.52647,-1.13408 -4.02884,-1.84239 -4.50709,-2.1239v-0.12914c0,-0.23307 0.48835,-1.26626 1.46301,-3.09856z" data-paper-data="{&quot;origPos&quot;:null}" fill="#000000"/><path d="M358.7856,183.0668c1.66784,0.19675 2.50428,0.30672 2.51033,0.33094c-1.012,2.37916 -1.57904,3.6303 -1.70114,3.75239c-0.83342,-0.10393 -1.25112,-0.1897 -1.25112,-0.25729c0.22096,-2.55068 0.35618,-3.82603 0.4046,-3.82603z" data-paper-data="{&quot;origPos&quot;:null}" fill="#000000"/><path d="M371.58647,173.08905l0.06458,0.11907c0,0.35011 0.07971,1.70214 0.23913,4.05608c2.19451,-0.69922 3.42446,-1.06649 3.6878,-1.10383l3.31044,3.55865c-1.39137,3.12076 -2.1481,4.77649 -2.27121,4.96617c-0.38644,-0.04237 -1.79597,-0.10392 -4.23064,-0.18363v0.43184c0,0.0797 -0.04237,0.12007 -0.12814,0.12007h-3.55966c-0.12814,0 -0.37332,-1.83937 -0.73555,-5.51808c-0.0797,-0.31278 -0.3037,-2.15516 -0.67097,-5.52716c2.08454,-0.49035 3.51628,-0.79709 4.29419,-0.91918zM372.20295,179.83909l0.23913,2.2712h1.84843l0.67097,-2.57489c-1.83937,0.15942 -2.75853,0.26031 -2.75853,0.30371z" data-paper-data="{&quot;origPos&quot;:null}" fill="#000000"/><path d="M384.80201,175.86574l0.06458,0.12007l-1.24205,6.58457h0.06458l3.16414,-0.92926v-3.72413c0.01211,-0.08577 0.05146,-0.12914 0.11906,-0.12914c2.37916,0.16547 3.70294,0.2482 3.97334,0.2482c0,0.0434 0.02119,0.06458 0.06357,0.06458c0,1.04833 -0.33094,3.22166 -0.99284,6.521c0,0.18969 -0.95045,0.33397 -2.85136,0.43184c-0.09787,-0.11703 -0.18061,-0.36524 -0.24821,-0.74462c-2.43365,0.49641 -3.822,0.74462 -4.16606,0.74462c-1.94329,-1.44686 -2.91492,-2.1915 -2.91492,-2.23488c0.33094,-4.34666 0.5398,-6.60272 0.62557,-6.7682h0.0555c1.55079,-0.0434 2.97951,-0.10493 4.28512,-0.18464z" data-paper-data="{&quot;origPos&quot;:null}" fill="#000000"/><path d="M394.68795,173.08905l4.04699,0.71738l-0.38644,3.07133c0.80315,-0.04237 1.39138,-0.06457 1.76571,-0.06457h0.58823l0.12914,-0.06457l0.06357,0.12914c-0.12814,1.86357 -0.23811,2.9119 -0.33094,3.14497l-0.12815,-0.07365c-0.09182,0 -0.92019,-0.04237 -2.48309,-0.12814c-0.08577,1.44081 -0.15033,3.16315 -0.19372,5.16797l-0.12814,0.06457c-1.97456,-0.12914 -3.15102,-0.23912 -3.53141,-0.33094l0.06457,-0.25729c0,-0.53375 0.08577,-2.18947 0.25729,-4.96617c-1.65573,-0.09182 -2.48309,-0.20281 -2.48309,-0.33095c0.08577,-2.04821 0.19574,-3.07233 0.33095,-3.07233l2.41851,0.4601v-0.79103c0,-0.64372 -0.02421,-1.51446 -0.07365,-2.61122c0.04944,0 0.07365,-0.0222 0.07365,-0.06458z" data-paper-data="{&quot;origPos&quot;:null}" fill="#000000"/><path d="M407.81168,172.17794l3.61415,0.57108c-0.45403,1.73442 -0.75169,2.60215 -0.89193,2.60215c-1.90091,-0.12914 -2.85136,-0.25426 -2.85136,-0.37736v-2.66671c0.01815,-0.08577 0.06155,-0.12914 0.12914,-0.12914zM406.79968,176.55588h0.0555c2.79588,0.50852 4.19331,0.80617 4.19331,0.89193c-0.80315,4.54946 -1.29048,7.08401 -1.462,7.60566h-2.91594c-0.08577,0 -0.12814,-0.04339 -0.12814,-0.12913z" data-paper-data="{&quot;origPos&quot;:null}" fill="#000000"/><path d="M414.47898,173.08905l4.04599,0.71738l-0.38643,3.07133c0.80315,-0.04237 1.39239,-0.06457 1.76571,-0.06457h0.58923l0.12815,-0.06457l0.06457,0.12914c-0.12914,1.86357 -0.23913,2.9119 -0.33095,3.14497l-0.12914,-0.07365c-0.09182,0 -0.91917,-0.04237 -2.48309,-0.12814c-0.08577,1.44081 -0.14932,3.16315 -0.19271,5.16797l-0.12914,0.06457c-1.97355,-0.12914 -3.15101,-0.23912 -3.53141,-0.33094l0.06457,-0.25729c0,-0.53375 0.08577,-2.18947 0.25729,-4.96617c-1.65472,-0.09182 -2.48309,-0.20281 -2.48309,-0.33095c0.08677,-2.04821 0.19675,-3.07233 0.33195,-3.07233l2.41851,0.4601v-0.79103c0,-0.64372 -0.02522,-1.51446 -0.07366,-2.61122c0.04843,0 0.07366,-0.0222 0.07366,-0.06458z" data-paper-data="{&quot;origPos&quot;:null}" fill="#000000"/><path d="M424.3185,171.55339l0.03734,0.07365l-0.25729,3.38411h-0.03733c-1.20169,-0.0555 -1.80203,-0.12914 -1.80203,-0.22096l-0.5156,-2.97951c0,-0.04944 0.85864,-0.1352 2.5749,-0.25729z" data-paper-data="{&quot;origPos&quot;:null}" fill="#000000"/><path d="M432.65062,175.86574c1.76571,1.12803 2.74038,1.77882 2.92501,1.95036c-0.63768,1.41559 -1.00291,2.1239 -1.09473,2.1239l-3.34778,-1.94026h-0.11907c0,0.06155 -0.14428,0.4046 -0.43285,1.03016c3.08443,1.66178 4.62615,2.51335 4.62615,2.55674c-0.86469,1.99878 -1.35203,3.05315 -1.46201,3.16315l-5.23254,0.3037c-2.03611,-1.34899 -3.12984,-2.06033 -3.2832,-2.13398v-0.05447c0,-0.15337 0.30269,-0.8435 0.9101,-2.06941l4.08332,2.1239l0.3037,-1.2138c-2.52647,-1.13408 -4.02783,-1.84239 -4.50608,-2.1239v-0.12914c0,-0.23307 0.48735,-1.26626 1.462,-3.09856z" data-paper-data="{&quot;origPos&quot;:null}" fill="#000000"/><path d="M39.24835,196.62237h0.05448c2.77166,0.23307 4.15697,0.41368 4.15697,0.54283l1.22288,10.82428c0,0.0797 -1.22288,0.2815 -3.66863,0.6064l-0.0555,-0.11907v-0.98476c-2.10876,0.57108 -3.55563,0.93835 -4.34061,1.10383c-1.86358,-2.63646 -2.84229,-4.03994 -2.93411,-4.21146c1.37322,-2.4952 2.10572,-3.75843 2.19855,-3.78869l3.85328,0.18363c-0.0797,-0.4722 -0.24215,-1.85753 -0.48734,-4.15697zM37.53714,203.21602c0.61952,1.89486 1.00595,2.93411 1.15931,3.11774l1.82928,-1.59115c-0.18969,-1.09677 -0.33094,-1.64565 -0.42276,-1.64565h-2.44575c-0.0797,0.0121 -0.12007,0.05147 -0.12007,0.11907z" data-paper-data="{&quot;origPos&quot;:null}" fill="#2b70c2"/><path d="M46.90849,195.72136l3.61415,0.57007c-0.45403,1.73544 -0.75067,2.60215 -0.89193,2.60215c-1.90091,-0.12814 -2.85137,-0.25426 -2.85137,-0.37635v-2.66773c0.01917,-0.08577 0.06155,-0.12814 0.12914,-0.12814zM45.89649,200.09828h0.0555c2.79588,0.50953 4.19331,0.80617 4.19331,0.89193c-0.80315,4.54946 -1.29048,7.08503 -1.46201,7.60567h-2.91492c-0.08577,0 -0.12914,-0.04238 -0.12914,-0.12815z" data-paper-data="{&quot;origPos&quot;:null}" fill="#2b70c2"/><path d="M54.65136,196.63146c0.32489,0.03733 1.50841,0.30975 3.55059,0.81828l0.05448,0.11098c-0.29966,1.67389 -0.48129,2.51033 -0.54182,2.51033h-0.0555l-1.48117,-0.76279c0,0.17153 -0.05448,0.93734 -0.16548,2.29844l2.02401,-0.49641c0.06054,0.18363 0.11603,1.0019 0.16547,2.45585c-0.19675,0.07265 -0.87074,0.18363 -2.02401,0.33095c0.2583,1.10281 0.53072,2.45181 0.81929,4.04599c-0.9444,0.21491 -2.07243,0.43184 -3.38511,0.6528l-0.05448,-0.10997c-0.17153,-2.83925 -0.31581,-4.25788 -0.43285,-4.25788c-1.18857,0.28757 -1.82624,0.45001 -1.912,0.48735c-0.07366,-0.35618 -0.2028,-1.32176 -0.38643,-2.89676l0.10997,-0.0555h1.96851c-0.11098,-0.90707 -0.27645,-2.09059 -0.49741,-3.54958z" data-paper-data="{&quot;origPos&quot;:null}" fill="#2b70c2"/><path d="M62.92898,196.63146c0.32489,0.03733 1.5074,0.30975 3.54957,0.81828l0.05448,0.11098c-0.29966,1.67389 -0.48129,2.51033 -0.54182,2.51033h-0.0555l-1.48016,-0.76279c0,0.17153 -0.0555,0.93734 -0.16547,2.29844l2.023,-0.49641c0.06155,0.18363 0.11603,1.0019 0.16547,2.45585c-0.19675,0.07265 -0.87073,0.18363 -2.023,0.33095c0.25729,1.10281 0.52972,2.45181 0.81827,4.04599c-0.9444,0.21491 -2.07243,0.43184 -3.3841,0.6528l-0.0555,-0.10997c-0.17153,-2.83925 -0.31581,-4.25788 -0.43185,-4.25788c-1.18958,0.28757 -1.82724,0.45001 -1.91301,0.48735c-0.07366,-0.35618 -0.2028,-1.32176 -0.38643,-2.89676l0.10997,-0.0555h1.96851c-0.11098,-0.90707 -0.27646,-2.09059 -0.49641,-3.54958z" data-paper-data="{&quot;origPos&quot;:null}" fill="#2b70c2"/><path d="M72.59396,199.41824c2.77771,1.42871 4.3164,2.26213 4.61707,2.50126c-0.39855,1.86357 -0.63463,2.82312 -0.7083,2.8786h-5.8127v0.1009l1.62849,2.01391l2.55573,-1.30562c0.25225,0.43487 0.61346,1.19563 1.08566,2.28028c-0.22096,0.07366 -1.83028,0.30975 -4.82794,0.7083c-2.48309,-1.63655 -3.73422,-2.48913 -3.75239,-2.55673c0.39855,-3.1813 0.63464,-4.77245 0.7083,-4.77245c2.59307,-1.10383 4.09543,-1.7203 4.50608,-1.84843zM71.99665,201.64403c-0.04945,0.12208 -0.37433,0.60942 -0.97568,1.462c0,0.25729 0.36223,0.38644 1.08566,0.38644c0,0.03632 0.52365,0.12511 1.57299,0.26637c0.28757,-0.39855 0.43184,-0.63162 0.43184,-0.69921c-0.09182,-0.54585 -0.2916,-0.81828 -0.59833,-0.81828z" data-paper-data="{&quot;origPos&quot;:null}" fill="#2b70c2"/><path d="M84.6502,199.40917c1.2138,0.68005 1.95942,1.12198 2.23488,1.32378c-0.99284,2.06638 -1.52658,3.11773 -1.60023,3.15506h-0.06458l-1.31468,-1.15023l-1.55383,1.89486l0.17455,3.44867c-0.07971,0.07366 -1.09473,0.24519 -3.04408,0.51457c-0.07366,-0.52669 -0.5519,-3.11168 -1.43476,-7.75194c0,-0.07366 1.2814,-0.26435 3.84419,-0.57008c0.04238,0.04843 0.15942,0.62152 0.34911,1.71929c1.53263,-1.72233 2.33577,-2.58398 2.40943,-2.58398z" data-paper-data="{&quot;origPos&quot;:null}" fill="#2b70c2"/><path d="M92.82591,199.41824c2.77771,1.42871 4.3164,2.26213 4.61707,2.50126c-0.39855,1.86357 -0.63464,2.82312 -0.70831,2.8786h-5.8127v0.1009l1.62848,2.01391l2.55573,-1.30562c0.25225,0.43487 0.61346,1.19563 1.08566,2.28028c-0.22096,0.07366 -1.83029,0.30975 -4.82794,0.7083c-2.48309,-1.63655 -3.73422,-2.48913 -3.75238,-2.55673c0.39855,-3.1813 0.63463,-4.77245 0.7083,-4.77245c2.59307,-1.10383 4.09543,-1.7203 4.50608,-1.84843zM92.22861,201.64403c-0.04945,0.12208 -0.37434,0.60942 -0.97568,1.462c0,0.25729 0.36223,0.38644 1.08566,0.38644c0,0.03632 0.52466,0.12511 1.57299,0.26637c0.28757,-0.39855 0.43185,-0.63162 0.43185,-0.69921c-0.09182,-0.54585 -0.2916,-0.81828 -0.59732,-0.81828z" data-paper-data="{&quot;origPos&quot;:null}" fill="#2b70c2"/><path d="M106.44607,199.40917l3.06224,2.10573c-0.21491,3.49509 -0.36524,5.53624 -0.45101,6.12447c-0.35516,0.0434 -1.43779,0.10796 -3.24587,0.19373l-0.06458,-0.12913l-0.32187,-4.91067l-0.12914,-0.06458c-1.17041,0.25124 -1.97658,0.44194 -2.41851,0.57008c0.12309,2.09059 0.18464,3.60204 0.18464,4.53433c-1.82725,0.50852 -2.82715,0.76279 -2.99867,0.76279c-1.18958,-5.23558 -1.78387,-8.00016 -1.78387,-8.29478c2.58702,-0.337 3.99151,-0.5055 4.21247,-0.5055v0.06357c0.04238,0.03128 0.10696,0.66894 0.19271,1.91301c2.3721,-1.57502 3.62626,-2.36302 3.76146,-2.36302z" data-paper-data="{&quot;origPos&quot;:null}" fill="#2b70c2"/><path d="M113.16887,196.63146l4.04599,0.71738l-0.38643,3.07133c0.80315,-0.04237 1.39138,-0.06357 1.76571,-0.06357h0.58822l0.12914,-0.06458l0.06457,0.12815c-0.12914,1.86459 -0.23913,2.91291 -0.33094,3.14598l-0.12914,-0.07365c-0.09182,0 -0.91918,-0.04339 -2.48309,-0.12914c-0.08577,1.44081 -0.15033,3.16314 -0.19271,5.16796l-0.12914,0.06458c-1.97356,-0.12814 -3.15102,-0.23913 -3.53141,-0.33095l0.06458,-0.25729c0,-0.53375 0.08577,-2.18846 0.25729,-4.96617c-1.65472,-0.09182 -2.48309,-0.20179 -2.48309,-0.33094c0.08577,-2.04821 0.19675,-3.07133 0.33094,-3.07133l2.41952,0.45908v-0.79002c0,-0.64473 -0.02522,-1.51447 -0.07366,-2.61224c0.04842,0 0.07366,-0.02119 0.07366,-0.06458z" data-paper-data="{&quot;origPos&quot;:null}" fill="#2b70c2"/><path d="M128.84833,196.63146c0.32488,0.03733 1.50841,0.30975 3.54958,0.81828l0.0555,0.11098c-0.30067,1.67389 -0.48129,2.51033 -0.54283,2.51033h-0.0555l-1.48016,-0.76279c0,0.17153 -0.05549,0.93734 -0.16547,2.29844l2.023,-0.49641c0.06155,0.18363 0.11603,1.0019 0.16547,2.45585c-0.19574,0.07265 -0.87074,0.18363 -2.023,0.33095c0.25729,1.10281 0.53072,2.45181 0.81828,4.04599c-0.9444,0.21491 -2.07243,0.43184 -3.3841,0.6528l-0.0555,-0.10997c-0.17153,-2.83925 -0.3158,-4.25788 -0.43184,-4.25788c-1.18958,0.28757 -1.82725,0.45001 -1.91302,0.48735c-0.07366,-0.35618 -0.20179,-1.32176 -0.38643,-2.89676l0.11098,-0.0555h1.96751c-0.10998,-0.90707 -0.27545,-2.09059 -0.49641,-3.54958z" data-paper-data="{&quot;origPos&quot;:null}" fill="#2b70c2"/><path d="M137.00589,199.41824c2.32972,0.62557 3.56471,1.00495 3.70596,1.14014c1.2814,1.81514 2.00181,2.86044 2.16123,3.1359c-0.82836,2.62434 -1.3036,3.93601 -1.42568,3.93601c-2.75853,0.64372 -4.20238,0.9656 -4.33153,0.9656c-2.28129,-1.32982 -3.49509,-2.07244 -3.6414,-2.2248c-0.0797,-2.47704 -0.12007,-3.8442 -0.12007,-4.1025c-0.03632,-0.07366 -0.0555,-0.12814 -0.0555,-0.16547c2.35494,-1.78993 3.57178,-2.6849 3.65147,-2.6849zM136.77585,202.78417c-0.03733,0.24519 -0.09181,1.13712 -0.16547,2.6758l2.05023,0.4601c0.49035,-1.53263 0.73555,-2.35091 0.73555,-2.45585c-1.6305,-0.49035 -2.50428,-0.73555 -2.62031,-0.73555z" data-paper-data="{&quot;origPos&quot;:null}" fill="#2b70c2"/><path d="M150.31226,199.40917c1.2138,0.68005 1.95943,1.12198 2.23489,1.32378c-0.99284,2.06638 -1.52658,3.11773 -1.60024,3.15506h-0.06457l-1.31468,-1.15023l-1.55382,1.89486l0.17455,3.44867c-0.0797,0.07366 -1.09473,0.24519 -3.04408,0.51457c-0.07366,-0.52669 -0.5519,-3.11168 -1.43476,-7.75194c0,-0.07366 1.2814,-0.26435 3.84419,-0.57008c0.0434,0.04843 0.15942,0.62152 0.34911,1.71929c1.53263,-1.72233 2.33578,-2.58398 2.40944,-2.58398z" data-paper-data="{&quot;origPos&quot;:null}" fill="#2b70c2"/><path d="M163.15953,199.41824c2.77771,1.42871 4.31639,2.26213 4.61707,2.50126c-0.39855,1.86357 -0.63464,2.82312 -0.7083,2.8786h-5.81169v0.1009l1.62748,2.01391l2.55674,-1.30562c0.25124,0.43487 0.61245,1.19563 1.08465,2.28028c-0.21995,0.07366 -1.82927,0.30975 -4.82794,0.7083c-2.48308,-1.63655 -3.73321,-2.48913 -3.75239,-2.55673c0.39855,-3.1813 0.63463,-4.77245 0.7083,-4.77245c2.59408,-1.10383 4.09544,-1.7203 4.50609,-1.84843zM162.56221,201.64403c-0.04944,0.12208 -0.37433,0.60942 -0.97466,1.462c0,0.25729 0.36122,0.38644 1.08465,0.38644c0,0.03632 0.52466,0.12511 1.57299,0.26637c0.28856,-0.39855 0.43184,-0.63162 0.43184,-0.69921c-0.09182,-0.54585 -0.29057,-0.81828 -0.59731,-0.81828z" data-paper-data="{&quot;origPos&quot;:null}" fill="#2b70c2"/><path d="M172.19086,199.40917c1.50236,3.44565 2.30248,5.23254 2.40035,5.36169c0.7416,-2.81403 1.17344,-4.31337 1.29653,-4.49699c2.34183,0.2139 3.51324,0.39855 3.51324,0.5509v0.06458c-1.64362,4.51214 -2.52647,6.87616 -2.64856,7.09107c-1.81514,0.33095 -3.02894,0.53577 -3.64239,0.61548l-4.49699,-6.65823v-0.12814c0.0434,-0.0797 1.236,-0.87983 3.57783,-2.40035z" data-paper-data="{&quot;origPos&quot;:null}" fill="#2b70c2"/><path d="M185.59912,199.41824c2.77771,1.42871 4.3164,2.26213 4.61707,2.50126c-0.39855,1.86357 -0.63464,2.82312 -0.70831,2.8786h-5.8127v0.1009l1.62849,2.01391l2.55572,-1.30562c0.25225,0.43487 0.61346,1.19563 1.08566,2.28028c-0.22096,0.07366 -1.83028,0.30975 -4.82794,0.7083c-2.48308,-1.63655 -3.73422,-2.48913 -3.75239,-2.55673c0.39855,-3.1813 0.63464,-4.77245 0.7083,-4.77245c2.59307,-1.10383 4.09543,-1.7203 4.50608,-1.84843zM185.00182,201.64403c-0.04944,0.12208 -0.37433,0.60942 -0.97568,1.462c0,0.25729 0.36222,0.38644 1.08566,0.38644c0,0.03632 0.52365,0.12511 1.57299,0.26637c0.28757,-0.39855 0.43185,-0.63162 0.43185,-0.69921c-0.09182,-0.54585 -0.2916,-0.81828 -0.59833,-0.81828z" data-paper-data="{&quot;origPos&quot;:null}" fill="#2b70c2"/><path d="M197.65537,199.40917c1.2138,0.68005 1.95942,1.12198 2.23488,1.32378c-0.99284,2.06638 -1.52658,3.11773 -1.60023,3.15506h-0.06458l-1.31468,-1.15023l-1.55382,1.89486l0.17455,3.44867c-0.0797,0.07366 -1.09474,0.24519 -3.04408,0.51457c-0.07366,-0.52669 -0.5519,-3.11168 -1.43476,-7.75194c0,-0.07366 1.2814,-0.26435 3.84419,-0.57008c0.04237,0.04843 0.15942,0.62152 0.34911,1.71929c1.53263,-1.72233 2.33578,-2.58398 2.40943,-2.58398z" data-paper-data="{&quot;origPos&quot;:null}" fill="#2b70c2"/><path d="M204.84733,199.42732c0.08577,0.0121 0.12814,0.0555 0.12814,0.12914l-0.9565,5.29711c1.82725,-0.21491 2.74138,-0.38643 2.74138,-0.51559c0.34305,-2.12087 0.57915,-3.31044 0.70729,-3.56773c2.26312,0.46615 3.51628,0.7416 3.76146,0.82737c-1.31772,4.53029 -2.04116,6.8913 -2.17031,7.08098c-2.3045,1.61839 -3.60204,2.51436 -3.8896,2.68589c-0.08577,0 -1.55483,-0.36222 -4.40517,-1.08566v-0.06458c0.7537,-1.66078 1.22288,-2.49216 1.40651,-2.49216l2.80494,1.40753l1.34294,-2.29946c-1.20774,0.30068 -1.90999,0.45101 -2.10573,0.45101l-3.57783,-1.85753c0.43588,-3.99756 0.71133,-5.99634 0.82836,-5.99634z" data-paper-data="{&quot;origPos&quot;:null}" fill="#2b70c2"/><path d="M220.41682,199.41824c2.76459,0.52062 4.21146,0.81828 4.34061,0.89194v0.10997c-0.59529,1.67995 -0.89193,2.55068 -0.89193,2.61223h-0.0555c-0.15337,0 -0.89497,-0.23913 -2.2258,-0.71738c-0.7416,1.24407 -1.11289,1.90999 -1.11289,1.99576l1.83937,1.78387c1.42265,-1.33688 2.14608,-2.00483 2.17031,-2.00483c1.10987,1.45291 1.66481,2.26818 1.66481,2.44676c-0.60639,0.34912 -1.6648,1.03522 -3.17221,2.05933c-2.91897,-0.63163 -4.49398,-0.98375 -4.72705,-1.05741l-1.44385,-4.67156z" data-paper-data="{&quot;origPos&quot;:null}" fill="#2b70c2"/><path d="M231.18561,196.63146c0.03632,0.0555 0.20885,1.73544 0.51457,5.03983c2.36704,-0.72344 3.62727,-1.08566 3.77963,-1.08566l2.34588,1.60023c-0.38038,3.49509 -0.62859,5.53625 -0.74563,6.12548l-3.25495,0.10997c0,-0.03632 -0.02119,-0.0555 -0.06457,-0.0555l0.06457,-0.22904c0,-0.49741 0.07366,-2.00484 0.22096,-4.52525c-0.89597,-0.03632 -1.56089,-0.0555 -1.99576,-0.0555h-0.23004c0.26334,2.80193 0.39552,4.3285 0.39552,4.58075l-3.09049,0.45908c-0.11603,-0.39248 -0.80314,-4.05507 -2.05932,-10.98974c0,-0.19574 0.47825,-0.34912 1.43476,-0.45909c1.20774,-0.34406 2.1027,-0.51559 2.68489,-0.51559z" data-paper-data="{&quot;origPos&quot;:null}" fill="#2b70c2"/><path d="M240.08779,199.40917c3.6414,0.50247 5.46259,0.81222 5.46259,0.92825c1.43476,1.23297 2.15214,1.89183 2.15214,1.9776c-0.58218,1.82119 -0.91414,2.92704 -0.99385,3.31953c0.58318,1.29351 0.91414,2.06638 0.99385,2.31762c0,0.07366 -0.95046,0.27041 -2.85137,0.58924c-0.02422,-0.10493 -0.19877,-0.338 -0.52365,-0.69921c-2.62434,0.50247 -4.03792,0.7537 -4.23971,0.7537l-1.39844,-3.77963l3.0814,-1.62748c0.49641,0.0797 1.27231,0.11906 2.32669,0.11906c0,-0.1342 0.01816,-0.54182 0.0555,-1.22287c-0.17858,0 -1.7657,0.11703 -4.76439,0.34911l-0.0555,-0.11906c0.41772,-1.93723 0.66895,-2.90586 0.75472,-2.90586zM242.00081,204.81626c0,0.0676 0.19574,0.78499 0.58822,2.15214h0.0555c0.77187,-0.50247 1.1583,-0.83342 1.1583,-0.99284l0.12008,-0.98476c-0.14732,0 -0.788,-0.05751 -1.9221,-0.17455z" data-paper-data="{&quot;origPos&quot;:null}" fill="#2b70c2"/><path d="M255.18812,199.40917c1.2138,0.68005 1.95841,1.12198 2.23488,1.32378c-0.99284,2.06638 -1.52658,3.11773 -1.60024,3.15506h-0.06457l-1.31468,-1.15023l-1.55483,1.89486l0.17557,3.44867c-0.0797,0.07366 -1.09474,0.24519 -3.04408,0.51457c-0.07366,-0.52669 -0.55191,-3.11168 -1.43476,-7.75194c0,-0.07366 1.2814,-0.26435 3.84419,-0.57008c0.04237,0.04843 0.15942,0.62152 0.34912,1.71929c1.53263,-1.72233 2.33577,-2.58398 2.40943,-2.58398z" data-paper-data="{&quot;origPos&quot;:null}" fill="#2b70c2"/><path d="M259.54688,199.40917c3.6424,0.50247 5.46259,0.81222 5.46259,0.92825c1.43476,1.23297 2.15213,1.89183 2.15213,1.9776c-0.58218,1.82119 -0.91312,2.92704 -0.99284,3.31953c0.58218,1.29351 0.91312,2.06638 0.99284,2.31762c0,0.07366 -0.95045,0.27041 -2.85035,0.58924c-0.02522,-0.10493 -0.19978,-0.338 -0.52467,-0.69921c-2.62434,0.50247 -4.0369,0.7537 -4.23971,0.7537l-1.39743,-3.77963l3.0804,-1.62748c0.49741,0.0797 1.27231,0.11906 2.32669,0.11906c0,-0.1342 0.01916,-0.54182 0.05549,-1.22287c-0.17757,0 -1.7657,0.11703 -4.76337,0.34911l-0.0555,-0.11906c0.41671,-1.93723 0.66795,-2.90586 0.75371,-2.90586zM261.4599,204.81626c0,0.0676 0.19675,0.78499 0.58924,2.15214h0.05447c0.77287,-0.50247 1.15931,-0.83342 1.15931,-0.99284l0.11906,-0.98476c-0.14732,0 -0.788,-0.05751 -1.9221,-0.17455z" data-paper-data="{&quot;origPos&quot;:null}" fill="#2b70c2"/><path d="M271.65862,199.41824c2.7656,0.52062 4.21247,0.81828 4.34061,0.89194v0.10997c-0.59428,1.67995 -0.89193,2.55068 -0.89193,2.61223h-0.05448c-0.15337,0 -0.89598,-0.23913 -2.22581,-0.71738c-0.7416,1.24407 -1.11289,1.90999 -1.11289,1.99576l1.83937,1.78387c1.42266,-1.33688 2.14608,-2.00483 2.1703,-2.00483c1.10987,1.45291 1.66481,2.26818 1.66481,2.44676c-0.6074,0.34912 -1.66481,1.03522 -3.17322,2.05933c-2.91796,-0.63163 -4.49398,-0.98375 -4.72705,-1.05741l-1.44385,-4.67156z" data-paper-data="{&quot;origPos&quot;:null}" fill="#2b70c2"/><path d="M281.05722,196.63146l4.047,0.71738l-0.38644,3.07133c0.80315,-0.04237 1.39137,-0.06357 1.7657,-0.06357h0.58823l0.12914,-0.06458l0.06457,0.12815c-0.12914,1.86459 -0.23913,2.91291 -0.33095,3.14598l-0.12914,-0.07365c-0.09182,0 -0.91917,-0.04339 -2.48309,-0.12914c-0.08577,1.44081 -0.15033,3.16314 -0.19271,5.16796l-0.12914,0.06458c-1.97456,-0.12814 -3.15101,-0.23913 -3.53141,-0.33095l0.06457,-0.25729c0,-0.53375 0.08577,-2.18846 0.25729,-4.96617c-1.65573,-0.09182 -2.48309,-0.20179 -2.48309,-0.33094c0.08577,-2.04821 0.19675,-3.07133 0.33095,-3.07133l2.41851,0.45908v-0.79002c0,-0.64473 -0.02421,-1.51447 -0.07365,-2.61224c0.04944,0 0.07365,-0.02119 0.07365,-0.06458z" data-paper-data="{&quot;origPos&quot;:null}" fill="#2b70c2"/><path d="M293.45448,199.41824c2.77669,1.42871 4.3164,2.26213 4.61606,2.50126c-0.39855,1.86357 -0.63464,2.82312 -0.70729,2.8786h-5.8127v0.1009l1.62748,2.01391l2.55674,-1.30562c0.25124,0.43487 0.61346,1.19563 1.08566,2.28028c-0.22096,0.07366 -1.83028,0.30975 -4.82794,0.7083c-2.48309,-1.63655 -3.73422,-2.48913 -3.75239,-2.55673c0.39855,-3.1813 0.63464,-4.77245 0.7083,-4.77245c2.59307,-1.10383 4.09543,-1.7203 4.50608,-1.84843zM292.85616,201.64403c-0.04843,0.12208 -0.37332,0.60942 -0.97466,1.462c0,0.25729 0.36223,0.38644 1.08566,0.38644c0,0.03632 0.52365,0.12511 1.57197,0.26637c0.28856,-0.39855 0.43286,-0.63162 0.43286,-0.69921c-0.09182,-0.54585 -0.29159,-0.81828 -0.59832,-0.81828z" data-paper-data="{&quot;origPos&quot;:null}" fill="#2b70c2"/><path d="M305.51073,199.40917c1.2138,0.68005 1.95841,1.12198 2.23488,1.32378c-0.99385,2.06638 -1.52658,3.11773 -1.60023,3.15506h-0.06457l-1.31469,-1.15023l-1.55483,1.89486l0.17557,3.44867c-0.0797,0.07366 -1.09474,0.24519 -3.04408,0.51457c-0.07365,-0.52669 -0.55191,-3.11168 -1.43476,-7.75194c0,-0.07366 1.2814,-0.26435 3.84419,-0.57008c0.04237,0.04843 0.15942,0.62152 0.34911,1.71929c1.53263,-1.72233 2.33578,-2.58398 2.40943,-2.58398z" data-paper-data="{&quot;origPos&quot;:null}" fill="#2b70c2"/><path d="M308.58205,205.76368c0.04339,0.02422 0.9999,0.09787 2.86953,0.22096l0.03733,0.07365c-0.28856,1.69205 -0.4722,2.53757 -0.55191,2.53757h-2.13398c-0.07365,0 -0.17153,-0.84552 -0.29462,-2.53757c-0.02422,0 -0.03632,-0.07365 -0.03632,-0.22096c0.07365,-0.02422 0.10998,-0.04945 0.10998,-0.07366z" data-paper-data="{&quot;origPos&quot;:null}" fill="#000000"/></g></g></g></svg>