<svg version="1.1" xmlns="http://www.w3.org/2000/svg" xmlns:xlink="http://www.w3.org/1999/xlink" width="23.21631" height="24.4524"><defs><linearGradient x1="240.30446" y1="167.91102" x2="240.30446" y2="192.11397" gradientUnits="userSpaceOnUse" id="color-1"><stop offset="0" stop-color="#bda501"/><stop offset="1" stop-color="#c07801"/></linearGradient><linearGradient x1="238.44185" y1="167.8762" x2="238.44185" y2="192.2262" gradientUnits="userSpaceOnUse" id="color-2"><stop offset="0" stop-color="#bda001"/><stop offset="1" stop-color="#be7800"/></linearGradient><radialGradient cx="236.22568" cy="172.1909" r="23.7593" gradientUnits="userSpaceOnUse" id="color-3"><stop offset="0" stop-color="#ffff00"/><stop offset="1" stop-color="#ff9400"/></radialGradient><radialGradient cx="242.10526" cy="173.6252" r="12.8658" gradientUnits="userSpaceOnUse" id="color-4"><stop offset="0" stop-color="#bda501"/><stop offset="1" stop-color="#c07801"/></radialGradient></defs><g transform="translate(-228.39185,-167.7738)"><g data-paper-data="{&quot;isPaintingLayer&quot;:true}" fill="none" fill-rule="nonzero" stroke="none" stroke-width="none" stroke-linecap="butt" stroke-linejoin="miter" stroke-miterlimit="10" stroke-dasharray="" stroke-dashoffset="0" font-family="none" font-weight="none" font-size="none" text-anchor="none" style="mix-blend-mode: normal"><path d="M242.80921,192.11398h-5.00951v-24.20296h5.00951z" data-paper-data="{&quot;origPos&quot;:null}" id="ID0.06001657713204622" fill="url(#color-1)" stroke-width="0.36499"/><path d="M245.54625,171.4447c1.8193,2.2039 2.9456,5.2474 2.9456,8.6065c0,3.359 -1.1263,6.4026 -2.9456,8.6065c-1.8193,2.204 -4.3316,3.5685 -7.1044,3.5685c-2.7728,0 -5.2851,-1.3645 -7.1044,-3.5685c-1.8193,-2.2039 -2.9456,-5.2475 -2.9456,-8.6065c0,-3.3591 1.1263,-6.4026 2.9456,-8.6065c1.8193,-2.204 4.3316,-3.5685 7.1044,-3.5685c2.7728,0 5.2851,1.3645 7.1044,3.5685z" data-paper-data="{&quot;origPos&quot;:null}" id="ID0.7142658131197095" fill="url(#color-2)" stroke-width="0.44036"/><path d="M241.55817,167.7738c2.7728,0 5.2851,1.3645 7.1044,3.5685c1.8193,2.2039 2.9456,5.2474 2.9456,8.6065c0,3.359 -1.1263,6.4026 -2.9456,8.6065c-1.8193,2.204 -4.3316,3.5685 -7.1044,3.5685c-2.7728,0 -5.2851,-1.3645 -7.1044,-3.5685c-1.8193,-2.2039 -2.9456,-5.2475 -2.9456,-8.6065c0,-3.3591 1.1263,-6.4026 2.9456,-8.6065c1.8193,-2.204 4.3316,-3.5685 7.1044,-3.5685z" data-paper-data="{&quot;origPos&quot;:null,&quot;index&quot;:null}" id="ID0.7142658131197095" fill="url(#color-3)" stroke-width="0.44036"/><path d="M242.86242,188.8758h-3.48422v-18.4186h3.48422z" data-paper-data="{&quot;origPos&quot;:null}" id="ID0.06001657713204622" fill="url(#color-4)" stroke-width="0.59798"/></g></g></svg>