<svg version="1.1" xmlns="http://www.w3.org/2000/svg" xmlns:xlink="http://www.w3.org/1999/xlink" width="437" height="90.79587" viewBox="0,0,437,90.79587"><defs><linearGradient x1="239.96075" y1="135.56279" x2="239.96075" y2="224.35867" gradientUnits="userSpaceOnUse" id="color-1"><stop offset="0" stop-color="#ffffff"/><stop offset="1" stop-color="#d8d8d8"/></linearGradient><linearGradient x1="239.96075" y1="135.5628" x2="239.96075" y2="224.35867" gradientUnits="userSpaceOnUse" id="color-2"><stop offset="0" stop-color="#343434"/><stop offset="1" stop-color="#090909"/></linearGradient><radialGradient cx="443.76725" cy="206.50539" r="17.9081" gradientUnits="userSpaceOnUse" id="color-3"><stop offset="0" stop-color="#ffffff"/><stop offset="1" stop-color="#e5e5e5"/></radialGradient></defs><g transform="translate(-21.46075,-134.5628)"><g data-paper-data="{&quot;isPaintingLayer&quot;:true}" fill-rule="nonzero" stroke-linejoin="miter" stroke-miterlimit="10" stroke-dasharray="" stroke-dashoffset="0" style="mix-blend-mode: normal"><path d="M22.46075,224.35867v-88.79587h435v88.79587z" data-paper-data="{&quot;origPos&quot;:null}" fill="url(#color-1)" stroke="url(#color-2)" stroke-width="2" stroke-linecap="butt"/><g data-paper-data="{&quot;origPos&quot;:null}"><path d="M444.26655,202.0594c2.5136,0 4.7909,1.0212 6.4406,2.6702c1.6489,1.6496 2.6702,3.9269 2.6702,6.4405c0,2.5136 -1.0213,4.791 -2.6702,6.4406c-1.6497,1.649 -3.927,2.6702 -6.4406,2.6702c-2.5136,0 -4.7909,-1.0212 -6.4406,-2.6702c-1.6489,-1.6496 -2.6701,-3.927 -2.6701,-6.4406c0,-2.5136 1.0212,-4.7909 2.6701,-6.4405c1.6497,-1.649 3.927,-2.6702 6.4406,-2.6702z" fill="url(#color-3)" stroke="#000000" stroke-width="2.0785" stroke-linecap="butt"/><path d="M441.23415,206.50959l5.6119,0.4503l1.7321,3.187l-3.6374,2.9446l3.3603,-0.5197l0.7967,3.4642l-7.4479,-0.0693l-1.9053,-2.4249l4.6766,-3.3256l-4.5727,-0.3464z" fill="#000000" stroke="none" stroke-width="0.69283" stroke-linecap="round"/></g><path d="M36.15288,149.16543c2.45803,0.54894 3.82426,0.86304 4.09873,0.94234v0.06403c-0.0854,2.20185 -0.14944,3.48272 -0.19212,3.84257c0.14027,0 0.77157,0.14639 1.89383,0.43914c1.00638,-3.10454 1.55227,-4.65681 1.63767,-4.65681c1.68342,0.75632 2.75384,1.2595 3.21129,1.50957v0.06403c-1.8481,4.30001 -2.89716,6.67264 -3.14724,7.11789c-0.46354,0.38425 -2.07986,1.85419 -4.84895,4.4098h-0.06405l-5.10511,-2.51596c0.46965,-0.8051 1.03688,-1.72916 1.70171,-2.77213c0.0305,0 0.82951,0.52454 2.39703,1.57362h0.06404c0.52454,-0.42696 1.15278,-1.03688 1.88469,-1.8298c0,-0.03659 -1.19547,-1.21071 -3.58639,-3.52235v-4.53788z" data-paper-data="{&quot;origPos&quot;:null}" fill="#000000" stroke="none" stroke-width="0.26458" stroke-linecap="butt"/><path d="M51.48653,151.93756c2.31773,0.62213 3.54676,1.00029 3.68703,1.13448c1.27475,1.80539 1.99142,2.84532 2.15001,3.1198c-0.82342,2.6105 -1.2961,3.91575 -1.41808,3.91575c-2.74469,0.64042 -4.18108,0.96064 -4.30916,0.96064c-2.26894,-1.32354 -3.47662,-2.06157 -3.62298,-2.21404c-0.07929,-2.46413 -0.11893,-3.82428 -0.11893,-4.08044c-0.03659,-0.07318 -0.0549,-0.12808 -0.0549,-0.16468c2.34213,-1.781 3.55285,-2.67149 3.63215,-2.67149zM51.3127,155.28607c-0.03659,0.24398 -0.09149,1.13143 -0.16468,2.66235l2.04022,0.45745c0.48794,-1.52483 0.73191,-2.33908 0.73191,-2.44277c-1.62241,-0.48794 -2.49157,-0.73192 -2.60745,-0.73192z" data-paper-data="{&quot;origPos&quot;:null}" fill="#000000" stroke="none" stroke-width="0.26458" stroke-linecap="butt"/><path d="M63.09656,151.92841l0.06405,0.11891l-1.23511,6.55065h0.06405l3.14723,-0.92404v-3.70533c0.0122,-0.08538 0.05185,-0.12806 0.11893,-0.12806c2.36653,0.16469 3.68399,0.24703 3.95236,0.24703c0,0.04268 0.02135,0.06403 0.06405,0.06403c0,1.04297 -0.32936,3.20519 -0.98809,6.48663c0,0.18906 -0.9454,0.3324 -2.83617,0.42999c-0.09759,-0.11589 -0.17994,-0.36291 -0.24702,-0.74106c-2.42142,0.49404 -3.80291,0.74106 -4.14447,0.74106c-1.93348,-1.43944 -2.90022,-2.18051 -2.90022,-2.22319c0.32936,-4.32441 0.53674,-6.56897 0.62213,-6.73365h0.0549c1.54313,-0.04268 2.96426,-0.10367 4.26342,-0.18297z" data-paper-data="{&quot;origPos&quot;:null}" fill="#000000" stroke="none" stroke-width="0.26458" stroke-linecap="butt"/><path d="M78.43936,151.93756c2.7508,0.51844 4.19023,0.81425 4.31831,0.88744v0.10976c-0.59163,1.67122 -0.88744,2.53731 -0.88744,2.5983h-0.0549c-0.15248,0 -0.89049,-0.23787 -2.21404,-0.71362c-0.73802,1.23816 -1.10703,1.89993 -1.10703,1.98532l1.82979,1.77491c1.41503,-1.32964 2.13475,-1.99447 2.15915,-1.99447c1.10397,1.44553 1.65596,2.25674 1.65596,2.43362c-0.60383,0.34766 -1.65596,1.03077 -3.15638,2.04936c-2.90327,-0.62823 -4.47079,-0.97893 -4.70256,-1.05213l-1.43638,-4.64768z" data-paper-data="{&quot;origPos&quot;:null}" fill="#000000" stroke="none" stroke-width="0.26458" stroke-linecap="butt"/><path d="M86.44471,151.92841c3.62298,0.50015 5.43449,0.80816 5.43449,0.92405c1.42724,1.22595 2.14085,1.88163 2.14085,1.96702c-0.57943,1.81149 -0.90879,2.91242 -0.9881,3.30277c0.57943,1.28696 0.90879,2.05547 0.9881,2.30554c0,0.07318 -0.9454,0.26835 -2.83618,0.58553c-0.0244,-0.10369 -0.19823,-0.33547 -0.5215,-0.69532c-2.6105,0.50015 -4.01638,0.75022 -4.21767,0.75022l-1.39064,-3.76022l3.0649,-1.61937c0.49404,0.07927 1.26561,0.11891 2.31469,0.11891c0,-0.13419 0.01829,-0.53978 0.0549,-1.21681c-0.17688,0 -1.75659,0.11589 -4.73916,0.34767l-0.0549,-0.11892c0.41475,-1.92738 0.66483,-2.89107 0.75022,-2.89107zM88.34769,157.308c0,0.06709 0.19518,0.7807 0.58553,2.14085h0.0549c0.76852,-0.50013 1.15277,-0.8295 1.15277,-0.98808l0.11894,-0.97894c-0.14639,0 -0.78375,-0.05794 -1.91212,-0.17382z" data-paper-data="{&quot;origPos&quot;:null}" fill="#000000" stroke="none" stroke-width="0.26458" stroke-linecap="butt"/><path d="M103.02262,151.92841l3.0466,2.09511c-0.21347,3.47661 -0.36291,5.50768 -0.44831,6.09321c-0.35376,0.04268 -1.43028,0.10672 -3.22957,0.19212l-0.06404,-0.12806l-0.32022,-4.88555l-0.12809,-0.06403c-1.16497,0.25007 -1.96703,0.43915 -2.40618,0.56724c0.12198,2.07986 0.18297,3.58334 0.18297,4.51042c-1.8176,0.50624 -2.81178,0.75937 -2.98255,0.75937c-1.18327,-5.2088 -1.7749,-7.9596 -1.7749,-8.25237c2.57391,-0.33545 3.97065,-0.50319 4.19023,-0.50319v0.06403c0.04269,0.0305 0.10674,0.66482 0.19212,1.90298c2.36043,-1.56753 3.60774,-2.35128 3.74192,-2.35128z" data-paper-data="{&quot;origPos&quot;:null}" fill="#000000" stroke="none" stroke-width="0.26458" stroke-linecap="butt"/><path d="M119.74691,151.92841l3.0466,2.09511c-0.21347,3.47661 -0.36291,5.50768 -0.44831,6.09321c-0.35376,0.04268 -1.43028,0.10672 -3.22957,0.19212l-0.06404,-0.12806l-0.32022,-4.88555l-0.12809,-0.06403c-1.16497,0.25007 -1.96703,0.43915 -2.40618,0.56724c0.12198,2.07986 0.18298,3.58334 0.18298,4.51042c-1.8176,0.50624 -2.81178,0.75937 -2.98256,0.75937c-1.18327,-5.2088 -1.77491,-7.9596 -1.77491,-8.25237c2.57391,-0.33545 3.97065,-0.50319 4.19023,-0.50319v0.06403c0.04269,0.0305 0.10674,0.66482 0.19212,1.90298c2.36043,-1.56753 3.60774,-2.35128 3.74192,-2.35128z" data-paper-data="{&quot;origPos&quot;:null}" fill="#000000" stroke="none" stroke-width="0.26458" stroke-linecap="butt"/><path d="M127.3863,151.93756c2.31773,0.62213 3.54675,1.00029 3.68703,1.13448c1.27475,1.80539 1.99143,2.84532 2.15001,3.1198c-0.82341,2.6105 -1.2961,3.91575 -1.41809,3.91575c-2.74469,0.64042 -4.18109,0.96064 -4.30916,0.96064c-2.26894,-1.32354 -3.4766,-2.06157 -3.62298,-2.21404c-0.0793,-2.46413 -0.11894,-3.82428 -0.11894,-4.08044c-0.0366,-0.07318 -0.0549,-0.12808 -0.0549,-0.16468c2.34213,-1.781 3.55284,-2.67149 3.63214,-2.67149zM127.21247,155.28607c-0.0366,0.24398 -0.09148,1.13143 -0.16468,2.66235l2.04021,0.45745c0.48794,-1.52483 0.73191,-2.33908 0.73191,-2.44277c-1.62241,-0.48794 -2.49157,-0.73192 -2.60744,-0.73192z" data-paper-data="{&quot;origPos&quot;:null}" fill="#000000" stroke="none" stroke-width="0.26458" stroke-linecap="butt"/><path d="M138.07229,151.92841c0.0793,0.10369 0.491,1.87248 1.23511,5.3064h0.06405c0,-0.07927 0.45134,-0.77765 1.35404,-2.09512c0.37816,0.25616 1.09788,0.81121 2.15916,1.6651h0.12809v-0.06403c0.16468,-2.37874 0.28666,-3.69619 0.36596,-3.95235c2.51292,0.12807 3.76937,0.23176 3.76937,0.31106c-1.15277,4.63547 -1.76879,7.0447 -1.8481,7.22769c-0.38425,0.04268 -1.18936,0.16466 -2.41532,0.36595c-1.00638,-1.57971 -1.58277,-2.42142 -1.72915,-2.52511c-0.65872,1.75661 -1.07043,2.72334 -1.23511,2.90022h-2.47022c-0.15248,-0.04879 -0.8722,-1.63461 -2.15916,-4.75746c-0.82341,-1.74439 -1.23511,-2.68979 -1.23511,-2.83617c0,-0.13419 1.33881,-0.64959 4.01639,-1.54618z" data-paper-data="{&quot;origPos&quot;:null}" fill="#000000" stroke="none" stroke-width="0.26458" stroke-linecap="butt"/><path d="M156.3519,151.92841c1.49434,3.42781 2.29029,5.20576 2.38787,5.33384c0.73802,-2.79957 1.16802,-4.29085 1.29002,-4.47384c2.32994,0.21347 3.4949,0.39646 3.4949,0.54894v0.06404c-1.63461,4.48909 -2.51292,6.84037 -2.6349,7.05384c-1.8054,0.32937 -3.01305,0.5337 -3.62298,0.61299l-4.47384,-6.62385v-0.12806c0.04269,-0.07927 1.22902,-0.87524 3.55895,-2.38788z" data-paper-data="{&quot;origPos&quot;:null}" fill="#000000" stroke="none" stroke-width="0.26458" stroke-linecap="butt"/><path d="M165.76619,148.25967l3.59554,0.56723c-0.45134,1.7261 -0.74717,2.58916 -0.88744,2.58916c-1.89079,-0.12807 -2.83617,-0.25311 -2.83617,-0.3751v-2.6532c0.01829,-0.08538 0.06099,-0.12806 0.1281,-0.12806zM164.7598,152.61459h0.0549c2.78129,0.50624 4.17192,0.80204 4.17192,0.88744c-0.79901,4.52568 -1.2839,7.04775 -1.45469,7.56619h-2.90022c-0.0854,0 -0.12809,-0.04268 -0.12809,-0.12806z" data-paper-data="{&quot;origPos&quot;:null}" fill="#000000" stroke="none" stroke-width="0.26458" stroke-linecap="butt"/><path d="M177.04685,151.92841c1.7566,1.12228 2.72639,1.76881 2.90936,1.93958c-0.63433,1.40894 -0.99724,2.11341 -1.08873,2.11341l-3.33022,-1.93044h-0.11893c0,0.06097 -0.14333,0.40254 -0.42999,1.02468c3.06795,1.65292 4.60192,2.50073 4.60192,2.54342c-0.86,1.98837 -1.3449,3.03745 -1.45469,3.14723l-5.20576,0.30192c-2.02498,-1.34185 -3.1137,-2.04936 -3.26618,-2.12256v-0.05488c0,-0.15248 0.30192,-0.83866 0.90575,-2.05851l4.06213,2.11341l0.30192,-1.20767c-2.51292,-1.12837 -4.00724,-1.83284 -4.48298,-2.11341v-0.12806c0,-0.23178 0.48489,-1.25952 1.45469,-3.08321z" data-paper-data="{&quot;origPos&quot;:null}" fill="#000000" stroke="none" stroke-width="0.26458" stroke-linecap="butt"/><path d="M182.12452,148.25967l3.59554,0.56723c-0.45134,1.7261 -0.74716,2.58916 -0.88744,2.58916c-1.89079,-0.12807 -2.83617,-0.25311 -2.83617,-0.3751v-2.6532c0.01829,-0.08538 0.06099,-0.12806 0.12809,-0.12806zM181.11814,152.61459h0.0549c2.78129,0.50624 4.17192,0.80204 4.17192,0.88744c-0.79901,4.52568 -1.2839,7.04775 -1.45469,7.56619h-2.90022c-0.0854,0 -0.1281,-0.04268 -0.1281,-0.12806z" data-paper-data="{&quot;origPos&quot;:null}" fill="#000000" stroke="none" stroke-width="0.26458" stroke-linecap="butt"/><path d="M188.75753,149.16543l4.02555,0.71362l-0.38426,3.05575c0.79901,-0.04268 1.38454,-0.06403 1.75659,-0.06403h0.58554l0.12809,-0.06403l0.06405,0.12806c-0.12809,1.85419 -0.23788,2.89717 -0.32936,3.12895l-0.12809,-0.07318c-0.09149,0 -0.9149,-0.04268 -2.47022,-0.12806c-0.0854,1.43334 -0.14944,3.14725 -0.19212,5.14172l-0.1281,0.06404c-1.96397,-0.12807 -3.13503,-0.23788 -3.5132,-0.32936l0.06404,-0.25617c0,-0.53065 0.0854,-2.17746 0.25617,-4.94044c-1.64681,-0.09147 -2.47022,-0.20125 -2.47022,-0.32936c0.0854,-2.03716 0.19518,-3.05575 0.32936,-3.05575l2.40617,0.45745v-0.78681c0,-0.64044 -0.0244,-1.50653 -0.07319,-2.59831c0.04879,0 0.07319,-0.02135 0.07319,-0.06403z" data-paper-data="{&quot;origPos&quot;:null}" fill="#000000" stroke="none" stroke-width="0.26458" stroke-linecap="butt"/><path d="M207.74161,149.16543c2.19576,1.11007 3.32414,1.6651 3.38513,1.6651c0,0.09757 -0.45745,0.97892 -1.37235,2.64405h-0.06403c-0.07318,0 -1.1253,-0.4971 -3.15638,-1.49128l-1.03383,1.38148c1.7505,0.84171 3.87609,1.91519 6.37681,3.22044c-1.13447,2.01887 -1.93956,3.36071 -2.41532,4.02554l-5.16916,0.45745c-2.36043,-1.59193 -3.60774,-2.41532 -3.74192,-2.47022v-0.06403c0,-0.17079 0.4788,-0.95456 1.43638,-2.3513h0.11893c0.37815,0.22568 1.56447,0.87526 3.55895,1.94873l1.20766,-1.37233c-3.66568,-1.86639 -5.69675,-2.92157 -6.09321,-3.16555v-0.05488c1.16497,-2.26894 1.79931,-3.41867 1.903,-3.44917c3.03135,-0.61602 4.7178,-0.92403 5.05936,-0.92403z" data-paper-data="{&quot;origPos&quot;:null}" fill="#2b70c2" stroke="none" stroke-width="0.26458" stroke-linecap="butt"/><path d="M220.97101,151.92841l3.0466,2.09511c-0.21347,3.47661 -0.36291,5.50768 -0.44831,6.09321c-0.35376,0.04268 -1.43028,0.10672 -3.22958,0.19212l-0.06403,-0.12806l-0.32021,-4.88555l-0.12806,-0.06403c-1.16496,0.25007 -1.96703,0.43915 -2.40618,0.56724c0.122,2.07986 0.18299,3.58334 0.18299,4.51042c-1.8176,0.50624 -2.81178,0.75937 -2.98257,0.75937c-1.18326,-5.2088 -1.77489,-7.9596 -1.77489,-8.25237c2.5739,-0.33545 3.97063,-0.50319 4.19021,-0.50319v0.06403c0.04268,0.0305 0.10673,0.66482 0.19214,1.90298c2.36043,-1.56753 3.60774,-2.35128 3.74193,-2.35128z" data-paper-data="{&quot;origPos&quot;:null}" fill="#2b70c2" stroke="none" stroke-width="0.26458" stroke-linecap="butt"/><path d="M228.6104,151.93756c2.31773,0.62213 3.54673,1.00029 3.68702,1.13448c1.27475,1.80539 1.99142,2.84532 2.15,3.1198c-0.82342,2.6105 -1.2961,3.91575 -1.41808,3.91575c-2.74469,0.64042 -4.18108,0.96064 -4.30916,0.96064c-2.26894,-1.32354 -3.47661,-2.06157 -3.62298,-2.21404c-0.07927,-2.46413 -0.11891,-3.82428 -0.11891,-4.08044c-0.03659,-0.07318 -0.05489,-0.12808 -0.05489,-0.16468c2.34214,-1.781 3.55285,-2.67149 3.63215,-2.67149zM228.43656,155.28607c-0.03659,0.24398 -0.09149,1.13143 -0.16468,2.66235l2.04022,0.45745c0.48794,-1.52483 0.73192,-2.33908 0.73192,-2.44277c-1.62241,-0.48794 -2.49157,-0.73192 -2.60746,-0.73192z" data-paper-data="{&quot;origPos&quot;:null}" fill="#2b70c2" stroke="none" stroke-width="0.26458" stroke-linecap="butt"/><path d="M239.29638,151.92841c0.07927,0.10369 0.49099,1.87248 1.23512,5.3064h0.06403c0,-0.07927 0.45135,-0.77765 1.35405,-2.09512c0.37815,0.25616 1.09787,0.81121 2.15914,1.6651h0.12806v-0.06403c0.16468,-2.37874 0.28666,-3.69619 0.36596,-3.95235c2.5129,0.12807 3.76937,0.23176 3.76937,0.31106c-1.15277,4.63547 -1.7688,7.0447 -1.8481,7.22769c-0.38425,0.04268 -1.18936,0.16466 -2.41532,0.36595c-1.00638,-1.57971 -1.58276,-2.42142 -1.72915,-2.52511c-0.65872,1.75661 -1.07042,2.72334 -1.23511,2.90022h-2.47021c-0.15248,-0.04879 -0.87221,-1.63461 -2.15916,-4.75746c-0.82342,-1.74439 -1.23511,-2.68979 -1.23511,-2.83617c0,-0.13419 1.3388,-0.64959 4.0164,-1.54618z" data-paper-data="{&quot;origPos&quot;:null}" fill="#2b70c2" stroke="none" stroke-width="0.26458" stroke-linecap="butt"/><path d="M261.5558,149.16543c2.641,0.31716 4.01639,0.51539 4.12617,0.59467v0.06403l-0.47575,11.0062l-0.12806,0.05488c-0.63433,0 -1.68952,0.06099 -3.16555,0.18297c-0.07927,-0.23787 -0.11891,-0.75632 -0.11891,-1.55532v-1.31745l-0.06403,-0.3568c0,-0.04268 0.02135,-0.06403 0.06403,-0.06403l-0.06403,-0.4117v-1.07958c-1.06738,0 -2.12257,0.03965 -3.16555,0.11892l0.23787,4.07129c-0.31107,0.07927 -1.38759,0.2775 -3.22958,0.59469c-0.09147,0 -0.39033,-2.27199 -0.8966,-6.81597c-0.04268,-0.10369 -0.26226,-1.75965 -0.65872,-4.96789c1.84808,0.04268 3.20517,0.06403 4.07128,0.06403c0.09147,0 0.18906,1.43334 0.29277,4.30001h3.29363v-0.59469c0,-0.14637 -0.02136,-0.3263 -0.06404,-0.53979c0,-0.03659 0.02136,-0.05488 0.06404,-0.05488l-0.06404,-0.30192v-1.37235c0,-0.34156 -0.01829,-0.88133 -0.05488,-1.61935z" data-paper-data="{&quot;origPos&quot;:null}" fill="#2b70c2" stroke="none" stroke-width="0.26458" stroke-linecap="butt"/><path d="M267.86857,148.25967l3.59554,0.56723c-0.45136,1.7261 -0.74717,2.58916 -0.88746,2.58916c-1.89077,-0.12807 -2.83617,-0.25311 -2.83617,-0.3751v-2.6532c0.01829,-0.08538 0.06098,-0.12806 0.12806,-0.12806zM266.86218,152.61459h0.05489c2.78127,0.50624 4.17192,0.80204 4.17192,0.88744c-0.79901,4.52568 -1.2839,7.04775 -1.45469,7.56619h-2.90022c-0.08538,0 -0.12806,-0.04268 -0.12806,-0.12806z" data-paper-data="{&quot;origPos&quot;:null}" fill="#2b70c2" stroke="none" stroke-width="0.26458" stroke-linecap="butt"/><path d="M277.30115,149.15626h0.05488c2.75689,0.23178 4.13533,0.41172 4.13533,0.53979l1.2168,10.76833c0,0.07927 -1.2168,0.28055 -3.65042,0.60383l-0.05489,-0.11891v-0.97895c-2.09815,0.56723 -3.53759,0.93319 -4.31831,1.09788c-1.85419,-2.6227 -2.82704,-4.01944 -2.91852,-4.19023c1.36625,-2.48241 2.09511,-3.73887 2.1866,-3.76937l3.83341,0.18297c-0.07927,-0.46965 -0.24091,-1.8481 -0.48489,-4.13533zM275.59944,155.71606c0.61604,1.8847 1.0003,2.91853 1.15278,3.1015l1.82065,-1.58276c-0.18908,-1.09178 -0.32937,-1.63766 -0.42086,-1.63766h-2.43362c-0.07927,0.0122 -0.11892,0.05183 -0.11892,0.11891z" data-paper-data="{&quot;origPos&quot;:null}" fill="#2b70c2" stroke="none" stroke-width="0.26458" stroke-linecap="butt"/><path d="M288.84714,151.93756c2.76298,1.42114 4.29391,2.25065 4.59278,2.48852c-0.39646,1.85419 -0.63127,2.80873 -0.70447,2.86363h-5.78214v0.10062l1.61937,2.00362l2.5434,-1.29915c0.25007,0.43305 0.60993,1.18936 1.07958,2.26894c-0.21958,0.07318 -1.82063,0.308 -4.80321,0.70447c-2.47021,-1.62851 -3.71447,-2.47632 -3.73277,-2.54342c0.39644,-3.16553 0.63128,-4.74829 0.70447,-4.74829c2.58001,-1.09788 4.07432,-1.71086 4.48298,-1.83895zM288.25245,154.15159c-0.04879,0.122 -0.37205,0.60689 -0.96979,1.45469c0,0.25616 0.35985,0.38425 1.07958,0.38425c0,0.03659 0.5215,0.12503 1.56447,0.26532c0.28666,-0.39644 0.42999,-0.62822 0.42999,-0.69531c-0.09147,-0.54284 -0.2897,-0.81427 -0.59467,-0.81427z" data-paper-data="{&quot;origPos&quot;:null}" fill="#2b70c2" stroke="none" stroke-width="0.26458" stroke-linecap="butt"/><path d="M297.9595,151.93756c2.31773,0.62213 3.54674,1.00029 3.68703,1.13448c1.27476,1.80539 1.99142,2.84532 2.15001,3.1198c-0.82342,2.6105 -1.2961,3.91575 -1.4181,3.91575c-2.74469,0.64042 -4.18106,0.96064 -4.30915,0.96064c-2.26894,-1.32354 -3.4766,-2.06157 -3.62299,-2.21404c-0.07927,-2.46413 -0.11891,-3.82428 -0.11891,-4.08044c-0.03659,-0.07318 -0.05489,-0.12808 -0.05489,-0.16468c2.34213,-1.781 3.55284,-2.67149 3.63213,-2.67149zM297.78568,155.28607c-0.03659,0.24398 -0.09149,1.13143 -0.16469,2.66235l2.04023,0.45745c0.48795,-1.52483 0.73191,-2.33908 0.73191,-2.44277c-1.62241,-0.48794 -2.49156,-0.73192 -2.60745,-0.73192z" data-paper-data="{&quot;origPos&quot;:null}" fill="#2b70c2" stroke="none" stroke-width="0.26458" stroke-linecap="butt"/><path d="M309.56954,151.92841l0.06403,0.11891l-1.23511,6.55065h0.06403l3.14724,-0.92404v-3.70533c0.0122,-0.08538 0.05182,-0.12806 0.11891,-0.12806c2.36653,0.16469 3.68399,0.24703 3.95236,0.24703c0,0.04268 0.02135,0.06403 0.06403,0.06403c0,1.04297 -0.32936,3.20519 -0.98809,6.48663c0,0.18906 -0.94539,0.3324 -2.83617,0.42999c-0.09756,-0.11589 -0.17991,-0.36291 -0.24702,-0.74106c-2.42143,0.49404 -3.80292,0.74106 -4.14448,0.74106c-1.93347,-1.43944 -2.90022,-2.18051 -2.90022,-2.22319c0.32936,-4.32441 0.53673,-6.56897 0.62213,-6.73365h0.05488c1.54312,-0.04268 2.96427,-0.10367 4.26342,-0.18297z" data-paper-data="{&quot;origPos&quot;:null}" fill="#2b70c2" stroke="none" stroke-width="0.26458" stroke-linecap="butt"/><path d="M319.40466,149.16543l4.02555,0.71362l-0.38426,3.05575c0.79901,-0.04268 1.38454,-0.06403 1.7566,-0.06403h0.58554l0.12806,-0.06403l0.06403,0.12806c-0.12808,1.85419 -0.23788,2.89717 -0.32936,3.12895l-0.12806,-0.07318c-0.09147,0 -0.91487,-0.04268 -2.47021,-0.12806c-0.08538,1.43334 -0.14942,3.14725 -0.19213,5.14172l-0.12806,0.06404c-1.96398,-0.12807 -3.13505,-0.23788 -3.5132,-0.32936l0.06403,-0.25617c0,-0.53065 0.08539,-2.17746 0.25617,-4.94044c-1.64681,-0.09147 -2.47022,-0.20125 -2.47022,-0.32936c0.08538,-2.03716 0.19516,-3.05575 0.32936,-3.05575l2.40618,0.45745v-0.78681c0,-0.64044 -0.02439,-1.50653 -0.07318,-2.59831c0.04879,0 0.07318,-0.02135 0.07318,-0.06403z" data-paper-data="{&quot;origPos&quot;:null}" fill="#2b70c2" stroke="none" stroke-width="0.26458" stroke-linecap="butt"/><path d="M338.38875,149.16543c2.19575,1.11007 3.32412,1.6651 3.38511,1.6651c0,0.09757 -0.45745,0.97892 -1.37234,2.64405h-0.06403c-0.07318,0 -1.1253,-0.4971 -3.15638,-1.49128l-1.03384,1.38148c1.7505,0.84171 3.87611,1.91519 6.37683,3.22044c-1.13448,2.01887 -1.93958,3.36071 -2.41532,4.02554l-5.16916,0.45745c-2.36043,-1.59193 -3.60774,-2.41532 -3.74193,-2.47022v-0.06403c0,-0.17079 0.4788,-0.95456 1.43638,-2.3513h0.11891c0.37815,0.22568 1.56447,0.87526 3.55894,1.94873l1.20767,-1.37233c-3.66568,-1.86639 -5.69675,-2.92157 -6.09321,-3.16555v-0.05488c1.16496,-2.26894 1.79929,-3.41867 1.90298,-3.44917c3.03136,-0.61602 4.71782,-0.92403 5.05938,-0.92403z" data-paper-data="{&quot;origPos&quot;:null}" fill="#2b70c2" stroke="none" stroke-width="0.26458" stroke-linecap="butt"/><path d="M347.08942,151.93756c2.75079,0.51844 4.19022,0.81425 4.3183,0.88744v0.10976c-0.59163,1.67122 -0.88744,2.53731 -0.88744,2.5983h-0.05489c-0.15248,0 -0.8905,-0.23787 -2.21404,-0.71362c-0.73802,1.23816 -1.10702,1.89993 -1.10702,1.98532l1.82978,1.77491c1.41503,-1.32964 2.13476,-1.99447 2.15916,-1.99447c1.10397,1.44553 1.65596,2.25674 1.65596,2.43362c-0.60382,0.34766 -1.65596,1.03077 -3.15638,2.04936c-2.90327,-0.62823 -4.4708,-0.97893 -4.70258,-1.05213l-1.43638,-4.64768z" data-paper-data="{&quot;origPos&quot;:null}" fill="#2b70c2" stroke="none" stroke-width="0.26458" stroke-linecap="butt"/><path d="M360.27306,151.92841c1.20767,0.67703 1.94875,1.11617 2.22321,1.31745c-0.98809,2.05545 -1.51873,3.10148 -1.59193,3.13809h-0.06403l-1.30831,-1.14363l-1.54618,1.8847l0.17383,3.43084c-0.07927,0.07318 -1.08872,0.24397 -3.0283,0.51235c-0.07318,-0.52454 -0.54892,-3.09539 -1.42725,-7.71258c0,-0.07318 1.27475,-0.26226 3.82426,-0.56723c0.04268,0.04879 0.15857,0.61908 0.34767,1.71086c1.52483,-1.71391 2.32382,-2.57086 2.39702,-2.57086z" data-paper-data="{&quot;origPos&quot;:null}" fill="#2b70c2" stroke="none" stroke-width="0.26458" stroke-linecap="butt"/><path d="M364.60967,151.92841c3.623,0.50015 5.43449,0.80816 5.43449,0.92405c1.42723,1.22595 2.14085,1.88163 2.14085,1.96702c-0.57943,1.81149 -0.90879,2.91242 -0.98809,3.30277c0.57943,1.28696 0.90879,2.05547 0.98809,2.30554c0,0.07318 -0.9454,0.26835 -2.83617,0.58553c-0.02439,-0.10369 -0.19823,-0.33547 -0.5215,-0.69532c-2.6105,0.50015 -4.01639,0.75022 -4.21767,0.75022l-1.39065,-3.76022l3.0649,-1.61937c0.49406,0.07927 1.2656,0.11891 2.31469,0.11891c0,-0.13419 0.0183,-0.53978 0.05489,-1.21681c-0.17688,0 -1.75661,0.11589 -4.73917,0.34767l-0.05489,-0.11892c0.41476,-1.92738 0.66483,-2.89107 0.75022,-2.89107zM366.51265,157.308c0,0.06709 0.19518,0.7807 0.58554,2.14085h0.05489c0.7685,-0.50013 1.15276,-0.8295 1.15276,-0.98808l0.11891,-0.97894c-0.14639,0 -0.78377,-0.05794 -1.91214,-0.17382z" data-paper-data="{&quot;origPos&quot;:null}" fill="#2b70c2" stroke="none" stroke-width="0.26458" stroke-linecap="butt"/><path d="M373.06332,149.17458c1.86639,0.03659 3.23568,0.05488 4.10789,0.05488c0.07927,0 0.3202,3.74498 0.72276,11.23493c-0.31106,0.07927 -1.39674,0.28055 -3.25703,0.60383c-0.09147,0 -0.39339,-2.29335 -0.90574,-6.88002c-0.04268,-0.10978 -0.26532,-1.781 -0.66788,-5.01363z" data-paper-data="{&quot;origPos&quot;:null}" fill="#2b70c2" stroke="none" stroke-width="0.26458" stroke-linecap="butt"/><path d="M380.3093,151.92841c3.623,0.50015 5.43448,0.80816 5.43448,0.92405c1.42723,1.22595 2.14085,1.88163 2.14085,1.96702c-0.57943,1.81149 -0.90879,2.91242 -0.98809,3.30277c0.57943,1.28696 0.90879,2.05547 0.98809,2.30554c0,0.07318 -0.94539,0.26835 -2.83617,0.58553c-0.02439,-0.10369 -0.19823,-0.33547 -0.5215,-0.69532c-2.6105,0.50015 -4.01639,0.75022 -4.21767,0.75022l-1.39065,-3.76022l3.06489,-1.61937c0.49406,0.07927 1.26561,0.11891 2.3147,0.11891c0,-0.13419 0.01829,-0.53978 0.05488,-1.21681c-0.17688,0 -1.7566,0.11589 -4.73916,0.34767l-0.05488,-0.11892c0.41476,-1.92738 0.66483,-2.89107 0.75022,-2.89107zM382.21228,157.308c0,0.06709 0.19518,0.7807 0.58555,2.14085h0.05488c0.7685,-0.50013 1.15276,-0.8295 1.15276,-0.98808l0.11891,-0.97894c-0.14639,0 -0.78377,-0.05794 -1.91214,-0.17382z" data-paper-data="{&quot;origPos&quot;:null}" fill="#2b70c2" stroke="none" stroke-width="0.26458" stroke-linecap="butt"/><path d="M395.26784,151.92841h0.03659c1.62851,0.95758 2.50683,1.45773 2.63491,1.50043v0.08232c-0.42084,0.48185 -1.19547,1.31746 -2.32384,2.50682c2.21406,0.82341 3.45832,1.3205 3.73278,1.49128l-2.06766,2.55257c-1.39674,-1.19547 -2.28726,-1.94263 -2.67151,-2.2415c-0.9454,1.842 -1.53397,2.92462 -1.76574,3.24789h-0.03659c-1.7505,-0.61603 -2.70198,-0.98199 -2.85447,-1.09788v-0.04574l2.41532,-3.15638c-2.24454,-0.9271 -3.4461,-1.46993 -3.60469,-1.62852c0.98809,-1.67731 1.54312,-2.57086 1.6651,-2.68064c0.0183,0.04268 1.10397,0.78985 3.25704,2.24148c0.76241,-1.40894 1.28999,-2.33299 1.58276,-2.77213z" data-paper-data="{&quot;origPos&quot;:null}" fill="#2b70c2" stroke="none" stroke-width="0.26458" stroke-linecap="butt"/><path d="M404.38934,151.94671c0.08538,0.0122 0.12806,0.05488 0.12806,0.12806l-0.95149,5.26979c1.8176,-0.21347 2.7264,-0.38425 2.7264,-0.51233c0.34156,-2.11037 0.57638,-3.29364 0.70447,-3.54981c2.25065,0.46354 3.49794,0.73802 3.74192,0.82341c-1.31135,4.50738 -2.03107,6.85562 -2.15916,7.0447c-2.29334,1.61022 -3.58334,2.50071 -3.87,2.67149c-0.08538,0 -1.54616,-0.35986 -4.38236,-1.07958v-0.06403c0.75022,-1.65292 1.21681,-2.47937 1.39979,-2.47937l2.79044,1.39979l1.33575,-2.28724c-1.20157,0.29887 -1.89994,0.44829 -2.09512,0.44829l-3.55894,-1.84808c0.43305,-3.97676 0.70751,-5.96513 0.8234,-5.96513z" data-paper-data="{&quot;origPos&quot;:null}" fill="#2b70c2" stroke="none" stroke-width="0.26458" stroke-linecap="butt"/><path d="M415.66087,149.50393l0.03659,0.07318c-0.60993,5.38568 -0.9515,8.21577 -1.0247,8.49024c-1.29305,-0.122 -2.11035,-0.20739 -2.45191,-0.25618v-0.03659l-0.58553,-7.64853c0.14637,-0.04879 1.48823,-0.25616 4.02554,-0.62213zM412.03789,158.25034c0.04268,0.02439 0.99417,0.09758 2.85447,0.21958l0.03659,0.07318c-0.28668,1.6834 -0.46965,2.52511 -0.54894,2.52511h-2.12255c-0.07318,0 -0.17077,-0.84171 -0.29277,-2.52511c-0.02439,0 -0.03659,-0.07319 -0.03659,-0.21958c0.07318,-0.02439 0.10976,-0.04879 0.10976,-0.07318z" data-paper-data="{&quot;origPos&quot;:null}" fill="#000000" stroke="none" stroke-width="0.26458" stroke-linecap="butt"/></g></g></svg>