<svg version="1.1" xmlns="http://www.w3.org/2000/svg" xmlns:xlink="http://www.w3.org/1999/xlink" width="233.90831" height="42.56332" viewBox="0,0,233.90831,42.56332"><g transform="translate(-125.43308,-158.68225)"><g data-paper-data="{&quot;isPaintingLayer&quot;:true}" fill="#ffffff" fill-rule="nonzero" stroke="none" stroke-linecap="butt" stroke-linejoin="miter" stroke-miterlimit="10" stroke-dasharray="" stroke-dashoffset="0" style="mix-blend-mode: normal"><text transform="translate(125.79398,196.55393) scale(0.7218,0.72179)" font-size="22" xml:space="preserve" data-paper-data="{&quot;origPos&quot;:null}" fill="#ffffff" fill-rule="nonzero" stroke="none" stroke-width="1" stroke-linecap="butt" stroke-linejoin="miter" stroke-miterlimit="10" stroke-dasharray="" stroke-dashoffset="0" font-family="Sans Serif" font-weight="400" text-anchor="start" style="mix-blend-mode: normal"><tspan x="0" dy="0">Defeat every type of goombas.</tspan></text><g data-paper-data="{&quot;origPos&quot;:null}" stroke-width="0.26458"><path d="M162.39551,159.86158c0.04862,0.10536 0.07294,0.18235 0.07294,0.23099c-0.04862,2.41535 -0.07294,3.81349 -0.07294,4.19442l-0.15802,0.07295c-3.72026,0.09727 -5.85192,0.14588 -6.39497,0.14588l-0.07293,0.15806c0.04862,0.89968 0.07293,1.63725 0.07293,2.21271v0.37689h0.07294l4.9482,-0.60789l0.08509,0.14588v3.73244c0,0.10538 -0.05268,0.15806 -0.15802,0.15806l-4.64425,-0.53494v0.44983c0,1.02125 0.02837,2.54503 0.08509,4.57132c-0.45389,0.10538 -1.82773,0.28369 -4.12149,0.53494c-0.14588,-0.28367 -0.8551,-4.98063 -2.12762,-14.09086h0.07294z"/><path d="M165.64163,163.55753c4.81449,0.66463 7.22173,1.07394 7.22173,1.22794c1.89661,1.62915 2.84491,2.50044 2.84491,2.61392c-0.76999,2.40723 -1.20767,3.87022 -1.31303,4.38895c0.76999,1.7102 1.20767,2.73145 1.31303,3.06377c0,0.09727 -1.2563,0.35664 -3.7689,0.77809c-0.03241,-0.13779 -0.26342,-0.44579 -0.693,-0.92399c-3.46902,0.66463 -5.33725,0.99694 -5.60473,0.99694l-1.84798,-4.99684l4.07287,-2.15193c0.65652,0.10538 1.6818,0.15806 3.0759,0.15806c0,-0.17831 0.02431,-0.71731 0.07294,-1.61699c-0.23505,0 -2.33429,0.154 -6.29773,0.46199l-0.07293,-0.15804c0.55115,-2.56124 0.88346,-3.84186 0.99692,-3.84186zM168.17046,170.7063c0,0.08915 0.25936,1.03745 0.77809,2.84491h0.07293c1.02125,-0.66463 1.53189,-1.10231 1.53189,-1.31305l0.15802,-1.30089c-0.19452,0 -1.04151,-0.07699 -2.54097,-0.23099z"/><path d="M190.3827,163.55753c1.97765,0.81863 3.6838,1.58862 5.11842,2.30997c-0.37284,4.82259 -0.61193,7.46081 -0.71731,7.91471c-2.38293,0.59168 -3.71622,0.88753 -3.99989,0.88753c0,-1.05367 -0.08105,-3.13266 -0.24317,-6.23694c-0.89968,0.08915 -1.34952,0.16616 -1.34952,0.23099c0,0.308 0.05268,2.06682 0.15802,5.27647c0.04862,0 0.07294,0.02837 0.07294,0.08511c0,0.09727 -1.25225,0.36472 -3.75675,0.80242c-0.10534,-0.12969 -0.4255,-2.10329 -0.96046,-5.92083c-1.01316,0.25936 -1.51973,0.44579 -1.51973,0.55924l0.48631,4.96038c-0.09724,0.10538 -1.43054,0.5309 -3.99989,1.27656c-1.49136,-5.27647 -2.42345,-8.81844 -2.79629,-10.6259c2.81248,-0.69704 4.38489,-1.04557 4.71721,-1.04557c0.37284,1.47514 0.55925,2.32619 0.55925,2.55314h0.08509c1.36978,-1.2644 2.32619,-2.11544 2.86924,-2.55314h0.08509l2.55312,1.83583h0.08509c1.59672,-1.53998 2.44776,-2.30997 2.55314,-2.30997z"/><path d="M198.39468,158.68227l4.778,0.75378c-0.59979,2.29376 -0.99289,3.44065 -1.1793,3.44065c-2.51262,-0.17022 -3.76892,-0.33638 -3.76892,-0.49848v-3.52575c0.02431,-0.11348 0.08103,-0.17022 0.17018,-0.17022zM197.05732,164.46937h0.07294c3.69595,0.67273 5.54393,1.06584 5.54393,1.1793c-1.06178,6.01404 -1.70614,9.36554 -1.93307,10.05448h-3.85403c-0.11346,0 -0.17018,-0.05674 -0.17018,-0.17021z"/><path d="M203.57389,159.89805c2.48019,0.04864 4.29981,0.07295 5.45885,0.07295c0.10534,0 0.4255,4.97659 0.96046,14.92975c-0.41337,0.10538 -1.85608,0.37284 -4.32817,0.80242c-0.12155,0 -0.52276,-3.04755 -1.20361,-9.14264c-0.05672,-0.14588 -0.35257,-2.36671 -0.88753,-6.66245z"/><path d="M216.94743,163.58187c0.11346,0.01621 0.17017,0.07295 0.17017,0.17021l-1.26442,7.00288c2.41535,-0.28367 3.62302,-0.51062 3.62302,-0.68084c0.45389,-2.80439 0.76595,-4.37679 0.93614,-4.71721c2.99081,0.61599 4.64831,0.98073 4.97253,1.09421c-1.7426,5.98973 -2.69903,9.11021 -2.86922,9.36148c-3.04755,2.13977 -4.76181,3.32313 -5.14275,3.55007c-0.11346,0 -2.05465,-0.4782 -5.82357,-1.43462v-0.08511c0.99692,-2.19651 1.61698,-3.29476 1.86014,-3.29476l3.70812,1.86014l1.77503,-3.03944c-1.59672,0.39715 -2.52477,0.59574 -2.78413,0.59574l-4.72938,-2.45587c0.57549,-5.28457 0.94021,-7.92686 1.09421,-7.92686z"/><path d="M241.32376,159.8859c0.17831,0.19452 1.91686,1.46703 5.21568,3.81754v0.07295c-0.67273,2.77198 -1.11446,4.35654 -1.3252,4.75369l-2.56528,1.48324c3.03944,2.19651 4.57132,3.33934 4.59563,3.42849c-1.07799,0.51873 -2.73955,1.27252 -4.98468,2.26135c-2.60176,-3.55818 -3.90265,-5.3778 -3.90265,-5.45884h-0.14587c-0.05672,2.08304 -0.08509,3.5136 -0.08509,4.29168c-0.03241,0.36474 -0.10942,0.54709 -0.23099,0.54709h-3.65948c-0.17022,0 -0.42958,-2.26134 -0.77811,-6.78402c-0.1621,-0.98883 -0.39715,-3.27449 -0.70515,-6.85698c0.94021,-0.20262 3.79729,-0.72136 8.57123,-1.55619zM237.96822,163.31438v0.07295c0,0.49441 0.02837,2.26135 0.08509,5.30079h0.07293c1.97768,-0.46199 2.96651,-0.77404 2.96651,-0.93614l0.69298,-3.11239z"/><path d="M255.45111,163.56969c3.67164,1.88851 5.70605,2.99082 6.1032,3.30692c-0.52684,2.46397 -0.83888,3.73243 -0.93614,3.80539h-7.68371v0.13373l2.15191,2.66255l3.37987,-1.72641c0.33231,0.57546 0.81052,1.5805 1.43462,3.01512c-0.29179,0.09727 -2.41939,0.40931 -6.38284,0.93615c-3.28259,-2.16408 -4.93604,-3.2907 -4.96035,-3.37987c0.52682,-4.2066 0.83888,-6.30989 0.93615,-6.30989c3.42849,-1.45893 5.41424,-2.2735 5.9573,-2.44372zM254.66084,166.51188c-0.06484,0.1621 -0.49439,0.80645 -1.28871,1.93309c0,0.34041 0.4782,0.51063 1.43462,0.51063c0,0.04864 0.693,0.16615 2.07897,0.35256c0.38094,-0.52684 0.57141,-0.83483 0.57141,-0.92399c-0.12155,-0.72137 -0.38498,-1.08203 -0.79024,-1.08203z"/><path d="M269.22586,163.55753l0.08509,0.15805l-1.64131,8.70497h0.08509l4.18227,-1.22794v-4.92391c0.01621,-0.11348 0.06887,-0.17021 0.15802,-0.17021c3.14482,0.21884 4.89554,0.32826 5.25216,0.32826c0,0.05674 0.02837,0.0851 0.08509,0.0851c0,1.38598 -0.43768,4.25928 -1.31305,8.61986c0,0.25127 -1.2563,0.44174 -3.7689,0.57142c-0.12965,-0.154 -0.23907,-0.48226 -0.32826,-0.98479c-3.21777,0.65652 -5.05358,0.98479 -5.50747,0.98479c-2.56935,-1.91282 -3.85403,-2.89762 -3.85403,-2.95433c0.4377,-5.74658 0.71327,-8.72928 0.82673,-8.94811h0.07294c2.05061,-0.05674 3.93912,-0.13779 5.66553,-0.24315z"/><path d="M289.4564,163.55753l4.04854,2.78414c-0.2837,4.61996 -0.48228,7.31899 -0.59574,8.09707c-0.4701,0.05674 -1.90067,0.14185 -4.29171,0.2553l-0.08509,-0.17022l-0.42552,-6.49226l-0.17018,-0.08511c-1.54808,0.33231 -2.61392,0.58359 -3.1975,0.75378c0.1621,2.76386 0.24315,4.76179 0.24315,5.99378c-2.41535,0.67273 -3.73649,1.0091 -3.96342,1.0091c-1.57241,-6.92182 -2.35861,-10.57726 -2.35861,-10.96632c3.42039,-0.44579 5.27647,-0.66869 5.56826,-0.66869v0.08511c0.05672,0.04052 0.14183,0.88347 0.25532,2.52881c3.1367,-2.08304 4.79422,-3.12455 4.97253,-3.12455z"/><path d="M296.3863,158.68227l4.778,0.75378c-0.59977,2.29376 -0.99287,3.44065 -1.1793,3.44065c-2.5126,-0.17022 -3.7689,-0.33638 -3.7689,-0.49848v-3.52575c0.02431,-0.11348 0.08103,-0.17022 0.17018,-0.17022zM295.04897,164.46937h0.07293c3.69597,0.67273 5.54396,1.06584 5.54396,1.1793c-1.06178,6.01404 -1.70616,9.36554 -1.9331,10.05448h-3.85401c-0.11346,0 -0.17018,-0.05674 -0.17018,-0.17021z"/><path d="M306.46509,163.56969c3.07998,0.82673 4.71317,1.32924 4.8996,1.50757c1.69398,2.39914 2.64632,3.78106 2.85706,4.1458c-1.09421,3.46902 -1.72235,5.20353 -1.88445,5.20353c-3.64733,0.85104 -5.55611,1.27656 -5.7263,1.27656c-3.01512,-1.75882 -4.61996,-2.73955 -4.81449,-2.94217c-0.10534,-3.27449 -0.15802,-5.08195 -0.15802,-5.42236c-0.04862,-0.09727 -0.07294,-0.1702 -0.07294,-0.21884c3.11239,-2.36671 4.72126,-3.55006 4.82664,-3.55006zM306.2341,168.01944c-0.04862,0.3242 -0.12157,1.50351 -0.21884,3.53791l2.71118,0.60789c0.64842,-2.02629 0.97264,-3.10833 0.97264,-3.24612c-2.15599,-0.64842 -3.31098,-0.97261 -3.46498,-0.97261z"/><path d="M326.12422,163.55753l4.04854,2.78414c-0.28367,4.61996 -0.48226,7.31899 -0.59574,8.09707c-0.47009,0.05674 -1.90065,0.14185 -4.29169,0.2553l-0.08509,-0.17022l-0.42552,-6.49226l-0.17018,-0.08511c-1.54808,0.33231 -2.61391,0.58359 -3.19748,0.75378c0.1621,2.76386 0.24315,4.76179 0.24315,5.99378c-2.41535,0.67273 -3.73649,1.0091 -3.96343,1.0091c-1.57241,-6.92182 -2.35861,-10.57726 -2.35861,-10.96632c3.42039,-0.44579 5.27647,-0.66869 5.56826,-0.66869v0.08511c0.05672,0.04052 0.14183,0.88347 0.2553,2.52881c3.13672,-2.08304 4.79422,-3.12455 4.97253,-3.12455z"/></g></g></g></svg>