<svg version="1.1" xmlns="http://www.w3.org/2000/svg" xmlns:xlink="http://www.w3.org/1999/xlink" width="606.82755" height="305.02077" viewBox="0,0,606.82755,305.02077"><defs><linearGradient x1="562.6461" y1="304.99825" x2="563.18416" y2="360.99672" gradientUnits="userSpaceOnUse" id="color-1"><stop offset="0" stop-color="#c3e060"/><stop offset="1" stop-color="#6de01b"/></linearGradient><linearGradient x1="152.77597" y1="300.99825" x2="153.19789" y2="356.99672" gradientUnits="userSpaceOnUse" id="color-2"><stop offset="0" stop-color="#c3e060"/><stop offset="1" stop-color="#6de01b"/></linearGradient><linearGradient x1="38.50229" y1="75.11302" x2="39.09087" y2="126.70516" gradientUnits="userSpaceOnUse" id="color-3"><stop offset="0" stop-color="#c3e060"/><stop offset="1" stop-color="#6de01b"/></linearGradient><linearGradient x1="435.50229" y1="162.48027" x2="436.09088" y2="199.97216" gradientUnits="userSpaceOnUse" id="color-4"><stop offset="0" stop-color="#c3e060"/><stop offset="1" stop-color="#6de01b"/></linearGradient><linearGradient x1="209.50229" y1="62.11302" x2="210.09088" y2="113.70516" gradientUnits="userSpaceOnUse" id="color-5"><stop offset="0" stop-color="#c3e060"/><stop offset="1" stop-color="#6de01b"/></linearGradient></defs><g transform="translate(109.32755,-62.45683)"><g data-paper-data="{&quot;isPaintingLayer&quot;:true}" fill-rule="nonzero" stroke-linecap="butt" stroke-linejoin="miter" stroke-miterlimit="10" stroke-dasharray="" stroke-dashoffset="0" style="mix-blend-mode: normal"><g><path d="M234.95362,319.73301l242.91475,1.9801l-0.5966,44.9976l-242.91475,-1.9802z" fill="#c06520" stroke="#763e13" stroke-width="1.5215"/><path d="M436.67573,356.00001c0,-2.76142 2.8549,-5 6.37657,-5c3.52167,0 6.37657,2.23858 6.37657,5c0,2.76142 -2.8549,5 -6.37657,5c-3.52167,0 -6.37657,-2.23858 -6.37657,-5z" fill="#e0bb60" stroke="none" stroke-width="0.5"/><path d="M376.73598,352.00001c0,-2.76142 2.8549,-5 6.37657,-5c3.52167,0 6.37657,2.23858 6.37657,5c0,2.76142 -2.8549,5 -6.37657,5c-3.52167,0 -6.37657,-2.23858 -6.37657,-5z" data-paper-data="{&quot;origPos&quot;:null}" fill="#e0bb60" stroke="none" stroke-width="0.5"/><path d="M307.86904,355.00001c0,-2.76142 2.8549,-5 6.37657,-5c3.52167,0 6.37657,2.23858 6.37657,5c0,2.76142 -2.8549,5 -6.37657,5c-3.52167,0 -6.37657,-2.23858 -6.37657,-5z" data-paper-data="{&quot;origPos&quot;:null}" fill="#e0bb60" stroke="none" stroke-width="0.5"/><path d="M254.04711,306.76927c0,0 191.694,-0.17033 212.59813,-0.18891c6.96804,-0.00619 12.7535,-0.66104 14.66646,1.98413c2.92221,4.0407 3.18828,7.29033 3.18828,11.9355c0,9.06667 0,18.13335 0,27.20002l-14.0422,-8.17174l-12.83346,11.07396l-16.91699,-9.90319l-18.01874,10.10368l-7.88842,-12.95508l-18.00913,11.10365l-22.09266,-9.87349l-6.33507,14.03674l-28.57184,-10.83633l-10.24564,11.0591l-11.77975,-13.93279l-17.99952,12.10363l-16.9266,-10.90317l-5.06997,11.0294l-15.63268,-10.91059l-8.94211,12.05165l-10.52569,-7.65045l-12.94162,5.58581l1.22973,-30.21527c0,0 3.18758,-9.04849 8.08472,-11.95975c4.1138,-2.44559 15.00473,-1.76651 15.00473,-1.76651z" data-paper-data="{&quot;origPos&quot;:null,&quot;origRot&quot;:0}" fill="url(#color-1)" stroke="#0f6600" stroke-width="2"/></g><g data-paper-data="{&quot;origPos&quot;:null}"><path d="M-104.1745,315.73301l190.4745,1.9801l-0.4678,44.9976l-190.4745,-1.9802z" fill="#c06520" stroke="#763e13" stroke-width="1.5215"/><path d="M54,352.00001c0,-2.76142 2.23858,-5 5,-5c2.76142,0 5,2.23858 5,5c0,2.76142 -2.23858,5 -5,5c-2.76142,0 -5,-2.23858 -5,-5z" fill="#e0bb60" stroke="none" stroke-width="0.5"/><path d="M7,348.00001c0,-2.76142 2.23858,-5 5,-5c2.76142,0 5,2.23858 5,5c0,2.76142 -2.23858,5 -5,5c-2.76142,0 -5,-2.23858 -5,-5z" data-paper-data="{&quot;origPos&quot;:null}" fill="#e0bb60" stroke="none" stroke-width="0.5"/><path d="M-47,351.00001c0,-2.76142 2.23858,-5 5,-5c2.76142,0 5,2.23858 5,5c0,2.76142 -2.23858,5 -5,5c-2.76142,0 -5,-2.23858 -5,-5z" data-paper-data="{&quot;origPos&quot;:null}" fill="#e0bb60" stroke="none" stroke-width="0.5"/><path d="M-89.20289,302.76927c0,0 150.31125,-0.17033 166.70261,-0.18891c5.46379,-0.00619 10.00028,-0.66104 11.50028,1.98413c2.29136,4.0407 2.5,7.29033 2.5,11.9355c0,9.06667 0,18.13335 0,27.20002l-11.01078,-8.17174l-10.06298,11.07396l-13.26496,-9.90319l-14.12887,10.10368l-6.18547,-12.95508l-14.12133,11.10365l-17.32331,-9.87349l-4.96746,14.03674l-22.40377,-10.83633l-8.03382,11.0591l-9.23675,-13.93279l-14.1138,12.10363l-13.2725,-10.90317l-3.97547,11.0294l-12.25791,-10.91059l-7.01169,12.05165l-8.25341,-7.65045l-10.14779,5.58581l0.96426,-30.21527c0,0 2.49945,-9.04849 6.3394,-11.95975c3.22572,-2.44559 11.76552,-1.76651 11.76552,-1.76651z" data-paper-data="{&quot;origPos&quot;:null,&quot;origRot&quot;:0}" fill="url(#color-2)" stroke="#0f6600" stroke-width="2"/></g><g><g data-paper-data="{&quot;origPos&quot;:null}" stroke-width="2"><path d="M-8.66667,135v-47.90829h103v47.9083z" data-paper-data="{&quot;origPos&quot;:null}" fill="#c06520" stroke="#763e13"/><path d="M75.71398,114.26054l-13.53057,-10.7079l-16.93129,13.62233l-11.40888,-11.2741l-17.9835,10.47615l-10.1521,-12.51623c0,0 -9.63279,11.57127 -10.0378,11.31153c-1.21504,-0.7792 -9.16984,-8.01833 -9.16984,-8.01833c0,-9.50938 0,-15.199 0,-22.52397c0,-2.44165 1.69835,-4.44967 4.18518,-6.25644c2.09259,-1.52034 4.32122,-1.849 9.76574,-1.85306c16.33359,-0.01223 51.88732,-0.03884 85.09787,-0.06369c5.44464,-0.00407 9.06849,0.58703 10.46355,2.29284c1.55896,1.90621 3.48766,4.33292 3.48766,6.49939c0,10.8161 0,19.32892 0,30.14502l-14.19126,-10.26008z" data-paper-data="{&quot;origPos&quot;:null,&quot;origRot&quot;:0}" fill="url(#color-3)" stroke="#0f6600"/></g><path d="M22,122.00001c0,-2.76142 2.23858,-5 5,-5c2.76142,0 5,2.23858 5,5c0,2.76142 -2.23858,5 -5,5c-2.76142,0 -5,-2.23858 -5,-5z" data-paper-data="{&quot;origPos&quot;:null}" fill="#e0bb60" stroke="none" stroke-width="0.5"/><path d="M58,124.00001c0,-2.76142 2.23858,-5 5,-5c2.76142,0 5,2.23858 5,5c0,2.76142 -2.23858,5 -5,5c-2.76142,0 -5,-2.23858 -5,-5z" data-paper-data="{&quot;origPos&quot;:null}" fill="#e0bb60" stroke="none" stroke-width="0.5"/></g><g><g data-paper-data="{&quot;origPos&quot;:null}" stroke-width="2"><path d="M388.33333,206v-34.81484h103v34.81484z" data-paper-data="{&quot;origPos&quot;:null}" fill="#c06520" stroke="#763e13"/><path d="M472.71398,190.92868l-13.53057,-7.78141l-16.93129,9.89932l-11.40888,-8.19287l-17.9835,7.61299l-10.1521,-9.09551c0,0 -9.63278,8.40881 -10.03779,8.22006c-1.21503,-0.56625 -9.16985,-5.8269 -9.16985,-5.8269c0,-6.91044 0,-11.04508 0,-16.36812c0,-1.77435 1.69835,-3.23356 4.18519,-4.54654c2.09259,-1.10483 4.32122,-1.34366 9.76574,-1.34662c16.33359,-0.00889 51.88733,-0.02822 85.09787,-0.04628c5.44463,-0.00296 9.06849,0.42659 10.46355,1.6662c1.55895,1.38524 3.48765,3.14873 3.48765,4.7231c0,7.86003 0,14.04628 0,21.90632l-14.19125,-7.45598z" data-paper-data="{&quot;origPos&quot;:null,&quot;origRot&quot;:0}" fill="url(#color-4)" stroke="#0f6600"/></g><path d="M463,198.73303c0,-2.00672 2.23858,-3.63349 5,-3.63349c2.76142,0 5,1.62677 5,3.63349c0,2.00672 -2.23858,3.63349 -5,3.63349c-2.76142,0 -5,-1.62677 -5,-3.63349z" data-paper-data="{&quot;origPos&quot;:null}" fill="#e0bb60" stroke="none" stroke-width="0.5"/><path d="M423,196.55294c0,-2.00672 2.23858,-3.63349 5,-3.63349c2.76142,0 5,1.62677 5,3.63349c0,2.00672 -2.23858,3.63349 -5,3.63349c-2.76142,0 -5,-1.62677 -5,-3.63349z" data-paper-data="{&quot;origPos&quot;:null}" fill="#e0bb60" stroke="none" stroke-width="0.5"/></g><g><g data-paper-data="{&quot;origPos&quot;:null}" stroke-width="2"><path d="M162.33333,122v-47.90829h103v47.9083z" data-paper-data="{&quot;origPos&quot;:null}" fill="#c06520" stroke="#763e13"/><path d="M246.71398,101.26054l-13.53057,-10.7079l-16.93129,13.62233l-11.40888,-11.2741l-17.9835,10.47615l-10.1521,-12.51623c0,0 -9.63279,11.57127 -10.0378,11.31153c-1.21504,-0.7792 -9.16984,-8.01833 -9.16984,-8.01833c0,-9.50938 0,-15.199 0,-22.52397c0,-2.44165 1.69835,-4.44967 4.18518,-6.25644c2.09259,-1.52034 4.32122,-1.849 9.76574,-1.85306c16.33359,-0.01223 51.88732,-0.03884 85.09787,-0.06369c5.44464,-0.00407 9.06849,0.58703 10.46355,2.29284c1.55896,1.90621 3.48766,4.33292 3.48766,6.49939c0,10.8161 0,19.32892 0,30.14502l-14.19126,-10.26008z" data-paper-data="{&quot;origPos&quot;:null,&quot;origRot&quot;:0}" fill="url(#color-5)" stroke="#0f6600"/></g><path d="M193,109.00001c0,-2.76142 2.23858,-5 5,-5c2.76142,0 5,2.23858 5,5c0,2.76142 -2.23858,5 -5,5c-2.76142,0 -5,-2.23858 -5,-5z" data-paper-data="{&quot;origPos&quot;:null}" fill="#e0bb60" stroke="none" stroke-width="0.5"/><path d="M229,111.00001c0,-2.76142 2.23858,-5 5,-5c2.76142,0 5,2.23858 5,5c0,2.76142 -2.23858,5 -5,5c-2.76142,0 -5,-2.23858 -5,-5z" data-paper-data="{&quot;origPos&quot;:null}" fill="#e0bb60" stroke="none" stroke-width="0.5"/></g></g></g></svg>