<svg version="1.1" xmlns="http://www.w3.org/2000/svg" xmlns:xlink="http://www.w3.org/1999/xlink" width="120.68591" height="104.80004"><defs><linearGradient x1="230.19106" y1="203.23482" x2="230.19106" y2="223.34897" gradientUnits="userSpaceOnUse" id="color-1"><stop offset="0" stop-color="#000000"/><stop offset="1" stop-color="#3f380a"/></linearGradient><linearGradient x1="249.39709" y1="203.23482" x2="249.39709" y2="223.34897" gradientUnits="userSpaceOnUse" id="color-2"><stop offset="0" stop-color="#000000"/><stop offset="1" stop-color="#3f380a"/></linearGradient></defs><g transform="translate(-179.65704,-127.59998)"><g data-paper-data="{&quot;isPaintingLayer&quot;:true}" fill="none" fill-rule="nonzero" stroke="none" stroke-width="none" stroke-linecap="none" stroke-linejoin="miter" stroke-miterlimit="10" stroke-dasharray="" stroke-dashoffset="0" font-family="none" font-weight="none" font-size="none" text-anchor="none" style="mix-blend-mode: normal"><path d="M239.15218,127.60001c16.22562,0 31.86483,5.27412 41.57448,14.69436c12.92817,12.54378 18.7675,30.47959 19.60427,47.02228c0.37666,7.80166 -8.15791,15.82075 -16.35194,18.24796c-14.57915,4.31266 -30.60855,1.21841 -46.23649,0.88294c-14.49796,-0.3119 -30.10108,2.07984 -43.41719,-2.94333c-8.04515,-3.03526 -14.74381,-11.63524 -14.32203,-19.2288c0.85933,-15.48711 5.47846,-32.76959 17.57438,-43.98108c9.95324,-9.22403 25.34887,-14.69436 41.57448,-14.69436z" data-paper-data="{&quot;origPos&quot;:null}" id="ID0.664129285607487" fill="#ff0000" stroke-width="0.93172" stroke-linecap="round"/><path d="M239.59876,195.56377c11.4527,0 20.39978,1.09326 29.34684,5.39741c4.65278,2.23577 8.08424,7.83608 7.93259,12.92223c0.15168,5.12359 -3.21087,10.8066 -7.93259,13.1192c-8.91556,4.37111 -17.89412,5.39741 -29.34684,5.39741c-11.4527,0 -20.58494,-0.72294 -29.34685,-5.39741c-4.73945,-2.5273 -7.23331,-8.96283 -7.24314,-14.30112c0.00985,-4.59171 3.01978,-9.77046 7.24314,-11.74031c9.00026,-4.19971 17.89412,-5.39741 29.34685,-5.39741z" data-paper-data="{&quot;origPos&quot;:null}" id="ID0.7818866483867168" fill="#ffdea8" stroke-width="1" stroke-linecap="butt"/><g data-paper-data="{&quot;origPos&quot;:null}" stroke-width="2.7956"><path d="M230.05326,203.23672c1.54753,-0.04945 3.03436,0.89765 3.73919,2.32402c1.09604,2.21372 1.49255,4.6258 1.49255,7.58847c0,2.96267 -0.4572,5.49589 -1.49255,7.58847c-0.82043,1.6852 -2.21925,2.7369 -3.73919,2.5992c-1.39859,0.1377 -2.67074,-0.93609 -3.4638,-2.5992c-1.01331,-2.10359 -1.49235,-4.6258 -1.49235,-7.58847c0,-2.96267 0.36894,-5.38575 1.49235,-7.58847c0.73791,-1.45394 2.14772,-2.37347 3.4638,-2.32402z" data-paper-data="{&quot;origPos&quot;:null}" id="ID0.6670762049034238" fill="url(#color-1)" stroke-linecap="round"/><path d="M249.2593,203.23672c1.54753,-0.04945 3.03435,0.89765 3.73918,2.32402c1.09604,2.21372 1.49256,4.6258 1.49256,7.58847c0,2.96267 -0.45721,5.49589 -1.49256,7.58847c-0.82043,1.6852 -2.21925,2.7369 -3.73918,2.5992c-1.39859,0.1377 -2.67074,-0.93609 -3.4638,-2.5992c-1.01331,-2.10359 -1.49235,-4.6258 -1.49235,-7.58847c0,-2.96267 0.36894,-5.38575 1.49235,-7.58847c0.73791,-1.45394 2.14772,-2.37347 3.4638,-2.32402z" data-paper-data="{&quot;origPos&quot;:null}" id="ID0.6670762049034238" fill="url(#color-2)" stroke-linecap="round"/><path d="M249.4874,204.75236c0.79859,0 1.51993,0.32482 2.04314,0.84803c0.52318,0.52318 0.84803,1.24455 0.84803,2.04294c0,0.79859 -0.32482,1.51993 -0.84803,2.04314c-0.52318,0.52318 -1.24454,0.84803 -2.04314,0.84803c-0.79839,0 -1.51994,-0.32482 -2.04294,-0.84803c-0.52318,-0.52318 -0.84824,-1.24454 -0.84824,-2.04314c0,-0.79839 0.32503,-1.51975 0.84824,-2.04294c0.52298,-0.52318 1.24455,-0.84803 2.04294,-0.84803z" data-paper-data="{&quot;origPos&quot;:null}" id="ID0.2271407265216112" fill="#ffffff" stroke-linecap="butt"/><path d="M230.08438,205.34326c0.79859,0 1.51993,0.32482 2.04314,0.84803c0.52318,0.52318 0.84803,1.24454 0.84803,2.04293c0,0.79859 -0.32482,1.51993 -0.84803,2.04314c-0.52318,0.52318 -1.24454,0.84803 -2.04314,0.84803c-0.79839,0 -1.51993,-0.32482 -2.04293,-0.84803c-0.52318,-0.52318 -0.84824,-1.24454 -0.84824,-2.04314c0,-0.79839 0.32503,-1.51975 0.84824,-2.04293c0.52298,-0.52318 1.24454,-0.84803 2.04293,-0.84803z" data-paper-data="{&quot;origPos&quot;:null}" id="ID0.2271407265216112" fill="#ffffff" stroke-linecap="butt"/></g><path d="M225.56315,169.625l-14.20925,-14.0965l18.72014,-0.90219l9.2473,-18.26903l10.71334,19.39678l17.70519,-0.22555l-13.98371,14.0965l5.6386,19.96064l-19.17122,-14.32202l-19.84785,14.32203z" data-paper-data="{&quot;origPos&quot;:null}" id="ID0.7469178936444223" fill="#ffe428" stroke-width="1" stroke-linecap="round"/><path d="M282.8515,174.21164l-9.86122,-12.63947l12.52219,-0.20232l3.4436,-9.90927l5.08713,7.38138l3.91317,7.07824l2.26965,12.94282l-0.86091,7.07803l-6.33936,-6.67361l-13.77442,12.84179z" data-paper-data="{&quot;origPos&quot;:null}" id="ID0.7469178936444223" fill="#ffe428" stroke-width="0.80175" stroke-linecap="round"/><path d="M200.63174,189.85379l-13.77442,-12.84179l-6.33936,6.67361l-0.86091,-7.07803l2.26965,-12.94282l3.91317,-7.07824l5.08714,-7.38138l3.4436,9.90928l12.52219,0.20231l-9.86122,12.63948z" data-paper-data="{&quot;origPos&quot;:null}" id="ID0.7469178936444223" fill="#ffe428" stroke-width="0.80175" stroke-linecap="round"/></g></g></svg>