<svg version="1.1" xmlns="http://www.w3.org/2000/svg" xmlns:xlink="http://www.w3.org/1999/xlink" width="256.36559" height="56.77466"><defs><linearGradient x1="227.60284" y1="151.61268" x2="227.60284" y2="208.38733" gradientUnits="userSpaceOnUse" id="color-1"><stop offset="0" stop-color="#386fce"/><stop offset="1" stop-color="#214784"/></linearGradient></defs><g transform="translate(-111.8172,-151.61267)"><g data-paper-data="{&quot;isPaintingLayer&quot;:true}" fill="url(#color-1)" fill-rule="nonzero" stroke="none" stroke-width="0" stroke-linecap="butt" stroke-linejoin="miter" stroke-miterlimit="10" stroke-dasharray="" stroke-dashoffset="0" font-family="none" font-weight="none" font-size="none" text-anchor="none" style="mix-blend-mode: normal"><path d="M114.72327,192.82383c0,-4.3921 -2.90607,-8.07971 -2.90607,-12.82383c0,-4.74412 2.90607,-7.18564 2.90607,-11.78481c0,-6.78563 14.05055,-16.60252 20.87678,-16.60252c90.28236,0 179.45823,0 206.54295,0c9.02824,0 23.13373,10.42662 23.13373,17.60252c0,4.51519 2.90607,7.30793 2.90607,11.56962c0,4.26169 -2.90607,7.9532 -2.90607,12.03902c0,4.52185 -9.40465,15.5635 -19.8735,15.5635c-31.40652,0 -129.1909,0 -210.8889,0c-9.23722,0 -19.79106,-10.81556 -19.79106,-15.5635z" data-paper-data="{&quot;origPos&quot;:null}"/></g></g></svg>