<svg version="1.1" xmlns="http://www.w3.org/2000/svg" xmlns:xlink="http://www.w3.org/1999/xlink" width="437" height="90.79587" viewBox="0,0,437,90.79587"><defs><linearGradient x1="240" y1="135.60207" x2="240" y2="224.39795" gradientUnits="userSpaceOnUse" id="color-1"><stop offset="0" stop-color="#ffffff"/><stop offset="1" stop-color="#d8d8d8"/></linearGradient><linearGradient x1="240" y1="135.60208" x2="240" y2="224.39795" gradientUnits="userSpaceOnUse" id="color-2"><stop offset="0" stop-color="#343434"/><stop offset="1" stop-color="#090909"/></linearGradient><radialGradient cx="443.8065" cy="206.54467" r="17.9081" gradientUnits="userSpaceOnUse" id="color-3"><stop offset="0" stop-color="#ffffff"/><stop offset="1" stop-color="#e5e5e5"/></radialGradient></defs><g transform="translate(-21.5,-134.60208)"><g data-paper-data="{&quot;isPaintingLayer&quot;:true}" fill-rule="nonzero" stroke-linejoin="miter" stroke-miterlimit="10" stroke-dasharray="" stroke-dashoffset="0" style="mix-blend-mode: normal"><path d="M22.5,224.39795v-88.79587h435v88.79587z" data-paper-data="{&quot;origPos&quot;:null}" fill="url(#color-1)" stroke="url(#color-2)" stroke-width="2" stroke-linecap="butt"/><path d="M41.14351,146.18392c2.50832,1.26886 3.79801,1.9033 3.86822,1.9033c0,0.11101 -0.52352,1.11811 -1.56851,3.0214c-0.02473,0 -0.04839,0 -0.07303,0c-0.08346,0 -1.286,-0.56802 -3.60754,-1.70415l-1.18063,1.57804c2.00008,0.9625 4.42874,2.18871 7.28703,3.68047c-1.29642,2.30732 -2.21724,3.84077 -2.76062,4.60033l-5.90716,0.52254c-2.69713,-1.81886 -4.12248,-2.76063 -4.27508,-2.82315c0,-0.02376 0,-0.04839 0,-0.07303c0,-0.19535 0.54621,-1.09056 1.64056,-2.68662c0.04557,0 0.09105,0 0.13662,0c0.43149,0.25796 1.78761,1.00048 4.06639,2.2267c0.45992,-0.52254 0.91994,-1.04509 1.37987,-1.56859c-4.18879,-2.13281 -6.50936,-3.33809 -6.96266,-3.61689c0,-0.02094 0,-0.04178 0,-0.06261c1.33147,-2.59274 2.05598,-3.90717 2.17449,-3.94126c3.46429,-0.70464 5.39125,-1.05648 5.78204,-1.05648z" data-paper-data="{&quot;origPos&quot;:null}" fill="#000000" stroke="none" stroke-width="0.25766" stroke-linecap="butt"/><path d="M52.90476,149.35229c3.15696,1.62362 4.90668,2.5719 5.24809,2.84311c-0.4533,2.1186 -0.72081,3.21013 -0.80514,3.27274c-2.20206,0 -4.40507,0 -6.60713,0c0,0.03788 0,0.07684 0,0.11472l1.85022,2.2893l2.90669,-1.48417c0.28542,0.49508 0.69705,1.35894 1.23371,2.59274c-0.25124,0.08345 -2.08062,0.35184 -5.48892,0.80514c-2.82227,-1.86064 -4.24479,-2.82977 -4.26563,-2.9066c0.4533,-3.61698 0.72168,-5.4264 0.80514,-5.4264c2.94837,-1.25367 4.65632,-1.95451 5.12297,-2.10058zM52.22476,151.88153c-0.05502,0.13935 -0.42487,0.69412 -1.1076,1.66237c0,0.29312 0.41055,0.43909 1.23371,0.43909c0,0.04178 0.59558,0.14324 1.7876,0.30353c0.3272,-0.4533 0.49128,-0.71788 0.49128,-0.79471c-0.1043,-0.62022 -0.33099,-0.93037 -0.68,-0.93037z" data-paper-data="{&quot;origPos&quot;:null}" fill="#000000" stroke="none" stroke-width="0.25766" stroke-linecap="butt"/><path d="M65.03206,149.35229c3.15793,1.62362 4.90669,2.5719 5.248,2.84311c-0.45233,2.1186 -0.72071,3.21013 -0.80416,3.27274c-2.20293,0 -4.40498,0 -6.60801,0c0,0.03788 0,0.07684 0,0.11472c0.61739,0.76346 1.2338,1.52682 1.85022,2.2893l2.90669,-1.48417c0.28639,0.49508 0.69695,1.35894 1.23371,2.59274c-0.25026,0.08345 -2.08062,0.35184 -5.48891,0.80514c-2.82227,-1.86064 -4.24479,-2.82977 -4.26563,-2.9066c0.4533,-3.61698 0.72169,-5.4264 0.80514,-5.4264c2.94837,-1.25367 4.65631,-1.95451 5.12296,-2.10058zM64.35303,151.88153c-0.05599,0.13935 -0.42584,0.69412 -1.10857,1.66237c0,0.29312 0.41153,0.43909 1.23371,0.43909c0,0.04178 0.59558,0.14324 1.7876,0.30353c0.3272,-0.4533 0.49128,-0.71788 0.49128,-0.79471c-0.10429,-0.62022 -0.331,-0.93037 -0.67903,-0.93037z" data-paper-data="{&quot;origPos&quot;:null}" fill="#000000" stroke="none" stroke-width="0.25766" stroke-linecap="butt"/><path d="M79.66865,146.18392l4.60032,0.81556l-0.43908,3.49175c0.91322,-0.0483 1.58184,-0.07303 2.00768,-0.07303c0.2228,0 0.44571,0 0.66851,0l0.14607,-0.07304l0.07401,0.14607c-0.14704,2.11957 -0.27218,3.31063 -0.37657,3.57618l-0.14695,-0.08443c-0.10429,0 -1.04508,-0.0483 -2.82227,-0.14597c-0.09767,1.63773 -0.17071,3.59604 -0.21998,5.8758l-0.14606,0.07304c-2.2447,-0.14597 -3.58281,-0.27218 -4.0143,-0.37647l0.07304,-0.29301c0,-0.606 0.09767,-2.48747 0.29301,-5.64541c-1.88245,-0.1044 -2.82314,-0.22952 -2.82314,-0.37656c0.09767,-2.32719 0.2228,-3.49175 0.37647,-3.49175c0.91605,0.17451 1.83308,0.34901 2.74923,0.52254c0,-0.29964 0,-0.59937 0,-0.89901c0,-0.73113 -0.02756,-1.72118 -0.08346,-2.9692c0.0559,0 0.08346,-0.02377 0.08346,-0.07304z" data-paper-data="{&quot;origPos&quot;:null}" fill="#000000" stroke="none" stroke-width="0.25766" stroke-linecap="butt"/><path d="M92.51764,146.18392c0.04168,0.06261 0.23702,1.97253 0.58505,5.72984c2.69041,-0.82316 4.12335,-1.2338 4.29689,-1.2338l2.66675,1.81896c-0.43246,3.97251 -0.71506,6.29405 -0.84682,6.96266l-3.70141,0.12513c0,-0.04168 -0.02464,-0.06262 -0.07304,-0.06262l0.07304,-0.26078c0,-0.56519 0.08346,-2.27976 0.25134,-5.14371c-1.01752,-0.04178 -1.77436,-0.06261 -2.26934,-0.06261c-0.08628,0 -0.17354,0 -0.26079,0c0.29964,3.18452 0.44951,4.91993 0.44951,5.20632c-1.17118,0.17362 -2.34238,0.34803 -3.51269,0.52254c-0.13272,-0.44668 -0.91323,-4.61075 -2.34238,-12.49336c0,-0.2228 0.54339,-0.39731 1.63112,-0.52254c1.37325,-0.39068 2.39077,-0.58604 3.05276,-0.58604z" data-paper-data="{&quot;origPos&quot;:null}" fill="#000000" stroke="none" stroke-width="0.25766" stroke-linecap="butt"/><path d="M102.63824,149.34186c4.13953,0.57093 6.20972,0.92278 6.20972,1.0555c1.63111,1.40071 2.44667,2.14986 2.44667,2.24753c-0.66189,2.07029 -1.03846,3.32863 -1.12951,3.77444c0.66199,1.47082 1.03846,2.34901 1.12951,2.63442c0,0.08345 -1.08013,0.30723 -3.24138,0.66958c-0.02756,-0.11861 -0.2267,-0.38416 -0.59558,-0.79471c-2.98343,0.57181 -4.5899,0.85724 -4.81943,0.85724c-0.53014,-1.43197 -1.06027,-2.86492 -1.58943,-4.29689l3.50226,-1.85022c0.56422,0.09008 1.44619,0.13565 2.64484,0.13565c0,-0.15366 0.02084,-0.6174 0.06262,-1.3903c-0.20197,0 -2.00671,0.13186 -5.41501,0.39741c-0.02084,-0.04558 -0.04167,-0.09105 -0.06261,-0.13663c0.47326,-2.20195 0.75966,-3.30303 0.85733,-3.30303zM104.81273,155.48897c0,0.07683 0.2229,0.89239 0.66862,2.44667c0.02084,0 0.04167,0 0.06261,0c0.87817,-0.57181 1.31726,-0.94829 1.31726,-1.12941l0.13653,-1.1191c-0.16788,0 -0.89619,-0.06534 -2.18501,-0.19816z" data-paper-data="{&quot;origPos&quot;:null}" fill="#000000" stroke="none" stroke-width="0.25766" stroke-linecap="butt"/><path d="M115.42363,146.18392l4.60042,0.81556c-0.14607,1.16359 -0.29302,2.32816 -0.43909,3.49175c0.91322,-0.0483 1.58184,-0.07303 2.00759,-0.07303c0.2229,0 0.44581,0 0.66861,0c0.04927,-0.02464 0.09767,-0.0483 0.14704,-0.07304c0.02366,0.0484 0.04829,0.09777 0.07294,0.14607c-0.14695,2.11957 -0.27218,3.31063 -0.37647,3.57618l-0.14607,-0.08443c-0.10517,0 -1.04596,-0.0483 -2.82314,-0.14597c-0.09767,1.63773 -0.17071,3.59604 -0.21998,5.8758l-0.14607,0.07304c-2.24373,-0.14597 -3.5828,-0.27218 -4.01429,-0.37647l0.07303,-0.29301c0,-0.606 0.09768,-2.48747 0.29302,-5.64541c-1.88245,-0.1044 -2.82324,-0.22952 -2.82324,-0.37656c0.09767,-2.32719 0.2229,-3.49175 0.37656,-3.49175c0.91605,0.17451 1.83309,0.34901 2.74914,0.52254c0,-0.29964 0,-0.59937 0,-0.89901c0,-0.73113 -0.02746,-1.72118 -0.08346,-2.9692c0.05599,0 0.08346,-0.02377 0.08346,-0.07304z" data-paper-data="{&quot;origPos&quot;:null}" fill="#000000" stroke="none" stroke-width="0.25766" stroke-linecap="butt"/><path d="M133.78247,146.18392c0.02464,0.04548 0.0484,0.09105 0.07304,0.13653c0,0.39643 0.09105,1.93367 0.27218,4.60987c2.49507,-0.79471 3.89296,-1.21287 4.1926,-1.25464l3.76295,4.04653c-1.58184,3.54774 -2.44287,5.42922 -2.58232,5.6455c-0.43909,-0.04937 -2.04176,-0.11861 -4.80901,-0.20965c0,0.16409 0,0.32817 0,0.49226c0,0.09008 -0.0483,0.13555 -0.14597,0.13555c-1.34861,0 -2.69713,0 -4.04662,0c-0.14597,0 -0.42477,-2.09104 -0.83639,-6.27321c-0.09008,-0.35563 -0.34424,-2.44949 -0.76248,-6.28276c2.36993,-0.55759 3.99724,-0.90661 4.88204,-1.04596zM134.48331,153.85787c0.09008,0.86103 0.18113,1.72118 0.27121,2.58231c0.70084,0 1.40168,0 2.10155,0c-0.04275,0.16311 0.80602,-3.08966 0.76336,-2.92753c-2.09104,0.18113 -3.13612,0.29682 -3.13612,0.34521z" data-paper-data="{&quot;origPos&quot;:null}" fill="#cd8d1f" stroke="none" stroke-width="0.25766" stroke-linecap="butt"/><path d="M143.16054,146.19435c2.13281,0.04178 3.69761,0.06262 4.6943,0.06262c0.09008,0 0.36605,4.27984 0.82598,12.83856c-0.35563,0.09105 -1.59606,0.32048 -3.72225,0.69033c-0.1043,0 -0.4495,-2.62117 -1.03456,-7.86167c-0.04937,-0.12611 -0.30354,-2.03514 -0.76346,-5.72984z" data-paper-data="{&quot;origPos&quot;:null}" fill="#cd8d1f" stroke="none" stroke-width="0.25766" stroke-linecap="butt"/><path d="M154.06447,149.35229c2.64873,0.71029 4.05323,1.14276 4.21352,1.29642c1.45661,2.0626 2.27597,3.25084 2.45709,3.56479c-0.94069,2.98245 -1.48125,4.47422 -1.6207,4.47422c-3.13612,0.7321 -4.77774,1.09815 -4.92469,1.09815c-2.59274,-1.5126 -3.97261,-2.35562 -4.13952,-2.53012c-0.09096,-2.81564 -0.13556,-4.36992 -0.13556,-4.66294c-0.04265,-0.08345 -0.06358,-0.14607 -0.06358,-0.18775c2.67717,-2.03514 4.05986,-3.05276 4.15091,-3.05276zM153.86629,153.17785c-0.04168,0.2789 -0.10527,1.29359 -0.18872,3.04322c0.77767,0.17353 1.55438,0.34803 2.33196,0.52254c0.55759,-1.74301 0.83649,-2.67337 0.83649,-2.79188c-1.85402,-0.55759 -2.84788,-0.8364 -2.97973,-0.8364z" data-paper-data="{&quot;origPos&quot;:null}" fill="#cd8d1f" stroke="none" stroke-width="0.25766" stroke-linecap="butt"/><path d="M165.79446,149.35229c3.14371,0.59178 4.78904,0.93038 4.93511,1.01383c0,0.04168 0,0.08345 0,0.12513c-0.67611,1.91001 -1.01372,2.90007 -1.01372,2.96921c-0.02084,0 -0.04264,0 -0.06358,0c-0.17353,0 -1.01753,-0.2712 -2.52916,-0.81555c-0.84409,1.41493 -1.26507,2.17177 -1.26507,2.26944l2.09105,2.02754c1.61689,-1.51932 2.43907,-2.27889 2.46663,-2.27889c1.26224,1.65195 1.89287,2.57853 1.89287,2.78049c-0.69042,0.39741 -1.89288,1.17781 -3.60744,2.34238c-3.31734,-0.71788 -5.10874,-1.119 -5.37332,-1.20245l-1.64153,-5.31071c1.36936,-1.30674 2.7388,-2.61359 4.10816,-3.92042z" data-paper-data="{&quot;origPos&quot;:null}" fill="#cd8d1f" stroke="none" stroke-width="0.25766" stroke-linecap="butt"/><path d="M177.96441,146.18392c0.09767,0.2788 0.31678,2.25513 0.65819,5.928l3.13709,-3.51259c0.02366,0 0.0483,0 0.07304,0c0.48738,0.40393 1.3902,1.25747 2.70746,2.56149c0,0.02464 0,0.04829 0,0.07294l-3.00057,2.47803c2.25805,1.5126 3.45388,2.36614 3.58572,2.56149c-1.42155,1.58184 -2.27509,2.48465 -2.56148,2.70745l-3.64824,-3.36652c0.14607,1.50589 0.21998,2.6278 0.21998,3.36652c-0.17451,0.09767 -1.46801,0.36605 -3.87962,0.80514c-0.19437,-0.97584 -0.82881,-5.16844 -1.90232,-12.57681c0.44571,-0.14695 1.98295,-0.48836 4.61074,-1.02512z" data-paper-data="{&quot;origPos&quot;:null}" fill="#cd8d1f" stroke="none" stroke-width="0.25766" stroke-linecap="butt"/><path d="M187.47814,157.52792c1.89569,0.2228 2.8469,0.34804 2.85352,0.3755c-1.14937,2.70472 -1.79422,4.12628 -1.93367,4.26564c-0.94828,-0.11851 -1.42155,-0.21531 -1.42155,-0.29205c0.25036,-2.90007 0.40403,-4.34909 0.45992,-4.34909c0.01334,0 0.02756,0 0.04178,0z" data-paper-data="{&quot;origPos&quot;:null}" fill="#000000" stroke="none" stroke-width="0.25766" stroke-linecap="butt"/><path d="M200.27493,146.18392l4.59945,0.81556c-0.14607,1.16359 -0.29204,2.32816 -0.43908,3.49175c0.91323,-0.0483 1.58281,-0.07303 2.00768,-0.07303h0.66949c0.0484,-0.02464 0.0967,-0.0483 0.14607,-0.07304l0.07294,0.14607c-0.14597,2.11957 -0.27208,3.31063 -0.37647,3.57618l-0.14597,-0.08443c-0.1044,0 -1.04605,-0.0483 -2.82324,-0.14597c-0.09767,1.63773 -0.17071,3.59604 -0.21911,5.8758c-0.04927,0.02376 -0.09767,0.04839 -0.14694,0.07304c-2.24373,-0.14597 -3.58183,-0.27218 -4.0143,-0.37647l0.07304,-0.29301c0,-0.606 0.09767,-2.48747 0.29301,-5.64541c-1.88148,-0.1044 -2.82323,-0.22952 -2.82323,-0.37656c0.09767,-2.32719 0.22387,-3.49175 0.37656,-3.49175c0.91702,0.17451 1.83308,0.34901 2.7501,0.52254c0,-0.29964 0,-0.59937 0,-0.89901c0,-0.73113 -0.02844,-1.72118 -0.08433,-2.9692c0.05589,0 0.08433,-0.02377 0.08433,-0.07304z" data-paper-data="{&quot;origPos&quot;:null}" fill="#000000" stroke="none" stroke-width="0.25766" stroke-linecap="butt"/><path d="M213.12391,146.18392c0.04178,0.06261 0.23615,1.97253 0.58516,5.72984c2.69041,-0.82316 4.12238,-1.2338 4.29689,-1.2338l2.66578,1.81896c-0.43247,3.97251 -0.7141,6.29405 -0.84682,6.96266l-3.70141,0.12513c0,-0.04168 -0.02366,-0.06262 -0.07304,-0.06262l0.07304,-0.26078c0,-0.56519 0.08443,-2.27976 0.25134,-5.14371c-1.01762,-0.04178 -1.77339,-0.06261 -2.26847,-0.06261h-0.26166c0.29964,3.18452 0.44951,4.91993 0.44951,5.20632l-3.51269,0.52254c-0.13272,-0.44668 -0.91322,-4.61075 -2.3414,-12.49336c0,-0.2228 0.54338,-0.39731 1.63014,-0.52254c1.37325,-0.39068 2.39077,-0.58604 3.05363,-0.58604z" data-paper-data="{&quot;origPos&quot;:null}" fill="#000000" stroke="none" stroke-width="0.25766" stroke-linecap="butt"/><path d="M227.5822,149.35229c3.15706,1.62362 4.90668,2.5719 5.2481,2.84311c-0.45233,2.1186 -0.72071,3.21013 -0.80514,3.27274c-2.20195,0 -4.40401,0 -6.60703,0c0,0.03788 0,0.07684 0,0.11472l1.85021,2.2893l2.9067,-1.48417c0.28542,0.49508 0.69694,1.35894 1.2337,2.59274c-0.25124,0.08345 -2.08062,0.35184 -5.48891,0.80514c-2.82226,-1.86064 -4.24479,-2.82977 -4.26563,-2.9066c0.4533,-3.61698 0.72169,-5.4264 0.80514,-5.4264c2.94837,-1.25367 4.65631,-1.95451 5.12286,-2.10058zM226.90327,151.88153c-0.05599,0.13935 -0.42584,0.69412 -1.10867,1.66237c0,0.29312 0.41163,0.43909 1.23381,0.43909c0,0.04178 0.59558,0.14324 1.7876,0.30353c0.3272,-0.4533 0.49128,-0.71788 0.49128,-0.79471c-0.1043,-0.62022 -0.331,-0.93037 -0.67903,-0.93037z" data-paper-data="{&quot;origPos&quot;:null}" fill="#000000" stroke="none" stroke-width="0.25766" stroke-linecap="butt"/><path d="M241.28852,149.34186c1.37987,0.7729 2.2267,1.27548 2.54065,1.50501c-1.12951,2.349 -1.73551,3.54394 -1.81896,3.58562c-0.02464,0 -0.04927,0 -0.07401,0l-1.49449,-1.30674c-0.58895,0.71788 -1.1779,1.43577 -1.76676,2.15365c0.06632,1.30684 0.13273,2.61358 0.19817,3.92041c-0.09008,0.08443 -1.24423,0.2788 -3.4605,0.58604c-0.08345,-0.59928 -0.62683,-3.53723 -1.63013,-8.81376c0,-0.08345 1.4566,-0.29973 4.36992,-0.64777c0.0483,0.05599 0.18113,0.70746 0.39731,1.95451c1.74213,-1.95831 2.65536,-2.93697 2.73881,-2.93697z" data-paper-data="{&quot;origPos&quot;:null}" fill="#000000" stroke="none" stroke-width="0.25766" stroke-linecap="butt"/><path d="M250.58314,149.35229c3.15706,1.62362 4.90668,2.5719 5.2481,2.84311c-0.4533,2.1186 -0.72169,3.21013 -0.80514,3.27274c-2.20302,0 -4.40498,0 -6.60703,0c0,0.03788 0,0.07684 0,0.11472c0.61641,0.76346 1.23283,1.52682 1.85022,2.2893c0.96825,-0.4941 1.93738,-0.98909 2.9066,-1.48417c0.28542,0.49508 0.69705,1.35894 1.23282,2.59274c-0.25036,0.08345 -2.07964,0.35184 -5.48794,0.80514c-2.82324,-1.86064 -4.24479,-2.82977 -4.26563,-2.9066c0.4533,-3.61698 0.72071,-5.4264 0.80514,-5.4264c2.94837,-1.25367 4.65534,-1.95451 5.12286,-2.10058zM249.90323,151.88153c-0.05599,0.13935 -0.42487,0.69412 -1.10867,1.66237c0,0.29312 0.41162,0.43909 1.2338,0.43909c0,0.04178 0.59655,0.14324 1.78761,0.30353c0.32817,-0.4533 0.49216,-0.71788 0.49216,-0.79471c-0.10527,-0.62022 -0.33187,-0.93037 -0.67991,-0.93037z" data-paper-data="{&quot;origPos&quot;:null}" fill="#000000" stroke="none" stroke-width="0.25766" stroke-linecap="butt"/><path d="M273.70833,149.34186c1.70123,0.70367 3.16836,1.36566 4.40216,1.98587c-0.32155,4.14702 -0.52634,6.41549 -0.61739,6.80617c-2.04936,0.5092 -3.19591,0.76335 -3.43966,0.76335c0,-0.90661 -0.06924,-2.69421 -0.20859,-5.36378c-0.77388,0.07683 -1.16076,0.14325 -1.16076,0.19914c0,0.26458 0.04548,1.77719 0.13565,4.53683c0.04168,0 0.06252,0.02473 0.06252,0.07303c0,0.08443 -1.07634,0.31396 -3.23,0.69043c-0.09105,-0.11092 -0.36605,-1.80845 -0.82597,-5.09161c-0.87155,0.2228 -1.30684,0.3831 -1.30684,0.48077c0.02084,0.21628 0.39731,4.05032 0.41825,4.26563c-0.08346,0.09105 -1.23001,0.4571 -3.43965,1.09815c-1.28211,-4.53771 -2.08442,-7.58288 -2.40499,-9.13716c2.41921,-0.59938 3.77066,-0.89901 4.05705,-0.89901c0.32047,1.26789 0.48076,1.99999 0.48076,2.19534c0.02464,0 0.04839,0 0.07303,0c1.17781,-1.08773 1.99999,-1.81984 2.4676,-2.19533c0.02366,0 0.0483,0 0.07294,0l2.19543,1.57805c0.02464,0 0.04928,0 0.07304,0c1.37315,-1.32388 2.10526,-1.98587 2.19543,-1.98587z" data-paper-data="{&quot;origPos&quot;:null}" fill="#000000" stroke="none" stroke-width="0.25766" stroke-linecap="butt"/><path d="M280.55618,145.14927c1.36945,0.21628 2.73979,0.43149 4.10915,0.64777c-0.51592,1.97252 -0.85442,2.95878 -1.0147,2.95878c-2.16028,-0.14607 -3.24041,-0.28921 -3.24041,-0.42866c0,-1.01002 0,-2.02093 0,-3.03182c0.02084,-0.09767 0.06914,-0.14607 0.14596,-0.14607zM279.40681,150.1252c0.02084,0 0.04177,0 0.06261,0c3.17789,0.57853 4.76723,0.91703 4.76723,1.0147c-0.91323,5.17126 -1.46703,8.05333 -1.66237,8.64597c-1.10487,0 -2.20965,0 -3.31442,0c-0.09767,0 -0.14607,-0.04928 -0.14607,-0.14597c0.09767,-3.17225 0.19535,-6.34342 0.29302,-9.5147z" data-paper-data="{&quot;origPos&quot;:null}" fill="#000000" stroke="none" stroke-width="0.25766" stroke-linecap="butt"/><path d="M292.76792,149.37323c2.96161,0.07585 4.44295,0.20479 4.44295,0.38689c0.50833,7.71473 0.76337,11.82007 0.76337,12.31505c-2.2447,1.42915 -3.85118,2.3974 -4.81943,2.9067c-3.41589,-1.07351 -5.12286,-1.68711 -5.12286,-1.8398c1.10098,-1.61028 1.73833,-2.42584 1.91273,-2.44667c1.86064,0.91985 2.93133,1.37977 3.21013,1.37977c0.33099,-0.43528 0.66199,-0.87155 0.99289,-1.30684c-0.26458,-1.08014 -0.44279,-1.71837 -0.53296,-1.91274c-0.15357,0 -2.04264,0.30626 -5.66722,0.91985c-1.98577,-3.22717 -2.97866,-4.88292 -2.97866,-4.96637c1.71359,-2.73881 2.75965,-4.34529 3.13612,-4.81943c0.02464,0 0.0483,0 0.07304,0c0.20196,0 1.70794,0.33089 4.51686,0.99289c0,-0.07585 0,-0.1527 0,-0.22953c0,-0.27218 -0.02464,-0.70746 -0.07401,-1.30683c0.04937,-0.02464 0.09778,-0.04928 0.14704,-0.07294zM289.48475,153.80566c0.09767,0.21628 0.40403,1.36565 0.91995,3.45007c0.64864,-0.20956 1.64153,-0.59276 2.97963,-1.15035c-0.25796,-1.25464 -0.38689,-1.96873 -0.38689,-2.14324c-0.12523,-0.02366 -0.25036,-0.04839 -0.37657,-0.07304c-0.1526,0 -0.30626,0 -0.45992,0c-0.58506,0 -1.47745,-0.02746 -2.6762,-0.08345z" data-paper-data="{&quot;origPos&quot;:null}" fill="#000000" stroke="none" stroke-width="0.25766" stroke-linecap="butt"/><path d="M303.78665,146.18392c0.04168,0.06261 0.23702,1.97253 0.58603,5.72984c2.69041,-0.82316 4.12238,-1.2338 4.29689,-1.2338c0.8886,0.606 1.77718,1.21296 2.66577,1.81896c-0.43246,3.97251 -0.71506,6.29405 -0.84681,6.96266c-1.23381,0.04168 -2.4676,0.08345 -3.70141,0.12513c0,-0.04168 -0.02366,-0.06262 -0.07303,-0.06262c0.02474,-0.08715 0.04937,-0.17352 0.07303,-0.26078c0,-0.56519 0.08346,-2.27976 0.25134,-5.14371c-1.01752,-0.04178 -1.77436,-0.06261 -2.26846,-0.06261c-0.08715,0 -0.1744,0 -0.26166,0c0.29964,3.18452 0.4495,4.91993 0.4495,5.20632c-1.17118,0.17362 -2.3415,0.34803 -3.51269,0.52254c-0.13272,-0.44668 -0.91323,-4.61075 -2.34238,-12.49336c0,-0.2228 0.54435,-0.39731 1.63111,-0.52254c1.37325,-0.39068 2.39077,-0.58604 3.05276,-0.58604z" data-paper-data="{&quot;origPos&quot;:null}" fill="#000000" stroke="none" stroke-width="0.25766" stroke-linecap="butt"/><path d="M315.44351,146.18392c1.53344,0.27218 3.06698,0.54338 4.60042,0.81556c-0.14607,1.16359 -0.29301,2.32816 -0.43908,3.49175c0.91323,-0.0483 1.58183,-0.07303 2.00758,-0.07303c0.22291,0 0.44571,0 0.66862,0c0.04927,-0.02464 0.09767,-0.0483 0.14694,-0.07304l0.07304,0.14607c-0.14695,2.11957 -0.27218,3.31063 -0.37647,3.57618c-0.0484,-0.02844 -0.09767,-0.0559 -0.14607,-0.08443c-0.10527,0 -1.04596,-0.0483 -2.82315,-0.14597c-0.09767,1.63773 -0.1707,3.59604 -0.2191,5.8758c-0.04927,0.02376 -0.09767,0.04839 -0.14694,0.07304c-2.24383,-0.14597 -3.58193,-0.27218 -4.0143,-0.37647c0.02464,-0.09767 0.0483,-0.19535 0.07304,-0.29301c0,-0.606 0.09767,-2.48747 0.29302,-5.64541c-1.88245,-0.1044 -2.82324,-0.22952 -2.82324,-0.37656c0.09767,-2.32719 0.2229,-3.49175 0.37647,-3.49175c0.91712,0.17451 1.83318,0.34901 2.74923,0.52254c0,-0.29964 0,-0.59937 0,-0.89901c0,-0.73113 -0.02746,-1.72118 -0.08346,-2.9692c0.05599,0 0.08346,-0.02377 0.08346,-0.07304z" data-paper-data="{&quot;origPos&quot;:null}" fill="#000000" stroke="none" stroke-width="0.25766" stroke-linecap="butt"/><path d="M333.80235,146.18392c0.02464,0.04548 0.04928,0.09105 0.07304,0.13653c0,0.39643 0.09105,1.93367 0.27218,4.60987c2.49507,-0.79471 3.89286,-1.21287 4.19259,-1.25464c1.25464,1.34852 2.50832,2.69801 3.76296,4.04653c-1.58184,3.54774 -2.44287,5.42922 -2.58232,5.6455c-0.43908,-0.04937 -2.04176,-0.11861 -4.80901,-0.20965c0,0.16409 0,0.32817 0,0.49226c0,0.09008 -0.0483,0.13555 -0.14607,0.13555c-1.34852,0 -2.69703,0 -4.04652,0c-0.14598,0 -0.42487,-2.09104 -0.83542,-6.27321c-0.09105,-0.35563 -0.34521,-2.44949 -0.76346,-6.28276c2.36993,-0.55759 3.99725,-0.90661 4.88205,-1.04596zM334.50318,153.85787c0.09008,0.86103 0.18113,1.72118 0.27121,2.58231c0.70085,0 1.40159,0 2.10146,0c0.25416,-0.97584 0.50929,-1.95168 0.76345,-2.92753c-2.09103,0.18113 -3.13612,0.29682 -3.13612,0.34521z" data-paper-data="{&quot;origPos&quot;:null}" fill="#000000" stroke="none" stroke-width="0.25766" stroke-linecap="butt"/><path d="M349.10842,149.35229c3.15706,1.62362 4.90668,2.5719 5.24809,2.84311c-0.4533,2.1186 -0.72168,3.21013 -0.80514,3.27274c-2.20195,0 -4.40498,0 -6.60703,0c0,0.03788 0,0.07684 0,0.11472c0.61642,0.76346 1.23283,1.52682 1.85022,2.2893c0.96825,-0.4941 1.93747,-0.98909 2.9066,-1.48417c0.28552,0.49508 0.69704,1.35894 1.2338,2.59274c-0.25124,0.08345 -2.08062,0.35184 -5.48891,0.80514c-2.82324,-1.86064 -4.24478,-2.82977 -4.26562,-2.9066c0.4533,-3.61698 0.72168,-5.4264 0.80514,-5.4264c2.94837,-1.25367 4.65534,-1.95451 5.12286,-2.10058zM348.42852,151.88153c-0.05599,0.13935 -0.42487,0.69412 -1.10857,1.66237c0,0.29312 0.41152,0.43909 1.2337,0.43909c0,0.04178 0.59655,0.14324 1.78761,0.30353c0.32817,-0.4533 0.49226,-0.71788 0.49226,-0.79471c-0.10527,-0.62022 -0.33099,-0.93037 -0.68,-0.93037c-0.57464,-0.22661 -1.15035,-0.4533 -1.72499,-0.6799z" data-paper-data="{&quot;origPos&quot;:null}" fill="#000000" stroke="none" stroke-width="0.25766" stroke-linecap="butt"/><path d="M368.41847,149.37323c2.96161,0.07585 4.44295,0.20479 4.44295,0.38689c0.50833,7.71473 0.76336,11.82007 0.76336,12.31505c-2.2447,1.42915 -3.85118,2.3974 -4.8204,2.9067c-3.41492,-1.07351 -5.1219,-1.68711 -5.1219,-1.8398c1.10098,-1.61028 1.73823,-2.42584 1.91274,-2.44667c1.86064,0.91985 2.93036,1.37977 3.20916,1.37977c0.33197,-0.43528 0.66296,-0.87155 0.99385,-1.30684c-0.26546,-1.08014 -0.44288,-1.71837 -0.53296,-1.91274c-0.15357,0 -2.04264,0.30626 -5.66722,0.91985c-1.98577,-3.22717 -2.97963,-4.88292 -2.97963,-4.96637c1.71456,-2.73881 2.76052,-4.34529 3.13709,-4.81943c0.02366,0 0.0483,0 0.07294,0c0.20207,0 1.70805,0.33089 4.516,0.99289c0,-0.07585 0,-0.1527 0,-0.22953c0,-0.27218 -0.02366,-0.70746 -0.07304,-1.30683c0.04937,-0.02464 0.09767,-0.04928 0.14704,-0.07294zM365.1353,153.80566c0.09767,0.21628 0.40403,1.36565 0.91985,3.45007c0.64875,-0.20956 1.64163,-0.59276 2.97973,-1.15035c-0.25796,-1.25464 -0.38689,-1.96873 -0.38689,-2.14324c-0.12523,-0.02366 -0.25133,-0.04839 -0.37656,-0.07304c-0.15269,0 -0.30627,0 -0.45993,0c-0.58506,0 -1.47745,-0.02746 -2.6762,-0.08345z" data-paper-data="{&quot;origPos&quot;:null}" fill="#2b70c2" stroke="none" stroke-width="0.25766" stroke-linecap="butt"/><path d="M378.96676,149.35229c2.64873,0.71029 4.05325,1.14276 4.21344,1.29642c1.4567,2.0626 2.27508,3.25084 2.45719,3.56479c-0.94176,2.98245 -1.48134,4.47422 -1.62069,4.47422c-3.13709,0.7321 -4.77775,1.09815 -4.9247,1.09815c-2.59274,-1.5126 -3.97261,-2.35562 -4.13952,-2.53012c-0.09105,-2.81564 -0.13653,-4.36992 -0.13653,-4.66294c-0.04177,-0.08345 -0.06262,-0.14607 -0.06262,-0.18775c2.67717,-2.03514 4.05987,-3.05276 4.15082,-3.05276c0.02094,0 0.04177,0 0.06261,0zM378.76859,153.17785c-0.04266,0.2789 -0.10526,1.29359 -0.18872,3.04322c0.77758,0.17353 1.55428,0.34803 2.33195,0.52254c0.55759,-1.74301 0.83543,-2.67337 0.83543,-2.79188c-1.85304,-0.55759 -2.84681,-0.8364 -2.97866,-0.8364c0,0.02084 0,0.04168 0,0.06252z" data-paper-data="{&quot;origPos&quot;:null}" fill="#2b70c2" stroke="none" stroke-width="0.25766" stroke-linecap="butt"/><path d="M390.80202,149.35229c2.64776,0.71029 4.05217,1.14276 4.21246,1.29642c1.45661,2.0626 2.27606,3.25084 2.45719,3.56479c-0.94079,2.98245 -1.48134,4.47422 -1.62069,4.47422c-3.13622,0.7321 -4.77775,1.09815 -4.92382,1.09815c-2.59274,-1.5126 -3.97252,-2.35562 -4.1404,-2.53012c-0.09008,-2.81564 -0.13565,-4.36992 -0.13565,-4.66294c-0.04168,-0.08345 -0.06251,-0.14607 -0.06251,-0.18775c2.6762,-2.03514 4.05976,-3.05276 4.14984,-3.05276c0.02084,0 0.04265,0 0.06359,0zM390.60288,153.17785c-0.04177,0.2789 -0.10439,1.29359 -0.18785,3.04322c0.7767,0.17353 1.55438,0.34803 2.33108,0.52254c0.55759,-1.74301 0.8364,-2.67337 0.8364,-2.79188c-1.85402,-0.55759 -2.84691,-0.8364 -2.97963,-0.8364c0,0.02084 0,0.04168 0,0.06252z" data-paper-data="{&quot;origPos&quot;:null}" fill="#2b70c2" stroke="none" stroke-width="0.25766" stroke-linecap="butt"/><path d="M404.74819,146.17351c0.02084,0 0.04177,0 0.06261,0c3.15033,0.26458 4.72556,0.47035 4.72556,0.61739c0.46373,4.10154 0.92744,8.20309 1.39019,12.30463c0,0.09105 -1.39019,0.32048 -4.17068,0.69033c-0.02094,-0.04548 -0.04177,-0.09105 -0.06261,-0.13555c0,-0.37365 0,-0.74643 0,-1.1191c-2.39837,0.64777 -4.04273,1.06593 -4.93512,1.25465c-2.1186,-2.99667 -3.23009,-4.59273 -3.33536,-4.78807c1.56197,-2.83746 2.39457,-4.27323 2.49886,-4.30741c1.46051,0.06924 2.92092,0.13944 4.38035,0.20869c-0.09008,-0.53676 -0.275,-2.11197 -0.5538,-4.72555zM402.80312,153.67011c0.70464,2.15365 1.14373,3.33429 1.31824,3.54385c0.69324,-0.60307 1.3865,-1.20625 2.07974,-1.80845c-0.21531,-1.24802 -0.37657,-1.87203 -0.48086,-1.87203c-0.92647,0 -1.85402,0 -2.78049,0c-0.09105,0.01422 -0.13662,0.0598 -0.13662,0.13663z" data-paper-data="{&quot;origPos&quot;:null}" fill="#2b70c2" stroke="none" stroke-width="0.25766" stroke-linecap="butt"/><path d="M413.45677,145.14927c1.36936,0.21628 2.73969,0.43149 4.10914,0.64777c-0.51592,1.97252 -0.8545,2.95878 -1.01469,2.95878c-2.16037,-0.14607 -3.24051,-0.28921 -3.24051,-0.42866c0,-1.01002 0,-2.02093 0,-3.03182c0.02084,-0.09767 0.06924,-0.14607 0.14607,-0.14607zM412.3074,150.1252c0.02084,0 0.04167,0 0.06252,0c3.17789,0.57853 4.76733,0.91703 4.76733,1.0147c-0.91323,5.17126 -1.46713,8.05333 -1.66247,8.64597c-1.10478,0 -2.20955,0 -3.31442,0c-0.09767,0 -0.14598,-0.04928 -0.14598,-0.14597c0.09767,-3.17225 0.19535,-6.34342 0.29302,-9.5147z" data-paper-data="{&quot;origPos&quot;:null}" fill="#2b70c2" stroke="none" stroke-width="0.25766" stroke-linecap="butt"/><path d="M423.79647,149.35229c3.15794,1.62362 4.90668,2.5719 5.24809,2.84311c-0.45243,2.1186 -0.7208,3.21013 -0.80426,3.27274c-2.20293,0 -4.40498,0 -6.608,0c0,0.03788 0,0.07684 0,0.11472c0.61739,0.76346 1.2338,1.52682 1.85119,2.2893c0.96825,-0.4941 1.93747,-0.98909 2.90572,-1.48417c0.28639,0.49508 0.69705,1.35894 1.23381,2.59274c-0.25036,0.08345 -2.08072,0.35184 -5.48901,0.80514c-2.82227,-1.86064 -4.24381,-2.82977 -4.26563,-2.9066c0.4533,-3.61698 0.72168,-5.4264 0.80513,-5.4264c2.94837,-1.25367 4.65632,-1.95451 5.12297,-2.10058zM423.11744,151.88153c-0.05599,0.13935 -0.42584,0.69412 -1.10857,1.66237c0,0.29312 0.41152,0.43909 1.2337,0.43909c0,0.04178 0.59558,0.14324 1.78771,0.30353c0.32808,-0.4533 0.49118,-0.71788 0.49118,-0.79471c-0.10429,-0.62022 -0.331,-0.93037 -0.67903,-0.93037c-0.57561,-0.22661 -1.15035,-0.4533 -1.72499,-0.6799z" data-paper-data="{&quot;origPos&quot;:null}" fill="#2b70c2" stroke="none" stroke-width="0.25766" stroke-linecap="butt"/><path d="M438.43306,149.34186c2.00758,1.2822 3.11615,2.02093 3.32484,2.21627c-0.72451,1.6093 -1.13993,2.41443 -1.24423,2.41443c-1.26789,-0.73493 -2.53674,-1.46985 -3.8057,-2.20585c-0.04548,0 -0.09007,0 -0.13555,0c0,0.07021 -0.16409,0.46003 -0.49129,1.17129c3.50606,1.88907 5.25852,2.85732 5.25852,2.90659c-0.98246,2.27226 -1.53724,3.47091 -1.66237,3.59605c-1.98304,0.11481 -3.96599,0.2305 -5.94894,0.34521c-2.31394,-1.53344 -3.55815,-2.34238 -3.73169,-2.42583c0,-0.02084 0,-0.04167 0,-0.06261c0,-0.17441 0.34424,-0.95774 1.03466,-2.35183c1.54766,0.80417 3.09434,1.6093 4.6421,2.41444c0.11471,-0.45992 0.22942,-0.91986 0.34521,-1.37978c-2.87164,-1.28979 -4.57958,-2.09493 -5.12296,-2.4154c0,-0.0484 0,-0.09768 0,-0.14607c0,-0.26458 0.5538,-1.43957 1.66247,-3.52311c1.95831,-0.18492 3.91662,-0.36984 5.87493,-0.5538z" data-paper-data="{&quot;origPos&quot;:null}" fill="#2b70c2" stroke="none" stroke-width="0.25766" stroke-linecap="butt"/><path d="M34.36859,171.03138c1.36936,0.21628 2.7388,0.43149 4.10816,0.64777c-0.51494,1.97252 -0.85353,2.95879 -1.01372,2.95879c-2.16038,-0.14607 -3.24051,-0.28922 -3.24051,-0.42867c0,-1.00993 0,-2.02093 0,-3.03182c0.02084,-0.09767 0.06924,-0.14606 0.14607,-0.14606zM33.21825,176.00729c0.02084,0 0.04177,0 0.06261,0c3.17878,0.57853 4.76723,0.91703 4.76723,1.0147c-0.91226,5.17126 -1.46703,8.05332 -1.6615,8.64597c-1.10478,0 -2.20955,0 -3.31442,0c-0.09767,0 -0.14597,-0.04927 -0.14597,-0.14597c0.03983,-1.29826 0.25221,-8.2174 0.29205,-9.5147z" data-paper-data="{&quot;origPos&quot;:null}" fill="#000000" stroke="none" stroke-width="0.25766" stroke-linecap="butt"/><path d="M48.06439,175.22397c1.15989,0.79754 2.32056,1.59606 3.48133,2.3936c-0.24365,3.97261 -0.41435,6.29415 -0.51202,6.96266c-0.405,0.04937 -1.63501,0.12241 -3.69099,0.22008c-0.02464,-0.04937 -0.0483,-0.09768 -0.07303,-0.14705c-0.12231,-1.86064 -0.24364,-3.72127 -0.36605,-5.58191l-0.14597,-0.07391c-1.33147,0.28639 -2.24851,0.50257 -2.75021,0.64864c0.13945,2.37655 0.20957,4.09492 0.20957,5.15422c-2.07682,0.57844 -3.21296,0.86765 -3.4083,0.86765c-1.35231,-5.95264 -2.02852,-9.09547 -2.02852,-9.43017c2.94175,-0.38319 4.5378,-0.57474 4.78817,-0.57474c0,0.02376 0,0.0484 0,0.07304c0.04927,0.03505 0.12232,0.75966 0.21999,2.17449c2.69713,-1.7914 4.12248,-2.68662 4.27605,-2.68662z" data-paper-data="{&quot;origPos&quot;:null}" fill="#000000" stroke="none" stroke-width="0.25766" stroke-linecap="butt"/><path d="M59.37614,171.03138l4.10914,0.64777c-0.51592,1.97252 -0.8544,2.95879 -1.0147,2.95879c-2.16027,-0.14607 -3.24052,-0.28922 -3.24052,-0.42867c0,-1.00993 0,-2.02093 0,-3.03182c0.02094,-0.09767 0.06924,-0.14606 0.14607,-0.14606zM58.22579,176.00729c0.02094,0 0.04178,0 0.06359,0c3.17789,0.57853 4.76723,0.91703 4.76723,1.0147c-0.91322,5.17126 -1.46702,8.05332 -1.66237,8.64597c-1.10487,0 -2.20965,0 -3.31442,0c-0.09767,0 -0.14607,-0.04927 -0.14607,-0.14597c0.17548,-5.70899 0.11666,-3.8057 0.29204,-9.5147z" data-paper-data="{&quot;origPos&quot;:null}" fill="#000000" stroke="none" stroke-width="0.25766" stroke-linecap="butt"/><path d="M66.91451,172.06604l4.59935,0.81555l-0.43908,3.49175c0.91333,-0.0483 1.58281,-0.07303 2.00768,-0.07303c0.2228,0 0.44571,0 0.66851,0l0.14705,-0.07294c0.02464,0.0483 0.04839,0.09767 0.07304,0.14597c-0.14607,2.11957 -0.27218,3.31063 -0.37647,3.57618l-0.14607,-0.08443c-0.10429,0 -1.04605,-0.0483 -2.82324,-0.14597c-0.09767,1.63773 -0.1707,3.59604 -0.219,5.8758l-0.14705,0.07304c-2.24373,-0.14597 -3.58183,-0.27217 -4.01429,-0.37647l0.07304,-0.29301c0,-0.606 0.09767,-2.48747 0.29301,-5.64541c-1.88245,-0.1044 -2.82314,-0.22952 -2.82314,-0.37656c0.09767,-2.32719 0.2228,-3.49175 0.37647,-3.49175c0.91702,0.17451 1.83308,0.349 2.7502,0.52254c0,-0.29964 0,-0.59937 0,-0.89901c0,-0.73113 -0.02853,-1.72119 -0.08443,-2.96921c0.0559,0 0.08443,-0.02376 0.08443,-0.07304z" data-paper-data="{&quot;origPos&quot;:null}" fill="#000000" stroke="none" stroke-width="0.25766" stroke-linecap="butt"/><path d="M79.67907,172.45294l0.04168,0.08346c-0.69705,6.15471 -1.08676,9.38849 -1.17021,9.70244c-1.47755,-0.13945 -2.41161,-0.23712 -2.8023,-0.29301c0,-0.01422 0,-0.02756 0,-0.04178l-0.66861,-8.73985c0.16691,-0.05589 1.70034,-0.29302 4.59945,-0.71126zM75.53955,182.44742c0.0484,0.02853 1.13613,0.11198 3.26135,0.25133c0.01421,0.02756 0.02844,0.056 0.04168,0.08346c-0.3271,1.92413 -0.53676,2.88575 -0.62684,2.88575c-0.80894,0 -1.61689,0 -2.42583,0c-0.08346,0 -0.19535,-0.96162 -0.33479,-2.88575c-0.02746,0 -0.04168,-0.08346 -0.04168,-0.25037c0.08442,-0.02844 0.12611,-0.05589 0.12611,-0.08442z" data-paper-data="{&quot;origPos&quot;:null}" fill="#000000" stroke="none" stroke-width="0.25766" stroke-linecap="butt"/><path d="M94.11749,172.06604c2.49506,1.81224 3.94788,2.93133 4.3594,3.3562c-0.80134,2.36983 -1.20244,3.59323 -1.20244,3.67006c0.19535,0.19437 0.72168,0.86765 1.57901,2.01703c0,0.04178 0,0.08345 0,0.1262c-1.29642,2.28541 -2.05316,3.55057 -2.26847,3.79421c-2.88956,0.21336 -5.77823,0.42584 -8.66778,0.63823c-0.13175,-0.51582 -0.78712,-4.52349 -1.96493,-12.02291zM90.69868,175.29701c0.12523,1.24423 0.25036,2.48844 0.37647,3.73169c1.8398,-0.44571 2.76725,-0.69987 2.78059,-0.76248c0.08346,-0.20956 0.27598,-0.88567 0.57561,-2.02842c-1.24423,-0.31395 -2.48844,-0.62781 -3.73267,-0.94078zM92.21411,180.35736c-0.22943,0 -0.45993,0 -0.68945,0c-0.09095,0.01325 -0.13653,0.05502 -0.13653,0.12513c-0.04168,0.90563 -0.06261,1.57804 -0.06261,2.01713c-0.04168,0.22378 -0.06252,0.3528 -0.06252,0.38689c1.09816,-0.1707 2.19533,-0.34141 3.29348,-0.51202l-0.06251,-0.31395c0,-0.12514 0,-0.25036 0,-0.37549c0,-0.29973 -0.02094,-0.76346 -0.06262,-1.39127c-0.99668,0.04178 -1.73638,0.06359 -2.21724,0.06359z" data-paper-data="{&quot;origPos&quot;:null}" fill="#000000" stroke="none" stroke-width="0.25766" stroke-linecap="butt"/><path d="M107.42641,175.22397c1.37977,0.7729 2.22669,1.27549 2.54054,1.50501c-1.12941,2.349 -1.73542,3.54395 -1.81984,3.58563c-0.02376,0 -0.04839,0 -0.07304,0l-1.49459,-1.30674c-0.58886,0.71788 -1.17781,1.43577 -1.76676,2.15365c-0.01986,-0.39166 0.21813,4.31306 0.19827,3.92042c-0.09008,0.08443 -1.24423,0.2788 -3.4605,0.58603c-0.08346,-0.59928 -0.62683,-3.53722 -1.63111,-8.81375c0,-0.08345 1.4566,-0.29974 4.36992,-0.64777c0.04927,0.05599 0.18201,0.70746 0.39731,1.95451c1.743,-1.95831 2.65633,-2.93698 2.73979,-2.93698z" data-paper-data="{&quot;origPos&quot;:null}" fill="#000000" stroke="none" stroke-width="0.25766" stroke-linecap="butt"/><path d="M116.72005,175.2344c3.15793,1.62362 4.90668,2.5719 5.24907,2.8431c-0.4533,2.1186 -0.72169,3.21013 -0.80514,3.27275c-2.20302,0 -4.40507,0 -6.608,0c0,0.03788 0,0.07683 0,0.11471c0.61729,0.76346 1.23381,1.52681 1.8511,2.2893c0.96825,-0.4941 1.93747,-0.98908 2.90572,-1.48416c0.28639,0.49508 0.69704,1.35904 1.2338,2.59274c-0.25037,0.08345 -2.08061,0.35183 -5.48803,0.80514c-2.82314,-1.86064 -4.2447,-2.82977 -4.26564,-2.9066c0.45243,-3.61698 0.7208,-5.42639 0.80426,-5.42639c2.94837,-1.25367 4.65632,-1.95451 5.12287,-2.10058zM116.04102,177.76365c-0.0559,0.13935 -0.42575,0.69422 -1.10858,1.66247c0,0.29301 0.41152,0.43899 1.2338,0.43899c0,0.04178 0.59548,0.14324 1.7876,0.30353c0.32807,-0.4533 0.49119,-0.71788 0.49119,-0.79471c-0.10429,-0.62022 -0.3309,-0.93037 -0.67894,-0.93037z" data-paper-data="{&quot;origPos&quot;:null}" fill="#000000" stroke="none" stroke-width="0.25766" stroke-linecap="butt"/><path d="M124.50869,175.22397c4.14049,0.57093 6.21069,0.92278 6.21069,1.05551c1.63111,1.40071 2.44667,2.14986 2.44667,2.24752c-0.66287,2.07029 -1.03846,3.32874 -1.12941,3.77445c0.66189,1.47082 1.03836,2.349 1.12941,2.63442c0,0.08345 -1.08111,0.30723 -3.24139,0.66958c-0.02756,-0.11861 -0.2267,-0.38406 -0.59557,-0.79471c-2.98343,0.57181 -4.58991,0.85724 -4.8204,0.85724c-0.52917,-1.43197 -1.0593,-2.86491 -1.58846,-4.29689c1.16739,-0.61739 2.33488,-1.2338 3.50227,-1.85022c0.56422,0.09017 1.44618,0.13565 2.64484,0.13565c0,-0.15366 0.02093,-0.6174 0.06261,-1.3903c-0.20197,0 -2.0067,0.13186 -5.415,0.39741c-0.02084,-0.04558 -0.04167,-0.09105 -0.06349,-0.13663c0.47414,-2.20195 0.76054,-3.30303 0.85724,-3.30303zM126.68416,181.37108c0,0.07683 0.2229,0.89238 0.66861,2.44676c0.02084,0 0.04177,0 0.06261,0c0.87817,-0.57191 1.31726,-0.94838 1.31726,-1.1295c0.04548,-0.37267 0.09095,-0.74535 0.13653,-1.11899c-0.16788,0 -0.89619,-0.06544 -2.18501,-0.19827z" data-paper-data="{&quot;origPos&quot;:null}" fill="#000000" stroke="none" stroke-width="0.25766" stroke-linecap="butt"/><path d="M138.7802,172.06604c0.09767,0.2788 0.31677,2.25512 0.65819,5.928l3.13612,-3.51259c0.02464,0 0.04927,0 0.07391,0c0.48748,0.40403 1.39029,1.25747 2.70755,2.56148c0,0.02464 0,0.0483 0,0.07304l-3.00057,2.47792c2.25805,1.5126 3.45387,2.36614 3.58563,2.56148c-1.42155,1.58184 -2.27499,2.48465 -2.56139,2.70745l-3.64824,-3.36652c0.14597,1.50589 0.21901,2.62779 0.21901,3.36652c-0.17353,0.09767 -1.46703,0.36605 -3.87864,0.80514c-0.19447,-0.97584 -0.8289,-5.16834 -1.90241,-12.57681c0.44581,-0.14695 1.98305,-0.48836 4.61084,-1.02511z" data-paper-data="{&quot;origPos&quot;:null}" fill="#000000" stroke="none" stroke-width="0.25766" stroke-linecap="butt"/><path d="M157.03377,172.06604c0.02464,0.04548 0.04927,0.09105 0.07304,0.13653c0,0.39643 0.09105,1.93367 0.27218,4.60987c2.49507,-0.79471 3.89285,-1.21287 4.19249,-1.25465l3.76306,4.04653c-1.58184,3.54774 -2.44297,5.42922 -2.58232,5.6455c-0.43909,-0.04937 -2.04176,-0.11861 -4.80901,-0.20965c0,0.16409 0,0.32817 0,0.49226c0,0.09008 -0.0484,0.13555 -0.14607,0.13555c-1.34852,0 -2.69703,0 -4.04653,0c-0.14607,0 -0.42487,-2.09104 -0.83552,-6.27321c-0.09096,-0.35563 -0.34511,-2.44949 -0.76336,-6.28266c2.36983,-0.55769 3.99725,-0.9066 4.88205,-1.04605zM157.73461,179.73996c0.09008,0.86113 0.18113,1.72119 0.27121,2.58232c0.70075,0 1.40159,0 2.10146,0l0.76346,-2.92753c-2.09114,0.18113 -3.13612,0.29681 -3.13612,0.34521z" data-paper-data="{&quot;origPos&quot;:null}" fill="#000000" stroke="none" stroke-width="0.25766" stroke-linecap="butt"/><path d="M171.22085,175.24481c0.09767,0.01334 0.14597,0.06261 0.14597,0.14607c-0.7245,4.01429 -0.36226,2.00768 -1.08676,6.02197c2.07682,-0.24374 3.11528,-0.43908 3.11528,-0.58515c0.39068,-2.41161 0.65907,-3.76393 0.80514,-4.05695c2.5719,0.53014 3.99725,0.84302 4.27605,0.94069c-1.49839,5.1514 -2.32057,7.83421 -2.46761,8.05039c-2.6202,1.8398 -4.09482,2.85742 -4.42202,3.05277c-0.09767,0 -1.76676,-0.41065 -5.00815,-1.23381c0,-0.02376 0,-0.04839 0,-0.07304c0.85724,-1.88907 1.39117,-2.83268 1.59985,-2.83268l3.18822,1.59888c0.5093,-0.87058 1.01762,-1.74202 1.52682,-2.61357c-1.37315,0.34142 -2.17069,0.51211 -2.39447,0.51211c-1.35523,-0.70367 -2.71135,-1.40733 -4.06648,-2.11198c0.49508,-4.54345 0.80796,-6.81571 0.94079,-6.81571c0.02649,0 3.82177,0 3.84738,0z" data-paper-data="{&quot;origPos&quot;:null}" fill="#000000" stroke="none" stroke-width="0.25766" stroke-linecap="butt"/><path d="M189.49614,172.06604c0.04178,0.06261 0.23615,1.97253 0.58516,5.72984c2.69041,-0.82316 4.12238,-1.23381 4.29688,-1.23381l2.66578,1.81896c-0.43247,3.97251 -0.7141,6.29406 -0.84682,6.96267l-3.70043,0.12513c0,-0.04168 -0.02464,-0.06251 -0.07401,-0.06251l0.07401,-0.26088c0,-0.56519 0.08346,-2.27976 0.25037,-5.14371c-1.01752,-0.04178 -1.77339,-0.06261 -2.26837,-0.06261h-0.26175c0.29964,3.18452 0.4495,4.91993 0.4495,5.20632l-3.51269,0.52254c-0.13272,-0.44571 -0.91322,-4.61074 -2.3414,-12.49335c0,-0.2228 0.54338,-0.39731 1.63014,-0.52254c1.37325,-0.39068 2.39077,-0.58603 3.05364,-0.58603z" data-paper-data="{&quot;origPos&quot;:null}" fill="#2b70c2" stroke="none" stroke-width="0.25766" stroke-linecap="butt"/><path d="M199.46979,171.03138c1.36945,0.21628 2.73881,0.43149 4.10817,0.64777c-0.51582,1.97252 -0.85343,2.95879 -1.01372,2.95879c-2.16028,-0.14607 -3.24139,-0.28922 -3.24139,-0.42867c0,-1.00993 0,-2.02093 0,-3.03182c0.02182,-0.09767 0.07011,-0.14606 0.14694,-0.14606zM198.31944,176.00729c0.02094,0 0.04178,0 0.06262,0c3.17887,0.57853 4.76733,0.91703 4.76733,1.0147c-0.91323,5.17126 -1.46712,8.05332 -1.66247,8.64597h-3.31345c-0.09767,0 -0.14704,-0.04927 -0.14704,-0.14597z" data-paper-data="{&quot;origPos&quot;:null}" fill="#2b70c2" stroke="none" stroke-width="0.25766" stroke-linecap="butt"/><path d="M207.00719,172.06604c1.53344,0.27218 3.06688,0.54338 4.60032,0.81555l-0.43909,3.49175c0.91332,-0.0483 1.58184,-0.07303 2.00768,-0.07303h0.66861c0.04927,-0.02464 0.09768,-0.0483 0.14695,-0.07294c0.02366,0.0483 0.04839,0.09767 0.07303,0.14597c-0.14704,2.11957 -0.27217,3.31063 -0.37647,3.57618l-0.14704,-0.08443c-0.1043,0 -1.04508,-0.0483 -2.82227,-0.14597c-0.09767,1.63773 -0.17071,3.59604 -0.21998,5.8758l-0.14607,0.07304c-2.24373,-0.14597 -3.5828,-0.27217 -4.01429,-0.37647c0.02376,-0.09767 0.0484,-0.19535 0.07304,-0.29301c0,-0.606 0.09767,-2.48747 0.29301,-5.64541c-1.88245,-0.1044 -2.82315,-0.22952 -2.82315,-0.37656c0.09767,-2.32719 0.22281,-3.49175 0.37647,-3.49175c0.91605,0.17451 1.83318,0.349 2.74923,0.52254c0,-0.29964 0,-0.59937 0,-0.89901c0,-0.73113 -0.02756,-1.72119 -0.08346,-2.96921c0.05589,0 0.08346,-0.02376 0.08346,-0.07304z" data-paper-data="{&quot;origPos&quot;:null}" fill="#2b70c2" stroke="none" stroke-width="0.25766" stroke-linecap="butt"/><path d="M218.29897,172.06604c1.53257,0.27218 3.06601,0.54338 4.59945,0.81555c-0.04362,0.34901 -0.39546,3.14284 -0.43908,3.49175c0.91323,-0.0483 1.58281,-0.07303 2.00758,-0.07303h0.66861l0.14704,-0.07294l0.07294,0.14597c-0.14597,2.11957 -0.27208,3.31063 -0.37647,3.57618c-0.0483,-0.02844 -0.09767,-0.0559 -0.14597,-0.08443c-0.10527,0 -1.04605,-0.0483 -2.82324,-0.14597c-0.09767,1.63773 -0.17071,3.59604 -0.21911,5.8758l-0.14694,0.07304c-2.24373,-0.14597 -3.58183,-0.27217 -4.01429,-0.37647c0.02464,-0.09767 0.04839,-0.19535 0.07304,-0.29301c0,-0.606 0.09767,-2.48747 0.29301,-5.64541c-1.88245,-0.1044 -2.82323,-0.22952 -2.82323,-0.37656c0.09767,-2.32719 0.2229,-3.49175 0.37656,-3.49175l2.7501,0.52254c0,-0.29964 0,-0.59937 0,-0.89901c0,-0.73113 -0.02843,-1.72119 -0.08433,-2.96921c0.05589,0 0.08433,-0.02376 0.08433,-0.07304z" data-paper-data="{&quot;origPos&quot;:null}" fill="#2b70c2" stroke="none" stroke-width="0.25766" stroke-linecap="butt"/><path d="M227.90657,171.03138l4.10817,0.64777c-0.51495,1.97252 -0.85344,2.95879 -1.01373,2.95879c-2.16037,-0.14607 -3.24051,-0.28922 -3.24051,-0.42867c0,-1.00993 0,-2.02093 0,-3.03182c0.02094,-0.09767 0.06924,-0.14606 0.14607,-0.14606zM226.75622,176.00729c0.02084,0 0.04178,0 0.06262,0c3.17878,0.57853 4.76723,0.91703 4.76723,1.0147c-0.91225,5.17126 -1.46703,8.05332 -1.66237,8.64597h-3.31345c-0.09777,0 -0.14704,-0.04927 -0.14704,-0.14597c0.0598,-1.93085 0.23419,-7.58385 0.29301,-9.5147z" data-paper-data="{&quot;origPos&quot;:null}" fill="#2b70c2" stroke="none" stroke-width="0.25766" stroke-linecap="butt"/><path d="M241.60247,175.22397c1.1598,0.79754 2.32056,1.59606 3.48133,2.3936c-0.24374,3.97261 -0.41542,6.29415 -0.51212,6.96266c-0.405,0.04937 -1.63491,0.12241 -3.69089,0.22008c-0.02473,-0.04937 -0.04839,-0.09768 -0.07304,-0.14705c-0.12241,-1.86064 -0.24374,-3.72127 -0.36605,-5.58191c-0.04937,-0.02464 -0.09767,-0.04927 -0.14606,-0.07391c-1.33148,0.28639 -2.2485,0.50257 -2.7502,0.64864c0.13945,2.37655 0.20956,4.09492 0.20956,5.15422c-2.07682,0.57844 -3.21295,0.86765 -3.40829,0.86765c-1.35232,-5.95264 -2.02842,-9.09547 -2.02842,-9.43017c2.94165,-0.38319 4.53771,-0.57474 4.78807,-0.57474c0,0.02376 0,0.0484 0,0.07304c0.04937,0.03505 0.12241,0.75966 0.22008,2.17449c2.69703,-1.7914 4.12239,-2.68662 4.27605,-2.68662z" data-paper-data="{&quot;origPos&quot;:null}" fill="#2b70c2" stroke="none" stroke-width="0.25766" stroke-linecap="butt"/><path d="M253.9592,175.25533c2.96259,0.07585 4.44394,0.20478 4.44394,0.38689c0.50833,7.71473 0.76336,11.82008 0.76336,12.31506c-2.2447,1.42915 -3.85118,2.3974 -4.8203,2.90669c-3.41502,-1.07351 -5.12296,-1.68711 -5.12296,-1.8398c1.10196,-1.61028 1.7393,-2.42583 1.91371,-2.44667c1.86064,0.91985 2.93036,1.37977 3.20926,1.37977c0.3309,-0.43528 0.66286,-0.87156 0.99376,-1.30684c-0.26546,-1.08014 -0.44278,-1.71837 -0.53383,-1.91274c-0.15269,0 -2.04177,0.30626 -5.66635,0.91985c-1.98577,-3.22717 -2.97963,-4.88292 -2.97963,-4.96637c1.71456,-2.73881 2.76062,-4.34529 3.13709,-4.81943c0.02366,0 0.0483,0 0.07304,0c0.20197,0 1.70698,0.33089 4.5159,0.99288c0,-0.07585 0,-0.15269 0,-0.22952c0,-0.27218 -0.02366,-0.70746 -0.07304,-1.30684zM250.67701,179.68777c0.09767,0.21628 0.40403,1.36565 0.91995,3.45007c0.64767,-0.20956 1.64153,-0.59275 2.97962,-1.15034c-0.25796,-1.25464 -0.38689,-1.96873 -0.38689,-2.14324c-0.12523,-0.02366 -0.25134,-0.0483 -0.37657,-0.07304c-0.15356,0 -0.30626,0 -0.45992,0c-0.58506,0 -1.47745,-0.02746 -2.6762,-0.08345z" data-paper-data="{&quot;origPos&quot;:null}" fill="#2b70c2" stroke="none" stroke-width="0.25766" stroke-linecap="butt"/><path d="M267.04911,171.03138c1.36936,0.21628 2.73881,0.43149 4.10816,0.64777c-0.51495,1.97252 -0.85353,2.95879 -1.01382,2.95879c-2.16028,-0.14607 -3.24041,-0.28922 -3.24041,-0.42867c0,-1.00993 0,-2.02093 0,-3.03182c0.02084,-0.09767 0.06924,-0.14606 0.14607,-0.14606zM265.89876,176.00729c0.02084,0 0.04167,0 0.06261,0c3.17877,0.57853 4.76724,0.91703 4.76724,1.0147c-0.91226,5.17126 -1.46703,8.05332 -1.6615,8.64597h-3.31443c-0.09767,0 -0.14694,-0.04927 -0.14694,-0.14597c0.09767,-3.17225 0.19534,-6.34342 0.29301,-9.5147z" data-paper-data="{&quot;origPos&quot;:null}" fill="#000000" stroke="none" stroke-width="0.25766" stroke-linecap="butt"/><path d="M274.58641,172.06604c1.53354,0.27218 3.06698,0.54338 4.60041,0.81555c-0.06739,0.53773 -0.3718,2.95499 -0.43908,3.49175c0.91323,-0.0483 1.58184,-0.07303 2.00759,-0.07303c0.22291,0 0.4457,0 0.66861,0c0.04927,-0.02464 0.09768,-0.0483 0.14695,-0.07294c0.02376,0.0483 0.04839,0.09767 0.07303,0.14597c-0.14695,2.11957 -0.27218,3.31063 -0.37647,3.57618c-0.04927,-0.02844 -0.09767,-0.0559 -0.14607,-0.08443c-0.10527,0 -1.04596,-0.0483 -2.82314,-0.14597c-0.09767,1.63773 -0.1707,3.59604 -0.2191,5.8758l-0.14695,0.07304c-2.24373,-0.14597 -3.58193,-0.27217 -4.01429,-0.37647c0.02464,-0.09767 0.04829,-0.19535 0.07303,-0.29301c0,-0.606 0.09767,-2.48747 0.29301,-5.64541c-1.88245,-0.1044 -2.82323,-0.22952 -2.82323,-0.37656c0.09767,-2.32719 0.2229,-3.49175 0.37647,-3.49175c0.91712,0.17451 1.83319,0.349 2.74923,0.52254c0,-0.29964 0,-0.59937 0,-0.89901c0,-0.73113 -0.02746,-1.72119 -0.08346,-2.96921c0.05599,0 0.08346,-0.02376 0.08346,-0.07304z" data-paper-data="{&quot;origPos&quot;:null}" fill="#000000" stroke="none" stroke-width="0.25766" stroke-linecap="butt"/><path d="M292.65223,175.22397c0.09105,0.11861 0.5614,2.13944 1.41201,6.06366c0.02376,0 0.0484,0 0.07304,0c0,-0.09105 0.51592,-0.88859 1.54679,-2.39457c0.43246,0.29312 1.25464,0.92754 2.46751,1.90339c0.04937,0 0.09778,0 0.14705,0c0,-0.02473 0,-0.04937 0,-0.07401c0.18775,-2.71797 0.32719,-4.22298 0.41727,-4.51599c2.87153,0.14607 4.30828,0.26458 4.30828,0.35563c-1.31824,5.29649 -2.02189,8.04952 -2.11197,8.25908c-0.43908,0.0484 -1.35991,0.18776 -2.76063,0.41825c-1.15025,-1.80571 -1.80844,-2.76725 -1.97535,-2.88585c-0.75294,2.00768 -1.22338,3.11245 -1.41201,3.31442c-0.94079,0 -1.88157,0 -2.82227,0c-0.17451,-0.05589 -0.99668,-1.86823 -2.4676,-5.43671c-0.94069,-1.99346 -1.41114,-3.0736 -1.41114,-3.24051c0,-0.15366 1.52964,-0.74252 4.58903,-1.76677z" data-paper-data="{&quot;origPos&quot;:null}" fill="#000000" stroke="none" stroke-width="0.25766" stroke-linecap="butt"/><path d="M305.60649,171.03138c1.36936,0.21628 2.7388,0.43149 4.10816,0.64777c-0.51592,1.97252 -0.85353,2.95879 -1.01372,2.95879c-2.16125,-0.14607 -3.24149,-0.28922 -3.24149,-0.42867c0,-1.00993 0,-2.02093 0,-3.03182c0.02094,-0.09767 0.07022,-0.14606 0.14705,-0.14606zM304.45613,176.00729c0.02084,0 0.04178,0 0.06262,0c3.1778,0.57853 4.76724,0.91703 4.76724,1.0147c-0.91323,5.17126 -1.46703,8.05332 -1.66237,8.64597c-1.10487,0 -2.20964,0 -3.31442,0c-0.09679,0 -0.14607,-0.04927 -0.14607,-0.14597c0.09767,-3.17225 0.19534,-6.34342 0.29301,-9.5147z" data-paper-data="{&quot;origPos&quot;:null}" fill="#000000" stroke="none" stroke-width="0.25766" stroke-linecap="butt"/><path d="M313.14378,172.06604c1.53354,0.27218 3.06699,0.54338 4.60043,0.81555c-0.14704,1.16359 -0.29302,2.32816 -0.43909,3.49175c0.91226,-0.0483 1.58184,-0.07303 2.00671,-0.07303c0.22378,0 0.44658,0 0.66949,0c0.0484,-0.02464 0.09767,-0.0483 0.14607,-0.07294c0.02464,0.0483 0.04928,0.09767 0.07304,0.14597c-0.14607,2.11957 -0.2713,3.31063 -0.3756,3.57618c-0.04927,-0.02844 -0.09768,-0.0559 -0.14695,-0.08443c-0.1044,0 -1.04508,-0.0483 -2.82226,-0.14597c-0.09767,1.63773 -0.17071,3.59604 -0.21998,5.8758c-0.0484,0.02376 -0.09766,0.04839 -0.14606,0.07304c-2.2447,-0.14597 -3.58281,-0.27217 -4.0143,-0.37647c0.02366,-0.09767 0.0483,-0.19535 0.07304,-0.29301c0,-0.606 0.09767,-2.48747 0.29204,-5.64541c-1.88148,-0.1044 -2.82227,-0.22952 -2.82227,-0.37656c0.09767,-2.32719 0.22291,-3.49175 0.37657,-3.49175l2.74912,0.52254c0,-0.29964 0,-0.59937 0,-0.89901c0,-0.73113 -0.02745,-1.72119 -0.08345,-2.96921c0.05599,0 0.08345,-0.02376 0.08345,-0.07304z" data-paper-data="{&quot;origPos&quot;:null}" fill="#000000" stroke="none" stroke-width="0.25766" stroke-linecap="butt"/><path d="M325.99277,172.06604c0.04177,0.06261 0.23712,1.97253 0.58515,5.72984c2.69041,-0.82316 4.12335,-1.23381 4.29689,-1.23381c0.8886,0.606 1.77718,1.21296 2.66578,1.81896c-0.43149,3.97251 -0.7141,6.29406 -0.84682,6.96267c-1.23283,0.04168 -2.46663,0.08345 -3.70043,0.12513c0,-0.04168 -0.02463,-0.06251 -0.07304,-0.06251c0.02376,-0.08725 0.0484,-0.17363 0.07304,-0.26088c0,-0.56519 0.08346,-2.27976 0.25036,-5.14371c-1.01752,-0.04178 -1.77339,-0.06261 -2.26837,-0.06261c-0.08726,0 -0.17451,0 -0.26088,0c0.29973,3.18452 0.4495,4.91993 0.4495,5.20632c-1.17118,0.17362 -2.34238,0.34803 -3.51356,0.52254c-0.13175,-0.44571 -0.91226,-4.61074 -2.3414,-12.49335c0,-0.2228 0.54339,-0.39731 1.63112,-0.52254c1.37325,-0.39068 2.39077,-0.58603 3.05266,-0.58603z" data-paper-data="{&quot;origPos&quot;:null}" fill="#000000" stroke="none" stroke-width="0.25766" stroke-linecap="butt"/><path d="M344.64375,175.24481c0.09767,0.01334 0.14694,0.06261 0.14694,0.14607c-0.36323,2.00768 -0.72547,4.01429 -1.08773,6.02197c2.07682,-0.24374 3.11528,-0.43908 3.11528,-0.58515c0.39069,-2.41161 0.65907,-3.76393 0.80514,-4.05695c2.5719,0.53014 3.99725,0.84302 4.27605,0.94069c-1.49838,5.1514 -2.32056,7.83421 -2.4676,8.05039c-2.6202,1.8398 -4.09395,2.85742 -4.42203,3.05277c-0.09767,0 -1.76676,-0.41065 -5.00815,-1.23381c0,-0.02376 0,-0.04839 0,-0.07304c0.85724,-1.88907 1.39117,-2.83268 1.59976,-2.83268c1.0631,0.53296 2.12618,1.06592 3.18928,1.59888c0.50833,-0.87058 1.01752,-1.74202 1.52585,-2.61357c-1.37315,0.34142 -2.17069,0.51211 -2.3936,0.51211c-1.35611,-0.70367 -2.71125,-1.40733 -4.06736,-2.11198c0.49498,-4.54345 0.80894,-6.81571 0.9407,-6.81571c1.28317,0 2.56528,0 3.84748,0z" data-paper-data="{&quot;origPos&quot;:null}" fill="#000000" stroke="none" stroke-width="0.25766" stroke-linecap="butt"/><path d="M357.1371,175.2344c2.64864,0.71029 4.05315,1.14275 4.21344,1.29642c1.45661,2.0626 2.27596,3.25083 2.45709,3.56479c-0.94069,2.98245 -1.48124,4.47422 -1.62069,4.47422c-3.13612,0.7321 -4.77765,1.09815 -4.92372,1.09815c-2.59274,-1.5126 -3.97359,-2.35562 -4.1404,-2.53012c-0.09105,-2.81564 -0.13565,-4.36992 -0.13565,-4.66294c-0.04177,-0.08345 -0.06261,-0.14607 -0.06261,-0.18775c2.6762,-2.03514 4.05986,-3.05276 4.14994,-3.05276c0.02084,0 0.04167,0 0.06261,0zM356.93884,179.05996c-0.04168,0.2789 -0.10429,1.29359 -0.18872,3.04322c0.77767,0.17353 1.55438,0.34804 2.33196,0.52254c0.5577,-1.74301 0.83649,-2.67337 0.83649,-2.79188c-1.85402,-0.55759 -2.84788,-0.83639 -2.97973,-0.83639c0,0.02084 0,0.04168 0,0.06252z" data-paper-data="{&quot;origPos&quot;:null}" fill="#000000" stroke="none" stroke-width="0.25766" stroke-linecap="butt"/><path d="M370.40424,175.22397c0.02464,0.0446 0.04936,0.09008 0.07303,0.13566c-0.47035,2.49507 -0.94069,4.99013 -1.41113,7.4852c0.02464,0 0.04937,0 0.07304,0c1.19874,-0.35183 2.39837,-0.70367 3.59702,-1.0555c0,-1.41113 0,-2.82324 0,-4.23437c0.01334,-0.09767 0.05882,-0.14597 0.13565,-0.14597c2.70463,0.18775 4.20963,0.28162 4.51599,0.28162c0,0.04927 0.02464,0.07304 0.07391,0.07304c0,1.19203 -0.37647,3.66344 -1.12941,7.41315c0,0.21618 -1.08024,0.37929 -3.24149,0.49118c-0.11091,-0.13272 -0.20479,-0.41435 -0.28162,-0.84681c-2.76725,0.56422 -4.34616,0.84681 -4.73597,0.84681c-2.20965,-1.64533 -3.31443,-2.49214 -3.31443,-2.54054c0.37647,-4.94174 0.6136,-7.50701 0.71127,-7.69476c0.02084,0 0.04167,0 0.06261,0c1.76287,-0.0484 3.38736,-0.11861 4.87153,-0.20869z" data-paper-data="{&quot;origPos&quot;:null}" fill="#000000" stroke="none" stroke-width="0.25766" stroke-linecap="butt"/><path d="M386.0233,175.22397c1.38085,0.7729 2.22767,1.27549 2.54064,1.50501c-1.12854,2.349 -1.7355,3.54395 -1.81896,3.58563c-0.02464,0 -0.0483,0 -0.07294,0c-0.49888,-0.43519 -0.99678,-0.87048 -1.49556,-1.30674c-0.58895,0.71788 -1.17781,1.43577 -1.76676,2.15365c0.06642,1.30684 0.13273,2.61359 0.19914,3.92042c-0.09105,0.08443 -1.24422,0.2788 -3.46049,0.58603c-0.08346,-0.59928 -0.62781,-3.53722 -1.63112,-8.81375c0,-0.08345 1.45661,-0.29974 4.36992,-0.64777c0.04937,0.05599 0.18113,0.70746 0.3974,1.95451c1.74203,-1.95831 2.65526,-2.93698 2.73872,-2.93698z" data-paper-data="{&quot;origPos&quot;:null}" fill="#000000" stroke="none" stroke-width="0.25766" stroke-linecap="butt"/><path d="M37.60901,197.94815c0.04275,0.06261 0.23712,1.97253 0.58613,5.72984c2.69041,-0.82316 4.12238,-1.2338 4.29688,-1.2338l2.66578,1.81896c-0.43247,3.97251 -0.71409,6.29405 -0.84692,6.96266l-3.70131,0.12514c0,-0.04168 -0.02377,-0.06252 -0.07304,-0.06252l0.07304,-0.26088c0,-0.56519 0.08442,-2.27975 0.25133,-5.1437c-1.01762,-0.04178 -1.77339,-0.06262 -2.26847,-0.06262c-0.08725,0 -0.1745,0 -0.26175,0c0.29973,3.18452 0.4495,4.91993 0.4495,5.20632c-1.17119,0.17362 -2.3414,0.34814 -3.51258,0.52254c-0.13273,-0.44658 -0.91323,-4.61075 -2.34141,-12.49336c0,-0.2228 0.54338,-0.39731 1.63014,-0.52254c1.37315,-0.39068 2.39078,-0.58604 3.05267,-0.58604z" data-paper-data="{&quot;origPos&quot;:null}" fill="#2b70c2" stroke="none" stroke-width="0.25766" stroke-linecap="butt"/><path d="M52.06827,201.1165c3.15706,1.62362 4.90668,2.5719 5.2481,2.84311c-0.45233,2.1186 -0.72071,3.21013 -0.80514,3.27274c-2.20206,0 -4.40498,0 -6.60703,0c0,0.03798 0,0.07684 0,0.11472c0.61642,0.76346 1.2338,1.52681 1.85022,2.2893c0.96922,-0.4941 1.93747,-0.98909 2.9066,-1.48417c0.28552,0.49508 0.69704,1.35904 1.2338,2.59274c-0.25133,0.08345 -2.08062,0.35184 -5.48891,0.80514c-2.82227,-1.86064 -4.2448,-2.82977 -4.26564,-2.9066c0.4533,-3.61698 0.72169,-5.4264 0.80514,-5.4264c2.94837,-1.25367 4.65631,-1.95451 5.12286,-2.10058zM51.38836,203.64576c-0.05502,0.13945 -0.42487,0.69422 -1.1077,1.66247c0,0.29301 0.41163,0.43909 1.23381,0.43909c0,0.04168 0.59558,0.14315 1.7876,0.30344c0.3272,-0.4533 0.49128,-0.71789 0.49128,-0.79472c-0.10439,-0.62022 -0.33099,-0.93036 -0.68,-0.93036z" data-paper-data="{&quot;origPos&quot;:null}" fill="#2b70c2" stroke="none" stroke-width="0.25766" stroke-linecap="butt"/><path d="M59.857,201.10609c4.1404,0.57093 6.2106,0.92278 6.2106,1.0555c1.63023,1.40071 2.4458,2.14986 2.4458,2.24753c-0.66199,2.07029 -1.03846,3.32873 -1.12854,3.77444c0.66189,1.47082 1.03837,2.34901 1.12854,2.63442c0,0.08345 -1.08014,0.30732 -3.24052,0.66958c-0.02844,-0.11861 -0.22661,-0.38406 -0.59645,-0.79471c-2.98255,0.57181 -4.58903,0.85724 -4.81943,0.85724l-1.58944,-4.29689c1.16837,-0.61739 2.33576,-1.2338 3.50315,-1.85021c0.56422,0.09017 1.44619,0.13565 2.64493,0.13565c0,-0.15366 0.02084,-0.61739 0.06252,-1.39029c-0.20197,0 -2.00758,0.13185 -5.41588,0.3974l-0.06262,-0.13662c0.47414,-2.20195 0.75966,-3.30303 0.85733,-3.30303zM62.0315,207.25319c0,0.07683 0.2229,0.89238 0.66949,2.44676c0.02094,0 0.04178,0 0.06262,0c0.87817,-0.57191 1.31726,-0.94838 1.31726,-1.1295l0.13555,-1.11899c-0.16681,0 -0.89521,-0.06544 -2.18491,-0.19827z" data-paper-data="{&quot;origPos&quot;:null}" fill="#2b70c2" stroke="none" stroke-width="0.25766" stroke-linecap="butt"/><path d="M75.84211,197.93773c0.02084,0 0.04167,0 0.06261,0c3.15033,0.26458 4.72555,0.47035 4.72555,0.61739l1.39117,12.30463c0,0.09105 -1.39117,0.32048 -4.17176,0.69033c-0.02084,-0.04548 -0.04167,-0.09095 -0.06261,-0.13555c0,-0.37365 0,-0.74632 0,-1.11909c-2.39729,0.64777 -4.04273,1.06592 -4.93512,1.25464c-2.1186,-2.99667 -3.23,-4.59273 -3.33429,-4.78807c1.5609,-2.83746 2.3936,-4.27323 2.49789,-4.30741l4.38132,0.20869c-0.09105,-0.53676 -0.27597,-2.11197 -0.55477,-4.72555zM73.89802,205.43432c0.70367,2.15365 1.14275,3.33429 1.31726,3.54395c0.69325,-0.60317 1.3864,-1.20635 2.08062,-1.80855c-0.21618,-1.24802 -0.37647,-1.87203 -0.48076,-1.87203c-0.92754,0 -1.85402,0 -2.78156,0c-0.09008,0.01432 -0.13555,0.0598 -0.13555,0.13663z" data-paper-data="{&quot;origPos&quot;:null}" fill="#2b70c2" stroke="none" stroke-width="0.25766" stroke-linecap="butt"/><path d="M83.23431,208.32953c0.0484,0.02853 1.13516,0.11199 3.26135,0.25134l0.04178,0.08345c-0.3272,1.92423 -0.53676,2.88576 -0.62693,2.88576c-0.80884,0 -1.6169,0 -2.42584,0c-0.08346,0 -0.19535,-0.96153 -0.33469,-2.88576c-0.02756,0 -0.04178,-0.08345 -0.04178,-0.25036c0.08346,-0.02844 0.12611,-0.0559 0.12611,-0.08443z" data-paper-data="{&quot;origPos&quot;:null}" fill="#000000" stroke="none" stroke-width="0.25766" stroke-linecap="butt"/><path d="M87.66686,208.32953c0.0484,0.02853 1.13613,0.11199 3.26135,0.25134l0.04265,0.08345c-0.32807,1.92423 -0.53676,2.88576 -0.62781,2.88576c-0.80894,0 -1.61689,0 -2.42583,0c-0.08346,0 -0.19437,-0.96153 -0.33382,-2.88576c-0.02844,0 -0.04168,-0.08345 -0.04168,-0.25036c0.08346,-0.02844 0.12514,-0.0559 0.12514,-0.08443z" data-paper-data="{&quot;origPos&quot;:null}" fill="#000000" stroke="none" stroke-width="0.25766" stroke-linecap="butt"/><path d="M92.09939,208.32953c0.04927,0.02853 1.13613,0.11199 3.26223,0.25134l0.04178,0.08345c-0.32817,1.92423 -0.53675,2.88576 -0.6278,2.88576c-0.80796,0 -1.6169,0 -2.42486,0c-0.08346,0 -0.19535,-0.96153 -0.33479,-2.88576c-0.02746,0 -0.04178,-0.08345 -0.04178,-0.25036c0.08346,-0.02844 0.12523,-0.0559 0.12523,-0.08443z" data-paper-data="{&quot;origPos&quot;:null}" fill="#000000" stroke="none" stroke-width="0.25766" stroke-linecap="butt"/><path d="M105.93084,201.1165c2.64873,0.71039 4.05314,1.14275 4.21343,1.29642c1.4567,2.0626 2.27607,3.25093 2.45719,3.56479c-0.94079,2.98255 -1.48135,4.47422 -1.62069,4.47422c-3.13622,0.7321 -4.77775,1.09815 -4.92382,1.09815c-2.59274,-1.5126 -3.97349,-2.35562 -4.1404,-2.53012c-0.09105,-2.81564 -0.13565,-4.36993 -0.13565,-4.66294c-0.04168,-0.08345 -0.06349,-0.14607 -0.06349,-0.18775c2.67717,-2.03514 4.06073,-3.05276 4.15081,-3.05276c0.02094,0 0.04178,0 0.06262,0zM105.73268,204.94217c-0.04178,0.2788 -0.1044,1.29349 -0.18873,3.04312l2.33196,0.52255c0.5576,-1.74301 0.8364,-2.67338 0.8364,-2.79189c-1.85402,-0.55759 -2.84788,-0.83639 -2.97963,-0.83639c0,0.02084 0,0.04167 0,0.06261z" data-paper-data="{&quot;origPos&quot;:null}" fill="#000000" stroke="none" stroke-width="0.25766" stroke-linecap="butt"/><path d="M121.05871,201.10609c1.38075,0.7729 2.22757,1.27558 2.54054,1.50501c-1.12854,2.3491 -1.7354,3.54394 -1.81886,3.58572c-0.02474,0 -0.04839,0 -0.07304,0c-0.49888,-0.43528 -0.99668,-0.87057 -1.49556,-1.30683l-1.76676,2.15365c-0.04927,-0.97965 0.24851,4.90103 0.19914,3.92041c-0.09095,0.08443 -1.24423,0.2788 -3.4604,0.58604c-0.08346,-0.59928 -0.6278,-3.53723 -1.63121,-8.81376c0,-0.08345 1.45671,-0.29973 4.36992,-0.64777c0.04937,0.05599 0.18113,0.70747 0.39741,1.95452c1.74203,-1.95831 2.65536,-2.93698 2.73881,-2.93698z" data-paper-data="{&quot;origPos&quot;:null}" fill="#000000" stroke="none" stroke-width="0.25766" stroke-linecap="butt"/><path d="M134.08591,197.94815c0.36897,0.04178 1.71467,0.35184 4.03523,0.93037c0.02084,0.04168 0.04167,0.08433 0.06261,0.1261c-0.34142,1.90231 -0.54727,2.85352 -0.61651,2.85352c-0.02084,0 -0.04168,0 -0.06252,0l-1.68331,-0.86775c0,0.19535 -0.06261,1.06689 -0.18872,2.61357l2.30069,-0.56422c0.06914,0.20956 0.13176,1.13993 0.18775,2.79188c-0.2229,0.08345 -0.99006,0.20869 -2.29973,0.3756c0.29205,1.25464 0.60317,2.78808 0.93027,4.60032c-1.07351,0.24374 -2.35562,0.49129 -3.84738,0.74253l-0.06252,-0.12514c-0.19544,-3.22717 -0.35943,-4.84124 -0.49128,-4.84124c-1.35232,0.32808 -2.07682,0.513 -2.17449,0.55477c-0.08443,-0.40491 -0.2305,-1.50218 -0.43909,-3.29358l0.12513,-0.06262c0.74544,0 1.49177,0 2.23711,0c-0.12514,-1.03174 -0.31386,-2.37645 -0.56422,-4.0361z" data-paper-data="{&quot;origPos&quot;:null}" fill="#2b70c2" stroke="none" stroke-width="0.25766" stroke-linecap="butt"/><path d="M140.58864,196.91349l4.10826,0.64777c-0.51495,1.97252 -0.85353,2.95879 -1.01382,2.95879c-2.16028,-0.14607 -3.24041,-0.28921 -3.24041,-0.42866c0,-1.00993 0,-2.02093 0,-3.03182c0.02084,-0.09767 0.06924,-0.14607 0.14597,-0.14607zM139.43839,201.8894c0.02084,0 0.04168,0 0.06252,0c3.17887,0.57853 4.76733,0.91703 4.76733,1.0147c-0.91235,5.17136 -1.46713,8.05332 -1.6615,8.64597c-1.10477,0 -2.20965,0 -3.31442,0c-0.09767,0 -0.14607,-0.04928 -0.14607,-0.14597c0.05307,-1.73074 0.23897,-7.78494 0.29214,-9.5147z" data-paper-data="{&quot;origPos&quot;:null}" fill="#2b70c2" stroke="none" stroke-width="0.25766" stroke-linecap="butt"/><path d="M153.43763,201.10609c2.00671,1.2822 3.11527,2.02092 3.32396,2.21627c-0.7245,1.6093 -1.13896,2.41444 -1.24325,2.41444l-3.8057,-2.20575c-0.04548,0 -0.09105,0 -0.13653,0c0,0.07011 -0.16311,0.45993 -0.49128,1.17119c3.50597,1.88907 5.25851,2.85732 5.25851,2.90659c-0.98246,2.27226 -1.53627,3.47091 -1.6615,3.59614l-5.94884,0.34512c-2.31394,-1.53344 -3.55817,-2.34238 -3.73267,-2.42583c0,-0.02084 0,-0.04168 0,-0.06252c0,-0.17451 0.34521,-0.95783 1.03554,-2.35192l4.64122,2.41444l0.34511,-1.37978c-2.87153,-1.28979 -4.57948,-2.09395 -5.12286,-2.4154c0,-0.0484 0,-0.0968 0,-0.14607c0,-0.26458 0.5538,-1.43957 1.66247,-3.52302z" data-paper-data="{&quot;origPos&quot;:null}" fill="#2b70c2" stroke="none" stroke-width="0.25766" stroke-linecap="butt"/><path d="M160.92283,197.94815c1.53354,0.27218 3.06698,0.54338 4.60042,0.81555c0.01422,-0.11374 -0.4533,3.6056 -0.43908,3.49176c0.91323,-0.0483 1.58184,-0.07304 2.00671,-0.07304c0.22378,0 0.44658,0 0.66948,0l0.14607,-0.07294c0.02464,0.0483 0.04927,0.09767 0.07391,0.14597c-0.14695,2.1186 -0.27218,3.31063 -0.37647,3.57521l-0.14694,-0.08336c-0.1044,0 -1.04508,-0.0484 -2.82227,-0.14607c-0.09767,1.63773 -0.17071,3.59605 -0.21998,5.8759l-0.14607,0.07294c-2.2447,-0.14695 -3.58281,-0.27218 -4.0143,-0.37647l0.07304,-0.29301c0,-0.606 0.09767,-2.48845 0.29204,-5.64541c-1.88148,-0.1044 -2.82226,-0.22952 -2.82226,-0.37647c0.09767,-2.32728 0.22291,-3.49184 0.37647,-3.49184l2.74922,0.52254c0,-0.29964 0,-0.59928 0,-0.89901c0,-0.73113 -0.02746,-1.72119 -0.08346,-2.96921c0.05599,0 0.08346,-0.02377 0.08346,-0.07304z" data-paper-data="{&quot;origPos&quot;:null}" fill="#2b70c2" stroke="none" stroke-width="0.25766" stroke-linecap="butt"/><path d="M169.21317,208.32953c0.04937,0.02853 1.13613,0.11199 3.26233,0.25134c0.01422,0.02756 0.02747,0.05599 0.04168,0.08345c-0.3271,1.92423 -0.53675,2.88576 -0.62683,2.88576c-0.80893,0 -1.6169,0 -2.42583,0c-0.08345,0 -0.19534,-0.96153 -0.33479,-2.88576c-0.02746,0 -0.04167,-0.08345 -0.04167,-0.25036c0.08345,-0.02844 0.12513,-0.0559 0.12513,-0.08443z" data-paper-data="{&quot;origPos&quot;:null}" fill="#000000" stroke="none" stroke-width="0.25766" stroke-linecap="butt"/><path d="M173.64669,208.32953c0.0484,0.02853 1.13613,0.11199 3.26135,0.25134l0.04167,0.08345c-0.3272,1.92423 -0.53675,2.88576 -0.62683,2.88576c-0.80893,0 -1.6169,0 -2.42584,0c-0.08345,0 -0.19446,-0.96153 -0.33381,-2.88576c-0.02844,0 -0.04265,-0.08345 -0.04265,-0.25036c0.08433,-0.02844 0.12611,-0.0559 0.12611,-0.08443z" data-paper-data="{&quot;origPos&quot;:null}" fill="#000000" stroke="none" stroke-width="0.25766" stroke-linecap="butt"/><path d="M178.07923,208.32953c0.04927,0.02853 1.13603,0.11199 3.26223,0.25134l0.04178,0.08345c-0.32817,1.92423 -0.53676,2.88576 -0.62781,2.88576c-0.80805,0 -1.61691,0 -2.42496,0c-0.08433,0 -0.19534,-0.96153 -0.33469,-2.88576c-0.02853,0 -0.04178,-0.08345 -0.04178,-0.25036c0.08345,-0.02844 0.12524,-0.0559 0.12524,-0.08443z" data-paper-data="{&quot;origPos&quot;:null}" fill="#000000" stroke="none" stroke-width="0.25766" stroke-linecap="butt"/><path d="M188.15717,198.62816c1.95168,0.08345 2.92744,0.16691 2.92744,0.25037c0,0.01422 0,0.02843 0,0.04168c0,0.39068 0.18113,4.58611 0.54435,12.5882l-0.08433,0.04168l-3.8057,-0.25124c-0.02746,-0.05599 -0.04168,-0.09767 -0.04168,-0.12523c0.01607,-0.55945 0.31951,-11.60953 0.3347,-12.16898c0.02084,-0.25134 0.06261,-0.37647 0.12523,-0.37647z" data-paper-data="{&quot;origPos&quot;:null}" fill="#000000" stroke="none" stroke-width="0.25766" stroke-linecap="butt"/><path d="M201.96866,201.1165c3.14284,0.59178 4.78817,0.93037 4.93424,1.01383c0,0.04168 0,0.08345 0,0.12514c-0.67621,1.91001 -1.01382,2.90006 -1.01382,2.9693c-0.02084,0 -0.04168,0 -0.06262,0c-0.17441,0 -1.01752,-0.2713 -2.53012,-0.81565c-0.844,1.41493 -1.26506,2.17177 -1.26506,2.26944c0.69705,0.67523 1.39409,1.35134 2.09104,2.02754c1.617,-1.51923 2.43918,-2.27888 2.46663,-2.27888c1.26224,1.65195 1.89287,2.57852 1.89287,2.78048c-0.69033,0.39741 -1.89287,1.17791 -3.60744,2.34238c-3.31725,-0.71788 -5.10865,-1.119 -5.37323,-1.20245c-0.10244,-0.33187 -1.53919,-4.97874 -1.64163,-5.31071z" data-paper-data="{&quot;origPos&quot;:null}" fill="#000000" stroke="none" stroke-width="0.25766" stroke-linecap="butt"/><path d="M211.11633,201.10609c4.13942,0.57093 6.20972,0.92278 6.20972,1.0555c1.63111,1.40071 2.44666,2.14986 2.44666,2.24753c-0.66199,2.07029 -1.03845,3.32873 -1.1295,3.77444c0.66296,1.47082 1.03845,2.34901 1.1295,2.63442c0,0.08345 -1.08014,0.30732 -3.24139,0.66958c-0.02756,-0.11861 -0.22573,-0.38406 -0.59557,-0.79471c-2.98343,0.57181 -4.5899,0.85724 -4.81943,0.85724c-0.53014,-1.43197 -1.0593,-2.86492 -1.58944,-4.29689l3.50216,-1.85021c0.56529,0.09017 1.44629,0.13565 2.64494,0.13565c0,-0.15366 0.02083,-0.61739 0.06358,-1.39029c-0.20294,0 -2.00768,0.13185 -5.41598,0.3974l-0.06261,-0.13662c0.47414,-2.20195 0.75967,-3.30303 0.85734,-3.30303zM213.29082,207.25319c0,0.07683 0.22291,0.89238 0.66862,2.44676c0.02084,0 0.04264,0 0.06348,0c0.87817,-0.57191 1.31726,-0.94838 1.31726,-1.1295l0.13565,-1.11899c-0.16691,0 -0.89619,-0.06544 -2.18501,-0.19827z" data-paper-data="{&quot;origPos&quot;:null}" fill="#000000" stroke="none" stroke-width="0.25766" stroke-linecap="butt"/><path d="M230.06023,201.10609c1.16077,0.79754 2.32056,1.59606 3.48133,2.3936c-0.24374,3.97261 -0.41435,6.29415 -0.51212,6.96267c-0.40491,0.04937 -1.63491,0.12241 -3.69089,0.22008c-0.02464,-0.04937 -0.04831,-0.09767 -0.07304,-0.14704c-0.12231,-1.86064 -0.24363,-3.72128 -0.36604,-5.58192c-0.0483,-0.02464 -0.09767,-0.04927 -0.14597,-0.07391c-1.33148,0.28639 -2.24763,0.5016 -2.75021,0.64864c0.13935,2.37655 0.20956,4.09492 0.20956,5.15422c-2.07682,0.57844 -3.21295,0.86766 -3.4083,0.86766c-1.35232,-5.95264 -2.02853,-9.09548 -2.02853,-9.43018c2.94175,-0.38319 4.53781,-0.57473 4.78818,-0.57473c0,0.02376 0,0.04839 0,0.07303c0.04927,0.03418 0.12231,0.75966 0.21998,2.17449c2.69713,-1.7914 4.12249,-2.68661 4.27605,-2.68661z" data-paper-data="{&quot;origPos&quot;:null}" fill="#000000" stroke="none" stroke-width="0.25766" stroke-linecap="butt"/><path d="M237.63931,196.06097c0.01422,0.02853 0.02843,0.056 0.04274,0.08346c0.01801,-0.24744 -0.31201,4.09589 -0.29312,3.84748h-0.04167c-1.36653,-0.06261 -2.04936,-0.14607 -2.04936,-0.25037l-0.58515,-3.38745c0,-0.05599 0.97584,-0.15366 2.92656,-0.29312z" data-paper-data="{&quot;origPos&quot;:null}" fill="#000000" stroke="none" stroke-width="0.25766" stroke-linecap="butt"/><path d="M241.80064,197.94815l4.60032,0.81555l-0.43909,3.49176c0.91332,-0.0483 1.58184,-0.07304 2.00671,-0.07304c0.22378,0 0.44668,0 0.66949,0c0.0484,-0.02464 0.09777,-0.04829 0.14607,-0.07294c0.02464,0.0483 0.04937,0.09767 0.07401,0.14597c-0.14704,2.1186 -0.27217,3.31063 -0.37647,3.57521c-0.04937,-0.02746 -0.09768,-0.05492 -0.14705,-0.08336c-0.1043,0 -1.04508,-0.0484 -2.82226,-0.14607c-0.09767,1.63773 -0.17071,3.59605 -0.21998,5.8759c-0.0484,0.02366 -0.09767,0.0483 -0.14607,0.07294c-2.2447,-0.14695 -3.5828,-0.27218 -4.01429,-0.37647c0.02376,-0.09767 0.04839,-0.19535 0.07303,-0.29301c0,-0.606 0.09767,-2.48845 0.29301,-5.64541c-1.88245,-0.1044 -2.82314,-0.22952 -2.82314,-0.37647c0.09767,-2.32728 0.22281,-3.49184 0.37647,-3.49184c0.91605,0.17451 1.83308,0.34901 2.74922,0.52254c0,-0.29964 0,-0.59928 0,-0.89901c0,-0.73113 -0.02756,-1.72119 -0.08345,-2.96921c0.05589,0 0.08345,-0.02377 0.08345,-0.07304z" data-paper-data="{&quot;origPos&quot;:null}" fill="#000000" stroke="none" stroke-width="0.25766" stroke-linecap="butt"/><path d="M262.78348,201.10609c1.37977,0.7729 2.22669,1.27558 2.54055,1.50501c-1.12941,2.3491 -1.73541,3.54394 -1.81887,3.58572c-0.02464,0 -0.04927,0 -0.07401,0c-0.49781,-0.43528 -0.99668,-0.87057 -1.49459,-1.30683c-0.58886,0.71788 -1.1778,1.43577 -1.76666,2.15365l0.19817,3.92041c-0.09008,0.08443 -1.24422,0.2788 -3.46049,0.58604c-0.08346,-0.59928 -0.62683,-3.53723 -1.63111,-8.81376c0,-0.08345 1.45758,-0.29973 4.3709,-0.64777c0.0483,0.05599 0.18113,0.70747 0.39731,1.95452c1.74213,-1.95831 2.65535,-2.93698 2.73881,-2.93698z" data-paper-data="{&quot;origPos&quot;:null}" fill="#000000" stroke="none" stroke-width="0.25766" stroke-linecap="butt"/><path d="M272.0781,201.1165c3.15706,1.62362 4.90668,2.5719 5.24809,2.84311c-0.4533,2.1186 -0.72168,3.21013 -0.80514,3.27274c-2.20303,0 -4.40498,0 -6.60703,0c0,0.03798 0,0.07684 0,0.11472c0.61642,0.76346 1.23283,1.52681 1.85022,2.2893c0.96825,-0.4941 1.93738,-0.98909 2.9066,-1.48417c0.28542,0.49508 0.69705,1.35904 1.23283,2.59274c-0.25036,0.08345 -2.07965,0.35184 -5.48804,0.80514c-2.82315,-1.86064 -4.24469,-2.82977 -4.26553,-2.9066c0.45233,-3.61698 0.72071,-5.4264 0.80513,-5.4264c2.9474,-1.25367 4.65535,-1.95451 5.12287,-2.10058zM271.39819,203.64576c-0.05599,0.13945 -0.42487,0.69422 -1.10867,1.66247c0,0.29301 0.41162,0.43909 1.2338,0.43909c0,0.04168 0.59654,0.14315 1.7876,0.30344c0.32817,-0.4533 0.49217,-0.71789 0.49217,-0.79472c-0.10527,-0.62022 -0.33188,-0.93036 -0.67991,-0.93036z" data-paper-data="{&quot;origPos&quot;:null}" fill="#000000" stroke="none" stroke-width="0.25766" stroke-linecap="butt"/><path d="M289.89258,201.10609c1.70035,0.70367 3.16737,1.36566 4.40118,1.98587c-0.32047,4.14702 -0.52634,6.41549 -0.61642,6.80617c-2.04936,0.5093 -3.19591,0.76335 -3.43955,0.76335c0,-0.90661 -0.07021,-2.69421 -0.20966,-5.36378c-0.77378,0.07683 -1.15979,0.14325 -1.15979,0.19924c0,0.26458 0.0446,1.77708 0.13565,4.53683c0.04168,0 0.06261,0.02464 0.06261,0.07391c0,0.08345 -1.07731,0.31298 -3.23096,0.68945c-0.09017,-0.11092 -0.36518,-1.80845 -0.8251,-5.09161c-0.87155,0.2229 -1.30683,0.38407 -1.30683,0.48076c0.13945,1.42253 0.27879,2.84408 0.41824,4.26563c-0.08443,0.09105 -1.23098,0.45711 -3.43965,1.09816c-1.28308,-4.53771 -2.08442,-7.58288 -2.4049,-9.13716c2.41823,-0.59938 3.77055,-0.89901 4.05597,-0.89901c0.32058,1.26789 0.48086,1.99999 0.48086,2.19534c0.02464,0 0.04928,0 0.07391,0c1.17781,-1.08773 2.00008,-1.81984 2.46663,-2.19533c0.02464,0 0.04928,0 0.07401,0c0.73113,0.52536 1.46323,1.0517 2.19533,1.57805c0.02376,0 0.0484,0 0.07304,0c1.37325,-1.32388 2.10438,-1.98587 2.19543,-1.98587z" data-paper-data="{&quot;origPos&quot;:null}" fill="#000000" stroke="none" stroke-width="0.25766" stroke-linecap="butt"/><path d="M301.22517,201.1165c3.15794,1.62362 4.90668,2.5719 5.24907,2.84311c-0.4533,2.1186 -0.72168,3.21013 -0.80514,3.27274c-2.20303,0 -4.40507,0 -6.608,0c0,0.03798 0,0.07684 0,0.11472c0.61729,0.76346 1.2337,1.52681 1.85109,2.2893c0.96825,-0.4941 1.93747,-0.98909 2.90572,-1.48417c0.28639,0.49508 0.69705,1.35904 1.23381,2.59274c-0.25036,0.08345 -2.08062,0.35184 -5.48901,0.80514c-2.82216,-1.86064 -4.24372,-2.82977 -4.26466,-2.9066c0.45243,-3.61698 0.7208,-5.4264 0.80426,-5.4264c2.94837,-1.25367 4.65632,-1.95451 5.12286,-2.10058zM300.54614,203.64576c-0.0559,0.13945 -0.42574,0.69422 -1.10857,1.66247c0,0.29301 0.41152,0.43909 1.2338,0.43909c0,0.04168 0.59548,0.14315 1.7876,0.30344c0.32808,-0.4533 0.49119,-0.71789 0.49119,-0.79472c-0.10429,-0.62022 -0.3309,-0.93036 -0.67893,-0.93036c-0.57571,-0.22661 -1.15035,-0.4533 -1.72509,-0.6799z" data-paper-data="{&quot;origPos&quot;:null}" fill="#000000" stroke="none" stroke-width="0.25766" stroke-linecap="butt"/><path d="M319.04053,201.10609c1.70045,0.70367 3.16747,1.36566 4.40128,1.98587c-0.32058,4.14702 -0.52633,6.41549 -0.61641,6.80617c-2.04936,0.5093 -3.19591,0.76335 -3.43965,0.76335c0,-0.90661 -0.07011,-2.69421 -0.20956,-5.36378c-0.77388,0.07683 -1.16077,0.14325 -1.16077,0.19924c0,0.26458 0.04557,1.77708 0.13653,4.53683c0.04177,0 0.06262,0.02464 0.06262,0.07391c0,0.08345 -1.07731,0.31298 -3.23097,0.68945c-0.09008,-0.11092 -0.36605,-1.80845 -0.82597,-5.09161c-0.87058,0.2229 -1.30684,0.38407 -1.30684,0.48076c0.13945,1.42253 0.2788,2.84408 0.41825,4.26563c-0.08346,0.09105 -1.23001,0.45711 -3.43966,1.09816c-1.28211,-4.53771 -2.08344,-7.58288 -2.40402,-9.13716c2.41823,-0.59938 3.77065,-0.89901 4.05607,-0.89901c0.32047,1.26789 0.48076,1.99999 0.48076,2.19534c0.02464,0 0.04937,0 0.074,0c1.17781,-1.08773 1.99998,-1.81984 2.46663,-2.19533c0.02464,0 0.04928,0 0.07304,0c0.7321,0.52536 1.4642,1.0517 2.1963,1.57805c0.02366,0 0.0484,0 0.07304,0c1.37315,-1.32388 2.10438,-1.98587 2.19533,-1.98587z" data-paper-data="{&quot;origPos&quot;:null}" fill="#000000" stroke="none" stroke-width="0.25766" stroke-linecap="butt"/><path d="M329.32813,197.94815c0.02366,0.04558 0.0483,0.09105 0.07304,0.13653c0,0.39643 0.09008,1.93367 0.27121,4.60987c2.49604,-0.79471 3.89286,-1.21287 4.19259,-1.25465c1.25464,1.34852 2.50929,2.69801 3.76393,4.04653c-1.58184,3.54774 -2.44298,5.42922 -2.58233,5.6455c-0.43908,-0.04937 -2.04176,-0.11861 -4.80901,-0.20956c0,0.16399 0,0.32808 0,0.49217c0,0.09008 -0.04927,0.13555 -0.14704,0.13555c-1.34852,0 -2.69703,0 -4.04555,0c-0.14607,0 -0.42487,-2.09104 -0.83639,-6.27322c-0.09105,-0.35563 -0.34521,-2.44949 -0.76346,-6.28265c2.36993,-0.55769 3.99725,-0.90661 4.88302,-1.04606zM330.028,205.62207c0.09105,0.86113 0.18113,1.72119 0.27218,2.58232c0.70074,0 1.40061,0 2.10146,0c0.25416,-0.97584 0.50832,-1.95169 0.76346,-2.92753c-2.09114,0.18113 -3.13709,0.29682 -3.13709,0.34521z" data-paper-data="{&quot;origPos&quot;:null}" fill="#000000" stroke="none" stroke-width="0.25766" stroke-linecap="butt"/><path d="M344.63323,201.1165c3.15803,1.62362 4.90668,2.5719 5.24809,2.84311c-0.45233,2.1186 -0.72071,3.21013 -0.80416,3.27274c-2.20293,0 -4.40498,0 -6.608,0c0,0.03798 0,0.07684 0,0.11472c0.61739,0.76346 1.2338,1.52681 1.85021,2.2893c0.96922,-0.4941 1.93835,-0.98909 2.90669,-1.48417c0.28639,0.49508 0.69695,1.35904 1.23371,2.59274c-0.25036,0.08345 -2.08062,0.35184 -5.48891,0.80514c-2.82227,-1.86064 -4.2448,-2.82977 -4.26564,-2.9066c0.4533,-3.61698 0.72168,-5.4264 0.80514,-5.4264c2.94837,-1.25367 4.65632,-1.95451 5.12287,-2.10058zM343.9543,203.64576c-0.05599,0.13945 -0.42583,0.69422 -1.10866,1.66247c0,0.29301 0.41162,0.43909 1.2338,0.43909c0,0.04168 0.59558,0.14315 1.7876,0.30344c0.3272,-0.4533 0.49128,-0.71789 0.49128,-0.79472c-0.10429,-0.62022 -0.331,-0.93036 -0.67903,-0.93036c-0.57561,-0.22661 -1.15035,-0.4533 -1.72499,-0.6799z" data-paper-data="{&quot;origPos&quot;:null}" fill="#000000" stroke="none" stroke-width="0.25766" stroke-linecap="butt"/><path d="M358.33955,201.10609c1.37988,0.7729 2.22669,1.27558 2.54055,1.50501c-1.12941,2.3491 -1.7354,3.54394 -1.81886,3.58572c-0.02464,0 -0.04928,0 -0.07304,0c-0.49878,-0.43528 -0.99668,-0.87057 -1.49546,-1.30683c-0.58895,0.71788 -1.1779,1.43577 -1.76676,2.15365c0.06631,1.30684 0.13273,2.61358 0.19817,3.92041c-0.09008,0.08443 -1.24325,0.2788 -3.4605,0.58604c-0.08346,-0.59928 -0.62683,-3.53723 -1.63013,-8.81376c0,-0.08345 1.45661,-0.29973 4.36992,-0.64777c0.0483,0.05599 0.18113,0.70747 0.39731,1.95452c1.74213,-1.95831 2.65535,-2.93698 2.73881,-2.93698z" data-paper-data="{&quot;origPos&quot;:null}" fill="#000000" stroke="none" stroke-width="0.25766" stroke-linecap="butt"/><path d="M361.8313,208.32953c0.04937,0.02853 1.13613,0.11199 3.26232,0.25134c0.01324,0.02756 0.02747,0.05599 0.04168,0.08345c-0.32808,1.92423 -0.53675,2.88576 -0.6278,2.88576c-0.80796,0 -1.6169,0 -2.42486,0c-0.08346,0 -0.19534,-0.96153 -0.33479,-2.88576c-0.02746,0 -0.04168,-0.08345 -0.04168,-0.25036c0.08346,-0.02844 0.12514,-0.0559 0.12514,-0.08443z" data-paper-data="{&quot;origPos&quot;:null}" fill="#000000" stroke="none" stroke-width="0.25766" stroke-linecap="butt"/><path d="M366.26482,208.32953c0.0483,0.02853 1.13603,0.11199 3.26125,0.25134c0.01421,0.02756 0.02756,0.05599 0.04177,0.08345c-0.3272,1.92423 -0.53675,2.88576 -0.62683,2.88576c-0.80894,0 -1.6169,0 -2.42584,0c-0.08346,0 -0.19534,-0.96153 -0.33479,-2.88576c-0.02746,0 -0.04178,-0.08345 -0.04178,-0.25036c0.08346,-0.02844 0.12621,-0.0559 0.12621,-0.08443z" data-paper-data="{&quot;origPos&quot;:null}" fill="#000000" stroke="none" stroke-width="0.25766" stroke-linecap="butt"/><path d="M370.69726,208.32953c0.0484,0.02853 1.13613,0.11199 3.26135,0.25134c0.01421,0.02756 0.02844,0.05599 0.04265,0.08345c-0.32808,1.92423 -0.53676,2.88576 -0.62771,2.88576c-0.80806,0 -1.61699,0 -2.42593,0c-0.08346,0 -0.19437,-0.96153 -0.33382,-2.88576c-0.02844,0 -0.04168,-0.08345 -0.04168,-0.25036c0.08346,-0.02844 0.12514,-0.0559 0.12514,-0.08443z" data-paper-data="{&quot;origPos&quot;:null}" fill="#000000" stroke="none" stroke-width="0.25766" stroke-linecap="butt"/><g data-paper-data="{&quot;origPos&quot;:null}"><path d="M444.3058,202.09868c2.5136,0 4.7909,1.0212 6.4406,2.6702c1.6489,1.6496 2.6702,3.9269 2.6702,6.4405c0,2.5136 -1.0213,4.791 -2.6702,6.4406c-1.6497,1.649 -3.927,2.6702 -6.4406,2.6702c-2.5136,0 -4.7909,-1.0212 -6.4406,-2.6702c-1.6489,-1.6496 -2.6701,-3.927 -2.6701,-6.4406c0,-2.5136 1.0212,-4.7909 2.6701,-6.4405c1.6497,-1.649 3.927,-2.6702 6.4406,-2.6702z" fill="url(#color-3)" stroke="#000000" stroke-width="2.0785" stroke-linecap="butt"/><path d="M441.2734,206.54887l5.6119,0.4503l1.7321,3.187l-3.6374,2.9446l3.3603,-0.5197l0.7967,3.4642l-7.4479,-0.0693l-1.9053,-2.4249l4.6766,-3.3256l-4.5727,-0.3464z" fill="#000000" stroke="none" stroke-width="0.69283" stroke-linecap="round"/></g></g></g></svg>