<svg version="1.1" xmlns="http://www.w3.org/2000/svg" xmlns:xlink="http://www.w3.org/1999/xlink" width="558.64603" height="428.77409" viewBox="0,0,558.64603,428.77409"><defs><linearGradient x1="242.49296" y1="-23.92493" x2="253.50705" y2="379.92491" gradientUnits="userSpaceOnUse" id="color-1"><stop offset="0" stop-color="#4fb75b"/><stop offset="1" stop-color="#1c8e2a"/></linearGradient></defs><g transform="translate(31.32301,36.38704)"><g data-paper-data="{&quot;isPaintingLayer&quot;:true}" fill="url(#color-1)" fill-rule="nonzero" stroke="#166d20" stroke-width="10" stroke-linecap="butt" stroke-linejoin="miter" stroke-miterlimit="10" stroke-dasharray="" stroke-dashoffset="0" font-family="none" font-weight="none" font-size="none" text-anchor="none" style="mix-blend-mode: normal"><path d="M-15.17447,387.25259l-11.01409,-403.84983l537.36303,-14.65535l11.01409,403.84984zM78.90259,134.83451l1.33179,6.49889c0.05192,1.90368 0.77339,6.92237 1.2262,9.2278c0.22279,1.13424 2.2228,10.1248 2.34094,14.45653c0.05236,1.91978 -3.43139,12.06266 -4.28982,13.42964c-2.63232,4.19175 -6.39204,6.14046 -11.0014,7.81788l-0.4337,5.96587c0.76653,1.89753 6.91635,2.37013 8.18291,3.06964c0.71883,0.39701 4.33231,2.57195 5.11427,3.31238c2.4639,2.33308 10.7377,12.22062 10.61106,12.44757c-0.77229,1.38423 1.99864,12.34441 2.42183,15.43972c0.41666,3.04755 1.78115,5.77319 2.36395,8.72043c0.66925,3.38434 0.08575,7.74132 0.18056,11.21761c0.14086,5.16474 0.28171,10.32949 0.42257,15.49424c0.02607,0.95596 -0.41981,4.89113 0.14995,5.49795c4.33142,4.61317 10.8155,1.2056 16.03495,1.06324c3.3321,-0.09087 23.0014,8.07864 23.37297,8.65658c0.45751,0.71158 6.24328,13.54425 6.27055,14.54388c0.06315,2.31558 0.23768,8.71544 0.28625,10.4961c0.02879,1.05568 0.0564,2.06792 0.08179,2.99888c0.03764,1.3802 11.81531,-0.82242 14.48098,-0.89512c3.4987,-0.09542 17.87393,1.55102 18.76713,1.86077c4.39077,1.33173 7.76326,8.53672 9.26775,12.67091c0.60906,1.67362 1.68522,5.48764 3.76556,5.87671c7.00993,1.31107 16.45394,-15.12108 18.01418,-15.55667c3.82698,-1.0684 20.30576,-1.97969 26.84481,-2.15802c2.77292,-0.07563 4.7789,1.55605 7.20821,3.38487c1.24173,0.93478 7.91602,3.0674 9.22439,2.43706c3.01866,-1.45432 5.0576,-5.95847 7.90639,-7.90612c0.90934,-0.62169 8.15885,-4.50202 11.58759,-5.02708c3.27464,-0.50146 18.48452,-4.48641 19.86472,-4.52405c0.828,-0.02258 14.09552,4.5992 14.09552,4.5992c0,0 13.75196,14.29603 16.92002,12.59369c2.64504,-1.4213 6.73672,-17.39244 9.56697,-17.81437c0.82032,-0.12229 14.0677,-7.05691 22.46884,-7.28589c1.99926,-0.05453 24.22069,14.21211 24.49721,13.79553c0.94815,-1.42836 1.42095,-3.15543 1.74041,-4.83981c0.21611,-1.13946 -1.66535,-10.74809 -1.74496,-13.66694c-0.02642,-0.96882 8.39217,-11.50565 8.97009,-11.87723c1.90341,-1.22379 12.39907,-8.3135 12.71053,-9.95418c0.25239,-1.32948 0.12622,-2.71298 -0.00673,-4.05965c-0.4191,-4.24528 -6.64267,-4.09411 -7.99579,-7.38094c-0.87663,-1.24029 -7.0451,-11.95931 -7.12602,-14.92638c-0.02726,-0.99963 2.64912,-19.03577 2.91821,-19.99889c1.1646,-4.16836 22.40095,-10.32008 22.36331,-11.70028c-0.03066,-1.12418 -7.92514,-8.93449 -8.44708,-11.59186c-0.66431,-3.38225 0.91741,-7.73397 0.82265,-11.20876c-0.00847,-0.31079 -19.87375,-2.24348 -20.1629,-2.86688c-1.36572,-2.94453 -13.03454,-8.99518 -14.63853,-11.74282c-0.9631,-1.64978 -7.83919,-15.55229 -7.83919,-15.55229c0,0 2.38698,-9.51531 8.63779,-14.79658c5.40402,-4.56583 24.37005,-10.08401 17.36407,-11.0671c-8.26238,-1.15939 -15.35364,-2.174 -22.8151,-5.9073c-6.26301,-3.13365 -9.93156,-6.4655 -10.09825,-13.46673c-0.15247,-6.40287 -0.69001,-10.286 1.16893,-16.41497c1.20637,-3.97743 14.87174,-19.77245 13.62906,-19.49535c-3.72806,0.83127 -25.7407,7.55289 -34.39557,7.78895c-1.4832,0.04045 -15.13735,-9.43166 -17.2695,-14.06701c-0.97762,-2.12536 -6.95385,-20.68748 -7.46123,-20.83011c-7.17366,-2.01662 -8.39751,13.67858 -13.59803,16.05615c-5.62909,2.57351 -29.03575,0.09722 -29.41845,-0.26516c-5.01345,-4.7472 -21.73488,-19.24404 -21.73488,-19.24404l-5.66508,17.88127l-16.38082,8.64772c0,0 -16.04182,-0.24664 -17.66717,-0.49501c-3.99851,0.10905 -20.10778,-6.9579 -20.49387,-6.55016c-4.29304,4.53377 -1.35329,13.25287 -3.41824,15.43362c-1.06619,1.12597 -11.62022,8.91728 -13.597,9.30555c-3.85171,0.75652 -11.73414,3.10986 -15.7082,3.21825c-3.55202,0.09687 -17.79262,-9.81549 -21.55062,-9.713c-0.99963,0.02726 -5.5495,22.89029 -7.93958,27.98634c-1.04551,2.22921 -3.19794,3.98138 -4.54572,6.02999c-1.16085,1.84856 -8.51255,9.79426 -8.55354,9.82385c-0.12298,0.08877 -3.03865,4.01432 -5.71646,5.68995c-0.58244,0.36446 -12.39172,4.77452 -13.33887,5.1192c-1.95214,0.71041 -10.1455,4.29231 -10.1455,4.29231z" data-paper-data="{&quot;origPos&quot;:null,&quot;origRot&quot;:0}"/></g></g></svg>