<svg version="1.1" xmlns="http://www.w3.org/2000/svg" xmlns:xlink="http://www.w3.org/1999/xlink" width="412.87805" height="487"><defs><linearGradient x1="161.06099" y1="247" x2="161.06099" y2="395.00001" gradientUnits="userSpaceOnUse" id="color-1"><stop offset="0" stop-color="#aec2cf"/><stop offset="1" stop-color="#929aa3"/></linearGradient><linearGradient x1="391.06099" y1="-90" x2="391.06099" y2="58.00001" gradientUnits="userSpaceOnUse" id="color-2"><stop offset="0" stop-color="#aec2cf"/><stop offset="1" stop-color="#929aa3"/></linearGradient></defs><g transform="translate(-69.62195,90.99999)"><g data-paper-data="{&quot;isPaintingLayer&quot;:true}" fill="none" fill-rule="nonzero" stroke="none" stroke-width="none" stroke-linecap="butt" stroke-linejoin="miter" stroke-miterlimit="10" stroke-dasharray="" stroke-dashoffset="0" font-family="none" font-weight="none" font-size="none" text-anchor="none" style="mix-blend-mode: normal"><path d="M150.9375,156.25c-0.12292,-0.21853 -0.21386,-0.45013 -0.28658,-0.68928c-0.33651,-0.75188 -0.55285,-1.56928 -0.62459,-2.42779c-1.23256,-2.72648 -5.55686,-7.54855 -7.86674,-9.55189c-1.89161,-1.64059 -7.92062,-5.16088 -8.90959,-6.51854c-1.48343,-2.03644 -3.75,-4.04304 -3.75,-6.5625c0,-6.15083 5.92762,-8.43232 10.48874,-7.29204c2.59482,0.6487 4.43041,3.28129 6.49543,4.89887c3.09457,2.42404 6.11624,4.97733 8.89276,7.77393c-0.01168,-4.12764 0.01269,-8.25482 0.12307,-12.38076c0,-0.09557 0.00179,-0.19073 0.00533,-0.28544c0.01639,-1.28274 -0.03016,-2.91466 1.03105,-3.52107c1.30464,-2.21056 3.71095,-3.6935 6.46362,-3.6935c2.74603,0 5.14736,1.47579 6.45415,3.6775c0.53695,0.68082 0.87038,1.5874 0.99573,2.95073c0.02499,0.27182 0.04171,0.5618 0.05012,0.87177c0.26253,9.67413 -0.24923,19.35859 0,29.03307c0.03618,1.40443 0.11176,2.79791 0.21096,4.18484c2.07745,-1.80989 4.19304,-3.34298 5.93494,-4.42611c1.93763,-1.20484 4.50519,-1.48217 6.42777,-2.72205c1.96725,-1.26869 2.80438,-3.11325 4.62303,-4.37305c3.29972,-2.28575 6.32495,-4.28165 10.6066,0c3.7763,3.7763 2.52257,8.03323 -0.36087,10.96747c-1.64156,1.67048 -1.94375,3.24812 -4.06222,4.59624c-2.71417,1.7272 -8.96377,3.50742 -10.9538,5.41979c-2.4451,2.34967 -4.76745,5.64996 -7.56592,8.00049c-0.88917,1.11184 -2.08816,1.96511 -3.46615,2.429c-0.46047,2.44537 -1.81109,4.81355 -1.89434,7.3136c-0.12124,3.64096 -0.14564,7.28441 -0.12392,10.92808c5.03504,-5.06572 10.22464,-11.584 17.26982,-13.55958c7.54765,-2.11648 12.23447,3.12654 9.64304,10.90083c-1.09377,3.28132 -6.79366,3.77984 -8.90338,5.74985c-4.98689,4.65665 -10.06481,12.64293 -17.51695,13.90507c0.34836,4.91566 0.83801,9.77106 1.04391,14.78522c2.7899,-1.37241 5.6924,-2.76764 8.49439,-4.64628c1.85042,-1.24064 2.24563,-4.55715 4.40047,-5.27543c6.7082,-2.23607 9.50329,-0.83853 11.73936,5.86968c0.51257,1.53772 -1.64514,5.50788 -2.33853,6.77336c-2.66639,4.86637 -10.24982,8.35492 -15.20785,10.51979c-2.81157,1.22764 -3.16463,1.05512 -4.99077,2.72313c-0.72519,0.6624 -2.18374,2.04352 -3.84663,3.24249c-0.00721,1.24325 -0.03225,2.47449 -0.16295,3.66049c-0.14113,1.28072 -0.02641,2.83891 -0.9375,3.75c-1.78152,1.78152 -4.04304,3.75 -6.5625,3.75c-10.14092,0 -7.92363,-11.85025 -6.35771,-20.06688c-1.39277,-0.83699 -2.49138,-2.11349 -3.10398,-3.63763c-3.96532,-3.01592 -7.62896,-6.16515 -12.31005,-8.79611c-3.01865,-1.6966 -8.57566,-3.9384 -10.0172,-7.30676c-0.19897,-0.46492 -0.14843,-2.38635 -0.18378,-3.30806c-0.05423,-1.41403 -0.86832,-2.97299 -0.23548,-4.23867c0.63284,-1.26567 2.35803,-1.56508 3.53222,-2.35481c0.9164,-0.61635 1.66439,-1.67506 2.75672,-1.83781c4.05059,-0.60354 5.30206,2.50398 8.1332,4.14695c3.97805,2.30855 7.96727,4.77121 11.71462,7.44302c-0.43328,-4.13231 -0.91036,-8.23388 -0.92856,-12.54325c-0.00267,-0.63245 -0.00543,-1.26491 -0.00819,-1.89738c-0.80176,-0.33421 -1.63521,-0.95376 -2.32874,-1.48298c-0.14066,-0.09987 -0.27773,-0.20446 -0.41098,-0.31355c-6.97763,-5.28367 -13.81114,-10.76544 -20.45467,-16.46351c-2.99936,-2.57252 -4.20889,-6.73232 -1.14002,-10.54516c3.06892,-3.8129 7.39104,-3.52025 10.54516,-1.14002c4.67306,3.52649 9.26971,7.15675 13.7923,10.87623c0.00164,-0.17788 0.00335,-0.35576 0.00513,-0.53364c0.03102,-3.10247 1.97273,-6.27046 2,-9.28571c0.04225,-4.6713 -0.63131,-9.28235 -1.0899,-13.88314c-1.78024,-0.38426 -3.32535,-1.4005 -4.38881,-2.80223c-0.22353,-0.2309 -0.42033,-0.48835 -0.58378,-0.77892z" data-paper-data="{&quot;origPos&quot;:null}" fill="#cf5bb4" stroke="none" stroke-width="0.5"/><path d="M70.62195,395.00001v-148h180.87805v148z" data-paper-data="{&quot;origPos&quot;:null,&quot;index&quot;:null}" fill="url(#color-1)" stroke="#647982" stroke-width="2"/><path d="M300.62195,58.00001v-148h180.87805v148z" data-paper-data="{&quot;origPos&quot;:null,&quot;index&quot;:null}" fill="url(#color-2)" stroke="#647982" stroke-width="2"/></g></g></svg>