<svg version="1.1" xmlns="http://www.w3.org/2000/svg" xmlns:xlink="http://www.w3.org/1999/xlink" width="491.4316" height="203.1043"><defs><linearGradient x1="400.5" y1="342" x2="413.5" y2="342" gradientUnits="userSpaceOnUse" id="color-1"><stop offset="0" stop-color="#cc7700"/><stop offset="1" stop-color="#995900"/></linearGradient><linearGradient x1="177.5" y1="342" x2="190.5" y2="342" gradientUnits="userSpaceOnUse" id="color-2"><stop offset="0" stop-color="#cc7700"/><stop offset="1" stop-color="#995900"/></linearGradient><linearGradient x1="4.6129" y1="280" x2="19.5" y2="280" gradientUnits="userSpaceOnUse" id="color-3"><stop offset="0" stop-color="#cc7700"/><stop offset="1" stop-color="#995900"/></linearGradient><linearGradient x1="109.8942" y1="332.4518" x2="102.4742" y2="344.3238" gradientUnits="userSpaceOnUse" id="color-4"><stop offset="0" stop-color="#b2b2b2"/><stop offset="1" stop-color="#666666"/></linearGradient><linearGradient x1="101.3071" y1="330" x2="101.3071" y2="344" gradientUnits="userSpaceOnUse" id="color-5"><stop offset="0" stop-color="#b2b2b2"/><stop offset="1" stop-color="#666666"/></linearGradient><linearGradient x1="361.566" y1="329" x2="361.566" y2="343" gradientUnits="userSpaceOnUse" id="color-6"><stop offset="0" stop-color="#b2b2b2"/><stop offset="1" stop-color="#666666"/></linearGradient><linearGradient x1="185.8395" y1="332.7805" x2="194.4608" y2="343.811" gradientUnits="userSpaceOnUse" id="color-7"><stop offset="0" stop-color="#b2b2b2"/><stop offset="1" stop-color="#666666"/></linearGradient></defs><g transform="translate(8.8156,-262.8957)"><g data-paper-data="{&quot;isPaintingLayer&quot;:true}" fill="none" fill-rule="nonzero" stroke="none" stroke-width="none" stroke-linecap="butt" stroke-linejoin="miter" stroke-miterlimit="10" stroke-dasharray="" stroke-dashoffset="0" font-family="none" font-weight="none" font-size="none" text-anchor="none" style="mix-blend-mode: normal"><path d="M400.5,342h13v124h-13z" id="ID0.512201922480017" fill="url(#color-1)" stroke-width="1"/><path d="M177.5,342h13v124h-13z" id="ID0.512201922480017" fill="url(#color-2)" stroke-width="1"/><path d="M4.6129,280h14.8871v142h-14.8871z" data-paper-data="{&quot;origPos&quot;:null}" id="ID0.512201922480017" fill="url(#color-3)" stroke-width="1"/><path d="M102.4742,344.3238l-111.2898,-69.5561l7.4199,-11.872l111.2899,69.5561z" id="ID0.8304188074544072" fill="url(#color-4)" stroke-width="1.31167"/><path d="M101.3071,330h93v14h-93z" id="ID0.8304188074544072" fill="url(#color-5)" stroke-width="1.05493"/><path d="M361.566,329h121.05v14h-121.05z" id="ID0.8304188074544072" fill="url(#color-6)" stroke-width="1.2403"/><path d="M185.8395,332.7805l49.6376,-38.7957l8.6213,11.0305l-49.6376,38.7957z" id="ID0.8304188074544072" fill="url(#color-7)" stroke-width="0.88388"/></g></g></svg>