<svg version="1.1" xmlns="http://www.w3.org/2000/svg" xmlns:xlink="http://www.w3.org/1999/xlink" width="504.72962" height="173.24113" viewBox="0,0,504.72962,173.24113"><defs><linearGradient x1="413.57378" y1="190.99831" x2="414.3239" y2="246.99677" gradientUnits="userSpaceOnUse" id="color-1"><stop offset="0" stop-color="#c3e060"/><stop offset="1" stop-color="#6de01b"/></linearGradient><linearGradient x1="241.46158" y1="292.99825" x2="241.03967" y2="348.99677" gradientUnits="userSpaceOnUse" id="color-2"><stop offset="0" stop-color="#c3e060"/><stop offset="1" stop-color="#6de01b"/></linearGradient></defs><g transform="translate(18.93367,-191.75888)"><g data-paper-data="{&quot;isPaintingLayer&quot;:true}" fill-rule="nonzero" stroke-linejoin="miter" stroke-miterlimit="10" stroke-dasharray="" stroke-dashoffset="0" style="mix-blend-mode: normal"><path d="M-2.09775,211.0441h232.92796v87.95596h-232.92796z" data-paper-data="{&quot;origPos&quot;:null}" id="ID0.7496546297334135" fill="#c06520" stroke="#663b00" stroke-width="2" stroke-linecap="butt"/><path d="M-11.3489,195.76931c2.09777,-1.64256 8.55587,-3.00636 14.94252,-3.01043c88.82126,-0.05661 197.66123,-0.12847 223.68168,-0.14505c8.67347,-0.00553 15.31741,1.84668 16.89048,2.98584c2.05407,1.48747 5.33423,4.56098 5.33423,9.4004c0,8.39065 0,13.10935 0,21.5c0,0.89907 -1.06338,8.5977 -1.05655,9.49592l-16.97092,-12.29693l-20.14359,13.10368l-19.533,-13.15508l-20.13019,13.50365l-27.24601,-12.07349l-8.8325,14.03674l-30.94524,-13.16966l-19.61895,13.39243l-16.42366,-13.93278l-21.53926,12.10363l-23.59951,-10.90317l-7.06869,11.0294l-21.7955,-10.91059l-12.46734,12.05165c0,0 0.53156,-20.58864 0.87177,-33.76641c0.12333,-4.77672 3.88872,-7.86049 5.65023,-9.23975z" data-paper-data="{&quot;origPos&quot;:null,&quot;origRot&quot;:0}" fill="url(#color-1)" stroke="#0f6600" stroke-width="2" stroke-linecap="butt"/><path d="M215.00005,279.626c0,-2.99856 2.23858,-5.42938 5,-5.42938c2.76142,0 5,2.43082 5,5.42938c0,2.99856 -2.23858,5.42938 -5,5.42938c-2.76142,0 -5,-2.43082 -5,-5.42938z" fill="#e0bb60" stroke="none" stroke-width="0.5" stroke-linecap="butt"/><path d="M165,255.73678c0,-2.99856 2.23858,-5.42938 5,-5.42938c2.76142,0 5,2.43082 5,5.42938c0,2.99856 -2.23858,5.42938 -5,5.42938c-2.76142,0 -5,-2.43082 -5,-5.42938z" data-paper-data="{&quot;origPos&quot;:null}" fill="#e0bb60" stroke="none" stroke-width="0.5" stroke-linecap="butt"/><path d="M132,277.45426c0,-2.99856 2.23858,-5.42938 5,-5.42938c2.76142,0 5,2.43082 5,5.42938c0,2.99856 -2.23858,5.42938 -5,5.42938c-2.76142,0 -5,-2.43082 -5,-5.42938z" fill="#e0bb60" stroke="none" stroke-width="0.5" stroke-linecap="butt"/><path d="M205.00005,246.53452c0,-2.99856 2.23858,-5.42938 5,-5.42938c2.76142,0 5,2.43082 5,5.42938c0,2.99856 -2.23858,5.42938 -5,5.42938c-2.76142,0 -5,-2.43082 -5,-5.42938z" data-paper-data="{&quot;origPos&quot;:null}" fill="#e0bb60" stroke="none" stroke-width="0.5" stroke-linecap="butt"/><path d="M-4.99998,314.00001l489.79592,0.08164v49.91836h-489.79592z" data-paper-data="{&quot;origPos&quot;:null}" id="ID0.29126935824751854" fill="#c06520" stroke="#763e13" stroke-width="2" stroke-linecap="butt"/><path d="M409.00001,349.00001c0,-2.76142 2.23858,-5 5,-5c2.76142,0 5,2.23858 5,5c0,2.76142 -2.23858,5 -5,5c-2.76142,0 -5,-2.23858 -5,-5z" data-paper-data="{&quot;origPos&quot;:null}" fill="#e0bb60" stroke="none" stroke-width="0.5" stroke-linecap="butt"/><path d="M25,354.00001c0,-2.76142 2.23858,-5 5,-5c2.76142,0 5,2.23858 5,5c0,2.76142 -2.23858,5 -5,5c-2.76142,0 -5,-2.23858 -5,-5z" data-paper-data="{&quot;origPos&quot;:null}" fill="#e0bb60" stroke="none" stroke-width="0.5" stroke-linecap="butt"/><path d="M107,347.00001c0,-2.76142 2.23858,-5 5,-5c2.76142,0 5,2.23858 5,5c0,2.76142 -2.23858,5 -5,5c-2.76142,0 -5,-2.23858 -5,-5z" data-paper-data="{&quot;origPos&quot;:null}" fill="#e0bb60" stroke="none" stroke-width="0.5" stroke-linecap="butt"/><path d="M289.00001,346.00001c0,-2.76142 2.23858,-5 5,-5c2.76142,0 5,2.23858 5,5c0,2.76142 -2.23858,5 -5,5c-2.76142,0 -5,-2.23858 -5,-5z" data-paper-data="{&quot;origPos&quot;:null}" fill="#e0bb60" stroke="none" stroke-width="0.5" stroke-linecap="butt"/><path d="M182.00005,352.00001c0,-2.76142 2.23858,-5 5,-5c2.76142,0 5,2.23858 5,5c0,2.76142 -2.23858,5 -5,5c-2.76142,0 -5,-2.23858 -5,-5z" data-paper-data="{&quot;origPos&quot;:null}" fill="#e0bb60" stroke="none" stroke-width="0.5" stroke-linecap="butt"/><path d="M338.00001,353.00001c0,-2.76142 2.23858,-5 5,-5c2.76142,0 5,2.23858 5,5c0,2.76142 -2.23858,5 -5,5c-2.76142,0 -5,-2.23858 -5,-5z" data-paper-data="{&quot;origPos&quot;:null}" fill="#e0bb60" stroke="none" stroke-width="0.5" stroke-linecap="butt"/><path d="M457.00001,355.00001c0,-2.76142 2.23858,-5 5,-5c2.76142,0 5,2.23858 5,5c0,2.76142 -2.23858,5 -5,5c-2.76142,0 -5,-2.23858 -5,-5z" data-paper-data="{&quot;origPos&quot;:null}" fill="#e0bb60" stroke="none" stroke-width="0.5" stroke-linecap="butt"/><path d="M484.10848,340.77546l-7.01169,-12.05165l-12.25791,10.91059l-3.97547,-11.0294l-13.2725,10.90317l-14.1138,-12.10363l-9.23675,13.93279l-8.03382,-11.0591l-22.40377,10.83633l-4.96746,-14.03674l-17.32331,9.87349l-14.12133,-11.10365l-6.18547,12.95508l-14.12887,-10.10368l-13.26496,9.90319l-10.06298,-11.07396l-17.34591,12.87341l-16.12791,-14.11843l-11.24332,10.91802l-11.10018,-8.08146l-6.20056,13.96245l-14.1515,-9.09634l-14.28703,10.88089l-8.02634,-12.04423l-13.25737,8.88837l-12.05449,-14.08866l-9.20662,9.93289l-14.14393,-8.10373l-14.30969,11.89565l-12.06956,-12.08872l-10.25134,11.92535l-14.12887,-10.10368l-12.25791,10.91059l-11.09265,-9.08143l-14.27955,9.89576l-4.29106,-12.03179l-14.61774,10.89329l-12.75349,-13.0937l-8.87596,10.93534l-9.04841,-11.06653l-11.25839,12.91796l-10.04792,-13.0739l-9.19155,7.93295l0.2863,-41.99896l485.02506,0.54964z" data-paper-data="{&quot;origPos&quot;:null,&quot;origRot&quot;:0,&quot;index&quot;:null}" fill="url(#color-2)" stroke="#0f6600" stroke-width="2" stroke-linecap="round"/><path d="M10,248.45427c0,-2.99856 2.23858,-5.42938 5,-5.42938c2.76142,0 5,2.43082 5,5.42938c0,2.99856 -2.23858,5.42938 -5,5.42938c-2.76142,0 -5,-2.43082 -5,-5.42938z" fill="#e0bb60" stroke="none" stroke-width="0.5" stroke-linecap="butt"/><path d="M88,249.45427c0,-2.99856 2.23858,-5.42938 5,-5.42938c2.76142,0 5,2.43082 5,5.42938c0,2.99856 -2.23858,5.42938 -5,5.42938c-2.76142,0 -5,-2.43082 -5,-5.42938z" fill="#e0bb60" stroke="none" stroke-width="0.5" stroke-linecap="butt"/><path d="M57,274.45427c0,-2.99856 2.23858,-5.42938 5,-5.42938c2.76142,0 5,2.43082 5,5.42938c0,2.99856 -2.23858,5.42938 -5,5.42938c-2.76142,0 -5,-2.43082 -5,-5.42938z" fill="#e0bb60" stroke="none" stroke-width="0.5" stroke-linecap="butt"/></g></g></svg>