<svg version="1.1" xmlns="http://www.w3.org/2000/svg" xmlns:xlink="http://www.w3.org/1999/xlink" width="567.23147" height="309.00469" viewBox="0,0,567.23147,309.00469"><defs><linearGradient x1="22.36651" y1="21.83185" x2="22.36651" y2="320.82885" gradientUnits="userSpaceOnUse" id="color-1"><stop offset="0" stop-color="#ffa9a1"/><stop offset="1" stop-color="#ff6a60"/></linearGradient><linearGradient x1="182.56758" y1="60.54087" x2="182.56758" y2="196.86788" gradientUnits="userSpaceOnUse" id="color-2"><stop offset="0" stop-color="#edf3f8"/><stop offset="1" stop-color="#cedee9"/></linearGradient><linearGradient x1="200.65467" y1="116.76812" x2="200.65467" y2="135.46142" gradientUnits="userSpaceOnUse" id="color-3"><stop offset="0" stop-color="#ff4040"/><stop offset="1" stop-color="#c33131"/></linearGradient><linearGradient x1="231.95861" y1="153.80762" x2="202.44947" y2="156.89736" gradientUnits="userSpaceOnUse" id="color-4"><stop offset="0" stop-color="#ffffff"/><stop offset="1" stop-color="#ffffff" stop-opacity="0"/></linearGradient><linearGradient x1="170.07665" y1="153.64253" x2="199.62529" y2="156.25594" gradientUnits="userSpaceOnUse" id="color-5"><stop offset="0" stop-color="#979797"/><stop offset="1" stop-color="#979797" stop-opacity="0"/></linearGradient><linearGradient x1="199.25843" y1="189.52114" x2="199.25843" y2="213.84728" gradientUnits="userSpaceOnUse" id="color-6"><stop offset="0" stop-color="#ff4040"/><stop offset="1" stop-color="#c33131"/></linearGradient><linearGradient x1="82.68896" y1="197.62985" x2="124.01815" y2="197.62985" gradientUnits="userSpaceOnUse" id="color-7"><stop offset="0" stop-color="#c33131"/><stop offset="1" stop-color="#ff4040"/></linearGradient><radialGradient cx="200.60256" cy="192.1476" r="25.83954" gradientUnits="userSpaceOnUse" id="color-8"><stop offset="0" stop-color="#65ceff"/><stop offset="1" stop-color="#3f99ff"/></radialGradient><linearGradient x1="91.29007" y1="260.11131" x2="120.94935" y2="260.11131" gradientUnits="userSpaceOnUse" id="color-9"><stop offset="0" stop-color="#d6dde2"/><stop offset="1" stop-color="#d6dde2" stop-opacity="0"/></linearGradient><linearGradient x1="172.17906" y1="261.63212" x2="201.83836" y2="261.63212" gradientUnits="userSpaceOnUse" id="color-10"><stop offset="0" stop-color="#d6dde2"/><stop offset="1" stop-color="#d6dde2" stop-opacity="0"/></linearGradient><linearGradient x1="9.14157" y1="190.38876" x2="9.14157" y2="214.03326" gradientUnits="userSpaceOnUse" id="color-11"><stop offset="0" stop-color="#ff4040"/><stop offset="1" stop-color="#c33131"/></linearGradient><linearGradient x1="-107.42792" y1="198.27024" x2="-66.09872" y2="198.27024" gradientUnits="userSpaceOnUse" id="color-12"><stop offset="0" stop-color="#c33131"/><stop offset="1" stop-color="#ff4040"/></linearGradient><linearGradient x1="-98.82681" y1="259.0009" x2="-69.16752" y2="259.0009" gradientUnits="userSpaceOnUse" id="color-13"><stop offset="0" stop-color="#d6dde2"/><stop offset="1" stop-color="#d6dde2" stop-opacity="0"/></linearGradient><linearGradient x1="200.45883" y1="26.80347" x2="200.45883" y2="63.34166" gradientUnits="userSpaceOnUse" id="color-14"><stop offset="0" stop-color="#ff4040"/><stop offset="1" stop-color="#c33131"/></linearGradient><linearGradient x1="29.59923" y1="300.7971" x2="29.59923" y2="321.52348" gradientUnits="userSpaceOnUse" id="color-15"><stop offset="0" stop-color="#8d5418"/><stop offset="1" stop-color="#a75d1c"/></linearGradient><linearGradient x1="34.85871" y1="283.67746" x2="34.85871" y2="319.57428" gradientUnits="userSpaceOnUse" id="color-16"><stop offset="0" stop-color="#7de75a"/><stop offset="1" stop-color="#62b446"/></linearGradient></defs><g transform="translate(260.36957,-18.82418)"><g data-paper-data="{&quot;isPaintingLayer&quot;:true}" fill-rule="nonzero" stroke-linejoin="miter" stroke-miterlimit="10" stroke-dasharray="" stroke-dashoffset="0" style="mix-blend-mode: normal"><path d="M302.54681,25.83186l-110.8863,298.997h-440.4743l-5.5,-298.00694z" fill="none" stroke="#801818" stroke-width="6" stroke-linecap="round"/><path d="M299.54681,21.83185l-110.8863,298.997h-440.4743l-5.5,-298.00694z" fill="none" stroke="#801818" stroke-width="6" stroke-linecap="round"/><path d="M299.54681,21.83185l-110.8863,298.997h-439.4743l-4,-298.00694z" fill="url(#color-1)" stroke="#000000" stroke-width="0" stroke-linecap="round"/><g><path d="M-18.1305,302.75222l-0.31205,-0.27687" fill="none" stroke="#cccccc" stroke-width="2" stroke-linecap="round"/><path d="M107.7321,281.52557l-0.31205,-0.27687" fill="none" stroke="#cccccc" stroke-width="2" stroke-linecap="round"/><path d="M180.23314,248.94731l0.31205,0.27687" fill="none" stroke="#cccccc" stroke-width="2" stroke-linecap="round"/><path d="" fill="none" stroke="#cccccc" stroke-width="2" stroke-linecap="round"/><path d="M111.5808,238.79544l0.31205,0.27687" fill="none" stroke="#cccccc" stroke-width="2" stroke-linecap="round"/><path d="M182.56758,60.54087h36.28851v136.32699h-36.28851z" data-paper-data="{&quot;origPos&quot;:null}" fill="url(#color-2)" stroke="none" stroke-width="1.11058" stroke-linecap="butt"/><path d="M171.1389,116.76812h59.03154v18.6933h-59.03154z" data-paper-data="{&quot;origPos&quot;:null}" fill="url(#color-3)" stroke="none" stroke-width="1.06271" stroke-linecap="butt"/><g data-paper-data="{&quot;origPos&quot;:null,&quot;origRot&quot;:0}" stroke="none"><path d="M235.07688,188.45661l-67.817,-0.84528l4.65386,-53.35457l13.44196,-12.87069l32.34654,0.00714l12.35734,12.45426z" data-paper-data="{&quot;origPos&quot;:null}" fill="#ebf2f7" stroke-width="2.16315" stroke-linecap="round"/><path d="M207.0133,203.35336l-8.06277,-82.07253l18.69042,0.19442l12.62862,12.75352l5.13095,54.18676l-4.21721,12.40711z" data-paper-data="{&quot;origPos&quot;:null,&quot;index&quot;:null,&quot;origRot&quot;:0}" fill="url(#color-4)" stroke-width="0" stroke-linecap="butt"/><path d="M166.15729,200.16694l5.53945,-65.75557l13.60574,-13.03485l17.29543,-0.21021l-6.89196,81.6141z" data-paper-data="{&quot;origPos&quot;:null,&quot;origRot&quot;:0}" fill="url(#color-5)" stroke-width="0" stroke-linecap="butt"/></g><path d="M109.18203,203.03563l39.20973,-13.51449h26.49307h52.98617l8.87649,0.34987l-8.99749,23.97625h-124.92634z" data-paper-data="{&quot;origPos&quot;:null}" fill="url(#color-6)" stroke="none" stroke-width="2.16315" stroke-linecap="round"/><path d="M83.20515,213.84728h144.79485l-36.25,97.30448h-108.54485z" data-paper-data="{&quot;origPos&quot;:null}" fill="#ebf2f7" stroke="none" stroke-width="9.46438" stroke-linecap="butt"/><path d="M82.68896,213.84728l20.13472,-32.43485l21.19449,32.43485z" data-paper-data="{&quot;origPos&quot;:null}" fill="url(#color-7)" stroke="none" stroke-width="2.16315" stroke-linecap="round"/><path d="M181.93607,145.35h42.38889l12.10972,46.58947l-2.29146,5.66666h-71.28217z" data-paper-data="{&quot;origPos&quot;:null}" fill="#ff4040" stroke="none" stroke-width="2.16315" stroke-linecap="round"/><path d="M171.50058,179.37473l29.14242,-22.71348l29.14238,22.71348v29.57527l-6.08383,16.72531h-52.20095z" data-paper-data="{&quot;origPos&quot;:null}" fill="#d6dde2" stroke="none" stroke-width="2.65368" stroke-linecap="round"/><path d="M177.12228,182.9008l23.81732,-17.3377l23.14324,17.3377v35.83123h-46.96055z" data-paper-data="{&quot;origPos&quot;:null}" fill="url(#color-8)" stroke="none" stroke-width="1" stroke-linecap="round"/><path d="M91.29007,306.80753v-93.39238h29.6593v93.39238z" data-paper-data="{&quot;origPos&quot;:null}" fill="url(#color-9)" stroke="none" stroke-width="0" stroke-linecap="butt"/><path d="M172.17906,297.82833v-72.39238h29.6593v72.39238z" data-paper-data="{&quot;origPos&quot;:null}" fill="url(#color-10)" stroke="none" stroke-width="0" stroke-linecap="butt"/><g data-paper-data="{&quot;origPos&quot;:null}" fill="#99ffff" stroke="#84c3c3" stroke-width="2" stroke-linecap="butt"><path d="M94.88513,239.53727h7.19012v7.39741h-7.19012z"/><path d="M104.54687,239.53727h7.19012v7.39741h-7.19012z"/><path d="M104.32218,249.70872h7.19013v7.39742h-7.19013z"/><path d="M94.88513,249.70872h7.19012v7.39742h-7.19012z"/></g><g data-paper-data="{&quot;origPos&quot;:null}" stroke="none" stroke-linecap="butt"><path d="M111.9617,229.14573h12.58274v89.69369h-12.58273z" data-paper-data="{&quot;origPos&quot;:null}" fill="#aa5e35" stroke-width="2.1101"/><path d="M118.25305,213.41516c4.95939,0 9.45323,2.0722 12.70721,5.41999c3.25399,3.34779 5.26812,7.97117 5.26812,13.07354c0,5.10237 -2.01413,9.72576 -5.26812,13.07354c-3.25399,3.34779 -7.74782,5.42001 -12.70721,5.42001c-4.95939,0 -9.45323,-2.07221 -12.70721,-5.41999c-3.25399,-3.34779 -5.26812,-7.97117 -5.26812,-13.07354c0,-5.10237 2.01413,-9.72576 5.26812,-13.07354c3.25399,-3.34779 7.74783,-5.41999 12.70721,-5.41999z" data-paper-data="{&quot;origPos&quot;:null}" fill="#3abc3a" stroke-width="1"/><path d="M118.25305,195.84631c4.09118,0 7.7986,1.70973 10.48322,4.47174c2.68462,2.76201 4.34643,6.5763 4.34643,10.78543c0,4.20913 -1.66181,8.02342 -4.34643,10.78543c-2.68462,2.76201 -6.39203,4.47174 -10.48322,4.47174c-4.09118,0 -7.7986,-1.70972 -10.48321,-4.47174c-2.68461,-2.76201 -4.34644,-6.5763 -4.34644,-10.78543c0,-4.20913 1.66183,-8.02342 4.34644,-10.78543c2.68461,-2.76201 6.39203,-4.47174 10.48321,-4.47174z" data-paper-data="{&quot;origPos&quot;:null}" fill="#3ec73d" stroke-width="1"/><path d="M118.47774,183.82551c2.41768,0 4.60844,1.01022 6.19476,2.64227c1.58632,1.63206 2.56823,3.88595 2.56823,6.37333c0,2.48738 -0.98191,4.74129 -2.56823,6.37334c-1.58632,1.63206 -3.77707,2.64226 -6.19476,2.64226c-2.41768,0 -4.60843,-1.01021 -6.19475,-2.64226c-1.58632,-1.63206 -2.56822,-3.88596 -2.56822,-6.37334c0,-2.48738 0.9819,-4.74128 2.56822,-6.37333c1.58632,-1.63206 3.77706,-2.64227 6.19475,-2.64227z" data-paper-data="{&quot;origPos&quot;:null}" fill="#42d642" stroke-width="1"/></g><g data-paper-data="{&quot;origPos&quot;:null}" fill="#99ffff" stroke="#84c3c3" stroke-width="2" stroke-linecap="butt"><path d="M139.82345,251.09577h7.19013v7.39741h-7.19013z"/><path d="M149.48519,251.09577h7.19013v7.39741h-7.19013z"/><path d="M149.2605,261.26717h7.19013v7.39741h-7.19013z"/><path d="M139.82345,261.26717h7.19013v7.39741h-7.19013z"/></g><g data-paper-data="{&quot;origPos&quot;:null}" fill="#99ffff" stroke="#84c3c3" stroke-width="2" stroke-linecap="butt"><path d="M139.82345,223.81776h7.19013v7.39741h-7.19013z"/><path d="M149.48519,223.81776h7.19013v7.39741h-7.19013z"/><path d="M149.2605,233.98921h7.19013v7.39741h-7.19013z"/><path d="M139.82345,233.98921h7.19013v7.39741h-7.19013z"/></g><path d="M-80.93485,203.52451l39.20973,-13.13578h26.49307h52.98616l25.43334,0.87571l38.15004,11.38436l4.23885,11.38441h-192.86956z" data-paper-data="{&quot;origPos&quot;:null}" fill="url(#color-11)" stroke="none" stroke-width="2.16315" stroke-linecap="round"/><path d="M-106.91171,214.03326h197.93212v94.57789h-197.93212z" data-paper-data="{&quot;origPos&quot;:null}" fill="#ebf2f7" stroke="none" stroke-width="9.46438" stroke-linecap="butt"/><path d="M-107.42792,214.03326l20.13472,-31.52599l21.19449,31.52599z" data-paper-data="{&quot;origPos&quot;:null}" fill="url(#color-12)" stroke="none" stroke-width="2.16315" stroke-linecap="round"/><path d="M-98.82681,304.38865v-90.77542h29.6593v90.77542z" data-paper-data="{&quot;origPos&quot;:null}" fill="url(#color-13)" stroke="none" stroke-width="0" stroke-linecap="butt"/><g data-paper-data="{&quot;origPos&quot;:null}" fill="#99ffff" stroke="#84c3c3" stroke-width="2" stroke-linecap="butt"><path d="M-95.23176,239.0034h7.19014v7.19013h-7.19014z"/><path d="M-85.57002,239.0034h7.19013v7.19013h-7.19013z"/><path d="M-85.7947,248.8898h7.19013v7.19013h-7.19013z"/><path d="M-95.23176,248.8898h7.19014v7.19013h-7.19014z"/></g><g data-paper-data="{&quot;origPos&quot;:null}" stroke="none" stroke-linecap="butt"><path d="M-1.75727,229.54752h12.58273v85.38283h-12.58273z" data-paper-data="{&quot;origPos&quot;:null}" fill="#aa5e35" stroke-width="2.07153"/><path d="M4.53411,213.86206c4.95939,0 9.45323,2.01413 12.70721,5.26812c3.25398,3.25399 5.26812,7.74783 5.26812,12.70721c0,4.95939 -2.01414,9.45323 -5.26812,12.70722c-3.25398,3.25399 -7.74782,5.26812 -12.7072,5.26812c-4.95939,0 -9.45323,-2.01413 -12.70721,-5.26812c-3.25398,-3.25399 -5.26812,-7.74783 -5.26812,-12.70722c0,-4.95939 2.01414,-9.45323 5.26812,-12.70721c3.25398,-3.25399 7.74782,-5.26812 12.70721,-5.26812z" data-paper-data="{&quot;origPos&quot;:null}" fill="#3abc3a" stroke-width="1"/><path d="M4.53411,196.78549c4.09119,0 7.79861,1.66183 10.48322,4.34644c2.68462,2.68462 4.34643,6.39203 4.34643,10.48322c0,4.09118 -1.66181,7.7986 -4.34643,10.48321c-2.68462,2.68462 -6.39203,4.34643 -10.48322,4.34643c-4.09119,0 -7.7986,-1.66182 -10.48321,-4.34643c-2.68462,-2.68462 -4.34644,-6.39203 -4.34644,-10.48321c0,-4.09118 1.66182,-7.7986 4.34644,-10.48322c2.68461,-2.68462 6.39202,-4.34644 10.48321,-4.34644z" data-paper-data="{&quot;origPos&quot;:null}" fill="#3ec73d" stroke-width="1"/><path d="M4.7588,185.10152c2.41768,0 4.60843,0.98191 6.19476,2.56823c1.58632,1.58632 2.56823,3.77706 2.56823,6.19474c0,2.41768 -0.98191,4.60844 -2.56823,6.19476c-1.58632,1.58632 -3.77707,2.56822 -6.19475,2.56822c-2.41767,0 -4.60843,-0.9819 -6.19475,-2.56822c-1.58632,-1.58632 -2.56822,-3.77707 -2.56822,-6.19476c0,-2.41768 0.98191,-4.60842 2.56822,-6.19474c1.58632,-1.58632 3.77707,-2.56823 6.19476,-2.56823z" data-paper-data="{&quot;origPos&quot;:null}" fill="#42d642" stroke-width="1"/></g><g data-paper-data="{&quot;origPos&quot;:null}" fill="#99ffff" stroke="#84c3c3" stroke-width="2" stroke-linecap="butt"><path d="M-50.29342,250.23795h7.19013v7.19014h-7.19013z"/><path d="M-40.63168,250.23795h7.19014v7.19014h-7.19014z"/><path d="M-40.85637,260.12437h7.19013v7.19013h-7.19013z"/><path d="M-50.29342,260.12437h7.19013v7.19013h-7.19013z"/></g><g data-paper-data="{&quot;origPos&quot;:null}" fill="#99ffff" stroke="#84c3c3" stroke-width="2" stroke-linecap="butt"><path d="M43.85238,251.3614h7.19013v7.19013h-7.19013z"/><path d="M53.51413,251.3614h7.19013v7.19013h-7.19013z"/><path d="M53.28943,261.24782h7.19014v7.19013h-7.19014z"/><path d="M43.85238,261.24782h7.19013v7.19013h-7.19013z"/></g><g data-paper-data="{&quot;origPos&quot;:null}" fill="#99ffff" stroke="#84c3c3" stroke-width="2" stroke-linecap="butt"><path d="M-50.29342,223.72435h7.19013v7.19013h-7.19013z"/><path d="M-40.63168,223.72435h7.19014v7.19013h-7.19014z"/><path d="M-40.85637,233.6108h7.19013v7.19013h-7.19013z"/><path d="M-50.29342,233.6108h7.19013v7.19013h-7.19013z"/></g><g data-paper-data="{&quot;origPos&quot;:null}" fill="#99ffff" stroke="#84c3c3" stroke-width="2" stroke-linecap="butt"><path d="M43.85238,224.8478h7.19013v7.19013h-7.19013z"/><path d="M53.51413,224.8478h7.19013v7.19013h-7.19013z"/><path d="M53.28943,234.73425h7.19014v7.19013h-7.19014z"/><path d="M43.85238,234.73425h7.19013v7.19013h-7.19013z"/></g><g data-paper-data="{&quot;origPos&quot;:null}" stroke="none" stroke-linecap="butt"><path d="M56.38528,230.47042h12.58273v85.38282h-12.58273z" data-paper-data="{&quot;origPos&quot;:null}" fill="#aa5e35" stroke-width="2.07153"/><path d="M62.67663,214.78496c4.95939,0 9.45323,2.01413 12.70721,5.26812c3.25398,3.25399 5.26812,7.74782 5.26812,12.70721c0,4.95939 -2.01414,9.45323 -5.26812,12.70722c-3.25398,3.25399 -7.74782,5.26812 -12.70721,5.26812c-4.95939,0 -9.45323,-2.01413 -12.70721,-5.26812c-3.25398,-3.25399 -5.26812,-7.74783 -5.26812,-12.70722c0,-4.95939 2.01414,-9.45323 5.26812,-12.70721c3.25398,-3.25399 7.74782,-5.26812 12.70721,-5.26812z" data-paper-data="{&quot;origPos&quot;:null}" fill="#3abc3a" stroke-width="1"/><path d="M62.67663,197.70839c4.09118,0 7.7986,1.66182 10.48322,4.34643c2.68461,2.68462 4.34643,6.39204 4.34643,10.48322c0,4.09118 -1.66182,7.79859 -4.34643,10.48321c-2.68461,2.68462 -6.39203,4.34644 -10.48322,4.34644c-4.09119,0 -7.79859,-1.66183 -10.48321,-4.34644c-2.68462,-2.68462 -4.34645,-6.39202 -4.34645,-10.48321c0,-4.09118 1.66183,-7.79861 4.34645,-10.48322c2.68462,-2.68462 6.39202,-4.34643 10.48321,-4.34643z" data-paper-data="{&quot;origPos&quot;:null}" fill="#3ec73d" stroke-width="1"/><path d="M62.90134,186.02441c2.41768,0 4.60844,0.98191 6.19476,2.56823c1.58632,1.58632 2.56822,3.77706 2.56822,6.19475c0,2.41768 -0.9819,4.60843 -2.56822,6.19475c-1.58632,1.58632 -3.77707,2.56822 -6.19476,2.56822c-2.41768,0 -4.60843,-0.9819 -6.19476,-2.56822c-1.58632,-1.58632 -2.56822,-3.77707 -2.56822,-6.19475c0,-2.41768 0.98191,-4.60843 2.56822,-6.19475c1.58632,-1.58632 3.77707,-2.56823 6.19476,-2.56823z" data-paper-data="{&quot;origPos&quot;:null}" fill="#42d642" stroke-width="1"/></g><path d="M180.66728,63.34166l19.28403,-36.53818l20.29908,36.53819z" data-paper-data="{&quot;origPos&quot;:null}" fill="url(#color-14)" stroke="none" stroke-width="1.06271" stroke-linecap="round"/><path d="M186.14495,231.22545h28.71117v13.42341h-28.71117z" data-paper-data="{&quot;origPos&quot;:null}" fill="#c95206" stroke="none" stroke-width="1" stroke-linecap="butt"/><path d="M176.66971,243.05387h40.45534l-16.75,45.57428h-23.70534z" data-paper-data="{&quot;origPos&quot;:null}" fill="#c95206" stroke="none" stroke-width="1" stroke-linecap="butt"/><path d="M176.66971,243.14085l9.74107,-12.00239v12.00239z" data-paper-data="{&quot;origPos&quot;:null}" fill="#c95206" stroke="none" stroke-width="1" stroke-linecap="round"/><path d="M214.59028,231.31242l5.04409,5.50997l-2.67237,6.31846h-2.37172z" data-paper-data="{&quot;origPos&quot;:null}" fill="#c95206" stroke="none" stroke-width="1" stroke-linecap="round"/><g data-paper-data="{&quot;origPos&quot;:null}" fill="#dd7821" stroke="none" stroke-width="1" stroke-linecap="butt"><path d="M186.50643,235.53933c0.41991,0 0.80051,0.17048 1.07604,0.44601c0.27553,0.27553 0.446,0.65613 0.446,1.07604c0,0.41991 -0.17047,0.80051 -0.446,1.07604c-0.27553,0.27553 -0.65614,0.446 -1.07604,0.446c-0.41991,0 -0.8005,-0.17047 -1.07603,-0.446c-0.27553,-0.27553 -0.446,-0.65613 -0.446,-1.07604c0,-0.41991 0.17047,-0.80052 0.446,-1.07604c0.27553,-0.27553 0.65612,-0.44601 1.07603,-0.44601z" data-paper-data="{&quot;origPos&quot;:null}"/><path d="M195.69673,232.35611c0.41991,0 0.8005,0.17047 1.07603,0.446c0.27553,0.27553 0.44601,0.65613 0.44601,1.07604c0,0.41991 -0.17048,0.80052 -0.44601,1.07604c-0.27553,0.27553 -0.65613,0.446 -1.07603,0.446c-0.41991,0 -0.8005,-0.17047 -1.07603,-0.446c-0.27553,-0.27553 -0.44601,-0.65613 -0.44601,-1.07604c0,-0.41991 0.17048,-0.80051 0.44601,-1.07604c0.27553,-0.27553 0.65613,-0.446 1.07603,-0.446z" data-paper-data="{&quot;origPos&quot;:null}"/><g data-paper-data="{&quot;origPos&quot;:null}"><path d="M195.77786,243.42676c0.41991,0 0.80051,0.17047 1.07604,0.446c0.27553,0.27553 0.446,0.65613 0.446,1.07603c0,0.41991 -0.17047,0.80051 -0.446,1.07604c-0.27553,0.27553 -0.65613,0.446 -1.07604,0.446c-0.41991,0 -0.8005,-0.17047 -1.07603,-0.446c-0.27553,-0.27553 -0.44601,-0.65614 -0.44601,-1.07604c0,-0.41991 0.17048,-0.80051 0.44601,-1.07603c0.27553,-0.27553 0.65613,-0.446 1.07603,-0.446z" data-paper-data="{&quot;origPos&quot;:null}"/><path d="M195.75458,254.01793c0.41991,0 0.80051,0.17048 1.07604,0.44601c0.27553,0.27553 0.446,0.65612 0.446,1.07603c0,0.41991 -0.17047,0.80052 -0.446,1.07605c-0.27553,0.27553 -0.65613,0.446 -1.07604,0.446c-0.41991,0 -0.8005,-0.17047 -1.07603,-0.446c-0.27553,-0.27553 -0.44601,-0.65614 -0.44601,-1.07605c0,-0.41991 0.17048,-0.80052 0.44601,-1.07603c0.27553,-0.27553 0.65613,-0.44601 1.07603,-0.44601z" data-paper-data="{&quot;origPos&quot;:null}"/><path d="M195.59631,264.62333c0.41991,0 0.80052,0.17048 1.07605,0.44601c0.27553,0.27553 0.446,0.65612 0.446,1.07603c0,0.41991 -0.17047,0.80051 -0.446,1.07603c-0.27553,0.27553 -0.65614,0.44601 -1.07605,0.44601c-0.41991,0 -0.80051,-0.17048 -1.07604,-0.44601c-0.27553,-0.27553 -0.446,-0.65612 -0.446,-1.07603c0,-0.41991 0.17047,-0.80052 0.446,-1.07603c0.27553,-0.27553 0.65613,-0.44601 1.07604,-0.44601z" data-paper-data="{&quot;origPos&quot;:null}"/><path d="M195.60689,274.76718c0.41991,0 0.80051,0.17047 1.07604,0.446c0.27553,0.27553 0.446,0.65613 0.446,1.07604c0,0.41991 -0.17047,0.80052 -0.446,1.07603c-0.27553,0.27553 -0.65614,0.44601 -1.07604,0.44601c-0.41991,0 -0.8005,-0.17048 -1.07603,-0.44601c-0.27553,-0.27553 -0.446,-0.65612 -0.446,-1.07603c0,-0.41991 0.17047,-0.80051 0.446,-1.07604c0.27553,-0.27553 0.65612,-0.446 1.07603,-0.446z" data-paper-data="{&quot;origPos&quot;:null}"/><path d="M195.57701,284.48817c0.41991,0 0.80051,0.17047 1.07604,0.446c0.27553,0.27553 0.446,0.65614 0.446,1.07605c0,0.41991 -0.17047,0.80051 -0.446,1.07604c-0.27553,0.27553 -0.65613,0.446 -1.07604,0.446c-0.41991,0 -0.80051,-0.17047 -1.07604,-0.446c-0.27553,-0.27553 -0.446,-0.65613 -0.446,-1.07604c0,-0.41991 0.17047,-0.80052 0.446,-1.07605c0.27553,-0.27553 0.65613,-0.446 1.07604,-0.446z" data-paper-data="{&quot;origPos&quot;:null}"/></g><g data-paper-data="{&quot;origPos&quot;:null}"><path d="M180.19339,243.35799c0.41991,0 0.8005,0.17047 1.07603,0.446c0.27553,0.27553 0.446,0.65613 0.446,1.07604c0,0.41991 -0.17047,0.80052 -0.446,1.07604c-0.27553,0.27553 -0.65612,0.446 -1.07603,0.446c-0.41991,0 -0.80051,-0.17047 -1.07604,-0.446c-0.27553,-0.27553 -0.446,-0.65613 -0.446,-1.07604c0,-0.41991 0.17047,-0.80051 0.446,-1.07604c0.27553,-0.27553 0.65614,-0.446 1.07604,-0.446z" data-paper-data="{&quot;origPos&quot;:null}"/><path d="M180.17009,253.94917c0.41991,0 0.80051,0.17047 1.07604,0.446c0.27553,0.27553 0.446,0.65613 0.446,1.07604c0,0.41991 -0.17047,0.80052 -0.446,1.07605c-0.27553,0.27553 -0.65613,0.44599 -1.07604,0.44599c-0.41991,0 -0.80051,-0.17046 -1.07604,-0.44599c-0.27553,-0.27553 -0.446,-0.65614 -0.446,-1.07605c0,-0.41991 0.17047,-0.80051 0.446,-1.07604c0.27553,-0.27553 0.65614,-0.446 1.07604,-0.446z" data-paper-data="{&quot;origPos&quot;:null}"/><path d="M180.01182,264.55458c0.41991,0 0.8005,0.17047 1.07603,0.446c0.27553,0.27553 0.44601,0.65613 0.44601,1.07604c0,0.41991 -0.17048,0.80052 -0.44601,1.07605c-0.27553,0.27553 -0.65613,0.446 -1.07603,0.446c-0.41991,0 -0.8005,-0.17047 -1.07603,-0.446c-0.27553,-0.27553 -0.44601,-0.65614 -0.44601,-1.07605c0,-0.41991 0.17048,-0.80051 0.44601,-1.07604c0.27553,-0.27553 0.65612,-0.446 1.07603,-0.446z" data-paper-data="{&quot;origPos&quot;:null}"/><path d="M180.0224,274.69841c0.41991,0 0.80051,0.17047 1.07604,0.446c0.27553,0.27553 0.446,0.65613 0.446,1.07604c0,0.41991 -0.17047,0.80052 -0.446,1.07603c-0.27553,0.27553 -0.65613,0.446 -1.07604,0.446c-0.41991,0 -0.80051,-0.17047 -1.07604,-0.446c-0.27553,-0.27553 -0.446,-0.65612 -0.446,-1.07603c0,-0.41991 0.17047,-0.80052 0.446,-1.07604c0.27553,-0.27553 0.65613,-0.446 1.07604,-0.446z" data-paper-data="{&quot;origPos&quot;:null}"/><path d="M179.99252,284.41942c0.41991,0 0.80051,0.17048 1.07604,0.44601c0.27553,0.27553 0.446,0.65612 0.446,1.07603c0,0.41991 -0.17047,0.80051 -0.446,1.07603c-0.27553,0.27553 -0.65614,0.44601 -1.07604,0.44601c-0.41991,0 -0.80051,-0.17048 -1.07604,-0.44601c-0.27553,-0.27553 -0.446,-0.65612 -0.446,-1.07603c0,-0.41991 0.17047,-0.80052 0.446,-1.07603c0.27553,-0.27553 0.65614,-0.44601 1.07604,-0.44601z" data-paper-data="{&quot;origPos&quot;:null}"/></g><path d="M188.07197,284.41861c0.41991,0 0.8005,0.17048 1.07603,0.44601c0.27553,0.27553 0.44601,0.65612 0.44601,1.07603c0,0.41991 -0.17048,0.80051 -0.44601,1.07604c-0.27553,0.27553 -0.65613,0.446 -1.07603,0.446c-0.41991,0 -0.80051,-0.17047 -1.07604,-0.446c-0.27553,-0.27553 -0.446,-0.65613 -0.446,-1.07604c0,-0.41991 0.17047,-0.80052 0.446,-1.07603c0.27553,-0.27553 0.65614,-0.44601 1.07604,-0.44601z" data-paper-data="{&quot;origPos&quot;:null}"/></g><path d="M216.43211,235.98534c0.27553,0.27553 0.446,0.65613 0.446,1.07604c0,0.41991 -0.17047,0.80051 -0.446,1.07604c-0.27553,0.27553 -0.65613,0.446 -1.07604,0.446c-0.41991,0 -0.80051,-0.17047 -1.07604,-0.446c-0.27553,-0.27553 -0.446,-0.65613 -0.446,-1.07604c0,-0.41991 0.17047,-0.80052 0.446,-1.07604c0.27553,-0.27553 0.65613,-0.44601 1.07604,-0.44601c0.41991,0 0.80051,0.17048 1.07604,0.44601z" data-paper-data="{&quot;origPos&quot;:null}" fill="#dd7821" stroke="none" stroke-width="1" stroke-linecap="butt"/><path d="M207.2418,232.8021c0.27553,0.27553 0.44601,0.65614 0.44601,1.07604c0,0.41991 -0.17048,0.80051 -0.44601,1.07603c-0.27553,0.27553 -0.65613,0.446 -1.07604,0.446c-0.41991,0 -0.8005,-0.17047 -1.07603,-0.446c-0.27553,-0.27553 -0.44601,-0.65612 -0.44601,-1.07603c0,-0.41991 0.17048,-0.80051 0.44601,-1.07604c0.27553,-0.27553 0.65613,-0.446 1.07603,-0.446c0.41991,0 0.80051,0.17047 1.07604,0.446z" data-paper-data="{&quot;origPos&quot;:null}" fill="#dd7821" stroke="none" stroke-width="1" stroke-linecap="butt"/><g data-paper-data="{&quot;origPos&quot;:null}" fill="#dd7821" stroke="none" stroke-width="1" stroke-linecap="butt"><path d="M207.16071,243.87277c0.27553,0.27553 0.44601,0.65613 0.44601,1.07604c0,0.41991 -0.17048,0.80051 -0.44601,1.07604c-0.27553,0.27553 -0.65613,0.446 -1.07604,0.446c-0.41991,0 -0.8005,-0.17047 -1.07603,-0.446c-0.27553,-0.27553 -0.446,-0.65614 -0.446,-1.07604c0,-0.41991 0.17047,-0.80052 0.446,-1.07604c0.27553,-0.27553 0.65613,-0.446 1.07603,-0.446c0.41991,0 0.80051,0.17047 1.07604,0.446z" data-paper-data="{&quot;origPos&quot;:null}"/><path d="M207.18395,254.46392c0.27553,0.27553 0.44601,0.65612 0.44601,1.07603c0,0.41991 -0.17048,0.80052 -0.44601,1.07605c-0.27553,0.27553 -0.65612,0.446 -1.07603,0.446c-0.41991,0 -0.80051,-0.17047 -1.07604,-0.446c-0.27553,-0.27553 -0.446,-0.65614 -0.446,-1.07605c0,-0.41991 0.17047,-0.80051 0.446,-1.07603c0.27553,-0.27553 0.65614,-0.44601 1.07604,-0.44601c0.41991,0 0.8005,0.17048 1.07603,0.44601z" data-paper-data="{&quot;origPos&quot;:null}"/><path d="M207.34224,265.06934c0.27553,0.27553 0.446,0.65612 0.446,1.07603c0,0.41991 -0.17047,0.80051 -0.446,1.07603c-0.27553,0.27553 -0.65613,0.44601 -1.07603,0.44601c-0.41991,0 -0.80051,-0.17048 -1.07604,-0.44601c-0.27553,-0.27553 -0.44601,-0.65612 -0.44601,-1.07603c0,-0.41991 0.17048,-0.80052 0.44601,-1.07603c0.27553,-0.27553 0.65613,-0.44601 1.07604,-0.44601c0.41991,0 0.8005,0.17048 1.07603,0.44601z" data-paper-data="{&quot;origPos&quot;:null}"/></g><path d="M199.63079,231.24921h2.87014v50.90272l-2.87014,7.5z" data-paper-data="{&quot;origPos&quot;:null}" fill="#b03405" stroke="none" stroke-width="1.14943" stroke-linecap="round"/><path d="M190.75947,264.36244c0,-2.16154 1.75228,-3.91381 3.91381,-3.91381c2.16154,0 3.91383,1.75228 3.91383,3.91381c0,2.16154 -1.75228,3.91382 -3.91383,3.91382c-2.16154,0 -3.91381,-1.75228 -3.91381,-3.91382z" data-paper-data="{&quot;origPos&quot;:null}" fill="#ffd400" stroke="none" stroke-width="0" stroke-linecap="butt"/><path d="M203.63158,264.36244c0,-2.16154 1.75227,-3.91381 3.91381,-3.91381c1.25244,0 2.11748,0.33829 2.83387,1.25361c0.08141,0.10402 -2.41136,6.57403 -2.58387,6.57403c-2.16154,0 -4.16381,-1.75228 -4.16381,-3.91382z" data-paper-data="{&quot;origPos&quot;:null}" fill="#ffd400" stroke="none" stroke-width="0" stroke-linecap="butt"/><path d="M-129.5862,300.7971h326.03753l-7.66667,20.72641h-318.37086z" data-paper-data="{&quot;origPos&quot;:null}" fill="url(#color-15)" stroke="#763e13" stroke-width="0" stroke-linecap="butt"/><path d="M194.44924,306.09978c-3.88268,-1.11119 -8.60938,-1.7749 -14.86479,-1.63479c-26.35795,1.19003 -30.06431,15.44051 -56.29674,15.1034c-27.98132,-0.36237 -35.64045,-18.03171 -63.67992,-18.48837c-26.57852,-1.37061 -31.97655,13.70453 -58.75257,14.17352c-22.50208,0.38949 -32.46753,-6.14031 -51.99511,-13.55723c-3.24849,-1.23519 -38.96077,14.46621 -59.36806,12.46776c-18.56584,-1.81813 -22.23759,-21.30771 -20.34517,-23.07216c0.9354,-0.87214 63.0493,-5.18477 66.79267,-5.41885c78.56626,-4.91359 158.08863,0.73029 237.18464,1.23256c0,0 10.69464,-0.17219 27.89092,-0.33812" data-paper-data="{&quot;origPos&quot;:null}" fill="url(#color-16)" stroke="#006622" stroke-width="2" stroke-linecap="round"/></g><text transform="translate(-43.81378,95.33336) scale(3.60417,3.60417)" font-size="16.9333" xml:space="preserve" fill="#ffffff" fill-rule="nonzero" stroke="#801818" stroke-width="3" stroke-linecap="butt" stroke-linejoin="miter" stroke-miterlimit="10" stroke-dasharray="" stroke-dashoffset="0" font-family="&quot;New Super Mario Font U&quot;" font-weight="400" text-anchor="start" style="mix-blend-mode: normal"><tspan x="0" dy="0">New Game</tspan></text><text transform="translate(-43.81379,95.33335) scale(3.60417,3.60417)" font-size="16.9333" xml:space="preserve" fill="#ffffff" fill-rule="nonzero" stroke="none" stroke-width="1" stroke-linecap="butt" stroke-linejoin="miter" stroke-miterlimit="10" stroke-dasharray="" stroke-dashoffset="0" font-family="&quot;New Super Mario Font U&quot;" font-weight="400" text-anchor="start" style="mix-blend-mode: normal"><tspan x="0" dy="0">New Game</tspan></text></g></g></svg>