<svg version="1.1" xmlns="http://www.w3.org/2000/svg" xmlns:xlink="http://www.w3.org/1999/xlink" width="437" height="90.79587" viewBox="0,0,437,90.79587"><defs><linearGradient x1="240" y1="135.60206" x2="240" y2="224.39795" gradientUnits="userSpaceOnUse" id="color-1"><stop offset="0" stop-color="#ffffff"/><stop offset="1" stop-color="#d8d8d8"/></linearGradient><linearGradient x1="240" y1="135.60208" x2="240" y2="224.39795" gradientUnits="userSpaceOnUse" id="color-2"><stop offset="0" stop-color="#343434"/><stop offset="1" stop-color="#090909"/></linearGradient><radialGradient cx="443.8065" cy="206.54466" r="17.9081" gradientUnits="userSpaceOnUse" id="color-3"><stop offset="0" stop-color="#ffffff"/><stop offset="1" stop-color="#e5e5e5"/></radialGradient><linearGradient x1="91.88773" y1="136.78397" x2="91.88773" y2="145.78397" gradientUnits="userSpaceOnUse" id="color-4"><stop offset="0" stop-color="#fefefe"/><stop offset="1" stop-color="#fafafa"/></linearGradient><linearGradient x1="97.63773" y1="162.78397" x2="97.63773" y2="169.53397" gradientUnits="userSpaceOnUse" id="color-5"><stop offset="0" stop-color="#f4f4f4"/><stop offset="1" stop-color="#f0f0f0"/></linearGradient></defs><g transform="translate(-21.5,-134.60208)"><g data-paper-data="{&quot;isPaintingLayer&quot;:true}" fill-rule="nonzero" stroke-linejoin="miter" stroke-miterlimit="10" stroke-dasharray="" stroke-dashoffset="0" style="mix-blend-mode: normal"><path d="M22.5,224.39795v-88.79587h435v88.79587z" data-paper-data="{&quot;origPos&quot;:null}" fill="url(#color-1)" stroke="url(#color-2)" stroke-width="2" stroke-linecap="butt"/><g data-paper-data="{&quot;origPos&quot;:null}"><path d="M444.3058,202.09868c2.5136,0 4.7909,1.0212 6.4406,2.6702c1.6489,1.6496 2.6702,3.9269 2.6702,6.4405c0,2.5136 -1.0213,4.791 -2.6702,6.4406c-1.6497,1.649 -3.927,2.6702 -6.4406,2.6702c-2.5136,0 -4.7909,-1.0212 -6.4406,-2.6702c-1.6489,-1.6496 -2.6701,-3.927 -2.6701,-6.4406c0,-2.5136 1.0212,-4.7909 2.6701,-6.4405c1.6497,-1.649 3.927,-2.6702 6.4406,-2.6702z" fill="url(#color-3)" stroke="#000000" stroke-width="2.0785" stroke-linecap="butt"/><path d="M441.2734,206.54886l5.6119,0.4503l1.7321,3.187l-3.6374,2.9446l3.3603,-0.5197l0.7967,3.4642l-7.4479,-0.0693l-1.9053,-2.4249l4.6766,-3.3256l-4.5727,-0.3464z" fill="#000000" stroke="none" stroke-width="0.69283" stroke-linecap="round"/></g><g data-paper-data="{&quot;origPos&quot;:null}" stroke="none" stroke-width="1" stroke-linecap="butt"><path d="M44.722,169.93808l0.055,0.118c-0.158,2.321 -0.277,3.482 -0.356,3.482h-0.055c-2.509,-0.201 -3.907,-0.319 -4.192,-0.356v8.085c0,0.146 -0.572,0.243 -1.714,0.292c0,0.042 -0.647,0.121 -1.941,0.237l-0.064,-0.119c0.279,-4.824 0.459,-7.674 0.538,-8.549c-0.96,0.152 -2.376,0.346 -4.248,0.583c-0.553,-2.066 -0.829,-3.126 -0.829,-3.181c0,-0.079 4.269,-0.276 12.806,-0.592z" data-paper-data="{&quot;origPos&quot;:null}" fill="#000000"/><path d="M49.78,169.93808c0.037,0.054 0.207,1.719 0.511,4.994c2.345,-0.717 3.594,-1.075 3.746,-1.075l2.324,1.586c-0.377,3.463 -0.623,5.487 -0.738,6.07l-3.227,0.11c0,-0.037 -0.021,-0.055 -0.063,-0.055l0.063,-0.228c0,-0.492 0.073,-1.987 0.219,-4.484c-0.887,-0.037 -1.546,-0.055 -1.978,-0.055h-0.228c0.262,2.777 0.392,4.29 0.392,4.539l-3.062,0.456c-0.116,-0.389 -0.796,-4.02 -2.042,-10.892c0,-0.195 0.474,-0.347 1.422,-0.456c1.197,-0.34 2.084,-0.51 2.661,-0.51z" data-paper-data="{&quot;origPos&quot;:null}" fill="#000000"/><path d="M62.386,172.69908c2.753,1.416 4.278,2.243 4.575,2.48c-0.395,1.847 -0.628,2.798 -0.701,2.852h-5.761v0.101l1.613,1.996l2.534,-1.294c0.249,0.431 0.608,1.184 1.076,2.26c-0.219,0.073 -1.814,0.307 -4.785,0.702c-2.461,-1.623 -3.701,-2.467 -3.719,-2.534c0.395,-3.154 0.629,-4.731 0.702,-4.731c2.57,-1.093 4.059,-1.704 4.466,-1.832zM61.793,174.90506c-0.048,0.122 -0.37,0.605 -0.966,1.449c0,0.256 0.359,0.383 1.076,0.383c0,0.037 0.519,0.125 1.558,0.264c0.286,-0.394 0.429,-0.625 0.429,-0.692c-0.091,-0.541 -0.289,-0.811 -0.593,-0.811z" data-paper-data="{&quot;origPos&quot;:null}" fill="#000000"/><path d="M74.335,172.69006c1.203,0.675 1.942,1.112 2.215,1.313c-0.984,2.048 -1.513,3.09 -1.586,3.126h-0.064l-1.303,-1.139l-1.541,1.877l0.174,3.418c-0.079,0.073 -1.085,0.243 -3.017,0.511c-0.073,-0.523 -0.547,-3.084 -1.422,-7.684c0,-0.073 1.27,-0.261 3.81,-0.565c0.042,0.049 0.158,0.617 0.346,1.704c1.519,-1.707 2.315,-2.561 2.388,-2.561z" data-paper-data="{&quot;origPos&quot;:null}" fill="#000000"/><path d="M82.438,172.69908c2.753,1.416 4.278,2.243 4.576,2.48c-0.395,1.847 -0.629,2.798 -0.702,2.852h-5.761v0.101l1.614,1.996l2.533,-1.294c0.25,0.431 0.608,1.184 1.076,2.26c-0.219,0.073 -1.814,0.307 -4.785,0.702c-2.461,-1.623 -3.701,-2.467 -3.719,-2.534c0.395,-3.154 0.629,-4.731 0.702,-4.731c2.57,-1.093 4.059,-1.704 4.466,-1.832zM81.846,174.90506c-0.049,0.122 -0.371,0.605 -0.967,1.449c0,0.256 0.359,0.383 1.076,0.383c0,0.037 0.519,0.125 1.559,0.264c0.285,-0.394 0.428,-0.625 0.428,-0.692c-0.091,-0.541 -0.289,-0.811 -0.593,-0.811z" data-paper-data="{&quot;origPos&quot;:null}" fill="#000000"/><path d="M93.859,172.69006c3.609,0.499 5.414,0.805 5.414,0.921c1.422,1.221 2.132,1.874 2.132,1.96c-0.577,1.804 -0.905,2.901 -0.984,3.29c0.577,1.282 0.905,2.048 0.984,2.297c0,0.073 -0.941,0.267 -2.825,0.583c-0.024,-0.103 -0.198,-0.334 -0.52,-0.693c-2.6,0.499 -4.001,0.748 -4.201,0.748l-1.386,-3.746l3.054,-1.614c0.492,0.079 1.26,0.119 2.306,0.119c0,-0.134 0.018,-0.538 0.054,-1.212c-0.176,0 -1.75,0.115 -4.721,0.346l-0.055,-0.118c0.413,-1.921 0.662,-2.881 0.748,-2.881zM95.754,178.05008c0,0.067 0.195,0.777 0.584,2.132h0.054c0.766,-0.498 1.149,-0.826 1.149,-0.984l0.118,-0.975c-0.145,0 -0.78,-0.058 -1.905,-0.173z" data-paper-data="{&quot;origPos&quot;:null}" fill="#000000"/><path d="M108.825,172.69006c1.203,0.675 1.941,1.112 2.215,1.313c-0.985,2.048 -1.513,3.09 -1.586,3.126h-0.064l-1.304,-1.139l-1.54,1.877l0.173,3.418c-0.079,0.073 -1.084,0.243 -3.017,0.511c-0.073,-0.523 -0.547,-3.084 -1.422,-7.684c0,-0.073 1.27,-0.261 3.81,-0.565c0.043,0.049 0.158,0.617 0.347,1.704c1.519,-1.707 2.315,-2.561 2.388,-2.561z" data-paper-data="{&quot;origPos&quot;:null}" fill="#000000"/><path d="M116.928,172.69908c2.752,1.416 4.277,2.243 4.575,2.48c-0.395,1.847 -0.629,2.798 -0.702,2.852h-5.76v0.101l1.613,1.996l2.534,-1.294c0.249,0.431 0.608,1.184 1.076,2.26c-0.219,0.073 -1.814,0.307 -4.786,0.702c-2.461,-1.623 -3.7,-2.467 -3.718,-2.534c0.395,-3.154 0.629,-4.731 0.701,-4.731c2.571,-1.093 4.059,-1.704 4.467,-1.832zM116.335,174.90506c-0.048,0.122 -0.371,0.605 -0.966,1.449c0,0.256 0.358,0.383 1.076,0.383c0,0.037 0.519,0.125 1.558,0.264c0.286,-0.394 0.428,-0.625 0.428,-0.692c-0.091,-0.541 -0.288,-0.811 -0.592,-0.811z" data-paper-data="{&quot;origPos&quot;:null}" fill="#000000"/><path d="M134.318,172.69006c1.75,1.118 2.716,1.762 2.899,1.933c-0.632,1.403 -0.994,2.105 -1.085,2.105l-3.318,-1.923h-0.118c0,0.061 -0.143,0.401 -0.429,1.021c3.057,1.646 4.585,2.491 4.585,2.534c-0.857,1.98 -1.34,3.026 -1.449,3.135l-5.186,0.301c-2.018,-1.337 -3.102,-2.042 -3.254,-2.115v-0.055c0,-0.151 0.301,-0.835 0.902,-2.05l4.047,2.105l0.301,-1.203c-2.504,-1.124 -3.992,-1.826 -4.466,-2.105v-0.128c0,-0.231 0.483,-1.255 1.449,-3.072z" data-paper-data="{&quot;origPos&quot;:null}" fill="#000000"/><path d="M141.792,172.69908c2.309,0.62 3.534,0.997 3.673,1.131c1.27,1.798 1.984,2.834 2.142,3.108c-0.82,2.6 -1.291,3.901 -1.412,3.901c-2.735,0.638 -4.166,0.957 -4.293,0.957c-2.261,-1.319 -3.464,-2.054 -3.61,-2.206c-0.079,-2.455 -0.118,-3.81 -0.118,-4.065c-0.037,-0.073 -0.055,-0.128 -0.055,-0.164c2.333,-1.774 3.539,-2.662 3.618,-2.662zM141.564,176.03506c-0.036,0.243 -0.091,1.128 -0.164,2.653l2.033,0.455c0.486,-1.519 0.729,-2.33 0.729,-2.433c-1.616,-0.486 -2.482,-0.729 -2.598,-0.729z" data-paper-data="{&quot;origPos&quot;:null}" fill="#000000"/><path d="M163.193,172.69006c1.483,0.614 2.762,1.191 3.837,1.732c-0.279,3.616 -0.458,5.593 -0.537,5.934c-1.787,0.443 -2.786,0.665 -2.999,0.665c0,-0.79 -0.061,-2.348 -0.182,-4.676c-0.675,0.067 -1.012,0.125 -1.012,0.173c0,0.231 0.039,1.55 0.118,3.956c0.037,0 0.055,0.021 0.055,0.064c0,0.073 -0.939,0.273 -2.816,0.602c-0.079,-0.098 -0.319,-1.577 -0.72,-4.439c-0.76,0.194 -1.14,0.334 -1.14,0.419l0.365,3.719c-0.073,0.079 -1.073,0.398 -2.999,0.957c-1.118,-3.956 -1.817,-6.611 -2.096,-7.966c2.108,-0.523 3.287,-0.784 3.536,-0.784c0.28,1.106 0.42,1.744 0.42,1.914h0.063c1.027,-0.948 1.744,-1.586 2.151,-1.914h0.064l1.914,1.376h0.064c1.197,-1.154 1.835,-1.732 1.914,-1.732z" data-paper-data="{&quot;origPos&quot;:null}" fill="#000000"/><path d="M169.327,172.69006c3.61,0.499 5.414,0.805 5.414,0.921c1.422,1.221 2.133,1.874 2.133,1.96c-0.577,1.804 -0.905,2.901 -0.984,3.29c0.577,1.282 0.905,2.048 0.984,2.297c0,0.073 -0.942,0.267 -2.825,0.583c-0.025,-0.103 -0.198,-0.334 -0.52,-0.693c-2.601,0.499 -4.001,0.748 -4.202,0.748l-1.385,-3.746l3.053,-1.614c0.492,0.079 1.261,0.119 2.306,0.119c0,-0.134 0.019,-0.538 0.055,-1.212c-0.176,0 -1.75,0.115 -4.721,0.346l-0.055,-0.118c0.413,-1.921 0.662,-2.881 0.747,-2.881zM171.223,178.05008c0,0.067 0.195,0.777 0.583,2.132h0.055c0.766,-0.498 1.149,-0.826 1.149,-0.984l0.118,-0.975c-0.146,0 -0.781,-0.058 -1.905,-0.173z" data-paper-data="{&quot;origPos&quot;:null}" fill="#000000"/><path d="M185.843,172.69006l3.035,2.088c-0.213,3.463 -0.361,5.487 -0.447,6.07c-0.352,0.042 -1.424,0.106 -3.217,0.191l-0.064,-0.127l-0.319,-4.868l-0.127,-0.063c-1.161,0.249 -1.96,0.437 -2.398,0.565c0.122,2.072 0.183,3.57 0.183,4.493c-1.811,0.505 -2.801,0.757 -2.972,0.757c-1.178,-5.189 -1.768,-7.93 -1.768,-8.222c2.564,-0.334 3.956,-0.501 4.175,-0.501v0.064c0.042,0.03 0.106,0.662 0.191,1.896c2.352,-1.562 3.594,-2.343 3.728,-2.343z" data-paper-data="{&quot;origPos&quot;:null}" fill="#000000"/><path d="M193.973,172.70906c0.085,0.012 0.128,0.054 0.128,0.127l-0.948,5.25c1.811,-0.213 2.716,-0.383 2.716,-0.51c0.34,-2.103 0.574,-3.282 0.702,-3.537c2.242,0.462 3.485,0.736 3.728,0.821c-1.307,4.49 -2.024,6.829 -2.151,7.018c-2.285,1.604 -3.57,2.491 -3.856,2.661c-0.085,0 -1.54,-0.358 -4.366,-1.075v-0.064c0.748,-1.647 1.213,-2.47 1.395,-2.47l2.78,1.394l1.33,-2.278c-1.197,0.298 -1.892,0.446 -2.087,0.446l-3.545,-1.841c0.431,-3.962 0.705,-5.942 0.82,-5.942z" data-paper-data="{&quot;origPos&quot;:null}" fill="#000000"/><path d="M209.404,172.69908c2.741,0.517 4.175,0.812 4.302,0.885v0.109c-0.589,1.665 -0.884,2.528 -0.884,2.588h-0.055c-0.152,0 -0.887,-0.237 -2.205,-0.71c-0.736,1.233 -1.103,1.892 -1.103,1.977l1.823,1.769c1.409,-1.325 2.126,-1.987 2.151,-1.987c1.1,1.44 1.65,2.248 1.65,2.424c-0.602,0.346 -1.65,1.027 -3.145,2.042c-2.892,-0.626 -4.454,-0.975 -4.685,-1.048l-1.431,-4.631z" data-paper-data="{&quot;origPos&quot;:null}" fill="#2b70c2"/><path d="M219.667,172.69908c2.309,0.62 3.534,0.997 3.673,1.131c1.27,1.798 1.984,2.834 2.142,3.108c-0.82,2.6 -1.291,3.901 -1.412,3.901c-2.735,0.638 -4.166,0.957 -4.293,0.957c-2.261,-1.319 -3.464,-2.054 -3.61,-2.206c-0.079,-2.455 -0.118,-3.81 -0.118,-4.065c-0.037,-0.073 -0.055,-0.128 -0.055,-0.164c2.333,-1.774 3.539,-2.662 3.618,-2.662zM219.439,176.03506c-0.036,0.243 -0.091,1.128 -0.164,2.653l2.033,0.455c0.486,-1.519 0.729,-2.33 0.729,-2.433c-1.616,-0.486 -2.482,-0.729 -2.598,-0.729z" data-paper-data="{&quot;origPos&quot;:null}" fill="#2b70c2"/><path d="M227.57,169.03506l3.582,0.565c-0.45,1.72 -0.745,2.58 -0.885,2.58c-1.883,-0.128 -2.825,-0.252 -2.825,-0.374v-2.643c0.018,-0.085 0.061,-0.128 0.128,-0.128zM226.567,173.37406h0.055c2.77,0.504 4.156,0.799 4.156,0.884c-0.796,4.509 -1.279,7.021 -1.449,7.538h-2.89c-0.085,0 -0.127,-0.043 -0.127,-0.128z" data-paper-data="{&quot;origPos&quot;:null}" fill="#2b70c2"/><path d="M239.546,172.69006l3.035,2.088c-0.212,3.463 -0.361,5.487 -0.446,6.07c-0.353,0.042 -1.425,0.106 -3.218,0.191l-0.064,-0.127l-0.319,-4.868l-0.127,-0.063c-1.161,0.249 -1.96,0.437 -2.397,0.565c0.121,2.072 0.182,3.57 0.182,4.493c-1.811,0.505 -2.801,0.757 -2.971,0.757c-1.179,-5.189 -1.769,-7.93 -1.769,-8.222c2.565,-0.334 3.956,-0.501 4.175,-0.501v0.064c0.042,0.03 0.106,0.662 0.191,1.896c2.352,-1.562 3.594,-2.343 3.728,-2.343z" data-paper-data="{&quot;origPos&quot;:null}" fill="#2b70c2"/><path d="M250.839,172.69006c1.75,1.118 2.716,1.762 2.898,1.933c-0.631,1.403 -0.993,2.105 -1.084,2.105l-3.318,-1.923h-0.118c0,0.061 -0.143,0.401 -0.429,1.021c3.057,1.646 4.585,2.491 4.585,2.534c-0.857,1.98 -1.34,3.026 -1.449,3.135l-5.187,0.301c-2.017,-1.337 -3.102,-2.042 -3.253,-2.115v-0.055c0,-0.151 0.3,-0.835 0.902,-2.05l4.047,2.105l0.301,-1.203c-2.504,-1.124 -3.993,-1.826 -4.467,-2.105v-0.128c0,-0.231 0.483,-1.255 1.45,-3.072z" data-paper-data="{&quot;origPos&quot;:null}" fill="#2b70c2"/><path d="M258.65,170.27508l0.037,0.073c-0.608,5.365 -0.948,8.185 -1.021,8.458c-1.288,-0.121 -2.103,-0.206 -2.443,-0.255v-0.036l-0.583,-7.62c0.146,-0.049 1.482,-0.255 4.01,-0.62zM255.041,178.98806c0.042,0.025 0.99,0.098 2.844,0.219l0.036,0.073c-0.285,1.677 -0.468,2.516 -0.547,2.516h-2.114c-0.073,0 -0.17,-0.839 -0.292,-2.516c-0.024,0 -0.036,-0.073 -0.036,-0.219c0.072,-0.024 0.109,-0.048 0.109,-0.073z" data-paper-data="{&quot;origPos&quot;:null}" fill="#000000"/><path d="M268.977,169.94706l0.064,0.118l0.474,6.927h0.055l2.488,-2.606c1.464,1.974 2.215,2.962 2.251,2.962c0.632,-3.093 1.027,-4.949 1.185,-5.569c2.686,0.516 4.029,0.832 4.029,0.948c-1.617,5.134 -2.543,8.039 -2.78,8.713c-0.571,0.037 -1.835,0.155 -3.792,0.356c-0.869,-2.078 -1.303,-3.145 -1.303,-3.199c-0.073,0.006 -0.529,0.914 -1.368,2.725h-0.054c-2.607,-0.176 -3.91,-0.334 -3.91,-0.474c-1.465,-6.459 -2.197,-9.777 -2.197,-9.953v-0.119c0,-0.121 1.619,-0.398 4.858,-0.829z" data-paper-data="{&quot;origPos&quot;:null}" fill="#000000"/><path d="M285.693,172.69908c2.753,1.416 4.278,2.243 4.576,2.48c-0.395,1.847 -0.629,2.798 -0.702,2.852h-5.761v0.101l1.614,1.996l2.534,-1.294c0.249,0.431 0.607,1.184 1.075,2.26c-0.219,0.073 -1.814,0.307 -4.785,0.702c-2.461,-1.623 -3.701,-2.467 -3.719,-2.534c0.395,-3.154 0.629,-4.731 0.702,-4.731c2.57,-1.093 4.059,-1.704 4.466,-1.832zM285.101,174.90506c-0.049,0.122 -0.371,0.605 -0.966,1.449c0,0.256 0.358,0.383 1.075,0.383c0,0.037 0.52,0.125 1.559,0.264c0.285,-0.394 0.428,-0.625 0.428,-0.692c-0.091,-0.541 -0.289,-0.811 -0.592,-0.811z" data-paper-data="{&quot;origPos&quot;:null}" fill="#000000"/><path d="M293.732,168.41606l0.037,0.072l-0.255,3.355h-0.037c-1.191,-0.055 -1.786,-0.128 -1.786,-0.219l-0.511,-2.953c0,-0.049 0.851,-0.134 2.552,-0.255z" data-paper-data="{&quot;origPos&quot;:null}" fill="#000000"/><path d="M301.179,172.69006c1.203,0.675 1.941,1.112 2.215,1.313c-0.985,2.048 -1.513,3.09 -1.586,3.126h-0.064l-1.303,-1.139l-1.541,1.877l0.173,3.418c-0.079,0.073 -1.084,0.243 -3.017,0.511c-0.072,-0.523 -0.546,-3.084 -1.421,-7.684c0,-0.073 1.27,-0.261 3.81,-0.565c0.042,0.049 0.157,0.617 0.346,1.704c1.519,-1.707 2.315,-2.561 2.388,-2.561z" data-paper-data="{&quot;origPos&quot;:null}" fill="#000000"/><path d="M309.282,172.69908c2.752,1.416 4.278,2.243 4.575,2.48c-0.395,1.847 -0.629,2.798 -0.702,2.852h-5.76v0.101l1.613,1.996l2.534,-1.294c0.249,0.431 0.608,1.184 1.076,2.26c-0.219,0.073 -1.814,0.307 -4.785,0.702c-2.461,-1.623 -3.701,-2.467 -3.719,-2.534c0.395,-3.154 0.629,-4.731 0.702,-4.731c2.57,-1.093 4.059,-1.704 4.466,-1.832zM308.689,174.90506c-0.048,0.122 -0.37,0.605 -0.966,1.449c0,0.256 0.359,0.383 1.076,0.383c0,0.037 0.519,0.125 1.558,0.264c0.286,-0.394 0.429,-0.625 0.429,-0.692c-0.092,-0.541 -0.289,-0.811 -0.593,-0.811z" data-paper-data="{&quot;origPos&quot;:null}" fill="#000000"/><path d="M325.861,172.69006c1.203,0.675 1.942,1.112 2.215,1.313c-0.984,2.048 -1.513,3.09 -1.586,3.126h-0.064l-1.303,-1.139l-1.54,1.877l0.173,3.418c-0.079,0.073 -1.085,0.243 -3.017,0.511c-0.073,-0.523 -0.547,-3.084 -1.422,-7.684c0,-0.073 1.27,-0.261 3.81,-0.565c0.042,0.049 0.158,0.617 0.346,1.704c1.519,-1.707 2.315,-2.561 2.388,-2.561z" data-paper-data="{&quot;origPos&quot;:null}" fill="#000000"/><path d="M330.054,169.03506l3.582,0.565c-0.45,1.72 -0.744,2.58 -0.884,2.58c-1.884,-0.128 -2.826,-0.252 -2.826,-0.374v-2.643c0.018,-0.085 0.061,-0.128 0.128,-0.128zM329.051,173.37406h0.055c2.771,0.504 4.156,0.799 4.156,0.884c-0.796,4.509 -1.279,7.021 -1.449,7.538h-2.889c-0.085,0 -0.128,-0.043 -0.128,-0.128z" data-paper-data="{&quot;origPos&quot;:null}" fill="#000000"/><path d="M337.519,172.69908c2.74,0.517 4.174,0.812 4.302,0.885v0.109c-0.59,1.665 -0.884,2.528 -0.884,2.588h-0.055c-0.152,0 -0.887,-0.237 -2.206,-0.71c-0.735,1.233 -1.103,1.892 -1.103,1.977l1.823,1.769c1.41,-1.325 2.127,-1.987 2.151,-1.987c1.1,1.44 1.65,2.248 1.65,2.424c-0.601,0.346 -1.65,1.027 -3.144,2.042c-2.893,-0.626 -4.454,-0.975 -4.685,-1.048l-1.431,-4.631z" data-paper-data="{&quot;origPos&quot;:null}" fill="#000000"/><path d="M348.192,169.93808c0.036,0.054 0.206,1.719 0.51,4.994c2.346,-0.717 3.594,-1.075 3.746,-1.075l2.325,1.586c-0.377,3.463 -0.623,5.487 -0.739,6.07l-3.226,0.11c0,-0.037 -0.021,-0.055 -0.064,-0.055l0.064,-0.228c0,-0.492 0.073,-1.987 0.219,-4.484c-0.888,-0.037 -1.547,-0.055 -1.978,-0.055h-0.228c0.261,2.777 0.392,4.29 0.392,4.539l-3.063,0.456c-0.115,-0.389 -0.796,-4.02 -2.041,-10.892c0,-0.195 0.474,-0.347 1.421,-0.456c1.197,-0.34 2.085,-0.51 2.662,-0.51z" data-paper-data="{&quot;origPos&quot;:null}" fill="#000000"/><path d="M359.64,170.27508l0.036,0.073c-0.607,5.365 -0.948,8.185 -1.021,8.458c-1.288,-0.121 -2.102,-0.206 -2.442,-0.255v-0.036l-0.584,-7.62c0.146,-0.049 1.483,-0.255 4.011,-0.62zM356.03,178.98806c0.043,0.025 0.991,0.098 2.844,0.219l0.037,0.073c-0.286,1.677 -0.468,2.516 -0.547,2.516h-2.115c-0.073,0 -0.17,-0.839 -0.291,-2.516c-0.025,0 -0.037,-0.073 -0.037,-0.219c0.073,-0.024 0.109,-0.048 0.109,-0.073z" data-paper-data="{&quot;origPos&quot;:null}" fill="#000000"/><path d="M369.967,169.94706l0.063,0.118l0.474,6.927h0.055l2.488,-2.606c1.465,1.974 2.215,2.962 2.252,2.962c0.632,-3.093 1.027,-4.949 1.185,-5.569c2.685,0.516 4.028,0.832 4.028,0.948c-1.616,5.134 -2.543,8.039 -2.78,8.713c-0.571,0.037 -1.835,0.155 -3.791,0.356c-0.869,-2.078 -1.304,-3.145 -1.304,-3.199c-0.073,0.006 -0.528,0.914 -1.367,2.725h-0.055c-2.606,-0.176 -3.91,-0.334 -3.91,-0.474c-1.464,-6.459 -2.196,-9.777 -2.196,-9.953v-0.119c0,-0.121 1.619,-0.398 4.858,-0.829z" data-paper-data="{&quot;origPos&quot;:null}" fill="#000000"/><path d="M385.06,169.97408c3.373,0.486 5.232,0.772 5.578,0.857c0,0.049 1.161,3.527 3.482,10.436c-0.243,0.091 -1.643,0.267 -4.202,0.529c-0.176,-0.596 -0.373,-1.516 -0.592,-2.762c-2.188,0.201 -3.281,0.377 -3.281,0.529l-0.593,2.105h-0.064c-2.582,-0.474 -3.873,-0.759 -3.873,-0.857c2.06,-6.441 3.242,-10.053 3.545,-10.837zM386.829,176.28108h1.977l-0.729,-2.889c-0.565,0 -0.847,0.109 -0.847,0.328c-0.092,0.444 -0.225,1.298 -0.401,2.561z" data-paper-data="{&quot;origPos&quot;:null}" fill="#000000"/><path d="M398.623,169.97408c3.372,0.486 5.232,0.772 5.578,0.857c0,0.049 1.161,3.527 3.482,10.436c-0.243,0.091 -1.644,0.267 -4.202,0.529c-0.176,-0.596 -0.374,-1.516 -0.593,-2.762c-2.187,0.201 -3.281,0.377 -3.281,0.529l-0.592,2.105h-0.064c-2.582,-0.474 -3.874,-0.759 -3.874,-0.857c2.06,-6.441 3.242,-10.053 3.546,-10.837zM400.391,176.28108h1.978l-0.729,-2.889c-0.565,0 -0.848,0.109 -0.848,0.328c-0.091,0.444 -0.225,1.298 -0.401,2.561z" data-paper-data="{&quot;origPos&quot;:null}" fill="#000000"/><path d="M412.65,170.27508l0.037,0.073c-0.608,5.365 -0.948,8.185 -1.021,8.458c-1.288,-0.121 -2.103,-0.206 -2.443,-0.255v-0.036l-0.583,-7.62c0.146,-0.049 1.482,-0.255 4.01,-0.62zM409.041,178.98806c0.042,0.025 0.99,0.098 2.844,0.219l0.036,0.073c-0.285,1.677 -0.468,2.516 -0.547,2.516h-2.114c-0.073,0 -0.17,-0.839 -0.292,-2.516c-0.024,0 -0.036,-0.073 -0.036,-0.219c0.072,-0.024 0.109,-0.048 0.109,-0.073z" data-paper-data="{&quot;origPos&quot;:null}" fill="#000000"/></g><text transform="translate(34,157.40423) scale(0.3438,0.3438)" font-size="40" xml:space="preserve" data-paper-data="{&quot;origPos&quot;:null}" fill="#a85be7" fill-rule="nonzero" stroke="#000000" stroke-width="10" stroke-linecap="butt" stroke-linejoin="miter" stroke-miterlimit="10" stroke-dasharray="" stroke-dashoffset="0" font-family="Sans Serif" font-weight="normal" text-anchor="start" style="mix-blend-mode: normal"><tspan x="0" dy="0">Wario, Waluigi, Wafano</tspan></text><text transform="translate(34,157.40423) scale(0.3438,0.3438)" font-size="40" xml:space="preserve" fill="#a85be7" fill-rule="nonzero" stroke="#000000" stroke-width="0" stroke-linecap="butt" stroke-linejoin="miter" stroke-miterlimit="10" stroke-dasharray="" stroke-dashoffset="0" font-family="Sans Serif" font-weight="normal" text-anchor="start" style="mix-blend-mode: normal"><tspan x="0" dy="0">Wario, Waluigi, Wafano</tspan></text><path d="M33.38773,145.78397v-9h117v9z" fill="url(#color-4)" stroke="#000000" stroke-width="0" stroke-linecap="butt"/><path d="M32.13773,169.53397v-6.75l2.6581,-3.81877l10.8419,0.06877l7.5,3.75h23l3.25,-3.75h12.75l3.25,3.75h38.25l5.5,-3.5h8l3.75,3.5h12.25v6.75z" fill="url(#color-5)" stroke="none" stroke-width="0" stroke-linecap="butt"/></g></g></svg>