<svg version="1.1" xmlns="http://www.w3.org/2000/svg" xmlns:xlink="http://www.w3.org/1999/xlink" width="441.55828" height="91.66968" viewBox="0,0,441.55828,91.66968"><defs><linearGradient x1="25.25" y1="260.1943" x2="25.25" y2="339.8057" gradientUnits="userSpaceOnUse" id="color-1"><stop offset="0" stop-color="#ffffff"/><stop offset="1" stop-color="#ffffff"/></linearGradient></defs><g transform="translate(-19.22086,-254.16516)"><g data-paper-data="{&quot;isPaintingLayer&quot;:true}" fill-rule="nonzero" stroke-linecap="butt" stroke-linejoin="miter" stroke-miterlimit="10" stroke-dasharray="" stroke-dashoffset="0" style="mix-blend-mode: normal"><path d="M25.25,260.1943h429.5v79.6114h-429.5z" fill="#ffffff" stroke="url(#color-1)" stroke-width="12.05828"/><text transform="translate(27.60557,297.71666) scale(0.73854,0.73853)" font-size="22" xml:space="preserve" fill="#2492d1" fill-rule="nonzero" stroke="none" stroke-width="1" stroke-linecap="butt" stroke-linejoin="miter" stroke-miterlimit="10" stroke-dasharray="" stroke-dashoffset="0" font-family="Sans Serif" font-weight="400" text-anchor="start" style="mix-blend-mode: normal"><tspan x="0" dy="0">A flying shell bounces around the stage and you</tspan><tspan x="0" dy="24.86px">need it to bounce on your paddle as many times as</tspan><tspan x="0" dy="24.86px">you can! Use the arrow keys to move Mario.</tspan></text><g fill="#2392d1" stroke="none" stroke-width="0.26458"><path d="M37.07737,263.23235c2.65579,1.34295 4.01982,2.01443 4.09409,2.01443c0,0.11743 -0.55304,1.18336 -1.66012,3.19779c-0.02509,0 -0.05119,0 -0.07728,0c-0.08833,0 -1.36102,-0.60122 -3.81708,-1.80365c-0.41754,0.55705 -0.83407,1.11411 -1.25061,1.67016c2.11681,1.01876 4.68829,2.31654 7.71244,3.89536c-1.37205,2.442 -2.34565,4.06499 -2.92178,4.86895c-2.08368,0.18368 -4.16736,0.36835 -6.25105,0.55304c-2.85553,-1.9251 -4.36409,-2.92178 -4.52568,-2.98802c0,-0.02509 0,-0.05119 0,-0.07728c0,-0.20676 0.57914,-1.15426 1.73741,-2.84348c0.04717,0 0.09535,0 0.14352,0c0.45768,0.273 1.89198,1.0589 4.30387,2.35668c0.4868,-0.55304 0.9746,-1.10607 1.46138,-1.66012c-4.43334,-2.25732 -6.8904,-3.53303 -7.37018,-3.82811c0,-0.02208 0,-0.04416 0,-0.06624c1.4092,-2.74412 2.17702,-4.13525 2.30149,-4.17138c3.66652,-0.74575 5.70604,-1.11812 6.11956,-1.11812z"/><path d="M48.20841,263.23235c0.04416,0.06624 0.25092,2.08769 0.62029,6.06436c2.84749,-0.87121 4.36308,-1.30581 4.54776,-1.30581l2.8214,1.9251c-0.45768,4.2045 -0.75579,6.66156 -0.8963,7.36917c-1.30581,0.04416 -2.61163,0.08833 -3.91744,0.13249c0,-0.04416 -0.02509,-0.06624 -0.07728,-0.06624c0.02609,-0.09234 0.05219,-0.18368 0.07728,-0.27601c0,-0.59821 0.08933,-2.4129 0.26598,-5.44408c-1.07697,-0.04416 -1.87792,-0.06624 -2.40085,-0.06624c-0.09234,0 -0.18468,0 -0.27702,0c0.31717,3.37043 0.47575,5.2072 0.47575,5.51031l-3.7177,0.55304c-0.14052,-0.47174 -0.96656,-4.87999 -2.47914,-13.22276c0,-0.23587 0.57613,-0.42055 1.72636,-0.55304c1.45336,-0.41353 2.53033,-0.62029 3.23092,-0.62029z"/><path d="M63.51183,266.58571c3.34131,1.71834 5.19314,2.72204 5.55447,3.0091c-0.47976,2.24327 -0.76381,3.39753 -0.85214,3.46377c-2.33059,0 -4.66219,0 -6.99278,0c0,0.04015 0,0.0813 0,0.12144l1.95822,2.42293l3.07635,-1.57079c0.30212,0.52393 0.73772,1.4383 1.30581,2.74412c-0.26598,0.08833 -2.20211,0.37238 -5.80942,0.85214c-2.98702,-1.96926 -4.49256,-2.99504 -4.51465,-3.07635c0.47976,-3.82811 0.76381,-5.74217 0.85214,-5.74217c3.12051,-1.32789 4.92817,-2.06963 5.42199,-2.22421zM62.79217,269.26359c-0.05822,0.14755 -0.44966,0.73371 -1.17232,1.75849c0,0.31014 0.4346,0.46472 1.30581,0.46472c0,0.04517 0.63032,0.15156 1.89198,0.32118c0.34627,-0.47976 0.51991,-0.7598 0.51991,-0.8411c-0.11041,-0.65642 -0.35029,-0.98463 -0.71965,-0.98463c-0.60824,-0.23989 -1.21648,-0.47976 -1.82573,-0.71865z"/><path d="M70.07302,263.2434c2.25732,0.04416 3.91343,0.06624 4.96832,0.06624c0.09635,0 0.38743,4.5297 0.87422,13.5881c-0.37639,0.09635 -1.68923,0.33925 -3.93852,0.7307c-0.11141,0 -0.47575,-2.77423 -1.09604,-8.32068c-0.05119,-0.13349 -0.32118,-2.15494 -0.80798,-6.06436z"/><path d="M77.15513,263.2434c2.25732,0.04416 3.91343,0.06624 4.96832,0.06624c0.09535,0 0.38743,4.5297 0.87422,13.5881c-0.37639,0.09635 -1.68923,0.33925 -3.93952,0.7307c-0.11041,0 -0.47575,-2.77423 -1.09504,-8.32068c-0.05219,-0.13349 -0.32118,-2.15494 -0.80798,-6.06436z"/><path d="M95.41245,266.58571c0.22884,0.94348 0.38743,1.52663 0.47575,1.74744c3.26102,-0.74474 4.98337,-1.11712 5.16705,-1.11712c2.22119,3.19378 3.33128,4.86092 3.33128,5.00144c-0.84813,1.79964 -1.69726,3.60027 -2.54539,5.39991c-1.82573,-0.29107 -3.65146,-0.58315 -5.47719,-0.87422c0,0.0552 0,0.11041 0,0.16561c0.42758,3.28311 0.64237,5.02754 0.64237,5.2343c-0.05219,0 -0.07828,0.02609 -0.07828,0.07728c-0.53096,-0.05119 -0.92943,-0.07728 -1.1944,-0.07728c-0.31717,0 -0.63433,0 -0.95151,0c-0.55404,0 -1.40217,-0.02609 -2.54539,-0.07728c-0.10338,-0.31014 -0.8963,-5.02051 -2.37877,-14.1301c0.25092,-0.10338 2.10175,-0.55404 5.55447,-1.34997zM95.81092,271.11139c0.14755,1.69626 0.28004,2.54438 0.39847,2.54438c1.51158,0.52393 2.43799,0.7859 2.77724,0.7859c0.29107,-1.26868 0.58315,-2.53736 0.87422,-3.80603c-0.02609,0 -0.05219,0 -0.07728,0c-0.86319,0.05119 -2.18707,0.20977 -3.97265,0.47575z"/><path d="M109.98518,266.58571c2.80333,0.75178 4.28982,1.20946 4.45945,1.37205c1.54168,2.18305 2.40788,3.44069 2.60058,3.77291c-0.99668,3.15764 -1.56778,4.73546 -1.71533,4.73546c-3.31923,0.77486 -5.05664,1.16229 -5.21222,1.16229c-2.74412,-1.60091 -4.2045,-2.4932 -4.38115,-2.67788c-0.09635,-2.97998 -0.14453,-4.62505 -0.14453,-4.9352c-0.04416,-0.08833 -0.06624,-0.15457 -0.06624,-0.19873c2.83245,-2.15394 4.29684,-3.23092 4.3932,-3.23092c0.02208,0 0.04416,0 0.06624,0zM109.7754,270.63564c-0.04517,0.29509 -0.11141,1.36804 -0.19974,3.21987c0.82304,0.18368 1.64507,0.36835 2.4681,0.55304c0.59017,-1.84481 0.88527,-2.82944 0.88527,-2.95489c-1.96224,-0.59017 -3.01411,-0.88527 -3.15363,-0.88527c0,0.02208 0,0.04416 0,0.06624z"/><path d="M127.87714,266.57468c1.22853,0.84411 2.45706,1.68923 3.68459,2.53334c-0.25796,4.2045 -0.43862,6.66156 -0.542,7.36917c-0.42758,0.05219 -1.72937,0.12948 -3.9054,0.23285c-0.02609,-0.05219 -0.05219,-0.10338 -0.07728,-0.15457c-0.12948,-1.97026 -0.25896,-3.93952 -0.38743,-5.90878c-0.05219,-0.02609 -0.10338,-0.05219 -0.15557,-0.07828c-1.40819,0.30312 -2.37877,0.53196 -2.90973,0.68653c0.14755,2.51528 0.22082,4.33398 0.22082,5.45511c-2.1981,0.61225 -3.40054,0.91839 -3.6073,0.91839c-1.43027,-6.30023 -2.14591,-9.6265 -2.14591,-9.98079c3.11247,-0.40549 4.80171,-0.60824 5.06769,-0.60824c0,0.02509 0,0.05119 0,0.07728c0.05119,0.03714 0.12948,0.80396 0.23185,2.30149c2.85553,-1.89599 4.36409,-2.84348 4.52568,-2.84348z"/><path d="M140.95636,266.60779c3.13556,0.0803 4.70233,0.21781 4.70233,0.40951c0.53899,8.1661 0.80798,12.51013 0.80798,13.03405c-2.37475,1.51258 -4.07502,2.53736 -5.1008,3.07635c-3.61433,-1.13619 -5.42199,-1.78558 -5.42199,-1.94718c1.1653,-1.70428 1.84078,-2.56747 2.02547,-2.58955c1.96926,0.97359 3.10144,1.46038 3.39652,1.46038c0.35029,-0.4607 0.70058,-0.92139 1.05087,-1.3831c-0.28004,-1.14321 -0.46773,-1.8177 -0.56408,-2.02447c-0.1626,0 -2.16097,0.3242 -5.99711,0.97359c-2.10275,-3.4156 -3.15363,-5.16705 -3.15363,-5.25638c1.81469,-2.89869 2.92077,-4.59896 3.31923,-5.1008c0.02609,0 0.05219,0 0.07728,0c0.2148,0 1.80767,0.35029 4.78063,1.05087c0,-0.0803 0,-0.16159 0,-0.2429c0,-0.28806 -0.02609,-0.74877 -0.07728,-1.3831c0.05119,-0.02609 0.10338,-0.05219 0.15457,-0.07728zM137.48155,271.29909c0.10338,0.22884 0.42858,1.44533 0.9746,3.65146c0.68553,-0.22182 1.73641,-0.62731 3.15363,-1.21748c-0.273,-1.32789 -0.40951,-2.08368 -0.40951,-2.26836c-0.13349,-0.02509 -0.26598,-0.05119 -0.39847,-0.07728c-0.1626,0 -0.3252,0 -0.4868,0c-0.62029,0 -1.56377,-0.0291 -2.83345,-0.08833z"/></g></g></g></svg>