<svg version="1.1" xmlns="http://www.w3.org/2000/svg" xmlns:xlink="http://www.w3.org/1999/xlink" width="661.93974" height="41.91991" viewBox="0,0,661.93974,41.91991"><g transform="translate(9.15145,-327.25002)"><g data-paper-data="{&quot;isPaintingLayer&quot;:true}" fill="#79e057" fill-rule="nonzero" stroke="#79e057" stroke-width="2" stroke-linecap="round" stroke-linejoin="miter" stroke-miterlimit="10" stroke-dasharray="" stroke-dashoffset="0" style="mix-blend-mode: normal"><path d="M265.50001,328.7911c1.76821,0.0317 4.81662,2.84652 8.25,3.55822c3.43338,0.7117 10.11123,1.33333 17.25,1.93493c7.13877,0.6016 12.93964,1.28325 21.25,1.39384c8.31036,0.11059 14.73937,-0.1148 23.5,-0.81164c8.76063,-0.69684 12.00383,-0.90624 20.75,-2.78767c8.74617,-1.88143 5.47776,-3.51394 8.75,-3.55822c3.27224,-0.04428 286.34009,0.81164 286.34009,0.81164l-7.006,38.41781l-650.16967,0.41931l-2.5015,-39.91931c0,0 200.81446,-0.76382 273.58709,0.54109z" data-paper-data="{&quot;origPos&quot;:null}"/></g></g></svg>