<svg version="1.1" xmlns="http://www.w3.org/2000/svg" xmlns:xlink="http://www.w3.org/1999/xlink" width="540.67494" height="162.15195" viewBox="0,0,540.67494,162.15195"><defs><radialGradient cx="141.8858" cy="344.0975" r="234.4663" gradientUnits="userSpaceOnUse" id="color-1"><stop offset="0" stop-color="#6681bd"/><stop offset="1" stop-color="#45577f"/></radialGradient><radialGradient cx="109.9781" cy="306.1284" r="335.2474" gradientUnits="userSpaceOnUse" id="color-2"><stop offset="0" stop-color="#45577f"/><stop offset="1" stop-color="#1f283a"/></radialGradient><radialGradient cx="109.97811" cy="304.18883" r="329.25269" gradientUnits="userSpaceOnUse" id="color-3"><stop offset="0" stop-color="#45577f"/><stop offset="1" stop-color="#1f283a"/></radialGradient><radialGradient cx="316.0142" cy="294.1021" r="242.3947" gradientUnits="userSpaceOnUse" id="color-4"><stop offset="0" stop-color="#6681bd"/><stop offset="1" stop-color="#45577f"/></radialGradient><radialGradient cx="350.1396" cy="231.4707" r="351.2367" gradientUnits="userSpaceOnUse" id="color-5"><stop offset="0" stop-color="#45577f"/><stop offset="1" stop-color="#1f283a"/></radialGradient><radialGradient cx="366.99827" cy="226.57641" r="334.6942" gradientUnits="userSpaceOnUse" id="color-6"><stop offset="0" stop-color="#45577f"/><stop offset="1" stop-color="#1f283a"/></radialGradient></defs><g transform="translate(37.54367,-209.85185)"><g data-paper-data="{&quot;isPaintingLayer&quot;:true}" fill-rule="nonzero" stroke-linejoin="miter" stroke-miterlimit="10" stroke-dasharray="" stroke-dashoffset="0" style="mix-blend-mode: normal"><g stroke-width="1.60762"><path d="M-28.9,324.95h259.4741v45h-259.4741z" fill="url(#color-1)" stroke="#496087" stroke-linecap="butt"/><path d="M102.4587,302.95l137.8456,4l-9.7302,20l-38.0233,20.501l-47.9275,-20.501l-43.7863,29l-46.4891,-30l-45.2247,21.501l-38.0232,-20.501l-7.568,-26z" fill="url(#color-2)" stroke="url(#color-3)" stroke-linecap="round"/></g><g stroke-width="1.60762"><path d="M486.8,371.2h-259.4741v-45l170.6853,-1.2l82.0046,-88z" fill="url(#color-4)" stroke="#496087" stroke-linecap="butt"/><path d="M487.0162,211l15.0009,24l-48.0027,29l-50.4623,63.2l-46.4891,30l-43.7863,-29l-47.9275,20.501l-38.0233,-20.501l-9.7302,-20l137.8456,-4z" fill="url(#color-5)" stroke="url(#color-6)" stroke-linecap="round"/></g><path d="M226,331.75h2.25v28.25h-2.25z" fill="#5971a6" stroke="none" stroke-width="1" stroke-linecap="butt"/></g></g></svg>