<svg version="1.1" xmlns="http://www.w3.org/2000/svg" xmlns:xlink="http://www.w3.org/1999/xlink" width="453.03796" height="51.97218" viewBox="0,0,453.03796,51.97218"><defs><linearGradient x1="39.81542" y1="156.51391" x2="39.81542" y2="203.26764" gradientUnits="userSpaceOnUse" id="color-1"><stop offset="0" stop-color="#3c94ed"/><stop offset="1" stop-color="#296ec6"/></linearGradient><linearGradient x1="240" y1="156.69596" x2="240" y2="203.30404" gradientUnits="userSpaceOnUse" id="color-2"><stop offset="0" stop-color="#3c94ed"/><stop offset="1" stop-color="#296ec6"/></linearGradient><linearGradient x1="440.18458" y1="156.73236" x2="440.18458" y2="203.48609" gradientUnits="userSpaceOnUse" id="color-3"><stop offset="0" stop-color="#3c94ed"/><stop offset="1" stop-color="#296ec6"/></linearGradient></defs><g transform="translate(-13.02349,-154.01391)"><g data-paper-data="{&quot;isPaintingLayer&quot;:true}" fill-rule="nonzero" stroke-linecap="butt" stroke-linejoin="miter" stroke-miterlimit="10" stroke-dasharray="" stroke-dashoffset="0" style="mix-blend-mode: normal"><g><path d="M39.81542,156.51391c6.44933,0 12.29431,2.61878 16.52546,6.8514c4.23255,4.23115 6.85141,10.07607 6.85141,16.52546c0,6.4494 -2.61885,12.29431 -6.8514,16.52546c-4.23115,4.23262 -10.07613,6.85141 -16.52546,6.85141c-6.4494,0 -12.29439,-2.61879 -16.52554,-6.8514c-4.23255,-4.23115 -6.85133,-10.07607 -6.85133,-16.52546c0,-6.4494 2.61878,-12.29431 6.85133,-16.52546c4.23115,-4.23262 10.07614,-6.8514 16.52554,-6.8514z" data-paper-data="{&quot;origPos&quot;:null}" id="ID0.4039921844378114" fill="#3c94ed" stroke="#23568d" stroke-width="5"/><path d="M440.18458,156.73236c6.44939,0 12.29431,2.61879 16.52546,6.85141c4.23262,4.23115 6.85141,10.07607 6.85141,16.52546c0,6.4494 -2.61879,12.29438 -6.8514,16.52553c-4.23115,4.23255 -10.07607,6.85133 -16.52546,6.85133c-6.44939,0 -12.29438,-2.61878 -16.52553,-6.85133c-4.23255,-4.23115 -6.85134,-10.07614 -6.85134,-16.52553c0,-6.4494 2.61879,-12.29431 6.85134,-16.52546c4.23115,-4.23262 10.07614,-6.8514 16.52553,-6.8514z" data-paper-data="{&quot;origPos&quot;:null}" id="ID0.4039921844378114" fill="#3c94ed" stroke="#23568d" stroke-width="5"/><path d="M41.46816,156.69596h397.06369v46.60808h-397.06369z" data-paper-data="{&quot;origPos&quot;:null}" id="ID0.9499778808094561" fill="#3c94ed" stroke="#23568d" stroke-width="5"/><path d="M39.81542,156.51391c6.44933,0 12.29431,2.61878 16.52546,6.8514c4.23255,4.23115 6.85141,10.07607 6.85141,16.52546c0,6.4494 -2.61885,12.29431 -6.8514,16.52546c-4.23115,4.23262 -10.07613,6.85141 -16.52546,6.85141c-6.4494,0 -12.29439,-2.61879 -16.52554,-6.8514c-4.23255,-4.23115 -6.85133,-10.07607 -6.85133,-16.52546c0,-6.4494 2.61878,-12.29431 6.85133,-16.52546c4.23115,-4.23262 10.07614,-6.8514 16.52554,-6.8514z" data-paper-data="{&quot;origPos&quot;:null}" id="ID0.4039921844378114" fill="url(#color-1)" stroke="none" stroke-width="2.07893"/><path d="M41.46816,156.69596h397.06369v46.60808h-397.06369z" data-paper-data="{&quot;origPos&quot;:null}" id="ID0.9499778808094561" fill="url(#color-2)" stroke="none" stroke-width="2.54499"/><path d="M440.18458,156.73236c6.44939,0 12.29431,2.61879 16.52546,6.85141c4.23262,4.23115 6.85141,10.07607 6.85141,16.52546c0,6.4494 -2.61879,12.29438 -6.8514,16.52553c-4.23115,4.23255 -10.07607,6.85133 -16.52546,6.85133c-6.44939,0 -12.29438,-2.61878 -16.52553,-6.85133c-4.23255,-4.23115 -6.85134,-10.07614 -6.85134,-16.52553c0,-6.4494 2.61879,-12.29431 6.85134,-16.52546c4.23115,-4.23262 10.07614,-6.8514 16.52553,-6.8514z" data-paper-data="{&quot;origPos&quot;:null}" id="ID0.4039921844378114" fill="url(#color-3)" stroke="none" stroke-width="2.07893"/></g><g data-paper-data="{&quot;origPos&quot;:null}" fill="#ffffff"><g data-paper-data="{&quot;origPos&quot;:null}" id="text139-1" stroke="#23568d" stroke-width="5"><path d="M32.38949,167.9035c4.832,1.26869 7.29764,2.00232 7.39694,2.20089c0,0.11038 1.16939,2.31677 3.50816,6.61919c-2.06297,6.90601 -3.23235,10.60723 -3.50816,11.10367l-7.49621,1.60515c-4.02667,-2.22846 -6.16687,-3.49715 -6.42058,-3.80604c-0.13238,-1.55551 -0.36406,-5.92968 -0.69501,-13.12251c3.80603,-2.53735 6.211,-4.0708 7.2149,-4.60035zM33.68024,173.61255l-3.09447,3.21029c0.26476,3.33166 0.39714,5.36706 0.39714,6.10619c0.07721,0 0.74465,0.46336 2.00229,1.39005c1.66583,-0.36406 2.49876,-0.62885 2.49876,-0.79431l1.90302,-6.50333c-0.50746,-1.54446 -0.93771,-2.31671 -1.29075,-2.31671z" id="path941"/><path d="M52.69382,167.9035l0.11582,0.21519c0,0.62882 0.14343,3.06139 0.43025,7.29764c3.94943,-1.25764 6.16136,-1.91954 6.63571,-1.98573l5.95725,6.40406c-2.50426,5.61526 -3.86671,8.5939 -4.08735,8.93586c-0.69501,-0.07727 -3.23235,-0.18759 -7.61207,-0.33095v0.77776c0,0.14346 -0.07724,0.21519 -0.23168,0.21519h-6.40406c-0.23168,0 -0.67295,-3.30959 -1.32383,-9.92878c-0.14343,-0.56263 -0.54607,-3.87774 -1.20801,-9.94531c3.75086,-0.88257 6.32682,-1.43415 7.72789,-1.65481zM53.80252,180.04969l0.43025,4.08735h3.32615l1.20801,-4.63342c-3.3096,0.28682 -4.96437,0.46887 -4.96437,0.54607z" id="path943"/><path d="M84.69753,165.98396l6.51989,1.02596c-0.81637,3.13309 -1.3514,4.69962 -1.60515,4.69962c-3.43093,-0.23168 -5.14642,-0.46333 -5.14642,-0.69501v-4.79888c0.02206,-0.15457 0.09926,-0.23184 0.23168,-0.23184zM82.86071,172.96718l7.89338,2.05195c-1.59964,9.26685 -2.47666,14.1871 -2.6311,14.76078c-0.342,0.30888 -3.16066,1.72097 -8.45602,4.23628c-4.21422,-1.98576 -6.80671,-3.2434 -7.77752,-3.77295c-1.07008,-4.08181 -1.68238,-6.33233 -1.83683,-6.75156c0.15444,-0.15435 2.32776,-0.76662 6.51988,-1.8368c0,0.07727 0.03862,0.11592 0.11582,0.11592c-0.07721,0.15457 -0.11582,0.2704 -0.11582,0.34751c0,0.5185 -0.15444,2.31121 -0.46333,5.37807c3.69572,-0.46333 5.90762,-0.76671 6.63574,-0.91014v-2.97861c0,-0.17654 -0.03311,-0.33102 -0.0993,-0.46336l0.0993,-0.23152c-0.06619,-0.13235 -0.0993,-0.28129 -0.0993,-0.44681h0.0993l-0.0993,-0.23152v-0.11592c0,-0.07727 0.03311,-0.11592 0.0993,-0.11592l-0.0993,-0.23184v-0.11592c0,-0.07727 0.03311,-0.11592 0.0993,-0.11592l-0.0993,-0.21519v-8.12503c0.02206,-0.15457 0.09376,-0.23184 0.21513,-0.23184z" id="path945"/><path d="M102.40384,172.91754c4.99749,2.57046 7.76651,4.0708 8.30708,4.50104c-0.71708,3.35372 -1.14182,5.0802 -1.2742,5.1795h-10.4583v0.18189l2.92898,3.62399l4.60031,-2.34982c0.45231,0.7833 1.1032,2.15126 1.95265,4.10391c-0.39714,0.13235 -3.29304,0.55709 -8.68766,1.2742c-4.46793,-2.94553 -6.71845,-4.47898 -6.75156,-4.60035c0.71708,-5.72558 1.14182,-8.58836 1.2742,-8.58836c4.66653,-1.98576 7.36934,-3.09446 8.10851,-3.32615zM101.32821,176.92215c-0.08825,0.22063 -0.67295,1.09769 -1.75408,2.63114c0,0.46333 0.65088,0.69501 1.95265,0.69501c0,0.06619 0.94325,0.22614 2.82971,0.47988c0.5185,-0.71708 0.77776,-1.13631 0.77776,-1.25764c-0.16546,-0.98183 -0.52401,-1.47277 -1.07563,-1.47277z" id="path947"/><path d="M118.72013,172.91754c4.97542,0.93771 7.57895,1.47276 7.81064,1.60514v0.19854c-1.07008,3.02277 -1.60514,4.5893 -1.60514,4.69962h-0.0993c-0.27581,0 -1.61066,-0.43025 -4.0046,-1.29072c-1.33488,2.23948 -2.00229,3.43646 -2.00229,3.5909l3.3096,3.21029c2.55941,-2.40497 3.86118,-3.60746 3.90531,-3.60746c1.99678,2.61458 2.99517,4.08184 2.99517,4.40178c-1.09215,0.62882 -2.99517,1.8644 -5.70905,3.70673c-5.25123,-1.13631 -8.08641,-1.77064 -8.50565,-1.90302l-2.59803,-8.40635z" id="path949"/><path d="M142.91321,169.19426l-0.69501,5.527c1.44519,-0.07727 2.50427,-0.11592 3.17722,-0.11592h1.05907l0.23168,-0.11592l0.11582,0.23152c-0.23168,3.35372 -0.43025,5.24022 -0.59574,5.65942l-0.23168,-0.13225c-0.16549,0 -1.65481,-0.07727 -4.46793,-0.23184c-0.15444,2.59252 -0.2703,5.69249 -0.34751,9.29996l-0.23168,0.11592c-3.55229,-0.23168 -5.67043,-0.43025 -6.35439,-0.59574l0.11582,-0.46333c0,-0.9598 0.15445,-3.93841 0.46333,-8.9359c-2.97864,-0.16546 -4.46793,-0.36403 -4.46793,-0.59571c0.15444,-3.6847 0.35304,-5.52703 0.59574,-5.52703l4.35211,0.82742v-1.42313c0,-1.15834 -0.04412,-2.7249 -0.13238,-4.69961c0.08825,0 0.13238,-0.03865 0.13238,-0.11592z" data-paper-data="{&quot;origPos&quot;:null}" id="path951"/><path d="M150.83967,166.26528l6.50333,1.02596c-0.81637,3.12207 -1.3514,4.68309 -1.60515,4.68309c-3.41991,-0.23168 -5.12987,-0.45785 -5.12987,-0.67849v-4.79888c0.03308,-0.15457 0.11032,-0.23184 0.23168,-0.23184zM149.0194,174.1421h0.0993c5.03056,0.91564 7.54585,1.45071 7.54585,1.60515c-1.44519,8.18571 -2.32222,12.74744 -2.6311,13.68515h-5.24569c-0.15444,0 -0.23168,-0.07727 -0.23168,-0.23184z" id="path953"/><path d="M168.64528,182.54845c1.33485,-5.06367 2.1126,-7.761 2.33323,-8.09195c4.21422,0.38612 6.32132,0.71707 6.32132,0.99288v0.11592c-2.95655,8.11952 -4.54514,12.37236 -4.7658,12.75849c-3.26547,0.59571 -5.44976,0.96528 -6.55296,1.10871l-8.09195,-11.98073v-0.23152c0.07721,-0.14346 2.22292,-1.58315 6.43714,-4.31903c0,0 4.1425,9.41556 4.31903,9.64724z" id="path955"/><path d="M188.45317,172.91754c4.99749,2.57046 7.76651,4.0708 8.30708,4.50104c-0.71708,3.35372 -1.14182,5.0802 -1.2742,5.1795h-10.4583v0.18189l2.92897,3.62399l4.60031,-2.34982c0.45231,0.7833 1.10323,2.15126 1.95268,4.10391c-0.39717,0.13235 -3.29307,0.55709 -8.68769,1.2742c-4.46793,-2.94553 -6.71845,-4.47898 -6.75156,-4.60035c0.71708,-5.72558 1.14182,-8.58836 1.2742,-8.58836c4.66653,-1.98576 7.36937,-3.09446 8.1085,-3.32615zM187.37754,176.92215c-0.08816,0.22063 -0.67285,1.09769 -1.75408,2.63114c0,0.46333 0.65089,0.69501 1.95266,0.69501c0,0.06619 0.94324,0.22614 2.8297,0.47988c0.5185,-0.71708 0.77776,-1.13631 0.77776,-1.25764c-0.16546,-0.98183 -0.52398,-1.47277 -1.07563,-1.47277z" id="path957"/><path d="M210.94177,179.68573c0,0 -0.09927,2.68628 -0.09927,3.62399v0.52955c0,0.09927 -0.11031,0.20408 -0.33095,0.31446c-1.20247,0 -5.03608,0.14343 -11.50082,0.43025c-0.12127,0 -0.36947,-1.59964 -0.74465,-4.79891c0.06619,0 0.09927,-0.03308 0.09927,-0.09927c3.61848,-0.07727 11.51737,-0.149 12.47714,-0.21519z" data-paper-data="{&quot;origPos&quot;:null}" id="path959"/><path d="M218.73588,167.96972c6.12274,0.88257 9.49853,1.40104 10.12735,1.55548c0,0.08816 2.10709,6.40396 6.32132,18.94742c-0.4413,0.16546 -2.98416,0.48536 -7.62859,0.95977c-0.31993,-1.08113 -0.67845,-2.75247 -1.07563,-5.01404c-3.97149,0.36406 -5.95725,0.68399 -5.95725,0.9598l-1.07563,3.82256h-0.11592c-4.6886,-0.86047 -7.03288,-1.37897 -7.03288,-1.55551c3.73984,-11.69388 5.88556,-18.25238 6.43714,-19.67548zM221.94621,179.42087h3.59088l-1.32383,-5.24569c-1.02596,0 -1.53896,0.19857 -1.53896,0.59574c-0.16546,0.80533 -0.40816,2.3553 -0.72809,4.64995z" id="path961"/><path d="M249.15101,169.19426l-0.69501,5.527c1.44519,-0.07727 2.50427,-0.11592 3.17722,-0.11592h1.05907l0.23152,-0.11592l0.11592,0.23152c-0.23168,3.35372 -0.43025,5.24022 -0.59574,5.65942l-0.23152,-0.13225c-0.16546,0 -1.65479,-0.07727 -4.46797,-0.23184c-0.15457,2.59252 -0.27039,5.69249 -0.3475,9.29996l-0.23184,0.11592c-3.55229,-0.23168 -5.67043,-0.43025 -6.3544,-0.59574l0.11592,-0.46333c0,-0.9598 0.15445,-3.93841 0.46336,-8.9359c-2.97864,-0.16546 -4.46797,-0.36403 -4.46797,-0.59571c0.15457,-3.6847 0.35314,-5.52703 0.59574,-5.52703l4.35211,0.82742v-1.42313c0,-1.15834 -0.04409,-2.7249 -0.13225,-4.69961c0,0 0.13225,-0.03725 0.13225,-0.11592z" data-paper-data="{&quot;origPos&quot;:null}" id="path963"/><path d="M262.2073,167.9035c0.06619,0.09927 0.37508,3.12204 0.9267,9.06828c4.25835,-1.30177 6.52539,-1.95265 6.8012,-1.95265l4.21973,2.87935c-0.68397,6.28824 -1.13076,9.96186 -1.34038,11.02093l-5.85796,0.19854c0,-0.06619 -0.03865,-0.09927 -0.11592,-0.09927l0.11592,-0.41369c0,-0.89358 0.13238,-3.60746 0.39714,-8.14159c-1.61066,-0.06619 -2.80761,-0.09927 -3.59091,-0.09927h-0.41369c0.47438,5.04161 0.71157,7.78857 0.71157,8.24088l-5.56012,0.82739c-0.20965,-0.70606 -1.44523,-7.29764 -3.70673,-19.77478c0,-0.35304 0.8605,-0.62885 2.58147,-0.82742c2.17332,-0.61781 3.78397,-0.92669 4.83199,-0.92669z" id="path965"/><path d="M282.37929,172.91754c4.19213,1.12526 6.41508,1.80926 6.66882,2.05195c2.30566,3.26547 3.60192,5.14639 3.88875,5.64283c-1.48932,4.72171 -2.34428,7.08255 -2.56492,7.08255c-4.96438,1.15834 -7.5624,1.73753 -7.79408,1.73753c-4.10391,-2.39395 -6.28824,-3.7288 -6.553,-4.0046c-0.14346,-4.45692 -0.21519,-6.91705 -0.21519,-7.38039c-0.06619,-0.13235 -0.09927,-0.23161 -0.09927,-0.29781c4.23625,-3.22134 6.42609,-4.832 6.56952,-4.832zM282.06483,178.9741c-0.06619,0.44127 -0.16546,2.04641 -0.2978,4.81544l3.69021,0.82739c0.88257,-2.75798 1.32383,-4.23075 1.32383,-4.4183c-2.93449,-0.88257 -4.50655,-1.32383 -4.71617,-1.32383z" id="path967"/><path d="M314.6478,176.69047c-0.38612,6.28824 -0.65642,9.96186 -0.81087,11.02093c-0.63984,0.07727 -2.58698,0.19312 -5.84143,0.3475l-0.11592,-0.23152l-0.57918,-8.8366l-0.23152,-0.11592c-2.10709,0.45231 -3.55783,0.79431 -4.35214,1.02599c0.22066,3.76187 0.33098,6.48127 0.33098,8.15811c-3.28753,0.91568 -5.08574,1.3735 -5.39462,1.3735c-2.14021,-9.42129 -3.21032,-14.39671 -3.21032,-14.92626c4.65549,-0.60676 7.18181,-0.91014 7.57895,-0.91014v0.11592c0.07727,0.05508 0.19313,1.2024 0.34751,3.44197c4.26936,-2.83522 6.52542,-4.25284 6.76812,-4.25284z" data-paper-data="{&quot;origPos&quot;:null}" id="path969"/><path d="M336.35864,167.9035c0.2427,0.26479 2.60907,1.99681 7.09907,5.19605v0.09927c-0.91564,3.77292 -1.51689,5.92968 -1.80372,6.47025l-3.49161,2.01884c4.13698,2.98966 6.22201,4.54517 6.25512,4.66653c-1.46726,0.70606 -3.72883,1.73202 -6.78468,3.07791c-3.54124,-4.84304 -5.31188,-7.31971 -5.31188,-7.43002h-0.19854c-0.07727,2.83522 -0.11592,4.78233 -0.11592,5.8414c-0.04419,0.49644 -0.149,0.74468 -0.31446,0.74468h-4.98093c-0.23168,0 -0.58469,-3.07792 -1.05907,-9.23377c-0.22063,-1.34589 -0.54057,-4.45692 -0.95977,-9.33304c1.2797,-0.27581 5.16845,-0.98183 11.66627,-2.11814zM331.79141,172.57004v0.09927c0,0.67295 0.03865,3.07791 0.11592,7.2149h0.09927c2.69182,-0.62882 4.03771,-1.05356 4.03771,-1.2742l0.94321,-4.23628z" id="path971"/><path d="M352.87353,172.91754c4.19213,1.12526 6.41507,1.80926 6.66882,2.05195c2.30566,3.26547 3.60193,5.14639 3.88875,5.64283c-1.48932,4.72171 -2.34428,7.08255 -2.56492,7.08255c-4.96438,1.15834 -7.5624,1.73753 -7.79408,1.73753c-4.10391,-2.39395 -6.28823,-3.7288 -6.55299,-4.0046c-0.14346,-4.45692 -0.21519,-6.91705 -0.21519,-7.38039c-0.06619,-0.13235 -0.09927,-0.23161 -0.09927,-0.29781c4.23625,-3.22134 6.42609,-4.832 6.56952,-4.832zM352.55907,178.9741c-0.06619,0.44127 -0.16546,2.04641 -0.29781,4.81544l3.69021,0.82739c0.88257,-2.75798 1.32383,-4.23075 1.32383,-4.4183c-2.93449,-0.88257 -4.50655,-1.32383 -4.71617,-1.32383z" id="path973"/><path d="M373.98879,173.11618l-2.23396,11.84832h0.11592l5.69249,-1.67134v-6.7019c0.022,-0.15457 0.09373,-0.23184 0.21519,-0.23184c4.28041,0.29787 6.66331,0.4468 7.14874,0.4468c0,0.07727 0.03865,0.11592 0.11592,0.11592c0,1.88646 -0.59574,5.7973 -1.78719,11.7325c0,0.342 -1.70996,0.60125 -5.12984,0.77776c-0.17654,-0.20965 -0.32547,-0.65642 -0.4468,-1.34039c-4.37971,0.89358 -6.87844,1.34039 -7.49621,1.34039c-3.49715,-2.60357 -5.24572,-3.94395 -5.24572,-4.02116c0.59574,-7.82165 0.97082,-11.88143 1.12526,-12.17927h0.09927c2.79109,-0.07727 5.36151,-0.18762 7.71134,-0.33098z" data-paper-data="{&quot;origPos&quot;:null}" id="path975"/><path d="M401.40862,172.90099l5.51048,3.78948c-0.38612,6.28824 -0.65642,9.96186 -0.81087,11.02093c-0.63984,0.07727 -2.58698,0.19312 -5.8414,0.3475l-0.11592,-0.23152l-0.57916,-8.8366l-0.23184,-0.11592c-2.10709,0.45231 -3.55779,0.79431 -4.35211,1.02599c0.22063,3.76187 0.33095,6.48127 0.33095,8.15811c-3.28753,0.91568 -5.08574,1.3735 -5.39462,1.3735c-2.14021,-9.42129 -3.21029,-14.39671 -3.21029,-14.92626c4.65549,-0.60676 7.18179,-0.91014 7.57896,-0.91014v0.11592c0.07727,0.05508 0.19313,1.2024 0.34751,3.44197c4.26936,-2.83522 6.52539,-4.25284 6.76809,-4.25284z" id="path977"/><path d="M418.66812,167.88698c4.98644,0.4192 7.47965,0.74464 7.47965,0.97632l2.20089,19.47691c0,0.14346 -2.20089,0.50752 -6.60263,1.09218l-0.09927,-0.21519v-1.77064c-3.79499,1.02596 -6.39856,1.68789 -7.81064,1.98576c-3.35372,-4.74374 -5.11331,-7.27007 -5.27877,-7.57895c2.47115,-4.49 3.78948,-6.76258 3.95494,-6.81776l6.93362,0.33095c-0.14346,-0.84946 -0.43582,-3.34268 -0.87706,-7.47966zM415.49094,179.75186c1.11421,3.40886 1.80922,5.2788 2.08503,5.60975l3.29304,-2.86279c-0.34197,-1.97471 -0.59571,-2.96209 -0.7612,-2.96209h-4.40174c-0.14346,0.022 -0.21519,0.09373 -0.21519,0.21519z" id="path979"/><path d="M451.51579,170.76632c2.14021,4.3466 3.2434,6.68537 3.30959,7.01632c-4.832,4.08184 -7.28108,6.17789 -7.34728,6.28821l6.61916,-0.72809l0.06628,0.13225c-0.50749,3.97149 -0.81637,5.95725 -0.92669,5.95725c-7.46864,-0.17654 -11.96968,-0.26482 -13.50313,-0.26482c-0.13235,0 -0.39714,-1.45621 -0.79432,-4.36867c0.75019,-0.5847 1.43415,-1.22457 2.05195,-1.91957l6.68538,-6.08963c-0.56263,-0.78326 -0.95977,-1.29072 -1.19145,-1.5224c-1.13631,1.31281 -2.15126,2.39391 -3.04484,3.24337c-2.82417,-2.16224 -4.47894,-3.464 -4.96437,-3.9053v-0.13225c0.23168,-0.14346 1.97471,-1.70999 5.22916,-4.69962c0,-0.03308 0.13238,-0.1434 0.39714,-0.33095z" data-paper-data="{&quot;origPos&quot;:null}" id="path981"/></g><g data-paper-data="{&quot;origPos&quot;:null}" id="text139-1" stroke="none" stroke-width="0.26458"><path d="M32.38948,167.90351c4.83199,1.26869 7.29764,2.00232 7.39694,2.20089c0,0.11038 1.16939,2.31677 3.50817,6.61919c-2.06297,6.90601 -3.23235,10.60724 -3.50817,11.10367l-7.49621,1.60515c-4.02667,-2.22846 -6.16687,-3.49714 -6.42058,-3.80604c-0.13238,-1.55551 -0.36406,-5.92968 -0.69501,-13.12251c3.80604,-2.53734 6.211,-4.0708 7.2149,-4.60034zM33.68023,173.61256l-3.09447,3.21029c0.26476,3.33166 0.39714,5.36705 0.39714,6.10619c0.07721,0 0.74464,0.46336 2.00228,1.39006c1.66583,-0.36406 2.49876,-0.62885 2.49876,-0.79432l1.90302,-6.50333c-0.50746,-1.54447 -0.93771,-2.31671 -1.29075,-2.31671z" id="path941"/><path d="M52.69382,167.90351l0.11583,0.21519c0,0.62882 0.14343,3.06139 0.43025,7.29764c3.94943,-1.25764 6.16137,-1.91954 6.63571,-1.98573l5.95726,6.40406c-2.50427,5.61525 -3.86672,8.5939 -4.08735,8.93587c-0.69501,-0.07727 -3.23235,-0.18758 -7.61206,-0.33095v0.77776c0,0.14346 -0.07724,0.21519 -0.23168,0.21519h-6.40406c-0.23168,0 -0.67295,-3.30959 -1.32383,-9.92878c-0.14343,-0.56263 -0.54607,-3.87773 -1.20801,-9.94531c3.75086,-0.88257 6.32682,-1.43415 7.72789,-1.65481zM53.80252,180.0497l0.43025,4.08735h3.32615l1.20801,-4.63342c-3.30959,0.28683 -4.96438,0.46887 -4.96438,0.54607z" id="path943"/><path d="M84.69754,165.98397l6.51989,1.02596c-0.81637,3.13309 -1.3514,4.69962 -1.60515,4.69962c-3.43092,-0.23168 -5.14642,-0.46333 -5.14642,-0.69501v-4.79888c0.02207,-0.15457 0.09926,-0.23184 0.23168,-0.23184zM82.86071,172.96718l7.89339,2.05195c-1.59964,9.26685 -2.47666,14.1871 -2.6311,14.76077c-0.34199,0.30888 -3.16066,1.72097 -8.45602,4.23628c-4.21422,-1.98577 -6.8067,-3.24341 -7.77753,-3.77295c-1.07009,-4.08181 -1.68238,-6.33233 -1.83683,-6.75156c0.15444,-0.15435 2.32776,-0.76661 6.51989,-1.8368c0,0.07727 0.03862,0.11592 0.11583,0.11592c-0.07721,0.15457 -0.11583,0.2704 -0.11583,0.34751c0,0.5185 -0.15444,2.31121 -0.46333,5.37806c3.69572,-0.46333 5.90762,-0.76671 6.63575,-0.91014v-2.97861c0,-0.17654 -0.03311,-0.33101 -0.0993,-0.46336l0.0993,-0.23152c-0.06619,-0.13235 -0.0993,-0.28129 -0.0993,-0.44681h0.0993l-0.0993,-0.23152v-0.11592c0,-0.07727 0.03311,-0.11592 0.0993,-0.11592l-0.0993,-0.23184v-0.11592c0,-0.07727 0.03311,-0.11592 0.0993,-0.11592l-0.0993,-0.21519v-8.12504c0.02207,-0.15457 0.09376,-0.23184 0.21512,-0.23184z" id="path945"/><path d="M102.40384,172.91754c4.99749,2.57045 7.76651,4.0708 8.30708,4.50104c-0.71707,3.35372 -1.14181,5.0802 -1.2742,5.1795h-10.4583v0.18189l2.92897,3.62399l4.60031,-2.34983c0.45231,0.78329 1.1032,2.15125 1.95266,4.10391c-0.39714,0.13235 -3.29303,0.55709 -8.68766,1.2742c-4.46793,-2.94553 -6.71845,-4.47898 -6.75156,-4.60034c0.71707,-5.72557 1.14181,-8.58836 1.2742,-8.58836c4.66653,-1.98577 7.36934,-3.09447 8.10851,-3.32615zM101.32822,176.92215c-0.08825,0.22063 -0.67295,1.09769 -1.75408,2.63114c0,0.46333 0.65089,0.69501 1.95266,0.69501c0,0.06619 0.94325,0.22614 2.82971,0.47988c0.5185,-0.71707 0.77776,-1.13631 0.77776,-1.25764c-0.16546,-0.98183 -0.52402,-1.47276 -1.07563,-1.47276z" id="path947"/><path d="M118.72012,172.91754c4.97542,0.93771 7.57895,1.47276 7.81064,1.60515v0.19854c-1.07009,3.02277 -1.60515,4.5893 -1.60515,4.69962h-0.0993c-0.27581,0 -1.61065,-0.43025 -4.0046,-1.29072c-1.33488,2.23947 -2.00228,3.43646 -2.00228,3.5909l3.30959,3.21029c2.55941,-2.40497 3.86118,-3.60746 3.9053,-3.60746c1.99678,2.61459 2.99517,4.08184 2.99517,4.40178c-1.09215,0.62882 -2.99517,1.8644 -5.70905,3.70673c-5.25123,-1.13631 -8.08641,-1.77063 -8.50564,-1.90302l-2.59803,-8.40635z" id="path949"/><path d="M142.9132,169.19426l-0.69501,5.527c1.44519,-0.07727 2.50427,-0.11592 3.17722,-0.11592h1.05908l0.23168,-0.11592l0.11583,0.23152c-0.23168,3.35372 -0.43025,5.24022 -0.59574,5.65942l-0.23168,-0.13225c-0.16549,0 -1.65481,-0.07727 -4.46793,-0.23184c-0.15444,2.59252 -0.2703,5.6925 -0.34751,9.29996l-0.23168,0.11592c-3.55229,-0.23168 -5.67043,-0.43025 -6.35439,-0.59574l0.11583,-0.46333c0,-0.9598 0.15444,-3.93841 0.46333,-8.9359c-2.97864,-0.16546 -4.46793,-0.36403 -4.46793,-0.59571c0.15444,-3.6847 0.35305,-5.52703 0.59574,-5.52703l4.35211,0.82743v-1.42313c0,-1.15834 -0.04412,-2.7249 -0.13238,-4.69962c0.08825,0 0.13238,-0.03865 0.13238,-0.11592z" data-paper-data="{&quot;origPos&quot;:null}" id="path951"/><path d="M150.83967,166.26528l6.50333,1.02596c-0.81637,3.12207 -1.3514,4.68309 -1.60515,4.68309c-3.41991,-0.23168 -5.12986,-0.45785 -5.12986,-0.67849v-4.79888c0.03308,-0.15457 0.11032,-0.23184 0.23168,-0.23184zM149.0194,174.14211h0.0993c5.03057,0.91565 7.54584,1.45071 7.54584,1.60515c-1.44519,8.18572 -2.32222,12.74744 -2.6311,13.68515h-5.24569c-0.15444,0 -0.23168,-0.07727 -0.23168,-0.23184z" id="path953"/><path d="M164.32624,172.90099c2.70284,6.19998 4.14249,9.41578 4.31903,9.64747c1.33485,-5.06368 2.1126,-7.761 2.33323,-8.09195c4.21422,0.38612 6.32131,0.71707 6.32131,0.99288v0.11592c-2.95655,8.11952 -4.54514,12.37236 -4.7658,12.75849c-3.26547,0.59571 -5.44977,0.96527 -6.55297,1.1087l-8.09195,-11.98073v-0.23152c0.07721,-0.14346 2.22292,-1.58315 6.43714,-4.31903z" id="path955"/><path d="M188.45317,172.91754c4.99749,2.57045 7.76651,4.0708 8.30708,4.50104c-0.71707,3.35372 -1.14181,5.0802 -1.2742,5.1795h-10.4583v0.18189l2.92897,3.62399l4.60031,-2.34983c0.45231,0.78329 1.10323,2.15125 1.95268,4.10391c-0.39717,0.13235 -3.29307,0.55709 -8.68769,1.2742c-4.46793,-2.94553 -6.71845,-4.47898 -6.75156,-4.60034c0.71707,-5.72557 1.14181,-8.58836 1.2742,-8.58836c4.66653,-1.98577 7.36937,-3.09447 8.10851,-3.32615zM187.37755,176.92215c-0.08815,0.22063 -0.67285,1.09769 -1.75408,2.63114c0,0.46333 0.65089,0.69501 1.95266,0.69501c0,0.06619 0.94325,0.22614 2.82971,0.47988c0.5185,-0.71707 0.77776,-1.13631 0.77776,-1.25764c-0.16546,-0.98183 -0.52398,-1.47276 -1.07563,-1.47276z" id="path957"/><path d="M210.8425,179.47054l0.09926,0.21519c-0.06619,1.47828 -0.09926,2.68628 -0.09926,3.62399v0.52955c0,0.09926 -0.11032,0.20408 -0.33095,0.31445c-1.20246,0 -5.03607,0.14343 -11.50082,0.43025c-0.12126,0 -0.36947,-1.59964 -0.74464,-4.79892c0.06619,0 0.09926,-0.03308 0.09926,-0.09926c3.61848,-0.07727 6.45924,-0.11592 8.5222,-0.11592h1.82027c0.46333,0 1.17489,-0.03308 2.13467,-0.09926z" id="path959"/><path d="M218.73589,167.96973c6.12274,0.88257 9.49853,1.40104 10.12735,1.55548c0,0.08815 2.1071,6.40396 6.32131,18.94743c-0.4413,0.16546 -2.98415,0.48536 -7.62859,0.95977c-0.31994,-1.08113 -0.67846,-2.75247 -1.07563,-5.01404c-3.97149,0.36406 -5.95726,0.684 -5.95726,0.9598l-1.07563,3.82255h-0.11592c-4.6886,-0.86047 -7.03288,-1.37897 -7.03288,-1.55551c3.73984,-11.69387 5.88555,-18.25238 6.43714,-19.67548zM221.9462,179.42088h3.59088l-1.32383,-5.24569c-1.02596,0 -1.53896,0.19857 -1.53896,0.59574c-0.16546,0.80533 -0.40816,2.3553 -0.72809,4.64995z" id="path961"/><path d="M241.86993,167.90351l7.28108,1.29075l-0.69501,5.527c1.44519,-0.07727 2.50427,-0.11592 3.17722,-0.11592h1.05908l0.23152,-0.11592l0.11592,0.23152c-0.23168,3.35372 -0.43025,5.24022 -0.59574,5.65942l-0.23152,-0.13225c-0.16546,0 -1.65478,-0.07727 -4.46797,-0.23184c-0.15457,2.59252 -0.2704,5.6925 -0.34751,9.29996l-0.23184,0.11592c-3.55229,-0.23168 -5.67043,-0.43025 -6.35439,-0.59574l0.11592,-0.46333c0,-0.9598 0.15444,-3.93841 0.46336,-8.9359c-2.97864,-0.16546 -4.46797,-0.36403 -4.46797,-0.59571c0.15457,-3.6847 0.35314,-5.52703 0.59574,-5.52703l4.35211,0.82743v-1.42313c0,-1.15834 -0.0441,-2.7249 -0.13225,-4.69962c0.08815,0 0.13225,-0.03865 0.13225,-0.11592z" data-paper-data="{&quot;origPos&quot;:null}" id="path963"/><path d="M262.2073,167.90351c0.06619,0.09926 0.37508,3.12204 0.92669,9.06828c4.25835,-1.30177 6.52539,-1.95266 6.8012,-1.95266l4.21973,2.87935c-0.68396,6.28824 -1.13077,9.96186 -1.34039,11.02093l-5.85796,0.19854c0,-0.06619 -0.03865,-0.09926 -0.11592,-0.09926l0.11592,-0.4137c0,-0.89358 0.13238,-3.60746 0.39714,-8.14159c-1.61065,-0.06619 -2.80761,-0.09926 -3.5909,-0.09926h-0.4137c0.47438,5.04161 0.71157,7.78857 0.71157,8.24088l-5.56012,0.82739c-0.20965,-0.70606 -1.44522,-7.29764 -3.70673,-19.77478c0,-0.35305 0.8605,-0.62885 2.58148,-0.82743c2.17332,-0.61781 3.78397,-0.92669 4.83199,-0.92669z" id="path965"/><path d="M282.37929,172.91754c4.19213,1.12526 6.41507,1.80926 6.66882,2.05195c2.30566,3.26547 3.60193,5.14639 3.88875,5.64282c-1.48932,4.72171 -2.34429,7.08255 -2.56492,7.08255c-4.96438,1.15834 -7.5624,1.73752 -7.79408,1.73752c-4.10391,-2.39395 -6.28824,-3.72879 -6.553,-4.0046c-0.14346,-4.45692 -0.21519,-6.91706 -0.21519,-7.38039c-0.06619,-0.13235 -0.09926,-0.23162 -0.09926,-0.2978c4.23625,-3.22134 6.4261,-4.83199 6.56952,-4.83199zM282.06483,178.97411c-0.06619,0.44127 -0.16546,2.04642 -0.2978,4.81544l3.69021,0.82739c0.88257,-2.75798 1.32383,-4.23074 1.32383,-4.4183c-2.93449,-0.88257 -4.50655,-1.32383 -4.71617,-1.32383z" id="path967"/><path d="M309.13731,172.90099l5.51048,3.78948c-0.38612,6.28824 -0.65642,9.96186 -0.81087,11.02093c-0.63984,0.07727 -2.58698,0.19312 -5.84143,0.34751l-0.11592,-0.23152l-0.57918,-8.83659l-0.23152,-0.11592c-2.1071,0.45231 -3.55783,0.79432 -4.35214,1.02599c0.22066,3.76187 0.33098,6.48126 0.33098,8.15811c-3.28753,0.91568 -5.08574,1.3735 -5.39462,1.3735c-2.14021,-9.42129 -3.21033,-14.39671 -3.21033,-14.92627c4.65549,-0.60675 7.18182,-0.91014 7.57895,-0.91014v0.11592c0.07727,0.05508 0.19312,1.20241 0.34751,3.44197c4.26936,-2.83521 6.52543,-4.25284 6.76812,-4.25284z" data-paper-data="{&quot;origPos&quot;:null}" id="path969"/><path d="M336.35865,167.90351c0.24269,0.26479 2.60907,1.99681 7.09907,5.19605v0.09926c-0.91565,3.77293 -1.51689,5.92968 -1.80372,6.47025l-3.49161,2.01884c4.13699,2.98966 6.22202,4.54517 6.25513,4.66653c-1.46726,0.70606 -3.72883,1.73202 -6.78468,3.07791c-3.54124,-4.84304 -5.31188,-7.31971 -5.31188,-7.43002h-0.19854c-0.07727,2.83521 -0.11592,4.78233 -0.11592,5.8414c-0.04419,0.49644 -0.149,0.74468 -0.31445,0.74468h-4.98093c-0.23168,0 -0.5847,-3.07791 -1.05908,-9.23377c-0.22063,-1.34589 -0.54057,-4.45692 -0.95977,-9.33304c1.2797,-0.27581 5.16845,-0.98183 11.66627,-2.11814zM331.79141,172.57005v0.09926c0,0.67295 0.03865,3.07791 0.11592,7.2149h0.09926c2.69182,-0.62882 4.03771,-1.05356 4.03771,-1.2742l0.94322,-4.23628z" id="path971"/><path d="M352.87353,172.91754c4.19213,1.12526 6.41507,1.80926 6.66882,2.05195c2.30566,3.26547 3.60193,5.14639 3.88875,5.64282c-1.48932,4.72171 -2.34429,7.08255 -2.56492,7.08255c-4.96438,1.15834 -7.5624,1.73752 -7.79408,1.73752c-4.10391,-2.39395 -6.28824,-3.72879 -6.553,-4.0046c-0.14346,-4.45692 -0.21519,-6.91706 -0.21519,-7.38039c-0.06619,-0.13235 -0.09926,-0.23162 -0.09926,-0.2978c4.23625,-3.22134 6.4261,-4.83199 6.56952,-4.83199zM352.55907,178.97411c-0.06619,0.44127 -0.16546,2.04642 -0.2978,4.81544l3.69021,0.82739c0.88257,-2.75798 1.32383,-4.23074 1.32383,-4.4183c-2.93449,-0.88257 -4.50655,-1.32383 -4.71617,-1.32383z" id="path973"/><path d="M373.87287,172.90099l0.11592,0.21519l-2.23397,11.84832h0.11592l5.6925,-1.67134v-6.7019c0.022,-0.15457 0.09373,-0.23184 0.21519,-0.23184c4.28042,0.29787 6.66332,0.44681 7.14874,0.44681c0,0.07727 0.03865,0.11592 0.11592,0.11592c0,1.88646 -0.59574,5.7973 -1.78719,11.7325c0,0.34199 -1.70995,0.60125 -5.12983,0.77776c-0.17654,-0.20965 -0.32548,-0.65642 -0.44681,-1.34039c-4.37971,0.89358 -6.87844,1.34039 -7.49621,1.34039c-3.49714,-2.60356 -5.24572,-3.94395 -5.24572,-4.02116c0.59574,-7.82165 0.97082,-11.88144 1.12526,-12.17927h0.09926c2.79109,-0.07727 5.36151,-0.18762 7.71134,-0.33098z" data-paper-data="{&quot;origPos&quot;:null}" id="path975"/><path d="M401.40863,172.90099l5.51048,3.78948c-0.38612,6.28824 -0.65642,9.96186 -0.81087,11.02093c-0.63984,0.07727 -2.58698,0.19312 -5.8414,0.34751l-0.11592,-0.23152l-0.57916,-8.83659l-0.23184,-0.11592c-2.1071,0.45231 -3.55779,0.79432 -4.35211,1.02599c0.22063,3.76187 0.33095,6.48126 0.33095,8.15811c-3.28753,0.91568 -5.08574,1.3735 -5.39462,1.3735c-2.14021,-9.42129 -3.21029,-14.39671 -3.21029,-14.92627c4.65549,-0.60675 7.18178,-0.91014 7.57895,-0.91014v0.11592c0.07727,0.05508 0.19312,1.20241 0.34751,3.44197c4.26936,-2.83521 6.52539,-4.25284 6.76809,-4.25284z" id="path977"/><path d="M418.56886,167.88699h0.09926c4.98643,0.4192 7.47966,0.74464 7.47966,0.97633l2.20089,19.47691c0,0.14346 -2.20089,0.50752 -6.60263,1.09219l-0.09926,-0.21519v-1.77063c-3.79498,1.02596 -6.39856,1.6879 -7.81064,1.98577c-3.35372,-4.74374 -5.11331,-7.27007 -5.27877,-7.57895c2.47116,-4.49 3.78948,-6.76258 3.95494,-6.81776l6.93362,0.33095c-0.14346,-0.84946 -0.43582,-3.34267 -0.87705,-7.47966zM415.49094,179.75186c1.11421,3.40886 1.80923,5.2788 2.08503,5.60975l3.29303,-2.86279c-0.34197,-1.97471 -0.59571,-2.96208 -0.7612,-2.96208h-4.40175c-0.14346,0.022 -0.21519,0.09373 -0.21519,0.21519z" id="path979"/><path d="M451.51579,170.76633c2.14021,4.3466 3.24341,6.68537 3.30959,7.01632c-4.83199,4.08184 -7.28108,6.17788 -7.34728,6.2882l6.61915,-0.72809l0.06629,0.13225c-0.50749,3.97149 -0.81637,5.95726 -0.92669,5.95726c-7.46864,-0.17654 -11.96969,-0.26483 -13.50313,-0.26483c-0.13235,0 -0.39714,-1.45621 -0.79432,-4.36867c0.75018,-0.5847 1.43415,-1.22456 2.05195,-1.91957l6.68537,-6.08963c-0.56263,-0.78326 -0.95977,-1.29072 -1.19145,-1.5224c-1.13631,1.31282 -2.15125,2.39391 -3.04483,3.24337c-2.82417,-2.16224 -4.47895,-3.464 -4.96438,-3.9053v-0.13225c0.23168,-0.14346 1.97471,-1.70998 5.22916,-4.69962c0,-0.03308 0.13238,-0.1434 0.39714,-0.33095z" data-paper-data="{&quot;origPos&quot;:null}" id="path981"/></g></g></g></g></svg>