<svg version="1.1" xmlns="http://www.w3.org/2000/svg" xmlns:xlink="http://www.w3.org/1999/xlink" width="354.76956" height="219.72133" viewBox="0,0,354.76956,219.72133"><defs><linearGradient x1="110.96065" y1="156.15535" x2="110.96065" y2="203.39626" gradientUnits="userSpaceOnUse" id="color-1"><stop offset="0" stop-color="#000000"/><stop offset="1" stop-color="#000000"/></linearGradient><linearGradient x1="183.99365" y1="91.26259" x2="183.99365" y2="113.79827" gradientUnits="userSpaceOnUse" id="color-2"><stop offset="0" stop-color="#000000"/><stop offset="1" stop-color="#000000"/></linearGradient><linearGradient x1="279.9361" y1="121.81937" x2="279.9361" y2="150.8075" gradientUnits="userSpaceOnUse" id="color-3"><stop offset="0" stop-color="#000000"/><stop offset="1" stop-color="#000000"/></linearGradient><linearGradient x1="265.76784" y1="122.29823" x2="265.76784" y2="151.0351" gradientUnits="userSpaceOnUse" id="color-4"><stop offset="0" stop-color="#000000"/><stop offset="1" stop-color="#000000"/></linearGradient><linearGradient x1="236.24971" y1="121.52306" x2="236.24971" y2="151.19507" gradientUnits="userSpaceOnUse" id="color-5"><stop offset="0" stop-color="#000000"/><stop offset="1" stop-color="#000000"/></linearGradient><linearGradient x1="202.6042" y1="121.61429" x2="202.6042" y2="151.19507" gradientUnits="userSpaceOnUse" id="color-6"><stop offset="0" stop-color="#000000"/><stop offset="1" stop-color="#000000"/></linearGradient><linearGradient x1="166.36263" y1="121.49937" x2="166.36263" y2="151.19507" gradientUnits="userSpaceOnUse" id="color-7"><stop offset="0" stop-color="#000000"/><stop offset="1" stop-color="#000000"/></linearGradient><linearGradient x1="184.03113" y1="91.00022" x2="184.03113" y2="113.53591" gradientUnits="userSpaceOnUse" id="color-8"><stop offset="0" stop-color="#ffffff"/><stop offset="1" stop-color="#dae0e7"/></linearGradient><linearGradient x1="166.43759" y1="121.19952" x2="166.43759" y2="150.89524" gradientUnits="userSpaceOnUse" id="color-9"><stop offset="0" stop-color="#ff1818"/><stop offset="1" stop-color="#e11515"/></linearGradient><linearGradient x1="202.67917" y1="121.31444" x2="202.67917" y2="150.89524" gradientUnits="userSpaceOnUse" id="color-10"><stop offset="0" stop-color="#1ce11c"/><stop offset="1" stop-color="#1acf1a"/></linearGradient><linearGradient x1="236.32468" y1="121.22321" x2="236.32468" y2="150.89524" gradientUnits="userSpaceOnUse" id="color-11"><stop offset="0" stop-color="#239eff"/><stop offset="1" stop-color="#1e8be1"/></linearGradient><linearGradient x1="265.8428" y1="121.99838" x2="265.8428" y2="150.73523" gradientUnits="userSpaceOnUse" id="color-12"><stop offset="0" stop-color="#ffe530"/><stop offset="1" stop-color="#ffd628"/></linearGradient><linearGradient x1="280.01106" y1="121.51953" x2="280.01106" y2="150.50768" gradientUnits="userSpaceOnUse" id="color-13"><stop offset="0" stop-color="#a818ff"/><stop offset="1" stop-color="#9404e4"/></linearGradient><linearGradient x1="110.99813" y1="156.0804" x2="110.99813" y2="203.32131" gradientUnits="userSpaceOnUse" id="color-14"><stop offset="0" stop-color="#0160c0"/><stop offset="1" stop-color="#23f4f4"/></linearGradient><radialGradient cx="170.83948" cy="124.46177" r="10.89844" gradientUnits="userSpaceOnUse" id="color-15"><stop offset="0" stop-color="#ff7c7c"/><stop offset="1" stop-color="#ff7c7c" stop-opacity="0"/></radialGradient><radialGradient cx="305.6078" cy="145.30865" r="13.09556" gradientUnits="userSpaceOnUse" id="color-16"><stop offset="0" stop-color="#da9dff"/><stop offset="1" stop-color="#da9dff" stop-opacity="0"/></radialGradient><linearGradient x1="236.36515" y1="157.75761" x2="236.36515" y2="171.32585" gradientUnits="userSpaceOnUse" id="color-17"><stop offset="0" stop-color="#54a7dc"/><stop offset="1" stop-color="#4fa3da"/></linearGradient><linearGradient x1="145.08165" y1="177.49669" x2="147.10756" y2="190.91278" gradientUnits="userSpaceOnUse" id="color-18"><stop offset="0" stop-color="#6dbee4"/><stop offset="1" stop-color="#9ae6f6"/></linearGradient><linearGradient x1="341.50665" y1="186.24455" x2="338.80534" y2="197.96876" gradientUnits="userSpaceOnUse" id="color-19"><stop offset="0" stop-color="#94e1f4"/><stop offset="1" stop-color="#adf7fd"/></linearGradient><linearGradient x1="285.69412" y1="177.45793" x2="286.44966" y2="189.46557" gradientUnits="userSpaceOnUse" id="color-20"><stop offset="0" stop-color="#2fcce7"/><stop offset="1" stop-color="#9be6f6"/></linearGradient><radialGradient cx="270.34731" cy="90.03554" r="7.61774" gradientUnits="userSpaceOnUse" id="color-21"><stop offset="0" stop-color="#ffffff"/><stop offset="1" stop-color="#ffffff" stop-opacity="0"/></radialGradient></defs><g transform="translate(-62.61522,-70.13933)"><g data-paper-data="{&quot;isPaintingLayer&quot;:true}" fill-rule="nonzero" stroke-linejoin="miter" stroke-miterlimit="10" stroke-dasharray="" stroke-dashoffset="0" style="mix-blend-mode: normal"><path d="M62.61522,289.86067v-219.72133h354.76956v219.72133z" fill-opacity="0.77647" fill="#000000" stroke="none" stroke-width="0" stroke-linecap="butt"/><g><g data-paper-data="{&quot;origPos&quot;:null}" stroke-linecap="butt"><path d="M226.04992,158.18525l10.17791,28.98537l-11.39018,1.75934l-1.79841,-7.69277l-8.88586,1.69608l-1.46797,5.93403l-0.17317,0.00435l-10.59184,-2.14307l8.90393,-30.57321zM247.05002,156.60118l0.53275,21.81988h0.15232l15.15572,-5.04551l0.17759,0.16716l-0.50802,12.06476l-23.58357,2.11399l-5.00151,-29.99046l12.92187,-1.29751zM290.84473,160.92318l6.8736,29.95358l-11.55674,0.45629l-0.9242,-7.84668l-9.05355,0.679l-2.13483,5.72998l-0.17264,-0.01431l-10.32085,-3.32905l12.33417,-29.36858v-0.00105zM199.20987,166.0424l0.01207,0.1479l-1.80222,9.81936l-4.7255,3.39336l9.44058,6.23035l-9.28061,5.33906l-8.42673,-10.44454l-0.28208,0.02256l0.52398,8.69396l-0.35959,1.14249l-7.07975,0.56079l-2.59337,-13.60364l-2.46368,-13.76203l16.33397,-4.46269zM315.28166,171.78064l6.82517,-9.0717l0.16881,0.02699l8.25244,6.8263l-0.044,0.30292l-9.26517,7.72411l12.03125,7.40905l-8.37291,8.02381l-8.01608,-9.52476l-7.67351,10.71672l-0.16822,-0.02698l-9.2031,-5.5084l0.02473,-0.17654l9.88818,-10.02498l-11.5051,-7.81541l7.09459,-8.71923zM169.09684,165.48268l-2.6247,8.13648l-0.14902,0.01814l-7.38814,-2.31301l-5.415,4.95481l1.82973,7.74772l7.82142,2.13161l4.73045,-5.79655l5.34408,6.70261l0.05607,0.45637l-10.27625,7.39751l-14.73736,-3.26743l-6.28643,-14.43002l5.2973,-9.85129l10.08773,-5.21537zM351.05316,178.37494l10.577,-6.55524l7.37172,9.65445l-17.13058,8.73789l-2.75012,11.89159l-13.48161,-4.93329l6.14947,-12.10441l-6.10112,-17.7799l13.59323,-1.97374zM216.97718,166.49982l-0.91595,7.19683l5.37812,-0.13141l-2.17883,-8.04075zM182.57628,166.71533l1.01386,10.71066l0.14182,-0.01102l5.58921,-2.34817l0.84175,-6.40247l-7.59817,-2.09472zM280.8582,168.15745l-1.72801,7.04676l5.37812,0.47886l-1.26393,-8.23543l-0.5416,-0.03298l-0.41618,-0.00104zM136.68408,170.40832l-1.53229,8.19254l-0.17264,0.05337l-9.75235,-1.34429l-1.6571,4.54461l19.87523,3.26968l-3.2136,12.74428l-13.58603,5.52774l-12.14062,-3.4654l-0.05277,-0.17046l1.94683,-7.46512l0.32106,-0.09902l11.21589,2.22726l2.13378,-4.66449l-19.06376,-3.36037l-0.04506,-0.14573l2.30365,-10.78149l12.90597,-6.68005z" fill="#3bb2ff" stroke="url(#color-1)" stroke-width="11.00161"/><path d="M204.4676,94.41569l-2.65663,5.00481h-0.12369l-6.10989,-2.8232l-2.00185,2.61593l12.34459,6.0973l-4.67543,7.62179l-10.00691,0.86595l-7.24413,-4.67655v-0.12151l2.78145,-4.45227h0.22983l6.88949,3.68968l2.33775,-2.59727l-11.79482,-5.99445v-0.1039l3.68308,-6.52997l9.7947,-1.74945zM250.49173,96.84032l-2.01887,7.11932l-4.25047,3.49838l-5.91582,-0.32825l-0.22983,6.2353l-6.26986,0.43321l-0.67301,-3.72432l-1.22217,-16.62924l12.85815,-2.18213zM271.98064,93.5316l-1.70058,6.08021l-8.90836,-2.39052l-1.82479,3.9327h0.12482l8.04082,-0.71086l0.12316,0.2425l-1.09744,5.47325l-6.81858,-0.95231l0.10607,2.97995v0.60531l0.12376,0.2425l9.15633,-0.72691l0.85051,5.36935l-0.12369,0.12152l-16.32954,-1.07428l-2.56871,-7.15343l3.29494,-14.30798zM292.23024,96.70172v0.10398l-1.93085,6.77293l-3.73699,2.11286l6.69429,4.88502l-7.26115,3.22177l-5.68493,-7.77801h-0.21274l-0.12429,6.11544l-0.33642,0.7796h-5.33037l-1.13417,-9.66652l-1.02757,-9.76936l12.48642,-2.21683zM216.78198,91.88552l-1.09736,12.90545l4.94042,0.65809l1.45313,-11.41492l7.40305,1.61092l-1.59383,11.81296l-5.47325,6.2886l-10.82062,-1.87096l-4.23345,-4.57326l0.7796,-15.67693zM279.74374,96.2509l0.12316,7.55312h0.10667l4.32198,-1.33379l1.00943,-4.43465l-5.56125,-1.88805zM237.97068,103.40545l4.35654,-0.88357l1.00943,-4.26089l-5.36597,-2.07883z" fill="#ececec" stroke="url(#color-2)" stroke-width="11.00161"/><g stroke-width="11.00161"><path d="M290.81054,121.81937l10.87452,3.60392l6.33035,9.89748l-4.17408,12.45291l-12.70636,3.03384l-10.68921,-7.02532l-0.34798,-12.9544l-0.16169,-0.52391l10.71231,-8.48452zM290.13813,132.47055l-0.48762,7.73183l5.95981,1.32285l2.13266,-7.09406l-7.60485,-2.12059z" fill="#9404e4" stroke="url(#color-3)"/><path d="M277.40705,124.30555l-4.1504,26.72956l-7.48881,-0.66033l1.66857,-28.07655z" fill="#fbc211" stroke="url(#color-4)"/><path d="M262.54321,128.6841v0.13636l-2.52793,8.91833l-4.89214,2.78249l8.76435,6.43207l-9.50654,4.2417l-7.44264,-10.23997h-0.27818l-0.16222,8.05012l-0.4404,1.02652h-6.97967l-1.48394,-12.72674l-1.34421,-12.8631l16.34657,-2.91885zM246.19606,128.09148l0.16222,9.94365h0.13965l5.65795,-1.75657l1.32119,-5.8383l-7.28101,-2.48625z" fill="#0492d0" stroke="url(#color-5)"/><path d="M225.81394,123.75744l8.85671,26.11427l-10.68862,1.32337l-1.50643,-6.9104l-8.34704,1.32225l-1.50755,5.26927h-0.16222l-9.8546,-2.14472l9.02058,-27.11719zM217.14307,130.98782l-1.02038,6.40839h5.03119l-1.85448,-7.22982z" fill="#10d004" stroke="url(#color-6)"/><path d="M183.26563,122.3208l3.08324,8.5307h0.13966l4.61396,-7.02532h0.13852l6.28418,0.84444l3.77987,25.42987l-9.92439,1.09459l-0.13966,-0.27376l-0.55584,-14.16286h-0.13853l-5.72781,4.94822h-0.1386l-3.91839,-6.0434h-0.13966l-4.89266,13.61579h-0.27758l-9.08931,-4.26479v-0.13688l10.34116,-23.37803z" fill="#e10404" stroke="url(#color-7)"/></g><g stroke="none"><g><path d="M204.50508,94.15333l-2.65663,5.0048h-0.12369l-6.10989,-2.8232l-2.00185,2.61593l12.34459,6.0973l-4.67542,7.62179l-10.00692,0.86595l-7.24413,-4.67655v-0.12152l2.78145,-4.45226h0.22983l6.88949,3.68968l2.33775,-2.59726l-11.79482,-5.99445v-0.10389l3.68309,-6.52998l9.7947,-1.74945zM250.52921,96.57796l-2.01887,7.11932l-4.25047,3.49838l-5.91581,-0.32826l-0.22983,6.2353l-6.26986,0.43321l-0.673,-3.72431l-1.22217,-16.62925l12.85815,-2.18213zM272.01813,93.26923l-1.70058,6.0802l-8.90836,-2.39052l-1.82479,3.9327h0.12481l8.04082,-0.71086l0.12316,0.2425l-1.09743,5.47325l-6.81858,-0.95232l0.10607,2.97995v0.60531l0.12376,0.2425l9.15632,-0.7269l0.85052,5.36934l-0.12369,0.12152l-16.32955,-1.07428l-2.56871,-7.15343l3.29494,-14.30799zM292.2677,96.43935v0.10397l-1.93086,6.77293l-3.73698,2.11287l6.69429,4.88501l-7.26115,3.22178l-5.68493,-7.77801h-0.21274l-0.12428,6.11543l-0.33643,0.7796h-5.33037l-1.13416,-9.66651l-1.02757,-9.76936l12.48642,-2.21684zM216.81946,91.62315l-1.09736,12.90545l4.94042,0.65809l1.45313,-11.41492l7.40305,1.61093l-1.59383,11.81296l-5.47324,6.2886l-10.82062,-1.87096l-4.23346,-4.57326l0.7796,-15.67693zM279.78123,95.98854l0.12316,7.55312h0.10667l4.32198,-1.33379l1.00943,-4.43465l-5.56124,-1.88806zM238.00816,103.14309l4.35654,-0.88357l1.00943,-4.26089l-5.36597,-2.07883z" fill="url(#color-8)" stroke-width="1.19633"/><path d="M183.34059,122.02095l3.08325,8.53069h0.13965l4.61396,-7.02532h0.13853l6.28418,0.84444l3.77986,25.42987l-9.92439,1.09459l-0.13965,-0.27376l-0.55584,-14.16286h-0.13853l-5.72781,4.94821h-0.1386l-3.91839,-6.04339h-0.13966l-4.89266,13.61578h-0.27759l-9.08931,-4.26478v-0.13688l10.34117,-23.37803z" fill="url(#color-9)" stroke-width="1.57068"/><path d="M225.88891,123.45759l8.85671,26.11428l-10.68861,1.32337l-1.50643,-6.9104l-8.34704,1.32225l-1.50755,5.26927h-0.16222l-9.85459,-2.14472l9.02057,-27.11719zM217.21803,130.688l-1.02038,6.40839h5.03119l-1.85448,-7.22982z" fill="url(#color-10)" stroke-width="1.57068"/><path d="M262.61818,128.38428v0.13635l-2.52793,8.91832l-4.89214,2.7825l8.76436,6.43207l-9.50655,4.24169l-7.44263,-10.23997h-0.27818l-0.16222,8.05012l-0.4404,1.02652h-6.97967l-1.48394,-12.72674l-1.34421,-12.8631l16.34657,-2.91885zM246.27102,127.79164l0.16221,9.94364h0.13966l5.65795,-1.75657l1.3212,-5.8383l-7.28102,-2.48625z" fill="url(#color-11)" stroke-width="1.57068"/><path d="M277.48201,124.00571l-4.1504,26.72956l-7.48881,-0.66033l1.66857,-28.07655z" fill="url(#color-12)" stroke-width="1.57068"/><path d="M290.8855,121.51953l10.87452,3.60393l6.33035,9.89747l-4.17408,12.45291l-12.70636,3.03384l-10.68921,-7.02532l-0.34797,-12.9544l-0.1617,-0.5239l10.71231,-8.48453zM290.2131,132.17073l-0.48763,7.73184l5.95982,1.32285l2.13265,-7.09406l-7.60485,-2.12059z" fill="url(#color-13)" stroke-width="1.57068"/><path d="M226.0874,158.11028l10.17791,28.98538l-11.39018,1.75934l-1.79841,-7.69277l-8.88586,1.69607l-1.46797,5.93403l-0.17316,0.00435l-10.59184,-2.14308l8.90393,-30.57321zM247.0875,156.52625l0.53275,21.81988h0.15233l15.15572,-5.04551l0.17759,0.16716l-0.50802,12.06476l-23.58357,2.11399l-5.00151,-29.99046l12.92187,-1.29751zM290.8822,160.84823l6.8736,29.95358l-11.55674,0.45629l-0.9242,-7.84667l-9.05355,0.679l-2.13483,5.72998l-0.17263,-0.01432l-10.32086,-3.32904l12.33417,-29.36858v-0.00105zM199.24735,165.96742l0.01207,0.1479l-1.80223,9.81936l-4.7255,3.39336l9.44059,6.23035l-9.28062,5.33906l-8.42673,-10.44454l-0.28208,0.02257l0.52398,8.69396l-0.35959,1.14249l-7.07974,0.56078l-2.59337,-13.60364l-2.46369,-13.76204l16.33397,-4.46268zM315.31914,171.70568l6.82517,-9.07169l0.16881,0.02698l8.25244,6.8263l-0.044,0.30292l-9.26517,7.72411l12.03125,7.40905l-8.3729,8.0238l-8.01608,-9.52476l-7.67352,10.71672l-0.16821,-0.02699l-9.20311,-5.5084l0.02473,-0.17654l9.88818,-10.02498l-11.5051,-7.81542l7.09458,-8.71922zM169.13433,165.40769l-2.6247,8.13648l-0.14902,0.01814l-7.38814,-2.31301l-5.415,4.95481l1.82973,7.74772l7.82141,2.13161l4.73045,-5.79655l5.34408,6.70261l0.05608,0.45637l-10.27626,7.3975l-14.73736,-3.26743l-6.28643,-14.43002l5.29731,-9.85129l10.08772,-5.21538zM351.09064,178.29997l10.577,-6.55523l7.37172,9.65444l-17.13058,8.73789l-2.75011,11.89159l-13.48161,-4.93329l6.14947,-12.10441l-6.10112,-17.7799l13.59322,-1.97373zM217.01466,166.42487l-0.91595,7.19683l5.37811,-0.13141l-2.17883,-8.04075zM182.61376,166.64038l1.01385,10.71066l0.14183,-0.01102l5.58921,-2.34817l0.84174,-6.40246l-7.59817,-2.09473zM280.89568,168.08249l-1.72802,7.04676l5.37811,0.47886l-1.26392,-8.23542l-0.5416,-0.03298l-0.41619,-0.00105zM136.72156,170.33336l-1.53229,8.19255l-0.17264,0.05337l-9.75234,-1.34428l-1.6571,4.54462l19.87523,3.26967l-3.21361,12.74428l-13.58603,5.52774l-12.14062,-3.4654l-0.05277,-0.17046l1.94682,-7.46512l0.32106,-0.09903l11.21589,2.22726l2.13378,-4.66448l-19.06377,-3.36038l-0.04505,-0.14572l2.30365,-10.78149l12.90597,-6.68005z" fill="url(#color-14)" stroke-width="1.73862"/></g></g></g><path d="M170.17607,118.70914l0.56476,-3.91119l0.76408,4.13683l1.16265,2.33168l1.06303,1.50433l3.72072,0.67698l-3.55461,1.39144l-1.5613,2.2565l-0.59797,2.3693l-0.73087,2.70769l-0.7308,-2.6325l-1.09632,-2.63257l-1.49488,-1.9556l-2.98984,-1.05299l3.05625,-1.05306l1.661,-1.76752z" data-paper-data="{&quot;origPos&quot;:null}" fill="url(#color-15)" stroke="none" stroke-width="0.94667" stroke-linecap="round"/><path d="M304.04688,138.76331l0.71753,-4.96958l0.97082,5.25623l1.47727,2.96263l1.35073,1.91137l4.72745,0.86011l-4.51643,1.76797l-1.98379,2.86705l-0.75981,3.01038l-0.92855,3.44044l-0.92862,-3.34486l-1.39293,-3.34485l-1.89938,-2.48475l-3.79883,-1.33799l3.88324,-1.33791l2.11046,-2.24585z" data-paper-data="{&quot;origPos&quot;:null}" fill="url(#color-16)" stroke="none" stroke-width="1.20282" stroke-linecap="round"/><path d="M212.86644,159.45185l0.22489,0.22488" data-paper-data="{&quot;origPos&quot;:null}" fill="none" stroke="#4fa3da" stroke-width="2" stroke-linecap="round"/><path d="M223.92326,163.76216l0.22489,0.22489" data-paper-data="{&quot;origPos&quot;:null}" fill="none" stroke="#4fa3da" stroke-width="2" stroke-linecap="round"/><path d="M212.11682,166.38579l0.22489,0.22488" data-paper-data="{&quot;origPos&quot;:null}" fill="none" stroke="#4fa3da" stroke-width="2" stroke-linecap="round"/><path d="M213.80346,172.57014l0.22488,0.22488" data-paper-data="{&quot;origPos&quot;:null}" fill="none" stroke="#54a7dc" stroke-width="2" stroke-linecap="round"/><path d="M208.18134,175.756l0.22489,0.22489" data-paper-data="{&quot;origPos&quot;:null}" fill="none" stroke="#72c2e7" stroke-width="2" stroke-linecap="round"/><path d="M210.05538,182.50254l0.22488,0.22489" data-paper-data="{&quot;origPos&quot;:null}" fill="none" stroke="#88d6f0" stroke-width="2" stroke-linecap="round"/><path d="M205.03296,185.16367l-0.22489,-0.22488" data-paper-data="{&quot;origPos&quot;:null}" fill="none" stroke="#94e1f4" stroke-width="2" stroke-linecap="round"/><path d="M218.33864,177.29272l-0.22489,-0.22489" data-paper-data="{&quot;origPos&quot;:null}" fill="none" stroke="#72c2e7" stroke-width="2" stroke-linecap="round"/><path d="M224.52296,169.79656l-0.22489,-0.22489" data-paper-data="{&quot;origPos&quot;:null}" fill="none" stroke="#54a7dc" stroke-width="2" stroke-linecap="round"/><path d="M229.02065,175.60607l-0.22489,-0.22489" data-paper-data="{&quot;origPos&quot;:null}" fill="none" stroke="#72c2e7" stroke-width="2" stroke-linecap="round"/><path d="M224.48547,179.69148l0.22489,0.22489" data-paper-data="{&quot;origPos&quot;:null}" fill="none" stroke="#88d6f0" stroke-width="2" stroke-linecap="round"/><path d="M227.85874,185.68841l0.22489,0.22488" data-paper-data="{&quot;origPos&quot;:null}" fill="none" stroke="#94e1f4" stroke-width="2" stroke-linecap="round"/><path d="M231.4569,182.72743l-0.22489,-0.22489" data-paper-data="{&quot;origPos&quot;:null}" fill="none" stroke="#94e1f4" stroke-width="2" stroke-linecap="round"/><path d="M227.67134,182.31514l0.22489,0.22488" data-paper-data="{&quot;origPos&quot;:null}" fill="none" stroke="#88d6f0" stroke-width="2" stroke-linecap="round"/><path d="M211.92942,185.1262l0.22489,0.22488" data-paper-data="{&quot;origPos&quot;:null}" fill="none" stroke="#94e1f4" stroke-width="2" stroke-linecap="round"/><path d="M193.18903,186.81282l0.22489,0.22489" data-paper-data="{&quot;origPos&quot;:null}" fill="none" stroke="#94e1f4" stroke-width="2" stroke-linecap="round"/><path d="M197.31191,185.31359l0.22489,0.22488" data-paper-data="{&quot;origPos&quot;:null}" fill="none" stroke="#94e1f4" stroke-width="2" stroke-linecap="round"/><path d="M191.12759,183.25215l0.22489,0.22489" data-paper-data="{&quot;origPos&quot;:null}" fill="none" stroke="#88d6f0" stroke-width="2" stroke-linecap="round"/><path d="M187.37952,181.19072l0.22489,0.22489" data-paper-data="{&quot;origPos&quot;:null}" fill="none" stroke="#88d6f0" stroke-width="2" stroke-linecap="round"/><path d="M192.10209,177.48012l-0.22489,-0.22488" data-paper-data="{&quot;origPos&quot;:null}" fill="none" stroke="#72c2e7" stroke-width="2" stroke-linecap="round"/><path d="M180.25817,180.06629l0.22488,0.22489" data-paper-data="{&quot;origPos&quot;:null}" fill="none" stroke="#88d6f0" stroke-width="2" stroke-linecap="round"/><path d="M177.85941,184.03926l-0.22489,-0.22489" data-paper-data="{&quot;origPos&quot;:null}" fill="none" stroke="#88d6f0" stroke-width="2" stroke-linecap="round"/><path d="M182.16969,186.66291l-0.22489,-0.22488" data-paper-data="{&quot;origPos&quot;:null}" fill="none" stroke="#94e1f4" stroke-width="2" stroke-linecap="round"/><path d="M178.57153,188.12465l0.22489,0.22489" data-paper-data="{&quot;origPos&quot;:null}" fill="none" stroke="#94e1f4" stroke-width="2" stroke-linecap="round"/><path d="M158.93161,187.22512l-0.22489,-0.22488" data-paper-data="{&quot;origPos&quot;:null}" fill="none" stroke="#8ad8f0" stroke-width="2" stroke-linecap="round"/><path d="M156.83269,189.9987l0.22488,0.22488" data-paper-data="{&quot;origPos&quot;:null}" fill="none" stroke="#9ae6f6" stroke-width="2" stroke-linecap="round"/><path d="M164.51624,187.00023l0.22489,0.22488" data-paper-data="{&quot;origPos&quot;:null}" fill="none" stroke="#8ad8f0" stroke-width="2" stroke-linecap="round"/><path d="M170.70057,185.87581l0.22489,0.22489" data-paper-data="{&quot;origPos&quot;:null}" fill="none" stroke="#8ad8f0" stroke-width="2" stroke-linecap="round"/><path d="M167.55219,188.53694l-0.22488,-0.22488" data-paper-data="{&quot;origPos&quot;:null}" fill="none" stroke="#9ae6f6" stroke-width="2" stroke-linecap="round"/><path d="M164.55372,190.97319l-0.22488,-0.22489" data-paper-data="{&quot;origPos&quot;:null}" fill="none" stroke="#9ae6f6" stroke-width="2" stroke-linecap="round"/><path d="M125.91106,187.18764l0.22489,0.22489" data-paper-data="{&quot;origPos&quot;:null}" fill="none" stroke="#7ccbeb" stroke-width="2" stroke-linecap="round"/><path d="M134.19431,185.91328l-0.22489,-0.22488" data-paper-data="{&quot;origPos&quot;:null}" fill="none" stroke="#8ad8f0" stroke-width="2" stroke-linecap="round"/><path d="M130.82104,188.34954l-0.22489,-0.22489" data-paper-data="{&quot;origPos&quot;:null}" fill="none" stroke="#8ad8f0" stroke-width="2" stroke-linecap="round"/><path d="M134.15683,190.1861l0.22489,0.22489" data-paper-data="{&quot;origPos&quot;:null}" fill="none" stroke="#93e0f4" stroke-width="2" stroke-linecap="round"/><path d="M131.57066,193.40943l-0.22489,-0.22488" data-paper-data="{&quot;origPos&quot;:null}" fill="none" stroke="#9ae6f6" stroke-width="2" stroke-linecap="round"/><path d="M134.94393,196.2205l-0.22489,-0.22488" data-paper-data="{&quot;origPos&quot;:null}" fill="none" stroke="#b0faff" stroke-width="2" stroke-linecap="round"/><path d="M130.25883,197.90714l-0.22489,-0.22489" data-paper-data="{&quot;origPos&quot;:null}" fill="none" stroke="#b0faff" stroke-width="2" stroke-linecap="round"/><path d="M125.53624,197.12004l0.22489,0.22489" data-paper-data="{&quot;origPos&quot;:null}" fill="none" stroke="#b0faff" stroke-width="2" stroke-linecap="round"/><path d="M125.34885,200.49331l0.22488,0.22489" data-paper-data="{&quot;origPos&quot;:null}" fill="none" stroke="#b0faff" stroke-width="2" stroke-linecap="round"/><path d="M121.07603,199.40637l-0.22488,-0.22489" data-paper-data="{&quot;origPos&quot;:null}" fill="none" stroke="#b0faff" stroke-width="2" stroke-linecap="round"/><path d="M118.07758,195.65828l-0.22489,-0.22488" data-paper-data="{&quot;origPos&quot;:null}" fill="none" stroke="#b0faff" stroke-width="2" stroke-linecap="round"/><path d="M121.78817,194.68379l0.22489,0.22488" data-paper-data="{&quot;origPos&quot;:null}" fill="none" stroke="#b0faff" stroke-width="2" stroke-linecap="round"/><path d="M137.75498,194.53387l-0.22489,-0.22489" data-paper-data="{&quot;origPos&quot;:null}" fill="none" stroke="#b0faff" stroke-width="2" stroke-linecap="round"/><path d="M139.40413,187.37504l0.22489,0.22489" data-paper-data="{&quot;origPos&quot;:null}" fill="none" stroke="#8ad8f0" stroke-width="2" stroke-linecap="round"/><path d="M137.53009,190.56091l0.22489,0.22488" data-paper-data="{&quot;origPos&quot;:null}" fill="none" stroke="#93e0f4" stroke-width="2" stroke-linecap="round"/><path d="M239.10298,178.19225l0.22488,0.22489" data-paper-data="{&quot;origPos&quot;:null}" fill="none" stroke="#72c2e7" stroke-width="2" stroke-linecap="round"/><path d="M245.51219,178.04233l-0.22489,-0.22489" data-paper-data="{&quot;origPos&quot;:null}" fill="none" stroke="#72c2e7" stroke-width="2" stroke-linecap="round"/><path d="M241.53922,184.9388l0.22488,0.22488" data-paper-data="{&quot;origPos&quot;:null}" fill="none" stroke="#94e1f4" stroke-width="2" stroke-linecap="round"/><path d="M245.32478,182.54002l-0.22488,-0.22488" data-paper-data="{&quot;origPos&quot;:null}" fill="none" stroke="#88d6f0" stroke-width="2" stroke-linecap="round"/><path d="M249.78499,183.81437l0.22489,0.22489" data-paper-data="{&quot;origPos&quot;:null}" fill="none" stroke="#94e1f4" stroke-width="2" stroke-linecap="round"/><path d="M252.59606,178.75446l0.22488,0.22489" data-paper-data="{&quot;origPos&quot;:null}" fill="none" stroke="#72c2e7" stroke-width="2" stroke-linecap="round"/><path d="M259.56747,176.91791l-0.22489,-0.22489" data-paper-data="{&quot;origPos&quot;:null}" fill="none" stroke="#72c2e7" stroke-width="2" stroke-linecap="round"/><path d="M259.52999,181.56552l0.22489,0.22488" data-paper-data="{&quot;origPos&quot;:null}" fill="none" stroke="#88d6f0" stroke-width="2" stroke-linecap="round"/><path d="M256.75642,184.41406l-0.22488,-0.22488" data-paper-data="{&quot;origPos&quot;:null}" fill="none" stroke="#94e1f4" stroke-width="2" stroke-linecap="round"/><path d="M268.15056,185.1262l0.22488,0.22488" data-paper-data="{&quot;origPos&quot;:null}" fill="none" stroke="#94e1f4" stroke-width="2" stroke-linecap="round"/><path d="M268.18805,180.29118l-0.22488,-0.22489" data-paper-data="{&quot;origPos&quot;:null}" fill="none" stroke="#88d6f0" stroke-width="2" stroke-linecap="round"/><path d="M271.71124,175.38119l0.22489,0.22489" data-paper-data="{&quot;origPos&quot;:null}" fill="none" stroke="#72c2e7" stroke-width="2" stroke-linecap="round"/><path d="M271.93613,186.85031l-0.22489,-0.22489" data-paper-data="{&quot;origPos&quot;:null}" fill="none" stroke="#94e1f4" stroke-width="2" stroke-linecap="round"/><path d="M279.5822,179.12927l0.22488,0.22489" data-paper-data="{&quot;origPos&quot;:null}" fill="none" stroke="#88d6f0" stroke-width="2" stroke-linecap="round"/><path d="M276.20894,180.44109l0.22488,0.22488" data-paper-data="{&quot;origPos&quot;:null}" fill="none" stroke="#88d6f0" stroke-width="2" stroke-linecap="round"/><path d="M304.73179,188.91176l-0.22488,-0.22489" data-paper-data="{&quot;origPos&quot;:null}" fill="none" stroke="#9be7f7" stroke-width="2" stroke-linecap="round"/><path d="M308.06759,185.1262l0.22488,0.22488" data-paper-data="{&quot;origPos&quot;:null}" fill="none" stroke="#94e1f4" stroke-width="2" stroke-linecap="round"/><path d="M308.47987,189.47396l-0.22488,-0.22488" data-paper-data="{&quot;origPos&quot;:null}" fill="none" stroke="#9be7f7" stroke-width="2" stroke-linecap="round"/><path d="M310.69124,181.94033l0.22489,0.22489" data-paper-data="{&quot;origPos&quot;:null}" fill="none" stroke="#88d6f0" stroke-width="2" stroke-linecap="round"/><path d="M315.00153,181.94033l0.22488,0.22489" data-paper-data="{&quot;origPos&quot;:null}" fill="none" stroke="#88d6f0" stroke-width="2" stroke-linecap="round"/><path d="M321.03593,183.10222l-0.22488,-0.22488" data-paper-data="{&quot;origPos&quot;:null}" fill="none" stroke="#94e1f4" stroke-width="2" stroke-linecap="round"/><path d="M317.43777,179.87888l0.22489,0.22489" data-paper-data="{&quot;origPos&quot;:null}" fill="none" stroke="#88d6f0" stroke-width="2" stroke-linecap="round"/><path d="M322.87249,187.74985l0.22488,0.22488" data-paper-data="{&quot;origPos&quot;:null}" fill="none" stroke="#9be7f7" stroke-width="2" stroke-linecap="round"/><path d="M326.84545,187.03772l-0.22488,-0.22489" data-paper-data="{&quot;origPos&quot;:null}" fill="none" stroke="#9be7f7" stroke-width="2" stroke-linecap="round"/><path d="M325.90843,183.66445l-0.22489,-0.22488" data-paper-data="{&quot;origPos&quot;:null}" fill="none" stroke="#94e1f4" stroke-width="2" stroke-linecap="round"/><path d="M348.7717,187.22512l-0.22488,-0.22488" data-paper-data="{&quot;origPos&quot;:null}" fill="none" stroke="#94e1f4" stroke-width="2" stroke-linecap="round"/><path d="M343.71179,185.16367l-0.22488,-0.22488" data-paper-data="{&quot;origPos&quot;:null}" fill="none" stroke="#94e1f4" stroke-width="2" stroke-linecap="round"/><path d="M343.52439,179.72897l-0.22488,-0.22489" data-paper-data="{&quot;origPos&quot;:null}" fill="none" stroke="#72c2e7" stroke-width="2" stroke-linecap="round"/><path d="M348.20949,177.85492l-0.22488,-0.22489" data-paper-data="{&quot;origPos&quot;:null}" fill="none" stroke="#72c2e7" stroke-width="2" stroke-linecap="round"/><path d="M351.58276,183.66445l-0.22488,-0.22488" data-paper-data="{&quot;origPos&quot;:null}" fill="none" stroke="#94e1f4" stroke-width="2" stroke-linecap="round"/><path d="M358.5167,178.79195l-0.22488,-0.22489" data-paper-data="{&quot;origPos&quot;:null}" fill="none" stroke="#72c2e7" stroke-width="2" stroke-linecap="round"/><path d="M362.63959,175.41868l-0.22488,-0.22489" data-paper-data="{&quot;origPos&quot;:null}" fill="none" stroke="#72c2e7" stroke-width="2" stroke-linecap="round"/><path d="M363.76401,179.91637l-0.22488,-0.22489" data-paper-data="{&quot;origPos&quot;:null}" fill="none" stroke="#72c2e7" stroke-width="2" stroke-linecap="round"/><path d="M357.72961,182.87735l0.22488,0.22488" data-paper-data="{&quot;origPos&quot;:null}" fill="none" stroke="#94e1f4" stroke-width="2" stroke-linecap="round"/><path d="M345.17355,170.6961l0.22489,0.22488" data-paper-data="{&quot;origPos&quot;:null}" fill="none" stroke="#54a7dc" stroke-width="2" stroke-linecap="round"/><path d="M338.4645,168.85955l-0.22489,-0.22489" data-paper-data="{&quot;origPos&quot;:null}" fill="none" stroke="#54a7dc" stroke-width="2" stroke-linecap="round"/><path d="M303.38249,170.32129l0.22488,0.22489" data-paper-data="{&quot;origPos&quot;:null}" fill="none" stroke="#54a7dc" stroke-width="2" stroke-linecap="round"/><path d="M305.81874,165.82358l0.22488,0.22488" data-paper-data="{&quot;origPos&quot;:null}" fill="none" stroke="#4fa3da" stroke-width="2" stroke-linecap="round"/><path d="M310.50383,172.94495l0.22489,0.22489" data-paper-data="{&quot;origPos&quot;:null}" fill="none" stroke="#72c2e7" stroke-width="2" stroke-linecap="round"/><path d="M314.4768,177.10531l-0.22488,-0.22489" data-paper-data="{&quot;origPos&quot;:null}" fill="none" stroke="#72c2e7" stroke-width="2" stroke-linecap="round"/><path d="M319.34929,172.04541l-0.22488,-0.22489" data-paper-data="{&quot;origPos&quot;:null}" fill="none" stroke="#54a7dc" stroke-width="2" stroke-linecap="round"/><path d="M323.65957,167.17287l-0.22488,-0.22489" data-paper-data="{&quot;origPos&quot;:null}" fill="none" stroke="#54a7dc" stroke-width="2" stroke-linecap="round"/><path d="M324.97141,171.4832l-0.22488,-0.22488" data-paper-data="{&quot;origPos&quot;:null}" fill="none" stroke="#54a7dc" stroke-width="2" stroke-linecap="round"/><path d="M286.17881,172.98242l-0.22488,-0.22488" data-paper-data="{&quot;origPos&quot;:null}" fill="none" stroke="#72c2e7" stroke-width="2" stroke-linecap="round"/><path d="M288.9524,165.07399l0.22488,0.22488" data-paper-data="{&quot;origPos&quot;:null}" fill="none" stroke="#4fa3da" stroke-width="2" stroke-linecap="round"/><path d="M284.26729,162.07552l0.22488,0.22489" data-paper-data="{&quot;origPos&quot;:null}" fill="none" stroke="#4fa3da" stroke-width="2" stroke-linecap="round"/><path d="M289.73949,170.54618l-0.22488,-0.22489" data-paper-data="{&quot;origPos&quot;:null}" fill="none" stroke="#54a7dc" stroke-width="2" stroke-linecap="round"/><path d="M277.55825,172.60762l-0.22489,-0.22488" data-paper-data="{&quot;origPos&quot;:null}" fill="none" stroke="#72c2e7" stroke-width="2" stroke-linecap="round"/><path d="M273.81016,169.04695l-0.22488,-0.22489" data-paper-data="{&quot;origPos&quot;:null}" fill="none" stroke="#54a7dc" stroke-width="2" stroke-linecap="round"/><path d="M277.14595,166.76061l0.22488,0.22488" data-paper-data="{&quot;origPos&quot;:null}" fill="none" stroke="#4fa3da" stroke-width="2" stroke-linecap="round"/><path d="M276.62122,160.23897l-0.22488,-0.22489" data-paper-data="{&quot;origPos&quot;:null}" fill="none" stroke="#4fa3da" stroke-width="2" stroke-linecap="round"/><path d="M238.76565,172.23281l-0.22489,-0.22488" data-paper-data="{&quot;origPos&quot;:null}" fill="none" stroke="#54a7dc" stroke-width="2" stroke-linecap="round"/><path d="M245.88699,171.858l-0.22488,-0.22489" data-paper-data="{&quot;origPos&quot;:null}" fill="none" stroke="#54a7dc" stroke-width="2" stroke-linecap="round"/><path d="M192.1021,164.73665l-0.22489,-0.22489" data-paper-data="{&quot;origPos&quot;:null}" fill="none" stroke="#4fa3da" stroke-width="2" stroke-linecap="round"/><path d="M196.03757,169.98397l-0.22489,-0.22489" data-paper-data="{&quot;origPos&quot;:null}" fill="none" stroke="#54a7dc" stroke-width="2" stroke-linecap="round"/><path d="M182.50701,162.63772l0.22489,0.22489" data-paper-data="{&quot;origPos&quot;:null}" fill="none" stroke="#4fa3da" stroke-width="2" stroke-linecap="round"/><path d="M174.63605,165.07396l0.22489,0.22488" data-paper-data="{&quot;origPos&quot;:null}" fill="none" stroke="#4fa3da" stroke-width="2" stroke-linecap="round"/><path d="M180.10825,169.23436l-0.22489,-0.22489" data-paper-data="{&quot;origPos&quot;:null}" fill="none" stroke="#54a7dc" stroke-width="2" stroke-linecap="round"/><path d="M176.51009,176.13081l0.22489,0.22489" data-paper-data="{&quot;origPos&quot;:null}" fill="none" stroke="#72c2e7" stroke-width="2" stroke-linecap="round"/><path d="M151.62286,174.48166l-0.22489,-0.22489" data-paper-data="{&quot;origPos&quot;:null}" fill="none" stroke="#6dbee5" stroke-width="2" stroke-linecap="round"/><path d="M152.52239,167.69763l0.22489,0.22489" data-paper-data="{&quot;origPos&quot;:null}" fill="none" stroke="#4fa3da" stroke-width="2" stroke-linecap="round"/><path d="M160.61825,166.61068l-0.22489,-0.22488" data-paper-data="{&quot;origPos&quot;:null}" fill="none" stroke="#4fa3da" stroke-width="2" stroke-linecap="round"/><path d="M146.75036,174.48166l-0.22489,-0.22489" data-paper-data="{&quot;origPos&quot;:null}" fill="none" stroke="#6dbee5" stroke-width="2" stroke-linecap="round"/><path d="M117.70276,184.41406l-0.22488,-0.22488" data-paper-data="{&quot;origPos&quot;:null}" fill="none" stroke="#7ccbeb" stroke-width="2" stroke-linecap="round"/><path d="M122.76266,184.22666l-0.22488,-0.22489" data-paper-data="{&quot;origPos&quot;:null}" fill="none" stroke="#7ccbeb" stroke-width="2" stroke-linecap="round"/><path d="M114.70431,179.91637l-0.22489,-0.22489" data-paper-data="{&quot;origPos&quot;:null}" fill="none" stroke="#6dbee5" stroke-width="2" stroke-linecap="round"/><path d="M120.70123,175.04387l-0.22489,-0.22488" data-paper-data="{&quot;origPos&quot;:null}" fill="none" stroke="#6dbee5" stroke-width="2" stroke-linecap="round"/><path d="M121.82566,179.16675l-0.22489,-0.22489" data-paper-data="{&quot;origPos&quot;:null}" fill="none" stroke="#6dbee5" stroke-width="2" stroke-linecap="round"/><path d="M127.82258,172.42022l-0.22489,-0.22489" data-paper-data="{&quot;origPos&quot;:null}" fill="none" stroke="#6dbee5" stroke-width="2" stroke-linecap="round"/><path d="M133.81949,175.23127l-0.22489,-0.22489" data-paper-data="{&quot;origPos&quot;:null}" fill="none" stroke="#6dbee5" stroke-width="2" stroke-linecap="round"/><path d="M240.64568,160.81205l0.441,-3.05431l0.5967,3.23055l0.90794,1.82082l0.8302,1.17472l2.90544,0.52863l-2.77575,1.08657l-1.21925,1.76212l-0.46701,1.8502l-0.57068,2.11444l-0.57076,-2.05574l-0.85606,-2.05575l-1.16737,-1.52712l-2.33475,-0.82233l2.38662,-0.82233l1.29713,-1.38027z" data-paper-data="{&quot;origPos&quot;:null}" fill="url(#color-17)" stroke="none" stroke-width="0.73926" stroke-linecap="round"/><path d="M149.10198,179.97859l-0.08883,-3.07545l0.97915,3.11923l1.02787,1.68626l0.86663,1.05718l2.49824,0.15735l-2.149,1.42345l-0.75216,1.89562l-0.11259,1.8882l-0.15944,2.16257l-0.78222,-1.96099l-1.01978,-1.92509l-1.20006,-1.36325l-2.06683,-0.51948l1.86451,-1.11318l0.87391,-1.52794z" data-paper-data="{&quot;origPos&quot;:null}" fill="url(#color-18)" stroke="none" stroke-width="0.69053" stroke-linecap="round"/><path d="M345.0698,189.84487l1.03784,-2.54014l-0.06169,2.92538l0.52225,1.77727l0.57503,1.20148l2.72605,1.10905l-2.92125,0.31574l-1.53888,1.24894l-0.82338,1.49391l-0.9772,1.699l-0.14685,-1.90454l-0.42489,-1.96864l-0.83357,-1.58169l-2.11144,-1.23477l2.48939,-0.17466l1.53881,-0.90149z" data-paper-data="{&quot;origPos&quot;:null}" fill="url(#color-19)" stroke="none" stroke-width="0.69347" stroke-linecap="round"/><path d="M289.78559,179.91427l0.23245,-2.7283l0.72773,2.82447l0.93365,1.55898l0.82615,0.99181l2.69052,0.30037l-2.48108,1.12157l-1.01775,1.62959l-0.32376,1.6643l-0.40404,1.9041l-0.638,-1.78634l-0.89938,-1.76999l-1.15471,-1.28417l-2.1843,-0.59317l2.13948,-0.8652l1.11048,-1.29631z" data-paper-data="{&quot;origPos&quot;:null}" fill="url(#color-20)" stroke="none" stroke-width="0.66563" stroke-linecap="round"/><path d="M269.95707,86.74585l0.41529,-2.87605l0.56183,3.04194l0.85501,1.7146l0.7817,1.10613l2.73587,0.49782l-2.61376,1.02322l-1.14811,1.6592l-0.43972,1.74226l-0.5374,1.99106l-0.53739,-1.93573l-0.80614,-1.93581l-1.09924,-1.43806l-2.19854,-0.77428l2.24742,-0.77435l1.22135,-1.29976z" data-paper-data="{&quot;origPos&quot;:null}" fill="url(#color-21)" stroke="none" stroke-width="0.69612" stroke-linecap="round"/></g><text transform="translate(120.4565,230.42584) scale(0.42723,0.42723)" font-size="40" xml:space="preserve" fill="#ffffff" fill-rule="nonzero" stroke="none" stroke-width="1" stroke-linecap="butt" stroke-linejoin="miter" stroke-miterlimit="10" stroke-dasharray="" stroke-dashoffset="0" font-family="&quot;Microsoft YaHei&quot;, &quot;微软雅黑&quot;, STXihei, &quot;华文细黑&quot;" font-weight="normal" text-anchor="start" style="mix-blend-mode: normal"><tspan x="0" dy="0">A game by the Scralaxy Team</tspan></text><text transform="translate(161.0249,247.92981) scale(0.3569,0.3569)" font-size="40" xml:space="preserve" fill="#ffffff" fill-rule="nonzero" stroke="none" stroke-width="1" stroke-linecap="butt" stroke-linejoin="miter" stroke-miterlimit="10" stroke-dasharray="" stroke-dashoffset="0" font-family="&quot;Microsoft YaHei&quot;, &quot;微软雅黑&quot;, STXihei, &quot;华文细黑&quot;" font-weight="normal" text-anchor="start" style="mix-blend-mode: normal"><tspan x="0" dy="0">Started by Pickleodeon</tspan></text><text transform="translate(173.96693,274.45583) scale(0.32398,0.32398)" font-size="40" xml:space="preserve" fill="#ffffff" fill-rule="nonzero" stroke="none" stroke-width="1" stroke-linecap="butt" stroke-linejoin="miter" stroke-miterlimit="10" stroke-dasharray="" stroke-dashoffset="0" font-family="&quot;Microsoft YaHei&quot;, &quot;微软雅黑&quot;, STXihei, &quot;华文细黑&quot;" font-weight="normal" text-anchor="start" style="mix-blend-mode: normal"><tspan x="0" dy="0">(Space/Click to close)</tspan></text></g></g></svg>