<svg version="1.1" xmlns="http://www.w3.org/2000/svg" xmlns:xlink="http://www.w3.org/1999/xlink" width="565.9143" height="367.15083" viewBox="0,0,565.9143,367.15083"><defs><linearGradient x1="-14.94633" y1="172.11822" x2="94.67538" y2="172.11822" gradientUnits="userSpaceOnUse" id="color-1"><stop offset="0" stop-color="#d1dfeb"/><stop offset="1" stop-color="#edf3f8"/></linearGradient><linearGradient x1="240.00001" y1="180.00003" x2="240.00001" y2="180.00003" gradientUnits="userSpaceOnUse" id="color-2"><stop offset="0" stop-color="#ff4040"/><stop offset="1" stop-color="#c33131"/></linearGradient><linearGradient x1="229.15115" y1="319.7802" x2="508.43043" y2="319.7802" gradientUnits="userSpaceOnUse" id="color-3"><stop offset="0" stop-color="#c9c9c9"/><stop offset="1" stop-color="#a4a4a4"/></linearGradient><linearGradient x1="-13.5966" y1="345.80123" x2="123.04004" y2="345.80123" gradientUnits="userSpaceOnUse" id="color-4"><stop offset="0" stop-color="#909090"/><stop offset="1" stop-color="#a9a9a9"/></linearGradient><linearGradient x1="185.0971" y1="346.29673" x2="483.8959" y2="346.29673" gradientUnits="userSpaceOnUse" id="color-5"><stop offset="0" stop-color="#a9a9a9"/><stop offset="1" stop-color="#737373"/></linearGradient><linearGradient x1="271.68869" y1="292.49791" x2="550.96797" y2="292.49791" gradientUnits="userSpaceOnUse" id="color-6"><stop offset="0" stop-color="#ececec"/><stop offset="1" stop-color="#c7c7c7"/></linearGradient></defs><g transform="translate(14.94633,6.58985)"><g data-paper-data="{&quot;isPaintingLayer&quot;:true}" fill-rule="nonzero" stroke="none" stroke-linecap="butt" stroke-linejoin="miter" stroke-miterlimit="10" stroke-dasharray="" stroke-dashoffset="0" style="mix-blend-mode: normal"><path d="M-14.94633,-6.58984h109.62171v205.06388c-3.49039,-0.21569 -52.67374,0.62751 -52.67374,0.62751l-21.377,18.8623c0,0 -2.33436,129.57929 -1.11786,132.86244h-34.4531z" fill="url(#color-1)" stroke-width="1.11058"/><path d="" fill="url(#color-2)" stroke-width="1.06271"/><path d="M-6.69702,332.17332h491.8912v28.13772h-491.89119z" fill="#24cc19" stroke-width="1.06271"/><path d="M229.15115,332.54296v-25.52553h279.27928v25.52553z" fill="url(#color-3)" stroke-width="0"/><path d="M-13.5966,360.06549v-28.52853h136.63664v28.52853z" fill="url(#color-4)" stroke-width="0"/><path d="M185.0971,360.56098v-28.52853h298.7988v28.52853z" fill="url(#color-5)" stroke-width="0"/><path d="M271.68869,307.51293v-30.03003h25.03003l6.00601,15.01502h248.24324v15.01501z" fill="url(#color-6)" stroke-width="0"/></g></g></svg>