<svg version="1.1" xmlns="http://www.w3.org/2000/svg" xmlns:xlink="http://www.w3.org/1999/xlink" width="532.98734" height="199.48119" viewBox="0,0,532.98734,199.48119"><defs><radialGradient cx="141.8858" cy="344.0975" r="234.4663" gradientUnits="userSpaceOnUse" id="color-1"><stop offset="0" stop-color="#6681bd"/><stop offset="1" stop-color="#45577f"/></radialGradient><radialGradient cx="109.9781" cy="306.1284" r="335.2474" gradientUnits="userSpaceOnUse" id="color-2"><stop offset="0" stop-color="#45577f"/><stop offset="1" stop-color="#1f283a"/></radialGradient><radialGradient cx="109.97811" cy="304.18883" r="329.25269" gradientUnits="userSpaceOnUse" id="color-3"><stop offset="0" stop-color="#45577f"/><stop offset="1" stop-color="#1f283a"/></radialGradient><radialGradient cx="316.0142" cy="345.3475" r="234.4663" gradientUnits="userSpaceOnUse" id="color-4"><stop offset="0" stop-color="#6681bd"/><stop offset="1" stop-color="#45577f"/></radialGradient><radialGradient cx="347.9219" cy="307.3784" r="335.2474" gradientUnits="userSpaceOnUse" id="color-5"><stop offset="0" stop-color="#45577f"/><stop offset="1" stop-color="#1f283a"/></radialGradient><radialGradient cx="364.50648" cy="305.43883" r="329.25269" gradientUnits="userSpaceOnUse" id="color-6"><stop offset="0" stop-color="#45577f"/><stop offset="1" stop-color="#1f283a"/></radialGradient><radialGradient cx="67.7068" cy="251.3172" r="322.6688" gradientUnits="userSpaceOnUse" id="color-7"><stop offset="0" stop-color="#6681bd"/><stop offset="1" stop-color="#45577f"/></radialGradient><radialGradient cx="3.17489" cy="177.8345" r="578.71786" gradientUnits="userSpaceOnUse" id="color-8"><stop offset="0" stop-color="#45577f"/><stop offset="1" stop-color="#1f283a"/></radialGradient><radialGradient cx="-102.05997" cy="176.03756" r="383.19884" gradientUnits="userSpaceOnUse" id="color-9"><stop offset="0" stop-color="#45577f"/><stop offset="1" stop-color="#1f283a"/></radialGradient></defs><g transform="translate(37.54367,-175.67421)"><g data-paper-data="{&quot;isPaintingLayer&quot;:true}" fill-rule="nonzero" stroke-linejoin="miter" stroke-miterlimit="10" stroke-dasharray="" stroke-dashoffset="0" style="mix-blend-mode: normal"><g stroke-width="1.60762"><path d="M-28.9,324.95h259.4741v45h-259.4741z" fill="url(#color-1)" stroke="#496087" stroke-linecap="butt"/><path d="M102.4587,302.95l137.8456,4l-9.7302,20l-38.0233,20.501l-47.9275,-20.501l-43.7863,29l-46.4891,-30l-45.2247,21.501l-38.0232,-20.501l-7.568,-26z" fill="url(#color-2)" stroke="url(#color-3)" stroke-linecap="round"/></g><g stroke-width="1.60762"><path d="M486.8,371.2h-259.4741v-45h259.4741z" fill="url(#color-4)" stroke="#496087" stroke-linecap="butt"/><path d="M494.368,302.2l-7.568,26l-38.0232,20.501l-45.2247,-21.501l-46.4891,30l-43.7863,-29l-47.9275,20.501l-38.0233,-20.501l-9.7302,-20l137.8456,-4z" fill="url(#color-5)" stroke="url(#color-6)" stroke-linecap="round"/></g><path d="M226,331.75h2.25v28.25h-2.25z" fill="#5971a6" stroke="none" stroke-width="1" stroke-linecap="butt"/><path d="M95.5,374.15541h-115.33934v-181.40541h115.33934z" fill="url(#color-7)" stroke="#496087" stroke-width="2" stroke-linecap="butt"/><path d="M99.45539,176.4265l-7.78472,26.0564l-40.799,20.79l-49.22868,-21.1547l-7.64499,2.02157l-0.34125,-27.21478z" fill="url(#color-8)" stroke="url(#color-9)" stroke-width="1.49508" stroke-linecap="butt"/></g></g></svg>