<svg xmlns="http://www.w3.org/2000/svg" xmlns:xlink="http://www.w3.org/1999/xlink" version="1.1" width="20.41069984436035" height="25.350000381469727" viewBox="0.010999977588653564 0.30730003118515015 20.41069984436035 25.350000381469727">
  <defs>
    <radialGradient id="grad_1" cx="0.35600000000000004" cy="0.1745" r="1.07315">
      <stop offset="0" stop-color="#BDA001" stop-opacity="1"/>
      <stop offset="1" stop-color="#BE7800" stop-opacity="1"/>
    </radialGradient>
    <radialGradient id="grad_2" cx="0.2347" cy="0.1814" r="1.0641800000000001">
      <stop offset="0" stop-color="#FFFF00" stop-opacity="1"/>
      <stop offset="1" stop-color="#FF9400" stop-opacity="1"/>
    </radialGradient>
    <radialGradient id="grad_3" cx="0.2173" cy="0.172" r="1.0764">
      <stop offset="0" stop-color="#BDA501" stop-opacity="1"/>
      <stop offset="1" stop-color="#C07801" stop-opacity="1"/>
    </radialGradient>
  <radialGradient id="grad_1-0.3477363586425781,0,0,0.4802761673927307,93.6,-74.35" cx="10.2275" cy="5.0289" r="21.1061" gradientUnits="userSpaceOnUse">
      <stop offset="0" stop-color="#BDA001" stop-opacity="1"/>
      <stop offset="1" stop-color="#BE7800" stop-opacity="1"/>
    </radialGradient><radialGradient id="grad_2-0.29690447449684143,0,0,0.4802761673927307,84.35,-74.5" cx="16.3888" cy="5.2244" r="21.5417" gradientUnits="userSpaceOnUse">
      <stop offset="0" stop-color="#FFFF00" stop-opacity="1"/>
      <stop offset="1" stop-color="#FF9400" stop-opacity="1"/>
    </radialGradient><radialGradient id="grad_3-0.5212793946266174,0,0,0.4802761673927307,138.1,-74.35" cx="13.5667" cy="6.7668" r="14.8645" gradientUnits="userSpaceOnUse">
      <stop offset="0" stop-color="#BDA501" stop-opacity="1"/>
      <stop offset="1" stop-color="#C07801" stop-opacity="1"/>
    </radialGradient></defs>
  <!-- Exported by Scratch - http://scratch.mit.edu/ -->
  <path id="ID0.7142658131197095" fill="url(#grad_1-0.3477363586425781,0,0,0.4802761673927307,93.6,-74.35)" stroke="none" d="M 9.1348 1.1254 C 6.9897 1.4477 4.6424 2.3799 3.0947 4.5258 C 1.509 6.724 0.511 9.7733 0.511 13.1323 C 0.511 16.4914 1.4603 19.6107 3.0947 21.7389 C 4.7443 23.8871 7.3117 24.1181 9.5173 24.827 C 10.2973 25.0773 11.0707 24.7819 11.8124 24.6349 C 12.68 24.4447 14.1012 25.545 14.3335 23.8184 C 15.2633 16.9121 16.3615 9.4111 14.8551 2.7343 C 14.2768 0.1711 11.0815 0.8243 9.1348 1.1254 Z " stroke-width="0.41927662234344165"/>
  <path id="ID0.7142658131197095" fill="url(#grad_2-0.29690447449684143,0,0,0.4802761673927307,84.35,-74.5)" stroke="none" d="M 12.3952 0.8073 C 10.3187 0.8073 8.4372 2.1718 7.0747 4.3758 C 5.7122 6.5797 4.8687 9.6233 4.8687 12.9823 C 4.8687 16.3414 5.7122 19.3849 7.0747 21.5889 C 8.4372 23.7928 10.3187 25.1573 12.3952 25.1573 C 14.4718 25.1573 16.3532 23.7928 17.7157 21.5889 C 19.0782 19.3849 19.9217 16.3414 19.9217 12.9823 C 19.9217 9.6233 19.0782 6.5797 17.7157 4.3758 C 16.3532 2.1718 14.4718 0.8073 12.3952 0.8073 Z " stroke-width="0.39926023089064094"/>
  <path id="ID0.06001657713204622" fill="url(#grad_3-0.5212793946266174,0,0,0.4802761673927307,138.1,-74.35)" stroke="none" d="M 14.3483 3.5988 L 10.7514 3.5988 L 10.7514 22.0174 L 14.3483 22.0174 L 14.3483 3.5988 Z " stroke-width="0.5011972686616234"/>
</svg>