<svg version="1.1" xmlns="http://www.w3.org/2000/svg" xmlns:xlink="http://www.w3.org/1999/xlink" width="191" height="246.85849" viewBox="0,0,191,246.85849"><defs><linearGradient x1="257.38211" y1="173.97254" x2="257.38211" y2="216.53457" gradientUnits="userSpaceOnUse" id="color-1"><stop offset="0" stop-color="#79de29"/><stop offset="1" stop-color="#60af1f"/></linearGradient><linearGradient x1="238.80839" y1="191.39702" x2="238.80839" y2="221.26882" gradientUnits="userSpaceOnUse" id="color-2"><stop offset="0" stop-color="#79de29"/><stop offset="1" stop-color="#60af1f"/></linearGradient><linearGradient x1="276.06705" y1="190.70619" x2="276.06705" y2="220.57798" gradientUnits="userSpaceOnUse" id="color-3"><stop offset="0" stop-color="#79de29"/><stop offset="1" stop-color="#60af1f"/></linearGradient></defs><g transform="translate(-158,-58.64151)"><g data-paper-data="{&quot;isPaintingLayer&quot;:true}" fill-rule="nonzero" stroke="none" stroke-linejoin="miter" stroke-miterlimit="10" stroke-dasharray="" stroke-dashoffset="0" style="mix-blend-mode: normal"><g><path d="M253.40186,173.97254h7.9605v42.56203h-7.9605z" fill="url(#color-1)" stroke-width="0.97987" stroke-linecap="butt"/><path d="M244.87712,196.70794c4.99889,3.15194 8.84788,7.0878 11.03143,10.89828c2.18339,3.81048 2.6965,7.49695 1.02192,10.15286c-1.67459,2.65592 -5.22203,3.78198 -9.60158,3.45452c-4.37955,-0.32746 -9.59018,-2.10377 -14.58906,-5.2557c-4.99906,-3.15194 -8.84805,-7.0878 -11.03143,-10.89828c-2.18356,-3.81065 -2.69668,-7.49695 -1.02209,-10.15286c1.67459,-2.65592 5.22203,-3.78198 9.60158,-3.45452c4.37955,0.32746 9.59018,2.10377 14.58924,5.2557z" fill="url(#color-2)" stroke-width="2.05882" stroke-linecap="butt"/><path d="M284.58756,190.7614c4.37955,-0.32746 7.92699,0.79861 9.60158,3.45452c1.67459,2.65592 1.16147,6.34222 -1.02209,10.15286c-2.18339,3.81048 -6.03238,7.74634 -11.03143,10.89828c-4.99889,3.15194 -10.20951,4.92825 -14.58906,5.2557c-4.37955,0.32746 -7.92699,-0.79861 -9.60158,-3.45452c-1.67459,-2.65592 -1.16147,-6.34239 1.02192,-10.15286c2.18356,-3.81048 6.03255,-7.74634 11.03143,-10.89828c4.99906,-3.15194 10.20969,-4.92825 14.58924,-5.2557z" fill="url(#color-3)" stroke-width="2.05882" stroke-linecap="butt"/><path d="M257.13548,131.9162c10.48343,0 19.98242,2.87906 26.85968,7.53011c6.87899,4.64932 11.13627,11.07237 11.13627,18.16034c0,7.08797 -4.25727,13.51102 -11.13627,18.16034c-6.87727,4.65105 -16.37626,7.53011 -26.85968,7.53011c-10.48343,0 -19.98242,-2.87906 -26.85968,-7.53011c-6.87899,-4.64932 -11.13627,-11.07237 -11.13627,-18.16034c0,-7.08797 4.25727,-13.51102 11.13627,-18.16034c6.87727,-4.65105 16.37626,-7.53011 26.85968,-7.53011z" fill="#ff3e23" stroke-width="1" stroke-linecap="butt"/><path d="M256.97849,137.31198c8.45859,0 16.12306,2.32311 21.67203,6.0759c5.55052,3.75124 8.98552,8.93388 8.98552,14.65279c0,5.71908 -3.43501,10.90156 -8.98552,14.65297c-5.54896,3.75279 -13.21344,6.0759 -21.67203,6.0759c-8.45876,0 -16.12324,-2.32311 -21.6722,-6.0759c-5.55052,-3.75141 -8.98552,-8.93388 -8.98552,-14.65297c0,-5.71891 3.43501,-10.90156 8.98552,-14.65279c5.54896,-3.75279 13.21344,-6.0759 21.6722,-6.0759z" fill="#ffd41d" stroke-width="0.80687" stroke-linecap="butt"/><path d="M257.27555,142.48029c6.42149,0 12.23988,1.76353 16.45242,4.61236c4.21375,2.84797 6.82148,6.78228 6.82148,11.12401c0,4.34156 -2.60773,8.27586 -6.82148,11.12383c-4.21254,2.84883 -10.03093,4.61236 -16.45242,4.61236c-6.42149,0 -12.23988,-1.76353 -16.45259,-4.61236c-4.21358,-2.84797 -6.82131,-6.78228 -6.82131,-11.12383c0,-4.34173 2.60773,-8.27604 6.82131,-11.12401c4.21271,-2.84883 10.0311,-4.61236 16.45259,-4.61236z" fill="#ffffff" stroke-width="0.61254" stroke-linecap="butt"/><g stroke-width="1"><path d="M250.22713,151.17324c0.92572,0.02245 1.83244,0.80137 2.20722,1.64764c0.73919,1.66491 0.98789,3.31256 0.98789,5.43342c0,2.12087 -0.22798,3.78405 -0.98789,5.43342c-0.40587,0.886 -1.39376,1.57856 -2.37993,1.56129c-0.91708,0.01727 -1.93089,-0.63557 -2.37993,-1.56129c-0.79792,-1.63037 -0.98789,-3.31256 -0.98789,-5.43342c0,-2.12087 0.16062,-3.80996 0.98789,-5.43342c0.47495,-0.93781 1.55783,-1.62519 2.55264,-1.64764z" fill="#000000" stroke-linecap="round"/><path d="M250.05442,152.46856c0.47668,0 0.90845,0.19343 1.22105,0.50604c0.3126,0.3126 0.50604,0.74438 0.50604,1.22105c0,0.47668 -0.19343,0.90845 -0.50604,1.22105c-0.3126,0.3126 -0.74438,0.50604 -1.22105,0.50604c-0.47668,0 -0.90845,-0.19343 -1.22105,-0.50604c-0.3126,-0.3126 -0.50604,-0.74438 -0.50604,-1.22105c0,-0.47668 0.19343,-0.90845 0.50604,-1.22105c0.3126,-0.3126 0.74438,-0.50604 1.22105,-0.50604z" fill="#ffffff" stroke-linecap="butt"/></g><g stroke-width="1"><path d="M263.87113,151.2596c0.92572,0.02245 1.83244,0.80137 2.20722,1.64764c0.73919,1.66491 0.98789,3.31256 0.98789,5.43342c0,2.12087 -0.22798,3.78405 -0.98789,5.43342c-0.40587,0.886 -1.39376,1.57856 -2.37993,1.56129c-0.91708,0.01727 -1.93089,-0.63557 -2.37993,-1.56129c-0.79792,-1.63037 -0.98789,-3.31256 -0.98789,-5.43342c0,-2.12087 0.16062,-3.80996 0.98789,-5.43342c0.47495,-0.93781 1.55783,-1.62519 2.55264,-1.64764z" fill="#000000" stroke-linecap="round"/><path d="M263.69842,152.55492c0.47668,0 0.90845,0.19343 1.22105,0.50604c0.3126,0.3126 0.50604,0.74438 0.50604,1.22105c0,0.47668 -0.19343,0.90845 -0.50604,1.22105c-0.3126,0.3126 -0.74438,0.50604 -1.22105,0.50604c-0.47668,0 -0.90845,-0.19343 -1.22105,-0.50604c-0.3126,-0.3126 -0.50604,-0.74438 -0.50604,-1.22105c0,-0.47668 0.19343,-0.90845 0.50604,-1.22105c0.3126,-0.3126 0.74438,-0.50604 1.22105,-0.50604z" fill="#ffffff" stroke-linecap="butt"/></g></g><path d="M158,305.5v-246.85849h191v246.85849z" fill="none" stroke-width="0" stroke-linecap="butt"/><path d="M158,305.5v-246.85849h191v246.85849z" fill="none" stroke-width="0" stroke-linecap="butt"/></g></g></svg>