<svg version="1.1" xmlns="http://www.w3.org/2000/svg" xmlns:xlink="http://www.w3.org/1999/xlink" width="70.95196" height="70.95196" viewBox="0,0,70.95196,70.95196"><g transform="translate(-204.52402,-144.52402)"><g data-paper-data="{&quot;isPaintingLayer&quot;:true}" fill-rule="nonzero" stroke-linecap="butt" stroke-linejoin="miter" stroke-miterlimit="10" stroke-dasharray="" stroke-dashoffset="0" style="mix-blend-mode: normal"><path d="M205.52402,180c0,-19.04057 15.43543,-34.47598 34.47598,-34.47598c19.04057,0 34.47598,15.43543 34.47598,34.47598c0,19.04057 -15.43543,34.47598 -34.47598,34.47598c-19.04057,0 -34.47598,-15.43543 -34.47598,-34.47598z" fill="#fffaca" stroke="#a7a7a7" stroke-width="2"/><g stroke="none" stroke-width="0"><g data-paper-data="{&quot;origPos&quot;:null}"><g data-paper-data="{&quot;origPos&quot;:null}"><path d="M264.81895,175.17313c-0.12962,6.88535 -1.117,9.82205 -7.89291,11.05173c-5.1883,0.94156 -20.23507,0.8926 -25.5073,0.98438c-11.52372,0.20061 -15.54664,-1.93656 -15.74724,-11.83551c-0.07848,-3.87224 0.72993,-7.64677 3.65073,-10.19026c6.84245,-5.95852 12.95724,-6.6603 21.72538,-6.6603c13.12852,0 24.01439,3.73804 23.77132,16.64996z" data-paper-data="{&quot;origPos&quot;:null}" fill="#ffffff"/><path d="M255.19007,173.04585c0,5.4725 -4.13138,9.90884 -9.22768,9.90884c-5.09631,0 -9.22768,-4.43635 -9.22768,-9.90884c0,-5.4725 4.13138,-9.90884 9.22768,-9.90884c5.09631,0 9.22768,4.43635 9.22768,9.90884z" data-paper-data="{&quot;origPos&quot;:null}" fill="#ff5138"/><path d="M215.17132,179.03414c-0.16059,-2.381 -0.47906,-3.07391 0.65531,-7.59643c0.06829,-1.80832 1.67133,-4.18859 1.67133,-4.18859c0,0 5.12593,0.56201 7.03342,2.18763c2.23827,1.90751 2.55441,4.72341 2.75816,7.65719c0.21425,3.08501 -0.18092,5.09233 -2.12507,7.73352c-0.94156,1.27915 -1.2543,1.43932 -1.2543,1.43932c0,0 -3.75161,0.53264 -5.45182,-0.478c-2.01298,-1.57321 -2.63932,-2.71362 -3.287,-6.75465z" data-paper-data="{&quot;origPos&quot;:null,&quot;origRot&quot;:0}" fill="#ff5138"/><path d="M263.28764,167.98839c0,0 1.6841,0.59814 1.74969,7.41861c0.05748,5.97867 -1.90333,7.98536 -1.90333,7.98536c0,0 -3.63813,-0.60695 -3.69559,-8.12532c-0.05215,-6.82058 3.84927,-7.27863 3.84927,-7.27863z" data-paper-data="{&quot;origPos&quot;:null}" fill="#ff5138"/></g><g data-paper-data="{&quot;origPos&quot;:null}"><path d="M253.87699,192.55378c-0.24931,6.37282 -5.01553,9.30825 -11.54784,9.30825c-6.5323,0 -12.68813,-2.23598 -12.94756,-8.60839c-0.13998,-3.43824 -0.48989,-6.92869 -0.48989,-6.92869c0,0 9.42593,-1.36961 12.68171,-1.26076c6.30637,0.21087 12.38001,1.94005 12.38001,1.94005c0,0 0.06357,1.97132 -0.07641,5.54955z" data-paper-data="{&quot;origPos&quot;:null}" fill="#ffdfc0"/><path d="M245.05422,196.80439c0,0 -1.7201,1.75731 -4.01969,1.34545c-2.29959,-0.41188 -3.55745,-2.89032 -3.55745,-2.89032c0,0 1.89087,1.653 3.72036,1.98066c1.82949,0.32767 3.85677,-0.4358 3.85677,-0.4358z" data-paper-data="{&quot;origPos&quot;:null,&quot;origRot&quot;:0}" fill="#000000"/><g data-paper-data="{&quot;origPos&quot;:null}"><path d="M247.93332,190.55862c0,1.77802 -0.43603,3.18716 -1.6797,3.2194c-1.37208,0.03557 -1.67968,-1.44138 -1.67968,-3.2194c0,-1.77802 0.37182,-3.2194 1.67968,-3.2194c1.30787,0 1.6797,1.44138 1.6797,3.2194z" data-paper-data="{&quot;origPos&quot;:null}" fill="#000000"/><path d="M247.38819,189.19208c0,0.59292 -0.26238,1.06283 -1.0108,1.07359c-0.82569,0.01188 -1.0108,-0.48066 -1.0108,-1.07359c0,-0.59292 0.22375,-1.07359 1.0108,-1.07359c0.78703,0 1.0108,0.48066 1.0108,1.07359z" data-paper-data="{&quot;origPos&quot;:null}" fill="#aaaaaa"/></g><g data-paper-data="{&quot;origPos&quot;:null}"><path d="M242.25917,190.66414c0,1.77802 -0.43603,3.18716 -1.6797,3.2194c-1.37208,0.03557 -1.67968,-1.44138 -1.67968,-3.2194c0,-1.77802 0.37182,-3.2194 1.67968,-3.2194c1.30787,0 1.6797,1.44138 1.6797,3.2194z" data-paper-data="{&quot;origPos&quot;:null}" fill="#000000"/><path d="M241.62059,189.21752c0,0.59292 -0.26238,1.06283 -1.0108,1.07359c-0.82569,0.01188 -1.0108,-0.48066 -1.0108,-1.07359c0,-0.59292 0.22375,-1.07359 1.0108,-1.07359c0.78703,0 1.0108,0.48066 1.0108,1.07359z" data-paper-data="{&quot;origPos&quot;:null}" fill="#aaaaaa"/></g></g></g><g data-paper-data="{&quot;origPos&quot;:null}"><path d="M215.36644,180.28728c0,0 -0.44003,-2.39684 -0.42524,-4.05799c0.01103,-1.23936 0.49139,-3.37421 0.49139,-3.37421c0,0 19.63405,-3.78819 30.95867,-4.1378c7.91175,-0.24425 18.3321,2.61607 18.3321,2.61607c0,0 0.30584,2.57189 0.33217,3.83692c0.0339,1.62688 -0.1778,3.57324 -0.1778,3.57324c0,0 -11.54498,-2.60209 -18.34148,-2.39017c-12.5259,0.39056 -31.1698,3.93395 -31.1698,3.93395z" data-paper-data="{&quot;origPos&quot;:null}" fill="#f3c640"/><g data-paper-data="{&quot;origPos&quot;:null}"><path d="M257.46906,172.19047c-0.19224,6.92041 -4.46403,10.59866 -8.07367,10.59866c-3.50062,0 -9.32644,-6.39177 -9.32644,-6.39177l-0.09284,-7.11633c0,0 5.80966,-8.10487 9.41931,-8.10487c3.60965,0 8.27738,3.68154 8.07367,11.01429z" data-paper-data="{&quot;origPos&quot;:null}" fill="#a7a7a7"/><path d="M256.31568,171.98266c0,5.05006 -2.58195,9.14393 -5.76692,9.14393c-3.18497,0 -5.76692,-4.09389 -5.76692,-9.14393c0,-5.05006 2.58195,-9.14393 5.76692,-9.14393c3.18497,0 5.76692,4.09389 5.76692,9.14393z" data-paper-data="{&quot;origPos&quot;:null}" fill="#f2ecc1"/><path d="M255.55753,171.92989c0,3.45306 -1.72794,6.25231 -3.85944,6.25231c-2.13153,0 -3.85944,-2.79926 -3.85944,-6.25231c0,-3.45305 1.72794,-6.25231 3.85944,-6.25231c2.13153,0 3.85944,2.79926 3.85944,6.25231z" data-paper-data="{&quot;origPos&quot;:null}" fill="#fffaca"/></g></g></g></g></g></svg>