<svg version="1.1" xmlns="http://www.w3.org/2000/svg" xmlns:xlink="http://www.w3.org/1999/xlink" width="55.83424" height="53.53212" viewBox="0,0,55.83424,53.53212"><defs><radialGradient cx="240.92125" cy="180.19801" r="36.74617" gradientUnits="userSpaceOnUse" id="color-1"><stop offset="0" stop-color="#fff343"/><stop offset="1" stop-color="#fff343" stop-opacity="0"/></radialGradient><linearGradient x1="215.25833" y1="156.64208" x2="215.25833" y2="203.68853" gradientUnits="userSpaceOnUse" id="color-2"><stop offset="0" stop-color="#fff01b"/><stop offset="1" stop-color="#ffa30a"/></linearGradient><linearGradient x1="241.77231" y1="174.23995" x2="241.77231" y2="184.44077" gradientUnits="userSpaceOnUse" id="color-3"><stop offset="0" stop-color="#000000"/><stop offset="1" stop-color="#674205"/></linearGradient><linearGradient x1="233.19029" y1="174.19356" x2="233.19029" y2="184.39439" gradientUnits="userSpaceOnUse" id="color-4"><stop offset="0" stop-color="#000000"/><stop offset="1" stop-color="#674205"/></linearGradient></defs><g transform="translate(-212.08287,-153.23394)"><g data-paper-data="{&quot;isPaintingLayer&quot;:true}" fill-rule="nonzero" stroke="none" stroke-linejoin="miter" stroke-miterlimit="10" stroke-dasharray="" stroke-dashoffset="0" style="mix-blend-mode: normal"><g><path d="M213.07283,174.88885l-0.98995,-1.27775l0.85802,-2.62285l1.51795,-0.67246h15.64145l6.86385,-15.80409l1.51795,-1.27775l1.51795,0.06717l1.84787,1.41228l7.39176,15.4006l15.83953,-0.26897l1.58401,0.94152l1.2539,1.5468l-1.2539,2.75729l-9.04174,10.69301l2.63992,16.20758l0.13193,2.55549l-1.64988,0.87425l-2.90397,-0.53793l-15.17951,-10.76028l-12.93556,12.10529l-2.90388,0.53802l-2.11201,-1.14331l-0.7259,-3.16078l1.51795,-15.06437z" data-paper-data="{&quot;origPos&quot;:null}" fill="url(#color-1)" stroke-width="1.43627" stroke-linecap="round"/><path d="M216.14483,175.67338l-0.8865,-1.1229l0.7683,-2.30508l1.35939,-0.591h14.00753l6.14677,-13.88933l1.35939,-1.12299l1.35939,0.0591l1.65489,1.24119l6.61957,13.53473l14.18492,-0.2364l1.41849,0.8274l1.1229,1.35939l-1.1229,2.42328l-8.09725,9.39745l2.36418,14.24393l0.1182,2.24598l-1.47759,0.7683l-2.60058,-0.4728l-13.59383,-9.45655l-11.58424,10.63864l-2.60058,0.4728l-1.89129,-1.00479l-0.6501,-2.77788l1.3593,-13.23913z" data-paper-data="{&quot;origPos&quot;:null}" fill="url(#color-2)" stroke-width="1.27408" stroke-linecap="round"/><g data-paper-data="{&quot;origPos&quot;:null}" stroke-width="2.7674"><path d="M243.8589,174.24088c0.65149,-0.02514 1.30076,0.51418 1.57427,1.17931c0.49618,1.20714 0.54953,2.64632 0.51242,3.9905c-0.02551,1.24073 -0.22258,2.52339 -0.69556,3.63284c-0.27128,0.65112 -0.76041,1.40281 -1.39112,1.39725c-0.60742,-0.00557 -1.12448,-0.47512 -1.45829,-1.31903c-0.4266,-1.06751 -0.6283,-2.34739 -0.6283,-3.85078c0,-1.50348 0.15531,-2.73298 0.6283,-3.85078c0.31062,-0.73778 0.90422,-1.20445 1.45829,-1.17931z" fill="url(#color-3)" stroke-linecap="round"/><path d="M243.96021,175.03117c0.33623,0 0.63989,0.16487 0.86015,0.43031c0.22026,0.26553 0.3571,0.63164 0.3571,1.0368c0,0.40516 -0.13685,0.77127 -0.3571,1.03671c-0.22026,0.26553 -0.52392,0.4304 -0.86015,0.4304c-0.33614,0 -0.63989,-0.16487 -0.86015,-0.4304c-0.22026,-0.26544 -0.35701,-0.63154 -0.35701,-1.03671c0,-0.40516 0.13676,-0.77127 0.35701,-1.0368c0.22026,-0.26544 0.52401,-0.43031 0.86015,-0.43031z" fill="#ffffff" stroke-linecap="butt"/></g><g data-paper-data="{&quot;origPos&quot;:null}" stroke-width="2.7674"><path d="M235.27688,174.19449c0.65149,-0.02514 1.30076,0.51418 1.57427,1.17931c0.49618,1.20714 0.54953,2.64632 0.51242,3.9905c-0.02551,1.24073 -0.22258,2.52339 -0.69556,3.63284c-0.27128,0.65112 -0.76041,1.40281 -1.39112,1.39725c-0.60742,-0.00557 -1.12448,-0.47512 -1.45829,-1.31903c-0.4266,-1.06751 -0.6283,-2.34739 -0.6283,-3.85078c0,-1.50348 0.15531,-2.73298 0.6283,-3.85078c0.31062,-0.73778 0.90422,-1.20445 1.45829,-1.17931z" fill="url(#color-4)" stroke-linecap="round"/><path d="M235.42458,174.93839c0.33623,0 0.63989,0.16487 0.86015,0.43031c0.22026,0.26553 0.3571,0.63164 0.3571,1.0368c0,0.40516 -0.13685,0.77127 -0.3571,1.03671c-0.22026,0.26553 -0.52392,0.4304 -0.86015,0.4304c-0.33614,0 -0.63989,-0.16487 -0.86015,-0.4304c-0.22026,-0.26544 -0.35701,-0.63154 -0.35701,-1.03671c0,-0.40516 0.13676,-0.77127 0.35701,-1.0368c0.22026,-0.26544 0.52401,-0.43031 0.86015,-0.43031z" fill="#ffffff" stroke-linecap="butt"/></g></g></g></g></svg>