<svg version="1.1" xmlns="http://www.w3.org/2000/svg" xmlns:xlink="http://www.w3.org/1999/xlink" width="44.02908" height="51.73597"><defs><linearGradient x1="240.12826" y1="178.48301" x2="240.12826" y2="203.12681" gradientUnits="userSpaceOnUse" id="color-1"><stop offset="0" stop-color="#79de29"/><stop offset="1" stop-color="#60af1f"/></linearGradient><linearGradient x1="229.37391" y1="188.57194" x2="229.37391" y2="205.86798" gradientUnits="userSpaceOnUse" id="color-2"><stop offset="0" stop-color="#79de29"/><stop offset="1" stop-color="#60af1f"/></linearGradient><linearGradient x1="250.94701" y1="188.17194" x2="250.94701" y2="205.46798" gradientUnits="userSpaceOnUse" id="color-3"><stop offset="0" stop-color="#79de29"/><stop offset="1" stop-color="#60af1f"/></linearGradient></defs><g transform="translate(-217.98546,-154.13201)"><g data-paper-data="{&quot;isPaintingLayer&quot;:true}" fill="none" fill-rule="nonzero" stroke="none" stroke-width="none" stroke-linecap="none" stroke-linejoin="miter" stroke-miterlimit="10" stroke-dasharray="" stroke-dashoffset="0" font-family="none" font-weight="none" font-size="none" text-anchor="none" style="mix-blend-mode: normal"><path d="M237.82366,178.48301h4.6092v24.6438h-4.6092z" data-paper-data="{&quot;origPos&quot;:null}" id="ID0.4741013334132731" fill="url(#color-1)" stroke-width="0.97987" stroke-linecap="butt"/><path d="M232.88776,191.64701c2.8944,1.825 5.123,4.1039 6.3873,6.3102c1.2642,2.2063 1.5613,4.3408 0.5917,5.8786c-0.9696,1.5378 -3.0236,2.1898 -5.5594,2.0002c-2.5358,-0.1896 -5.5528,-1.2181 -8.4472,-3.0431c-2.8945,-1.825 -5.1231,-4.1039 -6.3873,-6.3102c-1.2643,-2.2064 -1.5614,-4.3408 -0.5918,-5.8786c0.9696,-1.5378 3.0236,-2.1898 5.5594,-2.0002c2.5358,0.1896 5.5528,1.2181 8.4473,3.0431z" data-paper-data="{&quot;origPos&quot;:null}" id="ID0.067250931635499" fill="url(#color-2)" stroke-width="2.05882" stroke-linecap="butt"/><path d="M255.88046,188.20391c2.5358,-0.1896 4.5898,0.4624 5.5594,2.0002c0.9696,1.5378 0.6725,3.6722 -0.5918,5.8786c-1.2642,2.2063 -3.4928,4.4852 -6.3873,6.3102c-2.8944,1.825 -5.9114,2.8535 -8.4472,3.0431c-2.5358,0.1896 -4.5898,-0.4624 -5.5594,-2.0002c-0.9696,-1.5378 -0.6725,-3.6723 0.5917,-5.8786c1.2643,-2.2063 3.4929,-4.4852 6.3873,-6.3102c2.8945,-1.825 5.9115,-2.8535 8.4473,-3.0431z" data-paper-data="{&quot;origPos&quot;:null}" id="ID0.067250931635499" fill="url(#color-3)" stroke-width="2.05882" stroke-linecap="butt"/><path d="M239.98546,154.13201c6.07,0 11.57,1.667 15.552,4.36c3.983,2.692 6.448,6.411 6.448,10.515c0,4.104 -2.465,7.823 -6.448,10.515c-3.982,2.693 -9.482,4.36 -15.552,4.36c-6.07,0 -11.57,-1.667 -15.552,-4.36c-3.983,-2.692 -6.448,-6.411 -6.448,-10.515c0,-4.104 2.465,-7.823 6.448,-10.515c3.982,-2.693 9.482,-4.36 15.552,-4.36z" data-paper-data="{&quot;origPos&quot;:null}" id="ID0.8194569833576679" fill="#ff3e23" stroke-width="1" stroke-linecap="butt"/><path d="M239.89456,157.25621c4.8976,0 9.3354,1.3451 12.5483,3.518c3.2138,2.172 5.2027,5.1728 5.2027,8.4841c0,3.3114 -1.9889,6.3121 -5.2027,8.4842c-3.2129,2.1729 -7.6507,3.518 -12.5483,3.518c-4.8977,0 -9.3355,-1.3451 -12.5484,-3.518c-3.2138,-2.1721 -5.2027,-5.1728 -5.2027,-8.4842c0,-3.3113 1.9889,-6.3121 5.2027,-8.4841c3.2129,-2.1729 7.6507,-3.518 12.5484,-3.518z" data-paper-data="{&quot;origPos&quot;:null}" id="ID0.8194569833576679" fill="#ffd41d" stroke-width="0.80687" stroke-linecap="butt"/><path d="M240.06656,160.24871c3.7181,0 7.087,1.0211 9.5261,2.6706c2.4398,1.649 3.9497,3.927 3.9497,6.4409c0,2.5138 -1.5099,4.7918 -3.9497,6.4408c-2.4391,1.6495 -5.808,2.6706 -9.5261,2.6706c-3.7181,0 -7.087,-1.0211 -9.5262,-2.6706c-2.4397,-1.649 -3.9496,-3.927 -3.9496,-6.4408c0,-2.5139 1.5099,-4.7919 3.9496,-6.4409c2.4392,-1.6495 5.8081,-2.6706 9.5262,-2.6706z" data-paper-data="{&quot;origPos&quot;:null}" id="ID0.8194569833576679" fill="#ffffff" stroke-width="0.61254" stroke-linecap="butt"/><g data-paper-data="{&quot;origPos&quot;:null}" id="ID0.04460352612659335" stroke-width="1"><path d="M235.98546,165.28201c0.536,0.013 1.061,0.464 1.278,0.954c0.428,0.964 0.572,1.918 0.572,3.146c0,1.228 -0.132,2.191 -0.572,3.146c-0.235,0.513 -0.807,0.914 -1.378,0.904c-0.531,0.01 -1.118,-0.368 -1.378,-0.904c-0.462,-0.944 -0.572,-1.918 -0.572,-3.146c0,-1.228 0.093,-2.206 0.572,-3.146c0.275,-0.543 0.902,-0.941 1.478,-0.954z" id="ID0.13159783789888024" fill="#000000" stroke-linecap="round"/><path d="M235.88546,166.03201c0.276,0 0.526,0.112 0.707,0.293c0.181,0.181 0.293,0.431 0.293,0.707c0,0.276 -0.112,0.526 -0.293,0.707c-0.181,0.181 -0.431,0.293 -0.707,0.293c-0.276,0 -0.526,-0.112 -0.707,-0.293c-0.181,-0.181 -0.293,-0.431 -0.293,-0.707c0,-0.276 0.112,-0.526 0.293,-0.707c0.181,-0.181 0.431,-0.293 0.707,-0.293z" id="ID0.8673957432620227" fill="#ffffff" stroke-linecap="butt"/></g><g data-paper-data="{&quot;origPos&quot;:null}" id="ID0.04460352612659335" stroke-width="1"><path d="M243.88546,165.33201c0.536,0.013 1.061,0.464 1.278,0.954c0.428,0.964 0.572,1.918 0.572,3.146c0,1.228 -0.132,2.191 -0.572,3.146c-0.235,0.513 -0.807,0.914 -1.378,0.904c-0.531,0.01 -1.118,-0.368 -1.378,-0.904c-0.462,-0.944 -0.572,-1.918 -0.572,-3.146c0,-1.228 0.093,-2.206 0.572,-3.146c0.275,-0.543 0.902,-0.941 1.478,-0.954z" id="ID0.13159783789888024" fill="#000000" stroke-linecap="round"/><path d="M243.78546,166.08201c0.276,0 0.526,0.112 0.707,0.293c0.181,0.181 0.293,0.431 0.293,0.707c0,0.276 -0.112,0.526 -0.293,0.707c-0.181,0.181 -0.431,0.293 -0.707,0.293c-0.276,0 -0.526,-0.112 -0.707,-0.293c-0.181,-0.181 -0.293,-0.431 -0.293,-0.707c0,-0.276 0.112,-0.526 0.293,-0.707c0.181,-0.181 0.431,-0.293 0.707,-0.293z" id="ID0.8673957432620227" fill="#ffffff" stroke-linecap="butt"/></g></g></g></svg>