<svg version="1.1" xmlns="http://www.w3.org/2000/svg" xmlns:xlink="http://www.w3.org/1999/xlink" width="511.37237" height="377.98799" viewBox="0,0,511.37237,377.98799"><g transform="translate(16.45496,3.5)"><g data-paper-data="{&quot;isPaintingLayer&quot;:true}" fill-rule="nonzero" stroke-linejoin="miter" stroke-miterlimit="10" stroke-dasharray="" stroke-dashoffset="0" style="mix-blend-mode: normal"><g data-paper-data="{&quot;index&quot;:null}" fill="#cfaf77" stroke="#e6cd95" stroke-width="7" stroke-linecap="butt"><g><path d="M478.46246,50h-110v-50h110z"/><path d="M362.46246,50h-110v-50h110z"/><path d="M246.46246,50h-110v-50h110z"/><path d="M130.46246,50h-110v-50h110z"/><path d="M14.46246,50h-27.41742v-50h27.41742z"/></g><g><path d="M489.41741,106h-64.95495v-50h64.95495z"/><path d="M418.46246,106h-110v-50h110z"/><path d="M302.46246,106h-110v-50h110z"/><path d="M186.46246,106h-110v-50h110z"/><path d="M70.46246,106h-82.97297v-50h82.97297z"/></g></g><g data-paper-data="{&quot;index&quot;:null}" fill="#cfaf77" stroke="#e6cd95" stroke-width="7" stroke-linecap="butt"><g><path d="M479.46246,161h-110v-50h110z"/><path d="M363.46246,161h-110v-50h110z"/><path d="M247.46246,161h-110v-50h110z"/><path d="M131.46246,161h-110v-50h110z"/><path d="M15.46246,161h-27.41742v-50h27.41742z"/></g><g><path d="M490.41741,217h-64.95495v-50h64.95495z"/><path d="M419.46246,217h-110v-50h110z"/><path d="M303.46246,217h-110v-50h110z"/><path d="M187.46246,217h-110v-50h110z"/><path d="M71.46246,217h-82.97297v-50h82.97297z"/></g></g><g data-paper-data="{&quot;index&quot;:null}" fill="#cfaf77" stroke="#e6cd95" stroke-width="7" stroke-linecap="butt"><g><path d="M480.46246,272h-110v-50h110z"/><path d="M364.46246,272h-110v-50h110z"/><path d="M248.46246,272h-110v-50h110z"/><path d="M132.46246,272h-110v-50h110z"/><path d="M16.46246,272h-27.41742v-50h27.41742z"/></g><g><path d="M491.41741,328h-64.95495v-50h64.95495z"/><path d="M420.46246,328h-110v-50h110z"/><path d="M304.46246,328h-110v-50h110z"/><path d="M188.46246,328h-110v-50h110z"/><path d="M72.46246,328h-82.97297v-50h82.97297z"/></g></g><g data-paper-data="{&quot;index&quot;:null}" stroke-linecap="butt"><g fill="#cfaf77" stroke="#e6cd95" stroke-width="7"><path d="M480.46246,370.98799h-110v-37.98799h110z"/><path d="M364.46246,370.98799h-110v-37.98799h110z"/><path d="M248.46246,370.98799h-110v-37.98799h110z"/><path d="M132.46246,370.98799h-110v-37.98799h110z"/><path d="M16.46246,370.98799h-27.41742v-37.98799h27.41742z"/></g><g fill="none" stroke="none" stroke-width="1" font-family="sans-serif" font-weight="normal" font-size="12" text-anchor="start"/></g><g data-paper-data="{&quot;index&quot;:null}" stroke="#ffde00" stroke-width="3.5"><path d="M143.60772,54.70714c0,-28.15894 22.16009,-50.98627 49.49594,-50.98627c27.33585,0 49.49594,22.82733 49.49594,50.98627c0,28.15894 -22.16009,50.98627 -49.49594,50.98627c-27.33585,0 -49.49594,-22.82733 -49.49594,-50.98627z" data-paper-data="{&quot;index&quot;:null}" fill="#002566" stroke-linecap="butt"/><path d="M143.60772,156.38665v-101.97254h98.99188v101.97254z" data-paper-data="{&quot;index&quot;:null}" fill="#002566" stroke-linecap="butt"/><path d="M143.67882,105.0048h98.1385" data-paper-data="{&quot;index&quot;:null}" fill="none" stroke-linecap="round"/><path d="M193.17477,3.91133v151.20067" data-paper-data="{&quot;index&quot;:null}" fill="none" stroke-linecap="round"/></g><g data-paper-data="{&quot;index&quot;:null}" stroke="#ffde00" stroke-width="3.5"><path d="M314.5924,110.20049c0,-28.15894 22.16009,-50.98627 49.49594,-50.98627c27.33585,0 49.49594,22.82733 49.49594,50.98627c0,28.15894 -22.16009,50.98627 -49.49594,50.98627c-27.33585,0 -49.49594,-22.82733 -49.49594,-50.98627z" data-paper-data="{&quot;index&quot;:null}" fill="#002566" stroke-linecap="butt"/><path d="M314.5924,211.88001v-101.97254h98.99188v101.97254z" data-paper-data="{&quot;index&quot;:null}" fill="#002566" stroke-linecap="butt"/><path d="M412.80202,160.49816h-98.1385" data-paper-data="{&quot;index&quot;:null}" fill="none" stroke-linecap="round"/><path d="M364.15946,59.40469v151.20067" data-paper-data="{&quot;index&quot;:null}" fill="none" stroke-linecap="round"/></g></g></g></svg>