<svg version="1.1" xmlns="http://www.w3.org/2000/svg" xmlns:xlink="http://www.w3.org/1999/xlink" width="58.94901" height="51.18956"><defs><linearGradient x1="235.20882" y1="191.34904" x2="235.20882" y2="201.17379" gradientUnits="userSpaceOnUse" id="color-1"><stop offset="0" stop-color="#000000"/><stop offset="1" stop-color="#3f380a"/></linearGradient><linearGradient x1="244.59" y1="191.34904" x2="244.59" y2="201.17379" gradientUnits="userSpaceOnUse" id="color-2"><stop offset="0" stop-color="#000000"/><stop offset="1" stop-color="#3f380a"/></linearGradient></defs><g transform="translate(-210.52549,-154.40521)"><g data-paper-data="{&quot;isPaintingLayer&quot;:true}" fill="none" fill-rule="nonzero" stroke="none" stroke-width="none" stroke-linecap="none" stroke-linejoin="miter" stroke-miterlimit="10" stroke-dasharray="" stroke-dashoffset="0" font-family="none" font-weight="none" font-size="none" text-anchor="none" style="mix-blend-mode: normal"><path d="M239.58587,154.40523c7.9254,0 15.56437,2.57614 20.30705,7.17746c6.31476,6.12701 9.16698,14.88775 9.5757,22.96802c0.18398,3.81072 -3.98473,7.72764 -7.9871,8.91321c-7.12118,2.10652 -14.95074,0.59513 -22.5842,0.43127c-7.08152,-0.15235 -14.70287,1.0159 -21.20712,-1.43767c-3.92965,-1.48257 -7.20161,-5.68323 -6.99559,-9.3923c0.41974,-7.56468 2.67595,-16.0063 8.5842,-21.48255c4.86166,-4.50548 12.38165,-7.17746 20.30705,-7.17746z" data-paper-data="{&quot;origPos&quot;:null}" id="ID0.664129285607487" fill="#ff0000" stroke-width="0.93172" stroke-linecap="round"/><path d="M239.804,187.60212c5.59407,0 9.96427,0.534 14.33446,2.63636c2.27265,1.09206 3.94875,3.82753 3.87467,6.31186c0.07409,2.50262 -1.56835,5.27848 -3.87467,6.40807c-4.3548,2.13507 -8.74038,2.63636 -14.33446,2.63636c-5.59407,0 -10.05471,-0.35312 -14.33446,-2.63636c-2.31499,-1.23446 -3.53311,-4.37789 -3.53791,-6.98538c0.00481,-2.24282 1.47501,-4.77238 3.53791,-5.73455c4.39617,-2.05135 8.74038,-2.63636 14.33446,-2.63636z" data-paper-data="{&quot;origPos&quot;:null}" id="ID0.7818866483867168" fill="#ffdea8" stroke-width="1" stroke-linecap="butt"/><g data-paper-data="{&quot;origPos&quot;:null}" stroke-width="2.7956"><path d="M235.14151,191.34997c0.75589,-0.02415 1.48213,0.43846 1.8264,1.13517c0.53536,1.08129 0.72904,2.25947 0.72904,3.70659c0,1.44711 -0.22332,2.68447 -0.72904,3.70659c-0.40074,0.82314 -1.08399,1.33684 -1.8264,1.26958c-0.68314,0.06726 -1.30452,-0.45723 -1.69189,-1.26958c-0.49495,-1.0275 -0.72894,-2.25947 -0.72894,-3.70659c0,-1.44711 0.18021,-2.63067 0.72894,-3.70659c0.36043,-0.71018 1.04905,-1.15932 1.69189,-1.13517z" data-paper-data="{&quot;origPos&quot;:null}" id="ID0.6670762049034238" fill="url(#color-1)" stroke-linecap="round"/><path d="M244.52269,191.34997c0.75589,-0.02415 1.48213,0.43846 1.8264,1.13517c0.53536,1.08129 0.72904,2.25947 0.72904,3.70659c0,1.44711 -0.22332,2.68447 -0.72904,3.70659c-0.40074,0.82314 -1.08399,1.33684 -1.8264,1.26958c-0.68314,0.06726 -1.30452,-0.45723 -1.69189,-1.26958c-0.49495,-1.0275 -0.72894,-2.25947 -0.72894,-3.70659c0,-1.44711 0.18021,-2.63067 0.72894,-3.70659c0.36043,-0.71018 1.04905,-1.15932 1.69189,-1.13517z" data-paper-data="{&quot;origPos&quot;:null}" id="ID0.6670762049034238" fill="url(#color-2)" stroke-linecap="round"/><path d="M244.63411,192.09028c0.39007,0 0.74241,0.15866 0.99797,0.41422c0.25555,0.25555 0.41422,0.6079 0.41422,0.99787c0,0.39007 -0.15866,0.74241 -0.41422,0.99797c-0.25555,0.25555 -0.6079,0.41422 -0.99797,0.41422c-0.38997,0 -0.74241,-0.15866 -0.99787,-0.41422c-0.25555,-0.25555 -0.41432,-0.6079 -0.41432,-0.99797c0,-0.38997 0.15876,-0.74232 0.41432,-0.99787c0.25545,-0.25555 0.6079,-0.41422 0.99787,-0.41422z" data-paper-data="{&quot;origPos&quot;:null}" id="ID0.2271407265216112" fill="#ffffff" stroke-linecap="butt"/><path d="M235.15671,192.37891c0.39007,0 0.74241,0.15866 0.99797,0.41422c0.25555,0.25555 0.41422,0.6079 0.41422,0.99787c0,0.39007 -0.15866,0.74241 -0.41422,0.99797c-0.25555,0.25555 -0.6079,0.41422 -0.99797,0.41422c-0.38997,0 -0.74241,-0.15866 -0.99787,-0.41422c-0.25555,-0.25555 -0.41432,-0.6079 -0.41432,-0.99797c0,-0.38997 0.15876,-0.74232 0.41432,-0.99787c0.25545,-0.25555 0.6079,-0.41422 0.99787,-0.41422z" data-paper-data="{&quot;origPos&quot;:null}" id="ID0.2271407265216112" fill="#ffffff" stroke-linecap="butt"/></g><path d="M232.94831,174.93233l-6.94051,-6.88543l9.14385,-0.44067l4.51684,-8.92351l5.23293,9.47435l8.6481,-0.11017l-6.83034,6.88543l2.75417,9.74977l-9.36418,-6.99559l-9.69468,6.99559z" data-paper-data="{&quot;origPos&quot;:null}" id="ID0.7469178936444223" fill="#ffe428" stroke-width="1" stroke-linecap="round"/><path d="M260.9308,177.17267l-4.81671,-6.17375l6.11646,-0.09882l1.68203,-4.84018l2.48481,3.60543l1.91139,3.45737l1.10861,6.32192l-0.42051,3.45726l-3.09646,-3.25973l-6.72811,6.27257z" data-paper-data="{&quot;origPos&quot;:null}" id="ID0.7469178936444223" fill="#ffe428" stroke-width="0.80175" stroke-linecap="round"/><path d="M220.77057,184.81308l-6.72811,-6.27257l-3.09646,3.25973l-0.42051,-3.45726l1.10861,-6.32192l1.91139,-3.45737l2.48481,-3.60543l1.68203,4.84018l6.11646,0.09882l-4.81671,6.17375z" data-paper-data="{&quot;origPos&quot;:null}" id="ID0.7469178936444223" fill="#ffe428" stroke-width="0.80175" stroke-linecap="round"/></g></g></svg>