<svg version="1.1" xmlns="http://www.w3.org/2000/svg" xmlns:xlink="http://www.w3.org/1999/xlink" width="335.91779" height="258.95847" viewBox="0,0,335.91779,258.95847"><defs><linearGradient x1="87.61768" y1="53.56197" x2="87.61768" y2="204.47917" gradientUnits="userSpaceOnUse" id="color-1"><stop offset="0" stop-color="#42abfe"/><stop offset="1" stop-color="#3c95ed"/></linearGradient><linearGradient x1="328.95879" y1="53.64304" x2="328.95879" y2="80.48311" gradientUnits="userSpaceOnUse" id="color-2"><stop offset="0" stop-color="#42abfe"/><stop offset="1" stop-color="#41a9fc"/></linearGradient><linearGradient x1="329.04606" y1="177.62608" x2="329.04606" y2="204.46615" gradientUnits="userSpaceOnUse" id="color-3"><stop offset="0" stop-color="#3c96ee"/><stop offset="1" stop-color="#3d96ef"/></linearGradient><linearGradient x1="74.672" y1="53.52077" x2="74.672" y2="80.36084" gradientUnits="userSpaceOnUse" id="color-4"><stop offset="0" stop-color="#42abfe"/><stop offset="1" stop-color="#41a9fc"/></linearGradient><linearGradient x1="74.5411" y1="177.62608" x2="74.5411" y2="204.46615" gradientUnits="userSpaceOnUse" id="color-5"><stop offset="0" stop-color="#3c96ee"/><stop offset="1" stop-color="#3d96ef"/></linearGradient><linearGradient x1="74.64634" y1="65.71103" x2="74.64634" y2="192.13204" gradientUnits="userSpaceOnUse" id="color-6"><stop offset="0" stop-color="#41a9fc"/><stop offset="1" stop-color="#3c96ee"/></linearGradient><linearGradient x1="87.61768" y1="53.56197" x2="87.61768" y2="204.47917" gradientUnits="userSpaceOnUse" id="color-7"><stop offset="0" stop-color="#42abfe"/><stop offset="1" stop-color="#3c95ed"/></linearGradient><linearGradient x1="328.95879" y1="53.64304" x2="328.95879" y2="80.48311" gradientUnits="userSpaceOnUse" id="color-8"><stop offset="0" stop-color="#42abfe"/><stop offset="1" stop-color="#41a9fc"/></linearGradient><linearGradient x1="329.04606" y1="177.62608" x2="329.04606" y2="204.46615" gradientUnits="userSpaceOnUse" id="color-9"><stop offset="0" stop-color="#3c96ee"/><stop offset="1" stop-color="#3d96ef"/></linearGradient><linearGradient x1="74.672" y1="53.52077" x2="74.672" y2="80.36084" gradientUnits="userSpaceOnUse" id="color-10"><stop offset="0" stop-color="#42abfe"/><stop offset="1" stop-color="#41a9fc"/></linearGradient><linearGradient x1="74.5411" y1="177.62608" x2="74.5411" y2="204.46615" gradientUnits="userSpaceOnUse" id="color-11"><stop offset="0" stop-color="#3c96ee"/><stop offset="1" stop-color="#3d96ef"/></linearGradient><linearGradient x1="74.64634" y1="65.71103" x2="74.64634" y2="192.13204" gradientUnits="userSpaceOnUse" id="color-12"><stop offset="0" stop-color="#41a9fc"/><stop offset="1" stop-color="#3c96ee"/></linearGradient><linearGradient x1="90.22768" y1="145.00645" x2="90.22768" y2="199.28816" gradientUnits="userSpaceOnUse" id="color-13"><stop offset="0" stop-color="#000000"/><stop offset="1" stop-color="#2e596d"/></linearGradient><linearGradient x1="174.14559" y1="70.42753" x2="174.14559" y2="96.322" gradientUnits="userSpaceOnUse" id="color-14"><stop offset="0" stop-color="#000000"/><stop offset="1" stop-color="#000000"/></linearGradient><linearGradient x1="284.3802" y1="105.54575" x2="284.3802" y2="138.85424" gradientUnits="userSpaceOnUse" id="color-15"><stop offset="0" stop-color="#000000"/><stop offset="1" stop-color="#000000"/></linearGradient><linearGradient x1="268.10028" y1="106.09598" x2="268.10028" y2="139.11584" gradientUnits="userSpaceOnUse" id="color-16"><stop offset="0" stop-color="#000000"/><stop offset="1" stop-color="#000000"/></linearGradient><linearGradient x1="234.18279" y1="105.20518" x2="234.18279" y2="139.29969" gradientUnits="userSpaceOnUse" id="color-17"><stop offset="0" stop-color="#000000"/><stop offset="1" stop-color="#000000"/></linearGradient><linearGradient x1="195.52277" y1="105.31007" x2="195.52277" y2="139.29969" gradientUnits="userSpaceOnUse" id="color-18"><stop offset="0" stop-color="#000000"/><stop offset="1" stop-color="#000000"/></linearGradient><linearGradient x1="153.87962" y1="105.17805" x2="153.87962" y2="139.29969" gradientUnits="userSpaceOnUse" id="color-19"><stop offset="0" stop-color="#000000"/><stop offset="1" stop-color="#000000"/></linearGradient><linearGradient x1="174.19583" y1="70.12614" x2="174.19583" y2="96.02061" gradientUnits="userSpaceOnUse" id="color-20"><stop offset="0" stop-color="#41a9fd"/><stop offset="1" stop-color="#40a7fa"/></linearGradient><linearGradient x1="153.98009" y1="104.82644" x2="153.98009" y2="138.94807" gradientUnits="userSpaceOnUse" id="color-21"><stop offset="0" stop-color="#40a6f9"/><stop offset="1" stop-color="#3fa3f7"/></linearGradient><linearGradient x1="195.62323" y1="104.95844" x2="195.62323" y2="138.94807" gradientUnits="userSpaceOnUse" id="color-22"><stop offset="0" stop-color="#40a6f9"/><stop offset="1" stop-color="#3fa3f7"/></linearGradient><linearGradient x1="234.28326" y1="104.85356" x2="234.28326" y2="138.94807" gradientUnits="userSpaceOnUse" id="color-23"><stop offset="0" stop-color="#40a6f9"/><stop offset="1" stop-color="#3fa3f7"/></linearGradient><linearGradient x1="268.20075" y1="105.74436" x2="268.20075" y2="138.76423" gradientUnits="userSpaceOnUse" id="color-24"><stop offset="0" stop-color="#40a6f9"/><stop offset="1" stop-color="#3fa3f7"/></linearGradient><linearGradient x1="284.48067" y1="105.19413" x2="284.48067" y2="138.50262" gradientUnits="userSpaceOnUse" id="color-25"><stop offset="0" stop-color="#40a6f9"/><stop offset="1" stop-color="#3fa3f7"/></linearGradient><linearGradient x1="90.27792" y1="144.90599" x2="90.27792" y2="199.1877" gradientUnits="userSpaceOnUse" id="color-26"><stop offset="0" stop-color="#3fa2f7"/><stop offset="1" stop-color="#3e9df3"/></linearGradient></defs><g transform="translate(-71.54111,-50.52077)"><g data-paper-data="{&quot;isPaintingLayer&quot;:true}" fill-rule="nonzero" stroke-linecap="butt" stroke-linejoin="miter" stroke-miterlimit="10" stroke-dasharray="" stroke-dashoffset="0" style="mix-blend-mode: normal"><g><g stroke="#244555" stroke-width="6"><path d="M87.61768,53.56204h304.39209v252.9172h-304.39208z" fill="url(#color-1)"/><path d="M391.09881,53.64304c3.6252,0 6.91069,1.50339 9.28897,3.93322c2.37908,2.42898 3.85112,5.7844 3.85112,9.48678c0,3.70243 -1.47205,7.05787 -3.85112,9.48685c-2.37829,2.42984 -5.66377,3.93323 -9.28897,3.93323c-3.62511,0 -6.9106,-1.50339 -9.28889,-3.93323c-2.37916,-2.42898 -3.85112,-5.78441 -3.85112,-9.48685c0,-3.70238 1.47196,-7.0578 3.85112,-9.48678c2.37829,-2.42983 5.66378,-3.93322 9.28889,-3.93322z" fill="url(#color-2)"/><path d="M391.18608,279.62608c3.6252,0 6.91069,1.50339 9.28897,3.93322c2.37908,2.42898 3.85112,5.78441 3.85112,9.48678c0,3.70244 -1.47205,7.05786 -3.85112,9.48684c-2.37829,2.42983 -5.66377,3.93322 -9.28897,3.93322c-3.62511,0 -6.9106,-1.50339 -9.28889,-3.93322c-2.37916,-2.42898 -3.85112,-5.7844 -3.85112,-9.48684c0,-3.70237 1.47196,-7.0578 3.85112,-9.48678c2.37829,-2.42983 5.66378,-3.93322 9.28889,-3.93322z" fill="url(#color-3)"/><path d="M87.81201,53.52077c3.6252,0 6.91068,1.50339 9.28897,3.93322c2.37908,2.42898 3.85112,5.7844 3.85112,9.48678c0,3.70243 -1.47205,7.05787 -3.85112,9.48685c-2.37829,2.42983 -5.66377,3.93322 -9.28897,3.93322c-3.62511,0 -6.9106,-1.50339 -9.28889,-3.93322c-2.37916,-2.42898 -3.85113,-5.78441 -3.85113,-9.48685c0,-3.70238 1.47197,-7.0578 3.85113,-9.48678c2.37829,-2.42983 5.66378,-3.93322 9.28889,-3.93322z" fill="url(#color-4)"/><path d="M87.68112,279.62608c3.6252,0 6.91069,1.50339 9.28897,3.93322c2.37908,2.42898 3.85112,5.78441 3.85112,9.48678c0,3.70244 -1.47205,7.05786 -3.85112,9.48684c-2.37829,2.42983 -5.66377,3.93322 -9.28897,3.93322c-3.62511,0 -6.9106,-1.50339 -9.28889,-3.93322c-2.37916,-2.42898 -3.85112,-5.7844 -3.85112,-9.48684c0,-3.70237 1.47196,-7.0578 3.85112,-9.48678c2.37829,-2.42983 5.66378,-3.93322 9.28889,-3.93322z" fill="url(#color-5)"/><path d="M74.64634,65.71103h329.81256v228.42101h-329.81256z" fill="url(#color-6)"/></g><g stroke="none"><path d="M87.61768,53.56204h304.39209v252.9172h-304.39208z" fill="url(#color-7)" stroke-width="6.59245"/><path d="M391.09881,53.64304c3.6252,0 6.91069,1.50339 9.28897,3.93322c2.37908,2.42898 3.85112,5.7844 3.85112,9.48678c0,3.70243 -1.47205,7.05787 -3.85112,9.48685c-2.37829,2.42984 -5.66377,3.93323 -9.28897,3.93323c-3.62511,0 -6.9106,-1.50339 -9.28889,-3.93323c-2.37916,-2.42898 -3.85112,-5.78441 -3.85112,-9.48685c0,-3.70238 1.47196,-7.0578 3.85112,-9.48678c2.37829,-2.42983 5.66378,-3.93322 9.28889,-3.93322z" fill="url(#color-8)" stroke-width="1.17276"/><path d="M391.18608,279.62608c3.6252,0 6.91069,1.50339 9.28897,3.93322c2.37908,2.42898 3.85112,5.78441 3.85112,9.48678c0,3.70244 -1.47205,7.05786 -3.85112,9.48684c-2.37829,2.42983 -5.66377,3.93322 -9.28897,3.93322c-3.62511,0 -6.9106,-1.50339 -9.28889,-3.93322c-2.37916,-2.42898 -3.85112,-5.7844 -3.85112,-9.48684c0,-3.70237 1.47196,-7.0578 3.85112,-9.48678c2.37829,-2.42983 5.66378,-3.93322 9.28889,-3.93322z" fill="url(#color-9)" stroke-width="1.17276"/><path d="M87.81201,53.52077c3.6252,0 6.91068,1.50339 9.28897,3.93322c2.37908,2.42898 3.85112,5.7844 3.85112,9.48678c0,3.70243 -1.47205,7.05787 -3.85112,9.48685c-2.37829,2.42983 -5.66377,3.93322 -9.28897,3.93322c-3.62511,0 -6.9106,-1.50339 -9.28889,-3.93322c-2.37916,-2.42898 -3.85113,-5.78441 -3.85113,-9.48685c0,-3.70238 1.47197,-7.0578 3.85113,-9.48678c2.37829,-2.42983 5.66378,-3.93322 9.28889,-3.93322z" fill="url(#color-10)" stroke-width="1.17276"/><path d="M87.68112,279.62608c3.6252,0 6.91069,1.50339 9.28897,3.93322c2.37908,2.42898 3.85112,5.78441 3.85112,9.48678c0,3.70244 -1.47205,7.05786 -3.85112,9.48684c-2.37829,2.42983 -5.66377,3.93322 -9.28897,3.93322c-3.62511,0 -6.9106,-1.50339 -9.28889,-3.93322c-2.37916,-2.42898 -3.85112,-5.7844 -3.85112,-9.48684c0,-3.70237 1.47196,-7.0578 3.85112,-9.48678c2.37829,-2.42983 5.66378,-3.93322 9.28889,-3.93322z" fill="url(#color-11)" stroke-width="1.17276"/><path d="M74.64634,65.71103h329.81256v228.42101h-329.81256z" fill="url(#color-12)" stroke-width="1.74925"/></g></g><g data-paper-data="{&quot;origPos&quot;:null}" fill="#244555" stroke="none" stroke-width="0.26458"><path d="M113.01153,211.15932c3.1638,0.45605 4.90817,0.72397 5.2331,0.80378c0,0.04555 1.0888,3.30911 3.26641,9.79067c-0.22802,0.0855 -1.542,0.25082 -3.94191,0.49596c-0.16532,-0.55865 -0.35058,-1.42228 -0.55581,-2.5909c-2.05219,0.18812 -3.07829,0.35342 -3.07829,0.49594l-0.55581,1.97524h-0.05985c-2.42273,-0.44465 -3.63409,-0.71257 -3.63409,-0.80378c1.93249,-6.04257 3.04124,-9.43153 3.32626,-10.16691zM114.67038,217.07648h1.85553l-0.68406,-2.7106c-0.53014,0 -0.79522,0.10261 -0.79522,0.30782c-0.08551,0.41614 -0.21092,1.21707 -0.37624,2.40278z"/><path d="M133.13156,213.73311c2.42273,0.06266 3.63409,0.16812 3.63409,0.31639c0.41614,6.31049 0.62421,9.6681 0.62421,10.07284c-1.83557,1.16862 -3.14955,1.96098 -3.94191,2.37712c-2.79327,-0.87787 -4.18988,-1.37952 -4.18988,-1.50493c0.90069,-1.31683 1.42228,-1.9838 1.5648,-2.00089c1.52204,0.75247 2.39707,1.12871 2.6251,1.12871l0.81233,-1.06886c-0.21661,-0.88358 -0.36198,-1.40517 -0.43609,-1.56478c-0.12541,0 -1.67025,0.25082 -4.63453,0.75247c-1.62465,-2.63935 -2.43698,-3.99323 -2.43698,-4.06163c1.40233,-2.24032 2.25742,-3.55429 2.56524,-3.94193h0.05985c0.16532,0 1.39663,0.27077 3.69394,0.81233v-0.18812c0,-0.22232 -0.01996,-0.57861 -0.05985,-1.06884zM130.44661,217.35865c0.07981,0.17672 0.33064,1.11731 0.75247,2.82178c0.53014,-0.17101 1.34248,-0.48454 2.43698,-0.94059c-0.21092,-1.0261 -0.31638,-1.6104 -0.31638,-1.75292l-0.30782,-0.0599h-0.37624c-0.47885,0 -1.20851,-0.02278 -2.18901,-0.06834z"/><path d="M139.61308,213.70746c3.38612,0.46745 5.07918,0.75533 5.07918,0.86363c1.33392,1.14582 2.00089,1.75863 2.00089,1.83843c-0.54154,1.69305 -0.84938,2.722 -0.92349,3.08682c0.54154,1.20282 0.84938,1.92109 0.92349,2.15481c0,0.06839 -0.88358,0.25082 -2.65075,0.54725c-0.0228,-0.09696 -0.18527,-0.31358 -0.4874,-0.64986c-2.43983,0.46745 -3.75381,0.70117 -3.94191,0.70117l-1.29972,-3.51439l2.86452,-1.51349c0.46174,0.07413 1.18287,0.11119 2.16335,0.11119c0,-0.12541 0.01711,-0.5045 0.05131,-1.13726c-0.16532,0 -1.64176,0.10832 -4.42932,0.32493l-0.05131,-0.11119c0.38764,-1.80137 0.62137,-2.70206 0.70117,-2.70206zM141.39165,218.73533c0,0.06266 0.18241,0.72962 0.54725,2.00089h0.05131c0.71826,-0.46743 1.0774,-0.77527 1.0774,-0.92348l0.11116,-0.91494c-0.13681,0 -0.73251,-0.05416 -1.78712,-0.16249z"/><path d="M157.01396,213.70746c1.39093,0.57575 2.5909,1.11731 3.59989,1.62465c-0.26222,3.39182 -0.43038,5.24734 -0.5045,5.56658c-1.67596,0.41614 -2.6137,0.62421 -2.81321,0.62421c0,-0.74108 -0.057,-2.20326 -0.17101,-4.38656c-0.63277,0.06266 -0.94914,0.11682 -0.94914,0.16249c0,0.21661 0.03705,1.45364 0.11116,3.71105c0.0342,0 0.05131,0.01997 0.05131,0.0599c0,0.06839 -0.88074,0.25651 -2.6422,0.56436c-0.07411,-0.09122 -0.29928,-1.47932 -0.67551,-4.16425c-0.71257,0.18243 -1.06886,0.31353 -1.06886,0.39333l0.34202,3.48873c-0.0684,0.07413 -1.00615,0.37341 -2.81321,0.89785c-1.0489,-3.71105 -1.70445,-6.20219 -1.96669,-7.4734c1.97809,-0.49025 3.084,-0.73537 3.3177,-0.73537c0.26222,1.0375 0.39333,1.63605 0.39333,1.79566h0.05985c0.96339,-0.88928 1.63605,-1.48784 2.01798,-1.79566h0.05985l1.79568,1.29116h0.05985c1.123,-1.0831 1.72156,-1.62465 1.79568,-1.62465z"/><path d="M166.31722,213.71602c2.58235,1.32823 4.01318,2.1035 4.29251,2.32582c-0.37053,1.73296 -0.59001,2.62509 -0.65841,2.6764h-5.40411v0.09399l1.51349,1.87264l2.37712,-1.21422c0.23372,0.40474 0.57005,1.1116 1.00899,2.12061c-0.20521,0.06839 -1.70161,0.28786 -4.48917,0.65841c-2.30871,-1.52206 -3.47162,-2.31444 -3.48873,-2.37713c0.37053,-2.95859 0.59001,-4.43787 0.65841,-4.43787c2.41133,-1.02608 3.80795,-1.59898 4.18988,-1.7187zM165.76143,215.78531c-0.0456,0.11401 -0.34773,0.56719 -0.90638,1.35957c0,0.23942 0.33633,0.35913 1.00899,0.35913c0,0.0342 0.4874,0.11685 1.46219,0.24799c0.26793,-0.37053 0.40189,-0.58716 0.40189,-0.64988c-0.0855,-0.50734 -0.27077,-0.76102 -0.55581,-0.76102z"/><path d="M179.72489,211.12512l0.05985,0.11119c0,0.32493 0.07411,1.58191 0.22232,3.7709c2.04078,-0.64986 3.18376,-0.9919 3.42888,-1.0261l3.07829,3.30916c-1.29403,2.90157 -1.99804,4.44072 -2.11205,4.61744c-0.35913,-0.03993 -1.67025,-0.09693 -3.93338,-0.17101v0.40189c0,0.07413 -0.03991,0.11119 -0.11972,0.11119h-3.30916c-0.11972,0 -0.34773,-1.71016 -0.68406,-5.13049c-0.07411,-0.29073 -0.28217,-2.00374 -0.62421,-5.13903c1.93818,-0.45605 3.26925,-0.74108 3.99323,-0.85509zM180.29779,217.40141l0.22232,2.11205h1.71872l0.62421,-2.39422c-1.71016,0.14821 -2.56524,0.24228 -2.56524,0.28217z"/><path d="M191.32833,213.72457c0.07981,0.01137 0.11972,0.05125 0.11972,0.11963l-0.88929,4.92526c1.69876,-0.1995 2.54814,-0.35912 2.54814,-0.47883c0.31924,-1.9724 0.5387,-3.0783 0.65841,-3.31772c2.1035,0.43325 3.26925,0.68977 3.49728,0.76958c-1.22562,4.2127 -1.89828,6.40741 -2.01798,6.58411c-2.14341,1.50495 -3.34906,2.33722 -3.61698,2.49685c-0.07981,0 -1.44508,-0.33633 -4.09583,-1.00901v-0.0599c0.70117,-1.54484 1.13726,-2.31727 1.30827,-2.31727l2.60799,1.30827l1.24841,-2.1377c-1.123,0.27933 -1.77572,0.41898 -1.95813,0.41898l-3.32626,-1.72726c0.40474,-3.71675 0.66126,-5.57512 0.76958,-5.57512z"/><path d="M205.00106,211.12512l3.76235,0.66697l-0.35913,2.85596c0.74677,-0.03993 1.29403,-0.0599 1.64176,-0.0599h0.54725l0.11972,-0.0599l0.05985,0.1198c-0.11972,1.73296 -0.22232,2.70775 -0.30784,2.92437l-0.11972,-0.06834c-0.0855,0 -0.85507,-0.03988 -2.30871,-0.11963c-0.07981,1.33961 -0.13967,2.94146 -0.17957,4.80554l-0.11972,0.0599c-1.83557,-0.11972 -2.93008,-0.22232 -3.2835,-0.30784l0.05985,-0.23942c0,-0.49596 0.07981,-2.03509 0.23942,-4.61744c-1.53915,-0.0855 -2.30871,-0.1881 -2.30871,-0.30784c0.07981,-1.90398 0.18241,-2.85596 0.30784,-2.85596l2.24886,0.42754v-0.73536c0,-0.59856 -0.0228,-1.40803 -0.0684,-2.42843c0.0456,0 0.0684,-0.01997 0.0684,-0.0599z"/><path d="M215.51001,211.12512c0.0342,0.0513 0.19383,1.61325 0.47885,4.68584c2.20041,-0.67266 3.37186,-1.00899 3.51438,-1.00899l2.18046,1.48784c-0.35344,3.2493 -0.5843,5.14758 -0.69262,5.69483l-3.02699,0.10259c0,-0.0342 -0.01996,-0.0513 -0.05985,-0.0513l0.05985,-0.21377c0,-0.46174 0.0684,-1.86408 0.20521,-4.20699c-0.83227,-0.0342 -1.45079,-0.0513 -1.85553,-0.0513h-0.21377c0.24512,2.60515 0.36769,4.02457 0.36769,4.25829l-2.87307,0.42755c-0.10832,-0.36484 -0.74677,-3.7709 -1.91538,-10.21822c0,-0.18241 0.44465,-0.32493 1.33392,-0.42754c1.123,-0.31924 1.95529,-0.47885 2.49683,-0.47885z"/><path d="M227.33576,213.71602c2.58235,1.32823 4.01318,2.1035 4.29251,2.32582c-0.37053,1.73296 -0.59001,2.62509 -0.65841,2.6764h-5.40411v0.09399l1.51349,1.87264l2.37713,-1.21422c0.23372,0.40474 0.57005,1.1116 1.00899,2.12061c-0.20521,0.06839 -1.70161,0.28786 -4.48917,0.65841c-2.30871,-1.52206 -3.47162,-2.31444 -3.48873,-2.37713c0.37053,-2.95859 0.59001,-4.43787 0.65841,-4.43787c2.41133,-1.02608 3.80795,-1.59898 4.18988,-1.7187zM226.77996,215.78531c-0.0456,0.11401 -0.34773,0.56719 -0.90638,1.35957c0,0.23942 0.33633,0.35913 1.00899,0.35913c0,0.0342 0.4874,0.11685 1.46219,0.24799c0.26793,-0.37053 0.40189,-0.58716 0.40189,-0.64988c-0.0855,-0.50734 -0.27077,-0.76102 -0.55581,-0.76102z"/><path d="M243.47112,211.12512c2.05219,1.0375 3.1068,1.55624 3.1638,1.55624c0,0.09122 -0.42754,0.91496 -1.28263,2.47118h-0.05985c-0.0684,0 -1.05175,-0.46458 -2.95003,-1.39377l-0.96623,1.29116c1.63605,0.78667 3.62269,1.78997 5.95991,3.00988c-1.0603,1.88688 -1.81277,3.141 -2.25742,3.76235l-4.83121,0.42755c-2.2061,-1.48784 -3.37186,-2.25742 -3.49728,-2.30873v-0.0599c0,-0.15963 0.44749,-0.89214 1.34248,-2.19757h0.11116c0.35344,0.21092 1.46219,0.81804 3.32626,1.82132l1.12871,-1.28261c-3.42602,-1.74437 -5.3243,-2.73056 -5.69483,-2.95859v-0.0513c1.0888,-2.12061 1.68165,-3.19516 1.77857,-3.22367c2.83316,-0.57575 4.40936,-0.86363 4.7286,-0.86363z"/><path d="M251.60294,213.71602c2.57094,0.48454 3.91627,0.76102 4.03598,0.82943v0.10259c-0.55294,1.56195 -0.82943,2.37142 -0.82943,2.42843h-0.05131c-0.14252,0 -0.83227,-0.22232 -2.06929,-0.66695c-0.68977,1.1572 -1.03464,1.7757 -1.03464,1.85551l1.71016,1.65887c1.32252,-1.24272 1.99518,-1.86408 2.01798,-1.86408c1.03179,1.35103 1.54769,2.10919 1.54769,2.27451c-0.56435,0.32493 -1.54769,0.96341 -2.95003,1.91539c-2.71346,-0.58716 -4.17848,-0.91494 -4.39511,-0.98334l-1.34248,-4.34382z"/><path d="M263.92464,213.70746c1.12871,0.63277 1.82132,1.04319 2.07785,1.23131c-0.92349,1.92109 -1.41944,2.89872 -1.48784,2.93292h-0.05985l-1.22276,-1.06884l-1.44508,1.76146l0.16247,3.20656c-0.07411,0.06839 -1.01755,0.22802 -2.83032,0.47885c-0.0684,-0.49025 -0.51305,-2.89303 -1.33392,-7.20834c0,-0.06839 1.19142,-0.24511 3.57424,-0.53014c0.03989,0.04555 0.14821,0.57856 0.32493,1.599c1.42513,-1.60185 2.1719,-2.40278 2.24031,-2.40278z"/><path d="M267.97773,213.70746c3.38612,0.46745 5.07918,0.75533 5.07918,0.86363c1.33392,1.14582 2.00087,1.75863 2.00087,1.83843c-0.54154,1.69305 -0.84936,2.722 -0.92348,3.08682c0.54156,1.20282 0.84938,1.92109 0.92348,2.15481c0,0.06839 -0.88358,0.25082 -2.65073,0.54725c-0.02283,-0.09696 -0.18531,-0.31358 -0.4874,-0.64986c-2.43983,0.46745 -3.75381,0.70117 -3.94191,0.70117l-1.29972,-3.51439l2.86452,-1.51349c0.46174,0.07413 1.18287,0.11119 2.16336,0.11119c0,-0.12541 0.01709,-0.5045 0.0513,-1.13726c-0.16532,0 -1.64176,0.10832 -4.4293,0.32493l-0.05131,-0.11119c0.38764,-1.80137 0.62137,-2.70206 0.70117,-2.70206zM269.7563,218.73533c0,0.06266 0.18241,0.72962 0.54724,2.00089h0.0513c0.71826,-0.46743 1.0774,-0.77527 1.0774,-0.92348l0.11119,-0.91494c-0.13681,0 -0.73251,-0.05416 -1.78711,-0.16249z"/><path d="M275.87865,211.13367c1.74437,0.0342 3.02415,0.0513 3.83932,0.0513c0.07413,0 0.2993,3.50013 0.67551,10.50038c-0.29073,0.07413 -1.30543,0.26225 -3.04408,0.56436c-0.0855,0 -0.36767,-2.14341 -0.84653,-6.43021c-0.03993,-0.10259 -0.248,-1.66454 -0.62421,-4.68584z"/><path d="M282.6509,213.70746c3.38612,0.46745 5.07918,0.75533 5.07918,0.86363c1.33392,1.14582 2.00089,1.75863 2.00089,1.83843c-0.54156,1.69305 -0.84938,2.722 -0.92349,3.08682c0.54156,1.20282 0.84938,1.92109 0.92349,2.15481c0,0.06839 -0.88358,0.25082 -2.65075,0.54725c-0.02283,-0.09696 -0.18529,-0.31358 -0.48739,-0.64986c-2.43984,0.46745 -3.75381,0.70117 -3.94193,0.70117l-1.29972,-3.51439l2.86452,-1.51349c0.46174,0.07413 1.18287,0.11119 2.16335,0.11119c0,-0.12541 0.01709,-0.5045 0.0513,-1.13726c-0.16532,0 -1.64176,0.10832 -4.42932,0.32493l-0.0513,-0.11119c0.38763,-1.80137 0.62135,-2.70206 0.70115,-2.70206zM284.42947,218.73533c0,0.06266 0.18241,0.72962 0.54725,2.00089h0.0513c0.71826,-0.46743 1.0774,-0.77527 1.0774,-0.92348l0.11119,-0.91494c-0.13681,0 -0.73251,-0.05416 -1.78712,-0.16249z"/><path d="M296.63145,213.70746h0.03425c1.52204,0.89498 2.34293,1.36243 2.46265,1.40233v0.07694c-0.39333,0.45035 -1.11731,1.23133 -2.17192,2.34293c2.06929,0.76958 3.2322,1.23416 3.48873,1.39377l-1.93249,2.38567c-1.30543,-1.11729 -2.1377,-1.81562 -2.49683,-2.09494c-0.88358,1.72156 -1.43368,2.73342 -1.6503,3.03555h-0.03425c-1.63607,-0.57576 -2.52534,-0.9178 -2.66786,-1.0261v-0.04269l2.25742,-2.95003c-2.09779,-0.86647 -3.2208,-1.37383 -3.36901,-1.52204c0.92349,-1.56765 1.44224,-2.40278 1.55624,-2.50539c0.01709,0.03993 1.03179,0.73825 3.04408,2.09496c0.71257,-1.31683 1.20567,-2.18046 1.47929,-2.5909z"/><path d="M305.1566,213.72457c0.07987,0.01137 0.1198,0.05125 0.1198,0.11963l-0.88928,4.92526c1.69875,-0.1995 2.54813,-0.35912 2.54813,-0.47883c0.31924,-1.9724 0.5387,-3.0783 0.65841,-3.31772c2.1035,0.43325 3.26925,0.68977 3.49728,0.76958c-1.22562,4.2127 -1.89828,6.40741 -2.018,6.58411c-2.14339,1.50495 -3.34906,2.33722 -3.61698,2.49685c-0.07987,0 -1.44515,-0.33633 -4.09583,-1.00901v-0.0599c0.70117,-1.54484 1.13726,-2.31727 1.30827,-2.31727l2.60799,1.30827l1.24842,-2.1377c-1.12302,0.27933 -1.77572,0.41898 -1.95813,0.41898l-3.32627,-1.72726c0.40475,-3.71675 0.66128,-5.57512 0.76958,-5.57512z"/><path d="M328.28653,211.12512l0.0513,0.11119c-0.14821,2.17761 -0.25937,3.26641 -0.33348,3.26641h-0.0513c-2.35431,-0.18812 -3.66543,-0.29928 -3.93336,-0.33348v7.58456c0,0.13683 -0.53585,0.22803 -1.60756,0.27363c0,0.03993 -0.6071,0.11404 -1.82132,0.22232l-0.0599,-0.11119c0.26222,-4.52623 0.43038,-7.19978 0.5045,-8.02065c-0.90069,0.14252 -2.22891,0.32493 -3.98467,0.54725c-0.51876,-1.93818 -0.77813,-2.93292 -0.77813,-2.98423c0,-0.07413 4.00463,-0.2594 12.01388,-0.55581z"/><path d="M334.04977,213.71602c2.58235,1.32823 4.01318,2.1035 4.29251,2.32582c-0.37053,1.73296 -0.59001,2.62509 -0.65841,2.6764h-5.40411v0.09399l1.51349,1.87264l2.37713,-1.21422c0.23372,0.40474 0.57005,1.1116 1.00899,2.12061c-0.20523,0.06839 -1.70161,0.28786 -4.48917,0.65841c-2.30873,-1.52206 -3.47164,-2.31444 -3.48873,-2.37713c0.37053,-2.95859 0.59001,-4.43787 0.65841,-4.43787c2.41132,-1.02608 3.80795,-1.59898 4.18988,-1.7187zM333.49398,215.78531c-0.04555,0.11401 -0.34768,0.56719 -0.90638,1.35957c0,0.23942 0.33633,0.35913 1.00899,0.35913c0,0.0342 0.48739,0.11685 1.46218,0.24799c0.26793,-0.37053 0.40189,-0.58716 0.40189,-0.64988c-0.0855,-0.50734 -0.27076,-0.76102 -0.55579,-0.76102z"/><path d="M340.42014,213.70746c3.38612,0.46745 5.07918,0.75533 5.07918,0.86363c1.33392,1.14582 2.00089,1.75863 2.00089,1.83843c-0.54156,1.69305 -0.84938,2.722 -0.92349,3.08682c0.54156,1.20282 0.84938,1.92109 0.92349,2.15481c0,0.06839 -0.88358,0.25082 -2.65075,0.54725c-0.02283,-0.09696 -0.18531,-0.31358 -0.4874,-0.64986c-2.43983,0.46745 -3.75379,0.70117 -3.94191,0.70117l-1.29972,-3.51439l2.86452,-1.51349c0.46174,0.07413 1.18285,0.11119 2.16335,0.11119c0,-0.12541 0.01709,-0.5045 0.0513,-1.13726c-0.16532,0 -1.64176,0.10832 -4.42932,0.32493l-0.0513,-0.11119c0.38764,-1.80137 0.62137,-2.70206 0.70117,-2.70206zM342.19871,218.73533c0,0.06266 0.18241,0.72962 0.54725,2.00089h0.0513c0.71826,-0.46743 1.0774,-0.77527 1.0774,-0.92348l0.11119,-0.91494c-0.13681,0 -0.73251,-0.05416 -1.78711,-0.16249z"/><path d="M357.82102,213.70746c1.39093,0.57575 2.59088,1.11731 3.59988,1.62465c-0.26222,3.39182 -0.43038,5.24734 -0.5045,5.56658c-1.67594,0.41614 -2.61368,0.62421 -2.81321,0.62421c0,-0.74108 -0.057,-2.20326 -0.17101,-4.38656c-0.63277,0.06266 -0.94914,0.11682 -0.94914,0.16249c0,0.21661 0.03706,1.45364 0.11119,3.71105c0.0342,0 0.0513,0.01997 0.0513,0.0599c0,0.06839 -0.88074,0.25651 -2.6422,0.56436c-0.07413,-0.09122 -0.2993,-1.47932 -0.67551,-4.16425c-0.71257,0.18243 -1.06886,0.31353 -1.06886,0.39333l0.34204,3.48873c-0.06839,0.07413 -1.00613,0.37341 -2.81322,0.89785c-1.04889,-3.71105 -1.70445,-6.20219 -1.96669,-7.4734c1.97809,-0.49025 3.084,-0.73537 3.31772,-0.73537c0.26222,1.0375 0.39333,1.63605 0.39333,1.79566h0.0599c0.96341,-0.88928 1.63607,-1.48784 2.018,-1.79566h0.0599l1.79568,1.29116h0.0599c1.12302,-1.0831 1.72156,-1.62465 1.79568,-1.62465z"/></g><path d="M99.84117,241.60431c0,2.0408 -0.72397,3.78517 -2.1719,5.2331c-1.44224,1.44224 -3.18376,2.16335 -5.22454,2.16335c-2.04078,0 -3.78515,-0.72111 -5.2331,-2.16335c-1.44224,-1.44793 -2.16335,-3.19229 -2.16335,-5.2331c0,-2.0408 0.72111,-3.7823 2.16335,-5.22454c1.44793,-1.44793 3.19229,-2.1719 5.2331,-2.1719c2.04078,0 3.7823,0.72397 5.22454,2.1719c1.44793,1.44224 2.1719,3.18374 2.1719,5.22454zM98.84929,241.60431c0,-1.76717 -0.62706,-3.28352 -1.88117,-4.54903c-1.24842,-1.26552 -2.7562,-1.89827 -4.52337,-1.89827c-1.76717,0 -3.27781,0.63275 -4.53192,1.89827c-1.24842,1.26552 -1.87262,2.78187 -1.87262,4.54903c0,1.76717 0.62421,3.28352 1.87262,4.54903c1.25412,1.26552 2.76476,1.89827 4.53192,1.89827c1.76717,0 3.27496,-0.63275 4.52337,-1.89827c1.25412,-1.26552 1.88117,-2.78187 1.88117,-4.54903zM95.44606,244.99897c-0.49025,0.22232 -0.96339,0.39049 -1.41944,0.5045c-0.45034,0.10833 -0.89783,0.16249 -1.34248,0.16249c-1.29403,0 -2.31727,-0.35058 -3.06973,-1.05175c-0.75247,-0.70117 -1.12871,-1.71872 -1.12871,-3.05264c0,-1.28263 0.38193,-2.29162 1.1458,-3.02697c0.76958,-0.73537 1.78712,-1.10306 3.05264,-1.10306c0.50734,0 1.00615,0.0684 1.49639,0.20521c0.49025,0.13683 0.91209,0.28504 1.26552,0.44465v1.54769h-0.13681c-0.30784,-0.22802 -0.70402,-0.44178 -1.18856,-0.6413c-0.47885,-0.19952 -0.97194,-0.29928 -1.47929,-0.29928c-0.80947,0 -1.44224,0.24512 -1.89828,0.73537c-0.45034,0.48454 -0.67551,1.19711 -0.67551,2.1377c0,0.90638 0.21661,1.60756 0.64986,2.1035c0.43894,0.49596 1.08024,0.74393 1.92393,0.74393c0.47314,0 0.93203,-0.08267 1.37668,-0.24799c0.45034,-0.16532 0.88074,-0.39618 1.29116,-0.6926h0.13681z" fill="#244555" stroke="none" stroke-width="0.26458"/><path d="M114.86493,236.07193h0.68406c0.07981,0 0.27363,0.87503 0.58146,2.6251c0.0342,0.0513 0.59286,2.76476 1.67596,8.14037l-0.10261,0.0513c-2.06929,-0.06266 -3.10393,-0.15101 -3.10393,-0.26506c0,-0.59856 -0.24512,-1.01756 -0.73537,-1.25698c0,-0.02283 -0.80378,-0.66985 -2.41133,-1.94102h-0.05131c0.0342,0.0513 0.13967,1.04889 0.31638,2.99277c-1.67025,0.49025 -2.65075,0.75248 -2.94148,0.78669c-0.09121,0 -0.37053,-1.96098 -0.83798,-5.88295c-0.07411,-0.24512 -0.26793,-1.62751 -0.58146,-4.14714l3.04408,-0.83798c0.0684,0 0.26222,1.25982 0.58146,3.77946l2.99277,2.6251h0.05131c0,-0.0855 -0.43894,-2.27449 -1.31683,-6.56702c0.03989,0 0.05985,-0.01709 0.05985,-0.0513c0.87787,-0.0342 1.5762,-0.0513 2.09494,-0.0513z" fill="#244555" stroke="none" stroke-width="0.26458"/><path d="M119.85861,235.23397l3.36046,0.53014c-0.42184,1.61325 -0.69831,2.41987 -0.82943,2.41987c-1.76717,-0.11972 -2.65075,-0.23657 -2.65075,-0.35058v-2.47974c0.01709,-0.07976 0.057,-0.11963 0.11972,-0.11963zM118.91801,239.30413h0.05131c2.59944,0.47316 3.89916,0.74962 3.89916,0.82943c-0.74677,4.22981 -1.19996,6.58699 -1.35957,7.07153h-2.7106c-0.07981,0 -0.11972,-0.03993 -0.11972,-0.1198z" fill="#244555" stroke="none" stroke-width="0.26458"/><path d="M131.09436,238.66283l2.84743,1.95813c-0.19952,3.24931 -0.33918,5.14758 -0.41898,5.69483c-0.33064,0.03993 -1.33678,0.09979 -3.01844,0.17957l-0.05985,-0.1198l-0.29928,-4.56613l-0.11972,-0.0599c-1.0888,0.23372 -1.83842,0.41043 -2.24886,0.53014c0.11401,1.94389 0.17101,3.34907 0.17101,4.21555c-1.69876,0.47316 -2.62795,0.70973 -2.78756,0.70973c-1.10591,-4.86825 -1.65885,-7.4392 -1.65885,-7.71283c2.40563,-0.31353 3.71105,-0.47029 3.91627,-0.47029v0.0599c0.03989,0.02846 0.09976,0.62132 0.17957,1.77857c2.2061,-1.46504 3.37186,-2.19755 3.49728,-2.19755z" fill="#244555" stroke="none" stroke-width="0.26458"/><path d="M137.34499,236.08048l3.76235,0.66697l-0.35913,2.85596c0.74677,-0.03993 1.29403,-0.0599 1.64176,-0.0599h0.54725l0.11972,-0.0599l0.05985,0.1198c-0.11972,1.73296 -0.22232,2.70775 -0.30784,2.92437l-0.11972,-0.06834c-0.0855,0 -0.85507,-0.03988 -2.30871,-0.11963c-0.07981,1.33961 -0.13967,2.94146 -0.17957,4.80554l-0.11972,0.0599c-1.83557,-0.11972 -2.93008,-0.22234 -3.2835,-0.30784l0.05985,-0.23942c0,-0.49596 0.07981,-2.03509 0.23942,-4.61744c-1.53915,-0.0855 -2.30871,-0.1881 -2.30871,-0.30784c0.07981,-1.90398 0.18243,-2.85596 0.30784,-2.85596l2.24886,0.42754v-0.73536c0,-0.59856 -0.0228,-1.40803 -0.0684,-2.42843c0.0456,0 0.0684,-0.01997 0.0684,-0.0599z" fill="#244555" stroke="none" stroke-width="0.26458"/><path d="M148.87148,238.67138c2.58235,1.32823 4.01318,2.1035 4.29251,2.32582c-0.37053,1.73296 -0.59001,2.62509 -0.65841,2.6764h-5.40411v0.09399l1.51349,1.87264l2.37712,-1.21422c0.23372,0.40474 0.57005,1.1116 1.00899,2.12061c-0.20521,0.06839 -1.70161,0.28786 -4.48917,0.65841c-2.30871,-1.52206 -3.47162,-2.31444 -3.48873,-2.37713c0.37053,-2.95859 0.59001,-4.43787 0.65841,-4.43787c2.41133,-1.02608 3.80795,-1.59898 4.18988,-1.7187zM148.31567,240.74068c-0.0456,0.11401 -0.34773,0.56719 -0.90638,1.35957c0,0.23942 0.33633,0.35913 1.00899,0.35913c0,0.0342 0.4874,0.11685 1.46219,0.24799c0.26793,-0.37053 0.40189,-0.58716 0.40189,-0.64988c-0.0855,-0.50734 -0.27077,-0.76102 -0.55581,-0.76102z" fill="#244555" stroke="none" stroke-width="0.26458"/><path d="M161.53522,238.66283l2.84743,1.95813c-0.19952,3.24931 -0.33918,5.14758 -0.41898,5.69483c-0.33064,0.03993 -1.33677,0.09979 -3.01844,0.17957l-0.05985,-0.1198l-0.29928,-4.56613l-0.11972,-0.0599c-1.0888,0.23372 -1.83842,0.41043 -2.24886,0.53014c0.11401,1.94389 0.17101,3.34907 0.17101,4.21555c-1.69876,0.47316 -2.62795,0.70973 -2.78756,0.70973c-1.10591,-4.86825 -1.65885,-7.4392 -1.65885,-7.71283c2.40563,-0.31353 3.71105,-0.47029 3.91627,-0.47029v0.0599c0.03989,0.02846 0.09976,0.62132 0.17957,1.77857c2.2061,-1.46504 3.37186,-2.19755 3.49728,-2.19755z" fill="#244555" stroke="none" stroke-width="0.26458"/><path d="M170.40241,236.07193h0.05131c2.57664,0.21661 3.86497,0.3848 3.86497,0.50451l1.13726,10.06428c0,0.07413 -1.13726,0.26225 -3.41177,0.56436l-0.05131,-0.11119v-0.91494c-1.96098,0.53014 -3.30632,0.87218 -4.03598,1.0261c-1.73296,-2.45123 -2.6422,-3.75666 -2.72771,-3.91628c1.27692,-2.32011 1.95813,-3.49442 2.04365,-3.52292l3.58278,0.17101c-0.07411,-0.43894 -0.22517,-1.72727 -0.4532,-3.86497zM168.81194,242.20285c0.57575,1.76147 0.93489,2.72773 1.0774,2.89874l1.70161,-1.4793c-0.17672,-1.02039 -0.30784,-1.5306 -0.39333,-1.5306h-2.27451c-0.07411,0.01137 -0.11116,0.04843 -0.11116,0.11119z" fill="#244555" stroke="none" stroke-width="0.26458"/><path d="M179.79119,238.67138c2.16621,0.58146 3.31486,0.93489 3.44597,1.0603c1.19142,1.68736 1.86122,2.65929 2.00944,2.91581c-0.76958,2.43983 -1.21136,3.65974 -1.32537,3.65974c-2.56524,0.59856 -3.90771,0.89785 -4.02743,0.89785c-2.12061,-1.23702 -3.2493,-1.92678 -3.38612,-2.06929c-0.07411,-2.30302 -0.11116,-3.57424 -0.11116,-3.81366c-0.0342,-0.06839 -0.05131,-0.11968 -0.05131,-0.15389c2.18901,-1.66456 3.32056,-2.49683 3.39466,-2.49683zM179.62871,241.80098c-0.0342,0.22802 -0.08551,1.05744 -0.15392,2.48828l1.90682,0.42754c0.45605,-1.42513 0.68406,-2.18615 0.68406,-2.28306c-1.51635,-0.45605 -2.32867,-0.68406 -2.43698,-0.68406z" fill="#244555" stroke="none" stroke-width="0.26458"/><path d="M198.92786,237.64528l0.0342,0.06834c-1.24272,1.53915 -2.04078,2.65646 -2.39422,3.35192l-4.00178,6.43021h-0.0342c-1.40803,-0.13683 -2.1377,-0.22803 -2.18901,-0.27363c4.16139,-6.28198 6.282,-9.45149 6.3618,-9.50849c0.43325,-0.02283 1.17431,-0.04562 2.22321,-0.06834z" fill="#244555" stroke="none" stroke-width="0.26458"/><path d="M210.90755,236.08048c2.05219,1.0375 3.1068,1.55624 3.1638,1.55624c0,0.09122 -0.42754,0.91496 -1.28263,2.47118h-0.05985c-0.0684,0 -1.05175,-0.46458 -2.95003,-1.39377l-0.96623,1.29116c1.63605,0.78667 3.62269,1.78997 5.95991,3.00988c-1.0603,1.88688 -1.81277,3.141 -2.25742,3.76235l-4.83121,0.42755c-2.2061,-1.48784 -3.37186,-2.25742 -3.49728,-2.30873v-0.0599c0,-0.15963 0.44749,-0.89214 1.34248,-2.19757h0.11116c0.35344,0.21092 1.46219,0.81804 3.32626,1.82132l1.12871,-1.28261c-3.42602,-1.74437 -5.3243,-2.73056 -5.69483,-2.95859v-0.0513c1.0888,-2.12061 1.68165,-3.19516 1.77857,-3.22367c2.83316,-0.57575 4.40936,-0.86363 4.7286,-0.86363z" fill="#244555" stroke="none" stroke-width="0.26458"/><path d="M219.03935,238.67138c2.57094,0.48454 3.91627,0.76102 4.03598,0.82943v0.10259c-0.55294,1.56194 -0.82943,2.37142 -0.82943,2.42843h-0.05131c-0.14252,0 -0.83227,-0.22232 -2.06929,-0.66695c-0.68977,1.1572 -1.03464,1.7757 -1.03464,1.85551l1.71016,1.65887c1.32252,-1.24272 1.99518,-1.86408 2.01798,-1.86408c1.03179,1.35103 1.54769,2.10919 1.54769,2.27451c-0.56435,0.32493 -1.54769,0.96341 -2.95003,1.91539c-2.71346,-0.58716 -4.17848,-0.91494 -4.39511,-0.98334l-1.34248,-4.34382z" fill="#244555" stroke="none" stroke-width="0.26458"/><path d="M231.36105,238.66283c1.12871,0.63277 1.82132,1.04319 2.07785,1.23131c-0.92349,1.92109 -1.41944,2.89872 -1.48784,2.93292h-0.05985l-1.22276,-1.06884l-1.44508,1.76146l0.16247,3.20656c-0.07411,0.06839 -1.01755,0.22802 -2.83032,0.47885c-0.0684,-0.49025 -0.51305,-2.89303 -1.33392,-7.20834c0,-0.06839 1.19142,-0.24511 3.57424,-0.53014c0.03989,0.04555 0.14821,0.57856 0.32493,1.599c1.42513,-1.60185 2.1719,-2.40278 2.24031,-2.40278z" fill="#244555" stroke="none" stroke-width="0.26458"/><path d="M235.41414,238.66283c3.38612,0.46745 5.07918,0.75533 5.07918,0.86363c1.33392,1.14582 2.00089,1.75863 2.00089,1.83843c-0.54156,1.69305 -0.84938,2.722 -0.92349,3.08682c0.54156,1.20282 0.84938,1.92109 0.92349,2.15481c0,0.06839 -0.88358,0.25082 -2.65075,0.54725c-0.02283,-0.09696 -0.18531,-0.31358 -0.4874,-0.64986c-2.43983,0.46745 -3.75379,0.70117 -3.94191,0.70117l-1.29972,-3.51439l2.86452,-1.51349c0.46174,0.07413 1.18287,0.11119 2.16335,0.11119c0,-0.12541 0.01709,-0.5045 0.0513,-1.13726c-0.16532,0 -1.64176,0.10832 -4.42932,0.32493l-0.05131,-0.11119c0.38764,-1.80137 0.62137,-2.70206 0.70117,-2.70206zM237.19271,243.69069c0,0.06266 0.18241,0.72962 0.54725,2.00089h0.05131c0.71826,-0.46743 1.07741,-0.77527 1.07741,-0.92348l0.11119,-0.91494c-0.13683,0 -0.73253,-0.05416 -1.78712,-0.16249z" fill="#244555" stroke="none" stroke-width="0.26458"/><path d="M243.31508,236.08904c1.74437,0.0342 3.02413,0.0513 3.83931,0.0513c0.07413,0 0.2993,3.50013 0.67551,10.50038c-0.29073,0.07413 -1.30543,0.26225 -3.04408,0.56436c-0.0855,0 -0.36767,-2.14341 -0.84653,-6.43021c-0.03993,-0.10259 -0.248,-1.66454 -0.6242,-4.68584z" fill="#244555" stroke="none" stroke-width="0.26458"/><path d="M250.08733,238.66283c3.38612,0.46745 5.07918,0.75533 5.07918,0.86363c1.33392,1.14582 2.00087,1.75863 2.00087,1.83843c-0.54154,1.69305 -0.84936,2.722 -0.92348,3.08682c0.54154,1.20282 0.84936,1.92109 0.92348,2.15481c0,0.06839 -0.88358,0.25082 -2.65075,0.54725c-0.02283,-0.09696 -0.18529,-0.31358 -0.48739,-0.64986c-2.43983,0.46745 -3.75379,0.70117 -3.94191,0.70117l-1.29974,-3.51439l2.86452,-1.51349c0.46174,0.07413 1.18287,0.11119 2.16336,0.11119c0,-0.12541 0.01709,-0.5045 0.0513,-1.13726c-0.16532,0 -1.64176,0.10832 -4.42932,0.32493l-0.0513,-0.11119c0.38764,-1.80137 0.62137,-2.70206 0.70117,-2.70206zM251.86589,243.69069c0,0.06266 0.18241,0.72962 0.54724,2.00089h0.0513c0.71826,-0.46743 1.0774,-0.77527 1.0774,-0.92348l0.11119,-0.91494c-0.13681,0 -0.73251,-0.05416 -1.78711,-0.16249z" fill="#244555" stroke="none" stroke-width="0.26458"/><path d="M264.06788,238.66283h0.03425c1.52204,0.89498 2.34291,1.36243 2.46263,1.40233v0.07694c-0.39333,0.45035 -1.11731,1.23133 -2.1719,2.34293c2.06929,0.76958 3.2322,1.23416 3.48873,1.39377l-1.93249,2.38567c-1.30543,-1.11729 -2.1377,-1.81562 -2.49683,-2.09494c-0.88358,1.72156 -1.4337,2.73342 -1.65031,3.03555h-0.03425c-1.63605,-0.57576 -2.52532,-0.9178 -2.66784,-1.0261v-0.04269l2.2574,-2.95003c-2.09779,-0.86647 -3.2208,-1.37383 -3.36901,-1.52204c0.92349,-1.56765 1.44224,-2.40278 1.55624,-2.50539c0.01709,0.03993 1.03179,0.73825 3.04408,2.09496c0.71257,-1.31683 1.20567,-2.18046 1.4793,-2.5909z" fill="#244555" stroke="none" stroke-width="0.26458"/><path d="M272.59303,238.67994c0.07976,0.01137 0.11963,0.05125 0.11963,0.11963l-0.88928,4.92526c1.69876,-0.1995 2.54814,-0.35912 2.54814,-0.47883c0.31924,-1.9724 0.5387,-3.0783 0.65841,-3.31772c2.1035,0.43325 3.26925,0.68977 3.49727,0.76958c-1.22561,4.2127 -1.89827,6.40741 -2.01798,6.58411c-2.14341,1.50495 -3.34907,2.33722 -3.617,2.49685c-0.07976,0 -1.44503,-0.33633 -4.09583,-1.00901v-0.0599c0.70117,-1.54484 1.13726,-2.31727 1.30827,-2.31727l2.60799,1.30827l1.24842,-2.1377c-1.12302,0.27933 -1.77572,0.41898 -1.95813,0.41898l-3.32626,-1.72726c0.40474,-3.71675 0.66126,-5.57512 0.76956,-5.57512z" fill="#244555" stroke="none" stroke-width="0.26458"/><path d="M295.72294,236.08048l0.0513,0.11119c-0.14821,2.17761 -0.25937,3.26641 -0.33348,3.26641h-0.0513c-2.35433,-0.18812 -3.66545,-0.29928 -3.93338,-0.33348v7.58456c0,0.13683 -0.53585,0.22803 -1.60756,0.27363c0,0.03993 -0.6071,0.11404 -1.82131,0.22232l-0.0599,-0.11119c0.26222,-4.52623 0.43038,-7.19978 0.5045,-8.02065c-0.90068,0.14252 -2.22891,0.32493 -3.98467,0.54725c-0.51874,-1.93818 -0.77811,-2.93292 -0.77811,-2.98423c0,-0.07413 4.00463,-0.2594 12.01386,-0.55581z" fill="#244555" stroke="none" stroke-width="0.26458"/><path d="M301.4862,238.67138c2.58235,1.32823 4.01316,2.1035 4.29249,2.32582c-0.37053,1.73296 -0.58999,2.62509 -0.65841,2.6764h-5.40411v0.09399l1.5135,1.87264l2.37712,-1.21422c0.23372,0.40474 0.57005,1.1116 1.00899,2.12061c-0.20521,0.06839 -1.70161,0.28786 -4.48917,0.65841c-2.30871,-1.52206 -3.47162,-2.31444 -3.48873,-2.37713c0.37053,-2.95859 0.59001,-4.43787 0.65841,-4.43787c2.41132,-1.02608 3.80795,-1.59898 4.1899,-1.7187zM300.93039,240.74068c-0.04555,0.11401 -0.34768,0.56719 -0.90638,1.35957c0,0.23942 0.33633,0.35913 1.00899,0.35913c0,0.0342 0.4874,0.11685 1.46219,0.24799c0.26793,-0.37053 0.40189,-0.58716 0.40189,-0.64988c-0.0855,-0.50734 -0.27076,-0.76102 -0.55581,-0.76102z" fill="#244555" stroke="none" stroke-width="0.26458"/><path d="M307.85655,238.66283c3.38612,0.46745 5.07918,0.75533 5.07918,0.86363c1.33392,1.14582 2.00089,1.75863 2.00089,1.83843c-0.54156,1.69305 -0.84938,2.722 -0.92349,3.08682c0.54156,1.20282 0.84938,1.92109 0.92349,2.15481c0,0.06839 -0.88358,0.25082 -2.65075,0.54725c-0.02283,-0.09696 -0.18531,-0.31358 -0.4874,-0.64986c-2.43983,0.46745 -3.75379,0.70117 -3.94191,0.70117l-1.29972,-3.51439l2.86452,-1.51349c0.46174,0.07413 1.18287,0.11119 2.16335,0.11119c0,-0.12541 0.01709,-0.5045 0.0513,-1.13726c-0.16532,0 -1.64176,0.10832 -4.42932,0.32493l-0.0513,-0.11119c0.38764,-1.80137 0.62137,-2.70206 0.70117,-2.70206zM309.63512,243.69069c0,0.06266 0.18241,0.72962 0.54725,2.00089h0.0513c0.71826,-0.46743 1.0774,-0.77527 1.0774,-0.92348l0.11119,-0.91494c-0.13683,0 -0.73253,-0.05416 -1.78712,-0.16249z" fill="#244555" stroke="none" stroke-width="0.26458"/><path d="M325.25743,238.66283c1.39093,0.57575 2.59088,1.11731 3.59989,1.62465c-0.26222,3.39182 -0.43038,5.24734 -0.5045,5.56658c-1.67596,0.41614 -2.6137,0.62421 -2.81322,0.62421c0,-0.74108 -0.057,-2.20327 -0.17101,-4.38658c-0.63277,0.06266 -0.94914,0.11682 -0.94914,0.16249c0,0.21661 0.03706,1.45364 0.11119,3.71105c0.0342,0 0.0513,0.01997 0.0513,0.0599c0,0.06839 -0.88074,0.25651 -2.64221,0.56436c-0.07413,-0.09122 -0.2993,-1.47932 -0.67551,-4.16425c-0.71257,0.18243 -1.06886,0.31353 -1.06886,0.39333l0.34204,3.48873c-0.06839,0.07413 -1.00613,0.37341 -2.81321,0.89785c-1.0489,-3.71105 -1.70447,-6.20219 -1.96669,-7.4734c1.97809,-0.49025 3.08398,-0.73537 3.3177,-0.73537c0.26223,1.0375 0.39335,1.63605 0.39335,1.79566h0.0599c0.96339,-0.88928 1.63605,-1.48784 2.01798,-1.79566h0.0599l1.79566,1.29116h0.0599c1.12302,-1.0831 1.72156,-1.62465 1.79568,-1.62465z" fill="#244555" stroke="none" stroke-width="0.26458"/><path d="M336.96349,236.87571l3.83075,0.68406c1.10591,2.24601 1.67596,3.45453 1.71016,3.62554c-2.49683,2.10921 -3.76235,3.19231 -3.79655,3.24931l3.42031,-0.37624l0.03425,0.06834c-0.26223,2.0522 -0.42184,3.0783 -0.47885,3.0783c-3.85926,-0.09122 -6.18508,-0.13684 -6.97746,-0.13684c-0.06839,0 -0.20521,-0.75247 -0.41044,-2.2574c0.38764,-0.30213 0.74107,-0.63277 1.0603,-0.9919l3.45453,-3.14669c-0.29073,-0.40475 -0.49594,-0.66697 -0.61566,-0.78669c-0.58716,0.67837 -1.11161,1.23702 -1.57335,1.67596c-1.45933,-1.11731 -2.3144,-1.78997 -2.56524,-2.01798v-0.06834c0.11972,-0.07413 1.02039,-0.8836 2.70204,-2.42843c0,-0.01709 0.0684,-0.07411 0.20523,-0.17103z" fill="#244555" stroke="none" stroke-width="0.26458"/><path d="M345.58269,236.94411h0.54725c0,0.06839 0.86647,0.25082 2.59944,0.54725c0.38764,0.0513 0.58146,0.1653 0.58146,0.34204c0.82087,1.56194 1.23131,2.39422 1.23131,2.49683c0,0.39904 0.0342,1.64176 0.10259,3.72815c-0.53014,1.66456 -0.84938,2.49683 -0.95768,2.49683c-0.64988,0.43325 -1.0147,0.64988 -1.09451,0.64988h-3.48873c-0.91208,-1.17431 -1.36812,-1.86979 -1.36812,-2.0864l-0.37624,-2.05219c0,-0.06266 0.21661,-0.63272 0.64986,-1.71016l-0.03425,-0.06834c0.25083,-0.64417 0.74108,-2.01229 1.47075,-4.10439c0.06266,-0.15963 0.10827,-0.23943 0.13684,-0.23943zM346.84821,240.12502c-0.84367,1.76717 -1.27692,2.70204 -1.29972,2.80465c0.0855,0.0855 0.49592,0.65555 1.23131,1.71016c0.71826,-0.34204 1.12871,-0.52445 1.23131,-0.54725c-0.06839,-1.59045 -0.10259,-2.53673 -0.10259,-2.83885c-0.27363,-0.37053 -0.61566,-0.74677 -1.0261,-1.12871z" fill="#244555" stroke="none" stroke-width="0.26458"/><path d="M354.74916,236.87571c1.93818,0.21661 2.90726,0.35344 2.90726,0.41044c0.02283,4.264 0.03425,7.52471 0.03425,9.78211v0.06834l-0.03425,0.06834l-3.00988,-0.10259c0,-0.02283 -0.01142,-0.03425 -0.03425,-0.03425c0.13683,-3.81366 0.20523,-5.84304 0.20523,-6.08817l-1.0261,0.9919c-0.05704,-0.0342 -0.85511,-0.87787 -2.39422,-2.53103c1.20851,-0.9577 2.32582,-1.81279 3.35192,-2.56525z" fill="#244555" stroke="none" stroke-width="0.26458"/><path d="M365.9336,237.8334l0.78667,2.22321c-1.29972,2.05789 -1.94958,3.1524 -1.94958,3.2835l-0.17101,3.83075l-0.0685,0.03425c-2.3258,-0.04555 -3.60272,-0.06834 -3.83075,-0.06834l-0.13684,-0.06834c1.52775,-4.07017 2.30302,-6.16797 2.32582,-6.29338c-0.11402,-0.06839 -0.20523,-0.10259 -0.27363,-0.10259l-4.00176,0.27362c0,0.02283 -0.01142,0.03425 -0.03425,0.03425c-0.02283,-0.04555 -0.03425,-0.07976 -0.03425,-0.10259c0.34204,-2.00658 0.54725,-3.00988 0.61567,-3.00988h0.03425c1.37383,0 3.61983,-0.01142 6.73803,-0.03425z" fill="#244555" stroke="none" stroke-width="0.26458"/><path d="M373.93715,242.05749l0.0513,0.11119c-0.0342,0.76388 -0.0513,1.3881 -0.0513,1.87264v0.27362c0,0.0513 -0.057,0.10545 -0.17103,0.16249c-0.62135,0 -2.60228,0.07411 -5.9428,0.22232c-0.06266,0 -0.19092,-0.82658 -0.38478,-2.47974c0.0342,0 0.0513,-0.01709 0.0513,-0.0513c1.86977,-0.03993 3.33767,-0.0599 4.40367,-0.0599h0.94059c0.23942,0 0.6071,-0.01709 1.10306,-0.0513z" fill="#244555" stroke="none" stroke-width="0.26458"/><path d="M378.30955,236.87571l3.83075,0.68406c1.10591,2.24601 1.67596,3.45453 1.71016,3.62554c-2.49683,2.10921 -3.76235,3.19231 -3.79655,3.24931l3.42033,-0.37624l0.03425,0.06834c-0.26223,2.0522 -0.42184,3.0783 -0.47885,3.0783c-3.85926,-0.09122 -6.18508,-0.13684 -6.97746,-0.13684c-0.06839,0 -0.20521,-0.75247 -0.41044,-2.2574c0.38764,-0.30213 0.74107,-0.63277 1.0603,-0.9919l3.45453,-3.14669c-0.29073,-0.40475 -0.49594,-0.66697 -0.61566,-0.78669c-0.58716,0.67837 -1.11161,1.23702 -1.57335,1.67596c-1.45933,-1.11731 -2.3144,-1.78997 -2.56524,-2.01798v-0.06834c0.11972,-0.07413 1.02039,-0.8836 2.70206,-2.42843c0,-0.01709 0.0684,-0.07411 0.20521,-0.17103z" fill="#244555" stroke="none" stroke-width="0.26458"/><g><path d="M222.46999,147.33878l11.69482,33.30538l-13.08783,2.0216l-2.06641,-8.83928l-10.21019,1.94886l-1.68676,6.81838l-0.19902,0.00512l-12.17051,-2.46253l10.23109,-35.12987zM246.59993,145.51881l0.61211,25.07188h0.17501l17.41465,-5.79748l0.20404,0.19198l-0.58379,13.863l-27.09851,2.42898l-5.74695,-34.4602l14.84783,-1.49086l0.17561,0.19268zM296.92192,150.48487l7.89804,34.4179l-13.27921,0.52431l-1.06198,-9.01619l-10.40288,0.78019l-2.45309,6.584l-0.19831,-0.01638l-11.85907,-3.8252l14.17252,-33.7457v-0.00131zM191.62966,156.36703l0.01387,0.16998l-2.07083,11.28283l-5.42978,3.89915l10.84763,7.15884l-10.66378,6.13483l-9.68276,-12.00113l-0.32399,0.02592l0.60197,9.98967l-0.4131,1.31274l-8.13494,0.64436l-2.97992,-15.63114l-2.83083,-15.81308l18.76837,-5.1279l12.2981,7.95491zM325.00085,162.96048l7.8425,-10.42367l0.1939,0.03094l9.48243,7.8437l-0.05054,0.3481l-10.6461,8.87535l13.82443,8.51328l-9.62077,9.21963l-9.21079,-10.94427l-8.81727,12.31387l-0.19329,-0.03094l-10.57467,-6.32943l0.02843,-0.20273l11.36178,-11.51922l-13.21974,-8.98013l8.15192,-10.01881l11.44779,11.30433zM157.02851,155.72387l-3.01588,9.34923l-0.17118,0.0208l-8.48937,-2.65773l-6.22203,5.6933l2.10248,8.90247l8.98716,2.44927l5.43551,-6.66045l6.14046,7.70154l0.06449,0.52431l-11.80794,8.50012l-16.93374,-3.75448l-7.22335,-16.58071l6.08681,-11.3195l11.59115,-5.99268l13.45543,3.8245zM366.10381,170.53765l12.15344,-7.53226l8.47038,11.09335l-19.68379,10.04031l-3.15995,13.66388l-15.49089,-5.66859l7.06602,-13.9084l-7.01046,-20.42992l15.61918,-2.26793zM212.04501,156.89266l-1.05254,8.26946l6.17974,-0.15099l-2.50362,-9.23922zM172.517,157.14029l1.16486,12.30694l0.16305,-0.01266l6.42225,-2.69812l0.96715,-7.35666l-8.73058,-2.40688zM285.44692,158.79732l-1.98554,8.09706l6.17974,0.55023l-1.45239,-9.46285l-0.62227,-0.03787l-0.4782,-0.00131l-1.64136,0.85474zM119.78492,161.38372l-1.7607,9.41353l-0.19831,0.06129l-11.20588,-1.5446l-1.90406,5.22203l22.8375,3.75689l-3.69259,14.64379l-15.61094,6.35154l-13.9501,-3.98192l-0.06058,-0.1958l2.23699,-8.57778l0.3689,-0.11372l12.88751,2.55918l2.45178,-5.35966l-21.90501,-3.86117l-0.05174,-0.16747l2.64698,-12.38841l14.82945,-7.67562l12.08079,1.85795z" fill="#3bb2ff" stroke="url(#color-13)" stroke-width="9.4325"/><path d="M197.67096,74.0506l-3.05255,5.75077h-0.14216l-7.02051,-3.24403l-2.30018,3.00583l14.18448,7.00604l-5.37233,8.75781l-11.49831,0.99498l-8.32381,-5.37363v-0.13954l3.19601,-5.11585h0.26402l7.91633,4.23961l2.68616,-2.98433l-13.55267,-6.8879v-0.11945l4.23198,-7.50313l11.2545,-2.01025l7.52905,3.62308zM250.55464,76.83663l-2.31978,8.18035l-4.88398,4.0198l-6.79749,-0.37714l-0.26412,7.16457l-7.20436,0.49779l-0.77326,-4.27939l-1.40436,-19.10763l14.7745,-2.50744zM273.29227,80.02117l-10.23611,-2.74684l-2.09675,4.5189h0.14336l9.23922,-0.81686l0.14155,0.27858l-1.261,6.28905l-7.83485,-1.09423l0.12196,3.42406v0.6955l0.14216,0.27858l10.52102,-0.83514l0.9773,6.16959l-0.14216,0.13965l-18.76335,-1.23438l-2.95149,-8.21963l3.78602,-16.44046l20.16712,2.6072zM298.51385,76.67739v0.11935l-2.21861,7.78242l-4.29397,2.42777l7.6921,5.61303l-8.3434,3.70203l-6.53226,-8.93723h-0.24442l-0.14286,7.02684l-0.38658,0.89582h-6.12468l-1.3033,-11.10731l-1.18074,-11.22536l14.34743,-2.54723l8.73128,6.24987zM211.82068,71.14332l-1.2609,14.82885l5.67683,0.75618l1.66969,-13.11617l8.50635,1.85102l-1.83143,13.57357l-6.28894,7.22586l-12.43332,-2.1498l-4.86439,-5.25489l0.89582,-18.0134zM284.16642,76.15931l0.14155,8.67894h0.12247l4.96615,-1.53265l1.15984,-5.09566l-6.39001,-2.16938zM236.16742,84.38025l5.00584,-1.01527l1.15994,-4.89593l-6.16578,-2.38869z" fill="#ececec" stroke="url(#color-14)" stroke-width="9.4325"/><g stroke-width="9.4325"><path d="M296.87541,105.54575l12.49521,4.14106l7.27387,11.37253l-4.79617,14.30895l-14.60009,3.48594l-12.28232,-8.07235l-0.39994,-14.8851l-0.18576,-0.60207l12.30885,-9.74896zM296.10286,117.78447l-0.56037,8.88419l6.84811,1.5199l2.45047,-8.15131l-8.73821,-2.43662z" fill="#9404e4" stroke="url(#color-15)"/><path d="M281.47423,108.4025l-4.76905,30.71335l-8.6049,-0.7588l1.91733,-32.26107z" fill="#fbc211" stroke="url(#color-16)"/><path d="M264.39513,113.43365v0.15672l-2.90477,10.24746l-5.62117,3.19721l10.07055,7.39071l-10.92347,4.87393l-8.55186,-11.76625h-0.31968l-0.18636,9.24997l-0.50603,1.17943h-8.0199l-1.70505,-14.6235l-1.5446,-14.78023l18.78284,-3.35394l11.4295,8.22847zM245.61159,112.75261l0.18636,11.42568h0.16043l6.50122,-2.01839l1.51809,-6.70847l-8.3661,-2.85675z" fill="#0492d0" stroke="url(#color-17)"/><path d="M222.1917,107.7726l10.17674,30.00649l-12.28173,1.5206l-1.73097,-7.94034l-9.59114,1.51929l-1.73217,6.05456h-0.18636l-11.32331,-2.46434l10.3649,-31.1588zM212.22846,116.08063l-1.1725,7.36359h5.7811l-2.13091,-8.30744z" fill="#10d004" stroke="url(#color-18)"/><path d="M173.30191,106.1219l3.5428,9.80211h0.16043l5.3016,-8.07245h0.15913l7.22083,0.97036l4.34319,29.21998l-11.40348,1.25779l-0.16054,-0.31465l-0.63864,-16.2737h-0.15923l-6.58148,5.68577h-0.15913l-4.50242,-6.94416h-0.16054l-5.62178,15.6451h-0.31907l-10.44396,-4.90045v-0.15733l11.88238,-26.86222l7.5399,0.94385z" fill="#e10404" stroke="url(#color-19)"/></g><g stroke="none"><g><path d="M197.72119,73.74922l-3.05255,5.75077h-0.14216l-7.02051,-3.24403l-2.30018,3.00583l14.18448,7.00604l-5.37233,8.75781l-11.49831,0.99498l-8.32381,-5.37363v-0.13954l3.19601,-5.11585h0.26402l7.91633,4.23961l2.68616,-2.98433l-13.55267,-6.8879v-0.11945l4.23198,-7.50313l11.2545,-2.01025l7.52905,3.62308zM250.60487,76.53524l-2.31978,8.18035l-4.88398,4.0198l-6.79749,-0.37714l-0.26412,7.16457l-7.20436,0.49779l-0.77326,-4.27939l-1.40436,-19.10763l14.7745,-2.50744zM275.2965,72.73334l-1.954,6.98645l-10.23611,-2.74684l-2.09675,4.5189h0.14336l9.23922,-0.81686l0.14155,0.27858l-1.261,6.28905l-7.83485,-1.09423l0.12196,3.42406v0.6955l0.14216,0.27858l10.52102,-0.83514l0.9773,6.16959l-0.14216,0.13965l-18.76335,-1.23438l-2.95149,-8.21963l3.78602,-16.44046l20.16712,2.6072zM298.56408,76.37601v0.11935l-2.21861,7.78242l-4.29397,2.42777l7.6921,5.61303l-8.3434,3.70203l-6.53226,-8.93723h-0.24442l-0.14286,7.02684l-0.38658,0.89582h-6.12468l-1.3033,-11.10731l-1.18074,-11.22536l14.34743,-2.54723l8.73128,6.24987zM211.87091,70.84193l-1.2609,14.82885l5.67683,0.75618l1.66969,-13.11617l8.50635,1.85102l-1.83143,13.57357l-6.28894,7.22586l-12.43332,-2.1498l-4.86439,-5.25489l0.89582,-18.0134zM284.21665,75.85792l0.14155,8.67894h0.12247l4.96615,-1.53265l1.15984,-5.09566l-6.39001,-2.16938zM236.21766,84.07886l5.00584,-1.01527l1.15994,-4.89593l-6.16578,-2.38869z" fill="url(#color-20)" stroke-width="1.0257"/><path d="M173.40237,105.77028l3.5428,9.80211h0.16043l5.3016,-8.07245h0.15913l7.22083,0.97036l4.34319,29.21998l-11.40348,1.25779l-0.16054,-0.31465l-0.63864,-16.2737h-0.15923l-6.58148,5.68577h-0.15913l-4.50242,-6.94416h-0.16054l-5.62178,15.6451h-0.31907l-10.44396,-4.90045v-0.15733l11.88238,-26.86222l7.5399,0.94385z" fill="url(#color-21)" stroke-width="1.34666"/><path d="M222.29217,107.42098l10.17674,30.00649l-12.28173,1.5206l-1.73097,-7.94034l-9.59114,1.51929l-1.73217,6.05456h-0.18636l-11.32331,-2.46434l10.3649,-31.1588zM212.32891,115.72901l-1.1725,7.36359h5.7811l-2.13091,-8.30744z" fill="url(#color-22)" stroke-width="1.34666"/><path d="M264.4956,113.08203v0.15672l-2.90477,10.24746l-5.62117,3.19721l10.07055,7.39071l-10.92347,4.87393l-8.55186,-11.76625h-0.31968l-0.18636,9.24997l-0.50603,1.17943h-8.0199l-1.70505,-14.6235l-1.5446,-14.78023l18.78284,-3.35394l11.4295,8.22847zM245.71205,112.401l0.18636,11.42568h0.16043l6.50122,-2.01839l1.51809,-6.70847l-8.3661,-2.85675z" fill="url(#color-23)" stroke-width="1.34666"/><path d="M281.5747,108.05088l-4.76905,30.71335l-8.6049,-0.7588l1.91733,-32.26107z" fill="url(#color-24)" stroke-width="1.34666"/><path d="M296.97587,105.19413l12.49521,4.14106l7.27387,11.37253l-4.79617,14.30895l-14.60009,3.48594l-12.28232,-8.07235l-0.39994,-14.8851l-0.18576,-0.60207l12.30885,-9.74896zM296.20332,117.43285l-0.56037,8.88419l6.84811,1.5199l2.45047,-8.15131l-8.73821,-2.43662z" fill="url(#color-25)" stroke-width="1.34666"/><path d="M222.52021,147.23832l11.69482,33.30538l-13.08783,2.0216l-2.06641,-8.83928l-10.21019,1.94886l-1.68676,6.81838l-0.19902,0.00512l-12.17051,-2.46253l10.23109,-35.12987zM246.65017,145.41835l0.61211,25.07188h0.17501l17.41465,-5.79748l0.20404,0.19198l-0.58379,13.863l-27.09851,2.42898l-5.74695,-34.4602l14.84783,-1.49086l0.17561,0.19268zM296.97215,150.3844l7.89804,34.4179l-13.27921,0.52431l-1.06198,-9.01619l-10.40288,0.78019l-2.45309,6.584l-0.19831,-0.01638l-11.85907,-3.8252l14.17252,-33.7457v-0.00131zM191.67989,156.26657l0.01387,0.16998l-2.07083,11.28283l-5.42978,3.89915l10.84763,7.15884l-10.66378,6.13483l-9.68276,-12.00113l-0.32399,0.02592l0.60197,9.98967l-0.4131,1.31274l-8.13494,0.64436l-2.97992,-15.63114l-2.83083,-15.81308l18.76837,-5.1279l12.2981,7.95491zM325.05108,162.86001l7.8425,-10.42367l0.1939,0.03094l9.48243,7.8437l-0.05054,0.3481l-10.6461,8.87535l13.82443,8.51328l-9.62077,9.21963l-9.21079,-10.94427l-8.81727,12.31387l-0.19329,-0.03094l-10.57467,-6.32943l0.02843,-0.20273l11.36178,-11.51922l-13.21974,-8.98013l8.15192,-10.01881l11.44779,11.30433zM157.07875,155.62342l-3.01588,9.34923l-0.17118,0.0208l-8.48937,-2.65773l-6.22203,5.6933l2.10248,8.90247l8.98716,2.44927l5.43551,-6.66045l6.14046,7.70154l0.06449,0.52431l-11.80794,8.50012l-16.93374,-3.75448l-7.22335,-16.58071l6.08681,-11.3195l11.59115,-5.99268l13.45543,3.8245zM366.15404,170.43719l12.15344,-7.53226l8.47038,11.09335l-19.68379,10.04031l-3.15995,13.66388l-15.49089,-5.66859l7.06602,-13.9084l-7.01046,-20.42992l15.61918,-2.26793zM212.09524,156.79219l-1.05254,8.26946l6.17974,-0.15099l-2.50362,-9.23922zM172.56722,157.03983l1.16486,12.30694l0.16305,-0.01266l6.42225,-2.69812l0.96715,-7.35666l-8.73058,-2.40688zM285.49715,158.69686l-1.98554,8.09706l6.17974,0.55023l-1.45239,-9.46285l-0.62227,-0.03787l-0.4782,-0.00131l-1.64136,0.85474zM119.83514,161.28326l-1.7607,9.41353l-0.19831,0.06129l-11.20588,-1.5446l-1.90406,5.22203l22.8375,3.75689l-3.69259,14.64379l-15.61094,6.35154l-13.9501,-3.98192l-0.06058,-0.1958l2.23699,-8.57778l0.3689,-0.11372l12.88751,2.55918l2.45178,-5.35966l-21.90501,-3.86117l-0.05174,-0.16747l2.64698,-12.38841l14.82945,-7.67562l12.08079,1.85795z" fill="url(#color-26)" stroke-width="1.49065"/></g></g></g><text transform="translate(150.92412,298.33038) scale(0.71786,0.71786)" font-size="22" xml:space="preserve" data-paper-data="{&quot;origPos&quot;:null}" fill="#244555" fill-rule="nonzero" stroke="none" stroke-width="1" stroke-linecap="butt" stroke-linejoin="miter" stroke-miterlimit="10" stroke-dasharray="" stroke-dashoffset="0" font-family="Sans Serif" font-weight="400" text-anchor="start" style="mix-blend-mode: normal"><tspan x="0" dy="0">(Space/Tap out to exit)</tspan></text><g fill="#244555" stroke="none" stroke-width="0.26458"><path d="M140.53678,260.19564c2.05219,1.0375 3.1068,1.55624 3.1638,1.55624c0,0.09122 -0.42754,0.91496 -1.28263,2.47118h-0.05985c-0.0684,0 -1.05175,-0.46458 -2.95003,-1.39377l-0.96623,1.29116c1.63605,0.78669 3.62269,1.78997 5.95991,3.00988c-1.0603,1.88688 -1.81277,3.141 -2.25742,3.76235l-4.83121,0.42755c-2.2061,-1.48784 -3.37186,-2.25742 -3.49728,-2.30873v-0.0599c0,-0.15961 0.44749,-0.89212 1.34248,-2.19755h0.11116c0.35344,0.21092 1.46219,0.81802 3.32626,1.82131l1.12871,-1.28261c-3.42602,-1.74437 -5.3243,-2.73056 -5.69483,-2.95859v-0.0513c1.0888,-2.12061 1.68165,-3.19516 1.77857,-3.22365c2.83316,-0.57576 4.40936,-0.86364 4.7286,-0.86364z" data-paper-data="{&quot;origPos&quot;:null}"/><path d="M147.86482,260.19564l3.76235,0.66697l-0.35913,2.85596c0.74677,-0.03993 1.29403,-0.0599 1.64176,-0.0599h0.54725l0.11972,-0.0599l0.05985,0.11963c-0.11972,1.73296 -0.22232,2.70777 -0.30784,2.92438l-0.11972,-0.0685c-0.0855,0 -0.85507,-0.03988 -2.30871,-0.11963c-0.07981,1.33961 -0.13967,2.94146 -0.17957,4.80554l-0.11972,0.0599c-1.83557,-0.11972 -2.93008,-0.22232 -3.2835,-0.30784l0.05985,-0.23942c0,-0.49596 0.07981,-2.03509 0.23942,-4.61744c-1.53915,-0.0855 -2.30871,-0.1881 -2.30871,-0.30782c0.07981,-1.90399 0.18241,-2.85598 0.30784,-2.85598l2.24886,0.42754v-0.73536c0,-0.59856 -0.0228,-1.40803 -0.0684,-2.42843c0.0456,0 0.0684,-0.01997 0.0684,-0.0599z" data-paper-data="{&quot;origPos&quot;:null}"/><path d="M155.84272,262.77799c3.38612,0.46745 5.07918,0.75533 5.07918,0.86363c1.33392,1.14582 2.00089,1.75863 2.00089,1.83843c-0.54154,1.69305 -0.84938,2.722 -0.92349,3.08684c0.54154,1.2028 0.84938,1.92107 0.92349,2.15479c0,0.06839 -0.88358,0.25082 -2.65075,0.54725c-0.0228,-0.09685 -0.18526,-0.31348 -0.4874,-0.64986c-2.43983,0.46745 -3.75381,0.70117 -3.94191,0.70117l-1.29972,-3.51438l2.86452,-1.5135c0.46174,0.07413 1.18287,0.11119 2.16335,0.11119c0,-0.12541 0.01711,-0.5045 0.05131,-1.13725c-0.16532,0 -1.64176,0.10832 -4.42932,0.32493l-0.05131,-0.11119c0.38764,-1.80137 0.62137,-2.70206 0.70117,-2.70206zM157.62129,267.80587c0,0.06266 0.18241,0.72962 0.54725,2.00087h0.05131c0.71826,-0.46743 1.0774,-0.77527 1.0774,-0.92348l0.11116,-0.91494c-0.13681,0 -0.73251,-0.05416 -1.78712,-0.16249z" data-paper-data="{&quot;origPos&quot;:null}"/><path d="M169.88314,262.77799c1.12871,0.63277 1.82132,1.04319 2.07785,1.23131c-0.92349,1.92109 -1.41944,2.89872 -1.48784,2.93292h-0.05985l-1.22276,-1.06884l-1.44508,1.76146l0.16247,3.20656c-0.07411,0.06839 -1.01755,0.22802 -2.83032,0.47885c-0.0684,-0.49025 -0.51305,-2.89303 -1.33392,-7.20834c0,-0.06839 1.1914,-0.24511 3.57424,-0.53014c0.03989,0.04555 0.14821,0.57856 0.32493,1.599c1.42513,-1.60185 2.1719,-2.40278 2.24031,-2.40278z" data-paper-data="{&quot;origPos&quot;:null}"/><path d="M175.19319,260.19564l3.76235,0.66697l-0.35913,2.85596c0.74677,-0.03993 1.29403,-0.0599 1.64176,-0.0599h0.54725l0.11972,-0.0599l0.05985,0.11963c-0.11972,1.73296 -0.22232,2.70777 -0.30784,2.92438l-0.11972,-0.0685c-0.08551,0 -0.85509,-0.03988 -2.30871,-0.11963c-0.07981,1.33961 -0.13967,2.94146 -0.17957,4.80554l-0.11972,0.0599c-1.83557,-0.11972 -2.93008,-0.22232 -3.2835,-0.30784l0.05985,-0.23942c0,-0.49596 0.07981,-2.03509 0.23942,-4.61744c-1.53915,-0.0855 -2.30871,-0.1881 -2.30871,-0.30782c0.07981,-1.90399 0.18243,-2.85598 0.30784,-2.85598l2.24886,0.42754v-0.73536c0,-0.59856 -0.0228,-1.40803 -0.0684,-2.42843c0.0456,0 0.0684,-0.01997 0.0684,-0.0599z" data-paper-data="{&quot;origPos&quot;:null}"/><path d="M186.71967,262.78654c2.58235,1.32823 4.01318,2.1035 4.29251,2.32582c-0.37053,1.73296 -0.59001,2.62509 -0.65841,2.6764h-5.40411v0.09399l1.51349,1.87264l2.37713,-1.21422c0.23372,0.40475 0.57005,1.11161 1.00899,2.12061c-0.20521,0.06839 -1.70161,0.28786 -4.48917,0.65841c-2.30871,-1.52204 -3.47162,-2.31442 -3.48873,-2.37713c0.37053,-2.95857 0.59001,-4.43786 0.65841,-4.43786c2.41133,-1.0261 3.80795,-1.599 4.1899,-1.71872zM186.16388,264.85584c-0.0456,0.11401 -0.34773,0.56719 -0.90638,1.35957c0,0.23942 0.33633,0.35913 1.00899,0.35913c0,0.0342 0.4874,0.11685 1.46219,0.24799c0.26793,-0.37053 0.40189,-0.58716 0.40189,-0.64986c-0.0855,-0.50734 -0.27077,-0.76102 -0.55581,-0.76102z" data-paper-data="{&quot;origPos&quot;:null}"/><path d="M196.96354,260.1871h0.05131c2.57664,0.21661 3.86495,0.38478 3.86495,0.5045l1.13726,10.06428c0,0.07413 -1.13726,0.26225 -3.41177,0.56436l-0.05131,-0.11119v-0.91494c-1.96098,0.53014 -3.30632,0.87218 -4.03598,1.0261c-1.73296,-2.45123 -2.6422,-3.75666 -2.72771,-3.91627c1.27692,-2.32011 1.95813,-3.49442 2.04365,-3.52293l3.58278,0.17101c-0.07411,-0.43894 -0.22517,-1.72726 -0.4532,-3.86495zM195.37309,266.31803c0.57575,1.76146 0.93489,2.72771 1.0774,2.89872l1.70161,-1.4793c-0.17672,-1.02039 -0.30784,-1.53058 -0.39333,-1.53058h-2.27451c-0.07411,0.01137 -0.11116,0.04843 -0.11116,0.11119z" data-paper-data="{&quot;origPos&quot;:null}"/><path d="M211.24339,260.19564l0.05985,0.11119c0,0.32493 0.07411,1.58191 0.22232,3.7709c2.04078,-0.64986 3.18376,-0.99188 3.42888,-1.02608l3.07829,3.30915c-1.29403,2.90157 -1.99804,4.44072 -2.11205,4.61744c-0.35913,-0.03993 -1.67025,-0.09693 -3.93338,-0.17101v0.40189c0,0.07413 -0.03991,0.11119 -0.11972,0.11119h-3.30916c-0.11972,0 -0.34773,-1.71016 -0.68406,-5.13049c-0.07411,-0.29073 -0.28217,-2.00374 -0.62421,-5.13903c1.93818,-0.45605 3.26925,-0.74107 3.99323,-0.85509zM211.81629,266.47193l0.22232,2.11205h1.71872l0.62421,-2.39422c-1.71016,0.14821 -2.56524,0.24228 -2.56524,0.28217z" data-paper-data="{&quot;origPos&quot;:null}"/><path d="M222.84682,262.7951c0.07981,0.01137 0.11972,0.05125 0.11972,0.11963l-0.88929,4.92527c1.69876,-0.19952 2.54814,-0.35913 2.54814,-0.47885c0.31924,-1.9724 0.5387,-3.0783 0.65841,-3.31772c2.1035,0.43325 3.26925,0.68977 3.49728,0.76958c-1.22562,4.2127 -1.89828,6.40741 -2.01798,6.58413c-2.14341,1.50493 -3.34906,2.3372 -3.61698,2.49683c-0.07981,0 -1.44508,-0.33633 -4.09583,-1.00899v-0.0599c0.70117,-1.54484 1.13726,-2.31727 1.30827,-2.31727l2.60799,1.30827l1.24842,-2.1377c-1.123,0.27933 -1.77572,0.41898 -1.95813,0.41898l-3.32626,-1.72726c0.40474,-3.71675 0.66126,-5.57512 0.76958,-5.57512z" data-paper-data="{&quot;origPos&quot;:null}"/><path d="M240.17074,260.19564l3.72815,2.75336c-0.51305,2.34293 -0.83798,3.51439 -0.97479,3.51439c-0.02851,0 -0.71257,0.57575 -2.05219,1.72726c-0.83227,-0.03993 -1.78426,-0.0941 -2.85596,-0.16249l-0.11116,3.0783c-0.23372,0.06839 -1.24272,0.13966 -3.02699,0.21377c-0.21661,0 -0.32493,-0.61281 -0.32493,-1.83843c-0.39333,-5.07347 -0.59001,-7.80973 -0.59001,-8.20876c0.66697,-0.14252 2.73626,-0.50165 6.20788,-1.07741zM237.85347,262.62407v3.56569c1.40233,-0.25083 2.1035,-0.3962 2.1035,-0.43609l0.4874,-2.1035c-0.68977,-0.28502 -1.5534,-0.62706 -2.5909,-1.0261z" data-paper-data="{&quot;origPos&quot;:null}"/><path d="M246.05369,259.34912l3.36046,0.53014c-0.42184,1.61325 -0.69831,2.41987 -0.82943,2.41987c-1.76717,-0.11972 -2.65075,-0.23657 -2.65075,-0.35058v-2.47974c0.01709,-0.07976 0.057,-0.11963 0.11972,-0.11963zM245.11311,263.41929h0.05131c2.59944,0.47316 3.89917,0.74964 3.89917,0.82944c-0.74677,4.2298 -1.19996,6.58697 -1.35959,7.07151h-2.7106c-0.07981,0 -0.11972,-0.03993 -0.11972,-0.1198z" data-paper-data="{&quot;origPos&quot;:null}"/><path d="M253.0568,262.78654c2.57094,0.48454 3.91627,0.76102 4.03598,0.82943v0.10259c-0.55294,1.56195 -0.82943,2.37142 -0.82943,2.42843h-0.05131c-0.14252,0 -0.83227,-0.22232 -2.06929,-0.66695c-0.68977,1.1572 -1.03464,1.77572 -1.03464,1.85553l1.71016,1.65885c1.32252,-1.24272 1.99518,-1.86408 2.01798,-1.86408c1.03179,1.35103 1.54769,2.10919 1.54769,2.27451c-0.56435,0.32493 -1.54769,0.96341 -2.95003,1.91539c-2.71346,-0.58716 -4.17848,-0.91494 -4.39511,-0.98334l-1.34248,-4.3438z" data-paper-data="{&quot;origPos&quot;:null}"/><path d="M263.00993,260.19564c0.07981,0.22803 0.25937,1.84413 0.5387,4.84832l2.56524,-2.87307h0.05985c0.39904,0.33062 1.13726,1.02895 2.21466,2.09494v0.0599l-2.45407,2.02655c1.84697,1.23701 2.82461,1.93532 2.93292,2.09494c-1.16291,1.29401 -1.86122,2.03223 -2.09494,2.21466l-2.98423,-2.75336c0.11972,1.23131 0.17957,2.1491 0.17957,2.75336c-0.14252,0.07987 -1.19996,0.29933 -3.17236,0.65841c-0.15961,-0.79807 -0.67837,-4.22695 -1.55624,-10.28662c0.36484,-0.11972 1.6218,-0.39904 3.7709,-0.83798z" data-paper-data="{&quot;origPos&quot;:null}"/><path d="M279.95091,262.78654c2.58235,1.32823 4.01318,2.1035 4.29251,2.32582c-0.37053,1.73296 -0.59001,2.62509 -0.65841,2.6764h-5.40411v0.09399l1.51349,1.87264l2.37712,-1.21422c0.23372,0.40475 0.57005,1.11161 1.00899,2.12061c-0.20521,0.06839 -1.70161,0.28786 -4.48917,0.65841c-2.30871,-1.52204 -3.47162,-2.31442 -3.48873,-2.37713c0.37053,-2.95857 0.59001,-4.43786 0.65841,-4.43786c2.41133,-1.0261 3.80795,-1.599 4.18988,-1.71872zM279.3951,264.85584c-0.0456,0.11401 -0.34773,0.56719 -0.90638,1.35957c0,0.23942 0.33633,0.35913 1.00899,0.35913c0,0.0342 0.4874,0.11685 1.46219,0.24799c0.26793,-0.37053 0.40189,-0.58716 0.40189,-0.64986c-0.0855,-0.50734 -0.27077,-0.76102 -0.55581,-0.76102z" data-paper-data="{&quot;origPos&quot;:null}"/><path d="M269.52153,260.2042c1.74437,0.0342 3.02413,0.0513 3.83931,0.0513c0.07411,0 0.29928,3.50013 0.67551,10.50038c-0.29073,0.07413 -1.30543,0.26225 -3.04408,0.56436c-0.0855,0 -0.36769,-2.14341 -0.84653,-6.43021c-0.03989,-0.10259 -0.24797,-1.66454 -0.62421,-4.68584z" data-paper-data="{&quot;origPos&quot;:null}"/><path d="M288.94001,262.78654c2.16621,0.58146 3.31487,0.93489 3.44597,1.0603c1.19142,1.68736 1.86124,2.65929 2.00944,2.91581c-0.76958,2.43983 -1.21136,3.65974 -1.32538,3.65974c-2.56524,0.59856 -3.90771,0.89785 -4.02743,0.89785c-2.12059,-1.23702 -3.2493,-1.92678 -3.38611,-2.06929c-0.07411,-2.30302 -0.11116,-3.57424 -0.11116,-3.81366c-0.0342,-0.06839 -0.05131,-0.11968 -0.05131,-0.15389c2.18901,-1.66456 3.32056,-2.49683 3.39468,-2.49683zM288.77752,265.91614c-0.0342,0.22802 -0.0855,1.05744 -0.15389,2.48828l1.90682,0.42754c0.45605,-1.42513 0.68408,-2.18615 0.68408,-2.28306c-1.51635,-0.45605 -2.32868,-0.68406 -2.43698,-0.68406z" data-paper-data="{&quot;origPos&quot;:null}"/><path d="M299.84679,260.1871h0.0513c2.57665,0.21661 3.86497,0.38478 3.86497,0.5045l1.13725,10.06428c0,0.07413 -1.13726,0.26225 -3.41177,0.56436l-0.0513,-0.11119v-0.91494c-1.96098,0.53014 -3.30632,0.87218 -4.03598,1.0261c-1.73296,-2.45123 -2.6422,-3.75666 -2.72771,-3.91627c1.27692,-2.32011 1.95813,-3.49442 2.04365,-3.52293l3.58278,0.17101c-0.07413,-0.43894 -0.22519,-1.72726 -0.45318,-3.86495zM298.25634,266.31803c0.57575,1.76146 0.93488,2.72771 1.0774,2.89872l1.70161,-1.4793c-0.17672,-1.02039 -0.30784,-1.53058 -0.39333,-1.53058h-2.27452c-0.07413,0.01137 -0.11119,0.04843 -0.11119,0.11119z" data-paper-data="{&quot;origPos&quot;:null}"/><path d="M310.63791,262.78654c2.58235,1.32823 4.01316,2.1035 4.29249,2.32582c-0.37053,1.73296 -0.58999,2.62509 -0.6584,2.6764h-5.40411v0.09399l1.51349,1.87264l2.37712,-1.21422c0.23372,0.40475 0.57005,1.11161 1.00899,2.12061c-0.20521,0.06839 -1.70161,0.28786 -4.48917,0.65841c-2.30871,-1.52204 -3.47162,-2.31442 -3.48873,-2.37713c0.37053,-2.95857 0.59001,-4.43786 0.65841,-4.43786c2.41133,-1.0261 3.80797,-1.599 4.1899,-1.71872zM310.0821,264.85584c-0.04555,0.11401 -0.34768,0.56719 -0.90638,1.35957c0,0.23942 0.33633,0.35913 1.00899,0.35913c0,0.0342 0.4874,0.11685 1.46219,0.24799c0.26793,-0.37053 0.40189,-0.58716 0.40189,-0.64986c-0.0855,-0.50734 -0.27076,-0.76102 -0.55581,-0.76102z" data-paper-data="{&quot;origPos&quot;:null}"/><path d="M319.1545,262.78654c2.16619,0.58146 3.31486,0.93489 3.44597,1.0603c1.1914,1.68736 1.86122,2.65929 2.00943,2.91581c-0.76958,2.43983 -1.21136,3.65974 -1.32537,3.65974c-2.56524,0.59856 -3.90771,0.89785 -4.02743,0.89785c-2.12061,-1.23702 -3.24931,-1.92678 -3.38612,-2.06929c-0.07413,-2.30302 -0.11119,-3.57424 -0.11119,-3.81366c-0.0342,-0.06839 -0.0513,-0.11968 -0.0513,-0.15389c2.18901,-1.66456 3.32056,-2.49683 3.39468,-2.49683zM318.99201,265.91614c-0.0342,0.22802 -0.0855,1.05744 -0.15389,2.48828l1.90684,0.42754c0.45605,-1.42513 0.68406,-2.18615 0.68406,-2.28306c-1.51633,-0.45605 -2.32867,-0.68406 -2.43698,-0.68406z" data-paper-data="{&quot;origPos&quot;:null}"/><path d="M332.98115,262.77799l2.84741,1.95813c-0.1995,3.24931 -0.33918,5.14758 -0.41898,5.69483c-0.33062,0.03993 -1.33677,0.09979 -3.01844,0.17957l-0.0599,-0.11963l-0.29928,-4.56614l-0.1198,-0.0599c-1.0888,0.23372 -1.83842,0.41043 -2.24886,0.53014c0.11402,1.94389 0.17103,3.34907 0.17103,4.21555c-1.69876,0.47316 -2.62795,0.70973 -2.78758,0.70973c-1.10591,-4.86825 -1.65885,-7.4392 -1.65885,-7.71283c2.40563,-0.31353 3.71105,-0.47029 3.91627,-0.47029v0.0599c0.03993,0.02846 0.09979,0.62132 0.17957,1.77857c2.2061,-1.46504 3.37188,-2.19757 3.49728,-2.19757z" data-paper-data="{&quot;origPos&quot;:null}"/></g><path d="M386.87277,236.88719l3.83075,0.68406c1.10591,2.24601 1.67596,3.45453 1.71016,3.62554c-2.49683,2.10921 -3.76235,3.19231 -3.79655,3.24931l3.42033,-0.37624l0.03425,0.06834c-0.26223,2.0522 -0.42184,3.0783 -0.47885,3.0783c-3.85926,-0.09122 -6.18508,-0.13684 -6.97746,-0.13684c-0.06839,0 -0.20521,-0.75247 -0.41044,-2.2574c0.38764,-0.30213 0.74107,-0.63277 1.0603,-0.9919l3.45453,-3.14669c-0.29073,-0.40475 -0.49594,-0.66697 -0.61566,-0.78669c-0.58716,0.67837 -1.11161,1.23702 -1.57335,1.67596c-1.45933,-1.11731 -2.3144,-1.78997 -2.56524,-2.01798v-0.06834c0.11972,-0.07413 1.02039,-0.8836 2.70206,-2.42843c0,-0.01709 0.0684,-0.07411 0.20521,-0.17103z" fill="#244555" stroke="none" stroke-width="0.26458"/></g></g></svg>