<svg version="1.1" xmlns="http://www.w3.org/2000/svg" xmlns:xlink="http://www.w3.org/1999/xlink" width="437" height="90.79587" viewBox="0,0,437,90.79587"><defs><linearGradient x1="240" y1="135.60206" x2="240" y2="224.39795" gradientUnits="userSpaceOnUse" id="color-1"><stop offset="0" stop-color="#ffffff"/><stop offset="1" stop-color="#d8d8d8"/></linearGradient><linearGradient x1="240" y1="135.60208" x2="240" y2="224.39795" gradientUnits="userSpaceOnUse" id="color-2"><stop offset="0" stop-color="#343434"/><stop offset="1" stop-color="#090909"/></linearGradient><radialGradient cx="443.8065" cy="206.54466" r="17.9081" gradientUnits="userSpaceOnUse" id="color-3"><stop offset="0" stop-color="#ffffff"/><stop offset="1" stop-color="#e5e5e5"/></radialGradient></defs><g transform="translate(-21.5,-134.60208)"><g data-paper-data="{&quot;isPaintingLayer&quot;:true}" fill-rule="nonzero" stroke-linejoin="miter" stroke-miterlimit="10" stroke-dasharray="" stroke-dashoffset="0" style="mix-blend-mode: normal"><path d="M22.5,224.39795v-88.79587h435v88.79587z" data-paper-data="{&quot;origPos&quot;:null}" fill="url(#color-1)" stroke="url(#color-2)" stroke-width="2" stroke-linecap="butt"/><g data-paper-data="{&quot;origPos&quot;:null}"><path d="M444.3058,202.09868c2.5136,0 4.7909,1.0212 6.4406,2.6702c1.6489,1.6496 2.6702,3.9269 2.6702,6.4405c0,2.5136 -1.0213,4.791 -2.6702,6.4406c-1.6497,1.649 -3.927,2.6702 -6.4406,2.6702c-2.5136,0 -4.7909,-1.0212 -6.4406,-2.6702c-1.6489,-1.6496 -2.6701,-3.927 -2.6701,-6.4406c0,-2.5136 1.0212,-4.7909 2.6701,-6.4405c1.6497,-1.649 3.927,-2.6702 6.4406,-2.6702z" fill="url(#color-3)" stroke="#000000" stroke-width="2.0785" stroke-linecap="butt"/><path d="M441.2734,206.54886l5.6119,0.4503l1.7321,3.187l-3.6374,2.9446l3.3603,-0.5197l0.7967,3.4642l-7.4479,-0.0693l-1.9053,-2.4249l4.6766,-3.3256l-4.5727,-0.3464z" fill="#000000" stroke="none" stroke-width="0.69283" stroke-linecap="round"/></g><g data-paper-data="{&quot;origPos&quot;:null}" stroke="none" stroke-width="1" stroke-linecap="butt"><path d="M38.12867,166.56345c2.60006,0.31228 3.95493,0.50697 4.06265,0.58504v0.06325l-0.46843,10.83603l-0.12649,0.05435c-0.62457,0 -1.66321,0.06028 -3.11592,0.17986c-0.07807,-0.23421 -0.1176,-0.74414 -0.1176,-1.53078v-1.29756l-0.06325,-0.35082c0,-0.04249 0.02174,-0.06325 0.06325,-0.06325l-0.06325,-0.40518v-1.06334c-1.0505,0 -2.08914,0.03953 -3.11592,0.1176l0.23421,4.0083c-0.30635,0.07807 -1.36673,0.27275 -3.18015,0.58504c-0.08993,0 -0.38442,-2.23638 -0.8825,-6.71014c-0.04151,-0.10278 -0.25793,-1.73238 -0.64828,-4.89079c1.81935,0.04151 3.15545,0.06226 4.0083,0.06226c0.08993,0 0.18579,1.4112 0.28857,4.23361h3.24241v-0.58504c0,-0.14428 -0.02075,-0.32118 -0.06325,-0.53167c0,-0.03558 0.02075,-0.05435 0.06325,-0.05435l-0.06325,-0.29746v-1.35092c0,-0.336 -0.01779,-0.86767 -0.05435,-1.59403z" data-paper-data="{&quot;origPos&quot;:null}" fill="#000000"/><path d="M48.2087,169.29299c2.71963,1.39935 4.2267,2.21563 4.52119,2.44984c-0.39035,1.82528 -0.6216,2.76509 -0.69374,2.81944h-5.69225v0.09882l1.59403,1.97252l2.5042,-1.27878c0.24607,0.42593 0.60085,1.17106 1.06236,2.23342c-0.21544,0.07214 -1.79168,0.30339 -4.72872,0.69374c-2.43205,-1.60292 -3.65648,-2.43798 -3.67427,-2.5042c0.38937,-3.11592 0.62061,-4.67437 0.69276,-4.67437c2.54076,-1.08113 4.01126,-1.68495 4.41446,-1.81045zM47.62268,171.47203c-0.04842,0.12057 -0.36664,0.59788 -0.95464,1.43295c0,0.252 0.35379,0.3785 1.06236,0.3785c0,0.03558 0.51388,0.12254 1.54066,0.26089c0.28264,-0.39035 0.42297,-0.61864 0.42297,-0.68485c-0.08993,-0.53464 -0.28461,-0.80146 -0.58504,-0.80146z" data-paper-data="{&quot;origPos&quot;:null}" fill="#000000"/><path d="M57.69283,169.30188c0.084,0.01186 0.12649,0.05435 0.12649,0.12551l-0.93685,5.18825c1.7897,-0.20951 2.68406,-0.37751 2.68406,-0.504c0.336,-2.07728 0.56725,-3.24241 0.69374,-3.49441c2.21563,0.45558 3.44401,0.72636 3.68415,0.81036c-1.29163,4.43719 -2.00019,6.74967 -2.1257,6.93546c-2.25812,1.58513 -3.52801,2.4617 -3.81065,2.63069c-0.084,0 -1.52189,-0.35478 -4.31465,-1.06334v-0.06325c0.7392,-1.62664 1.19873,-2.44095 1.37859,-2.44095l2.7473,1.37859l1.31436,-2.2522c-1.18292,0.2945 -1.86975,0.44174 -2.06245,0.44174l-3.50331,-1.81935c0.42593,-3.9154 0.69671,-5.8731 0.81036,-5.8731z" data-paper-data="{&quot;origPos&quot;:null}" fill="#000000"/><path d="M72.09541,166.56345l3.96382,0.70264l-0.3785,3.0082c0.78664,-0.04151 1.36278,-0.06325 1.72942,-0.06325h0.57614l0.12649,-0.06226l0.06325,0.12551c-0.12649,1.82528 -0.23421,2.85304 -0.32414,3.08034l-0.12649,-0.07115c-0.08993,0 -0.90029,-0.04249 -2.43205,-0.12649c-0.084,1.4112 -0.14725,3.09813 -0.18875,5.06176l-0.12649,0.06325c-1.93398,-0.12551 -3.08627,-0.23421 -3.45883,-0.32414l0.06325,-0.252c0,-0.52278 0.084,-2.14349 0.252,-4.86411c-1.6217,-0.08993 -2.43205,-0.19864 -2.43205,-0.32414c0.084,-2.00612 0.19271,-3.0082 0.32414,-3.0082l2.36881,0.44965v-0.77478c0,-0.6305 -0.02372,-1.48236 -0.07214,-2.55756c0.04842,0 0.07214,-0.02075 0.07214,-0.06325z" data-paper-data="{&quot;origPos&quot;:null}" fill="#000000"/><path d="M83.16566,166.56345c0.03656,0.05435 0.20457,1.69977 0.50499,4.93625c2.31742,-0.70857 3.55173,-1.06334 3.70194,-1.06334l2.29667,1.56735c-0.37257,3.42326 -0.61567,5.42246 -0.72932,5.9996l-3.18905,0.10772c0,-0.03656 -0.02075,-0.05435 -0.06325,-0.05435l0.06325,-0.22532c0,-0.48621 0.07214,-1.96363 0.21642,-4.43126c-0.87657,-0.03558 -1.5288,-0.05435 -1.95474,-0.05435h-0.22532c0.25793,2.74434 0.38739,4.23954 0.38739,4.48561l-3.02599,0.45064c-0.11464,-0.38442 -0.78664,-3.97173 -2.01798,-10.76389c0,-0.19172 0.46843,-0.34193 1.40528,-0.45064c1.18292,-0.336 2.05949,-0.504 2.6297,-0.504z" data-paper-data="{&quot;origPos&quot;:null}" fill="#000000"/><path d="M95.62339,169.29299c2.71963,1.39935 4.2267,2.21563 4.52119,2.44984c-0.39035,1.82528 -0.6216,2.76509 -0.69374,2.81944h-5.69225v0.09882l1.59403,1.97252l2.5042,-1.27878c0.24607,0.42593 0.60085,1.17106 1.06334,2.23342c-0.21642,0.07214 -1.79266,0.30339 -4.72971,0.69374c-2.43107,-1.60292 -3.65648,-2.43798 -3.67427,-2.5042c0.39035,-3.11592 0.6216,-4.67437 0.69374,-4.67437c2.53977,-1.08113 4.01126,-1.68495 4.41347,-1.81045zM95.03737,171.47203c-0.04744,0.12057 -0.36565,0.59788 -0.95464,1.43295c0,0.252 0.35478,0.3785 1.06334,0.3785c0,0.03558 0.5129,0.12254 1.53968,0.26089c0.28264,-0.39035 0.42395,-0.61864 0.42395,-0.68485c-0.09092,-0.53464 -0.2856,-0.80146 -0.58603,-0.80146z" data-paper-data="{&quot;origPos&quot;:null}" fill="#000000"/><path d="M107.43185,169.28408c1.18885,0.66607 1.91817,1.09892 2.18895,1.29657c-0.97341,2.02391 -1.4952,3.05366 -1.56735,3.08923h-0.06325l-1.28767,-1.1256l-1.52288,1.85591l0.17097,3.3778c-0.07807,0.07214 -1.07125,0.24014 -2.98152,0.504c-0.07115,-0.51586 -0.53958,-3.04773 -1.40429,-7.59264c0,-0.07214 1.25506,-0.25892 3.76519,-0.55934c0.04151,0.04842 0.15515,0.60974 0.34193,1.68495c1.50113,-1.68791 2.28777,-2.53088 2.35991,-2.53088z" data-paper-data="{&quot;origPos&quot;:null}" fill="#000000"/><path d="M115.43955,169.29299c2.71963,1.39935 4.22768,2.21563 4.52119,2.44984c-0.39035,1.82528 -0.6216,2.76509 -0.69374,2.81944h-5.69225v0.09882l1.59403,1.97252l2.5042,-1.27878c0.24607,0.42593 0.60085,1.17106 1.06334,2.23342c-0.21642,0.07214 -1.79266,0.30339 -4.72872,0.69374c-2.43205,-1.60292 -3.65747,-2.43798 -3.67526,-2.5042c0.39035,-3.11592 0.6216,-4.67437 0.69374,-4.67437c2.53977,-1.08113 4.01126,-1.68495 4.41347,-1.81045zM114.85353,171.47203c-0.04744,0.12057 -0.36565,0.59788 -0.95464,1.43295c0,0.252 0.35478,0.3785 1.06334,0.3785c0,0.03558 0.5129,0.12254 1.53968,0.26089c0.28264,-0.39035 0.42395,-0.61864 0.42395,-0.68485c-0.08993,-0.53464 -0.2856,-0.80146 -0.58603,-0.80146z" data-paper-data="{&quot;origPos&quot;:null}" fill="#000000"/><path d="M122.03308,176.33616c1.63257,0.19271 2.45281,0.30042 2.45874,0.32414c-0.9912,2.33027 -1.54659,3.55568 -1.66617,3.67526c-0.81727,-0.10179 -1.22542,-0.18579 -1.22542,-0.252c0.21642,-2.49827 0.34885,-3.7474 0.39628,-3.7474z" data-paper-data="{&quot;origPos&quot;:null}" fill="#000000"/><path d="M134.3821,166.55457c1.69878,0.11958 2.54867,0.22828 2.54867,0.32414c0.65421,1.75906 1.05445,2.88269 1.19774,3.3689h0.05435c0.15614,-0.336 0.75403,-1.26099 1.79266,-2.77399h0.05435c1.62664,0.10179 2.44095,0.21247 2.44095,0.33304l1.46753,10.04347c0,0.05929 -1.28471,0.20358 -3.85512,0.43186l-0.05336,-0.10772c-0.14428,-3.05069 -0.21642,-4.9155 -0.21642,-5.59343h-0.05435l-2.22452,1.95375h-0.05435c-0.07214,-0.03558 -0.57911,-0.83111 -1.52189,-2.3866h-0.05435c-1.1592,3.37483 -1.79266,5.1675 -1.90038,5.37701h-0.10772c-2.07234,-0.93586 -3.24933,-1.49817 -3.53098,-1.68396v-0.05435c2.56942,-6.04011 3.90848,-9.11848 4.01719,-9.23212z" data-paper-data="{&quot;origPos&quot;:null}" fill="#000000"/><path d="M146.14511,169.28408c3.56754,0.49214 5.35032,0.79553 5.35032,0.90918c1.40528,1.20763 2.10791,1.85295 2.10791,1.93695c-0.57021,1.78377 -0.89436,2.86688 -0.97243,3.2513c0.57021,1.26692 0.89436,2.02391 0.97243,2.26998c0,0.07214 -0.93092,0.26386 -2.79177,0.57614c-0.02471,-0.10179 -0.19567,-0.33007 -0.51388,-0.68386c-2.57041,0.49214 -3.95394,0.73821 -4.15258,0.73821l-1.36871,-3.70194l3.01709,-1.59403c0.4872,0.07807 1.24617,0.11661 2.27888,0.11661c0,-0.13144 0.01878,-0.53167 0.05435,-1.19774c-0.17393,0 -1.72942,0.11365 -4.66547,0.34193l-0.05435,-0.11661c0.40814,-1.89742 0.65421,-2.84613 0.73821,-2.84613zM148.01881,174.58006c0,0.06621 0.19271,0.76885 0.57713,2.10791h0.05336c0.75699,-0.49214 1.13549,-0.81727 1.13549,-0.97341l0.11661,-0.96353c-0.14428,0 -0.77181,-0.05732 -1.88259,-0.17097z" data-paper-data="{&quot;origPos&quot;:null}" fill="#000000"/><path d="M160.93607,169.28408c1.18885,0.66607 1.91817,1.09892 2.18796,1.29657c-0.97243,2.02391 -1.4952,3.05366 -1.56735,3.08923h-0.06226l-1.28866,-1.1256l-1.52189,1.85591l0.17097,3.3778c-0.07807,0.07214 -1.07224,0.24014 -2.98152,0.504c-0.07214,-0.51586 -0.54057,-3.04773 -1.40528,-7.59264c0,-0.07214 1.25506,-0.25892 3.76519,-0.55934c0.04249,0.04842 0.15614,0.60974 0.34193,1.68495c1.50212,-1.68791 2.28876,-2.53088 2.3609,-2.53088z" data-paper-data="{&quot;origPos&quot;:null}" fill="#000000"/><path d="M165.07877,165.67206l3.53987,0.55835c-0.44372,1.69878 -0.73525,2.54867 -0.8736,2.54867c-1.86184,-0.12551 -2.79177,-0.24904 -2.79177,-0.36861v-2.6129c0.01779,-0.084 0.05929,-0.12551 0.12551,-0.12551zM164.08855,169.95904h0.05336c2.73841,0.49906 4.10811,0.7896 4.10811,0.8736c-0.78664,4.45597 -1.26495,6.93941 -1.43295,7.44934h-2.85502c-0.084,0 -0.12649,-0.04151 -0.12649,-0.12551z" data-paper-data="{&quot;origPos&quot;:null}" fill="#000000"/><path d="M172.5459,169.29299c2.28184,0.61271 3.49243,0.98429 3.6298,1.11671c1.25506,1.77784 1.96067,2.80166 2.11681,3.07145c-0.81036,2.57041 -1.27582,3.85512 -1.39539,3.85512c-2.70283,0.6305 -4.117,0.94574 -4.24251,0.94574c-2.23441,-1.3025 -3.42326,-2.02984 -3.56754,-2.18005c-0.07807,-2.42514 -0.11661,-3.76519 -0.11661,-4.01719c-0.03656,-0.07214 -0.05435,-0.12551 -0.05435,-0.16207c2.30556,-1.75313 3.49836,-2.6297 3.57643,-2.6297zM172.32058,172.58975c-0.03558,0.24014 -0.08993,1.11374 -0.16207,2.62081l2.00909,0.45064c0.48028,-1.50113 0.72043,-2.30358 0.72043,-2.40537c-1.59699,-0.48028 -2.45281,-0.72043 -2.56744,-0.72043z" data-paper-data="{&quot;origPos&quot;:null}" fill="#000000"/><path d="M183.07558,166.89649l0.03656,0.07214c-0.60085,5.30289 -0.93685,8.08873 -1.00899,8.35951c-1.27285,-0.12057 -2.07827,-0.20457 -2.41427,-0.25299v-0.03558l-0.57614,-7.53038c0.14428,-0.04842 1.46457,-0.252 3.96284,-0.61271zM179.50902,175.50801c0.04151,0.02372 0.97836,0.09586 2.81055,0.21642l0.03558,0.07115c-0.28264,1.65826 -0.4625,2.48641 -0.54057,2.48641h-2.08914c-0.07214,0 -0.16899,-0.82814 -0.28857,-2.48641c-0.02372,0 -0.03656,-0.07115 -0.03656,-0.21544c0.07214,-0.02471 0.10871,-0.04842 0.10871,-0.07214z" data-paper-data="{&quot;origPos&quot;:null}" fill="#000000"/><path d="M195.01943,166.56345l3.92726,2.90048c-0.54057,2.46763 -0.8825,3.70194 -1.02678,3.70194c-0.02965,0 -0.75106,0.60678 -2.16227,1.81935c-0.87657,-0.04151 -1.87864,-0.09882 -3.0082,-0.17097l-0.11661,3.24241c-0.24607,0.07214 -1.30942,0.14725 -3.18905,0.22532c-0.22828,0 -0.34193,-0.64532 -0.34193,-1.93695c-0.41407,-5.34439 -0.6216,-8.2261 -0.6216,-8.64709c0.70264,-0.14922 2.88269,-0.52772 6.53917,-1.1345zM192.57848,169.12201v3.75531c1.47742,-0.26386 2.21563,-0.41704 2.21563,-0.45854l0.51388,-2.21662c-0.72636,-0.29944 -1.63652,-0.66014 -2.72951,-1.08014z" data-paper-data="{&quot;origPos&quot;:null}" fill="#000000"/><path d="M206.4405,169.28408c1.18984,0.66607 1.91916,1.09892 2.18895,1.29657c-0.97243,2.02391 -1.4952,3.05366 -1.56735,3.08923h-0.06325l-1.28767,-1.1256l-1.52189,1.85591l0.17097,3.3778c-0.07807,0.07214 -1.07224,0.24014 -2.98152,0.504c-0.07214,-0.51586 -0.54057,-3.04773 -1.40528,-7.59264c0,-0.07214 1.25506,-0.25892 3.76519,-0.55934c0.04249,0.04842 0.15614,0.60974 0.34193,1.68495c1.50113,-1.68791 2.28777,-2.53088 2.35991,-2.53088z" data-paper-data="{&quot;origPos&quot;:null}" fill="#000000"/><path d="M210.58418,165.67206l3.53987,0.55835c-0.44471,1.69878 -0.73525,2.54867 -0.8736,2.54867c-1.86184,-0.12551 -2.79276,-0.24904 -2.79276,-0.36861v-2.6129c0.01878,-0.084 0.06028,-0.12551 0.12649,-0.12551zM209.59298,169.95904h0.05435c2.73841,0.49906 4.10712,0.7896 4.10712,0.8736c-0.78664,4.45597 -1.26396,6.93941 -1.43196,7.44934h-2.85502c-0.084,0 -0.12649,-0.04151 -0.12649,-0.12551z" data-paper-data="{&quot;origPos&quot;:null}" fill="#000000"/><path d="M222.42031,169.28408l2.9993,2.06245c-0.21049,3.42227 -0.35774,5.42246 -0.44174,5.99861c-0.34786,0.04249 -1.40824,0.10574 -3.17916,0.18974l-0.06325,-0.12649l-0.31525,-4.80976l-0.12649,-0.06325c-1.14636,0.24607 -1.93596,0.43285 -2.36881,0.55835c0.12057,2.04763 0.17986,3.52801 0.17986,4.44114c-1.78871,0.49807 -2.76806,0.74711 -2.93606,0.74711c-1.16513,-5.12797 -1.74721,-7.83673 -1.74721,-8.12431c2.53384,-0.33007 3.90947,-0.4961 4.12491,-0.4961v0.06325c0.04249,0.03064 0.10574,0.6552 0.18974,1.8737c2.32335,-1.54363 3.55173,-2.31445 3.68415,-2.31445z" data-paper-data="{&quot;origPos&quot;:null}" fill="#000000"/><path d="M229.85088,169.29299c2.70876,0.50993 4.1259,0.80146 4.2514,0.8736v0.10772c-0.58207,1.64542 -0.8736,2.49827 -0.8736,2.55855h-0.05435c-0.14922,0 -0.87657,-0.23421 -2.17907,-0.70264c-0.72734,1.2185 -1.09003,1.87074 -1.09003,1.95474l1.80156,1.74721c1.39243,-1.30942 2.10198,-1.96363 2.1257,-1.96363c1.08706,1.42306 1.63059,2.22156 1.63059,2.39549c-0.59492,0.34292 -1.63059,1.01492 -3.10801,2.01798c-2.85799,-0.61864 -4.40161,-0.96353 -4.6299,-1.03567l-1.41417,-4.57554z" data-paper-data="{&quot;origPos&quot;:null}" fill="#000000"/><path d="M241.47058,169.29299c2.72062,1.39935 4.22768,2.21563 4.52218,2.44984c-0.39035,1.82528 -0.6216,2.76509 -0.69374,2.81944h-5.69324v0.09882l1.59502,1.97252l2.50321,-1.27878c0.24706,0.42593 0.60085,1.17106 1.06334,2.23342c-0.21642,0.07214 -1.79266,0.30339 -4.72872,0.69374c-2.43205,-1.60292 -3.65747,-2.43798 -3.67526,-2.5042c0.39035,-3.11592 0.6216,-4.67437 0.69374,-4.67437c2.53977,-1.08113 4.01126,-1.68495 4.41347,-1.81045zM240.88555,171.47203c-0.04842,0.12057 -0.36664,0.59788 -0.95563,1.43295c0,0.252 0.35478,0.3785 1.06334,0.3785c0,0.03558 0.5129,0.12254 1.54066,0.26089c0.28165,-0.39035 0.42297,-0.61864 0.42297,-0.68485c-0.08993,-0.53464 -0.2856,-0.80146 -0.58603,-0.80146z" data-paper-data="{&quot;origPos&quot;:null}" fill="#000000"/><path d="M254.08051,169.28408c1.72942,1.10485 2.68504,1.74128 2.8649,1.90928c-0.62457,1.38749 -0.98231,2.08024 -1.07224,2.08024l-3.27799,-1.90038h-0.1176c0,0.06028 -0.14132,0.39628 -0.42297,1.00899c3.02006,1.62763 4.53008,2.4617 4.53008,2.5042c-0.84692,1.9577 -1.32424,2.99041 -1.43196,3.09813l-5.125,0.29746c-1.99427,-1.32127 -3.06552,-2.01798 -3.21573,-2.08914v-0.05435c0,-0.15021 0.29746,-0.82617 0.89139,-2.02688l3.9994,2.08123l0.29746,-1.18984c-2.47455,-1.11078 -3.94505,-1.80452 -4.41347,-2.08024v-0.12649c0,-0.22828 0.47732,-1.23925 1.43196,-3.03488z" data-paper-data="{&quot;origPos&quot;:null}" fill="#000000"/><path d="M265.10628,169.28408c1.72942,1.10485 2.68406,1.74128 2.86391,1.90928c-0.62457,1.38749 -0.98132,2.08024 -1.07224,2.08024l-3.27799,-1.90038h-0.1176c0,0.06028 -0.14132,0.39628 -0.42297,1.00899c3.02006,1.62763 4.53107,2.4617 4.53107,2.5042c-0.84692,1.9577 -1.32424,2.99041 -1.43295,3.09813l-5.125,0.29746c-1.99328,-1.32127 -3.06552,-2.01798 -3.21573,-2.08914v-0.05435c0,-0.15021 0.29746,-0.82617 0.89238,-2.02688l3.99841,2.08123l0.29746,-1.18984c-2.47356,-1.11078 -3.94505,-1.80452 -4.41347,-2.08024v-0.12649c0,-0.22828 0.47732,-1.23925 1.43196,-3.03488z" data-paper-data="{&quot;origPos&quot;:null}" fill="#000000"/><path d="M279.97729,166.56345l3.92726,2.90048c-0.54057,2.46763 -0.8825,3.70194 -1.02678,3.70194c-0.03064,0 -0.75106,0.60678 -2.16227,1.81935c-0.87657,-0.04151 -1.87963,-0.09882 -3.0082,-0.17097l-0.1176,3.24241c-0.24607,0.07214 -1.30843,0.14725 -3.18806,0.22532c-0.22828,0 -0.34193,-0.64532 -0.34193,-1.93695c-0.41506,-5.34439 -0.6216,-8.2261 -0.6216,-8.64709c0.70264,-0.14922 2.8817,-0.52772 6.53917,-1.1345zM277.53635,169.12201v3.75531c1.47742,-0.26386 2.21563,-0.41704 2.21563,-0.45854l0.51388,-2.21662c-0.72734,-0.29944 -1.63652,-0.66014 -2.72951,-1.08014z" data-paper-data="{&quot;origPos&quot;:null}" fill="#000000"/><path d="M290.03855,169.29299c2.71963,1.39935 4.22768,2.21563 4.52119,2.44984c-0.39035,1.82528 -0.6216,2.76509 -0.69276,2.81944h-5.69324v0.09882l1.59403,1.97252l2.5042,-1.27878c0.24607,0.42593 0.60085,1.17106 1.06334,2.23342c-0.21642,0.07214 -1.79266,0.30339 -4.72872,0.69374c-2.43205,-1.60292 -3.65747,-2.43798 -3.67526,-2.5042c0.39035,-3.11592 0.6216,-4.67437 0.69374,-4.67437c2.53977,-1.08113 4.01126,-1.68495 4.41347,-1.81045zM289.45252,171.47203c-0.04744,0.12057 -0.36565,0.59788 -0.95464,1.43295c0,0.252 0.35478,0.3785 1.06334,0.3785c0,0.03558 0.5129,0.12254 1.53968,0.26089c0.28264,-0.39035 0.42395,-0.61864 0.42395,-0.68485c-0.08993,-0.53464 -0.2856,-0.80146 -0.58603,-0.80146z" data-paper-data="{&quot;origPos&quot;:null}" fill="#000000"/><path d="M296.74869,169.28408c3.56754,0.49214 5.35032,0.79553 5.35032,0.90918c1.40528,1.20763 2.10791,1.85295 2.10791,1.93695c-0.57021,1.78377 -0.89436,2.86688 -0.97243,3.2513c0.57021,1.26692 0.89436,2.02391 0.97243,2.26998c0,0.07214 -0.93092,0.26386 -2.79177,0.57614c-0.02471,-0.10179 -0.19567,-0.33007 -0.51388,-0.68386c-2.57041,0.49214 -3.95394,0.73821 -4.15258,0.73821l-1.36871,-3.70194l3.01709,-1.59403c0.48621,0.07807 1.24617,0.11661 2.27888,0.11661c0,-0.13144 0.01779,-0.53167 0.05435,-1.19774c-0.17393,0 -1.72942,0.11365 -4.66646,0.34193l-0.05336,-0.11661c0.40814,-1.89742 0.65421,-2.84613 0.73821,-2.84613zM298.62239,174.58006c0,0.06621 0.19172,0.76885 0.57614,2.10791h0.05435c0.75699,-0.49214 1.13549,-0.81727 1.13549,-0.97341l0.11661,-0.96353c-0.14428,0 -0.77181,-0.05732 -1.88259,-0.17097z" data-paper-data="{&quot;origPos&quot;:null}" fill="#000000"/><path d="M308.6115,169.29299c2.70876,0.50993 4.1259,0.80146 4.2514,0.8736v0.10772c-0.58207,1.64542 -0.8736,2.49827 -0.8736,2.55855h-0.05435c-0.15021,0 -0.87657,-0.23421 -2.17907,-0.70264c-0.72734,1.2185 -1.09003,1.87074 -1.09003,1.95474l1.80156,1.74721c1.39243,-1.30942 2.10099,-1.96363 2.1257,-1.96363c1.08706,1.42306 1.62961,2.22156 1.62961,2.39549c-0.59393,0.34292 -1.62961,1.01492 -3.10702,2.01798c-2.85799,-0.61864 -4.40161,-0.96353 -4.6299,-1.03567l-1.41417,-4.57554z" data-paper-data="{&quot;origPos&quot;:null}" fill="#000000"/><path d="M319.15897,166.56345c0.03656,0.05435 0.20457,1.69977 0.50499,4.93625c2.31742,-0.70857 3.55173,-1.06334 3.70194,-1.06334l2.29667,1.56735c-0.37257,3.42326 -0.61567,5.42246 -0.72932,5.9996l-3.18905,0.10772c0,-0.03656 -0.02075,-0.05435 -0.06325,-0.05435l0.06325,-0.22532c0,-0.48621 0.07214,-1.96363 0.21642,-4.43126c-0.87657,-0.03558 -1.5288,-0.05435 -1.95474,-0.05435h-0.22532c0.25793,2.74434 0.38739,4.23954 0.38739,4.48561l-3.02599,0.45064c-0.11464,-0.38442 -0.78664,-3.97173 -2.01798,-10.76389c0,-0.19172 0.46843,-0.34193 1.40528,-0.45064c1.18292,-0.336 2.05949,-0.504 2.6297,-0.504z" data-paper-data="{&quot;origPos&quot;:null}" fill="#000000"/><path d="M332.32824,165.67206l3.53987,0.55835c-0.44471,1.69878 -0.73624,2.54867 -0.8736,2.54867c-1.86184,-0.12551 -2.79276,-0.24904 -2.79276,-0.36861v-2.6129c0.01779,-0.084 0.06028,-0.12551 0.12649,-0.12551zM331.33703,169.95904h0.05435c2.73841,0.49906 4.10712,0.7896 4.10712,0.8736c-0.78664,4.45597 -1.26396,6.93941 -1.43196,7.44934h-2.85502c-0.084,0 -0.12649,-0.04151 -0.12649,-0.12551z" data-paper-data="{&quot;origPos&quot;:null}" fill="#000000"/><path d="M343.43406,169.28408c1.72942,1.10485 2.68406,1.74128 2.8649,1.90928c-0.62457,1.38749 -0.98231,2.08024 -1.07224,2.08024l-3.27898,-1.90038h-0.11661c0,0.06028 -0.14132,0.39628 -0.42395,1.00899c3.02104,1.62763 4.53107,2.4617 4.53107,2.5042c-0.84692,1.9577 -1.32424,2.99041 -1.43196,3.09813l-5.125,0.29746c-1.99427,-1.32127 -3.06552,-2.01798 -3.21573,-2.08914v-0.05435c0,-0.15021 0.29647,-0.82617 0.89139,-2.02688l3.9994,2.08123l0.29746,-1.18984c-2.47455,-1.11078 -3.94604,-1.80452 -4.41446,-2.08024v-0.12649c0,-0.22828 0.47831,-1.23925 1.43295,-3.03488z" data-paper-data="{&quot;origPos&quot;:null}" fill="#000000"/><path d="M355.71984,169.28408c0.07807,0.10179 0.48424,1.84306 1.21652,5.22383h0.06325c0,-0.07807 0.44372,-0.76588 1.33313,-2.06245c0.37158,0.252 1.08014,0.7985 2.1257,1.63949h0.12551v-0.06325c0.16207,-2.34213 0.28264,-3.63869 0.36071,-3.89168c2.47356,0.12649 3.71084,0.22828 3.71084,0.30635c-1.1345,4.56369 -1.74128,6.93645 -1.81935,7.1163c-0.3785,0.04151 -1.17106,0.16207 -2.3777,0.35972c-0.9912,-1.5545 -1.55845,-2.38363 -1.70273,-2.48542c-0.64828,1.72942 -1.05346,2.68109 -1.21553,2.85502h-2.43205c-0.15021,-0.04842 -0.85878,-1.60885 -2.1257,-4.68326c-0.81134,-1.71756 -1.21652,-2.64848 -1.21652,-2.79276c0,-0.13242 1.31831,-0.63939 3.95394,-1.52189z" data-paper-data="{&quot;origPos&quot;:null}" fill="#000000"/><path d="M367.00651,169.28408c3.56655,0.49214 5.35032,0.79553 5.35032,0.90918c1.40528,1.20763 2.10791,1.85295 2.10791,1.93695c-0.57021,1.78377 -0.89534,2.86688 -0.97341,3.2513c0.5712,1.26692 0.89534,2.02391 0.97341,2.26998c0,0.07214 -0.93092,0.26386 -2.79276,0.57614c-0.02372,-0.10179 -0.19468,-0.33007 -0.5129,-0.68386c-2.57041,0.49214 -3.95493,0.73821 -4.15258,0.73821l-1.36871,-3.70194l3.01709,-1.59403c0.48621,0.07807 1.24617,0.11661 2.27888,0.11661c0,-0.13144 0.01779,-0.53167 0.05435,-1.19774c-0.17492,0 -1.72942,0.11365 -4.66646,0.34193l-0.05336,-0.11661c0.40814,-1.89742 0.65421,-2.84613 0.73821,-2.84613zM368.88021,174.58006c0,0.06621 0.19172,0.76885 0.57614,2.10791h0.05435c0.756,-0.49214 1.1345,-0.81727 1.1345,-0.97341l0.1176,-0.96353c-0.14428,0 -0.77181,-0.05732 -1.88259,-0.17097z" data-paper-data="{&quot;origPos&quot;:null}" fill="#000000"/><path d="M376.57266,165.67206l3.53987,0.55835c-0.44471,1.69878 -0.73624,2.54867 -0.8736,2.54867c-1.86184,-0.12551 -2.79276,-0.24904 -2.79276,-0.36861v-2.6129c0.01779,-0.084 0.06028,-0.12551 0.12649,-0.12551zM375.58146,169.95904h0.05435c2.73841,0.49906 4.10712,0.7896 4.10712,0.8736c-0.78664,4.45597 -1.26396,6.93941 -1.43196,7.44934h-2.85601c-0.084,0 -0.12551,-0.04151 -0.12551,-0.12551z" data-paper-data="{&quot;origPos&quot;:null}" fill="#000000"/><path d="M383.10294,166.56345l3.96284,0.70264l-0.3785,3.0082c0.78664,-0.04151 1.36377,-0.06325 1.72942,-0.06325h0.57713l0.12551,-0.06226l0.06325,0.12551c-0.12649,1.82528 -0.23421,2.85304 -0.32414,3.08034l-0.12649,-0.07115c-0.08993,0 -0.90029,-0.04249 -2.43205,-0.12649c-0.084,1.4112 -0.14725,3.09813 -0.18875,5.06176l-0.12649,0.06325c-1.93299,-0.12551 -3.08627,-0.23421 -3.45883,-0.32414l0.06325,-0.252c0,-0.52278 0.084,-2.14349 0.252,-4.86411c-1.62071,-0.08993 -2.43205,-0.19864 -2.43205,-0.32414c0.084,-2.00612 0.19271,-3.0082 0.32513,-3.0082l2.36881,0.44965v-0.77478c0,-0.6305 -0.02471,-1.48236 -0.07214,-2.55756c0.04744,0 0.07214,-0.02075 0.07214,-0.06325z" data-paper-data="{&quot;origPos&quot;:null}" fill="#000000"/><path d="M391.38042,165.67206l3.53987,0.55835c-0.44471,1.69878 -0.73525,2.54867 -0.8736,2.54867c-1.86184,-0.12551 -2.79276,-0.24904 -2.79276,-0.36861v-2.6129c0.01878,-0.084 0.06028,-0.12551 0.12649,-0.12551zM390.38922,169.95904h0.05435c2.73841,0.49906 4.10712,0.7896 4.10712,0.8736c-0.78664,4.45597 -1.26396,6.93941 -1.43196,7.44934h-2.85502c-0.084,0 -0.12649,-0.04151 -0.12649,-0.12551z" data-paper-data="{&quot;origPos&quot;:null}" fill="#000000"/><path d="M403.21656,169.28408l2.9993,2.06245c-0.21049,3.42227 -0.35774,5.42246 -0.44174,5.99861c-0.34786,0.04249 -1.40824,0.10574 -3.17916,0.18974l-0.06325,-0.12649l-0.31525,-4.80976l-0.12649,-0.06325c-1.14636,0.24607 -1.93596,0.43285 -2.36881,0.55835c0.12057,2.04763 0.17986,3.52801 0.17986,4.44114c-1.78871,0.49807 -2.76806,0.74711 -2.93606,0.74711c-1.16513,-5.12797 -1.74721,-7.83673 -1.74721,-8.12431c2.53384,-0.33007 3.90947,-0.4961 4.12491,-0.4961v0.06325c0.04249,0.03064 0.10574,0.6552 0.18974,1.8737c2.32335,-1.54363 3.55173,-2.31445 3.68415,-2.31445z" data-paper-data="{&quot;origPos&quot;:null}" fill="#000000"/><path d="M413.82727,169.31076c2.55163,0.06621 3.82745,0.17689 3.82745,0.33304c0.43878,6.64788 0.65817,10.18479 0.65817,10.61072c-1.93398,1.23135 -3.3185,2.06542 -4.15258,2.5042c-2.94297,-0.92499 -4.41347,-1.45271 -4.41347,-1.58513c0.94871,-1.38749 1.49817,-2.09012 1.64838,-2.10791c1.60292,0.79257 2.52495,1.18885 2.76509,1.18885l0.85581,-1.1256c-0.22828,-0.93092 -0.38146,-1.48038 -0.45953,-1.64838c-0.13242,0 -1.76005,0.26386 -4.8819,0.79257c-1.71163,-2.77991 -2.56744,-4.20693 -2.56744,-4.27808c1.47742,-2.35991 2.3777,-3.74444 2.70184,-4.15258h0.06325c0.17393,0 1.47149,0.28461 3.89168,0.85581v-0.19864c0,-0.23421 -0.02174,-0.60974 -0.06325,-1.1256zM410.87244,173.19256c0.084,0.18678 0.34786,1.17699 0.79257,2.97262c0.55835,-0.17986 1.41417,-0.50993 2.56744,-0.99021c-0.22235,-1.08113 -0.33402,-1.69681 -0.33402,-1.84702l-0.32414,-0.06325h-0.39628c-0.504,0 -1.27285,-0.02372 -2.30556,-0.07214z" data-paper-data="{&quot;origPos&quot;:null}" fill="#000000"/><path d="M427.60826,166.56345c0.31821,0.03558 1.47742,0.30339 3.47662,0.80146l0.05435,0.10871c-0.2945,1.6385 -0.47139,2.45874 -0.53167,2.45874h-0.05435l-1.44975,-0.7481c0,0.16899 -0.05435,0.91906 -0.16207,2.2522l1.98142,-0.48621c0.06028,0.17986 0.11365,0.98132 0.16207,2.40438c-0.19172,0.07214 -0.85285,0.18085 -1.98142,0.32513c0.252,1.08014 0.51883,2.40142 0.80146,3.96284c-0.92499,0.21049 -2.02984,0.42297 -3.31455,0.63939l-0.05435,-0.10772c-0.168,-2.7809 -0.30932,-4.17037 -0.42297,-4.17037c-1.16513,0.28165 -1.7897,0.44075 -1.8737,0.47732c-0.07214,-0.34885 -0.19864,-1.29459 -0.3785,-2.83723l0.10871,-0.05435h1.92706c-0.10772,-0.88843 -0.26979,-2.04763 -0.48621,-3.47662z" data-paper-data="{&quot;origPos&quot;:null}" fill="#000000"/><path d="M435.59718,169.29299c2.28283,0.61271 3.49243,0.98429 3.63079,1.11671c1.25506,1.77784 1.96067,2.80166 2.11681,3.07145c-0.81134,2.57041 -1.2768,3.85512 -1.39638,3.85512c-2.70283,0.6305 -4.117,0.94574 -4.24251,0.94574c-2.23441,-1.3025 -3.42326,-2.02984 -3.56754,-2.18005c-0.07807,-2.42514 -0.11661,-3.76519 -0.11661,-4.01719c-0.03558,-0.07214 -0.05435,-0.12551 -0.05435,-0.16207c2.30655,-1.75313 3.49836,-2.6297 3.57643,-2.6297zM435.37285,172.58975c-0.03656,0.24014 -0.09092,1.11374 -0.16207,2.62081l2.0081,0.45064c0.48028,-1.50113 0.72043,-2.30358 0.72043,-2.40537c-1.59699,-0.48028 -2.45281,-0.72043 -2.56646,-0.72043z" data-paper-data="{&quot;origPos&quot;:null}" fill="#000000"/><path d="M448.63105,169.28408c1.18885,0.66607 1.91916,1.09892 2.18895,1.29657c-0.97243,2.02391 -1.4952,3.05366 -1.56735,3.08923h-0.06325l-1.28767,-1.1256l-1.52189,1.85591l0.17097,3.3778c-0.07807,0.07214 -1.07224,0.24014 -2.98152,0.504c-0.07214,-0.51586 -0.54057,-3.04773 -1.40528,-7.59264c0,-0.07214 1.25506,-0.25892 3.76519,-0.55934c0.04151,0.04842 0.15614,0.60974 0.34193,1.68495c1.50113,-1.68791 2.28777,-2.53088 2.35991,-2.53088z" data-paper-data="{&quot;origPos&quot;:null}" fill="#000000"/><path d="M34.85068,192.36045c0.084,0.01186 0.12551,0.05435 0.12551,0.12649l-0.93685,5.18825c1.7897,-0.21049 2.68406,-0.3785 2.68406,-0.50499c0.33699,-2.07728 0.56824,-3.24241 0.69374,-3.49441c2.21563,0.45657 3.44401,0.72636 3.68415,0.81036c-1.29064,4.43818 -1.99921,6.74967 -2.1257,6.93546c-2.25812,1.58612 -3.52801,2.46269 -3.80966,2.63069c-0.084,0 -1.52288,-0.35478 -4.31465,-1.06334v-0.06226c0.73821,-1.62763 1.19774,-2.44095 1.3776,-2.44095l2.7473,1.3776l1.31535,-2.2522c-1.18292,0.2945 -1.87074,0.44174 -2.06245,0.44174l-3.50429,-1.81935c0.42692,-3.9154 0.69671,-5.8731 0.81036,-5.8731z" data-paper-data="{&quot;origPos&quot;:null}" fill="#000000"/><path d="M45.61458,192.35155c2.28184,0.61271 3.49145,0.98527 3.6298,1.11671c1.25506,1.77784 1.96067,2.80166 2.11681,3.07145c-0.81134,2.57041 -1.2768,3.85512 -1.39638,3.85512c-2.70283,0.6305 -4.117,0.94574 -4.24251,0.94574c-2.23441,-1.3025 -3.42326,-2.02885 -3.56655,-2.17907c-0.07807,-2.42613 -0.1176,-3.76519 -0.1176,-4.01719c-0.03558,-0.07214 -0.05435,-0.12649 -0.05435,-0.16207c2.30655,-1.75412 3.49836,-2.63069 3.57643,-2.63069zM45.38926,195.64832c-0.03656,0.24014 -0.09092,1.11374 -0.16207,2.62081l2.0081,0.45064c0.48028,-1.50113 0.72043,-2.3026 0.72043,-2.40438c-1.59699,-0.48127 -2.45281,-0.72141 -2.56646,-0.72141z" data-paper-data="{&quot;origPos&quot;:null}" fill="#000000"/><path d="M57.04454,192.34264l0.06325,0.11661l-1.21652,6.45023h0.06325l3.09813,-0.91017v-3.64759c0.01285,-0.08499 0.05139,-0.12649 0.1176,-0.12649c2.33027,0.16207 3.62684,0.24311 3.89069,0.24311c0,0.04249 0.02174,0.06325 0.06325,0.06325c0,1.02678 -0.32414,3.15545 -0.97243,6.386c0,0.18579 -0.93092,0.32711 -2.79276,0.42297c-0.09586,-0.11365 -0.17689,-0.35675 -0.24311,-0.72932c-2.38363,0.48621 -3.74345,0.72932 -4.08044,0.72932c-1.90335,-1.41713 -2.85502,-2.14645 -2.85502,-2.18796c0.32414,-4.25832 0.52871,-6.46802 0.61271,-6.63009h0.05435c1.51892,-0.04151 2.91827,-0.10179 4.19705,-0.17986z" data-paper-data="{&quot;origPos&quot;:null}" fill="#000000"/><path d="M69.97861,192.34264c3.56754,0.49214 5.35131,0.79553 5.35131,0.91017c1.40429,1.20664 2.10692,1.85196 2.10692,1.93596c-0.57021,1.78377 -0.89436,2.86787 -0.97243,3.25229c0.57021,1.26692 0.89436,2.02292 0.97243,2.269c0,0.07214 -0.93092,0.26485 -2.79177,0.57713c-0.02471,-0.10278 -0.19567,-0.33007 -0.51388,-0.68485c-2.56942,0.49214 -3.95394,0.73821 -4.15258,0.73821l-1.36871,-3.70194l3.01709,-1.59403c0.4872,0.07807 1.24617,0.1176 2.27888,0.1176c0,-0.13242 0.01878,-0.53167 0.05435,-1.19873c-0.17393,0 -1.72942,0.11464 -4.66547,0.34292l-0.05435,-0.1176c0.40814,-1.89742 0.65421,-2.84613 0.73821,-2.84613zM71.85231,197.63863c0,0.06621 0.19271,0.76885 0.57713,2.10791h0.05336c0.75699,-0.49214 1.13549,-0.81628 1.13549,-0.97243l0.11661,-0.96353c-0.14428,0 -0.77181,-0.05732 -1.88259,-0.17195z" data-paper-data="{&quot;origPos&quot;:null}" fill="#000000"/><path d="M80.99549,189.62202l3.96284,0.70264l-0.3785,3.00919c0.78664,-0.04249 1.36377,-0.06325 1.72942,-0.06325h0.57713l0.12551,-0.06325l0.06325,0.12649c-0.12649,1.82528 -0.23421,2.85206 -0.32414,3.08034l-0.12649,-0.07214c-0.08993,0 -0.90029,-0.04249 -2.43205,-0.12649c-0.084,1.4112 -0.14725,3.09912 -0.18875,5.06275l-0.12649,0.06226c-1.93299,-0.12551 -3.08627,-0.23421 -3.45883,-0.32414l0.06325,-0.252c0,-0.52278 0.084,-2.14349 0.252,-4.86411c-1.62071,-0.08993 -2.43205,-0.19765 -2.43205,-0.32414c0.084,-2.00514 0.19271,-3.0082 0.32414,-3.0082l2.3698,0.45064v-0.77478c0,-0.6305 -0.02471,-1.48335 -0.07214,-2.55855c0.04744,0 0.07214,-0.02075 0.07214,-0.06325z" data-paper-data="{&quot;origPos&quot;:null}" fill="#000000"/><path d="M95.29925,189.62202l3.96284,0.70264l-0.3785,3.00919c0.78664,-0.04249 1.36278,-0.06325 1.72942,-0.06325h0.57614l0.12649,-0.06325l0.06325,0.12649c-0.12649,1.82528 -0.23421,2.85206 -0.32414,3.08034l-0.12649,-0.07214c-0.08993,0 -0.90029,-0.04249 -2.43205,-0.12649c-0.084,1.4112 -0.14725,3.09912 -0.18875,5.06275l-0.12649,0.06226c-1.93299,-0.12551 -3.08627,-0.23421 -3.45883,-0.32414l0.06325,-0.252c0,-0.52278 0.084,-2.14349 0.252,-4.86411c-1.62071,-0.08993 -2.43205,-0.19765 -2.43205,-0.32414c0.084,-2.00514 0.19271,-3.0082 0.32414,-3.0082l2.3698,0.45064v-0.77478c0,-0.6305 -0.02471,-1.48335 -0.07214,-2.55855c0.04744,0 0.07214,-0.02075 0.07214,-0.06325z" data-paper-data="{&quot;origPos&quot;:null}" fill="#000000"/><path d="M106.36851,189.62202c0.03656,0.05435 0.20457,1.69977 0.50499,4.93625c2.31742,-0.70857 3.55173,-1.06236 3.70194,-1.06236l2.29667,1.56735c-0.37257,3.42227 -0.61567,5.42246 -0.72932,5.99861l-3.18905,0.10772c0,-0.03558 -0.02075,-0.05336 -0.06325,-0.05336l0.06325,-0.22532c0,-0.48621 0.07214,-1.96363 0.21642,-4.43225c-0.87657,-0.03558 -1.52782,-0.05336 -1.95474,-0.05336h-0.22532c0.25892,2.74434 0.38739,4.23954 0.38739,4.48561l-3.02599,0.44965c-0.11464,-0.38344 -0.78664,-3.97173 -2.01798,-10.7629c0,-0.19271 0.46843,-0.34292 1.40528,-0.45064c1.18292,-0.33699 2.05949,-0.50499 2.6297,-0.50499z" data-paper-data="{&quot;origPos&quot;:null}" fill="#000000"/><path d="M118.82624,192.35155c2.71963,1.39935 4.22768,2.21563 4.52119,2.44984c-0.39035,1.82528 -0.6216,2.76509 -0.69276,2.81944h-5.69324v0.09882l1.59403,1.97252l2.5042,-1.27878c0.24607,0.42692 0.60085,1.17106 1.06334,2.23441c-0.21642,0.07214 -1.79266,0.3024 -4.72872,0.69276c-2.43205,-1.60292 -3.65747,-2.43798 -3.67526,-2.50321c0.39035,-3.1169 0.6216,-4.67536 0.69374,-4.67536c2.53977,-1.08113 4.01126,-1.68396 4.41347,-1.81045zM118.24022,194.53161c-0.04744,0.11958 -0.36565,0.5969 -0.95464,1.43196c0,0.252 0.35478,0.3785 1.06334,0.3785c0,0.03558 0.5129,0.12254 1.53968,0.26089c0.28264,-0.39035 0.42395,-0.61864 0.42395,-0.68485c-0.08993,-0.53365 -0.2856,-0.80146 -0.58603,-0.80146z" data-paper-data="{&quot;origPos&quot;:null}" fill="#000000"/><path d="M132.28309,192.35155c2.70777,0.51092 4.1259,0.80146 4.2514,0.8736v0.10871c-0.58207,1.64542 -0.8736,2.49728 -0.8736,2.55756h-0.05435c-0.15021,0 -0.87657,-0.23421 -2.17907,-0.70264c-0.72734,1.21949 -1.09003,1.87074 -1.09003,1.95474l1.80156,1.74721c1.39243,-1.30843 2.10099,-1.96363 2.1257,-1.96363c1.08607,1.42306 1.62961,2.22255 1.62961,2.39648c-0.59393,0.34193 -1.62961,1.01492 -3.10702,2.01699c-2.85799,-0.61765 -4.40161,-0.96353 -4.6299,-1.03567l-1.41417,-4.57554z" data-paper-data="{&quot;origPos&quot;:null}" fill="#2b70c2"/><path d="M140.16429,192.34264c3.56754,0.49214 5.35032,0.79553 5.35032,0.91017c1.40528,1.20664 2.10791,1.85196 2.10791,1.93596c-0.57021,1.78377 -0.89436,2.86787 -0.97243,3.25229c0.57021,1.26692 0.89436,2.02292 0.97243,2.269c0,0.07214 -0.93092,0.26485 -2.79177,0.57713c-0.02471,-0.10278 -0.19567,-0.33007 -0.51388,-0.68485c-2.57041,0.49214 -3.95394,0.73821 -4.15258,0.73821l-1.36871,-3.70194l3.01709,-1.59403c0.48621,0.07807 1.24617,0.1176 2.27888,0.1176c0,-0.13242 0.01779,-0.53167 0.05435,-1.19873c-0.17393,0 -1.72942,0.11464 -4.66547,0.34292l-0.05435,-0.1176c0.40814,-1.89742 0.65421,-2.84613 0.73821,-2.84613zM142.03799,197.63863c0,0.06621 0.19271,0.76885 0.57614,2.10791h0.05435c0.75699,-0.49214 1.13549,-0.81628 1.13549,-0.97243l0.11661,-0.96353c-0.14428,0 -0.77181,-0.05732 -1.88259,-0.17195z" data-paper-data="{&quot;origPos&quot;:null}" fill="#2b70c2"/><path d="M155.75671,192.34264c1.72942,1.10485 2.68406,1.74128 2.86391,1.90928c-0.62457,1.38749 -0.98132,2.08123 -1.07224,2.08123l-3.27799,-1.90038h-0.1176c0,0.05929 -0.14132,0.39628 -0.42297,1.008c3.02006,1.62763 4.53008,2.46269 4.53008,2.5042c-0.84593,1.9577 -1.32325,2.99041 -1.43196,3.09912l-5.125,0.29647c-1.99328,-1.32029 -3.06552,-2.01699 -3.21573,-2.08914v-0.05435c0,-0.15021 0.29746,-0.82518 0.89139,-2.02688l3.9994,2.08123l0.29746,-1.18885c-2.47356,-1.11078 -3.94505,-1.80452 -4.41347,-2.08123v-0.12551c0,-0.22828 0.47732,-1.24024 1.43196,-3.03587z" data-paper-data="{&quot;origPos&quot;:null}" fill="#2b70c2"/><path d="M162.20596,189.62202l3.96284,0.70264l-0.3785,3.00919c0.78664,-0.04249 1.36377,-0.06325 1.72942,-0.06325h0.57713l0.12551,-0.06325l0.06325,0.12649c-0.12649,1.82528 -0.23421,2.85206 -0.32414,3.08034l-0.12649,-0.07214c-0.08993,0 -0.90029,-0.04249 -2.43205,-0.12649c-0.084,1.4112 -0.14725,3.09912 -0.18875,5.06275l-0.12649,0.06226c-1.93299,-0.12551 -3.08627,-0.23421 -3.45883,-0.32414l0.06325,-0.252c0,-0.52278 0.084,-2.14349 0.252,-4.86411c-1.62071,-0.08993 -2.43205,-0.19765 -2.43205,-0.32414c0.084,-2.00514 0.19271,-3.0082 0.32513,-3.0082l2.36881,0.45064v-0.77478c0,-0.6305 -0.02471,-1.48335 -0.07214,-2.55855c0.04744,0 0.07214,-0.02075 0.07214,-0.06325z" data-paper-data="{&quot;origPos&quot;:null}" fill="#2b70c2"/><path d="M169.24024,189.63093c1.83812,0.03656 3.18608,0.05435 4.04486,0.05435c0.07807,0 0.31525,3.68712 0.71153,11.06135c-0.30635,0.07807 -1.37563,0.27572 -3.20683,0.59393c-0.08993,0 -0.38739,-2.25714 -0.89139,-6.77339c-0.04249,-0.10772 -0.26188,-1.75313 -0.65817,-4.93625z" data-paper-data="{&quot;origPos&quot;:null}" fill="#2b70c2"/><path d="M180.11185,192.35155c2.72062,1.39935 4.22768,2.21563 4.52218,2.44984c-0.39035,1.82528 -0.6216,2.76509 -0.69374,2.81944h-5.69225v0.09882l1.59403,1.97252l2.5042,-1.27878c0.24607,0.42692 0.60085,1.17106 1.06236,2.23441c-0.21544,0.07214 -1.79168,0.3024 -4.72872,0.69276c-2.43205,-1.60292 -3.65648,-2.43798 -3.67526,-2.50321c0.39035,-3.1169 0.6216,-4.67536 0.69374,-4.67536c2.54076,-1.08113 4.01126,-1.68396 4.41347,-1.81045zM179.52681,194.53161c-0.04842,0.11958 -0.36664,0.5969 -0.95464,1.43196c0,0.252 0.35379,0.3785 1.06236,0.3785c0,0.03558 0.51388,0.12254 1.54066,0.26089c0.28264,-0.39035 0.42297,-0.61864 0.42297,-0.68485c-0.08993,-0.53365 -0.28461,-0.80146 -0.58504,-0.80146z" data-paper-data="{&quot;origPos&quot;:null}" fill="#2b70c2"/><path d="M189.4171,189.95606l0.03558,0.07214c-0.59986,5.3019 -0.93685,8.08774 -1.00899,8.35852c-1.27285,-0.12057 -2.07728,-0.20457 -2.41328,-0.252v-0.03656l-0.57713,-7.53038c0.14428,-0.04744 1.46556,-0.252 3.96382,-0.61172zM185.84956,198.56657c0.04249,0.02372 0.97934,0.09586 2.81055,0.21642l0.03656,0.07214c-0.28264,1.65728 -0.4625,2.48542 -0.54057,2.48542h-2.09012c-0.07214,0 -0.168,-0.82814 -0.28758,-2.48542c-0.02471,0 -0.03656,-0.07214 -0.03656,-0.21642c0.07214,-0.02372 0.10772,-0.04842 0.10772,-0.07214z" data-paper-data="{&quot;origPos&quot;:null}" fill="#000000"/></g><text transform="translate(34,156.40423) scale(0.3438,0.3438)" font-size="40" xml:space="preserve" data-paper-data="{&quot;origPos&quot;:null}" fill="#d1d1d1" fill-rule="nonzero" stroke="#000000" stroke-width="10" stroke-linecap="butt" stroke-linejoin="miter" stroke-miterlimit="10" stroke-dasharray="" stroke-dashoffset="0" font-family="Sans Serif" font-weight="normal" text-anchor="start" style="mix-blend-mode: normal"><tspan x="0" dy="0">Toad</tspan></text><text transform="translate(34,156.40423) scale(0.3438,0.3438)" font-size="40" xml:space="preserve" data-paper-data="{&quot;origPos&quot;:null}" fill="#d1d1d1" fill-rule="nonzero" stroke="none" stroke-width="1" stroke-linecap="butt" stroke-linejoin="miter" stroke-miterlimit="10" stroke-dasharray="" stroke-dashoffset="0" font-family="Sans Serif" font-weight="normal" text-anchor="start" style="mix-blend-mode: normal"><tspan x="0" dy="0">Toad</tspan></text></g></g></svg>