<svg version="1.1" xmlns="http://www.w3.org/2000/svg" xmlns:xlink="http://www.w3.org/1999/xlink" width="191" height="246.85849" viewBox="0,0,191,246.85849"><defs><linearGradient x1="257.40305" y1="174.17138" x2="257.40305" y2="216.53953" gradientUnits="userSpaceOnUse" id="color-1"><stop offset="0" stop-color="#15cf5b"/><stop offset="1" stop-color="#11a642"/></linearGradient><linearGradient x1="238.91394" y1="191.51649" x2="238.91394" y2="221.25223" gradientUnits="userSpaceOnUse" id="color-2"><stop offset="0" stop-color="#15cf5b"/><stop offset="1" stop-color="#11a642"/></linearGradient><linearGradient x1="276.00288" y1="190.8288" x2="276.00288" y2="220.56454" gradientUnits="userSpaceOnUse" id="color-3"><stop offset="0" stop-color="#15cf5b"/><stop offset="1" stop-color="#11a642"/></linearGradient></defs><g transform="translate(-158,-58.64151)"><g data-paper-data="{&quot;isPaintingLayer&quot;:true}" fill-rule="nonzero" stroke="none" stroke-linejoin="miter" stroke-miterlimit="10" stroke-dasharray="" stroke-dashoffset="0" style="mix-blend-mode: normal"><g><path d="M253.44093,174.17138h7.92424v42.36815h-7.92424z" fill="url(#color-1)" stroke-width="0.97987" stroke-linecap="butt"/><path d="M257.15754,132.30662c10.43567,0 19.89139,2.86594 26.73733,7.49581c6.84766,4.62814 11.08554,11.02193 11.08554,18.07761c0,7.05569 -4.23788,13.44947 -11.08554,18.07761c-6.84594,4.62986 -16.30166,7.49581 -26.73733,7.49581c-10.43567,0 -19.89139,-2.86594 -26.73733,-7.49581c-6.84766,-4.62814 -11.08554,-11.02193 -11.08554,-18.07761c0,-7.05569 4.23788,-13.44947 11.08554,-18.07761c6.84594,-4.62986 16.30166,-7.49581 26.73733,-7.49581z" fill="#4bbbff" stroke-width="1" stroke-linecap="butt"/><path d="M257.00127,137.67781c8.42006,0 16.04962,2.31252 21.57331,6.04822c5.52523,3.73415 8.94459,8.89319 8.94459,14.58605c0,5.69303 -3.41936,10.8519 -8.94459,14.58622c-5.52369,3.7357 -13.15325,6.04822 -21.57331,6.04822c-8.42023,0 -16.04979,-2.31252 -21.57348,-6.04822c-5.52523,-3.73432 -8.94459,-8.89319 -8.94459,-14.58622c0,-5.69286 3.41936,-10.8519 8.94459,-14.58605c5.52369,-3.7357 13.15325,-6.04822 21.57348,-6.04822z" fill="#a5e8ff" stroke-width="0.80687" stroke-linecap="butt"/><path d="M257.29697,142.82258c6.39224,0 12.18412,1.7555 16.37748,4.59135c4.19456,2.835 6.79041,6.75138 6.79041,11.07333c0,4.32178 -2.59585,8.23817 -6.79041,11.07316c-4.19335,2.83586 -9.98524,4.59135 -16.37748,4.59135c-6.39224,0 -12.18412,-1.7555 -16.37765,-4.59135c-4.19438,-2.835 -6.79024,-6.75138 -6.79024,-11.07316c0,-4.32195 2.59585,-8.23834 6.79024,-11.07333c4.19353,-2.83586 9.98541,-4.59135 16.37765,-4.59135z" fill="#ffffff" stroke-width="0.61254" stroke-linecap="butt"/><g stroke-width="1"><path d="M250.28066,151.47594c0.9215,0.02235 1.82409,0.79772 2.19717,1.64014c0.73583,1.65733 0.98339,3.29747 0.98339,5.40867c0,2.1112 -0.22694,3.76681 -0.98339,5.40867c-0.40402,0.88196 -1.38741,1.57137 -2.36909,1.55418c-0.91291,0.01719 -1.92209,-0.63267 -2.36909,-1.55418c-0.79428,-1.62295 -0.98339,-3.29747 -0.98339,-5.40867c0,-2.1112 0.15989,-3.7926 0.98339,-5.40867c0.47279,-0.93354 1.55074,-1.61779 2.54101,-1.64014z" fill="#000000" stroke-linecap="round"/><path d="M250.10873,152.76535c0.47451,0 0.90431,0.19255 1.21549,0.50373c0.31118,0.31118 0.50373,0.74098 0.50373,1.21549c0,0.47451 -0.19255,0.90431 -0.50373,1.21549c-0.31118,0.31118 -0.74098,0.50373 -1.21549,0.50373c-0.47451,0 -0.90431,-0.19255 -1.21549,-0.50373c-0.31118,-0.31118 -0.50373,-0.74098 -0.50373,-1.21549c0,-0.47451 0.19255,-0.90431 0.50373,-1.21549c0.31118,-0.31118 0.74098,-0.50373 1.21549,-0.50373z" fill="#ffffff" stroke-linecap="butt"/></g><g stroke-width="1"><path d="M263.86251,151.5619c0.9215,0.02235 1.82409,0.79772 2.19717,1.64014c0.73583,1.65733 0.98339,3.29747 0.98339,5.40867c0,2.1112 -0.22694,3.76681 -0.98339,5.40867c-0.40402,0.88196 -1.38741,1.57137 -2.36909,1.55418c-0.91291,0.01719 -1.92209,-0.63267 -2.36909,-1.55418c-0.79428,-1.62295 -0.98339,-3.29747 -0.98339,-5.40867c0,-2.1112 0.15989,-3.7926 0.98339,-5.40867c0.47279,-0.93354 1.55074,-1.61779 2.54101,-1.64014z" fill="#000000" stroke-linecap="round"/><path d="M263.69059,152.85132c0.47451,0 0.90431,0.19255 1.21549,0.50373c0.31118,0.31118 0.50373,0.74098 0.50373,1.21549c0,0.47451 -0.19255,0.90431 -0.50373,1.21549c-0.31118,0.31118 -0.74098,0.50373 -1.21549,0.50373c-0.47451,0 -0.90431,-0.19255 -1.21549,-0.50373c-0.31118,-0.31118 -0.50373,-0.74098 -0.50373,-1.21549c0,-0.47451 0.19255,-0.90431 0.50373,-1.21549c0.31118,-0.31118 0.74098,-0.50373 1.21549,-0.50373z" fill="#ffffff" stroke-linecap="butt"/></g><path d="M244.95502,196.80322c4.97611,3.13758 8.80757,7.05551 10.98118,10.84863c2.17344,3.79312 2.68422,7.4628 1.01726,10.10662c-1.66696,2.64382 -5.19824,3.76475 -9.55784,3.43879c-4.3596,-0.32596 -9.54649,-2.09418 -14.52261,-5.23176c-4.97629,-3.13758 -8.80774,-7.05551 -10.98118,-10.84863c-2.17361,-3.79329 -2.68439,-7.4628 -1.01744,-10.10662c1.66696,-2.64382 5.19824,-3.76475 9.55784,-3.43879c4.3596,0.32596 9.54649,2.09418 14.52278,5.23176z" fill="url(#color-2)" stroke-width="2.05882" stroke-linecap="butt"/><path d="M284.48457,190.88376c4.3596,-0.32596 7.89088,0.79497 9.55784,3.43879c1.66696,2.64382 1.15618,6.31333 -1.01744,10.10662c-2.17344,3.79312 -6.0049,7.71105 -10.98118,10.84863c-4.97611,3.13758 -10.16301,4.9058 -14.52261,5.23176c-4.3596,0.32596 -7.89088,-0.79497 -9.55784,-3.43879c-1.66696,-2.64382 -1.15618,-6.3135 1.01726,-10.10662c2.17361,-3.79312 6.00507,-7.71105 10.98118,-10.84863c4.97629,-3.13758 10.16318,-4.9058 14.52278,-5.23176z" fill="url(#color-3)" stroke-width="2.05882" stroke-linecap="butt"/></g><path d="M158,305.5v-246.85849h191v246.85849z" fill="none" stroke-width="0" stroke-linecap="butt"/><path d="M158,305.5v-246.85849h191v246.85849z" fill="none" stroke-width="0" stroke-linecap="butt"/></g></g></svg>