<svg version="1.1" xmlns="http://www.w3.org/2000/svg" xmlns:xlink="http://www.w3.org/1999/xlink" width="565.48865" height="74.88074" viewBox="0,0,565.48865,74.88074"><defs><linearGradient x1="80.5942" y1="318.6171" x2="84.876" y2="356.1437" gradientUnits="userSpaceOnUse" id="color-1"><stop offset="0" stop-color="#00ffff"/><stop offset="1" stop-color="#00ffff" stop-opacity="0"/></linearGradient><linearGradient x1="84.5852" y1="314.4009" x2="84.5852" y2="355.02874" gradientUnits="userSpaceOnUse" id="color-2"><stop offset="0" stop-color="#00ffff"/><stop offset="1" stop-color="#00ffff" stop-opacity="0"/></linearGradient><linearGradient x1="92.7978" y1="309.5786" x2="93.1179" y2="323.5749" gradientUnits="userSpaceOnUse" id="color-3"><stop offset="0" stop-color="#b2b2b2"/><stop offset="1" stop-color="#666666"/></linearGradient><linearGradient x1="-15.9404" y1="313.7913" x2="-14.0406" y2="351.5136" gradientUnits="userSpaceOnUse" id="color-4"><stop offset="0" stop-color="#00ffff"/><stop offset="1" stop-color="#00ffff" stop-opacity="0"/></linearGradient><linearGradient x1="-14.16712" y1="311.93785" x2="-14.16712" y2="350.65775" gradientUnits="userSpaceOnUse" id="color-5"><stop offset="0" stop-color="#00ffff"/><stop offset="1" stop-color="#00ffff" stop-opacity="0"/></linearGradient><linearGradient x1="-3.1894" y1="305.582" x2="-3.7552" y2="319.5705" gradientUnits="userSpaceOnUse" id="color-6"><stop offset="0" stop-color="#b2b2b2"/><stop offset="1" stop-color="#666666"/></linearGradient><linearGradient x1="196.0442" y1="317.8171" x2="200.326" y2="355.3437" gradientUnits="userSpaceOnUse" id="color-7"><stop offset="0" stop-color="#00ffff"/><stop offset="1" stop-color="#00ffff" stop-opacity="0"/></linearGradient><linearGradient x1="200.0352" y1="313.6009" x2="200.0352" y2="354.22874" gradientUnits="userSpaceOnUse" id="color-8"><stop offset="0" stop-color="#00ffff"/><stop offset="1" stop-color="#00ffff" stop-opacity="0"/></linearGradient><linearGradient x1="208.2478" y1="308.7786" x2="208.5679" y2="322.7749" gradientUnits="userSpaceOnUse" id="color-9"><stop offset="0" stop-color="#b2b2b2"/><stop offset="1" stop-color="#666666"/></linearGradient><radialGradient cx="454.6858" cy="335.5332" r="269.8654" gradientUnits="userSpaceOnUse" id="color-10"><stop offset="0" stop-color="#6681bd"/><stop offset="1" stop-color="#45577f"/></radialGradient><radialGradient cx="419.7281" cy="298.3784" r="335.2474" gradientUnits="userSpaceOnUse" id="color-11"><stop offset="0" stop-color="#45577f"/><stop offset="1" stop-color="#1f283a"/></radialGradient><radialGradient cx="419.72811" cy="296.43883" r="329.25269" gradientUnits="userSpaceOnUse" id="color-12"><stop offset="0" stop-color="#45577f"/><stop offset="1" stop-color="#1f283a"/></radialGradient></defs><g transform="translate(14.16712,-292.38062)"><g data-paper-data="{&quot;isPaintingLayer&quot;:true}" fill-rule="nonzero" stroke-linejoin="miter" stroke-miterlimit="10" stroke-dasharray="" stroke-dashoffset="0" style="mix-blend-mode: normal"><g stroke-width="0"><path d="M133.0782,318.1596c3.9564,1.3515 2.3186,1.7371 11.9428,5.4915c6.3905,4.9935 10.4895,10.4701 14.5454,15.9043c1.0143,1.3586 0.8997,2.7656 0.4825,4.2289c-0.1047,0.3657 -1.1772,0.7471 -1.998,1.0847c-2.7948,1.1495 -3.979,2.6414 -8.8109,3.3615c-19.3289,2.8806 -39.2148,5.3128 -58.6465,6.6916c-4.8577,0.3448 -6.4685,-0.0924 -5.899,-2.1115c2.2782,-8.0761 7.6528,-16.3994 13.4524,-24.6679c2.331,-3.3235 6.1252,-6.7226 10.8798,-10.0233c1.9595,-1.3603 5.0079,-3.7151 9.1237,-3.7185c7.1289,0.0222 10.5678,2.2734 14.9278,3.7587z" fill="url(#color-1)" stroke="url(#color-2)" stroke-linecap="round"/><path d="M92.7978,309.5786l57.068,-1.3052l0.32,13.9964l-57.0679,1.3051z" fill="url(#color-3)" stroke="none" stroke-linecap="butt"/></g><g stroke-width="0"><path d="M36.4674,316.6541c3.8631,1.599 2.2041,1.8803 11.5716,6.2359c6.0619,5.3876 9.8063,11.1125 13.5104,16.7924c0.9264,1.42 0.723,2.8169 0.2141,4.2508c-0.1276,0.3585 -1.2221,0.6712 -2.0626,0.9563c-2.8619,0.9704 -4.1381,2.3844 -9.0059,2.7974c-19.4724,1.6524 -39.4722,2.822 -58.9523,2.9691c-4.8698,0.0369 -6.4497,-0.5012 -5.7536,-2.4803c2.7844,-7.9158 8.6746,-15.8826 14.9856,-23.7677c2.5365,-3.1695 6.5381,-6.3218 11.4919,-9.3152c2.0416,-1.2336 5.2328,-3.3909 9.3407,-3.1339c7.1132,0.4729 10.4028,2.9371 14.6601,4.6952z" fill="url(#color-4)" stroke="url(#color-5)" stroke-linecap="round"/><path d="M-3.1894,305.582l57.0363,2.3067l-0.5658,13.9886l-57.0363,-2.3068z" fill="url(#color-6)" stroke="none" stroke-linecap="butt"/></g><g stroke-width="0"><path d="M248.5282,317.3596c3.9564,1.3515 2.3186,1.7371 11.9428,5.4915c6.3905,4.9935 14.5454,15.9043 14.5454,15.9043l0.4825,4.2289l-1.998,1.0847c0,0 -3.979,2.6414 -8.8109,3.3615c-19.3289,2.8806 -39.2148,5.3128 -58.6465,6.6916c-4.8577,0.3448 -6.4685,-0.0924 -5.899,-2.1115c2.2782,-8.0761 7.6528,-16.3994 13.4524,-24.6679c2.331,-3.3235 6.1252,-6.7226 10.8798,-10.0233c1.9595,-1.3603 5.0079,-3.7151 9.1237,-3.7185c7.1289,0.0222 10.5678,2.2734 14.9278,3.7587z" fill="url(#color-7)" stroke="url(#color-8)" stroke-linecap="round"/><path d="M208.2478,308.7786l57.068,-1.3052l0.32,13.9964l-57.0679,1.3051z" fill="url(#color-9)" stroke="none" stroke-linecap="butt"/></g><path d="M283.9,312.7191h259.4741v53.6171h-259.4741z" fill="url(#color-10)" stroke="#496087" stroke-width="1.85033" stroke-linecap="butt"/><path d="M412.2087,295.2l137.8456,4l-9.7302,20l-38.0233,20.501l-47.9275,-20.501l-43.7863,29l-46.4891,-30l-45.2247,21.501l-38.0232,-20.501l-7.568,-26z" fill="url(#color-11)" stroke="url(#color-12)" stroke-width="1.60762" stroke-linecap="round"/></g></g></svg>