<svg version="1.1" xmlns="http://www.w3.org/2000/svg" xmlns:xlink="http://www.w3.org/1999/xlink" width="114.38652" height="41.98037" viewBox="0,0,114.38652,41.98037"><defs><linearGradient x1="277.7455" y1="158.40303" x2="277.7455" y2="200.37209" gradientUnits="userSpaceOnUse" id="color-1"><stop offset="0" stop-color="#dfd634"/><stop offset="1" stop-color="#c6be31"/></linearGradient><linearGradient x1="205.32804" y1="158.40303" x2="205.32804" y2="200.37209" gradientUnits="userSpaceOnUse" id="color-2"><stop offset="0" stop-color="#dfd634"/><stop offset="1" stop-color="#c6be31"/></linearGradient><linearGradient x1="241.16666" y1="158.42031" x2="241.16666" y2="200.3834" gradientUnits="userSpaceOnUse" id="color-3"><stop offset="0" stop-color="#dfd634"/><stop offset="1" stop-color="#c6be31"/></linearGradient><linearGradient x1="276.34335" y1="162.41203" x2="276.34335" y2="196.46729" gradientUnits="userSpaceOnUse" id="color-4"><stop offset="0" stop-color="#ede43b"/><stop offset="1" stop-color="#c3bc31"/></linearGradient></defs><g transform="translate(-184.34351,-158.40303)"><g data-paper-data="{&quot;isPaintingLayer&quot;:true}" fill-rule="nonzero" stroke-linecap="butt" stroke-linejoin="miter" stroke-miterlimit="10" stroke-dasharray="" stroke-dashoffset="0" style="mix-blend-mode: normal"><g data-paper-data="{&quot;index&quot;:null}" stroke="#000000" stroke-width="0"><path d="M277.7455,200.37209c-11.58944,0 -20.98453,-9.39509 -20.98453,-20.98453c0,-11.58944 9.39509,-20.98453 20.98453,-20.98453c11.58944,0 20.98453,9.39509 20.98453,20.98453c0,11.58944 -9.39509,20.98453 -20.98453,20.98453z" data-paper-data="{&quot;origPos&quot;:null,&quot;index&quot;:null}" fill="url(#color-1)"/><path d="M205.32804,200.37209c-11.58944,0 -20.98453,-9.3951 -20.98453,-20.98453c0,-11.58944 9.3951,-20.98453 20.98453,-20.98453c11.58944,0 20.98453,9.3951 20.98453,20.98453c0,11.58944 -9.3951,20.98453 -20.98453,20.98453z" data-paper-data="{&quot;origPos&quot;:null,&quot;index&quot;:null}" fill="url(#color-2)"/><path d="M205.08962,200.3834v-41.96308h72.15408v41.96308z" data-paper-data="{&quot;origPos&quot;:null,&quot;index&quot;:null}" fill="url(#color-3)"/></g><g><path d="M276.34335,162.41203c4.69771,0 8.95515,1.90752 12.0371,4.99053c3.08301,3.08195 4.99053,7.33939 4.99053,12.0371c0,4.69771 -1.90752,8.95515 -4.99053,12.0371c-3.08195,3.08301 -7.33939,4.99053 -12.0371,4.99053c-4.69771,0 -8.95515,-1.90752 -12.0371,-4.99053c-3.08301,-3.08195 -4.99053,-7.33939 -4.99053,-12.0371c0,-4.69771 1.90752,-8.95515 4.99053,-12.0371c3.08195,-3.08301 7.33939,-4.99053 12.0371,-4.99053z" data-paper-data="{&quot;origPos&quot;:null}" fill="url(#color-4)" stroke="#8b8c23" stroke-width="1.25"/><g data-paper-data="{&quot;origPos&quot;:null}" fill="none" stroke="#8b8c23" stroke-width="2.5"><path d="M274.46947,178.01839h3.675v11.9175h-3.675z"/><path d="M276.30327,169.49429c0.5868,0 1.1178,0.2381 1.5029,0.6233c0.3852,0.3852 0.6233,0.9161 0.6233,1.503c0,0.5868 -0.2381,1.1178 -0.6233,1.5029c-0.3851,0.3852 -0.9161,0.6233 -1.5029,0.6233c-0.5869,0 -1.1178,-0.2381 -1.503,-0.6233c-0.3852,-0.3851 -0.6233,-0.9161 -0.6233,-1.5029c0,-0.5869 0.2381,-1.1178 0.6233,-1.503c0.3852,-0.3852 0.9161,-0.6233 1.503,-0.6233z"/></g><g fill="#ffffff" stroke="none"><path d="M274.46947,178.01839h3.675v11.9175h-3.675z" stroke-width="0.94663"/><path d="M276.30327,169.49429c0.5868,0 1.1178,0.2381 1.5029,0.6233c0.3852,0.3852 0.6233,0.9161 0.6233,1.503c0,0.5868 -0.2381,1.1178 -0.6233,1.5029c-0.3851,0.3852 -0.9161,0.6233 -1.5029,0.6233c-0.5869,0 -1.1178,-0.2381 -1.503,-0.6233c-0.3852,-0.3851 -0.6233,-0.9161 -0.6233,-1.5029c0,-0.5869 0.2381,-1.1178 0.6233,-1.503c0.3852,-0.3852 0.9161,-0.6233 1.503,-0.6233z" stroke-width="1.215"/></g></g><text transform="translate(198.77983,189.61372) scale(0.69573,0.69573)" font-size="40" xml:space="preserve" data-paper-data="{&quot;index&quot;:null}" fill="#f7f7f7" fill-rule="nonzero" stroke="none" stroke-width="1" stroke-linecap="butt" stroke-linejoin="miter" stroke-miterlimit="10" stroke-dasharray="" stroke-dashoffset="0" font-family="&quot;Microsoft YaHei&quot;, &quot;微软雅黑&quot;, STXihei, &quot;华文细黑&quot;" font-weight="normal" text-anchor="start" style="mix-blend-mode: normal"><tspan x="0" dy="0">Info</tspan></text></g></g></svg>