<svg xmlns="http://www.w3.org/2000/svg" xmlns:xlink="http://www.w3.org/1999/xlink" version="1.1" width="10.403363227844238" height="25.392431259155273" viewBox="-0.07049998641014099 0.30730003118515015 10.403363227844238 25.392431259155273">
  <defs>
    <radialGradient id="grad_1" cx="0.35600000000000004" cy="0.1745" r="1.07315">
      <stop offset="0" stop-color="#BDA001" stop-opacity="1"/>
      <stop offset="1" stop-color="#BE7800" stop-opacity="1"/>
    </radialGradient>
    <radialGradient id="grad_2" cx="0.2347" cy="0.1814" r="1.0641800000000001">
      <stop offset="0" stop-color="#FFFF00" stop-opacity="1"/>
      <stop offset="1" stop-color="#FF9400" stop-opacity="1"/>
    </radialGradient>
    <radialGradient id="grad_3" cx="0.2173" cy="0.172" r="1.0764">
      <stop offset="0" stop-color="#BDA501" stop-opacity="1"/>
      <stop offset="1" stop-color="#C07801" stop-opacity="1"/>
    </radialGradient>
  <radialGradient id="grad_1-.21019943058490753,0,0,0.4802761375904083,-46.8,-74.15" cx="4.2114" cy="5.4695" r="18.233" gradientUnits="userSpaceOnUse">
      <stop offset="0" stop-color="#BDA001" stop-opacity="1"/>
      <stop offset="1" stop-color="#BE7800" stop-opacity="1"/>
    </radialGradient><radialGradient id="grad_2-.11442165076732635,0,0,0.4802761375904083,-24.4,-74.5" cx="1.791" cy="5.2244" r="18.8359" gradientUnits="userSpaceOnUse">
      <stop offset="0" stop-color="#FFFF00" stop-opacity="1"/>
      <stop offset="1" stop-color="#FF9400" stop-opacity="1"/>
    </radialGradient><radialGradient id="grad_3-.18911531567573547,0,0,0.4802761375904083,-42.65,-74.1" cx="2.5295" cy="7.0168" r="10.8248" gradientUnits="userSpaceOnUse">
      <stop offset="0" stop-color="#BDA501" stop-opacity="1"/>
      <stop offset="1" stop-color="#C07801" stop-opacity="1"/>
    </radialGradient></defs>
  <!-- Exported by Scratch - http://scratch.mit.edu/ -->
  <path id="ID0.7142658131197095" fill="url(#grad_1-.21019943058490753,0,0,0.4802761375904083,-46.8,-74.15)" stroke="none" d="M 4.2574 1.3254 C 5.6937 1.5084 7.3648 2.1784 8.5035 4.3751 C 9.4187 6.3049 9.7462 9.6034 9.8172 12.4918 C 9.8897 15.6328 9.739 19.487 8.7557 21.6171 C 7.5582 24.2149 5.6591 24.1889 4.0262 25.027 C 3.5747 25.259 3.0513 25.3128 2.6389 24.8349 C 2.1716 24.2936 1.7039 23.6083 1.6299 22.0493 C 1.2884 15.9757 0.72 9.5463 1.4828 3.6067 C 1.7592 1.4536 3.2745 1.1991 4.2574 1.3254 Z " stroke-width="0.37070808526182714"/>
  <path id="ID0.7142658131197095" fill="url(#grad_2-.11442165076732635,0,0,0.4802761375904083,-24.4,-74.5)" stroke="none" d="M 3.3301 0.8073 C 4.1304 0.8073 4.8554 2.1718 5.3805 4.3758 C 5.9056 6.5797 6.2307 9.6232 6.2307 12.9823 C 6.2307 16.3413 5.9056 19.3849 5.3805 21.5888 C 4.8554 23.7928 4.1304 25.1573 3.3301 25.1573 C 2.5298 25.1573 1.8047 23.7928 1.2797 21.5888 C 0.7546 19.3849 0.4295 16.3413 0.4295 12.9823 C 0.4295 9.6232 0.7546 6.5797 1.2797 4.3758 C 1.8047 2.1718 2.5298 0.8073 3.3301 0.8073 Z " stroke-width="0.3491113593848536"/>
  <path id="ID0.06001657713204622" fill="url(#grad_3-.18911531567573547,0,0,0.4802761375904083,-42.65,-74.1)" stroke="none" d="M 2.246 3.8488 L 3.5509 3.8488 L 3.5509 22.2674 L 2.246 22.2674 L 2.246 3.8488 Z " stroke-width="0.3649861442314584"/>
</svg>