<svg version="1.1" xmlns="http://www.w3.org/2000/svg" xmlns:xlink="http://www.w3.org/1999/xlink" width="108.03317" height="146.01076" viewBox="0,0,108.03317,146.01076"><g transform="translate(-185.10493,-106.9343)"><g data-paper-data="{&quot;isPaintingLayer&quot;:true}" fill="none" fill-rule="nonzero" stroke="none" stroke-width="0" stroke-linecap="butt" stroke-linejoin="miter" stroke-miterlimit="10" stroke-dasharray="" stroke-dashoffset="0" font-family="none" font-weight="none" font-size="none" text-anchor="none" style="mix-blend-mode: normal"><g data-paper-data="{&quot;origPos&quot;:null,&quot;origRot&quot;:0}"><path d="M274.94392,231.22228c3.13013,4.00797 4.7927,5.56602 -6.1804,13.95556c-9.45836,7.23145 -10.97851,7.37001 -14.4658,3.3465c-2.26749,-2.61613 1.01107,-8.74055 6.7518,-13.2239c5.74071,-4.48335 11.76424,-6.80574 13.8944,-4.07817z" data-paper-data="{&quot;origPos&quot;:null}" fill="#f3c08d"/><path d="M274.01022,227.38708c3.27413,4.19237 5.58582,7.2695 -6.24682,16.5105c-12.38138,9.66954 -14.2179,5.92685 -17.49204,1.73447c-3.27414,-4.19238 -0.52694,-12.10381 5.63534,-16.9164c6.16228,-4.81258 14.82938,-5.52094 18.10352,-1.32857z" data-paper-data="{&quot;origPos&quot;:null}" fill="#94612e"/></g><path d="M263.32033,204.40017c-0.07176,2.89866 -6.65795,9.75877 -9.25224,14.62168c-2.59429,4.86293 -2.20345,12.85331 -8.54619,8.79492c-2.75319,-1.76163 -6.98752,-7.9581 -4.39322,-12.82103c2.59429,-4.86293 22.38873,-18.55763 22.19165,-10.59556z" data-paper-data="{&quot;origRot&quot;:0,&quot;origPos&quot;:null,&quot;index&quot;:null}" fill="#ffdfc0"/><g><path d="M268.03155,221.65533c0,11.27968 -10.85849,20.42368 -24.25311,20.42368c-13.39462,0 -24.25311,-9.14399 -24.25311,-20.42368c0,-7.51824 2.21082,-13.16381 6.98859,-18.9687c4.95021,-6.01439 9.24286,-7.72132 17.03243,-7.72132c0,0 11.27942,-0.57367 16.404,5.81451c4.52483,5.64056 8.0812,9.59583 8.0812,20.87552z" data-paper-data="{&quot;origPos&quot;:null}" fill="#ffdfc0"/><path d="M267.92563,221.78153c-0.9687,11.238 -10.85848,20.42368 -24.25311,20.42368c-13.39462,0 -24.56541,-8.49958 -24.25311,-20.42368c-0.23209,-2.41232 1.65058,-5.27556 1.65058,-5.27556c0,0 15.04505,0.16964 22.83462,0.16964l23.83079,-0.21975c0,0 0.42231,2.63322 0.19023,5.32567z" data-paper-data="{&quot;origPos&quot;:null}" fill="#ffffff"/></g><g data-paper-data="{&quot;origPos&quot;:null,&quot;origRot&quot;:0}"><path d="M232.90494,249.23253c-2.87135,4.19725 -3.85249,6.2537 -15.1721,-1.6621c-9.75704,-6.8231 -10.34963,-8.22982 -7.57167,-12.77216c1.80626,-2.95349 8.6361,-1.6844 14.64793,2.4283c6.01181,4.11269 10.0499,9.14958 8.09585,12.00595z" data-paper-data="{&quot;origPos&quot;:null}" fill="#f3c08d"/><path d="M236.27704,247.18082c-3.00345,4.39036 -5.23564,7.52564 -17.62708,-0.95137c-12.96609,-8.87013 -9.95566,-11.7542 -6.9522,-16.14456c3.00346,-4.39036 11.37537,-4.16904 17.82866,0.24567c6.4533,4.41471 9.75407,12.4599 6.75062,16.85027z" data-paper-data="{&quot;origPos&quot;:null}" fill="#94612e"/></g><g><path d="M256.39407,198.07594c5.03929,0 12.47253,7.83488 12.47253,15.78193c0,7.94705 0.85579,13.92523 0.85579,13.92523c0,0 -11.03217,2.05747 -13.56341,0.81569c-4.98176,-2.44397 -2.87796,-7.89857 -2.87796,-13.81258c0,-7.94705 -1.92624,-16.71027 3.11305,-16.71027z" data-paper-data="{&quot;index&quot;:null,&quot;origPos&quot;:null}" fill="#f0cf46"/><path d="M251.20591,231.06502l-0.23209,-35.50934h6.03427l-0.40003,30.50119l13.40635,-0.13606l-0.00945,5.37629z" data-paper-data="{&quot;index&quot;:null,&quot;origPos&quot;:null}" fill="#ffef45"/></g><g data-paper-data="{&quot;origPos&quot;:null}"><path d="M233.91473,215.5884c0,5.91401 1.57799,10.67234 -3.8074,13.11631c-2.73632,1.24178 -14.17936,-1.51195 -14.17936,-1.51195c0,0 -0.11605,-4.12148 -0.11605,-12.06853c0,-7.94705 9.28996,-16.2461 14.73754,-16.2461c5.44758,0 3.36526,8.76323 3.36526,16.71027z" data-paper-data="{&quot;origPos&quot;:null}" fill="#f0cf46"/><path d="M216.04402,231.17091l-0.70571,-5.1442l14.79888,-0.09603l-0.40002,-30.50119h6.03427l-0.23209,35.50934z" data-paper-data="{&quot;origPos&quot;:null}" fill="#ffef45"/></g><path d="M243.9565,213.18683c3.82416,3.96916 1.4438,11.08672 -0.72338,13.53352c-4.99266,5.63684 -6.79968,-2.15634 -10.62384,-6.12549c-3.82416,-3.96916 -12.03399,-8.76892 -12.89492,-11.5377c-2.36483,-7.6053 20.41798,0.16053 24.24214,4.1297z" data-paper-data="{&quot;origRot&quot;:0,&quot;origPos&quot;:null}" fill="#ffdfc0"/><g data-paper-data="{&quot;origPos&quot;:null}"><g data-paper-data="{&quot;origPos&quot;:null}"><path d="M292.66391,142.88488c-0.27988,14.86686 -2.41182,21.20777 -17.04234,23.86291c-11.20256,2.03304 -43.69155,1.92729 -55.07536,2.12545c-24.88201,0.43314 -33.5683,-4.18143 -34.00144,-25.55522c-0.16943,-8.36096 1.57605,-16.5109 7.88268,-22.00279c14.77425,-12.86561 27.97727,-14.38092 46.90945,-14.38092c28.34713,0 51.85187,8.07117 51.32701,35.95057z" data-paper-data="{&quot;origPos&quot;:null}" fill="#ffffff"/><path d="M271.87324,138.29167c0,11.81622 -8.92046,21.39515 -19.92441,21.39515c-11.00395,0 -19.92441,-9.57894 -19.92441,-21.39515c0,-11.81621 8.92046,-21.39515 19.92441,-21.39515c11.00395,0 19.92441,9.57894 19.92441,21.39515z" data-paper-data="{&quot;origPos&quot;:null}" fill="#ffef45"/><path d="M185.46481,151.22159c-0.34672,-5.14109 -1.03439,-6.63717 1.41495,-16.4022c0.14748,-3.90451 3.60873,-9.04402 3.60873,-9.04402c0,0 11.06791,1.21351 15.18655,4.72352c4.83289,4.11872 5.5155,10.19882 5.9554,16.53342c0.46258,6.66118 -0.39065,10.99536 -4.58844,16.69822c-2.03304,2.76197 -2.7083,3.10776 -2.7083,3.10776c0,0 -8.10047,1.15006 -11.77158,-1.03207c-4.34643,-3.39689 -5.69883,-5.85925 -7.09731,-14.58464z" data-paper-data="{&quot;origPos&quot;:null,&quot;origRot&quot;:0}" fill="#ffef45"/><path d="M289.35753,127.37163c0,0 3.63631,1.29149 3.7779,16.01825c0.12411,12.90913 -4.1097,17.24197 -4.1097,17.24197c0,0 -7.85544,-1.31053 -7.97955,-17.5442c-0.1126,-14.72701 8.31135,-15.71602 8.31135,-15.71602z" data-paper-data="{&quot;origPos&quot;:null}" fill="#ffef45"/></g><g data-paper-data="{&quot;origPos&quot;:null}"><path d="M269.03806,180.41319c-0.53827,13.76018 -10.82953,20.09838 -24.93407,20.09838c-14.10454,0 -27.39622,-4.82791 -27.95638,-18.58722c-0.30223,-7.42385 -1.05781,-14.96044 -1.05781,-14.96044c0,0 20.35245,-2.95729 27.38231,-2.72223c13.61672,0.45531 26.73091,4.18896 26.73091,4.18896c0,0 0.13727,4.25647 -0.16496,11.98255z" data-paper-data="{&quot;origPos&quot;:null}" fill="#ffdfc0"/><path d="M249.98792,189.59111c0,0 -3.71403,3.79439 -8.67935,2.90508c-4.96532,-0.88931 -7.68122,-6.24075 -7.68122,-6.24075c0,0 4.08277,3.56916 8.03299,4.27666c3.95022,0.7075 8.32757,-0.94099 8.32757,-0.94099z" data-paper-data="{&quot;origPos&quot;:null,&quot;origRot&quot;:0}" fill="#000000"/><g data-paper-data="{&quot;origPos&quot;:null}"><path d="M256.20448,176.10523c0,3.8391 -0.94143,6.8817 -3.62678,6.95131c-2.9626,0.0768 -3.62677,-3.11221 -3.62677,-6.95131c0,-3.8391 0.80282,-6.95131 3.62677,-6.95131c2.82395,0 3.62678,3.11221 3.62678,6.95131z" data-paper-data="{&quot;origPos&quot;:null}" fill="#000000"/><path d="M255.02745,173.15461c0,1.28025 -0.56653,2.29487 -2.18251,2.31808c-1.78283,0.02561 -2.1825,-1.03784 -2.1825,-2.31808c0,-1.28025 0.48311,-2.31808 2.1825,-2.31808c1.69939,0 2.18251,1.03784 2.18251,2.31808z" data-paper-data="{&quot;origPos&quot;:null}" fill="#aaaaaa"/></g><g data-paper-data="{&quot;origPos&quot;:null}"><path d="M243.95288,176.33306c0,3.8391 -0.94143,6.8817 -3.62678,6.95131c-2.9626,0.0768 -3.62677,-3.11221 -3.62677,-6.95131c0,-3.8391 0.80282,-6.95131 3.62677,-6.95131c2.82395,0 3.62678,3.11221 3.62678,6.95131z" data-paper-data="{&quot;origPos&quot;:null}" fill="#000000"/><path d="M242.57404,173.20954c0,1.28025 -0.56653,2.29487 -2.18251,2.31808c-1.78283,0.02561 -2.18251,-1.03784 -2.18251,-2.31808c0,-1.28025 0.48312,-2.31808 2.18251,-2.31808c1.69939,0 2.18251,1.03784 2.18251,2.31808z" data-paper-data="{&quot;origPos&quot;:null}" fill="#aaaaaa"/></g></g></g></g></g></svg>