<svg version="1.1" xmlns="http://www.w3.org/2000/svg" xmlns:xlink="http://www.w3.org/1999/xlink" width="500.64711" height="376.93209" viewBox="0,0,500.64711,376.93209"><defs><linearGradient x1="240.49689" y1="-0.67224" x2="240.49689" y2="359.40956" gradientUnits="userSpaceOnUse" id="color-1"><stop offset="0" stop-color="#05234d"/><stop offset="1" stop-color="#357abe"/></linearGradient><linearGradient x1="240.49689" y1="-0.67224" x2="240.49689" y2="359.40956" gradientUnits="userSpaceOnUse" id="color-2"><stop offset="0" stop-color="#05234d"/><stop offset="1" stop-color="#357abe"/></linearGradient><linearGradient x1="240.49689" y1="-0.67224" x2="240.49689" y2="359.40956" gradientUnits="userSpaceOnUse" id="color-3"><stop offset="0" stop-color="#05234d"/><stop offset="1" stop-color="#357abe"/></linearGradient><linearGradient x1="240.49689" y1="-0.67224" x2="240.49689" y2="359.40956" gradientUnits="userSpaceOnUse" id="color-4"><stop offset="0" stop-color="#05234d"/><stop offset="1" stop-color="#357abe"/></linearGradient><linearGradient x1="240.49689" y1="-0.67224" x2="240.49689" y2="359.40956" gradientUnits="userSpaceOnUse" id="color-5"><stop offset="0" stop-color="#05234d"/><stop offset="1" stop-color="#357abe"/></linearGradient><linearGradient x1="-145.59088" y1="169.4021" x2="-145.59088" y2="363.44617" gradientUnits="userSpaceOnUse" id="color-6"><stop offset="0" stop-color="#69bdff" stop-opacity="0"/><stop offset="1" stop-color="#69bdff"/></linearGradient><linearGradient x1="-145.59088" y1="169.4021" x2="-145.59088" y2="363.44617" gradientUnits="userSpaceOnUse" id="color-7"><stop offset="0" stop-color="#69bdff" stop-opacity="0"/><stop offset="1" stop-color="#69bdff"/></linearGradient><linearGradient x1="-145.59088" y1="169.4021" x2="-145.59088" y2="363.44617" gradientUnits="userSpaceOnUse" id="color-8"><stop offset="0" stop-color="#69bdff" stop-opacity="0"/><stop offset="1" stop-color="#69bdff"/></linearGradient><linearGradient x1="-145.59088" y1="169.4021" x2="-145.59088" y2="363.44617" gradientUnits="userSpaceOnUse" id="color-9"><stop offset="0" stop-color="#69bdff" stop-opacity="0"/><stop offset="1" stop-color="#69bdff"/></linearGradient><linearGradient x1="-145.59088" y1="169.4021" x2="-145.59088" y2="363.44617" gradientUnits="userSpaceOnUse" id="color-10"><stop offset="0" stop-color="#69bdff" stop-opacity="0"/><stop offset="1" stop-color="#69bdff"/></linearGradient><linearGradient x1="-150.16341" y1="216.42397" x2="-150.16341" y2="453.76539" gradientUnits="userSpaceOnUse" id="color-11"><stop offset="0" stop-color="#1bd2f2"/><stop offset="1" stop-color="#1d557f"/></linearGradient><radialGradient cx="250.05133" cy="217.04107" r="1011.35517" gradientUnits="userSpaceOnUse" id="color-12"><stop offset="0" stop-color="#bce7f7"/><stop offset="1" stop-color="#1bafe5"/></radialGradient><linearGradient x1="-150.16341" y1="216.42397" x2="-150.16341" y2="453.76539" gradientUnits="userSpaceOnUse" id="color-13"><stop offset="0" stop-color="#1bd2f2"/><stop offset="1" stop-color="#1d557f"/></linearGradient><radialGradient cx="250.05133" cy="217.04107" r="1011.35517" gradientUnits="userSpaceOnUse" id="color-14"><stop offset="0" stop-color="#bce7f7"/><stop offset="1" stop-color="#1bafe5"/></radialGradient><linearGradient x1="-150.16341" y1="216.42397" x2="-150.16341" y2="453.76539" gradientUnits="userSpaceOnUse" id="color-15"><stop offset="0" stop-color="#1bd2f2"/><stop offset="1" stop-color="#1d557f"/></linearGradient><radialGradient cx="250.05133" cy="217.04107" r="1011.35517" gradientUnits="userSpaceOnUse" id="color-16"><stop offset="0" stop-color="#bce7f7"/><stop offset="1" stop-color="#1bafe5"/></radialGradient><linearGradient x1="-150.16341" y1="216.42397" x2="-150.16341" y2="453.76539" gradientUnits="userSpaceOnUse" id="color-17"><stop offset="0" stop-color="#1bd2f2"/><stop offset="1" stop-color="#1d557f"/></linearGradient><radialGradient cx="250.05133" cy="217.04107" r="1011.35517" gradientUnits="userSpaceOnUse" id="color-18"><stop offset="0" stop-color="#bce7f7"/><stop offset="1" stop-color="#1bafe5"/></radialGradient><radialGradient cx="262.48922" cy="238.38206" r="117.77056" gradientUnits="userSpaceOnUse" id="color-19"><stop offset="0" stop-color="#d0edff"/><stop offset="1" stop-color="#d0edff" stop-opacity="0"/></radialGradient><radialGradient cx="178.46493" cy="351.40774" r="108.34892" gradientUnits="userSpaceOnUse" id="color-20"><stop offset="0" stop-color="#d0edff"/><stop offset="1" stop-color="#d0edff" stop-opacity="0"/></radialGradient><radialGradient cx="73.94669" cy="282.39206" r="117.77056" gradientUnits="userSpaceOnUse" id="color-21"><stop offset="0" stop-color="#d0edff"/><stop offset="1" stop-color="#d0edff" stop-opacity="0"/></radialGradient><radialGradient cx="399.53046" cy="304.39706" r="94.68752" gradientUnits="userSpaceOnUse" id="color-22"><stop offset="0" stop-color="#d0edff"/><stop offset="1" stop-color="#d0edff" stop-opacity="0"/></radialGradient><linearGradient x1="99.30964" y1="180" x2="380.69037" y2="180" gradientUnits="userSpaceOnUse" id="color-23"><stop offset="0" stop-color="#c0cdd6"/><stop offset="1" stop-color="#f5faff"/></linearGradient></defs><g transform="translate(11.11617,7.02395)"><g data-paper-data="{&quot;isPaintingLayer&quot;:true}" fill-rule="nonzero" stroke-linejoin="miter" stroke-miterlimit="10" stroke-dasharray="" stroke-dashoffset="0" style="mix-blend-mode: normal"><path d="M-9.89737,359.40956c2.77225,-10.49167 1.42888,-358.38768 1.36462,-360.0818h492.75679c0.04177,1.0573 -1.033,360.0818 -1.033,360.0818z" fill="url(#color-1)" stroke="none" stroke-width="1" stroke-linecap="butt"/><path d="" fill="url(#color-2)" stroke="none" stroke-width="1" stroke-linecap="butt"/><path d="" fill="url(#color-3)" stroke="none" stroke-width="1" stroke-linecap="butt"/><path d="" fill="url(#color-4)" stroke="none" stroke-width="1" stroke-linecap="butt"/><path d="" fill="url(#color-5)" stroke="none" stroke-width="1" stroke-linecap="butt"/><path d="" fill="#8ecad1" stroke="none" stroke-width="0.5" stroke-linecap="butt"/><path d="" fill="#8ecad1" stroke="none" stroke-width="0.5" stroke-linecap="butt"/><path d="" fill="#8ecad1" stroke="none" stroke-width="0.5" stroke-linecap="butt"/><path d="" fill="#8ecad1" stroke="none" stroke-width="0.5" stroke-linecap="butt"/><path d="" fill="#8ecad1" stroke="none" stroke-width="0.5" stroke-linecap="butt"/><path d="" fill="#8ecad1" stroke="none" stroke-width="0.5" stroke-linecap="butt"/><path d="" fill="#8ecad1" stroke="none" stroke-width="0.5" stroke-linecap="butt"/><path d="M64.50477,54.14022c0,-0.2762 0.22391,-0.50012 0.50012,-0.50012c0.27621,0 0.50011,0.22391 0.50011,0.50012c0,0.2762 -0.22391,0.50012 -0.50011,0.50012c-0.27621,0 -0.50012,-0.22391 -0.50012,-0.50012z" fill="#c6e9ed" stroke="none" stroke-width="0.5" stroke-linecap="butt"/><path d="M139.52185,101.15089c0,-0.27621 0.22391,-0.50011 0.50011,-0.50011c0.27621,0 0.50012,0.22391 0.50012,0.50011c0,0.27621 -0.22392,0.50012 -0.50012,0.50012c-0.27621,0 -0.50011,-0.22391 -0.50011,-0.50012z" fill="#c6e9ed" stroke="none" stroke-width="0.5" stroke-linecap="butt"/><path d="M91.51099,109.15271c0,-0.27621 0.22391,-0.50012 0.50011,-0.50012c0.27621,0 0.50012,0.22391 0.50012,0.50012c0,0.27621 -0.22391,0.50011 -0.50012,0.50011c-0.27621,0 -0.50011,-0.22391 -0.50011,-0.50011z" fill="#c6e9ed" stroke="none" stroke-width="0.5" stroke-linecap="butt"/><path d="M195.53463,43.13772c0,-0.2762 0.22391,-0.50012 0.50011,-0.50012c0.27621,0 0.50011,0.22391 0.50011,0.50012c0,0.2762 -0.22391,0.50012 -0.50011,0.50012c-0.27621,0 -0.50011,-0.22391 -0.50011,-0.50012z" fill="#c6e9ed" stroke="none" stroke-width="0.5" stroke-linecap="butt"/><path d="" fill="#8ecad1" stroke="none" stroke-width="0.5" stroke-linecap="butt"/><path d="M112.51576,36.13611c0,-0.2762 0.22391,-0.50012 0.50012,-0.50012c0.27621,0 0.50011,0.22392 0.50011,0.50012c0,0.2762 -0.22391,0.50012 -0.50011,0.50012c-0.27621,0 -0.50012,-0.22391 -0.50012,-0.50012z" fill="#c6e9ed" stroke="none" stroke-width="0.5" stroke-linecap="butt"/><path d="M240.54485,112.15339c0,-0.27621 0.22391,-0.50011 0.50011,-0.50011c0.27621,0 0.50012,0.22391 0.50012,0.50011c0,0.27621 -0.22391,0.50012 -0.50012,0.50012c-0.27621,0 -0.50011,-0.22391 -0.50011,-0.50012z" fill="#c6e9ed" stroke="none" stroke-width="0.5" stroke-linecap="butt"/><path d="M202.53622,142.16019c0,-0.27621 0.22391,-0.50011 0.50012,-0.50011c0.27621,0 0.50012,0.22391 0.50012,0.50011c0,0.27621 -0.22391,0.50011 -0.50012,0.50011c-0.27621,0 -0.50012,-0.22391 -0.50012,-0.50011z" fill="#c6e9ed" stroke="none" stroke-width="0.5" stroke-linecap="butt"/><path d="M303.55915,148.16158c0,-0.27621 0.22391,-0.50011 0.50011,-0.50011c0.27621,0 0.50011,0.22391 0.50011,0.50011c0,0.27621 -0.22391,0.50011 -0.50011,0.50011c-0.27621,0 -0.50011,-0.22391 -0.50011,-0.50011z" fill="#c6e9ed" stroke="none" stroke-width="0.5" stroke-linecap="butt"/><path d="M272.55211,61.1418c0,-0.2762 0.22391,-0.50011 0.50011,-0.50011c0.27621,0 0.50011,0.22391 0.50011,0.50011c0,0.2762 -0.22391,0.50012 -0.50011,0.50012c-0.27621,0 -0.50011,-0.22392 -0.50011,-0.50012z" fill="#c6e9ed" stroke="none" stroke-width="0.5" stroke-linecap="butt"/><path d="M340.56759,49.13908c0,-0.2762 0.22391,-0.50012 0.50012,-0.50012c0.27621,0 0.50011,0.22391 0.50011,0.50012c0,0.2762 -0.22391,0.50012 -0.50011,0.50012c-0.27621,0 -0.50012,-0.22391 -0.50012,-0.50012z" fill="#c6e9ed" stroke="none" stroke-width="0.5" stroke-linecap="butt"/><path d="M376.57577,90.1484c0,-0.27621 0.22391,-0.50012 0.50011,-0.50012c0.27621,0 0.50011,0.22391 0.50011,0.50012c0,0.27621 -0.22391,0.50011 -0.50011,0.50011c-0.27621,0 -0.50011,-0.22391 -0.50011,-0.50011z" fill="#c6e9ed" stroke="none" stroke-width="0.5" stroke-linecap="butt"/><path d="M366.57351,175.16772c0,-0.27621 0.22391,-0.50012 0.50011,-0.50012c0.27621,0 0.50011,0.22392 0.50011,0.50012c0,0.27621 -0.22391,0.50011 -0.50011,0.50011c-0.27621,0 -0.50011,-0.22391 -0.50011,-0.50011z" fill="#c6e9ed" stroke="none" stroke-width="0.5" stroke-linecap="butt"/><path d="M462.5953,157.16359c0,-0.27621 0.22391,-0.50011 0.50011,-0.50011c0.27621,0 0.50011,0.22391 0.50011,0.50011c0,0.27621 -0.22391,0.50012 -0.50011,0.50012c-0.27621,0 -0.50011,-0.22391 -0.50011,-0.50012z" fill="#c6e9ed" stroke="none" stroke-width="0.5" stroke-linecap="butt"/><path d="M420.58576,129.15724c0,-0.27621 0.22391,-0.50011 0.50012,-0.50011c0.27621,0 0.50011,0.22391 0.50011,0.50011c0,0.27621 -0.22391,0.50011 -0.50011,0.50011c-0.27621,0 -0.50012,-0.22391 -0.50012,-0.50011z" fill="#c6e9ed" stroke="none" stroke-width="0.5" stroke-linecap="butt"/><path d="M458.5944,65.14272c0,-0.27621 0.22391,-0.50012 0.50011,-0.50012c0.27621,0 0.50011,0.22391 0.50011,0.50012c0,0.27621 -0.22391,0.50011 -0.50011,0.50011c-0.27621,0 -0.50011,-0.22391 -0.50011,-0.50011z" fill="#c6e9ed" stroke="none" stroke-width="0.5" stroke-linecap="butt"/><path d="M406.58258,36.13611c0,-0.2762 0.22391,-0.50012 0.50011,-0.50012c0.27621,0 0.50011,0.22392 0.50011,0.50012c0,0.2762 -0.22391,0.50012 -0.50011,0.50012c-0.27621,0 -0.50011,-0.22391 -0.50011,-0.50012z" fill="#c6e9ed" stroke="none" stroke-width="0.5" stroke-linecap="butt"/><path d="M280.55391,24.1334c0,-0.27621 0.22391,-0.50012 0.50011,-0.50012c0.27621,0 0.50011,0.22391 0.50011,0.50012c0,0.27621 -0.22391,0.50011 -0.50011,0.50011c-0.27621,0 -0.50011,-0.22391 -0.50011,-0.50011z" fill="#c6e9ed" stroke="none" stroke-width="0.5" stroke-linecap="butt"/><path d="M95.5119,210.17567c0,-0.27621 0.22391,-0.50011 0.50011,-0.50011c0.27621,0 0.50012,0.22391 0.50012,0.50011c0,0.27621 -0.22391,0.50011 -0.50012,0.50011c-0.27621,0 -0.50011,-0.22391 -0.50011,-0.50011z" fill="#c6e9ed" stroke="none" stroke-width="0.5" stroke-linecap="butt"/><path d="M43.50008,150.16203c0,-0.27621 0.22391,-0.50012 0.50012,-0.50012c0.2762,0 0.50012,0.22391 0.50012,0.50012c0,0.27621 -0.22391,0.50011 -0.50012,0.50011c-0.2762,0 -0.50012,-0.22391 -0.50012,-0.50011z" fill="#c6e9ed" stroke="none" stroke-width="0.5" stroke-linecap="butt"/><path d="M452.59303,222.17839c0,-0.27621 0.22391,-0.50011 0.50011,-0.50011c0.27621,0 0.50012,0.22391 0.50012,0.50011c0,0.27621 -0.22391,0.50011 -0.50012,0.50011c-0.27621,0 -0.50011,-0.22391 -0.50011,-0.50011z" fill="#c6e9ed" stroke="none" stroke-width="0.5" stroke-linecap="butt"/><path d="M20.49482,30.13476c0,-0.27621 0.22391,-0.50012 0.50012,-0.50012c0.27621,0 0.50012,0.22391 0.50012,0.50012c0,0.27621 -0.22391,0.50012 -0.50012,0.50012c-0.27621,0 -0.50012,-0.22391 -0.50012,-0.50012z" fill="#c6e9ed" stroke="none" stroke-width="0.5" stroke-linecap="butt"/><path d="M128.51934,186.17022c0,-0.27621 0.22391,-0.50011 0.50011,-0.50011c0.27621,0 0.50011,0.22391 0.50011,0.50011c0,0.27621 -0.22391,0.50011 -0.50011,0.50011c-0.27621,0 -0.50011,-0.22391 -0.50011,-0.50011z" fill="#c6e9ed" stroke="none" stroke-width="0.5" stroke-linecap="butt"/><path d="M258.54893,169.16635c0,-0.27621 0.22391,-0.50011 0.50011,-0.50011c0.27621,0 0.50012,0.22391 0.50012,0.50011c0,0.27621 -0.22391,0.50011 -0.50012,0.50011c-0.27621,0 -0.50011,-0.22391 -0.50011,-0.50011z" fill="#c6e9ed" stroke="none" stroke-width="0.5" stroke-linecap="butt"/><path d="M141.0222,148.66169c-0.50011,0 -0.50011,-0.50011 -0.50011,-0.50011c0,-0.1667 0,-0.83352 0,-1.00023c0,0 0,-0.50011 0.50011,-0.50011c0.50011,0 0.50011,0.50011 0.50011,0.50011c0,0.1667 0,0.33342 0,0.50011v0.50011c0,0 0,0.50011 -0.50011,0.50011z" fill="#c6e9ed" stroke="none" stroke-width="0.5" stroke-linecap="butt"/><path d="M352.57032,129.15724c0,-0.27621 0.22391,-0.50011 0.50011,-0.50011c0.27621,0 0.50011,0.22391 0.50011,0.50011c0,0.27621 -0.22391,0.50011 -0.50011,0.50011c-0.27621,0 -0.50011,-0.22391 -0.50011,-0.50011z" fill="#c6e9ed" stroke="none" stroke-width="0.5" stroke-linecap="butt"/><path d="M102.76355,68.14338c0,-0.69052 0.55976,-1.25029 1.25028,-1.25029c0.69052,0 1.25028,0.55976 1.25028,1.25029c0,0.69052 -0.55976,1.25028 -1.25028,1.25028c-0.69052,0 -1.25028,-0.55976 -1.25028,-1.25028z" fill="#c6e9ed" stroke="none" stroke-width="0.5" stroke-linecap="butt"/><path d="M191.78377,110.15293c0,-0.69052 0.55976,-1.25029 1.25028,-1.25029c0.69052,0 1.25028,0.55976 1.25028,1.25029c0,0.69052 -0.55976,1.25028 -1.25028,1.25028c-0.69052,0 -1.25028,-0.55976 -1.25028,-1.25028z" fill="#c6e9ed" stroke="none" stroke-width="0.5" stroke-linecap="butt"/><path d="M240.79491,39.1368c0,-0.69052 0.55976,-1.25029 1.25028,-1.25029c0.69052,0 1.25028,0.55977 1.25028,1.25029c0,0.69052 -0.55976,1.25028 -1.25028,1.25028c-0.69052,0 -1.25028,-0.55976 -1.25028,-1.25028z" fill="#c6e9ed" stroke="none" stroke-width="0.5" stroke-linecap="butt"/><path d="M310.81075,105.1518c0,-0.69052 0.55977,-1.25029 1.25029,-1.25029c0.69052,0 1.25028,0.55976 1.25028,1.25029c0,0.69052 -0.55976,1.25029 -1.25028,1.25029c-0.69052,0 -1.25029,-0.55976 -1.25029,-1.25029z" fill="#c6e9ed" stroke="none" stroke-width="0.5" stroke-linecap="butt"/><path d="M425.83696,92.14884c0,-0.69052 0.55976,-1.25028 1.25028,-1.25028c0.69052,0 1.25029,0.55976 1.25029,1.25028c0,0.69052 -0.55977,1.25029 -1.25029,1.25029c-0.69052,0 -1.25028,-0.55976 -1.25028,-1.25029z" fill="#c6e9ed" stroke="none" stroke-width="0.5" stroke-linecap="butt"/><path d="M359.82197,26.13385c0,-0.69052 0.55977,-1.25028 1.25029,-1.25028c0.69052,0 1.25028,0.55976 1.25028,1.25028c0,0.69052 -0.55976,1.25028 -1.25028,1.25028c-0.69052,0 -1.25029,-0.55976 -1.25029,-1.25028z" fill="#c6e9ed" stroke="none" stroke-width="0.5" stroke-linecap="butt"/><path d="M420.83581,188.17066c0,-0.69052 0.55977,-1.25028 1.25029,-1.25028c0.69052,0 1.25028,0.55976 1.25028,1.25028c0,0.69052 -0.55976,1.25028 -1.25028,1.25028c-0.69052,0 -1.25029,-0.55976 -1.25029,-1.25028z" fill="#c6e9ed" stroke="none" stroke-width="0.5" stroke-linecap="butt"/><path d="M303.80918,188.17066c0,-0.69052 0.55976,-1.25028 1.25028,-1.25028c0.69052,0 1.25028,0.55976 1.25028,1.25028c0,0.69052 -0.55976,1.25028 -1.25028,1.25028c-0.69052,0 -1.25028,-0.55976 -1.25028,-1.25028z" fill="#c6e9ed" stroke="none" stroke-width="0.5" stroke-linecap="butt"/><path d="M195.78469,188.17066c0,-0.69052 0.55976,-1.25028 1.25028,-1.25028c0.69052,0 1.25028,0.55976 1.25028,1.25028c0,0.69052 -0.55976,1.25028 -1.25028,1.25028c-0.69052,0 -1.25028,-0.55976 -1.25028,-1.25028z" fill="#c6e9ed" stroke="none" stroke-width="0.5" stroke-linecap="butt"/><path d="M86.75991,155.16314c0,-0.69052 0.55976,-1.25029 1.25029,-1.25029c0.69052,0 1.25028,0.55977 1.25028,1.25029c0,0.69052 -0.55976,1.25028 -1.25028,1.25028c-0.69052,0 -1.25029,-0.55976 -1.25029,-1.25028z" fill="#c6e9ed" stroke="none" stroke-width="0.5" stroke-linecap="butt"/><path d="M37.74874,207.17498c0,-0.69052 0.55976,-1.25029 1.25028,-1.25029c0.69052,0 1.25028,0.55977 1.25028,1.25029c0,0.69052 -0.55976,1.25028 -1.25028,1.25028c-0.69052,0 -1.25028,-0.55976 -1.25028,-1.25028z" fill="#c6e9ed" stroke="none" stroke-width="0.5" stroke-linecap="butt"/><path d="M25.74606,110.15293c0,-0.69052 0.55976,-1.25029 1.25028,-1.25029c0.69052,0 1.25029,0.55976 1.25029,1.25029c0,0.69052 -0.55977,1.25028 -1.25029,1.25028c-0.69052,0 -1.25028,-0.55976 -1.25028,-1.25028z" fill="#c6e9ed" stroke="none" stroke-width="0.5" stroke-linecap="butt"/><path d="M64.75486,32.13521c0,-0.69052 0.55976,-1.25029 1.25028,-1.25029c0.69052,0 1.25029,0.55977 1.25029,1.25029c0,0.69052 -0.55976,1.25028 -1.25029,1.25028c-0.69052,0 -1.25028,-0.55976 -1.25028,-1.25028z" fill="#c6e9ed" stroke="none" stroke-width="0.5" stroke-linecap="butt"/><path d="M161.77686,66.14293c0,-0.69052 0.55976,-1.25028 1.25028,-1.25028c0.69052,0 1.25029,0.55976 1.25029,1.25028c0,0.69052 -0.55977,1.25028 -1.25029,1.25028c-0.69052,0 -1.25028,-0.55976 -1.25028,-1.25028z" fill="#c6e9ed" stroke="none" stroke-width="0.5" stroke-linecap="butt"/><path d="M353.82061,84.14703c0,-0.69052 0.55977,-1.25028 1.25029,-1.25028c0.69052,0 1.25029,0.55976 1.25029,1.25028c0,0.69052 -0.55977,1.25029 -1.25029,1.25029c-0.69052,0 -1.25029,-0.55976 -1.25029,-1.25029z" fill="#c6e9ed" stroke="none" stroke-width="0.5" stroke-linecap="butt"/><path d="M295.80737,42.13749c0,-0.69052 0.55977,-1.25028 1.25029,-1.25028c0.69052,0 1.25029,0.55976 1.25029,1.25028c0,0.69052 -0.55977,1.25028 -1.25029,1.25028c-0.69052,0 -1.25029,-0.55976 -1.25029,-1.25028z" fill="#c6e9ed" stroke="none" stroke-width="0.5" stroke-linecap="butt"/><path d="M392.82946,58.14112c0,-0.69052 0.55977,-1.25028 1.25029,-1.25028c0.69052,0 1.25028,0.55976 1.25028,1.25028c0,0.69052 -0.55976,1.25028 -1.25028,1.25028c-0.69052,0 -1.25029,-0.55976 -1.25029,-1.25028z" fill="#c6e9ed" stroke="none" stroke-width="0.5" stroke-linecap="butt"/><path d="M375.8256,143.16043c0,-0.69052 0.55976,-1.25028 1.25028,-1.25028c0.69052,0 1.25028,0.55976 1.25028,1.25028c0,0.69052 -0.55976,1.25028 -1.25028,1.25028c-0.69052,0 -1.25028,-0.55976 -1.25028,-1.25028z" fill="#c6e9ed" stroke="none" stroke-width="0.5" stroke-linecap="butt"/><path d="M449.84241,216.17702c0,-0.69052 0.55976,-1.25028 1.25028,-1.25028c0.69052,0 1.25028,0.55976 1.25028,1.25028c0,0.69052 -0.55976,1.25028 -1.25028,1.25028c-0.69052,0 -1.25028,-0.55976 -1.25028,-1.25028z" fill="#c6e9ed" stroke="none" stroke-width="0.5" stroke-linecap="butt"/><path d="M72.75672,189.17088c0,-0.69052 0.55976,-1.25028 1.25028,-1.25028c0.69052,0 1.25029,0.55976 1.25029,1.25028c0,0.69052 -0.55976,1.25029 -1.25029,1.25029c-0.69052,0 -1.25028,-0.55977 -1.25028,-1.25029z" fill="#c6e9ed" stroke="none" stroke-width="0.5" stroke-linecap="butt"/><path d="M48.75127,100.15066c0,-0.69052 0.55976,-1.25028 1.25028,-1.25028c0.69052,0 1.25028,0.55976 1.25028,1.25028c0,0.69052 -0.55976,1.25029 -1.25028,1.25029c-0.69052,0 -1.25028,-0.55976 -1.25028,-1.25029z" fill="#c6e9ed" stroke="none" stroke-width="0.5" stroke-linecap="butt"/><path d="M13.74331,172.16702c0,-0.69052 0.55977,-1.25028 1.25028,-1.25028c0.69052,0 1.25029,0.55976 1.25029,1.25028c0,0.69052 -0.55977,1.25028 -1.25029,1.25028c-0.69052,0 -1.25028,-0.55976 -1.25028,-1.25028z" fill="#c6e9ed" stroke="none" stroke-width="0.5" stroke-linecap="butt"/><path d="M267.80103,138.15929c0,-0.69052 0.55976,-1.25028 1.25028,-1.25028c0.69052,0 1.25028,0.55976 1.25028,1.25028c0,0.69052 -0.55976,1.25028 -1.25028,1.25028c-0.69052,0 -1.25028,-0.55976 -1.25028,-1.25028z" fill="#c6e9ed" stroke="none" stroke-width="0.5" stroke-linecap="butt"/><path d="M232.79309,80.14611c0,-0.69052 0.55977,-1.25029 1.25029,-1.25029c0.69052,0 1.25028,0.55976 1.25028,1.25029c0,0.69052 -0.55976,1.25029 -1.25028,1.25029c-0.69052,0 -1.25029,-0.55976 -1.25029,-1.25029z" fill="#c6e9ed" stroke="none" stroke-width="0.5" stroke-linecap="butt"/><path d="M456.844,29.13452c0,-0.69052 0.55977,-1.25028 1.25029,-1.25028c0.69052,0 1.25029,0.55976 1.25029,1.25028c0,0.69052 -0.55977,1.25029 -1.25029,1.25029c-0.69052,0 -1.25029,-0.55977 -1.25029,-1.25029z" fill="#c6e9ed" stroke="none" stroke-width="0.5" stroke-linecap="butt"/><path d="M452.8431,132.15793c0,-0.69052 0.55976,-1.25028 1.25028,-1.25028c0.69052,0 1.25028,0.55976 1.25028,1.25028c0,0.69052 -0.55976,1.25029 -1.25028,1.25029c-0.69052,0 -1.25028,-0.55977 -1.25028,-1.25029z" fill="#c6e9ed" stroke="none" stroke-width="0.5" stroke-linecap="butt"/><path d="M118.01701,132.15793c0,-1.10482 0.89563,-2.00045 2.00045,-2.00045c1.10482,0 2.00046,0.89563 2.00046,2.00045c0,1.10482 -0.89563,2.00046 -2.00046,2.00046c-1.10482,0 -2.00045,-0.89564 -2.00045,-2.00046z" fill="#8ecad1" stroke="none" stroke-width="0.5" stroke-linecap="butt"/><path d="M24.99588,60.14157c0,-1.10482 0.89563,-2.00045 2.00045,-2.00045c1.10482,0 2.00046,0.89563 2.00046,2.00045c0,1.10482 -0.89564,2.00045 -2.00046,2.00045c-1.10482,0 -2.00045,-0.89563 -2.00045,-2.00045z" fill="#8ecad1" stroke="none" stroke-width="0.5" stroke-linecap="butt"/><path d="M93.01133,16.13155c0,-1.10482 0.89563,-2.00046 2.00046,-2.00046c1.10482,0 2.00045,0.89564 2.00045,2.00046c0,1.10482 -0.89563,2.00045 -2.00045,2.00045c-1.10482,0 -2.00046,-0.89563 -2.00046,-2.00045z" fill="#8ecad1" stroke="none" stroke-width="0.5" stroke-linecap="butt"/><path d="M172.02927,128.15702c0,-1.10482 0.89563,-2.00045 2.00045,-2.00045c1.10482,0 2.00045,0.89563 2.00045,2.00045c0,1.10482 -0.89563,2.00046 -2.00045,2.00046c-1.10482,0 -2.00045,-0.89564 -2.00045,-2.00046z" fill="#8ecad1" stroke="none" stroke-width="0.5" stroke-linecap="butt"/><path d="M167.0281,23.13317c0,-1.10482 0.89563,-2.00045 2.00045,-2.00045c1.10482,0 2.00045,0.89563 2.00045,2.00045c0,1.10482 -0.89563,2.00045 -2.00045,2.00045c-1.10482,0 -2.00045,-0.89563 -2.00045,-2.00045z" fill="#8ecad1" stroke="none" stroke-width="0.5" stroke-linecap="butt"/><path d="M223.04087,157.16359c0,-1.10482 0.89564,-2.00045 2.00046,-2.00045c1.10482,0 2.00045,0.89563 2.00045,2.00045c0,1.10482 -0.89563,2.00045 -2.00045,2.00045c-1.10482,0 -2.00046,-0.89563 -2.00046,-2.00045z" fill="#8ecad1" stroke="none" stroke-width="0.5" stroke-linecap="butt"/><path d="M279.05355,99.15043c0,-1.10482 0.89564,-2.00045 2.00046,-2.00045c1.10482,0 2.00045,0.89563 2.00045,2.00045c0,1.10482 -0.89563,2.00045 -2.00045,2.00045c-1.10482,0 -2.00046,-0.89563 -2.00046,-2.00045z" fill="#8ecad1" stroke="none" stroke-width="0.5" stroke-linecap="butt"/><path d="M217.03952,26.13385c0,-1.10482 0.89563,-2.00045 2.00045,-2.00045c1.10482,0 2.00045,0.89563 2.00045,2.00045c0,1.10482 -0.89563,2.00045 -2.00045,2.00045c-1.10482,0 -2.00045,-0.89563 -2.00045,-2.00045z" fill="#8ecad1" stroke="none" stroke-width="0.5" stroke-linecap="butt"/><path d="M195.03452,82.14658c0,-1.10482 0.89563,-2.00046 2.00045,-2.00046c1.10482,0 2.00045,0.89563 2.00045,2.00046c0,1.10482 -0.89563,2.00045 -2.00045,2.00045c-1.10482,0 -2.00045,-0.89563 -2.00045,-2.00045z" fill="#8ecad1" stroke="none" stroke-width="0.5" stroke-linecap="butt"/><path d="M334.06606,160.16429c0,-1.10482 0.89563,-2.00045 2.00045,-2.00045c1.10482,0 2.00045,0.89563 2.00045,2.00045c0,1.10482 -0.89563,2.00045 -2.00045,2.00045c-1.10482,0 -2.00045,-0.89563 -2.00045,-2.00045z" fill="#8ecad1" stroke="none" stroke-width="0.5" stroke-linecap="butt"/><path d="M387.07815,120.1552c0,-1.10482 0.89564,-2.00045 2.00046,-2.00045c1.10482,0 2.00045,0.89563 2.00045,2.00045c0,1.10482 -0.89563,2.00045 -2.00045,2.00045c-1.10482,0 -2.00046,-0.89563 -2.00046,-2.00045z" fill="#8ecad1" stroke="none" stroke-width="0.5" stroke-linecap="butt"/><path d="M310.06057,72.14427c0,-1.10482 0.89564,-2.00045 2.00046,-2.00045c1.10482,0 2.00045,0.89563 2.00045,2.00045c0,1.10482 -0.89563,2.00045 -2.00045,2.00045c-1.10482,0 -2.00046,-0.89563 -2.00046,-2.00045z" fill="#8ecad1" stroke="none" stroke-width="0.5" stroke-linecap="butt"/><path d="M327.06444,23.13317c0,-1.10482 0.89563,-2.00045 2.00045,-2.00045c1.10482,0 2.00045,0.89563 2.00045,2.00045c0,1.10482 -0.89563,2.00045 -2.00045,2.00045c-1.10482,0 -2.00045,-0.89563 -2.00045,-2.00045z" fill="#8ecad1" stroke="none" stroke-width="0.5" stroke-linecap="butt"/><path d="M411.08361,21.13271c0,-1.10482 0.89563,-2.00045 2.00045,-2.00045c1.10482,0 2.00045,0.89563 2.00045,2.00045c0,1.10482 -0.89563,2.00045 -2.00045,2.00045c-1.10482,0 -2.00045,-0.89563 -2.00045,-2.00045z" fill="#8ecad1" stroke="none" stroke-width="0.5" stroke-linecap="butt"/><path d="M459.09451,93.14907c0,-1.10482 0.89563,-2.00046 2.00045,-2.00046c1.10482,0 2.00045,0.89563 2.00045,2.00046c0,1.10482 -0.89563,2.00045 -2.00045,2.00045c-1.10482,0 -2.00045,-0.89563 -2.00045,-2.00045z" fill="#8ecad1" stroke="none" stroke-width="0.5" stroke-linecap="butt"/><path d="M323.06354,129.15723c0,-1.10482 0.89563,-2.00046 2.00045,-2.00046c1.10482,0 2.00045,0.89564 2.00045,2.00046c0,1.10482 -0.89563,2.00045 -2.00045,2.00045c-1.10482,0 -2.00045,-0.89563 -2.00045,-2.00045z" fill="#8ecad1" stroke="none" stroke-width="0.5" stroke-linecap="butt"/><path d="M381.07679,196.17248c0,-1.10482 0.89563,-2.00046 2.00045,-2.00046c1.10482,0 2.00045,0.89564 2.00045,2.00046c0,1.10482 -0.89563,2.00045 -2.00045,2.00045c-1.10482,0 -2.00045,-0.89563 -2.00045,-2.00045z" fill="#8ecad1" stroke="none" stroke-width="0.5" stroke-linecap="butt"/><path d="M417.08497,152.16247c0,-1.10482 0.89563,-2.00045 2.00045,-2.00045c1.10482,0 2.00046,0.89563 2.00046,2.00045c0,1.10482 -0.89564,2.00045 -2.00046,2.00045c-1.10482,0 -2.00045,-0.89563 -2.00045,-2.00045z" fill="#8ecad1" stroke="none" stroke-width="0.5" stroke-linecap="butt"/><path d="M462.0952,188.17066c0,-1.10482 0.89563,-2.00045 2.00045,-2.00045c1.10482,0 2.00045,0.89563 2.00045,2.00045c0,1.10482 -0.89563,2.00045 -2.00045,2.00045c-1.10482,0 -2.00045,-0.89563 -2.00045,-2.00045z" fill="#8ecad1" stroke="none" stroke-width="0.5" stroke-linecap="butt"/><path d="M247.04633,199.17316c0,-1.10482 0.89563,-2.00045 2.00045,-2.00045c1.10482,0 2.00045,0.89563 2.00045,2.00045c0,1.10482 -0.89563,2.00045 -2.00045,2.00045c-1.10482,0 -2.00045,-0.89563 -2.00045,-2.00045z" fill="#8ecad1" stroke="none" stroke-width="0.5" stroke-linecap="butt"/><path d="M62.00429,129.15723c0,-1.10482 0.89563,-2.00046 2.00045,-2.00046c1.10482,0 2.00045,0.89564 2.00045,2.00046c0,1.10482 -0.89563,2.00045 -2.00045,2.00045c-1.10482,0 -2.00045,-0.89563 -2.00045,-2.00045z" fill="#8ecad1" stroke="none" stroke-width="0.5" stroke-linecap="butt"/><path d="M163.02714,204.17429c0,-1.10482 0.89563,-2.00045 2.00045,-2.00045c1.10482,0 2.00046,0.89563 2.00046,2.00045c0,1.10482 -0.89564,2.00045 -2.00046,2.00045c-1.10482,0 -2.00045,-0.89563 -2.00045,-2.00045z" fill="#8ecad1" stroke="none" stroke-width="0.5" stroke-linecap="butt"/><path d="M174.02975,160.16429c0,-1.10482 0.89563,-2.00045 2.00045,-2.00045c1.10482,0 2.00045,0.89563 2.00045,2.00045c0,1.10482 -0.89563,2.00045 -2.00045,2.00045c-1.10482,0 -2.00045,-0.89563 -2.00045,-2.00045z" fill="#8ecad1" stroke="none" stroke-width="0.5" stroke-linecap="butt"/><path d="M344.06839,204.17429c0,-1.10482 0.89563,-2.00045 2.00045,-2.00045c1.10482,0 2.00045,0.89563 2.00045,2.00045c0,1.10482 -0.89563,2.00045 -2.00045,2.00045c-1.10482,0 -2.00045,-0.89563 -2.00045,-2.00045z" fill="#8ecad1" stroke="none" stroke-width="0.5" stroke-linecap="butt"/><path d="M100.01292,180.16884c0,-1.10482 0.89563,-2.00046 2.00045,-2.00046c1.10482,0 2.00045,0.89564 2.00045,2.00046c0,1.10482 -0.89563,2.00045 -2.00045,2.00045c-1.10482,0 -2.00045,-0.89563 -2.00045,-2.00045z" fill="#8ecad1" stroke="none" stroke-width="0.5" stroke-linecap="butt"/><path d="M40.99945,175.16771c0,-1.10482 0.89563,-2.00046 2.00045,-2.00046c1.10482,0 2.00046,0.89564 2.00046,2.00046c0,1.10482 -0.89564,2.00045 -2.00046,2.00045c-1.10482,0 -2.00045,-0.89563 -2.00045,-2.00045z" fill="#8ecad1" stroke="none" stroke-width="0.5" stroke-linecap="butt"/><path d="M9.99241,230.1802c0,-1.10482 0.89563,-2.00045 2.00045,-2.00045c1.10482,0 2.00045,0.89563 2.00045,2.00045c0,1.10482 -0.89563,2.00046 -2.00045,2.00046c-1.10482,0 -2.00045,-0.89564 -2.00045,-2.00046z" fill="#8ecad1" stroke="none" stroke-width="0.5" stroke-linecap="butt"/><path d="M427.08724,56.14066c0,-1.10482 0.89563,-2.00045 2.00045,-2.00045c1.10482,0 2.00045,0.89563 2.00045,2.00045c0,1.10482 -0.89563,2.00045 -2.00045,2.00045c-1.10482,0 -2.00045,-0.89563 -2.00045,-2.00045z" fill="#8ecad1" stroke="none" stroke-width="0.5" stroke-linecap="butt"/><path d="M143.02265,46.13839c0,-1.10482 0.89563,-2.00046 2.00045,-2.00046c1.10482,0 2.00046,0.89564 2.00046,2.00046c0,1.10482 -0.89564,2.00045 -2.00046,2.00045c-1.10482,0 -2.00045,-0.89563 -2.00045,-2.00045z" fill="#8ecad1" stroke="none" stroke-width="0.5" stroke-linecap="butt"/><path d="M218.03974,57.14089c0,-1.10482 0.89564,-2.00046 2.00046,-2.00046c1.10482,0 2.00045,0.89564 2.00045,2.00046c0,1.10482 -0.89563,2.00045 -2.00045,2.00045c-1.10482,0 -2.00046,-0.89563 -2.00046,-2.00045z" fill="#8ecad1" stroke="none" stroke-width="0.5" stroke-linecap="butt"/><path d="M221.04042,124.15612c0,-1.10482 0.89563,-2.00045 2.00045,-2.00045c1.10482,0 2.00046,0.89563 2.00046,2.00045c0,1.10482 -0.89564,2.00045 -2.00046,2.00045c-1.10482,0 -2.00045,-0.89563 -2.00045,-2.00045z" fill="#8ecad1" stroke="none" stroke-width="0.5" stroke-linecap="butt"/><path d="M112.01565,93.14907c0,-1.10482 0.89563,-2.00046 2.00045,-2.00046c1.10482,0 2.00046,0.89563 2.00046,2.00046c0,1.10482 -0.89563,2.00045 -2.00046,2.00045c-1.10482,0 -2.00045,-0.89563 -2.00045,-2.00045z" fill="#8ecad1" stroke="none" stroke-width="0.5" stroke-linecap="butt"/><path d="M67.00542,82.14658c0,-1.10482 0.89563,-2.00046 2.00045,-2.00046c1.10482,0 2.00046,0.89563 2.00046,2.00046c0,1.10482 -0.89563,2.00045 -2.00046,2.00045c-1.10482,0 -2.00045,-0.89563 -2.00045,-2.00045z" fill="#8ecad1" stroke="none" stroke-width="0.5" stroke-linecap="butt"/><path d="M8.99218,133.15813c0,-1.10482 0.89563,-2.00045 2.00045,-2.00045c1.10482,0 2.00046,0.89563 2.00046,2.00045c0,1.10482 -0.89564,2.00045 -2.00046,2.00045c-1.10482,0 -2.00045,-0.89563 -2.00045,-2.00045z" fill="#8ecad1" stroke="none" stroke-width="0.5" stroke-linecap="butt"/><path d="M-11.11616,363.44617c0,0 2.78084,-161.37442 1.23837,-194.04407h499.40874l-1.59805,194.04408z" fill="url(#color-6)" stroke="none" stroke-width="1.28528" stroke-linecap="butt"/><path d="" fill="url(#color-7)" stroke="none" stroke-width="1.28528" stroke-linecap="butt"/><path d="" fill="url(#color-8)" stroke="none" stroke-width="1.28528" stroke-linecap="butt"/><path d="" fill="url(#color-9)" stroke="none" stroke-width="1.28528" stroke-linecap="butt"/><path d="" fill="url(#color-10)" stroke="none" stroke-width="1.28528" stroke-linecap="butt"/><path d="M-1.01012,361.20997v-107.02431h484.10998v107.02432z" fill="#69bdff" stroke="none" stroke-width="0" stroke-linecap="butt"/><path d="M36.9986,17.1318c0,-1.10482 0.89564,-2.00045 2.00046,-2.00045c1.10482,0 2.00045,0.89563 2.00045,2.00045c0,1.10482 -0.89563,2.00045 -2.00045,2.00045c-1.10482,0 -2.00046,-0.89563 -2.00046,-2.00045z" fill="#8ecad1" stroke="none" stroke-width="0.5" stroke-linecap="butt"/><path d="M254.79808,17.1318c0,-0.69052 0.55976,-1.25028 1.25028,-1.25028c0.69052,0 1.25029,0.55977 1.25029,1.25028c0,0.69052 -0.55977,1.25029 -1.25029,1.25029c-0.69052,0 -1.25028,-0.55977 -1.25028,-1.25029z" fill="#c6e9ed" stroke="none" stroke-width="0.5" stroke-linecap="butt"/><path d="M301.80872,11.13044c0,-0.69052 0.55977,-1.25028 1.25029,-1.25028c0.69052,0 1.25028,0.55977 1.25028,1.25028c0,0.69052 -0.55976,1.25028 -1.25028,1.25028c-0.69052,0 -1.25029,-0.55976 -1.25029,-1.25028z" fill="#c6e9ed" stroke="none" stroke-width="0.5" stroke-linecap="butt"/><path d="M362.82265,60.14157c0,-0.69052 0.55977,-1.25029 1.25029,-1.25029c0.69052,0 1.25028,0.55977 1.25028,1.25029c0,0.69052 -0.55976,1.25028 -1.25028,1.25028c-0.69052,0 -1.25029,-0.55976 -1.25029,-1.25028z" fill="#c6e9ed" stroke="none" stroke-width="0.5" stroke-linecap="butt"/><path d="M131.77006,13.13089c0,-0.69052 0.55977,-1.25028 1.25029,-1.25028c0.69052,0 1.25028,0.55977 1.25028,1.25028c0,0.69052 -0.55976,1.25028 -1.25028,1.25028c-0.69052,0 -1.25029,-0.55977 -1.25029,-1.25028z" fill="#c6e9ed" stroke="none" stroke-width="0.5" stroke-linecap="butt"/><path d="M29.74893,215.6769l-0.30007,-0.30008" fill="none" stroke="#ffffff" stroke-width="2" stroke-linecap="round"/><path d="M-4.4001,365.61021c0,0 -1.31771,-115.35485 -1.68443,-122.58654c67.12349,-16.62592 152.73386,-26.5997 245.91793,-26.5997h0.00001c94.79035,0 178.74073,8.81911 246.36967,25.96395c-0.08443,1.61065 0.22597,121.01979 0.22597,121.01979z" fill="url(#color-11)" stroke="url(#color-12)" stroke-width="2.70748" stroke-linecap="butt"/><path d="" fill="url(#color-13)" stroke="url(#color-14)" stroke-width="2.70748" stroke-linecap="butt"/><path d="" fill="url(#color-15)" stroke="url(#color-16)" stroke-width="2.70748" stroke-linecap="butt"/><path d="" fill="url(#color-17)" stroke="url(#color-18)" stroke-width="2.70748" stroke-linecap="butt"/><path d="M261.00147,223.37866c27.7333,0 52.86401,2.24151 71.06115,5.86333c18.19813,3.62082 29.46169,8.62196 29.46169,14.14122c0,5.51925 -11.26355,10.52039 -29.46169,14.14122c-18.19713,3.62182 -43.32785,5.86334 -71.06115,5.86334c-27.7333,0 -52.86401,-2.24151 -71.06115,-5.86334c-18.19813,-3.62082 -29.4617,-8.62195 -29.4617,-14.14122c0,-5.51925 11.26356,-10.52039 29.4617,-14.14122c18.19713,-3.62182 43.32785,-5.86333 71.06115,-5.86333z" fill="url(#color-19)" stroke="none" stroke-width="1" stroke-linecap="butt"/><path d="M169.98081,334.40387c27.7333,0 52.86401,2.24151 71.06115,5.86334c18.19813,3.62082 29.4617,8.62195 29.4617,14.14121c0,5.51925 -11.26355,10.52039 -29.4617,14.14122c-9.37653,1.86624 -133.30169,1.75558 -142.12229,0c-18.19813,-3.62082 -29.4617,-8.62196 -29.4617,-14.14122c0,-5.51925 11.26356,-10.52038 29.4617,-14.14121c18.19713,-3.62182 43.32785,-5.86334 71.06115,-5.86334z" fill="url(#color-20)" stroke="none" stroke-width="1" stroke-linecap="butt"/><path d="M84.46139,267.38865c27.7333,0 52.86401,2.24151 71.06115,5.86334c18.19813,3.62082 29.46169,8.62195 29.46169,14.14121c0,5.51925 -11.26355,10.52039 -29.46169,14.14122c-18.19713,3.62182 -43.32784,5.86333 -71.06114,5.86333c-27.7333,0 -52.864,-2.24151 -71.06114,-5.86333c-6.98641,-1.39006 -12.95077,-2.98356 -17.64813,-4.73172c0.14295,-2.96064 0.23667,-5.92296 0.25585,-8.88781c0.0214,-3.30642 -0.12008,-6.60974 -0.30684,-9.91218c4.70516,-1.75561 10.68741,-3.35562 17.69913,-4.75072c18.19713,-3.62182 43.32785,-5.86334 71.06115,-5.86334z" fill="url(#color-21)" stroke="none" stroke-width="1" stroke-linecap="butt"/><path d="M400.03305,284.39252c27.7333,0 52.86401,2.24151 71.06115,5.86333c5.01141,0.9971 9.49694,2.09888 13.36619,3.28733c-0.12725,1.57792 -0.24083,3.1566 -0.33742,4.73625c-0.34648,5.66661 -0.11969,11.34386 0.17182,17.02221c-3.83145,1.1691 -8.26051,2.25372 -13.2006,3.23664c-18.19713,3.62182 -43.32785,5.86333 -71.06115,5.86333c-27.7333,0 -52.86401,-2.24151 -71.06115,-5.86333c-18.19813,-3.62082 -29.46169,-8.62195 -29.46169,-14.14121c0,-5.51925 11.26355,-10.52039 29.46169,-14.14122c18.19713,-3.62182 43.32785,-5.86333 71.06115,-5.86333z" fill="url(#color-22)" stroke="none" stroke-width="1" stroke-linecap="butt"/><path d="" fill="#8ecad1" stroke="none" stroke-width="0.5" stroke-linecap="butt"/><path d="" fill="#8ecad1" stroke="none" stroke-width="0.5" stroke-linecap="butt"/><path d="" fill="#8ecad1" stroke="none" stroke-width="0.5" stroke-linecap="butt"/><path d="" fill="#8ecad1" stroke="none" stroke-width="0.5" stroke-linecap="butt"/><path d="" fill="#8ecad1" stroke="none" stroke-width="0.5" stroke-linecap="butt"/><path d="" fill="#8ecad1" stroke="none" stroke-width="0.5" stroke-linecap="butt"/><path d="" fill="#8ecad1" stroke="none" stroke-width="0.5" stroke-linecap="butt"/><path d="" fill="#8ecad1" stroke="none" stroke-width="0.5" stroke-linecap="butt"/><path d="" fill="#8ecad1" stroke="none" stroke-width="0.5" stroke-linecap="butt"/><path d="" fill="#8ecad1" stroke="none" stroke-width="0.5" stroke-linecap="butt"/><path d="" fill="#8ecad1" stroke="none" stroke-width="0.5" stroke-linecap="butt"/><path d="" fill="#8ecad1" stroke="none" stroke-width="0.5" stroke-linecap="butt"/><path d="" fill="#8ecad1" stroke="none" stroke-width="0.5" stroke-linecap="butt"/><path d="" fill="#8ecad1" stroke="none" stroke-width="0.5" stroke-linecap="butt"/><path d="" fill="#8ecad1" stroke="none" stroke-width="0.5" stroke-linecap="butt"/><path d="" fill="#8ecad1" stroke="none" stroke-width="0.5" stroke-linecap="butt"/><path d="" fill="#8ecad1" stroke="none" stroke-width="0.5" stroke-linecap="butt"/><path d="" fill="#8ecad1" stroke="none" stroke-width="0.5" stroke-linecap="butt"/><path d="" fill="#8ecad1" stroke="none" stroke-width="0.5" stroke-linecap="butt"/><path d="" fill="#8ecad1" stroke="none" stroke-width="0.5" stroke-linecap="butt"/><path d="" fill="#8ecad1" stroke="none" stroke-width="0.5" stroke-linecap="butt"/><path d="" fill="#8ecad1" stroke="none" stroke-width="0.5" stroke-linecap="butt"/><path d="" fill="#8ecad1" stroke="none" stroke-width="0.5" stroke-linecap="butt"/><path d="" fill="#8ecad1" stroke="none" stroke-width="0.5" stroke-linecap="butt"/><path d="M7.13295,87.34775c0,-0.27621 0.22391,-0.50011 0.50011,-0.50011c0.27621,0 0.50012,0.22391 0.50012,0.50011c0,0.27621 -0.22391,0.50012 -0.50012,0.50012c-0.27621,0 -0.50011,-0.22391 -0.50011,-0.50012z" fill="#8ecad1" stroke="none" stroke-width="0.5" stroke-linecap="butt"/><path d="" fill="#8ecad1" stroke="none" stroke-width="0.5" stroke-linecap="butt"/><path d="M0.13131,153.36273c0,-0.27621 0.22391,-0.50012 0.50012,-0.50012c0.2762,0 0.50012,0.22391 0.50012,0.50012c0,0.27621 -0.22392,0.50011 -0.50012,0.50011c-0.2762,0 -0.50011,-0.22391 -0.50011,-0.50011z" fill="#8ecad1" stroke="none" stroke-width="0.5" stroke-linecap="butt"/><path d="" fill="#8ecad1" stroke="none" stroke-width="0.5" stroke-linecap="butt"/><path d="" fill="#8ecad1" stroke="none" stroke-width="0.5" stroke-linecap="butt"/><path d="" fill="#8ecad1" stroke="none" stroke-width="0.5" stroke-linecap="butt"/><path d="" fill="#8ecad1" stroke="none" stroke-width="0.5" stroke-linecap="butt"/><path d="" fill="#8ecad1" stroke="none" stroke-width="0.5" stroke-linecap="butt"/><path d="" fill="#8ecad1" stroke="none" stroke-width="0.5" stroke-linecap="butt"/><path d="" fill="#8ecad1" stroke="none" stroke-width="0.5" stroke-linecap="butt"/><path d="" fill="#8ecad1" stroke="none" stroke-width="0.5" stroke-linecap="butt"/><path d="" fill="#8ecad1" stroke="none" stroke-width="0.5" stroke-linecap="butt"/><path d="" fill="#8ecad1" stroke="none" stroke-width="0.5" stroke-linecap="butt"/><path d="" fill="#8ecad1" stroke="none" stroke-width="0.5" stroke-linecap="butt"/><path d="" fill="#8ecad1" stroke="none" stroke-width="0.5" stroke-linecap="butt"/><path d="" fill="#8ecad1" stroke="none" stroke-width="0.5" stroke-linecap="butt"/><path d="" fill="#8ecad1" stroke="none" stroke-width="0.5" stroke-linecap="butt"/><path d="M99.30964,-7.02395h281.38073v374.0479h-281.38073z" fill="url(#color-23)" stroke="none" stroke-width="1.11058" stroke-linecap="butt"/></g></g></svg>