<svg version="1.1" xmlns="http://www.w3.org/2000/svg" xmlns:xlink="http://www.w3.org/1999/xlink" width="511.37237" height="379.10339" viewBox="0,0,511.37237,379.10339"><defs><linearGradient x1="-4.78664" y1="184.57379" x2="59.77792" y2="184.57379" gradientUnits="userSpaceOnUse" id="color-1"><stop offset="0" stop-color="#000000"/><stop offset="1" stop-color="#000000" stop-opacity="0"/></linearGradient></defs><g transform="translate(16.45495,4.6154)"><g data-paper-data="{&quot;isPaintingLayer&quot;:true}" fill-rule="nonzero" stroke-linejoin="miter" stroke-miterlimit="10" stroke-dasharray="" stroke-dashoffset="0" style="mix-blend-mode: normal"><g fill="#cfaf77" stroke="#e6cd95" stroke-width="7" stroke-linecap="butt"><g><path d="M0,0h110v50h-110z"/><path d="M116,0h110v50h-110z"/><path d="M232,0h110v50h-110z"/><path d="M348,0h110v50h-110z"/><path d="M464,0h27.41742v50h-27.41742z"/></g><g><path d="M-10.95495,56h64.95495v50h-64.95495z"/><path d="M60,56h110v50h-110z"/><path d="M176,56h110v50h-110z"/><path d="M292,56h110v50h-110z"/><path d="M408,56h82.97297v50h-82.97297z"/></g></g><g fill="#cfaf77" stroke="#e6cd95" stroke-width="7" stroke-linecap="butt"><g><path d="M-1,111h110v50h-110z"/><path d="M115,111h110v50h-110z"/><path d="M231,111h110v50h-110z"/><path d="M347,111h110v50h-110z"/><path d="M463,111h27.41742v50h-27.41742z"/></g><g><path d="M-11.95495,167h64.95495v50h-64.95495z"/><path d="M59,167h110v50h-110z"/><path d="M175,167h110v50h-110z"/><path d="M291,167h110v50h-110z"/><path d="M407,167h82.97297v50h-82.97297z"/></g></g><g fill="#cfaf77" stroke="#e6cd95" stroke-width="7" stroke-linecap="butt"><g><path d="M-2,222h110v50h-110z"/><path d="M114,222h110v50h-110z"/><path d="M230,222h110v50h-110z"/><path d="M346,222h110v50h-110z"/><path d="M462,222h27.41742v50h-27.41742z"/></g><g><path d="M-12.95495,278h64.95495v50h-64.95495z"/><path d="M58,278h110v50h-110z"/><path d="M174,278h110v50h-110z"/><path d="M290,278h110v50h-110z"/><path d="M406,278h82.97297v50h-82.97297z"/></g></g><g stroke-linecap="butt"><g fill="#cfaf77" stroke="#e6cd95" stroke-width="7"><path d="M-2,333h110v37.98799h-110z"/><path d="M114,333h110v37.98799h-110z"/><path d="M230,333h110v37.98799h-110z"/><path d="M346,333h110v37.98799h-110z"/><path d="M462,333h27.41742v37.98799h-27.41742z"/></g><g fill="none" stroke="none" stroke-width="1" font-family="sans-serif" font-weight="normal" font-size="12" text-anchor="start"/></g><g stroke="#ffde00" stroke-width="3.5"><path d="M285.3588,105.69341c-27.33585,0 -49.49594,-22.82733 -49.49594,-50.98627c0,-28.15894 22.16009,-50.98627 49.49594,-50.98627c27.33585,0 49.49594,22.82733 49.49594,50.98627c0,28.15894 -22.16009,50.98627 -49.49594,50.98627z" data-paper-data="{&quot;index&quot;:null}" fill="#002566" stroke-linecap="butt"/><path d="M235.86287,156.38665v-101.97254h98.99188v101.97254z" data-paper-data="{&quot;index&quot;:null}" fill="#002566" stroke-linecap="butt"/><path d="M334.78364,105.0048h-98.1385" data-paper-data="{&quot;index&quot;:null}" fill="none" stroke-linecap="round"/><path d="M285.2877,155.112v-151.20067" data-paper-data="{&quot;index&quot;:null}" fill="none" stroke-linecap="round"/></g><g stroke="#ffde00" stroke-width="3.5"><path d="M114.37413,161.18676c-27.33585,0 -49.49594,-22.82733 -49.49594,-50.98627c0,-28.15894 22.16009,-50.98627 49.49594,-50.98627c27.33585,0 49.49594,22.82733 49.49594,50.98627c0,28.15894 -22.16009,50.98627 -49.49594,50.98627z" data-paper-data="{&quot;index&quot;:null}" fill="#002566" stroke-linecap="butt"/><path d="M64.87819,211.88001v-101.97254h98.99188v101.97254z" data-paper-data="{&quot;index&quot;:null}" fill="#002566" stroke-linecap="butt"/><path d="M163.79895,160.49816h-98.1385" data-paper-data="{&quot;index&quot;:null}" fill="none" stroke-linecap="round"/><path d="M114.30301,59.40469v151.20067" data-paper-data="{&quot;index&quot;:null}" fill="none" stroke-linecap="round"/></g><path d="M-4.78664,373.76298v-378.37838h64.56456v378.37838z" fill="url(#color-1)" stroke="none" stroke-width="0" stroke-linecap="butt"/></g></g></svg>