<svg version="1.1" xmlns="http://www.w3.org/2000/svg" xmlns:xlink="http://www.w3.org/1999/xlink" width="437" height="90.79587" viewBox="0,0,437,90.79587"><defs><linearGradient x1="240" y1="135.60205" x2="240" y2="224.39794" gradientUnits="userSpaceOnUse" id="color-1"><stop offset="0" stop-color="#ffffff"/><stop offset="1" stop-color="#d8d8d8"/></linearGradient><linearGradient x1="240" y1="135.60207" x2="240" y2="224.39794" gradientUnits="userSpaceOnUse" id="color-2"><stop offset="0" stop-color="#343434"/><stop offset="1" stop-color="#090909"/></linearGradient><radialGradient cx="443.8065" cy="206.54466" r="17.9081" gradientUnits="userSpaceOnUse" id="color-3"><stop offset="0" stop-color="#ffffff"/><stop offset="1" stop-color="#e5e5e5"/></radialGradient></defs><g transform="translate(-21.5,-134.60207)"><g data-paper-data="{&quot;isPaintingLayer&quot;:true}" fill-rule="nonzero" stroke-linejoin="miter" stroke-miterlimit="10" stroke-dasharray="" stroke-dashoffset="0" style="mix-blend-mode: normal"><path d="M22.5,224.39794v-88.79587h435v88.79587z" data-paper-data="{&quot;origPos&quot;:null}" fill="url(#color-1)" stroke="url(#color-2)" stroke-width="2" stroke-linecap="butt"/><g data-paper-data="{&quot;origPos&quot;:null}"><path d="M444.3058,202.09868c2.5136,0 4.7909,1.0212 6.4406,2.6702c1.6489,1.6496 2.6702,3.9269 2.6702,6.4405c0,2.5136 -1.0213,4.791 -2.6702,6.4406c-1.6497,1.649 -3.927,2.6702 -6.4406,2.6702c-2.5136,0 -4.7909,-1.0212 -6.4406,-2.6702c-1.6489,-1.6496 -2.6701,-3.927 -2.6701,-6.4406c0,-2.5136 1.0212,-4.7909 2.6701,-6.4405c1.6497,-1.649 3.927,-2.6702 6.4406,-2.6702z" fill="url(#color-3)" stroke="#000000" stroke-width="2.0785" stroke-linecap="butt"/><path d="M441.2734,206.54886l5.6119,0.4503l1.7321,3.187l-3.6374,2.9446l3.3603,-0.5197l0.7967,3.4642l-7.4479,-0.0693l-1.9053,-2.4249l4.6766,-3.3256l-4.5727,-0.3464z" fill="#000000" stroke="none" stroke-width="0.69283" stroke-linecap="round"/></g><g stroke="none" stroke-width="1" stroke-linecap="butt"><path d="M34.656,147.81806c2.449,0.547 3.81,0.86 4.083,0.939v0.064c-0.085,2.193 -0.149,3.469 -0.191,3.828c0.14,0 0.769,0.146 1.887,0.437c1.002,-3.093 1.546,-4.639 1.631,-4.639c1.677,0.753 2.744,1.255 3.199,1.504v0.064c-1.841,4.283 -2.886,6.647 -3.135,7.091c-0.462,0.383 -2.072,1.847 -4.831,4.393h-0.064l-5.086,-2.507c0.468,-0.802 1.033,-1.722 1.696,-2.761c0.03,0 0.826,0.522 2.388,1.567h0.064c0.522,-0.425 1.148,-1.033 1.877,-1.823c0,-0.036 -1.191,-1.206 -3.573,-3.509v-4.52z" data-paper-data="{&quot;origPos&quot;:null}" fill="#000000"/><path d="M49.932,150.58006c2.309,0.619 3.533,0.996 3.673,1.13c1.27,1.798 1.984,2.835 2.142,3.108c-0.82,2.601 -1.291,3.901 -1.413,3.901c-2.734,0.638 -4.165,0.957 -4.293,0.957c-2.26,-1.319 -3.463,-2.054 -3.609,-2.206c-0.079,-2.455 -0.118,-3.81 -0.118,-4.065c-0.037,-0.073 -0.055,-0.127 -0.055,-0.164c2.333,-1.774 3.539,-2.661 3.618,-2.661zM49.704,153.91606c-0.036,0.243 -0.091,1.127 -0.164,2.652l2.033,0.456c0.486,-1.519 0.729,-2.331 0.729,-2.434c-1.617,-0.486 -2.482,-0.729 -2.598,-0.729z" data-paper-data="{&quot;origPos&quot;:null}" fill="#000000"/><path d="M61.498,150.57106l0.064,0.118l-1.23,6.526h0.064l3.135,-0.92v-3.692c0.012,-0.085 0.052,-0.127 0.118,-0.127c2.358,0.164 3.671,0.246 3.938,0.246c0,0.042 0.021,0.063 0.064,0.063c0,1.039 -0.328,3.194 -0.985,6.463c0,0.188 -0.941,0.331 -2.825,0.428c-0.097,-0.115 -0.179,-0.362 -0.246,-0.738c-2.413,0.492 -3.789,0.738 -4.129,0.738c-1.926,-1.434 -2.889,-2.172 -2.889,-2.215c0.328,-4.308 0.534,-6.544 0.619,-6.708h0.055c1.537,-0.043 2.953,-0.103 4.247,-0.182z" data-paper-data="{&quot;origPos&quot;:null}" fill="#000000"/><path d="M80.001,150.59808c2.582,0.067 3.874,0.179 3.874,0.337c0.443,6.727 0.665,10.306 0.665,10.737c-1.957,1.246 -3.357,2.09 -4.202,2.534c-2.977,-0.936 -4.466,-1.471 -4.466,-1.604c0.96,-1.404 1.516,-2.115 1.668,-2.133c1.622,0.802 2.555,1.203 2.798,1.203l0.866,-1.139c-0.231,-0.942 -0.386,-1.498 -0.465,-1.668c-0.133,0 -1.78,0.267 -4.94,0.802c-1.732,-2.813 -2.597,-4.257 -2.597,-4.33c1.494,-2.388 2.406,-3.788 2.734,-4.201h0.064c0.176,0 1.488,0.288 3.937,0.866v-0.201c0,-0.237 -0.021,-0.617 -0.064,-1.139zM77.011,154.52606c0.085,0.189 0.353,1.191 0.803,3.008c0.565,-0.182 1.43,-0.516 2.597,-1.003c-0.225,-1.093 -0.337,-1.716 -0.337,-1.868l-0.328,-0.064h-0.401c-0.511,0 -1.288,-0.024 -2.334,-0.073z" data-paper-data="{&quot;origPos&quot;:null}" fill="#000000"/><path d="M89.198,150.58006c2.309,0.619 3.533,0.996 3.673,1.13c1.27,1.798 1.984,2.835 2.142,3.108c-0.821,2.601 -1.292,3.901 -1.413,3.901c-2.734,0.638 -4.165,0.957 -4.293,0.957c-2.26,-1.319 -3.464,-2.054 -3.609,-2.206c-0.079,-2.455 -0.119,-3.81 -0.119,-4.065c-0.036,-0.073 -0.055,-0.127 -0.055,-0.164c2.334,-1.774 3.54,-2.661 3.619,-2.661zM88.97,153.91606c-0.037,0.243 -0.091,1.127 -0.164,2.652l2.032,0.456c0.486,-1.519 0.729,-2.331 0.729,-2.434c-1.616,-0.486 -2.482,-0.729 -2.597,-0.729z" data-paper-data="{&quot;origPos&quot;:null}" fill="#000000"/><path d="M98.567,147.81806l4.011,0.711l-0.383,3.044c0.796,-0.042 1.379,-0.064 1.75,-0.064h0.583l0.128,-0.063l0.064,0.127c-0.128,1.847 -0.237,2.886 -0.328,3.117l-0.128,-0.073c-0.091,0 -0.911,-0.042 -2.461,-0.127c-0.085,1.428 -0.149,3.135 -0.191,5.122l-0.128,0.064c-1.957,-0.128 -3.123,-0.237 -3.5,-0.328l0.064,-0.255c0,-0.529 0.085,-2.17 0.255,-4.922c-1.641,-0.091 -2.461,-0.201 -2.461,-0.328c0.085,-2.03 0.195,-3.045 0.328,-3.045l2.397,0.456v-0.784c0,-0.638 -0.024,-1.501 -0.073,-2.588c0.049,0 0.073,-0.022 0.073,-0.064z" data-paper-data="{&quot;origPos&quot;:null}" fill="#000000"/><path d="M111.702,150.57106c3.609,0.498 5.414,0.805 5.414,0.92c1.421,1.221 2.132,1.875 2.132,1.96c-0.577,1.804 -0.905,2.901 -0.984,3.29c0.577,1.282 0.905,2.048 0.984,2.297c0,0.073 -0.941,0.267 -2.825,0.583c-0.024,-0.103 -0.198,-0.334 -0.52,-0.692c-2.6,0.498 -4.001,0.747 -4.201,0.747l-1.386,-3.746l3.053,-1.613c0.493,0.079 1.261,0.118 2.306,0.118c0,-0.134 0.019,-0.538 0.055,-1.212c-0.176,0 -1.75,0.115 -4.721,0.346l-0.055,-0.118c0.413,-1.92 0.662,-2.88 0.748,-2.88zM113.597,155.93006c0,0.067 0.195,0.778 0.584,2.133h0.054c0.766,-0.499 1.149,-0.827 1.149,-0.985l0.118,-0.975c-0.146,0 -0.781,-0.058 -1.905,-0.173z" data-paper-data="{&quot;origPos&quot;:null}" fill="#000000"/><path d="M128.217,150.57106l3.035,2.087c-0.212,3.463 -0.361,5.487 -0.446,6.07c-0.353,0.043 -1.425,0.106 -3.218,0.192l-0.064,-0.128l-0.319,-4.867l-0.127,-0.064c-1.161,0.249 -1.96,0.437 -2.397,0.565c0.121,2.072 0.182,3.57 0.182,4.494c-1.811,0.504 -2.801,0.756 -2.971,0.756c-1.179,-5.189 -1.769,-7.93 -1.769,-8.221c2.565,-0.335 3.956,-0.502 4.175,-0.502v0.064c0.042,0.031 0.106,0.662 0.191,1.896c2.352,-1.562 3.594,-2.342 3.728,-2.342z" data-paper-data="{&quot;origPos&quot;:null}" fill="#000000"/><path d="M138.043,146.91606l3.582,0.565c-0.45,1.719 -0.745,2.579 -0.884,2.579c-1.884,-0.127 -2.826,-0.252 -2.826,-0.374v-2.643c0.018,-0.085 0.061,-0.127 0.128,-0.127zM137.04,151.25407h0.055c2.771,0.504 4.156,0.799 4.156,0.884c-0.796,4.509 -1.279,7.022 -1.449,7.538h-2.89c-0.085,0 -0.127,-0.043 -0.127,-0.128z" data-paper-data="{&quot;origPos&quot;:null}" fill="#2bb7c2"/><path d="M145.508,150.58006c2.74,0.516 4.174,0.811 4.302,0.884v0.109c-0.59,1.665 -0.885,2.528 -0.885,2.589h-0.054c-0.152,0 -0.887,-0.237 -2.206,-0.711c-0.735,1.233 -1.103,1.893 -1.103,1.978l1.823,1.768c1.41,-1.325 2.127,-1.987 2.151,-1.987c1.1,1.44 1.65,2.248 1.65,2.424c-0.602,0.347 -1.65,1.027 -3.145,2.042c-2.892,-0.626 -4.454,-0.975 -4.685,-1.048l-1.431,-4.63z" data-paper-data="{&quot;origPos&quot;:null}" fill="#2bb7c2"/><path d="M157.265,150.58006c2.753,1.415 4.278,2.242 4.576,2.479c-0.395,1.847 -0.629,2.798 -0.702,2.853h-5.76v0.1l1.613,1.996l2.534,-1.294c0.249,0.431 0.607,1.185 1.075,2.26c-0.218,0.073 -1.814,0.307 -4.785,0.702c-2.461,-1.622 -3.7,-2.467 -3.719,-2.534c0.395,-3.153 0.629,-4.73 0.702,-4.73c2.57,-1.094 4.059,-1.705 4.466,-1.832zM156.673,152.78506c-0.049,0.122 -0.371,0.605 -0.966,1.45c0,0.255 0.358,0.382 1.075,0.382c0,0.037 0.52,0.125 1.559,0.265c0.285,-0.395 0.428,-0.626 0.428,-0.693c-0.091,-0.541 -0.288,-0.811 -0.592,-0.811z" data-paper-data="{&quot;origPos&quot;:null}" fill="#2bb7c2"/><path d="M171.092,147.81806c0.322,0.036 1.495,0.307 3.518,0.811l0.055,0.11c-0.298,1.658 -0.477,2.488 -0.538,2.488h-0.054l-1.468,-0.757c0,0.17 -0.055,0.93 -0.164,2.279l2.005,-0.492c0.061,0.182 0.116,0.993 0.164,2.433c-0.194,0.073 -0.862,0.183 -2.005,0.328c0.255,1.094 0.526,2.431 0.811,4.011c-0.935,0.213 -2.053,0.428 -3.354,0.647l-0.055,-0.109c-0.17,-2.814 -0.312,-4.22 -0.428,-4.22c-1.179,0.285 -1.811,0.446 -1.896,0.483c-0.073,-0.353 -0.2,-1.31 -0.383,-2.871l0.11,-0.055h1.95c-0.109,-0.899 -0.273,-2.072 -0.492,-3.518z" data-paper-data="{&quot;origPos&quot;:null}" fill="#2bb7c2"/><path d="M175.504,147.82706c1.859,0.037 3.223,0.055 4.092,0.055c0.079,0 0.319,3.731 0.72,11.192c-0.31,0.079 -1.391,0.28 -3.245,0.602c-0.091,0 -0.392,-2.285 -0.902,-6.854c-0.043,-0.11 -0.264,-1.774 -0.665,-4.995z" data-paper-data="{&quot;origPos&quot;:null}" fill="#2bb7c2"/><path d="M185.01,150.58006c2.309,0.619 3.534,0.996 3.673,1.13c1.27,1.798 1.984,2.835 2.142,3.108c-0.82,2.601 -1.291,3.901 -1.413,3.901c-2.734,0.638 -4.165,0.957 -4.293,0.957c-2.26,-1.319 -3.463,-2.054 -3.609,-2.206c-0.079,-2.455 -0.118,-3.81 -0.118,-4.065c-0.037,-0.073 -0.055,-0.127 -0.055,-0.164c2.333,-1.774 3.539,-2.661 3.618,-2.661zM184.782,153.91606c-0.036,0.243 -0.091,1.127 -0.164,2.652l2.033,0.456c0.486,-1.519 0.729,-2.331 0.729,-2.434c-1.616,-0.486 -2.482,-0.729 -2.598,-0.729z" data-paper-data="{&quot;origPos&quot;:null}" fill="#2bb7c2"/><path d="M195.656,150.57106c0.079,0.103 0.489,1.865 1.23,5.286h0.064c0,-0.079 0.45,-0.775 1.349,-2.087c0.377,0.255 1.094,0.808 2.151,1.659h0.128v-0.064c0.164,-2.37 0.285,-3.682 0.364,-3.938c2.504,0.128 3.756,0.231 3.756,0.31c-1.149,4.618 -1.763,7.018 -1.842,7.201c-0.382,0.042 -1.184,0.164 -2.406,0.364c-1.002,-1.573 -1.577,-2.412 -1.722,-2.515c-0.657,1.75 -1.067,2.713 -1.231,2.889h-2.461c-0.152,-0.049 -0.869,-1.628 -2.151,-4.74c-0.82,-1.737 -1.23,-2.679 -1.23,-2.825c0,-0.134 1.333,-0.647 4.001,-1.54z" data-paper-data="{&quot;origPos&quot;:null}" fill="#2bb7c2"/><path d="M210.859,150.58006c2.753,1.415 4.278,2.242 4.576,2.479c-0.395,1.847 -0.629,2.798 -0.702,2.853h-5.761v0.1l1.614,1.996l2.533,-1.294c0.25,0.431 0.608,1.185 1.076,2.26c-0.219,0.073 -1.814,0.307 -4.785,0.702c-2.461,-1.622 -3.701,-2.467 -3.719,-2.534c0.395,-3.153 0.629,-4.73 0.702,-4.73c2.57,-1.094 4.059,-1.705 4.466,-1.832zM210.267,152.78506c-0.049,0.122 -0.371,0.605 -0.967,1.45c0,0.255 0.359,0.382 1.076,0.382c0,0.037 0.52,0.125 1.559,0.265c0.285,-0.395 0.428,-0.626 0.428,-0.693c-0.091,-0.541 -0.289,-0.811 -0.592,-0.811z" data-paper-data="{&quot;origPos&quot;:null}" fill="#2bb7c2"/><path d="M222.808,150.57106c1.203,0.674 1.942,1.112 2.215,1.312c-0.984,2.048 -1.513,3.09 -1.586,3.126h-0.064l-1.303,-1.139l-1.54,1.878l0.173,3.418c-0.079,0.073 -1.085,0.243 -3.017,0.51c-0.073,-0.523 -0.547,-3.084 -1.422,-7.684c0,-0.072 1.27,-0.261 3.81,-0.565c0.042,0.049 0.158,0.617 0.346,1.705c1.519,-1.708 2.315,-2.561 2.388,-2.561z" data-paper-data="{&quot;origPos&quot;:null}" fill="#2bb7c2"/><path d="M229.754,148.15506l0.036,0.073c-0.608,5.366 -0.948,8.185 -1.021,8.458c-1.288,-0.121 -2.102,-0.206 -2.442,-0.255v-0.036l-0.584,-7.62c0.146,-0.049 1.483,-0.255 4.011,-0.62zM226.144,156.86906c0.043,0.024 0.991,0.097 2.844,0.218l0.037,0.073c-0.286,1.677 -0.468,2.516 -0.547,2.516h-2.115c-0.073,0 -0.17,-0.839 -0.292,-2.516c-0.024,0 -0.036,-0.073 -0.036,-0.218c0.073,-0.025 0.109,-0.049 0.109,-0.073z" data-paper-data="{&quot;origPos&quot;:null}" fill="#000000"/><path d="M235.341,147.81806c2.515,0.529 3.773,0.832 3.773,0.911c-0.164,3.008 -0.325,5.582 -0.483,7.72c0.243,0 1.155,0.082 2.735,0.247c0.607,-5.39 0.951,-8.085 1.03,-8.085c2.23,0.365 3.345,0.586 3.345,0.665c-0.687,5.821 -1.073,8.781 -1.158,8.878c-0.34,0.279 -0.905,0.787 -1.695,1.522c-3.61,-0.109 -5.414,-0.231 -5.414,-0.365l-2.252,-2.615v-3.227c0,-1.246 0.022,-3.108 0.064,-5.587c0.037,0 0.055,-0.022 0.055,-0.064z" data-paper-data="{&quot;origPos&quot;:null}" fill="#000000"/><path d="M253.989,150.57106c1.75,1.118 2.716,1.762 2.899,1.932c-0.632,1.403 -0.994,2.105 -1.085,2.105l-3.318,-1.923h-0.118c0,0.061 -0.143,0.401 -0.429,1.021c3.057,1.647 4.585,2.491 4.585,2.534c-0.857,1.981 -1.34,3.026 -1.449,3.135l-5.186,0.301c-2.018,-1.337 -3.102,-2.042 -3.254,-2.115v-0.054c0,-0.152 0.301,-0.836 0.902,-2.051l4.047,2.105l0.301,-1.203c-2.504,-1.124 -3.992,-1.826 -4.466,-2.105v-0.128c0,-0.231 0.483,-1.255 1.449,-3.071z" data-paper-data="{&quot;origPos&quot;:null}" fill="#000000"/><path d="M262.958,150.58006c2.753,1.415 4.278,2.242 4.576,2.479c-0.395,1.847 -0.629,2.798 -0.702,2.853h-5.761v0.1l1.614,1.996l2.533,-1.294c0.25,0.431 0.608,1.185 1.076,2.26c-0.219,0.073 -1.814,0.307 -4.785,0.702c-2.461,-1.622 -3.701,-2.467 -3.719,-2.534c0.395,-3.153 0.629,-4.73 0.702,-4.73c2.57,-1.094 4.059,-1.705 4.466,-1.832zM262.366,152.78506c-0.049,0.122 -0.371,0.605 -0.967,1.45c0,0.255 0.359,0.382 1.076,0.382c0,0.037 0.519,0.125 1.559,0.265c0.285,-0.395 0.428,-0.626 0.428,-0.693c-0.091,-0.541 -0.289,-0.811 -0.593,-0.811z" data-paper-data="{&quot;origPos&quot;:null}" fill="#000000"/><path d="M281.424,147.81806h0.064c2.115,1.24 3.254,1.887 3.418,1.941v0.11c-0.547,0.626 -1.556,1.71 -3.026,3.254c2.88,1.069 4.496,1.713 4.849,1.932l-2.68,3.309c-1.811,-1.544 -2.968,-2.513 -3.472,-2.908c-1.222,2.388 -1.981,3.795 -2.279,4.22h-0.064c-2.266,-0.796 -3.5,-1.27 -3.7,-1.422v-0.064l3.135,-4.101c-2.911,-1.197 -4.469,-1.899 -4.676,-2.106c1.282,-2.175 2.005,-3.336 2.169,-3.481c0.019,0.06 1.422,1.029 4.211,2.907c0.991,-1.823 1.674,-3.02 2.051,-3.591z" data-paper-data="{&quot;origPos&quot;:null}" fill="#2b70c2"/><path d="M295.005,147.81806l4.01,0.711l-0.383,3.044c0.796,-0.042 1.38,-0.064 1.75,-0.064h0.584l0.127,-0.063l0.064,0.127c-0.127,1.847 -0.237,2.886 -0.328,3.117l-0.127,-0.073c-0.092,0 -0.912,-0.042 -2.461,-0.127c-0.086,1.428 -0.149,3.135 -0.192,5.122l-0.127,0.064c-1.957,-0.128 -3.124,-0.237 -3.5,-0.328l0.063,-0.255c0,-0.529 0.085,-2.17 0.256,-4.922c-1.641,-0.091 -2.461,-0.201 -2.461,-0.328c0.085,-2.03 0.194,-3.045 0.328,-3.045l2.397,0.456v-0.784c0,-0.638 -0.024,-1.501 -0.073,-2.588c0.049,0 0.073,-0.022 0.073,-0.064z" data-paper-data="{&quot;origPos&quot;:null}" fill="#000000"/><path d="M305.797,150.58006c2.309,0.619 3.533,0.996 3.673,1.13c1.27,1.798 1.984,2.835 2.142,3.108c-0.821,2.601 -1.292,3.901 -1.413,3.901c-2.734,0.638 -4.165,0.957 -4.293,0.957c-2.26,-1.319 -3.464,-2.054 -3.609,-2.206c-0.079,-2.455 -0.119,-3.81 -0.119,-4.065c-0.036,-0.073 -0.055,-0.127 -0.055,-0.164c2.334,-1.774 3.54,-2.661 3.619,-2.661zM305.569,153.91606c-0.037,0.243 -0.091,1.127 -0.164,2.652l2.032,0.456c0.486,-1.519 0.729,-2.331 0.729,-2.434c-1.616,-0.486 -2.482,-0.729 -2.597,-0.729z" data-paper-data="{&quot;origPos&quot;:null}" fill="#000000"/><path d="M324.427,150.57106c1.75,1.118 2.716,1.762 2.898,1.932c-0.632,1.403 -0.993,2.105 -1.084,2.105l-3.318,-1.923h-0.119c0,0.061 -0.142,0.401 -0.428,1.021c3.056,1.647 4.585,2.491 4.585,2.534c-0.857,1.981 -1.34,3.026 -1.45,3.135l-5.186,0.301c-2.017,-1.337 -3.102,-2.042 -3.254,-2.115v-0.054c0,-0.152 0.301,-0.836 0.903,-2.051l4.047,2.105l0.3,-1.203c-2.503,-1.124 -3.992,-1.826 -4.466,-2.105v-0.128c0,-0.231 0.483,-1.255 1.449,-3.071z" data-paper-data="{&quot;origPos&quot;:null}" fill="#000000"/><path d="M332.311,147.81806c0.036,0.055 0.207,1.72 0.51,4.995c2.346,-0.717 3.595,-1.076 3.746,-1.076l2.325,1.586c-0.377,3.464 -0.623,5.487 -0.739,6.07l-3.226,0.11c0,-0.037 -0.021,-0.055 -0.064,-0.055l0.064,-0.228c0,-0.492 0.073,-1.987 0.219,-4.484c-0.888,-0.037 -1.547,-0.055 -1.978,-0.055h-0.228c0.261,2.777 0.392,4.29 0.392,4.539l-3.063,0.456c-0.115,-0.389 -0.796,-4.02 -2.041,-10.892c0,-0.194 0.474,-0.346 1.421,-0.456c1.197,-0.34 2.085,-0.51 2.662,-0.51z" data-paper-data="{&quot;origPos&quot;:null}" fill="#000000"/><path d="M343.422,150.58006c2.309,0.619 3.533,0.996 3.673,1.13c1.27,1.798 1.984,2.835 2.142,3.108c-0.821,2.601 -1.292,3.901 -1.413,3.901c-2.734,0.638 -4.165,0.957 -4.293,0.957c-2.26,-1.319 -3.464,-2.054 -3.609,-2.206c-0.079,-2.455 -0.119,-3.81 -0.119,-4.065c-0.036,-0.073 -0.055,-0.127 -0.055,-0.164c2.334,-1.774 3.54,-2.661 3.619,-2.661zM343.194,153.91606c-0.037,0.243 -0.091,1.127 -0.164,2.652l2.032,0.456c0.486,-1.519 0.729,-2.331 0.729,-2.434c-1.616,-0.486 -2.482,-0.729 -2.597,-0.729z" data-paper-data="{&quot;origPos&quot;:null}" fill="#000000"/><path d="M353.739,150.58006c2.309,0.619 3.534,0.996 3.673,1.13c1.27,1.798 1.984,2.835 2.142,3.108c-0.82,2.601 -1.291,3.901 -1.412,3.901c-2.735,0.638 -4.166,0.957 -4.293,0.957c-2.261,-1.319 -3.464,-2.054 -3.61,-2.206c-0.079,-2.455 -0.118,-3.81 -0.118,-4.065c-0.037,-0.073 -0.055,-0.127 -0.055,-0.164c2.333,-1.774 3.54,-2.661 3.619,-2.661zM353.511,153.91606c-0.036,0.243 -0.091,1.127 -0.164,2.652l2.033,0.456c0.486,-1.519 0.729,-2.331 0.729,-2.434c-1.616,-0.486 -2.482,-0.729 -2.598,-0.729z" data-paper-data="{&quot;origPos&quot;:null}" fill="#000000"/><path d="M363.109,147.81806l4.01,0.711l-0.382,3.044c0.796,-0.042 1.379,-0.064 1.75,-0.064h0.583l0.128,-0.063l0.063,0.127c-0.127,1.847 -0.237,2.886 -0.328,3.117l-0.127,-0.073c-0.091,0 -0.912,-0.042 -2.461,-0.127c-0.085,1.428 -0.149,3.135 -0.192,5.122l-0.127,0.064c-1.957,-0.128 -3.124,-0.237 -3.5,-0.328l0.064,-0.255c0,-0.529 0.085,-2.17 0.255,-4.922c-1.641,-0.091 -2.461,-0.201 -2.461,-0.328c0.085,-2.03 0.194,-3.045 0.328,-3.045l2.397,0.456v-0.784c0,-0.638 -0.024,-1.501 -0.073,-2.588c0.049,0 0.073,-0.022 0.073,-0.064z" data-paper-data="{&quot;origPos&quot;:null}" fill="#000000"/><path d="M376.116,146.91606l3.582,0.565c-0.45,1.719 -0.745,2.579 -0.885,2.579c-1.883,-0.127 -2.825,-0.252 -2.825,-0.374v-2.643c0.018,-0.085 0.061,-0.127 0.128,-0.127zM375.113,151.25407h0.055c2.77,0.504 4.156,0.799 4.156,0.884c-0.796,4.509 -1.279,7.022 -1.449,7.538h-2.89c-0.085,0 -0.127,-0.043 -0.127,-0.128z" data-paper-data="{&quot;origPos&quot;:null}" fill="#2b70c2"/><path d="M383.58,150.58006c2.741,0.516 4.175,0.811 4.302,0.884v0.109c-0.589,1.665 -0.884,2.528 -0.884,2.589h-0.054c-0.152,0 -0.887,-0.237 -2.206,-0.711c-0.735,1.233 -1.103,1.893 -1.103,1.978l1.823,1.768c1.41,-1.325 2.127,-1.987 2.151,-1.987c1.1,1.44 1.65,2.248 1.65,2.424c-0.602,0.347 -1.65,1.027 -3.145,2.042c-2.892,-0.626 -4.454,-0.975 -4.685,-1.048l-1.431,-4.63z" data-paper-data="{&quot;origPos&quot;:null}" fill="#2b70c2"/><path d="M395.338,150.58006c2.753,1.415 4.278,2.242 4.576,2.479c-0.395,1.847 -0.629,2.798 -0.702,2.853h-5.761v0.1l1.614,1.996l2.534,-1.294c0.249,0.431 0.607,1.185 1.075,2.26c-0.219,0.073 -1.814,0.307 -4.785,0.702c-2.461,-1.622 -3.701,-2.467 -3.719,-2.534c0.395,-3.153 0.629,-4.73 0.702,-4.73c2.57,-1.094 4.059,-1.705 4.466,-1.832zM394.746,152.78506c-0.049,0.122 -0.371,0.605 -0.966,1.45c0,0.255 0.358,0.382 1.075,0.382c0,0.037 0.52,0.125 1.559,0.265c0.285,-0.395 0.428,-0.626 0.428,-0.693c-0.091,-0.541 -0.289,-0.811 -0.592,-0.811z" data-paper-data="{&quot;origPos&quot;:null}" fill="#2b70c2"/><path d="M405,147.81806l0.064,0.118c0,0.347 0.078,1.687 0.236,4.02c2.176,-0.693 3.394,-1.057 3.655,-1.094l3.282,3.528c-1.38,3.092 -2.13,4.733 -2.252,4.921c-0.382,-0.042 -1.78,-0.103 -4.192,-0.182v0.429c0,0.079 -0.043,0.118 -0.128,0.118h-3.527c-0.128,0 -0.371,-1.823 -0.729,-5.469c-0.079,-0.31 -0.301,-2.136 -0.666,-5.478c2.066,-0.486 3.485,-0.79 4.257,-0.911zM405.61,154.50806l0.237,2.251h1.832l0.666,-2.552c-1.823,0.158 -2.735,0.259 -2.735,0.301z" data-paper-data="{&quot;origPos&quot;:null}" fill="#2b70c2"/><path d="M414.561,150.57106c3.609,0.498 5.414,0.805 5.414,0.92c1.422,1.221 2.133,1.875 2.133,1.96c-0.577,1.804 -0.906,2.901 -0.985,3.29c0.578,1.282 0.906,2.048 0.985,2.297c0,0.073 -0.942,0.267 -2.826,0.583c-0.024,-0.103 -0.197,-0.334 -0.519,-0.692c-2.601,0.498 -4.002,0.747 -4.202,0.747l-1.386,-3.746l3.054,-1.613c0.492,0.079 1.261,0.118 2.306,0.118c0,-0.134 0.018,-0.538 0.055,-1.212c-0.177,0 -1.75,0.115 -4.722,0.346l-0.055,-0.118c0.414,-1.92 0.663,-2.88 0.748,-2.88zM416.457,155.93006c0,0.067 0.194,0.778 0.583,2.133h0.055c0.765,-0.499 1.148,-0.827 1.148,-0.985l0.119,-0.975c-0.146,0 -0.781,-0.058 -1.905,-0.173z" data-paper-data="{&quot;origPos&quot;:null}" fill="#2b70c2"/><path d="M422.983,147.82706c1.859,0.037 3.223,0.055 4.092,0.055c0.079,0 0.319,3.731 0.72,11.192c-0.31,0.079 -1.391,0.28 -3.245,0.602c-0.091,0 -0.391,-2.285 -0.902,-6.854c-0.042,-0.11 -0.264,-1.774 -0.665,-4.995z" data-paper-data="{&quot;origPos&quot;:null}" fill="#2b70c2"/><path d="M428.816,147.82706c1.859,0.037 3.224,0.055 4.093,0.055c0.079,0 0.319,3.731 0.72,11.192c-0.31,0.079 -1.392,0.28 -3.245,0.602c-0.091,0 -0.392,-2.285 -0.903,-6.854c-0.042,-0.11 -0.264,-1.774 -0.665,-4.995z" data-paper-data="{&quot;origPos&quot;:null}" fill="#2b70c2"/><path d="M442.005,150.57106c1.75,1.118 2.716,1.762 2.898,1.932c-0.632,1.403 -0.993,2.105 -1.084,2.105l-3.318,-1.923h-0.118c0,0.061 -0.143,0.401 -0.429,1.021c3.057,1.647 4.585,2.491 4.585,2.534c-0.857,1.981 -1.34,3.026 -1.449,3.135l-5.187,0.301c-2.017,-1.337 -3.102,-2.042 -3.254,-2.115v-0.054c0,-0.152 0.301,-0.836 0.903,-2.051l4.047,2.105l0.3,-1.203c-2.503,-1.124 -3.992,-1.826 -4.466,-2.105v-0.128c0,-0.231 0.483,-1.255 1.45,-3.071z" data-paper-data="{&quot;origPos&quot;:null}" fill="#2b70c2"/><path d="M33.535,173.90406c3.609,0.498 5.414,0.805 5.414,0.92c1.422,1.222 2.133,1.875 2.133,1.96c-0.578,1.805 -0.906,2.902 -0.985,3.29c0.578,1.283 0.906,2.048 0.985,2.297c0,0.073 -0.942,0.268 -2.826,0.584c-0.024,-0.104 -0.197,-0.335 -0.519,-0.693c-2.601,0.498 -4.002,0.747 -4.202,0.747l-1.386,-3.746l3.054,-1.613c0.492,0.079 1.261,0.118 2.306,0.118c0,-0.133 0.018,-0.537 0.055,-1.212c-0.177,0 -1.75,0.116 -4.722,0.347l-0.055,-0.119c0.414,-1.92 0.663,-2.88 0.748,-2.88zM35.431,179.26308c0,0.067 0.194,0.778 0.583,2.133h0.055c0.765,-0.498 1.148,-0.826 1.148,-0.984l0.119,-0.976c-0.146,0 -0.781,-0.057 -1.905,-0.173z" data-paper-data="{&quot;origPos&quot;:null}" fill="#000000"/><path d="M50.05,173.90406l3.036,2.087c-0.213,3.464 -0.362,5.487 -0.447,6.07c-0.352,0.043 -1.425,0.107 -3.217,0.192l-0.064,-0.128l-0.319,-4.867l-0.128,-0.064c-1.16,0.249 -1.959,0.438 -2.397,0.565c0.122,2.072 0.182,3.57 0.182,4.494c-1.81,0.504 -2.801,0.756 -2.971,0.756c-1.179,-5.189 -1.768,-7.929 -1.768,-8.221c2.564,-0.334 3.955,-0.501 4.174,-0.501v0.064c0.043,0.03 0.107,0.662 0.192,1.895c2.351,-1.561 3.594,-2.342 3.727,-2.342z" data-paper-data="{&quot;origPos&quot;:null}" fill="#000000"/><path d="M59.502,171.14206h0.055c2.747,0.231 4.12,0.41 4.12,0.538l1.212,10.728c0,0.079 -1.212,0.279 -3.637,0.601l-0.054,-0.118v-0.975c-2.091,0.565 -3.525,0.929 -4.302,1.093c-1.848,-2.612 -2.817,-4.004 -2.908,-4.174c1.361,-2.473 2.087,-3.725 2.178,-3.755l3.819,0.182c-0.079,-0.468 -0.24,-1.841 -0.483,-4.12zM57.807,177.67707c0.614,1.878 0.997,2.908 1.148,3.09l1.814,-1.577c-0.188,-1.087 -0.328,-1.631 -0.419,-1.631h-2.425c-0.079,0.012 -0.118,0.051 -0.118,0.118z" data-paper-data="{&quot;origPos&quot;:null}" fill="#000000"/><path d="M74.259,171.15108c0.322,0.037 1.495,0.307 3.518,0.811l0.055,0.11c-0.298,1.659 -0.477,2.488 -0.538,2.488h-0.055l-1.467,-0.756c0,0.17 -0.055,0.929 -0.164,2.278l2.005,-0.492c0.061,0.182 0.115,0.994 0.164,2.434c-0.194,0.073 -0.863,0.182 -2.005,0.328c0.255,1.094 0.525,2.43 0.811,4.01c-0.936,0.213 -2.054,0.429 -3.354,0.647l-0.055,-0.109c-0.17,-2.813 -0.313,-4.22 -0.428,-4.22c-1.179,0.286 -1.811,0.447 -1.896,0.483c-0.073,-0.352 -0.201,-1.309 -0.383,-2.871l0.11,-0.055h1.95c-0.109,-0.899 -0.273,-2.072 -0.492,-3.518z" data-paper-data="{&quot;origPos&quot;:null}" fill="#2b70c2"/><path d="M85.215,173.90406c1.203,0.674 1.941,1.112 2.214,1.312c-0.984,2.048 -1.513,3.09 -1.586,3.127h-0.063l-1.304,-1.14l-1.54,1.878l0.173,3.418c-0.079,0.073 -1.085,0.243 -3.017,0.51c-0.073,-0.522 -0.547,-3.083 -1.422,-7.683c0,-0.073 1.27,-0.262 3.81,-0.565c0.043,0.048 0.158,0.616 0.347,1.704c1.519,-1.707 2.315,-2.561 2.388,-2.561z" data-paper-data="{&quot;origPos&quot;:null}" fill="#2b70c2"/><path d="M93.317,173.91308c2.753,1.416 4.278,2.242 4.576,2.479c-0.395,1.847 -0.629,2.798 -0.702,2.853h-5.76v0.1l1.613,1.996l2.534,-1.294c0.249,0.432 0.607,1.185 1.075,2.261c-0.218,0.072 -1.813,0.306 -4.785,0.701c-2.461,-1.622 -3.7,-2.467 -3.719,-2.533c0.395,-3.154 0.629,-4.731 0.702,-4.731c2.571,-1.094 4.059,-1.704 4.466,-1.832zM92.725,176.11906c-0.049,0.121 -0.371,0.604 -0.966,1.449c0,0.255 0.358,0.383 1.075,0.383c0,0.036 0.52,0.124 1.559,0.264c0.286,-0.395 0.428,-0.626 0.428,-0.693c-0.091,-0.54 -0.288,-0.811 -0.592,-0.811z" data-paper-data="{&quot;origPos&quot;:null}" fill="#2b70c2"/><path d="M103.89,173.91308c2.753,1.416 4.278,2.242 4.576,2.479c-0.395,1.847 -0.629,2.798 -0.702,2.853h-5.76v0.1l1.613,1.996l2.534,-1.294c0.249,0.432 0.607,1.185 1.075,2.261c-0.218,0.072 -1.814,0.306 -4.785,0.701c-2.461,-1.622 -3.7,-2.467 -3.719,-2.533c0.395,-3.154 0.629,-4.731 0.702,-4.731c2.57,-1.094 4.059,-1.704 4.466,-1.832zM103.298,176.11906c-0.049,0.121 -0.371,0.604 -0.966,1.449c0,0.255 0.358,0.383 1.075,0.383c0,0.036 0.52,0.124 1.559,0.264c0.285,-0.395 0.428,-0.626 0.428,-0.693c-0.091,-0.54 -0.288,-0.811 -0.592,-0.811z" data-paper-data="{&quot;origPos&quot;:null}" fill="#2b70c2"/><path d="M116.924,173.89508c0.875,1.738 1.313,2.637 1.313,2.698c-0.073,0 -1.143,1.03 -3.209,3.09h0.055c0.055,0 1.03,-0.326 2.926,-0.976c0.079,0.073 0.27,1.164 0.574,3.272c0,0.098 -2.464,0.441 -7.392,1.03c-0.079,-0.206 -0.27,-0.951 -0.574,-2.233c0.206,-0.285 1.2,-1.47 2.98,-3.554h-0.063l-3.382,1.139c-0.115,-0.267 -0.401,-1.586 -0.857,-3.956c0,-0.225 0.918,-0.337 2.753,-0.337z" data-paper-data="{&quot;origPos&quot;:null}" fill="#2b70c2"/><path d="M124.672,173.91308c2.752,1.416 4.277,2.242 4.575,2.479c-0.395,1.847 -0.629,2.798 -0.702,2.853h-5.76v0.1l1.613,1.996l2.534,-1.294c0.249,0.432 0.608,1.185 1.076,2.261c-0.219,0.072 -1.814,0.306 -4.786,0.701c-2.461,-1.622 -3.7,-2.467 -3.718,-2.533c0.395,-3.154 0.629,-4.731 0.701,-4.731c2.571,-1.094 4.059,-1.704 4.467,-1.832zM124.079,176.11906c-0.048,0.121 -0.371,0.604 -0.966,1.449c0,0.255 0.358,0.383 1.076,0.383c0,0.036 0.519,0.124 1.558,0.264c0.286,-0.395 0.428,-0.626 0.428,-0.693c-0.091,-0.54 -0.288,-0.811 -0.592,-0.811z" data-paper-data="{&quot;origPos&quot;:null}" fill="#2b70c2"/><path d="M139.875,173.91308c2.752,1.416 4.277,2.242 4.575,2.479c-0.395,1.847 -0.629,2.798 -0.702,2.853h-5.76v0.1l1.613,1.996l2.534,-1.294c0.249,0.432 0.608,1.185 1.076,2.261c-0.219,0.072 -1.814,0.306 -4.786,0.701c-2.46,-1.622 -3.7,-2.467 -3.718,-2.533c0.395,-3.154 0.629,-4.731 0.702,-4.731c2.57,-1.094 4.059,-1.704 4.466,-1.832zM139.282,176.11906c-0.048,0.121 -0.37,0.604 -0.966,1.449c0,0.255 0.359,0.383 1.076,0.383c0,0.036 0.519,0.124 1.558,0.264c0.286,-0.395 0.429,-0.626 0.429,-0.693c-0.092,-0.54 -0.289,-0.811 -0.593,-0.811z" data-paper-data="{&quot;origPos&quot;:null}" fill="#2b70c2"/><path d="M153.373,173.90406l3.036,2.087c-0.213,3.464 -0.362,5.487 -0.447,6.07c-0.352,0.043 -1.425,0.107 -3.218,0.192l-0.063,-0.128l-0.319,-4.867l-0.128,-0.064c-1.161,0.249 -1.96,0.438 -2.397,0.565c0.121,2.072 0.182,3.57 0.182,4.494c-1.811,0.504 -2.801,0.756 -2.971,0.756c-1.179,-5.189 -1.768,-7.929 -1.768,-8.221c2.564,-0.334 3.955,-0.501 4.174,-0.501v0.064c0.043,0.03 0.106,0.662 0.192,1.895c2.351,-1.561 3.594,-2.342 3.727,-2.342z" data-paper-data="{&quot;origPos&quot;:null}" fill="#2b70c2"/><path d="M162.479,173.91308c2.752,1.416 4.278,2.242 4.575,2.479c-0.395,1.847 -0.629,2.798 -0.701,2.853h-5.761v0.1l1.613,1.996l2.534,-1.294c0.249,0.432 0.608,1.185 1.076,2.261c-0.219,0.072 -1.814,0.306 -4.785,0.701c-2.461,-1.622 -3.701,-2.467 -3.719,-2.533c0.395,-3.154 0.629,-4.731 0.702,-4.731c2.57,-1.094 4.059,-1.704 4.466,-1.832zM161.886,176.11906c-0.048,0.121 -0.37,0.604 -0.966,1.449c0,0.255 0.359,0.383 1.076,0.383c0,0.036 0.519,0.124 1.558,0.264c0.286,-0.395 0.429,-0.626 0.429,-0.693c-0.091,-0.54 -0.289,-0.811 -0.593,-0.811z" data-paper-data="{&quot;origPos&quot;:null}" fill="#2b70c2"/><path d="M178.01,173.90406c1.483,0.614 2.762,1.191 3.837,1.732c-0.279,3.615 -0.458,5.593 -0.537,5.933c-1.787,0.444 -2.786,0.666 -2.999,0.666c0,-0.79 -0.061,-2.349 -0.182,-4.676c-0.675,0.067 -1.012,0.124 -1.012,0.173c0,0.231 0.039,1.549 0.118,3.956c0.037,0 0.055,0.021 0.055,0.064c0,0.072 -0.939,0.273 -2.816,0.601c-0.079,-0.097 -0.319,-1.577 -0.72,-4.439c-0.76,0.195 -1.14,0.335 -1.14,0.42l0.365,3.718c-0.073,0.079 -1.073,0.398 -2.999,0.957c-1.118,-3.955 -1.817,-6.611 -2.096,-7.966c2.108,-0.522 3.287,-0.784 3.536,-0.784c0.28,1.106 0.42,1.744 0.42,1.914h0.063c1.027,-0.948 1.744,-1.586 2.151,-1.914h0.064l1.914,1.377h0.064c1.197,-1.155 1.835,-1.732 1.914,-1.732z" data-paper-data="{&quot;origPos&quot;:null}" fill="#2b70c2"/><path d="M184.017,170.24906l3.582,0.565c-0.45,1.72 -0.745,2.579 -0.884,2.579c-1.884,-0.127 -2.826,-0.252 -2.826,-0.373v-2.643c0.018,-0.086 0.061,-0.128 0.128,-0.128zM183.014,174.58708h0.055c2.771,0.505 4.156,0.8 4.156,0.885c-0.796,4.508 -1.279,7.021 -1.449,7.537h-2.89c-0.085,0 -0.127,-0.042 -0.127,-0.127z" data-paper-data="{&quot;origPos&quot;:null}" fill="#2b70c2"/><path d="M193.067,173.91308c2.753,1.416 4.278,2.242 4.576,2.479c-0.395,1.847 -0.629,2.798 -0.702,2.853h-5.76v0.1l1.613,1.996l2.534,-1.294c0.249,0.432 0.607,1.185 1.075,2.261c-0.218,0.072 -1.813,0.306 -4.785,0.701c-2.461,-1.622 -3.7,-2.467 -3.719,-2.533c0.395,-3.154 0.629,-4.731 0.702,-4.731c2.571,-1.094 4.059,-1.704 4.466,-1.832zM192.475,176.11906c-0.049,0.121 -0.371,0.604 -0.966,1.449c0,0.255 0.358,0.383 1.075,0.383c0,0.036 0.52,0.124 1.559,0.264c0.286,-0.395 0.428,-0.626 0.428,-0.693c-0.091,-0.54 -0.288,-0.811 -0.592,-0.811z" data-paper-data="{&quot;origPos&quot;:null}" fill="#2b70c2"/><path d="M205.828,173.90406c1.75,1.118 2.716,1.762 2.898,1.932c-0.632,1.404 -0.993,2.106 -1.084,2.106l-3.318,-1.924h-0.119c0,0.061 -0.142,0.402 -0.428,1.021c3.056,1.647 4.585,2.492 4.585,2.534c-0.857,1.981 -1.34,3.026 -1.45,3.136l-5.186,0.3c-2.017,-1.336 -3.102,-2.041 -3.254,-2.114v-0.055c0,-0.152 0.301,-0.835 0.903,-2.051l4.047,2.106l0.3,-1.203c-2.503,-1.124 -3.992,-1.826 -4.466,-2.106v-0.127c0,-0.231 0.483,-1.255 1.449,-3.072z" data-paper-data="{&quot;origPos&quot;:null}" fill="#2b70c2"/><path d="M209.738,180.20206c0.043,0.024 0.99,0.097 2.844,0.219l0.036,0.073c-0.285,1.677 -0.468,2.515 -0.547,2.515h-2.114c-0.073,0 -0.17,-0.838 -0.292,-2.515c-0.024,0 -0.036,-0.073 -0.036,-0.219c0.073,-0.024 0.109,-0.049 0.109,-0.073z" data-paper-data="{&quot;origPos&quot;:null}" fill="#000000"/><path d="M224.549,171.15108c0.134,0.146 1.437,1.1 3.91,2.862v0.055c-0.504,2.078 -0.835,3.266 -0.993,3.564l-1.923,1.112c2.278,1.646 3.427,2.503 3.445,2.57c-0.808,0.389 -2.054,0.954 -3.737,1.695c-1.951,-2.667 -2.926,-4.031 -2.926,-4.092h-0.109c-0.043,1.562 -0.064,2.634 -0.064,3.217c-0.024,0.274 -0.082,0.411 -0.173,0.411h-2.744c-0.127,0 -0.322,-1.696 -0.583,-5.086c-0.121,-0.742 -0.298,-2.455 -0.529,-5.141c0.705,-0.152 2.847,-0.541 6.426,-1.167zM222.034,173.72208v0.054c0,0.371 0.021,1.696 0.063,3.974h0.055c1.483,-0.346 2.224,-0.58 2.224,-0.702l0.52,-2.333z" data-paper-data="{&quot;origPos&quot;:null}" fill="#000000"/><path d="M234.894,173.90406l0.064,0.118l-1.23,6.526h0.063l3.136,-0.92v-3.692c0.012,-0.085 0.051,-0.127 0.118,-0.127c2.358,0.164 3.67,0.246 3.938,0.246c0,0.042 0.021,0.064 0.064,0.064c0,1.039 -0.329,3.193 -0.985,6.462c0,0.188 -0.942,0.331 -2.825,0.428c-0.098,-0.115 -0.18,-0.361 -0.246,-0.738c-2.413,0.492 -3.789,0.738 -4.129,0.738c-1.927,-1.434 -2.89,-2.172 -2.89,-2.214c0.328,-4.309 0.535,-6.545 0.62,-6.709h0.055c1.537,-0.042 2.953,-0.103 4.247,-0.182z" data-paper-data="{&quot;origPos&quot;:null}" fill="#000000"/><path d="M250.061,173.90406l3.035,2.087c-0.213,3.464 -0.361,5.487 -0.447,6.07c-0.352,0.043 -1.424,0.107 -3.217,0.192l-0.064,-0.128l-0.319,-4.867l-0.127,-0.064c-1.161,0.249 -1.96,0.438 -2.398,0.565c0.122,2.072 0.183,3.57 0.183,4.494c-1.811,0.504 -2.801,0.756 -2.972,0.756c-1.178,-5.189 -1.768,-7.929 -1.768,-8.221c2.564,-0.334 3.956,-0.501 4.175,-0.501v0.064c0.042,0.03 0.106,0.662 0.191,1.895c2.352,-1.561 3.594,-2.342 3.728,-2.342z" data-paper-data="{&quot;origPos&quot;:null}" fill="#000000"/><path d="M259.886,170.24906l3.582,0.565c-0.449,1.72 -0.744,2.579 -0.884,2.579c-1.883,-0.127 -2.825,-0.252 -2.825,-0.373v-2.643c0.018,-0.086 0.061,-0.128 0.127,-0.128zM258.884,174.58708h0.055c2.77,0.505 4.156,0.8 4.156,0.885c-0.796,4.508 -1.279,7.021 -1.449,7.537h-2.89c-0.085,0 -0.127,-0.042 -0.127,-0.127z" data-paper-data="{&quot;origPos&quot;:null}" fill="#000000"/><path d="M271.863,173.90406l3.035,2.087c-0.213,3.464 -0.361,5.487 -0.446,6.07c-0.353,0.043 -1.425,0.107 -3.218,0.192l-0.064,-0.128l-0.319,-4.867l-0.127,-0.064c-1.161,0.249 -1.96,0.438 -2.397,0.565c0.121,2.072 0.182,3.57 0.182,4.494c-1.811,0.504 -2.801,0.756 -2.972,0.756c-1.178,-5.189 -1.768,-7.929 -1.768,-8.221c2.564,-0.334 3.956,-0.501 4.175,-0.501v0.064c0.042,0.03 0.106,0.662 0.191,1.895c2.352,-1.561 3.594,-2.342 3.728,-2.342z" data-paper-data="{&quot;origPos&quot;:null}" fill="#000000"/><path d="M278.526,171.15108l4.01,0.711l-0.383,3.044c0.796,-0.042 1.38,-0.063 1.75,-0.063h0.584l0.127,-0.064l0.064,0.127c-0.128,1.848 -0.237,2.887 -0.328,3.118l-0.128,-0.073c-0.091,0 -0.911,-0.043 -2.461,-0.128c-0.085,1.428 -0.148,3.136 -0.191,5.123l-0.128,0.063c-1.956,-0.127 -3.123,-0.237 -3.5,-0.328l0.064,-0.255c0,-0.529 0.085,-2.169 0.255,-4.922c-1.64,-0.091 -2.461,-0.2 -2.461,-0.328c0.086,-2.029 0.195,-3.044 0.329,-3.044l2.397,0.455v-0.783c0,-0.638 -0.025,-1.501 -0.073,-2.589c0.048,0 0.073,-0.021 0.073,-0.064z" data-paper-data="{&quot;origPos&quot;:null}" fill="#000000"/><path d="M289.317,173.91308c2.309,0.62 3.534,0.997 3.674,1.13c1.27,1.799 1.984,2.835 2.142,3.108c-0.821,2.601 -1.292,3.901 -1.413,3.901c-2.735,0.638 -4.166,0.957 -4.293,0.957c-2.261,-1.318 -3.464,-2.053 -3.61,-2.205c-0.079,-2.455 -0.118,-3.81 -0.118,-4.065c-0.037,-0.073 -0.055,-0.128 -0.055,-0.165c2.334,-1.774 3.54,-2.661 3.619,-2.661zM289.09,177.24906c-0.037,0.243 -0.092,1.127 -0.165,2.652l2.033,0.456c0.486,-1.519 0.729,-2.33 0.729,-2.434c-1.616,-0.486 -2.482,-0.729 -2.597,-0.729z" data-paper-data="{&quot;origPos&quot;:null}" fill="#000000"/><path d="M304.384,171.15108c0.322,0.037 1.495,0.307 3.518,0.811l0.055,0.11c-0.298,1.659 -0.477,2.488 -0.538,2.488h-0.055l-1.467,-0.756c0,0.17 -0.055,0.929 -0.164,2.278l2.005,-0.492c0.061,0.182 0.115,0.994 0.164,2.434c-0.194,0.073 -0.863,0.182 -2.005,0.328c0.255,1.094 0.525,2.43 0.811,4.01c-0.936,0.213 -2.054,0.429 -3.354,0.647l-0.055,-0.109c-0.17,-2.813 -0.313,-4.22 -0.428,-4.22c-1.179,0.286 -1.811,0.447 -1.896,0.483c-0.073,-0.352 -0.201,-1.309 -0.383,-2.871l0.11,-0.055h1.95c-0.109,-0.899 -0.273,-2.072 -0.492,-3.518z" data-paper-data="{&quot;origPos&quot;:null}" fill="#000000"/><path d="M315.34,173.90406c1.203,0.674 1.941,1.112 2.214,1.312c-0.984,2.048 -1.513,3.09 -1.586,3.127h-0.063l-1.304,-1.14l-1.54,1.878l0.173,3.418c-0.079,0.073 -1.085,0.243 -3.017,0.51c-0.073,-0.522 -0.547,-3.083 -1.422,-7.683c0,-0.073 1.27,-0.262 3.81,-0.565c0.043,0.048 0.158,0.616 0.347,1.704c1.519,-1.707 2.315,-2.561 2.388,-2.561z" data-paper-data="{&quot;origPos&quot;:null}" fill="#000000"/><path d="M321.948,173.91308c2.309,0.62 3.533,0.997 3.673,1.13c1.27,1.799 1.984,2.835 2.142,3.108c-0.821,2.601 -1.292,3.901 -1.413,3.901c-2.734,0.638 -4.165,0.957 -4.293,0.957c-2.26,-1.318 -3.464,-2.053 -3.609,-2.205c-0.079,-2.455 -0.119,-3.81 -0.119,-4.065c-0.036,-0.073 -0.055,-0.128 -0.055,-0.165c2.334,-1.774 3.54,-2.661 3.619,-2.661zM321.72,177.24906c-0.037,0.243 -0.091,1.127 -0.164,2.652l2.032,0.456c0.486,-1.519 0.729,-2.33 0.729,-2.434c-1.616,-0.486 -2.482,-0.729 -2.597,-0.729z" data-paper-data="{&quot;origPos&quot;:null}" fill="#000000"/><path d="M336.221,173.89508c0.875,1.738 1.313,2.637 1.313,2.698c-0.073,0 -1.143,1.03 -3.209,3.09h0.055c0.055,0 1.03,-0.326 2.926,-0.976c0.079,0.073 0.27,1.164 0.574,3.272c0,0.098 -2.464,0.441 -7.392,1.03c-0.079,-0.206 -0.27,-0.951 -0.574,-2.233c0.206,-0.285 1.2,-1.47 2.98,-3.554h-0.064l-3.381,1.139c-0.116,-0.267 -0.401,-1.586 -0.857,-3.956c0,-0.225 0.918,-0.337 2.753,-0.337z" data-paper-data="{&quot;origPos&quot;:null}" fill="#000000"/><path d="M343.968,173.91308c2.753,1.416 4.278,2.242 4.576,2.479c-0.395,1.847 -0.629,2.798 -0.702,2.853h-5.76v0.1l1.613,1.996l2.534,-1.294c0.249,0.432 0.607,1.185 1.075,2.261c-0.218,0.072 -1.813,0.306 -4.785,0.701c-2.461,-1.622 -3.7,-2.467 -3.719,-2.533c0.395,-3.154 0.629,-4.731 0.702,-4.731c2.571,-1.094 4.059,-1.704 4.466,-1.832zM343.376,176.11906c-0.049,0.121 -0.371,0.604 -0.966,1.449c0,0.255 0.358,0.383 1.075,0.383c0,0.036 0.52,0.124 1.559,0.264c0.286,-0.395 0.428,-0.626 0.428,-0.693c-0.091,-0.54 -0.288,-0.811 -0.592,-0.811z" data-paper-data="{&quot;origPos&quot;:null}" fill="#000000"/><path d="M357.467,173.90406l3.035,2.087c-0.212,3.464 -0.361,5.487 -0.446,6.07c-0.353,0.043 -1.425,0.107 -3.218,0.192l-0.064,-0.128l-0.319,-4.867l-0.127,-0.064c-1.161,0.249 -1.96,0.438 -2.397,0.565c0.121,2.072 0.182,3.57 0.182,4.494c-1.811,0.504 -2.801,0.756 -2.971,0.756c-1.179,-5.189 -1.769,-7.929 -1.769,-8.221c2.565,-0.334 3.956,-0.501 4.175,-0.501v0.064c0.042,0.03 0.106,0.662 0.191,1.895c2.352,-1.561 3.594,-2.342 3.728,-2.342z" data-paper-data="{&quot;origPos&quot;:null}" fill="#000000"/><path d="M371.203,173.91308c2.752,1.416 4.278,2.242 4.575,2.479c-0.395,1.847 -0.629,2.798 -0.701,2.853h-5.761v0.1l1.613,1.996l2.534,-1.294c0.249,0.432 0.608,1.185 1.076,2.261c-0.219,0.072 -1.814,0.306 -4.785,0.701c-2.461,-1.622 -3.701,-2.467 -3.719,-2.533c0.395,-3.154 0.629,-4.731 0.702,-4.731c2.57,-1.094 4.059,-1.704 4.466,-1.832zM370.61,176.11906c-0.048,0.121 -0.37,0.604 -0.966,1.449c0,0.255 0.359,0.383 1.076,0.383c0,0.036 0.519,0.124 1.558,0.264c0.286,-0.395 0.429,-0.626 0.429,-0.693c-0.091,-0.54 -0.289,-0.811 -0.593,-0.811z" data-paper-data="{&quot;origPos&quot;:null}" fill="#000000"/><path d="M384.702,173.90406l3.035,2.087c-0.213,3.464 -0.362,5.487 -0.447,6.07c-0.352,0.043 -1.425,0.107 -3.217,0.192l-0.064,-0.128l-0.319,-4.867l-0.128,-0.064c-1.16,0.249 -1.959,0.438 -2.397,0.565c0.122,2.072 0.182,3.57 0.182,4.494c-1.81,0.504 -2.801,0.756 -2.971,0.756c-1.179,-5.189 -1.768,-7.929 -1.768,-8.221c2.564,-0.334 3.955,-0.501 4.174,-0.501v0.064c0.043,0.03 0.107,0.662 0.192,1.895c2.351,-1.561 3.594,-2.342 3.728,-2.342z" data-paper-data="{&quot;origPos&quot;:null}" fill="#000000"/><path d="M393.807,173.91308c2.753,1.416 4.278,2.242 4.575,2.479c-0.394,1.847 -0.628,2.798 -0.701,2.853h-5.761v0.1l1.614,1.996l2.533,-1.294c0.25,0.432 0.608,1.185 1.076,2.261c-0.219,0.072 -1.814,0.306 -4.785,0.701c-2.461,-1.622 -3.701,-2.467 -3.719,-2.533c0.395,-3.154 0.629,-4.731 0.702,-4.731c2.57,-1.094 4.059,-1.704 4.466,-1.832zM393.215,176.11906c-0.049,0.121 -0.371,0.604 -0.967,1.449c0,0.255 0.359,0.383 1.076,0.383c0,0.036 0.519,0.124 1.558,0.264c0.286,-0.395 0.429,-0.626 0.429,-0.693c-0.091,-0.54 -0.289,-0.811 -0.593,-0.811z" data-paper-data="{&quot;origPos&quot;:null}" fill="#000000"/><path d="M409.338,173.90406c1.483,0.614 2.762,1.191 3.837,1.732c-0.279,3.615 -0.458,5.593 -0.537,5.933c-1.787,0.444 -2.786,0.666 -2.999,0.666c0,-0.79 -0.061,-2.349 -0.182,-4.676c-0.675,0.067 -1.012,0.124 -1.012,0.173c0,0.231 0.04,1.549 0.118,3.956c0.037,0 0.055,0.021 0.055,0.064c0,0.072 -0.939,0.273 -2.816,0.601c-0.079,-0.097 -0.319,-1.577 -0.72,-4.439c-0.76,0.195 -1.14,0.335 -1.14,0.42l0.365,3.718c-0.073,0.079 -1.072,0.398 -2.999,0.957c-1.118,-3.955 -1.817,-6.611 -2.096,-7.966c2.108,-0.522 3.287,-0.784 3.536,-0.784c0.28,1.106 0.42,1.744 0.42,1.914h0.063c1.027,-0.948 1.744,-1.586 2.152,-1.914h0.063l1.914,1.377h0.064c1.197,-1.155 1.835,-1.732 1.914,-1.732z" data-paper-data="{&quot;origPos&quot;:null}" fill="#000000"/><path d="M415.345,170.24906l3.582,0.565c-0.45,1.72 -0.745,2.579 -0.884,2.579c-1.884,-0.127 -2.826,-0.252 -2.826,-0.373v-2.643c0.018,-0.086 0.061,-0.128 0.128,-0.128zM414.342,174.58708h0.055c2.771,0.505 4.156,0.8 4.156,0.885c-0.796,4.508 -1.279,7.021 -1.449,7.537h-2.889c-0.086,0 -0.128,-0.042 -0.128,-0.127z" data-paper-data="{&quot;origPos&quot;:null}" fill="#000000"/><path d="M424.396,173.91308c2.752,1.416 4.277,2.242 4.575,2.479c-0.395,1.847 -0.629,2.798 -0.702,2.853h-5.76v0.1l1.613,1.996l2.534,-1.294c0.249,0.432 0.608,1.185 1.075,2.261c-0.218,0.072 -1.813,0.306 -4.785,0.701c-2.461,-1.622 -3.7,-2.467 -3.718,-2.533c0.395,-3.154 0.628,-4.731 0.701,-4.731c2.571,-1.094 4.059,-1.704 4.467,-1.832zM423.803,176.11906c-0.049,0.121 -0.371,0.604 -0.966,1.449c0,0.255 0.358,0.383 1.075,0.383c0,0.036 0.52,0.124 1.559,0.264c0.286,-0.395 0.428,-0.626 0.428,-0.693c-0.091,-0.54 -0.288,-0.811 -0.592,-0.811z" data-paper-data="{&quot;origPos&quot;:null}" fill="#000000"/><path d="M437.156,173.90406c1.75,1.118 2.716,1.762 2.898,1.932c-0.632,1.404 -0.993,2.106 -1.084,2.106l-3.318,-1.924h-0.118c0,0.061 -0.143,0.402 -0.429,1.021c3.057,1.647 4.585,2.492 4.585,2.534c-0.857,1.981 -1.34,3.026 -1.449,3.136l-5.187,0.3c-2.017,-1.336 -3.102,-2.041 -3.254,-2.114v-0.055c0,-0.152 0.301,-0.835 0.903,-2.051l4.047,2.106l0.3,-1.203c-2.503,-1.124 -3.992,-1.826 -4.466,-2.106v-0.127c0,-0.231 0.483,-1.255 1.45,-3.072z" data-paper-data="{&quot;origPos&quot;:null}" fill="#000000"/><path d="M34.875,194.48508l4.01,0.711l-0.383,3.044c0.796,-0.043 1.38,-0.064 1.75,-0.064h0.584l0.127,-0.064l0.064,0.128c-0.128,1.847 -0.237,2.886 -0.328,3.117l-0.128,-0.073c-0.091,0 -0.911,-0.042 -2.461,-0.128c-0.085,1.428 -0.148,3.136 -0.191,5.123l-0.128,0.064c-1.956,-0.128 -3.123,-0.237 -3.5,-0.328l0.064,-0.256c0,-0.528 0.085,-2.169 0.255,-4.922c-1.64,-0.091 -2.461,-0.2 -2.461,-0.328c0.086,-2.029 0.195,-3.044 0.329,-3.044l2.397,0.456v-0.784c0,-0.638 -0.025,-1.501 -0.073,-2.589c0.048,0 0.073,-0.021 0.073,-0.063z" data-paper-data="{&quot;origPos&quot;:null}" fill="#000000"/><path d="M45.666,197.24608c2.309,0.62 3.534,0.997 3.674,1.131c1.27,1.798 1.983,2.834 2.141,3.108c-0.82,2.6 -1.291,3.901 -1.412,3.901c-2.735,0.638 -4.166,0.957 -4.293,0.957c-2.261,-1.319 -3.464,-2.054 -3.61,-2.206c-0.079,-2.455 -0.118,-3.81 -0.118,-4.065c-0.037,-0.073 -0.055,-0.128 -0.055,-0.164c2.334,-1.775 3.54,-2.662 3.619,-2.662zM45.439,200.58207c-0.037,0.243 -0.092,1.127 -0.165,2.653l2.033,0.455c0.486,-1.519 0.729,-2.33 0.729,-2.433c-1.616,-0.486 -2.482,-0.729 -2.597,-0.729z" data-paper-data="{&quot;origPos&quot;:null}" fill="#000000"/><path d="M62.455,194.47507h0.055c2.747,0.231 4.12,0.411 4.12,0.538l1.212,10.728c0,0.079 -1.212,0.28 -3.637,0.602l-0.054,-0.119v-0.975c-2.091,0.565 -3.525,0.93 -4.302,1.094c-1.848,-2.613 -2.817,-4.005 -2.908,-4.175c1.361,-2.473 2.087,-3.725 2.178,-3.755l3.82,0.182c-0.079,-0.468 -0.241,-1.841 -0.484,-4.12zM60.76,201.01106c0.614,1.877 0.997,2.907 1.149,3.089l1.813,-1.576c-0.188,-1.088 -0.328,-1.632 -0.419,-1.632h-2.424c-0.079,0.012 -0.119,0.052 -0.119,0.119z" data-paper-data="{&quot;origPos&quot;:null}" fill="#2b70c2"/><path d="M73.958,197.24608c2.753,1.416 4.278,2.243 4.576,2.48c-0.395,1.847 -0.629,2.798 -0.702,2.852h-5.761v0.101l1.614,1.996l2.533,-1.295c0.25,0.432 0.608,1.185 1.076,2.261c-0.219,0.073 -1.814,0.307 -4.785,0.702c-2.461,-1.623 -3.701,-2.467 -3.719,-2.534c0.395,-3.154 0.629,-4.731 0.702,-4.731c2.57,-1.093 4.059,-1.704 4.466,-1.832zM73.366,199.45206c-0.049,0.122 -0.371,0.605 -0.967,1.449c0,0.255 0.359,0.383 1.076,0.383c0,0.037 0.519,0.125 1.559,0.264c0.285,-0.395 0.428,-0.625 0.428,-0.692c-0.091,-0.541 -0.289,-0.811 -0.593,-0.811z" data-paper-data="{&quot;origPos&quot;:null}" fill="#2b70c2"/><path d="M83.155,194.48508c0.322,0.036 1.494,0.306 3.518,0.811l0.055,0.109c-0.298,1.659 -0.477,2.488 -0.538,2.488h-0.055l-1.467,-0.756c0,0.17 -0.055,0.93 -0.164,2.279l2.005,-0.493c0.061,0.183 0.115,0.994 0.164,2.434c-0.195,0.073 -0.863,0.182 -2.005,0.328c0.255,1.094 0.525,2.431 0.811,4.011c-0.936,0.212 -2.054,0.428 -3.354,0.647l-0.055,-0.11c-0.17,-2.813 -0.313,-4.22 -0.428,-4.22c-1.179,0.286 -1.811,0.447 -1.896,0.483c-0.073,-0.352 -0.201,-1.309 -0.383,-2.871l0.109,-0.054h1.951c-0.11,-0.9 -0.274,-2.072 -0.492,-3.519z" data-paper-data="{&quot;origPos&quot;:null}" fill="#2b70c2"/><path d="M92.734,197.24608c2.753,1.416 4.278,2.243 4.576,2.48c-0.395,1.847 -0.629,2.798 -0.702,2.852h-5.761v0.101l1.614,1.996l2.533,-1.295c0.25,0.432 0.608,1.185 1.076,2.261c-0.219,0.073 -1.814,0.307 -4.785,0.702c-2.461,-1.623 -3.701,-2.467 -3.719,-2.534c0.395,-3.154 0.629,-4.731 0.702,-4.731c2.57,-1.093 4.059,-1.704 4.466,-1.832zM92.142,199.45206c-0.049,0.122 -0.371,0.605 -0.967,1.449c0,0.255 0.359,0.383 1.076,0.383c0,0.037 0.52,0.125 1.559,0.264c0.285,-0.395 0.428,-0.625 0.428,-0.692c-0.091,-0.541 -0.289,-0.811 -0.592,-0.811z" data-paper-data="{&quot;origPos&quot;:null}" fill="#2b70c2"/><path d="M99.524,197.23707c3.61,0.498 5.414,0.805 5.414,0.921c1.422,1.221 2.133,1.874 2.133,1.959c-0.577,1.805 -0.905,2.902 -0.984,3.291c0.577,1.282 0.905,2.048 0.984,2.297c0,0.073 -0.942,0.267 -2.825,0.583c-0.025,-0.103 -0.198,-0.334 -0.52,-0.693c-2.6,0.499 -4.001,0.748 -4.202,0.748l-1.385,-3.746l3.053,-1.614c0.493,0.079 1.261,0.119 2.306,0.119c0,-0.134 0.019,-0.538 0.055,-1.212c-0.176,0 -1.75,0.115 -4.721,0.346l-0.055,-0.119c0.413,-1.92 0.662,-2.88 0.747,-2.88zM101.42,202.59708c0,0.066 0.195,0.777 0.584,2.132h0.054c0.766,-0.498 1.149,-0.826 1.149,-0.984l0.118,-0.975c-0.146,0 -0.781,-0.058 -1.905,-0.173z" data-paper-data="{&quot;origPos&quot;:null}" fill="#2b70c2"/><path d="M110.672,194.48508l4.01,0.711l-0.383,3.044c0.796,-0.043 1.38,-0.064 1.75,-0.064h0.584l0.127,-0.064l0.064,0.128c-0.128,1.847 -0.237,2.886 -0.328,3.117l-0.128,-0.073c-0.091,0 -0.911,-0.042 -2.461,-0.128c-0.085,1.428 -0.149,3.136 -0.191,5.123l-0.128,0.064c-1.956,-0.128 -3.123,-0.237 -3.5,-0.328l0.064,-0.256c0,-0.528 0.085,-2.169 0.255,-4.922c-1.64,-0.091 -2.461,-0.2 -2.461,-0.328c0.085,-2.029 0.195,-3.044 0.328,-3.044l2.398,0.456v-0.784c0,-0.638 -0.025,-1.501 -0.073,-2.589c0.048,0 0.073,-0.021 0.073,-0.063z" data-paper-data="{&quot;origPos&quot;:null}" fill="#2b70c2"/><path d="M125.146,194.48508l4.01,0.711l-0.383,3.044c0.796,-0.043 1.379,-0.064 1.75,-0.064h0.583l0.128,-0.064l0.064,0.128c-0.128,1.847 -0.237,2.886 -0.328,3.117l-0.128,-0.073c-0.091,0 -0.911,-0.042 -2.461,-0.128c-0.085,1.428 -0.149,3.136 -0.191,5.123l-0.128,0.064c-1.956,-0.128 -3.123,-0.237 -3.5,-0.328l0.064,-0.256c0,-0.528 0.085,-2.169 0.255,-4.922c-1.64,-0.091 -2.461,-0.2 -2.461,-0.328c0.085,-2.029 0.195,-3.044 0.328,-3.044l2.398,0.456v-0.784c0,-0.638 -0.025,-1.501 -0.073,-2.589c0.048,0 0.073,-0.021 0.073,-0.063z" data-paper-data="{&quot;origPos&quot;:null}" fill="#2b70c2"/><path d="M136.347,194.48508c0.037,0.054 0.207,1.719 0.511,4.994c2.345,-0.717 3.594,-1.075 3.746,-1.075l2.324,1.586c-0.377,3.463 -0.623,5.487 -0.738,6.07l-3.227,0.11c0,-0.037 -0.021,-0.055 -0.064,-0.055l0.064,-0.228c0,-0.492 0.073,-1.987 0.219,-4.484c-0.887,-0.037 -1.546,-0.055 -1.978,-0.055h-0.228c0.262,2.777 0.392,4.29 0.392,4.539l-3.062,0.456c-0.116,-0.389 -0.796,-4.02 -2.042,-10.892c0,-0.195 0.474,-0.347 1.422,-0.456c1.197,-0.34 2.084,-0.51 2.661,-0.51z" data-paper-data="{&quot;origPos&quot;:null}" fill="#2b70c2"/><path d="M148.953,197.24608c2.752,1.416 4.278,2.243 4.575,2.48c-0.395,1.847 -0.629,2.798 -0.701,2.852h-5.761v0.101l1.613,1.996l2.534,-1.295c0.249,0.432 0.608,1.185 1.076,2.261c-0.219,0.073 -1.814,0.307 -4.785,0.702c-2.461,-1.623 -3.701,-2.467 -3.719,-2.534c0.395,-3.154 0.629,-4.731 0.702,-4.731c2.57,-1.093 4.059,-1.704 4.466,-1.832zM148.36,199.45206c-0.048,0.122 -0.37,0.605 -0.966,1.449c0,0.255 0.359,0.383 1.076,0.383c0,0.037 0.519,0.125 1.558,0.264c0.286,-0.395 0.429,-0.625 0.429,-0.692c-0.091,-0.541 -0.289,-0.811 -0.593,-0.811z" data-paper-data="{&quot;origPos&quot;:null}" fill="#2b70c2"/><path d="M164.484,197.23707c1.483,0.614 2.762,1.191 3.837,1.732c-0.279,3.615 -0.458,5.593 -0.537,5.934c-1.787,0.443 -2.786,0.665 -2.999,0.665c0,-0.79 -0.061,-2.349 -0.182,-4.676c-0.675,0.067 -1.012,0.125 -1.012,0.173c0,0.231 0.039,1.55 0.118,3.956c0.037,0 0.055,0.021 0.055,0.064c0,0.073 -0.939,0.273 -2.816,0.601c-0.079,-0.097 -0.319,-1.576 -0.72,-4.438c-0.76,0.194 -1.14,0.334 -1.14,0.419l0.365,3.719c-0.073,0.079 -1.073,0.398 -2.999,0.957c-1.118,-3.956 -1.817,-6.611 -2.096,-7.966c2.108,-0.523 3.287,-0.784 3.536,-0.784c0.28,1.106 0.42,1.744 0.42,1.914h0.063c1.027,-0.948 1.744,-1.586 2.151,-1.914h0.064l1.914,1.376h0.064c1.197,-1.155 1.835,-1.732 1.914,-1.732z" data-paper-data="{&quot;origPos&quot;:null}" fill="#2b70c2"/><path d="M173.243,194.82206l0.037,0.073c-0.608,5.365 -0.948,8.185 -1.021,8.458c-1.288,-0.121 -2.103,-0.206 -2.443,-0.255v-0.037l-0.583,-7.619c0.146,-0.049 1.482,-0.256 4.01,-0.62zM169.634,203.53506c0.042,0.025 0.99,0.098 2.844,0.219l0.036,0.073c-0.285,1.677 -0.468,2.516 -0.547,2.516h-2.114c-0.073,0 -0.17,-0.839 -0.292,-2.516c-0.024,0 -0.037,-0.073 -0.037,-0.219c0.073,-0.024 0.11,-0.048 0.11,-0.073z" data-paper-data="{&quot;origPos&quot;:null}" fill="#000000"/></g></g></g></svg>