<svg version="1.1" xmlns="http://www.w3.org/2000/svg" xmlns:xlink="http://www.w3.org/1999/xlink" width="143.7336" height="143.73361" viewBox="0,0,143.7336,143.73361"><defs><linearGradient x1="240" y1="110.13321" x2="240" y2="249.86681" gradientUnits="userSpaceOnUse" id="color-1"><stop offset="0" stop-color="#3c94ed"/><stop offset="1" stop-color="#337fcc"/></linearGradient><linearGradient x1="257.79528" y1="151" x2="257.79528" y2="205.00001" gradientUnits="userSpaceOnUse" id="color-2"><stop offset="0" stop-color="#ffe000"/><stop offset="1" stop-color="#ffe000" stop-opacity="0"/></linearGradient><linearGradient x1="174.50785" y1="198.35879" x2="234.54859" y2="188.42393" gradientUnits="userSpaceOnUse" id="color-3"><stop offset="0" stop-color="#f34135" stop-opacity="0"/><stop offset="1" stop-color="#f34135"/></linearGradient><radialGradient cx="239.16634" cy="196.02437" r="31.74264" gradientUnits="userSpaceOnUse" id="color-4"><stop offset="0" stop-color="#fffbc6"/><stop offset="1" stop-color="#e6d380"/></radialGradient><radialGradient cx="256.40033" cy="183.95689" r="21.92847" gradientUnits="userSpaceOnUse" id="color-5"><stop offset="0" stop-color="#fffbc6"/><stop offset="1" stop-color="#e6d380"/></radialGradient><radialGradient cx="254.4038" cy="191.81363" r="8.85939" gradientUnits="userSpaceOnUse" id="color-6"><stop offset="0" stop-color="#4f492c"/><stop offset="1" stop-color="#000000"/></radialGradient><radialGradient cx="236.5123" cy="196.82286" r="10.36424" gradientUnits="userSpaceOnUse" id="color-7"><stop offset="0" stop-color="#4f492c"/><stop offset="1" stop-color="#000000"/></radialGradient><radialGradient cx="233.40509" cy="187.09211" r="44.05871" gradientUnits="userSpaceOnUse" id="color-8"><stop offset="0" stop-color="#ffffff"/><stop offset="1" stop-color="#e5e5e5"/></radialGradient></defs><g transform="translate(-168.1332,-108.1332)"><g data-paper-data="{&quot;isPaintingLayer&quot;:true}" fill-rule="nonzero" stroke-linejoin="miter" stroke-miterlimit="10" stroke-dasharray="" stroke-dashoffset="0" style="mix-blend-mode: normal"><path d="M240,110.13321c19.2752,0 36.74421,7.8268 49.3899,20.47689c12.64989,12.64569 20.4769,30.11449 20.4769,49.38991c0,19.27542 -7.82701,36.74421 -20.4769,49.38991c-12.64569,12.65009 -30.1147,20.4769 -49.3899,20.4769c-19.27542,0 -36.74442,-7.8268 -49.39012,-20.4769c-12.64989,-12.64569 -20.47668,-30.11449 -20.47668,-49.38991c0,-19.27542 7.82679,-36.74421 20.47668,-49.38991c12.64569,-12.6501 30.11471,-20.47689 49.39012,-20.47689z" data-paper-data="{&quot;origPos&quot;:null}" id="ID0.4039921844378114" fill="url(#color-1)" stroke="#23568d" stroke-width="4" stroke-linecap="butt"/><g><path d="M256.30912,176.12516l1.70862,-0.33372l4.88741,0.72332l5.66142,1.78984l6.55146,2.9104l1.80237,0.98072l1.66404,2.18707l0.57371,2.1028l-1.96143,3.60472l-1.5926,0.38777l-3.47923,0.49738l-2.1425,-0.85676l-10.61233,-4.80191l-1.70221,-1.49886l-1.66405,-2.18707l-0.38777,-1.59261l0.1145,-2.06463z" data-paper-data="{&quot;origPos&quot;:null,&quot;index&quot;:null}" fill="#5a2c0a" stroke="#000000" stroke-width="0" stroke-linecap="round"/><path d="M273.82328,173.76382c-3.24589,6.96858 -11.46143,10.01667 -18.34992,6.80809c-6.88849,-3.20858 -9.8414,-11.45881 -6.59551,-18.42739c3.24589,-6.96858 11.46143,-10.01668 18.34992,-6.80809c6.88849,3.20858 9.84139,11.45881 6.59551,18.4274z" data-paper-data="{&quot;origPos&quot;:null}" fill="#fcdda0" stroke="none" stroke-width="0" stroke-linecap="butt"/><path d="M258.17499,179.39464l-1.5068,1.41612l-1.46863,0.7279l-2.74491,0.13343l-2.24265,-0.33861l-10.50425,-5.03396l-2.0344,-1.0888l-1.85793,-2.98337l-0.72791,-1.46864l1.49734,-3.8209l1.97884,-0.91385l2.74492,-0.13343l1.91044,0.74867l6.44337,3.14244l5.0129,3.18214l3.69846,3.27588l0.84393,1.52267z" data-paper-data="{&quot;origPos&quot;:null}" fill="#5a2c0a" stroke="#000000" stroke-width="0" stroke-linecap="round"/><path d="M281.80675,135.92311c1.20396,0.89444 1.56166,1.42611 1.91915,2.0941c0.35749,0.66799 0.60005,1.176 0.84233,1.98083c0.24228,0.80483 1.1014,3.37817 1.44421,5.61462c0.3428,2.23645 -0.13174,3.20794 0.21641,5.21923c0.34815,2.01128 1.05532,3.72442 1.74419,6.10735c0.68888,2.38293 0.87937,2.07096 1.02705,3.47884c0.14769,1.40788 -0.05814,1.85984 -0.34578,3.0159c-0.28764,1.15606 -0.5215,1.69341 -1.07094,2.67812c-0.54944,0.9847 -1.03186,2.11018 -2.13387,3.06551c-1.10201,0.95533 -1.66861,1.06791 -2.89873,1.29728c-1.23011,0.22937 -1.57473,0.05273 -2.51324,-0.28816c-0.93851,-0.34089 -3.87223,-1.43915 -6.09132,-2.83727c-2.21909,-1.39812 -1.47809,-1.58885 -2.50524,-2.57889c-1.02715,-0.99004 -0.75852,-0.85217 -1.39268,-1.17818c-0.63416,-0.32602 -5.72672,-2.97669 -9.57208,-4.45857c-3.84537,-1.48189 -2.10416,-0.40322 -3.59601,-0.61601c-1.49185,-0.21278 -1.18478,0.1053 -1.86557,-0.16297c-0.68078,-0.26827 -5.10701,-1.82901 -7.97674,-3.71547c-2.86972,-1.88646 -1.93593,-1.66556 -2.66018,-3.00406c-0.72425,-1.33851 -0.71189,-1.80454 -0.65951,-3.13116c0.05238,-1.32662 0.8267,-2.61361 1.45642,-4.26354c0.62972,-1.64993 0.37478,-1.36625 0.94576,-2.03044c0.57098,-0.6642 1.43486,-1.367 2.52125,-2.00259c1.0864,-0.63558 2.42928,-1.17706 4.0292,-1.82969c1.59992,-0.65263 9.37567,-3.6882 15.3638,-6.08102c0.82878,-0.33118 1.93711,-0.16729 2.35368,-0.35496c0.41656,-0.18768 1.16837,-0.33848 2.21787,0.01337c1.06288,0.35634 2.41208,0.28599 4.97878,1.43657c2.5667,1.15058 3.01784,1.63682 4.2218,2.53126z" data-paper-data="{&quot;origPos&quot;:null}" fill="#8e4108" stroke="#000000" stroke-width="0" stroke-linecap="butt"/><path d="M269.57006,143.77839c-0.48424,-0.97704 0.12026,-2.43259 -0.53433,-3.77883c-0.65458,-1.34625 -1.34158,-1.39166 -2.35028,-2.15371c-1.0087,-0.76205 -1.87338,-1.27292 -3.13306,-1.98884c-1.25969,-0.71592 -1.20399,-0.65691 -2.03044,-0.94575c-0.82645,-0.28886 -1.50849,-0.57812 -2.52317,-0.64577c-1.01468,-0.06765 -2.40864,1.32045 -2.78346,0.29197c-0.37482,-1.02847 1.03177,-1.50682 2.08616,-2.20524c1.05439,-0.69843 1.63842,-0.74952 2.76361,-1.0072c1.12519,-0.25769 1.58143,-0.41228 2.57088,-0.21449c0.98944,0.19778 2.15984,0.68239 3.40328,1.40871c1.24343,0.72632 1.76972,1.05847 2.56286,2.07624c0.79314,1.01778 1.108,2.59358 2.18731,4.01928c1.0793,1.4257 1.75844,2.44126 3.38534,3.34183c1.62691,0.90057 1.58045,0.24266 2.64835,-0.0019c1.0679,-0.24457 2.6588,-1.19974 4.4643,-1.62703c1.8055,-0.42729 1.86746,-0.23728 3.07352,-0.15687c1.20606,0.08041 1.39846,0.18118 2.23311,0.51066c0.83465,0.32948 3.40909,1.10157 5.22114,2.43195c1.81204,1.33038 1.55649,1.55324 2.0125,2.87887c0.45601,1.32564 1.19845,2.96092 0.01183,3.00597c-1.18662,0.04505 -4.20801,-1.84555 -7.01914,-2.73994c-2.81113,-0.89441 -2.25677,-0.52295 -3.74106,-0.68356c-1.48428,-0.16061 -2.53724,-0.29704 -4.15629,-0.17098c-1.61906,0.12605 -1.80246,0.50636 -2.98612,0.72706c-1.18367,0.22071 -1.47947,0.39988 -2.42584,0.28205c-0.94637,-0.11783 -1.74694,-0.38936 -2.74568,-0.92592c-0.99874,-0.53655 -1.71108,-0.75151 -2.19532,-1.72854z" data-paper-data="{&quot;origPos&quot;:null}" fill="#000000" stroke="#000000" stroke-width="0" stroke-linecap="round"/><g data-paper-data="{&quot;origPos&quot;:null}" stroke="none" stroke-linecap="butt"><path d="M272.20731,144.41852c-0.212,-1.33193 0.42441,-3.59692 2.16173,-4.64101c1.73732,-1.04409 2.89494,-0.03451 3.13268,1.45917c0.23775,1.49368 -0.41943,3.59392 -2.16173,4.64101c-1.7423,1.04709 -2.92068,-0.12725 -3.13268,-1.45917z" data-paper-data="{&quot;origPos&quot;:null}" fill="#8e4108" stroke-width="0"/><path d="M279.30652,142.50023c-0.05567,0.09382 -0.1146,0.17489 -0.17582,0.24472c-0.06122,0.06983 0.35245,-0.60888 0.07322,-0.00941c-0.27922,0.59946 -0.55845,1.19894 -0.83767,1.7984c-0.27922,0.59946 -4.89536,4.14441 -7.20959,1.23078c-1.51288,-1.90472 0.65109,-5.33861 1.46405,-7.08395c0.81296,-1.74535 0.54044,-1.16025 1.70069,-0.61981c1.16025,0.54044 1.12363,0.61907 0.61982,1.70068c-0.50381,1.08161 -1.46247,2.42928 -1.67534,3.59678c-0.21287,1.1675 0.0799,0.94949 0.21341,1.36778c0.13351,0.4183 0.01716,-0.08892 0.05039,-0.11532c0.03323,-0.0264 1.02265,0.43081 1.54631,0.35621c0.52366,-0.07461 0.76769,-1.00971 0.96975,-1.51403c0.20205,-0.5043 0.55845,-1.19893 0.83767,-1.79839c0.27922,-0.59946 1.15457,-1.19486 1.97557,-0.90836c0.82101,0.2865 1.10071,0.6532 0.44752,1.75392c-0.6532,1.10073 0.05568,-0.09382 0.00001,0z" data-paper-data="{&quot;origPos&quot;:null}" fill="#5a2c0a" stroke-width="0.5"/></g><path d="M254.0141,151.94676l0.34569,-5.4869c0,0 0.8937,0.50044 1.43112,0.895c0.53377,0.39189 1.31366,1.12017 1.31366,1.12017c0,0 0.88103,0.8403 1.34116,1.60092c0.19772,0.32684 0.34451,1.18556 0.34451,1.18556l0.22704,1.54229z" data-paper-data="{&quot;origPos&quot;:null}" fill="#ffffff" stroke="#ffffff" stroke-width="0" stroke-linecap="round"/><path d="M277.8096,158.87802c0,0 0.66094,-0.33721 1.04938,-0.47878c0.43941,-0.16014 1.0719,-0.29434 1.0719,-0.29434c0,0 0.66433,0.00653 1.12922,0.11956c0.30687,0.0746 0.84829,0.36125 0.84829,0.36125l-2.43119,5.69216l-3.76414,-3.73462c0,0 0.51903,-0.41225 0.99469,-0.79006c0.34254,-0.27208 1.10184,-0.87517 1.10184,-0.87517z" data-paper-data="{&quot;origPos&quot;:null}" fill="#ffffff" stroke="#ffffff" stroke-width="0" stroke-linecap="round"/><path d="M250.82896,152.18435c0.52799,-1.16597 1.20614,-0.78915 1.54031,-0.69201c0.33417,0.09715 2.35868,-0.11145 3.53139,0.02301c1.1727,0.13446 6.02017,0.75342 7.25151,0.99223c1.23134,0.23881 4.33443,1.94445 5.11087,2.10659c0.77643,0.16215 7.50025,5.1013 8.68777,5.93186c1.18752,0.83055 1.52147,1.47061 3.30238,3.7128c1.78091,2.24218 0.79607,1.00227 -0.20619,1.79833c-1.00227,0.79607 -0.35319,1.61325 -1.79833,-0.20619c-1.44514,-1.81943 -2.63825,-3.43283 -4.41897,-4.9996c-1.78072,-1.56677 -6.51399,-5.28418 -10.74515,-5.6641c-4.23115,-0.37992 -5.61386,-1.22714 -6.75941,-1.19535c-1.14554,0.03179 -3.05647,0.47894 -4.85821,-0.11361c-1.80174,-0.59255 -1.16596,-0.52799 -0.63797,-1.69396z" data-paper-data="{&quot;origPos&quot;:null}" fill="#5a2c0a" stroke="none" stroke-width="0.5" stroke-linecap="butt"/><g data-paper-data="{&quot;origPos&quot;:null}" fill="none" stroke="#000000" stroke-width="1.5" stroke-linecap="round"><path d="M261.13333,146.93334l5.66667,-3.33333" data-paper-data="{&quot;origPos&quot;:null}"/><path d="M265.13334,147.26666l-2.66667,-4.33333" data-paper-data="{&quot;origPos&quot;:null}"/></g><g data-paper-data="{&quot;origPos&quot;:null}" fill="none" stroke="#000000" stroke-width="1.5" stroke-linecap="round"><path d="M273.93334,152.73334l5.66667,-3.33334" data-paper-data="{&quot;origPos&quot;:null}"/><path d="M277.93334,153.06667l-2.66667,-4.33333" data-paper-data="{&quot;origPos&quot;:null}"/></g></g><path d="M236,165.12993l10.95276,-14.12992l4.25197,11.90551l11.90551,-5.10236l-2.55118,12.33071h14.0315l-12.33071,10.62992l9.77953,6.80315l-13.6063,6.37795l5.10236,11.05512l-14.0315,-1.27559z" data-paper-data="{&quot;origPos&quot;:null}" fill="url(#color-2)" stroke="#000000" stroke-width="0" stroke-linecap="round"/><g data-paper-data="{&quot;origRot&quot;:0,&quot;origPos&quot;:null}"><path d="M178.27058,221.09861l-7.52545,-45.47963l60.04074,-9.93486l7.52545,45.47963z" data-paper-data="{&quot;origPos&quot;:null}" fill="url(#color-3)" stroke="none" stroke-width="NaN" stroke-linecap="butt"/><g data-paper-data="{&quot;origPos&quot;:null}"><path d="M251.65016,183.53192c3.64993,1.08733 8.05952,4.99868 8.71235,8.94402c0.65283,3.94532 -1.44675,7.96483 -5.36695,11.27371c-3.91932,3.30729 -10.4165,5.93318 -16.28527,7.00032c-5.82385,1.05969 -11.80927,1.25032 -17.4995,-0.61595c-3.51176,-1.23203 -6.48919,-4.78554 -8.75801,-8.22555c-1.32245,-2.01281 -3.03633,-6.08355 -1.3962,-7.36542c5.09672,-3.97366 11.8303,-4.01289 17.86606,-5.7512c4.47969,-0.74268 9.16891,-0.37769 13.62796,-1.68168c3.10617,-0.90383 5.64228,-4.61002 9.09956,-3.57823z" id="ID0.15607240749523044" fill="url(#color-4)" stroke="none" stroke-width="0.91701" stroke-linecap="round"/><path d="M258.15384,182.47582c1.98668,1.81116 3.47854,4.5212 4.00394,7.69644c0.5254,3.17524 -0.014,6.22137 -1.31137,8.57595c-1.29715,2.35598 -3.35087,4.02017 -5.85228,4.43407c-2.5014,0.4139 -4.98173,-0.50005 -6.96864,-2.31261c-1.98668,-1.81116 -3.47854,-4.5212 -4.00394,-7.69644c-0.5254,-3.17524 0.01399,-6.22137 1.31137,-8.57595c1.29715,-2.35598 3.35087,-4.02017 5.85227,-4.43407c2.50141,-0.4139 4.98173,0.50004 6.96864,2.31261z" id="ID0.7226808085106313" fill="url(#color-5)" stroke="none" stroke-width="1" stroke-linecap="butt"/><path d="M256.66247,186.51652c1.12433,1.11252 1.9793,2.76266 2.29763,4.6865c0.31833,1.92384 0.04048,3.76142 -0.66556,5.17682c-0.70766,1.41423 -1.84235,2.40462 -3.23745,2.63546c-1.39509,0.23084 -2.78832,-0.34126 -3.91381,-1.45216c-1.12433,-1.11252 -1.9793,-2.76266 -2.29763,-4.6865c-0.31833,-1.92384 -0.04048,-3.76142 0.66556,-5.17682c0.70766,-1.41423 1.84234,-2.40463 3.23744,-2.63547c1.39509,-0.23084 2.78832,0.34127 3.91382,1.45216z" id="ID0.21181316301226616" fill="url(#color-6)" stroke="none" stroke-width="1" stroke-linecap="butt"/><path d="M239.94712,190.34762c2.02137,1.36598 2.45831,3.66794 2.78229,5.7194c0.24624,1.55823 -0.21279,3.45562 -1.25691,4.80713c-1.04614,1.35056 -2.65488,2.39603 -4.51391,2.6529c-1.99318,0.2752 -4.22916,-0.33318 -5.48179,-1.30465c-1.58335,-1.26547 -1.8155,-2.62163 -2.21719,-4.05655c-0.38809,-1.39946 -1.33335,-2.91886 -0.31538,-4.24125c1.14557,-1.49715 3.7228,-2.3424 5.91894,-3.0611c1.55836,-0.50883 3.91765,-1.25841 5.08396,-0.51588z" id="ID0.21181316301226616" fill="url(#color-7)" stroke="none" stroke-width="1.1493" stroke-linecap="butt"/><path d="M248.40572,168.80105c4.88399,2.80935 9.47688,8.22599 9.23989,12.59905c-0.1761,3.19227 -7.12382,0.93768 -10.4401,2.52413c-6.05834,2.95748 -11.04581,8.76085 -17.44284,10.99151c-5.33227,1.85897 -11.08596,1.35638 -16.6501,0.95386c-1.39192,-0.10077 -2.63504,-0.49505 -2.56238,-2.13916c0.28865,-6.59017 -0.2841,-14.27775 3.30549,-19.3205c3.88748,-5.31092 10.6903,-7.52845 16.80713,-8.53084c5.88288,-0.96368 12.85759,0.11142 17.74292,2.92197z" id="ID0.26931737549602985" fill="#f34135" stroke="none" stroke-width="0.91299" stroke-linecap="round"/><path d="M224.75868,175.50624l-5.66467,13.40697l0.93642,4.35992l-1.09902,-4.47634l-5.37513,4.32932" data-paper-data="{&quot;origPos&quot;:null}" id="ID0.9385899971239269" fill="none" stroke="#bb3228" stroke-width="1" stroke-linecap="round"/><path d="M249.77455,183.76487l-6.48318,-2.36714l0.40147,4.59177l-0.5179,-4.42918l-5.87145,-8.63152" data-paper-data="{&quot;origPos&quot;:null}" id="ID0.9385899971239269" fill="none" stroke="#bb3228" stroke-width="1" stroke-linecap="round"/><path d="M253.88093,185.95198c-7.60385,3.5873 -13.67131,11.06403 -21.55999,13.38556c-7.20051,2.11737 -15.29064,1.9568 -22.56275,-0.2798c-1.9574,-0.59915 -1.45263,-5.45697 0.28503,-6.28198c3.37025,-1.74014 7.54829,0.64008 11.21018,0.51001c4.18484,-0.14781 8.69652,-0.00858 12.4571,-1.55961c5.07767,-2.10866 8.81658,-6.99997 13.83512,-9.24075c3.04663,-1.3598 6.4429,-1.65375 9.65084,-1.31026c1.7398,0.16503 3.36561,1.44971 4.49765,2.76735c0.36634,0.42956 0.14811,1.48762 -0.4552,1.65194c-2.36725,0.63824 -5.09373,-0.71085 -7.35798,0.35754z" id="ID0.5838042767718434" fill="url(#color-8)" stroke="none" stroke-width="0.9628" stroke-linecap="round"/><path d="M243.5518,167.38004l-6.6553,5.68777l-11.74289,2.65973l-8.20196,-3.65936" data-paper-data="{&quot;origPos&quot;:null}" id="ID0.8476383532397449" fill="none" stroke="#bb3228" stroke-width="1" stroke-linecap="round"/></g></g></g></g></svg>