<svg version="1.1" xmlns="http://www.w3.org/2000/svg" xmlns:xlink="http://www.w3.org/1999/xlink" width="114.38652" height="41.98038" viewBox="0,0,114.38652,41.98038"><defs><linearGradient x1="277.7455" y1="158.40301" x2="277.7455" y2="200.37208" gradientUnits="userSpaceOnUse" id="color-1"><stop offset="0" stop-color="#39e39a"/><stop offset="1" stop-color="#31b8bd"/></linearGradient><linearGradient x1="205.32804" y1="158.40301" x2="205.32804" y2="200.37208" gradientUnits="userSpaceOnUse" id="color-2"><stop offset="0" stop-color="#39e39a"/><stop offset="1" stop-color="#31b8bd"/></linearGradient><linearGradient x1="241.16666" y1="158.42031" x2="241.16666" y2="200.38339" gradientUnits="userSpaceOnUse" id="color-3"><stop offset="0" stop-color="#39e39a"/><stop offset="1" stop-color="#31b8bd"/></linearGradient><linearGradient x1="276.35686" y1="162.22232" x2="276.35686" y2="196.27761" gradientUnits="userSpaceOnUse" id="color-4"><stop offset="0" stop-color="#3bedb3"/><stop offset="1" stop-color="#31be8d"/></linearGradient></defs><g transform="translate(-184.34351,-158.40301)"><g data-paper-data="{&quot;isPaintingLayer&quot;:true}" fill-rule="nonzero" stroke-linejoin="miter" stroke-miterlimit="10" stroke-dasharray="" stroke-dashoffset="0" style="mix-blend-mode: normal"><g data-paper-data="{&quot;index&quot;:null}" stroke="#000000" stroke-width="0" stroke-linecap="butt"><path d="M277.7455,200.37208c-11.58944,0 -20.98453,-9.39509 -20.98453,-20.98453c0,-11.58944 9.39509,-20.98453 20.98453,-20.98453c11.58944,0 20.98453,9.39509 20.98453,20.98453c0,11.58944 -9.39509,20.98453 -20.98453,20.98453z" data-paper-data="{&quot;origPos&quot;:null,&quot;index&quot;:null}" fill="url(#color-1)"/><path d="M205.32804,200.37208c-11.58944,0 -20.98453,-9.3951 -20.98453,-20.98453c0,-11.58944 9.3951,-20.98453 20.98453,-20.98453c11.58944,0 20.98453,9.3951 20.98453,20.98453c0,11.58944 -9.3951,20.98453 -20.98453,20.98453z" data-paper-data="{&quot;origPos&quot;:null,&quot;index&quot;:null}" fill="url(#color-2)"/><path d="M205.08962,200.38339v-41.96308h72.15408v41.96308z" data-paper-data="{&quot;origPos&quot;:null,&quot;index&quot;:null}" fill="url(#color-3)"/></g><g data-paper-data="{&quot;index&quot;:null}"><path d="M276.35686,162.22232c4.69771,0 8.95515,1.90752 12.0371,4.99053c3.08301,3.08195 4.99053,7.33939 4.99053,12.0371c0,4.69771 -1.90752,8.95515 -4.99053,12.0371c-3.08195,3.08301 -7.33939,4.99053 -12.0371,4.99053c-4.69771,0 -8.95515,-1.90752 -12.0371,-4.99053c-3.08301,-3.08195 -4.99053,-7.33939 -4.99053,-12.0371c0,-4.69771 1.90752,-8.95515 4.99053,-12.0371c3.08195,-3.08301 7.33939,-4.99053 12.0371,-4.99053z" data-paper-data="{&quot;origPos&quot;:null}" fill="url(#color-4)" stroke="#238c6c" stroke-width="1.25" stroke-linecap="butt"/><g data-paper-data="{&quot;origPos&quot;:null}" fill="none" stroke="#238c6c" stroke-width="4.5" stroke-linecap="round"><path d="M284.96799,186.4611h-16.5"/><g><path d="M276.76797,182.81111v3.25z"/><path d="M268.41799,172.06111l16.5,0.1v10.1l-16.5,-0.1v-10z"/></g></g><g fill="none" stroke="#ffffff" stroke-width="2" stroke-linecap="round"><path d="M284.96799,186.4611h-16.5"/><g><path d="M276.76797,182.81111v3.25z"/><path d="M268.41799,172.06111l16.5,0.1v10.1l-16.5,-0.1v-10z"/></g></g></g><text transform="translate(191.38958,184.26078) scale(0.3969,0.3969)" font-size="40" xml:space="preserve" data-paper-data="{&quot;index&quot;:null}" fill="#f7f7f7" fill-rule="nonzero" stroke="none" stroke-width="1" stroke-linecap="butt" stroke-linejoin="miter" stroke-miterlimit="10" stroke-dasharray="" stroke-dashoffset="0" font-family="&quot;Microsoft YaHei&quot;, &quot;微软雅黑&quot;, STXihei, &quot;华文细黑&quot;" font-weight="normal" text-anchor="start" style="mix-blend-mode: normal"><tspan x="0" dy="0">Desktop</tspan></text></g></g></svg>