<svg version="1.1" xmlns="http://www.w3.org/2000/svg" xmlns:xlink="http://www.w3.org/1999/xlink" width="437" height="90.79587" viewBox="0,0,437,90.79587"><defs><linearGradient x1="240" y1="135.60204" x2="240" y2="224.39794" gradientUnits="userSpaceOnUse" id="color-1"><stop offset="0" stop-color="#ffffff"/><stop offset="1" stop-color="#d8d8d8"/></linearGradient><linearGradient x1="240" y1="135.60207" x2="240" y2="224.39794" gradientUnits="userSpaceOnUse" id="color-2"><stop offset="0" stop-color="#343434"/><stop offset="1" stop-color="#090909"/></linearGradient><radialGradient cx="443.8065" cy="206.54466" r="17.9081" gradientUnits="userSpaceOnUse" id="color-3"><stop offset="0" stop-color="#ffffff"/><stop offset="1" stop-color="#e5e5e5"/></radialGradient></defs><g transform="translate(-21.5,-134.60207)"><g data-paper-data="{&quot;isPaintingLayer&quot;:true}" fill-rule="nonzero" stroke-linejoin="miter" stroke-miterlimit="10" stroke-dasharray="" stroke-dashoffset="0" style="mix-blend-mode: normal"><path d="M22.5,224.39794v-88.79587h435v88.79587z" data-paper-data="{&quot;origPos&quot;:null}" fill="url(#color-1)" stroke="url(#color-2)" stroke-width="2" stroke-linecap="butt"/><g data-paper-data="{&quot;origPos&quot;:null}"><path d="M444.3058,202.09868c2.5136,0 4.7909,1.0212 6.4406,2.6702c1.6489,1.6496 2.6702,3.9269 2.6702,6.4405c0,2.5136 -1.0213,4.791 -2.6702,6.4406c-1.6497,1.649 -3.927,2.6702 -6.4406,2.6702c-2.5136,0 -4.7909,-1.0212 -6.4406,-2.6702c-1.6489,-1.6496 -2.6701,-3.927 -2.6701,-6.4406c0,-2.5136 1.0212,-4.7909 2.6701,-6.4405c1.6497,-1.649 3.927,-2.6702 6.4406,-2.6702z" fill="url(#color-3)" stroke="#000000" stroke-width="2.0785" stroke-linecap="butt"/><path d="M441.2734,206.54886l5.6119,0.4503l1.7321,3.187l-3.6374,2.9446l3.3603,-0.5197l0.7967,3.4642l-7.4479,-0.0693l-1.9053,-2.4249l4.6766,-3.3256l-4.5727,-0.3464z" fill="#000000" stroke="none" stroke-width="0.69283" stroke-linecap="round"/></g><g data-paper-data="{&quot;origPos&quot;:null}" stroke="none" stroke-width="0.26459" stroke-linecap="butt"><path d="M47.62611,146.35392l0.05947,0.1289c-0.17184,2.5246 -0.3007,3.78689 -0.38662,3.78689h-0.05948c-2.72948,-0.21809 -4.24953,-0.34696 -4.56015,-0.3866v8.79317c0,0.15862 -0.62124,0.26435 -1.8637,0.31722c0,0.04631 -0.70386,0.13222 -2.11155,0.25776l-0.06938,-0.12891c0.30402,-5.24747 0.49899,-8.34705 0.58488,-9.29874c-1.04421,0.16523 -2.58409,0.3767 -4.61963,0.63446c-0.60141,-2.24705 -0.90211,-3.4003 -0.90211,-3.45977c0,-0.08595 4.64277,-0.30072 13.92829,-0.64436z" data-paper-data="{&quot;origPos&quot;:null}" fill="#000000"/><path d="M53.12803,146.35392c0.03966,0.05946 0.22471,1.8703 0.55515,5.4325c2.55103,-0.77984 3.90917,-1.16977 4.0744,-1.16977l2.52791,1.72492c-0.40976,3.76707 -0.67741,5.96786 -0.80298,6.60231l-3.50934,0.11895c0,-0.03964 -0.02312,-0.05946 -0.06938,-0.05946l0.06938,-0.24783c0,-0.53533 0.07932,-2.16112 0.23793,-4.87738c-0.9649,-0.03964 -1.68198,-0.05946 -2.1512,-0.05946h-0.24783c0.28418,3.02027 0.42629,4.66589 0.42629,4.93687l-3.33091,0.49567c-0.12557,-0.42296 -0.86575,-4.37179 -2.22059,-11.84647c0,-0.2115 0.51548,-0.37671 1.54648,-0.49569c1.30196,-0.37008 2.26686,-0.55513 2.89471,-0.55513z" data-paper-data="{&quot;origPos&quot;:null}" fill="#000000"/><path d="M62.72418,149.34773c3.9257,0.54194 5.88853,0.87569 5.88853,1.00128c1.54648,1.32838 2.31973,2.03885 2.31973,2.13138c-0.62785,1.96284 -0.98474,3.15576 -1.07065,3.57873c0.62785,1.39448 0.98474,2.22719 1.07065,2.49815c0,0.07931 -1.02439,0.29077 -3.07315,0.63446c-0.02645,-0.11241 -0.21478,-0.36355 -0.56507,-0.75342c-2.82863,0.54194 -4.35198,0.81291 -4.57006,0.81291l-1.50682,-4.07441l3.32097,-1.75465c0.53533,0.08595 1.37136,0.12891 2.5081,0.12891c0,-0.14537 0.01981,-0.58488 0.05948,-1.31848c-0.19166,0 -1.90338,0.12557 -5.13512,0.3767l-0.05948,-0.12891c0.44941,-2.08842 0.72038,-3.13263 0.81289,-3.13263zM64.78617,155.17681c0,0.07264 0.2115,0.8459 0.63447,2.31973h0.05947c0.83271,-0.54194 1.24909,-0.89883 1.24909,-1.07067l0.12887,-1.06073c-0.15862,0 -0.84923,-0.0628 -2.07188,-0.18839z" data-paper-data="{&quot;origPos&quot;:null}" fill="#000000"/><path d="M74.84824,146.35392l4.36187,0.77323l-0.41635,3.31106c0.86576,-0.04631 1.50022,-0.06945 1.90337,-0.06945h0.63446l0.13879,-0.06945l0.06938,0.1387c-0.13878,2.00911 -0.25775,3.13924 -0.35688,3.39038l-0.1388,-0.07923c-0.09913,0 -0.99131,-0.04631 -2.67659,-0.13889c-0.09253,1.5531 -0.16193,3.41021 -0.20819,5.57132l-0.13879,0.06945c-2.12807,-0.13878 -3.39697,-0.25776 -3.80672,-0.3569l0.06938,-0.27756c0,-0.57497 0.09251,-2.35937 0.27757,-5.35323c-1.7844,-0.09911 -2.6766,-0.21808 -2.6766,-0.35688c0.09253,-2.20737 0.21149,-3.31106 0.35689,-3.31106l2.60721,0.49567v-0.85256c0,-0.69393 -0.02644,-1.6324 -0.07931,-2.81539c0.05287,0 0.07931,-0.02314 0.07931,-0.06944z" data-paper-data="{&quot;origPos&quot;:null}" fill="#000000"/><path d="M91.62165,149.35764c2.51139,0.67412 3.84308,1.08386 3.99509,1.22926c1.38127,1.95623 2.1578,3.08306 2.32964,3.38046c-0.89221,2.82862 -1.40441,4.24293 -1.53656,4.24293c-2.97402,0.69393 -4.53043,1.04091 -4.66921,1.04091c-2.45851,-1.43415 -3.76706,-2.23382 -3.92569,-2.39904c-0.08591,-2.67 -0.12887,-4.1438 -0.12887,-4.42137c-0.03966,-0.07931 -0.05948,-0.13877 -0.05948,-0.17841c2.53782,-1.9298 3.84971,-2.8947 3.9356,-2.8947zM91.43333,152.98595c-0.03966,0.26435 -0.09914,1.22595 -0.17845,2.88477l2.21067,0.49569c0.52871,-1.65224 0.79308,-2.53453 0.79308,-2.6469c-1.75797,-0.52871 -2.69975,-0.79308 -2.82532,-0.79308z" data-paper-data="{&quot;origPos&quot;:null}" fill="#000000"/><path d="M102.7048,149.34773c1.61919,3.71421 2.48165,5.64072 2.5874,5.7795c0.79968,-3.0335 1.2656,-4.64936 1.39778,-4.84764c2.52461,0.23131 3.78691,0.42957 3.78691,0.59479v0.06945c-1.77118,4.86416 -2.72287,7.4119 -2.85505,7.64322c-1.95624,0.35689 -3.26481,0.57827 -3.92571,0.66419l-4.84763,-7.17729v-0.13888c0.04626,-0.08595 1.33169,-0.9484 3.8563,-2.5874z" data-paper-data="{&quot;origPos&quot;:null}" fill="#000000"/><path d="M117.15852,149.35764c2.99384,1.53987 4.65267,2.43869 4.97651,2.69644c-0.42957,2.00909 -0.68402,3.0434 -0.76332,3.10288h-6.26524v0.10916l1.75466,2.17101l2.75592,-1.40769c0.27097,0.46922 0.6609,1.28872 1.16978,2.4585c-0.23792,0.07931 -1.97277,0.33373 -5.20453,0.76333c-2.67661,-1.76458 -4.02484,-2.68322 -4.04466,-2.75593c0.42957,-3.43002 0.68404,-5.14502 0.76333,-5.14502c2.79558,-1.18961 4.41476,-1.85381 4.85754,-1.99261zM116.51414,151.75667c-0.05287,0.13218 -0.40315,0.65759 -1.05082,1.57623c0,0.27757 0.38993,0.41635 1.16977,0.41635c0,0.03964 0.56507,0.13548 1.69518,0.28749c0.31062,-0.42958 0.46593,-0.68072 0.46593,-0.75342c-0.09913,-0.58819 -0.31389,-0.8823 -0.64436,-0.8823z" data-paper-data="{&quot;origPos&quot;:null}" fill="#000000"/><path d="M130.15494,149.34773c1.30856,0.73358 2.11154,1.20945 2.40895,1.42753c-1.07065,2.2272 -1.64561,3.36065 -1.72492,3.40031h-0.06938l-1.41762,-1.23918l-1.67538,2.04217l0.18837,3.7175c-0.08591,0.07931 -1.1797,0.26435 -3.28132,0.55515c-0.07932,-0.56838 -0.59479,-3.35403 -1.54648,-8.35696c0,-0.07931 1.38127,-0.28416 4.1438,-0.61465c0.04626,0.05281 0.17184,0.67074 0.3767,1.85379c1.65224,-1.85711 2.518,-2.78567 2.5973,-2.78567z" data-paper-data="{&quot;origPos&quot;:null}" fill="#000000"/><path d="M141.34714,146.35392l4.36187,0.77323l-0.41636,3.31106c0.86576,-0.04631 1.50022,-0.06945 1.90337,-0.06945h0.63447l0.13879,-0.06945l0.06938,0.1387c-0.13878,2.00911 -0.25775,3.13924 -0.35688,3.39038l-0.13879,-0.07923c-0.09913,0 -0.99134,-0.04631 -2.6766,-0.13889c-0.09253,1.5531 -0.16192,3.41021 -0.20818,5.57132l-0.13879,0.06945c-2.12807,-0.13878 -3.39698,-0.25776 -3.80673,-0.3569l0.06939,-0.27756c0,-0.57497 0.09252,-2.35937 0.27757,-5.35323c-1.7844,-0.09911 -2.6766,-0.21808 -2.6766,-0.35688c0.09253,-2.20737 0.21149,-3.31106 0.35688,-3.31106l2.60721,0.49567v-0.85256c0,-0.69393 -0.02644,-1.6324 -0.07931,-2.81539c0.05287,0 0.07931,-0.02314 0.07931,-0.06944z" data-paper-data="{&quot;origPos&quot;:null}" fill="#000000"/><path d="M153.53068,146.35392c0.03966,0.05946 0.22472,1.8703 0.55515,5.4325c2.55103,-0.77984 3.90917,-1.16977 4.07441,-1.16977l2.5279,1.72492c-0.40975,3.76707 -0.6774,5.96786 -0.80298,6.60231l-3.50934,0.11895c0,-0.03964 -0.02312,-0.05946 -0.06939,-0.05946l0.06939,-0.24783c0,-0.53533 0.0793,-2.16112 0.23791,-4.87738c-0.9649,-0.03964 -1.68197,-0.05946 -2.15119,-0.05946h-0.24784c0.28418,3.02027 0.42628,4.66589 0.42628,4.93687l-3.33089,0.49567c-0.12558,-0.42296 -0.86578,-4.37179 -2.2206,-11.84647c0,-0.2115 0.5155,-0.37671 1.54649,-0.49569c1.30197,-0.37008 2.26685,-0.55513 2.8947,-0.55513z" data-paper-data="{&quot;origPos&quot;:null}" fill="#000000"/><path d="M167.24088,149.35764c2.99385,1.53987 4.65267,2.43869 4.97651,2.69644c-0.42957,2.00909 -0.68403,3.0434 -0.76332,3.10288h-6.26524v0.10916l1.75467,2.17101l2.75592,-1.40769c0.27097,0.46922 0.6609,1.28872 1.16977,2.4585c-0.23792,0.07931 -1.97276,0.33373 -5.20453,0.76333c-2.67661,-1.76458 -4.02483,-2.68322 -4.04465,-2.75593c0.42957,-3.43002 0.68403,-5.14502 0.76333,-5.14502c2.79558,-1.18961 4.41476,-1.85381 4.85754,-1.99261zM166.59651,151.75667c-0.05287,0.13218 -0.40314,0.65759 -1.05082,1.57623c0,0.27757 0.38994,0.41635 1.16978,0.41635c0,0.03964 0.56507,0.13548 1.69518,0.28749c0.31063,-0.42958 0.46594,-0.68072 0.46594,-0.75342c-0.09914,-0.58819 -0.31393,-0.8823 -0.64438,-0.8823z" data-paper-data="{&quot;origPos&quot;:null}" fill="#000000"/><path d="M180.23731,149.34773c1.30856,0.73358 2.11155,1.20945 2.40896,1.42753c-1.07065,2.2272 -1.64561,3.36065 -1.72492,3.40031h-0.06939l-1.41762,-1.23918l-1.67538,2.04217l0.18837,3.7175c-0.08591,0.07931 -1.1797,0.26435 -3.28133,0.55515c-0.07931,-0.56838 -0.5948,-3.35403 -1.54649,-8.35696c0,-0.07931 1.38127,-0.28416 4.1438,-0.61465c0.04626,0.05281 0.17184,0.67074 0.3767,1.85379c1.65224,-1.85711 2.51801,-2.78567 2.5973,-2.78567z" data-paper-data="{&quot;origPos&quot;:null}" fill="#000000"/><path d="M189.05029,149.35764c2.99385,1.53987 4.65267,2.43869 4.97651,2.69644c-0.42957,2.00909 -0.68402,3.0434 -0.76332,3.10288h-6.26524v0.10916l1.75466,2.17101l2.75592,-1.40769c0.27097,0.46922 0.6609,1.28872 1.16979,2.4585c-0.23792,0.07931 -1.97277,0.33373 -5.20454,0.76333c-2.67661,-1.76458 -4.02484,-2.68322 -4.04465,-2.75593c0.42957,-3.43002 0.68403,-5.14502 0.76333,-5.14502c2.79558,-1.18961 4.41476,-1.85381 4.85754,-1.99261zM188.40594,151.75667c-0.05287,0.13218 -0.40314,0.65759 -1.05082,1.57623c0,0.27757 0.38993,0.41635 1.16977,0.41635c0,0.03964 0.56507,0.13548 1.69519,0.28749c0.31063,-0.42958 0.46593,-0.68072 0.46593,-0.75342c-0.09914,-0.58819 -0.31392,-0.8823 -0.64437,-0.8823z" data-paper-data="{&quot;origPos&quot;:null}" fill="#000000"/><path d="M201.33296,145.37245l3.89597,0.61463c-0.48906,1.87032 -0.80959,2.80549 -0.9616,2.80549c-2.04876,-0.13878 -3.07315,-0.27429 -3.07315,-0.40645v-2.87487c0.01982,-0.09258 0.06608,-0.13889 0.13879,-0.13889zM200.24249,150.09124h0.05948c3.01368,0.54853 4.52051,0.86907 4.52051,0.9616c-0.86576,4.90381 -1.39117,7.63659 -1.57622,8.19837h-3.14255c-0.09253,0 -0.13879,-0.04631 -0.13879,-0.13889z" data-paper-data="{&quot;origPos&quot;:null}" fill="#000000"/><path d="M213.55615,149.34773c1.90338,1.21604 2.95418,1.91658 3.15247,2.10163c-0.68733,1.52667 -1.08056,2.28999 -1.17971,2.28999l-3.60847,-2.09172h-0.12886c0,0.06611 -0.15531,0.43622 -0.46593,1.11029c3.32429,1.79102 4.98643,2.70966 4.98643,2.75593c-0.93187,2.15451 -1.45727,3.29124 -1.57622,3.4102l-5.64071,0.32715c-2.19415,-1.45396 -3.37385,-2.22059 -3.53908,-2.29991v-0.05946c0,-0.16523 0.32714,-0.90872 0.98142,-2.23051l4.40154,2.28999l0.32715,-1.30856c-2.72287,-1.22265 -4.34206,-1.98598 -4.85754,-2.29v-0.13889c0,-0.25115 0.5254,-1.36475 1.57622,-3.3408z" data-paper-data="{&quot;origPos&quot;:null}" fill="#000000"/><path d="M224.23286,149.34773c3.92569,0.54194 5.88853,0.87569 5.88853,1.00128c1.54648,1.32838 2.31973,2.03885 2.31973,2.13138c-0.62785,1.96284 -0.98475,3.15576 -1.07066,3.57873c0.62785,1.39448 0.98475,2.22719 1.07066,2.49815c0,0.07931 -1.02439,0.29077 -3.07315,0.63446c-0.02649,-0.11241 -0.21482,-0.36355 -0.56508,-0.75342c-2.82862,0.54194 -4.35198,0.81291 -4.57006,0.81291l-1.50682,-4.07441l3.32097,-1.75465c0.53533,0.08595 1.37135,0.12891 2.50808,0.12891c0,-0.14537 0.01982,-0.58488 0.05946,-1.31848c-0.19165,0 -1.90336,0.12557 -5.13512,0.3767l-0.05946,-0.12891c0.4494,-2.08842 0.72038,-3.13263 0.81291,-3.13263zM226.29485,155.17681c0,0.07264 0.2115,0.8459 0.63447,2.31973h0.05945c0.83271,-0.54194 1.24909,-0.89883 1.24909,-1.07067l0.1289,-1.06073c-0.15862,0 -0.84924,-0.0628 -2.07189,-0.18839z" data-paper-data="{&quot;origPos&quot;:null}" fill="#000000"/><path d="M249.44258,149.34773c1.61258,0.66751 3.00375,1.29538 4.17354,1.88357c-0.30403,3.9323 -0.499,6.0835 -0.5849,6.45359c-1.94302,0.48247 -3.03017,0.72367 -3.2615,0.72367c0,-0.85916 -0.06608,-2.55433 -0.19825,-5.08556c-0.73358,0.07264 -1.10039,0.13544 -1.10039,0.18839c0,0.25115 0.04296,1.68527 0.12891,4.30241c0.03964,0 0.05946,0.02314 0.05946,0.06945c0,0.07931 -1.02107,0.2974 -3.06323,0.65429c-0.08595,-0.10576 -0.34699,-1.71503 -0.78315,-4.8278c-0.82612,0.21149 -1.23918,0.36348 -1.23918,0.45601l0.39655,4.04465c-0.07931,0.08595 -1.16646,0.4329 -3.26152,1.04091c-1.21603,-4.30241 -1.97606,-7.1905 -2.28005,-8.66428c2.29329,-0.56838 3.57542,-0.85255 3.84638,-0.85255c0.30402,1.20283 0.45601,1.89676 0.45601,2.08182h0.06945c1.1169,-1.031 1.89675,-1.72493 2.33955,-2.08182h0.06945l2.08182,1.49693h0.06944c1.30197,-1.25571 1.99591,-1.88357 2.08182,-1.88357z" data-paper-data="{&quot;origPos&quot;:null}" fill="#2a70c2"/><path d="M255.9755,145.37245l3.89596,0.61463c-0.48907,1.87032 -0.80959,2.80549 -0.9616,2.80549c-2.04876,-0.13878 -3.07315,-0.27429 -3.07315,-0.40645v-2.87487c0.01982,-0.09258 0.06611,-0.13889 0.13889,-0.13889zM254.88502,150.09124h0.05945c3.01368,0.54853 4.52052,0.86907 4.52052,0.9616c-0.86578,4.90381 -1.39118,7.63659 -1.57623,8.19837h-3.14254c-0.09259,0 -0.13889,-0.04631 -0.13889,-0.13889z" data-paper-data="{&quot;origPos&quot;:null}" fill="#2a70c2"/><path d="M269.00166,149.34773l3.30113,2.27017c-0.2313,3.76707 -0.39321,5.96787 -0.48574,6.60232c-0.3833,0.04631 -1.54979,0.11569 -3.49943,0.20819l-0.06944,-0.13889l-0.34697,-5.29374l-0.13888,-0.06945c-1.26231,0.27098 -2.13139,0.47586 -2.60722,0.61465c0.13219,2.25364 0.19827,3.88273 0.19827,4.8873c-1.96947,0.54853 -3.04672,0.82281 -3.23177,0.82281c-1.28212,-5.64403 -1.9232,-8.62465 -1.9232,-8.94186c2.78898,-0.36349 4.30241,-0.54524 4.54032,-0.54524v0.06945c0.0463,0.033 0.11569,0.72031 0.20818,2.06199c2.55766,-1.69851 3.90917,-2.54775 4.05458,-2.54775z" data-paper-data="{&quot;origPos&quot;:null}" fill="#2a70c2"/><path d="M278.90511,149.35764c2.99385,1.53987 4.65269,2.43869 4.97652,2.69644c-0.42958,2.00909 -0.68403,3.0434 -0.76333,3.10288h-6.26524v0.10916l1.75466,2.17101l2.75593,-1.40769c0.27096,0.46922 0.66089,1.28872 1.16977,2.4585c-0.23791,0.07931 -1.97275,0.33373 -5.20452,0.76333c-2.67661,-1.76458 -4.02484,-2.68322 -4.04465,-2.75593c0.42958,-3.43002 0.68403,-5.14502 0.76332,-5.14502c2.79557,-1.18961 4.41475,-1.85381 4.85754,-1.99261zM278.26075,151.75667c-0.05282,0.13218 -0.40309,0.65759 -1.05082,1.57623c0,0.27757 0.38993,0.41635 1.16977,0.41635c0,0.03964 0.56507,0.13548 1.6952,0.28749c0.31061,-0.42958 0.46591,-0.68072 0.46591,-0.75342c-0.09911,-0.58819 -0.31389,-0.8823 -0.64436,-0.8823z" data-paper-data="{&quot;origPos&quot;:null}" fill="#2a70c2"/><path d="M288.67969,149.35764c2.98063,0.56175 4.54033,0.88229 4.67911,0.9616v0.11894c-0.64106,1.81085 -0.9616,2.74932 -0.9616,2.81541h-0.05946c-0.16525,0 -0.96491,-0.25776 -2.39903,-0.77326c-0.79969,1.34162 -1.19953,2.05868 -1.19953,2.15121l1.98268,1.9232c1.53327,-1.44075 2.31311,-2.16113 2.33956,-2.16113c1.19621,1.56633 1.79433,2.44532 1.79433,2.63697c-0.65427,0.37669 -1.79432,1.11689 -3.42012,2.22059c-3.14585,-0.68072 -4.84433,-1.06074 -5.09549,-1.14005l-1.5564,-5.03598z" data-paper-data="{&quot;origPos&quot;:null}" fill="#2a70c2"/><path d="M297.35389,149.34773c3.92569,0.54194 5.88854,0.87569 5.88854,1.00128c1.54649,1.32838 2.31973,2.03885 2.31973,2.13138c-0.62784,1.96284 -0.98473,3.15576 -1.07065,3.57873c0.62784,1.39448 0.98473,2.22719 1.07065,2.49815c0,0.07931 -1.02439,0.29077 -3.07315,0.63446c-0.02648,-0.11241 -0.21482,-0.36355 -0.56505,-0.75342c-2.82863,0.54194 -4.35198,0.81291 -4.57007,0.81291l-1.50682,-4.07441l3.32098,-1.75465c0.53533,0.08595 1.37135,0.12891 2.5081,0.12891c0,-0.14537 0.01982,-0.58488 0.05946,-1.31848c-0.19165,0 -1.90337,0.12557 -5.13512,0.3767l-0.05946,-0.12891c0.44941,-2.08842 0.72038,-3.13263 0.81289,-3.13263zM299.41588,155.17681c0,0.07264 0.21149,0.8459 0.63446,2.31973h0.05946c0.83271,-0.54194 1.24908,-0.89883 1.24908,-1.07067l0.12891,-1.06073c-0.15862,0 -0.84924,-0.0628 -2.07189,-0.18839z" data-paper-data="{&quot;origPos&quot;:null}" fill="#2a70c2"/><path d="M313.63165,149.34773c1.30855,0.73358 2.11154,1.20945 2.40896,1.42753c-1.07065,2.2272 -1.64561,3.36065 -1.72492,3.40031h-0.06944l-1.41762,-1.23918l-1.67537,2.04217l0.1884,3.7175c-0.08594,0.07931 -1.17973,0.26435 -3.28132,0.55515c-0.0793,-0.56838 -0.59479,-3.35403 -1.54648,-8.35696c0,-0.07931 1.38128,-0.28416 4.14379,-0.61465c0.0463,0.05281 0.17189,0.67074 0.37673,1.85379c1.65224,-1.85711 2.518,-2.78567 2.5973,-2.78567z" data-paper-data="{&quot;origPos&quot;:null}" fill="#2a70c2"/><path d="M319.78787,146.35392l4.36188,0.77323l-0.41636,3.31106c0.86576,-0.04631 1.50022,-0.06945 1.90336,-0.06945h0.63446l0.13889,-0.06945l0.06944,0.1387c-0.13878,2.00911 -0.25775,3.13924 -0.35688,3.39038l-0.13889,-0.07923c-0.09911,0 -0.99132,-0.04631 -2.6766,-0.13889c-0.09259,1.5531 -0.16198,3.41021 -0.20817,5.57132l-0.13889,0.06945c-2.12807,-0.13878 -3.39697,-0.25776 -3.80672,-0.3569l0.06944,-0.27756c0,-0.57497 0.09252,-2.35937 0.27756,-5.35323c-1.7844,-0.09911 -2.6766,-0.21808 -2.6766,-0.35688c0.09259,-2.20737 0.21156,-3.31106 0.35688,-3.31106l2.60721,0.49567v-0.85256c0,-0.69393 -0.02642,-1.6324 -0.07923,-2.81539c0.05282,0 0.07923,-0.02314 0.07923,-0.06944z" data-paper-data="{&quot;origPos&quot;:null}" fill="#2a70c2"/><path d="M327.64918,156.19788c0.0463,0.02649 1.07729,0.10577 3.09296,0.23791l0.03971,0.07924c-0.31063,1.82405 -0.50889,2.73609 -0.5948,2.73609h-2.2999c-0.0793,0 -0.18504,-0.91204 -0.31724,-2.73608c-0.02648,0 -0.03971,-0.07931 -0.03971,-0.23791c0.0793,-0.02649 0.11895,-0.05288 0.11895,-0.07924z" data-paper-data="{&quot;origPos&quot;:null}" fill="#000000"/><path d="M337.20566,146.99826c1.8505,0.07931 2.77574,0.15861 2.77574,0.23793v0.03971c0,0.37008 0.17184,4.34865 0.51549,11.9357l-0.07923,0.03971l-3.60847,-0.23791c-0.02648,-0.05281 -0.03971,-0.09246 -0.03971,-0.11895l0.31724,-11.53915c0.01982,-0.23792 0.05946,-0.35689 0.11894,-0.35689z" data-paper-data="{&quot;origPos&quot;:null}" fill="#000000"/><path d="M344.29374,146.35392l4.36186,0.77323l-0.41635,3.31106c0.86576,-0.04631 1.50022,-0.06945 1.90338,-0.06945h0.63446l0.13869,-0.06945l0.06945,0.1387c-0.13878,2.00911 -0.25776,3.13924 -0.3569,3.39038l-0.13869,-0.07923c-0.09911,0 -0.99132,-0.04631 -2.67662,-0.13889c-0.09259,1.5531 -0.16199,3.41021 -0.20818,5.57132l-0.13889,0.06945c-2.12807,-0.13878 -3.39697,-0.25776 -3.80672,-0.3569l0.06944,-0.27756c0,-0.57497 0.09253,-2.35937 0.27758,-5.35323c-1.78441,-0.09911 -2.67661,-0.21808 -2.67661,-0.35688c0.09259,-2.20737 0.21156,-3.31106 0.35689,-3.31106l2.60721,0.49567v-0.85256c0,-0.69393 -0.02642,-1.6324 -0.07923,-2.81539c0.05282,0 0.07923,-0.02314 0.07923,-0.06944z" data-paper-data="{&quot;origPos&quot;:null}" fill="#000000"/><path d="M368.08581,149.34773c1.61259,0.66751 3.00376,1.29538 4.17355,1.88357c-0.30402,3.9323 -0.49899,6.0835 -0.58489,6.45359c-1.94302,0.48247 -3.03018,0.72367 -3.26151,0.72367c0,-0.85916 -0.06609,-2.55433 -0.19826,-5.08556c-0.73358,0.07264 -1.10038,0.13544 -1.10038,0.18839c0,0.25115 0.04296,1.68527 0.1289,4.30241c0.03964,0 0.05946,0.02314 0.05946,0.06945c0,0.07931 -1.02108,0.2974 -3.06323,0.65429c-0.08594,-0.10576 -0.347,-1.71503 -0.78317,-4.8278c-0.82611,0.21149 -1.23916,0.36348 -1.23916,0.45601l0.39653,4.04465c-0.0793,0.08595 -1.16645,0.4329 -3.2615,1.04091c-1.21604,-4.30241 -1.97608,-7.1905 -2.28007,-8.66428c2.29329,-0.56838 3.57542,-0.85255 3.8464,-0.85255c0.30402,1.20283 0.45601,1.89676 0.45601,2.08182h0.06944c1.1169,-1.031 1.89676,-1.72493 2.33956,-2.08182h0.06945l2.0818,1.49693h0.06944c1.30196,-1.25571 1.99588,-1.88357 2.0818,-1.88357z" data-paper-data="{&quot;origPos&quot;:null}" fill="#000000"/><path d="M374.75752,149.34773c3.92569,0.54194 5.88854,0.87569 5.88854,1.00128c1.54647,1.32838 2.31971,2.03885 2.31971,2.13138c-0.62784,1.96284 -0.98473,3.15576 -1.07065,3.57873c0.62785,1.39448 0.98474,2.22719 1.07065,2.49815c0,0.07931 -1.02438,0.29077 -3.07313,0.63446c-0.02648,-0.11241 -0.21482,-0.36355 -0.56508,-0.75342c-2.82863,0.54194 -4.35198,0.81291 -4.57006,0.81291l-1.50684,-4.07441l3.32098,-1.75465c0.53533,0.08595 1.37135,0.12891 2.5081,0.12891c0,-0.14537 0.01982,-0.58488 0.05946,-1.31848c-0.19165,0 -1.90337,0.12557 -5.13511,0.3767l-0.05946,-0.12891c0.44941,-2.08842 0.72038,-3.13263 0.81291,-3.13263zM376.8195,155.17681c0,0.07264 0.21148,0.8459 0.63444,2.31973h0.05946c0.83271,-0.54194 1.24908,-0.89883 1.24908,-1.07067l0.12891,-1.06073c-0.15862,0 -0.84923,-0.0628 -2.07187,-0.18839z" data-paper-data="{&quot;origPos&quot;:null}" fill="#000000"/><path d="M388.28928,146.35392c0.09259,0.26435 0.30076,2.13798 0.62453,5.62088l2.97401,-3.33091h0.06945c0.46262,0.38331 1.31848,1.1929 2.56756,2.42877v0.06944l-2.84514,2.34946c2.14128,1.43415 3.27472,2.24373 3.40029,2.42877c-1.34821,1.50022 -2.15778,2.35609 -2.42876,2.56756l-3.45977,-3.19211c0.1388,1.42753 0.20819,2.49156 0.20819,3.19211c-0.16525,0.09258 -1.39118,0.34704 -3.67787,0.76333c-0.18505,-0.92524 -0.78645,-4.90051 -1.80424,-11.92579c0.42296,-0.13878 1.88023,-0.46262 4.37179,-0.97149z" data-paper-data="{&quot;origPos&quot;:null}" fill="#000000"/><path d="M401.55339,149.35764c2.99383,1.53987 4.65267,2.43869 4.9765,2.69644c-0.42957,2.00909 -0.68403,3.0434 -0.76333,3.10288h-6.26524v0.10916l1.75468,2.17101l2.75591,-1.40769c0.27096,0.46922 0.66088,1.28872 1.16977,2.4585c-0.23791,0.07931 -1.97275,0.33373 -5.20452,0.76333c-2.6766,-1.76458 -4.02483,-2.68322 -4.04465,-2.75593c0.42958,-3.43002 0.68403,-5.14502 0.76332,-5.14502c2.79558,-1.18961 4.41476,-1.85381 4.85756,-1.99261zM400.90901,151.75667c-0.05282,0.13218 -0.40309,0.65759 -1.05081,1.57623c0,0.27757 0.38993,0.41635 1.16977,0.41635c0,0.03964 0.56506,0.13548 1.69519,0.28749c0.31063,-0.42958 0.46593,-0.68072 0.46593,-0.75342c-0.09911,-0.58819 -0.3139,-0.8823 -0.64438,-0.8823z" data-paper-data="{&quot;origPos&quot;:null}" fill="#000000"/><path d="M415.43208,149.34773c1.90336,1.21604 2.95417,1.91658 3.15246,2.10163c-0.68732,1.52667 -1.08054,2.28999 -1.1797,2.28999l-3.60847,-2.09172h-0.1289c0,0.06611 -0.15531,0.43622 -0.46593,1.11029c3.32428,1.79102 4.98644,2.70966 4.98644,2.75593c-0.93187,2.15451 -1.45727,3.29124 -1.57623,3.4102l-5.64071,0.32715c-2.19415,-1.45396 -3.37385,-2.22059 -3.53908,-2.29991v-0.05946c0,-0.16523 0.32716,-0.90872 0.98143,-2.23051l4.40153,2.28999l0.32717,-1.30856c-2.72287,-1.22265 -4.34206,-1.98598 -4.85756,-2.29v-0.13889c0,-0.25115 0.5254,-1.36475 1.57623,-3.3408z" data-paper-data="{&quot;origPos&quot;:null}" fill="#000000"/></g><g data-paper-data="{&quot;origPos&quot;:null}" stroke="none" stroke-width="0.26459" stroke-linecap="butt"><path d="M37.42491,173.68035c0.09252,0.01316 0.13878,0.05939 0.13878,0.13869l-1.03099,5.71011c1.96947,-0.23131 2.95418,-0.41636 2.95418,-0.55515c0.37009,-2.2867 0.62454,-3.56883 0.76332,-3.8464c2.43869,0.50227 3.7902,0.79968 4.05457,0.89221c-1.42091,4.884 -2.20078,7.42843 -2.33956,7.63332c-2.48495,1.74475 -3.88274,2.70965 -4.19336,2.8947c-0.09252,0 -1.67538,-0.38994 -4.7485,-1.16979v-0.06945c0.81289,-1.79102 1.31849,-2.68652 1.51675,-2.68652l3.02356,1.51674l1.44736,-2.47835c-1.30196,0.32383 -2.05869,0.48574 -2.27018,0.48574l-3.8563,-2.00234c0.46922,-4.309 0.76663,-6.46352 0.8922,-6.46352z" data-paper-data="{&quot;origPos&quot;:null}" fill="#000000"/><path d="M49.27141,173.67043c2.51139,0.67412 3.84309,1.08386 3.99509,1.22926c1.38127,1.95623 2.15781,3.08306 2.32964,3.38044c-0.8922,2.82862 -1.4044,4.24293 -1.53656,4.24293c-2.97401,0.69394 -4.53042,1.04091 -4.6692,1.04091c-2.45851,-1.43415 -3.76707,-2.23381 -3.9257,-2.39903c-0.08591,-2.67 -0.12886,-4.1438 -0.12886,-4.42137c-0.03966,-0.07931 -0.05948,-0.13877 -0.05948,-0.17841c2.53781,-1.9298 3.8497,-2.89471 3.93559,-2.89471zM49.08306,177.29872c-0.03966,0.26435 -0.09914,1.22595 -0.17844,2.88477l2.21067,0.49567c0.52871,-1.65224 0.79308,-2.53453 0.79308,-2.64688c-1.75797,-0.52871 -2.69975,-0.79307 -2.82532,-0.79307z" data-paper-data="{&quot;origPos&quot;:null}" fill="#000000"/><path d="M61.85146,173.66052l0.06938,0.1289l-1.3383,7.09797h0.06939l3.4102,-1.00125v-4.01489c0.01323,-0.09258 0.05618,-0.13889 0.12887,-0.13889c2.56427,0.17843 3.99177,0.26763 4.28258,0.26763c0,0.04631 0.02312,0.06945 0.06938,0.06945c0,1.13013 -0.35689,3.47298 -1.07066,7.02858c0,0.20488 -1.02438,0.36018 -3.07314,0.46594c-0.10573,-0.12559 -0.19497,-0.39325 -0.26765,-0.80298c-2.62374,0.53533 -4.12068,0.80298 -4.49077,0.80298c-2.09502,-1.5597 -3.14254,-2.3627 -3.14254,-2.40896c0.35689,-4.68574 0.5816,-7.1178 0.67412,-7.29625h0.05948c1.67206,-0.04631 3.21193,-0.11237 4.61962,-0.19825z" data-paper-data="{&quot;origPos&quot;:null}" fill="#000000"/><path d="M81.97561,173.69024c2.80879,0.07264 4.2132,0.19492 4.2132,0.36681c0.48246,7.31608 0.72367,11.20872 0.72367,11.67794c-2.12807,1.35483 -3.65142,2.27347 -4.57006,2.75592c-3.23838,-1.01777 -4.85754,-1.59934 -4.85754,-1.74476c1.04421,-1.52667 1.64893,-2.29991 1.81416,-2.31973c1.76458,0.87238 2.77904,1.30857 3.0434,1.30857l0.94176,-1.23918c-0.25114,-1.02438 -0.41967,-1.6291 -0.50558,-1.81414c-0.14538,0 -1.93641,0.29079 -5.37305,0.87237c-1.88355,-3.05993 -2.82532,-4.62955 -2.82532,-4.70886c1.6258,-2.5973 2.61714,-4.12068 2.97402,-4.57006h0.06938c0.19166,0 1.61917,0.31392 4.28258,0.94177v-0.21811c0,-0.25776 -0.02312,-0.6708 -0.06938,-1.23916zM78.8628,177.89352c0.09253,0.20489 0.38331,1.29537 0.87237,3.27143c0.61464,-0.19826 1.5564,-0.56175 2.82532,-1.09047c-0.24453,-1.18961 -0.36681,-1.86703 -0.36681,-2.03224l-0.35689,-0.06945h-0.43619c-0.55515,0 -1.4011,-0.02642 -2.53783,-0.07923z" data-paper-data="{&quot;origPos&quot;:null}" fill="#000000"/><path d="M91.9782,173.67043c2.51139,0.67412 3.84308,1.08386 3.99509,1.22926c1.38127,1.95623 2.15781,3.08306 2.32964,3.38044c-0.8922,2.82862 -1.40441,4.24293 -1.53657,4.24293c-2.97402,0.69394 -4.53042,1.04091 -4.6692,1.04091c-2.45851,-1.43415 -3.76706,-2.23381 -3.92569,-2.39903c-0.08591,-2.67 -0.12887,-4.1438 -0.12887,-4.42137c-0.03966,-0.07931 -0.05948,-0.13877 -0.05948,-0.17841c2.53782,-1.9298 3.84971,-2.89471 3.9356,-2.89471zM91.78986,177.29872c-0.03966,0.26435 -0.09914,1.22595 -0.17844,2.88477l2.21067,0.49567c0.52871,-1.65224 0.79308,-2.53453 0.79308,-2.64688c-1.75797,-0.52871 -2.69974,-0.79307 -2.8253,-0.79307z" data-paper-data="{&quot;origPos&quot;:null}" fill="#000000"/><path d="M108.09736,173.66052c1.61919,3.71421 2.48164,5.64071 2.58739,5.77949c0.79968,-3.0335 1.26561,-4.64936 1.39778,-4.84764c2.52461,0.23131 3.78692,0.42958 3.78692,0.5948v0.06945c-1.77118,4.86416 -2.72288,7.41189 -2.85506,7.6432c-1.95624,0.35689 -3.26481,0.57829 -3.92571,0.66421l-4.84763,-7.17731v-0.1387c0.04626,-0.08595 1.33169,-0.9484 3.8563,-2.5874z" data-paper-data="{&quot;origPos&quot;:null}" fill="#000000"/><path d="M122.55105,173.67043c2.99384,1.53987 4.65267,2.43869 4.97651,2.69644c-0.42957,2.00909 -0.68402,3.0434 -0.76332,3.10288h-6.26525v0.10896l1.75466,2.17103l2.75592,-1.4077c0.27097,0.46922 0.66089,1.28873 1.16978,2.45852c-0.23792,0.07931 -1.97276,0.33373 -5.20453,0.76333c-2.67661,-1.76458 -4.02484,-2.68323 -4.04465,-2.75594c0.42957,-3.43003 0.68403,-5.14505 0.76333,-5.14505c2.79558,-1.1896 4.41476,-1.85379 4.85754,-1.99259zM121.90667,176.06946c-0.05287,0.13218 -0.40314,0.65759 -1.05081,1.57621c0,0.27757 0.38994,0.41635 1.16978,0.41635c0,0.03964 0.56507,0.13548 1.69518,0.28751c0.31062,-0.42958 0.46594,-0.68071 0.46594,-0.75341c-0.09913,-0.5882 -0.31391,-0.88231 -0.64437,-0.88231z" data-paper-data="{&quot;origPos&quot;:null}" fill="#000000"/><path d="M135.54749,173.66052c1.30856,0.73358 2.11154,1.20945 2.40895,1.42753c-1.07065,2.2272 -1.64561,3.36065 -1.72492,3.40029h-0.06939l-1.41761,-1.23916l-1.67538,2.04215l0.18837,3.71753c-0.08591,0.07931 -1.1797,0.26434 -3.28133,0.55515c-0.07931,-0.56838 -0.59479,-3.35404 -1.54648,-8.35699c0,-0.07931 1.38128,-0.28415 4.14381,-0.61462c0.04626,0.05281 0.17183,0.67075 0.3767,1.8538c1.65224,-1.85711 2.518,-2.78567 2.59729,-2.78567z" data-paper-data="{&quot;origPos&quot;:null}" fill="#000000"/><path d="M143.29973,173.68035c0.09253,0.01316 0.13879,0.05939 0.13879,0.13869l-1.03099,5.71011c1.96947,-0.23131 2.95417,-0.41636 2.95417,-0.55515c0.37009,-2.2867 0.62455,-3.56883 0.76333,-3.8464c2.43869,0.50227 3.7902,0.79968 4.05457,0.89221c-1.42091,4.884 -2.20078,7.42843 -2.33956,7.63332c-2.48495,1.74475 -3.88273,2.70965 -4.19336,2.8947c-0.09253,0 -1.67538,-0.38994 -4.7485,-1.16979v-0.06945c0.8129,-1.79102 1.31848,-2.68652 1.51674,-2.68652l3.02357,1.51674l1.44735,-2.47835c-1.30197,0.32383 -2.05867,0.48574 -2.27017,0.48574l-3.85631,-2.00248c0.46922,-4.309 0.76664,-6.46353 0.89221,-6.46353z" data-paper-data="{&quot;origPos&quot;:null}" fill="#000000"/><path d="M160.31108,170.66667c0.35028,0.03964 1.6258,0.33375 3.82657,0.88229l0.05948,0.11894c-0.32384,1.80425 -0.5188,2.70636 -0.58488,2.70636h-0.05948l-1.59607,-0.82281c0,0.18504 -0.05947,1.01115 -0.17845,2.47835l2.18095,-0.53535c0.06609,0.19826 0.12557,1.08056 0.17844,2.6469c-0.2115,0.07931 -0.93847,0.19824 -2.18094,0.35687c0.27757,1.18961 0.57166,2.64356 0.88229,4.36187c-1.01777,0.23131 -2.23381,0.46594 -3.64812,0.70386l-0.05948,-0.11894c-0.18506,-3.05993 -0.34036,-4.58988 -0.46593,-4.58988c-1.28213,0.31063 -1.96947,0.48575 -2.06199,0.52539c-0.07931,-0.38331 -0.21809,-1.42422 -0.41635,-3.12272l0.11896,-0.05946h2.12146c-0.11897,-0.97812 -0.29742,-2.25364 -0.53533,-3.82657z" data-paper-data="{&quot;origPos&quot;:null}" fill="#000000"/><path d="M166.61598,173.66052c3.92569,0.54194 5.88853,0.87568 5.88853,1.00126c1.54647,1.32839 2.31973,2.03886 2.31973,2.13139c-0.62785,1.96284 -0.98474,3.15576 -1.07065,3.57874c0.62785,1.39448 0.98474,2.22719 1.07065,2.49815c0,0.07931 -1.02439,0.29077 -3.07315,0.63447c-0.02645,-0.11241 -0.21478,-0.36356 -0.56507,-0.75342c-2.82862,0.54194 -4.35198,0.81291 -4.57006,0.81291l-1.50682,-4.07443l3.32097,-1.75465c0.53533,0.08595 1.37135,0.12891 2.50809,0.12891c0,-0.14539 0.01981,-0.5849 0.05947,-1.31849c-0.19166,0 -1.90336,0.12558 -5.13511,0.37673l-0.05948,-0.12891c0.4494,-2.08842 0.72038,-3.13263 0.8129,-3.13263zM168.67797,179.48957c0,0.07264 0.2115,0.84589 0.63447,2.31973h0.05947c0.83271,-0.54193 1.24909,-0.8988 1.24909,-1.07064l0.12886,-1.06073c-0.15862,0 -0.84923,-0.06281 -2.07188,-0.1884z" data-paper-data="{&quot;origPos&quot;:null}" fill="#000000"/><path d="M183.77604,173.66052c1.90337,1.21604 2.95418,1.91657 3.15247,2.10162c-0.68732,1.52667 -1.08055,2.29 -1.1797,2.29l-3.60848,-2.09175h-0.12886c0,0.06611 -0.15531,0.43623 -0.46593,1.11032c3.32429,1.79102 4.98643,2.70965 4.98643,2.75591c-0.93187,2.15452 -1.45728,3.29126 -1.57622,3.41019l-5.64071,0.32716c-2.19415,-1.45397 -3.37384,-2.22061 -3.53907,-2.29992v-0.05946c0,-0.16523 0.32714,-0.90873 0.98142,-2.23052l4.40154,2.28998l0.32714,-1.30856c-2.72287,-1.22264 -4.34206,-1.98596 -4.85754,-2.28998v-0.13889c0,-0.25115 0.5254,-1.36475 1.57622,-3.34079z" data-paper-data="{&quot;origPos&quot;:null}" fill="#000000"/><path d="M190.87402,170.66667l4.36187,0.77325l-0.41636,3.31106c0.86576,-0.04631 1.50023,-0.06945 1.90338,-0.06945h0.63446l0.13879,-0.06944l0.06939,0.13889c-0.13878,2.00911 -0.25776,3.13924 -0.35689,3.39038l-0.13879,-0.07923c-0.09914,0 -0.99135,-0.04624 -2.67661,-0.1387c-0.09253,1.55309 -0.16191,3.41019 -0.20817,5.5713l-0.1388,0.06944c-2.12807,-0.13878 -3.39698,-0.25776 -3.80672,-0.3569l0.06939,-0.27756c0,-0.57499 0.09252,-2.35939 0.27757,-5.35323c-1.7844,-0.09911 -2.67661,-0.21809 -2.67661,-0.3569c0.09253,-2.20737 0.21149,-3.31106 0.35689,-3.31106l2.60721,0.49567v-0.85253c0,-0.69394 -0.02645,-1.63242 -0.07932,-2.81539c0.05287,0 0.07932,-0.02314 0.07932,-0.06945z" data-paper-data="{&quot;origPos&quot;:null}" fill="#000000"/><path d="M199.99433,181.4227c1.79763,0.21149 2.69975,0.33042 2.70635,0.35687c-1.09047,2.56428 -1.7018,3.91249 -1.83398,4.04466c-0.89882,-0.11229 -1.34823,-0.20483 -1.34823,-0.27758c0.23792,-2.7493 0.38331,-4.12395 0.4362,-4.12395z" data-paper-data="{&quot;origPos&quot;:null}" fill="#000000"/><path d="M213.79375,170.66667l0.06939,0.1289c0,0.37671 0.08592,1.83398 0.25776,4.3718c2.36598,-0.75342 3.69107,-1.14994 3.97525,-1.18959l3.56882,3.83645c-1.50022,3.36394 -2.31645,5.14835 -2.44861,5.35322c-0.41635,-0.04631 -1.93642,-0.11237 -4.56016,-0.19825v0.46593c0,0.08595 -0.04626,0.12891 -0.13879,0.12891h-3.83646c-0.13878,0 -0.40315,-1.98268 -0.79309,-5.94802c-0.08591,-0.33704 -0.32714,-2.32304 -0.72367,-5.95792c2.24704,-0.52871 3.79021,-0.85917 4.62956,-0.99135zM214.45795,177.94308l0.25776,2.44861h1.9926l0.72367,-2.77574c-1.98267,0.17184 -2.97401,0.28088 -2.97401,0.32715z" data-paper-data="{&quot;origPos&quot;:null}" fill="#000000"/><path d="M228.03926,173.66052l0.06945,0.1289l-1.3383,7.09797h0.06944l3.4102,-1.00125v-4.01489c0.01316,-0.09258 0.05615,-0.13889 0.12891,-0.13889c2.56428,0.17843 3.99178,0.26763 4.28258,0.26763c0,0.04631 0.02314,0.06945 0.06944,0.06945c0,1.13013 -0.35688,3.47298 -1.07066,7.02858c0,0.20488 -1.02439,0.36018 -3.07315,0.46594c-0.10576,-0.12559 -0.19499,-0.39325 -0.26765,-0.80298c-2.62373,0.53533 -4.12067,0.80298 -4.49076,0.80298c-2.09502,-1.5597 -3.14254,-2.3627 -3.14254,-2.40896c0.35689,-4.68574 0.58159,-7.1178 0.67412,-7.29625h0.05946c1.67205,-0.04631 3.21193,-0.11237 4.61962,-0.19825z" data-paper-data="{&quot;origPos&quot;:null}" fill="#000000"/><path d="M238.69614,170.66667l4.36187,0.77325l-0.41635,3.31106c0.86576,-0.04631 1.50021,-0.06945 1.90337,-0.06945h0.63444l0.13889,-0.06944l0.06944,0.13889c-0.1388,2.00911 -0.25777,3.13924 -0.3569,3.39038l-0.13889,-0.07923c-0.09911,0 -0.99132,-0.04624 -2.67659,-0.1387c-0.09258,1.55309 -0.16199,3.41019 -0.20818,5.5713l-0.1387,0.06944c-2.12807,-0.13878 -3.39697,-0.25776 -3.80672,-0.3569l0.06944,-0.27756c0,-0.57499 0.09252,-2.35939 0.27757,-5.35323c-1.7844,-0.09911 -2.67659,-0.21809 -2.67659,-0.3569c0.09258,-2.20737 0.21156,-3.31106 0.35689,-3.31106l2.60721,0.49567v-0.85253c0,-0.69394 -0.02642,-1.63242 -0.07923,-2.81539c0.05281,0 0.07923,-0.02314 0.07923,-0.06945z" data-paper-data="{&quot;origPos&quot;:null}" fill="#000000"/><path d="M256.03462,173.68035c0.09259,0.01316 0.13889,0.05939 0.13889,0.13869l-1.03101,5.71011c1.96947,-0.23131 2.95419,-0.41636 2.95419,-0.55515c0.37009,-2.2867 0.62455,-3.56883 0.76333,-3.8464c2.4387,0.50227 3.7902,0.79968 4.05457,0.89221c-1.42092,4.884 -2.20079,7.42843 -2.33957,7.63332c-2.48495,1.74475 -3.88273,2.70965 -4.19335,2.8947c-0.09259,0 -1.67541,-0.38994 -4.74849,-1.16979v-0.06945c0.8129,-1.79102 1.31848,-2.68652 1.51674,-2.68652l3.02357,1.51674l1.44733,-2.47835c-1.30196,0.32383 -2.05868,0.48574 -2.27017,0.48574l-3.8563,-2.00248c0.46922,-4.309 0.76663,-6.46353 0.89221,-6.46353z" data-paper-data="{&quot;origPos&quot;:null}" fill="#000000"/><path d="M267.88109,173.67043c2.51139,0.67412 3.84308,1.08386 3.99509,1.22926c1.38128,1.95623 2.1578,3.08306 2.32965,3.38044c-0.8922,2.82862 -1.40441,4.24293 -1.53658,4.24293c-2.97401,0.69394 -4.53042,1.04091 -4.6692,1.04091c-2.45851,-1.43415 -3.76707,-2.23381 -3.92569,-2.39903c-0.08594,-2.67 -0.1289,-4.1438 -0.1289,-4.42137c-0.03964,-0.07931 -0.05946,-0.13877 -0.05946,-0.17841c2.53782,-1.9298 3.84971,-2.89471 3.93561,-2.89471zM267.6927,177.29872c-0.03964,0.26435 -0.09911,1.22595 -0.1784,2.88477l2.21066,0.49567c0.52873,-1.65224 0.7931,-2.53453 0.7931,-2.64688c-1.75798,-0.52871 -2.69975,-0.79307 -2.82532,-0.79307z" data-paper-data="{&quot;origPos&quot;:null}" fill="#000000"/><path d="M280.46117,173.66052l0.06944,0.1289l-1.3383,7.09797h0.06945l3.4102,-1.00125v-4.01489c0.01316,-0.09258 0.05614,-0.13889 0.1289,-0.13889c2.56426,0.17843 3.99178,0.26763 4.28259,0.26763c0,0.04631 0.02314,0.06945 0.06944,0.06945c0,1.13013 -0.35689,3.47298 -1.07064,7.02858c0,0.20488 -1.02439,0.36018 -3.07315,0.46594c-0.10576,-0.12559 -0.19499,-0.39325 -0.26765,-0.80298c-2.62373,0.53533 -4.12067,0.80298 -4.49076,0.80298c-2.09502,-1.5597 -3.14253,-2.3627 -3.14253,-2.40896c0.35689,-4.68574 0.58158,-7.1178 0.67411,-7.29625h0.05946c1.67207,-0.04631 3.21194,-0.11237 4.61962,-0.19825z" data-paper-data="{&quot;origPos&quot;:null}" fill="#000000"/><path d="M297.08589,173.67043c2.98062,0.56175 4.54031,0.88229 4.67909,0.96159v0.11895c-0.64106,1.81085 -0.96159,2.74932 -0.96159,2.81539h-0.05946c-0.16523,0 -0.9649,-0.25775 -2.39904,-0.77323c-0.79969,1.34162 -1.19952,2.05868 -1.19952,2.15119l1.98268,1.9232c1.53327,-1.44075 2.31311,-2.16113 2.33957,-2.16113c1.1962,1.56631 1.79431,2.4453 1.79431,2.63694c-0.65427,0.37671 -1.79432,1.11691 -3.42012,2.22061c-3.14585,-0.68072 -4.84433,-1.06073 -5.09549,-1.14005l-1.5564,-5.036z" data-paper-data="{&quot;origPos&quot;:null}" fill="#000000"/><path d="M305.76008,173.66052c3.92569,0.54194 5.88853,0.87568 5.88853,1.00126c1.54649,1.32839 2.31973,2.03886 2.31973,2.13139c-0.62784,1.96284 -0.98473,3.15576 -1.07064,3.57874c0.62784,1.39448 0.98473,2.22719 1.07064,2.49815c0,0.07931 -1.02439,0.29077 -3.07315,0.63447c-0.02648,-0.11241 -0.21482,-0.36356 -0.56505,-0.75342c-2.82863,0.54194 -4.35197,0.81291 -4.57006,0.81291l-1.50683,-4.07443l3.32098,-1.75465c0.53533,0.08595 1.37135,0.12891 2.5081,0.12891c0,-0.14539 0.01982,-0.5849 0.05946,-1.31849c-0.19165,0 -1.90336,0.12558 -5.13512,0.37673l-0.05946,-0.12891c0.44941,-2.08842 0.72038,-3.13263 0.81289,-3.13263zM307.82206,179.48957c0,0.07264 0.21149,0.84589 0.63446,2.31973h0.05946c0.83271,-0.54193 1.24909,-0.8988 1.24909,-1.07064l0.1289,-1.06073c-0.15862,0 -0.84924,-0.06281 -2.07189,-0.1884z" data-paper-data="{&quot;origPos&quot;:null}" fill="#000000"/><path d="M323.72312,173.66052l3.30116,2.27017c-0.23131,3.76707 -0.39324,5.96787 -0.48575,6.60231c-0.38332,0.04631 -1.5498,0.11569 -3.49943,0.20818l-0.06945,-0.13889l-0.34695,-5.29374l-0.13889,-0.06945c-1.26231,0.27096 -2.13138,0.47584 -2.60721,0.61462c0.13218,2.25365 0.19825,3.88274 0.19825,4.8873c-1.96947,0.54854 -3.04671,0.82282 -3.23175,0.82282c-1.28212,-5.64403 -1.9232,-8.62465 -1.9232,-8.94188c2.78896,-0.36349 4.3024,-0.54524 4.54032,-0.54524v0.06945c0.0463,0.033 0.11569,0.72032 0.20817,2.06199c2.55766,-1.69851 3.90917,-2.54775 4.05456,-2.54775z" data-paper-data="{&quot;origPos&quot;:null}" fill="#000000"/><path d="M341.04181,173.66052c1.90336,1.21604 2.95417,1.91657 3.15246,2.10162c-0.68733,1.52667 -1.08055,2.29 -1.1797,2.29l-3.60847,-2.09175h-0.12891c0,0.06611 -0.15531,0.43623 -0.46593,1.11032c3.32428,1.79102 4.98642,2.70965 4.98642,2.75591c-0.93187,2.15452 -1.45727,3.29126 -1.57621,3.41019l-5.6407,0.32716c-2.19415,-1.45397 -3.37385,-2.22061 -3.53908,-2.29992v-0.05946c0,-0.16523 0.32715,-0.90873 0.98143,-2.23052l4.40153,2.28998l0.32714,-1.30856c-2.72287,-1.22264 -4.34205,-1.98596 -4.85754,-2.28998v-0.13889c0,-0.25115 0.52541,-1.36475 1.57621,-3.34079z" data-paper-data="{&quot;origPos&quot;:null}" fill="#2a70c2"/><path d="M345.17567,170.67659c2.02234,0.03964 3.50604,0.05946 4.45113,0.05946c0.08594,0 0.34698,4.05788 0.78315,12.17362c-0.33704,0.08595 -1.51343,0.30405 -3.52915,0.65428c-0.09911,0 -0.42626,-2.48495 -0.98143,-7.45487c-0.0463,-0.11895 -0.28753,-1.92978 -0.72368,-5.43252z" data-paper-data="{&quot;origPos&quot;:null}" fill="#2a70c2"/><path d="M355.51533,173.67043c2.51139,0.67412 3.84308,1.08386 3.99509,1.22926c1.38128,1.95623 2.15781,3.08306 2.32965,3.38044c-0.8922,2.82862 -1.40441,4.24293 -1.53658,4.24293c-2.97401,0.69394 -4.53043,1.04091 -4.66921,1.04091c-2.45851,-1.43415 -3.76706,-2.23381 -3.92568,-2.39903c-0.08594,-2.67 -0.1289,-4.1438 -0.1289,-4.42137c-0.03964,-0.07931 -0.05946,-0.13877 -0.05946,-0.17841c2.53782,-1.9298 3.84971,-2.89471 3.93561,-2.89471zM355.32694,177.29872c-0.03964,0.26435 -0.09911,1.22595 -0.1784,2.88477l2.21066,0.49567c0.52871,-1.65224 0.79308,-2.53453 0.79308,-2.64688c-1.75797,-0.52871 -2.69972,-0.79307 -2.82529,-0.79307z" data-paper-data="{&quot;origPos&quot;:null}" fill="#2a70c2"/><path d="M367.09414,173.66052c0.08594,0.11241 0.53204,2.029 1.33831,5.74975h0.06945c0,-0.08595 0.48906,-0.84267 1.46717,-2.27017c0.40975,0.27757 1.1896,0.87897 2.33956,1.80423h0.13889v-0.06944c0.17844,-2.57748 0.31064,-4.00501 0.39655,-4.28259c2.72287,0.13878 4.0843,0.25115 4.0843,0.33704c-1.24909,5.02279 -1.91659,7.6333 -2.0025,7.83156c-0.41636,0.04631 -1.28873,0.17848 -2.61714,0.39653c-1.09047,-1.71172 -1.715,-2.62374 -1.87362,-2.73608c-0.71377,1.90337 -1.15986,2.95089 -1.3383,3.14256h-2.67662c-0.16523,-0.05281 -0.94507,-1.77114 -2.33956,-5.15497c-0.8922,-1.89015 -1.3383,-2.91451 -1.3383,-3.07314c0,-0.14539 1.45067,-0.70386 4.35197,-1.67537z" data-paper-data="{&quot;origPos&quot;:null}" fill="#2a70c2"/><path d="M384.41282,169.68526l3.89598,0.61462c-0.48907,1.87031 -0.8096,2.80549 -0.96162,2.80549c-2.04876,-0.13878 -3.07315,-0.27428 -3.07315,-0.40643v-2.8749c0.01982,-0.09246 0.06611,-0.13869 0.13889,-0.13869zM383.32235,174.404h0.05946c3.01367,0.54854 4.52049,0.86909 4.52049,0.96162c-0.86576,4.90381 -1.39116,7.63659 -1.57621,8.19837h-3.14255c-0.09246,0 -0.13869,-0.0463 -0.13869,-0.13889z" data-paper-data="{&quot;origPos&quot;:null}" fill="#2a70c2"/><path d="M391.6,170.66667l4.36189,0.77325l-0.41637,3.31106c0.86578,-0.04631 1.50023,-0.06945 1.90337,-0.06945h0.63447l0.13889,-0.06944l0.06944,0.13889c-0.13878,2.00911 -0.25774,3.13924 -0.35687,3.39038l-0.13889,-0.07923c-0.09911,0 -0.99132,-0.04624 -2.6766,-0.1387c-0.09259,1.55309 -0.16198,3.41019 -0.20817,5.5713l-0.13889,0.06944c-2.12807,-0.13878 -3.39698,-0.25776 -3.80674,-0.3569l0.06944,-0.27756c0,-0.57499 0.09252,-2.35939 0.27756,-5.35323c-1.7844,-0.09911 -2.6766,-0.21809 -2.6766,-0.3569c0.09246,-2.20737 0.21143,-3.31106 0.35688,-3.31106l2.60721,0.49567v-0.85253c0,-0.69394 -0.02642,-1.63242 -0.07923,-2.81539c0.05282,0 0.07923,-0.02314 0.07923,-0.06945z" data-paper-data="{&quot;origPos&quot;:null}" fill="#2a70c2"/></g><g data-paper-data="{&quot;origPos&quot;:null}" stroke="none" stroke-width="0.26459" stroke-linecap="butt"><path d="M38.97032,196.82326h0.05948c2.98723,0.25115 4.48083,0.4461 4.48083,0.58488l1.31849,11.66802c0,0.08595 -1.31849,0.30405 -3.95544,0.65429l-0.05946,-0.12891v-1.06073c-2.27346,0.61464 -3.83319,1.01116 -4.67911,1.18961c-2.0091,-2.84185 -3.06323,-4.35528 -3.16235,-4.54032c1.48039,-2.68982 2.27017,-4.05129 2.3693,-4.08431l4.15369,0.19825c-0.08591,-0.50888 -0.26104,-2.00249 -0.5254,-4.48083zM37.12642,203.93115c0.6675,2.04216 1.08387,3.16235 1.2491,3.36064l1.97276,-1.71501c-0.20489,-1.183 -0.3569,-1.7745 -0.45602,-1.7745h-2.63695c-0.08591,0.01316 -0.12886,0.05615 -0.12886,0.12891z" data-paper-data="{&quot;origPos&quot;:null}" fill="#2a70c2"/><path d="M49.85519,199.83693c2.51139,0.67412 3.84309,1.08386 3.9951,1.22926c1.38127,1.95623 2.15781,3.08306 2.32964,3.38044c-0.8922,2.82863 -1.40441,4.24295 -1.53657,4.24295c-2.97401,0.69393 -4.53042,1.04091 -4.6692,1.04091c-2.45851,-1.43415 -3.76706,-2.23381 -3.92569,-2.39903c-0.08591,-2.67 -0.12886,-4.1438 -0.12886,-4.42138c-0.03966,-0.07931 -0.05948,-0.13876 -0.05948,-0.1784c2.53781,-1.9298 3.8497,-2.89471 3.93559,-2.89471zM49.66684,203.46522c-0.03966,0.26435 -0.09914,1.22595 -0.17844,2.88477l2.21067,0.49567c0.52871,-1.65224 0.79308,-2.53453 0.79308,-2.64688c-1.75797,-0.52871 -2.69975,-0.79308 -2.82532,-0.79308z" data-paper-data="{&quot;origPos&quot;:null}" fill="#2a70c2"/><path d="M61.43401,199.827c0.08591,0.11241 0.53202,2.02901 1.3383,5.74976h0.06938c0,-0.08595 0.48907,-0.84267 1.46718,-2.27017c0.40976,0.27757 1.1896,0.87898 2.33956,1.80424h0.13879v-0.06945c0.17844,-2.57748 0.31064,-4.005 0.39655,-4.28258c2.72287,0.13878 4.0843,0.25115 4.0843,0.33704c-1.2491,5.02279 -1.91657,7.6333 -2.00249,7.83156c-0.41635,0.04631 -1.28873,0.17848 -2.61714,0.39653c-1.09047,-1.71171 -1.71501,-2.62373 -1.87363,-2.73607c-0.71377,1.90337 -1.15986,2.95089 -1.3383,3.14254h-2.67661c-0.16523,-0.05281 -0.94507,-1.77113 -2.33956,-5.15497c-0.89221,-1.89015 -1.3383,-2.91452 -1.3383,-3.07315c0,-0.14537 1.45067,-0.70383 4.35198,-1.67537z" data-paper-data="{&quot;origPos&quot;:null}" fill="#2a70c2"/><path d="M81.15171,199.827l3.30114,2.27017c-0.23131,3.76707 -0.39323,5.96787 -0.48575,6.60231c-0.38331,0.04631 -1.54979,0.11569 -3.49943,0.20818l-0.06938,-0.1387l-0.34696,-5.29374l-0.1388,-0.06944c-1.26231,0.27098 -2.13138,0.47586 -2.60721,0.61464c0.13218,2.25364 0.19825,3.88272 0.19825,4.88729c-1.96948,0.54854 -3.0467,0.82283 -3.23175,0.82283c-1.28212,-5.64403 -1.9232,-8.62466 -1.9232,-8.94188c2.78897,-0.36349 4.3024,-0.54524 4.54032,-0.54524v0.06945c0.04626,0.033 0.11564,0.72031 0.20817,2.06199c2.55765,-1.69851 3.90919,-2.54775 4.05458,-2.54775z" data-paper-data="{&quot;origPos&quot;:null}" fill="#2a70c2"/><path d="M95.09983,196.83317l0.06938,0.1289c0,0.37671 0.08592,1.83398 0.25776,4.3718c2.36598,-0.75342 3.69108,-1.14994 3.97525,-1.18959l3.56882,3.83648c-1.50021,3.36394 -2.31643,5.14834 -2.44861,5.3532c-0.41635,-0.04631 -1.93641,-0.11237 -4.56016,-0.19825v0.46593c0,0.08595 -0.04626,0.1289 -0.13879,0.1289h-3.83647c-0.13878,0 -0.40314,-1.98268 -0.79308,-5.94802c-0.08591,-0.33704 -0.32715,-2.32304 -0.72367,-5.95792c2.24704,-0.52871 3.79021,-0.85917 4.62955,-0.99135zM95.76402,204.10957l0.25775,2.44861h1.9926l0.72367,-2.77573c-1.98268,0.17184 -2.97401,0.28088 -2.97401,0.32715z" data-paper-data="{&quot;origPos&quot;:null}" fill="#000000"/><path d="M108.55228,199.84682c0.09253,0.01316 0.13879,0.05946 0.13879,0.13889l-1.03098,5.71009c1.96948,-0.23131 2.95417,-0.41637 2.95417,-0.55515c0.37009,-2.28669 0.62454,-3.56881 0.76332,-3.8464c2.4387,0.50227 3.7902,0.79968 4.05457,0.89221c-1.42091,4.884 -2.20079,7.42842 -2.33957,7.63331c-2.48495,1.74475 -3.88273,2.70965 -4.19335,2.8947c-0.09253,0 -1.67538,-0.38993 -4.7485,-1.16977v-0.06945c0.8129,-1.79102 1.31848,-2.68652 1.51674,-2.68652l3.02357,1.51674l1.44735,-2.47834c-1.30196,0.32385 -2.05868,0.48576 -2.27017,0.48576l-3.8563,-2.00251c0.46922,-4.309 0.76664,-6.46352 0.89221,-6.46352z" data-paper-data="{&quot;origPos&quot;:null}" fill="#000000"/><path d="M126.41618,199.83693c0.20489,0.84596 0.34697,1.36804 0.42628,1.56632c2.92114,-0.6675 4.46431,-1.00125 4.62954,-1.00125c1.98929,2.86166 2.98393,4.35526 2.98393,4.48083l-2.28007,4.83773l-4.90712,-0.78315v0.14868c0.38331,2.94097 0.57499,4.50399 0.57499,4.68903c-0.04626,0 -0.06939,0.02314 -0.06939,0.06945c-0.47584,-0.04631 -0.83271,-0.06945 -1.07065,-0.06945h-0.85255c-0.49568,0 -1.25569,-0.02314 -2.28007,-0.06945c-0.09253,-0.27757 -0.80298,-4.49736 -2.13139,-12.65937c0.22471,-0.09246 1.88356,-0.49561 4.97652,-1.20943zM126.77307,203.89149c0.13218,1.52005 0.25115,2.28005 0.35689,2.28005c1.35483,0.46923 2.18426,0.70386 2.48825,0.70386l0.78315,-3.41019h-0.06939c-0.77325,0.04631 -1.95954,0.1884 -3.55889,0.42628z" data-paper-data="{&quot;origPos&quot;:null}" fill="#000000"/><path d="M142.5948,199.827c1.30856,0.73358 2.11154,1.20945 2.40895,1.42753c-1.07065,2.2272 -1.64561,3.36065 -1.72492,3.40029h-0.06938l-1.41762,-1.23916l-1.67537,2.04215l0.18837,3.71752c-0.08591,0.07931 -1.1797,0.26434 -3.28133,0.55515c-0.07931,-0.56838 -0.59479,-3.35403 -1.54647,-8.35697c0,-0.07931 1.38127,-0.28416 4.1438,-0.61465c0.04626,0.05281 0.17184,0.67075 0.3767,1.8538c1.65224,-1.85711 2.518,-2.78567 2.5973,-2.78567z" data-paper-data="{&quot;origPos&quot;:null}" fill="#000000"/><path d="M151.40778,199.83693c2.99385,1.53987 4.65268,2.43869 4.97652,2.69644c-0.42957,2.00909 -0.68403,3.04341 -0.76333,3.10289h-6.26524v0.10896l1.75466,2.17101l2.75592,-1.4077c0.27097,0.46923 0.6609,1.28874 1.16979,2.45852c-0.23792,0.07931 -1.97277,0.33373 -5.20454,0.76332c-2.67661,-1.76458 -4.02483,-2.68322 -4.04465,-2.75593c0.42957,-3.43002 0.68402,-5.14502 0.76332,-5.14502c2.79558,-1.18961 4.41477,-1.85381 4.85755,-1.99261zM150.76343,202.23596c-0.05287,0.13218 -0.40315,0.65759 -1.05082,1.57623c0,0.27757 0.38993,0.41635 1.16978,0.41635c0,0.03964 0.56507,0.13548 1.69519,0.28749c0.31063,-0.42958 0.46594,-0.68071 0.46594,-0.75341c-0.09913,-0.58819 -0.31391,-0.8823 -0.64438,-0.8823z" data-paper-data="{&quot;origPos&quot;:null}" fill="#000000"/><path d="M165.28651,199.827c1.90337,1.21604 2.95417,1.91658 3.15246,2.10162c-0.68732,1.52667 -1.08055,2.29 -1.1797,2.29l-3.60847,-2.09173h-0.12886c0,0.06611 -0.15532,0.43622 -0.46594,1.1103c3.32429,1.79102 4.98643,2.70965 4.98643,2.75593c-0.93187,2.15451 -1.45728,3.29125 -1.57622,3.4102l-5.6407,0.32714c-2.19415,-1.45396 -3.37385,-2.22059 -3.53908,-2.2999v-0.05946c0,-0.16523 0.32715,-0.90873 0.98142,-2.23052l4.40154,2.29l0.32715,-1.30857c-2.72287,-1.22265 -4.34206,-1.98597 -4.85754,-2.28999v-0.13889c0,-0.25115 0.5254,-1.36475 1.57622,-3.34079z" data-paper-data="{&quot;origPos&quot;:null}" fill="#000000"/><path d="M177.42047,199.827c1.90337,1.21604 2.95417,1.91658 3.15246,2.10162c-0.68732,1.52667 -1.08055,2.29 -1.1797,2.29l-3.60846,-2.09173h-0.12887c0,0.06611 -0.15531,0.43622 -0.46593,1.1103c3.32429,1.79102 4.98643,2.70965 4.98643,2.75593c-0.93187,2.15451 -1.45728,3.29125 -1.57622,3.4102l-5.64071,0.32714c-2.19415,-1.45396 -3.37385,-2.22059 -3.53908,-2.2999v-0.05946c0,-0.16523 0.32715,-0.90873 0.98143,-2.23052l4.40153,2.29l0.32715,-1.30857c-2.72287,-1.22265 -4.34206,-1.98597 -4.85754,-2.28999v-0.13889c0,-0.25115 0.5254,-1.36475 1.57622,-3.34079z" data-paper-data="{&quot;origPos&quot;:null}" fill="#000000"/><path d="M182.9224,195.85174l3.89597,0.61462c-0.48906,1.87031 -0.80959,2.80549 -0.9616,2.80549c-2.04876,-0.13878 -3.07315,-0.27428 -3.07315,-0.40643v-2.8749c0.01982,-0.09246 0.06608,-0.13869 0.13879,-0.13869zM181.83193,200.57052h0.05948c3.01368,0.54853 4.5205,0.86907 4.5205,0.9616c-0.86576,4.90381 -1.39116,7.63659 -1.57622,8.19837h-3.14254c-0.09253,0 -0.13879,-0.0463 -0.13879,-0.13889z" data-paper-data="{&quot;origPos&quot;:null}" fill="#000000"/><path d="M195.94858,199.827l3.30115,2.27017c-0.23131,3.76707 -0.39324,5.96787 -0.48575,6.60231c-0.38331,0.04631 -1.54978,0.11569 -3.49942,0.20818l-0.06939,-0.1387l-0.34697,-5.29374l-0.13879,-0.06944c-1.26231,0.27098 -2.13139,0.47586 -2.60721,0.61464c0.13218,2.25364 0.19826,3.88272 0.19826,4.88729c-1.96947,0.54854 -3.04671,0.82283 -3.23176,0.82283c-1.28213,-5.64403 -1.9232,-8.62466 -1.9232,-8.94188c2.78897,-0.36349 4.3024,-0.54524 4.54032,-0.54524v0.06945c0.04626,0.033 0.11565,0.72031 0.20818,2.06199c2.55765,-1.69851 3.90917,-2.54775 4.05456,-2.54775z" data-paper-data="{&quot;origPos&quot;:null}" fill="#000000"/><path d="M207.62653,199.85675c2.80878,0.07264 4.21319,0.1949 4.21319,0.36679c0.48246,7.31608 0.72368,11.20872 0.72368,11.67794c-2.12807,1.35483 -3.65142,2.27347 -4.57006,2.75593c-3.23837,-1.01777 -4.85755,-1.59935 -4.85755,-1.74478c1.04421,-1.52666 1.64893,-2.29991 1.81416,-2.31973c1.76458,0.87238 2.77905,1.30857 3.04341,1.30857l0.94177,-1.23916c-0.25115,-1.0244 -0.41968,-1.6291 -0.50559,-1.81416c-0.14538,0 -1.93642,0.29079 -5.37306,0.87236c-1.88355,-3.05993 -2.82532,-4.62955 -2.82532,-4.70886c1.6258,-2.59729 2.61713,-4.12067 2.97402,-4.57006h0.06938c0.19165,0 1.61918,0.31391 4.28259,0.94175v-0.2181c0,-0.25775 -0.02312,-0.67079 -0.06938,-1.23916zM204.51374,204.06002c0.09253,0.20488 0.38331,1.29535 0.87237,3.27141c0.61464,-0.19826 1.5564,-0.56175 2.82532,-1.09047c-0.24453,-1.18961 -0.3668,-1.86703 -0.3668,-2.03224l-0.35688,-0.06945h-0.43619c-0.55515,0 -1.40109,-0.02642 -2.53782,-0.07924z" data-paper-data="{&quot;origPos&quot;:null}" fill="#000000"/><path d="M218.67002,196.84306c2.02234,0.03964 3.50604,0.05946 4.45111,0.05946c0.08595,0 0.34699,4.05787 0.78315,12.17361c-0.33704,0.08595 -1.51342,0.30406 -3.52915,0.65429c-0.09911,0 -0.42626,-2.48495 -0.98141,-7.45487c-0.04631,-0.11895 -0.28753,-1.92979 -0.72367,-5.43253z" data-paper-data="{&quot;origPos&quot;:null}" fill="#2a70c2"/><path d="M230.63546,199.83693c2.99384,1.53987 4.65267,2.43869 4.97652,2.69644c-0.42958,2.00909 -0.68403,3.04341 -0.76332,3.10289h-6.26524v0.10896l1.75466,2.17101l2.75593,-1.4077c0.27096,0.46923 0.66089,1.28874 1.16977,2.45852c-0.23792,0.07931 -1.97277,0.33373 -5.20453,0.76332c-2.67661,-1.76458 -4.02484,-2.68322 -4.04465,-2.75593c0.42957,-3.43002 0.68402,-5.14502 0.76333,-5.14502c2.79558,-1.18961 4.41476,-1.85381 4.85754,-1.99261zM229.9911,202.23596c-0.05281,0.13218 -0.40309,0.65759 -1.05082,1.57623c0,0.27757 0.38994,0.41635 1.16979,0.41635c0,0.03964 0.56507,0.13548 1.69517,0.28749c0.31063,-0.42958 0.46593,-0.68071 0.46593,-0.75341c-0.09911,-0.58819 -0.31389,-0.8823 -0.64436,-0.8823z" data-paper-data="{&quot;origPos&quot;:null}" fill="#2a70c2"/><path d="M240.63808,196.83317c0.35027,0.03964 1.62579,0.33375 3.82657,0.88229l0.05946,0.11894c-0.32383,1.80422 -0.5188,2.70633 -0.58489,2.70633h-0.05946l-1.59608,-0.8228c0,0.18504 -0.05946,1.01114 -0.17841,2.47834l2.18094,-0.53532c0.06611,0.19826 0.12559,1.08055 0.17841,2.64687c-0.2115,0.07931 -0.93848,0.19824 -2.18095,0.35688c0.27758,1.18961 0.57167,2.64356 0.88229,4.36188c-1.01777,0.2313 -2.2338,0.46593 -3.64812,0.70385l-0.05946,-0.11895c-0.18506,-3.05993 -0.34036,-4.5899 -0.46593,-4.5899c-1.28214,0.31063 -1.96948,0.48575 -2.062,0.52539c-0.07931,-0.38331 -0.21808,-1.42421 -0.41635,-3.12271l0.11895,-0.05946h2.12145c-0.11895,-0.97812 -0.29738,-2.25364 -0.53532,-3.82657z" data-paper-data="{&quot;origPos&quot;:null}" fill="#2a70c2"/><path d="M248.40024,196.83317l4.36186,0.77325l-0.41635,3.31106c0.86576,-0.04631 1.50021,-0.06945 1.90337,-0.06945h0.63447l0.13889,-0.06945l0.06944,0.13869c-0.13878,2.00911 -0.25775,3.13924 -0.35689,3.39039l-0.13869,-0.07924c-0.09911,0 -0.99132,-0.0463 -2.67662,-0.13888c-0.09246,1.5531 -0.16186,3.41019 -0.20818,5.5713l-0.1387,0.06945c-2.12807,-0.13878 -3.39698,-0.25776 -3.80674,-0.3569l0.06945,-0.27756c0,-0.57499 0.09253,-2.35939 0.27758,-5.35323c-1.7844,-0.09911 -2.6766,-0.21807 -2.6766,-0.35687c0.09246,-2.20738 0.21143,-3.31108 0.35688,-3.31108l2.60721,0.49569v-0.85256c0,-0.69393 -0.02642,-1.6324 -0.07923,-2.81539c0.05281,0 0.07923,-0.02314 0.07923,-0.06944z" data-paper-data="{&quot;origPos&quot;:null}" fill="#2a70c2"/><path d="M256.26154,206.67714c0.0463,0.02649 1.07729,0.10578 3.09297,0.23793l0.03971,0.07923c-0.31063,1.82405 -0.50889,2.73609 -0.5948,2.73609h-2.2999c-0.0793,0 -0.18503,-0.91204 -0.31723,-2.73608c-0.02648,0 -0.03971,-0.07931 -0.03971,-0.23791c0.0793,-0.02649 0.11895,-0.05288 0.11895,-0.07924z" data-paper-data="{&quot;origPos&quot;:null}" fill="#000000"/></g></g></g></svg>