<svg version="1.1" xmlns="http://www.w3.org/2000/svg" xmlns:xlink="http://www.w3.org/1999/xlink" width="307.58365" height="301.06115" viewBox="0,0,307.58365,301.06115"><g transform="translate(-86.20818,-21.46942)"><g data-paper-data="{&quot;isPaintingLayer&quot;:true}" fill="none" fill-rule="nonzero" stroke="none" stroke-width="none" stroke-linecap="none" stroke-linejoin="miter" stroke-miterlimit="10" stroke-dasharray="" stroke-dashoffset="0" font-family="none" font-weight="none" font-size="none" text-anchor="none" style="mix-blend-mode: normal"><g data-paper-data="{&quot;origPos&quot;:null}"><g data-paper-data="{&quot;origPos&quot;:null,&quot;index&quot;:null,&quot;origRot&quot;:0}" id="ID0.20286902273073792" fill="#fff346" stroke-width="0.88955" stroke-linecap="round"><path d="M315.3536,303.39123l25.26798,-23.12867l2.74462,25.42786l-3.9594,2.99381l-3.67777,-3.20752l0.78334,6.81284l-4.57105,4.05888l-3.76801,-6.02387l-0.08813,8.46596l-8.47158,3.74005z" id="ID0.07827324094250798"/><path d="M341.69529,306.48921c-3.82979,0.73247 -8.32918,-0.99189 -11.13922,-3.65985c-2.04386,-1.93982 -2.26603,-5.23834 -1.48794,-8.32848c0.77818,-3.09233 3.52576,-6.0858 5.78765,-8.74842c1.80027,-2.11322 3.83529,-3.88166 5.95686,-5.48453c1.33819,-0.94407 3.09423,-3.10649 4.33319,-2.09052c3.2162,2.63807 5.6307,6.68854 6.12374,10.79071c0.44359,3.68807 -1.90552,7.27153 -3.70351,10.52241c-1.47143,2.6601 -2.89031,6.39409 -5.87078,6.99867z" id="ID0.3567104428075254"/></g><path d="M336.11399,257.50937c-2.15324,-0.22842 -3.81625,-1.12046 -4.47867,-2.62316c-0.66242,-1.5027 -0.19891,-3.33201 1.08516,-5.07547c1.28409,-1.74371 3.38907,-3.40036 6.00768,-4.55472c2.61883,-1.15434 5.26184,-1.59041 7.41507,-1.36176c2.15324,0.22842 3.81624,1.12046 4.47866,2.62316c0.66242,1.5027 0.19891,3.33201 -1.08515,5.07548c-1.28396,1.7436 -3.38907,3.40036 -6.00779,4.5546c-2.61872,1.15424 -5.26183,1.5904 -7.41495,1.36188z" data-paper-data="{&quot;origPos&quot;:null,&quot;index&quot;:null,&quot;origRot&quot;:0}" id="ID0.16623971331864595" fill="#fff346" stroke-width="0.83998" stroke-linecap="butt"/><path d="M336.02983,250.60237c-2.13938,0.33462 -3.97607,-0.09826 -5.00361,-1.3794c-1.02756,-1.28091 -1.05142,-3.16793 -0.26056,-5.18359c0.79089,-2.01589 2.39731,-4.15943 4.62977,-5.95c2.23235,-1.79069 4.67357,-2.89359 6.81295,-3.22821c2.13938,-0.33462 3.97608,0.09827 5.00352,1.37929c1.02767,1.28104 1.05164,3.16795 0.26065,5.18371c-0.79076,2.01578 -2.3973,4.15944 -4.62977,5.95001c-2.23246,1.79057 -4.67357,2.89358 -6.81295,3.2282z" data-paper-data="{&quot;origPos&quot;:null,&quot;index&quot;:null,&quot;origRot&quot;:0}" id="ID0.16623971331864595" fill="#fff346" stroke-width="0.83998" stroke-linecap="butt"/><path d="M326.15442,236.7808c1.62592,-2.35506 3.64884,-4.11122 5.60271,-5.04454c1.95387,-0.93332 3.8377,-1.04471 5.18899,-0.11175c1.35139,0.93309 1.91494,2.73412 1.73453,4.89192c-0.18018,2.15783 -1.1053,4.67174 -2.73134,7.0269c-1.62592,2.35506 -3.64882,4.111 -5.60271,5.04454c-1.95387,0.93332 -3.8377,1.04471 -5.18909,0.11163c-1.35139,-0.93309 -1.91483,-2.734 -1.73452,-4.89192c0.18029,-2.15769 1.10553,-4.67171 2.73144,-7.02678z" data-paper-data="{&quot;origPos&quot;:null,&quot;index&quot;:null,&quot;origRot&quot;:0}" id="ID0.16623971331864595" fill="#fff346" stroke-width="0.83998" stroke-linecap="butt"/><path d="M307.50689,304.6425c-8.72037,-0.82698 -17.12678,-4.97681 -23.14208,-12.25252c-6.01529,-7.27571 -8.51096,-16.31232 -7.68398,-25.0327c0.82698,-8.72037 4.97681,-17.12678 12.25252,-23.14208c7.27571,-6.0153 16.31232,-8.51096 25.0327,-7.68398c8.72037,0.82698 17.12678,4.9768 23.14207,12.25251c6.01529,7.27571 8.51096,16.31232 7.68399,25.03271c-0.82698,8.72037 -4.9768,17.12678 -12.25251,23.14207c-7.27571,6.01529 -16.31233,8.51097 -25.03271,7.68399z" data-paper-data="{&quot;origPos&quot;:null,&quot;index&quot;:null,&quot;origRot&quot;:0}" id="ID0.1863371403887868" fill="#e12323" stroke-width="1" stroke-linecap="butt"/><path d="M296.1146,308.98511c-2.87619,-0.82794 -5.85802,-2.793 -8.25816,-5.69605c-2.40014,-2.90305 -3.76966,-6.20112 -4.04219,-9.18167c-0.27344,-2.98189 0.54998,-5.64824 2.5338,-7.28839c1.98382,-1.64015 4.75754,-1.94778 7.63476,-1.11861c2.87619,0.82794 5.85802,2.793 8.25816,5.69605c2.40014,2.90305 3.76967,6.20112 4.04219,9.18167c0.27355,2.98179 -0.54999,5.64824 -2.53381,7.28839c-1.98382,1.64015 -4.75741,1.94768 -7.63475,1.11861z" data-paper-data="{&quot;origPos&quot;:null,&quot;index&quot;:null,&quot;origRot&quot;:0}" id="ID0.39472739631310105" fill="#ffffff" stroke-width="0.91936" stroke-linecap="butt"/><path d="M306.2044,299.69973c-2.89873,-0.8093 -5.89452,-2.76282 -8.29467,-5.66589c-2.40014,-2.90305 -3.75572,-6.21265 -4.0057,-9.21184c-0.25101,-3.00043 0.60366,-5.69261 2.62185,-7.36118c2.01819,-1.66857 4.82292,-2.00185 7.72268,-1.1913c2.89886,0.8092 5.89464,2.76272 8.29478,5.66578c2.40014,2.90305 3.75572,6.21266 4.00558,9.21195c0.25101,3.00043 -0.60354,5.69251 -2.62173,7.36108c-2.01819,1.66857 -4.82304,2.00194 -7.7228,1.1914z" data-paper-data="{&quot;origPos&quot;:null,&quot;index&quot;:null,&quot;origRot&quot;:0}" id="ID0.39472739631310105" fill="#ffffff" stroke-width="0.9259" stroke-linecap="butt"/><path d="M284.56319,292.11483c-2.54912,-0.45465 -5.08576,-1.89668 -7.00299,-4.21564c-1.91723,-2.31896 -2.85674,-5.08145 -2.82412,-7.67059c0.03262,-2.58914 1.03726,-5.00484 3.00389,-6.63078c1.96663,-1.62594 4.52824,-2.15868 7.07736,-1.70403c2.54899,0.45475 5.08563,1.89679 7.00286,4.21576c1.91723,2.31896 2.85674,5.08143 2.82424,7.67048c-0.03262,2.58914 -1.03738,5.00494 -3.00401,6.63088c-1.96663,1.62594 -4.52811,2.15857 -7.07723,1.70392z" data-paper-data="{&quot;origPos&quot;:null,&quot;index&quot;:null,&quot;origRot&quot;:0}" id="ID0.2919205715879798" fill="#ffb197" stroke-width="0.99783" stroke-linecap="round"/><path d="M281.6427,285.67863c-0.67291,-0.52074 -1.21108,-1.33549 -1.45238,-2.32021c-0.2412,-0.98459 -0.14072,-1.95584 0.21503,-2.72864c0.35751,-0.77195 0.96994,-1.34663 1.75488,-1.53893c0.78497,-0.19253 1.59378,0.03406 2.26752,0.55327c0.67291,0.52074 1.21107,1.33551 1.45227,2.3201c0.24131,0.98473 0.14082,1.95594 -0.21515,2.72872c-0.35728,0.77197 -0.96972,1.34665 -1.75479,1.53906c-0.78494,0.1923 -1.59364,-0.03417 -2.26738,-0.55338z" data-paper-data="{&quot;origPos&quot;:null,&quot;index&quot;:null,&quot;origRot&quot;:0}" id="ID0.41036201547831297" fill="#a27060" stroke-width="0.73984" stroke-linecap="butt"/><path d="M300.62714,291.94652c-0.72102,-0.27612 -1.4949,-0.8419 -2.14874,-1.63274c-0.65384,-0.79084 -1.06406,-1.65729 -1.19973,-2.41735c-0.13567,-0.76006 0.00343,-1.41602 0.45054,-1.78567c0.44711,-0.36966 1.11751,-0.38297 1.83853,-0.10685c0.72102,0.27612 1.49489,0.84191 2.14873,1.63275c0.65384,0.79084 1.06407,1.65729 1.19974,2.41735c0.13567,0.76006 -0.00344,1.41601 -0.45055,1.78566c-0.44711,0.36966 -1.11751,0.38297 -1.83853,0.10685z" data-paper-data="{&quot;origPos&quot;:null,&quot;index&quot;:null,&quot;origRot&quot;:0}" id="ID0.26917251013219357" fill="#001966" stroke-width="1" stroke-linecap="butt"/><path d="M292.46967,298.69082c-0.72102,-0.27612 -1.4949,-0.8419 -2.14874,-1.63274c-0.65384,-0.79084 -1.06406,-1.65729 -1.19973,-2.41735c-0.13567,-0.76006 0.00343,-1.41602 0.45054,-1.78568c0.44711,-0.36966 1.11751,-0.38297 1.83853,-0.10685c0.72102,0.27612 1.49489,0.84191 2.14873,1.63275c0.65384,0.79084 1.06407,1.65728 1.19974,2.41735c0.13567,0.76006 -0.00344,1.41601 -0.45055,1.78566c-0.44711,0.36966 -1.11751,0.38297 -1.83853,0.10685z" data-paper-data="{&quot;origPos&quot;:null,&quot;index&quot;:null,&quot;origRot&quot;:0}" id="ID0.26917251013219357" fill="#001966" stroke-width="1" stroke-linecap="butt"/><g data-paper-data="{&quot;origPos&quot;:null,&quot;index&quot;:null,&quot;origRot&quot;:0}" id="ID0.5137764848768711" fill="#ffffff"><path d="M341.24573,276.39936c-3.75106,1.49999 -8.43385,1.77235 -13.1543,0.46307c-4.72059,-1.30919 -8.59409,-3.95461 -11.03659,-7.17239c-2.44432,-3.21669 -3.45751,-7.0056 -2.46076,-10.59943c0.99676,-3.59384 3.81684,-6.31955 7.56876,-7.81774c3.75094,-1.4999 8.43394,-1.77221 13.1544,-0.46294c4.72035,1.30916 8.59398,3.95471 11.03647,7.17248c2.44432,3.21669 3.45763,7.0055 2.46074,10.59944c-0.99676,3.59384 -3.81671,6.31945 -7.56874,7.81751z" id="ID0.9694409435614944" stroke-width="0.90437" stroke-linecap="butt"/><path d="M358.64045,274.50807c-4.4966,1.43894 -11.60071,2.57297 -17.74563,3.10057c-3.88597,0.33128 -8.33322,0.39297 -10.85887,-0.44842c-5.57261,-1.94412 -9.44556,-4.64287 -11.86066,-7.36646c-0.60469,-0.68093 2.58927,-0.96615 4.07716,-1.25444c5.8253,-1.12595 10.76975,-2.58646 17.74551,-3.10048c6.97599,-0.514 13.34962,-0.29809 18.00849,0.46602c4.65898,0.76423 7.60319,2.07666 7.72689,3.75553c0.1237,1.6791 -2.59632,3.40896 -7.0929,4.84766z" id="ID0.4074811181053519" stroke-width="1.53181" stroke-linecap="round"/><path d="M353.51641,266.1045c-3.11154,1.3367 -7.47109,2.34341 -12.33616,2.7019c-4.86507,0.35849 -9.32533,0.00173 -12.59913,-0.86459c-3.27358,-0.8663 -5.36084,-2.24186 -5.48454,-3.92095c-0.12372,-1.67887 1.73937,-3.34562 4.85067,-4.68235c3.11144,-1.33684 7.47107,-2.34341 12.33615,-2.70189c4.86507,-0.35849 9.32533,-0.00173 12.59891,0.86457c3.27382,0.86633 5.36107,2.24189 5.48466,3.92085c0.12383,1.67899 -1.73926,3.34575 -4.85056,4.68248z" id="ID0.4074811181053519" stroke-width="1.13742" stroke-linecap="butt"/><path d="M344.71677,258.47866c-2.88094,1.31966 -6.92252,2.30293 -11.43644,2.63549c-4.51404,0.33267 -8.65596,-0.04762 -11.6992,-0.93076c-3.04332,-0.88327 -4.98808,-2.26952 -5.1118,-3.94838c-0.12359,-1.67896 1.59685,-3.33515 4.47781,-4.65503c2.88107,-1.31976 6.92251,-2.30294 11.43644,-2.63549c4.51404,-0.33267 8.65596,0.04762 11.6993,0.93088c3.04323,0.88315 4.98798,2.2694 5.11169,3.94826c0.12372,1.67886 -1.59674,3.33527 -4.47781,4.65503z" id="ID0.4074811181053519" stroke-width="1.07474" stroke-linecap="butt"/></g><path d="M312.48787,236.027c0,0 0.63204,9.95167 -14.14303,22.16715c-14.77506,12.21548 -22.12154,9.56077 -22.12154,9.56077c0,0 -2.24701,-11.06045 12.52805,-23.27594c14.77508,-12.2155 23.73652,-8.45201 23.73652,-8.45201z" data-paper-data="{&quot;origPos&quot;:null,&quot;index&quot;:null,&quot;origRot&quot;:0}" fill="#ffffff" stroke-width="0" stroke-linecap="butt"/></g><g data-paper-data="{&quot;origRot&quot;:0,&quot;origPos&quot;:null}"><g data-paper-data="{&quot;origPos&quot;:null}" id="ID0.20286902273073792" fill="#fff346" stroke-width="0.88955" stroke-linecap="round"><path d="M374.55483,155.34497l-10.90814,-32.47181l24.35944,7.79276l1.13294,4.83282l-4.42252,2.06289l6.54602,2.04403l1.85888,5.82354l-7.03393,1.00435l7.70431,3.51054l-0.01289,9.26043z" id="ID0.07827324094250798"/><path d="M388.05942,132.51719c-0.88197,3.79814 -4.28138,7.21312 -7.85904,8.70128c-2.60155,1.08269 -5.70723,-0.05058 -8.21716,-2.01392c-2.51189,-1.96429 -4.1355,-5.68908 -5.6534,-8.83577c-1.20263,-2.50207 -1.99495,-5.07905 -2.60083,-7.66811c-0.32096,-1.60594 -1.5865,-4.08748 -0.15567,-4.8086c3.7149,-1.87161 8.39627,-2.43802 12.34643,-1.22681c3.55154,1.08866 5.87599,4.68816 8.11966,7.64907c1.83587,2.42298 4.67481,5.23302 4.02002,8.20286z" id="ID0.3567104428075254"/></g><path d="M341.01832,117.77582c-1.08121,1.87606 -2.57054,3.03505 -4.21276,3.03186c-1.64222,-0.00319 -3.12688,-1.16812 -4.20062,-3.04843c-1.07394,-1.88044 -1.73571,-4.4761 -1.73015,-7.33786c0.00566,-2.86195 0.67778,-5.455 1.75921,-7.33095c1.08121,-1.87606 2.57053,-3.03505 4.21276,-3.03186c1.64222,0.00319 3.12687,1.16812 4.20063,3.04842c1.07389,1.88027 1.7357,4.47611 1.72999,7.33791c-0.0057,2.8618 -0.6778,5.45498 -1.75905,7.33089z" data-paper-data="{&quot;origPos&quot;:null}" id="ID0.16623971331864595" fill="#fff346" stroke-width="0.83998" stroke-linecap="butt"/><path d="M334.6695,115.05441c-0.56083,2.0915 -1.70073,3.59532 -3.28832,4.0157c-1.58738,0.4205 -3.32227,-0.32221 -4.84467,-1.8619c-1.5226,-1.53981 -2.8315,-3.87692 -3.56405,-6.64341c-0.73271,-2.76642 -0.75198,-5.44515 -0.19114,-7.53665c0.56083,-2.0915 1.70074,-3.59532 3.28818,-4.01565c1.58754,-0.42053 3.32237,0.32201 4.84482,1.86187c1.52256,1.53964 2.83151,3.87692 3.56406,6.64341c0.73255,2.76647 0.75197,5.44514 0.19115,7.53664z" data-paper-data="{&quot;origPos&quot;:null}" id="ID0.16623971331864595" fill="#fff346" stroke-width="0.83998" stroke-linecap="butt"/><path d="M318.0321,118.48325c-1.49438,-2.44064 -2.28037,-5.00162 -2.34206,-7.16607c-0.06168,-2.16446 0.59972,-3.93189 2.00014,-4.78931c1.4006,-0.85747 3.27551,-0.64301 5.17518,0.39616c1.89979,1.03897 3.82333,2.90327 5.31775,5.34406c1.49438,2.44064 2.28017,5.00151 2.34205,7.16607c0.06168,2.16446 -0.59971,3.93189 -2.00028,4.78936c-1.4006,0.85747 -3.27535,0.64297 -5.17518,-0.39616c-1.89963,-1.03902 -3.82322,-2.90347 -5.31761,-5.3441z" data-paper-data="{&quot;origPos&quot;:null}" id="ID0.16623971331864595" fill="#fff346" stroke-width="0.83998" stroke-linecap="butt"/><path d="M372.51972,163.02578c-4.28911,7.63757 -11.48893,13.64184 -20.57784,16.19359c-9.08891,2.55176 -18.36176,1.17224 -25.99932,-3.11685c-7.63757,-4.28911 -13.64184,-11.48893 -16.1936,-20.57784c-2.55176,-9.08892 -1.17226,-18.36175 3.11685,-25.99932c4.28911,-7.63757 11.48892,-13.64184 20.57783,-16.1936c9.08891,-2.55176 18.36174,-1.17225 25.99933,3.11684c7.63757,4.28911 13.64184,11.48891 16.1936,20.57783c2.55176,9.08892 1.17226,18.36176 -3.11685,25.99933z" data-paper-data="{&quot;origPos&quot;:null}" id="ID0.1863371403887868" fill="#e12323" stroke-width="1" stroke-linecap="butt"/><path d="M371.87441,175.2006c-1.92222,2.29414 -4.92686,4.22412 -8.55339,5.2423c-3.62653,1.01817 -7.19665,0.93404 -10.03205,-0.02436c-2.83697,-0.95812 -4.94108,-2.7912 -5.63685,-5.2694c-0.69576,-2.47821 0.14675,-5.13872 2.07052,-7.4333c1.92222,-2.29414 4.92686,-4.22412 8.55339,-5.2423c3.62653,-1.01817 7.19666,-0.93405 10.03205,0.02436c2.83695,0.95797 4.94107,2.79121 5.63685,5.26941c0.69576,2.47821 -0.14679,5.13857 -2.07051,7.43328z" data-paper-data="{&quot;origPos&quot;:null}" id="ID0.39472739631310105" fill="#ffffff" stroke-width="0.91936" stroke-linecap="butt"/><path d="M367.4731,162.21404c-1.91431,2.32228 -4.91407,4.26971 -8.54061,5.28787c-3.62653,1.01817 -7.20156,0.91663 -10.04483,-0.06994c-2.84485,-0.98612 -4.9599,-2.85825 -5.66772,-5.3794c-0.70783,-2.52115 0.12381,-5.22041 2.03967,-7.54313c1.91428,-2.32244 4.91402,-4.26986 8.54055,-5.28803c3.62653,-1.01817 7.20156,-0.91663 10.0449,0.07009c2.84485,0.98612 4.95986,2.85809 5.66768,5.37924c0.70783,2.52115 -0.12374,5.22055 -2.03962,7.54328z" data-paper-data="{&quot;origPos&quot;:null}" id="ID0.39472739631310105" fill="#ffffff" stroke-width="0.9259" stroke-linecap="butt"/><path d="M351.77073,178.92652c-1.44843,2.14634 -3.79453,3.88123 -6.6914,4.69452c-2.89688,0.8133 -5.80313,0.55303 -8.15703,-0.52577c-2.35391,-1.0788 -4.15544,-2.97601 -4.84519,-5.43275c-0.68975,-2.45675 -0.13897,-5.01453 1.30946,-7.16087c1.44849,-2.14618 3.79458,-3.88106 6.69146,-4.69437c2.89688,-0.8133 5.80311,-0.55304 8.15698,0.52561c2.35391,1.0788 4.15549,2.97617 4.84522,5.4329c0.68975,2.45675 0.13891,5.01438 -1.30951,7.16072z" data-paper-data="{&quot;origPos&quot;:null}" id="ID0.2919205715879798" fill="#ffb197" stroke-width="0.99783" stroke-linecap="round"/><path d="M344.70316,178.989c-0.74872,0.40423 -1.71163,0.56616 -2.7097,0.38781c-0.99788,-0.17838 -1.84514,-0.66375 -2.40754,-1.30209c-0.5609,-0.6396 -0.83819,-1.43236 -0.69599,-2.2279c0.142,-0.79567 0.67687,-1.44331 1.42451,-1.84893c0.74872,-0.40423 1.71165,-0.56616 2.70954,-0.38776c0.99804,0.17834 1.84528,0.6637 2.40756,1.30223c0.56101,0.63941 0.8383,1.43215 0.69614,2.22786c-0.1422,0.79555 -0.6769,1.44316 -1.42455,1.84876z" data-paper-data="{&quot;origPos&quot;:null}" id="ID0.41036201547831297" fill="#a27060" stroke-width="0.73984" stroke-linecap="butt"/><path d="M358.12512,164.17185c-0.54456,0.54733 -1.37538,1.02563 -2.36329,1.30299c-0.98792,0.27737 -1.94627,0.30138 -2.69613,0.11747c-0.74986,-0.18391 -1.29321,-0.57683 -1.45002,-1.13538c-0.15681,-0.55855 0.10262,-1.17684 0.6472,-1.72416c0.54456,-0.54733 1.37537,-1.02562 2.36329,-1.30299c0.98792,-0.27737 1.94627,-0.30138 2.69614,-0.11748c0.74986,0.18391 1.29319,0.57684 1.45,1.13538c0.15681,0.55855 -0.10262,1.17684 -0.64718,1.72416z" data-paper-data="{&quot;origPos&quot;:null}" id="ID0.26917251013219357" fill="#001966" stroke-width="1" stroke-linecap="butt"/><path d="M360.98613,174.36226c-0.54456,0.54733 -1.37538,1.02563 -2.36329,1.303c-0.98792,0.27737 -1.94627,0.30138 -2.69613,0.11747c-0.74986,-0.18391 -1.29321,-0.57683 -1.45002,-1.13538c-0.15681,-0.55855 0.10262,-1.17684 0.6472,-1.72416c0.54456,-0.54733 1.37537,-1.02562 2.36329,-1.30298c0.98792,-0.27737 1.94627,-0.30139 2.69613,-0.11748c0.74986,0.18391 1.2932,0.57684 1.45001,1.13537c0.15681,0.55855 -0.10262,1.17684 -0.64719,1.72416z" data-paper-data="{&quot;origPos&quot;:null}" id="ID0.26917251013219357" fill="#001966" stroke-width="1" stroke-linecap="butt"/><g data-paper-data="{&quot;origPos&quot;:null}" id="ID0.5137764848768711" fill="#ffffff"><path d="M360.36762,120.73737c-0.14836,4.03713 -1.79658,8.42873 -4.90608,12.21394c-3.10946,3.78539 -7.09737,6.25496 -11.02881,7.18433c-3.93117,0.93149 -7.80569,0.32273 -10.68751,-2.04458c-2.88184,-2.36732 -4.23127,-6.04989 -4.08092,-10.08709c0.14841,-4.03699 1.79674,-8.42874 4.90623,-12.21399c3.10933,-3.78518 7.09743,-6.25481 11.02886,-7.18421c3.93117,-0.93149 7.80563,-0.32288 10.68751,2.0446c2.88184,2.36732 4.23124,6.04975 4.08071,10.08698z" id="ID0.9694409435614944" stroke-width="0.90437" stroke-linecap="butt"/><path d="M365.68595,104.06795c-0.50624,4.69401 -2.34766,11.6484 -4.3549,17.48015c-1.27152,3.68697 -3.01691,7.77787 -4.80942,9.74605c-4.03514,4.30711 -8.0716,6.75457 -11.54012,7.85911c-0.86753,0.27696 0.16574,-2.75869 0.50498,-4.23578c1.3307,-5.78197 1.99867,-10.89415 4.35494,-17.48c2.35638,-6.58606 5.13604,-12.32568 7.72215,-16.27548c2.58628,-3.94984 4.97901,-6.10986 6.56403,-5.54278c1.58524,0.56719 2.06475,3.75482 1.55831,8.44871z" id="ID0.4074811181053519" stroke-width="1.53181" stroke-linecap="round"/><path d="M355.92695,105.34794c-0.03855,3.3863 -0.88443,7.77987 -2.52775,12.37301c-1.64333,4.59313 -3.77655,8.52641 -5.89496,11.16849c-2.11831,2.6419 -4.22156,3.99287 -5.80678,3.42569c-1.58502,-0.56708 -2.35403,-2.9457 -2.3156,-6.33177c0.03838,-3.38625 0.88442,-7.77985 2.52774,-12.373c1.64333,-4.59313 3.77657,-8.5264 5.89486,-11.16828c2.11842,-2.6421 4.22168,-3.99308 5.80675,-3.42585c1.58519,0.56704 2.35419,2.94564 2.31576,6.33173z" id="ID0.4074811181053519" stroke-width="1.13742" stroke-linecap="butt"/><path d="M345.38987,110.30343c0.03929,3.16856 -0.69918,7.26194 -2.22395,11.52354c-1.52472,4.26175 -3.55049,7.89444 -5.59086,10.31892c-2.04052,2.42451 -4.09583,3.64085 -5.68084,3.07378c-1.58506,-0.56723 -2.4022,-2.81114 -2.4417,-5.97981c-0.03934,-3.16872 0.69918,-7.26195 2.22395,-11.52354c1.52472,-4.26175 3.55048,-7.89444 5.591,-10.31896c2.04038,-2.42448 4.09567,-3.64083 5.6807,-3.07374c1.58502,0.56708 2.40235,2.8111 2.44171,5.97981z" id="ID0.4074811181053519" stroke-width="1.07474" stroke-linecap="butt"/></g><path d="M311.80597,130.6725c0,0 9.35438,3.45405 14.53634,21.91124c5.18194,18.45719 -0.22154,24.09817 -0.22154,24.09817c0,0 -11.02241,-2.42679 -16.20434,-20.88397c-5.18194,-18.4572 1.88954,-25.12546 1.88954,-25.12546z" data-paper-data="{&quot;origPos&quot;:null}" fill="#ffffff" stroke-width="0" stroke-linecap="butt"/></g><g data-paper-data="{&quot;origPos&quot;:null}"><g data-paper-data="{&quot;origPos&quot;:null}" id="ID0.20286902273073792" fill="#fff346" stroke-width="0.88955" stroke-linecap="round"><path d="M254.74845,42.02516l-34.21156,1.72485l14.08712,-21.34625l4.95916,0.21556l0.79068,4.8155l3.73735,-5.74983l6.10922,-0.21557l-0.93433,7.04357l5.46236,-6.46861l8.91223,2.51554z" id="ID0.07827324094250798"/><path d="M236.42077,22.85283c3.41836,1.87579 5.78733,6.07174 6.25304,9.91848c0.33918,2.79736 -1.59138,5.48111 -4.16008,7.36691c-2.57015,1.88742 -6.59514,2.44378 -10.03499,3.05461c-2.73401,0.48155 -5.42924,0.54781 -8.08568,0.4313c-1.63291,-0.12508 -4.36417,0.42257 -4.67168,-1.1499c-0.79779,-4.08251 -0.07773,-8.74272 2.15615,-12.21845c2.00813,-3.12507 6.10195,-4.39003 9.5591,-5.74984c2.82903,-1.11257 6.30184,-3.08629 8.98414,-1.65311z" id="ID0.3567104428075254"/></g><path d="M209.51278,64.15822c1.51397,1.54807 2.22725,3.29523 1.78028,4.87546c-0.44697,1.58023 -1.96983,2.69474 -4.07039,3.22024c-2.10073,0.52567 -4.77865,0.46119 -7.53238,-0.31769c-2.75388,-0.77904 -5.06872,-2.12706 -6.58254,-3.6753c-1.51397,-1.54807 -2.22725,-3.29522 -1.78028,-4.87545c0.44697,-1.58023 1.96983,-2.69474 4.07039,-3.22025c2.10056,-0.52567 4.77866,-0.46119 7.53239,0.31786c2.75373,0.77904 5.06871,2.12706 6.58253,3.67513z" data-paper-data="{&quot;origPos&quot;:null}" id="ID0.16623971331864595" fill="#fff346" stroke-width="0.83998" stroke-linecap="butt"/><path d="M205.17656,69.5351c1.86205,1.1053 3.00177,2.60925 2.97737,4.25137c-0.02424,1.64195 -1.20824,3.1115 -3.10212,4.16105c-1.89405,1.04971 -4.49797,1.67815 -7.35948,1.63565c-2.8615,-0.04234 -5.44572,-0.74786 -7.30777,-1.85316c-1.86205,-1.1053 -3.00177,-2.60926 -2.97737,-4.25122c0.02424,-1.64212 1.20808,-3.11165 3.10213,-4.1612c1.89388,-1.04971 4.49797,-1.67816 7.35948,-1.63566c2.8615,0.0425 5.44571,0.74786 7.30776,1.85316z" data-paper-data="{&quot;origPos&quot;:null}" id="ID0.16623971331864595" fill="#fff346" stroke-width="0.83998" stroke-linecap="butt"/><path d="M203.98061,86.48c-2.75373,0.77904 -5.43182,0.84353 -7.53238,0.31786c-2.10056,-0.52567 -3.62342,-1.64019 -4.07039,-3.22025c-0.44697,-1.58023 0.2663,-3.32738 1.78028,-4.87545c1.51381,-1.54824 3.82865,-2.89625 6.58254,-3.67529c2.75373,-0.77904 5.43166,-0.84337 7.53238,-0.31786c2.10056,0.52567 3.62342,1.64018 4.07039,3.22041c0.44697,1.58023 -0.26631,3.32722 -1.78028,4.87545c-1.51381,1.54807 -3.82881,2.89608 -6.58254,3.67513z" data-paper-data="{&quot;origPos&quot;:null}" id="ID0.16623971331864595" fill="#fff346" stroke-width="0.83998" stroke-linecap="butt"/><path d="M261.59325,46.06063c6.1939,6.1939 10.02853,14.74869 10.02853,24.18902c0,9.44033 -3.83463,17.99511 -10.02853,24.18901c-6.1939,6.1939 -14.74869,10.02853 -24.18902,10.02853c-9.44033,0 -17.99511,-3.83462 -24.18901,-10.02853c-6.1939,-6.1939 -10.02853,-14.74868 -10.02853,-24.18901c0,-9.44033 3.83462,-17.99511 10.02853,-24.18902c6.1939,-6.1939 14.74868,-10.02853 24.18901,-10.02853c9.44033,0 17.99512,3.83462 24.18902,10.02853z" data-paper-data="{&quot;origPos&quot;:null}" id="ID0.1863371403887868" fill="#e12323" stroke-width="1" stroke-linecap="butt"/><path d="M273.14043,49.97283c1.68914,2.47078 2.73514,5.88526 2.73514,9.65201c0,3.76675 -1.046,7.18123 -2.73514,9.65201c-1.6893,2.47239 -4.02288,4.00269 -6.59691,4.00269c-2.57403,0 -4.90777,-1.5303 -6.59692,-4.00269c-1.68914,-2.47078 -2.73514,-5.88526 -2.73514,-9.65201c0,-3.76675 1.046,-7.18124 2.73514,-9.65201c1.68914,-2.47239 4.02289,-4.00268 6.59692,-4.00268c2.57403,0 4.90761,1.53029 6.59691,4.00268z" data-paper-data="{&quot;origPos&quot;:null}" id="ID0.39472739631310105" fill="#ffffff" stroke-width="0.91936" stroke-linecap="butt"/><path d="M259.4476,50.69999c1.71839,2.47078 2.78249,5.88526 2.78249,9.65202c0,3.76675 -1.0641,7.18124 -2.78249,9.65201c-1.71839,2.47239 -4.09253,4.00268 -6.71116,4.00268c-2.61863,0 -4.99261,-1.53029 -6.711,-4.00268c-1.71855,-2.47078 -2.78265,-5.88526 -2.78265,-9.65201c0,-3.76675 1.0641,-7.18124 2.78265,-9.65202c1.71839,-2.47239 4.09237,-4.00268 6.711,-4.00268c2.61863,0 4.99277,1.53029 6.71116,4.00268z" data-paper-data="{&quot;origPos&quot;:null}" id="ID0.39472739631310105" fill="#ffffff" stroke-width="0.9259" stroke-linecap="butt"/><path d="M271.29357,70.33529c1.67492,1.97468 2.71107,4.70238 2.71107,7.71126c0,3.00888 -1.03615,5.73659 -2.71107,7.71127c-1.67492,1.97468 -3.98846,3.19633 -6.54019,3.19633c-2.55173,0 -4.86543,-1.22165 -6.54035,-3.19633c-1.67476,-1.97468 -2.7109,-4.70239 -2.7109,-7.71127c0,-3.00888 1.03614,-5.73658 2.7109,-7.71126c1.67492,-1.97468 3.98862,-3.19633 6.54035,-3.19633c2.55173,0 4.86527,1.22165 6.54019,3.19633z" data-paper-data="{&quot;origPos&quot;:null}" id="ID0.2919205715879798" fill="#ffb197" stroke-width="0.99783" stroke-linecap="round"/><path d="M269.44332,77.15668c0.1868,0.83011 0.08242,1.80096 -0.35906,2.71365c-0.44148,0.91252 -1.13779,1.59704 -1.90439,1.96596c-0.76741,0.36714 -1.6056,0.41982 -2.33309,0.06787c-0.72766,-0.35179 -1.20663,-1.0418 -1.39505,-1.87126c-0.1868,-0.83011 -0.08241,-1.80097 0.35907,-2.71349c0.44148,-0.91269 1.13778,-1.59719 1.90454,-1.96595c0.76725,-0.3673 1.60544,-0.41998 2.3331,-0.06803c0.72749,0.35195 1.20646,1.04179 1.39488,1.87125z" data-paper-data="{&quot;origPos&quot;:null}" id="ID0.41036201547831297" fill="#a27060" stroke-width="0.73984" stroke-linecap="butt"/><path d="M258.80575,60.22919c0.37975,0.67223 0.61568,1.6014 0.61568,2.62752c0,1.02612 -0.23593,1.95529 -0.61568,2.62752c-0.37975,0.67223 -0.90492,1.08915 -1.48505,1.08915c-0.58013,0 -1.1053,-0.41691 -1.48505,-1.08915c-0.37975,-0.67223 -0.61567,-1.6014 -0.61567,-2.62752c0,-1.02612 0.23593,-1.95529 0.61567,-2.62752c0.37975,-0.67223 0.90492,-1.08914 1.48505,-1.08914c0.58013,0 1.1053,0.41691 1.48505,1.08914z" data-paper-data="{&quot;origPos&quot;:null}" id="ID0.26917251013219357" fill="#001966" stroke-width="1" stroke-linecap="butt"/><path d="M269.39016,60.22919c0.37975,0.67223 0.61568,1.6014 0.61568,2.62752c0,1.02612 -0.23593,1.95529 -0.61568,2.62752c-0.37975,0.67223 -0.90492,1.08915 -1.48505,1.08915c-0.58013,0 -1.1053,-0.41691 -1.48505,-1.08915c-0.37975,-0.67223 -0.61567,-1.6014 -0.61567,-2.62752c0,-1.02612 0.23592,-1.95529 0.61567,-2.62752c0.37975,-0.67223 0.90492,-1.08914 1.48505,-1.08914c0.58013,0 1.1053,0.41691 1.48505,1.08914z" data-paper-data="{&quot;origPos&quot;:null}" id="ID0.26917251013219357" fill="#001966" stroke-width="1" stroke-linecap="butt"/><g data-paper-data="{&quot;origPos&quot;:null}" id="ID0.5137764848768711" fill="#ffffff"><path d="M217.59426,46.3297c3.84674,1.23409 7.62934,4.00802 10.43316,8.02492c2.80398,4.01691 4.10368,8.52392 3.93578,12.56022c-0.1658,4.03662 -1.79919,7.60235 -4.85735,9.73701c-3.05817,2.13466 -6.96842,2.43846 -10.81468,1.20243c-3.84659,-1.23409 -7.62933,-4.00818 -10.43315,-8.02508c-2.80382,-4.01674 -4.10352,-8.52393 -3.93563,-12.56022c0.1658,-4.03662 1.79903,-7.60235 4.85736,-9.73701c3.05817,-2.13466 6.96826,-2.43846 10.81452,-1.20226z" id="ID0.9694409435614944" stroke-width="0.90437" stroke-linecap="butt"/><path d="M202.98293,36.70354c4.38243,1.7562 10.58021,5.40887 15.65232,8.91773c3.20603,2.22079 6.67286,5.00699 8.08326,7.26478c3.05606,5.04916 4.32135,9.59691 4.44723,13.23488c0.03215,0.9101 -2.61119,-0.90525 -3.9416,-1.63113c-5.20704,-2.84405 -9.94837,-4.86899 -15.65216,-8.91773c-5.70395,-4.0489 -10.47857,-8.27652 -13.5823,-11.83401c-3.10374,-3.55766 -4.53659,-6.44518 -3.56217,-7.81792c0.97457,-1.37291 4.17316,-0.97296 8.55543,0.78341z" id="ID0.4074811181053519" stroke-width="1.53181" stroke-linecap="round"/><path d="M201.57738,46.44525c3.24982,0.95244 7.25121,2.95443 11.22917,5.77812c3.97796,2.82369 7.18819,5.94068 9.15931,8.6944c1.97097,2.75356 2.70314,5.1437 1.72857,6.5166c-0.97441,1.37274 -3.47234,1.47018 -6.72199,0.51791c-3.24982,-0.95227 -7.2512,-2.95442 -11.22916,-5.77812c-3.97796,-2.82369 -7.18819,-5.94069 -9.15915,-8.69424c-1.97113,-2.75373 -2.7033,-5.14387 -1.72873,-6.5166c0.97441,-1.37291 3.47234,-1.47034 6.72199,-0.51807z" id="ID0.4074811181053519" stroke-width="1.13742" stroke-linecap="butt"/><path d="M203.50019,57.92958c3.06124,0.81864 6.80263,2.63609 10.49344,5.25601c3.69097,2.61992 6.64086,5.55221 8.42357,8.17197c1.7827,2.61992 2.39822,4.92749 1.42381,6.30023c-0.97457,1.37274 -3.35582,1.55292 -6.41722,0.73444c-3.0614,-0.81864 -6.80263,-2.63608 -10.49344,-5.25601c-3.69097,-2.61992 -6.64086,-5.55221 -8.42357,-8.17213c-1.7827,-2.61977 -2.39822,-4.92733 -1.42381,-6.30007c0.97441,-1.37274 3.35582,-1.55308 6.41722,-0.73444z" id="ID0.4074811181053519" stroke-width="1.07474" stroke-linecap="butt"/></g><path d="M214.03318,95.76917c0,0 5.854,-8.07253 25.02483,-8.07253c19.17083,0 23.14124,6.72711 23.14124,6.72711c0,0 -5.31584,9.95613 -24.48667,9.95613c-19.17084,0 -23.67942,-8.61069 -23.67942,-8.61069z" data-paper-data="{&quot;origPos&quot;:null}" fill="#ffffff" stroke-width="0" stroke-linecap="butt"/></g><g data-paper-data="{&quot;index&quot;:null,&quot;origPos&quot;:null,&quot;origRot&quot;:0}"><g data-paper-data="{&quot;origPos&quot;:null,&quot;index&quot;:null,&quot;origRot&quot;:0}" id="ID0.20286902273073792" fill="#fff346" stroke-width="0.88955" stroke-linecap="round"><path d="M127.88467,277.16484l27.61592,20.2674l-24.40303,7.65517l-3.70907,-3.29888l2.42795,-4.23312l-6.52889,2.0981l-4.87305,-3.69086l5.17251,-4.87135l-8.32032,1.56606l-5.32171,-7.5786z" id="ID0.07827324094250798"/><path d="M129.988,303.60454c-1.46593,-3.61314 -0.65299,-8.36258 1.41515,-11.63933c1.50356,-2.38319 4.69526,-3.24493 7.87785,-3.08497c3.18474,0.15961 6.65694,2.27003 9.70985,3.96869c2.42398,1.35316 4.55562,3.00384 6.54177,4.77174c1.18712,1.12818 3.65071,2.42834 2.89612,3.84179c-1.95954,3.66927 -5.46081,6.82795 -9.38784,8.11221c-3.53054,1.15494 -7.5036,-0.44952 -11.0429,-1.57837c-2.89614,-0.9239 -6.83527,-1.58663 -8.00999,-4.39177z" id="ID0.3567104428075254"/></g><path d="M176.93627,288.57009c-0.19627,-2.15641 0.35401,-3.96155 1.6985,-4.90455c1.34449,-0.943 3.2291,-0.84547 5.18966,0.07359c1.96081,0.91903 3.99647,2.66015 5.63977,5.00307c1.64332,2.34314 2.58689,4.85019 2.78294,7.00663c0.19627,2.15641 -0.354,3.96154 -1.6985,4.90454c-1.34449,0.943 -3.22909,0.84548 -5.18967,-0.07358c-1.96068,-0.91893 -3.99648,-2.66016 -5.63967,-5.00321c-1.64319,-2.34305 -2.58688,-4.85017 -2.78304,-7.00649z" data-paper-data="{&quot;origPos&quot;:null,&quot;index&quot;:null,&quot;origRot&quot;:0}" id="ID0.16623971331864595" fill="#fff346" stroke-width="0.83998" stroke-linecap="butt"/><path d="M183.69398,287.13935c-0.74578,-2.03292 -0.67973,-3.91877 0.37619,-5.17662c1.0557,-1.25781 2.90177,-1.64956 5.03303,-1.26735c2.13149,0.38219 4.54736,1.53931 6.73925,3.37932c2.19198,1.83988 3.75018,4.01887 4.49596,6.05178c0.74578,2.03292 0.67972,3.91878 -0.3761,5.1765c-1.0558,1.25795 -2.90174,1.64977 -5.03312,1.26746c-2.13136,-0.38209 -4.54737,-1.5393 -6.73926,-3.37931c-2.19189,-1.84001 -3.75017,-4.01886 -4.49595,-6.05178z" data-paper-data="{&quot;origPos&quot;:null,&quot;index&quot;:null,&quot;origRot&quot;:0}" id="ID0.16623971331864595" fill="#fff346" stroke-width="0.83998" stroke-linecap="butt"/><path d="M195.32208,274.75601c2.62714,1.13495 4.74437,2.77618 6.04112,4.51028c1.29675,1.7341 1.77371,3.55996 1.12246,5.06736c-0.65135,1.50752 -2.30775,2.41179 -4.45926,2.65603c-2.15149,0.24448 -4.79762,-0.17215 -7.42487,-1.3072c-2.62714,-1.13495 -4.74415,-2.7762 -6.04112,-4.51028c-1.29675,-1.7341 -1.77371,-3.55997 -1.12235,-5.06749c0.65135,-1.50752 2.30765,-2.41165 4.45925,-2.65602c2.15138,-0.24435 4.79764,0.17238 7.42478,1.30732z" data-paper-data="{&quot;origPos&quot;:null,&quot;index&quot;:null,&quot;origRot&quot;:0}" id="ID0.16623971331864595" fill="#fff346" stroke-width="0.83998" stroke-linecap="butt"/><path d="M125.12585,269.7133c-0.89109,-8.71406 1.53805,-17.76878 7.49967,-25.08854c5.96162,-7.31976 14.33728,-11.5313 23.05134,-12.42239c8.71406,-0.89109 17.76878,1.53805 25.08854,7.49967c7.31976,5.96162 11.5313,14.33727 12.42239,23.05133c0.89109,8.71405 -1.53804,17.76877 -7.49966,25.08853c-5.96162,7.31976 -14.33728,11.53131 -23.05134,12.4224c-8.71406,0.89109 -17.76877,-1.53805 -25.08853,-7.49967c-7.31976,-5.96162 -11.53131,-14.33727 -12.4224,-23.05134z" data-paper-data="{&quot;origPos&quot;:null,&quot;index&quot;:null,&quot;origRot&quot;:0}" id="ID0.1863371403887868" fill="#e12323" stroke-width="1" stroke-linecap="butt"/><path d="M118.64307,259.38779c0.2506,-2.98247 1.59582,-6.29052 3.97454,-9.21114c2.37872,-2.92063 5.34603,-4.90756 8.21605,-5.75663c2.87116,-0.85022 5.64694,-0.5631 7.64278,1.06242c1.99583,1.62552 2.83895,4.28583 2.58734,7.26956c-0.2506,2.98248 -1.59582,6.29052 -3.97455,9.21115c-2.37873,2.92063 -5.34603,4.90757 -8.21605,5.75664c-2.87104,0.85032 -5.64695,0.56309 -7.64278,-1.06243c-1.99583,-1.62552 -2.83883,-4.28573 -2.58733,-7.26955z" data-paper-data="{&quot;origPos&quot;:null,&quot;index&quot;:null,&quot;origRot&quot;:0}" id="ID0.39472739631310105" fill="#ffffff" stroke-width="0.91936" stroke-linecap="butt"/><path d="M129.71931,267.47107c0.22792,-3.00095 1.55911,-6.32042 3.93785,-9.24106c2.37873,-2.92063 5.36006,-4.89614 8.25276,-5.72673c2.89372,-0.83185 5.70095,-0.51911 7.73136,1.13457c2.03041,1.65368 2.90473,4.3394 2.6758,7.3416c-0.2278,3.00104 -1.55899,6.32052 -3.93771,9.24115c-2.37873,2.92063 -5.36007,4.89614 -8.25289,5.72664c-2.89372,0.83185 -5.70082,0.51921 -7.73123,-1.13447c-2.03041,-1.65368 -2.90486,-4.33951 -2.67593,-7.3417z" data-paper-data="{&quot;origPos&quot;:null,&quot;index&quot;:null,&quot;origRot&quot;:0}" id="ID0.39472739631310105" fill="#ffffff" stroke-width="0.9259" stroke-linecap="butt"/><path d="M132.93409,244.76562c-0.05167,-2.58883 0.86749,-5.35815 2.76762,-7.69115c1.90013,-2.333 4.42609,-3.79366 6.97179,-4.26704c2.5457,-0.47339 5.11104,0.04039 7.08958,1.65183c1.97854,1.61144 3.00103,4.01978 3.0527,6.60861c0.05154,2.58873 -0.86763,5.35805 -2.76775,7.69105c-1.90013,2.33299 -4.42608,3.79365 -6.97166,4.26714c-2.5457,0.47339 -5.11116,-0.04049 -7.0897,-1.65192c-1.97854,-1.61144 -3.00091,-4.01968 -3.05257,-6.60851z" data-paper-data="{&quot;origPos&quot;:null,&quot;index&quot;:null,&quot;origRot&quot;:0}" id="ID0.2919205715879798" fill="#ffb197" stroke-width="0.99783" stroke-linecap="round"/><path d="M138.67643,240.645c0.37938,-0.76161 1.07341,-1.44846 1.99209,-1.87734c0.91857,-0.42874 1.89075,-0.51978 2.71812,-0.32172c0.82688,0.19995 1.51005,0.68843 1.85187,1.42074c0.34205,0.73229 0.27769,1.56978 -0.10003,2.33191c-0.37938,0.76161 -1.07343,1.44846 -1.992,1.87721c-0.91869,0.42888 -1.89084,0.5199 -2.71824,0.32161c-0.82685,-0.19973 -1.51003,-0.68821 -1.85198,-1.42062c-0.34181,-0.7323 -0.27756,-1.56966 0.10016,-2.33178z" data-paper-data="{&quot;origPos&quot;:null,&quot;index&quot;:null,&quot;origRot&quot;:0}" id="ID0.41036201547831297" fill="#a27060" stroke-width="0.73984" stroke-linecap="butt"/><path d="M136.23474,260.48771c0.13007,-0.76104 0.53392,-1.63048 1.18192,-2.42611c0.648,-0.79562 1.4177,-1.36708 2.13667,-1.64849c0.71896,-0.28141 1.38945,-0.27303 1.83927,0.09332c0.44982,0.36635 0.59374,1.02126 0.46366,1.78231c-0.13007,0.76105 -0.53392,1.63047 -1.18192,2.4261c-0.648,0.79563 -1.41771,1.36709 -2.13667,1.64851c-0.71896,0.28141 -1.38944,0.27303 -1.83926,-0.09333c-0.44982,-0.36635 -0.59373,-1.02126 -0.46366,-1.78231z" data-paper-data="{&quot;origPos&quot;:null,&quot;index&quot;:null,&quot;origRot&quot;:0}" id="ID0.26917251013219357" fill="#001966" stroke-width="1" stroke-linecap="butt"/><path d="M128.02789,253.8036c0.13007,-0.76105 0.53392,-1.63048 1.18192,-2.42611c0.648,-0.79563 1.41771,-1.36709 2.13667,-1.6485c0.71896,-0.28141 1.38945,-0.27303 1.83927,0.09332c0.44982,0.36635 0.59374,1.02126 0.46366,1.78232c-0.13007,0.76104 -0.53393,1.63047 -1.18193,2.4261c-0.648,0.79563 -1.4177,1.36709 -2.13666,1.64851c-0.71896,0.28141 -1.38944,0.27303 -1.83926,-0.09333c-0.44982,-0.36635 -0.59374,-1.02126 -0.46367,-1.78231z" data-paper-data="{&quot;origPos&quot;:null,&quot;index&quot;:null,&quot;origRot&quot;:0}" id="ID0.26917251013219357" fill="#001966" stroke-width="1" stroke-linecap="butt"/><g data-paper-data="{&quot;origPos&quot;:null,&quot;index&quot;:null,&quot;origRot&quot;:0}" id="ID0.5137764848768711" fill="#ffffff"><path d="M159.41131,297.29031c-2.20332,-3.38612 -3.38449,-7.92567 -3.02179,-12.81089c0.36258,-4.88533 2.20102,-9.2007 4.88016,-12.2243c2.67771,-3.02517 6.19597,-4.75844 9.91523,-4.48235c3.71927,0.27609 6.94301,2.50989 9.14473,5.8972c2.2032,3.38602 3.38438,7.92579 3.02168,12.81101c-0.36259,4.88509 -2.20115,9.2006 -4.88028,12.2242c-2.67771,3.02517 -6.19584,4.75855 -9.91523,4.48235c-3.71927,-0.27609 -6.9429,-2.50978 -9.14451,-5.89723z" id="ID0.9694409435614944" stroke-width="0.90437" stroke-linecap="butt"/><path d="M164.66155,313.98127c-2.28896,-4.12923 -4.78786,-10.87534 -6.50476,-16.79908c-1.08343,-3.74656 -2.012,-8.09622 -1.67978,-10.73753c0.81899,-5.8449 2.70986,-10.17012 4.90965,-13.07039c0.5498,-0.72597 1.45297,2.35089 2.02614,3.75387c2.24135,5.49347 4.63888,10.05773 6.50464,16.79898c1.86578,6.74147 2.89811,13.03465 3.05808,17.75305c0.15987,4.71853 -0.55263,7.86229 -2.17506,8.31132c-1.62265,0.44907 -3.85018,-1.88096 -6.1389,-6.01023z" id="ID0.4074811181053519" stroke-width="1.53181" stroke-linecap="round"/><path d="M171.9033,307.31547c-1.91834,-2.79077 -3.75664,-6.86997 -5.05786,-11.57148c-1.30122,-4.70151 -1.82195,-9.14561 -1.61131,-12.52554c0.21066,-3.37971 1.15234,-5.69533 2.77499,-6.14439c1.62242,-0.44904 3.62079,1.05287 5.53911,3.8434c1.91845,2.79064 3.75663,6.86995 5.05785,11.57147c1.30122,4.70151 1.82194,9.14562 1.61128,12.52532c-0.21064,3.37995 -1.15233,5.69556 -2.77487,6.14449c-1.62253,0.44917 -3.62089,-1.05275 -5.53921,-3.84328z" id="ID0.4074811181053519" stroke-width="1.13742" stroke-linecap="butt"/><path d="M177.66483,297.19658c-1.85662,-2.56794 -3.60985,-6.33985 -4.81711,-10.70203c-1.20738,-4.36228 -1.64288,-8.49876 -1.37075,-11.65584c0.27224,-3.1572 1.25223,-5.33513 2.87465,-5.78417c1.62255,-0.44894 3.58269,0.91513 5.43953,3.48305c1.85674,2.56804 3.60987,6.33984 4.81712,10.70202c1.20738,4.36228 1.64288,8.49877 1.37064,11.65597c-0.27214,3.15708 -1.25213,5.335 -2.87455,5.78404c-1.62242,0.44904 -3.58279,-0.91501 -5.43953,-3.48305z" id="ID0.4074811181053519" stroke-width="1.07474" stroke-linecap="butt"/></g><path d="M193.39377,261.2052c0,0 -9.63688,2.56237 -24.50138,-9.54411c-14.86451,-12.10648 -13.69484,-19.82983 -13.69484,-19.82983c0,0 10.40911,-4.36271 25.27362,7.74377c14.86452,12.10649 12.92264,21.63017 12.92264,21.63017z" data-paper-data="{&quot;origPos&quot;:null,&quot;index&quot;:null,&quot;origRot&quot;:0}" fill="#ffffff" stroke-width="0" stroke-linecap="butt"/></g><g data-paper-data="{&quot;origRot&quot;:0,&quot;origPos&quot;:null,&quot;index&quot;:null}"><g data-paper-data="{&quot;origPos&quot;:null}" id="ID0.20286902273073792" fill="#fff346" stroke-width="0.88955" stroke-linecap="round"><path d="M115.43674,112.9423l-11.65742,32.21041l-14.22596,-21.25398l2.11907,-4.48879l4.74599,1.13571l-3.85404,-5.67227l2.16692,-5.71608l6.13226,3.58892l-3.84877,-7.54103l5.77036,-7.24284z" id="ID0.07827324094250798"/><path d="M90.66318,122.41604c3.05313,-2.42531 7.83907,-2.98467 11.56604,-1.92449c2.71046,0.7705 4.43727,3.58966 5.18127,6.6882c0.74494,3.1005 -0.30071,7.02692 -1.06954,10.43493c-0.61471,2.70718 -1.59729,5.21778 -2.73336,7.62188c-0.74764,1.45709 -1.30031,4.18732 -2.8692,3.86194c-4.07294,-0.84531 -8.09074,-3.31377 -10.43029,-6.71926c-2.10366,-3.06158 -1.68469,-7.32584 -1.5997,-11.03985c0.06969,-3.03914 -0.40525,-7.00529 1.95477,-8.92336z" id="ID0.3567104428075254"/></g><path d="M118.3265,163.2194c2.01355,-0.7964 3.9006,-0.77747 5.18447,0.24653c1.28387,1.024 1.72173,2.85964 1.39284,4.99981c-0.3288,2.14039 -1.42522,4.58442 -3.20967,6.8217c-1.78464,2.23737 -3.92387,3.84963 -5.93752,4.64581c-2.01355,0.7964 -3.9006,0.77748 -5.18446,-0.24653c-1.28387,-1.024 -1.72172,-2.85963 -1.39286,-4.99981c0.32873,-2.14023 1.42523,-4.58443 3.20983,-6.82165c1.78458,-2.23722 3.92387,-3.84961 5.93737,-4.64586z" data-paper-data="{&quot;origPos&quot;:null}" id="ID0.16623971331864595" fill="#fff346" stroke-width="0.83998" stroke-linecap="butt"/><path d="M121.60478,169.29941c1.74011,-1.28878 3.56806,-1.75722 5.07261,-1.09884c1.50447,0.65815 2.40088,2.31884 2.63519,4.47139c0.23438,2.15276 -0.19451,4.79688 -1.34176,7.41869c-1.14709,2.62187 -2.79826,4.73127 -4.53836,6.02005c-1.74011,1.28878 -3.56807,1.7572 -5.07248,1.09888c-1.50462,-0.65822 -2.40109,-2.31874 -2.63532,-4.47146c-0.23444,-2.1526 0.19451,-4.79689 1.34176,-7.4187c1.14724,-2.62179 2.79825,-4.73126 4.53835,-6.02005z" data-paper-data="{&quot;origPos&quot;:null}" id="ID0.16623971331864595" fill="#fff346" stroke-width="0.83998" stroke-linecap="butt"/><path d="M136.7646,176.9636c-0.34806,2.84055 -1.32564,5.33469 -2.62369,7.06781c-1.29806,1.73312 -2.91534,2.70561 -4.5452,2.50586c-1.63003,-0.19982 -2.96467,-1.53399 -3.80571,-3.52931c-0.84125,-1.99524 -1.18772,-4.65146 -0.8396,-7.49216c0.34806,-2.84055 1.32573,-5.33448 2.62369,-7.06782c1.29806,-1.73312 2.91532,-2.70561 4.54533,-2.5058c1.63003,0.19982 2.96452,1.53393 3.80571,3.52931c0.84109,1.99517 1.18752,4.65156 0.83947,7.49211z" data-paper-data="{&quot;origPos&quot;:null}" id="ID0.16623971331864595" fill="#fff346" stroke-width="0.83998" stroke-linecap="butt"/><path d="M121.80791,108.19417c8.10914,-3.31222 17.48139,-3.53503 26.18522,0.12054c8.70383,3.65556 15.1063,10.5037 18.41853,18.61283c3.31222,8.10914 3.53503,17.48139 -0.12054,26.18522c-3.65556,8.70383 -10.50368,15.10631 -18.61282,18.41853c-8.10914,3.31222 -17.48138,3.53503 -26.18521,-0.12053c-8.70383,-3.65556 -15.10631,-10.50369 -18.41854,-18.61283c-3.31222,-8.10914 -3.53503,-17.48137 0.12054,-26.18521c3.65556,-8.70383 10.50369,-15.10632 18.61283,-18.41854z" data-paper-data="{&quot;origPos&quot;:null}" id="ID0.1863371403887868" fill="#e12323" stroke-width="1" stroke-linecap="butt"/><path d="M129.88629,99.06276c2.93211,-0.60062 6.48523,-0.24281 9.95812,1.21578c3.47288,1.4586 6.21593,3.74518 7.83988,6.2593c1.62535,2.51488 2.13263,5.25899 1.1359,7.63219c-0.99674,2.37321 -3.31134,3.93231 -6.24493,4.5323c-2.93211,0.60062 -6.48523,0.24281 -9.95812,-1.21578c-3.47288,-1.4586 -6.21595,-3.74517 -7.83988,-6.2593c-1.62543,-2.51475 -2.13262,-5.25899 -1.1359,-7.6322c0.99674,-2.37321 3.31128,-3.93217 6.24492,-4.5323z" data-paper-data="{&quot;origPos&quot;:null}" id="ID0.39472739631310105" fill="#ffffff" stroke-width="0.91936" stroke-linecap="butt"/><path d="M125.25446,111.9689c2.94342,-0.62757 6.50357,-0.28646 9.97646,1.17214c3.47288,1.4586 6.20895,3.76187 7.82153,6.30294c1.61409,2.54171 2.10566,5.32319 1.09164,7.73752c-1.01401,2.41433 -3.34419,4.01054 -6.2891,4.63749c-2.9435,0.62772 -6.50363,0.28661 -9.97652,-1.17199c-3.47288,-1.4586 -6.20894,-3.76186 -7.82149,-6.3031c-1.6141,-2.54171 -2.10572,-5.32305 -1.09171,-7.73739c1.01401,-2.41433 3.34423,-4.01069 6.28915,-4.63764z" data-paper-data="{&quot;origPos&quot;:null}" id="ID0.39472739631310105" fill="#ffffff" stroke-width="0.9259" stroke-linecap="butt"/><path d="M147.94498,108.65047c2.4692,-0.77961 5.38533,-0.67867 8.15946,0.48646c2.77414,1.16514 4.8878,3.1767 6.05985,5.48559c1.17205,2.3089 1.40252,4.91501 0.41443,7.26766c-0.9881,2.35266 -3.01038,4.01279 -5.47957,4.79239c-2.46914,0.77944 -5.38527,0.67851 -8.15941,-0.48664c-2.77414,-1.16514 -4.88781,-3.17667 -6.05992,-5.48542c-1.17205,-2.3089 -1.40246,-4.91516 -0.41436,-7.26781c0.9881,-2.35266 3.01032,-4.01263 5.47952,-4.79224z" data-paper-data="{&quot;origPos&quot;:null}" id="ID0.2919205715879798" fill="#ffb197" stroke-width="0.99783" stroke-linecap="round"/><path d="M153.5177,112.99779c0.83768,0.14921 1.69236,0.62139 2.36291,1.38186c0.67038,0.76038 1.03186,1.66745 1.07514,2.51709c0.04133,0.84971 -0.23467,1.6429 -0.84087,2.17736c-0.60611,0.53467 -1.42777,0.70906 -2.26547,0.56161c-0.83768,-0.14921 -1.69238,-0.6214 -2.36275,-1.3818c-0.67053,-0.76045 -1.032,-1.66749 -1.07508,-2.51722c-0.04154,-0.84961 0.23446,-1.64281 0.84072,-2.17741c0.6062,-0.53445 1.4277,-0.70893 2.26539,-0.56146z" data-paper-data="{&quot;origPos&quot;:null}" id="ID0.41036201547831297" fill="#a27060" stroke-width="0.73984" stroke-linecap="butt"/><path d="M133.79168,116.25067c0.76684,-0.08982 1.71488,0.05246 2.66094,0.4498c0.94607,0.39734 1.71139,0.97466 2.18412,1.58509c0.47274,0.61043 0.65377,1.25606 0.42912,1.79094c-0.22465,0.53488 -0.81239,0.85764 -1.57924,0.94744c-0.76684,0.08982 -1.71487,-0.05247 -2.66093,-0.44981c-0.94607,-0.39734 -1.71138,-0.97466 -2.18413,-1.58509c-0.47274,-0.61043 -0.65375,-1.25607 -0.42911,-1.79094c0.22465,-0.53488 0.81238,-0.85763 1.57922,-0.94745z" data-paper-data="{&quot;origPos&quot;:null}" id="ID0.26917251013219357" fill="#001966" stroke-width="1" stroke-linecap="butt"/><path d="M137.89027,106.49201c0.76684,-0.08982 1.71488,0.05247 2.66094,0.44981c0.94607,0.39734 1.71138,0.97466 2.18412,1.58509c0.47274,0.61043 0.65377,1.25606 0.42912,1.79094c-0.22465,0.53488 -0.81238,0.85763 -1.57923,0.94743c-0.76684,0.08982 -1.71487,-0.05247 -2.66094,-0.44981c-0.94607,-0.39734 -1.7114,-0.97465 -2.18413,-1.58509c-0.47274,-0.61043 -0.65375,-1.25607 -0.4291,-1.79094c0.22465,-0.53488 0.81238,-0.85763 1.57923,-0.94745z" data-paper-data="{&quot;origPos&quot;:null}" id="ID0.26917251013219357" fill="#001966" stroke-width="1" stroke-linecap="butt"/><g data-paper-data="{&quot;origPos&quot;:null}" id="ID0.5137764848768711" fill="#ffffff"><path d="M105.01829,148.86469c2.62738,-3.06877 6.64963,-5.48212 11.43886,-6.51172c4.78931,-1.02976 9.44796,-0.48282 13.10435,1.23496c3.65749,1.71595 6.31255,4.60268 7.09646,8.24884c0.78391,3.64619 -0.45015,7.36901 -3.07914,10.43658c-2.62733,3.06861 -6.64977,5.48202 -11.43901,6.51165c-4.78908,1.02967 -9.44791,0.48266 -13.10431,-1.23508c-3.65749,-1.71595 -6.3126,-4.60251 -7.09645,-8.24885c-0.78391,-3.64619 0.45009,-7.36887 3.07923,-10.43637z" id="ID0.9694409435614944" stroke-width="0.90437" stroke-linecap="butt"/><path d="M90.48519,158.60858c3.31619,-3.36049 9.08386,-7.66031 14.28303,-10.97798c3.289,-2.09595 7.20029,-4.21341 9.82808,-4.63949c5.83863,-0.86246 10.52155,-0.26801 13.92445,1.02467c0.85155,0.32278 -1.84576,2.05694 -3.03019,3.00248c-4.63849,3.6995 -8.34143,7.28682 -14.28296,10.97782c-5.94175,3.6911 -11.68843,6.45615 -16.17023,7.94019c-4.48196,1.48397 -7.69905,1.6869 -8.58737,0.25695c-0.88842,-1.43017 0.71892,-4.22433 4.03521,-7.5846z" id="ID0.4074811181053519" stroke-width="1.53181" stroke-linecap="round"/><path d="M98.92262,163.67674c2.13657,-2.62747 5.53181,-5.54145 9.67559,-8.11566c4.14378,-2.57419 8.26069,-4.32699 11.56285,-5.07801c3.30196,-0.75094 5.78914,-0.50046 6.67755,0.9297c0.88833,1.42996 0.01087,3.77074 -2.12545,6.39811c-2.1364,2.62754 -5.5318,5.54144 -9.67558,8.11565c-4.14378,2.57419 -8.2607,4.32698 -11.56264,5.07792c-3.30218,0.75102 -5.78935,0.50055 -6.67762,-0.92955c-0.88848,-1.43003 -0.01104,-3.7708 2.1253,-6.39818z" id="ID0.4074811181053519" stroke-width="1.13742" stroke-linecap="butt"/><path d="M110.25555,166.351c1.94017,-2.5054 5.0646,-5.25114 8.90932,-7.6395c3.84478,-2.38851 7.69058,-3.97279 10.79627,-4.60197c3.10584,-0.62912 5.47173,-0.30303 6.36006,1.1269c0.88826,1.43009 0.13229,3.69535 -1.80779,6.20096c-1.94024,2.50556 -5.0646,5.25115 -8.90932,7.6395c-3.84478,2.38851 -7.69057,3.97279 -10.79642,4.60191c-3.1057,0.62917 -5.47159,0.30312 -6.35991,-1.12684c-0.88832,-1.42996 -0.13244,-3.69541 1.80778,-6.20097z" id="ID0.4074811181053519" stroke-width="1.07474" stroke-linecap="butt"/></g><path d="M149.2217,171.29234c0,0 -5.1759,-8.5232 2.24758,-26.1984c7.4235,-17.67517 15.16324,-18.73092 15.16324,-18.73092c0,0 7.12094,8.75643 -0.30255,26.43161c-7.4235,17.67519 -17.10828,18.49773 -17.10828,18.49773z" data-paper-data="{&quot;origPos&quot;:null}" fill="#ffffff" stroke-width="0" stroke-linecap="butt"/></g></g></g></svg>