<svg version="1.1" xmlns="http://www.w3.org/2000/svg" xmlns:xlink="http://www.w3.org/1999/xlink" width="441.55828" height="69.66968" viewBox="0,0,441.55828,69.66968"><defs><linearGradient x1="24.5327" y1="284.2076" x2="24.5327" y2="341.819" gradientUnits="userSpaceOnUse" id="color-1"><stop offset="0" stop-color="#ffffff"/><stop offset="1" stop-color="#ffffff"/></linearGradient></defs><g transform="translate(-18.50356,-278.17846)"><g data-paper-data="{&quot;isPaintingLayer&quot;:true}" fill-rule="nonzero" stroke-linejoin="miter" stroke-miterlimit="10" stroke-dasharray="" stroke-dashoffset="0" style="mix-blend-mode: normal"><path d="M24.5327,284.2076h429.5v57.6114h-429.5z" data-paper-data="{&quot;origPos&quot;:null}" fill="#ffffff" stroke="url(#color-1)" stroke-width="12.05828" stroke-linecap="butt"/><g data-paper-data="{&quot;origPos&quot;:null}" fill="#2392d1" stroke="none" stroke-width="1.08273" stroke-linecap="round"><g data-paper-data="{&quot;origPos&quot;:null}"><path d="M29.16374,286.3798l6.07565,-1.76169l8.68959,0.25167l3.10848,4.65589l-2.75524,6.54341l-4.09754,2.26502l-5.58112,-0.25167l1.90748,-4.53005l4.52142,-0.75501l-1.05971,-2.26503l-5.43984,-1.38418l-1.83682,5.41089h-5.58112z"/><path d="M35.02746,300.22162l4.9453,0.3775l0.49453,3.90088l-6.1463,-0.25167z"/></g><g data-paper-data="{&quot;origPos&quot;:null}"><path d="M51.55533,286.3798l6.07565,-1.76169l8.6896,0.25167l3.10848,4.65589l-2.75524,6.54341l-4.09754,2.26502l-5.58112,-0.25167l1.90748,-4.53005l4.52142,-0.75501l-1.05971,-2.26502l-5.43984,-1.38418l-1.83682,5.41089h-5.58112z"/><path d="M57.41905,300.22162l4.9453,0.37751l0.49453,3.90087l-6.1463,-0.25167z"/></g><g data-paper-data="{&quot;origPos&quot;:null}"><path d="M73.63155,286.71313l6.07565,-1.76169l8.6896,0.25167l3.10848,4.65589l-2.75524,6.54341l-4.09754,2.26502l-5.58112,-0.25167l1.90748,-4.53005l4.52142,-0.75501l-1.05971,-2.26502l-5.43984,-1.38418l-1.83682,5.41089h-5.58112z"/><path d="M79.49526,300.55495l4.9453,0.37751l0.49453,3.90087l-6.1463,-0.25167z"/></g></g><text transform="translate(25.78827,322.12447) scale(0.7218,0.72179)" font-size="22" xml:space="preserve" data-paper-data="{&quot;origPos&quot;:null}" fill="#2492d1" fill-rule="nonzero" stroke="none" stroke-width="1" stroke-linecap="butt" stroke-linejoin="miter" stroke-miterlimit="10" stroke-dasharray="" stroke-dashoffset="0" font-family="Sans Serif" font-weight="400" text-anchor="start" style="mix-blend-mode: normal"><tspan x="0" dy="0">This objective is hidden. Complete more objects to see</tspan><tspan x="0" dy="26.4px">it to see it in this menu.</tspan></text></g></g></svg>