<svg version="1.1" xmlns="http://www.w3.org/2000/svg" xmlns:xlink="http://www.w3.org/1999/xlink" width="58.85906" height="56.43222"><defs><radialGradient cx="240.97114" cy="180.20869" r="38.73687" gradientUnits="userSpaceOnUse" id="color-1"><stop offset="0" stop-color="#fff343"/><stop offset="1" stop-color="#fff343" stop-opacity="0"/></radialGradient><radialGradient cx="239.35311" cy="179.78437" r="26.35516" gradientUnits="userSpaceOnUse" id="color-2"><stop offset="0" stop-color="#ffffff" stop-opacity="0"/><stop offset="1" stop-color="#ffffff"/></radialGradient></defs><g transform="translate(-210.57047,-151.78389)"><g data-paper-data="{&quot;isPaintingLayer&quot;:true}" fill="none" fill-rule="nonzero" stroke="none" stroke-width="none" stroke-linecap="none" stroke-linejoin="miter" stroke-miterlimit="10" stroke-dasharray="" stroke-dashoffset="0" font-family="none" font-weight="none" font-size="none" text-anchor="none" style="mix-blend-mode: normal"><path d="M211.61405,174.61192l-1.04358,-1.34696l0.9045,-2.76495l1.60018,-0.70888c0,0 10.47684,2.38672 15.41075,-1.07807c4.93391,-3.46478 8.31377,-15.5822 8.31377,-15.5822l1.60019,-1.34697l1.60019,0.07082l1.94798,1.48879c0,0 3.66533,10.8389 9.30151,14.51001c5.63618,3.67111 15.18833,1.44137 15.18833,1.44137l1.66982,0.99252l1.32184,1.63061l-1.32184,2.90666c0,0 -6.96065,6.12092 -8.23788,11.48791c-1.27723,5.36698 1.48926,16.87 1.48926,16.87l0.13908,2.69394l-1.73925,0.92161l-3.06129,-0.56707c0,0 -8.68028,-10.18417 -16.00185,-9.83391c-7.32156,0.35026 -13.63634,11.25179 -13.63634,11.25179l-3.06119,0.56718l-2.22643,-1.20525l-0.76523,-3.33201c0,0 2.56788,-9.5699 0.73773,-15.23363c-1.83014,-5.66374 -10.13024,-13.83328 -10.13024,-13.83328z" data-paper-data="{&quot;origPos&quot;:null}" id="ID0.3117544511333108" fill="url(#color-1)" stroke-width="1.43627" stroke-linecap="round"/><path d="M214.85247,175.43895l-0.93453,-1.18372l0.80992,-2.42997l1.43304,-0.62301c0,0 8.95158,1.02661 13.25708,-1.94052c4.3055,-2.96713 7.98906,-12.70125 7.98906,-12.70125l1.43304,-1.18382l1.43305,0.06231l1.74455,1.30844c0,0 3.68215,8.82463 8.48747,11.89621c4.80533,3.07158 13.44408,2.12254 13.44408,2.12254l1.49533,0.87222l1.18372,1.43304l-1.18372,2.55456c0,0 -5.62226,6.08261 -6.81101,10.98462c-1.18874,4.90201 0.76735,13.9375 0.76735,13.9375l0.1246,2.36766l-1.55764,0.80992l-2.74148,-0.49841c0,0 -7.98616,-8.76753 -14.54588,-8.45956c-6.55972,0.30798 -11.9962,9.70569 -11.9962,9.70569l-2.74148,0.49841l-1.99375,-1.05923l-0.68532,-2.92837c0,0 1.41185,-8.78181 -0.29196,-13.95635c-1.70382,-5.17455 -8.11933,-11.58889 -8.11933,-11.58889z" data-paper-data="{&quot;origPos&quot;:null}" id="ID0.3117544511333108" fill="url(#color-2)" stroke-width="1.27408" stroke-linecap="round"/><text transform="translate(228.6202,185.15404) rotate(-5.73005) scale(0.45865,0.45865)" font-size="22" xml:space="preserve" data-paper-data="{&quot;origPos&quot;:null,&quot;origRot&quot;:-2.82164}" id="ID0.5449277525767684" fill="#4b3002" fill-rule="nonzero" stroke="none" stroke-width="1" stroke-linecap="butt" stroke-linejoin="miter" stroke-miterlimit="10" stroke-dasharray="" stroke-dashoffset="0" font-family="Sans Serif" font-weight="400" text-anchor="start" style="mix-blend-mode: normal"><tspan x="0" dy="0">NEW!</tspan></text></g></g></svg>