<svg version="1.1" xmlns="http://www.w3.org/2000/svg" xmlns:xlink="http://www.w3.org/1999/xlink" width="190.04251" height="152.05633" viewBox="0,0,190.04251,152.05633"><defs><radialGradient cx="312.69941" cy="162.0995" r="49.5956" gradientUnits="userSpaceOnUse" id="color-1"><stop offset="0" stop-color="#ffe954"/><stop offset="1" stop-color="#ff9441"/></radialGradient><radialGradient cx="312.29921" cy="167.9477" r="42.123" gradientUnits="userSpaceOnUse" id="color-2"><stop offset="0" stop-color="#ff9441" stop-opacity="0"/><stop offset="1" stop-color="#ff9441"/></radialGradient><radialGradient cx="312.19921" cy="167.8477" r="42.123" gradientUnits="userSpaceOnUse" id="color-3"><stop offset="0" stop-color="#ff9441" stop-opacity="0"/><stop offset="1" stop-color="#ff9441"/></radialGradient><radialGradient cx="334.14981" cy="174.8492" r="15.9539" gradientUnits="userSpaceOnUse" id="color-4"><stop offset="0" stop-color="#ffff41"/><stop offset="1" stop-color="#ffd833"/></radialGradient><radialGradient cx="307.84981" cy="174.5992" r="15.9539" gradientUnits="userSpaceOnUse" id="color-5"><stop offset="0" stop-color="#ffff41"/><stop offset="1" stop-color="#ffd833"/></radialGradient></defs><g transform="translate(-220.2447,-159.25)"><g data-paper-data="{&quot;isPaintingLayer&quot;:true}" fill-rule="nonzero" stroke="none" stroke-width="1" stroke-linecap="butt" stroke-linejoin="miter" stroke-miterlimit="10" stroke-dasharray="" stroke-dashoffset="0" style="mix-blend-mode: normal"><g><path d="M320.35001,159.25c5.656,0 10.781,2.297 14.492,6.008c3.711,3.711 6.008,8.836 6.008,14.492c0,5.656 -2.297,10.781 -6.008,14.492c-3.711,3.711 -8.836,6.008 -14.492,6.008c-5.656,0 -10.781,-2.297 -14.492,-6.008c-3.711,-3.711 -6.008,-8.836 -6.008,-14.492c0,-5.656 2.297,-10.781 6.008,-14.492c3.711,-3.711 8.836,-6.008 14.492,-6.008z" fill="url(#color-1)"/><path d="M320.45001,159.35c5.656,0 10.781,2.297 14.492,6.008c3.711,3.711 6.008,8.836 6.008,14.492c0,5.656 -2.297,10.781 -6.008,14.492c-3.711,3.711 -8.836,6.008 -14.492,6.008c-5.656,0 -10.781,-2.297 -14.492,-6.008c-3.711,-3.711 -6.008,-8.836 -6.008,-14.492c0,-5.656 2.297,-10.781 6.008,-14.492c3.711,-3.711 8.836,-6.008 14.492,-6.008z" fill="url(#color-2)"/><path d="M320.35001,159.25c5.656,0 10.781,2.297 14.492,6.008c3.711,3.711 6.008,8.836 6.008,14.492c0,5.656 -2.297,10.781 -6.008,14.492c-3.711,3.711 -8.836,6.008 -14.492,6.008c-5.656,0 -10.781,-2.297 -14.492,-6.008c-3.711,-3.711 -6.008,-8.836 -6.008,-14.492c0,-5.656 2.297,-10.781 6.008,-14.492c3.711,-3.711 8.836,-6.008 14.492,-6.008z" fill="url(#color-3)"/></g><path d="M333.70001,171.65c1.738,0 3.313,0.964 4.454,2.52c1.14,1.557 1.846,3.707 1.846,6.08c0,2.373 -0.706,4.523 -1.846,6.08c-1.141,1.556 -2.716,2.52 -4.454,2.52c-1.738,0 -3.313,-0.964 -4.454,-2.52c-1.14,-1.557 -1.846,-3.707 -1.846,-6.08c0,-2.373 0.706,-4.523 1.846,-6.08c1.141,-1.556 2.716,-2.52 4.454,-2.52z" fill="url(#color-4)"/><path d="M307.40001,171.4c1.738,0 3.313,0.964 4.454,2.52c1.14,1.557 1.846,3.707 1.846,6.08c0,2.373 -0.706,4.523 -1.846,6.08c-1.141,1.556 -2.716,2.52 -4.454,2.52c-1.738,0 -3.313,-0.964 -4.454,-2.52c-1.14,-1.557 -1.846,-3.707 -1.846,-6.08c0,-2.373 0.706,-4.523 1.846,-6.08c1.141,-1.556 2.716,-2.52 4.454,-2.52z" fill="url(#color-5)"/><g font-family="Sans Serif" font-weight="400" font-size="22" text-anchor="start"><text transform="translate(222.57626,301.57941) scale(1.49645,1.49645)" font-size="22" xml:space="preserve" data-paper-data="{&quot;origPos&quot;:null}" fill="#b2b2b2" fill-rule="nonzero" stroke="none" stroke-width="1" stroke-linecap="butt" stroke-linejoin="miter" stroke-miterlimit="10" stroke-dasharray="" stroke-dashoffset="0" font-family="Sans Serif" font-weight="400" text-anchor="start" style="mix-blend-mode: normal"><tspan x="0" dy="0">Click Or Tap</tspan></text><text transform="translate(220.99292,298.91235) scale(1.49645,1.49645)" font-size="22" xml:space="preserve" fill="#ffffff" fill-rule="nonzero" stroke="none" stroke-width="1" stroke-linecap="butt" stroke-linejoin="miter" stroke-miterlimit="10" stroke-dasharray="" stroke-dashoffset="0" font-family="Sans Serif" font-weight="400" text-anchor="start" style="mix-blend-mode: normal"><tspan x="0" dy="0">Click Or Tap</tspan></text></g></g></g></svg>