<svg version="1.1" xmlns="http://www.w3.org/2000/svg" xmlns:xlink="http://www.w3.org/1999/xlink" width="236.87446" height="42.44006" viewBox="0,0,236.87446,42.44006"><g transform="translate(-121.92369,-158.74388)"><g data-paper-data="{&quot;isPaintingLayer&quot;:true}" fill="#ffffff" fill-rule="nonzero" stroke="none" stroke-width="none" stroke-linecap="butt" stroke-linejoin="miter" stroke-miterlimit="10" stroke-dasharray="" stroke-dashoffset="0" font-family="none" font-weight="none" font-size="none" text-anchor="none" style="mix-blend-mode: normal"><text transform="translate(122.28459,196.49231) scale(0.7218,0.72179)" font-size="22" xml:space="preserve" data-paper-data="{&quot;origPos&quot;:null}" id="ID0.08681221166625619" fill="#ffffff" fill-rule="nonzero" stroke="none" stroke-width="1" stroke-linecap="butt" stroke-linejoin="miter" stroke-miterlimit="10" stroke-dasharray="" stroke-dashoffset="0" font-family="Sans Serif" font-weight="400" text-anchor="start" style="mix-blend-mode: normal"><tspan x="0" dy="0">Complete Internet Exploration.</tspan></text><g data-paper-data="{&quot;origPos&quot;:null}" id="text120" stroke-width="0.26458"><path d="M174.81085,159.95968l0.08509,0.15804l0.6322,9.2399h0.07294l3.31907,-3.47713c1.95335,2.63419 2.95433,3.95127 3.00297,3.95127c0.84294,-4.12553 1.36976,-6.60167 1.5805,-7.4284c3.58249,0.68894 5.37374,1.1104 5.37374,1.2644c-2.15599,6.84888 -3.39202,10.72315 -3.70813,11.62283c-0.76189,0.04864 -2.44776,0.20668 -5.05764,0.47416c-1.15904,-2.77198 -1.73857,-4.19442 -1.73857,-4.26738c-0.09724,0.0081 -0.70513,1.21982 -1.82365,3.63517h-0.07293c-3.47711,-0.23505 -5.21568,-0.44579 -5.21568,-0.6322c-1.95335,-8.6158 -2.93002,-13.04123 -2.93002,-13.27629v-0.15806c0,-0.1621 2.16003,-0.53088 6.48008,-1.10636z" id="path328"/><path d="M192.06272,163.61916c4.81449,0.66463 7.22173,1.07393 7.22173,1.22793c1.89661,1.62915 2.84491,2.50044 2.84491,2.61392c-0.76999,2.40723 -1.20767,3.87022 -1.31303,4.38895c0.76999,1.7102 1.20767,2.73145 1.31303,3.06375c0,0.09727 -1.2563,0.35663 -3.7689,0.77809c-0.03241,-0.13779 -0.26342,-0.44579 -0.693,-0.92399c-3.46902,0.66463 -5.33725,0.99694 -5.60473,0.99694l-1.84798,-4.99684l4.07287,-2.15193c0.65652,0.10536 1.6818,0.15804 3.0759,0.15804c0,-0.17831 0.02431,-0.71731 0.07294,-1.617c-0.23505,0 -2.33429,0.15401 -6.29773,0.46201l-0.07293,-0.15804c0.55115,-2.56124 0.88346,-3.84186 0.99692,-3.84186zM194.59155,170.76793c0,0.08915 0.25937,1.03745 0.77809,2.84491h0.07293c1.02125,-0.66463 1.53189,-1.1023 1.53189,-1.31304l0.15802,-1.30089c-0.19452,0 -1.04151,-0.07699 -2.54097,-0.23099z" id="path330"/><path d="M204.97428,158.74389l4.778,0.75378c-0.59979,2.29376 -0.99289,3.44065 -1.17932,3.44065c-2.5126,-0.17022 -3.7689,-0.33637 -3.7689,-0.49847v-3.52576c0.02431,-0.11348 0.08103,-0.17021 0.17018,-0.17021zM203.63691,164.531h0.07294c3.69595,0.67273 5.54393,1.06583 5.54393,1.17929c-1.06178,6.01404 -1.70614,9.36554 -1.93309,10.05448h-3.85402c-0.11346,0 -0.17018,-0.05674 -0.17018,-0.17021z" id="path332"/><path d="M213.78865,159.94752l5.34941,0.94831l-0.51063,4.06069c1.06178,-0.05674 1.83988,-0.08511 2.3343,-0.08511h0.77809l0.17018,-0.0851l0.08509,0.17021c-0.17022,2.46397 -0.3161,3.84997 -0.43768,4.15796l-0.17017,-0.09726c-0.12155,0 -1.21577,-0.05674 -3.28261,-0.17022c-0.11346,1.90472 -0.19855,4.18227 -0.2553,6.83267l-0.17018,0.0851c-2.60988,-0.17022 -4.16607,-0.3161 -4.66858,-0.43767l0.08509,-0.34041c0,-0.70516 0.11348,-2.89355 0.34041,-6.56519c-2.1884,-0.12158 -3.28259,-0.26748 -3.28259,-0.43767c0.11346,-2.70712 0.25934,-4.0607 0.43767,-4.0607l3.1975,0.60789v-1.04557c0,-0.85104 -0.03241,-2.00199 -0.09724,-3.4528c0.06484,0 0.09724,-0.02837 0.09724,-0.08511z" id="path334"/><path d="M234.51767,159.94752c0.42958,0.04864 1.99387,0.40931 4.69289,1.08203l0.07294,0.14588c-0.39715,2.21271 -0.63627,3.31908 -0.71731,3.31908h-0.07293l-1.9574,-1.00909c0,0.22694 -0.07295,1.2401 -0.21884,3.03944l2.67471,-0.65651c0.08103,0.24315 0.15398,1.3252 0.21884,3.24612c-0.25936,0.09727 -1.15094,0.24315 -2.67471,0.43768c0.34041,1.45893 0.7011,3.24208 1.08203,5.34943c-1.24819,0.28367 -2.73955,0.5714 -4.47406,0.86319l-0.07294,-0.14588c-0.22695,-3.75271 -0.41742,-5.62904 -0.57142,-5.62904c-1.57241,0.38094 -2.41535,0.59574 -2.52881,0.64436c-0.09724,-0.4701 -0.26746,-1.74666 -0.51063,-3.8297l0.14587,-0.07295h2.60176c-0.14588,-1.19957 -0.36473,-2.76386 -0.65652,-4.69289z" id="path336"/><path d="M245.30162,163.63132c3.07996,0.82673 4.71314,1.32924 4.89957,1.50757c1.69398,2.39914 2.64633,3.78106 2.85707,4.14581c-1.09421,3.46902 -1.72235,5.20352 -1.88445,5.20352c-3.64733,0.85104 -5.55611,1.27656 -5.72631,1.27656c-3.01512,-1.75882 -4.61996,-2.73955 -4.81447,-2.94217c-0.10534,-3.27449 -0.15802,-5.08195 -0.15802,-5.42236c-0.04862,-0.09727 -0.07293,-0.1702 -0.07293,-0.21884c3.11239,-2.36671 4.72126,-3.55006 4.82664,-3.55006zM245.07058,168.08106c-0.04862,0.3242 -0.12157,1.50351 -0.21884,3.53791l2.71118,0.60789c0.64842,-2.02629 0.97264,-3.10833 0.97264,-3.24612c-2.15597,-0.64842 -3.31098,-0.97262 -3.46498,-0.97262z" id="path338"/><path d="M262.89388,163.61916c1.60482,0.89968 2.5896,1.48324 2.95434,1.75072c-1.31304,2.73145 -2.01819,4.12149 -2.11546,4.17011h-0.08509l-1.73854,-1.51973l-2.05467,2.5045l0.23099,4.55917c-0.10534,0.09727 -1.44676,0.32421 -4.02423,0.68084c-0.09724,-0.69704 -0.72945,-4.11337 -1.89661,-10.249c0,-0.09727 1.69398,-0.34851 5.08195,-0.75378c0.05672,0.06484 0.21072,0.82267 0.46199,2.27351c2.02629,-2.27756 3.08808,-3.41634 3.18534,-3.41634z" id="path340"/><path d="M286.49213,163.61916c1.97765,0.81863 3.68379,1.58862 5.11841,2.30997c-0.37284,4.82259 -0.61192,7.46081 -0.71731,7.91471c-2.38293,0.59168 -3.71622,0.88753 -3.99992,0.88753c0,-1.05367 -0.08105,-3.13266 -0.24315,-6.23694c-0.89968,0.08915 -1.34951,0.16616 -1.34951,0.231c0,0.308 0.05268,2.06682 0.15802,5.27647c0.04862,0 0.07293,0.02837 0.07293,0.08511c0,0.09727 -1.25225,0.36472 -3.75674,0.80242c-0.10534,-0.12969 -0.42551,-2.10329 -0.96046,-5.92083c-1.01316,0.25936 -1.51972,0.44579 -1.51972,0.55925l0.48631,4.96037c-0.09724,0.10536 -1.43054,0.53088 -3.99992,1.27656c-1.49134,-5.27647 -2.42345,-8.81844 -2.79629,-10.62588c2.8125,-0.69704 4.38491,-1.04557 4.71722,-1.04557c0.37284,1.47514 0.55925,2.32619 0.55925,2.55314h0.08509c1.36978,-1.2644 2.32619,-2.11544 2.86924,-2.55314h0.08509l2.55312,1.83583h0.08509c1.59672,-1.53998 2.44776,-2.30997 2.55314,-2.30997z" id="path342"/><path d="M299.71977,163.63132c3.67164,1.88851 5.70605,2.99081 6.1032,3.30691c-0.52684,2.46397 -0.83888,3.73243 -0.93615,3.80539h-7.68371v0.13373l2.15191,2.66256l3.37987,-1.72641c0.33231,0.57546 0.81052,1.5805 1.43462,3.01512c-0.29179,0.09727 -2.41939,0.4093 -6.38284,0.93614c-3.28259,-2.16408 -4.93604,-3.2907 -4.96035,-3.37987c0.52682,-4.2066 0.83888,-6.30988 0.93615,-6.30988c3.42849,-1.45893 5.41425,-2.27351 5.9573,-2.44372zM298.9295,166.57351c-0.06484,0.1621 -0.49439,0.80646 -1.28871,1.9331c0,0.34041 0.4782,0.51063 1.43462,0.51063c0,0.04864 0.693,0.16615 2.07897,0.35256c0.38094,-0.52684 0.57141,-0.83482 0.57141,-0.92399c-0.12155,-0.72137 -0.38498,-1.08206 -0.79024,-1.08206z" id="path344"/><path d="M312.27875,160.39735l0.04862,0.09727c-0.81052,7.15687 -1.26442,10.91767 -1.36168,11.28242c-1.71829,-0.1621 -2.80438,-0.27558 -3.25827,-0.34041v-0.04864l-0.77811,-10.1639c0.19452,-0.06484 1.97768,-0.34041 5.34943,-0.82673zM307.46426,172.02018c0.05672,0.03243 1.32112,0.12969 3.79321,0.29179l0.04862,0.09727c-0.38096,2.23704 -0.6241,3.35553 -0.72946,3.35553h-2.82062c-0.09724,0 -0.22691,-1.11851 -0.38903,-3.35553c-0.03241,0 -0.04862,-0.09727 -0.04862,-0.29179c0.09724,-0.03243 0.14587,-0.06486 0.14587,-0.09727z" id="path346"/></g></g></g></svg>