<svg version="1.1" xmlns="http://www.w3.org/2000/svg" xmlns:xlink="http://www.w3.org/1999/xlink" width="437" height="90.79587" viewBox="0,0,437,90.79587"><defs><linearGradient x1="240" y1="135.60206" x2="240" y2="224.39795" gradientUnits="userSpaceOnUse" id="color-1"><stop offset="0" stop-color="#ffffff"/><stop offset="1" stop-color="#d8d8d8"/></linearGradient><linearGradient x1="240" y1="135.60208" x2="240" y2="224.39795" gradientUnits="userSpaceOnUse" id="color-2"><stop offset="0" stop-color="#343434"/><stop offset="1" stop-color="#090909"/></linearGradient><radialGradient cx="443.8065" cy="206.54466" r="17.9081" gradientUnits="userSpaceOnUse" id="color-3"><stop offset="0" stop-color="#ffffff"/><stop offset="1" stop-color="#e5e5e5"/></radialGradient></defs><g transform="translate(-21.5,-134.60208)"><g data-paper-data="{&quot;isPaintingLayer&quot;:true}" fill-rule="nonzero" stroke-linejoin="miter" stroke-miterlimit="10" stroke-dasharray="" stroke-dashoffset="0" style="mix-blend-mode: normal"><path d="M22.5,224.39795v-88.79587h435v88.79587z" data-paper-data="{&quot;origPos&quot;:null}" fill="url(#color-1)" stroke="url(#color-2)" stroke-width="2" stroke-linecap="butt"/><g data-paper-data="{&quot;origPos&quot;:null}"><path d="M444.3058,202.09868c2.5136,0 4.7909,1.0212 6.4406,2.6702c1.6489,1.6496 2.6702,3.9269 2.6702,6.4405c0,2.5136 -1.0213,4.791 -2.6702,6.4406c-1.6497,1.649 -3.927,2.6702 -6.4406,2.6702c-2.5136,0 -4.7909,-1.0212 -6.4406,-2.6702c-1.6489,-1.6496 -2.6701,-3.927 -2.6701,-6.4406c0,-2.5136 1.0212,-4.7909 2.6701,-6.4405c1.6497,-1.649 3.927,-2.6702 6.4406,-2.6702z" fill="url(#color-3)" stroke="#000000" stroke-width="2.0785" stroke-linecap="butt"/><path d="M441.2734,206.54886l5.6119,0.4503l1.7321,3.187l-3.6374,2.9446l3.3603,-0.5197l0.7967,3.4642l-7.4479,-0.0693l-1.9053,-2.4249l4.6766,-3.3256l-4.5727,-0.3464z" fill="#000000" stroke="none" stroke-width="0.69283" stroke-linecap="round"/></g><g data-paper-data="{&quot;origPos&quot;:null}" stroke="none" stroke-width="1" stroke-linecap="butt"><path d="M35.123,149.20506c2.449,0.547 3.81,0.86 4.083,0.939v0.063c-0.085,2.194 -0.148,3.47 -0.191,3.829c0.14,0 0.769,0.145 1.887,0.437c1.002,-3.093 1.546,-4.639 1.631,-4.639c1.677,0.753 2.744,1.255 3.2,1.504v0.063c-1.842,4.284 -2.887,6.648 -3.136,7.092c-0.462,0.382 -2.072,1.847 -4.831,4.393h-0.063l-5.086,-2.507c0.468,-0.802 1.033,-1.722 1.695,-2.761c0.03,0 0.826,0.522 2.388,1.567h0.064c0.522,-0.425 1.148,-1.033 1.877,-1.823c0,-0.036 -1.191,-1.206 -3.573,-3.509v-4.521z" data-paper-data="{&quot;origPos&quot;:null}" fill="#000000"/><path d="M50.399,151.96708c2.309,0.619 3.534,0.996 3.673,1.13c1.27,1.798 1.984,2.834 2.142,3.108c-0.82,2.601 -1.291,3.901 -1.412,3.901c-2.735,0.638 -4.166,0.957 -4.293,0.957c-2.261,-1.319 -3.464,-2.054 -3.61,-2.206c-0.079,-2.455 -0.118,-3.81 -0.118,-4.065c-0.037,-0.073 -0.055,-0.128 -0.055,-0.164c2.333,-1.774 3.539,-2.661 3.618,-2.661zM50.171,155.30207c-0.036,0.244 -0.091,1.128 -0.164,2.653l2.033,0.456c0.486,-1.52 0.729,-2.331 0.729,-2.434c-1.616,-0.486 -2.482,-0.729 -2.598,-0.729z" data-paper-data="{&quot;origPos&quot;:null}" fill="#000000"/><path d="M61.966,151.95707l0.063,0.119l-1.23,6.526h0.064l3.135,-0.921v-3.691c0.012,-0.085 0.052,-0.128 0.119,-0.128c2.357,0.164 3.67,0.246 3.937,0.246c0,0.043 0.021,0.064 0.064,0.064c0,1.039 -0.328,3.193 -0.984,6.463c0,0.188 -0.942,0.331 -2.826,0.428c-0.097,-0.116 -0.179,-0.362 -0.246,-0.738c-2.412,0.492 -3.789,0.738 -4.129,0.738c-1.926,-1.434 -2.889,-2.172 -2.889,-2.215c0.328,-4.308 0.534,-6.544 0.619,-6.708h0.055c1.538,-0.043 2.953,-0.104 4.248,-0.183z" data-paper-data="{&quot;origPos&quot;:null}" fill="#000000"/><path d="M80.468,151.98508c2.583,0.067 3.874,0.179 3.874,0.337c0.443,6.727 0.665,10.306 0.665,10.737c-1.956,1.246 -3.357,2.09 -4.202,2.534c-2.977,-0.936 -4.466,-1.471 -4.466,-1.604c0.96,-1.404 1.516,-2.115 1.668,-2.133c1.623,0.802 2.555,1.203 2.798,1.203l0.866,-1.139c-0.231,-0.942 -0.386,-1.498 -0.465,-1.668c-0.133,0 -1.78,0.267 -4.94,0.802c-1.731,-2.814 -2.597,-4.257 -2.597,-4.33c1.494,-2.388 2.406,-3.788 2.734,-4.201h0.064c0.176,0 1.489,0.288 3.937,0.865v-0.2c0,-0.237 -0.021,-0.617 -0.063,-1.139zM77.479,155.91306c0.085,0.189 0.352,1.191 0.802,3.008c0.565,-0.182 1.431,-0.517 2.597,-1.003c-0.224,-1.093 -0.337,-1.716 -0.337,-1.868l-0.328,-0.064h-0.401c-0.51,0 -1.288,-0.024 -2.333,-0.073z" data-paper-data="{&quot;origPos&quot;:null}" fill="#000000"/><path d="M89.665,151.96708c2.309,0.619 3.533,0.996 3.673,1.13c1.27,1.798 1.984,2.834 2.142,3.108c-0.82,2.601 -1.291,3.901 -1.413,3.901c-2.734,0.638 -4.165,0.957 -4.293,0.957c-2.26,-1.319 -3.463,-2.054 -3.609,-2.206c-0.079,-2.455 -0.119,-3.81 -0.119,-4.065c-0.036,-0.073 -0.054,-0.128 -0.054,-0.164c2.333,-1.774 3.539,-2.661 3.618,-2.661zM89.437,155.30207c-0.037,0.244 -0.091,1.128 -0.164,2.653l2.032,0.456c0.487,-1.52 0.73,-2.331 0.73,-2.434c-1.617,-0.486 -2.483,-0.729 -2.598,-0.729z" data-paper-data="{&quot;origPos&quot;:null}" fill="#000000"/><path d="M99.035,149.20506l4.01,0.711l-0.383,3.044c0.796,-0.043 1.38,-0.064 1.75,-0.064h0.584l0.127,-0.064l0.064,0.128c-0.128,1.847 -0.237,2.886 -0.328,3.117l-0.128,-0.073c-0.091,0 -0.911,-0.042 -2.461,-0.127c-0.085,1.428 -0.149,3.135 -0.191,5.122l-0.128,0.064c-1.956,-0.128 -3.123,-0.237 -3.5,-0.328l0.064,-0.255c0,-0.529 0.085,-2.17 0.255,-4.922c-1.64,-0.091 -2.461,-0.201 -2.461,-0.328c0.085,-2.03 0.195,-3.045 0.328,-3.045l2.398,0.456v-0.784c0,-0.638 -0.025,-1.501 -0.073,-2.588c0.048,0 0.073,-0.022 0.073,-0.064z" data-paper-data="{&quot;origPos&quot;:null}" fill="#000000"/><path d="M112.169,151.95707c3.609,0.499 5.414,0.806 5.414,0.921c1.422,1.221 2.133,1.875 2.133,1.96c-0.578,1.804 -0.906,2.901 -0.985,3.29c0.577,1.282 0.906,2.048 0.985,2.297c0,0.073 -0.942,0.267 -2.826,0.583c-0.024,-0.103 -0.197,-0.334 -0.519,-0.693c-2.601,0.499 -4.002,0.748 -4.202,0.748l-1.386,-3.746l3.054,-1.613c0.492,0.079 1.261,0.118 2.306,0.118c0,-0.134 0.018,-0.538 0.054,-1.212c-0.176,0 -1.75,0.115 -4.721,0.346l-0.055,-0.118c0.413,-1.921 0.663,-2.881 0.748,-2.881zM114.065,157.31706c0,0.067 0.194,0.778 0.583,2.133h0.055c0.765,-0.499 1.148,-0.827 1.148,-0.985l0.118,-0.975c-0.145,0 -0.78,-0.058 -1.904,-0.173z" data-paper-data="{&quot;origPos&quot;:null}" fill="#000000"/><path d="M129.477,149.20506l0.064,0.118c0,0.347 0.079,1.687 0.237,4.02c2.175,-0.693 3.394,-1.057 3.655,-1.094l3.281,3.527c-1.379,3.093 -2.13,4.734 -2.251,4.922c-0.383,-0.042 -1.78,-0.103 -4.193,-0.182v0.428c0,0.079 -0.042,0.119 -0.127,0.119h-3.528c-0.127,0 -0.37,-1.823 -0.729,-5.469c-0.079,-0.31 -0.301,-2.136 -0.665,-5.478c2.066,-0.486 3.485,-0.79 4.256,-0.911zM130.088,155.89506l0.237,2.251h1.832l0.665,-2.552c-1.823,0.158 -2.734,0.258 -2.734,0.301z" data-paper-data="{&quot;origPos&quot;:null}" fill="#2b70c2"/><path d="M138.911,148.30207l3.582,0.566c-0.45,1.719 -0.744,2.579 -0.884,2.579c-1.884,-0.128 -2.826,-0.252 -2.826,-0.374v-2.643c0.018,-0.085 0.061,-0.128 0.128,-0.128zM137.908,152.64107h0.055c2.771,0.504 4.156,0.799 4.156,0.884c-0.796,4.509 -1.279,7.021 -1.449,7.538h-2.889c-0.085,0 -0.128,-0.043 -0.128,-0.128z" data-paper-data="{&quot;origPos&quot;:null}" fill="#2b70c2"/><path d="M149.593,151.98508c2.583,0.067 3.874,0.179 3.874,0.337c0.443,6.727 0.665,10.306 0.665,10.737c-1.956,1.246 -3.357,2.09 -4.202,2.534c-2.977,-0.936 -4.466,-1.471 -4.466,-1.604c0.96,-1.404 1.516,-2.115 1.668,-2.133c1.623,0.802 2.555,1.203 2.798,1.203l0.866,-1.139c-0.231,-0.942 -0.386,-1.498 -0.465,-1.668c-0.133,0 -1.78,0.267 -4.94,0.802c-1.731,-2.814 -2.597,-4.257 -2.597,-4.33c1.494,-2.388 2.406,-3.788 2.734,-4.201h0.064c0.176,0 1.489,0.288 3.937,0.865v-0.2c0,-0.237 -0.021,-0.617 -0.063,-1.139zM146.604,155.91306c0.085,0.189 0.352,1.191 0.802,3.008c0.565,-0.182 1.431,-0.517 2.597,-1.003c-0.224,-1.093 -0.337,-1.716 -0.337,-1.868l-0.328,-0.064h-0.401c-0.51,0 -1.288,-0.024 -2.333,-0.073z" data-paper-data="{&quot;origPos&quot;:null}" fill="#2b70c2"/><path d="M167.102,151.95707c1.75,1.118 2.716,1.763 2.899,1.933c-0.632,1.403 -0.994,2.105 -1.085,2.105l-3.318,-1.923h-0.118c0,0.061 -0.143,0.401 -0.428,1.021c3.056,1.647 4.584,2.491 4.584,2.534c-0.857,1.981 -1.34,3.026 -1.449,3.135l-5.186,0.301c-2.018,-1.337 -3.102,-2.042 -3.254,-2.115v-0.054c0,-0.152 0.301,-0.836 0.902,-2.051l4.047,2.105l0.301,-1.203c-2.504,-1.124 -3.992,-1.826 -4.466,-2.105v-0.128c0,-0.231 0.483,-1.255 1.449,-3.072z" data-paper-data="{&quot;origPos&quot;:null}" fill="#2b70c2"/><path d="M173.628,149.20506l4.011,0.711l-0.383,3.044c0.796,-0.043 1.379,-0.064 1.75,-0.064h0.583l0.128,-0.064l0.064,0.128c-0.128,1.847 -0.237,2.886 -0.328,3.117l-0.128,-0.073c-0.091,0 -0.912,-0.042 -2.461,-0.127c-0.085,1.428 -0.149,3.135 -0.191,5.122l-0.128,0.064c-1.957,-0.128 -3.123,-0.237 -3.5,-0.328l0.064,-0.255c0,-0.529 0.085,-2.17 0.255,-4.922c-1.641,-0.091 -2.461,-0.201 -2.461,-0.328c0.085,-2.03 0.195,-3.045 0.328,-3.045l2.397,0.456v-0.784c0,-0.638 -0.024,-1.501 -0.073,-2.588c0.049,0 0.073,-0.022 0.073,-0.064z" data-paper-data="{&quot;origPos&quot;:null}" fill="#2b70c2"/><path d="M182.132,151.95707c3.61,0.499 5.414,0.806 5.414,0.921c1.422,1.221 2.133,1.875 2.133,1.96c-0.577,1.804 -0.905,2.901 -0.984,3.29c0.577,1.282 0.905,2.048 0.984,2.297c0,0.073 -0.942,0.267 -2.825,0.583c-0.025,-0.103 -0.198,-0.334 -0.52,-0.693c-2.601,0.499 -4.001,0.748 -4.202,0.748l-1.385,-3.746l3.053,-1.613c0.492,0.079 1.261,0.118 2.306,0.118c0,-0.134 0.018,-0.538 0.055,-1.212c-0.176,0 -1.75,0.115 -4.721,0.346l-0.055,-0.118c0.413,-1.921 0.662,-2.881 0.747,-2.881zM184.028,157.31706c0,0.067 0.195,0.778 0.583,2.133h0.055c0.766,-0.499 1.149,-0.827 1.149,-0.985l0.118,-0.975c-0.146,0 -0.781,-0.058 -1.905,-0.173z" data-paper-data="{&quot;origPos&quot;:null}" fill="#2b70c2"/><path d="M197.098,151.95707c1.204,0.675 1.942,1.112 2.215,1.313c-0.984,2.048 -1.513,3.09 -1.586,3.126h-0.063l-1.304,-1.139l-1.54,1.878l0.173,3.417c-0.079,0.073 -1.085,0.244 -3.017,0.511c-0.073,-0.523 -0.547,-3.084 -1.422,-7.684c0,-0.073 1.27,-0.261 3.81,-0.565c0.043,0.049 0.158,0.617 0.346,1.705c1.519,-1.708 2.315,-2.562 2.388,-2.562z" data-paper-data="{&quot;origPos&quot;:null}" fill="#2b70c2"/><path d="M204.044,149.54206l0.036,0.073c-0.607,5.365 -0.948,8.185 -1.021,8.458c-1.288,-0.121 -2.102,-0.206 -2.442,-0.255v-0.036l-0.584,-7.62c0.146,-0.049 1.483,-0.255 4.011,-0.62zM200.434,158.25606c0.043,0.024 0.991,0.097 2.844,0.218l0.037,0.073c-0.286,1.677 -0.468,2.516 -0.547,2.516h-2.115c-0.073,0 -0.17,-0.839 -0.292,-2.516c-0.024,0 -0.036,-0.073 -0.036,-0.218c0.073,-0.025 0.109,-0.049 0.109,-0.073z" data-paper-data="{&quot;origPos&quot;:null}" fill="#000000"/></g></g></g></svg>