<svg version="1.1" xmlns="http://www.w3.org/2000/svg" xmlns:xlink="http://www.w3.org/1999/xlink" width="441.55828" height="69.66968" viewBox="0,0,441.55828,69.66968"><defs><linearGradient x1="24.5327" y1="284.2076" x2="24.5327" y2="341.819" gradientUnits="userSpaceOnUse" id="color-1"><stop offset="0" stop-color="#ffffff"/><stop offset="1" stop-color="#ffffff"/></linearGradient><radialGradient cx="433.55778" cy="324.91028" r="18.72681" gradientUnits="userSpaceOnUse" id="color-2"><stop offset="0" stop-color="#ffff00"/><stop offset="1" stop-color="#ff9400"/></radialGradient><radialGradient cx="437.13623" cy="326.02495" r="12.81669" gradientUnits="userSpaceOnUse" id="color-3"><stop offset="0" stop-color="#bda501"/><stop offset="1" stop-color="#c07801"/></radialGradient></defs><g transform="translate(-18.50356,-278.17846)"><g data-paper-data="{&quot;isPaintingLayer&quot;:true}" fill="none" fill-rule="nonzero" stroke="none" stroke-width="none" stroke-linecap="butt" stroke-linejoin="miter" stroke-miterlimit="10" stroke-dasharray="" stroke-dashoffset="0" font-family="none" font-weight="none" font-size="none" text-anchor="none" style="mix-blend-mode: normal"><path d="M24.5327,284.2076h429.5v57.6114h-429.5z" data-paper-data="{&quot;origPos&quot;:null}" id="ID0.3184669064357877" fill="#ffffff" stroke="url(#color-1)" stroke-width="12.05828"/><text transform="translate(25.78827,322.12447) scale(0.7218,0.72179)" font-size="22" xml:space="preserve" data-paper-data="{&quot;origPos&quot;:null}" id="ID0.08681221166625619" fill="#2492d1" fill-rule="nonzero" stroke="none" stroke-width="1" stroke-linecap="butt" stroke-linejoin="miter" stroke-miterlimit="10" stroke-dasharray="" stroke-dashoffset="0" font-family="Sans Serif" font-weight="400" text-anchor="start" style="mix-blend-mode: normal"><tspan x="0" dy="0">Get 10 coins.</tspan></text><g data-paper-data="{&quot;origPos&quot;:null}" id="text12" fill="#2392d1" stroke="none" stroke-width="0.26458"><path d="M35.49204,285.96825c3.07996,0.77809 4.71721,1.2401 4.91173,1.38598c-1.09421,2.61798 -1.68183,3.95937 -1.76288,4.02423c-0.20262,0 -1.51972,-0.46199 -3.95127,-1.38598c-1.41031,1.31304 -2.11545,2.04655 -2.11545,2.20055c-0.10536,2.43154 -0.15804,3.84592 -0.15804,4.24306c1.68589,0.77809 2.68687,1.21578 3.00297,1.31304c1.57241,-0.68085 2.47613,-1.09421 2.71118,-1.2401l-0.43768,-1.39815c-0.29179,0.1621 -1.1712,0.53088 -2.63823,1.10636l-0.07295,-0.1459v-0.59574c0,-0.51063 -0.02431,-1.28872 -0.07295,-2.33429c0.38094,-0.09727 2.60176,-0.34041 6.66245,-0.72946c0.09727,0.50253 0.26746,2.64634 0.51063,6.43146c-0.12969,0.14588 -2.56935,1.12256 -7.31899,2.93002c-4.04448,-1.47514 -6.09508,-2.30591 -6.15183,-2.49232c-1.2644,-4.39301 -1.89661,-6.70704 -1.89661,-6.94209c1.66156,-2.99081 2.61392,-4.60374 2.85709,-4.83879c0.20262,-0.09727 2.17624,-0.60789 5.92083,-1.53189z" id="path873"/><path d="M48.19691,289.63991c3.07996,0.82673 4.71317,1.32924 4.89958,1.50757c1.69398,2.39914 2.64634,3.78106 2.85709,4.1458c-1.09421,3.46902 -1.72235,5.20352 -1.88445,5.20352c-3.64733,0.85104 -5.55611,1.27656 -5.72631,1.27656c-3.01512,-1.75882 -4.61996,-2.73955 -4.81447,-2.94218c-0.10536,-3.27449 -0.15804,-5.08194 -0.15804,-5.42236c-0.04864,-0.09727 -0.07295,-0.17021 -0.07295,-0.21884c3.11239,-2.36671 4.72127,-3.55007 4.82663,-3.55007zM47.96591,294.08966c-0.04864,0.3242 -0.12157,1.50352 -0.21884,3.53791l2.71118,0.60789c0.64842,-2.02629 0.97262,-3.10833 0.97262,-3.24612c-2.15597,-0.64842 -3.31098,-0.97261 -3.46496,-0.97261z" id="path875"/><path d="M57.05994,285.96825c2.48019,0.04862 4.29981,0.07295 5.45885,0.07295c0.10538,0 0.42552,4.97659 0.96046,14.92975c-0.41337,0.10536 -1.85608,0.37284 -4.32817,0.80242c-0.12158,0 -0.52278,-3.04756 -1.20362,-9.14264c-0.05674,-0.14588 -0.35259,-2.36671 -0.88753,-6.66245z" id="path877"/><path d="M72.19636,285.94394h0.07295c3.66354,0.308 5.49531,0.54709 5.49531,0.71731l1.617,14.3097c0,0.10536 -1.617,0.37284 -4.85096,0.80242l-0.07295,-0.15804v-1.30089c-2.78819,0.75378 -4.70101,1.2401 -5.73846,1.45893c-2.46397,-3.48523 -3.75674,-5.34131 -3.87832,-5.56826c1.81556,-3.2988 2.78413,-4.96848 2.9057,-5.009l5.09411,0.24315c-0.10536,-0.6241 -0.32016,-2.45588 -0.64436,-5.49532zM69.93501,294.66106c0.81863,2.5045 1.32926,3.87832 1.53189,4.12149l2.41939,-2.10329c-0.25127,-1.45083 -0.43767,-2.17624 -0.55925,-2.17624h-3.23396c-0.10538,0.01621 -0.15806,0.06889 -0.15806,0.15806z" id="path879"/><path d="M87.53947,289.63991c3.67164,1.88851 5.70606,2.99081 6.10321,3.30691c-0.52684,2.46397 -0.83888,3.73244 -0.93615,3.80539h-7.68371v0.13373l2.15193,2.66256l3.37987,-1.72641c0.33231,0.57546 0.81052,1.5805 1.43462,3.01512c-0.29179,0.09727 -2.41939,0.40931 -6.38284,0.93615c-3.2826,-2.16408 -4.93606,-3.2907 -4.96037,-3.37987c0.52684,-4.2066 0.83888,-6.30989 0.93615,-6.30989c3.42849,-1.45893 5.41426,-2.2735 5.9573,-2.44372zM86.74921,292.58208c-0.06484,0.1621 -0.49441,0.80646 -1.28871,1.9331c0,0.34041 0.4782,0.51063 1.43462,0.51063c0,0.04864 0.693,0.16615 2.07897,0.35256c0.38094,-0.52684 0.57142,-0.83482 0.57142,-0.92399c-0.12158,-0.72137 -0.38499,-1.08203 -0.79026,-1.08203z" id="path881"/><path d="M105.54512,289.62775l4.04854,2.78413c-0.28367,4.61996 -0.48226,7.31899 -0.59574,8.09707c-0.4701,0.05674 -1.90067,0.14185 -4.29169,0.25533l-0.08511,-0.17022l-0.42552,-6.49226l-0.17022,-0.08511c-1.5481,0.33231 -2.61391,0.58359 -3.19749,0.75378c0.1621,2.76386 0.24315,4.76179 0.24315,5.99378c-2.41535,0.67273 -3.73649,1.0091 -3.96343,1.0091c-1.57241,-6.92182 -2.35861,-10.57726 -2.35861,-10.96632c3.42039,-0.44579 5.27647,-0.66867 5.56826,-0.66867v0.08511c0.05674,0.04052 0.14185,0.88347 0.2553,2.52881c3.1367,-2.08304 4.79422,-3.12455 4.97253,-3.12455z" id="path883"/><path d="M126.52943,285.9561c2.91787,1.47514 4.41732,2.21271 4.49837,2.21271c0,0.12969 -0.60789,1.30089 -1.82368,3.5136h-0.08511c-0.09727,0 -1.49539,-0.66057 -4.19442,-1.98172l-1.37382,1.83583c2.32619,1.11852 5.15083,2.54503 8.47397,4.27953c-1.50757,2.68281 -2.57745,4.46596 -3.20965,5.34943l-6.86914,0.60789c-3.1367,-2.11544 -4.79422,-3.20966 -4.97253,-3.28261v-0.0851c0,-0.22694 0.63626,-1.26846 1.90876,-3.12455h0.15804c0.50253,0.29989 2.07898,1.1631 4.72939,2.58961l1.60483,-1.82368c-4.87121,-2.48019 -7.57024,-3.88238 -8.09706,-4.20658v-0.07295c1.5481,-3.01512 2.39102,-4.54295 2.52881,-4.58347c4.02828,-0.81863 6.26936,-1.22794 6.72325,-1.22794z" id="path885"/><path d="M136.94865,285.9561l5.34943,0.94831l-0.51063,4.06069c1.06178,-0.05674 1.83987,-0.08511 2.3343,-0.08511h0.77809l0.17021,-0.0851l0.08511,0.17021c-0.17022,2.46397 -0.3161,3.84995 -0.43767,4.15796l-0.17022,-0.09726c-0.12158,0 -1.21578,-0.05674 -3.2826,-0.17022c-0.11348,1.90472 -0.19858,4.18227 -0.25532,6.83267l-0.17022,0.0851c-2.60986,-0.17022 -4.16605,-0.3161 -4.66858,-0.43767l0.0851,-0.34041c0,-0.70516 0.11348,-2.89355 0.34041,-6.56519c-2.1884,-0.12158 -3.2826,-0.26748 -3.2826,-0.43767c0.11348,-2.70712 0.25936,-4.0607 0.43767,-4.0607l3.1975,0.60789v-1.04557c0,-0.85104 -0.03243,-2.00199 -0.09727,-3.4528c0.06484,0 0.09727,-0.02837 0.09727,-0.08511z" id="path887"/><path d="M148.29184,289.62775c4.81447,0.66463 7.22172,1.07394 7.22172,1.22794c1.89661,1.62915 2.84493,2.50044 2.84493,2.61391c-0.76999,2.40723 -1.20766,3.87023 -1.31304,4.38895c0.76999,1.7102 1.20766,2.73145 1.31304,3.06377c0,0.09727 -1.25631,0.35663 -3.76891,0.77809c-0.03241,-0.13779 -0.26342,-0.44579 -0.693,-0.92399c-3.46902,0.66463 -5.33727,0.99695 -5.60473,0.99695l-1.84799,-4.99684l4.07285,-2.15193c0.65652,0.10536 1.68183,0.15806 3.07592,0.15806c0,-0.17831 0.02431,-0.71731 0.07295,-1.617c-0.23505,0 -2.33429,0.15401 -6.29773,0.46199l-0.07295,-0.15805c0.55115,-2.56124 0.88347,-3.84185 0.99695,-3.84185zM150.82065,296.77653c0,0.08915 0.25937,1.03745 0.77811,2.84491h0.07295c1.02125,-0.66463 1.53188,-1.1023 1.53188,-1.31304l0.15806,-1.30087c-0.19452,0 -1.04151,-0.07699 -2.54098,-0.23099z" id="path889"/><path d="M168.25489,289.62775c1.60482,0.89968 2.58961,1.48324 2.95433,1.75072c-1.31304,2.73145 -2.01818,4.12149 -2.11545,4.17011h-0.08511l-1.73856,-1.51973l-2.05467,2.5045l0.23099,4.55917c-0.10536,0.09727 -1.44678,0.3242 -4.02423,0.68085c-0.09727,-0.69704 -0.72946,-4.11338 -1.89661,-10.24901c0,-0.09727 1.69398,-0.34853 5.08195,-0.75378c0.05674,0.06484 0.21074,0.82267 0.46199,2.27351c2.02629,-2.27756 3.08808,-3.41634 3.18534,-3.41634z" id="path891"/><path d="M175.80487,285.9561l5.34941,0.94831l-0.51063,4.06069c1.06178,-0.05674 1.83987,-0.08511 2.3343,-0.08511h0.77809l0.17021,-0.0851l0.08511,0.17021c-0.17022,2.46397 -0.3161,3.84995 -0.43767,4.15796l-0.17022,-0.09726c-0.12158,0 -1.21578,-0.05674 -3.2826,-0.17022c-0.11348,1.90472 -0.19859,4.18227 -0.2553,6.83267l-0.17022,0.0851c-2.60986,-0.17022 -4.16605,-0.3161 -4.66858,-0.43767l0.08511,-0.34041c0,-0.70516 0.11347,-2.89355 0.34041,-6.56519c-2.1884,-0.12158 -3.2826,-0.26748 -3.2826,-0.43767c0.11348,-2.70712 0.25936,-4.0607 0.43767,-4.0607l3.1975,0.60789v-1.04557c0,-0.85104 -0.03243,-2.00199 -0.09727,-3.4528c0.06484,0 0.09727,-0.02837 0.09727,-0.08511z" id="path893"/></g><g stroke="none"><text transform="translate(283,338.98128) scale(0.60677,0.60677)" font-size="40" xml:space="preserve" data-paper-data="{&quot;origPos&quot;:null}" fill="#2392d1" fill-rule="nonzero" stroke="none" stroke-width="1" stroke-linecap="butt" stroke-linejoin="miter" stroke-miterlimit="10" stroke-dasharray="" stroke-dashoffset="0" font-family="Sans Serif" font-weight="normal" text-anchor="start" style="mix-blend-mode: normal"><tspan x="0" dy="0">Reward:   +5</tspan></text><path d="M438.22633,321.71811c2.42757,0 4.62707,0.98611 6.21986,2.57891c1.5928,1.59273 2.57884,3.79221 2.57884,6.21979c0,2.4275 -0.98603,4.62708 -2.57884,6.21981c-1.5928,1.5928 -3.79229,2.5789 -6.21986,2.5789c-2.4275,0 -4.62699,-0.9861 -6.2198,-2.5789c-1.5928,-1.59273 -2.57891,-3.79231 -2.57891,-6.21981c0,-2.42757 0.98611,-4.62706 2.57891,-6.21979c1.5928,-1.5928 3.7923,-2.57891 6.2198,-2.57891z" data-paper-data="{&quot;origPos&quot;:null}" id="ID0.7142658131197095" fill="url(#color-2)" stroke-width="0.48028"/><path d="M436.38196,323.73549h3.47092v13.31086h-3.47092z" data-paper-data="{&quot;origPos&quot;:null}" id="ID0.06001657713204622" fill="url(#color-3)" stroke-width="0.59798"/></g></g></g></svg>