<svg version="1.1" xmlns="http://www.w3.org/2000/svg" xmlns:xlink="http://www.w3.org/1999/xlink" width="109.05324" height="199.94938" viewBox="0,0,109.05324,199.94938"><defs><radialGradient cx="237.79999" cy="186.86802" r="88.73988" gradientUnits="userSpaceOnUse" id="color-1"><stop offset="0" stop-color="#c93232"/><stop offset="1" stop-color="#c93232" stop-opacity="0"/></radialGradient><linearGradient x1="184.21897" y1="181.17766" x2="184.21897" y2="364.05742" gradientUnits="userSpaceOnUse" id="color-2"><stop offset="0" stop-color="#00ffff"/><stop offset="1" stop-color="#00ffff" stop-opacity="0"/></linearGradient><radialGradient cx="254.45898" cy="183.88255" r="26.89641" gradientUnits="userSpaceOnUse" id="color-3"><stop offset="0" stop-color="#c93232"/><stop offset="1" stop-color="#c93232" stop-opacity="0"/></radialGradient><linearGradient x1="238.21896" y1="182.17765" x2="238.21896" y2="236.97067" gradientUnits="userSpaceOnUse" id="color-4"><stop offset="0" stop-color="#00ffff"/><stop offset="1" stop-color="#00ffff" stop-opacity="0"/></linearGradient><radialGradient cx="236.45898" cy="177.88255" r="26.89641" gradientUnits="userSpaceOnUse" id="color-5"><stop offset="0" stop-color="#c93232"/><stop offset="1" stop-color="#c93232" stop-opacity="0"/></radialGradient><linearGradient x1="220.21897" y1="176.17765" x2="220.21897" y2="230.97067" gradientUnits="userSpaceOnUse" id="color-6"><stop offset="0" stop-color="#00ffff"/><stop offset="1" stop-color="#00ffff" stop-opacity="0"/></linearGradient><radialGradient cx="220.45898" cy="183.88255" r="26.89641" gradientUnits="userSpaceOnUse" id="color-7"><stop offset="0" stop-color="#c93232"/><stop offset="1" stop-color="#c93232" stop-opacity="0"/></radialGradient><linearGradient x1="204.21897" y1="182.17765" x2="204.21897" y2="236.97067" gradientUnits="userSpaceOnUse" id="color-8"><stop offset="0" stop-color="#00ffff"/><stop offset="1" stop-color="#00ffff" stop-opacity="0"/></linearGradient><radialGradient cx="237.5625" cy="185.43733" r="67.41762" gradientUnits="userSpaceOnUse" id="color-9"><stop offset="0" stop-color="#c96132"/><stop offset="1" stop-color="#c96132" stop-opacity="0"/></radialGradient><linearGradient x1="196.85698" y1="178.90907" x2="197.03754" y2="364.85888" gradientUnits="userSpaceOnUse" id="color-10"><stop offset="0" stop-color="#00ffff"/><stop offset="1" stop-color="#00ffff" stop-opacity="0"/></linearGradient></defs><g transform="translate(-184.21897,-165.605)"><g data-paper-data="{&quot;isPaintingLayer&quot;:true}" fill="none" fill-rule="nonzero" stroke="none" stroke-width="none" stroke-linecap="none" stroke-linejoin="miter" stroke-miterlimit="10" stroke-dasharray="" stroke-dashoffset="0" font-family="none" font-weight="none" font-size="none" text-anchor="none" style="mix-blend-mode: normal"><g id="ID0.08441779064014554" stroke-linecap="butt"><path d="M238.0348,165.605c3.0949,0 5.8996,0.4835 7.9301,1.2645c2.0309,0.7811 3.2879,1.8596 3.2879,3.0501c0,1.1905 -1.257,2.269 -3.2879,3.05c-2.0305,0.7811 -4.8352,1.2646 -7.9301,1.2646c-3.0949,0 -5.8996,-0.4835 -7.9301,-1.2646c-2.0309,-0.781 -3.2879,-1.8595 -3.2879,-3.05c0,-1.1905 1.257,-2.269 3.2879,-3.0501c2.0305,-0.781 4.8352,-1.2645 7.9301,-1.2645z" id="ID0.806805937550962" fill="#7f7f7f" stroke="none" stroke-width="0.31379"/><path d="M237.9288,171.3575c7.8347,0 14.9342,0.9072 20.0751,2.3729c5.1408,1.4657 8.3229,3.4899 8.3229,5.7237c0,2.2338 -3.1821,4.2579 -8.3229,5.7237c-5.1409,1.4657 -12.2404,2.3729 -20.0751,2.3729c-7.8347,0 -14.9343,-0.9072 -20.0751,-2.3729c-5.1408,-1.4658 -8.323,-3.4899 -8.323,-5.7237c0,-2.2338 3.1822,-4.258 8.323,-5.7237c5.1408,-1.4657 12.2404,-2.3729 20.0751,-2.3729z" id="ID0.6761370436288416" fill="#666666" stroke="#b2b2b2" stroke-width="4.05764"/><path d="M236.6158,170.9756c1.6233,0 3.094,0.466 4.1593,1.2184c1.065,0.7528 1.7243,1.7921 1.7243,2.9393c0,1.1472 -0.6593,2.1865 -1.7243,2.9393c-1.0653,0.7525 -2.536,1.2184 -4.1593,1.2184c-1.6232,0 -3.094,-0.4659 -4.1593,-1.2184c-1.065,-0.7528 -1.7243,-1.7921 -1.7243,-2.9393c0,-1.1472 0.6593,-2.1865 1.7243,-2.9393c1.0653,-0.7524 2.5361,-1.2184 4.1593,-1.2184z" id="ID0.0684038670733571" fill="#ff0000" stroke="none" stroke-width="0.31379"/><path d="M221.7158,178.8256c1.6233,0 3.094,0.466 4.1593,1.2184c1.065,0.7528 1.7243,1.7921 1.7243,2.9393c0,1.1472 -0.6593,2.1865 -1.7243,2.9393c-1.0653,0.7525 -2.536,1.2184 -4.1593,1.2184c-1.6232,0 -3.094,-0.4659 -4.1593,-1.2184c-1.065,-0.7528 -1.7243,-1.7921 -1.7243,-2.9393c0,-1.1472 0.6593,-2.1865 1.7243,-2.9393c1.0653,-0.7524 2.5361,-1.2184 4.1593,-1.2184z" id="ID0.0684038670733571" fill="#ff0000" stroke="none" stroke-width="0.31379"/><path d="M253.6658,179.1756c1.6233,0 3.094,0.466 4.1593,1.2184c1.065,0.7528 1.7243,1.7921 1.7243,2.9393c0,1.1472 -0.6593,2.1865 -1.7243,2.9393c-1.0653,0.7525 -2.536,1.2184 -4.1593,1.2184c-1.6232,0 -3.094,-0.4659 -4.1593,-1.2184c-1.065,-0.7528 -1.7243,-1.7921 -1.7243,-2.9393c0,-1.1472 0.6593,-2.1865 1.7243,-2.9393c1.0653,-0.7524 2.5361,-1.2184 4.1593,-1.2184z" id="ID0.0684038670733571" fill="#ff0000" stroke="none" stroke-width="0.31379"/></g><path d="M258.5,207.78567c5.376,8.67309 2.998,9.62933 16,32.97364c8.23,27.5299 13.142,56.12628 18,84.49493c1.215,7.09242 0.826,13.79844 0,20.60852c-0.207,1.70227 -1.785,2.94805 -3,4.1217c-4.137,3.996 -6.052,10.52271 -13,11.33469c-27.794,3.24791 -56.303,4.03309 -84,0c-6.924,-1.00775 -9.131,-3.99496 -8,-13.39554c4.524,-37.60127 13.466,-74.69249 23,-111.28602c3.832,-14.70933 9.745,-28.97867 17,-42.24747c2.99,-5.46847 7.68,-15.12356 13.5,-12.88032c10.076,4.01969 14.575,16.73721 20.5,26.27587z" data-paper-data="{&quot;origPos&quot;:null}" id="ID0.014508410822600126" fill="url(#color-1)" stroke="url(#color-2)" stroke-width="0" stroke-linecap="round"/><path d="M260.733,190.14973c1.62943,2.59857 0.90867,2.88507 4.84948,9.87931c2.49445,8.24829 3.98324,16.81612 5.45567,25.31572c0.36826,2.12498 0.25035,4.13418 0,6.17456c-0.06274,0.51002 -0.54102,0.88327 -0.90928,1.23491c-1.25389,1.19725 -1.83432,3.15273 -3.9402,3.39601c-8.42416,0.97311 -17.06503,1.20836 -25.45978,0c-2.09861,-0.30193 -2.76754,-1.19694 -2.42474,-4.01347c1.37119,-11.2658 4.08145,-22.37879 6.97113,-33.34266c1.16145,-4.40709 2.95364,-8.68237 5.15258,-12.65786c0.90625,-1.63842 2.32775,-4.53121 4.09175,-3.8591c3.05396,1.20435 4.41758,5.01467 6.2134,7.87257z" data-paper-data="{&quot;origPos&quot;:null}" id="ID0.014508410822600126" fill="url(#color-3)" stroke="url(#color-4)" stroke-width="0" stroke-linecap="round"/><path d="M242.733,184.14974c1.62943,2.59857 0.90867,2.88507 4.84948,9.87931c2.49446,8.2483 3.98325,16.81612 5.45567,25.31572c0.36826,2.12498 0.25036,4.13418 0,6.17457c-0.06274,0.51002 -0.54102,0.88327 -0.90928,1.23491c-1.25389,1.19725 -1.83432,3.15274 -3.9402,3.39601c-8.42416,0.97311 -17.06503,1.20836 -25.45979,0c-2.09861,-0.30193 -2.76754,-1.19694 -2.42474,-4.01347c1.37119,-11.2658 4.08145,-22.37878 6.97114,-33.34265c1.16145,-4.40709 2.95364,-8.68237 5.15258,-12.65786c0.90625,-1.63842 2.32775,-4.5312 4.09175,-3.8591c3.05396,1.20435 4.41758,5.01467 6.2134,7.87257z" data-paper-data="{&quot;origPos&quot;:null}" id="ID0.014508410822600126" fill="url(#color-5)" stroke="url(#color-6)" stroke-width="0" stroke-linecap="round"/><path d="M226.733,190.14974c1.62942,2.59857 0.90867,2.88507 4.84948,9.87931c2.49445,8.2483 3.98325,16.81612 5.45567,25.31572c0.36826,2.12498 0.25036,4.13418 0,6.17457c-0.06274,0.51002 -0.54102,0.88327 -0.90928,1.23491c-1.25389,1.19725 -1.83432,3.15274 -3.94021,3.39601c-8.42416,0.97311 -17.06502,1.20836 -25.45978,0c-2.09861,-0.30193 -2.76754,-1.19694 -2.42474,-4.01347c1.37119,-11.2658 4.08145,-22.37878 6.97114,-33.34265c1.16145,-4.40709 2.95364,-8.68237 5.15258,-12.65786c0.90625,-1.63842 2.32775,-4.5312 4.09175,-3.8591c3.05396,1.20435 4.41757,5.01467 6.2134,7.87257z" data-paper-data="{&quot;origPos&quot;:null}" id="ID0.014508410822600126" fill="url(#color-7)" stroke="url(#color-8)" stroke-width="0" stroke-linecap="round"/><path d="M253.30679,206.99293c4.09215,8.89318 2.28678,9.83252 12.18609,33.74886c6.27865,28.10607 10.03802,57.25058 13.75615,86.16277c0.92991,7.22831 0.64105,14.04152 0.02035,20.95448c-0.15556,1.72798 -1.35297,2.97282 -2.27472,4.14933c-3.1385,4.00576 -4.58668,10.61551 -9.86355,11.34486c-21.10899,2.91734 -42.76352,3.32072 -63.80602,-1.16383c-5.26044,-1.1206 -6.93981,-4.18855 -6.08999,-13.73126c3.39928,-38.16982 10.15496,-75.7598 17.36081,-112.83554c2.89624,-14.90316 7.37365,-29.33013 12.87141,-42.72115c2.26579,-5.51885 5.81876,-15.27104 10.24182,-12.90951c7.65765,4.22677 11.08763,17.22013 15.59765,27.001z" data-paper-data="{&quot;origPos&quot;:null,&quot;origRot&quot;:0}" id="ID0.014508410822600126" fill="url(#color-9)" stroke="url(#color-10)" stroke-width="0" stroke-linecap="round"/></g></g></svg>