<svg version="1.1" xmlns="http://www.w3.org/2000/svg" xmlns:xlink="http://www.w3.org/1999/xlink" width="327.92156" height="326.99781"><g transform="translate(-76.03922,-16.5011)"><g data-paper-data="{&quot;isPaintingLayer&quot;:true}" fill="none" fill-rule="nonzero" stroke="none" stroke-width="none" stroke-linecap="none" stroke-linejoin="miter" stroke-miterlimit="10" stroke-dasharray="" stroke-dashoffset="0" font-family="none" font-weight="none" font-size="none" text-anchor="none" style="mix-blend-mode: normal"><g data-paper-data="{&quot;origPos&quot;:null}" id="ID0.20286902273073792" fill="#fff346" stroke-width="0.88955" stroke-linecap="round"><path d="M258.60726,37.05684l-34.21156,1.72485l14.08712,-21.34625l4.95916,0.21556l0.79068,4.8155l3.73735,-5.74983l6.10922,-0.21557l-0.93433,7.04357l5.46236,-6.46861l8.91223,2.51554z" id="ID0.07827324094250798"/><path d="M240.27958,17.88453c3.41836,1.87579 5.78733,6.07174 6.25304,9.91848c0.33918,2.79736 -1.59138,5.48111 -4.16008,7.36691c-2.57015,1.88742 -6.59514,2.44378 -10.03499,3.05461c-2.73401,0.48155 -5.42924,0.54781 -8.08568,0.4313c-1.63291,-0.12508 -4.36417,0.42257 -4.67168,-1.1499c-0.79779,-4.08251 -0.07773,-8.74272 2.15615,-12.21845c2.00813,-3.12507 6.10195,-4.39003 9.5591,-5.74984c2.82903,-1.11257 6.30184,-3.08629 8.98414,-1.65311z" id="ID0.3567104428075254"/></g><path d="M213.37159,59.1899c1.51397,1.54807 2.22725,3.29523 1.78028,4.87546c-0.44697,1.58023 -1.96983,2.69474 -4.07039,3.22024c-2.10073,0.52567 -4.77865,0.46119 -7.53238,-0.31769c-2.75388,-0.77904 -5.06872,-2.12706 -6.58254,-3.6753c-1.51397,-1.54807 -2.22725,-3.29522 -1.78028,-4.87545c0.44697,-1.58023 1.96983,-2.69474 4.07039,-3.22025c2.10056,-0.52567 4.77866,-0.46119 7.53239,0.31786c2.75373,0.77904 5.06871,2.12706 6.58253,3.67513z" data-paper-data="{&quot;origPos&quot;:null}" id="ID0.16623971331864595" fill="#fff346" stroke-width="0.83998" stroke-linecap="butt"/><path d="M209.03537,64.56678c1.86205,1.1053 3.00177,2.60925 2.97737,4.25137c-0.02424,1.64195 -1.20824,3.1115 -3.10212,4.16105c-1.89405,1.04971 -4.49797,1.67815 -7.35948,1.63565c-2.8615,-0.04234 -5.44572,-0.74786 -7.30777,-1.85316c-1.86205,-1.1053 -3.00177,-2.60926 -2.97737,-4.25122c0.02424,-1.64212 1.20808,-3.11165 3.10213,-4.1612c1.89388,-1.04971 4.49797,-1.67816 7.35948,-1.63566c2.8615,0.0425 5.44571,0.74786 7.30776,1.85316z" data-paper-data="{&quot;origPos&quot;:null}" id="ID0.16623971331864595" fill="#fff346" stroke-width="0.83998" stroke-linecap="butt"/><path d="M207.83942,81.51169c-2.75373,0.77904 -5.43182,0.84353 -7.53238,0.31786c-2.10056,-0.52567 -3.62342,-1.64019 -4.07039,-3.22025c-0.44697,-1.58023 0.2663,-3.32738 1.78028,-4.87545c1.51381,-1.54824 3.82865,-2.89625 6.58254,-3.67529c2.75373,-0.77904 5.43166,-0.84337 7.53238,-0.31786c2.10056,0.52567 3.62342,1.64018 4.07039,3.22041c0.44697,1.58023 -0.26631,3.32722 -1.78028,4.87545c-1.51381,1.54807 -3.82881,2.89608 -6.58254,3.67513z" data-paper-data="{&quot;origPos&quot;:null}" id="ID0.16623971331864595" fill="#fff346" stroke-width="0.83998" stroke-linecap="butt"/><path d="M265.45206,41.09233c6.1939,6.1939 10.02853,14.74869 10.02853,24.18902c0,9.44033 -3.83463,17.99511 -10.02853,24.18901c-6.1939,6.1939 -14.74869,10.02853 -24.18902,10.02853c-9.44033,0 -17.99511,-3.83462 -24.18901,-10.02853c-6.1939,-6.1939 -10.02853,-14.74868 -10.02853,-24.18901c0,-9.44033 3.83462,-17.99511 10.02853,-24.18902c6.1939,-6.1939 14.74868,-10.02853 24.18901,-10.02853c9.44033,0 17.99512,3.83462 24.18902,10.02853z" data-paper-data="{&quot;origPos&quot;:null}" id="ID0.1863371403887868" fill="#e12323" stroke-width="1" stroke-linecap="butt"/><path d="M276.99924,45.00453c1.68914,2.47078 2.73514,5.88526 2.73514,9.65201c0,3.76675 -1.046,7.18123 -2.73514,9.65201c-1.6893,2.47239 -4.02288,4.00269 -6.59691,4.00269c-2.57403,0 -4.90777,-1.5303 -6.59692,-4.00269c-1.68914,-2.47078 -2.73514,-5.88526 -2.73514,-9.65201c0,-3.76675 1.046,-7.18124 2.73514,-9.65201c1.68914,-2.47239 4.02289,-4.00268 6.59692,-4.00268c2.57403,0 4.90761,1.53029 6.59691,4.00268z" data-paper-data="{&quot;origPos&quot;:null}" id="ID0.39472739631310105" fill="#ffffff" stroke-width="0.91936" stroke-linecap="butt"/><path d="M263.30641,45.73169c1.71839,2.47078 2.78249,5.88526 2.78249,9.65202c0,3.76675 -1.0641,7.18124 -2.78249,9.65201c-1.71839,2.47239 -4.09253,4.00268 -6.71116,4.00268c-2.61863,0 -4.99261,-1.53029 -6.711,-4.00268c-1.71855,-2.47078 -2.78265,-5.88526 -2.78265,-9.65201c0,-3.76675 1.0641,-7.18124 2.78265,-9.65202c1.71839,-2.47239 4.09237,-4.00268 6.711,-4.00268c2.61863,0 4.99277,1.53029 6.71116,4.00268z" data-paper-data="{&quot;origPos&quot;:null}" id="ID0.39472739631310105" fill="#ffffff" stroke-width="0.9259" stroke-linecap="butt"/><path d="M275.15238,65.36699c1.67492,1.97468 2.71107,4.70238 2.71107,7.71126c0,3.00888 -1.03615,5.73659 -2.71107,7.71127c-1.67492,1.97468 -3.98846,3.19633 -6.54019,3.19633c-2.55173,0 -4.86543,-1.22165 -6.54035,-3.19633c-1.67476,-1.97468 -2.7109,-4.70239 -2.7109,-7.71127c0,-3.00888 1.03614,-5.73658 2.7109,-7.71126c1.67492,-1.97468 3.98862,-3.19633 6.54035,-3.19633c2.55173,0 4.86527,1.22165 6.54019,3.19633z" data-paper-data="{&quot;origPos&quot;:null}" id="ID0.2919205715879798" fill="#ffb197" stroke-width="0.99783" stroke-linecap="round"/><path d="M273.30213,72.18836c0.1868,0.83011 0.08242,1.80096 -0.35906,2.71365c-0.44148,0.91252 -1.13779,1.59704 -1.90439,1.96596c-0.76741,0.36714 -1.6056,0.41982 -2.33309,0.06787c-0.72766,-0.35179 -1.20663,-1.0418 -1.39505,-1.87126c-0.1868,-0.83011 -0.08241,-1.80097 0.35907,-2.71349c0.44148,-0.91269 1.13778,-1.59719 1.90454,-1.96595c0.76725,-0.3673 1.60544,-0.41998 2.3331,-0.06803c0.72749,0.35195 1.20646,1.04179 1.39488,1.87125z" data-paper-data="{&quot;origPos&quot;:null}" id="ID0.41036201547831297" fill="#a27060" stroke-width="0.73984" stroke-linecap="butt"/><path d="M262.66456,55.26089c0.37975,0.67223 0.61568,1.6014 0.61568,2.62752c0,1.02612 -0.23593,1.95529 -0.61568,2.62752c-0.37975,0.67223 -0.90492,1.08915 -1.48505,1.08915c-0.58013,0 -1.1053,-0.41691 -1.48505,-1.08915c-0.37975,-0.67223 -0.61567,-1.6014 -0.61567,-2.62752c0,-1.02612 0.23593,-1.95529 0.61567,-2.62752c0.37975,-0.67223 0.90492,-1.08914 1.48505,-1.08914c0.58013,0 1.1053,0.41691 1.48505,1.08914z" data-paper-data="{&quot;origPos&quot;:null}" id="ID0.26917251013219357" fill="#001966" stroke-width="1" stroke-linecap="butt"/><path d="M273.24897,55.26089c0.37975,0.67223 0.61568,1.6014 0.61568,2.62752c0,1.02612 -0.23593,1.95529 -0.61568,2.62752c-0.37975,0.67223 -0.90492,1.08915 -1.48505,1.08915c-0.58013,0 -1.1053,-0.41691 -1.48505,-1.08915c-0.37975,-0.67223 -0.61567,-1.6014 -0.61567,-2.62752c0,-1.02612 0.23592,-1.95529 0.61567,-2.62752c0.37975,-0.67223 0.90492,-1.08914 1.48505,-1.08914c0.58013,0 1.1053,0.41691 1.48505,1.08914z" data-paper-data="{&quot;origPos&quot;:null}" id="ID0.26917251013219357" fill="#001966" stroke-width="1" stroke-linecap="butt"/><g data-paper-data="{&quot;origPos&quot;:null}" id="ID0.5137764848768711" fill="#ffffff"><path d="M221.45307,41.3614c3.84674,1.23409 7.62934,4.00802 10.43316,8.02492c2.80398,4.01691 4.10368,8.52392 3.93578,12.56022c-0.1658,4.03662 -1.79919,7.60235 -4.85735,9.73701c-3.05817,2.13466 -6.96842,2.43846 -10.81468,1.20243c-3.84659,-1.23409 -7.62933,-4.00818 -10.43315,-8.02508c-2.80382,-4.01674 -4.10352,-8.52393 -3.93563,-12.56022c0.1658,-4.03662 1.79903,-7.60235 4.85736,-9.73701c3.05817,-2.13466 6.96826,-2.43846 10.81452,-1.20226z" id="ID0.9694409435614944" stroke-width="0.90437" stroke-linecap="butt"/><path d="M206.84174,31.73522c4.38243,1.7562 10.58021,5.40887 15.65232,8.91773c3.20603,2.22079 6.67286,5.00699 8.08326,7.26478c3.05606,5.04916 4.32135,9.59691 4.44723,13.23488c0.03215,0.9101 -2.61119,-0.90525 -3.9416,-1.63113c-5.20704,-2.84405 -9.94837,-4.86899 -15.65216,-8.91773c-5.70395,-4.0489 -10.47857,-8.27652 -13.5823,-11.83401c-3.10374,-3.55766 -4.53659,-6.44518 -3.56217,-7.81792c0.97457,-1.37291 4.17316,-0.97296 8.55543,0.78341z" id="ID0.4074811181053519" stroke-width="1.53181" stroke-linecap="round"/><path d="M205.43619,41.47693c3.24982,0.95244 7.25121,2.95443 11.22917,5.77812c3.97796,2.82369 7.18819,5.94068 9.15931,8.6944c1.97097,2.75356 2.70314,5.1437 1.72857,6.5166c-0.97441,1.37274 -3.47234,1.47018 -6.72199,0.51791c-3.24982,-0.95227 -7.2512,-2.95442 -11.22916,-5.77812c-3.97796,-2.82369 -7.18819,-5.94069 -9.15915,-8.69424c-1.97113,-2.75373 -2.7033,-5.14387 -1.72873,-6.5166c0.97441,-1.37291 3.47234,-1.47034 6.72199,-0.51807z" id="ID0.4074811181053519" stroke-width="1.13742" stroke-linecap="butt"/><path d="M207.359,52.96126c3.06124,0.81864 6.80263,2.63609 10.49344,5.25601c3.69097,2.61992 6.64086,5.55221 8.42357,8.17197c1.7827,2.61992 2.39822,4.92749 1.42381,6.30023c-0.97457,1.37274 -3.35582,1.55292 -6.41722,0.73444c-3.0614,-0.81864 -6.80263,-2.63608 -10.49344,-5.25601c-3.69097,-2.61992 -6.64086,-5.55221 -8.42357,-8.17213c-1.7827,-2.61977 -2.39822,-4.92733 -1.42381,-6.30007c0.97441,-1.37274 3.35582,-1.55308 6.41722,-0.73444z" id="ID0.4074811181053519" stroke-width="1.07474" stroke-linecap="butt"/></g><path d="M217.89199,90.80085c0,0 5.854,-8.07253 25.02483,-8.07253c19.17083,0 23.14124,6.72711 23.14124,6.72711c0,0 -5.31584,9.95613 -24.48667,9.95613c-19.17084,0 -23.67942,-8.61069 -23.67942,-8.61069z" data-paper-data="{&quot;origPos&quot;:null}" fill="#ffffff" stroke-width="0" stroke-linecap="butt"/><g data-paper-data="{&quot;origPos&quot;:null,&quot;index&quot;:null}" id="ID0.20286902273073792" fill="#fff346" stroke-width="0.88955" stroke-linecap="round"><path d="M221.39274,322.94316l34.21156,-1.72485l-14.08712,21.34625l-4.95916,-0.21556l-0.79068,-4.8155l-3.73735,5.74983l-6.10922,0.21557l0.93433,-7.04357l-5.46236,6.46861l-8.91223,-2.51554z" id="ID0.07827324094250798"/><path d="M239.72042,342.11548c-3.41836,-1.87579 -5.78733,-6.07174 -6.25304,-9.91848c-0.33918,-2.79736 1.59138,-5.48111 4.16008,-7.36691c2.57015,-1.88742 6.59514,-2.44378 10.03499,-3.05461c2.73401,-0.48155 5.42924,-0.54781 8.08568,-0.4313c1.63291,0.12508 4.36417,-0.42257 4.67168,1.1499c0.79779,4.08251 0.07773,8.74272 -2.15615,12.21845c-2.00813,3.12507 -6.10195,4.39003 -9.5591,5.74984c-2.82903,1.11257 -6.30184,3.08629 -8.98414,1.65311z" id="ID0.3567104428075254"/></g><path d="M266.62841,300.8101c-1.51397,-1.54807 -2.22725,-3.29523 -1.78028,-4.87546c0.44697,-1.58023 1.96983,-2.69474 4.07039,-3.22024c2.10073,-0.52567 4.77865,-0.46119 7.53238,0.31769c2.75388,0.77904 5.06872,2.12706 6.58254,3.6753c1.51397,1.54807 2.22725,3.29522 1.78028,4.87545c-0.44697,1.58023 -1.96983,2.69474 -4.07039,3.22025c-2.10056,0.52567 -4.77866,0.46119 -7.53239,-0.31786c-2.75373,-0.77904 -5.06871,-2.12706 -6.58253,-3.67513z" data-paper-data="{&quot;origPos&quot;:null,&quot;index&quot;:null}" id="ID0.16623971331864595" fill="#fff346" stroke-width="0.83998" stroke-linecap="butt"/><path d="M270.96463,295.43322c-1.86205,-1.1053 -3.00177,-2.60925 -2.97737,-4.25137c0.02424,-1.64195 1.20824,-3.1115 3.10212,-4.16105c1.89405,-1.04971 4.49797,-1.67815 7.35948,-1.63565c2.8615,0.04234 5.44572,0.74786 7.30777,1.85316c1.86205,1.1053 3.00177,2.60926 2.97737,4.25122c-0.02424,1.64212 -1.20808,3.11165 -3.10213,4.1612c-1.89388,1.04971 -4.49797,1.67816 -7.35948,1.63566c-2.8615,-0.0425 -5.44571,-0.74786 -7.30776,-1.85316z" data-paper-data="{&quot;origPos&quot;:null,&quot;index&quot;:null}" id="ID0.16623971331864595" fill="#fff346" stroke-width="0.83998" stroke-linecap="butt"/><path d="M272.16058,278.48833c2.75373,-0.77904 5.43182,-0.84353 7.53238,-0.31786c2.10056,0.52567 3.62342,1.64019 4.07039,3.22025c0.44697,1.58023 -0.2663,3.32738 -1.78028,4.87545c-1.51381,1.54824 -3.82865,2.89625 -6.58254,3.67529c-2.75373,0.77904 -5.43166,0.84337 -7.53238,0.31786c-2.10056,-0.52567 -3.62342,-1.64018 -4.07039,-3.22041c-0.44697,-1.58023 0.26631,-3.32722 1.78028,-4.87545c1.51381,-1.54807 3.82881,-2.89608 6.58254,-3.67513z" data-paper-data="{&quot;origPos&quot;:null,&quot;index&quot;:null}" id="ID0.16623971331864595" fill="#fff346" stroke-width="0.83998" stroke-linecap="butt"/><path d="M214.54794,318.90766c-6.1939,-6.1939 -10.02853,-14.74869 -10.02853,-24.18902c0,-9.44033 3.83463,-17.99511 10.02853,-24.18901c6.1939,-6.1939 14.74869,-10.02853 24.18902,-10.02853c9.44033,0 17.99511,3.83462 24.18901,10.02853c6.1939,6.1939 10.02853,14.74868 10.02853,24.18901c0,9.44033 -3.83462,17.99511 -10.02853,24.18902c-6.1939,6.1939 -14.74868,10.02853 -24.18901,10.02853c-9.44033,0 -17.99512,-3.83462 -24.18902,-10.02853z" data-paper-data="{&quot;origPos&quot;:null,&quot;index&quot;:null}" id="ID0.1863371403887868" fill="#e12323" stroke-width="1" stroke-linecap="butt"/><path d="M203.00076,314.99548c-1.68914,-2.47078 -2.73514,-5.88526 -2.73514,-9.65201c0,-3.76675 1.046,-7.18123 2.73514,-9.65201c1.6893,-2.47239 4.02288,-4.00269 6.59691,-4.00269c2.57403,0 4.90777,1.5303 6.59692,4.00269c1.68914,2.47078 2.73514,5.88526 2.73514,9.65201c0,3.76675 -1.046,7.18124 -2.73514,9.65201c-1.68914,2.47239 -4.02289,4.00268 -6.59692,4.00268c-2.57403,0 -4.90761,-1.53029 -6.59691,-4.00268z" data-paper-data="{&quot;origPos&quot;:null,&quot;index&quot;:null}" id="ID0.39472739631310105" fill="#ffffff" stroke-width="0.91936" stroke-linecap="butt"/><path d="M216.69359,314.26831c-1.71839,-2.47078 -2.78249,-5.88526 -2.78249,-9.65202c0,-3.76675 1.0641,-7.18124 2.78249,-9.65201c1.71839,-2.47239 4.09253,-4.00268 6.71116,-4.00268c2.61863,0 4.99261,1.53029 6.711,4.00268c1.71855,2.47078 2.78265,5.88526 2.78265,9.65201c0,3.76675 -1.0641,7.18124 -2.78265,9.65202c-1.71839,2.47239 -4.09237,4.00268 -6.711,4.00268c-2.61863,0 -4.99277,-1.53029 -6.71116,-4.00268z" data-paper-data="{&quot;origPos&quot;:null,&quot;index&quot;:null}" id="ID0.39472739631310105" fill="#ffffff" stroke-width="0.9259" stroke-linecap="butt"/><path d="M204.84762,294.633c-1.67492,-1.97468 -2.71107,-4.70238 -2.71107,-7.71126c0,-3.00888 1.03615,-5.73659 2.71107,-7.71127c1.67492,-1.97468 3.98846,-3.19633 6.54019,-3.19633c2.55173,0 4.86543,1.22165 6.54035,3.19633c1.67476,1.97468 2.7109,4.70239 2.7109,7.71127c0,3.00888 -1.03614,5.73658 -2.7109,7.71126c-1.67492,1.97468 -3.98862,3.19633 -6.54035,3.19633c-2.55173,0 -4.86527,-1.22165 -6.54019,-3.19633z" data-paper-data="{&quot;origPos&quot;:null,&quot;index&quot;:null}" id="ID0.2919205715879798" fill="#ffb197" stroke-width="0.99783" stroke-linecap="round"/><path d="M206.69787,287.81166c-0.1868,-0.83011 -0.08242,-1.80096 0.35906,-2.71365c0.44148,-0.91252 1.13779,-1.59704 1.90439,-1.96596c0.76741,-0.36714 1.6056,-0.41982 2.33309,-0.06787c0.72766,0.35179 1.20663,1.0418 1.39505,1.87126c0.1868,0.83011 0.08241,1.80097 -0.35907,2.71349c-0.44148,0.91269 -1.13778,1.59719 -1.90454,1.96595c-0.76725,0.3673 -1.60544,0.41998 -2.3331,0.06803c-0.72749,-0.35195 -1.20646,-1.04179 -1.39488,-1.87125z" data-paper-data="{&quot;origPos&quot;:null,&quot;index&quot;:null}" id="ID0.41036201547831297" fill="#a27060" stroke-width="0.73984" stroke-linecap="butt"/><path d="M217.33544,304.7391c-0.37975,-0.67223 -0.61568,-1.6014 -0.61568,-2.62752c0,-1.02612 0.23593,-1.95529 0.61568,-2.62752c0.37975,-0.67223 0.90492,-1.08915 1.48505,-1.08915c0.58013,0 1.1053,0.41691 1.48505,1.08915c0.37975,0.67223 0.61567,1.6014 0.61567,2.62752c0,1.02612 -0.23593,1.95529 -0.61567,2.62752c-0.37975,0.67223 -0.90492,1.08914 -1.48505,1.08914c-0.58013,0 -1.1053,-0.41691 -1.48505,-1.08914z" data-paper-data="{&quot;origPos&quot;:null,&quot;index&quot;:null}" id="ID0.26917251013219357" fill="#001966" stroke-width="1" stroke-linecap="butt"/><path d="M206.75103,304.7391c-0.37975,-0.67223 -0.61568,-1.6014 -0.61568,-2.62752c0,-1.02612 0.23593,-1.95529 0.61568,-2.62752c0.37975,-0.67223 0.90492,-1.08915 1.48505,-1.08915c0.58013,0 1.1053,0.41691 1.48505,1.08915c0.37975,0.67223 0.61567,1.6014 0.61567,2.62752c0,1.02612 -0.23592,1.95529 -0.61567,2.62752c-0.37975,0.67223 -0.90492,1.08914 -1.48505,1.08914c-0.58013,0 -1.1053,-0.41691 -1.48505,-1.08914z" data-paper-data="{&quot;origPos&quot;:null,&quot;index&quot;:null}" id="ID0.26917251013219357" fill="#001966" stroke-width="1" stroke-linecap="butt"/><g data-paper-data="{&quot;origPos&quot;:null,&quot;index&quot;:null}" id="ID0.5137764848768711" fill="#ffffff"><path d="M258.54693,318.63861c-3.84674,-1.23409 -7.62934,-4.00802 -10.43316,-8.02492c-2.80398,-4.01691 -4.10368,-8.52392 -3.93578,-12.56022c0.1658,-4.03662 1.79919,-7.60235 4.85735,-9.73701c3.05817,-2.13466 6.96842,-2.43846 10.81468,-1.20243c3.84659,1.23409 7.62933,4.00818 10.43315,8.02508c2.80382,4.01674 4.10352,8.52393 3.93563,12.56022c-0.1658,4.03662 -1.79903,7.60235 -4.85736,9.73701c-3.05817,2.13466 -6.96826,2.43846 -10.81452,1.20226z" id="ID0.9694409435614944" stroke-width="0.90437" stroke-linecap="butt"/><path d="M273.15826,328.26476c-4.38243,-1.7562 -10.58021,-5.40887 -15.65232,-8.91773c-3.20603,-2.22079 -6.67286,-5.00699 -8.08326,-7.26478c-3.05606,-5.04916 -4.32135,-9.59691 -4.44723,-13.23488c-0.03215,-0.9101 2.61119,0.90525 3.9416,1.63113c5.20704,2.84405 9.94837,4.86899 15.65216,8.91773c5.70395,4.0489 10.47857,8.27652 13.5823,11.83401c3.10374,3.55766 4.53659,6.44518 3.56217,7.81792c-0.97457,1.37291 -4.17316,0.97296 -8.55543,-0.78341z" id="ID0.4074811181053519" stroke-width="1.53181" stroke-linecap="round"/><path d="M274.56381,318.52307c-3.24982,-0.95244 -7.25121,-2.95443 -11.22917,-5.77812c-3.97796,-2.82369 -7.18819,-5.94068 -9.15931,-8.6944c-1.97097,-2.75356 -2.70314,-5.1437 -1.72857,-6.5166c0.97441,-1.37274 3.47234,-1.47018 6.72199,-0.51791c3.24982,0.95227 7.2512,2.95442 11.22916,5.77812c3.97796,2.82369 7.18819,5.94069 9.15915,8.69424c1.97113,2.75373 2.7033,5.14387 1.72873,6.5166c-0.97441,1.37291 -3.47234,1.47034 -6.72199,0.51807z" id="ID0.4074811181053519" stroke-width="1.13742" stroke-linecap="butt"/><path d="M272.641,307.03874c-3.06124,-0.81864 -6.80263,-2.63609 -10.49344,-5.25601c-3.69097,-2.61992 -6.64086,-5.55221 -8.42357,-8.17197c-1.7827,-2.61992 -2.39822,-4.92749 -1.42381,-6.30023c0.97457,-1.37274 3.35582,-1.55292 6.41722,-0.73444c3.0614,0.81864 6.80263,2.63608 10.49344,5.25601c3.69097,2.61992 6.64086,5.55221 8.42357,8.17213c1.7827,2.61977 2.39822,4.92733 1.42381,6.30007c-0.97441,1.37274 -3.35582,1.55308 -6.41722,0.73444z" id="ID0.4074811181053519" stroke-width="1.07474" stroke-linecap="butt"/></g><path d="M262.10801,269.19915c0,0 -5.854,8.07253 -25.02483,8.07253c-19.17083,0 -23.14124,-6.72711 -23.14124,-6.72711c0,0 5.31584,-9.95613 24.48667,-9.95613c19.17084,0 23.67942,8.61069 23.67942,8.61069z" data-paper-data="{&quot;origPos&quot;:null,&quot;index&quot;:null}" fill="#ffffff" stroke-width="0" stroke-linecap="butt"/><g data-paper-data="{&quot;origRot&quot;:0,&quot;origPos&quot;:null}"><g data-paper-data="{&quot;origPos&quot;:null}" id="ID0.20286902273073792" fill="#fff346" stroke-width="0.88955" stroke-linecap="round"><path d="M383.62476,192.28434l-3.23214,-34.10219l21.94682,13.13189l0.00338,4.96384l-4.77594,1.00231l5.90908,3.4801l0.48482,6.09377l-7.07793,-0.62275l6.70324,5.17173l-2.12,9.01451z" id="ID0.07827324094250798"/><path d="M401.97003,173.12886c-1.72319,3.49777 -5.81057,6.0495 -9.63302,6.68443c-2.77968,0.46223 -5.54597,-1.34808 -7.54323,-3.8311c-1.99895,-2.4844 -2.73229,-6.48093 -3.49425,-9.89049c-0.60167,-2.71011 -0.78675,-5.39979 -0.78752,-8.05879c0.05294,-1.63684 -0.61465,-4.34128 0.94273,-4.71785c4.04335,-0.97708 8.73078,-0.46327 12.30166,1.61513c3.2106,1.86834 4.6549,5.90238 6.16587,9.29619c1.23627,2.7772 3.36124,6.15958 2.04777,8.90248z" id="ID0.3567104428075254"/></g><path d="M359.51803,148.06892c-1.47979,1.58078 -3.19379,2.37043 -4.79219,1.99359c-1.59841,-0.37684 -2.779,-1.84906 -3.39664,-3.92439c-0.61782,-2.0755 -0.67151,-4.75366 -0.01485,-7.53906c0.65682,-2.78556 1.90142,-5.15761 3.38139,-6.73824c1.47979,-1.58078 3.19378,-2.37043 4.79218,-1.99359c1.59841,0.37684 2.779,1.84906 3.39665,3.92439c0.61781,2.07533 0.67151,4.75367 0.01468,7.53908c-0.65682,2.78541 -1.90142,5.1576 -3.38122,6.73822z" data-paper-data="{&quot;origPos&quot;:null}" id="ID0.16623971331864595" fill="#fff346" stroke-width="0.83998" stroke-linecap="butt"/><path d="M353.95513,143.97407c-1.02209,1.90899 -2.47431,3.11394 -4.11591,3.16199c-1.64142,0.04821 -3.16176,-1.06982 -4.29383,-2.91557c-1.13223,-1.84591 -1.87491,-4.41957 -1.95866,-7.28017c-0.08391,-2.86058 0.50694,-5.47341 1.52903,-7.3824c1.02209,-1.90899 2.47432,-3.11394 4.11576,-3.16198c1.64159,-0.04821 3.16191,1.06966 4.29398,2.91557c1.13222,1.84574 1.87492,4.41957 1.95867,7.28017c0.08375,2.86059 -0.50694,5.4734 -1.52903,7.38239z" data-paper-data="{&quot;origPos&quot;:null}" id="ID0.16623971331864595" fill="#fff346" stroke-width="0.83998" stroke-linecap="butt"/><path d="M336.97396,143.52668c-0.89974,-2.71669 -1.08229,-5.38933 -0.64978,-7.51103c0.43251,-2.1217 1.47878,-3.69224 3.03758,-4.20846c1.55898,-0.51623 3.33589,0.11928 4.94923,1.56351c1.6135,1.44405 3.0623,3.69718 3.96205,6.41403c0.89974,2.71669 1.08212,5.38918 0.64978,7.51103c-0.43251,2.1217 -1.47877,3.69224 -3.03774,4.20847c-1.55898,0.51623 -3.33573,-0.1193 -4.94923,-1.56351c-1.61333,-1.44406 -3.06214,-3.69735 -3.96189,-6.41403z" data-paper-data="{&quot;origPos&quot;:null}" id="ID0.16623971331864595" fill="#fff346" stroke-width="0.83998" stroke-linecap="butt"/><path d="M379.89509,199.30047c-5.91468,6.46107 -14.29201,10.66929 -23.72315,11.08568c-9.43114,0.41639 -18.14673,-3.03719 -24.6078,-8.95186c-6.46107,-5.91468 -10.66929,-14.29201 -11.08568,-23.72315c-0.41639,-9.43114 3.03718,-18.14673 8.95186,-24.6078c5.91468,-6.46107 14.292,-10.66929 23.72314,-11.08568c9.43114,-0.41639 18.14673,3.03718 24.60781,8.95186c6.46107,5.91468 10.66929,14.292 11.08568,23.72314c0.41639,9.43114 -3.03718,18.14674 -8.95186,24.60781z" data-paper-data="{&quot;origPos&quot;:null}" id="ID0.1863371403887868" fill="#e12323" stroke-width="1" stroke-linecap="butt"/><path d="M376.49603,211.00897c-2.39387,1.79648 -5.75889,2.99206 -9.52198,3.1582c-3.76308,0.16614 -7.22038,-0.72824 -9.76326,-2.30676c-2.54449,-1.57861 -4.17623,-3.84242 -4.28977,-6.41394c-0.11353,-2.57152 1.31234,-4.97049 3.70782,-6.76705c2.39387,-1.79648 5.75889,-2.99206 9.52198,-3.1582c3.76308,-0.16614 7.22039,0.72824 9.76326,2.30676c2.54449,1.57845 4.17622,3.84243 4.28976,6.41395c0.11353,2.57152 -1.31234,4.97033 -3.70781,6.76704z" data-paper-data="{&quot;origPos&quot;:null}" id="ID0.39472739631310105" fill="#ffffff" stroke-width="0.91936" stroke-linecap="butt"/><path d="M375.16562,197.36154c-2.39258,1.8257 -5.7568,3.03936 -9.5199,3.2055c-3.76308,0.16614 -7.22119,-0.74632 -9.76534,-2.35406c-2.54578,-1.60767 -4.17929,-3.912 -4.29479,-6.52808c-0.1155,-2.61608 1.30859,-5.05525 3.70278,-6.88102c2.39258,-1.82586 5.7568,-3.03952 9.51988,-3.20566c3.76308,-0.16614 7.22119,0.74632 9.76536,2.35422c2.54578,1.60767 4.17929,3.91184 4.29479,6.52792c0.1155,2.61608 -1.30858,5.05541 -3.70277,6.88118z" data-paper-data="{&quot;origPos&quot;:null}" id="ID0.39472739631310105" fill="#ffffff" stroke-width="0.9259" stroke-linecap="butt"/><path d="M356.07192,210.06204c-1.89888,1.76039 -4.57823,2.91584 -7.58418,3.04855c-3.00595,0.13271 -5.77671,-0.78212 -7.82334,-2.36831c-2.04663,-1.58619 -3.36914,-3.8436 -3.48169,-6.39284c-0.11255,-2.54925 1.00586,-4.91458 2.90474,-6.67497c1.89889,-1.76023 4.57824,-2.91567 7.5842,-3.04838c3.00595,-0.13271 5.7767,0.78211 7.82333,2.36814c2.04663,1.58619 3.36915,3.84376 3.4817,6.393c0.11255,2.54925 -1.00587,4.91442 -2.90475,6.67481z" data-paper-data="{&quot;origPos&quot;:null}" id="ID0.2919205715879798" fill="#ffb197" stroke-width="0.99783" stroke-linecap="round"/><path d="M349.17559,208.51446c-0.82106,0.22323 -1.79557,0.16177 -2.72685,-0.23902c-0.9311,-0.4008 -1.64567,-1.06624 -2.04804,-1.81582c-0.40063,-0.75047 -0.49023,-1.58552 -0.17071,-2.32783c0.31935,-0.74247 0.98757,-1.25141 1.80791,-1.47623c0.82106,-0.22323 1.79558,-0.16177 2.72669,0.23904c0.93127,0.40079 1.64582,1.06623 2.04804,1.81597c0.40078,0.7503 0.49038,1.58535 0.17087,2.32783c-0.31952,0.74231 -0.98756,1.25124 -1.8079,1.47606z" data-paper-data="{&quot;origPos&quot;:null}" id="ID0.41036201547831297" fill="#a27060" stroke-width="0.73984" stroke-linecap="butt"/><path d="M365.61738,197.14062c-0.65483,0.40903 -1.57269,0.68571 -2.59781,0.73097c-1.02512,0.04526 -1.96379,-0.14946 -2.65212,-0.49919c-0.68833,-0.34973 -1.128,-0.856 -1.15359,-1.43557c-0.02559,-0.57957 0.36775,-1.12261 1.02259,-1.53164c0.65483,-0.40903 1.57269,-0.6857 2.59781,-0.73096c1.02512,-0.04526 1.96379,0.14946 2.65212,0.49918c0.68833,0.34973 1.12799,0.856 1.15358,1.43557c0.02559,0.57957 -0.36775,1.12261 -1.02258,1.53164z" data-paper-data="{&quot;origPos&quot;:null}" id="ID0.26917251013219357" fill="#001966" stroke-width="1" stroke-linecap="butt"/><path d="M366.08423,207.71473c-0.65483,0.40903 -1.57269,0.68571 -2.59781,0.73097c-1.02512,0.04526 -1.96379,-0.14946 -2.65212,-0.49919c-0.68833,-0.34973 -1.128,-0.856 -1.15359,-1.43557c-0.02559,-0.57957 0.36775,-1.12261 1.02259,-1.53164c0.65483,-0.40903 1.57269,-0.6857 2.59781,-0.73096c1.02512,-0.04526 1.96379,0.14945 2.65212,0.49918c0.68833,0.34973 1.12799,0.856 1.15358,1.43557c0.02559,0.57957 -0.36775,1.12261 -1.02258,1.53164z" data-paper-data="{&quot;origPos&quot;:null}" id="ID0.26917251013219357" fill="#001966" stroke-width="1" stroke-linecap="butt"/><g data-paper-data="{&quot;origPos&quot;:null}" id="ID0.5137764848768711" fill="#ffffff"><path d="M377.68563,155.35617c-1.06322,3.89743 -3.66761,7.7987 -7.55693,10.77696c-3.88933,2.97843 -8.33462,4.47565 -12.3744,4.48594c-4.04,0.01241 -7.67431,-1.46212 -9.94178,-4.42315c-2.26747,-2.96104 -2.74344,-6.85408 -1.67826,-10.75112c1.06323,-3.89728 3.66777,-7.79869 7.55709,-10.77696c3.88916,-2.97826 8.33464,-4.47549 12.37441,-4.4858c4.04,-0.01241 7.6743,1.46196 9.94178,4.42316c2.26747,2.96104 2.74344,6.85393 1.67809,10.75097z" id="ID0.9694409435614944" stroke-width="0.90437" stroke-linecap="butt"/><path d="M386.65797,140.33447c-1.56119,4.45563 -4.93694,10.80848 -8.21867,16.03042c-2.07722,3.30086 -4.7078,6.88721 -6.90118,8.39582c-4.90945,3.27579 -9.39697,4.74044 -13.02585,5.02665c-0.9078,0.07226 0.7892,-2.64858 1.45569,-4.00971c2.61161,-5.32742 4.42546,-10.15345 8.21868,-16.03026c3.79337,-5.87698 7.80629,-10.83343 11.22342,-14.09105c3.4173,-3.25764 6.23881,-4.81645 7.65319,-3.90353c1.41456,0.91307 1.15608,4.12618 -0.40529,8.58166z" id="ID0.4074811181053519" stroke-width="1.53181" stroke-linecap="round"/><path d="M376.86375,139.35997c-0.80817,3.28867 -2.63172,7.37446 -5.27721,11.4731c-2.64549,4.09863 -5.61785,7.44322 -8.28195,9.53388c-2.66395,2.0905 -5.01947,2.92738 -6.43402,2.01432c-1.41438,-0.91291 -1.6219,-3.40412 -0.81389,-6.6926c0.808,-3.28866 2.63172,-7.37445 5.27721,-11.47309c2.64549,-4.09863 5.61786,-7.44322 8.2818,-9.53371c2.66411,-2.09067 5.01963,-2.92755 6.43401,-2.01448c1.41455,0.91291 1.62206,3.40411 0.81405,6.6926z" id="ID0.4074811181053519" stroke-width="1.13742" stroke-linecap="butt"/><path d="M365.4754,141.78745c-0.68282,3.09437 -2.33348,6.91228 -4.78806,10.71506c-2.45457,3.80294 -5.2539,6.87929 -7.79248,8.77581c-2.53874,1.89652 -4.81692,2.61322 -6.2313,1.70031c-1.41439,-0.91307 -1.69942,-3.28406 -1.01677,-6.37858c0.68281,-3.09453 2.33347,-6.91228 4.78806,-10.71506c2.45457,-3.80294 5.2539,-6.87929 7.79264,-8.77582c2.53859,-1.89652 4.81676,-2.61322 6.23114,-1.7003c1.41438,0.91291 1.69958,3.28405 1.01677,6.37858z" id="ID0.4074811181053519" stroke-width="1.07474" stroke-linecap="butt"/></g><path d="M328.13723,153.97918c0,0 8.32288,5.49225 9.16845,24.64442c0.84557,19.15217 -5.69987,23.41543 -5.69987,23.41543c0,0 -10.18091,-4.87153 -11.02648,-24.0237c-0.84557,-19.15218 7.55788,-24.03617 7.55788,-24.03617z" data-paper-data="{&quot;origPos&quot;:null}" fill="#ffffff" stroke-width="0" stroke-linecap="butt"/><g data-paper-data="{&quot;origPos&quot;:null,&quot;index&quot;:null}" id="ID0.20286902273073792" fill="#fff346" stroke-width="0.88955" stroke-linecap="round"><path d="M96.37524,167.71565l3.23214,34.10219l-21.94682,-13.13189l-0.00338,-4.96384l4.77594,-1.00231l-5.90908,-3.4801l-0.48482,-6.09377l7.07793,0.62275l-6.70324,-5.17173l2.12,-9.01451z" id="ID0.07827324094250798"/><path d="M78.02997,186.87113c1.72319,-3.49777 5.81057,-6.0495 9.63302,-6.68443c2.77968,-0.46223 5.54597,1.34808 7.54323,3.8311c1.99895,2.4844 2.73229,6.48093 3.49425,9.89049c0.60167,2.71011 0.78675,5.39979 0.78752,8.05879c-0.05294,1.63684 0.61465,4.34128 -0.94273,4.71785c-4.04335,0.97708 -8.73078,0.46327 -12.30166,-1.61513c-3.2106,-1.86834 -4.6549,-5.90238 -6.16587,-9.29619c-1.23627,-2.7772 -3.36124,-6.15958 -2.04777,-8.90248z" id="ID0.3567104428075254"/></g><path d="M120.48196,211.93107c1.47979,-1.58078 3.19379,-2.37043 4.79219,-1.99359c1.59841,0.37684 2.779,1.84906 3.39664,3.92439c0.61782,2.0755 0.67151,4.75366 0.01485,7.53906c-0.65682,2.78556 -1.90142,5.15761 -3.38139,6.73824c-1.47979,1.58078 -3.19378,2.37043 -4.79218,1.99359c-1.59841,-0.37684 -2.779,-1.84906 -3.39665,-3.92439c-0.61781,-2.07533 -0.67151,-4.75367 -0.01468,-7.53908c0.65682,-2.78541 1.90142,-5.1576 3.38122,-6.73822z" data-paper-data="{&quot;origPos&quot;:null,&quot;index&quot;:null}" id="ID0.16623971331864595" fill="#fff346" stroke-width="0.83998" stroke-linecap="butt"/><path d="M126.04487,216.02592c1.02209,-1.90899 2.47431,-3.11394 4.11591,-3.16199c1.64142,-0.04821 3.16176,1.06982 4.29383,2.91557c1.13223,1.84591 1.87491,4.41957 1.95866,7.28017c0.08391,2.86058 -0.50694,5.47341 -1.52903,7.3824c-1.02209,1.90899 -2.47432,3.11394 -4.11576,3.16198c-1.64159,0.04821 -3.16191,-1.06966 -4.29398,-2.91557c-1.13222,-1.84574 -1.87492,-4.41957 -1.95867,-7.28017c-0.08375,-2.86059 0.50694,-5.4734 1.52903,-7.38239z" data-paper-data="{&quot;origPos&quot;:null,&quot;index&quot;:null}" id="ID0.16623971331864595" fill="#fff346" stroke-width="0.83998" stroke-linecap="butt"/><path d="M143.02604,216.47331c0.89974,2.71669 1.08229,5.38933 0.64978,7.51103c-0.43251,2.1217 -1.47878,3.69224 -3.03758,4.20846c-1.55898,0.51623 -3.33589,-0.11928 -4.94923,-1.56351c-1.6135,-1.44405 -3.0623,-3.69718 -3.96205,-6.41403c-0.89974,-2.71669 -1.08212,-5.38918 -0.64978,-7.51103c0.43251,-2.1217 1.47877,-3.69224 3.03774,-4.20847c1.55898,-0.51623 3.33573,0.1193 4.94923,1.56351c1.61333,1.44406 3.06214,3.69735 3.96189,6.41403z" data-paper-data="{&quot;origPos&quot;:null,&quot;index&quot;:null}" id="ID0.16623971331864595" fill="#fff346" stroke-width="0.83998" stroke-linecap="butt"/><path d="M100.1049,160.69952c5.91468,-6.46107 14.29201,-10.66929 23.72315,-11.08568c9.43114,-0.41639 18.14673,3.03719 24.6078,8.95186c6.46107,5.91468 10.66929,14.29201 11.08568,23.72315c0.41639,9.43114 -3.03718,18.14673 -8.95186,24.6078c-5.91468,6.46107 -14.292,10.66929 -23.72314,11.08568c-9.43114,0.41639 -18.14673,-3.03718 -24.60781,-8.95186c-6.46107,-5.91468 -10.66929,-14.292 -11.08568,-23.72314c-0.41639,-9.43114 3.03718,-18.14674 8.95186,-24.60781z" data-paper-data="{&quot;origPos&quot;:null,&quot;index&quot;:null}" id="ID0.1863371403887868" fill="#e12323" stroke-width="1" stroke-linecap="butt"/><path d="M103.50396,148.99102c2.39387,-1.79648 5.75889,-2.99206 9.52198,-3.1582c3.76308,-0.16614 7.22038,0.72824 9.76326,2.30676c2.54449,1.57861 4.17623,3.84242 4.28977,6.41394c0.11353,2.57152 -1.31234,4.97049 -3.70782,6.76705c-2.39387,1.79648 -5.75889,2.99206 -9.52198,3.1582c-3.76308,0.16614 -7.22039,-0.72824 -9.76326,-2.30676c-2.54449,-1.57845 -4.17622,-3.84243 -4.28976,-6.41395c-0.11353,-2.57152 1.31234,-4.97033 3.70781,-6.76704z" data-paper-data="{&quot;origPos&quot;:null,&quot;index&quot;:null}" id="ID0.39472739631310105" fill="#ffffff" stroke-width="0.91936" stroke-linecap="butt"/><path d="M104.83438,162.63845c2.39258,-1.8257 5.7568,-3.03936 9.5199,-3.2055c3.76308,-0.16614 7.22119,0.74632 9.76534,2.35406c2.54578,1.60767 4.17929,3.912 4.29479,6.52808c0.1155,2.61608 -1.30859,5.05525 -3.70278,6.88102c-2.39258,1.82586 -5.7568,3.03952 -9.51988,3.20566c-3.76308,0.16614 -7.22119,-0.74632 -9.76536,-2.35422c-2.54578,-1.60767 -4.17929,-3.91184 -4.29479,-6.52792c-0.1155,-2.61608 1.30858,-5.05541 3.70277,-6.88118z" data-paper-data="{&quot;origPos&quot;:null,&quot;index&quot;:null}" id="ID0.39472739631310105" fill="#ffffff" stroke-width="0.9259" stroke-linecap="butt"/><path d="M123.92808,149.93795c1.89888,-1.76039 4.57823,-2.91584 7.58418,-3.04855c3.00595,-0.13271 5.77671,0.78212 7.82334,2.36831c2.04663,1.58619 3.36914,3.8436 3.48169,6.39284c0.11255,2.54925 -1.00586,4.91458 -2.90474,6.67497c-1.89889,1.76023 -4.57824,2.91567 -7.5842,3.04838c-3.00595,0.13271 -5.7767,-0.78211 -7.82333,-2.36814c-2.04663,-1.58619 -3.36915,-3.84376 -3.4817,-6.393c-0.11255,-2.54925 1.00587,-4.91442 2.90475,-6.67481z" data-paper-data="{&quot;origPos&quot;:null,&quot;index&quot;:null}" id="ID0.2919205715879798" fill="#ffb197" stroke-width="0.99783" stroke-linecap="round"/><path d="M130.82441,151.48553c0.82106,-0.22323 1.79557,-0.16177 2.72685,0.23902c0.9311,0.4008 1.64567,1.06624 2.04804,1.81582c0.40063,0.75047 0.49023,1.58552 0.17071,2.32783c-0.31935,0.74247 -0.98757,1.25141 -1.80791,1.47623c-0.82106,0.22323 -1.79558,0.16177 -2.72669,-0.23904c-0.93127,-0.40079 -1.64582,-1.06623 -2.04804,-1.81597c-0.40078,-0.7503 -0.49038,-1.58535 -0.17087,-2.32783c0.31952,-0.74231 0.98756,-1.25124 1.8079,-1.47606z" data-paper-data="{&quot;origPos&quot;:null,&quot;index&quot;:null}" id="ID0.41036201547831297" fill="#a27060" stroke-width="0.73984" stroke-linecap="butt"/><path d="M114.38261,162.85937c0.65483,-0.40903 1.57269,-0.68571 2.59781,-0.73097c1.02512,-0.04526 1.96379,0.14946 2.65212,0.49919c0.68833,0.34973 1.128,0.856 1.15359,1.43557c0.02559,0.57957 -0.36775,1.12261 -1.02259,1.53164c-0.65483,0.40903 -1.57269,0.6857 -2.59781,0.73096c-1.02512,0.04526 -1.96379,-0.14946 -2.65212,-0.49918c-0.68833,-0.34973 -1.12799,-0.856 -1.15358,-1.43557c-0.02559,-0.57957 0.36775,-1.12261 1.02258,-1.53164z" data-paper-data="{&quot;origPos&quot;:null,&quot;index&quot;:null}" id="ID0.26917251013219357" fill="#001966" stroke-width="1" stroke-linecap="butt"/><path d="M113.91577,152.28526c0.65483,-0.40903 1.57269,-0.68571 2.59781,-0.73097c1.02512,-0.04526 1.96379,0.14946 2.65212,0.49919c0.68833,0.34973 1.128,0.856 1.15359,1.43557c0.02559,0.57957 -0.36775,1.12261 -1.02259,1.53164c-0.65483,0.40903 -1.57269,0.6857 -2.59781,0.73096c-1.02512,0.04526 -1.96379,-0.14945 -2.65212,-0.49918c-0.68833,-0.34973 -1.12799,-0.856 -1.15358,-1.43557c-0.02559,-0.57957 0.36775,-1.12261 1.02258,-1.53164z" data-paper-data="{&quot;origPos&quot;:null,&quot;index&quot;:null}" id="ID0.26917251013219357" fill="#001966" stroke-width="1" stroke-linecap="butt"/><g data-paper-data="{&quot;origPos&quot;:null,&quot;index&quot;:null}" id="ID0.5137764848768711" fill="#ffffff"><path d="M102.31436,204.64382c1.06322,-3.89743 3.66761,-7.7987 7.55693,-10.77696c3.88933,-2.97843 8.33462,-4.47565 12.3744,-4.48594c4.04,-0.01241 7.67431,1.46212 9.94178,4.42315c2.26747,2.96104 2.74344,6.85408 1.67826,10.75112c-1.06323,3.89728 -3.66777,7.79869 -7.55709,10.77696c-3.88916,2.97826 -8.33464,4.47549 -12.37441,4.4858c-4.04,0.01241 -7.6743,-1.46196 -9.94178,-4.42316c-2.26747,-2.96104 -2.74344,-6.85393 -1.67809,-10.75097z" id="ID0.9694409435614944" stroke-width="0.90437" stroke-linecap="butt"/><path d="M93.34202,219.66552c1.56119,-4.45563 4.93694,-10.80848 8.21867,-16.03042c2.07722,-3.30086 4.7078,-6.88721 6.90118,-8.39582c4.90945,-3.27579 9.39697,-4.74044 13.02585,-5.02665c0.9078,-0.07226 -0.7892,2.64858 -1.45569,4.00971c-2.61161,5.32742 -4.42546,10.15345 -8.21868,16.03026c-3.79337,5.87698 -7.80629,10.83343 -11.22342,14.09105c-3.4173,3.25764 -6.23881,4.81645 -7.65319,3.90353c-1.41456,-0.91307 -1.15608,-4.12618 0.40529,-8.58166z" id="ID0.4074811181053519" stroke-width="1.53181" stroke-linecap="round"/><path d="M103.13625,220.64002c0.80817,-3.28867 2.63172,-7.37446 5.27721,-11.4731c2.64549,-4.09863 5.61785,-7.44322 8.28195,-9.53388c2.66395,-2.0905 5.01947,-2.92738 6.43402,-2.01432c1.41438,0.91291 1.6219,3.40412 0.81389,6.6926c-0.808,3.28866 -2.63172,7.37445 -5.27721,11.47309c-2.64549,4.09863 -5.61786,7.44322 -8.2818,9.53371c-2.66411,2.09067 -5.01963,2.92755 -6.43401,2.01448c-1.41455,-0.91291 -1.62206,-3.40411 -0.81405,-6.6926z" id="ID0.4074811181053519" stroke-width="1.13742" stroke-linecap="butt"/><path d="M114.52459,218.21254c0.68282,-3.09437 2.33348,-6.91228 4.78806,-10.71506c2.45457,-3.80294 5.2539,-6.87929 7.79248,-8.77581c2.53874,-1.89652 4.81692,-2.61322 6.2313,-1.70031c1.41439,0.91307 1.69942,3.28406 1.01677,6.37858c-0.68281,3.09453 -2.33347,6.91228 -4.78806,10.71506c-2.45457,3.80294 -5.2539,6.87929 -7.79264,8.77582c-2.53859,1.89652 -4.81676,2.61322 -6.23114,1.7003c-1.41438,-0.91291 -1.69958,-3.28405 -1.01677,-6.37858z" id="ID0.4074811181053519" stroke-width="1.07474" stroke-linecap="butt"/></g><path d="M151.86277,206.02081c0,0 -8.32288,-5.49225 -9.16845,-24.64442c-0.84557,-19.15217 5.69987,-23.41543 5.69987,-23.41543c0,0 10.18091,4.87153 11.02648,24.0237c0.84557,19.15218 -7.55788,24.03617 -7.55788,24.03617z" data-paper-data="{&quot;origPos&quot;:null,&quot;index&quot;:null}" fill="#ffffff" stroke-width="0" stroke-linecap="butt"/></g></g></g></svg>