<svg version="1.1" xmlns="http://www.w3.org/2000/svg" xmlns:xlink="http://www.w3.org/1999/xlink" width="519.14709" height="72.22196" viewBox="0,0,519.14709,72.22196"><defs><linearGradient x1="72.5045" y1="338.86753" x2="72.5045" y2="413.51538" gradientUnits="userSpaceOnUse" id="color-1"><stop offset="0" stop-color="#ffbe85"/><stop offset="1" stop-color="#e0791d"/></linearGradient></defs><g transform="translate(274.05626,-337.61752)"><g data-paper-data="{&quot;isPaintingLayer&quot;:true}" fill-rule="nonzero" stroke-linejoin="miter" stroke-miterlimit="10" stroke-dasharray="" stroke-dashoffset="0" style="mix-blend-mode: normal"><path d="M243.39615,338.86753l-21.5486,69.72011l-494.65381,-0.98555v-68.73457z" data-paper-data="{&quot;index&quot;:null}" fill="url(#color-1)" stroke="#8c5323" stroke-width="2.5" stroke-linecap="butt"/><g fill="#ffffff" stroke-linecap="butt"><path d="M113.35524,354.98931l9.89911,1.56169c-1.24265,4.75224 -2.05705,7.12836 -2.44329,7.12836c-5.20564,-0.35266 -7.80845,-0.6969 -7.80845,-1.03272v-7.3047c0.05034,-0.23509 0.16791,-0.35266 0.35264,-0.35266zM110.58453,366.97903h0.15116c7.65732,1.39374 11.486,2.2082 11.486,2.44329c-2.19982,12.45995 -3.53478,19.4036 -4.00496,20.83093h-7.98475c-0.23509,0 -0.35266,-0.11755 -0.35266,-0.35264z" stroke="#000000" stroke-width="0"/><g stroke="#8c5323" stroke-width="5"><path d="M60.56003,357.50815c6.38112,1.61206 9.77319,2.56923 10.1762,2.8715c-2.26698,5.42396 -3.48441,8.20307 -3.65234,8.33742c-0.41982,0 -3.14858,-0.95717 -8.18626,-2.8715c-2.92189,2.72038 -4.38281,4.24009 -4.38281,4.5591c-0.21832,5.03771 -0.32745,7.968 -0.32745,8.79082c3.49281,1.61206 5.56669,2.51885 6.22158,2.72035c3.25772,-1.41057 5.1301,-2.26698 5.61704,-2.56923l-0.9068,-2.8967c-0.60452,0.33586 -2.42652,1.09988 -5.46592,2.29218l-0.15116,-0.30227v-1.2342c0,-1.05792 -0.05042,-2.66999 -0.15116,-4.83621c0.78925,-0.20151 5.3904,-0.70525 13.80336,-1.51132c0.20151,1.04114 0.55414,5.48269 1.05792,13.32475c-0.26866,0.30225 -5.32316,2.32576 -15.16352,6.07044c-8.37938,-3.05622 -12.62785,-4.77743 -12.74542,-5.16366c-2.6196,-9.10147 -3.92941,-13.89571 -3.92941,-14.38265c3.44242,-6.19639 5.41553,-9.53806 5.91933,-10.02504c0.41982,-0.20151 4.50877,-1.25942 12.26683,-3.17374z"/><path d="M90.3329,365.0899l0.17629,0.32746l-3.40045,18.03499h0.17631l8.66488,-2.54404v-10.20135c0.03359,-0.23509 0.14271,-0.35266 0.32745,-0.35266c6.51547,0.4534 10.14259,0.6801 10.88146,0.6801c0,0.11753 0.05878,0.17631 0.17631,0.17631c0,2.8715 -0.9068,8.82442 -2.72038,17.85868c0,0.52059 -2.60283,0.91521 -7.80846,1.18387c-0.26866,-0.31908 -0.4954,-0.99918 -0.6801,-2.04028c-6.66657,1.36019 -10.47006,2.04028 -11.41039,2.04028c-5.3232,-3.96299 -7.98478,-6.00326 -7.98478,-6.12083c0.9068,-11.90579 1.47776,-18.0854 1.71283,-18.53881h0.15116c4.24849,-0.11753 8.1611,-0.28543 11.73787,-0.50375z"/><path d="M113.35524,354.98931l9.89911,1.56169c-1.24265,4.75224 -2.05705,7.12836 -2.44329,7.12836c-5.20564,-0.35266 -7.80845,-0.6969 -7.80845,-1.03272v-7.3047c0.05034,-0.23509 0.16791,-0.35266 0.35264,-0.35266zM110.58453,366.97903h0.15116c7.65732,1.39374 11.486,2.2082 11.486,2.44329c-2.19982,12.45995 -3.53478,19.4036 -4.00496,20.83093h-7.98475c-0.23509,0 -0.35266,-0.11755 -0.35266,-0.35264z"/><path d="M139.32468,357.4578h0.15116c7.59015,0.63809 11.3852,1.13347 11.3852,1.48612l3.35009,29.64692c0,0.21832 -3.35009,0.77242 -10.05024,1.66246l-0.15116,-0.32745v-2.69519c-5.77657,1.56169 -9.73961,2.56923 -11.88901,3.02263c-5.10488,-7.22072 -7.78324,-11.06621 -8.03517,-11.53636c3.7615,-6.83449 5.76817,-10.29371 6.02008,-10.37768l10.55399,0.50375c-0.21832,-1.29299 -0.66328,-5.08806 -1.335,-11.3852zM134.63955,375.518c1.696,5.18881 2.75397,8.03517 3.17374,8.53892l5.01252,-4.35761c-0.52059,-3.00585 -0.9068,-4.50875 -1.15868,-4.50875h-6.70014c-0.21832,0.03359 -0.32745,0.14277 -0.32745,0.32745z"/><path d="M171.11259,365.1151c7.60696,3.91264 11.82186,6.19639 12.64468,6.8513c-1.09149,5.10488 -1.73802,7.7329 -1.93952,7.88402h-15.91916v0.27706l4.45835,5.51629l7.00246,-3.57681c0.68847,1.19224 1.67924,3.27451 2.97224,6.24681c-0.60452,0.20151 -5.01252,0.84802 -13.22401,1.93952c-6.80091,-4.48358 -10.22654,-6.81771 -10.27694,-7.00238c1.09149,-8.71521 1.73805,-13.07287 1.93954,-13.07287c7.1032,-3.02265 11.21728,-4.71027 12.34241,-5.06294zM169.47532,371.21076c-0.13432,0.33586 -1.02433,1.67087 -2.66999,4.00502c0,0.70525 0.99075,1.05792 2.97224,1.05792c0,0.10074 1.43577,0.34427 4.30726,0.73046c0.78925,-1.09149 1.18387,-1.72959 1.18387,-1.91433c-0.25185,-1.4945 -0.79763,-2.24179 -1.63727,-2.24179z"/></g><g stroke="#000000" stroke-width="0"><path d="M60.56003,357.50815c6.38112,1.61206 9.77319,2.56923 10.1762,2.8715c-2.26698,5.42396 -3.48441,8.20307 -3.65234,8.33742c-0.41982,0 -3.14858,-0.95717 -8.18626,-2.8715c-2.92189,2.72038 -4.38281,4.24009 -4.38281,4.5591c-0.21832,5.03771 -0.32745,7.968 -0.32745,8.79082c3.49281,1.61206 5.56669,2.51885 6.22158,2.72035c3.25772,-1.41057 5.1301,-2.26698 5.61704,-2.56923l-0.9068,-2.8967c-0.60452,0.33586 -2.42652,1.09988 -5.46592,2.29218l-0.15116,-0.30227v-1.2342c0,-1.05792 -0.05042,-2.66999 -0.15116,-4.83621c0.78925,-0.20151 5.3904,-0.70525 13.80336,-1.51132c0.20151,1.04114 0.55414,5.48269 1.05792,13.32475c-0.26866,0.30225 -5.32316,2.32576 -15.16352,6.07044c-8.37938,-3.05622 -12.62785,-4.77743 -12.74542,-5.16366c-2.6196,-9.10147 -3.92941,-13.89571 -3.92941,-14.38265c3.44242,-6.19639 5.41553,-9.53806 5.91933,-10.02504c0.41982,-0.20151 4.50877,-1.25942 12.26683,-3.17374z"/><path d="M90.3329,365.0899l0.17629,0.32746l-3.40045,18.03499h0.17631l8.66488,-2.54404v-10.20135c0.03359,-0.23509 0.14271,-0.35266 0.32745,-0.35266c6.51547,0.4534 10.14259,0.6801 10.88146,0.6801c0,0.11753 0.05878,0.17631 0.17631,0.17631c0,2.8715 -0.9068,8.82442 -2.72038,17.85868c0,0.52059 -2.60283,0.91521 -7.80846,1.18387c-0.26866,-0.31908 -0.4954,-0.99918 -0.6801,-2.04028c-6.66657,1.36019 -10.47006,2.04028 -11.41039,2.04028c-5.3232,-3.96299 -7.98478,-6.00326 -7.98478,-6.12083c0.9068,-11.90579 1.47776,-18.0854 1.71283,-18.53881h0.15116c4.24849,-0.11753 8.1611,-0.28543 11.73787,-0.50375z"/><path d="M113.35524,354.98931l9.89911,1.56169c-1.24265,4.75224 -2.05705,7.12836 -2.44329,7.12836c-5.20564,-0.35266 -7.80845,-0.6969 -7.80845,-1.03272v-7.3047c0.05034,-0.23509 0.16791,-0.35266 0.35264,-0.35266zM110.58453,366.97903h0.15116c7.65732,1.39374 11.486,2.2082 11.486,2.44329c-2.19982,12.45995 -3.53478,19.4036 -4.00496,20.83093h-7.98475c-0.23509,0 -0.35266,-0.11755 -0.35266,-0.35264z"/><path d="M139.32468,357.4578h0.15116c7.59015,0.63809 11.3852,1.13347 11.3852,1.48612l3.35009,29.64692c0,0.21832 -3.35009,0.77242 -10.05024,1.66246l-0.15116,-0.32745v-2.69519c-5.77657,1.56169 -9.73961,2.56923 -11.88901,3.02263c-5.10488,-7.22072 -7.78324,-11.06621 -8.03517,-11.53636c3.7615,-6.83449 5.76817,-10.29371 6.02008,-10.37768l10.55399,0.50375c-0.21832,-1.29299 -0.66328,-5.08806 -1.335,-11.3852zM134.63955,375.518c1.696,5.18881 2.75397,8.03517 3.17374,8.53892l5.01252,-4.35761c-0.52059,-3.00585 -0.9068,-4.50875 -1.15868,-4.50875h-6.70014c-0.21832,0.03359 -0.32745,0.14277 -0.32745,0.32745z"/><path d="M171.11259,365.1151c7.60696,3.91264 11.82186,6.19639 12.64468,6.8513c-1.09149,5.10488 -1.73802,7.7329 -1.93952,7.88402h-15.91916v0.27706l4.45835,5.51629l7.00246,-3.57681c0.68847,1.19224 1.67924,3.27451 2.97224,6.24681c-0.60452,0.20151 -5.01252,0.84802 -13.22401,1.93952c-6.80091,-4.48358 -10.22654,-6.81771 -10.27694,-7.00238c1.09149,-8.71521 1.73805,-13.07287 1.93954,-13.07287c7.1032,-3.02265 11.21728,-4.71027 12.34241,-5.06294zM169.47532,371.21076c-0.13432,0.33586 -1.02433,1.67087 -2.66999,4.00502c0,0.70525 0.99075,1.05792 2.97224,1.05792c0,0.10074 1.43577,0.34427 4.30726,0.73046c0.78925,-1.09149 1.18387,-1.72959 1.18387,-1.91433c-0.25185,-1.4945 -0.79763,-2.24179 -1.63727,-2.24179z"/></g></g><path d="M-17.54484,343.63479l32.99454,12.0295l-17.48239,47.64826l-32.99454,-12.0295z" data-paper-data="{&quot;origRot&quot;:0}" fill="#ffffff" stroke="#8c5323" stroke-width="3" stroke-linecap="butt"/><g data-paper-data="{&quot;origRot&quot;:0}" fill="none" stroke="#8c5323" stroke-width="3" stroke-linecap="round"><path d="M7.12509,361.09311l-22.24743,-8.07972" data-paper-data="{&quot;origPos&quot;:null}"/><path d="M3.16469,372.29863l-22.24743,-8.07972" data-paper-data="{&quot;origPos&quot;:null}"/><path d="M-23.47412,374.98488l22.24743,8.07972" data-paper-data="{&quot;origPos&quot;:null}"/><path d="M-27.26762,385.63563l22.24743,8.07972" data-paper-data="{&quot;origPos&quot;:null}"/></g></g></g></svg>