<svg version="1.1" xmlns="http://www.w3.org/2000/svg" xmlns:xlink="http://www.w3.org/1999/xlink" width="550.96403" height="330.14152" viewBox="0,0,550.96403,330.14152"><defs><linearGradient x1="289.35124" y1="124.54301" x2="276.35128" y2="124.51552" gradientUnits="userSpaceOnUse" id="color-1"><stop offset="0" stop-color="#cc7700"/><stop offset="1" stop-color="#995900"/></linearGradient><linearGradient x1="528.73769" y1="50.3776" x2="533.58563" y2="63.51143" gradientUnits="userSpaceOnUse" id="color-2"><stop offset="0" stop-color="#b2b2b2"/><stop offset="1" stop-color="#666666"/></linearGradient><linearGradient x1="92.58284" y1="97.5303" x2="79.10101" y2="97.80806" gradientUnits="userSpaceOnUse" id="color-3"><stop offset="0" stop-color="#cc7700"/><stop offset="1" stop-color="#995900"/></linearGradient><linearGradient x1="56.32711" y1="71.38505" x2="47.15985" y2="86.18104" gradientUnits="userSpaceOnUse" id="color-4"><stop offset="0" stop-color="#b2b2b2"/><stop offset="1" stop-color="#666666"/></linearGradient><linearGradient x1="-10.4867" y1="34.0073" x2="-17.3784" y2="46.1935" gradientUnits="userSpaceOnUse" id="color-5"><stop offset="0" stop-color="#b2b2b2"/><stop offset="1" stop-color="#666666"/></linearGradient><linearGradient x1="31.9" y1="63.4081" x2="18.9" y2="63.4081" gradientUnits="userSpaceOnUse" id="color-6"><stop offset="0" stop-color="#cc7700"/><stop offset="1" stop-color="#995900"/></linearGradient></defs><g transform="translate(17.3784,-34.0073)"><g data-paper-data="{&quot;isPaintingLayer&quot;:true}" fill-rule="nonzero" stroke="none" stroke-linecap="butt" stroke-linejoin="miter" stroke-miterlimit="10" stroke-dasharray="" stroke-dashoffset="0" style="mix-blend-mode: normal"><path d="M288.84872,362.24238l-12.99997,-0.02749l0.50251,-237.69937l12.99997,0.02749z" data-paper-data="{&quot;origPos&quot;:null,&quot;origRot&quot;:0}" id="ID0.512201922480017" fill="url(#color-1)" stroke-width="1.42374"/><path d="M533.58563,63.51143l-133.04362,49.10859l-4.84785,-13.13386l133.04352,-49.10857z" data-paper-data="{&quot;origPos&quot;:null,&quot;origRot&quot;:0}" id="ID0.8304188074544072" fill="url(#color-2)" stroke-width="1.38751"/><path d="M23.36311,363.8707l-13.48195,0.27812l69.21985,-266.34077l13.48183,-0.27775z" data-paper-data="{&quot;origPos&quot;:null,&quot;origRot&quot;:0}" id="ID0.512201922480017" fill="url(#color-3)" stroke-width="0.80536"/><path d="M56.32711,71.38505l82.82699,51.31821l-9.16731,14.79588l-82.82694,-51.31808z" data-paper-data="{&quot;origRot&quot;:0}" id="ID0.8304188074544072" fill="url(#color-4)" stroke-width="0.96708"/><path d="M-10.4867,34.0073l68.2181,38.5798l-6.8917,12.1862l-68.2181,-38.5798z" id="ID0.8304188074544072" fill="url(#color-5)" stroke-width="0.96708"/><path d="M31.9,363.008h-13v-299.5999h13z" data-paper-data="{&quot;origPos&quot;:null}" id="ID0.512201922480017" fill="url(#color-6)" stroke-width="0.80536"/></g></g></svg>