<svg version="1.1" xmlns="http://www.w3.org/2000/svg" xmlns:xlink="http://www.w3.org/1999/xlink" width="133" height="117.00347"><defs><linearGradient x1="228.86805" y1="129.64404" x2="228.86805" y2="227.45233" gradientUnits="userSpaceOnUse" id="color-1"><stop offset="0" stop-color="#0052ef"/><stop offset="1" stop-color="#0442a8"/></linearGradient><radialGradient cx="187.83334" cy="223.83158" r="26.66667" gradientUnits="userSpaceOnUse" id="color-2"><stop offset="0" stop-color="#00b865"/><stop offset="1" stop-color="#008c4d"/></radialGradient><radialGradient cx="241.5" cy="224.83158" r="26.66667" gradientUnits="userSpaceOnUse" id="color-3"><stop offset="0" stop-color="#00b865"/><stop offset="1" stop-color="#008c4d"/></radialGradient></defs><g transform="translate(-173.5,-121.49826)"><g data-paper-data="{&quot;isPaintingLayer&quot;:true}" fill="none" fill-rule="nonzero" stroke="none" stroke-width="none" stroke-linecap="none" stroke-linejoin="miter" stroke-miterlimit="10" stroke-dasharray="" stroke-dashoffset="0" font-family="none" font-weight="none" font-size="none" text-anchor="none" style="mix-blend-mode: normal"><path d="M273.13137,155.76927c1.39147,4.52783 1.62615,19.22528 1.45427,23.95897c-0.09141,2.51769 -1.07803,10.09795 -1.38401,12.59864c-0.14407,2.45147 3.01851,2.73886 2.23159,12.33747c-1.23987,2.85716 -2.70768,5.08211 -4.57216,7.57699c-9.80061,13.11431 -23.28529,15.21099 -39.65714,15.21099c-14.15414,0 -26.85612,-1.16924 -37.25012,-10.77676c-5.71532,-5.28286 -10.33376,-13.67005 -9.29925,-16.99142c-0.14776,-1.51763 2.16421,-4.31936 1.90324,-5.82166c-0.75308,-2.73751 -4.38092,-8.40161 -4.38092,-15.67991c0,-18.21432 3.79239,-33.31087 18.73404,-43.72761c9.16746,-6.39121 17.66134,-4.57131 28.83676,-4.57131c0,0 24.09816,2.86534 32.49357,11.25887c0.88412,0.86268 7.68822,4.20779 10.89013,14.62673z" data-paper-data="{&quot;origPos&quot;:null}" fill="url(#color-1)" stroke="#0052ef" stroke-width="0" stroke-linecap="butt"/><path d="M229.5,230.16492c0,7.73198 -11.27241,8.33333 -26,8.33333c-14.72759,0 -27.33333,0.39866 -27.33333,-7.33333c0,-7.73199 7.27241,-16.66667 22,-16.66667c8.56259,0 14.84723,-3.51325 22.52868,0.27004c5.40641,2.66278 8.80465,9.37003 8.80465,15.39662z" data-paper-data="{&quot;origPos&quot;:null}" fill="url(#color-2)" stroke="none" stroke-width="0" stroke-linecap="butt"/><path d="M231.16667,229.83158c0,-6.02659 3.39824,-12.73385 8.80466,-15.39663c7.68145,-3.78329 13.96609,-0.27005 22.52868,-0.27005c14.7276,0 22,8.93468 22,16.66667c0,7.73199 -12.60574,7.33333 -27.33334,7.33333c-14.7276,0 -26,-0.60135 -26,-8.33333z" data-paper-data="{&quot;origPos&quot;:null,&quot;index&quot;:null}" fill="url(#color-3)" stroke="none" stroke-width="0" stroke-linecap="butt"/><path d="M278.83334,167.83158l-2,2.66667l-4,0.66667l-4.33333,-2.33333l-3,-7.66667l-1.66667,-9l1.33333,-8.66667l9.66667,0.33333z" data-paper-data="{&quot;origPos&quot;:null}" fill="#ff7f01" stroke="#ff7f01" stroke-width="0.5" stroke-linecap="round"/><path d="M198.16667,135.83158l-10.66667,20.66667l-3.33333,-0.33333l0.33333,-7.33333l3.33333,-8.66667l3.33333,-4.33333l3,-0.33333z" data-paper-data="{&quot;origPos&quot;:null}" fill="#ff7f01" stroke="#ff7f01" stroke-width="0.5" stroke-linecap="round"/><path d="M277.5,143.83158l10.66667,-2.33333l11.33333,-2l7,-3.33333l-7.66667,13.66667l-3.33333,5l-5,5.66667l-5.66667,4.66667l-4.66667,2.33333l-3.33333,0.66667l-2.66667,-1.33333l-2.66667,-5.33333l-0.66667,-7.33333l0.66667,-6.33333l1.66667,-3.33333z" data-paper-data="{&quot;origPos&quot;:null}" fill="#ffe84f" stroke="#000000" stroke-width="0" stroke-linecap="round"/><path d="M191.5,136.49825l-6.66667,15.66667l-5.33333,-3.33333l-3.33333,-5l-1,-3.33333l-1.66667,-6v-13l9.33333,10z" data-paper-data="{&quot;origPos&quot;:null}" fill="#ffe84f" stroke="#000000" stroke-width="0" stroke-linecap="round"/><g data-paper-data="{&quot;origPos&quot;:null}" stroke-linecap="butt"><path d="M221.55439,164.38355c1.81642,8.58371 -1.37503,20.70343 -8.73286,22.92383c-7.35783,2.22041 -15.22094,-3.11303 -18.65112,-11.18851c-1.05701,-2.48845 2.11393,-16.02372 2.82166,-17.99783c1.36219,-1.07719 24.24421,4.75925 24.56231,6.26251z" data-paper-data="{&quot;origRot&quot;:0,&quot;origPos&quot;:null}" fill="#ffffff" stroke="none" stroke-width="0"/><path d="M251.32128,164.00256c2.21449,10.46484 -1.67637,25.24062 -10.64669,27.94764c-8.97032,2.70702 -19.78814,0.63814 -23.97004,-9.20709c-1.28865,-3.0338 2.33091,-13.13155 3.19374,-15.53829c1.66072,-1.31325 31.03518,-5.03495 31.42299,-3.20226z" data-paper-data="{&quot;origRot&quot;:0,&quot;origPos&quot;:null}" fill="#ffffff" stroke="none" stroke-width="0"/><g data-paper-data="{&quot;origPos&quot;:null}"><path d="M215.744,168.65026c0,3.87679 -2.20545,7.01955 -4.926,7.01955c-2.72055,0 -4.926,-3.14276 -4.926,-7.01955c0,-3.87679 2.20545,-5.54175 4.926,-5.54175c2.72055,0 4.926,1.66496 4.926,5.54175z" data-paper-data="{&quot;origRot&quot;:0,&quot;origPos&quot;:null}" fill="#000000" stroke="#a10114" stroke-width="3"/><path d="M211.2847,166.80301c0,-0.9665 0.7835,-1.75 1.75,-1.75c0.9665,0 1.75,0.7835 1.75,1.75c0,0.9665 -0.7835,1.75 -1.75,1.75c-0.9665,0 -1.75,-0.7835 -1.75,-1.75z" data-paper-data="{&quot;origPos&quot;:null}" fill="#ffffff" stroke="none" stroke-width="0.5"/></g><g data-paper-data="{&quot;origPos&quot;:null}"><path d="M233.79791,171.18726c0,3.87679 -2.20545,7.01955 -4.92601,7.01955c-2.72055,0 -4.926,-3.14276 -4.926,-7.01955c0,-3.87679 2.20544,-5.54175 4.926,-5.54175c2.72056,0 4.92601,1.66496 4.92601,5.54175z" data-paper-data="{&quot;origRot&quot;:0,&quot;origPos&quot;:null}" fill="#000000" stroke="#a10114" stroke-width="3"/><path d="M229.3386,169.34001c0,-0.9665 0.7835,-1.75 1.75,-1.75c0.9665,0 1.75,0.7835 1.75,1.75c0,0.9665 -0.7835,1.75 -1.75,1.75c-0.9665,0 -1.75,-0.7835 -1.75,-1.75z" data-paper-data="{&quot;origPos&quot;:null}" fill="#ffffff" stroke="none" stroke-width="0.5"/></g><path d="M261.82744,160.64061c-0.2414,2.48832 -2.72972,2.24692 -2.72972,2.24692l0.46717,0.15255c-3.75941,1.12783 -7.46106,2.24238 -11.31158,3.01249c-6.48369,1.25993 -12.73267,2.33865 -19.41001,1.73232c-3.99259,-0.36255 -7.97508,-1.20763 -11.97098,-1.57089c-5.26128,-0.50209 -11.18232,-1.71718 -15.71707,-4.5803c-2.99678,-1.89209 -5.30451,-4.06175 -8.67891,-5.2888c0,0 -2.34949,-0.85436 -1.49513,-3.20384c0.85436,-2.34948 3.20384,-1.49513 3.20384,-1.49513c3.89168,1.41516 6.60736,3.87208 10.0399,6.04101c3.63915,2.29948 8.88607,3.18958 13.10004,3.5476c4.14477,0.37679 8.27115,1.2539 12.41273,1.63101c6.00755,0.54702 11.71858,-0.52748 17.535,-1.71588c3.69797,-0.7396 7.2439,-1.81525 10.85543,-2.89871l1.45238,-0.34005c0,0 2.48832,0.2414 2.24692,2.72972z" data-paper-data="{&quot;origPos&quot;:null}" fill="#0442a8" stroke="none" stroke-width="0.5"/></g></g></g></svg>