<svg version="1.1" xmlns="http://www.w3.org/2000/svg" xmlns:xlink="http://www.w3.org/1999/xlink" width="494.00465" height="368.46688" viewBox="0,0,494.00465,368.46688"><defs><linearGradient x1="0" y1="0" x2="0" y2="360" gradientUnits="userSpaceOnUse" id="color-1"><stop offset="0" stop-color="#847cff"/><stop offset="1" stop-color="#7ceeff"/></linearGradient><linearGradient x1="567.8995" y1="308.00442" x2="567.8995" y2="406.00442" gradientUnits="userSpaceOnUse" id="color-2"><stop offset="0" stop-color="#000000" stop-opacity="0"/><stop offset="1" stop-color="#000000"/></linearGradient><radialGradient cx="116.57452" cy="67.26091" r="72.26671" gradientUnits="userSpaceOnUse" id="color-3"><stop offset="0" stop-color="#ffffff" stop-opacity="0"/><stop offset="1" stop-color="#ffffff"/></radialGradient><radialGradient cx="117.43149" cy="67.68299" r="72.26671" gradientUnits="userSpaceOnUse" id="color-4"><stop offset="0" stop-color="#ffffff"/><stop offset="1" stop-color="#ffffff" stop-opacity="0"/></radialGradient><radialGradient cx="86.28923" cy="80.47356" r="72.26671" gradientUnits="userSpaceOnUse" id="color-5"><stop offset="0" stop-color="#ffffff" stop-opacity="0"/><stop offset="1" stop-color="#ffffff"/></radialGradient><radialGradient cx="87.1462" cy="80.89565" r="72.26671" gradientUnits="userSpaceOnUse" id="color-6"><stop offset="0" stop-color="#ffffff"/><stop offset="1" stop-color="#ffffff" stop-opacity="0"/></radialGradient><radialGradient cx="356.41046" cy="58.7474" r="72.26672" gradientUnits="userSpaceOnUse" id="color-7"><stop offset="0" stop-color="#ffffff" stop-opacity="0"/><stop offset="1" stop-color="#ffffff"/></radialGradient><radialGradient cx="355.5535" cy="59.16948" r="72.26671" gradientUnits="userSpaceOnUse" id="color-8"><stop offset="0" stop-color="#ffffff"/><stop offset="1" stop-color="#ffffff" stop-opacity="0"/></radialGradient><radialGradient cx="386.69575" cy="71.96005" r="72.26671" gradientUnits="userSpaceOnUse" id="color-9"><stop offset="0" stop-color="#ffffff" stop-opacity="0"/><stop offset="1" stop-color="#ffffff"/></radialGradient><radialGradient cx="385.83878" cy="72.38214" r="72.26671" gradientUnits="userSpaceOnUse" id="color-10"><stop offset="0" stop-color="#ffffff"/><stop offset="1" stop-color="#ffffff" stop-opacity="0"/></radialGradient></defs><g transform="translate(7.5075,0)"><g data-paper-data="{&quot;isPaintingLayer&quot;:true}" fill-rule="nonzero" stroke-linejoin="miter" stroke-miterlimit="10" stroke-dasharray="" stroke-dashoffset="0" style="mix-blend-mode: normal"><path d="M0,0h480v360h-480z" data-paper-data="{&quot;origPos&quot;:null}" fill="url(#color-1)" stroke="none" stroke-width="1" stroke-linecap="butt"/><path d="M366.93811,214.5h29v145.5h-29z" fill="#91ede6" stroke="none" stroke-width="0.99156" stroke-linecap="butt"/><path d="M116.5,169h27v191h-27z" fill="#91ede6" stroke="none" stroke-width="1" stroke-linecap="butt"/><path d="M203.50001,119.5h100.5v240.5h-100.5z" fill="#91ede6" stroke="none" stroke-width="1" stroke-linecap="butt"/><path d="M0,187h115v173h-115z" fill="#8a8e8b" stroke="#626462" stroke-width="2" stroke-linecap="butt"/><path d="M144,135h59v225h-59z" fill="#8a8e8b" stroke="#626462" stroke-width="2" stroke-linecap="butt"/><path d="M397.00001,236h83v124h-83z" fill="#8a8e8b" stroke="#626462" stroke-width="2" stroke-linecap="butt"/><path d="M-5,168c0,-1.587 3.389,0.537 5,0c1.787,-0.596 1.99917,-2.99958 4,-4c2.00083,-1.00042 6.702,-1.901 10,-3c0.825,-0.275 10.659,-1.911 15,-2c11.986,-0.245 39.984,0.798 42,1c7.98,0.798 16.033,1.081 24,2c1.992,0.23 7.379,1.418 10,2c3.394,0.754 7.107,1.072 10,3c3.336,2.224 5.564,5.815 8,9c1.908,2.495 3.595,5.19 5,8c0.351,0.702 0,1.334 0,2c0,1.665 0.49,3.409 0,5c-0.876,2.847 -1.963,5.827 -4,8c-3.098,3.304 -6.87,6.141 -11,8c-2.75,1.237 -6.012,1.407 -9,1c-4.488,-0.612 -8.826,-2.242 -13,-4c-2.213,-0.932 -3.629,-3.621 -6,-4c-6.248,-1 -12.796,-1.241 -19,0c-4.091,0.818 -6.978,4.89 -11,6c-5.814,1.604 -11.991,2.515 -18,2c-5.879,-0.504 -11.214,-3.843 -17,-5c-2.612,-0.522 -5.393,-0.549 -8,0c-3.814,0.803 -7.617,5.41 -11,4c-2.617,-1.09 -6,-39.413 -6,-40z" data-paper-data="{&quot;origPos&quot;:null}" fill="#4ec8a5" stroke="#36876d" stroke-width="2" stroke-linecap="round"/><path d="M160.80001,123.2c2.967,0.539 8.915,0.347 12.2,-0.2c2.806,-0.468 13.14,-4.8 19.8,-4.8c1.665,0 9.683,1.209 10.2,1.8c2.069,2.364 5.915,4.995 5,8c-1.862,6.12 -6.017,12.736 -12,15c-7.792,2.949 -15.673,-0.869 -24,-0.6c-2.105,0.068 -4.896,1.691 -7,1.6c-5.743,-0.25 -12.674,0.785 -17,-3c-4.84,-4.235 -8.061,-6.894 -6.8,-13.2c0.73,-3.651 5.288,-7.514 9,-7.8c0,0 8.258,3.065 10.6,3.2z" data-paper-data="{&quot;origPos&quot;:null}" fill="#4ec8a5" stroke="#36876d" stroke-width="2" stroke-linecap="round"/><path d="M399.00001,245c-2.991,0.354 -5.275,0.062 -7,-1c-2.808,-1.728 -6.285,-3.782 -7,-7c-1.447,-6.51 -1.109,-13.674 1,-20c0.849,-2.547 11.411,-9.857 16,-10c18.354,-0.574 33.692,2.573 52,4c7.334,0.571 25.878,-0.734 26,0c0.219,1.314 7.422,33.175 5,41.65c-0.703,3.65 -2.393,-9.411 -7.25,-10.4c-4.646,-0.933 -9.027,4.989 -13.75,3.75c-3.217,-0.842 -8.967,-7.079 -12.25,-7.5c-6.251,-0.408 -11.495,6.461 -17.75,6.5c-8.033,0.049 -12.483,-5.372 -20.5,-5.5c-5.474,0.128 -10.199,4.551 -15.5,5.5z" data-paper-data="{&quot;origPos&quot;:null}" fill="#4ec8a5" stroke="#36876d" stroke-width="2" stroke-linecap="round"/><path d="M305.00001,137h61v223h-61z" data-paper-data="{&quot;origPos&quot;:null}" fill="#8a8e8b" stroke="#626462" stroke-width="2" stroke-linecap="butt"/><path d="M314.00001,117c0.977,-0.326 -2.08,-0.917 0,-1c8.318,-0.333 16.678,-0.219 25,0c4.34,0.114 8.713,0.314 13,1c4.067,0.651 8.135,1.576 12,3c2.519,0.928 5.232,1.98 7,4c0.877,1.002 0,2.668 0,4c0,2.664 1.478,5.783 0,8c-2.255,3.382 -6.489,4.952 -10,7c-0.878,0.512 -1.229,-0.28 -2,0c-3.082,1.121 -5.743,3.617 -9,4c-2.727,0.321 -5.414,-1.076 -8,-2c-2.104,-0.751 -3.78,-2.753 -6,-3c-3.985,-0.443 -8.015,0.557 -12,1c-2.013,0.224 -4.052,1.556 -6,1c-7.611,-2.175 -17.609,-2.414 -22,-9c-2.984,-4.476 2.196,-11.196 6,-15c2.913,-2.913 8.092,-1.697 11,-3z" data-paper-data="{&quot;origPos&quot;:null}" fill="#4ec8a5" stroke="#36876d" stroke-width="2" stroke-linecap="round"/><path d="M123,219.5v-13.5" fill="none" stroke="#99ffff" stroke-width="2" stroke-linecap="round"/><path d="M135.5,213.5v38.5" fill="none" stroke="#99ffff" stroke-width="2" stroke-linecap="round"/><path d="M125.5,240v41.5" fill="none" stroke="#99ffff" stroke-width="2" stroke-linecap="round"/><path d="M135,305.5v-27.5" fill="none" stroke="#99ffff" stroke-width="2" stroke-linecap="round"/><path d="M122,343v-37.5" fill="none" stroke="#99ffff" stroke-width="2" stroke-linecap="round"/><path d="M134.5,322v17.5" fill="none" stroke="#00ffff" stroke-width="2" stroke-linecap="round"/><path d="M217.50001,131v33.5" fill="none" stroke="#99ffff" stroke-width="2" stroke-linecap="round"/><path d="M236.00001,201.5v-44.5" fill="none" stroke="#99ffff" stroke-width="2" stroke-linecap="round"/><path d="M215.00001,228v-34" fill="none" stroke="#99ffff" stroke-width="2" stroke-linecap="round"/><path d="M238.00001,228v27" fill="none" stroke="#99ffff" stroke-width="2" stroke-linecap="round"/><path d="M220.00001,256v31" fill="none" stroke="#99ffff" stroke-width="2" stroke-linecap="round"/><path d="M234.00001,288.5v25.5" fill="none" stroke="#99ffff" stroke-width="2" stroke-linecap="round"/><path d="M217.50001,317.5v25" fill="none" stroke="#00ffff" stroke-width="2" stroke-linecap="round"/><path d="M245.50001,305v28" fill="none" stroke="#00ffff" stroke-width="2" stroke-linecap="round"/><path d="M263.00001,313v-37.5" fill="none" stroke="#99ffff" stroke-width="2" stroke-linecap="round"/><path d="M246.00001,273.5v-26" fill="none" stroke="#99ffff" stroke-width="2" stroke-linecap="round"/><path d="M271.50001,217.5v37" fill="none" stroke="#99ffff" stroke-width="2" stroke-linecap="round"/><path d="M258.50001,194v28" fill="none" stroke="#99ffff" stroke-width="2" stroke-linecap="round"/><path d="M281.00001,194.5v-47" fill="none" stroke="#99ffff" stroke-width="2" stroke-linecap="round"/><path d="M263.00001,169v-22.5" fill="none" stroke="#99ffff" stroke-width="2" stroke-linecap="round"/><path d="M244.00001,148.5v-21.5" fill="none" stroke="#99ffff" stroke-width="2" stroke-linecap="round"/><path d="M294.50001,213.5v-40.5" fill="none" stroke="#99ffff" stroke-width="2" stroke-linecap="round"/><path d="M289.00001,278v-43" fill="none" stroke="#99ffff" stroke-width="2" stroke-linecap="round"/><path d="M280.00001,320.5v-25.5" fill="none" stroke="#99ffff" stroke-width="2" stroke-linecap="round"/><path d="M291.50001,318.5v22" fill="none" stroke="#00ffff" stroke-width="2" stroke-linecap="round"/><path d="M374.00001,316.5v25.5" fill="none" stroke="#00ffff" stroke-width="2" stroke-linecap="round"/><path d="M386.50001,322v-27.5" fill="none" stroke="#99ffff" stroke-width="2" stroke-linecap="round"/><path d="M379.00001,265v34.5" fill="none" stroke="#99ffff" stroke-width="2" stroke-linecap="round"/><path d="M371.50001,267v-24" fill="none" stroke="#99ffff" stroke-width="2" stroke-linecap="round"/><path d="M389.00001,247.5v19" fill="none" stroke="#99ffff" stroke-width="2" stroke-linecap="round"/><path d="M379.00001,234v-12.5" fill="none" stroke="#99ffff" stroke-width="2" stroke-linecap="round"/><path d="M109.5,337.5c2.759,0 5.259,1.121 7.069,2.931c1.81,1.81 2.931,4.31 2.931,7.069c0,2.759 -1.121,5.259 -2.931,7.069c-1.81,1.81 -4.31,2.931 -7.069,2.931c-2.759,0 -5.259,-1.121 -7.069,-2.931c-1.81,-1.81 -2.931,-4.31 -2.931,-7.069c0,-2.759 1.121,-5.259 2.931,-7.069c1.81,-1.81 4.31,-2.931 7.069,-2.931z" fill="#ffffff" stroke="none" stroke-width="1" stroke-linecap="butt"/><path d="M117,327.65c2.759,0 5.259,1.121 7.069,2.931c1.81,1.81 2.931,4.31 2.931,7.069c0,2.759 -1.121,5.259 -2.931,7.069c-1.81,1.81 -4.31,2.931 -7.069,2.931c-2.759,0 -5.259,-1.121 -7.069,-2.931c-1.81,-1.81 -2.931,-4.31 -2.931,-7.069c0,-2.759 1.121,-5.259 2.931,-7.069c1.81,-1.81 4.31,-2.931 7.069,-2.931z" fill="#ffffff" stroke="none" stroke-width="1" stroke-linecap="butt"/><path d="M131,337.15c2.759,0 5.259,1.121 7.069,2.931c1.81,1.81 2.931,4.31 2.931,7.069c0,2.759 -1.121,5.259 -2.931,7.069c-1.81,1.81 -4.31,2.931 -7.069,2.931c-2.759,0 -5.259,-1.121 -7.069,-2.931c-1.81,-1.81 -2.931,-4.31 -2.931,-7.069c0,-2.759 1.121,-5.259 2.931,-7.069c1.81,-1.81 4.31,-2.931 7.069,-2.931z" fill="#ffffff" stroke="none" stroke-width="1" stroke-linecap="butt"/><path d="M144,316.65c2.759,0 5.259,1.121 7.069,2.931c1.81,1.81 2.931,4.31 2.931,7.069c0,2.759 -1.121,5.259 -2.931,7.069c-1.81,1.81 -4.31,2.931 -7.069,2.931c-2.759,0 -5.259,-1.121 -7.069,-2.931c-1.81,-1.81 -2.931,-4.31 -2.931,-7.069c0,-2.759 1.121,-5.259 2.931,-7.069c1.81,-1.81 4.31,-2.931 7.069,-2.931z" fill="#ffffff" stroke="none" stroke-width="1" stroke-linecap="butt"/><path d="M129,318.65c2.759,0 5.259,1.121 7.069,2.931c1.81,1.81 2.931,4.31 2.931,7.069c0,2.759 -1.121,5.259 -2.931,7.069c-1.81,1.81 -4.31,2.931 -7.069,2.931c-2.759,0 -5.259,-1.121 -7.069,-2.931c-1.81,-1.81 -2.931,-4.31 -2.931,-7.069c0,-2.759 1.121,-5.259 2.931,-7.069c1.81,-1.81 4.31,-2.931 7.069,-2.931z" fill="#ffffff" stroke="none" stroke-width="1" stroke-linecap="butt"/><path d="M153,334.65c2.759,0 5.259,1.121 7.069,2.931c1.81,1.81 2.931,4.31 2.931,7.069c0,2.759 -1.121,5.259 -2.931,7.069c-1.81,1.81 -4.31,2.931 -7.069,2.931c-2.759,0 -5.259,-1.121 -7.069,-2.931c-1.81,-1.81 -2.931,-4.31 -2.931,-7.069c0,-2.759 1.121,-5.259 2.931,-7.069c1.81,-1.81 4.31,-2.931 7.069,-2.931z" fill="#ffffff" stroke="none" stroke-width="1" stroke-linecap="butt"/><path d="M202.50001,341.65c2.759,0 5.259,1.121 7.069,2.931c1.81,1.81 2.931,4.31 2.931,7.069c0,2.759 -1.121,5.259 -2.931,7.069c-1.81,1.81 -4.31,2.931 -7.069,2.931c-2.759,0 -5.259,-1.121 -7.069,-2.931c-1.81,-1.81 -2.931,-4.31 -2.931,-7.069c0,-2.759 1.121,-5.259 2.931,-7.069c1.81,-1.81 4.31,-2.931 7.069,-2.931z" fill="#ffffff" stroke="none" stroke-width="1" stroke-linecap="butt"/><path d="M229.00001,320.15c2.759,0 5.259,1.121 7.069,2.931c1.81,1.81 2.931,4.31 2.931,7.069c0,2.759 -1.121,5.259 -2.931,7.069c-1.81,1.81 -4.31,2.931 -7.069,2.931c-2.759,0 -5.259,-1.121 -7.069,-2.931c-1.81,-1.81 -2.931,-4.31 -2.931,-7.069c0,-2.759 1.121,-5.259 2.931,-7.069c1.81,-1.81 4.31,-2.931 7.069,-2.931z" fill="#ffffff" stroke="none" stroke-width="1" stroke-linecap="butt"/><path d="M245.50001,332.15c2.759,0 5.259,1.121 7.069,2.931c1.81,1.81 2.931,4.31 2.931,7.069c0,2.759 -1.121,5.259 -2.931,7.069c-1.81,1.81 -4.31,2.931 -7.069,2.931c-2.759,0 -5.259,-1.121 -7.069,-2.931c-1.81,-1.81 -2.931,-4.31 -2.931,-7.069c0,-2.759 1.121,-5.259 2.931,-7.069c1.81,-1.81 4.31,-2.931 7.069,-2.931z" fill="#ffffff" stroke="none" stroke-width="1" stroke-linecap="butt"/><path d="M265.50001,317.65c2.759,0 5.259,1.121 7.069,2.931c1.81,1.81 2.931,4.31 2.931,7.069c0,2.759 -1.121,5.259 -2.931,7.069c-1.81,1.81 -4.31,2.931 -7.069,2.931c-2.759,0 -5.259,-1.121 -7.069,-2.931c-1.81,-1.81 -2.931,-4.31 -2.931,-7.069c0,-2.759 1.121,-5.259 2.931,-7.069c1.81,-1.81 4.31,-2.931 7.069,-2.931z" fill="#ffffff" stroke="none" stroke-width="1" stroke-linecap="butt"/><path d="M292.00001,309.15c2.759,0 5.259,1.121 7.069,2.931c1.81,1.81 2.931,4.31 2.931,7.069c0,2.759 -1.121,5.259 -2.931,7.069c-1.81,1.81 -4.31,2.931 -7.069,2.931c-2.759,0 -5.259,-1.121 -7.069,-2.931c-1.81,-1.81 -2.931,-4.31 -2.931,-7.069c0,-2.759 1.121,-5.259 2.931,-7.069c1.81,-1.81 4.31,-2.931 7.069,-2.931z" fill="#ffffff" stroke="none" stroke-width="1" stroke-linecap="butt"/><path d="M297.00001,331.15c2.759,0 5.259,1.121 7.069,2.931c1.81,1.81 2.931,4.31 2.931,7.069c0,2.759 -1.121,5.259 -2.931,7.069c-1.81,1.81 -4.31,2.931 -7.069,2.931c-2.759,0 -5.259,-1.121 -7.069,-2.931c-1.81,-1.81 -2.931,-4.31 -2.931,-7.069c0,-2.759 1.121,-5.259 2.931,-7.069c1.81,-1.81 4.31,-2.931 7.069,-2.931z" fill="#ffffff" stroke="none" stroke-width="1" stroke-linecap="butt"/><path d="M266.00001,335.65c2.759,0 5.259,1.121 7.069,2.931c1.81,1.81 2.931,4.31 2.931,7.069c0,2.759 -1.121,5.259 -2.931,7.069c-1.81,1.81 -4.31,2.931 -7.069,2.931c-2.759,0 -5.259,-1.121 -7.069,-2.931c-1.81,-1.81 -2.931,-4.31 -2.931,-7.069c0,-2.759 1.121,-5.259 2.931,-7.069c1.81,-1.81 4.31,-2.931 7.069,-2.931z" fill="#ffffff" stroke="none" stroke-width="1" stroke-linecap="butt"/><path d="M253.00001,336.15c2.759,0 5.259,1.121 7.069,2.931c1.81,1.81 2.931,4.31 2.931,7.069c0,2.759 -1.121,5.259 -2.931,7.069c-1.81,1.81 -4.31,2.931 -7.069,2.931c-2.759,0 -5.259,-1.121 -7.069,-2.931c-1.81,-1.81 -2.931,-4.31 -2.931,-7.069c0,-2.759 1.121,-5.259 2.931,-7.069c1.81,-1.81 4.31,-2.931 7.069,-2.931z" fill="#ffffff" stroke="none" stroke-width="1" stroke-linecap="butt"/><path d="M217.50001,339.65c2.759,0 5.259,1.121 7.069,2.931c1.81,1.81 2.931,4.31 2.931,7.069c0,2.759 -1.121,5.259 -2.931,7.069c-1.81,1.81 -4.31,2.931 -7.069,2.931c-2.759,0 -5.259,-1.121 -7.069,-2.931c-1.81,-1.81 -2.931,-4.31 -2.931,-7.069c0,-2.759 1.121,-5.259 2.931,-7.069c1.81,-1.81 4.31,-2.931 7.069,-2.931z" fill="#ffffff" stroke="none" stroke-width="1" stroke-linecap="butt"/><path d="M234.50001,335.15c2.759,0 5.259,1.121 7.069,2.931c1.81,1.81 2.931,4.31 2.931,7.069c0,2.759 -1.121,5.259 -2.931,7.069c-1.81,1.81 -4.31,2.931 -7.069,2.931c-2.759,0 -5.259,-1.121 -7.069,-2.931c-1.81,-1.81 -2.931,-4.31 -2.931,-7.069c0,-2.759 1.121,-5.259 2.931,-7.069c1.81,-1.81 4.31,-2.931 7.069,-2.931z" fill="#ffffff" stroke="none" stroke-width="1" stroke-linecap="butt"/><path d="M275.00001,336.15c2.759,0 5.259,1.121 7.069,2.931c1.81,1.81 2.931,4.31 2.931,7.069c0,2.759 -1.121,5.259 -2.931,7.069c-1.81,1.81 -4.31,2.931 -7.069,2.931c-2.759,0 -5.259,-1.121 -7.069,-2.931c-1.81,-1.81 -2.931,-4.31 -2.931,-7.069c0,-2.759 1.121,-5.259 2.931,-7.069c1.81,-1.81 4.31,-2.931 7.069,-2.931z" fill="#ffffff" stroke="none" stroke-width="1" stroke-linecap="butt"/><path d="M293.50001,336.15c2.759,0 5.259,1.121 7.069,2.931c1.81,1.81 2.931,4.31 2.931,7.069c0,2.759 -1.121,5.259 -2.931,7.069c-1.81,1.81 -4.31,2.931 -7.069,2.931c-2.759,0 -5.259,-1.121 -7.069,-2.931c-1.81,-1.81 -2.931,-4.31 -2.931,-7.069c0,-2.759 1.121,-5.259 2.931,-7.069c1.81,-1.81 4.31,-2.931 7.069,-2.931z" fill="#ffffff" stroke="none" stroke-width="1" stroke-linecap="butt"/><path d="M274.00001,311.65c2.759,0 5.259,1.121 7.069,2.931c1.81,1.81 2.931,4.31 2.931,7.069c0,2.759 -1.121,5.259 -2.931,7.069c-1.81,1.81 -4.31,2.931 -7.069,2.931c-2.759,0 -5.259,-1.121 -7.069,-2.931c-1.81,-1.81 -2.931,-4.31 -2.931,-7.069c0,-2.759 1.121,-5.259 2.931,-7.069c1.81,-1.81 4.31,-2.931 7.069,-2.931z" fill="#ffffff" stroke="none" stroke-width="1" stroke-linecap="butt"/><path d="M244.50001,294.65c2.759,0 5.259,1.121 7.069,2.931c1.81,1.81 2.931,4.31 2.931,7.069c0,2.759 -1.121,5.259 -2.931,7.069c-1.81,1.81 -4.31,2.931 -7.069,2.931c-2.759,0 -5.259,-1.121 -7.069,-2.931c-1.81,-1.81 -2.931,-4.31 -2.931,-7.069c0,-2.759 1.121,-5.259 2.931,-7.069c1.81,-1.81 4.31,-2.931 7.069,-2.931z" fill="#ffffff" stroke="none" stroke-width="1" stroke-linecap="butt"/><path d="M206.00001,316.15c2.759,0 5.259,1.121 7.069,2.931c1.81,1.81 2.931,4.31 2.931,7.069c0,2.759 -1.121,5.259 -2.931,7.069c-1.81,1.81 -4.31,2.931 -7.069,2.931c-2.759,0 -5.259,-1.121 -7.069,-2.931c-1.81,-1.81 -2.931,-4.31 -2.931,-7.069c0,-2.759 1.121,-5.259 2.931,-7.069c1.81,-1.81 4.31,-2.931 7.069,-2.931z" fill="#ffffff" stroke="none" stroke-width="1" stroke-linecap="butt"/><path d="M362.50001,334.65c2.759,0 5.259,1.121 7.069,2.931c1.81,1.81 2.931,4.31 2.931,7.069c0,2.759 -1.121,5.259 -2.931,7.069c-1.81,1.81 -4.31,2.931 -7.069,2.931c-2.759,0 -5.259,-1.121 -7.069,-2.931c-1.81,-1.81 -2.931,-4.31 -2.931,-7.069c0,-2.759 1.121,-5.259 2.931,-7.069c1.81,-1.81 4.31,-2.931 7.069,-2.931z" fill="#ffffff" stroke="none" stroke-width="1" stroke-linecap="butt"/><path d="M376.00001,308.65c2.759,0 5.259,1.121 7.069,2.931c1.81,1.81 2.931,4.31 2.931,7.069c0,2.759 -1.121,5.259 -2.931,7.069c-1.81,1.81 -4.31,2.931 -7.069,2.931c-2.759,0 -5.259,-1.121 -7.069,-2.931c-1.81,-1.81 -2.931,-4.31 -2.931,-7.069c0,-2.759 1.121,-5.259 2.931,-7.069c1.81,-1.81 4.31,-2.931 7.069,-2.931z" fill="#ffffff" stroke="none" stroke-width="1" stroke-linecap="butt"/><path d="M393.00001,333.15c2.759,0 5.259,1.121 7.069,2.931c1.81,1.81 2.931,4.31 2.931,7.069c0,2.759 -1.121,5.259 -2.931,7.069c-1.81,1.81 -4.31,2.931 -7.069,2.931c-2.759,0 -5.259,-1.121 -7.069,-2.931c-1.81,-1.81 -2.931,-4.31 -2.931,-7.069c0,-2.759 1.121,-5.259 2.931,-7.069c1.81,-1.81 4.31,-2.931 7.069,-2.931z" fill="#ffffff" stroke="none" stroke-width="1" stroke-linecap="butt"/><path d="M380.00001,335.15c2.759,0 5.259,1.121 7.069,2.931c1.81,1.81 2.931,4.31 2.931,7.069c0,2.759 -1.121,5.259 -2.931,7.069c-1.81,1.81 -4.31,2.931 -7.069,2.931c-2.759,0 -5.259,-1.121 -7.069,-2.931c-1.81,-1.81 -2.931,-4.31 -2.931,-7.069c0,-2.759 1.121,-5.259 2.931,-7.069c1.81,-1.81 4.31,-2.931 7.069,-2.931z" fill="#ffffff" stroke="none" stroke-width="1" stroke-linecap="butt"/><path d="M400.50001,320.15c2.759,0 5.259,1.121 7.069,2.931c1.81,1.81 2.931,4.31 2.931,7.069c0,2.759 -1.121,5.259 -2.931,7.069c-1.81,1.81 -4.31,2.931 -7.069,2.931c-2.759,0 -5.259,-1.121 -7.069,-2.931c-1.81,-1.81 -2.931,-4.31 -2.931,-7.069c0,-2.759 1.121,-5.259 2.931,-7.069c1.81,-1.81 4.31,-2.931 7.069,-2.931z" fill="#ffffff" stroke="none" stroke-width="1" stroke-linecap="butt"/><path d="M368.50001,324.65c2.759,0 5.259,1.121 7.069,2.931c1.81,1.81 2.931,4.31 2.931,7.069c0,2.759 -1.121,5.259 -2.931,7.069c-1.81,1.81 -4.31,2.931 -7.069,2.931c-2.759,0 -5.259,-1.121 -7.069,-2.931c-1.81,-1.81 -2.931,-4.31 -2.931,-7.069c0,-2.759 1.121,-5.259 2.931,-7.069c1.81,-1.81 4.31,-2.931 7.069,-2.931z" fill="#ffffff" stroke="none" stroke-width="1" stroke-linecap="butt"/><path d="M486.00603,366.96999l-493.51352,1.49689c0,-20.15415 0,-40.3083 0,-60.46246h490.88069c0.19361,6.68646 2.63283,58.96557 2.63283,58.96557z" data-paper-data="{&quot;origPos&quot;:null,&quot;index&quot;:null}" fill="url(#color-2)" stroke="none" stroke-width="1.22826" stroke-linecap="butt"/><g data-paper-data="{&quot;index&quot;:null}" stroke="none" stroke-width="0" stroke-linecap="butt"><g><path d="M44.30781,67.26091c0,-17.66009 32.35491,-31.97642 72.26671,-31.97642c39.9118,0 72.26671,14.31633 72.26671,31.97642c0,17.66009 -32.35491,31.97642 -72.26671,31.97642c-39.9118,0 -72.26671,-14.31633 -72.26671,-31.97642z" fill="url(#color-3)"/><path d="M45.16478,67.68299c0,-17.66009 32.35491,-31.97642 72.26671,-31.97642c39.9118,0 72.26671,14.31633 72.26671,31.97642c0,17.66009 -32.35491,31.97642 -72.26671,31.97642c-39.9118,0 -72.26671,-14.31633 -72.26671,-31.97642z" fill="url(#color-4)"/></g><g><path d="M14.02252,80.47356c0,-17.66009 32.35491,-31.97642 72.26671,-31.97642c39.9118,0 72.26671,14.31633 72.26671,31.97642c0,17.66009 -32.35491,31.97642 -72.26671,31.97642c-39.9118,0 -72.26671,-14.31633 -72.26671,-31.97642z" fill="url(#color-5)"/><path d="M14.87949,80.89565c0,-17.66009 32.35491,-31.97642 72.26671,-31.97642c39.9118,0 72.26671,14.31633 72.26671,31.97642c0,17.66009 -32.35491,31.97642 -72.26671,31.97642c-39.9118,0 -72.26671,-14.31633 -72.26671,-31.97642z" fill="url(#color-6)"/></g></g><g stroke="none" stroke-width="0" stroke-linecap="butt"><g><path d="M428.67718,58.7474c0,-17.66009 -32.35491,-31.97642 -72.26672,-31.97642c-39.91181,0 -72.26671,14.31633 -72.26671,31.97642c0,17.66009 32.35491,31.97642 72.26671,31.97642c39.91181,0 72.26672,-14.31633 72.26672,-31.97642z" fill="url(#color-7)"/><path d="M427.82021,59.16948c0,-17.66009 -32.35491,-31.97642 -72.26671,-31.97642c-39.9118,0 -72.26671,14.31633 -72.26671,31.97642c0,17.66009 32.35491,31.97642 72.26671,31.97642c39.9118,0 72.26671,-14.31633 72.26671,-31.97642z" fill="url(#color-8)"/></g><g><path d="M458.96246,71.96005c0,-17.66009 -32.35491,-31.97642 -72.26671,-31.97642c-39.9118,0 -72.26671,14.31633 -72.26671,31.97642c0,17.66009 32.35492,31.97642 72.26671,31.97642c39.9118,0 72.26671,-14.31633 72.26671,-31.97642z" fill="url(#color-9)"/><path d="M458.10549,72.38214c0,-17.66009 -32.35491,-31.97641 -72.26671,-31.97641c-39.9118,0 -72.26671,14.31633 -72.26671,31.97641c0,17.66009 32.35491,31.97643 72.26671,31.97643c39.9118,0 72.26671,-14.31634 72.26671,-31.97643z" fill="url(#color-10)"/></g></g></g></g></svg>