<svg version="1.1" xmlns="http://www.w3.org/2000/svg" xmlns:xlink="http://www.w3.org/1999/xlink" width="553.92088" height="157.51327" viewBox="0,0,553.92088,157.51327"><g transform="translate(32.59318,-205.70422)"><g data-paper-data="{&quot;isPaintingLayer&quot;:true}" fill-rule="nonzero" stroke-linecap="butt" stroke-linejoin="miter" stroke-miterlimit="10" stroke-dasharray="" stroke-dashoffset="0" style="mix-blend-mode: normal"><g stroke-width="7"><g fill="#674521" stroke="#4b3318"><path d="M98.21255,359.7175v-25.91041h130.29661v25.91041z"/><path d="M2.86156,359.7175v-25.91041h94.30862v25.91041z"/><path d="M230.34468,359.7175v-25.91041h130.29661v25.91041z"/><path d="M362.47682,359.7175v-25.91041h130.29661v25.91041z"/></g><g><path d="M21.63597,295.15293v-25.91041h130.29661v25.91041z" fill="#674521" stroke="#4b3318"/><path d="M60.20376,327.61541v-25.91041h130.29661v25.91042z" fill="#805c39" stroke="#674521"/><path d="M-19.66097,295.15293v-25.91041h40.25457v25.91041z" fill="#674521" stroke="#4b3318"/><path d="M-29.09318,327.61541v-25.91041h88.25457v25.91042z" fill="#805c39" stroke="#674521"/><path d="M153.7681,295.15293v-25.91041h130.29661v25.91041z" fill="#674521" stroke="#4b3318"/><path d="M192.33589,327.61541v-25.91041h130.29661v25.91042z" fill="#805c39" stroke="#674521"/><path d="M285.90024,295.15293v-25.91041h130.29661v25.91041z" fill="#674521" stroke="#4b3318"/><path d="M324.46803,327.61541v-25.91041h130.29661v25.91042z" fill="#805c39" stroke="#674521"/></g><path d="M419.53387,295.15292v-25.91041h86.75307v25.91041z" fill="#674521" stroke="#4b3318"/><path d="M458.10166,327.6154v-25.91041h59.72604v25.91042z" fill="#805c39" stroke="#674521"/><g fill="#805c39" stroke="#674521"><path d="M118.76232,263.05084v-25.91041h130.29661v25.91042z"/><path d="M-8.07215,263.05084v-25.91041h125.7921v25.91042z"/><path d="M250.89445,263.05084v-25.91041h130.29661v25.91042z"/><path d="M383.02659,263.05084v-25.91041h106.27259v25.91042z"/></g></g><path d="M-3,206.3709h487v27.70871h-487z" data-paper-data="{&quot;origPos&quot;:null,&quot;index&quot;:null}" fill="#ececec" stroke="none" stroke-width="1"/><path d="M0.5,234.11904v-28.41481h43.5v28.41481z" data-paper-data="{&quot;origPos&quot;:null,&quot;index&quot;:null}" fill="#616161" stroke="none" stroke-width="0"/><path d="M87.497,234.45238v-28.41481h43.5v28.41481z" data-paper-data="{&quot;origPos&quot;:null,&quot;index&quot;:null}" fill="#616161" stroke="none" stroke-width="0"/><path d="M350.497,234.45238v-28.41481h43.5v28.41481z" data-paper-data="{&quot;origPos&quot;:null,&quot;index&quot;:null}" fill="#616161" stroke="none" stroke-width="0"/><path d="M436.5,234.45238v-28.41481h43.5v28.41481z" data-paper-data="{&quot;origPos&quot;:null,&quot;index&quot;:null}" fill="#616161" stroke="none" stroke-width="0"/><path d="M174.497,234.45238v-28.41481h43.5v28.41481z" data-paper-data="{&quot;origPos&quot;:null,&quot;index&quot;:null}" fill="#616161" stroke="none" stroke-width="0"/><path d="M261.497,234.34838v-28.41481h43.5v28.41481z" data-paper-data="{&quot;origPos&quot;:null,&quot;index&quot;:null}" fill="#616161" stroke="none" stroke-width="0"/><path d="M-1,234.70423v-29h45l-32.14286,27.51282z" data-paper-data="{&quot;origPos&quot;:null,&quot;index&quot;:null}" fill="#cc1919" stroke="none" stroke-width="0"/><path d="M468.42857,233.21705l-31.42857,-27.51282h44v29z" data-paper-data="{&quot;origPos&quot;:null,&quot;index&quot;:null}" fill="#cc1919" stroke="none" stroke-width="0"/></g></g></svg>