<svg version="1.1" xmlns="http://www.w3.org/2000/svg" xmlns:xlink="http://www.w3.org/1999/xlink" width="54.49589" height="55.43061" viewBox="0,0,54.49589,55.43061"><g transform="translate(-212.75206,-152.28469)"><g data-paper-data="{&quot;isPaintingLayer&quot;:true}" fill-rule="nonzero" stroke="none" stroke-linejoin="miter" stroke-miterlimit="10" stroke-dasharray="" stroke-dashoffset="0" style="mix-blend-mode: normal"><path d="" data-paper-data="{&quot;origPos&quot;:null}" fill="#000000" stroke-width="1" stroke-linecap="butt"/><g><path d="M252.81162,174.1229c-1.43597,-3.2622 -2.03233,-6.52848 -1.83843,-9.17019c0.1939,-2.64171 1.18105,-4.65777 2.91426,-5.42065c1.73321,-0.76287 3.88676,-0.12909 5.96575,1.51218c2.07899,1.64127 4.08475,4.28732 5.52072,7.54954c1.43571,3.2622 2.03233,6.52848 1.83843,9.17019c-0.19418,2.64171 -1.18105,4.65777 -2.91426,5.42065c-1.73348,0.76287 -3.88676,0.12909 -5.96575,-1.51218c-2.07925,-1.64127 -4.08502,-4.28705 -5.52072,-7.54954z" fill="#15cf5b" stroke-width="0.7908" stroke-linecap="butt"/><path d="M231.07778,163.72094c-2.3,-1.31367 -3.69368,-3.07345 -3.63483,-4.9664c0.05885,-1.89267 1.55882,-3.56242 3.93613,-4.731c2.37729,-1.16831 5.62919,-1.83762 9.19189,-1.72697c3.56269,0.11092 6.76686,0.98064 9.06686,2.29431c2.3,1.31394 3.69368,3.07373 3.63483,4.9664c-0.05885,1.89295 -1.55882,3.56269 -3.93613,4.73127c-2.37729,1.16831 -5.62919,1.83762 -9.19189,1.72697c-3.56269,-0.11092 -6.76686,-0.98064 -9.06686,-2.29458z" fill="#15cf5b" stroke-width="0.7908" stroke-linecap="butt"/><path d="M240.9941,182.66906l-3.97978,-2.68565l14.35896,-21.27878l3.97978,2.68565z" fill="#15cf5b" stroke-width="0.37637" stroke-linecap="butt"/><path d="M224.96658,202.41832c-5.24111,-3.53665 -9.01887,-8.1806 -10.88795,-12.82617c-1.87071,-4.64502 -1.83219,-9.2925 0.5592,-12.83621c2.39113,-3.54371 6.68659,-5.31868 11.6942,-5.3222c5.00735,-0.00516 10.72766,1.76006 15.96879,5.29698c5.24138,3.53665 9.01887,8.18087 10.88821,12.82617c1.87043,4.6453 1.83192,9.29277 -0.5592,12.83648c-2.39141,3.54344 -6.68659,5.3184 -11.69447,5.32193c-5.00735,0.00516 -10.72766,-1.76006 -15.96879,-5.29698z" fill="#4bbbff" stroke-width="0.3841" stroke-linecap="butt"/><path d="M226.75348,199.76088c-4.22874,-2.85378 -7.27697,-6.60089 -8.78509,-10.34907c-1.5092,-3.74791 -1.47829,-7.498 0.45127,-10.35721c1.92929,-2.85921 5.39516,-4.29112 9.43568,-4.2941c4.04027,-0.00406 8.65573,1.42024 12.88475,4.27377c4.22874,2.85378 7.27697,6.60089 8.78509,10.34907c1.5092,3.74819 1.47829,7.498 -0.45127,10.35721c-1.92929,2.85921 -5.39516,4.2914 -9.43568,4.29438c-4.04027,0.00406 -8.65573,-1.42024 -12.88475,-4.27404z" fill="#a5e8ff" stroke-width="0.30992" stroke-linecap="butt"/><path d="M228.41127,197.15632c-3.21041,-2.1663 -5.52452,-5.01114 -6.66951,-7.85652c-1.14579,-2.84538 -1.1222,-5.69211 0.34252,-7.86276c1.46472,-2.17065 4.09587,-3.25759 7.16334,-3.26004c3.06722,-0.00298 6.57106,1.07827 9.78146,3.24457c3.21041,2.16658 5.52425,5.01114 6.66923,7.85652c1.14579,2.84538 1.1222,5.69211 -0.34252,7.86276c-1.46472,2.17065 -4.09587,3.25787 -7.16308,3.26004c-3.06722,0.00326 -6.57106,-1.07827 -9.78146,-3.24457z" fill="#ffffff" stroke-width="0.23528" stroke-linecap="butt"/><g stroke-width="0.3841"><path d="M234.89397,195.11829c-0.45533,-0.32354 -0.64572,-1.01888 -0.54755,-1.56831c0.192,-1.0818 0.62348,-1.98948 1.33916,-3.04986c0.71541,-1.06011 1.39041,-1.81484 2.32685,-2.38299c0.50199,-0.30618 1.22932,-0.31893 1.71666,0.02224c0.46429,0.30075 0.75094,0.96925 0.66308,1.58351c-0.15105,1.08423 -0.62374,1.98948 -1.33916,3.04986c-0.71541,1.06011 -1.36574,1.85037 -2.32712,2.38299c-0.55378,0.30862 -1.32696,0.28692 -1.83192,-0.03742z" fill="#000000" stroke-linecap="round"/><path d="M235.41742,194.52899c-0.23838,-0.16082 -0.38889,-0.40326 -0.43988,-0.66497c-0.05072,-0.2617 -0.0019,-0.54294 0.15892,-0.78105c0.16082,-0.23838 0.40326,-0.38889 0.66497,-0.43988c0.2617,-0.05072 0.54294,-0.0019 0.78132,0.15892c0.23838,0.16082 0.38889,0.40326 0.4396,0.66497c0.05099,0.2617 0.0019,0.54294 -0.15892,0.78132c-0.16082,0.23811 -0.40326,0.38889 -0.66497,0.4396c-0.2617,0.05099 -0.54266,0.0019 -0.78105,-0.15892z" fill="#ffffff" stroke-linecap="butt"/></g><g stroke-width="0.3841"><path d="M227.97855,190.50797c-0.45533,-0.32354 -0.64572,-1.01888 -0.54755,-1.56831c0.192,-1.0818 0.62348,-1.98948 1.33916,-3.04986c0.71541,-1.06011 1.39041,-1.81484 2.32685,-2.38299c0.50199,-0.30618 1.22932,-0.31893 1.71666,0.02224c0.46429,0.30075 0.75094,0.96925 0.66308,1.58351c-0.15105,1.08423 -0.62374,1.98948 -1.33916,3.04986c-0.71541,1.06011 -1.36574,1.85037 -2.32712,2.38299c-0.55378,0.30862 -1.32696,0.28692 -1.83192,-0.03742z" fill="#000000" stroke-linecap="round"/><path d="M228.50186,189.91867c-0.23838,-0.16082 -0.38889,-0.40326 -0.43988,-0.66497c-0.05072,-0.2617 -0.0019,-0.54294 0.15892,-0.78105c0.16082,-0.23838 0.40326,-0.38889 0.66497,-0.43988c0.2617,-0.05072 0.54294,-0.0019 0.78132,0.15892c0.23838,0.16082 0.38889,0.40326 0.4396,0.66497c0.05099,0.2617 0.0019,0.54294 -0.15892,0.78132c-0.16082,0.23811 -0.40326,0.38889 -0.66497,0.4396c-0.2617,0.05099 -0.54266,0.0019 -0.78105,-0.15892z" fill="#ffffff" stroke-linecap="butt"/></g></g></g></g></svg>