<svg version="1.1" xmlns="http://www.w3.org/2000/svg" xmlns:xlink="http://www.w3.org/1999/xlink" width="437" height="90.79587" viewBox="0,0,437,90.79587"><defs><linearGradient x1="240" y1="135.60206" x2="240" y2="224.39795" gradientUnits="userSpaceOnUse" id="color-1"><stop offset="0" stop-color="#ffffff"/><stop offset="1" stop-color="#d8d8d8"/></linearGradient><linearGradient x1="240" y1="135.60208" x2="240" y2="224.39795" gradientUnits="userSpaceOnUse" id="color-2"><stop offset="0" stop-color="#343434"/><stop offset="1" stop-color="#090909"/></linearGradient><radialGradient cx="443.8065" cy="206.54466" r="17.9081" gradientUnits="userSpaceOnUse" id="color-3"><stop offset="0" stop-color="#ffffff"/><stop offset="1" stop-color="#e5e5e5"/></radialGradient></defs><g transform="translate(-21.5,-134.60208)"><g data-paper-data="{&quot;isPaintingLayer&quot;:true}" fill-rule="nonzero" stroke-linejoin="miter" stroke-miterlimit="10" stroke-dasharray="" stroke-dashoffset="0" style="mix-blend-mode: normal"><path d="M22.5,224.39795v-88.79587h435v88.79587z" data-paper-data="{&quot;origPos&quot;:null}" fill="url(#color-1)" stroke="url(#color-2)" stroke-width="2" stroke-linecap="butt"/><g data-paper-data="{&quot;origPos&quot;:null}"><path d="M444.3058,202.09868c2.5136,0 4.7909,1.0212 6.4406,2.6702c1.6489,1.6496 2.6702,3.9269 2.6702,6.4405c0,2.5136 -1.0213,4.791 -2.6702,6.4406c-1.6497,1.649 -3.927,2.6702 -6.4406,2.6702c-2.5136,0 -4.7909,-1.0212 -6.4406,-2.6702c-1.6489,-1.6496 -2.6701,-3.927 -2.6701,-6.4406c0,-2.5136 1.0212,-4.7909 2.6701,-6.4405c1.6497,-1.649 3.927,-2.6702 6.4406,-2.6702z" fill="url(#color-3)" stroke="#000000" stroke-width="2.0785" stroke-linecap="butt"/><path d="M441.2734,206.54886l5.6119,0.4503l1.7321,3.187l-3.6374,2.9446l3.3603,-0.5197l0.7967,3.4642l-7.4479,-0.0693l-1.9053,-2.4249l4.6766,-3.3256l-4.5727,-0.3464z" fill="#000000" stroke="none" stroke-width="0.69283" stroke-linecap="round"/></g><g data-paper-data="{&quot;origPos&quot;:null}" stroke="none" stroke-width="1" stroke-linecap="butt"><path d="M34.759,146.48206c2.449,0.547 3.81,0.86 4.083,0.939v0.064c-0.085,2.194 -0.148,3.47 -0.191,3.828c0.14,0 0.769,0.146 1.887,0.438c1.002,-3.093 1.546,-4.64 1.631,-4.64c1.677,0.754 2.744,1.255 3.2,1.504v0.064c-1.842,4.284 -2.887,6.648 -3.136,7.091c-0.462,0.383 -2.072,1.847 -4.831,4.393h-0.063l-5.086,-2.506c0.468,-0.802 1.033,-1.723 1.695,-2.762c0.03,0 0.826,0.523 2.388,1.568h0.064c0.522,-0.425 1.148,-1.033 1.877,-1.823c0,-0.036 -1.191,-1.206 -3.573,-3.509v-4.521z" data-paper-data="{&quot;origPos&quot;:null}" fill="#000000"/><path d="M50.035,149.24406c2.309,0.62 3.534,0.997 3.673,1.13c1.27,1.799 1.984,2.835 2.142,3.108c-0.82,2.601 -1.291,3.902 -1.412,3.902c-2.735,0.638 -4.166,0.957 -4.293,0.957c-2.261,-1.319 -3.464,-2.054 -3.61,-2.206c-0.079,-2.455 -0.118,-3.81 -0.118,-4.065c-0.037,-0.073 -0.055,-0.128 -0.055,-0.164c2.333,-1.775 3.54,-2.662 3.619,-2.662zM49.807,152.58006c-0.036,0.243 -0.091,1.127 -0.164,2.652l2.033,0.456c0.486,-1.519 0.729,-2.33 0.729,-2.433c-1.616,-0.486 -2.482,-0.73 -2.598,-0.73z" data-paper-data="{&quot;origPos&quot;:null}" fill="#000000"/><path d="M61.602,149.23508l0.063,0.119l-1.23,6.526h0.064l3.135,-0.921v-3.691c0.012,-0.085 0.052,-0.128 0.119,-0.128c2.357,0.164 3.67,0.246 3.937,0.246c0,0.043 0.021,0.064 0.064,0.064c0,1.039 -0.328,3.193 -0.984,6.462c0,0.189 -0.942,0.331 -2.826,0.429c-0.097,-0.116 -0.179,-0.362 -0.246,-0.739c-2.412,0.492 -3.789,0.739 -4.129,0.739c-1.926,-1.434 -2.889,-2.173 -2.889,-2.215c0.328,-4.308 0.534,-6.545 0.62,-6.709h0.054c1.538,-0.042 2.953,-0.103 4.248,-0.182z" data-paper-data="{&quot;origPos&quot;:null}" fill="#000000"/><path d="M78.819,146.47308h0.055c2.746,0.231 4.12,0.411 4.12,0.538l1.212,10.728c0,0.079 -1.212,0.28 -3.637,0.602l-0.055,-0.119v-0.975c-2.09,0.565 -3.524,0.929 -4.302,1.094c-1.847,-2.613 -2.816,-4.005 -2.907,-4.175c1.361,-2.473 2.087,-3.725 2.178,-3.755l3.819,0.182c-0.079,-0.468 -0.24,-1.841 -0.483,-4.12zM77.124,153.00908c0.613,1.877 0.996,2.907 1.148,3.089l1.814,-1.576c-0.188,-1.088 -0.328,-1.632 -0.419,-1.632h-2.425c-0.079,0.012 -0.118,0.052 -0.118,0.119z" data-paper-data="{&quot;origPos&quot;:null}" fill="#000000"/><path d="M88.827,149.24406c2.309,0.62 3.533,0.997 3.673,1.13c1.27,1.799 1.984,2.835 2.142,3.108c-0.82,2.601 -1.291,3.902 -1.413,3.902c-2.734,0.638 -4.165,0.957 -4.293,0.957c-2.26,-1.319 -3.463,-2.054 -3.609,-2.206c-0.079,-2.455 -0.119,-3.81 -0.119,-4.065c-0.036,-0.073 -0.054,-0.128 -0.054,-0.164c2.333,-1.775 3.539,-2.662 3.618,-2.662zM88.599,152.58006c-0.036,0.243 -0.091,1.127 -0.164,2.652l2.032,0.456c0.487,-1.519 0.73,-2.33 0.73,-2.433c-1.617,-0.486 -2.483,-0.73 -2.598,-0.73z" data-paper-data="{&quot;origPos&quot;:null}" fill="#000000"/><path d="M103.565,149.23508l3.035,2.087c-0.212,3.464 -0.361,5.487 -0.446,6.071c-0.353,0.042 -1.425,0.106 -3.218,0.191l-0.064,-0.128l-0.319,-4.867l-0.127,-0.064c-1.161,0.25 -1.96,0.438 -2.397,0.566c0.121,2.072 0.182,3.569 0.182,4.493c-1.811,0.504 -2.801,0.757 -2.971,0.757c-1.179,-5.19 -1.769,-7.93 -1.769,-8.222c2.565,-0.334 3.956,-0.501 4.175,-0.501v0.064c0.042,0.03 0.106,0.662 0.191,1.896c2.352,-1.562 3.594,-2.343 3.728,-2.343z" data-paper-data="{&quot;origPos&quot;:null}" fill="#000000"/><path d="M110.137,144.96006l0.036,0.073l-0.255,3.354h-0.036c-1.191,-0.054 -1.787,-0.127 -1.787,-0.218l-0.51,-2.953c0,-0.049 0.85,-0.134 2.552,-0.256z" data-paper-data="{&quot;origPos&quot;:null}" fill="#000000"/><path d="M113.764,146.48206l4.011,0.711l-0.383,3.045c0.796,-0.043 1.379,-0.064 1.75,-0.064h0.583l0.128,-0.064l0.064,0.128c-0.128,1.847 -0.237,2.886 -0.328,3.117l-0.128,-0.073c-0.091,0 -0.911,-0.043 -2.461,-0.128c-0.085,1.428 -0.149,3.136 -0.191,5.123l-0.128,0.064c-1.957,-0.128 -3.123,-0.237 -3.5,-0.329l0.064,-0.255c0,-0.528 0.085,-2.169 0.255,-4.922c-1.641,-0.091 -2.461,-0.2 -2.461,-0.328c0.085,-2.029 0.195,-3.044 0.328,-3.044l2.397,0.456v-0.784c0,-0.638 -0.024,-1.501 -0.073,-2.589c0.049,0 0.073,-0.021 0.073,-0.064z" data-paper-data="{&quot;origPos&quot;:null}" fill="#000000"/><path d="M129.596,146.48206c0.037,0.055 0.207,1.72 0.511,4.995c2.345,-0.717 3.594,-1.075 3.746,-1.075l2.324,1.586c-0.377,3.463 -0.623,5.487 -0.738,6.07l-3.227,0.109c0,-0.036 -0.021,-0.054 -0.064,-0.054l0.064,-0.228c0,-0.492 0.073,-1.987 0.219,-4.485c-0.887,-0.036 -1.546,-0.054 -1.978,-0.054h-0.228c0.262,2.777 0.392,4.29 0.392,4.539l-3.062,0.456c-0.116,-0.389 -0.796,-4.02 -2.042,-10.892c0,-0.195 0.474,-0.347 1.422,-0.456c1.197,-0.34 2.084,-0.511 2.661,-0.511z" data-paper-data="{&quot;origPos&quot;:null}" fill="#000000"/><path d="M138.419,149.23508c3.61,0.498 5.414,0.805 5.414,0.921c1.422,1.221 2.133,1.874 2.133,1.959c-0.577,1.805 -0.905,2.902 -0.984,3.291c0.577,1.282 0.905,2.047 0.984,2.297c0,0.072 -0.942,0.267 -2.825,0.583c-0.025,-0.103 -0.198,-0.334 -0.52,-0.693c-2.601,0.498 -4.001,0.748 -4.202,0.748l-1.385,-3.747l3.053,-1.613c0.492,0.079 1.261,0.119 2.306,0.119c0,-0.134 0.019,-0.538 0.055,-1.213c-0.176,0 -1.75,0.116 -4.721,0.347l-0.055,-0.119c0.413,-1.92 0.662,-2.88 0.747,-2.88zM140.315,154.59407c0,0.067 0.195,0.778 0.583,2.133h0.055c0.766,-0.498 1.149,-0.826 1.149,-0.984l0.118,-0.975c-0.146,0 -0.781,-0.058 -1.905,-0.174z" data-paper-data="{&quot;origPos&quot;:null}" fill="#000000"/><path d="M150.387,149.23508c1.488,3.415 2.281,5.186 2.379,5.314c0.735,-2.789 1.163,-4.275 1.285,-4.457c2.321,0.213 3.482,0.395 3.482,0.547v0.064c-1.629,4.472 -2.504,6.814 -2.625,7.027c-1.799,0.328 -3.002,0.532 -3.61,0.611l-4.457,-6.599v-0.128c0.043,-0.079 1.225,-0.872 3.546,-2.379z" data-paper-data="{&quot;origPos&quot;:null}" fill="#000000"/><path d="M163.676,149.24406c2.752,1.416 4.278,2.242 4.575,2.479c-0.395,1.848 -0.629,2.799 -0.701,2.853h-5.761v0.1l1.613,1.997l2.534,-1.295c0.249,0.432 0.608,1.185 1.076,2.261c-0.219,0.073 -1.814,0.307 -4.785,0.702c-2.461,-1.623 -3.701,-2.467 -3.719,-2.534c0.395,-3.154 0.629,-4.731 0.702,-4.731c2.57,-1.094 4.059,-1.704 4.466,-1.832zM163.083,151.45008c-0.048,0.121 -0.37,0.605 -0.966,1.449c0,0.255 0.359,0.383 1.076,0.383c0,0.036 0.519,0.125 1.558,0.264c0.286,-0.395 0.429,-0.626 0.429,-0.692c-0.091,-0.541 -0.289,-0.812 -0.593,-0.812z" data-paper-data="{&quot;origPos&quot;:null}" fill="#000000"/><path d="M178.879,149.24406c2.753,1.416 4.278,2.242 4.575,2.479c-0.395,1.848 -0.628,2.799 -0.701,2.853h-5.761v0.1l1.614,1.997l2.533,-1.295c0.249,0.432 0.608,1.185 1.076,2.261c-0.219,0.073 -1.814,0.307 -4.785,0.702c-2.461,-1.623 -3.701,-2.467 -3.719,-2.534c0.395,-3.154 0.629,-4.731 0.702,-4.731c2.57,-1.094 4.059,-1.704 4.466,-1.832zM178.286,151.45008c-0.048,0.121 -0.37,0.605 -0.966,1.449c0,0.255 0.359,0.383 1.076,0.383c0,0.036 0.519,0.125 1.558,0.264c0.286,-0.395 0.429,-0.626 0.429,-0.692c-0.091,-0.541 -0.289,-0.812 -0.593,-0.812z" data-paper-data="{&quot;origPos&quot;:null}" fill="#000000"/><path d="M192.378,149.23508l3.035,2.087c-0.213,3.464 -0.362,5.487 -0.447,6.071c-0.352,0.042 -1.425,0.106 -3.217,0.191l-0.064,-0.128l-0.319,-4.867l-0.128,-0.064c-1.16,0.25 -1.959,0.438 -2.397,0.566c0.122,2.072 0.182,3.569 0.182,4.493c-1.81,0.504 -2.801,0.757 -2.971,0.757c-1.179,-5.19 -1.768,-7.93 -1.768,-8.222c2.564,-0.334 3.956,-0.501 4.174,-0.501v0.064c0.043,0.03 0.107,0.662 0.192,1.896c2.351,-1.562 3.594,-2.343 3.728,-2.343z" data-paper-data="{&quot;origPos&quot;:null}" fill="#000000"/><path d="M199.988,149.24406c2.309,0.62 3.534,0.997 3.673,1.13c1.27,1.799 1.984,2.835 2.142,3.108c-0.82,2.601 -1.291,3.902 -1.412,3.902c-2.735,0.638 -4.166,0.957 -4.293,0.957c-2.261,-1.319 -3.464,-2.054 -3.61,-2.206c-0.079,-2.455 -0.118,-3.81 -0.118,-4.065c-0.037,-0.073 -0.055,-0.128 -0.055,-0.164c2.333,-1.775 3.54,-2.662 3.619,-2.662zM199.76,152.58006c-0.036,0.243 -0.091,1.127 -0.164,2.652l2.033,0.456c0.486,-1.519 0.729,-2.33 0.729,-2.433c-1.616,-0.486 -2.482,-0.73 -2.598,-0.73z" data-paper-data="{&quot;origPos&quot;:null}" fill="#000000"/><path d="M211.555,149.23508l0.064,0.119l-1.231,6.526h0.064l3.135,-0.921v-3.691c0.012,-0.085 0.052,-0.128 0.119,-0.128c2.357,0.164 3.67,0.246 3.937,0.246c0,0.043 0.022,0.064 0.064,0.064c0,1.039 -0.328,3.193 -0.984,6.462c0,0.189 -0.942,0.331 -2.826,0.429c-0.097,-0.116 -0.179,-0.362 -0.246,-0.739c-2.412,0.492 -3.789,0.739 -4.129,0.739c-1.926,-1.434 -2.889,-2.173 -2.889,-2.215c0.328,-4.308 0.535,-6.545 0.62,-6.709h0.054c1.538,-0.042 2.953,-0.103 4.248,-0.182z" data-paper-data="{&quot;origPos&quot;:null}" fill="#000000"/><path d="M225.427,149.26206c2.583,0.067 3.874,0.18 3.874,0.338c0.443,6.726 0.665,10.305 0.665,10.737c-1.956,1.245 -3.357,2.09 -4.202,2.534c-2.977,-0.936 -4.466,-1.471 -4.466,-1.605c0.96,-1.403 1.516,-2.114 1.668,-2.132c1.623,0.802 2.555,1.203 2.798,1.203l0.866,-1.14c-0.231,-0.942 -0.386,-1.498 -0.465,-1.668c-0.133,0 -1.78,0.268 -4.94,0.802c-1.731,-2.813 -2.597,-4.256 -2.597,-4.329c1.494,-2.388 2.406,-3.789 2.734,-4.202h0.064c0.176,0 1.489,0.289 3.937,0.866v-0.2c0,-0.237 -0.021,-0.617 -0.063,-1.14zM222.438,153.19106c0.085,0.188 0.352,1.191 0.802,3.008c0.565,-0.183 1.431,-0.517 2.597,-1.003c-0.225,-1.094 -0.337,-1.717 -0.337,-1.868l-0.328,-0.064h-0.401c-0.511,0 -1.288,-0.025 -2.333,-0.073z" data-paper-data="{&quot;origPos&quot;:null}" fill="#000000"/><path d="M235.034,146.48206c0.036,0.055 0.206,1.72 0.51,4.995c2.346,-0.717 3.594,-1.075 3.746,-1.075l2.325,1.586c-0.377,3.463 -0.623,5.487 -0.739,6.07l-3.226,0.109c0,-0.036 -0.021,-0.054 -0.064,-0.054l0.064,-0.228c0,-0.492 0.073,-1.987 0.219,-4.485c-0.888,-0.036 -1.547,-0.054 -1.978,-0.054h-0.228c0.261,2.777 0.392,4.29 0.392,4.539l-3.063,0.456c-0.115,-0.389 -0.796,-4.02 -2.041,-10.892c0,-0.195 0.474,-0.347 1.421,-0.456c1.197,-0.34 2.085,-0.511 2.662,-0.511z" data-paper-data="{&quot;origPos&quot;:null}" fill="#000000"/><path d="M251.677,149.24406c0.188,0.778 0.319,1.258 0.392,1.44c2.686,-0.613 4.105,-0.92 4.257,-0.92c1.829,2.631 2.743,4.004 2.743,4.12l-2.096,4.447l-4.512,-0.72v0.137c0.352,2.704 0.529,4.141 0.529,4.311c-0.043,0 -0.064,0.022 -0.064,0.064c-0.438,-0.042 -0.766,-0.064 -0.985,-0.064h-0.783c-0.456,0 -1.155,-0.021 -2.097,-0.063c-0.085,-0.256 -0.738,-4.135 -1.959,-11.64c0.206,-0.085 1.731,-0.456 4.575,-1.112zM252.005,152.97206c0.122,1.398 0.231,2.096 0.328,2.096c1.246,0.432 2.009,0.648 2.288,0.648l0.72,-3.136h-0.064c-0.711,0.043 -1.801,0.173 -3.272,0.392z" data-paper-data="{&quot;origPos&quot;:null}" fill="#2b70c2"/><path d="M263.681,149.24406c2.309,0.62 3.533,0.997 3.673,1.13c1.27,1.799 1.984,2.835 2.142,3.108c-0.82,2.601 -1.291,3.902 -1.413,3.902c-2.734,0.638 -4.165,0.957 -4.293,0.957c-2.26,-1.319 -3.463,-2.054 -3.609,-2.206c-0.079,-2.455 -0.118,-3.81 -0.118,-4.065c-0.037,-0.073 -0.055,-0.128 -0.055,-0.164c2.333,-1.775 3.539,-2.662 3.618,-2.662zM263.453,152.58006c-0.036,0.243 -0.091,1.127 -0.164,2.652l2.033,0.456c0.486,-1.519 0.729,-2.33 0.729,-2.433c-1.617,-0.486 -2.482,-0.73 -2.598,-0.73z" data-paper-data="{&quot;origPos&quot;:null}" fill="#2b70c2"/><path d="M274.327,149.23508c0.079,0.103 0.489,1.866 1.23,5.287h0.064c0,-0.079 0.45,-0.775 1.349,-2.088c0.377,0.256 1.094,0.808 2.151,1.659h0.128v-0.064c0.164,-2.369 0.285,-3.682 0.364,-3.937c2.504,0.127 3.756,0.231 3.756,0.31c-1.149,4.618 -1.763,7.018 -1.842,7.2c-0.382,0.043 -1.185,0.164 -2.406,0.365c-1.002,-1.574 -1.577,-2.412 -1.723,-2.516c-0.656,1.75 -1.066,2.713 -1.23,2.89h-2.461c-0.152,-0.049 -0.869,-1.629 -2.151,-4.74c-0.82,-1.738 -1.23,-2.68 -1.23,-2.826c0,-0.133 1.333,-0.647 4.001,-1.54z" data-paper-data="{&quot;origPos&quot;:null}" fill="#2b70c2"/><path d="M289.53,149.24406c2.753,1.416 4.278,2.242 4.575,2.479c-0.394,1.848 -0.628,2.799 -0.701,2.853h-5.761v0.1l1.614,1.997l2.533,-1.295c0.25,0.432 0.608,1.185 1.076,2.261c-0.219,0.073 -1.814,0.307 -4.785,0.702c-2.461,-1.623 -3.701,-2.467 -3.719,-2.534c0.395,-3.154 0.629,-4.731 0.702,-4.731c2.57,-1.094 4.059,-1.704 4.466,-1.832zM288.938,151.45008c-0.049,0.121 -0.371,0.605 -0.967,1.449c0,0.255 0.359,0.383 1.076,0.383c0,0.036 0.519,0.125 1.558,0.264c0.286,-0.395 0.429,-0.626 0.429,-0.692c-0.091,-0.541 -0.289,-0.812 -0.593,-0.812z" data-paper-data="{&quot;origPos&quot;:null}" fill="#2b70c2"/><path d="M301.479,149.23508c1.203,0.675 1.942,1.112 2.215,1.313c-0.984,2.047 -1.513,3.089 -1.586,3.126h-0.064l-1.303,-1.139l-1.54,1.877l0.173,3.418c-0.079,0.073 -1.085,0.243 -3.017,0.511c-0.073,-0.523 -0.547,-3.084 -1.422,-7.684c0,-0.073 1.27,-0.261 3.81,-0.565c0.042,0.048 0.158,0.617 0.346,1.704c1.519,-1.707 2.315,-2.561 2.388,-2.561z" data-paper-data="{&quot;origPos&quot;:null}" fill="#2b70c2"/><path d="M316.4,149.23508c1.75,1.118 2.716,1.762 2.898,1.932c-0.632,1.404 -0.993,2.106 -1.084,2.106l-3.318,-1.923h-0.119c0,0.06 -0.142,0.401 -0.428,1.021c3.056,1.646 4.585,2.491 4.585,2.533c-0.857,1.981 -1.34,3.026 -1.45,3.136l-5.186,0.301c-2.017,-1.337 -3.102,-2.042 -3.254,-2.115v-0.055c0,-0.152 0.301,-0.835 0.903,-2.05l4.047,2.105l0.3,-1.203c-2.503,-1.124 -3.992,-1.826 -4.466,-2.106v-0.127c0,-0.231 0.483,-1.255 1.449,-3.072z" data-paper-data="{&quot;origPos&quot;:null}" fill="#2b70c2"/><path d="M322.926,146.48206l4.01,0.711l-0.383,3.045c0.796,-0.043 1.38,-0.064 1.75,-0.064h0.584l0.127,-0.064l0.064,0.128c-0.127,1.847 -0.237,2.886 -0.328,3.117l-0.128,-0.073c-0.091,0 -0.911,-0.043 -2.461,-0.128c-0.085,1.428 -0.148,3.136 -0.191,5.123l-0.128,0.064c-1.956,-0.128 -3.123,-0.237 -3.5,-0.329l0.064,-0.255c0,-0.528 0.085,-2.169 0.255,-4.922c-1.64,-0.091 -2.46,-0.2 -2.46,-0.328c0.085,-2.029 0.194,-3.044 0.328,-3.044l2.397,0.456v-0.784c0,-0.638 -0.024,-1.501 -0.073,-2.589c0.049,0 0.073,-0.021 0.073,-0.064z" data-paper-data="{&quot;origPos&quot;:null}" fill="#2b70c2"/><path d="M331.43,149.23508c3.609,0.498 5.414,0.805 5.414,0.921c1.422,1.221 2.133,1.874 2.133,1.959c-0.578,1.805 -0.906,2.902 -0.985,3.291c0.577,1.282 0.906,2.047 0.985,2.297c0,0.072 -0.942,0.267 -2.826,0.583c-0.024,-0.103 -0.197,-0.334 -0.519,-0.693c-2.601,0.498 -4.002,0.748 -4.202,0.748l-1.386,-3.747l3.054,-1.613c0.492,0.079 1.261,0.119 2.306,0.119c0,-0.134 0.018,-0.538 0.054,-1.213c-0.176,0 -1.75,0.116 -4.721,0.347l-0.055,-0.119c0.414,-1.92 0.663,-2.88 0.748,-2.88zM333.326,154.59407c0,0.067 0.194,0.778 0.583,2.133h0.055c0.765,-0.498 1.148,-0.826 1.148,-0.984l0.119,-0.975c-0.146,0 -0.781,-0.058 -1.905,-0.174z" data-paper-data="{&quot;origPos&quot;:null}" fill="#2b70c2"/><path d="M346.396,149.23508c1.203,0.675 1.941,1.112 2.215,1.313c-0.985,2.047 -1.513,3.089 -1.586,3.126h-0.064l-1.303,-1.139l-1.541,1.877l0.173,3.418c-0.079,0.073 -1.084,0.243 -3.017,0.511c-0.072,-0.523 -0.546,-3.084 -1.421,-7.684c0,-0.073 1.27,-0.261 3.809,-0.565c0.043,0.048 0.158,0.617 0.347,1.704c1.519,-1.707 2.315,-2.561 2.388,-2.561z" data-paper-data="{&quot;origPos&quot;:null}" fill="#2b70c2"/><path d="M356.686,149.23508c1.75,1.118 2.716,1.762 2.899,1.932c-0.632,1.404 -0.994,2.106 -1.085,2.106l-3.318,-1.923h-0.118c0,0.06 -0.143,0.401 -0.429,1.021c3.057,1.646 4.585,2.491 4.585,2.533c-0.857,1.981 -1.34,3.026 -1.449,3.136l-5.186,0.301c-2.018,-1.337 -3.102,-2.042 -3.254,-2.115v-0.055c0,-0.152 0.301,-0.835 0.902,-2.05l4.047,2.105l0.301,-1.203c-2.504,-1.124 -3.992,-1.826 -4.466,-2.106v-0.127c0,-0.231 0.483,-1.255 1.449,-3.072z" data-paper-data="{&quot;origPos&quot;:null}" fill="#2b70c2"/><path d="M367.842,146.48206l4.011,0.711l-0.383,3.045c0.796,-0.043 1.379,-0.064 1.75,-0.064h0.583l0.128,-0.064l0.064,0.128c-0.128,1.847 -0.237,2.886 -0.328,3.117l-0.128,-0.073c-0.091,0 -0.911,-0.043 -2.461,-0.128c-0.085,1.428 -0.149,3.136 -0.191,5.123l-0.128,0.064c-1.956,-0.128 -3.123,-0.237 -3.5,-0.329l0.064,-0.255c0,-0.528 0.085,-2.169 0.255,-4.922c-1.64,-0.091 -2.461,-0.2 -2.461,-0.328c0.085,-2.029 0.195,-3.044 0.328,-3.044l2.397,0.456v-0.784c0,-0.638 -0.024,-1.501 -0.072,-2.589c0.048,0 0.072,-0.021 0.072,-0.064z" data-paper-data="{&quot;origPos&quot;:null}" fill="#000000"/><path d="M378.634,149.24406c2.309,0.62 3.534,0.997 3.673,1.13c1.27,1.799 1.984,2.835 2.142,3.108c-0.82,2.601 -1.291,3.902 -1.413,3.902c-2.734,0.638 -4.165,0.957 -4.292,0.957c-2.261,-1.319 -3.464,-2.054 -3.61,-2.206c-0.079,-2.455 -0.118,-3.81 -0.118,-4.065c-0.037,-0.073 -0.055,-0.128 -0.055,-0.164c2.333,-1.775 3.539,-2.662 3.618,-2.662zM378.406,152.58006c-0.036,0.243 -0.091,1.127 -0.164,2.652l2.033,0.456c0.486,-1.519 0.729,-2.33 0.729,-2.433c-1.616,-0.486 -2.482,-0.73 -2.598,-0.73z" data-paper-data="{&quot;origPos&quot;:null}" fill="#000000"/><path d="M393.582,149.24406c2.309,0.62 3.533,0.997 3.673,1.13c1.27,1.799 1.984,2.835 2.142,3.108c-0.82,2.601 -1.291,3.902 -1.413,3.902c-2.734,0.638 -4.165,0.957 -4.293,0.957c-2.26,-1.319 -3.463,-2.054 -3.609,-2.206c-0.079,-2.455 -0.118,-3.81 -0.118,-4.065c-0.037,-0.073 -0.055,-0.128 -0.055,-0.164c2.333,-1.775 3.539,-2.662 3.618,-2.662zM393.354,152.58006c-0.036,0.243 -0.091,1.127 -0.164,2.652l2.033,0.456c0.486,-1.519 0.729,-2.33 0.729,-2.433c-1.616,-0.486 -2.482,-0.73 -2.598,-0.73z" data-paper-data="{&quot;origPos&quot;:null}" fill="#000000"/><path d="M404.802,149.24406c0.188,0.778 0.319,1.258 0.392,1.44c2.686,-0.613 4.105,-0.92 4.257,-0.92c1.829,2.631 2.743,4.004 2.743,4.12l-2.096,4.447l-4.512,-0.72v0.137c0.352,2.704 0.529,4.141 0.529,4.311c-0.043,0 -0.064,0.022 -0.064,0.064c-0.438,-0.042 -0.766,-0.064 -0.985,-0.064h-0.783c-0.456,0 -1.155,-0.021 -2.097,-0.063c-0.085,-0.256 -0.738,-4.135 -1.959,-11.64c0.206,-0.085 1.731,-0.456 4.575,-1.112zM405.13,152.97206c0.122,1.398 0.231,2.096 0.328,2.096c1.246,0.432 2.009,0.648 2.288,0.648l0.72,-3.136h-0.064c-0.711,0.043 -1.801,0.173 -3.272,0.392z" data-paper-data="{&quot;origPos&quot;:null}" fill="#000000"/><path d="M418.301,149.24406c2.752,1.416 4.278,2.242 4.575,2.479c-0.395,1.848 -0.629,2.799 -0.702,2.853h-5.76v0.1l1.613,1.997l2.534,-1.295c0.249,0.432 0.608,1.185 1.076,2.261c-0.219,0.073 -1.814,0.307 -4.785,0.702c-2.461,-1.623 -3.701,-2.467 -3.719,-2.534c0.395,-3.154 0.629,-4.731 0.702,-4.731c2.57,-1.094 4.059,-1.704 4.466,-1.832zM417.708,151.45008c-0.048,0.121 -0.37,0.605 -0.966,1.449c0,0.255 0.359,0.383 1.076,0.383c0,0.036 0.519,0.125 1.558,0.264c0.286,-0.395 0.429,-0.626 0.429,-0.692c-0.091,-0.541 -0.289,-0.812 -0.593,-0.812z" data-paper-data="{&quot;origPos&quot;:null}" fill="#000000"/><path d="M431.8,149.23508l3.035,2.087c-0.213,3.464 -0.362,5.487 -0.447,6.071c-0.352,0.042 -1.425,0.106 -3.217,0.191l-0.064,-0.128l-0.319,-4.867l-0.128,-0.064c-1.16,0.25 -1.959,0.438 -2.397,0.566c0.122,2.072 0.182,3.569 0.182,4.493c-1.81,0.504 -2.801,0.757 -2.971,0.757c-1.179,-5.19 -1.768,-7.93 -1.768,-8.222c2.564,-0.334 3.955,-0.501 4.174,-0.501v0.064c0.043,0.03 0.107,0.662 0.192,1.896c2.351,-1.562 3.594,-2.343 3.728,-2.343z" data-paper-data="{&quot;origPos&quot;:null}" fill="#000000"/><path d="M34.978,169.81606l4.01,0.711l-0.382,3.044c0.796,-0.043 1.379,-0.064 1.75,-0.064h0.583l0.127,-0.064l0.064,0.128c-0.127,1.847 -0.237,2.886 -0.328,3.117l-0.127,-0.073c-0.092,0 -0.912,-0.042 -2.461,-0.127c-0.085,1.428 -0.149,3.135 -0.192,5.122l-0.127,0.064c-1.957,-0.128 -3.124,-0.237 -3.5,-0.328l0.063,-0.255c0,-0.529 0.085,-2.17 0.256,-4.922c-1.641,-0.091 -2.461,-0.201 -2.461,-0.328c0.085,-2.03 0.194,-3.045 0.328,-3.045l2.397,0.456v-0.784c0,-0.638 -0.024,-1.501 -0.073,-2.588c0.049,0 0.073,-0.022 0.073,-0.064z" data-paper-data="{&quot;origPos&quot;:null}" fill="#000000"/><path d="M46.18,169.81606c0.036,0.055 0.206,1.719 0.51,4.995c2.346,-0.717 3.594,-1.076 3.746,-1.076l2.324,1.586c-0.376,3.464 -0.622,5.487 -0.738,6.07l-3.226,0.11c0,-0.037 -0.022,-0.055 -0.064,-0.055l0.064,-0.228c0,-0.492 0.073,-1.987 0.218,-4.484c-0.887,-0.037 -1.546,-0.055 -1.978,-0.055h-0.227c0.261,2.777 0.392,4.29 0.392,4.539l-3.063,0.456c-0.115,-0.389 -0.796,-4.02 -2.042,-10.892c0,-0.194 0.474,-0.346 1.422,-0.456c1.197,-0.34 2.084,-0.51 2.662,-0.51z" data-paper-data="{&quot;origPos&quot;:null}" fill="#000000"/><path d="M54.875,168.91308l3.582,0.566c-0.45,1.719 -0.744,2.579 -0.884,2.579c-1.884,-0.128 -2.826,-0.252 -2.826,-0.374v-2.643c0.019,-0.085 0.061,-0.128 0.128,-0.128zM53.872,173.25208h0.055c2.771,0.504 4.156,0.799 4.156,0.884c-0.796,4.509 -1.279,7.021 -1.449,7.538h-2.889c-0.085,0 -0.128,-0.043 -0.128,-0.128z" data-paper-data="{&quot;origPos&quot;:null}" fill="#000000"/><path d="M66.113,172.56808c1.75,1.118 2.716,1.763 2.899,1.933c-0.632,1.403 -0.994,2.105 -1.085,2.105l-3.318,-1.923h-0.118c0,0.061 -0.143,0.401 -0.428,1.021c3.056,1.647 4.584,2.491 4.584,2.534c-0.857,1.981 -1.34,3.026 -1.449,3.135l-5.186,0.301c-2.018,-1.337 -3.102,-2.042 -3.254,-2.115v-0.054c0,-0.152 0.301,-0.836 0.902,-2.051l4.047,2.105l0.301,-1.203c-2.504,-1.124 -3.992,-1.826 -4.466,-2.105v-0.128c0,-0.231 0.483,-1.255 1.449,-3.072z" data-paper-data="{&quot;origPos&quot;:null}" fill="#000000"/><path d="M80.059,169.80708h0.054c2.747,0.231 4.12,0.41 4.12,0.537l1.212,10.728c0,0.079 -1.212,0.28 -3.636,0.602l-0.055,-0.119v-0.975c-2.09,0.565 -3.524,0.93 -4.302,1.094c-1.847,-2.613 -2.817,-4.004 -2.908,-4.175c1.361,-2.473 2.088,-3.724 2.179,-3.755l3.819,0.182c-0.079,-0.467 -0.24,-1.841 -0.483,-4.119zM78.363,176.34208c0.614,1.877 0.997,2.907 1.149,3.09l1.814,-1.577c-0.189,-1.088 -0.329,-1.632 -0.42,-1.632h-2.424c-0.079,0.013 -0.119,0.052 -0.119,0.119z" data-paper-data="{&quot;origPos&quot;:null}" fill="#000000"/><path d="M90.066,172.57806c2.309,0.619 3.534,0.996 3.674,1.13c1.27,1.798 1.984,2.834 2.142,3.108c-0.821,2.601 -1.292,3.901 -1.413,3.901c-2.735,0.638 -4.166,0.957 -4.293,0.957c-2.261,-1.319 -3.464,-2.054 -3.61,-2.206c-0.079,-2.455 -0.118,-3.81 -0.118,-4.065c-0.037,-0.073 -0.055,-0.128 -0.055,-0.164c2.334,-1.774 3.54,-2.661 3.619,-2.661zM89.839,175.91308c-0.037,0.244 -0.092,1.128 -0.164,2.653l2.032,0.456c0.486,-1.52 0.729,-2.331 0.729,-2.434c-1.616,-0.486 -2.482,-0.729 -2.597,-0.729z" data-paper-data="{&quot;origPos&quot;:null}" fill="#000000"/><path d="M100.384,172.57806c2.309,0.619 3.534,0.996 3.673,1.13c1.27,1.798 1.984,2.834 2.142,3.108c-0.82,2.601 -1.291,3.901 -1.413,3.901c-2.734,0.638 -4.165,0.957 -4.292,0.957c-2.261,-1.319 -3.464,-2.054 -3.61,-2.206c-0.079,-2.455 -0.118,-3.81 -0.118,-4.065c-0.037,-0.073 -0.055,-0.128 -0.055,-0.164c2.333,-1.774 3.539,-2.661 3.618,-2.661zM100.156,175.91308c-0.036,0.244 -0.091,1.128 -0.164,2.653l2.033,0.456c0.486,-1.52 0.729,-2.331 0.729,-2.434c-1.616,-0.486 -2.482,-0.729 -2.598,-0.729z" data-paper-data="{&quot;origPos&quot;:null}" fill="#000000"/><path d="M113.573,172.56808c1.203,0.675 1.941,1.112 2.215,1.313c-0.985,2.048 -1.513,3.09 -1.586,3.126h-0.064l-1.303,-1.139l-1.541,1.878l0.173,3.417c-0.079,0.073 -1.084,0.244 -3.016,0.511c-0.073,-0.523 -0.547,-3.084 -1.422,-7.684c0,-0.073 1.27,-0.261 3.81,-0.565c0.042,0.049 0.158,0.617 0.346,1.705c1.519,-1.708 2.315,-2.562 2.388,-2.562z" data-paper-data="{&quot;origPos&quot;:null}" fill="#000000"/><path d="M120.518,170.15307l0.037,0.073c-0.608,5.365 -0.948,8.185 -1.021,8.458c-1.288,-0.121 -2.103,-0.206 -2.443,-0.255v-0.036l-0.583,-7.62c0.146,-0.049 1.483,-0.255 4.01,-0.62zM116.909,178.86707c0.042,0.024 0.99,0.097 2.844,0.218l0.036,0.073c-0.285,1.677 -0.468,2.516 -0.547,2.516h-2.114c-0.073,0 -0.17,-0.839 -0.292,-2.516c-0.024,0 -0.036,-0.073 -0.036,-0.218c0.073,-0.025 0.109,-0.049 0.109,-0.073z" data-paper-data="{&quot;origPos&quot;:null}" fill="#000000"/></g></g></g></svg>