<svg version="1.1" xmlns="http://www.w3.org/2000/svg" xmlns:xlink="http://www.w3.org/1999/xlink" width="143.7336" height="143.73361" viewBox="0,0,143.7336,143.73361"><defs><linearGradient x1="240" y1="110.13321" x2="240" y2="249.86681" gradientUnits="userSpaceOnUse" id="color-1"><stop offset="0" stop-color="#3c94ed"/><stop offset="1" stop-color="#337fcc"/></linearGradient><radialGradient cx="211.13714" cy="168.34731" r="75.66407" gradientUnits="userSpaceOnUse" id="color-2"><stop offset="0" stop-color="#ffff00"/><stop offset="1" stop-color="#ff9400"/></radialGradient><radialGradient cx="225.59554" cy="172.85104" r="51.78472" gradientUnits="userSpaceOnUse" id="color-3"><stop offset="0" stop-color="#bda501"/><stop offset="1" stop-color="#c07801"/></radialGradient><linearGradient x1="278.43639" y1="135.2057" x2="278.43639" y2="170.87833" gradientUnits="userSpaceOnUse" id="color-4"><stop offset="0" stop-color="#ffae82"/><stop offset="1" stop-color="#db8b67"/></linearGradient><linearGradient x1="214.51362" y1="134.39524" x2="214.51362" y2="170.82122" gradientUnits="userSpaceOnUse" id="color-5"><stop offset="0" stop-color="#ffae82"/><stop offset="1" stop-color="#db8b67"/></linearGradient><linearGradient x1="244.77332" y1="135.2057" x2="244.77332" y2="170.87835" gradientUnits="userSpaceOnUse" id="color-6"><stop offset="0" stop-color="#ffae82"/><stop offset="1" stop-color="#db8b67"/></linearGradient></defs><g transform="translate(-168.1332,-108.1332)"><g data-paper-data="{&quot;isPaintingLayer&quot;:true}" fill-rule="nonzero" stroke-linecap="butt" stroke-linejoin="miter" stroke-miterlimit="10" stroke-dasharray="" stroke-dashoffset="0" style="mix-blend-mode: normal"><path d="M240,110.13321c19.2752,0 36.74421,7.8268 49.3899,20.47689c12.64989,12.64569 20.4769,30.11449 20.4769,49.38991c0,19.27542 -7.82701,36.74421 -20.4769,49.38991c-12.64569,12.65009 -30.1147,20.4769 -49.3899,20.4769c-19.27542,0 -36.74442,-7.8268 -49.39012,-20.4769c-12.64989,-12.64569 -20.47668,-30.11449 -20.47668,-49.38991c0,-19.27542 7.82679,-36.74421 20.47668,-49.38991c12.64569,-12.6501 30.11471,-20.47689 49.39012,-20.47689z" data-paper-data="{&quot;origPos&quot;:null}" id="ID0.4039921844378114" fill="url(#color-1)" stroke="#23568d" stroke-width="4"/><g data-paper-data="{&quot;origPos&quot;:null}" stroke="none"><path d="M230.00001,155.44962c9.80839,0 18.69526,3.98428 25.13082,10.41984c6.43556,6.43528 10.41956,15.32213 10.41956,25.13054c0,9.80811 -3.98397,18.69528 -10.41956,25.13056c-6.43556,6.43556 -15.32243,10.41984 -25.13082,10.41984c-9.80811,0 -18.69498,-3.98428 -25.13056,-10.41984c-6.43556,-6.43528 -10.41984,-15.32246 -10.41984,-25.13056c0,-9.80839 3.98428,-18.69526 10.41984,-25.13054c6.43556,-6.43556 15.32246,-10.41984 25.13056,-10.41984z" data-paper-data="{&quot;origPos&quot;:null}" id="ID0.7142658131197095" fill="url(#color-2)" stroke-width="0.48028"/><path d="M222.54799,163.60064h14.02394v53.78138h-14.02394z" data-paper-data="{&quot;origPos&quot;:null}" id="ID0.06001657713204622" fill="url(#color-3)" stroke-width="0.59798"/></g><path d="M275.30013,135.2057c8.17153,2.11213 12.33231,3.31773 12.48354,3.64974c0,0.1806 1.99009,3.85972 5.9409,10.97529c-2.50407,8.14235 -3.83034,12.39264 -4.07126,12.7554c0,0 -4.55273,6.75457 -4.91569,6.3021l-9.61827,1.99009c-6.78532,-3.70832 -10.37317,-5.78949 -10.79469,-6.3021c-0.2423,-2.59359 -0.63444,-9.82981 -1.17643,-21.7408c6.39161,-4.19154 10.46289,-6.75437 12.15191,-7.62973zM277.4105,145.12658l-5.24613,5.30783c0.45247,5.51781 0.66245,8.8943 0.66245,10.10149c0.12045,0 1.26751,0.78428 3.37787,2.3221c2.80376,-0.60369 4.22092,-1.02521 4.22092,-1.29689l3.22685,-10.79469c-0.87399,-2.53365 -1.59795,-3.79959 -2.20164,-3.79959z" data-paper-data="{&quot;origPos&quot;:null}" id="path4556" fill="url(#color-4)" stroke="#ab7356" stroke-width="2.5"/><path d="M215.23679,134.39524c6.84565,0.75334 10.2529,1.23656 10.2529,1.44811c0.09108,15.04656 0.12046,26.53445 0.12046,34.49464v0.2423l-0.12046,0.24093l-10.61409,-0.36119c0,-0.09108 -0.02938,-0.12204 -0.12046,-0.12204c0.48166,-13.44861 0.72415,-20.59375 0.72415,-21.46913l-3.6188,3.49854c-0.21155,-0.12046 -3.0153,-3.10638 -8.4434,-8.92506c4.25167,-3.37806 8.20248,-6.39318 11.81971,-9.04709z" data-paper-data="{&quot;origPos&quot;:null}" id="path4538" fill="url(#color-5)" stroke="#ab7356" stroke-width="2.5"/><path d="M241.63706,135.2057c8.17153,2.11213 12.33231,3.31773 12.48354,3.64974c0,0.18059 1.99009,3.85972 5.9409,10.97529c-2.50407,8.14235 -3.83034,12.39265 -4.07127,12.75541c0,0 -4.55274,6.75457 -4.91569,6.3021l-9.61827,1.99009c-6.78532,-3.70832 -10.37317,-5.78948 -10.79469,-6.3021c-0.2423,-2.59359 -0.63444,-9.82981 -1.17643,-21.74081c6.39161,-4.19154 10.46289,-6.75437 12.15191,-7.62973zM243.74742,145.12658l-5.24613,5.30783c0.45247,5.51781 0.66245,8.8943 0.66245,10.10149c0.12046,0 1.26752,0.78428 3.37787,2.3221c2.80376,-0.60369 4.22092,-1.02521 4.22092,-1.29689l3.22685,-10.79469c-0.87399,-2.53365 -1.59795,-3.79958 -2.20164,-3.79958z" data-paper-data="{&quot;origPos&quot;:null}" id="path4556" fill="url(#color-6)" stroke="#ab7356" stroke-width="2.5"/></g></g></svg>