<svg version="1.1" xmlns="http://www.w3.org/2000/svg" xmlns:xlink="http://www.w3.org/1999/xlink" width="9.67099" height="24.40006"><defs><linearGradient x1="239.72672" y1="167.99648" x2="239.72672" y2="192.19943" gradientUnits="userSpaceOnUse" id="color-1"><stop offset="0" stop-color="#bda501"/><stop offset="1" stop-color="#c07801"/></linearGradient><linearGradient x1="241.9349" y1="167.85003" x2="241.9349" y2="192.20003" gradientUnits="userSpaceOnUse" id="color-2"><stop offset="0" stop-color="#bda001"/><stop offset="1" stop-color="#be7800"/></linearGradient><radialGradient cx="236.52601" cy="172.21707" r="18.8359" gradientUnits="userSpaceOnUse" id="color-3"><stop offset="0" stop-color="#ffff00"/><stop offset="1" stop-color="#ff9400"/></radialGradient><radialGradient cx="237.6393" cy="174.00947" r="8.1186" gradientUnits="userSpaceOnUse" id="color-4"><stop offset="0" stop-color="#bda501"/><stop offset="1" stop-color="#c07801"/></radialGradient></defs><g transform="translate(-235.16451,-167.79997)"><g data-paper-data="{&quot;isPaintingLayer&quot;:true}" fill="none" fill-rule="nonzero" stroke="none" stroke-width="none" stroke-linecap="butt" stroke-linejoin="miter" stroke-miterlimit="10" stroke-dasharray="" stroke-dashoffset="0" font-family="none" font-weight="none" font-size="none" text-anchor="none" style="mix-blend-mode: normal"><path d="M237.76357,167.99648h3.92631v24.20296h-3.92631z" data-paper-data="{&quot;origPos&quot;:null}" id="ID0.06001657713204622" fill="url(#color-1)" stroke-width="0.36499"/><path d="M241.9349,167.85003c0.8003,0 1.5253,1.3645 2.0504,3.5685c0.5251,2.2039 0.8502,5.2474 0.8502,8.6065c0,3.359 -0.3251,6.4026 -0.8502,8.6065c-0.5251,2.204 -1.2501,3.5685 -2.0504,3.5685c-0.8003,0 -1.5254,-1.3645 -2.0504,-3.5685c-0.5251,-2.2039 -0.8502,-5.2475 -0.8502,-8.6065c0,-3.3591 0.3251,-6.4026 0.8502,-8.6065c0.525,-2.204 1.2501,-3.5685 2.0504,-3.5685z" data-paper-data="{&quot;origPos&quot;:null}" id="ID0.7142658131197095" fill="url(#color-2)" stroke-width="0.34911"/><path d="M238.06511,167.79997c0.8003,0 1.5253,1.3645 2.0504,3.5685c0.5251,2.2039 0.8502,5.2474 0.8502,8.6065c0,3.359 -0.3251,6.4026 -0.8502,8.6065c-0.5251,2.204 -1.2501,3.5685 -2.0504,3.5685c-0.8003,0 -1.5254,-1.3645 -2.0504,-3.5685c-0.5251,-2.2039 -0.8502,-5.2475 -0.8502,-8.6065c0,-3.3591 0.3251,-6.4026 0.8502,-8.6065c0.525,-2.204 1.2501,-3.5685 2.0504,-3.5685z" data-paper-data="{&quot;origPos&quot;:null}" id="ID0.7142658131197095" fill="url(#color-3)" stroke-width="0.34911"/><path d="M237.42668,170.84147h0.97868v18.4186h-0.97868z" data-paper-data="{&quot;origPos&quot;:null}" id="ID0.06001657713204622" fill="url(#color-4)" stroke-width="0.36499"/></g></g></svg>