<svg version="1.1" xmlns="http://www.w3.org/2000/svg" xmlns:xlink="http://www.w3.org/1999/xlink" width="437" height="90.79587" viewBox="0,0,437,90.79587"><defs><linearGradient x1="240" y1="135.60206" x2="240" y2="224.39795" gradientUnits="userSpaceOnUse" id="color-1"><stop offset="0" stop-color="#ffffff"/><stop offset="1" stop-color="#d8d8d8"/></linearGradient><linearGradient x1="240" y1="135.60208" x2="240" y2="224.39795" gradientUnits="userSpaceOnUse" id="color-2"><stop offset="0" stop-color="#343434"/><stop offset="1" stop-color="#090909"/></linearGradient><radialGradient cx="443.8065" cy="206.54466" r="17.9081" gradientUnits="userSpaceOnUse" id="color-3"><stop offset="0" stop-color="#ffffff"/><stop offset="1" stop-color="#e5e5e5"/></radialGradient></defs><g transform="translate(-21.5,-134.60208)"><g data-paper-data="{&quot;isPaintingLayer&quot;:true}" fill-rule="nonzero" stroke-linejoin="miter" stroke-miterlimit="10" stroke-dasharray="" stroke-dashoffset="0" style="mix-blend-mode: normal"><path d="M22.5,224.39795v-88.79587h435v88.79587z" data-paper-data="{&quot;origPos&quot;:null}" fill="url(#color-1)" stroke="url(#color-2)" stroke-width="2" stroke-linecap="butt"/><g data-paper-data="{&quot;origPos&quot;:null}"><path d="M444.3058,202.09868c2.5136,0 4.7909,1.0212 6.4406,2.6702c1.6489,1.6496 2.6702,3.9269 2.6702,6.4405c0,2.5136 -1.0213,4.791 -2.6702,6.4406c-1.6497,1.649 -3.927,2.6702 -6.4406,2.6702c-2.5136,0 -4.7909,-1.0212 -6.4406,-2.6702c-1.6489,-1.6496 -2.6701,-3.927 -2.6701,-6.4406c0,-2.5136 1.0212,-4.7909 2.6701,-6.4405c1.6497,-1.649 3.927,-2.6702 6.4406,-2.6702z" fill="url(#color-3)" stroke="#000000" stroke-width="2.0785" stroke-linecap="butt"/><path d="M441.2734,206.54886l5.6119,0.4503l1.7321,3.187l-3.6374,2.9446l3.3603,-0.5197l0.7967,3.4642l-7.4479,-0.0693l-1.9053,-2.4249l4.6766,-3.3256l-4.5727,-0.3464z" fill="#000000" stroke="none" stroke-width="0.69283" stroke-linecap="round"/></g><g data-paper-data="{&quot;origPos&quot;:null}" stroke="none" stroke-width="1" stroke-linecap="butt"><path d="M35.882,149.96406c2.449,0.547 3.81,0.86 4.084,0.939v0.064c-0.086,2.193 -0.149,3.469 -0.192,3.828c0.14,0 0.769,0.145 1.887,0.437c1.002,-3.093 1.546,-4.639 1.631,-4.639c1.677,0.753 2.744,1.255 3.2,1.504v0.064c-1.842,4.283 -2.887,6.647 -3.136,7.091c-0.462,0.382 -2.072,1.847 -4.831,4.393h-0.063l-5.086,-2.507c0.468,-0.802 1.033,-1.722 1.695,-2.761c0.03,0 0.826,0.522 2.388,1.567h0.064c0.522,-0.425 1.148,-1.033 1.877,-1.823c0,-0.036 -1.191,-1.206 -3.572,-3.509v-4.521z" data-paper-data="{&quot;origPos&quot;:null}" fill="#000000"/><path d="M51.158,152.72606c2.309,0.619 3.534,0.996 3.673,1.13c1.27,1.798 1.984,2.834 2.142,3.108c-0.82,2.601 -1.291,3.901 -1.412,3.901c-2.735,0.638 -4.166,0.957 -4.293,0.957c-2.261,-1.319 -3.464,-2.054 -3.61,-2.206c-0.079,-2.455 -0.118,-3.81 -0.118,-4.065c-0.037,-0.073 -0.055,-0.127 -0.055,-0.164c2.333,-1.774 3.54,-2.661 3.619,-2.661zM50.93,156.06206c-0.036,0.243 -0.091,1.127 -0.164,2.652l2.033,0.456c0.486,-1.519 0.729,-2.331 0.729,-2.434c-1.616,-0.486 -2.482,-0.729 -2.598,-0.729z" data-paper-data="{&quot;origPos&quot;:null}" fill="#000000"/><path d="M62.725,152.71708l0.063,0.118l-1.23,6.526h0.064l3.135,-0.921v-3.691c0.012,-0.085 0.052,-0.128 0.119,-0.128c2.357,0.165 3.67,0.247 3.937,0.247c0,0.042 0.021,0.063 0.064,0.063c0,1.039 -0.328,3.193 -0.984,6.463c0,0.188 -0.942,0.331 -2.826,0.428c-0.097,-0.115 -0.179,-0.362 -0.246,-0.738c-2.412,0.492 -3.789,0.738 -4.129,0.738c-1.926,-1.434 -2.889,-2.172 -2.889,-2.215c0.328,-4.308 0.534,-6.544 0.62,-6.708h0.054c1.538,-0.043 2.953,-0.104 4.248,-0.182z" data-paper-data="{&quot;origPos&quot;:null}" fill="#000000"/><path d="M78.01,152.72606c2.74,0.516 4.174,0.811 4.302,0.884v0.109c-0.59,1.665 -0.884,2.528 -0.884,2.589h-0.055c-0.152,0 -0.887,-0.237 -2.206,-0.711c-0.735,1.233 -1.103,1.893 -1.103,1.978l1.823,1.768c1.41,-1.325 2.127,-1.987 2.151,-1.987c1.1,1.44 1.65,2.248 1.65,2.424c-0.601,0.347 -1.65,1.027 -3.144,2.042c-2.893,-0.626 -4.454,-0.975 -4.685,-1.048l-1.431,-4.63z" data-paper-data="{&quot;origPos&quot;:null}" fill="#000000"/><path d="M85.985,152.71708c3.609,0.498 5.414,0.805 5.414,0.92c1.422,1.221 2.133,1.875 2.133,1.96c-0.577,1.804 -0.905,2.901 -0.984,3.29c0.577,1.282 0.905,2.048 0.984,2.297c0,0.073 -0.942,0.267 -2.826,0.583c-0.024,-0.103 -0.197,-0.334 -0.519,-0.692c-2.601,0.498 -4.001,0.747 -4.202,0.747l-1.385,-3.746l3.053,-1.613c0.492,0.079 1.261,0.118 2.306,0.118c0,-0.134 0.018,-0.538 0.055,-1.212c-0.176,0 -1.75,0.115 -4.722,0.346l-0.054,-0.118c0.413,-1.92 0.662,-2.88 0.747,-2.88zM87.881,158.07607c0,0.067 0.194,0.778 0.583,2.133h0.055c0.766,-0.499 1.148,-0.827 1.148,-0.985l0.119,-0.975c-0.146,0 -0.781,-0.058 -1.905,-0.173z" data-paper-data="{&quot;origPos&quot;:null}" fill="#000000"/><path d="M102.501,152.71708l3.035,2.087c-0.213,3.463 -0.362,5.487 -0.447,6.07c-0.352,0.043 -1.425,0.106 -3.217,0.191l-0.064,-0.127l-0.319,-4.867l-0.128,-0.064c-1.16,0.249 -1.959,0.437 -2.397,0.565c0.122,2.072 0.183,3.57 0.183,4.493c-1.811,0.505 -2.802,0.757 -2.972,0.757c-1.179,-5.189 -1.768,-7.93 -1.768,-8.221c2.564,-0.335 3.956,-0.502 4.174,-0.502v0.064c0.043,0.03 0.107,0.662 0.192,1.896c2.351,-1.562 3.594,-2.342 3.728,-2.342z" data-paper-data="{&quot;origPos&quot;:null}" fill="#000000"/><path d="M119.162,152.71708l3.035,2.087c-0.212,3.463 -0.361,5.487 -0.446,6.07c-0.353,0.043 -1.425,0.106 -3.218,0.191l-0.064,-0.127l-0.319,-4.867l-0.127,-0.064c-1.161,0.249 -1.96,0.437 -2.397,0.565c0.121,2.072 0.182,3.57 0.182,4.493c-1.811,0.505 -2.801,0.757 -2.971,0.757c-1.179,-5.189 -1.769,-7.93 -1.769,-8.221c2.565,-0.335 3.956,-0.502 4.175,-0.502v0.064c0.042,0.03 0.106,0.662 0.191,1.896c2.352,-1.562 3.594,-2.342 3.728,-2.342z" data-paper-data="{&quot;origPos&quot;:null}" fill="#000000"/><path d="M126.773,152.72606c2.309,0.619 3.533,0.996 3.673,1.13c1.27,1.798 1.984,2.834 2.142,3.108c-0.82,2.601 -1.291,3.901 -1.413,3.901c-2.734,0.638 -4.165,0.957 -4.293,0.957c-2.26,-1.319 -3.463,-2.054 -3.609,-2.206c-0.079,-2.455 -0.119,-3.81 -0.119,-4.065c-0.036,-0.073 -0.054,-0.127 -0.054,-0.164c2.333,-1.774 3.539,-2.661 3.618,-2.661zM126.545,156.06206c-0.037,0.243 -0.091,1.127 -0.164,2.652l2.032,0.456c0.487,-1.519 0.73,-2.331 0.73,-2.434c-1.617,-0.486 -2.483,-0.729 -2.598,-0.729z" data-paper-data="{&quot;origPos&quot;:null}" fill="#000000"/><path d="M137.419,152.71708c0.079,0.103 0.489,1.865 1.23,5.286h0.064c0,-0.079 0.45,-0.775 1.349,-2.087c0.377,0.255 1.094,0.808 2.151,1.659h0.128v-0.064c0.164,-2.37 0.285,-3.683 0.364,-3.938c2.504,0.128 3.755,0.231 3.755,0.31c-1.148,4.618 -1.762,7.018 -1.841,7.201c-0.383,0.042 -1.185,0.164 -2.406,0.364c-1.003,-1.574 -1.577,-2.412 -1.723,-2.515c-0.656,1.75 -1.066,2.713 -1.23,2.889h-2.461c-0.152,-0.049 -0.869,-1.628 -2.151,-4.74c-0.82,-1.737 -1.231,-2.679 -1.231,-2.825c0,-0.134 1.334,-0.647 4.002,-1.54z" data-paper-data="{&quot;origPos&quot;:null}" fill="#000000"/><path d="M156.66,152.72606c0.188,0.777 0.319,1.257 0.391,1.44c2.686,-0.614 4.105,-0.921 4.257,-0.921c1.829,2.631 2.743,4.004 2.743,4.12l-2.096,4.448l-4.512,-0.72v0.137c0.353,2.704 0.529,4.141 0.529,4.311c-0.042,0 -0.064,0.021 -0.064,0.064c-0.437,-0.043 -0.765,-0.064 -0.984,-0.064h-0.784c-0.456,0 -1.154,-0.022 -2.096,-0.064c-0.085,-0.255 -0.739,-4.135 -1.96,-11.639c0.207,-0.085 1.732,-0.456 4.576,-1.112zM156.988,156.45306c0.121,1.398 0.231,2.097 0.328,2.097c1.245,0.431 2.008,0.647 2.288,0.647l0.72,-3.135h-0.064c-0.711,0.042 -1.802,0.173 -3.272,0.391z" data-paper-data="{&quot;origPos&quot;:null}" fill="#000000"/><path d="M164.99,149.97308c1.86,0.036 3.224,0.055 4.093,0.055c0.079,0 0.319,3.731 0.72,11.192c-0.31,0.079 -1.392,0.28 -3.245,0.602c-0.091,0 -0.392,-2.285 -0.902,-6.854c-0.043,-0.11 -0.265,-1.774 -0.666,-4.995z" data-paper-data="{&quot;origPos&quot;:null}" fill="#000000"/><path d="M172.209,152.71708c3.609,0.498 5.414,0.805 5.414,0.92c1.422,1.221 2.133,1.875 2.133,1.96c-0.577,1.804 -0.905,2.901 -0.984,3.29c0.577,1.282 0.905,2.048 0.984,2.297c0,0.073 -0.942,0.267 -2.826,0.583c-0.024,-0.103 -0.197,-0.334 -0.519,-0.692c-2.601,0.498 -4.001,0.747 -4.202,0.747l-1.385,-3.746l3.053,-1.613c0.492,0.079 1.261,0.118 2.306,0.118c0,-0.134 0.018,-0.538 0.055,-1.212c-0.177,0 -1.75,0.115 -4.722,0.346l-0.054,-0.118c0.413,-1.92 0.662,-2.88 0.747,-2.88zM174.105,158.07607c0,0.067 0.194,0.778 0.583,2.133h0.055c0.765,-0.499 1.148,-0.827 1.148,-0.985l0.119,-0.975c-0.146,0 -0.781,-0.058 -1.905,-0.173z" data-paper-data="{&quot;origPos&quot;:null}" fill="#000000"/><path d="M184.824,152.73508c0.085,0.012 0.127,0.054 0.127,0.127l-0.948,5.25c1.811,-0.212 2.716,-0.382 2.716,-0.51c0.341,-2.103 0.575,-3.281 0.702,-3.537c2.242,0.462 3.485,0.736 3.728,0.821c-1.306,4.49 -2.023,6.83 -2.151,7.018c-2.285,1.604 -3.57,2.491 -3.855,2.661c-0.085,0 -1.541,-0.358 -4.366,-1.075v-0.064c0.747,-1.647 1.212,-2.47 1.394,-2.47l2.78,1.395l1.331,-2.279c-1.197,0.298 -1.893,0.447 -2.087,0.447l-3.546,-1.842c0.432,-3.961 0.705,-5.942 0.82,-5.942z" data-paper-data="{&quot;origPos&quot;:null}" fill="#000000"/><path d="M198.058,152.71708c3.609,0.498 5.414,0.805 5.414,0.92c1.422,1.221 2.133,1.875 2.133,1.96c-0.577,1.804 -0.906,2.901 -0.985,3.29c0.578,1.282 0.906,2.048 0.985,2.297c0,0.073 -0.942,0.267 -2.826,0.583c-0.024,-0.103 -0.197,-0.334 -0.519,-0.692c-2.601,0.498 -4.001,0.747 -4.202,0.747l-1.385,-3.746l3.053,-1.613c0.492,0.079 1.261,0.118 2.306,0.118c0,-0.134 0.018,-0.538 0.055,-1.212c-0.177,0 -1.75,0.115 -4.722,0.346l-0.054,-0.118c0.413,-1.92 0.662,-2.88 0.747,-2.88zM199.954,158.07607c0,0.067 0.194,0.778 0.583,2.133h0.055c0.765,-0.499 1.148,-0.827 1.148,-0.985l0.119,-0.975c-0.146,0 -0.781,-0.058 -1.905,-0.173z" data-paper-data="{&quot;origPos&quot;:null}" fill="#000000"/><path d="M213.835,152.71708c1.75,1.118 2.716,1.762 2.899,1.932c-0.632,1.403 -0.994,2.105 -1.085,2.105l-3.318,-1.923h-0.118c0,0.061 -0.143,0.401 -0.428,1.021c3.056,1.647 4.584,2.491 4.584,2.534c-0.857,1.981 -1.34,3.026 -1.449,3.135l-5.186,0.301c-2.018,-1.337 -3.102,-2.042 -3.254,-2.115v-0.054c0,-0.152 0.301,-0.836 0.902,-2.051l4.047,2.105l0.301,-1.203c-2.504,-1.124 -3.992,-1.826 -4.466,-2.105v-0.128c0,-0.231 0.483,-1.255 1.449,-3.071z" data-paper-data="{&quot;origPos&quot;:null}" fill="#000000"/><path d="M226.906,149.95506c0,0.042 0.018,0.064 0.054,0.064c0.043,1.233 0.107,3.992 0.192,8.276h0.054l5.442,-1.914c0,0.042 0.021,0.063 0.064,0.063l-0.183,4.576c0,0.079 -2.822,0.346 -8.467,0.802c-0.128,-0.638 -0.726,-4.43 -1.796,-11.375c0.48,-0.079 2.027,-0.243 4.64,-0.492z" data-paper-data="{&quot;origPos&quot;:null}" fill="#2b70c2"/><path d="M238.563,152.71708l0.064,0.118l-1.23,6.526h0.063l3.136,-0.921v-3.691c0.012,-0.085 0.051,-0.128 0.118,-0.128c2.358,0.165 3.67,0.247 3.938,0.247c0,0.042 0.021,0.063 0.064,0.063c0,1.039 -0.329,3.193 -0.985,6.463c0,0.188 -0.942,0.331 -2.825,0.428c-0.098,-0.115 -0.18,-0.362 -0.246,-0.738c-2.413,0.492 -3.789,0.738 -4.129,0.738c-1.927,-1.434 -2.89,-2.172 -2.89,-2.215c0.328,-4.308 0.535,-6.544 0.62,-6.708h0.055c1.537,-0.043 2.953,-0.104 4.247,-0.182z" data-paper-data="{&quot;origPos&quot;:null}" fill="#2b70c2"/><path d="M246.894,149.06206l3.582,0.565c-0.45,1.719 -0.744,2.579 -0.884,2.579c-1.884,-0.128 -2.826,-0.252 -2.826,-0.374v-2.643c0.019,-0.085 0.061,-0.127 0.128,-0.127zM245.891,153.40006h0.055c2.771,0.504 4.156,0.799 4.156,0.884c-0.796,4.509 -1.279,7.021 -1.449,7.538h-2.889c-0.085,0 -0.128,-0.043 -0.128,-0.128z" data-paper-data="{&quot;origPos&quot;:null}" fill="#2b70c2"/><path d="M257.576,152.74406c2.583,0.067 3.874,0.179 3.874,0.337c0.443,6.727 0.665,10.306 0.665,10.737c-1.956,1.246 -3.357,2.09 -4.202,2.534c-2.977,-0.936 -4.466,-1.471 -4.466,-1.604c0.96,-1.404 1.516,-2.115 1.668,-2.133c1.623,0.802 2.555,1.203 2.798,1.203l0.866,-1.139c-0.231,-0.942 -0.386,-1.498 -0.465,-1.668c-0.133,0 -1.78,0.267 -4.94,0.802c-1.731,-2.814 -2.597,-4.257 -2.597,-4.33c1.495,-2.388 2.406,-3.788 2.734,-4.201h0.064c0.176,0 1.489,0.288 3.937,0.865v-0.2c0,-0.237 -0.021,-0.617 -0.063,-1.139zM254.587,156.67206c0.085,0.189 0.352,1.191 0.802,3.008c0.565,-0.182 1.431,-0.516 2.597,-1.003c-0.224,-1.093 -0.337,-1.716 -0.337,-1.868l-0.328,-0.064h-0.401c-0.51,0 -1.288,-0.024 -2.333,-0.073z" data-paper-data="{&quot;origPos&quot;:null}" fill="#2b70c2"/><path d="M264.357,149.06206l3.583,0.565c-0.45,1.719 -0.745,2.579 -0.885,2.579c-1.883,-0.128 -2.825,-0.252 -2.825,-0.374v-2.643c0.018,-0.085 0.061,-0.127 0.127,-0.127zM263.355,153.40006h0.055c2.77,0.504 4.156,0.799 4.156,0.884c-0.796,4.509 -1.279,7.021 -1.449,7.538h-2.89c-0.085,0 -0.127,-0.043 -0.127,-0.128z" data-paper-data="{&quot;origPos&quot;:null}" fill="#2b70c2"/><path d="M272.251,150.30108l0.036,0.073c-0.607,5.366 -0.948,8.185 -1.021,8.458c-1.288,-0.121 -2.102,-0.206 -2.442,-0.255v-0.036l-0.584,-7.62c0.146,-0.049 1.483,-0.255 4.011,-0.62zM268.641,159.01508c0.043,0.024 0.991,0.097 2.844,0.218l0.037,0.073c-0.286,1.677 -0.468,2.516 -0.547,2.516h-2.115c-0.073,0 -0.17,-0.839 -0.292,-2.516c-0.024,0 -0.036,-0.073 -0.036,-0.218c0.073,-0.025 0.109,-0.049 0.109,-0.073z" data-paper-data="{&quot;origPos&quot;:null}" fill="#000000"/></g></g></g></svg>