<svg version="1.1" xmlns="http://www.w3.org/2000/svg" xmlns:xlink="http://www.w3.org/1999/xlink" width="487" height="222.90231" viewBox="0,0,487,222.90231"><defs><linearGradient x1="236.5" y1="315.11562" x2="236.5" y2="346.11562" gradientUnits="userSpaceOnUse" id="color-1"><stop offset="0" stop-color="#edcbab"/><stop offset="1" stop-color="#d6baa1"/></linearGradient><linearGradient x1="149.09422" y1="247.89333" x2="79.071" y2="247.89333" gradientUnits="userSpaceOnUse" id="color-2"><stop offset="0" stop-color="#242424"/><stop offset="1" stop-color="#505050"/></linearGradient><linearGradient x1="161.23158" y1="284.3054" x2="66" y2="284.3054" gradientUnits="userSpaceOnUse" id="color-3"><stop offset="0" stop-color="#494949"/><stop offset="1" stop-color="#616161"/></linearGradient><linearGradient x1="161.23158" y1="234.82233" x2="66" y2="234.82233" gradientUnits="userSpaceOnUse" id="color-4"><stop offset="0" stop-color="#494949"/><stop offset="1" stop-color="#616161"/></linearGradient><linearGradient x1="323.32314" y1="271.96934" x2="323.32314" y2="315.11562" gradientUnits="userSpaceOnUse" id="color-5"><stop offset="0" stop-color="#ebc9aa"/><stop offset="1" stop-color="#dabda3"/></linearGradient><linearGradient x1="367.16718" y1="228.64023" x2="367.16718" y2="271.78651" gradientUnits="userSpaceOnUse" id="color-6"><stop offset="0" stop-color="#ebc9aa"/><stop offset="1" stop-color="#dabda3"/></linearGradient><linearGradient x1="410.49629" y1="186.04242" x2="410.49629" y2="229.1887" gradientUnits="userSpaceOnUse" id="color-7"><stop offset="0" stop-color="#ebc9aa"/><stop offset="1" stop-color="#dabda3"/></linearGradient><linearGradient x1="453.31046" y1="142.71331" x2="453.31046" y2="185.85959" gradientUnits="userSpaceOnUse" id="color-8"><stop offset="0" stop-color="#ebc9aa"/><stop offset="1" stop-color="#dabda3"/></linearGradient><linearGradient x1="388.73275" y1="143.26178" x2="388.73275" y2="315.11562" gradientUnits="userSpaceOnUse" id="color-9"><stop offset="0" stop-color="#616161"/><stop offset="1" stop-color="#616161"/></linearGradient><linearGradient x1="367.09254" y1="271.96933" x2="367.09254" y2="315.11562" gradientUnits="userSpaceOnUse" id="color-10"><stop offset="0" stop-color="#ebc9aa"/><stop offset="1" stop-color="#dabda3"/></linearGradient><linearGradient x1="454.28671" y1="271.62604" x2="454.28671" y2="314.77233" gradientUnits="userSpaceOnUse" id="color-11"><stop offset="0" stop-color="#ebc9aa"/><stop offset="1" stop-color="#dabda3"/></linearGradient><linearGradient x1="410.9491" y1="228.71487" x2="410.9491" y2="271.86116" gradientUnits="userSpaceOnUse" id="color-12"><stop offset="0" stop-color="#ebc9aa"/><stop offset="1" stop-color="#dabda3"/></linearGradient><linearGradient x1="454.28804" y1="185.46041" x2="454.28804" y2="228.60669" gradientUnits="userSpaceOnUse" id="color-13"><stop offset="0" stop-color="#ebc9aa"/><stop offset="1" stop-color="#dabda3"/></linearGradient></defs><g transform="translate(7,-142.71331)"><g data-paper-data="{&quot;isPaintingLayer&quot;:true}" fill-rule="nonzero" stroke-linejoin="miter" stroke-miterlimit="10" stroke-dasharray="" stroke-dashoffset="0" style="mix-blend-mode: normal"><g stroke="none" stroke-linecap="butt"><path d="M-7,315.11562h487v31h-487z" data-paper-data="{&quot;origPos&quot;:null}" fill="url(#color-1)" stroke-width="1"/><path d="M-3.5,365.61562v-50.5h43.5v50.5z" data-paper-data="{&quot;origPos&quot;:null}" fill="#616161" stroke-width="0"/><path d="M86.5,365.61562v-50.5h43.5v50.5z" data-paper-data="{&quot;origPos&quot;:null}" fill="#616161" stroke-width="0"/><path d="M345.5,365.61562v-50.5h43.5v50.5z" data-paper-data="{&quot;origPos&quot;:null}" fill="#616161" stroke-width="0"/><path d="M432.5,365.61562v-50.5h43.5v50.5z" data-paper-data="{&quot;origPos&quot;:null}" fill="#616161" stroke-width="0"/><path d="M-4,344.11562v-29h45l-32.14286,27.51282z" data-paper-data="{&quot;origPos&quot;:null}" fill="#cc1919" stroke-width="0"/><path d="M465.42857,342.62844l-31.42857,-27.51282h44v29z" data-paper-data="{&quot;origPos&quot;:null,&quot;index&quot;:null}" fill="#cc1919" stroke-width="0"/><path d="M259.5,365.61562v-50.5h43.5v50.5z" data-paper-data="{&quot;origPos&quot;:null}" fill="#616161" stroke-width="0"/><path d="M173.5,365.61562v-50.5h43.5v50.5z" data-paper-data="{&quot;origPos&quot;:null}" fill="#616161" stroke-width="0"/></g><g data-paper-data="{&quot;index&quot;:null,&quot;origPos&quot;:null}" stroke="none" stroke-width="0" stroke-linecap="butt"><path d="M149.09422,239.49054v16.80557h-70.02322v-16.80557z" data-paper-data="{&quot;origPos&quot;:null}" fill="url(#color-2)"/><path d="M66,315.11562v-61.62043h95.23158v61.62043z" data-paper-data="{&quot;origPos&quot;:null}" fill="url(#color-3)"/><path d="M161.23158,226.41954v16.80557h-95.23158v-16.80557z" data-paper-data="{&quot;origPos&quot;:null}" fill="url(#color-4)"/></g><g data-paper-data="{&quot;origPos&quot;:null}" stroke-width="0"><path d="M301.75,315.11562v-43.14628h43.14628v43.14628z" data-paper-data="{&quot;origPos&quot;:null}" fill="url(#color-5)" stroke="none" stroke-linecap="butt"/><path d="M345.59404,271.78651v-43.14628h43.14628v43.14628z" data-paper-data="{&quot;origPos&quot;:null}" fill="url(#color-6)" stroke="none" stroke-linecap="butt"/><path d="M388.92315,229.1887v-43.14628h43.14628v43.14628z" data-paper-data="{&quot;origPos&quot;:null}" fill="url(#color-7)" stroke="none" stroke-linecap="butt"/><path d="M431.73732,185.85959v-43.14628h43.14628v43.14628z" data-paper-data="{&quot;origPos&quot;:null}" fill="url(#color-8)" stroke="none" stroke-linecap="butt"/><path d="M474.29403,314.38433l-171.85384,0.73129l172.58513,-171.85384z" data-paper-data="{&quot;origPos&quot;:null}" fill="url(#color-9)" stroke="#eccbab" stroke-linecap="round"/><path d="M345.5194,315.11562v-43.14629h43.14629v43.14629z" data-paper-data="{&quot;origPos&quot;:null}" fill="url(#color-10)" stroke="none" stroke-linecap="butt"/><path d="M432.96969,314.77233v-43.14629h42.63403v43.14629z" data-paper-data="{&quot;origPos&quot;:null}" fill="url(#color-11)" stroke="none" stroke-linecap="butt"/><path d="M388.77386,271.86116v-43.14629h44.35048v43.14629z" data-paper-data="{&quot;origPos&quot;:null}" fill="url(#color-12)" stroke="none" stroke-linecap="butt"/><path d="M432.7149,228.60669v-43.14629h43.14629v43.14629z" data-paper-data="{&quot;origPos&quot;:null}" fill="url(#color-13)" stroke="none" stroke-linecap="butt"/></g></g></g></svg>