<svg version="1.1" xmlns="http://www.w3.org/2000/svg" xmlns:xlink="http://www.w3.org/1999/xlink" width="103.74817" height="97.41237" viewBox="0,0,103.74817,97.41237"><defs><radialGradient cx="260.8848" cy="220.5842" r="10.33334" gradientUnits="userSpaceOnUse" id="color-1"><stop offset="0" stop-color="#fde401"/><stop offset="1" stop-color="#fd7e0b"/></radialGradient><radialGradient cx="212.19203" cy="203.1198" r="10.33334" gradientUnits="userSpaceOnUse" id="color-2"><stop offset="0" stop-color="#fde401"/><stop offset="1" stop-color="#fd7e0b"/></radialGradient><radialGradient cx="258.59846" cy="146.54529" r="10.33333" gradientUnits="userSpaceOnUse" id="color-3"><stop offset="0" stop-color="#fde401"/><stop offset="1" stop-color="#fd7e0b"/></radialGradient><radialGradient cx="240.33334" cy="176.00001" r="46.625" gradientUnits="userSpaceOnUse" id="color-4"><stop offset="0" stop-color="#fe6f06"/><stop offset="1" stop-color="#ffbb00"/></radialGradient><radialGradient cx="237.22728" cy="178.16242" r="46.625" gradientUnits="userSpaceOnUse" id="color-5"><stop offset="0" stop-color="#fe6f06"/><stop offset="1" stop-color="#ffbb00"/></radialGradient><radialGradient cx="241.77091" cy="177.81452" r="46.625" gradientUnits="userSpaceOnUse" id="color-6"><stop offset="0" stop-color="#fe6f06"/><stop offset="1" stop-color="#ffbb00"/></radialGradient><radialGradient cx="238.11995" cy="176.81743" r="46.625" gradientUnits="userSpaceOnUse" id="color-7"><stop offset="0" stop-color="#fe6f06"/><stop offset="1" stop-color="#ffbb00"/></radialGradient><radialGradient cx="240.00002" cy="180.00001" r="29.5" gradientUnits="userSpaceOnUse" id="color-8"><stop offset="0" stop-color="#d17aee"/><stop offset="1" stop-color="#9457aa"/></radialGradient><radialGradient cx="203.55906" cy="158.99763" r="10.33333" gradientUnits="userSpaceOnUse" id="color-9"><stop offset="0" stop-color="#fde401"/><stop offset="1" stop-color="#fd7e0b"/></radialGradient><radialGradient cx="275.00003" cy="164.66668" r="10.33333" gradientUnits="userSpaceOnUse" id="color-10"><stop offset="0" stop-color="#fde401"/><stop offset="1" stop-color="#fd7e0b"/></radialGradient><radialGradient cx="272.56027" cy="197.45642" r="10.33334" gradientUnits="userSpaceOnUse" id="color-11"><stop offset="0" stop-color="#fde401"/><stop offset="1" stop-color="#fd7e0b"/></radialGradient><radialGradient cx="229.13727" cy="142.2248" r="10.33333" gradientUnits="userSpaceOnUse" id="color-12"><stop offset="0" stop-color="#fde401"/><stop offset="1" stop-color="#fd7e0b"/></radialGradient><radialGradient cx="216.90392" cy="217.06864" r="10.33334" gradientUnits="userSpaceOnUse" id="color-13"><stop offset="0" stop-color="#fde401"/><stop offset="1" stop-color="#fd7e0b"/></radialGradient><radialGradient cx="244.39722" cy="217.32441" r="10.33333" gradientUnits="userSpaceOnUse" id="color-14"><stop offset="0" stop-color="#fde401"/><stop offset="1" stop-color="#fd7e0b"/></radialGradient><radialGradient cx="238.9577" cy="180" r="62.6052" gradientUnits="userSpaceOnUse" id="color-15"><stop offset="0" stop-color="#6fc9ff" stop-opacity="0"/><stop offset="1" stop-color="#6fc9ff"/></radialGradient><linearGradient x1="191.2938" y1="134.4617" x2="191.2938" y2="225.5383" gradientUnits="userSpaceOnUse" id="color-16"><stop offset="0" stop-color="#6fc9ff"/><stop offset="1" stop-color="#4395ff"/></linearGradient></defs><g transform="translate(-188.12591,-131.29381)"><g data-paper-data="{&quot;isPaintingLayer&quot;:true}" fill="none" fill-rule="nonzero" stroke="none" stroke-width="none" stroke-linecap="none" stroke-linejoin="miter" stroke-miterlimit="10" stroke-dasharray="" stroke-dashoffset="0" font-family="none" font-weight="none" font-size="none" text-anchor="none" style="mix-blend-mode: normal"><path d="M248.00853,207.96669l3.57073,-2.45514l3.12443,-1.33922l3.65666,-0.42937l4.18985,19.89697l-15.62308,-12.72038z" data-paper-data="{&quot;origPos&quot;:null,&quot;index&quot;:null,&quot;origRot&quot;:0}" fill="url(#color-1)" stroke="#000000" stroke-width="0" stroke-linecap="round"/><path d="M224.55785,190.00162l2.52382,3.52252l1.39946,3.09791l0.50009,3.64766l-19.81211,4.57434l12.41548,-15.86646z" data-paper-data="{&quot;origPos&quot;:null,&quot;index&quot;:null,&quot;origRot&quot;:0}" fill="url(#color-2)" stroke="#000000" stroke-width="0" stroke-linecap="round"/><path d="M252.16649,163.38661l-3.67596,-2.29458l-2.47465,-2.33059l-1.85272,-3.18166l16.57277,-11.78081l-5.43032,19.40104z" data-paper-data="{&quot;origPos&quot;:null,&quot;index&quot;:null,&quot;origRot&quot;:0}" fill="url(#color-3)" stroke="#000000" stroke-width="0" stroke-linecap="round"/><path d="M210.75002,182.50001l-16.5,-8l22.5,-6l50.25,2.25l20.5,5.75l-19,8.25z" data-paper-data="{&quot;origPos&quot;:null}" fill="url(#color-4)" stroke="#000000" stroke-width="0" stroke-linecap="round"/><path d="M234.33119,148.01218l9.92575,-15.41848l3.25133,23.05816l-8.27517,49.61498l-8.17298,19.65998l-5.90581,-19.85406z" data-paper-data="{&quot;origPos&quot;:null,&quot;origRot&quot;:0}" fill="url(#color-5)" stroke="#000000" stroke-width="0" stroke-linecap="round"/><path d="M217.8147,159.28014l-4.44028,-17.7914l19.03085,13.41929l30.49251,40.00414l8.73162,19.41833l-18.51336,-9.29076z" data-paper-data="{&quot;origPos&quot;:null,&quot;origRot&quot;:0}" fill="url(#color-6)" stroke="#000000" stroke-width="0" stroke-linecap="round"/><path d="M259.40013,155.26334l18.19619,-2.26903l-15.60999,17.27941l-43.38004,25.46168l-20.32726,6.33364l11.4492,-17.26204z" data-paper-data="{&quot;origPos&quot;:null,&quot;origRot&quot;:0}" fill="url(#color-7)" stroke="#000000" stroke-width="0" stroke-linecap="round"/><path d="M210.50002,180.00001c0,-16.2924 13.2076,-29.5 29.5,-29.5c16.2924,0 29.5,13.2076 29.5,29.5c0,16.2924 -13.2076,29.5 -29.5,29.5c-16.2924,0 -29.5,-13.2076 -29.5,-29.5z" data-paper-data="{&quot;origPos&quot;:null}" fill="url(#color-8)" stroke="none" stroke-width="0" stroke-linecap="butt"/><path d="M213.97498,172.40399l-13.55844,-14.9016l20.09689,3.09183l-0.22808,3.67471l-1.16577,3.1932l-2.25552,3.70006z" data-paper-data="{&quot;origPos&quot;:null,&quot;origRot&quot;:0}" fill="url(#color-9)" stroke="#000000" stroke-width="0" stroke-linecap="round"/><path d="M260.00003,174.66668l-1.66667,-4l-0.66666,-3.33334l0.33333,-3.66666h20.33333l-15.66666,12.66666z" data-paper-data="{&quot;origPos&quot;:null,&quot;index&quot;:null}" fill="url(#color-10)" stroke="#000000" stroke-width="0" stroke-linecap="round"/><path d="M263.7727,182.93054l11.73503,16.37614l-19.60148,-5.40613l0.65354,-3.62332l1.52892,-3.03611l2.67019,-3.4129z" data-paper-data="{&quot;origPos&quot;:null,&quot;index&quot;:null,&quot;origRot&quot;:0}" fill="url(#color-11)" stroke="#000000" stroke-width="0" stroke-linecap="round"/><path d="M236.72907,158.57607l-4.20762,1.03622l-3.39605,0.14976l-3.57274,-0.88942l3.10542,-20.09479l10.12537,17.4174z" data-paper-data="{&quot;origPos&quot;:null,&quot;index&quot;:null,&quot;origRot&quot;:0}" fill="url(#color-12)" stroke="#000000" stroke-width="0" stroke-linecap="round"/><path d="M221.23712,199.5694l3.92803,1.82985l2.74005,2.01189l2.22639,2.93236l-15.01478,13.71133l3.02728,-19.91794z" data-paper-data="{&quot;origPos&quot;:null,&quot;index&quot;:null,&quot;origRot&quot;:0}" fill="url(#color-13)" stroke="#000000" stroke-width="0" stroke-linecap="round"/><path d="M238.86547,200.16633l4.30286,-0.51301l3.38881,0.26736l3.43689,1.32035l-5.54347,19.56308l-7.91564,-18.52651z" data-paper-data="{&quot;origPos&quot;:null,&quot;index&quot;:null,&quot;origRot&quot;:0}" fill="url(#color-14)" stroke="#000000" stroke-width="0" stroke-linecap="round"/><path d="M236.63309,177.04132c0,5.94268 -3.53689,10.76017 -7.89986,10.76017c-4.36298,0 -7.89987,-4.81749 -7.89987,-10.76016c0,-5.94268 3.53689,-10.76017 7.89987,-10.76017c4.36298,0 7.89986,4.81749 7.89986,10.76017z" data-paper-data="{&quot;origPos&quot;:null}" fill="#ffffff" stroke="none" stroke-width="0" stroke-linecap="butt"/><path d="M233.55214,178.0456c0,1.50547 -0.77812,2.72591 -1.73797,2.72591c-0.95986,0 -1.73797,-1.22043 -1.73797,-2.72591c0,-1.50547 0.77811,-2.72592 1.73797,-2.72592c0.95986,0 1.73797,1.22043 1.73797,2.72592z" data-paper-data="{&quot;origPos&quot;:null}" fill="#000000" stroke="#854200" stroke-width="1.5" stroke-linecap="butt"/><path d="M243.30848,165.95833c4.36298,0 7.89987,4.8175 7.89987,10.76017c0,5.94268 -3.53688,10.76017 -7.89987,10.76017c-4.36298,0 -7.89988,-4.81749 -7.89988,-10.76016c0,-5.94268 3.53689,-10.76017 7.89988,-10.76017z" data-paper-data="{&quot;origPos&quot;:null,&quot;index&quot;:null}" fill="#ffffff" stroke="none" stroke-width="0" stroke-linecap="butt"/><path d="M240.22753,174.99688c0.95986,0 1.73797,1.22044 1.73797,2.72591c0,1.50547 -0.77811,2.72591 -1.73797,2.72591c-0.95986,0 -1.73798,-1.22044 -1.73798,-2.72591c0,-1.50547 0.77812,-2.72591 1.73798,-2.72591z" data-paper-data="{&quot;origPos&quot;:null,&quot;index&quot;:null}" fill="#000000" stroke="#854200" stroke-width="1.5" stroke-linecap="butt"/><path d="M236.15419,186.17069c1.46,0 2.78382,0.69899 3.74215,1.82883c0.95824,1.12984 1.55107,2.69053 1.55107,4.4121c0,1.72157 -0.59284,3.28227 -1.55107,4.41211c-0.95833,1.12984 -2.28214,1.82882 -3.74215,1.82882c-1.46,0 -2.78373,-0.69898 -3.74206,-1.82882c-0.95833,-1.12984 -1.55118,-2.69054 -1.55118,-4.41211c0,-1.72157 0.59285,-3.28226 1.55118,-4.4121c0.95833,-1.12984 2.28206,-1.82883 3.74206,-1.82883z" data-paper-data="{&quot;origPos&quot;:null,&quot;index&quot;:null}" id="ID0.2919205715879798" fill="#ffb197" stroke="none" stroke-width="0.99783" stroke-linecap="round"/><path d="M234.26886,190.8318c0.41634,-0.20138 0.89593,-0.17123 1.33491,0.03892c0.43871,0.21099 0.83711,0.60263 1.08971,1.12484c0.2526,0.52211 0.31232,1.07761 0.20544,1.55257c-0.10781,0.47458 -0.38186,0.86938 -0.79819,1.07066c-0.41625,0.20138 -0.89583,0.17123 -1.33491,-0.03884c-0.43862,-0.21108 -0.83702,-0.60274 -1.08962,-1.12485c-0.2526,-0.52221 -0.31232,-1.07769 -0.20544,-1.55265c0.10781,-0.47458 0.38186,-0.86928 0.7981,-1.07066z" data-paper-data="{&quot;origPos&quot;:null,&quot;index&quot;:null}" id="ID0.41036201547831297" fill="#a27060" stroke="none" stroke-width="0.73984" stroke-linecap="butt"/><path d="M191.2938,134.4617h97.4124v91.0766h-97.4124z" data-paper-data="{&quot;origPos&quot;:null}" id="ID0.6911031012423337" fill="url(#color-15)" stroke="url(#color-16)" stroke-width="6.33577" stroke-linecap="round"/></g></g></svg>