<svg xmlns="http://www.w3.org/2000/svg" xmlns:xlink="http://www.w3.org/1999/xlink" version="1.1" width="20.310699462890625" height="25.350000381469727" viewBox="0.17830002307891846 -0.3927000015974045 20.310699462890625 25.350000381469727">
  <defs>
    <radialGradient id="grad_1" cx="0.35600000000000004" cy="0.1745" r="1.07315">
      <stop offset="0" stop-color="#BDA001" stop-opacity="1"/>
      <stop offset="1" stop-color="#BE7800" stop-opacity="1"/>
    </radialGradient>
    <radialGradient id="grad_2" cx="0.2347" cy="0.1814" r="1.0641800000000001">
      <stop offset="0" stop-color="#FFFF00" stop-opacity="1"/>
      <stop offset="1" stop-color="#FF9400" stop-opacity="1"/>
    </radialGradient>
    <radialGradient id="grad_3" cx="0.2173" cy="0.172" r="1.0764">
      <stop offset="0" stop-color="#BDA501" stop-opacity="1"/>
      <stop offset="1" stop-color="#C07801" stop-opacity="1"/>
    </radialGradient>
  <radialGradient id="grad_1-.3477363586425781,0,0,0.4802761375904083,-73.1,-75.05" cx="10.2725" cy="4.3289" r="21.1061" gradientUnits="userSpaceOnUse">
      <stop offset="0" stop-color="#BDA001" stop-opacity="1"/>
      <stop offset="1" stop-color="#BE7800" stop-opacity="1"/>
    </radialGradient><radialGradient id="grad_2-.29690447449684143,0,0,0.4802761375904083,-63.75,-75.2" cx="4.2112" cy="4.5244" r="21.5417" gradientUnits="userSpaceOnUse">
      <stop offset="0" stop-color="#FFFF00" stop-opacity="1"/>
      <stop offset="1" stop-color="#FF9400" stop-opacity="1"/>
    </radialGradient><radialGradient id="grad_3-.5212793946266174,0,0,0.4802761375904083,-117.5,-75.1" cx="7.0333" cy="6.0168" r="14.8645" gradientUnits="userSpaceOnUse">
      <stop offset="0" stop-color="#BDA501" stop-opacity="1"/>
      <stop offset="1" stop-color="#C07801" stop-opacity="1"/>
    </radialGradient></defs>
  <!-- Exported by Scratch - http://scratch.mit.edu/ -->
  <path id="ID0.7142658131197095" fill="url(#grad_1-.3477363586425781,0,0,0.4802761375904083,-73.1,-75.05)" stroke="none" d="M 11.3652 0.4254 C 13.5103 0.7477 15.8576 1.6799 17.4053 3.8258 C 18.991 6.024 19.989 9.0732 19.989 12.4323 C 19.989 15.7913 19.0397 18.9107 17.4053 21.0388 C 15.7557 23.1871 13.1883 23.4181 10.9827 24.127 C 10.2027 24.3772 9.4293 24.0819 8.6876 23.9349 C 7.82 23.7447 6.3988 24.845 6.1665 23.1184 C 5.2367 16.2121 4.1385 8.7111 5.6449 2.0343 C 6.2232 -0.5289 9.4185 0.1243 11.3652 0.4254 Z " stroke-width="0.4192766052743466"/>
  <path id="ID0.7142658131197095" fill="url(#grad_2-.29690447449684143,0,0,0.4802761375904083,-63.75,-75.2)" stroke="none" d="M 8.2048 0.1073 C 10.2813 0.1073 12.1628 1.4718 13.5253 3.6758 C 14.8878 5.8797 15.7313 8.9232 15.7313 12.2823 C 15.7313 15.6413 14.8878 18.6849 13.5253 20.8888 C 12.1628 23.0928 10.2813 24.4573 8.2048 24.4573 C 6.1282 24.4573 4.2468 23.0928 2.8843 20.8888 C 1.5218 18.6849 0.6783 15.6413 0.6783 12.2823 C 0.6783 8.9232 1.5218 5.8797 2.8843 3.6758 C 4.2468 1.4718 6.1282 0.1073 8.2048 0.1073 Z " stroke-width="0.39926021296580905"/>
  <path id="ID0.06001657713204622" fill="url(#grad_3-.5212793946266174,0,0,0.4802761375904083,-117.5,-75.1)" stroke="none" d="M 6.2517 2.8488 L 9.8486 2.8488 L 9.8486 21.2674 L 6.2517 21.2674 L 6.2517 2.8488 Z " stroke-width="0.5011972543824704"/>
</svg>