<svg xmlns="http://www.w3.org/2000/svg" xmlns:xlink="http://www.w3.org/1999/xlink" version="1.1" width="38.109813735913626" height="33.240516708325735" viewBox="-0.03483667275875535 0.41475502350360427 38.109813735913626 33.240516708325735">
  <defs>
    <radialGradient id="grad_1" cx="0.4299" cy="0.4257" r="0.7465900000000001">
      <stop offset="0" stop-color="#FFFBC6" stop-opacity="1"/>
      <stop offset="1" stop-color="#E6D380" stop-opacity="1"/>
    </radialGradient>
    <radialGradient id="grad_2" cx="0.4482" cy="0.49" r="0.71734">
      <stop offset="0" stop-color="#4F492C" stop-opacity="1"/>
      <stop offset="1" stop-color="#000000" stop-opacity="1"/>
    </radialGradient>
    <radialGradient id="grad_3" cx="0.4057" cy="0.19579999999999997" r="1.04546">
      <stop offset="0" stop-color="#43F665" stop-opacity="1"/>
      <stop offset="1" stop-color="#36C651" stop-opacity="1"/>
    </radialGradient>
    <radialGradient id="grad_4" cx="0.25379999999999997" cy="0.19690000000000002" r="1.04403">
      <stop offset="0" stop-color="#FFFBC6" stop-opacity="1"/>
      <stop offset="1" stop-color="#E6D380" stop-opacity="1"/>
    </radialGradient>
    <radialGradient id="grad_5" cx="0.4482" cy="0.49" r="0.71734">
      <stop offset="0" stop-color="#4F492C" stop-opacity="1"/>
      <stop offset="1" stop-color="#000000" stop-opacity="1"/>
    </radialGradient>
    <radialGradient id="grad_6" cx="0.5215" cy="0.1844" r="1.0602800000000001">
      <stop offset="0" stop-color="#FFFFFF" stop-opacity="1"/>
      <stop offset="1" stop-color="#E5E5E5" stop-opacity="1"/>
    </radialGradient>
  <radialGradient id="grad_1-.8257243037223816,0,0,1,-180.1,-161.6" cx="16.2929" cy="23.5745" r="21.7411" gradientUnits="userSpaceOnUse">
      <stop offset="0" stop-color="#FFFBC6" stop-opacity="1"/>
      <stop offset="1" stop-color="#E6D380" stop-opacity="1"/>
    </radialGradient><radialGradient id="grad_2-.9992231130599976,-4.274552430063317e-17,-2.8778278563932325e-17,0.9077160954475403,-197.6,-146.6" cx="24.4093" cy="23.1794" r="6.0876" gradientUnits="userSpaceOnUse">
      <stop offset="0" stop-color="#4F492C" stop-opacity="1"/>
      <stop offset="1" stop-color="#000000" stop-opacity="1"/>
    </radialGradient><radialGradient id="grad_3-.8559701442718506,0,0,0.9666550755500793,-186.7,-155.2" cx="14.8303" cy="4.9047" r="30.906" gradientUnits="userSpaceOnUse">
      <stop offset="0" stop-color="#43F665" stop-opacity="1"/>
      <stop offset="1" stop-color="#36C651" stop-opacity="1"/>
    </radialGradient><radialGradient id="grad_4-,0,0,1,-212.7,-165.15" cx="7.3993" cy="17.8367" r="14.6307" gradientUnits="userSpaceOnUse">
      <stop offset="0" stop-color="#FFFBC6" stop-opacity="1"/>
      <stop offset="1" stop-color="#E6D380" stop-opacity="1"/>
    </radialGradient><radialGradient id="grad_5-,0,0,1,-212.5,-164.9" cx="9.6494" cy="22.25" r="6.2652" gradientUnits="userSpaceOnUse">
      <stop offset="0" stop-color="#4F492C" stop-opacity="1"/>
      <stop offset="1" stop-color="#000000" stop-opacity="1"/>
    </radialGradient><radialGradient id="grad_6-.7163537740707397,0,0,1,-149.45,-160.6" cx="19.8179" cy="16.1788" r="34.4689" gradientUnits="userSpaceOnUse">
      <stop offset="0" stop-color="#FFFFFF" stop-opacity="1"/>
      <stop offset="1" stop-color="#E5E5E5" stop-opacity="1"/>
    </radialGradient></defs>
  <!-- Exported by Scratch - http://scratch.mit.edu/ -->
  <path id="ID0.15607240749523044" fill="url(#grad_1-.8257243037223816,0,0,1,-180.1,-161.6)" stroke="none" stroke-linecap="round" d="M 12.3763 17.1 C 15.6082 17.013 18.8674 16.699 22.0786 16.7 C 26.4904 17.216 31.1929 16.466 35.2076 18.65 C 36.4999 19.355 35.7741 22.393 35.0838 23.95 C 33.898 26.612 32.2309 29.435 29.923 30.7 C 26.1684 32.659 21.9704 33.217 17.7848 33.15 C 13.567 33.083 9.2782 32.467 5.6145 30.146 C 3.7021 28.935 2.8004 25.982 2.0961 23.5 C 1.6617 21.525 0.8723 18.278 2.3438 17.35 C 5.3131 15.484 9.1354 17.189 12.3763 17.1 Z " stroke-width="0.9170116209072303"/>
  <path id="ID0.21181316301226616" fill="url(#grad_2-.9992231130599976,-4.274552430063317e-17,-2.8778278563932325e-17,0.9077160954475403,-197.6,-146.6)" stroke="none" d="M 24.7521 18.8313 C 25.9492 19.0791 27.3541 19.3713 28.0745 20.2836 C 28.714 21.0887 28.3553 22.2579 28.2744 23.2791 C 28.1895 24.3266 28.1855 25.2996 27.475 26.3653 C 26.9104 27.1877 25.8063 27.8703 24.7521 27.9084 C 23.7689 27.9438 22.8476 27.4001 22.1911 26.5786 C 21.5356 25.7562 21.1359 24.4854 21.1299 23.3698 C 21.1219 21.9012 21.1509 20.2446 22.0792 19.0582 C 22.6188 18.4055 23.9028 18.6561 24.7521 18.8313 Z " stroke-width="0.9545667445516424"/>
  <path id="ID0.26931737549602985" fill="url(#grad_3-.8559701442718506,0,0,0.9666550755500793,-186.7,-155.2)" stroke="none" stroke-linecap="round" d="M 18.2193 0.9148 C 22.6027 0.908 27.605 1.6698 30.9304 4.9264 C 34.017 8.0303 34.5049 13.46 35.4671 18.0246 C 35.7076 19.1633 34.8858 19.5819 33.9263 19.8129 C 30.0907 20.7361 26.1344 21.751 22.1995 21.0696 C 17.4788 20.2518 13.4977 16.0806 8.7608 15.4146 C 6.0294 15.0328 1.3481 20.4229 0.8431 18.4596 C 0.0564 15.2165 2.9838 8.1589 6.1775 5.0018 C 9.3274 1.8921 14.0036 0.9216 18.2193 0.9148 Z " stroke-width="0.9129914903687499"/>
  <path id="ID0.9385899971239269" fill="none" stroke="#2B9638" stroke-width="1" stroke-linecap="round" d="M 19.7 18.75 L 22 14.75 L 23.1 18.85 L 22.1 14.75 L 22.2 8.15 "/>
  <path id="ID0.7226808085106313" fill="url(#grad_4-,0,0,1,-212.7,-165.15)" stroke="none" d="M 10.25 15 C 11.917 14.918 14.009 14.575 15.195 15.768 C 16.635 17.214 17.1 19.324 17.1 21.6 C 17.1 23.876 16.372 25.939 15.195 27.432 C 14.018 28.926 12.393 29.85 10.6 29.85 C 8.807 29.85 7.182 28.926 6.005 27.432 C 4.828 25.939 4.111 23.741 4.1 21.6 C 4.09 19.563 4.635 17.631 5.9 16.35 C 6.939 15.146 8.77 15.023 10.25 15 Z " stroke-width="1"/>
  <path id="ID0.9385899971239269" fill="none" stroke="#2B9638" stroke-width="1.0000000048219388" stroke-linecap="round" d="M 4.3189 16.649 L 8.6853 11.8848 L 9.7235 14.9746 L 8.8067 11.9572 L 10.6115 6.035 "/>
  <path id="ID0.21181316301226616" fill="url(#grad_5-,0,0,1,-212.5,-164.9)" stroke="none" d="M 10.025 17.35 C 11.025 17.35 11.931 17.91 12.588 18.815 C 13.244 19.721 13.65 20.971 13.65 22.35 C 13.65 23.729 13.244 24.979 12.588 25.885 C 11.931 26.79 11.025 27.35 10.025 27.35 C 9.025 27.35 8.119 26.79 7.462 25.885 C 6.806 24.979 6.4 23.729 6.4 22.35 C 6.4 20.971 6.806 19.721 7.462 18.815 C 8.119 17.91 9.025 17.35 10.025 17.35 Z " stroke-width="1"/>
  <path id="ID0.9385899971239269" fill="none" stroke="#2B9638" stroke-width="1.000000045728082" stroke-linecap="round" d="M 30.4936 18.8512 L 31.5644 14.3631 L 33.7823 17.9826 L 31.6603 14.3347 L 30.0452 4.6448 "/>
  <path id="ID0.5838042767718434" fill="url(#grad_6-.7163537740707397,0,0,1,-149.45,-160.6)" stroke="none" stroke-linecap="round" d="M 6.5002 18.5 C 4.6341 18.748 2.6126 19.446 0.6261 19.15 C 0.1942 19.092 0.6949 18.09 1.3783 17.75 C 4.1119 16.391 7.0626 15.391 9.8313 14.75 C 11.5849 14.344 13.3987 13.953 15.1681 14.55 C 18.0829 15.534 20.5429 18.515 23.4778 19.4 C 25.6505 20.048 28.0782 19.43 30.3548 19.05 C 32.347 18.718 34.3936 16.575 36.3722 17.4 C 37.3858 17.775 38.0936 21.106 37.0885 21.75 C 33.3556 24.15 28.9944 25.196 24.9105 24.55 C 20.4362 23.841 16.5062 19.204 12.052 17.7 C 10.3606 17.132 8.3506 18.254 6.5002 18.5 Z " stroke-width="0.869816857052504"/>
  <path id="ID0.8476383532397449" fill="none" stroke="#2B9638" stroke-width="1" stroke-linecap="round" d="M 8.35 3.75 L 11.2 5.75 L 22.35 8.15 L 29.7 4.65 "/>
</svg>