<svg version="1.1" xmlns="http://www.w3.org/2000/svg" xmlns:xlink="http://www.w3.org/1999/xlink" width="423.23542" height="112.25986" viewBox="0,0,423.23542,112.25986"><defs><linearGradient x1="196.8352" y1="-1407.28346" x2="196.8352" y2="4597.95039" gradientUnits="userSpaceOnUse" id="color-1"><stop offset="0" stop-color="#519dff"/><stop offset="1" stop-color="#519dff" stop-opacity="0"/></linearGradient></defs><g transform="translate(-38.11642,-240.10136)"><g data-paper-data="{&quot;isPaintingLayer&quot;:true}" fill="url(#color-1)" fill-rule="nonzero" stroke="#3e7ac6" stroke-width="2" stroke-linecap="butt" stroke-linejoin="miter" stroke-miterlimit="10" stroke-dasharray="" stroke-dashoffset="0" font-family="none" font-weight="none" font-size="none" text-anchor="none" style="mix-blend-mode: normal"><path d="M39.12013,244.13599c0,0 12.12422,-3.02343 19.88435,-3.03463c18.25525,-0.02636 28.61532,1.19427 46.77631,3.04724c16.31384,5.15431 36.63157,11.64135 74.22859,11.43218c37.02505,1.79292 29.07688,-10.98183 86.01678,-14.10389c51.2552,-1.11061 54.68268,16.18709 74.96827,16.22895c37.8171,0.07804 53.05017,-7.68778 71.04278,-11.53177c22.99754,-3.28133 48.31363,-3.52419 48.31363,-3.52419l-0.10787,108.23954c0,0 -417.37138,-0.08997 -420.61617,0.33351z" data-paper-data="{&quot;origPos&quot;:null}" id="ID0.18147781118750572"/></g></g></svg>