<svg version="1.1" xmlns="http://www.w3.org/2000/svg" xmlns:xlink="http://www.w3.org/1999/xlink" width="615.4985" height="545.02889" viewBox="0,0,615.4985,545.02889"><defs><linearGradient x1="15.00002" y1="180.00003" x2="106.50002" y2="180.00003" gradientUnits="userSpaceOnUse" id="color-1"><stop offset="0" stop-color="#296cdb" stop-opacity="0"/><stop offset="1" stop-color="#296cdb"/></linearGradient><linearGradient x1="320.88467" y1="359.60444" x2="320.88467" y2="451.09908" gradientUnits="userSpaceOnUse" id="color-2"><stop offset="0" stop-color="#296cdb"/><stop offset="1" stop-color="#296cdb" stop-opacity="0"/></linearGradient><radialGradient cx="102.71667" cy="365.63334" r="86" gradientUnits="userSpaceOnUse" id="color-3"><stop offset="0" stop-color="#296cdb"/><stop offset="1" stop-color="#296cdb" stop-opacity="0"/></radialGradient><linearGradient x1="625.9318" y1="180.00003" x2="534.4318" y2="180.00003" gradientUnits="userSpaceOnUse" id="color-4"><stop offset="0" stop-color="#296cdb" stop-opacity="0"/><stop offset="1" stop-color="#296cdb"/></linearGradient><radialGradient cx="538.21517" cy="365.63334" r="86" gradientUnits="userSpaceOnUse" id="color-5"><stop offset="0" stop-color="#296cdb"/><stop offset="1" stop-color="#296cdb" stop-opacity="0"/></radialGradient><linearGradient x1="320.88467" y1="0.63334" x2="320.88467" y2="-90.86131" gradientUnits="userSpaceOnUse" id="color-6"><stop offset="0" stop-color="#296cdb"/><stop offset="1" stop-color="#296cdb" stop-opacity="0"/></linearGradient><radialGradient cx="102.71667" cy="-5.39556" r="86" gradientUnits="userSpaceOnUse" id="color-7"><stop offset="0" stop-color="#296cdb"/><stop offset="1" stop-color="#296cdb" stop-opacity="0"/></radialGradient><radialGradient cx="538.21517" cy="-5.39556" r="86" gradientUnits="userSpaceOnUse" id="color-8"><stop offset="0" stop-color="#296cdb"/><stop offset="1" stop-color="#296cdb" stop-opacity="0"/></radialGradient><radialGradient cx="462.80251" cy="257.01998" r="32.03267" gradientUnits="userSpaceOnUse" id="color-9"><stop offset="0" stop-color="#ffff00"/><stop offset="1" stop-color="#ff9400"/></radialGradient><radialGradient cx="468.92353" cy="258.92663" r="21.92326" gradientUnits="userSpaceOnUse" id="color-10"><stop offset="0" stop-color="#bda501"/><stop offset="1" stop-color="#c07801"/></radialGradient><radialGradient cx="470.91702" cy="229.85292" r="24.1454" gradientUnits="userSpaceOnUse" id="color-11"><stop offset="0" stop-color="#fff343"/><stop offset="1" stop-color="#fff343" stop-opacity="0"/></radialGradient><linearGradient x1="454.05742" y1="214.11121" x2="454.05742" y2="245.02471" gradientUnits="userSpaceOnUse" id="color-12"><stop offset="0" stop-color="#fff01b"/><stop offset="1" stop-color="#ffa30a"/></linearGradient><linearGradient x1="471.47632" y1="225.72231" x2="471.47632" y2="232.42511" gradientUnits="userSpaceOnUse" id="color-13"><stop offset="0" stop-color="#000000"/><stop offset="1" stop-color="#674205"/></linearGradient><linearGradient x1="465.77632" y1="225.72231" x2="465.77632" y2="232.42511" gradientUnits="userSpaceOnUse" id="color-14"><stop offset="0" stop-color="#000000"/><stop offset="1" stop-color="#674205"/></linearGradient><radialGradient cx="182.62872" cy="181.80501" r="37.3349" gradientUnits="userSpaceOnUse" id="color-15"><stop offset="0" stop-color="#3e91ff"/><stop offset="1" stop-color="#3e91ff" stop-opacity="0"/></radialGradient><linearGradient x1="483.81263" y1="302.50721" x2="483.81263" y2="307.85004" gradientUnits="userSpaceOnUse" id="color-16"><stop offset="0" stop-color="#bc041a"/><stop offset="1" stop-color="#880010"/></linearGradient><linearGradient x1="475.90167" y1="299.53052" x2="475.90167" y2="306.7549" gradientUnits="userSpaceOnUse" id="color-17"><stop offset="0" stop-color="#bc041a"/><stop offset="1" stop-color="#a90216"/></linearGradient></defs><g transform="translate(-12.71667,92.39556)"><g data-paper-data="{&quot;isPaintingLayer&quot;:true}" fill-rule="nonzero" stroke-linejoin="miter" stroke-miterlimit="10" stroke-dasharray="" stroke-dashoffset="0" style="mix-blend-mode: normal"><g stroke="none" stroke-linecap="butt"><path d="M15.00002,-3.99998h91.5v368h-91.5z" fill="url(#color-1)" stroke-width="1.89892"/><path d="M106.00002,-3.99998h429v368h-429z" data-paper-data="{&quot;origPos&quot;:null}" fill="#296cdb" stroke-width="0.90886"/><path d="M106.17998,451.09908l-0.07542,-91.34377l429.48484,-0.15087l0.07542,91.34377z" data-paper-data="{&quot;index&quot;:null,&quot;origRot&quot;:0}" fill="url(#color-2)" stroke-width="1.89892"/><path d="M12.71667,452.63334v-89h94v89z" fill="url(#color-3)" stroke-width="0"/><path d="M625.9318,364.00003h-91.5v-368h91.5z" data-paper-data="{&quot;index&quot;:null}" fill="url(#color-4)" stroke-width="1.89892"/><path d="M534.21517,452.63334v-89h94v89z" data-paper-data="{&quot;index&quot;:null}" fill="url(#color-5)" stroke-width="0"/><path d="M535.66481,-90.71044l-0.07542,91.34377l-429.48483,-0.15087l0.07542,-91.34377z" data-paper-data="{&quot;index&quot;:null,&quot;origRot&quot;:0}" fill="url(#color-6)" stroke-width="1.89892"/><path d="M106.71667,-92.39556v89h-94v-89z" data-paper-data="{&quot;index&quot;:null}" fill="url(#color-7)" stroke-width="0"/><path d="M628.21517,-92.39556v89h-94v-89z" data-paper-data="{&quot;index&quot;:null}" fill="url(#color-8)" stroke-width="0"/></g><text transform="translate(436.43202,350.79977) scale(0.74106,0.74106)" font-size="22" xml:space="preserve" fill="#a1f4fa" fill-rule="nonzero" stroke="none" stroke-width="1" stroke-linecap="butt" stroke-linejoin="miter" stroke-miterlimit="10" stroke-dasharray="" stroke-dashoffset="0" font-family="Sans Serif" font-weight="400" text-anchor="start" style="mix-blend-mode: normal"><tspan x="0" dy="0">Page 3</tspan></text><path d="M470.78818,251.55967c4.15242,0 7.91471,1.68676 10.63923,4.41128c2.72452,2.7244 4.41116,6.48668 4.41116,10.63911c0,4.1523 -1.68663,7.91472 -4.41116,10.63912c-2.72452,2.72452 -6.48681,4.41128 -10.63923,4.41128c-4.1523,0 -7.91459,-1.68676 -10.63912,-4.41128c-2.72452,-2.7244 -4.41128,-6.48682 -4.41128,-10.63912c0,-4.15242 1.68676,-7.91471 4.41128,-10.63911c2.72452,-2.72452 6.48682,-4.41128 10.63912,-4.41128z" data-paper-data="{&quot;origPos&quot;:null}" fill="url(#color-9)" stroke="none" stroke-width="0.48028" stroke-linecap="butt"/><path d="M467.63334,255.01044h5.93709v22.76855h-5.93709z" data-paper-data="{&quot;origPos&quot;:null}" fill="url(#color-10)" stroke="none" stroke-width="0.59798" stroke-linecap="butt"/><text transform="translate(148.42502,123.67519) scale(0.71252,0.71252)" font-size="22" xml:space="preserve" data-paper-data="{&quot;origPos&quot;:null}" fill="#a1f3f9" fill-rule="nonzero" stroke="none" stroke-width="1" stroke-linecap="butt" stroke-linejoin="miter" stroke-miterlimit="10" stroke-dasharray="" stroke-dashoffset="0" font-family="Sans Serif" font-weight="400" text-anchor="start" style="mix-blend-mode: normal"><tspan x="0" dy="0">The UI, these helpful things located on the</tspan><tspan x="0" dy="24.86px">top-left of the screen, contain information.</tspan></text><text transform="translate(148.25902,99.81805) scale(1.62937,1.62937)" font-size="22" xml:space="preserve" fill="#a1f3f9" fill-rule="nonzero" stroke="none" stroke-width="1" stroke-linecap="butt" stroke-linejoin="miter" stroke-miterlimit="10" stroke-dasharray="" stroke-dashoffset="0" font-family="Sans Serif" font-weight="400" text-anchor="start" style="mix-blend-mode: normal"><tspan x="0" dy="0">The UI</tspan></text><text transform="translate(232.22502,169.67519) scale(0.71252,0.71252)" font-size="22" xml:space="preserve" data-paper-data="{&quot;origPos&quot;:null}" fill="#a1f3f9" fill-rule="nonzero" stroke="none" stroke-width="1" stroke-linecap="butt" stroke-linejoin="miter" stroke-miterlimit="10" stroke-dasharray="" stroke-dashoffset="0" font-family="Sans Serif" font-weight="400" text-anchor="start" style="mix-blend-mode: normal"><tspan x="0" dy="0">This is the health meter. It diplays</tspan><tspan x="0" dy="24.86px">your character's health. If it</tspan><tspan x="0" dy="24.86px">reaches 0, you will lose a life.</tspan></text><g stroke="none"><path d="M452.61822,226.36431l-0.6505,-0.8396l0.5638,-1.7234l0.9974,-0.4419h10.2778l4.5101,-10.3847l0.9974,-0.8396l0.9975,0.0442l1.2142,0.928l4.857,10.1195l10.4079,-0.1768l1.0408,0.6187l0.824,1.0164l-0.824,1.8118l-5.9411,7.0262l1.7346,10.6497l0.0867,1.6792l-1.0841,0.5745l-1.9081,-0.3535l-9.9743,-7.0704l-8.4998,7.9542l-1.9081,0.3535l-1.3877,-0.7512l-0.477,-2.0769l0.9974,-9.8986z" fill="url(#color-11)" stroke-width="0.8756" stroke-linecap="round"/><path d="M454.63992,226.61641l-0.5825,-0.7379l0.5049,-1.5146l0.8932,-0.3883h9.2041l4.039,-9.1265l0.8932,-0.7379l0.8933,0.0389l1.0874,0.8155l4.3496,8.8935l9.3207,-0.1554l0.932,0.5437l0.7379,0.8933l-0.7379,1.5922l-5.3205,6.175l1.5534,9.3595l0.0777,1.4757l-0.9709,0.5049l-1.7088,-0.3107l-8.9323,-6.2137l-7.6119,6.9904l-1.7087,0.3107l-1.2428,-0.6602l-0.4272,-1.8253l0.8932,-8.6993z" fill="url(#color-12)" stroke-width="0.77672" stroke-linecap="round"/><g stroke-width="1.6871"><path d="M472.84742,225.72292c0.4281,-0.0165 0.8547,0.3379 1.0344,0.7749c0.326,0.7932 0.3611,1.7389 0.3367,2.6221c-0.0168,0.8153 -0.1462,1.6581 -0.457,2.3871c-0.1783,0.4278 -0.4997,0.9218 -0.9141,0.9181c-0.3992,-0.0037 -0.7389,-0.3122 -0.9583,-0.8667c-0.2803,-0.7014 -0.4128,-1.5424 -0.4128,-2.5303c0,-0.9879 0.1021,-1.7958 0.4128,-2.5303c0.2042,-0.4848 0.5942,-0.7914 0.9583,-0.7749z" fill="url(#color-13)" stroke-linecap="round"/><path d="M472.91052,226.24832c0.221,0 0.4205,0.1084 0.5653,0.2828c0.1447,0.1744 0.2346,0.415 0.2346,0.6812c0,0.2663 -0.0899,0.5068 -0.2346,0.6813c-0.1448,0.1744 -0.3443,0.2828 -0.5653,0.2828c-0.2209,0 -0.4204,-0.1084 -0.5652,-0.2828c-0.1447,-0.1745 -0.2346,-0.415 -0.2346,-0.6813c0,-0.2662 0.0899,-0.5068 0.2346,-0.6812c0.1448,-0.1744 0.3443,-0.2828 0.5652,-0.2828z" fill="#ffffff" stroke-linecap="butt"/></g><g stroke-width="1.6871"><path d="M467.14742,225.72292c0.4281,-0.0165 0.8547,0.3379 1.0344,0.7749c0.326,0.7932 0.3611,1.7389 0.3367,2.6221c-0.0168,0.8153 -0.1462,1.6581 -0.457,2.3871c-0.1783,0.4278 -0.4997,0.9218 -0.9141,0.9181c-0.3992,-0.0037 -0.7389,-0.3122 -0.9583,-0.8667c-0.2803,-0.7014 -0.4128,-1.5424 -0.4128,-2.5303c0,-0.9879 0.1021,-1.7958 0.4128,-2.5303c0.2042,-0.4848 0.5942,-0.7914 0.9583,-0.7749z" fill="url(#color-14)" stroke-linecap="round"/><path d="M467.26052,226.14831c0.221,0 0.4205,0.1084 0.5653,0.2828c0.1447,0.1744 0.2346,0.415 0.2346,0.6812c0,0.2663 -0.0899,0.5068 -0.2346,0.6813c-0.1448,0.1744 -0.3443,0.2828 -0.5653,0.2828c-0.2209,0 -0.4204,-0.1084 -0.5652,-0.2828c-0.1447,-0.1745 -0.2346,-0.415 -0.2346,-0.6813c0,-0.2662 0.0899,-0.5068 0.2346,-0.6812c0.1448,-0.1744 0.3443,-0.2828 0.5652,-0.2828z" fill="#ffffff" stroke-linecap="butt"/></g></g><text transform="translate(150.02501,235.07519) scale(0.71252,0.71252)" font-size="22" xml:space="preserve" data-paper-data="{&quot;origPos&quot;:null}" fill="#a1f3f9" fill-rule="nonzero" stroke="none" stroke-width="1" stroke-linecap="butt" stroke-linejoin="miter" stroke-miterlimit="10" stroke-dasharray="" stroke-dashoffset="0" font-family="Sans Serif" font-weight="400" text-anchor="start" style="mix-blend-mode: normal"><tspan x="0" dy="0">Star/Grand Star counter: shows how</tspan><tspan x="0" dy="24.86px">many stars/grand stars you have.</tspan><tspan x="0" dy="24.86px">Coin counter: displays the current</tspan><tspan x="0" dy="24.86px">amount of coins</tspan><tspan x="0" dy="24.86px">Lives counter: displays the life number.</tspan><tspan x="0" dy="24.86px">Be careful: if it gets to 0, it's game over!</tspan></text><g><g><path d="M181.99622,154.5523c7.7208,0 14.7168,3.1356 19.7845,8.2014c5.0658,5.0678 8.2014,12.0637 8.2014,19.7845c0,7.7208 -3.1356,14.7168 -8.2014,19.7846c-5.0677,5.0658 -12.0637,8.2014 -19.7845,8.2014c-7.7208,0 -14.7168,-3.1356 -19.7845,-8.2014c-5.0658,-5.0678 -8.2014,-12.0638 -8.2014,-19.7846c0,-7.7208 3.1356,-14.7167 8.2014,-19.7845c5.0677,-5.0658 12.0637,-8.2014 19.7845,-8.2014z" fill="url(#color-15)" stroke="none" stroke-width="1.95364" stroke-linecap="butt"/><path d="M189.71362,155.23241c0,0 4.1651,1.4575 6.0563,2.5398c2.1861,1.2503 4.1534,2.6667 6.1539,4.3957c1.7114,1.5551 3.2763,3.3915 4.3957,5.3725c1.4907,2.6394 3.5166,8.4007 3.5166,8.4007" fill="none" stroke="#64a8ff" stroke-width="3.90729" stroke-linecap="round"/><path d="M154.96391,175.54112c0,0 2.0259,-5.7613 3.5166,-8.4007c1.1194,-1.981 2.6843,-3.8174 4.3957,-5.3725c2.0005,-1.729 3.9678,-3.1454 6.1539,-4.3957c1.8912,-1.0823 6.0563,-2.5398 6.0563,-2.5398" fill="none" stroke="#64a8ff" stroke-width="3.90729" stroke-linecap="round"/><path d="M210.33612,189.05891c0,0 -2.0259,5.7613 -3.5166,8.4007c-1.1194,1.981 -2.6843,3.8174 -4.3957,5.3725c-2.0005,1.729 -3.9678,3.1454 -6.1539,4.3957c-1.8912,1.0823 -6.0563,2.5398 -6.0563,2.5398" fill="none" stroke="#64a8ff" stroke-width="3.90729" stroke-linecap="round"/><path d="M175.38642,209.86762c0,0 -4.1651,-1.4575 -6.0563,-2.5398c-2.1861,-1.2503 -4.1534,-2.6667 -6.1539,-4.3957c-1.7114,-1.5551 -3.2763,-3.3915 -4.3957,-5.3725c-1.4907,-2.6394 -3.5166,-8.4007 -3.5166,-8.4007" fill="none" stroke="#64a8ff" stroke-width="3.90729" stroke-linecap="round"/><g fill="#ffffff" stroke="none" stroke-width="2.47423" stroke-linecap="butt"><path d="M179.90942,171.43681c2.8711,2.4667 5.4619,6.1001 7.0837,10.3154c1.6219,4.2152 1.9696,8.2194 1.2264,11.2835c-0.7461,3.0646 -2.5892,5.1901 -5.3464,5.6459c-2.7573,0.4557 -5.9177,-0.8428 -8.7918,-3.3089c-2.8711,-2.4667 -5.462,-6.1001 -7.0838,-10.3154c-1.6218,-4.2152 -1.9695,-8.2194 -1.2263,-11.2835c0.7461,-3.0646 2.5891,-5.1901 5.3464,-5.6459c2.7573,-0.4557 5.9177,0.8427 8.7918,3.3089z"/><path d="M193.08242,168.32791c2.7573,0.4558 4.6003,2.5813 5.3464,5.6459c0.7432,3.0641 0.3955,7.0683 -1.2263,11.2835c-1.6218,4.2153 -4.2127,7.8487 -7.0838,10.3154c-2.8741,2.4661 -6.0345,3.7646 -8.7918,3.3089c-2.7572,-0.4558 -4.6003,-2.5813 -5.3464,-5.6459c-0.7432,-3.0641 -0.3955,-7.0683 1.2264,-11.2835c1.6218,-4.2153 4.2126,-7.8487 7.0837,-10.3154c2.8741,-2.4662 6.0345,-3.7646 8.7918,-3.3089z"/></g></g><path d="M180.10672,174.90842c0.0451,0 0.0888,0 0.1339,0c3.2829,2.001 5.0522,3.1069 5.3065,3.3175c-6.3025,8.0282 0,0 -6.3025,8.0282c0,0.0662 0,0.1324 0,0.1986l2.9865,-0.2648c0.0436,-1.825 0.0662,-2.9534 0.0662,-3.3837c0.0436,0 0.0662,-0.0226 0.0662,-0.0677c1.4037,-0.0436 2.4434,-0.0662 3.1174,-0.0662c0.2437,0 0.4874,0 0.7297,0c0.2211,0 0.5536,-0.0211 0.996,-0.0662c0.0225,0.0451 0.0436,0.0888 0.0662,0.1324c-0.0888,1.5707 -0.1324,2.4779 -0.1324,2.7202c-0.0452,0 -0.0662,0.0225 -0.0662,0.0677l0.1324,0.0662c-0.2423,0 2.8947,0 2.654,0c0.0887,0.0105 0.1324,0.0541 0.1324,0.1324c-0.1114,1.5481 -0.2212,3.0963 -0.3325,4.6445c-0.0437,0.021 -0.0873,0.0436 -0.1324,0.0662c-0.9058,0 -1.813,0 -2.7202,0c-0.0437,0.4859 -0.1099,1.8355 -0.1986,4.0471c-0.0888,0.0437 -0.155,0.0662 -0.1986,0.0662c-3.2964,-0.0887 -5.0643,-0.1324 -5.308,-0.1324c-0.0226,-0.0451 -0.0451,-0.0887 -0.0662,-0.1339c0,-1.0832 0,-2.1665 0,-3.2497c-2.1891,0.1098 -4.3797,0.2211 -6.5688,0.331c-1.2382,-3.1505 -1.8581,-4.7664 -1.8581,-4.8431c2.4991,-3.8697 4.9981,-7.7408 7.4971,-11.6105z" fill="#3373ff" stroke="none" stroke-width="0.39808" stroke-linecap="butt"/></g><text transform="translate(142.77202,45.84277) scale(2.14679,2.14679)" font-size="22" xml:space="preserve" data-paper-data="{&quot;origPos&quot;:null}" fill="#a1f3f9" fill-rule="nonzero" stroke="none" stroke-width="1" stroke-linecap="butt" stroke-linejoin="miter" stroke-miterlimit="10" stroke-dasharray="" stroke-dashoffset="0" font-family="Sans Serif" font-weight="400" text-anchor="start" style="mix-blend-mode: normal"><tspan x="0" dy="0">Guide</tspan></text><text transform="translate(290.11402,28.80253) scale(0.77297,0.77296)" font-size="22" xml:space="preserve" data-paper-data="{&quot;origPos&quot;:null}" fill="#a1f3f9" fill-rule="nonzero" stroke="none" stroke-width="1" stroke-linecap="butt" stroke-linejoin="miter" stroke-miterlimit="10" stroke-dasharray="" stroke-dashoffset="0" font-family="Sans Serif" font-weight="400" text-anchor="start" style="mix-blend-mode: normal"><tspan x="0" dy="0">Use the arrow keys</tspan><tspan x="0" dy="24.86px">or tap to navigate</tspan></text><g><path d="M489.00716,304.40134c-0.22775,1.52116 -4.76804,3.44871 -8.34107,3.44871c-2.87915,0 -2.16547,-2.70881 -2.16547,-4.17053c0,-1.46172 5.64237,-1.14289 8.52152,-1.14289c2.87915,0 2.13243,0.88008 1.98501,1.86471z" data-paper-data="{&quot;origPos&quot;:null}" fill="url(#color-16)" stroke="none" stroke-width="0" stroke-linecap="butt"/><path d="M459.63686,320.80774c0,0 -0.68183,0.46941 -1.43695,-0.07918c-0.75512,-0.54859 -1.30217,-1.81718 -0.2091,-2.42302c1.30743,-0.72465 0.96827,-3.16193 1.72339,-2.61334c0,0 2.9005,0.40971 3.12435,1.57013c0,0 1.22337,3.35107 0.72205,3.88708c0,0 -0.71452,0.53007 -2.57737,0.44204c-1.00932,-0.04769 -1.34636,-0.7837 -1.34636,-0.7837z" data-paper-data="{&quot;origRot&quot;:0,&quot;origPos&quot;:null}" fill="#5a2c0a" stroke="none" stroke-width="0" stroke-linecap="butt"/><path d="M461.57119,305.31698c1.72995,0.40386 14.93493,-0.86948 17.25831,-0.74035c3.43741,0.19105 2.4871,3.29376 2.72975,6.72792c0.27899,3.94854 3.0328,5.74667 1.64972,9.45556c-0.53325,1.42998 -1.73281,2.17833 -2.93165,3.12278c-0.68009,0.53578 -2.5781,1.05624 -6.90432,1.14522c-6.11537,0.12578 -7.8493,-0.86439 -10.37056,-2.786c-1.60093,-1.22017 -0.90244,-2.9537 -2.17575,-4.88136c-0.39032,-0.5909 -0.85314,-0.90611 -0.93115,-0.90611c-4.15867,0 -6.44485,-3.43527 -6.44485,-6.68355c0,-3.24828 1.48415,-5.88152 3.80962,-5.88152c2.32547,0 3.70937,1.28699 4.31089,1.42741z" data-paper-data="{&quot;origPos&quot;:null}" fill="#ffdebd" stroke="none" stroke-width="0" stroke-linecap="butt"/><path d="M480.89333,307.40482c0.1413,1.96049 -0.72907,3.62077 -1.94403,3.70833c-1.21495,0.08757 -2.31441,-1.43074 -2.4557,-3.39123c-0.1413,-1.96049 0.72907,-3.62077 1.94403,-3.70833c1.21495,-0.08757 2.31441,1.43074 2.45571,3.39123z" data-paper-data="{&quot;origPos&quot;:null,&quot;origRot&quot;:0}" fill="#ffffff" stroke="none" stroke-width="0" stroke-linecap="butt"/><path d="M465.74574,308.45429c0,1.04604 1.22632,2.57608 0.28557,3.03345c-1.0944,0.53207 -1.65463,-0.20432 -1.65463,-0.20432c0,0 0.23349,0.63188 -1.23179,0.90603c-1.08848,0.20365 -1.46656,-2.07794 -1.46656,-3.84972c0,-1.77179 -0.00669,-3.48809 1.09992,-3.52891c4.6592,-0.17186 2.9675,1.8717 2.9675,3.64349z" data-paper-data="{&quot;origPos&quot;:null}" fill="#5a2c0a" stroke="none" stroke-width="0" stroke-linecap="butt"/><path d="M475.67086,309.41178c0.22895,1.95219 -0.56619,3.64979 -1.77599,3.79167c-1.20981,0.14189 -2.37617,-1.32566 -2.60512,-3.27785c-0.22895,-1.95219 0.56619,-3.64979 1.77599,-3.79167c1.20981,-0.14189 2.37617,1.32566 2.60512,3.27785z" data-paper-data="{&quot;origPos&quot;:null,&quot;origRot&quot;:0}" fill="#ffffff" stroke="none" stroke-width="0" stroke-linecap="butt"/><path d="M474.55083,307.94875c0.38176,0 0.72744,0.2787 0.97807,0.72864c0.25023,0.44994 0.40542,1.07151 0.40542,1.75764c0,0.68613 -0.15519,1.3077 -0.40542,1.75764c-0.25063,0.44994 -0.59631,0.72864 -0.97807,0.72864c-0.38176,0 -0.72744,-0.2787 -0.97807,-0.72864c-0.25023,-0.44994 -0.40542,-1.07151 -0.40542,-1.75764c0,-0.68613 0.15519,-1.3077 0.40542,-1.75764c0.25063,-0.44994 0.59631,-0.72864 0.97807,-0.72864z" data-paper-data="{&quot;origPos&quot;:null}" fill="#000000" stroke="none" stroke-width="1" stroke-linecap="butt"/><path d="M479.764,306.12414c0.38176,0 0.72744,0.2787 0.97807,0.72864c0.25023,0.44994 0.31078,1.16454 0.40542,1.75764c0.03328,0.21615 0.09344,0.53054 -0.06015,0.72182c-0.19369,0.23138 -0.5137,0.34206 -0.80203,0.44111c-0.50367,0.10426 -1.10198,0.41585 -1.5439,0.16041c-0.38738,-0.23259 -0.3569,-0.85737 -0.36091,-1.32334c-0.00521,-0.60192 0.15519,-1.3077 0.40542,-1.75764c0.25063,-0.44994 0.59631,-0.72864 0.97807,-0.72864z" data-paper-data="{&quot;origPos&quot;:null}" fill="#000000" stroke="none" stroke-width="1" stroke-linecap="round"/><path d="M483.35046,293.56383c0.96102,5.99298 -0.19736,6.33379 -3.4173,8.25238c-4.69172,2.79555 -10.82881,2.22961 -15.84026,4.40048c-1.31587,0.57001 -4.66973,-0.81493 -6.10375,-0.81493c-2.933,0 -4.58794,-2.09619 -4.70915,-4.59297c-0.26734,-5.50731 2.4445,-5.52867 5.3775,-5.52867c0,0 3.22786,0.53501 4.34281,2.2475c0,0 4.49039,-7.30605 9.2239,-8.20865c6.09335,-1.1619 10.4361,-0.0589 11.12624,4.24485z" data-paper-data="{&quot;origPos&quot;:null}" fill="#ff0021" stroke="none" stroke-width="0" stroke-linecap="butt"/><path d="M482.18994,296.9826c0,2.19259 -0.58675,3.84217 -4.89236,3.97003c-4.54534,0.13498 -4.89236,-1.77744 -4.89236,-3.97003c0,-2.19259 2.19038,-3.97003 4.89236,-3.97003c2.70197,0 4.89236,1.77744 4.89236,3.97003z" data-paper-data="{&quot;origPos&quot;:null}" fill="#ffffff" stroke="none" stroke-width="0" stroke-linecap="butt"/><path d="M489.16757,303.55921c-0.0802,0.34426 -15.77699,2.60658 -20.17095,3.0878c-2.13552,0.23388 -6.45631,0.06355 -6.37611,-0.28071c0.29648,-1.27261 1.1248,-3.30634 3.168,-3.97003c2.4691,-0.80203 10.94569,-2.9595 17.28451,-2.86259c2.59127,0.03962 6.39103,2.75291 6.09455,4.02553z" data-paper-data="{&quot;origPos&quot;:null}" fill="url(#color-17)" stroke="none" stroke-width="0" stroke-linecap="butt"/><path d="M473.92908,299.27728l1.93603,-5.14188l1.766,2.38137l1.09218,-2.1292l2.13852,4.04307l-1.4672,0.88619l-0.60869,-3.06405l-1.08865,1.87219l-1.43238,-1.88099l-0.61348,3.03331z" data-paper-data="{&quot;origPos&quot;:null}" fill="#ff0021" stroke="none" stroke-width="0" stroke-linecap="butt"/><path d="M482.95423,320.89704c-0.14882,1.02193 -0.92076,1.53427 -1.50048,1.69147c-1.76931,0.47979 -4.34644,0.40989 -6.10167,-0.11907c-1.00877,-0.304 -1.02669,-0.95661 -1.12409,-1.04784c-0.10291,-0.09639 -1.1909,0.62834 -2.50212,0.62834c-2.10399,0 -3.55899,-1.48268 -3.55899,-3.55899c0,-2.27682 0.19759,-3.54203 0.54005,-3.60753c1.99455,-0.38152 2.58881,1.37645 4.12172,2.20399c0,0 5.12571,1.68728 7.52031,1.55089c0,0 3.86528,-1.80898 5.06336,-1.72967c0.59419,0.03934 0.59807,1.2845 0.41063,1.91339c0,0 0.061,1.71769 -0.77046,2.17431c-1.96598,1.07968 -2.05519,-0.39505 -2.09826,-0.0993z" data-paper-data="{&quot;origPos&quot;:null}" fill="#38291e" stroke="none" stroke-width="0" stroke-linecap="butt"/><path d="M485.20993,314.48083c-0.20051,2.65391 0.45211,4.46127 -5.31342,4.36102c-2.65728,-0.04621 -5.21317,-1.7071 -5.21317,-4.06026c0,-2.35315 2.56352,-5.25738 5.21317,-5.4638c3.86072,-0.30076 5.6342,0.91718 5.31342,5.16304z" data-paper-data="{&quot;origPos&quot;:null}" fill="#ffdebd" stroke="none" stroke-width="0" stroke-linecap="butt"/><g data-paper-data="{&quot;origPos&quot;:null}" fill="none" stroke="#f6b09a" stroke-width="3.5" stroke-linecap="round"><path d="M456.00675,308.04182c0,0 1.18833,-0.69374 2.70884,0.48101c2.18066,1.68478 0.90028,4.5603 0.90028,4.5603" data-paper-data="{&quot;origPos&quot;:null}"/><path d="M457.09522,310.73436h2.40608" data-paper-data="{&quot;origPos&quot;:null}"/><path d="M459.27214,313.14043h-0.51559" data-paper-data="{&quot;origPos&quot;:null}"/></g><path d="M471.80899,305.14217c-0.5517,0.16452 -0.52558,0.24247 -0.79338,0.7521c-0.27627,0.52575 -0.8608,1.20284 -0.8608,1.20284c0,0 -0.58481,-1.4545 -0.58481,-2.53418c0,-0.73309 0.39835,-2.01084 1.52829,-2.2671c3.8221,-0.12868 2.68438,3.46913 2.68438,3.46913c0,0 -1.39444,-0.81133 -1.97368,-0.62279z" data-paper-data="{&quot;origPos&quot;:null}" fill="#38291e" stroke="none" stroke-width="0" stroke-linecap="butt"/><path d="M478.73078,304.01692c-0.6081,0.03575 -1.61047,1.29987 -1.61047,1.29987c0,0 -2.37181,-2.93483 1.23384,-4.20933c1.14555,-0.1736 1.98258,0.87077 2.25001,1.55334c0.39387,1.00528 0.37997,2.57288 0.37997,2.57288c0,0 -0.79125,-0.41719 -1.24028,-0.80593c-0.43526,-0.37681 -0.43937,-0.45892 -1.01307,-0.41084z" data-paper-data="{&quot;origPos&quot;:null,&quot;index&quot;:null,&quot;origRot&quot;:0}" fill="#38291e" stroke="none" stroke-width="0" stroke-linecap="butt"/></g></g></g></svg>