<svg version="1.1" xmlns="http://www.w3.org/2000/svg" xmlns:xlink="http://www.w3.org/1999/xlink" width="437" height="90.79587" viewBox="0,0,437,90.79587"><defs><linearGradient x1="240" y1="135.60207" x2="240" y2="224.39795" gradientUnits="userSpaceOnUse" id="color-1"><stop offset="0" stop-color="#ffffff"/><stop offset="1" stop-color="#d8d8d8"/></linearGradient><linearGradient x1="240" y1="135.60208" x2="240" y2="224.39795" gradientUnits="userSpaceOnUse" id="color-2"><stop offset="0" stop-color="#343434"/><stop offset="1" stop-color="#090909"/></linearGradient><radialGradient cx="443.8065" cy="206.54467" r="17.9081" gradientUnits="userSpaceOnUse" id="color-3"><stop offset="0" stop-color="#ffffff"/><stop offset="1" stop-color="#e5e5e5"/></radialGradient></defs><g transform="translate(-21.5,-134.60208)"><g data-paper-data="{&quot;isPaintingLayer&quot;:true}" fill-rule="nonzero" stroke-linejoin="miter" stroke-miterlimit="10" stroke-dasharray="" stroke-dashoffset="0" style="mix-blend-mode: normal"><path d="M22.5,224.39795v-88.79587h435v88.79587z" data-paper-data="{&quot;origPos&quot;:null}" fill="url(#color-1)" stroke="url(#color-2)" stroke-width="2" stroke-linecap="butt"/><g data-paper-data="{&quot;origPos&quot;:null}"><path d="M444.3058,202.09868c2.5136,0 4.7909,1.0212 6.4406,2.6702c1.6489,1.6496 2.6702,3.9269 2.6702,6.4405c0,2.5136 -1.0213,4.791 -2.6702,6.4406c-1.6497,1.649 -3.927,2.6702 -6.4406,2.6702c-2.5136,0 -4.7909,-1.0212 -6.4406,-2.6702c-1.6489,-1.6496 -2.6701,-3.927 -2.6701,-6.4406c0,-2.5136 1.0212,-4.7909 2.6701,-6.4405c1.6497,-1.649 3.927,-2.6702 6.4406,-2.6702z" fill="url(#color-3)" stroke="#000000" stroke-width="2.0785" stroke-linecap="butt"/><path d="M441.2734,206.54887l5.6119,0.4503l1.7321,3.187l-3.6374,2.9446l3.3603,-0.5197l0.7967,3.4642l-7.4479,-0.0693l-1.9053,-2.4249l4.6766,-3.3256l-4.5727,-0.3464z" fill="#000000" stroke="none" stroke-width="0.69283" stroke-linecap="round"/></g><g stroke="none" stroke-linecap="butt"><path d="M38.335,149.65706c2.449,0.547 3.81,0.86 4.083,0.939v0.064c-0.085,2.194 -0.149,3.47 -0.191,3.828c0.139,0 0.768,0.146 1.886,0.438c1.003,-3.093 1.547,-4.64 1.632,-4.64c1.677,0.754 2.743,1.255 3.199,1.504v0.064c-1.841,4.284 -2.886,6.648 -3.135,7.091c-0.462,0.383 -2.072,1.847 -4.831,4.393h-0.064l-5.086,-2.506c0.468,-0.802 1.033,-1.723 1.696,-2.762c0.03,0 0.826,0.523 2.388,1.568h0.063c0.523,-0.426 1.149,-1.033 1.878,-1.823c0,-0.037 -1.191,-1.206 -3.573,-3.509v-4.521z" data-paper-data="{&quot;origPos&quot;:null}" fill="#000000" stroke-width="1"/><path d="M53.611,152.41905c2.309,0.62 3.533,0.997 3.673,1.13c1.27,1.799 1.984,2.835 2.142,3.108c-0.82,2.601 -1.291,3.901 -1.413,3.901c-2.734,0.638 -4.165,0.957 -4.293,0.957c-2.26,-1.318 -3.463,-2.053 -3.609,-2.205c-0.079,-2.455 -0.119,-3.81 -0.119,-4.065c-0.036,-0.073 -0.054,-0.128 -0.054,-0.164c2.333,-1.775 3.539,-2.662 3.618,-2.662zM53.383,155.75507c-0.037,0.243 -0.091,1.127 -0.164,2.652l2.032,0.456c0.486,-1.519 0.73,-2.33 0.73,-2.434c-1.617,-0.486 -2.483,-0.729 -2.598,-0.729z" data-paper-data="{&quot;origPos&quot;:null}" fill="#000000" stroke-width="1"/><path d="M65.177,152.41007l0.064,0.118l-1.231,6.526h0.064l3.136,-0.92v-3.692c0.012,-0.085 0.051,-0.127 0.118,-0.127c2.358,0.164 3.67,0.246 3.938,0.246c0,0.043 0.021,0.064 0.064,0.064c0,1.039 -0.329,3.193 -0.985,6.462c0,0.188 -0.942,0.331 -2.825,0.428c-0.098,-0.115 -0.18,-0.361 -0.246,-0.738c-2.413,0.492 -3.789,0.738 -4.129,0.738c-1.927,-1.434 -2.89,-2.172 -2.89,-2.214c0.328,-4.309 0.535,-6.545 0.62,-6.709h0.055c1.537,-0.042 2.953,-0.103 4.247,-0.182z" data-paper-data="{&quot;origPos&quot;:null}" fill="#000000" stroke-width="1"/><path d="M80.462,152.41905c2.741,0.517 4.175,0.811 4.302,0.884v0.11c-0.589,1.664 -0.884,2.527 -0.884,2.588h-0.054c-0.152,0 -0.888,-0.237 -2.206,-0.711c-0.735,1.234 -1.103,1.893 -1.103,1.978l1.823,1.768c1.41,-1.324 2.127,-1.987 2.151,-1.987c1.1,1.44 1.65,2.249 1.65,2.425c-0.602,0.346 -1.65,1.027 -3.145,2.041c-2.892,-0.625 -4.454,-0.975 -4.685,-1.048l-1.431,-4.63z" data-paper-data="{&quot;origPos&quot;:null}" fill="#000000" stroke-width="1"/><path d="M88.438,152.41007c3.609,0.498 5.414,0.805 5.414,0.921c1.422,1.221 2.132,1.874 2.132,1.959c-0.577,1.805 -0.905,2.902 -0.984,3.291c0.577,1.282 0.905,2.047 0.984,2.296c0,0.073 -0.941,0.268 -2.825,0.584c-0.024,-0.104 -0.198,-0.334 -0.52,-0.693c-2.6,0.498 -4.001,0.747 -4.201,0.747l-1.386,-3.746l3.054,-1.613c0.492,0.079 1.26,0.119 2.306,0.119c0,-0.134 0.018,-0.538 0.054,-1.213c-0.176,0 -1.75,0.116 -4.721,0.347l-0.055,-0.119c0.413,-1.92 0.663,-2.88 0.748,-2.88zM90.333,157.76907c0,0.067 0.195,0.778 0.584,2.133h0.054c0.766,-0.498 1.149,-0.826 1.149,-0.984l0.118,-0.976c-0.145,0 -0.78,-0.057 -1.905,-0.173z" data-paper-data="{&quot;origPos&quot;:null}" fill="#000000" stroke-width="1"/><path d="M104.953,152.41007l3.035,2.087c-0.212,3.464 -0.361,5.487 -0.446,6.07c-0.353,0.043 -1.425,0.107 -3.218,0.192l-0.063,-0.128l-0.32,-4.867l-0.127,-0.064c-1.161,0.249 -1.96,0.438 -2.397,0.565c0.121,2.072 0.182,3.57 0.182,4.494c-1.811,0.504 -2.801,0.756 -2.971,0.756c-1.179,-5.189 -1.769,-7.929 -1.769,-8.221c2.565,-0.334 3.956,-0.501 4.175,-0.501v0.064c0.042,0.03 0.106,0.662 0.191,1.895c2.352,-1.561 3.595,-2.342 3.728,-2.342z" data-paper-data="{&quot;origPos&quot;:null}" fill="#000000" stroke-width="1"/><path d="M121.615,152.41007l3.035,2.087c-0.213,3.464 -0.362,5.487 -0.447,6.07c-0.352,0.043 -1.425,0.107 -3.217,0.192l-0.064,-0.128l-0.319,-4.867l-0.128,-0.064c-1.16,0.249 -1.959,0.438 -2.397,0.565c0.122,2.072 0.182,3.57 0.182,4.494c-1.81,0.504 -2.801,0.756 -2.971,0.756c-1.179,-5.189 -1.768,-7.929 -1.768,-8.221c2.564,-0.334 3.956,-0.501 4.174,-0.501v0.064c0.043,0.03 0.107,0.662 0.192,1.895c2.351,-1.561 3.594,-2.342 3.728,-2.342z" data-paper-data="{&quot;origPos&quot;:null}" fill="#000000" stroke-width="1"/><path d="M129.225,152.41905c2.309,0.62 3.534,0.997 3.674,1.13c1.269,1.799 1.983,2.835 2.141,3.108c-0.82,2.601 -1.291,3.901 -1.412,3.901c-2.735,0.638 -4.166,0.957 -4.293,0.957c-2.261,-1.318 -3.464,-2.053 -3.61,-2.205c-0.079,-2.455 -0.118,-3.81 -0.118,-4.065c-0.037,-0.073 -0.055,-0.128 -0.055,-0.164c2.333,-1.775 3.54,-2.662 3.619,-2.662zM128.997,155.75507c-0.036,0.243 -0.091,1.127 -0.164,2.652l2.033,0.456c0.486,-1.519 0.729,-2.33 0.729,-2.434c-1.616,-0.486 -2.482,-0.729 -2.598,-0.729z" data-paper-data="{&quot;origPos&quot;:null}" fill="#000000" stroke-width="1"/><path d="M139.871,152.41007c0.079,0.103 0.489,1.865 1.231,5.286h0.063c0,-0.079 0.45,-0.774 1.349,-2.087c0.377,0.255 1.094,0.808 2.151,1.659h0.128v-0.064c0.164,-2.37 0.286,-3.682 0.365,-3.937c2.503,0.127 3.755,0.231 3.755,0.31c-1.149,4.618 -1.762,7.018 -1.841,7.2c-0.383,0.043 -1.185,0.164 -2.407,0.365c-1.002,-1.574 -1.576,-2.413 -1.722,-2.516c-0.656,1.75 -1.067,2.713 -1.231,2.889h-2.461c-0.152,-0.048 -0.869,-1.628 -2.151,-4.739c-0.82,-1.738 -1.23,-2.68 -1.23,-2.826c0,-0.133 1.334,-0.647 4.001,-1.54z" data-paper-data="{&quot;origPos&quot;:null}" fill="#000000" stroke-width="1"/><path d="M159.112,152.41905c0.188,0.778 0.319,1.258 0.392,1.44c2.686,-0.614 4.105,-0.92 4.257,-0.92c1.828,2.631 2.743,4.004 2.743,4.119l-2.096,4.448l-4.512,-0.72v0.137c0.352,2.704 0.529,4.141 0.529,4.311c-0.043,0 -0.064,0.021 -0.064,0.064c-0.438,-0.043 -0.766,-0.064 -0.985,-0.064h-0.783c-0.456,0 -1.155,-0.021 -2.097,-0.064c-0.085,-0.255 -0.738,-4.135 -1.959,-11.639c0.206,-0.085 1.731,-0.456 4.575,-1.112zM159.44,156.14707c0.122,1.397 0.231,2.096 0.328,2.096c1.246,0.432 2.009,0.647 2.288,0.647l0.72,-3.135h-0.064c-0.711,0.043 -1.801,0.173 -3.272,0.392z" data-paper-data="{&quot;origPos&quot;:null}" fill="#000000" stroke-width="1"/><path d="M167.443,149.66607c1.859,0.037 3.223,0.055 4.092,0.055c0.079,0 0.319,3.731 0.72,11.193c-0.31,0.079 -1.391,0.279 -3.244,0.601c-0.092,0 -0.392,-2.284 -0.903,-6.854c-0.042,-0.109 -0.264,-1.774 -0.665,-4.995z" data-paper-data="{&quot;origPos&quot;:null}" fill="#000000" stroke-width="1"/><path d="M174.662,152.41007c3.609,0.498 5.414,0.805 5.414,0.921c1.421,1.221 2.132,1.874 2.132,1.959c-0.577,1.805 -0.905,2.902 -0.984,3.291c0.577,1.282 0.905,2.047 0.984,2.296c0,0.073 -0.941,0.268 -2.825,0.584c-0.024,-0.104 -0.198,-0.334 -0.52,-0.693c-2.6,0.498 -4.001,0.747 -4.201,0.747l-1.386,-3.746l3.053,-1.613c0.493,0.079 1.261,0.119 2.306,0.119c0,-0.134 0.019,-0.538 0.055,-1.213c-0.176,0 -1.75,0.116 -4.721,0.347l-0.055,-0.119c0.413,-1.92 0.662,-2.88 0.748,-2.88zM176.557,157.76907c0,0.067 0.195,0.778 0.584,2.133h0.054c0.766,-0.498 1.149,-0.826 1.149,-0.984l0.118,-0.976c-0.146,0 -0.78,-0.057 -1.905,-0.173z" data-paper-data="{&quot;origPos&quot;:null}" fill="#000000" stroke-width="1"/><path d="M187.276,152.42807c0.085,0.012 0.128,0.055 0.128,0.128l-0.948,5.25c1.811,-0.213 2.716,-0.383 2.716,-0.511c0.34,-2.102 0.574,-3.281 0.702,-3.536c2.242,0.462 3.485,0.735 3.728,0.82c-1.307,4.491 -2.024,6.83 -2.151,7.018c-2.285,1.605 -3.57,2.492 -3.856,2.662c-0.085,0 -1.54,-0.359 -4.366,-1.076v-0.063c0.748,-1.647 1.212,-2.47 1.395,-2.47l2.78,1.394l1.33,-2.279c-1.197,0.298 -1.892,0.447 -2.087,0.447l-3.545,-1.841c0.431,-3.962 0.705,-5.943 0.82,-5.943z" data-paper-data="{&quot;origPos&quot;:null}" fill="#000000" stroke-width="1"/><path d="M200.511,152.41007c3.609,0.498 5.414,0.805 5.414,0.921c1.421,1.221 2.132,1.874 2.132,1.959c-0.577,1.805 -0.905,2.902 -0.984,3.291c0.577,1.282 0.905,2.047 0.984,2.296c0,0.073 -0.941,0.268 -2.825,0.584c-0.024,-0.104 -0.198,-0.334 -0.52,-0.693c-2.6,0.498 -4.001,0.747 -4.201,0.747l-1.386,-3.746l3.053,-1.613c0.493,0.079 1.261,0.119 2.306,0.119c0,-0.134 0.019,-0.538 0.055,-1.213c-0.176,0 -1.75,0.116 -4.721,0.347l-0.055,-0.119c0.413,-1.92 0.662,-2.88 0.747,-2.88zM202.406,157.76907c0,0.067 0.195,0.778 0.584,2.133h0.054c0.766,-0.498 1.149,-0.826 1.149,-0.984l0.118,-0.976c-0.146,0 -0.781,-0.057 -1.905,-0.173z" data-paper-data="{&quot;origPos&quot;:null}" fill="#000000" stroke-width="1"/><path d="M216.288,152.41007c1.75,1.118 2.716,1.762 2.898,1.932c-0.632,1.404 -0.993,2.106 -1.084,2.106l-3.318,-1.923h-0.119c0,0.06 -0.142,0.401 -0.428,1.02c3.056,1.647 4.585,2.492 4.585,2.534c-0.857,1.981 -1.34,3.026 -1.45,3.136l-5.186,0.3c-2.017,-1.336 -3.102,-2.041 -3.254,-2.114v-0.055c0,-0.152 0.301,-0.835 0.903,-2.051l4.047,2.106l0.3,-1.203c-2.503,-1.124 -3.992,-1.826 -4.466,-2.106v-0.127c0,-0.231 0.483,-1.255 1.449,-3.072z" data-paper-data="{&quot;origPos&quot;:null}" fill="#000000" stroke-width="1"/><path d="M279.42167,149.99507l0.037,0.072c-0.608,5.366 -0.948,8.185 -1.021,8.459c-1.288,-0.122 -2.102,-0.207 -2.443,-0.255v-0.037l-0.583,-7.62c0.146,-0.048 1.483,-0.255 4.01,-0.619zM275.81267,158.70807c0.042,0.024 0.99,0.097 2.844,0.219l0.036,0.073c-0.285,1.677 -0.468,2.515 -0.547,2.515h-2.114c-0.073,0 -0.17,-0.838 -0.292,-2.515c-0.024,0 -0.036,-0.073 -0.036,-0.219c0.072,-0.024 0.109,-0.049 0.109,-0.073z" data-paper-data="{&quot;origPos&quot;:null}" fill="#000000" stroke-width="1"/><path d="M229.33028,149.85405l0.06259,0.11631l0.46501,6.79744h0.05366l2.44174,-2.55796c1.43698,1.93787 2.17335,2.9068 2.20913,2.9068c0.62014,-3.03499 1.00775,-4.85656 1.16278,-5.46474c2.63549,0.50683 3.95323,0.8169 3.95323,0.9302c-1.58612,5.03843 -2.49546,7.88856 -2.72801,8.55041c-0.5605,0.03583 -1.80071,0.1521 -3.7207,0.34879c-0.85264,-2.03924 -1.27895,-3.08569 -1.27895,-3.13937c-0.07155,0.00519 -0.51876,0.89661 -1.34162,2.67424h-0.05366c-2.55797,-0.1729 -3.83696,-0.32795 -3.83696,-0.46513c-1.43693,-6.3383 -2.1554,-9.59392 -2.1554,-9.76684v-0.11631c0,-0.11925 1.58905,-0.39053 4.76715,-0.81384z" data-paper-data="{&quot;origPos&quot;:null}" fill="#2b70c2" stroke-width="0.26459"/><path d="M242.02165,152.54633c3.54181,0.48901 5.3127,0.79016 5.3127,0.90346c1.39523,1.19852 2.09285,1.83953 2.09285,1.92302c-0.56649,1.77088 -0.88851,2.84713 -0.96603,3.22875c0.56641,1.25813 0.88839,2.00943 0.9659,2.2539c0,0.07148 -0.92422,0.26226 -2.77265,0.57235c-0.02385,-0.10142 -0.19378,-0.32801 -0.50979,-0.67975c-2.55203,0.48887 -3.92643,0.73331 -4.12319,0.73331l-1.35939,-3.67602l2.99627,-1.583c0.48297,0.07753 1.23726,0.11631 2.26283,0.11631c0,-0.1312 0.0179,-0.52771 0.05369,-1.18953c-0.17292,-0.00001 -1.71726,0.11323 -4.63299,0.33976l-0.05366,-0.11631c0.40551,-1.88419 0.65,-2.82628 0.73348,-2.82627zM243.88187,157.80542c0,0.06559 0.19079,0.76323 0.57237,2.09291h0.05366c0.75131,-0.48892 1.12696,-0.81089 1.12696,-0.96592l0.11631,-0.95702c-0.1431,0 -0.7662,-0.05669 -1.86929,-0.17005z" data-paper-data="{&quot;origPos&quot;:null}" fill="#2b70c2" stroke-width="0.26459"/><path d="M256.70764,152.54677c1.18059,0.6619 1.90504,1.09123 2.17335,1.288c-0.96601,2.00938 -1.48481,3.03196 -1.55636,3.06774h-0.06262l-1.27894,-1.11803l-1.51159,1.84241l0.16981,3.35399c-0.07752,0.07148 -1.06436,0.2384 -2.96048,0.50077c-0.07154,-0.51279 -0.53653,-3.02607 -1.395,-7.53984c0,-0.07148 1.2462,-0.25628 3.7386,-0.55438c0.04173,0.04777 0.15499,0.60528 0.33981,1.67252c1.49072,-1.67545 2.27186,-2.51317 2.34341,-2.51317z" data-paper-data="{&quot;origPos&quot;:null}" fill="#2b70c2" stroke-width="0.26459"/><path d="M260.82204,148.9604l3.51495,0.55467c-0.44131,1.68741 -0.73052,2.53111 -0.86766,2.53111c-1.84842,-0.1253 -2.77262,-0.24758 -2.77262,-0.36684l0.0001,-2.59373c0.0179,-0.08343 0.05963,-0.12513 0.12521,-0.12513zM259.83804,153.21769h0.05366c2.71895,0.49499 4.07842,0.78424 4.07842,0.86774c-0.78128,4.42425 -1.25542,6.88979 -1.42239,7.39661l-2.83524,-0.00013c-0.08348,0 -0.12521,-0.04171 -0.12521,-0.12513z" data-paper-data="{&quot;origPos&quot;:null}" fill="#2b70c2" stroke-width="0.26459"/><path d="M268.23649,152.55619c2.26578,0.60828 3.46723,0.97801 3.60437,1.1092c1.24611,1.765 1.94668,2.78166 2.1017,3.04998c-0.80508,2.55197 -1.26723,3.82797 -1.38649,3.82797c-2.68322,0.62597 -4.08745,0.93894 -4.21267,0.93892c-2.21804,-1.29398 -3.39862,-2.01552 -3.54172,-2.16459c-0.0774,-2.40891 -0.1161,-3.7386 -0.1161,-3.98903c-0.03577,-0.07148 -0.05366,-0.12513 -0.05366,-0.16096c2.28974,-1.74099 3.47337,-2.61149 3.55088,-2.61149zM268.06641,155.82968c-0.03579,0.2385 -0.0895,1.10606 -0.16112,2.60269l1.99449,0.44729c0.47708,-1.49064 0.71563,-2.28665 0.71563,-2.38801c-1.58604,-0.47708 -2.43571,-0.71563 -2.549,-0.71563z" data-paper-data="{&quot;origPos&quot;:null}" fill="#2b70c2" stroke-width="0.26459"/></g></g></g></svg>