<svg version="1.1" xmlns="http://www.w3.org/2000/svg" xmlns:xlink="http://www.w3.org/1999/xlink" width="526.4756" height="192.881" viewBox="0,0,526.4756,192.881"><defs><linearGradient x1="320.62565" y1="322.181" x2="320.62565" y2="373.131" gradientUnits="userSpaceOnUse" id="color-1"><stop offset="0" stop-color="#134eff"/><stop offset="1" stop-color="#4876ff"/></linearGradient><radialGradient cx="125.16667" cy="355.56433" r="67.5" gradientUnits="userSpaceOnUse" id="color-2"><stop offset="0" stop-color="#53ff23"/><stop offset="1" stop-color="#3cbf28"/></radialGradient><linearGradient x1="189.66667" y1="322" x2="189.66667" y2="360.36879" gradientUnits="userSpaceOnUse" id="color-3"><stop offset="0" stop-color="#3fc628"/><stop offset="1" stop-color="#41cd27"/></linearGradient><linearGradient x1="453" y1="181" x2="453" y2="319" gradientUnits="userSpaceOnUse" id="color-4"><stop offset="0" stop-color="#134eff"/><stop offset="1" stop-color="#4876ff"/></linearGradient><linearGradient x1="540.5" y1="185" x2="540.5" y2="207" gradientUnits="userSpaceOnUse" id="color-5"><stop offset="0" stop-color="#ff5a00"/><stop offset="1" stop-color="#ff0000"/></linearGradient><linearGradient x1="520.62565" y1="322.181" x2="520.62565" y2="373.131" gradientUnits="userSpaceOnUse" id="color-6"><stop offset="0" stop-color="#12b9ff"/><stop offset="1" stop-color="#47e7ff"/></linearGradient><linearGradient x1="111.99982" y1="335.39566" x2="111.73945" y2="335.32101" gradientUnits="userSpaceOnUse" id="color-7"><stop offset="0" stop-color="#8aa742"/><stop offset="0.1" stop-color="#8aa742"/><stop offset="0.25" stop-color="#b7ca33"/><stop offset="0.4045" stop-color="#b7ca33"/><stop offset="1" stop-color="#8aa742"/></linearGradient><linearGradient x1="113.39939" y1="330.45122" x2="113.14911" y2="330.43372" gradientUnits="userSpaceOnUse" id="color-8"><stop offset="0" stop-color="#83b641"/><stop offset="0.2" stop-color="#b7ca33"/><stop offset="0.525" stop-color="#b7ca33"/><stop offset="1" stop-color="#8aa742"/></linearGradient><linearGradient x1="124.3859" y1="331.05119" x2="124.49779" y2="331.2374" gradientUnits="userSpaceOnUse" id="color-9"><stop offset="0" stop-color="#83b641"/><stop offset="1" stop-color="#595e48"/></linearGradient><linearGradient x1="124.67416" y1="331.19523" x2="124.60359" y2="331.27934" gradientUnits="userSpaceOnUse" id="color-10"><stop offset="0" stop-color="#8aa742"/><stop offset="1" stop-color="#595e48"/></linearGradient><linearGradient x1="124.77941" y1="331.26387" x2="124.77941" y2="331.44208" gradientUnits="userSpaceOnUse" id="color-11"><stop offset="0" stop-color="#8aa742"/><stop offset="1" stop-color="#767e47"/></linearGradient><linearGradient x1="121.71124" y1="340.98207" x2="121.4672" y2="340.965" gradientUnits="userSpaceOnUse" id="color-12"><stop offset="0" stop-color="#767e47"/><stop offset="1" stop-color="#8aa742"/></linearGradient><linearGradient x1="121.82588" y1="341.00388" x2="121.66824" y2="341.17895" gradientUnits="userSpaceOnUse" id="color-13"><stop offset="0" stop-color="#767e47"/><stop offset="1" stop-color="#595e48"/></linearGradient><linearGradient x1="110.46489" y1="341.31126" x2="121.59509" y2="341.31126" gradientUnits="userSpaceOnUse" id="color-14"><stop offset="0" stop-color="#8aa742"/><stop offset="0.4" stop-color="#b7ca33"/><stop offset="1" stop-color="#8aa742"/></linearGradient><linearGradient x1="110.39709" y1="340.45913" x2="110.22084" y2="340.26337" gradientUnits="userSpaceOnUse" id="color-15"><stop offset="0" stop-color="#767e47"/><stop offset="0.1" stop-color="#767e47"/><stop offset="0.65" stop-color="#83b641"/><stop offset="1" stop-color="#8aa742"/></linearGradient><linearGradient x1="110.39126" y1="340.14237" x2="110.51955" y2="340.37379" gradientUnits="userSpaceOnUse" id="color-16"><stop offset="0" stop-color="#8aa742"/><stop offset="0.4045" stop-color="#83b641"/><stop offset="0.8" stop-color="#8aa742"/><stop offset="1" stop-color="#8aa742"/></linearGradient><linearGradient x1="123.1422" y1="336.06375" x2="122.8828" y2="335.98937" gradientUnits="userSpaceOnUse" id="color-17"><stop offset="0" stop-color="#595e48"/><stop offset="1" stop-color="#83b641"/></linearGradient><linearGradient x1="122.49886" y1="337.50255" x2="112.21329" y2="334.55321" gradientUnits="userSpaceOnUse" id="color-18"><stop offset="0" stop-color="#6fbc48"/><stop offset="0.3333" stop-color="#98c74f"/><stop offset="0.6666" stop-color="#80c046"/><stop offset="1" stop-color="#607d3a"/></linearGradient><linearGradient x1="94.85309" y1="349.85566" x2="105.75284" y2="349.85566" gradientUnits="userSpaceOnUse" id="color-19"><stop offset="0" stop-color="#76a5d8"/><stop offset="0.45" stop-color="#dae3ec"/><stop offset="1" stop-color="#3f87c7"/></linearGradient><clipPath id="clip-1"><path d="M105.75128,350.77041c-2.48113,-1.67036 -5.17105,-3.02372 -10.89716,-0.65668l2.77787,-9.70896c5.72697,-2.36842 8.5019,-1.10803 10.98095,0.57185z" fill="none"/></clipPath><linearGradient x1="106.96771" y1="346.69858" x2="96.6701" y2="343.74578" gradientUnits="userSpaceOnUse" id="color-20"><stop offset="0" stop-color="#2e499e"/><stop offset="0.4" stop-color="#4496d1"/><stop offset="0.725" stop-color="#a5cded"/><stop offset="1" stop-color="#007fc4"/></linearGradient><linearGradient x1="97.63349" y1="340.33714" x2="97.63349" y2="340.40781" gradientUnits="userSpaceOnUse" id="color-21"><stop offset="0" stop-color="#76a5d8"/><stop offset="1" stop-color="#2e499e"/></linearGradient><clipPath id="clip-2"><path d="M100.95506,328.83587l-0.03151,-0.009c0.01212,-0.0412 0.04051,-0.05592 0.05159,-0.0606l0.00468,-0.00138c0.00017,0.00017 -0.01039,0.02182 -0.02476,0.07099z" fill="none" fill-rule="nonzero"/></clipPath><clipPath id="clip-3"><path d="M100.95506,328.83587l-0.03151,-0.009c0.01212,-0.0412 0.04051,-0.05592 0.05159,-0.0606l0.00468,-0.00138c0.00017,0.00017 -0.01039,0.02182 -0.02476,0.07099z" fill="none" fill-rule="nonzero"/></clipPath><clipPath id="clip-4"><path d="M100.95506,328.83587l-0.03151,-0.009c0.01212,-0.0412 0.04051,-0.05592 0.05159,-0.0606l0.00468,-0.00138c0.00017,0.00017 -0.01039,0.02182 -0.02476,0.07099z" fill="none" fill-rule="nonzero"/></clipPath><clipPath id="clip-5"><path d="M100.95506,328.83587l-0.03151,-0.009c0.01212,-0.0412 0.04051,-0.05592 0.05159,-0.0606l0.00468,-0.00138c0.00017,0.00017 -0.01039,0.02182 -0.02476,0.07099z" fill="none" fill-rule="nonzero"/></clipPath><clipPath id="clip-6"><path d="M100.95506,328.83587l-0.03151,-0.009c0.01212,-0.0412 0.04051,-0.05592 0.05159,-0.0606l0.00468,-0.00138c0.00017,0.00017 -0.01039,0.02182 -0.02476,0.07099z" fill="none" fill-rule="nonzero"/></clipPath><clipPath id="clip-7"><path d="M100.95506,328.83587l-0.03151,-0.009c0.01212,-0.0412 0.04051,-0.05592 0.05159,-0.0606l0.00468,-0.00138c0.00017,0.00017 -0.01039,0.02182 -0.02476,0.07099z" fill="none" fill-rule="nonzero"/></clipPath><clipPath id="clip-8"><path d="M100.95506,328.83587l-0.03151,-0.009c0.01212,-0.0412 0.04051,-0.05592 0.05159,-0.0606l0.00468,-0.00138c0.00017,0.00017 -0.01039,0.02182 -0.02476,0.07099z" fill="none" fill-rule="nonzero"/></clipPath><clipPath id="clip-9"><path d="M100.95506,328.83587l-0.03151,-0.009c0.01212,-0.0412 0.04051,-0.05592 0.05159,-0.0606l0.00468,-0.00138c0.00017,0.00017 -0.01039,0.02182 -0.02476,0.07099z" fill="none" fill-rule="nonzero"/></clipPath><clipPath id="clip-10"><path d="M100.95506,328.83587l-0.03151,-0.009c0.01212,-0.0412 0.04051,-0.05592 0.05159,-0.0606l0.00468,-0.00138c0.00017,0.00017 -0.01039,0.02182 -0.02476,0.07099z" fill="none" fill-rule="nonzero"/></clipPath><clipPath id="clip-11"><path d="M100.95506,328.83587l-0.03151,-0.009c0.01212,-0.0412 0.04051,-0.05592 0.05159,-0.0606l0.00468,-0.00138c0.00017,0.00017 -0.01039,0.02182 -0.02476,0.07099z" fill="none" fill-rule="nonzero"/></clipPath><clipPath id="clip-12"><path d="M100.95506,328.83587l-0.03151,-0.009c0.01212,-0.0412 0.04051,-0.05592 0.05159,-0.0606l0.00468,-0.00138c0.00017,0.00017 -0.01039,0.02182 -0.02476,0.07099z" fill="none" fill-rule="nonzero"/></clipPath><clipPath id="clip-13"><path d="M100.95506,328.83587l-0.03151,-0.009c0.01212,-0.0412 0.04051,-0.05592 0.05159,-0.0606l0.00468,-0.00138c0.00017,0.00017 -0.01039,0.02182 -0.02476,0.07099z" fill="none" fill-rule="nonzero"/></clipPath><clipPath id="clip-14"><path d="M100.95506,328.83587l-0.03151,-0.009c0.01212,-0.0412 0.04051,-0.05592 0.05159,-0.0606l0.00468,-0.00138c0.00017,0.00017 -0.01039,0.02182 -0.02476,0.07099z" fill="none" fill-rule="nonzero"/></clipPath><clipPath id="clip-15"><path d="M100.95506,328.83587l-0.03151,-0.009c0.01212,-0.0412 0.04051,-0.05592 0.05159,-0.0606l0.00468,-0.00138c0.00017,0.00017 -0.01039,0.02182 -0.02476,0.07099z" fill="none" fill-rule="nonzero"/></clipPath><clipPath id="clip-16"><path d="M100.95506,328.83587l-0.03151,-0.009c0.01212,-0.0412 0.04051,-0.05592 0.05159,-0.0606l0.00468,-0.00138c0.00017,0.00017 -0.01039,0.02182 -0.02476,0.07099z" fill="none" fill-rule="nonzero"/></clipPath><clipPath id="clip-17"><path d="M100.95506,328.83587l-0.03151,-0.009c0.01212,-0.0412 0.04051,-0.05592 0.05159,-0.0606l0.00468,-0.00138c0.00017,0.00017 -0.01039,0.02182 -0.02476,0.07099z" fill="none" fill-rule="nonzero"/></clipPath><linearGradient x1="98.12937" y1="338.28401" x2="109.08442" y2="338.28401" gradientUnits="userSpaceOnUse" id="color-22"><stop offset="0" stop-color="#faab4f"/><stop offset="0.25" stop-color="#faab4f"/><stop offset="0.475" stop-color="#fcc193"/><stop offset="0.525" stop-color="#fcc193"/><stop offset="0.75" stop-color="#f89c3e"/><stop offset="1" stop-color="#f89c3e"/></linearGradient><linearGradient x1="110.26158" y1="335.19802" x2="99.95471" y2="332.24256" gradientUnits="userSpaceOnUse" id="color-23"><stop offset="0" stop-color="#cd2b2b"/><stop offset="0.4" stop-color="#f2692a"/><stop offset="0.725" stop-color="#fcb544"/><stop offset="1" stop-color="#f37237"/></linearGradient><linearGradient x1="118.65704" y1="352.50232" x2="118.5987" y2="352.7201" gradientUnits="userSpaceOnUse" id="color-24"><stop offset="0" stop-color="#d4a52e"/><stop offset="1" stop-color="#a87c3c"/></linearGradient><linearGradient x1="121.40126" y1="342.96055" x2="121.40126" y2="343.13977" gradientUnits="userSpaceOnUse" id="color-25"><stop offset="0.0056" stop-color="#c19236"/><stop offset="1" stop-color="#d4a52e"/></linearGradient><linearGradient x1="121.00318" y1="342.7487" x2="121.11594" y2="342.93638" gradientUnits="userSpaceOnUse" id="color-26"><stop offset="0.0056" stop-color="#ffcd02"/><stop offset="1" stop-color="#a87c3c"/></linearGradient><linearGradient x1="121.29695" y1="342.89259" x2="121.22792" y2="342.97485" gradientUnits="userSpaceOnUse" id="color-27"><stop offset="0.0056" stop-color="#ffcd02"/><stop offset="1" stop-color="#a87c3c"/></linearGradient><linearGradient x1="118.42989" y1="352.40274" x2="118.18533" y2="352.38565" gradientUnits="userSpaceOnUse" id="color-28"><stop offset="0" stop-color="#c19236"/><stop offset="1" stop-color="#ffcd02"/></linearGradient><linearGradient x1="108.7008" y1="346.81608" x2="108.44482" y2="346.74268" gradientUnits="userSpaceOnUse" id="color-29"><stop offset="0" stop-color="#d4a52e"/><stop offset="0.1" stop-color="#d4a52e"/><stop offset="0.2" stop-color="#ffc222"/><stop offset="0.35" stop-color="#ffc222"/><stop offset="1" stop-color="#d4a52e"/></linearGradient><linearGradient x1="119.80318" y1="347.61984" x2="119.56069" y2="347.55031" gradientUnits="userSpaceOnUse" id="color-30"><stop offset="0" stop-color="#a87c3c"/><stop offset="1" stop-color="#ffd200"/></linearGradient><linearGradient x1="118.53168" y1="352.37584" x2="118.40984" y2="352.64948" gradientUnits="userSpaceOnUse" id="color-31"><stop offset="0" stop-color="#c19236"/><stop offset="1" stop-color="#d4a52e"/></linearGradient><linearGradient x1="107.18861" y1="352.70081" x2="118.3134" y2="352.70081" gradientUnits="userSpaceOnUse" id="color-32"><stop offset="0" stop-color="#d4a52e"/><stop offset="0.4" stop-color="#ffd200"/><stop offset="1" stop-color="#d4a52e"/></linearGradient><linearGradient x1="107.1116" y1="351.87642" x2="106.93239" y2="351.67739" gradientUnits="userSpaceOnUse" id="color-33"><stop offset="0" stop-color="#d4a52e"/><stop offset="0.1" stop-color="#d4a52e"/><stop offset="0.7" stop-color="#ffd200"/><stop offset="1" stop-color="#d4a52e"/></linearGradient><linearGradient x1="107.11685" y1="351.54233" x2="107.24365" y2="351.77108" gradientUnits="userSpaceOnUse" id="color-34"><stop offset="0" stop-color="#d4a52e"/><stop offset="0.4" stop-color="#ffc222"/><stop offset="0.8" stop-color="#ffcd02"/><stop offset="1" stop-color="#d4a52e"/></linearGradient><clipPath id="clip-18"><path d="M110.07884,341.97661c2.47801,1.66776 5.16309,2.82358 10.86565,0.86028l-2.71866,9.4491c-5.01731,2.20602 -8.40391,0.88123 -10.942,-0.6527z" fill="none"/></clipPath><linearGradient x1="119.22614" y1="348.89195" x2="108.91748" y2="345.936" gradientUnits="userSpaceOnUse" id="color-35"><stop offset="0" stop-color="#ffc907"/><stop offset="0.1667" stop-color="#ffd200"/><stop offset="0.3333" stop-color="#ffd952"/><stop offset="0.625" stop-color="#ffcd02"/><stop offset="1" stop-color="#b77a36"/></linearGradient><clipPath id="clip-19"><path d="M110.07884,341.97661c2.47801,1.66776 5.16309,2.82358 10.86565,0.86028l-2.71866,9.4491c-5.01731,2.20602 -8.40391,0.88123 -10.942,-0.6527z"/></clipPath><linearGradient x1="110.08871" y1="341.92229" x2="109.83404" y2="341.90447" gradientUnits="userSpaceOnUse" id="color-36"><stop offset="0" stop-color="#ffc222"/><stop offset="0.2" stop-color="#ffc222"/><stop offset="0.525" stop-color="#ffd200"/><stop offset="1" stop-color="#d4a52e"/></linearGradient></defs><g transform="translate(-56,-180.25)"><g data-paper-data="{&quot;isPaintingLayer&quot;:true}" stroke-linejoin="miter" stroke-miterlimit="10" stroke-dasharray="" stroke-dashoffset="0" style="mix-blend-mode: normal"><path d="M582.4756,373.131h-523.6999v-50.95h523.6999z" data-paper-data="{&quot;origPos&quot;:null}" fill="url(#color-1)" fill-rule="nonzero" stroke="none" stroke-width="4.70962" stroke-linecap="butt"/><path d="M56,361v-39h135v39z" data-paper-data="{&quot;origPos&quot;:null}" fill="url(#color-2)" fill-rule="nonzero" stroke="none" stroke-width="0" stroke-linecap="butt"/><path d="M189.66667,322c7.73199,0 14,8.58914 14,19.1844c0,10.59525 -6.26801,19.1844 -14,19.1844c-7.73199,0 -14,-8.58914 -14,-19.1844c0,-10.59525 6.26801,-19.1844 14,-19.1844z" data-paper-data="{&quot;origPos&quot;:null}" fill="url(#color-3)" fill-rule="nonzero" stroke="none" stroke-width="0" stroke-linecap="butt"/><text transform="translate(127.54859,350.55065) rotate(-0.13128) scale(0.68008,0.70933) skewX(-11.18772)" font-size="40" xml:space="preserve" fill="#ffffff" fill-rule="nonzero" stroke="none" stroke-width="1" stroke-linecap="butt" stroke-linejoin="miter" stroke-miterlimit="10" stroke-dasharray="" stroke-dashoffset="0" font-family="&quot;ヒラギノ角ゴ Pro W3&quot;, &quot;Hiragino Kaku Gothic Pro&quot;, Osaka, &quot;メイリオ&quot;, Meiryo, &quot;ＭＳ Ｐゴシック&quot;, &quot;MS PGothic&quot;" font-weight="normal" text-anchor="start" style="mix-blend-mode: normal"><tspan x="0" dy="0">start</tspan></text><g data-paper-data="{&quot;origPos&quot;:null}" fill-rule="nonzero"><path d="M349,319v-138h208v138z" data-paper-data="{&quot;origPos&quot;:null}" fill="url(#color-4)" stroke="none" stroke-width="NaN" stroke-linecap="butt"/><path d="M353,315v-104h200v104z" data-paper-data="{&quot;origPos&quot;:null}" fill="#ffffff" stroke="none" stroke-width="0" stroke-linecap="butt"/><g stroke="#ffffff"><path d="M529,207v-22h23v22z" data-paper-data="{&quot;origPos&quot;:null}" fill="url(#color-5)" stroke-width="1" stroke-linecap="butt"/><path d="M546.5,190.5l-12,11.5" data-paper-data="{&quot;origPos&quot;:null}" fill="none" stroke-width="1.5" stroke-linecap="round"/><path d="M535,190.5l12,11.5" data-paper-data="{&quot;origPos&quot;:null,&quot;index&quot;:null}" fill="none" stroke-width="1.5" stroke-linecap="round"/></g></g><g data-paper-data="{&quot;origPos&quot;:null}" fill-rule="nonzero"><path d="M452.5,218.5c12.001,0 22.876,4.874 30.751,12.749c7.875,7.875 12.749,18.75 12.749,30.751c0,12.001 -4.874,22.876 -12.749,30.751c-7.875,7.875 -18.75,12.749 -30.751,12.749c-12.001,0 -22.876,-4.874 -30.751,-12.749c-7.875,-7.875 -12.749,-18.75 -12.749,-30.751c0,-12.001 4.874,-22.876 12.749,-30.751c7.875,-7.875 18.75,-12.749 30.751,-12.749z" data-paper-data="{&quot;origPos&quot;:null}" fill="none" stroke="#666666" stroke-width="4" stroke-linecap="butt"/><path d="M436,231.5h17l-1.5,39.5l29,-1.5l-5.5,18h-39z" data-paper-data="{&quot;origPos&quot;:null}" fill="#666666" stroke="none" stroke-width="1" stroke-linecap="round"/></g><path d="M562.4756,373.131h-83.6999v-50.95h83.6999z" data-paper-data="{&quot;origPos&quot;:null}" fill="url(#color-6)" fill-rule="nonzero" stroke="none" stroke-width="4.70962" stroke-linecap="butt"/><text transform="translate(496,347) scale(0.5,0.5)" font-size="40" xml:space="preserve" data-paper-data="{&quot;origPos&quot;:null}" fill="#ffffff" fill-rule="nonzero" stroke="none" stroke-width="1" stroke-linecap="butt" stroke-linejoin="miter" stroke-miterlimit="10" stroke-dasharray="" stroke-dashoffset="0" font-family="Sans Serif" font-weight="normal" text-anchor="start" style="mix-blend-mode: normal"><tspan x="0" dy="0">25:61</tspan></text><text transform="translate(354,202) scale(0.5,0.5)" font-size="40" xml:space="preserve" data-paper-data="{&quot;origPos&quot;:null}" fill="#ffffff" fill-rule="nonzero" stroke="none" stroke-width="1" stroke-linecap="butt" stroke-linejoin="miter" stroke-miterlimit="10" stroke-dasharray="" stroke-dashoffset="0" font-family="Sans Serif" font-weight="normal" text-anchor="start" style="mix-blend-mode: normal"><tspan x="0" dy="0">Switch to Luigi</tspan></text><g stroke="none" stroke-width="1" stroke-linecap="butt"><path d="M101.68948,350.53097" fill="none" fill-rule="nonzero"/><g><g><path d="M124.32329,331.14282c-5.7126,2.36219 -8.46035,1.03861 -10.93559,-0.62742c0.00571,-0.02181 0.01593,-0.06406 -0.00069,-0.10457c2.47524,1.66638 5.27805,3.00744 10.9903,0.6456c-0.03792,0.0348 -0.03792,0.05211 -0.05402,0.08639z" fill="#83b641" fill-rule="nonzero"/><path d="M113.15536,330.48718l-2.78999,9.69165l-0.21503,0.17018l0.00017,-0.02233l2.8009,-9.69373z" fill="#8aa742" fill-rule="evenodd"/><path d="M110.57555,340.28704c-0.08691,-0.04865 -0.14958,-0.14664 -0.2268,-0.11634l2.79692,-9.67918c0.04294,-0.01922 0.15114,-0.05627 0.25329,0.02424z" fill="url(#color-7)" fill-rule="nonzero"/><path d="M113.18168,330.42433l-0.02874,0.06925l-0.20395,0.14733c0.01731,-0.06614 0.17278,-0.17642 0.22074,-0.20983c0.009,-0.00623 0.01195,-0.00675 0.01195,-0.00675z" fill="#8aa742" fill-rule="evenodd"/><path d="M113.38926,330.50882c-0.10578,-0.06527 -0.20118,-0.03359 -0.24446,-0.01489c0.00675,-0.0206 0.0251,-0.06285 0.0251,-0.06285c0.09193,-0.05817 0.13192,-0.06094 0.2178,-0.01991c0.01108,0.03203 0.01575,0.06285 0.00156,0.09764z" fill="url(#color-8)" fill-rule="nonzero"/><path d="M124.53521,331.21484c0,0 -0.06389,-0.08812 -0.21676,-0.0599c0.0135,-0.03618 0.01351,-0.07012 0.05887,-0.09868c0.09193,-0.01385 0.1366,0.01039 0.15616,0.02926c0.01091,0.01073 0.0142,0.01956 0.0142,0.01956c0.01229,0.05402 -0.01247,0.10976 -0.01247,0.10976z" fill="url(#color-9)" fill-rule="evenodd"/><path d="M124.53365,331.08552l0.22593,0.18127c0.0135,0.0606 -0.01558,0.12206 -0.01558,0.12206l-0.22663,-0.18196c0,0 0.02839,-0.06752 0.01628,-0.12136z" fill="url(#color-10)" fill-rule="evenodd"/><path d="M124.75266,331.37741l-2.84037,9.73874l-0.21433,-0.18923l2.8241,-9.73286z" fill="#595e48" fill-rule="evenodd"/><path d="M121.96769,341.18662c0.00606,-0.05558 -0.05315,-0.10145 -0.05315,-0.10145l2.83518,-9.71658c0,0 0.04502,0.04051 0.05713,0.06977z" fill="#767e47" fill-rule="evenodd"/><path d="M124.80615,331.44199c0,0 -0.01022,-0.02787 -0.05852,-0.06856c0.02199,-0.09141 0.00745,-0.10977 0.00745,-0.10977l0.00433,0.00294c0,0.00017 0.07098,0.06475 0.04674,0.17538z" fill="url(#color-11)" fill-rule="evenodd"/><path d="M121.87298,341.27734c-1.52666,0.69321 -2.9716,1.0509 -4.31336,1.16794c-2.317,0.26316 -4.19061,-0.24083 -5.72143,-0.99273c-0.59522,-0.2732 -1.13418,-0.58241 -1.61098,-0.90356l0.0258,-0.02234c0.48338,0.32531 1.01021,0.64318 1.58501,0.9259c1.5554,0.71416 3.49636,1.1856 5.72143,0.99273c1.26731,-0.14335 2.66724,-0.51731 4.21658,-1.20447c0.04363,0.03515 0.09695,0.03653 0.09695,0.03653z" fill="#595e48" fill-rule="evenodd"/><path d="M121.56464,341.09659c0,0 -0.10925,-0.09799 -0.08934,-0.24152c0.14682,-0.03757 0.24082,0.0554 0.24082,0.0554c0,0 -0.02701,0.1321 -0.15149,0.18611z" fill="url(#color-12)" fill-rule="nonzero"/><path d="M121.71613,340.91065l0.20533,0.17919c0,0 -0.03151,0.11236 -0.15616,0.16707l-0.20862,-0.17867c0.125,-0.05471 0.15945,-0.16759 0.15945,-0.16759z" fill="url(#color-13)" fill-rule="evenodd"/><path d="M121.50924,340.85213c-0.01991,0.1437 0.08587,0.24862 0.08587,0.24862c-5.71364,2.36236 -8.6572,0.97126 -11.13019,-0.70395c0.04346,-0.03186 0.05021,-0.03151 0.07843,-0.13227c2.47265,1.67555 6.21018,2.84955 10.96589,0.5876z" fill="url(#color-14)" fill-rule="nonzero"/><path d="M110.25422,340.53669l0.21243,-0.14197c2.47403,1.5928 5.39629,2.97039 11.10387,0.67694l0.20654,0.17936c-5.48009,2.41759 -8.98597,1.07116 -11.52285,-0.71433z" fill="#767e47" fill-rule="evenodd"/><path d="M121.96769,341.18662c-0.02839,0.05211 -0.07808,0.08189 -0.0947,0.09054c-0.00346,0.00208 -0.00571,0.00208 -0.00571,0.00208c0,0 -0.03896,0.00537 -0.0909,-0.02839c0.11167,-0.06094 0.14405,-0.18265 0.14405,-0.18265c0,0 0.06492,0.05419 0.04726,0.11842z" fill="#767e47" fill-rule="evenodd"/><path d="M110.26201,340.53392l-0.02545,0.02095c0,0 -0.1392,-0.07514 -0.08587,-0.22819c0.01247,0.15045 0.11132,0.20724 0.11132,0.20724z" fill="#767e47" fill-rule="evenodd"/><path d="M110.15052,340.32668l0.20498,-0.16205c-0.01195,0.15616 0.1231,0.22109 0.1231,0.22109l-0.20845,0.16032c0,0 -0.13141,-0.06285 -0.11963,-0.21936z" fill="url(#color-15)" fill-rule="nonzero"/><path d="M110.351,340.16463c0.07012,-0.02129 0.13348,0.05142 0.21936,0.11808c-0.02787,0.10111 -0.05246,0.08379 -0.09592,0.116c-0.0509,-0.03047 -0.13642,-0.10561 -0.12344,-0.23407z" fill="url(#color-16)" fill-rule="nonzero"/><path d="M121.48223,340.87412l2.82756,-9.72801c0.15287,-0.02822 0.22593,0.05834 0.22593,0.05834l-2.81942,9.7062c-0.00017,0 -0.11305,-0.08657 -0.23407,-0.03653z" fill="url(#color-17)" fill-rule="nonzero"/><g fill="none" fill-rule="nonzero" font-family="sans-serif" font-weight="normal" font-size="12" text-anchor="start"/></g><path d="M121.50993,340.88295c-5.48078,2.4536 -8.46658,1.07601 -10.93974,-0.59955l2.81821,-9.77527c2.47559,1.66603 5.2223,2.99377 10.9349,0.63193z" fill="url(#color-18)" fill-rule="nonzero"/></g><g><g><path d="M95.05617,350.40182c0.0187,0.00277 0.05315,-0.0135 0.05315,-0.0135c0.03965,0.02701 0.07116,0.04605 0.07116,0.04605c0,0 -0.06198,0.01471 -0.12431,-0.03255z" fill="#313c7e" fill-rule="evenodd"/><path d="M105.65346,350.90216c0,0 0.03792,0.03515 0.08154,0.02303l-0.17123,0.10145c-0.05471,0.02441 -0.11098,-0.0142 -0.11098,-0.0142z" fill="#313c7e" fill-rule="nonzero"/><path d="M95.11157,350.38952c0,0 -0.03341,0.01697 -0.05228,0.0142l-0.18785,-0.14335l-0.00433,-0.00398c0.02718,0.00952 0.05852,0.00467 0.07116,0.00208z" fill="#313c7e" fill-rule="nonzero"/><path d="M105.74955,350.76227c0.01956,0.0142 0.04017,0.02978 0.05956,0.06891c-0.01091,0.05142 -0.05384,0.07774 -0.07808,0.09678c-0.03497,0.00814 -0.08397,-0.0251 -0.08397,-0.0251c0.02736,-0.02303 0.0741,-0.0561 0.10249,-0.14058z" fill="#2e499e" fill-rule="nonzero"/><g fill="#2e499e" fill-rule="evenodd"><g><path d="M97.60534,340.40788v-0.00312h0.05609v0.00312z"/></g></g><path d="M94.85655,350.13398l-0.03186,-0.00814l2.78099,-9.72853l0.03134,0.00883z" fill="#2e499e" fill-rule="evenodd"/><path d="M94.87144,350.26037c-0.03601,-0.03116 -0.06094,-0.08449 -0.04692,-0.13452l0.03341,-0.01281c-0.01403,0.07237 0.03913,0.12448 0.07791,0.14681c0.00035,-0.00017 -0.02805,0.01403 -0.0644,0.00052z" fill="#2e499e" fill-rule="evenodd"/><path d="M105.65173,350.90891c-2.4813,-1.66984 -5.0528,-2.94529 -10.71225,-0.64577c-0.03895,-0.02303 -0.09817,-0.07843 -0.08431,-0.15149c5.74653,-2.44616 8.41638,-1.01714 10.89767,0.65322c-0.02528,0.08864 -0.07375,0.12171 -0.10111,0.14404z" fill="url(#color-19)" fill-rule="nonzero"/><path d="M95.10032,350.38208c5.44737,-2.12967 7.88902,-0.96988 10.36911,0.6269c-1.48546,-0.9562 -3.01419,-1.72178 -5.12361,-1.73476c-1.4117,-0.00814 -3.08016,0.35024 -5.16811,1.1598c0,0.00017 -0.04311,-0.0161 -0.07739,-0.05194z" fill="#313c7e" fill-rule="evenodd"/><path d="M105.65468,350.90822l-0.20066,0.10474c-2.48009,-1.59678 -4.99013,-2.70048 -10.34227,-0.62361l-0.17694,-0.12916c5.65945,-2.29986 8.23874,-1.02234 10.71987,0.64802z" fill="#2e499e" fill-rule="evenodd"/><path d="M105.74782,350.76764l2.86132,-9.79345c0.03064,0.02129 0.04692,0.03792 0.06285,0.0561l-2.86392,9.80557c-0.0161,-0.0412 -0.06025,-0.06821 -0.06025,-0.06821z" fill="#313c7e" fill-rule="evenodd"/><path d="M108.60793,340.97886c-2.47888,-1.68006 -5.27475,-2.89612 -10.97697,-0.56873c0.0142,-0.04865 0.02579,-0.07168 0.02579,-0.07168c5.72732,-2.36807 8.49307,-1.1108 10.97178,0.56943z" fill="#3f87c7" fill-rule="evenodd"/><g fill-rule="nonzero"><g clip-path="url(#clip-1)"><g><path d="M105.75232,350.79136c-2.48113,-1.66984 -5.17832,-3.04328 -10.90442,-0.67556l2.80384,-9.79345c5.72732,-2.36807 8.4787,-1.02805 10.9574,0.65201z" fill="url(#color-20)"/><path d="M105.75232,350.79136c-2.48113,-1.66984 -5.17832,-3.04328 -10.90442,-0.67556l2.80384,-9.79345c5.72732,-2.36807 8.4787,-1.02805 10.9574,0.65201z" fill="none"/></g></g></g><path d="M108.62766,340.90719l0.00468,0.00277c0.03532,0.0251 0.04969,0.07375 0.03964,0.12033l-0.00208,0.00606c-0.01575,-0.01801 -0.0322,-0.03515 -0.06267,-0.05644z" fill="#313c7e" fill-rule="evenodd"/></g><path d="M97.63667,340.40788l-0.03134,-0.00918c0.01195,-0.0412 0.04017,-0.0554 0.05142,-0.06025l0.00468,-0.00138c0.00017,0 -0.01039,0.02164 -0.02476,0.07081z" fill="url(#color-21)" fill-rule="evenodd"/></g><g><path d="M108.79474,339.42537c-2.32618,-1.5322 -5.09245,-2.70516 -10.39491,-0.53809l-0.19841,-0.14006c4.85266,-2.41153 8.12032,-1.24965 10.78618,0.60041z" fill="#d75329" fill-rule="evenodd"/><path d="M109.08109,339.20411l2.81683,-9.72541c0.03047,0.02078 0.04536,0.04086 0.06146,0.05886l-2.81804,9.73372c-0.0161,-0.04086 -0.06025,-0.06718 -0.06025,-0.06718z" fill="#ab4533" fill-rule="evenodd"/><path d="M98.40156,338.88416c0.90235,-0.37015 1.73805,-0.64491 2.5135,-0.83345c0.18802,-0.04553 0.35509,-0.08674 0.5535,-0.125c0.18265,-0.03636 0.36305,-0.07185 0.53947,-0.09782c0.27649,-0.04224 0.54467,-0.07704 0.80575,-0.09713c0.22334,-0.01766 0.44061,-0.03064 0.65339,-0.03255c0.20568,-0.00242 0.40668,0.00035 0.60301,0.0116c0.17486,0.01004 0.34592,0.02268 0.51437,0.04259c0.14231,0.01662 0.28151,0.03411 0.41915,0.05782c0.29069,0.04986 0.5715,0.11115 0.84297,0.18819c1.09626,0.31008 2.06994,0.83864 2.9652,1.4356c-0.00589,0.00277 -0.02736,-0.00623 -0.0367,-0.01125c-0.00866,-0.00416 -0.01264,-0.0045 -0.02026,-0.0097c-1.21035,-0.76731 -2.51073,-1.43456 -4.1153,-1.63141c-1.64231,-0.20187 -3.55609,0.08085 -6.13452,1.10423c0,0 -0.06008,0.02545 -0.08293,0.02961c-0.0206,0.00329 -0.01679,-0.01247 -0.0206,-0.03134z" fill="#ab4533" fill-rule="evenodd"/><path d="M108.9831,339.3459c0,0 0.03826,0.02684 0.08155,0.01697l-0.17781,0.07843c-0.04796,0.01403 -0.10492,-0.01558 -0.10492,-0.01558z" fill="#ab4533" fill-rule="nonzero"/><path d="M98.40399,338.88589c0,0 0.01091,0.01818 0.01818,0.02995c-0.01749,0.00242 -0.01956,0.00693 -0.06267,-0.01229c-0.00571,-0.00225 -0.01437,-0.00935 -0.02147,-0.01247l-0.18404,-0.14474l-0.01662,-0.01368c0.0251,-0.00173 0.04432,0.01039 0.05696,0.00796z" fill="#ab4533" fill-rule="nonzero"/><path d="M109.083,339.20445c0.01974,0.01316 0.04328,0.02095 0.05973,0.06181c-0.01091,0.05177 -0.05488,0.07773 -0.07947,0.09678c-0.04363,0.01229 -0.08674,-0.02129 -0.08674,-0.02129c0.02753,-0.02199 0.07808,-0.05315 0.10648,-0.13729z" fill="#d75329" fill-rule="nonzero"/><path d="M111.91679,329.4155l0.00346,0.00208c0.0348,0.02493 0.04934,0.07375 0.0393,0.11998l-0.00173,0.00623c-0.01628,-0.01818 -0.02666,-0.03618 -0.05852,-0.06025z" fill="#d75329" fill-rule="evenodd"/><path d="M98.14117,338.73787c-0.02666,-0.02095 -0.0535,-0.10284 -0.03964,-0.1527l0.0374,-0.01299c-0.01385,0.07219 0.03082,0.15443 0.0696,0.17677c0.00017,0 -0.02718,0.01541 -0.06735,-0.01108z" fill="#d75329" fill-rule="evenodd"/><g><g clip-path="url(#clip-2)"><path d="M100.92358,328.76922v-0.00415h0.05627v0.00415z" fill="#faaa4f" fill-rule="evenodd"/></g><g clip-path="url(#clip-3)"><path d="M100.92358,328.7739v-0.00468h0.05627v0.00468z" fill="#f6a34c" fill-rule="evenodd"/></g><g clip-path="url(#clip-4)"><path d="M100.92358,328.77805v-0.00415h0.05627v0.00415z" fill="#f39d48" fill-rule="evenodd"/></g><g clip-path="url(#clip-5)"><path d="M100.92358,328.7829v-0.00468h0.05627v0.00468z" fill="#f09745" fill-rule="evenodd"/></g><g clip-path="url(#clip-6)"><path d="M100.92358,328.78723v-0.00433h0.05627v0.00433z" fill="#ed9142" fill-rule="evenodd"/></g><g clip-path="url(#clip-7)"><path d="M100.92358,328.79138v-0.00415h0.05627v0.00415z" fill="#eb8c3f" fill-rule="evenodd"/></g><g clip-path="url(#clip-8)"><path d="M100.92358,328.79588v-0.00433h0.05627v0.00433z" fill="#e8863c" fill-rule="evenodd"/></g><g clip-path="url(#clip-9)"><path d="M100.92358,328.80004v-0.00415h0.05627v0.00415z" fill="#e68139" fill-rule="evenodd"/></g><g clip-path="url(#clip-10)"><path d="M100.92358,328.80454v-0.00433h0.05627v0.00433z" fill="#e57b37" fill-rule="evenodd"/></g><g clip-path="url(#clip-11)"><path d="M100.92358,328.80887v-0.00433h0.05627v0.00433z" fill="#e27634" fill-rule="evenodd"/></g><g clip-path="url(#clip-12)"><path d="M100.92358,328.81337v-0.0045h0.05627v0.0045z" fill="#e07132" fill-rule="evenodd"/></g><g clip-path="url(#clip-13)"><path d="M100.92358,328.81787v-0.00433h0.05627v0.00433z" fill="#df6b30" fill-rule="evenodd"/></g><g clip-path="url(#clip-14)"><path d="M100.92358,328.82203v-0.00416h0.05627v0.00416z" fill="#dc662e" fill-rule="evenodd"/></g><g clip-path="url(#clip-15)"><path d="M100.92358,328.82687v-0.00468h0.05627v0.00468z" fill="#db602c" fill-rule="evenodd"/></g><g clip-path="url(#clip-16)"><path d="M100.92358,328.83103v-0.00415h0.05627v0.00415z" fill="#d95a2a" fill-rule="evenodd"/></g><g clip-path="url(#clip-17)"><path d="M100.92358,328.8357v-0.00468h0.05627v0.00468z" fill="#d75329" fill-rule="evenodd"/></g></g><path d="M108.98241,339.34659c-1.52597,-0.99758 -2.95447,-1.82341 -5.21641,-1.8885c-1.65409,0.03272 -2.92209,0.24342 -5.55973,1.29103c-0.03895,-0.02216 -0.0883,-0.07739 -0.07462,-0.14993c2.28376,-0.97247 4.09678,-1.39197 5.60145,-1.37725c2.27839,0.02268 3.85786,0.97594 5.35128,1.98061c-0.02528,0.08795 -0.07444,0.12171 -0.10197,0.14404z" fill="url(#color-22)" fill-rule="nonzero"/><path d="M100.92441,328.82513l0.02614,0.00831l-2.8125,9.76246c-0.0064,-0.00277 -0.03636,-0.01073 -0.03636,-0.01073z" fill="#d75329" fill-rule="evenodd"/><path d="M111.89844,329.48995c-2.47715,-1.6785 -5.25242,-2.97455 -10.95065,-0.64889c0.01454,-0.04882 0.02736,-0.07479 0.02736,-0.07479c5.72351,-2.36617 8.46728,-1.02787 10.94494,0.65132z" fill="#f89c3e" fill-rule="evenodd"/><path d="M109.08525,339.20619c-1.49377,-1.00589 -3.10024,-1.94477 -5.38175,-1.96208c-1.50537,-0.0116 -3.29726,0.41604 -5.57202,1.35665l2.81908,-9.76835c5.72351,-2.36652 8.47264,-1.02718 10.94961,0.65166z" fill="url(#color-23)" fill-rule="nonzero"/></g><g><path d="M118.71145,352.62342c-0.0277,0.05142 -0.07774,0.08189 -0.09436,0.09055c-0.00363,0.00208 -0.00606,0.00208 -0.00606,0.00208c0,0 -0.04761,0.00606 -0.09089,-0.02839c0.11167,-0.06094 0.14474,-0.18335 0.14474,-0.18335c0,0 0.06441,0.05488 0.04657,0.11911z" fill="url(#color-24)" fill-rule="evenodd"/><path d="M118.71145,352.62342c0.00675,-0.0554 -0.0528,-0.10215 -0.0528,-0.10215l2.7126,-9.45515c0,0 0.04536,0.03982 0.05783,0.0696z" fill="#d4a52e" fill-rule="evenodd"/><path d="M121.42735,343.1397c0,0 -0.00883,-0.02701 -0.05748,-0.06769c0.02233,-0.09193 0.00675,-0.11167 0.00675,-0.11167l0.00433,0.00277c0.00017,0.00017 0.0715,0.06579 0.0464,0.17659z" fill="url(#color-25)" fill-rule="evenodd"/><path d="M121.15692,342.91186c0,0 -0.07514,-0.09124 -0.22784,-0.06285c0.00814,-0.03445 0.02095,-0.07635 0.0696,-0.09609c0.09228,-0.0142 0.1366,0.01021 0.15616,0.02909c0.01108,0.01143 0.0142,0.01956 0.0142,0.01956c0.01212,0.05419 -0.01212,0.11028 -0.01212,0.11028z" fill="url(#color-26)" fill-rule="evenodd"/><path d="M121.15484,342.78201l0.22628,0.18127c0.01316,0.06146 -0.01108,0.1224 -0.01108,0.1224l-0.22524,-0.18057c-0.00017,0 0.02216,-0.06908 0.01004,-0.1231z" fill="url(#color-27)" fill-rule="evenodd"/><path d="M121.14376,342.89091l0.23026,0.18387l-2.70931,9.45186l-0.01073,0.0258l-0.23771,-0.20498z" fill="#a87c3c" fill-rule="evenodd"/><path d="M118.28261,352.51712c0,0 -0.1089,-0.09747 -0.08934,-0.24152c0.14682,-0.03722 0.24152,0.0554 0.24152,0.0554c0,0 -0.02701,0.13141 -0.15218,0.18612z" fill="url(#color-28)" fill-rule="nonzero"/><path d="M120.93843,342.85836c-5.74376,1.95654 -8.38659,0.78722 -10.8646,-0.88054c0.00589,-0.02233 0.02112,-0.05886 0.00433,-0.10007c2.47801,1.66776 5.21866,2.80661 10.92036,0.87517c-0.04311,0.02978 -0.04865,0.07029 -0.06008,0.10544z" fill="#ffcd02" fill-rule="nonzero"/><path d="M109.8446,341.95082l-2.77372,9.64802l-0.21538,0.17036l0.00052,-0.02303l2.7848,-9.64716z" fill="#d4a52e" fill-rule="evenodd"/><path d="M107.30685,351.64472c-0.08085,-0.04796 -0.17503,-0.08449 -0.25225,-0.0535l2.78099,-9.63642c0.04328,-0.01818 0.14612,-0.04674 0.25156,0.02701z" fill="url(#color-29)" fill-rule="nonzero"/><path d="M118.2002,352.29534l2.72818,-9.44979c0.00502,-0.00138 0.01177,-0.00814 0.01628,-0.00883c0.14508,-0.01489 0.21243,0.06215 0.21243,0.06215l-2.72074,9.4349c-0.00017,0.00017 -0.11513,-0.08916 -0.23615,-0.03844z" fill="url(#color-30)" fill-rule="nonzero"/><path d="M118.6171,352.71397c-5.60872,2.39751 -9.20636,0.92313 -11.68438,-0.74532l0.02597,-0.02164c2.47801,1.66776 6.29138,3.05679 11.56128,0.73044c0.04363,0.03445 0.09712,0.03653 0.09712,0.03653z" fill="#a87c3c" fill-rule="evenodd"/><path d="M118.43445,352.33256l0.23096,0.19408c0,0 -0.03116,0.11219 -0.15616,0.16707l-0.23459,-0.19477c0.125,-0.05471 0.1598,-0.16638 0.1598,-0.16638z" fill="url(#color-31)" fill-rule="evenodd"/><path d="M118.22721,352.27301c-0.01956,0.14404 0.08622,0.24827 0.08622,0.24827c-5.7197,2.36565 -8.64906,0.94754 -11.12482,-0.73044c0.04363,-0.03186 0.06492,-0.05956 0.0928,-0.15963c0.00363,0.00208 0.03826,-0.00346 0.04172,-0.00138c2.55557,1.57375 5.82652,2.81752 10.90408,0.64318z" fill="url(#color-32)" fill-rule="nonzero"/><path d="M106.95973,351.95653l0.22888,-0.16569c2.27095,1.4162 5.45377,2.96762 11.10007,0.70204l0.23338,0.19477c-5.24809,2.32445 -9.08431,0.93733 -11.56232,-0.73113z" fill="#c19236" fill-rule="evenodd"/><path d="M106.97912,351.96397l-0.02597,0.01818c0,0 -0.15062,-0.0831 -0.09713,-0.23598c0.01229,0.1508 0.1231,0.2178 0.1231,0.2178z" fill="#d4a52e" fill-rule="evenodd"/><path d="M106.85602,351.74617l0.21503,-0.1759c-0.01177,0.15755 0.14075,0.21572 0.14075,0.21572l-0.23615,0.18057c0.00017,0.00017 -0.13158,-0.06336 -0.11963,-0.22039z" fill="url(#color-33)" fill-rule="nonzero"/><path d="M107.05512,351.5765c0.07704,-0.03116 0.14924,0.00537 0.23044,0.0528c-0.02822,0.10076 -0.04519,0.13591 -0.08882,0.16776c-0.0509,-0.03047 -0.1546,-0.0928 -0.14162,-0.22057z" fill="url(#color-34)" fill-rule="nonzero"/><g fill-rule="nonzero"><g clip-path="url(#clip-18)"><path d="M110.09529,341.91636c2.47801,1.66845 5.23061,2.9974 10.94927,0.63366l-2.81873,9.7358c-5.7197,2.36565 -8.46658,1.02597 -10.942,-0.6527z" fill="url(#color-35)"/></g><g clip-path="url(#clip-19)" fill="none"><path d="M110.09529,341.91636c2.47801,1.66845 5.23061,2.9974 10.94927,0.63366l-2.81873,9.7358c-5.7197,2.36565 -8.46658,1.02597 -10.942,-0.6527z"/></g></g><path d="M109.87143,341.89005l-0.02943,0.06891l-0.20395,0.14751c0.01316,-0.06146 0.17036,-0.17521 0.21883,-0.20897c0.0064,-0.00485 0.01454,-0.00744 0.01454,-0.00744z" fill="#ffcd02" fill-rule="evenodd"/><path d="M110.07919,341.9773c-0.11375,-0.06631 -0.20654,-0.02631 -0.24983,-0.00744c0.00675,-0.02095 0.03012,-0.07376 0.03012,-0.07376c0.0921,-0.05886 0.134,-0.05886 0.22005,-0.01766c0.01662,0.04069 0.00571,0.07306 -0.00035,0.09886z" fill="url(#color-36)" fill-rule="nonzero"/></g></g><path d="M239.23994,334.40094h-0.40724c0.35271,-1.5886 0.19084,-2.8569 -0.57769,-3.59453c-1.258,-1.20712 -3.8676,-0.73419 -6.9278,0.98364c4.35964,1.37543 7.48918,5.12753 7.48918,9.54384c0,0.48882 -0.04057,0.96947 -0.11464,1.43983h-14.45927v0.34649c0,1.89988 1.54008,3.43996 3.43975,3.43996c1.51711,0 2.80216,-0.98343 3.25942,-2.34662h7.41232c-1.23438,3.7652 -4.82527,6.6118 -9.22547,7.13797c-0.48238,0.05775 -0.9742,0.08845 -1.47418,0.08845c-0.6977,0 -1.37908,-0.06075 -2.04135,-0.17153c-4.01551,2.48015 -7.64417,3.21777 -9.37897,1.55275c-1.61737,-1.55232 -1.21464,-4.83579 0.72067,-8.60678c1.2565,-2.44816 3.15681,-5.10112 5.57577,-7.62142c0.95681,-0.99717 1.93809,-1.91426 2.92281,-2.74291c-3.0675,0.88382 -6.44156,3.64906 -8.9567,7.64203c-0.00107,-0.05303 -0.00451,-0.10519 -0.00451,-0.15822c0,-5.58157 4.99765,-10.1065 11.16228,-10.1065c0.43236,0 0.85827,0.02469 1.27796,0.06784c4.08506,-2.56666 7.79402,-3.34958 9.55414,-1.6603c1.03216,0.99073 1.23954,2.68795 0.75351,4.76602zM217.91449,346.26971c-1.17728,2.68323 -1.3473,4.88945 -0.22562,5.96584c1.2902,1.23803 4.00091,0.70972 7.16244,-1.11717c-2.9754,-0.69662 -5.46779,-2.47757 -6.93682,-4.84866zM224.24656,339.57376h6.87134c-0.04272,-1.86231 -1.56284,-3.35989 -3.43567,-3.35989c-1.87262,0 -3.39274,1.49758 -3.43567,3.35989" fill="#4ec1ff" fill-rule="nonzero" stroke="none" stroke-width="1" stroke-linecap="butt"/></g></g></svg>