<svg version="1.1" xmlns="http://www.w3.org/2000/svg" xmlns:xlink="http://www.w3.org/1999/xlink" width="36.97386" height="100.74784"><defs><radialGradient cx="25.17635" cy="23.9029" r="24.1454" gradientUnits="userSpaceOnUse" id="color-1"><stop offset="0" stop-color="#fff343"/><stop offset="1" stop-color="#fff343" stop-opacity="0"/></radialGradient><linearGradient x1="8.31675" y1="8.1112" x2="8.31675" y2="39.0247" gradientUnits="userSpaceOnUse" id="color-2"><stop offset="0" stop-color="#fff01b"/><stop offset="1" stop-color="#ffa30a"/></linearGradient><linearGradient x1="25.73565" y1="19.6723" x2="25.73565" y2="26.3751" gradientUnits="userSpaceOnUse" id="color-3"><stop offset="0" stop-color="#000000"/><stop offset="1" stop-color="#674205"/></linearGradient><linearGradient x1="20.08565" y1="19.6723" x2="20.08565" y2="26.3751" gradientUnits="userSpaceOnUse" id="color-4"><stop offset="0" stop-color="#000000"/><stop offset="1" stop-color="#674205"/></linearGradient><radialGradient cx="17.39517" cy="82.29244" r="32.03267" gradientUnits="userSpaceOnUse" id="color-5"><stop offset="0" stop-color="#ffff00"/><stop offset="1" stop-color="#ff9400"/></radialGradient><radialGradient cx="23.51619" cy="84.19911" r="21.92326" gradientUnits="userSpaceOnUse" id="color-6"><stop offset="0" stop-color="#bda501"/><stop offset="1" stop-color="#c07801"/></radialGradient><radialGradient cx="25.51305" cy="57.00037" r="22.40293" gradientUnits="userSpaceOnUse" id="color-7"><stop offset="0" stop-color="#fff343"/><stop offset="1" stop-color="#fff343" stop-opacity="0"/></radialGradient><linearGradient x1="9.8672" y1="42.6391" x2="9.8672" y2="71.32177" gradientUnits="userSpaceOnUse" id="color-8"><stop offset="0" stop-color="#ffec6c"/><stop offset="1" stop-color="#fdc363"/></linearGradient><linearGradient x1="10.75972" y1="43.03612" x2="10.75972" y2="70.37975" gradientUnits="userSpaceOnUse" id="color-9"><stop offset="0" stop-color="#fff01b"/><stop offset="1" stop-color="#ffa30a"/></linearGradient><linearGradient x1="26.03191" y1="53.36794" x2="26.03191" y2="59.58705" gradientUnits="userSpaceOnUse" id="color-10"><stop offset="0" stop-color="#000000"/><stop offset="1" stop-color="#674205"/></linearGradient><linearGradient x1="20.79973" y1="53.33966" x2="20.79973" y2="59.55877" gradientUnits="userSpaceOnUse" id="color-11"><stop offset="0" stop-color="#000000"/><stop offset="1" stop-color="#674205"/></linearGradient><radialGradient cx="34.908" cy="69.99648" r="5.0747" gradientUnits="userSpaceOnUse" id="color-12"><stop offset="0" stop-color="#ffec1a"/><stop offset="1" stop-color="#ffa50a"/></radialGradient><radialGradient cx="15.42168" cy="69.71366" r="5.0747" gradientUnits="userSpaceOnUse" id="color-13"><stop offset="0" stop-color="#ffec1a"/><stop offset="1" stop-color="#ffa50a"/></radialGradient><radialGradient cx="9.02994" cy="51.50003" r="5.0747" gradientUnits="userSpaceOnUse" id="color-14"><stop offset="0" stop-color="#ffec1a"/><stop offset="1" stop-color="#ffa50a"/></radialGradient><radialGradient cx="23.79316" cy="41.12052" r="5.0747" gradientUnits="userSpaceOnUse" id="color-15"><stop offset="0" stop-color="#ffec1a"/><stop offset="1" stop-color="#ffa50a"/></radialGradient><radialGradient cx="39.80079" cy="51.64144" r="5.0747" gradientUnits="userSpaceOnUse" id="color-16"><stop offset="0" stop-color="#ffec1a"/><stop offset="1" stop-color="#ffa50a"/></radialGradient></defs><g transform="translate(-6.22705,-6.1851)"><g data-paper-data="{&quot;isPaintingLayer&quot;:true}" fill="none" fill-rule="nonzero" stroke="none" stroke-width="none" stroke-linecap="none" stroke-linejoin="miter" stroke-miterlimit="10" stroke-dasharray="" stroke-dashoffset="0" font-family="none" font-weight="none" font-size="none" text-anchor="none" style="mix-blend-mode: normal"><g data-paper-data="{&quot;origPos&quot;:null}" id="ID0.23895729891955853"><path d="M6.87755,20.4143l-0.6505,-0.8396l0.5638,-1.7234l0.9974,-0.4419h10.2778l4.5101,-10.3847l0.9974,-0.8396l0.9975,0.0442l1.2142,0.928l4.857,10.1195l10.4079,-0.1768l1.0408,0.6187l0.824,1.0164l-0.824,1.8118l-5.9411,7.0262l1.7346,10.6497l0.0867,1.6792l-1.0841,0.5745l-1.9081,-0.3535l-9.9743,-7.0704l-8.4998,7.9542l-1.9081,0.3535l-1.3877,-0.7512l-0.477,-2.0769l0.9974,-9.8986z" id="ID0.3117544511333108" fill="url(#color-1)" stroke-width="0.8756" stroke-linecap="round"/><path d="M8.89925,20.6164l-0.5825,-0.7379l0.5049,-1.5146l0.8932,-0.3883h9.2041l4.039,-9.1265l0.8932,-0.7379l0.8933,0.0389l1.0874,0.8155l4.3496,8.8935l9.3207,-0.1554l0.932,0.5437l0.7379,0.8933l-0.7379,1.5922l-5.3205,6.175l1.5534,9.3595l0.0777,1.4757l-0.9709,0.5049l-1.7088,-0.3107l-8.9323,-6.2137l-7.6119,6.9904l-1.7087,0.3107l-1.2428,-0.6602l-0.4272,-1.8253l0.8932,-8.6993z" id="ID0.3117544511333108" fill="url(#color-2)" stroke-width="0.77672" stroke-linecap="round"/><g id="ID0.4398073833435774" stroke-width="1.6871"><path d="M27.10675,19.6729c0.4281,-0.0165 0.8547,0.3379 1.0344,0.7749c0.326,0.7932 0.3611,1.7389 0.3367,2.6221c-0.0168,0.8153 -0.1462,1.6581 -0.457,2.3871c-0.1783,0.4278 -0.4997,0.9218 -0.9141,0.9181c-0.3992,-0.0037 -0.7389,-0.3122 -0.9583,-0.8667c-0.2803,-0.7014 -0.4128,-1.5424 -0.4128,-2.5303c0,-0.9879 0.1021,-1.7958 0.4128,-2.5303c0.2042,-0.4848 0.5942,-0.7914 0.9583,-0.7749z" id="ID0.6670762049034238" fill="url(#color-3)" stroke-linecap="round"/><path d="M27.16985,20.1983c0.221,0 0.4205,0.1084 0.5653,0.2828c0.1447,0.1744 0.2346,0.415 0.2346,0.6812c0,0.2663 -0.0899,0.5068 -0.2346,0.6813c-0.1448,0.1744 -0.3443,0.2828 -0.5653,0.2828c-0.2209,0 -0.4204,-0.1084 -0.5652,-0.2828c-0.1447,-0.1745 -0.2346,-0.415 -0.2346,-0.6813c0,-0.2662 0.0899,-0.5068 0.2346,-0.6812c0.1448,-0.1744 0.3443,-0.2828 0.5652,-0.2828z" id="ID0.2271407265216112" fill="#ffffff" stroke-linecap="butt"/></g><g id="ID0.4398073833435774" stroke-width="1.6871"><path d="M21.45675,19.6729c0.4281,-0.0165 0.8547,0.3379 1.0344,0.7749c0.326,0.7932 0.3611,1.7389 0.3367,2.6221c-0.0168,0.8153 -0.1462,1.6581 -0.457,2.3871c-0.1783,0.4278 -0.4997,0.9218 -0.9141,0.9181c-0.3992,-0.0037 -0.7389,-0.3122 -0.9583,-0.8667c-0.2803,-0.7014 -0.4128,-1.5424 -0.4128,-2.5303c0,-0.9879 0.1021,-1.7958 0.4128,-2.5303c0.2042,-0.4848 0.5942,-0.7914 0.9583,-0.7749z" id="ID0.6670762049034238" fill="url(#color-4)" stroke-linecap="round"/><path d="M21.51985,20.1483c0.221,0 0.4205,0.1084 0.5653,0.2828c0.1447,0.1744 0.2346,0.415 0.2346,0.6812c0,0.2663 -0.0899,0.5068 -0.2346,0.6813c-0.1448,0.1744 -0.3443,0.2828 -0.5653,0.2828c-0.2209,0 -0.4204,-0.1084 -0.5652,-0.2828c-0.1447,-0.1745 -0.2346,-0.415 -0.2346,-0.6813c0,-0.2662 0.0899,-0.5068 0.2346,-0.6812c0.1448,-0.1744 0.3443,-0.2828 0.5652,-0.2828z" id="ID0.2271407265216112" fill="#ffffff" stroke-linecap="butt"/></g></g><g data-paper-data="{&quot;origPos&quot;:null}" stroke-linecap="butt"><path d="M25.38084,76.83215c4.15242,0 7.91471,1.68676 10.63923,4.41128c2.72452,2.7244 4.41116,6.48668 4.41116,10.63911c0,4.1523 -1.68663,7.91472 -4.41116,10.63912c-2.72452,2.72452 -6.48681,4.41128 -10.63923,4.41128c-4.1523,0 -7.91459,-1.68676 -10.63912,-4.41128c-2.72452,-2.7244 -4.41128,-6.48682 -4.41128,-10.63912c0,-4.15242 1.68676,-7.91471 4.41128,-10.63911c2.72452,-2.72452 6.48682,-4.41128 10.63912,-4.41128z" data-paper-data="{&quot;origPos&quot;:null}" id="ID0.7142658131197095" fill="url(#color-5)" stroke-width="0.48028"/><path d="M22.226,80.28292h5.93709v22.76855h-5.93709z" data-paper-data="{&quot;origPos&quot;:null}" id="ID0.06001657713204622" fill="url(#color-6)" stroke-width="0.59798"/></g><g data-paper-data="{&quot;origPos&quot;:null}"><path d="M8.53478,53.76355l-0.60354,-0.779l0.5231,-1.59907l0.92544,-0.40998h9.53608l4.18467,-9.63524l0.92544,-0.779l0.92544,0.04095l1.12659,0.86102l4.50652,9.38924l9.65684,-0.16398l0.96572,0.57401l0.76446,0.94304l-0.76446,1.68103l-5.51245,6.51918l1.60947,9.88123l0.08043,1.558l-1.00588,0.533l-1.77046,-0.32796l-9.25445,-6.56019l-7.88639,7.3802l-1.7704,0.32802l-1.28762,-0.69704l-0.44256,-1.92702l0.92544,-9.18425z" data-paper-data="{&quot;origPos&quot;:null}" id="ID0.3117544511333108" fill="url(#color-7)" stroke-width="1.43627" stroke-linecap="round"/><path d="M10.40767,54.24186l-0.54047,-0.68459l0.46841,-1.40533l0.82878,-0.36031h8.53993l3.74748,-8.46787l0.82878,-0.68465l0.82878,0.03603l1.00893,0.75671l4.03573,8.25168l8.64808,-0.14413l0.86481,0.50444l0.68459,0.82878l-0.68459,1.4774l-4.93663,5.72932l1.44137,8.68405l0.07206,1.3693l-0.90084,0.46841l-1.58549,-0.28825l-8.28771,-5.76535l-7.06253,6.48603l-1.58549,0.28825l-1.15306,-0.61259l-0.39634,-1.69358l0.82872,-8.07147z" data-paper-data="{&quot;origPos&quot;:null}" id="ID0.3117544511333108" fill="url(#color-8)" stroke-width="1.27408" stroke-linecap="round"/><path d="M10.75972,52.93483l9.74593,-0.24441l4.03279,-9.65435l4.82718,9.56266l10.54032,-0.03054l-6.66025,7.14908l1.92471,10.02095l-9.83757,-6.69079l-9.04329,7.33234l1.16098,-9.92926z" data-paper-data="{&quot;origPos&quot;:null}" id="ID0.3117544511333108" fill="url(#color-9)" stroke-width="1.08024" stroke-linecap="round"/><g data-paper-data="{&quot;origPos&quot;:null}" id="ID0.4398073833435774" stroke-width="2.7674"><path d="M27.30403,53.36851c0.39719,-0.01533 0.79303,0.31348 0.95978,0.71899c0.3025,0.73596 0.33503,1.61338 0.3124,2.43288c-0.01556,0.75643 -0.1357,1.53843 -0.42406,2.21482c-0.16539,0.39697 -0.4636,0.85525 -0.84812,0.85185c-0.37032,-0.00339 -0.68556,-0.28966 -0.88907,-0.80417c-0.26008,-0.65083 -0.38305,-1.43113 -0.38305,-2.34769c0,-0.91662 0.09469,-1.66621 0.38305,-2.34769c0.18938,-0.4498 0.55127,-0.73431 0.88907,-0.71899z" id="ID0.6670762049034238" fill="url(#color-10)" stroke-linecap="round"/><path d="M27.3658,53.85032c0.20499,0 0.39012,0.10051 0.52441,0.26234c0.13428,0.16189 0.21772,0.38509 0.21772,0.6321c0,0.24702 -0.08343,0.47022 -0.21772,0.63205c-0.13428,0.16189 -0.31942,0.2624 -0.52441,0.2624c-0.20493,0 -0.39012,-0.10051 -0.52441,-0.2624c-0.13428,-0.16183 -0.21766,-0.38503 -0.21766,-0.63205c0,-0.24702 0.08338,-0.47022 0.21766,-0.6321c0.13428,-0.16183 0.31947,-0.26234 0.52441,-0.26234z" id="ID0.2271407265216112" fill="#ffffff" stroke-linecap="butt"/></g><g data-paper-data="{&quot;origPos&quot;:null}" id="ID0.4398073833435774" stroke-width="2.7674"><path d="M22.07186,53.34023c0.39719,-0.01533 0.79303,0.31348 0.95978,0.71899c0.3025,0.73596 0.33503,1.61338 0.3124,2.43288c-0.01556,0.75643 -0.1357,1.53843 -0.42406,2.21482c-0.16539,0.39697 -0.4636,0.85525 -0.84812,0.85185c-0.37032,-0.00339 -0.68556,-0.28966 -0.88907,-0.80417c-0.26008,-0.65083 -0.38305,-1.43113 -0.38305,-2.34769c0,-0.91662 0.09469,-1.66621 0.38305,-2.34769c0.18938,-0.4498 0.55127,-0.73431 0.88907,-0.71899z" id="ID0.6670762049034238" fill="url(#color-11)" stroke-linecap="round"/><path d="M22.16191,53.79376c0.20499,0 0.39012,0.10051 0.52441,0.26234c0.13428,0.16189 0.21772,0.38509 0.21772,0.6321c0,0.24702 -0.08343,0.47022 -0.21772,0.63205c-0.13428,0.16189 -0.31942,0.2624 -0.52441,0.2624c-0.20493,0 -0.39012,-0.10051 -0.52441,-0.2624c-0.13428,-0.16183 -0.21766,-0.38503 -0.21766,-0.63205c0,-0.24702 0.08338,-0.47022 0.21766,-0.6321c0.13428,-0.16183 0.31947,-0.26234 0.52441,-0.26234z" id="ID0.2271407265216112" fill="#ffffff" stroke-linecap="butt"/></g><path d="M35.66375,68.61134c0.72951,0 1.39063,0.29634 1.86956,0.77481c0.47848,0.47893 0.77481,1.14005 0.77481,1.86956c0,0.72951 -0.29634,1.39063 -0.77481,1.8695c-0.47893,0.47853 -1.14005,0.77487 -1.86956,0.77487c-0.72951,0 -1.39057,-0.29634 -1.8695,-0.77487c-0.47853,-0.47887 -0.77487,-1.13999 -0.77487,-1.8695c0,-0.72951 0.29634,-1.39063 0.77487,-1.86956c0.47893,-0.47848 1.13999,-0.77481 1.8695,-0.77481z" data-paper-data="{&quot;origPos&quot;:null}" id="ID0.39403693610802293" fill="url(#color-12)" stroke-width="0.74207" stroke-linecap="butt"/><path d="M16.17743,68.32852c0.72951,0 1.39063,0.29634 1.86956,0.77481c0.47848,0.47893 0.77481,1.14005 0.77481,1.86956c0,0.72951 -0.29634,1.39063 -0.77481,1.8695c-0.47893,0.47853 -1.14005,0.77487 -1.86956,0.77487c-0.72951,0 -1.39057,-0.29634 -1.8695,-0.77487c-0.47853,-0.47887 -0.77487,-1.13999 -0.77487,-1.8695c0,-0.72951 0.29634,-1.39063 0.77487,-1.86956c0.47893,-0.47848 1.13999,-0.77481 1.8695,-0.77481z" data-paper-data="{&quot;origPos&quot;:null}" id="ID0.39403693610802293" fill="url(#color-13)" stroke-width="0.74207" stroke-linecap="butt"/><path d="M9.78569,50.11489c0.72951,0 1.39063,0.29634 1.86956,0.77481c0.47848,0.47893 0.77481,1.14005 0.77481,1.86956c0,0.72951 -0.29634,1.39063 -0.77481,1.8695c-0.47893,0.47853 -1.14005,0.77487 -1.86956,0.77487c-0.72951,0 -1.39057,-0.29634 -1.8695,-0.77487c-0.47853,-0.47887 -0.77487,-1.13999 -0.77487,-1.8695c0,-0.72951 0.29634,-1.39063 0.77487,-1.86956c0.47893,-0.47848 1.13999,-0.77481 1.8695,-0.77481z" data-paper-data="{&quot;origPos&quot;:null}" id="ID0.39403693610802293" fill="url(#color-14)" stroke-width="0.74207" stroke-linecap="butt"/><path d="M24.54891,39.73538c0.72951,0 1.39063,0.29634 1.86956,0.77481c0.47848,0.47893 0.77481,1.14005 0.77481,1.86956c0,0.72951 -0.29634,1.39063 -0.77481,1.8695c-0.47893,0.47853 -1.14005,0.77487 -1.86956,0.77487c-0.72951,0 -1.39057,-0.29634 -1.8695,-0.77487c-0.47853,-0.47887 -0.77487,-1.13999 -0.77487,-1.8695c0,-0.72951 0.29634,-1.39063 0.77487,-1.86956c0.47893,-0.47848 1.13999,-0.77481 1.8695,-0.77481z" data-paper-data="{&quot;origPos&quot;:null}" id="ID0.39403693610802293" fill="url(#color-15)" stroke-width="0.74207" stroke-linecap="butt"/><path d="M40.55654,50.2563c0.72951,0 1.39063,0.29634 1.86956,0.77481c0.47848,0.47893 0.77481,1.14005 0.77481,1.86956c0,0.72951 -0.29634,1.39063 -0.77481,1.8695c-0.47893,0.47853 -1.14005,0.77487 -1.86956,0.77487c-0.72951,0 -1.39057,-0.29634 -1.8695,-0.77487c-0.47853,-0.47887 -0.77487,-1.13999 -0.77487,-1.8695c0,-0.72951 0.29634,-1.39063 0.77487,-1.86956c0.47893,-0.47848 1.13999,-0.77481 1.8695,-0.77481z" data-paper-data="{&quot;origPos&quot;:null}" id="ID0.39403693610802293" fill="url(#color-16)" stroke-width="0.74207" stroke-linecap="butt"/></g></g></g></svg>