<svg version="1.1" xmlns="http://www.w3.org/2000/svg" xmlns:xlink="http://www.w3.org/1999/xlink" width="514.26426" height="385.21844" viewBox="0,0,514.26426,385.21844"><defs><radialGradient cx="-0.24024" cy="180.00009" r="180.93093" gradientUnits="userSpaceOnUse" id="color-1"><stop offset="0" stop-color="#ececec"/><stop offset="1" stop-color="#616161"/></radialGradient><linearGradient x1="-17.88288" y1="180.00009" x2="17.40241" y2="180.00009" gradientUnits="userSpaceOnUse" id="color-2"><stop offset="0" stop-color="#ececec" stop-opacity="0"/><stop offset="1" stop-color="#ececec"/></linearGradient><radialGradient cx="478.73874" cy="180.00009" r="180.93093" gradientUnits="userSpaceOnUse" id="color-3"><stop offset="0" stop-color="#ececec"/><stop offset="1" stop-color="#616161"/></radialGradient><linearGradient x1="496.38138" y1="180.00009" x2="461.09609" y2="180.00009" gradientUnits="userSpaceOnUse" id="color-4"><stop offset="0" stop-color="#ececec" stop-opacity="0"/><stop offset="1" stop-color="#ececec"/></linearGradient></defs><g transform="translate(17.88288,0.93084)"><g data-paper-data="{&quot;isPaintingLayer&quot;:true}" fill-rule="nonzero" stroke="none" stroke-linecap="butt" stroke-linejoin="miter" stroke-miterlimit="10" stroke-dasharray="" stroke-dashoffset="0" style="mix-blend-mode: normal"><path d="M476.4925,365.13427h-473.48648v-30.1398h473.48649z" data-paper-data="{&quot;origPos&quot;:null,&quot;index&quot;:null}" fill="#ececec" stroke-width="1"/><path d="M430.79668,384.28761v-49.0987h42.29294v49.0987z" data-paper-data="{&quot;origPos&quot;:null,&quot;index&quot;:null}" fill="#616161" stroke-width="0"/><path d="M346.21371,384.09317v-49.0987h42.29294v49.0987z" data-paper-data="{&quot;origPos&quot;:null,&quot;index&quot;:null}" fill="#616161" stroke-width="0"/><path d="M90.51156,384.09317v-49.0987h42.29294v49.0987z" data-paper-data="{&quot;origPos&quot;:null,&quot;index&quot;:null}" fill="#616161" stroke-width="0"/><path d="M6.89502,384.09317v-49.0987h42.29294v49.0987z" data-paper-data="{&quot;origPos&quot;:null,&quot;index&quot;:null}" fill="#616161" stroke-width="0"/><path d="M461.85317,361.74385l-31.25094,-26.74938h43.75132v28.1953z" data-paper-data="{&quot;origPos&quot;:null,&quot;index&quot;:null}" fill="#cc1919" stroke-width="0"/><path d="M4.85183,363.18977v-28.1953h42.77907l-30.55648,26.74938z" data-paper-data="{&quot;origPos&quot;:null,&quot;index&quot;:null}" fill="#cc1919" stroke-width="0"/><path d="M261.1417,383.89872v-49.0987h42.29294v49.0987z" data-paper-data="{&quot;origPos&quot;:null,&quot;index&quot;:null}" fill="#616161" stroke-width="0"/><path d="M176.55582,384.09317v-49.0987h42.29294v49.0987z" data-paper-data="{&quot;origPos&quot;:null,&quot;index&quot;:null}" fill="#616161" stroke-width="0"/><g data-paper-data="{&quot;index&quot;:null}" stroke-width="0"><path d="M-17.88288,360.93103v-361.86186h35.28529v361.86186z" fill="url(#color-1)"/><path d="M-17.88288,360.93103v-361.86186h35.28529v361.86186z" fill="url(#color-2)"/></g><g data-paper-data="{&quot;index&quot;:null}" stroke-width="0"><path d="M461.09609,360.93103v-361.86186h35.28529v361.86186z" fill="url(#color-3)"/><path d="M461.09609,360.93103v-361.86186h35.28529v361.86186z" fill="url(#color-4)"/></g><path d="M198.0494,197.06306h80.9736l44.974,26h-37.526l-15.4988,-14h-64.0071l-15.5067,14h-36.4614z" data-paper-data="{&quot;index&quot;:null}" fill="#cc1919" stroke-width="1.17703"/></g></g></svg>