<svg version="1.1" xmlns="http://www.w3.org/2000/svg" xmlns:xlink="http://www.w3.org/1999/xlink" width="615.4985" height="545.02889" viewBox="0,0,615.4985,545.02889"><defs><linearGradient x1="-64.99999" y1="180.00002" x2="26.50001" y2="180.00002" gradientUnits="userSpaceOnUse" id="color-1"><stop offset="0" stop-color="#296cdb" stop-opacity="0"/><stop offset="1" stop-color="#296cdb"/></linearGradient><linearGradient x1="240.88466" y1="359.60443" x2="240.88466" y2="451.09908" gradientUnits="userSpaceOnUse" id="color-2"><stop offset="0" stop-color="#296cdb"/><stop offset="1" stop-color="#296cdb" stop-opacity="0"/></linearGradient><radialGradient cx="22.71666" cy="365.63333" r="86" gradientUnits="userSpaceOnUse" id="color-3"><stop offset="0" stop-color="#296cdb"/><stop offset="1" stop-color="#296cdb" stop-opacity="0"/></radialGradient><linearGradient x1="545.9318" y1="180.00002" x2="454.4318" y2="180.00002" gradientUnits="userSpaceOnUse" id="color-4"><stop offset="0" stop-color="#296cdb" stop-opacity="0"/><stop offset="1" stop-color="#296cdb"/></linearGradient><radialGradient cx="458.21516" cy="365.63333" r="86" gradientUnits="userSpaceOnUse" id="color-5"><stop offset="0" stop-color="#296cdb"/><stop offset="1" stop-color="#296cdb" stop-opacity="0"/></radialGradient><linearGradient x1="240.88466" y1="0.63334" x2="240.88466" y2="-90.86131" gradientUnits="userSpaceOnUse" id="color-6"><stop offset="0" stop-color="#296cdb"/><stop offset="1" stop-color="#296cdb" stop-opacity="0"/></linearGradient><radialGradient cx="22.71666" cy="-5.39556" r="86" gradientUnits="userSpaceOnUse" id="color-7"><stop offset="0" stop-color="#296cdb"/><stop offset="1" stop-color="#296cdb" stop-opacity="0"/></radialGradient><radialGradient cx="458.21516" cy="-5.39556" r="86" gradientUnits="userSpaceOnUse" id="color-8"><stop offset="0" stop-color="#296cdb"/><stop offset="1" stop-color="#296cdb" stop-opacity="0"/></radialGradient><linearGradient x1="340.7957" y1="266.5422" x2="340.7957" y2="300.7555" gradientUnits="userSpaceOnUse" id="color-9"><stop offset="0" stop-color="#000000"/><stop offset="1" stop-color="#000000" stop-opacity="0"/></linearGradient></defs><g transform="translate(67.28335,92.39557)"><g data-paper-data="{&quot;isPaintingLayer&quot;:true}" fill-rule="nonzero" stroke="none" stroke-linejoin="miter" stroke-miterlimit="10" stroke-dasharray="" stroke-dashoffset="0" style="mix-blend-mode: normal"><g stroke-linecap="butt"><path d="M-64.99999,-3.99998h91.5v368h-91.5z" id="ID0.7050563441589475" fill="url(#color-1)" stroke-width="1.89892"/><path d="M26.00001,-3.99998h429v368h-429z" data-paper-data="{&quot;origPos&quot;:null}" id="ID0.10820248955860734" fill="#296cdb" stroke-width="0.90886"/><path d="M26.17997,451.09908l-0.07542,-91.34377l429.48484,-0.15087l0.07542,91.34377z" data-paper-data="{&quot;index&quot;:null,&quot;origRot&quot;:0}" id="ID0.7050563441589475" fill="url(#color-2)" stroke-width="1.89892"/><path d="M-67.28334,452.63333v-89h94v89z" fill="url(#color-3)" stroke-width="0"/><path d="M545.9318,364.00002h-91.5v-368h91.5z" data-paper-data="{&quot;index&quot;:null}" id="ID0.7050563441589475" fill="url(#color-4)" stroke-width="1.89892"/><path d="M454.21516,452.63333v-89h94v89z" data-paper-data="{&quot;index&quot;:null}" fill="url(#color-5)" stroke-width="0"/><path d="M455.6648,-90.71044l-0.07542,91.34377l-429.48483,-0.15087l0.07542,-91.34377z" data-paper-data="{&quot;index&quot;:null,&quot;origRot&quot;:0}" id="ID0.7050563441589475" fill="url(#color-6)" stroke-width="1.89892"/><path d="M26.71666,-92.39556v89h-94v-89z" data-paper-data="{&quot;index&quot;:null}" fill="url(#color-7)" stroke-width="0"/><path d="M548.21516,-92.39556v89h-94v-89z" data-paper-data="{&quot;index&quot;:null}" fill="url(#color-8)" stroke-width="0"/></g><g id="ID0.961205658968538" stroke-linecap="butt"><path d="M340.8455,289.4209h71.975v71.814h-71.975z" id="ID0.7493802439421415" fill="#5ebd47" stroke-width="1.76245"/><path d="M348.2945,290.9093h9.4967v70.3256h-9.4967z" id="ID0.15770532842725515" fill="#5dd24d" stroke-width="1.76245"/><path d="M340.7957,266.5422h71.975v34.2133h-71.975z" id="ID0.05341690871864557" fill="url(#color-9)" stroke-width="3.42681"/><path d="M334.3217,265.2349h85.9535v25.6744h-85.9535z" id="ID0.6849248851649463" fill="#5ebd47" stroke-width="1.6033"/><path d="M342.0474,265.2349h8.9969v25.6744h-8.9969z" id="ID0.9705615900456905" fill="#5dd24d" stroke-width="1.76245"/></g><text transform="translate(356.432,350.79975) scale(0.74106,0.74106)" font-size="22" xml:space="preserve" id="ID0.5113111385144293" fill="#a1f4fa" fill-rule="nonzero" stroke="none" stroke-width="1" stroke-linecap="butt" stroke-linejoin="miter" stroke-miterlimit="10" stroke-dasharray="" stroke-dashoffset="0" font-family="Sans Serif" font-weight="400" text-anchor="start" style="mix-blend-mode: normal"><tspan x="0" dy="0">Page 6</tspan></text><text transform="translate(68.425,123.67517) scale(0.71252,0.71252)" font-size="22" xml:space="preserve" id="ID0.8610048689879477" fill="#a1f3f9" fill-rule="nonzero" stroke="none" stroke-width="1" stroke-linecap="butt" stroke-linejoin="miter" stroke-miterlimit="10" stroke-dasharray="" stroke-dashoffset="0" font-family="Sans Serif" font-weight="400" text-anchor="start" style="mix-blend-mode: normal"><tspan x="0" dy="0">In Peach's Castle, you can go into different</tspan><tspan x="0" dy="24.86px">levels via doors and pipes.</tspan></text><text transform="translate(68.259,99.81804) scale(1.62937,1.62937)" font-size="22" xml:space="preserve" id="ID0.6023869565688074" fill="#a1f3f9" fill-rule="nonzero" stroke="none" stroke-width="1" stroke-linecap="butt" stroke-linejoin="miter" stroke-miterlimit="10" stroke-dasharray="" stroke-dashoffset="0" font-family="Sans Serif" font-weight="400" text-anchor="start" style="mix-blend-mode: normal"><tspan x="0" dy="0">Peach's Castle</tspan></text><g id="ID0.9880125280469656"><path d="M71.4901,182.5451h45.9078v73.8699h-45.9078z" id="ID0.30685094418004155" fill="#ffae28" stroke-width="1.28285" stroke-linecap="butt"/><path d="M94.5474,153.336c6.3615,0 12.1265,2.9224 16.3007,7.6443c4.1742,4.722 6.7575,11.2434 6.7575,18.4397c0,7.1964 -2.5833,13.7178 -6.7575,18.4398c-4.1742,4.7219 -9.9392,7.6443 -16.3007,7.6443c-6.3616,0 -12.1266,-2.9224 -16.3008,-7.6443c-4.1741,-4.722 -6.7575,-11.2434 -6.7575,-18.4398c0,-7.1963 2.5834,-13.7177 6.7575,-18.4397c4.1742,-4.7219 9.9392,-7.6443 16.3008,-7.6443z" id="ID0.31215083273127675" fill="#ffae28" stroke-width="0.9034" stroke-linecap="butt"/><path d="M92.5232,153.6307h4.1734v102.8754h-4.1734z" id="ID0.22109420783817768" fill="#c97407" stroke-width="0.83217" stroke-linecap="butt"/><path d="M148.4539,198.4042v0v0.4173v0z" id="ID0.2980666705407202" fill="#c97407" stroke-width="0.83469" stroke-linecap="butt"/><path d="M83.1892,159.9839l6.6775,-2.52l0.0417,26.107h-13.981l0.1669,-7.3248l1.252,-7.9295z" id="ID0.377524312119931" fill="#e18e3b" stroke-width="0.75772" stroke-linecap="round"/><path d="M112.0037,168.7666l1.252,7.9295l0.1669,7.3248h-13.981l0.0417,-26.107l6.6775,2.52z" id="ID0.377524312119931" fill="#e18e3b" stroke-width="0.75772" stroke-linecap="round"/><g id="ID0.860693315975368" fill="#e18e3b" stroke-width="0.75772" stroke-linecap="butt"><path d="M75.2274,233.397h13.981v19.8239h-13.981z" id="ID0.377524312119931"/><path d="M75.3274,210.147h13.981v19.8239h-13.981z" id="ID0.377524312119931"/><path d="M75.6274,186.647h13.981v19.8239h-13.981z" id="ID0.377524312119931"/></g><g id="ID0.860693315975368" fill="#e18e3b" stroke-width="0.75772" stroke-linecap="butt"><path d="M99.4274,234.197h13.981v19.8239h-13.981z" id="ID0.377524312119931"/><path d="M99.5774,210.947h13.981v19.8239h-13.981z" id="ID0.377524312119931"/><path d="M99.8274,187.447h13.981v19.8239h-13.981z" id="ID0.377524312119931"/></g></g><text transform="translate(130.225,173.17517) scale(0.71252,0.71252)" font-size="22" xml:space="preserve" id="ID0.8610048689879477" fill="#a1f3f9" fill-rule="nonzero" stroke="none" stroke-width="1" stroke-linecap="butt" stroke-linejoin="miter" stroke-miterlimit="10" stroke-dasharray="" stroke-dashoffset="0" font-family="Sans Serif" font-weight="400" text-anchor="start" style="mix-blend-mode: normal"><tspan x="0" dy="0">Press Z to enter doors.</tspan></text><text transform="translate(65.075,291.92517) scale(0.71252,0.71252)" font-size="22" xml:space="preserve" data-paper-data="{&quot;origPos&quot;:null}" id="ID0.8610048689879477" fill="#a1f3f9" fill-rule="nonzero" stroke="none" stroke-width="1" stroke-linecap="butt" stroke-linejoin="miter" stroke-miterlimit="10" stroke-dasharray="" stroke-dashoffset="0" font-family="Sans Serif" font-weight="400" text-anchor="start" style="mix-blend-mode: normal"><tspan x="0" dy="0">You can enter certain pipes by</tspan><tspan x="0" dy="24.86px">pressing the down arrow or S while</tspan><tspan x="0" dy="24.86px">standing on top of them.</tspan></text><text transform="translate(62.772,45.84276) scale(2.14679,2.14679)" font-size="22" xml:space="preserve" data-paper-data="{&quot;origPos&quot;:null}" id="ID0.16084741614758968" fill="#a1f3f9" fill-rule="nonzero" stroke="none" stroke-width="1" stroke-linecap="butt" stroke-linejoin="miter" stroke-miterlimit="10" stroke-dasharray="" stroke-dashoffset="0" font-family="Sans Serif" font-weight="400" text-anchor="start" style="mix-blend-mode: normal"><tspan x="0" dy="0">Guide</tspan></text><text transform="translate(210.114,28.80252) scale(0.77297,0.77296)" font-size="22" xml:space="preserve" data-paper-data="{&quot;origPos&quot;:null}" id="ID0.35283531714230776" fill="#a1f3f9" fill-rule="nonzero" stroke="none" stroke-width="1" stroke-linecap="butt" stroke-linejoin="miter" stroke-miterlimit="10" stroke-dasharray="" stroke-dashoffset="0" font-family="Sans Serif" font-weight="400" text-anchor="start" style="mix-blend-mode: normal"><tspan x="0" dy="0">Use the arrow keys</tspan><tspan x="0" dy="24.86px">or tap to navigate</tspan></text></g></g></svg>