<svg version="1.1" xmlns="http://www.w3.org/2000/svg" xmlns:xlink="http://www.w3.org/1999/xlink" width="70.95197" height="70.95197" viewBox="0,0,70.95197,70.95197"><g transform="translate(-204.52402,-144.52404)"><g data-paper-data="{&quot;isPaintingLayer&quot;:true}" fill-rule="nonzero" stroke-linecap="butt" stroke-linejoin="miter" stroke-miterlimit="10" stroke-dasharray="" stroke-dashoffset="0" style="mix-blend-mode: normal"><path d="M205.52402,180.00004c0,-19.04057 15.43544,-34.47599 34.47599,-34.47599c19.04056,0 34.47598,15.43544 34.47598,34.47599c0,19.04057 -15.43543,34.47598 -34.47598,34.47598c-19.04056,0 -34.47599,-15.43543 -34.47599,-34.47598z" fill="#ffffff" stroke="#7a7a7a" stroke-width="2"/><path d="M255.5819,174.12551c-6.11604,3.76565 -9.34679,5.86032 -9.69309,6.28979c-0.01759,0.14105 -0.03553,0.2852 -0.05348,0.42923c-0.0823,0.66058 -0.56375,3.71675 -1.44392,9.16548c-2.60954,0.43711 -5.65682,0.71606 -9.14832,0.8419c0.00559,-0.04494 0.01087,-0.08707 0.01646,-0.13201c-0.29192,-3.67696 -0.58345,-7.35688 -0.87536,-11.03386c0.066,0.00823 2.75911,-2.71435 8.07638,-8.16824l-2.79293,-3.74461c-4.3469,4.83678 -6.6735,7.23615 -6.98273,7.19761c-5.32682,-3.10602 -8.08333,-4.81846 -8.26684,-5.13097c3.92324,-6.50268 6.21483,-10.13818 6.87207,-10.90999c10.14627,0.03237 16.55581,0.12674 19.22605,0.27964c0.44694,1.08621 2.13551,6.05917 5.06575,14.91598zM244.22651,192.67876c-0.50951,3.18368 0.81147,6.16297 0.58588,7.97346c-0.01234,0.09908 -4.27947,0.28348 -9.29372,0.41795c-0.20112,-0.02507 -0.28888,-2.72228 -0.26848,-8.09814c0.89467,-0.18133 3.84403,-0.3839 8.84868,-0.61414z" data-paper-data="{&quot;origRot&quot;:0}" fill="#7a7a7a" stroke="none" stroke-width="3.5"/></g></g></svg>