<svg version="1.1" xmlns="http://www.w3.org/2000/svg" xmlns:xlink="http://www.w3.org/1999/xlink" width="58.5274" height="55.36013" viewBox="0,0,58.5274,55.36013"><defs><radialGradient cx="239.69967" cy="183.83153" r="37.35696" gradientUnits="userSpaceOnUse" id="color-1"><stop offset="0" stop-color="#fff343"/><stop offset="1" stop-color="#fff343" stop-opacity="0"/></radialGradient><linearGradient x1="273.89969" y1="193.03152" x2="251.89922" y2="150.56367" gradientUnits="userSpaceOnUse" id="color-2"><stop offset="0" stop-color="#fff01b"/><stop offset="1" stop-color="#ffa30a"/></linearGradient><linearGradient x1="241.70126" y1="189.60445" x2="236.93102" y2="180.39634" gradientUnits="userSpaceOnUse" id="color-3"><stop offset="0" stop-color="#000000"/><stop offset="1" stop-color="#674205"/></linearGradient><linearGradient x1="249.43651" y1="185.67545" x2="244.6662" y2="176.46734" gradientUnits="userSpaceOnUse" id="color-4"><stop offset="0" stop-color="#000000"/><stop offset="1" stop-color="#674205"/></linearGradient></defs><g transform="translate(-210.7363,-152.31993)"><g data-paper-data="{&quot;isPaintingLayer&quot;:true}" fill-rule="nonzero" stroke="none" stroke-linejoin="miter" stroke-miterlimit="10" stroke-dasharray="" stroke-dashoffset="0" style="mix-blend-mode: normal"><path d="" data-paper-data="{&quot;origPos&quot;:null}" fill="#000000" stroke-width="1" stroke-linecap="butt"/><g><path d="M267.32056,175.60124l1.4913,0.69053l0.45184,2.76872l-1.05567,1.31695l-14.11936,7.31457l1.19491,17.47571l-0.77278,1.86333l-1.40167,0.64902l-2.32867,-0.41058l-13.87405,-10.44525l-14.17241,7.64976l-1.86996,-0.10903l-1.85522,-0.80987l-0.15741,-3.07543l3.16138,-13.88043l-9.96223,-13.39593l-1.31425,-2.24493l1.08048,-1.5608l2.87283,-0.87248l18.73423,2.61475l6.01579,-16.97624l2.36992,-1.84368l2.4409,0.04445l2.13345,2.51359l5.67422,14.3082z" fill="url(#color-1)" stroke-width="0.55167" stroke-linecap="round"/><path d="M264.1997,176.26696l1.32554,0.59917l0.3843,2.43991l-0.95058,1.16937l-12.64452,6.55038l0.94664,15.412l-0.70206,1.64944l-1.25458,0.58222l-2.07427,-0.34649l-12.30466,-9.12191l-12.69387,6.84653l-1.66737,-0.08349l-1.64944,-0.70206l-0.11958,-2.71248l2.91483,-12.2693l-8.79507,-11.75238l-1.1571,-1.97212l0.97463,-1.38448l2.56859,-0.78924l16.69311,2.17936l5.48194,-15.02058l2.12633,-1.64282l2.17716,0.0226l1.88568,2.20343l4.96405,12.58656z" fill="url(#color-2)" stroke-width="0.48937" stroke-linecap="round"/><g stroke-width="1.06296"><path d="M239.81702,190.57933c-0.57634,0.32734 -1.41445,0.14415 -1.97236,-0.32831c-1.01246,-0.85775 -1.73367,-2.13197 -2.32867,-3.36248c-0.55718,-1.13204 -0.97906,-2.38196 -1.0709,-3.60462c-0.05967,-0.71458 0.03045,-1.62194 0.60212,-1.91195c0.55105,-0.27896 1.23739,-0.097 1.93332,0.50881c0.88427,0.76419 1.66492,1.82503 2.36797,3.18225c0.70305,1.35698 1.1377,2.53961 1.23347,3.76988c0.06458,0.8111 -0.25293,1.50996 -0.76493,1.74644z" fill="url(#color-3)" stroke-linecap="round"/><path d="M239.37904,189.89127c-0.30352,0.15716 -0.65467,0.15053 -0.97759,0.01375c-0.32316,-0.13653 -0.61784,-0.40321 -0.80717,-0.76886c-0.18957,-0.36589 -0.23721,-0.76026 -0.16256,-1.10282c0.07465,-0.34256 0.27184,-0.63356 0.57511,-0.79071c0.30352,-0.15716 0.65491,-0.15053 0.97783,-0.01375c0.32292,0.13653 0.61758,0.40321 0.80717,0.76886c0.18933,0.36589 0.23721,0.76026 0.16256,1.10282c-0.0749,0.34256 -0.27184,0.63356 -0.57536,0.79071z" fill="#ffffff" stroke-linecap="butt"/></g><g stroke-width="1.06296"><path d="M247.55227,186.65033c-0.57634,0.32734 -1.41445,0.14415 -1.97236,-0.32831c-1.01246,-0.85775 -1.73367,-2.13197 -2.32867,-3.36248c-0.55718,-1.13204 -0.97906,-2.38196 -1.0709,-3.60462c-0.05967,-0.71458 0.03045,-1.62194 0.60212,-1.91195c0.55105,-0.27896 1.23739,-0.097 1.93332,0.50881c0.88427,0.76419 1.66492,1.82503 2.36797,3.18225c0.70305,1.35698 1.1377,2.53961 1.23347,3.76988c0.06458,0.8111 -0.25293,1.50996 -0.76493,1.74644z" fill="url(#color-4)" stroke-linecap="round"/><path d="M247.11419,185.96227c-0.30352,0.15716 -0.65467,0.15053 -0.97759,0.01375c-0.32316,-0.13653 -0.61784,-0.40321 -0.80717,-0.76886c-0.18957,-0.36589 -0.23721,-0.76026 -0.16256,-1.10282c0.07465,-0.34256 0.27184,-0.63356 0.57511,-0.79071c0.30352,-0.15716 0.65491,-0.15053 0.97783,-0.01375c0.32292,0.13653 0.61758,0.40321 0.80717,0.76886c0.18933,0.36589 0.23721,0.76026 0.16256,1.10282c-0.0749,0.34256 -0.27184,0.63356 -0.57536,0.79071z" fill="#ffffff" stroke-linecap="butt"/></g></g></g></g></svg>