<svg version="1.1" xmlns="http://www.w3.org/2000/svg" xmlns:xlink="http://www.w3.org/1999/xlink" width="437" height="90.79587" viewBox="0,0,437,90.79587"><defs><linearGradient x1="240" y1="135.60206" x2="240" y2="224.39795" gradientUnits="userSpaceOnUse" id="color-1"><stop offset="0" stop-color="#ffffff"/><stop offset="1" stop-color="#d8d8d8"/></linearGradient><linearGradient x1="240" y1="135.60208" x2="240" y2="224.39795" gradientUnits="userSpaceOnUse" id="color-2"><stop offset="0" stop-color="#343434"/><stop offset="1" stop-color="#090909"/></linearGradient><radialGradient cx="443.8065" cy="206.54466" r="17.9081" gradientUnits="userSpaceOnUse" id="color-3"><stop offset="0" stop-color="#ffffff"/><stop offset="1" stop-color="#e5e5e5"/></radialGradient></defs><g transform="translate(-21.5,-134.60208)"><g data-paper-data="{&quot;isPaintingLayer&quot;:true}" fill-rule="nonzero" stroke-linejoin="miter" stroke-miterlimit="10" stroke-dasharray="" stroke-dashoffset="0" style="mix-blend-mode: normal"><path d="M22.5,224.39795v-88.79587h435v88.79587z" data-paper-data="{&quot;origPos&quot;:null}" fill="url(#color-1)" stroke="url(#color-2)" stroke-width="2" stroke-linecap="butt"/><g data-paper-data="{&quot;origPos&quot;:null}"><path d="M444.3058,202.09868c2.5136,0 4.7909,1.0212 6.4406,2.6702c1.6489,1.6496 2.6702,3.9269 2.6702,6.4405c0,2.5136 -1.0213,4.791 -2.6702,6.4406c-1.6497,1.649 -3.927,2.6702 -6.4406,2.6702c-2.5136,0 -4.7909,-1.0212 -6.4406,-2.6702c-1.6489,-1.6496 -2.6701,-3.927 -2.6701,-6.4406c0,-2.5136 1.0212,-4.7909 2.6701,-6.4405c1.6497,-1.649 3.927,-2.6702 6.4406,-2.6702z" fill="url(#color-3)" stroke="#000000" stroke-width="2.0785" stroke-linecap="butt"/><path d="M441.2734,206.54886l5.6119,0.4503l1.7321,3.187l-3.6374,2.9446l3.3603,-0.5197l0.7967,3.4642l-7.4479,-0.0693l-1.9053,-2.4249l4.6766,-3.3256l-4.5727,-0.3464z" fill="#000000" stroke="none" stroke-width="0.69283" stroke-linecap="round"/></g><g data-paper-data="{&quot;origPos&quot;:null}" stroke="none" stroke-width="0.22329" stroke-linecap="butt"><path d="M45.7051,147.03126l0.0557,0.1216c-0.1612,2.3688 -0.2819,3.5537 -0.3621,3.5537c-0.0185,0 -0.0379,0 -0.0565,0c-2.5613,-0.2051 -3.9875,-0.3258 -4.2795,-0.3629v8.2527c0,0.1485 -0.5831,0.2481 -1.7486,0.297c0,0.0439 -0.6608,0.1241 -1.9824,0.2422c-0.0211,-0.0405 -0.043,-0.081 -0.0649,-0.1207c0.2852,-4.9251 0.4683,-7.834 0.5494,-8.7269c-0.9807,0.1553 -2.4255,0.3536 -4.3361,0.595c-0.5637,-2.1081 -0.8464,-3.1909 -0.8464,-3.2466c0,-0.081 4.3571,-0.2818 13.0714,-0.6051z" data-paper-data="{&quot;origPos&quot;:null}" fill="#000000"/><path d="M53.4185,149.84156c1.2279,0.6878 1.9815,1.135 2.26,1.3393c-1.0043,2.0904 -1.5444,3.1537 -1.6187,3.1917c-0.0219,0 -0.043,0 -0.0649,0l-1.3301,-1.1638c-0.5249,0.6388 -1.0489,1.2777 -1.573,1.9165c0.0118,0.2228 0.1654,3.2668 0.1772,3.4896c-0.081,0.0743 -1.1072,0.2481 -3.0794,0.5207c-0.0743,-0.5333 -0.5587,-3.1478 -1.4516,-7.8433c0,-0.0743 1.2963,-0.2667 3.8888,-0.5764c0.0439,0.0498 0.1612,0.6295 0.3536,1.7401c1.5503,-1.7435 2.363,-2.6144 2.4372,-2.6144z" data-paper-data="{&quot;origPos&quot;:null}" fill="#000000"/><path d="M60.6939,149.86008c0.086,0.0119 0.1299,0.0557 0.1299,0.13c-0.0228,0.1266 -0.9452,5.2323 -0.9679,5.3589c1.8481,-0.2169 2.7731,-0.3908 2.7731,-0.5207c0.3468,-2.1461 0.5856,-3.3495 0.7156,-3.6103c2.2887,0.4718 3.5571,0.7511 3.8052,0.8372c-1.3334,4.5841 -2.065,6.9716 -2.195,7.164c-2.3326,1.6372 -3.644,2.5427 -3.936,2.7165c-0.087,0 -1.5722,-0.3654 -4.4559,-1.0979c0,-0.0211 0,-0.043 0,-0.065c0.7629,-1.6802 1.2372,-2.5208 1.4228,-2.5208l2.8381,1.4229c0.4524,-0.7747 0.9055,-1.5503 1.3579,-2.3258c-1.2212,0.3038 -1.9317,0.4557 -2.1301,0.4557c-1.2068,-0.6262 -2.4127,-1.2524 -3.6195,-1.8786c0.4405,-4.044 0.7198,-6.0661 0.838,-6.0661c0.0076,0 3.4153,0 3.4238,0z" data-paper-data="{&quot;origPos&quot;:null}" fill="#000000"/><path d="M80.2963,149.84156c1.7858,1.141 2.7723,1.7984 2.958,1.9722c-0.6448,1.433 -1.0136,2.1486 -1.1064,2.1486l-3.3866,-1.9629c-0.0406,0 -0.0811,0 -0.1216,0c0,0.0624 -0.1451,0.4093 -0.4371,1.0422c3.1199,1.6811 4.6795,2.5427 4.6795,2.5866c-0.8743,2.022 -1.3672,3.0887 -1.4785,3.2001l-5.2939,0.3072c-2.0592,-1.3646 -3.1664,-2.0836 -3.3217,-2.1587c0,-0.0186 0,-0.0371 0,-0.0557c0,-0.1553 0.3072,-0.8524 0.9216,-2.0929l4.1301,2.1486l0.3072,-1.2279c-2.5554,-1.1477 -4.0753,-1.8634 -4.5589,-2.1495c0,-0.043 0,-0.086 0,-0.1299c0,-0.2355 0.4929,-1.2811 1.4794,-3.1352z" data-paper-data="{&quot;origPos&quot;:null}" fill="#000000"/><path d="M88.2604,149.84156c0.0801,0.1055 0.4987,1.9039 1.2557,5.396c0.022,0 0.0431,0 0.065,0c0,-0.081 0.4591,-0.7908 1.3773,-2.1309c0.3839,0.2608 1.1165,0.8253 2.195,1.6937c0.0439,0 0.0869,0 0.1308,0c0,-0.0219 0,-0.0439 0,-0.0658c0.1671,-2.4187 0.2911,-3.758 0.3722,-4.0187c2.5553,0.1299 3.833,0.2354 3.833,0.3164c-1.1722,4.7133 -1.7992,7.1632 -1.8794,7.3497c-0.3907,0.043 -1.2093,0.1671 -2.4566,0.3722c-1.0228,-1.6068 -1.6094,-2.4626 -1.7579,-2.5681c-0.6701,1.7866 -1.0886,2.7698 -1.2566,2.9495c-0.8371,0 -1.6743,0 -2.5115,0c-0.1553,-0.0498 -0.8869,-1.6625 -2.1958,-4.8381c-0.8372,-1.774 -1.2558,-2.7352 -1.2558,-2.8837c0,-0.1367 1.3612,-0.6608 4.0846,-1.5722z" data-paper-data="{&quot;origPos&quot;:null}" fill="#000000"/><path d="M99.7874,146.11056l3.6558,0.5764c-0.459,1.7554 -0.7595,2.633 -0.9021,2.633c-1.9233,-0.1299 -2.8845,-0.2574 -2.8845,-0.3814c0,-0.8988 0,-1.7984 0,-2.698c0.0186,-0.0869 0.0625,-0.13 0.1308,-0.13zM98.7637,150.53866c0.0186,0 0.0372,0 0.0557,0c2.828,0.5156 4.2424,0.816 4.2424,0.9029c-0.8127,4.6019 -1.3055,7.1666 -1.4794,7.694c-0.9831,0 -1.9663,0 -2.9486,0c-0.0869,0 -0.1308,-0.043 -0.1308,-0.1299c-0.0144,0.4725 0.2751,-8.9396 0.2607,-8.467z" data-paper-data="{&quot;origPos&quot;:null}" fill="#000000"/><path d="M106.4948,147.03126c1.3647,0.2422 2.7293,0.4844 4.0939,0.7258c-0.0042,0.0363 -0.3865,3.0719 -0.3908,3.1073c0.8127,-0.043 1.4077,-0.065 1.7866,-0.065c0.1983,0 0.3967,0 0.595,0l0.1299,-0.065l0.0659,0.13c-0.1308,1.8862 -0.2422,2.9461 -0.3351,3.1824l-0.1308,-0.0751c-0.0928,0 -0.93,-0.043 -2.5115,-0.13c-0.0869,1.4575 -0.1519,3.2002 -0.1958,5.2289c-0.043,0.0211 -0.0869,0.0431 -0.1299,0.065c-1.9976,-0.1299 -3.1883,-0.2422 -3.5723,-0.335l0.065,-0.2608c0,-0.5392 0.0869,-2.2136 0.2607,-5.0238c-1.6751,-0.0928 -2.5123,-0.2042 -2.5123,-0.335c0.0869,-2.071 0.1983,-3.1073 0.335,-3.1073c0.8153,0.1552 1.6313,0.3105 2.4465,0.465c0,-0.2667 0,-0.5334 0,-0.8001c0,-0.6506 -0.0244,-1.5317 -0.0742,-2.6414c0.0498,0 0.0742,-0.022 0.0742,-0.0659z" data-paper-data="{&quot;origPos&quot;:null}" fill="#000000"/><path d="M117.4176,149.85087c2.7968,0.5266 4.261,0.8278 4.3909,0.9021c0,0.0371 0,0.0743 0,0.1114c-0.6017,1.6996 -0.9021,2.5807 -0.9021,2.6423c-0.0186,0 -0.0371,0 -0.0557,0c-0.1553,0 -0.9055,-0.2414 -2.2516,-0.7258c-0.7502,1.2592 -1.1258,1.9326 -1.1258,2.0195l1.8609,1.8043c1.4389,-1.3519 2.1705,-2.0279 2.195,-2.0279c1.1233,1.4701 1.6845,2.2946 1.6845,2.4752c-0.6144,0.3527 -1.6845,1.0481 -3.2095,2.0836c-2.9528,-0.6388 -4.547,-0.9958 -4.7824,-1.0701l-1.4608,-4.7259z" data-paper-data="{&quot;origPos&quot;:null}" fill="#000000"/><path d="M128.3118,147.03126c0.0371,0.0557 0.2109,1.7554 0.5215,5.099c2.3933,-0.7325 3.6685,-1.098 3.8238,-1.098l2.3722,1.6187c-0.3848,3.5351 -0.6363,5.601 -0.7536,6.196l-3.2938,0.1114c0,-0.0371 -0.0219,-0.0557 -0.065,-0.0557l0.065,-0.2321c0,-0.503 0.0743,-2.0288 0.2236,-4.5774c-0.9055,-0.0371 -1.5789,-0.0557 -2.0194,-0.0557c-0.0768,0 -0.1545,0 -0.2321,0c0.2667,2.8339 0.4,4.3783 0.4,4.6331l-3.1259,0.465c-0.1181,-0.3966 -0.8127,-4.1031 -2.0844,-11.1177c0,-0.1983 0.4844,-0.3536 1.4515,-0.465c1.222,-0.3477 2.1275,-0.5216 2.7166,-0.5216z" data-paper-data="{&quot;origPos&quot;:null}" fill="#000000"/><path d="M137.1872,146.11056c1.2195,0.1924 2.4381,0.3849 3.6567,0.5764c-0.4591,1.7554 -0.7595,2.633 -0.9021,2.633c-1.9233,-0.1299 -2.8845,-0.2574 -2.8845,-0.3814c0,-0.8988 0,-1.7984 0,-2.698c0.0185,-0.0869 0.0624,-0.13 0.1299,-0.13zM136.1644,150.53866c0.0186,0 0.0371,0 0.0557,0c2.8279,0.5156 4.2424,0.816 4.2424,0.9029c-0.8127,4.6019 -1.3056,7.1666 -1.4794,7.694c-0.9832,0 -1.9664,0 -2.9495,0c-0.0869,0 -0.13,-0.043 -0.13,-0.1299z" data-paper-data="{&quot;origPos&quot;:null}" fill="#000000"/><path d="M149.375,149.84156l3.0981,2.13c-0.2169,3.5352 -0.3688,5.6011 -0.4558,6.196c-0.3595,0.0439 -1.454,0.1089 -3.2836,0.1958l-0.0659,-0.1299c-0.108,-1.6566 -0.2168,-3.3124 -0.3257,-4.9682c-0.043,-0.0219 -0.0861,-0.0438 -0.13,-0.0658c-1.1848,0.2549 -2.0001,0.4473 -2.4465,0.5773c0.1241,2.1148 0.1857,3.644 0.1857,4.5866c-1.8482,0.5148 -2.8592,0.7722 -3.0331,0.7722c-1.2034,-5.2972 -1.8042,-8.094 -1.8042,-8.3919c2.6169,-0.3409 4.0372,-0.5114 4.2609,-0.5114c0,0.0211 0,0.0431 0,0.065c0.043,0.0312 0.108,0.676 0.1949,1.9351c2.4001,-1.5942 3.6685,-2.3908 3.8052,-2.3908z" data-paper-data="{&quot;origPos&quot;:null}" fill="#000000"/><path d="M160.3721,149.86936c2.6356,0.0684 3.9538,0.1832 3.9538,0.3443c0.4531,6.8661 0.6793,10.5186 0.6793,10.9591c-1.9975,1.2718 -3.4271,2.1343 -4.2888,2.5866c-3.0389,-0.9553 -4.5588,-1.5013 -4.5588,-1.6372c0.9798,-1.4329 1.5477,-2.1587 1.7022,-2.1773c1.6566,0.8186 2.6085,1.2279 2.8566,1.2279c0.2946,-0.3873 0.5891,-0.7747 0.8836,-1.1629c-0.2354,-0.9612 -0.3941,-1.5283 -0.4743,-1.7022c-0.1367,0 -1.8178,0.2726 -5.0424,0.8186c-1.768,-2.8718 -2.6516,-4.3444 -2.6516,-4.4195c1.5258,-2.4373 2.4558,-3.8669 2.7909,-4.2888c0.0219,0 0.0439,0 0.065,0c0.1797,0 1.5198,0.2945 4.0195,0.8836c0,-0.0676 0,-0.1359 0,-0.2043c0,-0.2422 -0.0219,-0.6295 -0.065,-1.1629zM157.4505,153.81388c0.0869,0.1924 0.3603,1.2161 0.8186,3.0702c0.5772,-0.1857 1.4608,-0.5275 2.6516,-1.0237c-0.2296,-1.1165 -0.3444,-1.752 -0.3444,-1.9073l-0.3342,-0.0649c-0.1367,0 -0.2734,0 -0.4093,0c-0.5215,0 -1.3156,-0.0245 -2.3823,-0.0743z" data-paper-data="{&quot;origPos&quot;:null}" fill="#000000"/><path d="M175.0579,147.03126l0.0649,0.1216c0,0.3536 0.0811,1.7207 0.2422,4.1022c2.2204,-0.7063 3.4635,-1.0785 3.731,-1.1165l3.3487,3.601c-1.4077,3.1571 -2.174,4.8314 -2.298,5.0239c-0.3908,-0.0431 -1.817,-0.1055 -4.2795,-0.1866c0,0.146 0,0.292 0,0.438c0,0.0802 -0.0431,0.1207 -0.13,0.1207c-1.2,0 -2.4009,0 -3.601,0c-0.1299,0 -0.378,-1.8608 -0.7443,-5.5825c-0.0802,-0.3156 -0.3063,-2.1798 -0.6785,-5.5909c2.1081,-0.4962 3.5571,-0.8068 4.3445,-0.9309zM175.6815,153.86027l0.2414,2.298c0.6236,0 1.2464,0 1.8701,0l0.6793,-2.6052c-1.8608,0.1612 -2.7908,0.2642 -2.7908,0.3072z" data-paper-data="{&quot;origPos&quot;:null}" fill="#000000"/><path d="M187.6828,149.86008c0.087,0.0119 0.13,0.0557 0.13,0.13l-0.9671,5.3589c1.8482,-0.2169 2.7722,-0.3908 2.7722,-0.5207c0.3477,-2.1461 0.5866,-3.3495 0.7165,-3.6103c2.2887,0.4718 3.5571,0.7511 3.8052,0.8372c-1.3333,4.5841 -2.0659,6.9716 -2.1958,7.164c-2.3318,1.6372 -3.6441,2.5427 -3.9352,2.7165c-0.0869,0 -1.5722,-0.3654 -4.4567,-1.0979c0,-0.0211 0,-0.043 0,-0.065c0.7629,-1.6802 1.2372,-2.5208 1.4237,-2.5208c0.946,0.4743 1.892,0.9486 2.8372,1.4229c0.4532,-0.7747 0.9055,-1.5503 1.3587,-2.3258c-1.222,0.3038 -1.9326,0.4557 -2.1309,0.4557c-1.2059,-0.6262 -2.4127,-1.2524 -3.6187,-1.8786c0.4405,-4.044 0.719,-6.0661 0.8372,-6.0661c1.1409,0 2.2828,0 3.4237,0z" data-paper-data="{&quot;origPos&quot;:null}" fill="#000000"/><path d="M204.4481,149.85087c0.1924,0.7932 0.3257,1.2836 0.4,1.4701c2.741,-0.6271 4.1892,-0.9402 4.3445,-0.9402c1.8667,2.6854 2.8001,4.0871 2.8001,4.2053l-2.1394,4.5402l-4.6052,-0.735c0,0.0464 0,0.0928 0,0.1392c0.3595,2.7605 0.5393,4.2272 0.5393,4.4011c-0.0431,0 -0.065,0.0219 -0.065,0.0649c-0.4465,-0.043 -0.7815,-0.0649 -1.0051,-0.0649c-0.2667,0 -0.5334,0 -0.8001,0c-0.465,0 -1.1781,-0.022 -2.1393,-0.065c-0.0869,-0.2608 -0.7536,-4.2213 -2.0001,-11.8807c0.2102,-0.0869 1.7672,-0.4658 4.6703,-1.135zM204.7831,153.65606c0.1241,1.4262 0.2355,2.1393 0.335,2.1393c1.271,0.4405 2.0499,0.6608 2.3351,0.6608c0.2448,-1.0667 0.4895,-2.1334 0.7351,-3.2001c-0.0219,0 -0.0439,0 -0.0658,0c-0.7258,0.043 -1.8389,0.1763 -3.3394,0.4z" data-paper-data="{&quot;origPos&quot;:null}" fill="#000000"/><path d="M219.631,149.84156c1.2287,0.6878 1.9823,1.135 2.2608,1.3393c-1.0043,2.0904 -1.5444,3.1537 -1.6186,3.1917c-0.022,0 -0.0431,0 -0.065,0l-1.3309,-1.1638l-1.5722,1.9165c0.0042,0.0709 0.1739,3.4187 0.1772,3.4896c-0.081,0.0743 -1.1072,0.2481 -3.0794,0.5207c-0.0743,-0.5333 -0.5587,-3.1478 -1.4515,-7.8433c0,-0.0743 1.2962,-0.2667 3.8887,-0.5764c0.0439,0.0498 0.1612,0.6295 0.3536,1.7401c1.5503,-1.7435 2.363,-2.6144 2.4373,-2.6144z" data-paper-data="{&quot;origPos&quot;:null}" fill="#000000"/><path d="M227.9022,149.85087c2.8094,1.4447 4.3664,2.2887 4.6702,2.53c-0.4026,1.8862 -0.6414,2.8567 -0.7165,2.9124c-1.9596,0 -3.92,0 -5.8795,0c0,0.0337 0,0.0683 0,0.1021l1.6464,2.038l2.5866,-1.3215c0.2541,0.4405 0.6203,1.2093 1.098,2.3072c-0.2237,0.0743 -1.8516,0.3131 -4.8846,0.7165c-2.5115,-1.6557 -3.7774,-2.5182 -3.7959,-2.5866c0.4033,-3.2187 0.6422,-4.828 0.7164,-4.828c2.6238,-1.1165 4.1437,-1.7402 4.5589,-1.8701zM227.2971,152.10238c-0.049,0.1241 -0.3781,0.6169 -0.9857,1.4786c0,0.2607 0.3654,0.3907 1.0979,0.3907c0,0.038 0.53,0.1274 1.5908,0.2701c0.2912,-0.4034 0.4372,-0.6389 0.4372,-0.7072c-0.0929,-0.552 -0.2946,-0.8279 -0.6051,-0.8279z" data-paper-data="{&quot;origPos&quot;:null}" fill="#000000"/><path d="M240.9272,149.84156c1.7865,1.141 2.7722,1.7984 2.9587,1.9722c-0.6456,1.433 -1.0144,2.1486 -1.1072,2.1486l-3.3866,-1.9629c-0.0405,0 -0.0802,0 -0.1207,0c0,0.0624 -0.146,0.4093 -0.4371,1.0422c3.1191,1.6811 4.6795,2.5427 4.6795,2.5866c-0.8743,2.022 -1.368,3.0887 -1.4794,3.2001l-5.2939,0.3072c-2.0592,-1.3646 -3.1664,-2.0836 -3.3217,-2.1587c0,-0.0186 0,-0.0371 0,-0.0557c0,-0.1553 0.3072,-0.8524 0.9216,-2.0929l4.131,2.1486c0.1021,-0.4093 0.2042,-0.8186 0.3063,-1.2279c-2.5554,-1.1477 -4.0744,-1.8634 -4.558,-2.1495c0,-0.043 0,-0.086 0,-0.1299c0,-0.2355 0.4929,-1.2811 1.4786,-3.1352z" data-paper-data="{&quot;origPos&quot;:null}" fill="#000000"/><path d="M252.315,149.84156c1.7857,1.141 2.7722,1.7984 2.9587,1.9722c-0.6456,1.433 -1.0144,2.1486 -1.1072,2.1486c-1.1291,-0.654 -2.2583,-1.3081 -3.3866,-1.9629c-0.0405,0 -0.081,0 -0.1215,0c0,0.0624 -0.1452,0.4093 -0.4372,1.0422c3.12,1.6811 4.6804,2.5427 4.6804,2.5866c-0.8752,2.022 -1.368,3.0887 -1.4794,3.2001c-1.7647,0.1021 -3.5293,0.2051 -5.2939,0.3072c-2.0592,-1.3646 -3.1664,-2.0836 -3.3217,-2.1587c0,-0.0186 0,-0.0371 0,-0.0557c0,-0.1553 0.3072,-0.8524 0.9216,-2.0929c1.3764,0.7165 2.7537,1.4321 4.1301,2.1486l0.3072,-1.2279c-2.5554,-1.1477 -4.0744,-1.8634 -4.5588,-2.1495c0,-0.043 0,-0.086 0,-0.1299c0,-0.2355 0.4937,-1.2811 1.4794,-3.1352z" data-paper-data="{&quot;origPos&quot;:null}" fill="#000000"/><path d="M257.478,146.11056c1.2186,0.1924 2.4381,0.3849 3.6567,0.5764c-0.4591,1.7554 -0.7595,2.633 -0.903,2.633c-1.9224,-0.1299 -2.8836,-0.2574 -2.8836,-0.3814c0,0.0304 0,-2.7284 0,-2.698c0.0185,-0.0869 0.0616,-0.13 0.1299,-0.13zM256.4552,150.53866c0.0186,0 0.0371,0 0.0557,0c2.828,0.5156 4.2424,0.816 4.2424,0.9029c-0.8127,4.6019 -1.3056,7.1666 -1.4794,7.694c-0.9832,0 -1.9663,0 -2.9495,0c-0.0869,0 -0.13,-0.043 -0.13,-0.1299c-0.0067,0.205 0.2667,-8.6721 0.2608,-8.467z" data-paper-data="{&quot;origPos&quot;:null}" fill="#000000"/><path d="M269.6659,149.84156l3.098,2.13c-0.2169,3.5352 -0.3688,5.6011 -0.4557,6.196c-0.3595,0.0439 -1.4541,0.1089 -3.2846,0.1958l-0.0649,-0.1299c-0.054,-0.8288 -0.2709,-4.1403 -0.3258,-4.9682l-0.13,-0.0658c-1.1848,0.2549 -2,0.4473 -2.4465,0.5773c0.1241,2.1148 0.1857,3.644 0.1857,4.5866c-1.8482,0.5148 -2.8592,0.7722 -3.033,0.7722c-1.2035,-5.2972 -1.8043,-8.094 -1.8043,-8.3919c2.617,-0.3409 4.0373,-0.5114 4.2609,-0.5114c0,0.0211 0,0.0431 0,0.065c0.043,0.0312 0.108,0.676 0.1949,1.9351c2.4001,-1.5942 3.6685,-2.3908 3.8053,-2.3908z" data-paper-data="{&quot;origPos&quot;:null}" fill="#000000"/><path d="M280.6629,149.86936c2.6356,0.0684 3.9538,0.1832 3.9538,0.3443c0.4532,6.8661 0.6793,10.5186 0.6793,10.9591c-1.9975,1.2718 -3.4271,2.1343 -4.2888,2.5866c-3.0389,-0.9553 -4.5588,-1.5013 -4.5588,-1.6372c0.9798,-1.4329 1.5478,-2.1587 1.7022,-2.1773c1.6566,0.8186 2.6085,1.2279 2.8566,1.2279c0.2946,-0.3873 0.5891,-0.7747 0.8836,-1.1629c-0.2354,-0.9612 -0.3941,-1.5283 -0.4743,-1.7022c-0.1367,0 -1.8178,0.2726 -5.0424,0.8186c-1.768,-2.8718 -2.6515,-4.3444 -2.6515,-4.4195c1.5258,-2.4373 2.4558,-3.8669 2.7908,-4.2888c0.0219,0 0.0439,0 0.065,0c0.1797,0 1.5199,0.2945 4.0195,0.8836v-0.2043c0,-0.2422 -0.0219,-0.6295 -0.0649,-1.1629zM277.7413,153.81388c0.0869,0.1924 0.3603,1.2161 0.8186,3.0702c0.5772,-0.1857 1.4608,-0.5275 2.6516,-1.0237c-0.2296,-1.1165 -0.3443,-1.752 -0.3443,-1.9073l-0.3342,-0.0649c-0.1368,0 -0.2735,0 -0.4102,0c-0.5207,0 -1.3148,-0.0245 -2.3815,-0.0743z" data-paper-data="{&quot;origPos&quot;:null}" fill="#000000"/><path d="M298.5354,149.84156c1.7857,1.141 2.7722,1.7984 2.9579,1.9722c-0.6448,1.433 -1.0135,2.1486 -1.1072,2.1486c-1.1283,-0.654 -2.2575,-1.3081 -3.3858,-1.9629c-0.0405,0 -0.081,0 -0.1215,0c0,0.0624 -0.1452,0.4093 -0.4372,1.0422c3.12,1.6811 4.6795,2.5427 4.6795,2.5866c-0.8743,2.022 -1.3671,3.0887 -1.4794,3.2001l-5.293,0.3072c-2.0591,-1.3646 -3.1664,-2.0836 -3.3216,-2.1587c0,-0.0186 0,-0.0371 0,-0.0557c0,-0.1553 0.3071,-0.8524 0.9207,-2.0929l4.1309,2.1486c0.1021,-0.4093 0.2051,-0.8186 0.3072,-1.2279c-2.5554,-1.1477 -4.0753,-1.8634 -4.5588,-2.1495c0,-0.043 0,-0.086 0,-0.1299c0,-0.2355 0.4928,-1.2811 1.4794,-3.1352z" data-paper-data="{&quot;origPos&quot;:null}" fill="#2b70c2"/><path d="M307.0851,149.85087c0.1924,0.7932 0.3257,1.2836 0.4,1.4701c2.741,-0.6271 4.19,-0.9402 4.3445,-0.9402c1.8676,2.6854 2.8009,4.0871 2.8009,4.2053c-0.2143,0.454 -1.9258,4.0862 -2.1401,4.5402l-4.6053,-0.735c0,0.0464 0,0.0928 0,0.1392c0.3595,2.7605 0.5393,4.2272 0.5393,4.4011c-0.0431,0 -0.065,0.0219 -0.065,0.0649c-0.4464,-0.043 -0.7815,-0.0649 -1.0043,-0.0649c-0.2666,0 -0.5333,0 -0.8008,0c-0.465,0 -1.1781,-0.022 -2.1394,-0.065c-0.0869,-0.2608 -0.7536,-4.2213 -2,-11.8807c0.2109,-0.0869 1.7671,-0.4658 4.6702,-1.135zM307.4201,153.65606c0.1241,1.4262 0.2355,2.1393 0.335,2.1393c1.271,0.4405 2.0499,0.6608 2.3352,0.6608l0.735,-3.2001c-0.0219,0 -0.0439,0 -0.0658,0c-0.7249,0.043 -1.8389,0.1763 -3.3394,0.4z" data-paper-data="{&quot;origPos&quot;:null}" fill="#2b70c2"/><path d="M317.0028,149.84156c3.6837,0.508 5.5259,0.8211 5.5259,0.9393c1.4516,1.2464 2.1773,1.9131 2.1773,2c-0.589,1.8423 -0.9241,2.9622 -1.0051,3.3588c0.5899,1.3089 0.9241,2.0904 1.0051,2.3444c0,0.0743 -0.9612,0.2734 -2.8845,0.5958c-0.0244,-0.1055 -0.2008,-0.3409 -0.5299,-0.7072c-2.655,0.5089 -4.0846,0.7629 -4.2888,0.7629l-1.4144,-3.8238c1.0388,-0.5485 2.0777,-1.0979 3.1166,-1.6464c0.5029,0.0801 1.2869,0.1206 2.3536,0.1206c0,-0.1367 0.0186,-0.5485 0.0566,-1.2371c-0.1806,0 -1.7866,0.1173 -4.8196,0.3536l-0.0557,-0.1216c0.4219,-1.9595 0.676,-2.9393 0.7629,-2.9393zM318.9379,155.31176c0,0.0684 0.1983,0.7942 0.5949,2.1773c0.0186,0 0.038,0 0.0566,0c0.7814,-0.5088 1.1722,-0.8439 1.1722,-1.0051c-0.0026,0.0228 0.1232,-1.0177 0.1207,-0.9958c-0.1486,0 -0.7975,-0.0582 -1.9444,-0.1764z" data-paper-data="{&quot;origPos&quot;:null}" fill="#2b70c2"/><path d="M329.2556,149.85087c2.7967,0.5266 4.2609,0.8278 4.3909,0.9021v0.1114c-0.6017,1.6996 -0.9022,2.5807 -0.9022,2.6423c-0.0185,0 -0.0371,0 -0.0557,0c-0.1552,0 -0.9055,-0.2414 -2.2515,-0.7258c-0.7503,1.2592 -1.1258,1.9326 -1.1258,2.0195l1.8608,1.8043c1.4389,-1.3519 2.1706,-2.0279 2.1959,-2.0279c1.1224,1.4701 1.6836,2.2946 1.6836,2.4752c-0.6144,0.3527 -1.6836,1.0481 -3.2094,2.0836c-2.9529,-0.6388 -4.547,-0.9958 -4.7825,-1.0701c0.081,0.2625 -1.5418,-4.9883 -1.4608,-4.7259z" data-paper-data="{&quot;origPos&quot;:null}" fill="#2b70c2"/><path d="M341.2569,149.85087c2.8102,1.4447 4.3664,2.2887 4.6702,2.53c-0.4025,1.8862 -0.6413,2.8567 -0.7156,2.9124c-1.9604,0 -3.92,0 -5.8804,0c0,0.0337 0,0.0683 0,0.1021l1.6465,2.038l2.5866,-1.3215c0.2548,0.4405 0.6203,1.2093 1.0979,2.3072c-0.2236,0.0743 -1.8515,0.3131 -4.8846,0.7165c-2.5115,-1.6557 -3.7773,-2.5182 -3.7959,-2.5866c0.4034,-3.2187 0.6422,-4.828 0.7165,-4.828c2.6237,-1.1165 4.1436,-1.7402 4.5588,-1.8701zM340.6527,152.10238c-0.0498,0.1241 -0.379,0.6169 -0.9866,1.4786c0,0.2607 0.3663,0.3907 1.098,0.3907c0,0.038 0.5299,0.1274 1.5907,0.2701c0.2912,-0.4034 0.4372,-0.6389 0.4372,-0.7072c-0.0928,-0.552 -0.2945,-0.8279 -0.6043,-0.8279c-0.5122,-0.2017 -1.0236,-0.4034 -1.535,-0.6043z" data-paper-data="{&quot;origPos&quot;:null}" fill="#2b70c2"/><path d="M348.0673,157.12626c1.687,0.1983 2.5334,0.3097 2.5402,0.335c-1.0237,2.406 -1.5975,3.6719 -1.7216,3.7951c-0.8431,-0.1047 -1.265,-0.1916 -1.265,-0.2599c0.2228,-2.5807 0.3595,-3.8702 0.4093,-3.8702z" data-paper-data="{&quot;origPos&quot;:null}" fill="#000000"/><path d="M36.8018,164.12567c0.0371,0.0557 0.2109,1.7553 0.5207,5.0989c2.3942,-0.7325 3.6693,-1.0979 3.8237,-1.0979c0.7916,0.5393 1.5824,1.0785 2.3731,1.6186c-0.3848,3.5352 -0.6363,5.6011 -0.7536,6.1961l-3.2938,0.1114c0,-0.0372 -0.0219,-0.0557 -0.065,-0.0557c0.022,-0.0777 0.0431,-0.1553 0.065,-0.2321c0,-0.503 0.0743,-2.0288 0.2237,-4.5774c-0.9056,-0.0372 -1.579,-0.0557 -2.0195,-0.0557c-0.0777,0 -0.1545,0 -0.2321,0c0.2667,2.8338 0.4,4.3782 0.4,4.6331c-1.0422,0.1544 -2.0845,0.3097 -3.1259,0.465c-0.1181,-0.3975 -0.8127,-4.1031 -2.0844,-11.1178c0,-0.1983 0.4835,-0.3536 1.4515,-0.465c1.222,-0.3477 2.1275,-0.5215 2.7166,-0.5215z" data-paper-data="{&quot;origPos&quot;:null}" fill="#000000"/><path d="M49.6689,166.94516c2.8094,1.4448 4.3665,2.2887 4.6703,2.5301c-0.4034,1.8853 -0.6422,2.8566 -0.7165,2.9123c-1.9596,0 -3.92,0 -5.8796,0c0,0.0338 0,0.0684 0,0.1021c0.5486,0.6794 1.098,1.3587 1.6465,2.0373c0.8625,-0.4397 1.7241,-0.8803 2.5866,-1.3208c0.254,0.4405 0.6203,1.2094 1.0979,2.3073c-0.2236,0.0743 -1.8515,0.3131 -4.8845,0.7165c-2.5124,-1.6558 -3.7774,-2.5183 -3.796,-2.5866c0.4034,-3.2187 0.6423,-4.8289 0.7165,-4.8289c2.6238,-1.1157 4.1428,-1.7393 4.5588,-1.8693zM49.0639,169.19587c-0.0498,0.1241 -0.3781,0.6178 -0.9857,1.4794c0,0.2608 0.3654,0.3908 1.0971,0.3908c0,0.0371 0.5308,0.1274 1.5916,0.27c0.2911,-0.4034 0.4371,-0.6388 0.4371,-0.7072c-0.0936,-0.5519 -0.2945,-0.8279 -0.6051,-0.8279c-0.5114,-0.2017 -1.0236,-0.4034 -1.535,-0.6051z" data-paper-data="{&quot;origPos&quot;:null}" fill="#000000"/><path d="M63.5682,166.94516c2.7976,0.5266 4.261,0.8279 4.3918,0.9022c0,0.0371 0,0.0742 0,0.1114c-0.6017,1.6996 -0.903,2.5807 -0.903,2.6423c-0.0186,0 -0.0371,0 -0.0557,0c-0.1553,0 -0.9055,-0.2414 -2.2516,-0.7258c-0.7502,1.2591 -1.1258,1.9326 -1.1258,2.0195l1.8609,1.8043c1.4388,-1.352 2.1705,-2.028 2.1958,-2.028c1.1224,1.4701 1.6837,2.2946 1.6837,2.4744c-0.6136,0.3536 -1.6837,1.0481 -3.2095,2.0845c-2.9528,-0.6389 -4.5461,-0.9958 -4.7824,-1.0701c0.2093,0.6751 -1.6693,-5.4011 -1.46,-4.7259c1.2186,-1.163 2.4372,-2.3259 3.6558,-3.4888z" data-paper-data="{&quot;origPos&quot;:null}" fill="#000000"/><path d="M71.7086,166.93586c3.6846,0.5081 5.5269,0.8212 5.5269,0.9393c1.4515,1.2465 2.1764,1.9132 2.1764,2.0001c-0.589,1.8423 -0.9241,2.9621 -1.0043,3.3588c0.5891,1.3089 0.9241,2.0904 1.0043,2.3444c0,0.0742 -0.9612,0.2734 -2.8837,0.5958c-0.0253,-0.1055 -0.2016,-0.3418 -0.5299,-0.7072c-2.655,0.5089 -4.0846,0.7629 -4.2897,0.7629c-0.4709,-1.2743 -0.9426,-2.5495 -1.4135,-3.8238l3.1166,-1.6465c0.5021,0.0802 1.2869,0.1207 2.3537,0.1207c0,-0.1367 0.0185,-0.5494 0.0556,-1.2372c-0.1797,0 -1.7865,0.1173 -4.8196,0.3536c-0.0185,-0.0405 -0.0371,-0.081 -0.0557,-0.1215c0.422,-1.9596 0.676,-2.9394 0.7629,-2.9394zM73.6437,172.40618c0,0.0683 0.1992,0.7941 0.5959,2.1773c0.0185,0 0.0371,0 0.0556,0c0.7815,-0.5089 1.1722,-0.8439 1.1722,-1.0051c-0.0067,0.0548 0.1275,-1.0507 0.1207,-0.9958c-0.1485,0 -0.7966,-0.0591 -1.9444,-0.1764z" data-paper-data="{&quot;origPos&quot;:null}" fill="#000000"/><path d="M88.5667,166.93586c1.033,0.7098 2.0659,1.4203 3.098,2.1301c-0.2169,3.5351 -0.3688,5.601 -0.4557,6.196c-0.3595,0.0439 -1.4541,0.1089 -3.2837,0.1958l-0.0658,-0.1308c-0.108,-1.6558 -0.2169,-3.3115 -0.3249,-4.9673c-0.0439,-0.0219 -0.0869,-0.0439 -0.1308,-0.0658c-1.1849,0.2548 -2.0001,0.4464 -2.4465,0.5772c0.124,2.1149 0.1856,3.644 0.1856,4.5867c-1.8481,0.5148 -2.8591,0.7722 -3.033,0.7722c-1.2026,-5.2973 -1.8043,-8.094 -1.8043,-8.3919c2.617,-0.341 4.0373,-0.5114 4.2609,-0.5114c0,0.0211 0,0.043 0,0.0649c0.0431,0.0304 0.1081,0.676 0.195,1.9351c2.4009,-1.5941 3.6693,-2.3908 3.8052,-2.3908z" data-paper-data="{&quot;origPos&quot;:null}" fill="#000000"/><path d="M106.997,163.04626c1.222,0.1924 2.444,0.3849 3.6659,0.5773c-0.459,1.7612 -0.7595,2.6423 -0.9021,2.6423c-1.9292,-0.1308 -2.8938,-0.2608 -2.8938,-0.3908c0,-0.8996 0,-1.7992 0,-2.698c0.0127,-0.0869 0.0557,-0.1308 0.13,-0.1308zM105.9649,166.97308c1.4794,0.3839 2.9587,0.7688 4.4373,1.1536c-0.8988,5.2095 -1.3925,7.9758 -1.4786,8.2982c-0.1924,0.1739 -1.7772,0.968 -4.7546,2.3824c-2.3689,-1.1165 -3.8271,-1.8237 -4.3723,-2.1216c-0.6017,-2.2946 -0.946,-3.5605 -1.033,-3.7959c0.087,-0.087 1.309,-0.4313 3.666,-1.033c0,0.0439 0.0211,0.0658 0.065,0.0658c-0.0439,0.0861 -0.065,0.1519 -0.065,0.195c0,0.292 -0.0869,1.2996 -0.2608,3.0237c2.0778,-0.2607 3.3217,-0.4312 3.731,-0.5114c0,-0.5587 0,-1.1165 0,-1.6752c0,-0.0987 -0.0186,-0.1856 -0.0566,-0.2599l0.0566,-0.1308c-0.0371,-0.0743 -0.0566,-0.1578 -0.0566,-0.2506c0.0195,0 0.038,0 0.0566,0c-0.0186,-0.0439 -0.0371,-0.087 -0.0566,-0.1308v-0.065c0,-0.0431 0.0195,-0.065 0.0566,-0.065l-0.0566,-0.13c0,-0.0219 0,-0.0439 0,-0.0658c0,-0.043 0.0195,-0.065 0.0566,-0.065l-0.0566,-0.1207v-4.5681c0.0127,-0.0869 0.0532,-0.1299 0.1216,-0.1299z" data-paper-data="{&quot;origPos&quot;:null}" fill="#000000"/><path d="M116.7012,166.93586l0.0649,0.1207c-0.4185,2.2204 -0.8371,4.4407 -1.2557,6.661c0.0211,0 0.043,0 0.065,0l3.2001,-0.9392v-3.7681c0.0127,-0.0869 0.0532,-0.13 0.1215,-0.13c2.406,0.1671 3.7462,0.2507 4.0188,0.2507c0,0.0438 0.0219,0.0649 0.0649,0.0649c0,1.0608 -0.335,3.2601 -1.0042,6.5969c0,0.1924 -0.9612,0.3376 -2.8845,0.4372c-0.0988,-0.1182 -0.1832,-0.3688 -0.2507,-0.7536c-2.4625,0.5021 -3.8676,0.7536 -4.2153,0.7536c-1.9655,-1.4642 -2.9487,-2.2178 -2.9487,-2.2609c0.3351,-4.3976 0.546,-6.6804 0.6321,-6.8475c0.0186,0 0.038,0 0.0566,0c1.5688,-0.043 3.0136,-0.1055 4.3352,-0.1857z" data-paper-data="{&quot;origPos&quot;:null}" fill="#000000"/><path d="M134.2571,166.93586c1.5132,0.6262 2.8187,1.2153 3.9167,1.7672c-0.2853,3.6904 -0.4684,5.7091 -0.5486,6.0568c-1.8237,0.4532 -2.844,0.6793 -3.0617,0.6793c0,-0.8068 -0.0616,-2.3975 -0.1857,-4.7732c-0.6886,0.0684 -1.0329,0.1275 -1.0329,0.1773c0,0.2354 0.0405,1.5815 0.1215,4.0373c0.0371,0 0.0557,0.0219 0.0557,0.0649c0,0.0751 -0.9587,0.2794 -2.8752,0.6144c-0.0802,-0.0996 -0.3258,-1.6093 -0.7351,-4.531c-0.7747,0.1983 -1.1629,0.341 -1.1629,0.4279c0.1241,1.2659 0.2481,2.5309 0.3722,3.7959c-0.0743,0.081 -1.0946,0.4068 -3.0609,0.9773c-1.141,-4.0382 -1.8541,-6.748 -2.1393,-8.1312c2.1519,-0.5333 3.3554,-0.8 3.6094,-0.8c0.2852,1.1283 0.4279,1.7798 0.4279,1.9537c0.0219,0 0.0438,0 0.0649,0c1.0482,-0.968 1.7807,-1.6195 2.1959,-1.9537c0.0219,0 0.0439,0 0.065,0c0.6515,0.4675 1.303,0.9359 1.9536,1.4043c0.022,0 0.0439,0 0.0659,0c1.2211,-1.1781 1.8726,-1.7672 1.9536,-1.7672z" data-paper-data="{&quot;origPos&quot;:null}" fill="#000000"/><path d="M143.7368,166.94516c0.1925,0.7933 0.3258,1.2836 0.4009,1.4693c2.741,-0.6262 4.1892,-0.9393 4.3445,-0.9393c1.8667,2.6853 2.8001,4.0871 2.8001,4.2052l-2.1393,4.5403c-1.5351,-0.2447 -3.0702,-0.4903 -4.6053,-0.7351c0,0.0465 0,0.0929 0,0.1393c0.3595,2.7604 0.5393,4.2272 0.5393,4.401c-0.0439,0 -0.065,0.0211 -0.065,0.065c-0.4464,-0.0439 -0.7815,-0.065 -1.0051,-0.065c-0.2667,0 -0.5334,0 -0.8,0c-0.465,0 -1.1781,-0.0219 -2.1402,-0.065c-0.0861,-0.2607 -0.7536,-4.2212 -2.0001,-11.8806c0.211,-0.0869 1.768,-0.4659 4.6702,-1.1351zM144.0719,170.75038c0.124,1.4262 0.2363,2.1394 0.335,2.1394c1.2718,0.4405 2.0499,0.6607 2.3351,0.6607c0.2456,-1.0667 0.4903,-2.1334 0.7351,-3.2009c-0.0211,0 -0.0431,0 -0.065,0c-0.7258,0.0439 -1.8389,0.1772 -3.3402,0.4008z" data-paper-data="{&quot;origPos&quot;:null}" fill="#000000"/><path d="M161.135,164.12567c0.0371,0.0557 0.211,1.7553 0.5207,5.0989c2.3942,-0.7325 3.6693,-1.0979 3.8238,-1.0979c0.7907,0.5393 1.5815,1.0785 2.3722,1.6186c-0.384,3.5352 -0.6354,5.6011 -0.7536,6.1961l-3.2929,0.1114c0,-0.0372 -0.022,-0.0557 -0.065,-0.0557l0.065,-0.2321c0,-0.503 0.0742,-2.0288 0.2227,-4.5774c-0.9055,-0.0372 -1.5781,-0.0557 -2.0186,-0.0557c-0.0776,0 -0.1553,0 -0.2321,0c0.2667,2.8338 0.4,4.3782 0.4,4.6331c-1.0422,0.1544 -2.0844,0.3097 -3.1267,0.465c-0.1173,-0.3975 -0.8118,-4.1031 -2.0836,-11.1178c0,-0.1983 0.4836,-0.3536 1.4515,-0.465c1.222,-0.3477 2.1276,-0.5215 2.7166,-0.5215z" data-paper-data="{&quot;origPos&quot;:null}" fill="#000000"/><path d="M170.0105,163.20496c1.2186,0.1924 2.4372,0.384 3.6567,0.5764c-0.4591,1.7553 -0.7604,2.633 -0.903,2.633c-1.9225,-0.13 -2.8837,-0.2574 -2.8837,-0.3815c0,-0.8987 0,-1.7983 0,-2.698c0.0186,-0.0869 0.0616,-0.1299 0.13,-0.1299zM168.9868,167.63296c0.0186,0 0.038,0 0.0565,0c2.828,0.5148 4.2424,0.8161 4.2424,0.903c-0.8127,4.6019 -1.3055,7.1665 -1.4794,7.694c-0.9831,0 -1.9663,0 -2.9495,0c-0.0869,0 -0.1299,-0.0439 -0.1299,-0.1308c-0.0169,0.5299 0.2768,-8.9953 0.2599,-8.4662z" data-paper-data="{&quot;origPos&quot;:null}" fill="#000000"/><path d="M180.8767,166.96378c2.6364,0.0675 3.9546,0.1823 3.9546,0.3443c0.4524,6.8653 0.6794,10.5186 0.6794,10.9591c-1.9976,1.2718 -3.4272,2.1334 -4.2897,2.5866c-3.0389,-0.9553 -4.5588,-1.5013 -4.5588,-1.6372c0.9806,-1.433 1.5478,-2.1587 1.703,-2.1773c1.6558,0.8186 2.6077,1.2279 2.8558,1.2279c0.2946,-0.3874 0.5899,-0.7756 0.8845,-1.1629c-0.2363,-0.9612 -0.3941,-1.5292 -0.4752,-1.7022c-0.1358,0 -1.8169,0.2726 -5.0424,0.8186c-1.7671,-2.8719 -2.6515,-4.3453 -2.6515,-4.4196c1.5258,-2.4372 2.4566,-3.8668 2.7916,-4.2888c0.0211,0 0.0431,0 0.065,0c0.1798,0 1.5191,0.2946 4.0187,0.8836c0,-0.0675 0,-0.1359 0,-0.2042c0,-0.2422 -0.0211,-0.6296 -0.0649,-1.1629zM177.9559,170.90817c0.087,0.1925 0.3595,1.2153 0.8186,3.0702c0.5764,-0.1865 1.4608,-0.5274 2.6516,-1.0237c-0.2295,-1.1165 -0.3443,-1.7519 -0.3443,-1.9072c-0.1114,-0.0211 -0.2236,-0.0431 -0.335,-0.065c-0.1368,0 -0.2726,0 -0.4093,0c-0.5207,0 -1.3149,-0.0245 -2.3816,-0.0743z" data-paper-data="{&quot;origPos&quot;:null}" fill="#000000"/><path d="M190.683,164.12567c0.0372,0.0557 0.211,1.7553 0.5207,5.0989c2.3942,-0.7325 3.6694,-1.0979 3.8238,-1.0979l2.3731,1.6186c-0.3848,3.5352 -0.6363,5.6011 -0.7536,6.1961l-3.2938,0.1114c0,-0.0372 -0.022,-0.0557 -0.065,-0.0557c0.0219,-0.0777 0.043,-0.1553 0.065,-0.2321c0,-0.503 0.0742,-2.0288 0.2236,-4.5774c-0.9055,-0.0372 -1.579,-0.0557 -2.0195,-0.0557c-0.0776,0 -0.1544,0 -0.2321,0c0.2667,2.8338 0.4001,4.3782 0.4001,4.6331c-1.0423,0.1544 -2.0845,0.3097 -3.1259,0.465c-0.1182,-0.3975 -0.8127,-4.1031 -2.0845,-11.1178c0,-0.1983 0.4836,-0.3536 1.4516,-0.465c1.2219,-0.3477 2.1275,-0.5215 2.7165,-0.5215z" data-paper-data="{&quot;origPos&quot;:null}" fill="#000000"/><path d="M203.5502,166.94516c2.8094,1.4448 4.3664,2.2887 4.6702,2.5301c-0.4034,1.8853 -0.6422,2.8566 -0.7165,2.9123c-1.9595,0 -3.9199,0 -5.8795,0c0,0.0338 0,0.0684 0,0.1021l1.6465,2.0373c0.8624,-0.4397 1.7241,-0.8803 2.5866,-1.3208c0.254,0.4405 0.6202,1.2094 1.0979,2.3073c-0.2236,0.0743 -1.8515,0.3131 -4.8846,0.7165c-2.5123,-1.6558 -3.7773,-2.5183 -3.7959,-2.5866c0.4034,-3.2187 0.6422,-4.8289 0.7165,-4.8289c2.6237,-1.1157 4.1428,-1.7393 4.5588,-1.8693zM202.9451,169.19587c-0.0498,0.1241 -0.3781,0.6178 -0.9857,1.4794c0,0.2608 0.3654,0.3908 1.0971,0.3908c0,0.0371 0.5308,0.1274 1.5916,0.27c0.2912,-0.4034 0.4372,-0.6388 0.4372,-0.7072c-0.0937,-0.5519 -0.2945,-0.8279 -0.6051,-0.8279c-0.5114,-0.2017 -1.0237,-0.4034 -1.5351,-0.6051z" data-paper-data="{&quot;origPos&quot;:null}" fill="#000000"/><path d="M215.7473,166.93586c1.2279,0.6878 1.9815,1.1351 2.26,1.3393c-1.0042,2.0904 -1.5443,3.1537 -1.6186,3.1909c-0.0211,0 -0.043,0 -0.065,0c-0.443,-0.3874 -0.8869,-0.7747 -1.33,-1.1629c-0.5241,0.6388 -1.0481,1.2776 -1.5722,1.9165c0.0582,1.1629 0.1173,2.3258 0.1764,3.4887c-0.0811,0.0751 -1.1073,0.2481 -3.0795,0.5216c-0.0742,-0.5334 -0.5587,-3.1478 -1.4515,-7.8434c0,-0.0742 1.2962,-0.2667 3.8887,-0.5764c0.0439,0.0498 0.1612,0.6296 0.3536,1.7393c1.5512,-1.7426 2.363,-2.6136 2.4381,-2.6136z" data-paper-data="{&quot;origPos&quot;:null}" fill="#000000"/><path d="M222.8362,164.46996l0.0371,0.0743c-0.6202,5.477 -0.9671,8.3547 -1.0422,8.6341c-1.3148,-0.1241 -2.1452,-0.211 -2.4929,-0.2608c0,-0.0127 0,-0.0245 0,-0.0371c-0.1983,-2.5925 -0.3967,-5.185 -0.5958,-7.7776c0.1493,-0.0497 1.514,-0.2607 4.0938,-0.6329zM219.1517,173.36396c0.0439,0.0254 1.011,0.0996 2.903,0.2237c0.0127,0.0244 0.0245,0.0498 0.0372,0.0742c-0.2912,1.7123 -0.4777,2.5681 -0.5579,2.5681c-0.7198,0 -1.4388,0 -2.1587,0c-0.0743,0 -0.1738,-0.8558 -0.2979,-2.5681c-0.0245,0 -0.0371,-0.0742 -0.0371,-0.2228c0.0742,-0.0253 0.1114,-0.0497 0.1114,-0.0751z" data-paper-data="{&quot;origPos&quot;:null}" fill="#000000"/><path d="M228.828,164.73078c1.7368,0.0742 2.6052,0.1485 2.6052,0.2228c0,0.0126 0,0.0253 0,0.0371c0,0.3477 0.1612,4.0812 0.4835,11.2021c-0.0253,0.0119 -0.0498,0.0245 -0.0742,0.0372c-1.1292,-0.0743 -2.2583,-0.1494 -3.3867,-0.2237c-0.0253,-0.0498 -0.0371,-0.0869 -0.0371,-0.1114c-0.1983,7.2197 0.4962,-18.0488 0.2971,-10.8291c0.0194,-0.2236 0.0565,-0.335 0.1122,-0.335z" data-paper-data="{&quot;origPos&quot;:null}" fill="#000000"/><path d="M236.6055,164.12567c0.3292,0.0371 1.5258,0.3131 3.5909,0.8279c0.0194,0.0371 0.038,0.0751 0.0565,0.1122c-0.3046,1.6929 -0.4869,2.5394 -0.5494,2.5394c-0.0185,0 -0.0371,0 -0.0557,0c-0.4995,-0.2574 -0.9983,-0.5148 -1.4979,-0.7722c0,0.1738 -0.0557,0.9494 -0.1671,2.3258c0.6819,-0.1671 1.3646,-0.335 2.0465,-0.5021c0.0624,0.1865 0.1181,1.0144 0.1671,2.4845c-0.1983,0.0742 -0.8802,0.1856 -2.0465,0.3342c0.2608,1.1165 0.5367,2.4811 0.8279,4.0938c-0.9553,0.2169 -2.0963,0.4371 -3.4238,0.6608c-0.0186,-0.0372 -0.0371,-0.0743 -0.0557,-0.1114c-0.1738,-2.8719 -0.319,-4.3082 -0.4371,-4.3082c-1.2035,0.292 -1.8482,0.4557 -1.9351,0.4937c-0.0743,-0.3604 -0.2051,-1.3368 -0.3908,-2.9309c0.0372,-0.0186 0.0743,-0.0372 0.1114,-0.0557c0.6642,0 1.3275,0 1.9908,0c-0.1114,-0.9182 -0.2785,-2.1149 -0.5021,-3.5917c0.757,-0.5334 1.5131,-1.0668 2.2701,-1.6001z" data-paper-data="{&quot;origPos&quot;:null}" fill="#000000"/><path d="M250.1141,166.95447c0.0869,0.0118 0.1308,0.0557 0.1308,0.13l-0.968,5.3588c1.8482,-0.2169 2.7723,-0.3907 2.7723,-0.5207c0.3477,-2.146 0.5865,-3.3495 0.7165,-3.6102c2.2887,0.4717 3.5571,0.7502 3.8052,0.8371c-1.3334,4.5842 -2.0651,6.9716 -2.1959,7.164c-2.3317,1.6372 -3.6432,2.5427 -3.9352,2.7166c-0.0869,0 -1.5722,-0.3654 -4.4558,-1.0979v-0.065c0.7629,-1.6811 1.2371,-2.5208 1.4228,-2.5208c0.946,0.4743 1.8921,0.9486 2.8381,1.4228l1.3579,-2.3258c-1.222,0.3038 -1.9318,0.4557 -2.1301,0.4557c-1.2068,-0.6262 -2.4127,-1.2524 -3.6195,-1.8794c0.4405,-4.0432 0.7198,-6.0652 0.8371,-6.0652c-0.4886,0 3.9133,0 3.4238,0z" data-paper-data="{&quot;origPos&quot;:null}" fill="#000000"/><path d="M261.2318,166.94516c2.3571,0.6321 3.6069,1.0169 3.7496,1.1536c1.2962,1.8356 2.0253,2.893 2.1865,3.1723c-0.8371,2.6541 -1.3182,3.9816 -1.4422,3.9816c-2.7908,0.6515 -4.2517,0.9773 -4.3816,0.9773c-2.3073,-1.3461 -3.536,-2.0963 -3.6846,-2.2516c-0.0801,-2.5056 -0.1206,-3.8888 -0.1206,-4.1495c-0.0372,-0.0743 -0.0557,-0.13 -0.0557,-0.1671c2.3815,-1.8111 3.6128,-2.7166 3.6929,-2.7166c0.0186,0 0.0372,0 0.0557,0zM261.0555,170.34958c-0.0372,0.2481 -0.0929,1.1511 -0.1671,2.7081c0.6911,0.1544 1.3823,0.3097 2.0743,0.465c0.4962,-1.5511 0.7443,-2.379 0.7443,-2.4845c-1.6498,-0.4962 -2.5334,-0.7443 -2.6515,-0.7443z" data-paper-data="{&quot;origPos&quot;:null}" fill="#000000"/><path d="M273.0382,166.93586c0.022,0.0397 0.0439,0.0802 0.065,0.1207c-0.157,0.833 -1.0988,5.8289 -1.2558,6.661c0.022,0 0.0439,0 0.065,0c1.0667,-0.3131 2.1343,-0.6261 3.201,-0.9392c0,-1.2558 0,-2.5124 0,-3.7681c0.0118,-0.0869 0.0523,-0.13 0.1207,-0.13c2.4068,0.1671 3.7461,0.2507 4.0187,0.2507c0,0.0438 0.0219,0.0649 0.0658,0.0649c0,1.0608 -0.335,3.2601 -1.0051,6.5969c0,0.1924 -0.9612,0.3376 -2.8845,0.4372c-0.0987,-0.1182 -0.1823,-0.3688 -0.2506,-0.7536c-2.4626,0.5021 -3.8677,0.7536 -4.2145,0.7536c-1.9664,-1.4642 -2.9495,-2.2178 -2.9495,-2.2609c0.335,-4.3976 0.546,-6.6804 0.6329,-6.8475c0.0186,0 0.0372,0 0.0557,0c1.5689,-0.043 3.0145,-0.1055 4.3352,-0.1857z" data-paper-data="{&quot;origPos&quot;:null}" fill="#000000"/><path d="M289.6549,166.94516c0.1916,0.7933 0.3258,1.2836 0.4,1.4693c2.7411,-0.6262 4.1892,-0.9393 4.3445,-0.9393c1.8667,2.6853 2.8001,4.0871 2.8001,4.2052l-2.1393,4.5403c-1.5351,-0.2447 -3.0702,-0.4903 -4.6053,-0.7351c0,0.0465 0,0.0929 0,0.1393c0.3596,2.7604 0.5393,4.2272 0.5393,4.401c-0.043,0 -0.065,0.0211 -0.065,0.065c-0.4464,-0.0439 -0.7814,-0.065 -1.0051,-0.065c-0.2667,0 -0.5333,0 -0.8,0c-0.465,0 -1.1781,-0.0219 -2.1393,-0.065c-0.087,-0.2607 -0.7537,-4.2212 -2.001,-11.8806c0.211,-0.0869 1.768,-0.4659 4.6711,-1.1351zM289.9899,170.75038c0.1241,1.4262 0.2355,2.1394 0.3342,2.1394c1.2718,0.4405 2.0499,0.6607 2.336,0.6607l0.7342,-3.2009c-0.0211,0 -0.043,0 -0.065,0c-0.7257,0.0439 -1.8389,0.1772 -3.3394,0.4008z" data-paper-data="{&quot;origPos&quot;:null}" fill="#2b70c2"/><path d="M304.8378,166.93586c1.2287,0.6878 1.9824,1.1351 2.2608,1.3393c-1.0042,2.0904 -1.5443,3.1537 -1.6186,3.1909c-0.0219,0 -0.043,0 -0.065,0l-1.3308,-1.1629l-1.5722,1.9165c0.059,1.1629 0.1181,2.3258 0.1772,3.4887c-0.081,0.0751 -1.1072,0.2481 -3.0795,0.5216c-0.0751,-0.5334 -0.5586,-3.1478 -1.4515,-7.8434c0,-0.0742 1.2963,-0.2667 3.8888,-0.5764c0.043,0.0498 0.1612,0.6296 0.3536,1.7393c1.5502,-1.7426 2.3629,-2.6136 2.4372,-2.6136z" data-paper-data="{&quot;origPos&quot;:null}" fill="#2b70c2"/><path d="M313.109,166.94516c2.8094,1.4448 4.3664,2.2887 4.6702,2.5301c-0.4034,1.8853 -0.6422,2.8566 -0.7164,2.9123c-1.9596,0 -3.92,0 -5.8796,0c0,0.0338 0,0.0684 0,0.1021c0.5485,0.6794 1.0979,1.3587 1.6465,2.0373c0.8625,-0.4397 1.7241,-0.8803 2.5866,-1.3208c0.254,0.4405 0.6203,1.2094 1.0979,2.3073c-0.2236,0.0743 -1.8515,0.3131 -4.8846,0.7165c-2.5115,-1.6558 -3.7773,-2.5183 -3.7959,-2.5866c0.4034,-3.2187 0.6422,-4.8289 0.7165,-4.8289c2.6237,-1.1157 4.1436,-1.7393 4.5588,-1.8693zM312.5039,169.19587c-0.0489,0.1241 -0.378,0.6178 -0.9857,1.4794c0,0.2608 0.3654,0.3908 1.098,0.3908c0,0.0371 0.5299,0.1274 1.5907,0.27c0.2912,-0.4034 0.4372,-0.6388 0.4372,-0.7072c-0.0928,-0.5519 -0.2945,-0.8279 -0.6051,-0.8279z" data-paper-data="{&quot;origPos&quot;:null}" fill="#2b70c2"/><path d="M326.134,166.93586c1.7866,1.141 2.7723,1.7984 2.9588,1.9723c-0.6456,1.4321 -1.0144,2.1486 -1.1072,2.1486l-3.3867,-1.963c-0.0405,0 -0.081,0 -0.1207,0c0,0.0625 -0.146,0.4093 -0.4379,1.0423c3.1199,1.681 4.6803,2.5427 4.6803,2.5866c-0.8751,2.022 -1.368,3.0887 -1.4794,3.2001c-1.7646,0.1021 -3.5292,0.2051 -5.2939,0.3072c-2.0591,-1.3646 -3.1663,-2.0845 -3.3216,-2.1588v-0.0557c0,-0.1552 0.3072,-0.8532 0.9215,-2.0929c1.3765,0.7157 2.7537,1.4322 4.131,2.1486c0.1021,-0.4093 0.2042,-0.8186 0.3064,-1.2279c-2.5554,-1.1477 -4.0745,-1.8642 -4.5589,-2.1494c0,-0.0431 0,-0.0869 0,-0.13c0,-0.2354 0.4937,-1.281 1.4794,-3.1351c1.7435,-0.1646 3.4862,-0.3291 5.2289,-0.4929z" data-paper-data="{&quot;origPos&quot;:null}" fill="#2b70c2"/><path d="M337.5218,166.93586c1.7857,1.141 2.7723,1.7984 2.9579,1.9723c-0.6447,1.4321 -1.0135,2.1486 -1.1063,2.1486l-3.3867,-1.963c-0.0405,0 -0.081,0 -0.1215,0c0,0.0625 -0.1452,0.4093 -0.4372,1.0423c3.12,1.681 4.6796,2.5427 4.6796,2.5866c-0.8743,2.022 -1.3672,3.0887 -1.4786,3.2001c-1.7646,0.1021 -3.5292,0.2051 -5.2939,0.3072c-2.0591,-1.3646 -3.1663,-2.0845 -3.3216,-2.1588v-0.0557c0,-0.1552 0.3072,-0.8532 0.9215,-2.0929c1.3765,0.7157 2.7537,1.4322 4.1302,2.1486c0.1029,-0.4093 0.205,-0.8186 0.3071,-1.2279c-2.5553,-1.1477 -4.0752,-1.8642 -4.5588,-2.1494c0,-0.0431 0,-0.0869 0,-0.13c0,-0.2354 0.4929,-1.281 1.4794,-3.1351c1.7427,-0.1646 3.4854,-0.3291 5.2289,-0.4929z" data-paper-data="{&quot;origPos&quot;:null}" fill="#2b70c2"/><path d="M353.4397,164.12567c2.233,1.1292 3.3808,1.6937 3.4424,1.6937c0,0.0988 -0.465,0.995 -1.395,2.6887c-0.022,0 -0.0439,0 -0.0658,0c-0.0743,0 -1.1436,-0.5055 -3.2095,-1.5165l-1.0515,1.4043c1.7807,0.8566 3.942,1.9478 6.4847,3.2752c-1.1537,2.0533 -1.9723,3.4179 -2.4558,4.0939l-5.2568,0.465c-2.4001,-1.6187 -3.6685,-2.4567 -3.8052,-2.5124c0,-0.0211 0,-0.043 0,-0.0649c0,-0.1739 0.4869,-0.9705 1.4608,-2.3909c0.0405,0 0.081,0 0.1207,0c0.3848,0.2296 1.5908,0.8904 3.6196,1.9816c0.4093,-0.465 0.8186,-0.93 1.2279,-1.3959c-3.7276,-1.8979 -5.7927,-2.9706 -6.1961,-3.2187c0,-0.0185 0,-0.0371 0,-0.0557c1.1849,-2.3072 1.8296,-3.4769 1.9351,-3.5073c3.0829,-0.627 4.7977,-0.9401 5.1445,-0.9401z" data-paper-data="{&quot;origPos&quot;:null}" fill="#2b70c2"/><path d="M367.107,166.94516c2.357,0.6321 3.6068,1.0169 3.7495,1.1536c1.2962,1.8356 2.0245,2.893 2.1866,3.1723c-0.8381,2.6541 -1.3182,3.9816 -1.4423,3.9816c-2.7917,0.6515 -4.2516,0.9773 -4.3825,0.9773c-2.3072,-1.3461 -3.5351,-2.0963 -3.6836,-2.2516c-0.0811,-2.5056 -0.1216,-3.8888 -0.1216,-4.1495c-0.0371,-0.0743 -0.0557,-0.13 -0.0557,-0.1671c2.3816,-1.8111 3.6128,-2.7166 3.6939,-2.7166zM366.9306,170.34958c-0.038,0.2481 -0.0937,1.1511 -0.168,2.7081c0.692,0.1544 1.3832,0.3097 2.0752,0.465c0.4954,-1.5511 0.7435,-2.379 0.7435,-2.4845c-1.6498,-0.4962 -2.5334,-0.7443 -2.6507,-0.7443c0,0.0185 0,0.0371 0,0.0557z" data-paper-data="{&quot;origPos&quot;:null}" fill="#000000"/><path d="M380.5691,166.93586c1.2279,0.6878 1.9815,1.1351 2.2608,1.3393c-1.0051,2.0904 -1.5443,3.1537 -1.6186,3.1909c-0.0219,0 -0.0439,0 -0.065,0l-1.3308,-1.1629l-1.5722,1.9165c-0.0887,-1.7444 0.265,5.234 0.1772,3.4887c-0.081,0.0751 -1.1072,0.2481 -3.0803,0.5216c-0.0743,-0.5334 -0.5578,-3.1478 -1.4507,-7.8434c0,-0.0742 1.2963,-0.2667 3.8888,-0.5764c0.043,0.0498 0.1612,0.6296 0.3536,1.7393c1.5502,-1.7426 2.3629,-2.6136 2.4372,-2.6136z" data-paper-data="{&quot;origPos&quot;:null}" fill="#000000"/><path d="M391.0733,164.12567l4.093,0.7258c-0.011,0.086 -0.3798,3.0212 -0.3907,3.1073c0.8127,-0.0431 1.4085,-0.065 1.7865,-0.065c0.1984,0 0.3967,0 0.5958,0c0.0431,-0.022 0.0861,-0.0431 0.13,-0.065l0.065,0.13c-0.13,1.8853 -0.2422,2.9461 -0.335,3.1824l-0.13,-0.0751c-0.0928,0 -0.9309,-0.0431 -2.5123,-0.13c-0.087,1.4574 -0.152,3.2001 -0.195,5.2289c-0.0439,0.0211 -0.0869,0.043 -0.1308,0.065c-1.9967,-0.13 -3.1875,-0.2422 -3.5723,-0.3351l0.065,-0.2607c0,-0.5393 0.0869,-2.2136 0.2608,-5.0239c-1.6744,-0.0928 -2.5124,-0.2042 -2.5124,-0.335c0.0869,-2.071 0.1992,-3.1073 0.3351,-3.1073c0.816,0.1553 1.6312,0.3106 2.4473,0.465c0,-0.2667 0,-0.5333 0,-0.8c0,-0.6507 -0.0253,-1.5317 -0.0751,-2.6423c0.0498,0 0.0751,-0.0211 0.0751,-0.065z" data-paper-data="{&quot;origPos&quot;:null}" fill="#2b70c2"/><path d="M402.5075,164.12567c0.0372,0.0557 0.2102,1.7553 0.5207,5.0989c2.3942,-0.7325 3.6685,-1.0979 3.8238,-1.0979c0.7907,0.5393 1.5815,1.0785 2.3722,1.6186c-0.3848,3.5352 -0.6354,5.6011 -0.7536,6.1961l-3.2938,0.1114c0,-0.0372 -0.0211,-0.0557 -0.065,-0.0557l0.065,-0.2321c0,-0.503 0.0751,-2.0288 0.2237,-4.5774c-0.9056,-0.0372 -1.5782,-0.0557 -2.0187,-0.0557c-0.0776,0 -0.1553,0 -0.2329,0c0.2667,2.8338 0.4,4.3782 0.4,4.6331c-1.0414,0.1544 -2.0836,0.3097 -3.1258,0.465c-0.1182,-0.3975 -0.8127,-4.1031 -2.0837,-11.1178c0,-0.1983 0.4836,-0.3536 1.4507,-0.465c1.222,-0.3477 2.1275,-0.5215 2.7174,-0.5215z" data-paper-data="{&quot;origPos&quot;:null}" fill="#2b70c2"/><path d="M415.3739,166.94516c2.8094,1.4448 4.3664,2.2887 4.6702,2.5301c-0.4026,1.8853 -0.6414,2.8566 -0.7165,2.9123c-1.9596,0 -3.9191,0 -5.8796,0c0,0.0338 0,0.0684 0,0.1021l1.6465,2.0373c0.8625,-0.4397 1.725,-0.8803 2.5866,-1.3208c0.254,0.4405 0.6203,1.2094 1.098,2.3073c-0.2237,0.0743 -1.8516,0.3131 -4.8846,0.7165c-2.5115,-1.6558 -3.7774,-2.5183 -3.796,-2.5866c0.4034,-3.2187 0.6423,-4.8289 0.7165,-4.8289c2.6238,-1.1157 4.1437,-1.7393 4.5589,-1.8693zM414.7696,169.19587c-0.0498,0.1241 -0.3789,0.6178 -0.9865,1.4794c0,0.2608 0.3662,0.3908 1.0979,0.3908c0,0.0371 0.53,0.1274 1.5908,0.27c0.2911,-0.4034 0.4371,-0.6388 0.4371,-0.7072c-0.0928,-0.5519 -0.2945,-0.8279 -0.6042,-0.8279c-0.5123,-0.2017 -1.0237,-0.4034 -1.5351,-0.6051z" data-paper-data="{&quot;origPos&quot;:null}" fill="#2b70c2"/><path d="M38.2626,181.21076c0.0186,0 0.0371,0 0.0557,0c2.8035,0.2354 4.2052,0.4185 4.2052,0.5494c0.4127,3.6499 0.8245,7.2998 1.2372,10.9498c0,0.081 -1.2372,0.2852 -3.7115,0.6143l-0.0566,-0.1215v-0.995c-2.1334,0.5764 -3.5968,0.9486 -4.3909,1.1165c-1.8853,-2.6676 -2.8752,-4.0879 -2.968,-4.2609c1.3891,-2.525 2.1309,-3.8027 2.2237,-3.8331l3.898,0.1857c-0.0801,-0.4777 -0.2447,-1.8794 -0.4928,-4.2052zM36.5317,187.88186c0.627,1.9165 1.0178,2.9672 1.1722,3.1537c0.6178,-0.5367 1.2347,-1.0734 1.8516,-1.6093c-0.1924,-1.1106 -0.3351,-1.6659 -0.4279,-1.6659c-0.8245,0 -1.6499,0 -2.4744,0c-0.081,0.0127 -0.1215,0.0532 -0.1215,0.1215z" data-paper-data="{&quot;origPos&quot;:null}" fill="#2b70c2"/><path d="M48.4782,184.03866c2.3562,0.633 3.606,1.0178 3.7487,1.1537c1.2962,1.8363 2.0254,2.8937 2.1865,3.1731c-0.8371,2.6541 -1.3182,3.9816 -1.4422,3.9816c-2.7908,0.6515 -4.2517,0.9772 -4.3816,0.9772c-2.3073,-1.346 -3.5352,-2.0963 -3.6846,-2.2515c-0.0801,-2.5056 -0.1206,-3.8888 -0.1206,-4.1496c-0.0372,-0.0742 -0.0557,-0.1299 -0.0557,-0.1671c2.3815,-1.811 3.6128,-2.7174 3.6929,-2.7174c0.0186,0 0.038,0 0.0566,0zM48.301,187.44388c-0.0372,0.2481 -0.0929,1.1511 -0.1671,2.7073l2.0743,0.4658c0.4962,-1.5511 0.7443,-2.379 0.7443,-2.4844c-1.6498,-0.4963 -2.5334,-0.7444 -2.6515,-0.7444z" data-paper-data="{&quot;origPos&quot;:null}" fill="#2b70c2"/><path d="M59.3444,184.02938c0.0802,0.1055 0.4996,1.9048 1.2558,5.3969c0.0219,0 0.0439,0 0.065,0c0,-0.081 0.4591,-0.7916 1.3772,-2.1309c0.3849,0.2608 1.1165,0.8245 2.1959,1.6929c0.043,0 0.0869,0 0.13,0v-0.065c0.1679,-2.4187 0.292,-3.7588 0.3721,-4.0187c2.5554,0.1299 3.8331,0.2354 3.8331,0.3165c-1.1722,4.7132 -1.7984,7.1631 -1.8794,7.3496c-0.3907,0.0431 -1.2093,0.1671 -2.4558,0.3722c-1.0237,-1.6068 -1.6093,-2.4626 -1.7587,-2.5681c-0.6701,1.7866 -1.0887,2.7698 -1.2558,2.9495c-0.8371,0 -1.6743,0 -2.5123,0c-0.1544,-0.0498 -0.887,-1.6625 -2.195,-4.8381c-0.838,-1.774 -1.2566,-2.7352 -1.2566,-2.8837c0,-0.1367 1.3621,-0.6608 4.0845,-1.5731z" data-paper-data="{&quot;origPos&quot;:null}" fill="#2b70c2"/><path d="M77.849,184.02938l3.098,2.1309c-0.2169,3.5352 -0.3688,5.6011 -0.4557,6.1961c-0.3595,0.0438 -1.4541,0.1088 -3.2837,0.1957l-0.0658,-0.1308c-0.108,-1.6557 -0.2169,-3.3115 -0.3249,-4.9681c-0.0439,-0.0211 -0.087,-0.043 -0.1308,-0.065c-1.1849,0.2549 -2.0001,0.4465 -2.4465,0.5773c0.124,2.1148 0.1856,3.644 0.1856,4.5866c-1.8482,0.5148 -2.8592,0.7722 -3.033,0.7722c-1.2026,-5.2972 -1.8043,-8.094 -1.8043,-8.3919c2.617,-0.3409 4.0373,-0.5122 4.2609,-0.5122c0,0.0219 0,0.0439 0,0.0658c0.0431,0.0304 0.108,0.676 0.195,1.9351c2.4009,-1.5942 3.6693,-2.3917 3.8052,-2.3917z" data-paper-data="{&quot;origPos&quot;:null}" fill="#2b70c2"/><path d="M88.046,184.02938c3.6845,0.5089 5.526,0.822 5.526,0.9402c1.4515,1.2464 2.1773,1.9131 2.1773,2c-0.5891,1.8423 -0.9241,2.9622 -1.0051,3.3588c0.5899,1.3089 0.9249,2.0904 1.0051,2.3444c0,0.0743 -0.9612,0.2726 -2.8837,0.5958c-0.0253,-0.1055 -0.2017,-0.3418 -0.5308,-0.7072c-2.6541,0.5081 -4.0837,0.7629 -4.2888,0.7629c-0.0346,-0.0936 -1.3798,-3.7309 -1.4144,-3.8238l3.1166,-1.6473c0.503,0.081 1.287,0.1215 2.3545,0.1215c0,-0.1367 0.0186,-0.5493 0.0557,-1.2371c-0.1797,0 -1.7866,0.1173 -4.8196,0.3527c-0.0186,-0.0396 -0.0371,-0.0801 -0.0557,-0.1207c0.422,-1.9595 0.676,-2.9402 0.7629,-2.9402zM89.9811,189.50048c0,0.0684 0.1983,0.7933 0.5958,2.1765c0.0186,0 0.0371,0 0.0557,0c0.7815,-0.508 1.1722,-0.8431 1.1722,-1.0043l0.1207,-0.9958c-0.1485,0 -0.7967,-0.059 -1.9444,-0.1764z" data-paper-data="{&quot;origPos&quot;:null}" fill="#2b70c2"/><path d="M103.3226,184.02938c1.2279,0.6887 1.9815,1.1351 2.2608,1.3402c-1.0051,2.0904 -1.5443,3.1537 -1.6186,3.1908c-0.022,0 -0.0439,0 -0.0658,0c-0.4431,-0.3873 -0.887,-0.7747 -1.33,-1.1629c-0.5241,0.6389 -1.0482,1.2777 -1.5723,1.9165l0.1764,3.4888c-0.0802,0.0751 -1.1072,0.2481 -3.0794,0.5215c-0.0743,-0.5333 -0.5579,-3.1478 -1.4516,-7.8433c0,-0.0743 1.2963,-0.2667 3.8896,-0.5764c0.0431,0.0498 0.1612,0.6295 0.3528,1.7393c1.5511,-1.7427 2.3638,-2.6145 2.4381,-2.6145z" data-paper-data="{&quot;origPos&quot;:null}" fill="#2b70c2"/><path d="M112.9981,184.02938c1.2279,0.6887 1.9815,1.1351 2.2608,1.3402c-1.0051,2.0904 -1.5444,3.1537 -1.6186,3.1908c-0.022,0 -0.0439,0 -0.065,0c-0.4439,-0.3873 -0.887,-0.7747 -1.3309,-1.1629l-1.5722,1.9165c-0.0025,-0.0548 0.1798,3.5445 0.1773,3.4888c-0.0811,0.0751 -1.1073,0.2481 -3.0803,0.5215c-0.0743,-0.5333 -0.5579,-3.1478 -1.4507,-7.8433c0,-0.0743 1.2962,-0.2667 3.8887,-0.5764c0.0431,0.0498 0.1612,0.6295 0.3536,1.7393c1.5503,-1.7427 2.363,-2.6145 2.4373,-2.6145z" data-paper-data="{&quot;origPos&quot;:null}" fill="#2b70c2"/><path d="M119.7435,184.03866c2.357,0.633 3.6069,1.0178 3.7495,1.1537c1.2963,1.8363 2.0245,2.8937 2.1857,3.1731c-0.8371,2.6541 -1.3173,3.9816 -1.4414,3.9816c-2.7916,0.6515 -4.2525,0.9772 -4.3824,0.9772c-2.3073,-1.346 -3.5352,-2.0963 -3.6846,-2.2515c-0.0801,-2.5056 -0.1206,-3.8888 -0.1206,-4.1496c-0.0372,-0.0742 -0.0557,-0.1299 -0.0557,-0.1671c2.3815,-1.811 3.6128,-2.7174 3.6938,-2.7174c0.0185,0 0.0371,0 0.0557,0zM119.5663,187.44388c-0.0372,0.2481 -0.0929,1.1511 -0.1671,2.7073c0.6911,0.1553 1.3831,0.3106 2.0743,0.4658c0.4962,-1.5511 0.7443,-2.379 0.7443,-2.4844c-1.6498,-0.4963 -2.5334,-0.7444 -2.6515,-0.7444c0,0.0186 0,0.0372 0,0.0557z" data-paper-data="{&quot;origPos&quot;:null}" fill="#2b70c2"/><path d="M130.6097,184.02938c0.0811,0.1055 0.4996,1.9048 1.2558,5.3969c0.0219,0 0.0439,0 0.0658,0c0,-0.081 0.4591,-0.7916 1.3764,-2.1309c0.3849,0.2608 1.1165,0.8245 2.1959,1.6929c0.043,0 0.0869,0 0.13,0v-0.065c0.1679,-2.4187 0.292,-3.7588 0.3721,-4.0187c2.5554,0.1299 3.8331,0.2354 3.8331,0.3165c-1.1722,4.7132 -1.7984,7.1631 -1.8794,7.3496c-0.3907,0.0431 -1.2093,0.1671 -2.4558,0.3722c-1.0237,-1.6068 -1.6093,-2.4626 -1.7587,-2.5681c-0.6692,1.7866 -1.0878,2.7698 -1.2558,2.9495c-0.8371,0 -1.6743,0 -2.5115,0c-0.1552,-0.0498 -0.8869,-1.6625 -2.1958,-4.8381c-0.8372,-1.774 -1.2558,-2.7352 -1.2558,-2.8837c0,-0.1367 1.3613,-0.6608 4.0837,-1.5731z" data-paper-data="{&quot;origPos&quot;:null}" fill="#2b70c2"/><path d="M149.6822,181.21996c0.087,0.2482 0.2819,2.0069 0.5865,5.2754l2.7909,-3.1259c0.0219,0 0.043,0 0.065,0c0.4337,0.3595 1.2371,1.119 2.4093,2.2794v0.065c-0.8894,0.735 -1.7798,1.4701 -2.6701,2.2051c2.0102,1.3453 3.0735,2.1056 3.1917,2.2795c-1.2659,1.4076 -2.0254,2.211 -2.2794,2.4093c-1.0828,-0.9983 -2.1647,-1.9975 -3.2474,-2.9959c0.1308,1.3402 0.1958,2.3385 0.1958,2.9959c-0.1553,0.087 -1.3056,0.3258 -3.4517,0.7165c-0.1738,-0.8684 -0.7384,-4.5993 -1.6937,-11.1928c0.3975,-0.13 1.7646,-0.4338 4.1031,-0.9115z" data-paper-data="{&quot;origPos&quot;:null}" fill="#2b70c2"/><path d="M162.1308,184.03866c2.8094,1.4457 4.3664,2.2887 4.6703,2.5309c-0.4034,1.8853 -0.6423,2.8567 -0.7165,2.9124c-1.9604,0 -3.92,0 -5.8804,0c0,0.0337 0,0.0683 0,0.1021c0.5494,0.6793 1.0979,1.3587 1.6473,2.0372c0.8616,-0.4405 1.7241,-0.8802 2.5866,-1.3207c0.254,0.4405 0.6194,1.2093 1.0971,2.3072c-0.2228,0.0743 -1.8507,0.3131 -4.8838,0.7165c-2.5123,-1.6566 -3.7773,-2.5182 -3.7959,-2.5866c0.4026,-3.2187 0.6414,-4.8289 0.7165,-4.8289c2.6229,-1.1165 4.1428,-1.7393 4.5588,-1.8701zM161.5257,186.29026c-0.0498,0.124 -0.378,0.6177 -0.9865,1.4794c0,0.2607 0.3663,0.3907 1.0979,0.3907c0,0.0371 0.5309,0.1274 1.5908,0.2701c0.292,-0.4034 0.438,-0.6389 0.438,-0.7072c-0.0937,-0.552 -0.2954,-0.8279 -0.6051,-0.8279z" data-paper-data="{&quot;origPos&quot;:null}" fill="#2b70c2"/><path d="M171.927,184.04796c0.0869,0.0127 0.13,0.0566 0.13,0.1308c-0.3224,1.7857 -0.6448,3.5723 -0.9672,5.3589c1.8482,-0.2169 2.7723,-0.3908 2.7723,-0.5216c0.3477,-2.1452 0.5865,-3.3486 0.7165,-3.6094c2.2887,0.4718 3.5571,0.7503 3.8052,0.8372c-1.3334,4.5841 -2.0651,6.9716 -2.1959,7.164c-2.3317,1.6372 -3.644,2.5427 -3.9351,2.7165c-0.087,0 -1.5723,-0.3662 -4.4568,-1.0979c0,-0.0219 0,-0.043 0,-0.065c0.7629,-1.6811 1.2381,-2.5216 1.4237,-2.5216l2.8373,1.4237l1.3587,-2.3258c-1.222,0.3038 -1.9318,0.4557 -2.1309,0.4557l-3.6187,-1.8794c0.4405,-4.0441 0.7198,-6.0661 0.8371,-6.0661c0.0194,0 3.4044,0 3.4238,0z" data-paper-data="{&quot;origPos&quot;:null}" fill="#2b70c2"/><path d="M185.3056,180.29928c1.2186,0.1924 2.4372,0.384 3.6567,0.5764c-0.4591,1.7554 -0.7604,2.633 -0.903,2.633c-1.9225,-0.1299 -2.8837,-0.2573 -2.8837,-0.3814c0,-0.8996 0,-1.7984 0,-2.698c0.0186,-0.0869 0.0616,-0.13 0.13,-0.13zM184.2819,184.72738c0.0186,0 0.0372,0 0.0557,0c2.8288,0.5147 4.2432,0.816 4.2432,0.9029c-0.8127,4.6019 -1.3064,7.1666 -1.4794,7.694c-0.9831,0 -1.9663,0 -2.9494,0c-0.087,0 -0.13,-0.0439 -0.13,-0.1308z" data-paper-data="{&quot;origPos&quot;:null}" fill="#000000"/><path d="M197.4934,184.02938c1.033,0.7106 2.0651,1.4204 3.098,2.1309c-0.2169,3.5352 -0.3688,5.6011 -0.4557,6.1961c-0.3595,0.0438 -1.4549,0.1088 -3.2845,0.1957l-0.065,-0.1308c-0.1088,-1.6557 -0.2169,-3.3115 -0.3257,-4.9681l-0.13,-0.065c-1.1849,0.2549 -2.0001,0.4465 -2.4473,0.5773c0.124,2.1148 0.1865,3.644 0.1865,4.5866c-1.8482,0.5148 -2.8592,0.7722 -3.0331,0.7722c-1.2034,-5.2972 -1.8051,-8.094 -1.8051,-8.3919c2.6178,-0.3409 4.0381,-0.5122 4.2609,-0.5122c0,0.0219 0,0.0439 0,0.0658c0.0439,0.0304 0.1089,0.676 0.1958,1.9351c2.4001,-1.5942 3.6685,-2.3917 3.8052,-2.3917z" data-paper-data="{&quot;origPos&quot;:null}" fill="#000000"/><path d="M209.0576,181.21996c1.3646,0.2423 2.7292,0.4836 4.0938,0.7258c0.0979,-0.7772 -0.4886,3.8846 -0.3907,3.1073c0.8127,-0.043 1.4076,-0.065 1.7857,-0.065c0.1992,0 0.3975,0 0.5958,0c0.0431,-0.0219 0.087,-0.0439 0.13,-0.065l0.0658,0.13c-0.1308,1.8853 -0.2422,2.9461 -0.335,3.1816l-0.1308,-0.0743c-0.0929,0 -0.93,-0.043 -2.5115,-0.13c-0.0869,1.4575 -0.1519,3.2002 -0.1958,5.2289l-0.13,0.065c-1.9975,-0.1308 -3.1883,-0.2422 -3.5723,-0.335l0.065,-0.2608c0,-0.5392 0.0869,-2.2144 0.2599,-5.0238c-1.6743,-0.0928 -2.5114,-0.2042 -2.5114,-0.335c0.0869,-2.0719 0.1983,-3.1073 0.335,-3.1073c0.8152,0.1552 1.6313,0.3105 2.4465,0.465v-0.8001c0,-0.6515 -0.0245,-1.5317 -0.0743,-2.6423c0.0498,0 0.0743,-0.0211 0.0743,-0.065z" data-paper-data="{&quot;origPos&quot;:null}" fill="#000000"/><path d="M220.4918,181.21996c0.0371,0.0557 0.211,1.7554 0.5207,5.0981c2.3942,-0.7316 3.6693,-1.097 3.8238,-1.097c0.7907,0.5392 1.5815,1.0785 2.3731,1.6186c-0.3848,3.5351 -0.6363,5.6002 -0.7536,6.196c-1.098,0.0371 -2.1959,0.0743 -3.2938,0.1114c0,-0.0371 -0.022,-0.0557 -0.065,-0.0557l0.065,-0.2321c0,-0.5029 0.0742,-2.0287 0.2236,-4.5774c-0.9055,-0.0379 -1.579,-0.0565 -2.0195,-0.0565c-0.0776,0 -0.1544,0 -0.2321,0c0.2667,2.8347 0.4,4.3791 0.4,4.6339c-1.0422,0.1545 -2.0844,0.3097 -3.1258,0.465c-0.1182,-0.3975 -0.8127,-4.1031 -2.0845,-11.1177c0,-0.1992 0.4836,-0.3536 1.4515,-0.4659c1.222,-0.3468 2.1276,-0.5207 2.7166,-0.5207z" data-paper-data="{&quot;origPos&quot;:null}" fill="#000000"/><path d="M233.359,184.03866c2.8094,1.4457 4.3664,2.2887 4.6702,2.5309c-0.4034,1.8853 -0.6422,2.8567 -0.7165,2.9124c-1.9604,0 -3.92,0 -5.8795,0c0,0.0337 0,0.0683 0,0.1021c0.5485,0.6793 1.0971,1.3587 1.6465,2.0372l2.5866,-1.3207c0.254,0.4405 0.6202,1.2093 1.097,2.3072c-0.2227,0.0743 -1.8507,0.3131 -4.8837,0.7165c-2.5123,-1.6566 -3.7774,-2.5182 -3.7959,-2.5866c0.4034,-3.2187 0.6413,-4.8289 0.7165,-4.8289c2.6237,-1.1165 4.1427,-1.7393 4.5588,-1.8701zM232.7539,186.29026c-0.0498,0.124 -0.3781,0.6177 -0.9865,1.4794c0,0.2607 0.3662,0.3907 1.0979,0.3907c0,0.0371 0.5308,0.1274 1.5908,0.2701c0.292,-0.4034 0.438,-0.6389 0.438,-0.7072c-0.0937,-0.552 -0.2946,-0.8279 -0.6051,-0.8279z" data-paper-data="{&quot;origPos&quot;:null}" fill="#000000"/><path d="M245.016,184.02938c3.6845,0.5089 5.526,0.822 5.526,0.9402c1.4515,1.2464 2.1773,1.9131 2.1773,2c-0.5891,1.8423 -0.9241,2.9622 -1.0043,3.3588c0.5891,1.3089 0.9241,2.0904 1.0043,2.3444c0,0.0743 -0.9613,0.2726 -2.8837,0.5958c-0.0253,-0.1055 -0.2017,-0.3418 -0.5308,-0.7072c-2.6541,0.5081 -4.0837,0.7629 -4.2888,0.7629c-0.4718,-1.2751 -0.9427,-2.5494 -1.4144,-3.8238c1.0389,-0.5493 2.0777,-1.0979 3.1166,-1.6473c0.5029,0.081 1.2878,0.1215 2.3545,0.1215c0,-0.1367 0.0186,-0.5493 0.0557,-1.2371c-0.1798,0 -1.7866,0.1173 -4.8196,0.3527c-0.0186,-0.0396 -0.0371,-0.0801 -0.0557,-0.1207c0.422,-1.9595 0.676,-2.9402 0.7629,-2.9402zM246.9511,189.50048c0,0.0684 0.1983,0.7933 0.5958,2.1765c0.0186,0 0.0371,0 0.0557,0c0.7815,-0.508 1.1722,-0.8431 1.1722,-1.0043l0.1207,-0.9958c-0.1486,0 -0.7967,-0.059 -1.9444,-0.1764z" data-paper-data="{&quot;origPos&quot;:null}" fill="#2b70c2"/><path d="M254.8966,180.29928c1.2186,0.1924 2.4372,0.384 3.6558,0.5764c-0.4582,1.7554 -0.7595,2.633 -0.9021,2.633c-1.9225,-0.1299 -2.8837,-0.2573 -2.8837,-0.3814v-2.698c0.0186,-0.0869 0.0616,-0.13 0.13,-0.13zM253.8729,184.72738c0.0186,0 0.0371,0 0.0557,0c2.8288,0.5147 4.2424,0.816 4.2424,0.9029c-0.8119,4.6019 -1.3056,7.1666 -1.4786,7.694c-0.9831,0 -1.9663,0 -2.9495,0c-0.0869,0 -0.1299,-0.0439 -0.1299,-0.1308c0.086,-2.822 0.173,-5.6441 0.2599,-8.4661z" data-paper-data="{&quot;origPos&quot;:null}" fill="#2b70c2"/><path d="M265.5029,184.02938c1.2279,0.6887 1.9815,1.1351 2.26,1.3402c-1.0043,2.0904 -1.5444,3.1537 -1.6186,3.1908c-0.0211,0 -0.0431,0 -0.065,0c-0.4431,-0.3873 -0.887,-0.7747 -1.33,-1.1629l-1.5731,1.9165c0.0591,1.163 0.1182,2.3259 0.1772,3.4888c-0.081,0.0751 -1.1072,0.2481 -3.0794,0.5215c-0.0743,-0.5333 -0.5587,-3.1478 -1.4515,-7.8433c0,-0.0743 1.2962,-0.2667 3.8887,-0.5764c0.0439,0.0498 0.1612,0.6295 0.3536,1.7393c1.5511,-1.7427 2.363,-2.6145 2.4381,-2.6145z" data-paper-data="{&quot;origPos&quot;:null}" fill="#2b70c2"/><path d="M269.7917,191.31407c1.687,0.1992 2.5334,0.3106 2.5393,0.3351c-1.0228,2.4068 -1.5967,3.6718 -1.7207,3.7959c-0.8439,-0.1055 -1.2651,-0.1924 -1.2651,-0.2599c0.2228,-2.5807 0.3595,-3.8711 0.4093,-3.8711z" data-paper-data="{&quot;origPos&quot;:null}" fill="#000000"/><path d="M282.6766,184.04796c0.0869,0.0127 0.1308,0.0566 0.1308,0.1308c-0.3224,1.7857 -0.6456,3.5723 -0.968,5.3589c1.8482,-0.2169 2.7723,-0.3908 2.7723,-0.5216c0.3477,-2.1452 0.5865,-3.3486 0.7165,-3.6094c2.2887,0.4718 3.5571,0.7503 3.8052,0.8372c-1.3334,4.5841 -2.0651,6.9716 -2.1951,7.164c-2.3325,1.6372 -3.644,2.5427 -3.936,2.7165c-0.0869,0 -1.5722,-0.3662 -4.4559,-1.0979c0,-0.0219 0,-0.043 0,-0.065c0.7629,-1.6811 1.2372,-2.5216 1.4229,-2.5216c0.946,0.4751 1.8921,0.9494 2.8381,1.4237l1.3578,-2.3258c-1.222,0.3038 -1.9317,0.4557 -2.13,0.4557c-1.2068,-0.6262 -2.4128,-1.2524 -3.6196,-1.8794c0.4406,-4.0441 0.7199,-6.0661 0.8372,-6.0661c1.1418,0 2.2828,0 3.4238,0z" data-paper-data="{&quot;origPos&quot;:null}" fill="#000000"/><path d="M293.7943,184.03866c2.3571,0.633 3.6069,1.0178 3.7495,1.1537c1.2963,1.8363 2.0254,2.8937 2.1866,3.1731c-0.8371,2.6541 -1.3182,3.9816 -1.4422,3.9816c-2.7909,0.6515 -4.2517,0.9772 -4.3816,0.9772c-2.3073,-1.346 -3.5352,-2.0963 -3.6846,-2.2515c-0.0802,-2.5056 -0.1207,-3.8888 -0.1207,-4.1496c-0.0371,-0.0742 -0.0557,-0.1299 -0.0557,-0.1671c2.3816,-1.811 3.6128,-2.7174 3.693,-2.7174c0.0186,0 0.0372,0 0.0557,0zM293.6179,187.44388c-0.0371,0.2481 -0.0928,1.1511 -0.1671,2.7073c0.6912,0.1553 1.3832,0.3106 2.0744,0.4658c0.4962,-1.5511 0.7443,-2.379 0.7443,-2.4844c-1.6498,-0.4963 -2.5334,-0.7444 -2.6516,-0.7444z" data-paper-data="{&quot;origPos&quot;:null}" fill="#000000"/><path d="M305.6007,184.02938c0.0219,0.0405 0.0439,0.0811 0.0658,0.1216l-1.2566,6.661c0.022,0 0.0439,0 0.065,0c1.0676,-0.3131 2.1343,-0.6262 3.201,-0.9393v-3.7681c0.0118,-0.0869 0.0523,-0.1299 0.1207,-0.1299c2.4068,0.1671 3.7461,0.2506 4.0195,0.2506c0,0.0439 0.0211,0.065 0.065,0.065c0,1.0608 -0.335,3.26 -1.0051,6.5969c0,0.1915 -0.9612,0.3375 -2.8836,0.4371c-0.0996,-0.1181 -0.1832,-0.3696 -0.2515,-0.7536c-2.4626,0.5021 -3.8677,0.7536 -4.2145,0.7536c-1.9664,-1.4642 -2.9495,-2.2178 -2.9495,-2.2608c0.335,-4.3977 0.546,-6.6805 0.6329,-6.8476c0.0186,0 0.0371,0 0.0557,0c1.5688,-0.0438 3.0145,-0.1054 4.3352,-0.1865z" data-paper-data="{&quot;origPos&quot;:null}" fill="#000000"/><path d="M321.203,184.03866c2.7976,0.5275 4.2609,0.8288 4.3917,0.903v0.1114c-0.6017,1.6997 -0.9029,2.5807 -0.9029,2.6423c-0.0186,0 -0.0372,0 -0.0557,0c-0.1553,0 -0.9056,-0.2422 -2.2516,-0.7258c-0.7503,1.2592 -1.1258,1.9326 -1.1258,2.0187l1.8608,1.8051c1.4389,-1.3519 2.1706,-2.0279 2.1959,-2.0279c1.1224,1.4701 1.6836,2.2946 1.6836,2.4744c-0.6135,0.3536 -1.6836,1.0481 -3.2094,2.0844c-2.9529,-0.6388 -4.5462,-0.9958 -4.7825,-1.0701l-1.4599,-4.7259z" data-paper-data="{&quot;origPos&quot;:null}" fill="#000000"/><path d="M329.3434,184.02938c3.6846,0.5089 5.5268,0.822 5.5268,0.9402c1.4516,1.2464 2.1765,1.9131 2.1765,2c-0.5891,1.8423 -0.9241,2.9622 -1.0043,3.3588c0.5891,1.3089 0.9241,2.0904 1.0043,2.3444c0,0.0743 -0.9612,0.2726 -2.8837,0.5958c-0.0245,-0.1055 -0.2017,-0.3418 -0.53,-0.7072c-2.6549,0.5081 -4.0845,0.7629 -4.2896,0.7629c-0.4709,-1.2751 -0.9426,-2.5494 -1.4135,-3.8238l3.1165,-1.6473c0.5022,0.081 1.287,0.1215 2.3537,0.1215c0,-0.1367 0.0186,-0.5493 0.0557,-1.2371c-0.1797,0 -1.7866,0.1173 -4.8187,0.3527l-0.0566,-0.1207c0.422,-1.9595 0.676,-2.9402 0.7629,-2.9402zM331.2785,189.50048c0,0.0684 0.1992,0.7933 0.5958,2.1765c0.0186,0 0.0372,0 0.0557,0c0.7815,-0.508 1.1722,-0.8431 1.1722,-1.0043l0.1215,-0.9958c-0.1493,0 -0.7975,-0.059 -1.9452,-0.1764z" data-paper-data="{&quot;origPos&quot;:null}" fill="#000000"/><path d="M346.2015,184.02938c1.0329,0.7106 2.0659,1.4204 3.0988,2.1309c-0.2177,3.5352 -0.3696,5.6011 -0.4565,6.1961c-0.3595,0.0438 -1.4541,0.1088 -3.2837,0.1957l-0.065,-0.1308c-0.0472,-0.7097 -0.2793,-4.2584 -0.3257,-4.9681c-0.0439,-0.0211 -0.087,-0.043 -0.1308,-0.065c-1.1841,0.2549 -2.0001,0.4465 -2.4466,0.5773c0.1241,2.1148 0.1857,3.644 0.1857,4.5866c-1.8482,0.5148 -2.8592,0.7722 -3.0322,0.7722c-1.2034,-5.2972 -1.8051,-8.094 -1.8051,-8.3919c2.617,-0.3409 4.0373,-0.5122 4.2609,-0.5122v0.0658c0.0431,0.0304 0.1089,0.676 0.195,1.9351c2.4009,-1.5942 3.6693,-2.3917 3.8052,-2.3917z" data-paper-data="{&quot;origPos&quot;:null}" fill="#000000"/><path d="M361.9245,184.05807c2.6364,0.0675 3.9546,0.1823 3.9546,0.3435c0.4523,6.8661 0.6793,10.5194 0.6793,10.9599c-1.9975,1.2718 -3.4271,2.1335 -4.2896,2.5866c-3.039,-0.9553 -4.5588,-1.5013 -4.5588,-1.6372c0.9806,-1.4329 1.5477,-2.1587 1.703,-2.1773c1.6557,0.8186 2.6077,1.2279 2.8558,1.2279l0.8844,-1.1629c-0.2363,-0.9612 -0.3941,-1.5292 -0.4751,-1.7022c-0.1359,0 -1.817,0.2726 -5.0424,0.8186c-1.7672,-2.8718 -2.6516,-4.3453 -2.6516,-4.4195c1.5258,-2.4373 2.4566,-3.8669 2.7917,-4.2888c0.0211,0 0.043,0 0.065,0c0.1797,0 1.519,0.2945 4.0187,0.8836c0,-0.0684 0,-0.1359 0,-0.2043c0,-0.2422 -0.0211,-0.6295 -0.065,-1.1629zM359.0037,188.00256c0.0869,0.1924 0.3595,1.2152 0.8186,3.0702c0.5772,-0.1865 1.4608,-0.5275 2.6516,-1.0237c-0.2296,-1.1165 -0.3444,-1.752 -0.3444,-1.9073c-0.1114,-0.0219 -0.2236,-0.043 -0.335,-0.0649c-0.1367,0 -0.2726,0 -0.4093,0c-0.5207,0 -1.3148,-0.0245 -2.3815,-0.0743z" data-paper-data="{&quot;origPos&quot;:null}" fill="#000000"/><path d="M372.838,184.03866c2.8094,1.4457 4.3664,2.2887 4.6702,2.5309c-0.4034,1.8853 -0.6414,2.8567 -0.7165,2.9124c-1.9595,0 -3.92,0 -5.8795,0c0,0.0337 0,0.0683 0,0.1021l1.6464,2.0372l2.5866,-1.3207c0.2541,0.4405 0.6203,1.2093 1.098,2.3072c-0.2237,0.0743 -1.8516,0.3131 -4.8846,0.7165c-2.5115,-1.6566 -3.7774,-2.5182 -3.7959,-2.5866c0.4034,-3.2187 0.6422,-4.8289 0.7164,-4.8289c2.6238,-1.1165 4.1437,-1.7393 4.5589,-1.8701zM372.2329,186.29026c-0.049,0.124 -0.3781,0.6177 -0.9857,1.4794c0,0.2607 0.3654,0.3907 1.0979,0.3907c0,0.0371 0.53,0.1274 1.5908,0.2701c0.2912,-0.4034 0.4372,-0.6389 0.4372,-0.7072c-0.0929,-0.552 -0.2946,-0.8279 -0.6051,-0.8279c-0.5114,-0.2017 -1.0228,-0.4034 -1.5351,-0.6051z" data-paper-data="{&quot;origPos&quot;:null}" fill="#000000"/><path d="M381.137,181.21996c1.3647,0.2423 2.7284,0.4836 4.093,0.7258c0.0355,-0.2827 -0.4261,3.39 -0.3907,3.1073c0.8127,-0.043 1.4085,-0.065 1.7866,-0.065c0.1983,0 0.3966,0 0.5958,0l0.1299,-0.065l0.065,0.13c-0.1299,1.8853 -0.2422,2.9461 -0.335,3.1816c-0.0431,-0.0245 -0.0869,-0.049 -0.13,-0.0743c-0.0928,0 -0.9308,-0.043 -2.5123,-0.13c-0.0869,1.4575 -0.1519,3.2002 -0.195,5.2289l-0.1308,0.065c-1.9967,-0.1308 -3.1874,-0.2422 -3.5723,-0.335l0.065,-0.2608c0,-0.5392 0.0869,-2.2144 0.2608,-5.0238c-1.6743,-0.0928 -2.5123,-0.2042 -2.5123,-0.335c0.0869,-2.0719 0.1991,-3.1073 0.335,-3.1073c0.8161,0.1552 1.6313,0.3105 2.4473,0.465v-0.8001c0,-0.6515 -0.0253,-1.5317 -0.0742,-2.6423c0.0489,0 0.0742,-0.0211 0.0742,-0.065z" data-paper-data="{&quot;origPos&quot;:null}" fill="#000000"/><path d="M394.5435,184.02938c3.6837,0.5089 5.5259,0.822 5.5259,0.9402c1.4516,1.2464 2.1774,1.9131 2.1774,2c-0.5891,1.8423 -0.9241,2.9622 -1.0052,3.3588c0.5891,1.3089 0.9241,2.0904 1.0052,2.3444c0,0.0743 -0.9613,0.2726 -2.8846,0.5958c-0.0244,-0.1055 -0.2016,-0.3418 -0.5299,-0.7072c-2.655,0.5081 -4.0846,0.7629 -4.2888,0.7629c-0.4718,-1.2751 -0.9427,-2.5494 -1.4144,-3.8238l3.1166,-1.6473c0.5021,0.081 1.2869,0.1215 2.3536,0.1215c0,-0.1367 0.0186,-0.5493 0.0557,-1.2371c-0.1797,0 -1.7857,0.1173 -4.8187,0.3527c-0.0186,-0.0396 -0.0371,-0.0801 -0.0557,-0.1207c0.4211,-1.9595 0.676,-2.9402 0.7629,-2.9402zM396.4786,189.50048c0,0.0684 0.1983,0.7933 0.5949,2.1765c0.0186,0 0.0372,0 0.0566,0c0.7815,-0.508 1.1722,-0.8431 1.1722,-1.0043l0.1207,-0.9958c-0.1494,0 -0.7975,-0.059 -1.9444,-0.1764z" data-paper-data="{&quot;origPos&quot;:null}" fill="#000000"/><path d="M37.909,201.13308c2.8094,1.4456 4.3664,2.2887 4.6702,2.5309c-0.4034,1.8853 -0.6414,2.8558 -0.7165,2.9123c-1.9595,0 -3.92,0 -5.8795,0c0,0.0338 0,0.0675 0,0.1021c0.5485,0.6794 1.0979,1.3579 1.6464,2.0373c0.8625,-0.4406 1.7242,-0.8802 2.5867,-1.3208c0.254,0.4406 0.6202,1.2094 1.0979,2.3073c-0.2237,0.0743 -1.8516,0.3131 -4.8846,0.7165c-2.5115,-1.6566 -3.7774,-2.5183 -3.7959,-2.5866c0.4034,-3.2196 0.6422,-4.8289 0.7165,-4.8289c2.6237,-1.1165 4.1436,-1.7393 4.5588,-1.8701zM37.3039,203.38456c-0.0489,0.1241 -0.3781,0.6178 -0.9857,1.4794c0,0.2608 0.3654,0.3908 1.0979,0.3908c0,0.0371 0.53,0.1274 1.5908,0.27c0.2912,-0.4034 0.4372,-0.6388 0.4372,-0.7072c-0.0929,-0.5519 -0.2946,-0.8279 -0.6051,-0.8279c-0.5114,-0.2017 -1.0228,-0.4034 -1.5351,-0.6051z" data-paper-data="{&quot;origPos&quot;:null}" fill="#2b70c2"/><path d="M50.0411,201.12378c0.0118,0 0.0245,0 0.0371,0c1.6558,0.9739 2.5487,1.4828 2.6795,1.5258c0,0.0278 0,0.0557 0,0.0844c-0.4279,0.4895 -1.2161,1.3393 -2.363,2.5486c2.2507,0.8372 3.5166,1.3427 3.7959,1.5165c-0.7012,0.865 -1.4017,1.7309 -2.103,2.5959c-1.4203,-1.2161 -2.3258,-1.9756 -2.7166,-2.2794c-0.9612,1.8735 -1.5595,2.974 -1.7958,3.3031h-0.0371c-1.7799,-0.627 -2.7478,-0.9992 -2.9023,-1.1165c0,-0.0161 0,-0.0312 0,-0.0464l2.4558,-3.2103c-2.2828,-0.9426 -3.5048,-1.4946 -3.6659,-1.6558c1.0051,-1.7055 1.5696,-2.6144 1.6937,-2.7258c0.0186,0.043 1.1224,0.8034 3.3115,2.2794c0.7756,-1.433 1.3123,-2.3731 1.6102,-2.8195z" data-paper-data="{&quot;origPos&quot;:null}" fill="#2b70c2"/><path d="M57.8186,198.31436c1.3647,0.2422 2.7293,0.4836 4.0939,0.7258c-0.1308,1.0355 -0.2608,2.0718 -0.3908,3.1073c0.8119,-0.0431 1.4077,-0.065 1.7858,-0.065c0.1991,0 0.3975,0 0.5958,0l0.1299,-0.065l0.065,0.13c-0.1299,1.8853 -0.2413,2.9461 -0.3342,3.1815l-0.1308,-0.0742c-0.0928,0 -0.93,-0.0431 -2.5115,-0.13c-0.0869,1.4574 -0.1519,3.2001 -0.1958,5.2281l-0.1299,0.0658c-1.9976,-0.1308 -3.1883,-0.2422 -3.5732,-0.3351c0.022,-0.0869 0.0439,-0.1738 0.0659,-0.2607c0,-0.5393 0.0869,-2.2145 0.2599,-5.0239c-1.6743,-0.0928 -2.5115,-0.205 -2.5115,-0.335c0.0869,-2.0718 0.1983,-3.1073 0.335,-3.1073l2.4465,0.465c0,-0.2667 0,-0.5333 0,-0.8c0,-0.6515 -0.0244,-1.5317 -0.0742,-2.6423c0.0498,0 0.0742,-0.022 0.0742,-0.065z" data-paper-data="{&quot;origPos&quot;:null}" fill="#2b70c2"/><path d="M71.7643,201.12378c1.2288,0.6886 1.9824,1.1351 2.2609,1.3401c-1.0043,2.0904 -1.5444,3.1537 -1.6186,3.1909c-0.022,0 -0.0431,0 -0.065,0l-1.3309,-1.1629l-1.5722,1.9165l0.1772,3.4887c-0.081,0.0743 -1.1072,0.2482 -3.0794,0.5216c-0.0743,-0.5334 -0.5587,-3.1478 -1.4515,-7.8434c0,-0.0742 1.2962,-0.2666 3.8887,-0.5764c0.0439,0.049 0.1612,0.6296 0.3536,1.7393c1.5503,-1.7426 2.363,-2.6144 2.4372,-2.6144z" data-paper-data="{&quot;origPos&quot;:null}" fill="#2b70c2"/><path d="M76.1746,201.12378c3.6846,0.5089 5.526,0.822 5.526,0.9401c1.4515,1.2465 2.1773,1.9132 2.1773,2.0001c-0.589,1.8423 -0.9241,2.9613 -1.0051,3.3588c0.5899,1.3089 0.9249,2.0904 1.0051,2.3444c0,0.0742 -0.9612,0.2726 -2.8836,0.5949c-0.0254,-0.1046 -0.2017,-0.3409 -0.5309,-0.7063c-2.6541,0.508 -4.0845,0.7629 -4.2888,0.7629c-0.4717,-1.2752 -0.9426,-2.5495 -1.4144,-3.8238l3.1166,-1.6473c0.503,0.081 1.287,0.1215 2.3546,0.1215c0,-0.1367 0.0185,-0.5494 0.0556,-1.238c-0.1797,0 -1.7865,0.1181 -4.8196,0.3536c-0.0185,-0.0397 -0.0371,-0.0802 -0.0557,-0.1207c0.422,-1.9596 0.676,-2.9402 0.7629,-2.9402zM78.1097,206.59487c0,0.0675 0.1984,0.7933 0.5959,2.1765c0.0185,0 0.0371,0 0.0557,0c0.7814,-0.5081 1.1721,-0.8431 1.1721,-1.0043l0.1207,-0.9958c-0.1485,0 -0.7966,-0.0591 -1.9444,-0.1764z" data-paper-data="{&quot;origPos&quot;:null}" fill="#2b70c2"/><path d="M93.842,198.31436c0.022,0.0405 0.0439,0.081 0.065,0.1207c0,0.3536 0.081,1.7216 0.2422,4.1031c2.2203,-0.7072 3.4643,-1.0794 3.731,-1.1165l3.3486,3.601c-1.4076,3.1562 -2.1739,4.8314 -2.298,5.0238c-0.3907,-0.0439 -1.8169,-0.1055 -4.2795,-0.1865c0,0.146 0,0.292 0,0.4372c0,0.081 -0.043,0.1215 -0.1299,0.1215c-1.2001,0 -2.4001,0 -3.6002,0c-0.1308,0 -0.3789,-1.8609 -0.7443,-5.5825c-0.081,-0.3165 -0.3072,-2.1799 -0.6794,-5.5918c2.109,-0.4962 3.5571,-0.8059 4.3445,-0.93zM94.4657,205.14338c0.0801,0.7654 0.1612,1.5317 0.2413,2.2979c0.6237,0 1.2473,0 1.8702,0c0.227,-0.8683 0.4531,-1.7367 0.6793,-2.6051c-1.8608,0.1612 -2.7908,0.2633 -2.7908,0.3072z" data-paper-data="{&quot;origPos&quot;:null}" fill="#2b70c2"/><path d="M105.937,201.13308c2.3571,0.6329 3.6061,1.0177 3.7495,1.1536c1.2963,1.8364 2.0246,2.8938 2.1858,3.1731c-0.8372,2.6541 -1.3182,3.9816 -1.4423,3.9816c-2.7908,0.6515 -4.2516,0.9773 -4.3816,0.9773c-2.3072,-1.3461 -3.5351,-2.0971 -3.6845,-2.2516c-0.0802,-2.5056 -0.1207,-3.8887 -0.1207,-4.1495c-0.0371,-0.0743 -0.0557,-0.13 -0.0557,-0.168c2.3815,-1.811 3.6128,-2.7165 3.6938,-2.7165c0.0186,0 0.0372,0 0.0557,0zM105.7598,204.53828c-0.0371,0.2481 -0.0928,1.1511 -0.1671,2.7073l2.0743,0.4658c0.4963,-1.5511 0.7444,-2.379 0.7444,-2.4845c-1.6499,-0.4962 -2.5335,-0.7443 -2.6516,-0.7443z" data-paper-data="{&quot;origPos&quot;:null}" fill="#2b70c2"/><path d="M116.4682,201.13308c2.3571,0.6329 3.6069,1.0177 3.7496,1.1536c1.2962,1.8364 2.0254,2.8938 2.1865,3.1731c-0.8371,2.6541 -1.3182,3.9816 -1.4422,3.9816c-2.7908,0.6515 -4.2517,0.9773 -4.3816,0.9773c-2.3081,-1.3461 -3.536,-2.0971 -3.6846,-2.2516c-0.081,-2.5056 -0.1206,-3.8887 -0.1206,-4.1495c-0.038,-0.0743 -0.0566,-0.13 -0.0566,-0.168c2.3824,-1.811 3.6137,-2.7165 3.6938,-2.7165c0.0186,0 0.0372,0 0.0557,0zM116.2919,204.53828c-0.0372,0.2481 -0.0929,1.1511 -0.168,2.7073c0.692,0.1552 1.3832,0.3105 2.0752,0.4658c0.4962,-1.5511 0.7443,-2.379 0.7443,-2.4845c-1.6498,-0.4962 -2.5342,-0.7443 -2.6515,-0.7443z" data-paper-data="{&quot;origPos&quot;:null}" fill="#2b70c2"/><path d="M130.7591,201.12378c1.7857,1.1418 2.7723,1.7992 2.9579,1.9722c-0.6447,1.433 -1.0135,2.1495 -1.1072,2.1495l-3.3858,-1.963c-0.0405,0 -0.081,0 -0.1215,0c0,0.0616 -0.1452,0.4093 -0.4371,1.0423c3.1199,1.6802 4.6795,2.5427 4.6795,2.5857c-0.8743,2.022 -1.3672,3.0896 -1.4794,3.201c-1.7646,0.1021 -3.5284,0.2042 -5.2931,0.3072c-2.0591,-1.3646 -3.1663,-2.0845 -3.3216,-2.1588c0,-0.0185 0,-0.0371 0,-0.0557c0,-0.1552 0.3072,-0.8532 0.9207,-2.0937l4.131,2.1494c0.1021,-0.4093 0.205,-0.8186 0.3072,-1.2279c-2.5554,-1.1477 -4.0753,-1.8642 -4.5589,-2.1494c0,-0.043 0,-0.0869 0,-0.13c0,-0.2354 0.4929,-1.281 1.4794,-3.1351c1.7427,-0.1646 3.4854,-0.3291 5.2289,-0.4937z" data-paper-data="{&quot;origPos&quot;:null}" fill="#2b70c2"/><path d="M137.4201,198.31436l4.0939,0.7258c0.0084,-0.0692 -0.4,3.1765 -0.3908,3.1073c0.8119,-0.0431 1.4077,-0.065 1.7858,-0.065c0.1983,0 0.3974,0 0.5958,0l0.1299,-0.065c0.022,0.043 0.0439,0.0869 0.065,0.13c-0.13,1.8853 -0.2413,2.9461 -0.3342,3.1815l-0.1308,-0.0742c-0.0928,0 -0.93,-0.0431 -2.5115,-0.13c-0.0869,1.4574 -0.1519,3.2001 -0.1958,5.2281l-0.1299,0.0658c-1.9976,-0.1308 -3.1883,-0.2422 -3.5732,-0.3351c0.022,-0.0869 0.0439,-0.1738 0.0659,-0.2607c0,-0.5393 0.0869,-2.2145 0.2599,-5.0239c-1.6743,-0.0928 -2.5115,-0.205 -2.5115,-0.335c0.0869,-2.0718 0.1983,-3.1073 0.335,-3.1073l2.4465,0.465c0,-0.2667 0,-0.5333 0,-0.8c0,-0.6515 -0.0244,-1.5317 -0.0742,-2.6423c0.0498,0 0.0742,-0.022 0.0742,-0.065z" data-paper-data="{&quot;origPos&quot;:null}" fill="#2b70c2"/><path d="M148.7801,198.65868c0.0118,0.0245 0.0245,0.0498 0.0371,0.0743c-0.6203,5.477 -0.968,8.3547 -1.0422,8.6341c-1.3148,-0.1241 -2.1461,-0.211 -2.4929,-0.2608c0,-0.0126 0,-0.0245 0,-0.0371c-0.1992,-2.5925 -0.3975,-5.185 -0.5959,-7.7775c0.1486,-0.0498 1.5132,-0.2608 4.0939,-0.633zM145.0955,207.55268c0.0439,0.0254 1.0111,0.0996 2.9031,0.2237c0.0118,0.0245 0.0245,0.0489 0.0371,0.0742c-0.2919,1.7115 -0.4776,2.5681 -0.5586,2.5681c-0.719,0 -1.4389,0 -2.1579,0c-0.0751,0 -0.1739,-0.8566 -0.2979,-2.5681c-0.0253,0 -0.0371,-0.0742 -0.0371,-0.2236c0.0742,-0.0245 0.1113,-0.0489 0.1113,-0.0743z" data-paper-data="{&quot;origPos&quot;:null}" fill="#000000"/></g></g></g></svg>