<svg version="1.1" xmlns="http://www.w3.org/2000/svg" xmlns:xlink="http://www.w3.org/1999/xlink" width="114.38652" height="41.98037" viewBox="0,0,114.38652,41.98037"><defs><linearGradient x1="277.7455" y1="158.40303" x2="277.7455" y2="200.3721" gradientUnits="userSpaceOnUse" id="color-1"><stop offset="0" stop-color="#ed3b3b"/><stop offset="1" stop-color="#f75f59"/></linearGradient><linearGradient x1="205.32804" y1="158.40303" x2="205.32804" y2="200.3721" gradientUnits="userSpaceOnUse" id="color-2"><stop offset="0" stop-color="#ed3b3b"/><stop offset="1" stop-color="#f75f59"/></linearGradient><linearGradient x1="241.16666" y1="158.42031" x2="241.16666" y2="200.38342" gradientUnits="userSpaceOnUse" id="color-3"><stop offset="0" stop-color="#ed3b3b"/><stop offset="1" stop-color="#f75f59"/></linearGradient><linearGradient x1="276.33857" y1="162.42698" x2="276.33857" y2="196.48224" gradientUnits="userSpaceOnUse" id="color-4"><stop offset="0" stop-color="#ed3b3b"/><stop offset="1" stop-color="#c53131"/></linearGradient></defs><g transform="translate(-184.34351,-158.40304)"><g data-paper-data="{&quot;isPaintingLayer&quot;:true}" fill-rule="nonzero" stroke-linejoin="miter" stroke-miterlimit="10" stroke-dasharray="" stroke-dashoffset="0" style="mix-blend-mode: normal"><g data-paper-data="{&quot;index&quot;:null}" stroke="#000000" stroke-width="0" stroke-linecap="butt"><path d="M277.7455,200.3721c-11.58944,0 -20.98453,-9.39509 -20.98453,-20.98453c0,-11.58944 9.39509,-20.98453 20.98453,-20.98453c11.58944,0 20.98453,9.39509 20.98453,20.98453c0,11.58944 -9.39509,20.98453 -20.98453,20.98453z" data-paper-data="{&quot;origPos&quot;:null,&quot;index&quot;:null}" fill="url(#color-1)"/><path d="M205.32804,200.3721c-11.58944,0 -20.98453,-9.3951 -20.98453,-20.98453c0,-11.58944 9.3951,-20.98453 20.98453,-20.98453c11.58944,0 20.98453,9.3951 20.98453,20.98453c0,11.58944 -9.3951,20.98453 -20.98453,20.98453z" data-paper-data="{&quot;origPos&quot;:null,&quot;index&quot;:null}" fill="url(#color-2)"/><path d="M205.08962,200.38342v-41.96308h72.15408v41.96308z" data-paper-data="{&quot;origPos&quot;:null,&quot;index&quot;:null}" fill="url(#color-3)"/></g><g><path d="M276.33857,162.42698c4.69771,0 8.95515,1.90752 12.0371,4.99053c3.08301,3.08195 4.99053,7.33939 4.99053,12.0371c0,4.69771 -1.90752,8.95515 -4.99053,12.0371c-3.08195,3.08301 -7.33939,4.99053 -12.0371,4.99053c-4.69771,0 -8.95515,-1.90752 -12.0371,-4.99053c-3.08301,-3.08195 -4.99053,-7.33939 -4.99053,-12.0371c0,-4.69771 1.90752,-8.95515 4.99053,-12.0371c3.08195,-3.08301 7.33939,-4.99053 12.0371,-4.99053z" data-paper-data="{&quot;origPos&quot;:null}" fill="url(#color-4)" stroke="#8c2323" stroke-width="1.25" stroke-linecap="butt"/><g data-paper-data="{&quot;origPos&quot;:null}" fill="#ffffff" stroke="#8c2323" stroke-width="2.5" stroke-linecap="round"><path d="M281.10348,172.05725l4.4839,-0.0013l-10.9864,11.355l-4.773,-0.0106z"/><path d="M282.81699,183.42875l-4.6467,-0.0178l-10.9864,-11.355l4.4839,0.0013z"/><path d="M285.74359,187.38135l-4.321,0.0153l-2.2573,-2.491l4.4839,0.0012z"/><path d="M268.77489,184.90684l4.4838,-0.0012l-2.2573,2.491l-4.321,-0.0153z"/></g><g fill="#ffffff" stroke="none" stroke-width="1.15762" stroke-linecap="round"><path d="M281.10348,172.05725l4.4839,-0.0013l-10.9864,11.355l-4.773,-0.0106z"/><path d="M282.81699,183.42875l-4.6467,-0.0178l-10.9864,-11.355l4.4839,0.0013z"/><path d="M285.74359,187.38135l-4.321,0.0153l-2.2573,-2.491l4.4839,0.0012z"/><path d="M268.77489,184.90684l4.4838,-0.0012l-2.2573,2.491l-4.321,-0.0153z"/></g></g><text transform="translate(195.02924,186.99436) scale(0.55786,0.55786)" font-size="40" xml:space="preserve" data-paper-data="{&quot;index&quot;:null}" fill="#f7f7f7" fill-rule="nonzero" stroke="none" stroke-width="1" stroke-linecap="butt" stroke-linejoin="miter" stroke-miterlimit="10" stroke-dasharray="" stroke-dashoffset="0" font-family="&quot;Microsoft YaHei&quot;, &quot;微软雅黑&quot;, STXihei, &quot;华文细黑&quot;" font-weight="normal" text-anchor="start" style="mix-blend-mode: normal"><tspan x="0" dy="0">Sure?</tspan></text></g></g></svg>