<svg version="1.1" xmlns="http://www.w3.org/2000/svg" xmlns:xlink="http://www.w3.org/1999/xlink" width="387.59308" height="62.52137" viewBox="0,0,387.59308,62.52137"><defs><linearGradient x1="45.98795" y1="149.7301" x2="45.98795" y2="209.6271" gradientUnits="userSpaceOnUse" id="color-1"><stop offset="0" stop-color="#cc7700"/><stop offset="1" stop-color="#995900"/></linearGradient><linearGradient x1="116.10825" y1="165.7679" x2="116.10825" y2="209.6271" gradientUnits="userSpaceOnUse" id="color-2"><stop offset="0" stop-color="#cc7700"/><stop offset="1" stop-color="#995900"/></linearGradient><linearGradient x1="167.64295" y1="165.8137" x2="167.64295" y2="209.6271" gradientUnits="userSpaceOnUse" id="color-3"><stop offset="0" stop-color="#cc7700"/><stop offset="1" stop-color="#995900"/></linearGradient><linearGradient x1="242.90985" y1="150.4164" x2="242.90985" y2="209.6287" gradientUnits="userSpaceOnUse" id="color-4"><stop offset="0" stop-color="#cc7700"/><stop offset="1" stop-color="#995900"/></linearGradient><linearGradient x1="303.71675" y1="167.6534" x2="303.71675" y2="209.6271" gradientUnits="userSpaceOnUse" id="color-5"><stop offset="0" stop-color="#cc7700"/><stop offset="1" stop-color="#995900"/></linearGradient><linearGradient x1="352.68555" y1="150.3713" x2="352.68555" y2="209.6271" gradientUnits="userSpaceOnUse" id="color-6"><stop offset="0" stop-color="#cc7700"/><stop offset="1" stop-color="#995900"/></linearGradient><linearGradient x1="411.85325" y1="152.0976" x2="411.85325" y2="209.6271" gradientUnits="userSpaceOnUse" id="color-7"><stop offset="0" stop-color="#cc7700"/><stop offset="1" stop-color="#995900"/></linearGradient></defs><g transform="translate(-46.01618,-148.81532)"><g data-paper-data="{&quot;isPaintingLayer&quot;:true}" fill-rule="nonzero" stroke-linecap="butt" stroke-linejoin="miter" stroke-miterlimit="10" stroke-dasharray="" stroke-dashoffset="0" style="mix-blend-mode: normal"><path d="M111.70795,150.3713l0.4403,0.6342l-1.7703,17.3856h-0.273l-20.935,-1.7702v40.3728l-8.5608,1.4532l-9.6968,1.1802l-0.3171,-0.5901l2.6862,-42.6892l-21.208,2.9153l-4.1395,-15.8885z" data-paper-data="{&quot;origPos&quot;:null}" fill="url(#color-1)" stroke="#573300" stroke-width="3"/><path d="M135.04735,166.2245l18.3809,3.6287l10.7009,15.5185l-7.0546,19.4818l-21.4371,4.7736l-18.0286,-11.0092l-0.5901,-20.3009l-0.273,-0.8191zM133.95525,180.8623l-0.8191,13.2463l10.1461,2.2811l3.6374,-12.1542l-12.9644,-3.6462z" data-paper-data="{&quot;origPos&quot;:null}" fill="url(#color-2)" stroke="#573300" stroke-width="3"/><path d="M186.12995,166.2245l18.8213,3.6287l10.6921,15.5185l-7.0547,19.4818l-21.4283,4.7736l-18.0286,-11.0092l-0.5901,-20.3009l-0.273,-0.8191zM185.46935,180.8623l-0.8191,13.2463l10.1549,2.2811l3.6374,-12.1542l-12.9732,-3.6462z" data-paper-data="{&quot;origPos&quot;:null}" fill="url(#color-3)" stroke="#573300" stroke-width="3"/><path d="M297.43595,165.0273l-5.2338,15.974l6.872,8.7851v0.5453l-9.8757,16.5217l-37.7319,2.7753l-8.5567,-52.3403l35.546,-6.872zM265.21285,180.7287l12.1058,-3.323l2.5027,-8.8294l-16.2466,-4.0967zM270.17404,186.5077h-3.0037l-0.5919,0.5477l-0.275,8.7828l-0.2726,1.6847l14.3381,-2.23l-0.2749,-1.3656v-1.6381l-0.2727,-6.0541z" data-paper-data="{&quot;origPos&quot;:null}" fill="url(#color-4)" stroke="#573300" stroke-width="3"/><path d="M308.11154,170.6282l29.5575,-1.8671l10.648,9.7849l-4.9145,16.4257l4.9145,11.476l-14.1093,2.9064l-2.5894,-3.4525l-20.9879,3.7255l-6.9137,-18.7068l15.2455,-8.0499l11.5112,0.5901l0.273,-6.0506l-23.5684,1.7262l-0.2731,-0.5901zM320.09835,190.9203l2.9153,10.6569h0.273l5.7336,-4.9145l0.59,-4.8705z" data-paper-data="{&quot;origPos&quot;:null}" fill="url(#color-5)" stroke="#573300" stroke-width="3"/><path d="M380.22605,150.3713h0.2731l20.5651,2.6863l6.0594,53.5662l-18.1607,3.0033l-0.273,-0.5901v-4.8704l-21.4811,5.4605l-14.5233,-20.8382l10.877,-18.7596l19.0767,0.916zM371.75345,183.0025l5.7424,15.4305l9.0539,-7.8738l-2.0961,-8.1468h-12.1013z" data-paper-data="{&quot;origPos&quot;:null}" fill="url(#color-6)" stroke="#573300" stroke-width="3"/><path d="M431.88115,152.0976l0.1849,0.3699l-5.0994,42.2312l-12.1982,-1.2683v-0.1849l-2.9152,-38.0478zM413.86135,195.6146l14.1974,1.0921l0.1849,0.3611l-2.739,12.5593h-10.5512l-1.462,-12.5593l-0.1762,-1.0921z" data-paper-data="{&quot;origPos&quot;:null}" fill="url(#color-7)" stroke="#573300" stroke-width="3"/><path fill="#de315c" stroke="#f3365f" stroke-width="5"/><g fill="none" stroke="none" stroke-width="1" font-family="sans-serif" font-weight="normal" font-size="12" text-anchor="start"/><g fill="#cccccc" stroke="#000000" stroke-width="0"><path/></g></g></g></svg>