<svg version="1.1" xmlns="http://www.w3.org/2000/svg" xmlns:xlink="http://www.w3.org/1999/xlink" width="43.72114" height="51.37414"><defs><linearGradient x1="240.0419" y1="178.54963" x2="240.0419" y2="203.02108" gradientUnits="userSpaceOnUse" id="color-1"><stop offset="0" stop-color="#73b612"/><stop offset="1" stop-color="#2e8d0e"/></linearGradient><linearGradient x1="229.36277" y1="188.56798" x2="229.36277" y2="205.74307" gradientUnits="userSpaceOnUse" id="color-2"><stop offset="0" stop-color="#73b612"/><stop offset="1" stop-color="#2e8d0e"/></linearGradient><linearGradient x1="250.78499" y1="188.1708" x2="250.78499" y2="205.34587" gradientUnits="userSpaceOnUse" id="color-3"><stop offset="0" stop-color="#73b612"/><stop offset="1" stop-color="#2e8d0e"/></linearGradient></defs><g transform="translate(-218.05397,-154.36892)"><g data-paper-data="{&quot;isPaintingLayer&quot;:true}" fill="none" fill-rule="nonzero" stroke="none" stroke-width="none" stroke-linecap="none" stroke-linejoin="miter" stroke-miterlimit="10" stroke-dasharray="" stroke-dashoffset="0" font-family="none" font-weight="none" font-size="none" text-anchor="none" style="mix-blend-mode: normal"><path d="M237.75341,178.54963h4.57697v24.47145h-4.57697z" data-paper-data="{&quot;origPos&quot;:null}" id="ID0.4741013334132731" fill="url(#color-1)" stroke-width="0.97987" stroke-linecap="butt"/><path d="M239.9001,154.36892c6.02754,0 11.48908,1.65535 15.44323,4.3295c3.95515,2.67316 6.4029,6.36616 6.4029,10.44145c0,4.07529 -2.44777,7.76829 -6.4029,10.44145c-3.95414,2.67417 -9.41569,4.3295 -15.44323,4.3295c-6.02754,0 -11.48908,-1.65535 -15.44323,-4.3295c-3.95515,-2.67316 -6.4029,-6.36616 -6.4029,-10.44145c0,-4.07529 2.44777,-7.76829 6.4029,-10.44145c3.95414,-2.67417 9.41569,-4.3295 15.44323,-4.3295z" id="ID0.8194569833576679" fill="#11ac1e" stroke-width="1" stroke-linecap="butt"/><path d="M239.80983,157.47128c4.86335,0 9.27011,1.33568 12.46053,3.4934c3.19132,2.1568 5.16631,5.13662 5.16631,8.42476c0,3.28825 -1.97499,6.26796 -5.16631,8.42487c-3.19042,2.1577 -7.59719,3.4934 -12.46053,3.4934c-4.86344,0 -9.2702,-1.33568 -12.46065,-3.4934c-3.19132,-2.15691 -5.16631,-5.13662 -5.16631,-8.42487c0,-3.28814 1.97499,-6.26796 5.16631,-8.42476c3.19042,-2.1577 7.59719,-3.4934 12.46065,-3.4934z" id="ID0.8194569833576679" fill="#96f018" stroke-width="0.80687" stroke-linecap="butt"/><path d="M239.98063,160.44285c3.6921,0 7.03745,1.01395 9.45948,2.65193c2.42275,1.63747 3.92207,3.89953 3.92207,6.39587c0,2.49622 -1.49934,4.75828 -3.92207,6.39575c-2.42203,1.63796 -5.76738,2.65193 -9.45948,2.65193c-3.6921,0 -7.03745,-1.01395 -9.45957,-2.65193c-2.42263,-1.63747 -3.92197,-3.89953 -3.92197,-6.39575c0,-2.49632 1.49934,-4.75839 3.92197,-6.39587c2.42215,-1.63796 5.76747,-2.65193 9.45957,-2.65193z" id="ID0.8194569833576679" fill="#ffffff" stroke-width="0.61254" stroke-linecap="butt"/><g id="ID0.04460352612659335" stroke-width="1"><path d="M235.92806,165.44095c0.53226,0.01291 1.05359,0.46076 1.26905,0.94732c0.42501,0.95725 0.56799,1.90459 0.56799,3.124c0,1.2194 -0.13108,2.17569 -0.56799,3.124c-0.23337,0.50942 -0.80136,0.9076 -1.36836,0.89767c-0.52728,0.00993 -1.11018,-0.36543 -1.36836,-0.89767c-0.45876,-0.9374 -0.56799,-1.90459 -0.56799,-3.124c0,-1.2194 0.09234,-2.19057 0.56799,-3.124c0.27307,-0.5392 0.89569,-0.93441 1.46766,-0.94732z" id="ID0.13159783789888024" fill="#000000" stroke-linecap="round"/><path d="M235.82876,166.18569c0.27408,0 0.52231,0.11123 0.70205,0.29094c0.17974,0.17974 0.29094,0.428 0.29094,0.70205c0,0.27408 -0.11123,0.52231 -0.29094,0.70205c-0.17974,0.17974 -0.428,0.29094 -0.70205,0.29094c-0.27408,0 -0.52231,-0.11123 -0.70205,-0.29094c-0.17974,-0.17974 -0.29094,-0.428 -0.29094,-0.70205c0,-0.27408 0.11123,-0.52231 0.29094,-0.70205c0.17974,-0.17974 0.428,-0.29094 0.70205,-0.29094z" id="ID0.8673957432620227" fill="#ffffff" stroke-linecap="butt"/></g><g id="ID0.04460352612659335" stroke-width="1"><path d="M243.77282,165.4906c0.53226,0.01291 1.05359,0.46076 1.26905,0.94732c0.42501,0.95725 0.56799,1.90459 0.56799,3.124c0,1.2194 -0.13108,2.17569 -0.56799,3.124c-0.23337,0.50942 -0.80136,0.9076 -1.36836,0.89767c-0.52728,0.00993 -1.11018,-0.36543 -1.36836,-0.89767c-0.45876,-0.9374 -0.56799,-1.90459 -0.56799,-3.124c0,-1.2194 0.09234,-2.19057 0.56799,-3.124c0.27307,-0.5392 0.89569,-0.93441 1.46766,-0.94732z" id="ID0.13159783789888024" fill="#000000" stroke-linecap="round"/><path d="M243.67351,166.23534c0.27408,0 0.52231,0.11123 0.70205,0.29094c0.17974,0.17974 0.29094,0.428 0.29094,0.70205c0,0.27408 -0.11123,0.52231 -0.29094,0.70205c-0.17974,0.17974 -0.428,0.29094 -0.70205,0.29094c-0.27408,0 -0.52231,-0.11123 -0.70205,-0.29094c-0.17974,-0.17974 -0.29094,-0.428 -0.29094,-0.70205c0,-0.27408 0.11123,-0.52231 0.29094,-0.70205c0.17974,-0.17974 0.428,-0.29094 0.70205,-0.29094z" id="ID0.8673957432620227" fill="#ffffff" stroke-linecap="butt"/></g><path d="M232.85204,191.62156c2.87416,1.81223 5.08718,4.0752 6.34263,6.26607c1.25536,2.19087 1.55037,4.31045 0.58756,5.83748c-0.96281,1.52705 -3.00245,2.17449 -5.52053,1.9862c-2.51807,-0.18827 -5.51396,-1.20957 -8.38811,-3.02182c-2.87425,-1.81223 -5.08727,-4.0752 -6.34263,-6.26607c-1.25545,-2.19096 -1.55049,-4.31045 -0.58766,-5.83748c0.96281,-1.52705 3.00245,-2.17449 5.52053,-1.9862c2.51807,0.18827 5.51396,1.20957 8.38823,3.02182z" data-paper-data="{&quot;origPos&quot;:null}" id="ID0.067250931635499" fill="url(#color-2)" stroke-width="2.05882" stroke-linecap="butt"/><path d="M255.68392,188.20255c2.51807,-0.18827 4.5577,0.45917 5.52053,1.9862c0.96281,1.52705 0.6678,3.64652 -0.58766,5.83748c-1.25536,2.19087 -3.46838,4.45382 -6.34263,6.26607c-2.87416,1.81223 -5.87006,2.83353 -8.38811,3.02182c-2.51807,0.18827 -4.5577,-0.45917 -5.52053,-1.9862c-0.96281,-1.52705 -0.6678,-3.64661 0.58756,-5.83748c1.25545,-2.19087 3.46847,-4.45382 6.34263,-6.26607c2.87425,-1.81223 5.87015,-2.83353 8.38823,-3.02182z" data-paper-data="{&quot;origPos&quot;:null}" id="ID0.067250931635499" fill="url(#color-3)" stroke-width="2.05882" stroke-linecap="butt"/></g></g></svg>