<svg version="1.1" xmlns="http://www.w3.org/2000/svg" xmlns:xlink="http://www.w3.org/1999/xlink" width="441.55828" height="69.66968" viewBox="0,0,441.55828,69.66968"><defs><linearGradient x1="24.5327" y1="284.2076" x2="24.5327" y2="341.819" gradientUnits="userSpaceOnUse" id="color-1"><stop offset="0" stop-color="#ffffff"/><stop offset="1" stop-color="#ffffff"/></linearGradient><radialGradient cx="433.55778" cy="324.91029" r="18.72682" gradientUnits="userSpaceOnUse" id="color-2"><stop offset="0" stop-color="#ffff00"/><stop offset="1" stop-color="#ff9400"/></radialGradient><radialGradient cx="437.13623" cy="326.02495" r="12.81669" gradientUnits="userSpaceOnUse" id="color-3"><stop offset="0" stop-color="#bda501"/><stop offset="1" stop-color="#c07801"/></radialGradient></defs><g transform="translate(-18.50356,-278.17846)"><g data-paper-data="{&quot;isPaintingLayer&quot;:true}" fill="none" fill-rule="nonzero" stroke="none" stroke-width="none" stroke-linecap="butt" stroke-linejoin="miter" stroke-miterlimit="10" stroke-dasharray="" stroke-dashoffset="0" font-family="none" font-weight="none" font-size="none" text-anchor="none" style="mix-blend-mode: normal"><path d="M24.5327,284.2076h429.5v57.6114h-429.5z" data-paper-data="{&quot;origPos&quot;:null}" id="ID0.3184669064357877" fill="#ffffff" stroke="url(#color-1)" stroke-width="12.05828"/><text transform="translate(25.78827,322.12447) scale(0.7218,0.72179)" font-size="22" xml:space="preserve" data-paper-data="{&quot;origPos&quot;:null}" id="ID0.08681221166625619" fill="#2492d1" fill-rule="nonzero" stroke="none" stroke-width="1" stroke-linecap="butt" stroke-linejoin="miter" stroke-miterlimit="10" stroke-dasharray="" stroke-dashoffset="0" font-family="Sans Serif" font-weight="400" text-anchor="start" style="mix-blend-mode: normal"><tspan x="0" dy="0">Complete Windows XP Scralaxy.</tspan></text><g data-paper-data="{&quot;origPos&quot;:null}" id="text128" fill="#2392d1" stroke="none" stroke-width="0.26458"><path d="M39.28483,285.87476c0.04862,0.10534 0.07294,0.18235 0.07294,0.23099c-0.04862,2.41535 -0.07294,3.81349 -0.07294,4.19444l-0.15802,0.07294c-3.72028,0.09724 -5.85194,0.14587 -6.39499,0.14587l-0.07293,0.15802c0.04862,0.89968 0.07293,1.63724 0.07293,2.21273v0.37688h0.07294l4.94822,-0.60789l0.08509,0.14587v3.73244c0,0.10534 -0.05267,0.15802 -0.15802,0.15802l-4.64428,-0.53494v0.44983c0,1.02125 0.02837,2.54503 0.08509,4.57132c-0.45389,0.10534 -1.82773,0.28367 -4.12149,0.53496c-0.14588,-0.28367 -0.8551,-4.98062 -2.1276,-14.09086h0.07293z" id="path278"/><path d="M47.24817,289.57073l0.08509,0.15802l-1.6413,8.70497h0.08509l4.18227,-1.22794v-4.92389c0.01621,-0.11346 0.06887,-0.17018 0.15802,-0.17018c3.1448,0.21884 4.89552,0.32826 5.25214,0.32826c0,0.05672 0.02837,0.08509 0.08509,0.08509c0,1.38598 -0.43767,4.25928 -1.31303,8.61986c0,0.25127 -1.25631,0.44174 -3.76892,0.57142c-0.12965,-0.154 -0.23907,-0.48228 -0.32826,-0.98479c-3.21775,0.65653 -5.05358,0.98479 -5.50747,0.98479c-2.56933,-1.91282 -3.85401,-2.8976 -3.85401,-2.95434c0.43767,-5.74658 0.71325,-8.72928 0.82673,-8.94811h0.07293c2.05061,-0.05672 3.9391,-0.13777 5.66551,-0.24315z" id="path280"/><path d="M56.68258,285.91123c2.48019,0.04862 4.29981,0.07293 5.45885,0.07293c0.10534,0 0.42551,4.97659 0.96046,14.92975c-0.41337,0.10534 -1.85608,0.37282 -4.32817,0.80242c-0.12155,0 -0.52276,-3.04755 -1.20361,-9.14264c-0.05672,-0.14591 -0.35257,-2.36673 -0.88753,-6.66248z" id="path282"/><path d="M64.46356,285.91123c2.48019,0.04862 4.2998,0.07293 5.45884,0.07293c0.10534,0 0.42551,4.97659 0.96046,14.92975c-0.41337,0.10534 -1.85608,0.37282 -4.32817,0.80242c-0.12155,0 -0.52276,-3.04755 -1.2036,-9.14264c-0.05672,-0.14591 -0.35257,-2.36673 -0.88753,-6.66248z" id="path284"/><path d="M85.31415,289.58288c3.67164,1.88851 5.70606,2.99081 6.10321,3.30691c-0.52684,2.46397 -0.83888,3.73241 -0.93615,3.80537h-7.68371v0.13371l2.15193,2.66254l3.37985,-1.72639c0.33231,0.57546 0.81051,1.5805 1.43461,3.01512c-0.29179,0.09724 -2.41939,0.40929 -6.38284,0.93615c-3.28259,-2.16408 -4.93604,-3.29072 -4.96035,-3.37987c0.52682,-4.2066 0.83888,-6.30989 0.93615,-6.30989c3.42849,-1.45893 5.41424,-2.27351 5.9573,-2.4437zM84.52389,292.52506c-0.06484,0.1621 -0.49439,0.80645 -1.28871,1.93309c0,0.34041 0.4782,0.51063 1.43462,0.51063c0,0.04862 0.693,0.16614 2.07897,0.35257c0.38094,-0.52684 0.57141,-0.83485 0.57141,-0.92399c-0.12155,-0.72135 -0.38498,-1.08203 -0.79024,-1.08203z" id="path286"/><path d="M103.76966,285.89907h0.08509c2.8206,1.65346 4.34033,2.51665 4.55917,2.5896v0.14587c-0.72946,0.83483 -2.07494,2.28161 -4.03638,4.34031c3.84185,1.42652 5.99783,2.28566 6.46793,2.57745l-3.57438,4.41328c-2.41535,-2.05872 -3.95939,-3.35149 -4.63212,-3.87834c-1.62915,3.18534 -2.64229,5.06169 -3.03944,5.62906h-0.08509c-3.02324,-1.06178 -4.66859,-1.694 -4.93607,-1.89663v-0.08509l4.18228,-5.471c-3.88238,-1.59672 -5.96135,-2.53287 -6.23693,-2.80844c1.71018,-2.90165 2.67469,-4.44975 2.89353,-4.64427c0.02431,0.08103 1.89661,1.37381 5.61691,3.87832c1.32114,-2.43154 2.23299,-4.02827 2.7355,-4.79016z" id="path288"/><path d="M120.89994,285.89907l5.30079,3.91481c-0.72946,3.33123 -1.19145,4.99684 -1.38597,4.99684c-0.04052,0 -1.01314,0.81863 -2.91787,2.45587c-1.18335,-0.05672 -2.53692,-0.13373 -4.06069,-0.23099l-0.15802,4.37679c-0.33231,0.09724 -1.76694,0.19856 -4.30384,0.30395c-0.308,0 -0.462,-0.87131 -0.462,-2.61394c-0.55925,-7.21361 -0.83888,-11.10408 -0.83888,-11.67145c0.94831,-0.20262 3.89049,-0.71325 8.82654,-1.53188zM117.60518,289.35187v5.06979c1.99387,-0.35663 2.99081,-0.56331 2.99081,-0.62005l0.693,-2.9908c-0.98073,-0.40527 -2.20867,-0.89158 -3.68381,-1.45895z" id="path290"/><path d="M134.48018,289.58288c3.67164,1.88851 5.70605,2.99081 6.1032,3.30691c-0.52684,2.46397 -0.83888,3.73241 -0.93614,3.80537h-7.68371v0.13371l2.15191,2.66254l3.37987,-1.72639c0.33231,0.57546 0.81052,1.5805 1.43462,3.01512c-0.29179,0.09724 -2.41941,0.40929 -6.38284,0.93615c-3.28259,-2.16408 -4.93605,-3.29072 -4.96038,-3.37987c0.52684,-4.2066 0.83888,-6.30989 0.93615,-6.30989c3.42849,-1.45893 5.41426,-2.27351 5.95732,-2.4437zM133.68992,292.52506c-0.06484,0.1621 -0.4944,0.80645 -1.28872,1.93309c0,0.34041 0.4782,0.51063 1.43462,0.51063c0,0.04862 0.693,0.16614 2.07898,0.35257c0.38094,-0.52684 0.57141,-0.83485 0.57141,-0.92399c-0.12155,-0.72135 -0.38498,-1.08203 -0.79024,-1.08203z" id="path292"/><path d="M150.41899,289.57073c1.60483,0.89968 2.58962,1.48324 2.95435,1.7507c-1.31304,2.73145 -2.01818,4.12149 -2.11545,4.17013h-0.08509l-1.73857,-1.51973l-2.05467,2.5045l0.23099,4.55917c-0.10534,0.09724 -1.44675,0.3242 -4.0242,0.68084c-0.09724,-0.69704 -0.72945,-4.11337 -1.89663,-10.249c0,-0.09724 1.69398,-0.34851 5.08195,-0.75378c0.05672,0.06484 0.21072,0.82267 0.46201,2.27351c2.02629,-2.27756 3.08805,-3.41634 3.18532,-3.41634z" id="path294"/><path d="M156.01156,284.69546l4.778,0.75378c-0.59977,2.29376 -0.99287,3.44065 -1.1793,3.44065c-2.5126,-0.1702 -3.7689,-0.33635 -3.7689,-0.49847v-3.52576c0.02431,-0.11346 0.08103,-0.17018 0.17018,-0.17018zM154.67421,290.48254h0.07293c3.69597,0.67273 5.54396,1.06584 5.54396,1.17932c-1.06178,6.01404 -1.70616,9.36554 -1.9331,10.05448h-3.85401c-0.11346,0 -0.17018,-0.05671 -0.17018,-0.17017z" id="path296"/><path d="M168.08425,289.58288c3.67164,1.88851 5.70604,2.99081 6.10318,3.30691c-0.52682,2.46397 -0.83888,3.73241 -0.93614,3.80537h-7.68371v0.13371l2.15193,2.66254l3.37987,-1.72639c0.3323,0.57546 0.8105,1.5805 1.4346,3.01512c-0.29179,0.09724 -2.41939,0.40929 -6.38282,0.93615c-3.2826,-2.16408 -4.93606,-3.29072 -4.96037,-3.37987c0.52684,-4.2066 0.83888,-6.30989 0.93614,-6.30989c3.42849,-1.45893 5.41426,-2.27351 5.95732,-2.4437zM167.294,292.52506c-0.06484,0.1621 -0.49439,0.80645 -1.28871,1.93309c0,0.34041 0.4782,0.51063 1.4346,0.51063c0,0.04862 0.693,0.16614 2.07898,0.35257c0.38096,-0.52684 0.57142,-0.83485 0.57142,-0.92399c-0.12155,-0.72135 -0.38498,-1.08203 -0.79026,-1.08203z" id="path298"/><path d="M186.08992,289.57073l4.04853,2.78411c-0.28367,4.61996 -0.48226,7.31899 -0.59574,8.09707c-0.47009,0.05672 -1.90064,0.14183 -4.29168,0.25532l-0.08509,-0.17018l-0.42552,-6.49224l-0.17018,-0.08509c-1.54808,0.33231 -2.61391,0.58358 -3.19748,0.75378c0.1621,2.76386 0.24315,4.76179 0.24315,5.99379c-2.41535,0.67273 -3.73649,1.0091 -3.96343,1.0091c-1.57241,-6.92182 -2.35861,-10.57726 -2.35861,-10.96632c3.42037,-0.44577 5.27648,-0.66867 5.56827,-0.66867v0.08509c0.05672,0.04052 0.14183,0.88347 0.2553,2.52883c3.13672,-2.08304 4.79422,-3.12455 4.97253,-3.12455z" id="path300"/><path d="M196.12005,289.58288c3.65545,0.68894 5.56827,1.08203 5.73847,1.17929v0.14587c-0.7862,2.22083 -1.1793,3.37177 -1.1793,3.45282h-0.07294c-0.20262,0 -1.18335,-0.3161 -2.94217,-0.9483c-0.98073,1.64534 -1.47111,2.52475 -1.47111,2.63823l2.43157,2.35861c1.88039,-1.76693 2.83681,-2.6504 2.86924,-2.6504c1.46703,1.92094 2.20056,2.99891 2.20056,3.23397c-0.80242,0.46201 -2.20058,1.36978 -4.19445,2.72335c-3.85805,-0.83483 -5.94108,-1.30089 -6.24909,-1.39815l-1.90876,-6.17614z" id="path302"/><path d="M211.80359,289.58288c3.67164,1.88851 5.70605,2.99081 6.1032,3.30691c-0.52684,2.46397 -0.83888,3.73241 -0.93614,3.80537h-7.68371v0.13371l2.15193,2.66254l3.37984,-1.72639c0.33231,0.57546 0.81052,1.5805 1.43462,3.01512c-0.29179,0.09724 -2.41939,0.40929 -6.38284,0.93615c-3.28259,-2.16408 -4.93604,-3.29072 -4.96035,-3.37987c0.52682,-4.2066 0.83888,-6.30989 0.93615,-6.30989c3.42849,-1.45893 5.41424,-2.27351 5.9573,-2.4437zM211.01333,292.52506c-0.06484,0.1621 -0.49439,0.80645 -1.28871,1.93309c0,0.34041 0.4782,0.51063 1.43462,0.51063c0,0.04862 0.693,0.16614 2.07897,0.35257c0.38094,-0.52684 0.57141,-0.83485 0.57141,-0.92399c-0.12155,-0.72135 -0.38498,-1.08203 -0.79024,-1.08203z" id="path304"/></g><g stroke="none"><text transform="translate(283,338.98128) scale(0.60677,0.60677)" font-size="40" xml:space="preserve" data-paper-data="{&quot;origPos&quot;:null}" fill="#2392d1" fill-rule="nonzero" stroke="none" stroke-width="1" stroke-linecap="butt" stroke-linejoin="miter" stroke-miterlimit="10" stroke-dasharray="" stroke-dashoffset="0" font-family="Sans Serif" font-weight="normal" text-anchor="start" style="mix-blend-mode: normal"><tspan x="0" dy="0">Reward: +15</tspan></text><path d="M438.22633,321.71811c2.42757,0 4.62707,0.98611 6.21986,2.5789c1.5928,1.59272 2.57884,3.79221 2.57884,6.21979c0,2.4275 -0.98603,4.62709 -2.57884,6.21981c-1.5928,1.5928 -3.79229,2.5789 -6.21986,2.5789c-2.4275,0 -4.62699,-0.98611 -6.2198,-2.5789c-1.5928,-1.59272 -2.5789,-3.79231 -2.5789,-6.21981c0,-2.42757 0.98611,-4.62706 2.5789,-6.21979c1.5928,-1.5928 3.7923,-2.5789 6.2198,-2.5789z" data-paper-data="{&quot;origPos&quot;:null}" id="ID0.7142658131197095" fill="url(#color-2)" stroke-width="0.48028"/><path d="M436.38196,323.73549h3.47092v13.31086h-3.47092z" data-paper-data="{&quot;origPos&quot;:null}" id="ID0.06001657713204622" fill="url(#color-3)" stroke-width="0.59798"/></g></g></g></svg>