<svg version="1.1" xmlns="http://www.w3.org/2000/svg" xmlns:xlink="http://www.w3.org/1999/xlink" width="762.64544" height="248.13389" viewBox="0,0,762.64544,248.13389"><defs><linearGradient x1="-121.3664" y1="252.8145" x2="-121.933" y2="381.188" gradientUnits="userSpaceOnUse" id="color-1"><stop offset="0" stop-color="#935f0a"/><stop offset="1" stop-color="#de7b19"/></linearGradient><linearGradient x1="347.1404" y1="297.6373" x2="412.439" y2="408.1641" gradientUnits="userSpaceOnUse" id="color-2"><stop offset="0" stop-color="#935f0a"/><stop offset="1" stop-color="#de7b19"/></linearGradient><linearGradient x1="52" y1="244" x2="52" y2="287" gradientUnits="userSpaceOnUse" id="color-3"><stop offset="0" stop-color="#ffc96b"/><stop offset="1" stop-color="#ffc96b" stop-opacity="0"/></linearGradient><linearGradient x1="416.09171" y1="244.88796" x2="438.12116" y2="281.81631" gradientUnits="userSpaceOnUse" id="color-4"><stop offset="0" stop-color="#ffc96b"/><stop offset="1" stop-color="#ffc96b" stop-opacity="0"/></linearGradient></defs><g transform="translate(123.99515,-162.8422)"><g data-paper-data="{&quot;isPaintingLayer&quot;:true}" fill="none" fill-rule="nonzero" stroke="none" stroke-width="none" stroke-linecap="none" stroke-linejoin="miter" stroke-miterlimit="10" stroke-dasharray="" stroke-dashoffset="0" font-family="none" font-weight="none" font-size="none" text-anchor="none" style="mix-blend-mode: normal"><path d="M-121.3664,252.8145l259.4716,1.1452l-0.5667,128.3735l-259.4715,-1.1452z" id="ID0.29126935824751854" fill="url(#color-1)" stroke="#372403" stroke-width="4.10622" stroke-linecap="butt"/><path d="M347.1404,297.6373l223.3993,-131.9831l65.2986,110.5268l-223.3993,131.9831z" data-paper-data="{&quot;origPos&quot;:null}" id="ID0.29126935824751854" fill="url(#color-2)" stroke="#372403" stroke-width="4.10622" stroke-linecap="butt"/><g data-paper-data="{&quot;origPos&quot;:null}" stroke-linecap="round"><g stroke-width="0.5"><g data-paper-data="{&quot;origPos&quot;:null,&quot;origRot&quot;:0}" stroke="#665415"><path d="M50.74612,300.38075l-4.05633,-3.20797l-1.82342,-5.10504l-0.42418,-3.63215l2.61587,-5.62348l2.11803,-6.38349l3.47606,-12.26914l1.37271,4.7486l4.66902,8.4544l3.88841,5.27296l2.36839,6.26863l0.37704,3.22857l-0.7394,4.17711l-2.49509,3.15492l-3.94145,1.27846l1.41393,12.10715l-6.41003,1.15767l0.96037,-12.7935z" data-paper-data="{&quot;origPos&quot;:null}" fill="#9fa827"/><path d="M54.2239,302.83813l-0.63854,-30.68793l4.72256,29.2292" data-paper-data="{&quot;origPos&quot;:null}" fill="none"/><path d="M61.84759,292.45724l-3.78239,4.04159" data-paper-data="{&quot;origPos&quot;:null}" fill="none"/><path d="M60.38887,288.37321l-2.85153,3.60562" data-paper-data="{&quot;origPos&quot;:null}" fill="none"/><path d="M56.47687,288.50281l2.56638,-3.24506" data-paper-data="{&quot;origPos&quot;:null}" fill="none"/><path d="M55.9113,283.65994l1.38806,-2.12565" data-paper-data="{&quot;origPos&quot;:null}" fill="none"/><path d="M56.12578,277.08969l-1.42576,1.8028l-3.53021,-2.20581" data-paper-data="{&quot;origPos&quot;:null}" fill="none"/><path d="M49.50362,293.2443l4.0793,4.10525" data-paper-data="{&quot;origPos&quot;:null}" fill="none"/><path d="M50.38028,289.54206l2.99761,3.2498" data-paper-data="{&quot;origPos&quot;:null}" fill="none"/><path d="M50.32611,286.27578l3.20735,2.24352" data-paper-data="{&quot;origPos&quot;:null}" fill="none"/><path d="M53.25304,283.31587l-2.52394,-1.99607" data-paper-data="{&quot;origPos&quot;:null}" fill="none"/></g><g data-paper-data="{&quot;origPos&quot;:null,&quot;origRot&quot;:0}" stroke="#665415"><path d="M100.13691,267.2111l-4.7041,2.14855l-5.37505,-0.70354l-3.42634,-1.27778l-3.81334,-4.89128l-4.71672,-4.79453l-9.3367,-8.68568l4.85238,0.94227l9.65323,-0.30289l6.46564,-1.058l6.65914,0.74877l3.04563,1.1358l3.38111,2.56185l1.6711,3.65874l-0.65834,4.09098l11.42109,4.25922l-1.89088,6.23323l-10.94995,-6.68542z" data-paper-data="{&quot;origPos&quot;:null}" fill="#9fa827"/><path d="M103.90923,265.23543l-27.60665,-13.4175l28.16949,9.11746" data-paper-data="{&quot;origPos&quot;:null}" fill="none"/><path d="M100.01721,258.92713l-1.87366,-5.20868" data-paper-data="{&quot;origPos&quot;:null}" fill="none"/><path d="M95.75334,257.33703l-1.90984,-4.18141" data-paper-data="{&quot;origPos&quot;:null}" fill="none"/><path d="M92.176,256.69678l-1.71885,-3.76327" data-paper-data="{&quot;origPos&quot;:null}" fill="none"/><path d="M87.60756,254.99309l-1.25947,-2.20428" data-paper-data="{&quot;origPos&quot;:null}" fill="none"/><path d="M81.85705,251.80782l0.95492,2.09071l-3.57229,2.13699" data-paper-data="{&quot;origPos&quot;:null}" fill="none"/><path d="M98.73167,263.30458l-5.51324,1.76009" data-paper-data="{&quot;origPos&quot;:null}" fill="none"/><path d="M94.58137,261.40991l-4.25882,1.18713" data-paper-data="{&quot;origPos&quot;:null}" fill="none"/><path d="M90.84922,259.32426l-3.45871,1.83243" data-paper-data="{&quot;origPos&quot;:null}" fill="none"/><path d="M83.1628,258.53932l2.927,-1.33689" data-paper-data="{&quot;origPos&quot;:null}" fill="none"/></g><g data-paper-data="{&quot;origPos&quot;:null,&quot;origRot&quot;:0}" stroke="#674116"><path d="M110.5752,299.71289l-4.93744,-1.53832l-3.53421,-4.11043l-1.69956,-3.23789l0.4232,-6.18766l-0.31425,-6.71836l-1.15917,-12.69927l2.98561,3.9395l7.39236,6.21527l5.52188,3.52599l4.4605,5.00088l1.51072,2.87812l0.80912,4.16417l-1.19648,3.84024l-3.21998,2.60793l5.6652,10.79295l-5.5674,3.38121l-3.69544,-12.28576z" fill="#a87927"/><path d="M114.70326,300.7583l-11.61046,-28.41399l14.89879,25.58661" fill="none"/><path d="M118.0931,288.33281l-2.07977,5.12986" fill="none"/><path d="M113.89833,289.43331l1.3674,-4.38884" fill="none"/><path d="M111.66091,286.56953l1.23066,-3.94996" fill="none"/><path d="M109.39484,282.25234l0.53262,-2.48223" fill="none"/><path d="M107.23683,276.04288l-0.6837,2.19442l-4.0867,-0.79178" fill="none"/><path d="M112.13502,295.86549l-5.28094,-2.36758" fill="none"/><path d="M106.34355,289.72771l3.96429,1.95735" fill="none"/><path d="M108.91953,287.64135l-3.79889,-0.94284" fill="none"/><path d="M103.71801,281.92811l3.07219,0.95718" fill="none"/></g><g data-paper-data="{&quot;origPos&quot;:null,&quot;origRot&quot;:0}" stroke="#661515"><path d="M73.79334,301.61404l-4.83875,-1.8252l-3.28712,-4.31057l-1.50679,-3.33197l0.7853,-6.1522l0.08022,-6.72522l-0.41256,-12.74539l2.74948,4.10778l7.01522,6.63804l5.30562,3.8437l4.1596,5.25381l1.33937,2.96175l0.56354,4.20445l-1.41958,3.76346l-3.36734,2.41465l5.02261,11.10657l-5.75609,3.04893l-2.9687,-12.48129z" data-paper-data="{&quot;origPos&quot;:null}" fill="#a85a27"/><path d="M77.85298,302.89969l-9.92442,-29.04588l13.37288,26.41618" data-paper-data="{&quot;origPos&quot;:null}" fill="none"/><path d="M79.58859,295.69343l2.37698,-4.99909" data-paper-data="{&quot;origPos&quot;:null}" fill="none"/><path d="M77.71348,291.54697l1.62239,-4.30109" data-paper-data="{&quot;origPos&quot;:null}" fill="none"/><path d="M77.10798,284.68592l-1.46014,3.87101" data-paper-data="{&quot;origPos&quot;:null}" fill="none"/><path d="M73.63878,284.1143l0.67726,-2.44673" data-paper-data="{&quot;origPos&quot;:null}" fill="none"/><path d="M71.84859,277.789l-0.81119,2.15056l-4.03324,-1.03004" data-paper-data="{&quot;origPos&quot;:null}" fill="none"/><path d="M70.44304,295.19156l5.13303,2.67315" data-paper-data="{&quot;origPos&quot;:null}" fill="none"/><path d="M73.99712,293.58433l-3.84269,-2.18644" data-paper-data="{&quot;origPos&quot;:null}" fill="none"/><path d="M72.84833,289.46618l-3.73707,-1.16397" data-paper-data="{&quot;origPos&quot;:null}" fill="none"/><path d="M71.00152,284.59344l-3.01078,-1.13566" data-paper-data="{&quot;origPos&quot;:null}" fill="none"/></g><g data-paper-data="{&quot;origPos&quot;:null,&quot;origRot&quot;:0}" stroke="#665415"><path d="M128.66654,287.576l-3.91268,-3.38169l-1.59921,-5.17965l-0.26549,-3.64718l2.85845,-5.50414l2.39421,-6.28512l4.00743,-12.10601l1.16448,4.80391l4.29615,8.64984l3.65493,5.4374l2.09296,6.36588l0.23598,3.24193l-0.92073,4.14092l-2.63021,3.04318l-3.99343,1.10548l0.88498,12.15726l-6.45439,0.87723l1.51699,-12.73949z" data-paper-data="{&quot;origPos&quot;:null}" fill="#9fa827"/><path d="M132.03393,290.1826l0.69941,-30.6866l3.4443,29.40723" data-paper-data="{&quot;origPos&quot;:null}" fill="none"/><path d="M136.14787,284.01673l3.95493,-3.87292" data-paper-data="{&quot;origPos&quot;:null}" fill="none"/><path d="M135.81746,279.47802l3.00595,-3.47793" data-paper-data="{&quot;origPos&quot;:null}" fill="none"/><path d="M134.90947,275.95909l2.70535,-3.13013" data-paper-data="{&quot;origPos&quot;:null}" fill="none"/><path d="M134.5555,271.09617l1.47938,-2.06315" data-paper-data="{&quot;origPos&quot;:null}" fill="none"/><path d="M135.0561,264.5415l-1.50297,1.73896l-3.43072,-2.35755" data-paper-data="{&quot;origPos&quot;:null}" fill="none"/><path d="M127.73622,280.39219l3.89653,4.27912" data-paper-data="{&quot;origPos&quot;:null}" fill="none"/><path d="M131.62655,280.109l-2.85314,-3.37734" data-paper-data="{&quot;origPos&quot;:null}" fill="none"/><path d="M128.86162,273.46612l3.10653,2.38116" data-paper-data="{&quot;origPos&quot;:null}" fill="none"/><path d="M129.48019,268.53242l2.43456,2.10416" data-paper-data="{&quot;origPos&quot;:null}" fill="none"/></g><g data-paper-data="{&quot;origPos&quot;:null,&quot;origRot&quot;:0}" stroke="#674116"><path d="M103.42715,313.77756l-4.39291,2.72895l-5.4209,-0.01477l-3.56094,-0.83197l-4.40402,-4.36702l-5.28778,-4.15624l-10.3648,-7.42873l4.93279,0.31799l9.53647,-1.5272l6.27876,-1.87108l6.70031,-0.10357l3.16527,0.73954l3.67927,2.1114l2.12252,3.4167l-0.13312,4.14148l11.86977,2.77327l-1.08342,6.42297l-11.71077,-5.23965z" fill="#a87927"/><path d="M106.9178,311.33853l-29.08796,-9.80039l29.09978,5.46367" fill="none"/><path d="M99.73525,300.64763l2.5204,4.92834" fill="none"/><path d="M95.39857,300.63582l2.42573,3.90481" fill="none"/><path d="M94.19459,304.36019l-2.18315,-3.51432" fill="none"/><path d="M89.44669,303.25088l-1.5294,-2.02635" fill="none"/><path d="M83.33801,300.82223l1.21287,1.9524l-3.27176,2.57364" fill="none"/><path d="M101.53684,310.08131l-5.24487,2.44645" fill="none"/><path d="M97.17942,308.72942l-4.07342,1.71874" fill="none"/><path d="M93.21247,307.13498l-3.19779,2.25711" fill="none"/><path d="M85.48864,307.3332l2.73336,-1.698" fill="none"/></g><g data-paper-data="{&quot;origPos&quot;:null,&quot;origRot&quot;:0}" stroke="#674116"><path d="M128.15938,275.52999l2.79174,4.35327l0.06306,5.42055l-0.78077,3.5725l-4.30334,4.46628l-4.07989,5.34692l-7.27914,10.47038l0.24713,-4.93684l-1.66396,-9.51357l-1.96104,-6.25124l-0.19975,-6.69813l0.69402,-3.17557l2.05835,-3.7092l3.38589,-2.17136l4.14295,0.07364l2.60256,-11.90836l6.43787,0.99108l-5.07097,11.78479z" fill="#dea433"/><path d="M125.67048,272.0747l-9.38174,29.22567l5.04531,-29.17522" fill="none"/><path d="M119.97547,276.8191l-4.89165,2.5909" fill="none"/><path d="M119.00385,281.26488l-3.86957,2.48155" fill="none"/><path d="M118.87554,284.8968l-3.48262,2.23339" fill="none"/><path d="M115.83034,291.21848l2.00419,-1.55833" fill="none"/><path d="M115.49383,295.80306l1.93479,-1.24077l2.62035,3.23447" fill="none"/><path d="M124.49066,277.47316l2.5215,5.2092" fill="none"/><path d="M124.97851,285.89787l-1.77703,-4.04833" fill="none"/><path d="M121.66413,285.83897l2.3028,3.16506" fill="none"/><path d="M120.23617,290.85047l1.73709,2.70871" fill="none"/></g><g data-paper-data="{&quot;origPos&quot;:null,&quot;origRot&quot;:0}" stroke="#665415"><path d="M99.51015,295.92465l4.95087,-1.49457l5.23109,1.42196l3.22272,1.72815l3.11891,5.36084l4.02709,5.3868l8.08013,9.86542l-4.68099,-1.58802l-9.6059,-1.00163l-6.54925,0.17642l-6.49735,-1.63994l-2.86464,-1.53613l-3.00476,-2.9944l-1.16245,-3.85067l1.204,-3.96483l-10.7424,-5.76047l2.71418,-5.9213l9.94838,8.10098z" data-paper-data="{&quot;origPos&quot;:null}" fill="#ded633"/><path d="M95.50586,297.37357l25.54511,17.01777l-26.68268,-12.83291" data-paper-data="{&quot;origPos&quot;:null}" fill="none"/><path d="M99.66578,309.56287l-1.15414,-5.41377" data-paper-data="{&quot;origPos&quot;:null}" fill="none"/><path d="M103.85066,310.70044l-1.32852,-4.40077" data-paper-data="{&quot;origPos&quot;:null}" fill="none"/><path d="M105.98046,307.41648l1.19567,3.96069" data-paper-data="{&quot;origPos&quot;:null}" fill="none"/><path d="M110.27743,309.72067l0.95072,2.35399" data-paper-data="{&quot;origPos&quot;:null}" fill="none"/><path d="M115.54587,313.65232l-0.66425,-2.20038l3.82784,-1.63574" data-paper-data="{&quot;origPos&quot;:null}" fill="none"/><path d="M100.37575,299.98499l5.70024,-1.00053" data-paper-data="{&quot;origPos&quot;:null}" fill="none"/><path d="M108.61264,301.82006l-4.38001,0.60197" data-paper-data="{&quot;origPos&quot;:null}" fill="none"/><path d="M107.64943,304.99192l3.67423,-1.34927" data-paper-data="{&quot;origPos&quot;:null}" fill="none"/><path d="M115.15979,306.80623l-3.08054,0.92995" data-paper-data="{&quot;origPos&quot;:null}" fill="none"/></g><g data-paper-data="{&quot;origPos&quot;:null,&quot;origRot&quot;:0}" stroke="#661515"><path d="M104.90024,279.02709l-0.52751,5.14457l-3.327,4.27987l-2.83604,2.30853l-6.14853,0.8136l-6.52226,1.64173l-12.21639,3.65719l3.26839,-3.70827l4.62402,-8.47909l2.35961,-6.11196l4.01584,-5.3645l2.52093,-2.05203l3.92066,-1.61967l4.00133,0.41029l3.19526,2.63816l9.45348,-7.69508l4.41916,4.78535l-11.3076,6.06089z" data-paper-data="{&quot;origPos&quot;:null}" fill="#de7633"/><path d="M105.10534,274.77367l-25.54353,17.02014l22.11963,-19.68174" data-paper-data="{&quot;origPos&quot;:null}" fill="none"/><path d="M97.69484,274.938l-5.44064,-1.01997" data-paper-data="{&quot;origPos&quot;:null}" fill="none"/><path d="M89.59261,277.34192l4.57294,0.46892" data-paper-data="{&quot;origPos&quot;:null}" fill="none"/><path d="M91.80294,280.57224l-4.11566,-0.42202" data-paper-data="{&quot;origPos&quot;:null}" fill="none"/><path d="M85.48298,283.62102l2.53857,0.02925" data-paper-data="{&quot;origPos&quot;:null}" fill="none"/><path d="M82.36408,286.99803l2.28647,0.23445l0.03528,4.16253" data-paper-data="{&quot;origPos&quot;:null}" fill="none"/><path d="M99.54769,283.90794l1.27207,-5.64584" data-paper-data="{&quot;origPos&quot;:null}" fill="none"/><path d="M97.08527,280.88284l-1.1314,4.27396" data-paper-data="{&quot;origPos&quot;:null}" fill="none"/><path d="M93.39765,283.04628l-0.16992,3.91045" data-paper-data="{&quot;origPos&quot;:null}" fill="none"/><path d="M88.83075,289.27847l0.32822,-3.20106" data-paper-data="{&quot;origPos&quot;:null}" fill="none"/></g><g data-paper-data="{&quot;origPos&quot;:null,&quot;origRot&quot;:0}" stroke="#674116"><path d="M102.52957,249.33985l4.72079,-2.11164l5.36938,0.74565l3.41622,1.30459l3.77489,4.92102l4.679,4.83134l9.26834,8.75859l-4.84485,-0.98028l-9.6553,0.22724l-6.47373,1.00729l-6.65307,-0.80094l-3.03663,-1.15963l-3.36093,-2.58826l-1.64238,-3.67173l0.69038,-4.08569l-11.38736,-4.34861l1.93967,-6.2182l10.89721,6.77102z" fill="#dea433"/><path d="M98.74188,251.28588l27.50066,13.63345l-28.09718,-9.33794" fill="none"/><path d="M102.58434,257.6245l1.83278,5.2232" fill="none"/><path d="M108.71262,263.44422l-1.877,-4.19625" fill="none"/><path d="M110.40783,259.91623l1.68929,3.77663" fill="none"/><path d="M114.96278,261.65567l1.24217,2.21409" fill="none"/><path d="M120.68815,264.88591l-0.9385,-2.09813l3.58893,-2.10893" fill="none"/><path d="M109.43102,251.54043l-5.52687,1.71682" fill="none"/><path d="M112.30746,254.03067l-4.26799,1.15373" fill="none"/><path d="M115.22812,255.49396l-3.47296,1.80527" fill="none"/><path d="M119.43518,258.14439l-2.93738,1.3139" fill="none"/></g><g data-paper-data="{&quot;origPos&quot;:null,&quot;origRot&quot;:0}" stroke="#674116"><path d="M39.67973,264.7557l4.31246,2.85437l2.24753,4.93304l0.72905,3.58342l-2.1322,5.82409l-1.57202,6.5394l-2.42876,12.51864l-1.76837,-4.61589l-5.36553,-8.03042l-4.31933,-4.92617l-2.88871,-6.0465l-0.64804,-3.18526l0.38441,-4.22459l2.22008,-3.35415l3.81958,-1.60636l-2.43015,-11.94473l6.28952,-1.69424l0.12221,12.82893z" fill="#a87927"/><path d="M36.00707,262.60044l3.22484,30.5247l-7.17127,-28.72667" fill="none"/><path d="M29.28618,273.5874l3.428,-4.34623" fill="none"/><path d="M31.08422,277.53383l2.53722,-3.8333" fill="none"/><path d="M34.97134,277.0747l-2.28351,3.44997" fill="none"/><path d="M34.73959,284.08778l1.20381,-2.23518" fill="none"/><path d="M36.2839,288.41754l1.26861,-1.91665l3.7037,1.90017" fill="none"/><path d="M37.10875,268.01538l4.41105,3.74653" fill="none"/><path d="M40.95852,275.5249l-3.26105,-2.98535" fill="none"/><path d="M41.28804,278.77498l-3.38517,-1.96497" fill="none"/><path d="M41.30453,283.74728l-2.68332,-1.77606" fill="none"/></g><g data-paper-data="{&quot;origPos&quot;:null,&quot;origRot&quot;:0}" stroke="#665415"><path d="M26.04653,274.01308l2.81423,4.33877l0.09112,5.42014l-0.76228,3.5765l-4.28017,4.48848l-4.05217,5.36795l-7.22487,10.50791l0.22158,-4.93806l-1.71316,-9.50483l-1.99336,-6.24102l-0.23442,-6.69701l0.67758,-3.1791l2.03913,-3.7198l3.37461,-2.18884l4.14328,0.05219l2.54089,-11.92167l6.44293,0.95776l-5.00993,11.81086z" data-paper-data="{&quot;origPos&quot;:null}" fill="#9fa827"/><path d="M23.53976,270.57073l-9.23039,29.27381l4.89429,-29.20093" data-paper-data="{&quot;origPos&quot;:null}" fill="none"/><path d="M17.86937,275.34451l-4.87817,2.61618" data-paper-data="{&quot;origPos&quot;:null}" fill="none"/><path d="M16.92078,279.79527l-3.85668,2.50153" data-paper-data="{&quot;origPos&quot;:null}" fill="none"/><path d="M16.81127,283.4278l-3.47102,2.25138" data-paper-data="{&quot;origPos&quot;:null}" fill="none"/><path d="M15.79492,288.19648l-1.9961,1.56867" data-paper-data="{&quot;origPos&quot;:null}" fill="none"/><path d="M13.48603,294.35142l1.92835,-1.25077l2.63705,3.22086" data-paper-data="{&quot;origPos&quot;:null}" fill="none"/><path d="M22.38789,275.97521l2.54843,5.19608" data-paper-data="{&quot;origPos&quot;:null}" fill="none"/><path d="M22.91933,284.39729l-1.79796,-4.03908" data-paper-data="{&quot;origPos&quot;:null}" fill="none"/><path d="M21.92384,287.50864l-2.31914,-3.15311" data-paper-data="{&quot;origPos&quot;:null}" fill="none"/><path d="M18.20266,289.37436l1.75109,2.69968" data-paper-data="{&quot;origPos&quot;:null}" fill="none"/></g><g data-paper-data="{&quot;origPos&quot;:null,&quot;origRot&quot;:0}" stroke="#674116"><path d="M61.03097,254.80681l4.97972,-1.39544l5.20166,1.52612l3.18758,1.79213l3.01126,5.42205l3.91875,5.46612l7.88157,10.02477l-4.64836,-1.68117l-9.58399,-1.1932l-6.55146,0.04564l-6.46331,-1.76931l-2.8334,-1.59301l-2.94438,-3.05379l-1.08535,-3.87311l1.28292,-3.94l-10.62526,-5.9738l2.83185,-5.86592l9.78467,8.29796z" fill="#a87927"/><path d="M56.99856,256.17548l25.20029,17.52436l-26.42118,-13.36302" fill="none"/><path d="M60.91431,268.44541l-1.04583,-5.43573" fill="none"/><path d="M65.07563,269.66629l-1.24039,-4.42641" fill="none"/><path d="M68.38693,270.40928l-1.11635,-3.98377" fill="none"/><path d="M72.42422,271.18753l-0.90354,-2.3725" fill="none"/><path d="M76.70959,272.85107l-0.6202,-2.21321l3.85974,-1.55899" fill="none"/><path d="M67.53442,257.99707l-5.71907,0.88653" fill="none"/><path d="M70.01395,260.88274l-4.39114,0.51442" fill="none"/><path d="M68.98764,264.03475l3.70042,-1.27565" fill="none"/><path d="M76.46026,265.99863l-3.09848,0.86827" fill="none"/></g><g data-paper-data="{&quot;origPos&quot;:null,&quot;origRot&quot;:0}" stroke="#665415"><path d="M62.68258,271.60407l-4.92074,1.59096l-5.25785,-1.31954l-3.25586,-1.6649l-3.22299,-5.29892l-4.13151,-5.30714l-8.27121,-9.70577l4.71111,1.49632l9.62363,0.81388l6.54456,-0.30427l6.52813,1.51275l2.89408,1.4799l3.06266,2.93516l1.23741,3.82725l-1.12635,3.98759l10.85284,5.54962l-2.59803,5.97317l-10.10467,-7.90517z" data-paper-data="{&quot;origPos&quot;:null}" fill="#ded633"/><path d="M66.65782,270.07724l-25.87253,-16.51572l26.92817,12.30944" data-paper-data="{&quot;origPos&quot;:null}" fill="none"/><path d="M63.52031,263.3617l-1.25964,-5.3902" data-paper-data="{&quot;origPos&quot;:null}" fill="none"/><path d="M58.0544,256.91586l1.41418,4.37398" data-paper-data="{&quot;origPos&quot;:null}" fill="none"/><path d="M55.98911,260.24078l-1.27278,-3.93659" data-paper-data="{&quot;origPos&quot;:null}" fill="none"/><path d="M51.64797,258.02094l-0.9965,-2.33499" data-paper-data="{&quot;origPos&quot;:null}" fill="none"/><path d="M46.30377,254.19291l0.7071,2.187l-3.79517,1.71017" data-paper-data="{&quot;origPos&quot;:null}" fill="none"/><path d="M61.73786,267.56141l-5.67962,1.11165" data-paper-data="{&quot;origPos&quot;:null}" fill="none"/><path d="M53.4667,265.88753l4.36742,-0.68737" data-paper-data="{&quot;origPos&quot;:null}" fill="none"/><path d="M50.72061,264.11823l3.64718,-1.42077" data-paper-data="{&quot;origPos&quot;:null}" fill="none"/><path d="M46.82344,261.03016l3.0618,-0.98994" data-paper-data="{&quot;origPos&quot;:null}" fill="none"/></g><g data-paper-data="{&quot;origPos&quot;:null,&quot;origRot&quot;:0}" stroke="#661515"><path d="M47.32501,293.25954l-1.228,-5.02364l1.69935,-5.14766l1.89781,-3.12581l5.51979,-2.82811l5.59421,-3.73362l10.28293,-7.54164l-1.83579,4.58949l-1.51329,9.53869l-0.17365,6.54932l-1.98465,6.40047l-1.68694,2.7785l-3.15062,2.84052l-3.90727,0.9551l-3.89487,-1.41405l-6.32604,10.41938l-5.76787,-3.02658l8.62079,-9.50148z" data-paper-data="{&quot;origPos&quot;:null}" fill="#de7633"/><path d="M48.55797,297.3355l18.35794,-24.59964l-14.2398,25.95912" data-paper-data="{&quot;origPos&quot;:null}" fill="none"/><path d="M55.48437,294.69593l5.46769,-0.86332" data-paper-data="{&quot;origPos&quot;:null}" fill="none"/><path d="M57.84609,290.80602l4.46544,-1.09154" data-paper-data="{&quot;origPos&quot;:null}" fill="none"/><path d="M63.16494,286.42988l-4.01891,0.9824" data-paper-data="{&quot;origPos&quot;:null}" fill="none"/><path d="M64.07788,282.42091l-2.40142,0.82362" data-paper-data="{&quot;origPos&quot;:null}" fill="none"/><path d="M65.8839,278.19361l-2.23273,0.54578l-1.42894,-3.90974" data-paper-data="{&quot;origPos&quot;:null}" fill="none"/><path d="M51.42577,292.61205l-0.69463,-5.74554" data-paper-data="{&quot;origPos&quot;:null}" fill="none"/><path d="M54.06534,288.89084l-0.36716,-4.4059" data-paper-data="{&quot;origPos&quot;:null}" fill="none"/><path d="M55.66298,281.87513l1.15109,3.74105" data-paper-data="{&quot;origPos&quot;:null}" fill="none"/><path d="M59.79103,281.33928l-0.76409,-3.12581" data-paper-data="{&quot;origPos&quot;:null}" fill="none"/></g><g data-paper-data="{&quot;origPos&quot;:null,&quot;origRot&quot;:0}" stroke="#674116"><path d="M73.85685,313.73499l-5.07477,-0.99579l-3.95765,-3.70448l-2.03948,-3.03528l-0.24787,-6.19717l-1.03834,-6.64506l-2.52458,-12.49966l3.39381,3.59383l8.02065,5.38011l5.87054,2.90869l4.97474,4.48963l1.81286,2.69804l1.25434,4.05236l-0.77454,3.94705l-2.91933,2.94057l6.79824,10.11763l-5.16946,3.96297l-5.00133,-11.81452z" fill="#dea433"/><path d="M78.07368,314.32824l-14.61269,-26.99308l17.57627,23.82694" fill="none"/><path d="M78.58777,306.93377l1.51328,-5.32456" fill="none"/><path d="M76.93493,298.64563l-0.88517,4.5109" fill="none"/><path d="M73.51601,300.55127l0.79665,-4.05981" fill="none"/><path d="M71.05802,293.97897l-0.2613,2.52524" fill="none"/><path d="M67.98039,290.5643l-0.44258,2.25545l-4.14832,-0.34557" fill="none"/><path d="M69.48596,307.95849l5.50585,1.78309" fill="none"/><path d="M68.57104,304.26551l4.15257,1.51754" fill="none"/><path d="M70.90649,301.91304l-3.87851,-0.52685" fill="none"/><path d="M65.11809,296.79528l3.15762,0.61962" fill="none"/></g><g data-paper-data="{&quot;origPos&quot;:null,&quot;origRot&quot;:0}" stroke="#674116"><path d="M43.92075,316.93784l-5.12241,0.71118l-4.94834,-2.21364l-2.9168,-2.20562l-2.25258,-5.77859l-3.14584,-5.94464l-6.45771,-10.99605l4.3792,2.29266l9.33554,2.47472l6.49777,0.83826l6.16568,2.62475l2.5927,1.96055l2.50567,3.42295l0.55314,3.9841l-1.80252,3.73101l9.72262,7.35207l-3.59701,5.43047l-8.5763,-9.54165z" fill="#dea433"/><path d="M48.10089,316.12544l-22.6069,-20.7626l24.3778,16.80392" fill="none"/><path d="M45.87554,303.43955l0.30325,5.52711" fill="none"/><path d="M41.91687,301.66866l0.63215,4.55325" fill="none"/><path d="M38.73601,300.48592l0.56893,4.09792" fill="none"/><path d="M34.84054,299.17033l0.57535,2.47268" fill="none"/><path d="M30.81866,296.94411l0.31607,2.27662l-4.03471,1.02426" fill="none"/><path d="M37.90691,312.8997l5.78639,-0.1072" fill="none"/><path d="M35.83917,309.70603l4.42041,0.08243" fill="none"/><path d="M37.28116,306.72121l-3.83864,0.76499" fill="none"/><path d="M30.14164,303.76756l3.18726,-0.4425" fill="none"/></g><g data-paper-data="{&quot;origPos&quot;:null,&quot;origRot&quot;:0}" stroke="#665415"><path d="M1.9461,268.90732l-4.60599,2.35151l-5.40061,-0.46864l-3.47877,-1.12725l-4.02287,-4.72046l-4.92119,-4.58442l-9.70633,-8.27054l4.88883,0.72992l9.63086,-0.72328l6.41339,-1.33875l6.68545,0.45786l3.09223,1.002l3.48954,2.41206l1.82896,3.58244l-0.47943,4.11579l11.59585,3.75745l-1.61745,6.30971l-11.23088,-6.20189z" data-paper-data="{&quot;origPos&quot;:null}" fill="#9fa827"/><path d="M5.62875,266.76913l-28.16515,-12.2017l28.54007,7.88121" data-paper-data="{&quot;origPos&quot;:null}" fill="none"/><path d="M-0.63335,255.51435l2.09887,5.12208" data-paper-data="{&quot;origPos&quot;:null}" fill="none"/><path d="M-2.8636,259.23366l-2.09024,-4.09421" data-paper-data="{&quot;origPos&quot;:null}" fill="none"/><path d="M-6.46544,258.74992l-1.88122,-3.6848" data-paper-data="{&quot;origPos&quot;:null}" fill="none"/><path d="M-11.10378,257.24693l-1.35433,-2.14731" data-paper-data="{&quot;origPos&quot;:null}" fill="none"/><path d="M-16.98764,254.31529l1.04512,2.0471l-3.47577,2.29064" data-paper-data="{&quot;origPos&quot;:null}" fill="none"/><path d="M0.37196,265.06575l-5.4313,1.99867" data-paper-data="{&quot;origPos&quot;:null}" fill="none"/><path d="M-3.85697,263.35374l-4.20304,1.37159" data-paper-data="{&quot;origPos&quot;:null}" fill="none"/><path d="M-11.05203,263.41413l3.37557,-1.98142" data-paper-data="{&quot;origPos&quot;:null}" fill="none"/><path d="M-15.38977,260.98348l2.86595,-1.46317" data-paper-data="{&quot;origPos&quot;:null}" fill="none"/></g><g data-paper-data="{&quot;origPos&quot;:null,&quot;origRot&quot;:0}" stroke="#661515"><path d="M2.90043,291.0106l-3.33657,-3.95123l-0.77072,-5.36583l0.30733,-3.6439l3.68293,-4.99022l3.34635,-5.83412l5.8488,-11.33166l0.39999,4.92682l2.89265,9.21462l2.76094,5.94145l1.07315,6.61463l-0.27318,3.23901l-1.5561,3.94633l-3.07317,2.5951l-4.11707,0.46828l-1.02442,12.14632l-6.51218,-0.14149l3.48782,-12.3463z" data-paper-data="{&quot;origPos&quot;:null}" fill="#a85a27"/><path d="M5.81943,294.11109l5.483,-30.20089l-1.19033,29.58432" data-paper-data="{&quot;origPos&quot;:null}" fill="none"/><path d="M10.84578,288.66332l4.51122,-3.20779" data-paper-data="{&quot;origPos&quot;:null}" fill="none"/><path d="M11.22823,284.12868l3.5122,-2.96583" data-paper-data="{&quot;origPos&quot;:null}" fill="none"/><path d="M14.04189,277.84188l-3.16097,2.66926" data-paper-data="{&quot;origPos&quot;:null}" fill="none"/><path d="M11.2907,275.65261l1.78341,-1.80681" data-paper-data="{&quot;origPos&quot;:null}" fill="none"/><path d="M12.80875,269.25653l-1.7561,1.48292l-3.02047,-2.8644" data-paper-data="{&quot;origPos&quot;:null}" fill="none"/><path d="M6.28384,288.60476l-3.18047,-4.83512" data-paper-data="{&quot;origPos&quot;:null}" fill="none"/><path d="M6.99017,284.09745l-2.29071,-3.78145" data-paper-data="{&quot;origPos&quot;:null}" fill="none"/><path d="M5.29655,277.10429l2.69657,2.83708" data-paper-data="{&quot;origPos&quot;:null}" fill="none"/><path d="M8.75411,274.78627l-2.07608,-2.45854" data-paper-data="{&quot;origPos&quot;:null}" fill="none"/></g><g data-paper-data="{&quot;origPos&quot;:null,&quot;origRot&quot;:0}" stroke="#661515"><path d="M-26.76046,307.09753l-4.9137,-1.61259l-3.47185,-4.16323l-1.65056,-3.26315l0.51645,-6.18058l-0.21294,-6.72233l-0.96759,-12.7153l2.92588,3.98406l7.29783,6.32602l5.46809,3.60883l4.3846,5.06755l1.46717,2.90057l0.74622,4.1759l-1.25423,3.82175l-3.25892,2.5591l5.50185,10.87713l-5.61775,3.29688l-3.50981,-12.34006z" data-paper-data="{&quot;origPos&quot;:null}" fill="#a85a27"/><path d="M-22.64864,308.20505l-11.18077,-28.58579l14.51136,25.80831" data-paper-data="{&quot;origPos&quot;:null}" fill="none"/><path d="M-19.07187,295.83207l-2.15686,5.09793" data-paper-data="{&quot;origPos&quot;:null}" fill="none"/><path d="M-21.84933,292.50148l-1.43341,4.36771" data-paper-data="{&quot;origPos&quot;:null}" fill="none"/><path d="M-25.47674,293.97201l1.29006,-3.93096" data-paper-data="{&quot;origPos&quot;:null}" fill="none"/><path d="M-27.67747,289.62116l0.56999,-2.47392" data-paper-data="{&quot;origPos&quot;:null}" fill="none"/><path d="M-29.74162,283.37987l-0.7167,2.18387l-4.07429,-0.8533" data-paper-data="{&quot;origPos&quot;:null}" fill="none"/><path d="M-25.14281,303.27408l-5.24464,-2.44693" data-paper-data="{&quot;origPos&quot;:null}" fill="none"/><path d="M-30.8411,297.04967l3.93432,2.0169" data-paper-data="{&quot;origPos&quot;:null}" fill="none"/><path d="M-28.23397,295.0024l-3.78424,-1.00001" data-paper-data="{&quot;origPos&quot;:null}" fill="none"/><path d="M-33.34878,289.21139l3.05741,1.00338" data-paper-data="{&quot;origPos&quot;:null}" fill="none"/></g><g data-paper-data="{&quot;origPos&quot;:null,&quot;origRot&quot;:0}" stroke="#674116"><path d="M7.26253,315.28616l-4.26981,2.9178l-5.41639,0.22148l-3.59381,-0.676l-4.59014,-4.17095l-5.46389,-3.92185l-10.67868,-6.96999l4.94196,0.10272l9.46086,-1.94133l6.19125,-2.14293l6.68943,-0.39545l3.19449,0.6009l3.76778,1.94905l2.2694,3.32096l0.04749,4.14335l11.97935,2.25337l-0.80248,6.46408l-11.92798,-4.72433z" fill="#a87927"/><path d="M10.64359,312.69732l-29.48742,-8.52347l29.31024,4.19036" fill="none"/><path d="M5.73474,307.14341l-2.73277,-4.81382" fill="none"/><path d="M-1.33113,302.50678l2.5936,3.79539" fill="none"/><path d="M-2.37166,306.28007l-2.33422,-3.41585" fill="none"/><path d="M-7.1634,305.37873l-1.61625,-1.95778" fill="none"/><path d="M-13.37211,303.21859l1.2968,1.89769l-3.15649,2.71377" fill="none"/><path d="M5.21293,311.6758l-5.13327,2.67269" fill="none"/><path d="M-3.1939,312.4097l3.99465,-1.89462" fill="none"/><path d="M-3.23192,309.09503l-3.09639,2.39432" fill="none"/><path d="M-10.93977,309.62965l2.65677,-1.81551" fill="none"/></g><g data-paper-data="{&quot;origPos&quot;:null,&quot;origRot&quot;:0}" stroke="#674116"><path d="M41.8045,269.99712l2.9788,4.22747l0.29922,5.41264l-0.62434,3.60314l-4.10461,4.64957l-3.843,5.51963l-6.81595,10.77765l0.03176,-4.94293l-2.07698,-9.43201l-2.23159,-6.15985l-0.49146,-6.68306l0.55497,-3.20279l1.89475,-3.79537l3.28805,-2.31685l4.14222,-0.10698l2.08113,-12.01047l6.47495,0.70959l-4.55259,11.99458z" fill="#dea433"/><path d="M39.16736,266.65358l-8.0992,29.60675l3.76909,-29.36737" fill="none"/><path d="M33.68453,271.64165l-4.77408,2.8016" fill="none"/><path d="M29.14981,278.77337l3.75776,-2.64783" fill="none"/><path d="M29.55569,282.14265l3.38198,-2.38304" fill="none"/><path d="M30.17083,286.20798l1.93438,-1.64418" fill="none"/><path d="M30.03444,290.80288l1.87888,-1.32391l2.75882,3.11719" fill="none"/><path d="M40.97005,277.1927l-2.74612,-5.09438" fill="none"/><path d="M37.1267,276.52673l1.95177,3.96704" fill="none"/><path d="M35.76468,280.57936l2.43854,3.06171" fill="none"/><path d="M34.55644,285.64833l1.85348,2.63043" fill="none"/></g><g data-paper-data="{&quot;origPos&quot;:null,&quot;origRot&quot;:0}" stroke="#665415"><path d="M2.57125,297.62091l4.88104,-1.70891l5.28808,1.19265l3.29497,1.58607l3.34957,5.21983l4.25801,5.20619l8.50238,9.50392l-4.74575,-1.38252l-9.64042,-0.58207l-6.53534,0.46166l-6.56263,-1.35523l-2.92886,-1.40983l-3.1324,-2.86061l-1.32915,-3.79636l1.03008,-4.01353l-10.98323,-5.28687l2.45355,-6.03395l10.29196,7.65975z" data-paper-data="{&quot;origPos&quot;:null}" fill="#ded633"/><path d="M-1.3661,299.24295l26.26246,15.88837l-27.21657,-11.65792" data-paper-data="{&quot;origPos&quot;:null}" fill="none"/><path d="M1.9321,305.88105l1.38897,5.35833" data-paper-data="{&quot;origPos&quot;:null}" fill="none"/><path d="M6.0325,307.85481l1.51903,4.33869" data-paper-data="{&quot;origPos&quot;:null}" fill="none"/><path d="M9.5362,308.81985l1.36713,3.90483" data-paper-data="{&quot;origPos&quot;:null}" fill="none"/><path d="M13.92951,310.93459l1.05239,2.31033" data-paper-data="{&quot;origPos&quot;:null}" fill="none"/><path d="M19.36427,314.63291l-0.75952,-2.16934l3.75292,-1.801" data-paper-data="{&quot;origPos&quot;:null}" fill="none"/><path d="M3.61297,301.63966l5.65122,-1.24798" data-paper-data="{&quot;origPos&quot;:null}" fill="none"/><path d="M11.92201,303.11404l-4.34962,0.79227" data-paper-data="{&quot;origPos&quot;:null}" fill="none"/><path d="M14.70989,304.81675l-3.61194,1.50811" data-paper-data="{&quot;origPos&quot;:null}" fill="none"/><path d="M18.68023,307.81015l-3.03708,1.06332" data-paper-data="{&quot;origPos&quot;:null}" fill="none"/></g><g data-paper-data="{&quot;origPos&quot;:null,&quot;origRot&quot;:0}" stroke="#661515"><path d="M8.60632,275.59083l2.77325,4.36507l0.04008,5.42076l-0.79591,3.56916l-4.32224,4.44799l-4.10252,5.32957l-7.32348,10.43943l0.26806,-4.93575l-1.62361,-9.52053l-1.93451,-6.2595l-0.17135,-6.69892l0.70747,-3.17259l2.07407,-3.70043l3.39505,-2.15698l4.14261,0.09119l2.65302,-11.89722l6.43362,1.01837l-5.1209,11.76319z" data-paper-data="{&quot;origPos&quot;:null}" fill="#de7633"/><path d="M6.13208,272.12503l-9.50558,29.18562l5.16897,-29.15356" data-paper-data="{&quot;origPos&quot;:null}" fill="none"/><path d="M-4.48558,279.41536l4.90259,-2.57013" data-paper-data="{&quot;origPos&quot;:null}" fill="none"/><path d="M-4.45351,283.75197l3.88006,-2.46511" data-paper-data="{&quot;origPos&quot;:null}" fill="none"/><path d="M-4.20921,287.13681l3.49206,-2.21861" data-paper-data="{&quot;origPos&quot;:null}" fill="none"/><path d="M-3.78914,291.2269l2.01078,-1.54981" data-paper-data="{&quot;origPos&quot;:null}" fill="none"/><path d="M-4.14509,295.81003l1.94003,-1.23256l2.60661,3.24554" data-paper-data="{&quot;origPos&quot;:null}" fill="none"/><path d="M7.42878,282.73828l-2.49939,-5.21984" data-paper-data="{&quot;origPos&quot;:null}" fill="none"/><path d="M5.38152,285.94514l-1.75985,-4.05582" data-paper-data="{&quot;origPos&quot;:null}" fill="none"/><path d="M4.35679,289.04699l-2.28935,-3.1748" data-paper-data="{&quot;origPos&quot;:null}" fill="none"/><path d="M2.3438,293.59363l-1.72559,-2.71604" data-paper-data="{&quot;origPos&quot;:null}" fill="none"/></g><g data-paper-data="{&quot;origPos&quot;:null,&quot;origRot&quot;:0}" stroke="#665415"><path d="M-27.14481,276.44678l3.58667,3.72567l1.11834,5.30429l-0.06951,3.65618l-3.35031,5.21936l-2.95952,6.03956l-5.09884,11.68832l-0.71982,-4.89033l-3.48627,-9.0068l-3.14183,-5.74916l-1.50141,-6.53075l0.06178,-3.24993l1.29594,-4.03924l2.89774,-2.78963l4.07786,-0.73526l0.23165,-12.18724l6.50759,-0.28268l-2.67683,12.54713z" data-paper-data="{&quot;origPos&quot;:null}" fill="#ded633"/><path d="M-30.25944,273.54286l-3.50564,30.49372l-0.7378,-29.59906" data-paper-data="{&quot;origPos&quot;:null}" fill="none"/><path d="M-34.92055,279.30625l-4.29286,3.49461" data-paper-data="{&quot;origPos&quot;:null}" fill="none"/><path d="M-35.00702,283.85614l-3.3117,3.18815" data-paper-data="{&quot;origPos&quot;:null}" fill="none"/><path d="M-34.42499,287.44342l-2.98054,2.86933" data-paper-data="{&quot;origPos&quot;:null}" fill="none"/><path d="M-34.51766,292.31832l-1.66202,1.91906" data-paper-data="{&quot;origPos&quot;:null}" fill="none"/><path d="M-35.6162,298.79963l1.65585,-1.59407l3.2005,2.66172" data-paper-data="{&quot;origPos&quot;:null}" fill="none"/><path d="M-26.87603,283.6856l-3.48844,-4.61786" data-paper-data="{&quot;origPos&quot;:null}" fill="none"/><path d="M-28.24395,287.23581l-2.53199,-3.62434" data-paper-data="{&quot;origPos&quot;:null}" fill="none"/><path d="M-28.63073,290.47956l-2.87551,-2.65555" data-paper-data="{&quot;origPos&quot;:null}" fill="none"/><path d="M-29.69836,295.33592l-2.23172,-2.3182" data-paper-data="{&quot;origPos&quot;:null}" fill="none"/></g><g data-paper-data="{&quot;origPos&quot;:null,&quot;origRot&quot;:0}" stroke="#674116"><path d="M3.55768,250.94878l4.62428,-2.31536l5.39678,0.51096l3.46982,1.15446l3.98575,4.75185l4.8851,4.62286l9.64123,8.34637l-4.88298,-0.76822l-9.63623,0.64778l-6.42368,1.28844l-6.68165,-0.51024l-3.08428,-1.02619l-3.47053,-2.43934l-1.80083,-3.59667l0.51168,-4.11189l-11.56605,-3.84823l1.66685,-6.29683l11.18194,6.2897z" fill="#dea433"/><path d="M-0.14159,253.05802l28.06866,12.42206l-28.47742,-8.10463" fill="none"/><path d="M3.97344,259.22317l2.05866,5.13837" fill="none"/><path d="M8.29142,260.65982l2.05809,4.11047" fill="none"/><path d="M11.88938,261.17178l1.85227,3.69942" fill="none"/><path d="M16.51578,262.71108l1.33747,2.15785" fill="none"/><path d="M22.37649,265.68874l-1.02904,-2.05523l3.49362,-2.26333" fill="none"/><path d="M5.10169,254.80255l5.4468,-1.95604" fill="none"/><path d="M13.53071,255.20903l-4.21365,1.33863" fill="none"/><path d="M16.51237,256.54366l-3.39099,1.9549" fill="none"/><path d="M20.83093,259.00824l-2.87732,1.44065" fill="none"/></g><g data-paper-data="{&quot;origPos&quot;:null,&quot;origRot&quot;:0}" stroke="#674116"><path d="M-17.95747,287.11496l-5.01442,-1.26508l-3.75444,-3.9103l-1.87467,-3.13975l0.08304,-6.20157l-0.68241,-6.69098l-1.85425,-12.61653l3.19728,3.76975l7.72226,5.80028l5.70704,3.21769l4.72817,4.74859l1.66636,2.79089l1.03639,4.1135l-0.98397,3.90012l-3.07202,2.78067l6.24888,10.46585l-5.37349,3.68159l-4.36401,-12.06447z" fill="#dea433"/><path d="M-13.7783,287.93229l-13.15208,-27.73409l16.28032,24.73054" fill="none"/><path d="M-11.07537,275.3395l-1.79515,5.23627" fill="none"/><path d="M-14.07892,272.21126l-1.12452,4.45727" fill="none"/><path d="M-17.59461,273.93182l1.01207,-4.01153" fill="none"/><path d="M-20.09417,269.74549l0.39561,-2.50772" fill="none"/><path d="M-22.58964,263.6638l-0.56226,2.22863l-4.12399,-0.56634" fill="none"/><path d="M-16.61112,283.18777l-5.40292,-2.07424" fill="none"/><path d="M-22.73066,277.37702l4.06571,1.73687" fill="none"/><path d="M-20.27306,275.15246l-3.84489,-0.73298" fill="none"/><path d="M-22.66015,270.5204l-3.12008,-0.78716" fill="none"/></g></g><path d="M-38.5,245l182,-1l-1,41l-182,2z" data-paper-data="{&quot;origPos&quot;:null}" fill="url(#color-3)" stroke="#000000" stroke-width="0"/></g><g data-paper-data="{&quot;origPos&quot;:null,&quot;origRot&quot;:0}" stroke-linecap="round"><g stroke-width="0.5"><g data-paper-data="{&quot;origPos&quot;:null,&quot;origRot&quot;:0}" stroke="#665415"><path d="M443.89946,293.95006l-5.12706,-0.67689l-4.18133,-3.45004l-2.22508,-2.90197l-0.63447,-6.16958l-1.45138,-6.56723l-3.3004,-12.31755l3.61165,3.37484l8.34105,4.86863l6.04077,2.53633l5.24547,4.17014l1.97784,2.57953l1.50499,3.9661l-0.52647,3.98771l-2.72994,3.1172l7.41693,9.67323l-4.91184,4.27815l-5.72951,-11.47905z" data-paper-data="{&quot;origPos&quot;:null}" fill="#9fa827"/><path d="M448.14512,294.27875l-16.2702,-26.02763l19.03022,22.68258" data-paper-data="{&quot;origPos&quot;:null}" fill="none"/><path d="M448.19633,286.86661l1.17775,-5.40868" data-paper-data="{&quot;origPos&quot;:null}" fill="none"/><path d="M445.42734,283.25527l0.60169,-4.55738" data-paper-data="{&quot;origPos&quot;:null}" fill="none"/><path d="M443.27732,276.71172l-0.54152,4.10164" data-paper-data="{&quot;origPos&quot;:null}" fill="none"/><path d="M439.8721,274.40743l-0.10307,2.53663" data-paper-data="{&quot;origPos&quot;:null}" fill="none"/><path d="M436.5872,271.19166l-0.30084,2.27868l-4.16181,-0.08578" data-paper-data="{&quot;origPos&quot;:null}" fill="none"/><path d="M439.17631,288.45783l5.60647,1.43571" data-paper-data="{&quot;origPos&quot;:null}" fill="none"/><path d="M438.03249,284.82923l4.23926,1.25521" data-paper-data="{&quot;origPos&quot;:null}" fill="none"/><path d="M436.3126,282.0519l3.90385,0.28357" data-paper-data="{&quot;origPos&quot;:null}" fill="none"/><path d="M437.30985,278.01044l-3.19017,-0.42118" data-paper-data="{&quot;origPos&quot;:null}" fill="none"/></g><g data-paper-data="{&quot;origPos&quot;:null,&quot;origRot&quot;:0}" stroke="#665415"><path d="M469.32298,240.16047l-2.93915,4.25514l-4.97652,2.14951l-3.59716,0.658l-5.78076,-2.247l-6.50701,-1.7011l-12.46813,-2.67594l4.64996,-1.67672l8.13501,-5.2056l5.01066,-4.22104l6.10247,-2.76852l3.19747,-0.58489l4.21616,0.46793l3.30956,2.286l1.53048,3.85061l11.99047,-2.19336l1.56948,6.32181l-12.82883,-0.13163z" data-paper-data="{&quot;origPos&quot;:null}" fill="#9fa827"/><path d="M471.55049,236.53116l-30.58252,2.62031l28.86292,-6.60153" data-paper-data="{&quot;origPos&quot;:null}" fill="none"/><path d="M460.69863,229.59422l4.27757,3.51331" data-paper-data="{&quot;origPos&quot;:null}" fill="none"/><path d="M456.7174,231.31384l3.78236,2.61255" data-paper-data="{&quot;origPos&quot;:null}" fill="none"/><path d="M453.69542,232.85796l3.40412,2.3513" data-paper-data="{&quot;origPos&quot;:null}" fill="none"/><path d="M452.30335,236.0866l-2.21091,-1.24779" data-paper-data="{&quot;origPos&quot;:null}" fill="none"/><path d="M445.73296,236.29716l1.89118,1.30628l-1.97307,3.66537" data-paper-data="{&quot;origPos&quot;:null}" fill="none"/><path d="M466.1148,237.52548l-3.83305,4.33607" data-paper-data="{&quot;origPos&quot;:null}" fill="none"/><path d="M458.53058,241.22594l3.04929,-3.20135" data-paper-data="{&quot;origPos&quot;:null}" fill="none"/><path d="M457.30619,238.14546l-2.03156,3.34563" data-paper-data="{&quot;origPos&quot;:null}" fill="none"/><path d="M450.30298,241.4092l1.8288,-2.64766" data-paper-data="{&quot;origPos&quot;:null}" fill="none"/></g><g data-paper-data="{&quot;origPos&quot;:null,&quot;origRot&quot;:0}" stroke="#674116"><path d="M494.93847,262.7253l-5.02837,1.20841l-5.141,-1.71941l-3.11839,-1.90999l-2.80657,-5.53077l-3.71178,-5.60873l-7.50149,-10.31226l4.5823,1.85367l9.53271,1.55047l6.54859,0.19919l6.39269,2.00958l2.7719,1.69777l2.82823,3.16166l0.93987,3.91097l-1.42924,3.88932l10.39463,6.36662l-3.04904,5.75603l-9.46779,-8.65778z" fill="#a87927"/><path d="M499.01921,261.50824l-24.5279,-18.45372l25.90341,14.34091" fill="none"/><path d="M495.56466,249.10058l0.84199,5.47101" fill="none"/><path d="M492.526,252.19473l-1.07414,-4.46967" fill="none"/><path d="M489.13735,250.88157l-0.96673,-4.0227" fill="none"/><path d="M484.9795,248.33491l-0.81426,-2.4046" fill="none"/><path d="M479.94503,244.10781l0.53707,2.23483l-3.91529,1.41369" fill="none"/><path d="M488.55876,259.29426l5.74821,-0.67222" fill="none"/><path d="M486.18879,256.31797l4.4073,-0.34999" fill="none"/><path d="M487.33217,253.2065l-3.74551,1.13651" fill="none"/><path d="M479.93814,250.96478l3.12877,-0.7519" fill="none"/></g><g data-paper-data="{&quot;origPos&quot;:null,&quot;origRot&quot;:0}" stroke="#661515"><path d="M464.32422,283.20182l-5.09059,0.91147l-5.03134,-2.01788l-3.00104,-2.08954l-2.47744,-5.68582l-3.37652,-5.81671l-6.88393,-10.73437l4.46572,2.11916l9.42542,2.10675l6.52564,0.58283l6.26385,2.38095l2.66759,1.85737l2.63796,3.32207l0.70894,3.95932l-1.65481,3.79883l10.00345,6.96516l-3.38132,5.56734l-8.94384,-9.19802z" data-paper-data="{&quot;origPos&quot;:null}" fill="#a85a27"/><path d="M468.4693,282.22613l-23.40366,-19.86016l25.01796,15.83509" data-paper-data="{&quot;origPos&quot;:null}" fill="none"/><path d="M466.26797,275.14823l-0.51975,-5.51097" data-paper-data="{&quot;origPos&quot;:null}" fill="none"/><path d="M461.72314,268.02296l0.8102,4.52494" data-paper-data="{&quot;origPos&quot;:null}" fill="none"/><path d="M458.49834,266.96584l0.7292,4.07247" data-paper-data="{&quot;origPos&quot;:null}" fill="none"/><path d="M455.22615,268.25225l-0.67186,-2.44822" data-paper-data="{&quot;origPos&quot;:null}" fill="none"/><path d="M450.4482,263.73723l0.40511,2.26248l-3.99144,1.18168" data-paper-data="{&quot;origPos&quot;:null}" fill="none"/><path d="M463.9344,279.06859l-5.77773,0.33402" data-paper-data="{&quot;origPos&quot;:null}" fill="none"/><path d="M455.96527,276.29246l4.42024,-0.09095" data-paper-data="{&quot;origPos&quot;:null}" fill="none"/><path d="M453.48343,274.16833l3.80571,-0.91493" data-paper-data="{&quot;origPos&quot;:null}" fill="none"/><path d="M450.03927,270.582l3.16747,-0.56716" data-paper-data="{&quot;origPos&quot;:null}" fill="none"/></g><g data-paper-data="{&quot;origPos&quot;:null,&quot;origRot&quot;:0}" stroke="#665415"><path d="M504.25741,243.03372l-5.09269,-0.89968l-4.027,-3.62898l-2.0965,-2.99618l-0.36501,-6.19137l-1.1638,-6.62424l-2.76049,-12.44969l3.46116,3.52901l8.12095,5.2275l5.9245,2.79717l5.05875,4.39476l1.86354,2.66327l1.33072,4.02792l-0.69976,3.96097l-2.8632,2.99527l6.98834,9.98725l-5.09361,4.06003l-5.22381,-11.71783z" data-paper-data="{&quot;origPos&quot;:null}" fill="#9fa827"/><path d="M508.48471,243.54711l-15.12049,-26.71194l18.02366,23.49034" data-paper-data="{&quot;origPos&quot;:null}" fill="none"/><path d="M508.85889,236.14425l1.41234,-5.35222" data-paper-data="{&quot;origPos&quot;:null}" fill="none"/><path d="M506.2499,232.41568l0.79972,-4.52683" data-paper-data="{&quot;origPos&quot;:null}" fill="none"/><path d="M503.66733,229.8588l0.71975,-4.07414" data-paper-data="{&quot;origPos&quot;:null}" fill="none"/><path d="M500.872,225.86388l0.21351,-2.52974" data-paper-data="{&quot;origPos&quot;:null}" fill="none"/><path d="M497.94387,219.97827l-0.39986,2.26341l-4.1541,-0.26706" data-paper-data="{&quot;origPos&quot;:null}" fill="none"/><path d="M499.77809,237.34089l5.53858,1.67866" data-paper-data="{&quot;origPos&quot;:null}" fill="none"/><path d="M498.79348,233.66587l4.18053,1.43876" data-paper-data="{&quot;origPos&quot;:null}" fill="none"/><path d="M501.08404,231.26966l-3.88778,-0.45342" data-paper-data="{&quot;origPos&quot;:null}" fill="none"/><path d="M495.1999,226.26227l3.16879,0.55979" data-paper-data="{&quot;origPos&quot;:null}" fill="none"/></g><g data-paper-data="{&quot;origPos&quot;:null,&quot;origRot&quot;:0}" stroke="#674116"><path d="M496.00523,278.46606l-2.37455,4.59416l-4.66303,2.76451l-3.48436,1.10982l-6.01945,-1.49416l-6.67043,-0.86038l-12.70711,-1.06977l4.39919,-2.25404l7.40751,-6.19721l4.43361,-4.82357l5.70116,-3.5216l3.09721,-0.98649l4.24145,-0.07167l3.57324,1.84686l2.00741,3.6249l11.61453,-3.69935l2.36013,6.07109l-12.74154,1.49977z" fill="#a87927"/><path d="M497.75346,274.58311l-30.00157,6.48557l27.78997,-10.216" fill="none"/><path d="M486.10801,269.08149l4.68937,2.94122" fill="none"/><path d="M482.37761,271.29309l4.0837,2.11071" fill="none"/><path d="M483.25168,275.10839l-3.67532,-1.89964" fill="none"/><path d="M478.60587,276.58813l-2.35157,-0.9567" fill="none"/><path d="M472.11552,277.63196l2.04185,1.05535l-1.49128,3.8864" fill="none"/><path d="M492.4882,276.26016l-3.25094,4.78802" fill="none"/><path d="M488.05346,277.33152l-2.61772,3.56292" fill="none"/><path d="M482.23989,281.5712l1.58991,-3.57667" fill="none"/><path d="M478.77563,279.2632l-1.4775,2.85858" fill="none"/></g><g data-paper-data="{&quot;origPos&quot;:null,&quot;origRot&quot;:0}" stroke="#674116"><path d="M497.65053,232.94845l4.62778,2.30834l2.83117,4.62286l1.15971,3.46806l-1.40757,6.04029l-0.76451,6.68211l-0.88721,12.72115l-2.31697,-4.36636l-6.30293,-7.31778l-4.88673,-4.36389l-3.60308,-5.65001l-1.03086,-3.08273l-0.13256,-4.23998l1.79538,-3.5994l3.59569,-2.05924l-3.86573,-11.56021l6.03658,-2.44707l1.68256,12.71869z" fill="#dea433"/><path d="M493.74287,231.25615l6.91566,29.90536l-10.61393,-27.64042" fill="none"/><path d="M488.40902,242.97938l2.87359,-4.73112" fill="none"/><path d="M490.67397,246.67765l2.05185,-4.11358" fill="none"/><path d="M494.47631,245.74889l-1.84668,3.70222" fill="none"/><path d="M495.09977,252.73803l0.92284,-2.36506" fill="none"/><path d="M497.15952,256.84767l1.02593,-2.05679l3.90741,1.43532" fill="none"/><path d="M495.49534,236.49678l4.8342,3.18186" fill="none"/><path d="M496.63027,240.91567l3.60012,2.56631" fill="none"/><path d="M497.35384,245.12938l3.59914,1.5384" fill="none"/><path d="M498.69496,250.16483l2.87952,1.4363" fill="none"/></g><g data-paper-data="{&quot;origPos&quot;:null,&quot;origRot&quot;:0}" stroke="#665415"><path d="M483.49504,265.14073l3.48611,-3.81993l5.22094,-1.45878l3.65302,-0.16691l5.42494,3.00603l6.21819,2.56305l11.99339,4.33286l-4.83359,1.03434l-8.76268,4.06103l-5.53411,3.50677l-6.42008,1.9203l-3.24713,0.14837l-4.11455,-1.03221l-2.97106,-2.71141l-0.99724,-4.02182l-12.17672,0.55638l-0.70262,-6.47572l12.69389,1.86043z" data-paper-data="{&quot;origPos&quot;:null}" fill="#ded633"/><path d="M480.79847,268.43651l30.65653,1.52775l-29.48952,2.64899" data-paper-data="{&quot;origPos&quot;:null}" fill="none"/><path d="M490.61573,276.77349l-3.76472,-4.05806" data-paper-data="{&quot;origPos&quot;:null}" fill="none"/><path d="M494.79249,275.60646l-3.3955,-3.09876" data-paper-data="{&quot;origPos&quot;:null}" fill="none"/><path d="M497.9951,274.48396l-3.05595,-2.78888" data-paper-data="{&quot;origPos&quot;:null}" fill="none"/><path d="M501.83231,273.00706l-2.02246,-1.53454" data-paper-data="{&quot;origPos&quot;:null}" fill="none"/><path d="M506.34861,272.14993l-1.69774,-1.54938l2.44933,-3.36582" data-paper-data="{&quot;origPos&quot;:null}" fill="none"/><path d="M486.31858,268.18429l4.38278,-3.77956" data-paper-data="{&quot;origPos&quot;:null}" fill="none"/><path d="M490.87939,268.30129l3.45315,-2.76091" data-paper-data="{&quot;origPos&quot;:null}" fill="none"/><path d="M495.13033,268.75783l2.46418,-3.04111" data-paper-data="{&quot;origPos&quot;:null}" fill="none"/><path d="M502.50971,266.46831l-2.16914,2.37684" data-paper-data="{&quot;origPos&quot;:null}" fill="none"/></g><g data-paper-data="{&quot;origPos&quot;:null,&quot;origRot&quot;:0}" stroke="#661515"><path d="M479.46721,247.86771l2.1826,4.6884l-0.66459,5.38001l-1.2529,3.4355l-4.86353,3.84869l-4.76023,4.75135l-8.6178,9.3994l0.9071,-4.8591l-0.37284,-9.65078l-1.10481,-6.4578l0.7005,-6.66439l1.11369,-3.05378l2.53728,-3.39958l3.64653,-1.69757l4.09565,0.62868l4.17635,-11.45166l6.24677,1.84566l-6.60589,10.99811z" data-paper-data="{&quot;origPos&quot;:null}" fill="#de7633"/><path d="M477.46427,244.1098l-13.21712,27.70316l8.9131,-28.23482" data-paper-data="{&quot;origPos&quot;:null}" fill="none"/><path d="M471.18433,248.04742l-5.19497,1.91136" data-paper-data="{&quot;origPos&quot;:null}" fill="none"/><path d="M465.4577,254.26278l4.16746,-1.94007" data-paper-data="{&quot;origPos&quot;:null}" fill="none"/><path d="M465.26013,257.65067l3.75073,-1.74607" data-paper-data="{&quot;origPos&quot;:null}" fill="none"/><path d="M465.14522,261.76068l2.1951,-1.27542" data-paper-data="{&quot;origPos&quot;:null}" fill="none"/><path d="M464.1968,266.25871l2.08373,-0.97005l2.16282,3.55671" data-paper-data="{&quot;origPos&quot;:null}" fill="none"/><path d="M477.37096,254.80156l-1.79998,-5.50034" data-paper-data="{&quot;origPos&quot;:null}" fill="none"/><path d="M473.70645,253.46513l1.21795,4.2501" data-paper-data="{&quot;origPos&quot;:null}" fill="none"/><path d="M471.64788,257.2123l1.85745,3.44534" data-paper-data="{&quot;origPos&quot;:null}" fill="none"/><path d="M470.91867,264.90419l-1.35807,-2.91722" data-paper-data="{&quot;origPos&quot;:null}" fill="none"/></g><g data-paper-data="{&quot;origPos&quot;:null,&quot;origRot&quot;:0}" stroke="#674116"><path d="M462.22212,223.58687l2.97239,-4.232l4.99322,-2.11044l3.6022,-0.62979l5.76297,2.29224l6.49348,1.75204l12.44678,2.77358l-4.66296,1.64022l-8.17554,5.14169l-5.04358,4.18163l-6.12398,2.72061l-3.20195,0.55982l-4.21236,-0.50095l-3.29155,-2.31187l-1.50025,-3.86248l-12.0073,2.09931l-1.51988,-6.3339l12.82739,0.23216z" fill="#dea433"/><path d="M459.96624,227.1986l30.60213,-2.38055l-28.91377,6.37513" fill="none"/><path d="M466.51349,230.67366l4.2499,3.54672" fill="none"/><path d="M474.75797,232.53203l-3.76176,-2.64212" fill="none"/><path d="M474.40639,228.63371l3.38558,2.37792" fill="none"/><path d="M481.41038,229.05907l-2.20108,-1.26508" fill="none"/><path d="M485.78114,227.63493l-1.88088,-1.32107l2.00174,-3.6498" fill="none"/><path d="M469.27648,221.94102l-3.86692,4.30589" fill="none"/><path d="M469.94826,225.78337l3.07427,-3.17737" fill="none"/><path d="M476.28046,222.36637l-2.05771,3.32961" fill="none"/><path d="M481.25132,222.48724l-1.84949,2.63323" fill="none"/></g><g data-paper-data="{&quot;origPos&quot;:null,&quot;origRot&quot;:0}" stroke="#674116"><path d="M416.1445,269.02476l5.16587,0.242l4.45744,3.08505l2.46194,2.70394l1.15263,6.09408l2.00017,6.4214l4.32764,11.99528l-3.88345,-3.05816l-8.722,-4.14769l-6.23318,-2.01774l-5.57852,-3.7128l-2.18839,-2.4035l-1.83418,-3.82501l0.18823,-4.01792l2.45729,-3.33636l-8.20645,-9.01312l4.53345,-4.67721l6.67738,10.95486z" fill="#a87927"/><path d="M411.88625,269.05537l18.40768,24.56245l-20.87572,-20.9965" fill="none"/><path d="M411.74312,281.93416l0.71733,-5.48875" fill="none"/><path d="M415.52418,279.81032l-0.21511,4.59188" fill="none"/><path d="M418.2185,286.14918l0.19361,-4.1327" fill="none"/><path d="M421.80598,288.15803l-0.11128,-2.5363" fill="none"/><path d="M425.35042,291.08525l0.10756,-2.29594l4.15421,-0.26559" fill="none"/><path d="M421.31411,274.099l-5.7076,-0.95768" fill="none"/><path d="M418.4299,276.72506l4.33002,0.89314" fill="none"/><path d="M420.79411,280.28729l3.91386,-0.04675" fill="none"/><path d="M427.2695,284.50231l-3.21433,-0.15058" fill="none"/></g><g data-paper-data="{&quot;origPos&quot;:null,&quot;origRot&quot;:0}" stroke="#665415"><path d="M409.17899,283.95945l4.63967,2.28436l2.85506,4.60813l1.17764,3.46202l-1.3763,6.04749l-0.72993,6.68597l-0.82137,12.72558l-2.33954,-4.35432l-6.34071,-7.28506l-4.90925,-4.33856l-3.63228,-5.63129l-1.04679,-3.07734l-0.1545,-4.23923l1.77674,-3.60863l3.58498,-2.07783l-3.92551,-11.54005l6.02385,-2.47827l1.74833,12.70981z" data-paper-data="{&quot;origPos&quot;:null}" fill="#9fa827"/><path d="M405.26262,282.28741l7.0703,29.86916l-10.7568,-27.58513" data-paper-data="{&quot;origPos&quot;:null}" fill="none"/><path d="M402.83857,289.29214l-2.84906,4.74592" data-paper-data="{&quot;origPos&quot;:null}" fill="none"/><path d="M404.3041,293.60043l-2.03055,4.12414" data-paper-data="{&quot;origPos&quot;:null}" fill="none"/><path d="M404.24355,300.48787l1.8275,-3.71173" data-paper-data="{&quot;origPos&quot;:null}" fill="none"/><path d="M407.64125,301.39217l-0.9106,2.3698" data-paper-data="{&quot;origPos&quot;:null}" fill="none"/><path d="M408.81164,307.8609l1.01528,-2.06208l3.91478,1.41508" data-paper-data="{&quot;origPos&quot;:null}" fill="none"/><path d="M407.04217,287.5189l4.85061,3.15679" data-paper-data="{&quot;origPos&quot;:null}" fill="none"/><path d="M408.19996,291.93186l3.61336,2.54764" data-paper-data="{&quot;origPos&quot;:null}" fill="none"/><path d="M408.94533,296.14177l3.60705,1.51976" data-paper-data="{&quot;origPos&quot;:null}" fill="none"/><path d="M413.19938,302.59159l-2.88691,-1.42138" data-paper-data="{&quot;origPos&quot;:null}" fill="none"/></g><g data-paper-data="{&quot;origPos&quot;:null,&quot;origRot&quot;:0}" stroke="#674116"><path d="M429.38397,249.54215l3.56168,-3.74958l5.24903,-1.35425l3.65562,-0.09396l5.36385,3.11374l6.16578,2.68667l11.9045,4.57143l-4.85329,0.93763l-8.84201,3.88528l-5.603,3.39559l-6.45712,1.79176l-3.24944,0.08351l-4.09313,-1.11415l-2.91634,-2.77018l-0.91674,-4.04092l-12.18542,0.31316l-0.5732,-6.48844l12.65422,2.11347z" fill="#a87927"/><path d="M426.62212,252.78342l30.61994,2.13947l-29.53653,2.05976" fill="none"/><path d="M432.58806,257.18232l3.68295,4.13241" fill="none"/><path d="M437.13727,257.0654l3.33295,3.16593" fill="none"/><path d="M440.69495,256.32365l2.99966,2.84934" fill="none"/><path d="M447.56053,257.77299l-1.99142,-1.57461" fill="none"/><path d="M452.09305,257.00619l-1.66648,-1.58297l2.51605,-3.31625" fill="none"/><path d="M432.14618,252.64145l4.45735,-3.6913" fill="none"/><path d="M440.21132,250.15806l-3.50756,2.69142" fill="none"/><path d="M440.94474,253.39079l2.52438,-2.9913" fill="none"/><path d="M448.36834,251.24905l-2.21615,2.33306" fill="none"/></g><g data-paper-data="{&quot;origPos&quot;:null,&quot;origRot&quot;:0}" stroke="#665415"><path d="M439.40782,263.12148l-3.41085,3.88727l-5.19145,1.56044l-3.64908,0.23821l-5.48261,-2.89953l-6.26705,-2.44114l-12.0757,-4.09785l4.81247,-1.12853l8.68172,-4.23135l5.46458,-3.61417l6.38136,-2.0453l3.2436,-0.21174l4.13392,0.95167l3.02343,2.65289l1.07558,4.00158l12.16354,-0.79404l0.82894,6.46076l-12.7278,-1.61221z" data-paper-data="{&quot;origPos&quot;:null}" fill="#ded633"/><path d="M442.03954,259.77367l-30.68052,-0.92886l29.43216,-3.22431" data-paper-data="{&quot;origPos&quot;:null}" fill="none"/><path d="M435.90459,255.61376l-3.84324,-3.98377" data-paper-data="{&quot;origPos&quot;:null}" fill="none"/><path d="M431.36352,255.91021l-3.45534,-3.03187" data-paper-data="{&quot;origPos&quot;:null}" fill="none"/><path d="M424.7281,254.06317l3.10982,2.72868" data-paper-data="{&quot;origPos&quot;:null}" fill="none"/><path d="M422.9725,257.10947l-2.05204,-1.49476" data-paper-data="{&quot;origPos&quot;:null}" fill="none"/><path d="M416.42176,256.55987l1.72768,1.51594l-2.38315,3.413" data-paper-data="{&quot;origPos&quot;:null}" fill="none"/><path d="M436.52539,260.13364l-4.30813,3.86442" data-paper-data="{&quot;origPos&quot;:null}" fill="none"/><path d="M428.56458,262.93353l3.39858,-2.8278" data-paper-data="{&quot;origPos&quot;:null}" fill="none"/><path d="M425.2998,262.82091l2.40432,-3.08865" data-paper-data="{&quot;origPos&quot;:null}" fill="none"/><path d="M420.37086,262.16545l2.12231,-2.41875" data-paper-data="{&quot;origPos&quot;:null}" fill="none"/></g><g data-paper-data="{&quot;origPos&quot;:null,&quot;origRot&quot;:0}" stroke="#661515"><path d="M437.31313,289.58705l-3.62828,-3.68518l-1.17781,-5.2914l0.02844,-3.65671l3.29151,-5.25664l2.89152,-6.07241l4.96729,-11.74483l0.77468,4.88195l3.58718,8.96709l3.20617,5.71351l1.57463,6.51348l-0.02528,3.25041l-1.25051,4.05354l-2.86625,2.82198l-4.06935,0.78101l-0.09481,12.18906l-6.504,0.35573l2.53579,-12.5764z" data-paper-data="{&quot;origPos&quot;:null}" fill="#de7633"/><path d="M440.46016,292.45582l3.16307,-30.53115l1.07007,29.5889" data-paper-data="{&quot;origPos&quot;:null}" fill="none"/><path d="M445.05626,286.64048l4.25336,-3.54259" data-paper-data="{&quot;origPos&quot;:null}" fill="none"/><path d="M445.09166,282.08989l3.27571,-3.22512" data-paper-data="{&quot;origPos&quot;:null}" fill="none"/><path d="M444.46938,278.50937l2.94814,-2.90262" data-paper-data="{&quot;origPos&quot;:null}" fill="none"/><path d="M446.14771,271.69614l-1.64039,1.9376" data-paper-data="{&quot;origPos&quot;:null}" fill="none"/><path d="M445.53302,267.14049l-1.63786,1.61257l-3.23018,-2.62562" data-paper-data="{&quot;origPos&quot;:null}" fill="none"/><path d="M440.50315,286.93011l-3.54006,-4.5784" data-paper-data="{&quot;origPos&quot;:null}" fill="none"/><path d="M438.29107,278.78638l2.57252,3.59568" data-paper-data="{&quot;origPos&quot;:null}" fill="none"/><path d="M438.6414,275.53848l2.90514,2.62309" data-paper-data="{&quot;origPos&quot;:null}" fill="none"/><path d="M439.65445,270.67045l2.25759,2.29299" data-paper-data="{&quot;origPos&quot;:null}" fill="none"/></g><g data-paper-data="{&quot;origPos&quot;:null,&quot;origRot&quot;:0}" stroke="#674116"><path d="M470.58848,293.57874l-4.86836,1.74468l-5.29668,-1.15385l-3.30652,-1.56184l-3.38776,-5.19514l-4.29607,-5.17481l-8.57184,-9.44133l4.75576,1.34769l9.64443,0.51135l6.53177,-0.50957l6.5724,1.30707l2.93912,1.38832l3.1533,2.83755l1.35695,3.78653l-1.00062,4.02097l11.02171,5.20618l-2.40924,6.05178l-10.34787,-7.58405z" fill="#dea433"/><path d="M474.51382,291.92789l-26.37826,-15.69536l27.30133,11.458" fill="none"/><path d="M471.16704,285.31415l-1.42823,-5.348" fill="none"/><path d="M465.50146,279.04308l1.55081,4.32744" fill="none"/><path d="M463.54158,282.43119l-1.39572,-3.89469" fill="none"/><path d="M459.13289,280.34871l-1.06931,-2.30254" fill="none"/><path d="M453.67115,276.69036l0.77541,2.16371l-3.73961,1.82846" fill="none"/><path d="M463.8754,290.85715l5.64192,-1.2894" fill="none"/><path d="M465.54138,287.3302l-4.34368,0.82415" fill="none"/><path d="M461.99818,284.93757l-3.60077,1.53455" fill="none"/><path d="M457.43442,282.42236l-3.02921,1.08556" fill="none"/></g><g data-paper-data="{&quot;origPos&quot;:null,&quot;origRot&quot;:0}" stroke="#674116"><path d="M446.52025,311.666l-4.03477,3.23504l-5.38371,0.63403l-3.63491,-0.39987l-4.89496,-3.80862l-5.74716,-3.4936l-11.17929,-6.13503l4.93541,-0.27459l9.28518,-2.65743l6.00973,-2.60899l6.63977,-0.90462l3.23102,0.35544l3.90549,1.65594l2.51614,3.13816l0.36344,4.12764l12.11634,1.33293l-0.30701,6.50648l-12.25363,-3.80061z" fill="#dea433"/><path d="M449.69395,308.82677l-30.05173,-6.24909l29.54449,1.94213" fill="none"/><path d="M444.37572,303.66354l-3.09204,-4.59132" fill="none"/><path d="M439.8523,303.16592l-2.87558,-3.58647" fill="none"/><path d="M433.63908,300.19332l2.58801,3.22782" fill="none"/><path d="M429.61965,301.05918l1.7609,1.82878" fill="none"/><path d="M425.02515,301.20777l1.43778,1.79323l-2.94026,2.94667" fill="none"/><path d="M444.20121,308.22251l-4.91443,3.05651" fill="none"/><path d="M435.87485,309.59563l3.83847,-2.19384" fill="none"/><path d="M432.67937,308.91707l2.90471,-2.62356" fill="none"/><path d="M427.93946,307.41459l2.51052,-2.01289" fill="none"/></g><g data-paper-data="{&quot;origPos&quot;:null,&quot;origRot&quot;:0}" stroke="#665415"><path d="M385.86583,291.92159l-2.75091,4.37918l-4.87813,2.36433l-3.56507,0.81414l-5.87319,-1.99296l-6.57497,-1.41591l-12.57289,-2.13005l4.57247,-1.87776l7.90043,-5.55517l4.82195,-4.43538l5.97602,-3.03183l3.16894,-0.72367l4.23254,0.28374l3.40604,2.1396l1.69684,3.78025l11.88349,-2.71381l1.84348,6.24741l-12.82238,0.42755z" data-paper-data="{&quot;origPos&quot;:null}" fill="#9fa827"/><path d="M387.93305,288.19865l-30.43929,3.95056l28.54783,-7.85307" data-paper-data="{&quot;origPos&quot;:null}" fill="none"/><path d="M376.7892,281.74121l4.42661,3.32356" data-paper-data="{&quot;origPos&quot;:null}" fill="none"/><path d="M372.88671,283.63268l3.89261,2.44525" data-paper-data="{&quot;origPos&quot;:null}" fill="none"/><path d="M373.43824,287.50776l-3.50336,-2.20073" data-paper-data="{&quot;origPos&quot;:null}" fill="none"/><path d="M368.68483,288.59328l-2.26319,-1.15027" data-paper-data="{&quot;origPos&quot;:null}" fill="none"/><path d="M362.12986,289.08997l1.9463,1.22262l-1.81146,3.74788" data-paper-data="{&quot;origPos&quot;:null}" fill="none"/><path d="M378.90541,293.92789l3.64045,-4.49898" data-paper-data="{&quot;origPos&quot;:null}" fill="none"/><path d="M378.03699,290.12517l-2.90688,3.33119" data-paper-data="{&quot;origPos&quot;:null}" fill="none"/><path d="M373.77264,290.43216l-1.88383,3.43099" data-paper-data="{&quot;origPos&quot;:null}" fill="none"/><path d="M366.91831,293.998l1.71167,-2.72483" data-paper-data="{&quot;origPos&quot;:null}" fill="none"/></g><g data-paper-data="{&quot;origPos&quot;:null,&quot;origRot&quot;:0}" stroke="#661515"><path d="M398.00919,310.41495l-4.88971,-1.68394l-3.41088,-4.21332l-1.60288,-3.28683l0.60634,-6.17241l-0.11505,-6.72471l-0.78241,-12.72803l2.86758,4.02623l7.20497,6.43156l5.41497,3.68805l4.31038,5.13085l1.42478,2.92161l0.68538,4.18631l-1.30973,3.80309l-3.29583,2.51139l5.34294,10.95607l-5.66514,3.21476l-3.32983,-12.38984z" data-paper-data="{&quot;origPos&quot;:null}" fill="#a85a27"/><path d="M402.10445,311.5822l-10.76351,-28.7455l14.13417,26.0168" data-paper-data="{&quot;origPos&quot;:null}" fill="none"/><path d="M405.86095,299.2626l-2.23084,5.066" data-paper-data="{&quot;origPos&quot;:null}" fill="none"/><path d="M401.6354,300.23833l1.49684,-4.3464" data-paper-data="{&quot;origPos&quot;:null}" fill="none"/><path d="M399.48382,297.30951l1.34714,-3.91176" data-paper-data="{&quot;origPos&quot;:null}" fill="none"/><path d="M397.34665,292.92708l0.60594,-2.46535" data-paper-data="{&quot;origPos&quot;:null}" fill="none"/><path d="M395.37356,286.65641l-0.74842,2.1732l-4.06145,-0.91252" data-paper-data="{&quot;origPos&quot;:null}" fill="none"/><path d="M399.68232,306.61545l-5.20848,-2.523" data-paper-data="{&quot;origPos&quot;:null}" fill="none"/><path d="M397.97977,302.38271l-3.90454,-2.07394" data-paper-data="{&quot;origPos&quot;:null}" fill="none"/><path d="M396.71189,298.29965l-3.76928,-1.05499" data-paper-data="{&quot;origPos&quot;:null}" fill="none"/><path d="M394.72439,293.4826l-3.04248,-1.04779" data-paper-data="{&quot;origPos&quot;:null}" fill="none"/></g><g data-paper-data="{&quot;origPos&quot;:null,&quot;origRot&quot;:0}" stroke="#661515"><path d="M380.778,339.42604l-5.04603,1.13246l-5.1145,-1.7967l-3.08925,-1.95679l-2.72286,-5.57246l-3.62681,-5.66404l-7.34518,-10.42418l4.55383,1.92254l9.50827,1.69401l6.54484,0.29789l6.36166,2.10572l2.746,1.73936l2.78022,3.20396l0.8808,3.92467l-1.4877,3.86734l10.29748,6.5226l-3.13548,5.7094l-9.33619,-8.79951z" data-paper-data="{&quot;origPos&quot;:null}" fill="#a85a27"/><path d="M384.87662,338.27064l-24.2469,-18.82139l25.68427,14.72979" data-paper-data="{&quot;origPos&quot;:null}" fill="none"/><path d="M381.60951,325.81231l0.75943,5.48308" data-paper-data="{&quot;origPos&quot;:null}" fill="none"/><path d="M377.51792,324.37494l1.00662,4.48534" data-paper-data="{&quot;origPos&quot;:null}" fill="none"/><path d="M374.2501,323.45937l0.90598,4.03682" data-paper-data="{&quot;origPos&quot;:null}" fill="none"/><path d="M370.25919,322.47054l0.77791,2.41661" data-paper-data="{&quot;origPos&quot;:null}" fill="none"/><path d="M366.06691,320.58463l0.50332,2.24268l-3.93615,1.3545" data-paper-data="{&quot;origPos&quot;:null}" fill="none"/><path d="M380.20843,335.31372l-5.75768,0.58548" data-paper-data="{&quot;origPos&quot;:null}" fill="none"/><path d="M372.12589,332.88752l4.41207,-0.28349" data-paper-data="{&quot;origPos&quot;:null}" fill="none"/><path d="M373.31606,329.79365l-3.76222,1.07991" data-paper-data="{&quot;origPos&quot;:null}" fill="none"/><path d="M365.95666,327.44072l3.13974,-0.70465" data-paper-data="{&quot;origPos&quot;:null}" fill="none"/></g><g data-paper-data="{&quot;origPos&quot;:null,&quot;origRot&quot;:0}" stroke="#674116"><path d="M414.19204,329.02801l-2.17208,4.69328l-4.53812,2.96509l-3.43268,1.26061l-6.07884,-1.23042l-6.7016,-0.56886l-12.74165,-0.51499l4.29677,-2.44361l7.13041,-6.51413l4.21919,-5.0122l5.54228,-3.76669l3.05127,-1.12053l4.23429,-0.25644l3.65033,1.68939l2.16348,3.53397l11.44228,-4.20198l2.62246,5.96247l-12.66407,2.05361z" fill="#a87927"/><path d="M415.76939,325.07256l-29.69045,7.78684l27.31838,-11.41734" fill="none"/><path d="M403.89526,320.08367l4.81308,2.73407" fill="none"/><path d="M404.43658,324.38648l-4.17181,-1.93074" fill="none"/><path d="M401.30428,326.22931l-3.75461,-1.73768" fill="none"/><path d="M396.72737,327.91011l-2.39103,-0.85331" fill="none"/><path d="M390.28867,329.23578l2.0859,0.96537l-1.32049,3.94769" fill="none"/><path d="M410.58222,326.97747l-3.03919,4.92514" fill="none"/><path d="M406.19838,328.24107l-2.45996,3.67361" fill="none"/><path d="M400.57508,332.73008l1.43254,-3.64256" fill="none"/><path d="M395.66202,333.49548l1.35152,-2.92026" fill="none"/></g><g data-paper-data="{&quot;origPos&quot;:null,&quot;origRot&quot;:0}" stroke="#674116"><path d="M420.65449,272.43754l4.72398,2.10447l3.02993,4.49508l1.30975,3.41423l-1.143,6.09589l-0.47259,6.70907l-0.332,12.74773l-2.50505,-4.26125l-6.61585,-7.03614l-5.07226,-4.1468l-3.84588,-5.48762l-1.16422,-3.03487l-0.31721,-4.23016l1.63682,-3.67422l3.50253,-2.21399l-4.36585,-11.38077l5.92421,-2.7078l2.23522,12.63328z" fill="#dea433"/><path d="M416.67678,270.91715l8.21233,29.57557l-11.80839,-27.15162" fill="none"/><path d="M411.8589,282.86166l2.66468,-4.85183" fill="none"/><path d="M414.28285,286.45773l1.87064,-4.1991" fill="none"/><path d="M418.04111,285.36415l-1.68358,3.77918" fill="none"/><path d="M418.96853,292.31949l0.81891,-2.40303" fill="none"/><path d="M421.20543,296.33546l0.93532,-2.09955l3.96625,1.26366" fill="none"/><path d="M418.65597,276.07642l4.96828,2.96818" fill="none"/><path d="M419.9824,280.44166l3.70854,2.40697" fill="none"/><path d="M420.88891,284.61984l3.66277,1.3801" fill="none"/><path d="M422.44818,289.59205l2.93937,1.30945" fill="none"/></g><g data-paper-data="{&quot;origPos&quot;:null,&quot;origRot&quot;:0}" stroke="#665415"><path d="M401.11304,316.26052l3.31634,-3.96823l5.15241,-1.6849l3.64228,-0.32594l5.55079,2.76676l6.32397,2.28964l12.17081,3.80608l-4.78393,1.244l-8.57738,4.43903l-5.37603,3.74461l-6.33028,2.19825l-3.23758,0.28973l-4.15563,-0.85192l-3.0864,-2.57937l-1.17155,-3.97454l-12.14092,1.08649l-0.98416,-6.43893l12.76291,1.30548z" data-paper-data="{&quot;origPos&quot;:null}" fill="#ded633"/><path d="M398.56264,319.67068l30.69399,0.19032l-29.34606,3.93159" data-paper-data="{&quot;origPos&quot;:null}" fill="none"/><path d="M404.79591,323.68176l3.93799,3.89014" data-paper-data="{&quot;origPos&quot;:null}" fill="none"/><path d="M412.85582,326.22398l-3.52731,-2.94784" data-paper-data="{&quot;origPos&quot;:null}" fill="none"/><path d="M412.8319,322.30992l3.17458,2.65307" data-paper-data="{&quot;origPos&quot;:null}" fill="none"/><path d="M417.68827,321.87531l2.0874,1.44496" data-paper-data="{&quot;origPos&quot;:null}" fill="none"/><path d="M424.25034,322.26712l-1.76366,-1.47391l2.30033,-3.46937" data-paper-data="{&quot;origPos&quot;:null}" fill="none"/><path d="M404.06652,319.17813l4.21391,-3.96696" data-paper-data="{&quot;origPos&quot;:null}" fill="none"/><path d="M408.6281,319.09627l3.32956,-2.90877" data-paper-data="{&quot;origPos&quot;:null}" fill="none"/><path d="M415.22421,316.22152l-2.32931,3.14561" data-paper-data="{&quot;origPos&quot;:null}" fill="none"/><path d="M420.16749,316.75819l-2.06349,2.46911" data-paper-data="{&quot;origPos&quot;:null}" fill="none"/></g><g data-paper-data="{&quot;origPos&quot;:null,&quot;origRot&quot;:0}" stroke="#661515"><path d="M395.00966,294.24926l4.61795,2.32795l2.81155,4.63481l1.145,3.47295l-1.43317,6.03427l-0.79283,6.6788l-0.94114,12.71728l-2.29844,-4.37615l-6.27184,-7.34442l-4.86818,-4.38458l-3.5791,-5.66524l-1.01778,-3.08706l-0.11457,-4.2405l1.81062,-3.59174l3.60439,-2.044l-3.81669,-11.5765l6.04691,-2.42145l1.62861,12.72572z" data-paper-data="{&quot;origPos&quot;:null}" fill="#de7633"/><path d="M391.10922,292.54042l6.78879,29.93441l-10.49664,-27.68518" data-paper-data="{&quot;origPos&quot;:null}" fill="none"/><path d="M385.72571,304.24091l2.89363,-4.71888" data-paper-data="{&quot;origPos&quot;:null}" fill="none"/><path d="M390.04423,303.84393l-2.06928,4.10484" data-paper-data="{&quot;origPos&quot;:null}" fill="none"/><path d="M391.7812,307.03614l-1.86235,3.69437" data-paper-data="{&quot;origPos&quot;:null}" fill="none"/><path d="M392.37501,314.02786l0.93287,-2.36112" data-paper-data="{&quot;origPos&quot;:null}" fill="none"/><path d="M394.41731,318.14621l1.03464,-2.05242l3.90129,1.45187" data-paper-data="{&quot;origPos&quot;:null}" fill="none"/><path d="M397.66012,300.99076l-4.82066,-3.20232" data-paper-data="{&quot;origPos&quot;:null}" fill="none"/><path d="M393.95564,302.2121l3.58921,2.58154" data-paper-data="{&quot;origPos&quot;:null}" fill="none"/><path d="M398.25393,307.98249l-3.59258,-1.55365" data-paper-data="{&quot;origPos&quot;:null}" fill="none"/><path d="M395.98109,311.46993l2.8734,1.44849" data-paper-data="{&quot;origPos&quot;:null}" fill="none"/></g><g data-paper-data="{&quot;origPos&quot;:null,&quot;origRot&quot;:0}" stroke="#665415"><path d="M364.74514,313.30012l4.98894,1.3621l3.67789,3.98238l1.81341,3.17553l-0.2033,6.19879l0.55251,6.70297l1.6092,12.65012l-3.12356,-3.83104l-7.6083,-5.94897l-5.64357,-3.32777l-4.6352,-4.83941l-1.61192,-2.82269l-0.9564,-4.13282l1.05941,-3.88028l3.12538,-2.72058l-6.04474,-10.58507l5.44389,-3.57669l4.1292,12.14684z" data-paper-data="{&quot;origPos&quot;:null}" fill="#ded633"/><path d="M360.58258,312.4019l12.61168,27.98396l-15.7976,-25.04166" data-paper-data="{&quot;origPos&quot;:null}" fill="none"/><path d="M357.63592,324.93989l1.89637,-5.20045" data-paper-data="{&quot;origPos&quot;:null}" fill="none"/><path d="M361.78899,323.69118l-1.21075,4.43461" data-paper-data="{&quot;origPos&quot;:null}" fill="none"/><path d="M363.03696,330.4649l1.08969,-3.99115" data-paper-data="{&quot;origPos&quot;:null}" fill="none"/><path d="M366.54454,330.70779l-0.44418,2.49956" data-paper-data="{&quot;origPos&quot;:null}" fill="none"/><path d="M368.92158,336.83672l0.60538,-2.2173l4.11222,0.64622" data-paper-data="{&quot;origPos&quot;:null}" fill="none"/><path d="M363.32285,317.20047l5.36166,2.17864" data-paper-data="{&quot;origPos&quot;:null}" fill="none"/><path d="M365.29729,321.31342l4.03127,1.81541" data-paper-data="{&quot;origPos&quot;:null}" fill="none"/><path d="M366.82825,325.30529l3.82996,0.80742" data-paper-data="{&quot;origPos&quot;:null}" fill="none"/><path d="M372.2293,330.83031l-3.10424,-0.84753" data-paper-data="{&quot;origPos&quot;:null}" fill="none"/></g><g data-paper-data="{&quot;origPos&quot;:null,&quot;origRot&quot;:0}" stroke="#674116"><path d="M378.04946,275.67318l2.78514,-4.35751l4.89652,-2.32603l3.57132,-0.78618l5.85739,2.03893l6.56367,1.46741l12.55583,2.22853l-4.58707,1.84187l-7.94372,5.49308l-4.85656,4.39744l-5.9996,2.9849l-3.17451,0.69883l-4.23019,-0.31691l-3.38917,-2.16623l-1.66714,-3.79343l-11.90441,2.62058l-1.79446,-6.26166l12.82533,-0.32706z" fill="#dea433"/><path d="M375.95311,279.37978l30.46932,-3.71188l-28.60848,7.6291" fill="none"/><path d="M382.64559,282.56622l4.40043,3.35815" fill="none"/><path d="M387.08988,281.58786l3.87333,2.47568" fill="none"/><path d="M390.44208,280.18425l3.48599,2.22812" fill="none"/><path d="M395.20384,279.13603l2.25411,1.16796" fill="none"/><path d="M401.76249,278.69073l-1.93666,-1.23784l1.84078,-3.73357" fill="none"/><path d="M385.02538,273.72147l-3.6756,4.47031" fill="none"/><path d="M388.79686,274.22257l-2.93288,3.30832" fill="none"/><path d="M392.04125,273.84121l-1.91066,3.41611" fill="none"/><path d="M397.01267,273.74533l-1.73298,2.71132" fill="none"/></g><g data-paper-data="{&quot;origPos&quot;:null,&quot;origRot&quot;:0}" stroke="#674116"><path d="M378.10066,317.75514l-4.95449,1.48251l-5.2276,-1.43472l-3.21849,-1.736l-3.10582,-5.36844l-4.01393,-5.3966l-8.05604,-9.88511l4.67711,1.59945l9.60343,1.02507l6.54967,-0.16045l6.49332,1.65578l2.86088,1.54312l2.99745,3.00171l1.15305,3.85351l-1.21367,3.96187l10.72832,5.78667l-2.72861,5.91466l-9.92859,-8.12521z" fill="#dea433"/><path d="M382.10846,316.31602l-25.50352,-17.08003l26.65129,12.89794" fill="none"/><path d="M377.97829,304.1166l1.14093,5.41658" fill="none"/><path d="M373.7962,302.96883l1.31778,4.404" fill="none"/><path d="M370.47241,302.28399l1.18599,3.96359" fill="none"/><path d="M367.36707,303.93292l-0.94498,-2.35631" fill="none"/><path d="M362.10823,299.98844l0.65889,2.202l-3.83183,1.6264" fill="none"/><path d="M371.54228,314.67936l5.70268,-0.98663" fill="none"/><path d="M369.01258,311.83758l4.38145,-0.59129" fill="none"/><path d="M366.30599,310.00838l3.6775,-1.34031" fill="none"/><path d="M365.5604,305.913l-3.08279,0.92244" fill="none"/></g></g><path d="M338.88272,292.11107l155.78909,-94.09974l20.14603,35.72307l-155.27677,94.95853z" data-paper-data="{&quot;origPos&quot;:null}" fill="url(#color-4)" stroke="#000000" stroke-width="0"/></g></g></g></svg>