<svg version="1.1" xmlns="http://www.w3.org/2000/svg" xmlns:xlink="http://www.w3.org/1999/xlink" width="109.97245" height="35.12006" viewBox="0,0,109.97245,35.12006"><defs><radialGradient cx="266.06876" cy="170.0913" r="33.09686" gradientUnits="userSpaceOnUse" id="color-1"><stop offset="0" stop-color="#ffff00"/><stop offset="1" stop-color="#ff9400"/></radialGradient><radialGradient cx="272.39314" cy="172.06133" r="22.65159" gradientUnits="userSpaceOnUse" id="color-2"><stop offset="0" stop-color="#bda501"/><stop offset="1" stop-color="#c07801"/></radialGradient></defs><g transform="translate(-179.89767,-161.64196)"><g data-paper-data="{&quot;isPaintingLayer&quot;:true}" fill-rule="nonzero" stroke-linecap="butt" stroke-linejoin="miter" stroke-miterlimit="10" stroke-dasharray="" stroke-dashoffset="0" style="mix-blend-mode: normal"><path d="M201.28189,186.25514c-1.82393,0 -7.63876,0.21754 -17.4445,0.65261c-0.18407,0 -0.56057,-2.42633 -1.1295,-7.27899c0.1004,0 0.15059,-0.05019 0.15059,-0.15057c5.48853,-0.11706 9.79737,-0.17558 12.9265,-0.17558h2.761c0.7028,0 1.79139,0.04189 3.2379,-0.15057c0.3322,-0.0442 -0.16732,6.93574 -0.50199,7.1031z" fill="#de315c" stroke="#f3365f" stroke-width="5"/><path d="M223.99739,166.55164c2.761,5.35466 4.26699,8.33319 4.518,8.93559c0,0.11722 -1.33866,1.42242 -4.016,3.9156c0.16733,0.30119 1.506,2.30919 4.016,6.024v0.1003c-0.1004,0.43507 -1.7068,3.34667 -4.8192,8.7348h-12.048c-0.31793,-0.23428 -2.59367,-2.54347 -6.8272,-6.9276c0.83667,-0.76973 3.14587,-2.67733 6.9276,-5.72281c0.31793,0.31793 1.72353,2.52674 4.2168,6.62641h0.10039l3.3132,-2.9116c-0.28447,-0.41833 -1.5562,-1.92434 -3.8152,-4.51801l3.514,-4.8192l-2.51,-3.71478c-3.0622,4.14986 -4.63513,6.22479 -4.7188,6.22479c-4.518,-2.91161 -7.12839,-4.65188 -7.8312,-5.22079c4.68533,-5.08694 7.18865,-8.06315 8.2328,-8.8352c0.71153,-0.52611 11.26154,1.9077 11.74681,2.1085z" fill="#de315c" stroke="#f3365f" stroke-width="5"/><path d="M248.04318,166.75242c2.4096,4.58493 3.61441,7.028 3.61441,7.32919c0,1.17134 0.10039,4.8192 0.30119,10.9436c-1.5562,4.88614 -2.49326,7.32921 -2.8112,7.32921c-1.9076,1.27173 -2.97853,1.9076 -3.2128,1.9076h-10.2408c-2.67733,-3.44706 -4.016,-5.48853 -4.016,-6.12439l-1.1044,-6.024c0,-0.18407 1.8072,-5.22086 1.8072,-5.22086c0.73627,-1.89086 4.63513,-12.75081 4.7188,-12.75081c0.08367,0 10.9436,2.0917 10.9436,2.61046zM240.81438,173.47924c-2.47653,5.18734 -3.74827,7.9316 -3.8152,8.23279c0.251,0.251 1.4558,1.92434 3.6144,5.02c2.1084,-1.00399 3.3132,-1.53945 3.6144,-1.60639c-0.2008,-4.6686 -0.3012,-7.44634 -0.3012,-8.33321c-0.8032,-1.08766 -1.8072,-2.19206 -3.012,-3.31319z" fill="#de315c" stroke="#f3365f" stroke-width="5"/><path d="" data-paper-data="{&quot;origPos&quot;:null}" fill="#ffffff" stroke="#000000" stroke-width="1"/><g data-paper-data="{&quot;origPos&quot;:null}" stroke="none"><path d="M274.31973,164.44962c4.29037,0 8.17765,1.7428 10.99268,4.55783c2.81504,2.81491 4.5577,6.70218 4.5577,10.99256c0,4.29025 -1.74266,8.17766 -4.5577,10.99257c-2.81503,2.81504 -6.70231,4.55783 -10.99268,4.55783c-4.29024,0 -8.17753,-1.74279 -10.99257,-4.55783c-2.81503,-2.81491 -4.55783,-6.70232 -4.55783,-10.99257c0,-4.29037 1.7428,-8.17765 4.55783,-10.99256c2.81504,-2.81504 6.70233,-4.55783 10.99257,-4.55783z" data-paper-data="{&quot;origPos&quot;:null}" fill="url(#color-1)" stroke-width="0.48028"/><path d="M271.06008,168.01502h6.13433v23.52496h-6.13433z" data-paper-data="{&quot;origPos&quot;:null}" fill="url(#color-2)" stroke-width="0.59798"/></g><g fill="#cccccc" stroke="#000000" stroke-width="0"><path d="M201.78389,184.97503v0.80321c0,0.15057 -0.16733,0.30954 -0.502,0.4769c-1.82393,0 -7.63876,0.21754 -17.4445,0.65261c-0.18407,0 -0.56057,-2.42633 -1.1295,-7.27899c0.1004,0 0.15059,-0.05019 0.15059,-0.15057c5.48853,-0.11706 9.79737,-0.17558 12.9265,-0.17558h2.761c0.7028,0 1.7821,-0.05019 3.2379,-0.15057c0,0 0.00001,4.40067 0.00001,5.82299z"/><path d="M212.25059,164.44323c7.34593,1.2048 11.26153,1.9076 11.7468,2.1084c2.761,5.35466 4.26699,8.33319 4.518,8.93559c0,0.11722 -1.33866,1.42242 -4.016,3.9156c0.16733,0.30119 1.506,2.30919 4.016,6.024v0.1003c-0.1004,0.43507 -1.7068,3.34667 -4.8192,8.7348h-12.048c-0.31793,-0.23428 -2.59367,-2.54347 -6.8272,-6.9276c0.83667,-0.76973 3.14587,-2.67733 6.9276,-5.72281c0.31793,0.31793 1.72353,2.52674 4.2168,6.62641h0.10039l3.3132,-2.9116c-0.28447,-0.41833 -1.5562,-1.92434 -3.8152,-4.51801l3.514,-4.8192l-2.51,-3.71478c-3.0622,4.14986 -4.63513,6.22479 -4.7188,6.22479c-4.518,-2.91161 -7.12839,-4.65188 -7.8312,-5.22079c4.68533,-5.08694 7.4296,-8.032 8.2328,-8.8352z"/><path d="M237.09958,164.14201h1.6064c0,0.20081 2.54347,0.73628 7.6304,1.60641c1.13787,0.15057 1.7068,0.48524 1.7068,1.004c2.4096,4.58493 3.61441,7.028 3.61441,7.32919c0,1.17134 0.10039,4.8192 0.30119,10.9436c-1.5562,4.88614 -2.49326,7.32921 -2.8112,7.32921c-1.9076,1.27173 -2.97853,1.9076 -3.2128,1.9076h-10.2408c-2.67733,-3.44706 -4.016,-5.48853 -4.016,-6.12439l-1.1044,-6.024c0,-0.18407 1.8072,-5.22086 1.8072,-5.22086c0.73627,-1.89086 2.17533,-5.90686 4.3172,-12.048c0.18407,-0.46854 0.31793,-0.70281 0.4016,-0.70281zM240.81438,173.47924c-2.47653,5.18734 -3.74827,7.9316 -3.8152,8.23279c0.251,0.251 1.4558,1.92434 3.6144,5.02c2.1084,-1.00399 3.3132,-1.53945 3.6144,-1.60639c-0.2008,-4.6686 -0.3012,-7.44634 -0.3012,-8.33321c-0.8032,-1.08766 -1.8072,-2.19206 -3.012,-3.31319z"/></g></g></g></svg>