<svg version="1.1" xmlns="http://www.w3.org/2000/svg" xmlns:xlink="http://www.w3.org/1999/xlink" width="531.6999" height="366.95" viewBox="0,0,531.6999,366.95"><defs><linearGradient x1="55.7757" y1="325.656" x2="579.4756" y2="325.656" gradientUnits="userSpaceOnUse" id="color-1"><stop offset="0" stop-color="#4919d1"/><stop offset="1" stop-color="#1923d0"/></linearGradient><linearGradient x1="55.7757" y1="325.656" x2="579.4756" y2="325.656" gradientUnits="userSpaceOnUse" id="color-2"><stop offset="0" stop-color="#f86828"/><stop offset="1" stop-color="#1d22d0"/></linearGradient><linearGradient x1="61.7757" y1="28.156" x2="585.4756" y2="28.156" gradientUnits="userSpaceOnUse" id="color-3"><stop offset="0" stop-color="#e2edff"/><stop offset="1" stop-color="#a8c8ff"/></linearGradient><linearGradient x1="105.1204" y1="304.55758" x2="105.1204" y2="326.98214" gradientUnits="userSpaceOnUse" id="color-4"><stop offset="0" stop-color="#ff1212"/><stop offset="1" stop-color="#d90f0f"/></linearGradient><linearGradient x1="256.40674" y1="133.66576" x2="255.88776" y2="133.51696" gradientUnits="userSpaceOnUse" id="color-5"><stop offset="0" stop-color="#8aa742"/><stop offset="0.1" stop-color="#8aa742"/><stop offset="0.25" stop-color="#b7ca33"/><stop offset="0.4045" stop-color="#b7ca33"/><stop offset="1" stop-color="#8aa742"/></linearGradient><linearGradient x1="259.19638" y1="123.81041" x2="258.69752" y2="123.77552" gradientUnits="userSpaceOnUse" id="color-6"><stop offset="0" stop-color="#83b641"/><stop offset="0.2" stop-color="#b7ca33"/><stop offset="0.525" stop-color="#b7ca33"/><stop offset="1" stop-color="#8aa742"/></linearGradient><linearGradient x1="281.0949" y1="125.00627" x2="281.31793" y2="125.37744" gradientUnits="userSpaceOnUse" id="color-7"><stop offset="0" stop-color="#83b641"/><stop offset="1" stop-color="#595e48"/></linearGradient><linearGradient x1="281.66947" y1="125.29338" x2="281.52881" y2="125.46102" gradientUnits="userSpaceOnUse" id="color-8"><stop offset="0" stop-color="#8aa742"/><stop offset="1" stop-color="#595e48"/></linearGradient><linearGradient x1="281.87925" y1="125.43021" x2="281.87925" y2="125.7854" gradientUnits="userSpaceOnUse" id="color-9"><stop offset="0" stop-color="#8aa742"/><stop offset="1" stop-color="#767e47"/></linearGradient><linearGradient x1="275.76373" y1="144.8007" x2="275.2773" y2="144.76667" gradientUnits="userSpaceOnUse" id="color-10"><stop offset="0" stop-color="#767e47"/><stop offset="1" stop-color="#8aa742"/></linearGradient><linearGradient x1="275.99221" y1="144.84418" x2="275.67801" y2="145.19313" gradientUnits="userSpaceOnUse" id="color-11"><stop offset="0" stop-color="#767e47"/><stop offset="1" stop-color="#595e48"/></linearGradient><linearGradient x1="253.34727" y1="145.45684" x2="275.53222" y2="145.45684" gradientUnits="userSpaceOnUse" id="color-12"><stop offset="0" stop-color="#8aa742"/><stop offset="0.4" stop-color="#b7ca33"/><stop offset="1" stop-color="#8aa742"/></linearGradient><linearGradient x1="253.21213" y1="143.75836" x2="252.86083" y2="143.36818" gradientUnits="userSpaceOnUse" id="color-13"><stop offset="0" stop-color="#767e47"/><stop offset="0.1" stop-color="#767e47"/><stop offset="0.65" stop-color="#83b641"/><stop offset="1" stop-color="#8aa742"/></linearGradient><linearGradient x1="253.2005" y1="143.12699" x2="253.45621" y2="143.58827" gradientUnits="userSpaceOnUse" id="color-14"><stop offset="0" stop-color="#8aa742"/><stop offset="0.4045" stop-color="#83b641"/><stop offset="0.8" stop-color="#8aa742"/><stop offset="1" stop-color="#8aa742"/></linearGradient><linearGradient x1="278.61594" y1="134.99742" x2="278.0989" y2="134.84917" gradientUnits="userSpaceOnUse" id="color-15"><stop offset="0" stop-color="#595e48"/><stop offset="1" stop-color="#83b641"/></linearGradient><linearGradient x1="277.33363" y1="137.86526" x2="256.83222" y2="131.98657" gradientUnits="userSpaceOnUse" id="color-16"><stop offset="0" stop-color="#6fbc48"/><stop offset="0.3333" stop-color="#98c74f"/><stop offset="0.6666" stop-color="#80c046"/><stop offset="1" stop-color="#607d3a"/></linearGradient><linearGradient x1="222.22952" y1="162.48772" x2="243.95512" y2="162.48772" gradientUnits="userSpaceOnUse" id="color-17"><stop offset="0" stop-color="#76a5d8"/><stop offset="0.45" stop-color="#dae3ec"/><stop offset="1" stop-color="#3f87c7"/></linearGradient><clipPath id="clip-1"><path d="M243.95202,164.31102c-4.94543,-3.32939 -10.30704,-6.02693 -21.72042,-1.30891l5.53691,-19.3521c11.41511,-4.72078 16.94616,-2.20855 21.88745,1.13982z" fill="none"/></clipPath><linearGradient x1="246.37663" y1="156.19497" x2="225.85124" y2="150.30938" gradientUnits="userSpaceOnUse" id="color-18"><stop offset="0" stop-color="#2e499e"/><stop offset="0.4" stop-color="#4496d1"/><stop offset="0.725" stop-color="#a5cded"/><stop offset="1" stop-color="#007fc4"/></linearGradient><linearGradient x1="227.77147" y1="143.51522" x2="227.77147" y2="143.65608" gradientUnits="userSpaceOnUse" id="color-19"><stop offset="0" stop-color="#76a5d8"/><stop offset="1" stop-color="#2e499e"/></linearGradient><clipPath id="clip-2"><path d="M234.39209,120.59065l-0.06281,-0.01795c0.02416,-0.08213 0.08075,-0.11146 0.10283,-0.12078l0.00932,-0.00276c0.00034,0.00034 -0.02071,0.04348 -0.04935,0.14149z" fill="none" fill-rule="nonzero"/></clipPath><clipPath id="clip-3"><path d="M234.39209,120.59065l-0.06281,-0.01795c0.02416,-0.08213 0.08075,-0.11146 0.10283,-0.12078l0.00932,-0.00276c0.00034,0.00034 -0.02071,0.04348 -0.04935,0.14149z" fill="none" fill-rule="nonzero"/></clipPath><clipPath id="clip-4"><path d="M234.39209,120.59065l-0.06281,-0.01795c0.02416,-0.08213 0.08075,-0.11146 0.10283,-0.12078l0.00932,-0.00276c0.00034,0.00034 -0.02071,0.04348 -0.04935,0.14149z" fill="none" fill-rule="nonzero"/></clipPath><clipPath id="clip-5"><path d="M234.39209,120.59065l-0.06281,-0.01795c0.02416,-0.08213 0.08075,-0.11146 0.10283,-0.12078l0.00932,-0.00276c0.00034,0.00034 -0.02071,0.04348 -0.04935,0.14149z" fill="none" fill-rule="nonzero"/></clipPath><clipPath id="clip-6"><path d="M234.39209,120.59065l-0.06281,-0.01795c0.02416,-0.08213 0.08075,-0.11146 0.10283,-0.12078l0.00932,-0.00276c0.00034,0.00034 -0.02071,0.04348 -0.04935,0.14149z" fill="none" fill-rule="nonzero"/></clipPath><clipPath id="clip-7"><path d="M234.39209,120.59065l-0.06281,-0.01795c0.02416,-0.08213 0.08075,-0.11146 0.10283,-0.12078l0.00932,-0.00276c0.00034,0.00034 -0.02071,0.04348 -0.04935,0.14149z" fill="none" fill-rule="nonzero"/></clipPath><clipPath id="clip-8"><path d="M234.39209,120.59065l-0.06281,-0.01795c0.02416,-0.08213 0.08075,-0.11146 0.10283,-0.12078l0.00932,-0.00276c0.00034,0.00034 -0.02071,0.04348 -0.04935,0.14149z" fill="none" fill-rule="nonzero"/></clipPath><clipPath id="clip-9"><path d="M234.39209,120.59065l-0.06281,-0.01795c0.02416,-0.08213 0.08075,-0.11146 0.10283,-0.12078l0.00932,-0.00276c0.00034,0.00034 -0.02071,0.04348 -0.04935,0.14149z" fill="none" fill-rule="nonzero"/></clipPath><clipPath id="clip-10"><path d="M234.39209,120.59065l-0.06281,-0.01795c0.02416,-0.08213 0.08075,-0.11146 0.10283,-0.12078l0.00932,-0.00276c0.00034,0.00034 -0.02071,0.04348 -0.04935,0.14149z" fill="none" fill-rule="nonzero"/></clipPath><clipPath id="clip-11"><path d="M234.39209,120.59065l-0.06281,-0.01795c0.02416,-0.08213 0.08075,-0.11146 0.10283,-0.12078l0.00932,-0.00276c0.00034,0.00034 -0.02071,0.04348 -0.04935,0.14149z" fill="none" fill-rule="nonzero"/></clipPath><clipPath id="clip-12"><path d="M234.39209,120.59065l-0.06281,-0.01795c0.02416,-0.08213 0.08075,-0.11146 0.10283,-0.12078l0.00932,-0.00276c0.00034,0.00034 -0.02071,0.04348 -0.04935,0.14149z" fill="none" fill-rule="nonzero"/></clipPath><clipPath id="clip-13"><path d="M234.39209,120.59065l-0.06281,-0.01795c0.02416,-0.08213 0.08075,-0.11146 0.10283,-0.12078l0.00932,-0.00276c0.00034,0.00034 -0.02071,0.04348 -0.04935,0.14149z" fill="none" fill-rule="nonzero"/></clipPath><clipPath id="clip-14"><path d="M234.39209,120.59065l-0.06281,-0.01795c0.02416,-0.08213 0.08075,-0.11146 0.10283,-0.12078l0.00932,-0.00276c0.00034,0.00034 -0.02071,0.04348 -0.04935,0.14149z" fill="none" fill-rule="nonzero"/></clipPath><clipPath id="clip-15"><path d="M234.39209,120.59065l-0.06281,-0.01795c0.02416,-0.08213 0.08075,-0.11146 0.10283,-0.12078l0.00932,-0.00276c0.00034,0.00034 -0.02071,0.04348 -0.04935,0.14149z" fill="none" fill-rule="nonzero"/></clipPath><clipPath id="clip-16"><path d="M234.39209,120.59065l-0.06281,-0.01795c0.02416,-0.08213 0.08075,-0.11146 0.10283,-0.12078l0.00932,-0.00276c0.00034,0.00034 -0.02071,0.04348 -0.04935,0.14149z" fill="none" fill-rule="nonzero"/></clipPath><clipPath id="clip-17"><path d="M234.39209,120.59065l-0.06281,-0.01795c0.02416,-0.08213 0.08075,-0.11146 0.10283,-0.12078l0.00932,-0.00276c0.00034,0.00034 -0.02071,0.04348 -0.04935,0.14149z" fill="none" fill-rule="nonzero"/></clipPath><linearGradient x1="228.75987" y1="139.42287" x2="250.59569" y2="139.42287" gradientUnits="userSpaceOnUse" id="color-20"><stop offset="0" stop-color="#faab4f"/><stop offset="0.25" stop-color="#faab4f"/><stop offset="0.475" stop-color="#fcc193"/><stop offset="0.525" stop-color="#fcc193"/><stop offset="0.75" stop-color="#f89c3e"/><stop offset="1" stop-color="#f89c3e"/></linearGradient><linearGradient x1="252.94203" y1="133.27181" x2="232.39818" y2="127.38095" gradientUnits="userSpaceOnUse" id="color-21"><stop offset="0" stop-color="#cd2b2b"/><stop offset="0.4" stop-color="#f2692a"/><stop offset="0.725" stop-color="#fcb544"/><stop offset="1" stop-color="#f37237"/></linearGradient><linearGradient x1="269.67603" y1="167.76309" x2="269.55974" y2="168.19717" gradientUnits="userSpaceOnUse" id="color-22"><stop offset="0" stop-color="#d4a52e"/><stop offset="1" stop-color="#a87c3c"/></linearGradient><linearGradient x1="275.14585" y1="148.74424" x2="275.14585" y2="149.10147" gradientUnits="userSpaceOnUse" id="color-23"><stop offset="0.0056" stop-color="#c19236"/><stop offset="1" stop-color="#d4a52e"/></linearGradient><linearGradient x1="274.3524" y1="148.32199" x2="274.57715" y2="148.69607" gradientUnits="userSpaceOnUse" id="color-24"><stop offset="0.0056" stop-color="#ffcd02"/><stop offset="1" stop-color="#a87c3c"/></linearGradient><linearGradient x1="274.93794" y1="148.6088" x2="274.80036" y2="148.77274" gradientUnits="userSpaceOnUse" id="color-25"><stop offset="0.0056" stop-color="#ffcd02"/><stop offset="1" stop-color="#a87c3c"/></linearGradient><linearGradient x1="269.22328" y1="167.5646" x2="268.73581" y2="167.53053" gradientUnits="userSpaceOnUse" id="color-26"><stop offset="0" stop-color="#c19236"/><stop offset="1" stop-color="#ffcd02"/></linearGradient><linearGradient x1="249.83105" y1="156.42918" x2="249.32084" y2="156.28286" gradientUnits="userSpaceOnUse" id="color-27"><stop offset="0" stop-color="#d4a52e"/><stop offset="0.1" stop-color="#d4a52e"/><stop offset="0.2" stop-color="#ffc222"/><stop offset="0.35" stop-color="#ffc222"/><stop offset="1" stop-color="#d4a52e"/></linearGradient><linearGradient x1="271.96054" y1="158.03124" x2="271.4772" y2="157.89265" gradientUnits="userSpaceOnUse" id="color-28"><stop offset="0" stop-color="#a87c3c"/><stop offset="1" stop-color="#ffd200"/></linearGradient><linearGradient x1="269.42616" y1="167.511" x2="269.18331" y2="168.05642" gradientUnits="userSpaceOnUse" id="color-29"><stop offset="0" stop-color="#c19236"/><stop offset="1" stop-color="#d4a52e"/></linearGradient><linearGradient x1="246.81692" y1="168.15873" x2="268.99107" y2="168.15873" gradientUnits="userSpaceOnUse" id="color-30"><stop offset="0" stop-color="#d4a52e"/><stop offset="0.4" stop-color="#ffd200"/><stop offset="1" stop-color="#d4a52e"/></linearGradient><linearGradient x1="246.66343" y1="166.51553" x2="246.30623" y2="166.11882" gradientUnits="userSpaceOnUse" id="color-31"><stop offset="0" stop-color="#d4a52e"/><stop offset="0.1" stop-color="#d4a52e"/><stop offset="0.7" stop-color="#ffd200"/><stop offset="1" stop-color="#d4a52e"/></linearGradient><linearGradient x1="246.67388" y1="165.84961" x2="246.92663" y2="166.30558" gradientUnits="userSpaceOnUse" id="color-32"><stop offset="0" stop-color="#d4a52e"/><stop offset="0.4" stop-color="#ffc222"/><stop offset="0.8" stop-color="#ffcd02"/><stop offset="1" stop-color="#d4a52e"/></linearGradient><clipPath id="clip-18"><path d="M252.57779,146.78305c4.93922,3.32422 10.29117,5.62801 21.65762,1.71473l-5.41889,18.83412c-10.0006,4.39709 -16.75084,1.75649 -21.8098,-1.30098z" fill="none"/></clipPath><linearGradient x1="270.81037" y1="160.56683" x2="250.26295" y2="154.67496" gradientUnits="userSpaceOnUse" id="color-33"><stop offset="0" stop-color="#ffc907"/><stop offset="0.1667" stop-color="#ffd200"/><stop offset="0.3333" stop-color="#ffd952"/><stop offset="0.625" stop-color="#ffcd02"/><stop offset="1" stop-color="#b77a36"/></linearGradient><clipPath id="clip-19"><path d="M252.57779,146.78305c4.93922,3.32422 10.29117,5.62801 21.65762,1.71473l-5.41889,18.83412c-10.0006,4.39709 -16.75084,1.75649 -21.8098,-1.30098z"/></clipPath><linearGradient x1="252.59747" y1="146.67476" x2="252.08984" y2="146.63925" gradientUnits="userSpaceOnUse" id="color-34"><stop offset="0" stop-color="#ffc222"/><stop offset="0.2" stop-color="#ffc222"/><stop offset="0.525" stop-color="#ffd200"/><stop offset="1" stop-color="#d4a52e"/></linearGradient></defs><g transform="translate(-54.7757,4.819)"><g data-paper-data="{&quot;isPaintingLayer&quot;:true}" stroke-linejoin="miter" stroke-miterlimit="10" stroke-dasharray="" stroke-dashoffset="0" style="mix-blend-mode: normal"><path d="M579.4756,361.131h-523.6999v-70.95h523.6999z" data-paper-data="{&quot;origPos&quot;:null,&quot;index&quot;:null}" fill="url(#color-1)" fill-rule="nonzero" stroke="url(#color-2)" stroke-width="2" stroke-linecap="butt"/><text transform="translate(133,214.8572) scale(0.35127,0.33903)" font-size="40" xml:space="preserve" data-paper-data="{&quot;origPos&quot;:null}" fill="#ffffff" fill-rule="nonzero" stroke="none" stroke-width="1" stroke-linecap="butt" stroke-linejoin="miter" stroke-miterlimit="10" stroke-dasharray="" stroke-dashoffset="0" font-family="Sans Serif" font-weight="normal" text-anchor="start" style="mix-blend-mode: normal"><tspan x="0" dy="0">To begin, run to the right.</tspan></text><path d="M585.4756,60.131h-523.6999v-63.95h523.6999z" data-paper-data="{&quot;index&quot;:null}" fill="#1923d0" fill-rule="nonzero" stroke="url(#color-3)" stroke-width="2" stroke-linecap="butt"/><text transform="translate(182,186.23049) scale(0.5667,0.5667)" font-size="40" xml:space="preserve" data-paper-data="{&quot;origPos&quot;:null}" fill="#ffffff" fill-rule="nonzero" stroke="none" stroke-width="1" stroke-linecap="butt" stroke-linejoin="miter" stroke-miterlimit="10" stroke-dasharray="" stroke-dashoffset="0" font-family="Sans Serif" font-weight="normal" text-anchor="start" style="mix-blend-mode: normal"><tspan x="0" dy="0">Windows</tspan></text><text transform="translate(280.5,179.37202) scale(0.46776,0.46776)" font-size="40" xml:space="preserve" data-paper-data="{&quot;origPos&quot;:null}" fill="#f86828" fill-rule="nonzero" stroke="none" stroke-width="1" stroke-linecap="butt" stroke-linejoin="miter" stroke-miterlimit="10" stroke-dasharray="" stroke-dashoffset="0" font-family="Sans Serif" font-weight="normal" text-anchor="start" style="mix-blend-mode: normal"><tspan x="0" dy="0">xp</tspan></text><text transform="translate(181.815,168.36509) scale(0.21836,0.21836)" font-size="40" xml:space="preserve" data-paper-data="{&quot;origPos&quot;:null}" fill="#ffffff" fill-rule="nonzero" stroke="none" stroke-width="1" stroke-linecap="butt" stroke-linejoin="miter" stroke-miterlimit="10" stroke-dasharray="" stroke-dashoffset="0" font-family="Sans Serif" font-weight="normal" text-anchor="start" style="mix-blend-mode: normal"><tspan x="0" dy="0">Microsoft</tspan></text><g fill-rule="nonzero" stroke="#ffffff" stroke-width="1.5"><path d="M93.90812,324.37464c0,-3.05284 0,-10.4933 0,-17.20954c0,-1.01761 1.69589,-2.60751 2.78134,-2.60751c6.58057,0 13.60552,0 16.86188,0c1.08545,0 2.78134,1.80188 2.78134,2.95518c0,6.51272 0,13.43168 0,16.68804c0,1.08545 -1.80188,2.78134 -2.95518,2.78134c0,0 -13.43168,0 -16.68804,0c-1.08545,0 -2.78134,-1.5899 -2.78134,-2.60751z" data-paper-data="{&quot;origPos&quot;:null}" fill="url(#color-4)" stroke-linecap="butt"/><path d="M97.4257,315.84314c0,-4.20919 3.41223,-7.62142 7.62142,-7.62142c4.20919,0 7.62142,3.41223 7.62142,7.62142c0,4.20919 -3.41223,7.62142 -7.62142,7.62142c-4.20919,0 -7.62142,-3.41223 -7.62142,-7.62142z" data-paper-data="{&quot;origPos&quot;:null}" fill="none" stroke-linecap="butt"/><path d="M105.04712,310.85991v10.11303" data-paper-data="{&quot;origPos&quot;:null}" fill="none" stroke-linecap="round"/></g><text transform="translate(122.7772,319.5638) scale(0.39678,0.39678)" font-size="40" xml:space="preserve" fill="#ffffff" fill-rule="nonzero" stroke="none" stroke-width="1" stroke-linecap="butt" stroke-linejoin="miter" stroke-miterlimit="10" stroke-dasharray="" stroke-dashoffset="0" font-family="Sans Serif" font-weight="normal" text-anchor="start" style="mix-blend-mode: normal"><tspan x="0" dy="0">Turn off computer</tspan></text><g stroke="none" stroke-width="1" stroke-linecap="butt"><path d="M235.85595,163.83376" fill="none" fill-rule="nonzero"/><g><g><path d="M280.97012,125.18892c-11.38647,4.70836 -16.86334,2.07017 -21.79704,-1.25059c0.01139,-0.04348 0.03175,-0.12768 -0.00138,-0.20843c4.9337,3.32146 10.5203,5.99449 21.90608,1.28683c-0.07557,0.06936 -0.07557,0.10387 -0.10767,0.1722z" fill="#83b641" fill-rule="nonzero"/><path d="M258.70998,123.88208l-5.56107,19.31759l-0.4286,0.33922l0.00034,-0.04452l5.58281,-19.32173z" fill="#8aa742" fill-rule="evenodd"/><path d="M253.56785,143.41535c-0.17323,-0.09697 -0.29815,-0.29229 -0.45206,-0.2319l5.57487,-19.29274c0.08558,-0.0383 0.30126,-0.11215 0.50486,0.04831z" fill="url(#color-5)" fill-rule="nonzero"/><path d="M258.76243,123.75681l-0.05728,0.13803l-0.40651,0.29367c0.03451,-0.13182 0.3444,-0.35164 0.43999,-0.41825c0.01795,-0.01242 0.02381,-0.01346 0.02381,-0.01346z" fill="#8aa742" fill-rule="evenodd"/><path d="M259.17619,123.92522c-0.21085,-0.1301 -0.40099,-0.06695 -0.48726,-0.02968c0.01346,-0.04106 0.05004,-0.12527 0.05004,-0.12527c0.18324,-0.11595 0.26296,-0.12147 0.43412,-0.03969c0.02208,0.06384 0.0314,0.12527 0.0031,0.19463z" fill="url(#color-6)" fill-rule="nonzero"/><path d="M281.39251,125.33248c0,0 -0.12734,-0.17565 -0.43205,-0.1194c0.02692,-0.07212 0.02692,-0.13976 0.11733,-0.1967c0.18324,-0.02761 0.27227,0.02071 0.31127,0.05832c0.02174,0.0214 0.0283,0.03899 0.0283,0.03899c0.0245,0.10767 -0.02485,0.21879 -0.02485,0.21879z" fill="url(#color-7)" fill-rule="evenodd"/><path d="M281.3894,125.0747l0.45034,0.36131c0.02692,0.12078 -0.03106,0.24329 -0.03106,0.24329l-0.45172,-0.36268c0,0 0.05659,-0.13458 0.03244,-0.2419z" fill="url(#color-8)" fill-rule="evenodd"/><path d="M281.82593,125.65651l-5.66149,19.41145l-0.42722,-0.37718l5.62905,-19.39972z" fill="#595e48" fill-rule="evenodd"/><path d="M276.27487,145.20842c0.01208,-0.11077 -0.10594,-0.20222 -0.10594,-0.20222l5.65113,-19.36728c0,0 0.08972,0.08075 0.11388,0.13907z" fill="#767e47" fill-rule="evenodd"/><path d="M281.93257,125.78523c0,0 -0.02036,-0.05556 -0.11664,-0.13665c0.04383,-0.18221 0.01484,-0.21879 0.01484,-0.21879l0.00863,0.00587c0,0.00034 0.14149,0.12906 0.09317,0.34957z" fill="url(#color-9)" fill-rule="evenodd"/><path d="M276.08611,145.38924c-3.04297,1.38173 -5.92306,2.09468 -8.59748,2.32795c-4.61829,0.52453 -8.35282,-0.48002 -11.40407,-1.97873c-1.18641,-0.54455 -2.26066,-1.16087 -3.21103,-1.801l0.05142,-0.04452c0.96348,0.64842 2.01358,1.282 3.15927,1.84552c3.10026,1.42348 6.96902,2.36315 11.40407,1.97873c2.52603,-0.28573 5.3164,-1.03112 8.40458,-2.40077c0.08696,0.07005 0.19325,0.07281 0.19325,0.07281z" fill="#595e48" fill-rule="evenodd"/><path d="M275.47151,145.02897c0,0 -0.21775,-0.19532 -0.17806,-0.4814c0.29263,-0.07488 0.48002,0.11043 0.48002,0.11043c0,0 -0.05383,0.2633 -0.30195,0.37097z" fill="url(#color-10)" fill-rule="nonzero"/><path d="M275.77346,144.65835l0.40927,0.35716c0,0 -0.06281,0.22396 -0.31127,0.33301l-0.41583,-0.35613c0.24915,-0.10905 0.31782,-0.33404 0.31782,-0.33404z" fill="url(#color-11)" fill-rule="evenodd"/><path d="M275.36109,144.54171c-0.03969,0.28642 0.17116,0.49555 0.17116,0.49555c-11.38854,4.7087 -17.2557,1.93593 -22.18491,-1.40312c0.08662,-0.0635 0.10007,-0.06281 0.15632,-0.26364c4.92852,3.33975 12.37825,5.67978 21.85742,1.17122z" fill="url(#color-12)" fill-rule="nonzero"/><path d="M252.92737,143.91296l0.42342,-0.28297c4.93128,3.17479 10.756,5.92065 22.13246,1.34929l0.41169,0.35751c-10.92302,4.81878 -17.91102,2.13505 -22.96757,-1.42383z" fill="#767e47" fill-rule="evenodd"/><path d="M276.27487,145.20842c-0.05659,0.10387 -0.15563,0.16323 -0.18876,0.18048c-0.0069,0.00414 -0.01139,0.00414 -0.01139,0.00414c0,0 -0.07764,0.0107 -0.18117,-0.05659c0.22258,-0.12147 0.28711,-0.36407 0.28711,-0.36407c0,0 0.12941,0.10801 0.09421,0.23604z" fill="#767e47" fill-rule="evenodd"/><path d="M252.9429,143.90744l-0.05073,0.04176c0,0 -0.27745,-0.14977 -0.17116,-0.45482c0.02485,0.29988 0.22189,0.41307 0.22189,0.41307z" fill="#767e47" fill-rule="evenodd"/><path d="M252.72066,143.49437l0.40858,-0.323c-0.02381,0.31127 0.24536,0.44067 0.24536,0.44067l-0.41548,0.31955c0,0 -0.26192,-0.12527 -0.23846,-0.43722z" fill="url(#color-13)" fill-rule="nonzero"/><path d="M253.12027,143.17137c0.13976,-0.04245 0.26606,0.10249 0.43722,0.23535c-0.05556,0.20153 -0.10456,0.16702 -0.19118,0.23121c-0.10146,-0.06074 -0.27193,-0.2105 -0.24605,-0.46656z" fill="url(#color-14)" fill-rule="nonzero"/><path d="M275.30725,144.58553l5.63595,-19.39006c0.30471,-0.05625 0.45034,0.11629 0.45034,0.11629l-5.61973,19.34658c-0.00034,0 -0.22534,-0.17254 -0.46656,-0.07281z" fill="url(#color-15)" fill-rule="nonzero"/><g fill="none" fill-rule="nonzero" font-family="sans-serif" font-weight="normal" font-size="12" text-anchor="start"/></g><path d="M275.36247,144.60314c-10.9244,4.89056 -16.87576,2.14471 -21.80532,-1.19503l5.61732,-19.48427c4.93439,3.32077 10.40918,5.96723 21.79565,1.25957z" fill="url(#color-16)" fill-rule="nonzero"/></g><g><g><path d="M222.63431,163.57633c0.03727,0.00552 0.10594,-0.02692 0.10594,-0.02692c0.07902,0.05383 0.14183,0.09179 0.14183,0.09179c0,0 -0.12354,0.02933 -0.24777,-0.06488z" fill="#313c7e" fill-rule="evenodd"/><path d="M243.75704,164.57363c0,0 0.07557,0.07005 0.16254,0.0459l-0.34129,0.20222c-0.10905,0.04866 -0.2212,-0.0283 -0.2212,-0.0283z" fill="#313c7e" fill-rule="nonzero"/><path d="M222.74474,163.55183c0,0 -0.0666,0.03382 -0.10422,0.0283l-0.37442,-0.28573l-0.00863,-0.00794c0.05418,0.01898 0.11664,0.00932 0.14183,0.00414z" fill="#313c7e" fill-rule="nonzero"/><path d="M243.94856,164.2948c0.03899,0.0283 0.08006,0.05935 0.11871,0.13734c-0.02174,0.10249 -0.10732,0.15495 -0.15563,0.1929c-0.06971,0.01622 -0.16737,-0.05004 -0.16737,-0.05004c0.05452,-0.0459 0.1477,-0.11181 0.20429,-0.28021z" fill="#2e499e" fill-rule="nonzero"/><g fill="#2e499e" fill-rule="evenodd"><g><path d="M227.71536,143.65622v-0.00621h0.11181v0.00621z"/></g></g><path d="M222.23642,163.04248l-0.0635,-0.01622l5.54312,-19.39109l0.06246,0.0176z" fill="#2e499e" fill-rule="evenodd"/><path d="M222.2661,163.29439c-0.07178,-0.06211 -0.12147,-0.1684 -0.09352,-0.26813l0.0666,-0.02554c-0.02795,0.14425 0.07799,0.24812 0.15529,0.29263c0.00069,-0.00034 -0.05591,0.02795 -0.12837,0.00103z" fill="#2e499e" fill-rule="evenodd"/><path d="M243.75359,164.58709c-4.94578,-3.32836 -10.07134,-5.87061 -21.35187,-1.28717c-0.07764,-0.0459 -0.19566,-0.15632 -0.16806,-0.30195c11.45411,-4.87572 16.77568,-2.02738 21.72146,1.30201c-0.05038,0.17669 -0.14701,0.2426 -0.20153,0.28711z" fill="url(#color-17)" fill-rule="nonzero"/><path d="M222.7223,163.53699c10.8578,-4.24491 15.72455,-1.93317 20.66791,1.24956c-2.96084,-1.90591 -6.00795,-3.43188 -10.21249,-3.45777c-2.81384,-0.01622 -6.13943,0.69811 -10.30117,2.31173c0,0.00034 -0.08593,-0.03209 -0.15425,-0.10353z" fill="#313c7e" fill-rule="evenodd"/><path d="M243.75946,164.5857l-0.39995,0.20878c-4.94336,-3.18273 -9.94642,-5.38266 -20.61442,-1.243l-0.35268,-0.25743c11.28053,-4.58413 16.42162,-2.03774 21.36706,1.29166z" fill="#2e499e" fill-rule="evenodd"/><path d="M243.94511,164.3055l5.70324,-19.5205c0.06108,0.04245 0.09352,0.07557 0.12527,0.11181l-5.70842,19.54465c-0.03209,-0.08213 -0.12009,-0.13596 -0.12009,-0.13596z" fill="#313c7e" fill-rule="evenodd"/><path d="M249.64594,144.79431c-4.94095,-3.34872 -10.51375,-5.77261 -21.87951,-1.13361c0.0283,-0.09697 0.05142,-0.14286 0.05142,-0.14286c11.4158,-4.72009 16.92856,-2.21407 21.86916,1.13499z" fill="#3f87c7" fill-rule="evenodd"/><g fill-rule="nonzero"><g clip-path="url(#clip-1)"><g><path d="M243.95409,164.35277c-4.94543,-3.32836 -10.32153,-6.06593 -21.73492,-1.34653l5.58867,-19.5205c11.4158,-4.72009 16.89991,-2.04912 21.84052,1.29959z" fill="url(#color-18)"/><path d="M243.95409,164.35277c-4.94543,-3.32836 -10.32153,-6.06593 -21.73492,-1.34653l5.58867,-19.5205c11.4158,-4.72009 16.89991,-2.04912 21.84052,1.29959z" fill="none"/></g></g></g><path d="M249.68528,144.65145l0.00932,0.00552c0.0704,0.05004 0.09904,0.14701 0.07902,0.23983l-0.00414,0.01208c-0.0314,-0.03589 -0.06419,-0.07005 -0.12492,-0.1125z" fill="#313c7e" fill-rule="evenodd"/></g><path d="M227.77782,143.65622l-0.06246,-0.01829c0.02381,-0.08213 0.08006,-0.11043 0.10249,-0.12009l0.00932,-0.00276c0.00034,0 -0.02071,0.04314 -0.04935,0.14114z" fill="url(#color-19)" fill-rule="evenodd"/></g><g><path d="M250.01829,141.69785c-4.63658,-3.05401 -10.15037,-5.39198 -20.71933,-1.07253l-0.39547,-0.27917c9.67242,-4.80671 16.18558,-2.49083 21.49923,1.19676z" fill="#d75329" fill-rule="evenodd"/><path d="M250.58906,141.25683l5.61456,-19.38488c0.06074,0.04141 0.09041,0.08144 0.12251,0.11733l-5.61697,19.40145c-0.03209,-0.08144 -0.12009,-0.13389 -0.12009,-0.13389z" fill="#ab4533" fill-rule="evenodd"/><path d="M229.30241,140.61911c1.79859,-0.73779 3.46432,-1.28545 5.00996,-1.66124c0.37476,-0.09076 0.70777,-0.17289 1.10324,-0.24915c0.36407,-0.07247 0.72365,-0.14321 1.07529,-0.19497c0.5511,-0.0842 1.08564,-0.15356 1.60603,-0.19359c0.44516,-0.0352 0.87824,-0.06108 1.30236,-0.06488c0.40996,-0.00483 0.81061,0.00069 1.20194,0.02312c0.34854,0.02001 0.68948,0.04521 1.02525,0.08489c0.28366,0.03313 0.56111,0.06798 0.83545,0.11526c0.5794,0.09938 1.13913,0.22155 1.68022,0.37511c2.18509,0.61805 4.12585,1.6716 5.91029,2.86146c-0.01173,0.00552 -0.05452,-0.01242 -0.07316,-0.02243c-0.01725,-0.00828 -0.02519,-0.00897 -0.04037,-0.01932c-2.4125,-1.52942 -5.00444,-2.85939 -8.2027,-3.25175c-3.27349,-0.40237 -7.08807,0.16115 -12.22745,2.20096c0,0 -0.11975,0.05073 -0.1653,0.05901c-0.04106,0.00656 -0.03347,-0.02485 -0.04106,-0.06246z" fill="#ab4533" fill-rule="evenodd"/><path d="M250.39374,141.53946c0,0 0.07626,0.05349 0.16254,0.03382l-0.3544,0.15632c-0.09559,0.02795 -0.20912,-0.03106 -0.20912,-0.03106z" fill="#ab4533" fill-rule="nonzero"/><path d="M229.30724,140.62256c0,0 0.02174,0.03623 0.03623,0.0597c-0.03485,0.00483 -0.03899,0.0138 -0.12492,-0.0245c-0.01139,-0.00449 -0.02864,-0.01864 -0.04279,-0.02485l-0.36683,-0.28849l-0.03313,-0.02726c0.05004,-0.00345 0.08834,0.02071 0.11353,0.01587z" fill="#ab4533" fill-rule="nonzero"/><path d="M250.59286,141.25752c0.03934,0.02623 0.08627,0.04176 0.11905,0.1232c-0.02174,0.10318 -0.10939,0.15495 -0.15839,0.1929c-0.08696,0.0245 -0.17289,-0.04245 -0.17289,-0.04245c0.05487,-0.04383 0.15563,-0.10594 0.21223,-0.27365z" fill="#d75329" fill-rule="nonzero"/><path d="M256.24123,121.746l0.0069,0.00414c0.06936,0.04969 0.09835,0.14701 0.07833,0.23914l-0.00345,0.01242c-0.03244,-0.03623 -0.05314,-0.07212 -0.11664,-0.12009z" fill="#d75329" fill-rule="evenodd"/><path d="M228.7834,140.32752c-0.05314,-0.04176 -0.10663,-0.20498 -0.07902,-0.30437l0.07454,-0.02588c-0.02761,0.1439 0.06143,0.30782 0.13873,0.35233c0.00034,0 -0.05418,0.03071 -0.13424,-0.02208z" fill="#d75329" fill-rule="evenodd"/><g><g clip-path="url(#clip-2)"><path d="M234.32934,120.45781v-0.00828h0.11215v0.00828z" fill="#faaa4f" fill-rule="evenodd"/></g><g clip-path="url(#clip-3)"><path d="M234.32934,120.46713v-0.00932h0.11215v0.00932z" fill="#f6a34c" fill-rule="evenodd"/></g><g clip-path="url(#clip-4)"><path d="M234.32934,120.47541v-0.00828h0.11215v0.00828z" fill="#f39d48" fill-rule="evenodd"/></g><g clip-path="url(#clip-5)"><path d="M234.32934,120.48507v-0.00932h0.11215v0.00932z" fill="#f09745" fill-rule="evenodd"/></g><g clip-path="url(#clip-6)"><path d="M234.32934,120.4937v-0.00863h0.11215v0.00863z" fill="#ed9142" fill-rule="evenodd"/></g><g clip-path="url(#clip-7)"><path d="M234.32934,120.50198v-0.00828h0.11215v0.00828z" fill="#eb8c3f" fill-rule="evenodd"/></g><g clip-path="url(#clip-8)"><path d="M234.32934,120.51095v-0.00863h0.11215v0.00863z" fill="#e8863c" fill-rule="evenodd"/></g><g clip-path="url(#clip-9)"><path d="M234.32934,120.51924v-0.00828h0.11215v0.00828z" fill="#e68139" fill-rule="evenodd"/></g><g clip-path="url(#clip-10)"><path d="M234.32934,120.52821v-0.00863h0.11215v0.00863z" fill="#e57b37" fill-rule="evenodd"/></g><g clip-path="url(#clip-11)"><path d="M234.32934,120.53684v-0.00863h0.11215v0.00863z" fill="#e27634" fill-rule="evenodd"/></g><g clip-path="url(#clip-12)"><path d="M234.32934,120.54581v-0.00897h0.11215v0.00897z" fill="#e07132" fill-rule="evenodd"/></g><g clip-path="url(#clip-13)"><path d="M234.32934,120.55478v-0.00863h0.11215v0.00863z" fill="#df6b30" fill-rule="evenodd"/></g><g clip-path="url(#clip-14)"><path d="M234.32934,120.56306v-0.00828h0.11215v0.00828z" fill="#dc662e" fill-rule="evenodd"/></g><g clip-path="url(#clip-15)"><path d="M234.32934,120.57272v-0.00932h0.11215v0.00932z" fill="#db602c" fill-rule="evenodd"/></g><g clip-path="url(#clip-16)"><path d="M234.32934,120.58101v-0.00828h0.11215v0.00828z" fill="#d95a2a" fill-rule="evenodd"/></g><g clip-path="url(#clip-17)"><path d="M234.32934,120.59032v-0.00932h0.11215v0.00932z" fill="#d75329" fill-rule="evenodd"/></g></g><path d="M250.39236,141.54084c-3.04159,-1.98839 -5.8889,-3.63445 -10.39745,-3.7642c-3.29696,0.06522 -5.82437,0.48519 -11.08176,2.57331c-0.07764,-0.04417 -0.17599,-0.15425 -0.14873,-0.29884c4.55204,-1.93835 8.16578,-2.77449 11.16492,-2.74516c4.54134,0.04521 7.68956,1.94525 10.66628,3.94779c-0.05038,0.1753 -0.14839,0.2426 -0.20326,0.28711z" fill="url(#color-20)" fill-rule="nonzero"/><path d="M234.33101,120.56925l0.05211,0.01656l-5.60593,19.45873c-0.01277,-0.00552 -0.07247,-0.0214 -0.07247,-0.0214z" fill="#d75329" fill-rule="evenodd"/><path d="M256.20465,121.89438c-4.9375,-3.34561 -10.46923,-5.92893 -21.82706,-1.29338c0.02899,-0.09731 0.05452,-0.14908 0.05452,-0.14908c11.40821,-4.7163 16.87714,-2.04878 21.81567,1.29822z" fill="#f89c3e" fill-rule="evenodd"/><path d="M250.59735,141.26097c-2.97741,-2.00495 -6.17946,-3.87636 -10.72701,-3.91086c-3.00053,-0.02312 -6.57217,0.82924 -11.10626,2.7041l5.61904,-19.47046c11.40821,-4.71698 16.88784,-2.0474 21.82499,1.2989z" fill="url(#color-21)" fill-rule="nonzero"/></g><g><path d="M269.78449,168.00448c-0.05521,0.10249 -0.15495,0.16323 -0.18807,0.18048c-0.00725,0.00414 -0.01208,0.00414 -0.01208,0.00414c0,0 -0.0949,0.01208 -0.18117,-0.05659c0.22258,-0.12147 0.28849,-0.36545 0.28849,-0.36545c0,0 0.12837,0.10939 0.09283,0.23742z" fill="url(#color-22)" fill-rule="evenodd"/><path d="M269.78449,168.00448c0.01346,-0.11043 -0.10525,-0.2036 -0.10525,-0.2036l5.40681,-18.8462c0,0 0.09041,0.07937 0.11526,0.13873z" fill="#d4a52e" fill-rule="evenodd"/><path d="M275.19786,149.10134c0,0 -0.0176,-0.05383 -0.11457,-0.13493c0.04452,-0.18324 0.01346,-0.22258 0.01346,-0.22258l0.00863,0.00552c0.00034,0.00034 0.14252,0.13113 0.09248,0.35199z" fill="url(#color-23)" fill-rule="evenodd"/><path d="M274.65884,148.6472c0,0 -0.14977,-0.18186 -0.45413,-0.12527c0.01622,-0.06867 0.04176,-0.15218 0.13873,-0.19152c0.18393,-0.0283 0.27227,0.02036 0.31127,0.05798c0.02208,0.02278 0.0283,0.03899 0.0283,0.03899c0.02416,0.10801 -0.02416,0.21982 -0.02416,0.21982z" fill="url(#color-24)" fill-rule="evenodd"/><path d="M274.65469,148.38839l0.45103,0.36131c0.02623,0.12251 -0.02208,0.24398 -0.02208,0.24398l-0.44896,-0.35992c-0.00034,0 0.04417,-0.13769 0.02001,-0.24536z" fill="url(#color-25)" fill-rule="evenodd"/><path d="M274.63261,148.60545l0.45896,0.36648l-5.40026,18.83964l-0.0214,0.05142l-0.4738,-0.40858z" fill="#a87c3c" fill-rule="evenodd"/><path d="M268.92971,167.79259c0,0 -0.21706,-0.19428 -0.17806,-0.4814c0.29263,-0.07419 0.4814,0.11043 0.4814,0.11043c0,0 -0.05383,0.26192 -0.30333,0.37097z" fill="url(#color-26)" fill-rule="nonzero"/><path d="M274.22334,148.54057c-11.44858,3.89982 -16.71633,1.56911 -21.65555,-1.75511c0.01173,-0.04452 0.0421,-0.11733 0.00863,-0.19946c4.93922,3.32422 10.40194,5.59419 21.76667,1.74441c-0.08593,0.05935 -0.09697,0.1401 -0.11975,0.21016z" fill="#ffcd02" fill-rule="nonzero"/><path d="M252.11089,146.73163l-5.52863,19.23063l-0.42929,0.33957l0.00103,-0.0459l5.55071,-19.2289z" fill="#d4a52e" fill-rule="evenodd"/><path d="M247.05262,166.0537c-0.16115,-0.09559 -0.34888,-0.1684 -0.50279,-0.10663l5.54312,-19.20751c0.08627,-0.03623 0.29125,-0.09317 0.50141,0.05383z" fill="url(#color-27)" fill-rule="nonzero"/><path d="M268.76545,167.35054l5.43787,-18.8355c0.01001,-0.00276 0.02347,-0.01622 0.03244,-0.0176c0.28918,-0.02968 0.42342,0.12388 0.42342,0.12388l-5.42303,18.80583c-0.00034,0.00034 -0.22948,-0.17772 -0.4707,-0.07661z" fill="url(#color-28)" fill-rule="nonzero"/><path d="M269.59642,168.18496c-11.17942,4.77875 -18.35031,1.84 -23.28953,-1.4856l0.05176,-0.04314c4.93922,3.32422 12.54009,6.09284 23.04418,1.45592c0.08696,0.06867 0.19359,0.07281 0.19359,0.07281z" fill="#a87c3c" fill-rule="evenodd"/><path d="M269.23235,167.42473l0.46035,0.38684c0,0 -0.06211,0.22362 -0.31127,0.33301l-0.46759,-0.38822c0.24915,-0.10905 0.31852,-0.33163 0.31852,-0.33163z" fill="url(#color-29)" fill-rule="evenodd"/><path d="M268.81928,167.30602c-0.03899,0.28711 0.17185,0.49485 0.17185,0.49485c-11.40062,4.71526 -17.23948,1.88866 -22.17421,-1.45592c0.08696,-0.0635 0.12941,-0.11871 0.18497,-0.31817c0.00725,0.00414 0.07626,-0.0069 0.08317,-0.00276c5.09382,3.13683 11.61354,5.61593 21.73423,1.282z" fill="url(#color-30)" fill-rule="nonzero"/><path d="M246.36072,166.6752l0.4562,-0.33025c4.5265,2.82281 10.87057,5.91513 22.12487,1.39933l0.46518,0.38822c-10.4606,4.63313 -18.10703,1.8683 -23.04625,-1.4573z" fill="#c19236" fill-rule="evenodd"/><path d="M246.39937,166.69004l-0.05176,0.03623c0,0 -0.30023,-0.16564 -0.19359,-0.47035c0.0245,0.30057 0.24536,0.43412 0.24536,0.43412z" fill="#d4a52e" fill-rule="evenodd"/><path d="M246.15401,166.25593l0.4286,-0.35061c-0.02347,0.31403 0.28056,0.42998 0.28056,0.42998l-0.4707,0.35992c0.00034,0.00034 -0.26227,-0.1263 -0.23846,-0.4393z" fill="url(#color-31)" fill-rule="nonzero"/><path d="M246.55086,165.91774c0.15356,-0.06211 0.29747,0.0107 0.45931,0.10525c-0.05625,0.20084 -0.09007,0.27089 -0.17703,0.33439c-0.10146,-0.06074 -0.30816,-0.18497 -0.28228,-0.43964z" fill="url(#color-32)" fill-rule="nonzero"/><g fill-rule="nonzero"><g clip-path="url(#clip-18)"><path d="M252.61058,146.66296c4.93922,3.3256 10.42575,5.97448 21.8243,1.26302l-5.61835,19.40559c-11.40062,4.71526 -16.87576,2.04498 -21.8098,-1.30098z" fill="url(#color-33)"/></g><g clip-path="url(#clip-19)" fill="none"><path d="M252.61058,146.66296c4.93922,3.3256 10.42575,5.97448 21.8243,1.26302l-5.61835,19.40559c-11.40062,4.71526 -16.87576,2.04498 -21.8098,-1.30098z"/></g></g><path d="M252.16438,146.6105l-0.05867,0.13734l-0.40651,0.29401c0.02623,-0.12251 0.33957,-0.34923 0.43619,-0.41652c0.01277,-0.00966 0.02899,-0.01484 0.02899,-0.01484z" fill="#ffcd02" fill-rule="evenodd"/><path d="M252.57848,146.78443c-0.22672,-0.13217 -0.41169,-0.05245 -0.49796,-0.01484c0.01346,-0.04176 0.06004,-0.14701 0.06004,-0.14701c0.18359,-0.11733 0.2671,-0.11733 0.4386,-0.0352c0.03313,0.08109 0.01139,0.14563 -0.00069,0.19704z" fill="url(#color-34)" fill-rule="nonzero"/></g></g></g></g></svg>