<svg version="1.1" xmlns="http://www.w3.org/2000/svg" xmlns:xlink="http://www.w3.org/1999/xlink" width="155.53663" height="116.18194" viewBox="0,0,155.53663,116.18194"><defs><radialGradient cx="197.45471" cy="128.38549" r="10.50165" gradientUnits="userSpaceOnUse" id="color-1"><stop offset="0" stop-color="#ffff99"/><stop offset="1" stop-color="#ffff00"/></radialGradient><radialGradient cx="202.54791" cy="163.27904" r="8.58155" gradientUnits="userSpaceOnUse" id="color-2"><stop offset="0" stop-color="#ffff99"/><stop offset="1" stop-color="#ffff00"/></radialGradient><radialGradient cx="190.77359" cy="166.88983" r="8.58155" gradientUnits="userSpaceOnUse" id="color-3"><stop offset="0" stop-color="#ffff99"/><stop offset="1" stop-color="#ffff00"/></radialGradient></defs><g transform="translate(-163.67527,-123.85966)"><g data-paper-data="{&quot;isPaintingLayer&quot;:true}" fill="none" fill-rule="nonzero" stroke="none" stroke-width="none" stroke-linecap="none" stroke-linejoin="miter" stroke-miterlimit="10" stroke-dasharray="" stroke-dashoffset="0" font-family="none" font-weight="none" font-size="none" text-anchor="none" style="mix-blend-mode: normal"><g data-paper-data="{&quot;origPos&quot;:null}" id="ID0.8179627084173262" stroke="none"><path d="M194.3578,193.99622c4.41511,-1.35933 8.3672,-1.77232 12.22772,-0.51545c2.75195,0.8961 4.71549,3.63162 5.43273,6.30287c0.89862,2.57716 0.6895,5.92463 -1.024,8.01701c-2.57298,3.13888 -5.98523,5.09174 -10.40044,6.45107c-4.41522,1.35933 -8.35056,1.5383 -12.22782,0.51545c-2.70014,-0.71379 -5.04632,-2.84635 -5.70181,-5.39871c-1.00872,-2.85315 -0.63791,-6.46834 1.29319,-8.92117c2.47533,-3.15374 5.98523,-5.09185 10.40044,-6.45107z" id="ID0.4963658503256738" fill="#6597ea" stroke-width="1" stroke-linecap="round"/><path d="M222.61618,185.25705c4.41511,-1.35933 8.3672,-1.77232 12.22772,-0.51545c2.75195,0.8961 4.71549,3.63162 5.43273,6.30287c0.89862,2.57716 0.6895,5.92463 -1.024,8.01701c-2.57298,3.13888 -5.98523,5.09174 -10.40044,6.45107c-4.41522,1.35933 -8.35056,1.5383 -12.22782,0.51545c-2.70014,-0.71379 -5.04632,-2.84635 -5.70181,-5.39871c-1.00872,-2.85315 -0.63791,-6.46834 1.29319,-8.92117c2.47533,-3.15374 5.98523,-5.09185 10.40044,-6.45107z" id="ID0.4963658503256738" fill="#6597ea" stroke-width="1" stroke-linecap="round"/><path d="M191.92402,138.90095c7.77953,-2.26915 17.32385,1.15273 24.18624,6.51607c6.88845,5.38176 11.25615,14.51152 13.78695,23.40631c1.45363,5.1111 0.06081,11.03396 -2.73217,15.29741c-3.9052,5.95498 -9.79645,10.92804 -16.20158,12.98096c-6.7347,1.99243 -14.34584,1.11935 -21.09781,-1.49759c-5.01649,-1.94564 -10.09798,-5.80291 -11.78573,-11.10146c-2.8632,-8.98637 -3.47275,-19.11114 -0.86219,-27.6593c2.34147,-7.66482 7.55294,-15.82438 14.70629,-17.9424z" id="ID0.38168648490682244" fill="#6597ea" stroke-width="0.94674" stroke-linecap="round"/><path d="M194.02205,199.57494c2.31164,-0.71169 4.62506,-0.64199 6.49681,0.04542c1.8728,0.6872 3.30194,1.99274 3.84366,3.75219c0.54172,1.75956 0.0943,3.64282 -1.06775,5.26433c-1.161,1.62119 -3.03474,2.9799 -5.34638,3.69159c-2.31164,0.71169 -4.62506,0.64199 -6.49681,-0.04542c-1.8728,-0.6872 -3.30194,-1.99274 -3.84366,-3.75219c-0.54172,-1.75956 -0.0943,-3.64282 1.06775,-5.26433c1.161,-1.62109 3.03474,-2.9799 5.34638,-3.69159z" id="ID0.8433276591822505" fill="#fff346" stroke-width="1" stroke-linecap="butt"/><path d="M222.64674,190.20781c2.31164,-0.71169 4.62506,-0.64199 6.49681,0.04542c1.8728,0.6872 3.30194,1.99274 3.84366,3.75219c0.54172,1.75956 0.0943,3.64282 -1.06775,5.26433c-1.161,1.62119 -3.03474,2.9799 -5.34638,3.69159c-2.31164,0.71169 -4.62506,0.64199 -6.49681,-0.04542c-1.8728,-0.6872 -3.30194,-1.99274 -3.84366,-3.75219c-0.54172,-1.75956 -0.0943,-3.64282 1.06775,-5.26433c1.161,-1.62109 3.03474,-2.9799 5.34638,-3.69159z" id="ID0.8433276591822505" fill="#fff346" stroke-width="1" stroke-linecap="butt"/><path d="M221.35125,159.40367c1.75945,-0.54172 4.01667,0.44763 5.45586,1.68985c1.33296,1.15336 1.54259,3.10057 2.11886,4.68398c0.61049,1.77337 1.22327,3.57887 1.43207,5.36313c0.22429,1.89875 0.3728,3.86805 -0.14914,5.74032c-0.3818,1.36708 -1.02316,3.20712 -2.39055,3.52843c-1.85134,0.43528 -3.7164,-0.14475 -5.45586,-1.68985c-1.73967,-1.54615 -3.26227,-3.95199 -4.1544,-6.84983c-0.89223,-2.89774 -0.98632,-5.74336 -0.41749,-8.00026c0.56925,-2.25586 1.80121,-3.92415 3.56066,-4.46577z" id="ID0.9918629662133753" fill="#fff346" stroke-width="1" stroke-linecap="round"/><path d="M212.63281,173.15639c1.31035,-0.40336 2.64802,-0.28415 3.74936,0.23423c1.10145,0.51838 1.96647,1.43584 2.33383,2.62918c0.36736,1.19334 0.16819,2.43849 -0.45098,3.48656c-0.61907,1.04797 -1.65803,1.89896 -2.96839,2.30243c-1.31035,0.40336 -2.64802,0.28415 -3.74947,-0.23423c-1.10134,-0.51838 -1.96636,-1.43584 -2.33372,-2.62918c-0.36746,-1.19334 -0.16819,-2.43849 0.45088,-3.48656c0.61917,-1.04797 1.65814,-1.89896 2.96849,-2.30243z" id="ID0.03905350249260664" fill="#69a5f3" stroke-width="1" stroke-linecap="butt"/><path d="M193.53223,178.8604c1.31035,-0.40336 2.64802,-0.28415 3.74936,0.23423c1.10145,0.51838 1.96647,1.43584 2.33383,2.62918c0.36736,1.19334 0.16819,2.43849 -0.45098,3.48656c-0.61907,1.04797 -1.65803,1.89896 -2.96839,2.30243c-1.31035,0.40336 -2.64802,0.28415 -3.74947,-0.23423c-1.10134,-0.51838 -1.96636,-1.43584 -2.33372,-2.62918c-0.36746,-1.19334 -0.16819,-2.43849 0.45088,-3.48656c0.61917,-1.04797 1.65814,-1.89896 2.96849,-2.30243z" id="ID0.03905350249260664" fill="#69a5f3" stroke-width="1" stroke-linecap="butt"/><path d="M192.58882,128.67142c0.76057,0.10864 0.80421,1.5023 0.73911,2.4006c-0.09754,1.25875 -1.444,2.2209 -1.37294,3.54371c0.07452,1.43354 1.64275,2.5758 1.65803,3.98056c0.00827,0.86251 -0.60253,1.99127 -1.31265,2.20991c-0.71023,0.21864 -1.82424,-0.39771 -2.32839,-1.08899c-0.73838,-1.01123 -0.92907,-2.39914 -0.86387,-3.67746c-0.06803,-1.86809 -0.0135,-3.85706 0.85707,-5.57496c0.46553,-0.94603 1.57682,-1.94962 2.62363,-1.79336z" id="ID0.12329912604764104" fill="#6597ea" stroke-width="1" stroke-linecap="round"/><path d="M196.9896,124.46929c2.15256,-0.66271 4.25592,-0.76706 5.9149,-0.40064c1.65908,0.36631 2.87398,1.20349 3.24992,2.42488c0.37605,1.22129 -0.15762,2.59674 -1.32333,3.83278c-1.16571,1.23604 -3.19435,2.55058 -5.11613,2.99549c-1.66243,0.38369 -3.33428,-0.40483 -4.99012,-0.38013c-0.96183,-0.07944 -1.91812,0.38902 -2.83547,0.21591c-0.84848,-0.15929 -2.1445,-0.5345 -2.18552,-1.40779c0.03412,-1.5787 1.06199,-3.13804 2.16962,-4.28502c1.36928,-1.41815 2.96357,-2.33278 5.11613,-2.99549z" id="ID0.06444661831483245" fill="url(#color-1)" stroke-width="1" stroke-linecap="round"/><path d="M195.90667,154.51863c4.59534,-1.4148 8.69008,-1.90022 12.60554,-0.92039c2.78042,0.69223 4.6956,3.15772 5.3603,5.59778c0.80453,2.33205 0.54424,5.37265 -1.34363,7.44901c-2.71553,2.99256 -6.34516,4.91392 -10.94049,6.32862c-4.59534,1.4148 -8.64403,1.77661 -12.60554,0.92049c-2.80218,-0.60473 -5.26129,-2.62635 -5.924,-5.05208c-0.86,-2.52023 -0.12224,-5.77266 1.90734,-7.99471c2.72348,-2.98649 6.34516,-4.91392 10.94049,-6.32873z" id="ID0.42507046833634377" fill="#406493" stroke-width="1.04482" stroke-linecap="round"/><path d="M195.00973,172.18619c1.61941,0.34789 4.12729,1.03122 4.49528,2.19808c0.2852,0.95471 -2.13748,1.43008 -3.18891,2.04507c-1.28398,0.7523 -2.28307,1.66547 -3.9185,2.16899c-1.63543,0.50352 -3.2203,0.62346 -4.4598,0.41048c-1.24054,-0.21278 -2.13571,-0.75848 -2.39066,-1.58666c-0.25495,-0.82828 0.17824,-1.78289 1.08428,-2.6565c0.90511,-0.87329 2.28307,-1.66547 3.9185,-2.16899c1.63543,-0.50352 3.00449,-0.72352 4.4598,-0.41048z" id="ID0.15875091589987278" fill="#6597ea" stroke-width="1" stroke-linecap="round"/><path d="M202.18558,157.97683c0.92405,-0.28447 1.94899,0.06562 2.85807,0.8601c0.9095,0.79542 1.70189,2.03555 2.1625,3.53167c0.46061,1.49602 0.50289,2.96703 0.19833,4.1364c-0.30498,1.16812 -0.95545,2.03408 -1.8795,2.31865c-0.92415,0.28447 -1.9491,-0.06573 -2.85818,-0.8601c-0.9095,-0.79553 -1.70189,-2.03565 -2.1625,-3.53167c-0.46061,-1.49612 -0.50289,-2.96713 -0.19833,-4.1364c0.30498,-1.16812 0.95545,-2.03418 1.8796,-2.31865z" id="ID0.19392369966953993" fill="url(#color-2)" stroke-width="1.2089" stroke-linecap="round"/><path d="M209.94491,166.63865c1.63543,-0.50352 3.2203,-0.62357 4.4598,-0.41048c1.24054,0.21267 2.13571,0.75837 2.39066,1.58666c0.25495,0.82818 -0.17824,1.78289 -1.08428,2.6565c-0.90511,0.87329 -2.28296,1.66547 -3.9185,2.16888c-1.63543,0.50352 -2.97508,0.31042 -4.4598,0.41048c-1.21522,0.08289 -3.48583,1.05247 -3.78694,0.10257c-0.35208,-1.17178 1.33725,-3.14715 2.48056,-4.34572c1.02735,-1.07738 2.28307,-1.66547 3.9185,-2.16888z" id="ID0.15875091589987278" fill="#6597ea" stroke-width="1" stroke-linecap="round"/><path d="M190.41125,161.58762c0.92405,-0.28447 1.94899,0.06562 2.85807,0.8601c0.9095,0.79542 1.70189,2.03555 2.1625,3.53167c0.46061,1.49602 0.50289,2.96703 0.19833,4.1364c-0.30498,1.16812 -0.95545,2.03408 -1.8795,2.31865c-0.92415,0.28447 -1.9491,-0.06573 -2.85818,-0.8601c-0.9095,-0.79553 -1.70189,-2.03565 -2.1625,-3.53167c-0.46061,-1.49612 -0.50289,-2.96713 -0.19833,-4.1364c0.30498,-1.16812 0.95545,-2.03418 1.8796,-2.31865z" id="ID0.19392369966953993" fill="url(#color-3)" stroke-width="1.2089" stroke-linecap="butt"/><path d="M193.85009,147.3095c4.9674,-1.5293 9.70142,-2.15884 13.33764,-1.9402c3.63518,0.21905 6.17257,1.28638 6.74601,3.14882c0.57344,1.86254 -1.96406,4.73977 -3.80693,6.3978c-3.41885,3.07305 -7.20924,6.08853 -11.60739,7.38235c-4.40025,1.41491 -9.27838,1.07152 -13.84954,0.45517c-2.45639,-0.33125 -6.17268,-1.28638 -6.74601,-3.14893c-0.57344,-1.86244 0.92426,-4.17209 3.80682,-6.3977c2.88361,-2.22603 7.15199,-4.36801 12.11939,-5.89731z" id="ID0.854598137550056" fill="#6597ea" stroke-width="1" stroke-linecap="round"/><path d="M198.13532,141.28942c1.90786,-1.08502 4.10626,-1.2419 6.11616,-0.61991c2.0098,0.6221 3.83267,2.02361 4.98896,4.05696c1.1564,2.03335 1.42893,4.31652 0.93609,6.3619c-0.49295,2.04538 -1.75181,3.85444 -3.65957,4.93946c-1.90786,1.08502 -4.10626,1.2419 -6.11616,0.6198c-2.0099,-0.622 -3.83267,-2.02361 -4.98907,-4.05696c-1.15629,-2.03335 -1.42893,-4.31642 -0.93598,-6.3618c0.49295,-2.04538 1.75171,-3.85455 3.65957,-4.93946z" id="ID0.4633061643689871" fill="#fff346" stroke-width="0.96963" stroke-linecap="butt"/><path d="M183.44242,144.77943c0.685,-0.07672 0.73556,1.7291 0.77501,2.70359c0.05631,1.4573 0.15867,2.8339 -0.45506,4.36152c-0.61363,1.52773 -1.59691,2.73991 -2.68863,3.46427c-1.09308,0.72488 -2.5307,1.11401 -3.34694,0.54026c-0.63655,-0.45088 0.03004,-1.911 0.31021,-2.80794c0.28196,-0.89851 0.7187,-1.70764 1.13096,-2.53457c0.60316,-0.95105 1.27267,-1.88222 1.9088,-2.78617c0.7208,-1.02787 1.39063,-2.8273 2.36565,-2.94096z" id="ID0.7901526857167482" fill="#fff346" stroke-width="1" stroke-linecap="round"/><path d="M185.06948,173.35912c1.73967,1.54615 3.26227,3.95199 4.1544,6.84973c0.89213,2.89784 0.98632,5.74336 0.41749,8.00026c-0.56925,2.25596 -1.78509,3.78453 -3.56066,4.46587c-1.3114,0.50331 -2.8766,-0.65737 -3.9612,-1.57295c-1.48461,-1.25457 -2.46936,-2.9664 -3.35186,-4.66253c-0.8309,-1.59273 -1.33966,-3.43025 -1.83219,-5.23984c-0.41414,-1.63344 -1.33599,-3.36128 -0.8825,-5.06463c0.49128,-1.83669 1.80121,-3.92415 3.56066,-4.46587c1.75945,-0.54162 3.7164,0.14475 5.45586,1.68996z" id="ID0.9918629662133753" fill="#fff346" stroke-width="1" stroke-linecap="round"/><path d="M201.56212,173.91529c2.00059,-0.61593 4.06418,-0.36202 5.78083,0.54738c1.71738,0.90804 3.08791,2.47146 3.70384,4.47194c0.61593,2.00059 0.36202,4.06418 -0.54727,5.78083c-0.90804,1.71738 -2.47146,3.08791 -4.47205,3.70384c-2.00048,0.61593 -4.06408,0.36202 -5.78083,-0.54727c-1.71738,-0.90804 -3.08791,-2.47146 -3.70384,-4.47205c-0.61593,-2.00048 -0.36202,-4.06408 0.54738,-5.78083c0.90793,-1.71738 2.47146,-3.08791 4.47194,-3.70384z" id="ID0.15020905900746584" fill="#5687c6" stroke-width="1" stroke-linecap="round"/><path d="M202.02932,178.28801c1.15922,-0.35689 2.35466,-0.20911 3.34883,0.31702c0.99428,0.52613 1.78876,1.43144 2.14565,2.59077c0.357,1.15933 0.20922,2.35466 -0.31702,3.34883c-0.52613,0.99428 -1.43134,1.78876 -2.59067,2.14575c-1.15933,0.35689 -2.35466,0.20911 -3.34893,-0.31702c-0.99428,-0.52623 -1.78876,-1.43144 -2.14565,-2.59077c-0.35689,-1.15933 -0.20911,-2.35466 0.31702,-3.34893c0.52613,-0.99428 1.43144,-1.78876 2.59077,-2.14565z" id="ID0.9829463004134595" fill="#406493" stroke-width="1" stroke-linecap="butt"/></g><g data-paper-data="{&quot;origPos&quot;:null}" id="ID0.49040613742545247" stroke="none"><g id="ID0.20286902273073792" fill="#fff346" stroke-width="0.88955" stroke-linecap="round"><path d="M254.80677,159.76851l5.77225,-1.62925l3.53784,4.18957l-0.60515,-4.56195l3.9568,0.13962l2.42059,3.72404l0.5121,-3.11889l3.21193,-0.13962l9.1239,13.82547l-22.15802,-1.11715z" id="ID0.07827324094250798"/><path d="M278.26823,159.73356c2.23911,0.88072 4.89058,1.7 6.1912,3.72404c1.44683,2.25115 1.9132,5.26946 1.39649,7.9136c-0.19917,1.01845 -1.96814,0.66376 -3.02574,0.74477c-1.72052,0.07546 -3.46615,0.03255 -5.23691,-0.27934c-2.22791,-0.39562 -4.8348,-0.75596 -6.49943,-1.9784c-1.66369,-1.22139 -2.91407,-2.95959 -2.69438,-4.77138c0.30163,-2.49145 1.83596,-5.20907 4.04995,-6.42397c1.73726,-0.92824 3.98652,0.35009 5.81882,1.07068z" id="ID0.3567104428075254"/></g><path d="M294.14044,183.0351c1.78352,-0.50457 3.51806,-0.54633 4.87855,-0.20587c1.36048,0.34036 2.34681,1.0622 2.6363,2.08568c0.28949,1.02348 -0.17248,2.15507 -1.15305,3.15772c-0.98046,1.00275 -2.47973,1.87583 -4.26335,2.3804c-1.78352,0.50446 -3.51796,0.54622 -4.87855,0.20576c-1.36048,-0.34036 -2.34681,-1.0622 -2.6363,-2.08568c-0.28949,-1.02348 0.17248,-2.15507 1.15305,-3.15772c0.98046,-1.00265 2.47983,-1.87573 4.26335,-2.3803z" id="ID0.16623971331864595" fill="#fff346" stroke-width="0.83998" stroke-linecap="butt"/><path d="M297.41863,187.69763c1.85333,-0.02753 3.53994,0.3795 4.76656,1.05938c1.22673,0.67977 1.99347,1.63156 2.00917,2.69512c0.0158,1.06346 -0.72237,2.03753 -1.92837,2.75341c-1.206,0.71588 -2.87974,1.17283 -4.73307,1.20025c-1.85333,0.02753 -3.53983,-0.3795 -4.76656,-1.05938c-1.22662,-0.67977 -1.99347,-1.63156 -2.00917,-2.69501c-0.0158,-1.06356 0.72237,-2.03764 1.92837,-2.75352c1.206,-0.71588 2.87974,-1.17272 4.73307,-1.20025z" id="ID0.16623971331864595" fill="#fff346" stroke-width="0.83998" stroke-linecap="butt"/><path d="M289.1968,197.4924c-0.98057,-1.00275 -1.44254,-2.13424 -1.15305,-3.15772c0.28949,-1.02348 1.27581,-1.74532 2.6363,-2.08578c1.36059,-0.34036 3.09503,-0.2987 4.87855,0.20587c1.78363,0.50457 3.28289,1.37765 4.26335,2.3804c0.98057,1.00265 1.44254,2.13424 1.15305,3.15772c-0.28949,1.02337 -1.27581,1.74522 -2.6363,2.08568c-1.36048,0.34046 -3.09503,0.2987 -4.87855,-0.20587c-1.78352,-0.50457 -3.28289,-1.37765 -4.26335,-2.3803z" id="ID0.16623971331864595" fill="#fff346" stroke-width="0.83998" stroke-linecap="butt"/><path d="M271.81245,167.19879c6.11428,0 11.65501,2.4836 15.66666,6.49524c4.01164,4.01164 6.49524,9.55238 6.49524,15.66666c0,6.11428 -2.4836,11.65501 -6.49524,15.66666c-4.01164,4.01164 -9.55238,6.49524 -15.66666,6.49524c-6.11428,0 -11.65501,-2.4836 -15.66666,-6.49524c-4.01164,-4.01164 -6.49524,-9.55238 -6.49524,-15.66666c0,-6.11428 2.4836,-11.65501 6.49524,-15.66666c4.01164,-4.01164 9.55238,-6.49524 15.66666,-6.49524z" id="ID0.1863371403887868" fill="#e12323" stroke-width="1" stroke-linecap="butt"/><path d="M271.76326,201.05652c11.55046,1.57828 13.77774,2.60396 15.17936,4.81439c0.25809,1.75725 -3.60242,3.09691 -5.65565,3.90175c-2.92998,1.15022 -5.60447,1.80226 -9.19266,1.80226c-3.58819,0 -6.28739,-0.58087 -9.19277,-1.80226c-2.40123,-1.00893 -5.70474,-2.66361 -6.31763,-4.94836c-0.44167,-1.28837 2.6453,-1.79179 4.20861,-2.19787c3.58442,-0.93043 7.29171,-1.67352 10.97074,-1.56991z" id="ID0.19371372321620584" fill="#ffffff" stroke-width="0.95304" stroke-linecap="round"/><path d="M252.93962,173.63542c1.66714,0 3.17865,0.99114 4.27267,2.59244c1.09402,1.60026 1.77149,3.81174 1.77149,6.25138c0,2.43964 -0.67747,4.65112 -1.77149,6.25138c-1.09402,1.60131 -2.60553,2.59244 -4.27267,2.59244c-1.66714,0 -3.17854,-0.99114 -4.27267,-2.59244c-1.09402,-1.60026 -1.77149,-3.81174 -1.77149,-6.25138c0,-2.43964 0.67747,-4.65112 1.77149,-6.25138c1.09412,-1.60131 2.60553,-2.59244 4.27267,-2.59244z" id="ID0.39472739631310105" fill="#ffffff" stroke-width="0.91936" stroke-linecap="butt"/><path d="M261.88214,174.1064c1.69603,0 3.2336,0.99114 4.34656,2.59244c1.11307,1.60026 1.80226,3.81174 1.80226,6.25138c0,2.43964 -0.68919,4.65112 -1.80226,6.25138c-1.11296,1.60131 -2.65053,2.59244 -4.34656,2.59244c-1.69603,0 -3.2337,-0.99114 -4.34666,-2.59244c-1.11296,-1.60026 -1.80215,-3.81174 -1.80215,-6.25138c0,-2.43964 0.68919,-4.65112 1.80215,-6.25138c1.11296,-1.60131 2.65064,-2.59244 4.34666,-2.59244z" id="ID0.39472739631310105" fill="#ffffff" stroke-width="0.9259" stroke-linecap="butt"/><path d="M254.09905,187.34597c1.6527,0 3.15123,0.79123 4.23604,2.07019c1.0847,1.27895 1.75579,3.04563 1.75579,4.99441c0,1.94878 -0.67108,3.71545 -1.75579,4.99441c-1.08481,1.27895 -2.58334,2.07019 -4.23604,2.07019c-1.6527,0 -3.15112,-0.79123 -4.23593,-2.07019c-1.08481,-1.27895 -1.75589,-3.04563 -1.75589,-4.99441c0,-1.94878 0.67108,-3.71545 1.75589,-4.99441c1.08481,-1.27895 2.58323,-2.07019 4.23593,-2.07019z" id="ID0.2919205715879798" fill="#ffb197" stroke-width="0.99783" stroke-linecap="round"/><path d="M251.96492,192.62223c0.47129,-0.22795 1.01416,-0.19383 1.51109,0.04406c0.49661,0.23884 0.9476,0.68218 1.23353,1.2733c0.28593,0.59102 0.35354,1.21982 0.23256,1.75746c-0.12203,0.53722 -0.43225,0.98412 -0.90354,1.21197c-0.47118,0.22795 -1.01406,0.19383 -1.51109,-0.04396c-0.49651,-0.23894 -0.94749,-0.68228 -1.23343,-1.2733c-0.28593,-0.59112 -0.35354,-1.21992 -0.23256,-1.75757c0.12203,-0.53722 0.43225,-0.98402 0.90343,-1.21197z" id="ID0.41036201547831297" fill="#a27060" stroke-width="0.73984" stroke-linecap="butt"/><path d="M258.91302,182.16527c0.37573,0 0.71588,0.27002 0.96183,0.70541c0.24595,0.43539 0.39876,1.03719 0.39876,1.70178c0,0.6646 -0.1528,1.26639 -0.39876,1.70178c-0.24595,0.43539 -0.5861,0.70541 -0.96183,0.70541c-0.37573,0 -0.71588,-0.27002 -0.96183,-0.70541c-0.24595,-0.43539 -0.39876,-1.03719 -0.39876,-1.70178c0,-0.6646 0.1528,-1.26639 0.39876,-1.70178c0.24595,-0.43539 0.5861,-0.70541 0.96183,-0.70541z" id="ID0.26917251013219357" fill="#001966" stroke-width="1" stroke-linecap="butt"/><path d="M252.05775,182.16527c0.37573,0 0.71588,0.27002 0.96183,0.70541c0.24595,0.43539 0.39876,1.03719 0.39876,1.70178c0,0.6646 -0.1528,1.26639 -0.39876,1.70178c-0.24595,0.43539 -0.5861,0.70541 -0.96183,0.70541c-0.37573,0 -0.71588,-0.27002 -0.96183,-0.70541c-0.24595,-0.43539 -0.39876,-1.03719 -0.39876,-1.70178c0,-0.6646 0.1528,-1.26639 0.39876,-1.70178c0.24595,-0.43539 0.5861,-0.70541 0.96183,-0.70541z" id="ID0.26917251013219357" fill="#001966" stroke-width="1" stroke-linecap="butt"/><g id="ID0.5137764848768711" fill="#ffffff"><path d="M291.64722,174.64697c1.98081,1.38257 3.03861,3.69201 3.146,6.30643c0.10874,2.61421 -0.73304,5.53341 -2.54901,8.13496c-1.81597,2.60165 -4.26597,4.39836 -6.75731,5.19766c-2.49113,0.80055 -5.02371,0.60379 -7.00442,-0.77878c-1.9807,-1.38257 -3.03861,-3.69201 -3.146,-6.30643c-0.10874,-2.61421 0.73304,-5.53331 2.54912,-8.13496c1.81597,-2.60165 4.26586,-4.39826 6.75731,-5.19755c2.49113,-0.80065 5.02361,-0.60389 7.00431,0.77868z" id="ID0.9694409435614944" stroke-width="0.90437" stroke-linecap="butt"/><path d="M299.64748,167.12626c0.6311,0.88909 -0.29692,2.75927 -2.30714,5.06348c-2.01022,2.3041 -5.10263,5.04224 -8.79694,7.66461c-3.69421,2.62227 -6.76506,3.93378 -10.13754,5.7758c-0.86167,0.47014 -2.57371,1.64589 -2.55288,1.05644c0.08153,-2.35623 0.90102,-5.30169 2.88037,-8.57192c0.91348,-1.46232 3.15887,-3.26688 5.23534,-4.70523c3.28509,-2.2726 7.29924,-4.63835 10.13764,-5.7758c2.83829,-1.13756 4.90995,-1.39659 5.54115,-0.50739z" id="ID0.4074811181053519" stroke-width="1.53181" stroke-linecap="round"/><path d="M299.37034,174.27867c0.63121,0.88909 0.15699,2.43713 -1.11966,4.22065c-1.27655,1.78342 -3.35574,3.80222 -5.93217,5.63106c-2.57643,1.82884 -5.16804,3.12559 -7.27287,3.74235c-2.10473,0.61677 -3.72257,0.55365 -4.35367,-0.33544c-0.63121,-0.8892 -0.15699,-2.43723 1.11956,-4.22065c1.27665,-1.78352 3.35584,-3.80232 5.93227,-5.63116c2.57643,-1.82884 5.16804,-3.12548 7.27287,-3.74235c2.10473,-0.61677 3.72257,-0.55365 4.35367,0.33554z" id="ID0.4074811181053519" stroke-width="1.13742" stroke-linecap="butt"/><path d="M297.92759,181.85694c0.6311,0.88909 0.23245,2.38365 -0.92217,4.08041c-1.15462,1.69686 -3.0652,3.59604 -5.45575,5.2929c-2.39045,1.69686 -4.81355,2.87398 -6.79635,3.40419c-1.9828,0.53011 -3.52508,0.41341 -4.15628,-0.47568c-0.6311,-0.88909 -0.23245,-2.38365 0.92217,-4.08051c1.15462,-1.69676 3.0652,-3.59593 5.45575,-5.29279c2.39045,-1.69686 4.81366,-2.87398 6.79635,-3.40419c1.9828,-0.53021 3.52518,-0.41341 4.15628,0.47568z" id="ID0.4074811181053519" stroke-width="1.07473" stroke-linecap="butt"/></g></g><text transform="translate(169.89567,201.16612) rotate(10.30699) scale(1.56272,1.56272)" font-size="22" xml:space="preserve" data-paper-data="{&quot;origPos&quot;:null,&quot;origRot&quot;:1.3380146726380266}" id="ID0.40125236939638853" fill-opacity="0" fill="#000000" fill-rule="nonzero" stroke="#ffffff" stroke-width="5" stroke-linecap="butt" stroke-linejoin="miter" stroke-miterlimit="10" stroke-dasharray="" stroke-dashoffset="0" font-family="Sans Serif" font-weight="400" text-anchor="start" style="mix-blend-mode: normal"><tspan x="0" dy="0">Enemies</tspan></text><text transform="translate(169.89567,201.16612) rotate(10.30699) scale(1.56272,1.56272)" font-size="22" xml:space="preserve" data-paper-data="{&quot;origPos&quot;:null,&quot;origRot&quot;:1.3380146726380266}" id="ID0.40125236939638853" fill="#000000" fill-rule="nonzero" stroke="none" stroke-width="1" stroke-linecap="butt" stroke-linejoin="miter" stroke-miterlimit="10" stroke-dasharray="" stroke-dashoffset="0" font-family="Sans Serif" font-weight="400" text-anchor="start" style="mix-blend-mode: normal"><tspan x="0" dy="0">Enemies</tspan></text></g></g></svg>