<svg version="1.1" xmlns="http://www.w3.org/2000/svg" xmlns:xlink="http://www.w3.org/1999/xlink" width="176.99889" height="41.88275" viewBox="0,0,176.99889,41.88275"><g transform="translate(-151.86467,-159.02255)"><g data-paper-data="{&quot;isPaintingLayer&quot;:true}" fill="#ffffff" fill-rule="nonzero" stroke="none" stroke-width="none" stroke-linecap="butt" stroke-linejoin="miter" stroke-miterlimit="10" stroke-dasharray="" stroke-dashoffset="0" font-family="none" font-weight="none" font-size="none" text-anchor="none" style="mix-blend-mode: normal"><text transform="translate(152.22557,196.21367) scale(0.7218,0.72179)" font-size="22" xml:space="preserve" data-paper-data="{&quot;origPos&quot;:null}" id="ID0.08681221166625619" fill="#ffffff" fill-rule="nonzero" stroke="none" stroke-width="1" stroke-linecap="butt" stroke-linejoin="miter" stroke-miterlimit="10" stroke-dasharray="" stroke-dashoffset="0" font-family="Sans Serif" font-weight="400" text-anchor="start" style="mix-blend-mode: normal"><tspan x="0" dy="0">Get 150 coins as Wario.</tspan></text><g data-paper-data="{&quot;origPos&quot;:null}" id="text104" stroke-width="0.26458"><path d="M177.9303,160.22619c3.62302,1.41031 5.43454,2.16003 5.43454,2.24919c-1.15904,2.36671 -1.73857,3.5987 -1.73857,3.69597h-0.07293c-0.51873,-0.14588 -1.6575,-0.65248 -3.41634,-1.51973l-2.89355,2.03036c0,2.51262 0.14185,3.76891 0.42552,3.76891c0.18643,0.09727 1.39815,0.58356 3.63517,1.45893c0.85916,-0.85104 1.73047,-1.67371 2.61394,-2.46804c0.1621,0.14588 0.8875,1.30493 2.17624,3.47712v0.21884c-0.08103,0 -1.87228,0.96858 -5.37374,2.90571c-4.47406,-1.49946 -6.77189,-2.29782 -6.89347,-2.39508l-2.17624,-7.18524c2.04251,-2.90165 3.08402,-4.35249 3.12455,-4.35249c0.08915,0 1.80744,-0.62814 5.1549,-1.88445z" id="path397"/><path d="M190.40416,163.90999c3.07998,0.82673 4.71317,1.32924 4.8996,1.50757c1.69398,2.39914 2.64632,3.78106 2.85706,4.1458c-1.09421,3.46902 -1.72235,5.20352 -1.88445,5.20352c-3.64733,0.85104 -5.55611,1.27656 -5.72631,1.27656c-3.01512,-1.75882 -4.61996,-2.73955 -4.81449,-2.94218c-0.10534,-3.27449 -0.15802,-5.08194 -0.15802,-5.42236c-0.04862,-0.09727 -0.07294,-0.1702 -0.07294,-0.21884c3.11239,-2.36671 4.72126,-3.55006 4.82664,-3.55006zM190.17317,168.35973c-0.04862,0.3242 -0.12157,1.50351 -0.21884,3.53791l2.71118,0.60789c0.64842,-2.02629 0.97264,-3.10833 0.97264,-3.24612c-2.15599,-0.64842 -3.31098,-0.97262 -3.46498,-0.97262z" id="path399"/><path d="M200.94496,159.02256l4.778,0.75378c-0.59979,2.29376 -0.99288,3.44065 -1.17929,3.44065c-2.51262,-0.17022 -3.76892,-0.33637 -3.76892,-0.49847v-3.52576c0.02431,-0.11348 0.08103,-0.17021 0.17018,-0.17021zM199.6076,164.80967h0.07294c3.69595,0.67273 5.54393,1.06583 5.54393,1.17929c-1.06178,6.01404 -1.70614,9.36554 -1.93307,10.05448h-3.85403c-0.11346,0 -0.17018,-0.05674 -0.17018,-0.17022z" id="path401"/><path d="M216.92028,163.89783l4.04854,2.78413c-0.28367,4.61996 -0.48226,7.31899 -0.59574,8.09707c-0.4701,0.05674 -1.90067,0.14185 -4.29169,0.2553l-0.08509,-0.17021l-0.42552,-6.49226l-0.17018,-0.08511c-1.54808,0.33231 -2.61392,0.58358 -3.19748,0.75378c0.1621,2.76386 0.24315,4.76179 0.24315,5.99379c-2.41535,0.67273 -3.73649,1.0091 -3.96342,1.0091c-1.57241,-6.92182 -2.35861,-10.57726 -2.35861,-10.96632c3.42037,-0.44579 5.27647,-0.66867 5.56826,-0.66867v0.0851c0.05672,0.04052 0.14183,0.88347 0.2553,2.52881c3.1367,-2.08304 4.79422,-3.12454 4.97253,-3.12454z" id="path403"/><path d="M233.07796,160.27481c4.49837,0.64842 6.97856,1.02935 7.44054,1.14283c0,0.06484 1.5481,4.70505 4.64428,13.92064c-0.32422,0.12158 -2.19246,0.35663 -5.60473,0.70516c-0.23505,-0.7943 -0.49848,-2.02224 -0.79027,-3.68382c-2.91787,0.26748 -4.37679,0.50253 -4.37679,0.70516l-0.79024,2.80844h-0.08509c-3.4447,-0.6322 -5.16706,-1.01314 -5.16706,-1.14283c2.74766,-8.59149 4.32411,-13.41002 4.72938,-14.45558zM235.43655,168.68799h2.63825l-0.97264,-3.85401c-0.75378,0 -1.13067,0.14588 -1.13067,0.43767c-0.12155,0.59168 -0.29987,1.73045 -0.53494,3.41634z" id="path405"/><path d="M253.7948,160.21402h0.07293c3.66354,0.308 5.49532,0.54709 5.49532,0.71731l1.61697,14.3097c0,0.10538 -1.61698,0.37284 -4.85094,0.80242l-0.07293,-0.15806v-1.30089c-2.78817,0.75378 -4.70099,1.2401 -5.73847,1.45893c-2.46397,-3.48523 -3.75676,-5.34132 -3.87834,-5.56827c1.81558,-3.2988 2.78413,-4.96847 2.90571,-5.009l5.0941,0.24315c-0.10534,-0.6241 -0.32013,-2.45587 -0.64435,-5.49531zM251.53345,168.93115c0.81863,2.5045 1.32926,3.87832 1.53188,4.12149l2.41939,-2.10329c-0.25125,-1.45083 -0.43767,-2.17624 -0.55925,-2.17624h-3.23397c-0.10534,0.01621 -0.15802,0.06889 -0.15802,0.15806z" id="path407"/><path d="M269.5999,160.21402h0.07293c3.66354,0.308 5.49532,0.54709 5.49532,0.71731l1.61699,14.3097c0,0.10538 -1.617,0.37284 -4.85096,0.80242l-0.07293,-0.15806v-1.30089c-2.78817,0.75378 -4.70099,1.2401 -5.73847,1.45893c-2.46397,-3.48523 -3.75674,-5.34132 -3.87832,-5.56827c1.81556,-3.2988 2.78413,-4.96847 2.90571,-5.009l5.09411,0.24315c-0.10534,-0.6241 -0.32014,-2.45587 -0.64436,-5.49531zM267.33857,168.93115c0.81863,2.5045 1.32924,3.87832 1.53186,4.12149l2.41941,-2.10329c-0.25127,-1.45083 -0.4377,-2.17624 -0.55927,-2.17624h-3.23396c-0.10534,0.01621 -0.15802,0.06889 -0.15802,0.15806z" id="path409"/><path d="M279.72731,159.02256l4.778,0.75378c-0.59977,2.29376 -0.99286,3.44065 -1.17929,3.44065c-2.5126,-0.17022 -3.76891,-0.33637 -3.76891,-0.49847v-3.52576c0.02431,-0.11348 0.08103,-0.17021 0.17018,-0.17021zM278.38997,164.80967h0.07294c3.69595,0.67273 5.54393,1.06583 5.54393,1.17929c-1.06178,6.01404 -1.70614,9.36554 -1.93307,10.05448h-3.85401c-0.11346,0 -0.17018,-0.05674 -0.17018,-0.17022z" id="path411"/><path d="M289.68453,163.90999c3.65545,0.68894 5.56826,1.08203 5.73848,1.17929v0.14589c-0.7862,2.22083 -1.17932,3.37175 -1.17932,3.4528h-0.07294c-0.20262,0 -1.18335,-0.3161 -2.94219,-0.9483c-0.98073,1.64536 -1.47108,2.52477 -1.47108,2.63823l2.43154,2.35861c1.88041,-1.76693 2.83684,-2.6504 2.86924,-2.6504c1.46703,1.92094 2.20055,2.99891 2.20055,3.23397c-0.8024,0.46199 -2.20055,1.36978 -4.19442,2.72333c-3.85807,-0.83483 -5.94111,-1.30087 -6.24909,-1.39814l-1.90878,-6.17616z" id="path413"/><path d="M302.1098,160.22619l5.34943,0.94831l-0.51063,4.06069c1.06178,-0.05674 1.83987,-0.08511 2.33429,-0.08511h0.7781l0.17018,-0.0851l0.08509,0.17021c-0.1702,2.46397 -0.3161,3.84995 -0.43768,4.15796l-0.17018,-0.09726c-0.12155,0 -1.21576,-0.05674 -3.2826,-0.17022c-0.11346,1.90472 -0.19856,4.18227 -0.25532,6.83267l-0.17018,0.08511c-2.60988,-0.17022 -4.16607,-0.3161 -4.66858,-0.43768l0.08509,-0.34041c0,-0.70516 0.11348,-2.89355 0.34041,-6.56519c-2.1884,-0.12158 -3.28261,-0.26748 -3.28261,-0.43767c0.11346,-2.70712 0.25935,-4.0607 0.43768,-4.0607l3.19749,0.60789v-1.04557c0,-0.85104 -0.03241,-2.00199 -0.09724,-3.4528c0.06484,0 0.09724,-0.02837 0.09724,-0.08511z" id="path415"/></g></g></g></svg>