<svg version="1.1" xmlns="http://www.w3.org/2000/svg" xmlns:xlink="http://www.w3.org/1999/xlink" width="127.79651" height="115.62155" viewBox="0,0,127.79651,115.62155"><g transform="translate(-176.10174,-122.18923)"><g data-paper-data="{&quot;isPaintingLayer&quot;:true}" fill="none" fill-rule="nonzero" stroke="none" stroke-width="0" stroke-linecap="butt" stroke-linejoin="miter" stroke-miterlimit="10" stroke-dasharray="" stroke-dashoffset="0" font-family="none" font-weight="none" font-size="none" text-anchor="none" style="mix-blend-mode: normal"><g data-paper-data="{&quot;origPos&quot;:null,&quot;origRot&quot;:0}"><path d="M206.90166,236.31536c-3.72924,2.17786 -5.22967,3.39962 -11.04066,-6.78983c-5.00884,-8.78289 -4.95239,-10.07794 -1.16942,-12.55461c2.45974,-1.61037 7.24047,1.84591 10.35989,7.18739c3.11941,5.34147 4.38807,10.67493 1.85019,12.15705z" data-paper-data="{&quot;origPos&quot;:null}" fill="#f3c08d"/><path d="M210.23545,235.96622c-3.90081,2.27806 -6.75352,3.87315 -13.18319,-7.13659c-6.72784,-11.52031 -3.36911,-12.63975 0.53171,-14.91782c3.90082,-2.27807 10.24591,0.93448 13.59439,6.66821c3.34848,5.73372 2.95791,13.10813 -0.9429,15.3862z" data-paper-data="{&quot;origPos&quot;:null}" fill="#94612e"/></g><path d="M234.69231,206.73911c0.6598,2.37228 -2.99056,9.57617 -3.89315,14.16888c-0.90258,4.59271 1.39433,10.98628 -4.76309,9.26102c-2.67276,-0.74889 -7.64724,-4.73315 -6.74465,-9.32587c0.90258,-4.59271 13.58853,-20.62024 15.40088,-14.10403z" data-paper-data="{&quot;origRot&quot;:0,&quot;origPos&quot;:null,&quot;index&quot;:null}" fill="#ffdfc0"/><g data-paper-data="{&quot;origRot&quot;:0,&quot;origPos&quot;:null}"><path d="M221.0908,220.14484c-8.2716,4.83059 -19.62729,0.78385 -25.36362,-9.03868c-5.73634,-9.82252 -3.68109,-21.70123 4.59051,-26.53184c5.51327,-3.21973 10.60007,-4.01625 16.90301,-2.99861c6.53043,1.05438 9.6205,3.47125 12.95644,9.18349c0,0 5.25117,8.02573 2.76124,14.51946c-2.19854,5.73375 -3.57597,10.03557 -11.84758,14.86618z" data-paper-data="{&quot;origPos&quot;:null}" fill="#ffdfc0"/><path d="M220.95292,220.1212c-8.65588,4.10238 -19.62728,0.78385 -25.36362,-9.03868c-5.73634,-9.82252 -4.2874,-21.65427 4.59051,-26.53184c1.66961,-1.20329 4.57554,-1.04889 4.57554,-1.04889c0,0 6.31874,11.10547 9.65468,16.81771l10.36684,17.38146c0,0 -1.75013,1.43738 -3.82395,2.42025z" data-paper-data="{&quot;origPos&quot;:null}" fill="#ffffff"/></g><g data-paper-data="{&quot;origPos&quot;:null,&quot;origRot&quot;:0}"><path d="M191.03729,208.93779c-3.72924,2.17786 -5.22967,3.39962 -11.04066,-6.78983c-5.00884,-8.78289 -4.95239,-10.07794 -1.16942,-12.55461c2.45974,-1.61037 7.24047,1.84591 10.35989,7.18739c3.11941,5.34147 4.38807,10.67493 1.85019,12.15705z" data-paper-data="{&quot;origPos&quot;:null}" fill="#f3c08d"/><path d="M194.37108,208.58865c-3.90081,2.27806 -6.75352,3.87315 -13.18319,-7.13658c-6.72784,-11.52031 -3.36911,-12.63975 0.53171,-14.91782c3.90082,-2.27807 10.24591,0.93448 13.59439,6.66821c3.34848,5.73372 2.95791,13.10812 -0.9429,15.38619z" data-paper-data="{&quot;origPos&quot;:null}" fill="#94612e"/></g><g data-paper-data="{&quot;origRot&quot;:0,&quot;origPos&quot;:null}"><path d="M233.3982,201.51281c2.15811,3.6954 -0.40402,12.50167 -6.23174,15.90506c-5.82772,3.40338 -9.84514,6.59114 -9.84514,6.59114c0,0 -6.23338,-7.20897 -6.40678,-9.59698c-0.34126,-4.69987 4.55966,-5.49307 8.89652,-8.02579c5.82772,-3.40338 11.42903,-8.56883 13.58714,-4.87343z" data-paper-data="{&quot;index&quot;:null,&quot;origPos&quot;:null}" fill="#f0cf46"/><path d="M206.98483,211.83604l25.94027,-15.37731l2.58422,4.42505l-22.53841,12.76899l5.84113,9.77286l-3.94658,2.2955z" data-paper-data="{&quot;index&quot;:null,&quot;origPos&quot;:null}" fill="#ffef45"/></g><g data-paper-data="{&quot;origPos&quot;:null,&quot;origRot&quot;:0}"><path d="M210.92906,192.52812c-4.33685,2.53271 -7.15044,5.72767 -11.24898,2.82511c-2.08247,-1.47479 -4.96367,-11.04549 -4.96367,-11.04549c0,0 2.97266,-1.85015 8.80038,-5.25353c5.82772,-3.40338 15.89206,-0.145 18.22502,3.84981c2.33296,3.99481 -4.98504,6.22072 -10.81275,9.6241z" data-paper-data="{&quot;origPos&quot;:null}" fill="#f0cf46"/><path d="M191.84885,186.09653l3.47012,-2.72055l6.40814,10.81117l22.19578,-13.35568l2.58422,4.42505l-26.13906,15.03692z" data-paper-data="{&quot;origPos&quot;:null}" fill="#ffef45"/></g><path d="M198.10483,184.35215c-4.44354,-1.47059 -5.46937,-7.76086 -4.80831,-10.45668c1.52292,-6.21055 5.96279,-1.06848 10.40634,0.40211c4.44354,1.47059 12.51145,1.83102 14.25339,3.57133c4.78478,4.7803 -15.40788,7.95382 -19.85142,6.48324z" data-paper-data="{&quot;origRot&quot;:0,&quot;origPos&quot;:null}" fill="#ffdfc0"/><g data-paper-data="{&quot;origPos&quot;:null,&quot;origRot&quot;:0}"><g data-paper-data="{&quot;origPos&quot;:null}"><path d="M289.40364,204.47422c-11.02201,6.16159 -16.58493,7.31374 -24.79761,-2.27802c-6.28844,-7.34438 -20.12452,-31.21445 -25.14502,-39.47755c-10.97352,-18.06094 -11.30953,-26.40698 4.17877,-35.87809c6.05869,-3.70488 12.7827,-5.91516 19.51087,-3.64233c15.76176,5.32445 22.52725,14.35753 30.63508,28.24085c12.13985,20.78748 16.28717,41.48048 -4.38209,53.03513z" data-paper-data="{&quot;origPos&quot;:null}" fill="#ffffff"/><path d="M283.86818,187.26096c-8.66506,5.06037 -19.50971,2.62107 -24.22223,-5.44833c-4.71251,-8.0694 -1.50834,-18.71319 7.1567,-23.77355c8.66505,-5.06037 19.50971,-2.62107 24.22223,5.44833c4.71251,8.0694 1.50834,18.71319 -7.1567,23.77355z" data-paper-data="{&quot;origPos&quot;:null}" fill="#ffef45"/><path d="M237.38144,129.43339c3.62157,-2.45596 4.42418,-3.60095 12.634,-5.98675c2.92641,-1.56398 8.17761,-1.22681 8.17761,-1.22681c0,0 3.85002,8.636 3.0399,13.15946c-0.95062,5.30792 -5.11693,8.41233 -9.57382,11.44775c-4.68666,3.19191 -8.2304,4.42236 -14.21014,3.78634c-2.89607,-0.30803 -3.43882,-0.65512 -3.43882,-0.65512c0,0 -4.31244,-5.44771 -4.28442,-9.07431c0.62961,-4.64206 1.85614,-6.68832 7.65572,-11.45056z" data-paper-data="{&quot;origPos&quot;:null,&quot;origRot&quot;:0}" fill="#ffef45"/><path d="M299.36381,195.40595c0,0 0.6102,3.21967 -10.12857,9.63033c-9.41336,5.61944 -14.40387,4.37027 -14.40387,4.37027c0,0 -2.40311,-6.32178 9.44819,-13.36497c10.75137,-6.38951 15.08424,-0.63563 15.08424,-0.63563z" data-paper-data="{&quot;origPos&quot;:null}" fill="#ffef45"/></g><g data-paper-data="{&quot;origPos&quot;:null}"><path d="M251.76549,203.2207c-10.32111,5.49817 -19.37634,0.66577 -25.4167,-9.67735c-6.04036,-10.34312 -8.19221,-22.15774 1.65785,-28.46103c5.31462,-3.40095 10.51775,-7.18262 10.51775,-7.18262c0,0 10.88471,13.65835 13.72292,18.91415c5.49757,10.18038 8.37585,21.39622 8.37585,21.39622c0,0 -3.06256,1.92352 -8.85767,5.01064z" data-paper-data="{&quot;origPos&quot;:null}" fill="#ffdfc0"/><path d="M236.87681,193.18139c0,0 -4.37306,-1.09859 -5.84734,-5.12061c-1.47428,-4.02202 1.28692,-8.30542 1.28692,-8.30542c0,0 -0.86886,4.52248 0.30403,7.72225c1.17289,3.19976 4.25638,5.70378 4.25638,5.70378z" data-paper-data="{&quot;origPos&quot;:null,&quot;origRot&quot;:0}" fill="#000000"/><g data-paper-data="{&quot;origPos&quot;:null}"><path d="M249.42854,191.96469c-2.81528,1.64412 -5.44965,2.25676 -6.65072,0.31736c-1.32508,-2.13964 0.72906,-3.99241 3.54434,-5.63652c2.81528,-1.64412 5.44134,-2.38822 6.65071,-0.31737c1.20938,2.07085 -0.72905,3.99241 -3.54434,5.63653z" data-paper-data="{&quot;origPos&quot;:null}" fill="#000000"/><path d="M251.08821,189.83793c-0.93883,0.54828 -1.92549,0.56735 -2.63457,-0.60774c-0.78229,-1.29641 -0.1736,-2.04493 0.76522,-2.5932c0.93883,-0.54828 1.90679,-0.63846 2.63456,0.60774c0.72777,1.24619 0.1736,2.04494 -0.76522,2.59321z" data-paper-data="{&quot;origPos&quot;:null}" fill="#aaaaaa"/></g><g data-paper-data="{&quot;origPos&quot;:null}"><path d="M244.01463,183.07794c-2.81528,1.64412 -5.44965,2.25676 -6.65072,0.31736c-1.32508,-2.13964 0.72906,-3.99241 3.54434,-5.63652c2.81528,-1.64412 5.44134,-2.38822 6.65071,-0.31737c1.20938,2.07085 -0.72905,3.99241 -3.54434,5.63653z" data-paper-data="{&quot;origPos&quot;:null}" fill="#000000"/><path d="M245.71468,180.72913c-0.93883,0.54828 -1.92549,0.56735 -2.63457,-0.60774c-0.78229,-1.29641 -0.1736,-2.04494 0.76522,-2.59321c0.93883,-0.54828 1.90679,-0.63845 2.63457,0.60774c0.72777,1.24619 0.1736,2.04494 -0.76522,2.59321z" data-paper-data="{&quot;origPos&quot;:null}" fill="#aaaaaa"/></g></g></g></g></g></svg>