<svg version="1.1" xmlns="http://www.w3.org/2000/svg" xmlns:xlink="http://www.w3.org/1999/xlink" width="556.28013" height="76.7699" viewBox="0,0,556.28013,76.7699"><defs><linearGradient x1="509.05602" y1="338.51812" x2="509.05602" y2="422.45448" gradientUnits="userSpaceOnUse" id="color-1"><stop offset="0" stop-color="#6aff74"/><stop offset="1" stop-color="#25d230"/></linearGradient></defs><g transform="translate(-232.36879,-333.07096)"><g data-paper-data="{&quot;isPaintingLayer&quot;:true}" fill-rule="nonzero" stroke-linejoin="miter" stroke-miterlimit="10" stroke-dasharray="" stroke-dashoffset="0" style="mix-blend-mode: normal"><path d="M234.06458,408.58764l21.6616,-70.06952h531.0423l-29,69.07903z" fill="url(#color-1)" stroke="#238c39" stroke-width="2.5" stroke-linecap="butt"/><g fill="none" stroke="#238c39"><g><path d="M517.2139,367.50937l-14.02934,13.55315v0" data-paper-data="{&quot;origPos&quot;:null,&quot;origRot&quot;:0,&quot;index&quot;:null}" stroke-width="12" stroke-linecap="round"/><path d="M488.88582,386.38037c0,-4.67381 3.78887,-8.46269 8.46269,-8.46269c4.67381,0 8.46269,3.78887 8.46269,8.46269c0,4.67381 -3.78887,8.46268 -8.46269,8.46268c-4.67381,0 -8.46269,-3.78886 -8.46269,-8.46268zM497.45299,390.14155c2.25036,0 4.07462,-1.82426 4.07462,-4.07462c0,-2.25036 -1.82426,-4.07462 -4.07462,-4.07462c-2.25036,0 -4.07462,1.82426 -4.07462,4.07462c0,2.25036 1.82426,4.07462 4.07462,4.07462z" data-paper-data="{&quot;origPos&quot;:null}" stroke-width="6" stroke-linecap="butt"/><path d="M514.57492,360.7461c1.00152,-4.56525 5.51426,-7.45422 10.07952,-6.4527c0.38733,0.08496 0.76259,0.19521 1.12443,0.32862c-0.94801,0.72853 -6.59913,6.09928 -6.7486,6.7806c-0.48221,2.19808 0.90877,4.37088 3.10685,4.85309c1.34332,0.29469 7.96385,-6.59073 8.50891,-6.96898c0.65277,1.55298 0.84953,3.31562 0.4611,5.08618c-1.00152,4.56525 -5.51426,7.45422 -10.07952,6.4527c-4.56525,-1.00152 -7.45421,-5.51427 -6.45269,-10.07952z" data-paper-data="{&quot;origPos&quot;:null,&quot;origRot&quot;:0}" stroke-width="6" stroke-linecap="butt"/></g><g data-paper-data="{&quot;index&quot;:null}"><path d="M502.97741,367.50936l14.02932,13.55315v0" data-paper-data="{&quot;origPos&quot;:null,&quot;origRot&quot;:0,&quot;index&quot;:null}" stroke-width="12" stroke-linecap="round"/><path d="M522.84282,394.84304c-4.67381,0 -8.46268,-3.78886 -8.46268,-8.46268c0,-4.67381 3.78887,-8.46269 8.46268,-8.46269c4.67382,0 8.46268,3.78887 8.46268,8.46269c0,4.67381 -3.78887,8.46268 -8.46268,8.46268zM526.81297,386.06694c0,-2.25036 -1.82429,-4.07464 -4.07463,-4.07464c-2.25036,0 -4.07462,1.82428 -4.07462,4.07464c0,2.25036 1.82426,4.07463 4.07462,4.07463c2.25036,0 4.07463,-1.82427 4.07463,-4.07463z" data-paper-data="{&quot;origPos&quot;:null}" stroke-width="6" stroke-linecap="butt"/><path d="M499.16369,370.82561c-4.56523,1.00152 -9.078,-1.88747 -10.07952,-6.45272c-0.38841,-1.77055 -0.19165,-3.53317 0.46112,-5.08616c0.54506,0.37826 7.16558,7.26367 8.50891,6.96898c2.19808,-0.48221 3.58906,-2.65501 3.10685,-4.85309c-0.14945,-0.68133 -5.80058,-6.05207 -6.74858,-6.7806c0.36185,-0.13341 0.7371,-0.24365 1.12443,-0.32861c4.56523,-1.00152 9.078,1.88747 10.07952,6.45272c1.00152,4.56523 -1.88746,9.07799 -6.4527,10.07951z" data-paper-data="{&quot;origPos&quot;:null,&quot;origRot&quot;:0}" stroke-width="6" stroke-linecap="butt"/></g></g><g><g><path d="M517.2139,367.50937l-14.02934,13.55315v0" data-paper-data="{&quot;origPos&quot;:null,&quot;origRot&quot;:0,&quot;index&quot;:null}" fill="none" stroke="#ffffff" stroke-width="5.5" stroke-linecap="round"/><path d="M488.88582,386.38037c0,-4.67381 3.78887,-8.46269 8.46269,-8.46269c4.67381,0 8.46269,3.78887 8.46269,8.46269c0,4.67381 -3.78887,8.46268 -8.46269,8.46268c-4.67381,0 -8.46269,-3.78886 -8.46269,-8.46268zM497.45299,390.14155c2.25036,0 4.07462,-1.82426 4.07462,-4.07462c0,-2.25036 -1.82426,-4.07462 -4.07462,-4.07462c-2.25036,0 -4.07462,1.82426 -4.07462,4.07462c0,2.25036 1.82426,4.07462 4.07462,4.07462z" data-paper-data="{&quot;origPos&quot;:null}" fill="#ffffff" stroke="none" stroke-width="0" stroke-linecap="butt"/><path d="M514.57492,360.7461c1.00152,-4.56525 5.51426,-7.45422 10.07952,-6.4527c0.38733,0.08496 0.76259,0.19521 1.12443,0.32862c-0.94801,0.72853 -6.59913,6.09928 -6.7486,6.7806c-0.48221,2.19808 0.90877,4.37088 3.10685,4.85309c1.34332,0.29469 7.96385,-6.59073 8.50891,-6.96898c0.65277,1.55298 0.84953,3.31562 0.4611,5.08618c-1.00152,4.56525 -5.51426,7.45422 -10.07952,6.4527c-4.56525,-1.00152 -7.45421,-5.51427 -6.45269,-10.07952z" data-paper-data="{&quot;origPos&quot;:null,&quot;origRot&quot;:0}" fill="#ffffff" stroke="none" stroke-width="0" stroke-linecap="butt"/></g><g data-paper-data="{&quot;index&quot;:null}"><path d="M502.97741,367.50936l14.02932,13.55315v0" data-paper-data="{&quot;origPos&quot;:null,&quot;origRot&quot;:0,&quot;index&quot;:null}" fill="none" stroke="#ffffff" stroke-width="5.5" stroke-linecap="round"/><path d="M522.84282,394.84304c-4.67381,0 -8.46268,-3.78886 -8.46268,-8.46268c0,-4.67381 3.78887,-8.46269 8.46268,-8.46269c4.67382,0 8.46268,3.78887 8.46268,8.46269c0,4.67381 -3.78887,8.46268 -8.46268,8.46268zM526.81297,386.06694c0,-2.25036 -1.82429,-4.07464 -4.07463,-4.07464c-2.25036,0 -4.07462,1.82428 -4.07462,4.07464c0,2.25036 1.82426,4.07463 4.07462,4.07463c2.25036,0 4.07463,-1.82427 4.07463,-4.07463z" data-paper-data="{&quot;origPos&quot;:null}" fill="#ffffff" stroke="none" stroke-width="0" stroke-linecap="butt"/><path d="M499.16369,370.82561c-4.56523,1.00152 -9.078,-1.88747 -10.07952,-6.45272c-0.38841,-1.77055 -0.19165,-3.53317 0.46112,-5.08616c0.54506,0.37826 7.16558,7.26367 8.50891,6.96898c2.19808,-0.48221 3.58906,-2.65501 3.10685,-4.85309c-0.14945,-0.68133 -5.80058,-6.05207 -6.74858,-6.7806c0.36185,-0.13341 0.7371,-0.24365 1.12443,-0.32861c4.56523,-1.00152 9.078,1.88747 10.07952,6.45272c1.00152,4.56523 -1.88746,9.07799 -6.4527,10.07951z" data-paper-data="{&quot;origPos&quot;:null,&quot;origRot&quot;:0}" fill="#ffffff" stroke="none" stroke-width="0" stroke-linecap="butt"/></g></g><g fill="#ffffff" stroke="#238c39" stroke-width="5" stroke-linecap="butt"><path d="M292.88348,359.93777c6.30266,1.65483 9.51877,2.61175 9.64828,2.87076c0,0.14389 1.52532,3.02182 4.57592,8.63381c-2.69086,9.00794 -4.21617,13.83567 -4.57592,14.4832l-9.77776,2.09369c-5.25223,-2.90673 -8.04383,-4.56155 -8.3748,-4.96444c-0.17266,-2.02896 -0.47487,-7.73446 -0.90653,-17.1165c4.96444,-3.30962 8.10139,-5.30978 9.41082,-6.00047zM294.56708,367.38438l-4.03632,4.18738c0.34535,4.34568 0.51802,7.00058 0.51802,7.96468c0.10071,0 0.97128,0.60435 2.61175,1.81309c2.17284,-0.47487 3.25925,-0.82021 3.25925,-1.03606l2.48222,-8.48269c-0.6619,-2.01453 -1.22311,-3.02182 -1.6836,-3.02182z"/><path d="M321.05123,369.8882c6.36023,-1.45333 9.72022,-2.18002 10.07996,-2.18002c4.33128,6.23073 6.49693,9.48279 6.49693,9.75617l-4.96443,10.53324l-10.68432,-1.70516v0.32379c0.83462,6.40341 1.25189,9.80654 1.25189,10.20945c-0.10071,0 -0.15108,0.05037 -0.15108,0.15107c-1.03606,-0.10071 -1.81309,-0.15107 -2.33114,-0.15107h-1.85627c-1.07922,0 -2.73404,-0.05037 -4.96444,-0.15108c-0.20146,-0.60435 -1.74835,-9.79218 -4.64065,-27.56341c0.48924,-0.20146 4.10105,-1.07922 10.83543,-2.6333c0,0 0.75547,2.97862 0.92815,3.41034zM320.90015,375.30591c0.28778,3.30962 0.5468,4.96444 0.77707,4.96444c2.94985,1.02165 4.75577,1.53247 5.41772,1.53247l1.70515,-7.42506h-0.15108c-1.6836,0.10071 -4.26653,0.41007 -7.74882,0.92814z"/><path d="M346.30512,359.93777l9.49717,1.68361l-0.90653,7.20922c1.88505,-0.10071 3.26647,-0.15108 4.14423,-0.15108h1.3814l0.30221,-0.15107l0.15107,0.3022c-0.3022,4.37447 -0.56121,6.83509 -0.77707,7.38189l-0.3022,-0.17267c-0.21582,0 -2.15842,-0.10074 -5.8278,-0.3022c-0.20146,3.38159 -0.35257,7.42507 -0.45327,12.13047l-0.3022,0.15107c-4.63347,-0.3022 -7.3963,-0.56121 -8.28843,-0.77702l0.15108,-0.60435c0,-1.25189 0.20146,-5.13712 0.60435,-11.65564c-3.88523,-0.21582 -5.82779,-0.47488 -5.82779,-0.77707c0.20146,-4.80614 0.46051,-7.20922 0.77707,-7.20922l5.67671,1.07922v-1.85627c0,-1.5109 -0.05756,-3.55425 -0.17267,-6.12999c0.1151,0 0.17267,-0.05038 0.17267,-0.15108z"/><path d="M366.14127,357.80089l8.48269,1.33824c-1.06485,4.07226 -1.76272,6.10841 -2.09369,6.10841c-4.4608,-0.3022 -6.69121,-0.59716 -6.69121,-0.88495v-6.25952c0.04316,-0.20146 0.14389,-0.3022 0.30221,-0.3022zM363.76698,368.07512h0.12952c6.56168,1.19435 9.84255,1.89224 9.84255,2.09369c-1.88505,10.67712 -3.02901,16.62726 -3.43191,17.85039h-6.84227c-0.20146,0 -0.30221,-0.10074 -0.30221,-0.3022z"/><path d="M384.03484,366.47783c5.46809,1.46774 8.36757,2.35992 8.69854,2.67649c3.00742,4.25935 4.69822,6.71278 5.07238,7.36035c-1.94261,6.15878 -3.05779,9.23816 -3.34558,9.23816c-6.47533,1.51093 -9.8641,2.26637 -10.1663,2.26637c-5.35298,-3.12258 -8.20213,-4.86369 -8.54748,-5.22346c-0.18707,-5.81342 -0.28061,-9.02234 -0.28061,-9.6267c-0.08633,-0.17267 -0.12952,-0.3022 -0.12952,-0.38853c5.52565,-4.20179 8.38199,-6.30266 8.56904,-6.30266zM383.62471,374.37777c-0.08633,0.57557 -0.21586,2.66931 -0.38853,6.28107l4.81333,1.07922c1.15118,-3.59741 1.72676,-5.51842 1.72676,-5.76306c-3.82766,-1.15119 -5.87817,-1.72676 -6.15159,-1.72676z"/><path d="M418.93698,366.45625l7.18762,4.94285c-0.50364,8.20209 -0.85618,12.99386 -1.05762,14.37528c-0.83462,0.10071 -3.37439,0.25182 -7.61934,0.45327l-0.15108,-0.3022l-0.75547,-11.52612l-0.3022,-0.15107c-2.74841,0.58998 -4.64066,1.03606 -5.67672,1.33823c0.28778,4.90688 0.43168,8.45391 0.43168,10.64117c-4.28813,1.19435 -6.63364,1.79151 -7.03655,1.79151c-2.7916,-12.28877 -4.18738,-18.77851 -4.18738,-19.4692c6.07243,-0.79143 9.36768,-1.18714 9.88569,-1.18714v0.15108c0.10071,0.07197 0.25182,1.5685 0.45327,4.48958c5.56878,-3.69814 8.51146,-5.5472 8.82808,-5.5472z"/><path d="M445.68018,366.45625c4.14423,2.64771 6.43218,4.17302 6.86387,4.57592c-1.49653,3.32403 -2.3527,4.98605 -2.56856,4.98605l-7.85675,-4.55432h-0.28061c0,0.14389 -0.33816,0.94973 -1.01448,2.41747c7.23799,3.8996 10.85702,5.89977 10.85702,6.00051c-2.02896,4.69102 -3.17291,7.16606 -3.43196,7.42507l-12.28159,0.71228c-4.77737,-3.16572 -7.34591,-4.83492 -7.70567,-5.00758v-0.12952c0,-0.35976 0.71228,-1.97857 2.13687,-4.85651l9.5835,4.98605l0.71228,-2.84916c-5.92855,-2.66209 -9.45402,-4.32409 -10.57643,-4.98604v-0.30221c0,-0.54679 1.144,-2.97145 3.43196,-7.27399z"/></g><g fill="#ffffff" stroke="none" stroke-width="0.26458" stroke-linecap="butt"><path d="M292.88348,359.93777c6.30266,1.65483 9.51877,2.61175 9.64828,2.87076c0,0.14389 1.52532,3.02182 4.57592,8.63381c-2.69086,9.00794 -4.21617,13.83567 -4.57592,14.4832l-9.77776,2.09369c-5.25223,-2.90673 -8.04383,-4.56155 -8.3748,-4.96444c-0.17266,-2.02896 -0.47487,-7.73446 -0.90653,-17.1165c4.96444,-3.30962 8.10139,-5.30978 9.41082,-6.00047zM294.56708,367.38438l-4.03632,4.18738c0.34535,4.34568 0.51802,7.00058 0.51802,7.96468c0.10071,0 0.97128,0.60435 2.61175,1.81309c2.17284,-0.47487 3.25925,-0.82021 3.25925,-1.03606l2.48222,-8.48269c-0.6619,-2.01453 -1.22311,-3.02182 -1.6836,-3.02182z"/><path d="M321.05123,369.8882c6.36023,-1.45333 9.72022,-2.18002 10.07996,-2.18002c4.33128,6.23073 6.49693,9.48279 6.49693,9.75617l-4.96443,10.53324l-10.68432,-1.70516v0.32379c0.83462,6.40341 1.25189,9.80654 1.25189,10.20945c-0.10071,0 -0.15108,0.05037 -0.15108,0.15107c-1.03606,-0.10071 -1.81309,-0.15107 -2.33114,-0.15107h-1.85627c-1.07922,0 -2.73404,-0.05037 -4.96444,-0.15108c-0.20146,-0.60435 -1.74835,-9.79218 -4.64065,-27.56341c0.48924,-0.20146 4.10105,-1.07922 10.83543,-2.6333c0,0 0.75547,2.97862 0.92815,3.41034zM320.90015,375.30591c0.28778,3.30962 0.5468,4.96444 0.77707,4.96444c2.94985,1.02165 4.75577,1.53247 5.41772,1.53247l1.70515,-7.42506h-0.15108c-1.6836,0.10071 -4.26653,0.41007 -7.74882,0.92814z"/><path d="M346.30512,359.93777l9.49717,1.68361l-0.90653,7.20922c1.88505,-0.10071 3.26647,-0.15108 4.14423,-0.15108h1.3814l0.30221,-0.15107l0.15107,0.3022c-0.3022,4.37447 -0.56121,6.83509 -0.77707,7.38189l-0.3022,-0.17267c-0.21582,0 -2.15842,-0.10074 -5.8278,-0.3022c-0.20146,3.38159 -0.35257,7.42507 -0.45327,12.13047l-0.3022,0.15107c-4.63347,-0.3022 -7.3963,-0.56121 -8.28843,-0.77702l0.15108,-0.60435c0,-1.25189 0.20146,-5.13712 0.60435,-11.65564c-3.88523,-0.21582 -5.82779,-0.47488 -5.82779,-0.77707c0.20146,-4.80614 0.46051,-7.20922 0.77707,-7.20922l5.67671,1.07922v-1.85627c0,-1.5109 -0.05756,-3.55425 -0.17267,-6.12999c0.1151,0 0.17267,-0.05038 0.17267,-0.15108z"/><path d="M366.14127,357.80089l8.48269,1.33824c-1.06485,4.07226 -1.76272,6.10841 -2.09369,6.10841c-4.4608,-0.3022 -6.69121,-0.59716 -6.69121,-0.88495v-6.25952c0.04316,-0.20146 0.14389,-0.3022 0.30221,-0.3022zM363.76698,368.07512h0.12952c6.56168,1.19435 9.84255,1.89224 9.84255,2.09369c-1.88505,10.67712 -3.02901,16.62726 -3.43191,17.85039h-6.84227c-0.20146,0 -0.30221,-0.10074 -0.30221,-0.3022z"/><path d="M384.03484,366.47783c5.46809,1.46774 8.36757,2.35992 8.69854,2.67649c3.00742,4.25935 4.69822,6.71278 5.07238,7.36035c-1.94261,6.15878 -3.05779,9.23816 -3.34558,9.23816c-6.47533,1.51093 -9.8641,2.26637 -10.1663,2.26637c-5.35298,-3.12258 -8.20213,-4.86369 -8.54748,-5.22346c-0.18707,-5.81342 -0.28061,-9.02234 -0.28061,-9.6267c-0.08633,-0.17267 -0.12952,-0.3022 -0.12952,-0.38853c5.52565,-4.20179 8.38199,-6.30266 8.56904,-6.30266zM383.62471,374.37777c-0.08633,0.57557 -0.21586,2.66931 -0.38853,6.28107l4.81333,1.07922c1.15118,-3.59741 1.72676,-5.51842 1.72676,-5.76306c-3.82766,-1.15119 -5.87817,-1.72676 -6.15159,-1.72676z"/><path d="M418.93698,366.45625l7.18762,4.94285c-0.50364,8.20209 -0.85618,12.99386 -1.05762,14.37528c-0.83462,0.10071 -3.37439,0.25182 -7.61934,0.45327l-0.15108,-0.3022l-0.75547,-11.52612l-0.3022,-0.15107c-2.74841,0.58998 -4.64066,1.03606 -5.67672,1.33823c0.28778,4.90688 0.43168,8.45391 0.43168,10.64117c-4.28813,1.19435 -6.63364,1.79151 -7.03655,1.79151c-2.7916,-12.28877 -4.18738,-18.77851 -4.18738,-19.4692c6.07243,-0.79143 9.36768,-1.18714 9.88569,-1.18714v0.15108c0.10071,0.07197 0.25182,1.5685 0.45327,4.48958c5.56878,-3.69814 8.51146,-5.5472 8.82808,-5.5472z"/><path d="M445.68018,366.45625c4.14423,2.64771 6.43218,4.17302 6.86387,4.57592c-1.49653,3.32403 -2.3527,4.98605 -2.56856,4.98605l-7.85675,-4.55432h-0.28061c0,0.14389 -0.33816,0.94973 -1.01448,2.41747c7.23799,3.8996 10.85702,5.89977 10.85702,6.00051c-2.02896,4.69102 -3.17291,7.16606 -3.43196,7.42507l-12.28159,0.71228c-4.77737,-3.16572 -7.34591,-4.83492 -7.70567,-5.00758v-0.12952c0,-0.35976 0.71228,-1.97857 2.13687,-4.85651l9.5835,4.98605l0.71228,-2.84916c-5.92855,-2.66209 -9.45402,-4.32409 -10.57643,-4.98604v-0.30221c0,-0.54679 1.144,-2.97145 3.43196,-7.27399z"/></g></g></g></svg>