<svg version="1.1" xmlns="http://www.w3.org/2000/svg" xmlns:xlink="http://www.w3.org/1999/xlink" width="441.55828" height="69.66968" viewBox="0,0,441.55828,69.66968"><defs><linearGradient x1="24.5327" y1="284.2076" x2="24.5327" y2="341.819" gradientUnits="userSpaceOnUse" id="color-1"><stop offset="0" stop-color="#ffffff"/><stop offset="1" stop-color="#ffffff"/></linearGradient><radialGradient cx="433.55778" cy="324.91029" r="18.72682" gradientUnits="userSpaceOnUse" id="color-2"><stop offset="0" stop-color="#ffff00"/><stop offset="1" stop-color="#ff9400"/></radialGradient><radialGradient cx="437.13623" cy="326.02495" r="12.81669" gradientUnits="userSpaceOnUse" id="color-3"><stop offset="0" stop-color="#bda501"/><stop offset="1" stop-color="#c07801"/></radialGradient></defs><g transform="translate(-18.50356,-278.17846)"><g data-paper-data="{&quot;isPaintingLayer&quot;:true}" fill="none" fill-rule="nonzero" stroke="none" stroke-width="none" stroke-linecap="butt" stroke-linejoin="miter" stroke-miterlimit="10" stroke-dasharray="" stroke-dashoffset="0" font-family="none" font-weight="none" font-size="none" text-anchor="none" style="mix-blend-mode: normal"><path d="M24.5327,284.2076h429.5v57.6114h-429.5z" data-paper-data="{&quot;origPos&quot;:null}" id="ID0.3184669064357877" fill="#ffffff" stroke="url(#color-1)" stroke-width="12.05828"/><text transform="translate(25.78827,322.12447) scale(0.7218,0.72179)" font-size="22" xml:space="preserve" data-paper-data="{&quot;origPos&quot;:null}" id="ID0.08681221166625619" fill="#2492d1" fill-rule="nonzero" stroke="none" stroke-width="1" stroke-linecap="butt" stroke-linejoin="miter" stroke-miterlimit="10" stroke-dasharray="" stroke-dashoffset="0" font-family="Sans Serif" font-weight="400" text-anchor="start" style="mix-blend-mode: normal"><tspan x="0" dy="0">Complete a minecart ride.</tspan></text><g data-paper-data="{&quot;origPos&quot;:null}" id="text36" fill="#2392d1" stroke="none" stroke-width="0.26458"><path d="M29.05753,285.16212c3.26639,0.72946 5.08195,1.14687 5.44667,1.25225v0.08509c-0.11348,2.92596 -0.19859,4.62806 -0.2553,5.10626c0.18641,0 1.02532,0.19453 2.51665,0.58356c1.33736,-4.12553 2.06276,-6.18829 2.17624,-6.18829c2.23704,1.00504 3.65948,1.67371 4.26738,2.00603v0.08509c-2.45587,5.71415 -3.84995,8.86706 -4.18227,9.45874c-0.61599,0.51063 -2.76386,2.46397 -6.44362,5.86005h-0.08511l-6.78403,-3.3434c0.6241,-1.06988 1.37788,-2.29782 2.26135,-3.6838c0.04052,0 1.10231,0.69704 3.18534,2.09114h0.08511c0.69704,-0.56737 1.53189,-1.37788 2.5045,-2.43154c0,-0.04862 -1.58862,-1.60888 -4.76585,-4.68076v-6.03025z" id="path739"/><path d="M49.43395,288.84591c3.07996,0.82673 4.71316,1.32926 4.89957,1.50757c1.69398,2.39912 2.64634,3.78106 2.85709,4.1458c-1.09421,3.46902 -1.72235,5.20352 -1.88445,5.20352c-3.64733,0.85104 -5.55611,1.27656 -5.72631,1.27656c-3.01512,-1.75882 -4.61996,-2.73955 -4.81447,-2.94218c-0.10538,-3.27451 -0.15806,-5.08197 -0.15806,-5.42238c-0.04864,-0.09724 -0.07295,-0.1702 -0.07295,-0.21884c3.11239,-2.36671 4.72126,-3.55006 4.82664,-3.55006zM49.20295,293.29566c-0.04864,0.32422 -0.12157,1.50351 -0.21884,3.53791l2.71118,0.60789c0.64842,-2.02629 0.97261,-3.10833 0.97261,-3.24612c-2.15597,-0.64842 -3.31098,-0.97264 -3.46496,-0.97264z" id="path741"/><path d="M64.86217,288.83376l0.0851,0.15802l-1.6413,8.70495h0.08511l4.18227,-1.22792v-4.9239c0.01621,-0.11346 0.06889,-0.17018 0.15804,-0.17018c3.14482,0.21884 4.89554,0.32826 5.25217,0.32826c0,0.05672 0.02836,0.08509 0.0851,0.08509c0,1.38598 -0.43767,4.25928 -1.31304,8.61986c0,0.25125 -1.25631,0.44172 -3.76891,0.57141c-0.12969,-0.154 -0.2391,-0.48226 -0.32825,-0.98477c-3.21775,0.65652 -5.05358,0.98477 -5.50747,0.98477c-2.56933,-1.91282 -3.85401,-2.89761 -3.85401,-2.95433c0.43767,-5.74658 0.71325,-8.72928 0.82673,-8.94814h0.07295c2.05061,-0.05672 3.93912,-0.13777 5.66553,-0.24315z" id="path743"/><path d="M83.02587,288.83376c1.60482,0.89968 2.5896,1.48324 2.95434,1.75072c-1.31304,2.73143 -2.01818,4.12147 -2.11544,4.17011h-0.08511l-1.73857,-1.51973l-2.05466,2.50452l0.23099,4.55917c-0.10538,0.09724 -1.44678,0.32418 -4.02423,0.68083c-0.09727,-0.69704 -0.72946,-4.11338 -1.89661,-10.24901c0,-0.09724 1.69398,-0.34851 5.08195,-0.75378c0.05674,0.06484 0.21074,0.82267 0.46199,2.27351c2.02629,-2.27756 3.08808,-3.41634 3.18534,-3.41634z" id="path745"/><path d="M101.39626,285.16212c3.62302,1.41029 5.43452,2.16003 5.43452,2.24918c-1.15904,2.36673 -1.73857,3.5987 -1.73857,3.69597h-0.07295c-0.51873,-0.14588 -1.65752,-0.65248 -3.41634,-1.51973l-2.89355,2.03036c0,2.5126 0.14185,3.76891 0.42552,3.76891c0.18641,0.09724 1.39814,0.58356 3.63517,1.45893c0.85916,-0.85104 1.73045,-1.67371 2.61392,-2.46803c0.1621,0.14591 0.88753,1.30495 2.17624,3.47713v0.21884c-0.08105,0 -1.87229,0.96858 -5.37374,2.90571c-4.47406,-1.49946 -6.77187,-2.29782 -6.89345,-2.39508l-2.17625,-7.18524c2.04251,-2.90165 3.08402,-4.35249 3.12455,-4.35249c0.08915,0 1.80746,-0.62814 5.1549,-1.88445z" id="path747"/><path d="M110.81854,288.83376c4.81447,0.66463 7.22172,1.07394 7.22172,1.22794c1.89661,1.62913 2.84491,2.50044 2.84491,2.61391c-0.76999,2.40723 -1.20767,3.87023 -1.31305,4.38895c0.76999,1.7102 1.20767,2.73145 1.31305,3.06377c0,0.09724 -1.25631,0.35661 -3.76891,0.77809c-0.03243,-0.13779 -0.26342,-0.44577 -0.693,-0.92398c-3.46902,0.66461 -5.33725,0.99693 -5.60473,0.99693l-1.84799,-4.99684l4.07285,-2.15193c0.65652,0.10534 1.68183,0.15802 3.07592,0.15802c0,-0.17831 0.02431,-0.71731 0.07295,-1.61699c-0.23505,0 -2.3343,0.154 -6.29773,0.462l-0.07295,-0.15802c0.55115,-2.56124 0.88347,-3.84185 0.99695,-3.84185zM113.34735,295.98253c0,0.08915 0.25936,1.03745 0.77809,2.84491h0.07295c1.02125,-0.66461 1.53188,-1.10228 1.53188,-1.31303l0.15806,-1.30089c-0.19452,0 -1.04151,-0.07699 -2.54097,-0.23099z" id="path749"/><path d="M130.78159,288.83376c1.60482,0.89968 2.58961,1.48324 2.95435,1.75072c-1.31304,2.73143 -2.01818,4.12147 -2.11544,4.17011h-0.08511l-1.73857,-1.51973l-2.05467,2.50452l0.23099,4.55917c-0.10538,0.09724 -1.44677,0.32418 -4.02422,0.68083c-0.09727,-0.69704 -0.72946,-4.11338 -1.89661,-10.24901c0,-0.09724 1.69398,-0.34851 5.08194,-0.75378c0.05674,0.06484 0.21074,0.82267 0.46199,2.27351c2.02629,-2.27756 3.08807,-3.41634 3.18534,-3.41634z" id="path751"/><path d="M138.33157,285.16212l5.34943,0.94831l-0.51063,4.06069c1.06178,-0.05672 1.83987,-0.08509 2.33429,-0.08509h0.7781l0.17022,-0.08509l0.08511,0.17018c-0.17022,2.46397 -0.3161,3.84997 -0.43768,4.15796l-0.17021,-0.09724c-0.12158,0 -1.21578,-0.05672 -3.28261,-0.17018c-0.11348,1.90472 -0.19859,4.18229 -0.2553,6.83267l-0.17021,0.08509c-2.60986,-0.1702 -4.16605,-0.3161 -4.66858,-0.43767l0.0851,-0.34041c0,-0.70516 0.11348,-2.89357 0.34041,-6.56521c-2.1884,-0.12155 -3.2826,-0.26744 -3.2826,-0.43767c0.11348,-2.70712 0.25936,-4.06069 0.43767,-4.06069l3.1975,0.60789v-1.04557c0,-0.85106 -0.03243,-2.00199 -0.09727,-3.45282c0.06484,0 0.09727,-0.02837 0.09727,-0.08509z" id="path753"/></g><g stroke="none"><text transform="translate(283,338.98128) scale(0.60677,0.60677)" font-size="40" xml:space="preserve" data-paper-data="{&quot;origPos&quot;:null}" fill="#2392d1" fill-rule="nonzero" stroke="none" stroke-width="1" stroke-linecap="butt" stroke-linejoin="miter" stroke-miterlimit="10" stroke-dasharray="" stroke-dashoffset="0" font-family="Sans Serif" font-weight="normal" text-anchor="start" style="mix-blend-mode: normal"><tspan x="0" dy="0">Reward:   +5</tspan></text><path d="M438.22633,321.71811c2.42757,0 4.62707,0.98611 6.21986,2.5789c1.5928,1.59272 2.57884,3.79221 2.57884,6.21979c0,2.4275 -0.98603,4.62709 -2.57884,6.21981c-1.5928,1.5928 -3.79229,2.5789 -6.21986,2.5789c-2.4275,0 -4.62699,-0.98611 -6.2198,-2.5789c-1.5928,-1.59272 -2.5789,-3.79231 -2.5789,-6.21981c0,-2.42757 0.98611,-4.62706 2.5789,-6.21979c1.5928,-1.5928 3.7923,-2.5789 6.2198,-2.5789z" data-paper-data="{&quot;origPos&quot;:null}" id="ID0.7142658131197095" fill="url(#color-2)" stroke-width="0.48028"/><path d="M436.38196,323.73549h3.47092v13.31086h-3.47092z" data-paper-data="{&quot;origPos&quot;:null}" id="ID0.06001657713204622" fill="url(#color-3)" stroke-width="0.59798"/></g></g></g></svg>