<svg version="1.1" xmlns="http://www.w3.org/2000/svg" xmlns:xlink="http://www.w3.org/1999/xlink" width="426.98437" height="144.57439" viewBox="0,0,426.98437,144.57439"><defs><linearGradient x1="347.07939" y1="-2373.23938" x2="347.07939" y2="6913.62316" gradientUnits="userSpaceOnUse" id="color-1"><stop offset="0" stop-color="#519dff"/><stop offset="1" stop-color="#519dff" stop-opacity="0"/></linearGradient></defs><g transform="translate(-164.99999,-175.42561)"><g data-paper-data="{&quot;isPaintingLayer&quot;:true}" fill="url(#color-1)" fill-rule="nonzero" stroke="#3e7ac6" stroke-width="2" stroke-linecap="butt" stroke-linejoin="miter" stroke-miterlimit="10" stroke-dasharray="" stroke-dashoffset="0" font-family="none" font-weight="none" font-size="none" text-anchor="none" style="mix-blend-mode: normal"><path d="M165.99999,317c0,-2 0,-29.33333 0,-41c0,-28.56344 0,-57.12688 0,-85.69032c15.48672,-7.09671 36.70904,-14.74853 80.26406,-13.80477c88.05536,4.82815 75.76382,24.5838 133.02163,21.81112c58.14234,0.32347 83.37708,-9.70848 108.60581,-17.67943c2.28748,-0.23339 103.08814,-0.0195 103.08814,-0.0195l-0.64581,136.49619c-7.09152,1.05016 -14.19548,1.88671 -21.33383,1.88671c-4.81136,0 -397,-2 -403,-2z" data-paper-data="{&quot;origPos&quot;:null,&quot;index&quot;:null}" id="ID0.18147781118750572"/></g></g></svg>