<svg version="1.1" xmlns="http://www.w3.org/2000/svg" xmlns:xlink="http://www.w3.org/1999/xlink" width="552.09888" height="488.88801" viewBox="0,0,552.09888,488.88801"><defs><linearGradient x1="-34.00129" y1="179.89341" x2="48.07373" y2="179.89341" gradientUnits="userSpaceOnUse" id="color-1"><stop offset="0" stop-color="#296cdb" stop-opacity="0"/><stop offset="1" stop-color="#296cdb"/></linearGradient><linearGradient x1="240.37563" y1="340.99761" x2="240.37563" y2="423.06783" gradientUnits="userSpaceOnUse" id="color-2"><stop offset="0" stop-color="#296cdb"/><stop offset="1" stop-color="#296cdb" stop-opacity="0"/></linearGradient><linearGradient x1="514.00128" y1="179.89341" x2="431.92628" y2="179.89341" gradientUnits="userSpaceOnUse" id="color-3"><stop offset="0" stop-color="#296cdb" stop-opacity="0"/><stop offset="1" stop-color="#296cdb"/></linearGradient><radialGradient cx="435.31993" cy="346.4055" r="77.14154" gradientUnits="userSpaceOnUse" id="color-4"><stop offset="0" stop-color="#296cdb"/><stop offset="1" stop-color="#296cdb" stop-opacity="0"/></radialGradient><linearGradient x1="240.37563" y1="19.00242" x2="240.37563" y2="-63.06776" gradientUnits="userSpaceOnUse" id="color-5"><stop offset="0" stop-color="#296cdb"/><stop offset="1" stop-color="#296cdb" stop-opacity="0"/></linearGradient><radialGradient cx="435.31993" cy="13.59453" r="77.14154" gradientUnits="userSpaceOnUse" id="color-6"><stop offset="0" stop-color="#296cdb"/><stop offset="1" stop-color="#296cdb" stop-opacity="0"/></radialGradient><radialGradient cx="44.68008" cy="346.4055" r="77.14155" gradientUnits="userSpaceOnUse" id="color-7"><stop offset="0" stop-color="#296cdb"/><stop offset="1" stop-color="#296cdb" stop-opacity="0"/></radialGradient><radialGradient cx="44.68008" cy="13.59453" r="77.14155" gradientUnits="userSpaceOnUse" id="color-8"><stop offset="0" stop-color="#296cdb"/><stop offset="1" stop-color="#296cdb" stop-opacity="0"/></radialGradient><radialGradient cx="441.39451" cy="248.95249" r="24.1454" gradientUnits="userSpaceOnUse" id="color-9"><stop offset="0" stop-color="#fff343"/><stop offset="1" stop-color="#fff343" stop-opacity="0"/></radialGradient><linearGradient x1="424.53491" y1="233.21079" x2="424.53491" y2="264.12429" gradientUnits="userSpaceOnUse" id="color-10"><stop offset="0" stop-color="#fff01b"/><stop offset="1" stop-color="#ffa30a"/></linearGradient><linearGradient x1="441.95381" y1="244.82188" x2="441.95381" y2="251.52469" gradientUnits="userSpaceOnUse" id="color-11"><stop offset="0" stop-color="#000000"/><stop offset="1" stop-color="#674205"/></linearGradient><linearGradient x1="436.2538" y1="244.82188" x2="436.2538" y2="251.52469" gradientUnits="userSpaceOnUse" id="color-12"><stop offset="0" stop-color="#000000"/><stop offset="1" stop-color="#674205"/></linearGradient><radialGradient cx="43.96569" cy="180.44074" r="37.3349" gradientUnits="userSpaceOnUse" id="color-13"><stop offset="0" stop-color="#3e91ff"/><stop offset="1" stop-color="#3e91ff" stop-opacity="0"/></radialGradient><radialGradient cx="433.96213" cy="295.90126" r="32.03267" gradientUnits="userSpaceOnUse" id="color-14"><stop offset="0" stop-color="#ffff00"/><stop offset="1" stop-color="#ff9400"/></radialGradient><radialGradient cx="440.76528" cy="297.80792" r="21.92326" gradientUnits="userSpaceOnUse" id="color-15"><stop offset="0" stop-color="#bda501"/><stop offset="1" stop-color="#c07801"/></radialGradient></defs><g transform="translate(36.04944,64.44397)"><g data-paper-data="{&quot;isPaintingLayer&quot;:true}" fill-rule="nonzero" stroke-linejoin="miter" stroke-miterlimit="10" stroke-dasharray="" stroke-dashoffset="0" style="mix-blend-mode: normal"><g stroke="none" stroke-linecap="butt"><g><g><path d="M-34.00129,14.84636h82.07501v330.09404h-82.07501z" fill="url(#color-1)" stroke-width="1.89892"/><g><path d="M46.75968,18.17969h385.67627v323.2985h-385.67626z" data-paper-data="{&quot;origPos&quot;:null}" fill="#296cdb" stroke-width="0.90886"/><path d="M47.78665,423.06783l-0.06765,-81.93488l385.24562,-0.13533l0.06766,81.93487z" data-paper-data="{&quot;index&quot;:null,&quot;origRot&quot;:0}" fill="url(#color-2)" stroke-width="1.89892"/><path d="M514.00128,344.94043h-82.07501v-330.09404h82.07501z" data-paper-data="{&quot;index&quot;:null}" fill="url(#color-3)" stroke-width="1.89892"/><path d="M431.73195,424.44404v-79.83253h84.3175v79.83253z" data-paper-data="{&quot;index&quot;:null}" fill="url(#color-4)" stroke-width="0"/><path d="M433.03226,-62.93243l-0.06765,81.93488l-385.24561,-0.13533l0.06765,-81.93488z" data-paper-data="{&quot;index&quot;:null,&quot;origRot&quot;:0}" fill="url(#color-5)" stroke-width="1.89892"/><path d="M516.04944,-64.44397v79.83253h-84.3175v-79.83252z" data-paper-data="{&quot;index&quot;:null}" fill="url(#color-6)" stroke-width="0"/></g></g><path d="M-36.04944,424.44404v-79.83253h84.3175v79.83253z" fill="url(#color-7)" stroke-width="0"/></g><path d="M48.26806,-64.44397v79.83253h-84.3175v-79.83252z" data-paper-data="{&quot;index&quot;:null}" fill="url(#color-8)" stroke-width="0"/><text transform="translate(14.00365,61.0802) scale(0.50924,0.50924)" font-size="22" xml:space="preserve" fill="#a1f4fa" fill-rule="nonzero" stroke="none" stroke-width="1" stroke-linecap="butt" stroke-linejoin="miter" stroke-miterlimit="10" stroke-dasharray="" stroke-dashoffset="0" font-family="&quot;Microsoft YaHei&quot;, &quot;微软雅黑&quot;, STXihei, &quot;华文细黑&quot;" font-weight="400" text-anchor="start" style="mix-blend-mode: normal"><tspan x="0" dy="0">Page 4</tspan></text><text transform="translate(12.54471,87.21422) scale(1.03413,1.03413)" font-size="22" xml:space="preserve" fill="#a1f3f9" fill-rule="nonzero" stroke="none" stroke-width="1" stroke-linecap="butt" stroke-linejoin="miter" stroke-miterlimit="10" stroke-dasharray="" stroke-dashoffset="0" font-family="&quot;Microsoft YaHei&quot;, &quot;微软雅黑&quot;, STXihei, &quot;华文细黑&quot;" font-weight="400" text-anchor="start" style="mix-blend-mode: normal"><tspan x="0" dy="0">UI (User Interface)</tspan></text><text transform="translate(282.69408,31.82308) scale(0.63022,0.63021)" font-size="22" xml:space="preserve" fill="#a1f3f9" fill-rule="nonzero" stroke="none" stroke-width="1" stroke-linecap="butt" stroke-linejoin="miter" stroke-miterlimit="10" stroke-dasharray="" stroke-dashoffset="0" font-family="Sans Serif" font-weight="400" text-anchor="start" style="mix-blend-mode: normal"><tspan x="0" dy="0">Use the arrow keys</tspan><tspan x="0" dy="24.86px">or tap to navigate</tspan></text><path d="M31.18761,13.16804c6.80525,1.71922 10.42277,2.74001 10.85258,3.06237c-2.41766,5.78446 -3.71602,8.74832 -3.89511,8.89159c-0.44772,0 -3.35786,-1.02078 -8.73042,-3.06236c-3.11609,2.90118 -4.67413,4.52191 -4.67413,4.86217c-0.23281,5.37257 -0.34922,8.49761 -0.34922,9.37513c3.72498,1.71922 5.93668,2.68628 6.63512,2.90118c3.47426,-1.50432 5.47106,-2.41765 5.99041,-2.74001l-0.96706,-3.08922c-0.64471,0.35817 -2.58779,1.17301 -5.82923,2.44452l-0.16118,-0.32236v-1.31627c0,-1.12824 -0.05373,-2.84746 -0.16118,-5.15767c0.8417,-0.21491 5.74865,-0.75216 14.72083,-1.61177c0.21491,1.11033 0.59098,5.84714 1.12824,14.21043c-0.28654,0.32236 -5.67701,2.48034 -16.17142,6.47394c-8.93636,-3.25935 -13.46722,-5.09499 -13.59258,-5.50688c-2.79373,-9.70643 -4.1906,-14.81932 -4.1906,-15.33867c3.67126,-6.60825 5.77551,-10.17205 6.31276,-10.6914c0.44771,-0.21491 4.80845,-1.34314 13.0822,-3.38472z" fill="#ffffff" stroke-width="0.26459"/><path d="M62.9126,21.25376l0.18803,0.34922l-3.62648,19.23378h0.18803l9.24081,-2.71315v-10.87944c0.03583,-0.25072 0.15223,-0.37608 0.34922,-0.37608c6.94852,0.48353 10.81676,0.7253 11.60474,0.7253c0,0.12537 0.06268,0.18805 0.18805,0.18805c0,3.06236 -0.96706,9.41094 -2.90118,19.04574c0,0.55517 -2.77583,0.97601 -8.32748,1.26255c-0.28654,-0.34026 -0.5283,-1.06556 -0.72529,-2.17589c-7.10969,1.4506 -11.16598,2.17589 -12.16886,2.17589c-5.67701,-4.22642 -8.51552,-6.4023 -8.51552,-6.52766c0.96706,-12.69716 1.57595,-19.28751 1.82667,-19.77104h0.16119c4.53086,-0.12535 8.70356,-0.30444 12.51808,-0.53726z" fill="#ffffff" stroke-width="0.26459"/><path d="M87.43836,10.48175l10.55709,1.6655c-1.32523,5.06812 -2.1938,7.60218 -2.60569,7.60218c-5.55165,-0.37608 -8.32747,-0.74321 -8.32747,-1.10138v-7.79021c0.05372,-0.25072 0.17907,-0.37608 0.37608,-0.37608zM84.48345,23.26846h0.16118c8.1663,1.48641 12.24944,2.35497 12.24944,2.60569c-2.34602,13.28814 -3.76975,20.69333 -4.27119,22.21556h-8.51551c-0.25072,0 -0.37608,-0.12536 -0.37608,-0.37608z" fill="#ffffff" stroke-width="0.26459"/><path d="M115.0802,13.11432h0.16119c8.09467,0.68052 12.14199,1.20883 12.14199,1.58491l3.57276,31.61754c0,0.23281 -3.57276,0.82379 -10.71827,1.77295l-0.16119,-0.34922v-2.87432c-6.16054,1.6655 -10.38695,2.74001 -12.67925,3.22354c-5.4442,-7.70068 -8.30061,-11.80173 -8.56924,-12.30317c4.01152,-7.28878 6.15158,-10.97794 6.42021,-11.06749l11.25552,0.53725c-0.23281,-1.37896 -0.70738,-5.42629 -1.42373,-12.14199zM110.08371,32.37492c1.80876,5.53374 2.937,8.56924 3.38472,9.1065l5.34571,-4.64727c-0.55517,-3.20563 -0.96706,-4.80845 -1.23569,-4.80845h-7.14552c-0.23281,0.03583 -0.34922,0.15223 -0.34922,0.34922z" fill="#ffffff" stroke-width="0.26459"/><path d="M149.00794,21.2806c8.11257,4.17269 12.60762,6.60825 13.48514,7.30669c-1.16405,5.4442 -1.85354,8.24689 -2.06844,8.40806h-16.9773v0.29549l4.75472,5.88296l7.46786,-3.81452c0.73425,1.2715 1.79085,3.49217 3.16982,6.66199c-0.64471,0.2149 -5.3457,0.90438 -14.10298,2.06844c-7.25296,-4.78158 -10.90631,-7.27087 -10.96004,-7.46787c1.16405,-9.29453 1.85354,-13.9418 2.06844,-13.9418c7.57531,-3.22354 11.96291,-5.02334 13.16278,-5.39943zM147.26186,27.78143c-0.14327,0.35817 -1.09242,1.78189 -2.84746,4.27118c0,0.75216 1.0566,1.12824 3.16982,1.12824c0,0.10746 1.53118,0.36713 4.59354,0.77902c0.8417,-1.16405 1.26255,-1.84458 1.26255,-2.04157c-0.26863,-1.59386 -0.85065,-2.39079 -1.74608,-2.39079z" fill="#ffffff" stroke-width="0.26459"/></g><text transform="translate(14.35952,238.38111) scale(0.66931,0.66931)" font-size="22" xml:space="preserve" fill="#a1f3f9" fill-rule="nonzero" stroke="none" stroke-width="1" stroke-linecap="butt" stroke-linejoin="miter" stroke-miterlimit="10" stroke-dasharray="" stroke-dashoffset="0" font-family="&quot;Microsoft YaHei&quot;, &quot;微软雅黑&quot;, STXihei, &quot;华文细黑&quot;" font-weight="400" text-anchor="start" style="mix-blend-mode: normal"><tspan x="0" dy="0">Star counter: Displays the amount of power stars you</tspan><tspan x="0" dy="26.4px">currently have, you can see your grand star count in the</tspan><tspan x="0" dy="26.4px">castle hub.</tspan><tspan x="0" dy="26.4px">Coin counter: Displays the amount of coins you</tspan><tspan x="0" dy="26.4px">currently have, you can spend them at the Luma Shop, or</tspan><tspan x="0" dy="26.4px">in various other places. You will lose coins if you die.</tspan></text><g stroke="none"><path d="M423.0957,245.46388l-0.6505,-0.8396l0.5638,-1.7234l0.9974,-0.4419h10.2778l4.5101,-10.3847l0.9974,-0.8396l0.9975,0.0442l1.2142,0.928l4.857,10.1195l10.4079,-0.1768l1.0408,0.6187l0.824,1.0164l-0.824,1.8118l-5.9411,7.0262l1.7346,10.6497l0.0867,1.6792l-1.0841,0.5745l-1.9081,-0.3535l-9.9743,-7.0704l-8.4998,7.9542l-1.9081,0.3535l-1.3877,-0.7512l-0.477,-2.0769l0.9974,-9.8986z" fill="url(#color-9)" stroke-width="0.8756" stroke-linecap="round"/><path d="M425.1174,245.71599l-0.5825,-0.7379l0.5049,-1.5146l0.8932,-0.3883h9.2041l4.039,-9.1265l0.8932,-0.7379l0.8933,0.0389l1.0874,0.8155l4.3496,8.8935l9.3207,-0.1554l0.932,0.5437l0.7379,0.8933l-0.7379,1.5922l-5.3205,6.175l1.5534,9.3595l0.0777,1.4757l-0.9709,0.5049l-1.7088,-0.3107l-8.9323,-6.2137l-7.6119,6.9904l-1.7087,0.3107l-1.2428,-0.6602l-0.4272,-1.8253l0.8932,-8.6993z" fill="url(#color-10)" stroke-width="0.77672" stroke-linecap="round"/><g stroke-width="1.6871"><path d="M443.3249,244.82249c0.4281,-0.0165 0.8547,0.3379 1.0344,0.7749c0.326,0.7932 0.3611,1.7389 0.3367,2.6221c-0.0168,0.8153 -0.1462,1.6581 -0.457,2.3871c-0.1783,0.4278 -0.4997,0.9218 -0.9141,0.9181c-0.3992,-0.0037 -0.7389,-0.3122 -0.9583,-0.8667c-0.2803,-0.7014 -0.4128,-1.5424 -0.4128,-2.5303c0,-0.9879 0.1021,-1.7958 0.4128,-2.5303c0.2042,-0.4848 0.5942,-0.7914 0.9583,-0.7749z" fill="url(#color-11)" stroke-linecap="round"/><path d="M443.38801,245.3479c0.221,0 0.4205,0.1084 0.5653,0.2828c0.1447,0.1744 0.2346,0.415 0.2346,0.6812c0,0.2663 -0.0899,0.5068 -0.2346,0.6813c-0.1448,0.1744 -0.3443,0.2828 -0.5653,0.2828c-0.2209,0 -0.4204,-0.1084 -0.5652,-0.2828c-0.1447,-0.1745 -0.2346,-0.415 -0.2346,-0.6813c0,-0.2662 0.0899,-0.5068 0.2346,-0.6812c0.1448,-0.1744 0.3443,-0.2828 0.5652,-0.2828z" fill="#ffffff" stroke-linecap="butt"/></g><g stroke-width="1.6871"><path d="M437.62491,244.82249c0.4281,-0.0165 0.8547,0.3379 1.0344,0.7749c0.326,0.7932 0.3611,1.7389 0.3367,2.6221c-0.0168,0.8153 -0.1462,1.6581 -0.457,2.3871c-0.1783,0.4278 -0.4997,0.9218 -0.9141,0.9181c-0.3992,-0.0037 -0.7389,-0.3122 -0.9583,-0.8667c-0.2803,-0.7014 -0.4128,-1.5424 -0.4128,-2.5303c0,-0.9879 0.1021,-1.7958 0.4128,-2.5303c0.2042,-0.4848 0.5942,-0.7914 0.9583,-0.7749z" fill="url(#color-12)" stroke-linecap="round"/><path d="M437.738,245.24789c0.221,0 0.4205,0.1084 0.5653,0.2828c0.1447,0.1744 0.2346,0.415 0.2346,0.6812c0,0.2663 -0.0899,0.5068 -0.2346,0.6813c-0.1448,0.1744 -0.3443,0.2828 -0.5653,0.2828c-0.2209,0 -0.4204,-0.1084 -0.5652,-0.2828c-0.1447,-0.1745 -0.2346,-0.415 -0.2346,-0.6813c0,-0.2662 0.0899,-0.5068 0.2346,-0.6812c0.1448,-0.1744 0.3443,-0.2828 0.5652,-0.2828z" fill="#ffffff" stroke-linecap="butt"/></g></g><g><g><path d="M43.33319,153.18803c7.7208,0 14.7168,3.1356 19.7845,8.2014c5.0658,5.0678 8.2014,12.0637 8.2014,19.7845c0,7.7208 -3.1356,14.7168 -8.2014,19.7846c-5.0677,5.0658 -12.0637,8.2014 -19.7845,8.2014c-7.7208,0 -14.7168,-3.1356 -19.7845,-8.2014c-5.0658,-5.0678 -8.2014,-12.0638 -8.2014,-19.7846c0,-7.7208 3.1356,-14.7167 8.2014,-19.7845c5.0677,-5.0658 12.0637,-8.2014 19.7845,-8.2014z" fill="url(#color-13)" stroke="none" stroke-width="1.95364" stroke-linecap="butt"/><path d="M51.05059,153.86815c0,0 4.1651,1.4575 6.0563,2.5398c2.1861,1.2503 4.1534,2.6667 6.1539,4.3957c1.7114,1.5551 3.2763,3.3915 4.3957,5.3725c1.4907,2.6394 3.5166,8.4007 3.5166,8.4007" fill="none" stroke="#64a8ff" stroke-width="3.90729" stroke-linecap="round"/><path d="M16.30088,174.17686c0,0 2.0259,-5.7613 3.5166,-8.4007c1.1194,-1.981 2.6843,-3.8174 4.3957,-5.3725c2.0005,-1.729 3.9678,-3.1454 6.1539,-4.3957c1.8912,-1.0823 6.0563,-2.5398 6.0563,-2.5398" fill="none" stroke="#64a8ff" stroke-width="3.90729" stroke-linecap="round"/><path d="M71.67309,187.69465c0,0 -2.0259,5.7613 -3.5166,8.4007c-1.1194,1.981 -2.6843,3.8174 -4.3957,5.3725c-2.0005,1.729 -3.9678,3.1454 -6.1539,4.3957c-1.8912,1.0823 -6.0563,2.5398 -6.0563,2.5398" fill="none" stroke="#64a8ff" stroke-width="3.90729" stroke-linecap="round"/><path d="M36.72339,208.50335c0,0 -4.1651,-1.4575 -6.0563,-2.5398c-2.1861,-1.2503 -4.1534,-2.6667 -6.1539,-4.3957c-1.7114,-1.5551 -3.2763,-3.3915 -4.3957,-5.3725c-1.4907,-2.6394 -3.5166,-8.4007 -3.5166,-8.4007" fill="none" stroke="#64a8ff" stroke-width="3.90729" stroke-linecap="round"/><g fill="#ffffff" stroke="none" stroke-width="2.47423" stroke-linecap="butt"><path d="M41.24638,170.07255c2.8711,2.4667 5.4619,6.1001 7.0837,10.3154c1.6219,4.2152 1.9696,8.2194 1.2264,11.2835c-0.7461,3.0646 -2.5892,5.1901 -5.3464,5.6459c-2.7573,0.4557 -5.9177,-0.8428 -8.7918,-3.3089c-2.8711,-2.4667 -5.462,-6.1001 -7.0838,-10.3154c-1.6218,-4.2152 -1.9695,-8.2194 -1.2263,-11.2835c0.7461,-3.0646 2.5891,-5.1901 5.3464,-5.6459c2.7573,-0.4557 5.9177,0.8427 8.7918,3.3089z"/><path d="M54.41939,166.96365c2.7573,0.4558 4.6003,2.5813 5.3464,5.6459c0.7432,3.0641 0.3955,7.0683 -1.2263,11.2835c-1.6218,4.2153 -4.2127,7.8487 -7.0838,10.3154c-2.8741,2.4661 -6.0345,3.7646 -8.7918,3.3089c-2.7572,-0.4558 -4.6003,-2.5813 -5.3464,-5.6459c-0.7432,-3.0641 -0.3955,-7.0683 1.2264,-11.2835c1.6218,-4.2153 4.2126,-7.8487 7.0837,-10.3154c2.8741,-2.4662 6.0345,-3.7646 8.7918,-3.3089z"/></g></g><path d="M41.44369,173.54416c0.0451,0 0.0888,0 0.1339,0c3.2829,2.001 5.0522,3.1069 5.3065,3.3175c-6.3025,8.0282 0,0 -6.3025,8.0282c0,0.0662 0,0.1324 0,0.1986l2.9865,-0.2648c0.0436,-1.825 0.0662,-2.9534 0.0662,-3.3837c0.0436,0 0.0662,-0.0226 0.0662,-0.0677c1.4037,-0.0436 2.4434,-0.0662 3.1174,-0.0662c0.2437,0 0.4874,0 0.7297,0c0.2211,0 0.5536,-0.0211 0.996,-0.0662c0.0225,0.0451 0.0436,0.0888 0.0662,0.1324c-0.0888,1.5707 -0.1324,2.4779 -0.1324,2.7202c-0.0452,0 -0.0662,0.0225 -0.0662,0.0677l0.1324,0.0662c-0.2423,0 2.8947,0 2.654,0c0.0887,0.0105 0.1324,0.0541 0.1324,0.1324c-0.1114,1.5481 -0.2212,3.0963 -0.3325,4.6445c-0.0437,0.021 -0.0873,0.0436 -0.1324,0.0662c-0.9058,0 -1.813,0 -2.7202,0c-0.0437,0.4859 -0.1099,1.8355 -0.1986,4.0471c-0.0888,0.0437 -0.155,0.0662 -0.1986,0.0662c-3.2964,-0.0887 -5.0643,-0.1324 -5.308,-0.1324c-0.0226,-0.0451 -0.0451,-0.0887 -0.0662,-0.1339c0,-1.0832 0,-2.1665 0,-3.2497c-2.1891,0.1098 -4.3797,0.2211 -6.5688,0.331c-1.2382,-3.1505 -1.8581,-4.7664 -1.8581,-4.8431c2.4991,-3.8697 4.9981,-7.7408 7.4971,-11.6105z" fill="#3373ff" stroke="none" stroke-width="0.39808" stroke-linecap="butt"/></g><g stroke="none" stroke-linecap="butt"><path d="M441.94779,290.44097c4.15242,0 7.91471,1.68676 10.63923,4.41128c2.72452,2.7244 4.41116,6.48668 4.41116,10.63911c0,4.1523 -1.68663,7.91472 -4.41116,10.63912c-2.72452,2.72452 -6.48681,4.41128 -10.63923,4.41128c-4.1523,0 -7.91459,-1.68676 -10.63912,-4.41128c-2.72452,-2.7244 -4.41128,-6.48682 -4.41128,-10.63912c0,-4.15242 1.68676,-7.91471 4.41128,-10.63911c2.72452,-2.72452 6.48682,-4.41128 10.63912,-4.41128z" fill="url(#color-14)" stroke-width="0.48028"/><path d="M439.47509,293.89174h5.93709v22.76855h-5.93709z" fill="url(#color-15)" stroke-width="0.59798"/></g><text transform="translate(12.99527,123.78356) scale(0.66931,0.66931)" font-size="22" xml:space="preserve" fill="#a1f3f9" fill-rule="nonzero" stroke="none" stroke-width="1" stroke-linecap="butt" stroke-linejoin="miter" stroke-miterlimit="10" stroke-dasharray="" stroke-dashoffset="0" font-family="&quot;Microsoft YaHei&quot;, &quot;微软雅黑&quot;, STXihei, &quot;华文细黑&quot;" font-weight="400" text-anchor="start" style="mix-blend-mode: normal"><tspan x="0" dy="0">On the top of the screen, you will see various icons</tspan><tspan x="0" dy="26.4px">conveying information.</tspan></text><text transform="translate(83.25447,168.1219) scale(0.66931,0.66931)" font-size="22" xml:space="preserve" fill="#a1f3f9" fill-rule="nonzero" stroke="none" stroke-width="1" stroke-linecap="butt" stroke-linejoin="miter" stroke-miterlimit="10" stroke-dasharray="" stroke-dashoffset="0" font-family="&quot;Microsoft YaHei&quot;, &quot;微软雅黑&quot;, STXihei, &quot;华文细黑&quot;" font-weight="400" text-anchor="start" style="mix-blend-mode: normal"><tspan x="0" dy="0">The health meter, displaying your health.</tspan><tspan x="0" dy="26.4px">If it reaches zero, you will restart from the start</tspan><tspan x="0" dy="26.4px">of the level or a checkpoint.</tspan></text></g></g></svg>