<svg version="1.1" xmlns="http://www.w3.org/2000/svg" xmlns:xlink="http://www.w3.org/1999/xlink" width="498.42169" height="194.11963" viewBox="0,0,498.42169,194.11963"><g transform="translate(9.21085,-176.94019)"><g data-paper-data="{&quot;isPaintingLayer&quot;:true}" fill="#e70000" fill-rule="nonzero" stroke="#660000" stroke-width="2" stroke-linecap="butt" stroke-linejoin="miter" stroke-miterlimit="10" stroke-dasharray="" stroke-dashoffset="0" style="mix-blend-mode: normal"><path d="M403.3081,326.75047l-9.31813,-9.0649l55.78404,-57.34232l9.31813,9.0649z" data-paper-data="{&quot;index&quot;:null}"/><path d="M318.38613,304.65366l4.62152,-12.15078l74.77405,28.44014l-4.62152,12.15078z" data-paper-data="{&quot;index&quot;:null}"/><path d="M269.21856,359.50707l-9.31813,-9.0649l55.78404,-57.34232l9.31813,9.0649z" data-paper-data="{&quot;index&quot;:null}"/><path d="M193.41178,332.31976l4.62152,-12.15078l74.77405,28.44014l-4.62152,12.15078z" data-paper-data="{&quot;index&quot;:null}"/><path d="M65.19169,350.60088l9.31813,9.0649l-0.69398,0.71336c-6.05103,-0.00114 -12.10203,0.0039 -18.15297,0.01674z"/><path d="M67.46107,360.20198l4.62152,-12.15078l32.54724,12.37927c-12.23366,-0.03531 -24.46722,-0.05658 -36.70062,-0.05043z" data-paper-data="{&quot;index&quot;:null}"/><path d="M190.16604,322.9348l9.31813,9.0649l-27.90376,28.68323c-6.02346,-0.02075 -12.04693,-0.04399 -18.0704,-0.06814z" data-paper-data="{&quot;index&quot;:null}"/><path d="M-8.01835,352.36339l478.41743,-105.90922l4.97125,22.45633l-413.21242,91.47452c-20.30327,0.02505 -40.60605,0.13137 -60.90799,0.38002c-2.34075,0.02867 -4.7754,0.4163 -7.16013,1.12135z"/><path d="M483.04708,298.96159l4.97125,22.45633l-219.42294,48.57455c-10.07435,-6.58604 -26.2262,-7.17114 -36.37499,-7.22744c-3.88601,-0.02155 -7.94397,-2.00286 -11.98132,-2c-5.45176,0.00387 -10.90355,0.00217 -16.35537,-0.00391z"/><path d="M478.0115,230.97268l2.57075,-1.6891c0.24632,2.25215 0.50564,4.50373 0.75818,6.75563z" data-paper-data="{&quot;index&quot;:null}"/><path d="M356.00954,229.9727l-7.13857,10.86466l-66.85947,-43.92963l7.13857,-10.86466z" data-paper-data="{&quot;index&quot;:null}"/><path d="M415.87097,187.04305l7.13857,10.86466l-66.85947,43.92963l-7.13857,-10.86466z" data-paper-data="{&quot;index&quot;:null}"/><path d="M476.87097,240.83736l-66.85947,-43.92963l7.13857,-10.86466l63.25097,41.55869c0.23759,2.24273 0.49295,4.48467 0.74655,6.72671z" data-paper-data="{&quot;index&quot;:null}"/><path d="M277.01052,254.94021v-23h203.86714c0.52215,4.63848 1.06645,9.27603 1.46005,13.92035c0.25752,3.03865 0.5283,6.06423 0.81432,9.07965z" data-paper-data="{&quot;index&quot;:null}"/><path d="M277.01052,200.94019v-23h202.0795c-0.31059,7.65678 -0.1055,15.32953 0.04425,23z" data-paper-data="{&quot;index&quot;:null}"/></g></g></svg>