<svg version="1.1" xmlns="http://www.w3.org/2000/svg" xmlns:xlink="http://www.w3.org/1999/xlink" width="614.47133" height="114.85155" viewBox="0,0,614.47133,114.85155"><defs><linearGradient x1="290.53837" y1="246.91894" x2="290.54049" y2="302.91899" gradientUnits="userSpaceOnUse" id="color-1"><stop offset="0" stop-color="#c3e060"/><stop offset="1" stop-color="#6de01b"/></linearGradient><linearGradient x1="176.13652" y1="292.71114" x2="176.89735" y2="348.70603" gradientUnits="userSpaceOnUse" id="color-2"><stop offset="0" stop-color="#c3e060"/><stop offset="1" stop-color="#6de01b"/></linearGradient></defs><g transform="translate(67.249,-247.53117)"><g data-paper-data="{&quot;isPaintingLayer&quot;:true}" fill="none" fill-rule="nonzero" stroke="none" stroke-width="none" stroke-linecap="butt" stroke-linejoin="miter" stroke-miterlimit="10" stroke-dasharray="" stroke-dashoffset="0" font-family="none" font-weight="none" font-size="none" text-anchor="none" style="mix-blend-mode: normal"><g data-paper-data="{&quot;origPos&quot;:null}"><path d="M296.76238,279.74982l249.32328,-8.21282l0.37767,49.82369l-248.32318,0.21279z" data-paper-data="{&quot;origPos&quot;:null,&quot;origRot&quot;:0}" id="ID0.29126935824751854" fill="#c06520" stroke="#763e13" stroke-width="1.50655"/><path d="M332.83056,301.13891c-0.69477,-2.67259 0.90857,-5.40238 3.58115,-6.09716c2.67259,-0.69477 5.40238,0.90857 6.09716,3.58115c0.69477,2.67259 -0.90857,5.40238 -3.58115,6.09716c-2.67259,0.69477 -5.40238,-0.90857 -6.09716,-3.58115z" data-paper-data="{&quot;origPos&quot;:null,&quot;origRot&quot;:0}" fill="#e0bb60" stroke="none" stroke-width="0.5"/><path d="M391.09328,306.65752c-0.69477,-2.67259 0.90857,-5.40238 3.58115,-6.09716c2.67259,-0.69477 5.40238,0.90857 6.09716,3.58115c0.69477,2.67259 -0.90857,5.40238 -3.58115,6.09716c-2.67259,0.69477 -5.40238,-0.90857 -6.09716,-3.58115z" data-paper-data="{&quot;origPos&quot;:null,&quot;origRot&quot;:0}" fill="#e0bb60" stroke="none" stroke-width="0.5"/><path d="M459.20878,302.3821c-0.69477,-2.67259 0.90857,-5.40238 3.58115,-6.09716c2.67259,-0.69477 5.40238,0.90857 6.09716,3.58115c0.69477,2.67259 -0.90857,5.40238 -3.58115,6.09716c-2.67259,0.69477 -5.40238,-0.90857 -6.09716,-3.58115z" data-paper-data="{&quot;origPos&quot;:null,&quot;origRot&quot;:0}" fill="#e0bb60" stroke="none" stroke-width="0.5"/><path d="M533.54003,291.9622l-9.13182,-8.00163l-10.14565,12.99821l-11.16124,-13.002l-9.13112,10.99839l-8.79373,-11.00157l-12.85129,12.99773l-14.53567,-11.00257l-4.38114,11.99929l-14.20497,-10.00252l-11.16042,8.99802l-12.17577,-11.00218l-14.20421,9.99748l-10.16165,-12.00186l-12.15984,11.9979l-14.22012,-12.00258l-14.20428,7.99747l-9.13191,-10.00163l-12.15977,13.9979l-13.19037,-8.98751l-8.1164,11.98372l-14.20505,-10.98768l-0.15936,0.10075c0.07643,-10.19567 -0.28605,-15.45545 -0.20962,-25.65113c0.0225,-3.00297 1.57589,-7.97579 3.53238,-10.25406c1.40967,-1.64152 5.81289,-3.63449 11.47019,-3.59849c16.97189,0.10799 224.82136,0.43063 224.82136,0.43063z" data-paper-data="{&quot;origPos&quot;:null,&quot;origRot&quot;:0}" fill="url(#color-1)" stroke="#0f6600" stroke-width="2"/></g><g><path d="M-25.64595,316.6194l190.48348,-0.70608l0.16678,44.99966l-190.48352,0.70617z" data-paper-data="{&quot;origPos&quot;:null,&quot;origRot&quot;:0}" id="ID0.29126935824751854" fill="#c06520" stroke="#763e13" stroke-width="1.5215"/><path d="M58.85509,350.20605c1.06498,-2.54779 3.99373,-3.74985 6.54152,-2.68486c2.54779,1.06498 3.74985,3.99373 2.68486,6.54152c-1.06498,2.54779 -3.99373,3.74985 -6.54152,2.68486c-2.54779,-1.06498 -3.74985,-3.99373 -2.68486,-6.54152z" data-paper-data="{&quot;origPos&quot;:null,&quot;origRot&quot;:0}" fill="#e0bb60" stroke="none" stroke-width="0.5"/><path d="M107.70717,345.01722c1.06498,-2.54779 3.99373,-3.74985 6.54152,-2.68486c2.54779,1.06498 3.74985,3.99373 2.68486,6.54152c-1.06498,2.54779 -3.99373,3.74985 -6.54152,2.68486c-2.54779,-1.06498 -3.74985,-3.99373 -2.68486,-6.54152z" data-paper-data="{&quot;origPos&quot;:null,&quot;origRot&quot;:0}" fill="#e0bb60" stroke="none" stroke-width="0.5"/><path d="M147.00976,349.52349c1.06498,-2.54779 3.99373,-3.74985 6.54152,-2.68486c2.54779,1.06498 3.74985,3.99373 2.68486,6.54152c-1.06498,2.54779 -3.99373,3.74985 -6.54152,2.68486c-2.54779,-1.06498 -3.74985,-3.99373 -2.68486,-6.54152z" data-paper-data="{&quot;origPos&quot;:null,&quot;origRot&quot;:0}" fill="#e0bb60" stroke="none" stroke-width="0.5"/><path d="M-65.82721,295.94668c0,0 215.56471,-1.55164 227.86099,-1.64c4.09877,-0.02946 8.03533,-0.12852 9.85003,2.26185c2.0161,2.65568 3.03828,6.31739 3.05645,9.31851c0.06819,11.26705 0.07183,11.86763 0.14003,23.13469l-8.90933,13.83466l-6.28496,-13.92466l-11.05106,8.14849l-11.30919,-10.84977l-16.04217,14.21579l-17.42351,-12.7682l-9.99577,11.13467l-13.32466,-9.82272l-14.06746,10.18901l-6.26376,-12.91741l-14.05387,11.18892l-17.38275,-9.76846l-4.88242,14.06655l-22.46894,-10.70053l-7.96674,11.10752l-9.32091,-13.87663l-14.04028,12.18883l-13.33825,-10.82264l-3.90864,11.05327l-12.32372,-10.8362l-6.93862,12.09386z" data-paper-data="{&quot;origPos&quot;:null,&quot;origRot&quot;:0}" fill="url(#color-2)" stroke="#0f6600" stroke-width="2"/></g></g></g></svg>