<svg version="1.1" xmlns="http://www.w3.org/2000/svg" xmlns:xlink="http://www.w3.org/1999/xlink" width="680.67045" height="431.99995" viewBox="0,0,680.67045,431.99995"><defs><linearGradient x1="-83.20218" y1="-34.80329" x2="-83.20218" y2="394.80337" gradientUnits="userSpaceOnUse" id="color-1"><stop offset="0" stop-color="#001966"/><stop offset="1" stop-color="#006666"/></linearGradient><linearGradient x1="209.89063" y1="47.90005" x2="209.89063" y2="195.61637" gradientUnits="userSpaceOnUse" id="color-2"><stop offset="0" stop-color="#edf3f8"/><stop offset="1" stop-color="#cedee9"/></linearGradient><linearGradient x1="229.48879" y1="108.82476" x2="229.48879" y2="129.07977" gradientUnits="userSpaceOnUse" id="color-3"><stop offset="0" stop-color="#ff4040"/><stop offset="1" stop-color="#c33131"/></linearGradient><linearGradient x1="263.40799" y1="148.95869" x2="231.43354" y2="152.30656" gradientUnits="userSpaceOnUse" id="color-4"><stop offset="0" stop-color="#ffffff"/><stop offset="1" stop-color="#ffffff" stop-opacity="0"/></linearGradient><linearGradient x1="196.35616" y1="148.7798" x2="228.37341" y2="151.61155" gradientUnits="userSpaceOnUse" id="color-5"><stop offset="0" stop-color="#979797"/><stop offset="1" stop-color="#979797" stop-opacity="0"/></linearGradient><linearGradient x1="227.97591" y1="187.65586" x2="227.97591" y2="214.0143" gradientUnits="userSpaceOnUse" id="color-6"><stop offset="0" stop-color="#ff4040"/><stop offset="1" stop-color="#c33131"/></linearGradient><linearGradient x1="101.66775" y1="196.442" x2="146.44975" y2="196.442" gradientUnits="userSpaceOnUse" id="color-7"><stop offset="0" stop-color="#c33131"/><stop offset="1" stop-color="#ff4040"/></linearGradient><linearGradient x1="309.12282" y1="196.442" x2="353.90484" y2="196.442" gradientUnits="userSpaceOnUse" id="color-8"><stop offset="0" stop-color="#c33131"/><stop offset="1" stop-color="#ff4040"/></linearGradient><radialGradient cx="229.43233" cy="190.50174" r="27.99828" gradientUnits="userSpaceOnUse" id="color-9"><stop offset="0" stop-color="#65ceff"/><stop offset="1" stop-color="#3f99ff"/></radialGradient><linearGradient x1="110.98743" y1="264.1434" x2="143.12456" y2="264.1434" gradientUnits="userSpaceOnUse" id="color-10"><stop offset="0" stop-color="#d6dde2"/><stop offset="1" stop-color="#d6dde2" stop-opacity="0"/></linearGradient><linearGradient x1="313.54891" y1="264.64439" x2="345.68607" y2="264.64439" gradientUnits="userSpaceOnUse" id="color-11"><stop offset="0" stop-color="#d6dde2"/><stop offset="1" stop-color="#d6dde2" stop-opacity="0"/></linearGradient><linearGradient x1="198.63421" y1="277.16848" x2="230.77137" y2="277.16848" gradientUnits="userSpaceOnUse" id="color-12"><stop offset="0" stop-color="#d6dde2"/><stop offset="1" stop-color="#d6dde2" stop-opacity="0"/></linearGradient><linearGradient x1="260.47391" y1="277.66947" x2="228.33675" y2="277.66947" gradientUnits="userSpaceOnUse" id="color-13"><stop offset="0" stop-color="#ffffff"/><stop offset="1" stop-color="#ffffff" stop-opacity="0"/></linearGradient><linearGradient x1="21.97592" y1="188.59596" x2="21.97592" y2="214.21582" gradientUnits="userSpaceOnUse" id="color-14"><stop offset="0" stop-color="#ff4040"/><stop offset="1" stop-color="#c33131"/></linearGradient><linearGradient x1="-104.33226" y1="197.13589" x2="-59.55025" y2="197.13589" gradientUnits="userSpaceOnUse" id="color-15"><stop offset="0" stop-color="#c33131"/><stop offset="1" stop-color="#ff4040"/></linearGradient><linearGradient x1="-95.01258" y1="262.94023" x2="-62.87543" y2="262.94023" gradientUnits="userSpaceOnUse" id="color-16"><stop offset="0" stop-color="#d6dde2"/><stop offset="1" stop-color="#d6dde2" stop-opacity="0"/></linearGradient><linearGradient x1="442.15906" y1="189.59596" x2="442.15906" y2="215.21582" gradientUnits="userSpaceOnUse" id="color-17"><stop offset="0" stop-color="#ff4040"/><stop offset="1" stop-color="#c33131"/></linearGradient><linearGradient x1="568.46723" y1="198.13589" x2="523.68522" y2="198.13589" gradientUnits="userSpaceOnUse" id="color-18"><stop offset="0" stop-color="#c33131"/><stop offset="1" stop-color="#ff4040"/></linearGradient><linearGradient x1="559.14757" y1="263.94023" x2="527.01042" y2="263.94023" gradientUnits="userSpaceOnUse" id="color-19"><stop offset="0" stop-color="#d6dde2"/><stop offset="1" stop-color="#d6dde2" stop-opacity="0"/></linearGradient><linearGradient x1="229.27659" y1="11.3441" x2="229.27659" y2="50.93483" gradientUnits="userSpaceOnUse" id="color-20"><stop offset="0" stop-color="#ff4040"/><stop offset="1" stop-color="#c33131"/></linearGradient><linearGradient x1="239.00003" y1="308.95062" x2="239.00003" y2="361.00002" gradientUnits="userSpaceOnUse" id="color-21"><stop offset="0" stop-color="#8d5418"/><stop offset="1" stop-color="#c06520"/></linearGradient><linearGradient x1="241.57018" y1="290.76187" x2="241.57018" y2="329.65672" gradientUnits="userSpaceOnUse" id="color-22"><stop offset="0" stop-color="#7fea5b"/><stop offset="1" stop-color="#61b245"/></linearGradient></defs><g transform="translate(104.33227,35.99997)"><g data-paper-data="{&quot;isPaintingLayer&quot;:true}" fill-rule="nonzero" stroke-linejoin="miter" stroke-miterlimit="10" stroke-dasharray="" stroke-dashoffset="0" style="mix-blend-mode: normal"><g><path d="M-83.20218,-34.80329h647.4044v429.6066h-647.4044z" fill="url(#color-1)" stroke="#000000" stroke-width="2.39335" stroke-linecap="butt"/><path d="M4.82339,-6.65329l-0.33812,-0.3" fill="none" stroke="#cccccc" stroke-width="2" stroke-linecap="round"/><path d="M34.1277,50.34671l-0.33812,-0.3" fill="none" stroke="#cccccc" stroke-width="2" stroke-linecap="round"/><path d="M272.73224,38.04672l0.33812,0.3" fill="none" stroke="#cccccc" stroke-width="2" stroke-linecap="round"/><path d="M134.43854,12.34671l-0.33812,-0.3" fill="none" stroke="#cccccc" stroke-width="2" stroke-linecap="round"/><path d="M170.16724,66.04672l0.33812,0.3" fill="none" stroke="#cccccc" stroke-width="2" stroke-linecap="round"/><path d="M242.30089,8.0467l0.33812,0.3" fill="none" stroke="#cccccc" stroke-width="2" stroke-linecap="round"/><path d="M457.91284,20.34669l-0.33812,-0.3" fill="none" stroke="#cccccc" stroke-width="2" stroke-linecap="round"/><path d="M444.38779,85.34672l-0.33812,-0.3" fill="none" stroke="#cccccc" stroke-width="2" stroke-linecap="round"/><path d="M422.97313,126.34674l-0.33812,-0.3" fill="none" stroke="#cccccc" stroke-width="2" stroke-linecap="round"/><path d="M362.89933,111.04673l0.33812,0.3" fill="none" stroke="#cccccc" stroke-width="2" stroke-linecap="round"/><path d="M363.23745,32.34669l-0.33812,-0.3" fill="none" stroke="#cccccc" stroke-width="2" stroke-linecap="round"/><path d="M134.43854,161.34669l-0.33812,-0.3" fill="none" stroke="#cccccc" stroke-width="2" stroke-linecap="round"/><path d="M-15.8023,130.04671l0.33812,0.3" fill="none" stroke="#cccccc" stroke-width="2" stroke-linecap="round"/><path d="M53.28819,120.34673l-0.33812,-0.3" fill="none" stroke="#cccccc" stroke-width="2" stroke-linecap="round"/><path d="M60.38082,159.04678l0.33812,0.3" fill="none" stroke="#cccccc" stroke-width="2" stroke-linecap="round"/><path d="M455.83948,157.34675l-0.33812,-0.3" fill="none" stroke="#cccccc" stroke-width="2" stroke-linecap="round"/><path d="M287.72254,140.34668l-0.33812,-0.3" fill="none" stroke="#cccccc" stroke-width="2" stroke-linecap="round"/><path d="M257.29114,99.34674l-0.33812,-0.3" fill="none" stroke="#cccccc" stroke-width="2" stroke-linecap="round"/><path d="M185.94649,166.04671l0.33812,0.3" fill="none" stroke="#cccccc" stroke-width="2" stroke-linecap="round"/><path d="M102.88007,82.34671l-0.33812,-0.3" fill="none" stroke="#cccccc" stroke-width="2" stroke-linecap="round"/><path d="M364.36455,71.34672l-0.33812,-0.3" fill="none" stroke="#cccccc" stroke-width="2" stroke-linecap="round"/><path d="M308.79909,102.04673l0.33812,0.3" fill="none" stroke="#cccccc" stroke-width="2" stroke-linecap="round"/><g stroke="none" stroke-width="1" stroke-linecap="butt"><path d="M159.05003,30.00003c14.208,0 27.083,4.034 36.406,10.551c9.323,6.517 15.094,15.517 15.094,25.449c0,9.932 -5.771,18.932 -15.094,25.449c-9.323,6.517 -22.198,10.551 -36.406,10.551c-14.208,0 -27.083,-4.034 -36.406,-10.551c-9.323,-6.517 -15.094,-15.517 -15.094,-25.449c0,-9.932 5.771,-18.932 15.094,-25.449c9.323,-6.517 22.198,-10.551 36.406,-10.551z" fill="#718399"/><path d="M223.05003,14.00003c14.208,0 27.083,4.034 36.406,10.551c9.323,6.517 15.094,15.517 15.094,25.449c0,9.932 -5.771,18.932 -15.094,25.449c-9.323,6.517 -22.198,10.551 -36.406,10.551c-14.208,0 -27.083,-4.034 -36.406,-10.551c-9.323,-6.517 -15.094,-15.517 -15.094,-25.449c0,-9.932 5.771,-18.932 15.094,-25.449c9.323,-6.517 22.198,-10.551 36.406,-10.551z" fill="#718399"/><path d="M170.55003,45.50007c1.242,0 2.367,1.093 3.181,2.858c0.815,1.765 1.319,4.202 1.319,6.892c0,2.69 -0.504,5.127 -1.319,6.892c-0.814,1.765 -1.939,2.858 -3.181,2.858c-1.242,0 -2.367,-1.093 -3.181,-2.858c-0.815,-1.765 -1.319,-4.202 -1.319,-6.892c0,-2.69 0.504,-5.127 1.319,-6.892c0.814,-1.765 1.939,-2.858 3.181,-2.858z" fill="#000000"/><path d="M191.55003,45.00007c1.242,0 2.367,1.093 3.181,2.858c0.815,1.765 1.319,4.202 1.319,6.892c0,2.69 -0.504,5.127 -1.319,6.892c-0.814,1.765 -1.939,2.858 -3.181,2.858c-1.242,0 -2.367,-1.093 -3.181,-2.858c-0.815,-1.765 -1.319,-4.202 -1.319,-6.892c0,-2.69 0.504,-5.127 1.319,-6.892c0.814,-1.765 1.939,-2.858 3.181,-2.858z" fill="#000000"/></g><path d="M403.45605,125.55103c9.323,6.517 15.094,15.517 15.094,25.449c0,9.932 -5.771,18.932 -15.094,25.449c-9.323,6.517 -22.198,10.551 -36.406,10.551c-14.208,0 -27.083,-4.034 -36.406,-10.551c-9.323,-6.517 -15.094,-15.517 -15.094,-25.449c0,-9.932 5.771,-18.932 15.094,-25.449c9.323,-6.517 22.198,-10.551 36.406,-10.551c14.208,0 27.083,4.034 36.406,10.551z" fill="#718399" stroke="none" stroke-width="1" stroke-linecap="butt"/><path d="M339.45605,109.55103c9.323,6.517 15.094,15.517 15.094,25.449c0,9.932 -5.771,18.932 -15.094,25.449c-9.323,6.517 -22.198,10.551 -36.406,10.551c-14.208,0 -27.083,-4.034 -36.406,-10.551c-9.323,-6.517 -15.094,-15.517 -15.094,-25.449c0,-9.932 5.771,-18.932 15.094,-25.449c9.323,-6.517 22.198,-10.551 36.406,-10.551c14.208,0 27.083,4.034 36.406,10.551z" fill="#718399" stroke="none" stroke-width="1" stroke-linecap="butt"/><path d="M325.73105,140.35806c0.815,1.765 1.319,4.202 1.319,6.892c0,2.69 -0.504,5.127 -1.319,6.892c-0.814,1.765 -1.939,2.858 -3.181,2.858c-1.242,0 -2.367,-1.093 -3.181,-2.858c-0.815,-1.765 -1.319,-4.202 -1.319,-6.892c0,-2.69 0.504,-5.127 1.319,-6.892c0.814,-1.765 1.939,-2.858 3.181,-2.858c1.242,0 2.367,1.093 3.181,2.858z" fill="#000000" stroke="none" stroke-width="1" stroke-linecap="butt"/><path d="M304.73105,139.85806c0.815,1.765 1.319,4.202 1.319,6.892c0,2.69 -0.504,5.127 -1.319,6.892c-0.814,1.765 -1.939,2.858 -3.181,2.858c-1.242,0 -2.367,-1.093 -3.181,-2.858c-0.815,-1.765 -1.319,-4.202 -1.319,-6.892c0,-2.69 0.504,-5.127 1.319,-6.892c0.814,-1.765 1.939,-2.858 3.181,-2.858c1.242,0 2.367,1.093 3.181,2.858z" fill="#000000" stroke="none" stroke-width="1" stroke-linecap="butt"/><path d="M187.03111,109.00007l0.3726,0.3" fill="none" stroke="#cccccc" stroke-width="2" stroke-linecap="round"/></g><g><path d="M-7.57457,310.34672l-0.33812,-0.3" fill="none" stroke="#cccccc" stroke-width="2" stroke-linecap="round"/><path d="M128.8031,287.34671l-0.33812,-0.3" fill="none" stroke="#cccccc" stroke-width="2" stroke-linecap="round"/><path d="M207.69928,252.34673l-0.33812,-0.3" fill="none" stroke="#cccccc" stroke-width="2" stroke-linecap="round"/><path d="M293.01984,291.04672l0.33812,0.3" fill="none" stroke="#cccccc" stroke-width="2" stroke-linecap="round"/><path d="M378.67857,270.0467l0.33812,0.3" fill="none" stroke="#cccccc" stroke-width="2" stroke-linecap="round"/><path d="M453.4045,278.34673l-0.33812,-0.3" fill="none" stroke="#cccccc" stroke-width="2" stroke-linecap="round"/><path d="M132.97332,241.04673l0.33812,0.3" fill="none" stroke="#cccccc" stroke-width="2" stroke-linecap="round"/><path d="M368.53478,229.04674l0.33812,0.3" fill="none" stroke="#cccccc" stroke-width="2" stroke-linecap="round"/><path d="M209.89063,47.90005h39.3202v147.7163h-39.3202z" data-paper-data="{&quot;origPos&quot;:null}" fill="url(#color-2)" stroke="none" stroke-width="1.11058" stroke-linecap="butt"/><path d="M197.50716,108.82476h63.96327v20.25501h-63.96327z" data-paper-data="{&quot;origPos&quot;:null}" fill="url(#color-3)" stroke="none" stroke-width="1.06271" stroke-linecap="butt"/><g data-paper-data="{&quot;origPos&quot;:null,&quot;origRot&quot;:0}" stroke="none"><path d="M266.78677,186.50239l-73.48271,-0.9159l5.04266,-57.81203l14.56495,-13.94596l35.0489,0.00773l13.38972,13.49474z" data-paper-data="{&quot;origPos&quot;:null}" fill="#ebf2f7" stroke-width="2.16315" stroke-linecap="round"/><path d="M236.37865,202.64368l-8.73637,-88.9292l20.25189,0.21066l13.68367,13.819l6.77523,71.55165z" data-paper-data="{&quot;origPos&quot;:null,&quot;index&quot;:null,&quot;origRot&quot;:0}" fill="url(#color-4)" stroke-width="0" stroke-linecap="butt"/><path d="M192.10936,199.19105l6.00223,-71.24906l14.74242,-14.12383l18.74036,-0.22778l-7.46774,88.43247z" data-paper-data="{&quot;origPos&quot;:null,&quot;origRot&quot;:0}" fill="url(#color-5)" stroke-width="0" stroke-linecap="butt"/></g><path d="M130.37416,202.2994l42.48547,-14.64354h28.70641h57.41284l27.55814,0.97623l41.33724,12.69108l4.59298,12.69112h-208.98266z" data-paper-data="{&quot;origPos&quot;:null}" fill="url(#color-6)" stroke="none" stroke-width="2.16315" stroke-linecap="round"/><path d="M102.22707,214.0143h251.46817v105.43368h-251.46817z" data-paper-data="{&quot;origPos&quot;:null}" fill="#ebf2f7" stroke="none" stroke-width="9.46438" stroke-linecap="butt"/><path d="M101.66775,214.0143l21.81685,-35.14459l22.96516,35.14459z" data-paper-data="{&quot;origPos&quot;:null}" fill="url(#color-7)" stroke="none" stroke-width="2.16315" stroke-linecap="round"/><path d="M309.12282,214.0143l21.81684,-35.14459l22.96517,35.14459z" data-paper-data="{&quot;origPos&quot;:null}" fill="url(#color-8)" stroke="none" stroke-width="2.16315" stroke-linecap="round"/><path d="M209.20637,139.79448h45.93023l14.92732,56.62183h-81.52617z" data-paper-data="{&quot;origPos&quot;:null}" fill="#ff4040" stroke="none" stroke-width="2.16315" stroke-linecap="round"/><path d="M197.89905,176.66178l31.57709,-24.61106l31.57705,24.61106v50.16871h-63.15413z" data-paper-data="{&quot;origPos&quot;:null}" fill="#d6dde2" stroke="none" stroke-width="2.65368" stroke-linecap="round"/><path d="M203.99041,180.48243l25.80711,-18.78616l25.07672,18.78616v38.82472h-50.88383z" data-paper-data="{&quot;origPos&quot;:null}" fill="url(#color-9)" stroke="none" stroke-width="1" stroke-linecap="round"/><path d="M110.98743,314.74082v-101.19476h32.13715v101.19476z" data-paper-data="{&quot;origPos&quot;:null}" fill="url(#color-10)" stroke="none" stroke-width="0" stroke-linecap="butt"/><path d="M313.54891,315.2418v-101.19476h32.13715v101.19476z" data-paper-data="{&quot;origPos&quot;:null}" fill="url(#color-11)" stroke="none" stroke-width="0" stroke-linecap="butt"/><path d="M198.63421,327.76589v-101.19476h32.13716v101.19476z" data-paper-data="{&quot;origPos&quot;:null}" fill="url(#color-12)" stroke="none" stroke-width="0" stroke-linecap="butt"/><path d="M228.33675,328.26688v-101.19476h32.13715v101.19476z" data-paper-data="{&quot;origPos&quot;:null,&quot;index&quot;:null}" fill="url(#color-13)" stroke="none" stroke-width="0" stroke-linecap="butt"/><g data-paper-data="{&quot;origPos&quot;:null}" fill="#99ffff" stroke="#84c3c3" stroke-width="2" stroke-linecap="butt"><path d="M114.88284,241.85054h7.79082v8.01542h-7.79082z"/><path d="M125.35176,241.85054h7.79082v8.01542h-7.79082z"/><path d="M125.1083,252.87175h7.79082v8.01543h-7.79082z"/><path d="M114.88284,252.87175h7.79082v8.01543h-7.79082z"/></g><g data-paper-data="{&quot;origPos&quot;:null}" fill="#99ffff" stroke="#84c3c3" stroke-width="2" stroke-linecap="butt"><path d="M323.28744,240.34766h7.79082v8.01543h-7.79082z"/><path d="M333.75633,240.34766h7.79082v8.01543h-7.79082z"/><path d="M333.5129,251.36889h7.79082v8.01542h-7.79082z"/><path d="M323.28744,251.36889h7.79082v8.01542h-7.79082z"/></g><g data-paper-data="{&quot;origPos&quot;:null}" stroke="none" stroke-linecap="butt"><path d="M309.16657,230.2805h13.63394v95.18319h-13.63394z" data-paper-data="{&quot;origPos&quot;:null}" fill="#aa5e35" stroke-width="2.07153"/><path d="M315.98354,212.79465c5.37372,0 10.24299,2.24533 13.76882,5.87281c3.52583,3.62748 5.70824,8.63712 5.70824,14.16576c0,5.52864 -2.18241,10.53829 -5.70824,14.16576c-3.52583,3.62748 -8.39511,5.8728 -13.76882,5.8728c-5.37372,0 -10.24299,-2.24532 -13.76882,-5.8728c-3.52583,-3.62748 -5.70824,-8.63712 -5.70824,-14.16576c0,-5.52864 2.18241,-10.53829 5.70824,-14.16576c3.52583,-3.62748 8.3951,-5.8728 13.76882,-5.8728z" data-paper-data="{&quot;origPos&quot;:null}" fill="#3abc3a" stroke-width="1"/><path d="M315.98354,193.75801c4.43298,0 8.45013,1.85256 11.35903,4.84533c2.9089,2.99276 4.70955,7.12572 4.70955,11.6865c0,4.56078 -1.80065,8.69373 -4.70955,11.68649c-2.9089,2.99276 -6.92605,4.84533 -11.35903,4.84533c-4.43298,0 -8.45012,-1.85257 -11.35902,-4.84533c-2.9089,-2.99276 -4.70956,-7.12571 -4.70956,-11.68649c0,-4.56078 1.80066,-8.69374 4.70956,-11.6865c2.9089,-2.99276 6.92604,-4.84533 11.35902,-4.84533z" data-paper-data="{&quot;origPos&quot;:null}" fill="#3ec73d" stroke-width="1"/><path d="M316.22701,180.73296c2.61966,0 4.99344,1.09461 6.71229,2.86301c1.71885,1.76841 2.78278,4.2106 2.78278,6.90579c0,2.69519 -1.06394,5.13739 -2.78278,6.9058c-1.71885,1.76841 -4.09262,2.863 -6.71229,2.863c-2.61966,0 -4.99344,-1.0946 -6.71229,-2.863c-1.71885,-1.76841 -2.78278,-4.21061 -2.78278,-6.9058c0,-2.69519 1.06394,-5.13738 2.78278,-6.90579c1.71885,-1.76841 4.09262,-2.86301 6.71229,-2.86301z" data-paper-data="{&quot;origPos&quot;:null}" fill="#42d642" stroke-width="1"/></g><g data-paper-data="{&quot;origPos&quot;:null}" stroke="none" stroke-linecap="butt"><path d="M133.38605,230.59085h13.63395v97.18706h-13.63395z" data-paper-data="{&quot;origPos&quot;:null}" fill="#aa5e35" stroke-width="2.1101"/><path d="M140.203,213.54608c5.37372,0 10.24299,2.24532 13.76883,5.8728c3.52584,3.62748 5.70824,8.63712 5.70824,14.16576c0,5.52864 -2.1824,10.53829 -5.70824,14.16576c-3.52584,3.62748 -8.39511,5.87281 -13.76883,5.87281c-5.37372,0 -10.24299,-2.24533 -13.76882,-5.8728c-3.52584,-3.62748 -5.70824,-8.63712 -5.70824,-14.16576c0,-5.52864 2.1824,-10.53829 5.70824,-14.16576c3.52584,-3.62748 8.39511,-5.8728 13.76882,-5.8728z" data-paper-data="{&quot;origPos&quot;:null}" fill="#3abc3a" stroke-width="1"/><path d="M140.203,194.50946c4.43298,0 8.45013,1.85256 11.35903,4.84532c2.9089,2.99276 4.70955,7.12571 4.70955,11.68649c0,4.56078 -1.80065,8.69373 -4.70955,11.68649c-2.9089,2.99276 -6.92605,4.84533 -11.35903,4.84533c-4.43298,0 -8.45012,-1.85256 -11.35902,-4.84533c-2.9089,-2.99276 -4.70956,-7.12571 -4.70956,-11.68649c0,-4.56078 1.80066,-8.69373 4.70956,-11.68649c2.9089,-2.99276 6.92604,-4.84532 11.35902,-4.84532z" data-paper-data="{&quot;origPos&quot;:null}" fill="#3ec73d" stroke-width="1"/><path d="M140.44646,181.48439c2.61966,0 4.99344,1.09461 6.71229,2.86301c1.71885,1.76841 2.78279,4.2106 2.78279,6.90579c0,2.69519 -1.06394,5.13739 -2.78279,6.90579c-1.71885,1.76841 -4.09262,2.86301 -6.71229,2.86301c-2.61966,0 -4.99343,-1.09461 -6.71228,-2.86301c-1.71885,-1.76841 -2.78278,-4.21061 -2.78278,-6.90579c0,-2.69519 1.06393,-5.13738 2.78278,-6.90579c1.71885,-1.76841 4.09261,-2.86301 6.71228,-2.86301z" data-paper-data="{&quot;origPos&quot;:null}" fill="#42d642" stroke-width="1"/></g><g data-paper-data="{&quot;origPos&quot;:null}" fill="#99ffff" stroke="#84c3c3" stroke-width="2" stroke-linecap="butt"><path d="M163.57548,254.37468h7.79082v8.01542h-7.79082z"/><path d="M174.04441,254.37468h7.79083v8.01542h-7.79083z"/><path d="M173.80095,265.39583h7.79082v8.01542h-7.79082z"/><path d="M163.57548,265.39583h7.79082v8.01542h-7.79082z"/></g><g data-paper-data="{&quot;origPos&quot;:null}" fill="#99ffff" stroke="#84c3c3" stroke-width="2" stroke-linecap="butt"><path d="M265.58664,255.62704h7.79082v8.01542h-7.79082z"/><path d="M276.05555,255.62704h7.79082v8.01542h-7.79082z"/><path d="M275.81208,266.64824h7.79083v8.01542h-7.79083z"/><path d="M265.58664,266.64824h7.79082v8.01542h-7.79082z"/></g><g data-paper-data="{&quot;origPos&quot;:null}" fill="#99ffff" stroke="#84c3c3" stroke-width="2" stroke-linecap="butt"><path d="M163.57548,224.81776h7.79082v8.01542h-7.79082z"/><path d="M174.04441,224.81776h7.79083v8.01542h-7.79083z"/><path d="M173.80095,235.83897h7.79082v8.01542h-7.79082z"/><path d="M163.57548,235.83897h7.79082v8.01542h-7.79082z"/></g><g data-paper-data="{&quot;origPos&quot;:null}" fill="#99ffff" stroke="#84c3c3" stroke-width="2" stroke-linecap="butt"><path d="M265.58664,226.07017h7.79082v8.01543h-7.79082z"/><path d="M276.05555,226.07017h7.79082v8.01543h-7.79082z"/><path d="M275.81208,237.0914h7.79083v8.01542h-7.79083z"/><path d="M265.58664,237.0914h7.79082v8.01542h-7.79082z"/></g><g data-paper-data="{&quot;origPos&quot;:null}" stroke="none" stroke-width="0" stroke-linecap="butt"><g data-paper-data="{&quot;origPos&quot;:null}"><path d="M217.93561,107.88404c0,0.88523 0.06116,1.27711 -2.34313,1.25239c-2.07239,-0.0213 -2.29579,-0.16517 -2.34313,-1.09079c-0.03078,-0.60185 1.07519,-1.09079 2.34313,-1.09079c1.26793,0 2.34313,0.32676 2.34313,0.92919z" data-paper-data="{&quot;origPos&quot;:null}" fill="#83684e"/><path d="M218.21844,107.25787c0,0.92595 -0.01255,1.59579 -2.62598,1.59579c-2.73463,0 -2.58558,-0.71023 -2.58558,-1.63619c0,-0.92595 1.22454,-1.71699 2.58558,-1.71699c1.36104,0 2.62598,0.83143 2.62598,1.75739z" data-paper-data="{&quot;origPos&quot;:null}" fill="#443629"/></g><path d="M218.29739,102.55927c0.1842,0.94157 -0.83618,1.75739 -1.38417,1.91042c-1.26245,0.35255 -0.7905,-0.95759 -0.97469,-1.89917c-0.1842,-0.94157 -0.93117,-2.41887 -0.7955,-2.90502c0.37265,-1.33537 2.97017,1.9522 3.15437,2.89378z" data-paper-data="{&quot;origRot&quot;:0,&quot;origPos&quot;:null,&quot;index&quot;:null}" fill="#ffdfc0"/><g><path d="M216.54008,103.70092c0,1.96347 -1.89015,3.55517 -4.22177,3.55517c-2.33162,0 -4.22177,-1.59171 -4.22177,-3.55517c0,-1.30871 0.38484,-2.29144 1.21651,-3.3019c0.86169,-1.04693 1.60892,-1.34406 2.96486,-1.34406c0,0 1.96342,-0.09986 2.85546,1.01214c0.78764,0.98186 1.4067,1.67036 1.4067,3.63383z" data-paper-data="{&quot;origPos&quot;:null}" fill="#ffdfc0"/><path d="M216.52164,103.72292c-0.16862,1.95621 -1.89015,3.55517 -4.22177,3.55517c-2.33162,0 -4.27613,-1.47953 -4.22177,-3.55517c-0.0404,-0.41992 0.28732,-0.91832 0.28732,-0.91832c0,0 2.61891,0.02953 3.97485,0.02953l4.14825,-0.03825c0,0 0.07351,0.45837 0.03311,0.92705z" data-paper-data="{&quot;origPos&quot;:null}" fill="#c0c4cc"/></g><g data-paper-data="{&quot;origPos&quot;:null}"><path d="M211.44971,107.8621c0,0.88523 0.06116,1.27711 -2.34313,1.25239c-2.07239,-0.0213 -2.29579,-0.16517 -2.34313,-1.09079c-0.03078,-0.60185 1.07519,-1.09079 2.34313,-1.09079c1.26793,0 2.34313,0.32676 2.34313,0.92919z" data-paper-data="{&quot;origPos&quot;:null}" fill="#83684e"/><path d="M211.73251,107.23593c0,0.92595 -0.01255,1.59579 -2.62598,1.59579c-2.73463,0 -2.58558,-0.71023 -2.58558,-1.63619c0,-0.92595 1.22454,-1.71699 2.58558,-1.71699c1.36104,0 2.62598,0.83143 2.62598,1.75739z" data-paper-data="{&quot;origPos&quot;:null}" fill="#443629"/></g><g><path d="M214.51432,99.59643c0.8772,0 2.17111,1.36383 2.17111,2.74718c0,1.38335 0.14897,2.42398 0.14897,2.42398c0,0 -1.92038,0.35815 -2.361,0.14199c-0.86718,-0.42542 -0.50097,-1.37491 -0.50097,-2.40437c0,-1.38335 -0.3353,-2.90878 0.54189,-2.90878z" data-paper-data="{&quot;index&quot;:null,&quot;origPos&quot;:null}" fill="#c774f9"/><path d="M213.61124,105.3389l-0.0404,-6.18115h1.05039l-0.06963,5.30938l2.33366,-0.02368l-0.00164,0.93586z" data-paper-data="{&quot;index&quot;:null,&quot;origPos&quot;:null}" fill="#ffffff"/></g><g data-paper-data="{&quot;origPos&quot;:null}"><path d="M210.60134,102.64487c0,1.02946 0.27468,1.85775 -0.66276,2.28317c-0.47631,0.21616 -2.46822,-0.26319 -2.46822,-0.26319c0,0 -0.0202,-0.71743 -0.0202,-2.10078c0,-1.38335 1.61711,-2.82798 2.56538,-2.82798c0.94827,0 0.58579,1.52543 0.58579,2.90878z" data-paper-data="{&quot;origPos&quot;:null}" fill="#c774f9"/><path d="M207.49055,105.35734l-0.12284,-0.89546l2.57606,-0.01672l-0.06963,-5.30938h1.05039l-0.0404,6.18115z" data-paper-data="{&quot;origPos&quot;:null}" fill="#ffffff"/></g><path d="M205.78227,102.28769c0.35287,-0.89217 3.50653,-3.65073 3.62933,-2.26979c0.04471,0.50274 -0.95923,1.81899 -1.3121,2.71116c-0.35287,0.89217 -0.12784,2.26643 -1.30479,1.68949c-0.51088,-0.25043 -1.36531,-1.23869 -1.01244,-2.13086z" data-paper-data="{&quot;origRot&quot;:0,&quot;origPos&quot;:null,&quot;index&quot;:null}" fill="#ffdfc0"/><g data-paper-data="{&quot;origPos&quot;:null}"><path d="M220.82788,89.98925c-0.04872,2.58789 -0.41983,3.69166 -2.96658,4.15385c-1.95004,0.35389 -7.60544,0.33549 -9.58703,0.36998c-4.33124,0.0754 -5.84327,-0.72787 -5.91867,-4.44843c-0.02949,-1.4554 0.27434,-2.87407 1.37215,-3.83005c2.57177,-2.23953 4.87004,-2.5033 8.16558,-2.5033c4.93442,0 9.02592,1.40496 8.93455,6.25796z" data-paper-data="{&quot;origPos&quot;:null}" fill="#c0c4cc"/><path d="M217.2088,89.18973c0,2.05686 -1.5528,3.72428 -3.46827,3.72428c-1.91547,0 -3.46827,-1.66742 -3.46827,-3.72428c0,-2.05686 1.5528,-3.72428 3.46827,-3.72428c1.91547,0 3.46827,1.66742 3.46827,3.72428z" data-paper-data="{&quot;origPos&quot;:null}" fill="#9357b9"/><path d="M202.1676,91.44045c-0.06035,-0.89492 -0.18006,-1.15534 0.2463,-2.85515c0.02567,-0.67966 0.62818,-1.5743 0.62818,-1.5743c0,0 1.9266,0.21124 2.64354,0.82223c0.84127,0.71695 0.96009,1.77532 1.03666,2.87799c0.08052,1.15952 -0.068,1.91398 -0.79872,2.90668c-0.35389,0.48078 -0.47144,0.54097 -0.47144,0.54097c0,0 -1.41006,0.20019 -2.04909,-0.17965c-0.75659,-0.5913 -0.992,-1.01993 -1.23544,-2.53877z" data-paper-data="{&quot;origPos&quot;:null,&quot;origRot&quot;:0}" fill="#9357b9"/><path d="M220.25232,87.28885c0,0 0.63298,0.22481 0.65762,2.78832c0.0216,2.24711 -0.71538,3.00133 -0.71538,3.00133c0,0 -1.36741,-0.22813 -1.38901,-3.05394c-0.0196,-2.56355 1.44677,-2.73571 1.44677,-2.73571z" data-paper-data="{&quot;origPos&quot;:null}" fill="#9357b9"/></g><path d="M216.71529,96.52184c-0.0937,2.39525 -1.88511,3.49855 -4.3403,3.49855c-2.45519,0 -4.76889,-0.8404 -4.8664,-3.2355c-0.05261,-1.29228 -0.18413,-2.60418 -0.18413,-2.60418c0,0 3.54278,-0.51478 4.76647,-0.47386c2.37028,0.07926 4.65308,0.72918 4.65308,0.72918c0,0 0.02389,0.74093 -0.02871,2.08582z" data-paper-data="{&quot;origPos&quot;:null}" fill="#ffdfc0"/><path d="M215.22202,94.3809c0,0 -0.67035,-0.09682 -1.20371,0.15042c-0.53336,0.24724 -0.99208,0.93537 -0.99208,0.93537c0,0 0.20806,-0.91157 0.87848,-1.22234c0.67042,-0.31077 1.31732,0.13655 1.31732,0.13655z" data-paper-data="{&quot;origPos&quot;:null,&quot;origRot&quot;:0,&quot;index&quot;:null}" fill="#000000"/><path d="M214.48134,95.77199c0,0.66828 -0.16388,1.19791 -0.63132,1.21002c-0.5157,0.01337 -0.63132,-0.54175 -0.63132,-1.21002c0,-0.66828 0.13975,-1.21002 0.63132,-1.21002c0.49157,0 0.63132,0.54175 0.63132,1.21002z" data-paper-data="{&quot;origPos&quot;:null}" fill="#000000"/><path d="M214.27644,95.25833c0,0.22285 -0.09862,0.39947 -0.37991,0.40351c-0.31034,0.00446 -0.37991,-0.18066 -0.37991,-0.40351c0,-0.22285 0.0841,-0.40351 0.37991,-0.40351c0.29581,0 0.37991,0.18066 0.37991,0.40351z" data-paper-data="{&quot;origPos&quot;:null}" fill="#aaaaaa"/><path d="M212.34871,95.81161c0,0.66828 -0.16388,1.19791 -0.63132,1.21002c-0.5157,0.01337 -0.63132,-0.54175 -0.63132,-1.21002c0,-0.66828 0.13975,-1.21002 0.63132,-1.21002c0.49157,0 0.63132,0.54175 0.63132,1.21002z" data-paper-data="{&quot;origPos&quot;:null}" fill="#000000"/><path d="M212.10866,95.2679c0,0.22285 -0.09862,0.39947 -0.37991,0.40351c-0.31034,0.00446 -0.37991,-0.18066 -0.37991,-0.40351c0,-0.22285 0.0841,-0.40351 0.37991,-0.40351c0.29581,0 0.37991,0.18066 0.37991,0.40351z" data-paper-data="{&quot;origPos&quot;:null}" fill="#aaaaaa"/><path d="M210.33596,94.38922c0,0 0.64689,-0.44733 1.31732,-0.13655c0.67042,0.31077 0.87848,1.22234 0.87848,1.22234c0,0 -0.45872,-0.68813 -0.99208,-0.93536c-0.53336,-0.24724 -1.20371,-0.15042 -1.20371,-0.15042z" data-paper-data="{&quot;origPos&quot;:null,&quot;origRot&quot;:0,&quot;index&quot;:null}" fill="#000000"/><path d="M210.01225,97.50722c0,0 0.39727,0.54857 0.9461,0.75925c0.54883,0.21068 1.36214,0.0608 1.36214,0.0608c0,0 -0.79916,0.48537 -1.48903,0.22056c-0.68987,-0.26482 -0.81921,-1.0406 -0.81921,-1.0406z" data-paper-data="{&quot;origPos&quot;:null,&quot;origRot&quot;:0,&quot;index&quot;:null}" fill="#000000"/></g><g data-paper-data="{&quot;origPos&quot;:null,&quot;index&quot;:null}" stroke="none" stroke-width="0" stroke-linecap="butt"><g data-paper-data="{&quot;origPos&quot;:null}"><path d="M239.32975,107.63404c0,-0.60242 1.0752,-0.92919 2.34313,-0.92919c1.26793,0 2.37391,0.48894 2.34313,1.0908c-0.04734,0.92562 -0.27074,1.06949 -2.34313,1.09079c-2.40428,0.02472 -2.34313,-0.36716 -2.34313,-1.25239z" data-paper-data="{&quot;origPos&quot;:null}" fill="#83684e"/><path d="M241.67293,105.25051c1.36104,0 2.58558,0.79103 2.58558,1.71698c0,0.92596 0.14905,1.63619 -2.58558,1.63619c-2.61343,0 -2.62598,-0.66984 -2.62598,-1.59579c0,-0.92596 1.26494,-1.75738 2.62598,-1.75738z" data-paper-data="{&quot;origPos&quot;:null}" fill="#443629"/></g><path d="M242.12235,99.41547c0.13567,0.48615 -0.6113,1.96345 -0.7955,2.90502c-0.18419,0.94158 0.28776,2.25172 -0.97469,1.89917c-0.54799,-0.15303 -1.56838,-0.96884 -1.38417,-1.91042c0.18419,-0.94158 2.78172,-4.22915 3.15437,-2.89378z" data-paper-data="{&quot;origRot&quot;:0,&quot;origPos&quot;:null,&quot;index&quot;:null}" fill="#ffdfc0"/><g><path d="M240.72526,103.45092c0,-1.96347 0.61906,-2.65197 1.4067,-3.63383c0.89204,-1.112 2.85547,-1.01214 2.85547,-1.01214c1.35594,0 2.10316,0.29713 2.96486,1.34406c0.83167,1.01046 1.21651,1.9932 1.21651,3.30191c0,1.96347 -1.89015,3.55517 -4.22177,3.55517c-2.33162,0 -4.22177,-1.59171 -4.22177,-3.55517z" data-paper-data="{&quot;origPos&quot;:null}" fill="#ffdfc0"/><path d="M240.77684,102.54584l4.14825,0.03825c1.35594,0 3.97485,-0.02953 3.97485,-0.02953c0,0 0.32772,0.4984 0.28732,0.91832c0.05436,2.07564 -1.89015,3.55518 -4.22177,3.55518c-2.33162,0 -4.05315,-1.59897 -4.22177,-3.55518c-0.0404,-0.46868 0.03312,-0.92704 0.03312,-0.92704z" data-paper-data="{&quot;origPos&quot;:null}" fill="#c0c4cc"/></g><g data-paper-data="{&quot;origPos&quot;:null}"><path d="M245.81566,107.6121c0,-0.60242 1.0752,-0.92919 2.34313,-0.92919c1.26793,0 2.3739,0.48894 2.34312,1.0908c-0.04734,0.92562 -0.27073,1.06949 -2.34312,1.09079c-2.40428,0.02472 -2.34313,-0.36716 -2.34313,-1.25239z" data-paper-data="{&quot;origPos&quot;:null}" fill="#83684e"/><path d="M248.15882,105.2285c1.36104,0 2.58558,0.79103 2.58558,1.71699c0,0.92596 0.14905,1.63618 -2.58558,1.63618c-2.61343,0 -2.62598,-0.66983 -2.62598,-1.59578c0,-0.92596 1.26494,-1.75739 2.62598,-1.75739z" data-paper-data="{&quot;origPos&quot;:null}" fill="#443629"/></g><g><path d="M243.29292,102.2552c0,1.02946 0.36621,1.97894 -0.50097,2.40437c-0.44062,0.21616 -2.361,-0.14198 -2.361,-0.14198c0,0 0.14897,-1.04063 0.14897,-2.42399c0,-1.38335 1.29391,-2.74718 2.1711,-2.74718c0.8772,0 0.5419,1.52542 0.5419,2.90878z" data-paper-data="{&quot;index&quot;:null,&quot;origPos&quot;:null}" fill="#5242ad"/><path d="M240.38176,105.12929l-0.00164,-0.93586l2.33366,0.02369l-0.06964,-5.30938h1.05039l-0.0404,6.18116z" data-paper-data="{&quot;index&quot;:null,&quot;origPos&quot;:null}" fill="#ffef45"/></g><g data-paper-data="{&quot;origPos&quot;:null}"><path d="M246.66402,102.39487c0,-1.38335 -0.36247,-2.90878 0.58579,-2.90878c0.94826,0 2.56538,1.44463 2.56538,2.82798c0,1.38335 -0.0202,2.10078 -0.0202,2.10078c0,0 -1.99191,0.47935 -2.46822,0.26319c-0.93744,-0.42543 -0.66276,-1.25371 -0.66276,-2.28317z" data-paper-data="{&quot;origPos&quot;:null}" fill="#5242ad"/><path d="M246.38124,105.06695l-0.0404,-6.18116h1.05039l-0.06963,5.30938l2.57606,0.01672l-0.12285,0.89545z" data-paper-data="{&quot;origPos&quot;:null}" fill="#ffef45"/></g><path d="M251.48312,102.03769c0.35287,0.89217 -0.50157,1.88044 -1.01245,2.13087c-1.17695,0.57694 -0.95192,-0.79732 -1.30479,-1.68949c-0.35287,-0.89217 -1.3568,-2.20842 -1.31209,-2.71116c0.12279,-1.38094 3.27646,1.37762 3.62933,2.26979z" data-paper-data="{&quot;origRot&quot;:0,&quot;origPos&quot;:null,&quot;index&quot;:null}" fill="#ffdfc0"/><g data-paper-data="{&quot;origPos&quot;:null}"><path d="M245.37203,83.48128c3.29555,0 5.59382,0.26377 8.16558,2.5033c1.0978,0.95598 1.40165,2.37465 1.37215,3.83005c-0.07539,3.72056 -1.58743,4.52383 -5.91868,4.44843c-1.98159,-0.0345 -7.63699,-0.01609 -9.58703,-0.36998c-2.54675,-0.46219 -2.91786,-1.56596 -2.96658,-4.15385c-0.09136,-4.853 4.00013,-6.25796 8.93455,-6.25796z" data-paper-data="{&quot;origPos&quot;:null}" fill="#c0c4cc"/><path d="M243.52483,85.21543c1.91547,0 3.46827,1.66742 3.46827,3.72428c0,2.05686 -1.5528,3.72428 -3.46827,3.72428c-1.91547,0 -3.46827,-1.66741 -3.46827,-3.72428c0,-2.05686 1.5528,-3.72428 3.46827,-3.72428z" data-paper-data="{&quot;origPos&quot;:null}" fill="#13a300"/><path d="M255.09776,91.19045c-0.24344,1.51884 -0.47885,1.94746 -1.23544,2.53876c-0.63904,0.37985 -2.04909,0.17965 -2.04909,0.17965c0,0 -0.11755,-0.06019 -0.47144,-0.54097c-0.73072,-0.99271 -0.87923,-1.74716 -0.79871,-2.90668c0.07657,-1.10267 0.1954,-2.16105 1.03666,-2.87799c0.71694,-0.61099 2.64354,-0.82223 2.64354,-0.82223c0,0 0.60251,0.89464 0.62817,1.57431c0.42636,1.69981 0.30666,1.96023 0.2463,2.85515z" data-paper-data="{&quot;origPos&quot;:null,&quot;origRot&quot;:0}" fill="#13a300"/><path d="M238.45979,89.77454c-0.0216,2.82582 -1.38901,3.05394 -1.38901,3.05394c0,0 -0.73698,-0.75422 -0.71538,-3.00133c0.02464,-2.56351 0.65762,-2.78831 0.65762,-2.78831c0,0 1.46636,0.17215 1.44676,2.7357z" data-paper-data="{&quot;origPos&quot;:null}" fill="#13a300"/></g><path d="M240.52137,94.18606c0,0 2.2828,-0.64992 4.65308,-0.72917c1.22369,-0.04091 4.76647,0.47386 4.76647,0.47386c0,0 -0.13153,1.3119 -0.18413,2.60418c-0.09751,2.3951 -2.4112,3.2355 -4.8664,3.2355c-2.4552,0 -4.2466,-1.1033 -4.3403,-3.49855c-0.05261,-1.34489 -0.02872,-2.08582 -0.02872,-2.08582z" data-paper-data="{&quot;origPos&quot;:null}" fill="#ffdfc0"/><path d="M242.04332,94.1309c0,0 0.6469,-0.44733 1.31732,-0.13655c0.67042,0.31078 0.87848,1.22234 0.87848,1.22234c0,0 -0.45872,-0.68812 -0.99208,-0.93536c-0.53336,-0.24724 -1.20371,-0.15042 -1.20371,-0.15042z" data-paper-data="{&quot;origPos&quot;:null,&quot;origRot&quot;:0,&quot;index&quot;:null}" fill="#000000"/><path d="M243.41535,94.31196c0.49157,0 0.63132,0.54175 0.63132,1.21003c0,0.66827 -0.11561,1.22339 -0.63132,1.21002c-0.46744,-0.01211 -0.63132,-0.54175 -0.63132,-1.21002c0,-0.66827 0.13975,-1.21003 0.63132,-1.21003z" data-paper-data="{&quot;origPos&quot;:null}" fill="#000000"/><path d="M243.36885,94.60485c0.29582,0 0.37991,0.18066 0.37991,0.40351c0,0.22285 -0.06957,0.40797 -0.37991,0.40351c-0.2813,-0.00404 -0.37991,-0.18066 -0.37991,-0.40351c0,-0.22285 0.0841,-0.40351 0.37991,-0.40351z" data-paper-data="{&quot;origPos&quot;:null}" fill="#aaaaaa"/><path d="M245.54802,94.35162c0.49157,0 0.63132,0.54175 0.63132,1.21002c0,0.66827 -0.11561,1.22339 -0.63132,1.21003c-0.46744,-0.01211 -0.63132,-0.54175 -0.63132,-1.21003c0,-0.66827 0.13975,-1.21002 0.63132,-1.21002z" data-paper-data="{&quot;origPos&quot;:null}" fill="#000000"/><path d="M245.53661,94.61443c0.29582,0 0.37991,0.18066 0.37991,0.40351c0,0.22285 -0.06957,0.40797 -0.37991,0.40351c-0.2813,-0.00404 -0.37991,-0.18066 -0.37991,-0.40351c0,-0.22285 0.0841,-0.40351 0.37991,-0.40351z" data-paper-data="{&quot;origPos&quot;:null}" fill="#aaaaaa"/><path d="M246.92938,94.13922c0,0 -0.67036,-0.09682 -1.20371,0.15042c-0.53336,0.24724 -0.99207,0.93537 -0.99207,0.93537c0,0 0.20806,-0.91157 0.87848,-1.22235c0.67042,-0.31078 1.31731,0.13656 1.31731,0.13656z" data-paper-data="{&quot;origPos&quot;:null,&quot;origRot&quot;:0,&quot;index&quot;:null}" fill="#000000"/><path d="M247.25311,97.25722c0,0 -0.12935,0.77579 -0.81922,1.0406c-0.68987,0.26481 -1.48902,-0.22056 -1.48902,-0.22056c0,0 0.81331,0.14988 1.36214,-0.0608c0.54883,-0.21068 0.9461,-0.75925 0.9461,-0.75925z" data-paper-data="{&quot;origPos&quot;:null,&quot;origRot&quot;:0,&quot;index&quot;:null}" fill="#000000"/></g><path d="M-75.62585,202.82913l42.48547,-14.2332h28.70641h57.41284l27.55814,0.94888l41.33724,12.33545l4.59298,12.3355h-208.98266z" data-paper-data="{&quot;origPos&quot;:null}" fill="url(#color-14)" stroke="none" stroke-width="2.16315" stroke-linecap="round"/><path d="M-103.77293,214.21582h214.46817v102.47931h-214.46817z" data-paper-data="{&quot;origPos&quot;:null}" fill="#ebf2f7" stroke="none" stroke-width="9.46438" stroke-linecap="butt"/><path d="M-104.33226,214.21582l21.81685,-34.1598l22.96516,34.1598z" data-paper-data="{&quot;origPos&quot;:null}" fill="url(#color-15)" stroke="none" stroke-width="2.16315" stroke-linecap="round"/><path d="M-95.01258,312.11985v-98.35917h32.13715v98.35917z" data-paper-data="{&quot;origPos&quot;:null}" fill="url(#color-16)" stroke="none" stroke-width="0" stroke-linecap="butt"/><g data-paper-data="{&quot;origPos&quot;:null}" fill="#99ffff" stroke="#84c3c3" stroke-width="2" stroke-linecap="butt"><path d="M-91.11718,241.27206h7.79083v7.79083h-7.79083z"/><path d="M-80.64826,241.27206h7.79082v7.79083h-7.79082z"/><path d="M-80.89172,251.98441h7.79083v7.79083h-7.79083z"/><path d="M-91.11718,251.98441h7.79083v7.79083h-7.79083z"/></g><g data-paper-data="{&quot;origPos&quot;:null}" stroke="none" stroke-linecap="butt"><path d="M10.16654,231.0262h13.63394v92.51605h-13.63394z" data-paper-data="{&quot;origPos&quot;:null}" fill="#aa5e35" stroke-width="2.07153"/><path d="M16.98353,214.03032c5.37372,0 10.24299,2.1824 13.76882,5.70824c3.52583,3.52584 5.70824,8.39511 5.70824,13.76882c0,5.37372 -2.18241,10.24299 -5.70824,13.76883c-3.52583,3.52584 -8.39511,5.70824 -13.76882,5.70824c-5.37372,0 -10.24299,-2.1824 -13.76882,-5.70824c-3.52583,-3.52584 -5.70824,-8.39511 -5.70824,-13.76883c0,-5.37372 2.18241,-10.24299 5.70824,-13.76882c3.52583,-3.52584 8.3951,-5.70824 13.76882,-5.70824z" data-paper-data="{&quot;origPos&quot;:null}" fill="#3abc3a" stroke-width="1"/><path d="M16.98353,195.5271c4.43298,0 8.45013,1.80066 11.35903,4.70955c2.9089,2.9089 4.70955,6.92605 4.70955,11.35903c0,4.43298 -1.80065,8.45012 -4.70955,11.35902c-2.9089,2.9089 -6.92605,4.70955 -11.35903,4.70955c-4.43298,0 -8.45012,-1.80066 -11.35902,-4.70955c-2.9089,-2.9089 -4.70956,-6.92604 -4.70956,-11.35902c0,-4.43298 1.80066,-8.45013 4.70956,-11.35903c2.9089,-2.9089 6.92604,-4.70955 11.35902,-4.70955z" data-paper-data="{&quot;origPos&quot;:null}" fill="#3ec73d" stroke-width="1"/><path d="M17.22699,182.867c2.61966,0 4.99344,1.06394 6.71229,2.78279c1.71885,1.71885 2.78278,4.09261 2.78278,6.71228c0,2.61966 -1.06394,4.99344 -2.78278,6.71229c-1.71885,1.71885 -4.09262,2.78278 -6.71229,2.78278c-2.61966,0 -4.99344,-1.06393 -6.71229,-2.78278c-1.71885,-1.71885 -2.78278,-4.09262 -2.78278,-6.71229c0,-2.61966 1.06394,-4.99343 2.78278,-6.71228c1.71885,-1.71885 4.09262,-2.78279 6.71229,-2.78279z" data-paper-data="{&quot;origPos&quot;:null}" fill="#42d642" stroke-width="1"/></g><g data-paper-data="{&quot;origPos&quot;:null}" fill="#99ffff" stroke="#84c3c3" stroke-width="2" stroke-linecap="butt"><path d="M-42.42451,253.44519h7.79082v7.79083h-7.79082z"/><path d="M-31.95559,253.44519h7.79083v7.79083h-7.79083z"/><path d="M-32.19905,264.15756h7.79082v7.79082h-7.79082z"/><path d="M-42.42451,264.15756h7.79082v7.79082h-7.79082z"/></g><g data-paper-data="{&quot;origPos&quot;:null}" fill="#99ffff" stroke="#84c3c3" stroke-width="2" stroke-linecap="butt"><path d="M59.58661,254.6625h7.79082v7.79082h-7.79082z"/><path d="M70.05554,254.6625h7.79082v7.79082h-7.79082z"/><path d="M69.81207,265.37487h7.79083v7.79083h-7.79083z"/><path d="M59.58661,265.37487h7.79082v7.79083h-7.79082z"/></g><g data-paper-data="{&quot;origPos&quot;:null}" fill="#99ffff" stroke="#84c3c3" stroke-width="2" stroke-linecap="butt"><path d="M-42.42451,224.71654h7.79082v7.79082h-7.79082z"/><path d="M-31.95559,224.71654h7.79083v7.79082h-7.79083z"/><path d="M-32.19905,235.42894h7.79082v7.79083h-7.79082z"/><path d="M-42.42451,235.42894h7.79082v7.79083h-7.79082z"/></g><g data-paper-data="{&quot;origPos&quot;:null}" fill="#99ffff" stroke="#84c3c3" stroke-width="2" stroke-linecap="butt"><path d="M59.58661,225.93385h7.79082v7.79083h-7.79082z"/><path d="M70.05554,225.93385h7.79082v7.79083h-7.79082z"/><path d="M69.81207,236.64625h7.79083v7.79082h-7.79083z"/><path d="M59.58661,236.64625h7.79082v7.79082h-7.79082z"/></g><g data-paper-data="{&quot;origPos&quot;:null}" stroke="none" stroke-linecap="butt"><path d="M73.16655,232.0262h13.63394v92.51605h-13.63394z" data-paper-data="{&quot;origPos&quot;:null}" fill="#aa5e35" stroke-width="2.07153"/><path d="M79.9835,215.03032c5.37372,0 10.24299,2.1824 13.76882,5.70824c3.52583,3.52584 5.70824,8.39511 5.70824,13.76882c0,5.37372 -2.18241,10.24299 -5.70824,13.76883c-3.52583,3.52584 -8.39511,5.70824 -13.76882,5.70824c-5.37372,0 -10.24299,-2.1824 -13.76882,-5.70824c-3.52583,-3.52584 -5.70824,-8.39511 -5.70824,-13.76883c0,-5.37372 2.18241,-10.24299 5.70824,-13.76882c3.52583,-3.52584 8.3951,-5.70824 13.76882,-5.70824z" data-paper-data="{&quot;origPos&quot;:null}" fill="#3abc3a" stroke-width="1"/><path d="M79.9835,196.5271c4.43298,0 8.45013,1.80066 11.35903,4.70955c2.9089,2.9089 4.70955,6.92605 4.70955,11.35903c0,4.43298 -1.80065,8.45012 -4.70955,11.35902c-2.9089,2.9089 -6.92605,4.70955 -11.35903,4.70955c-4.43298,0 -8.45012,-1.80066 -11.35902,-4.70955c-2.9089,-2.9089 -4.70956,-6.92604 -4.70956,-11.35902c0,-4.43298 1.80066,-8.45013 4.70956,-11.35903c2.9089,-2.9089 6.92604,-4.70955 11.35902,-4.70955z" data-paper-data="{&quot;origPos&quot;:null}" fill="#3ec73d" stroke-width="1"/><path d="M80.22699,183.867c2.61966,0 4.99344,1.06394 6.71229,2.78279c1.71885,1.71885 2.78278,4.09261 2.78278,6.71228c0,2.61966 -1.06394,4.99344 -2.78278,6.71229c-1.71885,1.71885 -4.09262,2.78278 -6.71229,2.78278c-2.61966,0 -4.99344,-1.06393 -6.71229,-2.78278c-1.71885,-1.71885 -2.78278,-4.09262 -2.78278,-6.71229c0,-2.61966 1.06394,-4.99343 2.78278,-6.71228c1.71885,-1.71885 4.09262,-2.78279 6.71229,-2.78279z" data-paper-data="{&quot;origPos&quot;:null}" fill="#42d642" stroke-width="1"/></g><path d="M546.65041,215.21582h-208.98266l4.59298,-12.3355l41.33724,-12.33545l27.55814,-0.94888h57.41284h28.70641l42.48547,14.2332z" data-paper-data="{&quot;origPos&quot;:null}" fill="url(#color-17)" stroke="none" stroke-width="2.16315" stroke-linecap="round"/><path d="M567.90791,317.69507h-214.46817v-102.47931h214.46817z" data-paper-data="{&quot;origPos&quot;:null}" fill="#ebf2f7" stroke="none" stroke-width="9.46438" stroke-linecap="butt"/><path d="M523.68522,215.21582l22.96516,-34.1598l21.81685,34.1598z" data-paper-data="{&quot;origPos&quot;:null}" fill="url(#color-18)" stroke="none" stroke-width="2.16315" stroke-linecap="round"/><path d="M527.01042,313.11985v-98.35917h32.13715v98.35917z" data-paper-data="{&quot;origPos&quot;:null}" fill="url(#color-19)" stroke="none" stroke-width="0" stroke-linecap="butt"/><g data-paper-data="{&quot;origPos&quot;:null}" fill="#99ffff" stroke="#84c3c3" stroke-width="2" stroke-linecap="butt"><path d="M555.25213,250.06289h-7.79083v-7.79083h7.79083z"/><path d="M544.7832,250.06289h-7.79082v-7.79083h7.79082z"/><path d="M545.02672,260.77522h-7.79083v-7.79083h7.79083z"/><path d="M555.25213,260.77522h-7.79083v-7.79083h7.79083z"/></g><g data-paper-data="{&quot;origPos&quot;:null}" stroke="none" stroke-linecap="butt"><path d="M453.96844,324.54222h-13.63394v-92.51605h13.63394z" data-paper-data="{&quot;origPos&quot;:null}" fill="#aa5e35" stroke-width="2.07153"/><path d="M460.92028,220.73856c3.52583,3.52583 5.70824,8.3951 5.70824,13.76882c0,5.37372 -2.18241,10.24299 -5.70824,13.76883c-3.52583,3.52584 -8.3951,5.70824 -13.76882,5.70824c-5.37371,0 -10.24299,-2.1824 -13.76882,-5.70824c-3.52583,-3.52584 -5.70824,-8.39511 -5.70824,-13.76883c0,-5.37371 2.18241,-10.24298 5.70824,-13.76882c3.52583,-3.52584 8.3951,-5.70824 13.76882,-5.70824c5.37372,0 10.24299,2.1824 13.76882,5.70824z" data-paper-data="{&quot;origPos&quot;:null}" fill="#3abc3a" stroke-width="1"/><path d="M458.51049,201.23668c2.9089,2.9089 4.70956,6.92605 4.70956,11.35903c0,4.43298 -1.80066,8.45012 -4.70956,11.35902c-2.9089,2.90889 -6.92604,4.70955 -11.35902,4.70955c-4.43298,0 -8.45013,-1.80065 -11.35903,-4.70955c-2.9089,-2.9089 -4.70955,-6.92604 -4.70955,-11.35902c0,-4.43298 1.80065,-8.45013 4.70955,-11.35903c2.9089,-2.90889 6.92605,-4.70955 11.35903,-4.70955c4.43298,0 8.45012,1.80065 11.35902,4.70955z" data-paper-data="{&quot;origPos&quot;:null}" fill="#3ec73d" stroke-width="1"/><path d="M453.62028,186.64978c1.71884,1.71885 2.78278,4.09262 2.78278,6.71228c0,2.61967 -1.06393,4.99344 -2.78278,6.71229c-1.71885,1.71885 -4.09263,2.78278 -6.71229,2.78278c-2.61967,0 -4.99344,-1.06393 -6.71229,-2.78278c-1.71884,-1.71885 -2.78278,-4.09263 -2.78278,-6.71229c0,-2.61967 1.06393,-4.99343 2.78278,-6.71228c1.71885,-1.71885 4.09263,-2.78279 6.71229,-2.78279c2.61967,0 4.99344,1.06394 6.71229,2.78279z" data-paper-data="{&quot;origPos&quot;:null}" fill="#42d642" stroke-width="1"/></g><g data-paper-data="{&quot;origPos&quot;:null}" fill="#99ffff" stroke="#84c3c3" stroke-width="2" stroke-linecap="butt"><path d="M506.55949,262.236h-7.79082v-7.79083h7.79082z"/><path d="M496.09057,262.236h-7.79083v-7.79083h7.79083z"/><path d="M496.33401,272.94838h-7.79082v-7.79082h7.79082z"/><path d="M506.55949,272.94838h-7.79082v-7.79082h7.79082z"/></g><g data-paper-data="{&quot;origPos&quot;:null}" fill="#99ffff" stroke="#84c3c3" stroke-width="2" stroke-linecap="butt"><path d="M404.54837,263.45331h-7.79082v-7.79082h7.79082z"/><path d="M394.07945,263.45331h-7.79082v-7.79082h7.79082z"/><path d="M394.32291,274.16571h-7.79083v-7.79083h7.79083z"/><path d="M404.54837,274.16571h-7.79082v-7.79083h7.79082z"/></g><g data-paper-data="{&quot;origPos&quot;:null}" fill="#99ffff" stroke="#84c3c3" stroke-width="2" stroke-linecap="butt"><path d="M506.55949,233.50738h-7.79082v-7.79082h7.79082z"/><path d="M496.09057,233.50738h-7.79083v-7.79082h7.79083z"/><path d="M496.33401,244.21977h-7.79082v-7.79083h7.79082z"/><path d="M506.55949,244.21977h-7.79082v-7.79083h7.79082z"/></g><g data-paper-data="{&quot;origPos&quot;:null}" fill="#99ffff" stroke="#84c3c3" stroke-width="2" stroke-linecap="butt"><path d="M404.54837,234.72469h-7.79082v-7.79083h7.79082z"/><path d="M394.07945,234.72469h-7.79082v-7.79083h7.79082z"/><path d="M394.32291,245.43708h-7.79083v-7.79082h7.79083z"/><path d="M404.54837,245.43708h-7.79082v-7.79082h7.79082z"/></g><g data-paper-data="{&quot;origPos&quot;:null}" stroke="none" stroke-linecap="butt"><path d="M390.96842,325.54222h-13.63394v-92.51605h13.63394z" data-paper-data="{&quot;origPos&quot;:null}" fill="#aa5e35" stroke-width="2.07153"/><path d="M397.9203,221.73856c3.52583,3.52583 5.70824,8.3951 5.70824,13.76882c0,5.37372 -2.18241,10.24299 -5.70824,13.76883c-3.52583,3.52584 -8.3951,5.70824 -13.76882,5.70824c-5.37371,0 -10.24299,-2.1824 -13.76882,-5.70824c-3.52583,-3.52584 -5.70824,-8.39511 -5.70824,-13.76883c0,-5.37371 2.18241,-10.24298 5.70824,-13.76882c3.52583,-3.52584 8.3951,-5.70824 13.76882,-5.70824c5.37372,0 10.24299,2.1824 13.76882,5.70824z" data-paper-data="{&quot;origPos&quot;:null}" fill="#3abc3a" stroke-width="1"/><path d="M395.5105,202.23668c2.9089,2.9089 4.70956,6.92605 4.70956,11.35903c0,4.43298 -1.80066,8.45012 -4.70956,11.35902c-2.9089,2.90889 -6.92604,4.70955 -11.35902,4.70955c-4.43298,0 -8.45013,-1.80065 -11.35903,-4.70955c-2.9089,-2.9089 -4.70955,-6.92604 -4.70955,-11.35902c0,-4.43298 1.80065,-8.45013 4.70955,-11.35903c2.9089,-2.90889 6.92605,-4.70955 11.35903,-4.70955c4.43298,0 8.45012,1.80065 11.35902,4.70955z" data-paper-data="{&quot;origPos&quot;:null}" fill="#3ec73d" stroke-width="1"/><path d="M390.62028,187.64978c1.71884,1.71885 2.78278,4.09262 2.78278,6.71228c0,2.61967 -1.06393,4.99344 -2.78278,6.71229c-1.71885,1.71885 -4.09263,2.78278 -6.71229,2.78278c-2.61967,0 -4.99344,-1.06393 -6.71229,-2.78278c-1.71884,-1.71885 -2.78278,-4.09263 -2.78278,-6.71229c0,-2.61967 1.06393,-4.99343 2.78278,-6.71228c1.71885,-1.71885 4.09263,-2.78279 6.71229,-2.78279c2.61967,0 4.99344,1.06394 6.71229,2.78279z" data-paper-data="{&quot;origPos&quot;:null}" fill="#42d642" stroke-width="1"/></g><path d="M207.83157,50.93483l20.8951,-39.59073l21.99494,39.59073z" data-paper-data="{&quot;origPos&quot;:null}" fill="url(#color-20)" stroke="none" stroke-width="1.06271" stroke-linecap="round"/><path d="M213.76687,232.84431h31.10982v14.54485h-31.10982z" data-paper-data="{&quot;origPos&quot;:null}" fill="#c95206" stroke="none" stroke-width="1" stroke-linecap="butt"/><path d="M203.50003,245.66093h52.77438v49.38174h-52.77438z" data-paper-data="{&quot;origPos&quot;:null}" fill="#c95206" stroke="none" stroke-width="1" stroke-linecap="butt"/><path d="M203.50003,245.75517l10.55488,-13.00511v13.00511z" data-paper-data="{&quot;origPos&quot;:null}" fill="#c95206" stroke="none" stroke-width="1" stroke-linecap="round"/><path d="M244.58864,232.93855l11.77999,12.81663h-11.77999z" data-paper-data="{&quot;origPos&quot;:null}" fill="#c95206" stroke="none" stroke-width="1" stroke-linecap="round"/><g data-paper-data="{&quot;origPos&quot;:null}" fill="#dd7821" stroke="none" stroke-width="1" stroke-linecap="butt"><path d="M214.15855,237.51859c0.45499,0 0.86739,0.18472 1.16594,0.48327c0.29855,0.29855 0.48326,0.71094 0.48326,1.16593c0,0.45499 -0.18471,0.86739 -0.48326,1.16594c-0.29855,0.29855 -0.71095,0.48326 -1.16594,0.48326c-0.45499,0 -0.86738,-0.18471 -1.16593,-0.48326c-0.29855,-0.29855 -0.48326,-0.71095 -0.48326,-1.16594c0,-0.45499 0.18471,-0.86739 0.48326,-1.16593c0.29855,-0.29855 0.71094,-0.48327 1.16593,-0.48327z" data-paper-data="{&quot;origPos&quot;:null}"/><path d="M224.11665,234.06943c0.45499,0 0.86738,0.18471 1.16593,0.48326c0.29855,0.29855 0.48327,0.71095 0.48327,1.16594c0,0.45499 -0.18472,0.86739 -0.48327,1.16593c-0.29855,0.29855 -0.71094,0.48326 -1.16593,0.48326c-0.45499,0 -0.86738,-0.18471 -1.16593,-0.48326c-0.29855,-0.29855 -0.48327,-0.71094 -0.48327,-1.16593c0,-0.45499 0.18472,-0.86739 0.48327,-1.16594c0.29855,-0.29855 0.71094,-0.48326 1.16593,-0.48326z" data-paper-data="{&quot;origPos&quot;:null}"/><g data-paper-data="{&quot;origPos&quot;:null}"><path d="M224.20455,246.06497c0.45499,0 0.86738,0.18471 1.16593,0.48326c0.29855,0.29855 0.48327,0.71094 0.48327,1.16593c0,0.45499 -0.18472,0.86739 -0.48327,1.16594c-0.29855,0.29855 -0.71094,0.48326 -1.16593,0.48326c-0.45499,0 -0.86738,-0.18471 -1.16593,-0.48326c-0.29855,-0.29855 -0.48327,-0.71095 -0.48327,-1.16594c0,-0.45499 0.18472,-0.86739 0.48327,-1.16593c0.29855,-0.29855 0.71094,-0.48326 1.16593,-0.48326z" data-paper-data="{&quot;origPos&quot;:null}"/><path d="M224.17933,257.54097c0.45499,0 0.86739,0.18472 1.16594,0.48327c0.29855,0.29855 0.48326,0.71094 0.48326,1.16593c0,0.45499 -0.18471,0.86739 -0.48326,1.16594c-0.29855,0.29855 -0.71095,0.48326 -1.16594,0.48326c-0.45499,0 -0.86738,-0.18471 -1.16593,-0.48326c-0.29855,-0.29855 -0.48327,-0.71095 -0.48327,-1.16594c0,-0.45499 0.18472,-0.86739 0.48327,-1.16593c0.29855,-0.29855 0.71094,-0.48327 1.16593,-0.48327z" data-paper-data="{&quot;origPos&quot;:null}"/><path d="M224.00784,269.03238c0.45499,0 0.86739,0.18472 1.16594,0.48327c0.29855,0.29855 0.48326,0.71094 0.48326,1.16593c0,0.45499 -0.18471,0.86739 -0.48326,1.16593c-0.29855,0.29855 -0.71095,0.48327 -1.16594,0.48327c-0.45499,0 -0.86739,-0.18472 -1.16594,-0.48327c-0.29855,-0.29855 -0.48326,-0.71094 -0.48326,-1.16593c0,-0.45499 0.18471,-0.86739 0.48326,-1.16593c0.29855,-0.29855 0.71095,-0.48327 1.16594,-0.48327z" data-paper-data="{&quot;origPos&quot;:null}"/><path d="M224.0193,280.02369c0.45499,0 0.86739,0.18471 1.16594,0.48326c0.29855,0.29855 0.48326,0.71095 0.48326,1.16594c0,0.45499 -0.18471,0.86739 -0.48326,1.16593c-0.29855,0.29855 -0.71095,0.48327 -1.16594,0.48327c-0.45499,0 -0.86738,-0.18472 -1.16593,-0.48327c-0.29855,-0.29855 -0.48326,-0.71094 -0.48326,-1.16593c0,-0.45499 0.18471,-0.86739 0.48326,-1.16594c0.29855,-0.29855 0.71094,-0.48326 1.16593,-0.48326z" data-paper-data="{&quot;origPos&quot;:null}"/><path d="M223.98692,290.55681c0.45499,0 0.86739,0.18471 1.16594,0.48326c0.29855,0.29855 0.48326,0.71095 0.48326,1.16594c0,0.45499 -0.18471,0.86739 -0.48326,1.16594c-0.29855,0.29855 -0.71095,0.48326 -1.16594,0.48326c-0.45499,0 -0.86738,-0.18471 -1.16593,-0.48326c-0.29855,-0.29855 -0.48326,-0.71095 -0.48326,-1.16594c0,-0.45499 0.18471,-0.86739 0.48326,-1.16594c0.29855,-0.29855 0.71094,-0.48326 1.16593,-0.48326z" data-paper-data="{&quot;origPos&quot;:null}"/></g><g data-paper-data="{&quot;origPos&quot;:null}"><path d="M207.31809,245.99045c0.45499,0 0.86738,0.18471 1.16593,0.48326c0.29855,0.29855 0.48326,0.71095 0.48326,1.16594c0,0.45499 -0.18471,0.86739 -0.48326,1.16593c-0.29855,0.29855 -0.71094,0.48326 -1.16593,0.48326c-0.45499,0 -0.86739,-0.18471 -1.16594,-0.48326c-0.29855,-0.29855 -0.48326,-0.71094 -0.48326,-1.16593c0,-0.45499 0.18471,-0.86739 0.48326,-1.16594c0.29855,-0.29855 0.71095,-0.48326 1.16594,-0.48326z" data-paper-data="{&quot;origPos&quot;:null}"/><path d="M207.29285,257.46647c0.45499,0 0.86738,0.18471 1.16593,0.48326c0.29855,0.29855 0.48326,0.71095 0.48326,1.16594c0,0.45499 -0.18471,0.86739 -0.48326,1.16594c-0.29855,0.29855 -0.71094,0.48326 -1.16593,0.48326c-0.45499,0 -0.86739,-0.18471 -1.16594,-0.48326c-0.29855,-0.29855 -0.48326,-0.71095 -0.48326,-1.16594c0,-0.45499 0.18471,-0.86739 0.48326,-1.16594c0.29855,-0.29855 0.71095,-0.48326 1.16594,-0.48326z" data-paper-data="{&quot;origPos&quot;:null}"/><path d="M207.12136,268.95788c0.45499,0 0.86738,0.18471 1.16593,0.48326c0.29855,0.29855 0.48327,0.71095 0.48327,1.16594c0,0.45499 -0.18472,0.86739 -0.48327,1.16594c-0.29855,0.29855 -0.71094,0.48326 -1.16593,0.48326c-0.45499,0 -0.86738,-0.18471 -1.16593,-0.48326c-0.29855,-0.29855 -0.48327,-0.71095 -0.48327,-1.16594c0,-0.45499 0.18472,-0.86739 0.48327,-1.16594c0.29855,-0.29855 0.71094,-0.48326 1.16593,-0.48326z" data-paper-data="{&quot;origPos&quot;:null}"/><path d="M207.13282,279.94918c0.45499,0 0.86739,0.18472 1.16594,0.48327c0.29855,0.29855 0.48326,0.71094 0.48326,1.16593c0,0.45499 -0.18471,0.86739 -0.48326,1.16593c-0.29855,0.29855 -0.71095,0.48327 -1.16594,0.48327c-0.45499,0 -0.86738,-0.18472 -1.16593,-0.48327c-0.29855,-0.29855 -0.48326,-0.71094 -0.48326,-1.16593c0,-0.45499 0.18471,-0.86739 0.48326,-1.16593c0.29855,-0.29855 0.71094,-0.48327 1.16593,-0.48327z" data-paper-data="{&quot;origPos&quot;:null}"/><path d="M207.10044,290.48232c0.45499,0 0.86739,0.18472 1.16594,0.48327c0.29855,0.29855 0.48326,0.71094 0.48326,1.16593c0,0.45499 -0.18471,0.86739 -0.48326,1.16593c-0.29855,0.29855 -0.71095,0.48327 -1.16594,0.48327c-0.45499,0 -0.86739,-0.18472 -1.16594,-0.48327c-0.29855,-0.29855 -0.48326,-0.71094 -0.48326,-1.16593c0,-0.45499 0.18471,-0.86739 0.48326,-1.16593c0.29855,-0.29855 0.71095,-0.48327 1.16594,-0.48327z" data-paper-data="{&quot;origPos&quot;:null}"/></g><path d="M215.85488,290.48143c0.45499,0 0.86738,0.18472 1.16593,0.48327c0.29855,0.29855 0.48327,0.71094 0.48327,1.16593c0,0.45499 -0.18472,0.86739 -0.48327,1.16594c-0.29855,0.29855 -0.71094,0.48326 -1.16593,0.48326c-0.45499,0 -0.86739,-0.18471 -1.16594,-0.48326c-0.29855,-0.29855 -0.48326,-0.71095 -0.48326,-1.16594c0,-0.45499 0.18471,-0.86739 0.48326,-1.16593c0.29855,-0.29855 0.71095,-0.48327 1.16594,-0.48327z" data-paper-data="{&quot;origPos&quot;:null}"/></g><g data-paper-data="{&quot;index&quot;:null,&quot;origPos&quot;:null}" fill="#dd7821" stroke="none" stroke-width="1" stroke-linecap="butt"><path d="M246.58434,238.00186c0.29855,0.29855 0.48326,0.71094 0.48326,1.16593c0,0.45499 -0.18471,0.86739 -0.48326,1.16594c-0.29855,0.29855 -0.71094,0.48326 -1.16593,0.48326c-0.45499,0 -0.86739,-0.18471 -1.16594,-0.48326c-0.29855,-0.29855 -0.48326,-0.71095 -0.48326,-1.16594c0,-0.45499 0.18471,-0.86739 0.48326,-1.16593c0.29855,-0.29855 0.71095,-0.48327 1.16594,-0.48327c0.45499,0 0.86738,0.18472 1.16593,0.48327z" data-paper-data="{&quot;origPos&quot;:null}"/><path d="M236.62624,234.55268c0.29855,0.29855 0.48327,0.71095 0.48327,1.16594c0,0.45499 -0.18472,0.86739 -0.48327,1.16593c-0.29855,0.29855 -0.71094,0.48326 -1.16593,0.48326c-0.45499,0 -0.86738,-0.18471 -1.16593,-0.48326c-0.29855,-0.29855 -0.48327,-0.71094 -0.48327,-1.16593c0,-0.45499 0.18472,-0.86739 0.48327,-1.16594c0.29855,-0.29855 0.71094,-0.48326 1.16593,-0.48326c0.45499,0 0.86738,0.18471 1.16593,0.48326z" data-paper-data="{&quot;origPos&quot;:null}"/><g data-paper-data="{&quot;origPos&quot;:null}"><path d="M236.53837,246.54824c0.29855,0.29855 0.48327,0.71094 0.48327,1.16593c0,0.45499 -0.18472,0.86739 -0.48327,1.16594c-0.29855,0.29855 -0.71094,0.48326 -1.16593,0.48326c-0.45499,0 -0.86738,-0.18471 -1.16593,-0.48326c-0.29855,-0.29855 -0.48327,-0.71095 -0.48327,-1.16594c0,-0.45499 0.18472,-0.86739 0.48327,-1.16593c0.29855,-0.29855 0.71094,-0.48326 1.16593,-0.48326c0.45499,0 0.86738,0.18471 1.16593,0.48326z" data-paper-data="{&quot;origPos&quot;:null}"/><path d="M236.56356,258.02422c0.29855,0.29855 0.48327,0.71094 0.48327,1.16593c0,0.45499 -0.18472,0.86739 -0.48327,1.16594c-0.29855,0.29855 -0.71094,0.48326 -1.16593,0.48326c-0.45499,0 -0.86739,-0.18471 -1.16594,-0.48326c-0.29855,-0.29855 -0.48326,-0.71095 -0.48326,-1.16594c0,-0.45499 0.18471,-0.86739 0.48326,-1.16593c0.29855,-0.29855 0.71095,-0.48327 1.16594,-0.48327c0.45499,0 0.86738,0.18472 1.16593,0.48327z" data-paper-data="{&quot;origPos&quot;:null}"/><path d="M236.73507,269.51565c0.29855,0.29855 0.48327,0.71094 0.48327,1.16593c0,0.45499 -0.18472,0.86739 -0.48327,1.16593c-0.29855,0.29855 -0.71094,0.48327 -1.16593,0.48327c-0.45499,0 -0.86738,-0.18472 -1.16593,-0.48327c-0.29855,-0.29855 -0.48327,-0.71094 -0.48327,-1.16593c0,-0.45499 0.18472,-0.86739 0.48327,-1.16593c0.29855,-0.29855 0.71094,-0.48327 1.16593,-0.48327c0.45499,0 0.86738,0.18472 1.16593,0.48327z" data-paper-data="{&quot;origPos&quot;:null}"/><path d="M236.72362,280.50694c0.29855,0.29855 0.48326,0.71095 0.48326,1.16594c0,0.45499 -0.18471,0.86739 -0.48326,1.16593c-0.29855,0.29855 -0.71095,0.48326 -1.16594,0.48326c-0.45499,0 -0.86738,-0.18471 -1.16593,-0.48326c-0.29855,-0.29855 -0.48326,-0.71094 -0.48326,-1.16593c0,-0.45499 0.18471,-0.86739 0.48326,-1.16594c0.29855,-0.29855 0.71094,-0.48326 1.16593,-0.48326c0.45499,0 0.86739,0.18471 1.16594,0.48326z" data-paper-data="{&quot;origPos&quot;:null}"/><path d="M236.75597,291.04008c0.29855,0.29855 0.48327,0.71095 0.48327,1.16594c0,0.45499 -0.18472,0.86739 -0.48327,1.16594c-0.29855,0.29855 -0.71094,0.48326 -1.16593,0.48326c-0.45499,0 -0.86739,-0.18471 -1.16594,-0.48326c-0.29855,-0.29855 -0.48326,-0.71095 -0.48326,-1.16594c0,-0.45499 0.18471,-0.86739 0.48326,-1.16594c0.29855,-0.29855 0.71095,-0.48326 1.16594,-0.48326c0.45499,0 0.86738,0.18471 1.16593,0.48326z" data-paper-data="{&quot;origPos&quot;:null}"/></g><g data-paper-data="{&quot;origPos&quot;:null}"><path d="M253.42485,246.47374c0.29855,0.29855 0.48326,0.71094 0.48326,1.16593c0,0.45499 -0.18471,0.86739 -0.48326,1.16594c-0.29855,0.29855 -0.71095,0.48326 -1.16594,0.48326c-0.45499,0 -0.86738,-0.18471 -1.16593,-0.48326c-0.29855,-0.29855 -0.48326,-0.71095 -0.48326,-1.16594c0,-0.45499 0.18471,-0.86739 0.48326,-1.16593c0.29855,-0.29855 0.71094,-0.48327 1.16593,-0.48327c0.45499,0 0.86739,0.18472 1.16594,0.48327z" data-paper-data="{&quot;origPos&quot;:null}"/><path d="M253.45007,257.94972c0.29855,0.29855 0.48326,0.71095 0.48326,1.16594c0,0.45499 -0.18471,0.86739 -0.48326,1.16594c-0.29855,0.29855 -0.71095,0.48326 -1.16594,0.48326c-0.45499,0 -0.86738,-0.18471 -1.16593,-0.48326c-0.29855,-0.29855 -0.48326,-0.71095 -0.48326,-1.16594c0,-0.45499 0.18471,-0.86739 0.48326,-1.16594c0.29855,-0.29855 0.71094,-0.48326 1.16593,-0.48326c0.45499,0 0.86739,0.18471 1.16594,0.48326z" data-paper-data="{&quot;origPos&quot;:null}"/><path d="M253.62154,269.44113c0.29855,0.29855 0.48327,0.71095 0.48327,1.16594c0,0.45499 -0.18472,0.86739 -0.48327,1.16594c-0.29855,0.29855 -0.71094,0.48326 -1.16593,0.48326c-0.45499,0 -0.86738,-0.18471 -1.16593,-0.48326c-0.29855,-0.29855 -0.48327,-0.71095 -0.48327,-1.16594c0,-0.45499 0.18472,-0.86739 0.48327,-1.16594c0.29855,-0.29855 0.71094,-0.48326 1.16593,-0.48326c0.45499,0 0.86738,0.18471 1.16593,0.48326z" data-paper-data="{&quot;origPos&quot;:null}"/><path d="M253.6101,280.43244c0.29855,0.29855 0.48327,0.71095 0.48327,1.16594c0,0.45499 -0.18472,0.86739 -0.48327,1.16593c-0.29855,0.29855 -0.71094,0.48326 -1.16593,0.48326c-0.45499,0 -0.86739,-0.18471 -1.16594,-0.48326c-0.29855,-0.29855 -0.48326,-0.71094 -0.48326,-1.16593c0,-0.45499 0.18471,-0.86739 0.48326,-1.16594c0.29855,-0.29855 0.71095,-0.48326 1.16594,-0.48326c0.45499,0 0.86738,0.18471 1.16593,0.48326z" data-paper-data="{&quot;origPos&quot;:null}"/><path d="M253.64249,290.96558c0.29855,0.29855 0.48326,0.71094 0.48326,1.16593c0,0.45499 -0.18471,0.86739 -0.48326,1.16593c-0.29855,0.29855 -0.71095,0.48327 -1.16594,0.48327c-0.45499,0 -0.86739,-0.18472 -1.16594,-0.48327c-0.29855,-0.29855 -0.48326,-0.71094 -0.48326,-1.16593c0,-0.45499 0.18471,-0.86739 0.48326,-1.16593c0.29855,-0.29855 0.71095,-0.48327 1.16594,-0.48327c0.45499,0 0.86739,0.18472 1.16594,0.48327z" data-paper-data="{&quot;origPos&quot;:null}"/></g><path d="M244.88802,290.96468c0.29855,0.29855 0.48326,0.71094 0.48326,1.16593c0,0.45499 -0.18471,0.86739 -0.48326,1.16594c-0.29855,0.29855 -0.71095,0.48326 -1.16594,0.48326c-0.45499,0 -0.86738,-0.18471 -1.16593,-0.48326c-0.29855,-0.29855 -0.48327,-0.71095 -0.48327,-1.16594c0,-0.45499 0.18472,-0.86739 0.48327,-1.16593c0.29855,-0.29855 0.71094,-0.48327 1.16593,-0.48327c0.45499,0 0.86739,0.18472 1.16594,0.48327z" data-paper-data="{&quot;origPos&quot;:null}"/></g><path d="M-84.99997,308.95062h648v52.04945h-648z" data-paper-data="{&quot;origPos&quot;:null}" fill="url(#color-21)" stroke="#763e13" stroke-width="2" stroke-linecap="butt"/><path d="M228.37937,232.87006h3.10992v62.19838h-3.10992z" data-paper-data="{&quot;origPos&quot;:null}" fill="#b03405" stroke="none" stroke-width="1.14943" stroke-linecap="round"/><path d="M218.76691,268.74969c0,-2.34213 1.89867,-4.24079 4.24079,-4.24079c2.34213,0 4.2408,1.89867 4.2408,4.24079c0,2.34213 -1.89867,4.2408 -4.2408,4.2408c-2.34213,0 -4.24079,-1.89867 -4.24079,-4.2408z" data-paper-data="{&quot;origPos&quot;:null}" fill="#ffd400" stroke="none" stroke-width="0" stroke-linecap="butt"/><path d="M232.71441,268.74969c0,-2.34213 1.89866,-4.24079 4.24079,-4.24079c2.34213,0 4.2408,1.89867 4.2408,4.24079c0,2.34213 -1.89867,4.2408 -4.2408,4.2408c-2.34213,0 -4.24079,-1.89867 -4.24079,-4.2408z" data-paper-data="{&quot;origPos&quot;:null}" fill="#ffd400" stroke="none" stroke-width="0" stroke-linecap="butt"/><path d="M498.00005,296.93081c14.71278,0.94141 86.77715,10.90441 76.30213,14.62494c-2.17424,0.77225 -14.9853,22.36707 -36.50913,21.80309c-23.87467,-0.62558 -56.62629,-23.44654 -57.793,-23.07271c-19.83545,6.33266 -32.09069,19.2838 -52.75586,16.73467c-23.45842,-2.89369 -36.71937,-19.32071 -60.26063,-17.20406c-23.11847,2.07864 -36.11181,18.94003 -59.32251,19.15925c-30.15,0.28113 -27.431,-16.36698 -57.661,-15.68986c-28.56,1.28945 -32.576,16.73047 -61,16.3652c-30.319,-0.39265 -38.618,-19.53815 -69,-20.03296c-28.799,-1.48511 -34.648,14.84946 -63.661,15.35763c-24.382,0.42203 -35.18,-6.6533 -56.339,-14.68986c-3.51989,-1.33839 -42.21571,15.67478 -64.32791,13.50937c-20.1169,-1.97002 -24.09541,-23.08785 -22.04489,-24.99971c1.01354,-0.94501 68.31669,-5.61792 72.3728,-5.87156c85.13,-5.32409 171.296,0.7913 257,1.33553c0,0 170.383,-2.74319 255,2.67105z" data-paper-data="{&quot;origPos&quot;:null}" fill="url(#color-22)" stroke="#006622" stroke-width="2" stroke-linecap="round"/></g><path d="M238.00551,265.85222c-0.10917,0.72919 -2.28563,1.65319 -3.99841,1.65319c-1.38016,0 -1.03805,-1.29851 -1.03805,-1.99921c0,-0.7007 2.70475,-0.54786 4.08492,-0.54786c1.38016,0 1.02221,0.42188 0.95155,0.89388z" data-paper-data="{&quot;origPos&quot;:null}" fill="#880010" stroke="none" stroke-width="0" stroke-linecap="butt"/><g data-paper-data="{&quot;origPos&quot;:null}" stroke="none" stroke-width="0" stroke-linecap="butt"><path d="M233.46428,287.60796c0.04806,0.87704 1.04008,1.22067 1.00922,1.41771c-0.12487,0.79722 -0.50357,1.35897 -1.82505,1.73417c-1.63694,0.46477 -2.92291,0.35593 -4.39034,-0.5056c-0.99945,-0.58678 -0.12076,-1.09378 0.25918,-2.1887c0.13633,-0.39289 0.23732,-0.90675 0.33344,-1.94737c0.12017,-1.30105 0.82021,-3.67092 0.82021,-3.67092c0,0 1.02506,-0.15598 2.03681,-0.17121c1.00082,-0.00449 1.99682,0.40599 1.99682,0.40599c0,0 -0.35138,2.89854 -0.24029,4.92593z" data-paper-data="{&quot;origPos&quot;:null}" fill="#0052ef"/><path d="M234.84171,291.87496c0,0.74941 -0.76259,1.10251 -1.48515,1.30132c-0.47353,0.13029 -2.77013,0.06308 -3.90977,-0.60442c-0.35381,-0.20723 -0.64114,-0.67767 -0.64114,-0.67767c0,0 -0.96822,0.146 -0.96544,-0.13403c0.00221,-0.22229 -0.00339,-0.60083 0.21201,-0.71619c0.92718,-0.49659 3.12336,-0.4954 4.17515,-0.4954c1.44387,0 2.61435,0.59385 2.61435,1.3264z" data-paper-data="{&quot;origPos&quot;:null}" fill="#f9c869"/><path d="M235.20397,290.93359c-0.26269,0.8772 -1.14063,1.50421 -2.77294,1.50421c-1.63231,0 -3.37847,-0.94674 -3.37847,-0.94674c0,0 -1.18173,0.06221 -1.20564,-0.24098c-0.04948,-0.62752 -0.06078,-1.65143 0.17673,-1.6849c0.87684,-0.12359 0.71127,-0.00487 1.85786,-0.25002c0.74236,-0.15872 1.98261,-0.86615 2.74175,-0.86615c1.63231,0 3.01323,1.04027 2.58071,2.48459z" data-paper-data="{&quot;origPos&quot;:null}" fill="#8e4108"/></g><g data-paper-data="{&quot;origPos&quot;:null}" stroke="none" stroke-width="0" stroke-linecap="butt"><path d="M229.13908,287.65603c0.04806,0.87704 1.04008,1.22067 1.00922,1.41771c-0.12487,0.79722 -0.50357,1.35897 -1.82505,1.73417c-1.63694,0.46477 -2.92291,0.35593 -4.39034,-0.5056c-0.99945,-0.58678 -0.12076,-1.09378 0.25918,-2.1887c0.13633,-0.39289 0.23732,-0.90675 0.33344,-1.94737c0.12017,-1.30105 0.96438,-3.71898 0.96438,-3.71898c0,0 1.45758,-0.0118 2.42127,0.1652c0.76053,0.13969 1.99682,0.64628 1.99682,0.64628c0,0 -0.88002,2.3699 -0.76893,4.39729z" data-paper-data="{&quot;origPos&quot;:null}" fill="#0052ef"/><path d="M230.51651,291.92303c0,0.74941 -0.76259,1.10251 -1.48515,1.30132c-0.47353,0.13029 -2.77013,0.06308 -3.90977,-0.60442c-0.35381,-0.20723 -0.64114,-0.67767 -0.64114,-0.67767c0,0 -0.96822,0.146 -0.96544,-0.13403c0.00221,-0.22229 -0.00339,-0.60083 0.21201,-0.71619c0.92718,-0.49659 3.12336,-0.4954 4.17515,-0.4954c1.44387,0 2.61435,0.59385 2.61435,1.3264z" data-paper-data="{&quot;origPos&quot;:null}" fill="#f9c869"/><path d="M230.87877,290.98161c-0.26269,0.8772 -1.14063,1.50421 -2.77294,1.50421c-1.63231,0 -3.37847,-0.94674 -3.37847,-0.94674c0,0 -1.18173,0.06221 -1.20564,-0.24098c-0.04948,-0.62752 -0.06078,-1.65143 0.17673,-1.6849c0.87684,-0.12359 0.71127,-0.00487 1.85786,-0.25002c0.74236,-0.15872 1.98261,-0.86615 2.74175,-0.86615c1.63231,0 3.01323,1.04027 2.58071,2.48459z" data-paper-data="{&quot;origPos&quot;:null}" fill="#8e4108"/></g><g data-paper-data="{&quot;origPos&quot;:null}" stroke-width="2"><path d="M234.65648,279.63991c0.07528,4.07022 -2.52057,5.2287 -5.44015,5.2287c-2.91958,0 -5.32481,-1.92961 -5.32481,-3.88308c0,-2.11918 0.25346,-3.80616 1.88797,-5.15497c1.21776,-1.00491 2.97293,-0.53508 4.55178,-0.53508c2.91958,0 4.25141,0.35471 4.32521,4.34443z" data-paper-data="{&quot;origPos&quot;:null}" fill="#0052ef" stroke="none" stroke-linecap="butt"/><path d="M234.65648,279.52457c0,0 -3.31481,0.38446 -5.6516,0.46136c-2.1434,0.07053 -4.30598,-0.65359 -4.30598,-0.65359c0,0 -0.18963,-2.65196 1.34266,-3.68316c1.00254,-0.67468 2.13,-0.89563 3.57846,-0.9304c1.44846,-0.03476 3.02359,0.41121 3.75275,1.00194c1.72237,1.39538 1.28371,3.80385 1.28371,3.80385z" data-paper-data="{&quot;origPos&quot;:null}" fill="#ff0021" stroke="none" stroke-linecap="butt"/><path d="M231.98597,275.46682c0,0 0.41143,1.31492 0.49443,2.10555c0.10661,1.0155 -0.11149,2.92354 -0.11149,2.92354" data-paper-data="{&quot;origPos&quot;:null,&quot;origRot&quot;:0}" fill="none" stroke="#0052ef" stroke-linecap="round"/><path d="M227.85148,275.5646c0,0 0.23834,1.35701 0.21863,2.15174c-0.02531,1.02077 -0.48776,2.88472 -0.48776,2.88472" data-paper-data="{&quot;origPos&quot;:null}" fill="none" stroke="#0052ef" stroke-linecap="round"/><path d="M226.92877,280.23582c0,-0.43528 0.35287,-0.78815 0.78815,-0.78815c0.43528,0 0.78815,0.35287 0.78815,0.78815c0,0.43528 -0.35287,0.78815 -0.78815,0.78815c-0.43528,0 -0.78815,-0.35287 -0.78815,-0.78815z" data-paper-data="{&quot;origPos&quot;:null}" fill="#ffe84f" stroke="none" stroke-linecap="butt"/><path d="M231.69612,280.23582c0,-0.43528 0.35287,-0.78815 0.78815,-0.78815c0.43528,0 0.78815,0.35287 0.78815,0.78815c0,0.43528 -0.35287,0.78815 -0.78815,0.78815c-0.43528,0 -0.78815,-0.35287 -0.78815,-0.78815z" data-paper-data="{&quot;origPos&quot;:null}" fill="#ffe84f" stroke="none" stroke-linecap="butt"/></g><path d="M223.92643,273.71684c0,0 -0.32685,0.22502 -0.68882,-0.03795c-0.36198,-0.26297 -0.62422,-0.87109 -0.10024,-1.16151c0.62673,-0.34737 0.46415,-1.51572 0.82613,-1.25274c0,0 1.3904,0.1964 1.4977,0.75266c0,0 0.58644,1.60639 0.34613,1.86333c0,0 -0.34252,0.2541 -1.2355,0.2119c-0.48383,-0.02286 -0.6454,-0.37568 -0.6454,-0.37568z" data-paper-data="{&quot;origRot&quot;:0,&quot;origPos&quot;:null}" fill="#5a2c0a" stroke="none" stroke-width="0" stroke-linecap="butt"/><path d="M224.85368,266.29114c0.82928,0.1936 7.15928,-0.4168 8.27303,-0.3549c1.64777,0.09158 1.19223,1.57891 1.30854,3.22513c0.13374,1.89279 1.45382,2.75475 0.79082,4.53266c-0.25562,0.68548 -0.83065,1.04421 -1.40533,1.49695c-0.32601,0.25683 -1.23585,0.50633 -3.30969,0.54898c-2.93149,0.06029 -3.76268,-0.41436 -4.97128,-1.33551c-0.76743,-0.58491 -0.4326,-1.4159 -1.04298,-2.33995c-0.1871,-0.28326 -0.40897,-0.43436 -0.44636,-0.43436c-1.99352,0 -3.08943,-1.64675 -3.08943,-3.20386c0,-1.55711 0.71145,-2.81939 1.8262,-2.81939c1.11475,0 1.77814,0.61694 2.06649,0.68425z" data-paper-data="{&quot;origPos&quot;:null}" fill="#ffdebd" stroke="none" stroke-width="0" stroke-linecap="butt"/><path d="M234.11602,267.29197c0.06773,0.93979 -0.34949,1.73567 -0.9319,1.77764c-0.58241,0.04198 -1.10944,-0.68585 -1.17718,-1.62564c-0.06773,-0.93979 0.34949,-1.73567 0.9319,-1.77764c0.58241,-0.04198 1.10945,0.68585 1.17718,1.62564z" data-paper-data="{&quot;origPos&quot;:null,&quot;origRot&quot;:0}" fill="#ffffff" stroke="none" stroke-width="0" stroke-linecap="butt"/><path d="M226.8548,267.79508c0,0.50143 0.58785,1.23488 0.13689,1.45413c-0.52462,0.25505 -0.79317,-0.09795 -0.79317,-0.09795c0,0 0.11193,0.3029 -0.59048,0.43432c-0.52178,0.09762 -0.70302,-0.99609 -0.70302,-1.84542c0,-0.84933 -0.00321,-1.67207 0.52726,-1.69164c2.23345,-0.08238 1.42251,0.89723 1.42251,1.74656z" data-paper-data="{&quot;origPos&quot;:null}" fill="#5a2c0a" stroke="none" stroke-width="0" stroke-linecap="butt"/><path d="M231.61256,268.25406c0.10975,0.93581 -0.27141,1.74958 -0.85135,1.81759c-0.57994,0.06802 -1.13905,-0.63547 -1.2488,-1.57129c-0.10975,-0.93581 0.27141,-1.74958 0.85135,-1.81759c0.57994,-0.06802 1.13905,0.63547 1.2488,1.57129z" data-paper-data="{&quot;origPos&quot;:null,&quot;origRot&quot;:0}" fill="#ffffff" stroke="none" stroke-width="0" stroke-linecap="butt"/><path d="M235.29389,260.65711c0.46068,2.87282 -0.09461,3.0362 -1.63813,3.9559c-2.24904,1.34009 -5.19095,1.0688 -7.59326,2.10944c-0.63078,0.27324 -2.2385,-0.39065 -2.92592,-0.39065c-1.40598,0 -2.1993,-1.00484 -2.2574,-2.20171c-0.12815,-2.64001 1.17181,-2.65025 2.57779,-2.65025c0,0 1.54732,0.25646 2.08179,1.07737c0,0 2.15254,-3.50226 4.42161,-3.93494c2.92094,-0.55697 5.0027,-0.02823 5.33353,2.03483z" data-paper-data="{&quot;origPos&quot;:null}" fill="#ff0021" stroke="none" stroke-width="0" stroke-linecap="butt"/><path d="M234.73758,262.29591c0,1.05105 -0.28127,1.8418 -2.34522,1.90309c-2.17887,0.0647 -2.34522,-0.85204 -2.34522,-1.90309c0,-1.05105 1.04999,-1.90309 2.34522,-1.90309c1.29523,0 2.34522,0.85204 2.34522,1.90309z" data-paper-data="{&quot;origPos&quot;:null}" fill="#ffffff" stroke="none" stroke-width="0" stroke-linecap="butt"/><path d="M230.77761,263.39592l0.92806,-2.46483l0.84656,1.14154l0.52355,-1.02066l1.02513,1.9381l-0.70332,0.42481l-0.29178,-1.4688l-0.52186,0.89746l-0.68663,-0.90168l-0.29408,1.45406z" data-paper-data="{&quot;origPos&quot;:null}" fill="#ff0021" stroke="none" stroke-width="0" stroke-linecap="butt"/><path d="M238.08239,265.44854c-0.03845,0.16503 -7.56293,1.2495 -9.66924,1.48018c-1.02369,0.11211 -3.09493,0.03046 -3.05648,-0.13456c0.14212,-0.61005 0.53919,-1.58494 1.51863,-1.90309c1.1836,-0.38446 5.24698,-1.41868 8.28558,-1.37223c1.24217,0.01899 3.06363,1.31965 2.92151,1.9297z" data-paper-data="{&quot;origPos&quot;:null}" fill="#bc041a" stroke="none" stroke-width="0" stroke-linecap="butt"/><path d="M235.10395,273.75971c-0.07134,0.48987 -0.44138,0.73548 -0.71928,0.81083c-0.84814,0.22999 -2.08353,0.19649 -2.92493,-0.05708c-0.48357,-0.14573 -0.49216,-0.45857 -0.53885,-0.5023c-0.04933,-0.0462 -0.57088,0.30121 -1.19943,0.30121c-1.00858,0 -1.70605,-0.71074 -1.70605,-1.70605c0,-1.09143 0.09472,-1.69792 0.25888,-1.72932c0.95612,-0.18289 1.24099,0.65982 1.97581,1.05651c0,0 2.45708,0.80882 3.60497,0.74344c0,0 1.85288,-0.86716 2.4272,-0.82914c0.28483,0.01886 0.2867,0.61574 0.19684,0.91721c0,0 0.02924,0.8234 -0.36933,1.04229c-0.94242,0.51756 -0.98518,-0.18937 -1.00583,-0.0476z" data-paper-data="{&quot;origPos&quot;:null}" fill="#38291e" stroke="none" stroke-width="0" stroke-linecap="butt"/><g data-paper-data="{&quot;origPos&quot;:null}" fill="none" stroke="#f6b09a" stroke-width="0.75" stroke-linecap="round"><path d="M222.18627,267.59736c0,0 0.56964,-0.33255 1.29852,0.23058c1.04533,0.80762 0.43156,2.18605 0.43156,2.18605" data-paper-data="{&quot;origPos&quot;:null}"/><path d="M223.86143,268.88804h-1.15339" data-paper-data="{&quot;origPos&quot;:null}"/><path d="M223.50444,270.04141h0.24715" data-paper-data="{&quot;origPos&quot;:null}"/></g><path d="M233.36661,278.67058c-0.84302,-0.58247 -0.60481,-2.60933 0.46178,-4.15303c1.0666,-1.5437 2.311,-2.85183 2.311,-2.85183l2.54988,1.71891c0,0 -1.37249,2.61811 -2.23036,3.85973c-1.0666,1.5437 -2.2493,2.00869 -3.09231,1.42623z" data-paper-data="{&quot;origRot&quot;:0,&quot;origPos&quot;:null}" fill="#ff0021" stroke="none" stroke-width="0" stroke-linecap="butt"/><g data-paper-data="{&quot;origPos&quot;:null,&quot;origRot&quot;:0}" fill="#ffffff" stroke="none" stroke-width="0" stroke-linecap="butt"><path d="M238.09048,271.81733c-1.53454,-0.95946 -3.37993,-2.2317 -2.27578,-3.7874c0.80102,-1.1286 3.44646,-1.75448 4.72887,-0.47745c1.3994,1.39353 2.87019,2.41192 1.47126,4.03447c-1.30623,1.51502 -2.38981,1.18984 -3.92435,0.23038z" data-paper-data="{&quot;origRot&quot;:0,&quot;origPos&quot;:null}"/><path d="M237.08248,272.96482c-1.18379,-0.74232 -2.6792,-1.35837 -2.03729,-2.22109c0.7181,-0.96513 0.98813,-0.71127 2.89264,0.54958c2.16959,1.43635 2.76268,1.26089 2.02707,2.35701c-0.42954,0.64006 -1.69863,0.05681 -2.88242,-0.6855z" data-paper-data="{&quot;origRot&quot;:0,&quot;origPos&quot;:null}"/></g><path d="M223.14615,277.29621c-0.95928,-1.16505 -2.54715,-3.65841 -2.54715,-3.65841l2.39623,-1.92733c0,0 1.35005,1.19878 2.54273,2.64729c1.19269,1.44851 1.60056,3.44815 0.80953,4.09947c-0.79102,0.65132 -2.00866,0.28749 -3.20133,-1.16102z" data-paper-data="{&quot;origRot&quot;:0,&quot;origPos&quot;:null}" fill="#ff0021" stroke="none" stroke-width="0" stroke-linecap="butt"/><g data-paper-data="{&quot;origPos&quot;:null,&quot;origRot&quot;:0}" fill="#ffffff" stroke="none" stroke-width="0" stroke-linecap="butt"><path d="M217.13399,272.12627c-1.53047,-1.4991 -0.15057,-2.63762 1.12663,-4.14394c1.17043,-1.38039 3.85916,-0.97927 4.75228,0.07794c1.23111,1.45729 -0.5007,2.88027 -1.94909,3.96542c-1.44839,1.08515 -2.50077,1.50034 -3.92982,0.10058z" data-paper-data="{&quot;origRot&quot;:0,&quot;origPos&quot;:null}"/><path d="M219.35025,274.00984c-0.82521,-1.03035 -0.21946,-0.90541 1.82159,-2.51918c1.79168,-1.4166 2.0394,-1.69227 2.83615,-0.79098c0.71221,0.80566 -0.72608,1.54533 -1.84322,2.3846c-1.11714,0.83927 -2.33266,1.52722 -2.81452,0.92556z" data-paper-data="{&quot;origRot&quot;:0,&quot;origPos&quot;:null}"/></g><path d="M230.38686,268.37782c0,-0.16964 0.13752,-0.30715 0.30715,-0.30715c0.16964,0 0.30715,0.13751 0.30715,0.30715c0,0.16964 -0.13752,0.30716 -0.30715,0.30716c-0.16964,0 -0.30715,-0.13752 -0.30715,-0.30716z" data-paper-data="{&quot;origPos&quot;:null}" fill="#000000" stroke="none" stroke-width="0.5" stroke-linecap="butt"/><path d="M232.7671,267.61827c0,-0.16964 0.13752,-0.30715 0.30715,-0.30715c0.16964,0 0.30715,0.13751 0.30715,0.30715c0,0.16964 -0.13752,0.30716 -0.30715,0.30716c-0.16964,0 -0.30715,-0.13752 -0.30715,-0.30716z" data-paper-data="{&quot;origPos&quot;:null}" fill="#000000" stroke="none" stroke-width="0.5" stroke-linecap="butt"/><path d="M236.18524,270.68397c-0.09612,1.27219 0.21672,2.13857 -2.54707,2.09052c-1.27381,-0.02215 -2.49901,-0.81833 -2.49901,-1.94634c0,-1.12802 1.22886,-2.5202 2.49901,-2.61915c1.85069,-0.14417 2.70084,0.43966 2.54707,2.47498z" data-paper-data="{&quot;origPos&quot;:null}" fill="#ffdebd" stroke="none" stroke-width="0" stroke-linecap="butt"/></g></g></svg>