<svg version="1.1" xmlns="http://www.w3.org/2000/svg" xmlns:xlink="http://www.w3.org/1999/xlink" width="25.11279" height="51.8527" viewBox="0,0,25.11279,51.8527"><g transform="translate(-227.44401,-153.83155)"><g data-paper-data="{&quot;isPaintingLayer&quot;:true}" fill="none" fill-rule="nonzero" stroke="#661515" stroke-width="0.5" stroke-linecap="round" stroke-linejoin="miter" stroke-miterlimit="10" stroke-dasharray="" stroke-dashoffset="0" font-family="none" font-weight="none" font-size="none" text-anchor="none" style="mix-blend-mode: normal"><path d="M242.19883,192.34335l2.64608,13.03775l-7.82095,-1.23619l0.28093,-12.31756l-4.87522,-1.33717l-3.36021,-3.2353l-1.37455,-4.26065l0.07492,-3.28468l2.10741,-6.36297l4.04624,-5.33539l4.61055,-8.56847l1.09116,-4.82382l5.60118,12.52617l3.28529,6.51998l3.79342,5.75041l-0.08427,3.69526l-1.58992,5.18281l-4.48882,3.23087z" data-paper-data="{&quot;origPos&quot;:null,&quot;index&quot;:null}" fill="#de7633"/><path d="M237.19202,192.47396l2.24777,-29.72548l2.81946,31.24753" data-paper-data="{&quot;origPos&quot;:null,&quot;index&quot;:null}" fill="none"/><path d="M231.90559,183.35588l5.0073,4.14979" data-paper-data="{&quot;origPos&quot;:null,&quot;index&quot;:null}" fill="none"/><path d="M237.01776,182.9071l-3.84024,-3.69747" data-paper-data="{&quot;origPos&quot;:null,&quot;index&quot;:null}" fill="none"/><path d="M234.42697,176.04877l3.45622,3.32774" data-paper-data="{&quot;origPos&quot;:null,&quot;index&quot;:null}" fill="none"/><path d="M237.99556,174.44948l-1.91263,-2.1772" data-paper-data="{&quot;origPos&quot;:null,&quot;index&quot;:null}" fill="none"/><path d="M242.86603,167.39008l-3.97508,2.21494l-1.92012,-1.84874" data-paper-data="{&quot;origPos&quot;:null,&quot;index&quot;:null}" fill="none"/><path d="M242.38661,188.41205l4.41155,-4.14447" data-paper-data="{&quot;origPos&quot;:null,&quot;index&quot;:null}" fill="none"/><path d="M242.09996,183.77221l3.21452,-3.28291" data-paper-data="{&quot;origPos&quot;:null,&quot;index&quot;:null}" fill="none"/><path d="M241.41433,179.41956l3.58357,-2.25623" data-paper-data="{&quot;origPos&quot;:null,&quot;index&quot;:null}" fill="none"/><path d="M243.93573,172.11248l-2.79306,2.01031" data-paper-data="{&quot;origPos&quot;:null,&quot;index&quot;:null}" fill="none"/></g></g></svg>