<svg version="1.1" xmlns="http://www.w3.org/2000/svg" xmlns:xlink="http://www.w3.org/1999/xlink" width="437" height="90.79587" viewBox="0,0,437,90.79587"><defs><linearGradient x1="240" y1="135.60206" x2="240" y2="224.39795" gradientUnits="userSpaceOnUse" id="color-1"><stop offset="0" stop-color="#ffffff"/><stop offset="1" stop-color="#d8d8d8"/></linearGradient><linearGradient x1="240" y1="135.60208" x2="240" y2="224.39795" gradientUnits="userSpaceOnUse" id="color-2"><stop offset="0" stop-color="#343434"/><stop offset="1" stop-color="#090909"/></linearGradient><radialGradient cx="443.8065" cy="206.54466" r="17.9081" gradientUnits="userSpaceOnUse" id="color-3"><stop offset="0" stop-color="#ffffff"/><stop offset="1" stop-color="#e5e5e5"/></radialGradient></defs><g transform="translate(-21.5,-134.60208)"><g data-paper-data="{&quot;isPaintingLayer&quot;:true}" fill-rule="nonzero" stroke-linejoin="miter" stroke-miterlimit="10" stroke-dasharray="" stroke-dashoffset="0" style="mix-blend-mode: normal"><path d="M22.5,224.39795v-88.79587h435v88.79587z" data-paper-data="{&quot;origPos&quot;:null}" fill="url(#color-1)" stroke="url(#color-2)" stroke-width="2" stroke-linecap="butt"/><g data-paper-data="{&quot;origPos&quot;:null}"><path d="M444.3058,202.09868c2.5136,0 4.7909,1.0212 6.4406,2.6702c1.6489,1.6496 2.6702,3.9269 2.6702,6.4405c0,2.5136 -1.0213,4.791 -2.6702,6.4406c-1.6497,1.649 -3.927,2.6702 -6.4406,2.6702c-2.5136,0 -4.7909,-1.0212 -6.4406,-2.6702c-1.6489,-1.6496 -2.6701,-3.927 -2.6701,-6.4406c0,-2.5136 1.0212,-4.7909 2.6701,-6.4405c1.6497,-1.649 3.927,-2.6702 6.4406,-2.6702z" fill="url(#color-3)" stroke="#000000" stroke-width="2.0785" stroke-linecap="butt"/><path d="M441.2734,206.54886l5.6119,0.4503l1.7321,3.187l-3.6374,2.9446l3.3603,-0.5197l0.7967,3.4642l-7.4479,-0.0693l-1.9053,-2.4249l4.6766,-3.3256l-4.5727,-0.3464z" fill="#000000" stroke="none" stroke-width="0.69283" stroke-linecap="round"/></g><g data-paper-data="{&quot;origPos&quot;:null}" stroke="none" stroke-width="1" stroke-linecap="butt"><path d="M35.43,148.28506c2.448,0.547 3.81,0.86 4.083,0.939v0.064c-0.085,2.193 -0.149,3.469 -0.191,3.828c0.139,0 0.768,0.146 1.886,0.437c1.003,-3.093 1.547,-4.639 1.632,-4.639c1.677,0.754 2.743,1.255 3.199,1.504v0.064c-1.841,4.284 -2.886,6.647 -3.135,7.091c-0.462,0.383 -2.072,1.847 -4.831,4.393h-0.064l-5.086,-2.506c0.468,-0.802 1.033,-1.723 1.695,-2.762c0.031,0 0.827,0.522 2.389,1.568h0.063c0.523,-0.426 1.149,-1.033 1.878,-1.823c0,-0.037 -1.191,-1.206 -3.573,-3.509v-4.521z" data-paper-data="{&quot;origPos&quot;:null}" fill="#000000"/><path d="M50.706,151.04706c2.309,0.62 3.533,0.996 3.673,1.13c1.27,1.799 1.984,2.835 2.142,3.108c-0.82,2.601 -1.291,3.901 -1.413,3.901c-2.734,0.638 -4.165,0.957 -4.293,0.957c-2.26,-1.318 -3.463,-2.054 -3.609,-2.206c-0.079,-2.454 -0.119,-3.809 -0.119,-4.065c-0.036,-0.073 -0.054,-0.127 -0.054,-0.164c2.333,-1.774 3.539,-2.661 3.618,-2.661zM50.478,154.38306c-0.037,0.243 -0.091,1.127 -0.164,2.652l2.032,0.456c0.486,-1.519 0.73,-2.33 0.73,-2.434c-1.617,-0.486 -2.483,-0.729 -2.598,-0.729z" data-paper-data="{&quot;origPos&quot;:null}" fill="#000000"/><path d="M62.272,151.03806l0.064,0.118l-1.231,6.526h0.064l3.136,-0.92v-3.692c0.012,-0.085 0.051,-0.127 0.118,-0.127c2.358,0.164 3.67,0.246 3.938,0.246c0,0.042 0.021,0.064 0.063,0.064c0,1.039 -0.328,3.193 -0.984,6.462c0,0.188 -0.942,0.331 -2.825,0.428c-0.098,-0.115 -0.18,-0.361 -0.247,-0.738c-2.412,0.492 -3.788,0.738 -4.128,0.738c-1.927,-1.434 -2.89,-2.172 -2.89,-2.215c0.328,-4.308 0.535,-6.544 0.62,-6.708h0.055c1.537,-0.043 2.953,-0.103 4.247,-0.182z" data-paper-data="{&quot;origPos&quot;:null}" fill="#000000"/><path d="M80.775,151.06506c2.582,0.067 3.873,0.179 3.873,0.337c0.444,6.727 0.666,10.306 0.666,10.737c-1.957,1.246 -3.357,2.091 -4.202,2.534c-2.977,-0.936 -4.466,-1.47 -4.466,-1.604c0.96,-1.404 1.516,-2.115 1.668,-2.133c1.622,0.802 2.555,1.203 2.798,1.203l0.866,-1.139c-0.231,-0.942 -0.386,-1.498 -0.465,-1.668c-0.134,0 -1.78,0.267 -4.94,0.802c-1.732,-2.813 -2.598,-4.256 -2.598,-4.329c1.495,-2.388 2.407,-3.789 2.735,-4.202h0.063c0.177,0 1.489,0.288 3.938,0.866v-0.201c0,-0.237 -0.021,-0.617 -0.064,-1.139zM77.785,154.99307c0.085,0.189 0.353,1.191 0.802,3.008c0.565,-0.182 1.431,-0.516 2.598,-1.002c-0.225,-1.094 -0.337,-1.717 -0.337,-1.869l-0.328,-0.064h-0.274c-0.51,0 -1.288,-0.024 -2.333,-0.073z" data-paper-data="{&quot;origPos&quot;:null}" fill="#000000"/><path d="M89.971,151.04706c2.309,0.62 3.534,0.996 3.674,1.13c1.269,1.799 1.983,2.835 2.141,3.108c-0.82,2.601 -1.291,3.901 -1.412,3.901c-2.735,0.638 -4.166,0.957 -4.293,0.957c-2.261,-1.318 -3.464,-2.054 -3.61,-2.206c-0.079,-2.454 -0.118,-3.809 -0.118,-4.065c-0.037,-0.073 -0.055,-0.127 -0.055,-0.164c2.334,-1.774 3.54,-2.661 3.619,-2.661zM89.743,154.38306c-0.036,0.243 -0.091,1.127 -0.164,2.652l2.033,0.456c0.486,-1.519 0.729,-2.33 0.729,-2.434c-1.616,-0.486 -2.482,-0.729 -2.598,-0.729z" data-paper-data="{&quot;origPos&quot;:null}" fill="#000000"/><path d="M99.341,148.28506l4.011,0.711l-0.383,3.044c0.796,-0.042 1.379,-0.063 1.75,-0.063h0.583l0.128,-0.064l0.063,0.127c-0.127,1.848 -0.236,2.887 -0.328,3.118l-0.127,-0.073c-0.091,0 -0.912,-0.043 -2.461,-0.128c-0.085,1.428 -0.149,3.135 -0.192,5.122l-0.127,0.064c-1.957,-0.127 -3.123,-0.237 -3.5,-0.328l0.064,-0.255c0,-0.529 0.085,-2.169 0.255,-4.922c-1.641,-0.091 -2.461,-0.201 -2.461,-0.328c0.085,-2.03 0.194,-3.044 0.328,-3.044l2.397,0.455v-0.784c0,-0.638 -0.024,-1.5 -0.073,-2.588c0.049,0 0.073,-0.021 0.073,-0.064z" data-paper-data="{&quot;origPos&quot;:null}" fill="#000000"/><path d="M112.475,151.03806c3.61,0.498 5.414,0.805 5.414,0.92c1.422,1.222 2.133,1.875 2.133,1.96c-0.577,1.805 -0.905,2.901 -0.984,3.29c0.577,1.282 0.905,2.048 0.984,2.297c0,0.073 -0.942,0.268 -2.825,0.584c-0.025,-0.104 -0.198,-0.335 -0.52,-0.693c-2.601,0.498 -4.001,0.747 -4.202,0.747l-1.385,-3.746l3.053,-1.613c0.492,0.079 1.261,0.118 2.306,0.118c0,-0.133 0.018,-0.537 0.055,-1.212c-0.176,0 -1.75,0.116 -4.721,0.346l-0.055,-0.118c0.413,-1.92 0.662,-2.88 0.747,-2.88zM114.371,156.39707c0,0.067 0.195,0.778 0.583,2.133h0.055c0.766,-0.498 1.149,-0.826 1.149,-0.984l0.118,-0.976c-0.146,0 -0.781,-0.057 -1.905,-0.173z" data-paper-data="{&quot;origPos&quot;:null}" fill="#000000"/><path d="M132.327,151.06506c2.582,0.067 3.874,0.179 3.874,0.337c0.443,6.727 0.665,10.306 0.665,10.737c-1.957,1.246 -3.357,2.091 -4.202,2.534c-2.977,-0.936 -4.466,-1.47 -4.466,-1.604c0.96,-1.404 1.516,-2.115 1.668,-2.133c1.622,0.802 2.555,1.203 2.798,1.203l0.866,-1.139c-0.231,-0.942 -0.386,-1.498 -0.465,-1.668c-0.134,0 -1.78,0.267 -4.94,0.802c-1.732,-2.813 -2.598,-4.256 -2.598,-4.329c1.495,-2.388 2.407,-3.789 2.735,-4.202h0.064c0.176,0 1.488,0.288 3.937,0.866v-0.201c0,-0.237 -0.021,-0.617 -0.064,-1.139zM129.337,154.99307c0.085,0.189 0.353,1.191 0.802,3.008c0.565,-0.182 1.431,-0.516 2.598,-1.002c-0.225,-1.094 -0.337,-1.717 -0.337,-1.869l-0.328,-0.064h-0.401c-0.511,0 -1.289,-0.024 -2.334,-0.073z" data-paper-data="{&quot;origPos&quot;:null}" fill="#2b70c2"/><path d="M144.395,151.03806c1.203,0.674 1.941,1.112 2.214,1.312c-0.984,2.048 -1.513,3.09 -1.586,3.127h-0.063l-1.304,-1.14l-1.54,1.878l0.173,3.418c-0.079,0.073 -1.085,0.243 -3.017,0.51c-0.073,-0.522 -0.547,-3.084 -1.422,-7.683c0,-0.073 1.27,-0.262 3.81,-0.565c0.043,0.048 0.158,0.616 0.347,1.704c1.519,-1.708 2.315,-2.561 2.388,-2.561z" data-paper-data="{&quot;origPos&quot;:null}" fill="#2b70c2"/><path d="M148.715,151.03806c3.609,0.498 5.414,0.805 5.414,0.92c1.422,1.222 2.133,1.875 2.133,1.96c-0.578,1.805 -0.906,2.901 -0.985,3.29c0.578,1.282 0.906,2.048 0.985,2.297c0,0.073 -0.942,0.268 -2.826,0.584c-0.024,-0.104 -0.197,-0.335 -0.519,-0.693c-2.601,0.498 -4.002,0.747 -4.202,0.747l-1.386,-3.746l3.054,-1.613c0.492,0.079 1.261,0.118 2.306,0.118c0,-0.133 0.018,-0.537 0.054,-1.212c-0.176,0 -1.749,0.116 -4.721,0.346l-0.055,-0.118c0.414,-1.92 0.663,-2.88 0.748,-2.88zM150.611,156.39707c0,0.067 0.194,0.778 0.583,2.133h0.055c0.765,-0.498 1.148,-0.826 1.148,-0.984l0.119,-0.976c-0.146,0 -0.781,-0.057 -1.905,-0.173z" data-paper-data="{&quot;origPos&quot;:null}" fill="#2b70c2"/><path d="M165.23,151.03806l3.036,2.087c-0.213,3.464 -0.362,5.487 -0.447,6.07c-0.352,0.043 -1.425,0.107 -3.217,0.192l-0.064,-0.128l-0.319,-4.867l-0.128,-0.064c-1.16,0.249 -1.959,0.438 -2.397,0.565c0.122,2.072 0.182,3.57 0.182,4.494c-1.81,0.504 -2.801,0.756 -2.971,0.756c-1.179,-5.189 -1.768,-7.929 -1.768,-8.221c2.564,-0.334 3.955,-0.501 4.174,-0.501v0.063c0.043,0.031 0.107,0.663 0.192,1.896c2.351,-1.561 3.594,-2.342 3.727,-2.342z" data-paper-data="{&quot;origPos&quot;:null}" fill="#2b70c2"/><path d="M174.682,148.27606h0.055c2.747,0.231 4.12,0.41 4.12,0.538l1.212,10.728c0,0.079 -1.212,0.279 -3.637,0.601l-0.054,-0.118v-0.976c-2.091,0.566 -3.525,0.93 -4.302,1.094c-1.848,-2.613 -2.817,-4.004 -2.908,-4.174c1.361,-2.473 2.087,-3.725 2.178,-3.755l3.819,0.182c-0.079,-0.468 -0.24,-1.841 -0.483,-4.12zM172.987,154.81106c0.614,1.878 0.997,2.908 1.148,3.09l1.814,-1.577c-0.188,-1.087 -0.328,-1.631 -0.419,-1.631h-2.425c-0.079,0.012 -0.118,0.051 -0.118,0.118z" data-paper-data="{&quot;origPos&quot;:null}" fill="#2b70c2"/><path d="M193.003,151.03806c1.75,1.118 2.716,1.762 2.898,1.932c-0.632,1.404 -0.993,2.105 -1.085,2.105l-3.317,-1.923h-0.119c0,0.061 -0.143,0.401 -0.428,1.021c3.056,1.647 4.584,2.491 4.584,2.534c-0.856,1.981 -1.339,3.026 -1.449,3.135l-5.186,0.301c-2.017,-1.337 -3.102,-2.041 -3.254,-2.114v-0.055c0,-0.152 0.301,-0.836 0.902,-2.051l4.047,2.106l0.301,-1.204c-2.503,-1.124 -3.992,-1.825 -4.466,-2.105v-0.128c0,-0.23 0.483,-1.254 1.449,-3.071z" data-paper-data="{&quot;origPos&quot;:null}" fill="#2b70c2"/><path d="M199.529,148.28506l4.01,0.711l-0.383,3.044c0.796,-0.042 1.38,-0.063 1.75,-0.063h0.584l0.127,-0.064l0.064,0.127c-0.128,1.848 -0.237,2.887 -0.328,3.118l-0.128,-0.073c-0.091,0 -0.911,-0.043 -2.461,-0.128c-0.085,1.428 -0.149,3.135 -0.191,5.122l-0.128,0.064c-1.956,-0.127 -3.123,-0.237 -3.5,-0.328l0.064,-0.255c0,-0.529 0.085,-2.169 0.255,-4.922c-1.64,-0.091 -2.461,-0.201 -2.461,-0.328c0.085,-2.03 0.195,-3.044 0.328,-3.044l2.398,0.455v-0.784c0,-0.638 -0.025,-1.5 -0.073,-2.588c0.048,0 0.073,-0.021 0.073,-0.064z" data-paper-data="{&quot;origPos&quot;:null}" fill="#2b70c2"/><path d="M208.033,151.03806c3.609,0.498 5.414,0.805 5.414,0.92c1.421,1.222 2.132,1.875 2.132,1.96c-0.577,1.805 -0.905,2.901 -0.984,3.29c0.577,1.282 0.905,2.048 0.984,2.297c0,0.073 -0.941,0.268 -2.825,0.584c-0.024,-0.104 -0.198,-0.335 -0.52,-0.693c-2.6,0.498 -4.001,0.747 -4.201,0.747l-1.386,-3.746l3.054,-1.613c0.492,0.079 1.26,0.118 2.306,0.118c0,-0.133 0.018,-0.537 0.054,-1.212c-0.176,0 -1.75,0.116 -4.721,0.346l-0.055,-0.118c0.413,-1.92 0.662,-2.88 0.748,-2.88zM209.928,156.39707c0,0.067 0.195,0.778 0.584,2.133h0.054c0.766,-0.498 1.149,-0.826 1.149,-0.984l0.118,-0.976c-0.145,0 -0.78,-0.057 -1.905,-0.173z" data-paper-data="{&quot;origPos&quot;:null}" fill="#2b70c2"/><path d="M222.999,151.03806c1.203,0.674 1.941,1.112 2.215,1.312c-0.985,2.048 -1.513,3.09 -1.586,3.127h-0.064l-1.304,-1.14l-1.54,1.878l0.173,3.418c-0.079,0.073 -1.084,0.243 -3.017,0.51c-0.073,-0.522 -0.547,-3.084 -1.422,-7.683c0,-0.073 1.27,-0.262 3.81,-0.565c0.043,0.048 0.158,0.616 0.347,1.704c1.519,-1.708 2.315,-2.561 2.388,-2.561z" data-paper-data="{&quot;origPos&quot;:null}" fill="#2b70c2"/><path d="M229.944,148.62208l0.037,0.073c-0.608,5.366 -0.948,8.185 -1.021,8.459c-1.289,-0.122 -2.103,-0.207 -2.443,-0.256v-0.036l-0.583,-7.62c0.145,-0.048 1.482,-0.255 4.01,-0.62zM226.335,157.33608c0.042,0.024 0.99,0.097 2.843,0.219l0.037,0.073c-0.286,1.677 -0.468,2.515 -0.547,2.515h-2.115c-0.072,0 -0.17,-0.838 -0.291,-2.515c-0.025,0 -0.037,-0.073 -0.037,-0.219c0.073,-0.024 0.11,-0.049 0.11,-0.073z" data-paper-data="{&quot;origPos&quot;:null}" fill="#000000"/></g></g></g></svg>