<svg version="1.1" xmlns="http://www.w3.org/2000/svg" xmlns:xlink="http://www.w3.org/1999/xlink" width="37.12076" height="37.12076" viewBox="0,0,37.12076,37.12076"><defs><linearGradient x1="240" y1="162.06462" x2="240" y2="197.93538" gradientUnits="userSpaceOnUse" id="color-1"><stop offset="0" stop-color="#296ccc"/><stop offset="1" stop-color="#235cb0"/></linearGradient></defs><g transform="translate(-221.43962,-161.43962)"><g data-paper-data="{&quot;isPaintingLayer&quot;:true}" fill-rule="nonzero" stroke-linejoin="miter" stroke-miterlimit="10" stroke-dasharray="" stroke-dashoffset="0" style="mix-blend-mode: normal"><path d="M240,162.06462c4.94815,0 9.43255,2.00922 12.6788,5.25658c3.24737,3.24625 5.25658,7.73065 5.25658,12.6788c0,4.94815 -2.00922,9.43255 -5.25658,12.6788c-3.24625,3.24737 -7.73065,5.25658 -12.6788,5.25658c-4.94815,0 -9.43255,-2.00922 -12.6788,-5.25658c-3.24737,-3.24625 -5.25658,-7.73065 -5.25658,-12.6788c0,-4.94815 2.00922,-9.43255 5.25658,-12.6788c3.24625,-3.24737 7.73065,-5.25658 12.6788,-5.25658z" id="ID0.4039921844378114" fill="url(#color-1)" stroke="#183d78" stroke-width="1.25" stroke-linecap="butt"/><g fill="none" stroke="#183d78"><path d="M232.82113,167.99042l6.16866,8.53014l-8.24902,0.50044z" data-paper-data="{&quot;origPos&quot;:null}" id="ID0.3377200220711529" stroke-width="2.5" stroke-linecap="round"/><path d="M233.24573,173.50002c0.99443,-0.96951 2.23067,-1.72042 3.65261,-2.14831c4.71762,-1.41962 9.69284,1.25395 11.11246,5.97157c1.41962,4.71762 -1.25395,9.69284 -5.97157,11.11246c-3.58721,1.07945 -8.14337,-0.89104 -10.35201,-3.64395" data-paper-data="{&quot;origPos&quot;:null,&quot;origRot&quot;:0}" stroke-width="7" stroke-linecap="butt"/></g><g><path d="M232.82113,167.99042l6.16866,8.53014l-8.24902,0.50044z" data-paper-data="{&quot;origPos&quot;:null}" id="ID0.3377200220711529" fill="#ffffff" stroke="none" stroke-width="1.1379" stroke-linecap="round"/><path d="M233.24573,173.50002c0.99443,-0.96951 2.23067,-1.72042 3.65261,-2.14831c4.71762,-1.41962 9.69284,1.25395 11.11246,5.97157c1.41962,4.71762 -1.25395,9.69284 -5.97157,11.11246c-3.58721,1.07945 -7.32337,-0.20771 -9.53201,-2.96062" data-paper-data="{&quot;origPos&quot;:null,&quot;origRot&quot;:0}" fill="none" stroke="#ffffff" stroke-width="3.5" stroke-linecap="butt"/></g></g></g></svg>