<svg version="1.1" xmlns="http://www.w3.org/2000/svg" xmlns:xlink="http://www.w3.org/1999/xlink" width="500.35074" height="322.99391" viewBox="0,0,500.35074,322.99391"><g transform="translate(10.17537,-38.50305)"><g data-paper-data="{&quot;isPaintingLayer&quot;:true}" fill="#001ee8" fill-rule="nonzero" stroke="#001f66" stroke-linecap="butt" stroke-linejoin="miter" stroke-miterlimit="10" stroke-dasharray="" stroke-dashoffset="0" style="mix-blend-mode: normal"><path d="M405.31492,347.39408l-7.13857,-10.86466l66.85947,-43.92963l7.13857,10.86466z" data-paper-data="{&quot;index&quot;:null}" stroke-width="2"/><path d="M327.17635,307.46446l7.13856,-10.86466l66.85947,43.92963l-7.13856,10.86466z" data-paper-data="{&quot;index&quot;:null}" stroke-width="2"/><path d="M267.31492,350.39408l-7.13856,-10.86466l66.85947,-43.92963l7.13856,10.86466z" data-paper-data="{&quot;index&quot;:null}" stroke-width="2"/><path d="M199.17635,307.46446l7.13856,-10.86466l66.85947,43.92963l-7.13856,10.86466z" data-paper-data="{&quot;index&quot;:null}" stroke-width="2"/><path d="M10.31492,352.39408l-7.13857,-10.86466l66.85947,-43.92963l7.13857,10.86466z" data-paper-data="{&quot;index&quot;:null}" stroke-width="2"/><path d="M70.17635,307.46446l7.13857,-10.86466l66.85947,43.92963l-7.13857,10.86466z" data-paper-data="{&quot;index&quot;:null}" stroke-width="2"/><path d="M138.31492,352.39408l-7.13857,-10.86466l66.85947,-43.92963l7.13856,10.86466z" data-paper-data="{&quot;index&quot;:null}" stroke-width="2"/><path d="M-1.82463,306.49694v-23h490v23z" data-paper-data="{&quot;index&quot;:null}" stroke-width="2"/><path d="M-1.82463,360.49696v-23h491v23z" data-paper-data="{&quot;index&quot;:null}" stroke-width="2"/><path d="M-0.57684,49.68919l3.8204,-5.81451l35.78163,23.51012l-3.8204,5.81452z" data-paper-data="{&quot;index&quot;:null}" stroke-width="1"/><path d="M41.2411,75.34001l-3.82039,-5.81451l35.78163,-23.51012l3.8204,5.81451z" data-paper-data="{&quot;index&quot;:null}" stroke-width="1"/><path d="M73.27755,51.29472l3.82039,-5.81451l35.78163,23.51011l-3.82039,5.81452z" data-paper-data="{&quot;index&quot;:null}" stroke-width="1"/><path d="M109.74372,75.34001l-3.82039,-5.81451l35.78163,-23.51012l3.82039,5.81451z" data-paper-data="{&quot;index&quot;:null}" stroke-width="1"/><path d="M210.81797,52.36508l3.8204,-5.81451l35.78163,23.51012l-3.82039,5.81452z" data-paper-data="{&quot;index&quot;:null}" stroke-width="1"/><path d="M178.78152,75.34001l-3.8204,-5.81451l35.78163,-23.51012l3.8204,5.81451z" data-paper-data="{&quot;index&quot;:null}" stroke-width="1"/><path d="M142.31535,52.36508l3.82039,-5.81451l35.78163,23.51012l-3.82039,5.81452z" data-paper-data="{&quot;index&quot;:null}" stroke-width="1"/><path d="M-9.14019,51.31211v-12.30906h262.2366v12.30906z" data-paper-data="{&quot;index&quot;:null}" stroke-width="1"/><path d="M-9.67537,80.21165v-12.30907h262.77177v12.30907z" data-paper-data="{&quot;index&quot;:null}" stroke-width="1"/></g></g></svg>