<svg xmlns="http://www.w3.org/2000/svg" xmlns:xlink="http://www.w3.org/1999/xlink" version="1.1" width="60.85373607499181" height="25.961035879679308" viewBox="0.5018822390696474 -1.4290176790097289 60.85373607499181 25.961035879679308">
  <!-- Exported by Scratch - http://scratch.mit.edu/ -->
  <g id="ID0.08441779064014554">
    <path id="ID0.806805937550962" fill="#7F7F7F" stroke="none" d="M 31.0072 0.5998 C 34.1021 0.5998 36.9068 1.0833 38.9373 1.8643 C 40.9682 2.6454 42.2252 3.7239 42.2252 4.9144 C 42.2252 6.1049 40.9682 7.1834 38.9373 7.9644 C 36.9068 8.7455 34.1021 9.229 31.0072 9.229 C 27.9123 9.229 25.1076 8.7455 23.0771 7.9644 C 21.0463 7.1834 19.7892 6.1049 19.7892 4.9144 C 19.7892 3.7239 21.0463 2.6454 23.0771 1.8643 C 25.1076 1.0833 27.9123 0.5998 31.0072 0.5998 Z " stroke-width="0.31379079818725586"/>
    <path id="ID0.6761370436288416" fill="#666666" stroke="#B2B2B2" stroke-width="4.057635458536731" d="M 30.9288 6.3099 C 38.7635 6.3099 45.863 7.2172 51.0039 8.6829 C 56.1447 10.1486 59.3268 12.1728 59.3268 14.4066 C 59.3268 16.6404 56.1447 18.6645 51.0039 20.1302 C 45.863 21.5959 38.7635 22.5032 30.9288 22.5032 C 23.0941 22.5032 15.9945 21.5959 10.8537 20.1302 C 5.7129 18.6645 2.5307 16.6404 2.5307 14.4066 C 2.5307 12.1728 5.7129 10.1486 10.8537 8.6829 C 15.9945 7.2172 23.0941 6.3099 30.9288 6.3099 Z "/>
    <path id="ID0.0684038670733571" fill="#FF0000" stroke="none" d="M 29.5952 5.9342 C 31.2184 5.9342 32.6891 6.4002 33.7545 7.1527 C 34.8195 7.9054 35.4787 8.9447 35.4787 10.0919 C 35.4787 11.2392 34.8195 12.2784 33.7545 13.0312 C 32.6891 13.7837 31.2184 14.2497 29.5952 14.2497 C 27.9719 14.2497 26.5012 13.7837 25.4359 13.0312 C 24.3709 12.2784 23.7116 11.2392 23.7116 10.0919 C 23.7116 8.9447 24.3709 7.9054 25.4359 7.1527 C 26.5012 6.4002 27.9719 5.9342 29.5952 5.9342 Z " stroke-width="0.31379079818725586"/>
    <path id="ID0.0684038670733571" fill="#FF0000" stroke="none" d="M 14.6901 13.779 C 16.3133 13.779 17.7841 14.245 18.8494 14.9974 C 19.9144 15.7502 20.5737 16.7895 20.5737 17.9367 C 20.5737 19.0839 19.9144 20.1232 18.8494 20.876 C 17.7841 21.6285 16.3133 22.0944 14.6901 22.0944 C 13.0669 22.0944 11.5961 21.6285 10.5308 20.876 C 9.4658 20.1232 8.8065 19.0839 8.8065 17.9367 C 8.8065 16.7895 9.4658 15.7502 10.5308 14.9974 C 11.5961 14.245 13.0669 13.779 14.6901 13.779 Z " stroke-width="0.31379079818725586"/>
    <path id="ID0.0684038670733571" fill="#FF0000" stroke="none" d="M 46.6183 14.1712 C 48.2416 14.1712 49.7123 14.6372 50.7776 15.3897 C 51.8426 16.1425 52.5019 17.1817 52.5019 18.3289 C 52.5019 19.4762 51.8426 20.5154 50.7776 21.2682 C 49.7123 22.0207 48.2416 22.4867 46.6183 22.4867 C 44.9951 22.4867 43.5243 22.0207 42.459 21.2682 C 41.394 20.5154 40.7347 19.4762 40.7347 18.3289 C 40.7347 17.1817 41.394 16.1425 42.459 15.3897 C 43.5243 14.6372 44.9951 14.1712 46.6183 14.1712 Z " stroke-width="0.31379079818725586"/>
  </g>
</svg>