<svg version="1.1" xmlns="http://www.w3.org/2000/svg" xmlns:xlink="http://www.w3.org/1999/xlink" width="441.55828" height="91.66968" viewBox="0,0,441.55828,91.66968"><defs><linearGradient x1="25.5327" y1="70.2076" x2="25.5327" y2="149.819" gradientUnits="userSpaceOnUse" id="color-1"><stop offset="0" stop-color="#ffffff"/><stop offset="1" stop-color="#ffffff"/></linearGradient><radialGradient cx="57.6388" cy="80.606" r="25.8639" gradientUnits="userSpaceOnUse" id="color-2"><stop offset="0" stop-color="#2ebdff"/><stop offset="1" stop-color="#18628c"/></radialGradient></defs><g transform="translate(-19.50356,-64.17846)"><g data-paper-data="{&quot;isPaintingLayer&quot;:true}" fill-rule="nonzero" stroke-linecap="butt" stroke-linejoin="miter" stroke-miterlimit="10" stroke-dasharray="" stroke-dashoffset="0" style="mix-blend-mode: normal"><path d="M25.5327,70.2076h429.5v79.6114h-429.5z" fill="#ffffff" stroke="url(#color-1)" stroke-width="12.05828"/><text transform="translate(30.824,105.65769) scale(0.76202,0.76202)" font-size="22" xml:space="preserve" fill="#2392d1" fill-rule="nonzero" stroke="none" stroke-width="1" stroke-linecap="butt" stroke-linejoin="miter" stroke-miterlimit="10" stroke-dasharray="" stroke-dashoffset="0" font-family="Sans Serif" font-weight="400" text-anchor="start" style="mix-blend-mode: normal"><tspan x="0" dy="0">Luigi is Mario's twin brother. He can jump quite a bit</tspan><tspan x="0" dy="24.86px">higher than Mario. After overcoming his fear, he is</tspan><tspan x="0" dy="24.86px">ready for a new adventure!</tspan></text><g><path d="M61.8977,72.0137c-0.484,1.8672 -0.8097,2.7958 -0.9579,2.7958c-2.0448,-0.1386 -3.0624,-0.2766 -3.0624,-0.4051v-2.8646c0.0197,-0.089 0.0693,-0.1381 0.1381,-0.1381zM80.8242,72.0137c-0.484,1.8672 -0.8102,2.7958 -0.9584,2.7958c-2.0448,-0.1386 -3.0618,-0.2766 -3.0618,-0.4051v-2.8646c0.0197,-0.089 0.0687,-0.1381 0.138,-0.1381zM36.4119,72.4385c0.0496,1.3337 0.1189,4.3268 0.2079,8.9697h0.0592l5.8971,-2.0747c0,0.0496 0.0198,0.0693 0.0693,0.0693l-0.1977,4.959c0,0.0885 -3.0624,0.3753 -9.1765,0.8689c-0.1386,-0.6914 -0.7905,-4.8007 -1.9462,-12.3279c0.5235,-0.089 2.193,-0.2665 5.0278,-0.5331c0,0.0491 0.0197,0.0688 0.0591,0.0688zM49.0559,75.4908l-1.3331,7.073h0.0687l3.3982,-0.9978v-4.0006c0.0102,-0.089 0.0592,-0.1381 0.1285,-0.1381c2.5586,0.1776 3.9808,0.2666 4.2676,0.2666c0,0.0495 0.0197,0.0693 0.0688,0.0693c0,1.1258 -0.3556,3.4573 -1.0667,7.0032c0,0.2074 -1.0175,0.3556 -3.0623,0.4643c-0.1088,-0.1285 -0.1973,-0.395 -0.2666,-0.8001c-2.6178,0.5336 -4.1093,0.8001 -4.4749,0.8001c-2.0843,-1.5507 -3.1312,-2.3508 -3.1312,-2.4003c0.3556,-4.6722 0.5826,-7.0923 0.6717,-7.2703h0.0591c1.6695,-0.0491 3.2005,-0.1088 4.6035,-0.1973zM73.7911,75.7578c0.4841,7.29 0.7207,11.1723 0.7207,11.6365c-2.1236,1.353 -3.6348,2.2618 -4.5533,2.7458c-3.2303,-1.0171 -4.8406,-1.5901 -4.8406,-1.7383c1.0373,-1.5213 1.6396,-2.2916 1.8076,-2.3118c1.7585,0.8694 2.766,1.3043 3.033,1.3043l0.9382,-1.235c-0.2468,-1.0176 -0.4147,-1.62 -0.5038,-1.8076c-0.1481,0 -1.9264,0.2863 -5.3539,0.8694c-1.8769,-3.0523 -2.8151,-4.613 -2.8151,-4.6924c1.62,-2.588 2.6077,-4.1093 2.9633,-4.5539h0.0692c0.1877,0 1.6099,0.3161 4.2671,0.9387v-0.2175c0,-0.2569 -0.0197,-0.6716 -0.0692,-1.2346l0.1385,-0.0692c2.7954,0.0692 4.1983,0.1977 4.1983,0.3656zM56.9883,76.1033c3.0032,0.5436 4.5043,0.8694 4.5043,0.9584c-0.8593,4.8897 -1.3828,7.6061 -1.5704,8.169h-3.1317c-0.0885,0 -0.138,-0.0491 -0.138,-0.1381l0.2766,-8.9893zM75.9148,76.1033c3.0027,0.5436 4.5043,0.8694 4.5043,0.9584c-0.8593,4.8897 -1.3827,7.6061 -1.5704,8.169h-3.1316c-0.0885,0 -0.1381,-0.0491 -0.1381,-0.1381l0.2767,-8.9893zM67.3604,82.8405c0.6125,-0.1978 1.5507,-0.5634 2.8151,-1.0869c-0.2468,-1.185 -0.3652,-1.8571 -0.3652,-2.0251l-0.356,-0.0687h-0.4345c-0.5533,0 -1.3929,-0.0299 -2.5288,-0.0794c0.089,0.2078 0.3854,1.2942 0.8694,3.2601z" fill="#000000" stroke="#dbf1ff" stroke-width="4.55184"/><path d="M61.8977,72.0137c-0.484,1.8672 -0.8097,2.7958 -0.9579,2.7958c-2.0448,-0.1386 -3.0624,-0.2766 -3.0624,-0.4051v-2.8646c0.0197,-0.089 0.0693,-0.1381 0.1381,-0.1381zM80.8242,72.0137c-0.484,1.8672 -0.8102,2.7958 -0.9584,2.7958c-2.0448,-0.1386 -3.0618,-0.2766 -3.0618,-0.4051v-2.8646c0.0197,-0.089 0.0687,-0.1381 0.138,-0.1381zM36.4119,72.4385c0.0496,1.3337 0.1189,4.3268 0.2079,8.9697h0.0592l5.8971,-2.0747c0,0.0496 0.0198,0.0693 0.0693,0.0693l-0.1977,4.959c0,0.0885 -3.0624,0.3753 -9.1765,0.8689c-0.1386,-0.6914 -0.7905,-4.8007 -1.9462,-12.3279c0.5235,-0.089 2.193,-0.2665 5.0278,-0.5331c0,0.0491 0.0197,0.0688 0.0591,0.0688zM49.0559,75.4908l-1.3331,7.073h0.0687l3.3982,-0.9978v-4.0006c0.0102,-0.089 0.0592,-0.1381 0.1285,-0.1381c2.5586,0.1776 3.9808,0.2666 4.2676,0.2666c0,0.0495 0.0197,0.0693 0.0688,0.0693c0,1.1258 -0.3556,3.4573 -1.0667,7.0032c0,0.2074 -1.0175,0.3556 -3.0623,0.4643c-0.1088,-0.1285 -0.1973,-0.395 -0.2666,-0.8001c-2.6178,0.5336 -4.1093,0.8001 -4.4749,0.8001c-2.0843,-1.5507 -3.1312,-2.3508 -3.1312,-2.4003c0.3556,-4.6722 0.5826,-7.0923 0.6717,-7.2703h0.0591c1.6695,-0.0491 3.2005,-0.1088 4.6035,-0.1973zM73.7911,75.7578c0.4841,7.29 0.7207,11.1723 0.7207,11.6365c-2.1236,1.353 -3.6348,2.2618 -4.5533,2.7458c-3.2303,-1.0171 -4.8406,-1.5901 -4.8406,-1.7383c1.0373,-1.5213 1.6396,-2.2916 1.8076,-2.3118c1.7585,0.8694 2.766,1.3043 3.033,1.3043l0.9382,-1.235c-0.2468,-1.0176 -0.4147,-1.62 -0.5038,-1.8076c-0.1481,0 -1.9264,0.2863 -5.3539,0.8694c-1.8769,-3.0523 -2.8151,-4.613 -2.8151,-4.6924c1.62,-2.588 2.6077,-4.1093 2.9633,-4.5539h0.0692c0.1877,0 1.6099,0.3161 4.2671,0.9387v-0.2175c0,-0.2569 -0.0197,-0.6716 -0.0692,-1.2346l0.1385,-0.0692c2.7954,0.0692 4.1983,0.1977 4.1983,0.3656zM56.9883,76.1033c3.0032,0.5436 4.5043,0.8694 4.5043,0.9584c-0.8593,4.8897 -1.3828,7.6061 -1.5704,8.169h-3.1317c-0.0885,0 -0.138,-0.0491 -0.138,-0.1381l0.2766,-8.9893zM75.9148,76.1033c3.0027,0.5436 4.5043,0.8694 4.5043,0.9584c-0.8593,4.8897 -1.3827,7.6061 -1.5704,8.169h-3.1316c-0.0885,0 -0.1381,-0.0491 -0.1381,-0.1381l0.2767,-8.9893zM67.3604,82.8405c0.6125,-0.1978 1.5507,-0.5634 2.8151,-1.0869c-0.2468,-1.185 -0.3652,-1.8571 -0.3652,-2.0251l-0.356,-0.0687h-0.4345c-0.5533,0 -1.3929,-0.0299 -2.5288,-0.0794c0.089,0.2078 0.3854,1.2942 0.8694,3.2601z" fill="url(#color-2)" stroke="none" stroke-width="0.50576"/></g></g></g></svg>