<svg version="1.1" xmlns="http://www.w3.org/2000/svg" xmlns:xlink="http://www.w3.org/1999/xlink" width="446.91778" height="285.95847" viewBox="0,0,446.91778,285.95847"><defs><linearGradient x1="32.61768" y1="40.06197" x2="32.61768" y2="190.97919" gradientUnits="userSpaceOnUse" id="color-1"><stop offset="0" stop-color="#42abfe"/><stop offset="1" stop-color="#3c95ed"/></linearGradient><linearGradient x1="273.95878" y1="40.14303" x2="273.95878" y2="66.9831" gradientUnits="userSpaceOnUse" id="color-2"><stop offset="0" stop-color="#42abfe"/><stop offset="1" stop-color="#41a9fc"/></linearGradient><linearGradient x1="274.04606" y1="164.12607" x2="274.04606" y2="190.96616" gradientUnits="userSpaceOnUse" id="color-3"><stop offset="0" stop-color="#3c96ee"/><stop offset="1" stop-color="#3d96ef"/></linearGradient><linearGradient x1="19.672" y1="40.02076" x2="19.672" y2="66.86083" gradientUnits="userSpaceOnUse" id="color-4"><stop offset="0" stop-color="#42abfe"/><stop offset="1" stop-color="#41a9fc"/></linearGradient><linearGradient x1="19.54109" y1="164.12607" x2="19.54109" y2="190.96616" gradientUnits="userSpaceOnUse" id="color-5"><stop offset="0" stop-color="#3c96ee"/><stop offset="1" stop-color="#3d96ef"/></linearGradient><linearGradient x1="19.64633" y1="52.21103" x2="19.64633" y2="178.63204" gradientUnits="userSpaceOnUse" id="color-6"><stop offset="0" stop-color="#41a9fc"/><stop offset="1" stop-color="#3c96ee"/></linearGradient><linearGradient x1="32.61768" y1="40.06197" x2="32.61768" y2="190.97919" gradientUnits="userSpaceOnUse" id="color-7"><stop offset="0" stop-color="#42abfe"/><stop offset="1" stop-color="#3c95ed"/></linearGradient><linearGradient x1="273.95878" y1="40.14303" x2="273.95878" y2="66.9831" gradientUnits="userSpaceOnUse" id="color-8"><stop offset="0" stop-color="#42abfe"/><stop offset="1" stop-color="#41a9fc"/></linearGradient><linearGradient x1="274.04606" y1="164.12607" x2="274.04606" y2="190.96616" gradientUnits="userSpaceOnUse" id="color-9"><stop offset="0" stop-color="#3c96ee"/><stop offset="1" stop-color="#3d96ef"/></linearGradient><linearGradient x1="19.672" y1="40.02076" x2="19.672" y2="66.86083" gradientUnits="userSpaceOnUse" id="color-10"><stop offset="0" stop-color="#42abfe"/><stop offset="1" stop-color="#41a9fc"/></linearGradient><linearGradient x1="19.54109" y1="164.12607" x2="19.54109" y2="190.96616" gradientUnits="userSpaceOnUse" id="color-11"><stop offset="0" stop-color="#3c96ee"/><stop offset="1" stop-color="#3d96ef"/></linearGradient><linearGradient x1="19.64633" y1="52.21103" x2="19.64633" y2="178.63204" gradientUnits="userSpaceOnUse" id="color-12"><stop offset="0" stop-color="#41a9fc"/><stop offset="1" stop-color="#3c96ee"/></linearGradient></defs><g transform="translate(-16.54111,-37.02076)"><g data-paper-data="{&quot;isPaintingLayer&quot;:true}" fill-rule="nonzero" stroke-linecap="butt" stroke-linejoin="miter" stroke-miterlimit="10" stroke-dasharray="" stroke-dashoffset="0" style="mix-blend-mode: normal"><g><g stroke="#244555" stroke-width="6"><path d="M32.61768,40.06204h415.39209v279.9172h-415.39208z" fill="url(#color-1)"/><path d="M447.09881,40.14303c3.6252,0 6.91069,1.50339 9.28897,3.93322c2.37908,2.42898 3.85112,5.7844 3.85112,9.48678c0,3.70243 -1.47205,7.05787 -3.85112,9.48685c-2.37829,2.42984 -5.66377,3.93323 -9.28897,3.93323c-3.62511,0 -6.9106,-1.50339 -9.28889,-3.93323c-2.37916,-2.42898 -3.85112,-5.78441 -3.85112,-9.48685c0,-3.70238 1.47196,-7.0578 3.85112,-9.48678c2.37829,-2.42983 5.66378,-3.93322 9.28889,-3.93322z" fill="url(#color-2)"/><path d="M447.18607,293.1261c3.6252,0 6.91069,1.50339 9.28897,3.93322c2.37908,2.42898 3.85112,5.78441 3.85112,9.48678c0,3.70244 -1.47205,7.05786 -3.85112,9.48684c-2.37829,2.42983 -5.66377,3.93322 -9.28897,3.93322c-3.62511,0 -6.9106,-1.50339 -9.28889,-3.93322c-2.37916,-2.42898 -3.85112,-5.7844 -3.85112,-9.48684c0,-3.70237 1.47196,-7.0578 3.85112,-9.48678c2.37829,-2.42983 5.66378,-3.93322 9.28889,-3.93322z" fill="url(#color-3)"/><path d="M32.81201,40.02076c3.6252,0 6.91068,1.50339 9.28897,3.93322c2.37908,2.42898 3.85112,5.7844 3.85112,9.48678c0,3.70243 -1.47205,7.05787 -3.85112,9.48685c-2.37829,2.42983 -5.66377,3.93322 -9.28897,3.93322c-3.62511,0 -6.9106,-1.50339 -9.28889,-3.93322c-2.37916,-2.42898 -3.85113,-5.78441 -3.85113,-9.48685c0,-3.70238 1.47197,-7.0578 3.85113,-9.48678c2.37829,-2.42983 5.66378,-3.93322 9.28889,-3.93322z" fill="url(#color-4)"/><path d="M32.68112,293.1261c3.6252,0 6.91069,1.50339 9.28897,3.93322c2.37908,2.42898 3.85112,5.78441 3.85112,9.48678c0,3.70244 -1.47205,7.05786 -3.85112,9.48684c-2.37829,2.42983 -5.66377,3.93322 -9.28897,3.93322c-3.62511,0 -6.9106,-1.50339 -9.28889,-3.93322c-2.37916,-2.42898 -3.85112,-5.7844 -3.85112,-9.48684c0,-3.70237 1.47196,-7.0578 3.85112,-9.48678c2.37829,-2.42983 5.66378,-3.93322 9.28889,-3.93322z" fill="url(#color-5)"/><path d="M19.64633,52.21103h440.81256v255.42101h-440.81256z" fill="url(#color-6)"/></g><g stroke="none"><path d="M32.61768,40.06204h415.39209v279.9172h-415.39208z" fill="url(#color-7)" stroke-width="6.59245"/><path d="M447.09881,40.14303c3.6252,0 6.91069,1.50339 9.28897,3.93322c2.37908,2.42898 3.85112,5.7844 3.85112,9.48678c0,3.70243 -1.47205,7.05787 -3.85112,9.48685c-2.37829,2.42984 -5.66377,3.93323 -9.28897,3.93323c-3.62511,0 -6.9106,-1.50339 -9.28889,-3.93323c-2.37916,-2.42898 -3.85112,-5.78441 -3.85112,-9.48685c0,-3.70238 1.47196,-7.0578 3.85112,-9.48678c2.37829,-2.42983 5.66378,-3.93322 9.28889,-3.93322z" fill="url(#color-8)" stroke-width="1.17276"/><path d="M447.18607,293.1261c3.6252,0 6.91069,1.50339 9.28897,3.93322c2.37908,2.42898 3.85112,5.78441 3.85112,9.48678c0,3.70244 -1.47205,7.05786 -3.85112,9.48684c-2.37829,2.42983 -5.66377,3.93322 -9.28897,3.93322c-3.62511,0 -6.9106,-1.50339 -9.28889,-3.93322c-2.37916,-2.42898 -3.85112,-5.7844 -3.85112,-9.48684c0,-3.70237 1.47196,-7.0578 3.85112,-9.48678c2.37829,-2.42983 5.66378,-3.93322 9.28889,-3.93322z" fill="url(#color-9)" stroke-width="1.17276"/><path d="M32.81201,40.02076c3.6252,0 6.91068,1.50339 9.28897,3.93322c2.37908,2.42898 3.85112,5.7844 3.85112,9.48678c0,3.70243 -1.47205,7.05787 -3.85112,9.48685c-2.37829,2.42983 -5.66377,3.93322 -9.28897,3.93322c-3.62511,0 -6.9106,-1.50339 -9.28889,-3.93322c-2.37916,-2.42898 -3.85113,-5.78441 -3.85113,-9.48685c0,-3.70238 1.47197,-7.0578 3.85113,-9.48678c2.37829,-2.42983 5.66378,-3.93322 9.28889,-3.93322z" fill="url(#color-10)" stroke-width="1.17276"/><path d="M32.68112,293.1261c3.6252,0 6.91069,1.50339 9.28897,3.93322c2.37908,2.42898 3.85112,5.78441 3.85112,9.48678c0,3.70244 -1.47205,7.05786 -3.85112,9.48684c-2.37829,2.42983 -5.66377,3.93322 -9.28897,3.93322c-3.62511,0 -6.9106,-1.50339 -9.28889,-3.93322c-2.37916,-2.42898 -3.85112,-5.7844 -3.85112,-9.48684c0,-3.70237 1.47196,-7.0578 3.85112,-9.48678c2.37829,-2.42983 5.66378,-3.93322 9.28889,-3.93322z" fill="url(#color-11)" stroke-width="1.17276"/><path d="M19.64633,52.21103h440.81256v255.42101h-440.81256z" fill="url(#color-12)" stroke-width="1.74925"/></g></g><text transform="translate(190.29711,75.65452) scale(1.31129,1.31129)" font-size="22" xml:space="preserve" fill="#244555" fill-rule="nonzero" stroke="none" stroke-width="1" stroke-linecap="butt" stroke-linejoin="miter" stroke-miterlimit="10" stroke-dasharray="" stroke-dashoffset="0" font-family="Malgun Gothic" font-weight="400" text-anchor="start" style="mix-blend-mode: normal"><tspan x="0" dy="0">NOTICE</tspan></text><text transform="translate(27.93677,104.56841) scale(0.45864,0.45864)" font-size="40" xml:space="preserve" fill="#244555" fill-rule="nonzero" stroke="none" stroke-width="1" stroke-linecap="butt" stroke-linejoin="miter" stroke-miterlimit="10" stroke-dasharray="" stroke-dashoffset="0" font-family="Malgun Gothic" font-weight="normal" text-anchor="start" style="mix-blend-mode: normal"><tspan x="0" dy="0">It appears that you are using the default Scratch</tspan><tspan x="0" dy="46.15px">player. This could be laggy and very slow. </tspan><tspan x="0" dy="46.15px">TurboWarp is an alternative player that is much </tspan><tspan x="0" dy="46.15px">faster than Scratch is, especially for large games </tspan><tspan x="0" dy="46.15px">like Super Mario Scralaxy. The Scralaxy Team</tspan><tspan x="0" dy="46.15px">recommends using TurboWarp over Scratch's </tspan><tspan x="0" dy="46.15px">default player. A link to TurboWarp is provided</tspan><tspan x="0" dy="46.15px">in the instructions.</tspan></text><text transform="translate(130.92412,306.33038) scale(0.71786,0.71786)" font-size="22" xml:space="preserve" data-paper-data="{&quot;origPos&quot;:null}" fill="#244555" fill-rule="nonzero" stroke="none" stroke-width="1" stroke-linecap="butt" stroke-linejoin="miter" stroke-miterlimit="10" stroke-dasharray="" stroke-dashoffset="0" font-family="Malgun Gothic" font-weight="400" text-anchor="start" style="mix-blend-mode: normal"><tspan x="0" dy="0">(Space/Tap out to continue)</tspan></text></g></g></svg>