<svg version="1.1" xmlns="http://www.w3.org/2000/svg" xmlns:xlink="http://www.w3.org/1999/xlink" width="121.71511" height="104.92357" viewBox="0,0,121.71511,104.92357"><defs><linearGradient x1="230.29437" y1="203.26221" x2="230.29437" y2="223.40007" gradientUnits="userSpaceOnUse" id="color-1"><stop offset="0" stop-color="#000000"/><stop offset="1" stop-color="#3f0000"/></linearGradient><linearGradient x1="249.52308" y1="203.26221" x2="249.52308" y2="223.40007" gradientUnits="userSpaceOnUse" id="color-2"><stop offset="0" stop-color="#000000"/><stop offset="1" stop-color="#3f0000"/></linearGradient></defs><g transform="translate(-179.14244,-127.53821)"><g data-paper-data="{&quot;isPaintingLayer&quot;:true}" fill="none" fill-rule="nonzero" stroke="none" stroke-width="none" stroke-linecap="none" stroke-linejoin="miter" stroke-miterlimit="10" stroke-dasharray="" stroke-dashoffset="0" font-family="none" font-weight="none" font-size="none" text-anchor="none" style="mix-blend-mode: normal"><path d="M239.2661,127.53821c16.24478,0 31.90241,5.28034 41.62354,14.71169c12.94341,12.55858 18.78963,30.51553 19.62738,47.07774c0.3771,7.81087 -8.16754,15.83941 -16.3712,18.26949c-14.59634,4.31776 -30.64466,1.21985 -46.29102,0.88398c-14.51507,-0.31227 -30.13659,2.0823 -43.4684,-2.94679c-8.05464,-3.03883 -14.76119,-11.64898 -14.33893,-19.25147c0.86033,-15.5054 5.48493,-32.80823 17.59511,-44.03294c9.96498,-9.23493 25.37877,-14.71169 41.62354,-14.71169z" data-paper-data="{&quot;origPos&quot;:null}" id="ID0.664129285607487" fill="#ff0000" stroke-width="0.93172" stroke-linecap="round"/><path d="M240.56451,136.73154c7.44495,0 14.18989,3.06564 19.07641,8.0178c4.88428,4.95447 7.90787,11.79319 7.90787,19.34164c0,7.54846 -3.02359,14.38717 -7.90787,19.34164c-4.88653,4.95216 -11.63147,8.0178 -19.07641,8.0178c-7.44495,0 -14.18989,-3.06564 -19.07641,-8.0178c-4.88428,-4.95447 -7.90787,-11.79319 -7.90787,-19.34164c0,-7.54846 3.02359,-14.38717 7.90787,-19.34164c4.88653,-4.95216 11.63147,-8.0178 19.07641,-8.0178z" data-paper-data="{&quot;origPos&quot;:null}" id="ID0.5112368017435074" fill="#ffffff" stroke-width="1" stroke-linecap="butt"/><path d="M288.66202,151.8422c1.37294,-0.38006 2.70069,2.28035 3.38715,3.77765c2.6352,5.68254 4.94974,11.69015 6.54849,17.62911c1.30293,4.83541 2.18359,9.87004 2.2581,14.88174c0.03839,2.80234 -0.53516,5.71914 -2.03228,8.01322c-0.70228,1.32561 -2.58552,2.37191 -3.95166,1.83158c-3.54069,-1.41949 -6.82849,-2.64894 -9.17918,-6.92801c-2.35068,-4.27905 -3.8049,-10.18824 -3.8049,-16.71105c0,-6.52276 2.09777,-11.27118 3.8049,-16.71105c0.64355,-2.04222 1.16518,-5.16053 2.9694,-5.78326z" data-paper-data="{&quot;origPos&quot;:null}" id="ID0.4402989586815238" fill="#ffffff" stroke-width="1" stroke-linecap="round"/><path d="M194.30736,155.10701c1.70261,5.44214 3.8049,10.18824 3.8049,16.71105c0,6.52276 -1.45421,12.43196 -3.8049,16.71105c-2.35068,4.27905 -5.63846,5.50853 -9.17918,6.92801c-1.36614,0.54031 -3.2494,-0.50598 -3.95166,-1.83158c-1.49712,-2.29407 -2.07067,-5.21089 -2.03228,-8.01322c0.07451,-5.01172 0.95517,-10.04632 2.2581,-14.88174c1.59873,-5.93895 3.84328,-11.98321 6.54849,-17.62911c0.67518,-1.41718 2.03907,-3.61741 3.38715,-3.20531c1.82907,0.59066 2.37326,3.31976 2.9694,5.21089z" data-paper-data="{&quot;origPos&quot;:null}" id="ID0.4402989586815238" fill="#ffffff" stroke-width="1" stroke-linecap="round"/><path d="M239.71319,195.58209c11.46621,0 20.42385,1.09458 29.38148,5.40377c4.65828,2.23842 8.0938,7.84531 7.94194,12.93746c0.15186,5.12962 -3.21464,10.81936 -7.94194,13.13469c-8.92606,4.37626 -17.91523,5.40377 -29.38147,5.40377c-11.46621,0 -20.60921,-0.72379 -29.38147,-5.40377c-4.74506,-2.5303 -7.24181,-8.97339 -7.25167,-14.31801c0.00986,-4.59713 3.02335,-9.78198 7.25167,-11.75414c9.01087,-4.20466 17.91523,-5.40377 29.38147,-5.40377z" data-paper-data="{&quot;origPos&quot;:null}" id="ID0.7818866483867168" fill="#ffdea8" stroke-width="1" stroke-linecap="butt"/><g data-paper-data="{&quot;origPos&quot;:null}" stroke-width="2.7956"><path d="M230.15644,203.26411c1.54936,-0.04949 3.03793,0.8987 3.74358,2.32677c1.09732,2.21633 1.4943,4.63128 1.4943,7.59742c0,2.96614 -0.45775,5.50237 -1.4943,7.59742c-0.82141,1.68719 -2.22186,2.74014 -3.74358,2.60227c-1.40024,0.13785 -2.67387,-0.93717 -3.46788,-2.60227c-1.01446,-2.10608 -1.49411,-4.63128 -1.49411,-7.59742c0,-2.96614 0.36937,-5.39213 1.49411,-7.59742c0.73878,-1.45567 2.15027,-2.37627 3.46788,-2.32677z" data-paper-data="{&quot;origPos&quot;:null}" id="ID0.6670762049034238" fill="url(#color-1)" stroke-linecap="round"/><path d="M249.38515,203.26411c1.54936,-0.04949 3.03793,0.8987 3.74356,2.32677c1.09732,2.21633 1.49432,4.63128 1.49432,7.59742c0,2.96614 -0.45775,5.50237 -1.49432,7.59742c-0.82141,1.68719 -2.22184,2.74014 -3.74356,2.60227c-1.40024,0.13785 -2.67387,-0.93717 -3.46788,-2.60227c-1.01446,-2.10608 -1.49411,-4.63128 -1.49411,-7.59742c0,-2.96614 0.36937,-5.39213 1.49411,-7.59742c0.73878,-1.45567 2.15027,-2.37627 3.46788,-2.32677z" data-paper-data="{&quot;origPos&quot;:null}" id="ID0.6670762049034238" fill="url(#color-2)" stroke-linecap="round"/><path d="M249.61353,204.78149c0.79952,0 1.52173,0.32522 2.04553,0.84903c0.52381,0.52381 0.84903,1.24603 0.84903,2.04535c0,0.79952 -0.32522,1.52173 -0.84903,2.04553c-0.52381,0.52381 -1.24603,0.84903 -2.04553,0.84903c-0.79933,0 -1.52173,-0.32522 -2.04535,-0.84903c-0.52381,-0.52381 -0.84923,-1.24603 -0.84923,-2.04553c0,-0.79933 0.32542,-1.52152 0.84923,-2.04535c0.5236,-0.52381 1.24603,-0.84903 2.04535,-0.84903z" data-paper-data="{&quot;origPos&quot;:null}" id="ID0.2271407265216112" fill="#ffffff" stroke-linecap="butt"/><path d="M230.18761,205.37318c0.79952,0 1.52173,0.32522 2.04553,0.84903c0.52381,0.52381 0.84903,1.24603 0.84903,2.04535c0,0.79952 -0.32522,1.52173 -0.84903,2.04553c-0.52381,0.52381 -1.24603,0.84903 -2.04553,0.84903c-0.79933,0 -1.52173,-0.32522 -2.04535,-0.84903c-0.52381,-0.52381 -0.84923,-1.24603 -0.84923,-2.04553c0,-0.79933 0.32542,-1.52152 0.84923,-2.04535c0.5236,-0.52381 1.24603,-0.84903 2.04535,-0.84903z" data-paper-data="{&quot;origPos&quot;:null}" id="ID0.2271407265216112" fill="#ffffff" stroke-linecap="butt"/></g></g></g></svg>