<svg version="1.1" xmlns="http://www.w3.org/2000/svg" xmlns:xlink="http://www.w3.org/1999/xlink" width="441.55828" height="91.66968" viewBox="0,0,441.55828,91.66968"><defs><linearGradient x1="25.25" y1="260.1943" x2="25.25" y2="339.8057" gradientUnits="userSpaceOnUse" id="color-1"><stop offset="0" stop-color="#ffffff"/><stop offset="1" stop-color="#ffffff"/></linearGradient><radialGradient cx="29.7173" cy="267.6017" r="7.53142" gradientUnits="userSpaceOnUse" id="color-2"><stop offset="0" stop-color="#2392d1"/><stop offset="1" stop-color="#2391d0"/></radialGradient><radialGradient cx="51.7173" cy="270.1017" r="5.78315" gradientUnits="userSpaceOnUse" id="color-3"><stop offset="0" stop-color="#2392d1"/><stop offset="1" stop-color="#2391d0"/></radialGradient><radialGradient cx="55.2173" cy="270.1017" r="5.78315" gradientUnits="userSpaceOnUse" id="color-4"><stop offset="0" stop-color="#2392d1"/><stop offset="1" stop-color="#2391d0"/></radialGradient><radialGradient cx="70.7173" cy="270.6017" r="5.78315" gradientUnits="userSpaceOnUse" id="color-5"><stop offset="0" stop-color="#2392d1"/><stop offset="1" stop-color="#2391d0"/></radialGradient><radialGradient cx="85.2173" cy="269.6017" r="7.53144" gradientUnits="userSpaceOnUse" id="color-6"><stop offset="0" stop-color="#2392d1"/><stop offset="1" stop-color="#2391d0"/></radialGradient><radialGradient cx="95.2173" cy="269.6017" r="5.78315" gradientUnits="userSpaceOnUse" id="color-7"><stop offset="0" stop-color="#2392d1"/><stop offset="1" stop-color="#2391d0"/></radialGradient><radialGradient cx="104.7173" cy="269.6017" r="6.0263" gradientUnits="userSpaceOnUse" id="color-8"><stop offset="0" stop-color="#2392d1"/><stop offset="1" stop-color="#2391d0"/></radialGradient><radialGradient cx="125.2173" cy="268.1017" r="6.02631" gradientUnits="userSpaceOnUse" id="color-9"><stop offset="0" stop-color="#2392d1"/><stop offset="1" stop-color="#2391d0"/></radialGradient><radialGradient cx="132.7173" cy="273.1017" r="8.17983" gradientUnits="userSpaceOnUse" id="color-10"><stop offset="0" stop-color="#2392d1"/><stop offset="1" stop-color="#2391d0"/></radialGradient><radialGradient cx="154.2173" cy="271.6017" r="5.78315" gradientUnits="userSpaceOnUse" id="color-11"><stop offset="0" stop-color="#2392d1"/><stop offset="1" stop-color="#2391d0"/></radialGradient><radialGradient cx="169.2173" cy="271.6017" r="7.53143" gradientUnits="userSpaceOnUse" id="color-12"><stop offset="0" stop-color="#2392d1"/><stop offset="1" stop-color="#2391d0"/></radialGradient><radialGradient cx="182.2173" cy="271.6017" r="7.03356" gradientUnits="userSpaceOnUse" id="color-13"><stop offset="0" stop-color="#2392d1"/><stop offset="1" stop-color="#2391d0"/></radialGradient><radialGradient cx="198.7173" cy="271.6017" r="7.0683" gradientUnits="userSpaceOnUse" id="color-14"><stop offset="0" stop-color="#2392d1"/><stop offset="1" stop-color="#2391d0"/></radialGradient><radialGradient cx="213.2173" cy="271.6017" r="7.53143" gradientUnits="userSpaceOnUse" id="color-15"><stop offset="0" stop-color="#2392d1"/><stop offset="1" stop-color="#2391d0"/></radialGradient></defs><g transform="translate(-19.22086,-254.16516)"><g data-paper-data="{&quot;isPaintingLayer&quot;:true}" fill-rule="nonzero" stroke-linecap="butt" stroke-linejoin="miter" stroke-miterlimit="10" stroke-dasharray="" stroke-dashoffset="0" style="mix-blend-mode: normal"><path d="M25.25,260.1943h429.5v79.6114h-429.5z" fill="#ffffff" stroke="url(#color-1)" stroke-width="12.05828"/><text transform="translate(26.50557,298.18039) scale(0.73293,0.73292)" font-size="22" xml:space="preserve" fill="#2492d1" fill-rule="nonzero" stroke="none" stroke-width="1" stroke-linecap="butt" stroke-linejoin="miter" stroke-miterlimit="10" stroke-dasharray="" stroke-dashoffset="0" font-family="Sans Serif" font-weight="400" text-anchor="start" style="mix-blend-mode: normal"><tspan x="0" dy="0">Click the flying Paratroopas to zap them. If you zap</tspan><tspan x="0" dy="24.86px">something else, or let the Paratroopas fly away, it's</tspan><tspan x="0" dy="24.86px">game over!</tspan></text><g stroke="none" stroke-width="0.26458"><path d="M35.39132,262.51913l5.04795,3.72808c-0.69468,3.17233 -1.13464,4.75851 -1.31988,4.75851c-0.0386,0 -0.96483,0.77959 -2.77868,2.33875c-1.12691,-0.05406 -2.41591,-0.12741 -3.86701,-0.22001l-0.15051,4.16804c-0.31646,0.0926 -1.68265,0.18909 -4.09858,0.28944c-0.2933,0 -0.43996,-0.82975 -0.43996,-2.48924c-0.53258,-6.86954 -0.79888,-10.57447 -0.79888,-11.11478c0.90308,-0.19297 3.70493,-0.67924 8.40555,-1.45881zM32.25372,265.80725v4.82799c1.89877,-0.33963 2.84816,-0.53646 2.84816,-0.59047l0.65995,-2.84816c-0.93396,-0.38592 -2.10332,-0.84904 -3.50811,-1.38935z" fill="url(#color-2)"/><path d="M43.51899,266.01566c4.58485,0.63291 6.87727,1.0227 6.87727,1.16936c1.80615,1.55145 2.70923,2.38118 2.70923,2.48924c-0.73326,2.29241 -1.15007,3.68562 -1.25042,4.17962c0.73326,1.62863 1.15007,2.60117 1.25042,2.91764c0,0.0926 -1.19638,0.33961 -3.58915,0.74099c-0.03087,-0.13129 -0.25086,-0.42459 -0.65995,-0.87992c-3.30356,0.63291 -5.0827,0.94937 -5.3374,0.94937l-1.75984,-4.75851l3.87859,-2.04928c0.6252,0.10037 1.60161,0.15056 2.9292,0.15056c0,-0.1698 0.02317,-0.68309 0.06948,-1.53987c-0.22384,0 -2.22296,0.14666 -5.99735,0.43996l-0.06948,-0.15056c0.52487,-2.43907 0.84134,-3.6586 0.94939,-3.6586zM45.92719,272.82345c0,0.08485 0.24699,0.98791 0.74099,2.70923h0.06948c0.97254,-0.63293 1.45881,-1.04972 1.45881,-1.2504l0.15051,-1.23884c-0.18524,0 -0.99183,-0.07333 -2.41978,-0.22001z" fill="url(#color-3)"/><path d="M62.52988,266.01566c1.52828,0.85677 2.46609,1.4125 2.81343,1.66721c-1.25042,2.60115 -1.92193,3.9249 -2.01455,3.97121h-0.08104l-1.65563,-1.44722l-1.95666,2.38504l0.21999,4.34172c-0.10035,0.0926 -1.37777,0.30871 -3.83228,0.64834c-0.09262,-0.66378 -0.69468,-3.91717 -1.80615,-9.76015c0,-0.0926 1.61317,-0.33188 4.83955,-0.71782c0.05402,0.06168 0.20068,0.78338 0.43996,2.16507c1.92964,-2.16892 2.94078,-3.25339 3.0334,-3.25339z" fill="url(#color-4)"/><path d="M68.0178,266.01566c4.58485,0.63291 6.87727,1.0227 6.87727,1.16936c1.80615,1.55145 2.70923,2.38118 2.70923,2.48924c-0.73326,2.29241 -1.15007,3.68562 -1.25042,4.17962c0.73326,1.62863 1.15007,2.60117 1.25042,2.91764c0,0.0926 -1.19638,0.33961 -3.58915,0.74099c-0.03087,-0.13129 -0.25084,-0.42459 -0.65995,-0.87992c-3.30356,0.63291 -5.0827,0.94937 -5.3374,0.94937l-1.75984,-4.75851l3.87859,-2.04928c0.6252,0.10037 1.60161,0.15056 2.9292,0.15056c0,-0.1698 0.02317,-0.68309 0.06948,-1.53987c-0.22384,0 -2.22296,0.14666 -5.99735,0.43996l-0.06945,-0.15056c0.52487,-2.43907 0.84131,-3.6586 0.94939,-3.6586zM70.426,272.82345c0,0.08485 0.24699,0.98791 0.74099,2.70923h0.06948c0.97254,-0.63293 1.45881,-1.04972 1.45881,-1.2504l0.15051,-1.23884c-0.18524,0 -0.99183,-0.07333 -2.41978,-0.22001z" fill="url(#color-5)"/><path d="M82.17756,262.51913l5.09426,0.90308l-0.48627,3.86701c1.01114,-0.05406 1.75213,-0.0811 2.22296,-0.0811h0.74099l0.1621,-0.0811l0.08104,0.16221c-0.1621,2.34645 -0.30103,3.66633 -0.41681,3.95963l-0.1621,-0.09253c-0.11576,0 -1.15778,-0.05406 -3.12602,-0.16221c-0.10806,1.81388 -0.18912,3.9828 -0.24313,6.50678l-0.1621,0.0811c-2.48539,-0.1621 -3.96736,-0.30103 -4.4459,-0.41679l0.08104,-0.32419c0,-0.67151 0.10806,-2.75552 0.32417,-6.25204c-2.08403,-0.11576 -3.12602,-0.2547 -3.12602,-0.41681c0.10806,-2.57801 0.24699,-3.86701 0.41681,-3.86701l3.04498,0.57889v-0.9957c0,-0.81044 -0.03087,-1.9065 -0.09262,-3.28812c0.06175,0 0.09262,-0.02704 0.09262,-0.0811z" fill="url(#color-6)"/><path d="M99.53282,266.01566c1.52828,0.85677 2.46609,1.4125 2.81343,1.66721c-1.25042,2.60115 -1.92193,3.9249 -2.01455,3.97121h-0.08104l-1.65563,-1.44722l-1.95666,2.38504l0.21999,4.34172c-0.10035,0.0926 -1.37777,0.30871 -3.83228,0.64834c-0.09262,-0.66378 -0.69468,-3.91717 -1.80615,-9.76015c0,-0.0926 1.61317,-0.33188 4.83955,-0.71782c0.05402,0.06168 0.20068,0.78338 0.43996,2.16507c1.92964,-2.16892 2.94078,-3.25339 3.0334,-3.25339z" fill="url(#color-7)"/><path d="M107.92679,266.02724c2.93307,0.7873 4.48835,1.26584 4.66589,1.43564c1.61317,2.28471 2.52011,3.60073 2.72081,3.94807c-1.04201,3.30356 -1.64019,4.95533 -1.79456,4.95533c-3.47336,0.81044 -5.29109,1.21567 -5.45319,1.21567c-2.87133,-1.67492 -4.39959,-2.60888 -4.58485,-2.80185c-0.10035,-3.11829 -0.15051,-4.83955 -0.15051,-5.16372c-0.04631,-0.0926 -0.06948,-0.16205 -0.06948,-0.20836c2.96395,-2.25383 4.49608,-3.38074 4.59641,-3.38074zM107.7068,270.26473c-0.04631,0.30876 -0.11579,1.43181 -0.20841,3.36918l2.58186,0.57889c0.61749,-1.92964 0.92623,-2.96007 0.92623,-3.09129c-2.05316,-0.61749 -3.15304,-0.92623 -3.2997,-0.92623z" fill="url(#color-8)"/><path d="M121.03296,266.02724c2.93307,0.7873 4.48835,1.26584 4.66589,1.43564c1.6132,2.28471 2.52011,3.60073 2.72081,3.94807c-1.04201,3.30356 -1.64019,4.95533 -1.79458,4.95533c-3.47336,0.81044 -5.29109,1.21567 -5.45319,1.21567c-2.87133,-1.67492 -4.39959,-2.60888 -4.58485,-2.80185c-0.10035,-3.11829 -0.15051,-4.83955 -0.15051,-5.16372c-0.04631,-0.0926 -0.06948,-0.16205 -0.06948,-0.20836c2.96395,-2.25383 4.49608,-3.38074 4.59641,-3.38074zM120.81297,270.26473c-0.04631,0.30876 -0.11579,1.43181 -0.20841,3.36918l2.58186,0.57889c0.61749,-1.92964 0.92623,-2.96007 0.92623,-3.09129c-2.05316,-0.61749 -3.15304,-0.92623 -3.2997,-0.92623z" fill="url(#color-9)"/><path d="M135.28534,266.02724c0.23928,0.98797 0.40523,1.59774 0.49785,1.82929c3.41161,-0.77957 5.21391,-1.16936 5.40688,-1.16936c2.32329,3.34216 3.48494,5.08656 3.48494,5.23322l-2.66292,5.65001l-5.73105,-0.91467v0.17364c0.44769,3.43478 0.67151,5.26022 0.67151,5.47633c-0.05402,0 -0.08104,0.02704 -0.08104,0.0811c-0.55575,-0.05406 -0.97254,-0.0811 -1.25042,-0.0811h-0.9957c-0.57889,0 -1.46654,-0.02704 -2.66292,-0.0811c-0.10806,-0.32417 -0.93781,-5.25251 -2.48924,-14.78496c0.26242,-0.10815 2.19979,-0.57898 5.81211,-1.4125zM135.70216,270.76259c0.15437,1.77527 0.2933,2.66292 0.41679,2.66292c1.5823,0.54802 2.55099,0.82202 2.90605,0.82202l0.91464,-3.9828h-0.08104c-0.90308,0.05406 -2.28856,0.22001 -4.15645,0.49785z" fill="url(#color-10)"/><path d="M147.62738,266.01566c4.58485,0.63291 6.87727,1.0227 6.87727,1.16936c1.80615,1.55145 2.70923,2.38118 2.70923,2.48924c-0.73326,2.29241 -1.15007,3.68562 -1.25042,4.17962c0.73326,1.62863 1.15007,2.60117 1.25042,2.91764c0,0.0926 -1.19638,0.33961 -3.58915,0.74099c-0.03087,-0.13129 -0.25084,-0.42459 -0.65995,-0.87992c-3.30356,0.63291 -5.0827,0.94937 -5.3374,0.94937l-1.75984,-4.75851l3.87859,-2.04928c0.6252,0.10037 1.60161,0.15056 2.9292,0.15056c0,-0.1698 0.02317,-0.68309 0.06948,-1.53987c-0.22384,0 -2.22296,0.14666 -5.99735,0.43996l-0.06948,-0.15056c0.52487,-2.43907 0.84134,-3.6586 0.94939,-3.6586zM150.03558,272.82345c0,0.08485 0.24699,0.98791 0.74099,2.70923h0.06948c0.97254,-0.63293 1.45881,-1.04972 1.45881,-1.2504l0.15051,-1.23884c-0.18524,0 -0.99183,-0.07333 -2.41978,-0.22001z" fill="url(#color-11)"/><path d="M173.74709,262.51913c3.34216,0.40138 5.0827,0.65222 5.22163,0.75257v0.0811l-0.60206,13.92819l-0.1621,0.06945c-0.80273,0 -2.13805,0.07718 -4.00594,0.23155c-0.10035,-0.30101 -0.15051,-0.9571 -0.15051,-1.96824v-1.66721l-0.08104,-0.45152c0,-0.05406 0.02702,-0.0811 0.08104,-0.0811l-0.08104,-0.521v-1.36619c-1.35075,0 -2.68606,0.05019 -4.00594,0.15056l0.30103,5.15216c-0.39365,0.10037 -1.75598,0.35121 -4.087,0.75255c-0.11579,0 -0.494,-2.87518 -1.13464,-8.62552c-0.05402,-0.13129 -0.3319,-2.22688 -0.83361,-6.28679c2.33872,0.05406 4.05613,0.0811 5.15216,0.0811c0.11576,0 0.23928,1.81388 0.3705,5.44163h4.16804v-0.75257c0,-0.18526 -0.02702,-0.41296 -0.08104,-0.68309c0,-0.04631 0.02702,-0.06945 0.08104,-0.06945l-0.08104,-0.38207v-1.73669c0,-0.43225 -0.02317,-1.11534 -0.06948,-2.04928z" fill="url(#color-12)"/><path d="M186.39015,266.01566l0.08104,0.15056l-1.56301,8.28976h0.08104l3.9828,-1.16936v-4.68906c0.01544,-0.10799 0.0656,-0.16199 0.15051,-0.16199c2.99482,0.20839 4.66204,0.31259 5.00164,0.31259c0,0.05406 0.02702,0.0811 0.08104,0.0811c0,1.31988 -0.41681,4.0561 -1.2504,8.2087c0,0.23928 -1.19638,0.42067 -3.58915,0.54416c-0.12349,-0.14668 -0.2277,-0.45927 -0.31261,-0.93781c-3.06427,0.6252 -4.81255,0.93781 -5.24478,0.93781c-2.4468,-1.82158 -3.67018,-2.75939 -3.67018,-2.81341c0.41681,-5.47248 0.67924,-8.31293 0.7873,-8.52134h0.06948c1.95281,-0.05406 3.75124,-0.13125 5.39529,-0.23155z" fill="url(#color-13)"/><path d="M205.65576,266.01566l3.85545,2.65134c-0.27015,4.39961 -0.45925,6.96989 -0.56731,7.71087c-0.44769,0.05406 -1.81002,0.13512 -4.087,0.24313l-0.08104,-0.16221l-0.40523,-6.18259l-0.1621,-0.0811c-1.47424,0.31646 -2.48924,0.55572 -3.04498,0.71782c0.15437,2.63205 0.23155,4.53469 0.23155,5.7079c-2.30014,0.64064 -3.55827,0.96095 -3.77439,0.96095c-1.49741,-6.59167 -2.2461,-10.07274 -2.2461,-10.44325c3.25725,-0.42452 5.02481,-0.63678 5.30267,-0.63678v0.0811c0.05402,0.03854 0.13508,0.84127 0.24313,2.4082c2.98709,-1.98368 4.56554,-2.97551 4.73537,-2.97551z" fill="url(#color-14)"/><path d="M214.11921,262.51913l5.09426,0.90308l-0.48627,3.86701c1.01114,-0.05406 1.75213,-0.0811 2.22296,-0.0811h0.74099l0.1621,-0.0811l0.08104,0.16221c-0.1621,2.34645 -0.30103,3.66633 -0.41681,3.95963l-0.1621,-0.09253c-0.11576,0 -1.15778,-0.05406 -3.12602,-0.16221c-0.10806,1.81388 -0.18912,3.9828 -0.24313,6.50678l-0.1621,0.0811c-2.48539,-0.1621 -3.96736,-0.30103 -4.4459,-0.41679l0.08104,-0.32419c0,-0.67151 0.10806,-2.75552 0.32417,-6.25204c-2.08403,-0.11576 -3.12602,-0.2547 -3.12602,-0.41681c0.10806,-2.57801 0.24701,-3.86701 0.41681,-3.86701l3.04498,0.57889v-0.9957c0,-0.81044 -0.03087,-1.9065 -0.09262,-3.28812c0.06175,0 0.09262,-0.02704 0.09262,-0.0811z" fill="url(#color-15)"/></g></g></g></svg>