<svg version="1.1" xmlns="http://www.w3.org/2000/svg" xmlns:xlink="http://www.w3.org/1999/xlink" width="665.22384" height="400.02182" viewBox="0,0,665.22384,400.02182"><defs><linearGradient x1="-5.12726" y1="-15.12516" x2="-5.12726" y2="379.12519" gradientUnits="userSpaceOnUse" id="color-1"><stop offset="0" stop-color="#000d66"/><stop offset="1" stop-color="#005766"/></linearGradient><linearGradient x1="-11.32126" y1="18.80296" x2="-11.32126" y2="59.47624" gradientUnits="userSpaceOnUse" id="color-2"><stop offset="0" stop-color="#000000"/><stop offset="1" stop-color="#000000" stop-opacity="0"/></linearGradient></defs><g transform="translate(11.32126,16.32184)"><g data-paper-data="{&quot;isPaintingLayer&quot;:true}" fill-rule="nonzero" stroke-linejoin="miter" stroke-miterlimit="10" stroke-dasharray="" stroke-dashoffset="0" style="mix-blend-mode: normal"><path d="M-5.12726,-15.12516h651.75603v394.25035h-651.75603z" data-paper-data="{&quot;origPos&quot;:null}" fill="url(#color-1)" stroke="#000000" stroke-width="2.39335" stroke-linecap="butt"/><path d="M112.83143,39.43281l0.27531,0.27531" data-paper-data="{&quot;origPos&quot;:null}" fill="none" stroke="#cccccc" stroke-width="2" stroke-linecap="round"/><path d="M173.69166,47.74177l0.27531,0.27531" data-paper-data="{&quot;origPos&quot;:null}" fill="none" stroke="#cccccc" stroke-width="2" stroke-linecap="round"/><path d="M334.51955,67.00466l-0.27531,-0.27531" data-paper-data="{&quot;origPos&quot;:null}" fill="none" stroke="#cccccc" stroke-width="2" stroke-linecap="round"/><path d="M233.64234,28.14444l-0.27531,-0.27531" fill="none" stroke="#cccccc" stroke-width="2" stroke-linecap="round"/><path d="M262.73345,77.42497l0.27531,0.27531" fill="none" stroke="#cccccc" stroke-width="2" stroke-linecap="round"/><path d="M321.46631,24.19833l0.27531,0.27531" fill="none" stroke="#cccccc" stroke-width="2" stroke-linecap="round"/><path d="M468.02248,42.48605l-0.27531,-0.27531" data-paper-data="{&quot;origPos&quot;:null}" fill="none" stroke="#cccccc" stroke-width="2" stroke-linecap="round"/><path d="M446.73476,82.8613l0.27531,0.27531" data-paper-data="{&quot;origPos&quot;:null}" fill="none" stroke="#cccccc" stroke-width="2" stroke-linecap="round"/><path d="M521.57376,191.76233l-0.27531,-0.27531" data-paper-data="{&quot;origPos&quot;:null}" fill="none" stroke="#cccccc" stroke-width="2" stroke-linecap="round"/><path d="M522.93561,77.99682l-0.27531,-0.27531" data-paper-data="{&quot;origPos&quot;:null}" fill="none" stroke="#cccccc" stroke-width="2" stroke-linecap="round"/><path d="M419.6603,26.22315l0.27531,0.27531" data-paper-data="{&quot;origPos&quot;:null}" fill="none" stroke="#cccccc" stroke-width="2" stroke-linecap="round"/><path d="M346.24424,211.4093l0.27531,0.27531" fill="none" stroke="#cccccc" stroke-width="2" stroke-linecap="round"/><path d="M233.64234,164.88187l-0.27531,-0.27531" fill="none" stroke="#cccccc" stroke-width="2" stroke-linecap="round"/><path d="M111.58813,136.43314l-0.27531,-0.27531" fill="none" stroke="#cccccc" stroke-width="2" stroke-linecap="round"/><path d="M167.29256,126.98083l0.27531,0.27531" fill="none" stroke="#cccccc" stroke-width="2" stroke-linecap="round"/><path d="M166.73671,295.34396l0.27531,0.27531" data-paper-data="{&quot;origPos&quot;:null}" fill="none" stroke="#cccccc" stroke-width="2" stroke-linecap="round"/><path d="M311.58028,163.86163l-0.27531,-0.27531" data-paper-data="{&quot;origPos&quot;:null}" fill="none" stroke="#cccccc" stroke-width="2" stroke-linecap="round"/><path d="M95.05383,185.51219l-0.27531,-0.27531" data-paper-data="{&quot;origPos&quot;:null}" fill="none" stroke="#cccccc" stroke-width="2" stroke-linecap="round"/><path d="M293.2929,248.39264l-0.27531,-0.27531" fill="none" stroke="#cccccc" stroke-width="2" stroke-linecap="round"/><path d="M363.03816,284.18296l-0.27531,-0.27531" fill="none" stroke="#cccccc" stroke-width="2" stroke-linecap="round"/><path d="M422.50811,263.63593l0.27531,0.27531" data-paper-data="{&quot;origPos&quot;:null}" fill="none" stroke="#cccccc" stroke-width="2" stroke-linecap="round"/><path d="M493.35168,272.25287l-0.27531,-0.27531" fill="none" stroke="#cccccc" stroke-width="2" stroke-linecap="round"/><path d="M498.73836,122.5775l-0.27531,-0.27531" data-paper-data="{&quot;origPos&quot;:null}" fill="none" stroke="#cccccc" stroke-width="2" stroke-linecap="round"/><path d="M475.56559,224.46678l0.27531,0.27531" data-paper-data="{&quot;origPos&quot;:null}" fill="none" stroke="#cccccc" stroke-width="2" stroke-linecap="round"/><path d="M358.17435,145.33484l0.27531,0.27531" fill="none" stroke="#cccccc" stroke-width="2" stroke-linecap="round"/><path d="M333.67174,107.98442l-0.27531,-0.27531" fill="none" stroke="#cccccc" stroke-width="2" stroke-linecap="round"/><path d="M282.00518,116.88611l0.27531,0.27531" fill="none" stroke="#cccccc" stroke-width="2" stroke-linecap="round"/><path d="M276.58127,195.19505l0.27531,0.27531" data-paper-data="{&quot;origPos&quot;:null}" fill="none" stroke="#cccccc" stroke-width="2" stroke-linecap="round"/><path d="M207.6714,92.10819l0.27531,0.27531" fill="none" stroke="#cccccc" stroke-width="2" stroke-linecap="round"/><path d="M396.57801,62.01348l0.27531,0.27531" data-paper-data="{&quot;origPos&quot;:null}" fill="none" stroke="#cccccc" stroke-width="2" stroke-linecap="round"/><path d="M525.61066,20.46221l0.27531,0.27531" data-paper-data="{&quot;origPos&quot;:null}" fill="none" stroke="#cccccc" stroke-width="2" stroke-linecap="round"/><path d="M161.06167,167.16601l-0.27531,-0.27531" data-paper-data="{&quot;origPos&quot;:null}" fill="none" stroke="#cccccc" stroke-width="2" stroke-linecap="round"/><path d="M450.25535,317.0925l0.27531,0.27531" data-paper-data="{&quot;origPos&quot;:null}" fill="none" stroke="#cccccc" stroke-width="2" stroke-linecap="round"/><path d="M203.72464,217.29792l-0.27531,-0.27531" data-paper-data="{&quot;origPos&quot;:null}" fill="none" stroke="#cccccc" stroke-width="2" stroke-linecap="round"/><path d="M400.52412,212.28553l-0.27531,-0.27531" data-paper-data="{&quot;origPos&quot;:null}" fill="none" stroke="#cccccc" stroke-width="2" stroke-linecap="round"/><path d="M179.65486,70.39494c11.92561,0 22.73236,3.38597 30.5577,8.85608c7.82535,5.4701 12.66928,13.02434 12.66928,21.36084c0,8.33652 -4.84395,15.89074 -12.66928,21.36084c-7.82535,5.4701 -18.63208,8.85608 -30.5577,8.85608c-11.92561,0 -22.73236,-3.38597 -30.5577,-8.85608c-7.82535,-5.4701 -12.66928,-13.02434 -12.66928,-21.36084c0,-8.33652 4.84395,-15.89074 12.66928,-21.36084c7.82535,-5.4701 18.63208,-8.85608 30.5577,-8.85608z" fill="#718399" stroke="none" stroke-width="1" stroke-linecap="butt"/><path d="M233.37382,56.96521c11.92561,0 22.73236,3.38597 30.5577,8.85608c7.82535,5.4701 12.66928,13.02434 12.66928,21.36084c0,8.33652 -4.84395,15.89074 -12.66928,21.36084c-7.82535,5.4701 -18.63208,8.85608 -30.5577,8.85608c-11.92561,0 -22.73236,-3.38597 -30.5577,-8.85608c-7.82535,-5.4701 -12.66928,-13.02434 -12.66928,-21.36084c0,-8.33652 4.84395,-15.89074 12.66928,-21.36084c7.82535,-5.4701 18.63208,-8.85608 30.5577,-8.85608z" fill="#718399" stroke="none" stroke-width="1" stroke-linecap="butt"/><path d="M189.30748,83.40501c1.04249,0 1.98676,0.91742 2.67,2.39889c0.68407,1.48147 1.10712,3.52698 1.10712,5.78486c0,2.25788 -0.42304,4.30339 -1.10712,5.78486c-0.68324,1.48147 -1.62752,2.39889 -2.67,2.39889c-1.04249,0 -1.98676,-0.91742 -2.67,-2.39889c-0.68407,-1.48147 -1.10712,-3.52698 -1.10712,-5.78486c0,-2.25788 0.42304,-4.30339 1.10712,-5.78486c0.68324,-1.48147 1.62752,-2.39889 2.67,-2.39889z" fill="#000000" stroke="none" stroke-width="1" stroke-linecap="butt"/><path d="M206.93402,82.98533c1.04249,0 1.98676,0.91742 2.67,2.39889c0.68407,1.48147 1.10712,3.52698 1.10712,5.78486c0,2.25788 -0.42304,4.30339 -1.10712,5.78486c-0.68324,1.48147 -1.62752,2.39889 -2.67,2.39889c-1.04249,0 -1.98676,-0.91742 -2.67,-2.39889c-0.68407,-1.48147 -1.10712,-3.52698 -1.10712,-5.78486c0,-2.25788 0.42304,-4.30339 1.10712,-5.78486c0.68324,-1.48147 1.62752,-2.39889 2.67,-2.39889z" fill="#000000" stroke="none" stroke-width="1" stroke-linecap="butt"/><path d="M471.79919,135.59653c7.82535,5.4701 12.66928,13.02434 12.66928,21.36084c0,8.33652 -4.84395,15.89074 -12.66928,21.36084c-7.82535,5.4701 -18.63208,8.85608 -30.5577,8.85608c-11.92561,0 -22.73236,-3.38597 -30.5577,-8.85608c-7.82535,-5.4701 -12.66928,-13.02434 -12.66928,-21.36084c0,-8.33652 4.84395,-15.89074 12.66928,-21.36084c7.82535,-5.4701 18.63208,-8.85608 30.5577,-8.85608c11.92561,0 22.73236,3.38597 30.5577,8.85608z" data-paper-data="{&quot;origPos&quot;:null}" fill="#718399" stroke="none" stroke-width="1" stroke-linecap="butt"/><path d="M418.08022,122.16678c7.82535,5.4701 12.66928,13.02434 12.66928,21.36084c0,8.33652 -4.84395,15.89074 -12.66928,21.36084c-7.82535,5.4701 -18.63208,8.85608 -30.5577,8.85608c-11.92561,0 -22.73236,-3.38597 -30.5577,-8.85608c-7.82535,-5.4701 -12.66928,-13.02434 -12.66928,-21.36084c0,-8.33652 4.84395,-15.89074 12.66928,-21.36084c7.82535,-5.4701 18.63208,-8.85608 30.5577,-8.85608c11.92561,0 22.73236,3.38597 30.5577,8.85608z" data-paper-data="{&quot;origPos&quot;:null}" fill="#718399" stroke="none" stroke-width="1" stroke-linecap="butt"/><path d="M406.56003,148.0249c0.68407,1.48147 1.10712,3.52698 1.10712,5.78486c0,2.25788 -0.42304,4.30339 -1.10712,5.78486c-0.68324,1.48147 -1.62752,2.39889 -2.67,2.39889c-1.04249,0 -1.98676,-0.91742 -2.67,-2.39889c-0.68407,-1.48147 -1.10712,-3.52698 -1.10712,-5.78486c0,-2.25788 0.42304,-4.30339 1.10712,-5.78486c0.68324,-1.48147 1.62752,-2.39889 2.67,-2.39889c1.04249,0 1.98676,0.91742 2.67,2.39889z" data-paper-data="{&quot;origPos&quot;:null}" fill="#000000" stroke="none" stroke-width="1" stroke-linecap="butt"/><path d="M388.93349,147.60523c0.68407,1.48147 1.10712,3.52698 1.10712,5.78486c0,2.25788 -0.42304,4.30339 -1.10712,5.78486c-0.68324,1.48147 -1.62752,2.39889 -2.67,2.39889c-1.04249,0 -1.98676,-0.91742 -2.67,-2.39889c-0.68407,-1.48147 -1.10712,-3.52698 -1.10712,-5.78486c0,-2.25788 0.42304,-4.30339 1.10712,-5.78486c0.68324,-1.48147 1.62752,-2.39889 2.67,-2.39889c1.04249,0 1.98676,0.91742 2.67,2.39889z" data-paper-data="{&quot;origPos&quot;:null}" fill="#000000" stroke="none" stroke-width="1" stroke-linecap="butt"/><path d="M150.05383,220.51219l-0.27531,-0.27531" data-paper-data="{&quot;origPos&quot;:null}" fill="none" stroke="#cccccc" stroke-width="2" stroke-linecap="round"/><path d="M221.77852,269.23688l0.27531,0.27531" data-paper-data="{&quot;origPos&quot;:null}" fill="none" stroke="#cccccc" stroke-width="2" stroke-linecap="round"/><path d="M117.05383,262.51219l-0.27531,-0.27531" data-paper-data="{&quot;origPos&quot;:null}" fill="none" stroke="#cccccc" stroke-width="2" stroke-linecap="round"/><path d="M108.05383,341.51219l-0.27531,-0.27531" data-paper-data="{&quot;origPos&quot;:null}" fill="none" stroke="#cccccc" stroke-width="2" stroke-linecap="round"/><path d="M215.05383,331.51219l-0.27531,-0.27531" data-paper-data="{&quot;origPos&quot;:null}" fill="none" stroke="#cccccc" stroke-width="2" stroke-linecap="round"/><path d="M300.05383,317.51219l-0.27531,-0.27531" data-paper-data="{&quot;origPos&quot;:null}" fill="none" stroke="#cccccc" stroke-width="2" stroke-linecap="round"/><path d="M392.05383,339.51219l-0.27531,-0.27531" data-paper-data="{&quot;origPos&quot;:null}" fill="none" stroke="#cccccc" stroke-width="2" stroke-linecap="round"/><path d="M531.05383,339.51219l-0.27531,-0.27531" data-paper-data="{&quot;origPos&quot;:null}" fill="none" stroke="#cccccc" stroke-width="2" stroke-linecap="round"/><path d="M-9.57658,314.72211l187.70242,-4.24862l285.69414,5.66482l189.08259,-1.4162v67.97786h-662.47912z" data-paper-data="{&quot;origPos&quot;:null}" fill="#79e057" stroke="#1d832f" stroke-width="2" stroke-linecap="round"/><path d="M-11.32126,18.80296h662.34098v40.67327h-662.34098z" fill="url(#color-2)" stroke="none" stroke-width="1.15292" stroke-linecap="butt"/><path d="M-10.04517,-0.58127h662.7844v20.8719h-662.7844z" fill="#000000" stroke="none" stroke-width="1.1317" stroke-linecap="butt"/><path d="M314.75,316.50001c13.726,0 26.163,0.98 35.169,2.564c9.006,1.584 14.581,3.772 14.581,6.186c0,2.414 -5.575,4.602 -14.581,6.186c-9.006,1.584 -21.443,2.564 -35.169,2.564c-13.726,0 -26.163,-0.98 -35.169,-2.564c-9.006,-1.584 -14.581,-3.772 -14.581,-6.186c0,-2.414 5.575,-4.602 14.581,-6.186c9.006,-1.584 21.443,-2.564 35.169,-2.564z" data-paper-data="{&quot;origPos&quot;:null}" fill="#c06520" stroke="#1d832f" stroke-width="2" stroke-linecap="butt"/><g data-paper-data="{&quot;origPos&quot;:null}" fill="#ffffff" stroke="none" stroke-width="0.65992" stroke-linecap="butt"><path d="M188.3279,10.25974c3.0105,0.7907 4.5469,1.2471 4.6093,1.3718c0,0.0674 0.7283,1.4417 2.1874,4.1229c-1.287,4.305 -2.0153,6.6096 -2.1874,6.9189l-4.6716,1.0001c-2.5092,-1.3892 -3.8411,-2.1774 -4.0007,-2.3719c-0.0823,-0.9678 -0.227,-3.6939 -0.4315,-8.176c2.372,-1.5813 3.8685,-2.5366 4.4945,-2.8658zM189.1335,13.81643l-1.928,2.0004c0.1647,2.0751 0.247,3.3447 0.247,3.8036c0.0474,0 0.4639,0.2893 1.2471,0.868c1.0375,-0.227 1.5563,-0.3916 1.5563,-0.4964l1.1873,-4.0505c-0.3168,-0.9628 -0.5862,-1.4442 -0.8057,-1.4442z"/><path d="M200.7839,10.25974c0.0424,0.0624 0.2344,1.9455 0.5786,5.6493c2.6538,-0.8106 4.0655,-1.2171 4.2376,-1.2171l2.6289,1.7958c-0.4265,3.9184 -0.7058,6.2055 -0.8355,6.8665l-3.649,0.1247c0,-0.0424 -0.025,-0.0624 -0.0724,-0.0624l0.0724,-0.2594c0,-0.5562 0.0823,-2.2472 0.2469,-5.0706c-1.0052,-0.0424 -1.7509,-0.0624 -2.2373,-0.0624h-0.2594c0.2968,3.1402 0.444,4.8512 0.444,5.133l-3.4644,0.5163c-0.1297,-0.4389 -0.9004,-4.5469 -2.3097,-12.3212c0,-0.2195 0.5363,-0.3916 1.6088,-0.5163c1.3543,-0.3841 2.357,-0.5762 3.0105,-0.5762z"/><path d="M214.437,10.26973c2.1026,0.0399 3.6465,0.0623 4.6292,0.0623c0.0898,0 0.3617,4.2202 0.8156,12.6605c-0.3516,0.0898 -1.5763,0.3168 -3.6714,0.6809c-0.1048,0 -0.444,-2.5839 -1.0201,-7.7544c-0.0499,-0.1222 -0.2993,-2.0053 -0.7533,-5.6493z"/><path d="M225.1919,13.38243c2.6115,0.7009 3.9957,1.1274 4.1554,1.2795c1.4366,2.0353 2.2447,3.2076 2.4218,3.5168c-0.9278,2.9407 -1.4591,4.4123 -1.5988,4.4123c-3.0927,0.7233 -4.7115,1.0824 -4.8561,1.0824c-2.5566,-1.4915 -3.9184,-2.3221 -4.083,-2.4941c-0.0898,-2.7786 -0.1347,-4.31 -0.1347,-4.5993c-0.0399,-0.0823 -0.0599,-0.1447 -0.0599,-0.1846c2.6389,-2.0078 4.0032,-3.013 4.093,-3.013zM224.9326,17.15614c-0.04,0.2769 -0.1023,1.2771 -0.1846,3.0005l2.2996,0.5163c0.5911,-1.7185 0.8855,-2.6363 0.8855,-2.7535c-1.8283,-0.5488 -2.8085,-0.8231 -2.9382,-0.8231z"/><path d="M236.8622,13.38243c2.6139,0.7009 3.9982,1.1274 4.1553,1.2795c1.4367,2.0353 2.2448,3.2076 2.4244,3.5168c-0.9278,2.9407 -1.4616,4.4123 -1.5988,4.4123c-3.0928,0.7233 -4.7115,1.0824 -4.8562,1.0824c-2.5565,-1.4915 -3.9183,-2.3221 -4.0829,-2.4941c-0.0898,-2.7786 -0.1347,-4.31 -0.1347,-4.5993c-0.0399,-0.0823 -0.0624,-0.1447 -0.0624,-0.1846c2.6414,-2.0078 4.0057,-3.013 4.0955,-3.013zM236.6053,17.15614c-0.0399,0.2769 -0.1022,1.2771 -0.1845,3.0005l2.2996,0.5163c0.5911,-1.7185 0.8854,-2.6363 0.8854,-2.7535c-1.8282,-0.5488 -2.8084,-0.8231 -2.9381,-0.8231z"/><path d="M248.9266,10.25974c0.0973,0.2744 0.3143,2.2223 0.651,5.8464l3.0928,-3.4644h0.0723c0.4814,0.399 1.3718,1.2396 2.6713,2.5266v0.0698l-2.9606,2.4443c2.2273,1.4915 3.407,2.3346 3.5367,2.5266c-1.4017,1.5614 -2.2447,2.4518 -2.5266,2.6713l-3.5966,-3.3198c0.1422,1.4841 0.2145,2.5915 0.2145,3.3198c-0.1721,0.0948 -1.4466,0.3616 -3.8236,0.7931c-0.1945,-0.9627 -0.8181,-5.0956 -1.8781,-12.4035c0.4415,-0.1447 1.9554,-0.4814 4.5469,-1.0102z"/><path d="M258.3097,21.44613c1.8707,0.2195 2.8085,0.3442 2.8159,0.3717c-1.1348,2.6662 -1.7708,4.0705 -1.908,4.2076c-0.9353,-0.1172 -1.4017,-0.2145 -1.4017,-0.2893c0.2469,-2.8608 0.399,-4.29 0.4539,-4.29z"/><path d="M270.9328,10.25974l4.5369,0.8031l-0.434,3.4445c0.9004,-0.0474 1.5614,-0.0723 1.9804,-0.0723h0.6585l0.1446,-0.0724l0.0723,0.1447c-0.1446,2.0901 -0.2668,3.2649 -0.3716,3.5268l-0.1446,-0.0823c-0.1023,0 -1.0301,-0.0499 -2.7836,-0.1447c-0.0947,1.6162 -0.1671,3.5467 -0.217,5.794l-0.1446,0.0723c-2.2124,-0.1446 -3.5318,-0.2668 -3.9583,-0.3716l0.0723,-0.2868c0,-0.5986 0.0948,-2.4543 0.2894,-5.5695c-1.8557,-0.1023 -2.786,-0.227 -2.786,-0.3717c0.0972,-2.2946 0.222,-3.4419 0.3716,-3.4419l2.7137,0.5138v-0.8855c0,-0.7233 -0.0275,-1.6985 -0.0848,-2.9282c0.0573,0 0.0848,-0.0249 0.0848,-0.0723z"/><path d="M283.6032,10.25974c0.0424,0.0624 0.2345,1.9455 0.5787,5.6493c2.6538,-0.8106 4.0655,-1.2171 4.2376,-1.2171l2.6289,1.7958c-0.4265,3.9184 -0.7034,6.2055 -0.8356,6.8665l-3.649,0.1247c0,-0.0424 -0.0249,-0.0624 -0.0723,-0.0624l0.0723,-0.2594c0,-0.5562 0.0823,-2.2472 0.2469,-5.0706c-1.0026,-0.0424 -1.7484,-0.0624 -2.2372,-0.0624h-0.2569c0.2943,3.1402 0.4414,4.8512 0.4414,5.133l-3.4644,0.5163c-0.1297,-0.4389 -0.9004,-4.5469 -2.3096,-12.3212c0,-0.2195 0.5362,-0.3916 1.6087,-0.5163c1.3544,-0.3841 2.3595,-0.5762 3.0105,-0.5762z"/><path d="M297.865,13.38243c3.1127,1.6038 4.8387,2.5366 5.1754,2.806c-0.4465,2.0901 -0.7108,3.1651 -0.7932,3.2275h-6.5173v0.1122l1.8258,2.2597l2.8658,-1.4641c0.2818,0.4864 0.6884,1.3394 1.2172,2.5566c-0.247,0.0823 -2.0527,0.3467 -5.4124,0.7931c-2.786,-1.8357 -4.1877,-2.791 -4.2077,-2.8658c0.4465,-3.5667 0.7108,-5.3525 0.7932,-5.3525c2.9082,-1.2371 4.5917,-1.928 5.0532,-2.0727zM297.194,15.87913c-0.0548,0.1372 -0.419,0.6834 -1.0924,1.6387c0,0.2893 0.4065,0.434 1.2171,0.434c0,0.0399 0.5862,0.1397 1.7634,0.2993c0.3218,-0.4465 0.4839,-0.7084 0.4839,-0.7857c-0.1023,-0.6111 -0.3267,-0.9154 -0.6709,-0.9154z"/><path d="M314.3939,13.38243c0.212,0.8805 0.3617,1.4242 0.444,1.6312c3.0379,-0.6958 4.6417,-1.0425 4.8138,-1.0425c2.0701,2.9755 3.1052,4.5294 3.1052,4.6616l-2.372,5.0308l-5.1055,-0.8156v0.1546c0.399,3.0604 0.5986,4.6866 0.5986,4.8786c-0.0474,0 -0.0724,0.025 -0.0724,0.0724c-0.4938,-0.0474 -0.8655,-0.0724 -1.1124,-0.0724h-0.8879c-0.5163,0 -1.3045,-0.0249 -2.372,-0.0723c-0.0948,-0.2893 -0.8355,-4.6791 -2.2148,-13.1668c0.2319,-0.0973 1.9579,-0.5163 5.1754,-1.2596zM314.7656,17.60013c0.1371,1.5813 0.2593,2.372 0.3691,2.372c1.4092,0.4888 2.2722,0.7333 2.589,0.7333l0.8156,-3.5493h-0.0724c-0.8056,0.0499 -2.0377,0.1971 -3.7013,0.444z"/><path d="M327.9723,13.38243c2.6139,0.7009 3.9981,1.1274 4.1578,1.2795c1.4366,2.0353 2.2422,3.2076 2.4218,3.5168c-0.9278,2.9407 -1.4616,4.4123 -1.5988,4.4123c-3.0927,0.7233 -4.7115,1.0824 -4.8561,1.0824c-2.5566,-1.4915 -3.9184,-2.3221 -4.083,-2.4941c-0.0898,-2.7786 -0.1347,-4.31 -0.1347,-4.5993c-0.0399,-0.0823 -0.0624,-0.1447 -0.0624,-0.1846c2.6414,-2.0078 4.0057,-3.013 4.0955,-3.013zM327.7154,17.15614c-0.04,0.2769 -0.1023,1.2771 -0.1846,3.0005l2.2996,0.5163c0.5911,-1.7185 0.8855,-2.6363 0.8855,-2.7535c-1.8283,-0.5488 -2.8085,-0.8231 -2.9382,-0.8231z"/><path d="M342.895,13.37253c1.3593,0.7632 2.1948,1.2595 2.5041,1.4865c-1.1124,2.3146 -1.711,3.4943 -1.7933,3.5367h-0.0723l-1.4741,-1.2895l-1.7434,2.1226l0.197,3.8685c-0.0898,0.0823 -1.2271,0.2743 -3.4145,0.5761c-0.0823,-0.5911 -0.6186,-3.4893 -1.6088,-8.6922c0,-0.0823 1.4367,-0.2943 4.31,-0.6385c0.0499,0.0549 0.1796,0.6984 0.3916,1.928c1.7185,-1.933 2.6189,-2.8982 2.7037,-2.8982z"/><path d="M349.2975,10.25974l4.5369,0.8031l-0.4339,3.4445c0.9004,-0.0474 1.5613,-0.0723 1.9803,-0.0723h0.661l0.1422,-0.0724l0.0723,0.1447c-0.1447,2.0901 -0.2669,3.2649 -0.3691,3.5268l-0.1447,-0.0823c-0.1048,0 -1.0326,-0.0499 -2.786,-0.1447c-0.0948,1.6162 -0.1671,3.5467 -0.2145,5.794l-0.1447,0.0723c-2.2148,-0.1446 -3.5342,-0.2668 -3.9607,-0.3716l0.0723,-0.2868c0,-0.5986 0.0973,-2.4543 0.2893,-5.5695c-1.8557,-0.1023 -2.7835,-0.227 -2.7835,-0.3717c0.0948,-2.2946 0.2195,-3.4419 0.3716,-3.4419l2.7112,0.5138v-0.8855c0,-0.7233 -0.0274,-1.6985 -0.0823,-2.9282c0.0549,0 0.0823,-0.0249 0.0823,-0.0723z"/><path d="M358.9176,13.37253c4.083,0.5636 6.1257,0.9103 6.1257,1.0425c1.6087,1.3818 2.4119,2.1201 2.4119,2.2174c-0.6535,2.0402 -1.0251,3.2823 -1.1124,3.7213c0.651,1.4516 1.0226,2.3171 1.1124,2.5989c0,0.0823 -1.065,0.3018 -3.1976,0.6585c-0.0274,-0.1148 -0.2219,-0.3766 -0.5861,-0.7832c-2.9431,0.5637 -4.5269,0.8455 -4.7539,0.8455l-1.5664,-4.2376l3.452,-1.8257c0.5587,0.0898 1.4267,0.1347 2.6089,0.1347c0,-0.1522 0.0225,-0.6086 0.0624,-1.3718c-0.1996,0 -1.9804,0.1322 -5.3401,0.3915l-0.0623,-0.1321c0.4664,-2.1725 0.7482,-3.2599 0.8455,-3.2599zM361.0626,19.43581c0,0.0748 0.2195,0.8805 0.6584,2.4119h0.0624c0.8655,-0.5637 1.2995,-0.9328 1.2995,-1.1124l0.1347,-1.1024c-0.1647,0 -0.883,-0.0674 -2.155,-0.1971z"/><path d="M368.4454,10.26973c2.1026,0.0399 3.6465,0.0623 4.6292,0.0623c0.0898,0 0.3616,4.2202 0.8156,12.6605c-0.3517,0.0898 -1.5739,0.3168 -3.6715,0.6809c-0.1022,0 -0.4439,-2.5839 -1.0201,-7.7544c-0.0499,-0.1222 -0.2993,-2.0053 -0.7532,-5.6493z"/><path d="M379.5819,10.64133l0.0399,0.0823c-0.6859,6.0684 -1.0725,9.2584 -1.1548,9.5677c-1.4566,-0.1372 -2.377,-0.2319 -2.7636,-0.2893v-0.0399l-0.6584,-8.6199c0.1646,-0.0549 1.6761,-0.2893 4.5369,-0.7009zM375.4989,20.49831c0.0474,0.0275 1.1199,0.1098 3.215,0.247l0.0424,0.0823c-0.3242,1.898 -0.5287,2.8458 -0.6185,2.8458h-2.392c-0.0823,0 -0.192,-0.9478 -0.3292,-2.8458c-0.0299,0 -0.0424,-0.0823 -0.0424,-0.247c0.0823,-0.0274 0.1247,-0.0548 0.1247,-0.0823z"/><path d="M387.6855,10.25974c6.8116,0.8031 10.2187,1.2546 10.2187,1.3494l-0.9902,3.619c-3.2175,-0.8505 -4.946,-1.3269 -5.1854,-1.4217c0,0.0624 -0.3542,0.8406 -1.0626,2.3396h0.0724c1.4366,-0.0898 2.9955,-0.2295 4.6816,-0.4215l0.0723,0.1446c-0.2819,1.5938 -0.4964,2.6813 -0.641,3.2574l-3.9683,-0.5661c0.0399,0.7831 0.0624,1.3743 0.0624,1.7733v0.3592l0.0698,0.1446c0.8805,-0.0947 2.6588,-0.2394 5.3326,-0.4314c0.0898,0.4265 0.2544,1.4915 0.4938,3.195c-0.0473,0 -0.0723,0.0249 -0.0723,0.0723c-6.233,-0.3292 -9.4031,-0.5437 -9.5053,-0.6385l-1.4965,-4.26c1.1348,-5.2852 1.7733,-8.1236 1.918,-8.5152z"/><path d="M407.9582,13.37253l3.432,2.3619c-0.2394,3.9184 -0.409,6.2081 -0.5038,6.8665c-0.3991,0.0499 -1.6113,0.1198 -3.639,0.217l-0.0724,-0.1446l-0.3616,-5.5047l-0.1447,-0.0723c-1.3119,0.2818 -2.2173,0.4938 -2.7112,0.6385c0.1372,2.3445 0.2046,4.0381 0.2046,5.0831c-2.0478,0.5712 -3.1676,0.8555 -3.3597,0.8555c-1.3344,-5.8688 -2.0003,-8.969 -2.0003,-9.3008c2.9007,-0.3766 4.4745,-0.5662 4.7215,-0.5662v0.0724c0.0474,0.0349 0.1197,0.7482 0.217,2.145c2.6612,-1.7684 4.0655,-2.6513 4.2176,-2.6513z"/><path d="M423.1054,9.06253l4.063,0.6385c-0.5088,1.953 -0.843,2.9307 -1.0001,2.9307c-2.1401,-0.1447 -3.2076,-0.2893 -3.2076,-0.434v-2.9905c0.0125,-0.0973 0.0624,-0.1447 0.1447,-0.1447zM421.9606,13.41493l4.9185,1.277c-0.9977,5.774 -1.5439,8.8419 -1.6387,9.1985c-0.2145,0.1921 -1.9704,1.0725 -5.2702,2.6389c-2.6264,-1.2371 -4.2401,-2.0203 -4.8462,-2.3495c-0.6659,-2.5441 -1.0475,-3.9458 -1.1448,-4.2077c0.0973,-0.0973 1.4516,-0.4764 4.063,-1.1449c0,0.0474 0.0249,0.0724 0.0723,0.0724c-0.0474,0.0972 -0.0723,0.1696 -0.0723,0.217c0,0.3217 -0.0973,1.4391 -0.2893,3.3521c2.3021,-0.2893 3.6814,-0.4788 4.1353,-0.5686v-1.8557c0,-0.1097 -0.0199,-0.207 -0.0623,-0.2893l0.0623,-0.1447c-0.0424,-0.0823 -0.0623,-0.1746 -0.0623,-0.2768h0.0623l-0.0623,-0.1447v-0.0723c0,-0.0474 0.0199,-0.0724 0.0623,-0.0724l-0.0623,-0.1446v-0.0724c0,-0.0474 0.0199,-0.0723 0.0623,-0.0723l-0.0623,-0.1347v-5.0607c0.0149,-0.0973 0.0598,-0.1446 0.1347,-0.1446z"/><path d="M432.4461,13.38243c2.6139,0.7009 3.9982,1.1274 4.1553,1.2795c1.4367,2.0353 2.2448,3.2076 2.4244,3.5168c-0.9279,2.9407 -1.4616,4.4123 -1.5988,4.4123c-3.0928,0.7233 -4.7115,1.0824 -4.8562,1.0824c-2.5565,-1.4915 -3.9183,-2.3221 -4.083,-2.4941c-0.0897,-2.7786 -0.1346,-4.31 -0.1346,-4.5993c-0.04,-0.0823 -0.0624,-0.1447 -0.0624,-0.1846c2.6413,-2.0078 4.0057,-3.013 4.0955,-3.013zM432.1892,17.15614c-0.0424,0.2769 -0.1023,1.2771 -0.1846,3.0005l2.2972,0.5163c0.5512,-1.7185 0.8256,-2.6363 0.8256,-2.7535c-1.8283,-0.5488 -2.8085,-0.8231 -2.9382,-0.8231z"/><path d="M444.7075,13.39244c0.0948,0.015 0.1447,0.0624 0.1447,0.1447l-1.0725,5.9411c2.0477,-0.2419 3.0728,-0.434 3.0728,-0.5786c0.3841,-2.3795 0.6485,-3.7114 0.7932,-4.0007c2.5365,0.5238 3.9433,0.8331 4.2176,0.9278c-1.479,5.0807 -2.2896,7.727 -2.4343,7.939c-2.584,1.8158 -4.0381,2.8184 -4.3598,3.013c-0.0973,0 -1.7435,-0.4066 -4.941,-1.2172v-0.0723c0.8455,-1.8632 1.3718,-2.796 1.5788,-2.796l3.1452,1.5788l1.504,-2.5789c-1.3544,0.3367 -2.14,0.5063 -2.3595,0.5063l-4.0132,-2.0827c0.4889,-4.482 0.7982,-6.7243 0.9279,-6.7243z"/><path d="M188.5748,39.79083c0.0973,0.0125 0.1447,0.0624 0.1447,0.1447l-1.0725,5.9387c2.0502,-0.242 3.0728,-0.434 3.0728,-0.5787c0.3866,-2.3769 0.651,-3.7113 0.7957,-4.0007c2.5366,0.5238 3.9408,0.8331 4.2152,0.9279c-1.4766,5.0806 -2.2872,7.727 -2.4319,7.9415c-2.5839,1.8132 -4.0381,2.8184 -4.3623,3.0104c-0.0973,0 -1.7434,-0.4065 -4.9385,-1.2171v-0.0724c0.8455,-1.8631 1.3718,-2.7934 1.5763,-2.7934l3.1452,1.5763l1.5065,-2.5765c-1.3543,0.3367 -2.1425,0.5038 -2.362,0.5038l-4.0106,-2.0826c0.4888,-4.4821 0.7981,-6.7219 0.9278,-6.7219z"/><path d="M200.8986,39.78092c2.6114,0.7008 3.9957,1.1273 4.1553,1.277c1.4367,2.0352 2.2448,3.2075 2.4219,3.5168c-0.9279,2.9431 -1.4591,4.4122 -1.5988,4.4122c-3.0928,0.7233 -4.7115,1.085 -4.8562,1.085c-2.5565,-1.494 -3.9183,-2.3246 -4.083,-2.4967c-0.0898,-2.776 -0.1346,-4.31 -0.1346,-4.5993c-0.04,-0.0823 -0.0599,-0.1446 -0.0599,-0.1846c2.6388,-2.0078 4.0032,-3.0104 4.0929,-3.0104zM200.6392,43.55463c-0.0399,0.2743 -0.1023,1.2745 -0.1846,3.0005l2.2997,0.5163c0.5487,-1.721 0.8256,-2.6364 0.8256,-2.7536c-1.8308,-0.5512 -2.8085,-0.8256 -2.9407,-0.8256z"/><path d="M213.9831,39.77094l0.0723,0.1322l-1.3917,7.3828h0.0723l3.5467,-1.0401v-4.1778c0.0125,-0.0947 0.0574,-0.1421 0.1322,-0.1421c2.6688,0.1845 4.1528,0.2768 4.4546,0.2768c0,0.0474 0.025,0.0724 0.0724,0.0724c0,1.1747 -0.3692,3.6115 -1.1124,7.3104c0,0.2145 -1.0651,0.3741 -3.1976,0.4864c-0.1097,-0.1322 -0.202,-0.4091 -0.2768,-0.8356c-2.7287,0.5562 -4.2875,0.8356 -4.6716,0.8356c-2.18,-1.6237 -3.2699,-2.4593 -3.2699,-2.5067c0.3716,-4.8736 0.6061,-7.4027 0.7033,-7.5898h0.0599c1.7409,-0.0474 3.3422,-0.1172 4.8063,-0.2045z"/><path d="M229.3872,39.77094c1.3618,0.7607 2.1973,1.2571 2.5066,1.484c-1.1149,2.3171 -1.711,3.4944 -1.7958,3.5368h-0.0698l-1.4766,-1.2895l-1.7409,2.125l0.1945,3.866c-0.0898,0.0823 -1.2271,0.2744 -3.412,0.5787c-0.0823,-0.5912 -0.6186,-3.4894 -1.6088,-8.6948c0,-0.0823 1.4367,-0.2943 4.31,-0.6385c0.0474,0.0549 0.1796,0.6984 0.3916,1.928c1.7185,-1.9305 2.6189,-2.8957 2.7012,-2.8957z"/><path d="M241.03,36.65572l4.5369,0.8056l-0.434,3.442c0.9004,-0.0474 1.5614,-0.0724 1.9804,-0.0724h0.6585l0.1447,-0.0723l0.0723,0.1447c-0.1447,2.0901 -0.2669,3.2648 -0.3716,3.5267l-0.1447,-0.0823c-0.1023,0 -1.0301,-0.0474 -2.7835,-0.1446c-0.0948,1.6162 -0.1671,3.5467 -0.217,5.7964l-0.1422,0.0724c-2.2148,-0.1447 -3.5342,-0.2694 -3.9607,-0.3717l0.0723,-0.2893c0,-0.5986 0.0973,-2.4543 0.2893,-5.567c-1.8557,-0.1048 -2.7835,-0.227 -2.7835,-0.3716c0.0948,-2.2972 0.2195,-3.4445 0.3691,-3.4445l2.7137,0.5163v-0.8879c0,-0.7209 -0.0274,-1.6986 -0.0823,-2.9282c0.0549,0 0.0823,-0.025 0.0823,-0.0723z"/><path d="M256.4865,39.77094c1.3593,0.7607 2.1948,1.2571 2.5041,1.484c-1.1124,2.3171 -1.711,3.4944 -1.7933,3.5368h-0.0723l-1.4741,-1.2895l-1.7434,2.125l0.197,3.866c-0.0898,0.0823 -1.2271,0.2744 -3.4145,0.5787c-0.0823,-0.5912 -0.6186,-3.4894 -1.6088,-8.6948c0,-0.0823 1.4367,-0.2943 4.31,-0.6385c0.0499,0.0549 0.1796,0.6984 0.3941,1.928c1.7185,-1.9305 2.6189,-2.8957 2.7012,-2.8957z"/><path d="M261.2279,35.63554l4.0531,0.6385c-0.5089,1.9455 -0.8431,2.9182 -1.0002,2.9182c-2.13,-0.1446 -3.1976,-0.2843 -3.1976,-0.4215v-2.9905c0.0225,-0.0973 0.0699,-0.1447 0.1447,-0.1447zM260.0956,40.54413h0.0598c3.1352,0.5687 4.704,0.9029 4.704,1.0002c-0.9004,5.1006 -1.4491,7.9414 -1.6411,8.5276h-3.2674c-0.0973,0 -0.1447,-0.0499 -0.1447,-0.1447z"/><path d="M270.7981,39.78092c0.212,0.8779 0.3592,1.4217 0.444,1.6287c3.0379,-0.6934 4.6416,-1.0426 4.8137,-1.0426c2.0702,2.9781 3.1053,4.5319 3.1053,4.6616l-2.372,5.0308l-5.1056,-0.8131v0.1546c0.3991,3.0579 0.5986,4.6841 0.5986,4.8762c-0.0474,0 -0.0723,0.0249 -0.0723,0.0723c-0.4938,-0.0474 -0.8655,-0.0723 -1.1124,-0.0723h-0.8879c-0.5163,0 -1.307,-0.0225 -2.372,-0.0724c-0.0948,-0.2868 -0.8356,-4.6766 -2.2173,-13.1668c0.2344,-0.0972 1.9604,-0.5163 5.1779,-1.257zM271.1697,43.99854c0.1372,1.5789 0.2594,2.3695 0.3692,2.3695c1.4092,0.4889 2.2722,0.7333 2.5889,0.7333l0.8156,-3.5467h-0.0723c-0.8056,0.0474 -2.0378,0.1945 -3.7014,0.4439z"/><path d="M288.5442,36.65572l4.5369,0.8056l-0.434,3.442c0.9004,-0.0474 1.5614,-0.0724 1.9804,-0.0724h0.6585l0.1446,-0.0723l0.0724,0.1447c-0.1447,2.0901 -0.2669,3.2648 -0.3717,3.5267l-0.1446,-0.0823c-0.1023,0 -1.0301,-0.0474 -2.7835,-0.1446c-0.0948,1.6162 -0.1671,3.5467 -0.217,5.7964l-0.1422,0.0724c-2.2148,-0.1447 -3.5342,-0.2694 -3.9608,-0.3717l0.0724,-0.2893c0,-0.5986 0.0973,-2.4543 0.2893,-5.567c-1.8557,-0.1048 -2.7835,-0.227 -2.7835,-0.3716c0.0948,-2.2972 0.2195,-3.4445 0.3691,-3.4445l2.7137,0.5163v-0.8879c0,-0.7209 -0.0274,-1.6986 -0.0823,-2.9282c0.0549,0 0.0823,-0.025 0.0823,-0.0723z"/><path d="M300.7507,39.78092c2.6139,0.7008 3.9982,1.1273 4.1553,1.277c1.4367,2.0352 2.2448,3.2075 2.4244,3.5168c-0.9278,2.9431 -1.4616,4.4122 -1.5988,4.4122c-3.0928,0.7233 -4.7115,1.085 -4.8562,1.085c-2.5565,-1.494 -3.9183,-2.3246 -4.0829,-2.4967c-0.0898,-2.776 -0.1347,-4.31 -0.1347,-4.5993c-0.0399,-0.0823 -0.0624,-0.1446 -0.0624,-0.1846c2.6414,-2.0078 4.0057,-3.0104 4.0955,-3.0104zM300.4938,43.55463c-0.0399,0.2743 -0.1022,1.2745 -0.1845,3.0005l2.2996,0.5163c0.5487,-1.721 0.8231,-2.6364 0.8231,-2.7536c-1.8283,-0.5512 -2.8085,-0.8256 -2.9382,-0.8256z"/><path d="M322.5599,36.64573h0.8256c0.0947,0 0.3292,1.055 0.7008,3.1651c0.0399,0.0624 0.7158,3.3347 2.0203,9.8171l-0.1222,0.0624c-2.4967,-0.0774 -3.7438,-0.1821 -3.7438,-0.3218c0,-0.7208 -0.2968,-1.2271 -0.8879,-1.514c0,-0.0274 -0.9678,-0.8081 -2.9057,-2.342h-0.0624c0.0399,0.0624 0.1671,1.2646 0.3816,3.6091c-2.0153,0.5911 -3.1975,0.9079 -3.5467,0.9503c-0.1122,0 -0.449,-2.367 -1.0126,-7.096c-0.0873,-0.2943 -0.3218,-1.9629 -0.7009,-5.0008l3.6714,-1.0102c0.0823,0 0.3168,1.519 0.7009,4.5569l3.6091,3.1676h0.0623c0,-0.1047 -0.5287,-2.7436 -1.5888,-7.919c0.0499,0 0.0724,-0.0225 0.0724,-0.0624c1.06,-0.0424 1.9005,-0.0623 2.5266,-0.0623z"/><path d="M331.6537,36.65572c3.0129,0.7906 4.5469,1.247 4.6092,1.3718c0,0.0673 0.7283,1.4441 2.1874,4.1253c-1.287,4.3025 -2.0153,6.6071 -2.1874,6.9189l-4.6691,1.0002c-2.5091,-1.3893 -3.8435,-2.1799 -4.0007,-2.372c-0.0848,-0.9702 -0.2269,-3.6964 -0.4339,-8.1784c2.3719,-1.5813 3.8709,-2.5366 4.4945,-2.8658zM332.4593,40.21242l-1.928,2.0003c0.1646,2.0777 0.2469,3.3447 0.2469,3.8061c0.0474,0 0.4639,0.2893 1.2471,0.8655c1.0376,-0.227 1.5564,-0.3916 1.5564,-0.4938l1.1872,-4.0531c-0.3168,-0.9627 -0.5836,-1.4441 -0.8056,-1.4441z"/><path d="M344.9876,36.66564l0.0723,0.1347l0.5363,7.8367h0.0598l2.8159,-2.9506c1.6562,2.2348 2.5067,3.3522 2.5466,3.3522c0.7158,-3.4993 1.1623,-5.5994 1.3419,-6.3003c3.0379,0.5836 4.5569,0.9428 4.5569,1.0725c-1.8283,5.809 -2.8758,9.0938 -3.1452,9.857c-0.646,0.0424 -2.0752,0.1771 -4.29,0.4041c-0.9827,-2.352 -1.4741,-3.5592 -1.4741,-3.6216c-0.0823,0.0075 -0.5986,1.0351 -1.5464,3.0853h-0.0623c-2.9481,-0.1995 -4.4222,-0.3791 -4.4222,-0.5362c-1.6586,-7.308 -2.4867,-11.0617 -2.4867,-11.2613v-0.1347c0,-0.1371 1.8332,-0.4489 5.4972,-0.9378z"/><path d="M366.5473,36.65572c2.978,0.3566 4.5269,0.5811 4.6516,0.6709v0.0723l-0.5362,12.4036l-0.1447,0.0624c-0.7158,0 -1.9055,0.0673 -3.5691,0.207c-0.0873,-0.2694 -0.1322,-0.853 -0.1322,-1.7534v-1.4866l-0.0724,-0.4015c0,-0.0474 0.0225,-0.0724 0.0724,-0.0724l-0.0724,-0.4639v-1.2171c-1.2047,0 -2.3919,0.0448 -3.5691,0.1346l0.2693,4.5893c-0.3517,0.0898 -1.5638,0.3118 -3.6415,0.671c-0.1022,0 -0.439,-2.5616 -1.0101,-7.6821c-0.0474,-0.1172 -0.2943,-1.9854 -0.7408,-5.5995c2.0826,0.0474 3.6116,0.0724 4.5868,0.0724c0.1048,0 0.2145,1.6137 0.3317,4.8462h3.7114v-0.671c0,-0.1646 -0.025,-0.3666 -0.0724,-0.6085c0,-0.0399 0.025,-0.0624 0.0724,-0.0624l-0.0724,-0.3392v-1.5464c0,-0.3866 -0.0199,-0.9927 -0.0623,-1.8257z"/><path d="M374.157,36.65572c6.8117,0.8056 10.2187,1.2545 10.2187,1.3518l-0.9902,3.6191c-3.2175,-0.853 -4.9459,-1.3269 -5.1854,-1.4242c0,0.0623 -0.3542,0.843 -1.0625,2.342h0.0723c1.4367,-0.0898 2.998,-0.2319 4.6816,-0.424l0.0723,0.1447c-0.2818,1.5938 -0.4963,2.6812 -0.641,3.2574l-3.9682,-0.5662c0.0399,0.7832 0.0623,1.3743 0.0623,1.7734v0.3616l0.0699,0.1447c0.8804,-0.0973 2.6588,-0.242 5.3325,-0.434c0.0898,0.4265 0.2545,1.4915 0.4939,3.1975c-0.0474,0 -0.0723,0.0225 -0.0723,0.0724c-6.233,-0.3318 -9.4031,-0.5438 -9.5054,-0.641l-1.4965,-4.2576c1.1349,-5.2877 1.7734,-8.1261 1.918,-8.5176z"/><path d="M392.5417,36.65572c0.1521,0.1646 1.6262,1.2446 4.4247,3.2374v0.0624c-0.5712,2.352 -0.9453,3.6938 -1.1249,4.0306l-2.175,1.2595c2.5765,1.8632 3.876,2.8309 3.8985,2.9082c-0.9154,0.439 -2.3246,1.0775 -4.2277,1.9181c-2.2073,-3.018 -3.3098,-4.5619 -3.3098,-4.6317h-0.1247c-0.0474,1.7683 -0.0723,2.9805 -0.0723,3.6415c-0.0274,0.3093 -0.0923,0.4639 -0.197,0.4639h-3.1028c-0.1447,0 -0.3642,-1.918 -0.6585,-5.7541c-0.1396,-0.838 -0.3392,-2.7785 -0.5986,-5.8164c0.7957,-0.1721 3.22,-0.6111 7.2681,-1.3194zM389.6958,39.56393v0.0623c0,0.4191 0.025,1.9181 0.0723,4.4945h0.0624c1.6786,-0.3915 2.5166,-0.6559 2.5166,-0.7931l0.5862,-2.6413z"/><path d="M400.5954,36.65572c6.8116,0.8056 10.2187,1.2545 10.2187,1.3518l-0.9902,3.6191c-3.2175,-0.853 -4.946,-1.3269 -5.1854,-1.4242c0,0.0623 -0.3542,0.843 -1.0626,2.342h0.0724c1.4366,-0.0898 2.9955,-0.2319 4.6816,-0.424l0.0723,0.1447c-0.2819,1.5938 -0.4964,2.6812 -0.641,3.2574l-3.9683,-0.5662c0.0399,0.7832 0.0599,1.3743 0.0599,1.7734v0.3616l0.0723,0.1447c0.8805,-0.0973 2.6588,-0.242 5.3326,-0.434c0.0898,0.4265 0.2544,1.4915 0.4938,3.1975c-0.0474,0 -0.0723,0.0225 -0.0723,0.0724c-6.2355,-0.3318 -9.4031,-0.5438 -9.5053,-0.641l-1.4965,-4.2576c1.1348,-5.2877 1.7733,-8.1261 1.918,-8.5176z"/><path d="M416.2489,37.03733l0.0399,0.0823c-0.6859,6.0708 -1.0725,9.2609 -1.1548,9.5702c-1.4566,-0.1397 -2.377,-0.2345 -2.7636,-0.2894v-0.0424l-0.6584,-8.6199c0.1646,-0.0548 1.6761,-0.2893 4.5369,-0.7008zM412.1659,46.89433c0.0474,0.0274 1.1199,0.1097 3.215,0.2469l0.0424,0.0848c-0.3242,1.8956 -0.5288,2.8459 -0.6185,2.8459h-2.392c-0.0823,0 -0.192,-0.9503 -0.3317,-2.8459c-0.0274,0 -0.0399,-0.0848 -0.0399,-0.2494c0.0823,-0.0274 0.1247,-0.0549 0.1247,-0.0823z"/></g><path d="M306,327.9l-14,-7" fill="none" stroke="#82671d" stroke-width="2" stroke-linecap="round"/><path d="M330,323.9l-8,6" fill="none" stroke="#82671d" stroke-width="2" stroke-linecap="round"/><path d="M344,324.9l6,3" fill="none" stroke="#82671d" stroke-width="2" stroke-linecap="round"/><path d="M285,327.9l-6,1" fill="none" stroke="#82671d" stroke-width="2" stroke-linecap="round"/></g></g></svg>