<svg version="1.1" xmlns="http://www.w3.org/2000/svg" xmlns:xlink="http://www.w3.org/1999/xlink" width="182.13993" height="121.11066" viewBox="0,0,182.13993,121.11066"><g transform="translate(-144.83586,-144.74587)"><g data-paper-data="{&quot;isPaintingLayer&quot;:true}" fill="none" fill-rule="nonzero" stroke="none" stroke-width="none" stroke-linecap="none" stroke-linejoin="miter" stroke-miterlimit="10" stroke-dasharray="" stroke-dashoffset="0" font-family="none" font-weight="none" font-size="none" text-anchor="none" style="mix-blend-mode: normal"><g data-paper-data="{&quot;origPos&quot;:null,&quot;index&quot;:null,&quot;origRot&quot;:0}" stroke="none" stroke-width="0" stroke-linecap="butt"><path d="M247.33763,161.51928c4.85148,2.17258 5.55594,12.73642 1.57758,21.62033c-3.97837,8.8839 -9.0868,16.73454 -9.0868,16.73454l-14.63374,-6.35269c0,0 4.52111,-14.65369 7.72095,-21.79911c3.97837,-8.8839 9.57053,-12.37563 14.42202,-10.20305z" data-paper-data="{&quot;origRot&quot;:0,&quot;origPos&quot;:null}" fill="#ff0021"/><g data-paper-data="{&quot;origPos&quot;:null}" fill="#ffffff"><path d="M229.73318,200.94849c8.73572,3.44059 19.35312,8.18219 15.19455,17.16281c-3.01689,6.5151 -15.91753,12.21279 -23.66796,6.91362c-8.45748,-5.78261 -16.92383,-9.58418 -11.32499,-19.18492c5.22782,-8.96455 11.06269,-8.33208 19.79841,-4.89149z" data-paper-data="{&quot;origRot&quot;:0,&quot;origPos&quot;:null}"/><path d="M233.7879,194.14103c6.74098,2.6652 14.95188,4.39127 12.49478,9.39956c-2.74874,5.60275 -4.36648,4.56368 -15.27463,-0.06384c-12.42642,-5.2716 -15.28538,-3.815 -12.57139,-10.10251c1.58478,-3.67147 8.61025,-1.89841 15.35124,0.76678z" data-paper-data="{&quot;origRot&quot;:0,&quot;origPos&quot;:null}"/></g></g><g data-paper-data="{&quot;origPos&quot;:null,&quot;origRot&quot;:0}" stroke="none" stroke-width="0" stroke-linecap="butt"><path d="M296.19132,163.32057c4.54535,-0.46705 6.08505,-5.70689 7.11654,-5.59535c4.17343,0.45131 7.1862,2.27989 9.46327,9.0535c2.82065,8.39062 2.57378,15.09972 -1.53926,22.93819c-2.80133,5.33868 -5.65352,0.89855 -11.43704,-0.80437c-2.07528,-0.61106 -4.77043,-1.00847 -10.20149,-1.25004c-6.79023,-0.30202 -19.27791,-3.35229 -19.27791,-3.35229c0,0 -1.0645,-5.28774 -1.39435,-10.54116c-0.27132,-5.19931 1.61477,-10.47641 1.61477,-10.47641c0,0 15.14833,1.10757 25.65545,0.02793z" data-paper-data="{&quot;origPos&quot;:null}" fill="#0052ef"/><path d="M318.02191,155.10583c3.89407,-0.18571 5.91776,3.68934 7.12987,7.39461c0.79434,2.42824 1.01421,14.37841 -2.17183,20.46557c-0.98913,1.88979 -3.3624,3.49941 -3.3624,3.49941c0,0 0.99858,4.99484 -0.45719,5.04979c-1.15561,0.04362 -3.12115,0.16649 -3.77398,-0.92417c-2.81009,-4.6947 -3.34816,-16.10672 -3.60879,-21.57196c-0.35779,-7.50255 2.43789,-13.73172 6.24433,-13.91324z" data-paper-data="{&quot;origPos&quot;:null}" fill="#f9c869"/><path d="M313.04057,153.45676c4.62315,1.1476 8.09877,5.55414 8.50325,14.03588c0.40449,8.48174 -4.08222,17.78965 -4.08222,17.78965c0,0 0.6161,6.12503 -0.9534,6.32438c-3.24845,0.41263 -8.56602,0.72507 -8.79882,-0.50081c-0.85947,-4.52556 -0.20158,-3.69466 -1.75954,-9.59176c-1.0087,-3.81808 -4.99197,-10.08731 -5.18008,-14.03192c-0.40449,-8.48174 4.65873,-15.91499 12.27083,-14.02544z" data-paper-data="{&quot;origPos&quot;:null}" fill="#8e4108"/></g><g data-paper-data="{&quot;origPos&quot;:null,&quot;origRot&quot;:0}" stroke="none" stroke-width="0" stroke-linecap="butt"><path d="M297.51282,185.78312c4.54535,-0.46705 6.08505,-5.70689 7.11654,-5.59535c4.17343,0.45131 7.1862,2.27989 9.46326,9.0535c2.82065,8.39062 2.57378,15.09972 -1.53925,22.93819c-2.80133,5.33868 -5.65352,0.89855 -11.43704,-0.80437c-2.07528,-0.61106 -4.77043,-1.00847 -10.20149,-1.25004c-6.79023,-0.30202 -19.56335,-4.08953 -19.56335,-4.08953c0,0 -0.42253,-7.57091 0.25839,-12.62225c0.53738,-3.98645 2.86335,-10.53596 2.86335,-10.53596c0,0 12.53244,3.98544 23.03957,2.90581z" data-paper-data="{&quot;origPos&quot;:null}" fill="#0052ef"/><path d="M319.34341,177.56838c3.89407,-0.18571 5.91776,3.68934 7.12987,7.3946c0.79434,2.42824 1.01421,14.37841 -2.17183,20.46557c-0.98913,1.88979 -3.3624,3.49941 -3.3624,3.49941c0,0 0.99858,4.99484 -0.45719,5.04979c-1.15561,0.04362 -3.12115,0.16649 -3.77398,-0.92417c-2.81009,-4.6947 -3.34815,-16.10673 -3.60878,-21.57196c-0.35779,-7.50255 2.43789,-13.73172 6.24433,-13.91324z" data-paper-data="{&quot;origPos&quot;:null}" fill="#f9c869"/><path d="M314.36208,175.91931c4.62314,1.1476 8.09877,5.55414 8.50325,14.03588c0.40449,8.48174 -4.08222,17.78965 -4.08222,17.78965c0,0 0.6161,6.12503 -0.95341,6.32439c-3.24845,0.41263 -8.56601,0.72507 -8.79882,-0.50081c-0.85947,-4.52556 -0.20158,-3.69466 -1.75954,-9.59176c-1.0087,-3.81808 -4.99197,-10.08731 -5.18008,-14.03192c-0.40449,-8.48174 4.65873,-15.91499 12.27083,-14.02544z" data-paper-data="{&quot;origPos&quot;:null}" fill="#8e4108"/></g><g data-paper-data="{&quot;origPos&quot;:null,&quot;origRot&quot;:0}"><path d="M254.49254,159.10024c21.13084,-1.39979 27.79372,11.80161 28.51719,26.9722c0.72347,15.17059 -8.70707,28.14671 -18.85758,28.63078c-11.01161,0.52513 -19.84019,-0.37386 -27.25388,-8.53281c-5.52342,-6.07866 -3.51705,-15.3152 -3.90829,-23.51917c-0.72347,-15.17059 0.78961,-22.17891 21.50256,-23.55101z" data-paper-data="{&quot;origPos&quot;:null}" fill="#0052ef" stroke="none" stroke-width="0" stroke-linecap="butt"/><path d="M253.89322,159.12882c0,0 2.81914,17.129 3.79775,29.2523c0.89761,11.11998 -2.32912,22.53653 -2.32912,22.53653c0,0 -13.73299,1.64252 -19.47098,-6.064c-3.75419,-5.04215 -5.18167,-10.84586 -5.72123,-18.3637c-0.53956,-7.51783 1.38745,-15.81293 4.2763,-19.74818c6.82382,-9.29549 19.44728,-7.61295 19.44728,-7.61295z" data-paper-data="{&quot;origPos&quot;:null}" fill="#ff0021" stroke="none" stroke-width="0" stroke-linecap="butt"/><path d="M233.47025,174.01074c0,0 6.73056,-2.4637 10.81824,-3.0909c5.25031,-0.80558 15.21882,-0.14514 15.21882,-0.14514" data-paper-data="{&quot;origPos&quot;:null,&quot;origRot&quot;:0}" fill="none" stroke="#0052ef" stroke-width="10" stroke-linecap="round"/><path d="M235.00289,195.46991c0,0 6.99218,-1.57471 11.12661,-1.66926c5.31035,-0.12145 15.11034,1.81963 15.11034,1.81963" data-paper-data="{&quot;origPos&quot;:null}" fill="none" stroke="#0052ef" stroke-width="10" stroke-linecap="round"/><path d="M259.50395,199.10693c-2.26179,0.10786 -4.18279,-1.63824 -4.29065,-3.90004c-0.10786,-2.26179 1.63825,-4.18279 3.90004,-4.29065c2.26179,-0.10786 4.18279,1.63824 4.29065,3.90004c0.10786,2.26179 -1.63824,4.18279 -3.90004,4.29065z" data-paper-data="{&quot;origPos&quot;:null}" fill="#ffe84f" stroke="none" stroke-width="0" stroke-linecap="butt"/><path d="M258.3226,174.33508c-2.26179,0.10786 -4.18279,-1.63824 -4.29065,-3.90004c-0.10786,-2.26179 1.63825,-4.18279 3.90004,-4.29065c2.26179,-0.10786 4.18279,1.63825 4.29065,3.90004c0.10786,2.26179 -1.63824,4.18279 -3.90004,4.29065z" data-paper-data="{&quot;origPos&quot;:null}" fill="#ffe84f" stroke="none" stroke-width="0" stroke-linecap="butt"/></g><g data-paper-data="{&quot;origPos&quot;:null,&quot;origRot&quot;:0}" stroke="none" stroke-width="0" stroke-linecap="butt"><path d="M253.05924,215.66313c-1.65997,7.65118 -6.70781,22.13187 -6.70781,22.13187l-15.55062,-3.56109c0,0 0.54119,-9.35071 2.60504,-18.86342c2.06385,-9.51271 8.89464,-17.60165 14.08952,-16.47459c5.19488,1.12707 7.6277,7.25453 5.56385,16.76724z" data-paper-data="{&quot;origRot&quot;:0,&quot;origPos&quot;:null}" fill="#ff0021"/><g data-paper-data="{&quot;origPos&quot;:null}" fill="#ffffff"><path d="M251.33567,256.76253c-1.18398,11.05077 -10.25562,9.09214 -20.49473,8.73401c-9.3831,-0.32818 -16.39318,-12.5654 -14.95962,-19.60052c1.97608,-9.69743 13.33725,-7.22036 22.41177,-4.81132c9.07452,2.40904 14.1481,5.35936 13.04259,15.67784z" data-paper-data="{&quot;origRot&quot;:0,&quot;origPos&quot;:null}"/><path d="M251.88067,241.68343c-1.54253,6.67227 -2.9811,3.80417 -16.11323,0.68129c-11.52765,-2.74133 -13.44644,-2.86381 -12.33789,-9.00526c0.99093,-5.48983 8.62625,-2.01136 15.63475,-0.16066c7.00849,1.85069 13.71712,4.5885 12.81638,8.48463z" data-paper-data="{&quot;origRot&quot;:0,&quot;origPos&quot;:null}"/></g></g><g data-paper-data="{&quot;origRot&quot;:0,&quot;origPos&quot;:null}"><path d="M182.01967,145.11474c3.81604,0.38659 9.15662,11.46682 9.58105,20.36673c0.34201,7.17155 -6.49002,5.71564 -10.13096,5.88927c-3.64094,0.17363 -3.517,-13.91857 -3.85901,-21.09012c-0.34201,-7.17155 1.93884,-5.41612 4.40893,-5.16588z" data-paper-data="{&quot;origPos&quot;:null}" fill="#880010" stroke="none" stroke-width="0" stroke-linecap="butt"/><path d="M226.37443,216.32301c0,0 1.25023,1.64259 -0.02653,3.58864c-1.27675,1.94605 -4.37165,3.45938 -6.01056,0.80866c-1.96029,-3.17053 -7.99092,-2.03622 -6.71417,-3.98227c0,0 0.67599,-7.27339 3.53982,-7.96881c0,0 8.20171,-3.4453 9.59638,-2.26026c0,0 1.4052,1.7168 1.40722,6.36736c0.0011,2.51974 -1.79216,3.44669 -1.79216,3.44669z" data-paper-data="{&quot;origRot&quot;:0,&quot;origPos&quot;:null}" fill="#5a2c0a" stroke="none" stroke-width="0" stroke-linecap="butt"/><path d="M187.55944,213.34498c0.80046,-4.35704 -3.93983,-37.09745 -3.89416,-42.9c0.06756,-8.58478 7.90885,-6.58626 16.43402,-7.59859c9.8021,-1.16396 13.95385,-8.2369 23.35645,-5.23241c3.62523,1.1584 5.63173,4.05743 8.12663,6.93138c1.41534,1.63037 2.93719,6.29621 3.67273,17.06163c1.03972,15.21756 -1.22068,19.65415 -5.70764,26.16249c-2.8491,4.13262 -7.25003,2.59871 -11.90031,5.99931c-1.42548,1.04242 -2.15565,2.23269 -2.14639,2.427c0.494,10.35865 -7.7912,16.46125 -15.88218,16.8471c-8.09098,0.38585 -14.82631,-2.99816 -15.10254,-8.79057c-0.27624,-5.79241 2.76508,-9.39238 3.0434,-10.90735z" data-paper-data="{&quot;origPos&quot;:null}" fill="#ffdebd" stroke="none" stroke-width="0" stroke-linecap="butt"/><path d="M190.46473,164.96834c4.86652,-0.58483 9.10541,1.38592 9.46784,4.40179c0.36243,3.01587 -3.28885,5.9348 -8.15535,6.51963c-4.86652,0.58483 -9.1054,-1.38592 -9.46784,-4.40179c-0.36243,-3.01587 3.28885,-5.93481 8.15535,-6.51964z" data-paper-data="{&quot;origPos&quot;:null,&quot;origRot&quot;:0}" fill="#ffffff" stroke="none" stroke-width="0" stroke-linecap="butt"/><path d="M194.87817,202.57412c2.60553,-0.12426 6.27097,-3.36058 7.52195,-1.07164c1.4553,2.66279 -0.31239,4.14572 -0.31239,4.14572c0,0 1.5462,-0.65666 2.40311,2.96059c0.63655,2.68706 -5.00163,3.89982 -9.41489,4.11028c-4.41326,0.21047 -8.68754,0.43101 -8.92067,-2.32056c-0.98153,-11.58497 4.30964,-7.61393 8.7229,-7.8244z" data-paper-data="{&quot;origPos&quot;:null}" fill="#5a2c0a" stroke="none" stroke-width="0" stroke-linecap="butt"/><path d="M196.08413,177.73836c4.83544,-0.80219 9.15834,0.97674 9.65547,3.97334c0.49714,2.99661 -3.01976,6.07615 -7.8552,6.87834c-4.83544,0.80219 -9.15834,-0.97674 -9.65547,-3.97334c-0.49714,-2.99661 3.01976,-6.07615 7.8552,-6.87834z" data-paper-data="{&quot;origPos&quot;:null,&quot;origRot&quot;:0}" fill="#ffffff" stroke="none" stroke-width="0" stroke-linecap="butt"/><path d="M192.57297,180.70196c-0.04535,-0.95092 0.6078,-1.84505 1.69876,-2.52278c1.091,-0.67674 2.62081,-1.13713 4.32987,-1.21864c1.70906,-0.0815 3.27573,0.23122 4.42618,0.80107c1.1505,0.57084 1.88577,1.39876 1.93112,2.34968c0.04535,0.95092 -0.6078,1.84505 -1.69876,2.52278c-1.091,0.67674 -2.62081,1.13713 -4.32987,1.21864c-1.70906,0.0815 -3.27573,-0.23122 -4.42618,-0.80107c-1.1505,-0.57084 -1.88577,-1.39876 -1.93112,-2.34968z" data-paper-data="{&quot;origPos&quot;:null}" id="ID0.2989244391210377" fill="#000000" stroke="none" stroke-width="1" stroke-linecap="butt"/><path d="M187.40888,167.93346c-0.04535,-0.95092 0.6078,-1.84505 1.69876,-2.52278c1.091,-0.67674 2.86379,-0.91245 4.32987,-1.21864c0.53443,-0.10858 1.3104,-0.29576 1.8051,0.06409c0.59935,0.45497 0.91305,1.23891 1.19402,1.94533c0.31953,1.24219 1.16672,2.69548 0.58294,3.82658c-0.53333,0.99253 -2.09318,0.99083 -3.25338,1.05617c-1.49868,0.08449 -3.27573,-0.23122 -4.42618,-0.80107c-1.1505,-0.57084 -1.88577,-1.39876 -1.93112,-2.34968z" data-paper-data="{&quot;origPos&quot;:null}" id="ID0.2989244391210377" fill="#000000" stroke="none" stroke-width="1" stroke-linecap="round"/><path d="M155.69694,160.49212c14.81349,-3.10565 15.79999,-0.26077 20.96141,7.53173c7.52061,11.35431 6.83995,26.70815 12.84258,38.93306c1.57612,3.20994 -1.47516,11.72841 -1.30482,15.30036c0.3484,7.30568 -4.67633,11.6769 -10.88103,12.27538c-13.68615,1.3201 -14.06148,-5.43217 -14.40989,-12.73784c0,0 0.9492,-8.10367 5.08233,-11.08429c0,0 -18.73171,-10.31706 -21.54223,-22.00032c-3.61793,-15.03963 -1.38639,-25.98782 9.25165,-28.21809z" data-paper-data="{&quot;origPos&quot;:null}" fill="#ff0021" stroke="none" stroke-width="0" stroke-linecap="butt"/><path d="M164.35047,162.97669c5.46141,-0.26045 9.63998,1.00511 10.46991,11.71456c0.87613,11.30574 -3.8462,12.39729 -9.30761,12.65774c-5.46141,0.26045 -10.14895,-4.98433 -10.46991,-11.71456c-0.32096,-6.73022 3.8462,-12.39729 9.30761,-12.65774z" data-paper-data="{&quot;origPos&quot;:null}" fill="#ffffff" stroke="none" stroke-width="0" stroke-linecap="butt"/><path d="M179.903,144.81523c0.86703,0.15888 8.36672,38.98855 10.0873,49.87611c0.83623,5.29149 0.92522,16.07417 0.05819,15.91529c-3.20512,-0.58732 -8.36923,-2.40897 -10.26508,-7.41944c-2.29103,-6.0549 -8.67188,-26.91258 -9.18347,-42.71315c-0.20913,-6.45919 6.09794,-16.24613 9.30305,-15.65881z" data-paper-data="{&quot;origPos&quot;:null}" fill="#bc041a" stroke="none" stroke-width="0" stroke-linecap="butt"/><path d="M171.04748,183.28073l-13.03764,-4.21157l5.72186,-4.68173l-5.43327,-2.46754l9.81667,-5.807l2.38166,3.54931l-7.5598,1.88013l4.79267,2.48929l-4.51513,3.79128l7.6284,1.16778z" data-paper-data="{&quot;origPos&quot;:null}" fill="#ff0021" stroke="none" stroke-width="0" stroke-linecap="butt"/><path d="M223.8271,158.23224c2.56314,0.24929 3.93102,2.11123 4.39145,3.53655c1.40525,4.3501 1.53727,10.77766 0.42822,15.21252c-0.6374,2.54882 -2.26082,2.67097 -2.47649,2.92442c-0.22786,0.26779 1.70657,2.89172 1.86233,6.15777c0.24993,5.24074 -3.27037,9.04105 -8.44216,9.28769c-5.67122,0.27046 -8.84614,-0.07141 -9.04999,-0.91666c-1.18724,-4.9228 3.12102,-6.61187 5.0002,-10.52842c0,0 3.5939,-12.96782 2.96974,-18.91622c0,0 -4.96505,-9.41297 -4.90981,-12.40662c0.0274,-1.48471 3.12846,-1.6423 4.71721,-1.25009c0,0 4.27126,-0.35599 5.50741,1.66082c2.92286,4.76871 -0.73987,5.1661 0.00191,5.23825z" data-paper-data="{&quot;origPos&quot;:null}" fill="#38291e" stroke="none" stroke-width="0" stroke-linecap="butt"/><path d="M207.57731,153.37579c6.63432,0.18418 11.05867,-1.65607 11.49382,12.71693c0.20055,6.62439 -3.63289,13.18802 -9.49425,13.46755c-5.86136,0.27952 -13.39989,-5.76084 -14.22879,-12.33621c-1.20775,-9.58075 1.61528,-14.14292 12.22922,-13.84826z" data-paper-data="{&quot;origPos&quot;:null}" fill="#ffdebd" stroke="none" stroke-width="0" stroke-linecap="butt"/><g data-paper-data="{&quot;origPos&quot;:null}" fill="none" stroke="#f6b09a" stroke-width="3.5" stroke-linecap="round"><path d="M195.00763,226.88152c0,0 -1.86915,-2.87755 0.87634,-6.80446c3.9375,-5.63184 11.2521,-2.78416 11.2521,-2.78416" data-paper-data="{&quot;origPos&quot;:null}"/><path d="M201.58501,223.85047l-0.28581,-5.99319" data-paper-data="{&quot;origPos&quot;:null}"/><path d="M207.38086,219.42651l-0.06124,-1.28425" data-paper-data="{&quot;origPos&quot;:null}"/></g><path d="M185.9079,187.86489c0.47534,1.35466 0.66639,1.28033 1.9676,1.88686c1.34239,0.62571 3.09836,2.00125 3.09836,2.00125c0,0 -3.55347,1.62945 -6.24281,1.7577c-1.82602,0.08708 -5.05603,-0.75337 -5.82856,-3.53744c-0.77454,-9.50501 8.32224,-7.0985 8.32224,-7.0985c0,0 -1.85526,3.56973 -1.31682,4.99013z" data-paper-data="{&quot;origPos&quot;:null}" fill="#38291e" stroke="none" stroke-width="0" stroke-linecap="butt"/><path d="M182.28283,170.75736c0.16129,1.51044 3.42908,3.85704 3.42908,3.85704c0,0 -7.02849,6.25644 -10.63139,-2.5733c-0.5685,-2.83279 1.93346,-5.04175 3.60187,-5.78897c2.45721,-1.10049 6.36353,-1.25207 6.36353,-1.25207c0,0 -0.94518,2.02045 -1.86012,3.18509c-0.88688,1.12893 -1.0909,1.14893 -0.90301,2.5722z" data-paper-data="{&quot;origPos&quot;:null,&quot;index&quot;:null,&quot;origRot&quot;:0}" fill="#38291e" stroke="none" stroke-width="0" stroke-linecap="butt"/></g></g></g></svg>