<svg version="1.1" xmlns="http://www.w3.org/2000/svg" xmlns:xlink="http://www.w3.org/1999/xlink" width="484" height="366" viewBox="0,0,484,366"><defs><linearGradient x1="240.01768" y1="-1.7" x2="240.01768" y2="364.3" gradientUnits="userSpaceOnUse" id="color-1"><stop offset="0" stop-color="#cecece"/><stop offset="1" stop-color="#ffffff"/></linearGradient><linearGradient x1="407.24503" y1="200.62417" x2="407.24503" y2="253.90563" gradientUnits="userSpaceOnUse" id="color-2"><stop offset="0" stop-color="#ff7306"/><stop offset="1" stop-color="#ffc805"/></linearGradient></defs><g transform="translate(1.98232,1.7)"><g data-paper-data="{&quot;isPaintingLayer&quot;:true}" fill-rule="nonzero" stroke-linejoin="miter" stroke-miterlimit="10" stroke-dasharray="" stroke-dashoffset="0" style="mix-blend-mode: normal"><path d="M-1.98232,364.3v-366h484v366z" fill="url(#color-1)" stroke="none" stroke-width="0" stroke-linecap="butt"/><text transform="translate(272.01768,26.3) scale(0.5,0.5)" font-size="40" xml:space="preserve" fill="#848484" fill-rule="nonzero" stroke="none" stroke-width="1" stroke-linecap="butt" stroke-linejoin="miter" stroke-miterlimit="10" stroke-dasharray="" stroke-dashoffset="0" font-family="Sans Serif" font-weight="normal" text-anchor="start" style="mix-blend-mode: normal"><tspan x="0" dy="0">Scralaxy hall of fame</tspan><tspan x="0" dy="46.150000000000006px">                    goes here</tspan></text><path d="M381.23262,253.90563v-53.28146h52.02482v53.28146z" fill="#000000" stroke="#995900" stroke-width="0" stroke-linecap="butt"/><path d="M380.6043,200.62417h53.28146v53.28146h-53.28146z" fill="url(#color-2)" stroke="#995900" stroke-width="9" stroke-linecap="butt"/><path d="M416.72544,229.02966c-0.17872,0.01268 -0.15054,0.01307 -0.22677,0c-0.30531,-0.0515 -0.60523,-0.12761 -0.90733,-0.19102c-0.3021,-0.06342 -0.59831,-0.15861 -0.90733,-0.19115c-0.2998,-0.03165 -0.6051,0 -0.90721,0c-0.30223,0 -0.60523,0 -0.90733,0c-0.3021,0 -0.60523,0 -0.90733,0c-0.37782,0 -0.75615,0 -1.1341,0c-0.37782,0 -0.75615,0 -1.1341,0c-0.45315,0 -0.91002,-0.03779 -1.361,0c-0.30979,0.02601 -0.59831,0.15861 -0.90721,0.19115c-0.29992,0.03165 -0.60523,0 -0.90733,0c-0.3021,0 -0.6051,0 -0.90733,0c-0.3021,0 -0.60741,-0.03177 -0.90721,0c-0.30902,0.03241 -0.60344,0.13414 -0.90733,0.19102c-0.37603,0.07034 -0.76897,0.08866 -1.1341,0.19115c-0.3203,0.08968 -0.60523,0.25483 -0.90733,0.38205c-0.3021,0.12722 -0.58704,0.29237 -0.90733,0.38218c-0.36514,0.10237 -0.76884,0.08866 -1.1341,0.19102c-0.3203,0.08981 -0.6051,0.25496 -0.90721,0.38218c-0.30223,0.12722 -0.59114,0.28237 -0.90733,0.38218c-0.29173,0.09199 -0.60523,0.12722 -0.90733,0.19102c-0.3021,0.0638 -0.61561,0.09891 -0.90733,0.19102c-0.31607,0.0998 -0.6051,0.25496 -0.90721,0.38218c-0.3021,0.12722 -0.62112,0.23113 -0.90733,0.38218c-0.3203,0.16848 -0.64008,0.3481 -0.90733,0.5732c-0.26713,0.22498 -0.48032,0.49441 -0.68044,0.76423c-0.17924,0.24112 -0.25726,0.53272 -0.45367,0.76423c-0.18641,0.21972 -0.5053,0.62253 -0.68044,0.5732c-0.16514,-0.04612 0,-0.50965 0,-0.76423c0,-0.31837 -0.04177,-0.63931 0,-0.95538c0.03446,-0.26059 0.15105,-0.50978 0.22677,-0.76423c0.07585,-0.25444 0.15118,-0.50978 0.2269,-0.76423c0.07572,-0.25457 0.07213,-0.53656 0.22677,-0.76435c0.15887,-0.2342 0.49402,-0.35348 0.68056,-0.5732c0.19641,-0.23151 0.27443,-0.52311 0.45354,-0.76423c0.20012,-0.26982 0.7395,-0.61522 0.68056,-0.76435c-0.05125,-0.12953 -0.60344,0.13414 -0.90733,0.19115c-0.37603,0.07034 -0.76897,0.08866 -1.1341,0.19102c-0.3203,0.08981 -0.62112,0.23125 -0.90733,0.38218c-0.3203,0.16848 -0.55386,0.46161 -0.90733,0.5732c-0.28301,0.08943 -0.73988,0.18795 -0.90721,0c-0.17283,-0.1941 0.15105,-0.50978 0.22677,-0.76423c0.07585,-0.25457 0.15105,-0.50978 0.2269,-0.76435c0.07572,-0.25444 0.11748,-0.51849 0.22677,-0.76423c0.11838,-0.26636 0.33529,-0.498 0.45367,-0.76435c0.10928,-0.2456 0.0875,-0.52964 0.22677,-0.76423c0.16873,-0.28468 0.47096,-0.49941 0.68056,-0.76423c0.24445,-0.30877 0.416,-0.6584 0.68044,-0.95538c0.19231,-0.21588 0.41959,-0.41613 0.68044,-0.5732c0.27494,-0.16553 0.59114,-0.28237 0.90733,-0.38218c0.29173,-0.09212 0.6051,-0.12761 0.90733,-0.19102c0.3021,-0.06342 0.5978,-0.16207 0.90721,-0.19102c0.37526,-0.03523 0.75859,0.03165 1.1341,0c0.38333,-0.03216 1.01982,0.04997 1.1341,-0.19115c0.11262,-0.23651 -0.48032,-0.49441 -0.68044,-0.76423c-0.17911,-0.24112 -0.25713,-0.53272 -0.45367,-0.76435c-0.18641,-0.21972 -0.41959,-0.41613 -0.68044,-0.5732c-0.27494,-0.1654 -0.59114,-0.28237 -0.90733,-0.38205c-0.2916,-0.09212 -0.59831,-0.15861 -0.90721,-0.19115c-0.29992,-0.03165 -0.60523,0 -0.90733,0c-0.37795,0 -0.75628,0 -1.1341,0c-0.3021,0 -0.85237,0.13914 -0.90733,0c-0.05855,-0.14746 0.4242,-0.41113 0.68044,-0.5732c0.35258,-0.22267 0.78165,-0.3504 1.13423,-0.5732c0.25624,-0.16194 0.43727,-0.39742 0.68044,-0.5732c0.28673,-0.20704 0.58704,-0.4046 0.90733,-0.5732c0.28622,-0.15092 0.57743,-0.32017 0.90721,-0.38205c0.36885,-0.06918 0.75628,0 1.1341,0c0.30223,0 0.60754,-0.03177 0.90733,0c0.30889,0.03241 0.60523,0.12761 0.90733,0.19102c0.3021,0.06342 0.59831,0.22357 0.90721,0.19102c0.33529,-0.0351 0.77447,-0.12069 0.90733,-0.38205c0.15156,-0.29813 -0.15105,-0.63739 -0.22677,-0.95538c-0.07585,-0.31799 -0.10531,-0.64777 -0.2269,-0.95538c-0.10659,-0.26982 -0.25713,-0.53272 -0.45367,-0.76423c-0.18641,-0.21972 -0.41959,-0.41613 -0.68044,-0.5732c-0.27494,-0.16553 -0.62099,-0.23125 -0.90733,-0.38218c-0.32017,-0.16848 -0.58691,-0.40473 -0.90721,-0.5732c-0.28634,-0.15092 -0.90733,-0.31453 -0.90733,-0.38218c0,-0.06765 0.60523,0 0.90733,0c0.3021,0 0.6051,0 0.90721,0c0.30223,0 0.60523,0 0.90733,0c0.3021,0 0.60741,-0.03165 0.90733,0c0.30889,0.03254 0.60331,0.13414 0.90733,0.19115c0.37603,0.07034 0.77665,0.07072 1.1341,0.19102c0.4087,0.13798 0.74898,0.39319 1.1341,0.5732c0.29531,0.13837 0.66814,0.18077 0.90733,0.38218c0.23907,0.2014 0.25713,0.53272 0.45354,0.76423c0.18654,0.21972 0.49402,0.35348 0.68056,0.5732c0.19641,0.23164 0.37334,0.76435 0.45354,0.76435c0.08033,0 0,-0.50978 0,-0.76435c0,-0.25444 -0.03754,-0.5117 0,-0.76423c0.03856,-0.26021 0.15118,-0.50978 0.2269,-0.76435c0.07572,-0.25444 0.15105,-0.50965 0.22677,-0.76423c0.07585,-0.25444 0.13747,-0.51286 0.2269,-0.76423c0.13747,-0.38564 0.18872,-0.81163 0.45367,-1.1464c0.20947,-0.26482 0.68044,-0.66878 0.90721,-0.5732c0.2269,0.09545 -0.04164,0.63931 0,0.95525c0.03446,0.26072 0.15925,0.50825 0.2269,0.76435c0.0834,0.31671 0.15105,0.63739 0.22677,0.95525c0.07572,0.31799 0.1162,0.64469 0.2269,0.95538c0.11697,0.32824 0.25624,0.65571 0.45354,0.95538c0.18334,0.27814 0.35258,0.60638 0.68056,0.76423c0.26213,0.1262 0.65597,0.14106 0.90721,0c0.28135,-0.15784 0.37154,-0.48839 0.45367,-0.76423c0.07354,-0.24688 0,-0.50978 0,-0.76423c0,-0.25457 0,-0.50978 0,-0.76435c0,-0.25444 0,-0.50978 0,-0.76423c0,-0.25457 0.03767,-0.5117 0,-0.76435c-0.03856,-0.26021 -0.18821,-0.50402 -0.22677,-0.76423c-0.03767,-0.25265 0,-0.50978 0,-0.76423c0,-0.31799 0,-0.63739 0,-0.95538c0,-0.25457 -0.21409,-0.67403 0,-0.76423c0.23945,-0.10096 0.63239,0.21665 0.90733,0.38205c0.26085,0.15707 0.43727,0.39742 0.68044,0.5732c0.28673,0.20717 0.64008,0.34823 0.90733,0.5732c0.26713,0.2251 0.47083,0.49953 0.68044,0.76435c0.24445,0.30877 0.416,0.6584 0.68044,0.95525c0.19231,0.21601 0.49402,0.35348 0.68044,0.5732c0.19653,0.23164 0.30262,0.50978 0.45367,0.76435c0.15105,0.25444 0.33529,0.49787 0.45367,0.76423c0.10928,0.24573 0.11748,0.51862 0.22677,0.76435c0.11851,0.26623 0.33529,0.49787 0.45367,0.76423c0.10941,0.24573 -0.04535,0.67249 0.2269,0.76423c0.2948,0.09942 0.6051,-0.25483 0.90721,-0.38205c0.30223,-0.12735 0.6511,-0.19679 0.90733,-0.38218c0.28673,-0.20717 0.37334,-0.57935 0.68044,-0.76423c0.25367,-0.15259 0.60523,-0.12773 0.90733,-0.19115c0.3021,-0.06342 0.59831,-0.15861 0.90733,-0.19102c0.2998,-0.03177 0.6051,0 0.90733,0c0.37782,0 0.75615,0 1.1341,0c0.3021,0 0.6142,-0.06188 0.90721,0c0.3276,0.06918 0.63239,0.21665 0.90733,0.38218c0.26085,0.15694 0.73809,0.37936 0.68044,0.5732c-0.05573,0.18833 -0.62278,0.08443 -0.90721,0.19102c-0.40242,0.15054 -0.74898,0.39319 -1.13423,0.5732c-0.29531,0.13837 -0.62099,0.23113 -0.90721,0.38218c-0.3203,0.16848 -0.6206,0.36603 -0.90733,0.5732c-0.24317,0.17578 -0.49402,0.35348 -0.68044,0.5732c-0.19641,0.23151 -0.30262,0.50978 -0.45367,0.76423c-0.15105,0.25457 -0.41651,0.48147 -0.45367,0.76423c-0.04266,0.3226 -0.04535,0.72617 0.2269,0.95538c0.21357,0.18001 0.6051,0 0.90721,0c0.3021,0 0.61433,-0.06188 0.90733,0c0.32747,0.06918 0.62099,0.23125 0.90733,0.38218c0.32017,0.16848 0.58691,0.4046 0.90721,0.5732c0.28634,0.15092 0.63239,0.21665 0.90733,0.38218c0.26085,0.15694 0.47186,0.36834 0.68044,0.5732c0.24586,0.2415 0.54809,0.46648 0.68056,0.76423c0.10608,0.23843 0.21357,0.58422 0,0.76423c-0.2137,0.18001 -0.60523,0 -0.90733,0c-0.3021,0 -0.60523,0 -0.90733,0c-0.3021,0 -0.6051,0 -0.90733,0c-0.37782,0 -0.76525,-0.06918 -1.1341,0c-0.32978,0.06188 -0.63239,0.21665 -0.90721,0.38218c-0.26085,0.15707 -0.78037,0.3627 -0.68056,0.5732c0.12709,0.26713 0.77845,0.21588 1.13423,0.38218c0.33016,0.15438 0.62048,0.36603 0.90721,0.5732c0.24317,0.17578 0.45367,0.38243 0.68044,0.5732c0.2269,0.19064 0.46955,0.36988 0.68056,0.5732c0.31837,0.30646 0.58883,0.64879 0.90721,0.95525c0.21101,0.20332 0.49402,0.35348 0.68056,0.5732c0.19641,0.23164 0.4119,0.48198 0.45367,0.76435c0.03856,0.26021 0.04535,0.67249 -0.2269,0.76423c-0.2948,0.09942 -0.62099,-0.23113 -0.90733,-0.38205c-0.32017,-0.1686 -0.58691,-0.40473 -0.90721,-0.5732c-0.28634,-0.15105 -0.58704,-0.29237 -0.90733,-0.38218c-0.36514,-0.10249 -0.75129,-0.15515 -1.1341,-0.19115c-0.30031,-0.02819 -0.60523,0 -0.90733,0c-0.3021,0 -0.60741,-0.03165 -0.90721,0c-0.30902,0.03254 -0.60164,0.14759 -0.90733,0.19115c-0.77665,0.10198 -1.62095,0.19448 -1.361,0.5732z" fill="#7f00ff" stroke="#7f00ff" stroke-width="0.65474" stroke-linecap="round"/><path d="M398.15085,239.54548c-0.07764,-0.16374 0.00717,0.61586 0,0c-0.02806,-2.4641 -0.5887,-4.98124 -0.08443,-7.39921c0.2424,-1.16319 1.44492,-1.95022 2.22798,-2.87984c0.19576,-0.23241 0.20243,-0.25239 0.55142,-0.41972c1.39585,-0.66916 2.79759,-1.34806 4.25673,-1.88475c0.55719,-0.20486 1.16652,-0.27814 1.76252,-0.32914c1.17689,-0.10096 2.36545,-0.08392 3.54619,-0.12581c0.82675,-0.02921 1.66464,-0.20435 2.48242,-0.08789c1.20444,0.17142 2.40017,0.48813 3.51813,0.94218c0.56936,0.23138 1.20521,0.55245 1.46401,1.08183c0.40588,0.83085 0.27776,1.81249 0.39358,2.72021c0.02895,0.22703 0.01422,0.35527 0.0214,0.53272c0.00717,0.17744 0.01358,0.33874 0.0214,0.53272c0.03126,0.77614 0.07469,1.55433 0.09378,2.33073c0.01717,0.71029 0.02396,1.42301 0.01473,2.13343c-0.00243,0.17885 -0.00423,0.35412 -0.04945,0.53528c-0.18116,0.72425 -0.38538,1.44658 -0.62368,2.15597c-0.50133,1.49373 -0.80253,3.0806 -1.59635,4.458c-0.39166,0.67967 -1.19137,1.07683 -1.85605,1.53281c-0.33311,0.22869 -0.71388,0.41933 -1.11604,0.50645c-1.20546,0.26085 -2.43502,0.51119 -3.67213,0.53028c-1.01047,0.0155 -2.0349,-0.14695 -3.00027,-0.42715c-1.09323,-0.31761 -2.13368,-0.75961 -3.13224,-1.23609c-1.08606,-0.58653 -2.07667,-1.31795 -3.10392,-1.94394c-0.25688,-0.15656 -0.36552,-0.23074 -0.51247,-0.38192c-0.12863,-0.13196 -0.19346,-0.30928 -0.30249,-0.4561c-0.1162,-0.15643 -0.28148,-0.28314 -0.37334,-0.45354c-0.34477,-0.63969 -0.62125,-1.31219 -0.63969,-1.7779z" fill="#ffd499" stroke="#ffd499" stroke-width="0.42986" stroke-linecap="round"/><path d="M416.27177,229.33945c0.40575,-0.072 0.97613,-0.00666 1.19073,0.32363c0.44521,0.68582 0.54976,1.53973 0.68454,2.33521c0.06239,0.78562 0.09993,1.60455 -0.09865,2.36455c-0.11556,0.44175 -0.47686,0.89849 -0.92617,1.05518c-0.56705,0.1982 -1.44223,0.27084 -1.8148,-0.17949c-0.59396,-0.72515 -0.54924,-1.81813 -0.529,-2.75762c-0.02921,-0.85993 0.12107,-1.74228 0.50248,-2.54879c0.15899,-0.33516 0.59831,-0.52119 0.99087,-0.59268z" fill="#ffffff" stroke="none" stroke-width="0.21492" stroke-linecap="round"/><path d="M415.0576,231.26071c0.19243,-0.02345 0.43381,0.10941 0.49876,0.26431c0.21652,0.46853 0.26687,0.98894 0.28442,1.47054c0.01537,0.42612 -0.04254,0.92847 -0.15874,1.25146c-0.1162,0.32324 -0.28634,0.52682 -0.48288,0.53387c-0.19641,0.00692 -0.38256,-0.18411 -0.52426,-0.49812c-0.14183,-0.31389 -0.2383,-0.80176 -0.2588,-1.23673c-0.02268,-0.47737 -0.03241,-0.98049 0.1294,-1.44991c0.06918,-0.17347 0.29339,-0.30774 0.51209,-0.33541z" fill="#7f00ff" stroke="none" stroke-width="0.11361" stroke-linecap="butt"/><path d="M408.27694,229.0836c0.72118,-0.05138 1.53242,0.48352 1.87668,1.13282c0.49761,0.93706 0.44329,2.09781 0.48044,3.16132c0.03177,0.95666 0.24086,2.0226 -0.18039,2.88484c-0.37295,0.68005 -1.20393,1.23557 -1.95816,1.26876c-0.72323,0.0319 -1.44761,-0.52157 -1.87655,-1.13282c-0.47647,-0.76025 -0.59947,-1.74753 -0.63841,-2.67588c-0.04061,-1.11899 0.04305,-2.33098 0.51773,-3.3166c0.32478,-0.66634 1.04199,-1.26606 1.77867,-1.32244z" fill="#ffffff" stroke="none" stroke-width="0.18571" stroke-linecap="round"/><path d="M412.1429,238.08621c1.7132,-0.0287 3.22896,-0.10967 5.74495,-0.20371c0.27891,-0.01012 0.42766,-0.04804 0.63829,-0.02268c0.19986,0.02434 0.38897,0.09993 0.57512,0.1695c0.17527,0.0656 0.35156,0.13709 0.50658,0.2351c0.16322,0.10339 0.31645,0.22421 0.44085,0.36411c0.1508,0.1695 0.28532,0.35578 0.37744,0.55603c0.09122,0.19846 0.11902,0.41677 0.16719,0.62688c0.03805,0.16617 0.07264,0.334 0.09135,0.50299c0.01858,0.16758 0.03715,0.33746 0.02024,0.50543c-0.01717,0.17296 -0.0556,0.34694 -0.12146,0.51055c-0.06432,0.15989 -0.13606,0.32747 -0.26597,0.45226c-0.12991,0.12492 -0.31056,0.20448 -0.48621,0.27046c-0.20127,0.07521 -0.42023,0.10775 -0.63329,0.14887c-0.18641,0.03626 -0.41664,-0.02383 -0.56487,0.0834c-0.1645,0.11889 -0.1467,0.35796 -0.26341,0.51555c-0.11069,0.14939 -0.25572,0.27955 -0.41023,0.39409c-0.14682,0.10877 -0.31671,0.19256 -0.48634,0.27046c-0.18001,0.08251 -0.36283,0.1695 -0.55975,0.2096c-0.18462,0.03767 -0.3791,0.03446 -0.56744,0.02011c-0.1941,-0.01461 -0.38141,-0.07328 -0.57256,-0.10621c-0.2137,-0.03703 -0.45264,-0.01063 -0.64341,-0.10378c-0.19064,-0.09327 -0.31043,-0.27379 -0.44329,-0.42727c-0.1162,-0.13401 -0.11582,-0.39396 -0.30146,-0.43214c-0.18564,-0.03831 -0.32158,0.18449 -0.48634,0.27033c-0.18282,0.09506 -0.35771,0.2096 -0.55719,0.27276c-0.17988,0.05701 -0.37526,0.06598 -0.56487,0.0834c-0.18821,0.0173 -0.37846,0.01332 -0.56744,0.02011c-0.18897,0.00666 -0.37897,0.03434 -0.56744,0.02011c-0.19397,-0.01473 -0.37949,-0.08302 -0.57243,-0.10634c-0.21191,-0.02562 -0.43086,-0.00423 -0.64085,-0.04049c-0.19807,-0.03434 -0.39345,-0.09109 -0.57499,-0.1695c-0.18282,-0.07879 -0.36655,-0.16976 -0.50927,-0.29826c-0.13376,-0.12056 -0.23484,-0.2734 -0.30146,-0.43227c-0.06662,-0.15887 -0.07251,-0.33413 -0.09122,-0.50299c-0.01871,-0.16771 0.08084,-0.3636 -0.02037,-0.50543c-0.10173,-0.14324 -0.32068,-0.19794 -0.50658,-0.23523c-0.18449,-0.03703 -0.37846,0.01345 -0.56744,0.02011c-0.18897,0.00666 -0.3791,0.03344 -0.56744,0.02011c-0.40652,-0.02883 -0.83174,-0.0196 -1.21328,-0.14682c-0.38038,-0.12671 -0.7459,-0.32862 -1.01841,-0.59665c-0.26213,-0.25777 -0.3791,-0.611 -0.53464,-0.93014c-0.07738,-0.15899 -0.13106,-0.32926 -0.16207,-0.50043c-0.03036,-0.1663 -0.02473,-0.33708 -0.02037,-0.50555c0.00487,-0.19077 0.03075,-0.38102 0.04804,-0.57115c0.01537,-0.16937 0.00038,-0.344 0.05061,-0.50799c0.05573,-0.18193 0.16117,-0.3504 0.26341,-0.51555c0.09814,-0.15887 0.20255,-0.31825 0.33682,-0.45482c0.25406,-0.25841 0.44611,-0.65545 0.82316,-0.72528c0.23151,-0.04292 0.27276,0.34746 0.44585,0.49044c0.14875,0.12274 0.34925,0.1868 0.50914,0.29826c0.15759,0.10993 0.28327,0.25419 0.44085,0.36411c0.15989,0.11146 0.33605,0.20396 0.50914,0.29826c0.18974,0.10365 0.38512,0.20051 0.58012,0.29583c0.16694,0.08136 0.33785,0.15682 0.50658,0.2351c0.16886,0.07841 0.32747,0.17847 0.50671,0.23523c0.18334,0.05804 0.38179,0.07098 0.57243,0.10621c0.19064,0.03523 0.37846,0.09084 0.57256,0.10634c0.54322,0.04292 1.09093,0.07738 1.56291,0.00782z" fill="#000000" stroke="#000000" stroke-width="0.4197" stroke-linecap="round"/><path d="M400.79098,232.78314c0.11018,0.61253 0.04997,1.24364 0.07495,1.86463c0.01435,0.35476 0.02857,0.71067 0.04292,1.06543c0.00705,0.17744 0.02614,0.35514 0.0214,0.53272c-0.00474,0.17885 -0.0214,0.35822 -0.04945,0.53528c-0.02883,0.18103 -0.06931,0.36117 -0.12043,0.53771c-0.05291,0.18308 -0.14977,0.35476 -0.19141,0.54027c-0.03933,0.17514 0.02921,0.37244 -0.04945,0.53528c-0.08289,0.17155 -0.26738,0.28186 -0.40959,0.41459c-0.15438,0.14452 -0.30364,0.29723 -0.48032,0.41715c-0.17155,0.11633 -0.36181,0.20999 -0.55667,0.28647c-0.17988,0.07072 -0.37846,0.09212 -0.56205,0.15336c-0.19038,0.06329 -0.36552,0.16681 -0.55936,0.21985c-0.18295,0.04997 -0.37513,0.06957 -0.56475,0.08674c-0.21178,0.01922 -0.42574,0.02678 -0.63841,0.02268c-0.19038,-0.00372 -0.38602,0.00026 -0.57,-0.04651c-0.20409,-0.05202 -0.39012,-0.15554 -0.5782,-0.24624c-0.19846,-0.0957 -0.40024,-0.18987 -0.58076,-0.31286c-0.16207,-0.11057 -0.31197,-0.24099 -0.44162,-0.38448c-0.14413,-0.15976 -0.26892,-0.33669 -0.37603,-0.52016c-0.19833,-0.33977 -0.39409,-0.68518 -0.53925,-1.04788c-0.06701,-0.16758 -0.05214,-0.35527 -0.09237,-0.53015c-0.04587,-0.20012 -0.13376,-0.39191 -0.16604,-0.59434c-0.03152,-0.19756 -0.01601,-0.39986 -0.02409,-0.59934c-0.0214,-0.5322 -0.05445,-1.06556 -0.06419,-1.59815c-0.01038,-0.55501 -0.0451,-1.11399 0.00397,-1.66733c0.01678,-0.18897 0.09404,-0.37411 0.19128,-0.54027c0.30313,-0.51785 0.63495,-1.02469 1.00496,-1.5027c0.12812,-0.16566 0.29467,-0.3103 0.48044,-0.41715c0.19102,-0.11005 0.41664,-0.15861 0.63034,-0.22241c0.20768,-0.06201 0.41767,-0.12415 0.6329,-0.15579c0.18667,-0.02742 0.37846,-0.02819 0.56744,-0.02011c0.38077,0.01601 0.7673,0.01922 1.14012,0.09289c0.20678,0.041 0.39012,0.15554 0.5782,0.24624c0.19846,0.0957 0.40152,0.18821 0.58076,0.31286c0.18821,0.13068 0.35643,0.28724 0.51516,0.44854c0.13811,0.14029 0.25713,0.29711 0.37346,0.45354c0.10903,0.14695 0.2251,0.29275 0.30236,0.4561c0.18231,0.38487 0.39909,0.76858 0.30518,0.52272z" fill="#ffd499" stroke="#ffd499" stroke-width="0.42986" stroke-linecap="round"/><path d="M398.71265,228.78893c0.0009,-0.11121 0.12735,-0.2301 0.19935,-0.34041c0.10634,-0.16284 0.21652,-0.3244 0.33593,-0.47878c0.12799,-0.16566 0.26469,-0.32619 0.40678,-0.48121c0.15272,-0.16655 0.30595,-0.33464 0.47775,-0.48377c0.14939,-0.12953 0.32222,-0.23382 0.48313,-0.35053c0.16092,-0.11659 0.31825,-0.23881 0.48301,-0.35053c0.31889,-0.21639 0.63803,-0.43471 0.96896,-0.63457c0.1777,-0.10736 0.37398,-0.18654 0.55667,-0.28647c0.1645,-0.09007 0.31658,-0.20166 0.4857,-0.28391c0.226,-0.10993 0.46328,-0.20051 0.69863,-0.29147c0.2073,-0.0802 0.41395,-0.16655 0.63021,-0.22241c0.18359,-0.04766 0.37641,-0.05932 0.56475,-0.08674c0.21152,-0.031 0.4233,-0.06355 0.63559,-0.08917c0.30569,-0.03703 0.61202,-0.07649 0.91938,-0.09929c0.25918,-0.01935 0.52029,-0.01845 0.78024,-0.02767c0.18897,-0.00666 0.37846,-0.01345 0.56731,-0.02011c0.23638,-0.00846 0.47404,-0.00564 0.70926,-0.02511c0.23676,-0.0196 0.46981,-0.07405 0.70657,-0.09173c0.32978,-0.02485 0.66224,-0.02357 0.99304,-0.03523c0.18885,-0.00666 0.37897,-0.03421 0.56731,-0.02011c0.21716,0.01627 0.4274,0.08622 0.64379,0.11057c0.23574,0.02626 0.47545,0.0196 0.71183,0.04138c0.28609,0.02639 0.57218,0.06239 0.85647,0.10301c0.21549,0.03088 0.42945,0.07392 0.64367,0.11057c0.21434,0.03677 0.42894,0.07636 0.64379,0.11057c0.35655,0.05676 0.71605,0.10237 1.07184,0.16207c0.19192,0.03216 0.38474,0.06508 0.57282,0.11313c0.19487,0.04958 0.38576,0.11403 0.57538,0.17962c0.21844,0.07546 0.43714,0.15336 0.64905,0.24368c0.22164,0.09442 0.4611,0.16835 0.65174,0.31043c0.15925,0.11864 0.25431,0.29877 0.37334,0.45354c0.13068,0.1695 0.28993,0.32709 0.37603,0.52016c0.07367,0.16489 0.06175,0.35361 0.09237,0.53015c0.03075,0.17668 0.07328,0.3522 0.09237,0.53028c0.01896,0.17668 0.01422,0.35527 0.0214,0.53272c0.00717,0.17744 0.03792,0.35578 0.0214,0.53272c-0.01678,0.18231 0.05048,0.44982 -0.12043,0.53784c-0.17693,0.09109 -0.40665,-0.07559 -0.57538,-0.17975c-0.18206,-0.11249 -0.33042,-0.27661 -0.44431,-0.45098c-0.1171,-0.17937 -0.12914,-0.40729 -0.23689,-0.59178c-0.09763,-0.16758 -0.19602,-0.45994 -0.37334,-0.45367c-0.17732,0.00628 -0.13683,0.44021 -0.33593,0.47878c-0.19897,0.03856 -0.36091,-0.18564 -0.50978,-0.31543c-0.149,-0.12966 -0.24688,-0.30377 -0.37346,-0.45354c-0.1467,-0.17373 -0.30838,-0.33772 -0.44688,-0.5176c-0.11159,-0.1449 -0.18257,-0.4766 -0.30249,-0.4561c-0.12697,0.02152 -0.09904,0.37154 -0.19141,0.54027c-0.10788,0.19743 -0.20345,0.43048 -0.40409,0.54783c-0.1604,0.09365 -0.38026,0.04625 -0.56744,0.02011c-0.19974,-0.02793 -0.39371,-0.09673 -0.57538,-0.17975c-0.18295,-0.0834 -0.31158,-0.27302 -0.50991,-0.3153c-0.1859,-0.03959 -0.3891,0.01755 -0.56475,0.08674c-0.2055,0.08084 -0.35309,0.26187 -0.55398,0.35309c-0.17552,0.07956 -0.36744,0.14631 -0.56205,0.15323c-0.19461,0.00692 -0.39319,-0.04202 -0.57269,-0.113c-0.18744,-0.07418 -0.31491,-0.262 -0.50991,-0.31543c-0.18154,-0.04984 -0.39038,-0.04241 -0.56744,0.02011c-0.19013,0.06701 -0.30005,0.26751 -0.48301,0.35053c-0.19615,0.08917 -0.41741,0.12556 -0.63303,0.15579c-0.2105,0.0296 -0.42625,0.03869 -0.63829,0.02268c-0.19436,-0.01448 -0.39742,-0.03318 -0.57282,-0.11313c-0.19589,-0.0893 -0.33208,-0.26713 -0.51247,-0.38192c-0.18462,-0.11723 -0.38884,-0.38602 -0.58089,-0.31286c-0.19269,0.0738 -0.12197,0.40588 -0.18859,0.6069c-0.06009,0.18116 -0.08046,0.38192 -0.19141,0.54027c-0.11979,0.17104 -0.28647,0.32363 -0.48044,0.41715c-0.16937,0.08174 -0.37411,0.09122 -0.56462,0.08674c-0.19487,-0.00461 -0.38,-0.0861 -0.57282,-0.11313c-0.18859,-0.02639 -0.39524,-0.11313 -0.57013,-0.04638c-0.27315,0.10032 -0.72951,0.23382 -0.82957,0.56282c-0.11287,0.5012 0.2711,0.9851 0.27699,1.59072c0.01358,0.17552 0.05202,0.35527 0.09237,0.53015c0.04574,0.20012 0.09647,0.4005 0.16591,0.59434c0.06432,0.17962 0.14196,0.35643 0.2342,0.52516c0.08712,0.15912 0.19846,0.3062 0.30249,0.4561c0.12184,0.17514 0.26892,0.33669 0.37603,0.52016c0.09699,0.16617 0.16681,0.34643 0.2342,0.52516c0.06521,0.17245 0.13324,0.34682 0.16322,0.52772c0.03293,0.1973 0.02857,0.3996 0.02409,0.59934c-0.00384,0.17885 0.00038,0.36245 -0.04945,0.53528c-0.05535,0.19154 -0.14593,0.37692 -0.26226,0.54271c-0.11044,0.15733 -0.23356,0.32414 -0.40947,0.41472c-0.16707,0.08597 -0.3864,0.14042 -0.56475,0.08661c-0.26687,-0.08597 -0.43893,-0.68428 -0.70657,-0.6151c-0.29288,0.10134 -0.31043,0.55411 -0.49377,0.79113c-0.1139,0.29852 -0.16361,0.66007 -0.39345,0.81419c-0.15413,0.09737 -0.37833,0.0246 -0.56744,0.02011c-0.19051,-0.00448 -0.39665,0.02729 -0.57013,-0.04651c-0.18257,-0.0779 -0.34067,-0.2219 -0.44162,-0.38448c-0.10967,-0.17668 -0.12005,-0.39422 -0.16591,-0.59434c-0.04023,-0.17488 -0.07328,-0.3522 -0.09237,-0.53015c-0.01896,-0.1768 -0.01422,-0.3554 -0.0214,-0.53272c-0.00705,-0.17744 -0.01422,-0.3554 -0.0214,-0.53272c-0.00717,-0.17744 -0.01435,-0.3554 -0.0214,-0.53284c-0.00717,-0.17732 -0.01435,-0.35527 -0.0214,-0.53272c-0.00807,-0.19948 -0.01614,-0.39973 -0.02421,-0.59934c-0.00705,-0.17732 -0.01422,-0.35527 -0.0214,-0.53272c-0.00705,-0.17732 -0.00231,-0.35604 -0.0214,-0.53272c-0.01909,-0.17808 -0.05009,-0.35566 -0.09237,-0.53015c-0.04318,-0.1786 -0.09801,-0.3554 -0.16322,-0.52772c-0.06739,-0.17872 -0.13247,-0.36129 -0.2342,-0.52528c-0.10237,-0.16489 -0.29787,-0.27879 -0.37334,-0.45354c-0.13145,-0.33003 -0.23574,-0.69581 -0.5126,-0.38192z" fill="#7f00ff" stroke="#7f00ff" stroke-width="0.42986" stroke-linecap="round"/><g fill="#ffd499" stroke-linecap="round"><path d="M412.21657,237.78795c-0.23087,-0.28634 -0.15246,-0.70529 -0.08379,-1.05377c0.07392,-0.37551 0.27404,-0.73399 0.50069,-1.06313c0.2096,-0.30441 0.48377,-0.58166 0.79254,-0.81509c0.46033,-0.34771 0.92924,-0.72643 1.4977,-0.91553c0.71272,-0.23728 1.50027,-0.23843 2.25322,-0.33324c0.23881,-0.03011 0.48467,-0.07149 0.7222,-0.04113c0.52131,0.06611 1.05903,0.14375 1.52614,0.35309c0.42087,0.18347 0.78191,0.50222 1.12988,0.81112c0.37744,0.36475 0.78985,0.73245 1.03609,1.19919c0.31081,0.58947 0.61433,1.24211 0.54655,1.89346c-0.05714,0.54783 -0.37001,1.15499 -0.89708,1.47067c-0.94346,0.56475 -2.13086,0.74667 -3.23447,1.00265c-0.37795,0.08763 -0.7846,0.06355 -1.16934,0.01858c-0.40806,-0.04753 -0.79292,-0.19026 -1.18586,-0.29313c-0.37385,-0.09788 -0.80612,-0.10698 -1.11694,-0.30915c-0.85545,-0.55629 -1.70513,-1.16511 -1.78558,-1.35357z" stroke="#ff9400" stroke-width="0.41352"/><path d="M411.75945,236.32318c0.2269,-0.39678 0.5199,-0.71823 0.87274,-0.94039c0.77665,-0.5003 1.62646,-0.92835 2.46192,-1.19176c0.6657,-0.2087 1.39175,-0.221 2.09012,-0.30902c0.22152,-0.02793 0.4479,-0.05278 0.66993,-0.03818c0.32734,0.02191 0.63367,0.04881 0.9377,0.08699c0.19064,0.04766 0.39166,0.09032 0.53887,0.16783c0.32747,0.18154 0.62317,0.41113 0.88235,0.65046c0.40242,0.37603 0.83905,0.72861 1.08862,1.17638c0.34169,0.57781 0.72233,1.21443 0.65673,1.85054c-0.05919,0.55091 -0.45085,1.12718 -0.98536,1.44671c-0.88466,0.49979 -1.99237,0.63559 -3.01962,0.86429c-0.35143,0.07815 -0.72771,0.05893 -1.08465,0.0173c-0.37846,-0.04407 -0.73553,-0.17655 -1.10002,-0.272c-0.34682,-0.09071 -0.75615,-0.08981 -1.03609,-0.28673c-1.06287,-0.74795 -2.09653,-1.62044 -2.96171,-2.56928c-0.21639,-0.23702 -0.12338,-0.45649 -0.01153,-0.65315z" stroke="#ffd499" stroke-width="0.3836"/></g><path d="M409.8706,231.49722c0.23177,-0.01922 0.48467,0.17898 0.57794,0.36719c0.22767,0.51222 0.30531,1.0653 0.32747,1.60993c0.02229,0.54642 -0.00051,1.14909 -0.19448,1.69898c-0.0729,0.18013 -0.33195,0.3545 -0.54963,0.33669c-0.24624,-0.02127 -0.48531,-0.18077 -0.57794,-0.36719c-0.22792,-0.5135 -0.30044,-1.08631 -0.3276,-1.60993c-0.02793,-0.54297 -0.02511,-1.10143 0.15989,-1.62723c0.0811,-0.20243 0.33093,-0.38653 0.58435,-0.40844z" fill="#7f00ff" stroke="none" stroke-width="0.11361" stroke-linecap="round"/><path d="M419.44219,226.38837c0.24163,0.26802 -0.01076,-0.36065 -0.15208,-0.54822c-0.19948,-0.26456 -0.41677,-0.51837 -0.63713,-0.76756c-0.07931,-0.08968 -0.17463,-0.16617 -0.262,-0.24919c-0.08725,-0.08289 -0.16822,-0.17258 -0.26187,-0.24919c-0.10608,-0.08648 -0.2114,-0.17872 -0.33631,-0.2392c-0.33734,-0.16309 -0.66647,-0.38679 -1.04442,-0.4283c-0.5208,-0.05753 -1.0498,0.19064 -1.57137,0.13991c-0.13042,-0.01256 -0.01191,-0.13081 0.03549,-0.28903c0.18962,-0.63303 0.26136,-1.33307 0.60267,-1.92933c0.11543,-0.20102 0.43906,-0.22357 0.67723,-0.30428c0.18833,-0.0638 0.39512,-0.082 0.59485,-0.07995c0.13452,0.00128 0.27071,0.0351 0.39127,0.08955c0.20653,0.09327 0.3964,0.21908 0.57884,0.34887c0.09904,0.07047 0.18526,0.15733 0.262,0.24919c0.22638,0.27084 0.4479,0.54771 0.64674,0.83725c0.05548,0.08084 0.07802,0.1786 0.11326,0.26918c0.04343,0.11198 0.07879,0.10224 0.12287,0.33887c0.1768,0.94628 0.4374,1.93881 0.47276,2.85127z" fill="#000000" stroke="#000000" stroke-width="0.22723" stroke-linecap="round"/><g fill="none" stroke="#ff9400" stroke-width="0.18841" stroke-linecap="round"><path d="M394.40314,232.89358c0,0 0.40306,-0.36283 0.60062,-0.54745c0.06227,-0.05817 0.06816,-0.15669 0.17949,-0.18167c0.44508,-0.10006 0.9541,-0.35809 1.36318,-0.16527c0.55552,0.26175 0.97037,0.81048 1.17549,1.36138c0.28058,0.75372 0.30313,1.5943 0.22062,2.38902c-0.08456,0.81432 -0.71439,2.36365 -0.71439,2.36365"/><path d="M397.94356,234.58013c0,0 -0.41843,0.58383 -0.71554,0.78537c-0.20781,0.14093 -0.49223,0.13773 -0.73911,0.20153c-0.15592,0.03882 -0.55719,0.07828 -0.55719,0.07828"/></g><path d="M402.97079,227.01065c-0.19448,-0.30672 0.06124,-0.91246 0.11672,-1.36536c0.02127,-0.17398 0.0647,-0.34553 0.11364,-0.51427c0.05022,-0.17258 0.13273,-0.3358 0.18295,-0.50837c0.04907,-0.1686 0.06662,-0.34502 0.11364,-0.51414c0.05368,-0.19346 0.1121,-0.38705 0.18859,-0.57333c0.07085,-0.17258 0.14541,-0.34694 0.25214,-0.50235c0.10736,-0.15643 0.26187,-0.27994 0.38512,-0.42561c0.13529,-0.15951 0.22459,-0.35937 0.39076,-0.49056c0.28865,-0.22805 0.58345,-0.50786 0.95576,-0.5732c0.5905,-0.10352 1.2357,-0.0975 1.80596,0.08879c0.18077,0.05919 0.07392,0.35348 0.09404,0.53195c0.05906,0.52669 0.07482,1.05851 0.14375,1.58418c0.02947,0.22536 0.1335,0.44124 0.15208,0.66788c0.01601,0.19525 0.10044,0.45123 -0.04997,0.58512c-0.1335,0.11902 -0.36949,-0.03152 -0.55398,-0.04728c-0.20742,-0.01781 -0.41574,-0.03562 -0.62317,-0.0533c-0.18449,-0.01576 -0.36988,-0.0638 -0.55398,-0.04728c-0.19653,0.01742 -0.39358,0.06688 -0.57064,0.14772c-0.19115,0.08712 -0.35566,0.22024 -0.51811,0.34861c-0.16245,0.12837 -0.30966,0.27379 -0.45444,0.41959c-0.13491,0.13606 -0.25009,0.28968 -0.38512,0.42561c-0.14465,0.1458 -0.28301,0.30197 -0.45431,0.41959c-0.22677,0.15592 -0.61856,0.5741 -0.32145,0.49646z" fill="#000000" stroke="#000000" stroke-width="0.42093" stroke-linecap="round"/></g></g></svg>