<svg version="1.1" xmlns="http://www.w3.org/2000/svg" xmlns:xlink="http://www.w3.org/1999/xlink" width="105.91366" height="106.43493" viewBox="0,0,105.91366,106.43493"><defs><linearGradient x1="237.61931" y1="133.01448" x2="244.0701" y2="133.01448" gradientUnits="userSpaceOnUse" id="color-1"><stop offset="0" stop-color="#cedee8"/><stop offset="1" stop-color="#edf3f8"/></linearGradient><linearGradient x1="237.48016" y1="127.27697" x2="244.2797" y2="127.27697" gradientUnits="userSpaceOnUse" id="color-2"><stop offset="0" stop-color="#e2524b"/><stop offset="1" stop-color="#ff6767"/></linearGradient><linearGradient x1="235.68374" y1="142.80416" x2="235.68374" y2="146.11674" gradientUnits="userSpaceOnUse" id="color-3"><stop offset="0" stop-color="#ff6767"/><stop offset="1" stop-color="#e2524b"/></linearGradient><linearGradient x1="235.04072" y1="143.35435" x2="246.19897" y2="143.35435" gradientUnits="userSpaceOnUse" id="color-4"><stop offset="0" stop-color="#cedee8"/><stop offset="1" stop-color="#edf3f8"/></linearGradient><linearGradient x1="234.28896" y1="147.36433" x2="234.28896" y2="157.47645" gradientUnits="userSpaceOnUse" id="color-5"><stop offset="0" stop-color="#ff6767"/><stop offset="1" stop-color="#e2524b"/></linearGradient><linearGradient x1="223.8167" y1="155.73302" x2="223.8167" y2="160.44039" gradientUnits="userSpaceOnUse" id="color-6"><stop offset="0" stop-color="#ff6767"/><stop offset="1" stop-color="#e2524b"/></linearGradient><linearGradient x1="220.56977" y1="160.44039" x2="220.56977" y2="179.26996" gradientUnits="userSpaceOnUse" id="color-7"><stop offset="0" stop-color="#edf3f8"/><stop offset="1" stop-color="#cedee8"/></linearGradient><linearGradient x1="220.50412" y1="154.16387" x2="227.30366" y2="154.16387" gradientUnits="userSpaceOnUse" id="color-8"><stop offset="0" stop-color="#e2524b"/><stop offset="1" stop-color="#ff6767"/></linearGradient><linearGradient x1="251.95395" y1="154.16387" x2="258.75349" y2="154.16387" gradientUnits="userSpaceOnUse" id="color-9"><stop offset="0" stop-color="#ff6767"/><stop offset="1" stop-color="#e2524b"/></linearGradient><linearGradient x1="235.70317" y1="149.57563" x2="235.70317" y2="162.93067" gradientUnits="userSpaceOnUse" id="color-10"><stop offset="0" stop-color="#edf3f8"/><stop offset="1" stop-color="#cedee8"/></linearGradient></defs><g transform="translate(-185.30007,-127.27697)"><g data-paper-data="{&quot;isPaintingLayer&quot;:true}" fill="none" fill-rule="nonzero" stroke="none" stroke-width="none" stroke-linecap="none" stroke-linejoin="miter" stroke-miterlimit="10" stroke-dasharray="" stroke-dashoffset="0" font-family="none" font-weight="none" font-size="none" text-anchor="none" style="mix-blend-mode: normal"><path d="M189.6353,182.1763c0.25709,-0.46316 1.40617,0.11088 1.96255,0.49064c1.2894,0.87922 1.93507,2.75738 3.43446,3.18914c4.10957,1.18342 8.51844,0.90669 12.75656,1.47191c1.05978,0.1413 1.29038,0.44844 1.96255,0.49064c1.95666,0.12266 3.92902,-0.07949 5.88764,0c2.04694,0.0834 4.11742,0.12462 6.13296,0.49064c0.71927,0.13051 1.25505,0.79778 1.96255,0.98127c1.52097,0.39448 3.09199,0.65156 4.66105,0.73595c3.0184,0.16191 6.05937,0.17271 9.07678,0c2.71126,-0.15504 5.38425,-0.83212 8.0955,-0.98127c6.20165,-0.34149 12.45236,-0.00392 18.6442,-0.49064c5.26355,-0.41312 10.58206,-0.91356 15.70039,-2.20786c2.09207,-0.5289 3.75337,-2.14507 5.64232,-3.18914c1.21579,-0.67217 2.85846,-2.95658 3.67978,-1.96255c1.5092,1.82714 0.81446,5.05651 0.98127,7.60487c0.15995,2.44533 0.23354,4.92011 0,7.35955c-0.33952,3.5424 -0.8645,7.09363 -1.71723,10.54869c-0.70554,2.85943 -1.91642,5.58051 -2.94383,8.34082c-0.28065,0.75362 -0.26887,2.52874 -0.98127,2.20787c-1.74078,-0.78305 -2.85648,-2.76425 -3.92509,-4.41574c-0.75853,-1.17164 -0.26298,-3.22741 -1.47192,-3.9251c-1.41696,-0.8174 -3.73178,-0.89394 -4.90637,0.24532c-4.65615,4.51681 -7.36446,10.72827 -11.52997,15.70039c-1.04113,1.24327 -2.40118,3.18424 -3.67978,2.45318c-2.5572,-1.46112 -3.28432,-4.90146 -4.90637,-7.35955c-1.07351,-1.62597 -2.27164,-3.18718 -3.18914,-4.90637c-0.40134,-0.75264 -0.04612,-2.50225 -0.73595,-2.45318c-1.02739,0.0736 -2.0018,1.63578 -2.69851,2.6985c-0.88217,1.34631 -0.99109,3.13517 -1.96255,4.41574c-2.07049,2.7299 -4.5747,5.15659 -7.35955,7.11424c-3.06451,2.40804 -6.15848,5.28023 -10.05806,5.88764c-1.33355,0.20312 -1.21482,-2.42473 -1.71723,-3.67977c-1.13239,-2.83195 -2.24319,-5.68648 -3.18914,-8.58615c-0.28359,-0.86842 -0.262,-1.81437 -0.49064,-2.6985c-0.42587,-1.65148 -0.96655,-3.27746 -1.47191,-4.90637c-0.22962,-0.73988 -0.10794,-2.50323 -0.73595,-2.20786c-1.45719,0.68592 -2.27361,2.79565 -3.43446,4.17041c-2.84177,3.3638 -5.84152,6.61379 -8.58615,10.05806c-1.42677,1.78985 -2.11366,4.24302 -3.92509,5.64232c-0.54853,0.42391 -0.99894,-0.59564 -1.47191,-1.47191c-1.89288,-3.50413 -3.61109,-7.1211 -5.15168,-10.79401c-0.58975,-1.40715 -0.75264,-2.96541 -1.2266,-4.41573c-0.83408,-2.55426 -2.00964,-5.00744 -2.6985,-7.60487c-1.11276,-4.19691 -1.94685,-8.48017 -2.6985,-12.75656c-0.31204,-1.77709 -0.28555,-3.60422 -0.49064,-5.39701c-0.12168,-1.06763 -0.27182,-2.13721 -0.49064,-3.18914c-0.19037,-0.9116 -1.09216,-2.05773 -0.24532,-3.18914z" data-paper-data="{&quot;origPos&quot;:null}" id="ID0.5797516475431621" fill="#c06520" stroke="#763e13" stroke-width="2" stroke-linecap="round"/><path d="M239.18964,172.60887c13.46897,0 25.67307,0.96165 34.51042,2.51599c8.83736,1.55434 14.30796,3.70136 14.30796,6.07016c0,2.3688 -5.4706,4.51582 -14.30796,6.07016c-8.83736,1.55434 -21.04145,2.51598 -34.51042,2.51598c-13.46897,0 -25.67306,-0.96164 -34.51042,-2.51598c-8.83736,-1.55434 -14.30796,-3.70136 -14.30796,-6.07016c0,-2.3688 5.4706,-4.51582 14.30796,-6.07016c8.83736,-1.55434 21.04145,-2.51599 34.51042,-2.51599z" data-paper-data="{&quot;origPos&quot;:null}" id="ID0.45375380478799343" fill="#78de56" stroke="#006521" stroke-width="2" stroke-linecap="butt"/><g data-paper-data="{&quot;origPos&quot;:null}" id="ID0.7094592377543449" stroke="none"><g id="ID0.3149190437979996"><path d="M237.61931,133.01448h6.4508v24.23433h-6.4508z" id="ID0.3048159033060074" fill="url(#color-1)" stroke-width="0.18568" stroke-linecap="butt"/><path d="M237.48016,133.55349l3.31258,-6.27652l3.48696,6.27652z" id="ID0.5703961653634906" fill="url(#color-2)" stroke-width="0.17767" stroke-linecap="round"/></g><path d="M235.68374,142.80416h10.46087v3.31258h-10.46087z" id="ID0.20315651269629598" fill="url(#color-3)" stroke-width="0.17767" stroke-linecap="butt"/><path d="M235.7381,145.44653l2.61519,-2.09217h5.40476l2.26654,2.44091l0.17437,10.63514h-11.15826z" id="ID0.9310788940638304" fill="url(#color-4)" stroke-width="0.17767" stroke-linecap="round"/><path d="M237.42727,147.36433h6.97391l2.26644,10.11212h-12.37867z" id="ID0.40508079808205366" fill="url(#color-5)" stroke-width="0.17767" stroke-linecap="round"/><g id="ID0.1473722835071385"><path d="M224.86284,158.34822l6.4508,-2.6152h4.35872h8.71734l4.18435,0.17438l6.27652,2.26645l0.6974,2.26654h-31.73125z" id="ID0.37802177481353283" fill="url(#color-6)" stroke-width="0.17767" stroke-linecap="round"/><path d="M220.56977,160.44039h38.18205v18.82956h-38.18205z" id="ID0.6911913193762302" fill="url(#color-7)" stroke-width="0.71659" stroke-linecap="butt"/><path d="M220.50412,160.44039l3.31259,-6.27652l3.48696,6.27652z" id="ID0.5703961653634906" fill="url(#color-8)" stroke-width="0.17767" stroke-linecap="round"/><path d="M251.95395,160.44039l3.31259,-6.27652l3.48696,6.27652z" id="ID0.5703961653634906" fill="url(#color-9)" stroke-width="0.17767" stroke-linecap="round"/><path d="M235.85203,172.99353c0,-2.09374 1.8811,-4.74358 3.7727,-4.7788c1.84558,-0.03435 3.1126,2.77083 3.7728,4.6531l0.1258,6.5394l-7.6713,-0.1258z" id="ID0.8719881982542574" fill="#ee5b57" stroke-width="0.12816" stroke-linecap="round"/></g><path d="M235.70317,153.97095l4.7946,-4.39532l4.7945,4.39532v8.95972h-9.5891z" id="ID0.08011512272059917" fill="url(#color-10)" stroke-width="0.21138" stroke-linecap="round"/></g><path d="M238.98513,180.83645c0,0 -2.36107,3.87524 -4.32934,4.06484c-5.09426,0.47658 -8.28315,-2.39052 -12.4937,-2.12863c-3.17431,0.19462 -8.52642,3.93262 -8.52642,3.93262" data-paper-data="{&quot;origPos&quot;:null,&quot;origRot&quot;:0}" id="ID0.12414773507043719" fill="none" stroke="#bd8247" stroke-width="4.5" stroke-linecap="round"/><g data-paper-data="{&quot;origPos&quot;:null}" id="ID0.32142654806375504"><path d="M266.17467,179.72311v-6.57453z" id="ID0.9961994620971382" fill="none" stroke="#763e13" stroke-width="3" stroke-linecap="round"/><path d="M266.15013,170.64632c0.91356,0 1.74176,0.37093 2.34132,0.97048c0.59956,0.59956 0.97048,1.42775 0.97048,2.34132c0,0.91356 -0.37093,1.74176 -0.97048,2.34132c-0.59956,0.59956 -1.42775,0.97047 -2.34132,0.97047c-0.91356,0 -1.74176,-0.37092 -2.34132,-0.97047c-0.59956,-0.59956 -0.97047,-1.42775 -0.97047,-2.34132c0,-0.91356 0.37092,-1.74176 0.97047,-2.34132c0.59956,-0.59956 1.42775,-0.97048 2.34132,-0.97048z" id="ID0.036128468345850706" fill="#006521" stroke="none" stroke-width="1" stroke-linecap="butt"/><path d="M266.32245,167.68278c0.62036,0 1.18282,0.25189 1.58996,0.65902c0.40713,0.40713 0.65902,0.9696 0.65902,1.58996c0,0.62046 -0.25189,1.18283 -0.65902,1.59006c-0.40713,0.40713 -0.96959,0.65902 -1.58996,0.65902c-0.62046,0 -1.18283,-0.25189 -1.59006,-0.65902c-0.40713,-0.40723 -0.65902,-0.9696 -0.65902,-1.59006c0,-0.62036 0.25189,-1.18282 0.65902,-1.58996c0.40723,-0.40713 0.9696,-0.65902 1.59006,-0.65902z" id="ID0.036128468345850706" fill="#006521" stroke="none" stroke-width="0.6791" stroke-linecap="butt"/><path d="M266.56001,165.77175c0.35738,0 0.6814,0.14513 0.91602,0.37965c0.23452,0.23463 0.37965,0.55864 0.37965,0.91602c0,0.35738 -0.14513,0.6814 -0.37965,0.91602c-0.23463,0.23452 -0.55864,0.37965 -0.91602,0.37965c-0.35738,0 -0.6814,-0.14513 -0.91592,-0.37965c-0.23463,-0.23463 -0.37975,-0.55864 -0.37975,-0.91602c0,-0.35738 0.14513,-0.6814 0.37975,-0.91602c0.23452,-0.23452 0.55854,-0.37965 0.91592,-0.37965z" id="ID0.036128468345850706" fill="#006521" stroke="none" stroke-width="0.39122" stroke-linecap="butt"/></g><g data-paper-data="{&quot;origPos&quot;:null}" id="ID0.32142654806375504"><path d="M256.36193,179.28154v6.57453z" id="ID0.9961994620971382" fill="none" stroke="#763e13" stroke-width="3" stroke-linecap="round"/><path d="M256.33739,176.77929c0.91356,0 1.74176,0.37093 2.34132,0.97048c0.59956,0.59956 0.97048,1.42775 0.97048,2.34132c0,0.91356 -0.37092,1.74176 -0.97048,2.34132c-0.59956,0.59956 -1.42775,0.97047 -2.34132,0.97047c-0.91356,0 -1.74176,-0.37092 -2.34132,-0.97047c-0.59956,-0.59956 -0.97048,-1.42775 -0.97048,-2.34132c0,-0.91356 0.37093,-1.74176 0.97048,-2.34132c0.59956,-0.59956 1.42775,-0.97048 2.34132,-0.97048z" id="ID0.036128468345850706" fill="#006521" stroke="none" stroke-width="1" stroke-linecap="butt"/><path d="M256.50971,173.81574c0.62036,0 1.18283,0.25189 1.58996,0.65902c0.40713,0.40713 0.65902,0.9696 0.65902,1.58996c0,0.62046 -0.25189,1.18283 -0.65902,1.59006c-0.40713,0.40713 -0.9696,0.65902 -1.58996,0.65902c-0.62046,0 -1.18283,-0.25189 -1.59006,-0.65902c-0.40713,-0.40723 -0.65902,-0.9696 -0.65902,-1.59006c0,-0.62036 0.25189,-1.18282 0.65902,-1.58996c0.40723,-0.40713 0.9696,-0.65902 1.59006,-0.65902z" id="ID0.036128468345850706" fill="#006521" stroke="none" stroke-width="0.6791" stroke-linecap="butt"/><path d="M256.74727,171.90471c0.35738,0 0.6814,0.14513 0.91602,0.37965c0.23452,0.23463 0.37965,0.55864 0.37965,0.91602c0,0.35738 -0.14513,0.6814 -0.37965,0.91602c-0.23463,0.23452 -0.55864,0.37965 -0.91602,0.37965c-0.35738,0 -0.6814,-0.14513 -0.91592,-0.37965c-0.23463,-0.23463 -0.37975,-0.55864 -0.37975,-0.91602c0,-0.35738 0.14512,-0.6814 0.37975,-0.91602c0.23452,-0.23452 0.55854,-0.37965 0.91592,-0.37965z" id="ID0.036128468345850706" fill="#006521" stroke="none" stroke-width="0.39122" stroke-linecap="butt"/></g><g data-paper-data="{&quot;origPos&quot;:null}" id="ID0.32142654806375504"><path d="M214.75592,178.59465v-6.57454z" id="ID0.9961994620971382" fill="none" stroke="#763e13" stroke-width="3" stroke-linecap="round"/><path d="M214.73139,169.51786c0.91356,0 1.74176,0.37092 2.34132,0.97048c0.59956,0.59956 0.97048,1.42776 0.97048,2.34132c0,0.91356 -0.37093,1.74176 -0.97048,2.34132c-0.59956,0.59956 -1.42775,0.97048 -2.34132,0.97048c-0.91356,0 -1.74176,-0.37092 -2.34132,-0.97048c-0.59956,-0.59956 -0.97047,-1.42775 -0.97047,-2.34132c0,-0.91356 0.37092,-1.74177 0.97047,-2.34132c0.59956,-0.59956 1.42775,-0.97048 2.34132,-0.97048z" id="ID0.036128468345850706" fill="#006521" stroke="none" stroke-width="1" stroke-linecap="butt"/><path d="M214.9037,166.55432c0.62036,0 1.18282,0.25189 1.58996,0.65902c0.40713,0.40713 0.65902,0.9696 0.65902,1.58996c0,0.62046 -0.25189,1.18282 -0.65902,1.59006c-0.40713,0.40713 -0.9696,0.65902 -1.58996,0.65902c-0.62046,0 -1.18283,-0.25189 -1.59006,-0.65902c-0.40713,-0.40723 -0.65902,-0.96959 -0.65902,-1.59006c0,-0.62036 0.25189,-1.18283 0.65902,-1.58996c0.40723,-0.40713 0.9696,-0.65902 1.59006,-0.65902z" id="ID0.036128468345850706" fill="#006521" stroke="none" stroke-width="0.6791" stroke-linecap="butt"/><path d="M215.14127,164.64328c0.35738,0 0.6814,0.14513 0.91602,0.37966c0.23452,0.23463 0.37965,0.55864 0.37965,0.91602c0,0.35738 -0.14513,0.6814 -0.37965,0.91602c-0.23463,0.23452 -0.55864,0.37965 -0.91602,0.37965c-0.35738,0 -0.6814,-0.14513 -0.91592,-0.37965c-0.23463,-0.23463 -0.37975,-0.55864 -0.37975,-0.91602c0,-0.35738 0.14512,-0.6814 0.37975,-0.91602c0.23452,-0.23452 0.55854,-0.37966 0.91592,-0.37966z" id="ID0.036128468345850706" fill="#006521" stroke="none" stroke-width="0.39122" stroke-linecap="butt"/></g><g data-paper-data="{&quot;origPos&quot;:null}" id="ID0.32142654806375504"><path d="M202.73532,182.81412v-6.57453z" id="ID0.9961994620971382" fill="none" stroke="#763e13" stroke-width="3" stroke-linecap="round"/><path d="M202.71078,173.73734c0.91356,0 1.74176,0.37092 2.34132,0.97047c0.59956,0.59956 0.97048,1.42775 0.97048,2.34132c0,0.91356 -0.37093,1.74176 -0.97048,2.34132c-0.59956,0.59956 -1.42775,0.97048 -2.34132,0.97048c-0.91356,0 -1.74176,-0.37093 -2.34132,-0.97048c-0.59956,-0.59956 -0.97048,-1.42775 -0.97048,-2.34132c0,-0.91356 0.37092,-1.74176 0.97048,-2.34132c0.59956,-0.59956 1.42775,-0.97047 2.34132,-0.97047z" id="ID0.036128468345850706" fill="#006521" stroke="none" stroke-width="1" stroke-linecap="butt"/><path d="M202.8831,170.82286c0.62036,0 1.18283,0.25189 1.58996,0.65903c0.40713,0.40713 0.65902,0.96959 0.65902,1.58996c0,0.62046 -0.25189,1.18282 -0.65902,1.59006c-0.40713,0.40713 -0.9696,0.65902 -1.58996,0.65902c-0.62046,0 -1.18282,-0.25189 -1.59006,-0.65902c-0.40713,-0.40723 -0.65902,-0.96959 -0.65902,-1.59006c0,-0.62036 0.25189,-1.18282 0.65902,-1.58996c0.40723,-0.40713 0.96959,-0.65903 1.59006,-0.65903z" id="ID0.036128468345850706" fill="#006521" stroke="none" stroke-width="0.6791" stroke-linecap="butt"/><path d="M203.12066,168.91183c0.35738,0 0.6814,0.14513 0.91602,0.37965c0.23452,0.23463 0.37965,0.55864 0.37965,0.91602c0,0.35738 -0.14513,0.6814 -0.37965,0.91602c-0.23463,0.23452 -0.55864,0.37965 -0.91602,0.37965c-0.35738,0 -0.6814,-0.14513 -0.91592,-0.37965c-0.23463,-0.23463 -0.37975,-0.55864 -0.37975,-0.91602c0,-0.35738 0.14512,-0.6814 0.37975,-0.91602c0.23452,-0.23452 0.55854,-0.37965 0.91592,-0.37965z" id="ID0.036128468345850706" fill="#006521" stroke="none" stroke-width="0.39122" stroke-linecap="butt"/></g><g data-paper-data="{&quot;origPos&quot;:null}" id="ID0.32142654806375504"><path d="M272.84732,184.53135v-6.57454z" id="ID0.9961994620971382" fill="none" stroke="#763e13" stroke-width="3" stroke-linecap="round"/><path d="M272.82279,175.45457c0.91356,0 1.74177,0.37092 2.34132,0.97048c0.59956,0.59956 0.97048,1.42775 0.97048,2.34132c0,0.91356 -0.37092,1.74177 -0.97048,2.34132c-0.59956,0.59956 -1.42776,0.97048 -2.34132,0.97048c-0.91356,0 -1.74176,-0.37092 -2.34132,-0.97048c-0.59956,-0.59956 -0.97048,-1.42776 -0.97048,-2.34132c0,-0.91356 0.37092,-1.74176 0.97048,-2.34132c0.59956,-0.59956 1.42775,-0.97048 2.34132,-0.97048z" id="ID0.036128468345850706" fill="#006521" stroke="none" stroke-width="1" stroke-linecap="butt"/><path d="M272.99511,172.54009c0.62036,0 1.18282,0.25189 1.58996,0.65902c0.40713,0.40713 0.65902,0.9696 0.65902,1.58996c0,0.62046 -0.25189,1.18283 -0.65902,1.59006c-0.40713,0.40713 -0.96959,0.65902 -1.58996,0.65902c-0.62046,0 -1.18283,-0.25189 -1.59006,-0.65902c-0.40713,-0.40723 -0.65902,-0.9696 -0.65902,-1.59006c0,-0.62036 0.25189,-1.18282 0.65902,-1.58996c0.40723,-0.40713 0.9696,-0.65902 1.59006,-0.65902z" id="ID0.036128468345850706" fill="#006521" stroke="none" stroke-width="0.6791" stroke-linecap="butt"/><path d="M273.28174,170.62906c0.35738,0 0.6814,0.14513 0.91602,0.37965c0.23452,0.23463 0.37965,0.55864 0.37965,0.91602c0,0.35738 -0.14513,0.6814 -0.37965,0.91602c-0.23463,0.23452 -0.55864,0.37965 -0.91602,0.37965c-0.35738,0 -0.6814,-0.14513 -0.91592,-0.37965c-0.23463,-0.23463 -0.37975,-0.55864 -0.37975,-0.91602c0,-0.35738 0.14513,-0.6814 0.37975,-0.91602c0.23452,-0.23452 0.55854,-0.37965 0.91592,-0.37965z" id="ID0.036128468345850706" fill="#006521" stroke="none" stroke-width="0.39122" stroke-linecap="butt"/></g><path d="M206.69661,213.34731l-4.83294,-10.98397" data-paper-data="{&quot;origPos&quot;:null}" fill="none" stroke="#763e13" stroke-width="2.70749" stroke-linecap="round"/><path d="M229.10391,200.16655l4.83294,8.78717" data-paper-data="{&quot;origPos&quot;:null}" fill="none" stroke="#763e13" stroke-width="2.70749" stroke-linecap="round"/><path d="M260.29837,212.90795l-6.15102,-11.42332" data-paper-data="{&quot;origPos&quot;:null}" fill="none" stroke="#763e13" stroke-width="2.70749" stroke-linecap="round"/><path d="M243.16338,206.75694l5.27231,-7.90846" data-paper-data="{&quot;origPos&quot;:null}" fill="none" stroke="#763e13" stroke-width="2.70749" stroke-linecap="round"/><path d="M274.35784,197.96976l7.4691,7.02974" data-paper-data="{&quot;origPos&quot;:null}" fill="none" stroke="#763e13" stroke-width="2.70749" stroke-linecap="round"/><path d="M211.96893,199.7272l3.51487,-3.07551" data-paper-data="{&quot;origPos&quot;:null}" fill="none" stroke="#763e13" stroke-width="2.70749" stroke-linecap="round"/><path d="M197.90945,192.2581l7.90846,-0.43936" data-paper-data="{&quot;origPos&quot;:null}" fill="none" stroke="#763e13" stroke-width="2.70749" stroke-linecap="round"/><path d="M264.2526,195.77297l4.39358,-2.63615" data-paper-data="{&quot;origPos&quot;:null}" fill="none" stroke="#763e13" stroke-width="2.70749" stroke-linecap="round"/></g></g></svg>