<svg version="1.1" xmlns="http://www.w3.org/2000/svg" xmlns:xlink="http://www.w3.org/1999/xlink" width="437" height="90.79587" viewBox="0,0,437,90.79587"><defs><linearGradient x1="240" y1="135.60206" x2="240" y2="224.39795" gradientUnits="userSpaceOnUse" id="color-1"><stop offset="0" stop-color="#ffffff"/><stop offset="1" stop-color="#d8d8d8"/></linearGradient><linearGradient x1="240" y1="135.60208" x2="240" y2="224.39795" gradientUnits="userSpaceOnUse" id="color-2"><stop offset="0" stop-color="#343434"/><stop offset="1" stop-color="#090909"/></linearGradient><radialGradient cx="443.8065" cy="206.54466" r="17.9081" gradientUnits="userSpaceOnUse" id="color-3"><stop offset="0" stop-color="#ffffff"/><stop offset="1" stop-color="#e5e5e5"/></radialGradient></defs><g transform="translate(-21.5,-134.60208)"><g data-paper-data="{&quot;isPaintingLayer&quot;:true}" fill-rule="nonzero" stroke-linejoin="miter" stroke-miterlimit="10" stroke-dasharray="" stroke-dashoffset="0" style="mix-blend-mode: normal"><path d="M22.5,224.39795v-88.79587h435v88.79587z" data-paper-data="{&quot;origPos&quot;:null}" fill="url(#color-1)" stroke="url(#color-2)" stroke-width="2" stroke-linecap="butt"/><g data-paper-data="{&quot;origPos&quot;:null}"><path d="M444.3058,202.09868c2.5136,0 4.7909,1.0212 6.4406,2.6702c1.6489,1.6496 2.6702,3.9269 2.6702,6.4405c0,2.5136 -1.0213,4.791 -2.6702,6.4406c-1.6497,1.649 -3.927,2.6702 -6.4406,2.6702c-2.5136,0 -4.7909,-1.0212 -6.4406,-2.6702c-1.6489,-1.6496 -2.6701,-3.927 -2.6701,-6.4406c0,-2.5136 1.0212,-4.7909 2.6701,-6.4405c1.6497,-1.649 3.927,-2.6702 6.4406,-2.6702z" fill="url(#color-3)" stroke="#000000" stroke-width="2.0785" stroke-linecap="butt"/><path d="M441.2734,206.54886l5.6119,0.4503l1.7321,3.187l-3.6374,2.9446l3.3603,-0.5197l0.7967,3.4642l-7.4479,-0.0693l-1.9053,-2.4249l4.6766,-3.3256l-4.5727,-0.3464z" fill="#000000" stroke="none" stroke-width="0.69283" stroke-linecap="round"/></g><g data-paper-data="{&quot;origPos&quot;:null}" stroke="none" stroke-width="1" stroke-linecap="butt"><path d="M35.695,148.16106c3.372,0.486 5.232,0.772 5.578,0.857c0,0.048 1.161,3.527 3.482,10.436c-0.243,0.091 -1.644,0.267 -4.202,0.529c-0.176,-0.596 -0.374,-1.516 -0.592,-2.762c-2.188,0.2 -3.282,0.377 -3.282,0.529l-0.592,2.105h-0.064c-2.582,-0.474 -3.874,-0.76 -3.874,-0.857c2.06,-6.441 3.242,-10.053 3.546,-10.837zM37.463,154.46808h1.978l-0.729,-2.889c-0.565,0 -0.848,0.109 -0.848,0.328c-0.091,0.444 -0.225,1.297 -0.401,2.561z" data-paper-data="{&quot;origPos&quot;:null}" fill="#000000"/><path d="M58.436,150.87706l3.035,2.087c-0.213,3.464 -0.361,5.487 -0.447,6.071c-0.352,0.042 -1.424,0.106 -3.217,0.191l-0.064,-0.128l-0.319,-4.867l-0.127,-0.064c-1.161,0.25 -1.96,0.438 -2.398,0.566c0.122,2.072 0.183,3.569 0.183,4.493c-1.811,0.504 -2.801,0.757 -2.972,0.757c-1.178,-5.19 -1.768,-7.93 -1.768,-8.222c2.564,-0.334 3.956,-0.501 4.175,-0.501v0.064c0.042,0.03 0.106,0.662 0.191,1.896c2.352,-1.562 3.594,-2.343 3.728,-2.343z" data-paper-data="{&quot;origPos&quot;:null}" fill="#2b70c2"/><path d="M67.541,150.88606c2.753,1.416 4.278,2.242 4.576,2.479c-0.395,1.848 -0.629,2.799 -0.702,2.853h-5.76v0.101l1.613,1.996l2.534,-1.295c0.249,0.432 0.607,1.185 1.075,2.261c-0.218,0.073 -1.813,0.307 -4.785,0.702c-2.461,-1.623 -3.7,-2.467 -3.719,-2.534c0.395,-3.154 0.629,-4.731 0.702,-4.731c2.571,-1.093 4.059,-1.704 4.466,-1.832zM66.949,153.09208c-0.049,0.121 -0.371,0.605 -0.966,1.449c0,0.255 0.358,0.383 1.075,0.383c0,0.036 0.52,0.125 1.559,0.264c0.285,-0.395 0.428,-0.626 0.428,-0.692c-0.091,-0.541 -0.288,-0.812 -0.592,-0.812z" data-paper-data="{&quot;origPos&quot;:null}" fill="#2b70c2"/><path d="M76.948,150.87706c0.079,0.103 0.489,1.866 1.23,5.287h0.064c0,-0.079 0.45,-0.775 1.349,-2.088c0.377,0.256 1.094,0.808 2.151,1.659h0.127v-0.064c0.165,-2.369 0.286,-3.682 0.365,-3.937c2.504,0.127 3.755,0.231 3.755,0.31c-1.148,4.618 -1.762,7.018 -1.841,7.2c-0.383,0.043 -1.185,0.164 -2.406,0.365c-1.003,-1.574 -1.577,-2.412 -1.723,-2.516c-0.656,1.75 -1.066,2.713 -1.23,2.89h-2.461c-0.152,-0.049 -0.869,-1.629 -2.151,-4.74c-0.821,-1.738 -1.231,-2.68 -1.231,-2.826c0,-0.133 1.334,-0.647 4.002,-1.54z" data-paper-data="{&quot;origPos&quot;:null}" fill="#2b70c2"/><path d="M96.189,150.88606c0.188,0.778 0.319,1.258 0.391,1.44c2.686,-0.613 4.105,-0.92 4.257,-0.92c1.829,2.631 2.743,4.004 2.743,4.12l-2.096,4.447l-4.512,-0.72v0.137c0.353,2.704 0.529,4.141 0.529,4.311c-0.043,0 -0.064,0.022 -0.064,0.064c-0.437,-0.042 -0.765,-0.064 -0.984,-0.064h-0.784c-0.456,0 -1.155,-0.021 -2.096,-0.063c-0.085,-0.256 -0.739,-4.135 -1.96,-11.64c0.207,-0.085 1.732,-0.456 4.576,-1.112zM96.517,154.61406c0.121,1.398 0.231,2.096 0.328,2.096c1.245,0.432 2.008,0.648 2.288,0.648l0.72,-3.136h-0.064c-0.711,0.043 -1.802,0.173 -3.272,0.392z" data-paper-data="{&quot;origPos&quot;:null}" fill="#2b70c2"/><path d="M105.905,150.87706c3.609,0.498 5.414,0.805 5.414,0.921c1.422,1.221 2.133,1.874 2.133,1.959c-0.578,1.805 -0.906,2.902 -0.985,3.291c0.577,1.282 0.906,2.047 0.985,2.297c0,0.072 -0.942,0.267 -2.826,0.583c-0.024,-0.103 -0.197,-0.334 -0.52,-0.693c-2.6,0.498 -4.001,0.748 -4.201,0.748l-1.386,-3.747l3.054,-1.613c0.492,0.079 1.26,0.119 2.306,0.119c0,-0.134 0.018,-0.538 0.054,-1.213c-0.176,0 -1.75,0.116 -4.721,0.347l-0.055,-0.119c0.413,-1.92 0.663,-2.88 0.748,-2.88zM107.8,156.23607c0,0.067 0.195,0.778 0.584,2.133h0.055c0.765,-0.498 1.148,-0.826 1.148,-0.984l0.118,-0.975c-0.145,0 -0.78,-0.058 -1.905,-0.174z" data-paper-data="{&quot;origPos&quot;:null}" fill="#2b70c2"/><path d="M120.871,150.87706c1.203,0.675 1.941,1.112 2.215,1.313c-0.985,2.047 -1.513,3.089 -1.586,3.126h-0.064l-1.303,-1.139l-1.541,1.877l0.173,3.418c-0.079,0.073 -1.084,0.243 -3.017,0.511c-0.073,-0.523 -0.546,-3.084 -1.421,-7.684c0,-0.073 1.269,-0.261 3.809,-0.565c0.043,0.049 0.158,0.617 0.347,1.704c1.519,-1.707 2.315,-2.561 2.388,-2.561z" data-paper-data="{&quot;origPos&quot;:null}" fill="#2b70c2"/><path d="M126.531,148.12506l4.01,0.71l-0.382,3.045c0.796,-0.043 1.379,-0.064 1.75,-0.064h0.583l0.127,-0.064l0.064,0.128c-0.127,1.847 -0.237,2.886 -0.328,3.117l-0.127,-0.073c-0.092,0 -0.912,-0.043 -2.461,-0.128c-0.085,1.428 -0.149,3.136 -0.192,5.123l-0.127,0.064c-1.957,-0.128 -3.124,-0.237 -3.5,-0.329l0.063,-0.255c0,-0.528 0.085,-2.169 0.256,-4.922c-1.641,-0.091 -2.461,-0.2 -2.461,-0.328c0.085,-2.029 0.194,-3.044 0.328,-3.044l2.397,0.456v-0.784c0,-0.638 -0.024,-1.501 -0.073,-2.589c0.049,0 0.073,-0.021 0.073,-0.063z" data-paper-data="{&quot;origPos&quot;:null}" fill="#2b70c2"/><path d="M141.953,150.88606c2.309,0.62 3.533,0.997 3.673,1.13c1.27,1.799 1.984,2.835 2.142,3.109c-0.82,2.6 -1.291,3.901 -1.413,3.901c-2.734,0.638 -4.165,0.957 -4.293,0.957c-2.26,-1.319 -3.463,-2.054 -3.609,-2.206c-0.079,-2.455 -0.119,-3.81 -0.119,-4.065c-0.036,-0.073 -0.054,-0.128 -0.054,-0.164c2.333,-1.775 3.539,-2.662 3.618,-2.662zM141.725,154.22206c-0.037,0.243 -0.091,1.127 -0.164,2.653l2.032,0.455c0.487,-1.519 0.73,-2.33 0.73,-2.433c-1.617,-0.486 -2.483,-0.73 -2.598,-0.73z" data-paper-data="{&quot;origPos&quot;:null}" fill="#2b70c2"/><path d="M152.389,148.12506c0.322,0.036 1.495,0.306 3.518,0.811l0.055,0.109c-0.298,1.659 -0.477,2.488 -0.538,2.488h-0.055l-1.467,-0.756c0,0.17 -0.055,0.93 -0.164,2.279l2.005,-0.493c0.061,0.183 0.116,0.994 0.164,2.434c-0.194,0.073 -0.863,0.182 -2.005,0.328c0.255,1.094 0.526,2.431 0.811,4.01c-0.936,0.213 -2.054,0.429 -3.354,0.648l-0.055,-0.11c-0.17,-2.813 -0.313,-4.22 -0.428,-4.22c-1.179,0.286 -1.811,0.447 -1.896,0.483c-0.073,-0.352 -0.2,-1.309 -0.383,-2.871l0.11,-0.055h1.95c-0.109,-0.899 -0.273,-2.072 -0.492,-3.518z" data-paper-data="{&quot;origPos&quot;:null}" fill="#2b70c2"/><path d="M164.156,148.12506l4.01,0.71l-0.382,3.045c0.796,-0.043 1.379,-0.064 1.75,-0.064h0.583l0.127,-0.064l0.064,0.128c-0.127,1.847 -0.237,2.886 -0.328,3.117l-0.127,-0.073c-0.092,0 -0.912,-0.043 -2.461,-0.128c-0.085,1.428 -0.149,3.136 -0.192,5.123l-0.127,0.064c-1.957,-0.128 -3.124,-0.237 -3.5,-0.329l0.063,-0.255c0,-0.528 0.085,-2.169 0.256,-4.922c-1.641,-0.091 -2.461,-0.2 -2.461,-0.328c0.085,-2.029 0.194,-3.044 0.328,-3.044l2.397,0.456v-0.784c0,-0.638 -0.024,-1.501 -0.073,-2.589c0.049,0 0.073,-0.021 0.073,-0.063z" data-paper-data="{&quot;origPos&quot;:null}" fill="#2b70c2"/><path d="M175.358,148.12506c0.036,0.054 0.206,1.719 0.51,4.994c2.346,-0.717 3.594,-1.075 3.746,-1.075l2.325,1.586c-0.377,3.463 -0.623,5.487 -0.739,6.07l-3.226,0.109c0,-0.036 -0.022,-0.054 -0.064,-0.054l0.064,-0.228c0,-0.492 0.073,-1.987 0.218,-4.485c-0.887,-0.036 -1.546,-0.054 -1.977,-0.054h-0.228c0.261,2.777 0.392,4.29 0.392,4.539l-3.063,0.456c-0.115,-0.389 -0.796,-4.02 -2.042,-10.892c0,-0.195 0.474,-0.347 1.422,-0.456c1.197,-0.34 2.085,-0.51 2.662,-0.51z" data-paper-data="{&quot;origPos&quot;:null}" fill="#2b70c2"/><path d="M187.963,150.88606c2.753,1.416 4.278,2.242 4.576,2.479c-0.395,1.848 -0.629,2.799 -0.702,2.853h-5.76v0.101l1.613,1.996l2.534,-1.295c0.249,0.432 0.607,1.185 1.075,2.261c-0.219,0.073 -1.814,0.307 -4.785,0.702c-2.461,-1.623 -3.701,-2.467 -3.719,-2.534c0.395,-3.154 0.629,-4.731 0.702,-4.731c2.57,-1.093 4.059,-1.704 4.466,-1.832zM187.371,153.09208c-0.049,0.121 -0.371,0.605 -0.966,1.449c0,0.255 0.358,0.383 1.075,0.383c0,0.036 0.52,0.125 1.559,0.264c0.285,-0.395 0.428,-0.626 0.428,-0.692c-0.091,-0.541 -0.288,-0.812 -0.592,-0.812z" data-paper-data="{&quot;origPos&quot;:null}" fill="#2b70c2"/><path d="M201.58,150.88606c2.741,0.517 4.175,0.811 4.303,0.884v0.11c-0.59,1.665 -0.885,2.527 -0.885,2.588h-0.054c-0.152,0 -0.887,-0.237 -2.206,-0.711c-0.735,1.234 -1.103,1.893 -1.103,1.978l1.823,1.768c1.41,-1.324 2.127,-1.987 2.151,-1.987c1.1,1.441 1.65,2.249 1.65,2.425c-0.602,0.346 -1.65,1.027 -3.145,2.042c-2.892,-0.626 -4.454,-0.976 -4.685,-1.049l-1.431,-4.63z" data-paper-data="{&quot;origPos&quot;:null}" fill="#2b70c2"/><path d="M209.556,150.87706c3.609,0.498 5.414,0.805 5.414,0.921c1.422,1.221 2.133,1.874 2.133,1.959c-0.578,1.805 -0.906,2.902 -0.985,3.291c0.577,1.282 0.906,2.047 0.985,2.297c0,0.072 -0.942,0.267 -2.826,0.583c-0.024,-0.103 -0.197,-0.334 -0.519,-0.693c-2.601,0.498 -4.002,0.748 -4.202,0.748l-1.386,-3.747l3.054,-1.613c0.492,0.079 1.261,0.119 2.306,0.119c0,-0.134 0.018,-0.538 0.054,-1.213c-0.176,0 -1.75,0.116 -4.721,0.347l-0.055,-0.119c0.413,-1.92 0.663,-2.88 0.748,-2.88zM211.452,156.23607c0,0.067 0.194,0.778 0.583,2.133h0.055c0.765,-0.498 1.148,-0.826 1.148,-0.984l0.118,-0.975c-0.145,0 -0.78,-0.058 -1.904,-0.174z" data-paper-data="{&quot;origPos&quot;:null}" fill="#2b70c2"/><path d="M225.333,150.87706c1.75,1.118 2.716,1.762 2.898,1.932c-0.631,1.404 -0.993,2.106 -1.084,2.106l-3.318,-1.923h-0.118c0,0.06 -0.143,0.401 -0.429,1.021c3.057,1.646 4.585,2.491 4.585,2.533c-0.857,1.981 -1.34,3.026 -1.449,3.136l-5.187,0.301c-2.017,-1.337 -3.102,-2.042 -3.253,-2.115v-0.055c0,-0.152 0.3,-0.835 0.902,-2.05l4.047,2.105l0.301,-1.203c-2.504,-1.124 -3.993,-1.826 -4.467,-2.106v-0.127c0,-0.231 0.483,-1.255 1.45,-3.072z" data-paper-data="{&quot;origPos&quot;:null}" fill="#2b70c2"/><path d="M231.859,148.12506l4.01,0.71l-0.382,3.045c0.796,-0.043 1.379,-0.064 1.75,-0.064h0.583l0.128,-0.064l0.063,0.128c-0.127,1.847 -0.237,2.886 -0.328,3.117l-0.127,-0.073c-0.091,0 -0.912,-0.043 -2.461,-0.128c-0.085,1.428 -0.149,3.136 -0.192,5.123l-0.127,0.064c-1.957,-0.128 -3.124,-0.237 -3.5,-0.329l0.064,-0.255c0,-0.528 0.085,-2.169 0.255,-4.922c-1.641,-0.091 -2.461,-0.2 -2.461,-0.328c0.085,-2.029 0.194,-3.044 0.328,-3.044l2.397,0.456v-0.784c0,-0.638 -0.024,-1.501 -0.073,-2.589c0.049,0 0.073,-0.021 0.073,-0.063z" data-paper-data="{&quot;origPos&quot;:null}" fill="#2b70c2"/><path d="M238.978,148.13408c1.859,0.036 3.223,0.054 4.092,0.054c0.079,0 0.319,3.731 0.72,11.193c-0.31,0.079 -1.391,0.28 -3.245,0.602c-0.091,0 -0.392,-2.285 -0.902,-6.855c-0.043,-0.109 -0.264,-1.774 -0.665,-4.994z" data-paper-data="{&quot;origPos&quot;:null}" fill="#2b70c2"/><path d="M249.979,150.88606c2.752,1.416 4.278,2.242 4.575,2.479c-0.395,1.848 -0.629,2.799 -0.701,2.853h-5.761v0.101l1.613,1.996l2.534,-1.295c0.249,0.432 0.608,1.185 1.076,2.261c-0.219,0.073 -1.814,0.307 -4.785,0.702c-2.461,-1.623 -3.701,-2.467 -3.719,-2.534c0.395,-3.154 0.629,-4.731 0.702,-4.731c2.57,-1.093 4.059,-1.704 4.466,-1.832zM249.386,153.09208c-0.048,0.121 -0.37,0.605 -0.966,1.449c0,0.255 0.359,0.383 1.076,0.383c0,0.036 0.519,0.125 1.558,0.264c0.286,-0.395 0.429,-0.626 0.429,-0.692c-0.091,-0.541 -0.289,-0.812 -0.593,-0.812z" data-paper-data="{&quot;origPos&quot;:null}" fill="#2b70c2"/><path d="M264.097,148.12506c0.037,0.054 0.207,1.719 0.511,4.994c2.345,-0.717 3.594,-1.075 3.746,-1.075l2.324,1.586c-0.377,3.463 -0.623,5.487 -0.738,6.07l-3.227,0.109c0,-0.036 -0.021,-0.054 -0.064,-0.054l0.064,-0.228c0,-0.492 0.073,-1.987 0.219,-4.485c-0.887,-0.036 -1.546,-0.054 -1.978,-0.054h-0.228c0.262,2.777 0.392,4.29 0.392,4.539l-3.062,0.456c-0.116,-0.389 -0.796,-4.02 -2.042,-10.892c0,-0.195 0.474,-0.347 1.422,-0.456c1.197,-0.34 2.084,-0.51 2.661,-0.51z" data-paper-data="{&quot;origPos&quot;:null}" fill="#000000"/><path d="M272.92,150.87706c3.61,0.498 5.414,0.805 5.414,0.921c1.422,1.221 2.133,1.874 2.133,1.959c-0.577,1.805 -0.905,2.902 -0.984,3.291c0.577,1.282 0.905,2.047 0.984,2.297c0,0.072 -0.942,0.267 -2.825,0.583c-0.025,-0.103 -0.198,-0.334 -0.52,-0.693c-2.601,0.498 -4.001,0.748 -4.202,0.748l-1.385,-3.747l3.053,-1.613c0.492,0.079 1.261,0.119 2.306,0.119c0,-0.134 0.018,-0.538 0.055,-1.213c-0.176,0 -1.75,0.116 -4.721,0.347l-0.055,-0.119c0.413,-1.92 0.662,-2.88 0.747,-2.88zM274.816,156.23607c0,0.067 0.195,0.778 0.583,2.133h0.055c0.766,-0.498 1.149,-0.826 1.149,-0.984l0.118,-0.975c-0.146,0 -0.781,-0.058 -1.905,-0.174z" data-paper-data="{&quot;origPos&quot;:null}" fill="#000000"/><path d="M288.698,150.87706c1.75,1.118 2.716,1.762 2.898,1.932c-0.632,1.404 -0.993,2.106 -1.085,2.106l-3.317,-1.923h-0.119c0,0.06 -0.143,0.401 -0.428,1.021c3.056,1.646 4.584,2.491 4.584,2.533c-0.856,1.981 -1.339,3.026 -1.449,3.136l-5.186,0.301c-2.017,-1.337 -3.102,-2.042 -3.254,-2.115v-0.055c0,-0.152 0.301,-0.835 0.902,-2.05l4.047,2.105l0.301,-1.203c-2.503,-1.124 -3.992,-1.826 -4.466,-2.106v-0.127c0,-0.231 0.483,-1.255 1.449,-3.072z" data-paper-data="{&quot;origPos&quot;:null}" fill="#000000"/><path d="M300.802,150.88606c2.309,0.62 3.533,0.997 3.673,1.13c1.27,1.799 1.984,2.835 2.142,3.109c-0.82,2.6 -1.291,3.901 -1.413,3.901c-2.734,0.638 -4.165,0.957 -4.293,0.957c-2.26,-1.319 -3.463,-2.054 -3.609,-2.206c-0.079,-2.455 -0.119,-3.81 -0.119,-4.065c-0.036,-0.073 -0.054,-0.128 -0.054,-0.164c2.333,-1.775 3.539,-2.662 3.618,-2.662zM300.574,154.22206c-0.037,0.243 -0.091,1.127 -0.164,2.653l2.032,0.455c0.486,-1.519 0.73,-2.33 0.73,-2.433c-1.617,-0.486 -2.483,-0.73 -2.598,-0.73z" data-paper-data="{&quot;origPos&quot;:null}" fill="#000000"/><path d="M312.022,150.88606c0.188,0.778 0.319,1.258 0.392,1.44c2.686,-0.613 4.104,-0.92 4.256,-0.92c1.829,2.631 2.744,4.004 2.744,4.12l-2.097,4.447l-4.511,-0.72v0.137c0.352,2.704 0.528,4.141 0.528,4.311c-0.042,0 -0.063,0.022 -0.063,0.064c-0.438,-0.042 -0.766,-0.064 -0.985,-0.064h-0.784c-0.455,0 -1.154,-0.021 -2.096,-0.063c-0.085,-0.256 -0.738,-4.135 -1.96,-11.64c0.207,-0.085 1.732,-0.456 4.576,-1.112zM312.35,154.61406c0.121,1.398 0.231,2.096 0.328,2.096c1.246,0.432 2.008,0.648 2.288,0.648l0.72,-3.136h-0.064c-0.711,0.043 -1.802,0.173 -3.272,0.392z" data-paper-data="{&quot;origPos&quot;:null}" fill="#000000"/><path d="M325.521,150.88606c2.752,1.416 4.277,2.242 4.575,2.479c-0.395,1.848 -0.629,2.799 -0.702,2.853h-5.76v0.101l1.613,1.996l2.534,-1.295c0.249,0.432 0.608,1.185 1.075,2.261c-0.218,0.073 -1.813,0.307 -4.785,0.702c-2.461,-1.623 -3.7,-2.467 -3.718,-2.534c0.395,-3.154 0.628,-4.731 0.701,-4.731c2.571,-1.093 4.059,-1.704 4.467,-1.832zM324.928,153.09208c-0.049,0.121 -0.371,0.605 -0.966,1.449c0,0.255 0.358,0.383 1.075,0.383c0,0.036 0.52,0.125 1.559,0.264c0.286,-0.395 0.428,-0.626 0.428,-0.692c-0.091,-0.541 -0.288,-0.812 -0.592,-0.812z" data-paper-data="{&quot;origPos&quot;:null}" fill="#000000"/><path d="M339.019,150.87706l3.035,2.087c-0.212,3.464 -0.361,5.487 -0.446,6.071c-0.353,0.042 -1.425,0.106 -3.218,0.191l-0.063,-0.128l-0.319,-4.867l-0.128,-0.064c-1.161,0.25 -1.96,0.438 -2.397,0.566c0.121,2.072 0.182,3.569 0.182,4.493c-1.811,0.504 -2.801,0.757 -2.971,0.757c-1.179,-5.19 -1.769,-7.93 -1.769,-8.222c2.565,-0.334 3.956,-0.501 4.175,-0.501v0.064c0.042,0.03 0.106,0.662 0.191,1.896c2.352,-1.562 3.595,-2.343 3.728,-2.343z" data-paper-data="{&quot;origPos&quot;:null}" fill="#000000"/><path d="M348.125,150.88606c2.752,1.416 4.277,2.242 4.575,2.479c-0.395,1.848 -0.629,2.799 -0.702,2.853h-5.76v0.101l1.613,1.996l2.534,-1.295c0.249,0.432 0.608,1.185 1.076,2.261c-0.219,0.073 -1.814,0.307 -4.786,0.702c-2.46,-1.623 -3.7,-2.467 -3.718,-2.534c0.395,-3.154 0.629,-4.731 0.702,-4.731c2.57,-1.093 4.059,-1.704 4.466,-1.832zM347.532,153.09208c-0.048,0.121 -0.37,0.605 -0.966,1.449c0,0.255 0.359,0.383 1.076,0.383c0,0.036 0.519,0.125 1.558,0.264c0.286,-0.395 0.429,-0.626 0.429,-0.692c-0.092,-0.541 -0.289,-0.812 -0.593,-0.812z" data-paper-data="{&quot;origPos&quot;:null}" fill="#000000"/><path d="M359.044,148.11506h0.055c2.746,0.231 4.119,0.411 4.119,0.538l1.213,10.728c0,0.079 -1.213,0.28 -3.637,0.602l-0.055,-0.119v-0.975c-2.09,0.565 -3.524,0.93 -4.302,1.094c-1.847,-2.613 -2.816,-4.005 -2.907,-4.175c1.361,-2.473 2.087,-3.725 2.178,-3.755l3.819,0.182c-0.079,-0.468 -0.24,-1.841 -0.483,-4.12zM357.349,154.65106c0.613,1.877 0.996,2.907 1.148,3.089l1.814,-1.576c-0.188,-1.088 -0.328,-1.632 -0.419,-1.632h-2.425c-0.079,0.012 -0.118,0.052 -0.118,0.119z" data-paper-data="{&quot;origPos&quot;:null}" fill="#000000"/><path d="M374.931,150.87706l0.063,0.119l-1.23,6.526h0.064l3.135,-0.921v-3.691c0.012,-0.085 0.052,-0.128 0.119,-0.128c2.357,0.164 3.67,0.246 3.937,0.246c0,0.043 0.021,0.064 0.064,0.064c0,1.039 -0.328,3.193 -0.984,6.462c0,0.189 -0.942,0.331 -2.826,0.429c-0.097,-0.116 -0.179,-0.362 -0.246,-0.739c-2.412,0.492 -3.789,0.739 -4.129,0.739c-1.926,-1.434 -2.889,-2.173 -2.889,-2.215c0.328,-4.308 0.535,-6.545 0.62,-6.709h0.054c1.538,-0.042 2.953,-0.103 4.248,-0.182z" data-paper-data="{&quot;origPos&quot;:null}" fill="#000000"/><path d="M386.579,150.88606c0.188,0.778 0.319,1.258 0.392,1.44c2.686,-0.613 4.105,-0.92 4.257,-0.92c1.829,2.631 2.743,4.004 2.743,4.12l-2.096,4.447l-4.512,-0.72v0.137c0.352,2.704 0.529,4.141 0.529,4.311c-0.043,0 -0.064,0.022 -0.064,0.064c-0.438,-0.042 -0.766,-0.064 -0.985,-0.064h-0.783c-0.456,0 -1.155,-0.021 -2.097,-0.063c-0.085,-0.256 -0.738,-4.135 -1.959,-11.64c0.206,-0.085 1.731,-0.456 4.575,-1.112zM386.907,154.61406c0.122,1.398 0.231,2.096 0.328,2.096c1.246,0.432 2.009,0.648 2.288,0.648l0.72,-3.136h-0.064c-0.711,0.043 -1.801,0.173 -3.272,0.392z" data-paper-data="{&quot;origPos&quot;:null}" fill="#000000"/><path d="M398.92,148.46208l0.037,0.073c-0.608,5.365 -0.948,8.185 -1.021,8.458c-1.288,-0.122 -2.103,-0.207 -2.443,-0.255v-0.037l-0.583,-7.619c0.146,-0.049 1.483,-0.256 4.01,-0.62zM395.311,157.17506c0.042,0.025 0.99,0.098 2.844,0.219l0.036,0.073c-0.285,1.677 -0.468,2.516 -0.547,2.516h-2.114c-0.073,0 -0.17,-0.839 -0.292,-2.516c-0.024,0 -0.036,-0.073 -0.036,-0.219c0.072,-0.024 0.109,-0.048 0.109,-0.073z" data-paper-data="{&quot;origPos&quot;:null}" fill="#000000"/></g></g></g></svg>