<svg version="1.1" xmlns="http://www.w3.org/2000/svg" xmlns:xlink="http://www.w3.org/1999/xlink" width="552.09888" height="488.88801" viewBox="0,0,552.09888,488.88801"><defs><linearGradient x1="-34.00129" y1="179.89341" x2="48.07373" y2="179.89341" gradientUnits="userSpaceOnUse" id="color-1"><stop offset="0" stop-color="#296cdb" stop-opacity="0"/><stop offset="1" stop-color="#296cdb"/></linearGradient><linearGradient x1="240.37562" y1="340.99761" x2="240.37562" y2="423.06783" gradientUnits="userSpaceOnUse" id="color-2"><stop offset="0" stop-color="#296cdb"/><stop offset="1" stop-color="#296cdb" stop-opacity="0"/></linearGradient><linearGradient x1="514.00128" y1="179.89341" x2="431.92627" y2="179.89341" gradientUnits="userSpaceOnUse" id="color-3"><stop offset="0" stop-color="#296cdb" stop-opacity="0"/><stop offset="1" stop-color="#296cdb"/></linearGradient><radialGradient cx="435.31992" cy="346.4055" r="77.14154" gradientUnits="userSpaceOnUse" id="color-4"><stop offset="0" stop-color="#296cdb"/><stop offset="1" stop-color="#296cdb" stop-opacity="0"/></radialGradient><linearGradient x1="240.37562" y1="19.00242" x2="240.37562" y2="-63.06776" gradientUnits="userSpaceOnUse" id="color-5"><stop offset="0" stop-color="#296cdb"/><stop offset="1" stop-color="#296cdb" stop-opacity="0"/></linearGradient><radialGradient cx="435.31992" cy="13.59453" r="77.14154" gradientUnits="userSpaceOnUse" id="color-6"><stop offset="0" stop-color="#296cdb"/><stop offset="1" stop-color="#296cdb" stop-opacity="0"/></radialGradient><radialGradient cx="44.68008" cy="346.4055" r="77.14155" gradientUnits="userSpaceOnUse" id="color-7"><stop offset="0" stop-color="#296cdb"/><stop offset="1" stop-color="#296cdb" stop-opacity="0"/></radialGradient><radialGradient cx="44.68008" cy="13.59453" r="77.14155" gradientUnits="userSpaceOnUse" id="color-8"><stop offset="0" stop-color="#296cdb"/><stop offset="1" stop-color="#296cdb" stop-opacity="0"/></radialGradient><linearGradient x1="274.20944" y1="302.75945" x2="274.20944" y2="336.12362" gradientUnits="userSpaceOnUse" id="color-9"><stop offset="0" stop-color="#000000"/><stop offset="1" stop-color="#000000"/></linearGradient><linearGradient x1="325.78944" y1="256.92854" x2="325.78944" y2="272.84448" gradientUnits="userSpaceOnUse" id="color-10"><stop offset="0" stop-color="#000000"/><stop offset="1" stop-color="#000000"/></linearGradient><linearGradient x1="393.54938" y1="278.50945" x2="393.54938" y2="298.98249" gradientUnits="userSpaceOnUse" id="color-11"><stop offset="0" stop-color="#000000"/><stop offset="1" stop-color="#000000"/></linearGradient><linearGradient x1="383.54296" y1="278.84763" x2="383.54296" y2="299.14324" gradientUnits="userSpaceOnUse" id="color-12"><stop offset="0" stop-color="#000000"/><stop offset="1" stop-color="#000000"/></linearGradient><linearGradient x1="362.6956" y1="278.30017" x2="362.6956" y2="299.25622" gradientUnits="userSpaceOnUse" id="color-13"><stop offset="0" stop-color="#000000"/><stop offset="1" stop-color="#000000"/></linearGradient><linearGradient x1="338.93326" y1="278.36461" x2="338.93326" y2="299.25622" gradientUnits="userSpaceOnUse" id="color-14"><stop offset="0" stop-color="#000000"/><stop offset="1" stop-color="#000000"/></linearGradient><linearGradient x1="313.33742" y1="278.28342" x2="313.33742" y2="299.25622" gradientUnits="userSpaceOnUse" id="color-15"><stop offset="0" stop-color="#000000"/><stop offset="1" stop-color="#000000"/></linearGradient><linearGradient x1="325.81591" y1="256.74324" x2="325.81591" y2="272.65918" gradientUnits="userSpaceOnUse" id="color-16"><stop offset="0" stop-color="#ffffff"/><stop offset="1" stop-color="#dae0e7"/></linearGradient><linearGradient x1="313.39036" y1="278.07168" x2="313.39036" y2="299.04445" gradientUnits="userSpaceOnUse" id="color-17"><stop offset="0" stop-color="#ff1818"/><stop offset="1" stop-color="#e11515"/></linearGradient><linearGradient x1="338.9862" y1="278.15284" x2="338.9862" y2="299.04445" gradientUnits="userSpaceOnUse" id="color-18"><stop offset="0" stop-color="#1ce11c"/><stop offset="1" stop-color="#1acf1a"/></linearGradient><linearGradient x1="362.74855" y1="278.0884" x2="362.74855" y2="299.04445" gradientUnits="userSpaceOnUse" id="color-19"><stop offset="0" stop-color="#239eff"/><stop offset="1" stop-color="#1e8be1"/></linearGradient><linearGradient x1="383.5959" y1="278.63586" x2="383.5959" y2="298.93147" gradientUnits="userSpaceOnUse" id="color-20"><stop offset="0" stop-color="#ffe530"/><stop offset="1" stop-color="#ffd628"/></linearGradient><linearGradient x1="393.60232" y1="278.29769" x2="393.60232" y2="298.77072" gradientUnits="userSpaceOnUse" id="color-21"><stop offset="0" stop-color="#a818ff"/><stop offset="1" stop-color="#9404e4"/></linearGradient><linearGradient x1="274.23591" y1="302.70651" x2="274.23591" y2="336.07069" gradientUnits="userSpaceOnUse" id="color-22"><stop offset="0" stop-color="#0160c0"/><stop offset="1" stop-color="#23f4f4"/></linearGradient><radialGradient cx="316.49923" cy="280.37567" r="7.69708" gradientUnits="userSpaceOnUse" id="color-23"><stop offset="0" stop-color="#ff7c7c"/><stop offset="1" stop-color="#ff7c7c" stop-opacity="0"/></radialGradient><radialGradient cx="411.68017" cy="295.09889" r="9.24882" gradientUnits="userSpaceOnUse" id="color-24"><stop offset="0" stop-color="#da9dff"/><stop offset="1" stop-color="#da9dff" stop-opacity="0"/></radialGradient><radialGradient cx="386.77724" cy="256.06192" r="5.38008" gradientUnits="userSpaceOnUse" id="color-25"><stop offset="0" stop-color="#ffffff"/><stop offset="1" stop-color="#ffffff" stop-opacity="0"/></radialGradient></defs><g transform="translate(36.04944,64.44397)"><g data-paper-data="{&quot;isPaintingLayer&quot;:true}" fill-rule="nonzero" stroke-linejoin="miter" stroke-miterlimit="10" stroke-dasharray="" stroke-dashoffset="0" style="mix-blend-mode: normal"><g stroke="none" stroke-linecap="butt"><g><g><path d="M-34.00129,14.84636h82.07501v330.09404h-82.07501z" fill="url(#color-1)" stroke-width="1.89892"/><g><path d="M46.75968,18.17969h385.67627v323.2985h-385.67626z" data-paper-data="{&quot;origPos&quot;:null}" fill="#296cdb" stroke-width="0.90886"/><path d="M47.78665,423.06783l-0.06765,-81.93488l385.24562,-0.13533l0.06766,81.93487z" data-paper-data="{&quot;index&quot;:null,&quot;origRot&quot;:0}" fill="url(#color-2)" stroke-width="1.89892"/><path d="M514.00128,344.94043h-82.07501v-330.09404h82.07501z" data-paper-data="{&quot;index&quot;:null}" fill="url(#color-3)" stroke-width="1.89892"/><path d="M431.73194,424.44404v-79.83253h84.3175v79.83253z" data-paper-data="{&quot;index&quot;:null}" fill="url(#color-4)" stroke-width="0"/><path d="M433.03226,-62.93243l-0.06765,81.93488l-385.24561,-0.13533l0.06765,-81.93488z" data-paper-data="{&quot;index&quot;:null,&quot;origRot&quot;:0}" fill="url(#color-5)" stroke-width="1.89892"/><path d="M516.04943,-64.44397v79.83253h-84.3175v-79.83252z" data-paper-data="{&quot;index&quot;:null}" fill="url(#color-6)" stroke-width="0"/></g></g><path d="M-36.04944,424.44404v-79.83253h84.3175v79.83253z" fill="url(#color-7)" stroke-width="0"/></g><path d="M48.26806,-64.44397v79.83253h-84.3175v-79.83252z" data-paper-data="{&quot;index&quot;:null}" fill="url(#color-8)" stroke-width="0"/><text transform="translate(14.00365,61.0802) scale(0.50924,0.50924)" font-size="22" xml:space="preserve" fill="#a1f4fa" fill-rule="nonzero" stroke="none" stroke-width="1" stroke-linecap="butt" stroke-linejoin="miter" stroke-miterlimit="10" stroke-dasharray="" stroke-dashoffset="0" font-family="&quot;Microsoft YaHei&quot;, &quot;微软雅黑&quot;, STXihei, &quot;华文细黑&quot;" font-weight="400" text-anchor="start" style="mix-blend-mode: normal"><tspan x="0" dy="0">Glossary</tspan></text><text transform="translate(282.69408,31.82308) scale(0.63022,0.63021)" font-size="22" xml:space="preserve" fill="#a1f3f9" fill-rule="nonzero" stroke="none" stroke-width="1" stroke-linecap="butt" stroke-linejoin="miter" stroke-miterlimit="10" stroke-dasharray="" stroke-dashoffset="0" font-family="Sans Serif" font-weight="400" text-anchor="start" style="mix-blend-mode: normal"><tspan x="0" dy="0">Use the arrow keys</tspan><tspan x="0" dy="24.86px">or tap to navigate</tspan></text><path d="M31.18761,13.16804c6.80525,1.71922 10.42277,2.74001 10.85258,3.06237c-2.41766,5.78446 -3.71602,8.74832 -3.89511,8.89159c-0.44772,0 -3.35786,-1.02078 -8.73042,-3.06236c-3.11609,2.90118 -4.67413,4.52191 -4.67413,4.86217c-0.23281,5.37257 -0.34922,8.49761 -0.34922,9.37513c3.72498,1.71922 5.93668,2.68628 6.63512,2.90118c3.47426,-1.50432 5.47106,-2.41765 5.99041,-2.74001l-0.96706,-3.08922c-0.64471,0.35817 -2.58779,1.17301 -5.82923,2.44452l-0.16118,-0.32236v-1.31627c0,-1.12824 -0.05373,-2.84746 -0.16118,-5.15767c0.8417,-0.21491 5.74865,-0.75216 14.72083,-1.61177c0.21491,1.11033 0.59098,5.84714 1.12824,14.21043c-0.28654,0.32236 -5.67701,2.48034 -16.17142,6.47394c-8.93636,-3.25935 -13.46722,-5.09499 -13.59258,-5.50688c-2.79373,-9.70643 -4.1906,-14.81932 -4.1906,-15.33867c3.67126,-6.60825 5.77551,-10.17205 6.31276,-10.6914c0.44771,-0.21491 4.80845,-1.34314 13.0822,-3.38472z" fill="#ffffff" stroke-width="0.26459"/><path d="M62.9126,21.25376l0.18803,0.34922l-3.62648,19.23378h0.18803l9.24081,-2.71315v-10.87944c0.03583,-0.25072 0.15223,-0.37608 0.34922,-0.37608c6.94852,0.48353 10.81676,0.7253 11.60474,0.7253c0,0.12537 0.06268,0.18805 0.18805,0.18805c0,3.06236 -0.96706,9.41094 -2.90118,19.04574c0,0.55517 -2.77583,0.97601 -8.32748,1.26255c-0.28654,-0.34026 -0.5283,-1.06556 -0.72529,-2.17589c-7.10969,1.4506 -11.16598,2.17589 -12.16886,2.17589c-5.67701,-4.22642 -8.51552,-6.4023 -8.51552,-6.52766c0.96706,-12.69716 1.57595,-19.28751 1.82667,-19.77104h0.16119c4.53086,-0.12535 8.70356,-0.30444 12.51808,-0.53726z" fill="#ffffff" stroke-width="0.26459"/><path d="M87.43836,10.48175l10.55709,1.6655c-1.32523,5.06812 -2.1938,7.60218 -2.60569,7.60218c-5.55165,-0.37608 -8.32747,-0.74321 -8.32747,-1.10138v-7.79021c0.05372,-0.25072 0.17907,-0.37608 0.37608,-0.37608zM84.48345,23.26846h0.16118c8.1663,1.48641 12.24944,2.35497 12.24944,2.60569c-2.34602,13.28814 -3.76975,20.69333 -4.27119,22.21556h-8.51551c-0.25072,0 -0.37608,-0.12536 -0.37608,-0.37608z" fill="#ffffff" stroke-width="0.26459"/><path d="M115.0802,13.11432h0.16119c8.09467,0.68052 12.14199,1.20883 12.14199,1.58491l3.57276,31.61754c0,0.23281 -3.57276,0.82379 -10.71827,1.77295l-0.16119,-0.34922v-2.87432c-6.16054,1.6655 -10.38695,2.74001 -12.67925,3.22354c-5.4442,-7.70068 -8.30061,-11.80173 -8.56924,-12.30317c4.01152,-7.28878 6.15158,-10.97794 6.42021,-11.06749l11.25552,0.53725c-0.23281,-1.37896 -0.70738,-5.42629 -1.42373,-12.14199zM110.08371,32.37492c1.80876,5.53374 2.937,8.56924 3.38472,9.1065l5.34571,-4.64727c-0.55517,-3.20563 -0.96706,-4.80845 -1.23569,-4.80845h-7.14552c-0.23281,0.03583 -0.34922,0.15223 -0.34922,0.34922z" fill="#ffffff" stroke-width="0.26459"/><path d="M149.00794,21.2806c8.11257,4.17269 12.60762,6.60825 13.48514,7.30669c-1.16405,5.4442 -1.85354,8.24689 -2.06844,8.40806h-16.9773v0.29549l4.75472,5.88296l7.46786,-3.81452c0.73425,1.2715 1.79085,3.49217 3.16982,6.66199c-0.64471,0.2149 -5.3457,0.90438 -14.10298,2.06844c-7.25296,-4.78158 -10.90631,-7.27087 -10.96004,-7.46787c1.16405,-9.29453 1.85354,-13.9418 2.06844,-13.9418c7.57531,-3.22354 11.96291,-5.02334 13.16278,-5.39943zM147.26186,27.78143c-0.14327,0.35817 -1.09242,1.78189 -2.84746,4.27118c0,0.75216 1.0566,1.12824 3.16982,1.12824c0,0.10746 1.53118,0.36713 4.59354,0.77902c0.8417,-1.16405 1.26255,-1.84458 1.26255,-2.04157c-0.26863,-1.59386 -0.85065,-2.39079 -1.74608,-2.39079z" fill="#ffffff" stroke-width="0.26459"/></g><text transform="translate(12.99527,102.81677) scale(1.12622,1.12622)" font-size="22" xml:space="preserve" fill="#a1f3f9" fill-rule="nonzero" stroke="none" stroke-width="1" stroke-linecap="butt" stroke-linejoin="miter" stroke-miterlimit="10" stroke-dasharray="" stroke-dashoffset="0" font-family="&quot;Microsoft YaHei&quot;, &quot;微软雅黑&quot;, STXihei, &quot;华文细黑&quot;" font-weight="400" text-anchor="start" style="mix-blend-mode: normal"><tspan x="0" dy="0">◉Main Menu</tspan><tspan x="0" dy="26.4px">◉Movement</tspan><tspan x="0" dy="26.4px">◉Power-ups</tspan><tspan x="0" dy="26.4px">◉UI</tspan><tspan x="0" dy="26.4px">◉Pausing</tspan><tspan x="0" dy="26.4px">◉Peach's Castle</tspan></text><g stroke-width="5.5"><g data-paper-data="{&quot;origPos&quot;:null}" stroke-linecap="butt"><path d="M355.49194,304.19305l7.18821,20.4711l-8.04438,1.24255l-1.27013,-5.43307l-6.2757,1.19787l-1.03676,4.19094l-0.1223,0.00307l-7.48055,-1.51356l6.28846,-21.59252zM370.32339,303.07435l0.37626,15.41042h0.10758l10.70382,-3.56342l0.12542,0.11806l-0.35879,8.52081l-16.65604,1.49302l-3.53235,-21.18095l9.12615,-0.91637zM401.25366,306.12676l4.85452,21.1549l-8.16202,0.32226l-0.65272,-5.54176l-6.39413,0.47955l-1.50774,4.04684l-0.12193,-0.01011l-7.28917,-2.35116l8.71108,-20.74174v-0.00074zM336.53599,309.74222l0.00852,0.10445l-1.27283,6.93498l-3.33741,2.39658l6.66747,4.40022l-6.55449,3.77074l-5.95143,-7.37652l-0.19922,0.01594l0.37006,6.14016l-0.25396,0.80689l-5.00011,0.39606l-1.83158,-9.60766l-1.73999,-9.71952l11.53596,-3.1518zM418.5124,313.7949l4.82032,-6.40694l0.11923,0.01906l5.82834,4.82111l-0.03108,0.21394l-6.54358,5.4552l8.49714,5.23269l-5.91341,5.66686l-5.66141,-6.72692l-5.41946,7.56875l-0.1188,-0.01906l-6.49975,-3.89034l0.01747,-0.12468l6.98358,-7.0802l-8.12554,-5.51968l5.01059,-6.15801zM315.26848,309.34691l-1.85371,5.74643l-0.10525,0.01281l-5.21791,-1.63358l-3.82437,3.49936l1.29226,5.47188l5.52392,1.50546l3.34091,-4.09385l3.77429,4.73376l0.0396,0.32231l-7.25767,5.22453l-10.40835,-2.30764l-4.43983,-10.19129l3.74126,-6.95754l7.12452,-3.68339zM443.77623,318.45214l7.47007,-4.62968l5.20632,6.81851l-12.09858,6.17119l-1.94228,8.39851l-9.52147,-3.48417l4.3431,-8.54882l-4.30895,-12.55716l9.6003,-1.39396zM349.08426,310.0653l-0.6469,5.08281l3.79833,-0.09281l-1.53881,-5.67883zM324.78841,310.2175l0.71604,7.56446l0.10017,-0.00778l3.94741,-1.65841l0.59449,-4.52178l-5.36626,-1.47941zM394.20062,311.236l-1.22042,4.97682l3.79833,0.33819l-0.89266,-5.81632l-0.38251,-0.02329l-0.29393,-0.00074zM292.37677,312.82569l-1.08219,5.78604l-0.12193,0.03769l-6.88765,-0.94941l-1.17034,3.20966l14.037,2.30923l-2.26963,9.00073l-9.59522,3.904l-8.57439,-2.44746l-0.03727,-0.12039l1.37496,-5.27229l0.22675,-0.06994l7.92129,1.57301l1.507,-3.29432l-13.4639,-2.37329l-0.03182,-0.10292l1.62696,-7.61449l9.11493,-4.71782z" fill="#3bb2ff" stroke="url(#color-9)"/><path d="M340.24929,259.15544l-1.87627,3.53468h-0.08735l-4.31515,-1.9939l-1.41382,1.84752l8.71844,4.30625l-3.30205,5.38293l-7.06744,0.61159l-5.11621,-3.30284v-0.08582l1.96441,-3.14444h0.16232l4.86574,2.60586l1.65105,-1.83434l-8.33017,-4.23362v-0.07338l2.6012,-4.61183l6.91757,-1.23556zM372.75411,260.86785l-1.42584,5.02806l-3.00192,2.47075l-4.17808,-0.23183l-0.16232,4.40372l-4.42813,0.30595l-0.47531,-2.63032l-0.86317,-11.7445l9.08115,-1.54114zM387.9308,258.53103l-1.20104,4.29418l-6.29158,-1.68832l-1.28877,2.7775h0.08815l5.67888,-0.50205l0.08698,0.17127l-0.77507,3.86551l-4.81566,-0.67258l0.07491,2.1046v0.42751l0.08741,0.17127l6.46671,-0.51338l0.60068,3.79213l-0.08735,0.08582l-11.53284,-0.75871l-1.81416,-5.05215l2.32707,-10.1051zM402.23219,260.76996v0.07343l-1.36368,4.78342l-2.63927,1.49222l4.72788,3.45007l-5.12823,2.2754l-4.01502,-5.49327h-0.15025l-0.08778,4.31906l-0.2376,0.5506h-3.7646l-0.80101,-6.82703l-0.72573,-6.89967l8.81861,-1.56565zM348.9464,257.36848l-0.77502,9.11455l3.4892,0.46478l1.02628,-8.06185l5.22845,1.13772l-1.12565,8.34298l-3.86551,4.44136l-7.64213,-1.32138l-2.9899,-3.22989l0.5506,-11.07193zM393.41352,260.45156l0.08698,5.33444h0.07534l3.05243,-0.942l0.71292,-3.132l-3.92766,-1.33345zM363.91105,265.50451l3.07683,-0.62403l0.71292,-3.00928l-3.78975,-1.46819z" fill="#ececec" stroke="url(#color-10)"/><g><path d="M401.22952,278.50945l7.6802,2.54529l4.47085,6.99015l-2.94797,8.79494l-8.97394,2.14267l-7.54932,-4.96167l-0.24576,-9.14913l-0.1142,-0.37001l7.56563,-5.99224zM400.75463,286.03193l-0.34439,5.46065l4.20916,0.93427l1.5062,-5.01022l-5.37097,-1.49768z" fill="#9404e4" stroke="url(#color-11)"/><path d="M391.76322,280.26532l-2.93124,18.87791l-5.28902,-0.46637l1.17844,-19.82923z" fill="#fbc211" stroke="url(#color-12)"/><path d="M381.26555,283.35772v0.0963l-1.78536,6.29862l-3.4551,1.96516l6.18988,4.54269l-6.71406,2.99573l-5.2564,-7.23204h-0.19647l-0.11457,5.68545l-0.31103,0.72499h-4.92943l-1.04804,-8.98834l-0.94936,-9.08464l11.54486,-2.06146zM369.72027,282.93917l0.11457,7.02276h0.09863l3.99596,-1.24059l0.9331,-4.12334l-5.14226,-1.75593z" fill="#0492d0" stroke="url(#color-13)"/><path d="M355.32528,279.8782l6.2551,18.44337l-7.5489,0.93464l-1.06392,-4.88051l-5.89515,0.93384l-1.06472,3.72145h-0.11457l-6.95987,-1.51472l6.37083,-19.15168zM349.20142,284.98474l-0.72065,4.52596h3.55331l-1.30973,-5.1061z" fill="#10d004" stroke="url(#color-14)"/><path d="M325.27527,278.86357l2.17756,6.02486h0.09863l3.25864,-4.96167h0.09784l4.43824,0.59639l2.66955,17.96l-7.00916,0.77306l-0.09863,-0.19334l-0.39257,-10.0026h-0.09784l-4.0453,3.4947h-0.09789l-2.76739,-4.26819h-0.09863l-3.45547,9.61623h-0.19604l-6.41938,-3.01203v-0.09667l7.30351,-16.51088z" fill="#e10404" stroke="url(#color-15)"/></g><g stroke="none"><g><path d="M340.27576,258.97014l-1.87627,3.53468h-0.08735l-4.31515,-1.9939l-1.41382,1.84752l8.71844,4.30625l-3.30205,5.38293l-7.06744,0.61159l-5.11621,-3.30284v-0.08582l1.96441,-3.14444h0.16232l4.86574,2.60586l1.65105,-1.83434l-8.33017,-4.23362v-0.07338l2.6012,-4.61183l6.91757,-1.23556zM372.78059,260.68255l-1.42584,5.02806l-3.00192,2.47075l-4.17808,-0.23183l-0.16232,4.40372l-4.42813,0.30595l-0.47531,-2.63032l-0.86317,-11.7445l9.08115,-1.54114zM387.95727,258.34574l-1.20104,4.29418l-6.29158,-1.68832l-1.28877,2.7775h0.08815l5.67888,-0.50205l0.08698,0.17127l-0.77507,3.86551l-4.81566,-0.67258l0.07491,2.1046v0.42751l0.08741,0.17127l6.46671,-0.51338l0.60068,3.79213l-0.08735,0.08582l-11.53284,-0.75871l-1.81416,-5.05215l2.32707,-10.1051zM402.25865,260.58466v0.07343l-1.36368,4.78342l-2.63927,1.49222l4.72788,3.45007l-5.12823,2.2754l-4.01502,-5.49327h-0.15025l-0.08778,4.31906l-0.2376,0.5506h-3.7646l-0.80101,-6.82703l-0.72573,-6.89967l8.81861,-1.56565zM348.97287,257.18318l-0.77502,9.11455l3.4892,0.46478l1.02628,-8.06185l5.22845,1.13772l-1.12565,8.34298l-3.86551,4.44136l-7.64213,-1.32138l-2.9899,-3.22989l0.5506,-11.07193zM393.44,260.26626l0.08698,5.33444h0.07534l3.05243,-0.942l0.71292,-3.132l-3.92766,-1.33345zM363.93752,265.31921l3.07683,-0.62403l0.71292,-3.00928l-3.78975,-1.46819z" fill="url(#color-16)"/><path d="M325.32821,278.6518l2.17756,6.02486h0.09863l3.25864,-4.96167h0.09784l4.43824,0.59639l2.66955,17.96l-7.00916,0.77306l-0.09863,-0.19334l-0.39257,-10.0026h-0.09784l-4.0453,3.4947h-0.09789l-2.76739,-4.26819h-0.09863l-3.45547,9.61623h-0.19604l-6.41938,-3.01203v-0.09667l7.30351,-16.51088z" fill="url(#color-17)"/><path d="M355.37822,279.66643l6.2551,18.44337l-7.5489,0.93464l-1.06392,-4.88051l-5.89515,0.93384l-1.06472,3.72145h-0.11457l-6.95987,-1.51472l6.37083,-19.15168zM349.25436,284.77297l-0.72065,4.52596h3.55331l-1.30973,-5.1061z" fill="url(#color-18)"/><path d="M381.31849,283.14595v0.0963l-1.78536,6.29862l-3.4551,1.96516l6.18988,4.54269l-6.71406,2.99573l-5.2564,-7.23204h-0.19647l-0.11457,5.68545l-0.31103,0.72499h-4.92943l-1.04804,-8.98834l-0.94936,-9.08464l11.54486,-2.06146zM369.77321,282.7274l0.11457,7.02276h0.09863l3.99596,-1.24059l0.9331,-4.12334l-5.14226,-1.75593z" fill="url(#color-19)"/><path d="M391.81616,280.05355l-2.93124,18.87791l-5.28902,-0.46637l1.17844,-19.82923z" fill="url(#color-20)"/><path d="M401.28246,278.29769l7.6802,2.54529l4.47085,6.99015l-2.94797,8.79494l-8.97394,2.14267l-7.54932,-4.96167l-0.24576,-9.14913l-0.1142,-0.37001l7.56563,-5.99224zM400.80757,285.82016l-0.34439,5.46065l4.20916,0.93427l1.5062,-5.01022l-5.37097,-1.49768z" fill="url(#color-21)"/><path d="M355.51841,304.14013l7.18821,20.4711l-8.04438,1.24255l-1.27013,-5.43307l-6.2757,1.19787l-1.03676,4.19094l-0.1223,0.00307l-7.48055,-1.51356l6.28846,-21.59252zM370.34986,303.0214l0.37626,15.41042h0.10758l10.70382,-3.56342l0.12542,0.11806l-0.35879,8.52081l-16.65604,1.49302l-3.53235,-21.18095l9.12615,-0.91637zM401.28013,306.07381l4.85452,21.1549l-8.16202,0.32226l-0.65272,-5.54176l-6.39413,0.47955l-1.50774,4.04684l-0.12193,-0.01011l-7.28917,-2.35116l8.71108,-20.74174v-0.00074zM336.56246,309.6893l0.00852,0.10445l-1.27283,6.93498l-3.33741,2.39658l6.66747,4.40022l-6.55449,3.77074l-5.95143,-7.37652l-0.19922,0.01594l0.37006,6.14016l-0.25396,0.80689l-5.00011,0.39606l-1.83158,-9.60766l-1.73999,-9.71952l11.53596,-3.1518zM418.53887,313.74195l4.82032,-6.40694l0.11923,0.01906l5.82834,4.82111l-0.03108,0.21394l-6.54358,5.4552l8.49714,5.23269l-5.91341,5.66686l-5.66141,-6.72692l-5.41946,7.56875l-0.1188,-0.01906l-6.49975,-3.89034l0.01747,-0.12468l6.98358,-7.0802l-8.12554,-5.51968l5.01059,-6.15801zM315.29495,309.29396l-1.85371,5.74643l-0.10525,0.01281l-5.21791,-1.63358l-3.82437,3.49936l1.29226,5.47188l5.52392,1.50546l3.34091,-4.09385l3.77429,4.73376l0.0396,0.32231l-7.25767,5.22453l-10.40835,-2.30764l-4.43983,-10.19129l3.74126,-6.95754l7.12452,-3.68339zM443.8027,318.39922l7.47007,-4.62968l5.20632,6.81851l-12.09858,6.17119l-1.94228,8.39851l-9.52147,-3.48417l4.3431,-8.54882l-4.30895,-12.55716l9.6003,-1.39396zM349.11073,310.01235l-0.6469,5.08281l3.79833,-0.09281l-1.53881,-5.67883zM324.81489,310.16454l0.71604,7.56446l0.10017,-0.00778l3.94741,-1.65841l0.59449,-4.52178l-5.36626,-1.47941zM394.22709,311.18305l-1.22042,4.97682l3.79833,0.33819l-0.89266,-5.81632l-0.38251,-0.02329l-0.29393,-0.00074zM292.40324,312.77275l-1.08219,5.78604l-0.12193,0.03769l-6.88765,-0.94941l-1.17034,3.20966l14.037,2.30923l-2.26963,9.00073l-9.59522,3.904l-8.57439,-2.44746l-0.03727,-0.12039l1.37496,-5.27229l0.22675,-0.06994l7.92129,1.57301l1.507,-3.29432l-13.4639,-2.37329l-0.03182,-0.10292l1.62696,-7.61449l9.11493,-4.71782z" fill="url(#color-22)"/></g></g></g><path d="M316.03069,276.31282l0.39887,-2.7623l0.53964,2.92166l0.82113,1.64676l0.75077,1.06244l2.62778,0.47812l-2.51046,0.98271l-1.10268,1.59366l-0.42232,1.67334l-0.51618,1.91232l-0.51613,-1.85922l-0.77428,-1.85927l-1.05577,-1.38115l-2.11159,-0.74368l2.1585,-0.74373l1.17309,-1.24832z" data-paper-data="{&quot;origPos&quot;:null}" fill="url(#color-23)" stroke="none" stroke-linecap="round"/><path d="M410.57776,290.47619l0.50676,-3.50979l0.68565,3.71224l1.04333,2.09238l0.95396,1.34992l3.33879,0.60746l-3.18976,1.24864l-1.40106,2.02487l-0.53662,2.1261l-0.65579,2.42983l-0.65585,-2.36233l-0.98377,-2.36233l-1.34145,-1.75487l-2.68294,-0.94496l2.74256,-0.94491l1.49053,-1.58614z" data-paper-data="{&quot;origPos&quot;:null}" fill="url(#color-24)" stroke="none" stroke-linecap="round"/><path d="M386.50163,253.73857l0.2933,-2.03123l0.3968,2.14839l0.60386,1.21094l0.55208,0.78121l1.93223,0.35159l-1.84598,0.72266l-0.81086,1.17182l-0.31056,1.23048l-0.37954,1.40619l-0.37954,-1.36712l-0.56934,-1.36718l-0.77634,-1.01564l-1.55274,-0.54684l1.58726,-0.54689l0.86258,-0.91796z" data-paper-data="{&quot;origPos&quot;:null}" fill="url(#color-25)" stroke="none" stroke-linecap="round"/></g></g></g></svg>