<svg version="1.1" xmlns="http://www.w3.org/2000/svg" xmlns:xlink="http://www.w3.org/1999/xlink" width="115" height="115"><defs><linearGradient x1="188.875" y1="127.25" x2="188.875" y2="230.75" gradientUnits="userSpaceOnUse" id="color-1"><stop offset="0" stop-color="#51d3ff"/><stop offset="1" stop-color="#99ffff"/></linearGradient><linearGradient x1="253.375" y1="182.75" x2="269.875" y2="182.75" gradientUnits="userSpaceOnUse" id="color-2"><stop offset="0" stop-color="#afafaf"/><stop offset="1" stop-color="#e5e5e5"/></linearGradient><linearGradient x1="251.625" y1="197.125" x2="260.875" y2="197.125" gradientUnits="userSpaceOnUse" id="color-3"><stop offset="0" stop-color="#afafaf"/><stop offset="1" stop-color="#e5e5e5"/></linearGradient><linearGradient x1="262.625" y1="196.875" x2="272.625" y2="196.875" gradientUnits="userSpaceOnUse" id="color-4"><stop offset="0" stop-color="#afafaf"/><stop offset="1" stop-color="#e5e5e5"/></linearGradient></defs><g transform="translate(-182.375,-121.25)"><g data-paper-data="{&quot;isPaintingLayer&quot;:true}" fill="none" fill-rule="nonzero" stroke="none" stroke-width="none" stroke-linecap="none" stroke-linejoin="miter" stroke-miterlimit="10" stroke-dasharray="" stroke-dashoffset="0" font-family="none" font-weight="none" font-size="none" text-anchor="none" style="mix-blend-mode: normal"><path d="M188.875,127.25h103.25v103.5h-103.25z" data-paper-data="{&quot;origPos&quot;:null}" id="ID0.3341693598777056" fill="url(#color-1)" stroke="none" stroke-width="1" stroke-linecap="butt"/><path d="M198.625,201.75c2.897,0 5.522,1.177 7.423,3.077c1.9,1.901 3.077,4.526 3.077,7.423c0,2.897 -1.177,5.522 -3.077,7.423c-1.901,1.9 -4.526,3.077 -7.423,3.077c-2.897,0 -5.522,-1.177 -7.423,-3.077c-1.9,-1.901 -3.077,-4.526 -3.077,-7.423c0,-2.897 1.177,-5.522 3.077,-7.423c1.901,-1.9 4.526,-3.077 7.423,-3.077z" data-paper-data="{&quot;origPos&quot;:null}" id="ID0.8109315792098641" fill="#ffffff" stroke="none" stroke-width="1" stroke-linecap="butt"/><path d="M211.875,194.5c2.897,0 5.522,1.177 7.423,3.077c1.9,1.901 3.077,4.526 3.077,7.423c0,2.897 -1.177,5.522 -3.077,7.423c-1.901,1.9 -4.526,3.077 -7.423,3.077c-2.897,0 -5.522,-1.177 -7.423,-3.077c-1.9,-1.901 -3.077,-4.526 -3.077,-7.423c0,-2.897 1.177,-5.522 3.077,-7.423c1.901,-1.9 4.526,-3.077 7.423,-3.077z" data-paper-data="{&quot;origPos&quot;:null}" id="ID0.8109315792098641" fill="#ffffff" stroke="none" stroke-width="1" stroke-linecap="butt"/><path d="M228.125,196.5c2.897,0 5.522,1.177 7.423,3.077c1.9,1.901 3.077,4.526 3.077,7.423c0,2.897 -1.177,5.522 -3.077,7.423c-1.901,1.9 -4.526,3.077 -7.423,3.077c-2.897,0 -5.522,-1.177 -7.423,-3.077c-1.9,-1.901 -3.077,-4.526 -3.077,-7.423c0,-2.897 1.177,-5.522 3.077,-7.423c1.901,-1.9 4.526,-3.077 7.423,-3.077z" data-paper-data="{&quot;origPos&quot;:null}" id="ID0.8109315792098641" fill="#ffffff" stroke="none" stroke-width="1" stroke-linecap="butt"/><path d="M245.625,187.75c2.897,0 5.522,1.177 7.423,3.077c1.9,1.901 3.077,4.526 3.077,7.423c0,2.897 -1.177,5.522 -3.077,7.423c-1.901,1.9 -4.526,3.077 -7.423,3.077c-2.897,0 -5.522,-1.177 -7.423,-3.077c-1.9,-1.901 -3.077,-4.526 -3.077,-7.423c0,-2.897 1.177,-5.522 3.077,-7.423c1.901,-1.9 4.526,-3.077 7.423,-3.077z" data-paper-data="{&quot;origPos&quot;:null}" id="ID0.8109315792098641" fill="#ffffff" stroke="none" stroke-width="1" stroke-linecap="butt"/><path d="M260.125,197.75c2.897,0 5.522,1.177 7.423,3.077c1.9,1.901 3.077,4.526 3.077,7.423c0,2.897 -1.177,5.522 -3.077,7.423c-1.901,1.9 -4.526,3.077 -7.423,3.077c-2.897,0 -5.522,-1.177 -7.423,-3.077c-1.9,-1.901 -3.077,-4.526 -3.077,-7.423c0,-2.897 1.177,-5.522 3.077,-7.423c1.901,-1.9 4.526,-3.077 7.423,-3.077z" data-paper-data="{&quot;origPos&quot;:null}" id="ID0.8109315792098641" fill="#ffffff" stroke="none" stroke-width="1" stroke-linecap="butt"/><path d="M275.375,203c2.897,0 5.522,1.177 7.423,3.077c1.9,1.901 3.077,4.526 3.077,7.423c0,2.897 -1.177,5.522 -3.077,7.423c-1.901,1.9 -4.526,3.077 -7.423,3.077c-2.897,0 -5.522,-1.177 -7.423,-3.077c-1.9,-1.901 -3.077,-4.526 -3.077,-7.423c0,-2.897 1.177,-5.522 3.077,-7.423c1.901,-1.9 4.526,-3.077 7.423,-3.077z" data-paper-data="{&quot;origPos&quot;:null}" id="ID0.8109315792098641" fill="#ffffff" stroke="none" stroke-width="1" stroke-linecap="butt"/><path d="M283.125,193c2.897,0 5.522,1.177 7.423,3.077c1.9,1.901 3.077,4.526 3.077,7.423c0,2.897 -1.177,5.522 -3.077,7.423c-1.901,1.9 -4.526,3.077 -7.423,3.077c-2.897,0 -5.522,-1.177 -7.423,-3.077c-1.9,-1.901 -3.077,-4.526 -3.077,-7.423c0,-2.897 1.177,-5.522 3.077,-7.423c1.901,-1.9 4.526,-3.077 7.423,-3.077z" data-paper-data="{&quot;origPos&quot;:null}" id="ID0.8109315792098641" fill="#ffffff" stroke="none" stroke-width="1" stroke-linecap="butt"/><path d="M193.125,205.5h99.75v28.75h-99.75z" data-paper-data="{&quot;origPos&quot;:null}" id="ID0.5978333256207407" fill="#ffffff" stroke="none" stroke-width="1" stroke-linecap="butt"/><path d="M186.375,211.25h14.25v22.5h-14.25z" data-paper-data="{&quot;origPos&quot;:null}" id="ID0.9633778743445873" fill="#ffffff" stroke="none" stroke-width="1" stroke-linecap="butt"/><path d="M188.375,206.75h24.7692v25h-24.7692z" data-paper-data="{&quot;origPos&quot;:null}" id="ID0.1873715198598802" fill="#eeeeee" stroke="none" stroke-width="1" stroke-linecap="butt"/><path d="M187.125,202h27.5v7.75h-27.5z" data-paper-data="{&quot;origPos&quot;:null}" id="ID0.9406060399487615" fill="#4acf5b" stroke="none" stroke-width="1" stroke-linecap="butt"/><path d="M235.875,212.5l3.75,-7.5l42.75,-0.5l-8.5,18.75h-19.25z" data-paper-data="{&quot;origPos&quot;:null}" id="ID0.026528032030910254" fill="#b86b00" stroke="none" stroke-width="1" stroke-linecap="round"/><path d="M259.875,182.25h4v22.75h-4z" data-paper-data="{&quot;origPos&quot;:null}" id="ID0.3580243717879057" fill="#666666" stroke="none" stroke-width="1" stroke-linecap="butt"/><path d="M253.375,177.25h16.5v11h-16.5z" data-paper-data="{&quot;origPos&quot;:null}" id="ID0.2877370109781623" fill="url(#color-2)" stroke="none" stroke-width="1" stroke-linecap="butt"/><path d="M251.625,194h9.25v6.25h-9.25z" data-paper-data="{&quot;origPos&quot;:null}" id="ID0.8937501474283636" fill="url(#color-3)" stroke="none" stroke-width="1" stroke-linecap="butt"/><path d="M262.625,194h10v5.75h-10z" data-paper-data="{&quot;origPos&quot;:null}" id="ID0.43708434188738465" fill="url(#color-4)" stroke="none" stroke-width="1" stroke-linecap="butt"/><path d="M186.875,125.75h106v106h-106z" data-paper-data="{&quot;origPos&quot;:null}" id="ID0.5801267544738948" fill="none" stroke="#995900" stroke-width="9" stroke-linecap="butt"/></g></g></svg>