<svg version="1.1" xmlns="http://www.w3.org/2000/svg" xmlns:xlink="http://www.w3.org/1999/xlink" width="441.55828" height="91.66968" viewBox="0,0,441.55828,91.66968"><defs><linearGradient x1="25.5327" y1="70.2076" x2="25.5327" y2="149.819" gradientUnits="userSpaceOnUse" id="color-1"><stop offset="0" stop-color="#ffffff"/><stop offset="1" stop-color="#ffffff"/></linearGradient><radialGradient cx="68.6643" cy="81.2623" r="44.9303" gradientUnits="userSpaceOnUse" id="color-2"><stop offset="0" stop-color="#2ebdff"/><stop offset="1" stop-color="#18628c"/></radialGradient></defs><g transform="translate(-19.50356,-64.17846)"><g data-paper-data="{&quot;isPaintingLayer&quot;:true}" fill-rule="nonzero" stroke-linecap="butt" stroke-linejoin="miter" stroke-miterlimit="10" stroke-dasharray="" stroke-dashoffset="0" style="mix-blend-mode: normal"><path d="M25.5327,70.2076h429.5v79.6114h-429.5z" fill="#ffffff" stroke="url(#color-1)" stroke-width="12.05828"/><text transform="translate(28.274,105.65769) scale(0.76202,0.76202)" font-size="22" xml:space="preserve" fill="#2392d1" fill-rule="nonzero" stroke="none" stroke-width="1" stroke-linecap="butt" stroke-linejoin="miter" stroke-miterlimit="10" stroke-dasharray="" stroke-dashoffset="0" font-family="Sans Serif" font-weight="400" text-anchor="start" style="mix-blend-mode: normal"><tspan x="0" dy="0">His family relationship with Wario and Waluigi is</tspan><tspan x="0" dy="24.86px">unknown. He can jump high, run at an average speed</tspan><tspan x="0" dy="24.86px">and is able to perform a powerful kick attack!</tspan></text><g><path d="M66.3068,73.4654l0.0592,0.1183c-0.3263,1.798 -0.5139,2.6967 -0.5827,2.6967h-0.0597l-1.5901,-0.8198c0,0.1876 -0.0591,1.0075 -0.178,2.4696l2.1733,-0.5335c0.0692,0.1977 0.1284,1.0767 0.178,2.6375c-0.2074,0.0789 -0.9387,0.1977 -2.1733,0.3555c0.2767,1.1855 0.5731,2.6376 0.879,4.3465c-1.0175,0.2271 -2.2223,0.4643 -3.6349,0.7015l-0.0591,-0.1188c-0.1882,-3.0523 -0.3364,-4.5736 -0.4643,-4.5736c-1.2745,0.3065 -1.9659,0.4845 -2.0549,0.524c-0.0789,-0.3854 -0.2175,-1.4227 -0.4147,-3.112l0.1183,-0.0592h2.1141c-0.1189,-0.9776 -0.2964,-2.242 -0.5336,-3.8129l2.4105,-1.6988c0.3454,0.0394 1.6199,0.3358 3.8129,0.879zM35.3093,72.7244l0.5133,7.5075h0.0597l2.6967,-2.8251c1.5901,2.1434 2.4003,3.2105 2.4398,3.2105c0.6812,-3.3491 1.1162,-5.3641 1.2841,-6.0357c2.9142,0.5629 4.3662,0.8987 4.3662,1.0272c-1.7484,5.5613 -2.7564,8.7127 -3.0128,9.4435c-0.6226,0.0395 -1.9856,0.168 -4.1093,0.3854c-0.9387,-2.2521 -1.4126,-3.4078 -1.4126,-3.4675c-0.0794,0.0102 -0.573,0.9878 -1.4818,2.9537h-0.0592c-2.8252,-0.1877 -4.2378,-0.3652 -4.2378,-0.5134c-1.5906,-7.0037 -2.3806,-10.5992 -2.3806,-10.7873v-0.128c0,-0.1284 1.758,-0.4349 5.265,-0.8992zM55.1244,76.5672c1.5411,1.3236 2.3119,2.0347 2.3119,2.1237c-0.6226,1.9558 -0.9782,3.1413 -1.0672,3.5661c0.6226,1.3929 0.9781,2.2223 1.0672,2.4894c0,0.0789 -1.0176,0.2862 -3.0624,0.6322c-0.0299,-0.1088 -0.2175,-0.3657 -0.5629,-0.7511c-2.8156,0.5432 -4.3364,0.8102 -4.5539,0.8102l-1.5016,-4.0602l3.3092,-1.7484c0.5336,0.089 1.363,0.1284 2.499,0.1284c0,-0.1481 0.0202,-0.5826 0.0596,-1.3134c-0.1876,0 -1.8966,0.1284 -5.1172,0.3753l-0.0592,-0.1285c0.4445,-2.0842 0.7212,-3.1216 0.8102,-3.1216c3.9116,0.5432 5.8673,0.8694 5.8673,0.9979zM74.6437,76.5672c1.5411,1.3236 2.3113,2.0347 2.3113,2.1237c-0.622,1.9558 -0.9776,3.1413 -1.0666,3.5661c0.6226,1.3929 0.9781,2.2223 1.0666,2.4894c0,0.0789 -1.017,0.2862 -3.0618,0.6322c-0.0299,-0.1088 -0.2175,-0.3657 -0.5629,-0.7511c-2.8156,0.5432 -4.3369,0.8102 -4.5539,0.8102l-1.5016,-4.0602l3.3092,-1.7484c0.5336,0.089 1.363,0.1284 2.499,0.1284c0,-0.1481 0.0197,-0.5826 0.0591,-1.3134c-0.1876,0 -1.8966,0.1284 -5.1167,0.3753l-0.0592,-0.1285c0.4445,-2.0842 0.7212,-3.1216 0.8102,-3.1216c3.9116,0.5432 5.8673,0.8694 5.8673,0.9979zM89.9647,77.8316c-0.2271,3.7538 -0.395,5.9467 -0.484,6.5789c-0.3854,0.0491 -1.5411,0.1184 -3.4867,0.2074l-0.0693,-0.1386l-0.3459,-5.2746l-0.1381,-0.0692c-1.2548,0.2665 -2.1237,0.4739 -2.5981,0.6124c0.1285,2.2421 0.1978,3.8721 0.1978,4.87c-1.9659,0.5432 -3.0326,0.8198 -3.2202,0.8198c-1.2745,-5.6205 -1.9169,-8.5938 -1.9169,-8.9099c2.7762,-0.3657 4.2874,-0.5437 4.5246,-0.5437v0.0693c0.049,0.0298 0.1183,0.7212 0.2073,2.0549c2.5486,-1.6893 3.8919,-2.539 4.04,-2.539zM94.9237,75.5795c2.4989,0.6716 3.8326,1.0767 3.9808,1.2249c1.3732,1.9457 2.1535,3.072 2.3215,3.3684c-0.8892,2.815 -1.403,4.2276 -1.5315,4.2276c-2.9632,0.6914 -4.5139,1.0373 -4.6525,1.0373c-2.4499,-1.4323 -3.7537,-2.2228 -3.9115,-2.3907c-0.089,-2.6573 -0.1285,-4.129 -0.1285,-4.4057c-0.0394,-0.0789 -0.0591,-0.138 -0.0591,-0.1775c2.5287,-1.9264 3.8326,-2.8843 3.9216,-2.8843zM94.736,79.1946c-0.0394,0.2666 -0.0991,1.225 -0.178,2.8748l2.2031,0.4936c0.5235,-1.6493 0.79,-2.5288 0.79,-2.6375c-1.7484,-0.5235 -2.6866,-0.79 -2.8151,-0.79zM51.9437,83.6893h0.0597c0.8294,-0.5432 1.2442,-0.8992 1.2442,-1.0671l0.1284,-1.0566c-0.1578,0 -0.8492,-0.0596 -2.0645,-0.1881c0,0.0693 0.2079,0.8401 0.6322,2.3118zM71.463,83.6893h0.0592c0.8299,-0.5432 1.2447,-0.8992 1.2447,-1.0671l0.1284,-1.0566c-0.1578,0 -0.8497,-0.0596 -2.0645,-0.1881c0,0.0693 0.2074,0.8401 0.6322,2.3118z" fill="#000000" stroke="#dbf1ff" stroke-width="4.55184"/><path d="M66.3068,73.4654l0.0592,0.1183c-0.3263,1.798 -0.5139,2.6967 -0.5827,2.6967h-0.0597l-1.5901,-0.8198c0,0.1876 -0.0591,1.0075 -0.178,2.4696l2.1733,-0.5335c0.0692,0.1977 0.1284,1.0767 0.178,2.6375c-0.2074,0.0789 -0.9387,0.1977 -2.1733,0.3555c0.2767,1.1855 0.5731,2.6376 0.879,4.3465c-1.0175,0.2271 -2.2223,0.4643 -3.6349,0.7015l-0.0591,-0.1188c-0.1882,-3.0523 -0.3364,-4.5736 -0.4643,-4.5736c-1.2745,0.3065 -1.9659,0.4845 -2.0549,0.524c-0.0789,-0.3854 -0.2175,-1.4227 -0.4147,-3.112l0.1183,-0.0592h2.1141c-0.1189,-0.9776 -0.2964,-2.242 -0.5336,-3.8129l2.4105,-1.6988c0.3454,0.0394 1.6199,0.3358 3.8129,0.879zM35.3093,72.7244l0.5133,7.5075h0.0597l2.6967,-2.8251c1.5901,2.1434 2.4003,3.2105 2.4398,3.2105c0.6812,-3.3491 1.1162,-5.3641 1.2841,-6.0357c2.9142,0.5629 4.3662,0.8987 4.3662,1.0272c-1.7484,5.5613 -2.7564,8.7127 -3.0128,9.4435c-0.6226,0.0395 -1.9856,0.168 -4.1093,0.3854c-0.9387,-2.2521 -1.4126,-3.4078 -1.4126,-3.4675c-0.0794,0.0102 -0.573,0.9878 -1.4818,2.9537h-0.0592c-2.8252,-0.1877 -4.2378,-0.3652 -4.2378,-0.5134c-1.5906,-7.0037 -2.3806,-10.5992 -2.3806,-10.7873v-0.128c0,-0.1284 1.758,-0.4349 5.265,-0.8992zM55.1244,76.5672c1.5411,1.3236 2.3119,2.0347 2.3119,2.1237c-0.6226,1.9558 -0.9782,3.1413 -1.0672,3.5661c0.6226,1.3929 0.9781,2.2223 1.0672,2.4894c0,0.0789 -1.0176,0.2862 -3.0624,0.6322c-0.0299,-0.1088 -0.2175,-0.3657 -0.5629,-0.7511c-2.8156,0.5432 -4.3364,0.8102 -4.5539,0.8102l-1.5016,-4.0602l3.3092,-1.7484c0.5336,0.089 1.363,0.1284 2.499,0.1284c0,-0.1481 0.0202,-0.5826 0.0596,-1.3134c-0.1876,0 -1.8966,0.1284 -5.1172,0.3753l-0.0592,-0.1285c0.4445,-2.0842 0.7212,-3.1216 0.8102,-3.1216c3.9116,0.5432 5.8673,0.8694 5.8673,0.9979zM74.6437,76.5672c1.5411,1.3236 2.3113,2.0347 2.3113,2.1237c-0.622,1.9558 -0.9776,3.1413 -1.0666,3.5661c0.6226,1.3929 0.9781,2.2223 1.0666,2.4894c0,0.0789 -1.017,0.2862 -3.0618,0.6322c-0.0299,-0.1088 -0.2175,-0.3657 -0.5629,-0.7511c-2.8156,0.5432 -4.3369,0.8102 -4.5539,0.8102l-1.5016,-4.0602l3.3092,-1.7484c0.5336,0.089 1.363,0.1284 2.499,0.1284c0,-0.1481 0.0197,-0.5826 0.0591,-1.3134c-0.1876,0 -1.8966,0.1284 -5.1167,0.3753l-0.0592,-0.1285c0.4445,-2.0842 0.7212,-3.1216 0.8102,-3.1216c3.9116,0.5432 5.8673,0.8694 5.8673,0.9979zM89.9647,77.8316c-0.2271,3.7538 -0.395,5.9467 -0.484,6.5789c-0.3854,0.0491 -1.5411,0.1184 -3.4867,0.2074l-0.0693,-0.1386l-0.3459,-5.2746l-0.1381,-0.0692c-1.2548,0.2665 -2.1237,0.4739 -2.5981,0.6124c0.1285,2.2421 0.1978,3.8721 0.1978,4.87c-1.9659,0.5432 -3.0326,0.8198 -3.2202,0.8198c-1.2745,-5.6205 -1.9169,-8.5938 -1.9169,-8.9099c2.7762,-0.3657 4.2874,-0.5437 4.5246,-0.5437v0.0693c0.049,0.0298 0.1183,0.7212 0.2073,2.0549c2.5486,-1.6893 3.8919,-2.539 4.04,-2.539zM94.9237,75.5795c2.4989,0.6716 3.8326,1.0767 3.9808,1.2249c1.3732,1.9457 2.1535,3.072 2.3215,3.3684c-0.8892,2.815 -1.403,4.2276 -1.5315,4.2276c-2.9632,0.6914 -4.5139,1.0373 -4.6525,1.0373c-2.4499,-1.4323 -3.7537,-2.2228 -3.9115,-2.3907c-0.089,-2.6573 -0.1285,-4.129 -0.1285,-4.4057c-0.0394,-0.0789 -0.0591,-0.138 -0.0591,-0.1775c2.5287,-1.9264 3.8326,-2.8843 3.9216,-2.8843zM94.736,79.1946c-0.0394,0.2666 -0.0991,1.225 -0.178,2.8748l2.2031,0.4936c0.5235,-1.6493 0.79,-2.5288 0.79,-2.6375c-1.7484,-0.5235 -2.6866,-0.79 -2.8151,-0.79zM51.9437,83.6893h0.0597c0.8294,-0.5432 1.2442,-0.8992 1.2442,-1.0671l0.1284,-1.0566c-0.1578,0 -0.8492,-0.0596 -2.0645,-0.1881c0,0.0693 0.2079,0.8401 0.6322,2.3118zM71.463,83.6893h0.0592c0.8299,-0.5432 1.2447,-0.8992 1.2447,-1.0671l0.1284,-1.0566c-0.1578,0 -0.8497,-0.0596 -2.0645,-0.1881c0,0.0693 0.2074,0.8401 0.6322,2.3118z" fill="url(#color-2)" stroke="none" stroke-width="0.50576"/></g></g></g></svg>