<svg version="1.1" xmlns="http://www.w3.org/2000/svg" xmlns:xlink="http://www.w3.org/1999/xlink" width="69.2336" height="69.2336" viewBox="0,0,69.2336,69.2336"><defs><linearGradient x1="240" y1="146.6332" x2="240" y2="213.3668" gradientUnits="userSpaceOnUse" id="color-1"><stop offset="0" stop-color="#296ccc"/><stop offset="1" stop-color="#235cb0"/></linearGradient></defs><g transform="translate(-205.3832,-145.3832)"><g data-paper-data="{&quot;isPaintingLayer&quot;:true}" fill-rule="nonzero" stroke-linejoin="miter" stroke-miterlimit="10" stroke-dasharray="" stroke-dashoffset="0" style="mix-blend-mode: normal"><path d="M240,146.6332c9.2054,0 17.5482,3.7379 23.5875,9.7793c6.0413,6.0393 9.7793,14.382 9.7793,23.5875c0,9.2055 -3.738,17.5482 -9.7793,23.5875c-6.0393,6.0414 -14.3821,9.7793 -23.5875,9.7793c-9.2055,0 -17.5483,-3.7379 -23.5876,-9.7793c-6.0413,-6.0393 -9.7792,-14.382 -9.7792,-23.5875c0,-9.2055 3.7379,-17.5482 9.7792,-23.5875c6.0393,-6.0414 14.3821,-9.7793 23.5876,-9.7793z" id="ID0.4039921844378114" fill="url(#color-1)" stroke="#183d78" stroke-width="2.5" stroke-linecap="butt"/><g fill="none" stroke="#183d78"><path d="M227.36738,158.69858l11.06978,15.3075l-14.80303,0.89805z" data-paper-data="{&quot;origPos&quot;:null}" id="ID0.3377200220711529" stroke-width="5" stroke-linecap="round"/><path d="M228.12934,168.58566c1.78453,-1.7398 4.00297,-3.08732 6.55468,-3.85518c8.46586,-2.54754 17.39399,2.25024 19.94153,10.71609c2.54753,8.46586 -2.25024,17.39398 -10.7161,19.94152c-6.43732,1.93709 -14.61343,-1.59898 -18.57687,-6.53913" data-paper-data="{&quot;origPos&quot;:null,&quot;origRot&quot;:0}" stroke-width="13" stroke-linecap="butt"/></g><g><path d="M227.36738,158.69858l11.06978,15.3075l-14.80303,0.89805z" data-paper-data="{&quot;origPos&quot;:null}" id="ID0.3377200220711529" fill="#ffffff" stroke="none" stroke-width="1.1379" stroke-linecap="round"/><path d="M228.12934,168.58566c1.78453,-1.7398 4.00297,-3.08732 6.55468,-3.85518c8.46586,-2.54754 17.39399,2.25024 19.94153,10.71609c2.54753,8.46586 -2.25024,17.39398 -10.7161,19.94152c-6.43732,1.93709 -13.14192,-0.37274 -17.10537,-5.31289" data-paper-data="{&quot;origPos&quot;:null,&quot;origRot&quot;:0}" fill="none" stroke="#ffffff" stroke-width="7" stroke-linecap="butt"/></g></g></g></svg>