<svg version="1.1" xmlns="http://www.w3.org/2000/svg" xmlns:xlink="http://www.w3.org/1999/xlink" width="509.79926" height="368.52287" viewBox="0,0,509.79926,368.52287"><defs><linearGradient x1="108.04839" y1="217.11787" x2="108.04839" y2="256.19922" gradientUnits="userSpaceOnUse" id="color-1"><stop offset="0" stop-color="#e38834"/><stop offset="1" stop-color="#a8772d"/></linearGradient><linearGradient x1="292.14091" y1="274.27756" x2="292.14091" y2="360.22249" gradientUnits="userSpaceOnUse" id="color-2"><stop offset="0" stop-color="#867037"/><stop offset="1" stop-color="#ac8f46"/></linearGradient><radialGradient cx="294.57318" cy="256.51876" r="425.84807" gradientUnits="userSpaceOnUse" id="color-3"><stop offset="0" stop-color="#b1eb5b"/><stop offset="1" stop-color="#94d955"/></radialGradient><linearGradient x1="288.14091" y1="-2.72244" x2="288.14091" y2="83.22249" gradientUnits="userSpaceOnUse" id="color-4"><stop offset="0" stop-color="#867037"/><stop offset="1" stop-color="#ac8f46"/></linearGradient></defs><g transform="translate(-48.70074,3.72639)"><g data-paper-data="{&quot;isPaintingLayer&quot;:true}" fill="none" fill-rule="nonzero" stroke="none" stroke-width="none" stroke-linecap="none" stroke-linejoin="miter" stroke-miterlimit="10" stroke-dasharray="" stroke-dashoffset="0" font-family="none" font-weight="none" font-size="none" text-anchor="none" style="mix-blend-mode: normal"><path d="M48.70074,217.11787h118.69532v39.08127h-118.6953z" data-paper-data="{&quot;origPos&quot;:null}" id="ID0.8304188074544072" fill="url(#color-1)" stroke="none" stroke-width="1.16442" stroke-linecap="butt"/><path d="M535.5,274.27756v85.94493l-289.17907,3.56169l-0.61273,-88.36561z" data-paper-data="{&quot;origPos&quot;:null}" id="ID0.29126935824751854" fill="url(#color-2)" stroke="#8d763a" stroke-width="2" stroke-linecap="butt"/><path d="M302.10372,251.11803c84.90281,1.06537 170.54837,-3.30939 255.39628,2.4576c0,6.7487 0,13.49739 0,20.24609c-0.39721,0.16973 -0.75675,0.32362 -1.07309,0.46013c-23.47285,10.09363 -49.30543,19.45375 -75.48033,19.78673c-32.35377,0.40633 -62.70193,-20.7654 -95.14155,-19.78673c-30.64755,1.86373 -56.41897,28.51756 -86.92058,27.98962c-22.86217,-0.39878 -64.36838,-22.58927 -64.36838,-22.58927l1.23832,-18.5104c0,0 4.95657,-8.31288 6.78478,-8.76666c1.04072,-0.25832 9.25949,-2.60655 9.46208,-2.75951c16.71074,0.52607 33.41477,1.32966 50.10248,1.47239z" data-paper-data="{&quot;origPos&quot;:null}" id="ID0.22012263583019376" fill="url(#color-3)" stroke="#3d6600" stroke-width="2" stroke-linecap="butt"/><path d="M551.50001,307.66301c-13.46576,13.00286 -36.27608,12.76048 -65.01867,13.28432c-38.21647,0.69652 -54.36408,-21.221 -88.37275,-22.15938c-34.00867,-0.93839 -37.1862,23.15173 -79.49934,21.49347c-29.03107,-1.13773 -51.02312,-11.01211 -71.35709,-17.53296" data-paper-data="{&quot;origPos&quot;:null,&quot;origRot&quot;:0}" fill="none" stroke="#bba15f" stroke-width="9" stroke-linecap="round"/><path d="M551.50001,339.17615c-13.46576,13.00286 -36.27608,12.76048 -65.01867,13.28432c-38.21647,0.69652 -54.36408,-21.221 -88.37275,-22.15938c-34.00867,-0.93839 -37.1862,23.15173 -79.49934,21.49347c-28.92116,-1.13342 -50.8565,-10.93747 -71.12608,-17.45876" data-paper-data="{&quot;origPos&quot;:null,&quot;origRot&quot;:0}" fill="none" stroke="#7d6938" stroke-width="9" stroke-linecap="round"/><path d="M531.5,-2.72244v85.94493l-289.17907,3.56169l-0.61273,-88.36561z" data-paper-data="{&quot;origPos&quot;:null}" id="ID0.29126935824751854" fill="url(#color-4)" stroke="#8d763a" stroke-width="2" stroke-linecap="butt"/><path d="M547.50001,30.66301c-13.46576,13.00286 -36.27608,12.76047 -65.01867,13.28431c-38.21647,0.69652 -54.36408,-21.221 -88.37275,-22.15938c-34.00867,-0.93838 -37.1862,23.15173 -79.49934,21.49346c-29.03107,-1.13773 -51.02312,-11.01211 -71.35709,-17.53296" data-paper-data="{&quot;origPos&quot;:null,&quot;origRot&quot;:0}" fill="none" stroke="#bba15f" stroke-width="9" stroke-linecap="round"/><path d="M547.50001,62.17615c-13.46576,13.00286 -36.27608,12.76048 -65.01867,13.28432c-38.21647,0.69653 -54.36408,-21.221 -88.37275,-22.15938c-34.00867,-0.93838 -37.1862,23.15173 -79.49934,21.49347c-28.92116,-1.13342 -50.8565,-10.93748 -71.12608,-17.45876" data-paper-data="{&quot;origPos&quot;:null,&quot;origRot&quot;:0}" fill="none" stroke="#7d6938" stroke-width="9" stroke-linecap="round"/></g></g></svg>