<svg version="1.1" xmlns="http://www.w3.org/2000/svg" xmlns:xlink="http://www.w3.org/1999/xlink" width="56.55878" height="56.55689" viewBox="0,0,56.55878,56.55689"><g transform="translate(-211.72061,-151.72157)"><g data-paper-data="{&quot;isPaintingLayer&quot;:true}" fill-rule="nonzero" stroke="none" stroke-linejoin="miter" stroke-miterlimit="10" stroke-dasharray="" stroke-dashoffset="0" style="mix-blend-mode: normal"><path d="" data-paper-data="{&quot;origPos&quot;:null}" fill="#000000" stroke-width="1" stroke-linecap="butt"/><g><path d="M220.60354,196.20747c-5.12457,-6.03578 -9.24735,-12.54691 -8.85737,-19.09301c0.51922,-8.71667 5.25579,-16.47573 11.06119,-21.93983c2.74337,-2.57 8.38084,-1.8932 11.85921,0.39915c6.18679,4.0801 10.11387,11.00674 14.92637,16.92503c4.46436,5.49049 10.26945,10.54971 12.63202,17.06801c1.42728,3.93826 0.38741,9.10896 -2.5319,11.31735c-5.95353,4.50447 -13.75326,8.16937 -21.6871,7.16188c-6.52748,-0.82954 -12.27813,-5.80253 -17.4024,-11.83857z" fill="#ff0000" stroke-width="0.35788" stroke-linecap="round"/><path d="M244.1489,176.18461c-4.14142,-4.87812 -6.91116,-9.08432 -8.31324,-14.45157c-0.73011,-2.79008 0.41435,-6.27674 2.63563,-8.0516c2.12759,-1.91727 5.76412,-2.53993 8.4565,-1.36511c5.08559,2.21699 8.76941,5.67013 12.91083,10.54826c4.14142,4.87785 7.13582,9.02901 8.31293,14.45157c0.63756,2.9325 -1.20178,6.32175 -3.47206,8.25621c-1.9594,1.65623 -5.25351,2.24708 -7.61979,1.16051c-5.04346,-2.31499 -8.76941,-5.67013 -12.91083,-10.54826z" fill="#ffdea8" stroke-width="0.3841" stroke-linecap="butt"/><path d="M251.36148,177.8824c-0.58055,-0.6413 -0.71494,-1.61697 -0.3622,-2.43304c0.54673,-1.26739 1.43072,-2.3084 2.69265,-3.37978c1.26166,-1.07139 2.50612,-1.79262 3.77178,-2.10838c1.01436,-0.25989 1.96827,-0.04441 2.45913,0.65275c0.56449,0.54616 0.56707,1.47628 0.14556,2.41527c-0.52982,1.19231 -1.43072,2.3084 -2.69265,3.37978c-1.26194,1.07139 -2.42731,1.79032 -3.77178,2.10838c-0.88628,0.21146 -1.78776,-0.05644 -2.24251,-0.63498z" fill="#000000" stroke-width="1.07379" stroke-linecap="round"/><path d="M244.3412,169.71588c-0.58055,-0.6413 -0.71494,-1.61697 -0.3622,-2.43304c0.54673,-1.26739 1.43072,-2.3084 2.69265,-3.37978c1.26166,-1.07139 2.50612,-1.79262 3.77178,-2.10838c1.01436,-0.25989 1.96827,-0.04441 2.45913,0.65275c0.56449,0.54616 0.56707,1.47628 0.14556,2.41527c-0.52982,1.19231 -1.43072,2.3084 -2.69265,3.37978c-1.26194,1.07139 -2.42731,1.79032 -3.77178,2.10838c-0.88628,0.21146 -1.78776,-0.05644 -2.24251,-0.63498z" fill="#000000" stroke-width="1.07379" stroke-linecap="round"/><path d="M244.8615,169.01614c-0.28884,-0.34012 -0.4112,-0.7648 -0.37765,-1.17683c0.03381,-0.41205 0.22351,-0.8112 0.56363,-1.10004c0.34012,-0.28855 0.7648,-0.4112 1.17683,-0.37739c0.41205,0.03353 0.8112,0.22323 1.10004,0.56335c0.28884,0.34012 0.4112,0.76506 0.37765,1.17683c-0.03381,0.41205 -0.22351,0.8115 -0.56363,1.10004c-0.34012,0.28884 -0.7648,0.4112 -1.17683,0.37765c-0.41205,-0.03381 -0.8112,-0.22351 -1.10004,-0.56363z" fill="#ffffff" stroke-width="1.07379" stroke-linecap="butt"/><path d="M252.16842,177.03938c-0.28884,-0.34012 -0.4112,-0.7648 -0.37765,-1.17683c0.03381,-0.41205 0.22351,-0.8112 0.56363,-1.10004c0.34012,-0.28855 0.7648,-0.4112 1.17683,-0.37739c0.41205,0.03353 0.8112,0.22323 1.10004,0.56335c0.28884,0.34012 0.4112,0.76506 0.37765,1.17683c-0.03381,0.41205 -0.22351,0.8115 -0.56363,1.10004c-0.34012,0.28884 -0.7648,0.4112 -1.17683,0.37765c-0.41205,-0.03381 -0.8112,-0.22351 -1.10004,-0.56363z" fill="#ffffff" stroke-width="1.07379" stroke-linecap="butt"/><path d="M240.02267,188.76334l-0.75646,9.73792l-6.24781,-6.67907l-9.71671,2.32961l3.83223,-10.111l-5.67557,-6.51515l9.66027,0.74989l5.64464,-8.40146l0.72696,11.65491l11.59615,2.86028z" fill="#ffe428" stroke-width="0.3841" stroke-linecap="round"/><path d="M223.52682,165.40253l-1.58773,7.66019l-4.02996,-4.59445l-4.77382,1.84849l1.1393,-4.22366l1.39719,-3.69098l4.09817,-4.932l2.90499,-1.91498l-0.48053,4.46578l9.1273,1.06852z" fill="#ffe428" stroke-width="0.30795" stroke-linecap="round"/><path d="M255.95564,191.83081l-0.42694,9.17974l4.48469,0.25072l-2.36113,2.5554l-5.53174,3.24339l-3.86891,0.77968l-4.35233,0.43871l2.59867,-4.41048l-3.87952,-4.72225l7.81636,-0.32322z" fill="#ffe428" stroke-width="0.30795" stroke-linecap="round"/></g></g></g></svg>