<svg version="1.1" xmlns="http://www.w3.org/2000/svg" xmlns:xlink="http://www.w3.org/1999/xlink" width="45.02094" height="45.22233" viewBox="0,0,45.02094,45.22233"><g transform="translate(-217.48953,-157.38884)"><g data-paper-data="{&quot;isPaintingLayer&quot;:true}" fill-rule="nonzero" stroke="none" stroke-linejoin="miter" stroke-miterlimit="10" stroke-dasharray="" stroke-dashoffset="0" style="mix-blend-mode: normal"><path d="" data-paper-data="{&quot;origPos&quot;:null}" fill="#000000" stroke-width="1" stroke-linecap="butt"/><g><path d="M223.26048,191.25317c-3.6321,-5.18807 -6.43158,-10.67937 -5.63441,-15.86383c1.0617,-6.90319 5.41024,-12.73025 10.4398,-16.65018c2.37579,-1.8428 6.81493,-0.88448 9.41485,1.19954c4.62358,3.7089 7.23598,9.51725 10.62883,14.58815c3.14703,4.70431 7.39418,9.16477 8.79097,14.53138c0.84379,3.24255 -0.36856,7.28324 -2.85758,8.82478c-5.07615,3.14475 -11.55993,5.48344 -17.80345,4.09158c-5.13686,-1.14572 -9.3466,-5.53364 -12.97903,-10.7214z" fill="#566bff" stroke-width="0.24992" stroke-linecap="round"/><path d="M243.44724,176.91771c-2.93567,-4.19266 -4.82871,-7.74829 -5.54612,-12.12671c-0.37415,-2.27633 0.79653,-4.96818 2.69741,-6.2163c1.83657,-1.36855 4.77914,-1.59436 6.83592,-0.45849c3.88546,2.14342 6.56221,5.16739 9.49788,9.36005c2.93536,4.19266 5.01149,7.72105 5.54612,12.12671c0.28947,2.38267 -1.42732,4.94521 -3.37907,6.31705c-1.68329,1.17329 -4.35084,1.39877 -6.15426,0.35772c-3.84445,-2.21859 -6.56254,-5.16739 -9.49788,-9.36005z" fill="#ffdea8" stroke-width="0.26823" stroke-linecap="butt"/><path d="M249.01243,178.82812c-0.41484,-0.55365 -0.44896,-1.341 -0.10764,-1.96456c0.52971,-0.96849 1.31112,-1.73186 2.39548,-2.4913c1.08467,-0.75944 2.1293,-1.24123 3.16082,-1.39877c0.82705,-0.1316 1.57073,0.11092 1.90975,0.70265c0.40893,0.47687 0.34198,1.2176 -0.06366,1.93437c-0.51034,0.91009 -1.31081,1.73186 -2.39548,2.4913c-1.08467,0.75944 -2.06631,1.24549 -3.16049,1.39877c-0.72136,0.10239 -1.41943,-0.17789 -1.73876,-0.67246z" fill="#000000" stroke-width="0.74987" stroke-linecap="round"/><path d="M244.08953,171.77198c-0.41484,-0.55365 -0.44896,-1.341 -0.10764,-1.96456c0.52971,-0.96849 1.31112,-1.73186 2.39548,-2.4913c1.08467,-0.75944 2.1293,-1.24123 3.16082,-1.39877c0.82705,-0.1316 1.57073,0.11092 1.90975,0.70265c0.40893,0.47687 0.34198,1.2176 -0.06366,1.93437c-0.51034,0.91009 -1.31081,1.73186 -2.39548,2.4913c-1.08467,0.75944 -2.06631,1.24549 -3.16049,1.39877c-0.72136,0.10239 -1.41943,-0.17789 -1.73876,-0.67246z" fill="#000000" stroke-width="0.74987" stroke-linecap="round"/><path d="M244.59885,171.29447c-0.2048,-0.29242 -0.27076,-0.63966 -0.21333,-0.96555c0.05743,-0.32556 0.23827,-0.62948 0.53069,-0.83394c0.29209,-0.2048 0.63966,-0.27076 0.96521,-0.21333c0.32556,0.05743 0.62948,0.23827 0.83394,0.53069c0.2048,0.29242 0.27076,0.63966 0.21333,0.96521c-0.05743,0.32556 -0.23827,0.62948 -0.53069,0.83426c-0.29209,0.20446 -0.63966,0.27043 -0.96521,0.213c-0.32556,-0.05743 -0.62948,-0.23827 -0.83394,-0.53035z" fill="#ffffff" stroke-width="0.74987" stroke-linecap="butt"/><path d="M249.68586,178.18652c-0.2048,-0.29242 -0.27076,-0.63966 -0.21333,-0.96555c0.05743,-0.32556 0.23827,-0.62948 0.53069,-0.83394c0.29209,-0.2048 0.63966,-0.27076 0.96521,-0.21333c0.32556,0.05743 0.62948,0.23827 0.83394,0.53069c0.2048,0.29242 0.27076,0.63966 0.21333,0.96521c-0.05743,0.32556 -0.23827,0.62948 -0.53069,0.83426c-0.29209,0.20446 -0.63966,0.27043 -0.96521,0.213c-0.32556,-0.05743 -0.62948,-0.23827 -0.83394,-0.53035z" fill="#ffffff" stroke-width="0.74987" stroke-linecap="butt"/><path d="M224.72415,189.31026c-1.66459,-2.37743 -2.20709,-5.20742 -1.73975,-7.86021c0.46833,-2.65245 1.94619,-5.12605 4.32393,-6.79063c2.37743,-1.66459 5.20742,-2.20742 7.86021,-1.74008c2.65245,0.46833 5.12605,1.94652 6.79063,4.32393c1.66492,2.37775 2.20742,5.20775 1.74008,7.86021c-0.46833,2.65245 -1.94619,5.12636 -4.32393,6.79096c-2.37743,1.66459 -5.20775,2.20709 -7.86021,1.73975c-2.65245,-0.46833 -5.12605,-1.94619 -6.79096,-4.32393z" fill="#ffffff" stroke-width="0.26823" stroke-linecap="butt"/><path d="M218.92271,170.80285c-0.42666,-0.35444 0.1142,-1.36527 0.43256,-1.91467c1.20053,-2.09486 2.57534,-4.15886 4.08828,-5.97901c1.2317,-1.48244 2.62062,-2.87398 4.18249,-4.00296c0.87431,-0.63046 1.92123,-1.09025 2.97834,-1.11816c0.57466,-0.06794 1.32524,0.30259 1.46046,0.85788c0.3446,1.44405 0.69248,2.76502 -0.12963,4.45948c-0.82213,1.69413 -2.35839,3.46177 -4.41287,4.90024c-2.05449,1.43847 -4.01904,1.81556 -6.11422,2.47031c-0.787,0.24483 -1.88578,0.76567 -2.48541,0.32689z" fill="#ffffff" stroke-width="0.26823" stroke-linecap="round"/><path d="M241.05237,200.07695c1.33344,-1.74401 2.35806,-3.46177 4.41255,-4.90024c2.0548,-1.43847 4.2409,-2.27733 6.11456,-2.47031c1.87333,-0.19298 2.99574,0.58581 4.23434,1.40369c0.47587,0.31702 0.56713,1.14933 0.30685,1.66592c-0.38793,0.98392 -1.17854,1.81031 -2.06959,2.41616c-1.59534,1.08139 -3.37809,1.91041 -5.19232,2.56055c-2.2281,0.79914 -4.63375,1.4155 -7.01675,1.79652c-0.59763,0.09682 -1.59534,0.1467 -1.76699,-0.37479c-0.22284,-0.71447 0.51493,-1.49 0.97736,-2.09747z" fill="#ffffff" stroke-width="0.26823" stroke-linecap="round"/></g></g></g></svg>