<svg xmlns="http://www.w3.org/2000/svg" xmlns:xlink="http://www.w3.org/1999/xlink" version="1.1" width="508.87778802964056" height="126.69533105942571" viewBox="-0.9631203524915606 -1.1167389787880808 508.87778802964056 126.69533105942571">
  <defs>
    <linearGradient id="grad_1" y2="1" x2="0">
      <stop offset="0" stop-color="#7F7F7F" stop-opacity="1"/>
      <stop offset="1" stop-color="#5E5E5E" stop-opacity="1"/>
    </linearGradient>
  <linearGradient id="grad_1-,0,0,3.202702522277832,9,-1030.4" y2="122.5729" x2="2" x1="2" y1="0.0695" gradientUnits="userSpaceOnUse">
      <stop offset="0" stop-color="#7F7F7F" stop-opacity="1"/>
      <stop offset="1" stop-color="#5E5E5E" stop-opacity="1"/>
    </linearGradient></defs>
  <!-- Exported by Scratch - http://scratch.mit.edu/ -->
  <path id="ID0.0465476862154901" fill="url(#grad_1-,0,0,3.202702522277832,9,-1030.4)" stroke="none" d="M 2 17.0439 L 142 17.0439 L 175 0.0695 L 495 0.0695 L 489 122.5729 L 9 122.5729 L 2 17.0439 Z " stroke-width="2.3724779710468114"/>
  <path id="ID0.2121359179727733" fill="#B2B2B2" stroke="none" d="M 33.0214 20.77 C 37.0576 21.2304 40.6053 22.6115 43.0766 24.4714 C 45.5477 26.333 46.9409 28.6714 46.6701 31.045 C 46.3994 33.4186 44.5154 35.3832 41.6885 36.6405 C 38.8618 37.896 35.0943 38.4427 31.058 37.9823 C 27.0217 37.5219 23.474 36.1408 21.0027 34.2809 C 18.5316 32.4193 17.1384 30.0808 17.4092 27.7072 C 17.6799 25.3337 19.564 23.369 22.3908 22.1118 C 25.2175 20.8562 28.9851 20.3095 33.0214 20.77 Z " stroke-width="1.7323943449821624"/>
  <path id="ID0.9847204415127635" fill="#B2B2B2" stroke="none" d="M 41.5725 45.8665 C 44.6586 46.2186 47.3127 47.7907 49.1075 50.0477 C 50.9023 52.3047 51.8363 55.2446 51.4843 58.3308 C 51.1322 61.4169 49.5601 64.071 47.3031 65.8658 C 45.0462 67.6606 42.1062 68.5946 39.0201 68.2426 C 35.9339 67.8905 33.2798 66.3184 31.485 64.0614 C 29.6902 61.8045 28.7562 58.8645 29.1082 55.7784 C 29.4603 52.6922 31.0324 50.0381 33.2894 48.2433 C 35.5464 46.4485 38.4863 45.5145 41.5725 45.8665 Z " stroke-width="1.7323943449821624"/>
  <path id="ID0.823922164272517" fill="#B2B2B2" stroke="none" d="M 77.3013 19.5276 C 79.7936 19.8119 81.9106 21.3227 83.3147 23.5351 C 84.7205 25.7477 85.4136 28.6602 85.0615 31.7464 C 84.7095 34.8325 83.3784 37.5141 81.5104 39.3533 C 79.6441 41.1926 77.2412 42.1879 74.7489 41.9036 C 72.2565 41.6193 70.1395 40.1084 68.7354 37.896 C 67.3296 35.6834 66.6366 32.771 66.9886 29.6848 C 67.3406 26.5986 68.6718 23.9171 70.5397 22.0779 C 72.406 20.2385 74.8089 19.2433 77.3013 19.5276 Z " stroke-width="1.7323943449821624"/>
  <path id="ID0.2855191840790212" fill="#B2B2B2" stroke="none" d="M 89.4056 48.9209 C 93.3232 49.3678 96.6927 51.3633 98.9691 54.2279 C 101.2475 57.0911 102.4329 60.8234 101.986 64.7409 C 101.5392 68.6584 99.5437 72.0279 96.679 74.3044 C 93.8159 76.5828 90.0836 77.7681 86.1661 77.3213 C 82.2485 76.8744 78.879 74.8789 76.6026 72.0143 C 74.3242 69.1512 73.1388 65.4188 73.5857 61.5013 C 74.0325 57.5838 76.028 54.2143 78.8927 51.9378 C 81.7558 49.6594 85.4881 48.4741 89.4056 48.9209 Z " stroke-width="1.7323943449821624"/>
  <path id="ID0.5948176933452487" fill="#B2B2B2" stroke="none" d="M 106.0062 28.5843 C 109.4487 28.977 112.4483 30.3932 114.511 32.3652 C 116.5755 34.3373 117.7031 36.8634 117.4053 39.4745 C 117.1074 42.0856 115.4398 44.2929 112.9843 45.7495 C 110.5305 47.2062 107.289 47.9105 103.8465 47.5179 C 100.404 47.1252 97.4044 45.7089 95.3417 43.737 C 93.2772 41.7649 92.1496 39.2387 92.4474 36.6276 C 92.7453 34.0165 94.4129 31.8092 96.8684 30.3527 C 99.3222 28.8959 102.5637 28.1916 106.0062 28.5843 Z " stroke-width="1.7323943449821624"/>
  <path id="ID0.6115419995039701" fill="#B2B2B2" stroke="none" d="M 56.2696 30.1699 C 57.9323 30.3595 59.3889 30.9651 60.3985 31.7899 C 61.4097 32.6167 61.9741 33.661 61.8521 34.7298 C 61.7302 35.7987 60.9452 36.6891 59.7738 37.2669 C 58.6043 37.8431 57.0488 38.1051 55.3861 37.9154 C 53.7234 37.7258 52.2668 37.1202 51.2571 36.2954 C 50.246 35.4687 49.6816 34.4244 49.8035 33.3555 C 49.9254 32.2866 50.7105 31.3962 51.8819 30.8184 C 53.0513 30.2422 54.6069 29.9802 56.2696 30.1699 Z " stroke-width="1.7323943449821624"/>
  <path id="ID0.8126871199347079" fill="#B2B2B2" stroke="none" d="M 63.9641 50.6051 C 64.9142 50.7134 65.6869 51.5827 66.1678 52.9 C 66.6488 54.2172 66.838 55.9824 66.6212 57.8827 C 66.4045 59.7829 65.8226 61.4602 65.0573 62.6353 C 64.2921 63.8104 63.3435 64.4833 62.3934 64.3749 C 61.4433 64.2665 60.6706 63.3973 60.1897 62.08 C 59.7088 60.7628 59.5195 58.9976 59.7363 57.0973 C 59.9531 55.1971 60.5349 53.5198 61.3002 52.3447 C 62.0654 51.1696 63.014 50.4967 63.9641 50.6051 Z " stroke-width="1.7323943449821624"/>
  <path id="ID0.4613746702671051" fill="#B2B2B2" stroke="none" d="M 176.9437 47.7686 C 174.5547 47.7776 172.3829 46.0879 170.8031 43.3497 C 169.225 40.6115 168.2407 36.8247 168.225 32.6427 C 168.2094 28.4607 169.1654 24.6666 170.7229 21.9167 C 172.2822 19.1667 174.4413 17.4609 176.8302 17.452 C 179.2192 17.443 181.391 19.1327 182.9708 21.8709 C 184.5489 24.6091 185.5332 28.3959 185.5489 32.5779 C 185.5645 36.7599 184.6085 40.5539 183.051 43.3039 C 181.4917 46.0539 179.3326 47.7597 176.9437 47.7686 Z " stroke-width="1.7323942984425913"/>
  <path id="ID0.9847204415127635" fill="#B2B2B2" stroke="none" d="M 203.9758 41.9585 C 200.8696 41.9701 198.0498 40.7195 196.0031 38.6881 C 193.9565 36.6567 192.6848 33.8463 192.6732 30.7401 C 192.6615 27.634 193.9122 24.8141 195.9436 22.7675 C 197.975 20.7209 200.7854 19.4491 203.8915 19.4375 C 206.9977 19.4259 209.8175 20.6766 211.8642 22.7079 C 213.9108 24.7393 215.1825 27.5497 215.1941 30.6559 C 215.2057 33.7621 213.9551 36.5819 211.9237 38.6285 C 209.8923 40.6752 207.0819 41.9469 203.9758 41.9585 Z " stroke-width="1.7323942984425913"/>
  <path id="ID0.823922164272517" fill="#B2B2B2" stroke="none" d="M 166.9246 77.069 C 164.4161 77.0784 162.1368 75.8257 160.4834 73.7928 C 158.8283 71.76 157.7991 68.9487 157.7875 65.8425 C 157.7759 62.7364 158.784 59.9174 160.4238 57.8722 C 162.062 55.8271 164.3319 54.5574 166.8404 54.548 C 169.3489 54.5386 171.6282 55.7913 173.2816 57.8241 C 174.9367 59.857 175.9659 62.6683 175.9775 65.7745 C 175.9891 68.8806 174.981 71.6996 173.3411 73.7447 C 171.703 75.7899 169.4331 77.0596 166.9246 77.069 Z " stroke-width="1.7323942984425913"/>
  <path id="ID0.2855191840790212" fill="#B2B2B2" stroke="none" d="M 137.4176 48.1074 C 133.4747 48.1221 129.8948 46.5348 127.2986 43.9563 C 124.7008 41.3795 123.0867 37.8116 123.0719 33.8687 C 123.0572 29.9258 124.6445 26.3459 127.2231 23.7498 C 129.7998 21.1519 133.3677 19.5378 137.3106 19.5231 C 141.2535 19.5083 144.8334 21.0957 147.4296 23.6742 C 150.0274 26.251 151.6415 29.8189 151.6563 33.7618 C 151.671 37.7047 150.0836 41.2846 147.5051 43.8807 C 144.9284 46.4785 141.3605 48.0926 137.4176 48.1074 Z " stroke-width="1.7323942984425913"/>
  <path id="ID0.5948176933452487" fill="#B2B2B2" stroke="none" d="M 134.005 71.4945 C 130.5403 71.5075 127.3955 70.4521 125.1161 68.7352 C 122.8351 67.0182 121.4195 64.6415 121.4096 62.0134 C 121.3998 59.3854 122.7976 56.9981 125.0657 55.2642 C 127.3322 53.5302 130.469 52.4513 133.9338 52.4383 C 137.3985 52.4254 140.5433 53.4808 142.8227 55.1977 C 145.1037 56.9147 146.5193 59.2914 146.5292 61.9195 C 146.539 64.5475 145.1412 66.9348 142.8731 68.6687 C 140.6066 70.4027 137.4698 71.4816 134.005 71.4945 Z " stroke-width="1.7323942984425913"/>
  <path id="ID0.6115419995039701" fill="#B2B2B2" stroke="none" d="M 187.918 12.477 C 186.2445 12.4832 184.7271 12.0523 183.6278 11.3514 C 182.5269 10.6487 181.8441 9.6776 181.8401 8.6018 C 181.8361 7.526 182.5115 6.5498 183.6072 5.8389 C 184.7012 5.1297 186.2154 4.6875 187.8889 4.6813 C 189.5623 4.675 191.0798 5.1059 192.179 5.8069 C 193.28 6.5096 193.9628 7.4806 193.9668 8.5564 C 193.9708 9.6322 193.2953 10.6084 192.1997 11.3193 C 191.1057 12.0285 189.5915 12.4707 187.918 12.477 Z " stroke-width="1.7323942984425913"/>
  <path id="ID0.8126871199347079" fill="#B2B2B2" stroke="none" d="M 159.3147 28.5398 C 158.3585 28.5434 157.4894 27.7705 156.8575 26.5186 C 156.2257 25.2667 155.8312 23.5358 155.824 21.6232 C 155.8169 19.7107 156.1985 17.9769 156.8209 16.7203 C 157.4433 15.4637 158.3066 14.6843 159.2629 14.6807 C 160.2192 14.6772 161.0883 15.45 161.7201 16.7019 C 162.3519 17.9538 162.7464 19.6848 162.7536 21.5973 C 162.7607 23.5099 162.3792 25.2437 161.7567 26.5003 C 161.1343 27.7569 160.271 28.5362 159.3147 28.5398 Z " stroke-width="1.7323942984425913"/>
  <path id="ID0.2121359179727733" fill="#B2B2B2" stroke="none" d="M 272.4808 4.7314 C 269.1382 5.1127 266.2003 6.2564 264.1537 7.7966 C 262.1074 9.3382 260.9536 11.2748 261.1779 13.2404 C 261.4021 15.206 262.9623 16.833 265.3033 17.8742 C 267.6441 18.9139 270.7641 19.3666 274.1067 18.9853 C 277.4492 18.6041 280.3871 17.4603 282.4337 15.9201 C 284.4801 14.3785 285.6338 12.4419 285.4096 10.4763 C 285.1854 8.5107 283.6251 6.8838 281.2842 5.8426 C 278.9433 4.8028 275.8233 4.3501 272.4808 4.7314 Z " stroke-width="1.4346391021797542"/>
  <path id="ID0.9847204415127635" fill="#B2B2B2" stroke="none" d="M 260.3322 28.7161 C 257.7764 29.0076 255.5785 30.3095 254.0922 32.1786 C 252.6059 34.0476 251.8324 36.4822 252.124 39.038 C 252.4155 41.5937 253.7174 43.7916 255.5865 45.2779 C 257.4555 46.7643 259.8902 47.5377 262.4459 47.2462 C 265.0016 46.9547 267.1995 45.6528 268.6858 43.7837 C 270.1722 41.9146 270.9456 39.48 270.6541 36.9243 C 270.3626 34.3685 269.0607 32.1706 267.1916 30.6843 C 265.3226 29.198 262.8879 28.4245 260.3322 28.7161 Z " stroke-width="1.4346391021797542"/>
  <path id="ID0.823922164272517" fill="#B2B2B2" stroke="none" d="M 244.2044 6.015 C 242.1405 6.2505 240.3873 7.5016 239.2245 9.3338 C 238.0603 11.1661 237.4864 13.578 237.7779 16.1337 C 238.0695 18.6895 239.1718 20.9101 240.7187 22.4332 C 242.2642 23.9564 244.2542 24.7806 246.3181 24.5452 C 248.3821 24.3097 250.1353 23.0586 251.298 21.2264 C 252.4622 19.3941 253.0361 16.9822 252.7446 14.4265 C 252.4531 11.8708 251.3507 9.6501 249.8038 8.127 C 248.2583 6.6038 246.2684 5.7796 244.2044 6.015 Z " stroke-width="1.4346391021797542"/>
  <path id="ID0.2855191840790212" fill="#B2B2B2" stroke="none" d="M 227.9695 34.5799 C 224.7253 34.9499 221.935 36.6024 220.0498 38.9747 C 218.163 41.3457 217.1814 44.4366 217.5514 47.6808 C 217.9215 50.925 219.574 53.7153 221.9463 55.6005 C 224.3173 57.4873 227.4081 58.4689 230.6523 58.0989 C 233.8965 57.7288 236.6869 56.0763 238.5721 53.704 C 240.4589 51.333 241.4405 48.2422 241.0705 44.998 C 240.7004 41.7538 239.0479 38.9634 236.6756 37.0782 C 234.3046 35.1914 231.2137 34.2098 227.9695 34.5799 Z " stroke-width="1.4346391021797542"/>
  <path id="ID0.6115419995039701" fill="#B2B2B2" stroke="none" d="M 229.9541 23.8243 C 228.5772 23.9814 227.3709 24.4828 226.5348 25.1659 C 225.6974 25.8505 225.2301 26.7153 225.331 27.6005 C 225.432 28.4857 226.0821 29.223 227.0522 29.7015 C 228.0206 30.1787 229.3088 30.3956 230.6858 30.2386 C 232.0627 30.0815 233.2689 29.58 234.105 28.897 C 234.9424 28.2123 235.4098 27.3475 235.3088 26.4624 C 235.2078 25.5772 234.5577 24.8398 233.5877 24.3614 C 232.6192 23.8842 231.331 23.6672 229.9541 23.8243 Z " stroke-width="1.4346391021797542"/>
  <path id="ID0.8126871199347079" fill="#B2B2B2" stroke="none" d="M 246.1813 45.498 C 245.3945 45.5877 244.7546 46.3076 244.3563 47.3984 C 243.9581 48.4893 243.8014 49.9511 243.9809 51.5247 C 244.1604 53.0984 244.6422 54.4873 245.276 55.4605 C 245.9097 56.4336 246.6952 56.9909 247.482 56.9011 C 248.2688 56.8114 248.9087 56.0915 249.307 55.0006 C 249.7052 53.9098 249.8619 52.448 249.6824 50.8743 C 249.5029 49.3007 249.0211 47.9117 248.3873 46.9386 C 247.7536 45.9655 246.9681 45.4082 246.1813 45.498 Z " stroke-width="1.4346391021797542"/>
  <path id="ID0.2121359179727733" fill="#B2B2B2" stroke="none" d="M 294.5847 22.8142 C 298.6386 22.5511 302.375 23.2808 305.1371 24.6727 C 307.8993 26.0663 309.6853 28.1204 309.84 30.5044 C 309.9947 32.8884 308.4892 35.1561 305.9303 36.895 C 303.3713 38.6322 299.7605 39.8387 295.7065 40.1018 C 291.6526 40.3649 287.9162 39.6351 285.1541 38.2433 C 282.3919 36.8497 280.6059 34.7955 280.4512 32.4116 C 280.2964 30.0276 281.802 27.7599 284.3609 26.021 C 286.9199 24.2838 290.5307 23.0773 294.5847 22.8142 Z " stroke-width="1.7323942897981477"/>
  <path id="ID0.9847204415127635" fill="#B2B2B2" stroke="none" d="M 323.6012 35.1913 C 326.7009 34.9901 329.5918 36.0664 331.7586 37.9691 C 333.9254 39.8718 335.3662 42.5993 335.5673 45.699 C 335.7685 48.7987 334.6923 51.6896 332.7896 53.8564 C 330.8869 56.0232 328.1593 57.464 325.0596 57.6652 C 321.96 57.8663 319.0691 56.7901 316.9023 54.8874 C 314.7355 52.9847 313.2946 50.2571 313.0935 47.1574 C 312.8923 44.0578 313.9686 41.1669 315.8713 39.0001 C 317.774 36.8333 320.5015 35.3924 323.6012 35.1913 Z " stroke-width="1.7323942897981477"/>
  <path id="ID0.823922164272517" fill="#B2B2B2" stroke="none" d="M 340.647 7.4503 C 343.1502 7.2879 345.5018 8.3991 347.2761 10.3273 C 349.0522 12.2554 350.251 14.9986 350.4522 18.0983 C 350.6533 21.1979 349.8191 24.0731 348.3071 26.2146 C 346.7969 28.3559 344.6087 29.7617 342.1054 29.9242 C 339.6022 30.0866 337.2507 28.9754 335.4763 27.0472 C 333.7002 25.1192 332.5014 22.3759 332.3002 19.2762 C 332.0991 16.1766 332.9333 13.3014 334.4453 11.1599 C 335.9556 9.0186 338.1438 7.6128 340.647 7.4503 Z " stroke-width="1.7323942897981477"/>
  <path id="ID0.2855191840790212" fill="#B2B2B2" stroke="none" d="M 366.0607 37.9178 C 369.9953 37.6625 373.6654 39.0284 376.4141 41.4437 C 379.1643 43.8571 380.9931 47.3199 381.2485 51.2546 C 381.5038 55.1892 380.1379 58.8593 377.7226 61.6079 C 375.3092 64.3582 371.8464 66.187 367.9118 66.4423 C 363.9771 66.6977 360.307 65.3318 357.5584 62.9165 C 354.8081 60.5031 352.9793 57.0403 352.724 53.1056 C 352.4686 49.171 353.8346 45.5009 356.2498 42.7522 C 358.6633 40.002 362.126 38.1732 366.0607 37.9178 Z " stroke-width="1.7323942897981477"/>
  <path id="ID0.5948176933452487" fill="#B2B2B2" stroke="none" d="M 364.5462 14.5796 C 368.0037 14.3552 371.207 15.2168 373.5869 16.7914 C 375.9685 18.366 377.5265 20.6519 377.6967 23.2744 C 377.8669 25.8969 376.6174 28.3651 374.4593 30.2342 C 372.3029 32.1033 369.2377 33.3716 365.7802 33.5959 C 362.3227 33.8203 359.1194 32.9588 356.7395 31.3841 C 354.3579 29.8096 352.7999 27.5237 352.6297 24.9011 C 352.4595 22.2786 353.709 19.8105 355.8671 17.9413 C 358.0235 16.0723 361.0886 14.804 364.5462 14.5796 Z " stroke-width="1.7323942897981477"/>
  <path id="ID0.6115419995039701" fill="#B2B2B2" stroke="none" d="M 349.6209 32.0405 C 351.2909 31.9322 352.8318 32.2696 353.9718 32.9022 C 355.1136 33.5364 355.8543 34.464 355.924 35.5376 C 355.9937 36.6111 355.379 37.6267 354.3288 38.4031 C 353.2801 39.1778 351.7957 39.7116 350.1258 39.8199 C 348.4558 39.9283 346.9149 39.5908 345.7749 38.9582 C 344.6331 38.324 343.8924 37.3965 343.8227 36.3229 C 343.753 35.2493 344.3676 34.2338 345.4179 33.4573 C 346.4666 32.6827 347.9509 32.1489 349.6209 32.0405 Z " stroke-width="1.7323942897981477"/>
  <path id="ID0.8126871199347079" fill="#B2B2B2" stroke="none" d="M 319.2575 6.8449 C 320.2117 6.7829 321.1264 7.5013 321.8334 8.7123 C 322.5404 9.9233 323.0399 11.627 323.1637 13.5355 C 323.2876 15.4441 323.0125 17.198 322.4679 18.4902 C 321.9233 19.7824 321.1092 20.613 320.1549 20.6749 C 319.2007 20.7368 318.286 20.0185 317.579 18.8074 C 316.872 17.5964 316.3725 15.8928 316.2487 13.9843 C 316.1248 12.0757 316.3999 10.3218 316.9445 9.0296 C 317.4891 7.7374 318.3032 6.9068 319.2575 6.8449 Z " stroke-width="1.7323942897981477"/>
  <path id="ID0.2121359179727733" fill="#B2B2B2" stroke="none" d="M 460.3355 60.0597 C 456.2731 60.0749 452.5881 59.1185 449.9161 57.5607 C 447.2441 56.0011 445.5868 53.8418 445.5779 51.4528 C 445.5689 49.0639 447.21 46.8922 449.8703 45.3127 C 452.5306 43.7349 456.2083 42.751 460.2707 42.7358 C 464.3331 42.7206 468.0181 43.677 470.6901 45.2348 C 473.3621 46.7944 475.0194 48.9537 475.0284 51.3427 C 475.0373 53.7316 473.3962 55.9033 470.7359 57.4828 C 468.0756 59.0606 464.3979 60.0445 460.3355 60.0597 Z " stroke-width="1.7323942984425913"/>
  <path id="ID0.4613746702671051" fill="#B2B2B2" stroke="none" d="M 446.5937 37.2686 C 444.2047 37.2776 442.0329 35.5879 440.4531 32.8497 C 438.875 30.1115 437.8907 26.3247 437.875 22.1427 C 437.8594 17.9607 438.8154 14.1666 440.3729 11.4167 C 441.9322 8.6667 444.0913 6.9609 446.4802 6.952 C 448.8692 6.943 451.041 8.6327 452.6208 11.3709 C 454.1989 14.1091 455.1832 17.8959 455.1989 22.0779 C 455.2145 26.2599 454.2585 30.0539 452.701 32.8039 C 451.1417 35.5539 448.9826 37.2597 446.5937 37.2686 Z " stroke-width="1.7323942984425913"/>
  <path id="ID0.9847204415127635" fill="#B2B2B2" stroke="none" d="M 470.7258 27.5085 C 467.6196 27.5201 464.7998 26.2695 462.7531 24.2381 C 460.7065 22.2067 459.4348 19.3963 459.4232 16.2901 C 459.4115 13.184 460.6622 10.3641 462.6936 8.3175 C 464.725 6.2709 467.5354 4.9991 470.6415 4.9875 C 473.7477 4.9759 476.5675 6.2266 478.6142 8.2579 C 480.6608 10.2893 481.9325 13.0997 481.9441 16.2059 C 481.9557 19.3121 480.7051 22.1319 478.6737 24.1785 C 476.6423 26.2252 473.8319 27.4969 470.7258 27.5085 Z " stroke-width="1.7323942984425913"/>
  <path id="ID0.823922164272517" fill="#B2B2B2" stroke="none" d="M 430.1246 70.069 C 427.6161 70.0784 425.3368 68.8257 423.6834 66.7928 C 422.0283 64.76 420.9991 61.9487 420.9875 58.8425 C 420.9759 55.7364 421.984 52.9174 423.6238 50.8722 C 425.262 48.8271 427.5319 47.5574 430.0404 47.548 C 432.5489 47.5386 434.8282 48.7913 436.4816 50.8241 C 438.1367 52.857 439.1659 55.6683 439.1775 58.7745 C 439.1891 61.8806 438.181 64.6996 436.5411 66.7447 C 434.903 68.7899 432.6331 70.0596 430.1246 70.069 Z " stroke-width="1.7323942984425913"/>
  <path id="ID0.2855191840790212" fill="#B2B2B2" stroke="none" d="M 406.6176 38.1074 C 402.6747 38.1221 399.0948 36.5348 396.4986 33.9563 C 393.9008 31.3795 392.2867 27.8116 392.2719 23.8687 C 392.2572 19.9258 393.8445 16.3459 396.4231 13.7498 C 398.9998 11.1519 402.5677 9.5378 406.5106 9.5231 C 410.4535 9.5083 414.0334 11.0957 416.6296 13.6742 C 419.2274 16.251 420.8415 19.8189 420.8563 23.7618 C 420.871 27.7047 419.2836 31.2846 416.7051 33.8807 C 414.1284 36.4785 410.5605 38.0926 406.6176 38.1074 Z " stroke-width="1.7323942984425913"/>
  <path id="ID0.5948176933452487" fill="#B2B2B2" stroke="none" d="M 406.705 61.4945 C 403.2403 61.5075 400.0955 60.4521 397.8161 58.7352 C 395.5351 57.0182 394.1195 54.6415 394.1096 52.0134 C 394.0998 49.3854 395.4976 46.9981 397.7657 45.2642 C 400.0322 43.5302 403.169 42.4513 406.6338 42.4383 C 410.0985 42.4254 413.2433 43.4808 415.5227 45.1977 C 417.8037 46.9147 419.2193 49.2914 419.2292 51.9195 C 419.239 54.5475 417.8412 56.9348 415.5731 58.6687 C 413.3066 60.4027 410.1698 61.4816 406.705 61.4945 Z " stroke-width="1.7323942984425913"/>
  <path id="ID0.6115419995039701" fill="#B2B2B2" stroke="none" d="M 422.668 44.977 C 420.9945 44.9832 419.4771 44.5523 418.3778 43.8514 C 417.2769 43.1487 416.5941 42.1776 416.5901 41.1018 C 416.5861 40.026 417.2615 39.0498 418.3572 38.3389 C 419.4512 37.6297 420.9654 37.1875 422.6389 37.1813 C 424.3123 37.175 425.8298 37.6059 426.929 38.3069 C 428.03 39.0096 428.7128 39.9806 428.7168 41.0564 C 428.7208 42.1322 428.0453 43.1084 426.9497 43.8193 C 425.8557 44.5285 424.3415 44.9707 422.668 44.977 Z " stroke-width="1.7323942984425913"/>
  <path id="ID0.8126871199347079" fill="#B2B2B2" stroke="none" d="M 426.9147 22.4398 C 425.9585 22.4434 425.0894 21.6705 424.4575 20.4186 C 423.8257 19.1667 423.4312 17.4358 423.424 15.5232 C 423.4169 13.6107 423.7985 11.8769 424.4209 10.6203 C 425.0433 9.3637 425.9066 8.5843 426.8629 8.5807 C 427.8192 8.5772 428.6883 9.35 429.3201 10.6019 C 429.9519 11.8538 430.3464 13.5848 430.3536 15.4973 C 430.3607 17.4099 429.9792 19.1437 429.3567 20.4003 C 428.7343 21.6569 427.871 22.4362 426.9147 22.4398 Z " stroke-width="1.7323942984425913"/>
  <path id="ID0.7529608877375722" fill="#B1B1B1" stroke="none" d="M 219 5.5 C 220.793 5.5 222.418 6.256 223.595 7.478 C 224.772 8.7 225.5 10.388 225.5 12.25 C 225.5 14.112 224.772 15.8 223.595 17.022 C 222.418 18.244 220.793 19 219 19 C 217.207 19 215.582 18.244 214.405 17.022 C 213.228 15.8 212.5 14.112 212.5 12.25 C 212.5 10.388 213.228 8.7 214.405 7.478 C 215.582 6.256 217.207 5.5 219 5.5 Z " stroke-width="1"/>
  <path id="ID0.29071686742827296" fill="#B1B1B1" stroke="none" d="M 298.75 8 C 300.474 8 302.037 8.56 303.168 9.465 C 304.3 10.371 305 11.621 305 13 C 305 14.379 304.3 15.629 303.168 16.535 C 302.037 17.44 300.474 18 298.75 18 C 297.026 18 295.463 17.44 294.332 16.535 C 293.2 15.629 292.5 14.379 292.5 13 C 292.5 11.621 293.2 10.371 294.332 9.465 C 295.463 8.56 297.026 8 298.75 8 Z " stroke-width="1"/>
  <path id="ID0.15091485995799303" fill="#B1B1B1" stroke="none" d="M 382.25 4 C 383.698 4 385.011 4.644 385.961 5.685 C 386.912 6.726 387.5 8.164 387.5 9.75 C 387.5 11.336 386.912 12.774 385.961 13.815 C 385.011 14.856 383.698 15.5 382.25 15.5 C 380.802 15.5 379.489 14.856 378.539 13.815 C 377.588 12.774 377 11.336 377 9.75 C 377 8.164 377.588 6.726 378.539 5.685 C 379.489 4.644 380.802 4 382.25 4 Z " stroke-width="1"/>
  <path id="ID0.9847204415127635" fill="#B2B2B2" stroke="none" d="M 11.5258 57.8085 C 8.4196 57.8201 5.5998 56.5695 3.5531 54.5381 C 1.5065 52.5067 0.2348 49.6963 0.2232 46.5901 C 0.2115 43.484 1.4622 40.6641 3.4936 38.6175 C 5.525 36.5709 8.3354 35.2991 11.4415 35.2875 C 14.5477 35.2759 17.3675 36.5266 19.4142 38.5579 C 21.4608 40.5893 22.7325 43.3997 22.7441 46.5059 C 22.7557 49.6121 21.5051 52.4319 19.4737 54.4785 C 17.4423 56.5252 14.6319 57.7969 11.5258 57.8085 Z " stroke-width="1.7323942984425913"/>
  <path id="ID0.2121359179727733" fill="#B2B2B2" stroke="none" d="M 492.0355 47.8097 C 487.9731 47.8249 484.2881 46.8685 481.6161 45.3107 C 478.9441 43.7511 477.2868 41.5918 477.2779 39.2028 C 477.2689 36.8139 478.91 34.6422 481.5703 33.0627 C 484.2306 31.4849 487.9083 30.501 491.9707 30.4858 C 496.0331 30.4706 499.7181 31.427 502.3901 32.9848 C 505.0621 34.5444 506.7194 36.7037 506.7284 39.0927 C 506.7373 41.4816 505.0962 43.6533 502.4359 45.2328 C 499.7756 46.8106 496.0979 47.7945 492.0355 47.8097 Z " stroke-width="1.7323942984425913"/>
  <path id="ID0.2855191840790212" fill="#9F9F9F" stroke="none" d="M 283.1195 56.7799 C 279.8753 57.1499 277.085 58.8024 275.1998 61.1747 C 273.313 63.5457 272.3314 66.6366 272.7014 69.8808 C 273.0715 73.125 274.724 75.9153 277.0963 77.8005 C 279.4673 79.6873 282.5581 80.6689 285.8023 80.2989 C 289.0465 79.9288 291.8369 78.2763 293.7221 75.904 C 295.6089 73.533 296.5905 70.4422 296.2205 67.198 C 295.8504 63.9538 294.1979 61.1634 291.8256 59.2782 C 289.4546 57.3914 286.3637 56.4098 283.1195 56.7799 Z " stroke-width="1.4346391021797542"/>
  <path id="ID0.2121359179727733" fill="#9F9F9F" stroke="none" d="M 112.1355 95.1097 C 108.0731 95.1249 104.3881 94.1685 101.7161 92.6107 C 99.0441 91.0511 97.3868 88.8918 97.3779 86.5028 C 97.3689 84.1139 99.01 81.9422 101.6703 80.3627 C 104.3306 78.7849 108.0083 77.801 112.0707 77.7858 C 116.1331 77.7706 119.8181 78.727 122.4901 80.2848 C 125.1621 81.8444 126.8194 84.0037 126.8284 86.3927 C 126.8373 88.7816 125.1962 90.9533 122.5359 92.5328 C 119.8756 94.1106 116.1979 95.0945 112.1355 95.1097 Z " stroke-width="1.7323942984425913"/>
  <path id="ID0.6115419995039701" fill="#9F9F9F" stroke="none" d="M 387.518 76.527 C 385.8445 76.5332 384.3271 76.1023 383.2278 75.4014 C 382.1269 74.6987 381.4441 73.7276 381.4401 72.6518 C 381.4361 71.576 382.1115 70.5998 383.2072 69.8889 C 384.3012 69.1797 385.8154 68.7375 387.4889 68.7313 C 389.1623 68.725 390.6798 69.1559 391.779 69.8569 C 392.88 70.5596 393.5628 71.5306 393.5668 72.6064 C 393.5708 73.6822 392.8953 74.6584 391.7997 75.3693 C 390.7057 76.0785 389.1915 76.5207 387.518 76.527 Z " stroke-width="1.7323942984425913"/>
  <path id="ID0.5948176933452487" fill="#878787" stroke="none" d="M 342.455 98.5445 C 338.9903 98.5575 335.8455 97.5021 333.5661 95.7852 C 331.2851 94.0682 329.8695 91.6915 329.8596 89.0634 C 329.8498 86.4354 331.2476 84.0481 333.5157 82.3142 C 335.7822 80.5802 338.919 79.5013 342.3838 79.4883 C 345.8485 79.4754 348.9933 80.5308 351.2727 82.2477 C 353.5537 83.9647 354.9693 86.3414 354.9792 88.9695 C 354.989 91.5975 353.5912 93.9848 351.3231 95.7187 C 349.0566 97.4527 345.9198 98.5316 342.455 98.5445 Z " stroke-width="1.7323942984425913"/>
  <path id="ID0.5948176933452487" fill="#878787" stroke="none" d="M 210.7985 95.0423 C 208.5162 95.0508 206.4432 93.9914 204.9395 92.2715 C 203.4347 90.5517 202.4992 88.1731 202.4894 85.5451 C 202.4795 82.9171 203.3972 80.5316 204.8892 78.8005 C 206.3799 77.0695 208.4449 75.9946 210.7272 75.9861 C 213.0096 75.9775 215.0825 77.0369 216.5862 78.7568 C 218.091 80.4766 219.0265 82.8552 219.0364 85.4832 C 219.0462 88.1112 218.1285 90.4967 216.6366 92.2278 C 215.1458 93.9588 213.0808 95.0337 210.7985 95.0423 Z " stroke-width="1.466881504168449"/>
  <path id="ID0.5948176933452487" fill="#878787" stroke="none" d="M 43.693 100.2972 C 41.4106 100.3057 39.3396 99.7463 37.8389 98.835 C 36.3371 97.9237 35.4058 96.6613 35.4005 95.2647 C 35.3953 93.8682 36.3172 92.5989 37.8121 91.6763 C 39.3059 90.7538 41.3727 90.179 43.6551 90.1704 C 45.9374 90.1619 48.0085 90.7213 49.5091 91.6326 C 51.0109 92.5439 51.9423 93.8063 51.9475 95.2029 C 51.9528 96.5994 51.0309 97.8687 49.5359 98.7913 C 48.0421 99.7138 45.9753 100.2886 43.693 100.2972 Z " stroke-width="1.036781096365662"/>
  <path id="ID0.5948176933452487" fill="#7C7C7C" stroke="none" d="M 444.4985 112.5423 C 442.2162 112.5508 440.1432 111.4914 438.6395 109.7715 C 437.1347 108.0517 436.1992 105.6731 436.1894 103.0451 C 436.1795 100.4171 437.0972 98.0316 438.5892 96.3005 C 440.0799 94.5695 442.1449 93.4946 444.4272 93.4861 C 446.7096 93.4775 448.7825 94.5369 450.2862 96.2568 C 451.791 97.9766 452.7265 100.3552 452.7364 102.9832 C 452.7462 105.6112 451.8285 107.9967 450.3366 109.7278 C 448.8458 111.4588 446.7808 112.5337 444.4985 112.5423 Z " stroke-width="1.466881504168449"/>
  <path id="ID0.5948176933452487" fill="#7C7C7C" stroke="none" d="M 136.1985 124.3923 C 133.9162 124.4008 131.8432 123.3414 130.3395 121.6215 C 128.8347 119.9017 127.8992 117.5231 127.8894 114.8951 C 127.8795 112.2671 128.7972 109.8816 130.2892 108.1505 C 131.7799 106.4195 133.8449 105.3446 136.1272 105.3361 C 138.4096 105.3275 140.4825 106.3869 141.9862 108.1068 C 143.491 109.8266 144.4265 112.2052 144.4364 114.8332 C 144.4462 117.4612 143.5285 119.8467 142.0366 121.5778 C 140.5458 123.3088 138.4808 124.3837 136.1985 124.3923 Z " stroke-width="1.466881504168449"/>
</svg>