<svg version="1.1" xmlns="http://www.w3.org/2000/svg" xmlns:xlink="http://www.w3.org/1999/xlink" width="42.51238" height="39.90993"><defs><radialGradient cx="243.1834" cy="185.9287" r="22.4478" gradientUnits="userSpaceOnUse" id="color-1"><stop offset="0" stop-color="#fffbc6"/><stop offset="1" stop-color="#e6d380"/></radialGradient><radialGradient cx="256.6006" cy="179.4989" r="15.5074" gradientUnits="userSpaceOnUse" id="color-2"><stop offset="0" stop-color="#fffbc6"/><stop offset="1" stop-color="#e6d380"/></radialGradient><radialGradient cx="254.3006" cy="184.75" r="6.2652" gradientUnits="userSpaceOnUse" id="color-3"><stop offset="0" stop-color="#4f492c"/><stop offset="1" stop-color="#000000"/></radialGradient><radialGradient cx="241.2395" cy="186.1794" r="7.3294" gradientUnits="userSpaceOnUse" id="color-4"><stop offset="0" stop-color="#4f492c"/><stop offset="1" stop-color="#000000"/></radialGradient><radialGradient cx="244.03724" cy="167.9047" r="30.6509" gradientUnits="userSpaceOnUse" id="color-5"><stop offset="0" stop-color="#f55042"/><stop offset="1" stop-color="#c73c36"/></radialGradient><radialGradient cx="240.195" cy="179.0316" r="31.1575" gradientUnits="userSpaceOnUse" id="color-6"><stop offset="0" stop-color="#ffffff"/><stop offset="1" stop-color="#e5e5e5"/></radialGradient><radialGradient cx="239.57187" cy="180" r="25.71524" gradientUnits="userSpaceOnUse" id="color-7"><stop offset="0" stop-color="#6fc9ff" stop-opacity="0"/><stop offset="1" stop-color="#6fc9ff"/></radialGradient><linearGradient x1="219.99381" y1="161.29503" x2="219.99381" y2="198.70497" gradientUnits="userSpaceOnUse" id="color-8"><stop offset="0" stop-color="#6fc9ff"/><stop offset="1" stop-color="#4395ff"/></linearGradient><linearGradient x1="240.20473" y1="164.70786" x2="240.20473" y2="182.18959" gradientUnits="userSpaceOnUse" id="color-9"><stop offset="0" stop-color="#6fc8fe"/><stop offset="1" stop-color="#6fc8fe" stop-opacity="0"/></linearGradient></defs><g transform="translate(-218.74381,-160.04503)"><g data-paper-data="{&quot;isPaintingLayer&quot;:true}" fill="none" fill-rule="nonzero" stroke="none" stroke-width="none" stroke-linecap="none" stroke-linejoin="miter" stroke-miterlimit="10" stroke-dasharray="" stroke-dashoffset="0" font-family="none" font-weight="none" font-size="none" text-anchor="none" style="mix-blend-mode: normal"><path d="M253.3355,178.654c2.421,1.18 5.046,4.418 5.046,7.246c0,2.828 -1.9289,5.39 -5.046,7.246c-3.1163,1.855 -7.9525,2.937 -12.1703,3.004c-4.1856,0.067 -8.3836,-0.491 -12.1382,-2.45c-2.3079,-1.265 -3.975,-4.088 -5.1608,-6.75c-0.6903,-1.557 -1.4161,-4.595 -0.1238,-5.3c4.0147,-2.184 8.7172,-1.434 13.129,-1.95c3.2112,-0.001 6.4407,0.795 9.7023,0.4c2.2715,-0.272 4.4688,-2.565 6.7618,-1.446z" id="ID0.15607240749523044" fill="url(#color-1)" stroke="none" stroke-width="0.91701" stroke-linecap="round"/><path d="M257.995,178.668c1.177,1.493 1.905,3.556 1.905,5.832c0,2.276 -0.728,4.339 -1.905,5.832c-1.177,1.494 -2.802,2.418 -4.595,2.418c-1.793,0 -3.418,-0.924 -4.595,-2.418c-1.177,-1.493 -1.905,-3.556 -1.905,-5.832c0,-2.276 0.728,-4.339 1.905,-5.832c1.177,-1.494 2.802,-2.418 4.595,-2.418c1.793,0 3.418,0.924 4.595,2.418z" id="ID0.7226808085106313" fill="url(#color-2)" stroke="none" stroke-width="1" stroke-linecap="butt"/><path d="M256.488,181.315c0.656,0.906 1.062,2.156 1.062,3.535c0,1.379 -0.406,2.629 -1.062,3.535c-0.657,0.905 -1.563,1.465 -2.563,1.465c-1,0 -1.906,-0.56 -2.563,-1.465c-0.656,-0.906 -1.062,-2.156 -1.062,-3.535c0,-1.379 0.406,-2.629 1.062,-3.535c0.657,-0.905 1.563,-1.465 2.563,-1.465c1,0 1.906,0.56 2.563,1.465z" id="ID0.21181316301226616" fill="url(#color-3)" stroke="none" stroke-width="1" stroke-linecap="butt"/><path d="M244.3835,182.0582c1.2526,1.1864 1.2917,2.8429 1.2809,4.3116c-0.0081,1.1156 -0.5474,2.3864 -1.4319,3.2088c-0.8858,0.8215 -2.1289,1.3652 -3.4556,1.3298c-1.4224,-0.0381 -2.9122,-0.7207 -3.674,-1.5431c-0.9586,-1.0657 -0.964,-2.0387 -1.0786,-3.0862c-0.1092,-1.0212 -0.5933,-2.1904 0.2696,-2.9955c0.9721,-0.9123 2.8678,-1.2045 4.483,-1.4524c1.146,-0.1751 2.8786,-0.4257 3.6066,0.227z" id="ID0.21181316301226616" fill="url(#color-4)" stroke="none" stroke-width="1.1493" stroke-linecap="butt"/><path d="M252.90684,168.0018c3.0832,2.5239 5.6623,6.8333 4.9921,9.857c-0.4914,2.2069 -5.0785,-0.1682 -7.5754,0.5558c-4.5683,1.364 -8.718,4.8372 -13.4387,5.655c-3.9349,0.6814 -7.8912,-0.3335 -11.7268,-1.2567c-0.9595,-0.231 -1.7813,-0.6496 -1.5408,-1.7883c0.9622,-4.5646 1.4501,-9.9943 4.5367,-13.0982c3.3254,-3.2566 8.3277,-4.0184 12.7111,-4.0116c4.2157,0.0068 8.9578,1.5621 12.0418,4.087z" data-paper-data="{&quot;origPos&quot;:null}" id="ID0.26931737549602985" fill="url(#color-5)" stroke="none" stroke-width="0.91299" stroke-linecap="round"/><path d="M235.5,169.95l-5.5,8.7l0.15,3.15l-0.25,-3.25l-4.25,2.4" data-paper-data="{&quot;origPos&quot;:null}" id="ID0.9385899971239269" fill="none" stroke="#bb3228" stroke-width="1" stroke-linecap="round"/><path d="M252,178.6l-4.25,-2.4l-0.25,3.25l0.15,-3.15l-3.1,-6.7" data-paper-data="{&quot;origPos&quot;:null}" id="ID0.9385899971239269" fill="none" stroke="#bb3228" stroke-width="1" stroke-linecap="round"/><path d="M254.6125,180.6c-5.7193,1.625 -10.8157,6.141 -16.5876,6.85c-5.2682,0.646 -10.8941,-0.4 -15.7096,-2.8c-1.2965,-0.644 -0.3835,-3.975 0.9241,-4.35c2.5523,-0.825 5.1925,1.318 7.7624,1.65c2.9368,0.38 6.0685,0.998 8.8713,0.35c3.7861,-0.885 6.9594,-3.866 10.7195,-4.85c2.2826,-0.597 4.6861,-0.41 6.8846,0.2c1.1948,0.316 2.1808,1.4 2.8185,2.45c0.206,0.342 -0.0684,1.055 -0.5083,1.1c-1.7253,0.172 -3.4718,-1.084 -5.1749,-0.6z" id="ID0.5838042767718434" fill="url(#color-6)" stroke="none" stroke-width="0.9628" stroke-linecap="round"/><path d="M249.55,166.45l-5.3,3.2l-8.5,0.5l-5.3,-3.5" data-paper-data="{&quot;origPos&quot;:null}" id="ID0.8476383532397449" fill="none" stroke="#bb3228" stroke-width="1" stroke-linecap="round"/><path d="M219.99381,161.29503h40.01238v37.40993h-40.01238z" data-paper-data="{&quot;origPos&quot;:null}" id="ID0.6911031012423337" fill="url(#color-7)" stroke="url(#color-8)" stroke-width="2.5" stroke-linecap="round"/><path d="M227.5926,182.18959l-2.56408,-6.47126l27.78834,-11.01047l2.56408,6.47126z" data-paper-data="{&quot;origRot&quot;:0}" fill="url(#color-9)" stroke="none" stroke-width="0" stroke-linecap="butt"/></g></g></svg>