<svg version="1.1" xmlns="http://www.w3.org/2000/svg" xmlns:xlink="http://www.w3.org/1999/xlink" width="27.14444" height="66.65119" viewBox="0,0,27.14444,66.65119"><defs><linearGradient x1="11.92602" y1="55.48654" x2="34.7485" y2="55.48654" gradientUnits="userSpaceOnUse" id="color-1"><stop offset="0" stop-color="#d59c00"/><stop offset="1" stop-color="#ffde00"/></linearGradient></defs><g transform="translate(-9.32434,-8.7381)"><g data-paper-data="{&quot;isPaintingLayer&quot;:true}" fill="none" fill-rule="nonzero" stroke="none" stroke-width="3" stroke-linecap="none" stroke-linejoin="miter" stroke-miterlimit="10" stroke-dasharray="" stroke-dashoffset="0" font-family="none" font-weight="none" font-size="none" text-anchor="none" style="mix-blend-mode: normal"><g data-paper-data="{&quot;origPos&quot;:null}"><g data-paper-data="{&quot;origPos&quot;:null}" fill="none" stroke-linecap="round"><path d="M18.49744,25.6667l-6.28571,-10.85714h21.71429l-6,10.85715" data-paper-data="{&quot;origPos&quot;:null}" stroke="#ffffff"/><path d="M18.49745,23.38097l-6.28572,-10.85715h21.71429l-6,10.85715" data-paper-data="{&quot;origPos&quot;:null}" stroke="#ff0000"/><path d="M18.21173,21.09526l-6.28572,-10.85715h21.71429l-6,10.85715" data-paper-data="{&quot;origPos&quot;:null}" stroke="#ffffff"/></g><path d="M13.09268,30.08335c0,-5.66092 4.58908,-10.25 10.25,-10.25c5.66092,0 10.25,4.58908 10.25,10.25c0,5.66092 -4.58908,10.25 -10.25,10.25c-5.66092,0 -10.25,-4.58908 -10.25,-10.25z" data-paper-data="{&quot;origPos&quot;:null}" fill="#ffde00" stroke="#d59c00" stroke-linecap="butt"/></g><g data-paper-data="{&quot;origPos&quot;:null}" stroke="#d59c00"><path d="M33.84254,73.8893h-21.60785" data-paper-data="{&quot;origPos&quot;:null}" fill="none" stroke-linecap="round"/><path d="M23.3473,62.15927v10.49525" data-paper-data="{&quot;origPos&quot;:null}" fill="none" stroke-linecap="round"/><path d="M11.92602,51.98278c0,-6.30226 5.10898,-3.9893 11.41124,-3.9893c6.30226,0 11.41124,-2.31296 11.41124,3.9893c0,6.30226 -5.10898,11.41124 -11.41124,11.41124c-6.30226,0 -11.41124,-5.10898 -11.41124,-11.41124z" data-paper-data="{&quot;origPos&quot;:null}" fill="url(#color-1)" stroke-linecap="butt"/></g></g></g></svg>