<svg version="1.1" xmlns="http://www.w3.org/2000/svg" xmlns:xlink="http://www.w3.org/1999/xlink" width="16.25755" height="19.62475" viewBox="0,0,16.25755,19.62475"><defs><linearGradient x1="239.97603" y1="170.71588" x2="239.97603" y2="189.31238" gradientUnits="userSpaceOnUse" id="color-1"><stop offset="0" stop-color="#ffffff"/><stop offset="1" stop-color="#bbbbbb"/></linearGradient></defs><g transform="translate(-231.87122,-170.18762)"><g data-paper-data="{&quot;isPaintingLayer&quot;:true}" fill="url(#color-1)" fill-rule="nonzero" stroke="#000000" stroke-width="1" stroke-linecap="butt" stroke-linejoin="miter" stroke-miterlimit="10" stroke-dasharray="" stroke-dashoffset="0" font-family="none" font-weight="none" font-size="none" text-anchor="none" style="mix-blend-mode: normal"><path d="M237.60553,170.71588l6.8967,1.2311c1.9854,4.0489 3.0172,6.2196 3.0786,6.5278c-4.495,3.8022 -6.7737,5.7419 -6.8351,5.8499l6.1581,-0.6778l0.0615,0.1229c-0.4777,3.6951 -0.7543,5.5426 -0.8623,5.5426c-6.9432,-0.1695 -11.13,-0.2467 -12.5614,-0.2467c-0.1237,0 -0.3696,-1.3549 -0.7393,-4.0639c0.6928,-0.5391 1.3391,-1.139 1.909,-1.7861l6.2196,-5.6647c-0.5242,-0.7235 -0.893,-1.2012 -1.109,-1.4163c-1.0617,1.2161 -2.0012,2.2321 -2.832,3.0171c-2.6325,-2.0169 -4.1718,-3.2173 -4.6187,-3.6327v-0.1238c0.2159,-0.1379 1.8317,-1.585 4.8647,-4.3713c0,-0.0315 0.1229,-0.1387 0.3696,-0.3081z" data-paper-data="{&quot;origPos&quot;:null}" id="path4540"/></g></g></svg>