<svg version="1.1" xmlns="http://www.w3.org/2000/svg" xmlns:xlink="http://www.w3.org/1999/xlink" width="757.45537" height="217.54028" viewBox="0,0,757.45537,217.54028"><defs><linearGradient x1="27.4835" y1="171.3966" x2="27.4835" y2="361.4066" gradientUnits="userSpaceOnUse" id="color-1"><stop offset="0" stop-color="#ffffff"/><stop offset="1" stop-color="#e7e7e7"/></linearGradient><linearGradient x1="28.7564" y1="144.98022" x2="28.24362" y2="185.96732" gradientUnits="userSpaceOnUse" id="color-2"><stop offset="0" stop-color="#74f08c"/><stop offset="1" stop-color="#51aa63"/></linearGradient></defs><g transform="translate(66.07353,-144.86632)"><g data-paper-data="{&quot;isPaintingLayer&quot;:true}" fill-rule="nonzero" stroke-linejoin="miter" stroke-miterlimit="10" stroke-dasharray="" stroke-dashoffset="0" style="mix-blend-mode: normal"><path d="M384,203h279l27,91l-303,-30z" id="ID0.16507360059767962" fill="#cc7700" stroke="#663b00" stroke-width="2" stroke-linecap="round"/><g id="ID0.6895080511458218"><g id="ID0.11192612908780575" stroke="none"><path d="M439.7721,281.4418c4.0604,4.3246 5.9832,9.892 5.8098,15.3934c-0.1733,5.5014 -2.7589,11.1744 -6.7675,14.9971c-4.5937,4.3815 -11.3636,8.0026 -18.323,8.9732c-5.8216,0.2686 -12.8941,-1.0345 -17.513,-5.5041c-4.0347,-3.7698 -4.2167,-10.4752 -3.0215,-16.3667c1.2394,-6.7328 4.2113,-13.4406 9.4247,-18.4507c3.9485,-3.8005 9.892,-5.9832 15.3934,-5.8098c5.5014,0.1734 10.9367,2.443 14.9971,6.7676z" id="ID0.47388385934755206" fill="#000000" stroke-width="1" stroke-linecap="round"/><path d="M413.5101,304.6903c3.8715,4.1235 6.6446,8.5497 7.9964,12.3708c1.3525,3.8204 1.2844,7.0351 -0.5258,8.7346c-1.8102,1.6996 -5.0227,1.5652 -8.7504,-0.0252c-3.7284,-1.5897 -7.9712,-4.636 -11.8428,-8.7595c-3.8715,-4.1235 -6.6446,-8.5498 -7.9964,-12.3709c-1.3525,-3.8204 -1.2844,-7.035 0.5258,-8.7346c1.8102,-1.6995 5.0227,-1.5651 8.7504,0.0253c3.7284,1.5897 7.9712,4.636 11.8428,8.7595z" id="ID0.504209709353745" fill="#252525" stroke-width="0.95659" stroke-linecap="butt"/></g><path d="M416,258h17v27h-17z" id="ID0.8161131460219622" fill="#b2b2b2" stroke="#666666" stroke-width="2" stroke-linecap="butt"/></g><g id="ID0.6895080511458218"><g id="ID0.11192612908780575" stroke="none"><path d="M616.9221,296.9418c4.0604,4.3246 5.9832,9.892 5.8098,15.3934c-0.1733,5.5014 -2.7589,11.1744 -6.7675,14.9971c-4.5937,4.3815 -11.3636,8.0026 -18.323,8.9732c-5.8216,0.2686 -12.8941,-1.0345 -17.513,-5.5041c-4.0347,-3.7698 -4.2167,-10.4752 -3.0215,-16.3667c1.2394,-6.7328 4.2113,-13.4406 9.4247,-18.4507c3.9485,-3.8005 9.892,-5.9832 15.3934,-5.8098c5.5014,0.1734 10.9367,2.443 14.9971,6.7676z" id="ID0.47388385934755206" fill="#000000" stroke-width="1" stroke-linecap="round"/><path d="M590.6601,320.1903c3.8715,4.1235 6.6446,8.5497 7.9964,12.3708c1.3525,3.8204 1.2844,7.0351 -0.5258,8.7346c-1.8102,1.6996 -5.0227,1.5652 -8.7504,-0.0252c-3.7284,-1.5897 -7.9712,-4.636 -11.8428,-8.7595c-3.8715,-4.1235 -6.6446,-8.5498 -7.9964,-12.3709c-1.3525,-3.8204 -1.2844,-7.035 0.5258,-8.7346c1.8102,-1.6995 5.0227,-1.5651 8.7504,0.0253c3.7284,1.5897 7.9712,4.636 11.8428,8.7595z" id="ID0.504209709353745" fill="#252525" stroke-width="0.95659" stroke-linecap="butt"/></g><path d="M593.15,273.5h17v27h-17z" id="ID0.8161131460219622" fill="#b2b2b2" stroke="#666666" stroke-width="2" stroke-linecap="butt"/></g><path d="M-53.29179,171.3966h161.5506v190.01h-161.5506z" data-paper-data="{&quot;origPos&quot;:null}" id="ID0.7496546297334135" fill="url(#color-1)" stroke="#cccccc" stroke-width="2" stroke-linecap="butt"/><path d="M73.00001,360.86438l6,-24.00431l-2,-14.6693l-5,-9.33501l-1,-12.00216l9,-36.00647l1,-16.00287l-2,-13.33573l-4,-8.00144l-2,-13.33573l9,-41.34075" data-paper-data="{&quot;origPos&quot;:null}" fill="none" stroke="#cccccc" stroke-width="3.0381" stroke-linecap="round"/><path d="M37.00001,360.86438l6,-24.00431l-2,-14.6693l-5,-9.33501l-1,-12.00216l9,-36.00647l1,-16.00287l-2,-13.33573l-4,-8.00144l-2,-13.33573l9,-41.34075" data-paper-data="{&quot;origPos&quot;:null}" fill="none" stroke="#cccccc" stroke-width="3.0381" stroke-linecap="round"/><path d="M1.00001,359.53081l6,-24.00431l-2,-14.6693l-5,-9.33501l-1,-12.00216l9,-36.00647l1,-16.00287l-2,-13.33573l-4,-8.00144l-2,-13.33573l9,-41.34075" data-paper-data="{&quot;origPos&quot;:null}" fill="none" stroke="#cccccc" stroke-width="3.0381" stroke-linecap="round"/><path d="M-32.99999,360.86438l6,-24.00431l-2,-14.6693l-5,-9.33501l-1,-12.00216l9,-36.00647l1,-16.00287l-2,-13.33573l-4,-8.00144l-2,-13.33573l9,-41.34075" data-paper-data="{&quot;origPos&quot;:null}" fill="none" stroke="#cccccc" stroke-width="3.0381" stroke-linecap="round"/><path d="M-59.76197,145.86696l167.01191,0.14451l5.97386,2.12818l8.80697,15.48839l-0.07692,6.14807l-4.07659,6.09551l-6.03797,2.99521l-7.99935,-0.10509l-5.96104,-3.15285l-11.12729,10.10227l-7.01224,0.93272l-7.99935,-0.10509l-4.93549,-5.18908l-11.05038,3.95421l-7.9737,-2.15445l-6.90968,-7.2647l-10.05046,3.96734l-8.01216,0.91958l-9.99918,-0.13137l-4.89703,-8.2631l-4.11505,9.16955l-9.05053,3.98048l-6.99943,-0.09196l-7.90961,-7.27784l-5.05086,4.03302l-9.99918,-0.13137l-6.93532,-5.21535l-5.0765,6.08238l-8.98644,-1.14291l-8.85825,-11.38968l0.08974,-7.17274z" data-paper-data="{&quot;origPos&quot;:null,&quot;origRot&quot;:0}" fill="url(#color-2)" stroke="#006622" stroke-width="2" stroke-linecap="round"/></g></g></svg>