<svg version="1.1" xmlns="http://www.w3.org/2000/svg" xmlns:xlink="http://www.w3.org/1999/xlink" width="441.55828" height="69.66968" viewBox="0,0,441.55828,69.66968"><defs><linearGradient x1="24.5327" y1="284.2076" x2="24.5327" y2="341.819" gradientUnits="userSpaceOnUse" id="color-1"><stop offset="0" stop-color="#ffffff"/><stop offset="1" stop-color="#ffffff"/></linearGradient><radialGradient cx="433.55778" cy="324.91029" r="18.72682" gradientUnits="userSpaceOnUse" id="color-2"><stop offset="0" stop-color="#ffff00"/><stop offset="1" stop-color="#ff9400"/></radialGradient><radialGradient cx="437.13623" cy="326.02495" r="12.81669" gradientUnits="userSpaceOnUse" id="color-3"><stop offset="0" stop-color="#bda501"/><stop offset="1" stop-color="#c07801"/></radialGradient></defs><g transform="translate(-18.50356,-278.17846)"><g data-paper-data="{&quot;isPaintingLayer&quot;:true}" fill="none" fill-rule="nonzero" stroke="none" stroke-width="none" stroke-linecap="butt" stroke-linejoin="miter" stroke-miterlimit="10" stroke-dasharray="" stroke-dashoffset="0" font-family="none" font-weight="none" font-size="none" text-anchor="none" style="mix-blend-mode: normal"><path d="M24.5327,284.2076h429.5v57.6114h-429.5z" data-paper-data="{&quot;origPos&quot;:null}" id="ID0.3184669064357877" fill="#ffffff" stroke="url(#color-1)" stroke-width="12.05828"/><text transform="translate(25.78827,322.12447) scale(0.7218,0.72179)" font-size="22" xml:space="preserve" data-paper-data="{&quot;origPos&quot;:null}" id="ID0.08681221166625619" fill="#2492d1" fill-rule="nonzero" stroke="none" stroke-width="1" stroke-linecap="butt" stroke-linejoin="miter" stroke-miterlimit="10" stroke-dasharray="" stroke-dashoffset="0" font-family="Sans Serif" font-weight="400" text-anchor="start" style="mix-blend-mode: normal"><tspan x="0" dy="0">Switch to Waluigi.</tspan></text><g data-paper-data="{&quot;origPos&quot;:null}" id="text124" fill="#2392d1" stroke="none" stroke-width="0.26458"><path d="M32.4399,286.26948l0.08509,0.15802l0.63222,9.2399h0.07294l3.31907,-3.47712c1.95335,2.63419 2.95433,3.95127 3.00297,3.95127c0.84294,-4.12555 1.36977,-6.60168 1.58051,-7.42841c3.58249,0.68894 5.37373,1.11041 5.37373,1.26441c-2.15597,6.84888 -3.39202,10.72314 -3.70812,11.62283c-0.76189,0.04862 -2.44776,0.20669 -5.05762,0.47416c-1.15904,-2.77198 -1.73857,-4.19442 -1.73857,-4.26738c-0.09724,0.00784 -0.70514,1.21957 -1.82368,3.63517h-0.07293c-3.47713,-0.23505 -5.2157,-0.44577 -5.2157,-0.6322c-1.95335,-8.61582 -2.93002,-13.04123 -2.93002,-13.27628v-0.15802c0,-0.1621 2.16003,-0.53088 6.4801,-1.10635z" id="path307"/><path d="M52.57316,286.30594c4.49837,0.64842 6.97856,1.02935 7.44054,1.14283c0,0.06484 1.5481,4.70506 4.64428,13.92065c-0.32422,0.12155 -2.19246,0.3566 -5.60473,0.70515c-0.23505,-0.7943 -0.49845,-2.02224 -0.79024,-3.6838c-2.91788,0.26746 -4.37682,0.50251 -4.37682,0.70514l-0.79024,2.80844h-0.08509c-3.4447,-0.6322 -5.16706,-1.01314 -5.16706,-1.14283c2.74766,-8.59149 4.32411,-13.41002 4.72938,-14.45559zM54.93176,294.71911h2.63825l-0.97264,-3.85401c-0.75378,0 -1.13065,0.14588 -1.13065,0.43767c-0.12155,0.59168 -0.29987,1.73047 -0.53496,3.41634z" id="path309"/><path d="M75.95254,286.25732c3.50954,0.42146 5.33728,0.68488 5.48316,0.79024v0.08509l-0.6322,14.6258l-0.17018,0.07293c-0.84294,0 -2.24513,0.08105 -4.20657,0.24315c-0.10534,-0.3161 -0.15802,-1.00504 -0.15802,-2.06682v-1.75072l-0.08509,-0.47414c0,-0.05672 0.02837,-0.08509 0.08509,-0.08509l-0.08509,-0.54709v-1.43462c-1.41841,0 -2.8206,0.05268 -4.20658,0.15802l0.3161,5.4102c-0.41337,0.10534 -1.84393,0.36876 -4.29171,0.79026c-0.12155,0 -0.5187,-3.01918 -1.19145,-9.05753c-0.05672,-0.13779 -0.34851,-2.33834 -0.87535,-6.60168c2.45586,0.05672 4.25926,0.08509 5.41021,0.08509c0.12155,0 0.25123,1.90472 0.38903,5.71415h4.37682v-0.79026c0,-0.19451 -0.02837,-0.43361 -0.08509,-0.71731c0,-0.04862 0.02837,-0.07294 0.08509,-0.07294l-0.08509,-0.40121v-1.82367c0,-0.45389 -0.02431,-1.17118 -0.07293,-2.15191z" id="path311"/><path d="M90.51755,285.05369l4.778,0.75378c-0.59977,2.29376 -0.99286,3.44065 -1.17929,3.44065c-2.5126,-0.1702 -3.76891,-0.33635 -3.76891,-0.49845v-3.52576c0.02431,-0.11346 0.08103,-0.17017 0.17018,-0.17017zM89.1802,290.84079h0.07294c3.69597,0.67273 5.54395,1.06582 5.54395,1.1793c-1.06178,6.01404 -1.70615,9.36554 -1.93309,10.05448h-3.85401c-0.11346,0 -0.17018,-0.05672 -0.17018,-0.17018z" id="path313"/><path d="M105.5081,289.92896c2.33429,1.49136 3.623,2.35051 3.86617,2.57745c-0.84294,1.87229 -1.3252,2.80844 -1.44678,2.80844l-4.42543,-2.5653h-0.15802c0,0.08103 -0.19047,0.53492 -0.57142,1.36167c4.07691,2.19651 6.11536,3.32313 6.11536,3.37987c-1.14283,2.64229 -1.78719,4.03638 -1.93307,4.18227l-6.91778,0.40121c-2.69093,-1.78315 -4.13771,-2.72333 -4.34033,-2.8206v-0.07293c0,-0.20262 0.40121,-1.11446 1.20363,-2.73549l5.39805,2.80844l0.40121,-1.60484c-3.33934,-1.49946 -5.32512,-2.43561 -5.95732,-2.80844v-0.17018c0,-0.308 0.64435,-1.67373 1.93309,-4.09718z" id="path315"/><path d="M133.83569,286.25732l0.07294,0.15802c-0.21074,3.09618 -0.36878,4.64427 -0.47416,4.64427h-0.07293c-3.34744,-0.26748 -5.21162,-0.42552 -5.59256,-0.47416v10.78394c0,0.19452 -0.76189,0.32422 -2.28566,0.38906c0,0.05672 -0.8632,0.1621 -2.58961,0.3161l-0.08509,-0.15802c0.37284,-6.43552 0.61192,-10.23685 0.71731,-11.40399c-1.28062,0.20262 -3.16913,0.46199 -5.66553,0.77809c-0.73758,-2.75576 -1.10636,-4.17011 -1.10636,-4.24306c0,-0.10534 5.6939,-0.36876 17.08167,-0.79024z" id="path317"/><path d="M140.58326,286.25732c0.04862,0.07294 0.27558,2.29376 0.68085,6.66245c3.1286,-0.95642 4.79422,-1.43462 4.99684,-1.43462l3.10023,2.11544c-0.50253,4.61996 -0.83079,7.31899 -0.98479,8.09707l-4.30384,0.14587c0,-0.04862 -0.02837,-0.07293 -0.08509,-0.07293l0.08509,-0.30395c0,-0.65652 0.09726,-2.65039 0.29177,-5.98161c-1.18335,-0.04862 -2.06276,-0.07293 -2.63823,-0.07293h-0.30395c0.34853,3.70406 0.52278,5.72225 0.52278,6.05456l-4.085,0.60789c-0.154,-0.51873 -1.06178,-5.36156 -2.72336,-14.52853c0,-0.25936 0.6322,-0.46201 1.89663,-0.60789c1.59672,-0.45389 2.78007,-0.68082 3.55006,-0.68082z" id="path319"/><path d="M152.18178,285.05369l4.778,0.75378c-0.59979,2.29376 -0.99289,3.44065 -1.17932,3.44065c-2.5126,-0.1702 -3.76891,-0.33635 -3.76891,-0.49845v-3.52576c0.02431,-0.11346 0.08103,-0.17017 0.17018,-0.17017zM150.84443,290.84079h0.07294c3.69597,0.67273 5.54395,1.06582 5.54395,1.1793c-1.06178,6.01404 -1.70614,9.36554 -1.93309,10.05448h-3.85401c-0.11346,0 -0.17018,-0.05672 -0.17018,-0.17018z" id="path321"/><path d="M167.1723,289.92896c2.3343,1.49136 3.62302,2.35051 3.86617,2.57745c-0.84294,1.87229 -1.3252,2.80844 -1.44678,2.80844l-4.42542,-2.5653h-0.15802c0,0.08103 -0.19046,0.53492 -0.5714,1.36167c4.07691,2.19651 6.11536,3.32313 6.11536,3.37987c-1.14283,2.64229 -1.78721,4.03638 -1.93309,4.18227l-6.91778,0.40121c-2.69093,-1.78315 -4.1377,-2.72333 -4.34032,-2.8206v-0.07293c0,-0.20262 0.40121,-1.11446 1.20362,-2.73549l5.39805,2.80844l0.40121,-1.60484c-3.33933,-1.49946 -5.3251,-2.43561 -5.95732,-2.80844v-0.17018c0,-0.308 0.64435,-1.67373 1.93309,-4.09718z" id="path323"/><path d="M181.20237,286.25732c0.21074,0.37284 1.04557,2.09517 2.5045,5.16704c-2.04251,1.63725 -3.11645,2.54098 -3.22181,2.7112v0.15802c0,0.24317 -0.03646,1.36978 -0.1094,3.37987c-0.92399,0.27558 -2.01414,0.51468 -3.27045,0.71731v-0.04862l-0.81457,-3.95127c0.02431,0 0.87535,-1.10637 2.55314,-3.31908l-1.1793,-1.22793c-1.35357,1.94525 -2.08709,2.91786 -2.20055,2.91786c-2.06682,-0.88345 -3.14076,-1.37786 -3.22183,-1.48324c1.12664,-2.52883 1.79127,-3.94724 1.99389,-4.25522c3.67164,-0.44577 5.99379,-0.7011 6.9664,-0.76593zM180.37565,298.53666l0.06078,0.1094c-0.04052,1.17526 -0.06078,2.09519 -0.06078,2.75982v0.1094c0,0.09724 -0.90372,0.28365 -2.71118,0.55924c-0.07294,0 -0.22694,-0.97261 -0.46201,-2.91786c0.3161,-0.10534 1.37385,-0.31202 3.17319,-0.62005z" id="path325"/></g><g stroke="none"><text transform="translate(283,338.98128) scale(0.60677,0.60677)" font-size="40" xml:space="preserve" data-paper-data="{&quot;origPos&quot;:null}" fill="#2392d1" fill-rule="nonzero" stroke="none" stroke-width="1" stroke-linecap="butt" stroke-linejoin="miter" stroke-miterlimit="10" stroke-dasharray="" stroke-dashoffset="0" font-family="Sans Serif" font-weight="normal" text-anchor="start" style="mix-blend-mode: normal"><tspan x="0" dy="0">Reward: +15</tspan></text><path d="M438.22633,321.71811c2.42757,0 4.62707,0.98611 6.21986,2.5789c1.5928,1.59272 2.57884,3.79221 2.57884,6.21979c0,2.4275 -0.98603,4.62709 -2.57884,6.21981c-1.5928,1.5928 -3.79229,2.5789 -6.21986,2.5789c-2.4275,0 -4.62699,-0.98611 -6.2198,-2.5789c-1.5928,-1.59272 -2.5789,-3.79231 -2.5789,-6.21981c0,-2.42757 0.98611,-4.62706 2.5789,-6.21979c1.5928,-1.5928 3.7923,-2.5789 6.2198,-2.5789z" data-paper-data="{&quot;origPos&quot;:null}" id="ID0.7142658131197095" fill="url(#color-2)" stroke-width="0.48028"/><path d="M436.38196,323.73549h3.47092v13.31086h-3.47092z" data-paper-data="{&quot;origPos&quot;:null}" id="ID0.06001657713204622" fill="url(#color-3)" stroke-width="0.59798"/></g></g></g></svg>