<svg version="1.1" xmlns="http://www.w3.org/2000/svg" xmlns:xlink="http://www.w3.org/1999/xlink" width="437" height="90.79587" viewBox="0,0,437,90.79587"><defs><linearGradient x1="239.96075" y1="135.56279" x2="239.96075" y2="224.35867" gradientUnits="userSpaceOnUse" id="color-1"><stop offset="0" stop-color="#ffffff"/><stop offset="1" stop-color="#d8d8d8"/></linearGradient><linearGradient x1="239.96075" y1="135.5628" x2="239.96075" y2="224.35867" gradientUnits="userSpaceOnUse" id="color-2"><stop offset="0" stop-color="#343434"/><stop offset="1" stop-color="#090909"/></linearGradient><radialGradient cx="443.76725" cy="206.50539" r="17.9081" gradientUnits="userSpaceOnUse" id="color-3"><stop offset="0" stop-color="#ffffff"/><stop offset="1" stop-color="#e5e5e5"/></radialGradient></defs><g transform="translate(-21.46075,-134.5628)"><g data-paper-data="{&quot;isPaintingLayer&quot;:true}" fill-rule="nonzero" stroke-linejoin="miter" stroke-miterlimit="10" stroke-dasharray="" stroke-dashoffset="0" style="mix-blend-mode: normal"><path d="M22.46075,224.35867v-88.79587h435v88.79587z" data-paper-data="{&quot;origPos&quot;:null}" fill="url(#color-1)" stroke="url(#color-2)" stroke-width="2" stroke-linecap="butt"/><g data-paper-data="{&quot;origPos&quot;:null}"><path d="M444.26655,202.0594c2.5136,0 4.7909,1.0212 6.4406,2.6702c1.6489,1.6496 2.6702,3.9269 2.6702,6.4405c0,2.5136 -1.0213,4.791 -2.6702,6.4406c-1.6497,1.649 -3.927,2.6702 -6.4406,2.6702c-2.5136,0 -4.7909,-1.0212 -6.4406,-2.6702c-1.6489,-1.6496 -2.6701,-3.927 -2.6701,-6.4406c0,-2.5136 1.0212,-4.7909 2.6701,-6.4405c1.6497,-1.649 3.927,-2.6702 6.4406,-2.6702z" fill="url(#color-3)" stroke="#000000" stroke-width="2.0785" stroke-linecap="butt"/><path d="M441.23415,206.50959l5.6119,0.4503l1.7321,3.187l-3.6374,2.9446l3.3603,-0.5197l0.7967,3.4642l-7.4479,-0.0693l-1.9053,-2.4249l4.6766,-3.3256l-4.5727,-0.3464z" fill="#000000" stroke="none" stroke-width="0.69283" stroke-linecap="round"/></g><path d="M36.15223,148.34897c2.45739,0.54879 3.82327,0.86283 4.09766,0.94209v0.06403c-0.08537,2.20128 -0.1494,3.4818 -0.19207,3.84156c0.14024,0 0.77137,0.14635 1.89334,0.43904c1.00613,-3.10375 1.55187,-4.65562 1.63724,-4.65562c1.68297,0.75612 2.75312,1.25917 3.21045,1.50918v0.06401c-1.84761,4.29889 -2.89641,6.6709 -3.14642,7.11604c-0.46343,0.38416 -2.07932,1.85372 -4.84768,4.40866h-0.06403l-5.10379,-2.51532c0.46953,-0.80489 1.03661,-1.7287 1.70126,-2.77141c0.03049,0 0.82929,0.5244 2.39641,1.57321h0.06403c0.5244,-0.42685 1.15247,-1.03662 1.88419,-1.82931c0,-0.03658 -1.19516,-1.2104 -3.58546,-3.52143v-4.53672z" data-paper-data="{&quot;origPos&quot;:null}" fill="#000000" stroke="none" stroke-width="0.26458" stroke-linecap="butt"/><path d="M51.4819,151.12038c2.31713,0.62197 3.54582,1.00004 3.68606,1.13419c1.27442,1.80493 1.99091,2.84459 2.14945,3.11898c-0.8232,2.60983 -1.29577,3.91474 -1.41772,3.91474c-2.74397,0.64026 -4.17999,0.96039 -4.30804,0.96039c-2.26835,-1.3232 -3.47571,-2.06103 -3.62204,-2.21347c-0.07926,-2.46348 -0.1189,-3.82327 -0.1189,-4.07937c-0.03658,-0.07316 -0.05488,-0.12804 -0.05488,-0.16464c2.34152,-1.78055 3.55192,-2.67081 3.6312,-2.67081zM51.30812,154.46803c-0.03658,0.24392 -0.09146,1.13113 -0.16463,2.66165l2.03968,0.45733c0.48782,-1.52443 0.73172,-2.33847 0.73172,-2.44213c-1.62199,-0.48782 -2.49092,-0.73174 -2.60677,-0.73174z" data-paper-data="{&quot;origPos&quot;:null}" fill="#000000" stroke="none" stroke-width="0.26458" stroke-linecap="butt"/><path d="M63.08891,151.11123l0.06403,0.11889l-1.23479,6.54895h0.06403l3.14641,-0.92381v-3.70437c0.0122,-0.08535 0.05183,-0.12803 0.1189,-0.12803c2.36592,0.16463 3.68303,0.24696 3.95133,0.24696c0,0.04267 0.02134,0.06401 0.06403,0.06401c0,1.04271 -0.32928,3.20436 -0.98784,6.48493c0,0.18902 -0.94515,0.33231 -2.83543,0.42988c-0.09757,-0.11586 -0.17989,-0.36282 -0.24695,-0.74086c-2.42079,0.49391 -3.80193,0.74086 -4.1434,0.74086c-1.93297,-1.43906 -2.89946,-2.17992 -2.89946,-2.22261c0.32928,-4.32328 0.5366,-6.56725 0.62197,-6.73188h0.05488c1.54272,-0.04267 2.96349,-0.10366 4.26231,-0.18294z" data-paper-data="{&quot;origPos&quot;:null}" fill="#000000" stroke="none" stroke-width="0.26458" stroke-linecap="butt"/><path d="M78.42772,151.12038c2.75008,0.5183 4.18914,0.81405 4.31718,0.88723v0.10974c-0.59148,1.67078 -0.88721,2.53665 -0.88721,2.59762h-0.05488c-0.15244,0 -0.89026,-0.23781 -2.21346,-0.71343c-0.73783,1.23784 -1.10674,1.89945 -1.10674,1.98482l1.82931,1.77443c1.41466,-1.3293 2.1342,-1.99395 2.1586,-1.99395c1.10368,1.44516 1.65552,2.25615 1.65552,2.43299c-0.60368,0.34758 -1.65552,1.03052 -3.15556,2.04883c-2.90252,-0.62806 -4.46963,-0.97868 -4.70134,-1.05185l-1.436,-4.64647z" data-paper-data="{&quot;origPos&quot;:null}" fill="#000000" stroke="none" stroke-width="0.26458" stroke-linecap="butt"/><path d="M86.43098,151.11123c3.62204,0.50002 5.43308,0.80795 5.43308,0.92381c1.42686,1.22564 2.14029,1.88116 2.14029,1.96651c-0.57928,1.81102 -0.90855,2.91166 -0.98783,3.30192c0.57928,1.28661 0.90855,2.05492 0.98783,2.30493c0,0.07316 -0.94515,0.26828 -2.83544,0.58539c-0.02439,-0.10366 -0.19818,-0.33538 -0.52136,-0.69514c-2.60983,0.5 -4.01534,0.75001 -4.21658,0.75001l-1.39028,-3.75925l3.0641,-1.61894c0.49391,0.07925 1.26528,0.11888 2.31409,0.11888c0,-0.13415 0.01829,-0.53965 0.05488,-1.2165c-0.17683,0 -1.75614,0.11586 -4.73794,0.34758l-0.05488,-0.11888c0.41464,-1.92688 0.66465,-2.89032 0.75002,-2.89032zM88.33347,156.48942c0,0.06707 0.19513,0.7805 0.58537,2.14029h0.05488c0.76832,-0.5 1.15247,-0.82927 1.15247,-0.98782l0.11892,-0.97869c-0.14634,0 -0.78356,-0.05793 -1.91163,-0.17379z" data-paper-data="{&quot;origPos&quot;:null}" fill="#000000" stroke="none" stroke-width="0.26458" stroke-linecap="butt"/><path d="M103.00458,151.11123l3.04581,2.09457c-0.21341,3.47571 -0.36281,5.50625 -0.44818,6.09162c-0.35367,0.04267 -1.42992,0.1067 -3.22874,0.19209l-0.06403,-0.12803l-0.32013,-4.88428l-0.12806,-0.06401c-1.16467,0.25001 -1.96651,0.43904 -2.40555,0.5671c0.12195,2.07932 0.18292,3.58241 0.18292,4.50927c-1.81713,0.50611 -2.81105,0.75916 -2.98178,0.75916c-1.18296,-5.20745 -1.77444,-7.95752 -1.77444,-8.2502c2.57325,-0.33538 3.96962,-0.50307 4.18914,-0.50307v0.06402c0.04269,0.03049 0.10672,0.66463 0.19207,1.90248c2.35981,-1.56712 3.6068,-2.35067 3.74095,-2.35067z" data-paper-data="{&quot;origPos&quot;:null}" fill="#000000" stroke="none" stroke-width="0.26458" stroke-linecap="butt"/><path d="M119.72453,151.11123l3.04581,2.09457c-0.21341,3.47571 -0.36281,5.50625 -0.44818,6.09162c-0.35367,0.04267 -1.42992,0.1067 -3.22874,0.19209l-0.06403,-0.12803l-0.32013,-4.88428l-0.12806,-0.06401c-1.16467,0.25001 -1.96651,0.43904 -2.40555,0.5671c0.12195,2.07932 0.18292,3.58241 0.18292,4.50927c-1.81713,0.50611 -2.81105,0.75916 -2.98178,0.75916c-1.18296,-5.20745 -1.77444,-7.95752 -1.77444,-8.2502c2.57325,-0.33538 3.96962,-0.50307 4.18914,-0.50307v0.06402c0.04269,0.03049 0.10671,0.66463 0.19207,1.90248c2.35981,-1.56712 3.6068,-2.35067 3.74095,-2.35067z" data-paper-data="{&quot;origPos&quot;:null}" fill="#000000" stroke="none" stroke-width="0.26458" stroke-linecap="butt"/><path d="M127.36192,151.12038c2.31713,0.62197 3.54583,1.00004 3.68607,1.13419c1.27442,1.80493 1.9909,2.84459 2.14945,3.11898c-0.8232,2.60983 -1.29576,3.91474 -1.41771,3.91474c-2.74397,0.64026 -4.17999,0.96039 -4.30804,0.96039c-2.26835,-1.3232 -3.4757,-2.06103 -3.62204,-2.21347c-0.07928,-2.46348 -0.11892,-3.82327 -0.11892,-4.07937c-0.0366,-0.07316 -0.05488,-0.12804 -0.05488,-0.16464c2.34153,-1.78055 3.55192,-2.67081 3.6312,-2.67081zM127.18814,154.46803c-0.0366,0.24392 -0.09146,1.13113 -0.16464,2.66165l2.03968,0.45733c0.48782,-1.52443 0.73173,-2.33847 0.73173,-2.44213c-1.62199,-0.48782 -2.49093,-0.73174 -2.60677,-0.73174z" data-paper-data="{&quot;origPos&quot;:null}" fill="#000000" stroke="none" stroke-width="0.26458" stroke-linecap="butt"/><path d="M138.04513,151.11123c0.07928,0.10366 0.49087,1.872 1.23479,5.30502h0.06403c0,-0.07925 0.45122,-0.77745 1.35369,-2.09457c0.37807,0.2561 1.09759,0.811 2.1586,1.66468h0.12805v-0.06401c0.16464,-2.37812 0.28659,-3.69523 0.36587,-3.95133c2.51227,0.12806 3.76838,0.23172 3.76838,0.31099c-1.15248,4.63427 -1.76834,7.04287 -1.84761,7.2258c-0.38416,0.04267 -1.18905,0.16462 -2.41469,0.36585c-1.00612,-1.5793 -1.58236,-2.42079 -1.72871,-2.52445c-0.65855,1.75615 -1.07015,2.72263 -1.23479,2.89946h-2.46958c-0.15244,-0.04877 -0.87198,-1.63419 -2.1586,-4.75622c-0.8232,-1.74394 -1.23479,-2.68909 -1.23479,-2.83544c0,-0.13415 1.33845,-0.64941 4.01534,-1.54577z" data-paper-data="{&quot;origPos&quot;:null}" fill="#000000" stroke="none" stroke-width="0.26458" stroke-linecap="butt"/><path d="M156.31999,151.11123c1.49394,3.42692 2.28969,5.20441 2.38725,5.33246c0.73782,-2.79884 1.16771,-4.28974 1.28967,-4.47268c2.32933,0.21341 3.494,0.39636 3.494,0.5488v0.06401c-1.63419,4.48793 -2.51227,6.83859 -2.63422,7.05201c-1.80493,0.32929 -3.01227,0.53356 -3.62204,0.61282l-4.47268,-6.62212v-0.12803c0.04269,-0.07925 1.2287,-0.87502 3.55803,-2.38727z" data-paper-data="{&quot;origPos&quot;:null}" fill="#000000" stroke="none" stroke-width="0.26458" stroke-linecap="butt"/><path d="M165.73182,147.44345l3.59461,0.56708c-0.45122,1.72566 -0.74697,2.5885 -0.88721,2.5885c-1.8903,-0.12806 -2.83543,-0.25306 -2.83543,-0.37501v-2.65251c0.01829,-0.08537 0.06098,-0.12806 0.12806,-0.12806zM164.72571,151.79723h0.05488c2.78056,0.50611 4.17084,0.80185 4.17084,0.88721c-0.7988,4.5245 -1.28357,7.04592 -1.45431,7.56423h-2.89946c-0.08537,0 -0.12805,-0.04268 -0.12805,-0.12803z" data-paper-data="{&quot;origPos&quot;:null}" fill="#000000" stroke="none" stroke-width="0.26458" stroke-linecap="butt"/><path d="M177.00956,151.11123c1.75614,1.12198 2.72568,1.76835 2.9086,1.93908c-0.63416,1.40857 -0.99697,2.11286 -1.08844,2.11286l-3.32936,-1.92994h-0.1189c0,0.06096 -0.14329,0.40243 -0.42988,1.02442c3.06716,1.65249 4.60073,2.50007 4.60073,2.54275c-0.85978,1.98786 -1.34455,3.03666 -1.45432,3.14642l-5.2044,0.30184c-2.02445,-1.3415 -3.1129,-2.04883 -3.26534,-2.12201v-0.05487c0,-0.15244 0.30184,-0.83844 0.90552,-2.05797l4.06108,2.11286l0.30184,-1.20734c-2.51227,-1.12808 -4.0062,-1.83237 -4.48182,-2.11286v-0.12803c0,-0.23172 0.48477,-1.25919 1.45432,-3.0824z" data-paper-data="{&quot;origPos&quot;:null}" fill="#000000" stroke="none" stroke-width="0.26458" stroke-linecap="butt"/><path d="M182.08591,147.44345l3.59461,0.56708c-0.45122,1.72566 -0.74697,2.5885 -0.88721,2.5885c-1.8903,-0.12806 -2.83543,-0.25306 -2.83543,-0.37501v-2.65251c0.01829,-0.08537 0.06098,-0.12806 0.12806,-0.12806zM181.07978,151.79723h0.05489c2.78056,0.50611 4.17083,0.80185 4.17083,0.88721c-0.7988,4.5245 -1.28356,7.04592 -1.45431,7.56423h-2.89947c-0.08537,0 -0.12805,-0.04268 -0.12805,-0.12803z" data-paper-data="{&quot;origPos&quot;:null}" fill="#000000" stroke="none" stroke-width="0.26458" stroke-linecap="butt"/><path d="M188.71719,148.34897l4.0245,0.71343l-0.38415,3.05495c0.7988,-0.04267 1.38417,-0.06401 1.75614,-0.06401h0.58539l0.12806,-0.06401l0.06403,0.12802c-0.12805,1.8537 -0.23781,2.89643 -0.32927,3.12813l-0.12805,-0.07315c-0.09146,0 -0.91466,-0.04267 -2.46958,-0.12803c-0.08537,1.43295 -0.1494,3.14642 -0.19207,5.14036l-0.12806,0.06401c-1.96346,-0.12804 -3.13422,-0.23781 -3.51229,-0.32927l0.06403,-0.2561c0,-0.53051 0.08537,-2.17689 0.2561,-4.93917c-1.64639,-0.09145 -2.46958,-0.2012 -2.46958,-0.32927c0.08537,-2.03663 0.19512,-3.05496 0.32927,-3.05496l2.40556,0.45734v-0.7866c0,-0.64026 -0.0244,-1.50613 -0.07318,-2.59763c0.04878,0 0.07318,-0.02134 0.07318,-0.06403z" data-paper-data="{&quot;origPos&quot;:null}" fill="#000000" stroke="none" stroke-width="0.26458" stroke-linecap="butt"/><path d="M207.14753,148.34897l3.98791,2.9452c-0.5488,2.50616 -0.89636,3.75924 -1.04271,3.75924c-0.03049,0 -0.76221,0.61586 -2.19518,1.8476c-0.89026,-0.04267 -1.90859,-0.1006 -3.05496,-0.17378l-0.11888,3.29276c-0.25,0.07316 -1.3293,0.14939 -3.23789,0.22867c-0.23172,0 -0.34756,-0.65551 -0.34756,-1.96652c-0.42074,-5.42697 -0.63111,-8.35386 -0.63111,-8.78071c0.71343,-0.15244 2.9269,-0.5366 6.64042,-1.15247zM204.66882,150.9466v3.81412c1.50003,-0.2683 2.25005,-0.42379 2.25005,-0.46648l0.52136,-2.25006c-0.73782,-0.30489 -1.66162,-0.67075 -2.7714,-1.09759z" data-paper-data="{&quot;origPos&quot;:null}" fill="#2b70c2" stroke="none" stroke-width="0.26458" stroke-linecap="butt"/><path d="M216.38559,151.12952c0.08535,0.0122 0.12803,0.05487 0.12803,0.12803l-0.95126,5.26844c1.81713,-0.21343 2.72568,-0.38417 2.72568,-0.51221c0.34147,-2.10982 0.57624,-3.29277 0.70428,-3.54887c2.25006,0.46342 3.49706,0.73782 3.74096,0.82319c-1.311,4.50621 -2.03054,6.85384 -2.15858,7.04287c-2.29274,1.6098 -3.58242,2.50006 -3.86901,2.67081c-0.08535,0 -1.54576,-0.35976 -4.38121,-1.0793v-0.06401c0.75001,-1.65249 1.21649,-2.47873 1.39943,-2.47873l2.78971,1.39943l1.3354,-2.28664c-1.20125,0.29879 -1.89945,0.44817 -2.09457,0.44817l-3.55802,-1.8476c0.43295,-3.97573 0.70734,-5.96358 0.8232,-5.96358z" data-paper-data="{&quot;origPos&quot;:null}" fill="#2b70c2" stroke="none" stroke-width="0.26458" stroke-linecap="butt"/><path d="M230.19693,151.11123c1.20734,0.67685 1.94822,1.11588 2.22263,1.31711c-0.98783,2.05494 -1.51834,3.10069 -1.59152,3.13727h-0.06401l-1.30795,-1.14331l-1.54577,1.88419l0.17378,3.42997c-0.07925,0.07316 -1.08843,0.24389 -3.02752,0.5122c-0.07316,-0.5244 -0.54878,-3.09459 -1.42687,-7.71057c0,-0.07316 1.27443,-0.2622 3.82327,-0.56709c0.04267,0.04877 0.15853,0.61892 0.34757,1.71041c1.52443,-1.71346 2.32324,-2.57019 2.39641,-2.57019z" data-paper-data="{&quot;origPos&quot;:null}" fill="#2b70c2" stroke="none" stroke-width="0.26458" stroke-linecap="butt"/><path d="M234.53241,151.11123c3.62204,0.50002 5.43306,0.80795 5.43306,0.92381c1.42687,1.22564 2.1403,1.88116 2.1403,1.96651c-0.57928,1.81102 -0.90855,2.91166 -0.98783,3.30192c0.57928,1.28661 0.90855,2.05492 0.98783,2.30493c0,0.07316 -0.94515,0.26828 -2.83545,0.58539c-0.02438,-0.10366 -0.19816,-0.33538 -0.52134,-0.69514c-2.60983,0.5 -4.01534,0.75001 -4.21657,0.75001l-1.39029,-3.75925l3.0641,-1.61894c0.49392,0.07925 1.26528,0.11888 2.31409,0.11888c0,-0.13415 0.01829,-0.53965 0.05487,-1.2165c-0.17684,0 -1.75614,0.11586 -4.73792,0.34758l-0.05487,-0.11888c0.41465,-1.92688 0.66466,-2.89032 0.75003,-2.89032zM236.43489,156.48942c0,0.06707 0.19513,0.7805 0.58539,2.14029h0.05487c0.76832,-0.5 1.15247,-0.82927 1.15247,-0.98782l0.11889,-0.97869c-0.14634,0 -0.78357,-0.05793 -1.91164,-0.17379z" data-paper-data="{&quot;origPos&quot;:null}" fill="#2b70c2" stroke="none" stroke-width="0.26458" stroke-linecap="butt"/><path d="M253.14569,151.11123c1.48784,0.61588 2.77141,1.19516 3.85071,1.73785c-0.2805,3.62815 -0.46039,5.61296 -0.53965,5.95443c-1.79273,0.44513 -2.7958,0.66769 -3.00923,0.66769c0,-0.79269 -0.06098,-2.35676 -0.18293,-4.69219c-0.67685,0.06707 -1.01527,0.12499 -1.01527,0.17378c0,0.23172 0.03963,1.55492 0.11888,3.96962c0.03658,0 0.05487,0.02134 0.05487,0.06401c0,0.07316 -0.94209,0.27438 -2.82629,0.60368c-0.07925,-0.09754 -0.32011,-1.58234 -0.72257,-4.45438c-0.76223,0.19513 -1.14333,0.33537 -1.14333,0.42074l0.36587,3.73181c-0.07316,0.07925 -1.07623,0.39938 -3.00923,0.96038c-1.12197,-3.96962 -1.82322,-6.63431 -2.10371,-7.9941c2.11591,-0.5244 3.29887,-0.78661 3.54888,-0.78661c0.2805,1.10978 0.42074,1.75005 0.42074,1.92077h0.06402c1.03052,-0.95124 1.75004,-1.5915 2.1586,-1.92077h0.06402l1.92077,1.38112h0.06401c1.20125,-1.15857 1.8415,-1.73785 1.92078,-1.73785z" data-paper-data="{&quot;origPos&quot;:null}" fill="#2b70c2" stroke="none" stroke-width="0.26458" stroke-linecap="butt"/><path d="M259.17328,147.44345l3.59461,0.56708c-0.45124,1.72566 -0.74698,2.5885 -0.88722,2.5885c-1.8903,-0.12806 -2.83545,-0.25306 -2.83545,-0.37501v-2.65251c0.01829,-0.08537 0.06096,-0.12806 0.12803,-0.12806zM258.16715,151.79723h0.05487c2.78055,0.50611 4.17083,0.80185 4.17083,0.88721c-0.7988,4.5245 -1.28356,7.04592 -1.45429,7.56423h-2.89947c-0.08535,0 -0.12803,-0.04268 -0.12803,-0.12803z" data-paper-data="{&quot;origPos&quot;:null}" fill="#2b70c2" stroke="none" stroke-width="0.26458" stroke-linecap="butt"/><path d="M268.60343,148.33983h0.05487c2.75617,0.23172 4.13425,0.41159 4.13425,0.53965l1.2165,10.76552c0,0.07925 -1.2165,0.28049 -3.64949,0.60367l-0.05487,-0.11889v-0.97869c-2.09761,0.56709 -3.53666,0.93295 -4.31718,1.09759c-1.8537,-2.62202 -2.82629,-4.01839 -2.91775,-4.18912c1.36588,-2.48178 2.09457,-3.73791 2.18603,-3.7684l3.83242,0.18294c-0.07925,-0.46953 -0.24085,-1.84762 -0.48476,-4.13425zM266.90216,154.89793c0.61587,1.88419 1.00001,2.91775 1.15245,3.10068l1.82018,-1.58236c-0.18903,-1.0915 -0.32929,-1.63724 -0.42075,-1.63724h-2.43299c-0.07925,0.0122 -0.11888,0.05182 -0.11888,0.11888z" data-paper-data="{&quot;origPos&quot;:null}" fill="#2b70c2" stroke="none" stroke-width="0.26458" stroke-linecap="butt"/><path d="M286.24716,148.34897l3.98791,2.9452c-0.54879,2.50616 -0.89636,3.75924 -1.04271,3.75924c-0.03049,0 -0.76221,0.61586 -2.19518,1.8476c-0.89026,-0.04267 -1.90859,-0.1006 -3.05496,-0.17378l-0.11888,3.29276c-0.25001,0.07316 -1.32931,0.14939 -3.23789,0.22867c-0.23172,0 -0.34758,-0.65551 -0.34758,-1.96652c-0.42073,-5.42697 -0.63111,-8.35386 -0.63111,-8.78071c0.71343,-0.15244 2.92691,-0.5366 6.64041,-1.15247zM283.76842,150.9466v3.81412c1.50004,-0.2683 2.25006,-0.42379 2.25006,-0.46648l0.52136,-2.25006c-0.73782,-0.30489 -1.66163,-0.67075 -2.77142,-1.09759z" data-paper-data="{&quot;origPos&quot;:null}" fill="#2b70c2" stroke="none" stroke-width="0.26458" stroke-linecap="butt"/><path d="M296.21691,151.11123l0.06401,0.11889l-1.23479,6.54895h0.06401l3.14643,-0.92381v-3.70437c0.0122,-0.08535 0.05181,-0.12803 0.11888,-0.12803c2.3659,0.16463 3.68302,0.24696 3.95133,0.24696c0,0.04267 0.02135,0.06401 0.06402,0.06401c0,1.04271 -0.32928,3.20436 -0.98782,6.48493c0,0.18902 -0.94515,0.33231 -2.83545,0.42988c-0.09754,-0.11586 -0.17986,-0.36282 -0.24696,-0.74086c-2.42079,0.49391 -3.80192,0.74086 -4.14339,0.74086c-1.93297,-1.43906 -2.89946,-2.17992 -2.89946,-2.22261c0.32927,-4.32328 0.53659,-6.56725 0.62196,-6.73188h0.05487c1.54272,-0.04267 2.96348,-0.10366 4.2623,-0.18294z" data-paper-data="{&quot;origPos&quot;:null}" fill="#2b70c2" stroke="none" stroke-width="0.26458" stroke-linecap="butt"/><path d="M310.97037,151.10209c0.87807,1.74396 1.31711,2.64642 1.31711,2.7074c-0.07316,0 -1.14636,1.03356 -3.2196,3.10068h0.05487c0.05487,0 1.03355,-0.32622 2.93605,-0.97868c0.07925,0.07316 0.27134,1.16769 0.57624,3.28362c0,0.09754 -2.47262,0.44207 -7.41788,1.03356c-0.07925,-0.20733 -0.27134,-0.9543 -0.57624,-2.2409c0.20733,-0.28661 1.2043,-1.47566 2.99094,-3.56718h-0.06401l-3.39339,1.14332c-0.11586,-0.2683 -0.40245,-1.5915 -0.85978,-3.96961c0,-0.22562 0.92075,-0.33843 2.76227,-0.33843z" data-paper-data="{&quot;origPos&quot;:null}" fill="#2b70c2" stroke="none" stroke-width="0.26458" stroke-linecap="butt"/><path d="M321.21455,151.10209c0.87807,1.74396 1.31709,2.64642 1.31709,2.7074c-0.07316,0 -1.14636,1.03356 -3.2196,3.10068h0.05487c0.05487,0 1.03356,-0.32622 2.93606,-0.97868c0.07925,0.07316 0.27134,1.16769 0.57623,3.28362c0,0.09754 -2.47262,0.44207 -7.41787,1.03356c-0.07925,-0.20733 -0.27134,-0.9543 -0.57625,-2.2409c0.20733,-0.28661 1.2043,-1.47566 2.99094,-3.56718h-0.06401l-3.39337,1.14332c-0.11586,-0.2683 -0.40247,-1.5915 -0.8598,-3.96961c0,-0.22562 0.92075,-0.33843 2.76227,-0.33843z" data-paper-data="{&quot;origPos&quot;:null}" fill="#2b70c2" stroke="none" stroke-width="0.26458" stroke-linecap="butt"/><path d="M323.80303,148.35812c1.8659,0.03659 3.23485,0.05489 4.10681,0.05489c0.07925,0 0.32012,3.744 0.72259,11.232c-0.31099,0.07925 -1.39638,0.28049 -3.25619,0.60367c-0.09145,0 -0.39329,-2.29275 -0.90552,-6.87823c-0.04267,-0.10976 -0.26525,-1.78053 -0.66769,-5.01232z" data-paper-data="{&quot;origPos&quot;:null}" fill="#2b70c2" stroke="none" stroke-width="0.26458" stroke-linecap="butt"/><path d="M334.84292,151.12038c2.76226,1.42077 4.2928,2.25006 4.59159,2.48787c-0.39636,1.8537 -0.63111,2.808 -0.70428,2.86289h-5.78064v0.10059l1.61895,2.00311l2.54274,-1.29882c0.25001,0.43293 0.60977,1.18906 1.0793,2.26836c-0.21952,0.07316 -1.82017,0.30791 -4.80195,0.70428c-2.46958,-1.62809 -3.71352,-2.47567 -3.73181,-2.54274c0.39634,-3.16472 0.63111,-4.74708 0.70429,-4.74708c2.57934,-1.09759 4.07326,-1.71041 4.48182,-1.83847zM334.24843,153.33386c-0.04877,0.12195 -0.37196,0.60672 -0.96954,1.4543c0,0.2561 0.35976,0.38416 1.0793,0.38416c0,0.03658 0.52136,0.125 1.56407,0.26526c0.28661,-0.39636 0.42989,-0.62808 0.42989,-0.69514c-0.09145,-0.54271 -0.28963,-0.81405 -0.59454,-0.81405z" data-paper-data="{&quot;origPos&quot;:null}" fill="#2b70c2" stroke="none" stroke-width="0.26458" stroke-linecap="butt"/><path d="M352.10254,148.34897c2.19518,1.10978 3.32325,1.66467 3.38423,1.66467c0,0.09754 -0.45733,0.97866 -1.37198,2.64336h-0.06402c-0.07316,0 -1.12501,-0.49697 -3.15556,-1.49089l-1.03358,1.38114c1.75005,0.84149 3.87511,1.91468 6.37518,3.21959c-1.13419,2.01834 -1.93908,3.35985 -2.4147,4.02449l-5.16782,0.45733c-2.35983,-1.5915 -3.6068,-2.41469 -3.74095,-2.46957v-0.06401c0,-0.17075 0.47867,-0.9543 1.43601,-2.35067h0.11888c0.37805,0.22561 1.56407,0.87502 3.55801,1.94822l1.20736,-1.37199c-3.66474,-1.8659 -5.69528,-2.92081 -6.09162,-3.16471v-0.05487c1.16465,-2.26835 1.79883,-3.41777 1.90249,-3.44826c3.03056,-0.61588 4.71659,-0.92381 5.05806,-0.92381z" data-paper-data="{&quot;origPos&quot;:null}" fill="#2b70c2" stroke="none" stroke-width="0.26458" stroke-linecap="butt"/><path d="M360.80093,151.12038c2.75007,0.5183 4.18912,0.81405 4.31718,0.88723v0.10974c-0.59148,1.67078 -0.88723,2.53665 -0.88723,2.59762h-0.05487c-0.15244,0 -0.89027,-0.23781 -2.21348,-0.71343c-0.73782,1.23784 -1.10673,1.89945 -1.10673,1.98482l1.82933,1.77443c1.41467,-1.3293 2.1342,-1.99395 2.15858,-1.99395c1.1037,1.44516 1.65555,2.25615 1.65555,2.43299c-0.60368,0.34758 -1.65554,1.03052 -3.15558,2.04883c-2.90251,-0.62806 -4.46964,-0.97868 -4.70134,-1.05185l-1.43602,-4.64647z" data-paper-data="{&quot;origPos&quot;:null}" fill="#2b70c2" stroke="none" stroke-width="0.26458" stroke-linecap="butt"/><path d="M373.98116,151.11123c1.20736,0.67685 1.94824,1.11588 2.22262,1.31711c-0.98784,2.05494 -1.51834,3.10069 -1.59152,3.13727h-0.06401l-1.30796,-1.14331l-1.54577,1.88419l0.17378,3.42997c-0.07925,0.07316 -1.08843,0.24389 -3.02752,0.5122c-0.07316,-0.5244 -0.54878,-3.09459 -1.42687,-7.71057c0,-0.07316 1.27443,-0.2622 3.82327,-0.56709c0.04267,0.04877 0.15853,0.61892 0.34758,1.71041c1.52443,-1.71346 2.32322,-2.57019 2.39639,-2.57019z" data-paper-data="{&quot;origPos&quot;:null}" fill="#2b70c2" stroke="none" stroke-width="0.26458" stroke-linecap="butt"/><path d="M378.31664,151.11123c3.62204,0.50002 5.43306,0.80795 5.43306,0.92381c1.42687,1.22564 2.14031,1.88116 2.14031,1.96651c-0.57928,1.81102 -0.90856,2.91166 -0.98784,3.30192c0.57928,1.28661 0.90856,2.05492 0.98784,2.30493c0,0.07316 -0.94515,0.26828 -2.83544,0.58539c-0.02438,-0.10366 -0.19818,-0.33538 -0.52136,-0.69514c-2.60983,0.5 -4.01534,0.75001 -4.21657,0.75001l-1.39029,-3.75925l3.0641,-1.61894c0.49392,0.07925 1.26528,0.11888 2.31409,0.11888c0,-0.13415 0.01829,-0.53965 0.05487,-1.2165c-0.17683,0 -1.75615,0.11586 -4.73793,0.34758l-0.05487,-0.11888c0.41465,-1.92688 0.66465,-2.89032 0.75002,-2.89032zM380.21912,156.48942c0,0.06707 0.19512,0.7805 0.58539,2.14029h0.05487c0.76831,-0.5 1.15247,-0.82927 1.15247,-0.98782l0.11889,-0.97869c-0.14634,0 -0.78357,-0.05793 -1.91165,-0.17379z" data-paper-data="{&quot;origPos&quot;:null}" fill="#2b70c2" stroke="none" stroke-width="0.26458" stroke-linecap="butt"/><path d="M386.76808,148.35812c1.86589,0.03659 3.23483,0.05489 4.10681,0.05489c0.07925,0 0.32011,3.744 0.72258,11.232c-0.31099,0.07925 -1.39637,0.28049 -3.25617,0.60367c-0.09145,0 -0.39329,-2.29275 -0.90552,-6.87823c-0.04267,-0.10976 -0.26524,-1.78053 -0.66769,-5.01232z" data-paper-data="{&quot;origPos&quot;:null}" fill="#2b70c2" stroke="none" stroke-width="0.26458" stroke-linecap="butt"/><path d="M394.01216,151.11123c3.62205,0.50002 5.43307,0.80795 5.43307,0.92381c1.42686,1.22564 2.1403,1.88116 2.1403,1.96651c-0.57928,1.81102 -0.90855,2.91166 -0.98782,3.30192c0.57928,1.28661 0.90855,2.05492 0.98782,2.30493c0,0.07316 -0.94515,0.26828 -2.83544,0.58539c-0.02438,-0.10366 -0.19818,-0.33538 -0.52136,-0.69514c-2.60983,0.5 -4.01534,0.75001 -4.21657,0.75001l-1.39027,-3.75925l3.0641,-1.61894c0.49391,0.07925 1.26526,0.11888 2.31408,0.11888c0,-0.13415 0.01829,-0.53965 0.05487,-1.2165c-0.17683,0 -1.75614,0.11586 -4.73793,0.34758l-0.05487,-0.11888c0.41465,-1.92688 0.66465,-2.89032 0.75001,-2.89032zM395.91465,156.48942c0,0.06707 0.19513,0.7805 0.58537,2.14029h0.05487c0.76831,-0.5 1.15247,-0.82927 1.15247,-0.98782l0.11889,-0.97869c-0.14634,0 -0.78355,-0.05793 -1.91163,-0.17379z" data-paper-data="{&quot;origPos&quot;:null}" fill="#2b70c2" stroke="none" stroke-width="0.26458" stroke-linecap="butt"/><path d="M408.96683,151.11123h0.03658c1.62809,0.95735 2.50617,1.45737 2.63422,1.50004v0.0823c-0.42073,0.48172 -1.19516,1.31713 -2.32324,2.50618c2.21348,0.82319 3.45742,1.32014 3.73181,1.49089l-2.06712,2.55189c-1.39637,-1.19516 -2.28665,-1.94212 -2.67081,-2.2409c-0.94515,1.84151 -1.53357,2.92385 -1.76528,3.24703h-0.03658c-1.75004,-0.61588 -2.70128,-0.98173 -2.85372,-1.09759v-0.04572l2.4147,-3.15557c-2.24396,-0.92686 -3.4452,-1.46955 -3.60375,-1.6281c0.98784,-1.67687 1.54272,-2.57019 1.66467,-2.67994c0.01829,0.04267 1.10368,0.78964 3.25619,2.24092c0.76221,-1.40857 1.28966,-2.33238 1.58235,-2.77142z" data-paper-data="{&quot;origPos&quot;:null}" fill="#2b70c2" stroke="none" stroke-width="0.26458" stroke-linecap="butt"/><path d="M418.08595,151.12952c0.08535,0.0122 0.12803,0.05487 0.12803,0.12803l-0.95126,5.26844c1.81712,-0.21343 2.72568,-0.38417 2.72568,-0.51221c0.34147,-2.10982 0.57624,-3.29277 0.70428,-3.54887c2.25006,0.46342 3.49705,0.73782 3.74095,0.82319c-1.31101,4.50621 -2.03053,6.85384 -2.15858,7.04287c-2.29275,1.6098 -3.58242,2.50006 -3.86901,2.67081c-0.08535,0 -1.54576,-0.35976 -4.38121,-1.0793v-0.06401c0.75001,-1.65249 1.21649,-2.47873 1.39943,-2.47873l2.78971,1.39943l1.3354,-2.28664c-1.20125,0.29879 -1.89944,0.44817 -2.09457,0.44817l-3.55803,-1.8476c0.43295,-3.97573 0.70734,-5.96358 0.8232,-5.96358z" data-paper-data="{&quot;origPos&quot;:null}" fill="#2b70c2" stroke="none" stroke-width="0.26458" stroke-linecap="butt"/><path d="M429.35456,148.68739l0.03658,0.07317c-0.60977,5.3843 -0.95126,8.21364 -1.02443,8.48802c-1.29271,-0.12196 -2.10981,-0.20733 -2.45128,-0.2561v-0.03657l-0.58537,-7.64655c0.14633,-0.04877 1.48783,-0.2561 4.02448,-0.62196zM425.73252,157.43152c0.04267,0.02438 0.99392,0.09756 2.85373,0.21952l0.03658,0.07316c-0.28661,1.68296 -0.46953,2.52445 -0.54879,2.52445h-2.12202c-0.07316,0 -0.17071,-0.84149 -0.29268,-2.52445c-0.02438,0 -0.03658,-0.07317 -0.03658,-0.21952c0.07316,-0.02438 0.10974,-0.04878 0.10974,-0.07316z" data-paper-data="{&quot;origPos&quot;:null}" fill="#000000" stroke="none" stroke-width="0.26458" stroke-linecap="butt"/></g></g></svg>