<svg version="1.1" xmlns="http://www.w3.org/2000/svg" xmlns:xlink="http://www.w3.org/1999/xlink" width="552.09888" height="488.88801" viewBox="0,0,552.09888,488.88801"><defs><linearGradient x1="-34.00129" y1="179.89341" x2="48.07373" y2="179.89341" gradientUnits="userSpaceOnUse" id="color-1"><stop offset="0" stop-color="#296cdb" stop-opacity="0"/><stop offset="1" stop-color="#296cdb"/></linearGradient><linearGradient x1="240.37562" y1="340.99761" x2="240.37562" y2="423.06783" gradientUnits="userSpaceOnUse" id="color-2"><stop offset="0" stop-color="#296cdb"/><stop offset="1" stop-color="#296cdb" stop-opacity="0"/></linearGradient><linearGradient x1="514.00128" y1="179.89341" x2="431.92627" y2="179.89341" gradientUnits="userSpaceOnUse" id="color-3"><stop offset="0" stop-color="#296cdb" stop-opacity="0"/><stop offset="1" stop-color="#296cdb"/></linearGradient><radialGradient cx="435.31992" cy="346.4055" r="77.14154" gradientUnits="userSpaceOnUse" id="color-4"><stop offset="0" stop-color="#296cdb"/><stop offset="1" stop-color="#296cdb" stop-opacity="0"/></radialGradient><linearGradient x1="240.37562" y1="19.00242" x2="240.37562" y2="-63.06776" gradientUnits="userSpaceOnUse" id="color-5"><stop offset="0" stop-color="#296cdb"/><stop offset="1" stop-color="#296cdb" stop-opacity="0"/></linearGradient><radialGradient cx="435.31992" cy="13.59456" r="77.14154" gradientUnits="userSpaceOnUse" id="color-6"><stop offset="0" stop-color="#296cdb"/><stop offset="1" stop-color="#296cdb" stop-opacity="0"/></radialGradient><radialGradient cx="44.68008" cy="346.4055" r="77.14155" gradientUnits="userSpaceOnUse" id="color-7"><stop offset="0" stop-color="#296cdb"/><stop offset="1" stop-color="#296cdb" stop-opacity="0"/></radialGradient><radialGradient cx="44.68008" cy="13.59456" r="77.14155" gradientUnits="userSpaceOnUse" id="color-8"><stop offset="0" stop-color="#296cdb"/><stop offset="1" stop-color="#296cdb" stop-opacity="0"/></radialGradient><linearGradient x1="495.99204" y1="306.61578" x2="474.10198" y2="306.61578" gradientUnits="userSpaceOnUse" id="color-9"><stop offset="0" stop-color="#8e4108"/><stop offset="1" stop-color="#be6d2f"/></linearGradient><linearGradient x1="510.73022" y1="290.67625" x2="489.51484" y2="290.67625" gradientUnits="userSpaceOnUse" id="color-10"><stop offset="0" stop-color="#8e4108"/><stop offset="1" stop-color="#be6d2f"/></linearGradient><linearGradient x1="443.08185" y1="251.97295" x2="443.08185" y2="308.05265" gradientUnits="userSpaceOnUse" id="color-11"><stop offset="0" stop-color="#0052ef"/><stop offset="1" stop-color="#004bd6"/></linearGradient><linearGradient x1="378.96514" y1="225.25071" x2="378.96514" y2="240.61613" gradientUnits="userSpaceOnUse" id="color-12"><stop offset="0" stop-color="#bc041a"/><stop offset="1" stop-color="#880010"/></linearGradient><linearGradient x1="397.14182" y1="210.65893" x2="397.14182" y2="236.50718" gradientUnits="userSpaceOnUse" id="color-13"><stop offset="0" stop-color="#bc041a"/><stop offset="1" stop-color="#a90216"/></linearGradient></defs><g transform="translate(36.04944,64.44397)"><g data-paper-data="{&quot;isPaintingLayer&quot;:true}" fill-rule="nonzero" stroke-linejoin="miter" stroke-miterlimit="10" stroke-dasharray="" stroke-dashoffset="0" style="mix-blend-mode: normal"><g stroke="none" stroke-linecap="butt"><g><g><path d="M-34.00129,14.84636h82.07501v330.09404h-82.07501z" fill="url(#color-1)" stroke-width="1.89892"/><g><path d="M46.75968,18.17969h385.67627v323.2985h-385.67626z" data-paper-data="{&quot;origPos&quot;:null}" fill="#296cdb" stroke-width="0.90886"/><path d="M47.78665,423.06783l-0.06765,-81.93488l385.24562,-0.13533l0.06766,81.93487z" data-paper-data="{&quot;index&quot;:null,&quot;origRot&quot;:0}" fill="url(#color-2)" stroke-width="1.89892"/><path d="M514.00128,344.94043h-82.07501v-330.09404h82.07501z" data-paper-data="{&quot;index&quot;:null}" fill="url(#color-3)" stroke-width="1.89892"/><path d="M431.73194,424.44404v-79.83253h84.3175v79.83253z" data-paper-data="{&quot;index&quot;:null}" fill="url(#color-4)" stroke-width="0"/><path d="M433.03226,-62.93243l-0.06765,81.93488l-385.24561,-0.13533l0.06765,-81.93488z" data-paper-data="{&quot;index&quot;:null,&quot;origRot&quot;:0}" fill="url(#color-5)" stroke-width="1.89892"/><path d="M516.04943,-64.44397v79.83253h-84.3175v-79.83252z" data-paper-data="{&quot;index&quot;:null}" fill="url(#color-6)" stroke-width="0"/></g></g><path d="M-36.04944,424.44404v-79.83253h84.3175v79.83253z" fill="url(#color-7)" stroke-width="0"/></g><path d="M48.26806,-64.44397v79.83253h-84.3175v-79.83252z" data-paper-data="{&quot;index&quot;:null}" fill="url(#color-8)" stroke-width="0"/><text transform="translate(14.00365,61.0802) scale(0.50924,0.50924)" font-size="22" xml:space="preserve" fill="#a1f4fa" fill-rule="nonzero" stroke="none" stroke-width="1" stroke-linecap="butt" stroke-linejoin="miter" stroke-miterlimit="10" stroke-dasharray="" stroke-dashoffset="0" font-family="&quot;Microsoft YaHei&quot;, &quot;微软雅黑&quot;, STXihei, &quot;华文细黑&quot;" font-weight="400" text-anchor="start" style="mix-blend-mode: normal"><tspan x="0" dy="0">Page 3</tspan></text><text transform="translate(12.54471,87.21422) scale(1.03413,1.03413)" font-size="22" xml:space="preserve" fill="#a1f3f9" fill-rule="nonzero" stroke="none" stroke-width="1" stroke-linecap="butt" stroke-linejoin="miter" stroke-miterlimit="10" stroke-dasharray="" stroke-dashoffset="0" font-family="&quot;Microsoft YaHei&quot;, &quot;微软雅黑&quot;, STXihei, &quot;华文细黑&quot;" font-weight="400" text-anchor="start" style="mix-blend-mode: normal"><tspan x="0" dy="0">Power-ups!</tspan></text><text transform="translate(282.69408,31.82308) scale(0.63022,0.63021)" font-size="22" xml:space="preserve" fill="#a1f3f9" fill-rule="nonzero" stroke="none" stroke-width="1" stroke-linecap="butt" stroke-linejoin="miter" stroke-miterlimit="10" stroke-dasharray="" stroke-dashoffset="0" font-family="Sans Serif" font-weight="400" text-anchor="start" style="mix-blend-mode: normal"><tspan x="0" dy="0">Use the arrow keys</tspan><tspan x="0" dy="24.86px">or tap to navigate</tspan></text><path d="M31.18761,13.16804c6.80525,1.71922 10.42277,2.74001 10.85258,3.06237c-2.41766,5.78446 -3.71602,8.74832 -3.89511,8.89159c-0.44772,0 -3.35786,-1.02078 -8.73042,-3.06236c-3.11609,2.90118 -4.67413,4.52191 -4.67413,4.86217c-0.23281,5.37257 -0.34922,8.49761 -0.34922,9.37513c3.72498,1.71922 5.93668,2.68628 6.63512,2.90118c3.47426,-1.50432 5.47106,-2.41765 5.99041,-2.74001l-0.96706,-3.08922c-0.64471,0.35817 -2.58779,1.17301 -5.82923,2.44452l-0.16118,-0.32236v-1.31627c0,-1.12824 -0.05373,-2.84746 -0.16118,-5.15767c0.8417,-0.21491 5.74865,-0.75216 14.72083,-1.61177c0.21491,1.11033 0.59098,5.84714 1.12824,14.21043c-0.28654,0.32236 -5.67701,2.48034 -16.17142,6.47394c-8.93636,-3.25935 -13.46722,-5.09499 -13.59258,-5.50688c-2.79373,-9.70643 -4.1906,-14.81932 -4.1906,-15.33867c3.67126,-6.60825 5.77551,-10.17205 6.31276,-10.6914c0.44771,-0.21491 4.80845,-1.34314 13.0822,-3.38472z" fill="#ffffff" stroke-width="0.26459"/><path d="M62.9126,21.25376l0.18803,0.34922l-3.62648,19.23378h0.18803l9.24081,-2.71315v-10.87944c0.03583,-0.25072 0.15223,-0.37608 0.34922,-0.37608c6.94852,0.48353 10.81676,0.7253 11.60474,0.7253c0,0.12537 0.06268,0.18805 0.18805,0.18805c0,3.06236 -0.96706,9.41094 -2.90118,19.04574c0,0.55517 -2.77583,0.97601 -8.32748,1.26255c-0.28654,-0.34026 -0.5283,-1.06556 -0.72529,-2.17589c-7.10969,1.4506 -11.16598,2.17589 -12.16886,2.17589c-5.67701,-4.22642 -8.51552,-6.4023 -8.51552,-6.52766c0.96706,-12.69716 1.57595,-19.28751 1.82667,-19.77104h0.16119c4.53086,-0.12535 8.70356,-0.30444 12.51808,-0.53726z" fill="#ffffff" stroke-width="0.26459"/><path d="M87.43836,10.48175l10.55709,1.6655c-1.32523,5.06812 -2.1938,7.60218 -2.60569,7.60218c-5.55165,-0.37608 -8.32747,-0.74321 -8.32747,-1.10138v-7.79021c0.05372,-0.25072 0.17907,-0.37608 0.37608,-0.37608zM84.48345,23.26846h0.16118c8.1663,1.48641 12.24944,2.35497 12.24944,2.60569c-2.34602,13.28814 -3.76975,20.69333 -4.27119,22.21556h-8.51551c-0.25072,0 -0.37608,-0.12536 -0.37608,-0.37608z" fill="#ffffff" stroke-width="0.26459"/><path d="M115.0802,13.11432h0.16119c8.09467,0.68052 12.14199,1.20883 12.14199,1.58491l3.57276,31.61754c0,0.23281 -3.57276,0.82379 -10.71827,1.77295l-0.16119,-0.34922v-2.87432c-6.16054,1.6655 -10.38695,2.74001 -12.67925,3.22354c-5.4442,-7.70068 -8.30061,-11.80173 -8.56924,-12.30317c4.01152,-7.28878 6.15158,-10.97794 6.42021,-11.06749l11.25552,0.53725c-0.23281,-1.37896 -0.70738,-5.42629 -1.42373,-12.14199zM110.08371,32.37492c1.80876,5.53374 2.937,8.56924 3.38472,9.1065l5.34571,-4.64727c-0.55517,-3.20563 -0.96706,-4.80845 -1.23569,-4.80845h-7.14552c-0.23281,0.03583 -0.34922,0.15223 -0.34922,0.34922z" fill="#ffffff" stroke-width="0.26459"/><path d="M149.00794,21.2806c8.11257,4.17269 12.60762,6.60825 13.48514,7.30669c-1.16405,5.4442 -1.85354,8.24689 -2.06844,8.40806h-16.9773v0.29549l4.75472,5.88296l7.46786,-3.81452c0.73425,1.2715 1.79085,3.49217 3.16982,6.66199c-0.64471,0.2149 -5.3457,0.90438 -14.10298,2.06844c-7.25296,-4.78158 -10.90631,-7.27087 -10.96004,-7.46787c1.16405,-9.29453 1.85354,-13.9418 2.06844,-13.9418c7.57531,-3.22354 11.96291,-5.02334 13.16278,-5.39943zM147.26186,27.78143c-0.14327,0.35817 -1.09242,1.78189 -2.84746,4.27118c0,0.75216 1.0566,1.12824 3.16982,1.12824c0,0.10746 1.53118,0.36713 4.59354,0.77902c0.8417,-1.16405 1.26255,-1.84458 1.26255,-2.04157c-0.26863,-1.59386 -0.85065,-2.39079 -1.74608,-2.39079z" fill="#ffffff" stroke-width="0.26459"/></g><g stroke="none"><g fill="#fff346" stroke-width="1.71334" stroke-linecap="round"><path d="M277.13533,297.45016l37.24482,-1.87788l-15.33616,23.23888l-5.39891,-0.23474l-0.86067,-5.24245l-4.06878,6.25967l-6.65086,0.23474l1.01722,-7.66808l-5.94666,7.04206l-9.70242,-2.73855z"/><path d="M297.08791,318.31548c-3.72142,-2.0422 -6.30031,-6.61013 -6.80741,-10.79782c-0.36927,-3.04535 1.73238,-5.96703 4.52884,-8.02018c2.7981,-2.05471 7.17979,-2.66036 10.92469,-3.32539c2.97639,-0.52427 5.91067,-0.59625 8.80257,-0.46947c1.77778,0.13609 4.75106,-0.46015 5.08599,1.25186c0.86852,4.44435 0.08449,9.51783 -2.34735,13.30173c-2.18623,3.40211 -6.6431,4.77928 -10.40672,6.25967c-3.07969,1.21122 -6.86048,3.35982 -9.78061,1.79961z"/></g><path d="M326.37456,273.35335c-1.64817,-1.68544 -2.42471,-3.58743 -1.93807,-5.30776c0.48673,-1.72024 2.14459,-2.93364 4.43138,-3.50578c2.2868,-0.57222 5.20226,-0.50208 8.20012,0.34598c2.99794,0.84806 5.51801,2.31566 7.16618,4.001c1.64817,1.68544 2.42471,3.58743 1.93807,5.30776c-0.48664,1.72024 -2.14449,2.93364 -4.43138,3.50578c-2.2868,0.57222 -5.20217,0.50208 -8.20012,-0.34598c-2.99794,-0.84806 -5.51801,-2.31566 -7.16618,-4.001z" fill="#fff346" stroke-width="1.61785" stroke-linecap="butt"/><path d="M331.10883,267.52005c-2.02713,-1.20327 -3.26794,-2.84066 -3.24145,-4.6283c0.02658,-1.78764 1.31534,-3.38749 3.37727,-4.53012c2.06183,-1.14262 4.89674,-1.82682 8.01196,-1.78061c3.11522,0.04622 5.92857,0.81418 7.95561,2.01744c2.02713,1.20327 3.26794,2.84066 3.24145,4.62821c-0.02649,1.78764 -1.31534,3.38749 -3.37727,4.53012c-2.06183,1.14271 -4.89674,1.82682 -8.01196,1.7807c-3.11522,-0.04622 -5.92857,-0.81418 -7.95561,-2.01744z" fill="#fff346" stroke-width="1.61785" stroke-linecap="butt"/><path d="M332.39904,249.08019c2.99794,-0.84806 5.91332,-0.91821 8.20012,-0.34598c2.28689,0.57222 3.94474,1.78554 4.43138,3.50578c0.48664,1.72033 -0.2899,3.62232 -1.93807,5.30776c-1.64817,1.68534 -4.16824,3.15294 -7.16618,4.001c-2.99785,0.84815 -5.91332,0.91821 -8.20012,0.34607c-2.2868,-0.57222 -3.94465,-1.78554 -4.43138,-3.50587c-0.48664,-1.72033 0.2899,-3.62232 1.93807,-5.30767c1.64817,-1.68544 4.16824,-3.15294 7.16618,-4.00109z" fill="#fff346" stroke-width="1.61785" stroke-linecap="butt"/><path d="M269.68372,293.07313c-6.74311,-6.74302 -10.91766,-16.05626 -10.91766,-26.33355c0,-10.27729 4.17454,-19.59053 10.91766,-26.33364c6.74302,-6.74302 16.05626,-10.91756 26.33355,-10.91756c10.27729,0 19.59053,4.17454 26.33355,10.91756c6.74311,6.74311 10.91766,16.05635 10.91766,26.33364c0,10.27729 -4.17454,19.59053 -10.91766,26.33355c-6.74302,6.74311 -16.05626,10.91766 -26.33355,10.91766c-10.27729,0 -19.59053,-4.17454 -26.33355,-10.91766z" fill="#e12323" stroke-width="1.92607" stroke-linecap="butt"/><path d="M277.51219,244.41462c-2.62776,-0.68256 -7.8165,-1.52879 -7.07412,-3.69439c1.0301,-3.84034 6.58291,-6.62164 10.61908,-8.31748c4.88359,-2.05307 9.42056,-3.02936 15.45179,-3.02936c6.03124,0 10.52692,1.09595 15.4517,3.02936c3.45125,1.35279 9.94035,3.6046 9.50632,6.55834c-2.35594,3.71539 -6.09965,5.43946 -25.51445,8.09234c-6.18386,0.17418 -12.4154,-1.07485 -18.44033,-2.63881z" fill="#ffffff" stroke-width="1.83562" stroke-linecap="round"/><path d="M257.1169,288.79702c-1.83897,-2.68977 -2.97767,-6.40699 -2.97767,-10.50774c0,-4.10065 1.13869,-7.81787 2.97767,-10.50774c1.83897,-2.6916 4.3795,-4.35758 7.1818,-4.35758c2.80221,0 5.34283,1.66598 7.18171,4.35758c1.83897,2.68987 2.97767,6.40709 2.97767,10.50774c0,4.10074 -1.13869,7.81796 -2.97767,10.50774c-1.83888,2.6916 -4.3795,4.35758 -7.18171,4.35758c-2.8023,0 -5.34283,-1.66598 -7.1818,-4.35758z" fill="#ffffff" stroke-width="1.77076" stroke-linecap="butt"/><path d="M272.0128,288.02068c-1.87076,-2.68977 -3.02927,-6.40699 -3.02927,-10.50774c0,-4.10065 1.15851,-7.81787 3.02927,-10.50774c1.87076,-2.6916 4.45531,-4.35758 7.30611,-4.35758c2.8508,0 5.43535,1.66598 7.30611,4.35758c1.87076,2.68987 3.02927,6.40709 3.02927,10.50774c0,4.10074 -1.15851,7.81796 -3.02927,10.50774c-1.87076,2.6916 -4.45531,4.35758 -7.30611,4.35758c-2.8508,0 -5.43535,-1.66598 -7.30611,-4.35758z" fill="#ffffff" stroke-width="1.78334" stroke-linecap="butt"/><path d="M259.14612,266.63765c-1.82335,-2.14979 -2.95136,-5.11933 -2.95136,-8.39494c0,-3.2757 1.12801,-6.24524 2.95136,-8.39494c1.82335,-2.14979 4.34205,-3.47974 7.12006,-3.47974c2.77801,0 5.29671,1.32995 7.12006,3.47974c1.82345,2.1497 2.95145,5.11924 2.95145,8.39494c0,3.27561 -1.12801,6.24515 -2.95145,8.39494c-1.82335,2.1497 -4.34205,3.47965 -7.12006,3.47965c-2.77801,0 -5.29671,-1.32995 -7.12006,-3.47965z" fill="#ffb197" stroke-width="1.92189" stroke-linecap="round"/><path d="M261.13032,259.22065c-0.20341,-0.90369 -0.08978,-1.96054 0.39083,-2.9541c0.48061,-0.99356 1.23862,-1.73869 2.07334,-2.1402c0.83537,-0.39978 1.74791,-0.45714 2.53998,-0.07407c0.79198,0.38316 1.31351,1.13422 1.51866,2.03726c0.20332,0.90369 0.08969,1.96054 -0.39092,2.9541c-0.48061,0.99356 -1.23862,1.73869 -2.07334,2.14029c-0.83527,0.39978 -1.74791,0.45714 -2.53989,0.07398c-0.79207,-0.38307 -1.3136,-1.13413 -1.51866,-2.03726z" fill="#a27060" stroke-width="1.42498" stroke-linecap="butt"/><path d="M272.73483,277.65021c-0.41339,-0.73179 -0.67023,-1.74334 -0.67023,-2.86048c0,-1.11705 0.25684,-2.1286 0.67023,-2.86048c0.41348,-0.73179 0.98516,-1.18573 1.61675,-1.18573c0.6315,0 1.20327,0.45394 1.61666,1.18573c0.41348,0.73188 0.67032,1.74343 0.67032,2.86048c0,1.11714 -0.25684,2.12869 -0.67032,2.86048c-0.41339,0.73179 -0.98516,1.18573 -1.61666,1.18573c-0.63159,0 -1.20327,-0.45394 -1.61675,-1.18573z" fill="#001966" stroke-width="1.92607" stroke-linecap="butt"/><path d="M261.18073,277.65021c-0.41339,-0.73179 -0.67023,-1.74334 -0.67023,-2.86048c0,-1.11705 0.25684,-2.1286 0.67023,-2.86048c0.41348,-0.73179 0.98516,-1.18573 1.61675,-1.18573c0.6315,0 1.20327,0.45394 1.61666,1.18573c0.41348,0.73188 0.67032,1.74343 0.67032,2.86048c0,1.11714 -0.25684,2.12869 -0.67032,2.86048c-0.41339,0.73179 -0.98516,1.18573 -1.61666,1.18573c-0.63159,0 -1.20327,-0.45394 -1.61675,-1.18573z" fill="#001966" stroke-width="1.92607" stroke-linecap="butt"/><g fill="#ffffff"><path d="M317.5341,292.75401c-4.1877,-1.34347 -8.3057,-4.36343 -11.35817,-8.73644c-3.05238,-4.37302 -4.46737,-9.27972 -4.2846,-13.67383c0.18048,-4.39457 1.95862,-8.27638 5.28794,-10.60026c3.32931,-2.32397 7.58624,-2.6547 11.77348,-1.30895c4.1877,1.34347 8.30579,4.36343 11.35817,8.73644c3.05247,4.37293 4.46737,9.27972 4.2847,13.67383c-0.18057,4.39448 -1.95872,8.27638 -5.28803,10.60026c-3.32931,2.32397 -7.58624,2.6547 -11.77348,1.30895z" stroke-width="1.74188" stroke-linecap="butt"/><path d="M333.43371,303.26311c-4.77088,-1.91204 -11.5181,-5.88857 -17.04005,-9.70845c-3.49025,-2.41768 -7.26446,-5.45079 -8.79983,-7.90884c-3.32694,-5.49682 -4.70457,-10.44782 -4.84148,-14.40836c-0.03498,-0.99064 2.84267,0.98552 4.29091,1.77586c5.66872,3.09613 10.83043,5.30054 17.04005,9.70836c6.20962,4.40782 11.40759,9.01018 14.7865,12.88322c3.37891,3.87295 4.93867,7.01658 3.87788,8.51112c-1.06088,1.49445 -4.54309,1.05905 -9.31397,-0.8529z" stroke-width="2.95037" stroke-linecap="round"/><path d="M334.98232,292.66896c-3.53784,-1.03676 -7.89405,-3.21642 -12.22468,-6.29045c-4.33064,-3.07403 -7.82536,-6.46737 -9.97123,-9.46513c-2.14586,-2.99767 -2.94287,-5.59985 -1.88199,-7.0943c1.06078,-1.49454 3.78024,-1.60068 7.31808,-0.56391c3.53784,1.03676 7.89405,3.21642 12.22468,6.29045c4.33064,3.07403 7.82536,6.46737 9.97123,9.46513c2.14586,2.99767 2.94287,5.59985 1.88199,7.0943c-1.06078,1.49454 -3.78024,1.60068 -7.31808,0.56391z" stroke-width="2.19076" stroke-linecap="butt"/><path d="M332.90286,280.16854c-3.33269,-0.89117 -7.40576,-2.86971 -11.42384,-5.72188c-4.01808,-2.85217 -7.22957,-6.04448 -9.17029,-8.89656c-1.94081,-2.85217 -2.61095,-5.36429 -1.55007,-6.85875c1.06088,-1.49454 3.65338,-1.69073 6.98607,-0.79956c3.33278,0.89126 7.40576,2.86971 11.42394,5.72197c4.01808,2.85217 7.22957,6.04439 9.17029,8.89656c1.94081,2.85217 2.61095,5.36429 1.55007,6.85875c-1.06088,1.49454 -3.65338,1.69073 -6.98616,0.79947z" stroke-width="2.07001" stroke-linecap="butt"/></g></g><g stroke="none"><path d="M348.78292,229.48051c5.76599,0 10.98972,2.34288 14.77298,6.12613c3.78326,3.78326 6.12604,9.00689 6.12604,14.77298c0,5.76599 -2.34279,10.98963 -6.12604,14.77289c-3.78326,3.78335 -9.00698,6.12613 -14.77298,6.12613c-5.76599,0 -10.98972,-2.34279 -14.77298,-6.12613c-3.78326,-3.78326 -6.12613,-9.00689 -6.12613,-14.77289c0,-5.76608 2.34288,-10.98972 6.12613,-14.77298c3.78326,-3.78326 9.00698,-6.12613 14.77298,-6.12613z" fill="#ff561d" stroke-width="2.34681" stroke-linecap="butt"/><path d="M348.66555,233.36598c4.71626,0 8.98899,1.91633 12.08357,5.01091c3.09449,3.09449 5.01082,7.36722 5.01082,12.08348c0,4.71635 -1.91633,8.98899 -5.01082,12.08357c-3.09458,3.09449 -7.36731,5.01082 -12.08357,5.01082c-4.71626,0 -8.98899,-1.91633 -12.08357,-5.01082c-3.09449,-3.09458 -5.01082,-7.36722 -5.01082,-12.08357c0,-4.71626 1.91633,-8.98899 5.01082,-12.08348c3.09458,-3.09458 7.36731,-5.01091 12.08357,-5.01091z" fill="#ff9e23" stroke-width="1.91957" stroke-linecap="butt"/><path d="M348.52443,238.61747c3.22309,0 6.14303,1.30959 8.25775,3.4243c2.11472,2.11472 3.4243,5.03466 3.4243,8.25775c0,3.223 -1.30959,6.14294 -3.4243,8.25766c-2.11472,2.11472 -5.03466,3.4243 -8.25775,3.4243c-3.223,0 -6.14294,-1.30959 -8.25766,-3.4243c-2.11472,-2.11472 -3.4243,-5.03466 -3.4243,-8.25766c0,-3.22309 1.30959,-6.14303 3.4243,-8.25775c2.11472,-2.11472 5.03466,-3.4243 8.25766,-3.4243z" fill="#ffe21d" stroke-width="1.3118" stroke-linecap="butt"/><path d="M342.55512,230.69712l12.96807,-4.81317v5.57309z" fill="#ff561d" stroke-width="1.92751" stroke-linecap="round"/><path d="M354.62489,270.40828l-12.96816,4.81308v-5.57309z" fill="#ff561d" stroke-width="1.92751" stroke-linecap="round"/><path d="M368.19344,243.66371l5.89551,12.51331l-5.553,0.47258z" fill="#ff561d" stroke-width="1.92751" stroke-linecap="round"/><path d="M329.52313,257.40329l-5.89551,-12.51331l5.553,-0.47258z" fill="#ff561d" stroke-width="1.92751" stroke-linecap="round"/><path d="M358.7894,231.80612l12.30195,6.32461l-4.11362,3.76006z" fill="#ff561d" stroke-width="1.92751" stroke-linecap="round"/><path d="M331.78524,238.87996l6.80577,-12.04247l3.59456,4.25885z" fill="#ff561d" stroke-width="1.92751" stroke-linecap="round"/><path d="M366.91317,259.84356l-4.86441,12.94898l-4.20916,-3.65265z" fill="#ff561d" stroke-width="1.92751" stroke-linecap="round"/><path d="M338.2,268.36582l-12.67461,-5.54021l3.86957,-4.01078z" fill="#ff561d" stroke-width="1.92751" stroke-linecap="round"/></g><g stroke="none"><path d="M44.43304,292.56133c4.16687,2.62733 7.37526,5.90814 9.1954,9.08441c1.81999,3.17627 2.24769,6.24919 0.85184,8.46304c-1.39585,2.21389 -4.35289,3.15252 -8.00354,2.87955c-3.65064,-0.27294 -7.99399,-1.75361 -12.16089,-4.38098c-4.16702,-2.62733 -7.37541,-5.90814 -9.1954,-9.08441c-1.82012,-3.17641 -2.24787,-6.24919 -0.85197,-8.46304c1.39585,-2.21389 4.3529,-3.15252 8.00354,-2.87955c3.65064,0.27294 7.994,1.7536 12.16105,4.38097z" fill="#81eb2a" stroke-width="2.05882" stroke-linecap="butt"/><path d="M77.53415,287.60452c3.65064,-0.27294 6.60764,0.66571 8.00353,2.87956c1.39585,2.21389 0.96816,5.28663 -0.85196,8.46303c-1.81999,3.17627 -5.02838,6.45704 -9.19541,9.08441c-4.16688,2.62733 -8.51026,4.10798 -12.16088,4.38097c-3.65064,0.27294 -6.60764,-0.66571 -8.00354,-2.87955c-1.39585,-2.21389 -0.96816,-5.28677 0.85183,-8.46304c1.82012,-3.17627 5.0285,-6.45704 9.1954,-9.08441c4.16702,-2.62733 8.51041,-4.10799 12.16105,-4.38098z" fill="#81eb2a" stroke-width="2.05882" stroke-linecap="butt"/><path d="M51.53894,273.60997h6.63559v35.47813h-6.63559z" fill="#81eb2a" stroke-width="0.97987" stroke-linecap="butt"/><path d="M54.65115,238.55336c8.73859,0 16.6566,2.39989 22.38922,6.2768c5.73409,3.87549 9.28277,9.2295 9.28277,15.13777c0,5.90826 -3.54873,11.26227 -9.28277,15.13777c-5.73262,3.87696 -13.65063,6.2768 -22.38922,6.2768c-8.73858,0 -16.6566,-2.39989 -22.38922,-6.2768c-5.73409,-3.87549 -9.28276,-9.2295 -9.28276,-15.13777c0,-5.90826 3.54872,-11.26228 9.28276,-15.13777c5.73262,-3.87696 13.65064,-6.2768 22.38922,-6.2768z" fill="#ff3e23" stroke-width="1" stroke-linecap="butt"/><path d="M54.52025,243.0511c7.05076,0 13.43959,1.93645 18.06498,5.06467c4.6267,3.12688 7.48999,7.44695 7.48999,12.214c0,4.76722 -2.8633,9.08714 -7.48999,12.21418c-4.62539,3.12817 -11.01422,5.06466 -18.06498,5.06466c-7.05089,0 -13.43973,-1.93644 -18.06514,-5.06466c-4.6267,-3.12704 -7.48999,-7.44696 -7.48999,-12.21418c0,-4.76707 2.8633,-9.08714 7.48999,-12.214c4.62539,-3.12817 11.01423,-5.06467 18.06515,-5.06467z" fill="#ffd41d" stroke-width="0.80687" stroke-linecap="butt"/><path d="M54.76789,247.35917c5.35271,0 10.20273,1.47001 13.71413,3.84472c3.51243,2.37397 5.68612,5.65343 5.68612,9.27257c0,3.61896 -2.17371,6.89843 -5.68612,9.27242c-3.5114,2.37466 -8.36142,3.84472 -13.71413,3.84472c-5.35271,0 -10.20273,-1.47001 -13.71427,-3.84472c-3.51228,-2.37397 -5.68598,-5.65345 -5.68598,-9.27242c0,-3.61911 2.17371,-6.8986 5.68598,-9.27257c3.51158,-2.37466 8.36155,-3.84472 13.71427,-3.84472z" fill="#ffffff" stroke-width="0.61254" stroke-linecap="butt"/><g stroke-width="1"><path d="M48.89258,254.60532c0.77166,0.01872 1.52747,0.66799 1.83985,1.3734c0.61617,1.38781 0.82346,2.76124 0.82346,4.52911c0,1.76786 -0.19004,3.15425 -0.82346,4.5291c-0.33832,0.73854 -1.16178,1.31582 -1.98381,1.30142c-0.76443,0.01439 -1.60952,-0.52979 -1.98382,-1.30142c-0.6651,-1.35901 -0.82345,-2.76123 -0.82345,-4.5291c0,-1.76786 0.13386,-3.17585 0.82345,-4.52911c0.39589,-0.78172 1.29856,-1.35468 2.12777,-1.3734z" fill="#000000" stroke-linecap="round"/><path d="M48.74861,255.68503c0.39736,0 0.75723,0.16125 1.01783,0.42181c0.26058,0.26058 0.42181,0.6205 0.42181,1.01783c0,0.39736 -0.16126,0.75723 -0.42181,1.01783c-0.26058,0.26058 -0.6205,0.42181 -1.01783,0.42181c-0.39736,0 -0.75723,-0.16126 -1.01783,-0.42181c-0.26058,-0.26058 -0.42181,-0.6205 -0.42181,-1.01783c0,-0.39736 0.16126,-0.75723 0.42181,-1.01783c0.26058,-0.26058 0.6205,-0.42181 1.01783,-0.42181z" fill="#ffffff" stroke-linecap="butt"/></g><g stroke-width="1"><path d="M60.26572,254.67729c0.77166,0.01872 1.52746,0.668 1.83984,1.37341c0.61617,1.38781 0.82346,2.76123 0.82346,4.5291c0,1.76786 -0.19004,3.15425 -0.82346,4.5291c-0.33832,0.73854 -1.16178,1.31582 -1.98381,1.30142c-0.76443,0.01439 -1.60951,-0.52979 -1.98382,-1.30142c-0.6651,-1.35901 -0.82346,-2.76124 -0.82346,-4.5291c0,-1.76786 0.13387,-3.17584 0.82346,-4.5291c0.39589,-0.78172 1.29856,-1.35469 2.12777,-1.37341z" fill="#000000" stroke-linecap="round"/><path d="M60.12175,255.75701c0.39736,0 0.75723,0.16125 1.01783,0.42181c0.26058,0.26058 0.42182,0.6205 0.42182,1.01783c0,0.39736 -0.16126,0.75723 -0.42182,1.01783c-0.26058,0.26058 -0.6205,0.42181 -1.01783,0.42181c-0.39736,0 -0.75723,-0.16126 -1.01783,-0.42181c-0.26058,-0.26058 -0.42181,-0.6205 -0.42181,-1.01783c0,-0.39736 0.16126,-0.75723 0.42181,-1.01783c0.26058,-0.26058 0.6205,-0.42181 1.01783,-0.42181z" fill="#ffffff" stroke-linecap="butt"/></g></g><text transform="translate(12.99527,123.78356) scale(0.66931,0.66931)" font-size="22" xml:space="preserve" fill="#a1f3f9" fill-rule="nonzero" stroke="none" stroke-width="1" stroke-linecap="butt" stroke-linejoin="miter" stroke-miterlimit="10" stroke-dasharray="" stroke-dashoffset="0" font-family="&quot;Microsoft YaHei&quot;, &quot;微软雅黑&quot;, STXihei, &quot;华文细黑&quot;" font-weight="400" text-anchor="start" style="mix-blend-mode: normal"><tspan x="0" dy="0">Throughout your adventure, you can find several</tspan><tspan x="0" dy="24.86px">power-ups to enhance your abilities.</tspan><tspan x="0" dy="24.86px"> </tspan><tspan x="0" dy="24.86px">When you collect a power-up, you will see an</tspan><tspan x="0" dy="24.86px">icon on the screen! </tspan><tspan x="0" dy="24.86px"> </tspan><tspan x="0" dy="24.86px">Press or tap X to use the powerup!</tspan><tspan x="0" dy="24.86px"> </tspan><tspan x="0" dy="24.86px"> </tspan><tspan x="0" dy="24.86px"> </tspan><tspan x="0" dy="24.86px"> </tspan><tspan x="0" dy="24.86px"> </tspan><tspan x="0" dy="24.86px"> </tspan><tspan x="0" dy="24.86px">There will be many power-ups in the worlds you visit.</tspan></text><g data-paper-data="{&quot;index&quot;:null}"><g data-paper-data="{&quot;origPos&quot;:null,&quot;index&quot;:null,&quot;origRot&quot;:0}" stroke="none" stroke-width="0" stroke-linecap="butt"><path d="M437.5226,256.4937c3.34131,4.13434 1.39624,10.43363 -6.17442,16.55215c-6.08916,4.92118 -19.09881,13.04031 -19.09881,13.04031l-9.88467,-12.52184c0,0 6.2827,-6.94667 13.85336,-13.06519c7.57067,-6.11851 17.96323,-8.13974 21.30455,-4.00541z" data-paper-data="{&quot;origRot&quot;:0,&quot;origPos&quot;:null}" fill="#ff0021"/><g data-paper-data="{&quot;origPos&quot;:null}" fill="#ffffff"><path d="M404.24419,303.98943c-7.84914,7.86844 -13.68993,0.65622 -21.44359,-6.04068c-7.10544,-6.13703 -4.89731,-20.06595 0.6293,-24.64903c7.61805,-6.31747 14.91785,2.73378 20.47858,10.29875c5.56072,7.56498 7.66472,13.04392 0.33571,20.39096z" data-paper-data="{&quot;origRot&quot;:0,&quot;origPos&quot;:null}"/><path d="M414.12038,292.58168c-5.38407,4.23204 -4.70727,1.0956 -12.98217,-9.5689c-7.26387,-9.36151 -8.68219,-10.65963 -3.96898,-14.75011c4.21313,-3.65647 7.98212,3.83972 12.28301,9.67466c4.30088,5.83496 7.81207,12.17313 4.66814,14.64435z" data-paper-data="{&quot;origRot&quot;:0,&quot;origPos&quot;:null}"/></g></g><g data-paper-data="{&quot;origPos&quot;:null,&quot;origRot&quot;:0}" stroke="none" stroke-width="0" stroke-linecap="butt"><path d="M469.40397,312.5607c-10.03642,-3.29173 -25.07329,-5.43444 -25.07329,-5.43444c0,0 -0.71941,-5.55766 0.65255,-10.58002c1.44067,-5.06278 3.60647,-10.00268 3.60647,-10.00268c0,0 12.85078,-0.32188 19.54966,0.82858c5.35798,0.92018 8.07595,1.10564 10.23375,0.95039c6.01347,-0.43264 9.74553,-4.1638 11.3461,1.64887c2.35003,8.53441 1.16296,15.14226 -3.37929,22.74006c-3.66689,6.13358 -6.99988,7.27887 -11.17372,6.83136c-1.0316,-0.11061 -1.4205,-5.55812 -5.76223,-6.98211z" data-paper-data="{&quot;origPos&quot;:null}" fill="#004bd6"/><path d="M488.98533,325.23461c-3.68054,-0.98771 -5.08602,-7.66925 -3.13923,-14.92365c1.41814,-5.28447 4.37334,-16.32035 8.11846,-20.3092c0.87005,-0.92668 2.76437,-0.38819 3.88421,-0.09955c1.4107,0.3636 -0.62833,5.03136 -0.62833,5.03136c0,0 1.9762,2.07796 2.54035,4.13501c1.81712,6.62589 -0.94176,18.25532 -2.23483,20.45879c-1.97313,3.3623 -4.77538,6.71769 -8.54065,5.70724z" data-paper-data="{&quot;origPos&quot;:null}" fill="#f9c869"/><path d="M474.76341,309.46916c1.02357,-3.81413 6.25016,-9.09166 8.04856,-12.60748c2.77767,-5.43025 1.95798,-4.75846 3.76118,-8.9973c0.48844,-1.14821 5.6176,0.28911 8.70374,1.38383c1.49108,0.52892 -0.41484,6.38238 -0.41484,6.38238c0,0 2.40233,10.04971 0.20145,18.25091c-2.20088,8.2012 -6.53491,11.76682 -11.2964,11.9039c-7.83986,0.22571 -11.20457,-8.11504 -9.00369,-16.31624z" data-paper-data="{&quot;origPos&quot;:null}" fill="url(#color-9)"/></g><g data-paper-data="{&quot;origPos&quot;:null,&quot;origRot&quot;:0}" stroke="none" stroke-width="0" stroke-linecap="butt"><path d="M484.74937,298.22416c-10.31845,-2.25722 -23.22028,0.29005 -23.22028,0.29005c0,0 -1.57283,-6.76996 -1.65739,-10.79158c-0.10715,-5.0959 1.16615,-12.57092 1.16615,-12.57092c0,0 13.11866,-2.32346 19.89966,-1.8581c5.42366,0.37221 8.14643,0.28116 10.27737,-0.09206c5.93862,-1.04008 9.27316,-5.1304 11.45481,0.49005c3.20318,8.25216 2.69217,14.94632 -1.05637,22.96549c-3.02613,6.47374 -6.22584,7.95104 -10.42354,7.92901c-1.03749,-0.00544 -1.97669,-5.38545 -6.44042,-6.36192z" data-paper-data="{&quot;origPos&quot;:null}" fill="#004bd6"/><path d="M505.51477,308.84753c-3.76172,-0.60947 -5.83737,-7.11408 -4.6361,-14.52848c0.87507,-5.40102 2.69616,-16.67965 6.01757,-21.02764c0.77161,-1.01011 2.71077,-0.66645 3.8541,-0.49284c1.4403,0.2187 -0.11498,5.06914 -0.11498,5.06914c0,0 2.17669,1.8669 2.94648,3.85615c2.47953,6.40752 0.91393,18.25672 -0.14908,20.57994c-1.62207,3.545 -4.06969,7.16722 -7.91801,6.54372z" data-paper-data="{&quot;origPos&quot;:null}" fill="#f9c869"/><path d="M500.37928,309.92454c-7.77658,1.01939 -11.96958,-6.93724 -10.61153,-15.31932c0.63159,-3.89826 5.29619,-9.67849 6.72887,-13.35853c2.2128,-5.68388 1.46545,-4.93245 2.8296,-9.33227c0.36952,-1.19182 5.61796,-0.28192 8.79919,0.49427c1.53703,0.37501 0.23439,6.39155 0.23439,6.39155c0,0 3.40884,9.75436 2.05079,18.13644c-1.35805,8.38208 -5.30827,12.36873 -10.03131,12.98785z" data-paper-data="{&quot;origPos&quot;:null}" fill="url(#color-10)"/></g><g data-paper-data="{&quot;origPos&quot;:null,&quot;origRot&quot;:0}"><path d="M422.0186,297.17931c-13.28781,-15.94813 -9.25507,-21.87628 2.23159,-31.81242c6.21176,-5.37327 11.51826,-13.19506 19.72934,-13.38578c11.02115,-0.25599 17.75959,5.51857 24.97176,13.85618c6.64818,7.68562 3.75215,23.46307 -7.73451,33.39921c-11.48666,9.93614 -25.6423,14.21269 -39.19819,-2.0572z" data-paper-data="{&quot;origPos&quot;:null}" fill="url(#color-11)" stroke="none" stroke-width="0" stroke-linecap="butt"/><path d="M421.62607,296.72554c0,0 -9.92252,-7.98288 -7.89498,-19.33451c0.85836,-4.80571 5.5377,-11.9209 11.35478,-16.71365c5.81708,-4.79276 11.00485,-7.76053 17.24533,-8.51799c9.53806,-1.15771 17.81733,9.92139 17.81733,9.92139c0,0 -6.044,10.2088 -14.71693,17.22591c-9.45546,7.65024 -23.80554,17.41885 -23.80554,17.41885z" data-paper-data="{&quot;origPos&quot;:null}" fill="#ff0021" stroke="none" stroke-width="0" stroke-linecap="butt"/><path d="M433.93191,292.76188c0,0 -7.35165,-6.76467 -10.38827,-11.12283c-2.36418,-3.39309 -5.2205,-9.96666 -5.2205,-9.96666" data-paper-data="{&quot;origPos&quot;:null,&quot;origRot&quot;:0}" fill="none" stroke="#0052ef" stroke-width="10" stroke-linecap="round"/><path d="M453.12177,276.88567c0,0 -8.16301,-5.7596 -11.73654,-9.68955c-2.7822,-3.0597 -6.46278,-9.20979 -6.46278,-9.20979" data-paper-data="{&quot;origPos&quot;:null}" fill="none" stroke="#0052ef" stroke-width="10" stroke-linecap="round"/><path d="M454.45019,273.22434c1.48139,1.71256 1.29398,4.30176 -0.41857,5.78314c-1.71256,1.48139 -4.30176,1.29398 -5.78314,-0.41857c-1.48138,-1.71255 -1.29398,-4.30177 0.41857,-5.78315c1.71256,-1.48139 4.30177,-1.29398 5.78315,0.41857z" data-paper-data="{&quot;origPos&quot;:null}" fill="#ffe84f" stroke="none" stroke-width="0" stroke-linecap="butt"/><path d="M435.69379,289.4489c1.48139,1.71256 1.29399,4.30177 -0.41856,5.78315c-1.71255,1.48139 -4.30177,1.29398 -5.78315,-0.41857c-1.48138,-1.71255 -1.29398,-4.30176 0.41857,-5.78314c1.71256,-1.48139 4.30176,-1.29398 5.78314,0.41857z" data-paper-data="{&quot;origPos&quot;:null}" fill="#ffe84f" stroke="none" stroke-width="0" stroke-linecap="butt"/></g><g data-paper-data="{&quot;origPos&quot;:null,&quot;origRot&quot;:0}" stroke="none" stroke-width="0" stroke-linecap="butt"><path d="M441.69442,257.94147c7.58021,-6.10669 14.14828,-6.67663 17.48314,-2.53709c3.33487,4.13954 -0.83693,13.87026 -8.41714,19.97695c-7.5802,6.10668 -15.69769,10.77947 -15.69769,10.77947l-10.15016,-12.30762c0,0 10.68503,-11.00005 16.78187,-15.91173z" data-paper-data="{&quot;origRot&quot;:0,&quot;origPos&quot;:null}" fill="#ff0021"/><g data-paper-data="{&quot;origPos&quot;:null}" fill="#ffffff"><path d="M405.72194,277.89418c8.72991,-5.61088 13.64049,-2.39655 19.85949,4.63725c6.219,7.0338 13.5232,16.0815 5.73852,22.19246c-5.6475,4.43327 -19.72848,3.64801 -24.22534,-4.59387c-4.90711,-8.99378 -10.72215,-16.22678 -1.37268,-22.23585z" data-paper-data="{&quot;origRot&quot;:0,&quot;origPos&quot;:null}"/><path d="M418.95915,270.65175c3.07979,-2.55069 8.53284,2.22061 13.32712,7.65743c4.79428,5.43682 11.32468,10.70485 6.86045,14.05012c-4.99412,3.74235 -5.96319,2.08173 -13.57824,-6.99642c-8.67495,-10.34169 -11.88359,-10.34298 -6.60933,-14.71112z" data-paper-data="{&quot;origRot&quot;:0,&quot;origPos&quot;:null}"/></g></g><g data-paper-data="{&quot;origRot&quot;:0,&quot;origPos&quot;:null}"><path d="M366.73966,238.24189c-1.31066,-2.10857 -3.89008,-3.38545 2.70163,-6.23106c6.59171,-2.84561 19.19458,-9.1522 20.63927,-5.80564c1.44469,3.34656 5.75589,8.84291 -0.83582,11.68852c-8.18033,3.53141 -20.48024,3.60573 -22.50509,0.34819z" data-paper-data="{&quot;origPos&quot;:null}" fill="url(#color-12)" stroke="none" stroke-width="0" stroke-linecap="butt"/><path d="M450.19707,246.77563c0,0 -0.04421,2.01819 -2.30788,3.12494c-4.17793,2.04268 -6.33769,1.53531 -6.33769,1.53531c-1.67751,-0.73169 -2.18867,-9.61296 -2.18867,-9.61296c-0.6344,-2.87796 5.60124,-6.68268 5.60124,-6.68268c1.18662,-2.00228 2.81902,3.91298 6.52852,4.27984c3.10133,0.30671 3.10267,3.7518 1.91606,5.75408c-1.18661,2.0023 -3.21159,1.60148 -3.21159,1.60148z" data-paper-data="{&quot;origRot&quot;:0,&quot;origPos&quot;:null}" fill="#5a2c0a" stroke="none" stroke-width="0" stroke-linecap="butt"/><path d="M430.45822,213.22194c1.23837,-0.916 3.13477,-5.2303 8.45884,-7.52867c5.32407,-2.29838 11.32454,2.26348 14.53497,9.70028c3.21042,7.4368 1.37155,17.56127 -8.14957,21.67148c-0.1786,0.0771 -0.92668,1.2562 -1.23628,2.99481c-1.00999,5.67179 2.3025,8.95029 -0.15681,13.32609c-3.8731,6.89133 -6.86424,10.87201 -20.98946,16.62816c-9.99266,4.07209 -14.85248,4.75641 -16.93907,4.20193c-3.67815,-0.97742 -7.16411,-1.50514 -9.7983,-4.25199c-6.83219,-7.12439 -2.30462,-13.96285 -5.56841,-23.27863c-2.83861,-8.10219 -8.08088,-14.2665 -0.39988,-18.10126c5.19167,-2.59196 36.68246,-12.72779 40.24397,-15.36221z" data-paper-data="{&quot;origPos&quot;:null}" fill="#ffdebd" stroke="none" stroke-width="0" stroke-linecap="butt"/><path d="M388.28443,237.09897c-1.61416,-4.62812 -0.5976,-9.19087 2.27053,-10.19119c2.86813,-1.00031 6.50174,1.94059 8.11589,6.56871c1.61415,4.62811 0.59761,9.19086 -2.27052,10.19118c-2.86813,1.00032 -6.50174,-1.94059 -8.11589,-6.56871z" data-paper-data="{&quot;origPos&quot;:null,&quot;origRot&quot;:0}" fill="#ffffff" stroke="none" stroke-width="0" stroke-linecap="butt"/><path d="M424.00152,224.53062c-1.75114,-4.05643 -7.64397,-7.0631 3.19294,-11.27454c2.5739,-1.00027 4.25489,2.93576 6.00603,6.9922c1.75114,4.05644 3.14054,9.65371 0.44723,10.26327c-3.62566,0.82057 -3.71561,-0.85688 -3.71561,-0.85688c0,0 -0.55482,2.23964 -3.58627,2.10314c-2.60586,-0.11733 -1.31046,-4.83232 -2.34431,-7.22719z" data-paper-data="{&quot;origPos&quot;:null}" fill="#5a2c0a" stroke="none" stroke-width="0" stroke-linecap="butt"/><path d="M404.94933,226.45291c2.91004,-0.87087 6.40829,2.22983 7.81356,6.92559c1.40527,4.69576 0.18539,9.20842 -2.72466,10.07928c-2.91004,0.87087 -6.40829,-2.22983 -7.81356,-6.92559c-1.40527,-4.69576 -0.18539,-9.20842 2.72466,-10.07928z" data-paper-data="{&quot;origPos&quot;:null,&quot;origRot&quot;:0}" fill="#ffffff" stroke="none" stroke-width="0" stroke-linecap="butt"/><path d="M403.34293,232.07566c0.87404,-0.37732 1.9409,-0.08088 2.95941,0.70152c1.01759,0.7828 1.98722,2.05248 2.66536,3.62335c0.67814,1.57088 0.93716,3.14732 0.80896,4.42475c-0.12913,1.27783 -0.64507,2.25755 -1.51911,2.63487c-0.87404,0.37732 -1.9409,0.08088 -2.95941,-0.70152c-1.01758,-0.78279 -1.98722,-2.05247 -2.66536,-3.62334c-0.67814,-1.57087 -0.93716,-3.14732 -0.80896,-4.42475c0.12913,-1.27783 0.64507,-2.25755 1.51911,-2.63487z" data-paper-data="{&quot;origPos&quot;:null}" fill="#000000" stroke="none" stroke-width="1" stroke-linecap="butt"/><path d="M389.60423,233.05072c0.87404,-0.37732 1.9409,-0.08088 2.95941,0.70152c1.01759,0.7828 2.08239,2.24012 2.66536,3.62335c0.45136,1.0708 1.13864,2.47109 0.48163,3.38645c-0.75928,1.0216 -2.43704,0.89958 -3.69323,1.15867c-0.75801,0.05819 -1.60005,0.12107 -2.27218,-0.21724c-0.54069,-0.28614 -0.71371,-1.06539 -0.85113,-1.59314c-0.36952,-1.45142 -0.93716,-3.14732 -0.80896,-4.42475c0.12913,-1.27783 0.64507,-2.25755 1.51911,-2.63487z" data-paper-data="{&quot;origPos&quot;:null}" fill="#000000" stroke="none" stroke-width="1" stroke-linecap="round"/><path d="M368.97923,207.83903c-2.67355,-10.53537 6.17887,-17.35279 21.27772,-20.71502c11.72926,-2.61189 29.23077,9.67696 29.23077,9.67696c0.8601,-5.02265 7.72139,-9.43778 7.72139,-9.43778c6.71499,-2.89883 12.94476,-5.53017 17.77583,7.34283c2.19019,5.83606 0.47303,12.27088 -6.24196,15.1697c-3.28315,1.41732 -9.59287,7.90286 -13.16888,7.89838c-13.61909,-0.01708 -27.11039,7.3442 -40.61487,5.58095c-9.26817,-1.21011 -12.25708,-0.8455 -15.98001,-15.51602z" data-paper-data="{&quot;origPos&quot;:null}" fill="#ff0021" stroke="none" stroke-width="0" stroke-linecap="butt"/><path d="M375.01512,214.51918c-2.16704,-5.01984 1.09104,-11.25409 7.2771,-13.92458c6.18607,-2.67049 12.95759,-0.76596 15.12463,4.25388c2.16704,5.01985 3.26269,9.74123 -7.27709,13.92458c-9.98389,3.96272 -12.9576,0.76597 -15.12464,-4.25387z" data-paper-data="{&quot;origPos&quot;:null}" fill="#ffffff" stroke="none" stroke-width="0" stroke-linecap="butt"/><path d="M375.5147,221.23259c14.41669,-6.48682 35.95586,-9.9252 42.40145,-10.52932c5.33379,-0.49991 9.24022,3.33757 11.17679,5.95814c0.52387,0.70891 -9.20006,5.36931 -14.32041,6.94449c-10.53542,3.24104 -48.70857,13.57543 -49.23244,12.86652c-1.93657,-2.62058 4.08114,-12.58805 9.97461,-15.23983z" data-paper-data="{&quot;origPos&quot;:null}" fill="url(#color-13)" stroke="none" stroke-width="0" stroke-linecap="butt"/><path d="M392.25281,213.31042l-4.4025,-6.3383l-1.4203,5.72214l-4.34281,-3.21034l1.63478,7.61662l-4.23496,-0.57879l0.9001,-11.37005l4.60489,3.79528l1.68957,-7.19748l9.51442,9.85866z" data-paper-data="{&quot;origPos&quot;:null}" fill="#ff0021" stroke="none" stroke-width="0" stroke-linecap="butt"/><path d="M392.19538,272.32692c-2.35489,-0.22364 -3.9129,-4.21651 -3.9129,-4.21651c-1.05072,-1.25456 -2.27249,-4.10916 -0.95099,-4.78648c2.66456,-1.3657 13.30188,-1.04435 13.30188,-1.04435c5.61714,-2.05445 15.68463,-10.98339 15.68463,-10.98339c2.69163,-3.40966 2.31471,-8.02181 7.25822,-9.11964c0.8488,-0.1885 2.55163,2.51286 4.80192,7.72555c2.05211,4.75363 0.18636,9.58621 -4.63065,11.66569c-3.00198,1.29594 -6.20917,0.712 -6.34952,1.03439c-0.13284,0.30513 0.47114,1.81696 -1.53794,3.50998c-3.49575,2.94581 -9.32691,5.65294 -13.85187,6.30318c-1.48261,0.21305 -3.75632,-0.197 -5.10705,-2.38957c-0.3909,-0.63453 0.8624,2.82996 -4.70573,2.30115z" data-paper-data="{&quot;origPos&quot;:null}" fill="#38291e" stroke="none" stroke-width="0" stroke-linecap="butt"/><path d="M385.39532,257.56556c-4.9308,-9.40371 -2.07423,-13.94495 7.06199,-17.0721c6.2703,-2.14619 15.00976,1.96929 17.33549,7.35674c2.32574,5.38745 -1.88433,11.71611 -7.9224,14.44822c-13.10087,5.92787 -13.39303,1.14499 -16.47507,-4.73287z" data-paper-data="{&quot;origPos&quot;:null}" fill="#ffdebd" stroke="none" stroke-width="0" stroke-linecap="butt"/><g data-paper-data="{&quot;origPos&quot;:null}" fill="none" stroke="#f6b09a" stroke-width="3.5" stroke-linecap="round"><path d="M442.61053,229.06972c0,0 -5.7734,-5.31794 -2.44601,-11.33042c2.32009,-4.19232 5.72638,-3.77852 5.72638,-3.77852" data-paper-data="{&quot;origPos&quot;:null}"/><path d="M446.06005,221.20098l-5.50862,2.37804" data-paper-data="{&quot;origPos&quot;:null}"/><path d="M444.63453,228.35158l-1.18042,0.50958" data-paper-data="{&quot;origPos&quot;:null}"/></g><path d="M406.84643,222.94024c-1.5125,0.14082 -3.90314,3.37652 -3.90314,3.37652c0,0 -6.16066,-7.11259 2.71708,-10.59555c2.84022,-0.53007 5.01509,2.00157 5.73964,3.67996c1.06711,2.4719 1.16576,6.37991 1.16576,6.37991c0,0 -2.00745,-0.97246 -3.1596,-1.90309c-1.11682,-0.90209 -1.13406,-1.10636 -2.55975,-0.93776z" data-paper-data="{&quot;origPos&quot;:null}" fill="#38291e" stroke="none" stroke-width="0" stroke-linecap="butt"/><path d="M389.88707,227.20512c-1.36097,0.45695 -1.28924,0.64899 -1.91333,1.94187c-0.64383,1.33379 -2.04304,3.07097 -2.04304,3.07097c0,0 -1.58116,-3.57523 -1.67297,-6.26605c-0.06234,-1.82703 0.82179,-5.04536 3.61607,-5.78011c9.51464,-0.64572 6.98511,8.41763 6.98511,8.41763c0,0 -3.54427,-1.90345 -4.97183,-1.38429z" data-paper-data="{&quot;origPos&quot;:null,&quot;index&quot;:null,&quot;origRot&quot;:0}" fill="#38291e" stroke="none" stroke-width="0" stroke-linecap="butt"/></g></g></g></g></svg>