<svg version="1.1" xmlns="http://www.w3.org/2000/svg" xmlns:xlink="http://www.w3.org/1999/xlink" width="437" height="90.79587" viewBox="0,0,437,90.79587"><defs><linearGradient x1="240" y1="135.60207" x2="240" y2="224.39795" gradientUnits="userSpaceOnUse" id="color-1"><stop offset="0" stop-color="#ffffff"/><stop offset="1" stop-color="#d8d8d8"/></linearGradient><linearGradient x1="240" y1="135.60208" x2="240" y2="224.39795" gradientUnits="userSpaceOnUse" id="color-2"><stop offset="0" stop-color="#343434"/><stop offset="1" stop-color="#090909"/></linearGradient><radialGradient cx="443.8065" cy="206.54467" r="17.9081" gradientUnits="userSpaceOnUse" id="color-3"><stop offset="0" stop-color="#ffffff"/><stop offset="1" stop-color="#e5e5e5"/></radialGradient></defs><g transform="translate(-21.5,-134.60208)"><g data-paper-data="{&quot;isPaintingLayer&quot;:true}" fill-rule="nonzero" stroke-linejoin="miter" stroke-miterlimit="10" stroke-dasharray="" stroke-dashoffset="0" style="mix-blend-mode: normal"><path d="M22.5,224.39795v-88.79587h435v88.79587z" data-paper-data="{&quot;origPos&quot;:null}" fill="url(#color-1)" stroke="url(#color-2)" stroke-width="2" stroke-linecap="butt"/><path d="M273.06338,149.58286c-0.44137,1.70273 -0.73838,2.54954 -0.87353,2.54954c-1.86469,-0.12639 -2.79266,-0.25224 -2.79266,-0.36942v-2.61228c0.01796,-0.08116 0.0632,-0.12594 0.12639,-0.12594zM290.3228,149.58286c-0.44137,1.70273 -0.73838,2.54954 -0.87353,2.54954c-1.86469,-0.12639 -2.79257,-0.25224 -2.79257,-0.36942v-2.61228c0.01796,-0.08116 0.0631,-0.12594 0.12584,-0.12594zM229.61769,150.04265l0.46863,6.84577h0.05389l2.45926,-2.57635c1.4505,1.95506 2.18888,2.9278 2.22481,2.9278c0.62175,-3.05365 1.01797,-4.89116 1.17109,-5.50406c2.65751,0.51377 3.98162,0.82 3.98162,0.93718c-1.5944,5.07145 -2.51316,7.94481 -2.74743,8.6117c-0.5673,0.03602 -1.8107,0.15311 -3.74735,0.351c-0.85556,-2.05382 -1.28818,-3.10763 -1.28818,-3.16162c-0.07195,0.00875 -0.52253,0.90079 -1.35137,2.69344h-0.05399c-2.57626,-0.17108 -3.86444,-0.3334 -3.86444,-0.46854c-1.45004,-6.38689 -2.17091,-9.6656 -2.17091,-9.83677v-0.11709c0,-0.11718 1.60361,-0.39623 4.80116,-0.81963zM254.70528,149.97945c0.0807,0 0.31507,3.68415 0.71166,11.06175c-0.30622,0.08116 -1.37855,0.2795 -3.20676,0.59448c-0.09046,0 -0.38747,-2.26083 -0.89204,-6.77382c-0.04514,-0.10843 -0.26099,-1.75672 -0.65768,-4.9364c1.83797,0.03602 3.1888,0.05399 4.04481,0.05399zM247.68798,153.54651c1.40527,1.20692 2.10772,1.85584 2.10772,1.93664c-0.5673,1.78389 -0.89149,2.86452 -0.97265,3.25199c0.5673,1.27012 0.89149,2.02701 0.97265,2.27004c0,0.07195 -0.92797,0.26108 -2.79266,0.57651c-0.02672,-0.09913 -0.1978,-0.3334 -0.51332,-0.68439c-2.56705,0.49535 -3.95444,0.73838 -4.15269,0.73838l-1.36888,-3.70211l3.01726,-1.59449c0.48651,0.08125 1.2434,0.11718 2.27925,0.11718c0,-0.13515 0.01796,-0.53174 0.05399,-1.19826c-0.17108,0 -1.72954,0.11718 -4.6661,0.34224l-0.05399,-0.11709c0.40544,-1.90071 0.65731,-2.84619 0.73847,-2.84619c3.56742,0.49535 5.35095,0.79237 5.35095,0.90955zM261.35326,152.75369l-1.21623,6.45h0.0632l3.09833,-0.90991v-3.64822c0.0093,-0.08116 0.05444,-0.12594 0.11718,-0.12594c2.33323,0.16187 3.63016,0.24312 3.8917,0.24312c0,0.04514 0.01796,0.0631 0.0632,0.0631c0,1.02673 -0.32473,3.15287 -0.9732,6.38644c0,0.18913 -0.92742,0.32428 -2.79211,0.4234c-0.09922,-0.11718 -0.18038,-0.36021 -0.24357,-0.72963c-2.38722,0.4866 -3.74735,0.72963 -4.08029,0.72963c-1.90117,-1.41411 -2.85585,-2.14374 -2.85585,-2.18888c0.32428,-4.26076 0.53128,-6.4676 0.61254,-6.62992h0.05389c1.52245,-0.04478 2.91905,-0.09922 4.19802,-0.17992zM283.90919,152.99717c0.44146,6.64788 0.65777,10.18813 0.65777,10.61154c-1.93664,1.23373 -3.31519,2.06258 -4.15278,2.50394c-2.94577,-0.92751 -4.41377,-1.45004 -4.41377,-1.58519c0.94548,-1.3873 1.49518,-2.08975 1.64838,-2.10817c1.60315,0.79282 2.52237,1.18941 2.76539,1.18941l0.85556,-1.12622c-0.22506,-0.92797 -0.37817,-1.47731 -0.45942,-1.64838c-0.13506,0 -1.75626,0.26099 -4.88232,0.79282c-1.71158,-2.78345 -2.56714,-4.20677 -2.56714,-4.27918c1.47731,-2.35995 2.37801,-3.74735 2.70229,-4.15269h0.0631c0.17117,0 1.46855,0.28826 3.89125,0.85602v-0.19834c0,-0.23427 -0.01796,-0.61254 -0.06265,-1.12585l0.12584,-0.0632c2.54963,0.0632 3.82851,0.18038 3.82851,0.33349zM268.58641,153.31215c2.73867,0.49581 4.10801,0.79282 4.10801,0.87407c-0.78407,4.45891 -1.26146,6.93614 -1.43253,7.44946h-2.8554c-0.08116,0 -0.1263,-0.04478 -0.1263,-0.12594l0.25224,-8.1976zM285.84583,153.31215c2.73867,0.49581 4.10755,0.79282 4.10755,0.87407c-0.78361,4.45891 -1.26091,6.93614 -1.43208,7.44946h-2.85531c-0.08116,0 -0.12639,-0.04478 -0.12639,-0.12594l0.25233,-8.1976zM278.04492,159.45602c0.55855,-0.18038 1.41457,-0.51377 2.5676,-0.99116c-0.22552,-1.08062 -0.33349,-1.69361 -0.33349,-1.84673l-0.32419,-0.06274h-0.39668c-0.50411,0 -1.27021,-0.02718 -2.30606,-0.07241c0.08116,0.18959 0.35145,1.1803 0.79282,2.97304zM244.78745,160.04128h0.05389c0.75689,-0.49535 1.13506,-0.81963 1.13506,-0.97274l0.11718,-0.9639c-0.14436,0 -0.77486,-0.05399 -1.88265,-0.17108c0,0.0631 0.18904,0.76556 0.57651,2.10772z" data-paper-data="{&quot;origPos&quot;:null}" fill="#2b70c2" stroke="none" stroke-width="0.50576" stroke-linecap="butt"/><g data-paper-data="{&quot;origPos&quot;:null}"><path d="M444.3058,202.09868c2.5136,0 4.7909,1.0212 6.4406,2.6702c1.6489,1.6496 2.6702,3.9269 2.6702,6.4405c0,2.5136 -1.0213,4.791 -2.6702,6.4406c-1.6497,1.649 -3.927,2.6702 -6.4406,2.6702c-2.5136,0 -4.7909,-1.0212 -6.4406,-2.6702c-1.6489,-1.6496 -2.6701,-3.927 -2.6701,-6.4406c0,-2.5136 1.0212,-4.7909 2.6701,-6.4405c1.6497,-1.649 3.927,-2.6702 6.4406,-2.6702z" fill="url(#color-3)" stroke="#000000" stroke-width="2.0785" stroke-linecap="butt"/><path d="M441.2734,206.54887l5.6119,0.4503l1.7321,3.187l-3.6374,2.9446l3.3603,-0.5197l0.7967,3.4642l-7.4479,-0.0693l-1.9053,-2.4249l4.6766,-3.3256l-4.5727,-0.3464z" fill="#000000" stroke="none" stroke-width="0.69283" stroke-linecap="round"/></g><path d="M38.335,149.65706c2.449,0.547 3.81,0.86 4.083,0.939v0.064c-0.085,2.194 -0.149,3.47 -0.191,3.828c0.139,0 0.768,0.146 1.886,0.438c1.003,-3.093 1.547,-4.64 1.632,-4.64c1.677,0.754 2.743,1.255 3.199,1.504v0.064c-1.841,4.284 -2.886,6.648 -3.135,7.091c-0.462,0.383 -2.072,1.847 -4.831,4.393h-0.064l-5.086,-2.506c0.468,-0.802 1.033,-1.723 1.696,-2.762c0.03,0 0.826,0.523 2.388,1.568h0.063c0.523,-0.426 1.149,-1.033 1.878,-1.823c0,-0.037 -1.191,-1.206 -3.573,-3.509v-4.521z" data-paper-data="{&quot;origPos&quot;:null}" fill="#000000" stroke="none" stroke-width="1" stroke-linecap="butt"/><path d="M53.611,152.41905c2.309,0.62 3.533,0.997 3.673,1.13c1.27,1.799 1.984,2.835 2.142,3.108c-0.82,2.601 -1.291,3.901 -1.413,3.901c-2.734,0.638 -4.165,0.957 -4.293,0.957c-2.26,-1.318 -3.463,-2.053 -3.609,-2.205c-0.079,-2.455 -0.119,-3.81 -0.119,-4.065c-0.036,-0.073 -0.054,-0.128 -0.054,-0.164c2.333,-1.775 3.539,-2.662 3.618,-2.662zM53.383,155.75507c-0.037,0.243 -0.091,1.127 -0.164,2.652l2.032,0.456c0.486,-1.519 0.73,-2.33 0.73,-2.434c-1.617,-0.486 -2.483,-0.729 -2.598,-0.729z" data-paper-data="{&quot;origPos&quot;:null}" fill="#000000" stroke="none" stroke-width="1" stroke-linecap="butt"/><path d="M65.177,152.41007l0.064,0.118l-1.231,6.526h0.064l3.136,-0.92v-3.692c0.012,-0.085 0.051,-0.127 0.118,-0.127c2.358,0.164 3.67,0.246 3.938,0.246c0,0.043 0.021,0.064 0.064,0.064c0,1.039 -0.329,3.193 -0.985,6.462c0,0.188 -0.942,0.331 -2.825,0.428c-0.098,-0.115 -0.18,-0.361 -0.246,-0.738c-2.413,0.492 -3.789,0.738 -4.129,0.738c-1.927,-1.434 -2.89,-2.172 -2.89,-2.214c0.328,-4.309 0.535,-6.545 0.62,-6.709h0.055c1.537,-0.042 2.953,-0.103 4.247,-0.182z" data-paper-data="{&quot;origPos&quot;:null}" fill="#000000" stroke="none" stroke-width="1" stroke-linecap="butt"/><path d="M80.462,152.41905c2.741,0.517 4.175,0.811 4.302,0.884v0.11c-0.589,1.664 -0.884,2.527 -0.884,2.588h-0.054c-0.152,0 -0.888,-0.237 -2.206,-0.711c-0.735,1.234 -1.103,1.893 -1.103,1.978l1.823,1.768c1.41,-1.324 2.127,-1.987 2.151,-1.987c1.1,1.44 1.65,2.249 1.65,2.425c-0.602,0.346 -1.65,1.027 -3.145,2.041c-2.892,-0.625 -4.454,-0.975 -4.685,-1.048l-1.431,-4.63z" data-paper-data="{&quot;origPos&quot;:null}" fill="#000000" stroke="none" stroke-width="1" stroke-linecap="butt"/><path d="M88.438,152.41007c3.609,0.498 5.414,0.805 5.414,0.921c1.422,1.221 2.132,1.874 2.132,1.959c-0.577,1.805 -0.905,2.902 -0.984,3.291c0.577,1.282 0.905,2.047 0.984,2.296c0,0.073 -0.941,0.268 -2.825,0.584c-0.024,-0.104 -0.198,-0.334 -0.52,-0.693c-2.6,0.498 -4.001,0.747 -4.201,0.747l-1.386,-3.746l3.054,-1.613c0.492,0.079 1.26,0.119 2.306,0.119c0,-0.134 0.018,-0.538 0.054,-1.213c-0.176,0 -1.75,0.116 -4.721,0.347l-0.055,-0.119c0.413,-1.92 0.663,-2.88 0.748,-2.88zM90.333,157.76907c0,0.067 0.195,0.778 0.584,2.133h0.054c0.766,-0.498 1.149,-0.826 1.149,-0.984l0.118,-0.976c-0.145,0 -0.78,-0.057 -1.905,-0.173z" data-paper-data="{&quot;origPos&quot;:null}" fill="#000000" stroke="none" stroke-width="1" stroke-linecap="butt"/><path d="M104.953,152.41007l3.035,2.087c-0.212,3.464 -0.361,5.487 -0.446,6.07c-0.353,0.043 -1.425,0.107 -3.218,0.192l-0.063,-0.128l-0.32,-4.867l-0.127,-0.064c-1.161,0.249 -1.96,0.438 -2.397,0.565c0.121,2.072 0.182,3.57 0.182,4.494c-1.811,0.504 -2.801,0.756 -2.971,0.756c-1.179,-5.189 -1.769,-7.929 -1.769,-8.221c2.565,-0.334 3.956,-0.501 4.175,-0.501v0.064c0.042,0.03 0.106,0.662 0.191,1.895c2.352,-1.561 3.595,-2.342 3.728,-2.342z" data-paper-data="{&quot;origPos&quot;:null}" fill="#000000" stroke="none" stroke-width="1" stroke-linecap="butt"/><path d="M121.615,152.41007l3.035,2.087c-0.213,3.464 -0.362,5.487 -0.447,6.07c-0.352,0.043 -1.425,0.107 -3.217,0.192l-0.064,-0.128l-0.319,-4.867l-0.128,-0.064c-1.16,0.249 -1.959,0.438 -2.397,0.565c0.122,2.072 0.182,3.57 0.182,4.494c-1.81,0.504 -2.801,0.756 -2.971,0.756c-1.179,-5.189 -1.768,-7.929 -1.768,-8.221c2.564,-0.334 3.956,-0.501 4.174,-0.501v0.064c0.043,0.03 0.107,0.662 0.192,1.895c2.351,-1.561 3.594,-2.342 3.728,-2.342z" data-paper-data="{&quot;origPos&quot;:null}" fill="#000000" stroke="none" stroke-width="1" stroke-linecap="butt"/><path d="M129.225,152.41905c2.309,0.62 3.534,0.997 3.674,1.13c1.269,1.799 1.983,2.835 2.141,3.108c-0.82,2.601 -1.291,3.901 -1.412,3.901c-2.735,0.638 -4.166,0.957 -4.293,0.957c-2.261,-1.318 -3.464,-2.053 -3.61,-2.205c-0.079,-2.455 -0.118,-3.81 -0.118,-4.065c-0.037,-0.073 -0.055,-0.128 -0.055,-0.164c2.333,-1.775 3.54,-2.662 3.619,-2.662zM128.997,155.75507c-0.036,0.243 -0.091,1.127 -0.164,2.652l2.033,0.456c0.486,-1.519 0.729,-2.33 0.729,-2.434c-1.616,-0.486 -2.482,-0.729 -2.598,-0.729z" data-paper-data="{&quot;origPos&quot;:null}" fill="#000000" stroke="none" stroke-width="1" stroke-linecap="butt"/><path d="M139.871,152.41007c0.079,0.103 0.489,1.865 1.231,5.286h0.063c0,-0.079 0.45,-0.774 1.349,-2.087c0.377,0.255 1.094,0.808 2.151,1.659h0.128v-0.064c0.164,-2.37 0.286,-3.682 0.365,-3.937c2.503,0.127 3.755,0.231 3.755,0.31c-1.149,4.618 -1.762,7.018 -1.841,7.2c-0.383,0.043 -1.185,0.164 -2.407,0.365c-1.002,-1.574 -1.576,-2.413 -1.722,-2.516c-0.656,1.75 -1.067,2.713 -1.231,2.889h-2.461c-0.152,-0.048 -0.869,-1.628 -2.151,-4.739c-0.82,-1.738 -1.23,-2.68 -1.23,-2.826c0,-0.133 1.334,-0.647 4.001,-1.54z" data-paper-data="{&quot;origPos&quot;:null}" fill="#000000" stroke="none" stroke-width="1" stroke-linecap="butt"/><path d="M159.112,152.41905c0.188,0.778 0.319,1.258 0.392,1.44c2.686,-0.614 4.105,-0.92 4.257,-0.92c1.828,2.631 2.743,4.004 2.743,4.119l-2.096,4.448l-4.512,-0.72v0.137c0.352,2.704 0.529,4.141 0.529,4.311c-0.043,0 -0.064,0.021 -0.064,0.064c-0.438,-0.043 -0.766,-0.064 -0.985,-0.064h-0.783c-0.456,0 -1.155,-0.021 -2.097,-0.064c-0.085,-0.255 -0.738,-4.135 -1.959,-11.639c0.206,-0.085 1.731,-0.456 4.575,-1.112zM159.44,156.14707c0.122,1.397 0.231,2.096 0.328,2.096c1.246,0.432 2.009,0.647 2.288,0.647l0.72,-3.135h-0.064c-0.711,0.043 -1.801,0.173 -3.272,0.392z" data-paper-data="{&quot;origPos&quot;:null}" fill="#000000" stroke="none" stroke-width="1" stroke-linecap="butt"/><path d="M167.443,149.66607c1.859,0.037 3.223,0.055 4.092,0.055c0.079,0 0.319,3.731 0.72,11.193c-0.31,0.079 -1.391,0.279 -3.244,0.601c-0.092,0 -0.392,-2.284 -0.903,-6.854c-0.042,-0.109 -0.264,-1.774 -0.665,-4.995z" data-paper-data="{&quot;origPos&quot;:null}" fill="#000000" stroke="none" stroke-width="1" stroke-linecap="butt"/><path d="M174.662,152.41007c3.609,0.498 5.414,0.805 5.414,0.921c1.421,1.221 2.132,1.874 2.132,1.959c-0.577,1.805 -0.905,2.902 -0.984,3.291c0.577,1.282 0.905,2.047 0.984,2.296c0,0.073 -0.941,0.268 -2.825,0.584c-0.024,-0.104 -0.198,-0.334 -0.52,-0.693c-2.6,0.498 -4.001,0.747 -4.201,0.747l-1.386,-3.746l3.053,-1.613c0.493,0.079 1.261,0.119 2.306,0.119c0,-0.134 0.019,-0.538 0.055,-1.213c-0.176,0 -1.75,0.116 -4.721,0.347l-0.055,-0.119c0.413,-1.92 0.662,-2.88 0.748,-2.88zM176.557,157.76907c0,0.067 0.195,0.778 0.584,2.133h0.054c0.766,-0.498 1.149,-0.826 1.149,-0.984l0.118,-0.976c-0.146,0 -0.78,-0.057 -1.905,-0.173z" data-paper-data="{&quot;origPos&quot;:null}" fill="#000000" stroke="none" stroke-width="1" stroke-linecap="butt"/><path d="M187.276,152.42807c0.085,0.012 0.128,0.055 0.128,0.128l-0.948,5.25c1.811,-0.213 2.716,-0.383 2.716,-0.511c0.34,-2.102 0.574,-3.281 0.702,-3.536c2.242,0.462 3.485,0.735 3.728,0.82c-1.307,4.491 -2.024,6.83 -2.151,7.018c-2.285,1.605 -3.57,2.492 -3.856,2.662c-0.085,0 -1.54,-0.359 -4.366,-1.076v-0.063c0.748,-1.647 1.212,-2.47 1.395,-2.47l2.78,1.394l1.33,-2.279c-1.197,0.298 -1.892,0.447 -2.087,0.447l-3.545,-1.841c0.431,-3.962 0.705,-5.943 0.82,-5.943z" data-paper-data="{&quot;origPos&quot;:null}" fill="#000000" stroke="none" stroke-width="1" stroke-linecap="butt"/><path d="M200.511,152.41007c3.609,0.498 5.414,0.805 5.414,0.921c1.421,1.221 2.132,1.874 2.132,1.959c-0.577,1.805 -0.905,2.902 -0.984,3.291c0.577,1.282 0.905,2.047 0.984,2.296c0,0.073 -0.941,0.268 -2.825,0.584c-0.024,-0.104 -0.198,-0.334 -0.52,-0.693c-2.6,0.498 -4.001,0.747 -4.201,0.747l-1.386,-3.746l3.053,-1.613c0.493,0.079 1.261,0.119 2.306,0.119c0,-0.134 0.019,-0.538 0.055,-1.213c-0.176,0 -1.75,0.116 -4.721,0.347l-0.055,-0.119c0.413,-1.92 0.662,-2.88 0.747,-2.88zM202.406,157.76907c0,0.067 0.195,0.778 0.584,2.133h0.054c0.766,-0.498 1.149,-0.826 1.149,-0.984l0.118,-0.976c-0.146,0 -0.781,-0.057 -1.905,-0.173z" data-paper-data="{&quot;origPos&quot;:null}" fill="#000000" stroke="none" stroke-width="1" stroke-linecap="butt"/><path d="M216.288,152.41007c1.75,1.118 2.716,1.762 2.898,1.932c-0.632,1.404 -0.993,2.106 -1.084,2.106l-3.318,-1.923h-0.119c0,0.06 -0.142,0.401 -0.428,1.02c3.056,1.647 4.585,2.492 4.585,2.534c-0.857,1.981 -1.34,3.026 -1.45,3.136l-5.186,0.3c-2.017,-1.336 -3.102,-2.041 -3.254,-2.114v-0.055c0,-0.152 0.301,-0.835 0.903,-2.051l4.047,2.106l0.3,-1.203c-2.503,-1.124 -3.992,-1.826 -4.466,-2.106v-0.127c0,-0.231 0.483,-1.255 1.449,-3.072z" data-paper-data="{&quot;origPos&quot;:null}" fill="#000000" stroke="none" stroke-width="1" stroke-linecap="butt"/><path d="M295.92167,149.99507l0.037,0.072c-0.608,5.366 -0.948,8.185 -1.021,8.459c-1.288,-0.122 -2.102,-0.207 -2.443,-0.255v-0.037l-0.583,-7.62c0.146,-0.048 1.483,-0.255 4.01,-0.619zM292.31267,158.70807c0.042,0.024 0.99,0.097 2.844,0.219l0.036,0.073c-0.285,1.677 -0.468,2.515 -0.547,2.515h-2.114c-0.073,0 -0.17,-0.838 -0.292,-2.515c-0.024,0 -0.036,-0.073 -0.036,-0.219c0.072,-0.024 0.109,-0.049 0.109,-0.073z" data-paper-data="{&quot;origPos&quot;:null}" fill="#000000" stroke="none" stroke-width="1" stroke-linecap="butt"/></g></g></svg>