<svg version="1.1" xmlns="http://www.w3.org/2000/svg" xmlns:xlink="http://www.w3.org/1999/xlink" width="437" height="90.79587" viewBox="0,0,437,90.79587"><defs><linearGradient x1="240" y1="135.60206" x2="240" y2="224.39795" gradientUnits="userSpaceOnUse" id="color-1"><stop offset="0" stop-color="#ffffff"/><stop offset="1" stop-color="#d8d8d8"/></linearGradient><linearGradient x1="240" y1="135.60208" x2="240" y2="224.39795" gradientUnits="userSpaceOnUse" id="color-2"><stop offset="0" stop-color="#343434"/><stop offset="1" stop-color="#090909"/></linearGradient><radialGradient cx="443.8065" cy="206.54466" r="17.9081" gradientUnits="userSpaceOnUse" id="color-3"><stop offset="0" stop-color="#ffffff"/><stop offset="1" stop-color="#e5e5e5"/></radialGradient></defs><g transform="translate(-21.5,-134.60208)"><g data-paper-data="{&quot;isPaintingLayer&quot;:true}" fill-rule="nonzero" stroke-linejoin="miter" stroke-miterlimit="10" stroke-dasharray="" stroke-dashoffset="0" style="mix-blend-mode: normal"><path d="M22.5,224.39795v-88.79587h435v88.79587z" data-paper-data="{&quot;origPos&quot;:null}" fill="url(#color-1)" stroke="url(#color-2)" stroke-width="2" stroke-linecap="butt"/><g data-paper-data="{&quot;origPos&quot;:null}"><path d="M444.3058,202.09868c2.5136,0 4.7909,1.0212 6.4406,2.6702c1.6489,1.6496 2.6702,3.9269 2.6702,6.4405c0,2.5136 -1.0213,4.791 -2.6702,6.4406c-1.6497,1.649 -3.927,2.6702 -6.4406,2.6702c-2.5136,0 -4.7909,-1.0212 -6.4406,-2.6702c-1.6489,-1.6496 -2.6701,-3.927 -2.6701,-6.4406c0,-2.5136 1.0212,-4.7909 2.6701,-6.4405c1.6497,-1.649 3.927,-2.6702 6.4406,-2.6702z" fill="url(#color-3)" stroke="#000000" stroke-width="2.0785" stroke-linecap="butt"/><path d="M441.2734,206.54886l5.6119,0.4503l1.7321,3.187l-3.6374,2.9446l3.3603,-0.5197l0.7967,3.4642l-7.4479,-0.0693l-1.9053,-2.4249l4.6766,-3.3256l-4.5727,-0.3464z" fill="#000000" stroke="none" stroke-width="0.69283" stroke-linecap="round"/></g><path d="M44.602,151.05108c-0.699,2.066 -1.049,3.133 -1.049,3.199c0.17,0.171 0.629,0.756 1.377,1.758v0.11c-1.131,1.993 -1.79,3.096 -1.979,3.308l-7.555,0.557c-0.115,-0.45 -0.687,-3.944 -1.714,-10.483l7.119,-1.375c2.175,1.58 3.442,2.556 3.801,2.926zM38.148,154.19606c1.605,-0.389 2.412,-0.612 2.424,-0.666c0.073,-0.183 0.241,-0.771 0.502,-1.768l-3.254,-0.82zM39.143,155.35206h-0.602c-0.079,0.012 -0.119,0.049 -0.119,0.109c-0.037,0.79 -0.055,1.377 -0.055,1.76c-0.036,0.195 -0.054,0.308 -0.054,0.338l2.871,-0.447l-0.055,-0.274v-0.328c0,-0.261 -0.018,-0.666 -0.055,-1.213c-0.869,0.037 -1.512,0.055 -1.931,0.055z" data-paper-data="{&quot;origPos&quot;:null}" fill="#000000" stroke="none" stroke-width="1" stroke-linecap="butt"/><path d="M51.027,150.88606c2.753,1.416 4.278,2.242 4.576,2.479c-0.395,1.848 -0.629,2.799 -0.702,2.853h-5.76v0.101l1.613,1.996l2.534,-1.295c0.249,0.432 0.607,1.185 1.075,2.261c-0.218,0.073 -1.814,0.307 -4.785,0.702c-2.461,-1.623 -3.7,-2.467 -3.719,-2.534c0.395,-3.154 0.629,-4.731 0.702,-4.731c2.57,-1.093 4.059,-1.704 4.466,-1.832zM50.435,153.09208c-0.049,0.121 -0.371,0.605 -0.966,1.449c0,0.255 0.358,0.383 1.075,0.383c0,0.036 0.52,0.125 1.559,0.264c0.285,-0.395 0.428,-0.626 0.428,-0.692c-0.091,-0.541 -0.288,-0.812 -0.592,-0.812z" data-paper-data="{&quot;origPos&quot;:null}" fill="#000000" stroke="none" stroke-width="1" stroke-linecap="butt"/><path d="M64.645,150.88606c2.74,0.517 4.174,0.811 4.302,0.884v0.11c-0.59,1.665 -0.885,2.527 -0.885,2.588h-0.054c-0.152,0 -0.887,-0.237 -2.206,-0.711c-0.735,1.234 -1.103,1.893 -1.103,1.978l1.823,1.768c1.41,-1.324 2.127,-1.987 2.151,-1.987c1.1,1.441 1.65,2.249 1.65,2.425c-0.602,0.346 -1.65,1.027 -3.145,2.042c-2.892,-0.626 -4.454,-0.976 -4.685,-1.049l-1.431,-4.63z" data-paper-data="{&quot;origPos&quot;:null}" fill="#000000" stroke="none" stroke-width="1" stroke-linecap="butt"/><path d="M72.62,150.87706c3.609,0.498 5.414,0.805 5.414,0.921c1.422,1.221 2.133,1.874 2.133,1.959c-0.578,1.805 -0.906,2.902 -0.985,3.291c0.578,1.282 0.906,2.047 0.985,2.297c0,0.072 -0.942,0.267 -2.826,0.583c-0.024,-0.103 -0.197,-0.334 -0.519,-0.693c-2.601,0.498 -4.002,0.748 -4.202,0.748l-1.386,-3.747l3.054,-1.613c0.492,0.079 1.261,0.119 2.306,0.119c0,-0.134 0.018,-0.538 0.054,-1.213c-0.176,0 -1.75,0.116 -4.721,0.347l-0.055,-0.119c0.414,-1.92 0.663,-2.88 0.748,-2.88zM74.516,156.23607c0,0.067 0.194,0.778 0.583,2.133h0.055c0.765,-0.498 1.148,-0.826 1.148,-0.984l0.119,-0.975c-0.146,0 -0.781,-0.058 -1.905,-0.174z" data-paper-data="{&quot;origPos&quot;:null}" fill="#000000" stroke="none" stroke-width="1" stroke-linecap="butt"/><path d="M87.586,150.87706c1.203,0.675 1.941,1.112 2.215,1.313c-0.985,2.047 -1.513,3.089 -1.586,3.126h-0.064l-1.303,-1.139l-1.541,1.877l0.173,3.418c-0.079,0.073 -1.084,0.243 -3.016,0.511c-0.073,-0.523 -0.547,-3.084 -1.422,-7.684c0,-0.073 1.27,-0.261 3.81,-0.565c0.042,0.049 0.158,0.617 0.346,1.704c1.519,-1.707 2.315,-2.561 2.388,-2.561z" data-paper-data="{&quot;origPos&quot;:null}" fill="#000000" stroke="none" stroke-width="1" stroke-linecap="butt"/><path d="M95.689,150.88606c2.752,1.416 4.278,2.242 4.575,2.479c-0.395,1.848 -0.629,2.799 -0.702,2.853h-5.76v0.101l1.613,1.996l2.534,-1.295c0.249,0.432 0.608,1.185 1.076,2.261c-0.219,0.073 -1.814,0.307 -4.785,0.702c-2.461,-1.623 -3.701,-2.467 -3.719,-2.534c0.395,-3.154 0.629,-4.731 0.702,-4.731c2.57,-1.093 4.059,-1.704 4.466,-1.832zM95.096,153.09208c-0.048,0.121 -0.37,0.605 -0.966,1.449c0,0.255 0.359,0.383 1.076,0.383c0,0.036 0.519,0.125 1.558,0.264c0.286,-0.395 0.429,-0.626 0.429,-0.692c-0.091,-0.541 -0.289,-0.812 -0.593,-0.812z" data-paper-data="{&quot;origPos&quot;:null}" fill="#000000" stroke="none" stroke-width="1" stroke-linecap="butt"/><path d="M104.885,148.12506c0.322,0.036 1.495,0.306 3.519,0.811l0.054,0.109c-0.297,1.659 -0.477,2.488 -0.537,2.488h-0.055l-1.468,-0.756c0,0.17 -0.054,0.93 -0.164,2.279l2.006,-0.493c0.06,0.183 0.115,0.994 0.164,2.434c-0.195,0.073 -0.863,0.182 -2.006,0.328c0.256,1.094 0.526,2.431 0.812,4.01c-0.936,0.213 -2.054,0.429 -3.355,0.648l-0.054,-0.11c-0.17,-2.813 -0.313,-4.22 -0.429,-4.22c-1.178,0.286 -1.81,0.447 -1.895,0.483c-0.073,-0.352 -0.201,-1.309 -0.383,-2.871l0.109,-0.055h1.951c-0.11,-0.899 -0.274,-2.072 -0.493,-3.518z" data-paper-data="{&quot;origPos&quot;:null}" fill="#000000" stroke="none" stroke-width="1" stroke-linecap="butt"/><path d="M114.219,150.87706l0.064,0.119l-1.231,6.526h0.064l3.135,-0.921v-3.691c0.012,-0.085 0.052,-0.128 0.119,-0.128c2.357,0.164 3.67,0.246 3.937,0.246c0,0.043 0.022,0.064 0.064,0.064c0,1.039 -0.328,3.193 -0.984,6.462c0,0.189 -0.942,0.331 -2.826,0.429c-0.097,-0.116 -0.179,-0.362 -0.246,-0.739c-2.412,0.492 -3.789,0.739 -4.129,0.739c-1.926,-1.434 -2.889,-2.173 -2.889,-2.215c0.328,-4.308 0.535,-6.545 0.62,-6.709h0.054c1.538,-0.042 2.953,-0.103 4.248,-0.182z" data-paper-data="{&quot;origPos&quot;:null}" fill="#000000" stroke="none" stroke-width="1" stroke-linecap="butt"/><path d="M121.292,148.13408c1.859,0.036 3.223,0.054 4.092,0.054c0.079,0 0.319,3.731 0.72,11.193c-0.31,0.079 -1.391,0.28 -3.245,0.602c-0.091,0 -0.392,-2.285 -0.902,-6.855c-0.043,-0.109 -0.264,-1.774 -0.665,-4.994z" data-paper-data="{&quot;origPos&quot;:null}" fill="#000000" stroke="none" stroke-width="1" stroke-linecap="butt"/><path d="M138.682,154.49606l0.055,0.118c-0.037,0.814 -0.055,1.48 -0.055,1.996v0.292c0,0.055 -0.061,0.112 -0.182,0.173c-0.662,0 -2.774,0.079 -6.335,0.237c-0.067,0 -0.203,-0.881 -0.41,-2.643c0.037,0 0.055,-0.018 0.055,-0.055c1.993,-0.042 3.558,-0.064 4.694,-0.064h1.003c0.255,0 0.647,-0.018 1.175,-0.054z" data-paper-data="{&quot;origPos&quot;:null}" fill="#000000" stroke="none" stroke-width="1" stroke-linecap="butt"/><path d="M146.84,148.12506l4.01,0.71l-0.383,3.045c0.796,-0.043 1.38,-0.064 1.75,-0.064h0.584l0.127,-0.064l0.064,0.128c-0.127,1.847 -0.237,2.886 -0.328,3.117l-0.128,-0.073c-0.091,0 -0.911,-0.043 -2.461,-0.128c-0.085,1.428 -0.148,3.136 -0.191,5.123l-0.128,0.064c-1.956,-0.128 -3.123,-0.237 -3.5,-0.329l0.064,-0.255c0,-0.528 0.085,-2.169 0.255,-4.922c-1.64,-0.091 -2.46,-0.2 -2.46,-0.328c0.085,-2.029 0.194,-3.044 0.328,-3.044l2.397,0.456v-0.784c0,-0.638 -0.024,-1.501 -0.073,-2.589c0.049,0 0.073,-0.021 0.073,-0.063z" data-paper-data="{&quot;origPos&quot;:null}" fill="#000000" stroke="none" stroke-width="1" stroke-linecap="butt"/><path d="M158.042,148.12506c0.036,0.054 0.206,1.719 0.51,4.994c2.346,-0.717 3.594,-1.075 3.746,-1.075l2.324,1.586c-0.376,3.463 -0.622,5.487 -0.738,6.07l-3.226,0.109c0,-0.036 -0.022,-0.054 -0.064,-0.054l0.064,-0.228c0,-0.492 0.072,-1.987 0.218,-4.485c-0.887,-0.036 -1.546,-0.054 -1.978,-0.054h-0.227c0.261,2.777 0.391,4.29 0.391,4.539l-3.062,0.456c-0.115,-0.389 -0.796,-4.02 -2.042,-10.892c0,-0.195 0.474,-0.347 1.422,-0.456c1.197,-0.34 2.084,-0.51 2.662,-0.51z" data-paper-data="{&quot;origPos&quot;:null}" fill="#000000" stroke="none" stroke-width="1" stroke-linecap="butt"/><path d="M170.647,150.88606c2.753,1.416 4.278,2.242 4.576,2.479c-0.395,1.848 -0.629,2.799 -0.702,2.853h-5.761v0.101l1.614,1.996l2.534,-1.295c0.249,0.432 0.607,1.185 1.075,2.261c-0.219,0.073 -1.814,0.307 -4.785,0.702c-2.461,-1.623 -3.701,-2.467 -3.719,-2.534c0.395,-3.154 0.629,-4.731 0.702,-4.731c2.57,-1.093 4.059,-1.704 4.466,-1.832zM170.055,153.09208c-0.049,0.121 -0.371,0.605 -0.966,1.449c0,0.255 0.358,0.383 1.075,0.383c0,0.036 0.52,0.125 1.559,0.264c0.285,-0.395 0.428,-0.626 0.428,-0.692c-0.091,-0.541 -0.289,-0.812 -0.592,-0.812z" data-paper-data="{&quot;origPos&quot;:null}" fill="#000000" stroke="none" stroke-width="1" stroke-linecap="butt"/><path d="M183.408,150.87706c1.75,1.118 2.716,1.762 2.898,1.932c-0.632,1.404 -0.994,2.106 -1.085,2.106l-3.317,-1.923h-0.119c0,0.06 -0.143,0.401 -0.428,1.021c3.056,1.646 4.584,2.491 4.584,2.533c-0.856,1.981 -1.339,3.026 -1.449,3.136l-5.186,0.301c-2.017,-1.337 -3.102,-2.042 -3.254,-2.115v-0.055c0,-0.152 0.301,-0.835 0.902,-2.05l4.047,2.105l0.301,-1.203c-2.503,-1.124 -3.992,-1.826 -4.466,-2.106v-0.127c0,-0.231 0.483,-1.255 1.449,-3.072z" data-paper-data="{&quot;origPos&quot;:null}" fill="#000000" stroke="none" stroke-width="1" stroke-linecap="butt"/><path d="M192.376,150.88606c2.753,1.416 4.278,2.242 4.576,2.479c-0.395,1.848 -0.629,2.799 -0.702,2.853h-5.76v0.101l1.613,1.996l2.534,-1.295c0.249,0.432 0.607,1.185 1.075,2.261c-0.219,0.073 -1.814,0.307 -4.785,0.702c-2.461,-1.623 -3.7,-2.467 -3.719,-2.534c0.395,-3.154 0.629,-4.731 0.702,-4.731c2.57,-1.093 4.059,-1.704 4.466,-1.832zM191.784,153.09208c-0.049,0.121 -0.371,0.605 -0.966,1.449c0,0.255 0.358,0.383 1.075,0.383c0,0.036 0.52,0.125 1.559,0.264c0.285,-0.395 0.428,-0.626 0.428,-0.692c-0.091,-0.541 -0.288,-0.812 -0.592,-0.812z" data-paper-data="{&quot;origPos&quot;:null}" fill="#000000" stroke="none" stroke-width="1" stroke-linecap="butt"/><path d="M206.987,150.88606c0.188,0.778 0.319,1.258 0.392,1.44c2.686,-0.613 4.104,-0.92 4.256,-0.92c1.829,2.631 2.744,4.004 2.744,4.12l-2.096,4.447l-4.512,-0.72v0.137c0.352,2.704 0.528,4.141 0.528,4.311c-0.042,0 -0.063,0.022 -0.063,0.064c-0.438,-0.042 -0.766,-0.064 -0.985,-0.064h-0.784c-0.455,0 -1.154,-0.021 -2.096,-0.063c-0.085,-0.256 -0.738,-4.135 -1.96,-11.64c0.207,-0.085 1.732,-0.456 4.576,-1.112zM207.315,154.61406c0.122,1.398 0.231,2.096 0.328,2.096c1.246,0.432 2.008,0.648 2.288,0.648l0.72,-3.136h-0.064c-0.711,0.043 -1.801,0.173 -3.272,0.392z" data-paper-data="{&quot;origPos&quot;:null}" fill="#2b70c2" stroke="none" stroke-width="1" stroke-linecap="butt"/><path d="M215.318,148.13408c1.859,0.036 3.223,0.054 4.092,0.054c0.079,0 0.319,3.731 0.72,11.193c-0.31,0.079 -1.391,0.28 -3.245,0.602c-0.091,0 -0.392,-2.285 -0.902,-6.855c-0.043,-0.109 -0.264,-1.774 -0.665,-4.994z" data-paper-data="{&quot;origPos&quot;:null}" fill="#2b70c2" stroke="none" stroke-width="1" stroke-linecap="butt"/><path d="M222.536,150.87706c3.61,0.498 5.414,0.805 5.414,0.921c1.422,1.221 2.133,1.874 2.133,1.959c-0.577,1.805 -0.905,2.902 -0.984,3.291c0.577,1.282 0.905,2.047 0.984,2.297c0,0.072 -0.942,0.267 -2.825,0.583c-0.025,-0.103 -0.198,-0.334 -0.52,-0.693c-2.6,0.498 -4.001,0.748 -4.202,0.748l-1.385,-3.747l3.053,-1.613c0.493,0.079 1.261,0.119 2.306,0.119c0,-0.134 0.019,-0.538 0.055,-1.213c-0.176,0 -1.75,0.116 -4.721,0.347l-0.055,-0.119c0.413,-1.92 0.662,-2.88 0.747,-2.88zM224.432,156.23607c0,0.067 0.195,0.778 0.584,2.133h0.054c0.766,-0.498 1.149,-0.826 1.149,-0.984l0.118,-0.975c-0.146,0 -0.781,-0.058 -1.905,-0.174z" data-paper-data="{&quot;origPos&quot;:null}" fill="#2b70c2" stroke="none" stroke-width="1" stroke-linecap="butt"/><path d="M233.684,148.12506l4.01,0.71l-0.383,3.045c0.796,-0.043 1.379,-0.064 1.75,-0.064h0.583l0.128,-0.064l0.064,0.128c-0.128,1.847 -0.237,2.886 -0.328,3.117l-0.128,-0.073c-0.091,0 -0.911,-0.043 -2.461,-0.128c-0.085,1.428 -0.149,3.136 -0.191,5.123l-0.128,0.064c-1.956,-0.128 -3.123,-0.237 -3.5,-0.329l0.064,-0.255c0,-0.528 0.085,-2.169 0.255,-4.922c-1.64,-0.091 -2.461,-0.2 -2.461,-0.328c0.085,-2.029 0.195,-3.044 0.328,-3.044l2.398,0.456v-0.784c0,-0.638 -0.025,-1.501 -0.073,-2.589c0.048,0 0.073,-0.021 0.073,-0.063z" data-paper-data="{&quot;origPos&quot;:null}" fill="#2b70c2" stroke="none" stroke-width="1" stroke-linecap="butt"/><path d="M244.594,148.12506c0.322,0.036 1.494,0.306 3.518,0.811l0.055,0.109c-0.298,1.659 -0.477,2.488 -0.538,2.488h-0.055l-1.467,-0.756c0,0.17 -0.055,0.93 -0.164,2.279l2.005,-0.493c0.061,0.183 0.115,0.994 0.164,2.434c-0.195,0.073 -0.863,0.182 -2.005,0.328c0.255,1.094 0.525,2.431 0.811,4.01c-0.936,0.213 -2.054,0.429 -3.354,0.648l-0.055,-0.11c-0.17,-2.813 -0.313,-4.22 -0.428,-4.22c-1.179,0.286 -1.811,0.447 -1.896,0.483c-0.073,-0.352 -0.201,-1.309 -0.383,-2.871l0.109,-0.055h1.951c-0.109,-0.899 -0.274,-2.072 -0.492,-3.518z" data-paper-data="{&quot;origPos&quot;:null}" fill="#2b70c2" stroke="none" stroke-width="1" stroke-linecap="butt"/><path d="M252.678,150.88606c2.309,0.62 3.534,0.997 3.674,1.13c1.269,1.799 1.983,2.835 2.141,3.109c-0.82,2.6 -1.291,3.901 -1.412,3.901c-2.735,0.638 -4.166,0.957 -4.293,0.957c-2.261,-1.319 -3.464,-2.054 -3.61,-2.206c-0.079,-2.455 -0.118,-3.81 -0.118,-4.065c-0.037,-0.073 -0.055,-0.128 -0.055,-0.164c2.333,-1.775 3.54,-2.662 3.619,-2.662zM252.45,154.22206c-0.036,0.243 -0.091,1.127 -0.164,2.653l2.033,0.455c0.486,-1.519 0.729,-2.33 0.729,-2.433c-1.616,-0.486 -2.482,-0.73 -2.598,-0.73z" data-paper-data="{&quot;origPos&quot;:null}" fill="#2b70c2" stroke="none" stroke-width="1" stroke-linecap="butt"/><path d="M265.867,150.87706c1.203,0.675 1.942,1.112 2.215,1.313c-0.984,2.047 -1.513,3.089 -1.586,3.126h-0.064l-1.303,-1.139l-1.54,1.877l0.173,3.418c-0.079,0.073 -1.085,0.243 -3.017,0.511c-0.073,-0.523 -0.547,-3.084 -1.422,-7.684c0,-0.073 1.27,-0.261 3.81,-0.565c0.042,0.049 0.158,0.617 0.346,1.704c1.519,-1.707 2.315,-2.561 2.388,-2.561z" data-paper-data="{&quot;origPos&quot;:null}" fill="#2b70c2" stroke="none" stroke-width="1" stroke-linecap="butt"/><path d="M278.928,150.87706c1.483,0.614 2.762,1.191 3.838,1.732c-0.28,3.615 -0.459,5.593 -0.538,5.933c-1.787,0.444 -2.786,0.666 -2.999,0.666c0,-0.79 -0.061,-2.349 -0.182,-4.676c-0.675,0.067 -1.012,0.125 -1.012,0.173c0,0.231 0.04,1.55 0.119,3.956c0.036,0 0.054,0.021 0.054,0.064c0,0.073 -0.938,0.273 -2.816,0.601c-0.079,-0.097 -0.319,-1.576 -0.72,-4.438c-0.76,0.194 -1.139,0.334 -1.139,0.419l0.364,3.719c-0.073,0.079 -1.072,0.398 -2.999,0.957c-1.118,-3.956 -1.816,-6.612 -2.096,-7.967c2.109,-0.522 3.287,-0.783 3.537,-0.783c0.279,1.105 0.419,1.744 0.419,1.914h0.064c1.026,-0.948 1.744,-1.586 2.151,-1.914h0.063l1.914,1.376h0.064c1.197,-1.155 1.835,-1.732 1.914,-1.732z" data-paper-data="{&quot;origPos&quot;:null}" fill="#2b70c2" stroke="none" stroke-width="1" stroke-linecap="butt"/><path d="M291.033,150.87706c1.75,1.118 2.716,1.762 2.898,1.932c-0.632,1.404 -0.994,2.106 -1.085,2.106l-3.317,-1.923h-0.119c0,0.06 -0.143,0.401 -0.428,1.021c3.056,1.646 4.584,2.491 4.584,2.533c-0.856,1.981 -1.339,3.026 -1.449,3.136l-5.186,0.301c-2.017,-1.337 -3.102,-2.042 -3.254,-2.115v-0.055c0,-0.152 0.301,-0.835 0.902,-2.05l4.047,2.105l0.301,-1.203c-2.503,-1.124 -3.992,-1.826 -4.466,-2.106v-0.127c0,-0.231 0.483,-1.255 1.449,-3.072z" data-paper-data="{&quot;origPos&quot;:null}" fill="#2b70c2" stroke="none" stroke-width="1" stroke-linecap="butt"/><path d="M302.189,148.12506l4.01,0.71l-0.383,3.045c0.796,-0.043 1.38,-0.064 1.75,-0.064h0.584l0.127,-0.064l0.064,0.128c-0.127,1.847 -0.237,2.886 -0.328,3.117l-0.128,-0.073c-0.091,0 -0.911,-0.043 -2.461,-0.128c-0.085,1.428 -0.148,3.136 -0.191,5.123l-0.128,0.064c-1.956,-0.128 -3.123,-0.237 -3.5,-0.329l0.064,-0.255c0,-0.528 0.085,-2.169 0.255,-4.922c-1.64,-0.091 -2.46,-0.2 -2.46,-0.328c0.085,-2.029 0.194,-3.044 0.328,-3.044l2.397,0.456v-0.784c0,-0.638 -0.025,-1.501 -0.073,-2.589c0.048,0 0.073,-0.021 0.073,-0.063z" data-paper-data="{&quot;origPos&quot;:null}" fill="#000000" stroke="none" stroke-width="1" stroke-linecap="butt"/><path d="M314.229,150.87706l0.064,0.119l-1.231,6.526h0.064l3.136,-0.921v-3.691c0.012,-0.085 0.051,-0.128 0.118,-0.128c2.358,0.164 3.67,0.246 3.938,0.246c0,0.043 0.021,0.064 0.063,0.064c0,1.039 -0.328,3.193 -0.984,6.462c0,0.189 -0.942,0.331 -2.825,0.429c-0.098,-0.116 -0.18,-0.362 -0.247,-0.739c-2.412,0.492 -3.788,0.739 -4.128,0.739c-1.927,-1.434 -2.89,-2.173 -2.89,-2.215c0.328,-4.308 0.535,-6.545 0.62,-6.709h0.055c1.537,-0.042 2.953,-0.103 4.247,-0.182z" data-paper-data="{&quot;origPos&quot;:null}" fill="#000000" stroke="none" stroke-width="1" stroke-linecap="butt"/><path d="M327.846,150.87706c1.203,0.675 1.942,1.112 2.215,1.313c-0.984,2.047 -1.513,3.089 -1.586,3.126h-0.064l-1.303,-1.139l-1.54,1.877l0.173,3.418c-0.079,0.073 -1.085,0.243 -3.017,0.511c-0.073,-0.523 -0.547,-3.084 -1.422,-7.684c0,-0.073 1.27,-0.261 3.81,-0.565c0.042,0.049 0.158,0.617 0.346,1.704c1.519,-1.707 2.315,-2.561 2.388,-2.561z" data-paper-data="{&quot;origPos&quot;:null}" fill="#000000" stroke="none" stroke-width="1" stroke-linecap="butt"/><path d="M338.875,150.87706l3.035,2.087c-0.213,3.464 -0.361,5.487 -0.447,6.071c-0.352,0.042 -1.424,0.106 -3.217,0.191l-0.064,-0.128l-0.319,-4.867l-0.127,-0.064c-1.161,0.25 -1.96,0.438 -2.398,0.566c0.122,2.072 0.183,3.569 0.183,4.493c-1.811,0.504 -2.801,0.757 -2.972,0.757c-1.178,-5.19 -1.768,-7.93 -1.768,-8.222c2.564,-0.334 3.956,-0.501 4.175,-0.501v0.064c0.042,0.03 0.106,0.662 0.191,1.896c2.352,-1.562 3.594,-2.343 3.728,-2.343z" data-paper-data="{&quot;origPos&quot;:null}" fill="#000000" stroke="none" stroke-width="1" stroke-linecap="butt"/><path d="M351.116,150.88606c2.309,0.62 3.533,0.997 3.673,1.13c1.27,1.799 1.984,2.835 2.142,3.109c-0.82,2.6 -1.291,3.901 -1.413,3.901c-2.734,0.638 -4.165,0.957 -4.293,0.957c-2.26,-1.319 -3.463,-2.054 -3.609,-2.206c-0.079,-2.455 -0.119,-3.81 -0.119,-4.065c-0.036,-0.073 -0.054,-0.128 -0.054,-0.164c2.333,-1.775 3.539,-2.662 3.618,-2.662zM350.888,154.22206c-0.036,0.243 -0.091,1.127 -0.164,2.653l2.032,0.455c0.487,-1.519 0.73,-2.33 0.73,-2.433c-1.617,-0.486 -2.483,-0.73 -2.598,-0.73z" data-paper-data="{&quot;origPos&quot;:null}" fill="#2b70c2" stroke="none" stroke-width="1" stroke-linecap="butt"/><path d="M365.854,150.87706l3.035,2.087c-0.212,3.464 -0.361,5.487 -0.446,6.071c-0.353,0.042 -1.425,0.106 -3.218,0.191l-0.064,-0.128l-0.319,-4.867l-0.127,-0.064c-1.161,0.25 -1.96,0.438 -2.397,0.566c0.121,2.072 0.182,3.569 0.182,4.493c-1.811,0.504 -2.801,0.757 -2.971,0.757c-1.179,-5.19 -1.769,-7.93 -1.769,-8.222c2.565,-0.334 3.956,-0.501 4.175,-0.501v0.064c0.042,0.03 0.106,0.662 0.191,1.896c2.352,-1.562 3.594,-2.343 3.728,-2.343z" data-paper-data="{&quot;origPos&quot;:null}" fill="#2b70c2" stroke="none" stroke-width="1" stroke-linecap="butt"/><path d="M378.095,150.88606c2.309,0.62 3.533,0.997 3.673,1.13c1.27,1.799 1.984,2.835 2.142,3.109c-0.82,2.6 -1.291,3.901 -1.413,3.901c-2.734,0.638 -4.165,0.957 -4.293,0.957c-2.26,-1.319 -3.463,-2.054 -3.609,-2.206c-0.079,-2.455 -0.118,-3.81 -0.118,-4.065c-0.037,-0.073 -0.055,-0.128 -0.055,-0.164c2.333,-1.775 3.539,-2.662 3.618,-2.662zM377.867,154.22206c-0.036,0.243 -0.091,1.127 -0.164,2.653l2.033,0.455c0.486,-1.519 0.729,-2.33 0.729,-2.433c-1.617,-0.486 -2.482,-0.73 -2.598,-0.73z" data-paper-data="{&quot;origPos&quot;:null}" fill="#2b70c2" stroke="none" stroke-width="1" stroke-linecap="butt"/><path d="M391.284,150.87706c1.203,0.675 1.941,1.112 2.215,1.313c-0.985,2.047 -1.513,3.089 -1.586,3.126h-0.064l-1.303,-1.139l-1.541,1.877l0.173,3.418c-0.079,0.073 -1.084,0.243 -3.017,0.511c-0.073,-0.523 -0.546,-3.084 -1.421,-7.684c0,-0.073 1.27,-0.261 3.809,-0.565c0.043,0.049 0.158,0.617 0.347,1.704c1.519,-1.707 2.315,-2.561 2.388,-2.561z" data-paper-data="{&quot;origPos&quot;:null}" fill="#2b70c2" stroke="none" stroke-width="1" stroke-linecap="butt"/><path d="M402.522,150.88606c2.309,0.62 3.534,0.997 3.673,1.13c1.27,1.799 1.984,2.835 2.142,3.109c-0.82,2.6 -1.291,3.901 -1.413,3.901c-2.734,0.638 -4.165,0.957 -4.293,0.957c-2.26,-1.319 -3.463,-2.054 -3.609,-2.206c-0.079,-2.455 -0.118,-3.81 -0.118,-4.065c-0.037,-0.073 -0.055,-0.128 -0.055,-0.164c2.333,-1.775 3.539,-2.662 3.618,-2.662zM402.294,154.22206c-0.036,0.243 -0.091,1.127 -0.164,2.653l2.033,0.455c0.486,-1.519 0.729,-2.33 0.729,-2.433c-1.616,-0.486 -2.482,-0.73 -2.598,-0.73z" data-paper-data="{&quot;origPos&quot;:null}" fill="#2b70c2" stroke="none" stroke-width="1" stroke-linecap="butt"/><path d="M412.958,148.12506c0.322,0.036 1.495,0.306 3.519,0.811l0.054,0.109c-0.298,1.659 -0.477,2.488 -0.538,2.488h-0.054l-1.468,-0.756c0,0.17 -0.054,0.93 -0.164,2.279l2.005,-0.493c0.061,0.183 0.116,0.994 0.165,2.434c-0.195,0.073 -0.863,0.182 -2.006,0.328c0.256,1.094 0.526,2.431 0.812,4.01c-0.936,0.213 -2.054,0.429 -3.355,0.648l-0.054,-0.11c-0.17,-2.813 -0.313,-4.22 -0.429,-4.22c-1.179,0.286 -1.81,0.447 -1.896,0.483c-0.072,-0.352 -0.2,-1.309 -0.382,-2.871l0.109,-0.055h1.951c-0.11,-0.899 -0.274,-2.072 -0.493,-3.518z" data-paper-data="{&quot;origPos&quot;:null}" fill="#2b70c2" stroke="none" stroke-width="1" stroke-linecap="butt"/><path d="M421.161,148.12506c0.322,0.036 1.495,0.306 3.519,0.811l0.054,0.109c-0.297,1.659 -0.477,2.488 -0.537,2.488h-0.055l-1.468,-0.756c0,0.17 -0.054,0.93 -0.164,2.279l2.006,-0.493c0.06,0.183 0.115,0.994 0.164,2.434c-0.195,0.073 -0.863,0.182 -2.006,0.328c0.256,1.094 0.526,2.431 0.812,4.01c-0.936,0.213 -2.054,0.429 -3.355,0.648l-0.054,-0.11c-0.17,-2.813 -0.313,-4.22 -0.429,-4.22c-1.178,0.286 -1.81,0.447 -1.895,0.483c-0.073,-0.352 -0.201,-1.309 -0.383,-2.871l0.109,-0.055h1.951c-0.11,-0.899 -0.274,-2.072 -0.493,-3.518z" data-paper-data="{&quot;origPos&quot;:null}" fill="#2b70c2" stroke="none" stroke-width="1" stroke-linecap="butt"/><path d="M37.684,174.21008c0.079,0.104 0.489,1.866 1.23,5.287h0.064c0,-0.079 0.449,-0.775 1.349,-2.087c0.377,0.255 1.094,0.808 2.151,1.659h0.127v-0.064c0.165,-2.37 0.286,-3.683 0.365,-3.938c2.503,0.128 3.755,0.231 3.755,0.31c-1.148,4.618 -1.762,7.018 -1.841,7.201c-0.383,0.042 -1.185,0.164 -2.406,0.364c-1.003,-1.574 -1.577,-2.412 -1.723,-2.515c-0.656,1.75 -1.066,2.713 -1.23,2.889h-2.461c-0.152,-0.049 -0.869,-1.629 -2.151,-4.74c-0.821,-1.738 -1.231,-2.679 -1.231,-2.825c0,-0.134 1.334,-0.647 4.002,-1.541z" data-paper-data="{&quot;origPos&quot;:null}" fill="#000000" stroke="none" stroke-width="1" stroke-linecap="butt"/><path d="M51.802,171.45806c0.037,0.055 0.207,1.719 0.51,4.995c2.346,-0.717 3.595,-1.076 3.747,-1.076l2.324,1.586c-0.377,3.464 -0.623,5.487 -0.738,6.07l-3.227,0.11c0,-0.037 -0.021,-0.055 -0.064,-0.055l0.064,-0.228c0,-0.492 0.073,-1.987 0.219,-4.484c-0.887,-0.037 -1.547,-0.055 -1.978,-0.055h-0.228c0.261,2.777 0.392,4.29 0.392,4.539l-3.063,0.456c-0.115,-0.389 -0.796,-4.02 -2.041,-10.892c0,-0.194 0.474,-0.346 1.422,-0.456c1.197,-0.34 2.084,-0.51 2.661,-0.51z" data-paper-data="{&quot;origPos&quot;:null}" fill="#000000" stroke="none" stroke-width="1" stroke-linecap="butt"/><path d="M64.408,174.22006c2.752,1.415 4.277,2.242 4.575,2.479c-0.395,1.847 -0.629,2.798 -0.702,2.853h-5.76v0.1l1.613,1.996l2.534,-1.294c0.249,0.431 0.608,1.185 1.075,2.26c-0.218,0.073 -1.813,0.307 -4.785,0.702c-2.461,-1.622 -3.7,-2.467 -3.718,-2.534c0.395,-3.154 0.628,-4.73 0.701,-4.73c2.571,-1.094 4.059,-1.705 4.467,-1.832zM63.815,176.42508c-0.049,0.122 -0.371,0.605 -0.966,1.45c0,0.255 0.358,0.382 1.075,0.382c0,0.037 0.52,0.125 1.559,0.265c0.286,-0.395 0.428,-0.626 0.428,-0.693c-0.091,-0.541 -0.288,-0.811 -0.592,-0.811z" data-paper-data="{&quot;origPos&quot;:null}" fill="#000000" stroke="none" stroke-width="1" stroke-linecap="butt"/><path d="M77.906,174.21008l3.035,2.088c-0.212,3.463 -0.361,5.487 -0.446,6.07c-0.353,0.043 -1.425,0.106 -3.218,0.191l-0.063,-0.127l-0.319,-4.867l-0.128,-0.064c-1.161,0.249 -1.96,0.437 -2.397,0.565c0.121,2.072 0.182,3.57 0.182,4.493c-1.811,0.505 -2.801,0.757 -2.971,0.757c-1.179,-5.189 -1.769,-7.93 -1.769,-8.221c2.565,-0.335 3.956,-0.502 4.175,-0.502v0.064c0.042,0.03 0.106,0.662 0.191,1.896c2.352,-1.562 3.595,-2.343 3.728,-2.343z" data-paper-data="{&quot;origPos&quot;:null}" fill="#000000" stroke="none" stroke-width="1" stroke-linecap="butt"/><path d="M87.012,174.22006c2.752,1.415 4.277,2.242 4.575,2.479c-0.395,1.847 -0.629,2.798 -0.702,2.853h-5.76v0.1l1.613,1.996l2.534,-1.294c0.249,0.431 0.608,1.185 1.076,2.26c-0.219,0.073 -1.814,0.307 -4.786,0.702c-2.46,-1.622 -3.7,-2.467 -3.718,-2.534c0.395,-3.154 0.629,-4.73 0.702,-4.73c2.57,-1.094 4.059,-1.705 4.466,-1.832zM86.419,176.42508c-0.048,0.122 -0.37,0.605 -0.966,1.45c0,0.255 0.359,0.382 1.076,0.382c0,0.037 0.519,0.125 1.558,0.265c0.286,-0.395 0.429,-0.626 0.429,-0.693c-0.092,-0.541 -0.289,-0.811 -0.593,-0.811z" data-paper-data="{&quot;origPos&quot;:null}" fill="#000000" stroke="none" stroke-width="1" stroke-linecap="butt"/><path d="M95.962,174.21008c1.489,3.415 2.282,5.187 2.379,5.314c0.735,-2.789 1.164,-4.274 1.285,-4.457c2.321,0.213 3.482,0.395 3.482,0.547v0.064c-1.628,4.472 -2.503,6.815 -2.625,7.027c-1.799,0.328 -3.002,0.532 -3.609,0.611l-4.457,-6.599v-0.128c0.042,-0.079 1.224,-0.872 3.545,-2.379z" data-paper-data="{&quot;origPos&quot;:null}" fill="#000000" stroke="none" stroke-width="1" stroke-linecap="butt"/><path d="M109.251,174.22006c2.753,1.415 4.278,2.242 4.576,2.479c-0.395,1.847 -0.629,2.798 -0.702,2.853h-5.76v0.1l1.613,1.996l2.534,-1.294c0.249,0.431 0.607,1.185 1.075,2.26c-0.219,0.073 -1.814,0.307 -4.785,0.702c-2.461,-1.622 -3.7,-2.467 -3.719,-2.534c0.395,-3.154 0.629,-4.73 0.702,-4.73c2.57,-1.094 4.059,-1.705 4.466,-1.832zM108.659,176.42508c-0.049,0.122 -0.371,0.605 -0.966,1.45c0,0.255 0.358,0.382 1.075,0.382c0,0.037 0.52,0.125 1.559,0.265c0.285,-0.395 0.428,-0.626 0.428,-0.693c-0.091,-0.541 -0.288,-0.811 -0.592,-0.811z" data-paper-data="{&quot;origPos&quot;:null}" fill="#000000" stroke="none" stroke-width="1" stroke-linecap="butt"/><path d="M121.2,174.21008c1.204,0.675 1.942,1.112 2.215,1.313c-0.984,2.048 -1.513,3.09 -1.586,3.126h-0.063l-1.304,-1.139l-1.54,1.878l0.173,3.418c-0.079,0.072 -1.085,0.243 -3.017,0.51c-0.073,-0.523 -0.547,-3.084 -1.422,-7.684c0,-0.073 1.27,-0.261 3.81,-0.565c0.043,0.049 0.158,0.617 0.346,1.705c1.52,-1.708 2.316,-2.562 2.388,-2.562z" data-paper-data="{&quot;origPos&quot;:null}" fill="#000000" stroke="none" stroke-width="1" stroke-linecap="butt"/><path d="M132.958,174.22908c0.085,0.012 0.128,0.054 0.128,0.127l-0.948,5.25c1.811,-0.212 2.716,-0.383 2.716,-0.51c0.34,-2.103 0.574,-3.281 0.702,-3.537c2.242,0.462 3.485,0.736 3.728,0.821c-1.307,4.49 -2.024,6.83 -2.151,7.018c-2.285,1.604 -3.57,2.491 -3.856,2.661c-0.085,0 -1.54,-0.358 -4.366,-1.075v-0.064c0.748,-1.647 1.213,-2.47 1.395,-2.47l2.78,1.395l1.331,-2.279c-1.197,0.298 -1.893,0.447 -2.088,0.447l-3.545,-1.842c0.431,-3.961 0.705,-5.942 0.82,-5.942z" data-paper-data="{&quot;origPos&quot;:null}" fill="#000000" stroke="none" stroke-width="1" stroke-linecap="butt"/><path d="M143.85,174.22006c2.309,0.619 3.534,0.996 3.673,1.13c1.27,1.798 1.984,2.834 2.142,3.108c-0.82,2.601 -1.291,3.901 -1.412,3.901c-2.735,0.638 -4.166,0.957 -4.293,0.957c-2.261,-1.319 -3.464,-2.054 -3.61,-2.206c-0.079,-2.455 -0.118,-3.81 -0.118,-4.065c-0.037,-0.073 -0.055,-0.128 -0.055,-0.164c2.333,-1.774 3.54,-2.661 3.619,-2.661zM143.622,177.55608c-0.036,0.243 -0.091,1.127 -0.164,2.652l2.033,0.456c0.486,-1.52 0.729,-2.331 0.729,-2.434c-1.616,-0.486 -2.482,-0.729 -2.598,-0.729z" data-paper-data="{&quot;origPos&quot;:null}" fill="#000000" stroke="none" stroke-width="1" stroke-linecap="butt"/><path d="M155.417,174.21008l0.063,0.119l-1.23,6.526h0.064l3.135,-0.921v-3.691c0.012,-0.085 0.052,-0.128 0.119,-0.128c2.357,0.164 3.67,0.246 3.937,0.246c0,0.043 0.021,0.064 0.064,0.064c0,1.039 -0.328,3.193 -0.984,6.463c0,0.188 -0.942,0.331 -2.826,0.428c-0.097,-0.116 -0.179,-0.362 -0.246,-0.738c-2.412,0.492 -3.789,0.738 -4.129,0.738c-1.926,-1.434 -2.889,-2.172 -2.889,-2.215c0.328,-4.308 0.534,-6.544 0.62,-6.708h0.054c1.538,-0.043 2.953,-0.104 4.248,-0.183z" data-paper-data="{&quot;origPos&quot;:null}" fill="#000000" stroke="none" stroke-width="1" stroke-linecap="butt"/><path d="M172.042,174.21008l0.063,0.119l-1.23,6.526h0.064l3.135,-0.921v-3.691c0.012,-0.085 0.052,-0.128 0.119,-0.128c2.357,0.164 3.67,0.246 3.937,0.246c0,0.043 0.021,0.064 0.064,0.064c0,1.039 -0.328,3.193 -0.984,6.463c0,0.188 -0.942,0.331 -2.826,0.428c-0.097,-0.116 -0.179,-0.362 -0.246,-0.738c-2.412,0.492 -3.789,0.738 -4.129,0.738c-1.926,-1.434 -2.889,-2.172 -2.889,-2.215c0.328,-4.308 0.534,-6.544 0.62,-6.708h0.054c1.538,-0.043 2.953,-0.104 4.248,-0.183z" data-paper-data="{&quot;origPos&quot;:null}" fill="#000000" stroke="none" stroke-width="1" stroke-linecap="butt"/><path d="M186.47,174.21008c1.75,1.119 2.716,1.763 2.898,1.933c-0.631,1.403 -0.993,2.105 -1.084,2.105l-3.318,-1.923h-0.118c0,0.061 -0.143,0.401 -0.429,1.021c3.057,1.647 4.585,2.491 4.585,2.534c-0.857,1.981 -1.34,3.026 -1.449,3.135l-5.187,0.301c-2.017,-1.337 -3.102,-2.042 -3.253,-2.115v-0.054c0,-0.152 0.3,-0.836 0.902,-2.051l4.047,2.105l0.301,-1.203c-2.504,-1.124 -3.993,-1.826 -4.467,-2.105v-0.128c0,-0.231 0.483,-1.255 1.45,-3.071z" data-paper-data="{&quot;origPos&quot;:null}" fill="#000000" stroke="none" stroke-width="1" stroke-linecap="butt"/><path d="M195.439,174.22006c2.752,1.415 4.278,2.242 4.575,2.479c-0.395,1.847 -0.629,2.798 -0.702,2.853h-5.76v0.1l1.613,1.996l2.534,-1.294c0.249,0.431 0.608,1.185 1.076,2.26c-0.219,0.073 -1.814,0.307 -4.785,0.702c-2.461,-1.622 -3.701,-2.467 -3.719,-2.534c0.395,-3.154 0.629,-4.73 0.702,-4.73c2.57,-1.094 4.059,-1.705 4.466,-1.832zM194.846,176.42508c-0.048,0.122 -0.37,0.605 -0.966,1.45c0,0.255 0.359,0.382 1.076,0.382c0,0.037 0.519,0.125 1.558,0.265c0.286,-0.395 0.429,-0.626 0.429,-0.693c-0.091,-0.541 -0.289,-0.811 -0.593,-0.811z" data-paper-data="{&quot;origPos&quot;:null}" fill="#000000" stroke="none" stroke-width="1" stroke-linecap="butt"/><path d="M209.667,174.22908c0.085,0.012 0.127,0.054 0.127,0.127l-0.948,5.25c1.811,-0.212 2.716,-0.383 2.716,-0.51c0.341,-2.103 0.575,-3.281 0.702,-3.537c2.242,0.462 3.485,0.736 3.728,0.821c-1.306,4.49 -2.023,6.83 -2.151,7.018c-2.285,1.604 -3.57,2.491 -3.855,2.661c-0.085,0 -1.541,-0.358 -4.366,-1.075v-0.064c0.747,-1.647 1.212,-2.47 1.394,-2.47l2.78,1.395l1.331,-2.279c-1.197,0.298 -1.893,0.447 -2.087,0.447l-3.546,-1.842c0.432,-3.961 0.705,-5.942 0.82,-5.942z" data-paper-data="{&quot;origPos&quot;:null}" fill="#000000" stroke="none" stroke-width="1" stroke-linecap="butt"/><path d="M220.559,174.22006c2.309,0.619 3.533,0.996 3.673,1.13c1.27,1.798 1.984,2.834 2.142,3.108c-0.821,2.601 -1.292,3.901 -1.413,3.901c-2.734,0.638 -4.165,0.957 -4.293,0.957c-2.26,-1.319 -3.464,-2.054 -3.609,-2.206c-0.079,-2.455 -0.119,-3.81 -0.119,-4.065c-0.036,-0.073 -0.055,-0.128 -0.055,-0.164c2.334,-1.774 3.54,-2.661 3.619,-2.661zM220.331,177.55608c-0.037,0.243 -0.091,1.127 -0.164,2.652l2.032,0.456c0.486,-1.52 0.729,-2.331 0.729,-2.434c-1.616,-0.486 -2.482,-0.729 -2.597,-0.729z" data-paper-data="{&quot;origPos&quot;:null}" fill="#000000" stroke="none" stroke-width="1" stroke-linecap="butt"/><path d="M232.125,174.21008l0.064,0.119l-1.231,6.526h0.064l3.136,-0.921v-3.691c0.012,-0.085 0.051,-0.128 0.118,-0.128c2.358,0.164 3.67,0.246 3.938,0.246c0,0.043 0.021,0.064 0.063,0.064c0,1.039 -0.328,3.193 -0.984,6.463c0,0.188 -0.942,0.331 -2.826,0.428c-0.097,-0.116 -0.179,-0.362 -0.246,-0.738c-2.412,0.492 -3.788,0.738 -4.129,0.738c-1.926,-1.434 -2.889,-2.172 -2.889,-2.215c0.328,-4.308 0.535,-6.544 0.62,-6.708h0.055c1.537,-0.043 2.953,-0.104 4.247,-0.183z" data-paper-data="{&quot;origPos&quot;:null}" fill="#000000" stroke="none" stroke-width="1" stroke-linecap="butt"/><path d="M245.742,174.21008c1.203,0.675 1.942,1.112 2.215,1.313c-0.984,2.048 -1.513,3.09 -1.586,3.126h-0.064l-1.303,-1.139l-1.54,1.878l0.173,3.418c-0.079,0.072 -1.085,0.243 -3.017,0.51c-0.073,-0.523 -0.547,-3.084 -1.422,-7.684c0,-0.073 1.27,-0.261 3.81,-0.565c0.042,0.049 0.158,0.617 0.346,1.705c1.519,-1.708 2.315,-2.562 2.388,-2.562z" data-paper-data="{&quot;origPos&quot;:null}" fill="#000000" stroke="none" stroke-width="1" stroke-linecap="butt"/><path d="M258.822,171.44908h0.054c2.747,0.231 4.12,0.41 4.12,0.537l1.212,10.728c0,0.079 -1.212,0.28 -3.636,0.602l-0.055,-0.119v-0.975c-2.09,0.565 -3.524,0.93 -4.302,1.094c-1.847,-2.613 -2.817,-4.004 -2.908,-4.175c1.361,-2.473 2.087,-3.724 2.179,-3.755l3.819,0.183c-0.079,-0.468 -0.24,-1.842 -0.483,-4.12zM257.126,177.98408c0.614,1.877 0.997,2.907 1.149,3.09l1.814,-1.577c-0.189,-1.088 -0.329,-1.632 -0.42,-1.632h-2.424c-0.079,0.013 -0.119,0.052 -0.119,0.119z" data-paper-data="{&quot;origPos&quot;:null}" fill="#2b70c2" stroke="none" stroke-width="1" stroke-linecap="butt"/><path d="M268.829,174.22006c2.309,0.619 3.534,0.996 3.674,1.13c1.27,1.798 1.984,2.834 2.141,3.108c-0.82,2.601 -1.291,3.901 -1.412,3.901c-2.735,0.638 -4.166,0.957 -4.293,0.957c-2.261,-1.319 -3.464,-2.054 -3.61,-2.206c-0.079,-2.455 -0.118,-3.81 -0.118,-4.065c-0.037,-0.073 -0.055,-0.128 -0.055,-0.164c2.334,-1.774 3.54,-2.661 3.619,-2.661zM268.602,177.55608c-0.037,0.243 -0.092,1.127 -0.165,2.652l2.033,0.456c0.486,-1.52 0.729,-2.331 0.729,-2.434c-1.616,-0.486 -2.482,-0.729 -2.597,-0.729z" data-paper-data="{&quot;origPos&quot;:null}" fill="#2b70c2" stroke="none" stroke-width="1" stroke-linecap="butt"/><path d="M279.475,174.21008c0.079,0.104 0.489,1.866 1.231,5.287h0.063c0,-0.079 0.45,-0.775 1.349,-2.087c0.377,0.255 1.094,0.808 2.151,1.659h0.128v-0.064c0.164,-2.37 0.286,-3.683 0.365,-3.938c2.503,0.128 3.755,0.231 3.755,0.31c-1.149,4.618 -1.762,7.018 -1.841,7.201c-0.383,0.042 -1.185,0.164 -2.407,0.364c-1.002,-1.574 -1.576,-2.412 -1.722,-2.515c-0.656,1.75 -1.067,2.713 -1.231,2.889h-2.461c-0.151,-0.049 -0.868,-1.629 -2.151,-4.74c-0.82,-1.738 -1.23,-2.679 -1.23,-2.825c0,-0.134 1.334,-0.647 4.001,-1.541z" data-paper-data="{&quot;origPos&quot;:null}" fill="#2b70c2" stroke="none" stroke-width="1" stroke-linecap="butt"/><path d="M297.604,174.21008l3.035,2.088c-0.212,3.463 -0.361,5.487 -0.446,6.07c-0.353,0.043 -1.425,0.106 -3.218,0.191l-0.064,-0.127l-0.319,-4.867l-0.127,-0.064c-1.161,0.249 -1.96,0.437 -2.397,0.565c0.121,2.072 0.182,3.57 0.182,4.493c-1.811,0.505 -2.801,0.757 -2.971,0.757c-1.179,-5.189 -1.769,-7.93 -1.769,-8.221c2.565,-0.335 3.956,-0.502 4.175,-0.502v0.064c0.042,0.03 0.106,0.662 0.191,1.896c2.352,-1.562 3.594,-2.343 3.728,-2.343z" data-paper-data="{&quot;origPos&quot;:null}" fill="#2b70c2" stroke="none" stroke-width="1" stroke-linecap="butt"/><path d="M313.527,174.21008c1.75,1.119 2.716,1.763 2.899,1.933c-0.632,1.403 -0.994,2.105 -1.085,2.105l-3.318,-1.923h-0.118c0,0.061 -0.143,0.401 -0.428,1.021c3.056,1.647 4.584,2.491 4.584,2.534c-0.857,1.981 -1.34,3.026 -1.449,3.135l-5.186,0.301c-2.018,-1.337 -3.102,-2.042 -3.254,-2.115v-0.054c0,-0.152 0.301,-0.836 0.902,-2.051l4.047,2.105l0.301,-1.203c-2.504,-1.124 -3.992,-1.826 -4.466,-2.105v-0.128c0,-0.231 0.483,-1.255 1.449,-3.071z" data-paper-data="{&quot;origPos&quot;:null}" fill="#2b70c2" stroke="none" stroke-width="1" stroke-linecap="butt"/><path d="M321.904,174.22006c0.188,0.777 0.319,1.257 0.392,1.44c2.685,-0.614 4.104,-0.921 4.256,-0.921c1.829,2.631 2.744,4.004 2.744,4.12l-2.097,4.448l-4.512,-0.72v0.136c0.353,2.704 0.529,4.142 0.529,4.312c-0.042,0 -0.064,0.021 -0.064,0.063c-0.437,-0.042 -0.765,-0.063 -0.984,-0.063h-0.784c-0.456,0 -1.154,-0.022 -2.096,-0.064c-0.085,-0.255 -0.739,-4.135 -1.96,-11.639c0.207,-0.086 1.732,-0.456 4.576,-1.112zM322.232,177.94706c0.121,1.398 0.231,2.097 0.328,2.097c1.246,0.431 2.008,0.647 2.288,0.647l0.72,-3.135h-0.064c-0.711,0.042 -1.802,0.173 -3.272,0.391z" data-paper-data="{&quot;origPos&quot;:null}" fill="#2b70c2" stroke="none" stroke-width="1" stroke-linecap="butt"/><path d="M335.402,174.22006c2.753,1.415 4.278,2.242 4.576,2.479c-0.395,1.847 -0.629,2.798 -0.702,2.853h-5.76v0.1l1.613,1.996l2.534,-1.294c0.249,0.431 0.607,1.185 1.075,2.26c-0.219,0.073 -1.814,0.307 -4.785,0.702c-2.461,-1.622 -3.7,-2.467 -3.719,-2.534c0.395,-3.154 0.629,-4.73 0.702,-4.73c2.57,-1.094 4.059,-1.705 4.466,-1.832zM334.81,176.42508c-0.049,0.122 -0.371,0.605 -0.966,1.45c0,0.255 0.358,0.382 1.075,0.382c0,0.037 0.52,0.125 1.559,0.265c0.285,-0.395 0.428,-0.626 0.428,-0.693c-0.091,-0.541 -0.288,-0.811 -0.592,-0.811z" data-paper-data="{&quot;origPos&quot;:null}" fill="#2b70c2" stroke="none" stroke-width="1" stroke-linecap="butt"/><path d="M344.389,174.22006c2.741,0.516 4.175,0.811 4.302,0.884v0.109c-0.589,1.665 -0.884,2.528 -0.884,2.589h-0.054c-0.152,0 -0.888,-0.237 -2.206,-0.711c-0.735,1.233 -1.103,1.892 -1.103,1.978l1.823,1.768c1.41,-1.325 2.127,-1.987 2.151,-1.987c1.1,1.44 1.65,2.248 1.65,2.424c-0.602,0.347 -1.65,1.027 -3.145,2.042c-2.892,-0.626 -4.454,-0.975 -4.685,-1.048l-1.431,-4.63z" data-paper-data="{&quot;origPos&quot;:null}" fill="#2b70c2" stroke="none" stroke-width="1" stroke-linecap="butt"/><path d="M352.237,170.55608l3.582,0.565c-0.45,1.719 -0.744,2.579 -0.884,2.579c-1.884,-0.128 -2.826,-0.252 -2.826,-0.374v-2.643c0.019,-0.085 0.061,-0.127 0.128,-0.127zM351.234,174.89408h0.055c2.771,0.504 4.156,0.799 4.156,0.884c-0.796,4.509 -1.279,7.021 -1.449,7.538h-2.889c-0.085,0 -0.128,-0.043 -0.128,-0.128z" data-paper-data="{&quot;origPos&quot;:null}" fill="#2b70c2" stroke="none" stroke-width="1" stroke-linecap="butt"/><path d="M357.505,174.21008c3.61,0.499 5.414,0.806 5.414,0.921c1.422,1.221 2.133,1.875 2.133,1.96c-0.577,1.804 -0.905,2.901 -0.984,3.29c0.577,1.282 0.905,2.048 0.984,2.297c0,0.073 -0.942,0.267 -2.825,0.583c-0.025,-0.103 -0.198,-0.334 -0.52,-0.692c-2.601,0.498 -4.001,0.747 -4.202,0.747l-1.385,-3.746l3.053,-1.613c0.492,0.079 1.261,0.118 2.306,0.118c0,-0.134 0.018,-0.538 0.055,-1.212c-0.176,0 -1.75,0.115 -4.722,0.346l-0.054,-0.118c0.413,-1.92 0.662,-2.881 0.747,-2.881zM359.401,179.57007c0,0.067 0.194,0.778 0.583,2.133h0.055c0.766,-0.499 1.148,-0.827 1.148,-0.985l0.119,-0.975c-0.146,0 -0.781,-0.058 -1.905,-0.173z" data-paper-data="{&quot;origPos&quot;:null}" fill="#2b70c2" stroke="none" stroke-width="1" stroke-linecap="butt"/><path d="M365.927,171.46708c1.859,0.036 3.224,0.055 4.092,0.055c0.079,0 0.319,3.731 0.721,11.192c-0.31,0.079 -1.392,0.28 -3.245,0.602c-0.091,0 -0.392,-2.285 -0.903,-6.854c-0.042,-0.11 -0.264,-1.775 -0.665,-4.995z" data-paper-data="{&quot;origPos&quot;:null}" fill="#2b70c2" stroke="none" stroke-width="1" stroke-linecap="butt"/><path d="M386.599,170.97507c0.061,0.006 0.364,0.638 0.911,1.896c-1.865,1.075 -2.813,1.634 -2.843,1.677l-1.094,6.963c0.772,0.334 1.549,0.723 2.333,1.167c-0.759,0.954 -1.282,1.562 -1.567,1.823c-2.145,-1.465 -3.251,-2.242 -3.318,-2.334c0.85,-5.286 1.337,-8.215 1.458,-8.786z" data-paper-data="{&quot;origPos&quot;:null}" fill="#000000" stroke="none" stroke-width="1" stroke-linecap="butt"/><path d="M393.462,171.44908h0.055c2.746,0.231 4.12,0.41 4.12,0.537l1.212,10.728c0,0.079 -1.212,0.28 -3.637,0.602l-0.054,-0.119v-0.975c-2.091,0.565 -3.525,0.93 -4.303,1.094c-1.847,-2.613 -2.816,-4.004 -2.907,-4.175c1.361,-2.473 2.087,-3.724 2.178,-3.755l3.819,0.183c-0.079,-0.468 -0.24,-1.842 -0.483,-4.12zM391.767,177.98408c0.614,1.877 0.996,2.907 1.148,3.09l1.814,-1.577c-0.188,-1.088 -0.328,-1.632 -0.419,-1.632h-2.425c-0.079,0.013 -0.118,0.052 -0.118,0.119z" data-paper-data="{&quot;origPos&quot;:null}" fill="#000000" stroke="none" stroke-width="1" stroke-linecap="butt"/><path d="M401.055,170.55608l3.582,0.565c-0.45,1.719 -0.745,2.579 -0.884,2.579c-1.884,-0.128 -2.826,-0.252 -2.826,-0.374v-2.643c0.018,-0.085 0.061,-0.127 0.128,-0.127zM400.052,174.89408h0.055c2.771,0.504 4.156,0.799 4.156,0.884c-0.796,4.509 -1.279,7.021 -1.449,7.538h-2.89c-0.085,0 -0.127,-0.043 -0.127,-0.128z" data-paper-data="{&quot;origPos&quot;:null}" fill="#000000" stroke="none" stroke-width="1" stroke-linecap="butt"/><path d="M408.483,174.21008c1.489,3.415 2.282,5.187 2.379,5.314c0.735,-2.789 1.164,-4.274 1.285,-4.457c2.321,0.213 3.482,0.395 3.482,0.547v0.064c-1.629,4.472 -2.504,6.815 -2.625,7.027c-1.799,0.328 -3.002,0.532 -3.61,0.611l-4.457,-6.599v-0.128c0.043,-0.079 1.225,-0.872 3.546,-2.379z" data-paper-data="{&quot;origPos&quot;:null}" fill="#000000" stroke="none" stroke-width="1" stroke-linecap="butt"/><path d="M421.772,174.22006c2.753,1.415 4.278,2.242 4.576,2.479c-0.395,1.847 -0.629,2.798 -0.702,2.853h-5.761v0.1l1.614,1.996l2.534,-1.294c0.249,0.431 0.607,1.185 1.075,2.26c-0.219,0.073 -1.814,0.307 -4.785,0.702c-2.461,-1.622 -3.701,-2.467 -3.719,-2.534c0.395,-3.154 0.629,-4.73 0.702,-4.73c2.57,-1.094 4.059,-1.705 4.466,-1.832zM421.18,176.42508c-0.049,0.122 -0.371,0.605 -0.966,1.45c0,0.255 0.358,0.382 1.075,0.382c0,0.037 0.52,0.125 1.559,0.265c0.285,-0.395 0.428,-0.626 0.428,-0.693c-0.091,-0.541 -0.289,-0.811 -0.592,-0.811z" data-paper-data="{&quot;origPos&quot;:null}" fill="#000000" stroke="none" stroke-width="1" stroke-linecap="butt"/><path d="M432.199,172.23308c0.122,0.571 0.608,3.5 1.459,8.786c-0.067,0.091 -1.176,0.869 -3.327,2.333c-0.286,-0.261 -0.812,-0.869 -1.577,-1.823c0.79,-0.443 1.571,-0.832 2.342,-1.166l-1.093,-6.964c-0.031,-0.042 -0.982,-0.601 -2.853,-1.677c0.553,-1.258 0.856,-1.89 0.911,-1.896z" data-paper-data="{&quot;origPos&quot;:null}" fill="#000000" stroke="none" stroke-width="1" stroke-linecap="butt"/><path d="M434.214,180.50908c0.042,0.024 0.99,0.097 2.843,0.218l0.037,0.073c-0.286,1.677 -0.468,2.516 -0.547,2.516h-2.115c-0.073,0 -0.17,-0.839 -0.291,-2.516c-0.025,0 -0.037,-0.073 -0.037,-0.218c0.073,-0.025 0.11,-0.049 0.11,-0.073z" data-paper-data="{&quot;origPos&quot;:null}" fill="#000000" stroke="none" stroke-width="1" stroke-linecap="butt"/></g></g></svg>