<svg xmlns="http://www.w3.org/2000/svg" xmlns:xlink="http://www.w3.org/1999/xlink" version="1.1" width="759.7064208984375" height="295.25482177734375" viewBox="0.2935771942138672 0.7451794147491455 759.7064208984375 295.25482177734375">
  <defs>
    <radialGradient id="grad_1" cx="0.0516" cy="0.46590000000000004" r="1.23292">
      <stop offset="0" stop-color="#6681BD" stop-opacity="1"/>
      <stop offset="1" stop-color="#45577F" stop-opacity="1"/>
    </radialGradient>
    <radialGradient id="grad_2" cx="0.46740000000000004" cy="0.12119999999999999" r="1.14244">
      <stop offset="0" stop-color="#45577F" stop-opacity="1"/>
      <stop offset="1" stop-color="#1F283A" stop-opacity="1"/>
    </radialGradient>
    <radialGradient id="grad_3" cx="0.4697" cy="0.08800000000000001" r="1.1856">
      <stop offset="0" stop-color="#45577F" stop-opacity="1"/>
      <stop offset="1" stop-color="#1F283A" stop-opacity="1"/>
    </radialGradient>
    <radialGradient id="grad_4" cx="0.6893" cy="0.36479999999999996" r="0.89609">
      <stop offset="0" stop-color="#6681BD" stop-opacity="1"/>
      <stop offset="1" stop-color="#45577F" stop-opacity="1"/>
    </radialGradient>
    <radialGradient id="grad_5" cx="0.8029999999999999" cy="0.10880000000000001" r="1.15856">
      <stop offset="0" stop-color="#45577F" stop-opacity="1"/>
      <stop offset="1" stop-color="#1F283A" stop-opacity="1"/>
    </radialGradient>
    <radialGradient id="grad_6" cx="0.8078" cy="0.0913" r="1.18131">
      <stop offset="0" stop-color="#45577F" stop-opacity="1"/>
      <stop offset="1" stop-color="#1F283A" stop-opacity="1"/>
    </radialGradient>
    <radialGradient id="grad_7" cx="0.1007" cy="0.2122" r="1.16909">
      <stop offset="0" stop-color="#6681BD" stop-opacity="1"/>
      <stop offset="1" stop-color="#45577F" stop-opacity="1"/>
    </radialGradient>
    <radialGradient id="grad_8" cx="0.32770000000000005" cy="0.0681" r="1.21147">
      <stop offset="0" stop-color="#45577F" stop-opacity="1"/>
      <stop offset="1" stop-color="#1F283A" stop-opacity="1"/>
    </radialGradient>
    <radialGradient id="grad_9" cx="0.33039999999999997" cy="0.0431" r="1.24397">
      <stop offset="0" stop-color="#45577F" stop-opacity="1"/>
      <stop offset="1" stop-color="#1F283A" stop-opacity="1"/>
    </radialGradient>
  <radialGradient id="grad_1-.42301297692756634,0.004125313367694616,-0.011081408095783729,0.9999459385871887,285.8743328094482,-189.25" cx="292.6285" cy="146.7995" r="322.699" gradientUnits="userSpaceOnUse">
      <stop offset="0" stop-color="#6681BD" stop-opacity="1"/>
      <stop offset="1" stop-color="#45577F" stop-opacity="1"/>
    </radialGradient><radialGradient id="grad_2-.42301297692756634,0.004125313367694616,-0.011081408095783729,0.9999459385871887,285.8743328094482,-189.25" cx="377.5252" cy="106.481" r="328.9418" gradientUnits="userSpaceOnUse">
      <stop offset="0" stop-color="#45577F" stop-opacity="1"/>
      <stop offset="1" stop-color="#1F283A" stop-opacity="1"/>
    </radialGradient><radialGradient id="grad_4-.3968219757080078,0.004125313367694616,-0.010395298711955547,0.9999459385871887,13.1,-128.25" cx="140.9489" cy="204.513" r="232.3917" gradientUnits="userSpaceOnUse">
      <stop offset="0" stop-color="#6681BD" stop-opacity="1"/>
      <stop offset="1" stop-color="#45577F" stop-opacity="1"/>
    </radialGradient><radialGradient id="grad_5-.3968219757080078,0.004125313367694616,-0.010395298711955547,0.9999459385871887,13.1,-128.25" cx="169.2853" cy="167.4886" r="330.5297" gradientUnits="userSpaceOnUse">
      <stop offset="0" stop-color="#45577F" stop-opacity="1"/>
      <stop offset="1" stop-color="#1F283A" stop-opacity="1"/>
    </radialGradient><radialGradient id="grad_7-,0,0,1,52,-65" cx="510.7932" cy="77.5672" r="322.6688" gradientUnits="userSpaceOnUse">
      <stop offset="0" stop-color="#6681BD" stop-opacity="1"/>
      <stop offset="1" stop-color="#45577F" stop-opacity="1"/>
    </radialGradient><radialGradient id="grad_8-.3430140018463135,0.004125313367694616,-0.008985725231468678,0.9999459385871887,486,-286.25" cx="535.0857" cy="6.0845" r="339.6235" gradientUnits="userSpaceOnUse">
      <stop offset="0" stop-color="#45577F" stop-opacity="1"/>
      <stop offset="1" stop-color="#1F283A" stop-opacity="1"/>
    </radialGradient></defs>
  <!-- Exported by Scratch - http://scratch.mit.edu/ -->
  <g id="ID0.45915288757532835">
    <path id="ID0.29126935824751854" fill="url(#grad_1-.42301297692756634,0.004125313367694616,-0.011081408095783729,0.9999459385871887,285.8743328094482,-189.25)" stroke="#496087" stroke-width="1.5355584694651712" d="M 282.3837 125.733 L 485.4299 127.7131 L 484.9313 172.7107 L 281.885 170.7305 L 282.3837 125.733 Z "/>
    <path id="ID0.22012263583019376" fill="url(#grad_2-.42301297692756634,0.004125313367694616,-0.011081408095783729,0.9999459385871887,285.8743328094482,-189.25)" stroke="url(#grad_3)" stroke-width="1.5355584694651712" stroke-linecap="round" d="M 385.4196 104.7366 C 421.2755 106.2693 457.5394 101.3317 493.2436 109.7883 C 502.1696 111.9025 488.5286 126.2473 485.4078 129.713 C 476.0389 140.0802 465.7482 149.6784 455.4263 149.9227 C 442.6678 150.2193 430.9476 128.1679 418.1487 129.0571 C 406.046 130.8702 395.5809 158.3856 383.5633 157.7214 C 370.7445 157.0083 360.3604 128.2345 347.5166 127.3682 C 335.3589 125.0255 324.17 147.8817 311.8887 148.5229 C 301.5678 149.0543 291.1787 139.8545 282.3615 127.7329 C 278.9008 122.9699 267.7028 103.5816 276.7275 101.6765 C 312.8269 94.0551 349.1748 103.5681 385.4196 104.7366 Z "/>
  </g>
  <g id="ID0.45915288757532835">
    <path id="ID0.29126935824751854" fill="url(#grad_4-.3968219757080078,0.004125313367694616,-0.010395298711955547,0.9999459385871887,13.1,-128.25)" stroke="#496087" stroke-width="1.5215023108411714" d="M 9.8255 186.733 L 200.3 188.7131 L 199.8322 233.7107 L 9.3577 231.7305 L 9.8255 186.733 Z "/>
    <path id="ID0.22012263583019376" fill="url(#grad_5-.3968219757080078,0.004125313367694616,-0.010395298711955547,0.9999459385871887,13.1,-128.25)" stroke="url(#grad_6)" stroke-width="1.5215023108411714" stroke-linecap="round" d="M 106.4819 165.7366 C 140.1177 167.2693 174.1363 162.3317 207.6299 170.7883 C 216.0032 172.9025 203.2068 187.2473 200.2792 190.713 C 191.4904 201.0802 181.8369 210.6784 172.1541 210.9227 C 160.1855 211.2193 149.191 189.1679 137.1845 190.0571 C 125.8312 191.8702 116.0141 219.3856 104.7405 218.7214 C 92.7154 218.0083 82.9742 189.2345 70.9257 188.3682 C 59.5207 186.0255 49.0245 208.8817 37.5036 209.5229 C 27.8218 210.0543 18.0759 200.8545 9.8047 188.7329 C 6.5582 183.9699 -3.9464 164.5816 4.5195 162.6765 C 38.3838 155.0551 72.4812 164.5681 106.4819 165.7366 Z "/>
  </g>
  <path id="ID0.5875854576006532" fill="#009999" stroke="none" d="M 322 16.5 L 322 16.5 L 322 17 L 322 17 L 322 16.5 Z " stroke-width="1"/>
  <path id="ID0.8837891323491931" fill="url(#grad_7-,0,0,1,52,-65)" stroke="#496087" stroke-width="2" d="M 483 19 L 759 19 L 759 295 L 483 295 L 483 19 Z "/>
  <g id="ID0.45915288757532835">
    <path id="ID0.22012263583019376" fill="url(#grad_8-.3430140018463135,0.004125313367694616,-0.008985725231468678,0.9999459385871887,486,-286.25)" stroke="url(#grad_9)" stroke-width="1.4950846163504152" stroke-linecap="round" d="M 566.7196 7.7366 C 595.7945 9.2693 625.2003 4.3317 654.1522 12.7883 C 661.3901 14.9025 650.3289 29.2473 647.7982 32.713 C 640.2012 43.0802 631.8567 52.6784 623.4868 52.9227 C 613.1411 53.2193 603.6374 31.1679 593.259 32.0571 C 583.4452 33.8702 574.9592 61.3856 565.2143 60.7214 C 554.8197 60.0083 546.3995 31.2345 535.9847 30.3682 C 526.1262 28.0255 517.0533 50.8817 507.0946 51.5229 C 498.7255 52.0543 490.3012 42.8545 483.1515 30.7329 C 480.3453 25.9699 471.265 6.5816 478.583 4.6765 C 507.8554 -2.9449 537.3292 6.5681 566.7196 7.7366 Z "/>
  </g>
</svg>